<?xml version="1.0" encoding="UTF-8" standalone="no"?>
<!DOCTYPE svg PUBLIC "-//W3C//DTD SVG 1.1//EN"
 "http://www.w3.org/Graphics/SVG/1.1/DTD/svg11.dtd">
<!-- Generated by graphviz version 2.38.0 (20140413.2041)
 -->
<!-- Title: %3 Pages: 1 -->
<svg width="1827pt" height="92pt"
 viewBox="0.00 0.00 1826.50 91.70" xmlns="http://www.w3.org/2000/svg" xmlns:xlink="http://www.w3.org/1999/xlink">
<g id="graph0" class="graph" transform="scale(1 1) rotate(0) translate(4 87.6985)">
<title>%3</title>
<polygon fill="white" stroke="none" points="-4,4 -4,-87.6985 1822.5,-87.6985 1822.5,4 -4,4"/>
<!-- &#45;1 -->
<g id="node1" class="node"><title>&#45;1</title>
<polygon fill="lightgray" stroke="black" points="1289,-83.6985 1265,-83.6985 1265,-65.6985 1289,-65.6985 1289,-83.6985"/>
<text text-anchor="middle" x="1277" y="-72.4985" font-family="Times New Roman,serif" font-size="9.00">&#45;1</text>
</g>
<!-- 0 -->
<g id="node41" class="node"><title>0</title>
<ellipse fill="lightblue" stroke="black" cx="902" cy="-14.8492" rx="14.7" ry="14.7"/>
<text text-anchor="middle" x="902" y="-12.6492" font-family="Times New Roman,serif" font-size="9.00">0</text>
</g>
<!-- &#45;1&#45;&gt;0 -->
<g id="edge1" class="edge"><title>&#45;1&#45;&gt;0</title>
<path fill="none" stroke="green" stroke-width="0.353026" d="M1264.73,-68.4247C1261.9,-67.3798 1258.88,-66.3927 1256,-65.6985 1112.56,-31.1562 1066.23,-75.5506 926,-29.6985 925.12,-29.4107 924.236,-29.0879 923.355,-28.7369"/>
<polygon fill="green" stroke="green" stroke-width="0.353026" points="924.757,-25.5253 914.243,-24.2143 921.644,-31.7954 924.757,-25.5253"/>
</g>
<!-- 1 -->
<g id="node42" class="node"><title>1</title>
<ellipse fill="lightblue" stroke="black" cx="950" cy="-14.8492" rx="14.7" ry="14.7"/>
<text text-anchor="middle" x="950" y="-12.6492" font-family="Times New Roman,serif" font-size="9.00">1</text>
</g>
<!-- &#45;1&#45;&gt;1 -->
<g id="edge2" class="edge"><title>&#45;1&#45;&gt;1</title>
<path fill="none" stroke="green" stroke-width="0.486776" d="M1264.72,-68.4638C1261.9,-67.4169 1258.88,-66.4191 1256,-65.6985 1133.44,-34.993 1093.73,-70.0641 974,-29.6985 973.122,-29.4026 972.241,-29.073 971.362,-28.7163"/>
<polygon fill="green" stroke="green" stroke-width="0.486776" points="972.769,-25.5067 962.259,-24.1668 969.639,-31.7682 972.769,-25.5067"/>
</g>
<!-- 2 -->
<g id="node43" class="node"><title>2</title>
<ellipse fill="lightblue" stroke="black" cx="854" cy="-14.8492" rx="14.7" ry="14.7"/>
<text text-anchor="middle" x="854" y="-12.6492" font-family="Times New Roman,serif" font-size="9.00">2</text>
</g>
<!-- &#45;1&#45;&gt;2 -->
<g id="edge3" class="edge"><title>&#45;1&#45;&gt;2</title>
<path fill="none" stroke="red" stroke-width="0.17552" d="M1264.74,-68.3954C1261.91,-67.352 1258.89,-66.3729 1256,-65.6985 1091.66,-27.3128 1038.76,-81.0457 878,-29.6985 876.946,-29.3618 875.888,-28.9739 874.834,-28.5466"/>
<polygon fill="red" stroke="red" stroke-width="0.17552" points="876.243,-25.3373 865.738,-23.9602 873.092,-31.5877 876.243,-25.3373"/>
</g>
<!-- 3 -->
<g id="node44" class="node"><title>3</title>
<ellipse fill="lightblue" stroke="black" cx="998" cy="-14.8492" rx="14.7" ry="14.7"/>
<text text-anchor="middle" x="998" y="-12.6492" font-family="Times New Roman,serif" font-size="9.00">3</text>
</g>
<!-- &#45;1&#45;&gt;3 -->
<g id="edge4" class="edge"><title>&#45;1&#45;&gt;3</title>
<path fill="none" stroke="red" stroke-width="0.120924" d="M1264.68,-68.5995C1261.86,-67.5455 1258.85,-66.5105 1256,-65.6985 1171.92,-41.7549 1069.14,-25.7246 1022.78,-19.1774"/>
<polygon fill="red" stroke="red" stroke-width="0.120924" points="1023.14,-15.6941 1012.76,-17.7864 1022.18,-22.6277 1023.14,-15.6941"/>
</g>
<!-- &#45;2 -->
<g id="node2" class="node"><title>&#45;2</title>
<polygon fill="lightgray" stroke="black" points="1331,-83.6985 1307,-83.6985 1307,-65.6985 1331,-65.6985 1331,-83.6985"/>
<text text-anchor="middle" x="1319" y="-72.4985" font-family="Times New Roman,serif" font-size="9.00">&#45;2</text>
</g>
<!-- &#45;2&#45;&gt;0 -->
<g id="edge5" class="edge"><title>&#45;2&#45;&gt;0</title>
<path fill="none" stroke="green" stroke-width="0.119445" d="M1306.74,-68.3986C1303.91,-67.3551 1300.89,-66.3751 1298,-65.6985 1136.28,-27.7935 1084.19,-80.3585 926,-29.6985 924.946,-29.361 923.888,-28.9724 922.835,-28.5446"/>
<polygon fill="green" stroke="green" stroke-width="0.119445" points="924.244,-25.3355 913.74,-23.9563 921.091,-31.5852 924.244,-25.3355"/>
</g>
<!-- &#45;2&#45;&gt;1 -->
<g id="edge6" class="edge"><title>&#45;2&#45;&gt;1</title>
<path fill="none" stroke="red" stroke-width="0.144422" d="M1306.73,-68.429C1303.9,-67.3838 1300.88,-66.3956 1298,-65.6985 1157.17,-31.6362 1111.67,-74.8642 974,-29.6985 973.12,-29.4098 972.237,-29.0862 971.356,-28.7346"/>
<polygon fill="red" stroke="red" stroke-width="0.144422" points="972.758,-25.5233 962.245,-24.2091 969.644,-31.7924 972.758,-25.5233"/>
</g>
<!-- &#45;2&#45;&gt;2 -->
<g id="edge7" class="edge"><title>&#45;2&#45;&gt;2</title>
<path fill="none" stroke="green" stroke-width="0.361497" stroke-dasharray="1,5" d="M1306.74,-68.3751C1303.92,-67.3328 1300.89,-66.3593 1298,-65.6985 1115.36,-23.9464 1056.74,-85.8587 878,-29.6985 876.944,-29.3668 875.885,-28.983 874.83,-28.559"/>
<polygon fill="green" stroke="green" stroke-width="0.361497" points="876.237,-25.3489 865.731,-23.9848 873.093,-31.6032 876.237,-25.3489"/>
</g>
<!-- &#45;2&#45;&gt;3 -->
<g id="edge8" class="edge"><title>&#45;2&#45;&gt;3</title>
<path fill="none" stroke="green" stroke-width="0.253963" d="M1306.7,-68.544C1303.88,-67.4929 1300.86,-66.4731 1298,-65.6985 1198.05,-38.6481 1075.18,-23.7883 1023.16,-18.3161"/>
<polygon fill="green" stroke="green" stroke-width="0.253963" points="1023.2,-14.8014 1012.9,-17.262 1022.49,-21.7648 1023.2,-14.8014"/>
</g>
<!-- &#45;3 -->
<g id="node3" class="node"><title>&#45;3</title>
<polygon fill="lightgray" stroke="black" points="1373,-83.6985 1349,-83.6985 1349,-65.6985 1373,-65.6985 1373,-83.6985"/>
<text text-anchor="middle" x="1361" y="-72.4985" font-family="Times New Roman,serif" font-size="9.00">&#45;3</text>
</g>
<!-- &#45;3&#45;&gt;0 -->
<g id="edge9" class="edge"><title>&#45;3&#45;&gt;0</title>
<path fill="none" stroke="red" stroke-width="0.889061" d="M1348.74,-68.3778C1345.92,-67.3353 1342.89,-66.3611 1340,-65.6985 1159.98,-24.4274 1102.17,-85.1709 926,-29.6985 924.945,-29.3662 923.885,-28.9818 922.831,-28.5573"/>
<polygon fill="red" stroke="red" stroke-width="0.889061" points="924.238,-25.3474 913.732,-23.9816 921.093,-31.6012 924.238,-25.3474"/>
</g>
<!-- &#45;3&#45;&gt;1 -->
<g id="edge10" class="edge"><title>&#45;3&#45;&gt;1</title>
<path fill="none" stroke="red" stroke-width="0.26424" d="M1348.73,-68.402C1345.91,-67.3583 1342.89,-66.3774 1340,-65.6985 1180.89,-28.2741 1129.63,-79.6713 974,-29.6985 972.947,-29.3602 971.889,-28.9709 970.836,-28.5425"/>
<polygon fill="red" stroke="red" stroke-width="0.26424" points="972.245,-25.3335 961.741,-23.9522 969.091,-31.5827 972.245,-25.3335"/>
</g>
<!-- &#45;3&#45;&gt;2 -->
<g id="edge11" class="edge"><title>&#45;3&#45;&gt;2</title>
<path fill="none" stroke="red" stroke-width="0.168179" d="M1348.74,-68.3585C1345.92,-67.3171 1342.89,-66.3481 1340,-65.6985 1139.05,-20.5776 1074.72,-90.6747 878,-29.6985 876.943,-29.3709 875.882,-28.9904 874.827,-28.5691"/>
<polygon fill="red" stroke="red" stroke-width="0.168179" points="876.232,-25.3584 865.724,-24.0049 873.095,-31.6158 876.232,-25.3584"/>
</g>
<!-- &#45;3&#45;&gt;3 -->
<g id="edge12" class="edge"><title>&#45;3&#45;&gt;3</title>
<path fill="none" stroke="green" stroke-width="0.286379" d="M1348.71,-68.5016C1345.89,-67.4528 1342.87,-66.4446 1340,-65.6985 1223.77,-35.4787 1080.22,-22.0411 1023.13,-17.6166"/>
<polygon fill="green" stroke="green" stroke-width="0.286379" points="1023.13,-14.1069 1012.9,-16.8495 1022.61,-21.0873 1023.13,-14.1069"/>
</g>
<!-- &#45;4 -->
<g id="node4" class="node"><title>&#45;4</title>
<polygon fill="lightgray" stroke="black" points="1415,-83.6985 1391,-83.6985 1391,-65.6985 1415,-65.6985 1415,-83.6985"/>
<text text-anchor="middle" x="1403" y="-72.4985" font-family="Times New Roman,serif" font-size="9.00">&#45;4</text>
</g>
<!-- &#45;4&#45;&gt;0 -->
<g id="edge13" class="edge"><title>&#45;4&#45;&gt;0</title>
<path fill="none" stroke="green" stroke-width="0.305845" d="M1390.74,-68.3607C1387.92,-67.3191 1384.89,-66.3496 1382,-65.6985 1183.66,-21.059 1120.15,-89.9865 926,-29.6985 924.943,-29.3704 923.883,-28.9894 922.828,-28.5678"/>
<polygon fill="green" stroke="green" stroke-width="0.305845" points="924.233,-25.3571 913.725,-24.0022 921.095,-31.6142 924.233,-25.3571"/>
</g>
<!-- &#45;4&#45;&gt;1 -->
<g id="edge14" class="edge"><title>&#45;4&#45;&gt;1</title>
<path fill="none" stroke="green" stroke-width="0.293969" d="M1390.74,-68.3805C1387.91,-67.3379 1384.89,-66.3629 1382,-65.6985 1204.59,-24.9085 1147.6,-84.4832 974,-29.6985 972.945,-29.3655 971.886,-28.9806 970.831,-28.5557"/>
<polygon fill="green" stroke="green" stroke-width="0.293969" points="972.239,-25.3458 961.733,-23.9783 969.093,-31.5991 972.239,-25.3458"/>
</g>
<!-- &#45;4&#45;&gt;2 -->
<g id="edge15" class="edge"><title>&#45;4&#45;&gt;2</title>
<path fill="none" stroke="red" stroke-width="0.174545" d="M1390.75,-68.3447C1387.92,-67.3039 1384.9,-66.3387 1382,-65.6985 1162.73,-17.2072 1092.72,-95.493 878,-29.6985 876.942,-29.3743 875.881,-28.9966 874.825,-28.5776"/>
<polygon fill="red" stroke="red" stroke-width="0.174545" points="876.228,-25.3663 865.719,-24.0217 873.096,-31.6264 876.228,-25.3663"/>
</g>
<!-- &#45;4&#45;&gt;3 -->
<g id="edge16" class="edge"><title>&#45;4&#45;&gt;3</title>
<path fill="none" stroke="green" stroke-width="0.191907" d="M1390.72,-68.4683C1387.89,-67.4212 1384.88,-66.4221 1382,-65.6985 1249.43,-32.3373 1085.19,-20.5231 1023.23,-17.0744"/>
<polygon fill="green" stroke="green" stroke-width="0.191907" points="1023.05,-13.5602 1012.88,-16.5245 1022.68,-20.5503 1023.05,-13.5602"/>
</g>
<!-- &#45;5 -->
<g id="node5" class="node"><title>&#45;5</title>
<polygon fill="lightgray" stroke="black" points="1457,-83.6985 1433,-83.6985 1433,-65.6985 1457,-65.6985 1457,-83.6985"/>
<text text-anchor="middle" x="1445" y="-72.4985" font-family="Times New Roman,serif" font-size="9.00">&#45;5</text>
</g>
<!-- &#45;5&#45;&gt;0 -->
<g id="edge17" class="edge"><title>&#45;5&#45;&gt;0</title>
<path fill="none" stroke="red" stroke-width="0.198524" d="M1432.75,-68.3465C1429.92,-67.3057 1426.89,-66.34 1424,-65.6985 1207.34,-17.6887 1138.15,-94.8046 926,-29.6985 924.942,-29.3739 923.881,-28.9958 922.825,-28.5765"/>
<polygon fill="red" stroke="red" stroke-width="0.198524" points="924.229,-25.3652 913.72,-24.0195 921.096,-31.625 924.229,-25.3652"/>
</g>
<!-- &#45;5&#45;&gt;1 -->
<g id="edge18" class="edge"><title>&#45;5&#45;&gt;1</title>
<path fill="none" stroke="green" stroke-width="0.259375" d="M1432.74,-68.363C1429.92,-67.3213 1426.89,-66.3511 1424,-65.6985 1228.28,-21.5403 1165.58,-89.2984 974,-29.6985 972.943,-29.3698 971.883,-28.9884 970.828,-28.5664"/>
<polygon fill="green" stroke="green" stroke-width="0.259375" points="972.234,-25.3558 961.726,-23.9995 969.094,-31.6125 972.234,-25.3558"/>
</g>
<!-- &#45;5&#45;&gt;2 -->
<g id="edge19" class="edge"><title>&#45;5&#45;&gt;2</title>
<path fill="none" stroke="red" stroke-width="0.371885" d="M1432.75,-68.3329C1429.92,-67.2928 1426.9,-66.3308 1424,-65.6985 1186.4,-13.8354 1110.72,-100.313 878,-29.6985 876.941,-29.3772 875.879,-29.0019 874.822,-28.5848"/>
<polygon fill="red" stroke="red" stroke-width="0.371885" points="876.225,-25.373 865.715,-24.036 873.097,-31.6354 876.225,-25.373"/>
</g>
<!-- &#45;5&#45;&gt;3 -->
<g id="edge20" class="edge"><title>&#45;5&#45;&gt;3</title>
<path fill="none" stroke="red" stroke-width="0.216997" d="M1432.72,-68.4414C1429.9,-67.3956 1426.88,-66.404 1424,-65.6985 1274.95,-29.1878 1089.82,-19.1558 1023.28,-16.6316"/>
<polygon fill="red" stroke="red" stroke-width="0.216997" points="1023.07,-13.1221 1012.95,-16.2652 1022.82,-20.1177 1023.07,-13.1221"/>
</g>
<!-- &#45;6 -->
<g id="node6" class="node"><title>&#45;6</title>
<polygon fill="lightgray" stroke="black" points="24,-83.6985 0,-83.6985 0,-65.6985 24,-65.6985 24,-83.6985"/>
<text text-anchor="middle" x="12" y="-72.4985" font-family="Times New Roman,serif" font-size="9.00">&#45;6</text>
</g>
<!-- &#45;6&#45;&gt;0 -->
<g id="edge21" class="edge"><title>&#45;6&#45;&gt;0</title>
<path fill="none" stroke="green" stroke-width="0.453914" d="M24.2393,-68.2829C27.0654,-67.2453 30.096,-66.2971 33,-65.6985 217.078,-27.7553 697.527,-82.1764 878,-29.6985 879.062,-29.3895 880.128,-29.0243 881.187,-28.6154"/>
<polygon fill="green" stroke="green" stroke-width="0.453914" points="882.898,-31.6737 890.303,-24.0967 879.789,-25.4018 882.898,-31.6737"/>
</g>
<!-- &#45;6&#45;&gt;1 -->
<g id="edge22" class="edge"><title>&#45;6&#45;&gt;1</title>
<path fill="none" stroke="red" stroke-width="0.20251" d="M24.2383,-68.278C27.0644,-67.2407 30.0953,-66.2938 33,-65.6985 227.562,-25.8261 735.23,-84.9341 926,-29.6985 927.063,-29.3908 928.128,-29.0265 929.188,-28.6185"/>
<polygon fill="red" stroke="red" stroke-width="0.20251" points="930.897,-31.6775 938.305,-24.1027 927.79,-25.4047 930.897,-31.6775"/>
</g>
<!-- &#45;6&#45;&gt;2 -->
<g id="edge23" class="edge"><title>&#45;6&#45;&gt;2</title>
<path fill="none" stroke="red" stroke-width="0.116693" d="M24.2475,-68.3218C27.0731,-67.2822 30.1015,-66.3233 33,-65.6985 190.531,-31.7411 708.463,-18.9125 828.845,-16.3517"/>
<polygon fill="red" stroke="red" stroke-width="0.116693" points="829.009,-19.8492 838.934,-16.1416 828.863,-12.8507 829.009,-19.8492"/>
</g>
<!-- &#45;7 -->
<g id="node7" class="node"><title>&#45;7</title>
<polygon fill="lightgray" stroke="black" points="1499,-83.6985 1475,-83.6985 1475,-65.6985 1499,-65.6985 1499,-83.6985"/>
<text text-anchor="middle" x="1487" y="-72.4985" font-family="Times New Roman,serif" font-size="9.00">&#45;7</text>
</g>
<!-- &#45;7&#45;&gt;0 -->
<g id="edge24" class="edge"><title>&#45;7&#45;&gt;0</title>
<path fill="none" stroke="red" stroke-width="0.312581" d="M1474.75,-68.3345C1471.92,-67.2943 1468.9,-66.3319 1466,-65.6985 1231.02,-14.3172 1156.14,-99.6244 926,-29.6985 924.941,-29.3768 923.879,-29.0012 922.823,-28.5838"/>
<polygon fill="red" stroke="red" stroke-width="0.312581" points="924.225,-25.3721 913.715,-24.0341 921.097,-31.6342 924.225,-25.3721"/>
</g>
<!-- &#45;7&#45;&gt;1 -->
<g id="edge25" class="edge"><title>&#45;7&#45;&gt;1</title>
<path fill="none" stroke="red" stroke-width="0.449417" d="M1474.75,-68.3484C1471.92,-67.3074 1468.89,-66.3412 1466,-65.6985 1251.96,-18.1703 1183.57,-94.1161 974,-29.6985 972.942,-29.3734 971.881,-28.9949 970.825,-28.5753"/>
<polygon fill="red" stroke="red" stroke-width="0.449417" points="972.229,-25.3642 961.72,-24.0172 969.096,-31.6236 972.229,-25.3642"/>
</g>
<!-- &#45;7&#45;&gt;2 -->
<g id="edge26" class="edge"><title>&#45;7&#45;&gt;2</title>
<path fill="none" stroke="red" stroke-width="0.520323" d="M1474.75,-68.3228C1471.93,-67.2832 1468.9,-66.324 1466,-65.6985 1210.07,-10.4627 1128.72,-105.134 878,-29.6985 876.94,-29.3797 875.878,-29.0064 874.821,-28.591"/>
<polygon fill="red" stroke="red" stroke-width="0.520323" points="876.222,-25.3788 865.711,-24.0482 873.098,-31.6431 876.222,-25.3788"/>
</g>
<!-- &#45;7&#45;&gt;3 -->
<g id="edge27" class="edge"><title>&#45;7&#45;&gt;3</title>
<path fill="none" stroke="green" stroke-width="0.427643" d="M1474.73,-68.4192C1471.91,-67.3746 1468.88,-66.389 1466,-65.6985 1300.44,-26.0504 1094.37,-17.9197 1023.39,-16.2666"/>
<polygon fill="green" stroke="green" stroke-width="0.427643" points="1023.26,-12.7631 1013.19,-16.053 1023.12,-19.7616 1023.26,-12.7631"/>
</g>
<!-- &#45;8 -->
<g id="node8" class="node"><title>&#45;8</title>
<polygon fill="lightgray" stroke="black" points="1541,-83.6985 1517,-83.6985 1517,-65.6985 1541,-65.6985 1541,-83.6985"/>
<text text-anchor="middle" x="1529" y="-72.4985" font-family="Times New Roman,serif" font-size="9.00">&#45;8</text>
</g>
<!-- &#45;8&#45;&gt;0 -->
<g id="edge28" class="edge"><title>&#45;8&#45;&gt;0</title>
<path fill="none" stroke="green" stroke-width="0.104832" d="M1516.75,-68.3242C1513.93,-67.2845 1510.9,-66.3249 1508,-65.6985 1254.69,-10.9446 1174.15,-104.446 926,-29.6985 924.941,-29.3794 923.878,-29.0058 922.821,-28.5901"/>
<polygon fill="green" stroke="green" stroke-width="0.104832" points="924.222,-25.3781 913.712,-24.0466 921.098,-31.6421 924.222,-25.3781"/>
</g>
<!-- &#45;8&#45;&gt;1 -->
<g id="edge29" class="edge"><title>&#45;8&#45;&gt;1</title>
<path fill="none" stroke="red" stroke-width="0.748224" d="M1516.75,-68.3361C1513.92,-67.2958 1510.9,-66.3329 1508,-65.6985 1275.64,-14.7989 1201.57,-98.9357 974,-29.6985 972.941,-29.3764 971.879,-29.0005 970.823,-28.5829"/>
<polygon fill="red" stroke="red" stroke-width="0.748224" points="972.226,-25.3712 961.716,-24.0321 969.097,-31.633 972.226,-25.3712"/>
</g>
<!-- &#45;8&#45;&gt;2 -->
<g id="edge30" class="edge"><title>&#45;8&#45;&gt;2</title>
<path fill="none" stroke="red" stroke-width="0.472382" d="M1516.75,-68.3141C1513.93,-67.2749 1510.9,-66.3181 1508,-65.6985 1233.74,-7.08916 1146.73,-109.957 878,-29.6985 876.94,-29.3819 875.876,-29.0103 874.819,-28.5963"/>
<polygon fill="red" stroke="red" stroke-width="0.472382" points="876.22,-25.3839 865.708,-24.0588 873.099,-31.6498 876.22,-25.3839"/>
</g>
<!-- &#45;8&#45;&gt;3 -->
<g id="edge31" class="edge"><title>&#45;8&#45;&gt;3</title>
<path fill="none" stroke="green" stroke-width="0.380134" d="M1516.73,-68.4007C1513.91,-67.357 1510.89,-66.3765 1508,-65.6985 1325.53,-22.8391 1097.98,-16.7619 1023.13,-15.9533"/>
<polygon fill="green" stroke="green" stroke-width="0.380134" points="1022.87,-12.4511 1012.84,-15.8662 1022.81,-19.4508 1022.87,-12.4511"/>
</g>
<!-- &#45;9 -->
<g id="node9" class="node"><title>&#45;9</title>
<polygon fill="lightgray" stroke="black" points="1583,-83.6985 1559,-83.6985 1559,-65.6985 1583,-65.6985 1583,-83.6985"/>
<text text-anchor="middle" x="1571" y="-72.4985" font-family="Times New Roman,serif" font-size="9.00">&#45;9</text>
</g>
<!-- &#45;9&#45;&gt;0 -->
<g id="edge32" class="edge"><title>&#45;9&#45;&gt;0</title>
<path fill="none" stroke="green" stroke-width="0.164658" d="M1558.75,-68.3153C1555.93,-67.276 1552.9,-66.3189 1550,-65.6985 1278.36,-7.57114 1192.15,-109.268 926,-29.6985 924.94,-29.3816 923.877,-29.0098 922.819,-28.5956"/>
<polygon fill="green" stroke="green" stroke-width="0.164658" points="924.22,-25.3832 913.708,-24.0574 921.099,-31.6489 924.22,-25.3832"/>
</g>
<!-- &#45;9&#45;&gt;1 -->
<g id="edge33" class="edge"><title>&#45;9&#45;&gt;1</title>
<path fill="none" stroke="red" stroke-width="0.145095" stroke-dasharray="1,5" d="M1558.75,-68.3256C1555.93,-67.2858 1552.9,-66.3259 1550,-65.6985 1299.31,-11.4264 1219.58,-103.757 974,-29.6985 972.941,-29.379 971.878,-29.0052 970.821,-28.5893"/>
<polygon fill="red" stroke="red" stroke-width="0.145095" points="972.223,-25.3773 961.712,-24.0449 969.098,-31.641 972.223,-25.3773"/>
</g>
<!-- &#45;9&#45;&gt;2 -->
<g id="edge34" class="edge"><title>&#45;9&#45;&gt;2</title>
<path fill="none" stroke="red" stroke-width="0.226341" d="M1558.76,-68.3064C1555.93,-67.2677 1552.9,-66.313 1550,-65.6985 1257.4,-3.715 1164.74,-114.78 878,-29.6985 876.939,-29.3837 875.875,-29.0138 874.818,-28.601"/>
<polygon fill="red" stroke="red" stroke-width="0.226341" points="876.217,-25.3883 865.705,-24.0681 873.1,-31.6557 876.217,-25.3883"/>
</g>
<!-- &#45;9&#45;&gt;3 -->
<g id="edge35" class="edge"><title>&#45;9&#45;&gt;3</title>
<path fill="none" stroke="green" stroke-width="0.647537" d="M1558.74,-68.3849C1555.91,-67.342 1552.89,-66.3659 1550,-65.6985 1351.17,-19.7693 1102.96,-15.7267 1023.62,-15.6918"/>
<polygon fill="green" stroke="green" stroke-width="0.647537" points="1023.16,-12.1925 1013.17,-15.7112 1023.17,-19.1925 1023.16,-12.1925"/>
</g>
<!-- &#45;10 -->
<g id="node10" class="node"><title>&#45;10</title>
<polygon fill="lightgray" stroke="black" points="1630.5,-83.6985 1601.5,-83.6985 1601.5,-65.6985 1630.5,-65.6985 1630.5,-83.6985"/>
<text text-anchor="middle" x="1616" y="-72.4985" font-family="Times New Roman,serif" font-size="9.00">&#45;10</text>
</g>
<!-- &#45;10&#45;&gt;0 -->
<g id="edge36" class="edge"><title>&#45;10&#45;&gt;0</title>
<path fill="none" stroke="red" stroke-width="0.194441" d="M1601.44,-68.1563C1598.36,-67.1803 1595.11,-66.2891 1592,-65.6985 1300.78,-10.3331 1210.17,-114.091 926,-29.6985 924.939,-29.3835 923.876,-29.0133 922.818,-28.6004"/>
<polygon fill="red" stroke="red" stroke-width="0.194441" points="924.218,-25.3877 913.705,-24.0669 921.1,-31.6549 924.218,-25.3877"/>
</g>
<!-- &#45;10&#45;&gt;1 -->
<g id="edge37" class="edge"><title>&#45;10&#45;&gt;1</title>
<path fill="none" stroke="green" stroke-width="0.20017" d="M1601.44,-68.1664C1598.36,-67.1897 1595.11,-66.2956 1592,-65.6985 1321.82,-13.7458 1237.58,-108.579 974,-29.6985 972.94,-29.3813 971.877,-29.0093 970.819,-28.5949"/>
<polygon fill="green" stroke="green" stroke-width="0.20017" points="972.22,-25.3825 961.709,-24.0559 969.099,-31.648 972.22,-25.3825"/>
</g>
<!-- &#45;10&#45;&gt;2 -->
<g id="edge38" class="edge"><title>&#45;10&#45;&gt;2</title>
<path fill="none" stroke="red" stroke-width="0.111676" d="M1601.44,-68.1476C1598.37,-67.1722 1595.11,-66.2835 1592,-65.6985 1435.87,-36.3091 1030.38,-74.6514 878,-29.6985 876.939,-29.3854 875.875,-29.0168 874.816,-28.6052"/>
<polygon fill="red" stroke="red" stroke-width="0.111676" points="876.215,-25.3922 865.703,-24.0763 873.1,-31.6608 876.215,-25.3922"/>
</g>
<!-- &#45;10&#45;&gt;3 -->
<g id="edge39" class="edge"><title>&#45;10&#45;&gt;3</title>
<path fill="none" stroke="green" stroke-width="0.196104" d="M1601.43,-68.2278C1598.35,-67.2466 1595.1,-66.3352 1592,-65.6985 1374.91,-21.0739 1105.35,-16.2254 1023.02,-15.8326"/>
<polygon fill="green" stroke="green" stroke-width="0.196104" points="1022.89,-12.3323 1012.88,-15.8033 1022.87,-19.3323 1022.89,-12.3323"/>
</g>
<!-- &#45;11 -->
<g id="node11" class="node"><title>&#45;11</title>
<polygon fill="lightgray" stroke="black" points="1677.5,-83.6985 1648.5,-83.6985 1648.5,-65.6985 1677.5,-65.6985 1677.5,-83.6985"/>
<text text-anchor="middle" x="1663" y="-72.4985" font-family="Times New Roman,serif" font-size="9.00">&#45;11</text>
</g>
<!-- &#45;11&#45;&gt;0 -->
<g id="edge40" class="edge"><title>&#45;11&#45;&gt;0</title>
<path fill="none" stroke="red" stroke-width="0.223224" d="M1648.08,-67.8223C1645.42,-66.9752 1642.66,-66.2163 1640,-65.6985 1328.14,-4.89344 1230.75,-119.604 926,-29.6985 924.939,-29.3854 923.875,-29.0168 922.816,-28.6052"/>
<polygon fill="red" stroke="red" stroke-width="0.223224" points="924.215,-25.3922 913.703,-24.0763 921.1,-31.6608 924.215,-25.3922"/>
</g>
<!-- &#45;11&#45;&gt;1 -->
<g id="edge41" class="edge"><title>&#45;11&#45;&gt;1</title>
<path fill="none" stroke="red" stroke-width="0.108664" d="M1648.07,-67.8304C1645.42,-66.9824 1642.65,-66.2211 1640,-65.6985 1349.15,-8.44333 1258.17,-114.091 974,-29.6985 972.939,-29.3835 971.876,-29.0133 970.818,-28.6004"/>
<polygon fill="red" stroke="red" stroke-width="0.108664" points="972.218,-25.3877 961.705,-24.0669 969.1,-31.6549 972.218,-25.3877"/>
</g>
<!-- &#45;11&#45;&gt;2 -->
<g id="edge42" class="edge"><title>&#45;11&#45;&gt;2</title>
<path fill="none" stroke="green" stroke-width="0.173076" stroke-dasharray="1,5" d="M1648.08,-67.8152C1645.42,-66.9689 1642.66,-66.2121 1640,-65.6985 1473.56,-33.5208 1040.67,-77.4084 878,-29.6985 876.938,-29.3871 875.874,-29.0199 874.815,-28.6093"/>
<polygon fill="green" stroke="green" stroke-width="0.173076" points="876.214,-25.3961 865.7,-24.0846 873.101,-31.6661 876.214,-25.3961"/>
</g>
<!-- &#45;11&#45;&gt;3 -->
<g id="edge43" class="edge"><title>&#45;11&#45;&gt;3</title>
<path fill="none" stroke="green" stroke-width="0.220238" d="M1648.06,-67.8829C1645.41,-67.0291 1642.65,-66.2522 1640,-65.6985 1404.13,-16.3814 1110.31,-14.7729 1023.35,-15.4958"/>
<polygon fill="green" stroke="green" stroke-width="0.220238" points="1023.09,-11.9982 1013.13,-15.6005 1023.17,-18.9978 1023.09,-11.9982"/>
</g>
<!-- &#45;12 -->
<g id="node12" class="node"><title>&#45;12</title>
<polygon fill="lightgray" stroke="black" points="1724.5,-83.6985 1695.5,-83.6985 1695.5,-65.6985 1724.5,-65.6985 1724.5,-83.6985"/>
<text text-anchor="middle" x="1710" y="-72.4985" font-family="Times New Roman,serif" font-size="9.00">&#45;12</text>
</g>
<!-- &#45;12&#45;&gt;0 -->
<g id="edge44" class="edge"><title>&#45;12&#45;&gt;0</title>
<path fill="none" stroke="red" stroke-width="0.178686" d="M1695.08,-67.8153C1692.42,-66.969 1689.66,-66.2122 1687,-65.6985 1520.78,-33.5577 1088.46,-77.351 926,-29.6985 924.938,-29.3871 923.874,-29.0198 922.815,-28.6093"/>
<polygon fill="red" stroke="red" stroke-width="0.178686" points="924.214,-25.396 913.7,-24.0844 921.101,-31.666 924.214,-25.396"/>
</g>
<!-- &#45;12&#45;&gt;1 -->
<g id="edge45" class="edge"><title>&#45;12&#45;&gt;1</title>
<path fill="none" stroke="red" stroke-width="0.331023" d="M1695.08,-67.8224C1692.42,-66.9753 1689.66,-66.2164 1687,-65.6985 1375.57,-4.96741 1278.32,-119.49 974,-29.6985 972.939,-29.3854 971.875,-29.0167 970.816,-28.6051"/>
<polygon fill="red" stroke="red" stroke-width="0.331023" points="972.216,-25.3921 961.703,-24.0761 969.1,-31.6607 972.216,-25.3921"/>
</g>
<!-- &#45;12&#45;&gt;2 -->
<g id="edge46" class="edge"><title>&#45;12&#45;&gt;2</title>
<path fill="none" stroke="red" stroke-width="0.442387" d="M1695.08,-67.809C1692.42,-66.9634 1689.66,-66.2084 1687,-65.6985 1510.27,-31.7823 1050.75,-80.1082 878,-29.6985 876.938,-29.3885 875.873,-29.0225 874.814,-28.613"/>
<polygon fill="red" stroke="red" stroke-width="0.442387" points="876.212,-25.3995 865.698,-24.0918 873.102,-31.6706 876.212,-25.3995"/>
</g>
<!-- &#45;12&#45;&gt;3 -->
<g id="edge47" class="edge"><title>&#45;12&#45;&gt;3</title>
<path fill="none" stroke="green" stroke-width="0.458998" d="M1695.07,-67.8712C1692.41,-67.0186 1689.65,-66.2453 1687,-65.6985 1432.18,-13.1192 1114.42,-13.8566 1023.42,-15.3049"/>
<polygon fill="green" stroke="green" stroke-width="0.458998" points="1023.17,-11.8086 1013.23,-15.486 1023.29,-18.8075 1023.17,-11.8086"/>
</g>
<!-- &#45;13 -->
<g id="node13" class="node"><title>&#45;13</title>
<polygon fill="lightgray" stroke="black" points="1771.5,-83.6985 1742.5,-83.6985 1742.5,-65.6985 1771.5,-65.6985 1771.5,-83.6985"/>
<text text-anchor="middle" x="1757" y="-72.4985" font-family="Times New Roman,serif" font-size="9.00">&#45;13</text>
</g>
<!-- &#45;13&#45;&gt;0 -->
<g id="edge48" class="edge"><title>&#45;13&#45;&gt;0</title>
<path fill="none" stroke="red" stroke-width="0.468761" d="M1742.08,-67.8091C1739.42,-66.9635 1736.66,-66.2085 1734,-65.6985 1557.49,-31.8193 1098.54,-80.0508 926,-29.6985 924.938,-29.3885 923.873,-29.0225 922.814,-28.6129"/>
<polygon fill="red" stroke="red" stroke-width="0.468761" points="924.212,-25.3994 913.698,-24.0916 921.102,-31.6705 924.212,-25.3994"/>
</g>
<!-- &#45;13&#45;&gt;1 -->
<g id="edge49" class="edge"><title>&#45;13&#45;&gt;1</title>
<path fill="none" stroke="red" stroke-width="0.119002" d="M1742.08,-67.8154C1739.42,-66.9691 1736.66,-66.2122 1734,-65.6985 1568,-33.5947 1136.24,-77.2935 974,-29.6985 972.938,-29.387 971.874,-29.0197 970.815,-28.6092"/>
<polygon fill="red" stroke="red" stroke-width="0.119002" points="972.214,-25.3959 961.7,-24.0843 969.101,-31.6659 972.214,-25.3959"/>
</g>
<!-- &#45;13&#45;&gt;2 -->
<g id="edge50" class="edge"><title>&#45;13&#45;&gt;2</title>
<path fill="none" stroke="red" stroke-width="0.121419" d="M1742.08,-67.8036C1739.42,-66.9585 1736.66,-66.2052 1734,-65.6985 1546.98,-30.0437 1060.83,-82.8083 878,-29.6985 876.937,-29.3898 875.872,-29.0249 874.813,-28.6162"/>
<polygon fill="red" stroke="red" stroke-width="0.121419" points="876.211,-25.4025 865.696,-24.0981 873.102,-31.6746 876.211,-25.4025"/>
</g>
<!-- &#45;13&#45;&gt;3 -->
<g id="edge51" class="edge"><title>&#45;13&#45;&gt;3</title>
<path fill="none" stroke="red" stroke-width="0.552642" d="M1742.07,-67.8609C1739.41,-67.0095 1736.65,-66.2392 1734,-65.6985 1593.43,-37.0304 1135.2,-20.361 1022.98,-16.6457"/>
<polygon fill="red" stroke="red" stroke-width="0.552642" points="1023.05,-13.1463 1012.94,-16.3176 1022.82,-20.1425 1023.05,-13.1463"/>
</g>
<!-- &#45;14 -->
<g id="node14" class="node"><title>&#45;14</title>
<polygon fill="lightgray" stroke="black" points="71.5,-83.6985 42.5,-83.6985 42.5,-65.6985 71.5,-65.6985 71.5,-83.6985"/>
<text text-anchor="middle" x="57" y="-72.4985" font-family="Times New Roman,serif" font-size="9.00">&#45;14</text>
</g>
<!-- &#45;14&#45;&gt;0 -->
<g id="edge52" class="edge"><title>&#45;14&#45;&gt;0</title>
<path fill="none" stroke="red" stroke-width="0.210237" d="M71.9224,-67.8104C74.5769,-66.9646 77.3429,-66.2092 80,-65.6985 254.322,-32.1892 707.608,-79.4763 878,-29.6985 879.062,-29.3882 880.127,-29.0219 881.186,-28.6121"/>
<polygon fill="red" stroke="red" stroke-width="0.210237" points="882.898,-31.6696 890.301,-24.0902 879.788,-25.3987 882.898,-31.6696"/>
</g>
<!-- &#45;14&#45;&gt;1 -->
<g id="edge53" class="edge"><title>&#45;14&#45;&gt;1</title>
<path fill="none" stroke="green" stroke-width="0.418665" d="M71.9213,-67.8047C74.5759,-66.9595 77.3423,-66.2059 80,-65.6985 264.832,-30.4137 745.312,-82.2338 926,-29.6985 927.062,-29.3896 928.128,-29.0244 929.187,-28.6155"/>
<polygon fill="green" stroke="green" stroke-width="0.418665" points="930.898,-31.6738 938.303,-24.0968 927.789,-25.4019 930.898,-31.6738"/>
</g>
<!-- &#45;14&#45;&gt;2 -->
<g id="edge54" class="edge"><title>&#45;14&#45;&gt;2</title>
<path fill="none" stroke="red" stroke-width="0.125387" d="M71.9309,-67.8535C74.5844,-67.0029 77.3479,-66.2348 80,-65.6985 228.325,-35.7047 712.845,-19.9523 828.869,-16.5549"/>
<polygon fill="red" stroke="red" stroke-width="0.125387" points="829.313,-20.0436 839.208,-16.2565 829.111,-13.0465 829.313,-20.0436"/>
</g>
<!-- &#45;14&#45;&gt;3 -->
<g id="edge55" class="edge"><title>&#45;14&#45;&gt;3</title>
<path fill="none" stroke="green" stroke-width="0.167072" d="M71.9203,-67.7996C74.575,-66.955 77.3417,-66.2028 80,-65.6985 275.343,-28.638 783.015,-84.9916 974,-29.6985 975.063,-29.3908 976.128,-29.0266 977.188,-28.6185"/>
<polygon fill="green" stroke="green" stroke-width="0.167072" points="978.897,-31.6775 986.305,-24.1028 975.791,-25.4047 978.897,-31.6775"/>
</g>
<!-- &#45;15 -->
<g id="node15" class="node"><title>&#45;15</title>
<polygon fill="lightgray" stroke="black" points="118.5,-83.6985 89.5,-83.6985 89.5,-65.6985 118.5,-65.6985 118.5,-83.6985"/>
<text text-anchor="middle" x="104" y="-72.4985" font-family="Times New Roman,serif" font-size="9.00">&#45;15</text>
</g>
<!-- &#45;15&#45;&gt;0 -->
<g id="edge56" class="edge"><title>&#45;15&#45;&gt;0</title>
<path fill="none" stroke="red" stroke-width="0.140207" d="M118.924,-67.8167C121.578,-66.9702 124.344,-66.213 127,-65.6985 291.032,-33.9276 717.689,-76.7766 878,-29.6985 879.062,-29.3867 880.126,-29.0192 881.185,-28.6084"/>
<polygon fill="red" stroke="red" stroke-width="0.140207" points="882.899,-31.6649 890.299,-24.0828 879.786,-25.3952 882.899,-31.6649"/>
</g>
<!-- &#45;15&#45;&gt;1 -->
<g id="edge57" class="edge"><title>&#45;15&#45;&gt;1</title>
<path fill="none" stroke="green" stroke-width="0.281071" d="M118.922,-67.8103C121.577,-66.9645 124.343,-66.2092 127,-65.6985 301.541,-32.1522 755.394,-79.5338 926,-29.6985 927.062,-29.3882 928.127,-29.022 929.186,-28.6122"/>
<polygon fill="green" stroke="green" stroke-width="0.281071" points="930.898,-31.6697 938.301,-24.0903 927.788,-25.3988 930.898,-31.6697"/>
</g>
<!-- &#45;15&#45;&gt;2 -->
<g id="edge58" class="edge"><title>&#45;15&#45;&gt;2</title>
<path fill="none" stroke="green" stroke-width="0.278522" d="M118.933,-67.8627C121.586,-67.0112 124.349,-66.2403 127,-65.6985 265.558,-37.3806 716.586,-20.5042 828.629,-16.6831"/>
<polygon fill="green" stroke="green" stroke-width="0.278522" points="829.07,-20.1703 838.947,-16.3356 828.835,-13.1743 829.07,-20.1703"/>
</g>
<!-- &#45;15&#45;&gt;3 -->
<g id="edge59" class="edge"><title>&#45;15&#45;&gt;3</title>
<path fill="none" stroke="green" stroke-width="0.132065" d="M118.921,-67.8046C121.576,-66.9594 124.342,-66.2058 127,-65.6985 312.051,-30.3767 793.098,-82.2913 974,-29.6985 975.062,-29.3896 976.128,-29.0244 977.187,-28.6156"/>
<polygon fill="green" stroke="green" stroke-width="0.132065" points="978.898,-31.6739 986.303,-24.097 975.789,-25.402 978.898,-31.6739"/>
</g>
<!-- &#45;16 -->
<g id="node16" class="node"><title>&#45;16</title>
<polygon fill="lightgray" stroke="black" points="165.5,-83.6985 136.5,-83.6985 136.5,-65.6985 165.5,-65.6985 165.5,-83.6985"/>
<text text-anchor="middle" x="151" y="-72.4985" font-family="Times New Roman,serif" font-size="9.00">&#45;16</text>
</g>
<!-- &#45;16&#45;&gt;0 -->
<g id="edge60" class="edge"><title>&#45;16&#45;&gt;0</title>
<path fill="none" stroke="red" stroke-width="0.140947" d="M165.557,-68.1495C168.635,-67.174 171.893,-66.2847 175,-65.6985 482.431,-7.70197 577.967,-118.341 878,-29.6985 879.061,-29.385 880.125,-29.016 881.183,-28.6041"/>
<polygon fill="red" stroke="red" stroke-width="0.140947" points="882.9,-31.6595 890.297,-24.0743 879.784,-25.3912 882.9,-31.6595"/>
</g>
<!-- &#45;16&#45;&gt;1 -->
<g id="edge61" class="edge"><title>&#45;16&#45;&gt;1</title>
<path fill="none" stroke="green" stroke-width="0.140937" d="M165.555,-68.1416C168.633,-67.1667 171.892,-66.2796 175,-65.6985 339.235,-34.9933 765.689,-76.7766 926,-29.6985 927.062,-29.3867 928.126,-29.0192 929.185,-28.6084"/>
<polygon fill="green" stroke="green" stroke-width="0.140937" points="930.899,-31.6649 938.299,-24.0828 927.786,-25.3952 930.899,-31.6649"/>
</g>
<!-- &#45;16&#45;&gt;2 -->
<g id="edge62" class="edge"><title>&#45;16&#45;&gt;2</title>
<path fill="none" stroke="red" stroke-width="0.24019" d="M165.567,-68.2027C168.644,-67.2233 171.899,-66.319 175,-65.6985 426.449,-15.3769 739.365,-14.5453 828.976,-15.4624"/>
<polygon fill="red" stroke="red" stroke-width="0.24019" points="828.962,-18.9624 839.003,-15.5829 829.046,-11.9629 828.962,-18.9624"/>
</g>
<!-- &#45;16&#45;&gt;3 -->
<g id="edge63" class="edge"><title>&#45;16&#45;&gt;3</title>
<path fill="none" stroke="red" stroke-width="0.189018" d="M165.554,-68.1347C168.632,-67.1603 171.891,-66.2752 175,-65.6985 349.755,-33.2862 803.394,-79.5338 974,-29.6985 975.062,-29.3882 976.127,-29.022 977.186,-28.6122"/>
<polygon fill="red" stroke="red" stroke-width="0.189018" points="978.898,-31.6697 986.301,-24.0903 975.788,-25.3988 978.898,-31.6697"/>
</g>
<!-- &#45;17 -->
<g id="node17" class="node"><title>&#45;17</title>
<polygon fill="lightgray" stroke="black" points="212.5,-83.6985 183.5,-83.6985 183.5,-65.6985 212.5,-65.6985 212.5,-83.6985"/>
<text text-anchor="middle" x="198" y="-72.4985" font-family="Times New Roman,serif" font-size="9.00">&#45;17</text>
</g>
<!-- &#45;17&#45;&gt;0 -->
<g id="edge64" class="edge"><title>&#45;17&#45;&gt;0</title>
<path fill="none" stroke="green" stroke-width="0.108036" d="M212.558,-68.1583C215.636,-67.1822 218.894,-66.2904 222,-65.6985 508.834,-11.0441 598.123,-112.943 878,-29.6985 879.061,-29.383 880.124,-29.0125 881.182,-28.5993"/>
<polygon fill="green" stroke="green" stroke-width="0.108036" points="882.901,-31.6535 890.294,-24.0647 879.782,-25.3867 882.901,-31.6535"/>
</g>
<!-- &#45;17&#45;&gt;1 -->
<g id="edge65" class="edge"><title>&#45;17&#45;&gt;1</title>
<path fill="none" stroke="green" stroke-width="0.195859" d="M212.557,-68.1493C215.635,-67.1738 218.893,-66.2846 222,-65.6985 529.869,-7.63085 625.538,-118.456 926,-29.6985 927.061,-29.385 928.125,-29.0161 929.183,-28.6042"/>
<polygon fill="green" stroke="green" stroke-width="0.195859" points="930.9,-31.6597 938.297,-24.0745 927.784,-25.3913 930.9,-31.6597"/>
</g>
<!-- &#45;17&#45;&gt;2 -->
<g id="edge66" class="edge"><title>&#45;17&#45;&gt;2</title>
<path fill="none" stroke="red" stroke-width="0.166335" d="M212.57,-68.2157C215.647,-67.2354 218.901,-66.3274 222,-65.6985 454.503,-18.5118 743.536,-15.4462 829.066,-15.6554"/>
<polygon fill="red" stroke="red" stroke-width="0.166335" points="829.104,-19.1555 839.118,-15.6984 829.134,-12.1556 829.104,-19.1555"/>
</g>
<!-- &#45;17&#45;&gt;3 -->
<g id="edge67" class="edge"><title>&#45;17&#45;&gt;3</title>
<path fill="none" stroke="green" stroke-width="0.270781" stroke-dasharray="1,5" d="M212.555,-68.1415C215.633,-67.1666 218.892,-66.2795 222,-65.6985 386.454,-34.9578 813.475,-76.834 974,-29.6985 975.062,-29.3868 976.126,-29.0193 977.185,-28.6085"/>
<polygon fill="green" stroke="green" stroke-width="0.270781" points="978.899,-31.665 986.299,-24.083 975.786,-25.3953 978.899,-31.665"/>
</g>
<!-- &#45;18 -->
<g id="node18" class="node"><title>&#45;18</title>
<polygon fill="lightgray" stroke="black" points="259.5,-83.6985 230.5,-83.6985 230.5,-65.6985 259.5,-65.6985 259.5,-83.6985"/>
<text text-anchor="middle" x="245" y="-72.4985" font-family="Times New Roman,serif" font-size="9.00">&#45;18</text>
</g>
<!-- &#45;18&#45;&gt;0 -->
<g id="edge68" class="edge"><title>&#45;18&#45;&gt;0</title>
<path fill="none" stroke="red" stroke-width="0.338999" d="M259.56,-68.1685C262.638,-67.1916 265.895,-66.2969 269,-65.6985 535.239,-14.3856 618.277,-107.546 878,-29.6985 879.06,-29.3808 880.123,-29.0084 881.18,-28.5937"/>
<polygon fill="red" stroke="red" stroke-width="0.338999" points="882.901,-31.6466 890.291,-24.0537 879.779,-25.3814 882.901,-31.6466"/>
</g>
<!-- &#45;18&#45;&gt;1 -->
<g id="edge69" class="edge"><title>&#45;18&#45;&gt;1</title>
<path fill="none" stroke="green" stroke-width="0.245656" d="M259.558,-68.1581C262.636,-67.182 265.894,-66.2903 269,-65.6985 556.272,-10.973 645.694,-113.058 926,-29.6985 927.061,-29.3831 928.124,-29.0126 929.182,-28.5994"/>
<polygon fill="green" stroke="green" stroke-width="0.245656" points="930.901,-31.6537 938.294,-24.0649 927.782,-25.3868 930.901,-31.6537"/>
</g>
<!-- &#45;18&#45;&gt;2 -->
<g id="edge70" class="edge"><title>&#45;18&#45;&gt;2</title>
<path fill="none" stroke="red" stroke-width="0.392298" d="M259.573,-68.2308C262.649,-67.2495 265.903,-66.3372 269,-65.6985 482.314,-21.7066 747.095,-16.4235 828.811,-15.879"/>
<polygon fill="red" stroke="red" stroke-width="0.392298" points="828.913,-19.3787 838.897,-15.8307 828.88,-12.3788 828.913,-19.3787"/>
</g>
<!-- &#45;18&#45;&gt;3 -->
<g id="edge71" class="edge"><title>&#45;18&#45;&gt;3</title>
<path fill="none" stroke="red" stroke-width="0.175672" d="M259.557,-68.1491C262.635,-67.1737 265.892,-66.2845 269,-65.6985 423.154,-36.6291 823.554,-74.1345 974,-29.6985 975.061,-29.3851 976.125,-29.0162 977.183,-28.6043"/>
<polygon fill="red" stroke="red" stroke-width="0.175672" points="978.9,-31.6598 986.297,-24.0746 975.784,-25.3914 978.9,-31.6598"/>
</g>
<!-- &#45;19 -->
<g id="node19" class="node"><title>&#45;19</title>
<polygon fill="lightgray" stroke="black" points="306.5,-83.6985 277.5,-83.6985 277.5,-65.6985 306.5,-65.6985 306.5,-83.6985"/>
<text text-anchor="middle" x="292" y="-72.4985" font-family="Times New Roman,serif" font-size="9.00">&#45;19</text>
</g>
<!-- &#45;19&#45;&gt;0 -->
<g id="edge72" class="edge"><title>&#45;19&#45;&gt;0</title>
<path fill="none" stroke="green" stroke-width="0.229941" d="M306.563,-68.1803C309.64,-67.2026 312.896,-66.3046 316,-65.6985 561.649,-17.7263 638.426,-102.15 878,-29.6985 879.059,-29.3782 880.122,-29.0037 881.178,-28.5873"/>
<polygon fill="green" stroke="green" stroke-width="0.229941" points="882.903,-31.6385 890.287,-24.0408 879.776,-25.3753 882.903,-31.6385"/>
</g>
<!-- &#45;19&#45;&gt;1 -->
<g id="edge73" class="edge"><title>&#45;19&#45;&gt;1</title>
<path fill="none" stroke="red" stroke-width="0.388655" stroke-dasharray="1,5" d="M306.56,-68.1682C309.638,-67.1914 312.895,-66.2968 316,-65.6985 582.678,-14.3145 665.848,-107.66 926,-29.6985 927.06,-29.3809 928.123,-29.0085 929.18,-28.5939"/>
<polygon fill="red" stroke="red" stroke-width="0.388655" points="930.901,-31.6467 938.291,-24.0539 927.779,-25.3815 930.901,-31.6467"/>
</g>
<!-- &#45;19&#45;&gt;2 -->
<g id="edge74" class="edge"><title>&#45;19&#45;&gt;2</title>
<path fill="none" stroke="red" stroke-width="0.188258" d="M306.576,-68.2486C309.653,-67.2659 312.905,-66.3486 316,-65.6985 510.241,-24.8918 750.93,-17.4864 828.586,-16.1451"/>
<polygon fill="red" stroke="red" stroke-width="0.188258" points="828.89,-19.641 838.835,-15.988 828.783,-12.6418 828.89,-19.641"/>
</g>
<!-- &#45;19&#45;&gt;3 -->
<g id="edge75" class="edge"><title>&#45;19&#45;&gt;3</title>
<path fill="none" stroke="green" stroke-width="0.289368" d="M306.558,-68.1579C309.636,-67.1818 312.894,-66.2901 316,-65.6985 603.71,-10.9019 693.266,-113.172 974,-29.6985 975.061,-29.3831 976.124,-29.0127 977.182,-28.5995"/>
<polygon fill="green" stroke="green" stroke-width="0.289368" points="978.901,-31.6538 986.294,-24.0651 975.782,-25.3869 978.901,-31.6538"/>
</g>
<!-- &#45;20 -->
<g id="node20" class="node"><title>&#45;20</title>
<polygon fill="lightgray" stroke="black" points="353.5,-83.6985 324.5,-83.6985 324.5,-65.6985 353.5,-65.6985 353.5,-83.6985"/>
<text text-anchor="middle" x="339" y="-72.4985" font-family="Times New Roman,serif" font-size="9.00">&#45;20</text>
</g>
<!-- &#45;20&#45;&gt;0 -->
<g id="edge76" class="edge"><title>&#45;20&#45;&gt;0</title>
<path fill="none" stroke="red" stroke-width="0.337639" d="M353.565,-68.1943C356.643,-67.2155 359.898,-66.3136 363,-65.6985 588.065,-21.0659 658.57,-96.7552 878,-29.6985 879.058,-29.3751 880.12,-28.9981 881.176,-28.5796"/>
<polygon fill="red" stroke="red" stroke-width="0.337639" points="882.904,-31.6289 890.282,-24.0257 879.773,-25.3682 882.904,-31.6289"/>
</g>
<!-- &#45;20&#45;&gt;1 -->
<g id="edge77" class="edge"><title>&#45;20&#45;&gt;1</title>
<path fill="none" stroke="green" stroke-width="0.217011" d="M353.562,-68.18C356.64,-67.2023 359.896,-66.3044 363,-65.6985 609.087,-17.6552 685.997,-102.264 926,-29.6985 927.059,-29.3783 928.122,-29.0038 929.178,-28.5874"/>
<polygon fill="green" stroke="green" stroke-width="0.217011" points="930.902,-31.6387 938.287,-24.0411 927.776,-25.3755 930.902,-31.6387"/>
</g>
<!-- &#45;20&#45;&gt;2 -->
<g id="edge78" class="edge"><title>&#45;20&#45;&gt;2</title>
<path fill="none" stroke="red" stroke-width="0.11993" d="M353.581,-68.2696C356.657,-67.2854 359.908,-66.3622 363,-65.6985 538.699,-27.9804 756.07,-18.6059 828.901,-16.4494"/>
<polygon fill="red" stroke="red" stroke-width="0.11993" points="829.05,-19.9467 838.949,-16.1715 828.856,-12.9494 829.05,-19.9467"/>
</g>
<!-- &#45;20&#45;&gt;3 -->
<g id="edge79" class="edge"><title>&#45;20&#45;&gt;3</title>
<path fill="none" stroke="green" stroke-width="0.3086" d="M353.56,-68.168C356.638,-67.1912 359.895,-66.2966 363,-65.6985 630.116,-14.2434 713.419,-107.775 974,-29.6985 975.06,-29.3809 976.123,-29.0086 977.18,-28.594"/>
<polygon fill="green" stroke="green" stroke-width="0.3086" points="978.901,-31.6469 986.291,-24.0542 975.779,-25.3817 978.901,-31.6469"/>
</g>
<!-- &#45;21 -->
<g id="node21" class="node"><title>&#45;21</title>
<polygon fill="lightgray" stroke="black" points="400.5,-83.6985 371.5,-83.6985 371.5,-65.6985 400.5,-65.6985 400.5,-83.6985"/>
<text text-anchor="middle" x="386" y="-72.4985" font-family="Times New Roman,serif" font-size="9.00">&#45;21</text>
</g>
<!-- &#45;21&#45;&gt;0 -->
<g id="edge80" class="edge"><title>&#45;21&#45;&gt;0</title>
<path fill="none" stroke="red" stroke-width="0.257509" d="M400.569,-68.2111C403.646,-67.2311 406.9,-66.3244 410,-65.6985 614.487,-24.4042 678.708,-91.3629 878,-29.6985 879.057,-29.3714 880.118,-28.9914 881.173,-28.5704"/>
<polygon fill="red" stroke="red" stroke-width="0.257509" points="882.905,-31.6175 890.277,-24.0075 879.768,-25.3596 882.905,-31.6175"/>
</g>
<!-- &#45;21&#45;&gt;1 -->
<g id="edge81" class="edge"><title>&#45;21&#45;&gt;1</title>
<path fill="none" stroke="red" stroke-width="0.122567" d="M400.565,-68.194C403.643,-67.2152 406.898,-66.3134 410,-65.6985 635.502,-20.9949 706.141,-96.87 926,-29.6985 927.058,-29.3752 928.12,-28.9982 929.176,-28.5798"/>
<polygon fill="red" stroke="red" stroke-width="0.122567" points="930.904,-31.6291 938.282,-24.026 927.773,-25.3683 930.904,-31.6291"/>
</g>
<!-- &#45;21&#45;&gt;2 -->
<g id="edge82" class="edge"><title>&#45;21&#45;&gt;2</title>
<path fill="none" stroke="green" stroke-width="0.165538" d="M400.586,-68.2951C403.662,-67.309 406.912,-66.3786 410,-65.6985 566.79,-31.1673 760.284,-19.8879 828.64,-16.8343"/>
<polygon fill="green" stroke="green" stroke-width="0.165538" points="829.023,-20.3212 838.864,-16.3982 828.724,-13.3276 829.023,-20.3212"/>
</g>
<!-- &#45;21&#45;&gt;3 -->
<g id="edge83" class="edge"><title>&#45;21&#45;&gt;3</title>
<path fill="none" stroke="red" stroke-width="0.224632" d="M400.562,-68.1798C403.64,-67.2021 406.896,-66.3042 410,-65.6985 656.525,-17.5841 733.569,-102.379 974,-29.6985 975.059,-29.3783 976.122,-29.0039 977.178,-28.5876"/>
<polygon fill="red" stroke="red" stroke-width="0.224632" points="978.902,-31.6389 986.287,-24.0414 975.776,-25.3756 978.902,-31.6389"/>
</g>
<!-- &#45;22 -->
<g id="node22" class="node"><title>&#45;22</title>
<polygon fill="lightgray" stroke="black" points="1818.5,-83.6985 1789.5,-83.6985 1789.5,-65.6985 1818.5,-65.6985 1818.5,-83.6985"/>
<text text-anchor="middle" x="1804" y="-72.4985" font-family="Times New Roman,serif" font-size="9.00">&#45;22</text>
</g>
<!-- &#45;22&#45;&gt;0 -->
<g id="edge84" class="edge"><title>&#45;22&#45;&gt;0</title>
<path fill="none" stroke="green" stroke-width="0.291093" d="M1789.08,-67.8037C1786.42,-66.9586 1783.66,-66.2053 1781,-65.6985 1594.2,-30.0807 1108.62,-82.7509 926,-29.6985 924.937,-29.3898 923.872,-29.0248 922.813,-28.6161"/>
<polygon fill="green" stroke="green" stroke-width="0.291093" points="924.211,-25.4025 913.696,-24.098 921.102,-31.6745 924.211,-25.4025"/>
</g>
<!-- &#45;22&#45;&gt;1 -->
<g id="edge85" class="edge"><title>&#45;22&#45;&gt;1</title>
<path fill="none" stroke="green" stroke-width="0.207571" d="M1789.08,-67.8093C1786.42,-66.9636 1783.66,-66.2086 1781,-65.6985 1604.71,-31.8563 1146.32,-79.9934 974,-29.6985 972.938,-29.3885 971.873,-29.0224 970.814,-28.6128"/>
<polygon fill="green" stroke="green" stroke-width="0.207571" points="972.212,-25.3994 961.698,-24.0915 969.102,-31.6704 972.212,-25.3994"/>
</g>
<!-- &#45;22&#45;&gt;3 -->
<g id="edge86" class="edge"><title>&#45;22&#45;&gt;3</title>
<path fill="none" stroke="red" stroke-width="0.455698" d="M1789.07,-67.8518C1786.42,-67.0015 1783.65,-66.2338 1781,-65.6985 1630.79,-35.3821 1139.81,-19.8497 1023.07,-16.5318"/>
<polygon fill="red" stroke="red" stroke-width="0.455698" points="1023.06,-13.0302 1012.96,-16.2487 1022.86,-20.0275 1023.06,-13.0302"/>
</g>
<!-- &#45;23 -->
<g id="node23" class="node"><title>&#45;23</title>
<polygon fill="lightgray" stroke="black" points="447.5,-83.6985 418.5,-83.6985 418.5,-65.6985 447.5,-65.6985 447.5,-83.6985"/>
<text text-anchor="middle" x="433" y="-72.4985" font-family="Times New Roman,serif" font-size="9.00">&#45;23</text>
</g>
<!-- &#45;23&#45;&gt;0 -->
<g id="edge87" class="edge"><title>&#45;23&#45;&gt;0</title>
<path fill="none" stroke="green" stroke-width="0.260386" d="M447.573,-68.2316C450.65,-67.2501 453.903,-66.3377 457,-65.6985 640.918,-27.7407 698.836,-85.9733 878,-29.6985 879.056,-29.3669 880.115,-28.9832 881.17,-28.5592"/>
<polygon fill="green" stroke="green" stroke-width="0.260386" points="882.907,-31.6035 890.27,-23.9853 879.763,-25.3491 882.907,-31.6035"/>
</g>
<!-- &#45;23&#45;&gt;1 -->
<g id="edge88" class="edge"><title>&#45;23&#45;&gt;1</title>
<path fill="none" stroke="red" stroke-width="0.212409" d="M447.569,-68.2107C450.646,-67.2307 453.9,-66.3242 457,-65.6985 661.924,-24.3332 726.279,-91.4776 926,-29.6985 927.057,-29.3715 928.118,-28.9915 929.173,-28.5706"/>
<polygon fill="red" stroke="red" stroke-width="0.212409" points="930.905,-31.6177 938.277,-24.0079 927.768,-25.3598 930.905,-31.6177"/>
</g>
<!-- &#45;23&#45;&gt;2 -->
<g id="edge89" class="edge"><title>&#45;23&#45;&gt;2</title>
<path fill="none" stroke="red" stroke-width="0.214428" d="M447.593,-68.3264C450.669,-67.3381 453.916,-66.3989 457,-65.6985 595.35,-34.2766 765.634,-21.2631 828.84,-17.2852"/>
<polygon fill="red" stroke="red" stroke-width="0.214428" points="829.268,-20.7657 839.037,-16.6644 828.842,-13.7787 829.268,-20.7657"/>
</g>
<!-- &#45;23&#45;&gt;3 -->
<g id="edge90" class="edge"><title>&#45;23&#45;&gt;3</title>
<path fill="none" stroke="red" stroke-width="0.44137" d="M447.565,-68.1937C450.643,-67.2149 453.898,-66.3132 457,-65.6985 682.94,-20.9239 753.713,-96.9848 974,-29.6985 975.058,-29.3753 976.12,-28.9983 977.176,-28.58"/>
<polygon fill="red" stroke="red" stroke-width="0.44137" points="978.904,-31.6294 986.282,-24.0264 975.773,-25.3685 978.904,-31.6294"/>
</g>
<!-- &#45;24 -->
<g id="node24" class="node"><title>&#45;24</title>
<polygon fill="lightgray" stroke="black" points="494.5,-83.6985 465.5,-83.6985 465.5,-65.6985 494.5,-65.6985 494.5,-83.6985"/>
<text text-anchor="middle" x="480" y="-72.4985" font-family="Times New Roman,serif" font-size="9.00">&#45;24</text>
</g>
<!-- &#45;24&#45;&gt;0 -->
<g id="edge91" class="edge"><title>&#45;24&#45;&gt;0</title>
<path fill="none" stroke="red" stroke-width="0.426119" d="M494.578,-68.2571C497.655,-67.2738 500.906,-66.3542 504,-65.6985 667.362,-31.0746 718.952,-80.5876 878,-29.6985 879.054,-29.3613 880.112,-28.9729 881.165,-28.5453"/>
<polygon fill="red" stroke="red" stroke-width="0.426119" points="882.908,-31.5861 890.261,-23.9576 879.756,-25.3361 882.908,-31.5861"/>
</g>
<!-- &#45;24&#45;&gt;1 -->
<g id="edge92" class="edge"><title>&#45;24&#45;&gt;1</title>
<path fill="none" stroke="green" stroke-width="0.246322" d="M494.573,-68.2311C497.65,-67.2497 500.903,-66.3373 504,-65.6985 688.355,-27.6697 746.408,-86.088 926,-29.6985 927.056,-29.367 928.115,-28.9833 929.17,-28.5595"/>
<polygon fill="green" stroke="green" stroke-width="0.246322" points="930.907,-31.6038 938.27,-23.9858 927.763,-25.3494 930.907,-31.6038"/>
</g>
<!-- &#45;24&#45;&gt;2 -->
<g id="edge93" class="edge"><title>&#45;24&#45;&gt;2</title>
<path fill="none" stroke="green" stroke-width="0.19177" d="M494.603,-68.366C497.677,-67.3748 500.922,-66.4244 504,-65.6985 624.099,-37.3736 771.422,-22.7934 829.14,-17.8388"/>
<polygon fill="green" stroke="green" stroke-width="0.19177" points="829.479,-21.3227 839.152,-16.9996 828.894,-14.3472 829.479,-21.3227"/>
</g>
<!-- &#45;24&#45;&gt;3 -->
<g id="edge94" class="edge"><title>&#45;24&#45;&gt;3</title>
<path fill="none" stroke="green" stroke-width="0.136942" d="M494.568,-68.2103C497.646,-67.2304 500.9,-66.3239 504,-65.6985 709.362,-24.2622 773.851,-91.5923 974,-29.6985 975.057,-29.3716 976.118,-28.9917 977.173,-28.5709"/>
<polygon fill="green" stroke="green" stroke-width="0.136942" points="978.905,-31.618 986.277,-24.0083 975.769,-25.36 978.905,-31.618"/>
</g>
<!-- &#45;25 -->
<g id="node25" class="node"><title>&#45;25</title>
<polygon fill="lightgray" stroke="black" points="541.5,-83.6985 512.5,-83.6985 512.5,-65.6985 541.5,-65.6985 541.5,-83.6985"/>
<text text-anchor="middle" x="527" y="-72.4985" font-family="Times New Roman,serif" font-size="9.00">&#45;25</text>
</g>
<!-- &#45;25&#45;&gt;0 -->
<g id="edge95" class="edge"><title>&#45;25&#45;&gt;0</title>
<path fill="none" stroke="green" stroke-width="0.170406" d="M541.585,-68.2899C544.661,-67.3042 547.911,-66.3753 551,-65.6985 693.823,-34.4046 739.051,-75.2074 878,-29.6985 878.88,-29.4102 879.763,-29.0871 880.645,-28.7358"/>
<polygon fill="green" stroke="green" stroke-width="0.170406" points="882.356,-31.7939 889.756,-24.2117 879.243,-25.5243 882.356,-31.7939"/>
</g>
<!-- &#45;25&#45;&gt;1 -->
<g id="edge96" class="edge"><title>&#45;25&#45;&gt;1</title>
<path fill="none" stroke="green" stroke-width="0.142429" stroke-dasharray="1,5" d="M541.578,-68.2565C544.654,-67.2733 547.906,-66.3538 551,-65.6985 714.799,-31.0037 766.525,-80.7021 926,-29.6985 927.054,-29.3614 928.112,-28.9732 929.165,-28.5456"/>
<polygon fill="green" stroke="green" stroke-width="0.142429" points="930.908,-31.5865 938.261,-23.9583 927.756,-25.3364 930.908,-31.5865"/>
</g>
<!-- &#45;25&#45;&gt;2 -->
<g id="edge97" class="edge"><title>&#45;25&#45;&gt;2</title>
<path fill="none" stroke="red" stroke-width="0.14112" d="M541.615,-68.4174C544.689,-67.4225 547.93,-66.4575 551,-65.6985 652.947,-40.4905 777.409,-24.5607 829.373,-18.5561"/>
<polygon fill="red" stroke="red" stroke-width="0.14112" points="829.785,-22.0318 839.327,-17.4257 828.995,-15.0766 829.785,-22.0318"/>
</g>
<!-- &#45;25&#45;&gt;3 -->
<g id="edge98" class="edge"><title>&#45;25&#45;&gt;3</title>
<path fill="none" stroke="red" stroke-width="0.226665" d="M541.573,-68.2306C544.649,-67.2492 547.903,-66.337 551,-65.6985 735.793,-27.5988 793.98,-86.2026 974,-29.6985 975.056,-29.3671 976.115,-28.9835 977.17,-28.5598"/>
<polygon fill="red" stroke="red" stroke-width="0.226665" points="978.907,-31.6042 986.27,-23.9863 975.763,-25.3496 978.907,-31.6042"/>
</g>
<!-- &#45;26 -->
<g id="node26" class="node"><title>&#45;26</title>
<polygon fill="lightgray" stroke="black" points="588.5,-83.6985 559.5,-83.6985 559.5,-65.6985 588.5,-65.6985 588.5,-83.6985"/>
<text text-anchor="middle" x="574" y="-72.4985" font-family="Times New Roman,serif" font-size="9.00">&#45;26</text>
</g>
<!-- &#45;26&#45;&gt;0 -->
<g id="edge99" class="edge"><title>&#45;26&#45;&gt;0</title>
<path fill="none" stroke="red" stroke-width="0.307378" d="M588.595,-68.3335C591.67,-67.3446 594.917,-66.4034 598,-65.6985 720.312,-37.7288 759.124,-69.8358 878,-29.6985 878.877,-29.4022 879.759,-29.0722 880.638,-28.7152"/>
<polygon fill="red" stroke="red" stroke-width="0.307378" points="882.361,-31.7669 889.74,-24.1644 879.231,-25.5058 882.361,-31.7669"/>
</g>
<!-- &#45;26&#45;&gt;1 -->
<g id="edge100" class="edge"><title>&#45;26&#45;&gt;1</title>
<path fill="none" stroke="red" stroke-width="0.131849" d="M588.585,-68.2891C591.661,-67.3035 594.911,-66.3748 598,-65.6985 741.26,-34.3338 786.624,-75.3218 926,-29.6985 926.88,-29.4104 927.764,-29.0873 928.645,-28.7362"/>
<polygon fill="red" stroke="red" stroke-width="0.131849" points="930.356,-31.7944 937.756,-24.2126 927.243,-25.5246 930.356,-31.7944"/>
</g>
<!-- &#45;26&#45;&gt;2 -->
<g id="edge101" class="edge"><title>&#45;26&#45;&gt;2</title>
<path fill="none" stroke="red" stroke-width="0.536001" d="M588.633,-68.4868C591.705,-67.4869 594.942,-66.5024 598,-65.6985 681.921,-43.64 783.654,-26.6725 829.505,-19.5349"/>
<polygon fill="red" stroke="red" stroke-width="0.536001" points="830.065,-22.9899 839.417,-18.0102 829.001,-16.0713 830.065,-22.9899"/>
</g>
<!-- &#45;26&#45;&gt;3 -->
<g id="edge102" class="edge"><title>&#45;26&#45;&gt;3</title>
<path fill="none" stroke="red" stroke-width="0.144275" d="M588.578,-68.2559C591.654,-67.2727 594.906,-66.3534 598,-65.6985 762.236,-30.9328 814.097,-80.8167 974,-29.6985 975.054,-29.3616 976.112,-28.9734 977.165,-28.5459"/>
<polygon fill="red" stroke="red" stroke-width="0.144275" points="978.908,-31.5869 986.261,-23.9589 975.756,-25.3367 978.908,-31.5869"/>
</g>
<!-- &#45;27 -->
<g id="node27" class="node"><title>&#45;27</title>
<polygon fill="lightgray" stroke="black" points="635.5,-83.6985 606.5,-83.6985 606.5,-65.6985 635.5,-65.6985 635.5,-83.6985"/>
<text text-anchor="middle" x="621" y="-72.4985" font-family="Times New Roman,serif" font-size="9.00">&#45;27</text>
</g>
<!-- &#45;27&#45;&gt;0 -->
<g id="edge103" class="edge"><title>&#45;27&#45;&gt;0</title>
<path fill="none" stroke="red" stroke-width="0.153629" d="M635.609,-68.3941C638.683,-67.4009 641.927,-66.4426 645,-65.6985 746.842,-41.0432 779.156,-64.4781 878,-29.6985 878.874,-29.3911 879.751,-29.0517 880.628,-28.6867"/>
<polygon fill="red" stroke="red" stroke-width="0.153629" points="882.367,-31.7294 889.717,-24.0987 879.213,-25.4803 882.367,-31.7294"/>
</g>
<!-- &#45;27&#45;&gt;1 -->
<g id="edge104" class="edge"><title>&#45;27&#45;&gt;1</title>
<path fill="none" stroke="red" stroke-width="0.653151" d="M635.595,-68.3324C638.67,-67.3437 641.917,-66.4027 645,-65.6985 767.748,-37.6582 806.698,-69.9499 926,-29.6985 926.877,-29.4024 927.759,-29.0726 928.638,-28.7158"/>
<polygon fill="red" stroke="red" stroke-width="0.653151" points="930.361,-31.7676 937.741,-24.1656 927.231,-25.5063 930.361,-31.7676"/>
</g>
<!-- &#45;27&#45;&gt;2 -->
<g id="edge105" class="edge"><title>&#45;27&#45;&gt;2</title>
<path fill="none" stroke="red" stroke-width="0.315585" d="M635.66,-68.5857C638.73,-67.5786 641.959,-66.5661 645,-65.6985 711.068,-46.8472 790.254,-29.3181 829.483,-20.9666"/>
<polygon fill="red" stroke="red" stroke-width="0.315585" points="830.384,-24.3536 839.444,-18.861 828.936,-17.5049 830.384,-24.3536"/>
</g>
<!-- &#45;27&#45;&gt;3 -->
<g id="edge106" class="edge"><title>&#45;27&#45;&gt;3</title>
<path fill="none" stroke="red" stroke-width="0.272582" d="M635.585,-68.2883C638.661,-67.3028 641.911,-66.3743 645,-65.6985 788.697,-34.263 834.197,-75.4362 974,-29.6985 974.88,-29.4105 975.764,-29.0876 976.645,-28.7365"/>
<polygon fill="red" stroke="red" stroke-width="0.272582" points="978.356,-31.7949 985.756,-24.2134 975.243,-25.525 978.356,-31.7949"/>
</g>
<!-- &#45;28 -->
<g id="node28" class="node"><title>&#45;28</title>
<polygon fill="lightgray" stroke="black" points="682.5,-83.6985 653.5,-83.6985 653.5,-65.6985 682.5,-65.6985 682.5,-83.6985"/>
<text text-anchor="middle" x="668" y="-72.4985" font-family="Times New Roman,serif" font-size="9.00">&#45;28</text>
</g>
<!-- &#45;28&#45;&gt;0 -->
<g id="edge107" class="edge"><title>&#45;28&#45;&gt;0</title>
<path fill="none" stroke="green" stroke-width="0.42663" d="M682.632,-68.4842C685.704,-67.4844 688.941,-66.5006 692,-65.6985 773.447,-44.3397 799.116,-59.1458 878,-29.6985 878.868,-29.3746 879.74,-29.0212 880.613,-28.6444"/>
<polygon fill="green" stroke="green" stroke-width="0.42663" points="882.376,-31.6738 889.682,-24.0013 879.186,-25.4429 882.376,-31.6738"/>
</g>
<!-- &#45;28&#45;&gt;1 -->
<g id="edge108" class="edge"><title>&#45;28&#45;&gt;1</title>
<path fill="none" stroke="red" stroke-width="0.10599" d="M682.609,-68.3926C685.683,-67.3995 688.926,-66.4416 692,-65.6985 794.277,-40.9729 826.73,-64.5919 926,-29.6985 926.874,-29.3914 927.752,-29.0522 928.628,-28.6874"/>
<polygon fill="red" stroke="red" stroke-width="0.10599" points="930.367,-31.7303 937.718,-24.1004 927.214,-25.481 930.367,-31.7303"/>
</g>
<!-- &#45;28&#45;&gt;2 -->
<g id="edge109" class="edge"><title>&#45;28&#45;&gt;2</title>
<path fill="none" stroke="red" stroke-width="0.309597" d="M682.705,-68.7367C685.773,-67.7186 688.989,-66.6636 692,-65.6985 740.842,-50.0457 798.272,-32.5995 829.955,-23.0578"/>
<polygon fill="red" stroke="red" stroke-width="0.309597" points="831.094,-26.3702 839.662,-20.139 829.078,-19.6666 831.094,-26.3702"/>
</g>
<!-- &#45;28&#45;&gt;3 -->
<g id="edge110" class="edge"><title>&#45;28&#45;&gt;3</title>
<path fill="none" stroke="red" stroke-width="0.139083" d="M682.594,-68.3313C685.67,-67.3427 688.917,-66.402 692,-65.6985 815.184,-37.5875 854.271,-70.0641 974,-29.6985 974.878,-29.4026 975.759,-29.073 976.638,-28.7163"/>
<polygon fill="red" stroke="red" stroke-width="0.139083" points="978.361,-31.7682 985.741,-24.1668 975.231,-25.5067 978.361,-31.7682"/>
</g>
<!-- &#45;29 -->
<g id="node29" class="node"><title>&#45;29</title>
<polygon fill="lightgray" stroke="black" points="729.5,-83.6985 700.5,-83.6985 700.5,-65.6985 729.5,-65.6985 729.5,-83.6985"/>
<text text-anchor="middle" x="715" y="-72.4985" font-family="Times New Roman,serif" font-size="9.00">&#45;29</text>
</g>
<!-- &#45;29&#45;&gt;0 -->
<g id="edge111" class="edge"><title>&#45;29&#45;&gt;0</title>
<path fill="none" stroke="red" stroke-width="0.401038" d="M729.673,-68.6311C732.742,-67.6207 735.968,-66.5954 739,-65.6985 800.195,-47.5977 818.937,-53.8661 878,-29.6985 878.857,-29.3478 879.721,-28.9715 880.586,-28.5755"/>
<polygon fill="red" stroke="red" stroke-width="0.401038" points="882.386,-31.5836 889.62,-23.8428 879.138,-25.3829 882.386,-31.5836"/>
</g>
<!-- &#45;29&#45;&gt;1 -->
<g id="edge112" class="edge"><title>&#45;29&#45;&gt;1</title>
<path fill="none" stroke="green" stroke-width="0.121747" d="M729.631,-68.4818C732.704,-67.4822 735.941,-66.4991 739,-65.6985 820.88,-44.2698 846.693,-59.2588 926,-29.6985 926.868,-29.3751 927.741,-29.022 928.613,-28.6455"/>
<polygon fill="green" stroke="green" stroke-width="0.121747" points="930.376,-31.6753 937.683,-24.0039 927.187,-25.4439 930.376,-31.6753"/>
</g>
<!-- &#45;29&#45;&gt;2 -->
<g id="edge113" class="edge"><title>&#45;29&#45;&gt;2</title>
<path fill="none" stroke="green" stroke-width="0.385521" d="M729.613,-67.6169C753.805,-57.5486 802.358,-37.3418 831.127,-25.3687"/>
<polygon fill="green" stroke="green" stroke-width="0.385521" points="832.518,-28.5809 840.405,-21.5072 829.828,-22.1183 832.518,-28.5809"/>
</g>
<!-- &#45;29&#45;&gt;3 -->
<g id="edge114" class="edge"><title>&#45;29&#45;&gt;3</title>
<path fill="none" stroke="red" stroke-width="0.555845" d="M729.609,-68.3911C732.683,-67.3981 735.926,-66.4406 739,-65.6985 841.712,-40.9025 874.305,-64.7057 974,-29.6985 974.874,-29.3917 975.752,-29.0527 976.629,-28.6881"/>
<polygon fill="red" stroke="red" stroke-width="0.555845" points="978.367,-31.7313 985.719,-24.102 975.214,-25.4816 978.367,-31.7313"/>
</g>
<!-- &#45;30 -->
<g id="node30" class="node"><title>&#45;30</title>
<polygon fill="lightgray" stroke="black" points="776.5,-83.6985 747.5,-83.6985 747.5,-65.6985 776.5,-65.6985 776.5,-83.6985"/>
<text text-anchor="middle" x="762" y="-72.4985" font-family="Times New Roman,serif" font-size="9.00">&#45;30</text>
</g>
<!-- &#45;30&#45;&gt;0 -->
<g id="edge115" class="edge"><title>&#45;30&#45;&gt;0</title>
<path fill="none" stroke="green" stroke-width="0.376504" d="M776.622,-68.4852C803.409,-58.8798 859.318,-38.5611 878,-29.6985 878.837,-29.3016 879.683,-28.886 880.533,-28.4569"/>
<polygon fill="green" stroke="green" stroke-width="0.376504" points="882.394,-31.4288 889.5,-23.5698 879.044,-25.2825 882.394,-31.4288"/>
</g>
<!-- &#45;30&#45;&gt;1 -->
<g id="edge116" class="edge"><title>&#45;30&#45;&gt;1</title>
<path fill="none" stroke="green" stroke-width="0.318452" d="M776.672,-68.627C779.741,-67.6169 782.967,-66.5928 786,-65.6985 847.624,-47.5291 866.518,-53.9775 926,-29.6985 926.857,-29.3485 927.722,-28.9729 928.587,-28.5774"/>
<polygon fill="green" stroke="green" stroke-width="0.318452" points="930.386,-31.5861 937.622,-23.8472 927.139,-25.3845 930.386,-31.5861"/>
</g>
<!-- &#45;30&#45;&gt;2 -->
<g id="edge117" class="edge"><title>&#45;30&#45;&gt;2</title>
<path fill="none" stroke="red" stroke-width="0.145508" d="M774.792,-65.6548C789.844,-56.1902 815.053,-40.3388 832.987,-29.0619"/>
<polygon fill="red" stroke="red" stroke-width="0.145508" points="835.008,-31.9258 841.61,-23.6398 831.282,-26 835.008,-31.9258"/>
</g>
<!-- &#45;30&#45;&gt;3 -->
<g id="edge118" class="edge"><title>&#45;30&#45;&gt;3</title>
<path fill="none" stroke="red" stroke-width="0.161331" d="M776.631,-68.4794C779.703,-67.48 782.94,-66.4976 786,-65.6985 868.312,-44.2 894.269,-59.3719 974,-29.6985 974.868,-29.3755 975.741,-29.0227 976.614,-28.6466"/>
<polygon fill="red" stroke="red" stroke-width="0.161331" points="978.375,-31.6767 985.684,-24.0064 975.187,-25.4448 978.375,-31.6767"/>
</g>
<!-- &#45;31 -->
<g id="node31" class="node"><title>&#45;31</title>
<polygon fill="lightgray" stroke="black" points="823.5,-83.6985 794.5,-83.6985 794.5,-65.6985 823.5,-65.6985 823.5,-83.6985"/>
<text text-anchor="middle" x="809" y="-72.4985" font-family="Times New Roman,serif" font-size="9.00">&#45;31</text>
</g>
<!-- &#45;31&#45;&gt;0 -->
<g id="edge119" class="edge"><title>&#45;31&#45;&gt;0</title>
<path fill="none" stroke="green" stroke-width="0.167077" d="M821.931,-65.6548C837.232,-56.1374 862.915,-40.1615 881.062,-28.8733"/>
<polygon fill="green" stroke="green" stroke-width="0.167077" points="883.128,-31.7105 889.77,-23.4566 879.43,-25.7666 883.128,-31.7105"/>
</g>
<!-- &#45;31&#45;&gt;1 -->
<g id="edge120" class="edge"><title>&#45;31&#45;&gt;1</title>
<path fill="none" stroke="red" stroke-width="0.483897" d="M823.75,-68.4928C850.77,-58.8999 907.165,-38.6013 926,-29.6985 926.837,-29.3028 927.684,-28.8882 928.535,-28.46"/>
<polygon fill="red" stroke="red" stroke-width="0.483897" points="930.394,-31.4328 937.503,-23.5768 927.047,-25.2851 930.394,-31.4328"/>
</g>
<!-- &#45;31&#45;&gt;2 -->
<g id="edge121" class="edge"><title>&#45;31&#45;&gt;2</title>
<path fill="none" stroke="green" stroke-width="0.316765" d="M815.257,-65.6548C821.37,-57.7964 830.908,-45.5348 838.99,-35.1446"/>
<polygon fill="green" stroke="green" stroke-width="0.316765" points="841.953,-37.0367 845.33,-26.9946 836.428,-32.7387 841.953,-37.0367"/>
</g>
<!-- &#45;31&#45;&gt;3 -->
<g id="edge122" class="edge"><title>&#45;31&#45;&gt;3</title>
<path fill="none" stroke="green" stroke-width="0.127924" d="M823.671,-68.623C826.74,-67.6131 829.966,-66.5902 833,-65.6985 895.052,-47.4604 914.098,-54.089 974,-29.6985 974.858,-29.3493 975.722,-28.9742 976.587,-28.5793"/>
<polygon fill="green" stroke="green" stroke-width="0.127924" points="978.386,-31.5885 985.624,-23.8515 975.141,-25.3861 978.386,-31.5885"/>
</g>
<!-- &#45;32 -->
<g id="node32" class="node"><title>&#45;32</title>
<polygon fill="lightgray" stroke="black" points="870.5,-83.6985 841.5,-83.6985 841.5,-65.6985 870.5,-65.6985 870.5,-83.6985"/>
<text text-anchor="middle" x="856" y="-72.4985" font-family="Times New Roman,serif" font-size="9.00">&#45;32</text>
</g>
<!-- &#45;32&#45;&gt;0 -->
<g id="edge123" class="edge"><title>&#45;32&#45;&gt;0</title>
<path fill="none" stroke="red" stroke-width="0.203959" d="M862.396,-65.6548C868.707,-57.7178 878.59,-45.2891 886.904,-34.8334"/>
<polygon fill="red" stroke="red" stroke-width="0.203959" points="889.653,-37.0001 893.138,-26.9946 884.174,-32.6433 889.653,-37.0001"/>
</g>
<!-- &#45;32&#45;&gt;1 -->
<g id="edge124" class="edge"><title>&#45;32&#45;&gt;1</title>
<path fill="none" stroke="red" stroke-width="0.268997" d="M869.07,-65.6548C884.606,-56.0937 910.733,-40.0148 929.089,-28.7182"/>
<polygon fill="red" stroke="red" stroke-width="0.268997" points="930.957,-31.6786 937.639,-23.4566 927.288,-25.7171 930.957,-31.6786"/>
</g>
<!-- &#45;32&#45;&gt;2 -->
<g id="edge125" class="edge"><title>&#45;32&#45;&gt;2</title>
<path fill="none" stroke="red" stroke-width="0.125326" d="M855.722,-65.6548C855.494,-59.0498 855.158,-49.3344 854.843,-40.2339"/>
<polygon fill="red" stroke="red" stroke-width="0.125326" points="858.335,-39.9294 854.491,-30.0563 851.339,-40.1713 858.335,-39.9294"/>
</g>
<!-- &#45;32&#45;&gt;3 -->
<g id="edge126" class="edge"><title>&#45;32&#45;&gt;3</title>
<path fill="none" stroke="red" stroke-width="0.202814" d="M870.877,-68.5003C898.131,-58.92 955.011,-38.6414 974,-29.6985 974.838,-29.3039 975.685,-28.8904 976.536,-28.463"/>
<polygon fill="red" stroke="red" stroke-width="0.202814" points="978.394,-31.4367 985.506,-23.5837 975.049,-25.2876 978.394,-31.4367"/>
</g>
<!-- &#45;33 -->
<g id="node33" class="node"><title>&#45;33</title>
<polygon fill="lightgray" stroke="black" points="917.5,-83.6985 888.5,-83.6985 888.5,-65.6985 917.5,-65.6985 917.5,-83.6985"/>
<text text-anchor="middle" x="903" y="-72.4985" font-family="Times New Roman,serif" font-size="9.00">&#45;33</text>
</g>
<!-- &#45;33&#45;&gt;0 -->
<g id="edge127" class="edge"><title>&#45;33&#45;&gt;0</title>
<path fill="none" stroke="red" stroke-width="0.394448" d="M902.861,-65.6548C902.747,-59.0498 902.579,-49.3344 902.422,-40.2339"/>
<polygon fill="red" stroke="red" stroke-width="0.394448" points="905.918,-39.9943 902.246,-30.0563 898.919,-40.1153 905.918,-39.9943"/>
</g>
<!-- &#45;33&#45;&gt;1 -->
<g id="edge128" class="edge"><title>&#45;33&#45;&gt;1</title>
<path fill="none" stroke="red" stroke-width="0.413425" d="M909.535,-65.6548C915.984,-57.7178 926.081,-45.2891 934.576,-34.8334"/>
<polygon fill="red" stroke="red" stroke-width="0.413425" points="937.356,-36.9629 940.945,-26.9946 931.923,-32.5489 937.356,-36.9629"/>
</g>
<!-- &#45;33&#45;&gt;2 -->
<g id="edge129" class="edge"><title>&#45;33&#45;&gt;2</title>
<path fill="none" stroke="red" stroke-width="0.454124" stroke-dasharray="1,5" d="M896.187,-65.6548C889.464,-57.7178 878.936,-45.2891 870.08,-34.8334"/>
<polygon fill="red" stroke="red" stroke-width="0.454124" points="872.574,-32.363 863.44,-26.9946 867.233,-36.8874 872.574,-32.363"/>
</g>
<!-- &#45;33&#45;&gt;3 -->
<g id="edge130" class="edge"><title>&#45;33&#45;&gt;3</title>
<path fill="none" stroke="green" stroke-width="0.308812" d="M916.209,-65.6548C931.911,-56.0937 958.315,-40.0148 976.867,-28.7182"/>
<polygon fill="green" stroke="green" stroke-width="0.308812" points="978.786,-31.647 985.507,-23.4566 975.146,-25.6683 978.786,-31.647"/>
</g>
<!-- &#45;34 -->
<g id="node34" class="node"><title>&#45;34</title>
<polygon fill="lightgray" stroke="black" points="964.5,-83.6985 935.5,-83.6985 935.5,-65.6985 964.5,-65.6985 964.5,-83.6985"/>
<text text-anchor="middle" x="950" y="-72.4985" font-family="Times New Roman,serif" font-size="9.00">&#45;34</text>
</g>
<!-- &#45;34&#45;&gt;0 -->
<g id="edge131" class="edge"><title>&#45;34&#45;&gt;0</title>
<path fill="none" stroke="green" stroke-width="0.281403" d="M943.326,-65.6548C936.74,-57.7178 926.428,-45.2891 917.752,-34.8334"/>
<polygon fill="green" stroke="green" stroke-width="0.281403" points="920.327,-32.4555 911.248,-26.9946 914.94,-36.9253 920.327,-32.4555"/>
</g>
<!-- &#45;34&#45;&gt;1 -->
<g id="edge132" class="edge"><title>&#45;34&#45;&gt;1</title>
<path fill="none" stroke="green" stroke-width="0.209908" d="M950,-65.6548C950,-59.0498 950,-49.3344 950,-40.2339"/>
<polygon fill="green" stroke="green" stroke-width="0.209908" points="953.5,-40.0563 950,-30.0563 946.5,-40.0564 953.5,-40.0563"/>
</g>
<!-- &#45;34&#45;&gt;2 -->
<g id="edge133" class="edge"><title>&#45;34&#45;&gt;2</title>
<path fill="none" stroke="red" stroke-width="0.10172" d="M936.652,-65.6548C920.697,-56.0406 893.806,-39.8359 875.044,-28.5304"/>
<polygon fill="red" stroke="red" stroke-width="0.10172" points="876.695,-25.4387 866.323,-23.2752 873.082,-31.4343 876.695,-25.4387"/>
</g>
<!-- &#45;34&#45;&gt;3 -->
<g id="edge134" class="edge"><title>&#45;34&#45;&gt;3</title>
<path fill="none" stroke="red" stroke-width="0.268684" d="M956.674,-65.6548C963.26,-57.7178 973.572,-45.2891 982.248,-34.8334"/>
<polygon fill="red" stroke="red" stroke-width="0.268684" points="985.06,-36.9253 988.752,-26.9946 979.673,-32.4555 985.06,-36.9253"/>
</g>
<!-- &#45;35 -->
<g id="node35" class="node"><title>&#45;35</title>
<polygon fill="lightgray" stroke="black" points="1011.5,-83.6985 982.5,-83.6985 982.5,-65.6985 1011.5,-65.6985 1011.5,-83.6985"/>
<text text-anchor="middle" x="997" y="-72.4985" font-family="Times New Roman,serif" font-size="9.00">&#45;35</text>
</g>
<!-- &#45;35&#45;&gt;0 -->
<g id="edge135" class="edge"><title>&#45;35&#45;&gt;0</title>
<path fill="none" stroke="green" stroke-width="0.164891" d="M983.791,-65.6548C968.089,-56.0937 941.685,-40.0148 923.133,-28.7182"/>
<polygon fill="green" stroke="green" stroke-width="0.164891" points="924.854,-25.6683 914.493,-23.4566 921.214,-31.647 924.854,-25.6683"/>
</g>
<!-- &#45;35&#45;&gt;1 -->
<g id="edge136" class="edge"><title>&#45;35&#45;&gt;1</title>
<path fill="none" stroke="red" stroke-width="0.236947" d="M990.465,-65.6548C984.016,-57.7178 973.919,-45.2891 965.424,-34.8334"/>
<polygon fill="red" stroke="red" stroke-width="0.236947" points="968.077,-32.5489 959.055,-26.9946 962.644,-36.9629 968.077,-32.5489"/>
</g>
<!-- &#45;35&#45;&gt;2 -->
<g id="edge137" class="edge"><title>&#45;35&#45;&gt;2</title>
<path fill="none" stroke="green" stroke-width="0.124123" d="M982.064,-68.3361C952.336,-57.6398 887.771,-34.2836 878,-29.6985 877.162,-29.3051 876.314,-28.8925 875.462,-28.4659"/>
<polygon fill="green" stroke="green" stroke-width="0.124123" points="876.948,-25.29 866.491,-23.5906 873.606,-31.4406 876.948,-25.29"/>
</g>
<!-- &#45;35&#45;&gt;3 -->
<g id="edge138" class="edge"><title>&#45;35&#45;&gt;3</title>
<path fill="none" stroke="green" stroke-width="0.367399" d="M997.139,-65.6548C997.253,-59.0498 997.421,-49.3344 997.578,-40.2339"/>
<polygon fill="green" stroke="green" stroke-width="0.367399" points="1001.08,-40.1153 997.754,-30.0563 994.082,-39.9943 1001.08,-40.1153"/>
</g>
<!-- &#45;36 -->
<g id="node36" class="node"><title>&#45;36</title>
<polygon fill="lightgray" stroke="black" points="1058.5,-83.6985 1029.5,-83.6985 1029.5,-65.6985 1058.5,-65.6985 1058.5,-83.6985"/>
<text text-anchor="middle" x="1044" y="-72.4985" font-family="Times New Roman,serif" font-size="9.00">&#45;36</text>
</g>
<!-- &#45;36&#45;&gt;0 -->
<g id="edge139" class="edge"><title>&#45;36&#45;&gt;0</title>
<path fill="none" stroke="green" stroke-width="0.197141" stroke-dasharray="1,5" d="M1029.12,-68.5003C1001.87,-58.92 944.989,-38.6414 926,-29.6985 925.162,-29.3039 924.315,-28.8904 923.464,-28.463"/>
<polygon fill="green" stroke="green" stroke-width="0.197141" points="924.951,-25.2876 914.494,-23.5837 921.606,-31.4367 924.951,-25.2876"/>
</g>
<!-- &#45;36&#45;&gt;1 -->
<g id="edge140" class="edge"><title>&#45;36&#45;&gt;1</title>
<path fill="none" stroke="green" stroke-width="0.435422" d="M1030.93,-65.6548C1015.39,-56.0937 989.267,-40.0148 970.911,-28.7182"/>
<polygon fill="green" stroke="green" stroke-width="0.435422" points="972.712,-25.7171 962.361,-23.4566 969.043,-31.6786 972.712,-25.7171"/>
</g>
<!-- &#45;36&#45;&gt;2 -->
<g id="edge141" class="edge"><title>&#45;36&#45;&gt;2</title>
<path fill="none" stroke="red" stroke-width="0.245929" d="M1029.46,-68.425C1026.67,-67.4731 1023.75,-66.5224 1021,-65.6985 958.211,-46.9149 938.741,-54.3121 878,-29.6985 877.142,-29.3507 876.277,-28.9769 875.411,-28.583"/>
<polygon fill="red" stroke="red" stroke-width="0.245929" points="876.857,-25.3893 866.373,-23.86 873.615,-31.5934 876.857,-25.3893"/>
</g>
<!-- &#45;36&#45;&gt;3 -->
<g id="edge142" class="edge"><title>&#45;36&#45;&gt;3</title>
<path fill="none" stroke="red" stroke-width="0.336379" d="M1037.6,-65.6548C1031.29,-57.7178 1021.41,-45.2891 1013.1,-34.8334"/>
<polygon fill="red" stroke="red" stroke-width="0.336379" points="1015.83,-32.6433 1006.86,-26.9946 1010.35,-37.0001 1015.83,-32.6433"/>
</g>
<!-- &#45;37 -->
<g id="node37" class="node"><title>&#45;37</title>
<polygon fill="lightgray" stroke="black" points="1105.5,-83.6985 1076.5,-83.6985 1076.5,-65.6985 1105.5,-65.6985 1105.5,-83.6985"/>
<text text-anchor="middle" x="1091" y="-72.4985" font-family="Times New Roman,serif" font-size="9.00">&#45;37</text>
</g>
<!-- &#45;37&#45;&gt;0 -->
<g id="edge143" class="edge"><title>&#45;37&#45;&gt;0</title>
<path fill="none" stroke="red" stroke-width="0.41036" d="M1076.46,-68.4288C1073.67,-67.4765 1070.75,-66.5247 1068,-65.6985 1005.64,-46.9864 986.321,-54.2005 926,-29.6985 925.142,-29.35 924.277,-28.9756 923.412,-28.5812"/>
<polygon fill="red" stroke="red" stroke-width="0.41036" points="924.858,-25.3877 914.375,-23.8558 921.615,-31.591 924.858,-25.3877"/>
</g>
<!-- &#45;37&#45;&gt;1 -->
<g id="edge144" class="edge"><title>&#45;37&#45;&gt;1</title>
<path fill="none" stroke="green" stroke-width="0.298046" d="M1076.25,-68.4928C1049.23,-58.8999 992.835,-38.6013 974,-29.6985 973.163,-29.3028 972.316,-28.8882 971.465,-28.46"/>
<polygon fill="green" stroke="green" stroke-width="0.298046" points="972.953,-25.2851 962.497,-23.5768 969.606,-31.4328 972.953,-25.2851"/>
</g>
<!-- &#45;37&#45;&gt;2 -->
<g id="edge145" class="edge"><title>&#45;37&#45;&gt;2</title>
<path fill="none" stroke="green" stroke-width="0.458035" d="M1076.01,-68.1267C1073.36,-67.2458 1070.61,-66.3967 1068,-65.6985 984.964,-43.5206 958.578,-59.5981 878,-29.6985 877.132,-29.3763 876.258,-29.0243 875.386,-28.6487"/>
<polygon fill="green" stroke="green" stroke-width="0.458035" points="876.811,-25.4467 866.314,-24.0114 873.625,-31.6796 876.811,-25.4467"/>
</g>
<!-- &#45;37&#45;&gt;3 -->
<g id="edge146" class="edge"><title>&#45;37&#45;&gt;3</title>
<path fill="none" stroke="red" stroke-width="0.421043" d="M1078.07,-65.6548C1062.77,-56.1374 1037.09,-40.1615 1018.94,-28.8733"/>
<polygon fill="red" stroke="red" stroke-width="0.421043" points="1020.57,-25.7666 1010.23,-23.4566 1016.87,-31.7105 1020.57,-25.7666"/>
</g>
<!-- &#45;38 -->
<g id="node38" class="node"><title>&#45;38</title>
<polygon fill="lightgray" stroke="black" points="1152.5,-83.6985 1123.5,-83.6985 1123.5,-65.6985 1152.5,-65.6985 1152.5,-83.6985"/>
<text text-anchor="middle" x="1138" y="-72.4985" font-family="Times New Roman,serif" font-size="9.00">&#45;38</text>
</g>
<!-- &#45;38&#45;&gt;0 -->
<g id="edge147" class="edge"><title>&#45;38&#45;&gt;0</title>
<path fill="none" stroke="red" stroke-width="0.669128" d="M1123.5,-68.2944C1120.7,-67.3545 1117.78,-66.4417 1115,-65.6985 1032.4,-43.5933 1006.15,-59.485 926,-29.6985 925.132,-29.3759 924.259,-29.0235 923.386,-28.6477"/>
<polygon fill="red" stroke="red" stroke-width="0.669128" points="924.812,-25.4458 914.315,-24.0089 921.625,-31.6781 924.812,-25.4458"/>
</g>
<!-- &#45;38&#45;&gt;1 -->
<g id="edge148" class="edge"><title>&#45;38&#45;&gt;1</title>
<path fill="none" stroke="red" stroke-width="0.405162" d="M1123.46,-68.4325C1120.67,-67.4799 1117.75,-66.527 1115,-65.6985 1053.07,-47.0579 1033.9,-54.089 974,-29.6985 973.142,-29.3493 972.278,-28.9742 971.413,-28.5793"/>
<polygon fill="red" stroke="red" stroke-width="0.405162" points="972.859,-25.3861 962.376,-23.8515 969.614,-31.5885 972.859,-25.3861"/>
</g>
<!-- &#45;38&#45;&gt;2 -->
<g id="edge149" class="edge"><title>&#45;38&#45;&gt;2</title>
<path fill="none" stroke="green" stroke-width="0.422871" d="M1123.03,-68.046C1120.38,-67.174 1117.63,-66.3488 1115,-65.6985 1011.58,-40.0896 978.547,-64.9333 878,-29.6985 877.126,-29.3922 876.248,-29.0537 875.371,-28.6895"/>
<polygon fill="green" stroke="green" stroke-width="0.422871" points="876.785,-25.4829 866.28,-24.1053 873.633,-31.7331 876.785,-25.4829"/>
</g>
<!-- &#45;38&#45;&gt;3 -->
<g id="edge150" class="edge"><title>&#45;38&#45;&gt;3</title>
<path fill="none" stroke="red" stroke-width="0.158606" stroke-dasharray="1,5" d="M1123.28,-67.6169C1098.92,-57.5486 1050.01,-37.3418 1021.04,-25.3687"/>
<polygon fill="red" stroke="red" stroke-width="0.158606" points="1022.27,-22.0914 1011.69,-21.5072 1019.6,-28.5609 1022.27,-22.0914"/>
</g>
<!-- &#45;39 -->
<g id="node39" class="node"><title>&#45;39</title>
<polygon fill="lightgray" stroke="black" points="1199.5,-83.6985 1170.5,-83.6985 1170.5,-65.6985 1199.5,-65.6985 1199.5,-83.6985"/>
<text text-anchor="middle" x="1185" y="-72.4985" font-family="Times New Roman,serif" font-size="9.00">&#45;39</text>
</g>
<!-- &#45;39&#45;&gt;0 -->
<g id="edge151" class="edge"><title>&#45;39&#45;&gt;0</title>
<path fill="none" stroke="green" stroke-width="0.104532" d="M1170.03,-68.0474C1167.38,-67.1753 1164.63,-66.3497 1162,-65.6985 1059.02,-40.1629 1026.12,-64.8195 926,-29.6985 925.126,-29.392 924.248,-29.0532 923.371,-28.6888"/>
<polygon fill="green" stroke="green" stroke-width="0.104532" points="924.786,-25.4822 914.281,-24.1037 921.633,-31.7322 924.786,-25.4822"/>
</g>
<!-- &#45;39&#45;&gt;1 -->
<g id="edge152" class="edge"><title>&#45;39&#45;&gt;1</title>
<path fill="none" stroke="green" stroke-width="0.208548" d="M1170.5,-68.2966C1167.7,-67.3565 1164.78,-66.443 1162,-65.6985 1079.83,-43.6659 1053.73,-59.3719 974,-29.6985 973.132,-29.3755 972.259,-29.0227 971.386,-28.6466"/>
<polygon fill="green" stroke="green" stroke-width="0.208548" points="972.813,-25.4448 962.316,-24.0064 969.625,-31.6767 972.813,-25.4448"/>
</g>
<!-- &#45;39&#45;&gt;2 -->
<g id="edge153" class="edge"><title>&#45;39&#45;&gt;2</title>
<path fill="none" stroke="red" stroke-width="0.323002" d="M1170.04,-67.9912C1167.39,-67.1254 1164.63,-66.3164 1162,-65.6985 1038.13,-36.6413 998.583,-70.2925 878,-29.6985 877.122,-29.403 876.241,-29.0737 875.361,-28.7173"/>
<polygon fill="red" stroke="red" stroke-width="0.323002" points="876.768,-25.5076 866.258,-24.1691 873.64,-31.7696 876.768,-25.5076"/>
</g>
<!-- &#45;39&#45;&gt;3 -->
<g id="edge154" class="edge"><title>&#45;39&#45;&gt;3</title>
<path fill="none" stroke="red" stroke-width="0.349476" d="M1170.43,-68.5326C1167.64,-67.5708 1164.73,-66.5889 1162,-65.6985 1112.43,-49.5505 1053.9,-32.1579 1021.89,-22.787"/>
<polygon fill="red" stroke="red" stroke-width="0.349476" points="1022.68,-19.3722 1012.1,-19.9299 1020.72,-26.0918 1022.68,-19.3722"/>
</g>
<!-- &#45;40 -->
<g id="node40" class="node"><title>&#45;40</title>
<polygon fill="lightgray" stroke="black" points="1246.5,-83.6985 1217.5,-83.6985 1217.5,-65.6985 1246.5,-65.6985 1246.5,-83.6985"/>
<text text-anchor="middle" x="1232" y="-72.4985" font-family="Times New Roman,serif" font-size="9.00">&#45;40</text>
</g>
<!-- &#45;40&#45;&gt;0 -->
<g id="edge155" class="edge"><title>&#45;40&#45;&gt;0</title>
<path fill="none" stroke="green" stroke-width="0.133129" d="M1217.04,-67.9922C1214.39,-67.1263 1211.63,-66.317 1209,-65.6985 1085.57,-36.7148 1046.16,-70.1783 926,-29.6985 925.122,-29.4028 924.241,-29.0733 923.362,-28.7168"/>
<polygon fill="green" stroke="green" stroke-width="0.133129" points="924.769,-25.5072 914.259,-24.1679 921.639,-31.7689 924.769,-25.5072"/>
</g>
<!-- &#45;40&#45;&gt;1 -->
<g id="edge156" class="edge"><title>&#45;40&#45;&gt;1</title>
<path fill="none" stroke="red" stroke-width="0.274074" d="M1217.03,-68.0488C1214.38,-67.1765 1211.63,-66.3505 1209,-65.6985 1106.45,-40.2361 1073.7,-64.7057 974,-29.6985 973.126,-29.3917 972.248,-29.0527 971.371,-28.6881"/>
<polygon fill="red" stroke="red" stroke-width="0.274074" points="972.786,-25.4816 962.281,-24.102 969.633,-31.7313 972.786,-25.4816"/>
</g>
<!-- &#45;40&#45;&gt;2 -->
<g id="edge157" class="edge"><title>&#45;40&#45;&gt;2</title>
<path fill="none" stroke="green" stroke-width="0.208736" d="M1217.05,-67.9517C1214.4,-67.0903 1211.64,-66.293 1209,-65.6985 1064.64,-33.1834 1018.66,-75.665 878,-29.6985 877.12,-29.4108 876.236,-29.0881 875.355,-28.7373"/>
<polygon fill="green" stroke="green" stroke-width="0.208736" points="876.756,-25.5256 866.243,-24.2151 873.645,-31.7959 876.756,-25.5256"/>
</g>
<!-- &#45;40&#45;&gt;3 -->
<g id="edge158" class="edge"><title>&#45;40&#45;&gt;3</title>
<path fill="none" stroke="green" stroke-width="0.12774" d="M1217.47,-68.3924C1214.68,-67.4435 1211.76,-66.5023 1209,-65.6985 1142.27,-46.2671 1062.04,-28.9338 1022.49,-20.7803"/>
<polygon fill="green" stroke="green" stroke-width="0.12774" points="1022.96,-17.3037 1012.46,-18.7299 1021.56,-24.1619 1022.96,-17.3037"/>
</g>
</g>
</svg>
