<?xml version="1.0" encoding="UTF-8" standalone="no"?>
<!DOCTYPE svg PUBLIC "-//W3C//DTD SVG 1.1//EN"
 "http://www.w3.org/Graphics/SVG/1.1/DTD/svg11.dtd">
<!-- Generated by graphviz version 2.38.0 (20140413.2041)
 -->
<!-- Title: %3 Pages: 1 -->
<svg width="2313pt" height="170pt"
 viewBox="0.00 0.00 2312.50 170.12" xmlns="http://www.w3.org/2000/svg" xmlns:xlink="http://www.w3.org/1999/xlink">
<g id="graph0" class="graph" transform="scale(1 1) rotate(0) translate(4 166.125)">
<title>%3</title>
<polygon fill="white" stroke="none" points="-4,4 -4,-166.125 2308.5,-166.125 2308.5,4 -4,4"/>
<!-- &#45;1 -->
<g id="node1" class="node"><title>&#45;1</title>
<polygon fill="lightgray" stroke="black" points="877.213,-95.9117 853.213,-95.9117 853.213,-77.9117 877.213,-77.9117 877.213,-95.9117"/>
<text text-anchor="middle" x="865.213" y="-84.7117" font-family="Times New Roman,serif" font-size="9.00">&#45;1</text>
</g>
<!-- 0 -->
<g id="node41" class="node"><title>0</title>
<ellipse fill="lightblue" stroke="black" cx="991.213" cy="-14.8492" rx="14.7" ry="14.7"/>
<text text-anchor="middle" x="991.213" y="-12.6492" font-family="Times New Roman,serif" font-size="9.00">0</text>
</g>
<!-- &#45;1&#45;&gt;0 -->
<g id="edge1" class="edge"><title>&#45;1&#45;&gt;0</title>
<path fill="none" stroke="green" stroke-width="0.227955" d="M872.467,-77.7821C876.291,-73.8083 881.218,-69.1511 886.213,-65.6985 912.295,-47.6716 945.913,-32.9954 967.992,-24.3472"/>
<polygon fill="green" stroke="green" stroke-width="0.227955" points="969.444,-27.5392 977.538,-20.7025 966.947,-20.9996 969.444,-27.5392"/>
</g>
<!-- 1 -->
<g id="node42" class="node"><title>1</title>
<ellipse fill="lightblue" stroke="black" cx="1057.21" cy="-14.8492" rx="14.7" ry="14.7"/>
<text text-anchor="middle" x="1057.21" y="-12.6492" font-family="Times New Roman,serif" font-size="9.00">1</text>
</g>
<!-- &#45;1&#45;&gt;1 -->
<g id="edge2" class="edge"><title>&#45;1&#45;&gt;1</title>
<path fill="none" stroke="green" stroke-width="0.303113" d="M871.86,-77.8149C875.668,-73.6518 880.765,-68.8121 886.213,-65.6985 937.892,-36.1621 958.266,-47.0234 1015.21,-29.6985 1021.24,-27.866 1027.71,-25.7866 1033.73,-23.8063"/>
<polygon fill="green" stroke="green" stroke-width="0.303113" points="1034.88,-27.1104 1043.26,-20.6286 1032.67,-20.4694 1034.88,-27.1104"/>
</g>
<!-- 2 -->
<g id="node43" class="node"><title>2</title>
<ellipse fill="lightblue" stroke="black" cx="1251.21" cy="-14.8492" rx="14.7" ry="14.7"/>
<text text-anchor="middle" x="1251.21" y="-12.6492" font-family="Times New Roman,serif" font-size="9.00">2</text>
</g>
<!-- &#45;1&#45;&gt;2 -->
<g id="edge3" class="edge"><title>&#45;1&#45;&gt;2</title>
<path fill="none" stroke="green" stroke-width="0.557745" stroke-dasharray="1,5" d="M871.317,-77.8714C875.101,-73.5068 880.351,-68.4535 886.213,-65.6985 1015.34,-5.01118 1065.45,-58.3808 1205.21,-29.6985 1212.57,-28.189 1220.44,-26.0283 1227.55,-23.8612"/>
<polygon fill="green" stroke="green" stroke-width="0.557745" points="1228.82,-27.1299 1237.29,-20.7566 1226.7,-20.4609 1228.82,-27.1299"/>
</g>
<!-- 3 -->
<g id="node44" class="node"><title>3</title>
<ellipse fill="lightblue" stroke="black" cx="1181.21" cy="-14.8492" rx="14.7" ry="14.7"/>
<text text-anchor="middle" x="1181.21" y="-12.6492" font-family="Times New Roman,serif" font-size="9.00">3</text>
</g>
<!-- &#45;1&#45;&gt;3 -->
<g id="edge4" class="edge"><title>&#45;1&#45;&gt;3</title>
<path fill="none" stroke="green" stroke-width="0.278563" d="M871.736,-77.5841C875.508,-73.3533 880.61,-68.5226 886.213,-65.6985 910.324,-53.5465 1089.87,-28.2498 1156.46,-19.1773"/>
<polygon fill="green" stroke="green" stroke-width="0.278563" points="1157.05,-22.6301 1166.48,-17.818 1156.11,-15.6936 1157.05,-22.6301"/>
</g>
<!-- &#45;2 -->
<g id="node2" class="node"><title>&#45;2</title>
<polygon fill="lightgray" stroke="black" points="919.213,-95.9117 895.213,-95.9117 895.213,-77.9117 919.213,-77.9117 919.213,-95.9117"/>
<text text-anchor="middle" x="907.213" y="-84.7117" font-family="Times New Roman,serif" font-size="9.00">&#45;2</text>
</g>
<!-- &#45;2&#45;&gt;0 -->
<g id="edge5" class="edge"><title>&#45;2&#45;&gt;0</title>
<path fill="none" stroke="green" stroke-width="0.102679" d="M915.218,-77.8522C919.066,-74.0717 923.792,-69.5596 928.213,-65.6985 942.382,-53.325 959.109,-40.1526 971.765,-30.4577"/>
<polygon fill="green" stroke="green" stroke-width="0.102679" points="973.951,-33.1918 979.795,-24.354 969.715,-27.619 973.951,-33.1918"/>
</g>
<!-- &#45;2&#45;&gt;1 -->
<g id="edge6" class="edge"><title>&#45;2&#45;&gt;1</title>
<path fill="none" stroke="green" stroke-width="0.252593" d="M914.361,-77.6226C918.158,-73.6081 923.093,-68.9627 928.213,-65.6985 946.221,-54.2187 1001.49,-34.6227 1033.54,-23.7334"/>
<polygon fill="green" stroke="green" stroke-width="0.252593" points="1035.08,-26.9098 1043.44,-20.3985 1032.84,-20.2766 1035.08,-26.9098"/>
</g>
<!-- &#45;2&#45;&gt;2 -->
<g id="edge7" class="edge"><title>&#45;2&#45;&gt;2</title>
<path fill="none" stroke="green" stroke-width="0.324265" d="M913.334,-77.9084C917.125,-73.5562 922.375,-68.5029 928.213,-65.6985 1040.12,-11.948 1083.82,-55.6799 1205.21,-29.6985 1212.56,-28.127 1220.42,-25.948 1227.54,-23.7831"/>
<polygon fill="green" stroke="green" stroke-width="0.324265" points="1228.8,-27.0541 1237.28,-20.6938 1226.68,-20.3819 1228.8,-27.0541"/>
</g>
<!-- &#45;2&#45;&gt;3 -->
<g id="edge8" class="edge"><title>&#45;2&#45;&gt;3</title>
<path fill="none" stroke="red" stroke-width="0.175801" stroke-dasharray="1,5" d="M913.767,-77.6445C917.548,-73.4314 922.649,-68.5984 928.213,-65.6985 948.442,-55.1563 1096.83,-29.8032 1156.48,-19.9049"/>
<polygon fill="red" stroke="red" stroke-width="0.175801" points="1157.24,-23.3269 1166.54,-18.2436 1156.1,-16.4205 1157.24,-23.3269"/>
</g>
<!-- &#45;3 -->
<g id="node3" class="node"><title>&#45;3</title>
<polygon fill="lightgray" stroke="black" points="961.213,-95.9117 937.213,-95.9117 937.213,-77.9117 961.213,-77.9117 961.213,-95.9117"/>
<text text-anchor="middle" x="949.213" y="-84.7117" font-family="Times New Roman,serif" font-size="9.00">&#45;3</text>
</g>
<!-- &#45;3&#45;&gt;0 -->
<g id="edge9" class="edge"><title>&#45;3&#45;&gt;0</title>
<path fill="none" stroke="red" stroke-width="0.349282" d="M954.031,-77.8746C959.983,-67.9452 970.337,-50.6741 978.609,-36.8744"/>
<polygon fill="red" stroke="red" stroke-width="0.349282" points="981.785,-38.3847 983.924,-28.0082 975.781,-34.7856 981.785,-38.3847"/>
</g>
<!-- &#45;3&#45;&gt;1 -->
<g id="edge10" class="edge"><title>&#45;3&#45;&gt;1</title>
<path fill="none" stroke="red" stroke-width="0.422854" d="M956.972,-77.5472C960.764,-73.6999 965.517,-69.2196 970.213,-65.6985 990.779,-50.2801 1016.56,-36.0641 1034.71,-26.7928"/>
<polygon fill="red" stroke="red" stroke-width="0.422854" points="1036.55,-29.7855 1043.92,-22.1745 1033.41,-23.528 1036.55,-29.7855"/>
</g>
<!-- &#45;3&#45;&gt;2 -->
<g id="edge11" class="edge"><title>&#45;3&#45;&gt;2</title>
<path fill="none" stroke="red" stroke-width="0.448702" stroke-dasharray="1,5" d="M955.719,-77.5496C959.486,-73.3088 964.588,-68.4794 970.213,-65.6985 1064.93,-18.8692 1102.15,-52.9865 1205.21,-29.6985 1212.54,-28.0435 1220.4,-25.8397 1227.51,-23.6778"/>
<polygon fill="red" stroke="red" stroke-width="0.448702" points="1228.77,-26.952 1237.26,-20.6091 1226.67,-20.2754 1228.77,-26.952"/>
</g>
<!-- &#45;3&#45;&gt;3 -->
<g id="edge12" class="edge"><title>&#45;3&#45;&gt;3</title>
<path fill="none" stroke="green" stroke-width="0.387299" d="M955.811,-77.7272C959.605,-73.5384 964.704,-68.7021 970.213,-65.6985 1002.47,-48.11 1108.25,-28.3558 1156.65,-19.9689"/>
<polygon fill="green" stroke="green" stroke-width="0.387299" points="1157.32,-23.4045 1166.58,-18.2668 1156.14,-16.5049 1157.32,-23.4045"/>
</g>
<!-- &#45;4 -->
<g id="node4" class="node"><title>&#45;4</title>
<polygon fill="lightgray" stroke="black" points="1003.21,-95.9117 979.213,-95.9117 979.213,-77.9117 1003.21,-77.9117 1003.21,-95.9117"/>
<text text-anchor="middle" x="991.213" y="-84.7117" font-family="Times New Roman,serif" font-size="9.00">&#45;4</text>
</g>
<!-- &#45;4&#45;&gt;0 -->
<g id="edge13" class="edge"><title>&#45;4&#45;&gt;0</title>
<path fill="none" stroke="green" stroke-width="0.209109" d="M991.213,-77.8746C991.213,-68.7202 991.213,-53.3256 991.213,-40.1641"/>
<polygon fill="green" stroke="green" stroke-width="0.209109" points="994.713,-39.8196 991.213,-29.8197 987.713,-39.8197 994.713,-39.8196"/>
</g>
<!-- &#45;4&#45;&gt;1 -->
<g id="edge14" class="edge"><title>&#45;4&#45;&gt;1</title>
<path fill="none" stroke="red" stroke-width="0.154773" d="M998.784,-77.8746C1008.84,-67.1994 1026.89,-48.0381 1040.28,-33.8281"/>
<polygon fill="red" stroke="red" stroke-width="0.154773" points="1042.84,-36.2072 1047.15,-26.5283 1037.75,-31.4074 1042.84,-36.2072"/>
</g>
<!-- &#45;4&#45;&gt;2 -->
<g id="edge15" class="edge"><title>&#45;4&#45;&gt;2</title>
<path fill="none" stroke="red" stroke-width="0.515102" d="M997.755,-77.622C1001.53,-73.4023 1006.63,-68.5702 1012.21,-65.6985 1089.8,-25.7645 1120.42,-50.3062 1205.21,-29.6985 1212.51,-27.9251 1220.36,-25.6862 1227.48,-23.5285"/>
<polygon fill="red" stroke="red" stroke-width="0.515102" points="1228.72,-26.807 1237.23,-20.489 1226.64,-20.1243 1228.72,-26.807"/>
</g>
<!-- &#45;4&#45;&gt;3 -->
<g id="edge16" class="edge"><title>&#45;4&#45;&gt;3</title>
<path fill="none" stroke="green" stroke-width="0.267232" d="M997.878,-77.8468C1001.69,-73.693 1006.79,-68.852 1012.21,-65.6985 1058.99,-38.5087 1121.79,-25.0952 1156.16,-19.4003"/>
<polygon fill="green" stroke="green" stroke-width="0.267232" points="1156.92,-22.8233 1166.26,-17.8149 1155.83,-15.9079 1156.92,-22.8233"/>
</g>
<!-- &#45;5 -->
<g id="node5" class="node"><title>&#45;5</title>
<polygon fill="lightgray" stroke="black" points="1045.21,-95.9117 1021.21,-95.9117 1021.21,-77.9117 1045.21,-77.9117 1045.21,-95.9117"/>
<text text-anchor="middle" x="1033.21" y="-84.7117" font-family="Times New Roman,serif" font-size="9.00">&#45;5</text>
</g>
<!-- &#45;5&#45;&gt;0 -->
<g id="edge17" class="edge"><title>&#45;5&#45;&gt;0</title>
<path fill="none" stroke="red" stroke-width="0.367298" stroke-dasharray="1,5" d="M1028.4,-77.8746C1022.44,-67.9452 1012.09,-50.6741 1003.82,-36.8744"/>
<polygon fill="red" stroke="red" stroke-width="0.367298" points="1006.65,-34.7856 998.502,-28.0082 1000.64,-38.3847 1006.65,-34.7856"/>
</g>
<!-- &#45;5&#45;&gt;1 -->
<g id="edge18" class="edge"><title>&#45;5&#45;&gt;1</title>
<path fill="none" stroke="green" stroke-width="0.220669" d="M1035.97,-77.8746C1039.22,-68.3653 1044.79,-52.1224 1049.4,-38.6437"/>
<polygon fill="green" stroke="green" stroke-width="0.220669" points="1052.77,-39.6272 1052.7,-29.0326 1046.15,-37.3587 1052.77,-39.6272"/>
</g>
<!-- &#45;5&#45;&gt;2 -->
<g id="edge19" class="edge"><title>&#45;5&#45;&gt;2</title>
<path fill="none" stroke="red" stroke-width="0.130254" d="M1039.81,-77.7317C1043.61,-73.5442 1048.71,-68.7077 1054.21,-65.6985 1114.75,-32.6113 1138.6,-47.6509 1205.21,-29.6985 1212.46,-27.7446 1220.3,-25.4521 1227.42,-23.3009"/>
<polygon fill="red" stroke="red" stroke-width="0.130254" points="1228.65,-26.5856 1237.18,-20.306 1226.59,-19.8936 1228.65,-26.5856"/>
</g>
<!-- &#45;5&#45;&gt;3 -->
<g id="edge20" class="edge"><title>&#45;5&#45;&gt;3</title>
<path fill="none" stroke="green" stroke-width="0.346438" d="M1040.37,-77.634C1044.17,-73.6225 1049.1,-68.9762 1054.21,-65.6985 1087.16,-44.5727 1130.48,-29.9508 1157.06,-22.238"/>
<polygon fill="green" stroke="green" stroke-width="0.346438" points="1158.34,-25.5146 1167.03,-19.4445 1156.45,-18.7746 1158.34,-25.5146"/>
</g>
<!-- &#45;6 -->
<g id="node6" class="node"><title>&#45;6</title>
<polygon fill="lightgray" stroke="black" points="1087.21,-95.9117 1063.21,-95.9117 1063.21,-77.9117 1087.21,-77.9117 1087.21,-95.9117"/>
<text text-anchor="middle" x="1075.21" y="-84.7117" font-family="Times New Roman,serif" font-size="9.00">&#45;6</text>
</g>
<!-- &#45;6&#45;&gt;0 -->
<g id="edge21" class="edge"><title>&#45;6&#45;&gt;0</title>
<path fill="none" stroke="red" stroke-width="0.441233" d="M1067.21,-77.8522C1063.36,-74.0717 1058.63,-69.5596 1054.21,-65.6985 1040.04,-53.325 1023.32,-40.1526 1010.66,-30.4577"/>
<polygon fill="red" stroke="red" stroke-width="0.441233" points="1012.71,-27.619 1002.63,-24.354 1008.47,-33.1918 1012.71,-27.619"/>
</g>
<!-- &#45;6&#45;&gt;1 -->
<g id="edge22" class="edge"><title>&#45;6&#45;&gt;1</title>
<path fill="none" stroke="red" stroke-width="0.151284" stroke-dasharray="1,5" d="M1073.15,-77.8746C1070.74,-68.5153 1066.66,-52.633 1063.23,-39.2834"/>
<polygon fill="red" stroke="red" stroke-width="0.151284" points="1066.55,-38.1077 1060.67,-29.2932 1059.77,-39.8496 1066.55,-38.1077"/>
</g>
<!-- &#45;6&#45;&gt;2 -->
<g id="edge23" class="edge"><title>&#45;6&#45;&gt;2</title>
<path fill="none" stroke="green" stroke-width="0.235945" d="M1081.91,-77.8992C1085.73,-73.7608 1090.83,-68.9178 1096.21,-65.6985 1102.01,-62.2308 1185.69,-36.1124 1227.62,-23.1298"/>
<polygon fill="green" stroke="green" stroke-width="0.235945" points="1228.79,-26.432 1237.31,-20.1339 1226.72,-19.7444 1228.79,-26.432"/>
</g>
<!-- &#45;6&#45;&gt;3 -->
<g id="edge24" class="edge"><title>&#45;6&#45;&gt;3</title>
<path fill="none" stroke="green" stroke-width="0.340776" d="M1082.99,-77.5684C1086.78,-73.7258 1091.53,-69.2432 1096.21,-65.6985 1116.35,-50.4444 1141.53,-36.2031 1159.24,-26.881"/>
<polygon fill="green" stroke="green" stroke-width="0.340776" points="1160.96,-29.9343 1168.24,-22.233 1157.75,-23.7161 1160.96,-29.9343"/>
</g>
<!-- &#45;7 -->
<g id="node7" class="node"><title>&#45;7</title>
<polygon fill="lightgray" stroke="black" points="1129.21,-95.9117 1105.21,-95.9117 1105.21,-77.9117 1129.21,-77.9117 1129.21,-95.9117"/>
<text text-anchor="middle" x="1117.21" y="-84.7117" font-family="Times New Roman,serif" font-size="9.00">&#45;7</text>
</g>
<!-- &#45;7&#45;&gt;0 -->
<g id="edge25" class="edge"><title>&#45;7&#45;&gt;0</title>
<path fill="none" stroke="green" stroke-width="0.124883" d="M1109.96,-77.7821C1106.13,-73.8083 1101.21,-69.1511 1096.21,-65.6985 1070.13,-47.6716 1036.51,-32.9954 1014.43,-24.3472"/>
<polygon fill="green" stroke="green" stroke-width="0.124883" points="1015.48,-20.9996 1004.89,-20.7025 1012.98,-27.5392 1015.48,-20.9996"/>
</g>
<!-- &#45;7&#45;&gt;1 -->
<g id="edge26" class="edge"><title>&#45;7&#45;&gt;1</title>
<path fill="none" stroke="red" stroke-width="0.397707" d="M1110.33,-77.8746C1101.38,-67.4184 1085.45,-48.8208 1073.36,-34.7089"/>
<polygon fill="red" stroke="red" stroke-width="0.397707" points="1075.94,-32.3326 1066.77,-27.0138 1070.62,-36.8858 1075.94,-32.3326"/>
</g>
<!-- &#45;7&#45;&gt;2 -->
<g id="edge27" class="edge"><title>&#45;7&#45;&gt;2</title>
<path fill="none" stroke="green" stroke-width="0.182449" d="M1124.43,-77.7231C1128.24,-73.7342 1133.17,-69.0814 1138.21,-65.6985 1166.75,-46.5523 1203.85,-31.84 1227.6,-23.5148"/>
<polygon fill="green" stroke="green" stroke-width="0.182449" points="1228.86,-26.7831 1237.2,-20.2448 1226.61,-20.1572 1228.86,-26.7831"/>
</g>
<!-- &#45;7&#45;&gt;3 -->
<g id="edge28" class="edge"><title>&#45;7&#45;&gt;3</title>
<path fill="none" stroke="green" stroke-width="0.394323" d="M1124.55,-77.8746C1134.22,-67.2982 1151.49,-48.3922 1164.43,-34.2241"/>
<polygon fill="green" stroke="green" stroke-width="0.394323" points="1167.3,-36.2722 1171.46,-26.5283 1162.13,-31.5511 1167.3,-36.2722"/>
</g>
<!-- &#45;8 -->
<g id="node8" class="node"><title>&#45;8</title>
<polygon fill="lightgray" stroke="black" points="1171.21,-95.9117 1147.21,-95.9117 1147.21,-77.9117 1171.21,-77.9117 1171.21,-95.9117"/>
<text text-anchor="middle" x="1159.21" y="-84.7117" font-family="Times New Roman,serif" font-size="9.00">&#45;8</text>
</g>
<!-- &#45;8&#45;&gt;0 -->
<g id="edge29" class="edge"><title>&#45;8&#45;&gt;0</title>
<path fill="none" stroke="green" stroke-width="0.106234" d="M1152.12,-77.5313C1148.34,-73.4936 1143.4,-68.855 1138.21,-65.6985 1135.47,-64.0313 1055.47,-37.2627 1014.67,-23.6581"/>
<polygon fill="green" stroke="green" stroke-width="0.106234" points="1015.57,-20.2706 1004.98,-20.4298 1013.36,-26.9117 1015.57,-20.2706"/>
</g>
<!-- &#45;8&#45;&gt;1 -->
<g id="edge30" class="edge"><title>&#45;8&#45;&gt;1</title>
<path fill="none" stroke="red" stroke-width="0.43326" d="M1151.4,-77.6129C1147.6,-73.78 1142.85,-69.2928 1138.21,-65.6985 1119.33,-51.0765 1095.94,-37.0667 1079.15,-27.6436"/>
<polygon fill="red" stroke="red" stroke-width="0.43326" points="1080.56,-24.4244 1070.11,-22.6555 1077.18,-30.5526 1080.56,-24.4244"/>
</g>
<!-- &#45;8&#45;&gt;2 -->
<g id="edge31" class="edge"><title>&#45;8&#45;&gt;2</title>
<path fill="none" stroke="red" stroke-width="0.544857" d="M1167.56,-77.7864C1171.58,-73.9915 1176.54,-69.4862 1181.21,-65.6985 1197.19,-52.7547 1216.25,-39.3007 1230.44,-29.6369"/>
<polygon fill="red" stroke="red" stroke-width="0.544857" points="1232.65,-32.3691 1238.99,-23.8772 1228.74,-26.5647 1232.65,-32.3691"/>
</g>
<!-- &#45;8&#45;&gt;3 -->
<g id="edge32" class="edge"><title>&#45;8&#45;&gt;3</title>
<path fill="none" stroke="green" stroke-width="0.363934" d="M1161.74,-77.8746C1164.7,-68.4226 1169.76,-52.3178 1173.98,-38.8876"/>
<polygon fill="green" stroke="green" stroke-width="0.363934" points="1177.34,-39.8825 1176.99,-29.2932 1170.66,-37.7853 1177.34,-39.8825"/>
</g>
<!-- &#45;9 -->
<g id="node9" class="node"><title>&#45;9</title>
<polygon fill="lightgray" stroke="black" points="2043.21,-162.125 2019.21,-162.125 2019.21,-144.125 2043.21,-144.125 2043.21,-162.125"/>
<text text-anchor="middle" x="2031.21" y="-150.925" font-family="Times New Roman,serif" font-size="9.00">&#45;9</text>
</g>
<!-- &#45;9&#45;&gt;0 -->
<g id="edge33" class="edge"><title>&#45;9&#45;&gt;0</title>
<path fill="none" stroke="green" stroke-width="0.110101" stroke-dasharray="1,5" d="M2018.98,-146.662C2016.16,-145.627 2013.12,-144.692 2010.21,-144.125 1962.65,-134.864 300.12,-142.739 266.213,-108.125 253.018,-94.6547 253.345,-79.4815 266.213,-65.6985 314.899,-13.5499 843.531,-14.6377 965.989,-15.5983"/>
<polygon fill="green" stroke="green" stroke-width="0.110101" points="966.214,-19.1002 976.244,-15.6862 966.274,-12.1005 966.214,-19.1002"/>
</g>
<!-- &#45;9&#45;&gt;1 -->
<g id="edge34" class="edge"><title>&#45;9&#45;&gt;1</title>
<path fill="none" stroke="green" stroke-width="0.13474" d="M2018.98,-146.662C2016.16,-145.627 2013.12,-144.692 2010.21,-144.125 1963.01,-134.929 312.865,-142.484 279.213,-108.125 266.019,-94.6537 266.21,-79.3536 279.213,-65.6985 335.676,-6.40638 934.715,-44.6542 1015.21,-29.6985 1021.4,-28.5485 1027.94,-26.7142 1033.96,-24.7521"/>
<polygon fill="green" stroke="green" stroke-width="0.13474" points="1035.18,-28.034 1043.46,-21.4275 1032.87,-21.4269 1035.18,-28.034"/>
</g>
<!-- &#45;9&#45;&gt;2 -->
<g id="edge35" class="edge"><title>&#45;9&#45;&gt;2</title>
<path fill="none" stroke="green" stroke-width="0.259683" stroke-dasharray="1,5" d="M2043.33,-152.058C2103.66,-151.361 2365.71,-143.857 2291.21,-65.6985 2255.09,-27.8029 1432.41,-17.6693 1276.57,-16.0871"/>
<polygon fill="green" stroke="green" stroke-width="0.259683" points="1276.18,-12.5831 1266.14,-15.984 1276.11,-19.5828 1276.18,-12.5831"/>
</g>
<!-- &#45;9&#45;&gt;3 -->
<g id="edge36" class="edge"><title>&#45;9&#45;&gt;3</title>
<path fill="none" stroke="green" stroke-width="0.76512" d="M2030.11,-143.903C2027.24,-126.08 2017.72,-84.0166 1990.21,-65.6985 1919.57,-18.6557 1310.86,-44.04 1227.21,-29.6985 1219.81,-28.4297 1211.93,-26.3404 1204.81,-24.1647"/>
<polygon fill="green" stroke="green" stroke-width="0.76512" points="1205.68,-20.7671 1195.09,-21.0006 1203.52,-27.4235 1205.68,-20.7671"/>
</g>
<!-- 543 -->
<g id="node47" class="node"><title>543</title>
<ellipse fill="white" stroke="black" cx="2261.21" cy="-86.9117" rx="21.4286" ry="21.4286"/>
<text text-anchor="middle" x="2261.21" y="-84.7117" font-family="Times New Roman,serif" font-size="9.00">543</text>
</g>
<!-- &#45;9&#45;&gt;543 -->
<g id="edge162" class="edge"><title>&#45;9&#45;&gt;543</title>
<path fill="none" stroke="green" stroke-width="0.116024" d="M2043.46,-150.667C2074.77,-146.665 2159.95,-134.04 2226.21,-108.125 2229.13,-106.986 2232.08,-105.631 2234.99,-104.17"/>
<polygon fill="green" stroke="green" stroke-width="0.116024" points="2236.84,-107.147 2243.93,-99.2745 2233.47,-101.006 2236.84,-107.147"/>
</g>
<!-- &#45;10 -->
<g id="node10" class="node"><title>&#45;10</title>
<polygon fill="lightgray" stroke="black" points="1218.71,-95.9117 1189.71,-95.9117 1189.71,-77.9117 1218.71,-77.9117 1218.71,-95.9117"/>
<text text-anchor="middle" x="1204.21" y="-84.7117" font-family="Times New Roman,serif" font-size="9.00">&#45;10</text>
</g>
<!-- &#45;10&#45;&gt;0 -->
<g id="edge37" class="edge"><title>&#45;10&#45;&gt;0</title>
<path fill="none" stroke="red" stroke-width="0.436672" d="M1196.45,-77.7719C1192.05,-73.5961 1186.24,-68.7581 1180.21,-65.6985 1120.24,-35.2317 1097.87,-48.2448 1033.21,-29.6985 1027.16,-27.9626 1020.68,-25.9178 1014.66,-23.9401"/>
<polygon fill="red" stroke="red" stroke-width="0.436672" points="1015.72,-20.6052 1005.13,-20.7416 1013.49,-27.2414 1015.72,-20.6052"/>
</g>
<!-- &#45;10&#45;&gt;1 -->
<g id="edge38" class="edge"><title>&#45;10&#45;&gt;1</title>
<path fill="none" stroke="red" stroke-width="0.103023" d="M1195.83,-77.7163C1191.44,-73.7258 1185.81,-69.0735 1180.21,-65.6985 1147.95,-46.2517 1106.74,-31.3138 1081.16,-23.0563"/>
<polygon fill="red" stroke="red" stroke-width="0.103023" points="1082.13,-19.6929 1071.54,-20.0294 1080.03,-26.3701 1082.13,-19.6929"/>
</g>
<!-- &#45;10&#45;&gt;2 -->
<g id="edge39" class="edge"><title>&#45;10&#45;&gt;2</title>
<path fill="none" stroke="green" stroke-width="0.225576" stroke-dasharray="1,5" d="M1209.6,-77.8746C1216.41,-67.7318 1228.35,-49.9283 1237.7,-35.9895"/>
<polygon fill="green" stroke="green" stroke-width="0.225576" points="1240.73,-37.7615 1243.39,-27.5071 1234.92,-33.8618 1240.73,-37.7615"/>
</g>
<!-- &#45;10&#45;&gt;3 -->
<g id="edge40" class="edge"><title>&#45;10&#45;&gt;3</title>
<path fill="none" stroke="red" stroke-width="0.197637" d="M1201.57,-77.8746C1198.47,-68.4226 1193.19,-52.3178 1188.78,-38.8876"/>
<polygon fill="red" stroke="red" stroke-width="0.197637" points="1192.07,-37.7027 1185.63,-29.2932 1185.42,-39.886 1192.07,-37.7027"/>
</g>
<!-- &#45;11 -->
<g id="node11" class="node"><title>&#45;11</title>
<polygon fill="lightgray" stroke="black" points="317.713,-95.9117 288.713,-95.9117 288.713,-77.9117 317.713,-77.9117 317.713,-95.9117"/>
<text text-anchor="middle" x="303.213" y="-84.7117" font-family="Times New Roman,serif" font-size="9.00">&#45;11</text>
</g>
<!-- &#45;11&#45;&gt;0 -->
<g id="edge41" class="edge"><title>&#45;11&#45;&gt;0</title>
<path fill="none" stroke="green" stroke-width="0.203867" d="M310.009,-77.7826C314.19,-73.3884 319.94,-68.3351 326.213,-65.6985 444.887,-15.8164 859.187,-14.9809 965.958,-15.6217"/>
<polygon fill="green" stroke="green" stroke-width="0.203867" points="966.087,-19.1226 976.112,-15.6932 966.137,-12.1228 966.087,-19.1226"/>
</g>
<!-- &#45;11&#45;&gt;1 -->
<g id="edge42" class="edge"><title>&#45;11&#45;&gt;1</title>
<path fill="none" stroke="red" stroke-width="0.210664" d="M309.987,-77.7292C314.161,-73.3173 319.911,-68.264 326.213,-65.6985 468.218,-7.89049 864.52,-57.9553 1015.21,-29.6985 1021.4,-28.5382 1027.93,-26.7002 1033.96,-24.7378"/>
<polygon fill="red" stroke="red" stroke-width="0.210664" points="1035.17,-28.0201 1043.46,-21.4154 1032.86,-21.4125 1035.17,-28.0201"/>
</g>
<!-- &#45;11&#45;&gt;3 -->
<g id="edge43" class="edge"><title>&#45;11&#45;&gt;3</title>
<path fill="none" stroke="green" stroke-width="0.145847" d="M309.982,-77.7185C314.155,-73.303 319.905,-68.2497 326.213,-65.6985 481.929,-2.72199 913.965,-45.2354 1081.21,-29.6985 1107.1,-27.2936 1136.56,-23.0256 1156.77,-19.8612"/>
<polygon fill="green" stroke="green" stroke-width="0.145847" points="1157.36,-23.3104 1166.69,-18.2792 1156.26,-16.3977 1157.36,-23.3104"/>
</g>
<!-- &#45;12 -->
<g id="node12" class="node"><title>&#45;12</title>
<polygon fill="lightgray" stroke="black" points="1265.71,-95.9117 1236.71,-95.9117 1236.71,-77.9117 1265.71,-77.9117 1265.71,-95.9117"/>
<text text-anchor="middle" x="1251.21" y="-84.7117" font-family="Times New Roman,serif" font-size="9.00">&#45;12</text>
</g>
<!-- &#45;12&#45;&gt;0 -->
<g id="edge44" class="edge"><title>&#45;12&#45;&gt;0</title>
<path fill="none" stroke="red" stroke-width="0.110288" d="M1243.9,-77.6268C1239.73,-73.4086 1234.14,-68.5762 1228.21,-65.6985 1148.92,-27.2233 1118.59,-51.5485 1033.21,-29.6985 1027.11,-28.1376 1020.61,-26.1557 1014.59,-24.1827"/>
<polygon fill="red" stroke="red" stroke-width="0.110288" points="1015.67,-20.8511 1005.07,-20.9465 1013.41,-27.4787 1015.67,-20.8511"/>
</g>
<!-- &#45;12&#45;&gt;1 -->
<g id="edge45" class="edge"><title>&#45;12&#45;&gt;1</title>
<path fill="none" stroke="green" stroke-width="0.149999" d="M1243.78,-77.8629C1239.57,-73.7138 1233.99,-68.8722 1228.21,-65.6985 1180.03,-39.2325 1116.31,-25.4859 1081.87,-19.5555"/>
<polygon fill="green" stroke="green" stroke-width="0.149999" points="1082.2,-16.0638 1071.77,-17.8984 1081.07,-22.9714 1082.2,-16.0638"/>
</g>
<!-- &#45;12&#45;&gt;2 -->
<g id="edge46" class="edge"><title>&#45;12&#45;&gt;2</title>
<path fill="none" stroke="red" stroke-width="0.347167" d="M1251.21,-77.8746C1251.21,-68.7202 1251.21,-53.3256 1251.21,-40.1641"/>
<polygon fill="red" stroke="red" stroke-width="0.347167" points="1254.71,-39.8196 1251.21,-29.8197 1247.71,-39.8197 1254.71,-39.8196"/>
</g>
<!-- &#45;12&#45;&gt;3 -->
<g id="edge47" class="edge"><title>&#45;12&#45;&gt;3</title>
<path fill="none" stroke="green" stroke-width="0.184443" d="M1243.18,-77.8746C1232.4,-67.0781 1212.94,-47.6015 1198.69,-33.3456"/>
<polygon fill="green" stroke="green" stroke-width="0.184443" points="1200.95,-30.6514 1191.41,-26.051 1196,-35.599 1200.95,-30.6514"/>
</g>
<!-- &#45;13 -->
<g id="node13" class="node"><title>&#45;13</title>
<polygon fill="lightgray" stroke="black" points="1312.71,-95.9117 1283.71,-95.9117 1283.71,-77.9117 1312.71,-77.9117 1312.71,-95.9117"/>
<text text-anchor="middle" x="1298.21" y="-84.7117" font-family="Times New Roman,serif" font-size="9.00">&#45;13</text>
</g>
<!-- &#45;13&#45;&gt;0 -->
<g id="edge48" class="edge"><title>&#45;13&#45;&gt;0</title>
<path fill="none" stroke="green" stroke-width="0.103568" d="M1290.94,-77.544C1286.78,-73.3015 1281.19,-68.4724 1275.21,-65.6985 1176.57,-19.94 1139.01,-54.8163 1033.21,-29.6985 1027.09,-28.2442 1020.58,-26.3006 1014.56,-24.3304"/>
<polygon fill="green" stroke="green" stroke-width="0.103568" points="1015.64,-21.0007 1005.04,-21.0713 1013.37,-27.623 1015.64,-21.0007"/>
</g>
<!-- &#45;13&#45;&gt;1 -->
<g id="edge49" class="edge"><title>&#45;13&#45;&gt;1</title>
<path fill="none" stroke="green" stroke-width="0.297852" d="M1290.85,-77.7262C1286.66,-73.5371 1281.08,-68.7008 1275.21,-65.6985 1241.32,-48.3592 1131.42,-28.332 1081.86,-19.9105"/>
<polygon fill="green" stroke="green" stroke-width="0.297852" points="1082.42,-16.4556 1071.98,-18.2498 1081.26,-23.3588 1082.42,-16.4556"/>
</g>
<!-- &#45;13&#45;&gt;2 -->
<g id="edge50" class="edge"><title>&#45;13&#45;&gt;2</title>
<path fill="none" stroke="red" stroke-width="0.234048" d="M1292.82,-77.8746C1286.02,-67.7318 1274.07,-49.9283 1264.72,-35.9895"/>
<polygon fill="red" stroke="red" stroke-width="0.234048" points="1267.51,-33.8618 1259.03,-27.5071 1261.7,-37.7615 1267.51,-33.8618"/>
</g>
<!-- &#45;13&#45;&gt;3 -->
<g id="edge51" class="edge"><title>&#45;13&#45;&gt;3</title>
<path fill="none" stroke="red" stroke-width="0.407039" d="M1289.65,-77.5316C1285.49,-73.6809 1280.29,-69.2022 1275.21,-65.6985 1252.17,-49.7894 1223.46,-35.2435 1203.87,-26.024"/>
<polygon fill="red" stroke="red" stroke-width="0.407039" points="1205.08,-22.7285 1194.54,-21.7093 1202.15,-29.0824 1205.08,-22.7285"/>
</g>
<!-- &#45;14 -->
<g id="node14" class="node"><title>&#45;14</title>
<polygon fill="lightgray" stroke="black" points="1359.71,-95.9117 1330.71,-95.9117 1330.71,-77.9117 1359.71,-77.9117 1359.71,-95.9117"/>
<text text-anchor="middle" x="1345.21" y="-84.7117" font-family="Times New Roman,serif" font-size="9.00">&#45;14</text>
</g>
<!-- &#45;14&#45;&gt;0 -->
<g id="edge52" class="edge"><title>&#45;14&#45;&gt;0</title>
<path fill="none" stroke="red" stroke-width="0.120273" d="M1338.37,-77.8975C1334.17,-73.5417 1328.42,-68.4883 1322.21,-65.6985 1204.16,-12.6281 1159.5,-58.0999 1033.21,-29.6985 1027.07,-28.317 1020.55,-26.3996 1014.53,-24.4314"/>
<polygon fill="red" stroke="red" stroke-width="0.120273" points="1015.62,-21.1029 1005.02,-21.1566 1013.34,-27.7215 1015.62,-21.1029"/>
</g>
<!-- &#45;14&#45;&gt;1 -->
<g id="edge53" class="edge"><title>&#45;14&#45;&gt;1</title>
<path fill="none" stroke="red" stroke-width="0.184134" d="M1337.9,-77.6348C1333.72,-73.4189 1328.14,-68.5862 1322.21,-65.6985 1300.63,-55.1786 1143.41,-29.4996 1081.84,-19.7189"/>
<polygon fill="red" stroke="red" stroke-width="0.184134" points="1082.26,-16.2417 1071.84,-18.1358 1081.17,-23.1557 1082.26,-16.2417"/>
</g>
<!-- &#45;14&#45;&gt;2 -->
<g id="edge54" class="edge"><title>&#45;14&#45;&gt;2</title>
<path fill="none" stroke="green" stroke-width="0.360805" d="M1336.45,-77.8088C1332.24,-74.0188 1327.06,-69.5112 1322.21,-65.6985 1305.8,-52.7888 1286.34,-39.2424 1271.95,-29.5348"/>
<polygon fill="green" stroke="green" stroke-width="0.360805" points="1273.57,-26.4042 1263.31,-23.7551 1269.68,-32.2232 1273.57,-26.4042"/>
</g>
<!-- &#45;14&#45;&gt;3 -->
<g id="edge55" class="edge"><title>&#45;14&#45;&gt;3</title>
<path fill="none" stroke="red" stroke-width="0.141723" d="M1337.3,-77.5912C1333.11,-73.5687 1327.72,-68.9256 1322.21,-65.6985 1301.92,-53.795 1239.68,-33.7589 1205.07,-23.0729"/>
<polygon fill="red" stroke="red" stroke-width="0.141723" points="1205.87,-19.66 1195.29,-20.0762 1203.82,-26.3527 1205.87,-19.66"/>
</g>
<!-- &#45;15 -->
<g id="node15" class="node"><title>&#45;15</title>
<polygon fill="lightgray" stroke="black" points="1406.71,-95.9117 1377.71,-95.9117 1377.71,-77.9117 1406.71,-77.9117 1406.71,-95.9117"/>
<text text-anchor="middle" x="1392.21" y="-84.7117" font-family="Times New Roman,serif" font-size="9.00">&#45;15</text>
</g>
<!-- &#45;15&#45;&gt;0 -->
<g id="edge56" class="edge"><title>&#45;15&#45;&gt;0</title>
<path fill="none" stroke="green" stroke-width="0.331728" d="M1385.39,-77.8574C1381.19,-73.4882 1375.44,-68.4349 1369.21,-65.6985 1231.71,-5.29997 1180.02,-61.3923 1033.21,-29.6985 1027.06,-28.3699 1020.54,-26.4715 1014.52,-24.5046"/>
<polygon fill="green" stroke="green" stroke-width="0.331728" points="1015.6,-21.1769 1005.01,-21.2184 1013.32,-27.793 1015.6,-21.1769"/>
</g>
<!-- &#45;15&#45;&gt;1 -->
<g id="edge57" class="edge"><title>&#45;15&#45;&gt;1</title>
<path fill="none" stroke="green" stroke-width="0.274841" d="M1384.93,-77.5696C1380.76,-73.3346 1375.18,-68.5045 1369.21,-65.6985 1356.14,-59.5491 1153.27,-29.7582 1081.85,-19.4041"/>
<polygon fill="green" stroke="green" stroke-width="0.274841" points="1082.33,-15.9376 1071.94,-17.969 1081.33,-22.8654 1082.33,-15.9376"/>
</g>
<!-- &#45;15&#45;&gt;2 -->
<g id="edge58" class="edge"><title>&#45;15&#45;&gt;2</title>
<path fill="none" stroke="green" stroke-width="0.659336" stroke-dasharray="1,5" d="M1384.21,-77.7294C1380.01,-73.7422 1374.62,-69.0889 1369.21,-65.6985 1338.72,-46.5652 1299.61,-31.6974 1274.97,-23.3508"/>
<polygon fill="green" stroke="green" stroke-width="0.659336" points="1275.96,-19.9912 1265.37,-20.1796 1273.76,-26.6383 1275.96,-19.9912"/>
</g>
<!-- &#45;15&#45;&gt;3 -->
<g id="edge59" class="edge"><title>&#45;15&#45;&gt;3</title>
<path fill="none" stroke="red" stroke-width="0.216995" d="M1384.83,-77.781C1380.62,-73.6079 1375.05,-68.7695 1369.21,-65.6985 1311.6,-35.3652 1289.96,-47.0876 1227.21,-29.6985 1219.98,-27.693 1212.14,-25.3852 1205.02,-23.2358"/>
<polygon fill="red" stroke="red" stroke-width="0.216995" points="1205.85,-19.8276 1195.26,-20.2536 1203.8,-26.5223 1205.85,-19.8276"/>
</g>
<!-- &#45;16 -->
<g id="node16" class="node"><title>&#45;16</title>
<polygon fill="lightgray" stroke="black" points="1453.71,-95.9117 1424.71,-95.9117 1424.71,-77.9117 1453.71,-77.9117 1453.71,-95.9117"/>
<text text-anchor="middle" x="1439.21" y="-84.7117" font-family="Times New Roman,serif" font-size="9.00">&#45;16</text>
</g>
<!-- &#45;16&#45;&gt;0 -->
<g id="edge60" class="edge"><title>&#45;16&#45;&gt;0</title>
<path fill="none" stroke="green" stroke-width="0.138287" d="M1432.4,-77.8269C1428.21,-73.4476 1422.46,-68.3943 1416.21,-65.6985 1259.23,2.03835 1200.57,-64.69 1033.21,-29.6985 1027.05,-28.41 1020.53,-26.526 1014.51,-24.5602"/>
<polygon fill="green" stroke="green" stroke-width="0.138287" points="1015.59,-21.2331 1005,-21.2654 1013.3,-27.8471 1015.59,-21.2331"/>
</g>
<!-- &#45;16&#45;&gt;1 -->
<g id="edge61" class="edge"><title>&#45;16&#45;&gt;1</title>
<path fill="none" stroke="green" stroke-width="0.17009" d="M1431.95,-77.5208C1427.79,-73.2715 1422.21,-68.4433 1416.21,-65.6985 1415.97,-65.5888 1164.3,-30.6934 1082.54,-19.3594"/>
<polygon fill="green" stroke="green" stroke-width="0.17009" points="1082.56,-15.8288 1072.17,-17.9225 1081.6,-22.7625 1082.56,-15.8288"/>
</g>
<!-- &#45;16&#45;&gt;2 -->
<g id="edge62" class="edge"><title>&#45;16&#45;&gt;2</title>
<path fill="none" stroke="green" stroke-width="0.223584" d="M1431.77,-77.8853C1427.55,-73.7428 1421.98,-68.9003 1416.21,-65.6985 1370.15,-40.1028 1309.39,-26.1333 1275.94,-19.9063"/>
<polygon fill="green" stroke="green" stroke-width="0.223584" points="1276.17,-16.3912 1265.71,-18.0857 1274.94,-23.283 1276.17,-16.3912"/>
</g>
<!-- &#45;16&#45;&gt;3 -->
<g id="edge63" class="edge"><title>&#45;16&#45;&gt;3</title>
<path fill="none" stroke="red" stroke-width="0.565448" d="M1431.9,-77.6402C1427.72,-73.4259 1422.14,-68.593 1416.21,-65.6985 1339.39,-28.1499 1310.27,-50.0519 1227.21,-29.6985 1219.92,-27.9112 1212.07,-25.6682 1204.95,-23.5109"/>
<polygon fill="red" stroke="red" stroke-width="0.565448" points="1205.79,-20.1065 1195.2,-20.4749 1203.71,-26.79 1205.79,-20.1065"/>
</g>
<!-- &#45;17 -->
<g id="node17" class="node"><title>&#45;17</title>
<polygon fill="lightgray" stroke="black" points="1500.71,-95.9117 1471.71,-95.9117 1471.71,-77.9117 1500.71,-77.9117 1500.71,-95.9117"/>
<text text-anchor="middle" x="1486.21" y="-84.7117" font-family="Times New Roman,serif" font-size="9.00">&#45;17</text>
</g>
<!-- &#45;17&#45;&gt;0 -->
<g id="edge64" class="edge"><title>&#45;17&#45;&gt;0</title>
<path fill="none" stroke="red" stroke-width="0.190349" d="M1479.41,-77.803C1475.22,-73.4157 1469.47,-68.3624 1463.21,-65.6985 1286.74,9.38342 1221.13,-67.9912 1033.21,-29.6985 1027.04,-28.4414 1020.52,-26.5687 1014.5,-24.6037"/>
<polygon fill="red" stroke="red" stroke-width="0.190349" points="1015.59,-21.2771 1004.99,-21.3021 1013.29,-27.8895 1015.59,-21.2771"/>
</g>
<!-- &#45;17&#45;&gt;1 -->
<g id="edge65" class="edge"><title>&#45;17&#45;&gt;1</title>
<path fill="none" stroke="red" stroke-width="0.411132" d="M1479.37,-77.8816C1475.18,-73.5205 1469.43,-68.4672 1463.21,-65.6985 1338.12,-9.979 1293.04,-47.0922 1157.21,-29.6985 1131.42,-26.3961 1101.95,-22.2708 1081.71,-19.385"/>
<polygon fill="red" stroke="red" stroke-width="0.411132" points="1082.17,-15.9149 1071.77,-17.9612 1081.18,-22.8441 1082.17,-15.9149"/>
</g>
<!-- &#45;17&#45;&gt;2 -->
<g id="edge66" class="edge"><title>&#45;17&#45;&gt;2</title>
<path fill="none" stroke="red" stroke-width="0.13332" d="M1478.85,-77.7406C1474.65,-73.5556 1469.07,-68.7188 1463.21,-65.6985 1400.72,-33.4838 1317.16,-21.7675 1276.11,-17.7677"/>
<polygon fill="red" stroke="red" stroke-width="0.13332" points="1276.21,-14.263 1265.94,-16.8523 1275.58,-21.2348 1276.21,-14.263"/>
</g>
<!-- &#45;17&#45;&gt;3 -->
<g id="edge67" class="edge"><title>&#45;17&#45;&gt;3</title>
<path fill="none" stroke="green" stroke-width="0.419467" d="M1478.94,-77.5528C1474.77,-73.3128 1469.19,-68.4834 1463.21,-65.6985 1367.05,-20.8718 1330.71,-53.0506 1227.21,-29.6985 1219.89,-28.0459 1212.03,-25.8428 1204.91,-23.6807"/>
<polygon fill="green" stroke="green" stroke-width="0.419467" points="1205.76,-20.2784 1195.17,-20.6115 1203.66,-26.9549 1205.76,-20.2784"/>
</g>
<!-- &#45;18 -->
<g id="node18" class="node"><title>&#45;18</title>
<polygon fill="lightgray" stroke="black" points="1547.71,-95.9117 1518.71,-95.9117 1518.71,-77.9117 1547.71,-77.9117 1547.71,-95.9117"/>
<text text-anchor="middle" x="1533.21" y="-84.7117" font-family="Times New Roman,serif" font-size="9.00">&#45;18</text>
</g>
<!-- &#45;18&#45;&gt;0 -->
<g id="edge68" class="edge"><title>&#45;18&#45;&gt;0</title>
<path fill="none" stroke="green" stroke-width="0.107842" d="M1526.42,-77.7838C1522.24,-73.39 1516.49,-68.3367 1510.21,-65.6985 1412.23,-24.4826 1137.46,-50.4966 1033.21,-29.6985 1027.04,-28.4667 1020.51,-26.6031 1014.49,-24.6388"/>
<polygon fill="green" stroke="green" stroke-width="0.107842" points="1015.58,-21.3125 1004.98,-21.3318 1013.28,-27.9237 1015.58,-21.3125"/>
</g>
<!-- &#45;18&#45;&gt;1 -->
<g id="edge69" class="edge"><title>&#45;18&#45;&gt;1</title>
<path fill="none" stroke="green" stroke-width="0.746908" d="M1526.39,-77.8455C1522.2,-73.4723 1516.45,-68.419 1510.21,-65.6985 1365.66,-2.64664 1313.79,-48.5186 1157.21,-29.6985 1131.4,-26.5958 1101.93,-22.4387 1081.7,-19.491"/>
<polygon fill="green" stroke="green" stroke-width="0.746908" points="1082.17,-16.0223 1071.77,-18.032 1081.15,-22.948 1082.17,-16.0223"/>
</g>
<!-- &#45;18&#45;&gt;2 -->
<g id="edge70" class="edge"><title>&#45;18&#45;&gt;2</title>
<path fill="none" stroke="red" stroke-width="0.46555" d="M1525.9,-77.6447C1521.71,-73.4317 1516.13,-68.5987 1510.21,-65.6985 1430.86,-26.8217 1323.98,-18.2304 1276.15,-16.3566"/>
<polygon fill="red" stroke="red" stroke-width="0.46555" points="1276.2,-12.8565 1266.09,-16.0299 1275.98,-19.8528 1276.2,-12.8565"/>
</g>
<!-- &#45;18&#45;&gt;3 -->
<g id="edge71" class="edge"><title>&#45;18&#45;&gt;3</title>
<path fill="none" stroke="red" stroke-width="0.203624" d="M1526.37,-77.9035C1522.17,-73.5497 1516.42,-68.4964 1510.21,-65.6985 1394.64,-13.5627 1351.23,-56.0654 1227.21,-29.6985 1219.87,-28.137 1212,-25.9609 1204.89,-23.7956"/>
<polygon fill="red" stroke="red" stroke-width="0.203624" points="1205.74,-20.3946 1195.15,-20.7039 1203.62,-27.0663 1205.74,-20.3946"/>
</g>
<!-- &#45;19 -->
<g id="node19" class="node"><title>&#45;19</title>
<polygon fill="lightgray" stroke="black" points="1594.71,-95.9117 1565.71,-95.9117 1565.71,-77.9117 1594.71,-77.9117 1594.71,-95.9117"/>
<text text-anchor="middle" x="1580.21" y="-84.7117" font-family="Times New Roman,serif" font-size="9.00">&#45;19</text>
</g>
<!-- &#45;19&#45;&gt;0 -->
<g id="edge72" class="edge"><title>&#45;19&#45;&gt;0</title>
<path fill="none" stroke="green" stroke-width="0.191604" d="M1573.42,-77.7679C1569.24,-73.3689 1563.49,-68.3156 1557.21,-65.6985 1449.47,-20.806 1147.75,-52.1493 1033.21,-29.6985 1027.03,-28.4875 1020.51,-26.6313 1014.48,-24.6676"/>
<polygon fill="green" stroke="green" stroke-width="0.191604" points="1015.57,-21.3416 1004.98,-21.3561 1013.27,-27.9518 1015.57,-21.3416"/>
</g>
<!-- &#45;19&#45;&gt;1 -->
<g id="edge73" class="edge"><title>&#45;19&#45;&gt;1</title>
<path fill="none" stroke="green" stroke-width="0.358072" d="M1573.4,-77.8177C1569.22,-73.4352 1563.47,-68.3819 1557.21,-65.6985 1475.2,-30.502 1245.89,-39.8231 1157.21,-29.6985 1131.38,-26.7491 1101.91,-22.5676 1081.69,-19.5723"/>
<polygon fill="green" stroke="green" stroke-width="0.358072" points="1082.17,-16.1048 1071.76,-18.0863 1081.13,-23.0278 1082.17,-16.1048"/>
</g>
<!-- &#45;19&#45;&gt;2 -->
<g id="edge74" class="edge"><title>&#45;19&#45;&gt;2</title>
<path fill="none" stroke="red" stroke-width="0.327253" d="M1572.93,-77.5768C1568.76,-73.344 1563.17,-68.5136 1557.21,-65.6985 1460.68,-20.1074 1330.05,-15.2383 1276.1,-15.358"/>
<polygon fill="red" stroke="red" stroke-width="0.327253" points="1276.05,-11.8582 1266.08,-15.442 1276.11,-18.8579 1276.05,-11.8582"/>
</g>
<!-- &#45;19&#45;&gt;3 -->
<g id="edge75" class="edge"><title>&#45;19&#45;&gt;3</title>
<path fill="none" stroke="red" stroke-width="0.326488" d="M1573.38,-77.8619C1569.19,-73.4942 1563.44,-68.4409 1557.21,-65.6985 1422.19,-6.23614 1371.79,-59.089 1227.21,-29.6985 1219.85,-28.2027 1211.98,-26.0461 1204.87,-23.8785"/>
<polygon fill="red" stroke="red" stroke-width="0.326488" points="1205.73,-20.4783 1195.14,-20.7705 1203.6,-27.1466 1205.73,-20.4783"/>
</g>
<!-- &#45;20 -->
<g id="node20" class="node"><title>&#45;20</title>
<polygon fill="lightgray" stroke="black" points="2085.71,-95.9117 2056.71,-95.9117 2056.71,-77.9117 2085.71,-77.9117 2085.71,-95.9117"/>
<text text-anchor="middle" x="2071.21" y="-84.7117" font-family="Times New Roman,serif" font-size="9.00">&#45;20</text>
</g>
<!-- &#45;20&#45;&gt;1 -->
<g id="edge76" class="edge"><title>&#45;20&#45;&gt;1</title>
<path fill="none" stroke="red" stroke-width="0.107446" d="M2056.36,-83.2429C2031.14,-78.8211 1978.29,-70.0341 1933.21,-65.6985 1589.54,-32.6393 1501.01,-61.4134 1157.21,-29.6985 1131.32,-27.3102 1101.86,-23.0397 1081.66,-19.8701"/>
<polygon fill="red" stroke="red" stroke-width="0.107446" points="1082.17,-16.4067 1071.74,-18.2851 1081.06,-23.319 1082.17,-16.4067"/>
</g>
<!-- &#45;20&#45;&gt;2 -->
<g id="edge77" class="edge"><title>&#45;20&#45;&gt;2</title>
<path fill="none" stroke="green" stroke-width="0.147627" d="M2062.28,-77.7466C2056.88,-73.3405 2049.63,-68.2872 2042.21,-65.6985 1895.91,-14.6316 1394.75,-14.8366 1276.4,-15.6234"/>
<polygon fill="green" stroke="green" stroke-width="0.147627" points="1276.14,-12.1252 1266.17,-15.6997 1276.19,-19.125 1276.14,-12.1252"/>
</g>
<!-- &#45;20&#45;&gt;3 -->
<g id="edge78" class="edge"><title>&#45;20&#45;&gt;3</title>
<path fill="none" stroke="red" stroke-width="0.341933" d="M2062.29,-77.6943C2056.9,-73.2707 2049.65,-68.2174 2042.21,-65.6985 1870.5,-7.56633 1405.94,-60.0637 1227.21,-29.6985 1219.81,-28.4408 1211.93,-26.3548 1204.81,-24.1787"/>
<polygon fill="red" stroke="red" stroke-width="0.341933" points="1205.68,-20.7812 1195.09,-21.0119 1203.51,-27.437 1205.68,-20.7812"/>
</g>
<!-- &#45;21 -->
<g id="node21" class="node"><title>&#45;21</title>
<polygon fill="lightgray" stroke="black" points="1641.71,-95.9117 1612.71,-95.9117 1612.71,-77.9117 1641.71,-77.9117 1641.71,-95.9117"/>
<text text-anchor="middle" x="1627.21" y="-84.7117" font-family="Times New Roman,serif" font-size="9.00">&#45;21</text>
</g>
<!-- &#45;21&#45;&gt;0 -->
<g id="edge79" class="edge"><title>&#45;21&#45;&gt;0</title>
<path fill="none" stroke="green" stroke-width="0.147446" d="M1620.43,-77.7546C1616.25,-73.3512 1610.5,-68.2979 1604.21,-65.6985 1486.72,-17.1282 1158.05,-53.8026 1033.21,-29.6985 1027.03,-28.5049 1020.5,-26.655 1014.48,-24.6917"/>
<polygon fill="green" stroke="green" stroke-width="0.147446" points="1015.57,-21.3659 1004.98,-21.3765 1013.27,-27.9752 1015.57,-21.3659"/>
</g>
<!-- &#45;21&#45;&gt;1 -->
<g id="edge80" class="edge"><title>&#45;21&#45;&gt;1</title>
<path fill="none" stroke="red" stroke-width="0.391285" d="M1620.41,-77.7956C1616.23,-73.4058 1610.48,-68.3525 1604.21,-65.6985 1512.45,-26.8285 1256.28,-40.5384 1157.21,-29.6985 1131.37,-26.8704 1101.9,-22.6697 1081.68,-19.6367"/>
<polygon fill="red" stroke="red" stroke-width="0.391285" points="1082.17,-16.1701 1071.75,-18.1293 1081.12,-23.0908 1082.17,-16.1701"/>
</g>
<!-- &#45;21&#45;&gt;2 -->
<g id="edge81" class="edge"><title>&#45;21&#45;&gt;2</title>
<path fill="none" stroke="green" stroke-width="0.237789" d="M1619.95,-77.5263C1615.79,-73.2787 1610.2,-68.4503 1604.21,-65.6985 1545.36,-38.6592 1346.78,-22.5122 1276.29,-17.521"/>
<polygon fill="green" stroke="green" stroke-width="0.237789" points="1276.34,-14.0159 1266.12,-16.8158 1275.85,-20.9992 1276.34,-14.0159"/>
</g>
<!-- &#45;21&#45;&gt;3 -->
<g id="edge82" class="edge"><title>&#45;21&#45;&gt;3</title>
<path fill="none" stroke="red" stroke-width="0.445594" d="M1620.4,-77.8304C1616.21,-73.4522 1610.46,-68.3989 1604.21,-65.6985 1449.72,1.10111 1392.38,-62.118 1227.21,-29.6985 1219.85,-28.2522 1211.97,-26.1103 1204.86,-23.9409"/>
<polygon fill="red" stroke="red" stroke-width="0.445594" points="1205.72,-20.5414 1195.13,-20.8207 1203.58,-27.2071 1205.72,-20.5414"/>
</g>
<!-- &#45;22 -->
<g id="node22" class="node"><title>&#45;22</title>
<polygon fill="lightgray" stroke="black" points="1688.71,-95.9117 1659.71,-95.9117 1659.71,-77.9117 1688.71,-77.9117 1688.71,-95.9117"/>
<text text-anchor="middle" x="1674.21" y="-84.7117" font-family="Times New Roman,serif" font-size="9.00">&#45;22</text>
</g>
<!-- &#45;22&#45;&gt;0 -->
<g id="edge83" class="edge"><title>&#45;22&#45;&gt;0</title>
<path fill="none" stroke="red" stroke-width="0.167152" d="M1667.43,-77.7434C1663.26,-73.3362 1657.51,-68.2829 1651.21,-65.6985 1523.96,-13.4493 1168.35,-55.4564 1033.21,-29.6985 1027.03,-28.5197 1020.5,-26.6751 1014.47,-24.7122"/>
<polygon fill="red" stroke="red" stroke-width="0.167152" points="1015.57,-21.3866 1004.97,-21.3938 1013.26,-27.9952 1015.57,-21.3866"/>
</g>
<!-- &#45;22&#45;&gt;1 -->
<g id="edge84" class="edge"><title>&#45;22&#45;&gt;1</title>
<path fill="none" stroke="green" stroke-width="0.290907" d="M1667.42,-77.7777C1663.24,-73.3819 1657.49,-68.3286 1651.21,-65.6985 1549.7,-23.153 1266.67,-41.2544 1157.21,-29.6985 1131.36,-26.9689 1101.89,-22.7525 1081.68,-19.6889"/>
<polygon fill="green" stroke="green" stroke-width="0.290907" points="1082.17,-16.2231 1071.75,-18.1642 1081.1,-23.142 1082.17,-16.2231"/>
</g>
<!-- &#45;22&#45;&gt;2 -->
<g id="edge85" class="edge"><title>&#45;22&#45;&gt;2</title>
<path fill="none" stroke="green" stroke-width="0.240916" d="M1667.37,-77.8976C1663.17,-73.5418 1657.42,-68.4885 1651.21,-65.6985 1583.53,-35.2719 1353.49,-21.0472 1276.53,-17.0613"/>
<polygon fill="green" stroke="green" stroke-width="0.240916" points="1276.49,-13.5548 1266.32,-16.5467 1276.13,-20.5459 1276.49,-13.5548"/>
</g>
<!-- &#45;22&#45;&gt;3 -->
<g id="edge86" class="edge"><title>&#45;22&#45;&gt;3</title>
<path fill="none" stroke="green" stroke-width="0.248488" d="M1667.41,-77.8058C1663.22,-73.4194 1657.47,-68.3661 1651.21,-65.6985 1477.23,8.44546 1412.98,-65.1504 1227.21,-29.6985 1219.84,-28.2909 1211.96,-26.1605 1204.85,-23.9897"/>
<polygon fill="green" stroke="green" stroke-width="0.248488" points="1205.71,-20.5906 1195.12,-20.86 1203.57,-27.2543 1205.71,-20.5906"/>
</g>
<!-- &#45;23 -->
<g id="node23" class="node"><title>&#45;23</title>
<polygon fill="lightgray" stroke="black" points="1735.71,-95.9117 1706.71,-95.9117 1706.71,-77.9117 1735.71,-77.9117 1735.71,-95.9117"/>
<text text-anchor="middle" x="1721.21" y="-84.7117" font-family="Times New Roman,serif" font-size="9.00">&#45;23</text>
</g>
<!-- &#45;23&#45;&gt;0 -->
<g id="edge87" class="edge"><title>&#45;23&#45;&gt;0</title>
<path fill="none" stroke="green" stroke-width="0.391294" d="M1714.44,-77.7337C1710.26,-73.3233 1704.51,-68.27 1698.21,-65.6985 1561.19,-9.76969 1178.65,-57.1105 1033.21,-29.6985 1027.03,-28.5323 1020.49,-26.6923 1014.47,-24.7298"/>
<polygon fill="green" stroke="green" stroke-width="0.391294" points="1015.56,-21.4043 1004.97,-21.4086 1013.26,-28.0123 1015.56,-21.4043"/>
</g>
<!-- &#45;23&#45;&gt;1 -->
<g id="edge88" class="edge"><title>&#45;23&#45;&gt;1</title>
<path fill="none" stroke="green" stroke-width="0.193437" d="M1714.43,-77.7629C1710.25,-73.3621 1704.5,-68.3088 1698.21,-65.6985 1586.94,-19.4759 1277.07,-41.9707 1157.21,-29.6985 1131.35,-27.0503 1101.88,-22.8211 1081.67,-19.7322"/>
<polygon fill="green" stroke="green" stroke-width="0.193437" points="1082.17,-16.2669 1071.75,-18.193 1081.09,-23.1842 1082.17,-16.2669"/>
</g>
<!-- &#45;23&#45;&gt;2 -->
<g id="edge89" class="edge"><title>&#45;23&#45;&gt;2</title>
<path fill="none" stroke="green" stroke-width="0.312997" d="M1714.38,-77.8675C1710.19,-73.5017 1704.44,-68.4484 1698.21,-65.6985 1621.56,-31.8327 1359.23,-19.7131 1276.45,-16.6806"/>
<polygon fill="green" stroke="green" stroke-width="0.312997" points="1276.33,-13.1741 1266.21,-16.3188 1276.08,-20.1698 1276.33,-13.1741"/>
</g>
<!-- &#45;23&#45;&gt;3 -->
<g id="edge90" class="edge"><title>&#45;23&#45;&gt;3</title>
<path fill="none" stroke="red" stroke-width="0.404775" d="M1714.42,-77.786C1710.23,-73.393 1704.48,-68.3397 1698.21,-65.6985 1601.47,-24.9519 1330.41,-48.9418 1227.21,-29.6985 1219.83,-28.322 1211.95,-26.2008 1204.84,-24.0289"/>
<polygon fill="red" stroke="red" stroke-width="0.404775" points="1205.7,-20.6301 1195.11,-20.8914 1203.55,-27.2922 1205.7,-20.6301"/>
</g>
<!-- &#45;24 -->
<g id="node24" class="node"><title>&#45;24</title>
<polygon fill="lightgray" stroke="black" points="2000.71,-162.125 1971.71,-162.125 1971.71,-144.125 2000.71,-144.125 2000.71,-162.125"/>
<text text-anchor="middle" x="1986.21" y="-150.925" font-family="Times New Roman,serif" font-size="9.00">&#45;24</text>
</g>
<!-- &#45;24&#45;&gt;0 -->
<g id="edge91" class="edge"><title>&#45;24&#45;&gt;0</title>
<path fill="none" stroke="red" stroke-width="0.246472" stroke-dasharray="1,5" d="M1971.61,-152.055C1801.6,-151.205 203.583,-142.313 170.213,-108.125 157.042,-94.631 157.29,-79.4299 170.213,-65.6985 198.175,-35.9874 830.717,-19.592 965.926,-16.42"/>
<polygon fill="red" stroke="red" stroke-width="0.246472" points="966.21,-19.9145 976.126,-16.1839 966.048,-12.9164 966.21,-19.9145"/>
</g>
<!-- &#45;24&#45;&gt;1 -->
<g id="edge92" class="edge"><title>&#45;24&#45;&gt;1</title>
<path fill="none" stroke="green" stroke-width="0.245623" d="M1971.46,-152.038C1804.59,-151.023 278.12,-140.849 246.213,-108.125 126.295,14.8643 846.295,-60.8988 1015.21,-29.6985 1021.4,-28.5549 1027.94,-26.723 1033.96,-24.7611"/>
<polygon fill="green" stroke="green" stroke-width="0.245623" points="1035.18,-28.0428 1043.46,-21.4351 1032.87,-21.4359 1035.18,-28.0428"/>
</g>
<!-- &#45;24&#45;&gt;2 -->
<g id="edge93" class="edge"><title>&#45;24&#45;&gt;2</title>
<path fill="none" stroke="red" stroke-width="0.157523" d="M2000.85,-146.918C2003.92,-145.918 2007.16,-144.932 2010.21,-144.125 2090.36,-122.976 2140.56,-172.146 2193.21,-108.125 2205.19,-93.5615 2206.19,-79.3796 2193.21,-65.6985 2160.74,-31.4632 1423.09,-18.4656 1276.43,-16.2156"/>
<polygon fill="red" stroke="red" stroke-width="0.157523" points="1276.25,-12.7125 1266.2,-16.0614 1276.14,-19.7117 1276.25,-12.7125"/>
</g>
<!-- &#45;24&#45;&gt;3 -->
<g id="edge94" class="edge"><title>&#45;24&#45;&gt;3</title>
<path fill="none" stroke="green" stroke-width="0.155543" d="M1987.18,-144.102C1988.77,-126.674 1989.73,-85.3494 1966.21,-65.6985 1903.13,-12.9882 1308.23,-43.6519 1227.21,-29.6985 1219.81,-28.424 1211.93,-26.3331 1204.82,-24.1575"/>
<polygon fill="green" stroke="green" stroke-width="0.155543" points="1205.69,-20.7599 1195.09,-20.9949 1203.52,-27.4166 1205.69,-20.7599"/>
</g>
<!-- 401 -->
<g id="node46" class="node"><title>401</title>
<ellipse fill="white" stroke="black" cx="2163.21" cy="-86.9117" rx="21.4286" ry="21.4286"/>
<text text-anchor="middle" x="2163.21" y="-84.7117" font-family="Times New Roman,serif" font-size="9.00">401</text>
</g>
<!-- &#45;24&#45;&gt;401 -->
<g id="edge158" class="edge"><title>&#45;24&#45;&gt;401</title>
<path fill="none" stroke="red" stroke-width="0.173198" d="M2000.92,-147.157C2003.98,-146.14 2007.2,-145.086 2010.21,-144.125 2062.45,-127.454 2077.92,-129.977 2128.21,-108.125 2130.93,-106.945 2133.7,-105.605 2136.43,-104.19"/>
<polygon fill="red" stroke="red" stroke-width="0.173198" points="2138.39,-107.108 2145.46,-99.2119 2135.01,-100.979 2138.39,-107.108"/>
</g>
<!-- &#45;25 -->
<g id="node25" class="node"><title>&#45;25</title>
<polygon fill="lightgray" stroke="black" points="1782.71,-95.9117 1753.71,-95.9117 1753.71,-77.9117 1782.71,-77.9117 1782.71,-95.9117"/>
<text text-anchor="middle" x="1768.21" y="-84.7117" font-family="Times New Roman,serif" font-size="9.00">&#45;25</text>
</g>
<!-- &#45;25&#45;&gt;0 -->
<g id="edge95" class="edge"><title>&#45;25&#45;&gt;0</title>
<path fill="none" stroke="green" stroke-width="0.210048" d="M1761.44,-77.7253C1757.27,-73.312 1751.52,-68.2587 1745.21,-65.6985 1598.43,-6.08945 1188.95,-58.765 1033.21,-29.6985 1027.02,-28.5434 1020.49,-26.7073 1014.47,-24.7451"/>
<polygon fill="green" stroke="green" stroke-width="0.210048" points="1015.56,-21.4197 1004.97,-21.4215 1013.25,-28.0272 1015.56,-21.4197"/>
</g>
<!-- &#45;25&#45;&gt;1 -->
<g id="edge96" class="edge"><title>&#45;25&#45;&gt;1</title>
<path fill="none" stroke="red" stroke-width="0.8428" d="M1761.43,-77.7504C1757.25,-73.3455 1751.5,-68.2922 1745.21,-65.6985 1624.19,-15.7976 1287.48,-42.6874 1157.21,-29.6985 1131.34,-27.1189 1101.88,-22.8787 1081.67,-19.7685"/>
<polygon fill="red" stroke="red" stroke-width="0.8428" points="1082.17,-16.3038 1071.75,-18.2173 1081.08,-23.2198 1082.17,-16.3038"/>
</g>
<!-- &#45;25&#45;&gt;2 -->
<g id="edge97" class="edge"><title>&#45;25&#45;&gt;2</title>
<path fill="none" stroke="red" stroke-width="0.104727" d="M1761.39,-77.843C1757.2,-73.469 1751.45,-68.4157 1745.21,-65.6985 1659.57,-28.3972 1364.87,-18.5259 1276.47,-16.3752"/>
<polygon fill="red" stroke="red" stroke-width="0.104727" points="1276.37,-12.872 1266.3,-16.14 1276.21,-19.8702 1276.37,-12.872"/>
</g>
<!-- &#45;25&#45;&gt;3 -->
<g id="edge98" class="edge"><title>&#45;25&#45;&gt;3</title>
<path fill="none" stroke="green" stroke-width="0.202423" d="M1761.42,-77.7698C1757.24,-73.3714 1751.49,-68.3181 1745.21,-65.6985 1638.72,-21.2755 1340.72,-50.4601 1227.21,-29.6985 1219.83,-28.3474 1211.95,-26.2338 1204.83,-24.061"/>
<polygon fill="green" stroke="green" stroke-width="0.202423" points="1205.7,-20.6625 1195.11,-20.9173 1203.55,-27.3232 1205.7,-20.6625"/>
</g>
<!-- &#45;26 -->
<g id="node26" class="node"><title>&#45;26</title>
<polygon fill="lightgray" stroke="black" points="1829.71,-95.9117 1800.71,-95.9117 1800.71,-77.9117 1829.71,-77.9117 1829.71,-95.9117"/>
<text text-anchor="middle" x="1815.21" y="-84.7117" font-family="Times New Roman,serif" font-size="9.00">&#45;26</text>
</g>
<!-- &#45;26&#45;&gt;0 -->
<g id="edge99" class="edge"><title>&#45;26&#45;&gt;0</title>
<path fill="none" stroke="green" stroke-width="0.421907" d="M1808.44,-77.7179C1804.27,-73.3022 1798.52,-68.2489 1792.21,-65.6985 1635.67,-2.40872 1199.25,-60.4197 1033.21,-29.6985 1027.02,-28.553 1020.49,-26.7205 1014.47,-24.7585"/>
<polygon fill="green" stroke="green" stroke-width="0.421907" points="1015.56,-21.4333 1004.97,-21.4329 1013.25,-28.0402 1015.56,-21.4333"/>
</g>
<!-- &#45;26&#45;&gt;1 -->
<g id="edge100" class="edge"><title>&#45;26&#45;&gt;1</title>
<path fill="none" stroke="red" stroke-width="0.104602" d="M1808.44,-77.7397C1804.26,-73.3313 1798.51,-68.278 1792.21,-65.6985 1661.43,-12.1185 1297.88,-43.4043 1157.21,-29.6985 1131.34,-27.1773 1101.87,-22.9278 1081.67,-19.7995"/>
<polygon fill="red" stroke="red" stroke-width="0.104602" points="1082.17,-16.3352 1071.74,-18.238 1081.08,-23.2501 1082.17,-16.3352"/>
</g>
<!-- &#45;26&#45;&gt;2 -->
<g id="edge101" class="edge"><title>&#45;26&#45;&gt;2</title>
<path fill="none" stroke="red" stroke-width="0.311776" d="M1808.4,-77.8226C1804.21,-73.4419 1798.46,-68.3886 1792.21,-65.6985 1697.51,-24.9388 1370.03,-17.441 1276.4,-16.1203"/>
<polygon fill="red" stroke="red" stroke-width="0.311776" points="1276.22,-12.6177 1266.17,-15.988 1276.13,-19.6171 1276.22,-12.6177"/>
</g>
<!-- &#45;26&#45;&gt;3 -->
<g id="edge102" class="edge"><title>&#45;26&#45;&gt;3</title>
<path fill="none" stroke="green" stroke-width="0.123774" d="M1808.43,-77.7562C1804.25,-73.3533 1798.5,-68.3 1792.21,-65.6985 1675.96,-17.5977 1351.03,-51.9789 1227.21,-29.6985 1219.82,-28.3687 1211.94,-26.2614 1204.83,-24.0878"/>
<polygon fill="green" stroke="green" stroke-width="0.123774" points="1205.69,-20.6896 1195.1,-20.9388 1203.54,-27.3492 1205.69,-20.6896"/>
</g>
<!-- &#45;27 -->
<g id="node27" class="node"><title>&#45;27</title>
<polygon fill="lightgray" stroke="black" points="1876.71,-95.9117 1847.71,-95.9117 1847.71,-77.9117 1876.71,-77.9117 1876.71,-95.9117"/>
<text text-anchor="middle" x="1862.21" y="-84.7117" font-family="Times New Roman,serif" font-size="9.00">&#45;27</text>
</g>
<!-- &#45;27&#45;&gt;0 -->
<g id="edge103" class="edge"><title>&#45;27&#45;&gt;0</title>
<path fill="none" stroke="green" stroke-width="0.256711" d="M1855.45,-77.7113C1851.28,-73.2935 1845.53,-68.2402 1839.21,-65.6985 1672.9,1.27243 1209.56,-62.0746 1033.21,-29.6985 1027.02,-28.5616 1020.49,-26.7321 1014.46,-24.7703"/>
<polygon fill="green" stroke="green" stroke-width="0.256711" points="1015.56,-21.4452 1004.96,-21.4429 1013.24,-28.0517 1015.56,-21.4452"/>
</g>
<!-- &#45;27&#45;&gt;1 -->
<g id="edge104" class="edge"><title>&#45;27&#45;&gt;1</title>
<path fill="none" stroke="red" stroke-width="1.22536" d="M1855.44,-77.7305C1851.26,-73.319 1845.51,-68.2657 1839.21,-65.6985 1698.66,-8.4386 1308.29,-44.1214 1157.21,-29.6985 1131.33,-27.2277 1101.87,-22.9702 1081.66,-19.8263"/>
<polygon fill="red" stroke="red" stroke-width="1.22536" points="1082.17,-16.3623 1071.74,-18.2559 1081.07,-23.2762 1082.17,-16.3623"/>
</g>
<!-- &#45;27&#45;&gt;2 -->
<g id="edge105" class="edge"><title>&#45;27&#45;&gt;2</title>
<path fill="none" stroke="red" stroke-width="0.449876" d="M1855.41,-77.8055C1851.22,-73.419 1845.47,-68.3657 1839.21,-65.6985 1735.41,-21.4717 1374.95,-16.4475 1276.32,-15.9067"/>
<polygon fill="red" stroke="red" stroke-width="0.449876" points="1276.13,-12.4059 1266.12,-15.8622 1276.1,-19.4059 1276.13,-12.4059"/>
</g>
<!-- &#45;27&#45;&gt;3 -->
<g id="edge106" class="edge"><title>&#45;27&#45;&gt;3</title>
<path fill="none" stroke="green" stroke-width="0.179746" d="M1855.43,-77.7447C1851.26,-73.338 1845.51,-68.2847 1839.21,-65.6985 1713.2,-13.919 1361.35,-53.4982 1227.21,-29.6985 1219.82,-28.3867 1211.94,-26.2847 1204.82,-24.1105"/>
<polygon fill="green" stroke="green" stroke-width="0.179746" points="1205.69,-20.7125 1195.1,-20.9571 1203.53,-27.3711 1205.69,-20.7125"/>
</g>
<!-- &#45;28 -->
<g id="node28" class="node"><title>&#45;28</title>
<polygon fill="lightgray" stroke="black" points="160.713,-162.125 131.713,-162.125 131.713,-144.125 160.713,-144.125 160.713,-162.125"/>
<text text-anchor="middle" x="146.213" y="-150.925" font-family="Times New Roman,serif" font-size="9.00">&#45;28</text>
</g>
<!-- &#45;28&#45;&gt;0 -->
<g id="edge107" class="edge"><title>&#45;28&#45;&gt;0</title>
<path fill="none" stroke="green" stroke-width="0.112369" d="M131.676,-144.604C119.137,-137.213 101.876,-124.646 94.2132,-108.125 86.2795,-91.019 81.2551,-79.3967 94.2132,-65.6985 124.999,-33.1547 823.168,-18.8715 965.875,-16.2868"/>
<polygon fill="green" stroke="green" stroke-width="0.112369" points="966.287,-19.7801 976.223,-16.1024 966.162,-12.7812 966.287,-19.7801"/>
</g>
<!-- &#45;28&#45;&gt;1 -->
<g id="edge108" class="edge"><title>&#45;28&#45;&gt;1</title>
<path fill="none" stroke="green" stroke-width="0.346926" d="M149.154,-144.053C156.165,-126.146 175.741,-83.2926 208.213,-65.6985 287.13,-22.9398 926.932,-45.9041 1015.21,-29.6985 1021.41,-28.5618 1027.94,-26.7323 1033.96,-24.7705"/>
<polygon fill="green" stroke="green" stroke-width="0.346926" points="1035.18,-28.052 1043.46,-21.4431 1032.87,-21.4454 1035.18,-28.052"/>
</g>
<!-- &#45;28&#45;&gt;2 -->
<g id="edge109" class="edge"><title>&#45;28&#45;&gt;2</title>
<path fill="none" stroke="green" stroke-width="0.280858" d="M160.774,-152.079C337.256,-151.496 2059.3,-144.861 2095.21,-108.125 2108.4,-94.6419 2108.15,-79.4193 2095.21,-65.6985 2066.38,-35.1168 1413.43,-19.3524 1276.33,-16.3732"/>
<polygon fill="green" stroke="green" stroke-width="0.280858" points="1276.09,-12.8673 1266.01,-16.1522 1275.94,-19.8657 1276.09,-12.8673"/>
</g>
<!-- &#45;28&#45;&gt;3 -->
<g id="edge110" class="edge"><title>&#45;28&#45;&gt;3</title>
<path fill="none" stroke="red" stroke-width="0.389206" d="M160.841,-152.049C329.496,-151.138 1900.4,-141.756 1933.21,-108.125 1946.38,-94.6285 1946.2,-79.3671 1933.21,-65.6985 1879.11,-8.76117 1304.6,-43.1182 1227.21,-29.6985 1219.81,-28.4156 1211.93,-26.3222 1204.82,-24.1469"/>
<polygon fill="red" stroke="red" stroke-width="0.389206" points="1205.69,-20.7492 1195.09,-20.9864 1203.52,-27.4063 1205.69,-20.7492"/>
</g>
<!-- 515 -->
<g id="node45" class="node"><title>515</title>
<ellipse fill="white" stroke="black" cx="21.2132" cy="-86.9117" rx="21.4286" ry="21.4286"/>
<text text-anchor="middle" x="21.2132" y="-84.7117" font-family="Times New Roman,serif" font-size="9.00">515</text>
</g>
<!-- &#45;28&#45;&gt;515 -->
<g id="edge160" class="edge"><title>&#45;28&#45;&gt;515</title>
<path fill="none" stroke="green" stroke-width="0.3" d="M131.403,-145.269C113.436,-136.863 82.3119,-122.02 56.2132,-108.125 53.5131,-106.687 50.7176,-105.153 47.9376,-103.597"/>
<polygon fill="green" stroke="green" stroke-width="0.3" points="49.6666,-100.554 39.2455,-98.6431 46.2003,-106.636 49.6666,-100.554"/>
</g>
<!-- &#45;29 -->
<g id="node29" class="node"><title>&#45;29</title>
<polygon fill="lightgray" stroke="black" points="364.713,-95.9117 335.713,-95.9117 335.713,-77.9117 364.713,-77.9117 364.713,-95.9117"/>
<text text-anchor="middle" x="350.213" y="-84.7117" font-family="Times New Roman,serif" font-size="9.00">&#45;29</text>
</g>
<!-- &#45;29&#45;&gt;0 -->
<g id="edge111" class="edge"><title>&#45;29&#45;&gt;0</title>
<path fill="none" stroke="red" stroke-width="0.105196" d="M357.014,-77.7959C361.198,-73.4062 366.948,-68.3529 373.213,-65.6985 482.835,-19.2552 864.443,-15.8543 966.145,-15.7877"/>
<polygon fill="red" stroke="red" stroke-width="0.105196" points="966.372,-19.2877 976.374,-15.7922 966.375,-12.2877 966.372,-19.2877"/>
</g>
<!-- &#45;29&#45;&gt;1 -->
<g id="edge112" class="edge"><title>&#45;29&#45;&gt;1</title>
<path fill="none" stroke="green" stroke-width="0.176058" d="M356.99,-77.7383C361.166,-73.3293 366.916,-68.276 373.213,-65.6985 505.455,-11.5704 874.821,-56.301 1015.21,-29.6985 1021.4,-28.5264 1027.93,-26.6842 1033.95,-24.7215"/>
<polygon fill="green" stroke="green" stroke-width="0.176058" points="1035.17,-28.0042 1043.46,-21.4016 1032.86,-21.396 1035.17,-28.0042"/>
</g>
<!-- &#45;29&#45;&gt;2 -->
<g id="edge113" class="edge"><title>&#45;29&#45;&gt;2</title>
<path fill="none" stroke="green" stroke-width="0.325595" stroke-dasharray="1,5" d="M356.978,-77.708C361.15,-73.2891 366.9,-68.2358 373.213,-65.6985 544.928,3.30896 1022.75,-60.6137 1205.21,-29.6985 1212.62,-28.4441 1220.5,-26.3591 1227.61,-24.1829"/>
<polygon fill="green" stroke="green" stroke-width="0.325595" points="1228.91,-27.4411 1237.34,-21.0153 1226.74,-20.7854 1228.91,-27.4411"/>
</g>
<!-- &#45;29&#45;&gt;3 -->
<g id="edge114" class="edge"><title>&#45;29&#45;&gt;3</title>
<path fill="none" stroke="red" stroke-width="0.177127" d="M356.985,-77.7259C361.159,-73.3129 366.909,-68.2596 373.213,-65.6985 519.165,-6.40268 924.375,-44.5181 1081.21,-29.6985 1107.1,-27.2527 1136.56,-22.9913 1156.76,-19.8395"/>
<polygon fill="red" stroke="red" stroke-width="0.177127" points="1157.36,-23.2892 1166.69,-18.2647 1156.26,-16.3757 1157.36,-23.2892"/>
</g>
<!-- &#45;30 -->
<g id="node30" class="node"><title>&#45;30</title>
<polygon fill="lightgray" stroke="black" points="411.713,-95.9117 382.713,-95.9117 382.713,-77.9117 411.713,-77.9117 411.713,-95.9117"/>
<text text-anchor="middle" x="397.213" y="-84.7117" font-family="Times New Roman,serif" font-size="9.00">&#45;30</text>
</g>
<!-- &#45;30&#45;&gt;0 -->
<g id="edge115" class="edge"><title>&#45;30&#45;&gt;0</title>
<path fill="none" stroke="green" stroke-width="0.361248" d="M404.021,-77.8114C408.207,-73.4268 413.957,-68.3735 420.213,-65.6985 520.759,-22.709 869.519,-16.7925 966.195,-15.9788"/>
<polygon fill="green" stroke="green" stroke-width="0.361248" points="966.246,-19.4786 976.221,-15.9057 966.195,-12.4788 966.246,-19.4786"/>
</g>
<!-- &#45;30&#45;&gt;1 -->
<g id="edge116" class="edge"><title>&#45;30&#45;&gt;1</title>
<path fill="none" stroke="red" stroke-width="0.214682" d="M403.994,-77.7487C408.172,-73.3432 413.922,-68.2899 420.213,-65.6985 542.694,-15.2497 885.12,-54.647 1015.21,-29.6985 1021.4,-28.5127 1027.93,-26.6656 1033.95,-24.7026"/>
<polygon fill="red" stroke="red" stroke-width="0.214682" points="1035.16,-27.9858 1043.45,-21.3856 1032.86,-21.3769 1035.16,-27.9858"/>
</g>
<!-- &#45;30&#45;&gt;2 -->
<g id="edge117" class="edge"><title>&#45;30&#45;&gt;2</title>
<path fill="none" stroke="green" stroke-width="0.292694" d="M403.98,-77.7142C408.153,-73.2972 413.903,-68.2439 420.213,-65.6985 582.162,-0.372383 1033.08,-59.0932 1205.21,-29.6985 1212.61,-28.4345 1220.5,-26.3467 1227.61,-24.1708"/>
<polygon fill="green" stroke="green" stroke-width="0.292694" points="1228.91,-27.4294 1237.34,-21.0056 1226.74,-20.7733 1228.91,-27.4294"/>
</g>
<!-- &#45;30&#45;&gt;3 -->
<g id="edge118" class="edge"><title>&#45;30&#45;&gt;3</title>
<path fill="none" stroke="red" stroke-width="0.12367" d="M403.989,-77.7345C408.164,-73.3243 413.914,-68.271 420.213,-65.6985 556.401,-10.0829 934.784,-43.801 1081.21,-29.6985 1107.09,-27.206 1136.56,-22.952 1156.76,-19.8148"/>
<polygon fill="red" stroke="red" stroke-width="0.12367" points="1157.35,-23.265 1166.68,-18.2482 1156.26,-16.3507 1157.35,-23.265"/>
</g>
<!-- &#45;31 -->
<g id="node31" class="node"><title>&#45;31</title>
<polygon fill="lightgray" stroke="black" points="458.713,-95.9117 429.713,-95.9117 429.713,-77.9117 458.713,-77.9117 458.713,-95.9117"/>
<text text-anchor="middle" x="444.213" y="-84.7117" font-family="Times New Roman,serif" font-size="9.00">&#45;31</text>
</g>
<!-- &#45;31&#45;&gt;0 -->
<g id="edge119" class="edge"><title>&#45;31&#45;&gt;0</title>
<path fill="none" stroke="red" stroke-width="0.252595" d="M451.029,-77.8296C455.217,-73.4511 460.967,-68.3978 467.213,-65.6985 558.703,-26.1599 874.726,-17.8088 966.215,-16.2034"/>
<polygon fill="red" stroke="red" stroke-width="0.252595" points="966.288,-19.7027 976.229,-16.0394 966.173,-12.7037 966.288,-19.7027"/>
</g>
<!-- &#45;31&#45;&gt;1 -->
<g id="edge120" class="edge"><title>&#45;31&#45;&gt;1</title>
<path fill="none" stroke="red" stroke-width="0.417465" d="M451,-77.7609C455.178,-73.3595 460.928,-68.3062 467.213,-65.6985 579.936,-18.9281 895.417,-52.9934 1015.21,-29.6985 1021.39,-28.4967 1027.92,-26.6439 1033.95,-24.6804"/>
<polygon fill="red" stroke="red" stroke-width="0.417465" points="1035.16,-27.9642 1043.45,-21.3669 1032.85,-21.3545 1035.16,-27.9642"/>
</g>
<!-- &#45;31&#45;&gt;2 -->
<g id="edge121" class="edge"><title>&#45;31&#45;&gt;2</title>
<path fill="none" stroke="red" stroke-width="0.253699" d="M450.983,-77.7211C455.157,-73.3064 460.907,-68.2531 467.213,-65.6985 619.397,-4.05335 1043.4,-57.5729 1205.21,-29.6985 1212.61,-28.4238 1220.5,-26.3327 1227.61,-24.1572"/>
<polygon fill="red" stroke="red" stroke-width="0.253699" points="1228.91,-27.4163 1237.33,-20.9947 1226.74,-20.7596 1228.91,-27.4163"/>
</g>
<!-- &#45;31&#45;&gt;3 -->
<g id="edge122" class="edge"><title>&#45;31&#45;&gt;3</title>
<path fill="none" stroke="red" stroke-width="0.181911" d="M450.993,-77.7443C455.169,-73.3374 460.919,-68.2841 467.213,-65.6985 593.64,-13.7624 945.191,-43.0839 1081.21,-29.6985 1107.09,-27.1523 1136.55,-22.9068 1156.76,-19.7863"/>
<polygon fill="red" stroke="red" stroke-width="0.181911" points="1157.35,-23.2371 1166.68,-18.2292 1156.26,-16.3217 1157.35,-23.2371"/>
</g>
<!-- &#45;32 -->
<g id="node32" class="node"><title>&#45;32</title>
<polygon fill="lightgray" stroke="black" points="505.713,-95.9117 476.713,-95.9117 476.713,-77.9117 505.713,-77.9117 505.713,-95.9117"/>
<text text-anchor="middle" x="491.213" y="-84.7117" font-family="Times New Roman,serif" font-size="9.00">&#45;32</text>
</g>
<!-- &#45;32&#45;&gt;0 -->
<g id="edge123" class="edge"><title>&#45;32&#45;&gt;0</title>
<path fill="none" stroke="green" stroke-width="0.181836" d="M498.038,-77.8513C502.23,-73.4801 507.98,-68.4268 514.213,-65.6985 596.604,-29.6373 879.62,-18.9396 965.986,-16.4781"/>
<polygon fill="green" stroke="green" stroke-width="0.181836" points="966.276,-19.9716 976.177,-16.2005 966.085,-12.9742 966.276,-19.9716"/>
</g>
<!-- &#45;32&#45;&gt;1 -->
<g id="edge124" class="edge"><title>&#45;32&#45;&gt;1</title>
<path fill="none" stroke="red" stroke-width="0.204469" d="M498.006,-77.7753C502.186,-73.3787 507.936,-68.3254 514.213,-65.6985 617.18,-22.6054 905.711,-51.3404 1015.21,-29.6985 1021.39,-28.4778 1027.92,-26.6182 1033.94,-24.6542"/>
<polygon fill="red" stroke="red" stroke-width="0.204469" points="1035.15,-27.9387 1043.44,-21.3448 1032.85,-21.328 1035.15,-27.9387"/>
</g>
<!-- &#45;32&#45;&gt;2 -->
<g id="edge125" class="edge"><title>&#45;32&#45;&gt;2</title>
<path fill="none" stroke="green" stroke-width="0.272991" d="M497.986,-77.7289C502.161,-73.3169 507.911,-68.2636 514.213,-65.6985 656.633,-7.73388 1053.72,-56.0528 1205.21,-29.6985 1212.61,-28.4115 1220.49,-26.3169 1227.61,-24.1418"/>
<polygon fill="green" stroke="green" stroke-width="0.272991" points="1228.9,-27.4014 1237.33,-20.9822 1226.74,-20.744 1228.9,-27.4014"/>
</g>
<!-- &#45;32&#45;&gt;3 -->
<g id="edge126" class="edge"><title>&#45;32&#45;&gt;3</title>
<path fill="none" stroke="green" stroke-width="0.203849" d="M497.997,-77.7557C502.175,-73.3526 507.925,-68.2993 514.213,-65.6985 630.88,-17.4412 955.597,-42.3671 1081.21,-29.6985 1107.08,-27.0896 1136.55,-22.8541 1156.76,-19.753"/>
<polygon fill="green" stroke="green" stroke-width="0.203849" points="1157.34,-23.2046 1166.68,-18.207 1156.26,-16.2881 1157.34,-23.2046"/>
</g>
<!-- &#45;33 -->
<g id="node33" class="node"><title>&#45;33</title>
<polygon fill="lightgray" stroke="black" points="552.713,-95.9117 523.713,-95.9117 523.713,-77.9117 552.713,-77.9117 552.713,-95.9117"/>
<text text-anchor="middle" x="538.213" y="-84.7117" font-family="Times New Roman,serif" font-size="9.00">&#45;33</text>
</g>
<!-- &#45;33&#45;&gt;0 -->
<g id="edge127" class="edge"><title>&#45;33&#45;&gt;0</title>
<path fill="none" stroke="red" stroke-width="0.469006" d="M545.05,-77.8776C549.245,-73.5152 554.995,-68.4619 561.213,-65.6985 634.675,-33.0504 885.659,-20.156 966.152,-16.8001"/>
<polygon fill="red" stroke="red" stroke-width="0.469006" points="966.491,-20.2894 976.342,-16.3888 966.209,-13.2951 966.491,-20.2894"/>
</g>
<!-- &#45;33&#45;&gt;1 -->
<g id="edge128" class="edge"><title>&#45;33&#45;&gt;1</title>
<path fill="none" stroke="red" stroke-width="0.112153" d="M545.013,-77.7927C549.196,-73.4019 554.946,-68.3486 561.213,-65.6985 747.641,13.136 816.79,-69.6779 1015.21,-29.6985 1021.39,-28.455 1027.91,-26.5871 1033.93,-24.6225"/>
<polygon fill="red" stroke="red" stroke-width="0.112153" points="1035.14,-27.9079 1043.44,-21.318 1032.84,-21.296 1035.14,-27.9079"/>
</g>
<!-- &#45;33&#45;&gt;2 -->
<g id="edge129" class="edge"><title>&#45;33&#45;&gt;2</title>
<path fill="none" stroke="green" stroke-width="0.313441" d="M544.99,-77.7378C549.166,-73.3288 554.916,-68.2755 561.213,-65.6985 693.871,-11.4139 1064.05,-54.5329 1205.21,-29.6985 1212.61,-28.3975 1220.49,-26.2987 1227.6,-24.1241"/>
<polygon fill="green" stroke="green" stroke-width="0.313441" points="1228.9,-27.3843 1237.33,-20.968 1226.74,-20.7262 1228.9,-27.3843"/>
</g>
<!-- &#45;33&#45;&gt;3 -->
<g id="edge130" class="edge"><title>&#45;33&#45;&gt;3</title>
<path fill="none" stroke="red" stroke-width="0.509413" d="M545.003,-77.7692C549.183,-73.3705 554.933,-68.3172 561.213,-65.6985 668.123,-21.119 965.999,-41.6506 1081.21,-29.6985 1107.07,-27.0158 1136.54,-22.792 1156.75,-19.7138"/>
<polygon fill="red" stroke="red" stroke-width="0.509413" points="1157.33,-23.1663 1166.68,-18.1808 1156.26,-16.2483 1157.33,-23.1663"/>
</g>
<!-- &#45;34 -->
<g id="node34" class="node"><title>&#45;34</title>
<polygon fill="lightgray" stroke="black" points="599.713,-95.9117 570.713,-95.9117 570.713,-77.9117 599.713,-77.9117 599.713,-95.9117"/>
<text text-anchor="middle" x="585.213" y="-84.7117" font-family="Times New Roman,serif" font-size="9.00">&#45;34</text>
</g>
<!-- &#45;34&#45;&gt;0 -->
<g id="edge131" class="edge"><title>&#45;34&#45;&gt;0</title>
<path fill="none" stroke="red" stroke-width="0.27149" d="M592.064,-77.9103C596.265,-73.5587 602.015,-68.5054 608.213,-65.6985 672.704,-36.4943 891.386,-21.5521 966.014,-17.2136"/>
<polygon fill="red" stroke="red" stroke-width="0.27149" points="966.542,-20.6894 976.328,-16.6288 966.146,-13.7006 966.542,-20.6894"/>
</g>
<!-- &#45;34&#45;&gt;1 -->
<g id="edge132" class="edge"><title>&#45;34&#45;&gt;1</title>
<path fill="none" stroke="red" stroke-width="0.467054" d="M592.022,-77.8141C596.208,-73.4304 601.958,-68.3771 608.213,-65.6985 775.146,5.78833 837.36,-66.3754 1015.21,-29.6985 1021.38,-28.4269 1027.9,-26.549 1033.93,-24.5837"/>
<polygon fill="red" stroke="red" stroke-width="0.467054" points="1035.13,-27.87 1043.43,-21.2852 1032.84,-21.2568 1035.13,-27.87"/>
</g>
<!-- &#45;34&#45;&gt;2 -->
<g id="edge133" class="edge"><title>&#45;34&#45;&gt;2</title>
<path fill="none" stroke="red" stroke-width="0.194995" d="M591.994,-77.7482C596.171,-73.3426 601.921,-68.2893 608.213,-65.6985 731.11,-15.0932 1074.37,-53.0133 1205.21,-29.6985 1212.61,-28.3813 1220.49,-26.2777 1227.6,-24.1037"/>
<polygon fill="red" stroke="red" stroke-width="0.194995" points="1228.89,-27.3645 1237.33,-20.9516 1226.73,-20.7056 1228.89,-27.3645"/>
</g>
<!-- &#45;34&#45;&gt;3 -->
<g id="edge134" class="edge"><title>&#45;34&#45;&gt;3</title>
<path fill="none" stroke="red" stroke-width="0.258089" d="M592.01,-77.7853C596.192,-73.392 601.942,-68.3387 608.213,-65.6985 705.369,-24.7955 976.399,-40.9344 1081.21,-29.6985 1107.06,-26.9273 1136.53,-22.7176 1156.75,-19.6669"/>
<polygon fill="red" stroke="red" stroke-width="0.258089" points="1157.32,-23.1204 1166.67,-18.1494 1156.26,-16.2007 1157.32,-23.1204"/>
</g>
<!-- &#45;35 -->
<g id="node35" class="node"><title>&#45;35</title>
<polygon fill="lightgray" stroke="black" points="646.713,-95.9117 617.713,-95.9117 617.713,-77.9117 646.713,-77.9117 646.713,-95.9117"/>
<text text-anchor="middle" x="632.213" y="-84.7117" font-family="Times New Roman,serif" font-size="9.00">&#45;35</text>
</g>
<!-- &#45;35&#45;&gt;0 -->
<g id="edge135" class="edge"><title>&#45;35&#45;&gt;0</title>
<path fill="none" stroke="green" stroke-width="0.32024" d="M639.482,-77.543C643.65,-73.3002 649.233,-68.4712 655.213,-65.6985 710.834,-39.9101 897.756,-23.1282 966,-17.7346"/>
<polygon fill="green" stroke="green" stroke-width="0.32024" points="966.551,-21.2024 976.251,-16.9401 966.01,-14.2234 966.551,-21.2024"/>
</g>
<!-- &#45;35&#45;&gt;1 -->
<g id="edge136" class="edge"><title>&#45;35&#45;&gt;1</title>
<path fill="none" stroke="green" stroke-width="0.229718" d="M639.034,-77.8409C643.224,-73.4662 648.974,-68.4129 655.213,-65.6985 802.663,-1.55376 857.917,-63.0757 1015.21,-29.6985 1021.37,-28.3916 1027.89,-26.5011 1033.92,-24.5348"/>
<polygon fill="green" stroke="green" stroke-width="0.229718" points="1035.12,-27.8223 1043.42,-21.2439 1032.83,-21.2074 1035.12,-27.8223"/>
</g>
<!-- &#45;35&#45;&gt;2 -->
<g id="edge137" class="edge"><title>&#45;35&#45;&gt;2</title>
<path fill="none" stroke="green" stroke-width="0.28436" stroke-dasharray="1,5" d="M638.999,-77.7603C643.178,-73.3587 648.928,-68.3054 655.213,-65.6985 768.351,-18.7716 1084.68,-51.4941 1205.21,-29.6985 1212.6,-28.3623 1220.48,-26.2531 1227.6,-24.0798"/>
<polygon fill="green" stroke="green" stroke-width="0.28436" points="1228.89,-27.3414 1237.32,-20.9324 1226.73,-20.6814 1228.89,-27.3414"/>
</g>
<!-- &#45;35&#45;&gt;3 -->
<g id="edge138" class="edge"><title>&#45;35&#45;&gt;3</title>
<path fill="none" stroke="green" stroke-width="0.266473" d="M639.018,-77.8049C643.203,-73.4182 648.953,-68.3649 655.213,-65.6985 742.619,-28.4702 986.793,-40.2187 1081.21,-29.6985 1107.05,-26.8195 1136.52,-22.6269 1156.74,-19.6097"/>
<polygon fill="green" stroke="green" stroke-width="0.266473" points="1157.3,-23.0643 1166.67,-18.1112 1156.26,-16.1427 1157.3,-23.0643"/>
</g>
<!-- &#45;36 -->
<g id="node36" class="node"><title>&#45;36</title>
<polygon fill="lightgray" stroke="black" points="693.713,-95.9117 664.713,-95.9117 664.713,-77.9117 693.713,-77.9117 693.713,-95.9117"/>
<text text-anchor="middle" x="679.213" y="-84.7117" font-family="Times New Roman,serif" font-size="9.00">&#45;36</text>
</g>
<!-- &#45;36&#45;&gt;0 -->
<g id="edge139" class="edge"><title>&#45;36&#45;&gt;0</title>
<path fill="none" stroke="green" stroke-width="0.335141" stroke-dasharray="1,5" d="M686.509,-77.599C690.684,-73.3726 696.266,-68.5413 702.213,-65.6985 792.299,-22.6365 913.96,-16.2967 965.954,-15.6871"/>
<polygon fill="green" stroke="green" stroke-width="0.335141" points="966.253,-19.1857 976.234,-15.6333 966.216,-12.1858 966.253,-19.1857"/>
</g>
<!-- &#45;36&#45;&gt;1 -->
<g id="edge140" class="edge"><title>&#45;36&#45;&gt;1</title>
<path fill="none" stroke="red" stroke-width="0.122023" d="M686.049,-77.8755C690.244,-73.5124 695.994,-68.4591 702.213,-65.6985 830.199,-8.88766 878.454,-59.7803 1015.21,-29.6985 1021.36,-28.346 1027.88,-26.439 1033.9,-24.4715"/>
<polygon fill="red" stroke="red" stroke-width="0.122023" points="1035.1,-27.7606 1043.41,-21.1904 1032.82,-21.1434 1035.1,-27.7606"/>
</g>
<!-- &#45;36&#45;&gt;2 -->
<g id="edge141" class="edge"><title>&#45;36&#45;&gt;2</title>
<path fill="none" stroke="red" stroke-width="0.109887" d="M686.005,-77.7746C690.186,-73.3779 695.936,-68.3246 702.213,-65.6985 805.595,-22.449 1095,-49.9755 1205.21,-29.6985 1212.6,-28.3398 1220.48,-26.2239 1227.59,-24.0514"/>
<polygon fill="red" stroke="red" stroke-width="0.109887" points="1228.88,-27.314 1237.32,-20.9096 1226.73,-20.6528 1228.88,-27.314"/>
</g>
<!-- &#45;36&#45;&gt;3 -->
<g id="edge142" class="edge"><title>&#45;36&#45;&gt;3</title>
<path fill="none" stroke="green" stroke-width="0.29472" d="M686.028,-77.8292C690.217,-73.4507 695.967,-68.3974 702.213,-65.6985 779.875,-32.1425 997.182,-39.5037 1081.21,-29.6985 1107.04,-26.6852 1136.51,-22.5139 1156.73,-19.5384"/>
<polygon fill="green" stroke="green" stroke-width="0.29472" points="1157.29,-22.9946 1166.66,-18.0637 1156.26,-16.0705 1157.29,-22.9946"/>
</g>
<!-- &#45;37 -->
<g id="node37" class="node"><title>&#45;37</title>
<polygon fill="lightgray" stroke="black" points="740.713,-95.9117 711.713,-95.9117 711.713,-77.9117 740.713,-77.9117 740.713,-95.9117"/>
<text text-anchor="middle" x="726.213" y="-84.7117" font-family="Times New Roman,serif" font-size="9.00">&#45;37</text>
</g>
<!-- &#45;37&#45;&gt;0 -->
<g id="edge143" class="edge"><title>&#45;37&#45;&gt;0</title>
<path fill="none" stroke="green" stroke-width="0.307741" d="M733.546,-77.6754C737.732,-73.4714 743.313,-68.6371 749.213,-65.6985 822.287,-29.3054 920.453,-19.4727 966.021,-16.8228"/>
<polygon fill="green" stroke="green" stroke-width="0.307741" points="966.369,-20.3097 976.177,-16.303 966.011,-13.3188 966.369,-20.3097"/>
</g>
<!-- &#45;37&#45;&gt;1 -->
<g id="edge144" class="edge"><title>&#45;37&#45;&gt;1</title>
<path fill="none" stroke="red" stroke-width="0.101976" d="M733.468,-77.5125C737.632,-73.2608 743.215,-68.433 749.213,-65.6985 857.764,-16.2089 898.961,-56.4917 1015.21,-29.6985 1021.35,-28.2845 1027.86,-26.3554 1033.88,-24.3863"/>
<polygon fill="red" stroke="red" stroke-width="0.101976" points="1035.08,-27.6776 1043.4,-21.1185 1032.8,-21.0573 1035.08,-27.6776"/>
</g>
<!-- &#45;37&#45;&gt;2 -->
<g id="edge145" class="edge"><title>&#45;37&#45;&gt;2</title>
<path fill="none" stroke="green" stroke-width="0.431058" d="M733.013,-77.7919C737.196,-73.4009 742.946,-68.3476 749.213,-65.6985 842.842,-26.1249 1105.31,-48.4575 1205.21,-29.6985 1212.59,-28.3128 1220.47,-26.1888 1227.59,-24.0173"/>
<polygon fill="green" stroke="green" stroke-width="0.431058" points="1228.87,-27.2809 1237.31,-20.8821 1226.72,-20.6184 1228.87,-27.2809"/>
</g>
<!-- &#45;37&#45;&gt;3 -->
<g id="edge146" class="edge"><title>&#45;37&#45;&gt;3</title>
<path fill="none" stroke="red" stroke-width="0.438219" d="M733.042,-77.8604C737.235,-73.4922 742.985,-68.4389 749.213,-65.6985 885.065,-5.9241 933.911,-47.8809 1081.21,-29.6985 1107.02,-26.5134 1136.49,-22.3695 1156.72,-19.4473"/>
<polygon fill="red" stroke="red" stroke-width="0.438219" points="1157.26,-22.9052 1166.66,-18.0028 1156.26,-15.978 1157.26,-22.9052"/>
</g>
<!-- &#45;38 -->
<g id="node38" class="node"><title>&#45;38</title>
<polygon fill="lightgray" stroke="black" points="787.713,-95.9117 758.713,-95.9117 758.713,-77.9117 787.713,-77.9117 787.713,-95.9117"/>
<text text-anchor="middle" x="773.213" y="-84.7117" font-family="Times New Roman,serif" font-size="9.00">&#45;38</text>
</g>
<!-- &#45;38&#45;&gt;0 -->
<g id="edge147" class="edge"><title>&#45;38&#45;&gt;0</title>
<path fill="none" stroke="green" stroke-width="0.171179" d="M780.602,-77.7856C784.805,-73.6139 790.384,-68.7753 796.213,-65.6985 852.466,-36.0085 927.314,-23.3372 965.87,-18.4933"/>
<polygon fill="green" stroke="green" stroke-width="0.171179" points="966.653,-21.9254 976.175,-17.2789 965.834,-14.9735 966.653,-21.9254"/>
</g>
<!-- &#45;38&#45;&gt;1 -->
<g id="edge148" class="edge"><title>&#45;38&#45;&gt;1</title>
<path fill="none" stroke="green" stroke-width="0.315038" d="M780.5,-77.5803C784.672,-73.3484 790.255,-68.5179 796.213,-65.6985 885.375,-23.5089 919.418,-53.2145 1015.21,-29.6985 1021.33,-28.1975 1027.83,-26.2372 1033.85,-24.2658"/>
<polygon fill="green" stroke="green" stroke-width="0.315038" points="1035.04,-27.5599 1043.37,-21.0167 1032.78,-20.9353 1035.04,-27.5599"/>
</g>
<!-- &#45;38&#45;&gt;2 -->
<g id="edge149" class="edge"><title>&#45;38&#45;&gt;2</title>
<path fill="none" stroke="red" stroke-width="0.162328" d="M780.022,-77.813C784.208,-73.4291 789.958,-68.3758 796.213,-65.6985 963.975,6.1009 1026.02,-64.1823 1205.21,-29.6985 1212.59,-28.2795 1220.46,-26.1457 1227.58,-23.9754"/>
<polygon fill="red" stroke="red" stroke-width="0.162328" points="1228.86,-27.2404 1237.31,-20.8484 1226.72,-20.5761 1228.86,-27.2404"/>
</g>
<!-- &#45;38&#45;&gt;3 -->
<g id="edge150" class="edge"><title>&#45;38&#45;&gt;3</title>
<path fill="none" stroke="red" stroke-width="0.257349" d="M780.06,-77.9015C784.259,-73.547 790.009,-68.4937 796.213,-65.6985 912.616,-13.2512 954.645,-46.4561 1081.21,-29.6985 1106.99,-26.286 1136.47,-22.1782 1156.71,-19.3266"/>
<polygon fill="red" stroke="red" stroke-width="0.257349" points="1157.23,-22.7868 1166.65,-17.9222 1156.26,-15.8556 1157.23,-22.7868"/>
</g>
<!-- &#45;39 -->
<g id="node39" class="node"><title>&#45;39</title>
<polygon fill="lightgray" stroke="black" points="1923.71,-95.9117 1894.71,-95.9117 1894.71,-77.9117 1923.71,-77.9117 1923.71,-95.9117"/>
<text text-anchor="middle" x="1909.21" y="-84.7117" font-family="Times New Roman,serif" font-size="9.00">&#45;39</text>
</g>
<!-- &#45;39&#45;&gt;1 -->
<g id="edge151" class="edge"><title>&#45;39&#45;&gt;1</title>
<path fill="none" stroke="green" stroke-width="0.296446" d="M1902.44,-77.7225C1898.27,-73.3083 1892.52,-68.255 1886.21,-65.6985 1735.9,-4.75817 1318.7,-44.8386 1157.21,-29.6985 1131.33,-27.2716 1101.86,-23.0072 1081.66,-19.8496"/>
<polygon fill="green" stroke="green" stroke-width="0.296446" points="1082.17,-16.3859 1071.74,-18.2714 1081.07,-23.299 1082.17,-16.3859"/>
</g>
<!-- &#45;39&#45;&gt;2 -->
<g id="edge152" class="edge"><title>&#45;39&#45;&gt;2</title>
<path fill="none" stroke="green" stroke-width="0.12406" d="M1902.41,-77.7909C1898.23,-73.3995 1892.48,-68.3462 1886.21,-65.6985 1773.31,-18.0065 1379.81,-15.5315 1276.31,-15.7252"/>
<polygon fill="green" stroke="green" stroke-width="0.12406" points="1276.17,-12.2255 1266.18,-15.755 1276.19,-19.2255 1276.17,-12.2255"/>
</g>
<!-- &#45;39&#45;&gt;3 -->
<g id="edge153" class="edge"><title>&#45;39&#45;&gt;3</title>
<path fill="none" stroke="red" stroke-width="0.236702" d="M1902.44,-77.7348C1898.26,-73.3248 1892.51,-68.2715 1886.21,-65.6985 1750.44,-10.2395 1371.67,-55.0179 1227.21,-29.6985 1219.82,-28.4022 1211.93,-26.3048 1204.82,-24.13"/>
<polygon fill="red" stroke="red" stroke-width="0.236702" points="1205.69,-20.7321 1195.1,-20.9728 1203.53,-27.39 1205.69,-20.7321"/>
</g>
<!-- &#45;40 -->
<g id="node40" class="node"><title>&#45;40</title>
<polygon fill="lightgray" stroke="black" points="834.713,-95.9117 805.713,-95.9117 805.713,-77.9117 834.713,-77.9117 834.713,-95.9117"/>
<text text-anchor="middle" x="820.213" y="-84.7117" font-family="Times New Roman,serif" font-size="9.00">&#45;40</text>
</g>
<!-- &#45;40&#45;&gt;0 -->
<g id="edge154" class="edge"><title>&#45;40&#45;&gt;0</title>
<path fill="none" stroke="red" stroke-width="0.217357" d="M828.516,-77.5774C832.89,-73.5515 838.519,-68.9094 844.213,-65.6985 884.353,-43.0639 936.457,-28.4259 966.633,-21.2006"/>
<polygon fill="red" stroke="red" stroke-width="0.217357" points="967.741,-24.5367 976.695,-18.873 966.163,-17.7168 967.741,-24.5367"/>
</g>
<!-- &#45;40&#45;&gt;1 -->
<g id="edge155" class="edge"><title>&#45;40&#45;&gt;1</title>
<path fill="none" stroke="red" stroke-width="0.102007" d="M827.933,-77.6931C832.321,-73.4942 838.142,-68.6593 844.213,-65.6985 914.021,-31.6561 940.218,-49.8904 1015.21,-29.6985 1021.29,-28.0617 1027.79,-26.0525 1033.81,-24.0775"/>
<polygon fill="red" stroke="red" stroke-width="0.102007" points="1034.98,-27.3758 1043.33,-20.8576 1032.74,-20.7445 1034.98,-27.3758"/>
</g>
<!-- &#45;40&#45;&gt;2 -->
<g id="edge156" class="edge"><title>&#45;40&#45;&gt;2</title>
<path fill="none" stroke="green" stroke-width="0.335129" d="M827.396,-77.84C831.79,-73.4651 837.79,-68.4118 844.213,-65.6985 992.746,-2.95666 1047.06,-61.0864 1205.21,-29.6985 1212.58,-28.2368 1220.45,-26.0903 1227.57,-23.9215"/>
<polygon fill="green" stroke="green" stroke-width="0.335129" points="1228.84,-27.1882 1237.3,-20.805 1226.71,-20.5217 1228.84,-27.1882"/>
</g>
<!-- &#45;40&#45;&gt;3 -->
<g id="edge157" class="edge"><title>&#45;40&#45;&gt;3</title>
<path fill="none" stroke="green" stroke-width="0.134452" d="M827.863,-77.5452C832.231,-73.303 838.055,-68.4739 844.213,-65.6985 851.392,-62.4632 1079.97,-30.0952 1156.52,-19.3187"/>
<polygon fill="green" stroke="green" stroke-width="0.134452" points="1157.25,-22.7504 1166.66,-17.8914 1156.27,-15.8187 1157.25,-22.7504"/>
</g>
<!-- 515&#45;&gt;0 -->
<g id="edge161" class="edge"><title>515&#45;&gt;0</title>
<path fill="none" stroke="green" stroke-width="0.133286" d="M38.2817,-73.9151C43.7636,-70.6623 50.0244,-67.5352 56.2132,-65.6985 233.57,-13.0634 834.7,-14.6187 965.82,-15.6106"/>
<polygon fill="green" stroke="green" stroke-width="0.133286" points="966.037,-19.1124 976.065,-15.6946 966.094,-12.1126 966.037,-19.1124"/>
</g>
<!-- 401&#45;&gt;2 -->
<g id="edge159" class="edge"><title>401&#45;&gt;2</title>
<path fill="none" stroke="red" stroke-width="0.299531" d="M2146.14,-73.9285C2140.66,-70.6762 2134.4,-67.546 2128.21,-65.6985 1962.43,-16.1823 1401.56,-15.2809 1276.2,-15.7157"/>
<polygon fill="red" stroke="red" stroke-width="0.299531" points="1276.05,-12.2162 1266.07,-15.7575 1276.08,-19.2162 1276.05,-12.2162"/>
</g>
<!-- 543&#45;&gt;2 -->
<g id="edge163" class="edge"><title>543&#45;&gt;2</title>
<path fill="none" stroke="red" stroke-width="0.385431" d="M2244.15,-73.9068C2238.67,-70.6536 2232.4,-67.5284 2226.21,-65.6985 2040.65,-10.8478 1410.47,-14.1858 1276.42,-15.5481"/>
<polygon fill="red" stroke="red" stroke-width="0.385431" points="1276.27,-12.0494 1266.31,-15.657 1276.35,-19.049 1276.27,-12.0494"/>
</g>
</g>
</svg>
