<?xml version="1.0" encoding="UTF-8" standalone="no"?>
<!DOCTYPE svg PUBLIC "-//W3C//DTD SVG 1.1//EN"
 "http://www.w3.org/Graphics/SVG/1.1/DTD/svg11.dtd">
<!-- Generated by graphviz version 2.38.0 (20140413.2041)
 -->
<!-- Title: %3 Pages: 1 -->
<svg width="2890pt" height="170pt"
 viewBox="0.00 0.00 2890.28 170.12" xmlns="http://www.w3.org/2000/svg" xmlns:xlink="http://www.w3.org/1999/xlink">
<g id="graph0" class="graph" transform="scale(1 1) rotate(0) translate(4 166.125)">
<title>%3</title>
<polygon fill="white" stroke="none" points="-4,4 -4,-166.125 2886.28,-166.125 2886.28,4 -4,4"/>
<!-- &#45;1 -->
<g id="node1" class="node"><title>&#45;1</title>
<polygon fill="lightgray" stroke="black" points="1316.58,-95.9117 1292.58,-95.9117 1292.58,-77.9117 1316.58,-77.9117 1316.58,-95.9117"/>
<text text-anchor="middle" x="1304.58" y="-84.7117" font-family="Times New Roman,serif" font-size="9.00">&#45;1</text>
</g>
<!-- 0 -->
<g id="node41" class="node"><title>0</title>
<ellipse fill="lightblue" stroke="black" cx="1141.58" cy="-14.8492" rx="14.7" ry="14.7"/>
<text text-anchor="middle" x="1141.58" y="-12.6492" font-family="Times New Roman,serif" font-size="9.00">0</text>
</g>
<!-- &#45;1&#45;&gt;0 -->
<g id="edge1" class="edge"><title>&#45;1&#45;&gt;0</title>
<path fill="none" stroke="green" stroke-width="0.1315" d="M1297.07,-77.5749C1293.09,-73.5482 1287.92,-68.9063 1282.58,-65.6985 1244.73,-42.9353 1194.93,-28.4131 1165.77,-21.2309"/>
<polygon fill="green" stroke="green" stroke-width="0.1315" points="1166.56,-17.821 1156.02,-18.9152 1164.94,-24.6316 1166.56,-17.821"/>
</g>
<!-- 1 -->
<g id="node42" class="node"><title>1</title>
<ellipse fill="lightblue" stroke="black" cx="1566.58" cy="-14.8492" rx="14.7" ry="14.7"/>
<text text-anchor="middle" x="1566.58" y="-12.6492" font-family="Times New Roman,serif" font-size="9.00">1</text>
</g>
<!-- &#45;1&#45;&gt;1 -->
<g id="edge2" class="edge"><title>&#45;1&#45;&gt;1</title>
<path fill="none" stroke="green" stroke-width="0.142573" d="M1311.15,-77.6654C1314.93,-73.4585 1320.03,-68.6246 1325.58,-65.6985 1397.51,-27.7806 1495.68,-18.6901 1541.33,-16.5216"/>
<polygon fill="green" stroke="green" stroke-width="0.142573" points="1541.65,-20.0115 1551.51,-16.1141 1541.37,-13.0171 1541.65,-20.0115"/>
</g>
<!-- 2 -->
<g id="node43" class="node"><title>2</title>
<ellipse fill="lightblue" stroke="black" cx="1633.58" cy="-14.8492" rx="14.7" ry="14.7"/>
<text text-anchor="middle" x="1633.58" y="-12.6492" font-family="Times New Roman,serif" font-size="9.00">2</text>
</g>
<!-- &#45;1&#45;&gt;2 -->
<g id="edge3" class="edge"><title>&#45;1&#45;&gt;2</title>
<path fill="none" stroke="green" stroke-width="0.328482" d="M1311.07,-77.5114C1314.83,-73.2594 1319.94,-68.4316 1325.58,-65.6985 1432.58,-13.9274 1474.68,-56.0202 1590.58,-29.6985 1596.95,-28.252 1603.73,-26.281 1609.97,-24.2798"/>
<polygon fill="green" stroke="green" stroke-width="0.328482" points="1611.45,-27.4757 1619.81,-20.9707 1609.22,-20.8408 1611.45,-27.4757"/>
</g>
<!-- 3 -->
<g id="node44" class="node"><title>3</title>
<ellipse fill="lightblue" stroke="black" cx="1235.58" cy="-14.8492" rx="14.7" ry="14.7"/>
<text text-anchor="middle" x="1235.58" y="-12.6492" font-family="Times New Roman,serif" font-size="9.00">3</text>
</g>
<!-- &#45;1&#45;&gt;3 -->
<g id="edge4" class="edge"><title>&#45;1&#45;&gt;3</title>
<path fill="none" stroke="red" stroke-width="0.320118" d="M1296.67,-77.8746C1286.04,-67.0781 1266.86,-47.6015 1252.82,-33.3456"/>
<polygon fill="red" stroke="red" stroke-width="0.320118" points="1255.14,-30.72 1245.63,-26.051 1250.15,-35.6318 1255.14,-30.72"/>
</g>
<!-- &#45;2 -->
<g id="node2" class="node"><title>&#45;2</title>
<polygon fill="lightgray" stroke="black" points="1358.58,-95.9117 1334.58,-95.9117 1334.58,-77.9117 1358.58,-77.9117 1358.58,-95.9117"/>
<text text-anchor="middle" x="1346.58" y="-84.7117" font-family="Times New Roman,serif" font-size="9.00">&#45;2</text>
</g>
<!-- &#45;2&#45;&gt;0 -->
<g id="edge5" class="edge"><title>&#45;2&#45;&gt;0</title>
<path fill="none" stroke="red" stroke-width="0.21535" d="M1339.95,-77.7985C1336.14,-73.6305 1331.04,-68.7914 1325.58,-65.6985 1298.11,-50.133 1209.35,-30.0743 1165.95,-20.8701"/>
<polygon fill="red" stroke="red" stroke-width="0.21535" points="1166.46,-17.4012 1155.95,-18.7732 1165.02,-24.2521 1166.46,-17.4012"/>
</g>
<!-- &#45;2&#45;&gt;1 -->
<g id="edge6" class="edge"><title>&#45;2&#45;&gt;1</title>
<path fill="none" stroke="red" stroke-width="0.191798" d="M1353.2,-77.7567C1357,-73.5765 1362.1,-68.7391 1367.58,-65.6985 1424.82,-33.9897 1502.4,-22.1188 1541.64,-17.9434"/>
<polygon fill="red" stroke="red" stroke-width="0.191798" points="1542.04,-21.4217 1551.65,-16.9597 1541.35,-14.4553 1542.04,-21.4217"/>
</g>
<!-- &#45;2&#45;&gt;2 -->
<g id="edge7" class="edge"><title>&#45;2&#45;&gt;2</title>
<path fill="none" stroke="red" stroke-width="0.222848" stroke-dasharray="1,5" d="M1353.1,-77.5676C1356.87,-73.3321 1361.97,-68.502 1367.58,-65.6985 1457.4,-20.8426 1492.97,-53.1546 1590.58,-29.6985 1596.94,-28.1724 1603.7,-26.1736 1609.95,-24.1711"/>
<polygon fill="red" stroke="red" stroke-width="0.222848" points="1611.42,-27.3702 1619.79,-20.8804 1609.2,-20.7313 1611.42,-27.3702"/>
</g>
<!-- &#45;2&#45;&gt;3 -->
<g id="edge8" class="edge"><title>&#45;2&#45;&gt;3</title>
<path fill="none" stroke="green" stroke-width="0.460818" stroke-dasharray="1,5" d="M1338.85,-77.5166C1335.06,-73.6626 1330.31,-69.1854 1325.58,-65.6985 1304.03,-49.7791 1276.82,-35.3972 1258,-26.2187"/>
<polygon fill="green" stroke="green" stroke-width="0.460818" points="1259.27,-22.9488 1248.74,-21.7954 1256.25,-29.2648 1259.27,-22.9488"/>
</g>
<!-- &#45;3 -->
<g id="node3" class="node"><title>&#45;3</title>
<polygon fill="lightgray" stroke="black" points="1400.58,-95.9117 1376.58,-95.9117 1376.58,-77.9117 1400.58,-77.9117 1400.58,-95.9117"/>
<text text-anchor="middle" x="1388.58" y="-84.7117" font-family="Times New Roman,serif" font-size="9.00">&#45;3</text>
</g>
<!-- &#45;3&#45;&gt;0 -->
<g id="edge9" class="edge"><title>&#45;3&#45;&gt;0</title>
<path fill="none" stroke="red" stroke-width="0.195319" d="M1382,-77.6944C1378.22,-73.496 1373.12,-68.661 1367.58,-65.6985 1358.62,-60.8979 1222.49,-32.514 1165.94,-20.8498"/>
<polygon fill="red" stroke="red" stroke-width="0.195319" points="1166.55,-17.4025 1156.05,-18.8137 1165.14,-24.2587 1166.55,-17.4025"/>
</g>
<!-- &#45;3&#45;&gt;1 -->
<g id="edge10" class="edge"><title>&#45;3&#45;&gt;1</title>
<path fill="none" stroke="green" stroke-width="0.262099" d="M1395.28,-77.8912C1399.1,-73.7505 1404.19,-68.9078 1409.58,-65.6985 1452.42,-40.2049 1509.7,-26.318 1541.91,-20.0507"/>
<polygon fill="green" stroke="green" stroke-width="0.262099" points="1542.61,-23.4789 1551.81,-18.2116 1541.34,-16.5966 1542.61,-23.4789"/>
</g>
<!-- &#45;3&#45;&gt;2 -->
<g id="edge11" class="edge"><title>&#45;3&#45;&gt;2</title>
<path fill="none" stroke="green" stroke-width="0.182449" d="M1395.14,-77.6485C1398.92,-73.4366 1404.02,-68.6034 1409.58,-65.6985 1482.29,-27.7272 1511.19,-50.305 1590.58,-29.6985 1596.91,-28.0575 1603.67,-26.0185 1609.91,-24.0141"/>
<polygon fill="green" stroke="green" stroke-width="0.182449" points="1611.37,-27.2177 1619.76,-20.75 1609.17,-20.573 1611.37,-27.2177"/>
</g>
<!-- &#45;3&#45;&gt;3 -->
<g id="edge12" class="edge"><title>&#45;3&#45;&gt;3</title>
<path fill="none" stroke="green" stroke-width="0.11001" stroke-dasharray="1,5" d="M1381.45,-77.6059C1377.65,-73.5872 1372.72,-68.9431 1367.58,-65.6985 1333.04,-43.8596 1287.45,-29.3125 1259.89,-21.8293"/>
<polygon fill="green" stroke="green" stroke-width="0.11001" points="1260.49,-18.3701 1249.93,-19.2221 1258.72,-25.1416 1260.49,-18.3701"/>
</g>
<!-- &#45;4 -->
<g id="node4" class="node"><title>&#45;4</title>
<polygon fill="lightgray" stroke="black" points="1442.58,-95.9117 1418.58,-95.9117 1418.58,-77.9117 1442.58,-77.9117 1442.58,-95.9117"/>
<text text-anchor="middle" x="1430.58" y="-84.7117" font-family="Times New Roman,serif" font-size="9.00">&#45;4</text>
</g>
<!-- &#45;4&#45;&gt;0 -->
<g id="edge13" class="edge"><title>&#45;4&#45;&gt;0</title>
<path fill="none" stroke="green" stroke-width="0.520086" d="M1424.05,-77.6118C1420.27,-73.3892 1415.17,-68.5575 1409.58,-65.6985 1329.97,-24.9456 1299.46,-46.3787 1211.58,-29.6985 1196.41,-26.8182 1179.41,-23.4587 1165.97,-20.7698"/>
<polygon fill="green" stroke="green" stroke-width="0.520086" points="1166.54,-17.3155 1156.05,-18.7792 1165.17,-24.1786 1166.54,-17.3155"/>
</g>
<!-- &#45;4&#45;&gt;1 -->
<g id="edge14" class="edge"><title>&#45;4&#45;&gt;1</title>
<path fill="none" stroke="green" stroke-width="0.301445" stroke-dasharray="1,5" d="M1437.79,-77.7093C1441.6,-73.7169 1446.53,-69.0651 1451.58,-65.6985 1480.77,-46.2565 1518.78,-31.5382 1542.94,-23.3007"/>
<polygon fill="green" stroke="green" stroke-width="0.301445" points="1544.29,-26.5408 1552.68,-20.0752 1542.09,-19.8955 1544.29,-26.5408"/>
</g>
<!-- &#45;4&#45;&gt;2 -->
<g id="edge15" class="edge"><title>&#45;4&#45;&gt;2</title>
<path fill="none" stroke="green" stroke-width="0.458473" d="M1437.21,-77.7742C1441.01,-73.5991 1446.11,-68.761 1451.58,-65.6985 1507.28,-34.5523 1529.3,-47.488 1590.58,-29.6985 1596.86,-27.8777 1603.6,-25.7759 1609.84,-23.7686"/>
<polygon fill="green" stroke="green" stroke-width="0.458473" points="1611.29,-26.9789 1619.7,-20.546 1609.11,-20.3251 1611.29,-26.9789"/>
</g>
<!-- &#45;4&#45;&gt;3 -->
<g id="edge16" class="edge"><title>&#45;4&#45;&gt;3</title>
<path fill="none" stroke="green" stroke-width="0.118238" d="M1423.93,-77.8298C1420.12,-73.6711 1415.02,-68.8308 1409.58,-65.6985 1361.18,-37.8142 1296.1,-24.619 1260.84,-19.158"/>
<polygon fill="green" stroke="green" stroke-width="0.118238" points="1260.9,-15.6298 1250.5,-17.648 1259.89,-22.5563 1260.9,-15.6298"/>
</g>
<!-- &#45;5 -->
<g id="node5" class="node"><title>&#45;5</title>
<polygon fill="lightgray" stroke="black" points="1484.58,-95.9117 1460.58,-95.9117 1460.58,-77.9117 1484.58,-77.9117 1484.58,-95.9117"/>
<text text-anchor="middle" x="1472.58" y="-84.7117" font-family="Times New Roman,serif" font-size="9.00">&#45;5</text>
</g>
<!-- &#45;5&#45;&gt;0 -->
<g id="edge17" class="edge"><title>&#45;5&#45;&gt;0</title>
<path fill="none" stroke="red" stroke-width="0.361812" stroke-dasharray="1,5" d="M1466.08,-77.5426C1462.32,-73.2997 1457.21,-68.4707 1451.58,-65.6985 1354.82,-18.0464 1317.85,-48.1704 1211.58,-29.6985 1196.37,-27.0534 1179.37,-23.7001 1165.94,-20.9556"/>
<polygon fill="red" stroke="red" stroke-width="0.361812" points="1166.53,-17.5042 1156.03,-18.9103 1165.11,-24.3596 1166.53,-17.5042"/>
</g>
<!-- &#45;5&#45;&gt;1 -->
<g id="edge18" class="edge"><title>&#45;5&#45;&gt;1</title>
<path fill="none" stroke="red" stroke-width="0.155279" d="M1480.47,-77.7108C1484.29,-73.8993 1489.03,-69.4019 1493.58,-65.6985 1510.35,-52.0676 1530.75,-38.3533 1545.72,-28.7696"/>
<polygon fill="red" stroke="red" stroke-width="0.155279" points="1547.67,-31.675 1554.26,-23.3738 1543.93,-25.7576 1547.67,-31.675"/>
</g>
<!-- &#45;5&#45;&gt;2 -->
<g id="edge19" class="edge"><title>&#45;5&#45;&gt;2</title>
<path fill="none" stroke="red" stroke-width="0.204187" d="M1479.7,-77.5645C1483.48,-73.5352 1488.42,-68.8941 1493.58,-65.6985 1503.76,-59.4 1572.74,-36.0429 1609.93,-23.6651"/>
<polygon fill="red" stroke="red" stroke-width="0.204187" points="1611.11,-26.9603 1619.5,-20.4884 1608.91,-20.3167 1611.11,-26.9603"/>
</g>
<!-- &#45;5&#45;&gt;3 -->
<g id="edge20" class="edge"><title>&#45;5&#45;&gt;3</title>
<path fill="none" stroke="green" stroke-width="0.487287" d="M1465.99,-77.7158C1462.2,-73.5236 1457.1,-68.6878 1451.58,-65.6985 1388.37,-31.4479 1302.4,-20.6397 1260.54,-17.2993"/>
<polygon fill="green" stroke="green" stroke-width="0.487287" points="1260.65,-13.7982 1250.42,-16.5713 1260.15,-20.7801 1260.65,-13.7982"/>
</g>
<!-- &#45;6 -->
<g id="node6" class="node"><title>&#45;6</title>
<polygon fill="lightgray" stroke="black" points="2382.58,-162.125 2358.58,-162.125 2358.58,-144.125 2382.58,-144.125 2382.58,-162.125"/>
<text text-anchor="middle" x="2370.58" y="-150.925" font-family="Times New Roman,serif" font-size="9.00">&#45;6</text>
</g>
<!-- &#45;6&#45;&gt;0 -->
<g id="edge21" class="edge"><title>&#45;6&#45;&gt;0</title>
<path fill="none" stroke="red" stroke-width="0.403439" d="M2358.47,-151.141C2336.56,-149.403 2288.88,-145.815 2248.58,-144.125 2194.12,-141.841 324.773,-147.021 286.584,-108.125 273.374,-94.6698 273.645,-79.4144 286.584,-65.6985 315.828,-34.6996 978.583,-19.2401 1116.56,-16.3516"/>
<polygon fill="red" stroke="red" stroke-width="0.403439" points="1116.67,-19.8502 1126.59,-16.1445 1116.52,-12.8517 1116.67,-19.8502"/>
</g>
<!-- &#45;6&#45;&gt;1 -->
<g id="edge22" class="edge"><title>&#45;6&#45;&gt;1</title>
<path fill="none" stroke="red" stroke-width="0.294852" stroke-dasharray="1,5" d="M2371.65,-144.113C2373.47,-126.708 2374.94,-85.4272 2351.58,-65.6985 2288.53,-12.4331 1690.79,-44.4784 1609.58,-29.6985 1603.16,-28.5289 1596.36,-26.6546 1590.12,-24.6579"/>
<polygon fill="red" stroke="red" stroke-width="0.294852" points="1590.89,-21.221 1580.29,-21.2848 1588.61,-27.8418 1590.89,-21.221"/>
</g>
<!-- &#45;6&#45;&gt;2 -->
<g id="edge23" class="edge"><title>&#45;6&#45;&gt;2</title>
<path fill="none" stroke="green" stroke-width="0.226225" d="M2382.8,-150.837C2430.11,-145.729 2599.4,-126.29 2614.58,-108.125 2626.68,-93.6567 2627.57,-79.366 2614.58,-65.6985 2580.63,-29.9741 1807.78,-18.1171 1658.44,-16.156"/>
<polygon fill="green" stroke="green" stroke-width="0.226225" points="1658.46,-12.6561 1648.42,-16.0271 1658.37,-19.6555 1658.46,-12.6561"/>
</g>
<!-- &#45;6&#45;&gt;3 -->
<g id="edge24" class="edge"><title>&#45;6&#45;&gt;3</title>
<path fill="none" stroke="green" stroke-width="0.460859" d="M2358.47,-151.155C2336.56,-149.439 2288.88,-145.885 2248.58,-144.125 2202.84,-142.126 632.606,-140.854 600.584,-108.125 587.397,-94.6467 587.682,-79.4492 600.584,-65.6985 643.627,-19.8255 1103.21,-37.8205 1165.58,-29.6985 1180.9,-27.7043 1197.9,-24.3679 1211.31,-21.4695"/>
<polygon fill="green" stroke="green" stroke-width="0.460859" points="1212.19,-24.8587 1221.2,-19.2729 1210.68,-18.0254 1212.19,-24.8587"/>
</g>
<!-- 682 -->
<g id="node46" class="node"><title>682</title>
<ellipse fill="white" stroke="black" cx="2419.58" cy="-86.9117" rx="21.4286" ry="21.4286"/>
<text text-anchor="middle" x="2419.58" y="-84.7117" font-family="Times New Roman,serif" font-size="9.00">682</text>
</g>
<!-- &#45;6&#45;&gt;682 -->
<g id="edge165" class="edge"><title>&#45;6&#45;&gt;682</title>
<path fill="none" stroke="green" stroke-width="0.3" d="M2376.79,-143.992C2382.82,-136.086 2392.3,-123.673 2400.8,-112.533"/>
<polygon fill="green" stroke="green" stroke-width="0.3" points="2403.75,-114.431 2407.03,-104.358 2398.19,-110.185 2403.75,-114.431"/>
</g>
<!-- &#45;7 -->
<g id="node7" class="node"><title>&#45;7</title>
<polygon fill="lightgray" stroke="black" points="1526.58,-95.9117 1502.58,-95.9117 1502.58,-77.9117 1526.58,-77.9117 1526.58,-95.9117"/>
<text text-anchor="middle" x="1514.58" y="-84.7117" font-family="Times New Roman,serif" font-size="9.00">&#45;7</text>
</g>
<!-- &#45;7&#45;&gt;0 -->
<g id="edge25" class="edge"><title>&#45;7&#45;&gt;0</title>
<path fill="none" stroke="red" stroke-width="0.108355" d="M1508.47,-77.9034C1504.68,-73.5495 1499.43,-68.4962 1493.58,-65.6985 1379.63,-11.1228 1336.3,-49.9716 1211.58,-29.6985 1196.34,-27.2203 1179.34,-23.8713 1165.91,-21.0874"/>
<polygon fill="red" stroke="red" stroke-width="0.108355" points="1166.52,-17.638 1156.01,-19.0033 1165.08,-24.4879 1166.52,-17.638"/>
</g>
<!-- &#45;7&#45;&gt;1 -->
<g id="edge26" class="edge"><title>&#45;7&#45;&gt;1</title>
<path fill="none" stroke="green" stroke-width="0.32814" d="M1520.55,-77.8746C1528.15,-67.6352 1541.54,-49.5885 1551.93,-35.5923"/>
<polygon fill="green" stroke="green" stroke-width="0.32814" points="1554.78,-37.6231 1557.93,-27.5071 1549.16,-33.4512 1554.78,-37.6231"/>
</g>
<!-- &#45;7&#45;&gt;2 -->
<g id="edge27" class="edge"><title>&#45;7&#45;&gt;2</title>
<path fill="none" stroke="green" stroke-width="0.621302" d="M1521.88,-77.8396C1525.71,-73.8804 1530.64,-69.219 1535.58,-65.6985 1559.51,-48.6747 1590.07,-34.1108 1610.65,-25.1972"/>
<polygon fill="green" stroke="green" stroke-width="0.621302" points="1612.03,-28.4116 1619.88,-21.2893 1609.3,-21.9657 1612.03,-28.4116"/>
</g>
<!-- &#45;7&#45;&gt;3 -->
<g id="edge28" class="edge"><title>&#45;7&#45;&gt;3</title>
<path fill="none" stroke="green" stroke-width="0.678802" d="M1508.03,-77.6363C1504.26,-73.4209 1499.15,-68.5882 1493.58,-65.6985 1415.44,-25.1574 1308.51,-17.4109 1260.59,-16.054"/>
<polygon fill="green" stroke="green" stroke-width="0.678802" points="1260.58,-12.5531 1250.51,-15.8407 1260.43,-19.5515 1260.58,-12.5531"/>
</g>
<!-- &#45;8 -->
<g id="node8" class="node"><title>&#45;8</title>
<polygon fill="lightgray" stroke="black" points="1568.58,-95.9117 1544.58,-95.9117 1544.58,-77.9117 1568.58,-77.9117 1568.58,-95.9117"/>
<text text-anchor="middle" x="1556.58" y="-84.7117" font-family="Times New Roman,serif" font-size="9.00">&#45;8</text>
</g>
<!-- &#45;8&#45;&gt;0 -->
<g id="edge29" class="edge"><title>&#45;8&#45;&gt;0</title>
<path fill="none" stroke="green" stroke-width="0.129358" d="M1550.48,-77.8676C1546.7,-73.5018 1541.45,-68.4485 1535.58,-65.6985 1404.4,-4.18463 1354.78,-51.7783 1211.58,-29.6985 1196.32,-27.3448 1179.32,-23.999 1165.9,-21.1856"/>
<polygon fill="green" stroke="green" stroke-width="0.129358" points="1166.51,-17.7377 1156,-19.0726 1165.05,-24.5834 1166.51,-17.7377"/>
</g>
<!-- &#45;8&#45;&gt;1 -->
<g id="edge30" class="edge"><title>&#45;8&#45;&gt;1</title>
<path fill="none" stroke="green" stroke-width="0.215386" d="M1557.73,-77.8746C1559.05,-68.6287 1561.28,-53.017 1563.17,-39.7699"/>
<polygon fill="green" stroke="green" stroke-width="0.215386" points="1566.64,-40.2139 1564.59,-29.8197 1559.71,-39.2248 1566.64,-40.2139"/>
</g>
<!-- &#45;8&#45;&gt;2 -->
<g id="edge31" class="edge"><title>&#45;8&#45;&gt;2</title>
<path fill="none" stroke="red" stroke-width="0.516589" d="M1565.09,-77.5745C1568.89,-73.8987 1573.43,-69.5486 1577.58,-65.6985 1589.92,-54.2839 1604.05,-41.7052 1615.03,-32.0391"/>
<polygon fill="red" stroke="red" stroke-width="0.516589" points="1617.53,-34.508 1622.74,-25.2827 1612.91,-29.2454 1617.53,-34.508"/>
</g>
<!-- &#45;8&#45;&gt;3 -->
<g id="edge32" class="edge"><title>&#45;8&#45;&gt;3</title>
<path fill="none" stroke="green" stroke-width="0.283149" d="M1550.06,-77.5779C1546.29,-73.3454 1541.19,-68.515 1535.58,-65.6985 1442.42,-18.9047 1314.5,-14.6397 1260.86,-15.1362"/>
<polygon fill="green" stroke="green" stroke-width="0.283149" points="1260.52,-11.641 1250.58,-15.3008 1260.64,-18.6401 1260.52,-11.641"/>
</g>
<!-- &#45;9 -->
<g id="node9" class="node"><title>&#45;9</title>
<polygon fill="lightgray" stroke="black" points="1610.58,-95.9117 1586.58,-95.9117 1586.58,-77.9117 1610.58,-77.9117 1610.58,-95.9117"/>
<text text-anchor="middle" x="1598.58" y="-84.7117" font-family="Times New Roman,serif" font-size="9.00">&#45;9</text>
</g>
<!-- &#45;9&#45;&gt;0 -->
<g id="edge33" class="edge"><title>&#45;9&#45;&gt;0</title>
<path fill="none" stroke="red" stroke-width="0.290436" d="M1592.5,-77.8398C1588.72,-73.4648 1583.47,-68.4115 1577.58,-65.6985 1429.16,2.76308 1373.28,-53.5884 1211.58,-29.6985 1196.31,-27.4411 1179.31,-24.0978 1165.89,-21.2616"/>
<polygon fill="red" stroke="red" stroke-width="0.290436" points="1166.51,-17.8148 1155.99,-19.1263 1165.03,-24.6572 1166.51,-17.8148"/>
</g>
<!-- &#45;9&#45;&gt;1 -->
<g id="edge34" class="edge"><title>&#45;9&#45;&gt;1</title>
<path fill="none" stroke="green" stroke-width="0.126122" d="M1594.91,-77.8746C1590.5,-68.2142 1582.91,-51.6046 1576.7,-38.0034"/>
<polygon fill="green" stroke="green" stroke-width="0.126122" points="1579.83,-36.4158 1572.49,-28.7738 1573.46,-39.324 1579.83,-36.4158"/>
</g>
<!-- &#45;9&#45;&gt;2 -->
<g id="edge35" class="edge"><title>&#45;9&#45;&gt;2</title>
<path fill="none" stroke="green" stroke-width="0.373719" d="M1602.6,-77.8746C1607.45,-68.1564 1615.82,-51.4054 1622.64,-37.7594"/>
<polygon fill="green" stroke="green" stroke-width="0.373719" points="1625.92,-39.0268 1627.26,-28.5167 1619.66,-35.8985 1625.92,-39.0268"/>
</g>
<!-- &#45;9&#45;&gt;3 -->
<g id="edge36" class="edge"><title>&#45;9&#45;&gt;3</title>
<path fill="none" stroke="green" stroke-width="0.272537" d="M1592.09,-77.5333C1588.32,-73.2876 1583.22,-68.459 1577.58,-65.6985 1521.44,-38.193 1330.06,-22.4351 1260.84,-17.5259"/>
<polygon fill="green" stroke="green" stroke-width="0.272537" points="1260.67,-14.0062 1250.46,-16.8067 1260.19,-20.9895 1260.67,-14.0062"/>
</g>
<!-- &#45;10 -->
<g id="node10" class="node"><title>&#45;10</title>
<polygon fill="lightgray" stroke="black" points="1658.08,-95.9117 1629.08,-95.9117 1629.08,-77.9117 1658.08,-77.9117 1658.08,-95.9117"/>
<text text-anchor="middle" x="1643.58" y="-84.7117" font-family="Times New Roman,serif" font-size="9.00">&#45;10</text>
</g>
<!-- &#45;10&#45;&gt;0 -->
<g id="edge37" class="edge"><title>&#45;10&#45;&gt;0</title>
<path fill="none" stroke="green" stroke-width="0.416694" d="M1636.41,-77.8126C1632.02,-73.4285 1626.02,-68.3752 1619.58,-65.6985 1451.49,4.18021 1391.8,-55.4008 1211.58,-29.6985 1196.29,-27.5178 1179.29,-24.1765 1165.88,-21.3222"/>
<polygon fill="green" stroke="green" stroke-width="0.416694" points="1166.5,-17.8762 1155.99,-19.169 1165.01,-24.716 1166.5,-17.8762"/>
</g>
<!-- &#45;10&#45;&gt;1 -->
<g id="edge38" class="edge"><title>&#45;10&#45;&gt;1</title>
<path fill="none" stroke="green" stroke-width="0.488339" d="M1634.75,-77.8746C1622.64,-66.8557 1600.59,-46.7955 1584.85,-32.4714"/>
<polygon fill="green" stroke="green" stroke-width="0.488339" points="1587.03,-29.7232 1577.28,-25.5819 1582.32,-34.9007 1587.03,-29.7232"/>
</g>
<!-- &#45;10&#45;&gt;2 -->
<g id="edge39" class="edge"><title>&#45;10&#45;&gt;2</title>
<path fill="none" stroke="green" stroke-width="0.157666" d="M1642.44,-77.8746C1641.12,-68.6287 1638.89,-53.017 1637,-39.7699"/>
<polygon fill="green" stroke="green" stroke-width="0.157666" points="1640.46,-39.2248 1635.58,-29.8197 1633.53,-40.2139 1640.46,-39.2248"/>
</g>
<!-- &#45;10&#45;&gt;3 -->
<g id="edge40" class="edge"><title>&#45;10&#45;&gt;3</title>
<path fill="none" stroke="red" stroke-width="0.382573" d="M1636.37,-77.9114C1631.97,-73.5602 1625.97,-68.5069 1619.58,-65.6985 1554.62,-37.1119 1335.56,-21.7685 1260.82,-17.2705"/>
<polygon fill="red" stroke="red" stroke-width="0.382573" points="1260.68,-13.7562 1250.49,-16.6632 1260.27,-20.7441 1260.68,-13.7562"/>
</g>
<!-- &#45;11 -->
<g id="node11" class="node"><title>&#45;11</title>
<polygon fill="lightgray" stroke="black" points="710.084,-95.9117 681.084,-95.9117 681.084,-77.9117 710.084,-77.9117 710.084,-95.9117"/>
<text text-anchor="middle" x="695.584" y="-84.7117" font-family="Times New Roman,serif" font-size="9.00">&#45;11</text>
</g>
<!-- &#45;11&#45;&gt;0 -->
<g id="edge41" class="edge"><title>&#45;11&#45;&gt;0</title>
<path fill="none" stroke="red" stroke-width="0.164684" d="M702.423,-77.8821C706.619,-73.5211 712.369,-68.4678 718.584,-65.6985 790.675,-33.5783 1036.64,-20.3649 1116.4,-16.8604"/>
<polygon fill="red" stroke="red" stroke-width="0.164684" points="1116.67,-20.3521 1126.51,-16.4294 1116.37,-13.3584 1116.67,-20.3521"/>
</g>
<!-- &#45;11&#45;&gt;1 -->
<g id="edge42" class="edge"><title>&#45;11&#45;&gt;1</title>
<path fill="none" stroke="green" stroke-width="0.517792" d="M702.364,-77.7446C706.54,-73.3378 712.29,-68.2845 718.584,-65.6985 738.133,-57.6662 1402.94,-24.0325 1541.46,-17.1016"/>
<polygon fill="green" stroke="green" stroke-width="0.517792" points="1541.72,-20.5931 1551.53,-16.5983 1541.37,-13.6019 1541.72,-20.5931"/>
</g>
<!-- &#45;11&#45;&gt;3 -->
<g id="edge43" class="edge"><title>&#45;11&#45;&gt;3</title>
<path fill="none" stroke="red" stroke-width="0.400852" d="M702.385,-77.7956C706.569,-73.4058 712.319,-68.3525 718.584,-65.6985 810.346,-26.8285 1066.87,-43.3918 1165.58,-29.6985 1180.88,-27.5763 1197.88,-24.2365 1211.3,-21.3684"/>
<polygon fill="red" stroke="red" stroke-width="0.400852" points="1212.17,-24.7608 1221.19,-19.2016 1210.67,-17.9229 1212.17,-24.7608"/>
</g>
<!-- &#45;12 -->
<g id="node12" class="node"><title>&#45;12</title>
<polygon fill="lightgray" stroke="black" points="1705.08,-95.9117 1676.08,-95.9117 1676.08,-77.9117 1705.08,-77.9117 1705.08,-95.9117"/>
<text text-anchor="middle" x="1690.58" y="-84.7117" font-family="Times New Roman,serif" font-size="9.00">&#45;12</text>
</g>
<!-- &#45;12&#45;&gt;0 -->
<g id="edge44" class="edge"><title>&#45;12&#45;&gt;0</title>
<path fill="none" stroke="red" stroke-width="0.145294" d="M1683.42,-77.7907C1679.03,-73.3993 1673.03,-68.346 1666.58,-65.6985 1572.75,-27.188 1312.06,-43.5647 1211.58,-29.6985 1196.28,-27.587 1179.28,-24.2475 1165.87,-21.3769"/>
<polygon fill="red" stroke="red" stroke-width="0.145294" points="1166.5,-17.9316 1155.98,-19.2076 1165,-24.769 1166.5,-17.9316"/>
</g>
<!-- &#45;12&#45;&gt;1 -->
<g id="edge45" class="edge"><title>&#45;12&#45;&gt;1</title>
<path fill="none" stroke="green" stroke-width="0.114333" d="M1682.09,-77.8976C1677.66,-73.9532 1672.05,-69.2875 1666.58,-65.6985 1641.5,-49.2237 1610.22,-34.4579 1589.39,-25.351"/>
<polygon fill="green" stroke="green" stroke-width="0.114333" points="1590.64,-22.0811 1580.08,-21.3522 1587.88,-28.5134 1590.64,-22.0811"/>
</g>
<!-- &#45;12&#45;&gt;2 -->
<g id="edge46" class="edge"><title>&#45;12&#45;&gt;2</title>
<path fill="none" stroke="red" stroke-width="0.273544" d="M1684.05,-77.8746C1675.62,-67.5161 1660.69,-49.1677 1649.25,-35.1057"/>
<polygon fill="red" stroke="red" stroke-width="0.273544" points="1651.69,-32.5621 1642.67,-27.0138 1646.26,-36.9797 1651.69,-32.5621"/>
</g>
<!-- &#45;12&#45;&gt;3 -->
<g id="edge47" class="edge"><title>&#45;12&#45;&gt;3</title>
<path fill="none" stroke="red" stroke-width="0.221574" d="M1683.39,-77.8779C1678.99,-73.5156 1672.99,-68.4623 1666.58,-65.6985 1592.61,-33.7617 1341.27,-20.3897 1260.68,-16.8577"/>
<polygon fill="red" stroke="red" stroke-width="0.221574" points="1260.61,-13.352 1250.47,-16.4238 1260.32,-20.3456 1260.61,-13.352"/>
</g>
<!-- &#45;13 -->
<g id="node13" class="node"><title>&#45;13</title>
<polygon fill="lightgray" stroke="black" points="1752.08,-95.9117 1723.08,-95.9117 1723.08,-77.9117 1752.08,-77.9117 1752.08,-95.9117"/>
<text text-anchor="middle" x="1737.58" y="-84.7117" font-family="Times New Roman,serif" font-size="9.00">&#45;13</text>
</g>
<!-- &#45;13&#45;&gt;0 -->
<g id="edge48" class="edge"><title>&#45;13&#45;&gt;0</title>
<path fill="none" stroke="red" stroke-width="0.103547" d="M1730.43,-77.7729C1726.04,-73.3755 1720.04,-68.3222 1713.58,-65.6985 1609.96,-23.6149 1322.43,-44.5803 1211.58,-29.6985 1196.28,-27.6434 1179.28,-24.3053 1165.86,-21.4214"/>
<polygon fill="red" stroke="red" stroke-width="0.103547" points="1166.5,-17.9766 1155.98,-19.239 1164.99,-24.8121 1166.5,-17.9766"/>
</g>
<!-- &#45;13&#45;&gt;1 -->
<g id="edge49" class="edge"><title>&#45;13&#45;&gt;1</title>
<path fill="none" stroke="green" stroke-width="0.405941" d="M1729.28,-77.5774C1724.91,-73.5515 1719.28,-68.9094 1713.58,-65.6985 1708.02,-62.563 1630.14,-36.7537 1590.06,-23.5574"/>
<polygon fill="green" stroke="green" stroke-width="0.405941" points="1591.12,-20.2207 1580.52,-20.4212 1588.93,-26.8703 1591.12,-20.2207"/>
</g>
<!-- &#45;13&#45;&gt;2 -->
<g id="edge50" class="edge"><title>&#45;13&#45;&gt;2</title>
<path fill="none" stroke="green" stroke-width="0.302157" d="M1728.49,-77.7218C1724.1,-73.9128 1718.7,-69.4142 1713.58,-65.6985 1694.44,-51.7826 1671.4,-37.681 1654.97,-28.0445"/>
<polygon fill="green" stroke="green" stroke-width="0.302157" points="1656.54,-24.9129 1646.14,-22.9218 1653.03,-30.9676 1656.54,-24.9129"/>
</g>
<!-- &#45;13&#45;&gt;3 -->
<g id="edge51" class="edge"><title>&#45;13&#45;&gt;3</title>
<path fill="none" stroke="red" stroke-width="0.266889" d="M1730.4,-77.8509C1726,-73.4796 1720,-68.4263 1713.58,-65.6985 1630.64,-30.442 1347.29,-19.1908 1260.84,-16.537"/>
<polygon fill="red" stroke="red" stroke-width="0.266889" points="1260.73,-13.0325 1250.64,-16.2362 1260.53,-20.0295 1260.73,-13.0325"/>
</g>
<!-- &#45;14 -->
<g id="node14" class="node"><title>&#45;14</title>
<polygon fill="lightgray" stroke="black" points="1799.08,-95.9117 1770.08,-95.9117 1770.08,-77.9117 1799.08,-77.9117 1799.08,-95.9117"/>
<text text-anchor="middle" x="1784.58" y="-84.7117" font-family="Times New Roman,serif" font-size="9.00">&#45;14</text>
</g>
<!-- &#45;14&#45;&gt;0 -->
<g id="edge52" class="edge"><title>&#45;14&#45;&gt;0</title>
<path fill="none" stroke="green" stroke-width="0.344635" d="M1777.8,-77.7603C1773.62,-73.3587 1767.87,-68.3054 1761.58,-65.6985 1648.45,-18.7716 1333.03,-45.6182 1211.58,-29.6985 1196.27,-27.6911 1179.27,-24.3543 1165.86,-21.459"/>
<polygon fill="green" stroke="green" stroke-width="0.344635" points="1166.49,-18.0148 1155.97,-19.2655 1164.98,-24.8486 1166.49,-18.0148"/>
</g>
<!-- &#45;14&#45;&gt;1 -->
<g id="edge53" class="edge"><title>&#45;14&#45;&gt;1</title>
<path fill="none" stroke="red" stroke-width="0.315396" d="M1777.22,-77.7443C1773.02,-73.5605 1767.44,-68.7236 1761.58,-65.6985 1699.9,-33.8383 1676.46,-48.3547 1609.58,-29.6985 1603.29,-27.9432 1596.54,-25.8643 1590.3,-23.8581"/>
<polygon fill="red" stroke="red" stroke-width="0.315396" points="1591.04,-20.4155 1580.44,-20.6204 1588.85,-27.066 1591.04,-20.4155"/>
</g>
<!-- &#45;14&#45;&gt;2 -->
<g id="edge54" class="edge"><title>&#45;14&#45;&gt;2</title>
<path fill="none" stroke="green" stroke-width="0.523115" d="M1776.62,-77.6643C1772.43,-73.6605 1767.04,-69.012 1761.58,-65.6985 1727.76,-45.1392 1684,-30.2855 1657.39,-22.3806"/>
<polygon fill="green" stroke="green" stroke-width="0.523115" points="1658.35,-19.0136 1647.77,-19.6029 1656.41,-25.739 1658.35,-19.0136"/>
</g>
<!-- &#45;14&#45;&gt;3 -->
<g id="edge55" class="edge"><title>&#45;14&#45;&gt;3</title>
<path fill="none" stroke="green" stroke-width="0.317469" d="M1777.77,-77.8287C1773.58,-73.45 1767.83,-68.3967 1761.58,-65.6985 1715.21,-45.6691 1359.25,-23.2037 1260.77,-17.3215"/>
<polygon fill="green" stroke="green" stroke-width="0.317469" points="1260.75,-13.8144 1250.56,-16.7164 1260.33,-20.8021 1260.75,-13.8144"/>
</g>
<!-- &#45;15 -->
<g id="node15" class="node"><title>&#45;15</title>
<polygon fill="lightgray" stroke="black" points="1846.08,-95.9117 1817.08,-95.9117 1817.08,-77.9117 1846.08,-77.9117 1846.08,-95.9117"/>
<text text-anchor="middle" x="1831.58" y="-84.7117" font-family="Times New Roman,serif" font-size="9.00">&#45;15</text>
</g>
<!-- &#45;15&#45;&gt;0 -->
<g id="edge56" class="edge"><title>&#45;15&#45;&gt;0</title>
<path fill="none" stroke="red" stroke-width="0.251415" d="M1824.8,-77.7482C1820.63,-73.3426 1814.88,-68.2893 1808.58,-65.6985 1685.69,-15.0932 1343.41,-46.6347 1211.58,-29.6985 1196.27,-27.7304 1179.27,-24.3946 1165.85,-21.49"/>
<polygon fill="red" stroke="red" stroke-width="0.251415" points="1166.49,-18.0462 1155.97,-19.2874 1164.97,-24.8786 1166.49,-18.0462"/>
</g>
<!-- &#45;15&#45;&gt;1 -->
<g id="edge57" class="edge"><title>&#45;15&#45;&gt;1</title>
<path fill="none" stroke="green" stroke-width="0.133012" d="M1824.28,-77.6183C1820.1,-73.3976 1814.52,-68.5656 1808.58,-65.6985 1727.65,-26.6051 1696.77,-51.5236 1609.58,-29.6985 1603.25,-28.1124 1596.48,-26.0926 1590.24,-24.0892"/>
<polygon fill="green" stroke="green" stroke-width="0.133012" points="1590.99,-20.6487 1580.39,-20.8123 1588.78,-27.2906 1590.99,-20.6487"/>
</g>
<!-- &#45;15&#45;&gt;2 -->
<g id="edge58" class="edge"><title>&#45;15&#45;&gt;2</title>
<path fill="none" stroke="red" stroke-width="0.309758" stroke-dasharray="1,5" d="M1824.16,-77.8487C1819.95,-73.6954 1814.37,-68.8544 1808.58,-65.6985 1759.28,-38.8129 1694.07,-25.2294 1658.81,-19.4379"/>
<polygon fill="red" stroke="red" stroke-width="0.309758" points="1658.9,-15.9088 1648.48,-17.8243 1657.82,-22.825 1658.9,-15.9088"/>
</g>
<!-- &#45;15&#45;&gt;3 -->
<g id="edge59" class="edge"><title>&#45;15&#45;&gt;3</title>
<path fill="none" stroke="red" stroke-width="0.12832" d="M1824.78,-77.8107C1820.59,-73.4259 1814.84,-68.3726 1808.58,-65.6985 1757.64,-43.9272 1364.45,-22.4426 1260.65,-17.1072"/>
<polygon fill="red" stroke="red" stroke-width="0.12832" points="1260.65,-13.6029 1250.48,-16.5891 1260.29,-20.5938 1260.65,-13.6029"/>
</g>
<!-- &#45;16 -->
<g id="node16" class="node"><title>&#45;16</title>
<polygon fill="lightgray" stroke="black" points="1893.08,-95.9117 1864.08,-95.9117 1864.08,-77.9117 1893.08,-77.9117 1893.08,-95.9117"/>
<text text-anchor="middle" x="1878.58" y="-84.7117" font-family="Times New Roman,serif" font-size="9.00">&#45;16</text>
</g>
<!-- &#45;16&#45;&gt;0 -->
<g id="edge60" class="edge"><title>&#45;16&#45;&gt;0</title>
<path fill="none" stroke="red" stroke-width="0.274662" d="M1871.81,-77.7378C1867.63,-73.3288 1861.88,-68.2755 1855.58,-65.6985 1722.93,-11.4139 1353.79,-47.6516 1211.58,-29.6985 1196.26,-27.764 1179.26,-24.4291 1165.85,-21.5166"/>
<polygon fill="red" stroke="red" stroke-width="0.274662" points="1166.49,-18.0731 1155.97,-19.3062 1164.96,-24.9043 1166.49,-18.0731"/>
</g>
<!-- &#45;16&#45;&gt;1 -->
<g id="edge61" class="edge"><title>&#45;16&#45;&gt;1</title>
<path fill="none" stroke="green" stroke-width="0.597964" d="M1871.32,-77.5383C1867.15,-73.2942 1861.57,-68.4653 1855.58,-65.6985 1755.29,-19.3186 1717.21,-54.7224 1609.58,-29.6985 1603.22,-28.2193 1596.45,-26.2368 1590.21,-24.2351"/>
<polygon fill="green" stroke="green" stroke-width="0.597964" points="1590.96,-20.7957 1580.36,-20.9335 1588.73,-27.4323 1590.96,-20.7957"/>
</g>
<!-- &#45;16&#45;&gt;2 -->
<g id="edge62" class="edge"><title>&#45;16&#45;&gt;2</title>
<path fill="none" stroke="green" stroke-width="0.182514" d="M1871.23,-77.717C1867.04,-73.5252 1861.46,-68.6893 1855.58,-65.6985 1789.52,-32.064 1701.02,-20.9538 1658.47,-17.4191"/>
<polygon fill="green" stroke="green" stroke-width="0.182514" points="1658.69,-13.9255 1648.45,-16.6583 1658.16,-20.9054 1658.69,-13.9255"/>
</g>
<!-- &#45;16&#45;&gt;3 -->
<g id="edge63" class="edge"><title>&#45;16&#45;&gt;3</title>
<path fill="none" stroke="red" stroke-width="0.52109" d="M1871.78,-77.7953C1867.6,-73.4054 1861.85,-68.3521 1855.58,-65.6985 1800.07,-42.1858 1369.56,-21.7594 1260.59,-16.9288"/>
<polygon fill="red" stroke="red" stroke-width="0.52109" points="1260.67,-13.4291 1250.52,-16.4868 1260.36,-20.4224 1260.67,-13.4291"/>
</g>
<!-- &#45;17 -->
<g id="node17" class="node"><title>&#45;17</title>
<polygon fill="lightgray" stroke="black" points="1940.08,-95.9117 1911.08,-95.9117 1911.08,-77.9117 1940.08,-77.9117 1940.08,-95.9117"/>
<text text-anchor="middle" x="1925.58" y="-84.7117" font-family="Times New Roman,serif" font-size="9.00">&#45;17</text>
</g>
<!-- &#45;17&#45;&gt;0 -->
<g id="edge64" class="edge"><title>&#45;17&#45;&gt;0</title>
<path fill="none" stroke="red" stroke-width="0.190349" d="M1918.81,-77.7289C1914.64,-73.3169 1908.89,-68.2636 1902.58,-65.6985 1760.16,-7.73388 1364.17,-48.6687 1211.58,-29.6985 1196.26,-27.793 1179.26,-24.4589 1165.85,-21.5395"/>
<polygon fill="red" stroke="red" stroke-width="0.190349" points="1166.49,-18.0963 1155.97,-19.3224 1164.96,-24.9265 1166.49,-18.0963"/>
</g>
<!-- &#45;17&#45;&gt;1 -->
<g id="edge65" class="edge"><title>&#45;17&#45;&gt;1</title>
<path fill="none" stroke="green" stroke-width="0.528306" d="M1918.74,-77.8936C1914.54,-73.5365 1908.79,-68.4832 1902.58,-65.6985 1782.87,-12.005 1737.71,-57.9359 1609.58,-29.6985 1603.21,-28.2927 1596.43,-26.3359 1590.18,-24.3354"/>
<polygon fill="green" stroke="green" stroke-width="0.528306" points="1590.94,-20.8967 1580.34,-21.0168 1588.7,-27.5295 1590.94,-20.8967"/>
</g>
<!-- &#45;17&#45;&gt;2 -->
<g id="edge66" class="edge"><title>&#45;17&#45;&gt;2</title>
<path fill="none" stroke="red" stroke-width="0.316909" d="M1918.27,-77.6284C1914.1,-73.4106 1908.51,-68.5782 1902.58,-65.6985 1819.57,-25.3806 1707.6,-17.5481 1658.46,-16.1145"/>
<polygon fill="red" stroke="red" stroke-width="0.316909" points="1658.5,-12.6147 1648.43,-15.8878 1658.35,-19.6129 1658.5,-12.6147"/>
</g>
<!-- &#45;17&#45;&gt;3 -->
<g id="edge67" class="edge"><title>&#45;17&#45;&gt;3</title>
<path fill="none" stroke="red" stroke-width="0.142933" d="M1918.79,-77.7821C1914.61,-73.3877 1908.86,-68.3344 1902.58,-65.6985 1842.49,-40.4485 1374.75,-21.1448 1260.63,-16.7796"/>
<polygon fill="red" stroke="red" stroke-width="0.142933" points="1260.56,-13.2745 1250.43,-16.3935 1260.3,-20.2695 1260.56,-13.2745"/>
</g>
<!-- &#45;18 -->
<g id="node18" class="node"><title>&#45;18</title>
<polygon fill="lightgray" stroke="black" points="2483.08,-162.125 2454.08,-162.125 2454.08,-144.125 2483.08,-144.125 2483.08,-162.125"/>
<text text-anchor="middle" x="2468.58" y="-150.925" font-family="Times New Roman,serif" font-size="9.00">&#45;18</text>
</g>
<!-- &#45;18&#45;&gt;0 -->
<g id="edge68" class="edge"><title>&#45;18&#45;&gt;0</title>
<path fill="none" stroke="red" stroke-width="0.33274" stroke-dasharray="1,5" d="M2453.85,-150.215C2438.38,-148.297 2413.32,-145.444 2391.58,-144.125 2335.32,-140.709 402.089,-148.336 362.584,-108.125 349.37,-94.6738 349.684,-79.451 362.584,-65.6985 388.992,-37.5467 985.538,-20.0171 1116.37,-16.5034"/>
<polygon fill="red" stroke="red" stroke-width="0.33274" points="1116.69,-19.9961 1126.6,-16.2319 1116.51,-12.9986 1116.69,-19.9961"/>
</g>
<!-- &#45;18&#45;&gt;1 -->
<g id="edge69" class="edge"><title>&#45;18&#45;&gt;1</title>
<path fill="none" stroke="red" stroke-width="0.169888" d="M2469.66,-144.103C2471.49,-126.679 2472.99,-85.3612 2449.58,-65.6985 2378.05,-5.61535 1701.54,-46.1665 1609.58,-29.6985 1603.15,-28.5471 1596.36,-26.6791 1590.11,-24.6827"/>
<polygon fill="red" stroke="red" stroke-width="0.169888" points="1590.88,-21.2459 1580.29,-21.3054 1588.61,-27.8658 1590.88,-21.2459"/>
</g>
<!-- &#45;18&#45;&gt;2 -->
<g id="edge70" class="edge"><title>&#45;18&#45;&gt;2</title>
<path fill="none" stroke="green" stroke-width="0.149944" d="M2483.33,-150.436C2520.09,-145.892 2614.19,-132.1 2632.58,-108.125 2644.06,-93.1634 2645.58,-79.36 2632.58,-65.6985 2597.99,-29.3361 1810.97,-17.9936 1658.89,-16.138"/>
<polygon fill="green" stroke="green" stroke-width="0.149944" points="1658.73,-12.636 1648.69,-16.0163 1658.65,-19.6355 1658.73,-12.636"/>
</g>
<!-- &#45;18&#45;&gt;3 -->
<g id="edge71" class="edge"><title>&#45;18&#45;&gt;3</title>
<path fill="none" stroke="red" stroke-width="0.389449" d="M2453.85,-150.227C2438.38,-148.32 2413.32,-145.475 2391.58,-144.125 2342.97,-141.106 672.668,-142.916 638.584,-108.125 625.389,-94.6554 625.713,-79.4787 638.584,-65.6985 678.647,-22.8061 1107.4,-37.4097 1165.58,-29.6985 1180.9,-27.6693 1197.9,-24.3319 1211.31,-21.4418"/>
<polygon fill="red" stroke="red" stroke-width="0.389449" points="1212.19,-24.8319 1221.19,-19.2534 1210.67,-17.9974 1212.19,-24.8319"/>
</g>
<!-- 181 -->
<g id="node48" class="node"><title>181</title>
<ellipse fill="white" stroke="black" cx="2745.58" cy="-86.9117" rx="21.4286" ry="21.4286"/>
<text text-anchor="middle" x="2745.58" y="-84.7117" font-family="Times New Roman,serif" font-size="9.00">181</text>
</g>
<!-- &#45;18&#45;&gt;181 -->
<g id="edge157" class="edge"><title>&#45;18&#45;&gt;181</title>
<path fill="none" stroke="green" stroke-width="0.218567" d="M2483.22,-151.214C2521.63,-148.456 2628,-138.437 2710.58,-108.125 2713.52,-107.047 2716.49,-105.733 2719.4,-104.296"/>
<polygon fill="green" stroke="green" stroke-width="0.218567" points="2721.24,-107.28 2728.36,-99.4308 2717.9,-101.13 2721.24,-107.28"/>
</g>
<!-- &#45;19 -->
<g id="node19" class="node"><title>&#45;19</title>
<polygon fill="lightgray" stroke="black" points="1987.08,-95.9117 1958.08,-95.9117 1958.08,-77.9117 1987.08,-77.9117 1987.08,-95.9117"/>
<text text-anchor="middle" x="1972.58" y="-84.7117" font-family="Times New Roman,serif" font-size="9.00">&#45;19</text>
</g>
<!-- &#45;19&#45;&gt;0 -->
<g id="edge72" class="edge"><title>&#45;19&#45;&gt;0</title>
<path fill="none" stroke="red" stroke-width="0.169702" d="M1965.81,-77.7211C1961.64,-73.3064 1955.89,-68.2531 1949.58,-65.6985 1797.4,-4.05335 1374.56,-49.686 1211.58,-29.6985 1196.25,-27.8184 1179.25,-24.4849 1165.85,-21.5595"/>
<polygon fill="red" stroke="red" stroke-width="0.169702" points="1166.49,-18.1166 1155.96,-19.3365 1164.95,-24.9459 1166.49,-18.1166"/>
</g>
<!-- &#45;19&#45;&gt;1 -->
<g id="edge73" class="edge"><title>&#45;19&#45;&gt;1</title>
<path fill="none" stroke="green" stroke-width="0.426298" stroke-dasharray="1,5" d="M1965.76,-77.8545C1961.57,-73.4843 1955.82,-68.431 1949.58,-65.6985 1810.42,-4.67577 1758.25,-61.1577 1609.58,-29.6985 1603.19,-28.3462 1596.41,-26.4081 1590.17,-24.4084"/>
<polygon fill="green" stroke="green" stroke-width="0.426298" points="1590.93,-20.9703 1580.33,-21.0775 1588.68,-27.6004 1590.93,-20.9703"/>
</g>
<!-- &#45;19&#45;&gt;2 -->
<g id="edge74" class="edge"><title>&#45;19&#45;&gt;2</title>
<path fill="none" stroke="green" stroke-width="0.107174" d="M1965.31,-77.5649C1961.13,-73.3285 1955.55,-68.4986 1949.58,-65.6985 1849.63,-18.7955 1714.35,-14.6774 1658.89,-15.1785"/>
<polygon fill="green" stroke="green" stroke-width="0.107174" points="1658.55,-11.6833 1648.6,-15.3354 1658.65,-18.6824 1658.55,-11.6833"/>
</g>
<!-- &#45;19&#45;&gt;3 -->
<g id="edge75" class="edge"><title>&#45;19&#45;&gt;3</title>
<path fill="none" stroke="green" stroke-width="0.112856" d="M1965.79,-77.7705C1961.61,-73.3724 1955.86,-68.3191 1949.58,-65.6985 1917.13,-52.1532 1383.5,-23.5707 1260.66,-17.1486"/>
<polygon fill="green" stroke="green" stroke-width="0.112856" points="1260.55,-13.6384 1250.39,-16.6131 1260.19,-20.6289 1260.55,-13.6384"/>
</g>
<!-- &#45;20 -->
<g id="node20" class="node"><title>&#45;20</title>
<polygon fill="lightgray" stroke="black" points="2196.08,-95.9117 2167.08,-95.9117 2167.08,-77.9117 2196.08,-77.9117 2196.08,-95.9117"/>
<text text-anchor="middle" x="2181.58" y="-84.7117" font-family="Times New Roman,serif" font-size="9.00">&#45;20</text>
</g>
<!-- &#45;20&#45;&gt;1 -->
<g id="edge76" class="edge"><title>&#45;20&#45;&gt;1</title>
<path fill="none" stroke="red" stroke-width="0.202066" d="M2172.64,-77.7557C2167.25,-73.3526 2160,-68.2993 2152.58,-65.6985 1924.36,14.3799 1847.15,-75.1135 1609.58,-29.6985 1603.17,-28.472 1596.38,-26.5779 1590.13,-24.5802"/>
<polygon fill="red" stroke="red" stroke-width="0.202066" points="1590.9,-21.1429 1580.3,-21.2202 1588.63,-27.7667 1590.9,-21.1429"/>
</g>
<!-- &#45;20&#45;&gt;2 -->
<g id="edge77" class="edge"><title>&#45;20&#45;&gt;2</title>
<path fill="none" stroke="red" stroke-width="0.198457" d="M2172.61,-77.8376C2167.21,-73.4619 2159.96,-68.4086 2152.58,-65.6985 2060.22,-31.7481 1750.36,-19.5084 1659.09,-16.5909"/>
<polygon fill="red" stroke="red" stroke-width="0.198457" points="1658.94,-13.0849 1648.84,-16.2736 1658.73,-20.0815 1658.94,-13.0849"/>
</g>
<!-- &#45;20&#45;&gt;3 -->
<g id="edge78" class="edge"><title>&#45;20&#45;&gt;3</title>
<path fill="none" stroke="green" stroke-width="0.4038" d="M2166.73,-83.3178C2141.5,-79.0064 2088.62,-70.3778 2043.58,-65.6985 1885.99,-49.3241 1379.19,-23.1231 1260.58,-17.1079"/>
<polygon fill="green" stroke="green" stroke-width="0.4038" points="1260.51,-13.5996 1250.34,-16.5898 1260.15,-20.5907 1260.51,-13.5996"/>
</g>
<!-- &#45;21 -->
<g id="node21" class="node"><title>&#45;21</title>
<polygon fill="lightgray" stroke="black" points="2034.08,-95.9117 2005.08,-95.9117 2005.08,-77.9117 2034.08,-77.9117 2034.08,-95.9117"/>
<text text-anchor="middle" x="2019.58" y="-84.7117" font-family="Times New Roman,serif" font-size="9.00">&#45;21</text>
</g>
<!-- &#45;21&#45;&gt;0 -->
<g id="edge79" class="edge"><title>&#45;21&#45;&gt;0</title>
<path fill="none" stroke="green" stroke-width="0.232952" d="M2012.82,-77.7142C2008.64,-73.2972 2002.89,-68.2439 1996.58,-65.6985 1834.64,-0.372383 1384.94,-50.7034 1211.58,-29.6985 1196.25,-27.8407 1179.25,-24.5078 1165.84,-21.5772"/>
<polygon fill="green" stroke="green" stroke-width="0.232952" points="1166.49,-18.1344 1155.96,-19.3489 1164.95,-24.963 1166.49,-18.1344"/>
</g>
<!-- &#45;21&#45;&gt;1 -->
<g id="edge80" class="edge"><title>&#45;21&#45;&gt;1</title>
<path fill="none" stroke="green" stroke-width="0.427293" d="M2012.77,-77.8247C2008.58,-73.4446 2002.83,-68.3913 1996.58,-65.6985 1837.94,2.66324 1778.81,-64.3845 1609.58,-29.6985 1603.19,-28.3869 1596.4,-26.4631 1590.15,-24.464"/>
<polygon fill="green" stroke="green" stroke-width="0.427293" points="1590.92,-21.0262 1580.32,-21.1237 1588.66,-27.6542 1590.92,-21.0262"/>
</g>
<!-- &#45;21&#45;&gt;2 -->
<g id="edge81" class="edge"><title>&#45;21&#45;&gt;2</title>
<path fill="none" stroke="green" stroke-width="0.210878" d="M2012.33,-77.5172C2008.16,-73.2669 2002.58,-68.4388 1996.58,-65.6985 1935.9,-37.9607 1730.92,-22.2089 1658.88,-17.4249"/>
<polygon fill="green" stroke="green" stroke-width="0.210878" points="1658.71,-13.9064 1648.5,-16.7512 1658.25,-20.8917 1658.71,-13.9064"/>
</g>
<!-- &#45;21&#45;&gt;3 -->
<g id="edge82" class="edge"><title>&#45;21&#45;&gt;3</title>
<path fill="none" stroke="green" stroke-width="0.24655" d="M2012.8,-77.7604C2008.62,-73.3589 2002.87,-68.3056 1996.58,-65.6985 1961.82,-51.2794 1388.42,-23.1465 1260.68,-17.0378"/>
<polygon fill="green" stroke="green" stroke-width="0.24655" points="1260.51,-13.5261 1250.35,-16.5459 1260.18,-20.5181 1260.51,-13.5261"/>
</g>
<!-- &#45;22 -->
<g id="node22" class="node"><title>&#45;22</title>
<polygon fill="lightgray" stroke="black" points="757.084,-95.9117 728.084,-95.9117 728.084,-77.9117 757.084,-77.9117 757.084,-95.9117"/>
<text text-anchor="middle" x="742.584" y="-84.7117" font-family="Times New Roman,serif" font-size="9.00">&#45;22</text>
</g>
<!-- &#45;22&#45;&gt;0 -->
<g id="edge83" class="edge"><title>&#45;22&#45;&gt;0</title>
<path fill="none" stroke="green" stroke-width="0.2145" d="M749.836,-77.506C753.999,-73.2524 759.583,-68.4248 765.584,-65.6985 828.74,-37.0084 1042.61,-21.7782 1116.35,-17.2853"/>
<polygon fill="green" stroke="green" stroke-width="0.2145" points="1116.78,-20.7657 1126.56,-16.6778 1116.37,-13.7781 1116.78,-20.7657"/>
</g>
<!-- &#45;22&#45;&gt;1 -->
<g id="edge84" class="edge"><title>&#45;22&#45;&gt;1</title>
<path fill="none" stroke="red" stroke-width="0.256449" d="M749.367,-77.7527C753.545,-73.3487 759.295,-68.2954 765.584,-65.6985 802.304,-50.5368 1409.52,-22.8175 1541.43,-16.9561"/>
<polygon fill="red" stroke="red" stroke-width="0.256449" points="1541.89,-20.4392 1551.72,-16.5001 1541.58,-13.446 1541.89,-20.4392"/>
</g>
<!-- &#45;22&#45;&gt;2 -->
<g id="edge85" class="edge"><title>&#45;22&#45;&gt;2</title>
<path fill="none" stroke="green" stroke-width="0.129932" d="M749.349,-77.7089C753.521,-73.2902 759.271,-68.2369 765.584,-65.6985 935.844,2.76065 1409.96,-62.1178 1590.58,-29.6985 1597.01,-28.5446 1603.81,-26.6757 1610.05,-24.6793"/>
<polygon fill="green" stroke="green" stroke-width="0.129932" points="1611.56,-27.8625 1619.88,-21.3025 1609.29,-21.2425 1611.56,-27.8625"/>
</g>
<!-- &#45;22&#45;&gt;3 -->
<g id="edge86" class="edge"><title>&#45;22&#45;&gt;3</title>
<path fill="none" stroke="red" stroke-width="0.279291" d="M749.395,-77.8177C753.581,-73.4352 759.331,-68.3819 765.584,-65.6985 929.614,4.69443 988.898,-55.0555 1165.58,-29.6985 1180.87,-27.5044 1197.87,-24.1628 1211.29,-21.3116"/>
<polygon fill="red" stroke="red" stroke-width="0.279291" points="1212.15,-24.7057 1221.18,-19.1615 1210.67,-17.8655 1212.15,-24.7057"/>
</g>
<!-- &#45;23 -->
<g id="node23" class="node"><title>&#45;23</title>
<polygon fill="lightgray" stroke="black" points="804.084,-95.9117 775.084,-95.9117 775.084,-77.9117 804.084,-77.9117 804.084,-95.9117"/>
<text text-anchor="middle" x="789.584" y="-84.7117" font-family="Times New Roman,serif" font-size="9.00">&#45;23</text>
</g>
<!-- &#45;23&#45;&gt;0 -->
<g id="edge87" class="edge"><title>&#45;23&#45;&gt;0</title>
<path fill="none" stroke="green" stroke-width="0.238051" d="M796.857,-77.5504C801.025,-73.3098 806.608,-68.4804 812.584,-65.6985 866.909,-40.4094 1049.24,-23.3718 1116.44,-17.8191"/>
<polygon fill="green" stroke="green" stroke-width="0.238051" points="1116.86,-21.2961 1126.55,-16.9991 1116.3,-14.319 1116.86,-21.2961"/>
</g>
<!-- &#45;23&#45;&gt;1 -->
<g id="edge88" class="edge"><title>&#45;23&#45;&gt;1</title>
<path fill="none" stroke="red" stroke-width="0.346043" d="M796.371,-77.7618C800.55,-73.3608 806.3,-68.3075 812.584,-65.6985 846.986,-51.4163 1413.94,-23.2339 1541.32,-17.0621"/>
<polygon fill="red" stroke="red" stroke-width="0.346043" points="1541.8,-20.5428 1551.62,-16.5644 1541.46,-13.551 1541.8,-20.5428"/>
</g>
<!-- &#45;23&#45;&gt;2 -->
<g id="edge89" class="edge"><title>&#45;23&#45;&gt;2</title>
<path fill="none" stroke="red" stroke-width="0.593487" stroke-dasharray="1,5" d="M796.352,-77.7151C800.524,-73.2985 806.274,-68.2452 812.584,-65.6985 973.078,-0.920638 1420.27,-60.4985 1590.58,-29.6985 1597.01,-28.5361 1603.81,-26.6643 1610.05,-24.6677"/>
<polygon fill="red" stroke="red" stroke-width="0.593487" points="1611.56,-27.8513 1619.88,-21.2929 1609.28,-21.2309 1611.56,-27.8513"/>
</g>
<!-- &#45;23&#45;&gt;3 -->
<g id="edge90" class="edge"><title>&#45;23&#45;&gt;3</title>
<path fill="none" stroke="green" stroke-width="0.158451" d="M796.407,-77.8455C800.597,-73.4723 806.347,-68.419 812.584,-65.6985 957.134,-2.64664 1009.62,-53.0279 1165.58,-29.6985 1180.86,-27.4137 1197.86,-24.0697 1211.28,-21.24"/>
<polygon fill="green" stroke="green" stroke-width="0.158451" points="1212.13,-24.6362 1221.17,-19.111 1210.66,-17.7928 1212.13,-24.6362"/>
</g>
<!-- &#45;24 -->
<g id="node24" class="node"><title>&#45;24</title>
<polygon fill="lightgray" stroke="black" points="2809.08,-162.125 2780.08,-162.125 2780.08,-144.125 2809.08,-144.125 2809.08,-162.125"/>
<text text-anchor="middle" x="2794.58" y="-150.925" font-family="Times New Roman,serif" font-size="9.00">&#45;24</text>
</g>
<!-- &#45;24&#45;&gt;0 -->
<g id="edge91" class="edge"><title>&#45;24&#45;&gt;0</title>
<path fill="none" stroke="green" stroke-width="0.379071" d="M2779.82,-151.687C2736.01,-150.397 2602.96,-146.552 2492.58,-144.125 2435.39,-142.867 473.678,-148.926 433.584,-108.125 420.368,-94.6755 420.728,-79.4921 433.584,-65.6985 481.041,-14.7825 996.25,-14.9117 1116.56,-15.6438"/>
<polygon fill="green" stroke="green" stroke-width="0.379071" points="1116.63,-19.1442 1126.65,-15.7126 1116.68,-12.1444 1116.63,-19.1442"/>
</g>
<!-- &#45;24&#45;&gt;1 -->
<g id="edge92" class="edge"><title>&#45;24&#45;&gt;1</title>
<path fill="none" stroke="red" stroke-width="0.224587" d="M2795.68,-144.082C2797.54,-126.616 2799.11,-85.2208 2775.58,-65.6985 2725.71,-24.314 1673.45,-40.7412 1609.58,-29.6985 1603.15,-28.5856 1596.35,-26.7311 1590.1,-24.7353"/>
<polygon fill="red" stroke="red" stroke-width="0.224587" points="1590.87,-21.2986 1580.28,-21.349 1588.59,-27.9166 1590.87,-21.2986"/>
</g>
<!-- &#45;24&#45;&gt;2 -->
<g id="edge93" class="edge"><title>&#45;24&#45;&gt;2</title>
<path fill="none" stroke="red" stroke-width="0.206995" d="M2809.13,-148.811C2827.86,-143.675 2859.66,-131.811 2873.58,-108.125 2883.14,-91.8682 2886.65,-79.297 2873.58,-65.6985 2829.95,-20.2769 1831.2,-16.2422 1658.81,-15.8841"/>
<polygon fill="red" stroke="red" stroke-width="0.206995" points="1658.68,-12.3839 1648.67,-15.8654 1658.67,-19.3839 1658.68,-12.3839"/>
</g>
<!-- &#45;24&#45;&gt;3 -->
<g id="edge94" class="edge"><title>&#45;24&#45;&gt;3</title>
<path fill="none" stroke="green" stroke-width="0.508156" d="M2779.82,-151.699C2736.01,-150.441 2602.96,-146.678 2492.58,-144.125 2442,-142.955 707.004,-144.252 671.584,-108.125 658.383,-94.6604 658.745,-79.5079 671.584,-65.6985 709.059,-25.3938 1111.04,-37.053 1165.58,-29.6985 1180.89,-27.6345 1197.89,-24.2963 1211.3,-21.4144"/>
<polygon fill="green" stroke="green" stroke-width="0.508156" points="1212.18,-24.8054 1221.19,-19.234 1210.67,-17.9696 1212.18,-24.8054"/>
</g>
<!-- 401 -->
<g id="node47" class="node"><title>401</title>
<ellipse fill="white" stroke="black" cx="2843.58" cy="-86.9117" rx="21.4286" ry="21.4286"/>
<text text-anchor="middle" x="2843.58" y="-84.7117" font-family="Times New Roman,serif" font-size="9.00">401</text>
</g>
<!-- &#45;24&#45;&gt;401 -->
<g id="edge159" class="edge"><title>&#45;24&#45;&gt;401</title>
<path fill="none" stroke="green" stroke-width="0.125027" d="M2800.79,-143.992C2806.82,-136.086 2816.3,-123.673 2824.8,-112.533"/>
<polygon fill="green" stroke="green" stroke-width="0.125027" points="2827.75,-114.431 2831.03,-104.358 2822.19,-110.185 2827.75,-114.431"/>
</g>
<!-- &#45;25 -->
<g id="node25" class="node"><title>&#45;25</title>
<polygon fill="lightgray" stroke="black" points="353.084,-162.125 324.084,-162.125 324.084,-144.125 353.084,-144.125 353.084,-162.125"/>
<text text-anchor="middle" x="338.584" y="-150.925" font-family="Times New Roman,serif" font-size="9.00">&#45;25</text>
</g>
<!-- &#45;25&#45;&gt;0 -->
<g id="edge95" class="edge"><title>&#45;25&#45;&gt;0</title>
<path fill="none" stroke="green" stroke-width="0.672805" d="M323.773,-152.579C265.269,-154.028 51.4257,-155.935 9.58426,-108.125 -2.83394,-93.9353 -3.45248,-79.322 9.58426,-65.6985 49.179,-24.3218 953.646,-16.9724 1116.56,-15.983"/>
<polygon fill="green" stroke="green" stroke-width="0.672805" points="1116.62,-19.4828 1126.6,-15.9245 1116.58,-12.4829 1116.62,-19.4828"/>
</g>
<!-- &#45;25&#45;&gt;1 -->
<g id="edge96" class="edge"><title>&#45;25&#45;&gt;1</title>
<path fill="none" stroke="red" stroke-width="0.386765" d="M353.092,-149.372C363.488,-147.527 377.845,-145.239 390.584,-144.125 436.337,-140.125 2011.46,-140.952 2043.58,-108.125 2056.77,-94.6472 2056.35,-79.572 2043.58,-65.6985 2010.81,-30.097 1657.03,-39.1775 1609.58,-29.6985 1603.18,-28.4189 1596.39,-26.5062 1590.15,-24.5077"/>
<polygon fill="red" stroke="red" stroke-width="0.386765" points="1590.91,-21.0701 1580.31,-21.16 1588.65,-27.6965 1590.91,-21.0701"/>
</g>
<!-- &#45;25&#45;&gt;2 -->
<g id="edge97" class="edge"><title>&#45;25&#45;&gt;2</title>
<path fill="none" stroke="red" stroke-width="0.11776" d="M353.09,-149.355C363.486,-147.502 377.843,-145.211 390.584,-144.125 447.581,-139.265 2409.49,-148.926 2449.58,-108.125 2462.8,-94.6755 2462.5,-79.4323 2449.58,-65.6985 2421.8,-36.1625 1793.1,-19.6295 1658.72,-16.4261"/>
<polygon fill="red" stroke="red" stroke-width="0.11776" points="1658.66,-12.9238 1648.58,-16.1875 1658.49,-19.9219 1658.66,-12.9238"/>
</g>
<!-- &#45;25&#45;&gt;3 -->
<g id="edge98" class="edge"><title>&#45;25&#45;&gt;3</title>
<path fill="none" stroke="green" stroke-width="0.179091" d="M342.394,-144.026C351.342,-126.065 375.619,-83.1058 410.584,-65.6985 485.767,-28.2689 1082.22,-39.8762 1165.58,-29.6985 1180.92,-27.8268 1197.92,-24.4935 1211.32,-21.5662"/>
<polygon fill="green" stroke="green" stroke-width="0.179091" points="1212.22,-24.9523 1221.21,-19.3412 1210.68,-18.1233 1212.22,-24.9523"/>
</g>
<!-- 701 -->
<g id="node45" class="node"><title>701</title>
<ellipse fill="white" stroke="black" cx="39.5843" cy="-86.9117" rx="21.4286" ry="21.4286"/>
<text text-anchor="middle" x="39.5843" y="-84.7117" font-family="Times New Roman,serif" font-size="9.00">701</text>
</g>
<!-- &#45;25&#45;&gt;701 -->
<g id="edge169" class="edge"><title>&#45;25&#45;&gt;701</title>
<path fill="none" stroke="green" stroke-width="0.117742" d="M323.816,-151.506C282.98,-149.41 165.556,-140.76 74.5843,-108.125 71.641,-107.069 68.6619,-105.768 65.7486,-104.34"/>
<polygon fill="green" stroke="green" stroke-width="0.117742" points="67.2508,-101.173 56.7911,-99.4858 63.9156,-107.328 67.2508,-101.173"/>
</g>
<!-- &#45;26 -->
<g id="node26" class="node"><title>&#45;26</title>
<polygon fill="lightgray" stroke="black" points="851.084,-95.9117 822.084,-95.9117 822.084,-77.9117 851.084,-77.9117 851.084,-95.9117"/>
<text text-anchor="middle" x="836.584" y="-84.7117" font-family="Times New Roman,serif" font-size="9.00">&#45;26</text>
</g>
<!-- &#45;26&#45;&gt;0 -->
<g id="edge99" class="edge"><title>&#45;26&#45;&gt;0</title>
<path fill="none" stroke="red" stroke-width="0.264246" d="M843.884,-77.6088C848.061,-73.3853 853.643,-68.5537 859.584,-65.6985 947.255,-23.5667 1065.63,-16.7174 1116.57,-15.8296"/>
<polygon fill="red" stroke="red" stroke-width="0.264246" points="1116.7,-19.3286 1126.66,-15.7189 1116.62,-12.329 1116.7,-19.3286"/>
</g>
<!-- &#45;26&#45;&gt;1 -->
<g id="edge100" class="edge"><title>&#45;26&#45;&gt;1</title>
<path fill="none" stroke="red" stroke-width="0.180529" d="M843.375,-77.7722C847.556,-73.3745 853.306,-68.3212 859.584,-65.6985 891.686,-52.2887 1418.99,-23.66 1541.36,-17.1742"/>
<polygon fill="red" stroke="red" stroke-width="0.180529" points="1541.81,-20.6555 1551.61,-16.6327 1541.44,-13.6653 1541.81,-20.6555"/>
</g>
<!-- &#45;26&#45;&gt;2 -->
<g id="edge101" class="edge"><title>&#45;26&#45;&gt;2</title>
<path fill="none" stroke="red" stroke-width="0.216671" d="M843.355,-77.7222C847.528,-73.3079 853.278,-68.2546 859.584,-65.6985 1010.31,-4.60155 1430.58,-58.8795 1590.58,-29.6985 1597.01,-28.5266 1603.81,-26.6515 1610.05,-24.6547"/>
<polygon fill="red" stroke="red" stroke-width="0.216671" points="1611.56,-27.8387 1619.88,-21.2821 1609.28,-21.2178 1611.56,-27.8387"/>
</g>
<!-- &#45;26&#45;&gt;3 -->
<g id="edge102" class="edge"><title>&#45;26&#45;&gt;3</title>
<path fill="none" stroke="red" stroke-width="0.270025" stroke-dasharray="1,5" d="M843.423,-77.8816C847.619,-73.5205 853.369,-68.4672 859.584,-65.6985 984.674,-9.979 1030.31,-51.0035 1165.58,-29.6985 1180.84,-27.2956 1197.84,-23.9485 1211.26,-21.1467"/>
<polygon fill="red" stroke="red" stroke-width="0.270025" points="1212.11,-24.5456 1221.16,-19.0452 1210.66,-17.6982 1212.11,-24.5456"/>
</g>
<!-- &#45;27 -->
<g id="node27" class="node"><title>&#45;27</title>
<polygon fill="lightgray" stroke="black" points="515.084,-162.125 486.084,-162.125 486.084,-144.125 515.084,-144.125 515.084,-162.125"/>
<text text-anchor="middle" x="500.584" y="-150.925" font-family="Times New Roman,serif" font-size="9.00">&#45;27</text>
</g>
<!-- &#45;27&#45;&gt;0 -->
<g id="edge103" class="edge"><title>&#45;27&#45;&gt;0</title>
<path fill="none" stroke="green" stroke-width="0.307618" stroke-dasharray="1,5" d="M486.062,-150.182C427.962,-142.375 215.17,-113.459 210.584,-108.125 198.292,-93.8264 197.612,-79.3836 210.584,-65.6985 242.667,-31.8518 971.71,-18.5431 1116.66,-16.2272"/>
<polygon fill="green" stroke="green" stroke-width="0.307618" points="1116.83,-19.725 1126.77,-16.0684 1116.72,-12.7258 1116.83,-19.725"/>
</g>
<!-- &#45;27&#45;&gt;1 -->
<g id="edge104" class="edge"><title>&#45;27&#45;&gt;1</title>
<path fill="none" stroke="red" stroke-width="1.00357" d="M515.248,-152.009C674.9,-150.717 2085.08,-138.447 2114.58,-108.125 2127.73,-94.6111 2127.43,-79.4977 2114.58,-65.6985 2076.25,-24.5313 1664.81,-40.3984 1609.58,-29.6985 1603.17,-28.4561 1596.38,-26.5564 1590.14,-24.5585"/>
<polygon fill="red" stroke="red" stroke-width="1.00357" points="1590.9,-21.1211 1580.31,-21.2022 1588.64,-27.7456 1590.9,-21.1211"/>
</g>
<!-- &#45;27&#45;&gt;2 -->
<g id="edge105" class="edge"><title>&#45;27&#45;&gt;2</title>
<path fill="none" stroke="red" stroke-width="0.15448" d="M515.108,-152.097C696.69,-151.719 2520.58,-146.952 2558.58,-108.125 2571.77,-94.6498 2571.55,-79.3859 2558.58,-65.6985 2526.75,-32.0993 1803.9,-18.6138 1658.81,-16.241"/>
<polygon fill="red" stroke="red" stroke-width="0.15448" points="1658.72,-12.7392 1648.67,-16.078 1658.61,-19.7383 1658.72,-12.7392"/>
</g>
<!-- &#45;27&#45;&gt;3 -->
<g id="edge106" class="edge"><title>&#45;27&#45;&gt;3</title>
<path fill="none" stroke="red" stroke-width="0.229401" d="M500.034,-144.07C499.334,-126.579 500.449,-85.1363 524.584,-65.6985 580.141,-20.954 1094.81,-38.6426 1165.58,-29.6985 1180.91,-27.762 1197.91,-24.427 1211.32,-21.515"/>
<polygon fill="red" stroke="red" stroke-width="0.229401" points="1212.21,-24.9028 1221.2,-19.3051 1210.68,-18.0715 1212.21,-24.9028"/>
</g>
<!-- &#45;27&#45;&gt;701 -->
<g id="edge167" class="edge"><title>&#45;27&#45;&gt;701</title>
<path fill="none" stroke="red" stroke-width="0.161059" d="M486.08,-150.209C473.317,-148.541 454.227,-146.089 437.584,-144.125 291.064,-126.831 252.215,-137.262 107.584,-108.125 94.7911,-105.548 80.9385,-101.641 69.0952,-97.9468"/>
<polygon fill="red" stroke="red" stroke-width="0.161059" points="69.8732,-94.5206 59.2819,-94.794 67.732,-101.185 69.8732,-94.5206"/>
</g>
<!-- &#45;28 -->
<g id="node28" class="node"><title>&#45;28</title>
<polygon fill="lightgray" stroke="black" points="898.084,-95.9117 869.084,-95.9117 869.084,-77.9117 898.084,-77.9117 898.084,-95.9117"/>
<text text-anchor="middle" x="883.584" y="-84.7117" font-family="Times New Roman,serif" font-size="9.00">&#45;28</text>
</g>
<!-- &#45;28&#45;&gt;0 -->
<g id="edge107" class="edge"><title>&#45;28&#45;&gt;0</title>
<path fill="none" stroke="green" stroke-width="0.870434" d="M890.924,-77.6892C895.112,-73.4892 900.692,-68.6545 906.584,-65.6985 977.205,-30.2674 1072,-19.9768 1116.51,-17.0209"/>
<polygon fill="green" stroke="green" stroke-width="0.870434" points="1116.93,-20.5026 1126.7,-16.4166 1116.51,-13.5149 1116.93,-20.5026"/>
</g>
<!-- &#45;28&#45;&gt;1 -->
<g id="edge108" class="edge"><title>&#45;28&#45;&gt;1</title>
<path fill="none" stroke="green" stroke-width="0.297574" d="M890.38,-77.7839C894.562,-73.3902 900.312,-68.3369 906.584,-65.6985 965.974,-40.7155 1427.88,-21.2459 1541.43,-16.8048"/>
<polygon fill="green" stroke="green" stroke-width="0.297574" points="1541.73,-20.2959 1551.59,-16.4115 1541.46,-13.3011 1541.73,-20.2959"/>
</g>
<!-- &#45;28&#45;&gt;2 -->
<g id="edge109" class="edge"><title>&#45;28&#45;&gt;2</title>
<path fill="none" stroke="green" stroke-width="0.174037" stroke-dasharray="1,5" d="M890.358,-77.7301C894.533,-73.3185 900.283,-68.2652 906.584,-65.6985 1047.55,-8.282 1440.89,-57.2606 1590.58,-29.6985 1597.01,-28.5157 1603.8,-26.6368 1610.05,-24.6399"/>
<polygon fill="green" stroke="green" stroke-width="0.174037" points="1611.55,-27.8244 1619.88,-21.2698 1609.28,-21.2029 1611.55,-27.8244"/>
</g>
<!-- &#45;28&#45;&gt;3 -->
<g id="edge110" class="edge"><title>&#45;28&#45;&gt;3</title>
<path fill="none" stroke="red" stroke-width="0.747143" stroke-dasharray="1,5" d="M890.843,-77.5211C895.008,-73.2719 900.591,-68.4437 906.584,-65.6985 1012.24,-17.2978 1050.98,-48.9844 1165.58,-29.6985 1180.81,-27.1355 1197.81,-23.7842 1211.24,-21.0204"/>
<polygon fill="red" stroke="red" stroke-width="0.747143" points="1212.07,-24.4227 1221.15,-18.956 1210.65,-17.5699 1212.07,-24.4227"/>
</g>
<!-- &#45;29 -->
<g id="node29" class="node"><title>&#45;29</title>
<polygon fill="lightgray" stroke="black" points="945.084,-95.9117 916.084,-95.9117 916.084,-77.9117 945.084,-77.9117 945.084,-95.9117"/>
<text text-anchor="middle" x="930.584" y="-84.7117" font-family="Times New Roman,serif" font-size="9.00">&#45;29</text>
</g>
<!-- &#45;29&#45;&gt;0 -->
<g id="edge111" class="edge"><title>&#45;29&#45;&gt;0</title>
<path fill="none" stroke="green" stroke-width="0.628441" d="M937.984,-77.8063C942.19,-73.6407 947.768,-68.8013 953.584,-65.6985 1007.68,-36.8382 1079.62,-23.8398 1116.87,-18.7213"/>
<polygon fill="green" stroke="green" stroke-width="0.628441" points="1117.37,-22.1857 1126.84,-17.4282 1116.47,-15.2439 1117.37,-22.1857"/>
</g>
<!-- &#45;29&#45;&gt;1 -->
<g id="edge112" class="edge"><title>&#45;29&#45;&gt;1</title>
<path fill="none" stroke="red" stroke-width="0.176201" d="M937.386,-77.7974C941.57,-73.4082 947.32,-68.3549 953.584,-65.6985 1008.41,-42.448 1433.26,-21.8619 1541.54,-16.9553"/>
<polygon fill="red" stroke="red" stroke-width="0.176201" points="1541.98,-20.439 1551.81,-16.4938 1541.67,-13.4461 1541.98,-20.439"/>
</g>
<!-- &#45;29&#45;&gt;2 -->
<g id="edge113" class="edge"><title>&#45;29&#45;&gt;2</title>
<path fill="none" stroke="green" stroke-width="0.12792" d="M937.362,-77.7393C941.538,-73.3307 947.288,-68.2774 953.584,-65.6985 1084.79,-11.9619 1451.2,-55.6421 1590.58,-29.6985 1597.01,-28.5033 1603.8,-26.6201 1610.04,-24.6229"/>
<polygon fill="green" stroke="green" stroke-width="0.12792" points="1611.55,-27.808 1619.87,-21.2557 1609.28,-21.1859 1611.55,-27.808"/>
</g>
<!-- &#45;29&#45;&gt;3 -->
<g id="edge114" class="edge"><title>&#45;29&#45;&gt;3</title>
<path fill="none" stroke="green" stroke-width="0.197251" d="M937.877,-77.5928C942.051,-73.3646 947.633,-68.5336 953.584,-65.6985 1039.86,-24.5935 1071.59,-46.9745 1165.58,-29.6985 1180.77,-26.9066 1197.77,-23.5494 1211.21,-20.8397"/>
<polygon fill="green" stroke="green" stroke-width="0.197251" points="1212.02,-24.2467 1221.13,-18.8285 1210.63,-17.3864 1212.02,-24.2467"/>
</g>
<!-- &#45;30 -->
<g id="node30" class="node"><title>&#45;30</title>
<polygon fill="lightgray" stroke="black" points="429.084,-162.125 400.084,-162.125 400.084,-144.125 429.084,-144.125 429.084,-162.125"/>
<text text-anchor="middle" x="414.584" y="-150.925" font-family="Times New Roman,serif" font-size="9.00">&#45;30</text>
</g>
<!-- &#45;30&#45;&gt;0 -->
<g id="edge115" class="edge"><title>&#45;30&#45;&gt;0</title>
<path fill="none" stroke="green" stroke-width="0.168663" d="M399.74,-149.848C389.117,-148.227 374.475,-146.011 361.584,-144.125 244.682,-127.018 26.0776,-151.229 107.584,-65.6985 143.494,-28.0161 961.431,-17.7098 1116.38,-16.0928"/>
<polygon fill="green" stroke="green" stroke-width="0.168663" points="1116.78,-19.589 1126.74,-15.9875 1116.71,-12.5894 1116.78,-19.589"/>
</g>
<!-- &#45;30&#45;&gt;1 -->
<g id="edge116" class="edge"><title>&#45;30&#45;&gt;1</title>
<path fill="none" stroke="red" stroke-width="0.550489" d="M429.321,-149.777C441.855,-147.887 460.351,-145.351 476.584,-144.125 520.914,-140.776 2045.5,-139.911 2076.58,-108.125 2089.77,-94.6424 2089.39,-79.5347 2076.58,-65.6985 2041.23,-27.5106 1660.65,-39.7449 1609.58,-29.6985 1603.18,-28.4376 1596.39,-26.5314 1590.14,-24.5332"/>
<polygon fill="red" stroke="red" stroke-width="0.550489" points="1590.9,-21.0957 1580.31,-21.1812 1588.65,-27.7212 1590.9,-21.0957"/>
</g>
<!-- &#45;30&#45;&gt;2 -->
<g id="edge117" class="edge"><title>&#45;30&#45;&gt;2</title>
<path fill="none" stroke="red" stroke-width="0.179351" d="M429.32,-149.756C441.853,-147.854 460.348,-145.312 476.584,-144.125 533.22,-139.985 2480.79,-148.631 2520.58,-108.125 2533.8,-94.6747 2533.54,-79.4008 2520.58,-65.6985 2490.15,-33.5069 1799.76,-18.9436 1658.64,-16.2979"/>
<polygon fill="red" stroke="red" stroke-width="0.179351" points="1658.47,-12.7943 1648.41,-16.1091 1658.34,-19.7931 1658.47,-12.7943"/>
</g>
<!-- &#45;30&#45;&gt;3 -->
<g id="edge118" class="edge"><title>&#45;30&#45;&gt;3</title>
<path fill="none" stroke="green" stroke-width="0.395355" d="M413.518,-144.114C411.706,-126.712 410.236,-85.435 433.584,-65.6985 495.774,-13.1287 1084.76,-39.6273 1165.58,-29.6985 1180.91,-27.8153 1197.91,-24.4818 1211.32,-21.5571"/>
<polygon fill="green" stroke="green" stroke-width="0.395355" points="1212.22,-24.9436 1221.2,-19.3348 1210.68,-18.1141 1212.22,-24.9436"/>
</g>
<!-- 538 -->
<g id="node49" class="node"><title>538</title>
<ellipse fill="white" stroke="black" cx="137.584" cy="-86.9117" rx="21.4286" ry="21.4286"/>
<text text-anchor="middle" x="137.584" y="-84.7117" font-family="Times New Roman,serif" font-size="9.00">538</text>
</g>
<!-- &#45;30&#45;&gt;538 -->
<g id="edge161" class="edge"><title>&#45;30&#45;&gt;538</title>
<path fill="none" stroke="red" stroke-width="0.197121" d="M399.952,-149.765C350.904,-141.813 194.181,-116.052 172.584,-108.125 169.649,-107.047 166.675,-105.733 163.765,-104.296"/>
<polygon fill="red" stroke="red" stroke-width="0.197121" points="165.269,-101.13 154.811,-99.4308 161.927,-107.28 165.269,-101.13"/>
</g>
<!-- &#45;31 -->
<g id="node31" class="node"><title>&#45;31</title>
<polygon fill="lightgray" stroke="black" points="992.084,-95.9117 963.084,-95.9117 963.084,-77.9117 992.084,-77.9117 992.084,-95.9117"/>
<text text-anchor="middle" x="977.584" y="-84.7117" font-family="Times New Roman,serif" font-size="9.00">&#45;31</text>
</g>
<!-- &#45;31&#45;&gt;0 -->
<g id="edge119" class="edge"><title>&#45;31&#45;&gt;0</title>
<path fill="none" stroke="red" stroke-width="0.209012" d="M985.502,-77.5912C989.684,-73.5687 995.082,-68.9256 1000.58,-65.6985 1038.68,-43.3548 1088.41,-28.6947 1117.48,-21.3726"/>
<polygon fill="red" stroke="red" stroke-width="0.209012" points="1118.32,-24.7727 1127.2,-19.0063 1116.66,-17.9713 1118.32,-24.7727"/>
</g>
<!-- &#45;31&#45;&gt;1 -->
<g id="edge120" class="edge"><title>&#45;31&#45;&gt;1</title>
<path fill="none" stroke="green" stroke-width="0.647329" d="M984.393,-77.8132C988.579,-73.4292 994.329,-68.3759 1000.58,-65.6985 1050.84,-44.1877 1438.45,-22.5528 1541.49,-17.1375"/>
<polygon fill="green" stroke="green" stroke-width="0.647329" points="1541.79,-20.6269 1551.59,-16.6109 1541.43,-13.6364 1541.79,-20.6269"/>
</g>
<!-- &#45;31&#45;&gt;2 -->
<g id="edge121" class="edge"><title>&#45;31&#45;&gt;2</title>
<path fill="none" stroke="red" stroke-width="0.364906" d="M984.366,-77.7499C988.543,-73.3448 994.293,-68.2915 1000.58,-65.6985 1122.03,-15.6411 1461.5,-54.0238 1590.58,-29.6985 1597,-28.4889 1603.8,-26.6006 1610.04,-24.6033"/>
<polygon fill="red" stroke="red" stroke-width="0.364906" points="1611.54,-27.789 1619.87,-21.2394 1609.28,-21.1661 1611.54,-27.789"/>
</g>
<!-- &#45;31&#45;&gt;3 -->
<g id="edge122" class="edge"><title>&#45;31&#45;&gt;3</title>
<path fill="none" stroke="red" stroke-width="0.453546" d="M984.924,-77.6892C989.112,-73.4892 994.692,-68.6545 1000.58,-65.6985 1010.06,-60.9447 1152.75,-32.2915 1211.05,-20.7053"/>
<polygon fill="red" stroke="red" stroke-width="0.453546" points="1211.78,-24.1298 1220.9,-18.7501 1210.41,-17.2636 1211.78,-24.1298"/>
</g>
<!-- &#45;32 -->
<g id="node32" class="node"><title>&#45;32</title>
<polygon fill="lightgray" stroke="black" points="1039.08,-95.9117 1010.08,-95.9117 1010.08,-77.9117 1039.08,-77.9117 1039.08,-95.9117"/>
<text text-anchor="middle" x="1024.58" y="-84.7117" font-family="Times New Roman,serif" font-size="9.00">&#45;32</text>
</g>
<!-- &#45;32&#45;&gt;0 -->
<g id="edge123" class="edge"><title>&#45;32&#45;&gt;0</title>
<path fill="none" stroke="red" stroke-width="0.151756" d="M1033.14,-77.5316C1037.31,-73.6809 1042.51,-69.2022 1047.58,-65.6985 1070.63,-49.7894 1099.34,-35.2435 1118.92,-26.024"/>
<polygon fill="red" stroke="red" stroke-width="0.151756" points="1120.65,-29.0824 1128.26,-21.7093 1117.71,-22.7285 1120.65,-29.0824"/>
</g>
<!-- &#45;32&#45;&gt;1 -->
<g id="edge124" class="edge"><title>&#45;32&#45;&gt;1</title>
<path fill="none" stroke="red" stroke-width="0.303834" d="M1031.4,-77.8317C1035.59,-73.4539 1041.34,-68.4006 1047.58,-65.6985 1093.33,-45.9043 1444.56,-23.2693 1541.74,-17.3352"/>
<polygon fill="red" stroke="red" stroke-width="0.303834" points="1542.04,-20.8235 1551.81,-16.7247 1541.62,-13.8363 1542.04,-20.8235"/>
</g>
<!-- &#45;32&#45;&gt;2 -->
<g id="edge125" class="edge"><title>&#45;32&#45;&gt;2</title>
<path fill="none" stroke="red" stroke-width="0.713216" d="M1031.37,-77.7623C1035.55,-73.3614 1041.3,-68.3081 1047.58,-65.6985 1159.27,-19.3194 1471.8,-52.406 1590.58,-29.6985 1597,-28.472 1603.79,-26.5779 1610.04,-24.5802"/>
<polygon fill="red" stroke="red" stroke-width="0.713216" points="1611.54,-27.7667 1619.87,-21.2202 1609.27,-21.1429 1611.54,-27.7667"/>
</g>
<!-- &#45;32&#45;&gt;3 -->
<g id="edge126" class="edge"><title>&#45;32&#45;&gt;3</title>
<path fill="none" stroke="green" stroke-width="0.215601" d="M1031.98,-77.8063C1036.19,-73.6407 1041.77,-68.8013 1047.58,-65.6985 1076.14,-50.4642 1167.34,-30.094 1211.36,-20.8215"/>
<polygon fill="green" stroke="green" stroke-width="0.215601" points="1212.15,-24.2321 1221.23,-18.7633 1210.72,-17.3797 1212.15,-24.2321"/>
</g>
<!-- &#45;33 -->
<g id="node33" class="node"><title>&#45;33</title>
<polygon fill="lightgray" stroke="black" points="1086.08,-95.9117 1057.08,-95.9117 1057.08,-77.9117 1086.08,-77.9117 1086.08,-95.9117"/>
<text text-anchor="middle" x="1071.58" y="-84.7117" font-family="Times New Roman,serif" font-size="9.00">&#45;33</text>
</g>
<!-- &#45;33&#45;&gt;0 -->
<g id="edge127" class="edge"><title>&#45;33&#45;&gt;0</title>
<path fill="none" stroke="green" stroke-width="0.192899" d="M1079.61,-77.8746C1090.4,-67.0781 1109.86,-47.6015 1124.1,-33.3456"/>
<polygon fill="green" stroke="green" stroke-width="0.192899" points="1126.8,-35.599 1131.39,-26.051 1121.85,-30.6514 1126.8,-35.599"/>
</g>
<!-- &#45;33&#45;&gt;1 -->
<g id="edge128" class="edge"><title>&#45;33&#45;&gt;1</title>
<path fill="none" stroke="green" stroke-width="0.120317" d="M1078.41,-77.8539C1082.6,-73.4835 1088.35,-68.4302 1094.58,-65.6985 1176.1,-29.9666 1456.16,-19.0424 1541.62,-16.5022"/>
<polygon fill="green" stroke="green" stroke-width="0.120317" points="1541.81,-19.9984 1551.7,-16.2151 1541.61,-13.0012 1541.81,-19.9984"/>
</g>
<!-- &#45;33&#45;&gt;2 -->
<g id="edge129" class="edge"><title>&#45;33&#45;&gt;2</title>
<path fill="none" stroke="red" stroke-width="0.103996" stroke-dasharray="1,5" d="M1078.38,-77.777C1082.56,-73.381 1088.31,-68.3277 1094.58,-65.6985 1196.51,-22.9965 1482.1,-50.7888 1590.58,-29.6985 1597,-28.452 1603.79,-26.5508 1610.03,-24.5528"/>
<polygon fill="red" stroke="red" stroke-width="0.103996" points="1611.53,-27.7402 1619.86,-21.1975 1609.27,-21.1154 1611.53,-27.7402"/>
</g>
<!-- &#45;33&#45;&gt;3 -->
<g id="edge130" class="edge"><title>&#45;33&#45;&gt;3</title>
<path fill="none" stroke="red" stroke-width="0.228749" d="M1079.5,-77.5912C1083.68,-73.5687 1089.08,-68.9256 1094.58,-65.6985 1132.68,-43.3548 1182.41,-28.6947 1211.48,-21.3726"/>
<polygon fill="red" stroke="red" stroke-width="0.228749" points="1212.32,-24.7727 1221.2,-19.0063 1210.66,-17.9713 1212.32,-24.7727"/>
</g>
<!-- &#45;34 -->
<g id="node34" class="node"><title>&#45;34</title>
<polygon fill="lightgray" stroke="black" points="1133.08,-95.9117 1104.08,-95.9117 1104.08,-77.9117 1133.08,-77.9117 1133.08,-95.9117"/>
<text text-anchor="middle" x="1118.58" y="-84.7117" font-family="Times New Roman,serif" font-size="9.00">&#45;34</text>
</g>
<!-- &#45;34&#45;&gt;0 -->
<g id="edge131" class="edge"><title>&#45;34&#45;&gt;0</title>
<path fill="none" stroke="red" stroke-width="0.119458" d="M1121.22,-77.8746C1124.33,-68.4226 1129.61,-52.3178 1134.02,-38.8876"/>
<polygon fill="red" stroke="red" stroke-width="0.119458" points="1137.38,-39.886 1137.17,-29.2932 1130.73,-37.7027 1137.38,-39.886"/>
</g>
<!-- &#45;34&#45;&gt;1 -->
<g id="edge132" class="edge"><title>&#45;34&#45;&gt;1</title>
<path fill="none" stroke="red" stroke-width="0.15614" d="M1125.42,-77.8808C1129.62,-73.5194 1135.37,-68.4661 1141.58,-65.6985 1214.02,-33.4483 1461.15,-20.3217 1541.28,-16.8497"/>
<polygon fill="red" stroke="red" stroke-width="0.15614" points="1541.6,-20.3395 1551.44,-16.4228 1541.3,-13.3456 1541.6,-20.3395"/>
</g>
<!-- &#45;34&#45;&gt;2 -->
<g id="edge133" class="edge"><title>&#45;34&#45;&gt;2</title>
<path fill="none" stroke="green" stroke-width="0.218023" d="M1125.38,-77.7948C1129.57,-73.4047 1135.32,-68.3514 1141.58,-65.6985 1325.94,12.3541 1394.21,-68.646 1590.58,-29.6985 1596.99,-28.4278 1603.78,-26.5181 1610.02,-24.5198"/>
<polygon fill="green" stroke="green" stroke-width="0.218023" points="1611.52,-27.7082 1619.86,-21.17 1609.26,-21.0822 1611.52,-27.7082"/>
</g>
<!-- &#45;34&#45;&gt;3 -->
<g id="edge134" class="edge"><title>&#45;34&#45;&gt;3</title>
<path fill="none" stroke="green" stroke-width="0.228523" d="M1127.14,-77.5316C1131.31,-73.6809 1136.51,-69.2022 1141.58,-65.6985 1164.63,-49.7894 1193.34,-35.2435 1212.92,-26.024"/>
<polygon fill="green" stroke="green" stroke-width="0.228523" points="1214.65,-29.0824 1222.26,-21.7093 1211.71,-22.7285 1214.65,-29.0824"/>
</g>
<!-- &#45;35 -->
<g id="node35" class="node"><title>&#45;35</title>
<polygon fill="lightgray" stroke="black" points="1180.08,-95.9117 1151.08,-95.9117 1151.08,-77.9117 1180.08,-77.9117 1180.08,-95.9117"/>
<text text-anchor="middle" x="1165.58" y="-84.7117" font-family="Times New Roman,serif" font-size="9.00">&#45;35</text>
</g>
<!-- &#45;35&#45;&gt;0 -->
<g id="edge135" class="edge"><title>&#45;35&#45;&gt;0</title>
<path fill="none" stroke="red" stroke-width="0.116352" d="M1162.83,-77.8746C1159.57,-68.3653 1154.01,-52.1224 1149.39,-38.6437"/>
<polygon fill="red" stroke="red" stroke-width="0.116352" points="1152.65,-37.3587 1146.1,-29.0326 1146.03,-39.6272 1152.65,-37.3587"/>
</g>
<!-- &#45;35&#45;&gt;1 -->
<g id="edge136" class="edge"><title>&#45;35&#45;&gt;1</title>
<path fill="none" stroke="green" stroke-width="0.100212" d="M1172.84,-77.5044C1177,-73.2503 1182.58,-68.4228 1188.58,-65.6985 1252.08,-36.8804 1467.09,-21.7329 1541.21,-17.2732"/>
<polygon fill="green" stroke="green" stroke-width="0.100212" points="1541.7,-20.7508 1551.48,-16.6705 1541.29,-13.7629 1541.7,-20.7508"/>
</g>
<!-- &#45;35&#45;&gt;2 -->
<g id="edge137" class="edge"><title>&#45;35&#45;&gt;2</title>
<path fill="none" stroke="red" stroke-width="0.228154" d="M1172.39,-77.8166C1176.58,-73.4338 1182.33,-68.3805 1188.58,-65.6985 1353.44,5.00696 1414.79,-65.4151 1590.58,-29.6985 1596.99,-28.398 1603.77,-26.4779 1610.02,-24.4791"/>
<polygon fill="red" stroke="red" stroke-width="0.228154" points="1611.51,-27.6688 1619.85,-21.1362 1609.26,-21.0413 1611.51,-27.6688"/>
</g>
<!-- &#45;35&#45;&gt;3 -->
<g id="edge138" class="edge"><title>&#45;35&#45;&gt;3</title>
<path fill="none" stroke="red" stroke-width="0.106455" stroke-dasharray="1,5" d="M1173.61,-77.8746C1184.4,-67.0781 1203.86,-47.6015 1218.1,-33.3456"/>
<polygon fill="red" stroke="red" stroke-width="0.106455" points="1220.8,-35.599 1225.39,-26.051 1215.85,-30.6514 1220.8,-35.599"/>
</g>
<!-- &#45;36 -->
<g id="node36" class="node"><title>&#45;36</title>
<polygon fill="lightgray" stroke="black" points="1227.08,-95.9117 1198.08,-95.9117 1198.08,-77.9117 1227.08,-77.9117 1227.08,-95.9117"/>
<text text-anchor="middle" x="1212.58" y="-84.7117" font-family="Times New Roman,serif" font-size="9.00">&#45;36</text>
</g>
<!-- &#45;36&#45;&gt;0 -->
<g id="edge139" class="edge"><title>&#45;36&#45;&gt;0</title>
<path fill="none" stroke="red" stroke-width="0.175657" d="M1204.44,-77.8746C1193.5,-67.0781 1173.76,-47.6015 1159.31,-33.3456"/>
<polygon fill="red" stroke="red" stroke-width="0.175657" points="1161.5,-30.5836 1151.92,-26.051 1156.58,-35.5662 1161.5,-30.5836"/>
</g>
<!-- &#45;36&#45;&gt;1 -->
<g id="edge140" class="edge"><title>&#45;36&#45;&gt;1</title>
<path fill="none" stroke="red" stroke-width="0.235075" d="M1219.86,-77.5483C1224.02,-73.307 1229.61,-68.4777 1235.58,-65.6985 1290.37,-40.2255 1474.51,-23.2467 1541.75,-17.768"/>
<polygon fill="red" stroke="red" stroke-width="0.235075" points="1542.15,-21.2465 1551.84,-16.9604 1541.6,-14.2687 1542.15,-21.2465"/>
</g>
<!-- &#45;36&#45;&gt;2 -->
<g id="edge141" class="edge"><title>&#45;36&#45;&gt;2</title>
<path fill="none" stroke="red" stroke-width="0.107007" d="M1219.41,-77.8441C1223.6,-73.4705 1229.35,-68.4172 1235.58,-65.6985 1380.96,-2.33441 1435.36,-62.1871 1590.58,-29.6985 1596.98,-28.3604 1603.76,-26.4272 1610.01,-24.4278"/>
<polygon fill="red" stroke="red" stroke-width="0.107007" points="1611.49,-27.6191 1619.84,-21.0936 1609.25,-20.9897 1611.49,-27.6191"/>
</g>
<!-- &#45;36&#45;&gt;3 -->
<g id="edge142" class="edge"><title>&#45;36&#45;&gt;3</title>
<path fill="none" stroke="red" stroke-width="0.266537" d="M1215.22,-77.8746C1218.33,-68.4226 1223.61,-52.3178 1228.02,-38.8876"/>
<polygon fill="red" stroke="red" stroke-width="0.266537" points="1231.38,-39.886 1231.17,-29.2932 1224.73,-37.7027 1231.38,-39.886"/>
</g>
<!-- &#45;37 -->
<g id="node37" class="node"><title>&#45;37</title>
<polygon fill="lightgray" stroke="black" points="472.084,-95.9117 443.084,-95.9117 443.084,-77.9117 472.084,-77.9117 472.084,-95.9117"/>
<text text-anchor="middle" x="457.584" y="-84.7117" font-family="Times New Roman,serif" font-size="9.00">&#45;37</text>
</g>
<!-- &#45;37&#45;&gt;0 -->
<g id="edge143" class="edge"><title>&#45;37&#45;&gt;0</title>
<path fill="none" stroke="red" stroke-width="0.326267" d="M466.535,-77.7828C471.935,-73.3888 479.185,-68.3355 486.584,-65.6985 605.902,-23.1774 1011.33,-16.9157 1116.5,-16.0032"/>
<polygon fill="red" stroke="red" stroke-width="0.326267" points="1116.54,-19.5031 1126.51,-15.925 1116.48,-12.5033 1116.54,-19.5031"/>
</g>
<!-- &#45;37&#45;&gt;1 -->
<g id="edge144" class="edge"><title>&#45;37&#45;&gt;1</title>
<path fill="none" stroke="red" stroke-width="0.113416" d="M472.099,-84.346C506.631,-80.6636 596.413,-71.3399 671.584,-65.6985 1015.96,-39.8535 1435.82,-21.3577 1541.52,-16.8906"/>
<polygon fill="red" stroke="red" stroke-width="0.113416" points="1541.96,-20.3753 1551.81,-16.4585 1541.67,-13.3814 1541.96,-20.3753"/>
</g>
<!-- &#45;37&#45;&gt;3 -->
<g id="edge145" class="edge"><title>&#45;37&#45;&gt;3</title>
<path fill="none" stroke="red" stroke-width="0.457838" d="M466.512,-77.7189C471.905,-73.3035 479.155,-68.2502 486.584,-65.6985 629.491,-16.615 1015.65,-48.409 1165.58,-29.6985 1180.91,-27.786 1197.91,-24.4517 1211.32,-21.5339"/>
<polygon fill="red" stroke="red" stroke-width="0.457838" points="1212.21,-24.9212 1221.2,-19.3184 1210.68,-18.0907 1212.21,-24.9212"/>
</g>
<!-- &#45;38 -->
<g id="node38" class="node"><title>&#45;38</title>
<polygon fill="lightgray" stroke="black" points="1274.08,-95.9117 1245.08,-95.9117 1245.08,-77.9117 1274.08,-77.9117 1274.08,-95.9117"/>
<text text-anchor="middle" x="1259.58" y="-84.7117" font-family="Times New Roman,serif" font-size="9.00">&#45;38</text>
</g>
<!-- &#45;38&#45;&gt;0 -->
<g id="edge146" class="edge"><title>&#45;38&#45;&gt;0</title>
<path fill="none" stroke="red" stroke-width="0.24599" d="M1250.6,-77.5602C1246.24,-73.7157 1240.82,-69.234 1235.58,-65.6985 1212.38,-50.0326 1183.7,-35.442 1164.16,-26.1454"/>
<polygon fill="red" stroke="red" stroke-width="0.24599" points="1165.4,-22.8593 1154.86,-21.7889 1162.43,-29.1989 1165.4,-22.8593"/>
</g>
<!-- &#45;38&#45;&gt;1 -->
<g id="edge147" class="edge"><title>&#45;38&#45;&gt;1</title>
<path fill="none" stroke="red" stroke-width="0.367379" d="M1267.27,-77.6125C1271.64,-73.3901 1277.46,-68.5583 1283.58,-65.6985 1372.01,-24.3763 1490.57,-17.0992 1541.56,-15.9646"/>
<polygon fill="red" stroke="red" stroke-width="0.367379" points="1541.71,-19.4628 1551.65,-15.8031 1541.59,-12.4637 1541.71,-19.4628"/>
</g>
<!-- &#45;38&#45;&gt;2 -->
<g id="edge148" class="edge"><title>&#45;38&#45;&gt;2</title>
<path fill="none" stroke="green" stroke-width="0.348372" d="M1266.78,-77.8817C1271.18,-73.5206 1277.18,-68.4673 1283.58,-65.6985 1409.67,-11.1465 1456.34,-58.8949 1590.58,-29.6985 1596.97,-28.3103 1603.75,-26.3597 1609.99,-24.3594"/>
<polygon fill="green" stroke="green" stroke-width="0.348372" points="1611.47,-27.5529 1619.83,-21.0368 1609.23,-20.9209 1611.47,-27.5529"/>
</g>
<!-- &#45;38&#45;&gt;3 -->
<g id="edge149" class="edge"><title>&#45;38&#45;&gt;3</title>
<path fill="none" stroke="green" stroke-width="0.424615" stroke-dasharray="1,5" d="M1256.83,-77.8746C1253.57,-68.3653 1248.01,-52.1224 1243.39,-38.6437"/>
<polygon fill="green" stroke="green" stroke-width="0.424615" points="1246.65,-37.3587 1240.1,-29.0326 1240.03,-39.6272 1246.65,-37.3587"/>
</g>
<!-- &#45;39 -->
<g id="node39" class="node"><title>&#45;39</title>
<polygon fill="lightgray" stroke="black" points="2282.08,-95.9117 2253.08,-95.9117 2253.08,-77.9117 2282.08,-77.9117 2282.08,-95.9117"/>
<text text-anchor="middle" x="2267.58" y="-84.7117" font-family="Times New Roman,serif" font-size="9.00">&#45;39</text>
</g>
<!-- &#45;39&#45;&gt;1 -->
<g id="edge150" class="edge"><title>&#45;39&#45;&gt;1</title>
<path fill="none" stroke="green" stroke-width="0.252582" d="M2258.65,-77.7306C2253.26,-73.3191 2246.01,-68.2658 2238.58,-65.6985 2106.27,-19.9408 1747.22,-55.3666 1609.58,-29.6985 1603.16,-28.501 1596.37,-26.617 1590.12,-24.6198"/>
<polygon fill="green" stroke="green" stroke-width="0.252582" points="1590.89,-21.1827 1580.3,-21.2531 1588.62,-27.805 1590.89,-21.1827"/>
</g>
<!-- &#45;39&#45;&gt;2 -->
<g id="edge151" class="edge"><title>&#45;39&#45;&gt;2</title>
<path fill="none" stroke="green" stroke-width="0.249703" d="M2258.63,-77.8002C2253.23,-73.4119 2245.98,-68.3586 2238.58,-65.6985 2129.14,-26.3116 1758.66,-17.786 1658.65,-16.1843"/>
<polygon fill="green" stroke="green" stroke-width="0.249703" points="1658.62,-12.6836 1648.57,-16.0321 1658.51,-19.6828 1658.62,-12.6836"/>
</g>
<!-- &#45;39&#45;&gt;3 -->
<g id="edge152" class="edge"><title>&#45;39&#45;&gt;3</title>
<path fill="none" stroke="green" stroke-width="0.183158" d="M2252.59,-79.7848C2240.21,-75.0306 2222.06,-68.7518 2205.58,-65.6985 2181.62,-61.258 1409.68,-24.175 1260.43,-17.0358"/>
<polygon fill="green" stroke="green" stroke-width="0.183158" points="1260.57,-13.5387 1250.41,-16.557 1260.24,-20.5307 1260.57,-13.5387"/>
</g>
<!-- &#45;40 -->
<g id="node40" class="node"><title>&#45;40</title>
<polygon fill="lightgray" stroke="black" points="2239.08,-162.125 2210.08,-162.125 2210.08,-144.125 2239.08,-144.125 2239.08,-162.125"/>
<text text-anchor="middle" x="2224.58" y="-150.925" font-family="Times New Roman,serif" font-size="9.00">&#45;40</text>
</g>
<!-- &#45;40&#45;&gt;0 -->
<g id="edge153" class="edge"><title>&#45;40&#45;&gt;0</title>
<path fill="none" stroke="red" stroke-width="0.389643" d="M2209.82,-152.083C2030.9,-151.547 285.004,-145.364 248.584,-108.125 235.4,-94.644 235.628,-79.3983 248.584,-65.6985 279.229,-33.2955 974.288,-18.9003 1116.36,-16.2912"/>
<polygon fill="red" stroke="red" stroke-width="0.389643" points="1116.73,-19.7853 1126.66,-16.1051 1116.6,-12.7864 1116.73,-19.7853"/>
</g>
<!-- &#45;40&#45;&gt;1 -->
<g id="edge154" class="edge"><title>&#45;40&#45;&gt;1</title>
<path fill="none" stroke="red" stroke-width="0.330026" d="M2225.66,-143.87C2227.43,-126.356 2228.7,-85.4654 2205.58,-65.6985 2155.16,-22.5867 1674.78,-41.9644 1609.58,-29.6985 1603.17,-28.4909 1596.37,-26.6033 1590.13,-24.6059"/>
<polygon fill="red" stroke="red" stroke-width="0.330026" points="1590.89,-21.1688 1580.3,-21.2416 1588.63,-27.7916 1590.89,-21.1688"/>
</g>
<!-- &#45;40&#45;&gt;2 -->
<g id="edge155" class="edge"><title>&#45;40&#45;&gt;2</title>
<path fill="none" stroke="green" stroke-width="0.212766" d="M2239.09,-150.947C2306.28,-145.425 2584.43,-121.797 2596.58,-108.125 2609.11,-94.0302 2609.57,-79.3721 2596.58,-65.6985 2563.34,-30.6842 1807.7,-18.2916 1658.89,-16.1868"/>
<polygon fill="green" stroke="green" stroke-width="0.212766" points="1658.57,-12.6821 1648.52,-16.043 1658.47,-19.6814 1658.57,-12.6821"/>
</g>
<!-- &#45;40&#45;&gt;3 -->
<g id="edge156" class="edge"><title>&#45;40&#45;&gt;3</title>
<path fill="none" stroke="red" stroke-width="0.233075" d="M2209.99,-152.021C2048.09,-150.841 593.012,-139.369 562.584,-108.125 549.429,-94.6163 549.654,-79.4234 562.584,-65.6985 608.609,-16.8442 1099.01,-38.2315 1165.58,-29.6985 1180.9,-27.735 1197.9,-24.3993 1211.31,-21.4936"/>
<polygon fill="red" stroke="red" stroke-width="0.233075" points="1212.2,-24.8821 1221.2,-19.29 1210.68,-18.0499 1212.2,-24.8821"/>
</g>
<!-- 605 -->
<g id="node50" class="node"><title>605</title>
<ellipse fill="white" stroke="black" cx="2321.58" cy="-86.9117" rx="21.4286" ry="21.4286"/>
<text text-anchor="middle" x="2321.58" y="-84.7117" font-family="Times New Roman,serif" font-size="9.00">605</text>
</g>
<!-- &#45;40&#45;&gt;605 -->
<g id="edge163" class="edge"><title>&#45;40&#45;&gt;605</title>
<path fill="none" stroke="green" stroke-width="0.3" d="M2236.96,-144.059C2250.43,-135.268 2272.58,-120.765 2291.58,-108.125 2293.02,-107.168 2294.5,-106.184 2295.99,-105.189"/>
<polygon fill="green" stroke="green" stroke-width="0.3" points="2298.12,-107.97 2304.47,-99.491 2294.22,-102.158 2298.12,-107.97"/>
</g>
<!-- 701&#45;&gt;0 -->
<g id="edge168" class="edge"><title>701&#45;&gt;0</title>
<path fill="none" stroke="green" stroke-width="0.278259" d="M56.6454,-73.89C62.1269,-70.6362 68.3895,-67.5148 74.5843,-65.6985 177.448,-35.539 964.89,-19.1947 1116.41,-16.3125"/>
<polygon fill="green" stroke="green" stroke-width="0.278259" points="1116.63,-19.8089 1126.57,-16.1214 1116.5,-12.8102 1116.63,-19.8089"/>
</g>
<!-- 682&#45;&gt;1 -->
<g id="edge166" class="edge"><title>682&#45;&gt;1</title>
<path fill="none" stroke="green" stroke-width="0.473706" d="M2402.52,-73.889C2397.04,-70.6351 2390.78,-67.514 2384.58,-65.6985 2219.13,-17.2128 1779.24,-60.3952 1609.58,-29.6985 1603.16,-28.5355 1596.36,-26.6636 1590.12,-24.6669"/>
<polygon fill="green" stroke="green" stroke-width="0.473706" points="1590.88,-21.2301 1580.29,-21.2923 1588.61,-27.8506 1590.88,-21.2301"/>
</g>
<!-- 401&#45;&gt;2 -->
<g id="edge160" class="edge"><title>401&#45;&gt;2</title>
<path fill="none" stroke="green" stroke-width="0.209642" d="M2826.53,-73.8737C2821.05,-70.6192 2814.78,-67.5015 2808.58,-65.6985 2694.67,-32.5632 1819.07,-18.5052 1658.75,-16.1967"/>
<polygon fill="green" stroke="green" stroke-width="0.209642" points="1658.51,-12.6931 1648.46,-16.0507 1658.41,-19.6924 1658.51,-12.6931"/>
</g>
<!-- 181&#45;&gt;2 -->
<g id="edge158" class="edge"><title>181&#45;&gt;2</title>
<path fill="none" stroke="red" stroke-width="0.411926" d="M2728.52,-73.8884C2723.04,-70.6345 2716.78,-67.5134 2710.58,-65.6985 2606.75,-35.2795 1811.93,-19.1444 1659,-16.3052"/>
<polygon fill="red" stroke="red" stroke-width="0.411926" points="1658.81,-12.8012 1648.74,-16.117 1658.68,-19.8 1658.81,-12.8012"/>
</g>
<!-- 538&#45;&gt;0 -->
<g id="edge162" class="edge"><title>538&#45;&gt;0</title>
<path fill="none" stroke="red" stroke-width="0.189389" d="M154.651,-73.908C160.132,-70.6549 166.394,-67.5294 172.584,-65.6985 357.001,-11.1553 983.305,-14.2523 1116.54,-15.5589"/>
<polygon fill="red" stroke="red" stroke-width="0.189389" points="1116.55,-19.0591 1126.58,-15.6635 1116.62,-12.0594 1116.55,-19.0591"/>
</g>
<!-- 605&#45;&gt;1 -->
<g id="edge164" class="edge"><title>605&#45;&gt;1</title>
<path fill="none" stroke="green" stroke-width="0.434035" d="M2305.61,-72.8558C2301.3,-69.9932 2296.47,-67.3322 2291.58,-65.6985 2147.66,-17.5515 1758.84,-57.1917 1609.58,-29.6985 1603.16,-28.5152 1596.37,-26.6362 1590.12,-24.6392"/>
<polygon fill="green" stroke="green" stroke-width="0.434035" points="1590.89,-21.2022 1580.29,-21.2693 1588.62,-27.8238 1590.89,-21.2022"/>
</g>
</g>
</svg>
