<?xml version="1.0" encoding="UTF-8" standalone="no"?>
<!DOCTYPE svg PUBLIC "-//W3C//DTD SVG 1.1//EN"
 "http://www.w3.org/Graphics/SVG/1.1/DTD/svg11.dtd">
<!-- Generated by graphviz version 2.38.0 (20140413.2041)
 -->
<!-- Title: %3 Pages: 1 -->
<svg width="1955pt" height="170pt"
 viewBox="0.00 0.00 1954.89 170.12" xmlns="http://www.w3.org/2000/svg" xmlns:xlink="http://www.w3.org/1999/xlink">
<g id="graph0" class="graph" transform="scale(1 1) rotate(0) translate(4 166.125)">
<title>%3</title>
<polygon fill="white" stroke="none" points="-4,4 -4,-166.125 1950.89,-166.125 1950.89,4 -4,4"/>
<!-- &#45;1 -->
<g id="node1" class="node"><title>&#45;1</title>
<polygon fill="lightgray" stroke="black" points="1317.09,-95.9117 1293.09,-95.9117 1293.09,-77.9117 1317.09,-77.9117 1317.09,-95.9117"/>
<text text-anchor="middle" x="1305.09" y="-84.7117" font-family="Times New Roman,serif" font-size="9.00">&#45;1</text>
</g>
<!-- 0 -->
<g id="node41" class="node"><title>0</title>
<ellipse fill="lightblue" stroke="black" cx="930.091" cy="-14.8492" rx="14.7" ry="14.7"/>
<text text-anchor="middle" x="930.091" y="-12.6492" font-family="Times New Roman,serif" font-size="9.00">0</text>
</g>
<!-- &#45;1&#45;&gt;0 -->
<g id="edge1" class="edge"><title>&#45;1&#45;&gt;0</title>
<path fill="none" stroke="green" stroke-width="0.119237" d="M1298.99,-77.8632C1295.21,-73.4959 1289.96,-68.4426 1284.09,-65.6985 1150.45,-3.19259 1094.32,-75.5506 954.091,-29.6985 953.211,-29.4107 952.327,-29.0879 951.446,-28.7369"/>
<polygon fill="green" stroke="green" stroke-width="0.119237" points="952.847,-25.5253 942.334,-24.2143 949.735,-31.7954 952.847,-25.5253"/>
</g>
<!-- 1 -->
<g id="node42" class="node"><title>1</title>
<ellipse fill="lightblue" stroke="black" cx="1048.09" cy="-14.8492" rx="14.7" ry="14.7"/>
<text text-anchor="middle" x="1048.09" y="-12.6492" font-family="Times New Roman,serif" font-size="9.00">1</text>
</g>
<!-- &#45;1&#45;&gt;1 -->
<g id="edge2" class="edge"><title>&#45;1&#45;&gt;1</title>
<path fill="none" stroke="red" stroke-width="0.255718" d="M1298.57,-77.5859C1294.8,-73.3556 1289.69,-68.5249 1284.09,-65.6985 1198.76,-22.6495 1162,-62.0914 1072.09,-29.6985 1071.22,-29.3846 1070.34,-29.0396 1069.47,-28.67"/>
<polygon fill="red" stroke="red" stroke-width="0.255718" points="1070.89,-25.4655 1060.39,-24.0603 1067.72,-31.7075 1070.89,-25.4655"/>
</g>
<!-- 2 -->
<g id="node43" class="node"><title>2</title>
<ellipse fill="lightblue" stroke="black" cx="1096.09" cy="-14.8492" rx="14.7" ry="14.7"/>
<text text-anchor="middle" x="1096.09" y="-12.6492" font-family="Times New Roman,serif" font-size="9.00">2</text>
</g>
<!-- &#45;1&#45;&gt;2 -->
<g id="edge3" class="edge"><title>&#45;1&#45;&gt;2</title>
<path fill="none" stroke="red" stroke-width="0.149775" d="M1298.46,-77.7867C1294.66,-73.6153 1289.56,-68.7767 1284.09,-65.6985 1230.66,-35.6201 1158.45,-23.1316 1120.97,-18.4125"/>
<polygon fill="red" stroke="red" stroke-width="0.149775" points="1121.28,-14.9249 1110.94,-17.2327 1120.47,-21.877 1121.28,-14.9249"/>
</g>
<!-- 3 -->
<g id="node44" class="node"><title>3</title>
<ellipse fill="lightblue" stroke="black" cx="978.091" cy="-14.8492" rx="14.7" ry="14.7"/>
<text text-anchor="middle" x="978.091" y="-12.6492" font-family="Times New Roman,serif" font-size="9.00">3</text>
</g>
<!-- &#45;1&#45;&gt;3 -->
<g id="edge4" class="edge"><title>&#45;1&#45;&gt;3</title>
<path fill="none" stroke="red" stroke-width="0.155957" d="M1298.6,-77.5172C1294.84,-73.2668 1289.74,-68.4388 1284.09,-65.6985 1179.15,-14.7517 1138.06,-54.5886 1024.09,-29.6985 1016.75,-28.0964 1008.89,-25.9083 1001.77,-23.7445"/>
<polygon fill="red" stroke="red" stroke-width="0.155957" points="1002.63,-20.3429 992.036,-20.6627 1000.51,-27.0167 1002.63,-20.3429"/>
</g>
<!-- &#45;2 -->
<g id="node2" class="node"><title>&#45;2</title>
<polygon fill="lightgray" stroke="black" points="1359.09,-95.9117 1335.09,-95.9117 1335.09,-77.9117 1359.09,-77.9117 1359.09,-95.9117"/>
<text text-anchor="middle" x="1347.09" y="-84.7117" font-family="Times New Roman,serif" font-size="9.00">&#45;2</text>
</g>
<!-- &#45;2&#45;&gt;0 -->
<g id="edge5" class="edge"><title>&#45;2&#45;&gt;0</title>
<path fill="none" stroke="green" stroke-width="0.121219" d="M1341,-77.8363C1337.22,-73.4601 1331.97,-68.4068 1326.09,-65.6985 1175.2,3.7562 1112.28,-80.3585 954.091,-29.6985 953.037,-29.361 951.979,-28.9724 950.926,-28.5446"/>
<polygon fill="green" stroke="green" stroke-width="0.121219" points="952.335,-25.3355 941.83,-23.9563 949.182,-31.5852 952.335,-25.3355"/>
</g>
<!-- &#45;2&#45;&gt;1 -->
<g id="edge6" class="edge"><title>&#45;2&#45;&gt;1</title>
<path fill="none" stroke="red" stroke-width="0.120707" d="M1340.6,-77.5244C1336.83,-73.2762 1331.73,-68.4479 1326.09,-65.6985 1223.6,-15.7406 1179.88,-66.8697 1072.09,-29.6985 1071.22,-29.3966 1070.34,-29.0618 1069.46,-28.7007"/>
<polygon fill="red" stroke="red" stroke-width="0.120707" points="1070.87,-25.4928 1060.36,-24.131 1067.73,-31.7478 1070.87,-25.4928"/>
</g>
<!-- &#45;2&#45;&gt;2 -->
<g id="edge7" class="edge"><title>&#45;2&#45;&gt;2</title>
<path fill="none" stroke="green" stroke-width="0.135281" d="M1340.51,-77.6863C1336.73,-73.4855 1331.63,-68.6509 1326.09,-65.6985 1257.96,-29.368 1165.08,-19.511 1121.12,-16.84"/>
<polygon fill="green" stroke="green" stroke-width="0.135281" points="1121.21,-13.3401 1111.04,-16.304 1120.84,-20.3303 1121.21,-13.3401"/>
</g>
<!-- &#45;2&#45;&gt;3 -->
<g id="edge8" class="edge"><title>&#45;2&#45;&gt;3</title>
<path fill="none" stroke="red" stroke-width="0.314462" stroke-dasharray="1,5" d="M1340.98,-77.8851C1337.19,-73.5252 1331.94,-68.4719 1326.09,-65.6985 1203.94,-7.82037 1156.42,-57.2869 1024.09,-29.6985 1016.74,-28.166 1008.87,-25.9985 1001.76,-23.8322"/>
<polygon fill="red" stroke="red" stroke-width="0.314462" points="1002.61,-20.4315 992.021,-20.7332 1000.49,-27.1017 1002.61,-20.4315"/>
</g>
<!-- &#45;3 -->
<g id="node3" class="node"><title>&#45;3</title>
<polygon fill="lightgray" stroke="black" points="1401.09,-95.9117 1377.09,-95.9117 1377.09,-77.9117 1401.09,-77.9117 1401.09,-95.9117"/>
<text text-anchor="middle" x="1389.09" y="-84.7117" font-family="Times New Roman,serif" font-size="9.00">&#45;3</text>
</g>
<!-- &#45;3&#45;&gt;0 -->
<g id="edge9" class="edge"><title>&#45;3&#45;&gt;0</title>
<path fill="none" stroke="red" stroke-width="0.961285" d="M1383.01,-77.8148C1379.24,-73.4315 1373.99,-68.3782 1368.09,-65.6985 1199.94,10.7112 1130.26,-85.1709 954.091,-29.6985 953.035,-29.3662 951.976,-28.9818 950.922,-28.5573"/>
<polygon fill="red" stroke="red" stroke-width="0.961285" points="952.329,-25.3474 941.822,-23.9816 949.184,-31.6012 952.329,-25.3474"/>
</g>
<!-- &#45;3&#45;&gt;1 -->
<g id="edge10" class="edge"><title>&#45;3&#45;&gt;1</title>
<path fill="none" stroke="green" stroke-width="0.11251" d="M1382.98,-77.8904C1379.19,-73.5322 1373.94,-68.4789 1368.09,-65.6985 1248.4,-8.81141 1197.8,-71.6632 1072.09,-29.6985 1071.21,-29.4052 1070.33,-29.0778 1069.45,-28.723"/>
<polygon fill="green" stroke="green" stroke-width="0.11251" points="1070.86,-25.5127 1060.34,-24.1822 1067.73,-31.7771 1070.86,-25.5127"/>
</g>
<!-- &#45;3&#45;&gt;2 -->
<g id="edge11" class="edge"><title>&#45;3&#45;&gt;2</title>
<path fill="none" stroke="red" stroke-width="0.346859" d="M1382.55,-77.615C1378.78,-73.3933 1373.67,-68.5614 1368.09,-65.6985 1285.08,-23.1374 1171.39,-16.4669 1121.41,-15.7236"/>
<polygon fill="red" stroke="red" stroke-width="0.346859" points="1121.23,-12.2222 1111.2,-15.6438 1121.17,-19.222 1121.23,-12.2222"/>
</g>
<!-- &#45;3&#45;&gt;3 -->
<g id="edge12" class="edge"><title>&#45;3&#45;&gt;3</title>
<path fill="none" stroke="red" stroke-width="0.116729" d="M1383,-77.8535C1379.21,-73.4831 1373.96,-68.4298 1368.09,-65.6985 1228.7,-0.877159 1174.8,-59.9908 1024.09,-29.6985 1016.73,-28.2188 1008.86,-26.067 1001.74,-23.8988"/>
<polygon fill="red" stroke="red" stroke-width="0.116729" points="1002.6,-20.4988 992.01,-20.7868 1000.47,-27.1663 1002.6,-20.4988"/>
</g>
<!-- &#45;4 -->
<g id="node4" class="node"><title>&#45;4</title>
<polygon fill="lightgray" stroke="black" points="1880.09,-95.9117 1856.09,-95.9117 1856.09,-77.9117 1880.09,-77.9117 1880.09,-95.9117"/>
<text text-anchor="middle" x="1868.09" y="-84.7117" font-family="Times New Roman,serif" font-size="9.00">&#45;4</text>
</g>
<!-- &#45;4&#45;&gt;1 -->
<g id="edge13" class="edge"><title>&#45;4&#45;&gt;1</title>
<path fill="none" stroke="green" stroke-width="0.209886" d="M1860.24,-77.7066C1855.46,-73.2872 1848.96,-68.2339 1842.09,-65.6985 1681.4,-6.35405 1236.48,-77.8679 1072.09,-29.6985 1071.03,-29.3873 1069.96,-29.0203 1068.91,-28.61"/>
<polygon fill="green" stroke="green" stroke-width="0.209886" points="1070.3,-25.3967 1059.79,-24.0859 1067.19,-31.6669 1070.3,-25.3967"/>
</g>
<!-- &#45;4&#45;&gt;2 -->
<g id="edge14" class="edge"><title>&#45;4&#45;&gt;2</title>
<path fill="none" stroke="red" stroke-width="0.19539" d="M1860.22,-77.758C1855.43,-73.3557 1848.93,-68.3024 1842.09,-65.6985 1706.05,-13.9069 1235.79,-14.6027 1121.34,-15.5702"/>
<polygon fill="red" stroke="red" stroke-width="0.19539" points="1121.09,-12.0723 1111.12,-15.6658 1121.15,-19.072 1121.09,-12.0723"/>
</g>
<!-- &#45;4&#45;&gt;3 -->
<g id="edge15" class="edge"><title>&#45;4&#45;&gt;3</title>
<path fill="none" stroke="red" stroke-width="0.144493" d="M1855.71,-80.5131C1843.96,-75.67 1825.68,-68.8544 1809.09,-65.6985 1465.99,-0.443059 1368.36,-88.488 1024.09,-29.6985 1016.69,-28.4345 1008.8,-26.3467 1001.69,-24.1708"/>
<polygon fill="red" stroke="red" stroke-width="0.144493" points="1002.56,-20.7733 991.969,-21.0056 1000.39,-27.4294 1002.56,-20.7733"/>
</g>
<!-- &#45;5 -->
<g id="node5" class="node"><title>&#45;5</title>
<polygon fill="lightgray" stroke="black" points="1443.09,-95.9117 1419.09,-95.9117 1419.09,-77.9117 1443.09,-77.9117 1443.09,-95.9117"/>
<text text-anchor="middle" x="1431.09" y="-84.7117" font-family="Times New Roman,serif" font-size="9.00">&#45;5</text>
</g>
<!-- &#45;5&#45;&gt;0 -->
<g id="edge16" class="edge"><title>&#45;5&#45;&gt;0</title>
<path fill="none" stroke="red" stroke-width="0.198524" d="M1425.02,-77.7972C1421.25,-73.408 1416,-68.3547 1410.09,-65.6985 1224.67,17.6706 1148.24,-89.9865 954.091,-29.6985 953.034,-29.3704 951.974,-28.9894 950.918,-28.5678"/>
<polygon fill="red" stroke="red" stroke-width="0.198524" points="952.324,-25.3571 941.816,-24.0022 949.185,-31.6142 952.324,-25.3571"/>
</g>
<!-- &#45;5&#45;&gt;1 -->
<g id="edge17" class="edge"><title>&#45;5&#45;&gt;1</title>
<path fill="none" stroke="green" stroke-width="0.317892" d="M1424.99,-77.8576C1421.21,-73.4885 1415.96,-68.4351 1410.09,-65.6985 1273.17,-1.8696 1215.74,-76.466 1072.09,-29.6985 1071.21,-29.4118 1070.33,-29.0899 1069.44,-28.7398"/>
<polygon fill="green" stroke="green" stroke-width="0.317892" points="1070.85,-25.5279 1060.33,-24.2209 1067.74,-31.7992 1070.85,-25.5279"/>
</g>
<!-- &#45;5&#45;&gt;2 -->
<g id="edge18" class="edge"><title>&#45;5&#45;&gt;2</title>
<path fill="none" stroke="green" stroke-width="0.494076" d="M1424.58,-77.5618C1420.81,-73.3245 1415.71,-68.4947 1410.09,-65.6985 1359.06,-40.2957 1185.97,-23.4335 1121,-17.8671"/>
<polygon fill="green" stroke="green" stroke-width="0.494076" points="1121.11,-14.3643 1110.85,-17.015 1120.53,-21.3398 1121.11,-14.3643"/>
</g>
<!-- &#45;5&#45;&gt;3 -->
<g id="edge19" class="edge"><title>&#45;5&#45;&gt;3</title>
<path fill="none" stroke="green" stroke-width="0.294918" d="M1425.01,-77.8287C1421.23,-73.4499 1415.98,-68.3966 1410.09,-65.6985 1253.45,6.07394 1193.2,-62.6985 1024.09,-29.6985 1016.72,-28.2604 1008.85,-26.1209 1001.73,-23.9512"/>
<polygon fill="green" stroke="green" stroke-width="0.294918" points="1002.59,-20.5517 992.001,-20.829 1000.45,-27.217 1002.59,-20.5517"/>
</g>
<!-- &#45;6 -->
<g id="node6" class="node"><title>&#45;6</title>
<polygon fill="lightgray" stroke="black" points="1485.09,-95.9117 1461.09,-95.9117 1461.09,-77.9117 1485.09,-77.9117 1485.09,-95.9117"/>
<text text-anchor="middle" x="1473.09" y="-84.7117" font-family="Times New Roman,serif" font-size="9.00">&#45;6</text>
</g>
<!-- &#45;6&#45;&gt;0 -->
<g id="edge20" class="edge"><title>&#45;6&#45;&gt;0</title>
<path fill="none" stroke="red" stroke-width="0.488623" d="M1467.03,-77.7826C1463.26,-73.3884 1458.01,-68.3351 1452.09,-65.6985 1249.4,24.6333 1166.24,-94.8046 954.091,-29.6985 953.033,-29.3739 951.972,-28.9958 950.916,-28.5765"/>
<polygon fill="red" stroke="red" stroke-width="0.488623" points="952.32,-25.3652 941.811,-24.0195 949.187,-31.625 952.32,-25.3652"/>
</g>
<!-- &#45;6&#45;&gt;1 -->
<g id="edge21" class="edge"><title>&#45;6&#45;&gt;1</title>
<path fill="none" stroke="red" stroke-width="0.290686" d="M1467.01,-77.8319C1463.23,-73.4542 1457.98,-68.4009 1452.09,-65.6985 1297.92,5.08054 1233.71,-81.2748 1072.09,-29.6985 1071.04,-29.3621 1069.98,-28.9744 1068.92,-28.5472"/>
<polygon fill="red" stroke="red" stroke-width="0.290686" points="1070.33,-25.3379 1059.83,-23.9615 1067.18,-31.5885 1070.33,-25.3379"/>
</g>
<!-- &#45;6&#45;&gt;2 -->
<g id="edge22" class="edge"><title>&#45;6&#45;&gt;2</title>
<path fill="none" stroke="green" stroke-width="0.336088" d="M1466.6,-77.5206C1462.84,-73.2713 1457.73,-68.4431 1452.09,-65.6985 1393.36,-37.1307 1192.7,-21.9545 1121.44,-17.3685"/>
<polygon fill="green" stroke="green" stroke-width="0.336088" points="1121.36,-13.8564 1111.16,-16.7229 1120.92,-20.8427 1121.36,-13.8564"/>
</g>
<!-- &#45;6&#45;&gt;3 -->
<g id="edge23" class="edge"><title>&#45;6&#45;&gt;3</title>
<path fill="none" stroke="red" stroke-width="0.117302" d="M1467.02,-77.8086C1463.24,-73.4231 1457.99,-68.3698 1452.09,-65.6985 1365.14,-26.334 1117.85,-47.5536 1024.09,-29.6985 1016.71,-28.2938 1008.84,-26.1643 1001.72,-23.9934"/>
<polygon fill="red" stroke="red" stroke-width="0.117302" points="1002.59,-20.5943 991.995,-20.8629 1000.44,-27.2578 1002.59,-20.5943"/>
</g>
<!-- &#45;7 -->
<g id="node7" class="node"><title>&#45;7</title>
<polygon fill="lightgray" stroke="black" points="1527.09,-95.9117 1503.09,-95.9117 1503.09,-77.9117 1527.09,-77.9117 1527.09,-95.9117"/>
<text text-anchor="middle" x="1515.09" y="-84.7117" font-family="Times New Roman,serif" font-size="9.00">&#45;7</text>
</g>
<!-- &#45;7&#45;&gt;0 -->
<g id="edge24" class="edge"><title>&#45;7&#45;&gt;0</title>
<path fill="none" stroke="red" stroke-width="0.54544" d="M1509.03,-77.7701C1505.26,-73.3719 1500.01,-68.3186 1494.09,-65.6985 1384.1,-17.05 1069.16,-64.6614 954.091,-29.6985 953.032,-29.3768 951.97,-29.0012 950.913,-28.5838"/>
<polygon fill="red" stroke="red" stroke-width="0.54544" points="952.316,-25.3721 941.806,-24.0341 949.188,-31.6342 952.316,-25.3721"/>
</g>
<!-- &#45;7&#45;&gt;1 -->
<g id="edge25" class="edge"><title>&#45;7&#45;&gt;1</title>
<path fill="none" stroke="green" stroke-width="0.143109" d="M1509.02,-77.8112C1505.24,-73.4266 1499.99,-68.3733 1494.09,-65.6985 1322.65,12.0365 1251.68,-86.088 1072.09,-29.6985 1071.04,-29.367 1069.98,-28.9833 1068.92,-28.5595"/>
<polygon fill="green" stroke="green" stroke-width="0.143109" points="1070.33,-25.3494 1059.82,-23.9858 1067.18,-31.6038 1070.33,-25.3494"/>
</g>
<!-- &#45;7&#45;&gt;2 -->
<g id="edge26" class="edge"><title>&#45;7&#45;&gt;2</title>
<path fill="none" stroke="green" stroke-width="0.274413" d="M1508.97,-77.8982C1505.19,-73.5426 1499.94,-68.4893 1494.09,-65.6985 1427.46,-33.8832 1198.1,-20.5706 1121.34,-16.9386"/>
<polygon fill="green" stroke="green" stroke-width="0.274413" points="1121.31,-13.4336 1111.16,-16.4719 1120.99,-20.4263 1121.31,-13.4336"/>
</g>
<!-- &#45;7&#45;&gt;3 -->
<g id="edge27" class="edge"><title>&#45;7&#45;&gt;3</title>
<path fill="none" stroke="green" stroke-width="0.294578" d="M1509.02,-77.7921C1505.25,-73.4011 1500,-68.3478 1494.09,-65.6985 1398.5,-22.8537 1127.06,-48.9096 1024.09,-29.6985 1016.71,-28.3214 1008.83,-26.2 1001.72,-24.0281"/>
<polygon fill="green" stroke="green" stroke-width="0.294578" points="1002.58,-20.6294 991.989,-20.8908 1000.43,-27.2915 1002.58,-20.6294"/>
</g>
<!-- &#45;8 -->
<g id="node8" class="node"><title>&#45;8</title>
<polygon fill="lightgray" stroke="black" points="1569.09,-95.9117 1545.09,-95.9117 1545.09,-77.9117 1569.09,-77.9117 1569.09,-95.9117"/>
<text text-anchor="middle" x="1557.09" y="-84.7117" font-family="Times New Roman,serif" font-size="9.00">&#45;8</text>
</g>
<!-- &#45;8&#45;&gt;0 -->
<g id="edge28" class="edge"><title>&#45;8&#45;&gt;0</title>
<path fill="none" stroke="green" stroke-width="0.105293" stroke-dasharray="1,5" d="M1551.04,-77.7595C1547.27,-73.3577 1542.02,-68.3044 1536.09,-65.6985 1417.46,-13.5664 1078.16,-67.0721 954.091,-29.6985 953.031,-29.3794 951.969,-29.0058 950.912,-28.5901"/>
<polygon fill="green" stroke="green" stroke-width="0.105293" points="952.313,-25.3781 941.802,-24.0466 949.189,-31.6421 952.313,-25.3781"/>
</g>
<!-- &#45;8&#45;&gt;1 -->
<g id="edge29" class="edge"><title>&#45;8&#45;&gt;1</title>
<path fill="none" stroke="red" stroke-width="0.704205" d="M1551.02,-77.7942C1547.25,-73.404 1542,-68.3507 1536.09,-65.6985 1347.38,18.9966 1269.67,-90.9041 1072.09,-29.6985 1071.03,-29.3711 1069.97,-28.9907 1068.92,-28.5696"/>
<polygon fill="red" stroke="red" stroke-width="0.704205" points="1070.32,-25.3588 1059.81,-24.0058 1067.19,-31.6164 1070.32,-25.3588"/>
</g>
<!-- &#45;8&#45;&gt;2 -->
<g id="edge30" class="edge"><title>&#45;8&#45;&gt;2</title>
<path fill="none" stroke="red" stroke-width="0.249661" d="M1550.99,-77.8723C1547.2,-73.5081 1541.95,-68.4548 1536.09,-65.6985 1461.43,-30.59 1202.67,-19.3115 1120.99,-16.5833"/>
<polygon fill="red" stroke="red" stroke-width="0.249661" points="1121,-13.0816 1110.89,-16.2598 1120.77,-20.078 1121,-13.0816"/>
</g>
<!-- &#45;8&#45;&gt;3 -->
<g id="edge31" class="edge"><title>&#45;8&#45;&gt;3</title>
<path fill="none" stroke="green" stroke-width="0.622933" d="M1551.03,-77.7782C1547.26,-73.3826 1542.01,-68.3293 1536.09,-65.6985 1431.86,-19.3718 1136.28,-50.2662 1024.09,-29.6985 1016.71,-28.3445 1008.82,-26.2299 1001.71,-24.0572"/>
<polygon fill="green" stroke="green" stroke-width="0.622933" points="1002.58,-20.6587 991.985,-20.9142 1000.42,-27.3196 1002.58,-20.6587"/>
</g>
<!-- &#45;9 -->
<g id="node9" class="node"><title>&#45;9</title>
<polygon fill="lightgray" stroke="black" points="1611.09,-95.9117 1587.09,-95.9117 1587.09,-77.9117 1611.09,-77.9117 1611.09,-95.9117"/>
<text text-anchor="middle" x="1599.09" y="-84.7117" font-family="Times New Roman,serif" font-size="9.00">&#45;9</text>
</g>
<!-- &#45;9&#45;&gt;0 -->
<g id="edge32" class="edge"><title>&#45;9&#45;&gt;0</title>
<path fill="none" stroke="red" stroke-width="0.147076" d="M1593.04,-77.7503C1589.28,-73.3454 1584.03,-68.2921 1578.09,-65.6985 1450.81,-10.082 1087.17,-69.4832 954.091,-29.6985 953.031,-29.3816 951.967,-29.0098 950.91,-28.5956"/>
<polygon fill="red" stroke="red" stroke-width="0.147076" points="952.311,-25.3832 941.799,-24.0574 949.19,-31.6489 952.311,-25.3832"/>
</g>
<!-- &#45;9&#45;&gt;1 -->
<g id="edge33" class="edge"><title>&#45;9&#45;&gt;1</title>
<path fill="none" stroke="green" stroke-width="0.428289" stroke-dasharray="1,5" d="M1593.03,-77.78C1589.26,-73.3851 1584.01,-68.3318 1578.09,-65.6985 1372.11,25.9598 1287.66,-95.7225 1072.09,-29.6985 1071.03,-29.3745 1069.97,-28.9969 1068.92,-28.578"/>
<polygon fill="green" stroke="green" stroke-width="0.428289" points="1070.32,-25.3666 1059.81,-24.0224 1067.19,-31.6269 1070.32,-25.3666"/>
</g>
<!-- &#45;9&#45;&gt;2 -->
<g id="edge34" class="edge"><title>&#45;9&#45;&gt;2</title>
<path fill="none" stroke="red" stroke-width="0.168842" d="M1593,-77.8509C1589.22,-73.4795 1583.97,-68.4262 1578.09,-65.6985 1495.59,-27.3921 1208.53,-18.232 1121.38,-16.3109"/>
<polygon fill="red" stroke="red" stroke-width="0.168842" points="1121.39,-12.8106 1111.32,-16.1024 1121.25,-19.8091 1121.39,-12.8106"/>
</g>
<!-- &#45;9&#45;&gt;3 -->
<g id="edge35" class="edge"><title>&#45;9&#45;&gt;3</title>
<path fill="none" stroke="green" stroke-width="0.111105" d="M1593.04,-77.7664C1589.27,-73.3669 1584.02,-68.3136 1578.09,-65.6985 1465.22,-15.8889 1145.5,-51.6234 1024.09,-29.6985 1016.7,-28.3641 1008.82,-26.2553 1001.71,-24.0819"/>
<polygon fill="green" stroke="green" stroke-width="0.111105" points="1002.57,-20.6837 991.981,-20.9341 1000.42,-27.3435 1002.57,-20.6837"/>
</g>
<!-- &#45;10 -->
<g id="node10" class="node"><title>&#45;10</title>
<polygon fill="lightgray" stroke="black" points="1658.59,-95.9117 1629.59,-95.9117 1629.59,-77.9117 1658.59,-77.9117 1658.59,-95.9117"/>
<text text-anchor="middle" x="1644.09" y="-84.7117" font-family="Times New Roman,serif" font-size="9.00">&#45;10</text>
</g>
<!-- &#45;10&#45;&gt;0 -->
<g id="edge36" class="edge"><title>&#45;10&#45;&gt;0</title>
<path fill="none" stroke="red" stroke-width="0.176664" d="M1636.95,-77.7302C1632.57,-73.3186 1626.57,-68.2653 1620.09,-65.6985 1482.28,-11.1381 1096.17,-71.8948 954.091,-29.6985 953.03,-29.3835 951.966,-29.0133 950.909,-28.6004"/>
<polygon fill="red" stroke="red" stroke-width="0.176664" points="952.308,-25.3877 941.796,-24.0669 949.19,-31.6549 952.308,-25.3877"/>
</g>
<!-- &#45;10&#45;&gt;1 -->
<g id="edge37" class="edge"><title>&#45;10&#45;&gt;1</title>
<path fill="none" stroke="green" stroke-width="0.129011" d="M1636.94,-77.7584C1632.56,-73.3561 1626.56,-68.3028 1620.09,-65.6985 1393.67,25.4655 1305.66,-100.543 1072.09,-29.6985 1071.03,-29.3773 1069.97,-29.0021 1068.91,-28.5851"/>
<polygon fill="green" stroke="green" stroke-width="0.129011" points="1070.32,-25.3733 1059.81,-24.0366 1067.19,-31.6358 1070.32,-25.3733"/>
</g>
<!-- &#45;10&#45;&gt;2 -->
<g id="edge38" class="edge"><title>&#45;10&#45;&gt;2</title>
<path fill="none" stroke="red" stroke-width="0.280963" d="M1636.91,-77.8291C1632.52,-73.4505 1626.52,-68.3972 1620.09,-65.6985 1528.19,-27.1245 1212.46,-18.0942 1121.06,-16.2667"/>
<polygon fill="red" stroke="red" stroke-width="0.280963" points="1121.12,-12.7673 1111.06,-16.078 1120.99,-19.7661 1121.12,-12.7673"/>
</g>
<!-- &#45;10&#45;&gt;3 -->
<g id="edge39" class="edge"><title>&#45;10&#45;&gt;3</title>
<path fill="none" stroke="red" stroke-width="0.462676" d="M1636.95,-77.7456C1632.57,-73.3391 1626.57,-68.2858 1620.09,-65.6985 1496.88,-16.4649 1154.72,-52.981 1024.09,-29.6985 1016.7,-28.3809 1008.82,-26.2772 1001.7,-24.1032"/>
<polygon fill="red" stroke="red" stroke-width="0.462676" points="1002.57,-20.7051 991.978,-20.9512 1000.41,-27.364 1002.57,-20.7051"/>
</g>
<!-- &#45;11 -->
<g id="node11" class="node"><title>&#45;11</title>
<polygon fill="lightgray" stroke="black" points="47.5908,-95.9117 18.5908,-95.9117 18.5908,-77.9117 47.5908,-77.9117 47.5908,-95.9117"/>
<text text-anchor="middle" x="33.0908" y="-84.7117" font-family="Times New Roman,serif" font-size="9.00">&#45;11</text>
</g>
<!-- &#45;11&#45;&gt;0 -->
<g id="edge40" class="edge"><title>&#45;11&#45;&gt;0</title>
<path fill="none" stroke="green" stroke-width="0.368781" d="M40.2313,-77.7376C44.6114,-73.3284 50.6114,-68.2751 57.0908,-65.6985 137.7,-33.6424 770.33,-19.0895 904.954,-16.3393"/>
<polygon fill="green" stroke="green" stroke-width="0.368781" points="905.176,-19.8356 915.104,-16.1352 905.036,-12.8371 905.176,-19.8356"/>
</g>
<!-- &#45;11&#45;&gt;3 -->
<g id="edge41" class="edge"><title>&#45;11&#45;&gt;3</title>
<path fill="none" stroke="green" stroke-width="0.220122" d="M40.2151,-77.6964C44.5899,-73.2735 50.5899,-68.2202 57.0908,-65.6985 243.082,6.4481 762.463,-85.1639 954.091,-29.6985 955.154,-29.3909 956.219,-29.0267 957.278,-28.6187"/>
<polygon fill="green" stroke="green" stroke-width="0.220122" points="958.988,-31.6778 966.396,-24.1032 955.881,-25.4049 958.988,-31.6778"/>
</g>
<!-- &#45;12 -->
<g id="node12" class="node"><title>&#45;12</title>
<polygon fill="lightgray" stroke="black" points="1705.59,-95.9117 1676.59,-95.9117 1676.59,-77.9117 1705.59,-77.9117 1705.59,-95.9117"/>
<text text-anchor="middle" x="1691.09" y="-84.7117" font-family="Times New Roman,serif" font-size="9.00">&#45;12</text>
</g>
<!-- &#45;12&#45;&gt;0 -->
<g id="edge42" class="edge"><title>&#45;12&#45;&gt;0</title>
<path fill="none" stroke="green" stroke-width="0.445129" d="M1684.32,-77.7249C1680.15,-73.3116 1674.4,-68.2583 1668.09,-65.6985 1520.89,-5.93283 1106.47,-74.6514 954.091,-29.6985 953.03,-29.3854 951.965,-29.0168 950.907,-28.6052"/>
<polygon fill="green" stroke="green" stroke-width="0.445129" points="952.306,-25.3922 941.793,-24.0763 949.191,-31.6608 952.306,-25.3922"/>
</g>
<!-- &#45;12&#45;&gt;1 -->
<g id="edge43" class="edge"><title>&#45;12&#45;&gt;1</title>
<path fill="none" stroke="green" stroke-width="0.12251" d="M1684.31,-77.7484C1680.13,-73.3429 1674.38,-68.2896 1668.09,-65.6985 1545.4,-15.1714 1199.17,-67.8757 1072.09,-29.6985 1071.03,-29.3801 1069.97,-29.0072 1068.91,-28.592"/>
<polygon fill="green" stroke="green" stroke-width="0.12251" points="1070.31,-25.3798 1059.8,-24.0503 1067.19,-31.6445 1070.31,-25.3798"/>
</g>
<!-- &#45;12&#45;&gt;2 -->
<g id="edge44" class="edge"><title>&#45;12&#45;&gt;2</title>
<path fill="none" stroke="green" stroke-width="0.160345" d="M1684.28,-77.811C1680.1,-73.4264 1674.35,-68.3731 1668.09,-65.6985 1567.37,-22.6419 1218,-16.7735 1121.15,-15.9748"/>
<polygon fill="green" stroke="green" stroke-width="0.160345" points="1121.13,-12.4747 1111.11,-15.9032 1121.08,-19.4745 1121.13,-12.4747"/>
</g>
<!-- &#45;12&#45;&gt;3 -->
<g id="edge45" class="edge"><title>&#45;12&#45;&gt;3</title>
<path fill="none" stroke="red" stroke-width="0.256094" d="M1684.31,-77.7378C1680.14,-73.3288 1674.39,-68.2755 1668.09,-65.6985 1535.43,-11.4139 1165.26,-54.5329 1024.09,-29.6985 1016.7,-28.3975 1008.81,-26.2987 1001.7,-24.1241"/>
<polygon fill="red" stroke="red" stroke-width="0.256094" points="1002.57,-20.7262 991.975,-20.968 1000.41,-27.3843 1002.57,-20.7262"/>
</g>
<!-- &#45;13 -->
<g id="node13" class="node"><title>&#45;13</title>
<polygon fill="lightgray" stroke="black" points="1752.59,-95.9117 1723.59,-95.9117 1723.59,-77.9117 1752.59,-77.9117 1752.59,-95.9117"/>
<text text-anchor="middle" x="1738.09" y="-84.7117" font-family="Times New Roman,serif" font-size="9.00">&#45;13</text>
</g>
<!-- &#45;13&#45;&gt;0 -->
<g id="edge46" class="edge"><title>&#45;13&#45;&gt;0</title>
<path fill="none" stroke="red" stroke-width="0.143942" d="M1731.32,-77.7176C1727.15,-73.3018 1721.4,-68.2485 1715.09,-65.6985 1558.13,-2.25208 1116.55,-77.351 954.091,-29.6985 953.029,-29.3871 951.964,-29.0198 950.906,-28.6093"/>
<polygon fill="red" stroke="red" stroke-width="0.143942" points="952.304,-25.396 941.791,-24.0844 949.192,-31.666 952.304,-25.396"/>
</g>
<!-- &#45;13&#45;&gt;1 -->
<g id="edge47" class="edge"><title>&#45;13&#45;&gt;1</title>
<path fill="none" stroke="green" stroke-width="0.237712" d="M1731.31,-77.738C1727.14,-73.3291 1721.39,-68.2758 1715.09,-65.6985 1582.64,-11.4922 1209.24,-70.5741 1072.09,-29.6985 1071.03,-29.3825 1069.97,-29.0114 1068.91,-28.5978"/>
<polygon fill="green" stroke="green" stroke-width="0.237712" points="1070.31,-25.3853 1059.8,-24.0618 1067.19,-31.6517 1070.31,-25.3853"/>
</g>
<!-- &#45;13&#45;&gt;2 -->
<g id="edge48" class="edge"><title>&#45;13&#45;&gt;2</title>
<path fill="none" stroke="green" stroke-width="0.123291" d="M1731.29,-77.7956C1727.11,-73.4058 1721.36,-68.3525 1715.09,-65.6985 1605.29,-19.1876 1223.07,-15.8359 1121.2,-15.784"/>
<polygon fill="green" stroke="green" stroke-width="0.123291" points="1120.95,-12.284 1110.95,-15.7899 1120.96,-19.284 1120.95,-12.284"/>
</g>
<!-- &#45;13&#45;&gt;3 -->
<g id="edge49" class="edge"><title>&#45;13&#45;&gt;3</title>
<path fill="none" stroke="red" stroke-width="0.251327" d="M1731.32,-77.7289C1727.14,-73.3169 1721.39,-68.2636 1715.09,-65.6985 1572.67,-7.73388 1175.58,-56.0528 1024.09,-29.6985 1016.69,-28.4115 1008.81,-26.3169 1001.7,-24.1418"/>
<polygon fill="red" stroke="red" stroke-width="0.251327" points="1002.57,-20.744 991.973,-20.9822 1000.4,-27.4014 1002.57,-20.744"/>
</g>
<!-- &#45;14 -->
<g id="node14" class="node"><title>&#45;14</title>
<polygon fill="lightgray" stroke="black" points="193.591,-95.9117 164.591,-95.9117 164.591,-77.9117 193.591,-77.9117 193.591,-95.9117"/>
<text text-anchor="middle" x="179.091" y="-84.7117" font-family="Times New Roman,serif" font-size="9.00">&#45;14</text>
</g>
<!-- &#45;14&#45;&gt;0 -->
<g id="edge50" class="edge"><title>&#45;14&#45;&gt;0</title>
<path fill="none" stroke="red" stroke-width="0.305326" d="M185.88,-77.7674C190.059,-73.3682 195.809,-68.3149 202.091,-65.6985 268.149,-38.1826 784.704,-20.406 905.078,-16.6113"/>
<polygon fill="red" stroke="red" stroke-width="0.305326" points="905.281,-20.1068 915.167,-16.297 905.063,-13.1102 905.281,-20.1068"/>
</g>
<!-- &#45;14&#45;&gt;1 -->
<g id="edge51" class="edge"><title>&#45;14&#45;&gt;1</title>
<path fill="none" stroke="red" stroke-width="0.321264" d="M185.857,-77.7121C190.029,-73.2945 195.779,-68.2412 202.091,-65.6985 367.156,0.802476 826.66,-59.5785 1002.09,-29.6985 1009.49,-28.4377 1017.38,-26.3508 1024.49,-24.1748"/>
<polygon fill="red" stroke="red" stroke-width="0.321264" points="1025.79,-27.4333 1034.21,-21.0088 1023.62,-20.7773 1025.79,-27.4333"/>
</g>
<!-- &#45;14&#45;&gt;2 -->
<g id="edge52" class="edge"><title>&#45;14&#45;&gt;2</title>
<path fill="none" stroke="green" stroke-width="0.334038" d="M185.854,-77.7036C190.025,-73.2831 195.775,-68.2298 202.091,-65.6985 381.702,6.28559 886.255,-83.6127 1072.09,-29.6985 1073.15,-29.3902 1074.22,-29.0255 1075.28,-28.6171"/>
<polygon fill="green" stroke="green" stroke-width="0.334038" points="1076.99,-31.6757 1084.39,-24.0999 1073.88,-25.4034 1076.99,-31.6757"/>
</g>
<!-- &#45;14&#45;&gt;3 -->
<g id="edge53" class="edge"><title>&#45;14&#45;&gt;3</title>
<path fill="none" stroke="red" stroke-width="0.121581" d="M185.86,-77.7189C190.033,-73.3036 195.783,-68.2503 202.091,-65.6985 357.183,-2.95694 793.565,-76.834 954.091,-29.6985 955.152,-29.3868 956.217,-29.0193 957.275,-28.6085"/>
<polygon fill="red" stroke="red" stroke-width="0.121581" points="958.99,-31.665 966.39,-24.083 955.877,-25.3953 958.99,-31.665"/>
</g>
<!-- &#45;15 -->
<g id="node15" class="node"><title>&#45;15</title>
<polygon fill="lightgray" stroke="black" points="240.591,-95.9117 211.591,-95.9117 211.591,-77.9117 240.591,-77.9117 240.591,-95.9117"/>
<text text-anchor="middle" x="226.091" y="-84.7117" font-family="Times New Roman,serif" font-size="9.00">&#45;15</text>
</g>
<!-- &#45;15&#45;&gt;0 -->
<g id="edge54" class="edge"><title>&#45;15&#45;&gt;0</title>
<path fill="none" stroke="green" stroke-width="0.256148" d="M232.884,-77.7785C237.066,-73.3829 242.816,-68.3296 249.091,-65.6985 370.912,-14.6186 796.739,-14.6954 904.937,-15.5712"/>
<polygon fill="green" stroke="green" stroke-width="0.256148" points="905.172,-19.0734 915.204,-15.6649 905.236,-12.0736 905.172,-19.0734"/>
</g>
<!-- &#45;15&#45;&gt;1 -->
<g id="edge55" class="edge"><title>&#45;15&#45;&gt;1</title>
<path fill="none" stroke="green" stroke-width="0.31906" d="M232.86,-77.7188C237.033,-73.3034 242.783,-68.2501 249.091,-65.6985 404.391,-2.87862 836.984,-58.0581 1002.09,-29.6985 1009.49,-28.4273 1017.38,-26.3374 1024.49,-24.1618"/>
<polygon fill="green" stroke="green" stroke-width="0.31906" points="1025.78,-27.4206 1034.21,-20.9983 1023.62,-20.7641 1025.78,-27.4206"/>
</g>
<!-- &#45;15&#45;&gt;2 -->
<g id="edge56" class="edge"><title>&#45;15&#45;&gt;2</title>
<path fill="none" stroke="green" stroke-width="0.100594" d="M232.856,-77.7092C237.028,-73.2906 242.778,-68.2373 249.091,-65.6985 418.935,2.60399 896.337,-80.9125 1072.09,-29.6985 1073.15,-29.3889 1074.22,-29.0232 1075.28,-28.6139"/>
<polygon fill="green" stroke="green" stroke-width="0.100594" points="1076.99,-31.6718 1084.39,-24.0937 1073.88,-25.4004 1076.99,-31.6718"/>
</g>
<!-- &#45;15&#45;&gt;3 -->
<g id="edge57" class="edge"><title>&#45;15&#45;&gt;3</title>
<path fill="none" stroke="red" stroke-width="0.16729" d="M232.863,-77.7264C237.037,-73.3136 242.787,-68.2603 249.091,-65.6985 394.419,-6.63761 803.645,-74.1345 954.091,-29.6985 955.152,-29.3851 956.216,-29.0162 957.274,-28.6043"/>
<polygon fill="red" stroke="red" stroke-width="0.16729" points="958.991,-31.6598 966.388,-24.0746 955.875,-25.3914 958.991,-31.6598"/>
</g>
<!-- &#45;16 -->
<g id="node16" class="node"><title>&#45;16</title>
<polygon fill="lightgray" stroke="black" points="287.591,-95.9117 258.591,-95.9117 258.591,-77.9117 287.591,-77.9117 287.591,-95.9117"/>
<text text-anchor="middle" x="273.091" y="-84.7117" font-family="Times New Roman,serif" font-size="9.00">&#45;16</text>
</g>
<!-- &#45;16&#45;&gt;0 -->
<g id="edge58" class="edge"><title>&#45;16&#45;&gt;0</title>
<path fill="none" stroke="green" stroke-width="0.911506" d="M279.89,-77.7911C284.073,-73.3999 289.823,-68.3466 296.091,-65.6985 408.817,-18.0742 801.695,-15.5496 905.03,-15.7289"/>
<polygon fill="green" stroke="green" stroke-width="0.911506" points="905.135,-19.2291 915.145,-15.7572 905.155,-12.2291 905.135,-19.2291"/>
</g>
<!-- &#45;16&#45;&gt;1 -->
<g id="edge59" class="edge"><title>&#45;16&#45;&gt;1</title>
<path fill="none" stroke="green" stroke-width="0.518266" d="M279.863,-77.7263C284.037,-73.3134 289.787,-68.2601 296.091,-65.6985 441.627,-6.5593 847.308,-56.5379 1002.09,-29.6985 1009.49,-28.4156 1017.37,-26.3222 1024.49,-24.1469"/>
<polygon fill="green" stroke="green" stroke-width="0.518266" points="1025.78,-27.4063 1034.21,-20.9864 1023.62,-20.7492 1025.78,-27.4063"/>
</g>
<!-- &#45;16&#45;&gt;2 -->
<g id="edge60" class="edge"><title>&#45;16&#45;&gt;2</title>
<path fill="none" stroke="red" stroke-width="0.130045" d="M279.859,-77.7154C284.031,-73.2989 289.781,-68.2456 296.091,-65.6985 456.169,-1.07728 906.418,-78.2126 1072.09,-29.6985 1073.15,-29.3875 1074.22,-29.0207 1075.28,-28.6105"/>
<polygon fill="red" stroke="red" stroke-width="0.130045" points="1076.99,-31.6675 1084.39,-24.0868 1073.88,-25.3971 1076.99,-31.6675"/>
</g>
<!-- &#45;16&#45;&gt;3 -->
<g id="edge61" class="edge"><title>&#45;16&#45;&gt;3</title>
<path fill="none" stroke="red" stroke-width="0.611606" d="M279.866,-77.735C284.042,-73.3251 289.792,-68.2718 296.091,-65.6985 431.656,-10.3178 813.724,-71.4355 954.091,-29.6985 955.151,-29.3831 956.215,-29.0127 957.273,-28.5995"/>
<polygon fill="red" stroke="red" stroke-width="0.611606" points="958.991,-31.6538 966.385,-24.0651 955.873,-25.3869 958.991,-31.6538"/>
</g>
<!-- &#45;17 -->
<g id="node17" class="node"><title>&#45;17</title>
<polygon fill="lightgray" stroke="black" points="334.591,-95.9117 305.591,-95.9117 305.591,-77.9117 334.591,-77.9117 334.591,-95.9117"/>
<text text-anchor="middle" x="320.091" y="-84.7117" font-family="Times New Roman,serif" font-size="9.00">&#45;17</text>
</g>
<!-- &#45;17&#45;&gt;0 -->
<g id="edge62" class="edge"><title>&#45;17&#45;&gt;0</title>
<path fill="none" stroke="red" stroke-width="0.365821" d="M326.896,-77.8058C331.081,-73.4194 336.831,-68.3661 343.091,-65.6985 446.711,-21.5389 806.567,-16.4663 905.023,-15.9106"/>
<polygon fill="red" stroke="red" stroke-width="0.365821" points="905.227,-19.4099 915.212,-15.8645 905.196,-12.4099 905.227,-19.4099"/>
</g>
<!-- &#45;17&#45;&gt;1 -->
<g id="edge63" class="edge"><title>&#45;17&#45;&gt;1</title>
<path fill="none" stroke="green" stroke-width="0.440466" d="M326.866,-77.7348C331.042,-73.3248 336.792,-68.2715 343.091,-65.6985 478.864,-10.2395 857.63,-55.0179 1002.09,-29.6985 1009.49,-28.4022 1017.37,-26.3048 1024.48,-24.13"/>
<polygon fill="green" stroke="green" stroke-width="0.440466" points="1025.78,-27.39 1034.21,-20.9728 1023.61,-20.7321 1025.78,-27.39"/>
</g>
<!-- &#45;17&#45;&gt;2 -->
<g id="edge64" class="edge"><title>&#45;17&#45;&gt;2</title>
<path fill="none" stroke="red" stroke-width="0.211264" d="M326.861,-77.7225C331.035,-73.3083 336.785,-68.255 343.091,-65.6985 493.405,-4.75817 916.498,-75.5129 1072.09,-29.6985 1073.15,-29.386 1074.22,-29.0178 1075.27,-28.6065"/>
<polygon fill="red" stroke="red" stroke-width="0.211264" points="1076.99,-31.6625 1084.39,-24.079 1073.88,-25.3934 1076.99,-31.6625"/>
</g>
<!-- &#45;17&#45;&gt;3 -->
<g id="edge65" class="edge"><title>&#45;17&#45;&gt;3</title>
<path fill="none" stroke="green" stroke-width="0.29337" d="M326.871,-77.7449C331.047,-73.3383 336.797,-68.285 343.091,-65.6985 468.895,-13.9973 823.8,-68.7369 954.091,-29.6985 955.151,-29.3809 956.214,-29.0086 957.271,-28.594"/>
<polygon fill="green" stroke="green" stroke-width="0.29337" points="958.992,-31.6469 966.382,-24.0542 955.87,-25.3817 958.992,-31.6469"/>
</g>
<!-- &#45;18 -->
<g id="node18" class="node"><title>&#45;18</title>
<polygon fill="lightgray" stroke="black" points="381.591,-95.9117 352.591,-95.9117 352.591,-77.9117 381.591,-77.9117 381.591,-95.9117"/>
<text text-anchor="middle" x="367.091" y="-84.7117" font-family="Times New Roman,serif" font-size="9.00">&#45;18</text>
</g>
<!-- &#45;18&#45;&gt;0 -->
<g id="edge66" class="edge"><title>&#45;18&#45;&gt;0</title>
<path fill="none" stroke="green" stroke-width="0.115375" d="M373.903,-77.823C378.091,-73.4424 383.841,-68.3891 390.091,-65.6985 484.614,-25.0055 811.492,-17.4604 904.951,-16.1246"/>
<polygon fill="green" stroke="green" stroke-width="0.115375" points="905.207,-19.6216 915.16,-15.9906 905.115,-12.6222 905.207,-19.6216"/>
</g>
<!-- &#45;18&#45;&gt;1 -->
<g id="edge67" class="edge"><title>&#45;18&#45;&gt;1</title>
<path fill="none" stroke="green" stroke-width="0.176198" d="M373.87,-77.7447C378.047,-73.338 383.797,-68.2847 390.091,-65.6985 516.102,-13.919 867.951,-53.4982 1002.09,-29.6985 1009.48,-28.3867 1017.37,-26.2847 1024.48,-24.1105"/>
<polygon fill="green" stroke="green" stroke-width="0.176198" points="1025.77,-27.3711 1034.2,-20.9571 1023.61,-20.7125 1025.77,-27.3711"/>
</g>
<!-- &#45;18&#45;&gt;2 -->
<g id="edge68" class="edge"><title>&#45;18&#45;&gt;2</title>
<path fill="none" stroke="green" stroke-width="0.213809" d="M373.865,-77.7305C378.039,-73.319 383.789,-68.2657 390.091,-65.6985 530.641,-8.4386 926.577,-72.8137 1072.09,-29.6985 1073.15,-29.3842 1074.22,-29.0145 1075.27,-28.602"/>
<polygon fill="green" stroke="green" stroke-width="0.213809" points="1076.99,-31.657 1084.39,-24.0702 1073.87,-25.3892 1076.99,-31.657"/>
</g>
<!-- &#45;18&#45;&gt;3 -->
<g id="edge69" class="edge"><title>&#45;18&#45;&gt;3</title>
<path fill="none" stroke="red" stroke-width="0.17061" d="M373.875,-77.7565C378.053,-73.3537 383.803,-68.3004 390.091,-65.6985 506.135,-17.676 833.875,-66.0389 954.091,-29.6985 955.15,-29.3783 956.212,-29.0039 957.269,-28.5876"/>
<polygon fill="red" stroke="red" stroke-width="0.17061" points="958.993,-31.6389 966.378,-24.0414 955.867,-25.3756 958.993,-31.6389"/>
</g>
<!-- &#45;19 -->
<g id="node19" class="node"><title>&#45;19</title>
<polygon fill="lightgray" stroke="black" points="428.591,-95.9117 399.591,-95.9117 399.591,-77.9117 428.591,-77.9117 428.591,-95.9117"/>
<text text-anchor="middle" x="414.091" y="-84.7117" font-family="Times New Roman,serif" font-size="9.00">&#45;19</text>
</g>
<!-- &#45;19&#45;&gt;0 -->
<g id="edge70" class="edge"><title>&#45;19&#45;&gt;0</title>
<path fill="none" stroke="red" stroke-width="0.25036" d="M420.912,-77.8435C425.103,-73.4696 430.853,-68.4163 437.091,-65.6985 522.555,-28.4633 816.662,-18.5462 904.881,-16.3798"/>
<polygon fill="red" stroke="red" stroke-width="0.25036" points="905.123,-19.8752 915.038,-16.1429 904.959,-12.8771 905.123,-19.8752"/>
</g>
<!-- &#45;19&#45;&gt;1 -->
<g id="edge71" class="edge"><title>&#45;19&#45;&gt;1</title>
<path fill="none" stroke="red" stroke-width="0.249947" d="M420.875,-77.7562C425.053,-73.3533 430.803,-68.3 437.091,-65.6985 553.343,-17.5977 878.269,-51.9789 1002.09,-29.6985 1009.48,-28.3687 1017.36,-26.2614 1024.48,-24.0878"/>
<polygon fill="red" stroke="red" stroke-width="0.249947" points="1025.77,-27.3492 1034.2,-20.9388 1023.61,-20.6896 1025.77,-27.3492"/>
</g>
<!-- &#45;19&#45;&gt;2 -->
<g id="edge72" class="edge"><title>&#45;19&#45;&gt;2</title>
<path fill="none" stroke="green" stroke-width="0.357625" d="M420.868,-77.7397C425.044,-73.3313 430.794,-68.278 437.091,-65.6985 567.879,-12.1185 936.655,-70.1148 1072.09,-29.6985 1073.15,-29.3821 1074.21,-29.0108 1075.27,-28.5969"/>
<polygon fill="green" stroke="green" stroke-width="0.357625" points="1076.99,-31.6505 1084.38,-24.06 1073.87,-25.3844 1076.99,-31.6505"/>
</g>
<!-- &#45;19&#45;&gt;3 -->
<g id="edge73" class="edge"><title>&#45;19&#45;&gt;3</title>
<path fill="none" stroke="green" stroke-width="0.457495" d="M420.881,-77.7701C425.061,-73.3718 430.811,-68.3185 437.091,-65.6985 649.665,22.9911 733.804,-96.9848 954.091,-29.6985 955.149,-29.3753 956.211,-28.9983 957.267,-28.58"/>
<polygon fill="green" stroke="green" stroke-width="0.457495" points="958.994,-31.6294 966.373,-24.0264 955.864,-25.3685 958.994,-31.6294"/>
</g>
<!-- &#45;20 -->
<g id="node20" class="node"><title>&#45;20</title>
<polygon fill="lightgray" stroke="black" points="475.591,-95.9117 446.591,-95.9117 446.591,-77.9117 475.591,-77.9117 475.591,-95.9117"/>
<text text-anchor="middle" x="461.091" y="-84.7117" font-family="Times New Roman,serif" font-size="9.00">&#45;20</text>
</g>
<!-- &#45;20&#45;&gt;0 -->
<g id="edge74" class="edge"><title>&#45;20&#45;&gt;0</title>
<path fill="none" stroke="red" stroke-width="0.382149" d="M467.923,-77.8681C472.117,-73.5024 477.867,-68.4491 484.091,-65.6985 560.568,-31.8981 822.317,-19.7342 904.91,-16.6857"/>
<polygon fill="red" stroke="red" stroke-width="0.382149" points="905.259,-20.1756 915.128,-16.3219 905.01,-13.18 905.259,-20.1756"/>
</g>
<!-- &#45;20&#45;&gt;1 -->
<g id="edge75" class="edge"><title>&#45;20&#45;&gt;1</title>
<path fill="none" stroke="red" stroke-width="0.544388" d="M467.881,-77.7698C472.061,-73.3714 477.811,-68.3181 484.091,-65.6985 590.586,-21.2755 888.585,-50.4601 1002.09,-29.6985 1009.48,-28.3474 1017.36,-26.2338 1024.47,-24.061"/>
<polygon fill="red" stroke="red" stroke-width="0.544388" points="1025.76,-27.3232 1034.2,-20.9173 1023.61,-20.6625 1025.76,-27.3232"/>
</g>
<!-- &#45;20&#45;&gt;2 -->
<g id="edge76" class="edge"><title>&#45;20&#45;&gt;2</title>
<path fill="none" stroke="green" stroke-width="0.135852" d="M467.873,-77.7504C472.05,-73.3455 477.8,-68.2922 484.091,-65.6985 605.118,-15.7976 946.731,-67.4165 1072.09,-29.6985 1073.15,-29.3797 1074.21,-29.0064 1075.27,-28.591"/>
<polygon fill="green" stroke="green" stroke-width="0.135852" points="1076.99,-31.6431 1084.38,-24.0482 1073.87,-25.3788 1076.99,-31.6431"/>
</g>
<!-- &#45;20&#45;&gt;3 -->
<g id="edge77" class="edge"><title>&#45;20&#45;&gt;3</title>
<path fill="none" stroke="red" stroke-width="0.116186" d="M467.888,-77.7864C472.07,-73.3935 477.82,-68.3402 484.091,-65.6985 677.158,15.6383 753.942,-91.5923 954.091,-29.6985 955.148,-29.3716 956.209,-28.9917 957.264,-28.5709"/>
<polygon fill="red" stroke="red" stroke-width="0.116186" points="958.996,-31.618 966.368,-24.0083 955.859,-25.36 958.996,-31.618"/>
</g>
<!-- &#45;21 -->
<g id="node21" class="node"><title>&#45;21</title>
<polygon fill="lightgray" stroke="black" points="522.591,-95.9117 493.591,-95.9117 493.591,-77.9117 522.591,-77.9117 522.591,-95.9117"/>
<text text-anchor="middle" x="508.091" y="-84.7117" font-family="Times New Roman,serif" font-size="9.00">&#45;21</text>
</g>
<!-- &#45;21&#45;&gt;0 -->
<g id="edge78" class="edge"><title>&#45;21&#45;&gt;0</title>
<path fill="none" stroke="green" stroke-width="0.25641" d="M514.937,-77.8983C519.135,-73.5428 524.885,-68.4895 531.091,-65.6985 598.6,-35.3364 828.072,-21.0694 904.839,-17.067"/>
<polygon fill="green" stroke="green" stroke-width="0.25641" points="905.21,-20.5527 915.02,-16.5502 904.855,-13.5617 905.21,-20.5527"/>
</g>
<!-- &#45;21&#45;&gt;1 -->
<g id="edge79" class="edge"><title>&#45;21&#45;&gt;1</title>
<path fill="none" stroke="red" stroke-width="0.397039" d="M514.888,-77.786C519.07,-73.393 524.82,-68.3397 531.091,-65.6985 627.832,-24.9519 898.898,-48.9418 1002.09,-29.6985 1009.47,-28.322 1017.35,-26.2008 1024.46,-24.0289"/>
<polygon fill="red" stroke="red" stroke-width="0.397039" points="1025.75,-27.2922 1034.19,-20.8914 1023.6,-20.6301 1025.75,-27.2922"/>
</g>
<!-- &#45;21&#45;&gt;2 -->
<g id="edge80" class="edge"><title>&#45;21&#45;&gt;2</title>
<path fill="none" stroke="green" stroke-width="0.544113" d="M514.878,-77.7629C519.057,-73.3621 524.807,-68.3088 531.091,-65.6985 753.629,26.7467 841.518,-99.7392 1072.09,-29.6985 1073.15,-29.3769 1074.21,-29.0013 1075.27,-28.584"/>
<polygon fill="green" stroke="green" stroke-width="0.544113" points="1076.99,-31.6344 1084.38,-24.0344 1073.87,-25.3723 1076.99,-31.6344"/>
</g>
<!-- &#45;21&#45;&gt;3 -->
<g id="edge81" class="edge"><title>&#45;21&#45;&gt;3</title>
<path fill="none" stroke="red" stroke-width="0.295469" d="M514.896,-77.8063C519.081,-73.42 524.831,-68.3667 531.091,-65.6985 704.659,8.28914 774.071,-86.2026 954.091,-29.6985 955.146,-29.3671 956.206,-28.9835 957.261,-28.5598"/>
<polygon fill="red" stroke="red" stroke-width="0.295469" points="958.997,-31.6042 966.361,-23.9863 955.854,-25.3496 958.997,-31.6042"/>
</g>
<!-- &#45;22 -->
<g id="node22" class="node"><title>&#45;22</title>
<polygon fill="lightgray" stroke="black" points="569.591,-95.9117 540.591,-95.9117 540.591,-77.9117 569.591,-77.9117 569.591,-95.9117"/>
<text text-anchor="middle" x="555.091" y="-84.7117" font-family="Times New Roman,serif" font-size="9.00">&#45;22</text>
</g>
<!-- &#45;22&#45;&gt;0 -->
<g id="edge82" class="edge"><title>&#45;22&#45;&gt;0</title>
<path fill="none" stroke="green" stroke-width="0.494857" d="M562.352,-77.5273C566.518,-73.2799 572.101,-68.4514 578.091,-65.6985 636.78,-38.7228 834.797,-22.5353 905.085,-17.5274"/>
<polygon fill="green" stroke="green" stroke-width="0.494857" points="905.496,-21.0073 915.228,-16.8197 905.009,-14.0243 905.496,-21.0073"/>
</g>
<!-- &#45;22&#45;&gt;1 -->
<g id="edge83" class="edge"><title>&#45;22&#45;&gt;1</title>
<path fill="none" stroke="red" stroke-width="0.52495" d="M561.896,-77.8058C566.081,-73.4194 571.831,-68.3661 578.091,-65.6985 752.073,8.44546 816.321,-65.1504 1002.09,-29.6985 1009.47,-28.2909 1017.34,-26.1605 1024.46,-23.9897"/>
<polygon fill="red" stroke="red" stroke-width="0.52495" points="1025.74,-27.2543 1034.19,-20.86 1023.59,-20.5906 1025.74,-27.2543"/>
</g>
<!-- &#45;22&#45;&gt;2 -->
<g id="edge84" class="edge"><title>&#45;22&#45;&gt;2</title>
<path fill="none" stroke="red" stroke-width="0.35611" d="M561.884,-77.7777C566.065,-73.3819 571.815,-68.3286 578.091,-65.6985 781.118,19.3925 861.659,-94.3456 1072.09,-29.6985 1073.15,-29.3736 1074.21,-28.9952 1075.27,-28.5757"/>
<polygon fill="red" stroke="red" stroke-width="0.35611" points="1077,-31.6241 1084.37,-24.018 1073.86,-25.3645 1077,-31.6241"/>
</g>
<!-- &#45;22&#45;&gt;3 -->
<g id="edge85" class="edge"><title>&#45;22&#45;&gt;3</title>
<path fill="none" stroke="green" stroke-width="0.132686" d="M561.907,-77.831C566.096,-73.453 571.846,-68.3997 578.091,-65.6985 732.171,0.944919 794.187,-80.8167 954.091,-29.6985 955.145,-29.3616 956.203,-28.9734 957.256,-28.5459"/>
<polygon fill="green" stroke="green" stroke-width="0.132686" points="958.999,-31.5869 966.352,-23.9589 955.847,-25.3367 958.999,-31.5869"/>
</g>
<!-- &#45;23 -->
<g id="node23" class="node"><title>&#45;23</title>
<polygon fill="lightgray" stroke="black" points="616.591,-95.9117 587.591,-95.9117 587.591,-77.9117 616.591,-77.9117 616.591,-95.9117"/>
<text text-anchor="middle" x="602.091" y="-84.7117" font-family="Times New Roman,serif" font-size="9.00">&#45;23</text>
</g>
<!-- &#45;23&#45;&gt;0 -->
<g id="edge86" class="edge"><title>&#45;23&#45;&gt;0</title>
<path fill="none" stroke="green" stroke-width="0.254448" d="M609.376,-77.5781C613.549,-73.3456 619.131,-68.5151 625.091,-65.6985 721.075,-20.3347 850.892,-15.3159 904.9,-15.3757"/>
<polygon fill="green" stroke="green" stroke-width="0.254448" points="904.922,-18.8759 914.947,-15.4489 904.973,-11.8761 904.922,-18.8759"/>
</g>
<!-- &#45;23&#45;&gt;1 -->
<g id="edge87" class="edge"><title>&#45;23&#45;&gt;1</title>
<path fill="none" stroke="green" stroke-width="0.105308" d="M608.907,-77.8304C613.095,-73.4522 618.845,-68.3989 625.091,-65.6985 779.586,1.10111 836.925,-62.118 1002.09,-29.6985 1009.46,-28.2522 1017.33,-26.1103 1024.45,-23.9409"/>
<polygon fill="green" stroke="green" stroke-width="0.105308" points="1025.73,-27.2071 1034.18,-20.8207 1023.59,-20.5414 1025.73,-27.2071"/>
</g>
<!-- &#45;23&#45;&gt;2 -->
<g id="edge88" class="edge"><title>&#45;23&#45;&gt;2</title>
<path fill="none" stroke="red" stroke-width="0.339061" d="M608.892,-77.7956C613.075,-73.4058 618.825,-68.3525 625.091,-65.6985 808.614,12.0414 881.793,-88.9544 1072.09,-29.6985 1073.15,-29.3695 1074.21,-28.9879 1075.26,-28.5657"/>
<polygon fill="red" stroke="red" stroke-width="0.339061" points="1077,-31.6116 1084.36,-23.9981 1073.86,-25.3552 1077,-31.6116"/>
</g>
<!-- &#45;23&#45;&gt;3 -->
<g id="edge89" class="edge"><title>&#45;23&#45;&gt;3</title>
<path fill="none" stroke="red" stroke-width="0.12578" d="M608.921,-77.8627C613.114,-73.4952 618.864,-68.4419 625.091,-65.6985 759.7,-6.39215 814.287,-75.4362 954.091,-29.6985 954.971,-29.4105 955.854,-29.0876 956.736,-28.7365"/>
<polygon fill="red" stroke="red" stroke-width="0.12578" points="958.446,-31.7949 965.847,-24.2134 955.334,-25.525 958.446,-31.7949"/>
</g>
<!-- &#45;24 -->
<g id="node24" class="node"><title>&#45;24</title>
<polygon fill="lightgray" stroke="black" points="663.591,-95.9117 634.591,-95.9117 634.591,-77.9117 663.591,-77.9117 663.591,-95.9117"/>
<text text-anchor="middle" x="649.091" y="-84.7117" font-family="Times New Roman,serif" font-size="9.00">&#45;24</text>
</g>
<!-- &#45;24&#45;&gt;0 -->
<g id="edge90" class="edge"><title>&#45;24&#45;&gt;0</title>
<path fill="none" stroke="red" stroke-width="0.426119" d="M656.409,-77.6464C660.591,-73.4339 666.172,-68.6008 672.091,-65.6985 751.131,-26.938 857.606,-18.2877 905.246,-16.3778"/>
<polygon fill="red" stroke="red" stroke-width="0.426119" points="905.389,-19.8751 915.267,-16.0431 905.156,-12.879 905.389,-19.8751"/>
</g>
<!-- &#45;24&#45;&gt;1 -->
<g id="edge91" class="edge"><title>&#45;24&#45;&gt;1</title>
<path fill="none" stroke="red" stroke-width="0.75587" d="M655.92,-77.8619C660.113,-73.4942 665.863,-68.4409 672.091,-65.6985 807.114,-6.23614 857.511,-59.089 1002.09,-29.6985 1009.45,-28.2027 1017.32,-26.0461 1024.44,-23.8785"/>
<polygon fill="red" stroke="red" stroke-width="0.75587" points="1025.71,-27.1466 1034.17,-20.7705 1023.58,-20.4783 1025.71,-27.1466"/>
</g>
<!-- &#45;24&#45;&gt;2 -->
<g id="edge92" class="edge"><title>&#45;24&#45;&gt;2</title>
<path fill="none" stroke="red" stroke-width="0.152648" stroke-dasharray="1,5" d="M655.901,-77.8177C660.088,-73.4352 665.838,-68.3819 672.091,-65.6985 836.121,4.69443 901.917,-83.5664 1072.09,-29.6985 1073.15,-29.3646 1074.2,-28.9789 1075.26,-28.5534"/>
<polygon fill="red" stroke="red" stroke-width="0.152648" points="1077,-31.5962 1084.36,-23.9737 1073.85,-25.3437 1077,-31.5962"/>
</g>
<!-- &#45;24&#45;&gt;3 -->
<g id="edge93" class="edge"><title>&#45;24&#45;&gt;3</title>
<path fill="none" stroke="red" stroke-width="0.232782" d="M655.939,-77.9046C660.139,-73.5511 665.889,-68.4978 672.091,-65.6985 787.254,-13.7184 834.362,-70.0641 954.091,-29.6985 954.968,-29.4026 955.85,-29.073 956.729,-28.7163"/>
<polygon fill="red" stroke="red" stroke-width="0.232782" points="958.451,-31.7682 965.832,-24.1668 955.322,-25.5067 958.451,-31.7682"/>
</g>
<!-- &#45;25 -->
<g id="node25" class="node"><title>&#45;25</title>
<polygon fill="lightgray" stroke="black" points="710.591,-95.9117 681.591,-95.9117 681.591,-77.9117 710.591,-77.9117 710.591,-95.9117"/>
<text text-anchor="middle" x="696.091" y="-84.7117" font-family="Times New Roman,serif" font-size="9.00">&#45;25</text>
</g>
<!-- &#45;25&#45;&gt;0 -->
<g id="edge94" class="edge"><title>&#45;25&#45;&gt;0</title>
<path fill="none" stroke="red" stroke-width="0.548862" d="M703.458,-77.743C707.654,-73.5588 713.233,-68.7219 719.091,-65.6985 781.134,-33.674 864.045,-21.8864 905.01,-17.8226"/>
<polygon fill="red" stroke="red" stroke-width="0.548862" points="905.533,-21.2894 915.171,-16.89 904.893,-14.3187 905.533,-21.2894"/>
</g>
<!-- &#45;25&#45;&gt;1 -->
<g id="edge95" class="edge"><title>&#45;25&#45;&gt;1</title>
<path fill="none" stroke="red" stroke-width="0.202285" d="M702.939,-77.9035C707.138,-73.5497 712.888,-68.4964 719.091,-65.6985 834.667,-13.5627 878.071,-56.0654 1002.09,-29.6985 1009.44,-28.137 1017.3,-25.9609 1024.42,-23.7956"/>
<polygon fill="red" stroke="red" stroke-width="0.202285" points="1025.68,-27.0663 1034.15,-20.7039 1023.56,-20.3946 1025.68,-27.0663"/>
</g>
<!-- &#45;25&#45;&gt;2 -->
<g id="edge96" class="edge"><title>&#45;25&#45;&gt;2</title>
<path fill="none" stroke="red" stroke-width="0.637122" stroke-dasharray="1,5" d="M702.913,-77.8455C707.104,-73.4723 712.854,-68.419 719.091,-65.6985 863.64,-2.64664 922.026,-78.1828 1072.09,-29.6985 1073.14,-29.3583 1074.2,-28.9675 1075.25,-28.5378"/>
<polygon fill="red" stroke="red" stroke-width="0.637122" points="1077,-31.5768 1084.35,-23.9429 1073.84,-25.3292 1077,-31.5768"/>
</g>
<!-- &#45;25&#45;&gt;3 -->
<g id="edge97" class="edge"><title>&#45;25&#45;&gt;3</title>
<path fill="none" stroke="red" stroke-width="0.29248" d="M703.365,-77.5543C707.534,-73.3148 713.117,-68.4853 719.091,-65.6985 814.846,-21.027 854.396,-64.7057 954.091,-29.6985 954.965,-29.3917 955.843,-29.0527 956.719,-28.6881"/>
<polygon fill="red" stroke="red" stroke-width="0.29248" points="958.458,-31.7313 965.809,-24.102 955.305,-25.4816 958.458,-31.7313"/>
</g>
<!-- &#45;26 -->
<g id="node26" class="node"><title>&#45;26</title>
<polygon fill="lightgray" stroke="black" points="757.591,-95.9117 728.591,-95.9117 728.591,-77.9117 757.591,-77.9117 757.591,-95.9117"/>
<text text-anchor="middle" x="743.091" y="-84.7117" font-family="Times New Roman,serif" font-size="9.00">&#45;26</text>
</g>
<!-- &#45;26&#45;&gt;0 -->
<g id="edge98" class="edge"><title>&#45;26&#45;&gt;0</title>
<path fill="none" stroke="green" stroke-width="0.173261" d="M750.536,-77.8892C754.755,-73.7478 760.332,-68.9052 766.091,-65.6985 811.641,-40.3363 871.655,-26.3411 905.002,-20.0329"/>
<polygon fill="green" stroke="green" stroke-width="0.173261" points="906.012,-23.4071 915.229,-18.183 904.766,-16.5189 906.012,-23.4071"/>
</g>
<!-- &#45;26&#45;&gt;1 -->
<g id="edge99" class="edge"><title>&#45;26&#45;&gt;1</title>
<path fill="none" stroke="red" stroke-width="0.108272" d="M750.364,-77.5528C754.533,-73.3128 760.116,-68.4834 766.091,-65.6985 862.259,-20.8718 898.59,-53.0506 1002.09,-29.6985 1009.42,-28.0459 1017.28,-25.8428 1024.39,-23.6807"/>
<polygon fill="red" stroke="red" stroke-width="0.108272" points="1025.65,-26.9549 1034.13,-20.6115 1023.54,-20.2784 1025.65,-26.9549"/>
</g>
<!-- &#45;26&#45;&gt;2 -->
<g id="edge100" class="edge"><title>&#45;26&#45;&gt;2</title>
<path fill="none" stroke="red" stroke-width="0.189019" d="M749.929,-77.8816C754.125,-73.5205 759.875,-68.4672 766.091,-65.6985 891.18,-9.979 942.115,-72.806 1072.09,-29.6985 1072.97,-29.407 1073.85,-29.081 1074.73,-28.7274"/>
<polygon fill="red" stroke="red" stroke-width="0.189019" points="1076.45,-31.7829 1083.84,-24.1924 1073.33,-25.5167 1076.45,-31.7829"/>
</g>
<!-- &#45;26&#45;&gt;3 -->
<g id="edge101" class="edge"><title>&#45;26&#45;&gt;3</title>
<path fill="none" stroke="green" stroke-width="0.146688" d="M750.407,-77.6425C754.589,-73.4288 760.17,-68.5959 766.091,-65.6985 842.505,-28.3043 874.36,-59.3719 954.091,-29.6985 954.959,-29.3755 955.832,-29.0227 956.704,-28.6466"/>
<polygon fill="green" stroke="green" stroke-width="0.146688" points="958.466,-31.6767 965.775,-24.0064 955.278,-25.4448 958.466,-31.6767"/>
</g>
<!-- &#45;27 -->
<g id="node27" class="node"><title>&#45;27</title>
<polygon fill="lightgray" stroke="black" points="804.591,-95.9117 775.591,-95.9117 775.591,-77.9117 804.591,-77.9117 804.591,-95.9117"/>
<text text-anchor="middle" x="790.091" y="-84.7117" font-family="Times New Roman,serif" font-size="9.00">&#45;27</text>
</g>
<!-- &#45;27&#45;&gt;0 -->
<g id="edge102" class="edge"><title>&#45;27&#45;&gt;0</title>
<path fill="none" stroke="green" stroke-width="0.12649" d="M798.097,-77.7364C802.301,-73.751 807.692,-69.0972 813.091,-65.6985 843.337,-46.6564 882.113,-31.7644 906.538,-23.3878"/>
<polygon fill="green" stroke="green" stroke-width="0.12649" points="907.687,-26.6943 916.061,-20.2036 905.467,-20.0556 907.687,-26.6943"/>
</g>
<!-- &#45;27&#45;&gt;1 -->
<g id="edge103" class="edge"><title>&#45;27&#45;&gt;1</title>
<path fill="none" stroke="red" stroke-width="0.683437" d="M797.406,-77.6402C801.587,-73.4259 807.169,-68.593 813.091,-65.6985 889.916,-28.1499 919.038,-50.0519 1002.09,-29.6985 1009.38,-27.9112 1017.24,-25.6682 1024.35,-23.5109"/>
<polygon fill="red" stroke="red" stroke-width="0.683437" points="1025.6,-26.79 1034.1,-20.4749 1023.51,-20.1065 1025.6,-26.79"/>
</g>
<!-- &#45;27&#45;&gt;2 -->
<g id="edge104" class="edge"><title>&#45;27&#45;&gt;2</title>
<path fill="none" stroke="red" stroke-width="0.421345" d="M797.35,-77.5211C801.514,-73.2719 807.098,-68.4437 813.091,-65.6985 918.75,-17.2978 962.172,-67.4397 1072.09,-29.6985 1072.97,-29.3978 1073.85,-29.0639 1074.72,-28.7037"/>
<polygon fill="red" stroke="red" stroke-width="0.421345" points="1076.45,-31.7518 1083.82,-24.1379 1073.31,-25.4955 1076.45,-31.7518"/>
</g>
<!-- &#45;27&#45;&gt;3 -->
<g id="edge105" class="edge"><title>&#45;27&#45;&gt;3</title>
<path fill="none" stroke="red" stroke-width="0.295425" d="M797.48,-77.7849C801.682,-73.613 807.261,-68.7745 813.091,-65.6985 870.294,-35.5176 894.189,-54.089 954.091,-29.6985 954.948,-29.3493 955.813,-28.9742 956.678,-28.5793"/>
<polygon fill="red" stroke="red" stroke-width="0.295425" points="958.476,-31.5885 965.715,-23.8515 955.231,-25.3861 958.476,-31.5885"/>
</g>
<!-- &#45;28 -->
<g id="node28" class="node"><title>&#45;28</title>
<polygon fill="lightgray" stroke="black" points="851.591,-95.9117 822.591,-95.9117 822.591,-77.9117 851.591,-77.9117 851.591,-95.9117"/>
<text text-anchor="middle" x="837.091" y="-84.7117" font-family="Times New Roman,serif" font-size="9.00">&#45;28</text>
</g>
<!-- &#45;28&#45;&gt;0 -->
<g id="edge106" class="edge"><title>&#45;28&#45;&gt;0</title>
<path fill="none" stroke="red" stroke-width="0.109357" d="M845.866,-77.8233C850.081,-74.0365 855.257,-69.5274 860.091,-65.6985 876.208,-52.932 895.258,-39.4644 909.413,-29.7503"/>
<polygon fill="red" stroke="red" stroke-width="0.109357" points="911.631,-32.4745 917.928,-23.9538 907.692,-26.688 911.631,-32.4745"/>
</g>
<!-- &#45;28&#45;&gt;1 -->
<g id="edge107" class="edge"><title>&#45;28&#45;&gt;1</title>
<path fill="none" stroke="red" stroke-width="0.174828" d="M844.477,-77.781C848.68,-73.6079 854.258,-68.7695 860.091,-65.6985 917.701,-35.3652 939.348,-47.0876 1002.09,-29.6985 1009.33,-27.693 1017.16,-25.3852 1024.28,-23.2358"/>
<polygon fill="red" stroke="red" stroke-width="0.174828" points="1025.5,-26.5223 1034.04,-20.2536 1023.46,-19.8276 1025.5,-26.5223"/>
</g>
<!-- &#45;28&#45;&gt;2 -->
<g id="edge108" class="edge"><title>&#45;28&#45;&gt;2</title>
<path fill="none" stroke="red" stroke-width="0.591793" d="M844.383,-77.5928C848.558,-73.3646 854.14,-68.5336 860.091,-65.6985 946.371,-24.5935 982.177,-62.0914 1072.09,-29.6985 1072.96,-29.3846 1073.84,-29.0396 1074.71,-28.67"/>
<polygon fill="red" stroke="red" stroke-width="0.591793" points="1076.46,-31.7075 1083.79,-24.0603 1073.29,-25.4655 1076.46,-31.7075"/>
</g>
<!-- &#45;28&#45;&gt;3 -->
<g id="edge109" class="edge"><title>&#45;28&#45;&gt;3</title>
<path fill="none" stroke="green" stroke-width="0.247114" d="M845.044,-77.6513C849.235,-73.6442 854.63,-68.9967 860.091,-65.6985 898.384,-42.5684 913.702,-48.9381 954.091,-29.6985 954.927,-29.3002 955.773,-28.8836 956.623,-28.4535"/>
<polygon fill="green" stroke="green" stroke-width="0.247114" points="958.485,-31.4244 965.587,-23.5619 955.132,-25.2797 958.485,-31.4244"/>
</g>
<!-- &#45;29 -->
<g id="node29" class="node"><title>&#45;29</title>
<polygon fill="lightgray" stroke="black" points="898.591,-95.9117 869.591,-95.9117 869.591,-77.9117 898.591,-77.9117 898.591,-95.9117"/>
<text text-anchor="middle" x="884.091" y="-84.7117" font-family="Times New Roman,serif" font-size="9.00">&#45;29</text>
</g>
<!-- &#45;29&#45;&gt;0 -->
<g id="edge110" class="edge"><title>&#45;29&#45;&gt;0</title>
<path fill="none" stroke="green" stroke-width="0.325098" d="M889.368,-77.8746C895.988,-67.7908 907.58,-50.1351 916.708,-36.233"/>
<polygon fill="green" stroke="green" stroke-width="0.325098" points="919.71,-38.037 922.273,-27.7567 913.859,-34.1951 919.71,-38.037"/>
</g>
<!-- &#45;29&#45;&gt;1 -->
<g id="edge111" class="edge"><title>&#45;29&#45;&gt;1</title>
<path fill="none" stroke="red" stroke-width="0.48675" d="M892.009,-77.5912C896.191,-73.5687 901.588,-68.9256 907.091,-65.6985 927.388,-53.795 989.624,-33.7589 1024.24,-23.0729"/>
<polygon fill="red" stroke="red" stroke-width="0.48675" points="1025.48,-26.3527 1034.02,-20.0762 1023.43,-19.66 1025.48,-26.3527"/>
</g>
<!-- &#45;29&#45;&gt;2 -->
<g id="edge112" class="edge"><title>&#45;29&#45;&gt;2</title>
<path fill="none" stroke="red" stroke-width="0.321265" d="M891.437,-77.7028C895.627,-73.5068 901.208,-68.6715 907.091,-65.6985 974.082,-31.8457 1002.09,-56.7775 1072.09,-29.6985 1072.95,-29.3644 1073.82,-29.0022 1074.69,-28.6181"/>
<polygon fill="red" stroke="red" stroke-width="0.321265" points="1076.47,-31.6394 1083.75,-23.9409 1073.26,-25.4199 1076.47,-31.6394"/>
</g>
<!-- &#45;29&#45;&gt;3 -->
<g id="edge113" class="edge"><title>&#45;29&#45;&gt;3</title>
<path fill="none" stroke="red" stroke-width="0.328557" d="M892.855,-77.8088C897.067,-74.0188 902.244,-69.5112 907.091,-65.6985 923.501,-52.7888 942.959,-39.2424 957.352,-29.5348"/>
<polygon fill="red" stroke="red" stroke-width="0.328557" points="959.628,-32.2232 965.995,-23.7551 955.737,-26.4042 959.628,-32.2232"/>
</g>
<!-- &#45;30 -->
<g id="node30" class="node"><title>&#45;30</title>
<polygon fill="lightgray" stroke="black" points="945.591,-95.9117 916.591,-95.9117 916.591,-77.9117 945.591,-77.9117 945.591,-95.9117"/>
<text text-anchor="middle" x="931.091" y="-84.7117" font-family="Times New Roman,serif" font-size="9.00">&#45;30</text>
</g>
<!-- &#45;30&#45;&gt;0 -->
<g id="edge114" class="edge"><title>&#45;30&#45;&gt;0</title>
<path fill="none" stroke="green" stroke-width="0.210951" d="M930.976,-77.8746C930.845,-68.7202 930.626,-53.3256 930.438,-40.1641"/>
<polygon fill="green" stroke="green" stroke-width="0.210951" points="933.933,-39.7687 930.29,-29.8197 926.933,-39.8686 933.933,-39.7687"/>
</g>
<!-- &#45;30&#45;&gt;1 -->
<g id="edge115" class="edge"><title>&#45;30&#45;&gt;1</title>
<path fill="none" stroke="green" stroke-width="0.432027" d="M939.65,-77.5316C943.818,-73.6809 949.016,-69.2022 954.091,-65.6985 977.132,-49.7894 1005.84,-35.2435 1025.43,-26.024"/>
<polygon fill="green" stroke="green" stroke-width="0.432027" points="1027.16,-29.0824 1034.76,-21.7093 1024.22,-22.7285 1027.16,-29.0824"/>
</g>
<!-- &#45;30&#45;&gt;2 -->
<g id="edge116" class="edge"><title>&#45;30&#45;&gt;2</title>
<path fill="none" stroke="green" stroke-width="0.551699" d="M938.537,-77.8915C942.757,-73.7508 948.333,-68.9081 954.091,-65.6985 1001.98,-39.0004 1021.8,-51.5417 1072.09,-29.6985 1072.94,-29.3296 1073.8,-28.9378 1074.66,-28.5288"/>
<polygon fill="green" stroke="green" stroke-width="0.551699" points="1076.48,-31.5225 1083.67,-23.7352 1073.19,-25.3429 1076.48,-31.5225"/>
</g>
<!-- &#45;30&#45;&gt;3 -->
<g id="edge117" class="edge"><title>&#45;30&#45;&gt;3</title>
<path fill="none" stroke="green" stroke-width="0.145747" d="M936.482,-77.8746C943.286,-67.7318 955.23,-49.9283 964.58,-35.9895"/>
<polygon fill="green" stroke="green" stroke-width="0.145747" points="967.606,-37.7615 970.27,-27.5071 961.793,-33.8618 967.606,-37.7615"/>
</g>
<!-- &#45;31 -->
<g id="node31" class="node"><title>&#45;31</title>
<polygon fill="lightgray" stroke="black" points="992.591,-95.9117 963.591,-95.9117 963.591,-77.9117 992.591,-77.9117 992.591,-95.9117"/>
<text text-anchor="middle" x="978.091" y="-84.7117" font-family="Times New Roman,serif" font-size="9.00">&#45;31</text>
</g>
<!-- &#45;31&#45;&gt;0 -->
<g id="edge118" class="edge"><title>&#45;31&#45;&gt;0</title>
<path fill="none" stroke="red" stroke-width="0.372469" d="M972.585,-77.8746C965.636,-67.7318 953.438,-49.9283 943.889,-35.9895"/>
<polygon fill="red" stroke="red" stroke-width="0.372469" points="946.617,-33.7786 938.078,-27.5071 940.842,-37.7349 946.617,-33.7786"/>
</g>
<!-- &#45;31&#45;&gt;1 -->
<g id="edge119" class="edge"><title>&#45;31&#45;&gt;1</title>
<path fill="none" stroke="green" stroke-width="0.38073" d="M986.121,-77.8746C996.908,-67.0781 1016.37,-47.6015 1030.61,-33.3456"/>
<polygon fill="green" stroke="green" stroke-width="0.38073" points="1033.31,-35.599 1037.9,-26.051 1028.35,-30.6514 1033.31,-35.599"/>
</g>
<!-- &#45;31&#45;&gt;2 -->
<g id="edge120" class="edge"><title>&#45;31&#45;&gt;2</title>
<path fill="none" stroke="red" stroke-width="0.497164" d="M986.195,-77.8868C990.425,-73.9396 995.808,-69.2747 1001.09,-65.6985 1030.39,-45.8638 1040.98,-46.5463 1072.09,-29.6985 1072.91,-29.2575 1073.73,-28.8045 1074.57,-28.3439"/>
<polygon fill="red" stroke="red" stroke-width="0.497164" points="1076.48,-31.2823 1083.46,-23.3096 1073.03,-25.1909 1076.48,-31.2823"/>
</g>
<!-- &#45;31&#45;&gt;3 -->
<g id="edge121" class="edge"><title>&#45;31&#45;&gt;3</title>
<path fill="none" stroke="green" stroke-width="0.130314" stroke-dasharray="1,5" d="M978.091,-77.8746C978.091,-68.7202 978.091,-53.3256 978.091,-40.1641"/>
<polygon fill="green" stroke="green" stroke-width="0.130314" points="981.591,-39.8196 978.091,-29.8197 974.591,-39.8197 981.591,-39.8196"/>
</g>
<!-- &#45;32 -->
<g id="node32" class="node"><title>&#45;32</title>
<polygon fill="lightgray" stroke="black" points="1927.59,-95.9117 1898.59,-95.9117 1898.59,-77.9117 1927.59,-77.9117 1927.59,-95.9117"/>
<text text-anchor="middle" x="1913.09" y="-84.7117" font-family="Times New Roman,serif" font-size="9.00">&#45;32</text>
</g>
<!-- &#45;32&#45;&gt;1 -->
<g id="edge122" class="edge"><title>&#45;32&#45;&gt;1</title>
<path fill="none" stroke="red" stroke-width="0.337887" d="M1905.96,-77.7059C1901.59,-73.2863 1895.59,-68.233 1889.09,-65.6985 1719.79,0.356679 1246.56,-80.5678 1072.09,-29.6985 1071.03,-29.3888 1069.96,-29.0229 1068.9,-28.6135"/>
<polygon fill="red" stroke="red" stroke-width="0.337887" points="1070.3,-25.4 1059.79,-24.0929 1067.19,-31.6713 1070.3,-25.4"/>
</g>
<!-- &#45;32&#45;&gt;2 -->
<g id="edge123" class="edge"><title>&#45;32&#45;&gt;2</title>
<path fill="none" stroke="red" stroke-width="0.317666" d="M1905.94,-77.7515C1901.56,-73.347 1895.56,-68.2937 1889.09,-65.6985 1816.38,-36.5433 1248.39,-19.881 1121.27,-16.4952"/>
<polygon fill="red" stroke="red" stroke-width="0.317666" points="1121.08,-12.9891 1110.99,-16.225 1120.9,-19.9867 1121.08,-12.9891"/>
</g>
<!-- &#45;32&#45;&gt;3 -->
<g id="edge124" class="edge"><title>&#45;32&#45;&gt;3</title>
<path fill="none" stroke="green" stroke-width="0.572944" d="M1905.97,-77.7C1901.59,-73.2783 1895.59,-68.225 1889.09,-65.6985 1709.78,4.01144 1213.8,-61.6814 1024.09,-29.6985 1016.69,-28.4502 1008.8,-26.367 1001.69,-24.1906"/>
<polygon fill="green" stroke="green" stroke-width="0.572944" points="1002.56,-20.7932 991.966,-21.0215 1000.39,-27.4485 1002.56,-20.7932"/>
</g>
<!-- &#45;33 -->
<g id="node33" class="node"><title>&#45;33</title>
<polygon fill="lightgray" stroke="black" points="1039.59,-95.9117 1010.59,-95.9117 1010.59,-77.9117 1039.59,-77.9117 1039.59,-95.9117"/>
<text text-anchor="middle" x="1025.09" y="-84.7117" font-family="Times New Roman,serif" font-size="9.00">&#45;33</text>
</g>
<!-- &#45;33&#45;&gt;0 -->
<g id="edge125" class="edge"><title>&#45;33&#45;&gt;0</title>
<path fill="none" stroke="red" stroke-width="0.3523" d="M1015.9,-77.8464C1011.5,-74.0647 1006.1,-69.5531 1001.09,-65.6985 984.643,-53.0375 965.329,-39.5618 951,-29.8177"/>
<polygon fill="red" stroke="red" stroke-width="0.3523" points="952.63,-26.6954 942.384,-23.9994 948.713,-32.4965 952.63,-26.6954"/>
</g>
<!-- &#45;33&#45;&gt;1 -->
<g id="edge126" class="edge"><title>&#45;33&#45;&gt;1</title>
<path fill="none" stroke="green" stroke-width="0.210558" d="M1027.73,-77.8746C1030.83,-68.4226 1036.12,-52.3178 1040.53,-38.8876"/>
<polygon fill="green" stroke="green" stroke-width="0.210558" points="1043.88,-39.886 1043.68,-29.2932 1037.23,-37.7027 1043.88,-39.886"/>
</g>
<!-- &#45;33&#45;&gt;2 -->
<g id="edge127" class="edge"><title>&#45;33&#45;&gt;2</title>
<path fill="none" stroke="green" stroke-width="0.365144" stroke-dasharray="1,5" d="M1033.24,-77.8746C1044.18,-67.0781 1063.91,-47.6015 1078.36,-33.3456"/>
<polygon fill="green" stroke="green" stroke-width="0.365144" points="1081.09,-35.5662 1085.75,-26.051 1076.18,-30.5836 1081.09,-35.5662"/>
</g>
<!-- &#45;33&#45;&gt;3 -->
<g id="edge128" class="edge"><title>&#45;33&#45;&gt;3</title>
<path fill="none" stroke="red" stroke-width="0.309739" d="M1019.7,-77.8746C1012.9,-67.7318 1000.95,-49.9283 991.601,-35.9895"/>
<polygon fill="red" stroke="red" stroke-width="0.309739" points="994.389,-33.8618 985.911,-27.5071 988.576,-37.7615 994.389,-33.8618"/>
</g>
<!-- &#45;34 -->
<g id="node34" class="node"><title>&#45;34</title>
<polygon fill="lightgray" stroke="black" points="1086.59,-95.9117 1057.59,-95.9117 1057.59,-77.9117 1086.59,-77.9117 1086.59,-95.9117"/>
<text text-anchor="middle" x="1072.09" y="-84.7117" font-family="Times New Roman,serif" font-size="9.00">&#45;34</text>
</g>
<!-- &#45;34&#45;&gt;0 -->
<g id="edge129" class="edge"><title>&#45;34&#45;&gt;0</title>
<path fill="none" stroke="red" stroke-width="0.318757" d="M1063.73,-77.6705C1059.35,-73.6682 1053.72,-69.0193 1048.09,-65.6985 1009.56,-42.9725 994.479,-48.9381 954.091,-29.6985 953.255,-29.3002 952.409,-28.8836 951.559,-28.4535"/>
<polygon fill="red" stroke="red" stroke-width="0.318757" points="953.05,-25.2797 942.595,-23.5619 949.696,-31.4244 953.05,-25.2797"/>
</g>
<!-- &#45;34&#45;&gt;1 -->
<g id="edge130" class="edge"><title>&#45;34&#45;&gt;1</title>
<path fill="none" stroke="green" stroke-width="0.148838" d="M1069.34,-77.8746C1066.08,-68.3653 1060.52,-52.1224 1055.9,-38.6437"/>
<polygon fill="green" stroke="green" stroke-width="0.148838" points="1059.16,-37.3587 1052.61,-29.0326 1052.54,-39.6272 1059.16,-37.3587"/>
</g>
<!-- &#45;34&#45;&gt;2 -->
<g id="edge131" class="edge"><title>&#45;34&#45;&gt;2</title>
<path fill="none" stroke="green" stroke-width="0.143581" d="M1074.84,-77.8746C1078.1,-68.3653 1083.67,-52.1224 1088.28,-38.6437"/>
<polygon fill="green" stroke="green" stroke-width="0.143581" points="1091.65,-39.6272 1091.57,-29.0326 1085.02,-37.3587 1091.65,-39.6272"/>
</g>
<!-- &#45;34&#45;&gt;3 -->
<g id="edge132" class="edge"><title>&#45;34&#45;&gt;3</title>
<path fill="none" stroke="green" stroke-width="0.332248" d="M1062.89,-77.8614C1058.48,-74.083 1053.09,-69.5698 1048.09,-65.6985 1031.84,-53.1022 1012.8,-39.6216 998.683,-29.8591"/>
<polygon fill="green" stroke="green" stroke-width="0.332248" points="1000.42,-26.806 990.196,-24.0274 996.456,-32.5753 1000.42,-26.806"/>
</g>
<!-- &#45;35 -->
<g id="node35" class="node"><title>&#45;35</title>
<polygon fill="lightgray" stroke="black" points="150.591,-162.125 121.591,-162.125 121.591,-144.125 150.591,-144.125 150.591,-162.125"/>
<text text-anchor="middle" x="136.091" y="-150.925" font-family="Times New Roman,serif" font-size="9.00">&#45;35</text>
</g>
<!-- &#45;35&#45;&gt;0 -->
<g id="edge133" class="edge"><title>&#45;35&#45;&gt;0</title>
<path fill="none" stroke="green" stroke-width="0.177262" d="M121.547,-152.108C94.129,-151.191 35.2081,-144.814 9.09077,-108.125 -1.84446,-92.7634 -3.87725,-79.3874 9.09077,-65.6985 40.7868,-32.2405 760.515,-18.6422 904.975,-16.2453"/>
<polygon fill="green" stroke="green" stroke-width="0.177262" points="905.131,-19.7433 915.072,-16.0806 905.016,-12.7442 905.131,-19.7433"/>
</g>
<!-- &#45;35&#45;&gt;1 -->
<g id="edge134" class="edge"><title>&#45;35&#45;&gt;1</title>
<path fill="none" stroke="red" stroke-width="0.10766" d="M150.78,-152.023C313.749,-150.864 1778.46,-139.573 1809.09,-108.125 1822.25,-94.6174 1822.09,-79.3532 1809.09,-65.6985 1752.55,-6.32789 1150.74,-52.8355 1072.09,-29.6985 1071.03,-29.3862 1069.96,-29.0183 1068.91,-28.6072"/>
<polygon fill="red" stroke="red" stroke-width="0.10766" points="1070.31,-25.3941 1059.79,-24.0804 1067.19,-31.6634 1070.31,-25.3941"/>
</g>
<!-- &#45;35&#45;&gt;2 -->
<g id="edge135" class="edge"><title>&#45;35&#45;&gt;2</title>
<path fill="none" stroke="green" stroke-width="0.118556" d="M150.833,-152.051C320.809,-151.166 1904.02,-142.016 1937.09,-108.125 1950.26,-94.6297 1950.02,-79.4206 1937.09,-65.6985 1908.4,-35.2545 1259.11,-19.4082 1121.55,-16.3862"/>
<polygon fill="green" stroke="green" stroke-width="0.118556" points="1121.26,-12.8792 1111.19,-16.1618 1121.11,-19.8776 1121.26,-12.8792"/>
</g>
<!-- &#45;35&#45;&gt;3 -->
<g id="edge136" class="edge"><title>&#45;35&#45;&gt;3</title>
<path fill="none" stroke="green" stroke-width="0.195948" stroke-dasharray="1,5" d="M135.019,-144.107C133.195,-126.69 131.702,-85.3869 155.091,-65.6985 223.077,-8.46781 868.788,-54.6161 954.091,-29.6985 955.153,-29.3882 956.218,-29.022 957.277,-28.6122"/>
<polygon fill="green" stroke="green" stroke-width="0.195948" points="958.989,-31.6697 966.392,-24.0903 955.878,-25.3988 958.989,-31.6697"/>
</g>
<!-- 344 -->
<g id="node45" class="node"><title>344</title>
<ellipse fill="white" stroke="black" cx="87.0908" cy="-86.9117" rx="21.4286" ry="21.4286"/>
<text text-anchor="middle" x="87.0908" y="-84.7117" font-family="Times New Roman,serif" font-size="9.00">344</text>
</g>
<!-- &#45;35&#45;&gt;344 -->
<g id="edge156" class="edge"><title>&#45;35&#45;&gt;344</title>
<path fill="none" stroke="green" stroke-width="0.3" d="M129.885,-143.992C123.852,-136.086 114.379,-123.673 105.879,-112.533"/>
<polygon fill="green" stroke="green" stroke-width="0.3" points="108.49,-110.185 99.6409,-104.358 102.925,-114.431 108.49,-110.185"/>
</g>
<!-- &#45;36 -->
<g id="node36" class="node"><title>&#45;36</title>
<polygon fill="lightgray" stroke="black" points="1133.59,-95.9117 1104.59,-95.9117 1104.59,-77.9117 1133.59,-77.9117 1133.59,-95.9117"/>
<text text-anchor="middle" x="1119.09" y="-84.7117" font-family="Times New Roman,serif" font-size="9.00">&#45;36</text>
</g>
<!-- &#45;36&#45;&gt;0 -->
<g id="edge137" class="edge"><title>&#45;36&#45;&gt;0</title>
<path fill="none" stroke="red" stroke-width="0.22311" stroke-dasharray="1,5" d="M1111.7,-77.781C1107.5,-73.6079 1101.92,-68.7695 1096.09,-65.6985 1038.48,-35.3652 1014.41,-54.2005 954.091,-29.6985 953.233,-29.35 952.368,-28.9756 951.503,-28.5812"/>
<polygon fill="red" stroke="red" stroke-width="0.22311" points="952.949,-25.3877 942.465,-23.8558 949.705,-31.591 952.949,-25.3877"/>
</g>
<!-- &#45;36&#45;&gt;1 -->
<g id="edge138" class="edge"><title>&#45;36&#45;&gt;1</title>
<path fill="none" stroke="red" stroke-width="0.145573" d="M1110.95,-77.8746C1100.01,-67.0781 1080.27,-47.6015 1065.82,-33.3456"/>
<polygon fill="red" stroke="red" stroke-width="0.145573" points="1068.01,-30.5836 1058.43,-26.051 1063.09,-35.5662 1068.01,-30.5836"/>
</g>
<!-- &#45;36&#45;&gt;2 -->
<g id="edge139" class="edge"><title>&#45;36&#45;&gt;2</title>
<path fill="none" stroke="green" stroke-width="0.423986" d="M1116.45,-77.8746C1113.35,-68.4226 1108.06,-52.3178 1103.65,-38.8876"/>
<polygon fill="green" stroke="green" stroke-width="0.423986" points="1106.95,-37.7027 1100.5,-29.2932 1100.3,-39.886 1106.95,-37.7027"/>
</g>
<!-- &#45;36&#45;&gt;3 -->
<g id="edge140" class="edge"><title>&#45;36&#45;&gt;3</title>
<path fill="none" stroke="green" stroke-width="0.2675" d="M1111.09,-77.7294C1106.89,-73.7422 1101.49,-69.0889 1096.09,-65.6985 1065.6,-46.5652 1026.49,-31.6974 1001.85,-23.3508"/>
<polygon fill="green" stroke="green" stroke-width="0.2675" points="1002.84,-19.9912 992.244,-20.1796 1000.64,-26.6383 1002.84,-19.9912"/>
</g>
<!-- &#45;37 -->
<g id="node37" class="node"><title>&#45;37</title>
<polygon fill="lightgray" stroke="black" points="1180.59,-95.9117 1151.59,-95.9117 1151.59,-77.9117 1180.59,-77.9117 1180.59,-95.9117"/>
<text text-anchor="middle" x="1166.09" y="-84.7117" font-family="Times New Roman,serif" font-size="9.00">&#45;37</text>
</g>
<!-- &#45;37&#45;&gt;0 -->
<g id="edge141" class="edge"><title>&#45;37&#45;&gt;0</title>
<path fill="none" stroke="green" stroke-width="0.102653" d="M1158.78,-77.6402C1154.59,-73.4259 1149.01,-68.593 1143.09,-65.6985 1066.27,-28.1499 1034.25,-59.485 954.091,-29.6985 953.223,-29.3759 952.35,-29.0235 951.477,-28.6477"/>
<polygon fill="green" stroke="green" stroke-width="0.102653" points="952.903,-25.4458 942.406,-24.0089 949.716,-31.6781 952.903,-25.4458"/>
</g>
<!-- &#45;37&#45;&gt;1 -->
<g id="edge142" class="edge"><title>&#45;37&#45;&gt;1</title>
<path fill="none" stroke="red" stroke-width="0.326946" d="M1157.99,-77.8868C1153.76,-73.9396 1148.37,-69.2747 1143.09,-65.6985 1113.79,-45.8638 1103.2,-46.5463 1072.09,-29.6985 1071.28,-29.2575 1070.45,-28.8045 1069.61,-28.3439"/>
<polygon fill="red" stroke="red" stroke-width="0.326946" points="1071.15,-25.1909 1060.72,-23.3096 1067.7,-31.2823 1071.15,-25.1909"/>
</g>
<!-- &#45;37&#45;&gt;2 -->
<g id="edge143" class="edge"><title>&#45;37&#45;&gt;2</title>
<path fill="none" stroke="green" stroke-width="0.243743" d="M1158.06,-77.8746C1147.27,-67.0781 1127.81,-47.6015 1113.57,-33.3456"/>
<polygon fill="green" stroke="green" stroke-width="0.243743" points="1115.83,-30.6514 1106.28,-26.051 1110.88,-35.599 1115.83,-30.6514"/>
</g>
<!-- &#45;37&#45;&gt;3 -->
<g id="edge144" class="edge"><title>&#45;37&#45;&gt;3</title>
<path fill="none" stroke="red" stroke-width="0.562298" d="M1158.65,-77.8853C1154.43,-73.7428 1148.85,-68.9003 1143.09,-65.6985 1142.69,-65.4772 1047.34,-36.7216 1001.79,-22.9908"/>
<polygon fill="red" stroke="red" stroke-width="0.562298" points="1002.7,-19.6112 992.117,-20.0763 1000.68,-26.3133 1002.7,-19.6112"/>
</g>
<!-- &#45;38 -->
<g id="node38" class="node"><title>&#45;38</title>
<polygon fill="lightgray" stroke="black" points="1227.59,-95.9117 1198.59,-95.9117 1198.59,-77.9117 1227.59,-77.9117 1227.59,-95.9117"/>
<text text-anchor="middle" x="1213.09" y="-84.7117" font-family="Times New Roman,serif" font-size="9.00">&#45;38</text>
</g>
<!-- &#45;38&#45;&gt;0 -->
<g id="edge145" class="edge"><title>&#45;38&#45;&gt;0</title>
<path fill="none" stroke="red" stroke-width="0.124967" d="M1205.82,-77.5528C1201.65,-73.3128 1196.07,-68.4834 1190.09,-65.6985 1093.92,-20.8718 1054.21,-64.8195 954.091,-29.6985 953.217,-29.392 952.339,-29.0532 951.462,-28.6888"/>
<polygon fill="red" stroke="red" stroke-width="0.124967" points="952.876,-25.4822 942.372,-24.1037 949.724,-31.7322 952.876,-25.4822"/>
</g>
<!-- &#45;38&#45;&gt;1 -->
<g id="edge146" class="edge"><title>&#45;38&#45;&gt;1</title>
<path fill="none" stroke="green" stroke-width="0.261246" d="M1205.64,-77.8915C1201.42,-73.7508 1195.85,-68.9081 1190.09,-65.6985 1142.2,-39.0004 1122.38,-51.5417 1072.09,-29.6985 1071.24,-29.3296 1070.38,-28.9378 1069.52,-28.5288"/>
<polygon fill="green" stroke="green" stroke-width="0.261246" points="1070.99,-25.3429 1060.52,-23.7352 1067.7,-31.5225 1070.99,-25.3429"/>
</g>
<!-- &#45;38&#45;&gt;2 -->
<g id="edge147" class="edge"><title>&#45;38&#45;&gt;2</title>
<path fill="none" stroke="green" stroke-width="0.252102" d="M1204.53,-77.5316C1200.36,-73.6809 1195.17,-69.2022 1190.09,-65.6985 1167.05,-49.7894 1138.34,-35.2435 1118.75,-26.024"/>
<polygon fill="green" stroke="green" stroke-width="0.252102" points="1119.96,-22.7285 1109.42,-21.7093 1117.03,-29.0824 1119.96,-22.7285"/>
</g>
<!-- &#45;38&#45;&gt;3 -->
<g id="edge148" class="edge"><title>&#45;38&#45;&gt;3</title>
<path fill="none" stroke="green" stroke-width="0.292445" d="M1205.75,-77.6998C1201.56,-73.503 1195.98,-68.6678 1190.09,-65.6985 1122.69,-31.6921 1097.18,-48.595 1024.09,-29.6985 1016.82,-27.819 1008.98,-25.5485 1001.86,-23.3946"/>
<polygon fill="green" stroke="green" stroke-width="0.292445" points="1002.69,-19.9887 992.103,-20.3813 1000.62,-26.6769 1002.69,-19.9887"/>
</g>
<!-- &#45;39 -->
<g id="node39" class="node"><title>&#45;39</title>
<polygon fill="lightgray" stroke="black" points="1799.59,-95.9117 1770.59,-95.9117 1770.59,-77.9117 1799.59,-77.9117 1799.59,-95.9117"/>
<text text-anchor="middle" x="1785.09" y="-84.7117" font-family="Times New Roman,serif" font-size="9.00">&#45;39</text>
</g>
<!-- &#45;39&#45;&gt;1 -->
<g id="edge149" class="edge"><title>&#45;39&#45;&gt;1</title>
<path fill="none" stroke="red" stroke-width="0.30232" d="M1778.32,-77.7291C1774.14,-73.3171 1768.39,-68.2638 1762.09,-65.6985 1619.88,-7.81218 1219.32,-73.2731 1072.09,-29.6985 1071.03,-29.3845 1069.97,-29.0151 1068.91,-28.6029"/>
<polygon fill="red" stroke="red" stroke-width="0.30232" points="1070.31,-25.39 1059.79,-24.0717 1067.19,-31.658 1070.31,-25.39"/>
</g>
<!-- &#45;39&#45;&gt;2 -->
<g id="edge150" class="edge"><title>&#45;39&#45;&gt;2</title>
<path fill="none" stroke="green" stroke-width="0.590949" d="M1778.3,-77.7823C1774.11,-73.3881 1768.36,-68.3348 1762.09,-65.6985 1643.11,-15.6942 1227.41,-14.9614 1121.04,-15.6203"/>
<polygon fill="green" stroke="green" stroke-width="0.590949" points="1120.91,-12.1211 1110.93,-15.6934 1120.96,-19.1209 1120.91,-12.1211"/>
</g>
<!-- &#45;39&#45;&gt;3 -->
<g id="edge151" class="edge"><title>&#45;39&#45;&gt;3</title>
<path fill="none" stroke="green" stroke-width="0.582054" d="M1778.32,-77.7211C1774.15,-73.3064 1768.4,-68.2531 1762.09,-65.6985 1609.91,-4.05335 1185.9,-57.5729 1024.09,-29.6985 1016.69,-28.4238 1008.81,-26.3327 1001.69,-24.1572"/>
<polygon fill="green" stroke="green" stroke-width="0.582054" points="1002.56,-20.7596 991.971,-20.9947 1000.4,-27.4163 1002.56,-20.7596"/>
</g>
<!-- &#45;40 -->
<g id="node40" class="node"><title>&#45;40</title>
<polygon fill="lightgray" stroke="black" points="1274.59,-95.9117 1245.59,-95.9117 1245.59,-77.9117 1274.59,-77.9117 1274.59,-95.9117"/>
<text text-anchor="middle" x="1260.09" y="-84.7117" font-family="Times New Roman,serif" font-size="9.00">&#45;40</text>
</g>
<!-- &#45;40&#45;&gt;0 -->
<g id="edge152" class="edge"><title>&#45;40&#45;&gt;0</title>
<path fill="none" stroke="green" stroke-width="0.352404" d="M1253.24,-77.9035C1249.04,-73.5497 1243.29,-68.4964 1237.09,-65.6985 1121.51,-13.5627 1074.25,-70.1783 954.091,-29.6985 953.213,-29.4028 952.332,-29.0733 951.452,-28.7168"/>
<polygon fill="green" stroke="green" stroke-width="0.352404" points="952.859,-25.5072 942.349,-24.1679 949.73,-31.7689 952.859,-25.5072"/>
</g>
<!-- &#45;40&#45;&gt;1 -->
<g id="edge153" class="edge"><title>&#45;40&#45;&gt;1</title>
<path fill="none" stroke="red" stroke-width="0.351882" d="M1252.74,-77.7028C1248.55,-73.5068 1242.97,-68.6715 1237.09,-65.6985 1170.1,-31.8457 1142.09,-56.7775 1072.09,-29.6985 1071.23,-29.3644 1070.36,-29.0022 1069.49,-28.6181"/>
<polygon fill="red" stroke="red" stroke-width="0.351882" points="1070.92,-25.4199 1060.43,-23.9409 1067.71,-31.6394 1070.92,-25.4199"/>
</g>
<!-- &#45;40&#45;&gt;2 -->
<g id="edge154" class="edge"><title>&#45;40&#45;&gt;2</title>
<path fill="none" stroke="green" stroke-width="0.126478" d="M1252.17,-77.5912C1247.99,-73.5687 1242.59,-68.9256 1237.09,-65.6985 1198.99,-43.3548 1149.27,-28.6947 1120.19,-21.3726"/>
<polygon fill="green" stroke="green" stroke-width="0.126478" points="1121.02,-17.9713 1110.47,-19.0063 1119.36,-24.7727 1121.02,-17.9713"/>
</g>
<!-- &#45;40&#45;&gt;3 -->
<g id="edge155" class="edge"><title>&#45;40&#45;&gt;3</title>
<path fill="none" stroke="red" stroke-width="0.230199" d="M1252.8,-77.591C1248.63,-73.3622 1243.04,-68.5313 1237.09,-65.6985 1150.4,-24.4386 1117.57,-51.5804 1024.09,-29.6985 1016.78,-27.9871 1008.92,-25.7666 1001.81,-23.6067"/>
<polygon fill="red" stroke="red" stroke-width="0.230199" points="1002.65,-20.2034 992.061,-20.5519 1000.56,-26.8829 1002.65,-20.2034"/>
</g>
<!-- 344&#45;&gt;3 -->
<g id="edge157" class="edge"><title>344&#45;&gt;3</title>
<path fill="none" stroke="green" stroke-width="0.345331" d="M104.148,-73.8769C109.629,-70.6225 115.893,-67.5041 122.091,-65.6985 477.442,37.826 598.722,-133.161 954.091,-29.6985 955.153,-29.3892 956.218,-29.0237 957.277,-28.6146"/>
<polygon fill="green" stroke="green" stroke-width="0.345331" points="958.989,-31.6726 966.394,-24.095 955.88,-25.401 958.989,-31.6726"/>
</g>
</g>
</svg>
