<?xml version="1.0" encoding="UTF-8" standalone="no"?>
<!DOCTYPE svg PUBLIC "-//W3C//DTD SVG 1.1//EN"
 "http://www.w3.org/Graphics/SVG/1.1/DTD/svg11.dtd">
<!-- Generated by graphviz version 2.38.0 (20140413.2041)
 -->
<!-- Title: %3 Pages: 1 -->
<svg width="2493pt" height="249pt"
 viewBox="0.00 0.00 2493.06 248.55" xmlns="http://www.w3.org/2000/svg" xmlns:xlink="http://www.w3.org/1999/xlink">
<g id="graph0" class="graph" transform="scale(1 1) rotate(0) translate(4 244.551)">
<title>%3</title>
<polygon fill="white" stroke="none" points="-4,4 -4,-244.551 2489.06,-244.551 2489.06,4 -4,4"/>
<!-- &#45;1 -->
<g id="node1" class="node"><title>&#45;1</title>
<polygon fill="lightgray" stroke="black" points="1203.85,-95.9117 1179.85,-95.9117 1179.85,-77.9117 1203.85,-77.9117 1203.85,-95.9117"/>
<text text-anchor="middle" x="1191.85" y="-84.7117" font-family="Times New Roman,serif" font-size="9.00">&#45;1</text>
</g>
<!-- 0 -->
<g id="node41" class="node"><title>0</title>
<ellipse fill="lightblue" stroke="black" cx="1028.85" cy="-14.8492" rx="14.7" ry="14.7"/>
<text text-anchor="middle" x="1028.85" y="-12.6492" font-family="Times New Roman,serif" font-size="9.00">0</text>
</g>
<!-- &#45;1&#45;&gt;0 -->
<g id="edge1" class="edge"><title>&#45;1&#45;&gt;0</title>
<path fill="none" stroke="green" stroke-width="0.287831" d="M1184.33,-77.5749C1180.35,-73.5482 1175.18,-68.9063 1169.85,-65.6985 1132,-42.9353 1082.19,-28.4131 1053.03,-21.2309"/>
<polygon fill="green" stroke="green" stroke-width="0.287831" points="1053.82,-17.821 1043.28,-18.9152 1052.2,-24.6316 1053.82,-17.821"/>
</g>
<!-- 1 -->
<g id="node42" class="node"><title>1</title>
<ellipse fill="lightblue" stroke="black" cx="1122.85" cy="-14.8492" rx="14.7" ry="14.7"/>
<text text-anchor="middle" x="1122.85" y="-12.6492" font-family="Times New Roman,serif" font-size="9.00">1</text>
</g>
<!-- &#45;1&#45;&gt;1 -->
<g id="edge2" class="edge"><title>&#45;1&#45;&gt;1</title>
<path fill="none" stroke="red" stroke-width="0.383455" d="M1183.93,-77.8746C1173.3,-67.0781 1154.12,-47.6015 1140.08,-33.3456"/>
<polygon fill="red" stroke="red" stroke-width="0.383455" points="1142.41,-30.72 1132.9,-26.051 1137.42,-35.6318 1142.41,-30.72"/>
</g>
<!-- 2 -->
<g id="node43" class="node"><title>2</title>
<ellipse fill="lightblue" stroke="black" cx="1380.85" cy="-14.8492" rx="14.7" ry="14.7"/>
<text text-anchor="middle" x="1380.85" y="-12.6492" font-family="Times New Roman,serif" font-size="9.00">2</text>
</g>
<!-- &#45;1&#45;&gt;2 -->
<g id="edge3" class="edge"><title>&#45;1&#45;&gt;2</title>
<path fill="none" stroke="green" stroke-width="0.265607" d="M1198.52,-77.8503C1202.33,-73.6975 1207.43,-68.8564 1212.85,-65.6985 1237.52,-51.327 1316.35,-31.2274 1356.64,-21.5285"/>
<polygon fill="green" stroke="green" stroke-width="0.265607" points="1357.54,-24.913 1366.45,-19.189 1355.91,-18.1038 1357.54,-24.913"/>
</g>
<!-- 3 -->
<g id="node44" class="node"><title>3</title>
<ellipse fill="lightblue" stroke="black" cx="1296.85" cy="-14.8492" rx="14.7" ry="14.7"/>
<text text-anchor="middle" x="1296.85" y="-12.6492" font-family="Times New Roman,serif" font-size="9.00">3</text>
</g>
<!-- &#45;1&#45;&gt;3 -->
<g id="edge4" class="edge"><title>&#45;1&#45;&gt;3</title>
<path fill="none" stroke="red" stroke-width="0.269594" d="M1199.63,-77.5793C1203.43,-73.739 1208.18,-69.2553 1212.85,-65.6985 1232.65,-50.6128 1257.37,-36.4352 1274.85,-27.0857"/>
<polygon fill="red" stroke="red" stroke-width="0.269594" points="1276.52,-30.1639 1283.74,-22.4131 1273.26,-23.9676 1276.52,-30.1639"/>
</g>
<!-- &#45;2 -->
<g id="node2" class="node"><title>&#45;2</title>
<polygon fill="lightgray" stroke="black" points="1245.85,-95.9117 1221.85,-95.9117 1221.85,-77.9117 1245.85,-77.9117 1245.85,-95.9117"/>
<text text-anchor="middle" x="1233.85" y="-84.7117" font-family="Times New Roman,serif" font-size="9.00">&#45;2</text>
</g>
<!-- &#45;2&#45;&gt;0 -->
<g id="edge5" class="edge"><title>&#45;2&#45;&gt;0</title>
<path fill="none" stroke="red" stroke-width="0.207156" d="M1227.21,-77.7985C1223.41,-73.6305 1218.31,-68.7914 1212.85,-65.6985 1185.37,-50.133 1096.62,-30.0743 1053.21,-20.8701"/>
<polygon fill="red" stroke="red" stroke-width="0.207156" points="1053.72,-17.4012 1043.22,-18.7732 1052.28,-24.2521 1053.72,-17.4012"/>
</g>
<!-- &#45;2&#45;&gt;1 -->
<g id="edge6" class="edge"><title>&#45;2&#45;&gt;1</title>
<path fill="none" stroke="green" stroke-width="0.184998" d="M1226.11,-77.5166C1222.32,-73.6626 1217.57,-69.1854 1212.85,-65.6985 1191.29,-49.7791 1164.09,-35.3972 1145.26,-26.2187"/>
<polygon fill="green" stroke="green" stroke-width="0.184998" points="1146.54,-22.9488 1136.01,-21.7954 1143.52,-29.2648 1146.54,-22.9488"/>
</g>
<!-- &#45;2&#45;&gt;2 -->
<g id="edge7" class="edge"><title>&#45;2&#45;&gt;2</title>
<path fill="none" stroke="green" stroke-width="0.331536" d="M1241.01,-77.6399C1244.81,-73.6298 1249.74,-68.9831 1254.85,-65.6985 1287.37,-44.7845 1330.07,-30.1777 1356.47,-22.3999"/>
<polygon fill="green" stroke="green" stroke-width="0.331536" points="1357.73,-25.681 1366.39,-19.5753 1355.81,-18.9487 1357.73,-25.681"/>
</g>
<!-- &#45;2&#45;&gt;3 -->
<g id="edge8" class="edge"><title>&#45;2&#45;&gt;3</title>
<path fill="none" stroke="green" stroke-width="0.739965" stroke-dasharray="1,5" d="M1241.08,-77.8746C1250.59,-67.2982 1267.59,-48.3922 1280.33,-34.2241"/>
<polygon fill="green" stroke="green" stroke-width="0.739965" points="1283.16,-36.3045 1287.25,-26.5283 1277.96,-31.624 1283.16,-36.3045"/>
</g>
<!-- &#45;3 -->
<g id="node3" class="node"><title>&#45;3</title>
<polygon fill="lightgray" stroke="black" points="1287.85,-95.9117 1263.85,-95.9117 1263.85,-77.9117 1287.85,-77.9117 1287.85,-95.9117"/>
<text text-anchor="middle" x="1275.85" y="-84.7117" font-family="Times New Roman,serif" font-size="9.00">&#45;3</text>
</g>
<!-- &#45;3&#45;&gt;0 -->
<g id="edge9" class="edge"><title>&#45;3&#45;&gt;0</title>
<path fill="none" stroke="red" stroke-width="0.244863" d="M1269.27,-77.6944C1265.48,-73.496 1260.38,-68.661 1254.85,-65.6985 1245.89,-60.8979 1109.76,-32.514 1053.2,-20.8498"/>
<polygon fill="red" stroke="red" stroke-width="0.244863" points="1053.81,-17.4025 1043.31,-18.8137 1052.4,-24.2587 1053.81,-17.4025"/>
</g>
<!-- &#45;3&#45;&gt;1 -->
<g id="edge10" class="edge"><title>&#45;3&#45;&gt;1</title>
<path fill="none" stroke="red" stroke-width="0.313333" d="M1268.71,-77.6059C1264.92,-73.5872 1259.98,-68.9431 1254.85,-65.6985 1220.3,-43.8596 1174.71,-29.3125 1147.15,-21.8293"/>
<polygon fill="red" stroke="red" stroke-width="0.313333" points="1147.76,-18.3701 1137.2,-19.2221 1145.99,-25.1416 1147.76,-18.3701"/>
</g>
<!-- &#45;3&#45;&gt;2 -->
<g id="edge11" class="edge"><title>&#45;3&#45;&gt;2</title>
<path fill="none" stroke="green" stroke-width="0.363283" d="M1283.63,-77.5793C1287.43,-73.739 1292.18,-69.2553 1296.85,-65.6985 1316.65,-50.6128 1341.37,-36.4352 1358.85,-27.0857"/>
<polygon fill="green" stroke="green" stroke-width="0.363283" points="1360.52,-30.1639 1367.74,-22.4131 1357.26,-23.9676 1360.52,-30.1639"/>
</g>
<!-- &#45;3&#45;&gt;3 -->
<g id="edge12" class="edge"><title>&#45;3&#45;&gt;3</title>
<path fill="none" stroke="green" stroke-width="0.30686" d="M1278.26,-77.8746C1281.09,-68.4226 1285.92,-52.3178 1289.94,-38.8876"/>
<polygon fill="green" stroke="green" stroke-width="0.30686" points="1293.3,-39.8771 1292.82,-29.2932 1286.6,-37.8673 1293.3,-39.8771"/>
</g>
<!-- &#45;4 -->
<g id="node4" class="node"><title>&#45;4</title>
<polygon fill="lightgray" stroke="black" points="1329.85,-95.9117 1305.85,-95.9117 1305.85,-77.9117 1329.85,-77.9117 1329.85,-95.9117"/>
<text text-anchor="middle" x="1317.85" y="-84.7117" font-family="Times New Roman,serif" font-size="9.00">&#45;4</text>
</g>
<!-- &#45;4&#45;&gt;0 -->
<g id="edge13" class="edge"><title>&#45;4&#45;&gt;0</title>
<path fill="none" stroke="green" stroke-width="0.478781" stroke-dasharray="1,5" d="M1311.31,-77.6118C1307.54,-73.3892 1302.43,-68.5575 1296.85,-65.6985 1217.23,-24.9456 1186.72,-46.3787 1098.85,-29.6985 1083.67,-26.8182 1066.68,-23.4587 1053.23,-20.7698"/>
<polygon fill="green" stroke="green" stroke-width="0.478781" points="1053.81,-17.3155 1043.31,-18.7792 1052.43,-24.1786 1053.81,-17.3155"/>
</g>
<!-- &#45;4&#45;&gt;1 -->
<g id="edge14" class="edge"><title>&#45;4&#45;&gt;1</title>
<path fill="none" stroke="red" stroke-width="0.213861" stroke-dasharray="1,5" d="M1311.19,-77.8298C1307.38,-73.6711 1302.29,-68.8308 1296.85,-65.6985 1248.45,-37.8142 1183.37,-24.619 1148.11,-19.158"/>
<polygon fill="red" stroke="red" stroke-width="0.213861" points="1148.17,-15.6298 1137.77,-17.648 1147.16,-22.5563 1148.17,-15.6298"/>
</g>
<!-- &#45;4&#45;&gt;2 -->
<g id="edge15" class="edge"><title>&#45;4&#45;&gt;2</title>
<path fill="none" stroke="green" stroke-width="0.458473" d="M1325.08,-77.8746C1334.59,-67.2982 1351.59,-48.3922 1364.33,-34.2241"/>
<polygon fill="green" stroke="green" stroke-width="0.458473" points="1367.16,-36.3045 1371.25,-26.5283 1361.96,-31.624 1367.16,-36.3045"/>
</g>
<!-- &#45;4&#45;&gt;3 -->
<g id="edge16" class="edge"><title>&#45;4&#45;&gt;3</title>
<path fill="none" stroke="red" stroke-width="0.242256" d="M1315.44,-77.8746C1312.61,-68.4226 1307.78,-52.3178 1303.75,-38.8876"/>
<polygon fill="red" stroke="red" stroke-width="0.242256" points="1307.1,-37.8673 1300.88,-29.2932 1300.4,-39.8771 1307.1,-37.8673"/>
</g>
<!-- &#45;5 -->
<g id="node5" class="node"><title>&#45;5</title>
<polygon fill="lightgray" stroke="black" points="1371.85,-95.9117 1347.85,-95.9117 1347.85,-77.9117 1371.85,-77.9117 1371.85,-95.9117"/>
<text text-anchor="middle" x="1359.85" y="-84.7117" font-family="Times New Roman,serif" font-size="9.00">&#45;5</text>
</g>
<!-- &#45;5&#45;&gt;0 -->
<g id="edge17" class="edge"><title>&#45;5&#45;&gt;0</title>
<path fill="none" stroke="green" stroke-width="0.166379" stroke-dasharray="1,5" d="M1353.35,-77.5426C1349.58,-73.2997 1344.48,-68.4707 1338.85,-65.6985 1242.09,-18.0464 1205.11,-48.1704 1098.85,-29.6985 1083.63,-27.0534 1066.63,-23.7001 1053.2,-20.9556"/>
<polygon fill="green" stroke="green" stroke-width="0.166379" points="1053.79,-17.5042 1043.29,-18.9103 1052.38,-24.3596 1053.79,-17.5042"/>
</g>
<!-- &#45;5&#45;&gt;1 -->
<g id="edge18" class="edge"><title>&#45;5&#45;&gt;1</title>
<path fill="none" stroke="green" stroke-width="0.566854" d="M1353.26,-77.7158C1349.46,-73.5236 1344.37,-68.6878 1338.85,-65.6985 1275.64,-31.4479 1189.66,-20.6397 1147.8,-17.2993"/>
<polygon fill="green" stroke="green" stroke-width="0.566854" points="1147.91,-13.7982 1137.69,-16.5713 1147.41,-20.7801 1147.91,-13.7982"/>
</g>
<!-- &#45;5&#45;&gt;2 -->
<g id="edge19" class="edge"><title>&#45;5&#45;&gt;2</title>
<path fill="none" stroke="green" stroke-width="0.129471" d="M1362.26,-77.8746C1365.09,-68.4226 1369.92,-52.3178 1373.94,-38.8876"/>
<polygon fill="green" stroke="green" stroke-width="0.129471" points="1377.3,-39.8771 1376.82,-29.2932 1370.6,-37.8673 1377.3,-39.8771"/>
</g>
<!-- &#45;5&#45;&gt;3 -->
<g id="edge20" class="edge"><title>&#45;5&#45;&gt;3</title>
<path fill="none" stroke="green" stroke-width="0.533364" d="M1352.62,-77.8746C1343.11,-67.2982 1326.11,-48.3922 1313.37,-34.2241"/>
<polygon fill="green" stroke="green" stroke-width="0.533364" points="1315.74,-31.624 1306.45,-26.5283 1310.53,-36.3045 1315.74,-31.624"/>
</g>
<!-- &#45;6 -->
<g id="node6" class="node"><title>&#45;6</title>
<polygon fill="lightgray" stroke="black" points="250.848,-174.338 226.848,-174.338 226.848,-156.338 250.848,-156.338 250.848,-174.338"/>
<text text-anchor="middle" x="238.848" y="-163.138" font-family="Times New Roman,serif" font-size="9.00">&#45;6</text>
</g>
<!-- &#45;6&#45;&gt;0 -->
<g id="edge21" class="edge"><title>&#45;6&#45;&gt;0</title>
<path fill="none" stroke="red" stroke-width="0.420277" stroke-dasharray="1,5" d="M233.643,-156.154C222.449,-137.424 198.964,-91.1057 222.848,-65.6985 250.285,-36.5127 871.281,-19.7046 1004.02,-16.4381"/>
<polygon fill="red" stroke="red" stroke-width="0.420277" points="1004.12,-19.9368 1014.04,-16.1948 1003.95,-12.9389 1004.12,-19.9368"/>
</g>
<!-- &#45;6&#45;&gt;1 -->
<g id="edge22" class="edge"><title>&#45;6&#45;&gt;1</title>
<path fill="none" stroke="red" stroke-width="0.126438" d="M240.594,-156.101C245.256,-136.404 260.016,-86.6644 293.848,-65.6985 365.614,-21.226 969.041,-39.9195 1052.85,-29.6985 1068.18,-27.8287 1085.18,-24.4955 1098.59,-21.5677"/>
<polygon fill="red" stroke="red" stroke-width="0.126438" points="1099.48,-24.9538 1108.47,-19.3422 1097.95,-18.1248 1099.48,-24.9538"/>
</g>
<!-- &#45;6&#45;&gt;2 -->
<g id="edge23" class="edge"><title>&#45;6&#45;&gt;2</title>
<path fill="none" stroke="red" stroke-width="0.198572" d="M251.239,-164.227C416.516,-162.714 2180.33,-145.693 2216.85,-108.125 2229.99,-94.6035 2229.78,-79.4229 2216.85,-65.6985 2188.33,-35.4298 1542.9,-19.4454 1406.16,-16.3922"/>
<polygon fill="red" stroke="red" stroke-width="0.198572" points="1405.93,-12.8864 1395.86,-16.1653 1405.78,-19.8847 1405.93,-12.8864"/>
</g>
<!-- &#45;6&#45;&gt;3 -->
<g id="edge24" class="edge"><title>&#45;6&#45;&gt;3</title>
<path fill="none" stroke="green" stroke-width="0.461612" d="M250.952,-164.191C405.516,-162.288 1989.05,-141.974 2021.85,-108.125 2034.97,-94.5831 2034.82,-79.3874 2021.85,-65.6985 1970.96,-11.979 1430.12,-40.0583 1356.85,-29.6985 1344.82,-27.9971 1331.64,-25.0761 1320.71,-22.354"/>
<polygon fill="green" stroke="green" stroke-width="0.461612" points="1321.58,-18.9651 1311.02,-19.8514 1319.83,-25.7424 1321.58,-18.9651"/>
</g>
<!-- 660 -->
<g id="node46" class="node"><title>660</title>
<ellipse fill="white" stroke="black" cx="111.848" cy="-86.9117" rx="21.4286" ry="21.4286"/>
<text text-anchor="middle" x="111.848" y="-84.7117" font-family="Times New Roman,serif" font-size="9.00">660</text>
</g>
<!-- &#45;6&#45;&gt;660 -->
<g id="edge165" class="edge"><title>&#45;6&#45;&gt;660</title>
<path fill="none" stroke="green" stroke-width="0.3" d="M231.556,-156.263C227.722,-152.303 222.798,-147.642 217.848,-144.125 189.008,-123.632 177.957,-124.978 146.848,-108.125 144.159,-106.668 141.37,-105.121 138.595,-103.557"/>
<polygon fill="green" stroke="green" stroke-width="0.3" points="140.327,-100.516 129.908,-98.592 136.853,-106.593 140.327,-100.516"/>
</g>
<!-- &#45;7 -->
<g id="node7" class="node"><title>&#45;7</title>
<polygon fill="lightgray" stroke="black" points="208.848,-174.338 184.848,-174.338 184.848,-156.338 208.848,-156.338 208.848,-174.338"/>
<text text-anchor="middle" x="196.848" y="-163.138" font-family="Times New Roman,serif" font-size="9.00">&#45;7</text>
</g>
<!-- &#45;7&#45;&gt;0 -->
<g id="edge25" class="edge"><title>&#45;7&#45;&gt;0</title>
<path fill="none" stroke="green" stroke-width="0.228655" d="M184.823,-164.807C152.04,-165.347 60.9525,-161.758 21.8485,-108.125 10.7396,-92.8885 8.84895,-79.3575 21.8485,-65.6985 56.7621,-29.0138 851.719,-17.9152 1003.82,-16.1244"/>
<polygon fill="green" stroke="green" stroke-width="0.228655" points="1004.05,-19.6221 1014.01,-16.0072 1003.97,-12.6225 1004.05,-19.6221"/>
</g>
<!-- &#45;7&#45;&gt;1 -->
<g id="edge26" class="edge"><title>&#45;7&#45;&gt;1</title>
<path fill="none" stroke="red" stroke-width="0.42256" d="M198.835,-156.081C204.074,-136.339 220.304,-86.5074 254.848,-65.6985 330.877,-19.9007 964.732,-40.3417 1052.85,-29.6985 1068.18,-27.8464 1085.18,-24.5137 1098.59,-21.5817"/>
<polygon fill="red" stroke="red" stroke-width="0.42256" points="1099.49,-24.9673 1108.47,-19.3521 1097.95,-18.139 1099.49,-24.9673"/>
</g>
<!-- &#45;7&#45;&gt;2 -->
<g id="edge27" class="edge"><title>&#45;7&#45;&gt;2</title>
<path fill="none" stroke="green" stroke-width="0.945827" d="M202.86,-156.089C206.613,-151.655 211.863,-146.601 217.848,-144.125 318.79,-102.36 2107.31,-186.074 2183.85,-108.125 2197.06,-94.6701 2196.76,-79.4387 2183.85,-65.6985 2156.55,-36.6487 1539.15,-19.763 1406.01,-16.4523"/>
<polygon fill="green" stroke="green" stroke-width="0.945827" points="1406.03,-12.952 1395.95,-16.2053 1405.86,-19.9499 1406.03,-12.952"/>
</g>
<!-- &#45;7&#45;&gt;3 -->
<g id="edge28" class="edge"><title>&#45;7&#45;&gt;3</title>
<path fill="none" stroke="green" stroke-width="0.556902" d="M202.862,-156.095C206.617,-151.662 211.867,-146.609 217.848,-144.125 306.013,-107.51 1869.06,-176.333 1935.85,-108.125 1949.04,-94.6526 1948.76,-79.4393 1935.85,-65.6985 1891.71,-18.7272 1420.63,-38.9784 1356.85,-29.6985 1344.82,-27.9489 1331.65,-25.0225 1320.71,-22.3093"/>
<polygon fill="green" stroke="green" stroke-width="0.556902" points="1321.58,-18.9197 1311.03,-19.8187 1319.84,-25.6991 1321.58,-18.9197"/>
</g>
<!-- 479 -->
<g id="node49" class="node"><title>479</title>
<ellipse fill="white" stroke="black" cx="51.8485" cy="-86.9117" rx="21.4286" ry="21.4286"/>
<text text-anchor="middle" x="51.8485" y="-84.7117" font-family="Times New Roman,serif" font-size="9.00">479</text>
</g>
<!-- &#45;7&#45;&gt;479 -->
<g id="edge159" class="edge"><title>&#45;7&#45;&gt;479</title>
<path fill="none" stroke="red" stroke-width="0.62903" d="M184.814,-159.119C163.568,-149.76 118.219,-129.132 81.8485,-108.125 80.353,-107.261 78.8326,-106.35 77.3099,-105.411"/>
<polygon fill="red" stroke="red" stroke-width="0.62903" points="79.0227,-102.351 68.7214,-99.8736 75.2296,-108.234 79.0227,-102.351"/>
</g>
<!-- &#45;8 -->
<g id="node8" class="node"><title>&#45;8</title>
<polygon fill="lightgray" stroke="black" points="1413.85,-95.9117 1389.85,-95.9117 1389.85,-77.9117 1413.85,-77.9117 1413.85,-95.9117"/>
<text text-anchor="middle" x="1401.85" y="-84.7117" font-family="Times New Roman,serif" font-size="9.00">&#45;8</text>
</g>
<!-- &#45;8&#45;&gt;0 -->
<g id="edge29" class="edge"><title>&#45;8&#45;&gt;0</title>
<path fill="none" stroke="red" stroke-width="0.441313" stroke-dasharray="1,5" d="M1395.73,-77.9034C1391.94,-73.5495 1386.69,-68.4962 1380.85,-65.6985 1266.89,-11.1228 1223.56,-49.9716 1098.85,-29.6985 1083.6,-27.2203 1066.61,-23.8713 1053.18,-21.0874"/>
<polygon fill="red" stroke="red" stroke-width="0.441313" points="1053.78,-17.638 1043.28,-19.0033 1052.34,-24.4879 1053.78,-17.638"/>
</g>
<!-- &#45;8&#45;&gt;1 -->
<g id="edge30" class="edge"><title>&#45;8&#45;&gt;1</title>
<path fill="none" stroke="red" stroke-width="0.373229" d="M1395.3,-77.6363C1391.52,-73.4209 1386.42,-68.5882 1380.85,-65.6985 1302.71,-25.1574 1195.78,-17.4109 1147.86,-16.054"/>
<polygon fill="red" stroke="red" stroke-width="0.373229" points="1147.85,-12.5531 1137.77,-15.8407 1147.7,-19.5515 1147.85,-12.5531"/>
</g>
<!-- &#45;8&#45;&gt;2 -->
<g id="edge31" class="edge"><title>&#45;8&#45;&gt;2</title>
<path fill="none" stroke="red" stroke-width="0.347542" stroke-dasharray="1,5" d="M1399.44,-77.8746C1396.61,-68.4226 1391.78,-52.3178 1387.75,-38.8876"/>
<polygon fill="red" stroke="red" stroke-width="0.347542" points="1391.1,-37.8673 1384.88,-29.2932 1384.4,-39.8771 1391.1,-37.8673"/>
</g>
<!-- &#45;8&#45;&gt;3 -->
<g id="edge32" class="edge"><title>&#45;8&#45;&gt;3</title>
<path fill="none" stroke="green" stroke-width="0.434236" d="M1394.07,-77.5793C1390.27,-73.739 1385.52,-69.2553 1380.85,-65.6985 1361.04,-50.6128 1336.33,-36.4352 1318.85,-27.0857"/>
<polygon fill="green" stroke="green" stroke-width="0.434236" points="1320.44,-23.9676 1309.96,-22.4131 1317.18,-30.1639 1320.44,-23.9676"/>
</g>
<!-- &#45;9 -->
<g id="node9" class="node"><title>&#45;9</title>
<polygon fill="lightgray" stroke="black" points="1455.85,-95.9117 1431.85,-95.9117 1431.85,-77.9117 1455.85,-77.9117 1455.85,-95.9117"/>
<text text-anchor="middle" x="1443.85" y="-84.7117" font-family="Times New Roman,serif" font-size="9.00">&#45;9</text>
</g>
<!-- &#45;9&#45;&gt;0 -->
<g id="edge33" class="edge"><title>&#45;9&#45;&gt;0</title>
<path fill="none" stroke="red" stroke-width="0.394929" d="M1437.75,-77.8676C1433.96,-73.5018 1428.71,-68.4485 1422.85,-65.6985 1291.67,-4.18463 1242.04,-51.7783 1098.85,-29.6985 1083.58,-27.3448 1066.59,-23.999 1053.16,-21.1856"/>
<polygon fill="red" stroke="red" stroke-width="0.394929" points="1053.77,-17.7377 1043.26,-19.0726 1052.31,-24.5834 1053.77,-17.7377"/>
</g>
<!-- &#45;9&#45;&gt;1 -->
<g id="edge34" class="edge"><title>&#45;9&#45;&gt;1</title>
<path fill="none" stroke="green" stroke-width="0.310723" d="M1437.33,-77.5779C1433.56,-73.3454 1428.46,-68.515 1422.85,-65.6985 1374.45,-41.3862 1210.92,-24.0236 1147.9,-18.0883"/>
<polygon fill="green" stroke="green" stroke-width="0.310723" points="1147.96,-14.5793 1137.68,-17.1438 1147.32,-21.5496 1147.96,-14.5793"/>
</g>
<!-- &#45;9&#45;&gt;2 -->
<g id="edge35" class="edge"><title>&#45;9&#45;&gt;2</title>
<path fill="none" stroke="green" stroke-width="0.516282" d="M1436.62,-77.8746C1427.11,-67.2982 1410.11,-48.3922 1397.37,-34.2241"/>
<polygon fill="green" stroke="green" stroke-width="0.516282" points="1399.74,-31.624 1390.45,-26.5283 1394.53,-36.3045 1399.74,-31.624"/>
</g>
<!-- &#45;9&#45;&gt;3 -->
<g id="edge36" class="edge"><title>&#45;9&#45;&gt;3</title>
<path fill="none" stroke="green" stroke-width="0.527144" d="M1436.69,-77.6399C1432.89,-73.6298 1427.96,-68.9831 1422.85,-65.6985 1390.33,-44.7845 1347.63,-30.1777 1321.23,-22.3999"/>
<polygon fill="green" stroke="green" stroke-width="0.527144" points="1321.89,-18.9487 1311.31,-19.5753 1319.97,-25.681 1321.89,-18.9487"/>
</g>
<!-- &#45;10 -->
<g id="node10" class="node"><title>&#45;10</title>
<polygon fill="lightgray" stroke="black" points="1503.35,-95.9117 1474.35,-95.9117 1474.35,-77.9117 1503.35,-77.9117 1503.35,-95.9117"/>
<text text-anchor="middle" x="1488.85" y="-84.7117" font-family="Times New Roman,serif" font-size="9.00">&#45;10</text>
</g>
<!-- &#45;10&#45;&gt;0 -->
<g id="edge37" class="edge"><title>&#45;10&#45;&gt;0</title>
<path fill="none" stroke="green" stroke-width="0.374778" stroke-dasharray="1,5" d="M1481.67,-77.8368C1477.27,-73.4607 1471.27,-68.4074 1464.85,-65.6985 1314.24,-2.19774 1260.54,-53.5884 1098.85,-29.6985 1083.57,-27.4411 1066.57,-24.0978 1053.15,-21.2616"/>
<polygon fill="green" stroke="green" stroke-width="0.374778" points="1053.77,-17.8148 1043.26,-19.1263 1052.29,-24.6572 1053.77,-17.8148"/>
</g>
<!-- &#45;10&#45;&gt;1 -->
<g id="edge38" class="edge"><title>&#45;10&#45;&gt;1</title>
<path fill="none" stroke="green" stroke-width="0.501484" d="M1481.2,-77.54C1476.83,-73.2963 1471.01,-68.4674 1464.85,-65.6985 1435.96,-52.7147 1222.04,-27.2343 1147.99,-18.7065"/>
<polygon fill="green" stroke="green" stroke-width="0.501484" points="1148.07,-15.1928 1137.74,-17.5312 1147.27,-22.1472 1148.07,-15.1928"/>
</g>
<!-- &#45;10&#45;&gt;2 -->
<g id="edge39" class="edge"><title>&#45;10&#45;&gt;2</title>
<path fill="none" stroke="red" stroke-width="0.540503" d="M1479.79,-77.672C1475.41,-73.852 1470,-69.3587 1464.85,-65.6985 1444.55,-51.278 1419.91,-37.0027 1402.58,-27.4487"/>
<polygon fill="red" stroke="red" stroke-width="0.540503" points="1404.24,-24.3647 1393.78,-22.6558 1400.89,-30.5122 1404.24,-24.3647"/>
</g>
<!-- &#45;10&#45;&gt;3 -->
<g id="edge40" class="edge"><title>&#45;10&#45;&gt;3</title>
<path fill="none" stroke="red" stroke-width="0.122443" d="M1481.03,-77.8871C1476.61,-73.7451 1470.8,-68.9026 1464.85,-65.6985 1439.71,-52.1534 1361.1,-31.6682 1320.96,-21.7048"/>
<polygon fill="red" stroke="red" stroke-width="0.122443" points="1321.73,-18.2906 1311.18,-19.2983 1320.06,-25.0876 1321.73,-18.2906"/>
</g>
<!-- &#45;11 -->
<g id="node11" class="node"><title>&#45;11</title>
<polygon fill="lightgray" stroke="black" points="332.348,-95.9117 303.348,-95.9117 303.348,-77.9117 332.348,-77.9117 332.348,-95.9117"/>
<text text-anchor="middle" x="317.848" y="-84.7117" font-family="Times New Roman,serif" font-size="9.00">&#45;11</text>
</g>
<!-- &#45;11&#45;&gt;0 -->
<g id="edge41" class="edge"><title>&#45;11&#45;&gt;0</title>
<path fill="none" stroke="green" stroke-width="0.20409" d="M326.796,-77.7745C332.195,-73.3777 339.445,-68.3244 346.848,-65.6985 471.528,-21.4769 895.995,-16.4709 1003.79,-15.9159"/>
<polygon fill="green" stroke="green" stroke-width="0.20409" points="1004.04,-19.415 1014.02,-15.8721 1004.01,-12.415 1004.04,-19.415"/>
</g>
<!-- &#45;11&#45;&gt;1 -->
<g id="edge42" class="edge"><title>&#45;11&#45;&gt;1</title>
<path fill="none" stroke="red" stroke-width="0.313972" d="M326.775,-77.7133C332.167,-73.296 339.417,-68.2427 346.848,-65.6985 495.473,-14.8188 896.945,-48.9933 1052.85,-29.6985 1068.18,-27.8015 1085.18,-24.4676 1098.59,-21.5462"/>
<polygon fill="red" stroke="red" stroke-width="0.313972" points="1099.48,-24.933 1108.47,-19.3271 1097.94,-18.1031 1099.48,-24.933"/>
</g>
<!-- &#45;11&#45;&gt;3 -->
<g id="edge43" class="edge"><title>&#45;11&#45;&gt;3</title>
<path fill="none" stroke="red" stroke-width="0.172594" d="M332.643,-82.1956C352.06,-77.4861 387.267,-69.5223 417.848,-65.6985 739.737,-25.4498 823.264,-52.6157 1146.85,-29.6985 1190.8,-26.5858 1241.87,-21.5718 1271.65,-18.5072"/>
<polygon fill="red" stroke="red" stroke-width="0.172594" points="1272.38,-21.9506 1281.96,-17.4362 1271.65,-14.988 1272.38,-21.9506"/>
</g>
<!-- &#45;12 -->
<g id="node12" class="node"><title>&#45;12</title>
<polygon fill="lightgray" stroke="black" points="1550.35,-95.9117 1521.35,-95.9117 1521.35,-77.9117 1550.35,-77.9117 1550.35,-95.9117"/>
<text text-anchor="middle" x="1535.85" y="-84.7117" font-family="Times New Roman,serif" font-size="9.00">&#45;12</text>
</g>
<!-- &#45;12&#45;&gt;0 -->
<g id="edge44" class="edge"><title>&#45;12&#45;&gt;0</title>
<path fill="none" stroke="red" stroke-width="0.378761" d="M1529.04,-77.8106C1524.86,-73.4258 1519.11,-68.3725 1512.85,-65.6985 1427.93,-29.4081 1190.28,-42.6792 1098.85,-29.6985 1083.56,-27.5275 1066.56,-24.1865 1053.14,-21.3299"/>
<polygon fill="red" stroke="red" stroke-width="0.378761" points="1053.77,-17.8839 1043.25,-19.1744 1052.27,-24.7234 1053.77,-17.8839"/>
</g>
<!-- &#45;12&#45;&gt;1 -->
<g id="edge45" class="edge"><title>&#45;12&#45;&gt;1</title>
<path fill="none" stroke="red" stroke-width="0.17912" d="M1529,-77.9049C1524.8,-73.5516 1519.05,-68.4983 1512.85,-65.6985 1479.5,-50.6431 1228.43,-25.8378 1147.74,-18.1762"/>
<polygon fill="red" stroke="red" stroke-width="0.17912" points="1147.81,-14.6674 1137.52,-17.2117 1147.15,-21.6364 1147.81,-14.6674"/>
</g>
<!-- &#45;12&#45;&gt;2 -->
<g id="edge46" class="edge"><title>&#45;12&#45;&gt;2</title>
<path fill="none" stroke="red" stroke-width="0.182228" d="M1527.9,-77.6405C1523.71,-73.6306 1518.32,-68.9839 1512.85,-65.6985 1477.81,-44.6479 1432.37,-29.8615 1404.98,-22.1161"/>
<polygon fill="red" stroke="red" stroke-width="0.182228" points="1405.66,-18.6731 1395.09,-19.4056 1403.8,-25.4242 1405.66,-18.6731"/>
</g>
<!-- &#45;12&#45;&gt;3 -->
<g id="edge47" class="edge"><title>&#45;12&#45;&gt;3</title>
<path fill="none" stroke="red" stroke-width="0.214114" d="M1528.49,-77.7309C1524.29,-73.5431 1518.71,-68.7067 1512.85,-65.6985 1449.53,-33.226 1426.18,-45.7002 1356.85,-29.6985 1345.13,-26.9938 1332.12,-23.9918 1321.22,-21.476"/>
<polygon fill="red" stroke="red" stroke-width="0.214114" points="1321.68,-17.9903 1311.15,-19.1514 1320.11,-24.8109 1321.68,-17.9903"/>
</g>
<!-- &#45;13 -->
<g id="node13" class="node"><title>&#45;13</title>
<polygon fill="lightgray" stroke="black" points="456.348,-95.9117 427.348,-95.9117 427.348,-77.9117 456.348,-77.9117 456.348,-95.9117"/>
<text text-anchor="middle" x="441.848" y="-84.7117" font-family="Times New Roman,serif" font-size="9.00">&#45;13</text>
</g>
<!-- &#45;13&#45;&gt;0 -->
<g id="edge48" class="edge"><title>&#45;13&#45;&gt;0</title>
<path fill="none" stroke="green" stroke-width="0.397875" d="M448.657,-77.8139C452.843,-73.4302 458.593,-68.3769 464.848,-65.6985 563.939,-23.2682 907.191,-16.9519 1003.53,-16.0129"/>
<polygon fill="green" stroke="green" stroke-width="0.397875" points="1003.81,-19.5107 1013.78,-15.9248 1003.75,-12.511 1003.81,-19.5107"/>
</g>
<!-- &#45;13&#45;&gt;1 -->
<g id="edge49" class="edge"><title>&#45;13&#45;&gt;1</title>
<path fill="none" stroke="red" stroke-width="0.240586" d="M448.63,-77.7504C452.808,-73.3455 458.558,-68.2922 464.848,-65.6985 585.876,-15.7976 923.012,-46.4401 1052.85,-29.6985 1068.17,-27.7233 1085.17,-24.3874 1098.58,-21.4845"/>
<polygon fill="red" stroke="red" stroke-width="0.240586" points="1099.46,-24.8733 1108.46,-19.2835 1097.94,-18.0406 1099.46,-24.8733"/>
</g>
<!-- &#45;13&#45;&gt;3 -->
<g id="edge50" class="edge"><title>&#45;13&#45;&gt;3</title>
<path fill="none" stroke="green" stroke-width="0.184204" d="M448.622,-77.7305C452.797,-73.319 458.547,-68.2657 464.848,-65.6985 605.399,-8.4386 995.48,-40.6771 1146.85,-29.6985 1190.79,-26.5112 1241.86,-21.5208 1271.65,-18.4811"/>
<polygon fill="green" stroke="green" stroke-width="0.184204" points="1272.37,-21.9251 1281.96,-17.4194 1271.66,-14.9619 1272.37,-21.9251"/>
</g>
<!-- &#45;14 -->
<g id="node14" class="node"><title>&#45;14</title>
<polygon fill="lightgray" stroke="black" points="1597.35,-95.9117 1568.35,-95.9117 1568.35,-77.9117 1597.35,-77.9117 1597.35,-95.9117"/>
<text text-anchor="middle" x="1582.85" y="-84.7117" font-family="Times New Roman,serif" font-size="9.00">&#45;14</text>
</g>
<!-- &#45;14&#45;&gt;0 -->
<g id="edge51" class="edge"><title>&#45;14&#45;&gt;0</title>
<path fill="none" stroke="green" stroke-width="0.427774" d="M1576.05,-77.7899C1571.87,-73.3982 1566.12,-68.3449 1559.85,-65.6985 1465.18,-25.7339 1200.65,-43.6943 1098.85,-29.6985 1083.55,-27.5948 1066.55,-24.2555 1053.13,-21.383"/>
<polygon fill="green" stroke="green" stroke-width="0.427774" points="1053.76,-17.9378 1043.24,-19.2119 1052.26,-24.775 1053.76,-17.9378"/>
</g>
<!-- &#45;14&#45;&gt;1 -->
<g id="edge52" class="edge"><title>&#45;14&#45;&gt;1</title>
<path fill="none" stroke="red" stroke-width="0.23459" d="M1576.01,-77.8734C1571.82,-73.5095 1566.07,-68.4562 1559.85,-65.6985 1540.83,-57.2687 1237.55,-27.0709 1147.73,-18.2716"/>
<polygon fill="red" stroke="red" stroke-width="0.23459" points="1147.93,-14.7749 1137.64,-17.2853 1147.25,-21.7417 1147.93,-14.7749"/>
</g>
<!-- &#45;14&#45;&gt;2 -->
<g id="edge53" class="edge"><title>&#45;14&#45;&gt;2</title>
<path fill="none" stroke="green" stroke-width="0.162639" d="M1575.43,-77.8351C1571.22,-73.6778 1565.64,-68.8373 1559.85,-65.6985 1508.95,-38.1352 1441.46,-24.7207 1405.65,-19.1623"/>
<polygon fill="green" stroke="green" stroke-width="0.162639" points="1406,-15.6775 1395.6,-17.6825 1404.98,-22.6027 1406,-15.6775"/>
</g>
<!-- &#45;14&#45;&gt;3 -->
<g id="edge54" class="edge"><title>&#45;14&#45;&gt;3</title>
<path fill="none" stroke="green" stroke-width="0.462272" d="M1575.55,-77.6101C1571.37,-73.387 1565.79,-68.5553 1559.85,-65.6985 1477.27,-25.9865 1446.63,-48.0086 1356.85,-29.6985 1345.06,-27.2952 1332.05,-24.3296 1321.16,-21.7601"/>
<polygon fill="green" stroke="green" stroke-width="0.462272" points="1321.65,-18.2776 1311.11,-19.358 1320.02,-25.086 1321.65,-18.2776"/>
</g>
<!-- &#45;15 -->
<g id="node15" class="node"><title>&#45;15</title>
<polygon fill="lightgray" stroke="black" points="1644.35,-95.9117 1615.35,-95.9117 1615.35,-77.9117 1644.35,-77.9117 1644.35,-95.9117"/>
<text text-anchor="middle" x="1629.85" y="-84.7117" font-family="Times New Roman,serif" font-size="9.00">&#45;15</text>
</g>
<!-- &#45;15&#45;&gt;0 -->
<g id="edge55" class="edge"><title>&#45;15&#45;&gt;0</title>
<path fill="none" stroke="green" stroke-width="0.238961" d="M1623.06,-77.773C1618.88,-73.3757 1613.13,-68.3224 1606.85,-65.6985 1502.43,-22.0578 1211.02,-44.71 1098.85,-29.6985 1083.54,-27.6498 1066.54,-24.312 1053.13,-21.4264"/>
<polygon fill="green" stroke="green" stroke-width="0.238961" points="1053.76,-17.9818 1043.24,-19.2426 1052.25,-24.8171 1053.76,-17.9818"/>
</g>
<!-- &#45;15&#45;&gt;1 -->
<g id="edge56" class="edge"><title>&#45;15&#45;&gt;1</title>
<path fill="none" stroke="green" stroke-width="0.42022" d="M1623.03,-77.8478C1618.83,-73.4754 1613.08,-68.4221 1606.85,-65.6985 1596.19,-61.0438 1245.58,-27.4964 1147.89,-18.2204"/>
<polygon fill="green" stroke="green" stroke-width="0.42022" points="1148.04,-14.7193 1137.76,-17.2591 1147.38,-21.688 1148.04,-14.7193"/>
</g>
<!-- &#45;15&#45;&gt;2 -->
<g id="edge57" class="edge"><title>&#45;15&#45;&gt;2</title>
<path fill="none" stroke="green" stroke-width="0.183972" d="M1622.5,-77.7081C1618.31,-73.5137 1612.73,-68.6782 1606.85,-65.6985 1539.43,-31.5305 1449.05,-20.6603 1405.87,-17.2981"/>
<polygon fill="green" stroke="green" stroke-width="0.183972" points="1405.93,-13.7939 1395.71,-16.5803 1405.44,-20.7765 1405.93,-13.7939"/>
</g>
<!-- &#45;15&#45;&gt;3 -->
<g id="edge58" class="edge"><title>&#45;15&#45;&gt;3</title>
<path fill="none" stroke="red" stroke-width="0.313508" d="M1622.58,-77.5328C1618.42,-73.2871 1612.83,-68.4584 1606.85,-65.6985 1504.9,-18.697 1467.19,-50.3403 1356.85,-29.6985 1345.03,-27.487 1332.01,-24.5446 1321.13,-21.9409"/>
<polygon fill="red" stroke="red" stroke-width="0.313508" points="1321.63,-18.4603 1311.08,-19.4896 1319.97,-25.2607 1321.63,-18.4603"/>
</g>
<!-- &#45;16 -->
<g id="node16" class="node"><title>&#45;16</title>
<polygon fill="lightgray" stroke="black" points="1691.35,-95.9117 1662.35,-95.9117 1662.35,-77.9117 1691.35,-77.9117 1691.35,-95.9117"/>
<text text-anchor="middle" x="1676.85" y="-84.7117" font-family="Times New Roman,serif" font-size="9.00">&#45;16</text>
</g>
<!-- &#45;16&#45;&gt;0 -->
<g id="edge59" class="edge"><title>&#45;16&#45;&gt;0</title>
<path fill="none" stroke="red" stroke-width="0.283425" d="M1670.06,-77.7589C1665.88,-73.3569 1660.13,-68.3036 1653.85,-65.6985 1539.67,-18.3803 1221.4,-45.7263 1098.85,-29.6985 1083.53,-27.6956 1066.53,-24.3589 1053.12,-21.4625"/>
<polygon fill="red" stroke="red" stroke-width="0.283425" points="1053.76,-18.0184 1043.24,-19.268 1052.24,-24.852 1053.76,-18.0184"/>
</g>
<!-- &#45;16&#45;&gt;1 -->
<g id="edge60" class="edge"><title>&#45;16&#45;&gt;1</title>
<path fill="none" stroke="green" stroke-width="0.228173" d="M1670.03,-77.8267C1665.85,-73.4472 1660.1,-68.3939 1653.85,-65.6985 1652.37,-65.0612 1252.71,-27.9098 1147.82,-18.1675"/>
<polygon fill="green" stroke="green" stroke-width="0.228173" points="1147.84,-14.6546 1137.56,-17.2149 1147.19,-21.6246 1147.84,-14.6546"/>
</g>
<!-- &#45;16&#45;&gt;2 -->
<g id="edge61" class="edge"><title>&#45;16&#45;&gt;2</title>
<path fill="none" stroke="red" stroke-width="0.253789" d="M1669.54,-77.6222C1665.36,-73.4026 1659.78,-68.5704 1653.85,-65.6985 1569.59,-24.9115 1455.96,-17.322 1406.09,-16.0328"/>
<polygon fill="red" stroke="red" stroke-width="0.253789" points="1405.98,-12.53 1395.91,-15.8367 1405.84,-19.5287 1405.98,-12.53"/>
</g>
<!-- &#45;16&#45;&gt;3 -->
<g id="edge62" class="edge"><title>&#45;16&#45;&gt;3</title>
<path fill="none" stroke="red" stroke-width="0.386063" d="M1670.01,-77.8898C1665.81,-73.5314 1660.06,-68.4781 1653.85,-65.6985 1532.48,-11.3817 1487.81,-52.6834 1356.85,-29.6985 1345,-27.6195 1331.98,-24.6932 1321.1,-22.0658"/>
<polygon fill="red" stroke="red" stroke-width="0.386063" points="1321.61,-18.5864 1311.07,-19.5804 1319.93,-25.3812 1321.61,-18.5864"/>
</g>
<!-- &#45;17 -->
<g id="node17" class="node"><title>&#45;17</title>
<polygon fill="lightgray" stroke="black" points="1738.35,-95.9117 1709.35,-95.9117 1709.35,-77.9117 1738.35,-77.9117 1738.35,-95.9117"/>
<text text-anchor="middle" x="1723.85" y="-84.7117" font-family="Times New Roman,serif" font-size="9.00">&#45;17</text>
</g>
<!-- &#45;17&#45;&gt;0 -->
<g id="edge63" class="edge"><title>&#45;17&#45;&gt;0</title>
<path fill="none" stroke="green" stroke-width="0.284939" d="M1717.07,-77.747C1712.89,-73.341 1707.14,-68.2877 1700.85,-65.6985 1576.91,-14.7018 1231.78,-46.7429 1098.85,-29.6985 1083.53,-27.7342 1066.53,-24.3985 1053.12,-21.4931"/>
<polygon fill="green" stroke="green" stroke-width="0.284939" points="1053.76,-18.0493 1043.23,-19.2896 1052.23,-24.8816 1053.76,-18.0493"/>
</g>
<!-- &#45;17&#45;&gt;1 -->
<g id="edge64" class="edge"><title>&#45;17&#45;&gt;1</title>
<path fill="none" stroke="green" stroke-width="0.252498" d="M1717.04,-77.8039C1712.86,-73.4169 1707.11,-68.3636 1700.85,-65.6985 1613.03,-28.3139 1367.93,-38.0861 1272.85,-29.6985 1228.96,-25.8265 1177.87,-21.0527 1148.07,-18.241"/>
<polygon fill="green" stroke="green" stroke-width="0.252498" points="1148.03,-14.7221 1137.75,-17.2655 1147.37,-21.6911 1148.03,-14.7221"/>
</g>
<!-- &#45;17&#45;&gt;2 -->
<g id="edge65" class="edge"><title>&#45;17&#45;&gt;2</title>
<path fill="none" stroke="red" stroke-width="0.284572" d="M1716.57,-77.5603C1712.4,-73.3226 1706.82,-68.4929 1700.85,-65.6985 1599.16,-18.1028 1461.41,-14.4286 1405.73,-15.1152"/>
<polygon fill="red" stroke="red" stroke-width="0.284572" points="1405.65,-11.6159 1395.72,-15.2989 1405.78,-18.6147 1405.65,-11.6159"/>
</g>
<!-- &#45;17&#45;&gt;3 -->
<g id="edge66" class="edge"><title>&#45;17&#45;&gt;3</title>
<path fill="none" stroke="green" stroke-width="0.389601" d="M1717.02,-77.8516C1712.83,-73.4805 1707.08,-68.4272 1700.85,-65.6985 1560.03,-4.0515 1508.47,-55.0328 1356.85,-29.6985 1344.99,-27.7164 1331.96,-24.8018 1321.09,-22.1571"/>
<polygon fill="green" stroke="green" stroke-width="0.389601" points="1321.61,-18.6785 1311.06,-19.6469 1319.91,-25.4693 1321.61,-18.6785"/>
</g>
<!-- &#45;18 -->
<g id="node18" class="node"><title>&#45;18</title>
<polygon fill="lightgray" stroke="black" points="2136.35,-174.338 2107.35,-174.338 2107.35,-156.338 2136.35,-156.338 2136.35,-174.338"/>
<text text-anchor="middle" x="2121.85" y="-163.138" font-family="Times New Roman,serif" font-size="9.00">&#45;18</text>
</g>
<!-- &#45;18&#45;&gt;0 -->
<g id="edge67" class="edge"><title>&#45;18&#45;&gt;0</title>
<path fill="none" stroke="green" stroke-width="0.156845" stroke-dasharray="1,5" d="M2107.15,-164.171C1936.01,-162.189 327.332,-142.654 293.848,-108.125 280.722,-94.5882 280.974,-79.4755 293.848,-65.6985 343.28,-12.8003 880.283,-14.4799 1003.68,-15.5736"/>
<polygon fill="green" stroke="green" stroke-width="0.156845" points="1003.96,-19.0764 1013.99,-15.6726 1004.03,-12.0767 1003.96,-19.0764"/>
</g>
<!-- &#45;18&#45;&gt;1 -->
<g id="edge68" class="edge"><title>&#45;18&#45;&gt;1</title>
<path fill="none" stroke="green" stroke-width="0.413467" d="M2107.17,-164.432C1944.35,-165.411 480.045,-172.407 417.848,-108.125 404.737,-94.5735 404.898,-79.404 417.848,-65.6985 466.384,-14.3333 982.74,-38.5777 1052.85,-29.6985 1068.17,-27.7579 1085.17,-24.4229 1098.58,-21.5118"/>
<polygon fill="green" stroke="green" stroke-width="0.413467" points="1099.47,-24.8997 1108.46,-19.3028 1097.94,-18.0682 1099.47,-24.8997"/>
</g>
<!-- &#45;18&#45;&gt;2 -->
<g id="edge69" class="edge"><title>&#45;18&#45;&gt;2</title>
<path fill="none" stroke="red" stroke-width="0.544726" d="M2136.69,-162.577C2191.68,-155.526 2377.72,-126.726 2319.85,-65.6985 2287.48,-31.5691 1552.18,-18.4867 1405.99,-16.2188"/>
<polygon fill="red" stroke="red" stroke-width="0.544726" points="1405.84,-12.7161 1395.79,-16.0633 1405.73,-19.7153 1405.84,-12.7161"/>
</g>
<!-- &#45;18&#45;&gt;3 -->
<g id="edge70" class="edge"><title>&#45;18&#45;&gt;3</title>
<path fill="none" stroke="green" stroke-width="0.148066" d="M2122.3,-156.287C2122.87,-137.003 2121.32,-88.1107 2092.85,-65.6985 2028.51,-15.0564 1437.95,-40.9502 1356.85,-29.6985 1344.81,-28.0285 1331.63,-25.111 1320.7,-22.3831"/>
<polygon fill="green" stroke="green" stroke-width="0.148066" points="1321.58,-18.9946 1311.02,-19.8727 1319.82,-25.7706 1321.58,-18.9946"/>
</g>
<!-- 181 -->
<g id="node47" class="node"><title>181</title>
<ellipse fill="white" stroke="black" cx="2289.85" cy="-86.9117" rx="21.4286" ry="21.4286"/>
<text text-anchor="middle" x="2289.85" y="-84.7117" font-family="Times New Roman,serif" font-size="9.00">181</text>
</g>
<!-- &#45;18&#45;&gt;181 -->
<g id="edge157" class="edge"><title>&#45;18&#45;&gt;181</title>
<path fill="none" stroke="red" stroke-width="0.125735" d="M2136.48,-158.84C2161.26,-149.379 2212.88,-129.012 2254.85,-108.125 2257.59,-106.762 2260.41,-105.277 2263.2,-103.751"/>
<polygon fill="red" stroke="red" stroke-width="0.125735" points="2264.93,-106.798 2271.92,-98.8372 2261.49,-100.701 2264.93,-106.798"/>
</g>
<!-- &#45;19 -->
<g id="node19" class="node"><title>&#45;19</title>
<polygon fill="lightgray" stroke="black" points="1785.35,-95.9117 1756.35,-95.9117 1756.35,-77.9117 1785.35,-77.9117 1785.35,-95.9117"/>
<text text-anchor="middle" x="1770.85" y="-84.7117" font-family="Times New Roman,serif" font-size="9.00">&#45;19</text>
</g>
<!-- &#45;19&#45;&gt;0 -->
<g id="edge71" class="edge"><title>&#45;19&#45;&gt;0</title>
<path fill="none" stroke="green" stroke-width="0.384931" d="M1764.07,-77.7368C1759.9,-73.3274 1754.15,-68.2741 1747.85,-65.6985 1614.15,-11.0224 1242.16,-47.7598 1098.85,-29.6985 1083.52,-27.7673 1066.52,-24.4324 1053.12,-21.5192"/>
<polygon fill="green" stroke="green" stroke-width="0.384931" points="1053.75,-18.0757 1043.23,-19.308 1052.23,-24.9068 1053.75,-18.0757"/>
</g>
<!-- &#45;19&#45;&gt;1 -->
<g id="edge72" class="edge"><title>&#45;19&#45;&gt;1</title>
<path fill="none" stroke="green" stroke-width="0.348708" d="M1764.05,-77.7845C1759.87,-73.391 1754.12,-68.3377 1747.85,-65.6985 1650.28,-24.6391 1378.33,-38.5649 1272.85,-29.6985 1228.94,-26.0081 1177.86,-21.1768 1148.06,-18.3047"/>
<polygon fill="green" stroke="green" stroke-width="0.348708" points="1148.04,-14.7857 1137.74,-17.3063 1147.36,-21.7532 1148.04,-14.7857"/>
</g>
<!-- &#45;19&#45;&gt;2 -->
<g id="edge73" class="edge"><title>&#45;19&#45;&gt;2</title>
<path fill="none" stroke="red" stroke-width="0.283908" d="M1763.59,-77.5137C1759.43,-73.2623 1753.85,-68.4344 1747.85,-65.6985 1686.36,-37.6482 1478.4,-22.0527 1405.97,-17.371"/>
<polygon fill="red" stroke="red" stroke-width="0.283908" points="1406.13,-13.874 1395.93,-16.7361 1405.69,-20.8601 1406.13,-13.874"/>
</g>
<!-- &#45;19&#45;&gt;3 -->
<g id="edge74" class="edge"><title>&#45;19&#45;&gt;3</title>
<path fill="none" stroke="green" stroke-width="0.325749" d="M1764.04,-77.8225C1759.85,-73.4416 1754.1,-68.3883 1747.85,-65.6985 1587.55,3.28817 1529.15,-57.3862 1356.85,-29.6985 1344.97,-27.7903 1331.95,-24.8847 1321.08,-22.2268"/>
<polygon fill="green" stroke="green" stroke-width="0.325749" points="1321.6,-18.7488 1311.05,-19.6976 1319.89,-25.5364 1321.6,-18.7488"/>
</g>
<!-- &#45;20 -->
<g id="node20" class="node"><title>&#45;20</title>
<polygon fill="lightgray" stroke="black" points="2174.35,-95.9117 2145.35,-95.9117 2145.35,-77.9117 2174.35,-77.9117 2174.35,-95.9117"/>
<text text-anchor="middle" x="2159.85" y="-84.7117" font-family="Times New Roman,serif" font-size="9.00">&#45;20</text>
</g>
<!-- &#45;20&#45;&gt;1 -->
<g id="edge75" class="edge"><title>&#45;20&#45;&gt;1</title>
<path fill="none" stroke="red" stroke-width="0.20618" d="M2145,-83.2511C2119.78,-78.8414 2066.92,-70.0717 2021.85,-65.6985 1690.13,-33.5103 1605.3,-53.0243 1272.85,-29.6985 1228.9,-26.6147 1177.83,-21.5916 1148.05,-18.5174"/>
<polygon fill="red" stroke="red" stroke-width="0.20618" points="1148.04,-14.9981 1137.73,-17.4427 1147.32,-21.9604 1148.04,-14.9981"/>
</g>
<!-- &#45;20&#45;&gt;2 -->
<g id="edge76" class="edge"><title>&#45;20&#45;&gt;2</title>
<path fill="none" stroke="green" stroke-width="0.236889" d="M2150.91,-77.7562C2145.51,-73.3532 2138.26,-68.2999 2130.85,-65.6985 1992.77,-17.2358 1520.97,-15.4276 1406.18,-15.7235"/>
<polygon fill="green" stroke="green" stroke-width="0.236889" points="1405.91,-12.2243 1395.92,-15.7584 1405.93,-19.2242 1405.91,-12.2243"/>
</g>
<!-- &#45;20&#45;&gt;3 -->
<g id="edge77" class="edge"><title>&#45;20&#45;&gt;3</title>
<path fill="none" stroke="red" stroke-width="0.209031" d="M2150.93,-77.7008C2145.54,-73.2794 2138.29,-68.2261 2130.85,-65.6985 1967.82,-10.2945 1527.43,-53.1567 1356.85,-29.6985 1344.81,-28.0429 1331.63,-25.127 1320.7,-22.3965"/>
<polygon fill="red" stroke="red" stroke-width="0.209031" points="1321.58,-19.0082 1311.02,-19.8825 1319.82,-25.7835 1321.58,-19.0082"/>
</g>
<!-- &#45;21 -->
<g id="node21" class="node"><title>&#45;21</title>
<polygon fill="lightgray" stroke="black" points="1832.35,-95.9117 1803.35,-95.9117 1803.35,-77.9117 1832.35,-77.9117 1832.35,-95.9117"/>
<text text-anchor="middle" x="1817.85" y="-84.7117" font-family="Times New Roman,serif" font-size="9.00">&#45;21</text>
</g>
<!-- &#45;21&#45;&gt;0 -->
<g id="edge78" class="edge"><title>&#45;21&#45;&gt;0</title>
<path fill="none" stroke="red" stroke-width="0.297085" d="M1811.08,-77.728C1806.9,-73.3157 1801.15,-68.2624 1794.85,-65.6985 1651.39,-7.34236 1252.54,-48.7769 1098.85,-29.6985 1083.52,-27.7959 1066.52,-24.4618 1053.11,-21.5418"/>
<polygon fill="red" stroke="red" stroke-width="0.297085" points="1053.75,-18.0986 1043.23,-19.3239 1052.22,-24.9287 1053.75,-18.0986"/>
</g>
<!-- &#45;21&#45;&gt;1 -->
<g id="edge79" class="edge"><title>&#45;21&#45;&gt;1</title>
<path fill="none" stroke="green" stroke-width="0.23069" d="M1811.06,-77.7685C1806.88,-73.3697 1801.13,-68.3164 1794.85,-65.6985 1687.52,-20.9625 1388.75,-39.0441 1272.85,-29.6985 1228.93,-26.1571 1177.85,-21.2787 1148.06,-18.3569"/>
<polygon fill="green" stroke="green" stroke-width="0.23069" points="1148.04,-14.8379 1137.74,-17.3398 1147.35,-21.8041 1148.04,-14.8379"/>
</g>
<!-- &#45;21&#45;&gt;2 -->
<g id="edge80" class="edge"><title>&#45;21&#45;&gt;2</title>
<path fill="none" stroke="green" stroke-width="0.34075" stroke-dasharray="1,5" d="M1811.01,-77.8879C1806.81,-73.5289 1801.06,-68.4756 1794.85,-65.6985 1724.61,-34.298 1485.62,-20.676 1406.51,-16.9563"/>
<polygon fill="green" stroke="green" stroke-width="0.34075" points="1406.19,-13.438 1396.04,-16.4784 1405.87,-20.4307 1406.19,-13.438"/>
</g>
<!-- &#45;21&#45;&gt;3 -->
<g id="edge81" class="edge"><title>&#45;21&#45;&gt;3</title>
<path fill="none" stroke="red" stroke-width="0.256703" d="M1811.05,-77.7995C1806.86,-73.411 1801.11,-68.3577 1794.85,-65.6985 1704.95,-27.5322 1453.35,-44.7202 1356.85,-29.6985 1344.96,-27.8486 1331.94,-24.95 1321.07,-22.2817"/>
<polygon fill="red" stroke="red" stroke-width="0.256703" points="1321.59,-18.8041 1311.04,-19.7375 1319.87,-25.5892 1321.59,-18.8041"/>
</g>
<!-- &#45;22 -->
<g id="node22" class="node"><title>&#45;22</title>
<polygon fill="lightgray" stroke="black" points="1879.35,-95.9117 1850.35,-95.9117 1850.35,-77.9117 1879.35,-77.9117 1879.35,-95.9117"/>
<text text-anchor="middle" x="1864.85" y="-84.7117" font-family="Times New Roman,serif" font-size="9.00">&#45;22</text>
</g>
<!-- &#45;22&#45;&gt;0 -->
<g id="edge82" class="edge"><title>&#45;22&#45;&gt;0</title>
<path fill="none" stroke="red" stroke-width="0.262157" d="M1858.08,-77.7203C1853.91,-73.3054 1848.16,-68.2521 1841.85,-65.6985 1688.63,-3.66178 1262.93,-49.7942 1098.85,-29.6985 1083.52,-27.8209 1066.52,-24.4875 1053.11,-21.5615"/>
<polygon fill="red" stroke="red" stroke-width="0.262157" points="1053.75,-18.1186 1043.23,-19.3379 1052.22,-24.9478 1053.75,-18.1186"/>
</g>
<!-- &#45;22&#45;&gt;1 -->
<g id="edge83" class="edge"><title>&#45;22&#45;&gt;1</title>
<path fill="none" stroke="green" stroke-width="0.11923" d="M1858.06,-77.7552C1853.89,-73.3519 1848.14,-68.2986 1841.85,-65.6985 1724.77,-17.2847 1399.16,-39.5236 1272.85,-29.6985 1228.92,-26.2817 1177.84,-21.3639 1148.06,-18.4006"/>
<polygon fill="green" stroke="green" stroke-width="0.11923" points="1148.04,-14.8815 1137.74,-17.3678 1147.34,-21.8467 1148.04,-14.8815"/>
</g>
<!-- &#45;22&#45;&gt;2 -->
<g id="edge84" class="edge"><title>&#45;22&#45;&gt;2</title>
<path fill="none" stroke="red" stroke-width="0.472935" d="M1858.02,-77.8597C1853.83,-73.4912 1848.08,-68.4379 1841.85,-65.6985 1762.51,-30.8041 1490.48,-19.3427 1406.05,-16.5818"/>
<polygon fill="red" stroke="red" stroke-width="0.472935" points="1405.95,-13.077 1395.84,-16.2612 1405.73,-20.0736 1405.95,-13.077"/>
</g>
<!-- &#45;22&#45;&gt;3 -->
<g id="edge85" class="edge"><title>&#45;22&#45;&gt;3</title>
<path fill="none" stroke="red" stroke-width="0.478979" d="M1858.05,-77.7809C1853.87,-73.3861 1848.12,-68.3328 1841.85,-65.6985 1742.2,-23.8569 1463.7,-45.8991 1356.85,-29.6985 1344.96,-27.8956 1331.93,-25.0028 1321.06,-22.3261"/>
<polygon fill="red" stroke="red" stroke-width="0.478979" points="1321.59,-18.8488 1311.04,-19.7698 1319.86,-25.6318 1321.59,-18.8488"/>
</g>
<!-- &#45;23 -->
<g id="node23" class="node"><title>&#45;23</title>
<polygon fill="lightgray" stroke="black" points="1926.35,-95.9117 1897.35,-95.9117 1897.35,-77.9117 1926.35,-77.9117 1926.35,-95.9117"/>
<text text-anchor="middle" x="1911.85" y="-84.7117" font-family="Times New Roman,serif" font-size="9.00">&#45;23</text>
</g>
<!-- &#45;23&#45;&gt;0 -->
<g id="edge86" class="edge"><title>&#45;23&#45;&gt;0</title>
<path fill="none" stroke="green" stroke-width="0.130556" d="M1905.08,-77.7135C1900.91,-73.2963 1895.16,-68.243 1888.85,-65.6985 1725.86,0.0192324 1273.31,-50.8116 1098.85,-29.6985 1083.52,-27.8429 1066.52,-24.5101 1053.11,-21.5789"/>
<polygon fill="green" stroke="green" stroke-width="0.130556" points="1053.75,-18.1362 1043.23,-19.3502 1052.21,-24.9647 1053.75,-18.1362"/>
</g>
<!-- &#45;23&#45;&gt;1 -->
<g id="edge87" class="edge"><title>&#45;23&#45;&gt;1</title>
<path fill="none" stroke="green" stroke-width="0.416754" d="M1905.07,-77.7438C1900.89,-73.3368 1895.14,-68.2835 1888.85,-65.6985 1762.01,-13.6059 1409.58,-40.0033 1272.85,-29.6985 1228.91,-26.3873 1177.84,-21.4361 1148.05,-18.4377"/>
<polygon fill="green" stroke="green" stroke-width="0.416754" points="1148.04,-14.9185 1137.74,-17.3916 1147.33,-21.8828 1148.04,-14.9185"/>
</g>
<!-- &#45;23&#45;&gt;2 -->
<g id="edge88" class="edge"><title>&#45;23&#45;&gt;2</title>
<path fill="none" stroke="green" stroke-width="0.459702" d="M1905.03,-77.8365C1900.84,-73.4604 1895.09,-68.4071 1888.85,-65.6985 1800.47,-27.3483 1495.76,-18.1826 1405.95,-16.2913"/>
<polygon fill="green" stroke="green" stroke-width="0.459702" points="1405.93,-12.7904 1395.86,-16.091 1405.79,-19.789 1405.93,-12.7904"/>
</g>
<!-- &#45;23&#45;&gt;3 -->
<g id="edge89" class="edge"><title>&#45;23&#45;&gt;3</title>
<path fill="none" stroke="green" stroke-width="0.299189" d="M1905.06,-77.7655C1900.88,-73.3657 1895.13,-68.3124 1888.85,-65.6985 1779.45,-20.1801 1474.06,-47.0785 1356.85,-29.6985 1344.95,-27.9344 1331.92,-25.0463 1321.06,-22.3626"/>
<polygon fill="green" stroke="green" stroke-width="0.299189" points="1321.59,-18.8857 1311.03,-19.7964 1319.85,-25.667 1321.59,-18.8857"/>
</g>
<!-- &#45;24 -->
<g id="node24" class="node"><title>&#45;24</title>
<polygon fill="lightgray" stroke="black" points="503.348,-95.9117 474.348,-95.9117 474.348,-77.9117 503.348,-77.9117 503.348,-95.9117"/>
<text text-anchor="middle" x="488.848" y="-84.7117" font-family="Times New Roman,serif" font-size="9.00">&#45;24</text>
</g>
<!-- &#45;24&#45;&gt;0 -->
<g id="edge90" class="edge"><title>&#45;24&#45;&gt;0</title>
<path fill="none" stroke="red" stroke-width="0.37305" d="M495.665,-77.8326C499.854,-73.4551 505.604,-68.4018 511.848,-65.6985 601.812,-26.7514 911.909,-18.0028 1003.31,-16.2507"/>
<polygon fill="red" stroke="red" stroke-width="0.37305" points="1003.63,-19.7455 1013.57,-16.0663 1003.51,-12.7466 1003.63,-19.7455"/>
</g>
<!-- &#45;24&#45;&gt;1 -->
<g id="edge91" class="edge"><title>&#45;24&#45;&gt;1</title>
<path fill="none" stroke="red" stroke-width="0.111497" d="M495.636,-77.7629C499.815,-73.3621 505.565,-68.3088 511.848,-65.6985 623.118,-19.4759 933.391,-45.4235 1052.85,-29.6985 1068.16,-27.6828 1085.16,-24.3458 1098.57,-21.4524"/>
<polygon fill="red" stroke="red" stroke-width="0.111497" points="1099.45,-24.8422 1108.46,-19.2609 1097.94,-18.0081 1099.45,-24.8422"/>
</g>
<!-- &#45;24&#45;&gt;2 -->
<g id="edge92" class="edge"><title>&#45;24&#45;&gt;2</title>
<path fill="none" stroke="red" stroke-width="0.139787" stroke-dasharray="1,5" d="M495.614,-77.711C499.786,-73.2929 505.536,-68.2396 511.848,-65.6985 678.784,1.50741 1142.55,-54.0363 1320.85,-29.6985 1332.89,-28.055 1346.07,-25.1405 1357,-22.4077"/>
<polygon fill="red" stroke="red" stroke-width="0.139787" points="1357.88,-25.7944 1366.68,-19.8907 1356.12,-19.0196 1357.88,-25.7944"/>
</g>
<!-- &#45;24&#45;&gt;3 -->
<g id="edge93" class="edge"><title>&#45;24&#45;&gt;3</title>
<path fill="none" stroke="green" stroke-width="0.375858" d="M495.626,-77.7397C499.802,-73.3313 505.552,-68.278 511.848,-65.6985 642.637,-12.1185 1005.9,-40.1972 1146.85,-29.6985 1190.79,-26.4256 1241.86,-21.4623 1271.65,-18.4511"/>
<polygon fill="green" stroke="green" stroke-width="0.375858" points="1272.37,-21.8959 1281.96,-17.4002 1271.66,-14.9319 1272.37,-21.8959"/>
</g>
<!-- &#45;25 -->
<g id="node25" class="node"><title>&#45;25</title>
<polygon fill="lightgray" stroke="black" points="550.348,-95.9117 521.348,-95.9117 521.348,-77.9117 550.348,-77.9117 550.348,-95.9117"/>
<text text-anchor="middle" x="535.848" y="-84.7117" font-family="Times New Roman,serif" font-size="9.00">&#45;25</text>
</g>
<!-- &#45;25&#45;&gt;0 -->
<g id="edge94" class="edge"><title>&#45;25&#45;&gt;0</title>
<path fill="none" stroke="red" stroke-width="0.134379" d="M542.675,-77.8549C546.867,-73.4849 552.617,-68.4316 558.848,-65.6985 640.016,-30.0983 918.889,-19.0835 1003.99,-16.5118"/>
<polygon fill="red" stroke="red" stroke-width="0.134379" points="1004.14,-20.0091 1014.03,-16.221 1003.93,-13.0121 1004.14,-20.0091"/>
</g>
<!-- &#45;25&#45;&gt;1 -->
<g id="edge95" class="edge"><title>&#45;25&#45;&gt;1</title>
<path fill="none" stroke="red" stroke-width="0.360097" d="M542.642,-77.7777C546.823,-73.3819 552.573,-68.3286 558.848,-65.6985 660.362,-23.153 943.767,-44.4074 1052.85,-29.6985 1068.15,-27.6345 1085.15,-24.2963 1098.57,-21.4144"/>
<polygon fill="red" stroke="red" stroke-width="0.360097" points="1099.44,-24.8054 1108.46,-19.234 1097.94,-17.9696 1099.44,-24.8054"/>
</g>
<!-- &#45;25&#45;&gt;2 -->
<g id="edge96" class="edge"><title>&#45;25&#45;&gt;2</title>
<path fill="none" stroke="red" stroke-width="0.132841" d="M542.617,-77.7174C546.79,-73.3016 552.54,-68.2483 558.848,-65.6985 716.018,-2.17376 1152.92,-52.8552 1320.85,-29.6985 1332.89,-28.0385 1346.06,-25.1221 1357,-22.3924"/>
<polygon fill="red" stroke="red" stroke-width="0.132841" points="1357.88,-25.7796 1366.68,-19.8795 1356.12,-19.004 1357.88,-25.7796"/>
</g>
<!-- &#45;25&#45;&gt;3 -->
<g id="edge97" class="edge"><title>&#45;25&#45;&gt;3</title>
<path fill="none" stroke="green" stroke-width="0.189373" d="M542.63,-77.7504C546.808,-73.3455 552.558,-68.2922 558.848,-65.6985 679.876,-15.7976 1016.32,-39.7175 1146.85,-29.6985 1190.78,-26.3264 1241.85,-21.3945 1271.64,-18.4163"/>
<polygon fill="green" stroke="green" stroke-width="0.189373" points="1272.36,-21.862 1281.96,-17.3779 1271.66,-14.8972 1272.36,-21.862"/>
</g>
<!-- &#45;26 -->
<g id="node26" class="node"><title>&#45;26</title>
<polygon fill="lightgray" stroke="black" points="597.348,-95.9117 568.348,-95.9117 568.348,-77.9117 597.348,-77.9117 597.348,-95.9117"/>
<text text-anchor="middle" x="582.848" y="-84.7117" font-family="Times New Roman,serif" font-size="9.00">&#45;26</text>
</g>
<!-- &#45;26&#45;&gt;0 -->
<g id="edge98" class="edge"><title>&#45;26&#45;&gt;0</title>
<path fill="none" stroke="green" stroke-width="0.113914" d="M589.687,-77.8821C593.883,-73.5211 599.633,-68.4678 605.848,-65.6985 677.939,-33.5783 923.906,-20.3649 1003.66,-16.8604"/>
<polygon fill="green" stroke="green" stroke-width="0.113914" points="1003.93,-20.3521 1013.78,-16.4294 1003.64,-13.3584 1003.93,-20.3521"/>
</g>
<!-- &#45;26&#45;&gt;1 -->
<g id="edge99" class="edge"><title>&#45;26&#45;&gt;1</title>
<path fill="none" stroke="red" stroke-width="0.611276" stroke-dasharray="1,5" d="M589.649,-77.7956C593.833,-73.4058 599.583,-68.3525 605.848,-65.6985 697.61,-26.8285 954.139,-43.3918 1052.85,-29.6985 1068.15,-27.5763 1085.15,-24.2365 1098.56,-21.3684"/>
<polygon fill="red" stroke="red" stroke-width="0.611276" points="1099.43,-24.7608 1108.45,-19.2016 1097.93,-17.9229 1099.43,-24.7608"/>
</g>
<!-- &#45;26&#45;&gt;2 -->
<g id="edge100" class="edge"><title>&#45;26&#45;&gt;2</title>
<path fill="none" stroke="green" stroke-width="0.185325" d="M589.62,-77.7248C593.794,-73.3114 599.544,-68.2581 605.848,-65.6985 753.254,-5.85452 1163.28,-51.6743 1320.85,-29.6985 1332.88,-28.0199 1346.06,-25.1014 1356.99,-22.3751"/>
<polygon fill="green" stroke="green" stroke-width="0.185325" points="1357.87,-25.7628 1366.68,-19.8669 1356.12,-18.9865 1357.87,-25.7628"/>
</g>
<!-- &#45;26&#45;&gt;3 -->
<g id="edge101" class="edge"><title>&#45;26&#45;&gt;3</title>
<path fill="none" stroke="green" stroke-width="0.277548" stroke-dasharray="1,5" d="M589.636,-77.7629C593.815,-73.3621 599.565,-68.3088 605.848,-65.6985 717.118,-19.4759 1026.74,-39.2379 1146.85,-29.6985 1190.77,-26.21 1241.85,-21.3149 1271.64,-18.3755"/>
<polygon fill="green" stroke="green" stroke-width="0.277548" points="1272.35,-21.8222 1281.96,-17.3517 1271.66,-14.8564 1272.35,-21.8222"/>
</g>
<!-- &#45;27 -->
<g id="node27" class="node"><title>&#45;27</title>
<polygon fill="lightgray" stroke="black" points="644.348,-95.9117 615.348,-95.9117 615.348,-77.9117 644.348,-77.9117 644.348,-95.9117"/>
<text text-anchor="middle" x="629.848" y="-84.7117" font-family="Times New Roman,serif" font-size="9.00">&#45;27</text>
</g>
<!-- &#45;27&#45;&gt;0 -->
<g id="edge102" class="edge"><title>&#45;27&#45;&gt;0</title>
<path fill="none" stroke="green" stroke-width="0.134398" d="M637.101,-77.506C641.263,-73.2524 646.847,-68.4248 652.848,-65.6985 716.004,-37.0084 929.875,-21.7782 1003.61,-17.2853"/>
<polygon fill="green" stroke="green" stroke-width="0.134398" points="1004.05,-20.7657 1013.82,-16.6778 1003.63,-13.7781 1004.05,-20.7657"/>
</g>
<!-- &#45;27&#45;&gt;1 -->
<g id="edge103" class="edge"><title>&#45;27&#45;&gt;1</title>
<path fill="none" stroke="red" stroke-width="0.661007" d="M636.659,-77.8177C640.846,-73.4352 646.596,-68.3819 652.848,-65.6985 816.878,4.69443 876.162,-55.0555 1052.85,-29.6985 1068.14,-27.5044 1085.14,-24.1628 1098.55,-21.3116"/>
<polygon fill="red" stroke="red" stroke-width="0.661007" points="1099.42,-24.7057 1108.45,-19.1615 1097.93,-17.8655 1099.42,-24.7057"/>
</g>
<!-- &#45;27&#45;&gt;2 -->
<g id="edge104" class="edge"><title>&#45;27&#45;&gt;2</title>
<path fill="none" stroke="red" stroke-width="0.274258" d="M636.623,-77.7331C640.798,-73.3225 646.548,-68.2692 652.848,-65.6985 790.491,-9.5348 1173.65,-50.4936 1320.85,-29.6985 1332.88,-27.9986 1346.06,-25.0778 1356.99,-22.3554"/>
<polygon fill="red" stroke="red" stroke-width="0.274258" points="1357.87,-25.7437 1366.67,-19.8524 1356.12,-18.9665 1357.87,-25.7437"/>
</g>
<!-- &#45;27&#45;&gt;3 -->
<g id="edge105" class="edge"><title>&#45;27&#45;&gt;3</title>
<path fill="none" stroke="red" stroke-width="0.186064" d="M636.642,-77.7777C640.823,-73.3819 646.573,-68.3286 652.848,-65.6985 754.362,-23.153 1037.15,-38.7586 1146.85,-29.6985 1190.76,-26.0717 1241.84,-21.2203 1271.64,-18.327"/>
<polygon fill="red" stroke="red" stroke-width="0.186064" points="1272.34,-21.7749 1281.95,-17.3206 1271.66,-14.808 1272.34,-21.7749"/>
</g>
<!-- &#45;28 -->
<g id="node28" class="node"><title>&#45;28</title>
<polygon fill="lightgray" stroke="black" points="691.348,-95.9117 662.348,-95.9117 662.348,-77.9117 691.348,-77.9117 691.348,-95.9117"/>
<text text-anchor="middle" x="676.848" y="-84.7117" font-family="Times New Roman,serif" font-size="9.00">&#45;28</text>
</g>
<!-- &#45;28&#45;&gt;0 -->
<g id="edge106" class="edge"><title>&#45;28&#45;&gt;0</title>
<path fill="none" stroke="red" stroke-width="0.247429" d="M684.121,-77.5504C688.29,-73.3098 693.873,-68.4804 699.848,-65.6985 754.173,-40.4094 936.5,-23.3718 1003.7,-17.8191"/>
<polygon fill="red" stroke="red" stroke-width="0.247429" points="1004.13,-21.2961 1013.81,-16.9991 1003.56,-14.319 1004.13,-21.2961"/>
</g>
<!-- &#45;28&#45;&gt;1 -->
<g id="edge107" class="edge"><title>&#45;28&#45;&gt;1</title>
<path fill="none" stroke="red" stroke-width="0.21787" d="M683.671,-77.8455C687.862,-73.4723 693.612,-68.419 699.848,-65.6985 844.398,-2.64664 896.881,-53.0279 1052.85,-29.6985 1068.12,-27.4137 1085.12,-24.0697 1098.54,-21.24"/>
<polygon fill="red" stroke="red" stroke-width="0.21787" points="1099.4,-24.6362 1108.44,-19.111 1097.93,-17.7928 1099.4,-24.6362"/>
</g>
<!-- &#45;28&#45;&gt;2 -->
<g id="edge108" class="edge"><title>&#45;28&#45;&gt;2</title>
<path fill="none" stroke="red" stroke-width="0.136747" d="M683.627,-77.7427C687.804,-73.3353 693.554,-68.282 699.848,-65.6985 827.729,-13.2145 1184.02,-49.3131 1320.85,-29.6985 1332.88,-27.9741 1346.05,-25.0506 1356.99,-22.3327"/>
<polygon fill="red" stroke="red" stroke-width="0.136747" points="1357.86,-25.7217 1366.67,-19.8358 1356.11,-18.9434 1357.86,-25.7217"/>
</g>
<!-- &#45;28&#45;&gt;3 -->
<g id="edge109" class="edge"><title>&#45;28&#45;&gt;3</title>
<path fill="none" stroke="red" stroke-width="0.682662" d="M683.649,-77.7956C687.833,-73.4058 693.583,-68.3525 699.848,-65.6985 791.61,-26.8285 1047.56,-38.2796 1146.85,-29.6985 1190.75,-25.9045 1241.83,-21.106 1271.63,-18.2683"/>
<polygon fill="red" stroke="red" stroke-width="0.682662" points="1272.33,-21.7177 1281.95,-17.283 1271.66,-14.7494 1272.33,-21.7177"/>
</g>
<!-- &#45;29 -->
<g id="node29" class="node"><title>&#45;29</title>
<polygon fill="lightgray" stroke="black" points="738.348,-95.9117 709.348,-95.9117 709.348,-77.9117 738.348,-77.9117 738.348,-95.9117"/>
<text text-anchor="middle" x="723.848" y="-84.7117" font-family="Times New Roman,serif" font-size="9.00">&#45;29</text>
</g>
<!-- &#45;29&#45;&gt;0 -->
<g id="edge110" class="edge"><title>&#45;29&#45;&gt;0</title>
<path fill="none" stroke="red" stroke-width="0.266888" d="M731.149,-77.6088C735.325,-73.3853 740.907,-68.5537 746.848,-65.6985 834.52,-23.5667 952.892,-16.7174 1003.83,-15.8296"/>
<polygon fill="red" stroke="red" stroke-width="0.266888" points="1003.96,-19.3286 1013.92,-15.7189 1003.88,-12.329 1003.96,-19.3286"/>
</g>
<!-- &#45;29&#45;&gt;1 -->
<g id="edge111" class="edge"><title>&#45;29&#45;&gt;1</title>
<path fill="none" stroke="green" stroke-width="0.286336" d="M730.687,-77.8816C734.883,-73.5205 740.633,-68.4672 746.848,-65.6985 871.938,-9.979 917.578,-51.0035 1052.85,-29.6985 1068.11,-27.2956 1085.1,-23.9485 1098.53,-21.1467"/>
<polygon fill="green" stroke="green" stroke-width="0.286336" points="1099.37,-24.5456 1108.43,-19.0452 1097.92,-17.6982 1099.37,-24.5456"/>
</g>
<!-- &#45;29&#45;&gt;2 -->
<g id="edge112" class="edge"><title>&#45;29&#45;&gt;2</title>
<path fill="none" stroke="green" stroke-width="0.359635" d="M730.632,-77.7539C734.81,-73.3502 740.56,-68.2969 746.848,-65.6985 864.969,-16.8934 1194.38,-48.1328 1320.85,-29.6985 1332.87,-27.9457 1346.05,-25.0189 1356.98,-22.3063"/>
<polygon fill="green" stroke="green" stroke-width="0.359635" points="1357.85,-25.6962 1366.67,-19.8165 1356.11,-18.9166 1357.85,-25.6962"/>
</g>
<!-- &#45;29&#45;&gt;3 -->
<g id="edge113" class="edge"><title>&#45;29&#45;&gt;3</title>
<path fill="none" stroke="green" stroke-width="0.207157" d="M730.659,-77.8177C734.846,-73.4352 740.596,-68.3819 746.848,-65.6985 828.863,-30.502 1057.97,-37.8011 1146.85,-29.6985 1190.73,-25.6983 1241.82,-20.965 1271.62,-18.196"/>
<polygon fill="green" stroke="green" stroke-width="0.207157" points="1272.31,-21.6472 1281.95,-17.2366 1271.67,-14.6773 1272.31,-21.6472"/>
</g>
<!-- &#45;30 -->
<g id="node30" class="node"><title>&#45;30</title>
<polygon fill="lightgray" stroke="black" points="785.348,-95.9117 756.348,-95.9117 756.348,-77.9117 785.348,-77.9117 785.348,-95.9117"/>
<text text-anchor="middle" x="770.848" y="-84.7117" font-family="Times New Roman,serif" font-size="9.00">&#45;30</text>
</g>
<!-- &#45;30&#45;&gt;0 -->
<g id="edge114" class="edge"><title>&#45;30&#45;&gt;0</title>
<path fill="none" stroke="red" stroke-width="0.163001" d="M778.188,-77.6892C782.376,-73.4892 787.957,-68.6545 793.848,-65.6985 864.47,-30.2674 959.262,-19.9768 1003.78,-17.0209"/>
<polygon fill="red" stroke="red" stroke-width="0.163001" points="1004.19,-20.5026 1013.97,-16.4166 1003.78,-13.5149 1004.19,-20.5026"/>
</g>
<!-- &#45;30&#45;&gt;1 -->
<g id="edge115" class="edge"><title>&#45;30&#45;&gt;1</title>
<path fill="none" stroke="green" stroke-width="0.171153" d="M778.107,-77.5211C782.272,-73.2719 787.856,-68.4437 793.848,-65.6985 899.508,-17.2978 938.242,-48.9844 1052.85,-29.6985 1068.08,-27.1355 1085.08,-23.7842 1098.51,-21.0204"/>
<polygon fill="green" stroke="green" stroke-width="0.171153" points="1099.34,-24.4227 1108.41,-18.956 1097.91,-17.5699 1099.34,-24.4227"/>
</g>
<!-- &#45;30&#45;&gt;2 -->
<g id="edge116" class="edge"><title>&#45;30&#45;&gt;2</title>
<path fill="none" stroke="red" stroke-width="0.326912" d="M777.637,-77.767C781.817,-73.3677 787.567,-68.3144 793.848,-65.6985 902.212,-20.5713 1204.74,-46.953 1320.85,-29.6985 1332.74,-27.9306 1345.77,-25.042 1356.64,-22.3591"/>
<polygon fill="red" stroke="red" stroke-width="0.326912" points="1357.84,-25.6636 1366.67,-19.7938 1356.11,-18.882 1357.84,-25.6636"/>
</g>
<!-- &#45;30&#45;&gt;3 -->
<g id="edge117" class="edge"><title>&#45;30&#45;&gt;3</title>
<path fill="none" stroke="green" stroke-width="0.255206" d="M777.668,-77.8388C781.858,-73.4634 787.608,-68.4101 793.848,-65.6985 799.412,-63.281 1170.93,-27.8212 1271.81,-18.2273"/>
<polygon fill="green" stroke="green" stroke-width="0.255206" points="1272.36,-21.6912 1281.98,-17.2605 1271.69,-14.7226 1272.36,-21.6912"/>
</g>
<!-- &#45;31 -->
<g id="node31" class="node"><title>&#45;31</title>
<polygon fill="lightgray" stroke="black" points="832.348,-95.9117 803.348,-95.9117 803.348,-77.9117 832.348,-77.9117 832.348,-95.9117"/>
<text text-anchor="middle" x="817.848" y="-84.7117" font-family="Times New Roman,serif" font-size="9.00">&#45;31</text>
</g>
<!-- &#45;31&#45;&gt;0 -->
<g id="edge118" class="edge"><title>&#45;31&#45;&gt;0</title>
<path fill="none" stroke="red" stroke-width="0.349112" d="M825.249,-77.8063C829.455,-73.6407 835.033,-68.8013 840.848,-65.6985 894.944,-36.8382 966.881,-23.8398 1004.14,-18.7213"/>
<polygon fill="red" stroke="red" stroke-width="0.349112" points="1004.64,-22.1857 1014.1,-17.4282 1003.74,-15.2439 1004.64,-22.1857"/>
</g>
<!-- &#45;31&#45;&gt;1 -->
<g id="edge119" class="edge"><title>&#45;31&#45;&gt;1</title>
<path fill="none" stroke="red" stroke-width="0.269352" d="M825.141,-77.5928C829.315,-73.3646 834.898,-68.5336 840.848,-65.6985 927.128,-24.5935 958.852,-46.9745 1052.85,-29.6985 1068.04,-26.9066 1085.04,-23.5494 1098.48,-20.8397"/>
<polygon fill="red" stroke="red" stroke-width="0.269352" points="1099.29,-24.2467 1108.39,-18.8285 1097.9,-17.3864 1099.29,-24.2467"/>
</g>
<!-- &#45;31&#45;&gt;2 -->
<g id="edge120" class="edge"><title>&#45;31&#45;&gt;2</title>
<path fill="none" stroke="red" stroke-width="0.426546" d="M824.644,-77.7827C828.826,-73.3886 834.576,-68.3353 840.848,-65.6985 939.457,-24.248 1215.1,-45.7736 1320.85,-29.6985 1332.74,-27.8911 1345.77,-24.9976 1356.63,-22.3218"/>
<polygon fill="red" stroke="red" stroke-width="0.426546" points="1357.83,-25.6277 1366.66,-19.7667 1356.11,-18.8445 1357.83,-25.6277"/>
</g>
<!-- &#45;31&#45;&gt;3 -->
<g id="edge121" class="edge"><title>&#45;31&#45;&gt;3</title>
<path fill="none" stroke="red" stroke-width="0.311983" d="M824.678,-77.8624C828.872,-73.4949 834.622,-68.4416 840.848,-65.6985 860.786,-56.9156 1179.9,-26.7174 1272.09,-18.1386"/>
<polygon fill="red" stroke="red" stroke-width="0.311983" points="1272.54,-21.6121 1282.17,-17.2025 1271.89,-14.6421 1272.54,-21.6121"/>
</g>
<!-- &#45;32 -->
<g id="node32" class="node"><title>&#45;32</title>
<polygon fill="lightgray" stroke="black" points="2242.35,-240.551 2213.35,-240.551 2213.35,-222.551 2242.35,-222.551 2242.35,-240.551"/>
<text text-anchor="middle" x="2227.85" y="-229.351" font-family="Times New Roman,serif" font-size="9.00">&#45;32</text>
</g>
<!-- &#45;32&#45;&gt;0 -->
<g id="edge122" class="edge"><title>&#45;32&#45;&gt;0</title>
<path fill="none" stroke="green" stroke-width="0.259995" d="M2213.09,-230.608C2039.32,-231.233 386.174,-235.852 175.848,-186.551 96.0131,-167.838 52.8127,-177.342 8.84849,-108.125 -1.26131,-92.208 -4.15534,-79.3534 8.84849,-65.6985 44.2234,-28.5525 849.435,-17.8268 1003.5,-16.1117"/>
<polygon fill="green" stroke="green" stroke-width="0.259995" points="1003.86,-19.6081 1013.82,-15.9995 1003.78,-12.6085 1003.86,-19.6081"/>
</g>
<!-- &#45;32&#45;&gt;1 -->
<g id="edge123" class="edge"><title>&#45;32&#45;&gt;1</title>
<path fill="none" stroke="green" stroke-width="0.128617" d="M2213.2,-230.137C2044.32,-225.29 470.454,-178.284 404.848,-108.125 391.97,-94.3521 391.89,-79.3966 404.848,-65.6985 454.404,-13.3132 981.304,-38.7183 1052.85,-29.6985 1068.17,-27.7666 1085.17,-24.4318 1098.58,-21.5186"/>
<polygon fill="green" stroke="green" stroke-width="0.128617" points="1099.47,-24.9063 1108.47,-19.3076 1097.94,-18.0752 1099.47,-24.9063"/>
</g>
<!-- &#45;32&#45;&gt;2 -->
<g id="edge124" class="edge"><title>&#45;32&#45;&gt;2</title>
<path fill="none" stroke="red" stroke-width="0.298012" d="M2240.75,-222.495C2279.52,-197.358 2389.33,-118.873 2338.85,-65.6985 2305.78,-30.861 1554.06,-18.3265 1406.03,-16.192"/>
<polygon fill="red" stroke="red" stroke-width="0.298012" points="1405.76,-12.6879 1395.71,-16.0461 1405.66,-19.6872 1405.76,-12.6879"/>
</g>
<!-- &#45;32&#45;&gt;3 -->
<g id="edge125" class="edge"><title>&#45;32&#45;&gt;3</title>
<path fill="none" stroke="red" stroke-width="0.28796" d="M2213.27,-229.215C2187.29,-226.121 2132.57,-216.287 2098.85,-186.551 2054.02,-147.019 2089.69,-98.6867 2039.85,-65.6985 1976.48,-23.7568 1432.1,-40.2844 1356.85,-29.6985 1344.81,-28.0057 1331.64,-25.0856 1320.71,-22.362"/>
<polygon fill="red" stroke="red" stroke-width="0.28796" points="1321.58,-18.9731 1311.02,-19.8573 1319.83,-25.7501 1321.58,-18.9731"/>
</g>
<!-- 624 -->
<g id="node45" class="node"><title>624</title>
<ellipse fill="white" stroke="black" cx="2463.85" cy="-165.338" rx="21.4286" ry="21.4286"/>
<text text-anchor="middle" x="2463.85" y="-163.138" font-family="Times New Roman,serif" font-size="9.00">624</text>
</g>
<!-- &#45;32&#45;&gt;624 -->
<g id="edge163" class="edge"><title>&#45;32&#45;&gt;624</title>
<path fill="none" stroke="green" stroke-width="0.3" d="M2242.42,-228.923C2276.17,-224.822 2361.9,-212.49 2428.85,-186.551 2431.76,-185.422 2434.73,-184.073 2437.63,-182.615"/>
<polygon fill="green" stroke="green" stroke-width="0.3" points="2439.48,-185.593 2446.57,-177.725 2436.12,-179.452 2439.48,-185.593"/>
</g>
<!-- 606 -->
<g id="node48" class="node"><title>606</title>
<ellipse fill="white" stroke="black" cx="2425.85" cy="-86.9117" rx="21.4286" ry="21.4286"/>
<text text-anchor="middle" x="2425.85" y="-84.7117" font-family="Times New Roman,serif" font-size="9.00">606</text>
</g>
<!-- &#45;32&#45;&gt;606 -->
<g id="edge161" class="edge"><title>&#45;32&#45;&gt;606</title>
<path fill="none" stroke="green" stroke-width="0.3" stroke-dasharray="1,5" d="M2242.6,-230.87C2274.04,-230.735 2348.25,-225.973 2390.85,-186.551 2409.87,-168.944 2418.56,-140.329 2422.53,-118.443"/>
<polygon fill="green" stroke="green" stroke-width="0.3" points="2426.03,-118.739 2424.12,-108.317 2419.11,-117.652 2426.03,-118.739"/>
</g>
<!-- &#45;33 -->
<g id="node33" class="node"><title>&#45;33</title>
<polygon fill="lightgray" stroke="black" points="879.348,-95.9117 850.348,-95.9117 850.348,-77.9117 879.348,-77.9117 879.348,-95.9117"/>
<text text-anchor="middle" x="864.848" y="-84.7117" font-family="Times New Roman,serif" font-size="9.00">&#45;33</text>
</g>
<!-- &#45;33&#45;&gt;0 -->
<g id="edge126" class="edge"><title>&#45;33&#45;&gt;0</title>
<path fill="none" stroke="red" stroke-width="0.4526" stroke-dasharray="1,5" d="M872.766,-77.5912C876.948,-73.5687 882.346,-68.9256 887.848,-65.6985 925.947,-43.3548 975.671,-28.6947 1004.75,-21.3726"/>
<polygon fill="red" stroke="red" stroke-width="0.4526" points="1005.58,-24.7727 1014.47,-19.0063 1003.92,-17.9713 1005.58,-24.7727"/>
</g>
<!-- &#45;33&#45;&gt;1 -->
<g id="edge127" class="edge"><title>&#45;33&#45;&gt;1</title>
<path fill="none" stroke="green" stroke-width="0.326818" d="M872.188,-77.6892C876.376,-73.4892 881.957,-68.6545 887.848,-65.6985 897.324,-60.9447 1040.02,-32.2915 1098.31,-20.7053"/>
<polygon fill="green" stroke="green" stroke-width="0.326818" points="1099.04,-24.1298 1108.17,-18.7501 1097.68,-17.2636 1099.04,-24.1298"/>
</g>
<!-- &#45;33&#45;&gt;2 -->
<g id="edge128" class="edge"><title>&#45;33&#45;&gt;2</title>
<path fill="none" stroke="red" stroke-width="0.313" d="M871.652,-77.8017C875.836,-73.4139 881.586,-68.3606 887.848,-65.6985 976.706,-27.923 1225.45,-44.5949 1320.85,-29.6985 1332.73,-27.843 1345.76,-24.9437 1356.63,-22.2764"/>
<polygon fill="red" stroke="red" stroke-width="0.313" points="1357.82,-25.5841 1366.66,-19.7337 1356.1,-18.7988 1357.82,-25.5841"/>
</g>
<!-- &#45;33&#45;&gt;3 -->
<g id="edge129" class="edge"><title>&#45;33&#45;&gt;3</title>
<path fill="none" stroke="green" stroke-width="0.1465" d="M871.691,-77.8913C875.889,-73.5334 881.639,-68.4801 887.848,-65.6985 922.992,-49.9563 1188.39,-25.4277 1271.82,-18.0318"/>
<polygon fill="green" stroke="green" stroke-width="0.1465" points="1272.27,-21.5061 1281.92,-17.1415 1271.66,-14.5331 1272.27,-21.5061"/>
</g>
<!-- &#45;34 -->
<g id="node34" class="node"><title>&#45;34</title>
<polygon fill="lightgray" stroke="black" points="926.348,-95.9117 897.348,-95.9117 897.348,-77.9117 926.348,-77.9117 926.348,-95.9117"/>
<text text-anchor="middle" x="911.848" y="-84.7117" font-family="Times New Roman,serif" font-size="9.00">&#45;34</text>
</g>
<!-- &#45;34&#45;&gt;0 -->
<g id="edge130" class="edge"><title>&#45;34&#45;&gt;0</title>
<path fill="none" stroke="red" stroke-width="0.254207" d="M920.408,-77.5316C924.576,-73.6809 929.774,-69.2022 934.848,-65.6985 957.89,-49.7894 986.6,-35.2435 1006.19,-26.024"/>
<polygon fill="red" stroke="red" stroke-width="0.254207" points="1007.91,-29.0824 1015.52,-21.7093 1004.98,-22.7285 1007.91,-29.0824"/>
</g>
<!-- &#45;34&#45;&gt;1 -->
<g id="edge131" class="edge"><title>&#45;34&#45;&gt;1</title>
<path fill="none" stroke="green" stroke-width="0.223973" d="M919.249,-77.8063C923.455,-73.6407 929.033,-68.8013 934.848,-65.6985 963.403,-50.4642 1054.61,-30.094 1098.63,-20.8215"/>
<polygon fill="green" stroke="green" stroke-width="0.223973" points="1099.42,-24.2321 1108.49,-18.7633 1097.99,-17.3797 1099.42,-24.2321"/>
</g>
<!-- &#45;34&#45;&gt;2 -->
<g id="edge132" class="edge"><title>&#45;34&#45;&gt;2</title>
<path fill="none" stroke="green" stroke-width="0.318421" d="M918.662,-77.8252C922.85,-73.4453 928.6,-68.392 934.848,-65.6985 1093.07,2.50701 1150.75,-57.1357 1320.85,-29.6985 1332.72,-27.7833 1345.75,-24.8768 1356.62,-22.2202"/>
<polygon fill="green" stroke="green" stroke-width="0.318421" points="1357.81,-25.53 1366.65,-19.6928 1356.1,-18.7421 1357.81,-25.53"/>
</g>
<!-- &#45;34&#45;&gt;3 -->
<g id="edge133" class="edge"><title>&#45;34&#45;&gt;3</title>
<path fill="none" stroke="green" stroke-width="0.136687" stroke-dasharray="1,5" d="M919.106,-77.5181C923.27,-73.268 928.854,-68.4399 934.848,-65.6985 965.505,-51.6788 1194.79,-26.5764 1271.75,-18.4586"/>
<polygon fill="green" stroke="green" stroke-width="0.136687" points="1272.38,-21.9121 1281.96,-17.3874 1271.65,-14.9503 1272.38,-21.9121"/>
</g>
<!-- &#45;35 -->
<g id="node35" class="node"><title>&#45;35</title>
<polygon fill="lightgray" stroke="black" points="973.348,-95.9117 944.348,-95.9117 944.348,-77.9117 973.348,-77.9117 973.348,-95.9117"/>
<text text-anchor="middle" x="958.848" y="-84.7117" font-family="Times New Roman,serif" font-size="9.00">&#45;35</text>
</g>
<!-- &#45;35&#45;&gt;0 -->
<g id="edge134" class="edge"><title>&#45;35&#45;&gt;0</title>
<path fill="none" stroke="red" stroke-width="0.175175" d="M966.878,-77.8746C977.665,-67.0781 997.124,-47.6015 1011.37,-33.3456"/>
<polygon fill="red" stroke="red" stroke-width="0.175175" points="1014.06,-35.599 1018.66,-26.051 1009.11,-30.6514 1014.06,-35.599"/>
</g>
<!-- &#45;35&#45;&gt;1 -->
<g id="edge135" class="edge"><title>&#45;35&#45;&gt;1</title>
<path fill="none" stroke="red" stroke-width="0.30889" d="M966.766,-77.5912C970.948,-73.5687 976.346,-68.9256 981.848,-65.6985 1019.95,-43.3548 1069.67,-28.6947 1098.75,-21.3726"/>
<polygon fill="red" stroke="red" stroke-width="0.30889" points="1099.58,-24.7727 1108.47,-19.0063 1097.92,-17.9713 1099.58,-24.7727"/>
</g>
<!-- &#45;35&#45;&gt;2 -->
<g id="edge136" class="edge"><title>&#45;35&#45;&gt;2</title>
<path fill="none" stroke="green" stroke-width="0.185643" stroke-dasharray="1,5" d="M965.675,-77.8552C969.867,-73.4853 975.617,-68.432 981.848,-65.6985 1120.6,-4.83183 1171.43,-54.7827 1320.85,-29.6985 1332.71,-27.7073 1345.73,-24.7917 1356.61,-22.1486"/>
<polygon fill="green" stroke="green" stroke-width="0.185643" points="1357.79,-25.461 1366.64,-19.6407 1356.09,-18.6699 1357.79,-25.461"/>
</g>
<!-- &#45;35&#45;&gt;3 -->
<g id="edge137" class="edge"><title>&#45;35&#45;&gt;3</title>
<path fill="none" stroke="red" stroke-width="0.151997" d="M966.128,-77.566C970.299,-73.33 975.882,-68.5001 981.848,-65.6985 1033.61,-41.3957 1206.91,-23.8585 1271.92,-17.9902"/>
<polygon fill="red" stroke="red" stroke-width="0.151997" points="1272.42,-21.4596 1282.08,-17.0899 1271.81,-14.487 1272.42,-21.4596"/>
</g>
<!-- &#45;36 -->
<g id="node36" class="node"><title>&#45;36</title>
<polygon fill="lightgray" stroke="black" points="1020.35,-95.9117 991.348,-95.9117 991.348,-77.9117 1020.35,-77.9117 1020.35,-95.9117"/>
<text text-anchor="middle" x="1005.85" y="-84.7117" font-family="Times New Roman,serif" font-size="9.00">&#45;36</text>
</g>
<!-- &#45;36&#45;&gt;0 -->
<g id="edge138" class="edge"><title>&#45;36&#45;&gt;0</title>
<path fill="none" stroke="red" stroke-width="0.388678" d="M1008.49,-77.8746C1011.59,-68.4226 1016.88,-52.3178 1021.29,-38.8876"/>
<polygon fill="red" stroke="red" stroke-width="0.388678" points="1024.64,-39.886 1024.44,-29.2932 1017.99,-37.7027 1024.64,-39.886"/>
</g>
<!-- &#45;36&#45;&gt;1 -->
<g id="edge139" class="edge"><title>&#45;36&#45;&gt;1</title>
<path fill="none" stroke="red" stroke-width="0.439508" d="M1014.41,-77.5316C1018.58,-73.6809 1023.77,-69.2022 1028.85,-65.6985 1051.89,-49.7894 1080.6,-35.2435 1100.19,-26.024"/>
<polygon fill="red" stroke="red" stroke-width="0.439508" points="1101.91,-29.0824 1109.52,-21.7093 1098.98,-22.7285 1101.91,-29.0824"/>
</g>
<!-- &#45;36&#45;&gt;2 -->
<g id="edge140" class="edge"><title>&#45;36&#45;&gt;2</title>
<path fill="none" stroke="red" stroke-width="0.247479" d="M1012.69,-77.8946C1016.89,-73.5377 1022.64,-68.4844 1028.85,-65.6985 1148.15,-12.1608 1192.08,-52.4338 1320.85,-29.6985 1332.69,-27.6074 1345.71,-24.6796 1356.59,-22.0543"/>
<polygon fill="red" stroke="red" stroke-width="0.247479" points="1357.76,-25.3702 1366.63,-19.5721 1356.08,-18.5749 1357.76,-25.3702"/>
</g>
<!-- &#45;36&#45;&gt;3 -->
<g id="edge141" class="edge"><title>&#45;36&#45;&gt;3</title>
<path fill="none" stroke="red" stroke-width="0.218214" d="M1013.16,-77.63C1017.34,-73.4127 1022.92,-68.5802 1028.85,-65.6985 1071.83,-44.804 1213.82,-25.849 1271.83,-18.7801"/>
<polygon fill="red" stroke="red" stroke-width="0.218214" points="1272.44,-22.2322 1281.95,-17.5641 1271.6,-15.2822 1272.44,-22.2322"/>
</g>
<!-- &#45;37 -->
<g id="node37" class="node"><title>&#45;37</title>
<polygon fill="lightgray" stroke="black" points="1067.35,-95.9117 1038.35,-95.9117 1038.35,-77.9117 1067.35,-77.9117 1067.35,-95.9117"/>
<text text-anchor="middle" x="1052.85" y="-84.7117" font-family="Times New Roman,serif" font-size="9.00">&#45;37</text>
</g>
<!-- &#45;37&#45;&gt;0 -->
<g id="edge142" class="edge"><title>&#45;37&#45;&gt;0</title>
<path fill="none" stroke="red" stroke-width="0.414666" d="M1050.1,-77.8746C1046.84,-68.3653 1041.27,-52.1224 1036.66,-38.6437"/>
<polygon fill="red" stroke="red" stroke-width="0.414666" points="1039.92,-37.3587 1033.36,-29.0326 1033.29,-39.6272 1039.92,-37.3587"/>
</g>
<!-- &#45;37&#45;&gt;1 -->
<g id="edge143" class="edge"><title>&#45;37&#45;&gt;1</title>
<path fill="none" stroke="red" stroke-width="0.16535" d="M1060.88,-77.8746C1071.67,-67.0781 1091.12,-47.6015 1105.37,-33.3456"/>
<polygon fill="red" stroke="red" stroke-width="0.16535" points="1108.06,-35.599 1112.66,-26.051 1103.11,-30.6514 1108.06,-35.599"/>
</g>
<!-- &#45;37&#45;&gt;2 -->
<g id="edge144" class="edge"><title>&#45;37&#45;&gt;2</title>
<path fill="none" stroke="green" stroke-width="0.382628" d="M1060.12,-77.5397C1064.28,-73.296 1069.87,-68.467 1075.85,-65.6985 1175.73,-19.474 1212.7,-50.0916 1320.85,-29.6985 1332.67,-27.47 1345.69,-24.5256 1356.57,-21.9248"/>
<polygon fill="green" stroke="green" stroke-width="0.382628" points="1357.72,-25.2452 1366.61,-19.4779 1356.07,-18.4441 1357.72,-25.2452"/>
</g>
<!-- &#45;37&#45;&gt;3 -->
<g id="edge145" class="edge"><title>&#45;37&#45;&gt;3</title>
<path fill="none" stroke="red" stroke-width="0.589204" stroke-dasharray="1,5" d="M1060.2,-77.7193C1064.4,-73.5281 1069.98,-68.6922 1075.85,-65.6985 1141.61,-32.1764 1229.72,-21.0139 1272.07,-17.4431"/>
<polygon fill="red" stroke="red" stroke-width="0.589204" points="1272.34,-20.9324 1282.05,-16.6734 1271.81,-13.9532 1272.34,-20.9324"/>
</g>
<!-- &#45;38 -->
<g id="node38" class="node"><title>&#45;38</title>
<polygon fill="lightgray" stroke="black" points="1114.35,-95.9117 1085.35,-95.9117 1085.35,-77.9117 1114.35,-77.9117 1114.35,-95.9117"/>
<text text-anchor="middle" x="1099.85" y="-84.7117" font-family="Times New Roman,serif" font-size="9.00">&#45;38</text>
</g>
<!-- &#45;38&#45;&gt;0 -->
<g id="edge146" class="edge"><title>&#45;38&#45;&gt;0</title>
<path fill="none" stroke="red" stroke-width="0.48242" d="M1091.7,-77.8746C1080.76,-67.0781 1061.03,-47.6015 1046.58,-33.3456"/>
<polygon fill="red" stroke="red" stroke-width="0.48242" points="1048.76,-30.5836 1039.19,-26.051 1043.85,-35.5662 1048.76,-30.5836"/>
</g>
<!-- &#45;38&#45;&gt;1 -->
<g id="edge147" class="edge"><title>&#45;38&#45;&gt;1</title>
<path fill="none" stroke="green" stroke-width="0.517944" d="M1102.49,-77.8746C1105.59,-68.4226 1110.88,-52.3178 1115.29,-38.8876"/>
<polygon fill="green" stroke="green" stroke-width="0.517944" points="1118.64,-39.886 1118.44,-29.2932 1111.99,-37.7027 1118.64,-39.886"/>
</g>
<!-- &#45;38&#45;&gt;2 -->
<g id="edge148" class="edge"><title>&#45;38&#45;&gt;2</title>
<path fill="none" stroke="green" stroke-width="0.564895" d="M1107.15,-77.6204C1111.33,-73.4003 1116.91,-68.5682 1122.85,-65.6985 1203.37,-26.7597 1233.25,-47.7616 1320.85,-29.6985 1332.63,-27.2696 1345.64,-24.301 1356.53,-21.736"/>
<polygon fill="green" stroke="green" stroke-width="0.564895" points="1357.67,-25.0627 1366.58,-19.3405 1356.05,-18.2533 1357.67,-25.0627"/>
</g>
<!-- &#45;38&#45;&gt;3 -->
<g id="edge149" class="edge"><title>&#45;38&#45;&gt;3</title>
<path fill="none" stroke="green" stroke-width="0.257002" stroke-dasharray="1,5" d="M1107.27,-77.8522C1111.49,-73.7 1117.06,-68.8588 1122.85,-65.6985 1171.87,-38.9178 1236.71,-25.2936 1271.76,-19.4673"/>
<polygon fill="green" stroke="green" stroke-width="0.257002" points="1272.71,-22.8613 1282.04,-17.8429 1271.61,-15.9472 1272.71,-22.8613"/>
</g>
<!-- &#45;39 -->
<g id="node39" class="node"><title>&#45;39</title>
<polygon fill="lightgray" stroke="black" points="2012.35,-95.9117 1983.35,-95.9117 1983.35,-77.9117 2012.35,-77.9117 2012.35,-95.9117"/>
<text text-anchor="middle" x="1997.85" y="-84.7117" font-family="Times New Roman,serif" font-size="9.00">&#45;39</text>
</g>
<!-- &#45;39&#45;&gt;1 -->
<g id="edge150" class="edge"><title>&#45;39&#45;&gt;1</title>
<path fill="none" stroke="red" stroke-width="0.57547" d="M1983.35,-79.9892C1970.96,-75.2209 1952.54,-68.8173 1935.85,-65.6985 1645.77,-11.5029 1567.16,-51.2677 1272.85,-29.6985 1228.91,-26.478 1177.83,-21.4982 1148.05,-18.4695"/>
<polygon fill="red" stroke="red" stroke-width="0.57547" points="1148.04,-14.9503 1137.74,-17.412 1147.33,-21.9138 1148.04,-14.9503"/>
</g>
<!-- &#45;39&#45;&gt;2 -->
<g id="edge151" class="edge"><title>&#45;39&#45;&gt;2</title>
<path fill="none" stroke="green" stroke-width="0.207438" d="M1988.89,-77.8067C1983.49,-73.4206 1976.24,-68.3673 1968.85,-65.6985 1862.73,-27.3657 1503.93,-18.0932 1405.82,-16.2513"/>
<polygon fill="green" stroke="green" stroke-width="0.207438" points="1405.73,-12.7492 1395.67,-16.0702 1405.61,-19.7481 1405.73,-12.7492"/>
</g>
<!-- &#45;39&#45;&gt;3 -->
<g id="edge152" class="edge"><title>&#45;39&#45;&gt;3</title>
<path fill="none" stroke="red" stroke-width="0.395184" d="M1988.91,-77.735C1983.52,-73.325 1976.27,-68.2717 1968.85,-65.6985 1840.13,-21.0714 1491.7,-49.087 1356.85,-29.6985 1344.82,-27.969 1331.64,-25.0449 1320.71,-22.328"/>
<polygon fill="red" stroke="red" stroke-width="0.395184" points="1321.58,-18.9386 1311.03,-19.8324 1319.84,-25.7171 1321.58,-18.9386"/>
</g>
<!-- &#45;40 -->
<g id="node40" class="node"><title>&#45;40</title>
<polygon fill="lightgray" stroke="black" points="1161.35,-95.9117 1132.35,-95.9117 1132.35,-77.9117 1161.35,-77.9117 1161.35,-95.9117"/>
<text text-anchor="middle" x="1146.85" y="-84.7117" font-family="Times New Roman,serif" font-size="9.00">&#45;40</text>
</g>
<!-- &#45;40&#45;&gt;0 -->
<g id="edge153" class="edge"><title>&#45;40&#45;&gt;0</title>
<path fill="none" stroke="green" stroke-width="0.29743" d="M1137.87,-77.5602C1133.5,-73.7157 1128.09,-69.234 1122.85,-65.6985 1099.64,-50.0326 1070.96,-35.442 1051.43,-26.1454"/>
<polygon fill="green" stroke="green" stroke-width="0.29743" points="1052.66,-22.8593 1042.12,-21.7889 1049.69,-29.1989 1052.66,-22.8593"/>
</g>
<!-- &#45;40&#45;&gt;1 -->
<g id="edge154" class="edge"><title>&#45;40&#45;&gt;1</title>
<path fill="none" stroke="red" stroke-width="0.219258" d="M1144.1,-77.8746C1140.84,-68.3653 1135.27,-52.1224 1130.66,-38.6437"/>
<polygon fill="red" stroke="red" stroke-width="0.219258" points="1133.92,-37.3587 1127.36,-29.0326 1127.29,-39.6272 1133.92,-37.3587"/>
</g>
<!-- &#45;40&#45;&gt;2 -->
<g id="edge155" class="edge"><title>&#45;40&#45;&gt;2</title>
<path fill="none" stroke="red" stroke-width="0.122611" d="M1154.6,-77.7548C1159,-73.574 1164.82,-68.7367 1170.85,-65.6985 1175.05,-63.5803 1302.23,-34.0306 1356.59,-21.4526"/>
<polygon fill="red" stroke="red" stroke-width="0.122611" points="1357.48,-24.8395 1366.44,-19.1764 1355.9,-18.0195 1357.48,-24.8395"/>
</g>
<!-- &#45;40&#45;&gt;3 -->
<g id="edge156" class="edge"><title>&#45;40&#45;&gt;3</title>
<path fill="none" stroke="red" stroke-width="0.341991" stroke-dasharray="1,5" d="M1155.22,-77.6966C1159.61,-73.701 1165.24,-69.0501 1170.85,-65.6985 1204.04,-45.8747 1246.55,-30.9583 1272.73,-22.819"/>
<polygon fill="red" stroke="red" stroke-width="0.341991" points="1274,-26.0925 1282.55,-19.8456 1271.97,-19.3927 1274,-26.0925"/>
</g>
<!-- 624&#45;&gt;606 -->
<g id="edge164" class="edge"><title>624&#45;&gt;606</title>
<path fill="none" stroke="green" stroke-width="0.3" d="M2454.65,-145.837C2450.12,-136.731 2444.57,-125.569 2439.56,-115.482"/>
<polygon fill="green" stroke="green" stroke-width="0.3" points="2442.55,-113.638 2434.96,-106.242 2436.28,-116.755 2442.55,-113.638"/>
</g>
<!-- 660&#45;&gt;0 -->
<g id="edge166" class="edge"><title>660&#45;&gt;0</title>
<path fill="none" stroke="red" stroke-width="0.453752" d="M128.921,-73.9273C134.403,-70.6749 140.663,-67.545 146.848,-65.6985 313.577,-15.9277 877.642,-15.223 1003.72,-15.7059"/>
<polygon fill="red" stroke="red" stroke-width="0.453752" points="1003.9,-19.2066 1013.91,-15.7515 1003.93,-12.2067 1003.9,-19.2066"/>
</g>
<!-- 181&#45;&gt;2 -->
<g id="edge158" class="edge"><title>181&#45;&gt;2</title>
<path fill="none" stroke="red" stroke-width="0.133164" d="M2272.78,-73.9292C2267.29,-70.677 2261.03,-67.5466 2254.85,-65.6985 2089.82,-16.3879 1531.88,-15.3179 1406.16,-15.7204"/>
<polygon fill="red" stroke="red" stroke-width="0.133164" points="1405.96,-12.221 1395.98,-15.7595 1405.99,-19.2209 1405.96,-12.221"/>
</g>
<!-- 606&#45;&gt;2 -->
<g id="edge162" class="edge"><title>606&#45;&gt;2</title>
<path fill="none" stroke="red" stroke-width="0.273775" d="M2408.78,-73.9001C2403.3,-70.6466 2397.04,-67.5229 2390.85,-65.6985 2293.81,-37.1077 1552.74,-19.5903 1406.04,-16.3837"/>
<polygon fill="red" stroke="red" stroke-width="0.273775" points="1405.88,-12.8795 1395.8,-16.1622 1405.73,-19.8778 1405.88,-12.8795"/>
</g>
<!-- 479&#45;&gt;0 -->
<g id="edge160" class="edge"><title>479&#45;&gt;0</title>
<path fill="none" stroke="red" stroke-width="0.194886" d="M67.8176,-72.8553C72.1314,-69.9927 76.9646,-67.3319 81.8485,-65.6985 171.445,-35.7335 861.688,-19.4279 1003.45,-16.3767"/>
<polygon fill="red" stroke="red" stroke-width="0.194886" points="1003.81,-19.8698 1013.74,-16.1579 1003.66,-12.8714 1003.81,-19.8698"/>
</g>
</g>
</svg>
