<?xml version="1.0" encoding="UTF-8" standalone="no"?>
<!DOCTYPE svg PUBLIC "-//W3C//DTD SVG 1.1//EN"
 "http://www.w3.org/Graphics/SVG/1.1/DTD/svg11.dtd">
<!-- Generated by graphviz version 2.38.0 (20140413.2041)
 -->
<!-- Title: %3 Pages: 1 -->
<svg width="2165pt" height="170pt"
 viewBox="0.00 0.00 2165.43 170.12" xmlns="http://www.w3.org/2000/svg" xmlns:xlink="http://www.w3.org/1999/xlink">
<g id="graph0" class="graph" transform="scale(1 1) rotate(0) translate(4 166.125)">
<title>%3</title>
<polygon fill="white" stroke="none" points="-4,4 -4,-166.125 2161.43,-166.125 2161.43,4 -4,4"/>
<!-- &#45;1 -->
<g id="node1" class="node"><title>&#45;1</title>
<polygon fill="lightgray" stroke="black" points="374.213,-95.9117 350.213,-95.9117 350.213,-77.9117 374.213,-77.9117 374.213,-95.9117"/>
<text text-anchor="middle" x="362.213" y="-84.7117" font-family="Times New Roman,serif" font-size="9.00">&#45;1</text>
</g>
<!-- 0 -->
<g id="node41" class="node"><title>0</title>
<ellipse fill="lightblue" stroke="black" cx="945.213" cy="-14.8492" rx="14.7" ry="14.7"/>
<text text-anchor="middle" x="945.213" y="-12.6492" font-family="Times New Roman,serif" font-size="9.00">0</text>
</g>
<!-- &#45;1&#45;&gt;0 -->
<g id="edge1" class="edge"><title>&#45;1&#45;&gt;0</title>
<path fill="none" stroke="red" stroke-width="0.149488" d="M368.292,-77.8187C372.069,-73.4366 377.319,-68.3833 383.213,-65.6985 480.964,-21.1762 823.704,-16.3523 919.922,-15.884"/>
<polygon fill="red" stroke="red" stroke-width="0.149488" points="920.174,-19.3832 930.162,-15.8467 920.149,-12.3833 920.174,-19.3832"/>
</g>
<!-- 1 -->
<g id="node42" class="node"><title>1</title>
<ellipse fill="lightblue" stroke="black" cx="1134.21" cy="-14.8492" rx="14.7" ry="14.7"/>
<text text-anchor="middle" x="1134.21" y="-12.6492" font-family="Times New Roman,serif" font-size="9.00">1</text>
</g>
<!-- &#45;1&#45;&gt;1 -->
<g id="edge2" class="edge"><title>&#45;1&#45;&gt;1</title>
<path fill="none" stroke="red" stroke-width="0.20073" d="M368.261,-77.7482C372.027,-73.3427 377.277,-68.2894 383.213,-65.6985 512.548,-9.25232 876.634,-41.9982 1017.21,-29.6985 1049.05,-26.9128 1085.61,-22.3682 1109.27,-19.2496"/>
<polygon fill="red" stroke="red" stroke-width="0.20073" points="1110.02,-22.6807 1119.47,-17.8879 1109.09,-15.7422 1110.02,-22.6807"/>
</g>
<!-- 2 -->
<g id="node43" class="node"><title>2</title>
<ellipse fill="lightblue" stroke="black" cx="1205.21" cy="-14.8492" rx="14.7" ry="14.7"/>
<text text-anchor="middle" x="1205.21" y="-12.6492" font-family="Times New Roman,serif" font-size="9.00">2</text>
</g>
<!-- &#45;1&#45;&gt;2 -->
<g id="edge3" class="edge"><title>&#45;1&#45;&gt;2</title>
<path fill="none" stroke="green" stroke-width="0.557745" d="M368.251,-77.7253C372.013,-73.312 377.263,-68.2587 383.213,-65.6985 541.581,2.44954 988.189,-58.2697 1158.21,-29.6985 1165.97,-28.3954 1174.25,-26.2277 1181.67,-23.9896"/>
<polygon fill="green" stroke="green" stroke-width="0.557745" points="1182.98,-27.2452 1191.43,-20.8618 1180.84,-20.5788 1182.98,-27.2452"/>
</g>
<!-- 3 -->
<g id="node44" class="node"><title>3</title>
<ellipse fill="lightblue" stroke="black" cx="993.213" cy="-14.8492" rx="14.7" ry="14.7"/>
<text text-anchor="middle" x="993.213" y="-12.6492" font-family="Times New Roman,serif" font-size="9.00">3</text>
</g>
<!-- &#45;1&#45;&gt;3 -->
<g id="edge4" class="edge"><title>&#45;1&#45;&gt;3</title>
<path fill="none" stroke="red" stroke-width="0.227796" d="M368.265,-77.7586C372.033,-73.3564 377.283,-68.3031 383.213,-65.6985 502.668,-13.2346 844.282,-67.3017 969.213,-29.6985 970.273,-29.3796 971.336,-29.0062 972.393,-28.5907"/>
<polygon fill="red" stroke="red" stroke-width="0.227796" points="974.115,-31.6428 981.502,-24.0477 970.991,-25.3786 974.115,-31.6428"/>
</g>
<!-- &#45;2 -->
<g id="node2" class="node"><title>&#45;2</title>
<polygon fill="lightgray" stroke="black" points="416.213,-95.9117 392.213,-95.9117 392.213,-77.9117 416.213,-77.9117 416.213,-95.9117"/>
<text text-anchor="middle" x="404.213" y="-84.7117" font-family="Times New Roman,serif" font-size="9.00">&#45;2</text>
</g>
<!-- &#45;2&#45;&gt;0 -->
<g id="edge5" class="edge"><title>&#45;2&#45;&gt;0</title>
<path fill="none" stroke="green" stroke-width="0.102679" d="M410.299,-77.8344C414.078,-73.4575 419.328,-68.4042 425.213,-65.6985 514.993,-24.4215 828.704,-17.2966 920.067,-16.0902"/>
<polygon fill="green" stroke="green" stroke-width="0.102679" points="920.349,-19.5871 930.307,-15.968 920.266,-12.5876 920.349,-19.5871"/>
</g>
<!-- &#45;2&#45;&gt;1 -->
<g id="edge6" class="edge"><title>&#45;2&#45;&gt;1</title>
<path fill="none" stroke="green" stroke-width="0.252593" d="M410.265,-77.7572C414.032,-73.3546 419.282,-68.3013 425.213,-65.6985 545.903,-12.7369 885.94,-41.4497 1017.21,-29.6985 1049.05,-26.8489 1085.61,-22.3184 1109.27,-19.2205"/>
<polygon fill="green" stroke="green" stroke-width="0.252593" points="1110.01,-22.6524 1119.47,-17.8689 1109.09,-15.713 1110.01,-22.6524"/>
</g>
<!-- &#45;2&#45;&gt;2 -->
<g id="edge7" class="edge"><title>&#45;2&#45;&gt;2</title>
<path fill="none" stroke="green" stroke-width="0.4068" d="M410.253,-77.7312C414.017,-73.3199 419.267,-68.2666 425.213,-65.6985 574.932,-1.03662 997.419,-56.9383 1158.21,-29.6985 1165.97,-28.3851 1174.25,-26.2145 1181.67,-23.977"/>
<polygon fill="green" stroke="green" stroke-width="0.4068" points="1182.97,-27.2331 1191.43,-20.8518 1180.84,-20.5661 1182.97,-27.2331"/>
</g>
<!-- &#45;2&#45;&gt;3 -->
<g id="edge8" class="edge"><title>&#45;2&#45;&gt;3</title>
<path fill="none" stroke="green" stroke-width="0.383092" stroke-dasharray="1,5" d="M410.27,-77.7691C414.039,-73.3704 419.289,-68.3171 425.213,-65.6985 536.024,-16.7183 853.284,-64.891 969.213,-29.6985 970.272,-29.3771 971.334,-29.0016 972.391,-28.5845"/>
<polygon fill="green" stroke="green" stroke-width="0.383092" points="974.116,-31.635 981.498,-24.0353 970.988,-25.3727 974.116,-31.635"/>
</g>
<!-- &#45;3 -->
<g id="node3" class="node"><title>&#45;3</title>
<polygon fill="lightgray" stroke="black" points="458.213,-95.9117 434.213,-95.9117 434.213,-77.9117 458.213,-77.9117 458.213,-95.9117"/>
<text text-anchor="middle" x="446.213" y="-84.7117" font-family="Times New Roman,serif" font-size="9.00">&#45;3</text>
</g>
<!-- &#45;3&#45;&gt;0 -->
<g id="edge9" class="edge"><title>&#45;3&#45;&gt;0</title>
<path fill="none" stroke="red" stroke-width="0.191085" d="M452.308,-77.8527C456.09,-73.482 461.34,-68.4287 467.213,-65.6985 548.94,-27.7103 833.125,-18.3378 919.872,-16.3372"/>
<polygon fill="red" stroke="red" stroke-width="0.191085" points="920.186,-19.8313 930.108,-16.1148 920.034,-12.8329 920.186,-19.8313"/>
</g>
<!-- &#45;3&#45;&gt;1 -->
<g id="edge10" class="edge"><title>&#45;3&#45;&gt;1</title>
<path fill="none" stroke="green" stroke-width="0.104972" d="M452.269,-77.7675C456.038,-73.3683 461.288,-68.315 467.213,-65.6985 579.259,-16.2206 895.243,-40.9013 1017.21,-29.6985 1049.04,-26.7753 1085.6,-22.261 1109.26,-19.187"/>
<polygon fill="green" stroke="green" stroke-width="0.104972" points="1110,-22.6197 1119.46,-17.8469 1109.09,-15.6794 1110,-22.6197"/>
</g>
<!-- &#45;3&#45;&gt;2 -->
<g id="edge11" class="edge"><title>&#45;3&#45;&gt;2</title>
<path fill="none" stroke="red" stroke-width="0.400879" stroke-dasharray="1,5" d="M452.256,-77.7378C456.021,-73.3288 461.271,-68.2755 467.213,-65.6985 608.283,-4.52239 1006.65,-55.607 1158.21,-29.6985 1165.96,-28.3736 1174.25,-26.1998 1181.66,-23.9629"/>
<polygon fill="red" stroke="red" stroke-width="0.400879" points="1182.97,-27.2195 1191.43,-20.8406 1180.84,-20.5519 1182.97,-27.2195"/>
</g>
<!-- &#45;3&#45;&gt;3 -->
<g id="edge12" class="edge"><title>&#45;3&#45;&gt;3</title>
<path fill="none" stroke="red" stroke-width="0.228936" d="M452.275,-77.7813C456.046,-73.3867 461.296,-68.3334 467.213,-65.6985 671.552,25.2966 755.354,-95.2635 969.213,-29.6985 970.271,-29.3742 971.333,-28.9963 972.388,-28.5772"/>
<polygon fill="red" stroke="red" stroke-width="0.228936" points="974.117,-31.626 981.494,-24.021 970.985,-25.366 974.117,-31.626"/>
</g>
<!-- &#45;4 -->
<g id="node4" class="node"><title>&#45;4</title>
<polygon fill="lightgray" stroke="black" points="500.213,-95.9117 476.213,-95.9117 476.213,-77.9117 500.213,-77.9117 500.213,-95.9117"/>
<text text-anchor="middle" x="488.213" y="-84.7117" font-family="Times New Roman,serif" font-size="9.00">&#45;4</text>
</g>
<!-- &#45;4&#45;&gt;0 -->
<g id="edge13" class="edge"><title>&#45;4&#45;&gt;0</title>
<path fill="none" stroke="green" stroke-width="0.183618" d="M494.318,-77.8746C498.103,-73.5111 503.353,-68.4578 509.213,-65.6985 582.945,-30.9803 837.938,-19.4757 919.741,-16.6325"/>
<polygon fill="green" stroke="green" stroke-width="0.183618" points="920.22,-20.1185 930.098,-16.2872 919.986,-13.1224 920.22,-20.1185"/>
</g>
<!-- &#45;4&#45;&gt;1 -->
<g id="edge14" class="edge"><title>&#45;4&#45;&gt;1</title>
<path fill="none" stroke="green" stroke-width="0.408938" d="M494.275,-77.7794C498.045,-73.3842 503.295,-68.3309 509.213,-65.6985 612.617,-19.7035 904.544,-40.3531 1017.21,-29.6985 1049.03,-26.6895 1085.6,-22.1942 1109.26,-19.148"/>
<polygon fill="green" stroke="green" stroke-width="0.408938" points="1110,-22.5817 1119.46,-17.8213 1109.09,-15.6402 1110,-22.5817"/>
</g>
<!-- &#45;4&#45;&gt;2 -->
<g id="edge15" class="edge"><title>&#45;4&#45;&gt;2</title>
<path fill="none" stroke="green" stroke-width="0.270547" d="M494.26,-77.7453C498.025,-73.3388 503.275,-68.2855 509.213,-65.6985 641.636,-8.0077 1015.88,-54.2759 1158.21,-29.6985 1165.96,-28.3605 1174.24,-26.1831 1181.66,-23.9469"/>
<polygon fill="green" stroke="green" stroke-width="0.270547" points="1182.97,-27.2041 1191.43,-20.8279 1180.84,-20.5358 1182.97,-27.2041"/>
</g>
<!-- &#45;4&#45;&gt;3 -->
<g id="edge16" class="edge"><title>&#45;4&#45;&gt;3</title>
<path fill="none" stroke="green" stroke-width="0.235302" d="M494.282,-77.7957C498.055,-73.406 503.305,-68.3527 509.213,-65.6985 696.275,18.3336 773.348,-90.4453 969.213,-29.6985 970.27,-29.3707 971.331,-28.9901 972.386,-28.5687"/>
<polygon fill="green" stroke="green" stroke-width="0.235302" points="974.118,-31.6153 981.489,-24.004 970.981,-25.3579 974.118,-31.6153"/>
</g>
<!-- &#45;5 -->
<g id="node5" class="node"><title>&#45;5</title>
<polygon fill="lightgray" stroke="black" points="542.213,-95.9117 518.213,-95.9117 518.213,-77.9117 542.213,-77.9117 542.213,-95.9117"/>
<text text-anchor="middle" x="530.213" y="-84.7117" font-family="Times New Roman,serif" font-size="9.00">&#45;5</text>
</g>
<!-- &#45;5&#45;&gt;0 -->
<g id="edge17" class="edge"><title>&#45;5&#45;&gt;0</title>
<path fill="none" stroke="red" stroke-width="0.108878" stroke-dasharray="1,5" d="M536.331,-77.9009C540.12,-73.5463 545.37,-68.493 551.213,-65.6985 617.168,-34.1567 844.23,-20.6645 920.216,-16.9627"/>
<polygon fill="red" stroke="red" stroke-width="0.108878" points="920.469,-20.4547 930.293,-16.4866 920.139,-13.4625 920.469,-20.4547"/>
</g>
<!-- &#45;5&#45;&gt;1 -->
<g id="edge18" class="edge"><title>&#45;5&#45;&gt;1</title>
<path fill="none" stroke="green" stroke-width="0.353879" d="M536.281,-77.7935C540.053,-73.403 545.303,-68.3497 551.213,-65.6985 645.978,-23.1852 913.842,-39.8051 1017.21,-29.6985 1049.02,-26.5885 1085.59,-22.1155 1109.26,-19.1019"/>
<polygon fill="green" stroke="green" stroke-width="0.353879" points="1109.99,-22.5369 1119.46,-17.7912 1109.09,-15.594 1109.99,-22.5369"/>
</g>
<!-- &#45;5&#45;&gt;2 -->
<g id="edge19" class="edge"><title>&#45;5&#45;&gt;2</title>
<path fill="none" stroke="green" stroke-width="0.306533" d="M536.263,-77.7538C540.03,-73.3501 545.28,-68.2968 551.213,-65.6985 674.99,-11.4925 1025.1,-52.9451 1158.21,-29.6985 1165.96,-28.3457 1174.24,-26.1642 1181.66,-23.9288"/>
<polygon fill="green" stroke="green" stroke-width="0.306533" points="1182.96,-27.1866 1191.43,-20.8136 1180.84,-20.5175 1182.96,-27.1866"/>
</g>
<!-- &#45;5&#45;&gt;3 -->
<g id="edge20" class="edge"><title>&#45;5&#45;&gt;3</title>
<path fill="none" stroke="green" stroke-width="0.312876" d="M536.29,-77.813C540.065,-73.429 545.315,-68.3757 551.213,-65.6985 721.005,11.3738 791.334,-85.6294 969.213,-29.6985 970.269,-29.3666 971.328,-28.9826 972.383,-28.5584"/>
<polygon fill="green" stroke="green" stroke-width="0.312876" points="974.12,-31.6025 981.482,-23.9837 970.976,-25.3484 974.12,-31.6025"/>
</g>
<!-- &#45;6 -->
<g id="node6" class="node"><title>&#45;6</title>
<polygon fill="lightgray" stroke="black" points="1849.21,-95.9117 1825.21,-95.9117 1825.21,-77.9117 1849.21,-77.9117 1849.21,-95.9117"/>
<text text-anchor="middle" x="1837.21" y="-84.7117" font-family="Times New Roman,serif" font-size="9.00">&#45;6</text>
</g>
<!-- &#45;6&#45;&gt;0 -->
<g id="edge21" class="edge"><title>&#45;6&#45;&gt;0</title>
<path fill="none" stroke="red" stroke-width="0.420907" d="M1831.18,-77.7165C1827.42,-73.3003 1822.17,-68.247 1816.21,-65.6985 1643.02,8.42653 1150.12,-82.2913 969.213,-29.6985 968.151,-29.3896 967.085,-29.0244 966.026,-28.6156"/>
<polygon fill="red" stroke="red" stroke-width="0.420907" points="967.424,-25.402 956.91,-24.097 964.315,-31.6739 967.424,-25.402"/>
</g>
<!-- &#45;6&#45;&gt;1 -->
<g id="edge22" class="edge"><title>&#45;6&#45;&gt;1</title>
<path fill="none" stroke="green" stroke-width="0.105682" d="M1831.17,-77.748C1827.4,-73.3424 1822.15,-68.2891 1816.21,-65.6985 1686.67,-9.16935 1320.48,-53.8323 1181.21,-29.6985 1173.47,-28.3558 1165.18,-26.1771 1157.77,-23.9411"/>
<polygon fill="green" stroke="green" stroke-width="0.105682" points="1158.59,-20.53 1148,-20.8234 1156.46,-27.1985 1158.59,-20.53"/>
</g>
<!-- &#45;6&#45;&gt;2 -->
<g id="edge23" class="edge"><title>&#45;6&#45;&gt;2</title>
<path fill="none" stroke="green" stroke-width="0.165993" d="M1831.14,-77.803C1827.37,-73.4157 1822.12,-68.3624 1816.21,-65.6985 1709.03,-17.3377 1331.67,-15.3231 1230.39,-15.6774"/>
<polygon fill="green" stroke="green" stroke-width="0.165993" points="1230.17,-12.1782 1220.19,-15.7249 1230.21,-19.1781 1230.17,-12.1782"/>
</g>
<!-- &#45;7 -->
<g id="node7" class="node"><title>&#45;7</title>
<polygon fill="lightgray" stroke="black" points="584.213,-95.9117 560.213,-95.9117 560.213,-77.9117 584.213,-77.9117 584.213,-95.9117"/>
<text text-anchor="middle" x="572.213" y="-84.7117" font-family="Times New Roman,serif" font-size="9.00">&#45;7</text>
</g>
<!-- &#45;7&#45;&gt;0 -->
<g id="edge24" class="edge"><title>&#45;7&#45;&gt;0</title>
<path fill="none" stroke="red" stroke-width="0.246872" d="M578.706,-77.5242C582.469,-73.2759 587.573,-68.4475 593.213,-65.6985 651.276,-37.4002 849.691,-22.0528 920.145,-17.3954"/>
<polygon fill="red" stroke="red" stroke-width="0.246872" points="920.559,-20.876 930.313,-16.7393 920.108,-13.8906 920.559,-20.876"/>
</g>
<!-- &#45;7&#45;&gt;1 -->
<g id="edge25" class="edge"><title>&#45;7&#45;&gt;1</title>
<path fill="none" stroke="red" stroke-width="0.772657" d="M578.288,-77.8103C582.064,-73.4255 587.314,-68.3722 593.213,-65.6985 679.342,-26.6653 923.136,-39.2576 1017.21,-29.6985 1049.01,-26.4676 1085.58,-22.0213 1109.25,-19.0469"/>
<polygon fill="red" stroke="red" stroke-width="0.772657" points="1109.97,-22.4833 1119.45,-17.7551 1109.09,-15.5387 1109.97,-22.4833"/>
</g>
<!-- &#45;7&#45;&gt;2 -->
<g id="edge26" class="edge"><title>&#45;7&#45;&gt;2</title>
<path fill="none" stroke="red" stroke-width="0.115119" d="M578.268,-77.7636C582.036,-73.3632 587.286,-68.3099 593.213,-65.6985 708.346,-14.9765 1034.33,-51.6146 1158.21,-29.6985 1165.96,-28.3287 1174.24,-26.1424 1181.65,-23.9079"/>
<polygon fill="red" stroke="red" stroke-width="0.115119" points="1182.96,-27.1665 1191.42,-20.7971 1180.83,-20.4965 1182.96,-27.1665"/>
</g>
<!-- &#45;7&#45;&gt;3 -->
<g id="edge27" class="edge"><title>&#45;7&#45;&gt;3</title>
<path fill="none" stroke="green" stroke-width="0.23904" d="M578.299,-77.8341C582.078,-73.4571 587.328,-68.4038 593.213,-65.6985 745.744,4.41834 809.31,-80.8167 969.213,-29.6985 970.267,-29.3616 971.325,-28.9734 972.379,-28.5459"/>
<polygon fill="green" stroke="green" stroke-width="0.23904" points="974.122,-31.5869 981.474,-23.9589 970.97,-25.3367 974.122,-31.5869"/>
</g>
<!-- &#45;8 -->
<g id="node8" class="node"><title>&#45;8</title>
<polygon fill="lightgray" stroke="black" points="1975.21,-162.125 1951.21,-162.125 1951.21,-144.125 1975.21,-144.125 1975.21,-162.125"/>
<text text-anchor="middle" x="1963.21" y="-150.925" font-family="Times New Roman,serif" font-size="9.00">&#45;8</text>
</g>
<!-- &#45;8&#45;&gt;0 -->
<g id="edge28" class="edge"><title>&#45;8&#45;&gt;0</title>
<path fill="none" stroke="red" stroke-width="0.296465" d="M1950.75,-152.069C1791.6,-151.324 161.111,-142.845 127.213,-108.125 114.041,-94.6328 114.292,-79.4313 127.213,-65.6985 155.07,-36.0924 785.302,-19.6145 920.019,-16.4237"/>
<polygon fill="red" stroke="red" stroke-width="0.296465" points="920.266,-19.9189 930.181,-16.1861 920.102,-12.9209 920.266,-19.9189"/>
</g>
<!-- &#45;8&#45;&gt;1 -->
<g id="edge29" class="edge"><title>&#45;8&#45;&gt;1</title>
<path fill="none" stroke="green" stroke-width="0.345267" d="M1963.78,-144.054C1964.5,-126.532 1963.43,-85.0318 1939.21,-65.6985 1873.32,-13.095 1264.36,-43.7146 1181.21,-29.6985 1173.46,-28.3914 1165.18,-26.2225 1157.76,-23.9847"/>
<polygon fill="green" stroke="green" stroke-width="0.345267" points="1158.58,-20.5739 1147.99,-20.8578 1156.45,-27.2405 1158.58,-20.5739"/>
</g>
<!-- &#45;8&#45;&gt;2 -->
<g id="edge30" class="edge"><title>&#45;8&#45;&gt;2</title>
<path fill="none" stroke="red" stroke-width="0.544857" stroke-dasharray="1,5" d="M1975.45,-150.923C1997.49,-148.025 2043.42,-138.465 2063.21,-108.125 2073.52,-92.3333 2076.15,-79.413 2063.21,-65.6985 2033.86,-34.5942 1368.79,-19.2181 1230.33,-16.3482"/>
<polygon fill="red" stroke="red" stroke-width="0.544857" points="1230.33,-12.8476 1220.26,-16.1424 1230.18,-19.8461 1230.33,-12.8476"/>
</g>
<!-- &#45;8&#45;&gt;3 -->
<g id="edge31" class="edge"><title>&#45;8&#45;&gt;3</title>
<path fill="none" stroke="green" stroke-width="0.438475" d="M1950.87,-152.03C1802.74,-150.859 371.022,-138.753 341.213,-108.125 328.062,-94.612 328.267,-79.408 341.213,-65.6985 389.199,-14.8826 902.246,-49.7057 969.213,-29.6985 970.273,-29.3818 971.337,-29.0102 972.394,-28.5961"/>
<polygon fill="green" stroke="green" stroke-width="0.438475" points="974.114,-31.6495 981.505,-24.0583 970.994,-25.3836 974.114,-31.6495"/>
</g>
<!-- 525 -->
<g id="node46" class="node"><title>525</title>
<ellipse fill="white" stroke="black" cx="2136.21" cy="-86.9117" rx="21.4286" ry="21.4286"/>
<text text-anchor="middle" x="2136.21" y="-84.7117" font-family="Times New Roman,serif" font-size="9.00">525</text>
</g>
<!-- &#45;8&#45;&gt;525 -->
<g id="edge156" class="edge"><title>&#45;8&#45;&gt;525</title>
<path fill="none" stroke="green" stroke-width="0.305237" d="M1975.35,-149.197C1999.77,-143.102 2056.36,-127.949 2101.21,-108.125 2103.92,-106.928 2106.69,-105.577 2109.42,-104.155"/>
<polygon fill="green" stroke="green" stroke-width="0.305237" points="2111.38,-107.069 2118.44,-99.1661 2107.99,-100.944 2111.38,-107.069"/>
</g>
<!-- &#45;9 -->
<g id="node9" class="node"><title>&#45;9</title>
<polygon fill="lightgray" stroke="black" points="208.213,-95.9117 184.213,-95.9117 184.213,-77.9117 208.213,-77.9117 208.213,-95.9117"/>
<text text-anchor="middle" x="196.213" y="-84.7117" font-family="Times New Roman,serif" font-size="9.00">&#45;9</text>
</g>
<!-- &#45;9&#45;&gt;0 -->
<g id="edge32" class="edge"><title>&#45;9&#45;&gt;0</title>
<path fill="none" stroke="green" stroke-width="0.110101" stroke-dasharray="1,5" d="M202.272,-77.7741C206.042,-73.3772 211.292,-68.3239 217.213,-65.6985 282.631,-36.6932 799.676,-20.0563 920.174,-16.5498"/>
<polygon fill="green" stroke="green" stroke-width="0.110101" points="920.378,-20.0454 930.274,-16.2598 920.177,-13.0483 920.378,-20.0454"/>
</g>
<!-- &#45;9&#45;&gt;1 -->
<g id="edge33" class="edge"><title>&#45;9&#45;&gt;1</title>
<path fill="none" stroke="green" stroke-width="0.413251" d="M202.25,-77.722C206.012,-73.3077 211.262,-68.2544 217.213,-65.6985 298.971,-30.5868 928.529,-36.933 1017.21,-29.6985 1049.07,-27.0999 1085.62,-22.514 1109.28,-19.3349"/>
<polygon fill="green" stroke="green" stroke-width="0.413251" points="1110.04,-22.7635 1119.47,-17.9437 1109.09,-15.8278 1110.04,-22.7635"/>
</g>
<!-- &#45;9&#45;&gt;3 -->
<g id="edge34" class="edge"><title>&#45;9&#45;&gt;3</title>
<path fill="none" stroke="green" stroke-width="0.76512" stroke-dasharray="1,5" d="M202.252,-77.7284C206.015,-73.3163 211.265,-68.263 217.213,-65.6985 370.844,0.54041 808.688,-76.834 969.213,-29.6985 970.275,-29.3868 971.339,-29.0193 972.398,-28.6085"/>
<polygon fill="green" stroke="green" stroke-width="0.76512" points="974.112,-31.665 981.512,-24.083 970.999,-25.3953 974.112,-31.665"/>
</g>
<!-- &#45;10 -->
<g id="node10" class="node"><title>&#45;10</title>
<polygon fill="lightgray" stroke="black" points="631.713,-95.9117 602.713,-95.9117 602.713,-77.9117 631.713,-77.9117 631.713,-95.9117"/>
<text text-anchor="middle" x="617.213" y="-84.7117" font-family="Times New Roman,serif" font-size="9.00">&#45;10</text>
</g>
<!-- &#45;10&#45;&gt;0 -->
<g id="edge35" class="edge"><title>&#45;10&#45;&gt;0</title>
<path fill="none" stroke="green" stroke-width="0.118749" d="M624.499,-77.5781C628.671,-73.3456 634.254,-68.5151 640.213,-65.6985 736.197,-20.3347 866.015,-15.3159 920.023,-15.3757"/>
<polygon fill="green" stroke="green" stroke-width="0.118749" points="920.044,-18.8759 930.07,-15.4489 920.095,-11.8761 920.044,-18.8759"/>
</g>
<!-- &#45;10&#45;&gt;1 -->
<g id="edge36" class="edge"><title>&#45;10&#45;&gt;1</title>
<path fill="none" stroke="green" stroke-width="0.221041" d="M624.029,-77.8304C628.218,-73.4522 633.968,-68.3989 640.213,-65.6985 717.461,-32.2987 933.531,-38.6455 1017.21,-29.6985 1048.99,-26.3007 1085.57,-21.8912 1109.24,-18.9709"/>
<polygon fill="green" stroke="green" stroke-width="0.221041" points="1109.96,-22.4092 1119.45,-17.7054 1109.09,-15.4624 1109.96,-22.4092"/>
</g>
<!-- &#45;10&#45;&gt;2 -->
<g id="edge37" class="edge"><title>&#45;10&#45;&gt;2</title>
<path fill="none" stroke="red" stroke-width="0.348395" stroke-dasharray="1,5" d="M624.003,-77.7698C628.183,-73.3714 633.933,-68.3181 640.213,-65.6985 746.708,-21.2755 1044.65,-50.1261 1158.21,-29.6985 1165.95,-28.3064 1174.23,-26.114 1181.65,-23.8807"/>
<polygon fill="red" stroke="red" stroke-width="0.348395" points="1182.95,-27.1401 1191.42,-20.7755 1180.83,-20.469 1182.95,-27.1401"/>
</g>
<!-- &#45;10&#45;&gt;3 -->
<g id="edge38" class="edge"><title>&#45;10&#45;&gt;3</title>
<path fill="none" stroke="red" stroke-width="0.209932" d="M624.043,-77.8627C628.236,-73.4952 633.986,-68.4419 640.213,-65.6985 774.823,-6.39215 829.41,-75.4362 969.213,-29.6985 970.093,-29.4105 970.977,-29.0876 971.858,-28.7365"/>
<polygon fill="red" stroke="red" stroke-width="0.209932" points="973.569,-31.7949 980.97,-24.2134 970.456,-25.525 973.569,-31.7949"/>
</g>
<!-- &#45;11 -->
<g id="node11" class="node"><title>&#45;11</title>
<polygon fill="lightgray" stroke="black" points="678.713,-95.9117 649.713,-95.9117 649.713,-77.9117 678.713,-77.9117 678.713,-95.9117"/>
<text text-anchor="middle" x="664.213" y="-84.7117" font-family="Times New Roman,serif" font-size="9.00">&#45;11</text>
</g>
<!-- &#45;11&#45;&gt;0 -->
<g id="edge39" class="edge"><title>&#45;11&#45;&gt;0</title>
<path fill="none" stroke="red" stroke-width="0.15323" d="M671.532,-77.6464C675.714,-73.4339 681.295,-68.6008 687.213,-65.6985 766.253,-26.938 872.728,-18.2877 920.368,-16.3778"/>
<polygon fill="red" stroke="red" stroke-width="0.15323" points="920.512,-19.8751 930.389,-16.0431 920.278,-12.879 920.512,-19.8751"/>
</g>
<!-- &#45;11&#45;&gt;1 -->
<g id="edge40" class="edge"><title>&#45;11&#45;&gt;1</title>
<path fill="none" stroke="red" stroke-width="0.189097" d="M671.043,-77.8619C675.236,-73.4942 680.986,-68.4409 687.213,-65.6985 822.237,-6.23614 870.621,-46.3701 1017.21,-29.6985 1048.97,-26.0869 1085.55,-21.7246 1109.23,-18.8735"/>
<polygon fill="red" stroke="red" stroke-width="0.189097" points="1109.93,-22.3142 1119.44,-17.6416 1109.1,-15.3646 1109.93,-22.3142"/>
</g>
<!-- &#45;11&#45;&gt;2 -->
<g id="edge41" class="edge"><title>&#45;11&#45;&gt;2</title>
<path fill="none" stroke="green" stroke-width="0.252112" stroke-dasharray="1,5" d="M671.01,-77.786C675.192,-73.393 680.942,-68.3397 687.213,-65.6985 783.954,-24.9519 1054.96,-48.6382 1158.21,-29.6985 1165.95,-28.2797 1174.22,-26.0799 1181.64,-23.848"/>
<polygon fill="green" stroke="green" stroke-width="0.252112" points="1182.94,-27.1086 1191.41,-20.7496 1180.82,-20.436 1182.94,-27.1086"/>
</g>
<!-- &#45;11&#45;&gt;3 -->
<g id="edge42" class="edge"><title>&#45;11&#45;&gt;3</title>
<path fill="none" stroke="green" stroke-width="0.145847" d="M671.062,-77.9046C675.261,-73.5511 681.011,-68.4978 687.213,-65.6985 802.376,-13.7184 849.484,-70.0641 969.213,-29.6985 970.091,-29.4026 970.972,-29.073 971.851,-28.7163"/>
<polygon fill="green" stroke="green" stroke-width="0.145847" points="973.574,-31.7682 980.954,-24.1668 970.444,-25.5067 973.574,-31.7682"/>
</g>
<!-- &#45;12 -->
<g id="node12" class="node"><title>&#45;12</title>
<polygon fill="lightgray" stroke="black" points="725.713,-95.9117 696.713,-95.9117 696.713,-77.9117 725.713,-77.9117 725.713,-95.9117"/>
<text text-anchor="middle" x="711.213" y="-84.7117" font-family="Times New Roman,serif" font-size="9.00">&#45;12</text>
</g>
<!-- &#45;12&#45;&gt;0 -->
<g id="edge43" class="edge"><title>&#45;12&#45;&gt;0</title>
<path fill="none" stroke="red" stroke-width="0.188959" d="M718.58,-77.743C722.776,-73.5588 728.356,-68.7219 734.213,-65.6985 796.256,-33.674 879.168,-21.8864 920.132,-17.8226"/>
<polygon fill="red" stroke="red" stroke-width="0.188959" points="920.655,-21.2894 930.293,-16.89 920.015,-14.3187 920.655,-21.2894"/>
</g>
<!-- &#45;12&#45;&gt;1 -->
<g id="edge44" class="edge"><title>&#45;12&#45;&gt;1</title>
<path fill="none" stroke="green" stroke-width="0.123082" d="M718.059,-77.8976C722.257,-73.5418 728.007,-68.4885 734.213,-65.6985 738.536,-63.755 1022.23,-29.3734 1109.17,-18.8711"/>
<polygon fill="green" stroke="green" stroke-width="0.123082" points="1109.7,-22.3327 1119.21,-17.659 1108.86,-15.3832 1109.7,-22.3327"/>
</g>
<!-- &#45;12&#45;&gt;2 -->
<g id="edge45" class="edge"><title>&#45;12&#45;&gt;2</title>
<path fill="none" stroke="red" stroke-width="0.101916" d="M718.018,-77.8058C722.204,-73.4194 727.954,-68.3661 734.213,-65.6985 908.196,8.44546 972.34,-64.6038 1158.21,-29.6985 1165.94,-28.2472 1174.22,-26.0383 1181.64,-23.8081"/>
<polygon fill="red" stroke="red" stroke-width="0.101916" points="1182.93,-27.0701 1191.41,-20.718 1180.82,-20.3958 1182.93,-27.0701"/>
</g>
<!-- &#45;12&#45;&gt;3 -->
<g id="edge46" class="edge"><title>&#45;12&#45;&gt;3</title>
<path fill="none" stroke="red" stroke-width="0.267591" d="M718.487,-77.5543C722.657,-73.3148 728.24,-68.4853 734.213,-65.6985 829.969,-21.027 869.518,-64.7057 969.213,-29.6985 970.087,-29.3917 970.965,-29.0527 971.842,-28.6881"/>
<polygon fill="red" stroke="red" stroke-width="0.267591" points="973.58,-31.7313 980.932,-24.102 970.427,-25.4816 973.58,-31.7313"/>
</g>
<!-- &#45;13 -->
<g id="node13" class="node"><title>&#45;13</title>
<polygon fill="lightgray" stroke="black" points="772.713,-95.9117 743.713,-95.9117 743.713,-77.9117 772.713,-77.9117 772.713,-95.9117"/>
<text text-anchor="middle" x="758.213" y="-84.7117" font-family="Times New Roman,serif" font-size="9.00">&#45;13</text>
</g>
<!-- &#45;13&#45;&gt;0 -->
<g id="edge47" class="edge"><title>&#45;13&#45;&gt;0</title>
<path fill="none" stroke="red" stroke-width="0.219837" d="M765.658,-77.8892C769.878,-73.7478 775.454,-68.9052 781.213,-65.6985 826.764,-40.3363 886.777,-26.3411 920.125,-20.0329"/>
<polygon fill="red" stroke="red" stroke-width="0.219837" points="921.135,-23.4071 930.352,-18.183 919.889,-16.5189 921.135,-23.4071"/>
</g>
<!-- &#45;13&#45;&gt;1 -->
<g id="edge48" class="edge"><title>&#45;13&#45;&gt;1</title>
<path fill="none" stroke="green" stroke-width="0.51083" d="M765.474,-77.5263C769.64,-73.2787 775.223,-68.4503 781.213,-65.6985 796.189,-58.8185 1030.67,-28.8715 1108.97,-19.0105"/>
<polygon fill="green" stroke="green" stroke-width="0.51083" points="1109.86,-22.4263 1119.35,-17.7065 1108.99,-15.4809 1109.86,-22.4263"/>
</g>
<!-- &#45;13&#45;&gt;2 -->
<g id="edge49" class="edge"><title>&#45;13&#45;&gt;2</title>
<path fill="none" stroke="green" stroke-width="0.302157" d="M765.029,-77.8304C769.218,-73.4522 774.968,-68.3989 781.213,-65.6985 935.708,1.10111 992.952,-61.632 1158.21,-29.6985 1165.93,-28.2067 1174.21,-25.9865 1181.63,-23.7585"/>
<polygon fill="green" stroke="green" stroke-width="0.302157" points="1182.92,-27.0222 1191.4,-20.6787 1180.81,-20.3457 1182.92,-27.0222"/>
</g>
<!-- &#45;13&#45;&gt;3 -->
<g id="edge50" class="edge"><title>&#45;13&#45;&gt;3</title>
<path fill="none" stroke="red" stroke-width="0.22775" d="M765.53,-77.6425C769.711,-73.4288 775.292,-68.5959 781.213,-65.6985 857.628,-28.3043 889.482,-59.3719 969.213,-29.6985 970.081,-29.3755 970.954,-29.0227 971.827,-28.6466"/>
<polygon fill="red" stroke="red" stroke-width="0.22775" points="973.589,-31.6767 980.897,-24.0064 970.401,-25.4448 973.589,-31.6767"/>
</g>
<!-- &#45;14 -->
<g id="node14" class="node"><title>&#45;14</title>
<polygon fill="lightgray" stroke="black" points="2020.71,-95.9117 1991.71,-95.9117 1991.71,-77.9117 2020.71,-77.9117 2020.71,-95.9117"/>
<text text-anchor="middle" x="2006.21" y="-84.7117" font-family="Times New Roman,serif" font-size="9.00">&#45;14</text>
</g>
<!-- &#45;14&#45;&gt;1 -->
<g id="edge51" class="edge"><title>&#45;14&#45;&gt;1</title>
<path fill="none" stroke="green" stroke-width="0.117822" d="M1997.29,-77.6972C1991.9,-73.2746 1984.65,-68.2213 1977.21,-65.6985 1809.52,-8.83065 1355.85,-58.9354 1181.21,-29.6985 1173.46,-28.4001 1165.18,-26.2337 1157.76,-23.9954"/>
<polygon fill="green" stroke="green" stroke-width="0.117822" points="1158.58,-20.5847 1147.99,-20.8664 1156.45,-27.2508 1158.58,-20.5847"/>
</g>
<!-- &#45;14&#45;&gt;2 -->
<g id="edge52" class="edge"><title>&#45;14&#45;&gt;2</title>
<path fill="none" stroke="red" stroke-width="0.319541" d="M1997.27,-77.7509C1991.88,-73.3463 1984.63,-68.293 1977.21,-65.6985 1834.6,-15.7968 1346.36,-15.1052 1230.17,-15.6698"/>
<polygon fill="red" stroke="red" stroke-width="0.319541" points="1230.09,-12.1701 1220.11,-15.7267 1230.13,-19.1699 1230.09,-12.1701"/>
</g>
<!-- &#45;14&#45;&gt;3 -->
<g id="edge53" class="edge"><title>&#45;14&#45;&gt;3</title>
<path fill="none" stroke="red" stroke-width="0.141723" d="M1991.42,-82.1761C1972.01,-77.4455 1936.8,-69.4589 1906.21,-65.6985 1554.72,-22.4881 1463.18,-58.5319 1110.21,-29.6985 1078.36,-27.0963 1041.8,-22.5112 1018.15,-19.3332"/>
<polygon fill="red" stroke="red" stroke-width="0.141723" points="1018.34,-15.8261 1007.95,-17.9427 1017.39,-22.7619 1018.34,-15.8261"/>
</g>
<!-- &#45;15 -->
<g id="node15" class="node"><title>&#45;15</title>
<polygon fill="lightgray" stroke="black" points="819.713,-95.9117 790.713,-95.9117 790.713,-77.9117 819.713,-77.9117 819.713,-95.9117"/>
<text text-anchor="middle" x="805.213" y="-84.7117" font-family="Times New Roman,serif" font-size="9.00">&#45;15</text>
</g>
<!-- &#45;15&#45;&gt;0 -->
<g id="edge54" class="edge"><title>&#45;15&#45;&gt;0</title>
<path fill="none" stroke="green" stroke-width="0.342153" d="M813.219,-77.7364C817.424,-73.751 822.815,-69.0972 828.213,-65.6985 858.459,-46.6564 897.235,-31.7644 921.66,-23.3878"/>
<polygon fill="green" stroke="green" stroke-width="0.342153" points="922.809,-26.6943 931.183,-20.2036 920.589,-20.0556 922.809,-26.6943"/>
</g>
<!-- &#45;15&#45;&gt;1 -->
<g id="edge55" class="edge"><title>&#45;15&#45;&gt;1</title>
<path fill="none" stroke="green" stroke-width="0.274841" d="M812.498,-77.5768C816.67,-73.344 822.253,-68.5136 828.213,-65.6985 853.57,-53.7224 1040.43,-28.2103 1109.04,-19.1367"/>
<polygon fill="green" stroke="green" stroke-width="0.274841" points="1109.89,-22.5546 1119.35,-17.7793 1108.98,-15.6145 1109.89,-22.5546"/>
</g>
<!-- &#45;15&#45;&gt;2 -->
<g id="edge56" class="edge"><title>&#45;15&#45;&gt;2</title>
<path fill="none" stroke="green" stroke-width="0.563577" d="M812.043,-77.8619C816.236,-73.4942 821.986,-68.4409 828.213,-65.6985 963.237,-6.23614 1013.55,-58.6636 1158.21,-29.6985 1165.92,-28.1547 1174.19,-25.9201 1181.61,-23.6949"/>
<polygon fill="green" stroke="green" stroke-width="0.563577" points="1182.9,-26.9607 1191.39,-20.6283 1180.8,-20.2815 1182.9,-26.9607"/>
</g>
<!-- &#45;15&#45;&gt;3 -->
<g id="edge57" class="edge"><title>&#45;15&#45;&gt;3</title>
<path fill="none" stroke="red" stroke-width="0.216995" d="M812.602,-77.7849C816.805,-73.613 822.383,-68.7745 828.213,-65.6985 885.417,-35.5176 909.311,-54.089 969.213,-29.6985 970.071,-29.3493 970.935,-28.9742 971.801,-28.5793"/>
<polygon fill="red" stroke="red" stroke-width="0.216995" points="973.599,-31.5885 980.837,-23.8515 970.354,-25.3861 973.599,-31.5885"/>
</g>
<!-- &#45;16 -->
<g id="node16" class="node"><title>&#45;16</title>
<polygon fill="lightgray" stroke="black" points="866.713,-95.9117 837.713,-95.9117 837.713,-77.9117 866.713,-77.9117 866.713,-95.9117"/>
<text text-anchor="middle" x="852.213" y="-84.7117" font-family="Times New Roman,serif" font-size="9.00">&#45;16</text>
</g>
<!-- &#45;16&#45;&gt;0 -->
<g id="edge58" class="edge"><title>&#45;16&#45;&gt;0</title>
<path fill="none" stroke="green" stroke-width="0.138287" d="M860.989,-77.8233C865.204,-74.0365 870.379,-69.5274 875.213,-65.6985 891.33,-52.932 910.381,-39.4644 924.536,-29.7503"/>
<polygon fill="green" stroke="green" stroke-width="0.138287" points="926.754,-32.4745 933.05,-23.9538 922.814,-26.688 926.754,-32.4745"/>
</g>
<!-- &#45;16&#45;&gt;1 -->
<g id="edge59" class="edge"><title>&#45;16&#45;&gt;1</title>
<path fill="none" stroke="green" stroke-width="0.625461" d="M859.531,-77.6447C863.713,-73.4317 869.294,-68.5987 875.213,-65.6985 916.558,-45.4416 1052.76,-26.25 1109.29,-18.9494"/>
<polygon fill="green" stroke="green" stroke-width="0.625461" points="1110,-22.3869 1119.48,-17.6511 1109.12,-15.4431 1110,-22.3869"/>
</g>
<!-- &#45;16&#45;&gt;2 -->
<g id="edge60" class="edge"><title>&#45;16&#45;&gt;2</title>
<path fill="none" stroke="red" stroke-width="0.11598" d="M859.061,-77.9035C863.261,-73.5497 869.011,-68.4964 875.213,-65.6985 990.79,-13.5627 1034.12,-55.7004 1158.21,-29.6985 1165.91,-28.0859 1174.18,-25.8322 1181.6,-23.6106"/>
<polygon fill="red" stroke="red" stroke-width="0.11598" points="1182.87,-26.8792 1191.38,-20.5616 1180.79,-20.1964 1182.87,-26.8792"/>
</g>
<!-- &#45;16&#45;&gt;3 -->
<g id="edge61" class="edge"><title>&#45;16&#45;&gt;3</title>
<path fill="none" stroke="green" stroke-width="0.334502" d="M860.167,-77.6513C864.358,-73.6442 869.753,-68.9967 875.213,-65.6985 913.507,-42.5684 928.825,-48.9381 969.213,-29.6985 970.049,-29.3002 970.895,-28.8836 971.745,-28.4535"/>
<polygon fill="green" stroke="green" stroke-width="0.334502" points="973.608,-31.4244 980.709,-23.5619 970.254,-25.2797 973.608,-31.4244"/>
</g>
<!-- &#45;17 -->
<g id="node17" class="node"><title>&#45;17</title>
<polygon fill="lightgray" stroke="black" points="913.713,-95.9117 884.713,-95.9117 884.713,-77.9117 913.713,-77.9117 913.713,-95.9117"/>
<text text-anchor="middle" x="899.213" y="-84.7117" font-family="Times New Roman,serif" font-size="9.00">&#45;17</text>
</g>
<!-- &#45;17&#45;&gt;0 -->
<g id="edge62" class="edge"><title>&#45;17&#45;&gt;0</title>
<path fill="none" stroke="red" stroke-width="0.190349" d="M904.49,-77.8746C911.111,-67.7908 922.703,-50.1351 931.83,-36.233"/>
<polygon fill="red" stroke="red" stroke-width="0.190349" points="934.833,-38.037 937.395,-27.7567 928.981,-34.1951 934.833,-38.037"/>
</g>
<!-- &#45;17&#45;&gt;1 -->
<g id="edge63" class="edge"><title>&#45;17&#45;&gt;1</title>
<path fill="none" stroke="green" stroke-width="0.260117" d="M906.579,-77.7406C910.775,-73.5556 916.354,-68.7188 922.213,-65.6985 984.705,-33.4838 1068.27,-21.7675 1109.32,-17.7677"/>
<polygon fill="green" stroke="green" stroke-width="0.260117" points="1109.84,-21.2348 1119.49,-16.8523 1109.21,-14.263 1109.84,-21.2348"/>
</g>
<!-- &#45;17&#45;&gt;2 -->
<g id="edge64" class="edge"><title>&#45;17&#45;&gt;2</title>
<path fill="none" stroke="green" stroke-width="0.209054" d="M906.487,-77.5528C910.656,-73.3128 916.239,-68.4834 922.213,-65.6985 1018.38,-20.8718 1054.64,-52.746 1158.21,-29.6985 1165.89,-27.9904 1174.15,-25.7102 1181.57,-23.4937"/>
<polygon fill="green" stroke="green" stroke-width="0.209054" points="1182.84,-26.766 1191.36,-20.469 1180.77,-20.0781 1182.84,-26.766"/>
</g>
<!-- &#45;17&#45;&gt;3 -->
<g id="edge65" class="edge"><title>&#45;17&#45;&gt;3</title>
<path fill="none" stroke="green" stroke-width="0.517071" d="M907.977,-77.8088C912.19,-74.0188 917.367,-69.5112 922.213,-65.6985 938.624,-52.7888 958.082,-39.2424 972.474,-29.5348"/>
<polygon fill="green" stroke="green" stroke-width="0.517071" points="974.751,-32.2232 981.118,-23.7551 970.86,-26.4042 974.751,-32.2232"/>
</g>
<!-- &#45;18 -->
<g id="node18" class="node"><title>&#45;18</title>
<polygon fill="lightgray" stroke="black" points="960.713,-95.9117 931.713,-95.9117 931.713,-77.9117 960.713,-77.9117 960.713,-95.9117"/>
<text text-anchor="middle" x="946.213" y="-84.7117" font-family="Times New Roman,serif" font-size="9.00">&#45;18</text>
</g>
<!-- &#45;18&#45;&gt;0 -->
<g id="edge66" class="edge"><title>&#45;18&#45;&gt;0</title>
<path fill="none" stroke="red" stroke-width="0.353785" d="M946.098,-77.8746C945.968,-68.7202 945.748,-53.3256 945.56,-40.1641"/>
<polygon fill="red" stroke="red" stroke-width="0.353785" points="949.055,-39.7687 945.413,-29.8197 942.056,-39.8686 949.055,-39.7687"/>
</g>
<!-- &#45;18&#45;&gt;1 -->
<g id="edge67" class="edge"><title>&#45;18&#45;&gt;1</title>
<path fill="none" stroke="green" stroke-width="0.80729" d="M953.656,-77.8853C957.875,-73.7428 963.451,-68.9003 969.213,-65.6985 1015.27,-40.1028 1076.04,-26.1333 1109.48,-19.9063"/>
<polygon fill="green" stroke="green" stroke-width="0.80729" points="1110.49,-23.283 1119.72,-18.0857 1109.26,-16.3912 1110.49,-23.283"/>
</g>
<!-- &#45;18&#45;&gt;2 -->
<g id="edge68" class="edge"><title>&#45;18&#45;&gt;2</title>
<path fill="none" stroke="red" stroke-width="0.368045" d="M953.528,-77.6402C957.71,-73.4259 963.291,-68.593 969.213,-65.6985 1046.04,-28.1499 1075.1,-49.8075 1158.21,-29.6985 1165.86,-27.8493 1174.11,-25.5299 1181.53,-23.3209"/>
<polygon fill="red" stroke="red" stroke-width="0.368045" points="1182.78,-26.5984 1191.33,-20.3322 1180.74,-19.9032 1182.78,-26.5984"/>
</g>
<!-- &#45;18&#45;&gt;3 -->
<g id="edge69" class="edge"><title>&#45;18&#45;&gt;3</title>
<path fill="none" stroke="green" stroke-width="0.222839" d="M951.605,-77.8746C958.409,-67.7318 970.352,-49.9283 979.703,-35.9895"/>
<polygon fill="green" stroke="green" stroke-width="0.222839" points="982.728,-37.7615 985.393,-27.5071 976.915,-33.8618 982.728,-37.7615"/>
</g>
<!-- &#45;19 -->
<g id="node19" class="node"><title>&#45;19</title>
<polygon fill="lightgray" stroke="black" points="1007.71,-95.9117 978.713,-95.9117 978.713,-77.9117 1007.71,-77.9117 1007.71,-95.9117"/>
<text text-anchor="middle" x="993.213" y="-84.7117" font-family="Times New Roman,serif" font-size="9.00">&#45;19</text>
</g>
<!-- &#45;19&#45;&gt;0 -->
<g id="edge70" class="edge"><title>&#45;19&#45;&gt;0</title>
<path fill="none" stroke="green" stroke-width="0.173099" d="M987.707,-77.8746C980.758,-67.7318 968.561,-49.9283 959.011,-35.9895"/>
<polygon fill="green" stroke="green" stroke-width="0.173099" points="961.739,-33.7786 953.2,-27.5071 955.965,-37.7349 961.739,-33.7786"/>
</g>
<!-- &#45;19&#45;&gt;1 -->
<g id="edge71" class="edge"><title>&#45;19&#45;&gt;1</title>
<path fill="none" stroke="red" stroke-width="0.305608" d="M1001.21,-77.7294C1005.42,-73.7422 1010.81,-69.0889 1016.21,-65.6985 1046.71,-46.5652 1085.82,-31.6974 1110.45,-23.3508"/>
<polygon fill="red" stroke="red" stroke-width="0.305608" points="1111.66,-26.6383 1120.06,-20.1796 1109.47,-19.9912 1111.66,-26.6383"/>
</g>
<!-- &#45;19&#45;&gt;2 -->
<g id="edge72" class="edge"><title>&#45;19&#45;&gt;2</title>
<path fill="none" stroke="red" stroke-width="0.24155" d="M1000.6,-77.781C1004.8,-73.6079 1010.38,-68.7695 1016.21,-65.6985 1073.82,-35.3652 1095.42,-46.903 1158.21,-29.6985 1165.8,-27.6206 1174.03,-25.2377 1181.46,-23.0408"/>
<polygon fill="red" stroke="red" stroke-width="0.24155" points="1182.69,-26.3264 1191.27,-20.1104 1180.68,-19.6193 1182.69,-26.3264"/>
</g>
<!-- &#45;19&#45;&gt;3 -->
<g id="edge73" class="edge"><title>&#45;19&#45;&gt;3</title>
<path fill="none" stroke="red" stroke-width="0.267445" d="M993.213,-77.8746C993.213,-68.7202 993.213,-53.3256 993.213,-40.1641"/>
<polygon fill="red" stroke="red" stroke-width="0.267445" points="996.713,-39.8196 993.213,-29.8197 989.713,-39.8197 996.713,-39.8196"/>
</g>
<!-- &#45;20 -->
<g id="node20" class="node"><title>&#45;20</title>
<polygon fill="lightgray" stroke="black" points="1054.71,-95.9117 1025.71,-95.9117 1025.71,-77.9117 1054.71,-77.9117 1054.71,-95.9117"/>
<text text-anchor="middle" x="1040.21" y="-84.7117" font-family="Times New Roman,serif" font-size="9.00">&#45;20</text>
</g>
<!-- &#45;20&#45;&gt;0 -->
<g id="edge74" class="edge"><title>&#45;20&#45;&gt;0</title>
<path fill="none" stroke="red" stroke-width="0.348787" d="M1031.02,-77.8464C1026.62,-74.0647 1021.22,-69.5531 1016.21,-65.6985 999.766,-53.0375 980.451,-39.5618 966.122,-29.8177"/>
<polygon fill="red" stroke="red" stroke-width="0.348787" points="967.753,-26.6954 957.507,-23.9994 963.835,-32.4965 967.753,-26.6954"/>
</g>
<!-- &#45;20&#45;&gt;1 -->
<g id="edge75" class="edge"><title>&#45;20&#45;&gt;1</title>
<path fill="none" stroke="red" stroke-width="0.147587" d="M1048.98,-77.8088C1053.19,-74.0188 1058.37,-69.5112 1063.21,-65.6985 1079.62,-52.7888 1099.08,-39.2424 1113.47,-29.5348"/>
<polygon fill="red" stroke="red" stroke-width="0.147587" points="1115.75,-32.2232 1122.12,-23.7551 1111.86,-26.4042 1115.75,-32.2232"/>
</g>
<!-- &#45;20&#45;&gt;2 -->
<g id="edge76" class="edge"><title>&#45;20&#45;&gt;2</title>
<path fill="none" stroke="green" stroke-width="0.428839" d="M1048.13,-77.586C1052.31,-73.5622 1057.71,-68.9195 1063.21,-65.6985 1083.65,-53.7426 1146.33,-33.7282 1181.19,-23.0595"/>
<polygon fill="green" stroke="green" stroke-width="0.428839" points="1182.49,-26.3234 1191.04,-20.0679 1180.45,-19.6257 1182.49,-26.3234"/>
</g>
<!-- &#45;20&#45;&gt;3 -->
<g id="edge77" class="edge"><title>&#45;20&#45;&gt;3</title>
<path fill="none" stroke="green" stroke-width="0.62087" d="M1034.82,-77.8746C1028.02,-67.7318 1016.07,-49.9283 1006.72,-35.9895"/>
<polygon fill="green" stroke="green" stroke-width="0.62087" points="1009.51,-33.8618 1001.03,-27.5071 1003.7,-37.7615 1009.51,-33.8618"/>
</g>
<!-- &#45;21 -->
<g id="node21" class="node"><title>&#45;21</title>
<polygon fill="lightgray" stroke="black" points="1101.71,-95.9117 1072.71,-95.9117 1072.71,-77.9117 1101.71,-77.9117 1101.71,-95.9117"/>
<text text-anchor="middle" x="1087.21" y="-84.7117" font-family="Times New Roman,serif" font-size="9.00">&#45;21</text>
</g>
<!-- &#45;21&#45;&gt;0 -->
<g id="edge78" class="edge"><title>&#45;21&#45;&gt;0</title>
<path fill="none" stroke="green" stroke-width="0.131643" d="M1078.86,-77.6705C1074.47,-73.6682 1068.84,-69.0193 1063.21,-65.6985 1024.68,-42.9725 1009.6,-48.9381 969.213,-29.6985 968.377,-29.3002 967.531,-28.8836 966.681,-28.4535"/>
<polygon fill="green" stroke="green" stroke-width="0.131643" points="968.172,-25.2797 957.717,-23.5619 964.819,-31.4244 968.172,-25.2797"/>
</g>
<!-- &#45;21&#45;&gt;1 -->
<g id="edge79" class="edge"><title>&#45;21&#45;&gt;1</title>
<path fill="none" stroke="green" stroke-width="0.253087" d="M1092.6,-77.8746C1099.41,-67.7318 1111.35,-49.9283 1120.7,-35.9895"/>
<polygon fill="green" stroke="green" stroke-width="0.253087" points="1123.73,-37.7615 1126.39,-27.5071 1117.92,-33.8618 1123.73,-37.7615"/>
</g>
<!-- &#45;21&#45;&gt;2 -->
<g id="edge80" class="edge"><title>&#45;21&#45;&gt;2</title>
<path fill="none" stroke="red" stroke-width="0.154553" d="M1095.77,-77.5217C1099.93,-73.6688 1105.13,-69.1911 1110.21,-65.6985 1133.59,-49.6345 1162.77,-35.0438 1182.58,-25.8572"/>
<polygon fill="red" stroke="red" stroke-width="0.154553" points="1184.09,-29.0132 1191.74,-21.6827 1181.19,-22.643 1184.09,-29.0132"/>
</g>
<!-- &#45;21&#45;&gt;3 -->
<g id="edge81" class="edge"><title>&#45;21&#45;&gt;3</title>
<path fill="none" stroke="red" stroke-width="0.452798" d="M1078.01,-77.8614C1073.6,-74.083 1068.21,-69.5698 1063.21,-65.6985 1046.96,-53.1022 1027.92,-39.6216 1013.81,-29.8591"/>
<polygon fill="red" stroke="red" stroke-width="0.452798" points="1015.54,-26.806 1005.32,-24.0274 1011.58,-32.5753 1015.54,-26.806"/>
</g>
<!-- &#45;22 -->
<g id="node22" class="node"><title>&#45;22</title>
<polygon fill="lightgray" stroke="black" points="165.713,-95.9117 136.713,-95.9117 136.713,-77.9117 165.713,-77.9117 165.713,-95.9117"/>
<text text-anchor="middle" x="151.213" y="-84.7117" font-family="Times New Roman,serif" font-size="9.00">&#45;22</text>
</g>
<!-- &#45;22&#45;&gt;0 -->
<g id="edge82" class="edge"><title>&#45;22&#45;&gt;0</title>
<path fill="none" stroke="green" stroke-width="0.178726" d="M158.361,-77.7561C162.744,-73.3531 168.744,-68.2998 175.213,-65.6985 245.717,-37.3499 796.145,-20.0929 920.363,-16.5362"/>
<polygon fill="green" stroke="green" stroke-width="0.178726" points="920.523,-20.0331 930.42,-16.2516 920.325,-13.0359 920.523,-20.0331"/>
</g>
<!-- &#45;22&#45;&gt;3 -->
<g id="edge83" class="edge"><title>&#45;22&#45;&gt;3</title>
<path fill="none" stroke="red" stroke-width="0.150725" d="M158.342,-77.709C162.719,-73.2904 168.719,-68.2371 175.213,-65.6985 339.717,-1.39445 799.68,-79.2466 969.213,-29.6985 970.275,-29.3881 971.34,-29.0217 972.399,-28.6118"/>
<polygon fill="red" stroke="red" stroke-width="0.150725" points="974.112,-31.6692 981.514,-24.0896 971.001,-25.3985 974.112,-31.6692"/>
</g>
<!-- &#45;23 -->
<g id="node23" class="node"><title>&#45;23</title>
<polygon fill="lightgray" stroke="black" points="1148.71,-95.9117 1119.71,-95.9117 1119.71,-77.9117 1148.71,-77.9117 1148.71,-95.9117"/>
<text text-anchor="middle" x="1134.21" y="-84.7117" font-family="Times New Roman,serif" font-size="9.00">&#45;23</text>
</g>
<!-- &#45;23&#45;&gt;0 -->
<g id="edge84" class="edge"><title>&#45;23&#45;&gt;0</title>
<path fill="none" stroke="green" stroke-width="0.291278" d="M1126.44,-77.7954C1122.04,-73.6265 1116.22,-68.7876 1110.21,-65.6985 1052.7,-36.121 1029.11,-54.089 969.213,-29.6985 968.356,-29.3493 967.491,-28.9742 966.626,-28.5793"/>
<polygon fill="green" stroke="green" stroke-width="0.291278" points="968.073,-25.3861 957.589,-23.8515 964.827,-31.5885 968.073,-25.3861"/>
</g>
<!-- &#45;23&#45;&gt;1 -->
<g id="edge85" class="edge"><title>&#45;23&#45;&gt;1</title>
<path fill="none" stroke="red" stroke-width="0.280897" d="M1134.21,-77.8746C1134.21,-68.7202 1134.21,-53.3256 1134.21,-40.1641"/>
<polygon fill="red" stroke="red" stroke-width="0.280897" points="1137.71,-39.8196 1134.21,-29.8197 1130.71,-39.8197 1137.71,-39.8196"/>
</g>
<!-- &#45;23&#45;&gt;2 -->
<g id="edge86" class="edge"><title>&#45;23&#45;&gt;2</title>
<path fill="none" stroke="green" stroke-width="0.20082" d="M1142.36,-77.8746C1153.3,-67.0781 1173.04,-47.6015 1187.48,-33.3456"/>
<polygon fill="green" stroke="green" stroke-width="0.20082" points="1190.22,-35.5662 1194.87,-26.051 1185.3,-30.5836 1190.22,-35.5662"/>
</g>
<!-- &#45;23&#45;&gt;3 -->
<g id="edge87" class="edge"><title>&#45;23&#45;&gt;3</title>
<path fill="none" stroke="green" stroke-width="0.167063" d="M1125.8,-77.7582C1121.4,-73.7783 1115.78,-69.1229 1110.21,-65.6985 1079.77,-46.9756 1041.05,-31.9992 1016.69,-23.5173"/>
<polygon fill="green" stroke="green" stroke-width="0.167063" points="1017.79,-20.1946 1007.19,-20.2878 1015.53,-26.8217 1017.79,-20.1946"/>
</g>
<!-- &#45;24 -->
<g id="node24" class="node"><title>&#45;24</title>
<polygon fill="lightgray" stroke="black" points="1195.71,-95.9117 1166.71,-95.9117 1166.71,-77.9117 1195.71,-77.9117 1195.71,-95.9117"/>
<text text-anchor="middle" x="1181.21" y="-84.7117" font-family="Times New Roman,serif" font-size="9.00">&#45;24</text>
</g>
<!-- &#45;24&#45;&gt;0 -->
<g id="edge88" class="edge"><title>&#45;24&#45;&gt;0</title>
<path fill="none" stroke="green" stroke-width="0.214695" d="M1173.51,-77.6487C1169.13,-73.4368 1163.31,-68.6036 1157.21,-65.6985 1080.41,-29.1102 1048.94,-59.3719 969.213,-29.6985 968.345,-29.3755 967.472,-29.0227 966.6,-28.6466"/>
<polygon fill="green" stroke="green" stroke-width="0.214695" points="968.026,-25.4448 957.529,-24.0064 964.838,-31.6767 968.026,-25.4448"/>
</g>
<!-- &#45;24&#45;&gt;1 -->
<g id="edge89" class="edge"><title>&#45;24&#45;&gt;1</title>
<path fill="none" stroke="red" stroke-width="0.296105" d="M1175.82,-77.8746C1169.02,-67.7318 1157.07,-49.9283 1147.72,-35.9895"/>
<polygon fill="red" stroke="red" stroke-width="0.296105" points="1150.51,-33.8618 1142.03,-27.5071 1144.7,-37.7615 1150.51,-33.8618"/>
</g>
<!-- &#45;24&#45;&gt;2 -->
<g id="edge90" class="edge"><title>&#45;24&#45;&gt;2</title>
<path fill="none" stroke="green" stroke-width="0.25693" d="M1183.97,-77.8746C1187.22,-68.3653 1192.79,-52.1224 1197.4,-38.6437"/>
<polygon fill="green" stroke="green" stroke-width="0.25693" points="1200.77,-39.6272 1200.7,-29.0326 1194.15,-37.3587 1200.77,-39.6272"/>
</g>
<!-- &#45;24&#45;&gt;3 -->
<g id="edge91" class="edge"><title>&#45;24&#45;&gt;3</title>
<path fill="none" stroke="red" stroke-width="0.102529" d="M1173.39,-77.9028C1168.97,-73.7654 1163.15,-68.9223 1157.21,-65.6985 1111.4,-40.8169 1051.48,-26.6445 1018.22,-20.1766"/>
<polygon fill="red" stroke="red" stroke-width="0.102529" points="1018.5,-16.6674 1008.02,-18.2742 1017.21,-23.5487 1018.5,-16.6674"/>
</g>
<!-- &#45;25 -->
<g id="node25" class="node"><title>&#45;25</title>
<polygon fill="lightgray" stroke="black" points="1242.71,-95.9117 1213.71,-95.9117 1213.71,-77.9117 1242.71,-77.9117 1242.71,-95.9117"/>
<text text-anchor="middle" x="1228.21" y="-84.7117" font-family="Times New Roman,serif" font-size="9.00">&#45;25</text>
</g>
<!-- &#45;25&#45;&gt;0 -->
<g id="edge92" class="edge"><title>&#45;25&#45;&gt;0</title>
<path fill="none" stroke="green" stroke-width="0.617635" d="M1220.94,-77.5528C1216.77,-73.3128 1211.19,-68.4834 1205.21,-65.6985 1109.05,-20.8718 1069.33,-64.8195 969.213,-29.6985 968.339,-29.392 967.461,-29.0532 966.584,-28.6888"/>
<polygon fill="green" stroke="green" stroke-width="0.617635" points="967.999,-25.4822 957.494,-24.1037 964.846,-31.7322 967.999,-25.4822"/>
</g>
<!-- &#45;25&#45;&gt;1 -->
<g id="edge93" class="edge"><title>&#45;25&#45;&gt;1</title>
<path fill="none" stroke="red" stroke-width="0.188773" d="M1219.45,-77.8088C1215.24,-74.0188 1210.06,-69.5112 1205.21,-65.6985 1188.8,-52.7888 1169.34,-39.2424 1154.95,-29.5348"/>
<polygon fill="red" stroke="red" stroke-width="0.188773" points="1156.57,-26.4042 1146.31,-23.7551 1152.68,-32.2232 1156.57,-26.4042"/>
</g>
<!-- &#45;25&#45;&gt;2 -->
<g id="edge94" class="edge"><title>&#45;25&#45;&gt;2</title>
<path fill="none" stroke="green" stroke-width="0.107619" d="M1225.57,-77.8746C1222.47,-68.4226 1217.19,-52.3178 1212.78,-38.8876"/>
<polygon fill="green" stroke="green" stroke-width="0.107619" points="1216.07,-37.7027 1209.63,-29.2932 1209.42,-39.886 1216.07,-37.7027"/>
</g>
<!-- &#45;25&#45;&gt;3 -->
<g id="edge95" class="edge"><title>&#45;25&#45;&gt;3</title>
<path fill="none" stroke="green" stroke-width="0.202423" d="M1220.85,-77.7406C1216.65,-73.5556 1211.07,-68.7188 1205.21,-65.6985 1142.72,-33.4838 1059.16,-21.7675 1018.11,-17.7677"/>
<polygon fill="green" stroke="green" stroke-width="0.202423" points="1018.21,-14.263 1007.94,-16.8523 1017.58,-21.2348 1018.21,-14.263"/>
</g>
<!-- &#45;26 -->
<g id="node26" class="node"><title>&#45;26</title>
<polygon fill="lightgray" stroke="black" points="1289.71,-95.9117 1260.71,-95.9117 1260.71,-77.9117 1289.71,-77.9117 1289.71,-95.9117"/>
<text text-anchor="middle" x="1275.21" y="-84.7117" font-family="Times New Roman,serif" font-size="9.00">&#45;26</text>
</g>
<!-- &#45;26&#45;&gt;0 -->
<g id="edge96" class="edge"><title>&#45;26&#45;&gt;0</title>
<path fill="none" stroke="green" stroke-width="0.421907" d="M1268.37,-77.9035C1264.17,-73.5497 1258.42,-68.4964 1252.21,-65.6985 1136.64,-13.5627 1089.37,-70.1783 969.213,-29.6985 968.336,-29.4028 967.454,-29.0733 966.575,-28.7168"/>
<polygon fill="green" stroke="green" stroke-width="0.421907" points="967.982,-25.5072 957.472,-24.1679 964.853,-31.7689 967.982,-25.5072"/>
</g>
<!-- &#45;26&#45;&gt;1 -->
<g id="edge97" class="edge"><title>&#45;26&#45;&gt;1</title>
<path fill="none" stroke="green" stroke-width="0.152695" d="M1267.21,-77.7294C1263.01,-73.7422 1257.62,-69.0889 1252.21,-65.6985 1221.72,-46.5652 1182.61,-31.6974 1157.97,-23.3508"/>
<polygon fill="green" stroke="green" stroke-width="0.152695" points="1158.96,-19.9912 1148.37,-20.1796 1156.76,-26.6383 1158.96,-19.9912"/>
</g>
<!-- &#45;26&#45;&gt;2 -->
<g id="edge98" class="edge"><title>&#45;26&#45;&gt;2</title>
<path fill="none" stroke="red" stroke-width="0.380738" d="M1267.18,-77.8746C1256.4,-67.0781 1236.94,-47.6015 1222.69,-33.3456"/>
<polygon fill="red" stroke="red" stroke-width="0.380738" points="1224.95,-30.6514 1215.41,-26.051 1220,-35.599 1224.95,-30.6514"/>
</g>
<!-- &#45;26&#45;&gt;3 -->
<g id="edge99" class="edge"><title>&#45;26&#45;&gt;3</title>
<path fill="none" stroke="green" stroke-width="0.233197" stroke-dasharray="1,5" d="M1267.9,-77.6447C1263.71,-73.4317 1258.13,-68.5987 1252.21,-65.6985 1210.87,-45.4416 1074.66,-26.25 1018.14,-18.9494"/>
<polygon fill="green" stroke="green" stroke-width="0.233197" points="1018.31,-15.4431 1007.95,-17.6511 1017.43,-22.3869 1018.31,-15.4431"/>
</g>
<!-- &#45;27 -->
<g id="node27" class="node"><title>&#45;27</title>
<polygon fill="lightgray" stroke="black" points="298.713,-162.125 269.713,-162.125 269.713,-144.125 298.713,-144.125 298.713,-162.125"/>
<text text-anchor="middle" x="284.213" y="-150.925" font-family="Times New Roman,serif" font-size="9.00">&#45;27</text>
</g>
<!-- &#45;27&#45;&gt;0 -->
<g id="edge100" class="edge"><title>&#45;27&#45;&gt;0</title>
<path fill="none" stroke="green" stroke-width="0.112158" d="M269.578,-151.021C228.936,-147.622 116.23,-135.823 94.2132,-108.125 82.4799,-93.3639 81.2756,-79.4161 94.2132,-65.6985 123.288,-34.8711 781.651,-19.3006 919.891,-16.365"/>
<polygon fill="green" stroke="green" stroke-width="0.112158" points="920.367,-19.8559 930.291,-16.1473 920.22,-12.8574 920.367,-19.8559"/>
</g>
<!-- &#45;27&#45;&gt;1 -->
<g id="edge101" class="edge"><title>&#45;27&#45;&gt;1</title>
<path fill="none" stroke="red" stroke-width="0.935276" d="M298.949,-152.011C459.392,-150.733 1876.56,-138.595 1906.21,-108.125 1919.36,-94.612 1919.21,-79.3584 1906.21,-65.6985 1850.61,-7.26982 1260.73,-43.1916 1181.21,-29.6985 1173.46,-28.383 1165.18,-26.2118 1157.76,-23.9744"/>
<polygon fill="red" stroke="red" stroke-width="0.935276" points="1158.59,-20.5635 1147.99,-20.8497 1156.45,-27.2306 1158.59,-20.5635"/>
</g>
<!-- &#45;27&#45;&gt;2 -->
<g id="edge102" class="edge"><title>&#45;27&#45;&gt;2</title>
<path fill="none" stroke="red" stroke-width="0.379591" d="M298.762,-152.041C464.875,-151.046 1998.18,-140.977 2030.21,-108.125 2043.38,-94.6247 2043.14,-79.428 2030.21,-65.6985 2002.08,-35.8155 1365.14,-19.5273 1230.19,-16.4052"/>
<polygon fill="red" stroke="red" stroke-width="0.379591" points="1230.1,-12.9024 1220.02,-16.1731 1229.94,-19.9006 1230.1,-12.9024"/>
</g>
<!-- &#45;27&#45;&gt;3 -->
<g id="edge103" class="edge"><title>&#45;27&#45;&gt;3</title>
<path fill="none" stroke="green" stroke-width="0.37204" d="M283.661,-144.067C282.956,-126.57 284.062,-85.1159 308.213,-65.6985 365.537,-19.6108 898.708,-50.6531 969.213,-29.6985 970.274,-29.3833 971.338,-29.0129 972.395,-28.5998"/>
<polygon fill="green" stroke="green" stroke-width="0.37204" points="974.114,-31.6542 981.507,-24.0658 970.995,-25.3872 974.114,-31.6542"/>
</g>
<!-- 420 -->
<g id="node45" class="node"><title>420</title>
<ellipse fill="white" stroke="black" cx="21.2132" cy="-86.9117" rx="21.4286" ry="21.4286"/>
<text text-anchor="middle" x="21.2132" y="-84.7117" font-family="Times New Roman,serif" font-size="9.00">420</text>
</g>
<!-- &#45;27&#45;&gt;420 -->
<g id="edge154" class="edge"><title>&#45;27&#45;&gt;420</title>
<path fill="none" stroke="green" stroke-width="0.3" d="M269.622,-150.999C232.782,-147.8 133.451,-136.949 56.2132,-108.125 53.2836,-107.032 50.3134,-105.706 47.4055,-104.263"/>
<polygon fill="green" stroke="green" stroke-width="0.3" points="48.9113,-101.098 38.4549,-99.3906 45.5643,-107.246 48.9113,-101.098"/>
</g>
<!-- &#45;28 -->
<g id="node28" class="node"><title>&#45;28</title>
<polygon fill="lightgray" stroke="black" points="1336.71,-95.9117 1307.71,-95.9117 1307.71,-77.9117 1336.71,-77.9117 1336.71,-95.9117"/>
<text text-anchor="middle" x="1322.21" y="-84.7117" font-family="Times New Roman,serif" font-size="9.00">&#45;28</text>
</g>
<!-- &#45;28&#45;&gt;0 -->
<g id="edge104" class="edge"><title>&#45;28&#45;&gt;0</title>
<path fill="none" stroke="green" stroke-width="0.824675" d="M1315.38,-77.8619C1311.19,-73.4942 1305.44,-68.4409 1299.21,-65.6985 1164.19,-6.23614 1109.44,-75.5506 969.213,-29.6985 968.333,-29.4107 967.449,-29.0879 966.568,-28.7369"/>
<polygon fill="green" stroke="green" stroke-width="0.824675" points="967.97,-25.5253 957.456,-24.2143 964.858,-31.7954 967.97,-25.5253"/>
</g>
<!-- &#45;28&#45;&gt;1 -->
<g id="edge105" class="edge"><title>&#45;28&#45;&gt;1</title>
<path fill="none" stroke="green" stroke-width="0.24037" d="M1314.77,-77.8853C1310.55,-73.7428 1304.98,-68.9003 1299.21,-65.6985 1296.04,-63.9365 1202.97,-36.2314 1158.04,-22.9046"/>
<polygon fill="green" stroke="green" stroke-width="0.24037" points="1158.81,-19.4839 1148.23,-19.9975 1156.82,-26.1953 1158.81,-19.4839"/>
</g>
<!-- &#45;28&#45;&gt;2 -->
<g id="edge106" class="edge"><title>&#45;28&#45;&gt;2</title>
<path fill="none" stroke="green" stroke-width="0.265868" d="M1313.65,-77.5316C1309.49,-73.6809 1304.29,-69.2022 1299.21,-65.6985 1276.17,-49.7894 1247.46,-35.2435 1227.87,-26.024"/>
<polygon fill="green" stroke="green" stroke-width="0.265868" points="1229.08,-22.7285 1218.54,-21.7093 1226.15,-29.0824 1229.08,-22.7285"/>
</g>
<!-- &#45;28&#45;&gt;3 -->
<g id="edge107" class="edge"><title>&#45;28&#45;&gt;3</title>
<path fill="none" stroke="green" stroke-width="0.109407" stroke-dasharray="1,5" d="M1314.93,-77.5768C1310.76,-73.344 1305.17,-68.5136 1299.21,-65.6985 1273.86,-53.7224 1087,-28.2103 1018.39,-19.1367"/>
<polygon fill="green" stroke="green" stroke-width="0.109407" points="1018.45,-15.6145 1008.08,-17.7793 1017.53,-22.5546 1018.45,-15.6145"/>
</g>
<!-- &#45;29 -->
<g id="node29" class="node"><title>&#45;29</title>
<polygon fill="lightgray" stroke="black" points="1896.71,-95.9117 1867.71,-95.9117 1867.71,-77.9117 1896.71,-77.9117 1896.71,-95.9117"/>
<text text-anchor="middle" x="1882.21" y="-84.7117" font-family="Times New Roman,serif" font-size="9.00">&#45;29</text>
</g>
<!-- &#45;29&#45;&gt;1 -->
<g id="edge108" class="edge"><title>&#45;29&#45;&gt;1</title>
<path fill="none" stroke="red" stroke-width="0.156241" d="M1875.08,-77.7281C1870.7,-73.3158 1864.7,-68.2625 1858.21,-65.6985 1718.11,-10.3009 1329.7,-55.1633 1181.21,-29.6985 1173.46,-28.3694 1165.18,-26.1944 1157.76,-23.9578"/>
<polygon fill="red" stroke="red" stroke-width="0.156241" points="1158.59,-20.5467 1148,-20.8365 1156.46,-27.2145 1158.59,-20.5467"/>
</g>
<!-- &#45;29&#45;&gt;2 -->
<g id="edge109" class="edge"><title>&#45;29&#45;&gt;2</title>
<path fill="none" stroke="green" stroke-width="0.198674" stroke-dasharray="1,5" d="M1875.05,-77.784C1870.67,-73.3904 1864.67,-68.3371 1858.21,-65.6985 1741.32,-17.9119 1335.61,-15.5228 1230.33,-15.7268"/>
<polygon fill="green" stroke="green" stroke-width="0.198674" points="1230.3,-12.2268 1220.31,-15.7563 1230.32,-19.2267 1230.3,-12.2268"/>
</g>
<!-- &#45;29&#45;&gt;3 -->
<g id="edge110" class="edge"><title>&#45;29&#45;&gt;3</title>
<path fill="none" stroke="green" stroke-width="0.10571" d="M1875.08,-77.7158C1870.7,-73.2994 1864.7,-68.2461 1858.21,-65.6985 1703.3,-4.89644 1276.06,-43.4878 1110.21,-29.6985 1078.36,-27.0502 1041.8,-22.4753 1018.15,-19.3122"/>
<polygon fill="green" stroke="green" stroke-width="0.10571" points="1018.34,-15.8051 1007.96,-17.9289 1017.39,-22.7415 1018.34,-15.8051"/>
</g>
<!-- &#45;30 -->
<g id="node30" class="node"><title>&#45;30</title>
<polygon fill="lightgray" stroke="black" points="1383.71,-95.9117 1354.71,-95.9117 1354.71,-77.9117 1383.71,-77.9117 1383.71,-95.9117"/>
<text text-anchor="middle" x="1369.21" y="-84.7117" font-family="Times New Roman,serif" font-size="9.00">&#45;30</text>
</g>
<!-- &#45;30&#45;&gt;0 -->
<g id="edge111" class="edge"><title>&#45;30&#45;&gt;0</title>
<path fill="none" stroke="green" stroke-width="0.222107" d="M1362.4,-77.8304C1358.21,-73.4522 1352.46,-68.3989 1346.21,-65.6985 1191.72,1.10111 1129.54,-80.9312 969.213,-29.6985 968.159,-29.3617 967.101,-28.9736 966.048,-28.5463"/>
<polygon fill="green" stroke="green" stroke-width="0.222107" points="967.457,-25.337 956.952,-23.9596 964.305,-31.5873 967.457,-25.337"/>
</g>
<!-- &#45;30&#45;&gt;1 -->
<g id="edge112" class="edge"><title>&#45;30&#45;&gt;1</title>
<path fill="none" stroke="red" stroke-width="0.109653" d="M1361.87,-77.7028C1357.68,-73.5068 1352.1,-68.6715 1346.21,-65.6985 1279.22,-31.8457 1253.93,-48.3181 1181.21,-29.6985 1173.6,-27.7479 1165.35,-25.4002 1157.93,-23.1966"/>
<polygon fill="red" stroke="red" stroke-width="0.109653" points="1158.71,-19.7773 1148.13,-20.2338 1156.68,-26.4778 1158.71,-19.7773"/>
</g>
<!-- &#45;30&#45;&gt;2 -->
<g id="edge113" class="edge"><title>&#45;30&#45;&gt;2</title>
<path fill="none" stroke="red" stroke-width="0.218784" d="M1361.3,-77.5912C1357.11,-73.5687 1351.72,-68.9256 1346.21,-65.6985 1308.11,-43.3548 1258.39,-28.6947 1229.31,-21.3726"/>
<polygon fill="red" stroke="red" stroke-width="0.218784" points="1230.14,-17.9713 1219.59,-19.0063 1228.48,-24.7727 1230.14,-17.9713"/>
</g>
<!-- &#45;30&#45;&gt;3 -->
<g id="edge114" class="edge"><title>&#45;30&#45;&gt;3</title>
<path fill="none" stroke="red" stroke-width="0.12367" d="M1361.95,-77.5263C1357.79,-73.2787 1352.2,-68.4503 1346.21,-65.6985 1331.24,-58.8185 1096.76,-28.8715 1018.45,-19.0105"/>
<polygon fill="red" stroke="red" stroke-width="0.12367" points="1018.44,-15.4809 1008.08,-17.7065 1017.56,-22.4263 1018.44,-15.4809"/>
</g>
<!-- &#45;31 -->
<g id="node31" class="node"><title>&#45;31</title>
<polygon fill="lightgray" stroke="black" points="1430.71,-95.9117 1401.71,-95.9117 1401.71,-77.9117 1430.71,-77.9117 1430.71,-95.9117"/>
<text text-anchor="middle" x="1416.21" y="-84.7117" font-family="Times New Roman,serif" font-size="9.00">&#45;31</text>
</g>
<!-- &#45;31&#45;&gt;0 -->
<g id="edge115" class="edge"><title>&#45;31&#45;&gt;0</title>
<path fill="none" stroke="red" stroke-width="0.236039" d="M1409.41,-77.8058C1405.22,-73.4194 1399.47,-68.3661 1393.21,-65.6985 1219.23,8.44546 1149.66,-86.3172 969.213,-29.6985 968.158,-29.3672 967.098,-28.9837 966.043,-28.56"/>
<polygon fill="red" stroke="red" stroke-width="0.236039" points="967.45,-25.3498 956.943,-23.9869 964.307,-31.6045 967.45,-25.3498"/>
</g>
<!-- &#45;31&#45;&gt;1 -->
<g id="edge116" class="edge"><title>&#45;31&#45;&gt;1</title>
<path fill="none" stroke="green" stroke-width="0.280505" stroke-dasharray="1,5" d="M1408.92,-77.5928C1404.75,-73.3646 1399.16,-68.5336 1393.21,-65.6985 1306.93,-24.5935 1274.32,-51.2427 1181.21,-29.6985 1173.55,-27.9259 1165.3,-25.6277 1157.87,-23.4146"/>
<polygon fill="green" stroke="green" stroke-width="0.280505" points="1158.67,-19.9982 1148.08,-20.4064 1156.61,-26.6894 1158.67,-19.9982"/>
</g>
<!-- &#45;31&#45;&gt;2 -->
<g id="edge117" class="edge"><title>&#45;31&#45;&gt;2</title>
<path fill="none" stroke="green" stroke-width="0.216307" d="M1408.81,-77.8063C1404.61,-73.6407 1399.03,-68.8013 1393.21,-65.6985 1339.12,-36.8382 1267.18,-23.8398 1229.93,-18.7213"/>
<polygon fill="green" stroke="green" stroke-width="0.216307" points="1230.33,-15.2439 1219.96,-17.4282 1229.42,-22.1857 1230.33,-15.2439"/>
</g>
<!-- &#45;31&#45;&gt;3 -->
<g id="edge118" class="edge"><title>&#45;31&#45;&gt;3</title>
<path fill="none" stroke="red" stroke-width="0.202537" d="M1409.37,-77.8976C1405.17,-73.5418 1399.42,-68.4885 1393.21,-65.6985 1388.89,-63.755 1105.19,-29.3734 1018.26,-18.8711"/>
<polygon fill="red" stroke="red" stroke-width="0.202537" points="1018.57,-15.3832 1008.22,-17.659 1017.73,-22.3327 1018.57,-15.3832"/>
</g>
<!-- &#45;32 -->
<g id="node32" class="node"><title>&#45;32</title>
<polygon fill="lightgray" stroke="black" points="1477.71,-95.9117 1448.71,-95.9117 1448.71,-77.9117 1477.71,-77.9117 1477.71,-95.9117"/>
<text text-anchor="middle" x="1463.21" y="-84.7117" font-family="Times New Roman,serif" font-size="9.00">&#45;32</text>
</g>
<!-- &#45;32&#45;&gt;0 -->
<g id="edge119" class="edge"><title>&#45;32&#45;&gt;0</title>
<path fill="none" stroke="green" stroke-width="0.201654" d="M1456.42,-77.786C1452.23,-73.393 1446.48,-68.3397 1440.21,-65.6985 1246.73,15.7947 1169.79,-91.707 969.213,-29.6985 968.156,-29.3717 967.095,-28.9918 966.04,-28.5711"/>
<polygon fill="green" stroke="green" stroke-width="0.201654" points="967.445,-25.3602 956.936,-24.0087 964.308,-31.6183 967.445,-25.3602"/>
</g>
<!-- &#45;32&#45;&gt;1 -->
<g id="edge120" class="edge"><title>&#45;32&#45;&gt;1</title>
<path fill="none" stroke="red" stroke-width="0.127782" d="M1455.95,-77.5211C1451.79,-73.2719 1446.21,-68.4437 1440.21,-65.6985 1334.55,-17.2978 1294.82,-54.1903 1181.21,-29.6985 1173.53,-28.0414 1165.26,-25.7753 1157.84,-23.5561"/>
<polygon fill="red" stroke="red" stroke-width="0.127782" points="1158.65,-20.1412 1148.06,-20.5184 1156.57,-26.8264 1158.65,-20.1412"/>
</g>
<!-- &#45;32&#45;&gt;2 -->
<g id="edge121" class="edge"><title>&#45;32&#45;&gt;2</title>
<path fill="none" stroke="green" stroke-width="0.331285" d="M1455.87,-77.6892C1451.69,-73.4892 1446.11,-68.6545 1440.21,-65.6985 1369.59,-30.2674 1274.8,-19.9768 1230.29,-17.0209"/>
<polygon fill="green" stroke="green" stroke-width="0.331285" points="1230.29,-13.5149 1220.1,-16.4166 1229.87,-20.5026 1230.29,-13.5149"/>
</g>
<!-- &#45;32&#45;&gt;3 -->
<g id="edge122" class="edge"><title>&#45;32&#45;&gt;3</title>
<path fill="none" stroke="red" stroke-width="0.41742" d="M1456.38,-77.8619C1452.19,-73.4942 1446.44,-68.4409 1440.21,-65.6985 1305.19,-6.23614 1256.81,-46.3701 1110.21,-29.6985 1078.46,-26.0869 1041.88,-21.7246 1018.2,-18.8735"/>
<polygon fill="red" stroke="red" stroke-width="0.41742" points="1018.33,-15.3646 1007.98,-17.6416 1017.49,-22.3142 1018.33,-15.3646"/>
</g>
<!-- &#45;33 -->
<g id="node33" class="node"><title>&#45;33</title>
<polygon fill="lightgray" stroke="black" points="1524.71,-95.9117 1495.71,-95.9117 1495.71,-77.9117 1524.71,-77.9117 1524.71,-95.9117"/>
<text text-anchor="middle" x="1510.21" y="-84.7117" font-family="Times New Roman,serif" font-size="9.00">&#45;33</text>
</g>
<!-- &#45;33&#45;&gt;0 -->
<g id="edge123" class="edge"><title>&#45;33&#45;&gt;0</title>
<path fill="none" stroke="green" stroke-width="0.49027" stroke-dasharray="1,5" d="M1503.42,-77.7698C1499.24,-73.3714 1493.49,-68.3181 1487.21,-65.6985 1274.22,23.1475 1189.93,-97.0995 969.213,-29.6985 968.155,-29.3753 967.093,-28.9985 966.037,-28.5801"/>
<polygon fill="green" stroke="green" stroke-width="0.49027" points="967.44,-25.3687 956.931,-24.0267 964.31,-31.6296 967.44,-25.3687"/>
</g>
<!-- &#45;33&#45;&gt;1 -->
<g id="edge124" class="edge"><title>&#45;33&#45;&gt;1</title>
<path fill="none" stroke="red" stroke-width="0.267837" d="M1503.37,-77.8816C1499.18,-73.5205 1493.43,-68.4672 1487.21,-65.6985 1362.12,-9.979 1315.37,-57.1497 1181.21,-29.6985 1173.51,-28.1222 1165.24,-25.8785 1157.82,-23.655"/>
<polygon fill="red" stroke="red" stroke-width="0.267837" points="1158.63,-20.2412 1148.04,-20.5968 1156.54,-26.9221 1158.63,-20.2412"/>
</g>
<!-- &#45;33&#45;&gt;2 -->
<g id="edge125" class="edge"><title>&#45;33&#45;&gt;2</title>
<path fill="none" stroke="red" stroke-width="0.285397" stroke-dasharray="1,5" d="M1502.91,-77.6088C1498.74,-73.3853 1493.15,-68.5537 1487.21,-65.6985 1399.54,-23.5667 1281.17,-16.7174 1230.23,-15.8296"/>
<polygon fill="red" stroke="red" stroke-width="0.285397" points="1230.18,-12.329 1220.14,-15.7189 1230.1,-19.3286 1230.18,-12.329"/>
</g>
<!-- &#45;33&#45;&gt;3 -->
<g id="edge126" class="edge"><title>&#45;33&#45;&gt;3</title>
<path fill="none" stroke="red" stroke-width="0.437655" d="M1503.4,-77.8304C1499.21,-73.4522 1493.46,-68.3989 1487.21,-65.6985 1409.97,-32.2987 1193.9,-38.6455 1110.21,-29.6985 1078.43,-26.3007 1041.86,-21.8912 1018.18,-18.9709"/>
<polygon fill="red" stroke="red" stroke-width="0.437655" points="1018.33,-15.4624 1007.98,-17.7054 1017.47,-22.4092 1018.33,-15.4624"/>
</g>
<!-- &#45;34 -->
<g id="node34" class="node"><title>&#45;34</title>
<polygon fill="lightgray" stroke="black" points="1571.71,-95.9117 1542.71,-95.9117 1542.71,-77.9117 1571.71,-77.9117 1571.71,-95.9117"/>
<text text-anchor="middle" x="1557.21" y="-84.7117" font-family="Times New Roman,serif" font-size="9.00">&#45;34</text>
</g>
<!-- &#45;34&#45;&gt;0 -->
<g id="edge127" class="edge"><title>&#45;34&#45;&gt;0</title>
<path fill="none" stroke="green" stroke-width="0.183406" d="M1550.43,-77.7562C1546.25,-73.3533 1540.5,-68.3 1534.21,-65.6985 1417.96,-17.5977 1089.64,-66.0963 969.213,-29.6985 968.154,-29.3784 967.092,-29.004 966.035,-28.5877"/>
<polygon fill="green" stroke="green" stroke-width="0.183406" points="967.437,-25.3758 956.926,-24.0417 964.311,-31.639 967.437,-25.3758"/>
</g>
<!-- &#45;34&#45;&gt;1 -->
<g id="edge128" class="edge"><title>&#45;34&#45;&gt;1</title>
<path fill="none" stroke="green" stroke-width="0.156558" d="M1550.39,-77.8455C1546.2,-73.4723 1540.45,-68.419 1534.21,-65.6985 1389.66,-2.64664 1335.95,-60.1157 1181.21,-29.6985 1173.5,-28.1818 1165.23,-25.9548 1157.81,-23.7281"/>
<polygon fill="green" stroke="green" stroke-width="0.156558" points="1158.62,-20.315 1148.03,-20.6546 1156.52,-26.9928 1158.62,-20.315"/>
</g>
<!-- &#45;34&#45;&gt;2 -->
<g id="edge129" class="edge"><title>&#45;34&#45;&gt;2</title>
<path fill="none" stroke="green" stroke-width="0.103046" d="M1549.94,-77.5504C1545.77,-73.3098 1540.19,-68.4804 1534.21,-65.6985 1479.89,-40.4094 1297.56,-23.3718 1230.36,-17.8191"/>
<polygon fill="green" stroke="green" stroke-width="0.103046" points="1230.5,-14.319 1220.25,-16.9991 1229.93,-21.2961 1230.5,-14.319"/>
</g>
<!-- &#45;34&#45;&gt;3 -->
<g id="edge130" class="edge"><title>&#45;34&#45;&gt;3</title>
<path fill="none" stroke="red" stroke-width="0.221015" d="M1550.41,-77.8058C1546.22,-73.4194 1540.47,-68.3661 1534.21,-65.6985 1447.22,-28.6265 1204.29,-39.2576 1110.21,-29.6985 1078.42,-26.4676 1041.85,-22.0213 1018.18,-19.0469"/>
<polygon fill="red" stroke="red" stroke-width="0.221015" points="1018.33,-15.5387 1007.97,-17.7551 1017.45,-22.4833 1018.33,-15.5387"/>
</g>
<!-- &#45;35 -->
<g id="node35" class="node"><title>&#45;35</title>
<polygon fill="lightgray" stroke="black" points="255.713,-95.9117 226.713,-95.9117 226.713,-77.9117 255.713,-77.9117 255.713,-95.9117"/>
<text text-anchor="middle" x="241.213" y="-84.7117" font-family="Times New Roman,serif" font-size="9.00">&#45;35</text>
</g>
<!-- &#45;35&#45;&gt;0 -->
<g id="edge131" class="edge"><title>&#45;35&#45;&gt;0</title>
<path fill="none" stroke="green" stroke-width="0.233168" d="M250.161,-77.7766C255.561,-73.3805 262.811,-68.3272 270.213,-65.6985 393.47,-21.9293 812.811,-16.5873 920.066,-15.9383"/>
<polygon fill="green" stroke="green" stroke-width="0.233168" points="920.272,-19.4374 930.254,-15.8856 920.236,-12.4375 920.272,-19.4374"/>
</g>
<!-- &#45;35&#45;&gt;1 -->
<g id="edge132" class="edge"><title>&#45;35&#45;&gt;1</title>
<path fill="none" stroke="red" stroke-width="0.113377" d="M256.01,-82.2138C275.429,-77.524 310.64,-69.5814 341.213,-65.6985 639.686,-27.7922 717.442,-55.3954 1017.21,-29.6985 1049.06,-26.9688 1085.62,-22.4118 1109.27,-19.2751"/>
<polygon fill="red" stroke="red" stroke-width="0.113377" points="1110.02,-22.7055 1119.47,-17.9046 1109.09,-15.7678 1110.02,-22.7055"/>
</g>
<!-- &#45;35&#45;&gt;3 -->
<g id="edge133" class="edge"><title>&#45;35&#45;&gt;3</title>
<path fill="none" stroke="red" stroke-width="0.182763" d="M250.14,-77.7147C255.532,-73.2979 262.782,-68.2446 270.213,-65.6985 564.498,35.1295 670.895,-117.881 969.213,-29.6985 970.274,-29.3848 971.338,-29.0158 972.396,-28.6037"/>
<polygon fill="red" stroke="red" stroke-width="0.182763" points="974.113,-31.6591 981.51,-24.0735 970.997,-25.3908 974.113,-31.6591"/>
</g>
<!-- &#45;36 -->
<g id="node36" class="node"><title>&#45;36</title>
<polygon fill="lightgray" stroke="black" points="1618.71,-95.9117 1589.71,-95.9117 1589.71,-77.9117 1618.71,-77.9117 1618.71,-95.9117"/>
<text text-anchor="middle" x="1604.21" y="-84.7117" font-family="Times New Roman,serif" font-size="9.00">&#45;36</text>
</g>
<!-- &#45;36&#45;&gt;0 -->
<g id="edge134" class="edge"><title>&#45;36&#45;&gt;0</title>
<path fill="none" stroke="red" stroke-width="0.146316" stroke-dasharray="1,5" d="M1597.43,-77.7447C1593.26,-73.338 1587.51,-68.2847 1581.21,-65.6985 1455.2,-13.919 1099.72,-68.7943 969.213,-29.6985 968.153,-29.381 967.09,-29.0087 966.033,-28.5941"/>
<polygon fill="red" stroke="red" stroke-width="0.146316" points="967.434,-25.3818 956.922,-24.0544 964.312,-31.6471 967.434,-25.3818"/>
</g>
<!-- &#45;36&#45;&gt;1 -->
<g id="edge135" class="edge"><title>&#45;36&#45;&gt;1</title>
<path fill="none" stroke="red" stroke-width="0.789677" d="M1597.4,-77.8177C1593.22,-73.4352 1587.47,-68.3819 1581.21,-65.6985 1417.18,4.69443 1356.56,-63.0859 1181.21,-29.6985 1173.49,-28.2277 1165.21,-26.0133 1157.8,-23.7842"/>
<polygon fill="red" stroke="red" stroke-width="0.789677" points="1158.61,-20.3717 1148.02,-20.6991 1156.5,-27.047 1158.61,-20.3717"/>
</g>
<!-- &#45;36&#45;&gt;2 -->
<g id="edge136" class="edge"><title>&#45;36&#45;&gt;2</title>
<path fill="none" stroke="red" stroke-width="0.365614" d="M1596.96,-77.506C1592.8,-73.2524 1587.21,-68.4248 1581.21,-65.6985 1518.06,-37.0084 1304.19,-21.7782 1230.45,-17.2853"/>
<polygon fill="red" stroke="red" stroke-width="0.365614" points="1230.43,-13.7781 1220.24,-16.6778 1230.02,-20.7657 1230.43,-13.7781"/>
</g>
<!-- &#45;36&#45;&gt;3 -->
<g id="edge137" class="edge"><title>&#45;36&#45;&gt;3</title>
<path fill="none" stroke="green" stroke-width="0.29472" d="M1597.42,-77.786C1593.23,-73.393 1587.48,-68.3397 1581.21,-65.6985 1484.47,-24.9519 1214.69,-39.8703 1110.21,-29.6985 1078.4,-26.6015 1041.84,-22.1256 1018.17,-19.1078"/>
<polygon fill="green" stroke="green" stroke-width="0.29472" points="1018.33,-15.5999 1007.97,-17.7951 1017.44,-22.5427 1018.33,-15.5999"/>
</g>
<!-- &#45;37 -->
<g id="node37" class="node"><title>&#45;37</title>
<polygon fill="lightgray" stroke="black" points="1665.71,-95.9117 1636.71,-95.9117 1636.71,-77.9117 1665.71,-77.9117 1665.71,-95.9117"/>
<text text-anchor="middle" x="1651.21" y="-84.7117" font-family="Times New Roman,serif" font-size="9.00">&#45;37</text>
</g>
<!-- &#45;37&#45;&gt;0 -->
<g id="edge138" class="edge"><title>&#45;37&#45;&gt;0</title>
<path fill="none" stroke="green" stroke-width="0.147443" d="M1644.44,-77.7348C1640.26,-73.3248 1634.51,-68.2715 1628.21,-65.6985 1492.44,-10.2395 1109.79,-71.4929 969.213,-29.6985 968.153,-29.3832 967.089,-29.0127 966.031,-28.5996"/>
<polygon fill="green" stroke="green" stroke-width="0.147443" points="967.431,-25.387 956.919,-24.0654 964.313,-31.6539 967.431,-25.387"/>
</g>
<!-- &#45;37&#45;&gt;1 -->
<g id="edge139" class="edge"><title>&#45;37&#45;&gt;1</title>
<path fill="none" stroke="red" stroke-width="0.109247" d="M1644.41,-77.7956C1640.23,-73.4058 1634.48,-68.3525 1628.21,-65.6985 1444.69,12.0414 1377.18,-66.0589 1181.21,-29.6985 1173.48,-28.264 1165.21,-26.0597 1157.79,-23.8287"/>
<polygon fill="red" stroke="red" stroke-width="0.109247" points="1158.6,-20.4166 1148.01,-20.7343 1156.49,-27.09 1158.6,-20.4166"/>
</g>
<!-- &#45;37&#45;&gt;2 -->
<g id="edge140" class="edge"><title>&#45;37&#45;&gt;2</title>
<path fill="none" stroke="green" stroke-width="0.431058" d="M1644.37,-77.8821C1640.18,-73.5211 1634.43,-68.4678 1628.21,-65.6985 1556.12,-33.5783 1310.16,-20.3649 1230.4,-16.8604"/>
<polygon fill="green" stroke="green" stroke-width="0.431058" points="1230.43,-13.3584 1220.29,-16.4294 1230.13,-20.3521 1230.43,-13.3584"/>
</g>
<!-- &#45;37&#45;&gt;3 -->
<g id="edge141" class="edge"><title>&#45;37&#45;&gt;3</title>
<path fill="none" stroke="red" stroke-width="0.649596" d="M1644.42,-77.7698C1640.24,-73.3714 1634.49,-68.3181 1628.21,-65.6985 1521.72,-21.2755 1225.1,-40.4836 1110.21,-29.6985 1078.39,-26.7112 1041.83,-22.2111 1018.17,-19.1578"/>
<polygon fill="red" stroke="red" stroke-width="0.649596" points="1018.33,-15.6501 1007.96,-17.8278 1017.43,-22.5913 1018.33,-15.6501"/>
</g>
<!-- &#45;38 -->
<g id="node38" class="node"><title>&#45;38</title>
<polygon fill="lightgray" stroke="black" points="1712.71,-95.9117 1683.71,-95.9117 1683.71,-77.9117 1712.71,-77.9117 1712.71,-95.9117"/>
<text text-anchor="middle" x="1698.21" y="-84.7117" font-family="Times New Roman,serif" font-size="9.00">&#45;38</text>
</g>
<!-- &#45;38&#45;&gt;0 -->
<g id="edge142" class="edge"><title>&#45;38&#45;&gt;0</title>
<path fill="none" stroke="green" stroke-width="0.216201" d="M1691.44,-77.7263C1687.27,-73.3134 1681.52,-68.2601 1675.21,-65.6985 1529.68,-6.5593 1119.87,-74.192 969.213,-29.6985 968.152,-29.3851 967.088,-29.0162 966.03,-28.6044"/>
<polygon fill="green" stroke="green" stroke-width="0.216201" points="967.429,-25.3915 956.916,-24.0748 964.313,-31.6599 967.429,-25.3915"/>
</g>
<!-- &#45;38&#45;&gt;1 -->
<g id="edge143" class="edge"><title>&#45;38&#45;&gt;1</title>
<path fill="none" stroke="green" stroke-width="0.210553" d="M1691.42,-77.7777C1687.24,-73.3819 1681.49,-68.3286 1675.21,-65.6985 1573.7,-23.153 1289.51,-49.3662 1181.21,-29.6985 1173.48,-28.2934 1165.2,-26.0974 1157.78,-23.8647"/>
<polygon fill="green" stroke="green" stroke-width="0.210553" points="1158.6,-20.4529 1148.01,-20.7629 1156.48,-27.1248 1158.6,-20.4529"/>
</g>
<!-- &#45;38&#45;&gt;2 -->
<g id="edge144" class="edge"><title>&#45;38&#45;&gt;2</title>
<path fill="none" stroke="red" stroke-width="0.118539" d="M1691.39,-77.8549C1687.19,-73.4849 1681.44,-68.4316 1675.21,-65.6985 1594.05,-30.0983 1315.17,-19.0835 1230.07,-16.5118"/>
<polygon fill="red" stroke="red" stroke-width="0.118539" points="1230.13,-13.0121 1220.03,-16.221 1229.92,-20.0091 1230.13,-13.0121"/>
</g>
<!-- &#45;38&#45;&gt;3 -->
<g id="edge145" class="edge"><title>&#45;38&#45;&gt;3</title>
<path fill="none" stroke="red" stroke-width="0.132702" d="M1691.43,-77.7562C1687.25,-73.3533 1681.5,-68.3 1675.21,-65.6985 1558.96,-17.5977 1235.51,-41.0971 1110.21,-29.6985 1078.38,-26.8028 1041.82,-22.2825 1018.16,-19.1995"/>
<polygon fill="red" stroke="red" stroke-width="0.132702" points="1018.33,-15.692 1007.96,-17.8551 1017.42,-22.6319 1018.33,-15.692"/>
</g>
<!-- &#45;39 -->
<g id="node39" class="node"><title>&#45;39</title>
<polygon fill="lightgray" stroke="black" points="1759.71,-95.9117 1730.71,-95.9117 1730.71,-77.9117 1759.71,-77.9117 1759.71,-95.9117"/>
<text text-anchor="middle" x="1745.21" y="-84.7117" font-family="Times New Roman,serif" font-size="9.00">&#45;39</text>
</g>
<!-- &#45;39&#45;&gt;0 -->
<g id="edge146" class="edge"><title>&#45;39&#45;&gt;0</title>
<path fill="none" stroke="green" stroke-width="0.519531" d="M1738.44,-77.7188C1734.27,-73.3034 1728.52,-68.2501 1722.21,-65.6985 1566.91,-2.87862 1129.95,-76.8914 969.213,-29.6985 968.152,-29.3868 967.087,-29.0193 966.029,-28.6086"/>
<polygon fill="green" stroke="green" stroke-width="0.519531" points="967.427,-25.3954 956.914,-24.0831 964.314,-31.6651 967.427,-25.3954"/>
</g>
<!-- &#45;39&#45;&gt;1 -->
<g id="edge147" class="edge"><title>&#45;39&#45;&gt;1</title>
<path fill="none" stroke="green" stroke-width="0.230539" d="M1738.43,-77.7629C1734.25,-73.3621 1728.5,-68.3088 1722.21,-65.6985 1610.94,-19.4759 1299.83,-50.8544 1181.21,-29.6985 1173.47,-28.3178 1165.19,-26.1285 1157.77,-23.8946"/>
<polygon fill="green" stroke="green" stroke-width="0.230539" points="1158.6,-20.4831 1148.01,-20.7865 1156.47,-27.1536 1158.6,-20.4831"/>
</g>
<!-- &#45;39&#45;&gt;2 -->
<g id="edge148" class="edge"><title>&#45;39&#45;&gt;2</title>
<path fill="none" stroke="red" stroke-width="0.548879" d="M1738.4,-77.8326C1734.21,-73.4551 1728.46,-68.4018 1722.21,-65.6985 1632.25,-26.7514 1322.15,-18.0028 1230.76,-16.2507"/>
<polygon fill="red" stroke="red" stroke-width="0.548879" points="1230.55,-12.7466 1220.49,-16.0663 1230.43,-19.7455 1230.55,-12.7466"/>
</g>
<!-- &#45;39&#45;&gt;3 -->
<g id="edge149" class="edge"><title>&#45;39&#45;&gt;3</title>
<path fill="none" stroke="red" stroke-width="0.309046" d="M1738.43,-77.7447C1734.26,-73.338 1728.51,-68.2847 1722.21,-65.6985 1596.2,-13.919 1245.92,-41.7109 1110.21,-29.6985 1078.38,-26.8804 1041.82,-22.3429 1018.16,-19.2349"/>
<polygon fill="red" stroke="red" stroke-width="0.309046" points="1018.33,-15.7274 1007.96,-17.8783 1017.41,-22.6663 1018.33,-15.7274"/>
</g>
<!-- &#45;40 -->
<g id="node40" class="node"><title>&#45;40</title>
<polygon fill="lightgray" stroke="black" points="1806.71,-95.9117 1777.71,-95.9117 1777.71,-77.9117 1806.71,-77.9117 1806.71,-95.9117"/>
<text text-anchor="middle" x="1792.21" y="-84.7117" font-family="Times New Roman,serif" font-size="9.00">&#45;40</text>
</g>
<!-- &#45;40&#45;&gt;0 -->
<g id="edge150" class="edge"><title>&#45;40&#45;&gt;0</title>
<path fill="none" stroke="red" stroke-width="0.352834" d="M1785.45,-77.7121C1781.27,-73.2945 1775.52,-68.2412 1769.21,-65.6985 1604.15,0.802476 1140.03,-79.5912 969.213,-29.6985 968.151,-29.3883 967.086,-29.022 966.027,-28.6123"/>
<polygon fill="red" stroke="red" stroke-width="0.352834" points="967.425,-25.3989 956.912,-24.0905 964.315,-31.6697 967.425,-25.3989"/>
</g>
<!-- &#45;40&#45;&gt;1 -->
<g id="edge151" class="edge"><title>&#45;40&#45;&gt;1</title>
<path fill="none" stroke="red" stroke-width="0.140341" d="M1785.43,-77.7504C1781.25,-73.3455 1775.5,-68.2922 1769.21,-65.6985 1648.19,-15.7976 1310.15,-52.3431 1181.21,-29.6985 1173.47,-28.3383 1165.19,-26.1547 1157.77,-23.9197"/>
<polygon fill="red" stroke="red" stroke-width="0.140341" points="1158.59,-20.5084 1148,-20.8064 1156.47,-27.1778 1158.59,-20.5084"/>
</g>
<!-- &#45;40&#45;&gt;2 -->
<g id="edge152" class="edge"><title>&#45;40&#45;&gt;2</title>
<path fill="none" stroke="red" stroke-width="0.232263" d="M1785.4,-77.8139C1781.22,-73.4302 1775.47,-68.3769 1769.21,-65.6985 1670.12,-23.2682 1326.87,-16.9519 1230.53,-16.0129"/>
<polygon fill="red" stroke="red" stroke-width="0.232263" points="1230.31,-12.511 1220.28,-15.9248 1230.25,-19.5107 1230.31,-12.511"/>
</g>
<!-- &#45;40&#45;&gt;3 -->
<g id="edge153" class="edge"><title>&#45;40&#45;&gt;3</title>
<path fill="none" stroke="green" stroke-width="0.406579" stroke-dasharray="1,5" d="M1785.44,-77.7348C1781.26,-73.3248 1775.51,-68.2715 1769.21,-65.6985 1633.44,-10.2395 1256.33,-42.3248 1110.21,-29.6985 1078.37,-26.947 1041.81,-22.3948 1018.16,-19.2652"/>
<polygon fill="green" stroke="green" stroke-width="0.406579" points="1018.33,-15.7579 1007.96,-17.8981 1017.4,-22.6958 1018.33,-15.7579"/>
</g>
<!-- 420&#45;&gt;0 -->
<g id="edge155" class="edge"><title>420&#45;&gt;0</title>
<path fill="none" stroke="red" stroke-width="0.239377" d="M38.2848,-73.9256C43.7668,-70.6732 50.027,-67.5437 56.2132,-65.6985 224.272,-15.5712 792.808,-15.142 919.881,-15.6921"/>
<polygon fill="red" stroke="red" stroke-width="0.239377" points="920.14,-19.1933 930.157,-15.7432 920.175,-12.1934 920.14,-19.1933"/>
</g>
<!-- 525&#45;&gt;2 -->
<g id="edge157" class="edge"><title>525&#45;&gt;2</title>
<path fill="none" stroke="red" stroke-width="0.59303" d="M2119.14,-73.9239C2113.66,-70.6714 2107.4,-67.5423 2101.21,-65.6985 1931.64,-15.1608 1357.59,-15.0607 1230.33,-15.6802"/>
<polygon fill="red" stroke="red" stroke-width="0.59303" points="1230.04,-12.1817 1220.06,-15.7369 1230.08,-19.1816 1230.04,-12.1817"/>
</g>
</g>
</svg>
