<?xml version="1.0" encoding="UTF-8" standalone="no"?>
<!DOCTYPE svg PUBLIC "-//W3C//DTD SVG 1.1//EN"
 "http://www.w3.org/Graphics/SVG/1.1/DTD/svg11.dtd">
<!-- Generated by graphviz version 2.38.0 (20140413.2041)
 -->
<!-- Title: %3 Pages: 1 -->
<svg width="1973pt" height="170pt"
 viewBox="0.00 0.00 1973.01 170.12" xmlns="http://www.w3.org/2000/svg" xmlns:xlink="http://www.w3.org/1999/xlink">
<g id="graph0" class="graph" transform="scale(1 1) rotate(0) translate(4 166.125)">
<title>%3</title>
<polygon fill="white" stroke="none" points="-4,4 -4,-166.125 1969.01,-166.125 1969.01,4 -4,4"/>
<!-- &#45;1 -->
<g id="node1" class="node"><title>&#45;1</title>
<polygon fill="lightgray" stroke="black" points="128.802,-95.9117 104.802,-95.9117 104.802,-77.9117 128.802,-77.9117 128.802,-95.9117"/>
<text text-anchor="middle" x="116.802" y="-84.7117" font-family="Times New Roman,serif" font-size="9.00">&#45;1</text>
</g>
<!-- 0 -->
<g id="node41" class="node"><title>0</title>
<ellipse fill="lightblue" stroke="black" cx="829.802" cy="-14.8492" rx="14.7" ry="14.7"/>
<text text-anchor="middle" x="829.802" y="-12.6492" font-family="Times New Roman,serif" font-size="9.00">0</text>
</g>
<!-- &#45;1&#45;&gt;0 -->
<g id="edge1" class="edge"><title>&#45;1&#45;&gt;0</title>
<path fill="none" stroke="red" stroke-width="0.186138" d="M122.864,-77.782C126.635,-73.3877 131.885,-68.3344 137.802,-65.6985 199.755,-38.0977 688.36,-20.4768 804.905,-16.6402"/>
<polygon fill="red" stroke="red" stroke-width="0.186138" points="805.114,-20.1353 814.995,-16.3121 804.887,-13.139 805.114,-20.1353"/>
</g>
<!-- 1 -->
<g id="node42" class="node"><title>1</title>
<ellipse fill="lightblue" stroke="black" cx="882.802" cy="-14.8492" rx="14.7" ry="14.7"/>
<text text-anchor="middle" x="882.802" y="-12.6492" font-family="Times New Roman,serif" font-size="9.00">1</text>
</g>
<!-- &#45;1&#45;&gt;1 -->
<g id="edge2" class="edge"><title>&#45;1&#45;&gt;1</title>
<path fill="none" stroke="red" stroke-width="0.151868" d="M122.843,-77.7338C126.607,-73.3234 131.857,-68.2701 137.802,-65.6985 284.02,-2.44757 699.359,-68.7865 853.802,-29.6985 856.175,-29.0979 858.586,-28.2963 860.953,-27.3804"/>
<polygon fill="red" stroke="red" stroke-width="0.151868" points="862.549,-30.5002 870.221,-23.1929 859.667,-24.1211 862.549,-30.5002"/>
</g>
<!-- 2 -->
<g id="node43" class="node"><title>2</title>
<ellipse fill="lightblue" stroke="black" cx="1011.8" cy="-14.8492" rx="14.7" ry="14.7"/>
<text text-anchor="middle" x="1011.8" y="-12.6492" font-family="Times New Roman,serif" font-size="9.00">2</text>
</g>
<!-- &#45;1&#45;&gt;2 -->
<g id="edge3" class="edge"><title>&#45;1&#45;&gt;2</title>
<path fill="none" stroke="green" stroke-width="0.292998" d="M122.837,-77.7187C126.598,-73.3032 131.848,-68.2499 137.802,-65.6985 307.085,6.84919 784.219,-60.4843 965.802,-29.6985 973.205,-28.4433 981.09,-26.3581 988.203,-24.1819"/>
<polygon fill="green" stroke="green" stroke-width="0.292998" points="989.501,-27.4401 997.925,-21.0145 987.333,-20.7844 989.501,-27.4401"/>
</g>
<!-- 3 -->
<g id="node44" class="node"><title>3</title>
<ellipse fill="lightblue" stroke="black" cx="941.802" cy="-14.8492" rx="14.7" ry="14.7"/>
<text text-anchor="middle" x="941.802" y="-12.6492" font-family="Times New Roman,serif" font-size="9.00">3</text>
</g>
<!-- &#45;1&#45;&gt;3 -->
<g id="edge4" class="edge"><title>&#45;1&#45;&gt;3</title>
<path fill="none" stroke="green" stroke-width="0.16066" d="M122.84,-77.7261C126.602,-73.3131 131.852,-68.2598 137.802,-65.6985 294.934,1.95149 739.548,-65.6594 906.802,-29.6985 910.924,-28.8121 915.193,-27.4925 919.271,-26.0145"/>
<polygon fill="green" stroke="green" stroke-width="0.16066" points="920.856,-29.1497 928.827,-22.1707 918.243,-22.6554 920.856,-29.1497"/>
</g>
<!-- &#45;2 -->
<g id="node2" class="node"><title>&#45;2</title>
<polygon fill="lightgray" stroke="black" points="170.802,-95.9117 146.802,-95.9117 146.802,-77.9117 170.802,-77.9117 170.802,-95.9117"/>
<text text-anchor="middle" x="158.802" y="-84.7117" font-family="Times New Roman,serif" font-size="9.00">&#45;2</text>
</g>
<!-- &#45;2&#45;&gt;0 -->
<g id="edge5" class="edge"><title>&#45;2&#45;&gt;0</title>
<path fill="none" stroke="red" stroke-width="0.104182" d="M164.869,-77.7923C168.641,-73.4014 173.891,-68.3481 179.802,-65.6985 294.51,-14.2767 699.567,-14.5611 804.714,-15.536"/>
<polygon fill="red" stroke="red" stroke-width="0.104182" points="804.689,-19.0358 814.725,-15.6398 804.762,-12.0362 804.689,-19.0358"/>
</g>
<!-- &#45;2&#45;&gt;1 -->
<g id="edge6" class="edge"><title>&#45;2&#45;&gt;1</title>
<path fill="none" stroke="red" stroke-width="0.105304" d="M164.846,-77.7408C168.611,-73.3327 173.861,-68.2794 179.802,-65.6985 317.372,-5.93317 708.453,-66.7268 853.802,-29.6985 856.174,-29.0942 858.585,-28.2902 860.951,-27.3727"/>
<polygon fill="red" stroke="red" stroke-width="0.105304" points="862.548,-30.4921 870.218,-23.1836 859.664,-24.1136 862.548,-30.4921"/>
</g>
<!-- &#45;2&#45;&gt;2 -->
<g id="edge7" class="edge"><title>&#45;2&#45;&gt;2</title>
<path fill="none" stroke="red" stroke-width="0.237804" d="M164.839,-77.7238C168.601,-73.3101 173.851,-68.2568 179.802,-65.6985 340.435,3.36263 793.446,-59.1256 965.802,-29.6985 973.203,-28.4348 981.088,-26.347 988.201,-24.1711"/>
<polygon fill="red" stroke="red" stroke-width="0.237804" points="989.498,-27.4297 997.924,-21.0058 987.331,-20.7735 989.498,-27.4297"/>
</g>
<!-- &#45;2&#45;&gt;3 -->
<g id="edge8" class="edge"><title>&#45;2&#45;&gt;3</title>
<path fill="none" stroke="red" stroke-width="0.412294" stroke-dasharray="1,5" d="M164.842,-77.7321C168.606,-73.3211 173.856,-68.2678 179.802,-65.6985 328.285,-1.53461 748.708,-63.9131 906.802,-29.6985 910.923,-28.8065 915.191,-27.4842 919.269,-26.0052"/>
<polygon fill="red" stroke="red" stroke-width="0.412294" points="920.854,-29.1405 928.825,-22.1618 918.241,-22.6461 920.854,-29.1405"/>
</g>
<!-- &#45;3 -->
<g id="node3" class="node"><title>&#45;3</title>
<polygon fill="lightgray" stroke="black" points="212.802,-95.9117 188.802,-95.9117 188.802,-77.9117 212.802,-77.9117 212.802,-95.9117"/>
<text text-anchor="middle" x="200.802" y="-84.7117" font-family="Times New Roman,serif" font-size="9.00">&#45;3</text>
</g>
<!-- &#45;3&#45;&gt;0 -->
<g id="edge9" class="edge"><title>&#45;3&#45;&gt;0</title>
<path fill="none" stroke="red" stroke-width="0.201124" d="M206.874,-77.8039C210.648,-73.4169 215.898,-68.3636 221.802,-65.6985 328.45,-17.5522 703.969,-15.3818 804.751,-15.6894"/>
<polygon fill="red" stroke="red" stroke-width="0.201124" points="804.883,-19.1899 814.898,-15.7322 804.913,-12.19 804.883,-19.1899"/>
</g>
<!-- &#45;3&#45;&gt;1 -->
<g id="edge10" class="edge"><title>&#45;3&#45;&gt;1</title>
<path fill="none" stroke="green" stroke-width="0.376303" d="M206.85,-77.7486C210.615,-73.3432 215.865,-68.2899 221.802,-65.6985 350.725,-9.41827 717.545,-64.6673 853.802,-29.6985 856.173,-29.09 858.583,-28.2832 860.949,-27.3641"/>
<polygon fill="green" stroke="green" stroke-width="0.376303" points="862.547,-30.4831 870.216,-23.1731 859.662,-24.1051 862.547,-30.4831"/>
</g>
<!-- &#45;3&#45;&gt;2 -->
<g id="edge11" class="edge"><title>&#45;3&#45;&gt;2</title>
<path fill="none" stroke="green" stroke-width="0.181389" d="M206.841,-77.7296C210.604,-73.3178 215.854,-68.2645 221.802,-65.6985 373.785,-0.12361 802.672,-57.767 965.802,-29.6985 973.202,-28.4252 981.086,-26.3346 988.199,-24.1591"/>
<polygon fill="green" stroke="green" stroke-width="0.181389" points="989.495,-27.418 997.922,-20.9961 987.33,-20.7614 989.495,-27.418"/>
</g>
<!-- &#45;3&#45;&gt;3 -->
<g id="edge12" class="edge"><title>&#45;3&#45;&gt;3</title>
<path fill="none" stroke="red" stroke-width="0.116729" d="M206.845,-77.7389C210.61,-73.3301 215.86,-68.2768 221.802,-65.6985 361.637,-5.02032 757.868,-62.167 906.802,-29.6985 910.922,-28.8003 915.189,-27.4749 919.267,-25.9947"/>
<polygon fill="red" stroke="red" stroke-width="0.116729" points="920.851,-29.1301 928.823,-22.1518 918.239,-22.6356 920.851,-29.1301"/>
</g>
<!-- &#45;4 -->
<g id="node4" class="node"><title>&#45;4</title>
<polygon fill="lightgray" stroke="black" points="254.802,-95.9117 230.802,-95.9117 230.802,-77.9117 254.802,-77.9117 254.802,-95.9117"/>
<text text-anchor="middle" x="242.802" y="-84.7117" font-family="Times New Roman,serif" font-size="9.00">&#45;4</text>
</g>
<!-- &#45;4&#45;&gt;0 -->
<g id="edge13" class="edge"><title>&#45;4&#45;&gt;0</title>
<path fill="none" stroke="red" stroke-width="0.143303" d="M248.88,-77.8173C252.656,-73.4347 257.906,-68.3814 263.802,-65.6985 362.365,-20.8433 708.187,-16.2609 804.649,-15.8652"/>
<polygon fill="red" stroke="red" stroke-width="0.143303" points="804.914,-19.3646 814.904,-15.8357 804.894,-12.3646 804.914,-19.3646"/>
</g>
<!-- &#45;4&#45;&gt;1 -->
<g id="edge14" class="edge"><title>&#45;4&#45;&gt;1</title>
<path fill="none" stroke="red" stroke-width="0.44601" d="M248.853,-77.7576C252.621,-73.3552 257.871,-68.3019 263.802,-65.6985 384.079,-12.9028 726.636,-62.6082 853.802,-29.6985 856.172,-29.0852 858.581,-28.2753 860.947,-27.3542"/>
<polygon fill="red" stroke="red" stroke-width="0.44601" points="862.545,-30.4727 870.213,-23.1611 859.659,-24.0953 862.545,-30.4727"/>
</g>
<!-- &#45;4&#45;&gt;2 -->
<g id="edge15" class="edge"><title>&#45;4&#45;&gt;2</title>
<path fill="none" stroke="green" stroke-width="0.301864" d="M248.844,-77.736C252.608,-73.3264 257.858,-68.2731 263.802,-65.6985 407.137,-3.60949 811.897,-56.4085 965.802,-29.6985 973.2,-28.4145 981.084,-26.3208 988.197,-24.1456"/>
<polygon fill="green" stroke="green" stroke-width="0.301864" points="989.492,-27.405 997.92,-20.9853 987.328,-20.7478 989.492,-27.405"/>
</g>
<!-- &#45;4&#45;&gt;3 -->
<g id="edge16" class="edge"><title>&#45;4&#45;&gt;3</title>
<path fill="none" stroke="green" stroke-width="0.191019" d="M248.849,-77.7465C252.614,-73.3403 257.864,-68.287 263.802,-65.6985 394.989,-8.50556 767.026,-60.4211 906.802,-29.6985 910.92,-28.7932 915.187,-27.4643 919.264,-25.9829"/>
<polygon fill="green" stroke="green" stroke-width="0.191019" points="920.848,-29.1184 928.821,-22.1406 918.237,-22.6237 920.848,-29.1184"/>
</g>
<!-- &#45;5 -->
<g id="node5" class="node"><title>&#45;5</title>
<polygon fill="lightgray" stroke="black" points="296.802,-95.9117 272.802,-95.9117 272.802,-77.9117 296.802,-77.9117 296.802,-95.9117"/>
<text text-anchor="middle" x="284.802" y="-84.7117" font-family="Times New Roman,serif" font-size="9.00">&#45;5</text>
</g>
<!-- &#45;5&#45;&gt;0 -->
<g id="edge17" class="edge"><title>&#45;5&#45;&gt;0</title>
<path fill="none" stroke="green" stroke-width="0.379141" stroke-dasharray="1,5" d="M290.887,-77.8328C294.666,-73.4553 299.916,-68.402 305.802,-65.6985 396.373,-24.0974 713.042,-17.1987 804.743,-16.068"/>
<polygon fill="green" stroke="green" stroke-width="0.379141" points="804.82,-19.5674 814.781,-15.9567 804.743,-12.5679 804.82,-19.5674"/>
</g>
<!-- &#45;5&#45;&gt;1 -->
<g id="edge18" class="edge"><title>&#45;5&#45;&gt;1</title>
<path fill="none" stroke="green" stroke-width="0.488441" d="M290.858,-77.768C294.627,-73.369 299.877,-68.3157 305.802,-65.6985 417.436,-16.3865 735.725,-60.5496 853.802,-29.6985 856.17,-29.0797 858.579,-28.2661 860.944,-27.3429"/>
<polygon fill="green" stroke="green" stroke-width="0.488441" points="862.543,-30.4608 870.209,-23.1472 859.656,-24.0841 862.543,-30.4608"/>
</g>
<!-- &#45;5&#45;&gt;2 -->
<g id="edge19" class="edge"><title>&#45;5&#45;&gt;2</title>
<path fill="none" stroke="green" stroke-width="0.212009" d="M290.847,-77.7433C294.612,-73.336 299.862,-68.2827 305.802,-65.6985 440.489,-7.09493 821.121,-55.0503 965.802,-29.6985 973.198,-28.4025 981.081,-26.3052 988.194,-24.1304"/>
<polygon fill="green" stroke="green" stroke-width="0.212009" points="989.488,-27.3904 997.918,-20.9731 987.326,-20.7325 989.488,-27.3904"/>
</g>
<!-- &#45;5&#45;&gt;3 -->
<g id="edge20" class="edge"><title>&#45;5&#45;&gt;3</title>
<path fill="none" stroke="green" stroke-width="0.408894" d="M290.852,-77.7552C294.619,-73.3519 299.869,-68.2986 305.802,-65.6985 428.344,-11.9902 776.182,-58.6756 906.802,-29.6985 910.919,-28.7852 915.184,-27.4523 919.261,-25.9694"/>
<polygon fill="green" stroke="green" stroke-width="0.408894" points="920.845,-29.1051 928.818,-22.1278 918.234,-22.6102 920.845,-29.1051"/>
</g>
<!-- &#45;6 -->
<g id="node6" class="node"><title>&#45;6</title>
<polygon fill="lightgray" stroke="black" points="338.802,-95.9117 314.802,-95.9117 314.802,-77.9117 338.802,-77.9117 338.802,-95.9117"/>
<text text-anchor="middle" x="326.802" y="-84.7117" font-family="Times New Roman,serif" font-size="9.00">&#45;6</text>
</g>
<!-- &#45;6&#45;&gt;0 -->
<g id="edge21" class="edge"><title>&#45;6&#45;&gt;0</title>
<path fill="none" stroke="red" stroke-width="0.560579" d="M332.896,-77.8509C336.677,-73.4795 341.927,-68.4262 347.802,-65.6985 430.305,-27.3921 717.363,-18.232 804.516,-16.3109"/>
<polygon fill="red" stroke="red" stroke-width="0.560579" points="804.645,-19.8091 814.57,-16.1024 804.5,-12.8106 804.645,-19.8091"/>
</g>
<!-- &#45;6&#45;&gt;1 -->
<g id="edge22" class="edge"><title>&#45;6&#45;&gt;1</title>
<path fill="none" stroke="red" stroke-width="0.307034" d="M332.863,-77.78C336.634,-73.3851 341.884,-68.3318 347.802,-65.6985 450.794,-19.8693 744.812,-58.4915 853.802,-29.6985 856.168,-29.0732 858.576,-28.2555 860.94,-27.3296"/>
<polygon fill="red" stroke="red" stroke-width="0.307034" points="862.541,-30.4469 870.205,-23.1311 859.652,-24.071 862.541,-30.4469"/>
</g>
<!-- &#45;6&#45;&gt;2 -->
<g id="edge23" class="edge"><title>&#45;6&#45;&gt;2</title>
<path fill="none" stroke="green" stroke-width="0.272216" d="M332.851,-77.7515C336.617,-73.347 341.867,-68.2937 347.802,-65.6985 473.843,-10.5798 830.344,-53.6922 965.802,-29.6985 973.195,-28.3888 981.078,-26.2874 988.191,-24.1132"/>
<polygon fill="green" stroke="green" stroke-width="0.272216" points="989.483,-27.3737 997.916,-20.9592 987.324,-20.7152 989.483,-27.3737"/>
</g>
<!-- &#45;6&#45;&gt;3 -->
<g id="edge24" class="edge"><title>&#45;6&#45;&gt;3</title>
<path fill="none" stroke="green" stroke-width="0.444667" d="M332.857,-77.7651C336.625,-73.3652 341.875,-68.3119 347.802,-65.6985 461.699,-15.4742 785.337,-56.9304 906.802,-29.6985 910.917,-28.776 915.181,-27.4385 919.258,-25.9539"/>
<polygon fill="green" stroke="green" stroke-width="0.444667" points="920.841,-29.0898 928.815,-22.1131 918.231,-22.5947 920.841,-29.0898"/>
</g>
<!-- &#45;7 -->
<g id="node7" class="node"><title>&#45;7</title>
<polygon fill="lightgray" stroke="black" points="380.802,-95.9117 356.802,-95.9117 356.802,-77.9117 380.802,-77.9117 380.802,-95.9117"/>
<text text-anchor="middle" x="368.802" y="-84.7117" font-family="Times New Roman,serif" font-size="9.00">&#45;7</text>
</g>
<!-- &#45;7&#45;&gt;0 -->
<g id="edge25" class="edge"><title>&#45;7&#45;&gt;0</title>
<path fill="none" stroke="red" stroke-width="0.425077" d="M374.906,-77.8723C378.69,-73.5081 383.94,-68.4548 389.802,-65.6985 464.462,-30.59 723.223,-19.3115 804.898,-16.5833"/>
<polygon fill="red" stroke="red" stroke-width="0.425077" points="805.12,-20.078 815.003,-16.2598 804.896,-13.0816 805.12,-20.078"/>
</g>
<!-- &#45;7&#45;&gt;1 -->
<g id="edge26" class="edge"><title>&#45;7&#45;&gt;1</title>
<path fill="none" stroke="red" stroke-width="0.397707" d="M374.87,-77.7942C378.642,-73.404 383.892,-68.3507 389.802,-65.6985 578.509,18.9966 653.991,-83.1699 853.802,-29.6985 856.166,-29.0657 858.572,-28.2429 860.936,-27.314"/>
<polygon fill="red" stroke="red" stroke-width="0.397707" points="862.539,-30.4305 870.2,-23.1121 859.647,-24.0556 862.539,-30.4305"/>
</g>
<!-- &#45;7&#45;&gt;2 -->
<g id="edge27" class="edge"><title>&#45;7&#45;&gt;2</title>
<path fill="none" stroke="green" stroke-width="0.141555" d="M374.855,-77.7609C378.623,-73.3596 383.873,-68.3063 389.802,-65.6985 507.198,-14.0641 839.565,-52.3345 965.802,-29.6985 973.193,-28.3732 981.074,-26.2672 988.188,-24.0935"/>
<polygon fill="green" stroke="green" stroke-width="0.141555" points="989.478,-27.3546 997.913,-20.9434 987.321,-20.6953 989.478,-27.3546"/>
</g>
<!-- &#45;7&#45;&gt;3 -->
<g id="edge28" class="edge"><title>&#45;7&#45;&gt;3</title>
<path fill="none" stroke="green" stroke-width="0.485939" d="M374.862,-77.7767C378.632,-73.3806 383.882,-68.3273 389.802,-65.6985 495.057,-18.9573 794.49,-55.1857 906.802,-29.6985 910.914,-28.7652 915.177,-27.4225 919.254,-25.936"/>
<polygon fill="green" stroke="green" stroke-width="0.485939" points="920.837,-29.072 928.811,-22.096 918.227,-22.5767 920.837,-29.072"/>
</g>
<!-- &#45;8 -->
<g id="node8" class="node"><title>&#45;8</title>
<polygon fill="lightgray" stroke="black" points="422.802,-95.9117 398.802,-95.9117 398.802,-77.9117 422.802,-77.9117 422.802,-95.9117"/>
<text text-anchor="middle" x="410.802" y="-84.7117" font-family="Times New Roman,serif" font-size="9.00">&#45;8</text>
</g>
<!-- &#45;8&#45;&gt;0 -->
<g id="edge29" class="edge"><title>&#45;8&#45;&gt;0</title>
<path fill="none" stroke="red" stroke-width="0.355267" stroke-dasharray="1,5" d="M416.918,-77.8982C420.707,-73.5426 425.957,-68.4893 431.802,-65.6985 498.436,-33.8832 727.797,-20.5706 804.551,-16.9386"/>
<polygon fill="red" stroke="red" stroke-width="0.355267" points="804.902,-20.4263 814.731,-16.4719 804.581,-13.4336 804.902,-20.4263"/>
</g>
<!-- &#45;8&#45;&gt;1 -->
<g id="edge30" class="edge"><title>&#45;8&#45;&gt;1</title>
<path fill="none" stroke="green" stroke-width="0.126878" d="M416.877,-77.8112C420.653,-73.4266 425.903,-68.3733 431.802,-65.6985 603.238,12.0365 672.152,-79.0573 853.802,-29.6985 856.164,-29.0566 858.568,-28.2279 860.931,-27.2954"/>
<polygon fill="green" stroke="green" stroke-width="0.126878" points="862.535,-30.4109 870.194,-23.0894 859.641,-24.0372 862.535,-30.4109"/>
</g>
<!-- &#45;8&#45;&gt;2 -->
<g id="edge31" class="edge"><title>&#45;8&#45;&gt;2</title>
<path fill="none" stroke="green" stroke-width="0.229111" d="M416.86,-77.7718C420.629,-73.3741 425.879,-68.3208 431.802,-65.6985 540.555,-17.5476 848.785,-50.9771 965.802,-29.6985 973.189,-28.3551 981.07,-26.2437 988.183,-24.0707"/>
<polygon fill="green" stroke="green" stroke-width="0.229111" points="989.472,-27.3326 997.909,-20.925 987.318,-20.6723 989.472,-27.3326"/>
</g>
<!-- &#45;8&#45;&gt;3 -->
<g id="edge32" class="edge"><title>&#45;8&#45;&gt;3</title>
<path fill="none" stroke="green" stroke-width="0.324503" d="M416.868,-77.7903C420.64,-73.3987 425.89,-68.3454 431.802,-65.6985 528.418,-22.4392 803.64,-53.4416 906.802,-29.6985 910.911,-28.7526 915.173,-27.4037 919.249,-25.9148"/>
<polygon fill="green" stroke="green" stroke-width="0.324503" points="920.831,-29.0511 928.806,-22.076 918.222,-22.5556 920.831,-29.0511"/>
</g>
<!-- &#45;9 -->
<g id="node9" class="node"><title>&#45;9</title>
<polygon fill="lightgray" stroke="black" points="464.802,-95.9117 440.802,-95.9117 440.802,-77.9117 464.802,-77.9117 464.802,-95.9117"/>
<text text-anchor="middle" x="452.802" y="-84.7117" font-family="Times New Roman,serif" font-size="9.00">&#45;9</text>
</g>
<!-- &#45;9&#45;&gt;0 -->
<g id="edge33" class="edge"><title>&#45;9&#45;&gt;0</title>
<path fill="none" stroke="green" stroke-width="0.110756" stroke-dasharray="1,5" d="M459.293,-77.5206C463.056,-73.2713 468.159,-68.4431 473.802,-65.6985 532.534,-37.1307 733.197,-21.9545 804.449,-17.3685"/>
<polygon fill="green" stroke="green" stroke-width="0.110756" points="804.971,-20.8427 814.732,-16.7229 804.533,-13.8564 804.971,-20.8427"/>
</g>
<!-- &#45;9&#45;&gt;1 -->
<g id="edge34" class="edge"><title>&#45;9&#45;&gt;1</title>
<path fill="none" stroke="red" stroke-width="0.317619" d="M458.887,-77.8319C462.665,-73.4542 467.915,-68.4009 473.802,-65.6985 627.976,5.08054 690.302,-74.9473 853.802,-29.6985 856.161,-29.0456 858.563,-28.2096 860.925,-27.2726"/>
<polygon fill="red" stroke="red" stroke-width="0.317619" points="862.531,-30.387 870.186,-23.0617 859.634,-24.0148 862.531,-30.387"/>
</g>
<!-- &#45;9&#45;&gt;2 -->
<g id="edge35" class="edge"><title>&#45;9&#45;&gt;2</title>
<path fill="none" stroke="red" stroke-width="0.505287" d="M458.865,-77.7845C462.637,-73.391 467.887,-68.3377 473.802,-65.6985 573.914,-21.03 858.001,-49.6201 965.802,-29.6985 973.185,-28.334 981.065,-26.2163 988.179,-24.044"/>
<polygon fill="red" stroke="red" stroke-width="0.505287" points="989.465,-27.3068 997.905,-20.9036 987.314,-20.6454 989.465,-27.3068"/>
</g>
<!-- &#45;9&#45;&gt;3 -->
<g id="edge36" class="edge"><title>&#45;9&#45;&gt;3</title>
<path fill="none" stroke="green" stroke-width="0.325523" d="M458.875,-77.8065C462.65,-73.4203 467.9,-68.367 473.802,-65.6985 649.76,13.859 718.773,-73.6982 906.802,-29.6985 910.908,-28.7376 915.168,-27.3812 919.243,-25.8897"/>
<polygon fill="green" stroke="green" stroke-width="0.325523" points="920.825,-29.0262 928.801,-22.052 918.216,-22.5303 920.825,-29.0262"/>
</g>
<!-- &#45;10 -->
<g id="node10" class="node"><title>&#45;10</title>
<polygon fill="lightgray" stroke="black" points="512.302,-95.9117 483.302,-95.9117 483.302,-77.9117 512.302,-77.9117 512.302,-95.9117"/>
<text text-anchor="middle" x="497.802" y="-84.7117" font-family="Times New Roman,serif" font-size="9.00">&#45;10</text>
</g>
<!-- &#45;10&#45;&gt;0 -->
<g id="edge37" class="edge"><title>&#45;10&#45;&gt;0</title>
<path fill="none" stroke="red" stroke-width="0.355663" d="M505.085,-77.5732C509.257,-73.3392 514.839,-68.509 520.802,-65.6985 618.289,-19.747 750.193,-15.0759 804.67,-15.3031"/>
<polygon fill="red" stroke="red" stroke-width="0.355663" points="804.754,-18.8041 814.79,-15.4079 804.827,-11.8044 804.754,-18.8041"/>
</g>
<!-- &#45;10&#45;&gt;1 -->
<g id="edge38" class="edge"><title>&#45;10&#45;&gt;1</title>
<path fill="none" stroke="green" stroke-width="0.287836" d="M504.63,-77.8596C508.823,-73.4912 514.573,-68.4379 520.802,-65.6985 657.067,-5.76808 710.598,-70.3526 853.802,-29.6985 856.157,-29.03 858.556,-28.1838 860.916,-27.2405"/>
<polygon fill="green" stroke="green" stroke-width="0.287836" points="862.526,-30.3533 870.175,-23.0226 859.624,-23.9831 862.526,-30.3533"/>
</g>
<!-- &#45;10&#45;&gt;2 -->
<g id="edge39" class="edge"><title>&#45;10&#45;&gt;2</title>
<path fill="none" stroke="red" stroke-width="0.348395" d="M504.603,-77.7965C508.787,-73.4069 514.537,-68.3536 520.802,-65.6985 703.496,11.7287 770.822,-66.5062 965.802,-29.6985 973.18,-28.3056 981.058,-26.1795 988.172,-24.0082"/>
<polygon fill="red" stroke="red" stroke-width="0.348395" points="989.455,-27.2722 997.9,-20.8748 987.309,-20.6093 989.455,-27.2722"/>
</g>
<!-- &#45;10&#45;&gt;3 -->
<g id="edge40" class="edge"><title>&#45;10&#45;&gt;3</title>
<path fill="none" stroke="green" stroke-width="0.18045" d="M504.615,-77.8252C508.803,-73.4453 514.553,-68.392 520.802,-65.6985 679.027,2.50701 739.233,-69.7992 906.802,-29.6985 910.903,-28.717 915.16,-27.3504 919.235,-25.8551"/>
<polygon fill="green" stroke="green" stroke-width="0.18045" points="920.816,-28.992 928.793,-22.0192 918.209,-22.4957 920.816,-28.992"/>
</g>
<!-- &#45;11 -->
<g id="node11" class="node"><title>&#45;11</title>
<polygon fill="lightgray" stroke="black" points="48.3017,-95.9117 19.3017,-95.9117 19.3017,-77.9117 48.3017,-77.9117 48.3017,-95.9117"/>
<text text-anchor="middle" x="33.8017" y="-84.7117" font-family="Times New Roman,serif" font-size="9.00">&#45;11</text>
</g>
<!-- &#45;11&#45;&gt;0 -->
<g id="edge41" class="edge"><title>&#45;11&#45;&gt;0</title>
<path fill="none" stroke="red" stroke-width="0.164684" d="M42.7412,-77.7521C48.1377,-73.3478 55.3877,-68.2945 62.8017,-65.6985 204.33,-16.1423 688.528,-15.178 804.631,-15.681"/>
<polygon fill="red" stroke="red" stroke-width="0.164684" points="804.676,-19.1812 814.694,-15.7327 804.712,-12.1813 804.676,-19.1812"/>
</g>
<!-- &#45;11&#45;&gt;1 -->
<g id="edge42" class="edge"><title>&#45;11&#45;&gt;1</title>
<path fill="none" stroke="red" stroke-width="0.17911" d="M42.7226,-77.698C48.1128,-73.2757 55.3628,-68.2224 62.8017,-65.6985 229.432,-9.16336 683.118,-72.4653 853.802,-29.6985 856.176,-29.1035 858.589,-28.3057 860.956,-27.392"/>
<polygon fill="red" stroke="red" stroke-width="0.17911" points="862.551,-30.5124 870.224,-23.207 859.67,-24.1326 862.551,-30.5124"/>
</g>
<!-- &#45;11&#45;&gt;3 -->
<g id="edge43" class="edge"><title>&#45;11&#45;&gt;3</title>
<path fill="none" stroke="red" stroke-width="0.258558" d="M48.7929,-79.7541C61.1696,-74.982 79.3159,-68.6943 95.8017,-65.6985 450.788,-1.19095 553.972,-105.113 906.802,-29.6985 910.926,-28.817 915.194,-27.5 919.273,-26.0229"/>
<polygon fill="red" stroke="red" stroke-width="0.258558" points="920.858,-29.158 928.829,-22.1786 918.245,-22.6638 920.858,-29.158"/>
</g>
<!-- &#45;12 -->
<g id="node12" class="node"><title>&#45;12</title>
<polygon fill="lightgray" stroke="black" points="559.302,-95.9117 530.302,-95.9117 530.302,-77.9117 559.302,-77.9117 559.302,-95.9117"/>
<text text-anchor="middle" x="544.802" y="-84.7117" font-family="Times New Roman,serif" font-size="9.00">&#45;12</text>
</g>
<!-- &#45;12&#45;&gt;0 -->
<g id="edge44" class="edge"><title>&#45;12&#45;&gt;0</title>
<path fill="none" stroke="red" stroke-width="0.38483" d="M552.117,-77.6397C556.298,-73.4252 561.879,-68.5924 567.802,-65.6985 648.079,-26.4727 756.199,-18.0586 804.574,-16.2932"/>
<polygon fill="red" stroke="red" stroke-width="0.38483" points="804.858,-19.7864 814.749,-15.9902 804.65,-12.7895 804.858,-19.7864"/>
</g>
<!-- &#45;12&#45;&gt;1 -->
<g id="edge45" class="edge"><title>&#45;12&#45;&gt;1</title>
<path fill="none" stroke="green" stroke-width="0.119832" d="M551.648,-77.9005C555.847,-73.5456 561.597,-68.4923 567.802,-65.6985 684.618,-13.0954 730.869,-65.7649 853.802,-29.6985 856.151,-29.0093 858.546,-28.1496 860.904,-27.198"/>
<polygon fill="green" stroke="green" stroke-width="0.119832" points="862.518,-30.3087 870.16,-22.971 859.61,-23.9412 862.518,-30.3087"/>
</g>
<!-- &#45;12&#45;&gt;2 -->
<g id="edge46" class="edge"><title>&#45;12&#45;&gt;2</title>
<path fill="none" stroke="red" stroke-width="0.413807" d="M551.612,-77.8187C555.799,-73.4366 561.549,-68.3833 567.802,-65.6985 731.002,4.38191 791.431,-63.4726 965.802,-29.6985 973.174,-28.2706 981.05,-26.1342 988.163,-23.9641"/>
<polygon fill="red" stroke="red" stroke-width="0.413807" points="989.442,-27.2295 997.893,-20.8394 987.302,-20.5648 989.442,-27.2295"/>
</g>
<!-- &#45;12&#45;&gt;3 -->
<g id="edge47" class="edge"><title>&#45;12&#45;&gt;3</title>
<path fill="none" stroke="red" stroke-width="0.267591" d="M551.628,-77.8552C555.821,-73.4853 561.571,-68.432 567.802,-65.6985 706.552,-4.83183 759.677,-65.904 906.802,-29.6985 910.827,-28.7079 915.007,-27.3578 919.017,-25.8872"/>
<polygon fill="red" stroke="red" stroke-width="0.267591" points="920.463,-29.0785 928.452,-22.1196 917.867,-22.5776 920.463,-29.0785"/>
</g>
<!-- &#45;13 -->
<g id="node13" class="node"><title>&#45;13</title>
<polygon fill="lightgray" stroke="black" points="606.302,-95.9117 577.302,-95.9117 577.302,-77.9117 606.302,-77.9117 606.302,-95.9117"/>
<text text-anchor="middle" x="591.802" y="-84.7117" font-family="Times New Roman,serif" font-size="9.00">&#45;13</text>
</g>
<!-- &#45;13&#45;&gt;0 -->
<g id="edge48" class="edge"><title>&#45;13&#45;&gt;0</title>
<path fill="none" stroke="green" stroke-width="0.466888" d="M599.164,-77.7333C603.358,-73.5462 608.938,-68.7097 614.802,-65.6985 678.318,-33.0808 763.286,-21.5357 804.821,-17.668"/>
<polygon fill="green" stroke="green" stroke-width="0.466888" points="805.205,-21.148 814.869,-16.8055 804.606,-14.1737 805.205,-21.148"/>
</g>
<!-- &#45;13&#45;&gt;1 -->
<g id="edge49" class="edge"><title>&#45;13&#45;&gt;1</title>
<path fill="none" stroke="green" stroke-width="0.285831" d="M599.073,-77.5483C603.242,-73.3071 608.825,-68.4778 614.802,-65.6985 712.207,-20.4059 751.101,-61.1887 853.802,-29.6985 856.142,-28.9809 858.532,-28.1024 860.886,-27.1394"/>
<polygon fill="green" stroke="green" stroke-width="0.285831" points="862.506,-30.2472 870.139,-22.8996 859.59,-23.8835 862.506,-30.2472"/>
</g>
<!-- &#45;13&#45;&gt;2 -->
<g id="edge50" class="edge"><title>&#45;13&#45;&gt;2</title>
<path fill="none" stroke="green" stroke-width="0.103768" d="M598.625,-77.8468C602.816,-73.4741 608.566,-68.4208 614.802,-65.6985 758.523,-2.95886 812.026,-60.4419 965.802,-29.6985 973.165,-28.2264 981.038,-26.0769 988.153,-23.9084"/>
<polygon fill="green" stroke="green" stroke-width="0.103768" points="989.427,-27.1756 997.884,-20.7945 987.294,-20.5085 989.427,-27.1756"/>
</g>
<!-- &#45;13&#45;&gt;3 -->
<g id="edge51" class="edge"><title>&#45;13&#45;&gt;3</title>
<path fill="none" stroke="green" stroke-width="0.252372" d="M598.646,-77.8946C602.844,-73.5377 608.594,-68.4844 614.802,-65.6985 734.1,-12.1608 780.098,-62.0147 906.802,-29.6985 910.819,-28.674 914.994,-27.3068 919.003,-25.8296"/>
<polygon fill="green" stroke="green" stroke-width="0.252372" points="920.448,-29.0213 928.438,-22.0639 917.853,-22.5199 920.448,-29.0213"/>
</g>
<!-- &#45;14 -->
<g id="node14" class="node"><title>&#45;14</title>
<polygon fill="lightgray" stroke="black" points="653.302,-95.9117 624.302,-95.9117 624.302,-77.9117 653.302,-77.9117 653.302,-95.9117"/>
<text text-anchor="middle" x="638.802" y="-84.7117" font-family="Times New Roman,serif" font-size="9.00">&#45;14</text>
</g>
<!-- &#45;14&#45;&gt;0 -->
<g id="edge52" class="edge"><title>&#45;14&#45;&gt;0</title>
<path fill="none" stroke="green" stroke-width="0.357814" d="M646.239,-77.8739C650.455,-73.728 656.032,-68.886 661.802,-65.6985 708.899,-39.6794 771.105,-25.819 805.065,-19.736"/>
<polygon fill="green" stroke="green" stroke-width="0.357814" points="805.777,-23.1651 815.043,-18.0287 804.596,-16.2654 805.777,-23.1651"/>
</g>
<!-- &#45;14&#45;&gt;1 -->
<g id="edge53" class="edge"><title>&#45;14&#45;&gt;1</title>
<path fill="none" stroke="green" stroke-width="0.359261" d="M646.114,-77.6334C650.294,-73.4171 655.875,-68.5845 661.802,-65.6985 739.859,-27.6868 771.265,-56.6333 853.802,-29.6985 856.129,-28.939 858.51,-28.0331 860.859,-27.0532"/>
<polygon fill="green" stroke="green" stroke-width="0.359261" points="862.487,-30.157 870.105,-22.7947 859.558,-23.7988 862.487,-30.157"/>
</g>
<!-- &#45;14&#45;&gt;2 -->
<g id="edge54" class="edge"><title>&#45;14&#45;&gt;2</title>
<path fill="none" stroke="green" stroke-width="0.220798" d="M645.641,-77.8834C649.837,-73.5228 655.587,-68.4695 661.802,-65.6985 786.064,-10.2908 832.6,-57.4155 965.802,-29.6985 973.153,-28.1688 981.023,-26.0021 988.138,-23.8357"/>
<polygon fill="green" stroke="green" stroke-width="0.220798" points="989.406,-27.1052 997.873,-20.7361 987.282,-20.4351 989.406,-27.1052"/>
</g>
<!-- &#45;14&#45;&gt;3 -->
<g id="edge55" class="edge"><title>&#45;14&#45;&gt;3</title>
<path fill="none" stroke="green" stroke-width="0.238917" d="M646.069,-77.5397C650.236,-73.296 655.82,-68.467 661.802,-65.6985 761.682,-19.474 800.481,-58.1349 906.802,-29.6985 910.806,-28.6274 914.976,-27.2367 918.982,-25.7506"/>
<polygon fill="green" stroke="green" stroke-width="0.238917" points="920.426,-28.9428 928.418,-21.9875 917.833,-22.4407 920.426,-28.9428"/>
</g>
<!-- &#45;15 -->
<g id="node15" class="node"><title>&#45;15</title>
<polygon fill="lightgray" stroke="black" points="700.302,-95.9117 671.302,-95.9117 671.302,-77.9117 700.302,-77.9117 700.302,-95.9117"/>
<text text-anchor="middle" x="685.802" y="-84.7117" font-family="Times New Roman,serif" font-size="9.00">&#45;15</text>
</g>
<!-- &#45;15&#45;&gt;0 -->
<g id="edge56" class="edge"><title>&#45;15&#45;&gt;0</title>
<path fill="none" stroke="green" stroke-width="0.662806" d="M693.791,-77.709C697.991,-73.7165 703.383,-69.0648 708.802,-65.6985 740.211,-46.1859 780.588,-31.3358 805.836,-23.1063"/>
<polygon fill="green" stroke="green" stroke-width="0.662806" points="807.186,-26.3499 815.66,-19.9904 805.07,-19.6775 807.186,-26.3499"/>
</g>
<!-- &#45;15&#45;&gt;1 -->
<g id="edge57" class="edge"><title>&#45;15&#45;&gt;1</title>
<path fill="none" stroke="green" stroke-width="0.163981" d="M693.182,-77.7695C697.383,-73.5931 702.961,-68.7551 708.802,-65.6985 767.632,-34.9078 791.301,-52.1204 853.802,-29.6985 856.106,-28.8719 858.472,-27.9218 860.811,-26.9149"/>
<polygon fill="green" stroke="green" stroke-width="0.163981" points="862.452,-30.0122 870.048,-22.6263 859.504,-23.6631 862.452,-30.0122"/>
</g>
<!-- &#45;15&#45;&gt;2 -->
<g id="edge58" class="edge"><title>&#45;15&#45;&gt;2</title>
<path fill="none" stroke="red" stroke-width="0.466679" d="M693.062,-77.5237C697.227,-73.2752 702.81,-68.4469 708.802,-65.6985 813.635,-17.6088 853.14,-54.3962 965.802,-29.6985 973.136,-28.0906 981.001,-25.9007 988.117,-23.7371"/>
<polygon fill="red" stroke="red" stroke-width="0.466679" points="989.377,-27.0096 997.856,-20.6568 987.266,-20.3354 989.377,-27.0096"/>
</g>
<!-- &#45;15&#45;&gt;3 -->
<g id="edge59" class="edge"><title>&#45;15&#45;&gt;3</title>
<path fill="none" stroke="red" stroke-width="0.231786" d="M693.107,-77.6204C697.286,-73.4003 702.867,-68.5682 708.802,-65.6985 789.324,-26.7597 820.801,-54.2721 906.802,-29.6985 910.788,-28.5595 914.947,-27.1346 918.95,-25.6354"/>
<polygon fill="red" stroke="red" stroke-width="0.231786" points="920.393,-28.8283 928.388,-21.8762 917.802,-22.3253 920.393,-28.8283"/>
</g>
<!-- &#45;16 -->
<g id="node16" class="node"><title>&#45;16</title>
<polygon fill="lightgray" stroke="black" points="747.302,-95.9117 718.302,-95.9117 718.302,-77.9117 747.302,-77.9117 747.302,-95.9117"/>
<text text-anchor="middle" x="732.802" y="-84.7117" font-family="Times New Roman,serif" font-size="9.00">&#45;16</text>
</g>
<!-- &#45;16&#45;&gt;0 -->
<g id="edge60" class="edge"><title>&#45;16&#45;&gt;0</title>
<path fill="none" stroke="red" stroke-width="0.465033" d="M741.533,-77.7666C745.738,-73.9674 750.919,-69.4642 755.802,-65.6985 773.071,-52.3813 793.725,-38.6357 808.82,-28.9603"/>
<polygon fill="red" stroke="red" stroke-width="0.465033" points="810.852,-31.8159 817.419,-23.5021 807.101,-25.9058 810.852,-31.8159"/>
</g>
<!-- &#45;16&#45;&gt;1 -->
<g id="edge61" class="edge"><title>&#45;16&#45;&gt;1</title>
<path fill="none" stroke="green" stroke-width="0.298654" d="M740.736,-77.6196C744.923,-73.6043 750.319,-68.9592 755.802,-65.6985 795.683,-41.9805 811.041,-47.7163 853.802,-29.6985 856.058,-28.7479 858.392,-27.7164 860.712,-26.6596"/>
<polygon fill="green" stroke="green" stroke-width="0.298654" points="862.374,-29.7456 869.927,-22.3156 859.389,-23.4139 862.374,-29.7456"/>
</g>
<!-- &#45;16&#45;&gt;2 -->
<g id="edge62" class="edge"><title>&#45;16&#45;&gt;2</title>
<path fill="none" stroke="red" stroke-width="0.225019" d="M740.096,-77.5965C744.271,-73.3694 749.853,-68.5383 755.802,-65.6985 841.258,-24.9032 873.625,-51.389 965.802,-29.6985 973.111,-27.9785 980.968,-25.7555 988.085,-23.5958"/>
<polygon fill="red" stroke="red" stroke-width="0.225019" points="989.333,-26.8724 997.83,-20.5432 987.241,-20.1925 989.333,-26.8724"/>
</g>
<!-- &#45;16&#45;&gt;3 -->
<g id="edge63" class="edge"><title>&#45;16&#45;&gt;3</title>
<path fill="none" stroke="red" stroke-width="0.467087" d="M740.171,-77.7478C744.368,-73.565 749.947,-68.7279 755.802,-65.6985 817.076,-33.9913 841.002,-50.4436 906.802,-29.6985 910.755,-28.452 914.899,-26.9728 918.895,-25.4528"/>
<polygon fill="red" stroke="red" stroke-width="0.467087" points="920.335,-28.6469 928.334,-21.6997 917.749,-22.1422 920.335,-28.6469"/>
</g>
<!-- &#45;17 -->
<g id="node17" class="node"><title>&#45;17</title>
<polygon fill="lightgray" stroke="black" points="794.302,-95.9117 765.302,-95.9117 765.302,-77.9117 794.302,-77.9117 794.302,-95.9117"/>
<text text-anchor="middle" x="779.802" y="-84.7117" font-family="Times New Roman,serif" font-size="9.00">&#45;17</text>
</g>
<!-- &#45;17&#45;&gt;0 -->
<g id="edge64" class="edge"><title>&#45;17&#45;&gt;0</title>
<path fill="none" stroke="green" stroke-width="0.235704" d="M785.537,-77.8746C792.776,-67.7318 805.481,-49.9283 815.429,-35.9895"/>
<polygon fill="green" stroke="green" stroke-width="0.235704" points="818.522,-37.6801 821.482,-27.5071 812.824,-33.6138 818.522,-37.6801"/>
</g>
<!-- &#45;17&#45;&gt;1 -->
<g id="edge65" class="edge"><title>&#45;17&#45;&gt;1</title>
<path fill="none" stroke="green" stroke-width="0.185716" d="M788.474,-77.6882C792.666,-73.8718 797.852,-69.3767 802.802,-65.6985 821.797,-51.582 844.861,-37.5065 861.335,-27.9306"/>
<polygon fill="green" stroke="green" stroke-width="0.185716" points="863.262,-30.86 870.192,-22.8461 859.777,-24.7891 863.262,-30.86"/>
</g>
<!-- &#45;17&#45;&gt;2 -->
<g id="edge66" class="edge"><title>&#45;17&#45;&gt;2</title>
<path fill="none" stroke="red" stroke-width="0.188948" d="M787.151,-77.7088C791.342,-73.5146 796.922,-68.679 802.802,-65.6985 868.975,-32.1527 894.009,-48.4058 965.802,-29.6985 973.068,-27.8051 980.913,-25.5306 988.03,-23.3772"/>
<polygon fill="red" stroke="red" stroke-width="0.188948" points="989.262,-26.6599 997.786,-20.3673 987.199,-19.971 989.262,-26.6599"/>
</g>
<!-- &#45;17&#45;&gt;3 -->
<g id="edge67" class="edge"><title>&#45;17&#45;&gt;3</title>
<path fill="none" stroke="green" stroke-width="0.207374" d="M787.711,-77.5758C791.89,-73.5494 797.289,-68.9075 802.802,-65.6985 845.075,-41.0929 860.939,-46.7009 906.802,-29.6985 910.689,-28.2575 914.799,-26.6802 918.782,-25.1227"/>
<polygon fill="green" stroke="green" stroke-width="0.207374" points="920.218,-28.3186 928.225,-21.3806 917.639,-21.8109 920.218,-28.3186"/>
</g>
<!-- &#45;18 -->
<g id="node18" class="node"><title>&#45;18</title>
<polygon fill="lightgray" stroke="black" points="1871.3,-162.125 1842.3,-162.125 1842.3,-144.125 1871.3,-144.125 1871.3,-162.125"/>
<text text-anchor="middle" x="1856.8" y="-150.925" font-family="Times New Roman,serif" font-size="9.00">&#45;18</text>
</g>
<!-- &#45;18&#45;&gt;0 -->
<g id="edge68" class="edge"><title>&#45;18&#45;&gt;0</title>
<path fill="none" stroke="green" stroke-width="0.39694" d="M1842.22,-152.061C1670.72,-151.275 43.7651,-142.907 9.80172,-108.125 -3.37188,-94.6337 -3.12075,-79.4304 9.80172,-65.6985 37.7285,-36.0224 669.5,-19.5995 804.546,-16.4213"/>
<polygon fill="green" stroke="green" stroke-width="0.39694" points="804.817,-19.916 814.733,-16.1846 804.654,-12.9179 804.817,-19.916"/>
</g>
<!-- &#45;18&#45;&gt;1 -->
<g id="edge69" class="edge"><title>&#45;18&#45;&gt;1</title>
<path fill="none" stroke="red" stroke-width="0.117599" d="M1842.13,-152.043C1674.59,-151.076 128.115,-141.256 95.8017,-108.125 82.636,-94.6261 82.7885,-79.3444 95.8017,-65.6985 153.992,-4.67942 772.033,-50.2725 853.802,-29.6985 856.176,-29.1012 858.588,-28.3018 860.955,-27.3872"/>
<polygon fill="red" stroke="red" stroke-width="0.117599" points="862.55,-30.5073 870.223,-23.2011 859.669,-24.1279 862.55,-30.5073"/>
</g>
<!-- &#45;18&#45;&gt;2 -->
<g id="edge70" class="edge"><title>&#45;18&#45;&gt;2</title>
<path fill="none" stroke="green" stroke-width="0.145669" d="M1861.96,-143.939C1871.98,-126.917 1891.35,-87.477 1870.8,-65.6985 1841.42,-34.559 1175.56,-19.2107 1036.94,-16.347"/>
<polygon fill="green" stroke="green" stroke-width="0.145669" points="1036.93,-12.8462 1026.86,-16.1418 1036.79,-19.8447 1036.93,-12.8462"/>
</g>
<!-- &#45;18&#45;&gt;3 -->
<g id="edge71" class="edge"><title>&#45;18&#45;&gt;3</title>
<path fill="none" stroke="green" stroke-width="0.134915" d="M1857.88,-144.102C1859.71,-126.676 1861.22,-85.3553 1837.8,-65.6985 1765.4,-4.91959 1081.01,-45.4473 987.802,-29.6985 980.398,-28.4475 972.512,-26.3635 965.4,-24.1872"/>
<polygon fill="green" stroke="green" stroke-width="0.134915" points="966.27,-20.7897 955.678,-21.0187 964.101,-27.4452 966.27,-20.7897"/>
</g>
<!-- 181 -->
<g id="node45" class="node"><title>181</title>
<ellipse fill="white" stroke="black" cx="1943.8" cy="-86.9117" rx="21.4286" ry="21.4286"/>
<text text-anchor="middle" x="1943.8" y="-84.7117" font-family="Times New Roman,serif" font-size="9.00">181</text>
</g>
<!-- &#45;18&#45;&gt;181 -->
<g id="edge158" class="edge"><title>&#45;18&#45;&gt;181</title>
<path fill="none" stroke="green" stroke-width="0.408896" d="M1867.82,-143.992C1880.51,-134.624 1901.78,-118.927 1918.59,-106.52"/>
<polygon fill="green" stroke="green" stroke-width="0.408896" points="1920.94,-109.136 1926.91,-100.382 1916.78,-103.504 1920.94,-109.136"/>
</g>
<!-- &#45;19 -->
<g id="node19" class="node"><title>&#45;19</title>
<polygon fill="lightgray" stroke="black" points="841.302,-95.9117 812.302,-95.9117 812.302,-77.9117 841.302,-77.9117 841.302,-95.9117"/>
<text text-anchor="middle" x="826.802" y="-84.7117" font-family="Times New Roman,serif" font-size="9.00">&#45;19</text>
</g>
<!-- &#45;19&#45;&gt;0 -->
<g id="edge72" class="edge"><title>&#45;19&#45;&gt;0</title>
<path fill="none" stroke="green" stroke-width="0.66425" d="M827.146,-77.8746C827.538,-68.7202 828.197,-53.3256 828.761,-40.1641"/>
<polygon fill="green" stroke="green" stroke-width="0.66425" points="832.272,-39.9603 829.204,-29.8197 825.279,-39.6608 832.272,-39.9603"/>
</g>
<!-- &#45;19&#45;&gt;1 -->
<g id="edge73" class="edge"><title>&#45;19&#45;&gt;1</title>
<path fill="none" stroke="red" stroke-width="0.253011" stroke-dasharray="1,5" d="M833.226,-77.8746C841.505,-67.5161 856.171,-49.1677 867.41,-35.1057"/>
<polygon fill="red" stroke="red" stroke-width="0.253011" points="870.368,-37.0105 873.878,-27.0138 864.9,-32.6399 870.368,-37.0105"/>
</g>
<!-- &#45;19&#45;&gt;2 -->
<g id="edge74" class="edge"><title>&#45;19&#45;&gt;2</title>
<path fill="none" stroke="red" stroke-width="0.35599" d="M834.251,-77.897C838.472,-73.758 844.048,-68.915 849.802,-65.6985 852.908,-63.962 943.862,-36.3739 988.096,-23.0041"/>
<polygon fill="red" stroke="red" stroke-width="0.35599" points="989.204,-26.3257 997.765,-20.0834 987.18,-19.6248 989.204,-26.3257"/>
</g>
<!-- &#45;19&#45;&gt;3 -->
<g id="edge75" class="edge"><title>&#45;19&#45;&gt;3</title>
<path fill="none" stroke="green" stroke-width="0.10526" d="M835.375,-77.552C839.546,-73.7057 844.743,-69.2249 849.802,-65.6985 872.264,-50.0401 900.168,-35.5397 919.319,-26.2618"/>
<polygon fill="green" stroke="green" stroke-width="0.10526" points="920.938,-29.3676 928.461,-21.9076 917.928,-23.0478 920.938,-29.3676"/>
</g>
<!-- &#45;20 -->
<g id="node20" class="node"><title>&#45;20</title>
<polygon fill="lightgray" stroke="black" points="1781.3,-95.9117 1752.3,-95.9117 1752.3,-77.9117 1781.3,-77.9117 1781.3,-95.9117"/>
<text text-anchor="middle" x="1766.8" y="-84.7117" font-family="Times New Roman,serif" font-size="9.00">&#45;20</text>
</g>
<!-- &#45;20&#45;&gt;1 -->
<g id="edge76" class="edge"><title>&#45;20&#45;&gt;1</title>
<path fill="none" stroke="green" stroke-width="0.128752" d="M1760.04,-77.7088C1755.86,-73.2901 1750.11,-68.2368 1743.8,-65.6985 1573.33,2.83898 1097.49,-68.0297 917.802,-29.6985 913.678,-28.8187 909.409,-27.5025 905.33,-26.0257"/>
<polygon fill="green" stroke="green" stroke-width="0.128752" points="906.358,-22.6666 895.774,-22.1812 903.745,-29.1608 906.358,-22.6666"/>
</g>
<!-- &#45;20&#45;&gt;2 -->
<g id="edge77" class="edge"><title>&#45;20&#45;&gt;2</title>
<path fill="none" stroke="red" stroke-width="0.207953" d="M1760.01,-77.7665C1755.83,-73.367 1750.08,-68.3137 1743.8,-65.6985 1677.38,-38.0445 1157.99,-20.3735 1036.95,-16.6056"/>
<polygon fill="red" stroke="red" stroke-width="0.207953" points="1036.91,-13.1028 1026.81,-16.2935 1036.69,-20.0995 1036.91,-13.1028"/>
</g>
<!-- &#45;20&#45;&gt;3 -->
<g id="edge78" class="edge"><title>&#45;20&#45;&gt;3</title>
<path fill="none" stroke="red" stroke-width="0.159978" d="M1760.03,-77.7183C1755.86,-73.3028 1750.11,-68.2495 1743.8,-65.6985 1587.88,-2.64367 1153.57,-58.1551 987.802,-29.6985 980.401,-28.428 972.517,-26.3383 965.404,-24.1626"/>
<polygon fill="red" stroke="red" stroke-width="0.159978" points="966.273,-20.765 955.681,-20.999 964.107,-27.4215 966.273,-20.765"/>
</g>
<!-- &#45;21 -->
<g id="node21" class="node"><title>&#45;21</title>
<polygon fill="lightgray" stroke="black" points="888.302,-95.9117 859.302,-95.9117 859.302,-77.9117 888.302,-77.9117 888.302,-95.9117"/>
<text text-anchor="middle" x="873.802" y="-84.7117" font-family="Times New Roman,serif" font-size="9.00">&#45;21</text>
</g>
<!-- &#45;21&#45;&gt;0 -->
<g id="edge79" class="edge"><title>&#45;21&#45;&gt;0</title>
<path fill="none" stroke="green" stroke-width="0.423927" d="M868.754,-77.8746C862.422,-67.7908 851.334,-50.1351 842.603,-36.233"/>
<polygon fill="green" stroke="green" stroke-width="0.423927" points="845.562,-34.3638 837.28,-27.7567 839.634,-38.0866 845.562,-34.3638"/>
</g>
<!-- &#45;21&#45;&gt;1 -->
<g id="edge80" class="edge"><title>&#45;21&#45;&gt;1</title>
<path fill="none" stroke="red" stroke-width="0.504563" d="M874.834,-77.8746C876.022,-68.6287 878.027,-53.017 879.729,-39.7699"/>
<polygon fill="red" stroke="red" stroke-width="0.504563" points="883.204,-40.1841 881.007,-29.8197 876.261,-39.2922 883.204,-40.1841"/>
</g>
<!-- &#45;21&#45;&gt;2 -->
<g id="edge81" class="edge"><title>&#45;21&#45;&gt;2</title>
<path fill="none" stroke="red" stroke-width="0.197655" d="M881.817,-77.7507C886.024,-73.7689 891.414,-69.114 896.802,-65.6985 926.259,-47.0241 963.91,-32.1928 987.947,-23.7127"/>
<polygon fill="red" stroke="red" stroke-width="0.197655" points="989.336,-26.9363 997.653,-20.3734 987.059,-20.3171 989.336,-26.9363"/>
</g>
<!-- &#45;21&#45;&gt;3 -->
<g id="edge82" class="edge"><title>&#45;21&#45;&gt;3</title>
<path fill="none" stroke="red" stroke-width="0.179652" d="M881.602,-77.8746C892.081,-67.0781 910.984,-47.6015 924.82,-33.3456"/>
<polygon fill="red" stroke="red" stroke-width="0.179652" points="927.447,-35.6645 931.9,-26.051 922.424,-30.7893 927.447,-35.6645"/>
</g>
<!-- &#45;22 -->
<g id="node22" class="node"><title>&#45;22</title>
<polygon fill="lightgray" stroke="black" points="935.302,-95.9117 906.302,-95.9117 906.302,-77.9117 935.302,-77.9117 935.302,-95.9117"/>
<text text-anchor="middle" x="920.802" y="-84.7117" font-family="Times New Roman,serif" font-size="9.00">&#45;22</text>
</g>
<!-- &#45;22&#45;&gt;0 -->
<g id="edge83" class="edge"><title>&#45;22&#45;&gt;0</title>
<path fill="none" stroke="green" stroke-width="0.271991" d="M911.564,-77.9079C907.148,-74.1397 901.756,-69.6217 896.802,-65.6985 881.325,-53.4415 863.356,-40.1197 849.925,-30.3338"/>
<polygon fill="green" stroke="green" stroke-width="0.271991" points="851.976,-27.498 841.826,-24.4605 847.867,-33.1647 851.976,-27.498"/>
</g>
<!-- &#45;22&#45;&gt;1 -->
<g id="edge84" class="edge"><title>&#45;22&#45;&gt;1</title>
<path fill="none" stroke="red" stroke-width="0.50944" d="M916.443,-77.8746C911.089,-68.0036 901.8,-50.8771 894.337,-37.1182"/>
<polygon fill="red" stroke="red" stroke-width="0.50944" points="897.378,-35.3832 889.534,-28.2615 891.225,-38.7205 897.378,-35.3832"/>
</g>
<!-- &#45;22&#45;&gt;2 -->
<g id="edge85" class="edge"><title>&#45;22&#45;&gt;2</title>
<path fill="none" stroke="green" stroke-width="0.315629" d="M929.601,-77.8531C933.821,-74.0728 938.994,-69.5605 943.802,-65.6985 959.528,-53.0643 978.029,-39.5866 991.76,-29.8349"/>
<polygon fill="green" stroke="green" stroke-width="0.315629" points="993.862,-32.635 1000.02,-24.011 989.827,-26.9147 993.862,-32.635"/>
</g>
<!-- &#45;22&#45;&gt;3 -->
<g id="edge86" class="edge"><title>&#45;22&#45;&gt;3</title>
<path fill="none" stroke="green" stroke-width="0.19185" d="M923.211,-77.8746C926.044,-68.4226 930.871,-52.3178 934.896,-38.8876"/>
<polygon fill="green" stroke="green" stroke-width="0.19185" points="938.254,-39.8771 937.772,-29.2932 931.548,-37.8673 938.254,-39.8771"/>
</g>
<!-- &#45;23 -->
<g id="node23" class="node"><title>&#45;23</title>
<polygon fill="lightgray" stroke="black" points="982.302,-95.9117 953.302,-95.9117 953.302,-77.9117 982.302,-77.9117 982.302,-95.9117"/>
<text text-anchor="middle" x="967.802" y="-84.7117" font-family="Times New Roman,serif" font-size="9.00">&#45;23</text>
</g>
<!-- &#45;23&#45;&gt;0 -->
<g id="edge87" class="edge"><title>&#45;23&#45;&gt;0</title>
<path fill="none" stroke="green" stroke-width="0.13905" d="M959.396,-77.7532C954.995,-73.772 949.374,-69.1169 943.802,-65.6985 908.832,-44.2444 896.211,-46.5427 858.802,-29.6985 856.57,-28.6934 854.251,-27.6261 851.941,-26.5473"/>
<polygon fill="green" stroke="green" stroke-width="0.13905" points="853.271,-23.3047 842.736,-22.179 850.27,-29.6286 853.271,-23.3047"/>
</g>
<!-- &#45;23&#45;&gt;1 -->
<g id="edge88" class="edge"><title>&#45;23&#45;&gt;1</title>
<path fill="none" stroke="red" stroke-width="0.223757" d="M958.021,-77.6178C953.678,-73.95 948.497,-69.5942 943.802,-65.6985 929.911,-54.1742 914.131,-41.2844 902.102,-31.4995"/>
<polygon fill="red" stroke="red" stroke-width="0.223757" points="904.054,-28.5761 894.085,-24.9872 899.64,-34.0092 904.054,-28.5761"/>
</g>
<!-- &#45;23&#45;&gt;2 -->
<g id="edge89" class="edge"><title>&#45;23&#45;&gt;2</title>
<path fill="none" stroke="green" stroke-width="0.301004" d="M972.849,-77.8746C979.182,-67.7908 990.27,-50.1351 999.001,-36.233"/>
<polygon fill="green" stroke="green" stroke-width="0.301004" points="1001.97,-38.0866 1004.32,-27.7567 996.041,-34.3638 1001.97,-38.0866"/>
</g>
<!-- &#45;23&#45;&gt;3 -->
<g id="edge90" class="edge"><title>&#45;23&#45;&gt;3</title>
<path fill="none" stroke="green" stroke-width="0.118976" d="M964.819,-77.8746C961.29,-68.3653 955.263,-52.1224 950.261,-38.6437"/>
<polygon fill="green" stroke="green" stroke-width="0.118976" points="953.455,-37.1901 946.694,-29.0326 946.892,-39.6256 953.455,-37.1901"/>
</g>
<!-- &#45;24 -->
<g id="node24" class="node"><title>&#45;24</title>
<polygon fill="lightgray" stroke="black" points="1029.3,-95.9117 1000.3,-95.9117 1000.3,-77.9117 1029.3,-77.9117 1029.3,-95.9117"/>
<text text-anchor="middle" x="1014.8" y="-84.7117" font-family="Times New Roman,serif" font-size="9.00">&#45;24</text>
</g>
<!-- &#45;24&#45;&gt;0 -->
<g id="edge91" class="edge"><title>&#45;24&#45;&gt;0</title>
<path fill="none" stroke="green" stroke-width="0.149628" d="M1007.4,-77.8183C1003.19,-73.6561 997.61,-68.8163 991.802,-65.6985 937.846,-36.734 916.223,-50.9808 858.802,-29.6985 856.506,-28.8477 854.146,-27.8818 851.81,-26.8652"/>
<polygon fill="green" stroke="green" stroke-width="0.149628" points="853.121,-23.6145 842.578,-22.5658 850.165,-29.9602 853.121,-23.6145"/>
</g>
<!-- &#45;24&#45;&gt;1 -->
<g id="edge92" class="edge"><title>&#45;24&#45;&gt;1</title>
<path fill="none" stroke="green" stroke-width="0.265057" d="M1006.76,-77.796C1002.54,-73.8257 997.155,-69.1675 991.802,-65.6985 976.859,-56.0157 933.183,-37.0014 905.868,-25.4591"/>
<polygon fill="green" stroke="green" stroke-width="0.265057" points="906.87,-22.0835 896.295,-21.4363 904.158,-28.5369 906.87,-22.0835"/>
</g>
<!-- &#45;24&#45;&gt;2 -->
<g id="edge93" class="edge"><title>&#45;24&#45;&gt;2</title>
<path fill="none" stroke="red" stroke-width="0.138794" stroke-dasharray="1,5" d="M1014.46,-77.8746C1014.07,-68.7202 1013.41,-53.3256 1012.84,-40.1641"/>
<polygon fill="red" stroke="red" stroke-width="0.138794" points="1016.32,-39.6608 1012.4,-29.8197 1009.33,-39.9603 1016.32,-39.6608"/>
</g>
<!-- &#45;24&#45;&gt;3 -->
<g id="edge94" class="edge"><title>&#45;24&#45;&gt;3</title>
<path fill="none" stroke="red" stroke-width="0.323037" d="M1006.43,-77.8746C995.178,-67.0781 974.885,-47.6015 960.032,-33.3456"/>
<polygon fill="red" stroke="red" stroke-width="0.323037" points="962.07,-30.4503 952.431,-26.051 957.222,-35.5006 962.07,-30.4503"/>
</g>
<!-- &#45;25 -->
<g id="node25" class="node"><title>&#45;25</title>
<polygon fill="lightgray" stroke="black" points="1076.3,-95.9117 1047.3,-95.9117 1047.3,-77.9117 1076.3,-77.9117 1076.3,-95.9117"/>
<text text-anchor="middle" x="1061.8" y="-84.7117" font-family="Times New Roman,serif" font-size="9.00">&#45;25</text>
</g>
<!-- &#45;25&#45;&gt;0 -->
<g id="edge95" class="edge"><title>&#45;25&#45;&gt;0</title>
<path fill="none" stroke="red" stroke-width="0.474982" d="M1054.48,-77.6618C1050.29,-73.4538 1044.71,-68.6201 1038.8,-65.6985 965.669,-29.538 936.207,-55.4756 858.802,-29.6985 856.479,-28.925 854.101,-28.0099 851.754,-27.0244"/>
<polygon fill="red" stroke="red" stroke-width="0.474982" points="853.056,-23.7705 842.51,-22.7596 850.124,-30.1267 853.056,-23.7705"/>
</g>
<!-- &#45;25&#45;&gt;1 -->
<g id="edge96" class="edge"><title>&#45;25&#45;&gt;1</title>
<path fill="none" stroke="red" stroke-width="0.230436" d="M1054.36,-77.8756C1050.15,-73.7302 1044.57,-68.8881 1038.8,-65.6985 989.7,-38.5489 970.827,-48.038 917.802,-29.6985 913.884,-28.3435 909.759,-26.8096 905.769,-25.2687"/>
<polygon fill="red" stroke="red" stroke-width="0.230436" points="906.914,-21.9574 896.328,-21.5217 904.331,-28.4637 906.914,-21.9574"/>
</g>
<!-- &#45;25&#45;&gt;2 -->
<g id="edge97" class="edge"><title>&#45;25&#45;&gt;2</title>
<path fill="none" stroke="red" stroke-width="0.132841" d="M1056.07,-77.8746C1048.83,-67.7318 1036.12,-49.9283 1026.17,-35.9895"/>
<polygon fill="red" stroke="red" stroke-width="0.132841" points="1028.78,-33.6138 1020.12,-27.5071 1023.08,-37.6801 1028.78,-33.6138"/>
</g>
<!-- &#45;25&#45;&gt;3 -->
<g id="edge98" class="edge"><title>&#45;25&#45;&gt;3</title>
<path fill="none" stroke="red" stroke-width="0.253935" d="M1053.69,-77.8989C1049.46,-73.9549 1044.07,-69.2891 1038.8,-65.6985 1014.84,-49.379 984.836,-34.747 964.594,-25.6228"/>
<polygon fill="red" stroke="red" stroke-width="0.253935" points="965.807,-22.3324 955.246,-21.4882 962.976,-28.7342 965.807,-22.3324"/>
</g>
<!-- &#45;26 -->
<g id="node26" class="node"><title>&#45;26</title>
<polygon fill="lightgray" stroke="black" points="1123.3,-95.9117 1094.3,-95.9117 1094.3,-77.9117 1123.3,-77.9117 1123.3,-95.9117"/>
<text text-anchor="middle" x="1108.8" y="-84.7117" font-family="Times New Roman,serif" font-size="9.00">&#45;26</text>
</g>
<!-- &#45;26&#45;&gt;0 -->
<g id="edge99" class="edge"><title>&#45;26&#45;&gt;0</title>
<path fill="none" stroke="green" stroke-width="0.223141" d="M1101.52,-77.5668C1097.35,-73.331 1091.77,-68.501 1085.8,-65.6985 993.344,-22.2685 956.346,-60.0231 858.802,-29.6985 856.464,-28.9718 854.076,-28.0874 851.723,-27.1206"/>
<polygon fill="green" stroke="green" stroke-width="0.223141" points="853.02,-23.8651 842.472,-22.8768 850.102,-30.2276 853.02,-23.8651"/>
</g>
<!-- &#45;26&#45;&gt;1 -->
<g id="edge100" class="edge"><title>&#45;26&#45;&gt;1</title>
<path fill="none" stroke="red" stroke-width="0.194468" d="M1101.46,-77.6941C1097.27,-73.4955 1091.69,-68.6605 1085.8,-65.6985 1017.58,-31.3848 990.888,-51.8225 917.802,-29.6985 913.834,-28.4974 909.684,-27.0412 905.684,-25.53"/>
<polygon fill="red" stroke="red" stroke-width="0.194468" points="906.831,-22.2195 896.246,-21.7743 904.243,-28.7235 906.831,-22.2195"/>
</g>
<!-- &#45;26&#45;&gt;2 -->
<g id="edge101" class="edge"><title>&#45;26&#45;&gt;2</title>
<path fill="none" stroke="green" stroke-width="0.387465" d="M1100.07,-77.7666C1095.87,-73.9674 1090.68,-69.4642 1085.8,-65.6985 1068.53,-52.3813 1047.88,-38.6357 1032.78,-28.9603"/>
<polygon fill="green" stroke="green" stroke-width="0.387465" points="1034.5,-25.9058 1024.18,-23.5021 1030.75,-31.8159 1034.5,-25.9058"/>
</g>
<!-- &#45;26&#45;&gt;3 -->
<g id="edge102" class="edge"><title>&#45;26&#45;&gt;3</title>
<path fill="none" stroke="red" stroke-width="0.201764" stroke-dasharray="1,5" d="M1100.89,-77.5759C1096.71,-73.5495 1091.31,-68.9075 1085.8,-65.6985 1075.14,-59.4944 1003.61,-35.8805 965.541,-23.5108"/>
<polygon fill="red" stroke="red" stroke-width="0.201764" points="966.361,-20.0973 955.769,-20.3438 964.203,-26.7563 966.361,-20.0973"/>
</g>
<!-- &#45;27 -->
<g id="node27" class="node"><title>&#45;27</title>
<polygon fill="lightgray" stroke="black" points="1170.3,-95.9117 1141.3,-95.9117 1141.3,-77.9117 1170.3,-77.9117 1170.3,-95.9117"/>
<text text-anchor="middle" x="1155.8" y="-84.7117" font-family="Times New Roman,serif" font-size="9.00">&#45;27</text>
</g>
<!-- &#45;27&#45;&gt;0 -->
<g id="edge103" class="edge"><title>&#45;27&#45;&gt;0</title>
<path fill="none" stroke="green" stroke-width="0.37997" d="M1148.55,-77.5032C1144.39,-73.2488 1138.8,-68.4213 1132.8,-65.6985 1020.95,-14.9639 976.564,-64.5952 858.802,-29.6985 856.455,-29.003 854.06,-28.1391 851.704,-27.1849"/>
<polygon fill="green" stroke="green" stroke-width="0.37997" points="852.998,-23.9283 842.448,-22.955 850.088,-30.295 852.998,-23.9283"/>
</g>
<!-- &#45;27&#45;&gt;1 -->
<g id="edge104" class="edge"><title>&#45;27&#45;&gt;1</title>
<path fill="none" stroke="red" stroke-width="1.12808" d="M1148.51,-77.5873C1144.34,-73.3575 1138.76,-68.5267 1132.8,-65.6985 1045.29,-24.1288 1011.14,-55.6666 917.802,-29.6985 913.808,-28.5874 909.644,-27.1765 905.64,-25.6827"/>
<polygon fill="red" stroke="red" stroke-width="1.12808" points="906.788,-22.3726 896.203,-21.9219 904.197,-28.8753 906.788,-22.3726"/>
</g>
<!-- &#45;27&#45;&gt;2 -->
<g id="edge105" class="edge"><title>&#45;27&#45;&gt;2</title>
<path fill="none" stroke="red" stroke-width="0.353391" d="M1147.81,-77.709C1143.61,-73.7165 1138.22,-69.0648 1132.8,-65.6985 1101.39,-46.1859 1061.02,-31.3358 1035.77,-23.1063"/>
<polygon fill="red" stroke="red" stroke-width="0.353391" points="1036.53,-19.6775 1025.94,-19.9904 1034.42,-26.3499 1036.53,-19.6775"/>
</g>
<!-- &#45;27&#45;&gt;3 -->
<g id="edge106" class="edge"><title>&#45;27&#45;&gt;3</title>
<path fill="none" stroke="red" stroke-width="0.210383" d="M1148.42,-77.7695C1144.22,-73.5931 1138.64,-68.7551 1132.8,-65.6985 1073.97,-34.9078 1051.83,-47.2751 987.802,-29.6985 980.561,-27.7109 972.724,-25.4084 965.605,-23.2583"/>
<polygon fill="red" stroke="red" stroke-width="0.210383" points="966.429,-19.8504 955.843,-20.2717 964.381,-26.5442 966.429,-19.8504"/>
</g>
<!-- &#45;28 -->
<g id="node28" class="node"><title>&#45;28</title>
<polygon fill="lightgray" stroke="black" points="1217.3,-95.9117 1188.3,-95.9117 1188.3,-77.9117 1217.3,-77.9117 1217.3,-95.9117"/>
<text text-anchor="middle" x="1202.8" y="-84.7117" font-family="Times New Roman,serif" font-size="9.00">&#45;28</text>
</g>
<!-- &#45;28&#45;&gt;0 -->
<g id="edge107" class="edge"><title>&#45;28&#45;&gt;0</title>
<path fill="none" stroke="green" stroke-width="0.440787" d="M1195.97,-77.8689C1191.77,-73.5036 1186.02,-68.4503 1179.8,-65.6985 1048.5,-7.64007 996.827,-69.1804 858.802,-29.6985 856.448,-29.0253 854.05,-28.176 851.69,-27.2308"/>
<polygon fill="green" stroke="green" stroke-width="0.440787" points="852.983,-23.9735 842.432,-23.0108 850.08,-30.3431 852.983,-23.9735"/>
</g>
<!-- &#45;28&#45;&gt;1 -->
<g id="edge108" class="edge"><title>&#45;28&#45;&gt;1</title>
<path fill="none" stroke="red" stroke-width="0.201841" d="M1195.54,-77.5174C1191.38,-73.2671 1185.8,-68.4391 1179.8,-65.6985 1072.9,-16.8312 1031.49,-59.5368 917.802,-29.6985 913.792,-28.6461 909.62,-27.2649 905.613,-25.7824"/>
<polygon fill="red" stroke="red" stroke-width="0.201841" points="906.762,-22.4725 896.177,-22.0182 904.168,-28.9743 906.762,-22.4725"/>
</g>
<!-- &#45;28&#45;&gt;2 -->
<g id="edge109" class="edge"><title>&#45;28&#45;&gt;2</title>
<path fill="none" stroke="red" stroke-width="0.386711" d="M1195.36,-77.8739C1191.15,-73.728 1185.57,-68.886 1179.8,-65.6985 1132.7,-39.6794 1070.5,-25.819 1036.54,-19.736"/>
<polygon fill="red" stroke="red" stroke-width="0.386711" points="1037.01,-16.2654 1026.56,-18.0287 1035.83,-23.1651 1037.01,-16.2654"/>
</g>
<!-- &#45;28&#45;&gt;3 -->
<g id="edge110" class="edge"><title>&#45;28&#45;&gt;3</title>
<path fill="none" stroke="red" stroke-width="0.682662" stroke-dasharray="1,5" d="M1195.49,-77.6334C1191.31,-73.4171 1185.73,-68.5845 1179.8,-65.6985 1101.74,-27.6868 1072.16,-50.2426 987.802,-29.6985 980.506,-27.9217 972.653,-25.6817 965.536,-23.5242"/>
<polygon fill="red" stroke="red" stroke-width="0.682662" points="966.376,-20.1199 955.787,-20.4855 964.293,-26.8028 966.376,-20.1199"/>
</g>
<!-- &#45;29 -->
<g id="node29" class="node"><title>&#45;29</title>
<polygon fill="lightgray" stroke="black" points="1264.3,-95.9117 1235.3,-95.9117 1235.3,-77.9117 1264.3,-77.9117 1264.3,-95.9117"/>
<text text-anchor="middle" x="1249.8" y="-84.7117" font-family="Times New Roman,serif" font-size="9.00">&#45;29</text>
</g>
<!-- &#45;29&#45;&gt;0 -->
<g id="edge111" class="edge"><title>&#45;29&#45;&gt;0</title>
<path fill="none" stroke="green" stroke-width="0.229162" d="M1242.98,-77.8358C1238.79,-73.4594 1233.04,-68.4061 1226.8,-65.6985 1076.04,-0.304527 1017.12,-73.7737 858.802,-29.6985 856.443,-29.0419 854.042,-28.2036 851.681,-27.2652"/>
<polygon fill="green" stroke="green" stroke-width="0.229162" points="852.972,-24.0074 842.42,-23.0527 850.073,-30.3792 852.972,-24.0074"/>
</g>
<!-- &#45;29&#45;&gt;1 -->
<g id="edge112" class="edge"><title>&#45;29&#45;&gt;1</title>
<path fill="none" stroke="green" stroke-width="0.26911" d="M1242.96,-77.879C1238.77,-73.517 1233.02,-68.4637 1226.8,-65.6985 1100.47,-9.51132 1051.89,-63.4206 917.802,-29.6985 913.781,-28.6874 909.604,-27.327 905.595,-25.8525"/>
<polygon fill="green" stroke="green" stroke-width="0.26911" points="906.745,-22.5428 896.16,-22.086 904.149,-29.044 906.745,-22.5428"/>
</g>
<!-- &#45;29&#45;&gt;2 -->
<g id="edge113" class="edge"><title>&#45;29&#45;&gt;2</title>
<path fill="none" stroke="red" stroke-width="0.14324" stroke-dasharray="1,5" d="M1242.44,-77.7333C1238.24,-73.5462 1232.67,-68.7097 1226.8,-65.6985 1163.29,-33.0808 1078.32,-21.5357 1036.78,-17.668"/>
<polygon fill="red" stroke="red" stroke-width="0.14324" points="1037,-14.1737 1026.73,-16.8055 1036.4,-21.148 1037,-14.1737"/>
</g>
<!-- &#45;29&#45;&gt;3 -->
<g id="edge114" class="edge"><title>&#45;29&#45;&gt;3</title>
<path fill="none" stroke="green" stroke-width="0.184235" d="M1242.53,-77.5483C1238.36,-73.3071 1232.78,-68.4778 1226.8,-65.6985 1129.4,-20.4059 1092.61,-53.2426 987.802,-29.6985 980.476,-28.0527 972.613,-25.8516 965.497,-23.6894"/>
<polygon fill="green" stroke="green" stroke-width="0.184235" points="966.346,-20.2872 955.756,-20.6184 964.241,-26.9632 966.346,-20.2872"/>
</g>
<!-- &#45;30 -->
<g id="node30" class="node"><title>&#45;30</title>
<polygon fill="lightgray" stroke="black" points="1311.3,-95.9117 1282.3,-95.9117 1282.3,-77.9117 1311.3,-77.9117 1311.3,-95.9117"/>
<text text-anchor="middle" x="1296.8" y="-84.7117" font-family="Times New Roman,serif" font-size="9.00">&#45;30</text>
</g>
<!-- &#45;30&#45;&gt;0 -->
<g id="edge115" class="edge"><title>&#45;30&#45;&gt;0</title>
<path fill="none" stroke="red" stroke-width="0.371974" d="M1289.99,-77.8101C1285.81,-73.4251 1280.06,-68.3718 1273.8,-65.6985 1103.55,7.03866 1037.43,-78.3721 858.802,-29.6985 856.44,-29.0549 854.036,-28.2251 851.673,-27.2919"/>
<polygon fill="red" stroke="red" stroke-width="0.371974" points="852.963,-24.0338 842.411,-23.0852 850.069,-30.4072 852.963,-24.0338"/>
</g>
<!-- &#45;30&#45;&gt;1 -->
<g id="edge116" class="edge"><title>&#45;30&#45;&gt;1</title>
<path fill="none" stroke="green" stroke-width="0.343917" d="M1289.98,-77.8435C1285.79,-73.4696 1280.04,-68.4163 1273.8,-65.6985 1128.01,-2.17828 1072.32,-67.3123 917.802,-29.6985 913.774,-28.718 909.593,-27.373 905.582,-25.9044"/>
<polygon fill="green" stroke="green" stroke-width="0.343917" points="906.732,-22.5948 896.147,-22.1361 904.136,-29.0955 906.732,-22.5948"/>
</g>
<!-- &#45;30&#45;&gt;2 -->
<g id="edge117" class="edge"><title>&#45;30&#45;&gt;2</title>
<path fill="none" stroke="green" stroke-width="0.120898" d="M1289.49,-77.6397C1285.31,-73.4252 1279.72,-68.5924 1273.8,-65.6985 1193.52,-26.4727 1085.4,-18.0586 1037.03,-16.2932"/>
<polygon fill="green" stroke="green" stroke-width="0.120898" points="1036.95,-12.7895 1026.85,-15.9902 1036.75,-19.7864 1036.95,-12.7895"/>
</g>
<!-- &#45;30&#45;&gt;3 -->
<g id="edge118" class="edge"><title>&#45;30&#45;&gt;3</title>
<path fill="none" stroke="red" stroke-width="0.171852" d="M1289.96,-77.9005C1285.76,-73.5456 1280.01,-68.4923 1273.8,-65.6985 1156.98,-13.0954 1113.13,-56.2582 987.802,-29.6985 980.456,-28.1418 972.588,-25.9672 965.473,-23.8017"/>
<polygon fill="red" stroke="red" stroke-width="0.171852" points="966.327,-20.4007 955.737,-20.7087 964.208,-27.0722 966.327,-20.4007"/>
</g>
<!-- &#45;31 -->
<g id="node31" class="node"><title>&#45;31</title>
<polygon fill="lightgray" stroke="black" points="1358.3,-95.9117 1329.3,-95.9117 1329.3,-77.9117 1358.3,-77.9117 1358.3,-95.9117"/>
<text text-anchor="middle" x="1343.8" y="-84.7117" font-family="Times New Roman,serif" font-size="9.00">&#45;31</text>
</g>
<!-- &#45;31&#45;&gt;0 -->
<g id="edge119" class="edge"><title>&#45;31&#45;&gt;0</title>
<path fill="none" stroke="red" stroke-width="0.236039" d="M1337,-77.7895C1332.82,-73.3977 1327.07,-68.3444 1320.8,-65.6985 1131.05,14.3871 1057.75,-82.974 858.802,-29.6985 856.437,-29.0653 854.031,-28.2423 851.668,-27.3132"/>
<polygon fill="red" stroke="red" stroke-width="0.236039" points="852.957,-24.0548 842.404,-23.1111 850.065,-30.4296 852.957,-24.0548"/>
</g>
<!-- &#45;31&#45;&gt;1 -->
<g id="edge120" class="edge"><title>&#45;31&#45;&gt;1</title>
<path fill="none" stroke="green" stroke-width="0.369233" d="M1336.99,-77.8161C1332.81,-73.4331 1327.06,-68.3798 1320.8,-65.6985 1155.53,5.16323 1092.77,-71.2091 917.802,-29.6985 913.699,-28.725 909.44,-27.3623 905.365,-25.8685"/>
<polygon fill="green" stroke="green" stroke-width="0.369233" points="906.392,-22.5091 895.808,-22.0319 903.784,-29.0053 906.392,-22.5091"/>
</g>
<!-- &#45;31&#45;&gt;2 -->
<g id="edge121" class="edge"><title>&#45;31&#45;&gt;2</title>
<path fill="none" stroke="green" stroke-width="0.392737" d="M1336.52,-77.5732C1332.35,-73.3392 1326.76,-68.509 1320.8,-65.6985 1223.31,-19.747 1091.41,-15.0759 1036.93,-15.3031"/>
<polygon fill="green" stroke="green" stroke-width="0.392737" points="1036.78,-11.8044 1026.81,-15.4079 1036.85,-18.8041 1036.78,-11.8044"/>
</g>
<!-- &#45;31&#45;&gt;3 -->
<g id="edge122" class="edge"><title>&#45;31&#45;&gt;3</title>
<path fill="none" stroke="red" stroke-width="0.515241" d="M1336.97,-77.8596C1332.78,-73.4912 1327.03,-68.4379 1320.8,-65.6985 1184.54,-5.76808 1133.69,-59.2822 987.802,-29.6985 980.443,-28.2062 972.57,-26.0507 965.456,-23.883"/>
<polygon fill="red" stroke="red" stroke-width="0.515241" points="966.314,-20.4828 955.723,-20.7741 964.184,-27.1509 966.314,-20.4828"/>
</g>
<!-- &#45;32 -->
<g id="node32" class="node"><title>&#45;32</title>
<polygon fill="lightgray" stroke="black" points="1405.3,-95.9117 1376.3,-95.9117 1376.3,-77.9117 1405.3,-77.9117 1405.3,-95.9117"/>
<text text-anchor="middle" x="1390.8" y="-84.7117" font-family="Times New Roman,serif" font-size="9.00">&#45;32</text>
</g>
<!-- &#45;32&#45;&gt;0 -->
<g id="edge123" class="edge"><title>&#45;32&#45;&gt;0</title>
<path fill="none" stroke="red" stroke-width="0.174532" d="M1384.01,-77.7727C1379.83,-73.3752 1374.08,-68.3219 1367.8,-65.6985 1158.55,21.7393 1078.08,-87.5785 858.802,-29.6985 856.435,-29.0737 854.027,-28.2563 851.663,-27.3306"/>
<polygon fill="red" stroke="red" stroke-width="0.174532" points="852.951,-24.072 842.398,-23.1324 850.062,-30.4479 852.951,-24.072"/>
</g>
<!-- &#45;32&#45;&gt;1 -->
<g id="edge124" class="edge"><title>&#45;32&#45;&gt;1</title>
<path fill="none" stroke="red" stroke-width="0.310665" d="M1384,-77.7944C1379.82,-73.4041 1374.07,-68.3508 1367.8,-65.6985 1183.03,12.5105 1113.23,-75.1092 917.802,-29.6985 913.694,-28.7441 909.433,-27.3908 905.358,-25.9004"/>
<polygon fill="red" stroke="red" stroke-width="0.310665" points="906.385,-22.5411 895.801,-22.0622 903.776,-29.0369 906.385,-22.5411"/>
</g>
<!-- &#45;32&#45;&gt;2 -->
<g id="edge125" class="edge"><title>&#45;32&#45;&gt;2</title>
<path fill="none" stroke="green" stroke-width="0.574454" d="M1383.54,-77.5235C1379.38,-73.275 1373.79,-68.4468 1367.8,-65.6985 1308.44,-38.4685 1108.18,-22.4426 1037.09,-17.502"/>
<polygon fill="green" stroke="green" stroke-width="0.574454" points="1037.05,-13.991 1026.83,-16.8042 1036.57,-20.9749 1037.05,-13.991"/>
</g>
<!-- &#45;32&#45;&gt;3 -->
<g id="edge126" class="edge"><title>&#45;32&#45;&gt;3</title>
<path fill="none" stroke="red" stroke-width="0.10129" d="M1383.99,-77.8287C1379.8,-73.4499 1374.05,-68.3966 1367.8,-65.6985 1212.06,1.56972 1154.28,-62.3115 987.802,-29.6985 980.433,-28.255 972.558,-26.1139 965.444,-23.9444"/>
<polygon fill="red" stroke="red" stroke-width="0.10129" points="966.304,-20.5449 955.713,-20.8235 964.167,-27.2104 966.304,-20.5449"/>
</g>
<!-- &#45;33 -->
<g id="node33" class="node"><title>&#45;33</title>
<polygon fill="lightgray" stroke="black" points="1452.3,-95.9117 1423.3,-95.9117 1423.3,-77.9117 1452.3,-77.9117 1452.3,-95.9117"/>
<text text-anchor="middle" x="1437.8" y="-84.7117" font-family="Times New Roman,serif" font-size="9.00">&#45;33</text>
</g>
<!-- &#45;33&#45;&gt;0 -->
<g id="edge127" class="edge"><title>&#45;33&#45;&gt;0</title>
<path fill="none" stroke="red" stroke-width="0.4526" d="M1431.02,-77.7586C1426.84,-73.3565 1421.09,-68.3032 1414.8,-65.6985 1300.42,-18.3021 978.609,-60.9416 858.802,-29.6985 856.433,-29.0808 854.024,-28.268 851.659,-27.3452"/>
<polygon fill="red" stroke="red" stroke-width="0.4526" points="852.947,-24.0864 842.394,-23.15 850.06,-30.4632 852.947,-24.0864"/>
</g>
<!-- &#45;33&#45;&gt;1 -->
<g id="edge128" class="edge"><title>&#45;33&#45;&gt;1</title>
<path fill="none" stroke="green" stroke-width="0.386421" d="M1431.01,-77.7767C1426.83,-73.3806 1421.08,-68.3273 1414.8,-65.6985 1312.67,-22.9183 1025.76,-54.3551 917.802,-29.6985 913.691,-28.7595 909.428,-27.4139 905.352,-25.9264"/>
<polygon fill="green" stroke="green" stroke-width="0.386421" points="906.379,-22.5671 895.795,-22.0869 903.769,-29.0625 906.379,-22.5671"/>
</g>
<!-- &#45;33&#45;&gt;2 -->
<g id="edge129" class="edge"><title>&#45;33&#45;&gt;2</title>
<path fill="none" stroke="red" stroke-width="0.411176" stroke-dasharray="1,5" d="M1430.96,-77.8955C1426.76,-73.539 1421.01,-68.4857 1414.8,-65.6985 1346.45,-35.0095 1113.8,-20.9175 1036.79,-17.0178"/>
<polygon fill="red" stroke="red" stroke-width="0.411176" points="1036.75,-13.5119 1026.59,-16.5156 1036.41,-20.5034 1036.75,-13.5119"/>
</g>
<!-- &#45;33&#45;&gt;3 -->
<g id="edge130" class="edge"><title>&#45;33&#45;&gt;3</title>
<path fill="none" stroke="red" stroke-width="0.457345" d="M1431,-77.8044C1426.81,-73.4175 1421.06,-68.3642 1414.8,-65.6985 1239.57,8.91443 1174.89,-65.3441 987.802,-29.6985 980.426,-28.2931 972.548,-26.1633 965.435,-23.9925"/>
<polygon fill="red" stroke="red" stroke-width="0.457345" points="966.297,-20.5934 955.706,-20.8622 964.153,-27.257 966.297,-20.5934"/>
</g>
<!-- &#45;34 -->
<g id="node34" class="node"><title>&#45;34</title>
<polygon fill="lightgray" stroke="black" points="1499.3,-95.9117 1470.3,-95.9117 1470.3,-77.9117 1499.3,-77.9117 1499.3,-95.9117"/>
<text text-anchor="middle" x="1484.8" y="-84.7117" font-family="Times New Roman,serif" font-size="9.00">&#45;34</text>
</g>
<!-- &#45;34&#45;&gt;0 -->
<g id="edge131" class="edge"><title>&#45;34&#45;&gt;0</title>
<path fill="none" stroke="green" stroke-width="0.265127" d="M1478.02,-77.7468C1473.84,-73.3407 1468.09,-68.2874 1461.8,-65.6985 1337.66,-14.6235 988.781,-63.2455 858.802,-29.6985 856.431,-29.0867 854.022,-28.2779 851.656,-27.3574"/>
<polygon fill="green" stroke="green" stroke-width="0.265127" points="852.944,-24.0985 842.39,-23.1649 850.058,-30.4761 852.944,-24.0985"/>
</g>
<!-- &#45;34&#45;&gt;1 -->
<g id="edge132" class="edge"><title>&#45;34&#45;&gt;1</title>
<path fill="none" stroke="green" stroke-width="0.20461" d="M1478.01,-77.762C1473.84,-73.361 1468.09,-68.3077 1461.8,-65.6985 1349.91,-19.2411 1036,-56.3072 917.802,-29.6985 913.688,-28.7723 909.424,-27.4331 905.347,-25.9478"/>
<polygon fill="green" stroke="green" stroke-width="0.20461" points="906.374,-22.5886 895.79,-22.1073 903.764,-29.0838 906.374,-22.5886"/>
</g>
<!-- &#45;34&#45;&gt;2 -->
<g id="edge133" class="edge"><title>&#45;34&#45;&gt;2</title>
<path fill="none" stroke="green" stroke-width="0.12942" d="M1477.97,-77.8658C1473.78,-73.4994 1468.03,-68.4461 1461.8,-65.6985 1384.55,-31.6018 1120,-19.6252 1036.95,-16.6561"/>
<polygon fill="green" stroke="green" stroke-width="0.12942" points="1037.01,-13.1562 1026.9,-16.3095 1036.77,-20.152 1037.01,-13.1562"/>
</g>
<!-- &#45;34&#45;&gt;3 -->
<g id="edge134" class="edge"><title>&#45;34&#45;&gt;3</title>
<path fill="none" stroke="green" stroke-width="0.17402" d="M1478.01,-77.7849C1473.82,-73.3915 1468.07,-68.3382 1461.8,-65.6985 1364.44,-24.7173 1091.65,-49.0387 987.802,-29.6985 980.42,-28.3238 972.541,-26.2031 965.427,-24.0311"/>
<polygon fill="green" stroke="green" stroke-width="0.17402" points="966.292,-20.6324 955.7,-20.8932 964.142,-27.2943 966.292,-20.6324"/>
</g>
<!-- &#45;35 -->
<g id="node35" class="node"><title>&#45;35</title>
<polygon fill="lightgray" stroke="black" points="1546.3,-95.9117 1517.3,-95.9117 1517.3,-77.9117 1546.3,-77.9117 1546.3,-95.9117"/>
<text text-anchor="middle" x="1531.8" y="-84.7117" font-family="Times New Roman,serif" font-size="9.00">&#45;35</text>
</g>
<!-- &#45;35&#45;&gt;0 -->
<g id="edge135" class="edge"><title>&#45;35&#45;&gt;0</title>
<path fill="none" stroke="red" stroke-width="0.207388" d="M1525.03,-77.7366C1520.85,-73.3272 1515.1,-68.2739 1508.8,-65.6985 1374.9,-10.9441 998.955,-65.5499 858.802,-29.6985 856.43,-29.0918 854.02,-28.2863 851.653,-27.3679"/>
<polygon fill="red" stroke="red" stroke-width="0.207388" points="852.94,-24.1089 842.387,-23.1777 850.056,-30.4871 852.94,-24.1089"/>
</g>
<!-- &#45;35&#45;&gt;1 -->
<g id="edge136" class="edge"><title>&#45;35&#45;&gt;1</title>
<path fill="none" stroke="green" stroke-width="0.187729" d="M1525.02,-77.7496C1520.84,-73.3445 1515.09,-68.2912 1508.8,-65.6985 1387.15,-15.5628 1046.24,-58.26 917.802,-29.6985 913.685,-28.7831 909.42,-27.4492 905.343,-25.9659"/>
<polygon fill="green" stroke="green" stroke-width="0.187729" points="906.37,-22.6068 895.786,-22.1245 903.759,-29.1017 906.37,-22.6068"/>
</g>
<!-- &#45;35&#45;&gt;2 -->
<g id="edge137" class="edge"><title>&#45;35&#45;&gt;2</title>
<path fill="none" stroke="red" stroke-width="0.300056" stroke-dasharray="1,5" d="M1524.98,-77.8416C1520.79,-73.4671 1515.04,-68.4138 1508.8,-65.6985 1422.64,-28.1989 1126.15,-18.4651 1037.22,-16.3612"/>
<polygon fill="red" stroke="red" stroke-width="0.300056" points="1037.05,-12.8567 1026.98,-16.1315 1036.9,-19.855 1037.05,-12.8567"/>
</g>
<!-- &#45;35&#45;&gt;3 -->
<g id="edge138" class="edge"><title>&#45;35&#45;&gt;3</title>
<path fill="none" stroke="green" stroke-width="0.160103" d="M1525.01,-77.7688C1520.83,-73.3701 1515.08,-68.3168 1508.8,-65.6985 1401.68,-21.0408 1101.97,-50.557 987.802,-29.6985 980.415,-28.3489 972.535,-26.2357 965.421,-24.0629"/>
<polygon fill="green" stroke="green" stroke-width="0.160103" points="966.287,-20.6644 955.695,-20.9188 964.134,-27.325 966.287,-20.6644"/>
</g>
<!-- &#45;36 -->
<g id="node36" class="node"><title>&#45;36</title>
<polygon fill="lightgray" stroke="black" points="1593.3,-95.9117 1564.3,-95.9117 1564.3,-77.9117 1593.3,-77.9117 1593.3,-95.9117"/>
<text text-anchor="middle" x="1578.8" y="-84.7117" font-family="Times New Roman,serif" font-size="9.00">&#45;36</text>
</g>
<!-- &#45;36&#45;&gt;0 -->
<g id="edge139" class="edge"><title>&#45;36&#45;&gt;0</title>
<path fill="none" stroke="green" stroke-width="0.146415" d="M1572.03,-77.7278C1567.85,-73.3154 1562.1,-68.2621 1555.8,-65.6985 1412.14,-7.26405 1009.13,-67.8547 858.802,-29.6985 856.429,-29.0962 854.018,-28.2936 851.651,-27.377"/>
<polygon fill="green" stroke="green" stroke-width="0.146415" points="852.938,-24.1178 842.384,-23.1888 850.055,-30.4966 852.938,-24.1178"/>
</g>
<!-- &#45;36&#45;&gt;1 -->
<g id="edge140" class="edge"><title>&#45;36&#45;&gt;1</title>
<path fill="none" stroke="red" stroke-width="0.224703" d="M1572.02,-77.7391C1567.85,-73.3304 1562.1,-68.2771 1555.8,-65.6985 1424.39,-11.8836 1056.49,-60.2133 917.802,-29.6985 913.683,-28.7923 909.417,-27.463 905.34,-25.9814"/>
<polygon fill="red" stroke="red" stroke-width="0.224703" points="906.367,-22.6222 895.783,-22.1392 903.756,-29.117 906.367,-22.6222"/>
</g>
<!-- &#45;36&#45;&gt;2 -->
<g id="edge141" class="edge"><title>&#45;36&#45;&gt;2</title>
<path fill="none" stroke="green" stroke-width="0.429578" d="M1571.99,-77.8215C1567.8,-73.4403 1562.05,-68.387 1555.8,-65.6985 1460.57,-24.7387 1131.28,-17.3825 1037.13,-16.1075"/>
<polygon fill="green" stroke="green" stroke-width="0.429578" points="1036.89,-12.6043 1026.84,-15.9803 1036.8,-19.6038 1036.89,-12.6043"/>
</g>
<!-- &#45;36&#45;&gt;3 -->
<g id="edge142" class="edge"><title>&#45;36&#45;&gt;3</title>
<path fill="none" stroke="green" stroke-width="0.212287" d="M1572.02,-77.7554C1567.84,-73.3522 1562.09,-68.2989 1555.8,-65.6985 1438.93,-17.363 1112.28,-52.0759 987.802,-29.6985 980.411,-28.3699 972.53,-26.263 965.417,-24.0894"/>
<polygon fill="green" stroke="green" stroke-width="0.212287" points="966.283,-20.6911 955.691,-20.9401 964.127,-27.3507 966.283,-20.6911"/>
</g>
<!-- &#45;37 -->
<g id="node37" class="node"><title>&#45;37</title>
<polygon fill="lightgray" stroke="black" points="1640.3,-95.9117 1611.3,-95.9117 1611.3,-77.9117 1640.3,-77.9117 1640.3,-95.9117"/>
<text text-anchor="middle" x="1625.8" y="-84.7117" font-family="Times New Roman,serif" font-size="9.00">&#45;37</text>
</g>
<!-- &#45;37&#45;&gt;0 -->
<g id="edge143" class="edge"><title>&#45;37&#45;&gt;0</title>
<path fill="none" stroke="green" stroke-width="0.182126" d="M1619.03,-77.7201C1614.86,-73.3052 1609.11,-68.2519 1602.8,-65.6985 1449.37,-3.58347 1019.31,-70.1599 858.802,-29.6985 856.428,-29.1001 854.016,-28.3 851.649,-27.385"/>
<polygon fill="green" stroke="green" stroke-width="0.182126" points="852.936,-24.1257 842.381,-23.1985 850.054,-30.505 852.936,-24.1257"/>
</g>
<!-- &#45;37&#45;&gt;1 -->
<g id="edge144" class="edge"><title>&#45;37&#45;&gt;1</title>
<path fill="none" stroke="red" stroke-width="0.312551" stroke-dasharray="1,5" d="M1619.03,-77.73C1614.85,-73.3183 1609.1,-68.265 1602.8,-65.6985 1461.63,-8.2037 1066.74,-62.167 917.802,-29.6985 913.682,-28.8003 909.415,-27.4749 905.337,-25.9947"/>
<polygon fill="red" stroke="red" stroke-width="0.312551" points="906.364,-22.6356 895.78,-22.1518 903.752,-29.1301 906.364,-22.6356"/>
</g>
<!-- &#45;37&#45;&gt;2 -->
<g id="edge145" class="edge"><title>&#45;37&#45;&gt;2</title>
<path fill="none" stroke="green" stroke-width="0.37096" d="M1619,-77.8045C1614.81,-73.4177 1609.06,-68.3644 1602.8,-65.6985 1498.47,-21.2699 1136.17,-16.3912 1037.04,-15.8949"/>
<polygon fill="green" stroke="green" stroke-width="0.37096" points="1036.8,-12.394 1026.78,-15.8551 1036.77,-19.394 1036.8,-12.394"/>
</g>
<!-- &#45;37&#45;&gt;3 -->
<g id="edge146" class="edge"><title>&#45;37&#45;&gt;3</title>
<path fill="none" stroke="red" stroke-width="0.509204" d="M1619.02,-77.744C1614.85,-73.3371 1609.1,-68.2838 1602.8,-65.6985 1476.17,-13.6842 1122.6,-53.5952 987.802,-29.6985 980.408,-28.3878 972.526,-26.2861 965.413,-24.1119"/>
<polygon fill="red" stroke="red" stroke-width="0.509204" points="966.28,-20.7138 955.688,-20.9582 964.121,-27.3724 966.28,-20.7138"/>
</g>
<!-- &#45;38 -->
<g id="node38" class="node"><title>&#45;38</title>
<polygon fill="lightgray" stroke="black" points="1687.3,-95.9117 1658.3,-95.9117 1658.3,-77.9117 1687.3,-77.9117 1687.3,-95.9117"/>
<text text-anchor="middle" x="1672.8" y="-84.7117" font-family="Times New Roman,serif" font-size="9.00">&#45;38</text>
</g>
<!-- &#45;38&#45;&gt;0 -->
<g id="edge147" class="edge"><title>&#45;38&#45;&gt;0</title>
<path fill="none" stroke="green" stroke-width="0.271761" d="M1666.03,-77.7133C1661.86,-73.2961 1656.11,-68.2428 1649.8,-65.6985 1486.61,0.097556 1029.49,-72.4653 858.802,-29.6985 856.427,-29.1035 854.015,-28.3057 851.647,-27.392"/>
<polygon fill="green" stroke="green" stroke-width="0.271761" points="852.934,-24.1326 842.379,-23.207 850.053,-30.5124 852.934,-24.1326"/>
</g>
<!-- &#45;38&#45;&gt;1 -->
<g id="edge148" class="edge"><title>&#45;38&#45;&gt;1</title>
<path fill="none" stroke="green" stroke-width="0.197729" stroke-dasharray="1,5" d="M1666.03,-77.722C1661.86,-73.3077 1656.11,-68.2544 1649.8,-65.6985 1498.86,-4.52324 1076.99,-64.1209 917.802,-29.6985 913.68,-28.8072 909.412,-27.4852 905.334,-26.0064"/>
<polygon fill="green" stroke="green" stroke-width="0.197729" points="906.362,-22.6473 895.778,-22.1629 903.75,-29.1417 906.362,-22.6473"/>
</g>
<!-- &#45;38&#45;&gt;2 -->
<g id="edge149" class="edge"><title>&#45;38&#45;&gt;2</title>
<path fill="none" stroke="green" stroke-width="0.396099" d="M1666,-77.79C1661.82,-73.3983 1656.07,-68.345 1649.8,-65.6985 1536.36,-17.8034 1141.01,-15.477 1037.02,-15.7143"/>
<polygon fill="green" stroke="green" stroke-width="0.396099" points="1036.83,-12.2148 1026.84,-15.7483 1036.85,-19.2148 1036.83,-12.2148"/>
</g>
<!-- &#45;38&#45;&gt;3 -->
<g id="edge150" class="edge"><title>&#45;38&#45;&gt;3</title>
<path fill="none" stroke="red" stroke-width="0.243424" stroke-dasharray="1,5" d="M1666.03,-77.7343C1661.85,-73.324 1656.1,-68.2707 1649.8,-65.6985 1513.41,-10.0046 1132.92,-55.1149 987.802,-29.6985 980.406,-28.4031 972.522,-26.3059 965.409,-24.1312"/>
<polygon fill="red" stroke="red" stroke-width="0.243424" points="966.277,-20.7333 955.685,-20.9737 964.116,-27.3911 966.277,-20.7333"/>
</g>
<!-- &#45;39 -->
<g id="node39" class="node"><title>&#45;39</title>
<polygon fill="lightgray" stroke="black" points="1828.3,-95.9117 1799.3,-95.9117 1799.3,-77.9117 1828.3,-77.9117 1828.3,-95.9117"/>
<text text-anchor="middle" x="1813.8" y="-84.7117" font-family="Times New Roman,serif" font-size="9.00">&#45;39</text>
</g>
<!-- &#45;39&#45;&gt;1 -->
<g id="edge151" class="edge"><title>&#45;39&#45;&gt;1</title>
<path fill="none" stroke="red" stroke-width="0.587289" d="M1807.04,-77.7032C1802.87,-73.2827 1797.12,-68.2294 1790.8,-65.6985 1610.57,6.52059 1107.74,-69.9843 917.802,-29.6985 913.677,-28.8235 909.407,-27.5097 905.328,-26.0338"/>
<polygon fill="red" stroke="red" stroke-width="0.587289" points="906.356,-22.6747 895.772,-22.1889 903.743,-29.1688 906.356,-22.6747"/>
</g>
<!-- &#45;39&#45;&gt;2 -->
<g id="edge152" class="edge"><title>&#45;39&#45;&gt;2</title>
<path fill="none" stroke="red" stroke-width="0.126339" d="M1807.02,-77.7569C1802.84,-73.3542 1797.09,-68.3009 1790.8,-65.6985 1719.77,-36.2976 1162.68,-19.8537 1036.95,-16.4954"/>
<polygon fill="red" stroke="red" stroke-width="0.126339" points="1036.86,-12.9919 1026.77,-16.2271 1036.68,-19.9894 1036.86,-12.9919"/>
</g>
<!-- &#45;39&#45;&gt;3 -->
<g id="edge153" class="edge"><title>&#45;39&#45;&gt;3</title>
<path fill="none" stroke="red" stroke-width="0.338944" d="M1807.04,-77.7117C1802.86,-73.294 1797.11,-68.2407 1790.8,-65.6985 1625.11,1.03745 1163.89,-59.6755 987.802,-29.6985 980.399,-28.4383 972.514,-26.3516 965.401,-24.1756"/>
<polygon fill="red" stroke="red" stroke-width="0.338944" points="966.272,-20.7781 955.679,-21.0094 964.104,-27.434 966.272,-20.7781"/>
</g>
<!-- &#45;40 -->
<g id="node40" class="node"><title>&#45;40</title>
<polygon fill="lightgray" stroke="black" points="1734.3,-95.9117 1705.3,-95.9117 1705.3,-77.9117 1734.3,-77.9117 1734.3,-95.9117"/>
<text text-anchor="middle" x="1719.8" y="-84.7117" font-family="Times New Roman,serif" font-size="9.00">&#45;40</text>
</g>
<!-- &#45;40&#45;&gt;0 -->
<g id="edge154" class="edge"><title>&#45;40&#45;&gt;0</title>
<path fill="none" stroke="red" stroke-width="0.283178" d="M1713.04,-77.7073C1708.87,-73.2881 1703.12,-68.2348 1696.8,-65.6985 1523.84,3.77894 1039.66,-74.771 858.802,-29.6985 856.426,-29.1065 854.013,-28.3107 851.646,-27.3982"/>
<polygon fill="red" stroke="red" stroke-width="0.283178" points="852.932,-24.1388 842.377,-23.2146 850.052,-30.5189 852.932,-24.1388"/>
</g>
<!-- &#45;40&#45;&gt;1 -->
<g id="edge155" class="edge"><title>&#45;40&#45;&gt;1</title>
<path fill="none" stroke="green" stroke-width="0.408574" d="M1713.03,-77.715C1708.86,-73.2983 1703.11,-68.245 1696.8,-65.6985 1536.1,-0.842316 1087.24,-66.0752 917.802,-29.6985 913.679,-28.8133 909.41,-27.4944 905.332,-26.0166"/>
<polygon fill="green" stroke="green" stroke-width="0.408574" points="906.36,-22.6575 895.776,-22.1726 903.747,-29.1518 906.36,-22.6575"/>
</g>
<!-- &#45;40&#45;&gt;2 -->
<g id="edge156" class="edge"><title>&#45;40&#45;&gt;2</title>
<path fill="none" stroke="green" stroke-width="0.430206" d="M1713.01,-77.7775C1708.83,-73.3816 1703.08,-68.3283 1696.8,-65.6985 1574.26,-14.3462 1145.93,-14.6249 1037.1,-15.5575"/>
<polygon fill="green" stroke="green" stroke-width="0.430206" points="1036.74,-12.0607 1026.78,-15.6567 1036.81,-19.0603 1036.74,-12.0607"/>
</g>
<!-- &#45;40&#45;&gt;3 -->
<g id="edge157" class="edge"><title>&#45;40&#45;&gt;3</title>
<path fill="none" stroke="red" stroke-width="0.14317" d="M1713.03,-77.7258C1708.86,-73.3127 1703.11,-68.2594 1696.8,-65.6985 1550.64,-6.32438 1143.24,-56.6349 987.802,-29.6985 980.403,-28.4164 972.519,-26.3232 965.406,-24.1479"/>
<polygon fill="red" stroke="red" stroke-width="0.14317" points="966.275,-20.7502 955.683,-20.9872 964.111,-27.4073 966.275,-20.7502"/>
</g>
<!-- 181&#45;&gt;2 -->
<g id="edge159" class="edge"><title>181&#45;&gt;2</title>
<path fill="none" stroke="red" stroke-width="0.168021" d="M1926.73,-73.9237C1921.25,-70.6712 1914.99,-67.5421 1908.8,-65.6985 1739.04,-15.1098 1164.35,-15.0492 1036.95,-15.6783"/>
<polygon fill="red" stroke="red" stroke-width="0.168021" points="1036.64,-12.1799 1026.66,-15.7358 1036.68,-19.1797 1036.64,-12.1799"/>
</g>
</g>
</svg>
