<?xml version="1.0" encoding="UTF-8" standalone="no"?>
<!DOCTYPE svg PUBLIC "-//W3C//DTD SVG 1.1//EN"
 "http://www.w3.org/Graphics/SVG/1.1/DTD/svg11.dtd">
<!-- Generated by graphviz version 2.38.0 (20140413.2041)
 -->
<!-- Title: %3 Pages: 1 -->
<svg width="2136pt" height="170pt"
 viewBox="0.00 0.00 2136.02 170.12" xmlns="http://www.w3.org/2000/svg" xmlns:xlink="http://www.w3.org/1999/xlink">
<g id="graph0" class="graph" transform="scale(1 1) rotate(0) translate(4 166.125)">
<title>%3</title>
<polygon fill="white" stroke="none" points="-4,4 -4,-166.125 2132.02,-166.125 2132.02,4 -4,4"/>
<!-- &#45;1 -->
<g id="node1" class="node"><title>&#45;1</title>
<polygon fill="lightgray" stroke="black" points="1046.81,-95.9117 1022.81,-95.9117 1022.81,-77.9117 1046.81,-77.9117 1046.81,-95.9117"/>
<text text-anchor="middle" x="1034.81" y="-84.7117" font-family="Times New Roman,serif" font-size="9.00">&#45;1</text>
</g>
<!-- 0 -->
<g id="node41" class="node"><title>0</title>
<ellipse fill="lightblue" stroke="black" cx="906.81" cy="-14.8492" rx="14.7" ry="14.7"/>
<text text-anchor="middle" x="906.81" y="-12.6492" font-family="Times New Roman,serif" font-size="9.00">0</text>
</g>
<!-- &#45;1&#45;&gt;0 -->
<g id="edge1" class="edge"><title>&#45;1&#45;&gt;0</title>
<path fill="none" stroke="red" stroke-width="0.15482" d="M1027.57,-77.7667C1023.75,-73.789 1018.82,-69.133 1013.81,-65.6985 987.136,-47.4049 952.682,-32.7206 930.18,-24.1485"/>
<polygon fill="red" stroke="red" stroke-width="0.15482" points="931.346,-20.8479 920.753,-20.649 928.91,-27.4104 931.346,-20.8479"/>
</g>
<!-- 1 -->
<g id="node42" class="node"><title>1</title>
<ellipse fill="lightblue" stroke="black" cx="977.81" cy="-14.8492" rx="14.7" ry="14.7"/>
<text text-anchor="middle" x="977.81" y="-12.6492" font-family="Times New Roman,serif" font-size="9.00">1</text>
</g>
<!-- &#45;1&#45;&gt;1 -->
<g id="edge2" class="edge"><title>&#45;1&#45;&gt;1</title>
<path fill="none" stroke="red" stroke-width="0.20073" d="M1028.27,-77.8746C1019.84,-67.5161 1004.92,-49.1677 993.476,-35.1057"/>
<polygon fill="red" stroke="red" stroke-width="0.20073" points="995.919,-32.5621 986.893,-27.0138 990.489,-36.9797 995.919,-32.5621"/>
</g>
<!-- 2 -->
<g id="node43" class="node"><title>2</title>
<ellipse fill="lightblue" stroke="black" cx="1121.81" cy="-14.8492" rx="14.7" ry="14.7"/>
<text text-anchor="middle" x="1121.81" y="-12.6492" font-family="Times New Roman,serif" font-size="9.00">2</text>
</g>
<!-- &#45;1&#45;&gt;2 -->
<g id="edge3" class="edge"><title>&#45;1&#45;&gt;2</title>
<path fill="none" stroke="red" stroke-width="0.3989" d="M1042.78,-77.8074C1046.62,-74.0171 1051.35,-69.5095 1055.81,-65.6985 1070.54,-53.1244 1088.07,-39.9628 1101.36,-30.323"/>
<polygon fill="red" stroke="red" stroke-width="0.3989" points="1103.72,-32.9392 1109.8,-24.2624 1099.63,-27.254 1103.72,-32.9392"/>
</g>
<!-- 3 -->
<g id="node44" class="node"><title>3</title>
<ellipse fill="lightblue" stroke="black" cx="1073.81" cy="-14.8492" rx="14.7" ry="14.7"/>
<text text-anchor="middle" x="1073.81" y="-12.6492" font-family="Times New Roman,serif" font-size="9.00">3</text>
</g>
<!-- &#45;1&#45;&gt;3 -->
<g id="edge4" class="edge"><title>&#45;1&#45;&gt;3</title>
<path fill="none" stroke="red" stroke-width="0.237969" d="M1039.28,-77.8746C1044.78,-68.0036 1054.31,-50.8771 1061.97,-37.1182"/>
<polygon fill="red" stroke="red" stroke-width="0.237969" points="1065.1,-38.7014 1066.9,-28.2615 1058.98,-35.2967 1065.1,-38.7014"/>
</g>
<!-- &#45;2 -->
<g id="node2" class="node"><title>&#45;2</title>
<polygon fill="lightgray" stroke="black" points="1088.81,-95.9117 1064.81,-95.9117 1064.81,-77.9117 1088.81,-77.9117 1088.81,-95.9117"/>
<text text-anchor="middle" x="1076.81" y="-84.7117" font-family="Times New Roman,serif" font-size="9.00">&#45;2</text>
</g>
<!-- &#45;2&#45;&gt;0 -->
<g id="edge5" class="edge"><title>&#45;2&#45;&gt;0</title>
<path fill="none" stroke="red" stroke-width="0.139231" d="M1069.72,-77.5224C1065.94,-73.4823 1061,-68.8443 1055.81,-65.6985 1044.83,-59.0503 969.481,-35.2396 930.328,-23.0909"/>
<polygon fill="red" stroke="red" stroke-width="0.139231" points="931.359,-19.7461 920.771,-20.1339 929.29,-26.4333 931.359,-19.7461"/>
</g>
<!-- &#45;2&#45;&gt;1 -->
<g id="edge6" class="edge"><title>&#45;2&#45;&gt;1</title>
<path fill="none" stroke="green" stroke-width="0.2485" d="M1068.97,-77.6481C1065.16,-73.823 1060.42,-69.3321 1055.81,-65.6985 1037.66,-51.3949 1015.3,-37.4337 999.173,-27.9422"/>
<polygon fill="green" stroke="green" stroke-width="0.2485" points="1000.89,-24.8906 990.481,-22.9015 997.375,-30.946 1000.89,-24.8906"/>
</g>
<!-- &#45;2&#45;&gt;2 -->
<g id="edge7" class="edge"><title>&#45;2&#45;&gt;2</title>
<path fill="none" stroke="green" stroke-width="0.15209" d="M1081.97,-77.8746C1088.45,-67.7908 1099.79,-50.1351 1108.72,-36.233"/>
<polygon fill="green" stroke="green" stroke-width="0.15209" points="1111.7,-38.0622 1114.16,-27.7567 1105.81,-34.2792 1111.7,-38.0622"/>
</g>
<!-- &#45;2&#45;&gt;3 -->
<g id="edge8" class="edge"><title>&#45;2&#45;&gt;3</title>
<path fill="none" stroke="green" stroke-width="0.209563" stroke-dasharray="1,5" d="M1076.47,-77.8746C1076.07,-68.7202 1075.41,-53.3256 1074.85,-40.1641"/>
<polygon fill="green" stroke="green" stroke-width="0.209563" points="1078.33,-39.6608 1074.41,-29.8197 1071.34,-39.9603 1078.33,-39.6608"/>
</g>
<!-- &#45;3 -->
<g id="node3" class="node"><title>&#45;3</title>
<polygon fill="lightgray" stroke="black" points="1130.81,-95.9117 1106.81,-95.9117 1106.81,-77.9117 1130.81,-77.9117 1130.81,-95.9117"/>
<text text-anchor="middle" x="1118.81" y="-84.7117" font-family="Times New Roman,serif" font-size="9.00">&#45;3</text>
</g>
<!-- &#45;3&#45;&gt;0 -->
<g id="edge9" class="edge"><title>&#45;3&#45;&gt;0</title>
<path fill="none" stroke="green" stroke-width="0.369703" d="M1112.2,-77.7557C1108.4,-73.5752 1103.3,-68.7378 1097.81,-65.6985 1040.1,-33.7447 1017.46,-47.0254 953.81,-29.6985 946.223,-27.6332 937.987,-25.2537 930.56,-23.0562"/>
<polygon fill="green" stroke="green" stroke-width="0.369703" points="931.335,-19.6349 920.752,-20.1226 929.329,-26.3413 931.335,-19.6349"/>
</g>
<!-- &#45;3&#45;&gt;1 -->
<g id="edge10" class="edge"><title>&#45;3&#45;&gt;1</title>
<path fill="none" stroke="red" stroke-width="0.607274" d="M1111.63,-77.6765C1107.82,-73.6757 1102.89,-69.0264 1097.81,-65.6985 1067.1,-45.5771 1026.94,-30.8923 1001.75,-22.8639"/>
<polygon fill="red" stroke="red" stroke-width="0.607274" points="1002.53,-19.4425 991.947,-19.8343 1000.47,-26.1305 1002.53,-19.4425"/>
</g>
<!-- &#45;3&#45;&gt;2 -->
<g id="edge11" class="edge"><title>&#45;3&#45;&gt;2</title>
<path fill="none" stroke="green" stroke-width="0.29567" d="M1119.15,-77.8746C1119.55,-68.7202 1120.21,-53.3256 1120.77,-40.1641"/>
<polygon fill="green" stroke="green" stroke-width="0.29567" points="1124.28,-39.9603 1121.21,-29.8197 1117.29,-39.6608 1124.28,-39.9603"/>
</g>
<!-- &#45;3&#45;&gt;3 -->
<g id="edge12" class="edge"><title>&#45;3&#45;&gt;3</title>
<path fill="none" stroke="red" stroke-width="0.264828" d="M1113.65,-77.8746C1107.17,-67.7908 1095.83,-50.1351 1086.9,-36.233"/>
<polygon fill="red" stroke="red" stroke-width="0.264828" points="1089.81,-34.2792 1081.46,-27.7567 1083.92,-38.0622 1089.81,-34.2792"/>
</g>
<!-- &#45;4 -->
<g id="node4" class="node"><title>&#45;4</title>
<polygon fill="lightgray" stroke="black" points="1172.81,-95.9117 1148.81,-95.9117 1148.81,-77.9117 1172.81,-77.9117 1172.81,-95.9117"/>
<text text-anchor="middle" x="1160.81" y="-84.7117" font-family="Times New Roman,serif" font-size="9.00">&#45;4</text>
</g>
<!-- &#45;4&#45;&gt;0 -->
<g id="edge13" class="edge"><title>&#45;4&#45;&gt;0</title>
<path fill="none" stroke="red" stroke-width="0.820089" d="M1154.26,-77.6371C1150.48,-73.4218 1145.38,-68.5891 1139.81,-65.6985 1065.08,-26.9099 1035.62,-49.6208 953.81,-29.6985 946.17,-27.838 937.92,-25.5154 930.495,-23.307"/>
<polygon fill="red" stroke="red" stroke-width="0.820089" points="931.286,-19.8892 920.7,-20.3212 929.245,-26.585 931.286,-19.8892"/>
</g>
<!-- &#45;4&#45;&gt;1 -->
<g id="edge14" class="edge"><title>&#45;4&#45;&gt;1</title>
<path fill="none" stroke="red" stroke-width="0.283794" d="M1154.13,-77.872C1150.31,-73.7256 1145.22,-68.8837 1139.81,-65.6985 1095.39,-39.5291 1035.9,-25.8315 1002.77,-19.7917"/>
<polygon fill="red" stroke="red" stroke-width="0.283794" points="1003.05,-16.289 992.6,-18.03 1001.86,-23.1862 1003.05,-16.289"/>
</g>
<!-- &#45;4&#45;&gt;2 -->
<g id="edge15" class="edge"><title>&#45;4&#45;&gt;2</title>
<path fill="none" stroke="green" stroke-width="0.335007" d="M1156.34,-77.8746C1150.84,-68.0036 1141.31,-50.8771 1133.65,-37.1182"/>
<polygon fill="green" stroke="green" stroke-width="0.335007" points="1136.64,-35.2967 1128.72,-28.2615 1130.53,-38.7014 1136.64,-35.2967"/>
</g>
<!-- &#45;4&#45;&gt;3 -->
<g id="edge16" class="edge"><title>&#45;4&#45;&gt;3</title>
<path fill="none" stroke="green" stroke-width="0.556971" d="M1152.84,-77.8074C1149.01,-74.0171 1144.27,-69.5095 1139.81,-65.6985 1125.08,-53.1244 1107.55,-39.9628 1094.26,-30.323"/>
<polygon fill="green" stroke="green" stroke-width="0.556971" points="1095.99,-27.254 1085.82,-24.2624 1091.9,-32.9392 1095.99,-27.254"/>
</g>
<!-- &#45;5 -->
<g id="node5" class="node"><title>&#45;5</title>
<polygon fill="lightgray" stroke="black" points="1214.81,-95.9117 1190.81,-95.9117 1190.81,-77.9117 1214.81,-77.9117 1214.81,-95.9117"/>
<text text-anchor="middle" x="1202.81" y="-84.7117" font-family="Times New Roman,serif" font-size="9.00">&#45;5</text>
</g>
<!-- &#45;5&#45;&gt;0 -->
<g id="edge17" class="edge"><title>&#45;5&#45;&gt;0</title>
<path fill="none" stroke="red" stroke-width="0.342663" d="M1196.3,-77.5599C1192.53,-73.3221 1187.43,-68.4924 1181.81,-65.6985 1089.95,-20.0206 1053.89,-52.2444 953.81,-29.6985 946.139,-27.9704 937.88,-25.6846 930.457,-23.4691"/>
<polygon fill="red" stroke="red" stroke-width="0.342663" points="931.258,-20.0533 920.67,-20.4496 929.194,-26.7422 931.258,-20.0533"/>
</g>
<!-- &#45;5&#45;&gt;1 -->
<g id="edge18" class="edge"><title>&#45;5&#45;&gt;1</title>
<path fill="none" stroke="green" stroke-width="0.146908" d="M1196.2,-77.744C1192.41,-73.5601 1187.31,-68.7232 1181.81,-65.6985 1166,-57.0024 1052.7,-31.9562 1002.1,-21.0394"/>
<polygon fill="green" stroke="green" stroke-width="0.146908" points="1002.83,-17.6154 992.317,-18.9353 1001.36,-24.459 1002.83,-17.6154"/>
</g>
<!-- &#45;5&#45;&gt;2 -->
<g id="edge19" class="edge"><title>&#45;5&#45;&gt;2</title>
<path fill="none" stroke="red" stroke-width="0.296509" d="M1194.76,-77.8993C1190.91,-74.1292 1186.19,-69.612 1181.81,-65.6985 1168.49,-53.783 1152.96,-40.9053 1141.03,-31.224"/>
<polygon fill="red" stroke="red" stroke-width="0.296509" points="1143.05,-28.3557 1133.07,-24.7988 1138.66,-33.803 1143.05,-28.3557"/>
</g>
<!-- &#45;5&#45;&gt;3 -->
<g id="edge20" class="edge"><title>&#45;5&#45;&gt;3</title>
<path fill="none" stroke="red" stroke-width="0.320683" d="M1195.61,-77.7005C1191.8,-73.7058 1186.87,-69.0547 1181.81,-65.6985 1147.96,-43.2492 1134.13,-47.8808 1097.81,-29.6985 1096.98,-29.2839 1096.14,-28.8534 1095.3,-28.4117"/>
<polygon fill="red" stroke="red" stroke-width="0.320683" points="1096.81,-25.2454 1086.36,-23.4657 1093.42,-31.3701 1096.81,-25.2454"/>
</g>
<!-- &#45;6 -->
<g id="node6" class="node"><title>&#45;6</title>
<polygon fill="lightgray" stroke="black" points="1256.81,-95.9117 1232.81,-95.9117 1232.81,-77.9117 1256.81,-77.9117 1256.81,-95.9117"/>
<text text-anchor="middle" x="1244.81" y="-84.7117" font-family="Times New Roman,serif" font-size="9.00">&#45;6</text>
</g>
<!-- &#45;6&#45;&gt;0 -->
<g id="edge21" class="edge"><title>&#45;6&#45;&gt;0</title>
<path fill="none" stroke="red" stroke-width="0.166261" d="M1238.33,-77.5059C1234.57,-73.2522 1229.46,-68.4246 1223.81,-65.6985 1114.77,-13.1028 1072.22,-54.8821 953.81,-29.6985 946.119,-28.0627 937.854,-25.8026 930.433,-23.5822"/>
<polygon fill="red" stroke="red" stroke-width="0.166261" points="931.239,-20.1677 920.651,-20.5391 929.16,-26.8517 931.239,-20.1677"/>
</g>
<!-- &#45;6&#45;&gt;1 -->
<g id="edge22" class="edge"><title>&#45;6&#45;&gt;1</title>
<path fill="none" stroke="red" stroke-width="0.145209" d="M1238.25,-77.6565C1234.47,-73.4469 1229.37,-68.6134 1223.81,-65.6985 1218.86,-63.1025 1063.82,-32.6456 1002.46,-20.6557"/>
<polygon fill="red" stroke="red" stroke-width="0.145209" points="1002.96,-17.1871 992.472,-18.7058 1001.62,-24.0573 1002.96,-17.1871"/>
</g>
<!-- &#45;6&#45;&gt;2 -->
<g id="edge23" class="edge"><title>&#45;6&#45;&gt;2</title>
<path fill="none" stroke="red" stroke-width="0.400882" d="M1237.54,-77.806C1233.71,-73.8383 1228.79,-69.1794 1223.81,-65.6985 1198.69,-48.1242 1166.44,-33.5028 1145,-24.7341"/>
<polygon fill="red" stroke="red" stroke-width="0.400882" points="1146,-21.3672 1135.42,-20.9123 1143.41,-27.8688 1146,-21.3672"/>
</g>
<!-- &#45;6&#45;&gt;3 -->
<g id="edge24" class="edge"><title>&#45;6&#45;&gt;3</title>
<path fill="none" stroke="green" stroke-width="0.273862" d="M1238.16,-77.8283C1234.35,-73.6691 1229.25,-68.8288 1223.81,-65.6985 1173.33,-36.6433 1151.43,-52.4235 1097.81,-29.6985 1096.96,-29.3372 1096.1,-28.9519 1095.24,-28.5482"/>
<polygon fill="green" stroke="green" stroke-width="0.273862" points="1096.69,-25.3594 1086.22,-23.78 1093.42,-31.5479 1096.69,-25.3594"/>
</g>
<!-- &#45;7 -->
<g id="node7" class="node"><title>&#45;7</title>
<polygon fill="lightgray" stroke="black" points="1298.81,-95.9117 1274.81,-95.9117 1274.81,-77.9117 1298.81,-77.9117 1298.81,-95.9117"/>
<text text-anchor="middle" x="1286.81" y="-84.7117" font-family="Times New Roman,serif" font-size="9.00">&#45;7</text>
</g>
<!-- &#45;7&#45;&gt;0 -->
<g id="edge25" class="edge"><title>&#45;7&#45;&gt;0</title>
<path fill="none" stroke="red" stroke-width="0.169" d="M1280.7,-77.8769C1276.92,-73.5142 1271.67,-68.4609 1265.81,-65.6985 1139.55,-6.16811 1090.59,-57.528 953.81,-29.6985 946.105,-28.1308 937.836,-25.8895 930.415,-23.6656"/>
<polygon fill="red" stroke="red" stroke-width="0.169" points="931.226,-20.2519 920.637,-20.6051 929.135,-26.9323 931.226,-20.2519"/>
</g>
<!-- &#45;7&#45;&gt;1 -->
<g id="edge26" class="edge"><title>&#45;7&#45;&gt;1</title>
<path fill="none" stroke="red" stroke-width="0.397707" d="M1280.29,-77.579C1276.52,-73.3468 1271.42,-68.5163 1265.81,-65.6985 1178.85,-21.9927 1145.6,-46.8915 1049.81,-29.6985 1034.09,-26.8773 1016.49,-23.495 1002.62,-20.7792"/>
<polygon fill="red" stroke="red" stroke-width="0.397707" points="1002.9,-17.2663 992.408,-18.7675 1001.54,-24.1343 1002.9,-17.2663"/>
</g>
<!-- &#45;7&#45;&gt;2 -->
<g id="edge27" class="edge"><title>&#45;7&#45;&gt;2</title>
<path fill="none" stroke="green" stroke-width="0.373595" d="M1279.71,-77.5452C1275.93,-73.511 1270.99,-68.8713 1265.81,-65.6985 1227.24,-42.0608 1175.95,-27.7598 1146.14,-20.8689"/>
<polygon fill="green" stroke="green" stroke-width="0.373595" points="1146.71,-17.4112 1136.19,-18.6618 1145.19,-24.245 1146.71,-17.4112"/>
</g>
<!-- &#45;7&#45;&gt;3 -->
<g id="edge28" class="edge"><title>&#45;7&#45;&gt;3</title>
<path fill="none" stroke="green" stroke-width="0.134234" d="M1280.24,-77.6812C1276.45,-73.4788 1271.35,-68.6444 1265.81,-65.6985 1198.39,-29.8482 1169.08,-57.115 1097.81,-29.6985 1096.95,-29.366 1096.08,-29.0052 1095.21,-28.6223"/>
<polygon fill="green" stroke="green" stroke-width="0.134234" points="1096.64,-25.4235 1086.15,-23.9504 1093.43,-31.6448 1096.64,-25.4235"/>
</g>
<!-- &#45;8 -->
<g id="node8" class="node"><title>&#45;8</title>
<polygon fill="lightgray" stroke="black" points="1340.81,-95.9117 1316.81,-95.9117 1316.81,-77.9117 1340.81,-77.9117 1340.81,-95.9117"/>
<text text-anchor="middle" x="1328.81" y="-84.7117" font-family="Times New Roman,serif" font-size="9.00">&#45;8</text>
</g>
<!-- &#45;8&#45;&gt;0 -->
<g id="edge29" class="edge"><title>&#45;8&#45;&gt;0</title>
<path fill="none" stroke="red" stroke-width="0.206505" d="M1322.72,-77.8471C1318.94,-73.4745 1313.69,-68.4212 1307.81,-65.6985 1164.32,0.777256 1108.99,-60.1788 953.81,-29.6985 946.094,-28.1829 937.823,-25.9562 930.403,-23.7294"/>
<polygon fill="red" stroke="red" stroke-width="0.206505" points="931.216,-20.3164 920.627,-20.6557 929.117,-26.9941 931.216,-20.3164"/>
</g>
<!-- &#45;8&#45;&gt;1 -->
<g id="edge30" class="edge"><title>&#45;8&#45;&gt;1</title>
<path fill="none" stroke="green" stroke-width="0.321773" d="M1322.32,-77.5196C1318.56,-73.2699 1313.45,-68.4418 1307.81,-65.6985 1203.68,-15.0814 1164.03,-48.6392 1049.81,-29.6985 1034.06,-27.0858 1016.45,-23.7077 1002.59,-20.9419"/>
<polygon fill="green" stroke="green" stroke-width="0.321773" points="1002.88,-17.4301 992.388,-18.8813 1001.5,-24.2916 1002.88,-17.4301"/>
</g>
<!-- &#45;8&#45;&gt;2 -->
<g id="edge31" class="edge"><title>&#45;8&#45;&gt;2</title>
<path fill="none" stroke="red" stroke-width="0.165735" d="M1322.18,-77.7925C1318.37,-73.6229 1313.27,-68.784 1307.81,-65.6985 1255.09,-35.9234 1183.86,-23.3277 1146.71,-18.5066"/>
<polygon fill="red" stroke="red" stroke-width="0.165735" points="1147.1,-15.0287 1136.75,-17.2972 1146.26,-21.9776 1147.1,-15.0287"/>
</g>
<!-- &#45;8&#45;&gt;3 -->
<g id="edge32" class="edge"><title>&#45;8&#45;&gt;3</title>
<path fill="none" stroke="green" stroke-width="0.231241" d="M1322.28,-77.5894C1318.51,-73.3602 1313.41,-68.5293 1307.81,-65.6985 1223.3,-22.9777 1186.87,-61.8644 1097.81,-29.6985 1096.94,-29.3839 1096.06,-29.0384 1095.19,-28.6682"/>
<polygon fill="green" stroke="green" stroke-width="0.231241" points="1096.61,-25.4639 1086.11,-24.0563 1093.44,-31.7052 1096.61,-25.4639"/>
</g>
<!-- &#45;9 -->
<g id="node9" class="node"><title>&#45;9</title>
<polygon fill="lightgray" stroke="black" points="1382.81,-95.9117 1358.81,-95.9117 1358.81,-77.9117 1382.81,-77.9117 1382.81,-95.9117"/>
<text text-anchor="middle" x="1370.81" y="-84.7117" font-family="Times New Roman,serif" font-size="9.00">&#45;9</text>
</g>
<!-- &#45;9&#45;&gt;0 -->
<g id="edge33" class="edge"><title>&#45;9&#45;&gt;0</title>
<path fill="none" stroke="red" stroke-width="0.353356" stroke-dasharray="1,5" d="M1364.73,-77.8235C1360.95,-73.443 1355.7,-68.3897 1349.81,-65.6985 1189.06,7.72984 1127.4,-62.833 953.81,-29.6985 946.086,-28.2242 937.812,-26.0089 930.393,-23.7799"/>
<polygon fill="red" stroke="red" stroke-width="0.353356" points="931.209,-20.3674 920.619,-20.6957 929.102,-27.0429 931.209,-20.3674"/>
</g>
<!-- &#45;9&#45;&gt;1 -->
<g id="edge34" class="edge"><title>&#45;9&#45;&gt;1</title>
<path fill="none" stroke="green" stroke-width="0.335429" d="M1364.7,-77.8869C1360.91,-73.5275 1355.66,-68.4742 1349.81,-65.6985 1228.48,-8.15074 1182.5,-50.3943 1049.81,-29.6985 1033.77,-27.1973 1015.85,-23.7522 1001.9,-20.9239"/>
<polygon fill="green" stroke="green" stroke-width="0.335429" points="1002.6,-17.4951 992.102,-18.9071 1001.19,-24.3513 1002.6,-17.4951"/>
</g>
<!-- &#45;9&#45;&gt;2 -->
<g id="edge35" class="edge"><title>&#45;9&#45;&gt;2</title>
<path fill="none" stroke="red" stroke-width="0.385431" d="M1364.23,-77.6903C1360.44,-73.4907 1355.34,-68.6559 1349.81,-65.6985 1282.28,-29.6084 1190.2,-19.6369 1146.62,-16.8894"/>
<polygon fill="red" stroke="red" stroke-width="0.385431" points="1146.81,-13.3946 1136.63,-16.335 1146.42,-20.3838 1146.81,-13.3946"/>
</g>
<!-- &#45;9&#45;&gt;3 -->
<g id="edge36" class="edge"><title>&#45;9&#45;&gt;3</title>
<path fill="none" stroke="green" stroke-width="0.164978" d="M1364.32,-77.5269C1360.55,-73.2794 1355.45,-68.451 1349.81,-65.6985 1248.14,-16.0701 1204.75,-66.6418 1097.81,-29.6985 1096.93,-29.3961 1096.06,-29.0609 1095.18,-28.6995"/>
<polygon fill="green" stroke="green" stroke-width="0.164978" points="1096.59,-25.4917 1086.08,-24.1281 1093.45,-31.7462 1096.59,-25.4917"/>
</g>
<!-- &#45;10 -->
<g id="node10" class="node"><title>&#45;10</title>
<polygon fill="lightgray" stroke="black" points="1430.31,-95.9117 1401.31,-95.9117 1401.31,-77.9117 1430.31,-77.9117 1430.31,-95.9117"/>
<text text-anchor="middle" x="1415.81" y="-84.7117" font-family="Times New Roman,serif" font-size="9.00">&#45;10</text>
</g>
<!-- &#45;10&#45;&gt;0 -->
<g id="edge37" class="edge"><title>&#45;10&#45;&gt;0</title>
<path fill="none" stroke="red" stroke-width="0.286035" d="M1408.65,-77.7981C1404.26,-73.4091 1398.26,-68.3558 1391.81,-65.6985 1211.23,8.7386 1145.83,-65.4895 953.81,-29.6985 946.08,-28.2576 937.804,-26.0516 930.385,-23.8209"/>
<polygon fill="red" stroke="red" stroke-width="0.286035" points="931.203,-20.4087 920.613,-20.7281 929.091,-27.0824 931.203,-20.4087"/>
</g>
<!-- &#45;10&#45;&gt;1 -->
<g id="edge38" class="edge"><title>&#45;10&#45;&gt;1</title>
<path fill="none" stroke="red" stroke-width="0.23626" d="M1408.62,-77.8532C1404.23,-73.4827 1398.23,-68.4294 1391.81,-65.6985 1251.18,-5.83972 1200.99,-52.1536 1049.81,-29.6985 1033.76,-27.314 1015.83,-23.8694 1001.89,-21.0121"/>
<polygon fill="red" stroke="red" stroke-width="0.23626" points="1002.6,-17.5849 992.092,-18.9689 1001.17,-24.4374 1002.6,-17.5849"/>
</g>
<!-- &#45;10&#45;&gt;2 -->
<g id="edge39" class="edge"><title>&#45;10&#45;&gt;2</title>
<path fill="none" stroke="green" stroke-width="0.16544" d="M1408.12,-77.6325C1403.74,-73.416 1397.92,-68.5834 1391.81,-65.6985 1308.06,-26.1422 1195.9,-17.9152 1146.7,-16.2472"/>
<polygon fill="green" stroke="green" stroke-width="0.16544" points="1146.75,-12.7473 1136.66,-15.9706 1146.56,-19.7447 1146.75,-12.7473"/>
</g>
<!-- &#45;10&#45;&gt;3 -->
<g id="edge40" class="edge"><title>&#45;10&#45;&gt;3</title>
<path fill="none" stroke="red" stroke-width="0.122443" stroke-dasharray="1,5" d="M1408.6,-77.894C1404.2,-73.537 1398.2,-68.4837 1391.81,-65.6985 1271.13,-13.1158 1222.66,-71.4347 1097.81,-29.6985 1096.93,-29.4049 1096.05,-29.0771 1095.17,-28.722"/>
<polygon fill="red" stroke="red" stroke-width="0.122443" points="1096.58,-25.5119 1086.06,-24.1801 1093.45,-31.7758 1096.58,-25.5119"/>
</g>
<!-- &#45;11 -->
<g id="node11" class="node"><title>&#45;11</title>
<polygon fill="lightgray" stroke="black" points="81.3101,-95.9117 52.3101,-95.9117 52.3101,-77.9117 81.3101,-77.9117 81.3101,-95.9117"/>
<text text-anchor="middle" x="66.8101" y="-84.7117" font-family="Times New Roman,serif" font-size="9.00">&#45;11</text>
</g>
<!-- &#45;11&#45;&gt;0 -->
<g id="edge41" class="edge"><title>&#45;11&#45;&gt;0</title>
<path fill="none" stroke="green" stroke-width="0.145653" d="M75.7462,-77.7423C81.1416,-73.3348 88.3916,-68.2815 95.8101,-65.6985 246.152,-13.3527 761.798,-14.5602 881.74,-15.5791"/>
<polygon fill="green" stroke="green" stroke-width="0.145653" points="881.761,-19.0793 891.793,-15.6723 881.826,-12.0796 881.761,-19.0793"/>
</g>
<!-- &#45;11&#45;&gt;1 -->
<g id="edge42" class="edge"><title>&#45;11&#45;&gt;1</title>
<path fill="none" stroke="green" stroke-width="0.250541" d="M75.7287,-77.6913C81.1182,-73.2668 88.3682,-68.2135 95.8101,-65.6985 271.762,-6.23541 747.599,-60.1719 930.81,-29.6985 938.567,-28.4083 946.85,-26.2442 954.268,-24.0054"/>
<polygon fill="green" stroke="green" stroke-width="0.250541" points="955.579,-27.2605 964.033,-20.8743 953.442,-20.5948 955.579,-27.2605"/>
</g>
<!-- &#45;11&#45;&gt;3 -->
<g id="edge43" class="edge"><title>&#45;11&#45;&gt;3</title>
<path fill="none" stroke="red" stroke-width="0.298691" d="M81.6008,-82.1662C101.014,-77.4248 136.217,-69.4267 166.81,-65.6985 535.538,-20.7639 632.875,-72.8968 1001.81,-29.6985 1017.93,-27.8111 1035.85,-24.3684 1049.78,-21.3878"/>
<polygon fill="red" stroke="red" stroke-width="0.298691" points="1050.55,-24.8028 1059.56,-19.232 1049.04,-17.9669 1050.55,-24.8028"/>
</g>
<!-- &#45;12 -->
<g id="node12" class="node"><title>&#45;12</title>
<polygon fill="lightgray" stroke="black" points="1477.31,-95.9117 1448.31,-95.9117 1448.31,-77.9117 1477.31,-77.9117 1477.31,-95.9117"/>
<text text-anchor="middle" x="1462.81" y="-84.7117" font-family="Times New Roman,serif" font-size="9.00">&#45;12</text>
</g>
<!-- &#45;12&#45;&gt;0 -->
<g id="edge44" class="edge"><title>&#45;12&#45;&gt;0</title>
<path fill="none" stroke="green" stroke-width="0.228143" d="M1456.02,-77.7805C1451.83,-73.3857 1446.08,-68.3324 1439.81,-65.6985 1339.96,-23.7787 1060.35,-49.113 953.81,-29.6985 946.074,-28.2888 937.797,-26.0915 930.378,-23.8591"/>
<polygon fill="green" stroke="green" stroke-width="0.228143" points="931.198,-20.4472 920.607,-20.7584 929.08,-27.1193 931.198,-20.4472"/>
</g>
<!-- &#45;12&#45;&gt;1 -->
<g id="edge45" class="edge"><title>&#45;12&#45;&gt;1</title>
<path fill="none" stroke="red" stroke-width="0.397007" d="M1456,-77.823C1451.81,-73.4424 1446.06,-68.3891 1439.81,-65.6985 1279.93,3.13193 1222.15,-54.1677 1049.81,-29.6985 1033.74,-27.4171 1015.82,-23.9728 1001.88,-21.09"/>
<polygon fill="red" stroke="red" stroke-width="0.397007" points="1002.59,-17.6642 992.085,-19.0234 1001.15,-24.5133 1002.59,-17.6642"/>
</g>
<!-- &#45;12&#45;&gt;2 -->
<g id="edge46" class="edge"><title>&#45;12&#45;&gt;2</title>
<path fill="none" stroke="green" stroke-width="0.207079" d="M1455.53,-77.5626C1451.36,-73.3255 1445.78,-68.4957 1439.81,-65.6985 1339,-18.4561 1202.51,-14.5533 1146.93,-15.1461"/>
<polygon fill="green" stroke="green" stroke-width="0.207079" points="1146.86,-11.6466 1136.92,-15.3131 1146.98,-18.6456 1146.86,-11.6466"/>
</g>
<!-- &#45;12&#45;&gt;3 -->
<g id="edge47" class="edge"><title>&#45;12&#45;&gt;3</title>
<path fill="none" stroke="red" stroke-width="0.267591" d="M1455.98,-77.8531C1451.79,-73.4824 1446.04,-68.4291 1439.81,-65.6985 1299.82,-4.36364 1243.17,-76.9237 1097.81,-29.6985 1096.76,-29.3566 1095.7,-28.9644 1094.65,-28.5336"/>
<polygon fill="red" stroke="red" stroke-width="0.267591" points="1096.06,-25.3252 1085.56,-23.9345 1092.9,-31.5715 1096.06,-25.3252"/>
</g>
<!-- &#45;13 -->
<g id="node13" class="node"><title>&#45;13</title>
<polygon fill="lightgray" stroke="black" points="1524.31,-95.9117 1495.31,-95.9117 1495.31,-77.9117 1524.31,-77.9117 1524.31,-95.9117"/>
<text text-anchor="middle" x="1509.81" y="-84.7117" font-family="Times New Roman,serif" font-size="9.00">&#45;13</text>
</g>
<!-- &#45;13&#45;&gt;0 -->
<g id="edge48" class="edge"><title>&#45;13&#45;&gt;0</title>
<path fill="none" stroke="green" stroke-width="0.300687" d="M1503.02,-77.7652C1498.84,-73.3653 1493.09,-68.312 1486.81,-65.6985 1377.2,-20.1019 1070.67,-50.6011 953.81,-29.6985 946.07,-28.314 937.791,-26.1236 930.372,-23.8899"/>
<polygon fill="green" stroke="green" stroke-width="0.300687" points="931.193,-20.4783 920.603,-20.7828 929.072,-27.1491 931.193,-20.4783"/>
</g>
<!-- &#45;13&#45;&gt;1 -->
<g id="edge49" class="edge"><title>&#45;13&#45;&gt;1</title>
<path fill="none" stroke="green" stroke-width="0.159906" d="M1503.01,-77.7999C1498.82,-73.4115 1493.07,-68.3582 1486.81,-65.6985 1397.12,-27.6103 1146.35,-42.9203 1049.81,-29.6985 1033.73,-27.4962 1015.81,-24.0523 1001.87,-21.1498"/>
<polygon fill="green" stroke="green" stroke-width="0.159906" points="1002.59,-17.725 992.079,-19.0653 1001.13,-24.5715 1002.59,-17.725"/>
</g>
<!-- &#45;13&#45;&gt;2 -->
<g id="edge50" class="edge"><title>&#45;13&#45;&gt;2</title>
<path fill="none" stroke="green" stroke-width="0.279393" d="M1502.55,-77.5154C1498.39,-73.2646 1492.81,-68.4366 1486.81,-65.6985 1425.66,-37.7759 1218.83,-22.0984 1146.8,-17.3833"/>
<polygon fill="green" stroke="green" stroke-width="0.279393" points="1147.01,-13.8899 1136.81,-16.7436 1146.56,-20.8756 1147.01,-13.8899"/>
</g>
<!-- &#45;13&#45;&gt;3 -->
<g id="edge51" class="edge"><title>&#45;13&#45;&gt;3</title>
<path fill="none" stroke="green" stroke-width="0.411108" d="M1503,-77.8236C1498.81,-73.4431 1493.06,-68.3898 1486.81,-65.6985 1327.34,2.9757 1263.28,-82.3059 1097.81,-29.6985 1096.76,-29.3632 1095.7,-28.9765 1094.64,-28.5501"/>
<polygon fill="green" stroke="green" stroke-width="0.411108" points="1096.05,-25.3406 1085.55,-23.9672 1092.9,-31.5921 1096.05,-25.3406"/>
</g>
<!-- &#45;14 -->
<g id="node14" class="node"><title>&#45;14</title>
<polygon fill="lightgray" stroke="black" points="1571.31,-95.9117 1542.31,-95.9117 1542.31,-77.9117 1571.31,-77.9117 1571.31,-95.9117"/>
<text text-anchor="middle" x="1556.81" y="-84.7117" font-family="Times New Roman,serif" font-size="9.00">&#45;14</text>
</g>
<!-- &#45;14&#45;&gt;0 -->
<g id="edge52" class="edge"><title>&#45;14&#45;&gt;0</title>
<path fill="none" stroke="green" stroke-width="0.171465" d="M1550.03,-77.7524C1545.85,-73.3481 1540.1,-68.2948 1533.81,-65.6985 1414.44,-16.4238 1080.99,-52.0897 953.81,-29.6985 946.066,-28.3351 937.786,-26.1506 930.368,-23.9157"/>
<polygon fill="green" stroke="green" stroke-width="0.171465" points="931.19,-20.5044 920.599,-20.8032 929.065,-27.174 931.19,-20.5044"/>
</g>
<!-- &#45;14&#45;&gt;1 -->
<g id="edge53" class="edge"><title>&#45;14&#45;&gt;1</title>
<path fill="none" stroke="green" stroke-width="0.268745" d="M1550.02,-77.7812C1545.83,-73.3866 1540.08,-68.3333 1533.81,-65.6985 1434.37,-23.9352 1156.72,-43.9083 1049.81,-29.6985 1033.72,-27.5602 1015.8,-24.1165 1001.86,-21.1982"/>
<polygon fill="green" stroke="green" stroke-width="0.268745" points="1002.59,-17.7742 992.074,-19.0992 1001.12,-24.6185 1002.59,-17.7742"/>
</g>
<!-- &#45;14&#45;&gt;2 -->
<g id="edge54" class="edge"><title>&#45;14&#45;&gt;2</title>
<path fill="none" stroke="green" stroke-width="0.369837" d="M1549.97,-77.8893C1545.77,-73.5307 1540.02,-68.4774 1533.81,-65.6985 1463.92,-34.4274 1226.08,-20.7199 1147.35,-16.9675"/>
<polygon fill="green" stroke="green" stroke-width="0.369837" points="1147.08,-13.4513 1136.93,-16.4851 1146.76,-20.4438 1147.08,-13.4513"/>
</g>
<!-- &#45;14&#45;&gt;3 -->
<g id="edge55" class="edge"><title>&#45;14&#45;&gt;3</title>
<path fill="none" stroke="red" stroke-width="0.121581" d="M1550.01,-77.8003C1545.82,-73.4121 1540.07,-68.3588 1533.81,-65.6985 1354.85,10.3215 1283.4,-87.693 1097.81,-29.6985 1096.75,-29.3685 1095.69,-28.986 1094.64,-28.5631"/>
<polygon fill="red" stroke="red" stroke-width="0.121581" points="1096.05,-25.3527 1085.54,-23.9929 1092.9,-31.6083 1096.05,-25.3527"/>
</g>
<!-- &#45;15 -->
<g id="node15" class="node"><title>&#45;15</title>
<polygon fill="lightgray" stroke="black" points="1618.31,-95.9117 1589.31,-95.9117 1589.31,-77.9117 1618.31,-77.9117 1618.31,-95.9117"/>
<text text-anchor="middle" x="1603.81" y="-84.7117" font-family="Times New Roman,serif" font-size="9.00">&#45;15</text>
</g>
<!-- &#45;15&#45;&gt;0 -->
<g id="edge56" class="edge"><title>&#45;15&#45;&gt;0</title>
<path fill="none" stroke="red" stroke-width="0.195083" d="M1597.03,-77.7414C1592.86,-73.3336 1587.11,-68.2803 1580.81,-65.6985 1451.68,-12.7448 1091.31,-53.5788 953.81,-29.6985 946.063,-28.353 937.782,-26.1735 930.364,-23.9377"/>
<polygon fill="red" stroke="red" stroke-width="0.195083" points="931.187,-20.5265 920.596,-20.8207 929.059,-27.1952 931.187,-20.5265"/>
</g>
<!-- &#45;15&#45;&gt;1 -->
<g id="edge57" class="edge"><title>&#45;15&#45;&gt;1</title>
<path fill="none" stroke="green" stroke-width="0.386877" d="M1597.02,-77.7658C1592.84,-73.3661 1587.09,-68.3128 1580.81,-65.6985 1471.62,-20.2583 1167.1,-44.8969 1049.81,-29.6985 1033.72,-27.6129 1015.79,-24.1694 1001.86,-21.238"/>
<polygon fill="green" stroke="green" stroke-width="0.386877" points="1002.58,-17.8147 992.07,-19.1271 1001.11,-24.6573 1002.58,-17.8147"/>
</g>
<!-- &#45;15&#45;&gt;2 -->
<g id="edge58" class="edge"><title>&#45;15&#45;&gt;2</title>
<path fill="none" stroke="green" stroke-width="0.266762" d="M1596.98,-77.8608C1592.79,-73.4927 1587.04,-68.4394 1580.81,-65.6985 1501.82,-30.9353 1230.96,-19.3844 1146.9,-16.5917"/>
<polygon fill="green" stroke="green" stroke-width="0.266762" points="1146.85,-13.0883 1136.74,-16.2672 1146.62,-20.0848 1146.85,-13.0883"/>
</g>
<!-- &#45;15&#45;&gt;3 -->
<g id="edge59" class="edge"><title>&#45;15&#45;&gt;3</title>
<path fill="none" stroke="red" stroke-width="0.362816" d="M1597.02,-77.7816C1592.83,-73.3871 1587.08,-68.3338 1580.81,-65.6985 1382.35,17.6717 1303.53,-93.0836 1097.81,-29.6985 1096.75,-29.3727 1095.69,-28.9936 1094.64,-28.5735"/>
<polygon fill="red" stroke="red" stroke-width="0.362816" points="1096.04,-25.3625 1085.53,-24.0137 1092.91,-31.6214 1096.04,-25.3625"/>
</g>
<!-- &#45;16 -->
<g id="node16" class="node"><title>&#45;16</title>
<polygon fill="lightgray" stroke="black" points="1665.31,-95.9117 1636.31,-95.9117 1636.31,-77.9117 1665.31,-77.9117 1665.31,-95.9117"/>
<text text-anchor="middle" x="1650.81" y="-84.7117" font-family="Times New Roman,serif" font-size="9.00">&#45;16</text>
</g>
<!-- &#45;16&#45;&gt;0 -->
<g id="edge60" class="edge"><title>&#45;16&#45;&gt;0</title>
<path fill="none" stroke="green" stroke-width="0.320397" d="M1644.04,-77.732C1639.86,-73.321 1634.11,-68.2677 1627.81,-65.6985 1488.92,-9.06501 1101.64,-55.0682 953.81,-29.6985 946.06,-28.3685 937.779,-26.1933 930.361,-23.9567"/>
<polygon fill="green" stroke="green" stroke-width="0.320397" points="931.185,-20.5456 920.594,-20.8356 929.054,-27.2135 931.185,-20.5456"/>
</g>
<!-- &#45;16&#45;&gt;1 -->
<g id="edge61" class="edge"><title>&#45;16&#45;&gt;1</title>
<path fill="none" stroke="green" stroke-width="0.298654" d="M1644.03,-77.7529C1639.85,-73.3488 1634.1,-68.2955 1627.81,-65.6985 1508.86,-16.5803 1177.48,-45.8858 1049.81,-29.6985 1033.71,-27.6571 1015.79,-24.2138 1001.85,-21.2714"/>
<polygon fill="green" stroke="green" stroke-width="0.298654" points="1002.58,-17.8486 992.067,-19.1505 1001.1,-24.6897 1002.58,-17.8486"/>
</g>
<!-- &#45;16&#45;&gt;2 -->
<g id="edge62" class="edge"><title>&#45;16&#45;&gt;2</title>
<path fill="none" stroke="red" stroke-width="0.310071" d="M1643.99,-77.8374C1639.8,-73.4616 1634.05,-68.4083 1627.81,-65.6985 1539.78,-27.4809 1236.27,-18.2226 1146.81,-16.3004"/>
<polygon fill="red" stroke="red" stroke-width="0.310071" points="1146.84,-12.8002 1136.77,-16.0966 1146.69,-19.7988 1146.84,-12.8002"/>
</g>
<!-- &#45;16&#45;&gt;3 -->
<g id="edge63" class="edge"><title>&#45;16&#45;&gt;3</title>
<path fill="none" stroke="red" stroke-width="0.381274" stroke-dasharray="1,5" d="M1644.02,-77.7661C1639.84,-73.3665 1634.09,-68.3132 1627.81,-65.6985 1409.84,25.0253 1323.67,-98.4767 1097.81,-29.6985 1096.75,-29.3762 1095.69,-29 1094.63,-28.5822"/>
<polygon fill="red" stroke="red" stroke-width="0.381274" points="1096.04,-25.3706 1085.53,-24.0308 1092.91,-31.6322 1096.04,-25.3706"/>
</g>
<!-- &#45;17 -->
<g id="node17" class="node"><title>&#45;17</title>
<polygon fill="lightgray" stroke="black" points="1712.31,-95.9117 1683.31,-95.9117 1683.31,-77.9117 1712.31,-77.9117 1712.31,-95.9117"/>
<text text-anchor="middle" x="1697.81" y="-84.7117" font-family="Times New Roman,serif" font-size="9.00">&#45;17</text>
</g>
<!-- &#45;17&#45;&gt;0 -->
<g id="edge64" class="edge"><title>&#45;17&#45;&gt;0</title>
<path fill="none" stroke="red" stroke-width="0.348659" d="M1691.04,-77.7238C1686.87,-73.31 1681.12,-68.2567 1674.81,-65.6985 1526.16,-5.38466 1111.97,-56.5579 953.81,-29.6985 946.058,-28.3819 937.776,-26.2105 930.358,-23.9731"/>
<polygon fill="red" stroke="red" stroke-width="0.348659" points="931.182,-20.5622 920.592,-20.8487 929.05,-27.2294 931.182,-20.5622"/>
</g>
<!-- &#45;17&#45;&gt;1 -->
<g id="edge65" class="edge"><title>&#45;17&#45;&gt;1</title>
<path fill="none" stroke="green" stroke-width="0.528306" d="M1691.03,-77.7418C1686.86,-73.3341 1681.11,-68.2808 1674.81,-65.6985 1546.1,-12.9013 1187.86,-46.8751 1049.81,-29.6985 1033.7,-27.6947 1015.78,-24.2515 1001.85,-21.2998"/>
<polygon fill="green" stroke="green" stroke-width="0.528306" points="1002.58,-17.8775 992.065,-19.1704 1001.09,-24.7173 1002.58,-17.8775"/>
</g>
<!-- &#45;17&#45;&gt;2 -->
<g id="edge66" class="edge"><title>&#45;17&#45;&gt;2</title>
<path fill="none" stroke="red" stroke-width="0.112673" d="M1691,-77.818C1686.81,-73.4357 1681.06,-68.3824 1674.81,-65.6985 1577.78,-24.0503 1241.84,-17.1779 1146.95,-16.0619"/>
<polygon fill="red" stroke="red" stroke-width="0.112673" points="1146.88,-12.5611 1136.84,-15.9546 1146.8,-19.5607 1146.88,-12.5611"/>
</g>
<!-- &#45;17&#45;&gt;3 -->
<g id="edge67" class="edge"><title>&#45;17&#45;&gt;3</title>
<path fill="none" stroke="red" stroke-width="0.106605" d="M1691.03,-77.7531C1686.85,-73.3492 1681.1,-68.2958 1674.81,-65.6985 1556.07,-16.6586 1220.81,-66.785 1097.81,-29.6985 1096.75,-29.3791 1095.69,-29.0053 1094.63,-28.5894"/>
<polygon fill="red" stroke="red" stroke-width="0.106605" points="1096.03,-25.3774 1085.52,-24.0452 1092.91,-31.6412 1096.03,-25.3774"/>
</g>
<!-- &#45;18 -->
<g id="node18" class="node"><title>&#45;18</title>
<polygon fill="lightgray" stroke="black" points="1802.31,-162.125 1773.31,-162.125 1773.31,-144.125 1802.31,-144.125 1802.31,-162.125"/>
<text text-anchor="middle" x="1787.81" y="-150.925" font-family="Times New Roman,serif" font-size="9.00">&#45;18</text>
</g>
<!-- &#45;18&#45;&gt;0 -->
<g id="edge68" class="edge"><title>&#45;18&#45;&gt;0</title>
<path fill="none" stroke="red" stroke-width="0.503019" d="M1773.26,-152.047C1605.45,-151.12 42.4562,-141.589 9.81014,-108.125 -3.35723,-94.6276 -3.14799,-79.3967 9.81014,-65.6985 40.5956,-33.1547 738.765,-18.8715 881.472,-16.2868"/>
<polygon fill="red" stroke="red" stroke-width="0.503019" points="881.884,-19.7801 891.82,-16.1024 881.759,-12.7812 881.884,-19.7801"/>
</g>
<!-- &#45;18&#45;&gt;1 -->
<g id="edge69" class="edge"><title>&#45;18&#45;&gt;1</title>
<path fill="none" stroke="red" stroke-width="0.105889" d="M1773.29,-152.02C1612.17,-150.825 164.089,-139.22 133.81,-108.125 9.65332,19.3787 755.286,-59.0785 930.81,-29.6985 938.566,-28.4004 946.848,-26.234 954.266,-23.9957"/>
<polygon fill="red" stroke="red" stroke-width="0.105889" points="955.577,-27.2511 964.032,-20.8666 953.441,-20.5849 955.577,-27.2511"/>
</g>
<!-- &#45;18&#45;&gt;2 -->
<g id="edge70" class="edge"><title>&#45;18&#45;&gt;2</title>
<path fill="none" stroke="red" stroke-width="0.3341" d="M1802.34,-150.167C1837.19,-145.143 1923.89,-130.591 1940.81,-108.125 1952.15,-93.0613 1953.73,-79.4309 1940.81,-65.6985 1912.92,-36.0574 1281.92,-19.607 1147.04,-16.4225"/>
<polygon fill="red" stroke="red" stroke-width="0.3341" points="1146.94,-12.9194 1136.86,-16.1853 1146.78,-19.9175 1146.94,-12.9194"/>
</g>
<!-- &#45;18&#45;&gt;3 -->
<g id="edge71" class="edge"><title>&#45;18&#45;&gt;3</title>
<path fill="none" stroke="red" stroke-width="0.189253" stroke-dasharray="1,5" d="M1788.87,-144.122C1790.67,-126.735 1792.11,-85.487 1768.81,-65.6985 1711.9,-17.3714 1169.39,-50.9402 1097.81,-29.6985 1096.75,-29.3837 1095.69,-29.0137 1094.63,-28.6009"/>
<polygon fill="red" stroke="red" stroke-width="0.189253" points="1096.03,-25.3882 1085.52,-24.0679 1092.91,-31.6555 1096.03,-25.3882"/>
</g>
<!-- 181 -->
<g id="node46" class="node"><title>181</title>
<ellipse fill="white" stroke="black" cx="2008.81" cy="-86.9117" rx="21.4286" ry="21.4286"/>
<text text-anchor="middle" x="2008.81" y="-84.7117" font-family="Times New Roman,serif" font-size="9.00">181</text>
</g>
<!-- &#45;18&#45;&gt;181 -->
<g id="edge157" class="edge"><title>&#45;18&#45;&gt;181</title>
<path fill="none" stroke="red" stroke-width="0.142245" d="M1802.72,-150.107C1834.87,-145.434 1912.75,-132.374 1973.81,-108.125 1976.72,-106.971 1979.67,-105.606 1982.57,-104.139"/>
<polygon fill="red" stroke="red" stroke-width="0.142245" points="1984.42,-107.114 1991.51,-99.2362 1981.06,-100.976 1984.42,-107.114"/>
</g>
<!-- &#45;19 -->
<g id="node19" class="node"><title>&#45;19</title>
<polygon fill="lightgray" stroke="black" points="1759.31,-95.9117 1730.31,-95.9117 1730.31,-77.9117 1759.31,-77.9117 1759.31,-95.9117"/>
<text text-anchor="middle" x="1744.81" y="-84.7117" font-family="Times New Roman,serif" font-size="9.00">&#45;19</text>
</g>
<!-- &#45;19&#45;&gt;0 -->
<g id="edge72" class="edge"><title>&#45;19&#45;&gt;0</title>
<path fill="none" stroke="green" stroke-width="0.300017" d="M1738.04,-77.7166C1733.87,-73.3004 1728.12,-68.2471 1721.81,-65.6985 1563.39,-1.70384 1122.3,-58.0478 953.81,-29.6985 946.056,-28.3938 937.774,-26.2256 930.356,-23.9876"/>
<polygon fill="green" stroke="green" stroke-width="0.300017" points="931.181,-20.5768 920.59,-20.8602 929.046,-27.2433 931.181,-20.5768"/>
</g>
<!-- &#45;19&#45;&gt;1 -->
<g id="edge73" class="edge"><title>&#45;19&#45;&gt;1</title>
<path fill="none" stroke="red" stroke-width="0.272825" d="M1738.04,-77.7324C1733.86,-73.3215 1728.11,-68.2682 1721.81,-65.6985 1583.34,-9.2216 1198.25,-47.8646 1049.81,-29.6985 1033.7,-27.727 1015.78,-24.284 1001.84,-21.3242"/>
<polygon fill="red" stroke="red" stroke-width="0.272825" points="1002.58,-17.9024 992.063,-19.1875 1001.09,-24.7411 1002.58,-17.9024"/>
</g>
<!-- &#45;19&#45;&gt;2 -->
<g id="edge74" class="edge"><title>&#45;19&#45;&gt;2</title>
<path fill="none" stroke="green" stroke-width="0.114437" d="M1738.01,-77.8015C1733.82,-73.4137 1728.07,-68.3604 1721.81,-65.6985 1615.65,-20.5697 1246.51,-16.2037 1146.8,-15.8573"/>
<polygon fill="green" stroke="green" stroke-width="0.114437" points="1146.76,-12.3573 1136.75,-15.8333 1146.74,-19.3573 1146.76,-12.3573"/>
</g>
<!-- &#45;19&#45;&gt;3 -->
<g id="edge75" class="edge"><title>&#45;19&#45;&gt;3</title>
<path fill="none" stroke="red" stroke-width="0.268785" d="M1738.03,-77.7421C1733.86,-73.3344 1728.11,-68.2811 1721.81,-65.6985 1593.31,-12.9796 1230.89,-69.4832 1097.81,-29.6985 1096.75,-29.3816 1095.69,-29.0098 1094.63,-28.5956"/>
<polygon fill="red" stroke="red" stroke-width="0.268785" points="1096.03,-25.3832 1085.52,-24.0574 1092.91,-31.6489 1096.03,-25.3832"/>
</g>
<!-- &#45;20 -->
<g id="node20" class="node"><title>&#45;20</title>
<polygon fill="lightgray" stroke="black" points="1845.31,-95.9117 1816.31,-95.9117 1816.31,-77.9117 1845.31,-77.9117 1845.31,-95.9117"/>
<text text-anchor="middle" x="1830.81" y="-84.7117" font-family="Times New Roman,serif" font-size="9.00">&#45;20</text>
</g>
<!-- &#45;20&#45;&gt;1 -->
<g id="edge76" class="edge"><title>&#45;20&#45;&gt;1</title>
<path fill="none" stroke="red" stroke-width="0.113834" d="M1815.81,-79.779C1803.43,-75.0214 1785.29,-68.741 1768.81,-65.6985 1454.17,-7.6016 1367.46,-68.0102 1049.81,-29.6985 1033.7,-27.7551 1015.77,-24.3122 1001.84,-21.3455"/>
<polygon fill="red" stroke="red" stroke-width="0.113834" points="1002.58,-17.924 992.061,-19.2024 1001.08,-24.7617 1002.58,-17.924"/>
</g>
<!-- &#45;20&#45;&gt;2 -->
<g id="edge77" class="edge"><title>&#45;20&#45;&gt;2</title>
<path fill="none" stroke="green" stroke-width="0.134369" d="M1821.86,-77.7751C1816.46,-73.3785 1809.21,-68.3252 1801.81,-65.6985 1677.63,-21.6404 1255.19,-16.5119 1147.14,-15.9236"/>
<polygon fill="green" stroke="green" stroke-width="0.134369" points="1146.9,-12.4225 1136.88,-15.8767 1146.86,-19.4225 1146.9,-12.4225"/>
</g>
<!-- &#45;20&#45;&gt;3 -->
<g id="edge78" class="edge"><title>&#45;20&#45;&gt;3</title>
<path fill="none" stroke="green" stroke-width="0.29489" d="M1821.88,-77.7137C1816.49,-73.2966 1809.24,-68.2433 1801.81,-65.6985 1653.61,-14.9519 1248.04,-74.0771 1097.81,-29.6985 1096.75,-29.385 1095.68,-29.0161 1094.63,-28.6042"/>
<polygon fill="green" stroke="green" stroke-width="0.29489" points="1096.03,-25.3913 1085.51,-24.0745 1092.91,-31.6597 1096.03,-25.3913"/>
</g>
<!-- &#45;21 -->
<g id="node21" class="node"><title>&#45;21</title>
<polygon fill="lightgray" stroke="black" points="252.31,-95.9117 223.31,-95.9117 223.31,-77.9117 252.31,-77.9117 252.31,-95.9117"/>
<text text-anchor="middle" x="237.81" y="-84.7117" font-family="Times New Roman,serif" font-size="9.00">&#45;21</text>
</g>
<!-- &#45;21&#45;&gt;0 -->
<g id="edge79" class="edge"><title>&#45;21&#45;&gt;0</title>
<path fill="none" stroke="green" stroke-width="0.357362" d="M244.97,-77.7863C249.357,-73.3934 255.357,-68.3401 261.81,-65.6985 377.14,-18.4874 777.196,-15.668 881.685,-15.7542"/>
<polygon fill="green" stroke="green" stroke-width="0.357362" points="881.895,-19.2545 891.901,-15.7732 881.908,-12.2545 881.895,-19.2545"/>
</g>
<!-- &#45;21&#45;&gt;1 -->
<g id="edge80" class="edge"><title>&#45;21&#45;&gt;1</title>
<path fill="none" stroke="green" stroke-width="0.205932" d="M244.947,-77.7296C249.327,-73.3178 255.327,-68.2645 261.81,-65.6985 400.244,-10.9097 784.079,-54.9097 930.81,-29.6985 938.56,-28.3669 946.841,-26.1913 954.259,-23.9548"/>
<polygon fill="green" stroke="green" stroke-width="0.205932" points="955.566,-27.2116 964.026,-20.8342 953.435,-20.5437 955.566,-27.2116"/>
</g>
<!-- &#45;21&#45;&gt;2 -->
<g id="edge81" class="edge"><title>&#45;21&#45;&gt;2</title>
<path fill="none" stroke="red" stroke-width="0.266105" d="M244.937,-77.7035C249.313,-73.283 255.313,-68.2297 261.81,-65.6985 435.076,1.80332 919.268,-81.6593 1097.81,-29.6985 1098.87,-29.3893 1099.94,-29.0239 1101,-28.6148"/>
<polygon fill="red" stroke="red" stroke-width="0.266105" points="1102.71,-31.6729 1110.11,-24.0955 1099.6,-25.4013 1102.71,-31.6729"/>
</g>
<!-- &#45;21&#45;&gt;3 -->
<g id="edge82" class="edge"><title>&#45;21&#45;&gt;3</title>
<path fill="none" stroke="red" stroke-width="0.296985" d="M244.943,-77.7171C249.32,-73.3011 255.32,-68.2478 261.81,-65.6985 415.051,-5.50544 838.342,-49.2966 1001.81,-29.6985 1017.92,-27.7666 1035.85,-24.3237 1049.78,-21.3541"/>
<polygon fill="red" stroke="red" stroke-width="0.296985" points="1050.54,-24.7701 1059.56,-19.2084 1049.04,-17.9327 1050.54,-24.7701"/>
</g>
<!-- &#45;22 -->
<g id="node22" class="node"><title>&#45;22</title>
<polygon fill="lightgray" stroke="black" points="299.31,-95.9117 270.31,-95.9117 270.31,-77.9117 299.31,-77.9117 299.31,-95.9117"/>
<text text-anchor="middle" x="284.81" y="-84.7117" font-family="Times New Roman,serif" font-size="9.00">&#45;22</text>
</g>
<!-- &#45;22&#45;&gt;0 -->
<g id="edge83" class="edge"><title>&#45;22&#45;&gt;0</title>
<path fill="none" stroke="green" stroke-width="0.268169" d="M291.976,-77.8009C296.365,-73.4129 302.365,-68.3596 308.81,-65.6985 415.084,-21.82 782.653,-16.5482 881.931,-15.9285"/>
<polygon fill="green" stroke="green" stroke-width="0.268169" points="881.955,-19.4285 891.937,-15.8766 881.919,-12.4286 881.955,-19.4285"/>
</g>
<!-- &#45;22&#45;&gt;1 -->
<g id="edge84" class="edge"><title>&#45;22&#45;&gt;1</title>
<path fill="none" stroke="green" stroke-width="0.391488" d="M291.951,-77.7395C296.332,-73.3309 302.332,-68.2776 308.81,-65.6985 437.444,-14.4865 794.404,-53.4204 930.81,-29.6985 938.557,-28.3512 946.837,-26.1712 954.256,-23.9355"/>
<polygon fill="green" stroke="green" stroke-width="0.391488" points="955.561,-27.1931 964.024,-20.8189 953.433,-20.5243 955.561,-27.1931"/>
</g>
<!-- &#45;22&#45;&gt;2 -->
<g id="edge85" class="edge"><title>&#45;22&#45;&gt;2</title>
<path fill="none" stroke="green" stroke-width="0.203226" d="M291.94,-77.7097C296.316,-73.2913 302.316,-68.238 308.81,-65.6985 472.271,-1.77511 929.349,-78.9593 1097.81,-29.6985 1098.87,-29.3879 1099.94,-29.0214 1101,-28.6115"/>
<polygon fill="green" stroke="green" stroke-width="0.203226" points="1102.71,-31.6687 1110.11,-24.0888 1099.6,-25.3981 1102.71,-31.6687"/>
</g>
<!-- &#45;22&#45;&gt;3 -->
<g id="edge86" class="edge"><title>&#45;22&#45;&gt;3</title>
<path fill="none" stroke="green" stroke-width="0.612314" d="M291.946,-77.7251C296.324,-73.3118 302.324,-68.2585 308.81,-65.6985 452.249,-9.08307 848.729,-48.3068 1001.81,-29.6985 1017.92,-27.74 1035.84,-24.2971 1049.78,-21.3341"/>
<polygon fill="green" stroke="green" stroke-width="0.612314" points="1050.54,-24.7507 1059.56,-19.1944 1049.04,-17.9124 1050.54,-24.7507"/>
</g>
<!-- &#45;23 -->
<g id="node23" class="node"><title>&#45;23</title>
<polygon fill="lightgray" stroke="black" points="346.31,-95.9117 317.31,-95.9117 317.31,-77.9117 346.31,-77.9117 346.31,-95.9117"/>
<text text-anchor="middle" x="331.81" y="-84.7117" font-family="Times New Roman,serif" font-size="9.00">&#45;23</text>
</g>
<!-- &#45;23&#45;&gt;0 -->
<g id="edge87" class="edge"><title>&#45;23&#45;&gt;0</title>
<path fill="none" stroke="red" stroke-width="0.348977" d="M338.983,-77.8179C343.374,-73.4356 349.374,-68.3823 355.81,-65.6985 452.916,-25.2033 787.339,-17.5106 881.789,-16.1339"/>
<polygon fill="red" stroke="red" stroke-width="0.348977" points="881.898,-19.6328 891.85,-15.9984 881.803,-12.6335 881.898,-19.6328"/>
</g>
<!-- &#45;23&#45;&gt;1 -->
<g id="edge88" class="edge"><title>&#45;23&#45;&gt;1</title>
<path fill="none" stroke="green" stroke-width="0.110206" d="M338.956,-77.7509C343.338,-73.3462 349.338,-68.2929 355.81,-65.6985 474.646,-18.0626 804.727,-51.9313 930.81,-29.6985 938.554,-28.333 946.833,-26.1479 954.252,-23.9132"/>
<polygon fill="green" stroke="green" stroke-width="0.110206" points="955.555,-27.1715 964.021,-20.8012 953.43,-20.5018 955.555,-27.1715"/>
</g>
<!-- &#45;23&#45;&gt;2 -->
<g id="edge89" class="edge"><title>&#45;23&#45;&gt;2</title>
<path fill="none" stroke="green" stroke-width="0.237064" d="M338.942,-77.7168C343.32,-73.3007 349.32,-68.2474 355.81,-65.6985 509.468,-5.35319 939.43,-76.2596 1097.81,-29.6985 1098.87,-29.3864 1099.94,-29.0186 1100.99,-28.6077"/>
<polygon fill="green" stroke="green" stroke-width="0.237064" points="1102.71,-31.664 1110.11,-24.0813 1099.6,-25.3945 1102.71,-31.664"/>
</g>
<!-- &#45;23&#45;&gt;3 -->
<g id="edge90" class="edge"><title>&#45;23&#45;&gt;3</title>
<path fill="none" stroke="green" stroke-width="0.296487" d="M338.949,-77.7343C343.329,-73.324 349.329,-68.2707 355.81,-65.6985 489.448,-12.6602 859.115,-47.3172 1001.81,-29.6985 1017.92,-27.7097 1035.84,-24.2666 1049.77,-21.3112"/>
<polygon fill="green" stroke="green" stroke-width="0.296487" points="1050.53,-24.7284 1059.56,-19.1783 1049.04,-17.8891 1050.53,-24.7284"/>
</g>
<!-- &#45;24 -->
<g id="node24" class="node"><title>&#45;24</title>
<polygon fill="lightgray" stroke="black" points="1888.31,-162.125 1859.31,-162.125 1859.31,-144.125 1888.31,-144.125 1888.31,-162.125"/>
<text text-anchor="middle" x="1873.81" y="-150.925" font-family="Times New Roman,serif" font-size="9.00">&#45;24</text>
</g>
<!-- &#45;24&#45;&gt;0 -->
<g id="edge91" class="edge"><title>&#45;24&#45;&gt;0</title>
<path fill="none" stroke="green" stroke-width="0.564586" d="M1859.07,-149.768C1846.54,-147.873 1828.04,-145.334 1811.81,-144.125 1762.8,-140.475 77.2084,-143.23 42.8101,-108.125 29.6131,-94.6566 29.8665,-79.4104 42.8101,-65.6985 72.3706,-34.3833 742.095,-19.1741 881.523,-16.3413"/>
<polygon fill="green" stroke="green" stroke-width="0.564586" points="881.732,-19.8379 891.66,-16.1383 881.592,-12.8393 881.732,-19.8379"/>
</g>
<!-- &#45;24&#45;&gt;1 -->
<g id="edge92" class="edge"><title>&#45;24&#45;&gt;1</title>
<path fill="none" stroke="green" stroke-width="0.245623" d="M1859.07,-149.774C1846.54,-147.883 1828.04,-145.346 1811.81,-144.125 1766.23,-140.696 198.773,-140.795 166.81,-108.125 47.4558,13.8701 762.509,-58.0378 930.81,-29.6985 938.564,-28.3928 946.847,-26.2244 954.265,-23.9864"/>
<polygon fill="green" stroke="green" stroke-width="0.245623" points="955.574,-27.2422 964.031,-20.8592 953.44,-20.5756 955.574,-27.2422"/>
</g>
<!-- &#45;24&#45;&gt;2 -->
<g id="edge93" class="edge"><title>&#45;24&#45;&gt;2</title>
<path fill="none" stroke="red" stroke-width="0.296833" stroke-dasharray="1,5" d="M1888.37,-150.484C1925.17,-146.008 2020.25,-132.281 2038.81,-108.125 2050.3,-93.1722 2051.78,-79.3889 2038.81,-65.6985 2007.26,-32.3817 1290.65,-18.6706 1146.82,-16.2495"/>
<polygon fill="red" stroke="red" stroke-width="0.296833" points="1146.82,-12.7492 1136.76,-16.0832 1146.7,-19.7483 1146.82,-12.7492"/>
</g>
<!-- &#45;24&#45;&gt;3 -->
<g id="edge94" class="edge"><title>&#45;24&#45;&gt;3</title>
<path fill="none" stroke="green" stroke-width="0.199412" d="M1874.88,-144.111C1876.7,-126.703 1878.17,-85.416 1854.81,-65.6985 1790.46,-11.3896 1178.61,-53.4098 1097.81,-29.6985 1096.75,-29.3869 1095.68,-29.0196 1094.63,-28.6089"/>
<polygon fill="green" stroke="green" stroke-width="0.199412" points="1096.02,-25.3957 1085.51,-24.0838 1092.91,-31.6655 1096.02,-25.3957"/>
</g>
<!-- 401 -->
<g id="node45" class="node"><title>401</title>
<ellipse fill="white" stroke="black" cx="2106.81" cy="-86.9117" rx="21.4286" ry="21.4286"/>
<text text-anchor="middle" x="2106.81" y="-84.7117" font-family="Times New Roman,serif" font-size="9.00">401</text>
</g>
<!-- &#45;24&#45;&gt;401 -->
<g id="edge159" class="edge"><title>&#45;24&#45;&gt;401</title>
<path fill="none" stroke="red" stroke-width="0.587295" d="M1888.67,-150.397C1922.25,-146.157 2006.18,-133.671 2071.81,-108.125 2074.72,-106.991 2077.68,-105.639 2080.59,-104.18"/>
<polygon fill="red" stroke="red" stroke-width="0.587295" points="2082.44,-107.157 2089.53,-99.2866 2079.08,-101.016 2082.44,-107.157"/>
</g>
<!-- &#45;25 -->
<g id="node25" class="node"><title>&#45;25</title>
<polygon fill="lightgray" stroke="black" points="393.31,-95.9117 364.31,-95.9117 364.31,-77.9117 393.31,-77.9117 393.31,-95.9117"/>
<text text-anchor="middle" x="378.81" y="-84.7117" font-family="Times New Roman,serif" font-size="9.00">&#45;25</text>
</g>
<!-- &#45;25&#45;&gt;0 -->
<g id="edge95" class="edge"><title>&#45;25&#45;&gt;0</title>
<path fill="none" stroke="green" stroke-width="0.533556" d="M385.992,-77.8381C390.386,-73.4625 396.386,-68.4092 402.81,-65.6985 490.792,-28.5758 792.309,-18.5615 881.662,-16.379"/>
<polygon fill="green" stroke="green" stroke-width="0.533556" points="882.014,-19.8719 891.93,-16.1404 881.851,-12.8737 882.014,-19.8719"/>
</g>
<!-- &#45;25&#45;&gt;1 -->
<g id="edge96" class="edge"><title>&#45;25&#45;&gt;1</title>
<path fill="none" stroke="red" stroke-width="0.390254" d="M385.961,-77.7644C390.345,-73.3642 396.345,-68.3109 402.81,-65.6985 511.85,-21.6377 815.048,-50.4427 930.81,-29.6985 938.55,-28.3115 946.828,-26.1205 954.247,-23.8869"/>
<polygon fill="red" stroke="red" stroke-width="0.390254" points="955.548,-27.1461 964.017,-20.7804 953.426,-20.4753 955.548,-27.1461"/>
</g>
<!-- &#45;25&#45;&gt;2 -->
<g id="edge97" class="edge"><title>&#45;25&#45;&gt;2</title>
<path fill="none" stroke="red" stroke-width="0.110176" d="M385.946,-77.7247C390.324,-73.3113 396.324,-68.258 402.81,-65.6985 546.666,-8.93084 949.509,-73.5602 1097.81,-29.6985 1098.87,-29.3847 1099.94,-29.0155 1100.99,-28.6033"/>
<polygon fill="red" stroke="red" stroke-width="0.110176" points="1102.71,-31.6586 1110.11,-24.0727 1099.59,-25.3905 1102.71,-31.6586"/>
</g>
<!-- &#45;25&#45;&gt;3 -->
<g id="edge98" class="edge"><title>&#45;25&#45;&gt;3</title>
<path fill="none" stroke="red" stroke-width="0.29248" d="M385.954,-77.7448C390.335,-73.3381 396.335,-68.2848 402.81,-65.6985 526.649,-16.2366 869.5,-46.3278 1001.81,-29.6985 1017.91,-27.6746 1035.84,-24.2314 1049.77,-21.2846"/>
<polygon fill="red" stroke="red" stroke-width="0.29248" points="1050.52,-24.7026 1059.55,-19.1598 1049.04,-17.8621 1050.52,-24.7026"/>
</g>
<!-- &#45;26 -->
<g id="node26" class="node"><title>&#45;26</title>
<polygon fill="lightgray" stroke="black" points="440.31,-95.9117 411.31,-95.9117 411.31,-77.9117 440.31,-77.9117 440.31,-95.9117"/>
<text text-anchor="middle" x="425.81" y="-84.7117" font-family="Times New Roman,serif" font-size="9.00">&#45;26</text>
</g>
<!-- &#45;26&#45;&gt;0 -->
<g id="edge99" class="edge"><title>&#45;26&#45;&gt;0</title>
<path fill="none" stroke="red" stroke-width="0.321578" d="M433.002,-77.8623C437.399,-73.4948 443.399,-68.4415 449.81,-65.6985 528.811,-31.8957 798.246,-19.6895 881.857,-16.6644"/>
<polygon fill="red" stroke="red" stroke-width="0.321578" points="882.089,-20.1585 891.961,-16.3113 881.844,-13.1628 882.089,-20.1585"/>
</g>
<!-- &#45;26&#45;&gt;1 -->
<g id="edge100" class="edge"><title>&#45;26&#45;&gt;1</title>
<path fill="none" stroke="red" stroke-width="0.194468" d="M432.968,-77.7804C437.354,-73.3856 443.354,-68.3323 449.81,-65.6985 549.058,-25.2116 825.366,-48.9547 930.81,-29.6985 938.545,-28.2859 946.823,-26.0877 954.242,-23.8555"/>
<polygon fill="red" stroke="red" stroke-width="0.194468" points="955.539,-27.1158 964.012,-20.7555 953.422,-20.4436 955.539,-27.1158"/>
</g>
<!-- &#45;26&#45;&gt;2 -->
<g id="edge101" class="edge"><title>&#45;26&#45;&gt;2</title>
<path fill="none" stroke="red" stroke-width="0.216671" d="M432.949,-77.7338C437.329,-73.3234 443.329,-68.2701 449.81,-65.6985 583.865,-12.508 959.587,-70.8612 1097.81,-29.6985 1098.87,-29.3827 1099.93,-29.0119 1100.99,-28.5984"/>
<polygon fill="red" stroke="red" stroke-width="0.216671" points="1102.71,-31.6524 1110.1,-24.0629 1099.59,-25.3858 1102.71,-31.6524"/>
</g>
<!-- &#45;26&#45;&gt;3 -->
<g id="edge102" class="edge"><title>&#45;26&#45;&gt;3</title>
<path fill="none" stroke="red" stroke-width="0.34378" stroke-dasharray="1,5" d="M432.958,-77.7572C437.341,-73.3546 443.341,-68.3013 449.81,-65.6985 563.852,-19.8122 879.882,-45.3387 1001.81,-29.6985 1017.91,-27.6336 1035.83,-24.1902 1049.77,-21.2536"/>
<polygon fill="red" stroke="red" stroke-width="0.34378" points="1050.52,-24.6725 1059.55,-19.138 1049.04,-17.8306 1050.52,-24.6725"/>
</g>
<!-- &#45;27 -->
<g id="node27" class="node"><title>&#45;27</title>
<polygon fill="lightgray" stroke="black" points="487.31,-95.9117 458.31,-95.9117 458.31,-77.9117 487.31,-77.9117 487.31,-95.9117"/>
<text text-anchor="middle" x="472.81" y="-84.7117" font-family="Times New Roman,serif" font-size="9.00">&#45;27</text>
</g>
<!-- &#45;27&#45;&gt;0 -->
<g id="edge103" class="edge"><title>&#45;27&#45;&gt;0</title>
<path fill="none" stroke="green" stroke-width="0.396182" d="M480.015,-77.8919C484.416,-73.5343 490.416,-68.481 496.81,-65.6985 566.683,-35.2901 803.157,-21.0128 881.422,-17.042"/>
<polygon fill="green" stroke="green" stroke-width="0.396182" points="881.967,-20.5194 891.782,-16.5303 881.622,-13.528 881.967,-20.5194"/>
</g>
<!-- &#45;27&#45;&gt;1 -->
<g id="edge104" class="edge"><title>&#45;27&#45;&gt;1</title>
<path fill="none" stroke="green" stroke-width="0.306339" d="M479.976,-77.7999C484.364,-73.4116 490.364,-68.3583 496.81,-65.6985 675.727,8.13071 740.549,-65.2364 930.81,-29.6985 938.54,-28.2547 946.815,-26.0479 954.235,-23.8173"/>
<polygon fill="green" stroke="green" stroke-width="0.306339" points="955.529,-27.079 964.007,-20.7253 953.417,-20.4051 955.529,-27.079"/>
</g>
<!-- &#45;27&#45;&gt;2 -->
<g id="edge105" class="edge"><title>&#45;27&#45;&gt;2</title>
<path fill="none" stroke="green" stroke-width="0.389511" d="M479.953,-77.7444C484.334,-73.3375 490.334,-68.2842 496.81,-65.6985 621.066,-16.0844 969.663,-68.1628 1097.81,-29.6985 1098.87,-29.3804 1099.93,-29.0077 1100.99,-28.5927"/>
<polygon fill="green" stroke="green" stroke-width="0.389511" points="1102.71,-31.6453 1110.1,-24.0516 1099.59,-25.3805 1102.71,-31.6453"/>
</g>
<!-- &#45;27&#45;&gt;3 -->
<g id="edge106" class="edge"><title>&#45;27&#45;&gt;3</title>
<path fill="none" stroke="green" stroke-width="0.200702" d="M479.964,-77.7719C484.349,-73.3741 490.349,-68.3208 496.81,-65.6985 601.058,-23.3868 890.261,-44.35 1001.81,-29.6985 1017.9,-27.5849 1035.82,-24.1414 1049.76,-21.2169"/>
<polygon fill="green" stroke="green" stroke-width="0.200702" points="1050.51,-24.6367 1059.55,-19.1123 1049.04,-17.7932 1050.51,-24.6367"/>
</g>
<!-- &#45;28 -->
<g id="node28" class="node"><title>&#45;28</title>
<polygon fill="lightgray" stroke="black" points="534.31,-95.9117 505.31,-95.9117 505.31,-77.9117 534.31,-77.9117 534.31,-95.9117"/>
<text text-anchor="middle" x="519.81" y="-84.7117" font-family="Times New Roman,serif" font-size="9.00">&#45;28</text>
</g>
<!-- &#45;28&#45;&gt;0 -->
<g id="edge107" class="edge"><title>&#45;28&#45;&gt;0</title>
<path fill="none" stroke="red" stroke-width="0.217314" d="M527.449,-77.5196C531.814,-73.27 537.637,-68.4419 543.81,-65.6985 604.782,-38.6006 809.577,-22.44 881.544,-17.4875"/>
<polygon fill="red" stroke="red" stroke-width="0.217314" points="882.17,-20.9534 891.912,-16.789 881.699,-13.9693 882.17,-20.9534"/>
</g>
<!-- &#45;28&#45;&gt;1 -->
<g id="edge108" class="edge"><title>&#45;28&#45;&gt;1</title>
<path fill="none" stroke="green" stroke-width="0.10554" d="M526.986,-77.824C531.378,-73.4437 537.378,-68.3904 543.81,-65.6985 703.161,0.990612 761.165,-62.264 930.81,-29.6985 938.532,-28.2161 946.806,-25.9986 954.226,-23.77"/>
<polygon fill="green" stroke="green" stroke-width="0.10554" points="955.515,-27.0333 964,-20.6879 953.41,-20.3574 955.515,-27.0333"/>
</g>
<!-- &#45;28&#45;&gt;2 -->
<g id="edge109" class="edge"><title>&#45;28&#45;&gt;2</title>
<path fill="none" stroke="red" stroke-width="0.488464" d="M526.958,-77.7566C531.341,-73.3539 537.341,-68.3006 543.81,-65.6985 772.728,26.3783 861.665,-101.231 1097.81,-29.6985 1098.87,-29.3777 1099.93,-29.0028 1100.99,-28.586"/>
<polygon fill="red" stroke="red" stroke-width="0.488464" points="1102.71,-31.637 1110.1,-24.0384 1099.59,-25.3742 1102.71,-31.637"/>
</g>
<!-- &#45;28&#45;&gt;3 -->
<g id="edge110" class="edge"><title>&#45;28&#45;&gt;3</title>
<path fill="none" stroke="red" stroke-width="0.682662" d="M526.972,-77.7895C531.359,-73.3976 537.359,-68.3443 543.81,-65.6985 638.267,-26.96 900.637,-43.3617 1001.81,-29.6985 1017.89,-27.5264 1035.82,-24.0826 1049.76,-21.1726"/>
<polygon fill="red" stroke="red" stroke-width="0.682662" points="1050.5,-24.5937 1059.54,-19.0813 1049.03,-17.7482 1050.5,-24.5937"/>
</g>
<!-- &#45;29 -->
<g id="node29" class="node"><title>&#45;29</title>
<polygon fill="lightgray" stroke="black" points="581.31,-95.9117 552.31,-95.9117 552.31,-77.9117 581.31,-77.9117 581.31,-95.9117"/>
<text text-anchor="middle" x="566.81" y="-84.7117" font-family="Times New Roman,serif" font-size="9.00">&#45;29</text>
</g>
<!-- &#45;29&#45;&gt;0 -->
<g id="edge111" class="edge"><title>&#45;29&#45;&gt;0</title>
<path fill="none" stroke="red" stroke-width="0.330923" d="M574.471,-77.5687C578.842,-73.3335 584.665,-68.5034 590.81,-65.6985 691.256,-19.8496 826.264,-15.1484 881.579,-15.3364"/>
<polygon fill="red" stroke="red" stroke-width="0.330923" points="881.806,-18.8386 891.839,-15.433 881.872,-11.8389 881.806,-18.8386"/>
</g>
<!-- &#45;29&#45;&gt;1 -->
<g id="edge112" class="edge"><title>&#45;29&#45;&gt;1</title>
<path fill="none" stroke="green" stroke-width="0.197193" d="M573.999,-77.8547C578.395,-73.4846 584.395,-68.4313 590.81,-65.6985 730.609,-6.14311 781.764,-59.2948 930.81,-29.6985 938.523,-28.167 946.794,-25.9358 954.214,-23.7099"/>
<polygon fill="green" stroke="green" stroke-width="0.197193" points="955.498,-26.9752 963.99,-20.6402 953.401,-20.2966 955.498,-26.9752"/>
</g>
<!-- &#45;29&#45;&gt;2 -->
<g id="edge113" class="edge"><title>&#45;29&#45;&gt;2</title>
<path fill="none" stroke="red" stroke-width="0.23212" d="M573.964,-77.7712C578.349,-73.3732 584.349,-68.3199 590.81,-65.6985 800.139,19.229 881.808,-95.8372 1097.81,-29.6985 1098.87,-29.3745 1099.93,-28.997 1100.99,-28.5782"/>
<polygon fill="red" stroke="red" stroke-width="0.23212" points="1102.71,-31.6271 1110.09,-24.0228 1099.58,-25.3668 1102.71,-31.6271"/>
</g>
<!-- &#45;29&#45;&gt;3 -->
<g id="edge114" class="edge"><title>&#45;29&#45;&gt;3</title>
<path fill="none" stroke="red" stroke-width="0.22607" d="M573.981,-77.811C578.371,-73.4264 584.371,-68.3731 590.81,-65.6985 760.151,4.63596 820.205,-55.0497 1001.81,-29.6985 1017.88,-27.4547 1035.81,-24.0106 1049.75,-21.1184"/>
<polygon fill="red" stroke="red" stroke-width="0.22607" points="1050.48,-24.5409 1059.54,-19.0433 1049.03,-17.6931 1050.48,-24.5409"/>
</g>
<!-- &#45;30 -->
<g id="node30" class="node"><title>&#45;30</title>
<polygon fill="lightgray" stroke="black" points="628.31,-95.9117 599.31,-95.9117 599.31,-77.9117 628.31,-77.9117 628.31,-95.9117"/>
<text text-anchor="middle" x="613.81" y="-84.7117" font-family="Times New Roman,serif" font-size="9.00">&#45;30</text>
</g>
<!-- &#45;30&#45;&gt;0 -->
<g id="edge115" class="edge"><title>&#45;30&#45;&gt;0</title>
<path fill="none" stroke="green" stroke-width="0.115802" d="M621.501,-77.6342C625.881,-73.4181 631.703,-68.5854 637.81,-65.6985 721.045,-26.3505 832.458,-18.0099 881.655,-16.2794"/>
<polygon fill="green" stroke="green" stroke-width="0.115802" points="881.816,-19.7763 891.711,-15.9896 881.614,-12.7792 881.816,-19.7763"/>
</g>
<!-- &#45;30&#45;&gt;1 -->
<g id="edge116" class="edge"><title>&#45;30&#45;&gt;1</title>
<path fill="none" stroke="red" stroke-width="0.29011" d="M621.016,-77.895C625.418,-73.5383 631.418,-68.485 637.81,-65.6985 758.08,-13.2673 802.34,-56.3303 930.81,-29.6985 938.51,-28.1024 946.777,-25.8532 954.198,-23.6308"/>
<polygon fill="red" stroke="red" stroke-width="0.29011" points="955.475,-26.8987 963.978,-20.5776 953.389,-20.2167 955.475,-26.8987"/>
</g>
<!-- &#45;30&#45;&gt;2 -->
<g id="edge117" class="edge"><title>&#45;30&#45;&gt;2</title>
<path fill="none" stroke="red" stroke-width="0.402162" d="M620.971,-77.7886C625.358,-73.3965 631.358,-68.3432 637.81,-65.6985 827.556,12.0826 901.944,-90.4453 1097.81,-29.6985 1098.87,-29.3707 1099.93,-28.9901 1100.98,-28.5687"/>
<polygon fill="red" stroke="red" stroke-width="0.402162" points="1102.72,-31.6153 1110.09,-24.004 1099.58,-25.3579 1102.72,-31.6153"/>
</g>
<!-- &#45;30&#45;&gt;3 -->
<g id="edge118" class="edge"><title>&#45;30&#45;&gt;3</title>
<path fill="none" stroke="red" stroke-width="0.12349" d="M620.992,-77.8381C625.386,-73.4625 631.386,-68.4092 637.81,-65.6985 787.591,-2.50131 840.933,-53.0764 1001.81,-29.6985 1017.87,-27.3646 1035.79,-23.9202 1049.74,-21.0503"/>
<polygon fill="red" stroke="red" stroke-width="0.12349" points="1050.46,-24.4746 1059.53,-18.9956 1049.03,-17.6238 1050.46,-24.4746"/>
</g>
<!-- &#45;31 -->
<g id="node31" class="node"><title>&#45;31</title>
<polygon fill="lightgray" stroke="black" points="675.31,-95.9117 646.31,-95.9117 646.31,-77.9117 675.31,-77.9117 675.31,-95.9117"/>
<text text-anchor="middle" x="660.81" y="-84.7117" font-family="Times New Roman,serif" font-size="9.00">&#45;31</text>
</g>
<!-- &#45;31&#45;&gt;0 -->
<g id="edge119" class="edge"><title>&#45;31&#45;&gt;0</title>
<path fill="none" stroke="red" stroke-width="0.112956" d="M668.546,-77.7254C672.939,-73.5361 678.759,-68.6999 684.81,-65.6985 751.221,-32.7608 839.564,-21.3258 881.996,-17.568"/>
<polygon fill="red" stroke="red" stroke-width="0.112956" points="882.306,-21.0544 891.988,-16.7521 881.736,-14.0776 882.306,-21.0544"/>
</g>
<!-- &#45;31&#45;&gt;1 -->
<g id="edge120" class="edge"><title>&#45;31&#45;&gt;1</title>
<path fill="none" stroke="green" stroke-width="0.41827" d="M668.459,-77.5414C672.826,-73.2981 678.65,-68.4691 684.81,-65.6985 785.585,-20.3762 822.878,-53.3736 930.81,-29.6985 938.491,-28.0137 946.753,-25.7399 954.175,-23.5222"/>
<polygon fill="green" stroke="green" stroke-width="0.41827" points="955.443,-26.7936 963.959,-20.4916 953.371,-20.107 955.443,-26.7936"/>
</g>
<!-- &#45;31&#45;&gt;2 -->
<g id="edge121" class="edge"><title>&#45;31&#45;&gt;2</title>
<path fill="none" stroke="green" stroke-width="0.213628" d="M667.98,-77.81C672.37,-73.425 678.37,-68.3717 684.81,-65.6985 854.983,4.93981 922.071,-85.0563 1097.81,-29.6985 1098.87,-29.3661 1099.92,-28.9816 1100.98,-28.5571"/>
<polygon fill="green" stroke="green" stroke-width="0.213628" points="1102.72,-31.6008 1110.08,-23.981 1099.57,-25.3471 1102.72,-31.6008"/>
</g>
<!-- &#45;31&#45;&gt;3 -->
<g id="edge122" class="edge"><title>&#45;31&#45;&gt;3</title>
<path fill="none" stroke="red" stroke-width="0.515241" d="M668.007,-77.873C672.406,-73.509 678.406,-68.4557 684.81,-65.6985 815.049,-9.63087 861.641,-51.106 1001.81,-29.6985 1017.85,-27.2482 1035.78,-23.8033 1049.73,-20.9623"/>
<polygon fill="red" stroke="red" stroke-width="0.515241" points="1050.44,-24.3889 1059.52,-18.934 1049.02,-17.5343 1050.44,-24.3889"/>
</g>
<!-- &#45;32 -->
<g id="node32" class="node"><title>&#45;32</title>
<polygon fill="lightgray" stroke="black" points="722.31,-95.9117 693.31,-95.9117 693.31,-77.9117 722.31,-77.9117 722.31,-95.9117"/>
<text text-anchor="middle" x="707.81" y="-84.7117" font-family="Times New Roman,serif" font-size="9.00">&#45;32</text>
</g>
<!-- &#45;32&#45;&gt;0 -->
<g id="edge123" class="edge"><title>&#45;32&#45;&gt;0</title>
<path fill="none" stroke="green" stroke-width="0.124113" d="M715.615,-77.8611C720.029,-73.7115 725.846,-68.87 731.81,-65.6985 781.392,-39.333 846.495,-25.5473 881.658,-19.5836"/>
<polygon fill="green" stroke="green" stroke-width="0.124113" points="882.652,-22.9684 891.965,-17.9162 881.534,-16.0582 882.652,-22.9684"/>
</g>
<!-- &#45;32&#45;&gt;1 -->
<g id="edge124" class="edge"><title>&#45;32&#45;&gt;1</title>
<path fill="none" stroke="red" stroke-width="0.420519" d="M715.497,-77.6238C719.875,-73.4046 725.697,-68.5724 731.81,-65.6985 813.15,-27.4587 843.354,-50.4307 930.81,-29.6985 938.461,-27.8847 946.715,-25.5751 954.139,-23.3642"/>
<polygon fill="red" stroke="red" stroke-width="0.420519" points="955.393,-26.6405 963.931,-20.3665 953.344,-19.9471 955.393,-26.6405"/>
</g>
<!-- &#45;32&#45;&gt;2 -->
<g id="edge125" class="edge"><title>&#45;32&#45;&gt;2</title>
<path fill="none" stroke="red" stroke-width="0.449495" d="M714.991,-77.8368C719.385,-73.4607 725.385,-68.4074 731.81,-65.6985 882.423,-2.19774 942.185,-79.6713 1097.81,-29.6985 1098.86,-29.3602 1099.92,-28.9709 1100.97,-28.5425"/>
<polygon fill="red" stroke="red" stroke-width="0.449495" points="1102.72,-31.5827 1110.07,-23.9522 1099.56,-25.3335 1102.72,-31.5827"/>
</g>
<!-- &#45;32&#45;&gt;3 -->
<g id="edge126" class="edge"><title>&#45;32&#45;&gt;3</title>
<path fill="none" stroke="green" stroke-width="0.362808" d="M715.445,-77.51C719.808,-73.2575 725.632,-68.4298 731.81,-65.6985 842.535,-16.7485 882.319,-49.1401 1001.81,-29.6985 1017.83,-27.0921 1035.75,-23.6466 1049.71,-20.8444"/>
<polygon fill="green" stroke="green" stroke-width="0.362808" points="1050.41,-24.2738 1059.51,-18.8514 1049.01,-17.4141 1050.41,-24.2738"/>
</g>
<!-- &#45;33 -->
<g id="node33" class="node"><title>&#45;33</title>
<polygon fill="lightgray" stroke="black" points="769.31,-95.9117 740.31,-95.9117 740.31,-77.9117 769.31,-77.9117 769.31,-95.9117"/>
<text text-anchor="middle" x="754.81" y="-84.7117" font-family="Times New Roman,serif" font-size="9.00">&#45;33</text>
</g>
<!-- &#45;33&#45;&gt;0 -->
<g id="edge127" class="edge"><title>&#45;33&#45;&gt;0</title>
<path fill="none" stroke="green" stroke-width="0.284631" d="M763.174,-77.6839C767.564,-73.685 773.189,-69.0351 778.81,-65.6985 812.846,-45.4962 856.55,-30.5365 883.08,-22.513"/>
<polygon fill="green" stroke="green" stroke-width="0.284631" points="884.071,-25.8702 892.675,-19.6885 882.094,-19.1551 884.071,-25.8702"/>
</g>
<!-- &#45;33&#45;&gt;1 -->
<g id="edge128" class="edge"><title>&#45;33&#45;&gt;1</title>
<path fill="none" stroke="red" stroke-width="0.312959" d="M762.56,-77.7536C766.957,-73.5725 772.776,-68.7352 778.81,-65.6985 840.824,-34.489 863.711,-47.5164 930.81,-29.6985 938.41,-27.6804 946.649,-25.314 954.076,-23.114"/>
<polygon fill="red" stroke="red" stroke-width="0.312959" points="955.311,-26.3975 963.881,-20.1683 953.297,-19.6935 955.311,-26.3975"/>
</g>
<!-- &#45;33&#45;&gt;2 -->
<g id="edge129" class="edge"><title>&#45;33&#45;&gt;2</title>
<path fill="none" stroke="red" stroke-width="0.185942" d="M762.006,-77.8713C766.405,-73.5067 772.405,-68.4534 778.81,-65.6985 909.88,-9.32769 962.28,-74.2924 1097.81,-29.6985 1098.69,-29.409 1099.57,-29.0848 1100.45,-28.7327"/>
<polygon fill="red" stroke="red" stroke-width="0.185942" points="1102.17,-31.7899 1109.56,-24.2046 1099.05,-25.5215 1102.17,-31.7899"/>
</g>
<!-- &#45;33&#45;&gt;3 -->
<g id="edge130" class="edge"><title>&#45;33&#45;&gt;3</title>
<path fill="none" stroke="red" stroke-width="0.137034" d="M762.475,-77.5775C766.847,-73.3449 772.67,-68.5145 778.81,-65.6985 870.065,-23.8465 902.95,-47.1821 1001.81,-29.6985 1017.54,-26.9173 1035.14,-23.5358 1049.01,-20.8104"/>
<polygon fill="red" stroke="red" stroke-width="0.137034" points="1050.09,-24.1646 1059.22,-18.7894 1048.73,-17.2978 1050.09,-24.1646"/>
</g>
<!-- &#45;34 -->
<g id="node34" class="node"><title>&#45;34</title>
<polygon fill="lightgray" stroke="black" points="816.31,-95.9117 787.31,-95.9117 787.31,-77.9117 816.31,-77.9117 816.31,-95.9117"/>
<text text-anchor="middle" x="801.81" y="-84.7117" font-family="Times New Roman,serif" font-size="9.00">&#45;34</text>
</g>
<!-- &#45;34&#45;&gt;0 -->
<g id="edge131" class="edge"><title>&#45;34&#45;&gt;0</title>
<path fill="none" stroke="green" stroke-width="0.254481" d="M810.898,-77.7091C815.281,-73.8973 820.689,-69.4 825.81,-65.6985 845.164,-51.7108 868.501,-37.6186 885.144,-28.0038"/>
<polygon fill="green" stroke="green" stroke-width="0.254481" points="887.141,-30.8936 894.089,-22.8947 883.669,-24.8152 887.141,-30.8936"/>
</g>
<!-- &#45;34&#45;&gt;1 -->
<g id="edge132" class="edge"><title>&#45;34&#45;&gt;1</title>
<path fill="none" stroke="red" stroke-width="0.467054" d="M810.099,-77.5532C814.47,-73.521 820.1,-68.8808 825.81,-65.6985 837.251,-59.3226 914.367,-35.2752 954.155,-23.0621"/>
<polygon fill="red" stroke="red" stroke-width="0.467054" points="955.317,-26.3669 963.854,-20.0925 953.267,-19.6735 955.317,-26.3669"/>
</g>
<!-- &#45;34&#45;&gt;2 -->
<g id="edge133" class="edge"><title>&#45;34&#45;&gt;2</title>
<path fill="none" stroke="green" stroke-width="0.319401" d="M809.444,-77.5076C813.807,-73.2545 819.631,-68.4268 825.81,-65.6985 937.364,-16.446 982.348,-68.9226 1097.81,-29.6985 1098.69,-29.4006 1099.57,-29.0692 1100.45,-28.7111"/>
<polygon fill="green" stroke="green" stroke-width="0.319401" points="1102.17,-31.7614 1109.55,-24.1548 1099.04,-25.5021 1102.17,-31.7614"/>
</g>
<!-- &#45;34&#45;&gt;3 -->
<g id="edge134" class="edge"><title>&#45;34&#45;&gt;3</title>
<path fill="none" stroke="red" stroke-width="0.371817" d="M809.519,-77.6709C813.904,-73.4656 819.725,-68.6316 825.81,-65.6985 830.895,-63.2475 987.854,-32.5648 1049.4,-20.5908"/>
<polygon fill="red" stroke="red" stroke-width="0.371817" points="1050.25,-23.9909 1059.4,-18.6465 1048.91,-17.1196 1050.25,-23.9909"/>
</g>
<!-- &#45;35 -->
<g id="node35" class="node"><title>&#45;35</title>
<polygon fill="lightgray" stroke="black" points="205.31,-95.9117 176.31,-95.9117 176.31,-77.9117 205.31,-77.9117 205.31,-95.9117"/>
<text text-anchor="middle" x="190.81" y="-84.7117" font-family="Times New Roman,serif" font-size="9.00">&#45;35</text>
</g>
<!-- &#45;35&#45;&gt;0 -->
<g id="edge135" class="edge"><title>&#45;35&#45;&gt;0</title>
<path fill="none" stroke="green" stroke-width="0.229429" d="M197.965,-77.7737C202.35,-73.3766 208.35,-68.3233 214.81,-65.6985 339.283,-15.1237 772.324,-14.8388 881.611,-15.6014"/>
<polygon fill="green" stroke="green" stroke-width="0.229429" points="881.672,-19.1019 891.699,-15.6817 881.728,-12.1021 881.672,-19.1019"/>
</g>
<!-- &#45;35&#45;&gt;1 -->
<g id="edge136" class="edge"><title>&#45;35&#45;&gt;1</title>
<path fill="none" stroke="red" stroke-width="0.194949" d="M197.944,-77.721C202.322,-73.3064 208.322,-68.2531 214.81,-65.6985 363.046,-7.33237 773.752,-56.3994 930.81,-29.6985 938.562,-28.3806 946.844,-26.2087 954.262,-23.9715"/>
<polygon fill="red" stroke="red" stroke-width="0.194949" points="955.57,-27.2278 964.029,-20.8474 953.438,-20.5606 955.57,-27.2278"/>
</g>
<!-- &#45;35&#45;&gt;2 -->
<g id="edge137" class="edge"><title>&#45;35&#45;&gt;2</title>
<path fill="none" stroke="green" stroke-width="0.446138" d="M197.935,-77.6979C202.31,-73.2756 208.31,-68.2223 214.81,-65.6985 397.88,5.38204 909.185,-84.3596 1097.81,-29.6985 1098.87,-29.3905 1099.94,-29.0261 1101,-28.6179"/>
<polygon fill="green" stroke="green" stroke-width="0.446138" points="1102.71,-31.6767 1110.11,-24.1015 1099.6,-25.4041 1102.71,-31.6767"/>
</g>
<!-- &#45;36 -->
<g id="node36" class="node"><title>&#45;36</title>
<polygon fill="lightgray" stroke="black" points="863.31,-95.9117 834.31,-95.9117 834.31,-77.9117 863.31,-77.9117 863.31,-95.9117"/>
<text text-anchor="middle" x="848.81" y="-84.7117" font-family="Times New Roman,serif" font-size="9.00">&#45;36</text>
</g>
<!-- &#45;36&#45;&gt;0 -->
<g id="edge138" class="edge"><title>&#45;36&#45;&gt;0</title>
<path fill="none" stroke="green" stroke-width="0.187601" d="M855.463,-77.8746C864.039,-67.5161 879.228,-49.1677 890.869,-35.1057"/>
<polygon fill="green" stroke="green" stroke-width="0.187601" points="893.887,-36.9487 897.568,-27.0138 888.495,-32.4849 893.887,-36.9487"/>
</g>
<!-- &#45;36&#45;&gt;1 -->
<g id="edge139" class="edge"><title>&#45;36&#45;&gt;1</title>
<path fill="none" stroke="red" stroke-width="0.146037" d="M857.279,-77.853C861.695,-73.8973 867.312,-69.2349 872.81,-65.6985 899.329,-48.6409 932.593,-33.8349 954.488,-24.8866"/>
<polygon fill="red" stroke="red" stroke-width="0.146037" points="955.983,-28.0583 963.964,-21.0903 953.379,-21.5605 955.983,-28.0583"/>
</g>
<!-- &#45;36&#45;&gt;2 -->
<g id="edge140" class="edge"><title>&#45;36&#45;&gt;2</title>
<path fill="none" stroke="red" stroke-width="0.342388" d="M856.474,-77.5741C860.845,-73.3404 866.668,-68.5102 872.81,-65.6985 964.892,-23.545 1002.37,-63.5683 1097.81,-29.6985 1098.68,-29.3888 1099.56,-29.0473 1100.44,-28.6807"/>
<polygon fill="red" stroke="red" stroke-width="0.342388" points="1102.18,-31.7215 1109.52,-24.0849 1099.02,-25.475 1102.18,-31.7215"/>
</g>
<!-- &#45;36&#45;&gt;3 -->
<g id="edge141" class="edge"><title>&#45;36&#45;&gt;3</title>
<path fill="none" stroke="red" stroke-width="0.436829" d="M856.573,-77.7789C860.973,-73.6052 866.792,-68.7669 872.81,-65.6985 903.797,-49.8986 1002.77,-29.5057 1049.25,-20.4884"/>
<polygon fill="red" stroke="red" stroke-width="0.436829" points="1050.2,-23.8708 1059.36,-18.5473 1048.88,-16.9964 1050.2,-23.8708"/>
</g>
<!-- &#45;37 -->
<g id="node37" class="node"><title>&#45;37</title>
<polygon fill="lightgray" stroke="black" points="910.31,-95.9117 881.31,-95.9117 881.31,-77.9117 910.31,-77.9117 910.31,-95.9117"/>
<text text-anchor="middle" x="895.81" y="-84.7117" font-family="Times New Roman,serif" font-size="9.00">&#45;37</text>
</g>
<!-- &#45;37&#45;&gt;0 -->
<g id="edge142" class="edge"><title>&#45;37&#45;&gt;0</title>
<path fill="none" stroke="red" stroke-width="0.569646" d="M897.072,-77.8746C898.533,-68.572 901.005,-52.8252 903.093,-39.5264"/>
<polygon fill="red" stroke="red" stroke-width="0.569646" points="906.565,-39.9774 904.658,-29.5556 899.649,-38.8917 906.565,-39.9774"/>
</g>
<!-- &#45;37&#45;&gt;1 -->
<g id="edge143" class="edge"><title>&#45;37&#45;&gt;1</title>
<path fill="none" stroke="red" stroke-width="0.163791" d="M905.217,-77.8746C918.256,-66.7332 942.114,-46.3486 958.912,-31.996"/>
<polygon fill="red" stroke="red" stroke-width="0.163791" points="961.629,-34.2783 966.958,-25.1214 957.082,-28.9564 961.629,-34.2783"/>
</g>
<!-- &#45;37&#45;&gt;2 -->
<g id="edge144" class="edge"><title>&#45;37&#45;&gt;2</title>
<path fill="none" stroke="green" stroke-width="0.495765" d="M903.52,-77.6738C907.906,-73.4694 913.727,-68.6352 919.81,-65.6985 992.496,-30.6088 1022.31,-58.2422 1097.81,-29.6985 1098.68,-29.371 1099.55,-29.0144 1100.42,-28.6351"/>
<polygon fill="green" stroke="green" stroke-width="0.495765" points="1102.19,-31.6616 1109.48,-23.9799 1098.99,-25.4347 1102.19,-31.6616"/>
</g>
<!-- &#45;37&#45;&gt;3 -->
<g id="edge145" class="edge"><title>&#45;37&#45;&gt;3</title>
<path fill="none" stroke="red" stroke-width="0.427419" d="M904.094,-77.5439C908.463,-73.5094 914.094,-68.8698 919.81,-65.6985 962.235,-42.162 1017.48,-27.6995 1048.95,-20.7766"/>
<polygon fill="red" stroke="red" stroke-width="0.427419" points="1049.98,-24.1371 1059.04,-18.6398 1048.53,-17.2891 1049.98,-24.1371"/>
</g>
<!-- &#45;38 -->
<g id="node38" class="node"><title>&#45;38</title>
<polygon fill="lightgray" stroke="black" points="957.31,-95.9117 928.31,-95.9117 928.31,-77.9117 957.31,-77.9117 957.31,-95.9117"/>
<text text-anchor="middle" x="942.81" y="-84.7117" font-family="Times New Roman,serif" font-size="9.00">&#45;38</text>
</g>
<!-- &#45;38&#45;&gt;0 -->
<g id="edge146" class="edge"><title>&#45;38&#45;&gt;0</title>
<path fill="none" stroke="red" stroke-width="0.327399" d="M938.68,-77.8746C933.657,-68.0985 924.977,-51.2057 917.943,-37.5161"/>
<polygon fill="red" stroke="red" stroke-width="0.327399" points="920.871,-35.5565 913.188,-28.2615 914.645,-38.7557 920.871,-35.5565"/>
</g>
<!-- &#45;38&#45;&gt;1 -->
<g id="edge147" class="edge"><title>&#45;38&#45;&gt;1</title>
<path fill="none" stroke="green" stroke-width="0.192542" d="M946.825,-77.8746C951.68,-68.1564 960.048,-51.4054 966.865,-37.7594"/>
<polygon fill="green" stroke="green" stroke-width="0.192542" points="970.144,-39.0268 971.482,-28.5167 963.882,-35.8985 970.144,-39.0268"/>
</g>
<!-- &#45;38&#45;&gt;2 -->
<g id="edge148" class="edge"><title>&#45;38&#45;&gt;2</title>
<path fill="none" stroke="green" stroke-width="0.344572" d="M950.604,-77.8389C955.014,-73.6828 960.831,-68.8422 966.81,-65.6985 1020.25,-37.598 1042.1,-52.977 1097.81,-29.6985 1098.66,-29.3415 1099.53,-28.9598 1100.39,-28.5593"/>
<polygon fill="green" stroke="green" stroke-width="0.344572" points="1102.2,-31.5624 1109.41,-23.8055 1098.94,-25.3689 1102.2,-31.5624"/>
</g>
<!-- &#45;38&#45;&gt;3 -->
<g id="edge149" class="edge"><title>&#45;38&#45;&gt;3</title>
<path fill="none" stroke="red" stroke-width="0.563258" stroke-dasharray="1,5" d="M951.268,-77.8361C955.682,-73.8761 961.299,-69.2149 966.81,-65.6985 994.076,-48.2997 1028.39,-33.4069 1050.7,-24.5432"/>
<polygon fill="red" stroke="red" stroke-width="0.563258" points="1051.99,-27.7976 1060.04,-20.9077 1049.45,-21.2746 1051.99,-27.7976"/>
</g>
<!-- &#45;39 -->
<g id="node39" class="node"><title>&#45;39</title>
<polygon fill="lightgray" stroke="black" points="1931.31,-95.9117 1902.31,-95.9117 1902.31,-77.9117 1931.31,-77.9117 1931.31,-95.9117"/>
<text text-anchor="middle" x="1916.81" y="-84.7117" font-family="Times New Roman,serif" font-size="9.00">&#45;39</text>
</g>
<!-- &#45;39&#45;&gt;1 -->
<g id="edge150" class="edge"><title>&#45;39&#45;&gt;1</title>
<path fill="none" stroke="green" stroke-width="0.500015" d="M1901.82,-79.7556C1889.44,-74.9843 1871.3,-68.697 1854.81,-65.6985 1502.46,-1.60908 1405.48,-71.6329 1049.81,-29.6985 1033.69,-27.7981 1015.77,-24.3554 1001.84,-21.378"/>
<polygon fill="green" stroke="green" stroke-width="0.500015" points="1002.58,-17.957 992.058,-19.2252 1001.07,-24.7933 1002.58,-17.957"/>
</g>
<!-- &#45;39&#45;&gt;2 -->
<g id="edge151" class="edge"><title>&#45;39&#45;&gt;2</title>
<path fill="none" stroke="red" stroke-width="0.335761" d="M1907.87,-77.7523C1902.47,-73.3481 1895.22,-68.2948 1887.81,-65.6985 1746.47,-16.2007 1262.9,-15.1922 1146.95,-15.6836"/>
<polygon fill="red" stroke="red" stroke-width="0.335761" points="1146.88,-12.1838 1136.9,-15.7343 1146.92,-19.1837 1146.88,-12.1838"/>
</g>
<!-- &#45;39&#45;&gt;3 -->
<g id="edge152" class="edge"><title>&#45;39&#45;&gt;3</title>
<path fill="none" stroke="red" stroke-width="0.353904" d="M1907.89,-77.6982C1902.5,-73.2759 1895.25,-68.2226 1887.81,-65.6985 1721.39,-9.2299 1266.49,-79.0168 1097.81,-29.6985 1096.75,-29.388 1095.68,-29.0215 1094.62,-28.6115"/>
<polygon fill="red" stroke="red" stroke-width="0.353904" points="1096.02,-25.3982 1085.51,-24.089 1092.91,-31.6688 1096.02,-25.3982"/>
</g>
<!-- &#45;40 -->
<g id="node40" class="node"><title>&#45;40</title>
<polygon fill="lightgray" stroke="black" points="1004.31,-95.9117 975.31,-95.9117 975.31,-77.9117 1004.31,-77.9117 1004.31,-95.9117"/>
<text text-anchor="middle" x="989.81" y="-84.7117" font-family="Times New Roman,serif" font-size="9.00">&#45;40</text>
</g>
<!-- &#45;40&#45;&gt;0 -->
<g id="edge153" class="edge"><title>&#45;40&#45;&gt;0</title>
<path fill="none" stroke="red" stroke-width="0.272553" d="M980.462,-77.5915C976.305,-73.9188 971.336,-69.5664 966.81,-65.6985 953.223,-54.0878 937.7,-41.2007 925.847,-31.4386"/>
<polygon fill="red" stroke="red" stroke-width="0.272553" points="927.894,-28.5903 917.946,-24.9456 923.45,-33.9986 927.894,-28.5903"/>
</g>
<!-- &#45;40&#45;&gt;1 -->
<g id="edge154" class="edge"><title>&#45;40&#45;&gt;1</title>
<path fill="none" stroke="green" stroke-width="0.17991" d="M988.434,-77.8746C986.84,-68.572 984.143,-52.8252 981.865,-39.5264"/>
<polygon fill="green" stroke="green" stroke-width="0.17991" points="985.296,-38.8212 980.158,-29.5556 978.396,-40.0029 985.296,-38.8212"/>
</g>
<!-- &#45;40&#45;&gt;2 -->
<g id="edge155" class="edge"><title>&#45;40&#45;&gt;2</title>
<path fill="none" stroke="red" stroke-width="0.349696" d="M998.222,-77.7632C1002.62,-73.7846 1008.25,-69.1288 1013.81,-65.6985 1048.39,-44.3844 1061.49,-47.8808 1097.81,-29.6985 1098.64,-29.2839 1099.48,-28.8534 1100.32,-28.4117"/>
<polygon fill="red" stroke="red" stroke-width="0.349696" points="1102.2,-31.3701 1109.26,-23.4657 1098.81,-25.2454 1102.2,-31.3701"/>
</g>
<!-- &#45;40&#45;&gt;3 -->
<g id="edge156" class="edge"><title>&#45;40&#45;&gt;3</title>
<path fill="none" stroke="green" stroke-width="0.318985" d="M999.606,-77.6359C1003.95,-73.9714 1009.13,-69.6132 1013.81,-65.6985 1027.52,-54.2314 1043.04,-41.3398 1054.86,-31.5397"/>
<polygon fill="green" stroke="green" stroke-width="0.318985" points="1057.27,-34.0902 1062.73,-25.0147 1052.8,-28.7001 1057.27,-34.0902"/>
</g>
<!-- 401&#45;&gt;2 -->
<g id="edge160" class="edge"><title>401&#45;&gt;2</title>
<path fill="none" stroke="green" stroke-width="0.175949" d="M2089.74,-73.9119C2084.26,-70.6589 2078,-67.5326 2071.81,-65.6985 1891.4,-12.24 1279.53,-14.4534 1147.19,-15.586"/>
<polygon fill="green" stroke="green" stroke-width="0.175949" points="1146.83,-12.089 1136.86,-15.6808 1146.89,-19.0887 1146.83,-12.089"/>
</g>
<!-- 181&#45;&gt;2 -->
<g id="edge158" class="edge"><title>181&#45;&gt;2</title>
<path fill="none" stroke="green" stroke-width="0.1049" d="M1991.74,-73.9348C1986.25,-70.6828 1979.99,-67.5512 1973.81,-65.6985 1813.29,-17.607 1271.3,-15.5826 1147.25,-15.7633"/>
<polygon fill="green" stroke="green" stroke-width="0.1049" points="1146.87,-12.264 1136.88,-15.7853 1146.89,-19.264 1146.87,-12.264"/>
</g>
</g>
</svg>
