<?xml version="1.0" encoding="UTF-8" standalone="no"?>
<!DOCTYPE svg PUBLIC "-//W3C//DTD SVG 1.1//EN"
 "http://www.w3.org/Graphics/SVG/1.1/DTD/svg11.dtd">
<!-- Generated by graphviz version 2.43.0 (0)
 -->
<!-- Title: %3 Pages: 1 -->
<svg width="2136pt" height="95pt"
 viewBox="0.00 0.00 2136.00 94.53" xmlns="http://www.w3.org/2000/svg" xmlns:xlink="http://www.w3.org/1999/xlink">
<g id="graph0" class="graph" transform="scale(1 1) rotate(0) translate(4 90.53)">
<title>%3</title>
<polygon fill="white" stroke="transparent" points="-4,4 -4,-90.53 2132,-90.53 2132,4 -4,4"/>
<!-- &#45;1 -->
<g id="node1" class="node">
<title>&#45;1</title>
<polygon fill="lightgray" stroke="black" points="376,-86.53 350,-86.53 350,-68.53 376,-68.53 376,-86.53"/>
<text text-anchor="middle" x="363" y="-75.33" font-family="Times,serif" font-size="9.00">&#45;1</text>
</g>
<!-- 1 -->
<g id="node46" class="node">
<title>1</title>
<ellipse fill="lightblue" stroke="black" cx="1136" cy="-16.26" rx="16.03" ry="16.03"/>
<text text-anchor="middle" x="1136" y="-14.06" font-family="Times,serif" font-size="9.00">1</text>
</g>
<!-- &#45;1&#45;&gt;1 -->
<g id="edge27" class="edge">
<title>&#45;1&#45;&gt;1</title>
<path fill="none" stroke="red" stroke-width="0.27" d="M376.32,-71.01C379.14,-70.03 382.14,-69.13 385,-68.53 527.75,-38.33 992.85,-21.81 1109.35,-18.08"/>
<polygon fill="red" stroke="red" stroke-width="0.27" points="1109.63,-21.57 1119.52,-17.76 1109.41,-14.58 1109.63,-21.57"/>
</g>
<!-- 2 -->
<g id="node47" class="node">
<title>2</title>
<ellipse fill="lightblue" stroke="black" cx="663" cy="-16.26" rx="16.03" ry="16.03"/>
<text text-anchor="middle" x="663" y="-14.06" font-family="Times,serif" font-size="9.00">2</text>
</g>
<!-- &#45;1&#45;&gt;2 -->
<g id="edge28" class="edge">
<title>&#45;1&#45;&gt;2</title>
<path fill="none" stroke="green" stroke-width="0.1" d="M376.38,-71.26C379.2,-70.26 382.18,-69.29 385,-68.53 475.92,-43.8 586.82,-27.33 636.6,-20.64"/>
<polygon fill="green" stroke="green" stroke-width="0.1" points="637.35,-24.07 646.81,-19.29 636.43,-17.13 637.35,-24.07"/>
</g>
<!-- 3 -->
<g id="node48" class="node">
<title>3</title>
<ellipse fill="lightblue" stroke="black" cx="737" cy="-16.26" rx="16.03" ry="16.03"/>
<text text-anchor="middle" x="737" y="-14.06" font-family="Times,serif" font-size="9.00">3</text>
</g>
<!-- &#45;1&#45;&gt;3 -->
<g id="edge17" class="edge">
<title>&#45;1&#45;&gt;3</title>
<path fill="none" stroke="red" stroke-width="0.21" d="M376.35,-71.12C379.17,-70.13 382.15,-69.2 385,-68.53 516.93,-37.15 555.37,-60.81 688,-32.53 695.91,-30.84 704.37,-28.43 711.99,-26.02"/>
<polygon fill="red" stroke="red" stroke-width="0.21" points="713.34,-29.26 721.74,-22.81 711.15,-22.62 713.34,-29.26"/>
</g>
<!-- &#45;2 -->
<g id="node2" class="node">
<title>&#45;2</title>
<polygon fill="lightgray" stroke="black" points="1246,-86.53 1220,-86.53 1220,-68.53 1246,-68.53 1246,-86.53"/>
<text text-anchor="middle" x="1233" y="-75.33" font-family="Times,serif" font-size="9.00">&#45;2</text>
</g>
<!-- 0 -->
<g id="node45" class="node">
<title>0</title>
<ellipse fill="lightblue" stroke="black" cx="1380" cy="-16.26" rx="16.03" ry="16.03"/>
<text text-anchor="middle" x="1380" y="-14.06" font-family="Times,serif" font-size="9.00">0</text>
</g>
<!-- &#45;2&#45;&gt;0 -->
<g id="edge6" class="edge">
<title>&#45;2&#45;&gt;0</title>
<path fill="none" stroke="green" stroke-width="0.22" d="M1246.05,-71.27C1270.65,-61.35 1324.24,-39.74 1355.67,-27.07"/>
<polygon fill="green" stroke="green" stroke-width="0.22" points="1357.07,-30.28 1365.03,-23.3 1354.45,-23.79 1357.07,-30.28"/>
</g>
<!-- &#45;2&#45;&gt;1 -->
<g id="edge54" class="edge">
<title>&#45;2&#45;&gt;1</title>
<path fill="none" stroke="green" stroke-width="0.25" d="M1219.92,-68.53C1204.1,-58.87 1177.22,-42.45 1158.15,-30.8"/>
<polygon fill="green" stroke="green" stroke-width="0.25" points="1159.86,-27.74 1149.5,-25.51 1156.21,-33.71 1159.86,-27.74"/>
</g>
<!-- &#45;2&#45;&gt;2 -->
<g id="edge43" class="edge">
<title>&#45;2&#45;&gt;2</title>
<path fill="none" stroke="red" stroke-width="0.19" stroke-dasharray="1,5" d="M1219.68,-71.02C1216.85,-70.04 1213.86,-69.14 1211,-68.53 993.55,-22.09 930.48,-73.86 712,-32.53 703.96,-31.01 695.39,-28.61 687.7,-26.17"/>
<polygon fill="red" stroke="red" stroke-width="0.19" points="688.81,-22.85 678.22,-23 686.59,-29.49 688.81,-22.85"/>
</g>
<!-- &#45;3 -->
<g id="node3" class="node">
<title>&#45;3</title>
<polygon fill="lightgray" stroke="black" points="1784,-86.53 1758,-86.53 1758,-68.53 1784,-68.53 1784,-86.53"/>
<text text-anchor="middle" x="1771" y="-75.33" font-family="Times,serif" font-size="9.00">&#45;3</text>
</g>
<!-- &#45;3&#45;&gt;0 -->
<g id="edge70" class="edge">
<title>&#45;3&#45;&gt;0</title>
<path fill="none" stroke="green" stroke-width="0.43" d="M1757.64,-71.16C1754.82,-70.17 1751.84,-69.23 1749,-68.53 1623.13,-37.27 1468.05,-23.53 1406.75,-19.04"/>
<polygon fill="green" stroke="green" stroke-width="0.43" points="1406.64,-15.52 1396.42,-18.31 1406.15,-22.51 1406.64,-15.52"/>
</g>
<!-- &#45;3&#45;&gt;1 -->
<g id="edge39" class="edge">
<title>&#45;3&#45;&gt;1</title>
<path fill="none" stroke="green" stroke-width="0.21" d="M1757.67,-71.04C1754.85,-70.06 1751.86,-69.15 1749,-68.53 1691.14,-55.82 1273.09,-26.63 1162.68,-19.08"/>
<polygon fill="green" stroke="green" stroke-width="0.21" points="1162.64,-15.56 1152.42,-18.38 1162.16,-22.55 1162.64,-15.56"/>
</g>
<!-- &#45;4 -->
<g id="node4" class="node">
<title>&#45;4</title>
<polygon fill="lightgray" stroke="black" points="620,-86.53 594,-86.53 594,-68.53 620,-68.53 620,-86.53"/>
<text text-anchor="middle" x="607" y="-75.33" font-family="Times,serif" font-size="9.00">&#45;4</text>
</g>
<!-- &#45;4&#45;&gt;1 -->
<g id="edge84" class="edge">
<title>&#45;4&#45;&gt;1</title>
<path fill="none" stroke="red" stroke-width="0.38" d="M620.34,-71.08C623.16,-70.1 626.15,-69.18 629,-68.53 809.43,-27.27 1033.56,-19.21 1109.46,-17.64"/>
<polygon fill="red" stroke="red" stroke-width="0.38" points="1109.63,-21.14 1119.56,-17.45 1109.5,-14.14 1109.63,-21.14"/>
</g>
<!-- &#45;4&#45;&gt;2 -->
<g id="edge18" class="edge">
<title>&#45;4&#45;&gt;2</title>
<path fill="none" stroke="red" stroke-width="0.13" d="M614.79,-68.29C622.62,-59.99 634.98,-46.92 645.22,-36.08"/>
<polygon fill="red" stroke="red" stroke-width="0.13" points="647.89,-38.35 652.21,-28.68 642.8,-33.55 647.89,-38.35"/>
</g>
<!-- &#45;4&#45;&gt;3 -->
<g id="edge64" class="edge">
<title>&#45;4&#45;&gt;3</title>
<path fill="none" stroke="green" stroke-width="0.37" d="M620.42,-70.41C642.26,-60.45 685.78,-40.61 713.03,-28.19"/>
<polygon fill="green" stroke="green" stroke-width="0.37" points="714.62,-31.31 722.26,-23.98 711.71,-24.94 714.62,-31.31"/>
</g>
<!-- &#45;5 -->
<g id="node5" class="node">
<title>&#45;5</title>
<polygon fill="lightgray" stroke="black" points="1490,-86.53 1464,-86.53 1464,-68.53 1490,-68.53 1490,-86.53"/>
<text text-anchor="middle" x="1477" y="-75.33" font-family="Times,serif" font-size="9.00">&#45;5</text>
</g>
<!-- &#45;5&#45;&gt;0 -->
<g id="edge52" class="edge">
<title>&#45;5&#45;&gt;0</title>
<path fill="none" stroke="red" stroke-width="0.42" d="M1463.92,-68.53C1448.1,-58.87 1421.22,-42.45 1402.15,-30.8"/>
<polygon fill="red" stroke="red" stroke-width="0.42" points="1403.86,-27.74 1393.5,-25.51 1400.21,-33.71 1403.86,-27.74"/>
</g>
<!-- &#45;5&#45;&gt;3 -->
<g id="edge7" class="edge">
<title>&#45;5&#45;&gt;3</title>
<path fill="none" stroke="green" stroke-width="0.44" d="M1463.68,-71.01C1460.85,-70.04 1457.86,-69.14 1455,-68.53 1318.97,-39.53 876.68,-22.2 763.55,-18.17"/>
<polygon fill="green" stroke="green" stroke-width="0.44" points="763.48,-14.67 753.36,-17.82 763.24,-21.66 763.48,-14.67"/>
</g>
<!-- &#45;6 -->
<g id="node6" class="node">
<title>&#45;6</title>
<polygon fill="lightgray" stroke="black" points="958,-86.53 932,-86.53 932,-68.53 958,-68.53 958,-86.53"/>
<text text-anchor="middle" x="945" y="-75.33" font-family="Times,serif" font-size="9.00">&#45;6</text>
</g>
<!-- &#45;6&#45;&gt;1 -->
<g id="edge9" class="edge">
<title>&#45;6&#45;&gt;1</title>
<path fill="none" stroke="red" stroke-width="0.29" d="M958.46,-71.5C961.27,-70.49 964.22,-69.45 967,-68.53 1017.66,-51.65 1077.6,-34.01 1110.76,-24.46"/>
<polygon fill="red" stroke="red" stroke-width="0.29" points="1111.89,-27.77 1120.53,-21.65 1109.95,-21.05 1111.89,-27.77"/>
</g>
<!-- &#45;6&#45;&gt;3 -->
<g id="edge29" class="edge">
<title>&#45;6&#45;&gt;3</title>
<path fill="none" stroke="green" stroke-width="0.39" d="M931.56,-71.45C928.75,-70.44 925.79,-69.42 923,-68.53 866.32,-50.44 798.75,-32.77 762.69,-23.65"/>
<polygon fill="green" stroke="green" stroke-width="0.39" points="763.11,-20.15 752.56,-21.1 761.4,-26.94 763.11,-20.15"/>
</g>
<!-- &#45;7 -->
<g id="node7" class="node">
<title>&#45;7</title>
<polygon fill="lightgray" stroke="black" points="664,-86.53 638,-86.53 638,-68.53 664,-68.53 664,-86.53"/>
<text text-anchor="middle" x="651" y="-75.33" font-family="Times,serif" font-size="9.00">&#45;7</text>
</g>
<!-- &#45;7&#45;&gt;1 -->
<g id="edge37" class="edge">
<title>&#45;7&#45;&gt;1</title>
<path fill="none" stroke="red" stroke-width="0.92" d="M664.34,-71.1C667.16,-70.12 670.15,-69.19 673,-68.53 835.96,-30.45 1037.99,-20.44 1109.45,-18"/>
<polygon fill="red" stroke="red" stroke-width="0.92" points="1109.89,-21.48 1119.77,-17.67 1109.67,-14.49 1109.89,-21.48"/>
</g>
<!-- &#45;7&#45;&gt;2 -->
<g id="edge45" class="edge">
<title>&#45;7&#45;&gt;2</title>
<path fill="none" stroke="red" stroke-width="0.85" d="M652.67,-68.29C654.03,-61.54 656.04,-51.62 657.93,-42.32"/>
<polygon fill="red" stroke="red" stroke-width="0.85" points="661.4,-42.78 659.96,-32.29 654.54,-41.39 661.4,-42.78"/>
</g>
<!-- &#45;7&#45;&gt;3 -->
<g id="edge71" class="edge">
<title>&#45;7&#45;&gt;3</title>
<path fill="none" stroke="green" stroke-width="0.51" d="M662.96,-68.29C676.51,-58.95 698.87,-43.54 715.48,-32.09"/>
<polygon fill="green" stroke="green" stroke-width="0.51" points="717.77,-34.76 724.02,-26.21 713.8,-29 717.77,-34.76"/>
</g>
<!-- &#45;8 -->
<g id="node8" class="node">
<title>&#45;8</title>
<polygon fill="lightgray" stroke="black" points="1978,-86.53 1952,-86.53 1952,-68.53 1978,-68.53 1978,-86.53"/>
<text text-anchor="middle" x="1965" y="-75.33" font-family="Times,serif" font-size="9.00">&#45;8</text>
</g>
<!-- &#45;9 -->
<g id="node9" class="node">
<title>&#45;9</title>
<polygon fill="lightgray" stroke="black" points="1052,-86.53 1026,-86.53 1026,-68.53 1052,-68.53 1052,-86.53"/>
<text text-anchor="middle" x="1039" y="-75.33" font-family="Times,serif" font-size="9.00">&#45;9</text>
</g>
<!-- &#45;9&#45;&gt;0 -->
<g id="edge13" class="edge">
<title>&#45;9&#45;&gt;0</title>
<path fill="none" stroke="green" stroke-width="0.39" d="M1052.37,-71.21C1055.19,-70.22 1058.17,-69.26 1061,-68.53 1167.66,-40.83 1298.49,-25.45 1353.57,-19.8"/>
<polygon fill="green" stroke="green" stroke-width="0.39" points="1354.25,-23.25 1363.85,-18.77 1353.55,-16.28 1354.25,-23.25"/>
</g>
<!-- &#45;9&#45;&gt;1 -->
<g id="edge14" class="edge">
<title>&#45;9&#45;&gt;1</title>
<path fill="none" stroke="red" stroke-width="0.51" d="M1052.08,-68.53C1067.9,-58.87 1094.78,-42.45 1113.85,-30.8"/>
<polygon fill="red" stroke="red" stroke-width="0.51" points="1115.79,-33.71 1122.5,-25.51 1112.14,-27.74 1115.79,-33.71"/>
</g>
<!-- &#45;9&#45;&gt;2 -->
<g id="edge59" class="edge">
<title>&#45;9&#45;&gt;2</title>
<path fill="none" stroke="red" stroke-width="0.52" d="M1025.65,-71.12C1022.83,-70.13 1019.85,-69.2 1017,-68.53 884.2,-36.99 845.51,-60.95 712,-32.53 704.09,-30.84 695.63,-28.44 688.01,-26.03"/>
<polygon fill="red" stroke="red" stroke-width="0.52" points="688.85,-22.62 678.26,-22.81 686.66,-29.27 688.85,-22.62"/>
</g>
<!-- &#45;9&#45;&gt;3 -->
<g id="edge46" class="edge">
<title>&#45;9&#45;&gt;3</title>
<path fill="none" stroke="green" stroke-width="0.56" d="M1025.62,-71.26C1022.8,-70.26 1019.82,-69.29 1017,-68.53 925.02,-43.57 812.72,-27.12 762.92,-20.53"/>
<polygon fill="green" stroke="green" stroke-width="0.56" points="763.36,-17.06 753,-19.23 762.46,-24 763.36,-17.06"/>
</g>
<!-- &#45;10 -->
<g id="node10" class="node">
<title>&#45;10</title>
<polygon fill="lightgray" stroke="black" points="764,-86.53 732,-86.53 732,-68.53 764,-68.53 764,-86.53"/>
<text text-anchor="middle" x="748" y="-75.33" font-family="Times,serif" font-size="9.00">&#45;10</text>
</g>
<!-- &#45;10&#45;&gt;0 -->
<g id="edge49" class="edge">
<title>&#45;10&#45;&gt;0</title>
<path fill="none" stroke="red" stroke-width="0.37" d="M764.27,-70.74C767.15,-69.88 770.14,-69.1 773,-68.53 830.53,-57.05 1244.31,-26.96 1353.59,-19.14"/>
<polygon fill="red" stroke="red" stroke-width="0.37" points="1354.02,-22.62 1363.75,-18.42 1353.52,-15.64 1354.02,-22.62"/>
</g>
<!-- &#45;10&#45;&gt;2 -->
<g id="edge50" class="edge">
<title>&#45;10&#45;&gt;2</title>
<path fill="none" stroke="green" stroke-width="0.15" d="M736.18,-68.29C722.86,-59 700.94,-43.72 684.56,-32.29"/>
<polygon fill="green" stroke="green" stroke-width="0.15" points="686.32,-29.25 676.11,-26.41 682.31,-35 686.32,-29.25"/>
</g>
<!-- &#45;10&#45;&gt;3 -->
<g id="edge2" class="edge">
<title>&#45;10&#45;&gt;3</title>
<path fill="none" stroke="green" stroke-width="0.11" d="M746.47,-68.29C745.24,-61.63 743.43,-51.89 741.72,-42.7"/>
<polygon fill="green" stroke="green" stroke-width="0.11" points="745.14,-41.95 739.88,-32.76 738.26,-43.23 745.14,-41.95"/>
</g>
<!-- &#45;11 -->
<g id="node11" class="node">
<title>&#45;11</title>
<polygon fill="lightgray" stroke="black" points="426,-86.53 394,-86.53 394,-68.53 426,-68.53 426,-86.53"/>
<text text-anchor="middle" x="410" y="-75.33" font-family="Times,serif" font-size="9.00">&#45;11</text>
</g>
<!-- &#45;11&#45;&gt;3 -->
<g id="edge35" class="edge">
<title>&#45;11&#45;&gt;3</title>
<path fill="none" stroke="green" stroke-width="0.61" d="M426.03,-70.96C428.99,-70.06 432.07,-69.2 435,-68.53 545.7,-43.13 577.2,-57.5 688,-32.53 695.89,-30.75 704.34,-28.31 711.97,-25.91"/>
<polygon fill="green" stroke="green" stroke-width="0.61" points="713.31,-29.15 721.72,-22.72 711.13,-22.5 713.31,-29.15"/>
</g>
<!-- &#45;12 -->
<g id="node12" class="node">
<title>&#45;12</title>
<polygon fill="lightgray" stroke="black" points="1396,-86.53 1364,-86.53 1364,-68.53 1396,-68.53 1396,-86.53"/>
<text text-anchor="middle" x="1380" y="-75.33" font-family="Times,serif" font-size="9.00">&#45;12</text>
</g>
<!-- &#45;12&#45;&gt;0 -->
<g id="edge47" class="edge">
<title>&#45;12&#45;&gt;0</title>
<path fill="none" stroke="red" stroke-width="0.17" d="M1380,-68.29C1380,-61.7 1380,-52.1 1380,-43"/>
<polygon fill="red" stroke="red" stroke-width="0.17" points="1383.5,-42.76 1380,-32.76 1376.5,-42.76 1383.5,-42.76"/>
</g>
<!-- &#45;12&#45;&gt;1 -->
<g id="edge31" class="edge">
<title>&#45;12&#45;&gt;1</title>
<path fill="none" stroke="green" stroke-width="0.53" stroke-dasharray="1,5" d="M1363.92,-71.17C1360.96,-70.25 1357.9,-69.33 1355,-68.53 1285.73,-49.37 1202.86,-31.26 1161.76,-22.6"/>
<polygon fill="green" stroke="green" stroke-width="0.53" points="1162.28,-19.13 1151.78,-20.5 1160.85,-25.98 1162.28,-19.13"/>
</g>
<!-- &#45;12&#45;&gt;3 -->
<g id="edge25" class="edge">
<title>&#45;12&#45;&gt;3</title>
<path fill="none" stroke="red" stroke-width="0.17" d="M1363.73,-70.74C1360.85,-69.88 1357.86,-69.1 1355,-68.53 1129.41,-23.68 849.95,-17.98 763.64,-17.33"/>
<polygon fill="red" stroke="red" stroke-width="0.17" points="763.44,-13.83 753.42,-17.27 763.4,-20.82 763.44,-13.83"/>
</g>
<!-- &#45;13 -->
<g id="node13" class="node">
<title>&#45;13</title>
<polygon fill="lightgray" stroke="black" points="714,-86.53 682,-86.53 682,-68.53 714,-68.53 714,-86.53"/>
<text text-anchor="middle" x="698" y="-75.33" font-family="Times,serif" font-size="9.00">&#45;13</text>
</g>
<!-- &#45;13&#45;&gt;1 -->
<g id="edge58" class="edge">
<title>&#45;13&#45;&gt;1</title>
<path fill="none" stroke="green" stroke-width="0.5" d="M714.02,-70.92C716.98,-70.02 720.06,-69.17 723,-68.53 866.75,-36.9 1043.24,-23.14 1109.34,-18.85"/>
<polygon fill="green" stroke="green" stroke-width="0.5" points="1109.92,-22.32 1119.68,-18.19 1109.48,-15.33 1109.92,-22.32"/>
</g>
<!-- &#45;13&#45;&gt;2 -->
<g id="edge60" class="edge">
<title>&#45;13&#45;&gt;2</title>
<path fill="none" stroke="green" stroke-width="0.58" d="M693.13,-68.29C688.76,-60.88 682.14,-49.67 676.21,-39.63"/>
<polygon fill="green" stroke="green" stroke-width="0.58" points="679.15,-37.73 671.05,-30.9 673.12,-41.29 679.15,-37.73"/>
</g>
<!-- &#45;13&#45;&gt;3 -->
<g id="edge42" class="edge">
<title>&#45;13&#45;&gt;3</title>
<path fill="none" stroke="red" stroke-width="0.11" d="M703.42,-68.29C708.41,-60.71 716.02,-49.14 722.74,-38.93"/>
<polygon fill="red" stroke="red" stroke-width="0.11" points="725.75,-40.72 728.33,-30.44 719.91,-36.87 725.75,-40.72"/>
</g>
<!-- &#45;14 -->
<g id="node14" class="node">
<title>&#45;14</title>
<polygon fill="lightgray" stroke="black" points="1008,-86.53 976,-86.53 976,-68.53 1008,-68.53 1008,-86.53"/>
<text text-anchor="middle" x="992" y="-75.33" font-family="Times,serif" font-size="9.00">&#45;14</text>
</g>
<!-- &#45;14&#45;&gt;1 -->
<g id="edge63" class="edge">
<title>&#45;14&#45;&gt;1</title>
<path fill="none" stroke="red" stroke-width="0.37" stroke-dasharray="1,5" d="M1008.24,-69.84C1033.5,-59.45 1082.37,-39.33 1111.8,-27.22"/>
<polygon fill="red" stroke="red" stroke-width="0.37" points="1113.42,-30.34 1121.33,-23.3 1110.75,-23.87 1113.42,-30.34"/>
</g>
<!-- &#45;14&#45;&gt;3 -->
<g id="edge41" class="edge">
<title>&#45;14&#45;&gt;3</title>
<path fill="none" stroke="red" stroke-width="0.49" d="M975.93,-71.15C972.97,-70.23 969.9,-69.31 967,-68.53 893.65,-48.66 805.65,-30.63 762.88,-22.24"/>
<polygon fill="red" stroke="red" stroke-width="0.49" points="763.5,-18.79 753.02,-20.31 762.16,-25.66 763.5,-18.79"/>
</g>
<!-- &#45;15 -->
<g id="node15" class="node">
<title>&#45;15</title>
<polygon fill="lightgray" stroke="black" points="1884,-86.53 1852,-86.53 1852,-68.53 1884,-68.53 1884,-86.53"/>
<text text-anchor="middle" x="1868" y="-75.33" font-family="Times,serif" font-size="9.00">&#45;15</text>
</g>
<!-- &#45;15&#45;&gt;0 -->
<g id="edge76" class="edge">
<title>&#45;15&#45;&gt;0</title>
<path fill="none" stroke="red" stroke-width="0.12" d="M1851.99,-70.88C1849.03,-69.99 1845.94,-69.15 1843,-68.53 1679.7,-33.72 1478.66,-21.71 1406.96,-18.37"/>
<polygon fill="red" stroke="red" stroke-width="0.12" points="1406.74,-14.86 1396.59,-17.91 1406.43,-21.85 1406.74,-14.86"/>
</g>
<!-- &#45;16 -->
<g id="node16" class="node">
<title>&#45;16</title>
<polygon fill="lightgray" stroke="black" points="32,-86.53 0,-86.53 0,-68.53 32,-68.53 32,-86.53"/>
<text text-anchor="middle" x="16" y="-75.33" font-family="Times,serif" font-size="9.00">&#45;16</text>
</g>
<!-- &#45;16&#45;&gt;2 -->
<g id="edge12" class="edge">
<title>&#45;16&#45;&gt;2</title>
<path fill="none" stroke="red" stroke-width="0.11" stroke-dasharray="1,5" d="M32.27,-70.74C35.15,-69.88 38.14,-69.09 41,-68.53 268.28,-23.41 549.89,-17.9 636.46,-17.31"/>
<polygon fill="red" stroke="red" stroke-width="0.11" points="636.49,-20.81 646.47,-17.25 636.45,-13.81 636.49,-20.81"/>
</g>
<!-- &#45;17 -->
<g id="node17" class="node">
<title>&#45;17</title>
<polygon fill="lightgray" stroke="black" points="1834,-86.53 1802,-86.53 1802,-68.53 1834,-68.53 1834,-86.53"/>
<text text-anchor="middle" x="1818" y="-75.33" font-family="Times,serif" font-size="9.00">&#45;17</text>
</g>
<!-- &#45;17&#45;&gt;0 -->
<g id="edge83" class="edge">
<title>&#45;17&#45;&gt;0</title>
<path fill="none" stroke="green" stroke-width="0.18" d="M1801.98,-70.92C1799.02,-70.02 1795.94,-69.17 1793,-68.53 1649.25,-36.9 1472.76,-23.14 1406.66,-18.85"/>
<polygon fill="green" stroke="green" stroke-width="0.18" points="1406.52,-15.33 1396.32,-18.19 1406.08,-22.32 1406.52,-15.33"/>
</g>
<!-- &#45;17&#45;&gt;1 -->
<g id="edge11" class="edge">
<title>&#45;17&#45;&gt;1</title>
<path fill="none" stroke="green" stroke-width="0.5" d="M1801.74,-70.72C1798.86,-69.87 1795.86,-69.09 1793,-68.53 1761.53,-62.35 1281.06,-27.66 1162.36,-19.15"/>
<polygon fill="green" stroke="green" stroke-width="0.5" points="1162.55,-15.65 1152.33,-18.43 1162.05,-22.64 1162.55,-15.65"/>
</g>
<!-- &#45;18 -->
<g id="node18" class="node">
<title>&#45;18</title>
<polygon fill="lightgray" stroke="black" points="1152,-86.53 1120,-86.53 1120,-68.53 1152,-68.53 1152,-86.53"/>
<text text-anchor="middle" x="1136" y="-75.33" font-family="Times,serif" font-size="9.00">&#45;18</text>
</g>
<!-- &#45;18&#45;&gt;1 -->
<g id="edge24" class="edge">
<title>&#45;18&#45;&gt;1</title>
<path fill="none" stroke="green" stroke-width="0.53" d="M1136,-68.29C1136,-61.7 1136,-52.1 1136,-43"/>
<polygon fill="green" stroke="green" stroke-width="0.53" points="1139.5,-42.76 1136,-32.76 1132.5,-42.76 1139.5,-42.76"/>
</g>
<!-- &#45;19 -->
<g id="node19" class="node">
<title>&#45;19</title>
<polygon fill="lightgray" stroke="black" points="1202,-86.53 1170,-86.53 1170,-68.53 1202,-68.53 1202,-86.53"/>
<text text-anchor="middle" x="1186" y="-75.33" font-family="Times,serif" font-size="9.00">&#45;19</text>
</g>
<!-- &#45;19&#45;&gt;1 -->
<g id="edge8" class="edge">
<title>&#45;19&#45;&gt;1</title>
<path fill="none" stroke="green" stroke-width="0.26" d="M1179.05,-68.29C1172.21,-60.18 1161.5,-47.49 1152.48,-36.79"/>
<polygon fill="green" stroke="green" stroke-width="0.26" points="1155.12,-34.5 1146,-29.11 1149.77,-39.01 1155.12,-34.5"/>
</g>
<!-- &#45;20 -->
<g id="node20" class="node">
<title>&#45;20</title>
<polygon fill="lightgray" stroke="black" points="476,-86.53 444,-86.53 444,-68.53 476,-68.53 476,-86.53"/>
<text text-anchor="middle" x="460" y="-75.33" font-family="Times,serif" font-size="9.00">&#45;20</text>
</g>
<!-- &#45;20&#45;&gt;3 -->
<g id="edge53" class="edge">
<title>&#45;20&#45;&gt;3</title>
<path fill="none" stroke="green" stroke-width="0.11" d="M476.05,-71.04C479,-70.13 482.08,-69.25 485,-68.53 573.95,-46.51 598.97,-54.2 688,-32.53 695.86,-30.61 704.3,-28.14 711.93,-25.74"/>
<polygon fill="green" stroke="green" stroke-width="0.11" points="713.26,-28.99 721.69,-22.58 711.1,-22.33 713.26,-28.99"/>
</g>
<!-- &#45;21 -->
<g id="node21" class="node">
<title>&#45;21</title>
<polygon fill="lightgray" stroke="black" points="82,-86.53 50,-86.53 50,-68.53 82,-68.53 82,-86.53"/>
<text text-anchor="middle" x="66" y="-75.33" font-family="Times,serif" font-size="9.00">&#45;21</text>
</g>
<!-- &#45;21&#45;&gt;2 -->
<g id="edge36" class="edge">
<title>&#45;21&#45;&gt;2</title>
<path fill="none" stroke="red" stroke-width="0.31" d="M82,-70.83C84.96,-69.94 88.05,-69.12 91,-68.53 297.95,-26.67 553.92,-18.99 636.2,-17.58"/>
<polygon fill="red" stroke="red" stroke-width="0.31" points="636.48,-21.07 646.43,-17.42 636.38,-14.07 636.48,-21.07"/>
</g>
<!-- &#45;22 -->
<g id="node22" class="node">
<title>&#45;22</title>
<polygon fill="lightgray" stroke="black" points="1690,-86.53 1658,-86.53 1658,-68.53 1690,-68.53 1690,-86.53"/>
<text text-anchor="middle" x="1674" y="-75.33" font-family="Times,serif" font-size="9.00">&#45;22</text>
</g>
<!-- &#45;22&#45;&gt;0 -->
<g id="edge22" class="edge">
<title>&#45;22&#45;&gt;0</title>
<path fill="none" stroke="red" stroke-width="0.32" d="M1657.95,-71.07C1654.99,-70.16 1651.91,-69.27 1649,-68.53 1560.97,-46.14 1454.51,-28.62 1406.16,-21.17"/>
<polygon fill="red" stroke="red" stroke-width="0.32" points="1406.63,-17.7 1396.22,-19.65 1405.58,-24.62 1406.63,-17.7"/>
</g>
<!-- &#45;22&#45;&gt;1 -->
<g id="edge21" class="edge">
<title>&#45;22&#45;&gt;1</title>
<path fill="none" stroke="red" stroke-width="0.27" d="M1657.99,-70.86C1655.03,-69.97 1651.94,-69.14 1649,-68.53 1554.15,-48.84 1252.96,-25.8 1162.16,-19.15"/>
<polygon fill="red" stroke="red" stroke-width="0.27" points="1162.38,-15.65 1152.15,-18.42 1161.87,-22.64 1162.38,-15.65"/>
</g>
<!-- &#45;23 -->
<g id="node23" class="node">
<title>&#45;23</title>
<polygon fill="lightgray" stroke="black" points="1590,-86.53 1558,-86.53 1558,-68.53 1590,-68.53 1590,-86.53"/>
<text text-anchor="middle" x="1574" y="-75.33" font-family="Times,serif" font-size="9.00">&#45;23</text>
</g>
<!-- &#45;23&#45;&gt;1 -->
<g id="edge56" class="edge">
<title>&#45;23&#45;&gt;1</title>
<path fill="none" stroke="green" stroke-width="0.12" d="M1557.98,-70.92C1555.02,-70.02 1551.94,-69.17 1549,-68.53 1405.25,-36.9 1228.76,-23.14 1162.66,-18.85"/>
<polygon fill="green" stroke="green" stroke-width="0.12" points="1162.52,-15.33 1152.32,-18.19 1162.08,-22.32 1162.52,-15.33"/>
</g>
<!-- &#45;24 -->
<g id="node24" class="node">
<title>&#45;24</title>
<polygon fill="lightgray" stroke="black" points="1740,-86.53 1708,-86.53 1708,-68.53 1740,-68.53 1740,-86.53"/>
<text text-anchor="middle" x="1724" y="-75.33" font-family="Times,serif" font-size="9.00">&#45;24</text>
</g>
<!-- &#45;24&#45;&gt;0 -->
<g id="edge48" class="edge">
<title>&#45;24&#45;&gt;0</title>
<path fill="none" stroke="red" stroke-width="0.14" d="M1707.96,-71C1705,-70.1 1701.93,-69.23 1699,-68.53 1591.81,-42.92 1461.27,-26.42 1406.34,-20.14"/>
<polygon fill="red" stroke="red" stroke-width="0.14" points="1406.43,-16.62 1396.1,-18.98 1405.65,-23.58 1406.43,-16.62"/>
</g>
<!-- &#45;24&#45;&gt;1 -->
<g id="edge32" class="edge">
<title>&#45;24&#45;&gt;1</title>
<path fill="none" stroke="green" stroke-width="0.31" d="M1708,-70.84C1705.04,-69.95 1701.95,-69.13 1699,-68.53 1645.99,-57.77 1266.73,-27.52 1162.46,-19.33"/>
<polygon fill="green" stroke="green" stroke-width="0.31" points="1162.44,-15.82 1152.19,-18.52 1161.89,-22.8 1162.44,-15.82"/>
</g>
<!-- &#45;25 -->
<g id="node25" class="node">
<title>&#45;25</title>
<polygon fill="lightgray" stroke="black" points="132,-86.53 100,-86.53 100,-68.53 132,-68.53 132,-86.53"/>
<text text-anchor="middle" x="116" y="-75.33" font-family="Times,serif" font-size="9.00">&#45;25</text>
</g>
<!-- &#45;25&#45;&gt;2 -->
<g id="edge68" class="edge">
<title>&#45;25&#45;&gt;2</title>
<path fill="none" stroke="green" stroke-width="0.12" d="M132,-70.85C134.97,-69.96 138.05,-69.14 141,-68.53 327.99,-29.88 558.87,-20.15 636.29,-17.9"/>
<polygon fill="green" stroke="green" stroke-width="0.12" points="636.67,-21.39 646.57,-17.61 636.48,-14.39 636.67,-21.39"/>
</g>
<!-- &#45;26 -->
<g id="node26" class="node">
<title>&#45;26</title>
<polygon fill="lightgray" stroke="black" points="1102,-86.53 1070,-86.53 1070,-68.53 1102,-68.53 1102,-86.53"/>
<text text-anchor="middle" x="1086" y="-75.33" font-family="Times,serif" font-size="9.00">&#45;26</text>
</g>
<!-- &#45;26&#45;&gt;0 -->
<g id="edge30" class="edge">
<title>&#45;26&#45;&gt;0</title>
<path fill="none" stroke="red" stroke-width="0.13" d="M1102.05,-71.07C1105.01,-70.16 1108.09,-69.27 1111,-68.53 1199.03,-46.14 1305.49,-28.62 1353.84,-21.17"/>
<polygon fill="red" stroke="red" stroke-width="0.13" points="1354.42,-24.62 1363.78,-19.65 1353.37,-17.7 1354.42,-24.62"/>
</g>
<!-- &#45;26&#45;&gt;1 -->
<g id="edge15" class="edge">
<title>&#45;26&#45;&gt;1</title>
<path fill="none" stroke="red" stroke-width="0.29" d="M1092.95,-68.29C1099.79,-60.18 1110.5,-47.49 1119.52,-36.79"/>
<polygon fill="red" stroke="red" stroke-width="0.29" points="1122.23,-39.01 1126,-29.11 1116.88,-34.5 1122.23,-39.01"/>
</g>
<!-- &#45;26&#45;&gt;2 -->
<g id="edge19" class="edge">
<title>&#45;26&#45;&gt;2</title>
<path fill="none" stroke="green" stroke-width="0.27" d="M1069.99,-70.87C1067.03,-69.97 1063.94,-69.14 1061,-68.53 908.37,-36.59 864.75,-63.87 712,-32.53 704.08,-30.9 695.62,-28.51 687.99,-26.1"/>
<polygon fill="green" stroke="green" stroke-width="0.27" points="688.84,-22.69 678.24,-22.87 686.64,-29.34 688.84,-22.69"/>
</g>
<!-- &#45;26&#45;&gt;3 -->
<g id="edge4" class="edge">
<title>&#45;26&#45;&gt;3</title>
<path fill="none" stroke="red" stroke-width="0.45" stroke-dasharray="1,5" d="M1069.96,-71C1067.01,-70.09 1063.93,-69.22 1061,-68.53 951.92,-42.6 818.99,-26.23 763.41,-20.06"/>
<polygon fill="red" stroke="red" stroke-width="0.45" points="763.67,-16.56 753.35,-18.96 762.91,-23.52 763.67,-16.56"/>
</g>
<!-- &#45;27 -->
<g id="node27" class="node">
<title>&#45;27</title>
<polygon fill="lightgray" stroke="black" points="1446,-86.53 1414,-86.53 1414,-68.53 1446,-68.53 1446,-86.53"/>
<text text-anchor="middle" x="1430" y="-75.33" font-family="Times,serif" font-size="9.00">&#45;27</text>
</g>
<!-- &#45;27&#45;&gt;0 -->
<g id="edge38" class="edge">
<title>&#45;27&#45;&gt;0</title>
<path fill="none" stroke="green" stroke-width="0.59" d="M1423.05,-68.29C1416.21,-60.18 1405.5,-47.49 1396.48,-36.79"/>
<polygon fill="green" stroke="green" stroke-width="0.59" points="1399.12,-34.5 1390,-29.11 1393.77,-39.01 1399.12,-34.5"/>
</g>
<!-- &#45;27&#45;&gt;1 -->
<g id="edge67" class="edge">
<title>&#45;27&#45;&gt;1</title>
<path fill="none" stroke="green" stroke-width="0.21" d="M1413.95,-71.07C1410.99,-70.16 1407.91,-69.27 1405,-68.53 1316.97,-46.14 1210.51,-28.62 1162.16,-21.17"/>
<polygon fill="green" stroke="green" stroke-width="0.21" points="1162.63,-17.7 1152.22,-19.65 1161.58,-24.62 1162.63,-17.7"/>
</g>
<!-- &#45;27&#45;&gt;3 -->
<g id="edge40" class="edge">
<title>&#45;27&#45;&gt;3</title>
<path fill="none" stroke="red" stroke-width="0.4" d="M1413.74,-70.72C1410.86,-69.87 1407.86,-69.09 1405,-68.53 1278.64,-43.81 871.22,-23.5 763.39,-18.47"/>
<polygon fill="red" stroke="red" stroke-width="0.4" points="763.51,-14.97 753.36,-18 763.19,-21.96 763.51,-14.97"/>
</g>
<!-- &#45;28 -->
<g id="node28" class="node">
<title>&#45;28</title>
<polygon fill="lightgray" stroke="black" points="1296,-86.53 1264,-86.53 1264,-68.53 1296,-68.53 1296,-86.53"/>
<text text-anchor="middle" x="1280" y="-75.33" font-family="Times,serif" font-size="9.00">&#45;28</text>
</g>
<!-- &#45;28&#45;&gt;0 -->
<g id="edge82" class="edge">
<title>&#45;28&#45;&gt;0</title>
<path fill="none" stroke="green" stroke-width="0.39" d="M1293.9,-68.29C1310.32,-58.56 1337.86,-42.24 1357.37,-30.68"/>
<polygon fill="green" stroke="green" stroke-width="0.39" points="1359.4,-33.54 1366.21,-25.43 1355.83,-27.52 1359.4,-33.54"/>
</g>
<!-- &#45;28&#45;&gt;1 -->
<g id="edge69" class="edge">
<title>&#45;28&#45;&gt;1</title>
<path fill="none" stroke="red" stroke-width="0.29" d="M1263.76,-69.84C1238.5,-59.45 1189.63,-39.33 1160.2,-27.22"/>
<polygon fill="red" stroke="red" stroke-width="0.29" points="1161.25,-23.87 1150.67,-23.3 1158.58,-30.34 1161.25,-23.87"/>
</g>
<!-- &#45;28&#45;&gt;2 -->
<g id="edge85" class="edge">
<title>&#45;28&#45;&gt;2</title>
<path fill="none" stroke="green" stroke-width="0.3" d="M1263.74,-70.7C1260.86,-69.84 1257.87,-69.07 1255,-68.53 1017.4,-23.34 949.78,-76.8 712,-32.53 703.96,-31.03 695.39,-28.64 687.7,-26.2"/>
<polygon fill="green" stroke="green" stroke-width="0.3" points="688.81,-22.88 678.21,-23.02 686.58,-29.52 688.81,-22.88"/>
</g>
<!-- &#45;29 -->
<g id="node29" class="node">
<title>&#45;29</title>
<polygon fill="lightgray" stroke="black" points="526,-86.53 494,-86.53 494,-68.53 526,-68.53 526,-86.53"/>
<text text-anchor="middle" x="510" y="-75.33" font-family="Times,serif" font-size="9.00">&#45;29</text>
</g>
<!-- &#45;29&#45;&gt;3 -->
<g id="edge75" class="edge">
<title>&#45;29&#45;&gt;3</title>
<path fill="none" stroke="red" stroke-width="0.19" stroke-dasharray="1,5" d="M526.08,-71.18C529.04,-70.25 532.1,-69.33 535,-68.53 602.32,-49.87 620.61,-50.93 688,-32.53 695.8,-30.4 704.23,-27.86 711.86,-25.47"/>
<polygon fill="red" stroke="red" stroke-width="0.19" points="713.17,-28.73 721.63,-22.36 711.04,-22.06 713.17,-28.73"/>
</g>
<!-- &#45;30 -->
<g id="node30" class="node">
<title>&#45;30</title>
<polygon fill="lightgray" stroke="black" points="282,-86.53 250,-86.53 250,-68.53 282,-68.53 282,-86.53"/>
<text text-anchor="middle" x="266" y="-75.33" font-family="Times,serif" font-size="9.00">&#45;30</text>
</g>
<!-- &#45;30&#45;&gt;1 -->
<g id="edge57" class="edge">
<title>&#45;30&#45;&gt;1</title>
<path fill="none" stroke="green" stroke-width="0.29" d="M282.26,-70.68C285.14,-69.83 288.13,-69.06 291,-68.53 373.02,-53.16 974.58,-24.71 1109.29,-18.49"/>
<polygon fill="green" stroke="green" stroke-width="0.29" points="1109.69,-21.97 1119.52,-18.02 1109.37,-14.98 1109.69,-21.97"/>
</g>
<!-- &#45;30&#45;&gt;2 -->
<g id="edge65" class="edge">
<title>&#45;30&#45;&gt;2</title>
<path fill="none" stroke="red" stroke-width="0.47" d="M282.02,-70.95C284.98,-70.05 288.07,-69.19 291,-68.53 418.78,-39.51 575.22,-24.46 636.55,-19.33"/>
<polygon fill="red" stroke="red" stroke-width="0.47" points="637.19,-22.79 646.87,-18.48 636.62,-15.81 637.19,-22.79"/>
</g>
<!-- &#45;31 -->
<g id="node31" class="node">
<title>&#45;31</title>
<polygon fill="lightgray" stroke="black" points="332,-86.53 300,-86.53 300,-68.53 332,-68.53 332,-86.53"/>
<text text-anchor="middle" x="316" y="-75.33" font-family="Times,serif" font-size="9.00">&#45;31</text>
</g>
<!-- &#45;31&#45;&gt;1 -->
<g id="edge73" class="edge">
<title>&#45;31&#45;&gt;1</title>
<path fill="none" stroke="green" stroke-width="0.33" d="M332.26,-70.69C335.14,-69.84 338.13,-69.07 341,-68.53 493.37,-39.69 988.82,-22.04 1109.38,-18.1"/>
<polygon fill="green" stroke="green" stroke-width="0.33" points="1109.67,-21.6 1119.55,-17.77 1109.44,-14.6 1109.67,-21.6"/>
</g>
<!-- &#45;31&#45;&gt;2 -->
<g id="edge51" class="edge">
<title>&#45;31&#45;&gt;2</title>
<path fill="none" stroke="red" stroke-width="0.21" d="M332.04,-71C335,-70.09 338.07,-69.22 341,-68.53 449.41,-42.71 581.52,-26.28 636.75,-20.07"/>
<polygon fill="red" stroke="red" stroke-width="0.21" points="637.19,-23.55 646.75,-18.97 636.42,-16.59 637.19,-23.55"/>
</g>
<!-- &#45;31&#45;&gt;3 -->
<g id="edge33" class="edge">
<title>&#45;31&#45;&gt;3</title>
<path fill="none" stroke="red" stroke-width="0.27" d="M332.01,-70.87C334.97,-69.97 338.06,-69.14 341,-68.53 492.75,-36.73 536.12,-63.74 688,-32.53 695.92,-30.9 704.38,-28.51 712.01,-26.1"/>
<polygon fill="red" stroke="red" stroke-width="0.27" points="713.36,-29.34 721.76,-22.87 711.16,-22.69 713.36,-29.34"/>
</g>
<!-- &#45;32 -->
<g id="node32" class="node">
<title>&#45;32</title>
<polygon fill="lightgray" stroke="black" points="814,-86.53 782,-86.53 782,-68.53 814,-68.53 814,-86.53"/>
<text text-anchor="middle" x="798" y="-75.33" font-family="Times,serif" font-size="9.00">&#45;32</text>
</g>
<!-- &#45;32&#45;&gt;0 -->
<g id="edge72" class="edge">
<title>&#45;32&#45;&gt;0</title>
<path fill="none" stroke="green" stroke-width="0.17" d="M814,-70.84C816.96,-69.95 820.05,-69.13 823,-68.53 926.77,-47.41 1257.99,-25.07 1353.81,-18.91"/>
<polygon fill="green" stroke="green" stroke-width="0.17" points="1354.05,-22.41 1363.81,-18.28 1353.61,-15.42 1354.05,-22.41"/>
</g>
<!-- &#45;32&#45;&gt;2 -->
<g id="edge62" class="edge">
<title>&#45;32&#45;&gt;2</title>
<path fill="none" stroke="green" stroke-width="0.26" d="M781.98,-69.5C758.47,-59.17 714.44,-39.84 687.03,-27.81"/>
<polygon fill="green" stroke="green" stroke-width="0.26" points="688.32,-24.56 677.76,-23.74 685.51,-30.97 688.32,-24.56"/>
</g>
<!-- &#45;33 -->
<g id="node33" class="node">
<title>&#45;33</title>
<polygon fill="lightgray" stroke="black" points="182,-86.53 150,-86.53 150,-68.53 182,-68.53 182,-86.53"/>
<text text-anchor="middle" x="166" y="-75.33" font-family="Times,serif" font-size="9.00">&#45;33</text>
</g>
<!-- &#45;33&#45;&gt;2 -->
<g id="edge79" class="edge">
<title>&#45;33&#45;&gt;2</title>
<path fill="none" stroke="red" stroke-width="0.27" d="M182.01,-70.88C184.97,-69.98 188.06,-69.15 191,-68.53 358.2,-33.07 564.21,-21.42 636.46,-18.27"/>
<polygon fill="red" stroke="red" stroke-width="0.27" points="636.66,-21.77 646.51,-17.85 636.37,-14.77 636.66,-21.77"/>
</g>
<!-- &#45;33&#45;&gt;3 -->
<g id="edge10" class="edge">
<title>&#45;33&#45;&gt;3</title>
<path fill="none" stroke="red" stroke-width="0.12" d="M182.26,-70.71C185.14,-69.86 188.14,-69.08 191,-68.53 408.44,-26.48 470.4,-73.73 688,-32.53 696.04,-31.01 704.61,-28.61 712.3,-26.17"/>
<polygon fill="red" stroke="red" stroke-width="0.12" points="713.41,-29.49 721.78,-23 711.19,-22.85 713.41,-29.49"/>
</g>
<!-- &#45;34 -->
<g id="node34" class="node">
<title>&#45;34</title>
<polygon fill="lightgray" stroke="black" points="1934,-86.53 1902,-86.53 1902,-68.53 1934,-68.53 1934,-86.53"/>
<text text-anchor="middle" x="1918" y="-75.33" font-family="Times,serif" font-size="9.00">&#45;34</text>
</g>
<!-- &#45;34&#45;&gt;0 -->
<g id="edge23" class="edge">
<title>&#45;34&#45;&gt;0</title>
<path fill="none" stroke="red" stroke-width="0.12" d="M1901.99,-70.86C1899.03,-69.97 1895.94,-69.14 1893,-68.53 1709.65,-30.47 1483.36,-20.38 1406.77,-17.96"/>
<polygon fill="red" stroke="red" stroke-width="0.12" points="1406.68,-14.46 1396.58,-17.66 1406.47,-21.45 1406.68,-14.46"/>
</g>
<!-- &#45;35 -->
<g id="node35" class="node">
<title>&#45;35</title>
<polygon fill="lightgray" stroke="black" points="576,-86.53 544,-86.53 544,-68.53 576,-68.53 576,-86.53"/>
<text text-anchor="middle" x="560" y="-75.33" font-family="Times,serif" font-size="9.00">&#45;35</text>
</g>
<!-- &#45;35&#45;&gt;3 -->
<g id="edge61" class="edge">
<title>&#45;35&#45;&gt;3</title>
<path fill="none" stroke="green" stroke-width="0.35" d="M576.02,-71.16C607.06,-60.77 675.56,-37.84 712.4,-25.5"/>
<polygon fill="green" stroke="green" stroke-width="0.35" points="713.53,-28.81 721.9,-22.32 711.31,-22.18 713.53,-28.81"/>
</g>
<!-- &#45;36 -->
<g id="node36" class="node">
<title>&#45;36</title>
<polygon fill="lightgray" stroke="black" points="2028,-86.53 1996,-86.53 1996,-68.53 2028,-68.53 2028,-86.53"/>
<text text-anchor="middle" x="2012" y="-75.33" font-family="Times,serif" font-size="9.00">&#45;36</text>
</g>
<!-- &#45;37 -->
<g id="node37" class="node">
<title>&#45;37</title>
<polygon fill="lightgray" stroke="black" points="864,-86.53 832,-86.53 832,-68.53 864,-68.53 864,-86.53"/>
<text text-anchor="middle" x="848" y="-75.33" font-family="Times,serif" font-size="9.00">&#45;37</text>
</g>
<!-- &#45;37&#45;&gt;0 -->
<g id="edge66" class="edge">
<title>&#45;37&#45;&gt;0</title>
<path fill="none" stroke="red" stroke-width="0.3" d="M864.01,-70.86C866.97,-69.97 870.06,-69.14 873,-68.53 966.54,-49.06 1263.15,-25.95 1353.57,-19.2"/>
<polygon fill="red" stroke="red" stroke-width="0.3" points="1354.07,-22.67 1363.78,-18.44 1353.55,-15.69 1354.07,-22.67"/>
</g>
<!-- &#45;37&#45;&gt;1 -->
<g id="edge1" class="edge">
<title>&#45;37&#45;&gt;1</title>
<path fill="none" stroke="red" stroke-width="0.27" d="M864.06,-71.08C867.01,-70.17 870.09,-69.27 873,-68.53 958.7,-46.54 1062.22,-28.93 1109.78,-21.33"/>
<polygon fill="red" stroke="red" stroke-width="0.27" points="1110.51,-24.76 1119.84,-19.74 1109.42,-17.84 1110.51,-24.76"/>
</g>
<!-- &#45;37&#45;&gt;2 -->
<g id="edge16" class="edge">
<title>&#45;37&#45;&gt;2</title>
<path fill="none" stroke="green" stroke-width="0.19" d="M831.91,-71.37C799.68,-61.05 727.03,-37.78 688.35,-25.38"/>
<polygon fill="green" stroke="green" stroke-width="0.19" points="688.99,-21.92 678.4,-22.2 686.86,-28.58 688.99,-21.92"/>
</g>
<!-- &#45;37&#45;&gt;3 -->
<g id="edge5" class="edge">
<title>&#45;37&#45;&gt;3</title>
<path fill="none" stroke="red" stroke-width="0.4" d="M832.57,-68.29C813.78,-58.26 781.89,-41.23 760.15,-29.63"/>
<polygon fill="red" stroke="red" stroke-width="0.4" points="761.72,-26.49 751.25,-24.87 758.42,-32.67 761.72,-26.49"/>
</g>
<!-- &#45;38 -->
<g id="node38" class="node">
<title>&#45;38</title>
<polygon fill="lightgray" stroke="black" points="2078,-86.53 2046,-86.53 2046,-68.53 2078,-68.53 2078,-86.53"/>
<text text-anchor="middle" x="2062" y="-75.33" font-family="Times,serif" font-size="9.00">&#45;38</text>
</g>
<!-- &#45;39 -->
<g id="node39" class="node">
<title>&#45;39</title>
<polygon fill="lightgray" stroke="black" points="1640,-86.53 1608,-86.53 1608,-68.53 1640,-68.53 1640,-86.53"/>
<text text-anchor="middle" x="1624" y="-75.33" font-family="Times,serif" font-size="9.00">&#45;39</text>
</g>
<!-- &#45;39&#45;&gt;1 -->
<g id="edge34" class="edge">
<title>&#45;39&#45;&gt;1</title>
<path fill="none" stroke="green" stroke-width="0.1" d="M1607.99,-70.88C1605.03,-69.99 1601.94,-69.15 1599,-68.53 1514.32,-50.48 1247.4,-26.76 1162.33,-19.48"/>
<polygon fill="green" stroke="green" stroke-width="0.1" points="1162.48,-15.98 1152.22,-18.62 1161.89,-22.96 1162.48,-15.98"/>
</g>
<!-- &#45;40 -->
<g id="node40" class="node">
<title>&#45;40</title>
<polygon fill="lightgray" stroke="black" points="232,-86.53 200,-86.53 200,-68.53 232,-68.53 232,-86.53"/>
<text text-anchor="middle" x="216" y="-75.33" font-family="Times,serif" font-size="9.00">&#45;40</text>
</g>
<!-- &#45;40&#45;&gt;2 -->
<g id="edge86" class="edge">
<title>&#45;40&#45;&gt;2</title>
<path fill="none" stroke="red" stroke-width="0.19" d="M232.02,-70.91C234.98,-70.01 238.06,-69.17 241,-68.53 388.52,-36.27 569.81,-22.83 636.64,-18.73"/>
<polygon fill="red" stroke="red" stroke-width="0.19" points="636.94,-22.22 646.72,-18.13 636.53,-15.23 636.94,-22.22"/>
</g>
<!-- &#45;40&#45;&gt;3 -->
<g id="edge3" class="edge">
<title>&#45;40&#45;&gt;3</title>
<path fill="none" stroke="red" stroke-width="0.14" d="M232.27,-70.73C235.15,-69.87 238.14,-69.09 241,-68.53 436.53,-29.9 492.32,-70.4 688,-32.53 695.94,-30.99 704.41,-28.63 712.03,-26.21"/>
<polygon fill="red" stroke="red" stroke-width="0.14" points="713.4,-29.45 721.78,-22.96 711.18,-22.81 713.4,-29.45"/>
</g>
<!-- &#45;41 -->
<g id="node41" class="node">
<title>&#45;41</title>
<polygon fill="lightgray" stroke="black" points="1346,-86.53 1314,-86.53 1314,-68.53 1346,-68.53 1346,-86.53"/>
<text text-anchor="middle" x="1330" y="-75.33" font-family="Times,serif" font-size="9.00">&#45;41</text>
</g>
<!-- &#45;41&#45;&gt;0 -->
<g id="edge77" class="edge">
<title>&#45;41&#45;&gt;0</title>
<path fill="none" stroke="green" stroke-width="0.21" d="M1336.95,-68.29C1343.79,-60.18 1354.5,-47.49 1363.52,-36.79"/>
<polygon fill="green" stroke="green" stroke-width="0.21" points="1366.23,-39.01 1370,-29.11 1360.88,-34.5 1366.23,-39.01"/>
</g>
<!-- &#45;41&#45;&gt;1 -->
<g id="edge44" class="edge">
<title>&#45;41&#45;&gt;1</title>
<path fill="none" stroke="green" stroke-width="0.48" d="M1313.87,-71.33C1310.92,-70.39 1307.87,-69.42 1305,-68.53 1254.02,-52.64 1194.19,-34.64 1161.15,-24.76"/>
<polygon fill="green" stroke="green" stroke-width="0.48" points="1161.99,-21.36 1151.4,-21.85 1159.98,-28.07 1161.99,-21.36"/>
</g>
<!-- &#45;41&#45;&gt;2 -->
<g id="edge55" class="edge">
<title>&#45;41&#45;&gt;2</title>
<path fill="none" stroke="green" stroke-width="0.28" d="M1313.74,-70.68C1310.86,-69.83 1307.87,-69.06 1305,-68.53 1045.47,-19.91 971.71,-80.14 712,-32.53 703.96,-31.05 695.38,-28.67 687.69,-26.23"/>
<polygon fill="green" stroke="green" stroke-width="0.28" points="688.8,-22.91 678.21,-23.04 686.58,-29.55 688.8,-22.91"/>
</g>
<!-- &#45;42 -->
<g id="node42" class="node">
<title>&#45;42</title>
<polygon fill="lightgray" stroke="black" points="914,-86.53 882,-86.53 882,-68.53 914,-68.53 914,-86.53"/>
<text text-anchor="middle" x="898" y="-75.33" font-family="Times,serif" font-size="9.00">&#45;42</text>
</g>
<!-- &#45;42&#45;&gt;0 -->
<g id="edge80" class="edge">
<title>&#45;42&#45;&gt;0</title>
<path fill="none" stroke="red" stroke-width="0.64" d="M914.01,-70.89C916.97,-69.99 920.06,-69.16 923,-68.53 1084.18,-34.05 1282.62,-21.84 1353.39,-18.41"/>
<polygon fill="red" stroke="red" stroke-width="0.64" points="1353.8,-21.89 1363.62,-17.93 1353.47,-14.9 1353.8,-21.89"/>
</g>
<!-- &#45;42&#45;&gt;1 -->
<g id="edge74" class="edge">
<title>&#45;42&#45;&gt;1</title>
<path fill="none" stroke="red" stroke-width="0.15" d="M914.09,-71.19C917.04,-70.26 920.1,-69.34 923,-68.53 990.08,-49.75 1070.19,-31.6 1110.36,-22.79"/>
<polygon fill="red" stroke="red" stroke-width="0.15" points="1111.11,-26.21 1120.13,-20.66 1109.62,-19.37 1111.11,-26.21"/>
</g>
<!-- &#45;42&#45;&gt;2 -->
<g id="edge20" class="edge">
<title>&#45;42&#45;&gt;2</title>
<path fill="none" stroke="red" stroke-width="0.4" d="M881.93,-71.15C878.97,-70.23 875.9,-69.31 873,-68.53 802.23,-49.33 782.84,-51.45 712,-32.53 704.19,-30.44 695.76,-27.92 688.13,-25.52"/>
<polygon fill="red" stroke="red" stroke-width="0.4" points="688.94,-22.11 678.35,-22.4 686.81,-28.78 688.94,-22.11"/>
</g>
<!-- &#45;42&#45;&gt;3 -->
<g id="edge26" class="edge">
<title>&#45;42&#45;&gt;3</title>
<path fill="none" stroke="red" stroke-width="0.44" d="M881.97,-70.63C853.72,-60.23 794.88,-38.57 761.5,-26.28"/>
<polygon fill="red" stroke="red" stroke-width="0.44" points="762.61,-22.96 752.02,-22.79 760.2,-29.53 762.61,-22.96"/>
</g>
<!-- &#45;43 -->
<g id="node43" class="node">
<title>&#45;43</title>
<polygon fill="lightgray" stroke="black" points="1540,-86.53 1508,-86.53 1508,-68.53 1540,-68.53 1540,-86.53"/>
<text text-anchor="middle" x="1524" y="-75.33" font-family="Times,serif" font-size="9.00">&#45;43</text>
</g>
<!-- &#45;43&#45;&gt;0 -->
<g id="edge81" class="edge">
<title>&#45;43&#45;&gt;0</title>
<path fill="none" stroke="green" stroke-width="0.25" d="M1507.76,-69.84C1482.5,-59.45 1433.63,-39.33 1404.2,-27.22"/>
<polygon fill="green" stroke="green" stroke-width="0.25" points="1405.25,-23.87 1394.67,-23.3 1402.58,-30.34 1405.25,-23.87"/>
</g>
<!-- &#45;43&#45;&gt;3 -->
<g id="edge78" class="edge">
<title>&#45;43&#45;&gt;3</title>
<path fill="none" stroke="red" stroke-width="0.2" d="M1507.74,-70.7C1504.86,-69.85 1501.86,-69.07 1499,-68.53 1353.43,-40.77 881.07,-22.4 763.63,-18.19"/>
<polygon fill="red" stroke="red" stroke-width="0.2" points="763.51,-14.68 753.39,-17.82 763.26,-21.68 763.51,-14.68"/>
</g>
<!-- &#45;44 -->
<g id="node44" class="node">
<title>&#45;44</title>
<polygon fill="lightgray" stroke="black" points="2128,-86.53 2096,-86.53 2096,-68.53 2128,-68.53 2128,-86.53"/>
<text text-anchor="middle" x="2112" y="-75.33" font-family="Times,serif" font-size="9.00">&#45;44</text>
</g>
</g>
</svg>
