<?xml version="1.0" encoding="UTF-8" standalone="no"?>
<!DOCTYPE svg PUBLIC "-//W3C//DTD SVG 1.1//EN"
 "http://www.w3.org/Graphics/SVG/1.1/DTD/svg11.dtd">
<!-- Generated by graphviz version 2.43.0 (0)
 -->
<!-- Title: %3 Pages: 1 -->
<svg width="2113pt" height="197pt"
 viewBox="0.00 0.00 2113.00 196.99" xmlns="http://www.w3.org/2000/svg" xmlns:xlink="http://www.w3.org/1999/xlink">
<g id="graph0" class="graph" transform="scale(1 1) rotate(0) translate(4 192.99)">
<title>%3</title>
<polygon fill="white" stroke="transparent" points="-4,4 -4,-192.99 2109,-192.99 2109,4 -4,4"/>
<!-- &#45;1 -->
<g id="node1" class="node">
<title>&#45;1</title>
<polygon fill="lightgray" stroke="black" points="106,-188.99 80,-188.99 80,-170.99 106,-170.99 106,-188.99"/>
<text text-anchor="middle" x="93" y="-177.79" font-family="Times,serif" font-size="9.00">&#45;1</text>
</g>
<!-- &#45;2 -->
<g id="node2" class="node">
<title>&#45;2</title>
<polygon fill="lightgray" stroke="black" points="248,-110.76 222,-110.76 222,-92.76 248,-92.76 248,-110.76"/>
<text text-anchor="middle" x="235" y="-99.56" font-family="Times,serif" font-size="9.00">&#45;2</text>
</g>
<!-- 0 -->
<g id="node45" class="node">
<title>0</title>
<ellipse fill="lightblue" stroke="black" cx="257" cy="-16.26" rx="16.03" ry="16.03"/>
<text text-anchor="middle" x="257" y="-14.06" font-family="Times,serif" font-size="9.00">0</text>
</g>
<!-- &#45;2&#45;&gt;0 -->
<g id="edge26" class="edge">
<title>&#45;2&#45;&gt;0</title>
<path fill="none" stroke="red" stroke-width="0.17" d="M237.11,-92.75C240.16,-81.19 245.92,-59.32 250.46,-42.09"/>
<polygon fill="red" stroke="red" stroke-width="0.17" points="253.93,-42.65 253.09,-32.09 247.16,-40.87 253.93,-42.65"/>
</g>
<!-- &#45;3 -->
<g id="node3" class="node">
<title>&#45;3</title>
<polygon fill="lightgray" stroke="black" points="924,-110.76 898,-110.76 898,-92.76 924,-92.76 924,-110.76"/>
<text text-anchor="middle" x="911" y="-99.56" font-family="Times,serif" font-size="9.00">&#45;3</text>
</g>
<!-- 2 -->
<g id="node47" class="node">
<title>2</title>
<ellipse fill="lightblue" stroke="black" cx="814" cy="-16.26" rx="16.03" ry="16.03"/>
<text text-anchor="middle" x="814" y="-14.06" font-family="Times,serif" font-size="9.00">2</text>
</g>
<!-- &#45;3&#45;&gt;2 -->
<g id="edge31" class="edge">
<title>&#45;3&#45;&gt;2</title>
<path fill="none" stroke="red" stroke-width="0.31" stroke-dasharray="1,5" d="M906.66,-92.73C902.67,-85.81 896.28,-75.81 889,-68.53 873.58,-53.1 852.93,-39.38 837.21,-30.02"/>
<polygon fill="red" stroke="red" stroke-width="0.31" points="838.55,-26.76 828.14,-24.79 835.05,-32.82 838.55,-26.76"/>
</g>
<!-- 3 -->
<g id="node48" class="node">
<title>3</title>
<ellipse fill="lightblue" stroke="black" cx="1055" cy="-16.26" rx="16.03" ry="16.03"/>
<text text-anchor="middle" x="1055" y="-14.06" font-family="Times,serif" font-size="9.00">3</text>
</g>
<!-- &#45;3&#45;&gt;3 -->
<g id="edge33" class="edge">
<title>&#45;3&#45;&gt;3</title>
<path fill="none" stroke="red" stroke-width="0.3" stroke-dasharray="1,5" d="M914.85,-92.63C918.6,-85.45 924.92,-75.13 933,-68.53 961.78,-45.02 1002.88,-30.76 1029.26,-23.44"/>
<polygon fill="red" stroke="red" stroke-width="0.3" points="1030.47,-26.74 1039.25,-20.8 1028.68,-19.97 1030.47,-26.74"/>
</g>
<!-- &#45;4 -->
<g id="node4" class="node">
<title>&#45;4</title>
<polygon fill="lightgray" stroke="black" points="1311,-188.99 1285,-188.99 1285,-170.99 1311,-170.99 1311,-188.99"/>
<text text-anchor="middle" x="1298" y="-177.79" font-family="Times,serif" font-size="9.00">&#45;4</text>
</g>
<!-- &#45;5 -->
<g id="node5" class="node">
<title>&#45;5</title>
<polygon fill="lightgray" stroke="black" points="1068,-110.76 1042,-110.76 1042,-92.76 1068,-92.76 1068,-110.76"/>
<text text-anchor="middle" x="1055" y="-99.56" font-family="Times,serif" font-size="9.00">&#45;5</text>
</g>
<!-- &#45;5&#45;&gt;3 -->
<g id="edge4" class="edge">
<title>&#45;5&#45;&gt;3</title>
<path fill="none" stroke="green" stroke-width="0.29" d="M1055,-92.75C1055,-81.44 1055,-60.24 1055,-43.18"/>
<polygon fill="green" stroke="green" stroke-width="0.29" points="1058.5,-42.71 1055,-32.71 1051.5,-42.71 1058.5,-42.71"/>
</g>
<!-- &#45;6 -->
<g id="node6" class="node">
<title>&#45;6</title>
<polygon fill="lightgray" stroke="black" points="1355,-188.99 1329,-188.99 1329,-170.99 1355,-170.99 1355,-188.99"/>
<text text-anchor="middle" x="1342" y="-177.79" font-family="Times,serif" font-size="9.00">&#45;6</text>
</g>
<!-- &#45;7 -->
<g id="node7" class="node">
<title>&#45;7</title>
<polygon fill="lightgray" stroke="black" points="436,-110.76 410,-110.76 410,-92.76 436,-92.76 436,-110.76"/>
<text text-anchor="middle" x="423" y="-99.56" font-family="Times,serif" font-size="9.00">&#45;7</text>
</g>
<!-- &#45;7&#45;&gt;0 -->
<g id="edge13" class="edge">
<title>&#45;7&#45;&gt;0</title>
<path fill="none" stroke="red" stroke-width="0.64" d="M419.24,-92.52C415.55,-85.27 409.26,-74.9 401,-68.53 365.47,-41.13 314.07,-27.56 283.25,-21.5"/>
<polygon fill="red" stroke="red" stroke-width="0.64" points="283.74,-18.04 273.27,-19.67 282.47,-24.92 283.74,-18.04"/>
</g>
<!-- 1 -->
<g id="node46" class="node">
<title>1</title>
<ellipse fill="lightblue" stroke="black" cx="645" cy="-16.26" rx="16.03" ry="16.03"/>
<text text-anchor="middle" x="645" y="-14.06" font-family="Times,serif" font-size="9.00">1</text>
</g>
<!-- &#45;7&#45;&gt;1 -->
<g id="edge10" class="edge">
<title>&#45;7&#45;&gt;1</title>
<path fill="none" stroke="red" stroke-width="0.44" d="M426.49,-92.63C430.07,-85.24 436.35,-74.59 445,-68.53 498.64,-30.93 577.61,-20.88 618.42,-18.22"/>
<polygon fill="red" stroke="red" stroke-width="0.44" points="618.84,-21.7 628.63,-17.65 618.45,-14.71 618.84,-21.7"/>
</g>
<!-- &#45;7&#45;&gt;2 -->
<g id="edge6" class="edge">
<title>&#45;7&#45;&gt;2</title>
<path fill="none" stroke="red" stroke-width="1.75" d="M426.2,-92.69C429.65,-85.12 435.9,-74.17 445,-68.53 459.66,-59.44 706.33,-29.87 787.99,-20.29"/>
<polygon fill="red" stroke="red" stroke-width="1.75" points="788.42,-23.76 797.95,-19.13 787.61,-16.81 788.42,-23.76"/>
</g>
<!-- &#45;8 -->
<g id="node8" class="node">
<title>&#45;8</title>
<polygon fill="lightgray" stroke="black" points="730,-110.76 704,-110.76 704,-92.76 730,-92.76 730,-110.76"/>
<text text-anchor="middle" x="717" y="-99.56" font-family="Times,serif" font-size="9.00">&#45;8</text>
</g>
<!-- &#45;8&#45;&gt;1 -->
<g id="edge34" class="edge">
<title>&#45;8&#45;&gt;1</title>
<path fill="none" stroke="red" stroke-width="0.38" d="M711.95,-92.53C707.71,-85.85 701.35,-76.29 695,-68.53 685.43,-56.84 673.68,-44.69 663.98,-35.16"/>
<polygon fill="red" stroke="red" stroke-width="0.38" points="666.33,-32.57 656.71,-28.14 661.47,-37.6 666.33,-32.57"/>
</g>
<!-- &#45;8&#45;&gt;2 -->
<g id="edge41" class="edge">
<title>&#45;8&#45;&gt;2</title>
<path fill="none" stroke="red" stroke-width="0.14" d="M721.34,-92.73C725.33,-85.81 731.72,-75.81 739,-68.53 754.42,-53.1 775.07,-39.38 790.79,-30.02"/>
<polygon fill="red" stroke="red" stroke-width="0.14" points="792.95,-32.82 799.86,-24.79 789.45,-26.76 792.95,-32.82"/>
</g>
<!-- &#45;9 -->
<g id="node9" class="node">
<title>&#45;9</title>
<polygon fill="lightgray" stroke="black" points="292,-110.76 266,-110.76 266,-92.76 292,-92.76 292,-110.76"/>
<text text-anchor="middle" x="279" y="-99.56" font-family="Times,serif" font-size="9.00">&#45;9</text>
</g>
<!-- &#45;9&#45;&gt;0 -->
<g id="edge15" class="edge">
<title>&#45;9&#45;&gt;0</title>
<path fill="none" stroke="green" stroke-width="0.35" stroke-dasharray="1,5" d="M276.89,-92.75C273.84,-81.19 268.08,-59.32 263.54,-42.09"/>
<polygon fill="green" stroke="green" stroke-width="0.35" points="266.84,-40.87 260.91,-32.09 260.07,-42.65 266.84,-40.87"/>
</g>
<!-- &#45;10 -->
<g id="node10" class="node">
<title>&#45;10</title>
<polygon fill="lightgray" stroke="black" points="974,-110.76 942,-110.76 942,-92.76 974,-92.76 974,-110.76"/>
<text text-anchor="middle" x="958" y="-99.56" font-family="Times,serif" font-size="9.00">&#45;10</text>
</g>
<!-- &#45;10&#45;&gt;2 -->
<g id="edge35" class="edge">
<title>&#45;10&#45;&gt;2</title>
<path fill="none" stroke="green" stroke-width="0.19" stroke-dasharray="1,5" d="M953.36,-92.67C948.92,-85.51 941.62,-75.2 933,-68.53 904.39,-46.37 864.76,-31.82 839.25,-24.06"/>
<polygon fill="green" stroke="green" stroke-width="0.19" points="840.15,-20.68 829.57,-21.24 838.19,-27.4 840.15,-20.68"/>
</g>
<!-- &#45;10&#45;&gt;3 -->
<g id="edge3" class="edge">
<title>&#45;10&#45;&gt;3</title>
<path fill="none" stroke="green" stroke-width="0.16" d="M963.37,-92.54C968.07,-85.69 975.34,-75.88 983,-68.53 998.22,-53.92 1017.85,-40.22 1032.77,-30.66"/>
<polygon fill="green" stroke="green" stroke-width="0.16" points="1034.76,-33.55 1041.37,-25.28 1031.04,-27.62 1034.76,-33.55"/>
</g>
<!-- &#45;11 -->
<g id="node11" class="node">
<title>&#45;11</title>
<polygon fill="lightgray" stroke="black" points="586,-110.76 554,-110.76 554,-92.76 586,-92.76 586,-110.76"/>
<text text-anchor="middle" x="570" y="-99.56" font-family="Times,serif" font-size="9.00">&#45;11</text>
</g>
<!-- &#45;11&#45;&gt;1 -->
<g id="edge16" class="edge">
<title>&#45;11&#45;&gt;1</title>
<path fill="none" stroke="red" stroke-width="0.33" stroke-dasharray="1,5" d="M575.92,-92.61C580.84,-85.97 588.12,-76.43 595,-68.53 604.92,-57.13 616.69,-45 626.31,-35.41"/>
<polygon fill="red" stroke="red" stroke-width="0.33" points="628.84,-37.83 633.5,-28.32 623.92,-32.85 628.84,-37.83"/>
</g>
<!-- &#45;12 -->
<g id="node12" class="node">
<title>&#45;12</title>
<polygon fill="lightgray" stroke="black" points="1405,-188.99 1373,-188.99 1373,-170.99 1405,-170.99 1405,-188.99"/>
<text text-anchor="middle" x="1389" y="-177.79" font-family="Times,serif" font-size="9.00">&#45;12</text>
</g>
<!-- &#45;13 -->
<g id="node13" class="node">
<title>&#45;13</title>
<polygon fill="lightgray" stroke="black" points="1118,-110.76 1086,-110.76 1086,-92.76 1118,-92.76 1118,-110.76"/>
<text text-anchor="middle" x="1102" y="-99.56" font-family="Times,serif" font-size="9.00">&#45;13</text>
</g>
<!-- &#45;13&#45;&gt;3 -->
<g id="edge29" class="edge">
<title>&#45;13&#45;&gt;3</title>
<path fill="none" stroke="green" stroke-width="0.19" stroke-dasharray="1,5" d="M1097.49,-92.75C1090.71,-80.7 1077.61,-57.44 1067.75,-39.91"/>
<polygon fill="green" stroke="green" stroke-width="0.19" points="1070.61,-37.86 1062.66,-30.86 1064.51,-41.29 1070.61,-37.86"/>
</g>
<!-- &#45;14 -->
<g id="node14" class="node">
<title>&#45;14</title>
<polygon fill="lightgray" stroke="black" points="636,-110.76 604,-110.76 604,-92.76 636,-92.76 636,-110.76"/>
<text text-anchor="middle" x="620" y="-99.56" font-family="Times,serif" font-size="9.00">&#45;14</text>
</g>
<!-- &#45;14&#45;&gt;1 -->
<g id="edge1" class="edge">
<title>&#45;14&#45;&gt;1</title>
<path fill="none" stroke="green" stroke-width="1.72" d="M622.4,-92.75C625.86,-81.19 632.41,-59.32 637.57,-42.09"/>
<polygon fill="green" stroke="green" stroke-width="1.72" points="641.05,-42.67 640.56,-32.09 634.34,-40.66 641.05,-42.67"/>
</g>
<!-- &#45;15 -->
<g id="node15" class="node">
<title>&#45;15</title>
<polygon fill="lightgray" stroke="black" points="486,-110.76 454,-110.76 454,-92.76 486,-92.76 486,-110.76"/>
<text text-anchor="middle" x="470" y="-99.56" font-family="Times,serif" font-size="9.00">&#45;15</text>
</g>
<!-- &#45;15&#45;&gt;1 -->
<g id="edge32" class="edge">
<title>&#45;15&#45;&gt;1</title>
<path fill="none" stroke="red" stroke-width="0.31" d="M474.52,-92.51C478.88,-85.24 486.12,-74.87 495,-68.53 533.23,-41.22 587.17,-27.54 618.87,-21.45"/>
<polygon fill="red" stroke="red" stroke-width="0.31" points="619.5,-24.89 628.72,-19.67 618.25,-18.01 619.5,-24.89"/>
</g>
<!-- &#45;16 -->
<g id="node16" class="node">
<title>&#45;16</title>
<polygon fill="lightgray" stroke="black" points="780,-110.76 748,-110.76 748,-92.76 780,-92.76 780,-110.76"/>
<text text-anchor="middle" x="764" y="-99.56" font-family="Times,serif" font-size="9.00">&#45;16</text>
</g>
<!-- &#45;16&#45;&gt;1 -->
<g id="edge36" class="edge">
<title>&#45;16&#45;&gt;1</title>
<path fill="none" stroke="red" stroke-width="0.42" stroke-dasharray="1,5" d="M759.03,-92.58C754.47,-85.56 747.2,-75.5 739,-68.53 717.81,-50.49 689.26,-36.02 669.2,-27.11"/>
<polygon fill="red" stroke="red" stroke-width="0.42" points="670.41,-23.82 659.84,-23.08 667.64,-30.25 670.41,-23.82"/>
</g>
<!-- &#45;16&#45;&gt;2 -->
<g id="edge17" class="edge">
<title>&#45;16&#45;&gt;2</title>
<path fill="none" stroke="green" stroke-width="0.35" d="M768.79,-92.75C776.05,-80.63 790.1,-57.17 800.62,-39.61"/>
<polygon fill="green" stroke="green" stroke-width="0.35" points="803.9,-40.94 806.04,-30.56 797.9,-37.34 803.9,-40.94"/>
</g>
<!-- &#45;17 -->
<g id="node17" class="node">
<title>&#45;17</title>
<polygon fill="lightgray" stroke="black" points="1455,-188.99 1423,-188.99 1423,-170.99 1455,-170.99 1455,-188.99"/>
<text text-anchor="middle" x="1439" y="-177.79" font-family="Times,serif" font-size="9.00">&#45;17</text>
</g>
<!-- &#45;18 -->
<g id="node18" class="node">
<title>&#45;18</title>
<polygon fill="lightgray" stroke="black" points="342,-110.76 310,-110.76 310,-92.76 342,-92.76 342,-110.76"/>
<text text-anchor="middle" x="326" y="-99.56" font-family="Times,serif" font-size="9.00">&#45;18</text>
</g>
<!-- &#45;18&#45;&gt;0 -->
<g id="edge12" class="edge">
<title>&#45;18&#45;&gt;0</title>
<path fill="none" stroke="red" stroke-width="0.19" d="M319.94,-92.73C314.95,-86.15 307.63,-76.65 301,-68.53 292.28,-57.84 282.29,-46.16 274.04,-36.65"/>
<polygon fill="red" stroke="red" stroke-width="0.19" points="276.51,-34.17 267.3,-28.93 271.24,-38.77 276.51,-34.17"/>
</g>
<!-- &#45;19 -->
<g id="node19" class="node">
<title>&#45;19</title>
<polygon fill="lightgray" stroke="black" points="1505,-188.99 1473,-188.99 1473,-170.99 1505,-170.99 1505,-188.99"/>
<text text-anchor="middle" x="1489" y="-177.79" font-family="Times,serif" font-size="9.00">&#45;19</text>
</g>
<!-- &#45;20 -->
<g id="node20" class="node">
<title>&#45;20</title>
<polygon fill="lightgray" stroke="black" points="1267,-188.99 1235,-188.99 1235,-170.99 1267,-170.99 1267,-188.99"/>
<text text-anchor="middle" x="1251" y="-177.79" font-family="Times,serif" font-size="9.00">&#45;20</text>
</g>
<!-- &#45;20&#45;&gt;3 -->
<g id="edge2" class="edge">
<title>&#45;20&#45;&gt;3</title>
<path fill="none" stroke="red" stroke-width="0.19" stroke-dasharray="1,5" d="M1234.72,-173.87C1216.05,-167.32 1185.38,-154.45 1165,-134.99 1140.39,-111.5 1149.84,-93.75 1127,-68.53 1112.84,-52.89 1093.13,-39.26 1077.91,-30"/>
<polygon fill="red" stroke="red" stroke-width="0.19" points="1079.49,-26.87 1069.1,-24.81 1075.94,-32.9 1079.49,-26.87"/>
</g>
<!-- 17628 -->
<g id="node50" class="node">
<title>17628</title>
<ellipse fill="white" stroke="black" cx="1357" cy="-101.76" rx="33.47" ry="33.47"/>
<text text-anchor="middle" x="1357" y="-99.56" font-family="Times,serif" font-size="9.00">17628</text>
</g>
<!-- &#45;20&#45;&gt;17628 -->
<g id="edge42" class="edge">
<title>&#45;20&#45;&gt;17628</title>
<path fill="none" stroke="green" stroke-width="0.3" d="M1263.4,-170.75C1276.39,-162.05 1297.33,-147.84 1315,-134.99 1317.6,-133.1 1320.28,-131.13 1322.96,-129.12"/>
<polygon fill="green" stroke="green" stroke-width="0.3" points="1325.07,-131.91 1330.95,-123.09 1320.86,-126.33 1325.07,-131.91"/>
</g>
<!-- &#45;21 -->
<g id="node21" class="node">
<title>&#45;21</title>
<polygon fill="lightgray" stroke="black" points="1555,-188.99 1523,-188.99 1523,-170.99 1555,-170.99 1555,-188.99"/>
<text text-anchor="middle" x="1539" y="-177.79" font-family="Times,serif" font-size="9.00">&#45;21</text>
</g>
<!-- &#45;22 -->
<g id="node22" class="node">
<title>&#45;22</title>
<polygon fill="lightgray" stroke="black" points="1206,-110.76 1174,-110.76 1174,-92.76 1206,-92.76 1206,-110.76"/>
<text text-anchor="middle" x="1190" y="-99.56" font-family="Times,serif" font-size="9.00">&#45;22</text>
</g>
<!-- &#45;22&#45;&gt;3 -->
<g id="edge19" class="edge">
<title>&#45;22&#45;&gt;3</title>
<path fill="none" stroke="green" stroke-width="0.15" stroke-dasharray="1,5" d="M1183.79,-92.55C1178.16,-85.51 1169.34,-75.45 1160,-68.53 1134.84,-49.88 1101.85,-35.09 1079.61,-26.27"/>
<polygon fill="green" stroke="green" stroke-width="0.15" points="1080.81,-22.98 1070.22,-22.65 1078.3,-29.52 1080.81,-22.98"/>
</g>
<!-- &#45;23 -->
<g id="node23" class="node">
<title>&#45;23</title>
<polygon fill="lightgray" stroke="black" points="1605,-188.99 1573,-188.99 1573,-170.99 1605,-170.99 1605,-188.99"/>
<text text-anchor="middle" x="1589" y="-177.79" font-family="Times,serif" font-size="9.00">&#45;23</text>
</g>
<!-- &#45;24 -->
<g id="node24" class="node">
<title>&#45;24</title>
<polygon fill="lightgray" stroke="black" points="1024,-110.76 992,-110.76 992,-92.76 1024,-92.76 1024,-110.76"/>
<text text-anchor="middle" x="1008" y="-99.56" font-family="Times,serif" font-size="9.00">&#45;24</text>
</g>
<!-- &#45;24&#45;&gt;2 -->
<g id="edge21" class="edge">
<title>&#45;24&#45;&gt;2</title>
<path fill="none" stroke="green" stroke-width="0.71" stroke-dasharray="1,5" d="M1003.7,-92.72C999.39,-85.39 992.1,-74.79 983,-68.53 938.6,-37.96 875.47,-25.2 840.29,-20.21"/>
<polygon fill="green" stroke="green" stroke-width="0.71" points="840.69,-16.73 830.31,-18.89 839.77,-23.67 840.69,-16.73"/>
</g>
<!-- &#45;24&#45;&gt;3 -->
<g id="edge20" class="edge">
<title>&#45;24&#45;&gt;3</title>
<path fill="none" stroke="red" stroke-width="0.21" stroke-dasharray="1,5" d="M1012.51,-92.75C1019.29,-80.7 1032.39,-57.44 1042.25,-39.91"/>
<polygon fill="red" stroke="red" stroke-width="0.21" points="1045.49,-41.29 1047.34,-30.86 1039.39,-37.86 1045.49,-41.29"/>
</g>
<!-- &#45;25 -->
<g id="node25" class="node">
<title>&#45;25</title>
<polygon fill="lightgray" stroke="black" points="392,-110.76 360,-110.76 360,-92.76 392,-92.76 392,-110.76"/>
<text text-anchor="middle" x="376" y="-99.56" font-family="Times,serif" font-size="9.00">&#45;25</text>
</g>
<!-- &#45;25&#45;&gt;0 -->
<g id="edge14" class="edge">
<title>&#45;25&#45;&gt;0</title>
<path fill="none" stroke="green" stroke-width="1.38" d="M371.03,-92.58C366.47,-85.56 359.2,-75.5 351,-68.53 329.81,-50.49 301.26,-36.02 281.2,-27.11"/>
<polygon fill="green" stroke="green" stroke-width="1.38" points="282.41,-23.82 271.84,-23.08 279.64,-30.25 282.41,-23.82"/>
</g>
<!-- &#45;26 -->
<g id="node26" class="node">
<title>&#45;26</title>
<polygon fill="lightgray" stroke="black" points="1655,-188.99 1623,-188.99 1623,-170.99 1655,-170.99 1655,-188.99"/>
<text text-anchor="middle" x="1639" y="-177.79" font-family="Times,serif" font-size="9.00">&#45;26</text>
</g>
<!-- &#45;27 -->
<g id="node27" class="node">
<title>&#45;27</title>
<polygon fill="lightgray" stroke="black" points="1256,-110.76 1224,-110.76 1224,-92.76 1256,-92.76 1256,-110.76"/>
<text text-anchor="middle" x="1240" y="-99.56" font-family="Times,serif" font-size="9.00">&#45;27</text>
</g>
<!-- &#45;27&#45;&gt;3 -->
<g id="edge11" class="edge">
<title>&#45;27&#45;&gt;3</title>
<path fill="none" stroke="red" stroke-width="0.22" d="M1235.68,-92.75C1231.36,-85.45 1224.05,-74.86 1215,-68.53 1173.6,-39.55 1114.95,-26.32 1081.37,-20.79"/>
<polygon fill="red" stroke="red" stroke-width="0.22" points="1081.81,-17.31 1071.4,-19.25 1080.75,-24.23 1081.81,-17.31"/>
</g>
<!-- &#45;28 -->
<g id="node28" class="node">
<title>&#45;28</title>
<polygon fill="lightgray" stroke="black" points="32,-110.76 0,-110.76 0,-92.76 32,-92.76 32,-110.76"/>
<text text-anchor="middle" x="16" y="-99.56" font-family="Times,serif" font-size="9.00">&#45;28</text>
</g>
<!-- &#45;28&#45;&gt;0 -->
<g id="edge37" class="edge">
<title>&#45;28&#45;&gt;0</title>
<path fill="none" stroke="green" stroke-width="0.35" stroke-dasharray="1,5" d="M20.21,-92.59C24.46,-85.17 31.71,-74.51 41,-68.53 101.07,-29.85 187.39,-20.31 230.46,-17.98"/>
<polygon fill="green" stroke="green" stroke-width="0.35" points="230.84,-21.47 240.68,-17.53 230.53,-14.48 230.84,-21.47"/>
</g>
<!-- &#45;29 -->
<g id="node29" class="node">
<title>&#45;29</title>
<polygon fill="lightgray" stroke="black" points="82,-110.76 50,-110.76 50,-92.76 82,-92.76 82,-110.76"/>
<text text-anchor="middle" x="66" y="-99.56" font-family="Times,serif" font-size="9.00">&#45;29</text>
</g>
<!-- &#45;29&#45;&gt;0 -->
<g id="edge25" class="edge">
<title>&#45;29&#45;&gt;0</title>
<path fill="none" stroke="red" stroke-width="0.12" stroke-dasharray="1,5" d="M71.76,-92.49C77.22,-85.21 86.06,-74.83 96,-68.53 138.93,-41.33 197.49,-27.46 230.87,-21.34"/>
<polygon fill="red" stroke="red" stroke-width="0.12" points="231.51,-24.78 240.76,-19.62 230.31,-17.89 231.51,-24.78"/>
</g>
<!-- &#45;30 -->
<g id="node30" class="node">
<title>&#45;30</title>
<polygon fill="lightgray" stroke="black" points="1705,-188.99 1673,-188.99 1673,-170.99 1705,-170.99 1705,-188.99"/>
<text text-anchor="middle" x="1689" y="-177.79" font-family="Times,serif" font-size="9.00">&#45;30</text>
</g>
<!-- &#45;31 -->
<g id="node31" class="node">
<title>&#45;31</title>
<polygon fill="lightgray" stroke="black" points="1306,-110.76 1274,-110.76 1274,-92.76 1306,-92.76 1306,-110.76"/>
<text text-anchor="middle" x="1290" y="-99.56" font-family="Times,serif" font-size="9.00">&#45;31</text>
</g>
<!-- &#45;31&#45;&gt;3 -->
<g id="edge23" class="edge">
<title>&#45;31&#45;&gt;3</title>
<path fill="none" stroke="green" stroke-width="0.11" stroke-dasharray="1,5" d="M1285.78,-92.6C1281.53,-85.19 1274.27,-74.54 1265,-68.53 1206.92,-30.87 1123.52,-20.86 1081.44,-18.21"/>
<polygon fill="green" stroke="green" stroke-width="0.11" points="1081.6,-14.72 1071.43,-17.67 1081.23,-21.71 1081.6,-14.72"/>
</g>
<!-- &#45;32 -->
<g id="node32" class="node">
<title>&#45;32</title>
<polygon fill="lightgray" stroke="black" points="1755,-188.99 1723,-188.99 1723,-170.99 1755,-170.99 1755,-188.99"/>
<text text-anchor="middle" x="1739" y="-177.79" font-family="Times,serif" font-size="9.00">&#45;32</text>
</g>
<!-- &#45;33 -->
<g id="node33" class="node">
<title>&#45;33</title>
<polygon fill="lightgray" stroke="black" points="1805,-188.99 1773,-188.99 1773,-170.99 1805,-170.99 1805,-188.99"/>
<text text-anchor="middle" x="1789" y="-177.79" font-family="Times,serif" font-size="9.00">&#45;33</text>
</g>
<!-- &#45;34 -->
<g id="node34" class="node">
<title>&#45;34</title>
<polygon fill="lightgray" stroke="black" points="1855,-188.99 1823,-188.99 1823,-170.99 1855,-170.99 1855,-188.99"/>
<text text-anchor="middle" x="1839" y="-177.79" font-family="Times,serif" font-size="9.00">&#45;34</text>
</g>
<!-- &#45;35 -->
<g id="node35" class="node">
<title>&#45;35</title>
<polygon fill="lightgray" stroke="black" points="156,-188.99 124,-188.99 124,-170.99 156,-170.99 156,-188.99"/>
<text text-anchor="middle" x="140" y="-177.79" font-family="Times,serif" font-size="9.00">&#45;35</text>
</g>
<!-- &#45;35&#45;&gt;0 -->
<g id="edge18" class="edge">
<title>&#45;35&#45;&gt;0</title>
<path fill="none" stroke="red" stroke-width="0.24" d="M135.96,-170.92C126.84,-151.41 107.07,-100.93 129,-68.53 151.58,-35.16 199.81,-23.51 230.19,-19.44"/>
<polygon fill="red" stroke="red" stroke-width="0.24" points="230.96,-22.88 240.5,-18.26 230.16,-15.92 230.96,-22.88"/>
</g>
<!-- 17513 -->
<g id="node49" class="node">
<title>17513</title>
<ellipse fill="white" stroke="black" cx="171" cy="-101.76" rx="33.47" ry="33.47"/>
<text text-anchor="middle" x="171" y="-99.56" font-family="Times,serif" font-size="9.00">17513</text>
</g>
<!-- &#45;35&#45;&gt;17513 -->
<g id="edge39" class="edge">
<title>&#45;35&#45;&gt;17513</title>
<path fill="none" stroke="green" stroke-width="0.23" d="M143.32,-170.84C146.17,-163.83 150.51,-153.16 154.91,-142.34"/>
<polygon fill="green" stroke="green" stroke-width="0.23" points="158.23,-143.46 158.75,-132.88 151.74,-140.82 158.23,-143.46"/>
</g>
<!-- &#45;36 -->
<g id="node36" class="node">
<title>&#45;36</title>
<polygon fill="lightgray" stroke="black" points="1905,-188.99 1873,-188.99 1873,-170.99 1905,-170.99 1905,-188.99"/>
<text text-anchor="middle" x="1889" y="-177.79" font-family="Times,serif" font-size="9.00">&#45;36</text>
</g>
<!-- &#45;37 -->
<g id="node37" class="node">
<title>&#45;37</title>
<polygon fill="lightgray" stroke="black" points="686,-110.76 654,-110.76 654,-92.76 686,-92.76 686,-110.76"/>
<text text-anchor="middle" x="670" y="-99.56" font-family="Times,serif" font-size="9.00">&#45;37</text>
</g>
<!-- &#45;37&#45;&gt;0 -->
<g id="edge30" class="edge">
<title>&#45;37&#45;&gt;0</title>
<path fill="none" stroke="red" stroke-width="0.16" d="M666.08,-92.66C661.95,-85.07 654.7,-74.1 645,-68.53 583.08,-32.97 361.33,-21.25 283.91,-18.19"/>
<polygon fill="red" stroke="red" stroke-width="0.16" points="283.69,-14.68 273.57,-17.8 283.43,-21.67 283.69,-14.68"/>
</g>
<!-- &#45;37&#45;&gt;1 -->
<g id="edge24" class="edge">
<title>&#45;37&#45;&gt;1</title>
<path fill="none" stroke="red" stroke-width="0.14" d="M667.6,-92.75C664.14,-81.19 657.59,-59.32 652.43,-42.09"/>
<polygon fill="red" stroke="red" stroke-width="0.14" points="655.66,-40.66 649.44,-32.09 648.95,-42.67 655.66,-40.66"/>
</g>
<!-- &#45;37&#45;&gt;2 -->
<g id="edge8" class="edge">
<title>&#45;37&#45;&gt;2</title>
<path fill="none" stroke="green" stroke-width="2.32" d="M674.64,-92.67C679.08,-85.51 686.38,-75.2 695,-68.53 723.61,-46.37 763.24,-31.82 788.75,-24.06"/>
<polygon fill="green" stroke="green" stroke-width="2.32" points="789.81,-27.4 798.43,-21.24 787.85,-20.68 789.81,-27.4"/>
</g>
<!-- &#45;37&#45;&gt;3 -->
<g id="edge9" class="edge">
<title>&#45;37&#45;&gt;3</title>
<path fill="none" stroke="green" stroke-width="0.18" stroke-dasharray="1,5" d="M673.93,-92.68C678.07,-85.11 685.32,-74.15 695,-68.53 751.98,-35.42 955.47,-22.22 1028.59,-18.47"/>
<polygon fill="green" stroke="green" stroke-width="0.18" points="1028.97,-21.96 1038.79,-17.97 1028.63,-14.97 1028.97,-21.96"/>
</g>
<!-- &#45;38 -->
<g id="node38" class="node">
<title>&#45;38</title>
<polygon fill="lightgray" stroke="black" points="830,-110.76 798,-110.76 798,-92.76 830,-92.76 830,-110.76"/>
<text text-anchor="middle" x="814" y="-99.56" font-family="Times,serif" font-size="9.00">&#45;38</text>
</g>
<!-- &#45;38&#45;&gt;1 -->
<g id="edge7" class="edge">
<title>&#45;38&#45;&gt;1</title>
<path fill="none" stroke="green" stroke-width="0.13" stroke-dasharray="1,5" d="M809.46,-92.53C805.09,-85.29 797.83,-74.92 789,-68.53 752.66,-42.22 701.51,-28.3 670.97,-21.88"/>
<polygon fill="green" stroke="green" stroke-width="0.13" points="671.57,-18.43 661.08,-19.92 670.2,-25.3 671.57,-18.43"/>
</g>
<!-- &#45;38&#45;&gt;2 -->
<g id="edge22" class="edge">
<title>&#45;38&#45;&gt;2</title>
<path fill="none" stroke="red" stroke-width="0.2" d="M814,-92.75C814,-81.44 814,-60.24 814,-43.18"/>
<polygon fill="red" stroke="red" stroke-width="0.2" points="817.5,-42.71 814,-32.71 810.5,-42.71 817.5,-42.71"/>
</g>
<!-- &#45;38&#45;&gt;3 -->
<g id="edge38" class="edge">
<title>&#45;38&#45;&gt;3</title>
<path fill="none" stroke="green" stroke-width="0.19" d="M818.21,-92.59C822.46,-85.17 829.71,-74.51 839,-68.53 899.07,-29.85 985.39,-20.31 1028.46,-17.98"/>
<polygon fill="green" stroke="green" stroke-width="0.19" points="1028.84,-21.47 1038.68,-17.53 1028.53,-14.48 1028.84,-21.47"/>
</g>
<!-- &#45;39 -->
<g id="node39" class="node">
<title>&#45;39</title>
<polygon fill="lightgray" stroke="black" points="1955,-188.99 1923,-188.99 1923,-170.99 1955,-170.99 1955,-188.99"/>
<text text-anchor="middle" x="1939" y="-177.79" font-family="Times,serif" font-size="9.00">&#45;39</text>
</g>
<!-- &#45;40 -->
<g id="node40" class="node">
<title>&#45;40</title>
<polygon fill="lightgray" stroke="black" points="880,-110.76 848,-110.76 848,-92.76 880,-92.76 880,-110.76"/>
<text text-anchor="middle" x="864" y="-99.56" font-family="Times,serif" font-size="9.00">&#45;40</text>
</g>
<!-- &#45;40&#45;&gt;1 -->
<g id="edge44" class="edge">
<title>&#45;40&#45;&gt;1</title>
<path fill="none" stroke="red" stroke-width="0.25" d="M859.75,-92.64C855.48,-85.26 848.21,-74.63 839,-68.53 786.29,-33.64 710.85,-22.45 671.37,-18.9"/>
<polygon fill="red" stroke="red" stroke-width="0.25" points="671.49,-15.4 661.24,-18.08 670.93,-22.37 671.49,-15.4"/>
</g>
<!-- &#45;40&#45;&gt;2 -->
<g id="edge28" class="edge">
<title>&#45;40&#45;&gt;2</title>
<path fill="none" stroke="green" stroke-width="0.52" stroke-dasharray="1,5" d="M859.21,-92.75C851.95,-80.63 837.9,-57.17 827.38,-39.61"/>
<polygon fill="green" stroke="green" stroke-width="0.52" points="830.1,-37.34 821.96,-30.56 824.1,-40.94 830.1,-37.34"/>
</g>
<!-- &#45;40&#45;&gt;3 -->
<g id="edge27" class="edge">
<title>&#45;40&#45;&gt;3</title>
<path fill="none" stroke="red" stroke-width="0.31" stroke-dasharray="1,5" d="M868.31,-92.73C872.62,-85.41 879.92,-74.81 889,-68.53 932.2,-38.64 993.44,-25.69 1028.19,-20.47"/>
<polygon fill="red" stroke="red" stroke-width="0.31" points="1029.06,-23.88 1038.49,-19.03 1028.1,-16.95 1029.06,-23.88"/>
</g>
<!-- &#45;41 -->
<g id="node41" class="node">
<title>&#45;41</title>
<polygon fill="lightgray" stroke="black" points="2005,-188.99 1973,-188.99 1973,-170.99 2005,-170.99 2005,-188.99"/>
<text text-anchor="middle" x="1989" y="-177.79" font-family="Times,serif" font-size="9.00">&#45;41</text>
</g>
<!-- &#45;42 -->
<g id="node42" class="node">
<title>&#45;42</title>
<polygon fill="lightgray" stroke="black" points="536,-110.76 504,-110.76 504,-92.76 536,-92.76 536,-110.76"/>
<text text-anchor="middle" x="520" y="-99.56" font-family="Times,serif" font-size="9.00">&#45;42</text>
</g>
<!-- &#45;42&#45;&gt;1 -->
<g id="edge5" class="edge">
<title>&#45;42&#45;&gt;1</title>
<path fill="none" stroke="green" stroke-width="0.15" stroke-dasharray="1,5" d="M524.92,-92.53C529.45,-85.47 536.71,-75.4 545,-68.53 567.95,-49.5 599.13,-34.92 620.54,-26.26"/>
<polygon fill="green" stroke="green" stroke-width="0.15" points="621.86,-29.5 629.9,-22.6 619.31,-22.98 621.86,-29.5"/>
</g>
<!-- &#45;43 -->
<g id="node43" class="node">
<title>&#45;43</title>
<polygon fill="lightgray" stroke="black" points="2055,-188.99 2023,-188.99 2023,-170.99 2055,-170.99 2055,-188.99"/>
<text text-anchor="middle" x="2039" y="-177.79" font-family="Times,serif" font-size="9.00">&#45;43</text>
</g>
<!-- &#45;44 -->
<g id="node44" class="node">
<title>&#45;44</title>
<polygon fill="lightgray" stroke="black" points="2105,-188.99 2073,-188.99 2073,-170.99 2105,-170.99 2105,-188.99"/>
<text text-anchor="middle" x="2089" y="-177.79" font-family="Times,serif" font-size="9.00">&#45;44</text>
</g>
<!-- 17513&#45;&gt;0 -->
<g id="edge40" class="edge">
<title>17513&#45;&gt;0</title>
<path fill="none" stroke="green" stroke-width="0.14" d="M194.5,-77.94C208.17,-64.67 225.18,-48.15 238.01,-35.71"/>
<polygon fill="green" stroke="green" stroke-width="0.14" points="240.64,-38.02 245.38,-28.55 235.77,-33 240.64,-38.02"/>
</g>
<!-- 17628&#45;&gt;3 -->
<g id="edge43" class="edge">
<title>17628&#45;&gt;3</title>
<path fill="none" stroke="red" stroke-width="0.58" d="M1332.44,-78.97C1326.99,-75 1321.03,-71.25 1315,-68.53 1235.08,-32.39 1129.99,-21.65 1081.55,-18.52"/>
<polygon fill="red" stroke="red" stroke-width="0.58" points="1081.49,-15.01 1071.3,-17.91 1081.08,-21.99 1081.49,-15.01"/>
</g>
</g>
</svg>
