<?xml version="1.0" encoding="UTF-8" standalone="no"?>
<!DOCTYPE svg PUBLIC "-//W3C//DTD SVG 1.1//EN"
 "http://www.w3.org/Graphics/SVG/1.1/DTD/svg11.dtd">
<!-- Generated by graphviz version 2.38.0 (20140413.2041)
 -->
<!-- Title: %3 Pages: 1 -->
<svg width="2124pt" height="164pt"
 viewBox="0.00 0.00 2123.62 164.47" xmlns="http://www.w3.org/2000/svg" xmlns:xlink="http://www.w3.org/1999/xlink">
<g id="graph0" class="graph" transform="scale(1 1) rotate(0) translate(4 160.468)">
<title>%3</title>
<polygon fill="white" stroke="none" points="-4,4 -4,-160.468 2119.62,-160.468 2119.62,4 -4,4"/>
<!-- &#45;1 -->
<g id="node1" class="node"><title>&#45;1</title>
<polygon fill="lightgray" stroke="black" points="1609.23,-93.0833 1585.23,-93.0833 1585.23,-75.0833 1609.23,-75.0833 1609.23,-93.0833"/>
<text text-anchor="middle" x="1597.23" y="-81.8833" font-family="Times New Roman,serif" font-size="9.00">&#45;1</text>
</g>
<!-- 0 -->
<g id="node41" class="node"><title>0</title>
<ellipse fill="lightblue" stroke="black" cx="1011.23" cy="-14.8492" rx="14.7" ry="14.7"/>
<text text-anchor="middle" x="1011.23" y="-12.6492" font-family="Times New Roman,serif" font-size="9.00">0</text>
</g>
<!-- &#45;1&#45;&gt;0 -->
<g id="edge1" class="edge"><title>&#45;1&#45;&gt;0</title>
<path fill="none" stroke="green" stroke-width="0.170063" d="M1589.83,-75.0013C1586.12,-71.4978 1581.33,-67.7372 1576.23,-65.6985 1469.09,-22.8514 1171.8,-50.1261 1058.23,-29.6985 1050.49,-28.3064 1042.21,-26.114 1034.79,-23.8807"/>
<polygon fill="green" stroke="green" stroke-width="0.170063" points="1035.62,-20.469 1025.02,-20.7755 1033.49,-27.1401 1035.62,-20.469"/>
</g>
<!-- 1 -->
<g id="node42" class="node"><title>1</title>
<ellipse fill="lightblue" stroke="black" cx="963.231" cy="-14.8492" rx="14.7" ry="14.7"/>
<text text-anchor="middle" x="963.231" y="-12.6492" font-family="Times New Roman,serif" font-size="9.00">1</text>
</g>
<!-- &#45;1&#45;&gt;1 -->
<g id="edge2" class="edge"><title>&#45;1&#45;&gt;1</title>
<path fill="none" stroke="green" stroke-width="0.394097" d="M1589.84,-74.9822C1586.13,-71.4745 1581.34,-67.7159 1576.23,-65.6985 1454.27,-17.5133 1112.8,-67.4739 987.231,-29.6985 986.171,-29.3798 985.108,-29.0065 984.051,-28.5911"/>
<polygon fill="green" stroke="green" stroke-width="0.394097" points="985.453,-25.379 974.942,-24.0485 982.329,-31.6433 985.453,-25.379"/>
</g>
<!-- 2 -->
<g id="node43" class="node"><title>2</title>
<ellipse fill="lightblue" stroke="black" cx="1130.23" cy="-14.8492" rx="14.7" ry="14.7"/>
<text text-anchor="middle" x="1130.23" y="-12.6492" font-family="Times New Roman,serif" font-size="9.00">2</text>
</g>
<!-- &#45;1&#45;&gt;2 -->
<g id="edge3" class="edge"><title>&#45;1&#45;&gt;2</title>
<path fill="none" stroke="red" stroke-width="0.181413" d="M1589.4,-74.7355C1585.74,-71.3561 1581.11,-67.7696 1576.23,-65.6985 1499.26,-33.03 1237.85,-20.1 1155.37,-16.7744"/>
<polygon fill="red" stroke="red" stroke-width="0.181413" points="1155.3,-13.2689 1145.17,-16.3757 1155.03,-20.2636 1155.3,-13.2689"/>
</g>
<!-- 3 -->
<g id="node44" class="node"><title>3</title>
<ellipse fill="lightblue" stroke="black" cx="1082.23" cy="-14.8492" rx="14.7" ry="14.7"/>
<text text-anchor="middle" x="1082.23" y="-12.6492" font-family="Times New Roman,serif" font-size="9.00">3</text>
</g>
<!-- &#45;1&#45;&gt;3 -->
<g id="edge4" class="edge"><title>&#45;1&#45;&gt;3</title>
<path fill="none" stroke="green" stroke-width="0.217967" d="M1589.83,-75.0174C1586.11,-71.5175 1581.32,-67.7552 1576.23,-65.6985 1381.98,12.7812 1306.38,-91.5923 1106.23,-29.6985 1105.17,-29.3716 1104.11,-28.9917 1103.06,-28.5709"/>
<polygon fill="green" stroke="green" stroke-width="0.217967" points="1104.46,-25.36 1093.95,-24.0083 1101.33,-31.618 1104.46,-25.36"/>
</g>
<!-- &#45;2 -->
<g id="node2" class="node"><title>&#45;2</title>
<polygon fill="lightgray" stroke="black" points="1651.23,-93.0833 1627.23,-93.0833 1627.23,-75.0833 1651.23,-75.0833 1651.23,-93.0833"/>
<text text-anchor="middle" x="1639.23" y="-81.8833" font-family="Times New Roman,serif" font-size="9.00">&#45;2</text>
</g>
<!-- &#45;2&#45;&gt;0 -->
<g id="edge5" class="edge"><title>&#45;2&#45;&gt;0</title>
<path fill="none" stroke="green" stroke-width="0.168168" d="M1631.84,-74.9894C1628.12,-71.4833 1623.33,-67.724 1618.23,-65.6985 1502.33,-19.694 1181.02,-51.4562 1058.23,-29.6985 1050.49,-28.3265 1042.21,-26.1396 1034.79,-23.9053"/>
<polygon fill="green" stroke="green" stroke-width="0.168168" points="1035.61,-20.4938 1025.02,-20.7949 1033.49,-27.1639 1035.61,-20.4938"/>
</g>
<!-- &#45;2&#45;&gt;1 -->
<g id="edge6" class="edge"><title>&#45;2&#45;&gt;1</title>
<path fill="none" stroke="green" stroke-width="0.210327" d="M1631.84,-74.9729C1628.13,-71.4632 1623.34,-67.7056 1618.23,-65.6985 1487.5,-14.3546 1121.81,-69.8851 987.231,-29.6985 986.17,-29.3819 985.107,-29.0104 984.049,-28.5964"/>
<polygon fill="green" stroke="green" stroke-width="0.210327" points="985.45,-25.384 974.938,-24.059 982.329,-31.65 985.45,-25.384"/>
</g>
<!-- &#45;2&#45;&gt;2 -->
<g id="edge7" class="edge"><title>&#45;2&#45;&gt;2</title>
<path fill="none" stroke="red" stroke-width="0.360879" d="M1631.8,-75.0751C1628.08,-71.5879 1623.29,-67.8195 1618.23,-65.6985 1533.11,-30.0456 1242.35,-19.0316 1155.15,-16.4915"/>
<polygon fill="red" stroke="red" stroke-width="0.360879" points="1155.2,-12.9918 1145.11,-16.2108 1155.01,-19.989 1155.2,-12.9918"/>
</g>
<!-- &#45;2&#45;&gt;3 -->
<g id="edge8" class="edge"><title>&#45;2&#45;&gt;3</title>
<path fill="none" stroke="green" stroke-width="0.146856" d="M1631.83,-75.0031C1628.12,-71.5001 1623.33,-67.7393 1618.23,-65.6985 1406.46,19.0937 1324.37,-96.411 1106.23,-29.6985 1105.17,-29.3749 1104.11,-28.9977 1103.05,-28.5791"/>
<polygon fill="green" stroke="green" stroke-width="0.146856" points="1104.46,-25.3677 1093.95,-24.0246 1101.33,-31.6283 1104.46,-25.3677"/>
</g>
<!-- &#45;3 -->
<g id="node3" class="node"><title>&#45;3</title>
<polygon fill="lightgray" stroke="black" points="2025.23,-156.468 2001.23,-156.468 2001.23,-138.468 2025.23,-138.468 2025.23,-156.468"/>
<text text-anchor="middle" x="2013.23" y="-145.268" font-family="Times New Roman,serif" font-size="9.00">&#45;3</text>
</g>
<!-- &#45;3&#45;&gt;0 -->
<g id="edge9" class="edge"><title>&#45;3&#45;&gt;0</title>
<path fill="none" stroke="red" stroke-width="0.348391" d="M2001.21,-146.415C1844.33,-145.697 204.294,-137.355 170.231,-102.468 158.814,-90.7754 158.932,-77.5056 170.231,-65.6985 233.052,-0.0476341 899.997,-55.1332 987.231,-29.6985 988.293,-29.3888 989.358,-29.0229 990.417,-28.6135"/>
<polygon fill="red" stroke="red" stroke-width="0.348391" points="992.129,-31.6713 999.533,-24.0929 989.019,-25.4 992.129,-31.6713"/>
</g>
<!-- &#45;3&#45;&gt;1 -->
<g id="edge10" class="edge"><title>&#45;3&#45;&gt;1</title>
<path fill="none" stroke="red" stroke-width="0.290227" d="M2001.13,-146.417C1843.23,-145.718 192.519,-137.579 158.231,-102.468 146.813,-90.7763 147.038,-77.6058 158.231,-65.6985 185.632,-36.5478 805.858,-19.7121 938.436,-16.4393"/>
<polygon fill="red" stroke="red" stroke-width="0.290227" points="938.525,-19.9383 948.437,-16.1955 938.355,-12.9404 938.525,-19.9383"/>
</g>
<!-- &#45;3&#45;&gt;2 -->
<g id="edge11" class="edge"><title>&#45;3&#45;&gt;2</title>
<path fill="none" stroke="red" stroke-width="0.141673" d="M2018.63,-138.08C2028.38,-121.798 2046.2,-85.7555 2027.23,-65.6985 1996.45,-33.1547 1298.28,-18.8715 1155.57,-16.2868"/>
<polygon fill="red" stroke="red" stroke-width="0.141673" points="1155.28,-12.7812 1145.22,-16.1024 1155.16,-19.7801 1155.28,-12.7812"/>
</g>
<!-- &#45;3&#45;&gt;3 -->
<g id="edge12" class="edge"><title>&#45;3&#45;&gt;3</title>
<path fill="none" stroke="green" stroke-width="0.235261" d="M2009.91,-138.395C2002.39,-121.33 1982.29,-81.8411 1951.23,-65.6985 1867.85,-22.3577 1196.47,-55.9374 1106.23,-29.6985 1105.17,-29.3895 1104.1,-29.0243 1103.04,-28.6154"/>
<polygon fill="green" stroke="green" stroke-width="0.235261" points="1104.44,-25.4018 1093.93,-24.0967 1101.33,-31.6737 1104.44,-25.4018"/>
</g>
<!-- 10 -->
<g id="node45" class="node"><title>10</title>
<ellipse fill="white" stroke="black" cx="2097.23" cy="-84.0833" rx="18.2703" ry="18.2703"/>
<text text-anchor="middle" x="2097.23" y="-81.8833" font-family="Times New Roman,serif" font-size="9.00">10</text>
</g>
<!-- &#45;3&#45;&gt;10 -->
<g id="edge160" class="edge"><title>&#45;3&#45;&gt;10</title>
<path fill="none" stroke="green" stroke-width="0.3" d="M2024.21,-138.443C2036.89,-129.175 2058.1,-113.676 2074.4,-101.764"/>
<polygon fill="green" stroke="green" stroke-width="0.3" points="2076.86,-104.303 2082.87,-95.5768 2072.73,-98.6512 2076.86,-104.303"/>
</g>
<!-- &#45;4 -->
<g id="node4" class="node"><title>&#45;4</title>
<polygon fill="lightgray" stroke="black" points="1693.23,-93.0833 1669.23,-93.0833 1669.23,-75.0833 1693.23,-75.0833 1693.23,-93.0833"/>
<text text-anchor="middle" x="1681.23" y="-81.8833" font-family="Times New Roman,serif" font-size="9.00">&#45;4</text>
</g>
<!-- &#45;4&#45;&gt;0 -->
<g id="edge13" class="edge"><title>&#45;4&#45;&gt;0</title>
<path fill="none" stroke="green" stroke-width="0.168798" d="M1673.84,-74.9791C1670.13,-71.4709 1665.34,-67.7126 1660.23,-65.6985 1535.56,-16.5357 1190.24,-52.7867 1058.23,-29.6985 1050.48,-28.3438 1042.2,-26.1618 1034.79,-23.9264"/>
<polygon fill="green" stroke="green" stroke-width="0.168798" points="1035.61,-20.5152 1025.02,-20.8117 1033.48,-27.1843 1035.61,-20.5152"/>
</g>
<!-- &#45;4&#45;&gt;1 -->
<g id="edge14" class="edge"><title>&#45;4&#45;&gt;1</title>
<path fill="none" stroke="green" stroke-width="0.291082" d="M1673.85,-74.9647C1670.14,-71.4533 1665.34,-67.6965 1660.23,-65.6985 1520.73,-11.1954 1130.81,-72.2968 987.231,-29.6985 986.17,-29.3838 985.106,-29.0138 984.048,-28.6011"/>
<polygon fill="green" stroke="green" stroke-width="0.291082" points="985.448,-25.3884 974.936,-24.0683 982.33,-31.6558 985.448,-25.3884"/>
</g>
<!-- &#45;4&#45;&gt;2 -->
<g id="edge15" class="edge"><title>&#45;4&#45;&gt;2</title>
<path fill="none" stroke="green" stroke-width="0.322372" d="M1673.81,-75.0569C1670.09,-71.5656 1665.3,-67.7992 1660.23,-65.6985 1567.1,-27.1303 1247.88,-18.0959 1155.48,-16.2671"/>
<polygon fill="green" stroke="green" stroke-width="0.322372" points="1155.43,-12.7656 1145.36,-16.0782 1155.3,-19.7644 1155.43,-12.7656"/>
</g>
<!-- &#45;4&#45;&gt;3 -->
<g id="edge16" class="edge"><title>&#45;4&#45;&gt;3</title>
<path fill="none" stroke="green" stroke-width="0.423675" d="M1673.84,-74.991C1670.12,-71.4853 1665.33,-67.7257 1660.23,-65.6985 1430.93,25.4083 1342.38,-101.231 1106.23,-29.6985 1105.17,-29.3777 1104.11,-29.0028 1103.05,-28.586"/>
<polygon fill="green" stroke="green" stroke-width="0.423675" points="1104.45,-25.3742 1093.94,-24.0384 1101.33,-31.637 1104.45,-25.3742"/>
</g>
<!-- &#45;5 -->
<g id="node5" class="node"><title>&#45;5</title>
<polygon fill="lightgray" stroke="black" points="1735.23,-93.0833 1711.23,-93.0833 1711.23,-75.0833 1735.23,-75.0833 1735.23,-93.0833"/>
<text text-anchor="middle" x="1723.23" y="-81.8833" font-family="Times New Roman,serif" font-size="9.00">&#45;5</text>
</g>
<!-- &#45;5&#45;&gt;0 -->
<g id="edge17" class="edge"><title>&#45;5&#45;&gt;0</title>
<path fill="none" stroke="green" stroke-width="0.76217" d="M1715.84,-74.9702C1712.13,-71.46 1707.34,-67.7026 1702.23,-65.6985 1568.79,-13.3768 1199.47,-54.1175 1058.23,-29.6985 1050.48,-28.3589 1042.2,-26.181 1034.78,-23.9449"/>
<polygon fill="green" stroke="green" stroke-width="0.76217" points="1035.61,-20.5337 1025.02,-20.8263 1033.48,-27.2021 1035.61,-20.5337"/>
</g>
<!-- &#45;5&#45;&gt;1 -->
<g id="edge18" class="edge"><title>&#45;5&#45;&gt;1</title>
<path fill="none" stroke="green" stroke-width="0.137102" d="M1715.85,-74.9575C1712.14,-71.4445 1707.35,-67.6885 1702.23,-65.6985 1553.96,-8.03567 1139.82,-74.7089 987.231,-29.6985 986.169,-29.3854 985.105,-29.0169 984.047,-28.6053"/>
<polygon fill="green" stroke="green" stroke-width="0.137102" points="985.446,-25.3922 974.933,-24.0765 982.331,-31.661 985.446,-25.3922"/>
</g>
<!-- &#45;5&#45;&gt;2 -->
<g id="edge19" class="edge"><title>&#45;5&#45;&gt;2</title>
<path fill="none" stroke="red" stroke-width="0.224482" d="M1715.82,-75.0413C1712.1,-71.5466 1707.31,-67.7818 1702.23,-65.6985 1600.88,-24.1325 1251.96,-17.1953 1155.26,-16.0643"/>
<polygon fill="red" stroke="red" stroke-width="0.224482" points="1155.26,-12.5643 1145.23,-15.9578 1155.19,-19.5639 1155.26,-12.5643"/>
</g>
<!-- &#45;5&#45;&gt;3 -->
<g id="edge20" class="edge"><title>&#45;5&#45;&gt;3</title>
<path fill="none" stroke="green" stroke-width="0.184798" d="M1715.84,-74.9805C1712.13,-71.4725 1707.34,-67.7141 1702.23,-65.6985 1578.81,-16.9869 1233.31,-67.8757 1106.23,-29.6985 1105.17,-29.3801 1104.11,-29.0072 1103.05,-28.592"/>
<polygon fill="green" stroke="green" stroke-width="0.184798" points="1104.45,-25.3798 1093.94,-24.0503 1101.33,-31.6445 1104.45,-25.3798"/>
</g>
<!-- &#45;6 -->
<g id="node6" class="node"><title>&#45;6</title>
<polygon fill="lightgray" stroke="black" points="1777.23,-93.0833 1753.23,-93.0833 1753.23,-75.0833 1777.23,-75.0833 1777.23,-93.0833"/>
<text text-anchor="middle" x="1765.23" y="-81.8833" font-family="Times New Roman,serif" font-size="9.00">&#45;6</text>
</g>
<!-- &#45;6&#45;&gt;0 -->
<g id="edge21" class="edge"><title>&#45;6&#45;&gt;0</title>
<path fill="none" stroke="red" stroke-width="0.353048" d="M1757.85,-74.9624C1754.14,-71.4505 1749.35,-67.6939 1744.23,-65.6985 1602.02,-10.2174 1208.7,-55.4485 1058.23,-29.6985 1050.48,-28.3721 1042.2,-26.1979 1034.78,-23.9611"/>
<polygon fill="red" stroke="red" stroke-width="0.353048" points="1035.6,-20.5501 1025.01,-20.8392 1033.47,-27.2177 1035.6,-20.5501"/>
</g>
<!-- &#45;6&#45;&gt;1 -->
<g id="edge22" class="edge"><title>&#45;6&#45;&gt;1</title>
<path fill="none" stroke="green" stroke-width="0.312524" d="M1757.85,-74.9511C1754.14,-71.4367 1749.35,-67.6813 1744.23,-65.6985 1587.19,-4.87558 1148.83,-77.1212 987.231,-29.6985 986.169,-29.3869 985.104,-29.0196 984.046,-28.6089"/>
<polygon fill="green" stroke="green" stroke-width="0.312524" points="985.444,-25.3957 974.931,-24.0838 982.332,-31.6655 985.444,-25.3957"/>
</g>
<!-- &#45;6&#45;&gt;2 -->
<g id="edge23" class="edge"><title>&#45;6&#45;&gt;2</title>
<path fill="none" stroke="red" stroke-width="0.218697" d="M1757.82,-75.0278C1754.1,-71.5302 1749.32,-67.7668 1744.23,-65.6985 1634.78,-21.1856 1256.83,-16.3762 1155.43,-15.8935"/>
<polygon fill="red" stroke="red" stroke-width="0.218697" points="1155.23,-12.3929 1145.22,-15.8556 1155.21,-19.3928 1155.23,-12.3929"/>
</g>
<!-- &#45;6&#45;&gt;3 -->
<g id="edge24" class="edge"><title>&#45;6&#45;&gt;3</title>
<path fill="none" stroke="red" stroke-width="0.299377" d="M1757.84,-74.9714C1754.13,-71.4615 1749.34,-67.704 1744.23,-65.6985 1612.04,-13.8281 1242.31,-70.2871 1106.23,-29.6985 1105.17,-29.3822 1104.11,-29.011 1103.05,-28.5973"/>
<polygon fill="red" stroke="red" stroke-width="0.299377" points="1104.45,-25.3847 1093.94,-24.0607 1101.33,-31.651 1104.45,-25.3847"/>
</g>
<!-- &#45;7 -->
<g id="node7" class="node"><title>&#45;7</title>
<polygon fill="lightgray" stroke="black" points="1819.23,-93.0833 1795.23,-93.0833 1795.23,-75.0833 1819.23,-75.0833 1819.23,-93.0833"/>
<text text-anchor="middle" x="1807.23" y="-81.8833" font-family="Times New Roman,serif" font-size="9.00">&#45;7</text>
</g>
<!-- &#45;7&#45;&gt;0 -->
<g id="edge25" class="edge"><title>&#45;7&#45;&gt;0</title>
<path fill="none" stroke="green" stroke-width="0.220291" d="M1799.85,-74.9555C1796.14,-71.442 1791.35,-67.6862 1786.23,-65.6985 1635.24,-7.05758 1217.93,-56.7798 1058.23,-29.6985 1050.48,-28.3838 1042.2,-26.2128 1034.78,-23.9754"/>
<polygon fill="green" stroke="green" stroke-width="0.220291" points="1035.6,-20.5645 1025.01,-20.8505 1033.47,-27.2316 1035.6,-20.5645"/>
</g>
<!-- &#45;7&#45;&gt;1 -->
<g id="edge26" class="edge"><title>&#45;7&#45;&gt;1</title>
<path fill="none" stroke="red" stroke-width="0.401435" d="M1799.85,-74.9454C1796.14,-71.4297 1791.35,-67.675 1786.23,-65.6985 1620.41,-1.71517 1157.84,-79.5338 987.231,-29.6985 986.168,-29.3882 985.104,-29.022 984.045,-28.6122"/>
<polygon fill="red" stroke="red" stroke-width="0.401435" points="985.443,-25.3988 974.929,-24.0903 982.332,-31.6697 985.443,-25.3988"/>
</g>
<!-- &#45;7&#45;&gt;2 -->
<g id="edge27" class="edge"><title>&#45;7&#45;&gt;2</title>
<path fill="none" stroke="red" stroke-width="0.346085" d="M1799.83,-75.016C1796.11,-71.5158 1791.32,-67.7536 1786.23,-65.6985 1668.47,-18.16 1260.29,-15.5964 1155.11,-15.743"/>
<polygon fill="red" stroke="red" stroke-width="0.346085" points="1155.1,-12.2429 1145.11,-15.7669 1155.11,-19.2429 1155.1,-12.2429"/>
</g>
<!-- &#45;7&#45;&gt;3 -->
<g id="edge28" class="edge"><title>&#45;7&#45;&gt;3</title>
<path fill="none" stroke="green" stroke-width="0.291777" d="M1799.85,-74.9635C1796.14,-71.4517 1791.34,-67.6951 1786.23,-65.6985 1645.27,-10.6688 1251.32,-72.6988 1106.23,-29.6985 1105.17,-29.3841 1104.11,-29.0144 1103.05,-28.6018"/>
<polygon fill="green" stroke="green" stroke-width="0.291777" points="1104.45,-25.389 1093.94,-24.0697 1101.33,-31.6567 1104.45,-25.389"/>
</g>
<!-- &#45;8 -->
<g id="node8" class="node"><title>&#45;8</title>
<polygon fill="lightgray" stroke="black" points="1861.23,-93.0833 1837.23,-93.0833 1837.23,-75.0833 1861.23,-75.0833 1861.23,-93.0833"/>
<text text-anchor="middle" x="1849.23" y="-81.8833" font-family="Times New Roman,serif" font-size="9.00">&#45;8</text>
</g>
<!-- &#45;8&#45;&gt;0 -->
<g id="edge29" class="edge"><title>&#45;8&#45;&gt;0</title>
<path fill="none" stroke="red" stroke-width="0.489377" d="M1841.85,-74.9493C1838.14,-71.4345 1833.35,-67.6793 1828.23,-65.6985 1668.47,-3.89739 1227.16,-58.1112 1058.23,-29.6985 1050.48,-28.3942 1042.19,-26.2262 1034.78,-23.9882"/>
<polygon fill="red" stroke="red" stroke-width="0.489377" points="1035.6,-20.5774 1025.01,-20.8606 1033.47,-27.2439 1035.6,-20.5774"/>
</g>
<!-- &#45;8&#45;&gt;1 -->
<g id="edge30" class="edge"><title>&#45;8&#45;&gt;1</title>
<path fill="none" stroke="red" stroke-width="0.141939" d="M1841.86,-74.9402C1838.15,-71.4234 1833.35,-67.6692 1828.23,-65.6985 1653.64,1.4455 1166.85,-81.9466 987.231,-29.6985 986.168,-29.3894 985.103,-29.0241 984.044,-28.6152"/>
<polygon fill="red" stroke="red" stroke-width="0.141939" points="985.442,-25.4016 974.927,-24.0962 982.333,-31.6734 985.442,-25.4016"/>
</g>
<!-- &#45;8&#45;&gt;2 -->
<g id="edge31" class="edge"><title>&#45;8&#45;&gt;2</title>
<path fill="none" stroke="red" stroke-width="0.188618" d="M1841.83,-75.0056C1838.12,-71.5031 1833.33,-67.7421 1828.23,-65.6985 1702.32,-15.2035 1264.88,-14.8726 1155.28,-15.6105"/>
<polygon fill="red" stroke="red" stroke-width="0.188618" points="1155.15,-12.1113 1145.17,-15.6883 1155.2,-19.1111 1155.15,-12.1113"/>
</g>
<!-- &#45;8&#45;&gt;3 -->
<g id="edge32" class="edge"><title>&#45;8&#45;&gt;3</title>
<path fill="none" stroke="green" stroke-width="0.14272" d="M1841.85,-74.9564C1838.14,-71.4431 1833.35,-67.6872 1828.23,-65.6985 1678.5,-7.50901 1260.32,-75.1109 1106.23,-29.6985 1105.17,-29.3857 1104.1,-29.0173 1103.05,-28.6059"/>
<polygon fill="green" stroke="green" stroke-width="0.14272" points="1104.45,-25.3929 1093.93,-24.0778 1101.33,-31.6618 1104.45,-25.3929"/>
</g>
<!-- &#45;9 -->
<g id="node9" class="node"><title>&#45;9</title>
<polygon fill="lightgray" stroke="black" points="203.231,-93.0833 179.231,-93.0833 179.231,-75.0833 203.231,-75.0833 203.231,-93.0833"/>
<text text-anchor="middle" x="191.231" y="-81.8833" font-family="Times New Roman,serif" font-size="9.00">&#45;9</text>
</g>
<!-- &#45;9&#45;&gt;0 -->
<g id="edge33" class="edge"><title>&#45;9&#45;&gt;0</title>
<path fill="none" stroke="green" stroke-width="0.14729" d="M198.608,-74.9486C202.318,-71.4336 207.11,-67.6785 212.231,-65.6985 373.036,-3.52115 821.772,-78.1551 987.231,-29.6985 988.292,-29.3875 989.357,-29.0206 990.416,-28.6104"/>
<polygon fill="green" stroke="green" stroke-width="0.14729" points="992.129,-31.6674 999.531,-24.0867 989.017,-25.3971 992.129,-31.6674"/>
</g>
<!-- &#45;9&#45;&gt;1 -->
<g id="edge34" class="edge"><title>&#45;9&#45;&gt;1</title>
<path fill="none" stroke="green" stroke-width="0.234313" d="M198.626,-74.9941C202.34,-71.4891 207.13,-67.7293 212.231,-65.6985 348.518,-11.4396 823.42,-14.0112 938.143,-15.4639"/>
<polygon fill="green" stroke="green" stroke-width="0.234313" points="938.333,-18.9667 948.38,-15.6032 938.428,-11.9674 938.333,-18.9667"/>
</g>
<!-- &#45;9&#45;&gt;2 -->
<g id="edge35" class="edge"><title>&#45;9&#45;&gt;2</title>
<path fill="none" stroke="green" stroke-width="0.230527" d="M198.603,-74.9344C202.311,-71.4163 207.104,-67.6627 212.231,-65.6985 397.898,5.4343 915.246,-84.9916 1106.23,-29.6985 1107.29,-29.3908 1108.36,-29.0266 1109.42,-28.6185"/>
<polygon fill="green" stroke="green" stroke-width="0.230527" points="1111.13,-31.6775 1118.54,-24.1028 1108.02,-25.4047 1111.13,-31.6775"/>
</g>
<!-- &#45;9&#45;&gt;3 -->
<g id="edge36" class="edge"><title>&#45;9&#45;&gt;3</title>
<path fill="none" stroke="green" stroke-width="0.203267" d="M198.606,-74.9424C202.315,-71.4261 207.107,-67.6716 212.231,-65.6985 383.064,0.0908965 854.657,-59.7915 1035.23,-29.6985 1042.99,-28.4059 1051.27,-26.2411 1058.69,-24.0025"/>
<polygon fill="green" stroke="green" stroke-width="0.203267" points="1060,-27.2576 1068.45,-20.8719 1057.86,-20.5918 1060,-27.2576"/>
</g>
<!-- &#45;10 -->
<g id="node10" class="node"><title>&#45;10</title>
<polygon fill="lightgray" stroke="black" points="250.731,-93.0833 221.731,-93.0833 221.731,-75.0833 250.731,-75.0833 250.731,-93.0833"/>
<text text-anchor="middle" x="236.231" y="-81.8833" font-family="Times New Roman,serif" font-size="9.00">&#45;10</text>
</g>
<!-- &#45;10&#45;&gt;0 -->
<g id="edge37" class="edge"><title>&#45;10&#45;&gt;0</title>
<path fill="none" stroke="green" stroke-width="0.117443" d="M244.446,-74.9502C248.539,-71.4356 253.773,-67.6803 259.231,-65.6985 411.479,-10.4123 831.852,-75.4555 987.231,-29.6985 988.292,-29.3859 989.356,-29.0177 990.415,-28.6064"/>
<polygon fill="green" stroke="green" stroke-width="0.117443" points="992.13,-31.6624 999.529,-24.0788 989.016,-25.3934 992.13,-31.6624"/>
</g>
<!-- &#45;10&#45;&gt;1 -->
<g id="edge38" class="edge"><title>&#45;10&#45;&gt;1</title>
<path fill="none" stroke="red" stroke-width="0.42298" d="M244.466,-75.0022C248.562,-71.499 253.794,-67.7383 259.231,-65.6985 387.331,-17.6324 827.707,-15.4925 938.019,-15.7292"/>
<polygon fill="red" stroke="red" stroke-width="0.42298" points="938.18,-19.2296 948.191,-15.7602 938.202,-12.2296 938.18,-19.2296"/>
</g>
<!-- &#45;10&#45;&gt;2 -->
<g id="edge39" class="edge"><title>&#45;10&#45;&gt;2</title>
<path fill="none" stroke="green" stroke-width="0.227306" d="M244.44,-74.9332C248.531,-71.4149 253.766,-67.6614 259.231,-65.6985 436.531,-2.00986 925.328,-82.2913 1106.23,-29.6985 1107.29,-29.3896 1108.36,-29.0244 1109.42,-28.6156"/>
<polygon fill="green" stroke="green" stroke-width="0.227306" points="1111.13,-31.6739 1118.53,-24.097 1108.02,-25.402 1111.13,-31.6739"/>
</g>
<!-- &#45;10&#45;&gt;3 -->
<g id="edge40" class="edge"><title>&#45;10&#45;&gt;3</title>
<path fill="none" stroke="red" stroke-width="0.281489" d="M244.444,-74.9427C248.536,-71.4265 253.77,-67.672 259.231,-65.6985 421.583,-7.02334 864.987,-58.3014 1035.23,-29.6985 1042.99,-28.3956 1051.27,-26.228 1058.69,-23.9899"/>
<polygon fill="red" stroke="red" stroke-width="0.281489" points="1060,-27.2455 1068.45,-20.862 1057.86,-20.5791 1060,-27.2455"/>
</g>
<!-- &#45;11 -->
<g id="node11" class="node"><title>&#45;11</title>
<polygon fill="lightgray" stroke="black" points="297.731,-93.0833 268.731,-93.0833 268.731,-75.0833 297.731,-75.0833 297.731,-93.0833"/>
<text text-anchor="middle" x="283.231" y="-81.8833" font-family="Times New Roman,serif" font-size="9.00">&#45;11</text>
</g>
<!-- &#45;11&#45;&gt;0 -->
<g id="edge41" class="edge"><title>&#45;11&#45;&gt;0</title>
<path fill="none" stroke="green" stroke-width="0.654764" d="M291.449,-74.9585C295.543,-71.4457 300.776,-67.6896 306.231,-65.6985 448.586,-13.7302 841.932,-72.7562 987.231,-29.6985 988.291,-29.3841 989.355,-29.0144 990.413,-28.6019"/>
<polygon fill="green" stroke="green" stroke-width="0.654764" points="992.131,-31.6568 999.526,-24.07 989.014,-25.3891 992.131,-31.6568"/>
</g>
<!-- &#45;11&#45;&gt;1 -->
<g id="edge42" class="edge"><title>&#45;11&#45;&gt;1</title>
<path fill="none" stroke="red" stroke-width="0.208528" d="M291.47,-75.0145C295.568,-71.5139 300.8,-67.7519 306.231,-65.6985 425.081,-20.7613 832.421,-16.2768 938.049,-15.8764"/>
<polygon fill="red" stroke="red" stroke-width="0.208528" points="938.375,-19.3756 948.365,-15.8472 938.355,-12.3756 938.375,-19.3756"/>
</g>
<!-- &#45;11&#45;&gt;2 -->
<g id="edge43" class="edge"><title>&#45;11&#45;&gt;2</title>
<path fill="none" stroke="red" stroke-width="0.442588" d="M291.442,-74.9393C295.534,-71.4223 300.769,-67.6682 306.231,-65.6985 473.636,-5.32872 935.41,-79.5912 1106.23,-29.6985 1107.29,-29.3883 1108.36,-29.022 1109.42,-28.6123"/>
<polygon fill="red" stroke="red" stroke-width="0.442588" points="1111.13,-31.6697 1118.53,-24.0905 1108.02,-25.3989 1111.13,-31.6697"/>
</g>
<!-- &#45;11&#45;&gt;3 -->
<g id="edge44" class="edge"><title>&#45;11&#45;&gt;3</title>
<path fill="none" stroke="green" stroke-width="0.425217" d="M291.446,-74.95C295.539,-71.4354 300.773,-67.6801 306.231,-65.6985 458.689,-10.3417 875.315,-56.8115 1035.23,-29.6985 1042.98,-28.3841 1051.27,-26.2132 1058.68,-23.9757"/>
<polygon fill="green" stroke="green" stroke-width="0.425217" points="1059.99,-27.2319 1068.45,-20.8508 1057.86,-20.5648 1059.99,-27.2319"/>
</g>
<!-- &#45;12 -->
<g id="node12" class="node"><title>&#45;12</title>
<polygon fill="lightgray" stroke="black" points="344.731,-93.0833 315.731,-93.0833 315.731,-75.0833 344.731,-75.0833 344.731,-93.0833"/>
<text text-anchor="middle" x="330.231" y="-81.8833" font-family="Times New Roman,serif" font-size="9.00">&#45;12</text>
</g>
<!-- &#45;12&#45;&gt;0 -->
<g id="edge45" class="edge"><title>&#45;12&#45;&gt;0</title>
<path fill="none" stroke="green" stroke-width="0.173684" d="M338.453,-74.9681C342.547,-71.4574 347.78,-67.7002 353.231,-65.6985 618.159,31.6032 716.788,-110.416 987.231,-29.6985 988.291,-29.382 989.354,-29.0107 990.412,-28.5968"/>
<polygon fill="green" stroke="green" stroke-width="0.173684" points="992.132,-31.6504 999.523,-24.0597 989.011,-25.3843 992.132,-31.6504"/>
</g>
<!-- &#45;12&#45;&gt;1 -->
<g id="edge46" class="edge"><title>&#45;12&#45;&gt;1</title>
<path fill="none" stroke="green" stroke-width="0.312885" d="M338.476,-75.0286C342.575,-71.5312 347.806,-67.7677 353.231,-65.6985 462.917,-23.8614 837.719,-17.1086 938.248,-16.0439"/>
<polygon fill="green" stroke="green" stroke-width="0.312885" points="938.403,-19.5426 948.369,-15.9466 938.336,-12.543 938.403,-19.5426"/>
</g>
<!-- &#45;12&#45;&gt;2 -->
<g id="edge47" class="edge"><title>&#45;12&#45;&gt;2</title>
<path fill="none" stroke="red" stroke-width="0.171724" d="M338.445,-74.9462C342.537,-71.4307 347.771,-67.6758 353.231,-65.6985 510.741,-8.64727 945.491,-76.8914 1106.23,-29.6985 1107.29,-29.3868 1108.36,-29.0193 1109.42,-28.6086"/>
<polygon fill="red" stroke="red" stroke-width="0.171724" points="1111.13,-31.6651 1118.53,-24.0831 1108.02,-25.3954 1111.13,-31.6651"/>
</g>
<!-- &#45;12&#45;&gt;3 -->
<g id="edge48" class="edge"><title>&#45;12&#45;&gt;3</title>
<path fill="none" stroke="red" stroke-width="0.14196" d="M338.449,-74.9583C342.543,-71.4455 347.776,-67.6894 353.231,-65.6985 495.796,-13.6596 885.643,-55.3217 1035.23,-29.6985 1042.98,-28.3709 1051.26,-26.1964 1058.68,-23.9596"/>
<polygon fill="red" stroke="red" stroke-width="0.14196" points="1059.99,-27.2163 1068.45,-20.838 1057.86,-20.5486 1059.99,-27.2163"/>
</g>
<!-- &#45;13 -->
<g id="node13" class="node"><title>&#45;13</title>
<polygon fill="lightgray" stroke="black" points="391.731,-93.0833 362.731,-93.0833 362.731,-75.0833 391.731,-75.0833 391.731,-93.0833"/>
<text text-anchor="middle" x="377.231" y="-81.8833" font-family="Times New Roman,serif" font-size="9.00">&#45;13</text>
</g>
<!-- &#45;13&#45;&gt;0 -->
<g id="edge49" class="edge"><title>&#45;13&#45;&gt;0</title>
<path fill="none" stroke="green" stroke-width="0.226026" d="M385.457,-74.9792C389.552,-71.4709 394.785,-67.7126 400.231,-65.6985 645.38,24.9697 736.939,-105.02 987.231,-29.6985 988.29,-29.3796 989.353,-29.0063 990.41,-28.5908"/>
<polygon fill="green" stroke="green" stroke-width="0.226026" points="992.133,-31.6429 999.519,-24.0479 989.008,-25.3787 992.133,-31.6429"/>
</g>
<!-- &#45;13&#45;&gt;1 -->
<g id="edge50" class="edge"><title>&#45;13&#45;&gt;1</title>
<path fill="none" stroke="red" stroke-width="0.145081" d="M385.482,-75.0451C389.582,-71.5513 394.813,-67.7861 400.231,-65.6985 500.638,-27.0109 842.216,-18.0245 938.048,-16.2435"/>
<polygon fill="red" stroke="red" stroke-width="0.145081" points="938.308,-19.7395 948.245,-16.0644 938.185,-12.7406 938.308,-19.7395"/>
</g>
<!-- &#45;13&#45;&gt;2 -->
<g id="edge51" class="edge"><title>&#45;13&#45;&gt;2</title>
<path fill="none" stroke="red" stroke-width="0.197025" d="M385.448,-74.954C389.541,-71.4402 394.775,-67.6845 400.231,-65.6985 547.848,-11.9654 955.571,-74.192 1106.23,-29.6985 1107.29,-29.3851 1108.36,-29.0162 1109.41,-28.6044"/>
<polygon fill="red" stroke="red" stroke-width="0.197025" points="1111.13,-31.6599 1118.53,-24.0748 1108.01,-25.3915 1111.13,-31.6599"/>
</g>
<!-- &#45;13&#45;&gt;3 -->
<g id="edge52" class="edge"><title>&#45;13&#45;&gt;3</title>
<path fill="none" stroke="red" stroke-width="0.253583" d="M385.453,-74.9679C389.547,-71.4571 394.78,-67.7 400.231,-65.6985 532.905,-16.9771 895.969,-53.8323 1035.23,-29.6985 1042.98,-28.3558 1051.26,-26.1771 1058.68,-23.9411"/>
<polygon fill="red" stroke="red" stroke-width="0.253583" points="1059.98,-27.1985 1068.44,-20.8234 1057.85,-20.53 1059.98,-27.1985"/>
</g>
<!-- &#45;14 -->
<g id="node14" class="node"><title>&#45;14</title>
<polygon fill="lightgray" stroke="black" points="438.731,-93.0833 409.731,-93.0833 409.731,-75.0833 438.731,-75.0833 438.731,-93.0833"/>
<text text-anchor="middle" x="424.231" y="-81.8833" font-family="Times New Roman,serif" font-size="9.00">&#45;14</text>
</g>
<!-- &#45;14&#45;&gt;0 -->
<g id="edge53" class="edge"><title>&#45;14&#45;&gt;0</title>
<path fill="none" stroke="green" stroke-width="0.170535" d="M432.462,-74.9921C436.558,-71.4867 441.79,-67.727 447.231,-65.6985 672.606,18.3378 757.086,-99.6244 987.231,-29.6985 988.289,-29.3768 989.351,-29.0012 990.408,-28.5838"/>
<polygon fill="green" stroke="green" stroke-width="0.170535" points="992.134,-31.6342 999.515,-24.0341 989.005,-25.3721 992.134,-31.6342"/>
</g>
<!-- &#45;14&#45;&gt;1 -->
<g id="edge54" class="edge"><title>&#45;14&#45;&gt;1</title>
<path fill="none" stroke="red" stroke-width="0.131757" d="M432.489,-75.0645C436.591,-71.5749 441.821,-67.8077 447.231,-65.6985 538.391,-30.1546 846.931,-19.0282 937.83,-16.4824"/>
<polygon fill="red" stroke="red" stroke-width="0.131757" points="938.135,-19.9756 948.037,-16.2075 937.946,-12.9781 938.135,-19.9756"/>
</g>
<!-- &#45;14&#45;&gt;2 -->
<g id="edge55" class="edge"><title>&#45;14&#45;&gt;2</title>
<path fill="none" stroke="green" stroke-width="0.56205" d="M432.451,-74.9628C436.545,-71.451 441.778,-67.6944 447.231,-65.6985 584.956,-15.2831 965.649,-71.4929 1106.23,-29.6985 1107.29,-29.3832 1108.35,-29.0127 1109.41,-28.5996"/>
<polygon fill="green" stroke="green" stroke-width="0.56205" points="1111.13,-31.6539 1118.52,-24.0654 1108.01,-25.387 1111.13,-31.6539"/>
</g>
<!-- &#45;14&#45;&gt;3 -->
<g id="edge56" class="edge"><title>&#45;14&#45;&gt;3</title>
<path fill="none" stroke="red" stroke-width="0.119732" d="M432.457,-74.9789C436.552,-71.4706 441.785,-67.7123 447.231,-65.6985 570.016,-20.2939 906.293,-52.3431 1035.23,-29.6985 1042.98,-28.3383 1051.25,-26.1547 1058.67,-23.9197"/>
<polygon fill="red" stroke="red" stroke-width="0.119732" points="1059.98,-27.1778 1068.44,-20.8064 1057.85,-20.5084 1059.98,-27.1778"/>
</g>
<!-- &#45;15 -->
<g id="node15" class="node"><title>&#45;15</title>
<polygon fill="lightgray" stroke="black" points="485.731,-93.0833 456.731,-93.0833 456.731,-75.0833 485.731,-75.0833 485.731,-93.0833"/>
<text text-anchor="middle" x="471.231" y="-81.8833" font-family="Times New Roman,serif" font-size="9.00">&#45;15</text>
</g>
<!-- &#45;15&#45;&gt;0 -->
<g id="edge57" class="edge"><title>&#45;15&#45;&gt;0</title>
<path fill="none" stroke="red" stroke-width="0.200182" d="M479.468,-75.0076C483.565,-71.5055 488.797,-67.7442 494.231,-65.6985 699.837,11.708 777.228,-94.2309 987.231,-29.6985 988.288,-29.3735 989.35,-28.9951 990.405,-28.5755"/>
<polygon fill="red" stroke="red" stroke-width="0.200182" points="992.135,-31.6238 999.51,-24.0176 989.001,-25.3643 992.135,-31.6238"/>
</g>
<!-- &#45;15&#45;&gt;1 -->
<g id="edge58" class="edge"><title>&#45;15&#45;&gt;1</title>
<path fill="none" stroke="red" stroke-width="0.382009" d="M479.927,-74.7264C483.963,-71.3452 489.017,-67.76 494.231,-65.6985 576.297,-33.2466 852.667,-20.1024 937.952,-16.7589"/>
<polygon fill="red" stroke="red" stroke-width="0.382009" points="938.173,-20.2531 948.033,-16.375 937.907,-13.2582 938.173,-20.2531"/>
</g>
<!-- &#45;15&#45;&gt;2 -->
<g id="edge59" class="edge"><title>&#45;15&#45;&gt;2</title>
<path fill="none" stroke="green" stroke-width="0.401017" d="M479.455,-74.9731C483.549,-71.4634 488.782,-67.7058 494.231,-65.6985 749.9,28.498 845.221,-107.89 1106.23,-29.6985 1107.29,-29.381 1108.35,-29.0087 1109.41,-28.5941"/>
<polygon fill="green" stroke="green" stroke-width="0.401017" points="1111.13,-31.6471 1118.52,-24.0544 1108.01,-25.3818 1111.13,-31.6471"/>
</g>
<!-- &#45;15&#45;&gt;3 -->
<g id="edge60" class="edge"><title>&#45;15&#45;&gt;3</title>
<path fill="none" stroke="red" stroke-width="0.228402" d="M479.462,-74.9918C483.558,-71.4863 488.79,-67.7267 494.231,-65.6985 607.128,-23.6098 916.614,-50.8544 1035.23,-29.6985 1042.97,-28.3178 1051.25,-26.1285 1058.67,-23.8946"/>
<polygon fill="red" stroke="red" stroke-width="0.228402" points="1059.97,-27.1536 1068.44,-20.7865 1057.85,-20.4831 1059.97,-27.1536"/>
</g>
<!-- &#45;16 -->
<g id="node16" class="node"><title>&#45;16</title>
<polygon fill="lightgray" stroke="black" points="532.731,-93.0833 503.731,-93.0833 503.731,-75.0833 532.731,-75.0833 532.731,-93.0833"/>
<text text-anchor="middle" x="518.231" y="-81.8833" font-family="Times New Roman,serif" font-size="9.00">&#45;16</text>
</g>
<!-- &#45;16&#45;&gt;0 -->
<g id="edge61" class="edge"><title>&#45;16&#45;&gt;0</title>
<path fill="none" stroke="red" stroke-width="0.399685" d="M526.475,-75.0262C530.573,-71.5282 535.805,-67.765 541.231,-65.6985 727.075,5.08102 797.361,-88.8397 987.231,-29.6985 988.287,-29.3694 989.347,-28.9877 990.402,-28.5655"/>
<polygon fill="red" stroke="red" stroke-width="0.399685" points="992.136,-31.6113 999.504,-23.9977 988.996,-25.3549 992.136,-31.6113"/>
</g>
<!-- &#45;16&#45;&gt;1 -->
<g id="edge62" class="edge"><title>&#45;16&#45;&gt;1</title>
<path fill="none" stroke="red" stroke-width="0.103688" d="M526.939,-74.7552C530.977,-71.3795 536.029,-67.7904 541.231,-65.6985 614.281,-36.3167 858.912,-21.275 938.197,-17.0873"/>
<polygon fill="red" stroke="red" stroke-width="0.103688" points="938.445,-20.5792 948.251,-16.5681 938.084,-13.5885 938.445,-20.5792"/>
</g>
<!-- &#45;16&#45;&gt;2 -->
<g id="edge63" class="edge"><title>&#45;16&#45;&gt;2</title>
<path fill="none" stroke="green" stroke-width="0.287059" d="M526.459,-74.985C530.554,-71.478 535.787,-67.7191 541.231,-65.6985 777.123,21.8651 865.37,-102.494 1106.23,-29.6985 1107.29,-29.3784 1108.35,-29.004 1109.41,-28.5877"/>
<polygon fill="green" stroke="green" stroke-width="0.287059" points="1111.13,-31.639 1118.52,-24.0417 1108.01,-25.3758 1111.13,-31.639"/>
</g>
<!-- &#45;16&#45;&gt;3 -->
<g id="edge64" class="edge"><title>&#45;16&#45;&gt;3</title>
<path fill="none" stroke="green" stroke-width="0.117604" d="M526.467,-75.0072C530.565,-71.5051 535.796,-67.7438 541.231,-65.6985 747.257,11.849 818.636,-69.0339 1035.23,-29.6985 1042.97,-28.2934 1051.24,-26.0974 1058.66,-23.8647"/>
<polygon fill="green" stroke="green" stroke-width="0.117604" points="1059.96,-27.1248 1068.43,-20.7629 1057.84,-20.4529 1059.96,-27.1248"/>
</g>
<!-- &#45;17 -->
<g id="node17" class="node"><title>&#45;17</title>
<polygon fill="lightgray" stroke="black" points="579.731,-93.0833 550.731,-93.0833 550.731,-75.0833 579.731,-75.0833 579.731,-93.0833"/>
<text text-anchor="middle" x="565.231" y="-81.8833" font-family="Times New Roman,serif" font-size="9.00">&#45;17</text>
</g>
<!-- &#45;17&#45;&gt;0 -->
<g id="edge65" class="edge"><title>&#45;17&#45;&gt;0</title>
<path fill="none" stroke="red" stroke-width="0.211428" d="M573.483,-75.0492C577.584,-71.5562 582.814,-67.7906 588.231,-65.6985 754.324,-1.5421 817.485,-83.4518 987.231,-29.6985 988.285,-29.3645 989.344,-28.9787 990.398,-28.5531"/>
<polygon fill="red" stroke="red" stroke-width="0.211428" points="992.138,-31.5959 999.496,-23.9731 988.99,-25.3434 992.138,-31.5959"/>
</g>
<!-- &#45;17&#45;&gt;1 -->
<g id="edge66" class="edge"><title>&#45;17&#45;&gt;1</title>
<path fill="none" stroke="red" stroke-width="0.18983" d="M573.953,-74.7912C577.994,-71.4221 583.045,-67.8283 588.231,-65.6985 652.229,-39.4142 864.878,-22.6299 938.156,-17.5114"/>
<polygon fill="red" stroke="red" stroke-width="0.18983" points="938.563,-20.9918 948.3,-16.8157 938.084,-14.0082 938.563,-20.9918"/>
</g>
<!-- &#45;17&#45;&gt;2 -->
<g id="edge67" class="edge"><title>&#45;17&#45;&gt;2</title>
<path fill="none" stroke="green" stroke-width="0.304499" d="M573.464,-74.999C577.561,-71.4951 582.793,-67.7347 588.231,-65.6985 804.351,15.2342 885.515,-97.0995 1106.23,-29.6985 1107.29,-29.3753 1108.35,-28.9985 1109.41,-28.5801"/>
<polygon fill="green" stroke="green" stroke-width="0.304499" points="1111.13,-31.6296 1118.51,-24.0267 1108,-25.3687 1111.13,-31.6296"/>
</g>
<!-- &#45;17&#45;&gt;3 -->
<g id="edge68" class="edge"><title>&#45;17&#45;&gt;3</title>
<path fill="none" stroke="red" stroke-width="0.313602" d="M573.474,-75.0258C577.573,-71.5277 582.804,-67.7645 588.231,-65.6985 774.496,5.22199 839.265,-66.0589 1035.23,-29.6985 1042.96,-28.264 1051.24,-26.0597 1058.66,-23.8287"/>
<polygon fill="red" stroke="red" stroke-width="0.313602" points="1059.95,-27.09 1068.43,-20.7343 1057.84,-20.4166 1059.95,-27.09"/>
</g>
<!-- &#45;18 -->
<g id="node18" class="node"><title>&#45;18</title>
<polygon fill="lightgray" stroke="black" points="626.731,-93.0833 597.731,-93.0833 597.731,-75.0833 626.731,-75.0833 626.731,-93.0833"/>
<text text-anchor="middle" x="612.231" y="-81.8833" font-family="Times New Roman,serif" font-size="9.00">&#45;18</text>
</g>
<!-- &#45;18&#45;&gt;0 -->
<g id="edge69" class="edge"><title>&#45;18&#45;&gt;0</title>
<path fill="none" stroke="green" stroke-width="0.381174" d="M620.495,-75.0781C624.598,-71.5915 629.827,-67.8229 635.231,-65.6985 781.587,-8.1598 837.594,-78.0684 987.231,-29.6985 988.283,-29.3582 989.341,-28.9672 990.393,-28.5375"/>
<polygon fill="green" stroke="green" stroke-width="0.381174" points="992.14,-31.5764 999.486,-23.9422 988.983,-25.3288 992.14,-31.5764"/>
</g>
<!-- &#45;18&#45;&gt;1 -->
<g id="edge70" class="edge"><title>&#45;18&#45;&gt;1</title>
<path fill="none" stroke="green" stroke-width="0.371825" d="M620.972,-74.837C625.017,-71.4764 630.065,-67.8766 635.231,-65.6985 741.211,-21.0113 881.426,-15.7082 937.984,-15.5374"/>
<polygon fill="green" stroke="green" stroke-width="0.371825" points="938.137,-19.0377 948.146,-15.5615 938.154,-12.0377 938.137,-19.0377"/>
</g>
<!-- &#45;18&#45;&gt;2 -->
<g id="edge71" class="edge"><title>&#45;18&#45;&gt;2</title>
<path fill="none" stroke="green" stroke-width="0.170944" d="M620.471,-75.0158C624.569,-71.5156 629.8,-67.7535 635.231,-65.6985 831.586,8.6056 905.653,-91.707 1106.23,-29.6985 1107.29,-29.3717 1108.35,-28.9918 1109.4,-28.5711"/>
<polygon fill="green" stroke="green" stroke-width="0.170944" points="1111.14,-31.6183 1118.51,-24.0087 1108,-25.3602 1111.14,-31.6183"/>
</g>
<!-- &#45;18&#45;&gt;3 -->
<g id="edge72" class="edge"><title>&#45;18&#45;&gt;3</title>
<path fill="none" stroke="green" stroke-width="0.341026" d="M620.483,-75.0486C624.584,-71.5556 629.814,-67.79 635.231,-65.6985 801.744,-1.40124 859.885,-63.0859 1035.23,-29.6985 1042.96,-28.2277 1051.23,-26.0133 1058.65,-23.7842"/>
<polygon fill="green" stroke="green" stroke-width="0.341026" points="1059.94,-27.047 1068.42,-20.6991 1057.83,-20.3717 1059.94,-27.047"/>
</g>
<!-- &#45;19 -->
<g id="node19" class="node"><title>&#45;19</title>
<polygon fill="lightgray" stroke="black" points="673.731,-93.0833 644.731,-93.0833 644.731,-75.0833 673.731,-75.0833 673.731,-93.0833"/>
<text text-anchor="middle" x="659.231" y="-81.8833" font-family="Times New Roman,serif" font-size="9.00">&#45;19</text>
</g>
<!-- &#45;19&#45;&gt;0 -->
<g id="edge73" class="edge"><title>&#45;19&#45;&gt;0</title>
<path fill="none" stroke="green" stroke-width="0.103504" d="M667.939,-74.755C671.977,-71.3792 677.029,-67.7902 682.231,-65.6985 808.87,-14.7695 857.682,-72.6917 987.231,-29.6985 988.109,-29.4068 988.992,-29.0807 989.872,-28.7269"/>
<polygon fill="green" stroke="green" stroke-width="0.103504" points="991.589,-31.7823 998.98,-24.1914 988.468,-25.5163 991.589,-31.7823"/>
</g>
<!-- &#45;19&#45;&gt;1 -->
<g id="edge74" class="edge"><title>&#45;19&#45;&gt;1</title>
<path fill="none" stroke="green" stroke-width="0.422188" d="M667.998,-74.8975C672.048,-71.5481 677.092,-67.9403 682.231,-65.6985 770.866,-27.0266 887.686,-18.3466 938.193,-16.405"/>
<polygon fill="green" stroke="green" stroke-width="0.422188" points="938.322,-19.9027 948.202,-16.0772 938.093,-12.9065 938.322,-19.9027"/>
</g>
<!-- &#45;19&#45;&gt;2 -->
<g id="edge75" class="edge"><title>&#45;19&#45;&gt;2</title>
<path fill="none" stroke="green" stroke-width="0.46295" d="M667.479,-75.0363C671.578,-71.5406 676.809,-67.7763 682.231,-65.6985 858.829,1.98028 925.782,-86.3172 1106.23,-29.6985 1107.29,-29.3672 1108.35,-28.9837 1109.4,-28.56"/>
<polygon fill="green" stroke="green" stroke-width="0.46295" points="1111.14,-31.6045 1118.5,-23.9869 1107.99,-25.3498 1111.14,-31.6045"/>
</g>
<!-- &#45;19&#45;&gt;3 -->
<g id="edge76" class="edge"><title>&#45;19&#45;&gt;3</title>
<path fill="none" stroke="red" stroke-width="0.206323" d="M667.494,-75.0774C671.598,-71.5907 676.827,-67.8221 682.231,-65.6985 829.007,-8.01907 880.489,-60.1157 1035.23,-29.6985 1042.95,-28.1818 1051.22,-25.9548 1058.64,-23.7281"/>
<polygon fill="red" stroke="red" stroke-width="0.206323" points="1059.92,-26.9928 1068.41,-20.6546 1057.82,-20.315 1059.92,-26.9928"/>
</g>
<!-- &#45;20 -->
<g id="node20" class="node"><title>&#45;20</title>
<polygon fill="lightgray" stroke="black" points="720.731,-93.0833 691.731,-93.0833 691.731,-75.0833 720.731,-75.0833 720.731,-93.0833"/>
<text text-anchor="middle" x="706.231" y="-81.8833" font-family="Times New Roman,serif" font-size="9.00">&#45;20</text>
</g>
<!-- &#45;20&#45;&gt;0 -->
<g id="edge77" class="edge"><title>&#45;20&#45;&gt;0</title>
<path fill="none" stroke="red" stroke-width="0.337643" d="M714.96,-74.8071C719.002,-71.441 724.052,-67.8451 729.231,-65.6985 836.184,-21.3665 877.738,-67.3257 987.231,-29.6985 988.106,-29.3975 988.986,-29.0635 989.864,-28.7031"/>
<polygon fill="red" stroke="red" stroke-width="0.337643" points="991.594,-31.751 998.961,-24.1366 988.454,-25.495 991.594,-31.751"/>
</g>
<!-- &#45;20&#45;&gt;1 -->
<g id="edge78" class="edge"><title>&#45;20&#45;&gt;1</title>
<path fill="none" stroke="green" stroke-width="0.389843" d="M715.035,-74.9809C719.092,-71.6469 724.132,-68.0282 729.231,-65.6985 800.629,-33.0774 894.135,-21.4531 938.198,-17.6026"/>
<polygon fill="green" stroke="green" stroke-width="0.389843" points="938.607,-21.0809 948.291,-16.7831 938.041,-14.1039 938.607,-21.0809"/>
</g>
<!-- &#45;20&#45;&gt;2 -->
<g id="edge79" class="edge"><title>&#45;20&#45;&gt;2</title>
<path fill="none" stroke="green" stroke-width="0.243603" d="M714.488,-75.0618C718.59,-71.5717 723.82,-67.8047 729.231,-65.6985 886.083,-4.64055 945.899,-80.9312 1106.23,-29.6985 1107.28,-29.3617 1108.34,-28.9736 1109.4,-28.5463"/>
<polygon fill="green" stroke="green" stroke-width="0.243603" points="1111.14,-31.5873 1118.49,-23.9596 1107.99,-25.337 1111.14,-31.5873"/>
</g>
<!-- &#45;20&#45;&gt;3 -->
<g id="edge80" class="edge"><title>&#45;20&#45;&gt;3</title>
<path fill="none" stroke="red" stroke-width="0.119274" d="M714.938,-74.7541C718.976,-71.3781 724.029,-67.7892 729.231,-65.6985 856.289,-14.629 901.072,-57.1497 1035.23,-29.6985 1042.93,-28.1222 1051.2,-25.8785 1058.62,-23.655"/>
<polygon fill="red" stroke="red" stroke-width="0.119274" points="1059.9,-26.9221 1068.4,-20.5968 1057.81,-20.2412 1059.9,-26.9221"/>
</g>
<!-- &#45;21 -->
<g id="node21" class="node"><title>&#45;21</title>
<polygon fill="lightgray" stroke="black" points="767.731,-93.0833 738.731,-93.0833 738.731,-75.0833 767.731,-75.0833 767.731,-93.0833"/>
<text text-anchor="middle" x="753.231" y="-81.8833" font-family="Times New Roman,serif" font-size="9.00">&#45;21</text>
</g>
<!-- &#45;21&#45;&gt;0 -->
<g id="edge81" class="edge"><title>&#45;21&#45;&gt;0</title>
<path fill="none" stroke="red" stroke-width="0.764093" d="M761.991,-74.8815C766.039,-71.5291 771.085,-67.9234 776.231,-65.6985 863.55,-27.9422 897.741,-61.9779 987.231,-29.6985 988.102,-29.3843 988.977,-29.039 989.852,-28.6691"/>
<polygon fill="red" stroke="red" stroke-width="0.764093" points="991.602,-31.7063 998.934,-24.0583 988.433,-25.4647 991.602,-31.7063"/>
</g>
<!-- &#45;21&#45;&gt;1 -->
<g id="edge82" class="edge"><title>&#45;21&#45;&gt;1</title>
<path fill="none" stroke="green" stroke-width="0.135407" d="M762.532,-74.7467C766.519,-71.5332 771.372,-68.0687 776.231,-65.6985 830.689,-39.1309 901.223,-25.2564 938.156,-19.3761"/>
<polygon fill="green" stroke="green" stroke-width="0.135407" points="939.125,-22.7688 948.484,-17.8026 938.071,-15.8487 939.125,-22.7688"/>
</g>
<!-- &#45;21&#45;&gt;2 -->
<g id="edge83" class="edge"><title>&#45;21&#45;&gt;2</title>
<path fill="none" stroke="green" stroke-width="0.157474" d="M761.93,-74.7332C765.967,-71.3534 771.02,-67.7672 776.231,-65.6985 913.355,-11.2549 966,-75.5506 1106.23,-29.6985 1107.11,-29.4107 1107.99,-29.0879 1108.88,-28.7369"/>
<polygon fill="green" stroke="green" stroke-width="0.157474" points="1110.59,-31.7954 1117.99,-24.2143 1107.47,-25.5253 1110.59,-31.7954"/>
</g>
<!-- &#45;21&#45;&gt;3 -->
<g id="edge84" class="edge"><title>&#45;21&#45;&gt;3</title>
<path fill="none" stroke="green" stroke-width="0.413735" d="M761.959,-74.8058C766.001,-71.4394 771.051,-67.8437 776.231,-65.6985 883.603,-21.2263 921.623,-54.1903 1035.23,-29.6985 1042.92,-28.0414 1051.18,-25.7753 1058.6,-23.5561"/>
<polygon fill="green" stroke="green" stroke-width="0.413735" points="1059.87,-26.8264 1068.39,-20.5184 1057.8,-20.1412 1059.87,-26.8264"/>
</g>
<!-- &#45;22 -->
<g id="node22" class="node"><title>&#45;22</title>
<polygon fill="lightgray" stroke="black" points="814.731,-93.0833 785.731,-93.0833 785.731,-75.0833 814.731,-75.0833 814.731,-93.0833"/>
<text text-anchor="middle" x="800.231" y="-81.8833" font-family="Times New Roman,serif" font-size="9.00">&#45;22</text>
</g>
<!-- &#45;22&#45;&gt;0 -->
<g id="edge85" class="edge"><title>&#45;22&#45;&gt;0</title>
<path fill="none" stroke="green" stroke-width="0.209183" d="M809.042,-74.9959C813.1,-71.6647 818.139,-68.044 823.231,-65.6985 891.01,-34.477 917.649,-56.665 987.231,-29.6985 988.094,-29.3638 988.963,-29.0012 989.833,-28.6167"/>
<polygon fill="green" stroke="green" stroke-width="0.209183" points="991.611,-31.6376 998.889,-23.9377 988.398,-25.4186 991.611,-31.6376"/>
</g>
<!-- &#45;22&#45;&gt;1 -->
<g id="edge86" class="edge"><title>&#45;22&#45;&gt;1</title>
<path fill="none" stroke="green" stroke-width="0.126987" d="M809.633,-74.9434C813.636,-71.7599 818.473,-68.2648 823.231,-65.6985 861.488,-45.0632 910.025,-29.9983 938.743,-22.1093"/>
<polygon fill="green" stroke="green" stroke-width="0.126987" points="939.96,-25.4067 948.716,-19.4405 938.151,-18.6446 939.96,-25.4067"/>
</g>
<!-- &#45;22&#45;&gt;2 -->
<g id="edge87" class="edge"><title>&#45;22&#45;&gt;2</title>
<path fill="none" stroke="red" stroke-width="0.139855" d="M808.948,-74.7773C812.988,-71.4056 818.039,-67.8137 823.231,-65.6985 940.651,-17.8594 986.075,-70.1783 1106.23,-29.6985 1107.11,-29.4028 1107.99,-29.0733 1108.87,-28.7168"/>
<polygon fill="red" stroke="red" stroke-width="0.139855" points="1110.59,-31.7689 1117.97,-24.1679 1107.46,-25.5072 1110.59,-31.7689"/>
</g>
<!-- &#45;22&#45;&gt;3 -->
<g id="edge88" class="edge"><title>&#45;22&#45;&gt;3</title>
<path fill="none" stroke="green" stroke-width="0.164888" d="M808.99,-74.8796C813.038,-71.5268 818.084,-67.9214 823.231,-65.6985 910.967,-27.8026 942.119,-51.2427 1035.23,-29.6985 1042.89,-27.9259 1051.15,-25.6277 1058.57,-23.4146"/>
<polygon fill="green" stroke="green" stroke-width="0.164888" points="1059.83,-26.6894 1068.36,-20.4064 1057.77,-19.9982 1059.83,-26.6894"/>
</g>
<!-- &#45;23 -->
<g id="node23" class="node"><title>&#45;23</title>
<polygon fill="lightgray" stroke="black" points="861.731,-93.0833 832.731,-93.0833 832.731,-75.0833 861.731,-75.0833 861.731,-93.0833"/>
<text text-anchor="middle" x="847.231" y="-81.8833" font-family="Times New Roman,serif" font-size="9.00">&#45;23</text>
</g>
<!-- &#45;23&#45;&gt;0 -->
<g id="edge89" class="edge"><title>&#45;23&#45;&gt;0</title>
<path fill="none" stroke="green" stroke-width="0.117396" d="M856.578,-74.8388C860.572,-71.6393 865.418,-68.1605 870.231,-65.6985 918.666,-40.9197 937.354,-51.4319 987.231,-29.6985 988.08,-29.3286 988.936,-28.936 989.795,-28.5262"/>
<polygon fill="green" stroke="green" stroke-width="0.117396" points="991.622,-31.5191 998.803,-23.7292 988.331,-25.3407 991.622,-31.5191"/>
</g>
<!-- &#45;23&#45;&gt;1 -->
<g id="edge90" class="edge"><title>&#45;23&#45;&gt;1</title>
<path fill="none" stroke="green" stroke-width="0.422882" d="M857.291,-74.9441C861.229,-71.9016 865.847,-68.506 870.231,-65.6985 893.482,-50.8067 921.593,-36.1702 940.781,-26.6507"/>
<polygon fill="green" stroke="green" stroke-width="0.422882" points="942.491,-29.7103 949.928,-22.1648 939.409,-23.4254 942.491,-29.7103"/>
</g>
<!-- &#45;23&#45;&gt;2 -->
<g id="edge91" class="edge"><title>&#45;23&#45;&gt;2</title>
<path fill="none" stroke="red" stroke-width="0.16787" d="M855.973,-74.8384C860.018,-71.478 865.066,-67.878 870.231,-65.6985 967.986,-24.448 1006.11,-64.8195 1106.23,-29.6985 1107.1,-29.392 1107.98,-29.0532 1108.86,-28.6888"/>
<polygon fill="red" stroke="red" stroke-width="0.16787" points="1110.6,-31.7322 1117.95,-24.1037 1107.45,-25.4822 1110.6,-31.7322"/>
</g>
<!-- &#45;23&#45;&gt;3 -->
<g id="edge92" class="edge"><title>&#45;23&#45;&gt;3</title>
<path fill="none" stroke="red" stroke-width="0.555868" d="M856.041,-74.9928C860.098,-71.6611 865.137,-68.0407 870.231,-65.6985 938.424,-34.3387 962.518,-48.3181 1035.23,-29.6985 1042.85,-27.7479 1051.09,-25.4002 1058.52,-23.1966"/>
<polygon fill="red" stroke="red" stroke-width="0.555868" points="1059.76,-26.4778 1068.32,-20.2338 1057.73,-19.7773 1059.76,-26.4778"/>
</g>
<!-- &#45;24 -->
<g id="node24" class="node"><title>&#45;24</title>
<polygon fill="lightgray" stroke="black" points="908.731,-93.0833 879.731,-93.0833 879.731,-75.0833 908.731,-75.0833 908.731,-93.0833"/>
<text text-anchor="middle" x="894.231" y="-81.8833" font-family="Times New Roman,serif" font-size="9.00">&#45;24</text>
</g>
<!-- &#45;24&#45;&gt;0 -->
<g id="edge93" class="edge"><title>&#45;24&#45;&gt;0</title>
<path fill="none" stroke="green" stroke-width="0.181724" d="M904.266,-74.9045C908.201,-71.8572 912.823,-68.4686 917.231,-65.6985 946.85,-47.0819 956.515,-46.4461 987.231,-29.6985 988.044,-29.2552 988.87,-28.8002 989.703,-28.3379"/>
<polygon fill="green" stroke="green" stroke-width="0.181724" points="991.62,-31.2746 998.591,-23.2958 988.166,-25.1862 991.62,-31.2746"/>
</g>
<!-- &#45;24&#45;&gt;1 -->
<g id="edge94" class="edge"><title>&#45;24&#45;&gt;1</title>
<path fill="none" stroke="red" stroke-width="0.35004" d="M902.691,-74.8391C913.28,-64.5211 931.694,-46.5791 945.44,-33.1842"/>
<polygon fill="red" stroke="red" stroke-width="0.35004" points="948.181,-35.4005 952.901,-25.9149 943.296,-30.3869 948.181,-35.4005"/>
</g>
<!-- &#45;24&#45;&gt;2 -->
<g id="edge95" class="edge"><title>&#45;24&#45;&gt;2</title>
<path fill="none" stroke="green" stroke-width="0.364815" d="M903.012,-74.9283C907.064,-71.5846 912.107,-67.9728 917.231,-65.6985 995.388,-31.008 1026.08,-59.485 1106.23,-29.6985 1107.1,-29.3759 1107.97,-29.0235 1108.84,-28.6477"/>
<polygon fill="green" stroke="green" stroke-width="0.364815" points="1110.61,-31.6781 1117.92,-24.0089 1107.42,-25.4458 1110.61,-31.6781"/>
</g>
<!-- &#45;24&#45;&gt;3 -->
<g id="edge96" class="edge"><title>&#45;24&#45;&gt;3</title>
<path fill="none" stroke="red" stroke-width="0.188479" d="M903.572,-74.8265C907.565,-71.6251 912.412,-68.1482 917.231,-65.6985 920.464,-64.0546 1013.51,-36.2886 1058.42,-22.9254"/>
<polygon fill="red" stroke="red" stroke-width="0.188479" points="1059.63,-26.2155 1068.22,-20.0101 1057.64,-19.506 1059.63,-26.2155"/>
</g>
<!-- &#45;25 -->
<g id="node25" class="node"><title>&#45;25</title>
<polygon fill="lightgray" stroke="black" points="955.731,-93.0833 926.731,-93.0833 926.731,-75.0833 955.731,-75.0833 955.731,-93.0833"/>
<text text-anchor="middle" x="941.231" y="-81.8833" font-family="Times New Roman,serif" font-size="9.00">&#45;25</text>
</g>
<!-- &#45;25&#45;&gt;0 -->
<g id="edge97" class="edge"><title>&#45;25&#45;&gt;0</title>
<path fill="none" stroke="red" stroke-width="0.109051" d="M949.814,-74.8391C960.556,-64.5211 979.236,-46.5791 993.182,-33.1842"/>
<polygon fill="red" stroke="red" stroke-width="0.109051" points="995.963,-35.3663 1000.75,-25.9149 991.114,-30.3178 995.963,-35.3663"/>
</g>
<!-- &#45;25&#45;&gt;1 -->
<g id="edge98" class="edge"><title>&#45;25&#45;&gt;1</title>
<path fill="none" stroke="red" stroke-width="0.340794" d="M943.928,-74.8391C946.833,-65.9632 951.583,-51.4454 955.644,-39.0337"/>
<polygon fill="red" stroke="red" stroke-width="0.340794" points="959.054,-39.8659 958.838,-29.2733 952.402,-37.689 959.054,-39.8659"/>
</g>
<!-- &#45;25&#45;&gt;2 -->
<g id="edge99" class="edge"><title>&#45;25&#45;&gt;2</title>
<path fill="none" stroke="red" stroke-width="0.236488" d="M950.079,-75.0734C954.143,-71.7566 959.177,-68.1256 964.231,-65.6985 1022.92,-37.51 1045.91,-54.2005 1106.23,-29.6985 1107.09,-29.35 1107.95,-28.9756 1108.82,-28.5812"/>
<polygon fill="red" stroke="red" stroke-width="0.236488" points="1110.62,-31.591 1117.86,-23.8558 1107.37,-25.3877 1110.62,-31.591"/>
</g>
<!-- &#45;25&#45;&gt;3 -->
<g id="edge100" class="edge"><title>&#45;25&#45;&gt;3</title>
<path fill="none" stroke="red" stroke-width="0.227326" d="M950.709,-75.0798C954.724,-71.9172 959.549,-68.4008 964.231,-65.6985 995.409,-47.7025 1034.34,-32.5337 1058.75,-23.8121"/>
<polygon fill="red" stroke="red" stroke-width="0.227326" points="1059.98,-27.0902 1068.26,-20.4795 1057.66,-20.4842 1059.98,-27.0902"/>
</g>
<!-- &#45;26 -->
<g id="node26" class="node"><title>&#45;26</title>
<polygon fill="lightgray" stroke="black" points="1002.73,-93.0833 973.731,-93.0833 973.731,-75.0833 1002.73,-75.0833 1002.73,-93.0833"/>
<text text-anchor="middle" x="988.231" y="-81.8833" font-family="Times New Roman,serif" font-size="9.00">&#45;26</text>
</g>
<!-- &#45;26&#45;&gt;0 -->
<g id="edge101" class="edge"><title>&#45;26&#45;&gt;0</title>
<path fill="none" stroke="green" stroke-width="0.388102" d="M991.051,-74.8391C994.106,-65.9084 999.115,-51.266 1003.38,-38.8041"/>
<polygon fill="green" stroke="green" stroke-width="0.388102" points="1006.8,-39.6168 1006.72,-29.0223 1000.18,-37.3511 1006.8,-39.6168"/>
</g>
<!-- &#45;26&#45;&gt;1 -->
<g id="edge102" class="edge"><title>&#45;26&#45;&gt;1</title>
<path fill="none" stroke="green" stroke-width="0.206376" d="M985.165,-74.8391C981.811,-65.8191 976.291,-50.9725 971.627,-38.4309"/>
<polygon fill="green" stroke="green" stroke-width="0.206376" points="974.895,-37.1754 968.129,-29.0223 968.333,-39.6151 974.895,-37.1754"/>
</g>
<!-- &#45;26&#45;&gt;2 -->
<g id="edge103" class="edge"><title>&#45;26&#45;&gt;2</title>
<path fill="none" stroke="red" stroke-width="0.222862" d="M997.659,-74.9913C1001.67,-71.8152 1006.5,-68.3126 1011.23,-65.6985 1050.75,-43.8641 1065.43,-49.0449 1106.23,-29.6985 1107.07,-29.3017 1107.91,-28.8863 1108.76,-28.4573"/>
<polygon fill="red" stroke="red" stroke-width="0.222862" points="1110.62,-31.4293 1117.73,-23.5706 1107.28,-25.2828 1110.62,-31.4293"/>
</g>
<!-- &#45;26&#45;&gt;3 -->
<g id="edge104" class="edge"><title>&#45;26&#45;&gt;3</title>
<path fill="none" stroke="green" stroke-width="0.212352" d="M998.937,-74.8679C1002.79,-71.9436 1007.19,-68.6461 1011.23,-65.6985 1028.01,-53.4753 1047.3,-39.9661 1061.53,-30.0977"/>
<polygon fill="green" stroke="green" stroke-width="0.212352" points="1063.84,-32.7542 1070.08,-24.1886 1059.86,-26.9962 1063.84,-32.7542"/>
</g>
<!-- &#45;27 -->
<g id="node27" class="node"><title>&#45;27</title>
<polygon fill="lightgray" stroke="black" points="1049.73,-93.0833 1020.73,-93.0833 1020.73,-75.0833 1049.73,-75.0833 1049.73,-93.0833"/>
<text text-anchor="middle" x="1035.23" y="-81.8833" font-family="Times New Roman,serif" font-size="9.00">&#45;27</text>
</g>
<!-- &#45;27&#45;&gt;0 -->
<g id="edge105" class="edge"><title>&#45;27&#45;&gt;0</title>
<path fill="none" stroke="green" stroke-width="0.145136" d="M1032.29,-74.8391C1029.1,-65.9084 1023.87,-51.266 1019.42,-38.8041"/>
<polygon fill="green" stroke="green" stroke-width="0.145136" points="1022.59,-37.2636 1015.93,-29.0223 1016,-39.6169 1022.59,-37.2636"/>
</g>
<!-- &#45;27&#45;&gt;1 -->
<g id="edge106" class="edge"><title>&#45;27&#45;&gt;1</title>
<path fill="none" stroke="red" stroke-width="0.205273" d="M1026.4,-74.8391C1015.25,-64.4247 995.779,-46.2431 981.393,-32.8098"/>
<polygon fill="red" stroke="red" stroke-width="0.205273" points="983.707,-30.1818 974.01,-25.9149 978.93,-35.298 983.707,-30.1818"/>
</g>
<!-- &#45;27&#45;&gt;2 -->
<g id="edge107" class="edge"><title>&#45;27&#45;&gt;2</title>
<path fill="none" stroke="red" stroke-width="0.345386" d="M1045.93,-74.8531C1049.78,-71.9274 1054.18,-68.6328 1058.23,-65.6985 1075.31,-53.3423 1095,-39.7499 1109.47,-29.8838"/>
<polygon fill="red" stroke="red" stroke-width="0.345386" points="1111.84,-32.5043 1118.15,-23.9889 1107.91,-26.7146 1111.84,-32.5043"/>
</g>
<!-- &#45;27&#45;&gt;3 -->
<g id="edge108" class="edge"><title>&#45;27&#45;&gt;3</title>
<path fill="none" stroke="red" stroke-width="0.139213" d="M1040.99,-74.8391C1047.69,-65.2662 1058.97,-49.1308 1068.04,-36.1528"/>
<polygon fill="red" stroke="red" stroke-width="0.139213" points="1071.02,-37.9932 1073.88,-27.7919 1065.28,-33.9825 1071.02,-37.9932"/>
</g>
<!-- &#45;28 -->
<g id="node28" class="node"><title>&#45;28</title>
<polygon fill="lightgray" stroke="black" points="1096.73,-93.0833 1067.73,-93.0833 1067.73,-75.0833 1096.73,-75.0833 1096.73,-93.0833"/>
<text text-anchor="middle" x="1082.23" y="-81.8833" font-family="Times New Roman,serif" font-size="9.00">&#45;28</text>
</g>
<!-- &#45;28&#45;&gt;0 -->
<g id="edge109" class="edge"><title>&#45;28&#45;&gt;0</title>
<path fill="none" stroke="red" stroke-width="0.158131" d="M1073.52,-74.8391C1062.53,-64.4247 1043.33,-46.2431 1029.14,-32.8098"/>
<polygon fill="red" stroke="red" stroke-width="0.158131" points="1031.53,-30.2494 1021.86,-25.9149 1026.71,-35.3321 1031.53,-30.2494"/>
</g>
<!-- &#45;28&#45;&gt;1 -->
<g id="edge110" class="edge"><title>&#45;28&#45;&gt;1</title>
<path fill="none" stroke="green" stroke-width="0.322199" d="M1071.73,-74.9234C1067.61,-71.8784 1062.8,-68.4865 1058.23,-65.6985 1028.03,-47.2637 1018.34,-46.5463 987.231,-29.6985 986.416,-29.2575 985.589,-28.8045 984.755,-28.3439"/>
<polygon fill="green" stroke="green" stroke-width="0.322199" points="986.289,-25.1909 975.863,-23.3096 982.841,-31.2823 986.289,-25.1909"/>
</g>
<!-- &#45;28&#45;&gt;2 -->
<g id="edge111" class="edge"><title>&#45;28&#45;&gt;2</title>
<path fill="none" stroke="red" stroke-width="0.106227" d="M1088.12,-74.8391C1095.03,-65.1523 1106.74,-48.7457 1116.07,-35.6906"/>
<polygon fill="red" stroke="red" stroke-width="0.106227" points="1119.09,-37.4841 1122.05,-27.3117 1113.39,-33.4168 1119.09,-37.4841"/>
</g>
<!-- &#45;28&#45;&gt;3 -->
<g id="edge112" class="edge"><title>&#45;28&#45;&gt;3</title>
<path fill="none" stroke="red" stroke-width="0.16144" d="M1082.23,-74.8391C1082.23,-66.1604 1082.23,-52.0878 1082.23,-39.8642"/>
<polygon fill="red" stroke="red" stroke-width="0.16144" points="1085.73,-39.7801 1082.23,-29.7802 1078.73,-39.7802 1085.73,-39.7801"/>
</g>
<!-- &#45;29 -->
<g id="node29" class="node"><title>&#45;29</title>
<polygon fill="lightgray" stroke="black" points="1908.73,-93.0833 1879.73,-93.0833 1879.73,-75.0833 1908.73,-75.0833 1908.73,-93.0833"/>
<text text-anchor="middle" x="1894.23" y="-81.8833" font-family="Times New Roman,serif" font-size="9.00">&#45;29</text>
</g>
<!-- &#45;29&#45;&gt;0 -->
<g id="edge113" class="edge"><title>&#45;29&#45;&gt;0</title>
<path fill="none" stroke="green" stroke-width="0.540391" d="M1885.6,-74.9356C1881.32,-71.4178 1875.87,-67.664 1870.23,-65.6985 1699.69,-6.21345 1236.39,-59.4427 1058.23,-29.6985 1050.47,-28.4036 1042.19,-26.2381 1034.77,-23.9996"/>
<polygon fill="green" stroke="green" stroke-width="0.540391" points="1035.6,-20.5889 1025.01,-20.8697 1033.46,-27.2549 1035.6,-20.5889"/>
</g>
<!-- &#45;29&#45;&gt;2 -->
<g id="edge114" class="edge"><title>&#45;29&#45;&gt;2</title>
<path fill="none" stroke="green" stroke-width="0.364725" d="M1885.58,-74.9935C1881.3,-71.4884 1875.84,-67.7286 1870.23,-65.6985 1734.44,-16.582 1268.6,-15.2656 1155.24,-15.6934"/>
<polygon fill="green" stroke="green" stroke-width="0.364725" points="1155.1,-12.1939 1145.12,-15.7402 1155.13,-19.1938 1155.1,-12.1939"/>
</g>
<!-- &#45;29&#45;&gt;3 -->
<g id="edge115" class="edge"><title>&#45;29&#45;&gt;3</title>
<path fill="none" stroke="green" stroke-width="0.234629" d="M1885.6,-74.9426C1881.32,-71.4263 1875.86,-67.6718 1870.23,-65.6985 1709.82,-9.4997 1269.33,-77.5233 1106.23,-29.6985 1105.17,-29.3872 1104.1,-29.02 1103.05,-28.6095"/>
<polygon fill="green" stroke="green" stroke-width="0.234629" points="1104.44,-25.3962 1093.93,-24.0849 1101.33,-31.6663 1104.44,-25.3962"/>
</g>
<!-- &#45;30 -->
<g id="node30" class="node"><title>&#45;30</title>
<polygon fill="lightgray" stroke="black" points="1143.73,-93.0833 1114.73,-93.0833 1114.73,-75.0833 1143.73,-75.0833 1143.73,-93.0833"/>
<text text-anchor="middle" x="1129.23" y="-81.8833" font-family="Times New Roman,serif" font-size="9.00">&#45;30</text>
</g>
<!-- &#45;30&#45;&gt;0 -->
<g id="edge116" class="edge"><title>&#45;30&#45;&gt;0</title>
<path fill="none" stroke="red" stroke-width="0.295365" d="M1118.7,-74.9676C1114.58,-71.928 1109.77,-68.5282 1105.23,-65.6985 1081.47,-50.8907 1052.89,-36.142 1033.53,-26.5738"/>
<polygon fill="red" stroke="red" stroke-width="0.295365" points="1034.84,-23.3191 1024.32,-22.0695 1031.77,-29.6073 1034.84,-23.3191"/>
</g>
<!-- &#45;30&#45;&gt;1 -->
<g id="edge117" class="edge"><title>&#45;30&#45;&gt;1</title>
<path fill="none" stroke="green" stroke-width="0.144898" d="M1119.43,-74.8511C1115.25,-71.6535 1110.21,-68.1728 1105.23,-65.6985 1056.14,-41.2826 1037.52,-51.5417 987.231,-29.6985 986.381,-29.3296 985.524,-28.9378 984.664,-28.5288"/>
<polygon fill="green" stroke="green" stroke-width="0.144898" points="986.128,-25.3429 975.656,-23.7352 982.84,-31.5225 986.128,-25.3429"/>
</g>
<!-- &#45;30&#45;&gt;2 -->
<g id="edge118" class="edge"><title>&#45;30&#45;&gt;2</title>
<path fill="none" stroke="red" stroke-width="0.217438" d="M1129.35,-74.8391C1129.48,-66.1604 1129.69,-52.0878 1129.87,-39.8642"/>
<polygon fill="red" stroke="red" stroke-width="0.217438" points="1133.37,-39.8312 1130.02,-29.7802 1126.37,-39.727 1133.37,-39.8312"/>
</g>
<!-- &#45;30&#45;&gt;3 -->
<g id="edge119" class="edge"><title>&#45;30&#45;&gt;3</title>
<path fill="none" stroke="green" stroke-width="0.132079" d="M1123.47,-74.8391C1116.78,-65.2662 1105.5,-49.1308 1096.42,-36.1528"/>
<polygon fill="green" stroke="green" stroke-width="0.132079" points="1099.18,-33.9825 1090.58,-27.7919 1093.44,-37.9932 1099.18,-33.9825"/>
</g>
<!-- &#45;31 -->
<g id="node31" class="node"><title>&#45;31</title>
<polygon fill="lightgray" stroke="black" points="1190.73,-93.0833 1161.73,-93.0833 1161.73,-75.0833 1190.73,-75.0833 1190.73,-93.0833"/>
<text text-anchor="middle" x="1176.23" y="-81.8833" font-family="Times New Roman,serif" font-size="9.00">&#45;31</text>
</g>
<!-- &#45;31&#45;&gt;0 -->
<g id="edge120" class="edge"><title>&#45;31&#45;&gt;0</title>
<path fill="none" stroke="green" stroke-width="0.210332" d="M1166.83,-74.9327C1162.83,-71.7476 1157.99,-68.2542 1153.23,-65.6985 1132.37,-54.5042 1069.86,-34.173 1035.14,-23.2543"/>
<polygon fill="green" stroke="green" stroke-width="0.210332" points="1035.93,-19.8319 1025.34,-20.1885 1033.84,-26.513 1035.93,-19.8319"/>
</g>
<!-- &#45;31&#45;&gt;1 -->
<g id="edge121" class="edge"><title>&#45;31&#45;&gt;1</title>
<path fill="none" stroke="green" stroke-width="0.223623" d="M1167.42,-74.9898C1163.36,-71.6575 1158.33,-68.0375 1153.23,-65.6985 1084.62,-34.2003 1057.66,-56.89 987.231,-29.6985 986.367,-29.3649 985.497,-29.0032 984.627,-28.6195"/>
<polygon fill="green" stroke="green" stroke-width="0.223623" points="986.061,-25.4211 975.57,-23.9441 982.851,-31.6412 986.061,-25.4211"/>
</g>
<!-- &#45;31&#45;&gt;2 -->
<g id="edge122" class="edge"><title>&#45;31&#45;&gt;2</title>
<path fill="none" stroke="red" stroke-width="0.112244" d="M1170.59,-74.8391C1164.04,-65.2662 1153,-49.1308 1144.12,-36.1528"/>
<polygon fill="red" stroke="red" stroke-width="0.112244" points="1146.94,-34.0687 1138.4,-27.7919 1141.16,-38.0214 1146.94,-34.0687"/>
</g>
<!-- &#45;31&#45;&gt;3 -->
<g id="edge123" class="edge"><title>&#45;31&#45;&gt;3</title>
<path fill="none" stroke="green" stroke-width="0.398104" d="M1165.52,-74.8679C1161.67,-71.9436 1157.28,-68.6461 1153.23,-65.6985 1136.46,-53.4753 1117.17,-39.9661 1102.93,-30.0977"/>
<polygon fill="green" stroke="green" stroke-width="0.398104" points="1104.6,-26.9962 1094.38,-24.1886 1100.62,-32.7542 1104.6,-26.9962"/>
</g>
<!-- &#45;32 -->
<g id="node32" class="node"><title>&#45;32</title>
<polygon fill="lightgray" stroke="black" points="1237.73,-93.0833 1208.73,-93.0833 1208.73,-75.0833 1237.73,-75.0833 1237.73,-93.0833"/>
<text text-anchor="middle" x="1223.23" y="-81.8833" font-family="Times New Roman,serif" font-size="9.00">&#45;32</text>
</g>
<!-- &#45;32&#45;&gt;0 -->
<g id="edge124" class="edge"><title>&#45;32&#45;&gt;0</title>
<path fill="none" stroke="red" stroke-width="0.162523" d="M1214.38,-75.0734C1210.32,-71.7566 1205.28,-68.1256 1200.23,-65.6985 1141.54,-37.51 1121.02,-46.903 1058.23,-29.6985 1050.65,-27.6206 1042.41,-25.2377 1034.98,-23.0408"/>
<polygon fill="red" stroke="red" stroke-width="0.162523" points="1035.76,-19.6193 1025.18,-20.1104 1033.76,-26.3264 1035.76,-19.6193"/>
</g>
<!-- &#45;32&#45;&gt;1 -->
<g id="edge125" class="edge"><title>&#45;32&#45;&gt;1</title>
<path fill="none" stroke="red" stroke-width="0.135091" d="M1214.47,-74.8777C1210.42,-71.5246 1205.38,-67.9194 1200.23,-65.6985 1112.08,-27.663 1077.57,-62.2049 987.231,-29.6985 986.359,-29.3849 985.483,-29.0403 984.608,-28.6709"/>
<polygon fill="red" stroke="red" stroke-width="0.135091" points="986.027,-25.4663 975.526,-24.0623 982.86,-31.7086 986.027,-25.4663"/>
</g>
<!-- &#45;32&#45;&gt;2 -->
<g id="edge126" class="edge"><title>&#45;32&#45;&gt;2</title>
<path fill="none" stroke="green" stroke-width="0.342513" d="M1212.51,-74.8829C1208.66,-71.9601 1204.27,-68.6596 1200.23,-65.6985 1183.65,-53.5349 1164.64,-40.0211 1150.61,-30.1358"/>
<polygon fill="green" stroke="green" stroke-width="0.342513" points="1152.39,-27.1043 1142.19,-24.2144 1148.36,-32.83 1152.39,-27.1043"/>
</g>
<!-- &#45;32&#45;&gt;3 -->
<g id="edge127" class="edge"><title>&#45;32&#45;&gt;3</title>
<path fill="none" stroke="green" stroke-width="0.206374" d="M1213.8,-74.9997C1209.79,-71.8248 1204.96,-68.3209 1200.23,-65.6985 1161.11,-43.996 1146.62,-48.9381 1106.23,-29.6985 1105.39,-29.3002 1104.55,-28.8836 1103.7,-28.4535"/>
<polygon fill="green" stroke="green" stroke-width="0.206374" points="1105.19,-25.2797 1094.73,-23.5619 1101.84,-31.4244 1105.19,-25.2797"/>
</g>
<!-- &#45;33 -->
<g id="node33" class="node"><title>&#45;33</title>
<polygon fill="lightgray" stroke="black" points="1284.73,-93.0833 1255.73,-93.0833 1255.73,-75.0833 1284.73,-75.0833 1284.73,-93.0833"/>
<text text-anchor="middle" x="1270.23" y="-81.8833" font-family="Times New Roman,serif" font-size="9.00">&#45;33</text>
</g>
<!-- &#45;33&#45;&gt;0 -->
<g id="edge128" class="edge"><title>&#45;33&#45;&gt;0</title>
<path fill="none" stroke="green" stroke-width="0.10757" d="M1261.45,-74.9283C1257.4,-71.5846 1252.35,-67.9728 1247.23,-65.6985 1169.07,-31.008 1141.34,-49.8075 1058.23,-29.6985 1050.59,-27.8493 1042.34,-25.5299 1034.91,-23.3209"/>
<polygon fill="green" stroke="green" stroke-width="0.10757" points="1035.7,-19.9032 1025.12,-20.3322 1033.66,-26.5984 1035.7,-19.9032"/>
</g>
<!-- &#45;33&#45;&gt;1 -->
<g id="edge129" class="edge"><title>&#45;33&#45;&gt;1</title>
<path fill="none" stroke="green" stroke-width="0.123256" d="M1261.5,-74.8045C1257.46,-71.4379 1252.41,-67.8423 1247.23,-65.6985 1139.44,-21.0862 1097.58,-67.5538 987.231,-29.6985 986.355,-29.398 985.475,-29.0644 984.596,-28.7043"/>
<polygon fill="green" stroke="green" stroke-width="0.123256" points="986.007,-25.496 975.499,-24.1393 982.867,-31.7525 986.007,-25.496"/>
</g>
<!-- &#45;33&#45;&gt;2 -->
<g id="edge130" class="edge"><title>&#45;33&#45;&gt;2</title>
<path fill="none" stroke="red" stroke-width="0.149936" d="M1260.3,-74.7343C1256.38,-71.666 1251.74,-68.3076 1247.23,-65.6985 1216.3,-47.7845 1177.71,-32.594 1153.51,-23.8453"/>
<polygon fill="red" stroke="red" stroke-width="0.149936" points="1154.68,-20.5463 1144.08,-20.5012 1152.34,-27.1434 1154.68,-20.5463"/>
</g>
<!-- &#45;33&#45;&gt;3 -->
<g id="edge131" class="edge"><title>&#45;33&#45;&gt;3</title>
<path fill="none" stroke="red" stroke-width="0.235327" d="M1261.38,-75.0775C1257.32,-71.7614 1252.28,-68.1299 1247.23,-65.6985 1188.95,-37.6472 1166.13,-54.089 1106.23,-29.6985 1105.37,-29.3493 1104.51,-28.9742 1103.64,-28.5793"/>
<polygon fill="red" stroke="red" stroke-width="0.235327" points="1105.09,-25.3861 1094.61,-23.8515 1101.84,-31.5885 1105.09,-25.3861"/>
</g>
<!-- &#45;34 -->
<g id="node34" class="node"><title>&#45;34</title>
<polygon fill="lightgray" stroke="black" points="1331.73,-93.0833 1302.73,-93.0833 1302.73,-75.0833 1331.73,-75.0833 1331.73,-93.0833"/>
<text text-anchor="middle" x="1317.23" y="-81.8833" font-family="Times New Roman,serif" font-size="9.00">&#45;34</text>
</g>
<!-- &#45;34&#45;&gt;0 -->
<g id="edge132" class="edge"><title>&#45;34&#45;&gt;0</title>
<path fill="none" stroke="green" stroke-width="0.105845" d="M1308.49,-74.8384C1304.44,-71.478 1299.4,-67.878 1294.23,-65.6985 1196.48,-24.448 1161.8,-52.746 1058.23,-29.6985 1050.56,-27.9904 1042.29,-25.7102 1034.87,-23.4937"/>
<polygon fill="green" stroke="green" stroke-width="0.105845" points="1035.67,-20.0781 1025.09,-20.469 1033.61,-26.766 1035.67,-20.0781"/>
</g>
<!-- &#45;34&#45;&gt;1 -->
<g id="edge133" class="edge"><title>&#45;34&#45;&gt;1</title>
<path fill="none" stroke="red" stroke-width="0.225374" d="M1308.52,-74.7531C1304.49,-71.377 1299.43,-67.7882 1294.23,-65.6985 1166.75,-14.4884 1117.63,-72.9203 987.231,-29.6985 986.352,-29.4071 985.469,-29.0813 984.588,-28.7278"/>
<polygon fill="red" stroke="red" stroke-width="0.225374" points="985.993,-25.5171 975.481,-24.1933 982.873,-31.7834 985.993,-25.5171"/>
</g>
<!-- &#45;34&#45;&gt;2 -->
<g id="edge134" class="edge"><title>&#45;34&#45;&gt;2</title>
<path fill="none" stroke="red" stroke-width="0.352798" d="M1307.89,-74.8306C1303.89,-71.6298 1299.05,-68.1523 1294.23,-65.6985 1247.78,-42.033 1188.1,-27.4122 1155.05,-20.5401"/>
<polygon fill="red" stroke="red" stroke-width="0.352798" points="1155.41,-17.0435 1144.92,-18.5047 1154.03,-23.9063 1155.41,-17.0435"/>
</g>
<!-- &#45;34&#45;&gt;3 -->
<g id="edge135" class="edge"><title>&#45;34&#45;&gt;3</title>
<path fill="none" stroke="green" stroke-width="0.403008" d="M1308.45,-74.9307C1304.4,-71.5874 1299.35,-67.9753 1294.23,-65.6985 1216.49,-31.1471 1185.96,-59.3719 1106.23,-29.6985 1105.36,-29.3755 1104.49,-29.0227 1103.62,-28.6466"/>
<polygon fill="green" stroke="green" stroke-width="0.403008" points="1105.04,-25.4448 1094.55,-24.0064 1101.86,-31.6767 1105.04,-25.4448"/>
</g>
<!-- &#45;35 -->
<g id="node35" class="node"><title>&#45;35</title>
<polygon fill="lightgray" stroke="black" points="1378.73,-93.0833 1349.73,-93.0833 1349.73,-75.0833 1378.73,-75.0833 1378.73,-93.0833"/>
<text text-anchor="middle" x="1364.23" y="-81.8833" font-family="Times New Roman,serif" font-size="9.00">&#45;35</text>
</g>
<!-- &#45;35&#45;&gt;0 -->
<g id="edge136" class="edge"><title>&#45;35&#45;&gt;0</title>
<path fill="none" stroke="red" stroke-width="0.306892" d="M1355.51,-74.7773C1351.47,-71.4056 1346.42,-67.8137 1341.23,-65.6985 1223.81,-17.8594 1182.33,-55.7004 1058.23,-29.6985 1050.53,-28.0859 1042.27,-25.8322 1034.85,-23.6106"/>
<polygon fill="red" stroke="red" stroke-width="0.306892" points="1035.65,-20.1964 1025.07,-20.5616 1033.57,-26.8792 1035.65,-20.1964"/>
</g>
<!-- &#45;35&#45;&gt;1 -->
<g id="edge137" class="edge"><title>&#45;35&#45;&gt;1</title>
<path fill="none" stroke="green" stroke-width="0.141847" d="M1355.97,-75.0767C1351.86,-71.5898 1346.63,-67.8213 1341.23,-65.6985 1194.03,-7.87834 1137.72,-78.2973 987.231,-29.6985 986.178,-29.3585 985.12,-28.9678 984.068,-28.5382"/>
<polygon fill="green" stroke="green" stroke-width="0.141847" points="985.478,-25.3295 974.974,-23.9436 982.321,-31.5773 985.478,-25.3295"/>
</g>
<!-- &#45;35&#45;&gt;2 -->
<g id="edge138" class="edge"><title>&#45;35&#45;&gt;2</title>
<path fill="none" stroke="green" stroke-width="0.424068" d="M1355.4,-75.0343C1351.34,-71.7102 1346.3,-68.0844 1341.23,-65.6985 1278.05,-35.9833 1195.65,-23.1585 1155.05,-18.3482"/>
<polygon fill="green" stroke="green" stroke-width="0.424068" points="1155.32,-14.8558 1144.99,-17.2203 1154.54,-21.8122 1155.32,-14.8558"/>
</g>
<!-- &#45;35&#45;&gt;3 -->
<g id="edge139" class="edge"><title>&#45;35&#45;&gt;3</title>
<path fill="none" stroke="red" stroke-width="0.531994" d="M1355.49,-74.8399C1351.44,-71.4798 1346.39,-67.8796 1341.23,-65.6985 1243.89,-24.5879 1205.93,-64.7057 1106.23,-29.6985 1105.36,-29.3917 1104.48,-29.0527 1103.6,-28.6881"/>
<polygon fill="red" stroke="red" stroke-width="0.531994" points="1105.02,-25.4816 1094.51,-24.102 1101.86,-31.7313 1105.02,-25.4816"/>
</g>
<!-- &#45;36 -->
<g id="node36" class="node"><title>&#45;36</title>
<polygon fill="lightgray" stroke="black" points="1425.73,-93.0833 1396.73,-93.0833 1396.73,-75.0833 1425.73,-75.0833 1425.73,-93.0833"/>
<text text-anchor="middle" x="1411.23" y="-81.8833" font-family="Times New Roman,serif" font-size="9.00">&#45;36</text>
</g>
<!-- &#45;36&#45;&gt;0 -->
<g id="edge140" class="edge"><title>&#45;36&#45;&gt;0</title>
<path fill="none" stroke="red" stroke-width="0.395303" d="M1402.53,-74.7332C1398.49,-71.3534 1393.44,-67.7672 1388.23,-65.6985 1251.11,-11.2549 1202.9,-58.6636 1058.23,-29.6985 1050.52,-28.1547 1042.25,-25.9201 1034.83,-23.6949"/>
<polygon fill="red" stroke="red" stroke-width="0.395303" points="1035.64,-20.2815 1025.05,-20.6283 1033.55,-26.9607 1035.64,-20.2815"/>
</g>
<!-- &#45;36&#45;&gt;1 -->
<g id="edge141" class="edge"><title>&#45;36&#45;&gt;1</title>
<path fill="none" stroke="red" stroke-width="0.491302" d="M1402.98,-75.0481C1398.88,-71.5549 1393.65,-67.7894 1388.23,-65.6985 1221.3,-1.26037 1157.83,-83.681 987.231,-29.6985 986.176,-29.3647 985.117,-28.9791 984.063,-28.5537"/>
<polygon fill="red" stroke="red" stroke-width="0.491302" points="985.47,-25.3439 974.964,-23.9743 982.323,-31.5966 985.47,-25.3439"/>
</g>
<!-- &#45;36&#45;&gt;2 -->
<g id="edge142" class="edge"><title>&#45;36&#45;&gt;2</title>
<path fill="none" stroke="red" stroke-width="0.309349" d="M1402.45,-74.9348C1398.39,-71.5922 1393.35,-67.9796 1388.23,-65.6985 1308.18,-30.0399 1202.99,-19.8276 1155.47,-16.9512"/>
<polygon fill="red" stroke="red" stroke-width="0.309349" points="1155.37,-13.4407 1145.19,-16.3915 1154.99,-20.4303 1155.37,-13.4407"/>
</g>
<!-- &#45;36&#45;&gt;3 -->
<g id="edge143" class="edge"><title>&#45;36&#45;&gt;3</title>
<path fill="none" stroke="red" stroke-width="0.132049" d="M1402.51,-74.7784C1398.47,-71.4069 1393.42,-67.8148 1388.23,-65.6985 1271.23,-17.9998 1225.96,-70.0641 1106.23,-29.6985 1105.35,-29.4026 1104.47,-29.073 1103.59,-28.7163"/>
<polygon fill="red" stroke="red" stroke-width="0.132049" points="1105,-25.5067 1094.49,-24.1668 1101.87,-31.7682 1105,-25.5067"/>
</g>
<!-- &#45;37 -->
<g id="node37" class="node"><title>&#45;37</title>
<polygon fill="lightgray" stroke="black" points="1472.73,-93.0833 1443.73,-93.0833 1443.73,-75.0833 1472.73,-75.0833 1472.73,-93.0833"/>
<text text-anchor="middle" x="1458.23" y="-81.8833" font-family="Times New Roman,serif" font-size="9.00">&#45;37</text>
</g>
<!-- &#45;37&#45;&gt;0 -->
<g id="edge144" class="edge"><title>&#45;37&#45;&gt;0</title>
<path fill="none" stroke="green" stroke-width="0.208535" d="M1449.97,-75.0618C1445.87,-71.5717 1440.64,-67.8047 1435.23,-65.6985 1278.38,-4.64055 1223.49,-61.632 1058.23,-29.6985 1050.51,-28.2067 1042.24,-25.9865 1034.82,-23.7585"/>
<polygon fill="green" stroke="green" stroke-width="0.208535" points="1035.63,-20.3457 1025.04,-20.6787 1033.53,-27.0222 1035.63,-20.3457"/>
</g>
<!-- &#45;37&#45;&gt;1 -->
<g id="edge145" class="edge"><title>&#45;37&#45;&gt;1</title>
<path fill="none" stroke="red" stroke-width="0.186624" d="M1449.99,-75.0253C1445.89,-71.5272 1440.66,-67.764 1435.23,-65.6985 1248.54,5.36295 1177.96,-89.0691 987.231,-29.6985 986.174,-29.3696 985.114,-28.9881 984.059,-28.5659"/>
<polygon fill="red" stroke="red" stroke-width="0.186624" points="985.464,-25.3554 974.957,-23.9986 982.325,-31.6119 985.464,-25.3554"/>
</g>
<!-- &#45;37&#45;&gt;2 -->
<g id="edge146" class="edge"><title>&#45;37&#45;&gt;2</title>
<path fill="none" stroke="red" stroke-width="0.558876" d="M1449.48,-74.8644C1445.43,-71.5089 1440.38,-67.9054 1435.23,-65.6985 1337.84,-23.9917 1209.24,-16.9664 1155.51,-15.9344"/>
<polygon fill="red" stroke="red" stroke-width="0.558876" points="1155.27,-12.4308 1145.22,-15.7948 1155.17,-19.4302 1155.27,-12.4308"/>
</g>
<!-- &#45;37&#45;&gt;3 -->
<g id="edge147" class="edge"><title>&#45;37&#45;&gt;3</title>
<path fill="none" stroke="green" stroke-width="0.154567" d="M1449.53,-74.734C1445.49,-71.3543 1440.44,-67.7681 1435.23,-65.6985 1298.53,-11.3955 1246.03,-75.4362 1106.23,-29.6985 1105.35,-29.4105 1104.47,-29.0876 1103.59,-28.7365"/>
<polygon fill="green" stroke="green" stroke-width="0.154567" points="1104.99,-25.525 1094.47,-24.2134 1101.87,-31.7949 1104.99,-25.525"/>
</g>
<!-- &#45;38 -->
<g id="node38" class="node"><title>&#45;38</title>
<polygon fill="lightgray" stroke="black" points="1519.73,-93.0833 1490.73,-93.0833 1490.73,-75.0833 1519.73,-75.0833 1519.73,-93.0833"/>
<text text-anchor="middle" x="1505.23" y="-81.8833" font-family="Times New Roman,serif" font-size="9.00">&#45;38</text>
</g>
<!-- &#45;38&#45;&gt;0 -->
<g id="edge148" class="edge"><title>&#45;38&#45;&gt;0</title>
<path fill="none" stroke="red" stroke-width="0.256421" d="M1496.98,-75.0363C1492.88,-71.5406 1487.65,-67.7763 1482.23,-65.6985 1305.63,1.98028 1244.1,-64.6038 1058.23,-29.6985 1050.5,-28.2472 1042.23,-26.0383 1034.81,-23.8081"/>
<polygon fill="red" stroke="red" stroke-width="0.256421" points="1035.63,-20.3958 1025.04,-20.718 1033.51,-27.0701 1035.63,-20.3958"/>
</g>
<!-- &#45;38&#45;&gt;1 -->
<g id="edge149" class="edge"><title>&#45;38&#45;&gt;1</title>
<path fill="none" stroke="green" stroke-width="0.291682" d="M1496.99,-75.0069C1492.9,-71.5046 1487.66,-67.7434 1482.23,-65.6985 1275.78,11.9901 1198.09,-94.4603 987.231,-29.6985 986.173,-29.3736 985.112,-28.9954 984.056,-28.5759"/>
<polygon fill="green" stroke="green" stroke-width="0.291682" points="985.46,-25.3647 974.951,-24.0183 982.326,-31.6243 985.46,-25.3647"/>
</g>
<!-- &#45;38&#45;&gt;2 -->
<g id="edge150" class="edge"><title>&#45;38&#45;&gt;2</title>
<path fill="none" stroke="green" stroke-width="0.299965" d="M1496.5,-74.8121C1492.46,-71.4469 1487.41,-67.8504 1482.23,-65.6985 1367.38,-17.9571 1215.24,-14.4883 1155.67,-15.1744"/>
<polygon fill="green" stroke="green" stroke-width="0.299965" points="1155.28,-11.6804 1145.34,-15.3481 1155.4,-18.6794 1155.28,-11.6804"/>
</g>
<!-- &#45;38&#45;&gt;3 -->
<g id="edge151" class="edge"><title>&#45;38&#45;&gt;3</title>
<path fill="none" stroke="red" stroke-width="0.258466" d="M1496.97,-75.0625C1492.87,-71.5724 1487.64,-67.8054 1482.23,-65.6985 1325.8,-4.78136 1266.13,-80.8167 1106.23,-29.6985 1105.18,-29.3616 1104.12,-28.9734 1103.07,-28.5459"/>
<polygon fill="red" stroke="red" stroke-width="0.258466" points="1104.47,-25.3367 1093.97,-23.9589 1101.32,-31.5869 1104.47,-25.3367"/>
</g>
<!-- &#45;39 -->
<g id="node39" class="node"><title>&#45;39</title>
<polygon fill="lightgray" stroke="black" points="1566.73,-93.0833 1537.73,-93.0833 1537.73,-75.0833 1566.73,-75.0833 1566.73,-93.0833"/>
<text text-anchor="middle" x="1552.23" y="-81.8833" font-family="Times New Roman,serif" font-size="9.00">&#45;39</text>
</g>
<!-- &#45;39&#45;&gt;0 -->
<g id="edge152" class="edge"><title>&#45;39&#45;&gt;0</title>
<path fill="none" stroke="red" stroke-width="0.145299" d="M1543.99,-75.0158C1539.89,-71.5156 1534.66,-67.7535 1529.23,-65.6985 1332.88,8.6056 1264.73,-67.5779 1058.23,-29.6985 1050.5,-28.2797 1042.22,-26.0799 1034.8,-23.848"/>
<polygon fill="red" stroke="red" stroke-width="0.145299" points="1035.62,-20.436 1025.03,-20.7496 1033.5,-27.1086 1035.62,-20.436"/>
</g>
<!-- &#45;39&#45;&gt;1 -->
<g id="edge153" class="edge"><title>&#45;39&#45;&gt;1</title>
<path fill="none" stroke="green" stroke-width="0.217537" d="M1544,-74.9916C1539.9,-71.486 1534.67,-67.7264 1529.23,-65.6985 1303.01,18.6199 1218.23,-99.8539 987.231,-29.6985 986.172,-29.377 985.11,-29.0014 984.053,-28.5842"/>
<polygon fill="green" stroke="green" stroke-width="0.217537" points="985.456,-25.3724 974.946,-24.0347 982.328,-31.6346 985.456,-25.3724"/>
</g>
<!-- &#45;39&#45;&gt;2 -->
<g id="edge154" class="edge"><title>&#45;39&#45;&gt;2</title>
<path fill="none" stroke="green" stroke-width="0.34381" d="M1543.52,-74.7718C1539.48,-71.3991 1534.42,-67.8079 1529.23,-65.6985 1460.65,-37.8461 1231.88,-21.9307 1155.39,-17.2887"/>
<polygon fill="green" stroke="green" stroke-width="0.34381" points="1155.43,-13.7853 1145.24,-16.6855 1155.02,-20.773 1155.43,-13.7853"/>
</g>
<!-- &#45;39&#45;&gt;3 -->
<g id="edge155" class="edge"><title>&#45;39&#45;&gt;3</title>
<path fill="none" stroke="green" stroke-width="0.211559" d="M1543.98,-75.0368C1539.88,-71.5412 1534.65,-67.7768 1529.23,-65.6985 1353.05,1.83936 1286.25,-86.2026 1106.23,-29.6985 1105.17,-29.3671 1104.12,-28.9835 1103.06,-28.5598"/>
<polygon fill="green" stroke="green" stroke-width="0.211559" points="1104.47,-25.3496 1093.96,-23.9863 1101.32,-31.6042 1104.47,-25.3496"/>
</g>
<!-- &#45;40 -->
<g id="node40" class="node"><title>&#45;40</title>
<polygon fill="lightgray" stroke="black" points="81.7306,-156.468 52.7306,-156.468 52.7306,-138.468 81.7306,-138.468 81.7306,-156.468"/>
<text text-anchor="middle" x="67.2306" y="-145.268" font-family="Times New Roman,serif" font-size="9.00">&#45;40</text>
</g>
<!-- &#45;40&#45;&gt;0 -->
<g id="edge156" class="edge"><title>&#45;40&#45;&gt;0</title>
<path fill="none" stroke="green" stroke-width="0.120769" stroke-dasharray="1,5" d="M59.7461,-138.186C46.1003,-122.092 20.3373,-86.3623 40.2306,-65.6985 76.7451,-27.7694 936.642,-44.2831 987.231,-29.6985 988.294,-29.392 989.36,-29.0288 990.419,-28.6215"/>
<polygon fill="green" stroke="green" stroke-width="0.120769" points="992.127,-31.6813 999.537,-24.1087 989.022,-25.4075 992.127,-31.6813"/>
</g>
<!-- &#45;40&#45;&gt;1 -->
<g id="edge157" class="edge"><title>&#45;40&#45;&gt;1</title>
<path fill="none" stroke="green" stroke-width="0.208051" d="M52.7285,-140.578C38.2041,-133.796 16.6895,-121.134 7.23056,-102.468 -0.156292,-87.8908 -4.02011,-77.5511 7.23056,-65.6985 40.2316,-30.9318 790.382,-18.3404 938.106,-16.194"/>
<polygon fill="green" stroke="green" stroke-width="0.208051" points="938.452,-19.6895 948.401,-16.0473 938.352,-12.6903 938.452,-19.6895"/>
</g>
<!-- &#45;40&#45;&gt;2 -->
<g id="edge158" class="edge"><title>&#45;40&#45;&gt;2</title>
<path fill="none" stroke="red" stroke-width="0.454781" d="M81.9882,-146.407C255.529,-145.661 1901.86,-137.659 1936.23,-102.468 1947.65,-90.7773 1947.42,-77.6054 1936.23,-65.6985 1908.79,-36.5127 1287.8,-19.7046 1155.06,-16.4381"/>
<polygon fill="red" stroke="red" stroke-width="0.454781" points="1155.12,-12.9389 1145.04,-16.1948 1154.95,-19.9368 1155.12,-12.9389"/>
</g>
<!-- &#45;40&#45;&gt;3 -->
<g id="edge159" class="edge"><title>&#45;40&#45;&gt;3</title>
<path fill="none" stroke="red" stroke-width="0.319231" d="M81.8461,-146.405C253.716,-145.626 1884.19,-137.325 1918.23,-102.468 1929.65,-90.776 1929.53,-77.5072 1918.23,-65.6985 1855.8,-0.44018 1192.93,-54.9895 1106.23,-29.6985 1105.17,-29.3886 1104.1,-29.0227 1103.04,-28.6132"/>
<polygon fill="red" stroke="red" stroke-width="0.319231" points="1104.44,-25.3997 1093.93,-24.0922 1101.33,-31.6708 1104.44,-25.3997"/>
</g>
<!-- 19 -->
<g id="node46" class="node"><title>19</title>
<ellipse fill="white" stroke="black" cx="67.2306" cy="-84.0833" rx="18.2703" ry="18.2703"/>
<text text-anchor="middle" x="67.2306" y="-81.8833" font-family="Times New Roman,serif" font-size="9.00">19</text>
</g>
<!-- &#45;40&#45;&gt;19 -->
<g id="edge162" class="edge"><title>&#45;40&#45;&gt;19</title>
<path fill="none" stroke="green" stroke-width="0.3" d="M67.2306,-138.443C67.2306,-131.879 67.2306,-122.189 67.2306,-112.862"/>
<polygon fill="green" stroke="green" stroke-width="0.3" points="70.7307,-112.671 67.2306,-102.671 63.7307,-112.671 70.7307,-112.671"/>
</g>
<!-- 10&#45;&gt;2 -->
<g id="edge161" class="edge"><title>10&#45;&gt;2</title>
<path fill="none" stroke="red" stroke-width="0.141673" d="M2082.2,-73.1338C2077.03,-70.2068 2071.07,-67.3494 2065.23,-65.6985 1887.2,-15.3788 1286.6,-15.1321 1155.6,-15.696"/>
<polygon fill="red" stroke="red" stroke-width="0.141673" points="1155.35,-12.1971 1145.36,-15.7462 1155.38,-19.197 1155.35,-12.1971"/>
</g>
<!-- 19&#45;&gt;0 -->
<g id="edge163" class="edge"><title>19&#45;&gt;0</title>
<path fill="none" stroke="red" stroke-width="0.339978" d="M84.5857,-77.7376C98.6344,-73.6627 119.011,-68.3195 137.231,-65.6985 324.362,-38.778 805.685,-82.4636 987.231,-29.6985 988.293,-29.3897 989.358,-29.0246 990.417,-28.6158"/>
<polygon fill="red" stroke="red" stroke-width="0.339978" points="992.128,-31.6741 999.534,-24.0974 989.02,-25.4022 992.128,-31.6741"/>
</g>
</g>
</svg>
