<?xml version="1.0" encoding="UTF-8" standalone="no"?>
<!DOCTYPE svg PUBLIC "-//W3C//DTD SVG 1.1//EN"
 "http://www.w3.org/Graphics/SVG/1.1/DTD/svg11.dtd">
<!-- Generated by graphviz version 2.38.0 (20140413.2041)
 -->
<!-- Title: %3 Pages: 1 -->
<svg width="1955pt" height="170pt"
 viewBox="0.00 0.00 1955.09 170.12" xmlns="http://www.w3.org/2000/svg" xmlns:xlink="http://www.w3.org/1999/xlink">
<g id="graph0" class="graph" transform="scale(1 1) rotate(0) translate(4 166.125)">
<title>%3</title>
<polygon fill="white" stroke="none" points="-4,4 -4,-166.125 1951.09,-166.125 1951.09,4 -4,4"/>
<!-- &#45;1 -->
<g id="node1" class="node"><title>&#45;1</title>
<polygon fill="lightgray" stroke="black" points="223.798,-95.9117 199.798,-95.9117 199.798,-77.9117 223.798,-77.9117 223.798,-95.9117"/>
<text text-anchor="middle" x="211.798" y="-84.7117" font-family="Times New Roman,serif" font-size="9.00">&#45;1</text>
</g>
<!-- 0 -->
<g id="node41" class="node"><title>0</title>
<ellipse fill="lightblue" stroke="black" cx="827.798" cy="-14.8492" rx="14.7" ry="14.7"/>
<text text-anchor="middle" x="827.798" y="-12.6492" font-family="Times New Roman,serif" font-size="9.00">0</text>
</g>
<!-- &#45;1&#45;&gt;0 -->
<g id="edge1" class="edge"><title>&#45;1&#45;&gt;0</title>
<path fill="none" stroke="red" stroke-width="0.171183" d="M217.872,-77.8079C221.647,-73.4222 226.897,-68.3689 232.798,-65.6985 336.92,-18.5812 703.104,-15.6484 802.655,-15.741"/>
<polygon fill="red" stroke="red" stroke-width="0.171183" points="802.939,-19.2415 812.947,-15.7628 802.954,-12.2415 802.939,-19.2415"/>
</g>
<!-- 1 -->
<g id="node42" class="node"><title>1</title>
<ellipse fill="lightblue" stroke="black" cx="875.798" cy="-14.8492" rx="14.7" ry="14.7"/>
<text text-anchor="middle" x="875.798" y="-12.6492" font-family="Times New Roman,serif" font-size="9.00">1</text>
</g>
<!-- &#45;1&#45;&gt;1 -->
<g id="edge2" class="edge"><title>&#45;1&#45;&gt;1</title>
<path fill="none" stroke="red" stroke-width="0.116597" d="M217.847,-77.7513C221.613,-73.3467 226.863,-68.2934 232.798,-65.6985 359.045,-10.4969 719.792,-69.1962 851.798,-29.6985 852.858,-29.3813 853.921,-29.0093 854.978,-28.595"/>
<polygon fill="red" stroke="red" stroke-width="0.116597" points="856.699,-31.6481 864.089,-24.0562 853.578,-25.3826 856.699,-31.6481"/>
</g>
<!-- 2 -->
<g id="node43" class="node"><title>2</title>
<ellipse fill="lightblue" stroke="black" cx="1004.8" cy="-14.8492" rx="14.7" ry="14.7"/>
<text text-anchor="middle" x="1004.8" y="-12.6492" font-family="Times New Roman,serif" font-size="9.00">2</text>
</g>
<!-- &#45;1&#45;&gt;2 -->
<g id="edge3" class="edge"><title>&#45;1&#45;&gt;2</title>
<path fill="none" stroke="green" stroke-width="0.369371" d="M217.838,-77.7323C221.602,-73.3213 226.852,-68.268 232.798,-65.6985 381.075,-1.61761 799.622,-57.1848 958.798,-29.6985 966.197,-28.4208 974.081,-26.3289 981.194,-24.1535"/>
<polygon fill="green" stroke="green" stroke-width="0.369371" points="982.49,-27.4126 990.917,-20.9916 980.325,-20.7558 982.49,-27.4126"/>
</g>
<!-- 3 -->
<g id="node44" class="node"><title>3</title>
<ellipse fill="lightblue" stroke="black" cx="934.798" cy="-14.8492" rx="14.7" ry="14.7"/>
<text text-anchor="middle" x="934.798" y="-12.6492" font-family="Times New Roman,serif" font-size="9.00">3</text>
</g>
<!-- &#45;1&#45;&gt;3 -->
<g id="edge4" class="edge"><title>&#45;1&#45;&gt;3</title>
<path fill="none" stroke="red" stroke-width="0.211275" d="M217.843,-77.742C221.608,-73.3343 226.858,-68.281 232.798,-65.6985 368.926,-6.51406 754.789,-61.4187 899.798,-29.6985 903.917,-28.7973 908.184,-27.4705 912.262,-25.9898"/>
<polygon fill="red" stroke="red" stroke-width="0.211275" points="913.846,-29.1253 921.818,-22.1472 911.234,-22.6307 913.846,-29.1253"/>
</g>
<!-- &#45;2 -->
<g id="node2" class="node"><title>&#45;2</title>
<polygon fill="lightgray" stroke="black" points="265.798,-95.9117 241.798,-95.9117 241.798,-77.9117 265.798,-77.9117 265.798,-95.9117"/>
<text text-anchor="middle" x="253.798" y="-84.7117" font-family="Times New Roman,serif" font-size="9.00">&#45;2</text>
</g>
<!-- &#45;2&#45;&gt;0 -->
<g id="edge5" class="edge"><title>&#45;2&#45;&gt;0</title>
<path fill="none" stroke="red" stroke-width="0.590495" d="M259.878,-77.8218C263.655,-73.4408 268.905,-68.3875 274.798,-65.6985 370.859,-21.8629 707.489,-16.5469 802.598,-15.9254"/>
<polygon fill="red" stroke="red" stroke-width="0.590495" points="802.749,-19.4248 812.73,-15.8716 802.711,-12.4249 802.749,-19.4248"/>
</g>
<!-- &#45;2&#45;&gt;1 -->
<g id="edge6" class="edge"><title>&#45;2&#45;&gt;1</title>
<path fill="none" stroke="green" stroke-width="0.2485" d="M259.851,-77.7607C263.618,-73.3592 268.868,-68.3059 274.798,-65.6985 392.4,-13.9812 728.796,-66.785 851.798,-29.6985 852.857,-29.3791 853.92,-29.0053 854.977,-28.5894"/>
<polygon fill="green" stroke="green" stroke-width="0.2485" points="856.7,-31.6412 864.086,-24.0452 853.575,-25.3774 856.7,-31.6412"/>
</g>
<!-- &#45;2&#45;&gt;2 -->
<g id="edge7" class="edge"><title>&#45;2&#45;&gt;2</title>
<path fill="none" stroke="red" stroke-width="0.101533" stroke-dasharray="1,5" d="M259.841,-77.739C263.606,-73.3304 268.856,-68.2771 274.798,-65.6985 414.427,-5.10331 808.847,-55.8264 958.798,-29.6985 966.195,-28.4096 974.079,-26.3143 981.192,-24.1393"/>
<polygon fill="red" stroke="red" stroke-width="0.101533" points="982.486,-27.399 990.915,-20.9803 980.323,-20.7415 982.486,-27.399"/>
</g>
<!-- &#45;2&#45;&gt;3 -->
<g id="edge8" class="edge"><title>&#45;2&#45;&gt;3</title>
<path fill="none" stroke="red" stroke-width="0.197673" stroke-dasharray="1,5" d="M259.846,-77.7501C263.612,-73.3451 268.862,-68.2918 274.798,-65.6985 402.28,-9.99906 763.946,-59.673 899.798,-29.6985 903.916,-28.7899 908.181,-27.4594 912.259,-25.9773"/>
<polygon fill="red" stroke="red" stroke-width="0.197673" points="913.843,-29.113 921.815,-22.1353 911.232,-22.6182 913.843,-29.113"/>
</g>
<!-- &#45;3 -->
<g id="node3" class="node"><title>&#45;3</title>
<polygon fill="lightgray" stroke="black" points="307.798,-95.9117 283.798,-95.9117 283.798,-77.9117 307.798,-77.9117 307.798,-95.9117"/>
<text text-anchor="middle" x="295.798" y="-84.7117" font-family="Times New Roman,serif" font-size="9.00">&#45;3</text>
</g>
<!-- &#45;3&#45;&gt;0 -->
<g id="edge9" class="edge"><title>&#45;3&#45;&gt;0</title>
<path fill="none" stroke="green" stroke-width="0.117272" d="M301.886,-77.8381C305.665,-73.4624 310.915,-68.4091 316.798,-65.6985 404.809,-25.1451 711.942,-17.5188 802.489,-16.1413"/>
<polygon fill="green" stroke="green" stroke-width="0.117272" points="802.707,-19.6387 812.657,-15.9996 802.609,-12.6394 802.707,-19.6387"/>
</g>
<!-- &#45;3&#45;&gt;1 -->
<g id="edge10" class="edge"><title>&#45;3&#45;&gt;1</title>
<path fill="none" stroke="green" stroke-width="0.156378" d="M301.856,-77.7715C305.625,-73.3737 310.875,-68.3204 316.798,-65.6985 425.757,-17.4646 737.797,-64.3745 851.798,-29.6985 852.856,-29.3765 853.918,-29.0006 854.975,-28.583"/>
<polygon fill="green" stroke="green" stroke-width="0.156378" points="856.701,-31.6332 864.082,-24.0324 853.572,-25.3714 856.701,-31.6332"/>
</g>
<!-- &#45;3&#45;&gt;2 -->
<g id="edge11" class="edge"><title>&#45;3&#45;&gt;2</title>
<path fill="none" stroke="red" stroke-width="0.337738" d="M301.845,-77.7467C305.61,-73.3406 310.86,-68.2873 316.798,-65.6985 447.779,-8.58853 818.07,-54.4682 958.798,-29.6985 966.193,-28.3969 974.076,-26.2979 981.189,-24.1233"/>
<polygon fill="red" stroke="red" stroke-width="0.337738" points="982.482,-27.3835 990.913,-20.9674 980.321,-20.7254 982.482,-27.3835"/>
</g>
<!-- &#45;3&#45;&gt;3 -->
<g id="edge12" class="edge"><title>&#45;3&#45;&gt;3</title>
<path fill="none" stroke="green" stroke-width="0.2506" d="M301.85,-77.7593C305.618,-73.3573 310.868,-68.304 316.798,-65.6985 435.635,-13.4834 773.102,-57.9276 899.798,-29.6985 903.914,-28.7814 908.179,-27.4466 912.256,-25.9631"/>
<polygon fill="green" stroke="green" stroke-width="0.2506" points="913.839,-29.0988 921.812,-22.1218 911.229,-22.6039 913.839,-29.0988"/>
</g>
<!-- &#45;4 -->
<g id="node4" class="node"><title>&#45;4</title>
<polygon fill="lightgray" stroke="black" points="349.798,-95.9117 325.798,-95.9117 325.798,-77.9117 349.798,-77.9117 349.798,-95.9117"/>
<text text-anchor="middle" x="337.798" y="-84.7117" font-family="Times New Roman,serif" font-size="9.00">&#45;4</text>
</g>
<!-- &#45;4&#45;&gt;0 -->
<g id="edge13" class="edge"><title>&#45;4&#45;&gt;0</title>
<path fill="none" stroke="red" stroke-width="0.570068" d="M343.894,-77.8571C347.677,-73.4878 352.927,-68.4345 358.798,-65.6985 438.965,-28.3384 717.814,-18.534 802.932,-16.3831"/>
<polygon fill="red" stroke="red" stroke-width="0.570068" points="803.062,-19.8811 812.976,-16.1427 802.895,-12.8831 803.062,-19.8811"/>
</g>
<!-- &#45;4&#45;&gt;1 -->
<g id="edge14" class="edge"><title>&#45;4&#45;&gt;1</title>
<path fill="none" stroke="red" stroke-width="0.13287" d="M343.861,-77.7842C347.632,-73.3906 352.882,-68.3373 358.798,-65.6985 559.434,23.8043 641.795,-94.2309 851.798,-29.6985 852.855,-29.3735 853.917,-28.9951 854.972,-28.5755"/>
<polygon fill="red" stroke="red" stroke-width="0.13287" points="856.702,-31.6238 864.077,-24.0176 853.568,-25.3643 856.702,-31.6238"/>
</g>
<!-- &#45;4&#45;&gt;2 -->
<g id="edge15" class="edge"><title>&#45;4&#45;&gt;2</title>
<path fill="none" stroke="green" stroke-width="0.267686" d="M343.848,-77.7554C347.615,-73.3522 352.865,-68.2989 358.798,-65.6985 481.134,-12.0732 827.292,-53.1103 958.798,-29.6985 966.19,-28.3824 974.072,-26.2791 981.186,-24.1051"/>
<polygon fill="green" stroke="green" stroke-width="0.267686" points="982.477,-27.3659 990.91,-20.9527 980.318,-20.707 982.477,-27.3659"/>
</g>
<!-- &#45;4&#45;&gt;3 -->
<g id="edge16" class="edge"><title>&#45;4&#45;&gt;3</title>
<path fill="none" stroke="red" stroke-width="0.206236" d="M343.855,-77.7699C347.624,-73.3715 352.874,-68.3182 358.798,-65.6985 468.991,-16.9671 782.256,-56.1826 899.798,-29.6985 903.912,-28.7716 908.175,-27.4319 912.252,-25.9466"/>
<polygon fill="red" stroke="red" stroke-width="0.206236" points="913.835,-29.0825 921.809,-22.1061 911.225,-22.5874 913.835,-29.0825"/>
</g>
<!-- &#45;5 -->
<g id="node5" class="node"><title>&#45;5</title>
<polygon fill="lightgray" stroke="black" points="391.798,-95.9117 367.798,-95.9117 367.798,-77.9117 391.798,-77.9117 391.798,-95.9117"/>
<text text-anchor="middle" x="379.798" y="-84.7117" font-family="Times New Roman,serif" font-size="9.00">&#45;5</text>
</g>
<!-- &#45;5&#45;&gt;0 -->
<g id="edge17" class="edge"><title>&#45;5&#45;&gt;0</title>
<path fill="none" stroke="red" stroke-width="0.381046" stroke-dasharray="1,5" d="M385.905,-77.8798C389.691,-73.5181 394.941,-68.4648 400.798,-65.6985 472.987,-31.6017 722.73,-19.68 802.85,-16.6828"/>
<polygon fill="red" stroke="red" stroke-width="0.381046" points="803.125,-20.1752 812.993,-16.3177 802.874,-13.1798 803.125,-20.1752"/>
</g>
<!-- &#45;5&#45;&gt;1 -->
<g id="edge18" class="edge"><title>&#45;5&#45;&gt;1</title>
<path fill="none" stroke="green" stroke-width="0.103063" d="M385.868,-77.7992C389.641,-73.4106 394.891,-68.3573 400.798,-65.6985 584.158,16.8419 659.787,-89.4131 851.798,-29.6985 852.854,-29.3699 853.915,-28.9886 854.97,-28.5666"/>
<polygon fill="green" stroke="green" stroke-width="0.103063" points="856.703,-31.6128 864.072,-24 853.564,-25.356 856.703,-31.6128"/>
</g>
<!-- &#45;5&#45;&gt;2 -->
<g id="edge19" class="edge"><title>&#45;5&#45;&gt;2</title>
<path fill="none" stroke="green" stroke-width="0.120774" d="M385.853,-77.7654C389.621,-73.3655 394.871,-68.3122 400.798,-65.6985 514.49,-15.5571 836.513,-51.7527 958.798,-29.6985 966.187,-28.3658 974.069,-26.2575 981.182,-24.0841"/>
<polygon fill="green" stroke="green" stroke-width="0.120774" points="982.471,-27.3456 990.907,-20.9359 980.315,-20.6858 982.471,-27.3456"/>
</g>
<!-- &#45;5&#45;&gt;3 -->
<g id="edge20" class="edge"><title>&#45;5&#45;&gt;3</title>
<path fill="none" stroke="green" stroke-width="0.312906" d="M385.86,-77.7822C389.631,-73.388 394.881,-68.3347 400.798,-65.6985 502.35,-20.4497 791.408,-54.4382 899.798,-29.6985 903.909,-28.7601 908.171,-27.4148 912.248,-25.9273"/>
<polygon fill="green" stroke="green" stroke-width="0.312906" points="913.83,-29.0635 921.805,-22.0878 911.221,-22.5681 913.83,-29.0635"/>
</g>
<!-- &#45;6 -->
<g id="node6" class="node"><title>&#45;6</title>
<polygon fill="lightgray" stroke="black" points="433.798,-95.9117 409.798,-95.9117 409.798,-77.9117 433.798,-77.9117 433.798,-95.9117"/>
<text text-anchor="middle" x="421.798" y="-84.7117" font-family="Times New Roman,serif" font-size="9.00">&#45;6</text>
</g>
<!-- &#45;6&#45;&gt;0 -->
<g id="edge21" class="edge"><title>&#45;6&#45;&gt;0</title>
<path fill="none" stroke="red" stroke-width="0.32618" d="M427.918,-77.9073C431.708,-73.5548 436.958,-68.5015 442.798,-65.6985 506.949,-34.9047 727.212,-20.9952 802.405,-17.0673"/>
<polygon fill="red" stroke="red" stroke-width="0.32618" points="802.987,-20.5424 812.797,-16.5404 802.633,-13.5514 802.987,-20.5424"/>
</g>
<!-- &#45;6&#45;&gt;1 -->
<g id="edge22" class="edge"><title>&#45;6&#45;&gt;1</title>
<path fill="none" stroke="green" stroke-width="0.236177" d="M427.876,-77.8172C431.652,-73.4346 436.902,-68.3813 442.798,-65.6985 608.89,9.88294 677.771,-84.5978 851.798,-29.6985 852.853,-29.3656 853.912,-28.9808 854.966,-28.556"/>
<polygon fill="green" stroke="green" stroke-width="0.236177" points="856.705,-31.5994 864.065,-23.9788 853.559,-25.3461 856.705,-31.5994"/>
</g>
<!-- &#45;6&#45;&gt;2 -->
<g id="edge23" class="edge"><title>&#45;6&#45;&gt;2</title>
<path fill="none" stroke="green" stroke-width="0.244178" d="M427.858,-77.777C431.628,-73.381 436.878,-68.3277 442.798,-65.6985 547.847,-19.0402 845.731,-50.3955 958.798,-29.6985 966.184,-28.3465 974.064,-26.2325 981.177,-24.0598"/>
<polygon fill="green" stroke="green" stroke-width="0.244178" points="982.465,-27.322 990.904,-20.9163 980.312,-20.6613 982.465,-27.322"/>
</g>
<!-- &#45;6&#45;&gt;3 -->
<g id="edge24" class="edge"><title>&#45;6&#45;&gt;3</title>
<path fill="none" stroke="green" stroke-width="0.424865" d="M427.867,-77.7969C431.64,-73.4075 436.89,-68.3542 442.798,-65.6985 535.712,-23.9311 800.557,-52.6944 899.798,-29.6985 903.906,-28.7466 908.167,-27.3945 912.243,-25.9046"/>
<polygon fill="green" stroke="green" stroke-width="0.424865" points="913.825,-29.041 921.8,-22.0662 911.216,-22.5453 913.825,-29.041"/>
</g>
<!-- &#45;7 -->
<g id="node7" class="node"><title>&#45;7</title>
<polygon fill="lightgray" stroke="black" points="475.798,-95.9117 451.798,-95.9117 451.798,-77.9117 475.798,-77.9117 475.798,-95.9117"/>
<text text-anchor="middle" x="463.798" y="-84.7117" font-family="Times New Roman,serif" font-size="9.00">&#45;7</text>
</g>
<!-- &#45;7&#45;&gt;0 -->
<g id="edge25" class="edge"><title>&#45;7&#45;&gt;0</title>
<path fill="none" stroke="red" stroke-width="0.3242" stroke-dasharray="1,5" d="M470.295,-77.5323C474.059,-73.2864 479.162,-68.4578 484.798,-65.6985 541.227,-38.0691 733.834,-22.3454 802.899,-17.4888"/>
<polygon fill="red" stroke="red" stroke-width="0.3242" points="803.147,-20.9801 812.883,-16.8025 802.667,-13.9966 803.147,-20.9801"/>
</g>
<!-- &#45;7&#45;&gt;1 -->
<g id="edge26" class="edge"><title>&#45;7&#45;&gt;1</title>
<path fill="none" stroke="red" stroke-width="0.101953" d="M469.886,-77.8392C473.666,-73.464 478.916,-68.4107 484.798,-65.6985 633.632,2.92859 695.745,-79.7859 851.798,-29.6985 852.851,-29.3603 853.909,-28.9712 854.962,-28.5429"/>
<polygon fill="red" stroke="red" stroke-width="0.101953" points="856.706,-31.5831 864.057,-23.9529 853.553,-25.3339 856.706,-31.5831"/>
</g>
<!-- &#45;7&#45;&gt;2 -->
<g id="edge27" class="edge"><title>&#45;7&#45;&gt;2</title>
<path fill="none" stroke="red" stroke-width="0.115119" d="M469.864,-77.7906C473.636,-73.3992 478.886,-68.3459 484.798,-65.6985 581.208,-22.5221 854.947,-49.0387 958.798,-29.6985 966.18,-28.3238 974.059,-26.2031 981.172,-24.0311"/>
<polygon fill="red" stroke="red" stroke-width="0.115119" points="982.457,-27.2943 990.899,-20.8932 980.308,-20.6324 982.457,-27.2943"/>
</g>
<!-- &#45;7&#45;&gt;3 -->
<g id="edge28" class="edge"><title>&#45;7&#45;&gt;3</title>
<path fill="none" stroke="green" stroke-width="0.518072" d="M469.875,-77.8144C473.65,-73.4309 478.9,-68.3775 484.798,-65.6985 653.356,10.8768 719.606,-72.2046 899.798,-29.6985 903.902,-28.7303 908.161,-27.3702 912.236,-25.8773"/>
<polygon fill="green" stroke="green" stroke-width="0.518072" points="913.818,-29.014 921.794,-22.0403 911.21,-22.518 913.818,-29.014"/>
</g>
<!-- &#45;8 -->
<g id="node8" class="node"><title>&#45;8</title>
<polygon fill="lightgray" stroke="black" points="517.798,-95.9117 493.798,-95.9117 493.798,-77.9117 517.798,-77.9117 517.798,-95.9117"/>
<text text-anchor="middle" x="505.798" y="-84.7117" font-family="Times New Roman,serif" font-size="9.00">&#45;8</text>
</g>
<!-- &#45;8&#45;&gt;0 -->
<g id="edge29" class="edge"><title>&#45;8&#45;&gt;0</title>
<path fill="none" stroke="red" stroke-width="0.23788" d="M512.317,-77.5767C516.087,-73.3438 521.19,-68.5135 526.798,-65.6985 620.272,-18.778 748.621,-14.5817 802.437,-15.1163"/>
<polygon fill="red" stroke="red" stroke-width="0.23788" points="802.693,-18.621 812.75,-15.2885 802.81,-11.622 802.693,-18.621"/>
</g>
<!-- &#45;8&#45;&gt;1 -->
<g id="edge30" class="edge"><title>&#45;8&#45;&gt;1</title>
<path fill="none" stroke="red" stroke-width="0.306862" d="M511.899,-77.8669C515.683,-73.5008 520.933,-68.4475 526.798,-65.6985 658.387,-4.0193 713.704,-74.9786 851.798,-29.6985 852.678,-29.41 853.561,-29.0865 854.442,-28.735"/>
<polygon fill="red" stroke="red" stroke-width="0.306862" points="856.154,-31.7929 863.553,-24.21 853.04,-25.5236 856.154,-31.7929"/>
</g>
<!-- &#45;8&#45;&gt;2 -->
<g id="edge31" class="edge"><title>&#45;8&#45;&gt;2</title>
<path fill="none" stroke="red" stroke-width="0.703055" d="M511.871,-77.8069C515.646,-73.4209 520.896,-68.3676 526.798,-65.6985 614.571,-26.0026 864.159,-47.6827 958.798,-29.6985 966.174,-28.2967 974.052,-26.168 981.166,-23.997"/>
<polygon fill="red" stroke="red" stroke-width="0.703055" points="982.448,-27.2613 990.894,-20.8658 980.303,-20.5979 982.448,-27.2613"/>
</g>
<!-- &#45;8&#45;&gt;3 -->
<g id="edge32" class="edge"><title>&#45;8&#45;&gt;3</title>
<path fill="none" stroke="green" stroke-width="0.202244" d="M511.885,-77.8358C515.664,-73.4594 520.914,-68.4061 526.798,-65.6985 678.096,3.92173 737.886,-68.7213 899.798,-29.6985 903.897,-28.7104 908.154,-27.3405 912.228,-25.844"/>
<polygon fill="green" stroke="green" stroke-width="0.202244" points="913.809,-28.981 921.786,-22.0086 911.202,-22.4845 913.809,-28.981"/>
</g>
<!-- &#45;9 -->
<g id="node9" class="node"><title>&#45;9</title>
<polygon fill="lightgray" stroke="black" points="559.798,-95.9117 535.798,-95.9117 535.798,-77.9117 559.798,-77.9117 559.798,-95.9117"/>
<text text-anchor="middle" x="547.798" y="-84.7117" font-family="Times New Roman,serif" font-size="9.00">&#45;9</text>
</g>
<!-- &#45;9&#45;&gt;0 -->
<g id="edge33" class="edge"><title>&#45;9&#45;&gt;0</title>
<path fill="none" stroke="red" stroke-width="0.13419" stroke-dasharray="1,5" d="M554.732,-77.6409C558.714,-73.4268 564.055,-68.5939 569.798,-65.6985 648.405,-26.0671 755.099,-17.8589 802.874,-16.2194"/>
<polygon fill="red" stroke="red" stroke-width="0.13419" points="803.024,-19.7167 812.924,-15.9441 802.832,-12.7193 803.024,-19.7167"/>
</g>
<!-- &#45;9&#45;&gt;1 -->
<g id="edge34" class="edge"><title>&#45;9&#45;&gt;1</title>
<path fill="none" stroke="green" stroke-width="0.39569" d="M554.282,-77.9036C558.277,-73.5498 563.777,-68.4965 569.798,-65.6985 684.379,-12.4492 732.069,-70.0641 851.798,-29.6985 852.675,-29.4026 853.556,-29.073 854.436,-28.7163"/>
<polygon fill="green" stroke="green" stroke-width="0.39569" points="856.158,-31.7682 863.539,-24.1668 853.029,-25.5067 856.158,-31.7682"/>
</g>
<!-- &#45;9&#45;&gt;2 -->
<g id="edge35" class="edge"><title>&#45;9&#45;&gt;2</title>
<path fill="none" stroke="green" stroke-width="0.219736" d="M554.246,-77.8249C558.229,-73.4449 563.729,-68.3916 569.798,-65.6985 728.498,4.73342 788.372,-62.892 958.798,-29.6985 966.168,-28.263 974.044,-26.1243 981.158,-23.9545"/>
<polygon fill="green" stroke="green" stroke-width="0.219736" points="982.436,-27.2202 990.888,-20.8316 980.297,-20.5551 982.436,-27.2202"/>
</g>
<!-- &#45;9&#45;&gt;3 -->
<g id="edge36" class="edge"><title>&#45;9&#45;&gt;3</title>
<path fill="none" stroke="green" stroke-width="0.205664" d="M554.263,-77.8622C558.252,-73.4945 563.752,-68.4412 569.798,-65.6985 704.156,-4.74795 756.586,-65.1587 899.798,-29.6985 903.822,-28.7021 908.001,-27.3491 912.011,-25.8774"/>
<polygon fill="green" stroke="green" stroke-width="0.205664" points="913.457,-29.0688 921.446,-22.1101 910.861,-22.5678 913.457,-29.0688"/>
</g>
<!-- &#45;10 -->
<g id="node10" class="node"><title>&#45;10</title>
<polygon fill="lightgray" stroke="black" points="607.298,-95.9117 578.298,-95.9117 578.298,-77.9117 607.298,-77.9117 607.298,-95.9117"/>
<text text-anchor="middle" x="592.798" y="-84.7117" font-family="Times New Roman,serif" font-size="9.00">&#45;10</text>
</g>
<!-- &#45;10&#45;&gt;0 -->
<g id="edge37" class="edge"><title>&#45;10&#45;&gt;0</title>
<path fill="none" stroke="red" stroke-width="0.113923" d="M600.547,-77.7522C604.943,-73.5707 610.763,-68.7335 616.798,-65.6985 679.174,-34.3284 761.936,-22.2469 802.793,-17.9716"/>
<polygon fill="red" stroke="red" stroke-width="0.113923" points="803.312,-21.4376 812.926,-16.9836 802.633,-14.4706 803.312,-21.4376"/>
</g>
<!-- &#45;10&#45;&gt;1 -->
<g id="edge38" class="edge"><title>&#45;10&#45;&gt;1</title>
<path fill="none" stroke="green" stroke-width="0.112717" d="M600.454,-77.5578C604.823,-73.3194 610.646,-68.4898 616.798,-65.6985 713.018,-22.0368 752.102,-64.7057 851.798,-29.6985 852.671,-29.3917 853.549,-29.0527 854.426,-28.6881"/>
<polygon fill="green" stroke="green" stroke-width="0.112717" points="856.165,-31.7313 863.516,-24.102 853.012,-25.4816 856.165,-31.7313"/>
</g>
<!-- &#45;10&#45;&gt;2 -->
<g id="edge39" class="edge"><title>&#45;10&#45;&gt;2</title>
<path fill="none" stroke="red" stroke-width="0.22092" d="M599.986,-77.8532C604.382,-73.4827 610.382,-68.4294 616.798,-65.6985 757.428,-5.83972 808.964,-59.862 958.798,-29.6985 966.159,-28.2166 974.032,-26.0641 981.146,-23.896"/>
<polygon fill="red" stroke="red" stroke-width="0.22092" points="982.419,-27.1636 990.878,-20.7846 980.288,-20.496 982.419,-27.1636"/>
</g>
<!-- &#45;10&#45;&gt;3 -->
<g id="edge40" class="edge"><title>&#45;10&#45;&gt;3</title>
<path fill="none" stroke="red" stroke-width="0.178155" stroke-dasharray="1,5" d="M600.008,-77.9052C604.412,-73.552 610.412,-68.4987 616.798,-65.6985 732.916,-14.7814 777,-61.2708 899.798,-29.6985 903.813,-28.6662 907.987,-27.2951 911.995,-25.8165"/>
<polygon fill="red" stroke="red" stroke-width="0.178155" points="913.44,-29.0082 921.431,-22.0512 910.846,-22.5068 913.44,-29.0082"/>
</g>
<!-- &#45;11 -->
<g id="node11" class="node"><title>&#45;11</title>
<polygon fill="lightgray" stroke="black" points="48.2977,-95.9117 19.2977,-95.9117 19.2977,-77.9117 48.2977,-77.9117 48.2977,-95.9117"/>
<text text-anchor="middle" x="33.7977" y="-84.7117" font-family="Times New Roman,serif" font-size="9.00">&#45;11</text>
</g>
<!-- &#45;11&#45;&gt;0 -->
<g id="edge41" class="edge"><title>&#45;11&#45;&gt;0</title>
<path fill="none" stroke="green" stroke-width="0.582445" d="M42.7373,-77.7526C48.1339,-73.3484 55.3839,-68.2951 62.7977,-65.6985 203.955,-16.259 686.892,-15.2065 802.693,-15.6862"/>
<polygon fill="green" stroke="green" stroke-width="0.582445" points="802.712,-19.1863 812.729,-15.7358 802.747,-12.1863 802.712,-19.1863"/>
</g>
<!-- &#45;11&#45;&gt;1 -->
<g id="edge42" class="edge"><title>&#45;11&#45;&gt;1</title>
<path fill="none" stroke="red" stroke-width="0.220686" d="M42.7186,-77.6983C48.1089,-73.2761 55.3589,-68.2228 62.7977,-65.6985 229.004,-9.29644 683.337,-78.9593 851.798,-29.6985 852.86,-29.3879 853.925,-29.0214 854.983,-28.6115"/>
<polygon fill="red" stroke="red" stroke-width="0.220686" points="856.696,-31.6687 864.099,-24.0888 853.585,-25.3981 856.696,-31.6687"/>
</g>
<!-- &#45;11&#45;&gt;3 -->
<g id="edge43" class="edge"><title>&#45;11&#45;&gt;3</title>
<path fill="none" stroke="green" stroke-width="0.154064" d="M48.7891,-79.7558C61.1661,-74.9847 79.3124,-68.6974 95.7977,-65.6985 447.713,-1.67877 550.022,-104.531 899.798,-29.6985 903.921,-28.8162 908.19,-27.4988 912.269,-26.0216"/>
<polygon fill="green" stroke="green" stroke-width="0.154064" points="913.853,-29.1567 921.825,-22.1773 911.241,-22.6625 913.853,-29.1567"/>
</g>
<!-- &#45;12 -->
<g id="node12" class="node"><title>&#45;12</title>
<polygon fill="lightgray" stroke="black" points="1735.3,-95.9117 1706.3,-95.9117 1706.3,-77.9117 1735.3,-77.9117 1735.3,-95.9117"/>
<text text-anchor="middle" x="1720.8" y="-84.7117" font-family="Times New Roman,serif" font-size="9.00">&#45;12</text>
</g>
<!-- &#45;12&#45;&gt;0 -->
<g id="edge44" class="edge"><title>&#45;12&#45;&gt;0</title>
<path fill="none" stroke="red" stroke-width="0.40286" d="M1714.03,-77.7064C1709.86,-73.2868 1704.11,-68.2335 1697.8,-65.6985 1523.17,4.40559 1032.49,-82.2338 851.798,-29.6985 850.735,-29.3896 849.67,-29.0244 848.611,-28.6155"/>
<polygon fill="red" stroke="red" stroke-width="0.40286" points="850.009,-25.4019 839.494,-24.0968 846.9,-31.6738 850.009,-25.4019"/>
</g>
<!-- &#45;12&#45;&gt;2 -->
<g id="edge45" class="edge"><title>&#45;12&#45;&gt;2</title>
<path fill="none" stroke="green" stroke-width="0.391807" d="M1714.01,-77.7755C1709.82,-73.379 1704.07,-68.3257 1697.8,-65.6985 1573.55,-13.6927 1138.68,-14.487 1029.71,-15.5367"/>
<polygon fill="green" stroke="green" stroke-width="0.391807" points="1029.62,-12.0373 1019.66,-15.6436 1029.69,-19.0369 1029.62,-12.0373"/>
</g>
<!-- &#45;12&#45;&gt;3 -->
<g id="edge46" class="edge"><title>&#45;12&#45;&gt;3</title>
<path fill="none" stroke="red" stroke-width="0.388426" d="M1714.03,-77.7244C1709.85,-73.3109 1704.1,-68.2576 1697.8,-65.6985 1549.98,-5.6979 1138,-56.8937 980.798,-29.6985 973.399,-28.4185 965.515,-26.3259 958.402,-24.1506"/>
<polygon fill="red" stroke="red" stroke-width="0.388426" points="959.271,-20.7529 948.679,-20.9893 957.106,-27.4098 959.271,-20.7529"/>
</g>
<!-- &#45;13 -->
<g id="node13" class="node"><title>&#45;13</title>
<polygon fill="lightgray" stroke="black" points="654.298,-95.9117 625.298,-95.9117 625.298,-77.9117 654.298,-77.9117 654.298,-95.9117"/>
<text text-anchor="middle" x="639.798" y="-84.7117" font-family="Times New Roman,serif" font-size="9.00">&#45;13</text>
</g>
<!-- &#45;13&#45;&gt;0 -->
<g id="edge47" class="edge"><title>&#45;13&#45;&gt;0</title>
<path fill="none" stroke="red" stroke-width="0.564582" d="M647.625,-77.9028C652.045,-73.7654 657.862,-68.9223 663.798,-65.6985 709.613,-40.8169 769.528,-26.6445 802.788,-20.1766"/>
<polygon fill="red" stroke="red" stroke-width="0.564582" points="803.798,-23.5487 812.986,-18.2742 802.514,-16.6674 803.798,-23.5487"/>
</g>
<!-- &#45;13&#45;&gt;1 -->
<g id="edge48" class="edge"><title>&#45;13&#45;&gt;1</title>
<path fill="none" stroke="green" stroke-width="0.209281" d="M647.496,-77.6487C651.878,-73.4368 657.699,-68.6036 663.798,-65.6985 740.602,-29.1102 772.067,-59.3719 851.798,-29.6985 852.666,-29.3755 853.539,-29.0227 854.411,-28.6466"/>
<polygon fill="green" stroke="green" stroke-width="0.209281" points="856.173,-31.6767 863.482,-24.0064 852.985,-25.4448 856.173,-31.6767"/>
</g>
<!-- &#45;13&#45;&gt;2 -->
<g id="edge49" class="edge"><title>&#45;13&#45;&gt;2</title>
<path fill="none" stroke="red" stroke-width="0.367103" d="M647.003,-77.893C651.405,-73.5357 657.405,-68.4824 663.798,-65.6985 784.898,-12.9644 829.532,-56.8367 958.798,-29.6985 966.146,-28.1557 974.015,-25.9852 981.13,-23.8192"/>
<polygon fill="red" stroke="red" stroke-width="0.367103" points="982.397,-27.0892 990.866,-20.7228 980.275,-20.4184 982.397,-27.0892"/>
</g>
<!-- &#45;13&#45;&gt;3 -->
<g id="edge50" class="edge"><title>&#45;13&#45;&gt;3</title>
<path fill="none" stroke="red" stroke-width="0.194099" d="M647.453,-77.5563C651.822,-73.3174 657.646,-68.4878 663.798,-65.6985 760.432,-21.8859 797.374,-57.3936 899.798,-29.6985 903.799,-28.6164 907.967,-27.2202 911.973,-25.732"/>
<polygon fill="red" stroke="red" stroke-width="0.194099" points="913.417,-28.9243 921.409,-21.9695 910.824,-22.422 913.417,-28.9243"/>
</g>
<!-- &#45;14 -->
<g id="node14" class="node"><title>&#45;14</title>
<polygon fill="lightgray" stroke="black" points="701.298,-95.9117 672.298,-95.9117 672.298,-77.9117 701.298,-77.9117 701.298,-95.9117"/>
<text text-anchor="middle" x="686.798" y="-84.7117" font-family="Times New Roman,serif" font-size="9.00">&#45;14</text>
</g>
<!-- &#45;14&#45;&gt;0 -->
<g id="edge51" class="edge"><title>&#45;14&#45;&gt;0</title>
<path fill="none" stroke="green" stroke-width="0.161912" d="M695.207,-77.7582C699.608,-73.7783 705.229,-69.1229 710.798,-65.6985 741.242,-46.9756 779.966,-31.9992 804.325,-23.5173"/>
<polygon fill="green" stroke="green" stroke-width="0.161912" points="805.48,-26.8217 813.82,-20.2878 803.225,-20.1946 805.48,-26.8217"/>
</g>
<!-- &#45;14&#45;&gt;1 -->
<g id="edge52" class="edge"><title>&#45;14&#45;&gt;1</title>
<path fill="none" stroke="red" stroke-width="0.185555" d="M694.569,-77.7954C698.972,-73.6265 704.79,-68.7876 710.798,-65.6985 768.315,-36.121 791.896,-54.089 851.798,-29.6985 852.655,-29.3493 853.52,-28.9742 854.385,-28.5793"/>
<polygon fill="red" stroke="red" stroke-width="0.185555" points="856.183,-31.5885 863.421,-23.8515 852.938,-25.3861 856.183,-31.5885"/>
</g>
<!-- &#45;14&#45;&gt;2 -->
<g id="edge53" class="edge"><title>&#45;14&#45;&gt;2</title>
<path fill="none" stroke="red" stroke-width="0.29755" d="M694.445,-77.5385C698.812,-73.2944 704.635,-68.4656 710.798,-65.6985 812.402,-20.0741 850.063,-53.8192 958.798,-29.6985 966.128,-28.0723 973.992,-25.8771 981.107,-23.7141"/>
<polygon fill="red" stroke="red" stroke-width="0.29755" points="982.366,-26.9872 990.847,-20.6383 980.258,-20.3122 982.366,-26.9872"/>
</g>
<!-- &#45;14&#45;&gt;3 -->
<g id="edge54" class="edge"><title>&#45;14&#45;&gt;3</title>
<path fill="none" stroke="green" stroke-width="0.205861" stroke-dasharray="1,5" d="M694.495,-77.6463C698.876,-73.4338 704.698,-68.6007 710.798,-65.6985 788.014,-28.9602 817.677,-53.5355 899.798,-29.6985 903.779,-28.5429 907.936,-27.1096 911.938,-25.6071"/>
<polygon fill="green" stroke="green" stroke-width="0.205861" points="913.38,-28.8002 921.376,-21.8489 910.79,-22.2969 913.38,-28.8002"/>
</g>
<!-- &#45;15 -->
<g id="node15" class="node"><title>&#45;15</title>
<polygon fill="lightgray" stroke="black" points="748.298,-95.9117 719.298,-95.9117 719.298,-77.9117 748.298,-77.9117 748.298,-95.9117"/>
<text text-anchor="middle" x="733.798" y="-84.7117" font-family="Times New Roman,serif" font-size="9.00">&#45;15</text>
</g>
<!-- &#45;15&#45;&gt;0 -->
<g id="edge55" class="edge"><title>&#45;15&#45;&gt;0</title>
<path fill="none" stroke="red" stroke-width="0.251415" d="M742.999,-77.8614C747.407,-74.083 752.803,-69.5698 757.798,-65.6985 774.048,-53.1022 793.088,-39.6216 807.205,-29.8591"/>
<polygon fill="red" stroke="red" stroke-width="0.251415" points="809.433,-32.5753 815.692,-24.0274 805.468,-26.806 809.433,-32.5753"/>
</g>
<!-- &#45;15&#45;&gt;1 -->
<g id="edge56" class="edge"><title>&#45;15&#45;&gt;1</title>
<path fill="none" stroke="red" stroke-width="0.139397" d="M742.154,-77.6705C746.542,-73.6682 752.167,-69.0193 757.798,-65.6985 796.332,-42.9725 811.409,-48.9381 851.798,-29.6985 852.634,-29.3002 853.48,-28.8836 854.329,-28.4535"/>
<polygon fill="red" stroke="red" stroke-width="0.139397" points="856.192,-31.4244 863.294,-23.5619 852.839,-25.2797 856.192,-31.4244"/>
</g>
<!-- &#45;15&#45;&gt;2 -->
<g id="edge57" class="edge"><title>&#45;15&#45;&gt;2</title>
<path fill="none" stroke="green" stroke-width="0.126802" d="M741.482,-77.6195C745.86,-73.3991 751.682,-68.5671 757.798,-65.6985 839.963,-27.1581 870.534,-50.8153 958.798,-29.6985 966.1,-27.9513 973.956,-25.7202 981.072,-23.5615"/>
<polygon fill="green" stroke="green" stroke-width="0.126802" points="982.318,-26.8391 990.819,-20.5156 980.23,-20.1578 982.318,-26.8391"/>
</g>
<!-- &#45;15&#45;&gt;3 -->
<g id="edge58" class="edge"><title>&#45;15&#45;&gt;3</title>
<path fill="none" stroke="red" stroke-width="0.184965" d="M741.566,-77.7913C745.969,-73.6213 751.788,-68.7825 757.798,-65.6985 815.724,-35.973 837.844,-49.7175 899.798,-29.6985 903.742,-28.4238 907.881,-26.9305 911.876,-25.4051"/>
<polygon fill="red" stroke="red" stroke-width="0.184965" points="913.315,-28.5994 921.316,-21.6536 910.73,-22.0943 913.315,-28.5994"/>
</g>
<!-- &#45;16 -->
<g id="node16" class="node"><title>&#45;16</title>
<polygon fill="lightgray" stroke="black" points="795.298,-95.9117 766.298,-95.9117 766.298,-77.9117 795.298,-77.9117 795.298,-95.9117"/>
<text text-anchor="middle" x="780.798" y="-84.7117" font-family="Times New Roman,serif" font-size="9.00">&#45;16</text>
</g>
<!-- &#45;16&#45;&gt;0 -->
<g id="edge59" class="edge"><title>&#45;16&#45;&gt;0</title>
<path fill="none" stroke="green" stroke-width="0.128138" d="M786.189,-77.8746C792.993,-67.7318 804.936,-49.9283 814.287,-35.9895"/>
<polygon fill="green" stroke="green" stroke-width="0.128138" points="817.313,-37.7615 819.977,-27.5071 811.5,-33.8618 817.313,-37.7615"/>
</g>
<!-- &#45;16&#45;&gt;1 -->
<g id="edge60" class="edge"><title>&#45;16&#45;&gt;1</title>
<path fill="none" stroke="green" stroke-width="0.500741" d="M789.988,-77.8464C794.393,-74.0647 799.79,-69.5531 804.798,-65.6985 821.245,-53.0375 840.56,-39.5618 854.889,-29.8177"/>
<polygon fill="green" stroke="green" stroke-width="0.500741" points="857.176,-32.4965 863.504,-23.9994 853.258,-26.6954 857.176,-32.4965"/>
</g>
<!-- &#45;16&#45;&gt;2 -->
<g id="edge61" class="edge"><title>&#45;16&#45;&gt;2</title>
<path fill="none" stroke="red" stroke-width="0.333269" d="M788.544,-77.7465C792.94,-73.5634 798.759,-68.7264 804.798,-65.6985 867.63,-34.1915 890.889,-47.8393 958.798,-29.6985 966.052,-27.7606 973.893,-25.4728 981.011,-23.321"/>
<polygon fill="red" stroke="red" stroke-width="0.333269" points="982.24,-26.6052 990.77,-20.3221 980.183,-19.914 982.24,-26.6052"/>
</g>
<!-- &#45;16&#45;&gt;3 -->
<g id="edge62" class="edge"><title>&#45;16&#45;&gt;3</title>
<path fill="none" stroke="red" stroke-width="0.306545" d="M789.149,-77.6621C793.535,-73.6577 799.161,-69.0093 804.798,-65.6985 843.73,-42.83 857.693,-46.0055 899.798,-29.6985 903.663,-28.2013 907.762,-26.5957 911.742,-25.0274"/>
<polygon fill="red" stroke="red" stroke-width="0.306545" points="913.177,-28.2237 921.186,-21.2885 910.6,-21.7152 913.177,-28.2237"/>
</g>
<!-- &#45;17 -->
<g id="node17" class="node"><title>&#45;17</title>
<polygon fill="lightgray" stroke="black" points="842.298,-95.9117 813.298,-95.9117 813.298,-77.9117 842.298,-77.9117 842.298,-95.9117"/>
<text text-anchor="middle" x="827.798" y="-84.7117" font-family="Times New Roman,serif" font-size="9.00">&#45;17</text>
</g>
<!-- &#45;17&#45;&gt;0 -->
<g id="edge63" class="edge"><title>&#45;17&#45;&gt;0</title>
<path fill="none" stroke="red" stroke-width="0.144482" d="M827.798,-77.8746C827.798,-68.7202 827.798,-53.3256 827.798,-40.1641"/>
<polygon fill="red" stroke="red" stroke-width="0.144482" points="831.298,-39.8196 827.798,-29.8197 824.298,-39.8197 831.298,-39.8196"/>
</g>
<!-- &#45;17&#45;&gt;1 -->
<g id="edge64" class="edge"><title>&#45;17&#45;&gt;1</title>
<path fill="none" stroke="green" stroke-width="0.172882" d="M833.304,-77.8746C840.253,-67.7318 852.45,-49.9283 862,-35.9895"/>
<polygon fill="green" stroke="green" stroke-width="0.172882" points="865.046,-37.7349 867.811,-27.5071 859.272,-33.7786 865.046,-37.7349"/>
</g>
<!-- &#45;17&#45;&gt;2 -->
<g id="edge65" class="edge"><title>&#45;17&#45;&gt;2</title>
<path fill="none" stroke="red" stroke-width="0.347654" d="M836.084,-77.5485C840.454,-73.5152 846.084,-68.8752 851.798,-65.6985 863.313,-59.2959 940.936,-35.2611 980.987,-23.0566"/>
<polygon fill="red" stroke="red" stroke-width="0.347654" points="982.2,-26.3461 990.75,-20.0891 980.164,-19.6486 982.2,-26.3461"/>
</g>
<!-- &#45;17&#45;&gt;3 -->
<g id="edge66" class="edge"><title>&#45;17&#45;&gt;3</title>
<path fill="none" stroke="green" stroke-width="0.288982" stroke-dasharray="1,5" d="M836.867,-77.6842C841.246,-73.8669 846.656,-69.3722 851.798,-65.6985 871.69,-51.4846 895.772,-37.3302 912.861,-27.7562"/>
<polygon fill="green" stroke="green" stroke-width="0.288982" points="914.975,-30.5867 922.03,-22.6827 911.586,-24.4618 914.975,-30.5867"/>
</g>
<!-- &#45;18 -->
<g id="node18" class="node"><title>&#45;18</title>
<polygon fill="lightgray" stroke="black" points="1778.3,-162.125 1749.3,-162.125 1749.3,-144.125 1778.3,-144.125 1778.3,-162.125"/>
<text text-anchor="middle" x="1763.8" y="-150.925" font-family="Times New Roman,serif" font-size="9.00">&#45;18</text>
</g>
<!-- &#45;18&#45;&gt;0 -->
<g id="edge67" class="edge"><title>&#45;18&#45;&gt;0</title>
<path fill="none" stroke="green" stroke-width="0.558271" d="M1749.18,-152.042C1582.31,-151.062 41.9812,-141.126 9.79768,-108.125 -3.36741,-94.6254 -3.12377,-79.4313 9.79768,-65.6985 37.6544,-36.0924 667.887,-19.6145 802.603,-16.4237"/>
<polygon fill="green" stroke="green" stroke-width="0.558271" points="802.85,-19.9189 812.766,-16.1861 802.687,-12.9209 802.85,-19.9189"/>
</g>
<!-- &#45;18&#45;&gt;1 -->
<g id="edge68" class="edge"><title>&#45;18&#45;&gt;1</title>
<path fill="none" stroke="green" stroke-width="0.135801" d="M1749.15,-152.023C1586.67,-150.853 126.337,-139.48 95.7977,-108.125 82.6413,-94.6169 82.7853,-79.3452 95.7977,-65.6985 153.831,-4.83642 771.106,-53.3811 851.798,-29.6985 852.859,-29.3869 853.924,-29.0195 854.982,-28.6088"/>
<polygon fill="green" stroke="green" stroke-width="0.135801" points="856.697,-31.6654 864.097,-24.0836 853.584,-25.3956 856.697,-31.6654"/>
</g>
<!-- &#45;18&#45;&gt;2 -->
<g id="edge69" class="edge"><title>&#45;18&#45;&gt;2</title>
<path fill="none" stroke="red" stroke-width="0.373293" d="M1778.3,-150.703C1816.45,-146.634 1917.99,-133.571 1937.8,-108.125 1949.38,-93.2467 1950.77,-79.3829 1937.8,-65.6985 1905.64,-31.7811 1175.04,-18.529 1029.78,-16.2251"/>
<polygon fill="red" stroke="red" stroke-width="0.373293" points="1029.69,-12.7234 1019.64,-16.0671 1029.58,-19.7226 1029.69,-12.7234"/>
</g>
<!-- &#45;18&#45;&gt;3 -->
<g id="edge70" class="edge"><title>&#45;18&#45;&gt;3</title>
<path fill="none" stroke="red" stroke-width="0.196032" d="M1764.87,-144.111C1766.68,-126.701 1768.17,-85.411 1744.8,-65.6985 1679.84,-10.9027 1064.56,-44.0562 980.798,-29.6985 973.397,-28.4299 965.512,-26.3407 958.399,-24.165"/>
<polygon fill="red" stroke="red" stroke-width="0.196032" points="959.269,-20.7673 948.677,-21.0009 957.103,-27.4237 959.269,-20.7673"/>
</g>
<!-- 181 -->
<g id="node45" class="node"><title>181</title>
<ellipse fill="white" stroke="black" cx="1907.8" cy="-86.9117" rx="21.4286" ry="21.4286"/>
<text text-anchor="middle" x="1907.8" y="-84.7117" font-family="Times New Roman,serif" font-size="9.00">181</text>
</g>
<!-- &#45;18&#45;&gt;181 -->
<g id="edge157" class="edge"><title>&#45;18&#45;&gt;181</title>
<path fill="none" stroke="green" stroke-width="0.375547" d="M1778.65,-147.579C1800.86,-140.522 1843.75,-125.878 1877.8,-108.125 1879.33,-107.326 1880.88,-106.466 1882.42,-105.567"/>
<polygon fill="green" stroke="green" stroke-width="0.375547" points="1884.46,-108.42 1891.07,-100.143 1880.74,-102.49 1884.46,-108.42"/>
</g>
<!-- &#45;19 -->
<g id="node19" class="node"><title>&#45;19</title>
<polygon fill="lightgray" stroke="black" points="889.298,-95.9117 860.298,-95.9117 860.298,-77.9117 889.298,-77.9117 889.298,-95.9117"/>
<text text-anchor="middle" x="874.798" y="-84.7117" font-family="Times New Roman,serif" font-size="9.00">&#45;19</text>
</g>
<!-- &#45;19&#45;&gt;0 -->
<g id="edge71" class="edge"><title>&#45;19&#45;&gt;0</title>
<path fill="none" stroke="green" stroke-width="0.512874" d="M869.406,-77.8746C862.602,-67.7318 850.659,-49.9283 841.308,-35.9895"/>
<polygon fill="green" stroke="green" stroke-width="0.512874" points="844.096,-33.8618 835.618,-27.5071 838.283,-37.7615 844.096,-33.8618"/>
</g>
<!-- &#45;19&#45;&gt;1 -->
<g id="edge72" class="edge"><title>&#45;19&#45;&gt;1</title>
<path fill="none" stroke="green" stroke-width="0.291817" d="M874.912,-77.8746C875.043,-68.7202 875.263,-53.3256 875.451,-40.1641"/>
<polygon fill="green" stroke="green" stroke-width="0.291817" points="878.955,-39.8686 875.598,-29.8197 871.956,-39.7687 878.955,-39.8686"/>
</g>
<!-- &#45;19&#45;&gt;2 -->
<g id="edge73" class="edge"><title>&#45;19&#45;&gt;2</title>
<path fill="none" stroke="red" stroke-width="0.173264" d="M883.261,-77.8445C887.676,-73.8866 893.293,-69.2248 898.798,-65.6985 925.702,-48.4625 959.509,-33.6063 981.612,-24.7011"/>
<polygon fill="red" stroke="red" stroke-width="0.173264" points="983.143,-27.8598 991.159,-20.9322 980.572,-21.3488 983.143,-27.8598"/>
</g>
<!-- &#45;19&#45;&gt;3 -->
<g id="edge74" class="edge"><title>&#45;19&#45;&gt;3</title>
<path fill="none" stroke="red" stroke-width="0.164626" d="M881.68,-77.8746C890.635,-67.4184 906.562,-48.8208 918.647,-34.7089"/>
<polygon fill="red" stroke="red" stroke-width="0.164626" points="921.39,-36.8858 925.237,-27.0138 916.074,-32.3326 921.39,-36.8858"/>
</g>
<!-- &#45;20 -->
<g id="node20" class="node"><title>&#45;20</title>
<polygon fill="lightgray" stroke="black" points="1821.3,-95.9117 1792.3,-95.9117 1792.3,-77.9117 1821.3,-77.9117 1821.3,-95.9117"/>
<text text-anchor="middle" x="1806.8" y="-84.7117" font-family="Times New Roman,serif" font-size="9.00">&#45;20</text>
</g>
<!-- &#45;20&#45;&gt;1 -->
<g id="edge75" class="edge"><title>&#45;20&#45;&gt;1</title>
<path fill="none" stroke="green" stroke-width="0.530875" d="M1791.81,-79.7487C1779.43,-74.9735 1761.29,-68.6842 1744.8,-65.6985 1379.72,0.411916 1273.66,-107.026 910.798,-29.6985 906.673,-28.8196 902.404,-27.5037 898.326,-26.0271"/>
<polygon fill="green" stroke="green" stroke-width="0.530875" points="899.353,-22.6681 888.77,-22.1826 896.741,-29.1622 899.353,-22.6681"/>
</g>
<!-- &#45;20&#45;&gt;2 -->
<g id="edge76" class="edge"><title>&#45;20&#45;&gt;2</title>
<path fill="none" stroke="red" stroke-width="0.495184" d="M1797.86,-77.7507C1792.46,-73.3459 1785.21,-68.2926 1777.8,-65.6985 1635,-15.7383 1146.12,-15.091 1029.79,-15.6672"/>
<polygon fill="red" stroke="red" stroke-width="0.495184" points="1029.7,-12.1676 1019.72,-15.7252 1029.74,-19.1674 1029.7,-12.1676"/>
</g>
<!-- &#45;20&#45;&gt;3 -->
<g id="edge77" class="edge"><title>&#45;20&#45;&gt;3</title>
<path fill="none" stroke="green" stroke-width="0.220179" d="M1797.88,-77.6971C1792.49,-73.2744 1785.24,-68.2211 1777.8,-65.6985 1609.9,-8.76411 1155.57,-59.4814 980.798,-29.6985 973.396,-28.4371 965.511,-26.35 958.398,-24.174"/>
<polygon fill="green" stroke="green" stroke-width="0.220179" points="959.268,-20.7765 948.675,-21.0082 957.1,-27.4325 959.268,-20.7765"/>
</g>
<!-- &#45;21 -->
<g id="node21" class="node"><title>&#45;21</title>
<polygon fill="lightgray" stroke="black" points="936.298,-95.9117 907.298,-95.9117 907.298,-77.9117 936.298,-77.9117 936.298,-95.9117"/>
<text text-anchor="middle" x="921.798" y="-84.7117" font-family="Times New Roman,serif" font-size="9.00">&#45;21</text>
</g>
<!-- &#45;21&#45;&gt;0 -->
<g id="edge78" class="edge"><title>&#45;21&#45;&gt;0</title>
<path fill="none" stroke="green" stroke-width="0.200781" d="M913.034,-77.8088C908.821,-74.0188 903.644,-69.5112 898.798,-65.6985 882.387,-52.7888 862.929,-39.2424 848.537,-29.5348"/>
<polygon fill="green" stroke="green" stroke-width="0.200781" points="850.151,-26.4042 839.893,-23.7551 846.26,-32.2232 850.151,-26.4042"/>
</g>
<!-- &#45;21&#45;&gt;1 -->
<g id="edge79" class="edge"><title>&#45;21&#45;&gt;1</title>
<path fill="none" stroke="green" stroke-width="0.57764" d="M916.521,-77.8746C909.9,-67.7908 898.308,-50.1351 889.181,-36.233"/>
<polygon fill="green" stroke="green" stroke-width="0.57764" points="892.03,-34.1951 883.616,-27.7567 886.178,-38.037 892.03,-34.1951"/>
</g>
<!-- &#45;21&#45;&gt;2 -->
<g id="edge80" class="edge"><title>&#45;21&#45;&gt;2</title>
<path fill="none" stroke="green" stroke-width="0.265756" d="M931.319,-77.8746C944.639,-66.631 969.11,-45.9737 986.135,-31.6025"/>
<polygon fill="green" stroke="green" stroke-width="0.265756" points="988.43,-34.2463 993.813,-25.1214 983.914,-28.8972 988.43,-34.2463"/>
</g>
<!-- &#45;21&#45;&gt;3 -->
<g id="edge81" class="edge"><title>&#45;21&#45;&gt;3</title>
<path fill="none" stroke="green" stroke-width="0.370972" d="M923.289,-77.8746C925.015,-68.572 927.937,-52.8252 930.404,-39.5264"/>
<polygon fill="green" stroke="green" stroke-width="0.370972" points="933.871,-40.0263 932.254,-29.5556 926.989,-38.7492 933.871,-40.0263"/>
</g>
<!-- &#45;22 -->
<g id="node22" class="node"><title>&#45;22</title>
<polygon fill="lightgray" stroke="black" points="983.298,-95.9117 954.298,-95.9117 954.298,-77.9117 983.298,-77.9117 983.298,-95.9117"/>
<text text-anchor="middle" x="968.798" y="-84.7117" font-family="Times New Roman,serif" font-size="9.00">&#45;22</text>
</g>
<!-- &#45;22&#45;&gt;0 -->
<g id="edge82" class="edge"><title>&#45;22&#45;&gt;0</title>
<path fill="none" stroke="green" stroke-width="0.363038" d="M960.844,-77.6513C956.653,-73.6442 951.258,-68.9967 945.798,-65.6985 907.504,-42.5684 892.186,-48.9381 851.798,-29.6985 850.962,-29.3002 850.116,-28.8836 849.266,-28.4535"/>
<polygon fill="green" stroke="green" stroke-width="0.363038" points="850.756,-25.2797 840.302,-23.5619 847.403,-31.4244 850.756,-25.2797"/>
</g>
<!-- &#45;22&#45;&gt;1 -->
<g id="edge83" class="edge"><title>&#45;22&#45;&gt;1</title>
<path fill="none" stroke="green" stroke-width="0.658792" d="M960.022,-77.8233C955.807,-74.0365 950.631,-69.5274 945.798,-65.6985 929.681,-52.932 910.63,-39.4644 896.475,-29.7503"/>
<polygon fill="green" stroke="green" stroke-width="0.658792" points="898.197,-26.688 887.961,-23.9538 894.257,-32.4745 898.197,-26.688"/>
</g>
<!-- &#45;22&#45;&gt;2 -->
<g id="edge84" class="edge"><title>&#45;22&#45;&gt;2</title>
<path fill="none" stroke="green" stroke-width="0.263969" d="M972.927,-77.8746C977.951,-68.0985 986.631,-51.2057 993.665,-37.5161"/>
<polygon fill="green" stroke="green" stroke-width="0.263969" points="996.963,-38.7557 998.42,-28.2615 990.737,-35.5565 996.963,-38.7557"/>
</g>
<!-- &#45;22&#45;&gt;3 -->
<g id="edge85" class="edge"><title>&#45;22&#45;&gt;3</title>
<path fill="none" stroke="green" stroke-width="0.168408" d="M964.897,-77.8746C960.181,-68.1564 952.052,-51.4054 945.43,-37.7594"/>
<polygon fill="green" stroke="green" stroke-width="0.168408" points="948.46,-35.9853 940.945,-28.5167 942.162,-39.0414 948.46,-35.9853"/>
</g>
<!-- &#45;23 -->
<g id="node23" class="node"><title>&#45;23</title>
<polygon fill="lightgray" stroke="black" points="1030.3,-95.9117 1001.3,-95.9117 1001.3,-77.9117 1030.3,-77.9117 1030.3,-95.9117"/>
<text text-anchor="middle" x="1015.8" y="-84.7117" font-family="Times New Roman,serif" font-size="9.00">&#45;23</text>
</g>
<!-- &#45;23&#45;&gt;0 -->
<g id="edge86" class="edge"><title>&#45;23&#45;&gt;0</title>
<path fill="none" stroke="green" stroke-width="0.291278" d="M1008.41,-77.7849C1004.21,-73.613 998.628,-68.7745 992.798,-65.6985 935.594,-35.5176 911.699,-54.089 851.798,-29.6985 850.94,-29.3493 850.076,-28.9742 849.21,-28.5793"/>
<polygon fill="green" stroke="green" stroke-width="0.291278" points="850.657,-25.3861 840.174,-23.8515 847.412,-31.5885 850.657,-25.3861"/>
</g>
<!-- &#45;23&#45;&gt;1 -->
<g id="edge87" class="edge"><title>&#45;23&#45;&gt;1</title>
<path fill="none" stroke="green" stroke-width="0.262542" d="M1007.79,-77.7364C1003.59,-73.751 998.196,-69.0972 992.798,-65.6985 984.41,-60.4177 930.224,-38.019 898.616,-25.1147"/>
<polygon fill="green" stroke="green" stroke-width="0.262542" points="899.815,-21.8239 889.233,-21.2923 897.174,-28.3065 899.815,-21.8239"/>
</g>
<!-- &#45;23&#45;&gt;2 -->
<g id="edge88" class="edge"><title>&#45;23&#45;&gt;2</title>
<path fill="none" stroke="red" stroke-width="0.485913" d="M1014.54,-77.8746C1013.08,-68.572 1010.6,-52.8252 1008.52,-39.5264"/>
<polygon fill="red" stroke="red" stroke-width="0.485913" points="1011.96,-38.8917 1006.95,-29.5556 1005.04,-39.9774 1011.96,-38.8917"/>
</g>
<!-- &#45;23&#45;&gt;3 -->
<g id="edge89" class="edge"><title>&#45;23&#45;&gt;3</title>
<path fill="none" stroke="red" stroke-width="0.31945" d="M1006.42,-77.6273C1002.26,-73.9612 997.292,-69.6041 992.798,-65.6985 979.734,-54.3445 964.935,-41.6278 953.556,-31.8803"/>
<polygon fill="red" stroke="red" stroke-width="0.31945" points="955.821,-29.2124 945.948,-25.3694 951.27,-34.5307 955.821,-29.2124"/>
</g>
<!-- &#45;24 -->
<g id="node24" class="node"><title>&#45;24</title>
<polygon fill="lightgray" stroke="black" points="1077.3,-95.9117 1048.3,-95.9117 1048.3,-77.9117 1077.3,-77.9117 1077.3,-95.9117"/>
<text text-anchor="middle" x="1062.8" y="-84.7117" font-family="Times New Roman,serif" font-size="9.00">&#45;24</text>
</g>
<!-- &#45;24&#45;&gt;0 -->
<g id="edge90" class="edge"><title>&#45;24&#45;&gt;0</title>
<path fill="none" stroke="red" stroke-width="0.666072" d="M1055.48,-77.6425C1051.3,-73.4288 1045.72,-68.5959 1039.8,-65.6985 963.383,-28.3043 931.529,-59.3719 851.798,-29.6985 850.93,-29.3755 850.057,-29.0227 849.184,-28.6466"/>
<polygon fill="red" stroke="red" stroke-width="0.666072" points="850.61,-25.4448 840.114,-24.0064 847.422,-31.6767 850.61,-25.4448"/>
</g>
<!-- &#45;24&#45;&gt;1 -->
<g id="edge91" class="edge"><title>&#45;24&#45;&gt;1</title>
<path fill="none" stroke="green" stroke-width="0.142218" d="M1055.38,-77.8363C1051.17,-73.6794 1045.59,-68.8389 1039.8,-65.6985 987.463,-37.3404 967.216,-48.675 910.798,-29.6985 906.868,-28.3769 902.737,-26.8598 898.746,-25.3254"/>
<polygon fill="green" stroke="green" stroke-width="0.142218" points="899.891,-22.0143 889.305,-21.5765 897.307,-28.5201 899.891,-22.0143"/>
</g>
<!-- &#45;24&#45;&gt;2 -->
<g id="edge92" class="edge"><title>&#45;24&#45;&gt;2</title>
<path fill="none" stroke="red" stroke-width="0.281739" d="M1056.14,-77.8746C1047.57,-67.5161 1032.38,-49.1677 1020.74,-35.1057"/>
<polygon fill="red" stroke="red" stroke-width="0.281739" points="1023.11,-32.4849 1014.04,-27.0138 1017.72,-36.9487 1023.11,-32.4849"/>
</g>
<!-- &#45;24&#45;&gt;3 -->
<g id="edge93" class="edge"><title>&#45;24&#45;&gt;3</title>
<path fill="none" stroke="green" stroke-width="0.178283" d="M1054.73,-77.8283C1050.51,-73.8663 1045.13,-69.2057 1039.8,-65.6985 1013.46,-48.3629 980.156,-33.6182 958.202,-24.76"/>
<polygon fill="green" stroke="green" stroke-width="0.178283" points="959.285,-21.4246 948.698,-21.0073 956.714,-27.9354 959.285,-21.4246"/>
</g>
<!-- &#45;25 -->
<g id="node25" class="node"><title>&#45;25</title>
<polygon fill="lightgray" stroke="black" points="1124.3,-95.9117 1095.3,-95.9117 1095.3,-77.9117 1124.3,-77.9117 1124.3,-95.9117"/>
<text text-anchor="middle" x="1109.8" y="-84.7117" font-family="Times New Roman,serif" font-size="9.00">&#45;25</text>
</g>
<!-- &#45;25&#45;&gt;0 -->
<g id="edge94" class="edge"><title>&#45;25&#45;&gt;0</title>
<path fill="none" stroke="green" stroke-width="0.501039" d="M1102.52,-77.5543C1098.35,-73.3148 1092.77,-68.4853 1086.8,-65.6985 991.042,-21.027 951.493,-64.7057 851.798,-29.6985 850.924,-29.3917 850.046,-29.0527 849.169,-28.6881"/>
<polygon fill="green" stroke="green" stroke-width="0.501039" points="850.584,-25.4816 840.079,-24.102 847.431,-31.7313 850.584,-25.4816"/>
</g>
<!-- &#45;25&#45;&gt;1 -->
<g id="edge95" class="edge"><title>&#45;25&#45;&gt;1</title>
<path fill="none" stroke="green" stroke-width="0.194629" d="M1102.47,-77.6721C1098.28,-73.4671 1092.7,-68.633 1086.8,-65.6985 1015.3,-30.1542 987.322,-52.474 910.798,-29.6985 906.824,-28.5159 902.671,-27.0691 898.671,-25.5614"/>
<polygon fill="green" stroke="green" stroke-width="0.194629" points="899.818,-22.2511 889.233,-21.8047 897.229,-28.7548 899.818,-22.2511"/>
</g>
<!-- &#45;25&#45;&gt;2 -->
<g id="edge96" class="edge"><title>&#45;25&#45;&gt;2</title>
<path fill="none" stroke="red" stroke-width="0.132841" d="M1101.14,-77.6637C1096.96,-73.8419 1091.77,-69.3494 1086.8,-65.6985 1067.27,-51.3512 1043.46,-37.215 1026.54,-27.6816"/>
<polygon fill="red" stroke="red" stroke-width="0.132841" points="1027.9,-24.4325 1017.46,-22.6335 1024.5,-30.5509 1027.9,-24.4325"/>
</g>
<!-- &#45;25&#45;&gt;3 -->
<g id="edge97" class="edge"><title>&#45;25&#45;&gt;3</title>
<path fill="none" stroke="green" stroke-width="0.129656" d="M1101.91,-77.5376C1097.74,-73.5015 1092.34,-68.8623 1086.8,-65.6985 1075.42,-59.2026 998.277,-35.212 958.467,-23.0372"/>
<polygon fill="green" stroke="green" stroke-width="0.129656" points="959.348,-19.647 948.762,-20.0773 957.306,-26.3425 959.348,-19.647"/>
</g>
<!-- &#45;26 -->
<g id="node26" class="node"><title>&#45;26</title>
<polygon fill="lightgray" stroke="black" points="1171.3,-95.9117 1142.3,-95.9117 1142.3,-77.9117 1171.3,-77.9117 1171.3,-95.9117"/>
<text text-anchor="middle" x="1156.8" y="-84.7117" font-family="Times New Roman,serif" font-size="9.00">&#45;26</text>
</g>
<!-- &#45;26&#45;&gt;0 -->
<g id="edge98" class="edge"><title>&#45;26&#45;&gt;0</title>
<path fill="none" stroke="red" stroke-width="0.270827" d="M1149.95,-77.9046C1145.75,-73.5511 1140,-68.4978 1133.8,-65.6985 1018.63,-13.7184 971.527,-70.0641 851.798,-29.6985 850.92,-29.4026 850.039,-29.073 849.159,-28.7163"/>
<polygon fill="red" stroke="red" stroke-width="0.270827" points="850.567,-25.5067 840.057,-24.1668 847.437,-31.7682 850.567,-25.5067"/>
</g>
<!-- &#45;26&#45;&gt;1 -->
<g id="edge99" class="edge"><title>&#45;26&#45;&gt;1</title>
<path fill="none" stroke="green" stroke-width="0.115555" d="M1149.51,-77.5734C1145.34,-73.3396 1139.76,-68.5093 1133.8,-65.6985 1042.99,-22.8888 1007.6,-56.324 910.798,-29.6985 906.801,-28.5991 902.635,-27.1941 898.631,-25.7025"/>
<polygon fill="green" stroke="green" stroke-width="0.115555" points="899.779,-22.3925 889.194,-21.941 897.187,-28.895 899.779,-22.3925"/>
</g>
<!-- &#45;26&#45;&gt;2 -->
<g id="edge100" class="edge"><title>&#45;26&#45;&gt;2</title>
<path fill="none" stroke="red" stroke-width="0.174031" d="M1148.84,-77.6583C1144.65,-73.6529 1139.25,-69.0049 1133.8,-65.6985 1099.72,-45.0444 1055.61,-30.2188 1028.8,-22.3454"/>
<polygon fill="red" stroke="red" stroke-width="0.174031" points="1029.67,-18.9562 1019.1,-19.5801 1027.75,-25.6879 1029.67,-18.9562"/>
</g>
<!-- &#45;26&#45;&gt;3 -->
<g id="edge101" class="edge"><title>&#45;26&#45;&gt;3</title>
<path fill="none" stroke="green" stroke-width="0.148763" stroke-dasharray="1,5" d="M1149.43,-77.7409C1145.24,-73.5561 1139.66,-68.7193 1133.8,-65.6985 1071.71,-33.6853 1048.27,-47.7765 980.798,-29.6985 973.545,-27.7553 965.704,-25.466 958.586,-23.3144"/>
<polygon fill="green" stroke="green" stroke-width="0.148763" points="959.413,-19.9073 948.827,-20.3168 957.358,-26.5988 959.413,-19.9073"/>
</g>
<!-- &#45;27 -->
<g id="node27" class="node"><title>&#45;27</title>
<polygon fill="lightgray" stroke="black" points="1218.3,-95.9117 1189.3,-95.9117 1189.3,-77.9117 1218.3,-77.9117 1218.3,-95.9117"/>
<text text-anchor="middle" x="1203.8" y="-84.7117" font-family="Times New Roman,serif" font-size="9.00">&#45;27</text>
</g>
<!-- &#45;27&#45;&gt;0 -->
<g id="edge102" class="edge"><title>&#45;27&#45;&gt;0</title>
<path fill="none" stroke="green" stroke-width="0.217655" d="M1196.97,-77.8627C1192.77,-73.4952 1187.02,-68.4419 1180.8,-65.6985 1046.19,-6.39215 991.601,-75.4362 851.798,-29.6985 850.918,-29.4105 850.034,-29.0876 849.153,-28.7365"/>
<polygon fill="green" stroke="green" stroke-width="0.217655" points="850.555,-25.525 840.041,-24.2134 847.442,-31.7949 850.555,-25.525"/>
</g>
<!-- &#45;27&#45;&gt;1 -->
<g id="edge103" class="edge"><title>&#45;27&#45;&gt;1</title>
<path fill="none" stroke="red" stroke-width="1.16313" d="M1196.54,-77.5078C1192.38,-73.2547 1186.8,-68.4271 1180.8,-65.6985 1070.59,-15.5865 1027.95,-60.1971 910.798,-29.6985 906.786,-28.6541 902.613,-27.2769 898.606,-25.796"/>
<polygon fill="red" stroke="red" stroke-width="1.16313" points="899.755,-22.4862 889.17,-22.0314 897.161,-28.9879 899.755,-22.4862"/>
</g>
<!-- &#45;27&#45;&gt;2 -->
<g id="edge104" class="edge"><title>&#45;27&#45;&gt;2</title>
<path fill="none" stroke="green" stroke-width="0.159589" d="M1196.38,-77.8452C1192.16,-73.691 1186.59,-68.8501 1180.8,-65.6985 1131,-38.591 1065.06,-25.0482 1029.71,-19.3341"/>
<polygon fill="green" stroke="green" stroke-width="0.159589" points="1030.19,-15.8668 1019.78,-17.8058 1029.13,-22.7855 1030.19,-15.8668"/>
</g>
<!-- &#45;27&#45;&gt;3 -->
<g id="edge105" class="edge"><title>&#45;27&#45;&gt;3</title>
<path fill="none" stroke="red" stroke-width="0.208356" d="M1196.49,-77.6162C1192.32,-73.3949 1186.73,-68.563 1180.8,-65.6985 1099.45,-26.4505 1068.63,-50.7516 980.798,-29.6985 973.496,-27.9482 965.64,-25.7161 958.524,-23.5575"/>
<polygon fill="red" stroke="red" stroke-width="0.208356" points="959.366,-20.1537 948.777,-20.5124 957.278,-26.8352 959.366,-20.1537"/>
</g>
<!-- &#45;28 -->
<g id="node28" class="node"><title>&#45;28</title>
<polygon fill="lightgray" stroke="black" points="1265.3,-95.9117 1236.3,-95.9117 1236.3,-77.9117 1265.3,-77.9117 1265.3,-95.9117"/>
<text text-anchor="middle" x="1250.8" y="-84.7117" font-family="Times New Roman,serif" font-size="9.00">&#45;28</text>
</g>
<!-- &#45;28&#45;&gt;0 -->
<g id="edge106" class="edge"><title>&#45;28&#45;&gt;0</title>
<path fill="none" stroke="green" stroke-width="0.367857" d="M1243.98,-77.831C1239.79,-73.453 1234.04,-68.3997 1227.8,-65.6985 1073.72,0.944919 1011.7,-80.8167 851.798,-29.6985 850.744,-29.3616 849.686,-28.9734 848.632,-28.5459"/>
<polygon fill="green" stroke="green" stroke-width="0.367857" points="850.041,-25.3367 839.536,-23.9589 846.889,-31.5869 850.041,-25.3367"/>
</g>
<!-- &#45;28&#45;&gt;1 -->
<g id="edge107" class="edge"><title>&#45;28&#45;&gt;1</title>
<path fill="none" stroke="red" stroke-width="0.155812" d="M1243.96,-77.8722C1239.77,-73.5079 1234.02,-68.4546 1227.8,-65.6985 1098.16,-8.26391 1048.36,-64.0825 910.798,-29.6985 906.776,-28.6932 902.598,-27.3358 898.589,-25.8624"/>
<polygon fill="red" stroke="red" stroke-width="0.155812" points="899.738,-22.5527 889.153,-22.0955 897.143,-29.0538 899.738,-22.5527"/>
</g>
<!-- &#45;28&#45;&gt;2 -->
<g id="edge108" class="edge"><title>&#45;28&#45;&gt;2</title>
<path fill="none" stroke="red" stroke-width="0.163513" d="M1243.45,-77.7148C1239.25,-73.5223 1233.67,-68.6865 1227.8,-65.6985 1161.44,-31.9515 1072.53,-20.8938 1029.8,-17.395"/>
<polygon fill="red" stroke="red" stroke-width="0.163513" points="1029.97,-13.8979 1019.73,-16.6432 1029.45,-20.8784 1029.97,-13.8979"/>
</g>
<!-- &#45;28&#45;&gt;3 -->
<g id="edge109" class="edge"><title>&#45;28&#45;&gt;3</title>
<path fill="none" stroke="green" stroke-width="0.240712" d="M1243.53,-77.5369C1239.36,-73.2924 1233.78,-68.4635 1227.8,-65.6985 1127.09,-19.1632 1089.1,-53.7551 980.798,-29.6985 973.468,-28.0702 965.604,-25.8743 958.488,-23.7114"/>
<polygon fill="green" stroke="green" stroke-width="0.240712" points="959.338,-20.3095 948.748,-20.6361 957.231,-26.9846 959.338,-20.3095"/>
</g>
<!-- &#45;29 -->
<g id="node29" class="node"><title>&#45;29</title>
<polygon fill="lightgray" stroke="black" points="1312.3,-95.9117 1283.3,-95.9117 1283.3,-77.9117 1312.3,-77.9117 1312.3,-95.9117"/>
<text text-anchor="middle" x="1297.8" y="-84.7117" font-family="Times New Roman,serif" font-size="9.00">&#45;29</text>
</g>
<!-- &#45;29&#45;&gt;0 -->
<g id="edge110" class="edge"><title>&#45;29&#45;&gt;0</title>
<path fill="none" stroke="red" stroke-width="0.104307" d="M1290.99,-77.8063C1286.81,-73.42 1281.06,-68.3667 1274.8,-65.6985 1101.23,8.28914 1031.82,-86.2026 851.798,-29.6985 850.742,-29.3671 849.682,-28.9835 848.628,-28.5598"/>
<polygon fill="red" stroke="red" stroke-width="0.104307" points="850.035,-25.3496 839.528,-23.9863 846.891,-31.6042 850.035,-25.3496"/>
</g>
<!-- &#45;29&#45;&gt;1 -->
<g id="edge111" class="edge"><title>&#45;29&#45;&gt;1</title>
<path fill="none" stroke="green" stroke-width="0.364002" d="M1290.98,-77.8383C1286.79,-73.4628 1281.04,-68.4095 1274.8,-65.6985 1125.69,-0.929169 1068.79,-67.9753 910.798,-29.6985 906.769,-28.7224 902.587,-27.3797 898.576,-25.9119"/>
<polygon fill="green" stroke="green" stroke-width="0.364002" points="899.726,-22.6024 889.141,-22.1434 897.13,-29.103 899.726,-22.6024"/>
</g>
<!-- &#45;29&#45;&gt;2 -->
<g id="edge112" class="edge"><title>&#45;29&#45;&gt;2</title>
<path fill="none" stroke="red" stroke-width="0.102196" d="M1290.49,-77.6268C1286.31,-73.4086 1280.73,-68.5763 1274.8,-65.6985 1191.47,-25.2634 1079.09,-17.4916 1029.76,-16.0941"/>
<polygon fill="red" stroke="red" stroke-width="0.102196" points="1029.77,-12.5934 1019.7,-15.875 1029.62,-19.5918 1029.77,-12.5934"/>
</g>
<!-- &#45;29&#45;&gt;3 -->
<g id="edge113" class="edge"><title>&#45;29&#45;&gt;3</title>
<path fill="none" stroke="red" stroke-width="0.153763" d="M1290.95,-77.8926C1286.76,-73.5352 1281.01,-68.4819 1274.8,-65.6985 1154.67,-11.8492 1109.63,-56.7724 980.798,-29.6985 973.449,-28.1542 965.58,-25.9832 958.466,-23.8173"/>
<polygon fill="red" stroke="red" stroke-width="0.153763" points="959.32,-20.4165 948.73,-20.7213 957.199,-27.0873 959.32,-20.4165"/>
</g>
<!-- &#45;30 -->
<g id="node30" class="node"><title>&#45;30</title>
<polygon fill="lightgray" stroke="black" points="1359.3,-95.9117 1330.3,-95.9117 1330.3,-77.9117 1359.3,-77.9117 1359.3,-95.9117"/>
<text text-anchor="middle" x="1344.8" y="-84.7117" font-family="Times New Roman,serif" font-size="9.00">&#45;30</text>
</g>
<!-- &#45;30&#45;&gt;0 -->
<g id="edge114" class="edge"><title>&#45;30&#45;&gt;0</title>
<path fill="none" stroke="red" stroke-width="0.214007" d="M1338,-77.7864C1333.82,-73.3935 1328.07,-68.3402 1321.8,-65.6985 1128.73,15.6383 1051.95,-91.5923 851.798,-29.6985 850.741,-29.3716 849.68,-28.9917 848.624,-28.5709"/>
<polygon fill="red" stroke="red" stroke-width="0.214007" points="850.029,-25.36 839.521,-24.0083 846.893,-31.618 850.029,-25.36"/>
</g>
<!-- &#45;30&#45;&gt;1 -->
<g id="edge115" class="edge"><title>&#45;30&#45;&gt;1</title>
<path fill="none" stroke="red" stroke-width="0.151" d="M1337.99,-77.8121C1333.8,-73.4277 1328.05,-68.3744 1321.8,-65.6985 1153.21,6.41348 1089.25,-71.8727 910.798,-29.6985 906.694,-28.7286 902.435,-27.3676 898.36,-25.8744"/>
<polygon fill="red" stroke="red" stroke-width="0.151" points="899.386,-22.5151 888.802,-22.0376 896.778,-29.0112 899.386,-22.5151"/>
</g>
<!-- &#45;30&#45;&gt;2 -->
<g id="edge116" class="edge"><title>&#45;30&#45;&gt;2</title>
<path fill="none" stroke="red" stroke-width="0.213343" d="M1337.52,-77.5637C1333.35,-73.327 1327.77,-68.4972 1321.8,-65.6985 1221.52,-18.675 1085.82,-14.6235 1030.18,-15.1605"/>
<polygon fill="red" stroke="red" stroke-width="0.213343" points="1029.8,-11.6659 1019.86,-15.3242 1029.92,-18.6651 1029.8,-11.6659"/>
</g>
<!-- &#45;30&#45;&gt;3 -->
<g id="edge117" class="edge"><title>&#45;30&#45;&gt;3</title>
<path fill="none" stroke="green" stroke-width="0.214277" d="M1337.97,-77.8538C1333.78,-73.4834 1328.03,-68.4301 1321.8,-65.6985 1182.22,-4.51971 1130.19,-59.7976 980.798,-29.6985 973.437,-28.2155 965.564,-26.0627 958.45,-23.8946"/>
<polygon fill="green" stroke="green" stroke-width="0.214277" points="959.308,-20.4946 948.717,-20.7834 957.177,-27.1622 959.308,-20.4946"/>
</g>
<!-- &#45;31 -->
<g id="node31" class="node"><title>&#45;31</title>
<polygon fill="lightgray" stroke="black" points="1406.3,-95.9117 1377.3,-95.9117 1377.3,-77.9117 1406.3,-77.9117 1406.3,-95.9117"/>
<text text-anchor="middle" x="1391.8" y="-84.7117" font-family="Times New Roman,serif" font-size="9.00">&#45;31</text>
</g>
<!-- &#45;31&#45;&gt;0 -->
<g id="edge118" class="edge"><title>&#45;31&#45;&gt;0</title>
<path fill="none" stroke="green" stroke-width="0.319473" d="M1385.01,-77.7701C1380.83,-73.3718 1375.08,-68.3185 1368.8,-65.6985 1156.22,22.9911 1072.08,-96.9848 851.798,-29.6985 850.739,-29.3753 849.678,-28.9983 848.622,-28.58"/>
<polygon fill="green" stroke="green" stroke-width="0.319473" points="850.025,-25.3685 839.515,-24.0264 846.894,-31.6294 850.025,-25.3685"/>
</g>
<!-- &#45;31&#45;&gt;1 -->
<g id="edge119" class="edge"><title>&#45;31&#45;&gt;1</title>
<path fill="none" stroke="red" stroke-width="0.194354" d="M1385,-77.7911C1380.82,-73.3998 1375.07,-68.3465 1368.8,-65.6985 1180.71,13.7615 1109.71,-75.7733 910.798,-29.6985 906.689,-28.7469 902.428,-27.3951 898.353,-25.9052"/>
<polygon fill="red" stroke="red" stroke-width="0.194354" points="899.379,-22.5459 888.795,-22.0668 896.771,-29.0416 899.379,-22.5459"/>
</g>
<!-- &#45;31&#45;&gt;2 -->
<g id="edge120" class="edge"><title>&#45;31&#45;&gt;2</title>
<path fill="none" stroke="green" stroke-width="0.210008" d="M1384.54,-77.5163C1380.38,-73.2657 1374.79,-68.4377 1368.8,-65.6985 1307.95,-37.897 1102.4,-22.1859 1030.16,-17.4187"/>
<polygon fill="green" stroke="green" stroke-width="0.210008" points="1029.96,-13.8985 1019.75,-16.7474 1029.51,-20.8839 1029.96,-13.8985"/>
</g>
<!-- &#45;31&#45;&gt;3 -->
<g id="edge121" class="edge"><title>&#45;31&#45;&gt;3</title>
<path fill="none" stroke="red" stroke-width="0.296962" d="M1384.98,-77.8241C1380.8,-73.4438 1375.05,-68.3905 1368.8,-65.6985 1209.74,2.81947 1150.78,-62.8275 980.798,-29.6985 973.428,-28.2621 965.552,-26.1231 958.438,-23.9534"/>
<polygon fill="red" stroke="red" stroke-width="0.296962" points="959.299,-20.5539 948.708,-20.8307 957.16,-27.2191 959.299,-20.5539"/>
</g>
<!-- &#45;32 -->
<g id="node32" class="node"><title>&#45;32</title>
<polygon fill="lightgray" stroke="black" points="1453.3,-95.9117 1424.3,-95.9117 1424.3,-77.9117 1453.3,-77.9117 1453.3,-95.9117"/>
<text text-anchor="middle" x="1438.8" y="-84.7117" font-family="Times New Roman,serif" font-size="9.00">&#45;32</text>
</g>
<!-- &#45;32&#45;&gt;0 -->
<g id="edge122" class="edge"><title>&#45;32&#45;&gt;0</title>
<path fill="none" stroke="green" stroke-width="0.179363" d="M1432.01,-77.7565C1427.83,-73.3537 1422.08,-68.3004 1415.8,-65.6985 1299.75,-17.676 972.013,-66.0389 851.798,-29.6985 850.739,-29.3783 849.676,-29.0039 848.619,-28.5876"/>
<polygon fill="green" stroke="green" stroke-width="0.179363" points="850.021,-25.3756 839.511,-24.0414 846.895,-31.6389 850.021,-25.3756"/>
</g>
<!-- &#45;32&#45;&gt;1 -->
<g id="edge123" class="edge"><title>&#45;32&#45;&gt;1</title>
<path fill="none" stroke="red" stroke-width="0.309019" stroke-dasharray="1,5" d="M1432.01,-77.774C1427.83,-73.377 1422.08,-68.3237 1415.8,-65.6985 1312,-22.2925 1020.49,-54.6873 910.798,-29.6985 906.686,-28.7619 902.423,-27.4174 898.347,-25.9303"/>
<polygon fill="red" stroke="red" stroke-width="0.309019" points="899.374,-22.571 888.79,-22.0906 896.764,-29.0664 899.374,-22.571"/>
</g>
<!-- &#45;32&#45;&gt;2 -->
<g id="edge124" class="edge"><title>&#45;32&#45;&gt;2</title>
<path fill="none" stroke="green" stroke-width="0.360274" d="M1431.96,-77.89C1427.76,-73.5316 1422.01,-68.4783 1415.8,-65.6985 1346.08,-34.4921 1108.81,-20.7418 1030.28,-16.973"/>
<polygon fill="green" stroke="green" stroke-width="0.360274" points="1030.03,-13.4579 1019.88,-16.4885 1029.71,-20.4503 1030.03,-13.4579"/>
</g>
<!-- &#45;32&#45;&gt;3 -->
<g id="edge125" class="edge"><title>&#45;32&#45;&gt;3</title>
<path fill="none" stroke="red" stroke-width="0.322804" d="M1431.99,-77.8008C1427.81,-73.4127 1422.06,-68.3594 1415.8,-65.6985 1237.25,10.1651 1171.39,-65.8605 980.798,-29.6985 973.42,-28.2988 965.543,-26.1707 958.429,-23.9996"/>
<polygon fill="red" stroke="red" stroke-width="0.322804" points="959.292,-20.6006 948.701,-20.8679 957.147,-27.2639 959.292,-20.6006"/>
</g>
<!-- &#45;33 -->
<g id="node33" class="node"><title>&#45;33</title>
<polygon fill="lightgray" stroke="black" points="1500.3,-95.9117 1471.3,-95.9117 1471.3,-77.9117 1500.3,-77.9117 1500.3,-95.9117"/>
<text text-anchor="middle" x="1485.8" y="-84.7117" font-family="Times New Roman,serif" font-size="9.00">&#45;33</text>
</g>
<!-- &#45;33&#45;&gt;0 -->
<g id="edge126" class="edge"><title>&#45;33&#45;&gt;0</title>
<path fill="none" stroke="red" stroke-width="0.277301" d="M1479.02,-77.7449C1474.84,-73.3383 1469.09,-68.285 1462.8,-65.6985 1336.99,-13.9973 982.088,-68.7369 851.798,-29.6985 850.738,-29.3809 849.675,-29.0086 848.617,-28.594"/>
<polygon fill="red" stroke="red" stroke-width="0.277301" points="850.018,-25.3817 839.507,-24.0542 846.896,-31.6469 850.018,-25.3817"/>
</g>
<!-- &#45;33&#45;&gt;1 -->
<g id="edge127" class="edge"><title>&#45;33&#45;&gt;1</title>
<path fill="none" stroke="green" stroke-width="0.512665" d="M1479.01,-77.7597C1474.83,-73.358 1469.08,-68.3047 1462.8,-65.6985 1349.24,-18.6151 1030.74,-56.6396 910.798,-29.6985 906.683,-28.7743 902.419,-27.436 898.342,-25.9511"/>
<polygon fill="green" stroke="green" stroke-width="0.512665" points="899.369,-22.5919 888.785,-22.1104 896.759,-29.087 899.369,-22.5919"/>
</g>
<!-- &#45;33&#45;&gt;2 -->
<g id="edge128" class="edge"><title>&#45;33&#45;&gt;2</title>
<path fill="none" stroke="green" stroke-width="0.114528" stroke-dasharray="1,5" d="M1478.97,-77.8613C1474.78,-73.4934 1469.03,-68.4401 1462.8,-65.6985 1383.98,-31.0009 1113.71,-19.4052 1029.83,-16.5967"/>
<polygon fill="green" stroke="green" stroke-width="0.114528" points="1029.8,-13.094 1019.7,-16.2702 1029.58,-20.0904 1029.8,-13.094"/>
</g>
<!-- &#45;33&#45;&gt;3 -->
<g id="edge129" class="edge"><title>&#45;33&#45;&gt;3</title>
<path fill="none" stroke="red" stroke-width="0.202074" d="M1479,-77.7819C1474.82,-73.3876 1469.07,-68.3343 1462.8,-65.6985 1363.77,-24.0916 1086.4,-49.2971 980.798,-29.6985 973.415,-28.3284 965.536,-26.2091 958.422,-24.037"/>
<polygon fill="red" stroke="red" stroke-width="0.202074" points="959.287,-20.6383 948.695,-20.8979 957.137,-27.3 959.287,-20.6383"/>
</g>
<!-- &#45;34 -->
<g id="node34" class="node"><title>&#45;34</title>
<polygon fill="lightgray" stroke="black" points="1547.3,-95.9117 1518.3,-95.9117 1518.3,-77.9117 1547.3,-77.9117 1547.3,-95.9117"/>
<text text-anchor="middle" x="1532.8" y="-84.7117" font-family="Times New Roman,serif" font-size="9.00">&#45;34</text>
</g>
<!-- &#45;34&#45;&gt;0 -->
<g id="edge130" class="edge"><title>&#45;34&#45;&gt;0</title>
<path fill="none" stroke="green" stroke-width="0.479679" d="M1526.02,-77.735C1521.85,-73.3251 1516.1,-68.2718 1509.8,-65.6985 1374.23,-10.3178 992.165,-71.4355 851.798,-29.6985 850.737,-29.3831 849.673,-29.0127 848.616,-28.5995"/>
<polygon fill="green" stroke="green" stroke-width="0.479679" points="850.016,-25.3869 839.504,-24.0651 846.897,-31.6538 850.016,-25.3869"/>
</g>
<!-- &#45;34&#45;&gt;1 -->
<g id="edge131" class="edge"><title>&#45;34&#45;&gt;1</title>
<path fill="none" stroke="red" stroke-width="0.356935" d="M1526.02,-77.7477C1521.84,-73.342 1516.09,-68.2887 1509.8,-65.6985 1386.49,-14.9366 1040.98,-58.5924 910.798,-29.6985 906.681,-28.7848 902.416,-27.4517 898.338,-25.9687"/>
<polygon fill="red" stroke="red" stroke-width="0.356935" points="899.366,-22.6096 888.782,-22.1271 896.755,-29.1044 899.366,-22.6096"/>
</g>
<!-- &#45;34&#45;&gt;2 -->
<g id="edge132" class="edge"><title>&#45;34&#45;&gt;2</title>
<path fill="none" stroke="green" stroke-width="0.585761" d="M1525.98,-77.8379C1521.79,-73.4622 1516.04,-68.4089 1509.8,-65.6985 1421.95,-27.5472 1119.03,-18.2426 1029.75,-16.3049"/>
<polygon fill="green" stroke="green" stroke-width="0.585761" points="1029.79,-12.8051 1019.72,-16.0993 1029.65,-19.8037 1029.79,-12.8051"/>
</g>
<!-- &#45;34&#45;&gt;3 -->
<g id="edge133" class="edge"><title>&#45;34&#45;&gt;3</title>
<path fill="none" stroke="red" stroke-width="0.395486" d="M1526.01,-77.7664C1521.83,-73.3669 1516.08,-68.3136 1509.8,-65.6985 1401.02,-20.4148 1096.72,-50.8155 980.798,-29.6985 973.41,-28.3528 965.53,-26.2407 958.416,-24.0677"/>
<polygon fill="red" stroke="red" stroke-width="0.395486" points="959.282,-20.6693 948.69,-20.9227 957.128,-27.3297 959.282,-20.6693"/>
</g>
<!-- &#45;35 -->
<g id="node35" class="node"><title>&#45;35</title>
<polygon fill="lightgray" stroke="black" points="1594.3,-95.9117 1565.3,-95.9117 1565.3,-77.9117 1594.3,-77.9117 1594.3,-95.9117"/>
<text text-anchor="middle" x="1579.8" y="-84.7117" font-family="Times New Roman,serif" font-size="9.00">&#45;35</text>
</g>
<!-- &#45;35&#45;&gt;0 -->
<g id="edge134" class="edge"><title>&#45;35&#45;&gt;0</title>
<path fill="none" stroke="red" stroke-width="0.175175" d="M1573.03,-77.7264C1568.85,-73.3136 1563.1,-68.2603 1556.8,-65.6985 1411.47,-6.63761 1002.24,-74.1345 851.798,-29.6985 850.737,-29.3851 849.672,-29.0162 848.614,-28.6043"/>
<polygon fill="red" stroke="red" stroke-width="0.175175" points="850.014,-25.3914 839.501,-24.0746 846.898,-31.6598 850.014,-25.3914"/>
</g>
<!-- &#45;35&#45;&gt;1 -->
<g id="edge135" class="edge"><title>&#45;35&#45;&gt;1</title>
<path fill="none" stroke="red" stroke-width="0.148473" d="M1573.02,-77.7374C1568.85,-73.3283 1563.1,-68.275 1556.8,-65.6985 1423.72,-11.2573 1051.23,-60.5458 910.798,-29.6985 906.679,-28.7937 902.413,-27.4651 898.335,-25.9838"/>
<polygon fill="red" stroke="red" stroke-width="0.148473" points="899.362,-22.6246 888.779,-22.1415 896.751,-29.1193 899.362,-22.6246"/>
</g>
<!-- &#45;35&#45;&gt;2 -->
<g id="edge136" class="edge"><title>&#45;35&#45;&gt;2</title>
<path fill="none" stroke="red" stroke-width="0.270042" d="M1572.99,-77.8184C1568.8,-73.4362 1563.05,-68.3829 1556.8,-65.6985 1459.95,-24.1171 1124.61,-17.1972 1029.89,-16.0661"/>
<polygon fill="red" stroke="red" stroke-width="0.270042" points="1029.84,-12.5654 1019.8,-15.9572 1029.76,-19.565 1029.84,-12.5654"/>
</g>
<!-- &#45;35&#45;&gt;3 -->
<g id="edge137" class="edge"><title>&#45;35&#45;&gt;3</title>
<path fill="none" stroke="green" stroke-width="0.112778" d="M1573.01,-77.7534C1568.84,-73.3495 1563.09,-68.2962 1556.8,-65.6985 1438.26,-16.7368 1107.03,-52.3345 980.798,-29.6985 973.407,-28.3732 965.525,-26.2672 958.412,-24.0935"/>
<polygon fill="green" stroke="green" stroke-width="0.112778" points="959.279,-20.6953 948.687,-20.9434 957.122,-27.3546 959.279,-20.6953"/>
</g>
<!-- &#45;36 -->
<g id="node36" class="node"><title>&#45;36</title>
<polygon fill="lightgray" stroke="black" points="1641.3,-95.9117 1612.3,-95.9117 1612.3,-77.9117 1641.3,-77.9117 1641.3,-95.9117"/>
<text text-anchor="middle" x="1626.8" y="-84.7117" font-family="Times New Roman,serif" font-size="9.00">&#45;36</text>
</g>
<!-- &#45;36&#45;&gt;0 -->
<g id="edge138" class="edge"><title>&#45;36&#45;&gt;0</title>
<path fill="none" stroke="red" stroke-width="0.140493" d="M1620.03,-77.7189C1615.86,-73.3036 1610.11,-68.2503 1603.8,-65.6985 1448.71,-2.95694 1012.32,-76.834 851.798,-29.6985 850.736,-29.3868 849.671,-29.0193 848.613,-28.6085"/>
<polygon fill="red" stroke="red" stroke-width="0.140493" points="850.012,-25.3953 839.498,-24.083 846.899,-31.665 850.012,-25.3953"/>
</g>
<!-- &#45;36&#45;&gt;1 -->
<g id="edge139" class="edge"><title>&#45;36&#45;&gt;1</title>
<path fill="none" stroke="green" stroke-width="0.193927" d="M1620.02,-77.7285C1615.85,-73.3164 1610.1,-68.2631 1603.8,-65.6985 1460.96,-7.57727 1061.48,-62.4995 910.798,-29.6985 906.677,-28.8015 902.41,-27.4767 898.332,-25.9968"/>
<polygon fill="green" stroke="green" stroke-width="0.193927" points="899.36,-22.6377 888.776,-22.1538 896.748,-29.1322 899.36,-22.6377"/>
</g>
<!-- &#45;36&#45;&gt;2 -->
<g id="edge140" class="edge"><title>&#45;36&#45;&gt;2</title>
<path fill="none" stroke="green" stroke-width="0.281234" d="M1619.99,-77.8019C1615.81,-73.4142 1610.06,-68.3609 1603.8,-65.6985 1497.81,-20.6371 1129.29,-16.2222 1029.75,-15.8611"/>
<polygon fill="green" stroke="green" stroke-width="0.281234" points="1029.72,-12.3612 1019.71,-15.8357 1029.7,-19.3611 1029.72,-12.3612"/>
</g>
<!-- &#45;36&#45;&gt;3 -->
<g id="edge141" class="edge"><title>&#45;36&#45;&gt;3</title>
<path fill="none" stroke="red" stroke-width="0.206591" d="M1620.02,-77.7423C1615.84,-73.3347 1610.09,-68.2814 1603.8,-65.6985 1475.5,-13.0579 1117.35,-53.8539 980.798,-29.6985 973.404,-28.3906 965.521,-26.2897 958.408,-24.1154"/>
<polygon fill="red" stroke="red" stroke-width="0.206591" points="959.276,-20.7173 948.684,-20.961 957.116,-27.3758 959.276,-20.7173"/>
</g>
<!-- &#45;37 -->
<g id="node37" class="node"><title>&#45;37</title>
<polygon fill="lightgray" stroke="black" points="1688.3,-95.9117 1659.3,-95.9117 1659.3,-77.9117 1688.3,-77.9117 1688.3,-95.9117"/>
<text text-anchor="middle" x="1673.8" y="-84.7117" font-family="Times New Roman,serif" font-size="9.00">&#45;37</text>
</g>
<!-- &#45;37&#45;&gt;0 -->
<g id="edge142" class="edge"><title>&#45;37&#45;&gt;0</title>
<path fill="none" stroke="red" stroke-width="0.679823" d="M1667.03,-77.7123C1662.86,-73.2947 1657.11,-68.2414 1650.8,-65.6985 1485.94,0.724151 1022.4,-79.5338 851.798,-29.6985 850.736,-29.3882 849.671,-29.022 848.612,-28.6122"/>
<polygon fill="red" stroke="red" stroke-width="0.679823" points="850.01,-25.3988 839.496,-24.0903 846.899,-31.6697 850.01,-25.3988"/>
</g>
<!-- &#45;37&#45;&gt;1 -->
<g id="edge143" class="edge"><title>&#45;37&#45;&gt;1</title>
<path fill="none" stroke="green" stroke-width="0.161128" stroke-dasharray="1,5" d="M1667.03,-77.7208C1662.85,-73.306 1657.1,-68.2527 1650.8,-65.6985 1498.2,-3.89673 1071.73,-64.4536 910.798,-29.6985 906.676,-28.8083 902.408,-27.4869 898.33,-26.0082"/>
<polygon fill="green" stroke="green" stroke-width="0.161128" points="899.357,-22.6491 888.774,-22.1646 896.745,-29.1435 899.357,-22.6491"/>
</g>
<!-- &#45;37&#45;&gt;2 -->
<g id="edge144" class="edge"><title>&#45;37&#45;&gt;2</title>
<path fill="none" stroke="green" stroke-width="0.496357" d="M1667,-77.7877C1662.82,-73.3953 1657.07,-68.342 1650.8,-65.6985 1535.79,-17.209 1134.75,-15.3276 1029.99,-15.6862"/>
<polygon fill="green" stroke="green" stroke-width="0.496357" points="1029.73,-12.1873 1019.75,-15.7322 1029.76,-19.1872 1029.73,-12.1873"/>
</g>
<!-- &#45;37&#45;&gt;3 -->
<g id="edge145" class="edge"><title>&#45;37&#45;&gt;3</title>
<path fill="none" stroke="red" stroke-width="0.452052" d="M1667.02,-77.7327C1662.85,-73.322 1657.1,-68.2687 1650.8,-65.6985 1512.74,-9.3782 1127.67,-55.3736 980.798,-29.6985 973.401,-28.4055 965.518,-26.3091 958.405,-24.1342"/>
<polygon fill="red" stroke="red" stroke-width="0.452052" points="959.273,-20.7363 948.681,-20.9761 957.111,-27.394 959.273,-20.7363"/>
</g>
<!-- &#45;38 -->
<g id="node38" class="node"><title>&#45;38</title>
<polygon fill="lightgray" stroke="black" points="134.298,-95.9117 105.298,-95.9117 105.298,-77.9117 134.298,-77.9117 134.298,-95.9117"/>
<text text-anchor="middle" x="119.798" y="-84.7117" font-family="Times New Roman,serif" font-size="9.00">&#45;38</text>
</g>
<!-- &#45;38&#45;&gt;0 -->
<g id="edge146" class="edge"><title>&#45;38&#45;&gt;0</title>
<path fill="none" stroke="green" stroke-width="0.271761" stroke-dasharray="1,5" d="M126.591,-77.7775C130.772,-73.3816 136.522,-68.3283 142.798,-65.6985 265.342,-14.3462 693.665,-14.6249 802.497,-15.5575"/>
<polygon fill="green" stroke="green" stroke-width="0.271761" points="802.79,-19.0603 812.823,-15.6567 802.858,-12.0607 802.79,-19.0603"/>
</g>
<!-- &#45;38&#45;&gt;1 -->
<g id="edge147" class="edge"><title>&#45;38&#45;&gt;1</title>
<path fill="none" stroke="red" stroke-width="0.388439" d="M126.57,-77.7258C130.744,-73.3127 136.494,-68.2594 142.798,-65.6985 288.957,-6.32438 700.494,-74.3643 851.798,-29.6985 852.859,-29.3852 853.923,-29.0165 854.981,-28.6047"/>
<polygon fill="red" stroke="red" stroke-width="0.388439" points="856.697,-31.6603 864.095,-24.0754 853.582,-25.3917 856.697,-31.6603"/>
</g>
<!-- &#45;38&#45;&gt;2 -->
<g id="edge148" class="edge"><title>&#45;38&#45;&gt;2</title>
<path fill="none" stroke="green" stroke-width="0.181866" d="M126.563,-77.7101C130.735,-73.2917 136.485,-68.2384 142.798,-65.6985 311.188,2.0557 779.851,-60.0961 958.798,-29.6985 966.2,-28.441 974.086,-26.3551 981.198,-24.1789"/>
<polygon fill="green" stroke="green" stroke-width="0.181866" points="982.496,-27.4372 990.921,-21.0121 980.328,-20.7814 982.496,-27.4372"/>
</g>
<!-- &#45;38&#45;&gt;3 -->
<g id="edge149" class="edge"><title>&#45;38&#45;&gt;3</title>
<path fill="none" stroke="green" stroke-width="0.317682" d="M126.567,-77.7182C130.739,-73.3026 136.489,-68.2493 142.798,-65.6985 298.929,-2.56535 735.161,-65.1604 899.798,-29.6985 903.92,-28.8105 908.188,-27.4902 912.267,-26.012"/>
<polygon fill="green" stroke="green" stroke-width="0.317682" points="913.851,-29.1472 921.823,-22.1682 911.239,-22.6529 913.851,-29.1472"/>
</g>
<!-- &#45;39 -->
<g id="node39" class="node"><title>&#45;39</title>
<polygon fill="lightgray" stroke="black" points="1868.3,-95.9117 1839.3,-95.9117 1839.3,-77.9117 1868.3,-77.9117 1868.3,-95.9117"/>
<text text-anchor="middle" x="1853.8" y="-84.7117" font-family="Times New Roman,serif" font-size="9.00">&#45;39</text>
</g>
<!-- &#45;39&#45;&gt;1 -->
<g id="edge150" class="edge"><title>&#45;39&#45;&gt;1</title>
<path fill="none" stroke="green" stroke-width="0.114834" stroke-dasharray="1,5" d="M1847.04,-77.6983C1842.87,-73.276 1837.12,-68.2227 1830.8,-65.6985 1640.8,10.2025 1110.99,-71.9391 910.798,-29.6985 906.672,-28.8279 902.402,-27.5162 898.323,-26.0411"/>
<polygon fill="green" stroke="green" stroke-width="0.114834" points="899.351,-22.682 888.767,-22.1959 896.737,-29.176 899.351,-22.682"/>
</g>
<!-- &#45;39&#45;&gt;2 -->
<g id="edge151" class="edge"><title>&#45;39&#45;&gt;2</title>
<path fill="none" stroke="green" stroke-width="0.159588" d="M1847.02,-77.7483C1842.84,-73.3428 1837.09,-68.2895 1830.8,-65.6985 1755.13,-34.5365 1159.78,-19.3553 1029.8,-16.3942"/>
<polygon fill="green" stroke="green" stroke-width="0.159588" points="1029.73,-12.8917 1019.65,-16.1664 1029.57,-19.8899 1029.73,-12.8917"/>
</g>
<!-- &#45;39&#45;&gt;3 -->
<g id="edge152" class="edge"><title>&#45;39&#45;&gt;3</title>
<path fill="none" stroke="green" stroke-width="0.203461" d="M1847.03,-77.7059C1842.86,-73.2862 1837.11,-68.2329 1830.8,-65.6985 1655.34,4.71892 1167.21,-61.1961 980.798,-29.6985 973.394,-28.4475 965.508,-26.3635 958.395,-24.1872"/>
<polygon fill="green" stroke="green" stroke-width="0.203461" points="959.266,-20.7897 948.674,-21.0187 957.097,-27.4452 959.266,-20.7897"/>
</g>
<!-- &#45;40 -->
<g id="node40" class="node"><title>&#45;40</title>
<polygon fill="lightgray" stroke="black" points="181.298,-95.9117 152.298,-95.9117 152.298,-77.9117 181.298,-77.9117 181.298,-95.9117"/>
<text text-anchor="middle" x="166.798" y="-84.7117" font-family="Times New Roman,serif" font-size="9.00">&#45;40</text>
</g>
<!-- &#45;40&#45;&gt;0 -->
<g id="edge153" class="edge"><title>&#45;40&#45;&gt;0</title>
<path fill="none" stroke="red" stroke-width="0.442158" d="M173.959,-77.7886C178.346,-73.3965 184.346,-68.3432 190.798,-65.6985 304.56,-19.0653 698.929,-15.8154 802.645,-15.7823"/>
<polygon fill="red" stroke="red" stroke-width="0.442158" points="802.795,-19.2824 812.798,-15.7896 802.8,-12.2824 802.795,-19.2824"/>
</g>
<!-- &#45;40&#45;&gt;1 -->
<g id="edge154" class="edge"><title>&#45;40&#45;&gt;1</title>
<path fill="none" stroke="red" stroke-width="0.501476" d="M173.936,-77.7312C178.315,-73.3199 184.315,-68.2666 190.798,-65.6985 327.563,-11.5186 710.787,-71.6077 851.798,-29.6985 852.858,-29.3833 853.922,-29.0129 854.98,-28.5998"/>
<polygon fill="red" stroke="red" stroke-width="0.501476" points="856.698,-31.6542 864.092,-24.0658 853.58,-25.3872 856.698,-31.6542"/>
</g>
<!-- &#45;40&#45;&gt;2 -->
<g id="edge155" class="edge"><title>&#45;40&#45;&gt;2</title>
<path fill="none" stroke="green" stroke-width="0.121568" d="M173.928,-77.7128C178.305,-73.2954 184.305,-68.2421 190.798,-65.6985 349.879,-3.37388 790.396,-58.5433 958.798,-29.6985 966.199,-28.4308 974.083,-26.3419 981.196,-24.1661"/>
<polygon fill="green" stroke="green" stroke-width="0.121568" points="982.493,-27.4248 990.919,-21.0018 980.327,-20.7685 982.493,-27.4248"/>
</g>
<!-- &#45;40&#45;&gt;3 -->
<g id="edge156" class="edge"><title>&#45;40&#45;&gt;3</title>
<path fill="none" stroke="green" stroke-width="0.347351" stroke-dasharray="1,5" d="M173.932,-77.7222C178.31,-73.308 184.31,-68.2547 190.798,-65.6985 337.573,-7.86521 745.63,-63.1647 899.798,-29.6985 903.919,-28.8039 908.186,-27.4803 912.264,-26.0009"/>
<polygon fill="green" stroke="green" stroke-width="0.347351" points="913.848,-29.1362 921.82,-22.1577 911.237,-22.6417 913.848,-29.1362"/>
</g>
<!-- 181&#45;&gt;2 -->
<g id="edge158" class="edge"><title>181&#45;&gt;2</title>
<path fill="none" stroke="red" stroke-width="0.331531" d="M1891.82,-72.8703C1887.51,-70.0075 1882.68,-67.3427 1877.8,-65.6985 1714.76,-10.7674 1156.07,-14.0295 1030.15,-15.4989"/>
<polygon fill="red" stroke="red" stroke-width="0.331531" points="1029.91,-12.0015 1019.95,-15.6254 1029.99,-19.001 1029.91,-12.0015"/>
</g>
</g>
</svg>
