<?xml version="1.0" encoding="UTF-8" standalone="no"?>
<!DOCTYPE svg PUBLIC "-//W3C//DTD SVG 1.1//EN"
 "http://www.w3.org/Graphics/SVG/1.1/DTD/svg11.dtd">
<!-- Generated by graphviz version 2.38.0 (20140413.2041)
 -->
<!-- Title: %3 Pages: 1 -->
<svg width="1961pt" height="170pt"
 viewBox="0.00 0.00 1961.07 170.12" xmlns="http://www.w3.org/2000/svg" xmlns:xlink="http://www.w3.org/1999/xlink">
<g id="graph0" class="graph" transform="scale(1 1) rotate(0) translate(4 166.125)">
<title>%3</title>
<polygon fill="white" stroke="none" points="-4,4 -4,-166.125 1957.07,-166.125 1957.07,4 -4,4"/>
<!-- &#45;1 -->
<g id="node1" class="node"><title>&#45;1</title>
<polygon fill="lightgray" stroke="black" points="654.262,-95.9117 630.262,-95.9117 630.262,-77.9117 654.262,-77.9117 654.262,-95.9117"/>
<text text-anchor="middle" x="642.262" y="-84.7117" font-family="Times New Roman,serif" font-size="9.00">&#45;1</text>
</g>
<!-- 0 -->
<g id="node41" class="node"><title>0</title>
<ellipse fill="lightblue" stroke="black" cx="1014.26" cy="-14.8492" rx="14.7" ry="14.7"/>
<text text-anchor="middle" x="1014.26" y="-12.6492" font-family="Times New Roman,serif" font-size="9.00">0</text>
</g>
<!-- &#45;1&#45;&gt;0 -->
<g id="edge1" class="edge"><title>&#45;1&#45;&gt;0</title>
<path fill="none" stroke="red" stroke-width="0.234943" d="M648.751,-77.516C652.513,-73.2653 657.617,-68.4373 663.262,-65.6985 768.617,-14.5869 808.391,-46.6038 924.262,-29.6985 946.389,-26.4703 971.54,-22.5815 989.618,-19.7476"/>
<polygon fill="red" stroke="red" stroke-width="0.234943" points="990.285,-23.1859 999.619,-18.1744 989.197,-16.2709 990.285,-23.1859"/>
</g>
<!-- 1 -->
<g id="node42" class="node"><title>1</title>
<ellipse fill="lightblue" stroke="black" cx="900.262" cy="-14.8492" rx="14.7" ry="14.7"/>
<text text-anchor="middle" x="900.262" y="-12.6492" font-family="Times New Roman,serif" font-size="9.00">1</text>
</g>
<!-- &#45;1&#45;&gt;1 -->
<g id="edge2" class="edge"><title>&#45;1&#45;&gt;1</title>
<path fill="none" stroke="red" stroke-width="0.491743" d="M648.785,-77.5841C652.557,-73.3534 657.659,-68.5227 663.262,-65.6985 748.997,-22.4853 785.923,-62.2049 876.262,-29.6985 877.134,-29.3849 878.01,-29.0403 878.885,-28.6709"/>
<polygon fill="red" stroke="red" stroke-width="0.491743" points="880.633,-31.7086 887.967,-24.0623 877.465,-25.4663 880.633,-31.7086"/>
</g>
<!-- 2 -->
<g id="node43" class="node"><title>2</title>
<ellipse fill="lightblue" stroke="black" cx="852.262" cy="-14.8492" rx="14.7" ry="14.7"/>
<text text-anchor="middle" x="852.262" y="-12.6492" font-family="Times New Roman,serif" font-size="9.00">2</text>
</g>
<!-- &#45;1&#45;&gt;2 -->
<g id="edge3" class="edge"><title>&#45;1&#45;&gt;2</title>
<path fill="none" stroke="green" stroke-width="0.233644" d="M648.891,-77.7839C652.694,-73.6117 657.792,-68.7732 663.262,-65.6985 717.11,-35.4301 789.939,-23.0029 827.53,-18.3485"/>
<polygon fill="green" stroke="green" stroke-width="0.233644" points="828.048,-21.8121 837.58,-17.1877 827.245,-14.8583 828.048,-21.8121"/>
</g>
<!-- 3 -->
<g id="node44" class="node"><title>3</title>
<ellipse fill="lightblue" stroke="black" cx="1062.26" cy="-14.8492" rx="14.7" ry="14.7"/>
<text text-anchor="middle" x="1062.26" y="-12.6492" font-family="Times New Roman,serif" font-size="9.00">3</text>
</g>
<!-- &#45;1&#45;&gt;3 -->
<g id="edge4" class="edge"><title>&#45;1&#45;&gt;3</title>
<path fill="none" stroke="red" stroke-width="0.17189" d="M648.349,-77.8347C652.127,-73.4579 657.377,-68.4046 663.262,-65.6985 815.383,4.2528 878.787,-80.7021 1038.26,-29.6985 1039.32,-29.3614 1040.37,-28.9732 1041.43,-28.5456"/>
<polygon fill="red" stroke="red" stroke-width="0.17189" points="1043.17,-31.5865 1050.52,-23.9583 1040.02,-25.3364 1043.17,-31.5865"/>
</g>
<!-- &#45;2 -->
<g id="node2" class="node"><title>&#45;2</title>
<polygon fill="lightgray" stroke="black" points="190.262,-162.125 166.262,-162.125 166.262,-144.125 190.262,-144.125 190.262,-162.125"/>
<text text-anchor="middle" x="178.262" y="-150.925" font-family="Times New Roman,serif" font-size="9.00">&#45;2</text>
</g>
<!-- &#45;2&#45;&gt;0 -->
<g id="edge5" class="edge"><title>&#45;2&#45;&gt;0</title>
<path fill="none" stroke="red" stroke-width="0.262698" d="M190.501,-152.002C331.603,-150.555 1645.87,-136.33 1673.26,-108.125 1686.4,-94.5969 1686.21,-79.404 1673.26,-65.6985 1624.73,-14.3333 1105.98,-49.9066 1038.26,-29.6985 1037.2,-29.3821 1036.14,-29.0108 1035.08,-28.5969"/>
<polygon fill="red" stroke="red" stroke-width="0.262698" points="1036.48,-25.3844 1025.97,-24.06 1033.36,-31.6505 1036.48,-25.3844"/>
</g>
<!-- &#45;2&#45;&gt;1 -->
<g id="edge6" class="edge"><title>&#45;2&#45;&gt;1</title>
<path fill="none" stroke="green" stroke-width="0.100007" d="M177.304,-144.109C175.723,-126.696 174.786,-85.4008 198.262,-65.6985 256.048,-17.202 803.934,-51.1412 876.262,-29.6985 877.323,-29.384 878.387,-29.0142 879.445,-28.6016"/>
<polygon fill="green" stroke="green" stroke-width="0.100007" points="881.162,-31.6564 888.558,-24.0693 878.045,-25.3889 881.162,-31.6564"/>
</g>
<!-- &#45;2&#45;&gt;2 -->
<g id="edge7" class="edge"><title>&#45;2&#45;&gt;2</title>
<path fill="none" stroke="red" stroke-width="0.101533" stroke-dasharray="1,5" d="M166.246,-150.87C130.947,-146.913 28.824,-133.432 9.26228,-108.125 -2.26967,-93.2061 -3.67154,-79.4197 9.26228,-65.6985 38.0253,-35.1843 688.852,-19.3933 826.74,-16.3839"/>
<polygon fill="red" stroke="red" stroke-width="0.101533" points="827.205,-19.8748 837.128,-16.1603 827.055,-12.8764 827.205,-19.8748"/>
</g>
<!-- &#45;2&#45;&gt;3 -->
<g id="edge8" class="edge"><title>&#45;2&#45;&gt;3</title>
<path fill="none" stroke="green" stroke-width="0.164507" stroke-dasharray="1,5" d="M190.718,-152.057C346.454,-151.174 1910.72,-141.484 1943.26,-108.125 1956.43,-94.6264 1956.21,-79.4033 1943.26,-65.6985 1913.07,-33.752 1228.76,-19.0181 1087.6,-16.3131"/>
<polygon fill="green" stroke="green" stroke-width="0.164507" points="1087.41,-12.8091 1077.35,-16.1197 1087.28,-19.8078 1087.41,-12.8091"/>
</g>
<!-- 587 -->
<g id="node45" class="node"><title>587</title>
<ellipse fill="white" stroke="black" cx="39.2623" cy="-86.9117" rx="21.4286" ry="21.4286"/>
<text text-anchor="middle" x="39.2623" y="-84.7117" font-family="Times New Roman,serif" font-size="9.00">587</text>
</g>
<!-- &#45;2&#45;&gt;587 -->
<g id="edge153" class="edge"><title>&#45;2&#45;&gt;587</title>
<path fill="none" stroke="green" stroke-width="0.3" d="M166.12,-148.16C145.59,-141.253 102.964,-126.027 69.2623,-108.125 67.737,-107.315 66.1933,-106.445 64.6526,-105.539"/>
<polygon fill="green" stroke="green" stroke-width="0.3" points="66.3391,-102.465 56.0127,-100.095 62.6073,-108.387 66.3391,-102.465"/>
</g>
<!-- &#45;3 -->
<g id="node3" class="node"><title>&#45;3</title>
<polygon fill="lightgray" stroke="black" points="696.262,-95.9117 672.262,-95.9117 672.262,-77.9117 696.262,-77.9117 696.262,-95.9117"/>
<text text-anchor="middle" x="684.262" y="-84.7117" font-family="Times New Roman,serif" font-size="9.00">&#45;3</text>
</g>
<!-- &#45;3&#45;&gt;0 -->
<g id="edge9" class="edge"><title>&#45;3&#45;&gt;0</title>
<path fill="none" stroke="red" stroke-width="0.150853" d="M690.777,-77.5674C694.546,-73.3317 699.648,-68.5017 705.262,-65.6985 711.678,-62.4946 917.744,-30.6603 989.734,-19.6067"/>
<polygon fill="red" stroke="red" stroke-width="0.150853" points="990.362,-23.0513 999.716,-18.0753 989.3,-16.1323 990.362,-23.0513"/>
</g>
<!-- &#45;3&#45;&gt;1 -->
<g id="edge10" class="edge"><title>&#45;3&#45;&gt;1</title>
<path fill="none" stroke="green" stroke-width="0.459449" d="M690.831,-77.6732C694.616,-73.4686 699.717,-68.6344 705.262,-65.6985 773.902,-29.3593 803.725,-57.4529 876.262,-29.6985 877.127,-29.3676 877.998,-29.0081 878.868,-28.6262"/>
<polygon fill="green" stroke="green" stroke-width="0.459449" points="880.641,-31.65 887.929,-23.9596 877.436,-25.427 880.641,-31.65"/>
</g>
<!-- &#45;3&#45;&gt;2 -->
<g id="edge11" class="edge"><title>&#45;3&#45;&gt;2</title>
<path fill="none" stroke="green" stroke-width="0.205086" d="M691.353,-77.5313C695.136,-73.4936 700.075,-68.855 705.262,-65.6985 744.629,-41.7449 796.993,-27.55 827.426,-20.7644"/>
<polygon fill="green" stroke="green" stroke-width="0.205086" points="828.533,-24.107 837.581,-18.5953 827.071,-17.2614 828.533,-24.107"/>
</g>
<!-- &#45;3&#45;&gt;3 -->
<g id="edge12" class="edge"><title>&#45;3&#45;&gt;3</title>
<path fill="none" stroke="red" stroke-width="0.116729" d="M690.361,-77.8611C694.144,-73.4931 699.394,-68.4398 705.262,-65.6985 840.135,-2.69651 896.749,-75.8938 1038.26,-29.6985 1039.14,-29.4111 1040.03,-29.0886 1040.91,-28.738"/>
<polygon fill="red" stroke="red" stroke-width="0.116729" points="1042.62,-31.7968 1050.02,-24.2168 1039.51,-25.5263 1042.62,-31.7968"/>
</g>
<!-- &#45;4 -->
<g id="node4" class="node"><title>&#45;4</title>
<polygon fill="lightgray" stroke="black" points="738.262,-95.9117 714.262,-95.9117 714.262,-77.9117 738.262,-77.9117 738.262,-95.9117"/>
<text text-anchor="middle" x="726.262" y="-84.7117" font-family="Times New Roman,serif" font-size="9.00">&#45;4</text>
</g>
<!-- &#45;4&#45;&gt;0 -->
<g id="edge13" class="edge"><title>&#45;4&#45;&gt;0</title>
<path fill="none" stroke="green" stroke-width="0.294901" stroke-dasharray="1,5" d="M732.805,-77.6224C736.582,-73.4028 741.683,-68.5707 747.262,-65.6985 768.768,-54.6267 927.316,-29.2805 989.417,-19.6537"/>
<polygon fill="green" stroke="green" stroke-width="0.294901" points="990.16,-23.0805 999.509,-18.0961 989.092,-16.1624 990.16,-23.0805"/>
</g>
<!-- &#45;4&#45;&gt;1 -->
<g id="edge14" class="edge"><title>&#45;4&#45;&gt;1</title>
<path fill="none" stroke="green" stroke-width="0.2291" stroke-dasharray="1,5" d="M732.909,-77.8149C736.717,-73.6518 741.814,-68.8121 747.262,-65.6985 798.941,-36.1621 821.385,-52.7554 876.262,-29.6985 877.116,-29.3398 877.977,-28.9567 878.84,-28.555"/>
<polygon fill="green" stroke="green" stroke-width="0.2291" points="880.651,-31.5567 887.863,-23.7955 877.385,-25.3652 880.651,-31.5567"/>
</g>
<!-- &#45;4&#45;&gt;2 -->
<g id="edge15" class="edge"><title>&#45;4&#45;&gt;2</title>
<path fill="none" stroke="green" stroke-width="0.28506" d="M733.516,-77.7821C737.34,-73.8083 742.267,-69.1511 747.262,-65.6985 773.344,-47.6716 806.962,-32.9954 829.041,-24.3472"/>
<polygon fill="green" stroke="green" stroke-width="0.28506" points="830.493,-27.5392 838.587,-20.7025 827.997,-20.9996 830.493,-27.5392"/>
</g>
<!-- &#45;4&#45;&gt;3 -->
<g id="edge16" class="edge"><title>&#45;4&#45;&gt;3</title>
<path fill="none" stroke="green" stroke-width="0.152587" d="M732.377,-77.8949C736.165,-73.5382 741.415,-68.4849 747.262,-65.6985 864.907,-9.63708 914.692,-71.092 1038.26,-29.6985 1039.14,-29.4043 1040.02,-29.0761 1040.9,-28.7206"/>
<polygon fill="green" stroke="green" stroke-width="0.152587" points="1042.62,-31.774 1050.01,-24.1768 1039.5,-25.5107 1042.62,-31.774"/>
</g>
<!-- &#45;5 -->
<g id="node5" class="node"><title>&#45;5</title>
<polygon fill="lightgray" stroke="black" points="780.262,-95.9117 756.262,-95.9117 756.262,-77.9117 780.262,-77.9117 780.262,-95.9117"/>
<text text-anchor="middle" x="768.262" y="-84.7117" font-family="Times New Roman,serif" font-size="9.00">&#45;5</text>
</g>
<!-- &#45;5&#45;&gt;0 -->
<g id="edge17" class="edge"><title>&#45;5&#45;&gt;0</title>
<path fill="none" stroke="red" stroke-width="0.324114" d="M774.844,-77.6965C778.632,-73.4986 783.732,-68.6636 789.262,-65.6985 824.002,-47.0719 938.561,-27.5867 989.485,-19.5996"/>
<polygon fill="red" stroke="red" stroke-width="0.324114" points="990.263,-23.0208 999.61,-18.032 989.192,-16.1032 990.263,-23.0208"/>
</g>
<!-- &#45;5&#45;&gt;1 -->
<g id="edge18" class="edge"><title>&#45;5&#45;&gt;1</title>
<path fill="none" stroke="red" stroke-width="0.195172" d="M775.443,-77.6735C779.249,-73.672 784.181,-69.0229 789.262,-65.6985 824.281,-42.7894 838.726,-48.1957 876.262,-29.6985 877.093,-29.2891 877.934,-28.8631 878.78,-28.4251"/>
<polygon fill="red" stroke="red" stroke-width="0.195172" points="880.657,-31.3874 887.726,-23.4965 877.279,-25.2563 880.657,-31.3874"/>
</g>
<!-- &#45;5&#45;&gt;2 -->
<g id="edge19" class="edge"><title>&#45;5&#45;&gt;2</title>
<path fill="none" stroke="green" stroke-width="0.112923" d="M776.268,-77.8522C780.115,-74.0717 784.841,-69.5596 789.262,-65.6985 803.431,-53.325 820.158,-40.1526 832.814,-30.4577"/>
<polygon fill="green" stroke="green" stroke-width="0.112923" points="835,-33.1918 840.844,-24.354 830.764,-27.619 835,-33.1918"/>
</g>
<!-- &#45;5&#45;&gt;3 -->
<g id="edge20" class="edge"><title>&#45;5&#45;&gt;3</title>
<path fill="none" stroke="green" stroke-width="0.52545" d="M774.759,-77.5307C778.523,-73.2843 783.626,-68.4557 789.262,-65.6985 889.706,-16.5644 932.605,-66.2999 1038.26,-29.6985 1039.14,-29.3954 1040.02,-29.0595 1040.89,-28.6976"/>
<polygon fill="green" stroke="green" stroke-width="0.52545" points="1042.63,-31.7437 1049.99,-24.1238 1039.48,-25.49 1042.63,-31.7437"/>
</g>
<!-- &#45;6 -->
<g id="node6" class="node"><title>&#45;6</title>
<polygon fill="lightgray" stroke="black" points="102.262,-95.9117 78.2623,-95.9117 78.2623,-77.9117 102.262,-77.9117 102.262,-95.9117"/>
<text text-anchor="middle" x="90.2623" y="-84.7117" font-family="Times New Roman,serif" font-size="9.00">&#45;6</text>
</g>
<!-- &#45;6&#45;&gt;0 -->
<g id="edge21" class="edge"><title>&#45;6&#45;&gt;0</title>
<path fill="none" stroke="red" stroke-width="0.605328" d="M96.2979,-77.7204C100.06,-73.3056 105.31,-68.2523 111.262,-65.6985 194.359,-30.0473 834.278,-38.5877 924.262,-29.6985 946.515,-27.5002 971.653,-23.5032 989.694,-20.3663"/>
<polygon fill="red" stroke="red" stroke-width="0.605328" points="990.437,-23.7891 999.671,-18.5935 989.213,-16.8971 990.437,-23.7891"/>
</g>
<!-- &#45;6&#45;&gt;1 -->
<g id="edge22" class="edge"><title>&#45;6&#45;&gt;1</title>
<path fill="none" stroke="red" stroke-width="0.234281" d="M96.3006,-77.7266C100.063,-73.3138 105.313,-68.2605 111.262,-65.6985 267.571,1.61947 712.949,-77.5807 876.262,-29.6985 877.324,-29.3872 878.389,-29.02 879.447,-28.6096"/>
<polygon fill="red" stroke="red" stroke-width="0.234281" points="881.161,-31.6664 888.562,-24.0851 878.049,-25.3963 881.161,-31.6664"/>
</g>
<!-- &#45;6&#45;&gt;2 -->
<g id="edge23" class="edge"><title>&#45;6&#45;&gt;2</title>
<path fill="none" stroke="red" stroke-width="0.227274" d="M96.3201,-77.7715C100.089,-73.3736 105.339,-68.3203 111.262,-65.6985 177.932,-36.1858 705.259,-19.9097 827.169,-16.5191"/>
<polygon fill="red" stroke="red" stroke-width="0.227274" points="827.475,-20.0122 837.375,-16.2393 827.283,-13.0148 827.475,-20.0122"/>
</g>
<!-- &#45;7 -->
<g id="node7" class="node"><title>&#45;7</title>
<polygon fill="lightgray" stroke="black" points="822.262,-95.9117 798.262,-95.9117 798.262,-77.9117 822.262,-77.9117 822.262,-95.9117"/>
<text text-anchor="middle" x="810.262" y="-84.7117" font-family="Times New Roman,serif" font-size="9.00">&#45;7</text>
</g>
<!-- &#45;7&#45;&gt;0 -->
<g id="edge24" class="edge"><title>&#45;7&#45;&gt;0</title>
<path fill="none" stroke="red" stroke-width="0.209014" d="M816.901,-77.8015C820.707,-73.6344 825.805,-68.7952 831.262,-65.6985 882.911,-36.3913 952.608,-23.6371 989.293,-18.6582"/>
<polygon fill="red" stroke="red" stroke-width="0.209014" points="990.083,-22.0861 999.561,-17.353 989.2,-15.142 990.083,-22.0861"/>
</g>
<!-- &#45;7&#45;&gt;1 -->
<g id="edge25" class="edge"><title>&#45;7&#45;&gt;1</title>
<path fill="none" stroke="red" stroke-width="0.105104" stroke-dasharray="1,5" d="M818.193,-77.7646C822.023,-73.965 826.757,-69.4619 831.262,-65.6985 846.892,-52.6409 865.69,-39.1957 879.716,-29.5642"/>
<polygon fill="red" stroke="red" stroke-width="0.105104" points="881.856,-32.3416 888.162,-23.828 877.923,-26.5508 881.856,-32.3416"/>
</g>
<!-- &#45;7&#45;&gt;2 -->
<g id="edge26" class="edge"><title>&#45;7&#45;&gt;2</title>
<path fill="none" stroke="green" stroke-width="0.639348" d="M815.08,-77.8746C821.033,-67.9452 831.386,-50.6741 839.658,-36.8744"/>
<polygon fill="green" stroke="green" stroke-width="0.639348" points="842.834,-38.3847 844.973,-28.0082 836.83,-34.7856 842.834,-38.3847"/>
</g>
<!-- &#45;7&#45;&gt;3 -->
<g id="edge27" class="edge"><title>&#45;7&#45;&gt;3</title>
<path fill="none" stroke="green" stroke-width="0.407407" d="M816.79,-77.5948C820.564,-73.3671 825.666,-68.5361 831.262,-65.6985 914.549,-23.47 950.472,-61.524 1038.26,-29.6985 1039.13,-29.3829 1040.01,-29.0364 1040.88,-28.6655"/>
<polygon fill="green" stroke="green" stroke-width="0.407407" points="1042.63,-31.7016 1049.96,-24.05 1039.46,-25.4616 1042.63,-31.7016"/>
</g>
<!-- &#45;8 -->
<g id="node8" class="node"><title>&#45;8</title>
<polygon fill="lightgray" stroke="black" points="864.262,-95.9117 840.262,-95.9117 840.262,-77.9117 864.262,-77.9117 864.262,-95.9117"/>
<text text-anchor="middle" x="852.262" y="-84.7117" font-family="Times New Roman,serif" font-size="9.00">&#45;8</text>
</g>
<!-- &#45;8&#45;&gt;0 -->
<g id="edge28" class="edge"><title>&#45;8&#45;&gt;0</title>
<path fill="none" stroke="red" stroke-width="0.260184" stroke-dasharray="1,5" d="M859.779,-77.5799C863.765,-73.5546 868.932,-68.9123 874.262,-65.6985 911.683,-43.1359 960.866,-28.6089 989.869,-21.3604"/>
<polygon fill="red" stroke="red" stroke-width="0.260184" points="991.028,-24.6815 999.931,-18.9372 989.389,-17.8761 991.028,-24.6815"/>
</g>
<!-- &#45;8&#45;&gt;1 -->
<g id="edge29" class="edge"><title>&#45;8&#45;&gt;1</title>
<path fill="none" stroke="green" stroke-width="0.229395" d="M857.768,-77.8746C864.717,-67.7318 876.915,-49.9283 886.464,-35.9895"/>
<polygon fill="green" stroke="green" stroke-width="0.229395" points="889.511,-37.7349 892.275,-27.5071 883.736,-33.7786 889.511,-37.7349"/>
</g>
<!-- &#45;8&#45;&gt;2 -->
<g id="edge30" class="edge"><title>&#45;8&#45;&gt;2</title>
<path fill="none" stroke="red" stroke-width="0.340215" stroke-dasharray="1,5" d="M852.262,-77.8746C852.262,-68.7202 852.262,-53.3256 852.262,-40.1641"/>
<polygon fill="red" stroke="red" stroke-width="0.340215" points="855.762,-39.8196 852.262,-29.8197 848.762,-39.8197 855.762,-39.8196"/>
</g>
<!-- &#45;8&#45;&gt;3 -->
<g id="edge31" class="edge"><title>&#45;8&#45;&gt;3</title>
<path fill="none" stroke="green" stroke-width="0.283149" d="M859.227,-77.6985C863.216,-73.5013 868.556,-68.6661 874.262,-65.6985 940.468,-31.2657 968.681,-56.665 1038.26,-29.6985 1039.13,-29.3638 1040,-29.0012 1040.86,-28.6167"/>
<polygon fill="green" stroke="green" stroke-width="0.283149" points="1042.64,-31.6376 1049.92,-23.9377 1039.43,-25.4186 1042.64,-31.6376"/>
</g>
<!-- &#45;9 -->
<g id="node9" class="node"><title>&#45;9</title>
<polygon fill="lightgray" stroke="black" points="1886.26,-95.9117 1862.26,-95.9117 1862.26,-77.9117 1886.26,-77.9117 1886.26,-95.9117"/>
<text text-anchor="middle" x="1874.26" y="-84.7117" font-family="Times New Roman,serif" font-size="9.00">&#45;9</text>
</g>
<!-- &#45;9&#45;&gt;0 -->
<g id="edge32" class="edge"><title>&#45;9&#45;&gt;0</title>
<path fill="none" stroke="green" stroke-width="0.248684" stroke-dasharray="1,5" d="M1868.23,-77.7202C1864.46,-73.3053 1859.21,-68.252 1853.26,-65.6985 1686.66,5.76999 1212.3,-80.4529 1038.26,-29.6985 1037.2,-29.3887 1036.14,-29.0228 1035.08,-28.6134"/>
<polygon fill="green" stroke="green" stroke-width="0.248684" points="1036.47,-25.3999 1025.96,-24.0926 1033.36,-31.6711 1036.47,-25.3999"/>
</g>
<!-- &#45;9&#45;&gt;1 -->
<g id="edge33" class="edge"><title>&#45;9&#45;&gt;1</title>
<path fill="none" stroke="green" stroke-width="0.126122" d="M1868.23,-77.7147C1864.47,-73.298 1859.22,-68.2447 1853.26,-65.6985 1765.02,-27.9718 1085.78,-39.011 990.262,-29.6985 968.007,-27.5287 942.869,-23.5287 924.829,-20.3834"/>
<polygon fill="green" stroke="green" stroke-width="0.126122" points="925.312,-16.9144 914.853,-18.6051 924.083,-23.8058 925.312,-16.9144"/>
</g>
<!-- &#45;9&#45;&gt;3 -->
<g id="edge34" class="edge"><title>&#45;9&#45;&gt;3</title>
<path fill="none" stroke="green" stroke-width="0.8239" d="M1868.21,-77.7621C1864.44,-73.3611 1859.19,-68.3078 1853.26,-65.6985 1781.75,-34.2213 1214.41,-19.3576 1087.42,-16.4067"/>
<polygon fill="green" stroke="green" stroke-width="0.8239" points="1087.23,-12.9015 1077.15,-16.172 1087.07,-19.8997 1087.23,-12.9015"/>
</g>
<!-- &#45;10 -->
<g id="node10" class="node"><title>&#45;10</title>
<polygon fill="lightgray" stroke="black" points="1749.76,-95.9117 1720.76,-95.9117 1720.76,-77.9117 1749.76,-77.9117 1749.76,-95.9117"/>
<text text-anchor="middle" x="1735.26" y="-84.7117" font-family="Times New Roman,serif" font-size="9.00">&#45;10</text>
</g>
<!-- &#45;10&#45;&gt;0 -->
<g id="edge35" class="edge"><title>&#45;10&#45;&gt;0</title>
<path fill="none" stroke="green" stroke-width="0.155293" d="M1726.33,-77.7213C1720.94,-73.3068 1713.69,-68.2535 1706.26,-65.6985 1425.11,31.0051 1323.29,-114.321 1038.26,-29.6985 1037.2,-29.3836 1036.14,-29.0135 1035.08,-28.6006"/>
<polygon fill="green" stroke="green" stroke-width="0.155293" points="1036.48,-25.3879 1025.97,-24.0673 1033.36,-31.6551 1036.48,-25.3879"/>
</g>
<!-- &#45;10&#45;&gt;2 -->
<g id="edge36" class="edge"><title>&#45;10&#45;&gt;2</title>
<path fill="none" stroke="green" stroke-width="0.301499" d="M1720.27,-79.7575C1707.89,-74.9874 1689.75,-68.7007 1673.26,-65.6985 1498.84,-33.9325 1046.44,-79.4189 876.262,-29.6985 875.2,-29.3882 874.135,-29.0219 873.077,-28.6121"/>
<polygon fill="green" stroke="green" stroke-width="0.301499" points="874.475,-25.3987 863.961,-24.09 871.364,-31.6695 874.475,-25.3987"/>
</g>
<!-- &#45;10&#45;&gt;3 -->
<g id="edge37" class="edge"><title>&#45;10&#45;&gt;3</title>
<path fill="none" stroke="green" stroke-width="0.10208" stroke-dasharray="1,5" d="M1726.31,-77.7864C1720.91,-73.3935 1713.66,-68.3402 1706.26,-65.6985 1589.08,-23.8539 1191.14,-17.0971 1087.24,-16.0396"/>
<polygon fill="green" stroke="green" stroke-width="0.10208" points="1087.12,-12.5384 1077.08,-15.9453 1087.05,-19.5381 1087.12,-12.5384"/>
</g>
<!-- &#45;11 -->
<g id="node11" class="node"><title>&#45;11</title>
<polygon fill="lightgray" stroke="black" points="911.762,-95.9117 882.762,-95.9117 882.762,-77.9117 911.762,-77.9117 911.762,-95.9117"/>
<text text-anchor="middle" x="897.262" y="-84.7117" font-family="Times New Roman,serif" font-size="9.00">&#45;11</text>
</g>
<!-- &#45;11&#45;&gt;0 -->
<g id="edge38" class="edge"><title>&#45;11&#45;&gt;0</title>
<path fill="none" stroke="red" stroke-width="0.164684" d="M906.253,-77.5706C910.615,-73.7284 916.033,-69.2457 921.262,-65.6985 944.242,-50.1115 972.614,-35.5063 991.936,-26.1848"/>
<polygon fill="red" stroke="red" stroke-width="0.164684" points="993.606,-29.266 1001.14,-21.8147 990.604,-22.9428 993.606,-29.266"/>
</g>
<!-- &#45;11&#45;&gt;1 -->
<g id="edge39" class="edge"><title>&#45;11&#45;&gt;1</title>
<path fill="none" stroke="red" stroke-width="0.400187" d="M897.606,-77.8746C897.998,-68.7202 898.658,-53.3256 899.221,-40.1641"/>
<polygon fill="red" stroke="red" stroke-width="0.400187" points="902.733,-39.9603 899.664,-29.8197 895.739,-39.6608 902.733,-39.9603"/>
</g>
<!-- &#45;11&#45;&gt;2 -->
<g id="edge40" class="edge"><title>&#45;11&#45;&gt;2</title>
<path fill="none" stroke="red" stroke-width="0.367784" d="M892.1,-77.8746C885.623,-67.7908 874.284,-50.1351 865.354,-36.233"/>
<polygon fill="red" stroke="red" stroke-width="0.367784" points="868.259,-34.2792 859.91,-27.7567 862.37,-38.0622 868.259,-34.2792"/>
</g>
<!-- &#45;11&#45;&gt;3 -->
<g id="edge41" class="edge"><title>&#45;11&#45;&gt;3</title>
<path fill="none" stroke="red" stroke-width="0.471858" d="M905.094,-77.9109C909.516,-73.7759 915.332,-68.9324 921.262,-65.6985 969.028,-39.6518 988.386,-51.4319 1038.26,-29.6985 1039.11,-29.3286 1039.97,-28.936 1040.83,-28.5262"/>
<polygon fill="red" stroke="red" stroke-width="0.471858" points="1042.65,-31.5191 1049.83,-23.7292 1039.36,-25.3407 1042.65,-31.5191"/>
</g>
<!-- &#45;12 -->
<g id="node12" class="node"><title>&#45;12</title>
<polygon fill="lightgray" stroke="black" points="958.762,-95.9117 929.762,-95.9117 929.762,-77.9117 958.762,-77.9117 958.762,-95.9117"/>
<text text-anchor="middle" x="944.262" y="-84.7117" font-family="Times New Roman,serif" font-size="9.00">&#45;12</text>
</g>
<!-- &#45;12&#45;&gt;0 -->
<g id="edge42" class="edge"><title>&#45;12&#45;&gt;0</title>
<path fill="none" stroke="red" stroke-width="0.257678" d="M952.292,-77.8746C963.079,-67.0781 982.538,-47.6015 996.782,-33.3456"/>
<polygon fill="red" stroke="red" stroke-width="0.257678" points="999.478,-35.599 1004.07,-26.051 994.526,-30.6514 999.478,-35.599"/>
</g>
<!-- &#45;12&#45;&gt;1 -->
<g id="edge43" class="edge"><title>&#45;12&#45;&gt;1</title>
<path fill="none" stroke="red" stroke-width="0.102225" d="M939.215,-77.8746C932.882,-67.7908 921.794,-50.1351 913.063,-36.233"/>
<polygon fill="red" stroke="red" stroke-width="0.102225" points="916.023,-34.3638 907.74,-27.7567 910.095,-38.0866 916.023,-34.3638"/>
</g>
<!-- &#45;12&#45;&gt;2 -->
<g id="edge44" class="edge"><title>&#45;12&#45;&gt;2</title>
<path fill="none" stroke="red" stroke-width="0.242216" d="M935.475,-77.8381C931.257,-74.0545 926.083,-69.5438 921.262,-65.6985 905.341,-52.9984 886.565,-39.5257 872.622,-29.7927"/>
<polygon fill="red" stroke="red" stroke-width="0.242216" points="874.45,-26.8007 864.236,-23.9825 870.463,-32.5546 874.45,-26.8007"/>
</g>
<!-- &#45;12&#45;&gt;3 -->
<g id="edge45" class="edge"><title>&#45;12&#45;&gt;3</title>
<path fill="none" stroke="red" stroke-width="0.463669" d="M953.226,-77.5305C957.582,-73.6796 963.003,-69.201 968.262,-65.6985 997.381,-46.3078 1007.55,-46.4461 1038.26,-29.6985 1039.08,-29.2552 1039.9,-28.8002 1040.74,-28.3379"/>
<polygon fill="red" stroke="red" stroke-width="0.463669" points="1042.65,-31.2746 1049.62,-23.2958 1039.2,-25.1862 1042.65,-31.2746"/>
</g>
<!-- &#45;13 -->
<g id="node13" class="node"><title>&#45;13</title>
<polygon fill="lightgray" stroke="black" points="1005.76,-95.9117 976.762,-95.9117 976.762,-77.9117 1005.76,-77.9117 1005.76,-95.9117"/>
<text text-anchor="middle" x="991.262" y="-84.7117" font-family="Times New Roman,serif" font-size="9.00">&#45;13</text>
</g>
<!-- &#45;13&#45;&gt;0 -->
<g id="edge46" class="edge"><title>&#45;13&#45;&gt;0</title>
<path fill="none" stroke="red" stroke-width="0.109376" d="M993.901,-77.8746C997.004,-68.4226 1002.29,-52.3178 1006.7,-38.8876"/>
<polygon fill="red" stroke="red" stroke-width="0.109376" points="1010.06,-39.886 1009.85,-29.2932 1003.4,-37.7027 1010.06,-39.886"/>
</g>
<!-- &#45;13&#45;&gt;1 -->
<g id="edge47" class="edge"><title>&#45;13&#45;&gt;1</title>
<path fill="none" stroke="green" stroke-width="0.156567" d="M982.463,-77.8531C978.243,-74.0728 973.07,-69.5605 968.262,-65.6985 952.536,-53.0643 934.035,-39.5866 920.304,-29.8349"/>
<polygon fill="green" stroke="green" stroke-width="0.156567" points="922.237,-26.9147 912.047,-24.011 918.202,-32.635 922.237,-26.9147"/>
</g>
<!-- &#45;13&#45;&gt;2 -->
<g id="edge48" class="edge"><title>&#45;13&#45;&gt;2</title>
<path fill="none" stroke="green" stroke-width="0.182905" d="M983.299,-77.668C979.105,-73.6652 973.711,-69.0164 968.262,-65.6985 930.761,-42.8611 915.834,-48.725 876.262,-29.6985 875.428,-29.2972 874.583,-28.878 873.734,-28.4457"/>
<polygon fill="green" stroke="green" stroke-width="0.182905" points="875.228,-25.2733 864.775,-23.5441 871.868,-31.4143 875.228,-25.2733"/>
</g>
<!-- &#45;13&#45;&gt;3 -->
<g id="edge49" class="edge"><title>&#45;13&#45;&gt;3</title>
<path fill="none" stroke="green" stroke-width="0.132684" d="M999.407,-77.8746C1010.35,-67.0781 1030.09,-47.6015 1044.53,-33.3456"/>
<polygon fill="green" stroke="green" stroke-width="0.132684" points="1047.26,-35.5662 1051.92,-26.051 1042.35,-30.5836 1047.26,-35.5662"/>
</g>
<!-- &#45;14 -->
<g id="node14" class="node"><title>&#45;14</title>
<polygon fill="lightgray" stroke="black" points="1052.76,-95.9117 1023.76,-95.9117 1023.76,-77.9117 1052.76,-77.9117 1052.76,-95.9117"/>
<text text-anchor="middle" x="1038.26" y="-84.7117" font-family="Times New Roman,serif" font-size="9.00">&#45;14</text>
</g>
<!-- &#45;14&#45;&gt;0 -->
<g id="edge50" class="edge"><title>&#45;14&#45;&gt;0</title>
<path fill="none" stroke="red" stroke-width="0.251104" d="M1035.51,-77.8746C1032.25,-68.3653 1026.69,-52.1224 1022.07,-38.6437"/>
<polygon fill="red" stroke="red" stroke-width="0.251104" points="1025.33,-37.3587 1018.78,-29.0326 1018.71,-39.6272 1025.33,-37.3587"/>
</g>
<!-- &#45;14&#45;&gt;1 -->
<g id="edge51" class="edge"><title>&#45;14&#45;&gt;1</title>
<path fill="none" stroke="green" stroke-width="0.240608" d="M1030.25,-77.7507C1026.04,-73.7689 1020.65,-69.114 1015.26,-65.6985 985.805,-47.0241 948.154,-32.1928 924.117,-23.7127"/>
<polygon fill="green" stroke="green" stroke-width="0.240608" points="925.005,-20.3171 914.411,-20.3734 922.728,-26.9363 925.005,-20.3171"/>
</g>
<!-- &#45;14&#45;&gt;2 -->
<g id="edge52" class="edge"><title>&#45;14&#45;&gt;2</title>
<path fill="none" stroke="green" stroke-width="0.21598" d="M1030.87,-77.7929C1026.67,-73.6234 1021.09,-68.7845 1015.26,-65.6985 958.872,-35.8221 935.325,-53.8661 876.262,-29.6985 875.405,-29.3478 874.541,-28.9715 873.677,-28.5755"/>
<polygon fill="green" stroke="green" stroke-width="0.21598" points="875.124,-25.3829 864.642,-23.8428 871.876,-31.5836 875.124,-25.3829"/>
</g>
<!-- &#45;14&#45;&gt;3 -->
<g id="edge53" class="edge"><title>&#45;14&#45;&gt;3</title>
<path fill="none" stroke="green" stroke-width="0.233688" d="M1041.02,-77.8746C1044.27,-68.3653 1049.84,-52.1224 1054.45,-38.6437"/>
<polygon fill="green" stroke="green" stroke-width="0.233688" points="1057.82,-39.6272 1057.75,-29.0326 1051.19,-37.3587 1057.82,-39.6272"/>
</g>
<!-- &#45;15 -->
<g id="node15" class="node"><title>&#45;15</title>
<polygon fill="lightgray" stroke="black" points="1796.76,-95.9117 1767.76,-95.9117 1767.76,-77.9117 1796.76,-77.9117 1796.76,-95.9117"/>
<text text-anchor="middle" x="1782.26" y="-84.7117" font-family="Times New Roman,serif" font-size="9.00">&#45;15</text>
</g>
<!-- &#45;15&#45;&gt;0 -->
<g id="edge54" class="edge"><title>&#45;15&#45;&gt;0</title>
<path fill="none" stroke="green" stroke-width="0.190484" d="M1775.49,-77.7238C1771.32,-73.31 1765.57,-68.2567 1759.26,-65.6985 1610.61,-5.38466 1192.14,-75.0535 1038.26,-29.6985 1037.2,-29.3857 1036.14,-29.0173 1035.08,-28.6058"/>
<polygon fill="green" stroke="green" stroke-width="0.190484" points="1036.48,-25.3928 1025.96,-24.0776 1033.36,-31.6616 1036.48,-25.3928"/>
</g>
<!-- &#45;15&#45;&gt;2 -->
<g id="edge55" class="edge"><title>&#45;15&#45;&gt;2</title>
<path fill="none" stroke="red" stroke-width="0.422946" d="M1775.5,-77.7021C1771.33,-73.2812 1765.58,-68.2279 1759.26,-65.6985 1576.95,7.30395 1064.89,-84.3596 876.262,-29.6985 875.2,-29.3905 874.134,-29.0261 873.075,-28.6179"/>
<polygon fill="red" stroke="red" stroke-width="0.422946" points="874.472,-25.4041 863.958,-24.1015 871.365,-31.6767 874.472,-25.4041"/>
</g>
<!-- &#45;15&#45;&gt;3 -->
<g id="edge56" class="edge"><title>&#45;15&#45;&gt;3</title>
<path fill="none" stroke="green" stroke-width="0.300061" d="M1775.47,-77.7745C1771.29,-73.3777 1765.54,-68.3244 1759.26,-65.6985 1634.29,-13.4197 1196.91,-14.4173 1087.31,-15.5233"/>
<polygon fill="green" stroke="green" stroke-width="0.300061" points="1087.17,-12.0246 1077.21,-15.6355 1087.25,-19.0242 1087.17,-12.0246"/>
</g>
<!-- &#45;16 -->
<g id="node16" class="node"><title>&#45;16</title>
<polygon fill="lightgray" stroke="black" points="1099.76,-95.9117 1070.76,-95.9117 1070.76,-77.9117 1099.76,-77.9117 1099.76,-95.9117"/>
<text text-anchor="middle" x="1085.26" y="-84.7117" font-family="Times New Roman,serif" font-size="9.00">&#45;16</text>
</g>
<!-- &#45;16&#45;&gt;0 -->
<g id="edge57" class="edge"><title>&#45;16&#45;&gt;0</title>
<path fill="none" stroke="red" stroke-width="0.283425" d="M1077.12,-77.8746C1066.18,-67.0781 1046.44,-47.6015 1031.99,-33.3456"/>
<polygon fill="red" stroke="red" stroke-width="0.283425" points="1034.18,-30.5836 1024.6,-26.051 1029.26,-35.5662 1034.18,-30.5836"/>
</g>
<!-- &#45;16&#45;&gt;1 -->
<g id="edge58" class="edge"><title>&#45;16&#45;&gt;1</title>
<path fill="none" stroke="red" stroke-width="0.429585" d="M1077.81,-77.897C1073.59,-73.758 1068.02,-68.915 1062.26,-65.6985 1017.26,-40.5421 957.983,-26.471 925.044,-20.0944"/>
<polygon fill="red" stroke="red" stroke-width="0.429585" points="925.412,-16.6031 914.942,-18.222 924.136,-23.4859 925.412,-16.6031"/>
</g>
<!-- &#45;16&#45;&gt;2 -->
<g id="edge59" class="edge"><title>&#45;16&#45;&gt;2</title>
<path fill="none" stroke="red" stroke-width="0.309305" d="M1077.94,-77.6472C1073.76,-73.4349 1068.18,-68.6018 1062.26,-65.6985 986.668,-28.6129 955.146,-59.1458 876.262,-29.6985 875.395,-29.3746 874.522,-29.0212 873.65,-28.6444"/>
<polygon fill="red" stroke="red" stroke-width="0.309305" points="875.076,-25.4429 864.58,-24.0013 871.886,-31.6738 875.076,-25.4429"/>
</g>
<!-- &#45;16&#45;&gt;3 -->
<g id="edge60" class="edge"><title>&#45;16&#45;&gt;3</title>
<path fill="none" stroke="red" stroke-width="0.381274" d="M1082.62,-77.8746C1079.52,-68.4226 1074.23,-52.3178 1069.83,-38.8876"/>
<polygon fill="red" stroke="red" stroke-width="0.381274" points="1073.12,-37.7027 1066.68,-29.2932 1066.47,-39.886 1073.12,-37.7027"/>
</g>
<!-- &#45;17 -->
<g id="node17" class="node"><title>&#45;17</title>
<polygon fill="lightgray" stroke="black" points="1146.76,-95.9117 1117.76,-95.9117 1117.76,-77.9117 1146.76,-77.9117 1146.76,-95.9117"/>
<text text-anchor="middle" x="1132.26" y="-84.7117" font-family="Times New Roman,serif" font-size="9.00">&#45;17</text>
</g>
<!-- &#45;17&#45;&gt;0 -->
<g id="edge61" class="edge"><title>&#45;17&#45;&gt;0</title>
<path fill="none" stroke="red" stroke-width="0.30256" d="M1124.16,-77.8868C1119.93,-73.9396 1114.54,-69.2747 1109.26,-65.6985 1079.96,-45.8638 1069.37,-46.5463 1038.26,-29.6985 1037.45,-29.2575 1036.62,-28.8045 1035.79,-28.3439"/>
<polygon fill="red" stroke="red" stroke-width="0.30256" points="1037.32,-25.1909 1026.89,-23.3096 1033.87,-31.2823 1037.32,-25.1909"/>
</g>
<!-- &#45;17&#45;&gt;1 -->
<g id="edge62" class="edge"><title>&#45;17&#45;&gt;1</title>
<path fill="none" stroke="green" stroke-width="0.595628" d="M1124.89,-77.748C1120.7,-73.5653 1115.12,-68.7282 1109.26,-65.6985 1076.99,-48.9972 972.792,-28.8451 924.835,-20.1675"/>
<polygon fill="green" stroke="green" stroke-width="0.595628" points="925.172,-16.6724 914.712,-18.3556 923.939,-23.5629 925.172,-16.6724"/>
</g>
<!-- &#45;17&#45;&gt;2 -->
<g id="edge63" class="edge"><title>&#45;17&#45;&gt;2</title>
<path fill="none" stroke="red" stroke-width="0.117446" d="M1124.99,-77.5573C1120.82,-73.3188 1115.23,-68.4891 1109.26,-65.6985 1014.33,-21.3375 975.106,-64.4781 876.262,-29.6985 875.389,-29.3911 874.511,-29.0517 873.634,-28.6867"/>
<polygon fill="red" stroke="red" stroke-width="0.117446" points="875.049,-25.4803 864.545,-24.0987 871.895,-31.7294 875.049,-25.4803"/>
</g>
<!-- &#45;17&#45;&gt;3 -->
<g id="edge64" class="edge"><title>&#45;17&#45;&gt;3</title>
<path fill="none" stroke="green" stroke-width="0.284995" d="M1124.23,-77.8746C1113.45,-67.0781 1093.99,-47.6015 1079.74,-33.3456"/>
<polygon fill="green" stroke="green" stroke-width="0.284995" points="1082,-30.6514 1072.45,-26.051 1077.05,-35.599 1082,-30.6514"/>
</g>
<!-- &#45;18 -->
<g id="node18" class="node"><title>&#45;18</title>
<polygon fill="lightgray" stroke="black" points="1193.76,-95.9117 1164.76,-95.9117 1164.76,-77.9117 1193.76,-77.9117 1193.76,-95.9117"/>
<text text-anchor="middle" x="1179.26" y="-84.7117" font-family="Times New Roman,serif" font-size="9.00">&#45;18</text>
</g>
<!-- &#45;18&#45;&gt;0 -->
<g id="edge65" class="edge"><title>&#45;18&#45;&gt;0</title>
<path fill="none" stroke="green" stroke-width="0.300068" stroke-dasharray="1,5" d="M1171.82,-77.8915C1167.6,-73.7508 1162.02,-68.9081 1156.26,-65.6985 1108.37,-39.0004 1088.55,-51.5417 1038.26,-29.6985 1037.41,-29.3296 1036.56,-28.9378 1035.7,-28.5288"/>
<polygon fill="green" stroke="green" stroke-width="0.300068" points="1037.16,-25.3429 1026.69,-23.7352 1033.87,-31.5225 1037.16,-25.3429"/>
</g>
<!-- &#45;18&#45;&gt;1 -->
<g id="edge66" class="edge"><title>&#45;18&#45;&gt;1</title>
<path fill="none" stroke="green" stroke-width="0.182883" d="M1171.94,-77.6499C1167.76,-73.4384 1162.18,-68.6051 1156.26,-65.6985 1135.51,-55.5016 984.859,-29.8354 924.841,-19.8818"/>
<polygon fill="green" stroke="green" stroke-width="0.182883" points="925.178,-16.39 914.741,-18.2134 924.037,-23.2965 925.178,-16.39"/>
</g>
<!-- &#45;18&#45;&gt;2 -->
<g id="edge67" class="edge"><title>&#45;18&#45;&gt;2</title>
<path fill="none" stroke="red" stroke-width="0.502076" d="M1172.41,-77.9067C1168.21,-73.5539 1162.46,-68.5006 1156.26,-65.6985 1041.93,-14.0298 995.138,-69.8358 876.262,-29.6985 875.385,-29.4022 874.504,-29.0722 873.624,-28.7152"/>
<polygon fill="red" stroke="red" stroke-width="0.502076" points="875.032,-25.5058 864.522,-24.1644 871.901,-31.7669 875.032,-25.5058"/>
</g>
<!-- &#45;18&#45;&gt;3 -->
<g id="edge68" class="edge"><title>&#45;18&#45;&gt;3</title>
<path fill="none" stroke="red" stroke-width="0.148658" d="M1170.7,-77.5316C1166.53,-73.6809 1161.34,-69.2022 1156.26,-65.6985 1133.22,-49.7894 1104.51,-35.2435 1084.92,-26.024"/>
<polygon fill="red" stroke="red" stroke-width="0.148658" points="1086.13,-22.7285 1075.59,-21.7093 1083.2,-29.0824 1086.13,-22.7285"/>
</g>
<!-- &#45;19 -->
<g id="node19" class="node"><title>&#45;19</title>
<polygon fill="lightgray" stroke="black" points="1240.76,-95.9117 1211.76,-95.9117 1211.76,-77.9117 1240.76,-77.9117 1240.76,-95.9117"/>
<text text-anchor="middle" x="1226.26" y="-84.7117" font-family="Times New Roman,serif" font-size="9.00">&#45;19</text>
</g>
<!-- &#45;19&#45;&gt;0 -->
<g id="edge69" class="edge"><title>&#45;19&#45;&gt;0</title>
<path fill="none" stroke="red" stroke-width="0.389572" d="M1218.92,-77.7028C1214.73,-73.5068 1209.15,-68.6715 1203.26,-65.6985 1136.27,-31.8457 1108.27,-56.7775 1038.26,-29.6985 1037.4,-29.3644 1036.53,-29.0022 1035.66,-28.6181"/>
<polygon fill="red" stroke="red" stroke-width="0.389572" points="1037.09,-25.4199 1026.6,-23.9409 1033.88,-31.6394 1037.09,-25.4199"/>
</g>
<!-- &#45;19&#45;&gt;1 -->
<g id="edge70" class="edge"><title>&#45;19&#45;&gt;1</title>
<path fill="none" stroke="green" stroke-width="0.291817" d="M1218.98,-77.5806C1214.8,-73.3488 1209.22,-68.5183 1203.26,-65.6985 1196.93,-62.7017 996.617,-31.0027 925.226,-19.769"/>
<polygon fill="green" stroke="green" stroke-width="0.291817" points="925.347,-16.245 914.925,-18.1493 924.26,-23.1601 925.347,-16.245"/>
</g>
<!-- &#45;19&#45;&gt;2 -->
<g id="edge71" class="edge"><title>&#45;19&#45;&gt;2</title>
<path fill="none" stroke="red" stroke-width="0.320519" d="M1219.43,-77.8642C1215.24,-73.4973 1209.49,-68.444 1203.26,-65.6985 1069.48,-6.70416 1015.21,-75.2074 876.262,-29.6985 875.382,-29.4102 874.499,-29.0871 873.618,-28.7358"/>
<polygon fill="red" stroke="red" stroke-width="0.320519" points="875.02,-25.5243 864.506,-24.2117 871.906,-31.7939 875.02,-25.5243"/>
</g>
<!-- &#45;19&#45;&gt;3 -->
<g id="edge72" class="edge"><title>&#45;19&#45;&gt;3</title>
<path fill="none" stroke="red" stroke-width="0.18359" d="M1218.34,-77.5912C1214.16,-73.5687 1208.76,-68.9256 1203.26,-65.6985 1165.16,-43.3548 1115.44,-28.6947 1086.36,-21.3726"/>
<polygon fill="red" stroke="red" stroke-width="0.18359" points="1087.19,-17.9713 1076.64,-19.0063 1085.53,-24.7727 1087.19,-17.9713"/>
</g>
<!-- &#45;20 -->
<g id="node20" class="node"><title>&#45;20</title>
<polygon fill="lightgray" stroke="black" points="1287.76,-95.9117 1258.76,-95.9117 1258.76,-77.9117 1287.76,-77.9117 1287.76,-95.9117"/>
<text text-anchor="middle" x="1273.26" y="-84.7117" font-family="Times New Roman,serif" font-size="9.00">&#45;20</text>
</g>
<!-- &#45;20&#45;&gt;0 -->
<g id="edge73" class="edge"><title>&#45;20&#45;&gt;0</title>
<path fill="none" stroke="red" stroke-width="0.172697" d="M1265.97,-77.5928C1261.8,-73.3646 1256.21,-68.5336 1250.26,-65.6985 1163.98,-24.5935 1128.18,-62.0914 1038.26,-29.6985 1037.39,-29.3846 1036.52,-29.0396 1035.64,-28.67"/>
<polygon fill="red" stroke="red" stroke-width="0.172697" points="1037.06,-25.4655 1026.56,-24.0603 1033.89,-31.7075 1037.06,-25.4655"/>
</g>
<!-- &#45;20&#45;&gt;1 -->
<g id="edge74" class="edge"><title>&#45;20&#45;&gt;1</title>
<path fill="none" stroke="green" stroke-width="0.492171" d="M1266,-77.5199C1261.84,-73.2703 1256.26,-68.4422 1250.26,-65.6985 1144.19,-17.1422 1105.69,-46.5702 990.262,-29.6985 968.136,-26.4645 942.985,-22.5763 924.907,-19.7441"/>
<polygon fill="green" stroke="green" stroke-width="0.492171" points="925.328,-16.2674 914.905,-18.172 924.241,-23.1825 925.328,-16.2674"/>
</g>
<!-- &#45;20&#45;&gt;2 -->
<g id="edge75" class="edge"><title>&#45;20&#45;&gt;2</title>
<path fill="none" stroke="red" stroke-width="0.156089" d="M1266.45,-77.8322C1262.26,-73.4546 1256.51,-68.4013 1250.26,-65.6985 1097.01,0.632538 1035.31,-80.5876 876.262,-29.6985 875.208,-29.3613 874.15,-28.9729 873.097,-28.5453"/>
<polygon fill="red" stroke="red" stroke-width="0.156089" points="874.506,-25.3361 864.001,-23.9576 871.354,-31.5861 874.506,-25.3361"/>
</g>
<!-- &#45;20&#45;&gt;3 -->
<g id="edge76" class="edge"><title>&#45;20&#45;&gt;3</title>
<path fill="none" stroke="red" stroke-width="0.156579" d="M1265.86,-77.8063C1261.66,-73.6407 1256.08,-68.8013 1250.26,-65.6985 1196.17,-36.8382 1124.23,-23.8398 1086.98,-18.7213"/>
<polygon fill="red" stroke="red" stroke-width="0.156579" points="1087.37,-15.2439 1077.01,-17.4282 1086.47,-22.1857 1087.37,-15.2439"/>
</g>
<!-- &#45;21 -->
<g id="node21" class="node"><title>&#45;21</title>
<polygon fill="lightgray" stroke="black" points="1334.76,-95.9117 1305.76,-95.9117 1305.76,-77.9117 1334.76,-77.9117 1334.76,-95.9117"/>
<text text-anchor="middle" x="1320.26" y="-84.7117" font-family="Times New Roman,serif" font-size="9.00">&#45;21</text>
</g>
<!-- &#45;21&#45;&gt;0 -->
<g id="edge77" class="edge"><title>&#45;21&#45;&gt;0</title>
<path fill="none" stroke="green" stroke-width="0.142471" d="M1313,-77.5211C1308.84,-73.2719 1303.26,-68.4437 1297.26,-65.6985 1191.6,-17.2978 1148.18,-67.4397 1038.26,-29.6985 1037.39,-29.3978 1036.51,-29.0639 1035.63,-28.7037"/>
<polygon fill="green" stroke="green" stroke-width="0.142471" points="1037.04,-25.4955 1026.53,-24.1379 1033.9,-31.7518 1037.04,-25.4955"/>
</g>
<!-- &#45;21&#45;&gt;1 -->
<g id="edge78" class="edge"><title>&#45;21&#45;&gt;1</title>
<path fill="none" stroke="red" stroke-width="0.324414" d="M1313.42,-77.8807C1309.23,-73.5193 1303.48,-68.466 1297.26,-65.6985 1171.76,-9.82311 1126.4,-48.1485 990.262,-29.6985 968.104,-26.6954 942.956,-22.783 924.887,-19.8828"/>
<polygon fill="red" stroke="red" stroke-width="0.324414" points="925.323,-16.4079 914.892,-18.266 924.205,-23.3181 925.323,-16.4079"/>
</g>
<!-- &#45;21&#45;&gt;2 -->
<g id="edge79" class="edge"><title>&#45;21&#45;&gt;2</title>
<path fill="none" stroke="red" stroke-width="0.123784" d="M1313.46,-77.8072C1309.27,-73.4213 1303.52,-68.368 1297.26,-65.6985 1124.52,7.97651 1055.43,-85.9733 876.262,-29.6985 875.207,-29.3669 874.147,-28.9832 873.093,-28.5592"/>
<polygon fill="red" stroke="red" stroke-width="0.123784" points="874.499,-25.3491 863.993,-23.9853 871.356,-31.6035 874.499,-25.3491"/>
</g>
<!-- &#45;21&#45;&gt;3 -->
<g id="edge80" class="edge"><title>&#45;21&#45;&gt;3</title>
<path fill="none" stroke="red" stroke-width="0.243345" d="M1312.92,-77.6892C1308.73,-73.4892 1303.15,-68.6545 1297.26,-65.6985 1226.64,-30.2674 1131.85,-19.9768 1087.33,-17.0209"/>
<polygon fill="red" stroke="red" stroke-width="0.243345" points="1087.34,-13.5149 1077.15,-16.4166 1086.92,-20.5026 1087.34,-13.5149"/>
</g>
<!-- &#45;22 -->
<g id="node22" class="node"><title>&#45;22</title>
<polygon fill="lightgray" stroke="black" points="1933.76,-95.9117 1904.76,-95.9117 1904.76,-77.9117 1933.76,-77.9117 1933.76,-95.9117"/>
<text text-anchor="middle" x="1919.26" y="-84.7117" font-family="Times New Roman,serif" font-size="9.00">&#45;22</text>
</g>
<!-- &#45;22&#45;&gt;0 -->
<g id="edge81" class="edge"><title>&#45;22&#45;&gt;0</title>
<path fill="none" stroke="red" stroke-width="0.222411" d="M1912.14,-77.7009C1907.76,-73.2796 1901.76,-68.2263 1895.26,-65.6985 1717.62,3.40229 1221.31,-82.8658 1038.26,-29.6985 1037.2,-29.3899 1036.13,-29.0249 1035.08,-28.6162"/>
<polygon fill="red" stroke="red" stroke-width="0.222411" points="1036.47,-25.4026 1025.96,-24.0983 1033.36,-31.6747 1036.47,-25.4026"/>
</g>
<!-- &#45;22&#45;&gt;3 -->
<g id="edge82" class="edge"><title>&#45;22&#45;&gt;3</title>
<path fill="none" stroke="green" stroke-width="0.322658" d="M1912.12,-77.7442C1907.74,-73.3373 1901.74,-68.284 1895.26,-65.6985 1818.62,-35.0973 1218.48,-19.4786 1087.47,-16.4146"/>
<polygon fill="green" stroke="green" stroke-width="0.322658" points="1087.31,-12.9101 1077.23,-16.1786 1087.15,-19.9083 1087.31,-12.9101"/>
</g>
<!-- &#45;23 -->
<g id="node23" class="node"><title>&#45;23</title>
<polygon fill="lightgray" stroke="black" points="1381.76,-95.9117 1352.76,-95.9117 1352.76,-77.9117 1381.76,-77.9117 1381.76,-95.9117"/>
<text text-anchor="middle" x="1367.26" y="-84.7117" font-family="Times New Roman,serif" font-size="9.00">&#45;23</text>
</g>
<!-- &#45;23&#45;&gt;0 -->
<g id="edge83" class="edge"><title>&#45;23&#45;&gt;0</title>
<path fill="none" stroke="green" stroke-width="0.290052" d="M1360.42,-77.8816C1356.23,-73.5205 1350.48,-68.4672 1344.26,-65.6985 1219.17,-9.979 1168.24,-72.806 1038.26,-29.6985 1037.38,-29.407 1036.5,-29.081 1035.62,-28.7274"/>
<polygon fill="green" stroke="green" stroke-width="0.290052" points="1037.02,-25.5167 1026.51,-24.1924 1033.9,-31.7829 1037.02,-25.5167"/>
</g>
<!-- &#45;23&#45;&gt;1 -->
<g id="edge84" class="edge"><title>&#45;23&#45;&gt;1</title>
<path fill="none" stroke="red" stroke-width="0.245565" d="M1360.44,-77.8448C1356.25,-73.4714 1350.5,-68.4181 1344.26,-65.6985 1199.3,-2.49052 1147.13,-49.7312 990.262,-29.6985 968.081,-26.8659 942.936,-22.9356 924.874,-19.9853"/>
<polygon fill="red" stroke="red" stroke-width="0.245565" points="925.32,-16.5116 914.883,-18.3354 924.179,-23.4181 925.32,-16.5116"/>
</g>
<!-- &#45;23&#45;&gt;2 -->
<g id="edge85" class="edge"><title>&#45;23&#45;&gt;2</title>
<path fill="none" stroke="red" stroke-width="0.491167" d="M1360.46,-77.7872C1356.28,-73.3946 1350.53,-68.3413 1344.26,-65.6985 1152.03,15.3255 1075.55,-91.3629 876.262,-29.6985 875.205,-29.3714 874.144,-28.9914 873.089,-28.5704"/>
<polygon fill="red" stroke="red" stroke-width="0.491167" points="874.494,-25.3596 863.986,-24.0075 871.357,-31.6175 874.494,-25.3596"/>
</g>
<!-- &#45;23&#45;&gt;3 -->
<g id="edge86" class="edge"><title>&#45;23&#45;&gt;3</title>
<path fill="none" stroke="green" stroke-width="0.523411" d="M1359.96,-77.6088C1355.79,-73.3853 1350.2,-68.5537 1344.26,-65.6985 1256.59,-23.5667 1138.22,-16.7174 1087.28,-15.8296"/>
<polygon fill="green" stroke="green" stroke-width="0.523411" points="1087.23,-12.329 1077.19,-15.7189 1087.15,-19.3286 1087.23,-12.329"/>
</g>
<!-- &#45;24 -->
<g id="node24" class="node"><title>&#45;24</title>
<polygon fill="lightgray" stroke="black" points="1428.76,-95.9117 1399.76,-95.9117 1399.76,-77.9117 1428.76,-77.9117 1428.76,-95.9117"/>
<text text-anchor="middle" x="1414.26" y="-84.7117" font-family="Times New Roman,serif" font-size="9.00">&#45;24</text>
</g>
<!-- &#45;24&#45;&gt;0 -->
<g id="edge87" class="edge"><title>&#45;24&#45;&gt;0</title>
<path fill="none" stroke="red" stroke-width="0.173493" d="M1407.44,-77.8455C1403.25,-73.4723 1397.5,-68.419 1391.26,-65.6985 1246.71,-2.64664 1188.33,-78.1828 1038.26,-29.6985 1037.21,-29.3583 1036.15,-28.9675 1035.1,-28.5378"/>
<polygon fill="red" stroke="red" stroke-width="0.173493" points="1036.51,-25.3292 1026.01,-23.9429 1033.35,-31.5768 1036.51,-25.3292"/>
</g>
<!-- &#45;24&#45;&gt;1 -->
<g id="edge88" class="edge"><title>&#45;24&#45;&gt;1</title>
<path fill="none" stroke="green" stroke-width="0.21638" d="M1407.45,-77.8171C1403.27,-73.4345 1397.52,-68.3812 1391.26,-65.6985 1309.04,-30.4239 1079.08,-40.5076 990.262,-29.6985 968.065,-26.997 942.922,-23.0529 924.864,-20.064"/>
<polygon fill="green" stroke="green" stroke-width="0.21638" points="925.318,-16.5913 914.876,-18.3887 924.16,-23.4948 925.318,-16.5913"/>
</g>
<!-- &#45;24&#45;&gt;2 -->
<g id="edge89" class="edge"><title>&#45;24&#45;&gt;2</title>
<path fill="none" stroke="red" stroke-width="0.200415" d="M1407.47,-77.7707C1403.29,-73.3726 1397.54,-68.3193 1391.26,-65.6985 1179.52,22.6781 1095.69,-96.7552 876.262,-29.6985 875.204,-29.3751 874.142,-28.9981 873.086,-28.5796"/>
<polygon fill="red" stroke="red" stroke-width="0.200415" points="874.49,-25.3682 863.98,-24.0257 871.359,-31.6289 874.49,-25.3682"/>
</g>
<!-- &#45;24&#45;&gt;3 -->
<g id="edge90" class="edge"><title>&#45;24&#45;&gt;3</title>
<path fill="none" stroke="red" stroke-width="0.23168" d="M1406.99,-77.5504C1402.82,-73.3098 1397.24,-68.4804 1391.26,-65.6985 1336.94,-40.4094 1154.61,-23.3718 1087.41,-17.8191"/>
<polygon fill="red" stroke="red" stroke-width="0.23168" points="1087.55,-14.319 1077.3,-16.9991 1086.98,-21.2961 1087.55,-14.319"/>
</g>
<!-- &#45;25 -->
<g id="node25" class="node"><title>&#45;25</title>
<polygon fill="lightgray" stroke="black" points="1475.76,-95.9117 1446.76,-95.9117 1446.76,-77.9117 1475.76,-77.9117 1475.76,-95.9117"/>
<text text-anchor="middle" x="1461.26" y="-84.7117" font-family="Times New Roman,serif" font-size="9.00">&#45;25</text>
</g>
<!-- &#45;25&#45;&gt;0 -->
<g id="edge91" class="edge"><title>&#45;25&#45;&gt;0</title>
<path fill="none" stroke="green" stroke-width="0.707391" d="M1454.45,-77.8177C1450.27,-73.4352 1444.52,-68.3819 1438.26,-65.6985 1274.23,4.69443 1208.44,-83.5664 1038.26,-29.6985 1037.21,-29.3646 1036.15,-28.9789 1035.09,-28.5534"/>
<polygon fill="green" stroke="green" stroke-width="0.707391" points="1036.5,-25.3437 1026,-23.9737 1033.35,-31.5962 1036.5,-25.3437"/>
</g>
<!-- &#45;25&#45;&gt;1 -->
<g id="edge92" class="edge"><title>&#45;25&#45;&gt;1</title>
<path fill="none" stroke="green" stroke-width="0.231347" d="M1454.46,-77.7952C1450.28,-73.4053 1444.53,-68.352 1438.26,-65.6985 1346.29,-26.7504 1089.46,-41.3012 990.262,-29.6985 968.053,-27.1008 942.911,-23.1458 924.856,-20.1263"/>
<polygon fill="green" stroke="green" stroke-width="0.231347" points="925.316,-16.6544 914.871,-18.4309 924.144,-23.5556 925.316,-16.6544"/>
</g>
<!-- &#45;25&#45;&gt;2 -->
<g id="edge93" class="edge"><title>&#45;25&#45;&gt;2</title>
<path fill="none" stroke="red" stroke-width="0.124187" d="M1454.48,-77.757C1450.3,-73.3544 1444.55,-68.3011 1438.26,-65.6985 1322.63,-17.8325 996.049,-65.9241 876.262,-29.6985 875.203,-29.3782 874.141,-29.0037 873.084,-28.5873"/>
<polygon fill="red" stroke="red" stroke-width="0.124187" points="874.486,-25.3753 863.976,-24.0408 871.36,-31.6385 874.486,-25.3753"/>
</g>
<!-- &#45;25&#45;&gt;3 -->
<g id="edge94" class="edge"><title>&#45;25&#45;&gt;3</title>
<path fill="none" stroke="green" stroke-width="0.225524" d="M1454.01,-77.506C1449.85,-73.2524 1444.26,-68.4248 1438.26,-65.6985 1375.11,-37.0084 1161.24,-21.7782 1087.5,-17.2853"/>
<polygon fill="green" stroke="green" stroke-width="0.225524" points="1087.48,-13.7781 1077.29,-16.6778 1087.06,-20.7657 1087.48,-13.7781"/>
</g>
<!-- &#45;26 -->
<g id="node26" class="node"><title>&#45;26</title>
<polygon fill="lightgray" stroke="black" points="1522.76,-95.9117 1493.76,-95.9117 1493.76,-77.9117 1522.76,-77.9117 1522.76,-95.9117"/>
<text text-anchor="middle" x="1508.26" y="-84.7117" font-family="Times New Roman,serif" font-size="9.00">&#45;26</text>
</g>
<!-- &#45;26&#45;&gt;0 -->
<g id="edge95" class="edge"><title>&#45;26&#45;&gt;0</title>
<path fill="none" stroke="green" stroke-width="0.45233" d="M1501.46,-77.7956C1497.28,-73.4058 1491.53,-68.3525 1485.26,-65.6985 1301.74,12.0414 1228.56,-88.9544 1038.26,-29.6985 1037.21,-29.3695 1036.15,-28.9879 1035.09,-28.5657"/>
<polygon fill="green" stroke="green" stroke-width="0.45233" points="1036.5,-25.3552 1025.99,-23.9981 1033.36,-31.6116 1036.5,-25.3552"/>
</g>
<!-- &#45;26&#45;&gt;1 -->
<g id="edge96" class="edge"><title>&#45;26&#45;&gt;1</title>
<path fill="none" stroke="green" stroke-width="0.304359" d="M1501.47,-77.7773C1497.29,-73.3815 1491.54,-68.3282 1485.26,-65.6985 1383.54,-23.0748 1099.85,-42.0955 990.262,-29.6985 968.043,-27.185 942.902,-23.2212 924.851,-20.177"/>
<polygon fill="green" stroke="green" stroke-width="0.304359" points="925.315,-16.7056 914.867,-18.4652 924.132,-23.6049 925.315,-16.7056"/>
</g>
<!-- &#45;26&#45;&gt;2 -->
<g id="edge97" class="edge"><title>&#45;26&#45;&gt;2</title>
<path fill="none" stroke="red" stroke-width="0.436131" d="M1501.48,-77.7454C1497.31,-73.3389 1491.56,-68.2856 1485.26,-65.6985 1359.87,-14.1538 1006.12,-68.622 876.262,-29.6985 875.202,-29.3808 874.139,-29.0084 873.082,-28.5937"/>
<polygon fill="red" stroke="red" stroke-width="0.436131" points="874.483,-25.3814 863.972,-24.0537 871.361,-31.6466 874.483,-25.3814"/>
</g>
<!-- &#45;26&#45;&gt;3 -->
<g id="edge98" class="edge"><title>&#45;26&#45;&gt;3</title>
<path fill="none" stroke="green" stroke-width="0.149609" d="M1501.42,-77.8821C1497.23,-73.5211 1491.48,-68.4678 1485.26,-65.6985 1413.17,-33.5783 1167.2,-20.3649 1087.45,-16.8604"/>
<polygon fill="green" stroke="green" stroke-width="0.149609" points="1087.47,-13.3584 1077.33,-16.4294 1087.18,-20.3521 1087.47,-13.3584"/>
</g>
<!-- &#45;27 -->
<g id="node27" class="node"><title>&#45;27</title>
<polygon fill="lightgray" stroke="black" points="1569.76,-95.9117 1540.76,-95.9117 1540.76,-77.9117 1569.76,-77.9117 1569.76,-95.9117"/>
<text text-anchor="middle" x="1555.26" y="-84.7117" font-family="Times New Roman,serif" font-size="9.00">&#45;27</text>
</g>
<!-- &#45;27&#45;&gt;0 -->
<g id="edge99" class="edge"><title>&#45;27&#45;&gt;0</title>
<path fill="none" stroke="green" stroke-width="0.464382" d="M1548.47,-77.7777C1544.29,-73.3819 1538.54,-68.3286 1532.26,-65.6985 1329.23,19.3925 1248.69,-94.3456 1038.26,-29.6985 1037.2,-29.3736 1036.14,-28.9952 1035.09,-28.5757"/>
<polygon fill="green" stroke="green" stroke-width="0.464382" points="1036.49,-25.3645 1025.98,-24.018 1033.36,-31.6241 1036.49,-25.3645"/>
</g>
<!-- &#45;27&#45;&gt;1 -->
<g id="edge100" class="edge"><title>&#45;27&#45;&gt;1</title>
<path fill="none" stroke="red" stroke-width="0.458885" d="M1548.48,-77.7626C1544.3,-73.3618 1538.55,-68.3085 1532.26,-65.6985 1420.79,-19.3976 1110.25,-42.8902 990.262,-29.6985 968.035,-27.2548 942.895,-23.2836 924.846,-20.2189"/>
<polygon fill="red" stroke="red" stroke-width="0.458885" points="925.314,-16.748 914.864,-18.4936 924.122,-23.6457 925.314,-16.748"/>
</g>
<!-- &#45;27&#45;&gt;2 -->
<g id="edge101" class="edge"><title>&#45;27&#45;&gt;2</title>
<path fill="none" stroke="red" stroke-width="0.484441" d="M1548.49,-77.7354C1544.31,-73.3256 1538.56,-68.2723 1532.26,-65.6985 1397.11,-10.4743 1016.2,-71.3206 876.262,-29.6985 875.202,-29.383 874.138,-29.0125 873.08,-28.5993"/>
<polygon fill="red" stroke="red" stroke-width="0.484441" points="874.48,-25.3867 863.968,-24.0647 871.362,-31.6535 874.48,-25.3867"/>
</g>
<!-- &#45;27&#45;&gt;3 -->
<g id="edge102" class="edge"><title>&#45;27&#45;&gt;3</title>
<path fill="none" stroke="red" stroke-width="0.266353" d="M1548.44,-77.8549C1544.24,-73.4849 1538.49,-68.4316 1532.26,-65.6985 1451.09,-30.0983 1172.22,-19.0835 1087.12,-16.5118"/>
<polygon fill="red" stroke="red" stroke-width="0.266353" points="1087.18,-13.0121 1077.08,-16.221 1086.97,-20.0091 1087.18,-13.0121"/>
</g>
<!-- &#45;28 -->
<g id="node28" class="node"><title>&#45;28</title>
<polygon fill="lightgray" stroke="black" points="1616.76,-95.9117 1587.76,-95.9117 1587.76,-77.9117 1616.76,-77.9117 1616.76,-95.9117"/>
<text text-anchor="middle" x="1602.26" y="-84.7117" font-family="Times New Roman,serif" font-size="9.00">&#45;28</text>
</g>
<!-- &#45;28&#45;&gt;0 -->
<g id="edge103" class="edge"><title>&#45;28&#45;&gt;0</title>
<path fill="none" stroke="green" stroke-width="0.373771" d="M1595.48,-77.7629C1591.3,-73.3621 1585.55,-68.3088 1579.26,-65.6985 1356.72,26.7467 1268.84,-99.7392 1038.26,-29.6985 1037.2,-29.3769 1036.14,-29.0013 1035.08,-28.584"/>
<polygon fill="green" stroke="green" stroke-width="0.373771" points="1036.49,-25.3723 1025.98,-24.0344 1033.36,-31.6344 1036.49,-25.3723"/>
</g>
<!-- &#45;28&#45;&gt;1 -->
<g id="edge104" class="edge"><title>&#45;28&#45;&gt;1</title>
<path fill="none" stroke="green" stroke-width="0.268631" d="M1595.48,-77.7501C1591.3,-73.3452 1585.55,-68.2919 1579.26,-65.6985 1458.03,-15.7193 1120.65,-43.6852 990.262,-29.6985 968.029,-27.3135 942.889,-23.3361 924.842,-20.2541"/>
<polygon fill="green" stroke="green" stroke-width="0.268631" points="925.314,-16.7836 914.862,-18.5175 924.114,-23.68 925.314,-16.7836"/>
</g>
<!-- &#45;28&#45;&gt;2 -->
<g id="edge105" class="edge"><title>&#45;28&#45;&gt;2</title>
<path fill="none" stroke="red" stroke-width="0.387083" d="M1595.49,-77.7268C1591.32,-73.3141 1585.57,-68.2608 1579.26,-65.6985 1434.35,-6.79422 1026.28,-74.0197 876.262,-29.6985 875.201,-29.385 874.137,-29.016 873.079,-28.6041"/>
<polygon fill="red" stroke="red" stroke-width="0.387083" points="874.478,-25.3912 863.966,-24.0743 871.362,-31.6595 874.478,-25.3912"/>
</g>
<!-- &#45;28&#45;&gt;3 -->
<g id="edge106" class="edge"><title>&#45;28&#45;&gt;3</title>
<path fill="none" stroke="green" stroke-width="0.358598" stroke-dasharray="1,5" d="M1595.45,-77.8326C1591.26,-73.4551 1585.51,-68.4018 1579.26,-65.6985 1489.3,-26.7514 1179.2,-18.0028 1087.81,-16.2507"/>
<polygon fill="green" stroke="green" stroke-width="0.358598" points="1087.6,-12.7466 1077.54,-16.0663 1087.48,-19.7455 1087.6,-12.7466"/>
</g>
<!-- &#45;29 -->
<g id="node29" class="node"><title>&#45;29</title>
<polygon fill="lightgray" stroke="black" points="149.762,-95.9117 120.762,-95.9117 120.762,-77.9117 149.762,-77.9117 149.762,-95.9117"/>
<text text-anchor="middle" x="135.262" y="-84.7117" font-family="Times New Roman,serif" font-size="9.00">&#45;29</text>
</g>
<!-- &#45;29&#45;&gt;1 -->
<g id="edge107" class="edge"><title>&#45;29&#45;&gt;1</title>
<path fill="none" stroke="green" stroke-width="0.392963" d="M144.188,-77.7121C149.58,-73.2944 156.83,-68.2411 164.262,-65.6985 314.158,-14.4196 724.316,-74.5366 876.262,-29.6985 877.323,-29.3853 878.388,-29.0167 879.446,-28.605"/>
<polygon fill="green" stroke="green" stroke-width="0.392963" points="881.162,-31.6606 888.559,-24.0759 878.047,-25.392 881.162,-31.6606"/>
</g>
<!-- &#45;29&#45;&gt;2 -->
<g id="edge108" class="edge"><title>&#45;29&#45;&gt;2</title>
<path fill="none" stroke="green" stroke-width="0.170735" d="M144.209,-77.7727C149.608,-73.3753 156.858,-68.322 164.262,-65.6985 290.047,-21.1298 718.242,-16.3811 826.987,-15.8984"/>
<polygon fill="green" stroke="green" stroke-width="0.170735" points="827.317,-19.3974 837.304,-15.8617 827.292,-12.3974 827.317,-19.3974"/>
</g>
<!-- &#45;29&#45;&gt;3 -->
<g id="edge109" class="edge"><title>&#45;29&#45;&gt;3</title>
<path fill="none" stroke="red" stroke-width="0.265498" d="M149.997,-79.9424C162.586,-75.1456 181.3,-68.7264 198.262,-65.6985 382.193,-32.865 858.862,-81.8891 1038.26,-29.6985 1039.32,-29.3894 1040.39,-29.0241 1041.45,-28.6151"/>
<polygon fill="red" stroke="red" stroke-width="0.265498" points="1043.16,-31.6733 1050.57,-24.0961 1040.05,-25.4015 1043.16,-31.6733"/>
</g>
<!-- &#45;30 -->
<g id="node30" class="node"><title>&#45;30</title>
<polygon fill="lightgray" stroke="black" points="1663.76,-95.9117 1634.76,-95.9117 1634.76,-77.9117 1663.76,-77.9117 1663.76,-95.9117"/>
<text text-anchor="middle" x="1649.26" y="-84.7117" font-family="Times New Roman,serif" font-size="9.00">&#45;30</text>
</g>
<!-- &#45;30&#45;&gt;0 -->
<g id="edge110" class="edge"><title>&#45;30&#45;&gt;0</title>
<path fill="none" stroke="green" stroke-width="0.66796" stroke-dasharray="1,5" d="M1642.48,-77.7504C1638.3,-73.3455 1632.55,-68.2922 1626.26,-65.6985 1505.23,-15.7976 1163.62,-67.4165 1038.26,-29.6985 1037.2,-29.3797 1036.14,-29.0064 1035.08,-28.591"/>
<polygon fill="green" stroke="green" stroke-width="0.66796" points="1036.48,-25.3788 1025.97,-24.0482 1033.36,-31.6431 1036.48,-25.3788"/>
</g>
<!-- &#45;30&#45;&gt;1 -->
<g id="edge111" class="edge"><title>&#45;30&#45;&gt;1</title>
<path fill="none" stroke="green" stroke-width="0.182805" d="M1642.48,-77.7395C1638.31,-73.331 1632.56,-68.2777 1626.26,-65.6985 1495.27,-12.0402 1131.05,-44.4805 990.262,-29.6985 968.024,-27.3635 942.884,-23.3809 924.839,-20.2842"/>
<polygon fill="green" stroke="green" stroke-width="0.182805" points="925.313,-16.814 914.86,-18.5378 924.107,-23.7093 925.313,-16.814"/>
</g>
<!-- &#45;30&#45;&gt;2 -->
<g id="edge112" class="edge"><title>&#45;30&#45;&gt;2</title>
<path fill="none" stroke="green" stroke-width="0.440709" d="M1642.49,-77.7192C1638.32,-73.304 1632.57,-68.2507 1626.26,-65.6985 1471.59,-3.11357 1036.36,-76.7191 876.262,-29.6985 875.201,-29.3867 874.136,-29.0191 873.078,-28.6083"/>
<polygon fill="green" stroke="green" stroke-width="0.440709" points="874.476,-25.3952 863.963,-24.0826 871.363,-31.6648 874.476,-25.3952"/>
</g>
<!-- &#45;30&#45;&gt;3 -->
<g id="edge113" class="edge"><title>&#45;30&#45;&gt;3</title>
<path fill="none" stroke="green" stroke-width="0.331841" d="M1642.45,-77.8139C1638.27,-73.4302 1632.52,-68.3769 1626.26,-65.6985 1527.17,-23.2682 1183.92,-16.9519 1087.58,-16.0129"/>
<polygon fill="green" stroke="green" stroke-width="0.331841" points="1087.36,-12.511 1077.33,-15.9248 1087.3,-19.5107 1087.36,-12.511"/>
</g>
<!-- &#45;31 -->
<g id="node31" class="node"><title>&#45;31</title>
<polygon fill="lightgray" stroke="black" points="235.762,-95.9117 206.762,-95.9117 206.762,-77.9117 235.762,-77.9117 235.762,-95.9117"/>
<text text-anchor="middle" x="221.262" y="-84.7117" font-family="Times New Roman,serif" font-size="9.00">&#45;31</text>
</g>
<!-- &#45;31&#45;&gt;0 -->
<g id="edge114" class="edge"><title>&#45;31&#45;&gt;0</title>
<path fill="none" stroke="red" stroke-width="0.231943" d="M228.399,-77.7277C232.778,-73.3153 238.778,-68.262 245.262,-65.6985 385.782,-10.1486 773.96,-45.2082 924.262,-29.6985 946.505,-27.4032 971.644,-23.4165 989.688,-20.308"/>
<polygon fill="red" stroke="red" stroke-width="0.231943" points="990.424,-23.7325 999.667,-18.554 989.212,-16.8382 990.424,-23.7325"/>
</g>
<!-- &#45;31&#45;&gt;1 -->
<g id="edge115" class="edge"><title>&#45;31&#45;&gt;1</title>
<path fill="none" stroke="green" stroke-width="0.539291" d="M228.403,-77.7375C232.783,-73.3283 238.783,-68.275 245.262,-65.6985 375.773,-13.8017 741.684,-69.8851 876.262,-29.6985 877.322,-29.3819 878.386,-29.0104 879.443,-28.5964"/>
<polygon fill="green" stroke="green" stroke-width="0.539291" points="881.163,-31.65 888.554,-24.059 878.043,-25.384 881.163,-31.65"/>
</g>
<!-- &#45;31&#45;&gt;2 -->
<g id="edge116" class="edge"><title>&#45;31&#45;&gt;2</title>
<path fill="none" stroke="green" stroke-width="0.287703" d="M228.427,-77.7979C232.816,-73.4089 238.816,-68.3556 245.262,-65.6985 353.269,-21.1818 727.056,-16.3752 827.339,-15.8933"/>
<polygon fill="green" stroke="green" stroke-width="0.287703" points="827.448,-19.393 837.435,-15.8555 827.422,-12.3931 827.448,-19.393"/>
</g>
<!-- &#45;31&#45;&gt;3 -->
<g id="edge117" class="edge"><title>&#45;31&#45;&gt;3</title>
<path fill="none" stroke="red" stroke-width="0.236045" d="M228.392,-77.7092C232.768,-73.2906 238.768,-68.2373 245.262,-65.6985 409.558,-1.47058 868.943,-79.1891 1038.26,-29.6985 1039.32,-29.3881 1040.39,-29.0216 1041.45,-28.6118"/>
<polygon fill="red" stroke="red" stroke-width="0.236045" points="1043.16,-31.6691 1050.56,-24.0894 1040.05,-25.3984 1043.16,-31.6691"/>
</g>
<!-- &#45;32 -->
<g id="node32" class="node"><title>&#45;32</title>
<polygon fill="lightgray" stroke="black" points="282.762,-95.9117 253.762,-95.9117 253.762,-77.9117 282.762,-77.9117 282.762,-95.9117"/>
<text text-anchor="middle" x="268.262" y="-84.7117" font-family="Times New Roman,serif" font-size="9.00">&#45;32</text>
</g>
<!-- &#45;32&#45;&gt;0 -->
<g id="edge118" class="edge"><title>&#45;32&#45;&gt;0</title>
<path fill="none" stroke="red" stroke-width="0.137206" d="M275.403,-77.7372C279.783,-73.328 285.783,-68.2747 292.262,-65.6985 422.981,-13.7256 784.362,-44.4128 924.262,-29.6985 946.501,-27.3595 971.64,-23.3773 989.685,-20.2818"/>
<polygon fill="red" stroke="red" stroke-width="0.137206" points="990.417,-23.7069 999.665,-18.5362 989.211,-16.8116 990.417,-23.7069"/>
</g>
<!-- &#45;32&#45;&gt;1 -->
<g id="edge119" class="edge"><title>&#45;32&#45;&gt;1</title>
<path fill="none" stroke="red" stroke-width="0.106734" stroke-dasharray="1,5" d="M275.407,-77.7486C279.789,-73.3431 285.789,-68.2898 292.262,-65.6985 412.974,-17.3779 751.76,-67.1869 876.262,-29.6985 877.322,-29.3795 878.385,-29.006 879.442,-28.5904"/>
<polygon fill="red" stroke="red" stroke-width="0.106734" points="881.164,-31.6424 888.551,-24.0471 878.04,-25.3783 881.164,-31.6424"/>
</g>
<!-- &#45;32&#45;&gt;2 -->
<g id="edge120" class="edge"><title>&#45;32&#45;&gt;2</title>
<path fill="none" stroke="green" stroke-width="0.345739" d="M275.434,-77.8145C279.825,-73.431 285.825,-68.3776 292.262,-65.6985 391.08,-24.5733 731.591,-17.3259 827.149,-16.0933"/>
<polygon fill="green" stroke="green" stroke-width="0.345739" points="827.359,-19.5912 837.317,-15.9734 827.276,-12.5916 827.359,-19.5912"/>
</g>
<!-- &#45;32&#45;&gt;3 -->
<g id="edge121" class="edge"><title>&#45;32&#45;&gt;3</title>
<path fill="none" stroke="red" stroke-width="0.258803" d="M275.394,-77.7161C279.772,-73.2998 285.772,-68.2465 292.262,-65.6985 446.755,-5.04869 879.024,-76.4894 1038.26,-29.6985 1039.32,-29.3866 1040.39,-29.0189 1041.45,-28.608"/>
<polygon fill="red" stroke="red" stroke-width="0.258803" points="1043.16,-31.6644 1050.56,-24.082 1040.05,-25.3948 1043.16,-31.6644"/>
</g>
<!-- &#45;33 -->
<g id="node33" class="node"><title>&#45;33</title>
<polygon fill="lightgray" stroke="black" points="329.762,-95.9117 300.762,-95.9117 300.762,-77.9117 329.762,-77.9117 329.762,-95.9117"/>
<text text-anchor="middle" x="315.262" y="-84.7117" font-family="Times New Roman,serif" font-size="9.00">&#45;33</text>
</g>
<!-- &#45;33&#45;&gt;0 -->
<g id="edge122" class="edge"><title>&#45;33&#45;&gt;0</title>
<path fill="none" stroke="red" stroke-width="0.467928" d="M322.407,-77.7483C326.789,-73.3428 332.789,-68.2895 339.262,-65.6985 460.183,-17.3018 794.762,-43.6175 924.262,-29.6985 946.495,-27.3088 971.635,-23.332 989.682,-20.2513"/>
<polygon fill="red" stroke="red" stroke-width="0.467928" points="990.41,-23.6773 999.663,-18.5156 989.211,-16.7808 990.41,-23.6773"/>
</g>
<!-- &#45;33&#45;&gt;1 -->
<g id="edge123" class="edge"><title>&#45;33&#45;&gt;1</title>
<path fill="none" stroke="red" stroke-width="0.694776" d="M322.412,-77.7616C326.796,-73.3605 332.796,-68.3072 339.262,-65.6985 561.094,23.7921 647.404,-99.2801 876.262,-29.6985 877.321,-29.3766 878.383,-29.0008 879.439,-28.5833"/>
<polygon fill="red" stroke="red" stroke-width="0.694776" points="881.165,-31.6336 888.547,-24.0331 878.037,-25.3717 881.165,-31.6336"/>
</g>
<!-- &#45;33&#45;&gt;2 -->
<g id="edge124" class="edge"><title>&#45;33&#45;&gt;2</title>
<path fill="none" stroke="red" stroke-width="0.12135" d="M322.442,-77.834C326.836,-73.457 332.836,-68.4037 339.262,-65.6985 428.924,-27.9578 736.347,-18.3663 826.944,-16.3328"/>
<polygon fill="red" stroke="red" stroke-width="0.12135" points="827.194,-19.8284 837.117,-16.1163 827.045,-12.83 827.194,-19.8284"/>
</g>
<!-- &#45;33&#45;&gt;3 -->
<g id="edge125" class="edge"><title>&#45;33&#45;&gt;3</title>
<path fill="none" stroke="red" stroke-width="0.228749" d="M322.397,-77.724C326.776,-73.3103 332.776,-68.257 339.262,-65.6985 483.952,-8.62638 889.103,-73.79 1038.26,-29.6985 1039.32,-29.3848 1040.39,-29.0158 1041.45,-28.6037"/>
<polygon fill="red" stroke="red" stroke-width="0.228749" points="1043.16,-31.6591 1050.56,-24.0735 1040.05,-25.3908 1043.16,-31.6591"/>
</g>
<!-- &#45;34 -->
<g id="node34" class="node"><title>&#45;34</title>
<polygon fill="lightgray" stroke="black" points="376.762,-95.9117 347.762,-95.9117 347.762,-77.9117 376.762,-77.9117 376.762,-95.9117"/>
<text text-anchor="middle" x="362.262" y="-84.7117" font-family="Times New Roman,serif" font-size="9.00">&#45;34</text>
</g>
<!-- &#45;34&#45;&gt;0 -->
<g id="edge126" class="edge"><title>&#45;34&#45;&gt;0</title>
<path fill="none" stroke="red" stroke-width="0.281024" d="M369.412,-77.7613C373.796,-73.3601 379.796,-68.3068 386.262,-65.6985 497.386,-20.8771 805.16,-42.8225 924.262,-29.6985 946.489,-27.2493 971.629,-23.2787 989.678,-20.2156"/>
<polygon fill="red" stroke="red" stroke-width="0.281024" points="990.402,-23.6425 999.66,-18.4914 989.21,-16.7447 990.402,-23.6425"/>
</g>
<!-- &#45;34&#45;&gt;1 -->
<g id="edge127" class="edge"><title>&#45;34&#45;&gt;1</title>
<path fill="none" stroke="green" stroke-width="0.290907" d="M369.419,-77.7771C373.804,-73.3812 379.804,-68.3279 386.262,-65.6985 588.507,16.6438 667.545,-93.8867 876.262,-29.6985 877.32,-29.3732 878.381,-28.9947 879.437,-28.5749"/>
<polygon fill="green" stroke="green" stroke-width="0.290907" points="881.167,-31.6231 888.542,-24.0164 878.033,-25.3638 881.167,-31.6231"/>
</g>
<!-- &#45;34&#45;&gt;2 -->
<g id="edge128" class="edge"><title>&#45;34&#45;&gt;2</title>
<path fill="none" stroke="red" stroke-width="0.301059" d="M369.452,-77.8573C373.849,-73.4881 379.849,-68.4348 386.262,-65.6985 466.919,-31.2866 742.127,-19.483 827.079,-16.6121"/>
<polygon fill="red" stroke="red" stroke-width="0.301059" points="827.24,-20.1088 837.121,-16.285 827.012,-13.1125 827.24,-20.1088"/>
</g>
<!-- &#45;34&#45;&gt;3 -->
<g id="edge129" class="edge"><title>&#45;34&#45;&gt;3</title>
<path fill="none" stroke="red" stroke-width="0.267424" d="M369.401,-77.733C373.781,-73.3223 379.781,-68.269 386.262,-65.6985 521.151,-12.2036 899.182,-71.0909 1038.26,-29.6985 1039.32,-29.3829 1040.39,-29.0122 1041.44,-28.5989"/>
<polygon fill="red" stroke="red" stroke-width="0.267424" points="1043.16,-31.653 1050.56,-24.0638 1040.04,-25.3862 1043.16,-31.653"/>
</g>
<!-- &#45;35 -->
<g id="node35" class="node"><title>&#45;35</title>
<polygon fill="lightgray" stroke="black" points="1843.76,-95.9117 1814.76,-95.9117 1814.76,-77.9117 1843.76,-77.9117 1843.76,-95.9117"/>
<text text-anchor="middle" x="1829.26" y="-84.7117" font-family="Times New Roman,serif" font-size="9.00">&#45;35</text>
</g>
<!-- &#45;35&#45;&gt;0 -->
<g id="edge130" class="edge"><title>&#45;35&#45;&gt;0</title>
<path fill="none" stroke="green" stroke-width="0.134856" d="M1822.49,-77.7166C1818.32,-73.3004 1812.57,-68.2471 1806.26,-65.6985 1647.85,-1.70384 1202.22,-77.7531 1038.26,-29.6985 1037.2,-29.3873 1036.14,-29.0202 1035.08,-28.6098"/>
<polygon fill="green" stroke="green" stroke-width="0.134856" points="1036.48,-25.3966 1025.96,-24.0856 1033.36,-31.6667 1036.48,-25.3966"/>
</g>
<!-- &#45;35&#45;&gt;1 -->
<g id="edge131" class="edge"><title>&#45;35&#45;&gt;1</title>
<path fill="none" stroke="red" stroke-width="0.428153" d="M1822.5,-77.7101C1818.32,-73.2917 1812.57,-68.2384 1806.26,-65.6985 1722.07,-31.8214 1080.58,-38.6131 990.262,-29.6985 968.009,-27.502 942.872,-23.5049 924.83,-20.3674"/>
<polygon fill="red" stroke="red" stroke-width="0.428153" points="925.312,-16.8982 914.854,-18.5942 924.087,-23.7902 925.312,-16.8982"/>
</g>
<!-- &#45;35&#45;&gt;3 -->
<g id="edge132" class="edge"><title>&#45;35&#45;&gt;3</title>
<path fill="none" stroke="green" stroke-width="0.280551" stroke-dasharray="1,5" d="M1822.47,-77.7639C1818.3,-73.3636 1812.55,-68.3103 1806.26,-65.6985 1738.67,-37.6 1209.71,-20.239 1087.43,-16.5767"/>
<polygon fill="green" stroke="green" stroke-width="0.280551" points="1087.29,-13.0712 1077.19,-16.2738 1087.09,-20.0681 1087.29,-13.0712"/>
</g>
<!-- &#45;36 -->
<g id="node36" class="node"><title>&#45;36</title>
<polygon fill="lightgray" stroke="black" points="423.762,-95.9117 394.762,-95.9117 394.762,-77.9117 423.762,-77.9117 423.762,-95.9117"/>
<text text-anchor="middle" x="409.262" y="-84.7117" font-family="Times New Roman,serif" font-size="9.00">&#45;36</text>
</g>
<!-- &#45;36&#45;&gt;0 -->
<g id="edge133" class="edge"><title>&#45;36&#45;&gt;0</title>
<path fill="none" stroke="green" stroke-width="0.333879" d="M416.419,-77.7768C420.804,-73.3807 426.804,-68.3274 433.262,-65.6985 534.593,-24.4513 815.555,-42.0279 924.262,-29.6985 946.481,-27.1785 971.622,-23.2153 989.673,-20.173"/>
<polygon fill="green" stroke="green" stroke-width="0.333879" points="990.391,-23.6011 999.657,-18.4626 989.209,-16.7016 990.391,-23.6011"/>
</g>
<!-- &#45;36&#45;&gt;1 -->
<g id="edge134" class="edge"><title>&#45;36&#45;&gt;1</title>
<path fill="none" stroke="red" stroke-width="0.796609" d="M416.426,-77.7959C420.814,-73.4062 426.814,-68.3529 433.262,-65.6985 615.928,9.49852 687.678,-88.4957 876.262,-29.6985 877.319,-29.3692 878.379,-28.9872 879.434,-28.5648"/>
<polygon fill="red" stroke="red" stroke-width="0.796609" points="881.168,-31.6104 888.535,-23.9963 878.028,-25.3543 881.168,-31.6104"/>
</g>
<!-- &#45;36&#45;&gt;2 -->
<g id="edge135" class="edge"><title>&#45;36&#45;&gt;2</title>
<path fill="none" stroke="green" stroke-width="0.573961" d="M416.464,-77.8858C420.865,-73.526 426.865,-68.4727 433.262,-65.6985 504.994,-34.5911 748.42,-20.7015 827.34,-16.9443"/>
<polygon fill="green" stroke="green" stroke-width="0.573961" points="827.522,-20.4398 837.349,-16.4807 827.198,-13.4473 827.522,-20.4398"/>
</g>
<!-- &#45;36&#45;&gt;3 -->
<g id="edge136" class="edge"><title>&#45;36&#45;&gt;3</title>
<path fill="none" stroke="red" stroke-width="0.232538" d="M416.405,-77.7434C420.786,-73.3362 426.786,-68.2829 433.262,-65.6985 558.352,-15.7801 909.258,-68.3924 1038.26,-29.6985 1039.32,-29.3806 1040.39,-29.0081 1041.44,-28.5932"/>
<polygon fill="red" stroke="red" stroke-width="0.232538" points="1043.16,-31.6459 1050.55,-24.0527 1040.04,-25.3809 1043.16,-31.6459"/>
</g>
<!-- &#45;37 -->
<g id="node37" class="node"><title>&#45;37</title>
<polygon fill="lightgray" stroke="black" points="470.762,-95.9117 441.762,-95.9117 441.762,-77.9117 470.762,-77.9117 470.762,-95.9117"/>
<text text-anchor="middle" x="456.262" y="-84.7117" font-family="Times New Roman,serif" font-size="9.00">&#45;37</text>
</g>
<!-- &#45;37&#45;&gt;0 -->
<g id="edge137" class="edge"><title>&#45;37&#45;&gt;0</title>
<path fill="none" stroke="green" stroke-width="0.182126" d="M463.426,-77.7954C467.814,-73.4056 473.814,-68.3523 480.262,-65.6985 571.803,-28.024 825.946,-41.2337 924.262,-29.6985 946.471,-27.0928 971.613,-23.1386 989.668,-20.1216"/>
<polygon fill="green" stroke="green" stroke-width="0.182126" points="990.379,-23.5509 999.653,-18.4277 989.208,-16.6495 990.379,-23.5509"/>
</g>
<!-- &#45;37&#45;&gt;1 -->
<g id="edge138" class="edge"><title>&#45;37&#45;&gt;1</title>
<path fill="none" stroke="red" stroke-width="0.109247" d="M463.436,-77.819C467.827,-73.437 473.827,-68.3837 480.262,-65.6985 643.359,2.35744 707.8,-83.108 876.262,-29.6985 877.317,-29.3641 878.376,-28.978 879.43,-28.5522"/>
<polygon fill="red" stroke="red" stroke-width="0.109247" points="881.17,-31.5947 888.527,-23.9714 878.022,-25.3426 881.17,-31.5947"/>
</g>
<!-- &#45;37&#45;&gt;2 -->
<g id="edge139" class="edge"><title>&#45;37&#45;&gt;2</title>
<path fill="none" stroke="green" stroke-width="0.216289" d="M463.898,-77.5116C468.261,-73.2596 474.085,-68.4318 480.262,-65.6985 543.033,-37.9234 754.443,-22.1021 827.321,-17.3713"/>
<polygon fill="green" stroke="green" stroke-width="0.216289" points="827.652,-20.8574 837.41,-16.7303 827.209,-13.8714 827.652,-20.8574"/>
</g>
<!-- &#45;37&#45;&gt;3 -->
<g id="edge140" class="edge"><title>&#45;37&#45;&gt;3</title>
<path fill="none" stroke="red" stroke-width="0.641335" d="M463.41,-77.7555C467.793,-73.3524 473.793,-68.2991 480.262,-65.6985 710.847,26.9868 800.403,-101.69 1038.26,-29.6985 1039.32,-29.378 1040.38,-29.0032 1041.44,-28.5867"/>
<polygon fill="red" stroke="red" stroke-width="0.641335" points="1043.16,-31.6377 1050.55,-24.0396 1040.04,-25.3748 1043.16,-31.6377"/>
</g>
<!-- &#45;38 -->
<g id="node38" class="node"><title>&#45;38</title>
<polygon fill="lightgray" stroke="black" points="517.762,-95.9117 488.762,-95.9117 488.762,-77.9117 517.762,-77.9117 517.762,-95.9117"/>
<text text-anchor="middle" x="503.262" y="-84.7117" font-family="Times New Roman,serif" font-size="9.00">&#45;38</text>
</g>
<!-- &#45;38&#45;&gt;0 -->
<g id="edge141" class="edge"><title>&#45;38&#45;&gt;0</title>
<path fill="none" stroke="red" stroke-width="0.193271" d="M510.436,-77.8184C514.827,-73.4363 520.827,-68.383 527.262,-65.6985 609.019,-31.5946 836.332,-40.4401 924.262,-29.6985 946.458,-26.987 971.602,-23.044 989.66,-20.058"/>
<polygon fill="red" stroke="red" stroke-width="0.193271" points="990.363,-23.489 999.648,-18.3846 989.207,-16.5852 990.363,-23.489"/>
</g>
<!-- &#45;38&#45;&gt;1 -->
<g id="edge142" class="edge"><title>&#45;38&#45;&gt;1</title>
<path fill="none" stroke="green" stroke-width="0.306847" d="M510.448,-77.8482C514.844,-73.476 520.844,-68.4227 527.262,-65.6985 670.804,-4.7777 727.908,-77.7249 876.262,-29.6985 877.315,-29.3577 878.372,-28.9664 879.425,-28.5363"/>
<polygon fill="green" stroke="green" stroke-width="0.306847" points="881.172,-31.5749 888.517,-23.9399 878.014,-25.3278 881.172,-31.5749"/>
</g>
<!-- &#45;38&#45;&gt;2 -->
<g id="edge143" class="edge"><title>&#45;38&#45;&gt;2</title>
<path fill="none" stroke="green" stroke-width="0.348372" d="M510.918,-77.5583C515.288,-73.32 521.111,-68.4903 527.262,-65.6985 631.06,-18.5868 770.672,-14.6415 827.071,-15.1855"/>
<polygon fill="green" stroke="green" stroke-width="0.348372" points="827.153,-18.6871 837.206,-15.3426 827.261,-11.6879 827.153,-18.6871"/>
</g>
<!-- &#45;38&#45;&gt;3 -->
<g id="edge144" class="edge"><title>&#45;38&#45;&gt;3</title>
<path fill="none" stroke="green" stroke-width="0.176424" stroke-dasharray="1,5" d="M510.416,-77.7698C514.8,-73.3715 520.8,-68.3182 527.262,-65.6985 738.258,19.8374 820.546,-96.2962 1038.26,-29.6985 1039.32,-29.3748 1040.38,-28.9976 1041.44,-28.5789"/>
<polygon fill="green" stroke="green" stroke-width="0.176424" points="1043.17,-31.628 1050.54,-24.0242 1040.03,-25.3675 1043.17,-31.628"/>
</g>
<!-- &#45;39 -->
<g id="node39" class="node"><title>&#45;39</title>
<polygon fill="lightgray" stroke="black" points="564.762,-95.9117 535.762,-95.9117 535.762,-77.9117 564.762,-77.9117 564.762,-95.9117"/>
<text text-anchor="middle" x="550.262" y="-84.7117" font-family="Times New Roman,serif" font-size="9.00">&#45;39</text>
</g>
<!-- &#45;39&#45;&gt;0 -->
<g id="edge145" class="edge"><title>&#45;39&#45;&gt;0</title>
<path fill="none" stroke="green" stroke-width="0.549956" d="M557.448,-77.8475C561.843,-73.475 567.843,-68.4217 574.262,-65.6985 718.219,-4.62596 769.157,-49.5964 924.262,-29.6985 946.441,-26.8532 971.587,-22.9242 989.65,-19.9776"/>
<polygon fill="green" stroke="green" stroke-width="0.549956" points="990.343,-23.4106 999.641,-18.3302 989.205,-16.5038 990.343,-23.4106"/>
</g>
<!-- &#45;39&#45;&gt;1 -->
<g id="edge146" class="edge"><title>&#45;39&#45;&gt;1</title>
<path fill="none" stroke="green" stroke-width="0.510002" d="M557.465,-77.8863C561.865,-73.5268 567.865,-68.4735 574.262,-65.6985 698.269,-11.904 747.995,-72.3488 876.262,-29.6985 877.141,-29.4063 878.023,-29.0797 878.904,-28.7256"/>
<polygon fill="green" stroke="green" stroke-width="0.510002" points="880.621,-31.7806 888.01,-24.1884 877.499,-25.5152 880.621,-31.7806"/>
</g>
<!-- &#45;39&#45;&gt;2 -->
<g id="edge147" class="edge"><title>&#45;39&#45;&gt;2</title>
<path fill="none" stroke="red" stroke-width="0.438137" d="M557.947,-77.62C562.325,-73.3998 568.147,-68.5677 574.262,-65.6985 660.722,-25.1331 776.54,-17.4385 826.997,-16.0784"/>
<polygon fill="red" stroke="red" stroke-width="0.438137" points="827.357,-19.5718 837.283,-15.867 827.213,-12.5733 827.357,-19.5718"/>
</g>
<!-- &#45;39&#45;&gt;3 -->
<g id="edge148" class="edge"><title>&#45;39&#45;&gt;3</title>
<path fill="none" stroke="green" stroke-width="0.617362" d="M557.423,-77.787C561.81,-73.3944 567.81,-68.3411 574.262,-65.6985 765.675,12.6906 840.683,-90.9041 1038.26,-29.6985 1039.32,-29.3711 1040.38,-28.9907 1041.44,-28.5696"/>
<polygon fill="green" stroke="green" stroke-width="0.617362" points="1043.17,-31.6164 1050.54,-24.0058 1040.03,-25.3588 1043.17,-31.6164"/>
</g>
<!-- &#45;40 -->
<g id="node40" class="node"><title>&#45;40</title>
<polygon fill="lightgray" stroke="black" points="611.762,-95.9117 582.762,-95.9117 582.762,-77.9117 611.762,-77.9117 611.762,-95.9117"/>
<text text-anchor="middle" x="597.262" y="-84.7117" font-family="Times New Roman,serif" font-size="9.00">&#45;40</text>
</g>
<!-- &#45;40&#45;&gt;0 -->
<g id="edge149" class="edge"><title>&#45;40&#45;&gt;0</title>
<path fill="none" stroke="red" stroke-width="0.245114" d="M604.464,-77.8854C608.865,-73.5255 614.865,-68.4722 621.262,-65.6985 745.685,-11.7525 789.891,-48.014 924.262,-29.6985 946.418,-26.6785 971.566,-22.7678 989.636,-19.8727"/>
<polygon fill="red" stroke="red" stroke-width="0.245114" points="990.317,-23.3081 999.631,-18.2591 989.201,-16.3976 990.317,-23.3081"/>
</g>
<!-- &#45;40&#45;&gt;1 -->
<g id="edge150" class="edge"><title>&#45;40&#45;&gt;1</title>
<path fill="none" stroke="red" stroke-width="0.527265" d="M604.905,-77.5289C609.271,-73.282 615.095,-68.4535 621.262,-65.6985 725.767,-19.0165 768.048,-66.9837 876.262,-29.6985 877.138,-29.3968 878.017,-29.0622 878.895,-28.7013"/>
<polygon fill="red" stroke="red" stroke-width="0.527265" points="880.626,-31.7486 887.992,-24.1324 877.484,-25.4934 880.626,-31.7486"/>
</g>
<!-- &#45;40&#45;&gt;2 -->
<g id="edge151" class="edge"><title>&#45;40&#45;&gt;2</title>
<path fill="none" stroke="green" stroke-width="0.307791" d="M604.988,-77.7053C609.378,-73.51 615.198,-68.6746 621.262,-65.6985 690.867,-31.5377 783.592,-20.647 827.37,-17.286"/>
<polygon fill="green" stroke="green" stroke-width="0.307791" points="827.67,-20.7737 837.401,-16.5842 827.181,-13.7908 827.67,-20.7737"/>
</g>
<!-- &#45;40&#45;&gt;3 -->
<g id="edge152" class="edge"><title>&#45;40&#45;&gt;3</title>
<path fill="none" stroke="red" stroke-width="0.244759" d="M604.431,-77.808C608.821,-73.4224 614.821,-68.3691 621.262,-65.6985 793.101,5.54752 860.811,-85.5148 1038.26,-29.6985 1039.32,-29.3665 1040.38,-28.9824 1041.43,-28.5582"/>
<polygon fill="red" stroke="red" stroke-width="0.244759" points="1043.17,-31.6022 1050.53,-23.9832 1040.02,-25.3481 1043.17,-31.6022"/>
</g>
<!-- 587&#45;&gt;2 -->
<g id="edge154" class="edge"><title>587&#45;&gt;2</title>
<path fill="none" stroke="red" stroke-width="0.101533" d="M55.2439,-72.8924C59.5575,-70.0292 64.3874,-67.3587 69.2623,-65.6985 214.315,-16.2989 709.208,-15.2268 826.967,-15.6919"/>
<polygon fill="red" stroke="red" stroke-width="0.101533" points="827.145,-19.1927 837.161,-15.7401 827.178,-12.1927 827.145,-19.1927"/>
</g>
</g>
</svg>
