<?xml version="1.0" encoding="UTF-8" standalone="no"?>
<!DOCTYPE svg PUBLIC "-//W3C//DTD SVG 1.1//EN"
 "http://www.w3.org/Graphics/SVG/1.1/DTD/svg11.dtd">
<!-- Generated by graphviz version 2.38.0 (20140413.2041)
 -->
<!-- Title: %3 Pages: 1 -->
<svg width="1826pt" height="92pt"
 viewBox="0.00 0.00 1826.00 91.70" xmlns="http://www.w3.org/2000/svg" xmlns:xlink="http://www.w3.org/1999/xlink">
<g id="graph0" class="graph" transform="scale(1 1) rotate(0) translate(4 87.6985)">
<title>%3</title>
<polygon fill="white" stroke="none" points="-4,4 -4,-87.6985 1822,-87.6985 1822,4 -4,4"/>
<!-- &#45;1 -->
<g id="node1" class="node"><title>&#45;1</title>
<polygon fill="lightgray" stroke="black" points="729.5,-83.6985 705.5,-83.6985 705.5,-65.6985 729.5,-65.6985 729.5,-83.6985"/>
<text text-anchor="middle" x="717.5" y="-72.4985" font-family="Times New Roman,serif" font-size="9.00">&#45;1</text>
</g>
<!-- 0 -->
<g id="node41" class="node"><title>0</title>
<ellipse fill="lightblue" stroke="black" cx="861.5" cy="-14.8492" rx="14.7" ry="14.7"/>
<text text-anchor="middle" x="861.5" y="-12.6492" font-family="Times New Roman,serif" font-size="9.00">0</text>
</g>
<!-- &#45;1&#45;&gt;0 -->
<g id="edge1" class="edge"><title>&#45;1&#45;&gt;0</title>
<path fill="none" stroke="red" stroke-width="0.20318" d="M729.925,-68.9293C732.742,-67.8583 735.721,-66.7329 738.5,-65.6985 782.377,-49.3644 795.063,-49.474 837.5,-29.6985 838.339,-29.3073 839.188,-28.8967 840.04,-28.4717"/>
<polygon fill="red" stroke="red" stroke-width="0.20318" points="841.894,-31.4481 849.016,-23.6039 838.557,-25.2948 841.894,-31.4481"/>
</g>
<!-- 1 -->
<g id="node42" class="node"><title>1</title>
<ellipse fill="lightblue" stroke="black" cx="957.5" cy="-14.8492" rx="14.7" ry="14.7"/>
<text text-anchor="middle" x="957.5" y="-12.6492" font-family="Times New Roman,serif" font-size="9.00">1</text>
</g>
<!-- &#45;1&#45;&gt;1 -->
<g id="edge2" class="edge"><title>&#45;1&#45;&gt;1</title>
<path fill="none" stroke="red" stroke-width="0.350855" stroke-dasharray="1,5" d="M729.812,-68.5819C732.634,-67.5289 735.645,-66.4987 738.5,-65.6985 823.361,-41.9135 850.802,-60.164 933.5,-29.6985 934.369,-29.3784 935.243,-29.0281 936.116,-28.654"/>
<polygon fill="red" stroke="red" stroke-width="0.350855" points="937.874,-31.6864 945.19,-24.0234 934.692,-25.4513 937.874,-31.6864"/>
</g>
<!-- 2 -->
<g id="node43" class="node"><title>2</title>
<ellipse fill="lightblue" stroke="black" cx="909.5" cy="-14.8492" rx="14.7" ry="14.7"/>
<text text-anchor="middle" x="909.5" y="-12.6492" font-family="Times New Roman,serif" font-size="9.00">2</text>
</g>
<!-- &#45;1&#45;&gt;2 -->
<g id="edge3" class="edge"><title>&#45;1&#45;&gt;2</title>
<path fill="none" stroke="red" stroke-width="0.207924" d="M729.848,-68.7034C732.668,-67.644 735.669,-66.5806 738.5,-65.6985 802.718,-45.6873 823.079,-54.7588 885.5,-29.6985 886.359,-29.3535 887.225,-28.982 888.092,-28.5901"/>
<polygon fill="red" stroke="red" stroke-width="0.207924" points="889.884,-31.6027 897.134,-23.8764 886.648,-25.3955 889.884,-31.6027"/>
</g>
<!-- 3 -->
<g id="node44" class="node"><title>3</title>
<ellipse fill="lightblue" stroke="black" cx="813.5" cy="-14.8492" rx="14.7" ry="14.7"/>
<text text-anchor="middle" x="813.5" y="-12.6492" font-family="Times New Roman,serif" font-size="9.00">3</text>
</g>
<!-- &#45;1&#45;&gt;3 -->
<g id="edge4" class="edge"><title>&#45;1&#45;&gt;3</title>
<path fill="none" stroke="red" stroke-width="0.120924" d="M729.658,-66.3718C745.441,-56.8613 773.234,-40.1132 792.471,-28.5212"/>
<polygon fill="red" stroke="red" stroke-width="0.120924" points="794.378,-31.4583 801.137,-23.2991 790.765,-25.4627 794.378,-31.4583"/>
</g>
<!-- &#45;2 -->
<g id="node2" class="node"><title>&#45;2</title>
<polygon fill="lightgray" stroke="black" points="771.5,-83.6985 747.5,-83.6985 747.5,-65.6985 771.5,-65.6985 771.5,-83.6985"/>
<text text-anchor="middle" x="759.5" y="-72.4985" font-family="Times New Roman,serif" font-size="9.00">&#45;2</text>
</g>
<!-- &#45;2&#45;&gt;0 -->
<g id="edge5" class="edge"><title>&#45;2&#45;&gt;0</title>
<path fill="none" stroke="red" stroke-width="0.265896" d="M771.68,-66.876C787.047,-58.2577 814.273,-42.951 837.5,-29.6985 838.304,-29.2396 839.123,-28.7714 839.95,-28.2978"/>
<polygon fill="red" stroke="red" stroke-width="0.265896" points="841.885,-31.223 848.809,-23.2036 838.395,-25.1548 841.885,-31.223"/>
</g>
<!-- &#45;2&#45;&gt;1 -->
<g id="edge6" class="edge"><title>&#45;2&#45;&gt;1</title>
<path fill="none" stroke="green" stroke-width="0.147376" d="M771.842,-68.6843C774.663,-67.626 777.665,-66.5677 780.5,-65.6985 847.288,-45.2189 868.555,-55.4303 933.5,-29.6985 934.361,-29.3574 935.228,-28.9893 936.096,-28.6001"/>
<polygon fill="green" stroke="green" stroke-width="0.147376" points="937.883,-31.6158 945.143,-23.8994 934.656,-25.4042 937.883,-31.6158"/>
</g>
<!-- &#45;2&#45;&gt;2 -->
<g id="edge7" class="edge"><title>&#45;2&#45;&gt;2</title>
<path fill="none" stroke="green" stroke-width="0.212769" d="M771.911,-68.8912C774.728,-67.8221 777.712,-66.7072 780.5,-65.6985 826.891,-48.9149 840.593,-50.1221 885.5,-29.6985 886.343,-29.3151 887.195,-28.9111 888.05,-28.4917"/>
<polygon fill="green" stroke="green" stroke-width="0.212769" points="889.893,-31.4741 897.037,-23.6498 886.573,-25.3115 889.893,-31.4741"/>
</g>
<!-- &#45;2&#45;&gt;3 -->
<g id="edge8" class="edge"><title>&#45;2&#45;&gt;3</title>
<path fill="none" stroke="red" stroke-width="0.433397" stroke-dasharray="1,5" d="M767.008,-65.6548C774.675,-57.4413 786.832,-44.4177 796.792,-33.7481"/>
<polygon fill="red" stroke="red" stroke-width="0.433397" points="799.604,-35.8649 803.869,-26.1665 794.487,-31.0883 799.604,-35.8649"/>
</g>
<!-- &#45;3 -->
<g id="node3" class="node"><title>&#45;3</title>
<polygon fill="lightgray" stroke="black" points="813.5,-83.6985 789.5,-83.6985 789.5,-65.6985 813.5,-65.6985 813.5,-83.6985"/>
<text text-anchor="middle" x="801.5" y="-72.4985" font-family="Times New Roman,serif" font-size="9.00">&#45;3</text>
</g>
<!-- &#45;3&#45;&gt;0 -->
<g id="edge9" class="edge"><title>&#45;3&#45;&gt;0</title>
<path fill="none" stroke="green" stroke-width="0.224615" d="M809.843,-65.6548C818.633,-57.1793 832.736,-43.5822 843.987,-32.7347"/>
<polygon fill="green" stroke="green" stroke-width="0.224615" points="846.45,-35.2215 851.22,-25.761 841.591,-30.1823 846.45,-35.2215"/>
</g>
<!-- &#45;3&#45;&gt;1 -->
<g id="edge10" class="edge"><title>&#45;3&#45;&gt;1</title>
<path fill="none" stroke="green" stroke-width="0.323927" d="M813.899,-68.8567C816.717,-67.7894 819.703,-66.6839 822.5,-65.6985 871.415,-48.4615 886.113,-50.775 933.5,-29.6985 934.346,-29.3222 935.201,-28.9241 936.058,-28.5097"/>
<polygon fill="green" stroke="green" stroke-width="0.323927" points="937.892,-31.4976 945.056,-23.6914 934.588,-25.3267 937.892,-31.4976"/>
</g>
<!-- &#45;3&#45;&gt;2 -->
<g id="edge11" class="edge"><title>&#45;3&#45;&gt;2</title>
<path fill="none" stroke="green" stroke-width="0.319254" d="M813.545,-67.585C829.93,-59.2241 860.113,-43.6645 885.5,-29.6985 886.311,-29.2521 887.136,-28.7946 887.969,-28.3301"/>
<polygon fill="green" stroke="green" stroke-width="0.319254" points="889.889,-31.2645 896.85,-23.2778 886.428,-25.18 889.889,-31.2645"/>
</g>
<!-- &#45;3&#45;&gt;3 -->
<g id="edge12" class="edge"><title>&#45;3&#45;&gt;3</title>
<path fill="none" stroke="red" stroke-width="0.288261" stroke-dasharray="1,5" d="M803.169,-65.6548C804.572,-58.8878 806.653,-48.8559 808.58,-39.5653"/>
<polygon fill="red" stroke="red" stroke-width="0.288261" points="812.043,-40.107 810.647,-29.6046 805.188,-38.6852 812.043,-40.107"/>
</g>
<!-- &#45;4 -->
<g id="node4" class="node"><title>&#45;4</title>
<polygon fill="lightgray" stroke="black" points="855.5,-83.6985 831.5,-83.6985 831.5,-65.6985 855.5,-65.6985 855.5,-83.6985"/>
<text text-anchor="middle" x="843.5" y="-72.4985" font-family="Times New Roman,serif" font-size="9.00">&#45;4</text>
</g>
<!-- &#45;4&#45;&gt;0 -->
<g id="edge13" class="edge"><title>&#45;4&#45;&gt;0</title>
<path fill="none" stroke="green" stroke-width="0.156532" stroke-dasharray="1,5" d="M846.003,-65.6548C848.159,-58.7238 851.382,-48.3678 854.33,-38.8914"/>
<polygon fill="green" stroke="green" stroke-width="0.156532" points="857.73,-39.7457 857.359,-29.1573 851.046,-37.6659 857.73,-39.7457"/>
</g>
<!-- &#45;4&#45;&gt;1 -->
<g id="edge14" class="edge"><title>&#45;4&#45;&gt;1</title>
<path fill="none" stroke="red" stroke-width="0.103877" d="M855.57,-68.1206C872.966,-60.0085 906.017,-44.324 933.5,-29.6985 934.317,-29.2634 935.148,-28.8155 935.984,-28.3591"/>
<polygon fill="red" stroke="red" stroke-width="0.103877" points="937.891,-31.302 944.886,-23.3446 934.456,-25.203 937.891,-31.302"/>
</g>
<!-- &#45;4&#45;&gt;2 -->
<g id="edge15" class="edge"><title>&#45;4&#45;&gt;2</title>
<path fill="none" stroke="green" stroke-width="0.256845" d="M852.677,-65.6548C862.556,-56.996 878.534,-42.9914 891.034,-32.0346"/>
<polygon fill="green" stroke="green" stroke-width="0.256845" points="893.434,-34.5849 898.648,-25.3614 888.82,-29.3208 893.434,-34.5849"/>
</g>
<!-- &#45;4&#45;&gt;3 -->
<g id="edge16" class="edge"><title>&#45;4&#45;&gt;3</title>
<path fill="none" stroke="green" stroke-width="0.569723" d="M839.329,-65.6548C835.522,-58.3144 829.723,-47.1324 824.584,-37.2221"/>
<polygon fill="green" stroke="green" stroke-width="0.569723" points="827.656,-35.5431 819.945,-28.2771 821.442,-38.7657 827.656,-35.5431"/>
</g>
<!-- &#45;5 -->
<g id="node5" class="node"><title>&#45;5</title>
<polygon fill="lightgray" stroke="black" points="897.5,-83.6985 873.5,-83.6985 873.5,-65.6985 897.5,-65.6985 897.5,-83.6985"/>
<text text-anchor="middle" x="885.5" y="-72.4985" font-family="Times New Roman,serif" font-size="9.00">&#45;5</text>
</g>
<!-- &#45;5&#45;&gt;0 -->
<g id="edge17" class="edge"><title>&#45;5&#45;&gt;0</title>
<path fill="none" stroke="red" stroke-width="0.273111" stroke-dasharray="1,5" d="M882.163,-65.6548C879.219,-58.5579 874.785,-47.8701 870.778,-38.2124"/>
<polygon fill="red" stroke="red" stroke-width="0.273111" points="873.902,-36.6102 866.838,-28.7148 867.437,-39.2927 873.902,-36.6102"/>
</g>
<!-- &#45;5&#45;&gt;1 -->
<g id="edge18" class="edge"><title>&#45;5&#45;&gt;1</title>
<path fill="none" stroke="red" stroke-width="0.311882" d="M895.511,-65.6548C906.519,-56.8107 924.468,-42.3896 938.226,-31.3354"/>
<polygon fill="red" stroke="red" stroke-width="0.311882" points="940.548,-33.9596 946.151,-24.9678 936.163,-28.5028 940.548,-33.9596"/>
</g>
<!-- &#45;5&#45;&gt;2 -->
<g id="edge19" class="edge"><title>&#45;5&#45;&gt;2</title>
<path fill="none" stroke="red" stroke-width="0.217875" d="M888.837,-65.6548C891.781,-58.5579 896.215,-47.8701 900.222,-38.2124"/>
<polygon fill="red" stroke="red" stroke-width="0.217875" points="903.563,-39.2927 904.162,-28.7148 897.098,-36.6102 903.563,-39.2927"/>
</g>
<!-- &#45;5&#45;&gt;3 -->
<g id="edge20" class="edge"><title>&#45;5&#45;&gt;3</title>
<path fill="none" stroke="green" stroke-width="0.24104" d="M875.489,-65.6548C864.481,-56.8107 846.532,-42.3896 832.774,-31.3354"/>
<polygon fill="green" stroke="green" stroke-width="0.24104" points="834.837,-28.5028 824.849,-24.9678 830.452,-33.9596 834.837,-28.5028"/>
</g>
<!-- &#45;6 -->
<g id="node6" class="node"><title>&#45;6</title>
<polygon fill="lightgray" stroke="black" points="939.5,-83.6985 915.5,-83.6985 915.5,-65.6985 939.5,-65.6985 939.5,-83.6985"/>
<text text-anchor="middle" x="927.5" y="-72.4985" font-family="Times New Roman,serif" font-size="9.00">&#45;6</text>
</g>
<!-- &#45;6&#45;&gt;0 -->
<g id="edge21" class="edge"><title>&#45;6&#45;&gt;0</title>
<path fill="none" stroke="green" stroke-width="0.133157" d="M918.323,-65.6548C908.444,-56.996 892.466,-42.9914 879.966,-32.0346"/>
<polygon fill="green" stroke="green" stroke-width="0.133157" points="882.18,-29.3208 872.352,-25.3614 877.566,-34.5849 882.18,-29.3208"/>
</g>
<!-- &#45;6&#45;&gt;1 -->
<g id="edge22" class="edge"><title>&#45;6&#45;&gt;1</title>
<path fill="none" stroke="green" stroke-width="0.376184" stroke-dasharray="1,5" d="M931.671,-65.6548C935.478,-58.3144 941.277,-47.1324 946.416,-37.2221"/>
<polygon fill="green" stroke="green" stroke-width="0.376184" points="949.558,-38.7657 951.055,-28.2771 943.344,-35.5431 949.558,-38.7657"/>
</g>
<!-- &#45;6&#45;&gt;2 -->
<g id="edge23" class="edge"><title>&#45;6&#45;&gt;2</title>
<path fill="none" stroke="red" stroke-width="0.267917" d="M924.997,-65.6548C922.841,-58.7238 919.618,-48.3678 916.67,-38.8914"/>
<polygon fill="red" stroke="red" stroke-width="0.267917" points="919.954,-37.6659 913.641,-29.1573 913.27,-39.7457 919.954,-37.6659"/>
</g>
<!-- &#45;6&#45;&gt;3 -->
<g id="edge24" class="edge"><title>&#45;6&#45;&gt;3</title>
<path fill="none" stroke="green" stroke-width="0.142466" d="M915.43,-68.1206C898.034,-60.0085 864.983,-44.324 837.5,-29.6985 836.683,-29.2634 835.852,-28.8155 835.016,-28.3591"/>
<polygon fill="green" stroke="green" stroke-width="0.142466" points="836.544,-25.203 826.114,-23.3446 833.109,-31.302 836.544,-25.203"/>
</g>
<!-- &#45;7 -->
<g id="node7" class="node"><title>&#45;7</title>
<polygon fill="lightgray" stroke="black" points="981.5,-83.6985 957.5,-83.6985 957.5,-65.6985 981.5,-65.6985 981.5,-83.6985"/>
<text text-anchor="middle" x="969.5" y="-72.4985" font-family="Times New Roman,serif" font-size="9.00">&#45;7</text>
</g>
<!-- &#45;7&#45;&gt;0 -->
<g id="edge25" class="edge"><title>&#45;7&#45;&gt;0</title>
<path fill="none" stroke="red" stroke-width="0.205824" d="M957.455,-67.585C941.07,-59.2241 910.887,-43.6645 885.5,-29.6985 884.689,-29.2521 883.864,-28.7946 883.031,-28.3301"/>
<polygon fill="red" stroke="red" stroke-width="0.205824" points="884.572,-25.18 874.15,-23.2778 881.111,-31.2645 884.572,-25.18"/>
</g>
<!-- &#45;7&#45;&gt;1 -->
<g id="edge26" class="edge"><title>&#45;7&#45;&gt;1</title>
<path fill="none" stroke="red" stroke-width="0.339009" d="M967.831,-65.6548C966.428,-58.8878 964.347,-48.8559 962.42,-39.5653"/>
<polygon fill="red" stroke="red" stroke-width="0.339009" points="965.812,-38.6852 960.353,-29.6046 958.957,-40.107 965.812,-38.6852"/>
</g>
<!-- &#45;7&#45;&gt;2 -->
<g id="edge27" class="edge"><title>&#45;7&#45;&gt;2</title>
<path fill="none" stroke="green" stroke-width="0.381587" d="M961.157,-65.6548C952.367,-57.1793 938.264,-43.5822 927.013,-32.7347"/>
<polygon fill="green" stroke="green" stroke-width="0.381587" points="929.409,-30.1823 919.78,-25.761 924.55,-35.2215 929.409,-30.1823"/>
</g>
<!-- &#45;7&#45;&gt;3 -->
<g id="edge28" class="edge"><title>&#45;7&#45;&gt;3</title>
<path fill="none" stroke="green" stroke-width="0.396497" d="M957.101,-68.8567C954.283,-67.7894 951.297,-66.6839 948.5,-65.6985 899.585,-48.4615 884.887,-50.775 837.5,-29.6985 836.654,-29.3222 835.799,-28.9241 834.942,-28.5097"/>
<polygon fill="green" stroke="green" stroke-width="0.396497" points="836.412,-25.3267 825.944,-23.6914 833.108,-31.4976 836.412,-25.3267"/>
</g>
<!-- &#45;8 -->
<g id="node8" class="node"><title>&#45;8</title>
<polygon fill="lightgray" stroke="black" points="1023.5,-83.6985 999.5,-83.6985 999.5,-65.6985 1023.5,-65.6985 1023.5,-83.6985"/>
<text text-anchor="middle" x="1011.5" y="-72.4985" font-family="Times New Roman,serif" font-size="9.00">&#45;8</text>
</g>
<!-- &#45;8&#45;&gt;0 -->
<g id="edge29" class="edge"><title>&#45;8&#45;&gt;0</title>
<path fill="none" stroke="red" stroke-width="0.42835" d="M999.089,-68.8912C996.272,-67.8221 993.288,-66.7072 990.5,-65.6985 944.109,-48.9149 930.407,-50.1221 885.5,-29.6985 884.657,-29.3151 883.805,-28.9111 882.95,-28.4917"/>
<polygon fill="red" stroke="red" stroke-width="0.42835" points="884.427,-25.3115 873.963,-23.6498 881.107,-31.4741 884.427,-25.3115"/>
</g>
<!-- &#45;8&#45;&gt;1 -->
<g id="edge30" class="edge"><title>&#45;8&#45;&gt;1</title>
<path fill="none" stroke="red" stroke-width="0.377934" d="M1003.99,-65.6548C996.325,-57.4413 984.168,-44.4177 974.208,-33.7481"/>
<polygon fill="red" stroke="red" stroke-width="0.377934" points="976.513,-31.0883 967.131,-26.1665 971.396,-35.8649 976.513,-31.0883"/>
</g>
<!-- &#45;8&#45;&gt;2 -->
<g id="edge31" class="edge"><title>&#45;8&#45;&gt;2</title>
<path fill="none" stroke="red" stroke-width="0.249586" d="M999.32,-66.876C983.953,-58.2577 956.727,-42.951 933.5,-29.6985 932.696,-29.2396 931.877,-28.7714 931.05,-28.2978"/>
<polygon fill="red" stroke="red" stroke-width="0.249586" points="932.605,-25.1548 922.191,-23.2036 929.115,-31.223 932.605,-25.1548"/>
</g>
<!-- &#45;8&#45;&gt;3 -->
<g id="edge32" class="edge"><title>&#45;8&#45;&gt;3</title>
<path fill="none" stroke="green" stroke-width="0.475355" d="M999.158,-68.6843C996.337,-67.626 993.335,-66.5677 990.5,-65.6985 923.712,-45.2189 902.445,-55.4303 837.5,-29.6985 836.639,-29.3574 835.772,-28.9893 834.904,-28.6001"/>
<polygon fill="green" stroke="green" stroke-width="0.475355" points="836.344,-25.4042 825.857,-23.8994 833.117,-31.6158 836.344,-25.4042"/>
</g>
<!-- &#45;9 -->
<g id="node9" class="node"><title>&#45;9</title>
<polygon fill="lightgray" stroke="black" points="1065.5,-83.6985 1041.5,-83.6985 1041.5,-65.6985 1065.5,-65.6985 1065.5,-83.6985"/>
<text text-anchor="middle" x="1053.5" y="-72.4985" font-family="Times New Roman,serif" font-size="9.00">&#45;9</text>
</g>
<!-- &#45;9&#45;&gt;0 -->
<g id="edge33" class="edge"><title>&#45;9&#45;&gt;0</title>
<path fill="none" stroke="red" stroke-width="0.290436" d="M1041.15,-68.7034C1038.33,-67.644 1035.33,-66.5806 1032.5,-65.6985 968.282,-45.6873 947.921,-54.7588 885.5,-29.6985 884.641,-29.3535 883.775,-28.982 882.908,-28.5901"/>
<polygon fill="red" stroke="red" stroke-width="0.290436" points="884.352,-25.3955 873.866,-23.8764 881.116,-31.6027 884.352,-25.3955"/>
</g>
<!-- &#45;9&#45;&gt;1 -->
<g id="edge34" class="edge"><title>&#45;9&#45;&gt;1</title>
<path fill="none" stroke="green" stroke-width="0.436746" d="M1041.34,-66.3718C1025.56,-56.8613 997.766,-40.1132 978.529,-28.5212"/>
<polygon fill="green" stroke="green" stroke-width="0.436746" points="980.235,-25.4627 969.863,-23.2991 976.622,-31.4583 980.235,-25.4627"/>
</g>
<!-- &#45;9&#45;&gt;2 -->
<g id="edge35" class="edge"><title>&#45;9&#45;&gt;2</title>
<path fill="none" stroke="green" stroke-width="0.176276" d="M1041.07,-68.9293C1038.26,-67.8583 1035.28,-66.7329 1032.5,-65.6985 988.623,-49.3644 975.937,-49.474 933.5,-29.6985 932.661,-29.3073 931.812,-28.8967 930.96,-28.4717"/>
<polygon fill="green" stroke="green" stroke-width="0.176276" points="932.443,-25.2948 921.984,-23.6039 929.106,-31.4481 932.443,-25.2948"/>
</g>
<!-- &#45;9&#45;&gt;3 -->
<g id="edge36" class="edge"><title>&#45;9&#45;&gt;3</title>
<path fill="none" stroke="green" stroke-width="0.241245" d="M1041.19,-68.5819C1038.37,-67.5289 1035.36,-66.4987 1032.5,-65.6985 947.639,-41.9135 920.198,-60.164 837.5,-29.6985 836.631,-29.3784 835.757,-29.0281 834.884,-28.654"/>
<polygon fill="green" stroke="green" stroke-width="0.241245" points="836.308,-25.4513 825.81,-24.0234 833.126,-31.6864 836.308,-25.4513"/>
</g>
<!-- &#45;10 -->
<g id="node10" class="node"><title>&#45;10</title>
<polygon fill="lightgray" stroke="black" points="1113,-83.6985 1084,-83.6985 1084,-65.6985 1113,-65.6985 1113,-83.6985"/>
<text text-anchor="middle" x="1098.5" y="-72.4985" font-family="Times New Roman,serif" font-size="9.00">&#45;10</text>
</g>
<!-- &#45;10&#45;&gt;0 -->
<g id="edge37" class="edge"><title>&#45;10&#45;&gt;0</title>
<path fill="none" stroke="red" stroke-width="0.279162" d="M1083.87,-68.4771C1080.8,-67.4779 1077.56,-66.4961 1074.5,-65.6985 991.755,-44.1301 965.655,-59.485 885.5,-29.6985 884.632,-29.3759 883.759,-29.0235 882.886,-28.6477"/>
<polygon fill="red" stroke="red" stroke-width="0.279162" points="884.312,-25.4458 873.815,-24.0089 881.125,-31.6781 884.312,-25.4458"/>
</g>
<!-- &#45;10&#45;&gt;1 -->
<g id="edge38" class="edge"><title>&#45;10&#45;&gt;1</title>
<path fill="none" stroke="red" stroke-width="0.136903" d="M1083.94,-67.7255C1059.39,-57.6544 1009.6,-37.2227 980.353,-25.2252"/>
<polygon fill="red" stroke="red" stroke-width="0.136903" points="981.522,-21.9219 970.942,-21.3641 978.865,-28.398 981.522,-21.9219"/>
</g>
<!-- &#45;10&#45;&gt;2 -->
<g id="edge39" class="edge"><title>&#45;10&#45;&gt;2</title>
<path fill="none" stroke="red" stroke-width="0.708527" stroke-dasharray="1,5" d="M1083.83,-68.623C1080.76,-67.6131 1077.53,-66.5902 1074.5,-65.6985 1012.45,-47.4604 993.402,-54.089 933.5,-29.6985 932.642,-29.3493 931.778,-28.9742 930.913,-28.5793"/>
<polygon fill="red" stroke="red" stroke-width="0.708527" points="932.359,-25.3861 921.876,-23.8515 929.114,-31.5885 932.359,-25.3861"/>
</g>
<!-- &#45;10&#45;&gt;3 -->
<g id="edge40" class="edge"><title>&#45;10&#45;&gt;3</title>
<path fill="none" stroke="green" stroke-width="0.17688" d="M1083.89,-68.3881C1080.82,-67.3953 1077.57,-66.4386 1074.5,-65.6985 970.918,-40.7617 938.047,-64.9333 837.5,-29.6985 836.626,-29.3922 835.748,-29.0537 834.871,-28.6895"/>
<polygon fill="green" stroke="green" stroke-width="0.17688" points="836.285,-25.4829 825.78,-24.1053 833.133,-31.7331 836.285,-25.4829"/>
</g>
<!-- &#45;11 -->
<g id="node11" class="node"><title>&#45;11</title>
<polygon fill="lightgray" stroke="black" points="1160,-83.6985 1131,-83.6985 1131,-65.6985 1160,-65.6985 1160,-83.6985"/>
<text text-anchor="middle" x="1145.5" y="-72.4985" font-family="Times New Roman,serif" font-size="9.00">&#45;11</text>
</g>
<!-- &#45;11&#45;&gt;0 -->
<g id="edge41" class="edge"><title>&#45;11&#45;&gt;0</title>
<path fill="none" stroke="green" stroke-width="0.162808" d="M1130.53,-68.046C1127.88,-67.174 1125.13,-66.3488 1122.5,-65.6985 1019.08,-40.0896 986.047,-64.9333 885.5,-29.6985 884.626,-29.3922 883.748,-29.0537 882.871,-28.6895"/>
<polygon fill="green" stroke="green" stroke-width="0.162808" points="884.285,-25.4829 873.78,-24.1053 881.133,-31.7331 884.285,-25.4829"/>
</g>
<!-- &#45;11&#45;&gt;1 -->
<g id="edge42" class="edge"><title>&#45;11&#45;&gt;1</title>
<path fill="none" stroke="red" stroke-width="0.14319" d="M1130.93,-68.5289C1128.14,-67.5674 1125.23,-66.5866 1122.5,-65.6985 1072.64,-49.5024 1013.75,-32.1275 981.536,-22.7726"/>
<polygon fill="red" stroke="red" stroke-width="0.14319" points="982.266,-19.3403 971.687,-19.9208 980.319,-26.0641 982.266,-19.3403"/>
</g>
<!-- &#45;11&#45;&gt;2 -->
<g id="edge43" class="edge"><title>&#45;11&#45;&gt;2</title>
<path fill="none" stroke="red" stroke-width="0.289188" stroke-dasharray="1,5" d="M1131,-68.2944C1128.2,-67.3545 1125.28,-66.4417 1122.5,-65.6985 1039.9,-43.5933 1013.65,-59.485 933.5,-29.6985 932.632,-29.3759 931.759,-29.0235 930.886,-28.6477"/>
<polygon fill="red" stroke="red" stroke-width="0.289188" points="932.312,-25.4458 921.815,-24.0089 929.125,-31.6781 932.312,-25.4458"/>
</g>
<!-- &#45;11&#45;&gt;3 -->
<g id="edge44" class="edge"><title>&#45;11&#45;&gt;3</title>
<path fill="none" stroke="green" stroke-width="0.149291" d="M1130.54,-67.9903C1127.89,-67.1245 1125.13,-66.3158 1122.5,-65.6985 998.195,-36.5678 958.509,-70.4067 837.5,-29.6985 836.622,-29.4032 835.741,-29.074 834.861,-28.7177"/>
<polygon fill="green" stroke="green" stroke-width="0.149291" points="836.268,-25.5081 825.758,-24.1702 833.14,-31.7702 836.268,-25.5081"/>
</g>
<!-- &#45;12 -->
<g id="node12" class="node"><title>&#45;12</title>
<polygon fill="lightgray" stroke="black" points="1677,-83.6985 1648,-83.6985 1648,-65.6985 1677,-65.6985 1677,-83.6985"/>
<text text-anchor="middle" x="1662.5" y="-72.4985" font-family="Times New Roman,serif" font-size="9.00">&#45;12</text>
</g>
<!-- &#45;12&#45;&gt;1 -->
<g id="edge45" class="edge"><title>&#45;12&#45;&gt;1</title>
<path fill="none" stroke="green" stroke-width="0.287947" d="M1647.57,-67.8728C1644.91,-67.0201 1642.15,-66.2462 1639.5,-65.6985 1387.27,-13.5575 1072.74,-13.9903 982.657,-15.3354"/>
<polygon fill="green" stroke="green" stroke-width="0.287947" points="982.517,-11.8372 972.577,-15.5048 982.635,-18.8362 982.517,-11.8372"/>
</g>
<!-- &#45;12&#45;&gt;2 -->
<g id="edge46" class="edge"><title>&#45;12&#45;&gt;2</title>
<path fill="none" stroke="red" stroke-width="0.324822" d="M1647.58,-67.8235C1644.92,-66.9763 1642.16,-66.217 1639.5,-65.6985 1331.14,-5.48513 1234.82,-118.685 933.5,-29.6985 932.439,-29.3851 931.375,-29.0162 930.317,-28.6044"/>
<polygon fill="red" stroke="red" stroke-width="0.324822" points="931.716,-25.3915 921.203,-24.0748 928.6,-31.6599 931.716,-25.3915"/>
</g>
<!-- &#45;12&#45;&gt;3 -->
<g id="edge47" class="edge"><title>&#45;12&#45;&gt;3</title>
<path fill="none" stroke="green" stroke-width="0.340432" d="M1647.58,-67.8099C1644.92,-66.9642 1642.16,-66.2089 1639.5,-65.6985 1464.3,-32.0413 1008.75,-79.7061 837.5,-29.6985 836.438,-29.3883 835.373,-29.0221 834.314,-28.6124"/>
<polygon fill="green" stroke="green" stroke-width="0.340432" points="835.712,-25.399 825.198,-24.0907 832.602,-31.6699 835.712,-25.399"/>
</g>
<!-- &#45;13 -->
<g id="node13" class="node"><title>&#45;13</title>
<polygon fill="lightgray" stroke="black" points="1207,-83.6985 1178,-83.6985 1178,-65.6985 1207,-65.6985 1207,-83.6985"/>
<text text-anchor="middle" x="1192.5" y="-72.4985" font-family="Times New Roman,serif" font-size="9.00">&#45;13</text>
</g>
<!-- &#45;13&#45;&gt;0 -->
<g id="edge48" class="edge"><title>&#45;13&#45;&gt;0</title>
<path fill="none" stroke="red" stroke-width="0.103464" d="M1177.54,-67.9912C1174.89,-67.1254 1172.13,-66.3164 1169.5,-65.6985 1045.63,-36.6413 1006.08,-70.2925 885.5,-29.6985 884.622,-29.403 883.741,-29.0737 882.861,-28.7173"/>
<polygon fill="red" stroke="red" stroke-width="0.103464" points="884.268,-25.5076 873.758,-24.1691 881.14,-31.7696 884.268,-25.5076"/>
</g>
<!-- &#45;13&#45;&gt;1 -->
<g id="edge49" class="edge"><title>&#45;13&#45;&gt;1</title>
<path fill="none" stroke="green" stroke-width="0.155088" stroke-dasharray="1,5" d="M1177.97,-68.3901C1175.18,-67.4413 1172.26,-66.5008 1169.5,-65.6985 1102.32,-46.1736 1021.5,-28.8309 981.853,-20.7162"/>
<polygon fill="green" stroke="green" stroke-width="0.155088" points="982.526,-17.2814 972.029,-18.7224 981.133,-24.1415 982.526,-17.2814"/>
</g>
<!-- &#45;13&#45;&gt;2 -->
<g id="edge50" class="edge"><title>&#45;13&#45;&gt;2</title>
<path fill="none" stroke="red" stroke-width="0.115531" d="M1177.53,-68.0474C1174.88,-67.1753 1172.13,-66.3497 1169.5,-65.6985 1066.52,-40.1629 1033.62,-64.8195 933.5,-29.6985 932.626,-29.392 931.748,-29.0532 930.871,-28.6888"/>
<polygon fill="red" stroke="red" stroke-width="0.115531" points="932.286,-25.4822 921.781,-24.1037 929.133,-31.7322 932.286,-25.4822"/>
</g>
<!-- &#45;13&#45;&gt;3 -->
<g id="edge51" class="edge"><title>&#45;13&#45;&gt;3</title>
<path fill="none" stroke="green" stroke-width="0.128039" d="M1177.55,-67.951C1174.9,-67.0896 1172.14,-66.2926 1169.5,-65.6985 1024.7,-33.1097 978.586,-75.7794 837.5,-29.6985 836.62,-29.411 835.736,-29.0884 834.855,-28.7376"/>
<polygon fill="green" stroke="green" stroke-width="0.128039" points="836.256,-25.526 825.743,-24.216 833.145,-31.7964 836.256,-25.526"/>
</g>
<!-- &#45;14 -->
<g id="node14" class="node"><title>&#45;14</title>
<polygon fill="lightgray" stroke="black" points="1254,-83.6985 1225,-83.6985 1225,-65.6985 1254,-65.6985 1254,-83.6985"/>
<text text-anchor="middle" x="1239.5" y="-72.4985" font-family="Times New Roman,serif" font-size="9.00">&#45;14</text>
</g>
<!-- &#45;14&#45;&gt;0 -->
<g id="edge52" class="edge"><title>&#45;14&#45;&gt;0</title>
<path fill="none" stroke="green" stroke-width="0.308334" d="M1224.55,-67.9517C1221.9,-67.0903 1219.14,-66.293 1216.5,-65.6985 1072.14,-33.1834 1026.16,-75.665 885.5,-29.6985 884.62,-29.4108 883.736,-29.0881 882.855,-28.7373"/>
<polygon fill="green" stroke="green" stroke-width="0.308334" points="884.256,-25.5256 873.743,-24.2151 881.145,-31.7959 884.256,-25.5256"/>
</g>
<!-- &#45;14&#45;&gt;1 -->
<g id="edge53" class="edge"><title>&#45;14&#45;&gt;1</title>
<path fill="none" stroke="green" stroke-width="0.301594" d="M1225,-68.2987C1222.2,-67.3584 1219.28,-66.4443 1216.5,-65.6985 1131.75,-42.9324 1028.75,-26.3167 982.312,-19.4007"/>
<polygon fill="green" stroke="green" stroke-width="0.301594" points="982.675,-15.9166 972.273,-17.9262 981.658,-22.8423 982.675,-15.9166"/>
</g>
<!-- &#45;14&#45;&gt;2 -->
<g id="edge54" class="edge"><title>&#45;14&#45;&gt;2</title>
<path fill="none" stroke="red" stroke-width="0.238389" d="M1224.54,-67.9922C1221.89,-67.1263 1219.13,-66.317 1216.5,-65.6985 1093.07,-36.7148 1053.66,-70.1783 933.5,-29.6985 932.622,-29.4028 931.741,-29.0733 930.862,-28.7168"/>
<polygon fill="red" stroke="red" stroke-width="0.238389" points="932.269,-25.5072 921.759,-24.1679 929.139,-31.7689 932.269,-25.5072"/>
</g>
<!-- &#45;14&#45;&gt;3 -->
<g id="edge55" class="edge"><title>&#45;14&#45;&gt;3</title>
<path fill="none" stroke="red" stroke-width="0.126425" d="M1224.55,-67.9214C1221.9,-67.0633 1219.14,-66.275 1216.5,-65.6985 1051.18,-29.6459 998.687,-81.1603 837.5,-29.6985 836.446,-29.362 835.388,-28.9741 834.334,-28.5469"/>
<polygon fill="red" stroke="red" stroke-width="0.126425" points="835.743,-25.3376 825.238,-23.9609 832.592,-31.5881 835.743,-25.3376"/>
</g>
<!-- &#45;15 -->
<g id="node15" class="node"><title>&#45;15</title>
<polygon fill="lightgray" stroke="black" points="1301,-83.6985 1272,-83.6985 1272,-65.6985 1301,-65.6985 1301,-83.6985"/>
<text text-anchor="middle" x="1286.5" y="-72.4985" font-family="Times New Roman,serif" font-size="9.00">&#45;15</text>
</g>
<!-- &#45;15&#45;&gt;0 -->
<g id="edge56" class="edge"><title>&#45;15&#45;&gt;0</title>
<path fill="none" stroke="red" stroke-width="0.127948" d="M1271.55,-67.9219C1268.9,-67.0638 1266.14,-66.2753 1263.5,-65.6985 1098.62,-29.7196 1046.26,-81.0457 885.5,-29.6985 884.446,-29.3618 883.388,-28.9739 882.334,-28.5466"/>
<polygon fill="red" stroke="red" stroke-width="0.127948" points="883.743,-25.3373 873.238,-23.9602 880.592,-31.5877 883.743,-25.3373"/>
</g>
<!-- &#45;15&#45;&gt;1 -->
<g id="edge57" class="edge"><title>&#45;15&#45;&gt;1</title>
<path fill="none" stroke="red" stroke-width="0.393155" d="M1271.52,-68.0698C1268.87,-67.1952 1266.12,-66.3629 1263.5,-65.6985 1160.72,-39.6603 1034.93,-24.178 982.399,-18.4238"/>
<polygon fill="red" stroke="red" stroke-width="0.393155" points="982.652,-14.931 972.336,-17.3433 981.905,-21.891 982.652,-14.931"/>
</g>
<!-- &#45;15&#45;&gt;2 -->
<g id="edge58" class="edge"><title>&#45;15&#45;&gt;2</title>
<path fill="none" stroke="green" stroke-width="0.452717" d="M1271.55,-67.9525C1268.9,-67.0909 1266.14,-66.2934 1263.5,-65.6985 1119.57,-33.257 1073.73,-75.5506 933.5,-29.6985 932.62,-29.4107 931.736,-29.0879 930.855,-28.7369"/>
<polygon fill="green" stroke="green" stroke-width="0.452717" points="932.257,-25.5253 921.743,-24.2143 929.144,-31.7954 932.257,-25.5253"/>
</g>
<!-- &#45;15&#45;&gt;3 -->
<g id="edge59" class="edge"><title>&#45;15&#45;&gt;3</title>
<path fill="none" stroke="green" stroke-width="0.37249" d="M1271.56,-67.8982C1268.91,-67.0426 1266.15,-66.2613 1263.5,-65.6985 1077.65,-26.1783 1018.8,-86.5465 837.5,-29.6985 836.444,-29.3675 835.384,-28.9841 834.33,-28.5605"/>
<polygon fill="green" stroke="green" stroke-width="0.37249" points="835.736,-25.3503 825.23,-23.9879 832.594,-31.6051 835.736,-25.3503"/>
</g>
<!-- &#45;16 -->
<g id="node16" class="node"><title>&#45;16</title>
<polygon fill="lightgray" stroke="black" points="1348,-83.6985 1319,-83.6985 1319,-65.6985 1348,-65.6985 1348,-83.6985"/>
<text text-anchor="middle" x="1333.5" y="-72.4985" font-family="Times New Roman,serif" font-size="9.00">&#45;16</text>
</g>
<!-- &#45;16&#45;&gt;0 -->
<g id="edge60" class="edge"><title>&#45;16&#45;&gt;0</title>
<path fill="none" stroke="green" stroke-width="0.155097" d="M1318.56,-67.8986C1315.91,-67.043 1313.15,-66.2615 1310.5,-65.6985 1125.08,-26.2521 1066.38,-86.4319 885.5,-29.6985 884.444,-29.3673 883.385,-28.9839 882.33,-28.5603"/>
<polygon fill="green" stroke="green" stroke-width="0.155097" points="883.737,-25.3501 873.23,-23.9874 880.594,-31.6048 883.737,-25.3501"/>
</g>
<!-- &#45;16&#45;&gt;1 -->
<g id="edge61" class="edge"><title>&#45;16&#45;&gt;1</title>
<path fill="none" stroke="green" stroke-width="0.220261" d="M1318.53,-68.0228C1315.88,-67.1534 1313.13,-66.3351 1310.5,-65.6985 1189.56,-36.4216 1040.87,-22.3847 982.599,-17.7072"/>
<polygon fill="green" stroke="green" stroke-width="0.220261" points="982.734,-14.2071 972.492,-16.9178 982.189,-21.1858 982.734,-14.2071"/>
</g>
<!-- &#45;16&#45;&gt;2 -->
<g id="edge62" class="edge"><title>&#45;16&#45;&gt;2</title>
<path fill="none" stroke="green" stroke-width="0.358628" d="M1318.55,-67.9225C1315.9,-67.0643 1313.14,-66.2757 1310.5,-65.6985 1146.06,-29.7934 1093.83,-80.9312 933.5,-29.6985 932.446,-29.3617 931.388,-28.9736 930.334,-28.5463"/>
<polygon fill="green" stroke="green" stroke-width="0.358628" points="931.743,-25.337 921.239,-23.9596 928.592,-31.5873 931.743,-25.337"/>
</g>
<!-- &#45;16&#45;&gt;3 -->
<g id="edge63" class="edge"><title>&#45;16&#45;&gt;3</title>
<path fill="none" stroke="red" stroke-width="0.438104" d="M1318.56,-67.8795C1315.91,-67.0261 1313.15,-66.2502 1310.5,-65.6985 1104.1,-22.7081 1038.93,-91.9364 837.5,-29.6985 836.443,-29.3719 835.382,-28.9921 834.326,-28.5715"/>
<polygon fill="red" stroke="red" stroke-width="0.438104" points="835.731,-25.3606 825.223,-24.0096 832.595,-31.6188 835.731,-25.3606"/>
</g>
<!-- &#45;17 -->
<g id="node17" class="node"><title>&#45;17</title>
<polygon fill="lightgray" stroke="black" points="29,-83.6985 0,-83.6985 0,-65.6985 29,-65.6985 29,-83.6985"/>
<text text-anchor="middle" x="14.5" y="-72.4985" font-family="Times New Roman,serif" font-size="9.00">&#45;17</text>
</g>
<!-- &#45;17&#45;&gt;0 -->
<g id="edge64" class="edge"><title>&#45;17&#45;&gt;0</title>
<path fill="none" stroke="red" stroke-width="0.328685" d="M29.4224,-67.8101C32.0768,-66.9644 34.8429,-66.2091 37.5,-65.6985 212.26,-32.1152 666.679,-79.5912 837.5,-29.6985 838.562,-29.3883 839.627,-29.022 840.686,-28.6123"/>
<polygon fill="red" stroke="red" stroke-width="0.328685" points="842.398,-31.6697 849.801,-24.0905 839.288,-25.3989 842.398,-31.6697"/>
</g>
<!-- &#45;17&#45;&gt;2 -->
<g id="edge65" class="edge"><title>&#45;17&#45;&gt;2</title>
<path fill="none" stroke="red" stroke-width="0.320477" d="M29.4213,-67.8044C32.0759,-66.9593 34.8422,-66.2057 37.5,-65.6985 222.77,-30.3397 704.383,-82.3487 885.5,-29.6985 886.562,-29.3896 887.628,-29.0245 888.687,-28.6156"/>
<polygon fill="red" stroke="red" stroke-width="0.320477" points="890.398,-31.6739 897.803,-24.0971 887.289,-25.402 890.398,-31.6739"/>
</g>
<!-- &#45;17&#45;&gt;3 -->
<g id="edge66" class="edge"><title>&#45;17&#45;&gt;3</title>
<path fill="none" stroke="green" stroke-width="0.367754" d="M29.4308,-67.8531C32.0844,-67.0026 34.8479,-66.2346 37.5,-65.6985 186.359,-35.6095 672.961,-19.9048 788.655,-16.5418"/>
<polygon fill="green" stroke="green" stroke-width="0.367754" points="788.774,-20.0399 798.67,-16.2548 788.574,-13.0428 788.774,-20.0399"/>
</g>
<!-- &#45;18 -->
<g id="node18" class="node"><title>&#45;18</title>
<polygon fill="lightgray" stroke="black" points="1395,-83.6985 1366,-83.6985 1366,-65.6985 1395,-65.6985 1395,-83.6985"/>
<text text-anchor="middle" x="1380.5" y="-72.4985" font-family="Times New Roman,serif" font-size="9.00">&#45;18</text>
</g>
<!-- &#45;18&#45;&gt;0 -->
<g id="edge67" class="edge"><title>&#45;18&#45;&gt;0</title>
<path fill="none" stroke="green" stroke-width="0.112368" stroke-dasharray="1,5" d="M1365.56,-67.8799C1362.91,-67.0264 1360.15,-66.2504 1357.5,-65.6985 1151.54,-22.782 1086.51,-91.8217 885.5,-29.6985 884.443,-29.3718 883.382,-28.992 882.327,-28.5713"/>
<polygon fill="green" stroke="green" stroke-width="0.112368" points="883.731,-25.3604 873.223,-24.0092 880.595,-31.6185 883.731,-25.3604"/>
</g>
<!-- &#45;18&#45;&gt;1 -->
<g id="edge68" class="edge"><title>&#45;18&#45;&gt;1</title>
<path fill="none" stroke="green" stroke-width="0.153744" d="M1365.54,-67.9866C1362.89,-67.1212 1360.13,-66.3136 1357.5,-65.6985 1218.31,-33.203 1046.62,-20.829 982.876,-17.1535"/>
<polygon fill="green" stroke="green" stroke-width="0.153744" points="982.771,-13.6424 972.592,-16.5831 982.383,-20.6317 982.771,-13.6424"/>
</g>
<!-- &#45;18&#45;&gt;2 -->
<g id="edge69" class="edge"><title>&#45;18&#45;&gt;2</title>
<path fill="none" stroke="red" stroke-width="0.249713" d="M1365.56,-67.899C1362.91,-67.0434 1360.15,-66.2618 1357.5,-65.6985 1172.52,-26.3259 1113.95,-86.3172 933.5,-29.6985 932.444,-29.3672 931.385,-28.9837 930.33,-28.56"/>
<polygon fill="red" stroke="red" stroke-width="0.249713" points="931.737,-25.3498 921.23,-23.9869 928.593,-31.6045 931.737,-25.3498"/>
</g>
<!-- &#45;18&#45;&gt;3 -->
<g id="edge70" class="edge"><title>&#45;18&#45;&gt;3</title>
<path fill="none" stroke="red" stroke-width="0.23908" stroke-dasharray="1,5" d="M1365.57,-67.8642C1362.91,-67.0125 1360.15,-66.2411 1357.5,-65.6985 1130.54,-19.2361 1059.07,-97.329 837.5,-29.6985 836.442,-29.3755 835.38,-28.9987 834.324,-28.5805"/>
<polygon fill="red" stroke="red" stroke-width="0.23908" points="835.727,-25.369 825.217,-24.0274 832.596,-31.63 835.727,-25.369"/>
</g>
<!-- &#45;19 -->
<g id="node19" class="node"><title>&#45;19</title>
<polygon fill="lightgray" stroke="black" points="1442,-83.6985 1413,-83.6985 1413,-65.6985 1442,-65.6985 1442,-83.6985"/>
<text text-anchor="middle" x="1427.5" y="-72.4985" font-family="Times New Roman,serif" font-size="9.00">&#45;19</text>
</g>
<!-- &#45;19&#45;&gt;0 -->
<g id="edge71" class="edge"><title>&#45;19&#45;&gt;0</title>
<path fill="none" stroke="green" stroke-width="0.512874" d="M1412.57,-67.8645C1409.91,-67.0127 1407.15,-66.2413 1404.5,-65.6985 1177.98,-19.31 1106.64,-97.2143 885.5,-29.6985 884.442,-29.3754 883.38,-28.9986 882.324,-28.5803"/>
<polygon fill="green" stroke="green" stroke-width="0.512874" points="883.727,-25.3688 873.217,-24.0271 880.596,-31.6298 883.727,-25.3688"/>
</g>
<!-- &#45;19&#45;&gt;1 -->
<g id="edge72" class="edge"><title>&#45;19&#45;&gt;1</title>
<path fill="none" stroke="green" stroke-width="0.173503" stroke-dasharray="1,5" d="M1412.55,-67.9578C1409.9,-67.0957 1407.14,-66.2966 1404.5,-65.6985 1246.52,-29.8896 1051.04,-19.3818 982.586,-16.6841"/>
<polygon fill="green" stroke="green" stroke-width="0.173503" points="982.485,-13.178 972.362,-16.3032 982.225,-20.1732 982.485,-13.178"/>
</g>
<!-- &#45;19&#45;&gt;2 -->
<g id="edge73" class="edge"><title>&#45;19&#45;&gt;2</title>
<path fill="none" stroke="green" stroke-width="0.113922" d="M1412.56,-67.8802C1409.91,-67.0267 1407.15,-66.2506 1404.5,-65.6985 1198.97,-22.8558 1134.08,-91.707 933.5,-29.6985 932.443,-29.3717 931.382,-28.9918 930.327,-28.5711"/>
<polygon fill="green" stroke="green" stroke-width="0.113922" points="931.731,-25.3602 921.223,-24.0087 928.595,-31.6183 931.731,-25.3602"/>
</g>
<!-- &#45;19&#45;&gt;3 -->
<g id="edge74" class="edge"><title>&#45;19&#45;&gt;3</title>
<path fill="none" stroke="green" stroke-width="0.251653" d="M1412.57,-67.8514C1409.92,-67.0011 1407.15,-66.2336 1404.5,-65.6985 1156.98,-15.7627 1079.22,-102.724 837.5,-29.6985 836.441,-29.3785 835.378,-29.0042 834.321,-28.588"/>
<polygon fill="green" stroke="green" stroke-width="0.251653" points="835.723,-25.376 825.213,-24.0423 832.598,-31.6394 835.723,-25.376"/>
</g>
<!-- &#45;20 -->
<g id="node20" class="node"><title>&#45;20</title>
<polygon fill="lightgray" stroke="black" points="1489,-83.6985 1460,-83.6985 1460,-65.6985 1489,-65.6985 1489,-83.6985"/>
<text text-anchor="middle" x="1474.5" y="-72.4985" font-family="Times New Roman,serif" font-size="9.00">&#45;20</text>
</g>
<!-- &#45;20&#45;&gt;0 -->
<g id="edge75" class="edge"><title>&#45;20&#45;&gt;0</title>
<path fill="none" stroke="green" stroke-width="0.236629" d="M1459.57,-67.8517C1456.92,-67.0013 1454.15,-66.2337 1451.5,-65.6985 1204.42,-15.8366 1126.79,-102.609 885.5,-29.6985 884.441,-29.3784 883.378,-29.0041 882.321,-28.5878"/>
<polygon fill="green" stroke="green" stroke-width="0.236629" points="883.723,-25.3759 873.213,-24.042 880.598,-31.6392 883.723,-25.3759"/>
</g>
<!-- &#45;20&#45;&gt;1 -->
<g id="edge76" class="edge"><title>&#45;20&#45;&gt;1</title>
<path fill="none" stroke="green" stroke-width="0.413595" d="M1459.55,-67.9344C1456.9,-67.0749 1454.14,-66.2828 1451.5,-65.6985 1274.98,-26.6592 1056.12,-18.1284 982.777,-16.32"/>
<polygon fill="green" stroke="green" stroke-width="0.413595" points="982.734,-12.8182 972.658,-16.0914 982.576,-19.8164 982.734,-12.8182"/>
</g>
<!-- &#45;20&#45;&gt;2 -->
<g id="edge77" class="edge"><title>&#45;20&#45;&gt;2</title>
<path fill="none" stroke="red" stroke-width="0.246561" d="M1459.57,-67.8648C1456.91,-67.013 1454.15,-66.2415 1451.5,-65.6985 1225.42,-19.3839 1154.22,-97.0995 933.5,-29.6985 932.442,-29.3753 931.38,-28.9985 930.324,-28.5801"/>
<polygon fill="red" stroke="red" stroke-width="0.246561" points="931.727,-25.3687 921.218,-24.0267 928.596,-31.6296 931.727,-25.3687"/>
</g>
<!-- &#45;20&#45;&gt;3 -->
<g id="edge78" class="edge"><title>&#45;20&#45;&gt;3</title>
<path fill="none" stroke="red" stroke-width="0.635102" d="M1459.57,-67.8406C1456.92,-66.9915 1454.15,-66.2271 1451.5,-65.6985 1183.41,-12.2883 1099.37,-108.12 837.5,-29.6985 836.44,-29.3811 835.377,-29.0089 834.32,-28.5944"/>
<polygon fill="red" stroke="red" stroke-width="0.635102" points="835.72,-25.382 825.209,-24.0549 832.599,-31.6474 835.72,-25.382"/>
</g>
<!-- &#45;21 -->
<g id="node21" class="node"><title>&#45;21</title>
<polygon fill="lightgray" stroke="black" points="1536,-83.6985 1507,-83.6985 1507,-65.6985 1536,-65.6985 1536,-83.6985"/>
<text text-anchor="middle" x="1521.5" y="-72.4985" font-family="Times New Roman,serif" font-size="9.00">&#45;21</text>
</g>
<!-- &#45;21&#45;&gt;0 -->
<g id="edge79" class="edge"><title>&#45;21&#45;&gt;0</title>
<path fill="none" stroke="green" stroke-width="0.491455" d="M1506.57,-67.8408C1503.92,-66.9917 1501.15,-66.2273 1498.5,-65.6985 1230.85,-12.3622 1146.94,-108.005 885.5,-29.6985 884.44,-29.381 883.377,-29.0088 882.32,-28.5942"/>
<polygon fill="green" stroke="green" stroke-width="0.491455" points="883.72,-25.3819 873.209,-24.0547 880.599,-31.6472 883.72,-25.3819"/>
</g>
<!-- &#45;21&#45;&gt;1 -->
<g id="edge80" class="edge"><title>&#45;21&#45;&gt;1</title>
<path fill="none" stroke="green" stroke-width="0.217644" d="M1506.56,-67.9151C1503.9,-67.0577 1501.14,-66.2713 1498.5,-65.6985 1303.01,-23.3534 1060.15,-16.9568 982.555,-16.0084"/>
<polygon fill="green" stroke="green" stroke-width="0.217644" points="982.366,-12.5064 972.331,-15.9044 982.295,-19.506 982.366,-12.5064"/>
</g>
<!-- &#45;21&#45;&gt;2 -->
<g id="edge81" class="edge"><title>&#45;21&#45;&gt;2</title>
<path fill="none" stroke="red" stroke-width="0.286157" d="M1506.57,-67.8519C1503.92,-67.0016 1501.15,-66.2339 1498.5,-65.6985 1251.85,-15.9105 1174.36,-102.494 933.5,-29.6985 932.441,-29.3784 931.378,-29.004 930.322,-28.5877"/>
<polygon fill="red" stroke="red" stroke-width="0.286157" points="931.724,-25.3758 921.213,-24.0417 928.598,-31.639 931.724,-25.3758"/>
</g>
<!-- &#45;21&#45;&gt;3 -->
<g id="edge82" class="edge"><title>&#45;21&#45;&gt;3</title>
<path fill="none" stroke="red" stroke-width="0.369969" d="M1506.57,-67.8313C1503.92,-66.9832 1501.15,-66.2216 1498.5,-65.6985 1209.84,-8.81307 1119.52,-113.517 837.5,-29.6985 836.439,-29.3833 835.376,-29.0129 834.318,-28.5998"/>
<polygon fill="red" stroke="red" stroke-width="0.369969" points="835.718,-25.3872 825.206,-24.0658 832.599,-31.6542 835.718,-25.3872"/>
</g>
<!-- &#45;22 -->
<g id="node22" class="node"><title>&#45;22</title>
<polygon fill="lightgray" stroke="black" points="1583,-83.6985 1554,-83.6985 1554,-65.6985 1583,-65.6985 1583,-83.6985"/>
<text text-anchor="middle" x="1568.5" y="-72.4985" font-family="Times New Roman,serif" font-size="9.00">&#45;22</text>
</g>
<!-- &#45;22&#45;&gt;0 -->
<g id="edge83" class="edge"><title>&#45;22&#45;&gt;0</title>
<path fill="none" stroke="green" stroke-width="0.351865" d="M1553.57,-67.8315C1550.92,-66.9834 1548.15,-66.2217 1545.5,-65.6985 1257.28,-8.88702 1167.09,-113.402 885.5,-29.6985 884.439,-29.3832 883.376,-29.0128 882.318,-28.5997"/>
<polygon fill="green" stroke="green" stroke-width="0.351865" points="883.718,-25.3871 873.206,-24.0656 880.599,-31.6541 883.718,-25.3871"/>
</g>
<!-- &#45;22&#45;&gt;1 -->
<g id="edge84" class="edge"><title>&#45;22&#45;&gt;1</title>
<path fill="none" stroke="red" stroke-width="0.120233" d="M1553.56,-67.8988C1550.91,-67.0432 1548.15,-66.2616 1545.5,-65.6985 1331.38,-20.1377 1065.05,-15.9048 982.842,-15.7504"/>
<polygon fill="red" stroke="red" stroke-width="0.120233" points="982.695,-12.2503 972.696,-15.7513 982.696,-19.2503 982.695,-12.2503"/>
</g>
<!-- &#45;22&#45;&gt;2 -->
<g id="edge85" class="edge"><title>&#45;22&#45;&gt;2</title>
<path fill="none" stroke="green" stroke-width="0.198209" d="M1553.57,-67.841C1550.92,-66.9919 1548.15,-66.2274 1545.5,-65.6985 1278.29,-12.4362 1194.51,-107.89 933.5,-29.6985 932.44,-29.381 931.377,-29.0087 930.32,-28.5941"/>
<polygon fill="green" stroke="green" stroke-width="0.198209" points="931.721,-25.3818 921.209,-24.0544 928.599,-31.6471 931.721,-25.3818"/>
</g>
<!-- &#45;22&#45;&gt;3 -->
<g id="edge86" class="edge"><title>&#45;22&#45;&gt;3</title>
<path fill="none" stroke="green" stroke-width="0.709637" d="M1553.58,-67.8232C1550.92,-66.976 1548.16,-66.2168 1545.5,-65.6985 1236.26,-5.33721 1139.68,-118.915 837.5,-29.6985 836.439,-29.3852 835.375,-29.0164 834.316,-28.6046"/>
<polygon fill="green" stroke="green" stroke-width="0.709637" points="835.716,-25.3916 825.203,-24.0752 832.6,-31.6601 835.716,-25.3916"/>
</g>
<!-- &#45;23 -->
<g id="node23" class="node"><title>&#45;23</title>
<polygon fill="lightgray" stroke="black" points="1630,-83.6985 1601,-83.6985 1601,-65.6985 1630,-65.6985 1630,-83.6985"/>
<text text-anchor="middle" x="1615.5" y="-72.4985" font-family="Times New Roman,serif" font-size="9.00">&#45;23</text>
</g>
<!-- &#45;23&#45;&gt;0 -->
<g id="edge87" class="edge"><title>&#45;23&#45;&gt;0</title>
<path fill="none" stroke="red" stroke-width="0.349369" d="M1600.58,-67.8234C1597.92,-66.9762 1595.16,-66.2169 1592.5,-65.6985 1283.7,-5.41117 1187.25,-118.8 885.5,-29.6985 884.439,-29.3851 883.375,-29.0163 882.317,-28.6045"/>
<polygon fill="red" stroke="red" stroke-width="0.349369" points="883.716,-25.3915 873.203,-24.075 880.6,-31.66 883.716,-25.3915"/>
</g>
<!-- &#45;23&#45;&gt;1 -->
<g id="edge88" class="edge"><title>&#45;23&#45;&gt;1</title>
<path fill="none" stroke="green" stroke-width="0.394716" d="M1600.56,-67.8848C1597.91,-67.0308 1595.15,-66.2534 1592.5,-65.6985 1359.2,-16.8166 1068.59,-14.9105 982.575,-15.5284"/>
<polygon fill="green" stroke="green" stroke-width="0.394716" points="982.434,-12.0295 972.466,-15.6205 982.498,-19.0292 982.434,-12.0295"/>
</g>
<!-- &#45;23&#45;&gt;2 -->
<g id="edge89" class="edge"><title>&#45;23&#45;&gt;2</title>
<path fill="none" stroke="red" stroke-width="0.153676" d="M1600.57,-67.8317C1597.92,-66.9835 1595.15,-66.2219 1592.5,-65.6985 1304.71,-8.96097 1214.66,-113.287 933.5,-29.6985 932.439,-29.3832 931.376,-29.0127 930.318,-28.5996"/>
<polygon fill="red" stroke="red" stroke-width="0.153676" points="931.718,-25.387 921.206,-24.0654 928.599,-31.6539 931.718,-25.387"/>
</g>
<!-- &#45;23&#45;&gt;3 -->
<g id="edge90" class="edge"><title>&#45;23&#45;&gt;3</title>
<path fill="none" stroke="green" stroke-width="0.175064" d="M1600.58,-67.8161C1597.92,-66.9697 1595.16,-66.2127 1592.5,-65.6985 1427.59,-33.7797 998.669,-77.0063 837.5,-29.6985 836.438,-29.3869 835.374,-29.0194 834.315,-28.6088"/>
<polygon fill="green" stroke="green" stroke-width="0.175064" points="835.714,-25.3956 825.201,-24.0835 832.601,-31.6653 835.714,-25.3956"/>
</g>
<!-- &#45;24 -->
<g id="node24" class="node"><title>&#45;24</title>
<polygon fill="lightgray" stroke="black" points="1818,-83.6985 1789,-83.6985 1789,-65.6985 1818,-65.6985 1818,-83.6985"/>
<text text-anchor="middle" x="1803.5" y="-72.4985" font-family="Times New Roman,serif" font-size="9.00">&#45;24</text>
</g>
<!-- &#45;24&#45;&gt;1 -->
<g id="edge91" class="edge"><title>&#45;24&#45;&gt;1</title>
<path fill="none" stroke="red" stroke-width="0.213939" d="M1788.57,-67.8449C1785.92,-66.9953 1783.15,-66.2297 1780.5,-65.6985 1622.1,-33.9828 1103.28,-19.4431 982.696,-16.4459"/>
<polygon fill="red" stroke="red" stroke-width="0.213939" points="982.673,-12.9444 972.59,-16.1988 982.502,-19.9423 982.673,-12.9444"/>
</g>
<!-- &#45;24&#45;&gt;2 -->
<g id="edge92" class="edge"><title>&#45;24&#45;&gt;2</title>
<path fill="none" stroke="green" stroke-width="0.366675" d="M1788.58,-67.8046C1785.92,-66.9594 1783.16,-66.2058 1780.5,-65.6985 1595.45,-30.3767 1114.4,-82.2913 933.5,-29.6985 932.438,-29.3896 931.372,-29.0244 930.313,-28.6156"/>
<polygon fill="green" stroke="green" stroke-width="0.366675" points="931.711,-25.402 921.197,-24.097 928.602,-31.6739 931.711,-25.402"/>
</g>
<!-- &#45;25 -->
<g id="node25" class="node"><title>&#45;25</title>
<polygon fill="lightgray" stroke="black" points="76,-83.6985 47,-83.6985 47,-65.6985 76,-65.6985 76,-83.6985"/>
<text text-anchor="middle" x="61.5" y="-72.4985" font-family="Times New Roman,serif" font-size="9.00">&#45;25</text>
</g>
<!-- &#45;25&#45;&gt;0 -->
<g id="edge93" class="edge"><title>&#45;25&#45;&gt;0</title>
<path fill="none" stroke="green" stroke-width="0.448941" d="M76.4236,-67.8164C79.0779,-66.97 81.8436,-66.2128 84.5,-65.6985 248.97,-33.8536 676.76,-76.8914 837.5,-29.6985 838.562,-29.3868 839.626,-29.0193 840.685,-28.6086"/>
<polygon fill="green" stroke="green" stroke-width="0.448941" points="842.399,-31.6651 849.799,-24.0831 839.286,-25.3954 842.399,-31.6651"/>
</g>
<!-- &#45;25&#45;&gt;1 -->
<g id="edge94" class="edge"><title>&#45;25&#45;&gt;1</title>
<path fill="none" stroke="red" stroke-width="0.25838" d="M76.4213,-67.8043C79.0758,-66.9592 81.8422,-66.2057 84.5,-65.6985 269.989,-30.3027 752.169,-82.4062 933.5,-29.6985 934.562,-29.3897 935.628,-29.0245 936.687,-28.6157"/>
<polygon fill="red" stroke="red" stroke-width="0.25838" points="938.398,-31.674 945.803,-24.0972 935.289,-25.4021 938.398,-31.674"/>
</g>
<!-- &#45;25&#45;&gt;2 -->
<g id="edge95" class="edge"><title>&#45;25&#45;&gt;2</title>
<path fill="none" stroke="red" stroke-width="0.16107" d="M76.4223,-67.81C79.0768,-66.9643 81.8429,-66.209 84.5,-65.6985 259.479,-32.0782 714.465,-79.6487 885.5,-29.6985 886.562,-29.3883 887.627,-29.0221 888.686,-28.6124"/>
<polygon fill="red" stroke="red" stroke-width="0.16107" points="890.398,-31.6698 897.802,-24.0906 887.288,-25.3989 890.398,-31.6698"/>
</g>
<!-- &#45;25&#45;&gt;3 -->
<g id="edge96" class="edge"><title>&#45;25&#45;&gt;3</title>
<path fill="none" stroke="green" stroke-width="0.135855" d="M76.4327,-67.8623C79.086,-67.0108 81.849,-66.24 84.5,-65.6985 223.59,-37.2854 676.687,-20.4515 788.422,-16.6677"/>
<polygon fill="green" stroke="green" stroke-width="0.135855" points="788.823,-20.1563 798.7,-16.324 788.589,-13.1602 788.823,-20.1563"/>
</g>
<!-- &#45;26 -->
<g id="node26" class="node"><title>&#45;26</title>
<polygon fill="lightgray" stroke="black" points="123,-83.6985 94,-83.6985 94,-65.6985 123,-65.6985 123,-83.6985"/>
<text text-anchor="middle" x="108.5" y="-72.4985" font-family="Times New Roman,serif" font-size="9.00">&#45;26</text>
</g>
<!-- &#45;26&#45;&gt;0 -->
<g id="edge97" class="edge"><title>&#45;26&#45;&gt;0</title>
<path fill="none" stroke="green" stroke-width="0.100094" d="M123.425,-67.8235C126.079,-66.9763 128.844,-66.217 131.5,-65.6985 439.862,-5.48513 536.18,-118.685 837.5,-29.6985 838.561,-29.3851 839.625,-29.0162 840.683,-28.6044"/>
<polygon fill="green" stroke="green" stroke-width="0.100094" points="842.4,-31.6599 849.797,-24.0748 839.284,-25.3915 842.4,-31.6599"/>
</g>
<!-- &#45;26&#45;&gt;1 -->
<g id="edge98" class="edge"><title>&#45;26&#45;&gt;1</title>
<path fill="none" stroke="green" stroke-width="0.156662" stroke-dasharray="1,5" d="M123.422,-67.8099C126.077,-66.9642 128.843,-66.2089 131.5,-65.6985 306.698,-32.0413 762.25,-79.7061 933.5,-29.6985 934.562,-29.3883 935.627,-29.0221 936.686,-28.6124"/>
<polygon fill="green" stroke="green" stroke-width="0.156662" points="938.398,-31.6699 945.802,-24.0907 935.288,-25.399 938.398,-31.6699"/>
</g>
<!-- &#45;26&#45;&gt;2 -->
<g id="edge99" class="edge"><title>&#45;26&#45;&gt;2</title>
<path fill="none" stroke="red" stroke-width="0.189019" d="M123.424,-67.8163C126.078,-66.9699 128.844,-66.2127 131.5,-65.6985 296.189,-33.8166 724.546,-76.9489 885.5,-29.6985 886.562,-29.3868 887.626,-29.0194 888.685,-28.6087"/>
<polygon fill="red" stroke="red" stroke-width="0.189019" points="890.399,-31.6652 897.799,-24.0833 887.286,-25.3955 890.399,-31.6652"/>
</g>
<!-- &#45;26&#45;&gt;3 -->
<g id="edge100" class="edge"><title>&#45;26&#45;&gt;3</title>
<path fill="none" stroke="red" stroke-width="0.278112" stroke-dasharray="1,5" d="M123.435,-67.8728C126.088,-67.0201 128.85,-66.2462 131.5,-65.6985 383.729,-13.5575 698.258,-13.9903 788.343,-15.3354"/>
<polygon fill="red" stroke="red" stroke-width="0.278112" points="788.365,-18.8362 798.423,-15.5048 788.483,-11.8372 788.365,-18.8362"/>
</g>
<!-- &#45;27 -->
<g id="node27" class="node"><title>&#45;27</title>
<polygon fill="lightgray" stroke="black" points="170,-83.6985 141,-83.6985 141,-65.6985 170,-65.6985 170,-83.6985"/>
<text text-anchor="middle" x="155.5" y="-72.4985" font-family="Times New Roman,serif" font-size="9.00">&#45;27</text>
</g>
<!-- &#45;27&#45;&gt;0 -->
<g id="edge101" class="edge"><title>&#45;27&#45;&gt;0</title>
<path fill="none" stroke="red" stroke-width="0.255128" d="M170.427,-67.8317C173.081,-66.9835 175.845,-66.2219 178.5,-65.6985 466.286,-8.96097 556.337,-113.287 837.5,-29.6985 838.561,-29.3832 839.624,-29.0127 840.682,-28.5996"/>
<polygon fill="red" stroke="red" stroke-width="0.255128" points="842.401,-31.6539 849.794,-24.0654 839.282,-25.387 842.401,-31.6539"/>
</g>
<!-- &#45;27&#45;&gt;1 -->
<g id="edge102" class="edge"><title>&#45;27&#45;&gt;1</title>
<path fill="none" stroke="red" stroke-width="0.220678" d="M170.424,-67.8161C173.078,-66.9697 175.844,-66.2127 178.5,-65.6985 343.408,-33.7797 772.331,-77.0063 933.5,-29.6985 934.562,-29.3869 935.626,-29.0194 936.685,-28.6088"/>
<polygon fill="red" stroke="red" stroke-width="0.220678" points="938.399,-31.6653 945.799,-24.0835 935.286,-25.3956 938.399,-31.6653"/>
</g>
<!-- &#45;27&#45;&gt;2 -->
<g id="edge103" class="edge"><title>&#45;27&#45;&gt;2</title>
<path fill="none" stroke="red" stroke-width="0.308755" d="M170.425,-67.8234C173.079,-66.9762 175.844,-66.2169 178.5,-65.6985 487.299,-5.41117 583.751,-118.8 885.5,-29.6985 886.561,-29.3851 887.625,-29.0163 888.683,-28.6045"/>
<polygon fill="red" stroke="red" stroke-width="0.308755" points="890.4,-31.66 897.797,-24.075 887.284,-25.3915 890.4,-31.66"/>
</g>
<!-- &#45;27&#45;&gt;3 -->
<g id="edge104" class="edge"><title>&#45;27&#45;&gt;3</title>
<path fill="none" stroke="red" stroke-width="0.229401" d="M170.437,-67.8848C173.09,-67.0308 175.852,-66.2534 178.5,-65.6985 411.796,-16.8166 702.413,-14.9105 788.425,-15.5284"/>
<polygon fill="red" stroke="red" stroke-width="0.229401" points="788.502,-19.0292 798.534,-15.6205 788.566,-12.0295 788.502,-19.0292"/>
</g>
<!-- &#45;28 -->
<g id="node28" class="node"><title>&#45;28</title>
<polygon fill="lightgray" stroke="black" points="217,-83.6985 188,-83.6985 188,-65.6985 217,-65.6985 217,-83.6985"/>
<text text-anchor="middle" x="202.5" y="-72.4985" font-family="Times New Roman,serif" font-size="9.00">&#45;28</text>
</g>
<!-- &#45;28&#45;&gt;0 -->
<g id="edge105" class="edge"><title>&#45;28&#45;&gt;0</title>
<path fill="none" stroke="green" stroke-width="0.511" d="M217.428,-67.841C220.082,-66.9919 222.846,-66.2274 225.5,-65.6985 492.714,-12.4362 576.49,-107.89 837.5,-29.6985 838.56,-29.381 839.623,-29.0087 840.68,-28.5941"/>
<polygon fill="green" stroke="green" stroke-width="0.511" points="842.401,-31.6471 849.791,-24.0544 839.279,-25.3818 842.401,-31.6471"/>
</g>
<!-- &#45;28&#45;&gt;1 -->
<g id="edge106" class="edge"><title>&#45;28&#45;&gt;1</title>
<path fill="none" stroke="red" stroke-width="0.209039" d="M217.425,-67.8232C220.079,-66.976 222.844,-66.2168 225.5,-65.6985 534.737,-5.33721 631.322,-118.915 933.5,-29.6985 934.561,-29.3852 935.625,-29.0164 936.684,-28.6046"/>
<polygon fill="red" stroke="red" stroke-width="0.209039" points="938.4,-31.6601 945.797,-24.0752 935.284,-25.3916 938.4,-31.6601"/>
</g>
<!-- &#45;28&#45;&gt;2 -->
<g id="edge107" class="edge"><title>&#45;28&#45;&gt;2</title>
<path fill="none" stroke="red" stroke-width="0.175633" d="M217.427,-67.8315C220.081,-66.9834 222.845,-66.2217 225.5,-65.6985 513.724,-8.88702 603.908,-113.402 885.5,-29.6985 886.561,-29.3832 887.624,-29.0128 888.682,-28.5997"/>
<polygon fill="red" stroke="red" stroke-width="0.175633" points="890.401,-31.6541 897.794,-24.0656 887.282,-25.3871 890.401,-31.6541"/>
</g>
<!-- &#45;28&#45;&gt;3 -->
<g id="edge108" class="edge"><title>&#45;28&#45;&gt;3</title>
<path fill="none" stroke="green" stroke-width="0.299958" d="M217.44,-67.8988C220.093,-67.0432 222.854,-66.2616 225.5,-65.6985 439.619,-20.1377 705.951,-15.9048 788.158,-15.7504"/>
<polygon fill="green" stroke="green" stroke-width="0.299958" points="788.304,-19.2503 798.304,-15.7513 788.305,-12.2503 788.304,-19.2503"/>
</g>
<!-- &#45;29 -->
<g id="node29" class="node"><title>&#45;29</title>
<polygon fill="lightgray" stroke="black" points="264,-83.6985 235,-83.6985 235,-65.6985 264,-65.6985 264,-83.6985"/>
<text text-anchor="middle" x="249.5" y="-72.4985" font-family="Times New Roman,serif" font-size="9.00">&#45;29</text>
</g>
<!-- &#45;29&#45;&gt;0 -->
<g id="edge109" class="edge"><title>&#45;29&#45;&gt;0</title>
<path fill="none" stroke="red" stroke-width="0.49363" d="M264.431,-67.8519C267.084,-67.0016 269.848,-66.2339 272.5,-65.6985 519.145,-15.9105 596.64,-102.494 837.5,-29.6985 838.559,-29.3784 839.622,-29.004 840.678,-28.5877"/>
<polygon fill="red" stroke="red" stroke-width="0.49363" points="842.402,-31.639 849.787,-24.0417 839.276,-25.3758 842.402,-31.639"/>
</g>
<!-- &#45;29&#45;&gt;1 -->
<g id="edge110" class="edge"><title>&#45;29&#45;&gt;1</title>
<path fill="none" stroke="red" stroke-width="0.104187" d="M264.426,-67.8313C267.08,-66.9832 269.845,-66.2216 272.5,-65.6985 561.161,-8.81307 651.479,-113.517 933.5,-29.6985 934.561,-29.3833 935.624,-29.0129 936.682,-28.5998"/>
<polygon fill="red" stroke="red" stroke-width="0.104187" points="938.401,-31.6542 945.794,-24.0658 935.282,-25.3872 938.401,-31.6542"/>
</g>
<!-- &#45;29&#45;&gt;2 -->
<g id="edge111" class="edge"><title>&#45;29&#45;&gt;2</title>
<path fill="none" stroke="green" stroke-width="0.230187" d="M264.428,-67.8408C267.082,-66.9917 269.846,-66.2273 272.5,-65.6985 540.151,-12.3622 624.062,-108.005 885.5,-29.6985 886.56,-29.381 887.623,-29.0088 888.68,-28.5942"/>
<polygon fill="green" stroke="green" stroke-width="0.230187" points="890.401,-31.6472 897.791,-24.0547 887.28,-25.3819 890.401,-31.6472"/>
</g>
<!-- &#45;29&#45;&gt;3 -->
<g id="edge112" class="edge"><title>&#45;29&#45;&gt;3</title>
<path fill="none" stroke="red" stroke-width="0.131071" d="M264.444,-67.9151C267.096,-67.0577 269.856,-66.2713 272.5,-65.6985 467.994,-23.3534 710.853,-16.9568 788.445,-16.0084"/>
<polygon fill="red" stroke="red" stroke-width="0.131071" points="788.705,-19.506 798.669,-15.9044 788.634,-12.5064 788.705,-19.506"/>
</g>
<!-- &#45;30 -->
<g id="node30" class="node"><title>&#45;30</title>
<polygon fill="lightgray" stroke="black" points="311,-83.6985 282,-83.6985 282,-65.6985 311,-65.6985 311,-83.6985"/>
<text text-anchor="middle" x="296.5" y="-72.4985" font-family="Times New Roman,serif" font-size="9.00">&#45;30</text>
</g>
<!-- &#45;30&#45;&gt;0 -->
<g id="edge113" class="edge"><title>&#45;30&#45;&gt;0</title>
<path fill="none" stroke="green" stroke-width="0.138302" d="M311.433,-67.8648C314.086,-67.013 316.849,-66.2415 319.5,-65.6985 545.582,-19.3839 616.784,-97.0995 837.5,-29.6985 838.558,-29.3753 839.62,-28.9985 840.676,-28.5801"/>
<polygon fill="green" stroke="green" stroke-width="0.138302" points="842.404,-31.6296 849.782,-24.0267 839.273,-25.3687 842.404,-31.6296"/>
</g>
<!-- &#45;30&#45;&gt;1 -->
<g id="edge114" class="edge"><title>&#45;30&#45;&gt;1</title>
<path fill="none" stroke="red" stroke-width="0.184855" d="M311.428,-67.8406C314.082,-66.9915 316.846,-66.2271 319.5,-65.6985 587.589,-12.2883 671.633,-108.12 933.5,-29.6985 934.56,-29.3811 935.623,-29.0089 936.68,-28.5944"/>
<polygon fill="red" stroke="red" stroke-width="0.184855" points="938.401,-31.6474 945.791,-24.0549 935.28,-25.382 938.401,-31.6474"/>
</g>
<!-- &#45;30&#45;&gt;2 -->
<g id="edge115" class="edge"><title>&#45;30&#45;&gt;2</title>
<path fill="none" stroke="green" stroke-width="0.174158" d="M311.431,-67.8517C314.084,-67.0013 316.848,-66.2337 319.5,-65.6985 566.583,-15.8366 644.211,-102.609 885.5,-29.6985 886.559,-29.3784 887.622,-29.0041 888.679,-28.5878"/>
<polygon fill="green" stroke="green" stroke-width="0.174158" points="890.402,-31.6392 897.787,-24.042 887.277,-25.3759 890.402,-31.6392"/>
</g>
<!-- &#45;30&#45;&gt;3 -->
<g id="edge116" class="edge"><title>&#45;30&#45;&gt;3</title>
<path fill="none" stroke="red" stroke-width="0.423138" d="M311.448,-67.9344C314.1,-67.0749 316.858,-66.2828 319.5,-65.6985 496.024,-26.6592 714.881,-18.1284 788.223,-16.32"/>
<polygon fill="red" stroke="red" stroke-width="0.423138" points="788.424,-19.8164 798.342,-16.0914 788.266,-12.8182 788.424,-19.8164"/>
</g>
<!-- &#45;31 -->
<g id="node31" class="node"><title>&#45;31</title>
<polygon fill="lightgray" stroke="black" points="1724,-83.6985 1695,-83.6985 1695,-65.6985 1724,-65.6985 1724,-83.6985"/>
<text text-anchor="middle" x="1709.5" y="-72.4985" font-family="Times New Roman,serif" font-size="9.00">&#45;31</text>
</g>
<!-- &#45;31&#45;&gt;0 -->
<g id="edge117" class="edge"><title>&#45;31&#45;&gt;0</title>
<path fill="none" stroke="green" stroke-width="0.319438" d="M1694.58,-67.81C1691.92,-66.9643 1689.16,-66.209 1686.5,-65.6985 1511.52,-32.0782 1056.54,-79.6487 885.5,-29.6985 884.438,-29.3883 883.373,-29.0221 882.314,-28.6124"/>
<polygon fill="green" stroke="green" stroke-width="0.319438" points="883.712,-25.3989 873.198,-24.0906 880.602,-31.6698 883.712,-25.3989"/>
</g>
<!-- &#45;31&#45;&gt;1 -->
<g id="edge118" class="edge"><title>&#45;31&#45;&gt;1</title>
<path fill="none" stroke="green" stroke-width="0.68681" d="M1694.57,-67.8623C1691.91,-67.0108 1689.15,-66.24 1686.5,-65.6985 1547.41,-37.2854 1094.31,-20.4515 982.578,-16.6677"/>
<polygon fill="green" stroke="green" stroke-width="0.68681" points="982.411,-13.1602 972.3,-16.324 982.177,-20.1563 982.411,-13.1602"/>
</g>
<!-- &#45;31&#45;&gt;2 -->
<g id="edge119" class="edge"><title>&#45;31&#45;&gt;2</title>
<path fill="none" stroke="green" stroke-width="0.155316" d="M1694.58,-67.8164C1691.92,-66.97 1689.16,-66.2128 1686.5,-65.6985 1522.03,-33.8536 1094.24,-76.8914 933.5,-29.6985 932.438,-29.3868 931.374,-29.0193 930.315,-28.6086"/>
<polygon fill="green" stroke="green" stroke-width="0.155316" points="931.714,-25.3954 921.201,-24.0831 928.601,-31.6651 931.714,-25.3954"/>
</g>
<!-- &#45;32 -->
<g id="node32" class="node"><title>&#45;32</title>
<polygon fill="lightgray" stroke="black" points="358,-83.6985 329,-83.6985 329,-65.6985 358,-65.6985 358,-83.6985"/>
<text text-anchor="middle" x="343.5" y="-72.4985" font-family="Times New Roman,serif" font-size="9.00">&#45;32</text>
</g>
<!-- &#45;32&#45;&gt;0 -->
<g id="edge120" class="edge"><title>&#45;32&#45;&gt;0</title>
<path fill="none" stroke="green" stroke-width="0.211781" d="M358.436,-67.8802C361.089,-67.0267 363.851,-66.2506 366.5,-65.6985 572.026,-22.8558 636.922,-91.707 837.5,-29.6985 838.557,-29.3717 839.618,-28.9918 840.673,-28.5711"/>
<polygon fill="green" stroke="green" stroke-width="0.211781" points="842.405,-31.6183 849.777,-24.0087 839.269,-25.3602 842.405,-31.6183"/>
</g>
<!-- &#45;32&#45;&gt;1 -->
<g id="edge121" class="edge"><title>&#45;32&#45;&gt;1</title>
<path fill="none" stroke="red" stroke-width="0.147469" d="M358.431,-67.8514C361.084,-67.0011 363.848,-66.2336 366.5,-65.6985 614.021,-15.7627 691.783,-102.724 933.5,-29.6985 934.559,-29.3785 935.622,-29.0042 936.679,-28.588"/>
<polygon fill="red" stroke="red" stroke-width="0.147469" points="938.402,-31.6394 945.787,-24.0423 935.277,-25.376 938.402,-31.6394"/>
</g>
<!-- &#45;32&#45;&gt;2 -->
<g id="edge122" class="edge"><title>&#45;32&#45;&gt;2</title>
<path fill="none" stroke="green" stroke-width="0.396781" d="M358.433,-67.8645C361.086,-67.0127 363.849,-66.2413 366.5,-65.6985 593.02,-19.31 664.356,-97.2143 885.5,-29.6985 886.558,-29.3754 887.62,-28.9986 888.676,-28.5803"/>
<polygon fill="green" stroke="green" stroke-width="0.396781" points="890.404,-31.6298 897.783,-24.0271 887.273,-25.3688 890.404,-31.6298"/>
</g>
<!-- &#45;32&#45;&gt;3 -->
<g id="edge123" class="edge"><title>&#45;32&#45;&gt;3</title>
<path fill="none" stroke="red" stroke-width="0.258803" d="M358.453,-67.9578C361.104,-67.0957 363.861,-66.2966 366.5,-65.6985 524.481,-29.8896 719.955,-19.3818 788.414,-16.6841"/>
<polygon fill="red" stroke="red" stroke-width="0.258803" points="788.775,-20.1732 798.638,-16.3032 788.515,-13.178 788.775,-20.1732"/>
</g>
<!-- &#45;33 -->
<g id="node33" class="node"><title>&#45;33</title>
<polygon fill="lightgray" stroke="black" points="1771,-83.6985 1742,-83.6985 1742,-65.6985 1771,-65.6985 1771,-83.6985"/>
<text text-anchor="middle" x="1756.5" y="-72.4985" font-family="Times New Roman,serif" font-size="9.00">&#45;33</text>
</g>
<!-- &#45;33&#45;&gt;0 -->
<g id="edge124" class="edge"><title>&#45;33&#45;&gt;0</title>
<path fill="none" stroke="red" stroke-width="0.436341" d="M1741.58,-67.8044C1738.92,-66.9593 1736.16,-66.2057 1733.5,-65.6985 1548.23,-30.3397 1066.62,-82.3487 885.5,-29.6985 884.438,-29.3896 883.372,-29.0245 882.313,-28.6156"/>
<polygon fill="red" stroke="red" stroke-width="0.436341" points="883.711,-25.402 873.197,-24.0971 880.602,-31.6739 883.711,-25.402"/>
</g>
<!-- &#45;33&#45;&gt;1 -->
<g id="edge125" class="edge"><title>&#45;33&#45;&gt;1</title>
<path fill="none" stroke="green" stroke-width="0.53168" d="M1741.57,-67.8531C1738.92,-67.0026 1736.15,-66.2346 1733.5,-65.6985 1584.64,-35.6095 1098.04,-19.9048 982.345,-16.5418"/>
<polygon fill="green" stroke="green" stroke-width="0.53168" points="982.426,-13.0428 972.33,-16.2548 982.226,-20.0399 982.426,-13.0428"/>
</g>
<!-- &#45;33&#45;&gt;2 -->
<g id="edge126" class="edge"><title>&#45;33&#45;&gt;2</title>
<path fill="none" stroke="green" stroke-width="0.141968" d="M1741.58,-67.8101C1738.92,-66.9644 1736.16,-66.2091 1733.5,-65.6985 1558.74,-32.1152 1104.32,-79.5912 933.5,-29.6985 932.438,-29.3883 931.373,-29.022 930.314,-28.6123"/>
<polygon fill="green" stroke="green" stroke-width="0.141968" points="931.712,-25.3989 921.199,-24.0905 928.602,-31.6697 931.712,-25.3989"/>
</g>
<!-- &#45;34 -->
<g id="node34" class="node"><title>&#45;34</title>
<polygon fill="lightgray" stroke="black" points="405,-83.6985 376,-83.6985 376,-65.6985 405,-65.6985 405,-83.6985"/>
<text text-anchor="middle" x="390.5" y="-72.4985" font-family="Times New Roman,serif" font-size="9.00">&#45;34</text>
</g>
<!-- &#45;34&#45;&gt;0 -->
<g id="edge127" class="edge"><title>&#45;34&#45;&gt;0</title>
<path fill="none" stroke="red" stroke-width="0.318222" d="M405.44,-67.899C408.093,-67.0434 410.854,-66.2618 413.5,-65.6985 598.479,-26.3259 657.052,-86.3172 837.5,-29.6985 838.556,-29.3672 839.615,-28.9837 840.67,-28.56"/>
<polygon fill="red" stroke="red" stroke-width="0.318222" points="842.407,-31.6045 849.77,-23.9869 839.263,-25.3498 842.407,-31.6045"/>
</g>
<!-- &#45;34&#45;&gt;1 -->
<g id="edge128" class="edge"><title>&#45;34&#45;&gt;1</title>
<path fill="none" stroke="green" stroke-width="0.376184" d="M405.433,-67.8642C408.086,-67.0125 410.849,-66.2411 413.5,-65.6985 640.457,-19.2361 711.927,-97.329 933.5,-29.6985 934.558,-29.3755 935.62,-28.9987 936.676,-28.5805"/>
<polygon fill="green" stroke="green" stroke-width="0.376184" points="938.404,-31.63 945.783,-24.0274 935.273,-25.369 938.404,-31.63"/>
</g>
<!-- &#45;34&#45;&gt;2 -->
<g id="edge129" class="edge"><title>&#45;34&#45;&gt;2</title>
<path fill="none" stroke="red" stroke-width="0.157103" d="M405.436,-67.8799C408.089,-67.0264 410.851,-66.2504 413.5,-65.6985 619.463,-22.782 684.494,-91.8217 885.5,-29.6985 886.557,-29.3718 887.618,-28.992 888.673,-28.5713"/>
<polygon fill="red" stroke="red" stroke-width="0.157103" points="890.405,-31.6185 897.777,-24.0092 887.269,-25.3604 890.405,-31.6185"/>
</g>
<!-- &#45;34&#45;&gt;3 -->
<g id="edge130" class="edge"><title>&#45;34&#45;&gt;3</title>
<path fill="none" stroke="green" stroke-width="0.164631" stroke-dasharray="1,5" d="M405.46,-67.9866C408.11,-67.1212 410.865,-66.3136 413.5,-65.6985 552.686,-33.203 724.381,-20.829 788.124,-17.1535"/>
<polygon fill="green" stroke="green" stroke-width="0.164631" points="788.617,-20.6317 798.408,-16.5831 788.229,-13.6424 788.617,-20.6317"/>
</g>
<!-- &#45;35 -->
<g id="node35" class="node"><title>&#45;35</title>
<polygon fill="lightgray" stroke="black" points="452,-83.6985 423,-83.6985 423,-65.6985 452,-65.6985 452,-83.6985"/>
<text text-anchor="middle" x="437.5" y="-72.4985" font-family="Times New Roman,serif" font-size="9.00">&#45;35</text>
</g>
<!-- &#45;35&#45;&gt;0 -->
<g id="edge131" class="edge"><title>&#45;35&#45;&gt;0</title>
<path fill="none" stroke="green" stroke-width="0.481517" d="M452.445,-67.9225C455.097,-67.0643 457.857,-66.2757 460.5,-65.6985 624.944,-29.7934 677.169,-80.9312 837.5,-29.6985 838.554,-29.3617 839.612,-28.9736 840.666,-28.5463"/>
<polygon fill="green" stroke="green" stroke-width="0.481517" points="842.408,-31.5873 849.761,-23.9596 839.257,-25.337 842.408,-31.5873"/>
</g>
<!-- &#45;35&#45;&gt;1 -->
<g id="edge132" class="edge"><title>&#45;35&#45;&gt;1</title>
<path fill="none" stroke="red" stroke-width="0.211901" d="M452.436,-67.8795C455.089,-67.0261 457.851,-66.2502 460.5,-65.6985 666.901,-22.7081 732.066,-91.9364 933.5,-29.6985 934.557,-29.3719 935.618,-28.9921 936.674,-28.5715"/>
<polygon fill="red" stroke="red" stroke-width="0.211901" points="938.405,-31.6188 945.777,-24.0096 935.269,-25.3606 938.405,-31.6188"/>
</g>
<!-- &#45;35&#45;&gt;2 -->
<g id="edge133" class="edge"><title>&#45;35&#45;&gt;2</title>
<path fill="none" stroke="red" stroke-width="0.184316" d="M452.44,-67.8986C455.093,-67.043 457.853,-66.2615 460.5,-65.6985 645.916,-26.2521 704.623,-86.4319 885.5,-29.6985 886.556,-29.3673 887.615,-28.9839 888.67,-28.5603"/>
<polygon fill="red" stroke="red" stroke-width="0.184316" points="890.406,-31.6048 897.77,-23.9874 887.263,-25.3501 890.406,-31.6048"/>
</g>
<!-- &#45;35&#45;&gt;3 -->
<g id="edge134" class="edge"><title>&#45;35&#45;&gt;3</title>
<path fill="none" stroke="red" stroke-width="0.321989" d="M452.469,-68.0228C455.118,-67.1534 457.87,-66.3351 460.5,-65.6985 581.438,-36.4216 730.132,-22.3847 788.401,-17.7072"/>
<polygon fill="red" stroke="red" stroke-width="0.321989" points="788.811,-21.1858 798.508,-16.9178 788.266,-14.2071 788.811,-21.1858"/>
</g>
<!-- &#45;36 -->
<g id="node36" class="node"><title>&#45;36</title>
<polygon fill="lightgray" stroke="black" points="499,-83.6985 470,-83.6985 470,-65.6985 499,-65.6985 499,-83.6985"/>
<text text-anchor="middle" x="484.5" y="-72.4985" font-family="Times New Roman,serif" font-size="9.00">&#45;36</text>
</g>
<!-- &#45;36&#45;&gt;0 -->
<g id="edge135" class="edge"><title>&#45;36&#45;&gt;0</title>
<path fill="none" stroke="green" stroke-width="0.170648" d="M499.452,-67.9525C502.103,-67.0909 504.86,-66.2934 507.5,-65.6985 651.426,-33.257 697.269,-75.5506 837.5,-29.6985 838.38,-29.4107 839.264,-29.0879 840.145,-28.7369"/>
<polygon fill="green" stroke="green" stroke-width="0.170648" points="841.856,-31.7954 849.257,-24.2143 838.743,-25.5253 841.856,-31.7954"/>
</g>
<!-- &#45;36&#45;&gt;1 -->
<g id="edge136" class="edge"><title>&#45;36&#45;&gt;1</title>
<path fill="none" stroke="green" stroke-width="0.394366" d="M499.44,-67.8982C502.093,-67.0426 504.853,-66.2613 507.5,-65.6985 693.353,-26.1783 752.195,-86.5465 933.5,-29.6985 934.556,-29.3675 935.616,-28.9841 936.67,-28.5605"/>
<polygon fill="green" stroke="green" stroke-width="0.394366" points="938.406,-31.6051 945.77,-23.9879 935.264,-25.3503 938.406,-31.6051"/>
</g>
<!-- &#45;36&#45;&gt;2 -->
<g id="edge137" class="edge"><title>&#45;36&#45;&gt;2</title>
<path fill="none" stroke="green" stroke-width="0.424503" d="M499.445,-67.9219C502.097,-67.0638 504.856,-66.2753 507.5,-65.6985 672.38,-29.7196 724.741,-81.0457 885.5,-29.6985 886.554,-29.3618 887.612,-28.9739 888.666,-28.5466"/>
<polygon fill="green" stroke="green" stroke-width="0.424503" points="890.408,-31.5877 897.762,-23.9602 887.257,-25.3373 890.408,-31.5877"/>
</g>
<!-- &#45;36&#45;&gt;3 -->
<g id="edge138" class="edge"><title>&#45;36&#45;&gt;3</title>
<path fill="none" stroke="red" stroke-width="0.277832" d="M499.48,-68.0698C502.128,-67.1952 504.877,-66.3629 507.5,-65.6985 610.283,-39.6603 736.071,-24.178 788.601,-18.4238"/>
<polygon fill="red" stroke="red" stroke-width="0.277832" points="789.095,-21.891 798.664,-17.3433 788.348,-14.931 789.095,-21.891"/>
</g>
<!-- &#45;37 -->
<g id="node37" class="node"><title>&#45;37</title>
<polygon fill="lightgray" stroke="black" points="546,-83.6985 517,-83.6985 517,-65.6985 546,-65.6985 546,-83.6985"/>
<text text-anchor="middle" x="531.5" y="-72.4985" font-family="Times New Roman,serif" font-size="9.00">&#45;37</text>
</g>
<!-- &#45;37&#45;&gt;0 -->
<g id="edge139" class="edge"><title>&#45;37&#45;&gt;0</title>
<path fill="none" stroke="red" stroke-width="0.10437" d="M546.461,-67.9922C549.111,-67.1263 551.866,-66.317 554.5,-65.6985 677.934,-36.7148 717.344,-70.1783 837.5,-29.6985 838.378,-29.4028 839.259,-29.0733 840.138,-28.7168"/>
<polygon fill="red" stroke="red" stroke-width="0.10437" points="841.861,-31.7689 849.241,-24.1679 838.731,-25.5072 841.861,-31.7689"/>
</g>
<!-- &#45;37&#45;&gt;1 -->
<g id="edge140" class="edge"><title>&#45;37&#45;&gt;1</title>
<path fill="none" stroke="green" stroke-width="0.414188" d="M546.445,-67.9214C549.097,-67.0633 551.856,-66.275 554.5,-65.6985 719.817,-29.6459 772.313,-81.1603 933.5,-29.6985 934.554,-29.362 935.612,-28.9741 936.666,-28.5469"/>
<polygon fill="green" stroke="green" stroke-width="0.414188" points="938.408,-31.5881 945.762,-23.9609 935.257,-25.3376 938.408,-31.5881"/>
</g>
<!-- &#45;37&#45;&gt;2 -->
<g id="edge141" class="edge"><title>&#45;37&#45;&gt;2</title>
<path fill="none" stroke="green" stroke-width="0.595311" d="M546.452,-67.9517C549.103,-67.0903 551.86,-66.293 554.5,-65.6985 698.862,-33.1834 744.842,-75.665 885.5,-29.6985 886.38,-29.4108 887.264,-29.0881 888.145,-28.7373"/>
<polygon fill="green" stroke="green" stroke-width="0.595311" points="889.855,-31.7959 897.257,-24.2151 886.744,-25.5256 889.855,-31.7959"/>
</g>
<!-- &#45;37&#45;&gt;3 -->
<g id="edge142" class="edge"><title>&#45;37&#45;&gt;3</title>
<path fill="none" stroke="red" stroke-width="0.513991" d="M546.002,-68.2987C548.799,-67.3584 551.724,-66.4443 554.5,-65.6985 639.247,-42.9324 742.251,-26.3167 788.688,-19.4007"/>
<polygon fill="red" stroke="red" stroke-width="0.513991" points="789.342,-22.8423 798.727,-17.9262 788.325,-15.9166 789.342,-22.8423"/>
</g>
<!-- &#45;38 -->
<g id="node38" class="node"><title>&#45;38</title>
<polygon fill="lightgray" stroke="black" points="593,-83.6985 564,-83.6985 564,-65.6985 593,-65.6985 593,-83.6985"/>
<text text-anchor="middle" x="578.5" y="-72.4985" font-family="Times New Roman,serif" font-size="9.00">&#45;38</text>
</g>
<!-- &#45;38&#45;&gt;0 -->
<g id="edge143" class="edge"><title>&#45;38&#45;&gt;0</title>
<path fill="none" stroke="green" stroke-width="0.278409" d="M593.475,-68.0474C596.123,-67.1753 598.874,-66.3497 601.5,-65.6985 704.484,-40.1629 737.379,-64.8195 837.5,-29.6985 838.374,-29.392 839.252,-29.0532 840.129,-28.6888"/>
<polygon fill="green" stroke="green" stroke-width="0.278409" points="841.867,-31.7322 849.219,-24.1037 838.714,-25.4822 841.867,-31.7322"/>
</g>
<!-- &#45;38&#45;&gt;1 -->
<g id="edge144" class="edge"><title>&#45;38&#45;&gt;1</title>
<path fill="none" stroke="green" stroke-width="0.206065" d="M593.452,-67.951C596.103,-67.0896 598.86,-66.2926 601.5,-65.6985 746.299,-33.1097 792.414,-75.7794 933.5,-29.6985 934.38,-29.411 935.264,-29.0884 936.145,-28.7376"/>
<polygon fill="green" stroke="green" stroke-width="0.206065" points="937.855,-31.7964 945.257,-24.216 934.744,-25.526 937.855,-31.7964"/>
</g>
<!-- &#45;38&#45;&gt;2 -->
<g id="edge145" class="edge"><title>&#45;38&#45;&gt;2</title>
<path fill="none" stroke="green" stroke-width="0.333084" d="M593.461,-67.9912C596.111,-67.1254 598.866,-66.3164 601.5,-65.6985 725.37,-36.6413 764.917,-70.2925 885.5,-29.6985 886.378,-29.403 887.259,-29.0737 888.139,-28.7173"/>
<polygon fill="green" stroke="green" stroke-width="0.333084" points="889.86,-31.7696 897.242,-24.1691 886.732,-25.5076 889.86,-31.7696"/>
</g>
<!-- &#45;38&#45;&gt;3 -->
<g id="edge146" class="edge"><title>&#45;38&#45;&gt;3</title>
<path fill="none" stroke="green" stroke-width="0.165458" stroke-dasharray="1,5" d="M593.027,-68.3901C595.823,-67.4413 598.739,-66.5008 601.5,-65.6985 668.681,-46.1736 749.501,-28.8309 789.147,-20.7162"/>
<polygon fill="green" stroke="green" stroke-width="0.165458" points="789.867,-24.1415 798.971,-18.7224 788.474,-17.2814 789.867,-24.1415"/>
</g>
<!-- &#45;39 -->
<g id="node39" class="node"><title>&#45;39</title>
<polygon fill="lightgray" stroke="black" points="640,-83.6985 611,-83.6985 611,-65.6985 640,-65.6985 640,-83.6985"/>
<text text-anchor="middle" x="625.5" y="-72.4985" font-family="Times New Roman,serif" font-size="9.00">&#45;39</text>
</g>
<!-- &#45;39&#45;&gt;0 -->
<g id="edge147" class="edge"><title>&#45;39&#45;&gt;0</title>
<path fill="none" stroke="green" stroke-width="0.347604" d="M640.001,-68.2944C642.798,-67.3545 645.723,-66.4417 648.5,-65.6985 731.104,-43.5933 757.345,-59.485 837.5,-29.6985 838.368,-29.3759 839.241,-29.0235 840.114,-28.6477"/>
<polygon fill="green" stroke="green" stroke-width="0.347604" points="841.875,-31.6781 849.185,-24.0089 838.688,-25.4458 841.875,-31.6781"/>
</g>
<!-- &#45;39&#45;&gt;1 -->
<g id="edge148" class="edge"><title>&#45;39&#45;&gt;1</title>
<path fill="none" stroke="red" stroke-width="0.720165" stroke-dasharray="1,5" d="M640.461,-67.9903C643.111,-67.1245 645.866,-66.3158 648.5,-65.6985 772.805,-36.5678 812.491,-70.4067 933.5,-29.6985 934.378,-29.4032 935.259,-29.074 936.139,-28.7177"/>
<polygon fill="red" stroke="red" stroke-width="0.720165" points="937.86,-31.7702 945.242,-24.1702 934.732,-25.5081 937.86,-31.7702"/>
</g>
<!-- &#45;39&#45;&gt;2 -->
<g id="edge149" class="edge"><title>&#45;39&#45;&gt;2</title>
<path fill="none" stroke="red" stroke-width="0.454867" d="M640.474,-68.046C643.123,-67.174 645.874,-66.3488 648.5,-65.6985 751.918,-40.0896 784.953,-64.9333 885.5,-29.6985 886.374,-29.3922 887.252,-29.0537 888.129,-28.6895"/>
<polygon fill="red" stroke="red" stroke-width="0.454867" points="889.867,-31.7331 897.22,-24.1053 886.715,-25.4829 889.867,-31.7331"/>
</g>
<!-- &#45;39&#45;&gt;3 -->
<g id="edge150" class="edge"><title>&#45;39&#45;&gt;3</title>
<path fill="none" stroke="green" stroke-width="0.282808" d="M640.07,-68.5289C642.861,-67.5674 645.766,-66.5866 648.5,-65.6985 698.362,-49.5024 757.254,-32.1275 789.464,-22.7726"/>
<polygon fill="green" stroke="green" stroke-width="0.282808" points="790.681,-26.0641 799.313,-19.9208 788.734,-19.3403 790.681,-26.0641"/>
</g>
<!-- &#45;40 -->
<g id="node40" class="node"><title>&#45;40</title>
<polygon fill="lightgray" stroke="black" points="687,-83.6985 658,-83.6985 658,-65.6985 687,-65.6985 687,-83.6985"/>
<text text-anchor="middle" x="672.5" y="-72.4985" font-family="Times New Roman,serif" font-size="9.00">&#45;40</text>
</g>
<!-- &#45;40&#45;&gt;0 -->
<g id="edge151" class="edge"><title>&#45;40&#45;&gt;0</title>
<path fill="none" stroke="green" stroke-width="0.221341" d="M687.171,-68.623C690.24,-67.6131 693.466,-66.5902 696.5,-65.6985 758.552,-47.4604 777.598,-54.089 837.5,-29.6985 838.358,-29.3493 839.222,-28.9742 840.087,-28.5793"/>
<polygon fill="green" stroke="green" stroke-width="0.221341" points="841.886,-31.5885 849.124,-23.8515 838.641,-25.3861 841.886,-31.5885"/>
</g>
<!-- &#45;40&#45;&gt;1 -->
<g id="edge152" class="edge"><title>&#45;40&#45;&gt;1</title>
<path fill="none" stroke="green" stroke-width="0.17991" d="M687.108,-68.3881C690.182,-67.3953 693.426,-66.4386 696.5,-65.6985 800.082,-40.7617 832.953,-64.9333 933.5,-29.6985 934.374,-29.3922 935.252,-29.0537 936.129,-28.6895"/>
<polygon fill="green" stroke="green" stroke-width="0.17991" points="937.867,-31.7331 945.22,-24.1053 934.715,-25.4829 937.867,-31.7331"/>
</g>
<!-- &#45;40&#45;&gt;2 -->
<g id="edge153" class="edge"><title>&#45;40&#45;&gt;2</title>
<path fill="none" stroke="green" stroke-width="0.368729" d="M687.13,-68.4771C690.203,-67.4779 693.44,-66.4961 696.5,-65.6985 779.245,-44.1301 805.345,-59.485 885.5,-29.6985 886.368,-29.3759 887.241,-29.0235 888.114,-28.6477"/>
<polygon fill="green" stroke="green" stroke-width="0.368729" points="889.875,-31.6781 897.185,-24.0089 886.688,-25.4458 889.875,-31.6781"/>
</g>
<!-- &#45;40&#45;&gt;3 -->
<g id="edge154" class="edge"><title>&#45;40&#45;&gt;3</title>
<path fill="none" stroke="red" stroke-width="0.154076" d="M687.058,-67.7255C711.605,-57.6544 761.405,-37.2227 790.647,-25.2252"/>
<polygon fill="red" stroke="red" stroke-width="0.154076" points="792.135,-28.398 800.058,-21.3641 789.478,-21.9219 792.135,-28.398"/>
</g>
</g>
</svg>
