<?xml version="1.0" encoding="UTF-8" standalone="no"?>
<!DOCTYPE svg PUBLIC "-//W3C//DTD SVG 1.1//EN"
 "http://www.w3.org/Graphics/SVG/1.1/DTD/svg11.dtd">
<!-- Generated by graphviz version 2.38.0 (20140413.2041)
 -->
<!-- Title: %3 Pages: 1 -->
<svg width="1828pt" height="92pt"
 viewBox="0.00 0.00 1828.00 91.70" xmlns="http://www.w3.org/2000/svg" xmlns:xlink="http://www.w3.org/1999/xlink">
<g id="graph0" class="graph" transform="scale(1 1) rotate(0) translate(4 87.6985)">
<title>%3</title>
<polygon fill="white" stroke="none" points="-4,4 -4,-87.6985 1824,-87.6985 1824,4 -4,4"/>
<!-- &#45;1 -->
<g id="node1" class="node"><title>&#45;1</title>
<polygon fill="lightgray" stroke="black" points="537.5,-83.6985 513.5,-83.6985 513.5,-65.6985 537.5,-65.6985 537.5,-83.6985"/>
<text text-anchor="middle" x="525.5" y="-72.4985" font-family="Times New Roman,serif" font-size="9.00">&#45;1</text>
</g>
<!-- 0 -->
<g id="node41" class="node"><title>0</title>
<ellipse fill="lightblue" stroke="black" cx="868.5" cy="-14.8492" rx="14.7" ry="14.7"/>
<text text-anchor="middle" x="868.5" y="-12.6492" font-family="Times New Roman,serif" font-size="9.00">0</text>
</g>
<!-- &#45;1&#45;&gt;0 -->
<g id="edge1" class="edge"><title>&#45;1&#45;&gt;0</title>
<path fill="none" stroke="red" stroke-width="0.200484" d="M537.777,-68.4494C540.601,-67.4032 543.621,-66.4093 546.5,-65.6985 676.017,-33.715 717.941,-71.8917 844.5,-29.6985 845.379,-29.4056 846.261,-29.0785 847.141,-28.7239"/>
<polygon fill="red" stroke="red" stroke-width="0.200484" points="848.859,-31.7782 856.247,-24.1843 845.736,-25.5136 848.859,-31.7782"/>
</g>
<!-- 1 -->
<g id="node42" class="node"><title>1</title>
<ellipse fill="lightblue" stroke="black" cx="964.5" cy="-14.8492" rx="14.7" ry="14.7"/>
<text text-anchor="middle" x="964.5" y="-12.6492" font-family="Times New Roman,serif" font-size="9.00">1</text>
</g>
<!-- &#45;1&#45;&gt;1 -->
<g id="edge2" class="edge"><title>&#45;1&#45;&gt;1</title>
<path fill="none" stroke="green" stroke-width="0.147979" d="M537.762,-68.3871C540.587,-67.3442 543.611,-66.3674 546.5,-65.6985 717.808,-26.0307 772.894,-82.8788 940.5,-29.6985 941.555,-29.3639 942.613,-28.9776 943.667,-28.5516"/>
<polygon fill="green" stroke="green" stroke-width="0.147979" points="945.408,-31.594 952.765,-23.9702 942.259,-25.342 945.408,-31.594"/>
</g>
<!-- 2 -->
<g id="node43" class="node"><title>2</title>
<ellipse fill="lightblue" stroke="black" cx="820.5" cy="-14.8492" rx="14.7" ry="14.7"/>
<text text-anchor="middle" x="820.5" y="-12.6492" font-family="Times New Roman,serif" font-size="9.00">2</text>
</g>
<!-- &#45;1&#45;&gt;2 -->
<g id="edge3" class="edge"><title>&#45;1&#45;&gt;2</title>
<path fill="none" stroke="red" stroke-width="0.129814" d="M537.81,-68.5764C540.633,-67.5237 543.644,-66.495 546.5,-65.6985 636.588,-40.5747 746.969,-24.9576 795.543,-18.8245"/>
<polygon fill="red" stroke="red" stroke-width="0.129814" points="796.236,-22.2656 805.73,-17.564 795.376,-15.3186 796.236,-22.2656"/>
</g>
<!-- 3 -->
<g id="node44" class="node"><title>3</title>
<ellipse fill="lightblue" stroke="black" cx="916.5" cy="-14.8492" rx="14.7" ry="14.7"/>
<text text-anchor="middle" x="916.5" y="-12.6492" font-family="Times New Roman,serif" font-size="9.00">3</text>
</g>
<!-- &#45;1&#45;&gt;3 -->
<g id="edge4" class="edge"><title>&#45;1&#45;&gt;3</title>
<path fill="none" stroke="red" stroke-width="0.17302" d="M537.768,-68.414C540.593,-67.3697 543.616,-66.3855 546.5,-65.6985 696.901,-29.8757 745.429,-77.3815 892.5,-29.6985 893.553,-29.3572 894.61,-28.9655 895.662,-28.5352"/>
<polygon fill="red" stroke="red" stroke-width="0.17302" points="897.41,-31.5735 904.754,-23.9376 894.251,-25.3267 897.41,-31.5735"/>
</g>
<!-- &#45;2 -->
<g id="node2" class="node"><title>&#45;2</title>
<polygon fill="lightgray" stroke="black" points="579.5,-83.6985 555.5,-83.6985 555.5,-65.6985 579.5,-65.6985 579.5,-83.6985"/>
<text text-anchor="middle" x="567.5" y="-72.4985" font-family="Times New Roman,serif" font-size="9.00">&#45;2</text>
</g>
<!-- &#45;2&#45;&gt;0 -->
<g id="edge5" class="edge"><title>&#45;2&#45;&gt;0</title>
<path fill="none" stroke="red" stroke-width="0.186254" d="M579.787,-68.4909C582.611,-67.4426 585.628,-66.4374 588.5,-65.6985 699.773,-37.0672 735.86,-67.0977 844.5,-29.6985 845.376,-29.3971 846.255,-29.0627 847.133,-28.7019"/>
<polygon fill="red" stroke="red" stroke-width="0.186254" points="848.864,-31.7494 856.23,-24.1338 845.723,-25.4939 848.864,-31.7494"/>
</g>
<!-- &#45;2&#45;&gt;1 -->
<g id="edge6" class="edge"><title>&#45;2&#45;&gt;1</title>
<path fill="none" stroke="red" stroke-width="0.481327" d="M579.768,-68.4103C582.592,-67.3661 585.615,-66.383 588.5,-65.6985 741.513,-29.3953 790.863,-78.0684 940.5,-29.6985 941.553,-29.3582 942.61,-28.9672 943.663,-28.5375"/>
<polygon fill="red" stroke="red" stroke-width="0.481327" points="945.409,-31.5764 952.756,-23.9422 942.252,-25.3288 945.409,-31.5764"/>
</g>
<!-- &#45;2&#45;&gt;2 -->
<g id="edge7" class="edge"><title>&#45;2&#45;&gt;2</title>
<path fill="none" stroke="green" stroke-width="0.219483" d="M579.83,-68.6434C582.651,-67.5871 585.657,-66.5401 588.5,-65.6985 662.814,-43.6991 753.191,-27.1131 795.893,-19.8644"/>
<polygon fill="green" stroke="green" stroke-width="0.219483" points="796.633,-23.2893 805.918,-18.1863 795.478,-16.3853 796.633,-23.2893"/>
</g>
<!-- &#45;2&#45;&gt;3 -->
<g id="edge8" class="edge"><title>&#45;2&#45;&gt;3</title>
<path fill="none" stroke="green" stroke-width="0.280045" stroke-dasharray="1,5" d="M579.776,-68.4444C582.6,-67.3984 585.621,-66.406 588.5,-65.6985 720.626,-33.2355 763.378,-72.5774 892.5,-29.6985 893.379,-29.4066 894.261,-29.0804 895.142,-28.7265"/>
<polygon fill="green" stroke="green" stroke-width="0.280045" points="896.858,-31.7817 904.249,-24.1904 893.737,-25.5159 896.858,-31.7817"/>
</g>
<!-- &#45;3 -->
<g id="node3" class="node"><title>&#45;3</title>
<polygon fill="lightgray" stroke="black" points="621.5,-83.6985 597.5,-83.6985 597.5,-65.6985 621.5,-65.6985 621.5,-83.6985"/>
<text text-anchor="middle" x="609.5" y="-72.4985" font-family="Times New Roman,serif" font-size="9.00">&#45;3</text>
</g>
<!-- &#45;3&#45;&gt;0 -->
<g id="edge9" class="edge"><title>&#45;3&#45;&gt;0</title>
<path fill="none" stroke="red" stroke-width="0.889061" d="M621.803,-68.5482C624.625,-67.4969 627.639,-66.476 630.5,-65.6985 723.573,-40.4081 753.736,-62.3185 844.5,-29.6985 845.371,-29.3853 846.248,-29.0409 847.123,-28.6717"/>
<polygon fill="red" stroke="red" stroke-width="0.889061" points="848.871,-31.7097 856.205,-24.0643 845.704,-25.467 848.871,-31.7097"/>
</g>
<!-- &#45;3&#45;&gt;1 -->
<g id="edge10" class="edge"><title>&#45;3&#45;&gt;1</title>
<path fill="none" stroke="red" stroke-width="0.330354" d="M621.775,-68.4395C624.599,-67.3939 627.62,-66.4027 630.5,-65.6985 765.235,-32.7559 808.815,-73.2633 940.5,-29.6985 941.379,-29.4076 942.262,-29.0822 943.143,-28.7291"/>
<polygon fill="red" stroke="red" stroke-width="0.330354" points="944.858,-31.7851 952.251,-24.1962 941.739,-25.5182 944.858,-31.7851"/>
</g>
<!-- &#45;3&#45;&gt;2 -->
<g id="edge11" class="edge"><title>&#45;3&#45;&gt;2</title>
<path fill="none" stroke="red" stroke-width="0.321586" d="M621.859,-68.7378C624.679,-67.6767 627.677,-66.6038 630.5,-65.6985 689.065,-46.9204 759.408,-29.8605 795.87,-21.4171"/>
<polygon fill="red" stroke="red" stroke-width="0.321586" points="797.084,-24.7295 806.048,-19.081 795.518,-17.9069 797.084,-24.7295"/>
</g>
<!-- &#45;3&#45;&gt;3 -->
<g id="edge12" class="edge"><title>&#45;3&#45;&gt;3</title>
<path fill="none" stroke="green" stroke-width="0.126123" d="M621.786,-68.4842C624.609,-67.4362 627.627,-66.4328 630.5,-65.6985 744.377,-36.5889 781.302,-67.7818 892.5,-29.6985 893.376,-29.3984 894.256,-29.0652 895.135,-28.7055"/>
<polygon fill="green" stroke="green" stroke-width="0.126123" points="896.863,-31.7541 904.233,-24.142 893.725,-25.4971 896.863,-31.7541"/>
</g>
<!-- &#45;4 -->
<g id="node4" class="node"><title>&#45;4</title>
<polygon fill="lightgray" stroke="black" points="663.5,-83.6985 639.5,-83.6985 639.5,-65.6985 663.5,-65.6985 663.5,-83.6985"/>
<text text-anchor="middle" x="651.5" y="-72.4985" font-family="Times New Roman,serif" font-size="9.00">&#45;4</text>
</g>
<!-- &#45;4&#45;&gt;0 -->
<g id="edge13" class="edge"><title>&#45;4&#45;&gt;0</title>
<path fill="none" stroke="green" stroke-width="0.197929" d="M663.826,-68.6322C666.648,-67.5765 669.655,-66.5326 672.5,-65.6985 747.447,-43.7285 771.54,-57.5656 844.5,-29.6985 845.365,-29.3681 846.236,-29.009 847.106,-28.6275"/>
<polygon fill="green" stroke="green" stroke-width="0.197929" points="848.879,-31.6517 856.168,-23.9626 845.675,-25.4281 848.879,-31.6517"/>
</g>
<!-- &#45;4&#45;&gt;1 -->
<g id="edge14" class="edge"><title>&#45;4&#45;&gt;1</title>
<path fill="none" stroke="green" stroke-width="0.439759" d="M663.784,-68.4778C666.608,-67.4301 669.626,-66.4285 672.5,-65.6985 788.982,-36.1104 826.744,-68.4662 940.5,-29.6985 941.377,-29.3998 942.257,-29.0677 943.136,-28.7089"/>
<polygon fill="green" stroke="green" stroke-width="0.439759" points="944.862,-31.7585 952.235,-24.1498 941.727,-25.5001 944.862,-31.7585"/>
</g>
<!-- &#45;4&#45;&gt;2 -->
<g id="edge15" class="edge"><title>&#45;4&#45;&gt;2</title>
<path fill="none" stroke="red" stroke-width="0.337416" d="M663.907,-68.88C666.724,-67.8115 669.709,-66.6997 672.5,-65.6985 716.14,-50.0435 767.515,-33.0608 796.82,-23.509"/>
<polygon fill="red" stroke="red" stroke-width="0.337416" points="798.134,-26.7621 806.562,-20.3424 795.97,-20.1049 798.134,-26.7621"/>
</g>
<!-- &#45;4&#45;&gt;3 -->
<g id="edge16" class="edge"><title>&#45;4&#45;&gt;3</title>
<path fill="none" stroke="green" stroke-width="0.459211" d="M663.8,-68.5388C666.623,-67.4879 669.637,-66.4696 672.5,-65.6985 768.169,-39.9318 799.186,-63 892.5,-29.6985 893.372,-29.3872 894.249,-29.0445 895.125,-28.6767"/>
<polygon fill="green" stroke="green" stroke-width="0.459211" points="896.87,-31.7163 904.209,-24.0758 893.707,-25.4715 896.87,-31.7163"/>
</g>
<!-- &#45;5 -->
<g id="node5" class="node"><title>&#45;5</title>
<polygon fill="lightgray" stroke="black" points="705.5,-83.6985 681.5,-83.6985 681.5,-65.6985 705.5,-65.6985 705.5,-83.6985"/>
<text text-anchor="middle" x="693.5" y="-72.4985" font-family="Times New Roman,serif" font-size="9.00">&#45;5</text>
</g>
<!-- &#45;5&#45;&gt;0 -->
<g id="edge17" class="edge"><title>&#45;5&#45;&gt;0</title>
<path fill="none" stroke="red" stroke-width="0.305761" stroke-dasharray="1,5" d="M705.868,-68.7662C708.687,-67.7036 711.683,-66.6229 714.5,-65.6985 771.464,-47.0066 789.205,-52.8662 844.5,-29.6985 845.354,-29.3406 846.215,-28.9583 847.078,-28.5571"/>
<polygon fill="red" stroke="red" stroke-width="0.305761" points="848.888,-31.5596 856.103,-23.8005 845.624,-25.3671 848.888,-31.5596"/>
</g>
<!-- &#45;5&#45;&gt;1 -->
<g id="edge18" class="edge"><title>&#45;5&#45;&gt;1</title>
<path fill="none" stroke="green" stroke-width="0.22122" d="M705.798,-68.5298C708.621,-67.4794 711.635,-66.4635 714.5,-65.6985 812.767,-39.4551 844.634,-63.6819 940.5,-29.6985 941.373,-29.3891 942.25,-29.0479 943.126,-28.6815"/>
<polygon fill="green" stroke="green" stroke-width="0.22122" points="944.869,-31.7225 952.213,-24.0867 941.71,-25.4757 944.869,-31.7225"/>
</g>
<!-- &#45;5&#45;&gt;2 -->
<g id="edge19" class="edge"><title>&#45;5&#45;&gt;2</title>
<path fill="none" stroke="green" stroke-width="0.112923" d="M705.677,-68.1517C726.817,-58.5224 770.623,-38.5687 797.597,-26.2816"/>
<polygon fill="green" stroke="green" stroke-width="0.112923" points="799.379,-29.3158 807.029,-21.9854 796.478,-22.9456 799.379,-29.3158"/>
</g>
<!-- &#45;5&#45;&gt;3 -->
<g id="edge20" class="edge"><title>&#45;5&#45;&gt;3</title>
<path fill="none" stroke="green" stroke-width="0.477505" d="M705.822,-68.6179C708.644,-67.5629 711.652,-66.5229 714.5,-65.6985 792.03,-43.256 817.003,-58.2422 892.5,-29.6985 893.366,-29.371 894.238,-29.0144 895.109,-28.6351"/>
<polygon fill="green" stroke="green" stroke-width="0.477505" points="896.877,-31.6616 904.174,-23.9799 893.68,-25.4347 896.877,-31.6616"/>
</g>
<!-- &#45;6 -->
<g id="node6" class="node"><title>&#45;6</title>
<polygon fill="lightgray" stroke="black" points="118.5,-83.6985 94.5,-83.6985 94.5,-65.6985 118.5,-65.6985 118.5,-83.6985"/>
<text text-anchor="middle" x="106.5" y="-72.4985" font-family="Times New Roman,serif" font-size="9.00">&#45;6</text>
</g>
<!-- &#45;6&#45;&gt;0 -->
<g id="edge21" class="edge"><title>&#45;6&#45;&gt;0</title>
<path fill="none" stroke="red" stroke-width="0.453752" d="M118.743,-68.2992C121.569,-67.2608 124.598,-66.3081 127.5,-65.6985 439.752,-0.0992567 538.462,-119.949 844.5,-29.6985 845.561,-29.3855 846.626,-29.017 847.684,-28.6054"/>
<polygon fill="red" stroke="red" stroke-width="0.453752" points="849.4,-31.6612 856.797,-24.0769 846.285,-25.3924 849.4,-31.6612"/>
</g>
<!-- &#45;6&#45;&gt;1 -->
<g id="edge22" class="edge"><title>&#45;6&#45;&gt;1</title>
<path fill="none" stroke="green" stroke-width="0.246157" d="M118.74,-68.2865C121.566,-67.2488 124.596,-66.2995 127.5,-65.6985 304.59,-29.0413 766.891,-80.338 940.5,-29.6985 941.562,-29.3887 942.627,-29.0227 943.686,-28.6132"/>
<polygon fill="green" stroke="green" stroke-width="0.246157" points="945.398,-31.6709 952.802,-24.0923 942.288,-25.3998 945.398,-31.6709"/>
</g>
<!-- &#45;6&#45;&gt;2 -->
<g id="edge23" class="edge"><title>&#45;6&#45;&gt;2</title>
<path fill="none" stroke="green" stroke-width="0.165993" d="M118.753,-68.3457C121.578,-67.3049 124.605,-66.3395 127.5,-65.6985 258.734,-36.642 686.68,-20.3969 795.269,-16.6782"/>
<polygon fill="green" stroke="green" stroke-width="0.165993" points="795.694,-20.1659 805.57,-16.3304 795.458,-13.1699 795.694,-20.1659"/>
</g>
<!-- &#45;7 -->
<g id="node7" class="node"><title>&#45;7</title>
<polygon fill="lightgray" stroke="black" points="747.5,-83.6985 723.5,-83.6985 723.5,-65.6985 747.5,-65.6985 747.5,-83.6985"/>
<text text-anchor="middle" x="735.5" y="-72.4985" font-family="Times New Roman,serif" font-size="9.00">&#45;7</text>
</g>
<!-- &#45;7&#45;&gt;0 -->
<g id="edge24" class="edge"><title>&#45;7&#45;&gt;0</title>
<path fill="none" stroke="red" stroke-width="0.226537" d="M747.693,-69.0244C772.179,-59.5978 826.523,-38.4607 844.5,-29.6985 845.332,-29.2928 846.175,-28.8697 847.023,-28.4343"/>
<polygon fill="red" stroke="red" stroke-width="0.226537" points="848.894,-31.3994 855.975,-23.5178 845.525,-25.2639 848.894,-31.3994"/>
</g>
<!-- &#45;7&#45;&gt;1 -->
<g id="edge25" class="edge"><title>&#45;7&#45;&gt;1</title>
<path fill="none" stroke="red" stroke-width="0.485972" d="M747.818,-68.6045C750.64,-67.5502 753.649,-66.5139 756.5,-65.6985 836.615,-42.7828 862.463,-58.9197 940.5,-29.6985 941.367,-29.3737 942.24,-29.0195 943.112,-28.6421"/>
<polygon fill="red" stroke="red" stroke-width="0.485972" points="944.876,-31.6709 952.18,-23.9961 941.684,-25.4409 944.876,-31.6709"/>
</g>
<!-- &#45;7&#45;&gt;2 -->
<g id="edge26" class="edge"><title>&#45;7&#45;&gt;2</title>
<path fill="none" stroke="green" stroke-width="0.203129" d="M747.319,-65.6548C760.944,-56.3818 783.577,-40.978 800.072,-29.7523"/>
<polygon fill="green" stroke="green" stroke-width="0.203129" points="802.21,-32.531 808.507,-24.0111 798.271,-26.7441 802.21,-32.531"/>
</g>
<!-- &#45;7&#45;&gt;3 -->
<g id="edge27" class="edge"><title>&#45;7&#45;&gt;3</title>
<path fill="none" stroke="green" stroke-width="0.248925" d="M747.86,-68.7424C750.68,-67.681 753.677,-66.6069 756.5,-65.6985 816.02,-46.5425 834.694,-53.5323 892.5,-29.6985 893.356,-29.3455 894.219,-28.9673 895.083,-28.5696"/>
<polygon fill="green" stroke="green" stroke-width="0.248925" points="896.887,-31.5759 904.115,-23.8293 893.634,-25.3778 896.887,-31.5759"/>
</g>
<!-- &#45;8 -->
<g id="node8" class="node"><title>&#45;8</title>
<polygon fill="lightgray" stroke="black" points="789.5,-83.6985 765.5,-83.6985 765.5,-65.6985 789.5,-65.6985 789.5,-83.6985"/>
<text text-anchor="middle" x="777.5" y="-72.4985" font-family="Times New Roman,serif" font-size="9.00">&#45;8</text>
</g>
<!-- &#45;8&#45;&gt;0 -->
<g id="edge28" class="edge"><title>&#45;8&#45;&gt;0</title>
<path fill="none" stroke="green" stroke-width="0.106234" d="M789.773,-65.8967C804.645,-56.4421 829.932,-40.3671 847.83,-28.9892"/>
<polygon fill="green" stroke="green" stroke-width="0.106234" points="849.86,-31.846 856.422,-23.5274 846.105,-25.9386 849.86,-31.846"/>
</g>
<!-- &#45;8&#45;&gt;1 -->
<g id="edge29" class="edge"><title>&#45;8&#45;&gt;1</title>
<path fill="none" stroke="green" stroke-width="0.244414" d="M789.531,-69.0807C792.748,-67.9127 796.238,-66.7053 799.5,-65.6985 861.3,-46.6238 880.598,-54.089 940.5,-29.6985 941.358,-29.3493 942.222,-28.9742 943.087,-28.5793"/>
<polygon fill="green" stroke="green" stroke-width="0.244414" points="944.886,-31.5885 952.124,-23.8515 941.641,-25.3861 944.886,-31.5885"/>
</g>
<!-- &#45;8&#45;&gt;2 -->
<g id="edge30" class="edge"><title>&#45;8&#45;&gt;2</title>
<path fill="none" stroke="red" stroke-width="0.588984" stroke-dasharray="1,5" d="M783.479,-65.6548C789.248,-57.8934 798.21,-45.8369 805.871,-35.5302"/>
<polygon fill="red" stroke="red" stroke-width="0.588984" points="808.745,-37.5305 811.902,-27.4169 803.127,-33.3546 808.745,-37.5305"/>
</g>
<!-- &#45;8&#45;&gt;3 -->
<g id="edge31" class="edge"><title>&#45;8&#45;&gt;3</title>
<path fill="none" stroke="green" stroke-width="0.595925" d="M789.801,-69.1178C817.439,-58.8075 882.802,-34.3166 892.5,-29.6985 893.336,-29.3004 894.182,-28.8838 895.032,-28.4538"/>
<polygon fill="green" stroke="green" stroke-width="0.595925" points="896.894,-31.4248 903.996,-23.5627 893.542,-25.28 896.894,-31.4248"/>
</g>
<!-- &#45;9 -->
<g id="node9" class="node"><title>&#45;9</title>
<polygon fill="lightgray" stroke="black" points="1772.5,-83.6985 1748.5,-83.6985 1748.5,-65.6985 1772.5,-65.6985 1772.5,-83.6985"/>
<text text-anchor="middle" x="1760.5" y="-72.4985" font-family="Times New Roman,serif" font-size="9.00">&#45;9</text>
</g>
<!-- &#45;9&#45;&gt;0 -->
<g id="edge32" class="edge"><title>&#45;9&#45;&gt;0</title>
<path fill="none" stroke="red" stroke-width="0.372026" stroke-dasharray="1,5" d="M1748.26,-68.2827C1745.43,-67.2451 1742.4,-66.2969 1739.5,-65.6985 1554.98,-27.6749 1073.4,-82.2913 892.5,-29.6985 891.438,-29.3896 890.372,-29.0244 889.313,-28.6156"/>
<polygon fill="red" stroke="red" stroke-width="0.372026" points="890.711,-25.402 880.197,-24.097 887.602,-31.6739 890.711,-25.402"/>
</g>
<!-- &#45;9&#45;&gt;1 -->
<g id="edge33" class="edge"><title>&#45;9&#45;&gt;1</title>
<path fill="none" stroke="red" stroke-width="0.580253" d="M1748.25,-68.3295C1745.43,-67.2895 1742.4,-66.3285 1739.5,-65.6985 1591.29,-33.4716 1104.97,-19.3869 989.333,-16.4477"/>
<polygon fill="red" stroke="red" stroke-width="0.580253" points="989.407,-12.9486 979.323,-16.1978 989.233,-19.9464 989.407,-12.9486"/>
</g>
<!-- &#45;9&#45;&gt;3 -->
<g id="edge34" class="edge"><title>&#45;9&#45;&gt;3</title>
<path fill="none" stroke="red" stroke-width="0.501291" d="M1748.26,-68.2882C1745.43,-67.2503 1742.4,-66.3006 1739.5,-65.6985 1565.47,-29.6039 1111.11,-79.5338 940.5,-29.6985 939.438,-29.3882 938.373,-29.022 937.314,-28.6122"/>
<polygon fill="red" stroke="red" stroke-width="0.501291" points="938.712,-25.3988 928.199,-24.0903 935.602,-31.6697 938.712,-25.3988"/>
</g>
<!-- &#45;10 -->
<g id="node10" class="node"><title>&#45;10</title>
<polygon fill="lightgray" stroke="black" points="29,-83.6985 0,-83.6985 0,-65.6985 29,-65.6985 29,-83.6985"/>
<text text-anchor="middle" x="14.5" y="-72.4985" font-family="Times New Roman,serif" font-size="9.00">&#45;10</text>
</g>
<!-- &#45;10&#45;&gt;0 -->
<g id="edge35" class="edge"><title>&#45;10&#45;&gt;0</title>
<path fill="none" stroke="green" stroke-width="0.370349" d="M29.4222,-67.8093C32.0767,-66.9636 34.8428,-66.2086 37.5,-65.6985 213.793,-31.8563 672.178,-79.9934 844.5,-29.6985 845.562,-29.3885 846.627,-29.0224 847.686,-28.6128"/>
<polygon fill="green" stroke="green" stroke-width="0.370349" points="849.398,-31.6704 856.802,-24.0915 846.288,-25.3994 849.398,-31.6704"/>
</g>
<!-- &#45;10&#45;&gt;2 -->
<g id="edge36" class="edge"><title>&#45;10&#45;&gt;2</title>
<path fill="none" stroke="green" stroke-width="0.387243" d="M29.4306,-67.8518C32.0841,-67.0015 34.8478,-66.2338 37.5,-65.6985 187.705,-35.3821 678.694,-19.8497 795.431,-16.5318"/>
<polygon fill="green" stroke="green" stroke-width="0.387243" points="795.638,-20.0275 805.536,-16.2487 795.442,-13.0302 795.638,-20.0275"/>
</g>
<!-- &#45;10&#45;&gt;3 -->
<g id="edge37" class="edge"><title>&#45;10&#45;&gt;3</title>
<path fill="none" stroke="red" stroke-width="0.178155" d="M29.4211,-67.8037C32.0757,-66.9586 34.8421,-66.2053 37.5,-65.6985 224.303,-30.0807 709.882,-82.7509 892.5,-29.6985 893.563,-29.3898 894.628,-29.0248 895.687,-28.6161"/>
<polygon fill="red" stroke="red" stroke-width="0.178155" points="897.398,-31.6745 904.804,-24.098 894.289,-25.4025 897.398,-31.6745"/>
</g>
<!-- &#45;11 -->
<g id="node11" class="node"><title>&#45;11</title>
<polygon fill="lightgray" stroke="black" points="884,-83.6985 855,-83.6985 855,-65.6985 884,-65.6985 884,-83.6985"/>
<text text-anchor="middle" x="869.5" y="-72.4985" font-family="Times New Roman,serif" font-size="9.00">&#45;11</text>
</g>
<!-- &#45;11&#45;&gt;0 -->
<g id="edge38" class="edge"><title>&#45;11&#45;&gt;0</title>
<path fill="none" stroke="green" stroke-width="0.407689" d="M869.361,-65.6548C869.247,-59.0498 869.079,-49.3344 868.922,-40.2339"/>
<polygon fill="green" stroke="green" stroke-width="0.407689" points="872.418,-39.9943 868.746,-30.0563 865.419,-40.1153 872.418,-39.9943"/>
</g>
<!-- &#45;11&#45;&gt;1 -->
<g id="edge39" class="edge"><title>&#45;11&#45;&gt;1</title>
<path fill="none" stroke="green" stroke-width="0.313474" d="M882.709,-65.6548C898.411,-56.0937 924.815,-40.0148 943.367,-28.7182"/>
<polygon fill="green" stroke="green" stroke-width="0.313474" points="945.286,-31.647 952.007,-23.4566 941.646,-25.6683 945.286,-31.647"/>
</g>
<!-- &#45;11&#45;&gt;2 -->
<g id="edge40" class="edge"><title>&#45;11&#45;&gt;2</title>
<path fill="none" stroke="red" stroke-width="0.131273" d="M862.687,-65.6548C855.964,-57.7178 845.436,-45.2891 836.58,-34.8334"/>
<polygon fill="red" stroke="red" stroke-width="0.131273" points="839.074,-32.363 829.94,-26.9946 833.733,-36.8874 839.074,-32.363"/>
</g>
<!-- &#45;11&#45;&gt;3 -->
<g id="edge41" class="edge"><title>&#45;11&#45;&gt;3</title>
<path fill="none" stroke="green" stroke-width="0.136777" d="M876.035,-65.6548C882.484,-57.7178 892.581,-45.2891 901.076,-34.8334"/>
<polygon fill="green" stroke="green" stroke-width="0.136777" points="903.856,-36.9629 907.445,-26.9946 898.423,-32.5489 903.856,-36.9629"/>
</g>
<!-- &#45;12 -->
<g id="node12" class="node"><title>&#45;12</title>
<polygon fill="lightgray" stroke="black" points="931,-83.6985 902,-83.6985 902,-65.6985 931,-65.6985 931,-83.6985"/>
<text text-anchor="middle" x="916.5" y="-72.4985" font-family="Times New Roman,serif" font-size="9.00">&#45;12</text>
</g>
<!-- &#45;12&#45;&gt;0 -->
<g id="edge42" class="edge"><title>&#45;12&#45;&gt;0</title>
<path fill="none" stroke="green" stroke-width="0.303013" d="M909.826,-65.6548C903.24,-57.7178 892.928,-45.2891 884.252,-34.8334"/>
<polygon fill="green" stroke="green" stroke-width="0.303013" points="886.827,-32.4555 877.748,-26.9946 881.44,-36.9253 886.827,-32.4555"/>
</g>
<!-- &#45;12&#45;&gt;1 -->
<g id="edge43" class="edge"><title>&#45;12&#45;&gt;1</title>
<path fill="none" stroke="green" stroke-width="0.123082" d="M923.174,-65.6548C929.76,-57.7178 940.072,-45.2891 948.748,-34.8334"/>
<polygon fill="green" stroke="green" stroke-width="0.123082" points="951.56,-36.9253 955.252,-26.9946 946.173,-32.4555 951.56,-36.9253"/>
</g>
<!-- &#45;12&#45;&gt;2 -->
<g id="edge44" class="edge"><title>&#45;12&#45;&gt;2</title>
<path fill="none" stroke="red" stroke-width="0.171506" d="M903.152,-65.6548C887.197,-56.0406 860.306,-39.8359 841.544,-28.5304"/>
<polygon fill="red" stroke="red" stroke-width="0.171506" points="843.195,-25.4387 832.823,-23.2752 839.582,-31.4343 843.195,-25.4387"/>
</g>
<!-- &#45;12&#45;&gt;3 -->
<g id="edge45" class="edge"><title>&#45;12&#45;&gt;3</title>
<path fill="none" stroke="green" stroke-width="0.184642" d="M916.5,-65.6548C916.5,-59.0498 916.5,-49.3344 916.5,-40.2339"/>
<polygon fill="green" stroke="green" stroke-width="0.184642" points="920,-40.0563 916.5,-30.0563 913,-40.0564 920,-40.0563"/>
</g>
<!-- &#45;13 -->
<g id="node13" class="node"><title>&#45;13</title>
<polygon fill="lightgray" stroke="black" points="978,-83.6985 949,-83.6985 949,-65.6985 978,-65.6985 978,-83.6985"/>
<text text-anchor="middle" x="963.5" y="-72.4985" font-family="Times New Roman,serif" font-size="9.00">&#45;13</text>
</g>
<!-- &#45;13&#45;&gt;0 -->
<g id="edge46" class="edge"><title>&#45;13&#45;&gt;0</title>
<path fill="none" stroke="red" stroke-width="0.20774" d="M950.291,-65.6548C934.589,-56.0937 908.185,-40.0148 889.633,-28.7182"/>
<polygon fill="red" stroke="red" stroke-width="0.20774" points="891.354,-25.6683 880.993,-23.4566 887.714,-31.647 891.354,-25.6683"/>
</g>
<!-- &#45;13&#45;&gt;1 -->
<g id="edge47" class="edge"><title>&#45;13&#45;&gt;1</title>
<path fill="none" stroke="green" stroke-width="0.292105" d="M963.639,-65.6548C963.753,-59.0498 963.921,-49.3344 964.078,-40.2339"/>
<polygon fill="green" stroke="green" stroke-width="0.292105" points="967.581,-40.1153 964.254,-30.0563 960.582,-39.9943 967.581,-40.1153"/>
</g>
<!-- &#45;13&#45;&gt;2 -->
<g id="edge48" class="edge"><title>&#45;13&#45;&gt;2</title>
<path fill="none" stroke="red" stroke-width="0.133688" d="M948.564,-68.3361C918.836,-57.6398 854.271,-34.2836 844.5,-29.6985 843.662,-29.3051 842.814,-28.8925 841.962,-28.4659"/>
<polygon fill="red" stroke="red" stroke-width="0.133688" points="843.448,-25.29 832.991,-23.5906 840.106,-31.4406 843.448,-25.29"/>
</g>
<!-- &#45;13&#45;&gt;3 -->
<g id="edge49" class="edge"><title>&#45;13&#45;&gt;3</title>
<path fill="none" stroke="green" stroke-width="0.102617" d="M956.965,-65.6548C950.516,-57.7178 940.419,-45.2891 931.924,-34.8334"/>
<polygon fill="green" stroke="green" stroke-width="0.102617" points="934.577,-32.5489 925.555,-26.9946 929.144,-36.9629 934.577,-32.5489"/>
</g>
<!-- &#45;14 -->
<g id="node14" class="node"><title>&#45;14</title>
<polygon fill="lightgray" stroke="black" points="1025,-83.6985 996,-83.6985 996,-65.6985 1025,-65.6985 1025,-83.6985"/>
<text text-anchor="middle" x="1010.5" y="-72.4985" font-family="Times New Roman,serif" font-size="9.00">&#45;14</text>
</g>
<!-- &#45;14&#45;&gt;0 -->
<g id="edge50" class="edge"><title>&#45;14&#45;&gt;0</title>
<path fill="none" stroke="green" stroke-width="0.24975" d="M995.623,-68.5003C968.369,-58.92 911.489,-38.6414 892.5,-29.6985 891.662,-29.3039 890.815,-28.8904 889.964,-28.463"/>
<polygon fill="green" stroke="green" stroke-width="0.24975" points="891.451,-25.2876 880.994,-23.5837 888.106,-31.4367 891.451,-25.2876"/>
</g>
<!-- &#45;14&#45;&gt;1 -->
<g id="edge51" class="edge"><title>&#45;14&#45;&gt;1</title>
<path fill="none" stroke="red" stroke-width="0.268189" d="M1004.1,-65.6548C997.793,-57.7178 987.91,-45.2891 979.596,-34.8334"/>
<polygon fill="red" stroke="red" stroke-width="0.268189" points="982.326,-32.6433 973.362,-26.9946 976.847,-37.0001 982.326,-32.6433"/>
</g>
<!-- &#45;14&#45;&gt;2 -->
<g id="edge52" class="edge"><title>&#45;14&#45;&gt;2</title>
<path fill="none" stroke="green" stroke-width="0.294473" d="M995.962,-68.425C993.168,-67.4731 990.254,-66.5224 987.5,-65.6985 924.711,-46.9149 905.241,-54.3121 844.5,-29.6985 843.642,-29.3507 842.777,-28.9769 841.911,-28.583"/>
<polygon fill="green" stroke="green" stroke-width="0.294473" points="843.357,-25.3893 832.873,-23.86 840.115,-31.5934 843.357,-25.3893"/>
</g>
<!-- &#45;14&#45;&gt;3 -->
<g id="edge53" class="edge"><title>&#45;14&#45;&gt;3</title>
<path fill="none" stroke="green" stroke-width="0.273297" d="M997.43,-65.6548C981.894,-56.0937 955.767,-40.0148 937.411,-28.7182"/>
<polygon fill="green" stroke="green" stroke-width="0.273297" points="939.212,-25.7171 928.861,-23.4566 935.543,-31.6786 939.212,-25.7171"/>
</g>
<!-- &#45;15 -->
<g id="node15" class="node"><title>&#45;15</title>
<polygon fill="lightgray" stroke="black" points="76,-83.6985 47,-83.6985 47,-65.6985 76,-65.6985 76,-83.6985"/>
<text text-anchor="middle" x="61.5" y="-72.4985" font-family="Times New Roman,serif" font-size="9.00">&#45;15</text>
</g>
<!-- &#45;15&#45;&gt;0 -->
<g id="edge54" class="edge"><title>&#45;15&#45;&gt;0</title>
<path fill="none" stroke="red" stroke-width="0.127948" d="M76.0549,-68.1404C79.133,-67.1656 82.3914,-66.2788 85.5,-65.6985 251.488,-34.7088 682.473,-77.2361 844.5,-29.6985 845.562,-29.387 846.626,-29.0197 847.685,-28.6091"/>
<polygon fill="red" stroke="red" stroke-width="0.127948" points="849.399,-31.6658 856.8,-24.0841 846.286,-25.3959 849.399,-31.6658"/>
</g>
<!-- &#45;15&#45;&gt;2 -->
<g id="edge55" class="edge"><title>&#45;15&#45;&gt;2</title>
<path fill="none" stroke="green" stroke-width="0.266762" d="M76.0643,-68.1893C79.1417,-67.2109 82.3975,-66.3104 85.5,-65.6985 226.062,-37.9748 683.53,-20.5968 795.565,-16.6898"/>
<polygon fill="green" stroke="green" stroke-width="0.266762" points="795.71,-20.187 805.584,-16.3444 795.469,-13.1911 795.71,-20.187"/>
</g>
<!-- &#45;15&#45;&gt;3 -->
<g id="edge56" class="edge"><title>&#45;15&#45;&gt;3</title>
<path fill="none" stroke="red" stroke-width="0.216995" d="M76.0536,-68.1336C79.1318,-67.1593 82.3906,-66.2745 85.5,-65.6985 262.009,-33.0017 720.178,-79.9934 892.5,-29.6985 893.562,-29.3885 894.627,-29.0224 895.686,-28.6128"/>
<polygon fill="red" stroke="red" stroke-width="0.216995" points="897.398,-31.6704 904.802,-24.0915 894.288,-25.3994 897.398,-31.6704"/>
</g>
<!-- &#45;16 -->
<g id="node16" class="node"><title>&#45;16</title>
<polygon fill="lightgray" stroke="black" points="1072,-83.6985 1043,-83.6985 1043,-65.6985 1072,-65.6985 1072,-83.6985"/>
<text text-anchor="middle" x="1057.5" y="-72.4985" font-family="Times New Roman,serif" font-size="9.00">&#45;16</text>
</g>
<!-- &#45;16&#45;&gt;0 -->
<g id="edge57" class="edge"><title>&#45;16&#45;&gt;0</title>
<path fill="none" stroke="red" stroke-width="0.383226" d="M1042.96,-68.4288C1040.17,-67.4765 1037.25,-66.5247 1034.5,-65.6985 972.139,-46.9864 952.821,-54.2005 892.5,-29.6985 891.642,-29.35 890.777,-28.9756 889.912,-28.5812"/>
<polygon fill="red" stroke="red" stroke-width="0.383226" points="891.358,-25.3877 880.875,-23.8558 888.115,-31.591 891.358,-25.3877"/>
</g>
<!-- &#45;16&#45;&gt;1 -->
<g id="edge58" class="edge"><title>&#45;16&#45;&gt;1</title>
<path fill="none" stroke="green" stroke-width="0.625461" d="M1044.57,-65.6548C1029.27,-56.1374 1003.59,-40.1615 985.438,-28.8733"/>
<polygon fill="green" stroke="green" stroke-width="0.625461" points="987.07,-25.7666 976.73,-23.4566 983.372,-31.7105 987.07,-25.7666"/>
</g>
<!-- &#45;16&#45;&gt;2 -->
<g id="edge59" class="edge"><title>&#45;16&#45;&gt;2</title>
<path fill="none" stroke="red" stroke-width="0.434608" d="M1042.51,-68.1267C1039.86,-67.2458 1037.11,-66.3967 1034.5,-65.6985 951.464,-43.5206 925.078,-59.5981 844.5,-29.6985 843.632,-29.3763 842.758,-29.0243 841.886,-28.6487"/>
<polygon fill="red" stroke="red" stroke-width="0.434608" points="843.311,-25.4467 832.814,-24.0114 840.125,-31.6796 843.311,-25.4467"/>
</g>
<!-- &#45;16&#45;&gt;3 -->
<g id="edge60" class="edge"><title>&#45;16&#45;&gt;3</title>
<path fill="none" stroke="red" stroke-width="0.727005" d="M1042.75,-68.4928C1015.73,-58.8999 959.335,-38.6013 940.5,-29.6985 939.663,-29.3028 938.816,-28.8882 937.965,-28.46"/>
<polygon fill="red" stroke="red" stroke-width="0.727005" points="939.453,-25.2851 928.997,-23.5768 936.106,-31.4328 939.453,-25.2851"/>
</g>
<!-- &#45;17 -->
<g id="node17" class="node"><title>&#45;17</title>
<polygon fill="lightgray" stroke="black" points="1119,-83.6985 1090,-83.6985 1090,-65.6985 1119,-65.6985 1119,-83.6985"/>
<text text-anchor="middle" x="1104.5" y="-72.4985" font-family="Times New Roman,serif" font-size="9.00">&#45;17</text>
</g>
<!-- &#45;17&#45;&gt;0 -->
<g id="edge61" class="edge"><title>&#45;17&#45;&gt;0</title>
<path fill="none" stroke="red" stroke-width="0.43739" d="M1090,-68.2944C1087.2,-67.3545 1084.28,-66.4417 1081.5,-65.6985 998.896,-43.5933 972.655,-59.485 892.5,-29.6985 891.632,-29.3759 890.759,-29.0235 889.886,-28.6477"/>
<polygon fill="red" stroke="red" stroke-width="0.43739" points="891.312,-25.4458 880.815,-24.0089 888.125,-31.6781 891.312,-25.4458"/>
</g>
<!-- &#45;17&#45;&gt;1 -->
<g id="edge62" class="edge"><title>&#45;17&#45;&gt;1</title>
<path fill="none" stroke="red" stroke-width="0.169151" d="M1089.78,-67.6169C1065.42,-57.5486 1016.51,-37.3418 987.538,-25.3687"/>
<polygon fill="red" stroke="red" stroke-width="0.169151" points="988.771,-22.0914 978.193,-21.5072 986.098,-28.5609 988.771,-22.0914"/>
</g>
<!-- &#45;17&#45;&gt;2 -->
<g id="edge63" class="edge"><title>&#45;17&#45;&gt;2</title>
<path fill="none" stroke="red" stroke-width="0.46704" stroke-dasharray="1,5" d="M1089.53,-68.046C1086.88,-67.174 1084.13,-66.3488 1081.5,-65.6985 978.082,-40.0896 945.047,-64.9333 844.5,-29.6985 843.626,-29.3922 842.748,-29.0537 841.871,-28.6895"/>
<polygon fill="red" stroke="red" stroke-width="0.46704" points="843.285,-25.4829 832.78,-24.1053 840.133,-31.7331 843.285,-25.4829"/>
</g>
<!-- &#45;17&#45;&gt;3 -->
<g id="edge64" class="edge"><title>&#45;17&#45;&gt;3</title>
<path fill="none" stroke="green" stroke-width="0.284995" d="M1089.96,-68.4325C1087.17,-67.4799 1084.25,-66.527 1081.5,-65.6985 1019.57,-47.0579 1000.4,-54.089 940.5,-29.6985 939.642,-29.3493 938.778,-28.9742 937.913,-28.5793"/>
<polygon fill="green" stroke="green" stroke-width="0.284995" points="939.359,-25.3861 928.876,-23.8515 936.114,-31.5885 939.359,-25.3861"/>
</g>
<!-- &#45;18 -->
<g id="node18" class="node"><title>&#45;18</title>
<polygon fill="lightgray" stroke="black" points="1166,-83.6985 1137,-83.6985 1137,-65.6985 1166,-65.6985 1166,-83.6985"/>
<text text-anchor="middle" x="1151.5" y="-72.4985" font-family="Times New Roman,serif" font-size="9.00">&#45;18</text>
</g>
<!-- &#45;18&#45;&gt;0 -->
<g id="edge65" class="edge"><title>&#45;18&#45;&gt;0</title>
<path fill="none" stroke="green" stroke-width="0.168945" d="M1136.53,-68.0474C1133.88,-67.1753 1131.13,-66.3497 1128.5,-65.6985 1025.52,-40.1629 992.621,-64.8195 892.5,-29.6985 891.626,-29.392 890.748,-29.0532 889.871,-28.6888"/>
<polygon fill="green" stroke="green" stroke-width="0.168945" points="891.286,-25.4822 880.781,-24.1037 888.133,-31.7322 891.286,-25.4822"/>
</g>
<!-- &#45;18&#45;&gt;1 -->
<g id="edge66" class="edge"><title>&#45;18&#45;&gt;1</title>
<path fill="none" stroke="green" stroke-width="0.597245" d="M1136.93,-68.5326C1134.14,-67.5708 1131.23,-66.5889 1128.5,-65.6985 1078.93,-49.5505 1020.4,-32.1579 988.387,-22.787"/>
<polygon fill="green" stroke="green" stroke-width="0.597245" points="989.179,-19.3722 978.599,-19.9299 987.218,-26.0918 989.179,-19.3722"/>
</g>
<!-- &#45;18&#45;&gt;2 -->
<g id="edge67" class="edge"><title>&#45;18&#45;&gt;2</title>
<path fill="none" stroke="red" stroke-width="0.46555" d="M1136.54,-67.9912C1133.89,-67.1254 1131.13,-66.3164 1128.5,-65.6985 1004.63,-36.6413 965.083,-70.2925 844.5,-29.6985 843.622,-29.403 842.741,-29.0737 841.861,-28.7173"/>
<polygon fill="red" stroke="red" stroke-width="0.46555" points="843.268,-25.5076 832.758,-24.1691 840.14,-31.7696 843.268,-25.5076"/>
</g>
<!-- &#45;18&#45;&gt;3 -->
<g id="edge68" class="edge"><title>&#45;18&#45;&gt;3</title>
<path fill="none" stroke="green" stroke-width="0.222839" d="M1137,-68.2966C1134.2,-67.3565 1131.28,-66.443 1128.5,-65.6985 1046.33,-43.6659 1020.23,-59.3719 940.5,-29.6985 939.632,-29.3755 938.759,-29.0227 937.886,-28.6466"/>
<polygon fill="green" stroke="green" stroke-width="0.222839" points="939.313,-25.4448 928.816,-24.0064 936.125,-31.6767 939.313,-25.4448"/>
</g>
<!-- &#45;19 -->
<g id="node19" class="node"><title>&#45;19</title>
<polygon fill="lightgray" stroke="black" points="1213,-83.6985 1184,-83.6985 1184,-65.6985 1213,-65.6985 1213,-83.6985"/>
<text text-anchor="middle" x="1198.5" y="-72.4985" font-family="Times New Roman,serif" font-size="9.00">&#45;19</text>
</g>
<!-- &#45;19&#45;&gt;0 -->
<g id="edge69" class="edge"><title>&#45;19&#45;&gt;0</title>
<path fill="none" stroke="green" stroke-width="0.198244" d="M1183.54,-67.9922C1180.89,-67.1263 1178.13,-66.317 1175.5,-65.6985 1052.07,-36.7148 1012.66,-70.1783 892.5,-29.6985 891.622,-29.4028 890.741,-29.0733 889.862,-28.7168"/>
<polygon fill="green" stroke="green" stroke-width="0.198244" points="891.269,-25.5072 880.759,-24.1679 888.139,-31.7689 891.269,-25.5072"/>
</g>
<!-- &#45;19&#45;&gt;1 -->
<g id="edge70" class="edge"><title>&#45;19&#45;&gt;1</title>
<path fill="none" stroke="red" stroke-width="0.356085" d="M1183.97,-68.3924C1181.18,-67.4435 1178.26,-66.5023 1175.5,-65.6985 1108.77,-46.2671 1028.54,-28.9338 988.99,-20.7803"/>
<polygon fill="red" stroke="red" stroke-width="0.356085" points="989.458,-17.3037 978.96,-18.7299 988.056,-24.1619 989.458,-17.3037"/>
</g>
<!-- &#45;19&#45;&gt;2 -->
<g id="edge71" class="edge"><title>&#45;19&#45;&gt;2</title>
<path fill="none" stroke="green" stroke-width="0.114437" d="M1183.55,-67.9517C1180.9,-67.0903 1178.14,-66.293 1175.5,-65.6985 1031.14,-33.1834 985.158,-75.665 844.5,-29.6985 843.62,-29.4108 842.736,-29.0881 841.855,-28.7373"/>
<polygon fill="green" stroke="green" stroke-width="0.114437" points="843.256,-25.5256 832.743,-24.2151 840.145,-31.7959 843.256,-25.5256"/>
</g>
<!-- &#45;19&#45;&gt;3 -->
<g id="edge72" class="edge"><title>&#45;19&#45;&gt;3</title>
<path fill="none" stroke="green" stroke-width="0.254129" d="M1183.53,-68.0488C1180.88,-67.1765 1178.13,-66.3505 1175.5,-65.6985 1072.95,-40.2361 1040.2,-64.7057 940.5,-29.6985 939.626,-29.3917 938.748,-29.0527 937.871,-28.6881"/>
<polygon fill="green" stroke="green" stroke-width="0.254129" points="939.286,-25.4816 928.781,-24.102 936.133,-31.7313 939.286,-25.4816"/>
</g>
<!-- &#45;20 -->
<g id="node20" class="node"><title>&#45;20</title>
<polygon fill="lightgray" stroke="black" points="1260,-83.6985 1231,-83.6985 1231,-65.6985 1260,-65.6985 1260,-83.6985"/>
<text text-anchor="middle" x="1245.5" y="-72.4985" font-family="Times New Roman,serif" font-size="9.00">&#45;20</text>
</g>
<!-- &#45;20&#45;&gt;0 -->
<g id="edge73" class="edge"><title>&#45;20&#45;&gt;0</title>
<path fill="none" stroke="red" stroke-width="0.127805" d="M1230.55,-67.9525C1227.9,-67.0909 1225.14,-66.2934 1222.5,-65.6985 1078.57,-33.257 1032.73,-75.5506 892.5,-29.6985 891.62,-29.4107 890.736,-29.0879 889.855,-28.7369"/>
<polygon fill="red" stroke="red" stroke-width="0.127805" points="891.257,-25.5253 880.743,-24.2143 888.144,-31.7954 891.257,-25.5253"/>
</g>
<!-- &#45;20&#45;&gt;1 -->
<g id="edge74" class="edge"><title>&#45;20&#45;&gt;1</title>
<path fill="none" stroke="green" stroke-width="0.308241" d="M1231,-68.3003C1228.2,-67.3599 1225.28,-66.4453 1222.5,-65.6985 1138.08,-42.9868 1035.47,-26.344 989.216,-19.411"/>
<polygon fill="green" stroke="green" stroke-width="0.308241" points="989.62,-15.9328 979.215,-17.9327 988.596,-22.8575 989.62,-15.9328"/>
</g>
<!-- &#45;20&#45;&gt;2 -->
<g id="edge75" class="edge"><title>&#45;20&#45;&gt;2</title>
<path fill="none" stroke="red" stroke-width="0.193523" d="M1230.55,-67.9219C1227.9,-67.0638 1225.14,-66.2753 1222.5,-65.6985 1057.62,-29.7196 1005.26,-81.0457 844.5,-29.6985 843.446,-29.3618 842.388,-28.9739 841.334,-28.5466"/>
<polygon fill="red" stroke="red" stroke-width="0.193523" points="842.743,-25.3373 832.238,-23.9602 839.592,-31.5877 842.743,-25.3373"/>
</g>
<!-- &#45;20&#45;&gt;3 -->
<g id="edge76" class="edge"><title>&#45;20&#45;&gt;3</title>
<path fill="none" stroke="red" stroke-width="0.245655" d="M1230.54,-67.9932C1227.89,-67.1271 1225.13,-66.3176 1222.5,-65.6985 1099.5,-36.7883 1060.23,-70.0641 940.5,-29.6985 939.622,-29.4026 938.741,-29.073 937.862,-28.7163"/>
<polygon fill="red" stroke="red" stroke-width="0.245655" points="939.269,-25.5067 928.759,-24.1668 936.139,-31.7682 939.269,-25.5067"/>
</g>
<!-- &#45;21 -->
<g id="node21" class="node"><title>&#45;21</title>
<polygon fill="lightgray" stroke="black" points="1307,-83.6985 1278,-83.6985 1278,-65.6985 1307,-65.6985 1307,-83.6985"/>
<text text-anchor="middle" x="1292.5" y="-72.4985" font-family="Times New Roman,serif" font-size="9.00">&#45;21</text>
</g>
<!-- &#45;21&#45;&gt;0 -->
<g id="edge77" class="edge"><title>&#45;21&#45;&gt;0</title>
<path fill="none" stroke="green" stroke-width="0.216972" d="M1277.55,-67.9225C1274.9,-67.0643 1272.14,-66.2757 1269.5,-65.6985 1105.06,-29.7934 1052.83,-80.9312 892.5,-29.6985 891.446,-29.3617 890.388,-28.9736 889.334,-28.5463"/>
<polygon fill="green" stroke="green" stroke-width="0.216972" points="890.743,-25.337 880.239,-23.9596 887.592,-31.5873 890.743,-25.337"/>
</g>
<!-- &#45;21&#45;&gt;1 -->
<g id="edge78" class="edge"><title>&#45;21&#45;&gt;1</title>
<path fill="none" stroke="red" stroke-width="0.287799" d="M1277.52,-68.0709C1274.87,-67.1962 1272.12,-66.3636 1269.5,-65.6985 1167.05,-39.7166 1041.68,-24.2039 989.317,-18.4328"/>
<polygon fill="red" stroke="red" stroke-width="0.287799" points="989.605,-14.9436 979.287,-17.3489 988.853,-21.9031 989.605,-14.9436"/>
</g>
<!-- &#45;21&#45;&gt;2 -->
<g id="edge79" class="edge"><title>&#45;21&#45;&gt;2</title>
<path fill="none" stroke="green" stroke-width="0.482724" d="M1277.56,-67.8986C1274.91,-67.043 1272.15,-66.2615 1269.5,-65.6985 1084.08,-26.2521 1025.38,-86.4319 844.5,-29.6985 843.444,-29.3673 842.385,-28.9839 841.33,-28.5603"/>
<polygon fill="green" stroke="green" stroke-width="0.482724" points="842.737,-25.3501 832.23,-23.9874 839.594,-31.6048 842.737,-25.3501"/>
</g>
<!-- &#45;21&#45;&gt;3 -->
<g id="edge80" class="edge"><title>&#45;21&#45;&gt;3</title>
<path fill="none" stroke="red" stroke-width="0.117566" d="M1277.55,-67.9532C1274.9,-67.0916 1272.14,-66.2939 1269.5,-65.6985 1126.01,-33.3306 1080.3,-75.4362 940.5,-29.6985 939.62,-29.4105 938.736,-29.0876 937.855,-28.7365"/>
<polygon fill="red" stroke="red" stroke-width="0.117566" points="939.257,-25.525 928.744,-24.2134 936.144,-31.7949 939.257,-25.525"/>
</g>
<!-- &#45;22 -->
<g id="node22" class="node"><title>&#45;22</title>
<polygon fill="lightgray" stroke="black" points="837,-83.6985 808,-83.6985 808,-65.6985 837,-65.6985 837,-83.6985"/>
<text text-anchor="middle" x="822.5" y="-72.4985" font-family="Times New Roman,serif" font-size="9.00">&#45;22</text>
</g>
<!-- &#45;22&#45;&gt;0 -->
<g id="edge81" class="edge"><title>&#45;22&#45;&gt;0</title>
<path fill="none" stroke="green" stroke-width="0.23226" d="M828.896,-65.6548C835.207,-57.7178 845.09,-45.2891 853.404,-34.8334"/>
<polygon fill="green" stroke="green" stroke-width="0.23226" points="856.153,-37.0001 859.638,-26.9946 850.674,-32.6433 856.153,-37.0001"/>
</g>
<!-- &#45;22&#45;&gt;3 -->
<g id="edge82" class="edge"><title>&#45;22&#45;&gt;3</title>
<path fill="none" stroke="green" stroke-width="0.404065" d="M835.57,-65.6548C851.106,-56.0937 877.233,-40.0148 895.589,-28.7182"/>
<polygon fill="green" stroke="green" stroke-width="0.404065" points="897.457,-31.6786 904.139,-23.4566 893.788,-25.7171 897.457,-31.6786"/>
</g>
<!-- &#45;23 -->
<g id="node23" class="node"><title>&#45;23</title>
<polygon fill="lightgray" stroke="black" points="1354,-83.6985 1325,-83.6985 1325,-65.6985 1354,-65.6985 1354,-83.6985"/>
<text text-anchor="middle" x="1339.5" y="-72.4985" font-family="Times New Roman,serif" font-size="9.00">&#45;23</text>
</g>
<!-- &#45;23&#45;&gt;0 -->
<g id="edge83" class="edge"><title>&#45;23&#45;&gt;0</title>
<path fill="none" stroke="green" stroke-width="0.143951" d="M1324.56,-67.899C1321.91,-67.0434 1319.15,-66.2618 1316.5,-65.6985 1131.52,-26.3259 1072.95,-86.3172 892.5,-29.6985 891.444,-29.3672 890.385,-28.9837 889.33,-28.56"/>
<polygon fill="green" stroke="green" stroke-width="0.143951" points="890.737,-25.3498 880.23,-23.9869 887.593,-31.6045 890.737,-25.3498"/>
</g>
<!-- &#45;23&#45;&gt;1 -->
<g id="edge84" class="edge"><title>&#45;23&#45;&gt;1</title>
<path fill="none" stroke="green" stroke-width="0.544819" d="M1324.53,-68.0237C1321.88,-67.1542 1319.13,-66.3356 1316.5,-65.6985 1195.9,-36.4792 1047.63,-22.4094 989.528,-17.7151"/>
<polygon fill="green" stroke="green" stroke-width="0.544819" points="989.693,-14.2174 979.449,-16.9228 989.144,-21.1958 989.693,-14.2174"/>
</g>
<!-- &#45;23&#45;&gt;2 -->
<g id="edge85" class="edge"><title>&#45;23&#45;&gt;2</title>
<path fill="none" stroke="green" stroke-width="0.270889" d="M1324.56,-67.8799C1321.91,-67.0264 1319.15,-66.2504 1316.5,-65.6985 1110.54,-22.782 1045.51,-91.8217 844.5,-29.6985 843.443,-29.3718 842.382,-28.992 841.327,-28.5713"/>
<polygon fill="green" stroke="green" stroke-width="0.270889" points="842.731,-25.3604 832.223,-24.0092 839.595,-31.6185 842.731,-25.3604"/>
</g>
<!-- &#45;23&#45;&gt;3 -->
<g id="edge86" class="edge"><title>&#45;23&#45;&gt;3</title>
<path fill="none" stroke="red" stroke-width="0.607638" d="M1324.55,-67.923C1321.9,-67.0648 1319.14,-66.276 1316.5,-65.6985 1152.49,-29.8671 1100.4,-80.8167 940.5,-29.6985 939.446,-29.3616 938.388,-28.9734 937.335,-28.5459"/>
<polygon fill="red" stroke="red" stroke-width="0.607638" points="938.744,-25.3367 928.239,-23.9589 935.592,-31.5869 938.744,-25.3367"/>
</g>
<!-- &#45;24 -->
<g id="node24" class="node"><title>&#45;24</title>
<polygon fill="lightgray" stroke="black" points="1401,-83.6985 1372,-83.6985 1372,-65.6985 1401,-65.6985 1401,-83.6985"/>
<text text-anchor="middle" x="1386.5" y="-72.4985" font-family="Times New Roman,serif" font-size="9.00">&#45;24</text>
</g>
<!-- &#45;24&#45;&gt;0 -->
<g id="edge87" class="edge"><title>&#45;24&#45;&gt;0</title>
<path fill="none" stroke="green" stroke-width="0.417442" stroke-dasharray="1,5" d="M1371.56,-67.8802C1368.91,-67.0267 1366.15,-66.2506 1363.5,-65.6985 1157.97,-22.8558 1093.08,-91.707 892.5,-29.6985 891.443,-29.3717 890.382,-28.9918 889.327,-28.5711"/>
<polygon fill="green" stroke="green" stroke-width="0.417442" points="890.731,-25.3602 880.223,-24.0087 887.595,-31.6183 890.731,-25.3602"/>
</g>
<!-- &#45;24&#45;&gt;1 -->
<g id="edge88" class="edge"><title>&#45;24&#45;&gt;1</title>
<path fill="none" stroke="red" stroke-width="0.180251" d="M1371.54,-67.9873C1368.89,-67.1218 1366.13,-66.3141 1363.5,-65.6985 1224.66,-33.2616 1053.4,-20.8527 989.813,-17.1607"/>
<polygon fill="red" stroke="red" stroke-width="0.180251" points="989.734,-13.651 979.555,-16.5875 989.344,-20.6401 989.734,-13.651"/>
</g>
<!-- &#45;24&#45;&gt;2 -->
<g id="edge89" class="edge"><title>&#45;24&#45;&gt;2</title>
<path fill="none" stroke="green" stroke-width="0.339672" d="M1371.57,-67.8645C1368.91,-67.0127 1366.15,-66.2413 1363.5,-65.6985 1136.98,-19.31 1065.64,-97.2143 844.5,-29.6985 843.442,-29.3754 842.38,-28.9986 841.324,-28.5803"/>
<polygon fill="green" stroke="green" stroke-width="0.339672" points="842.727,-25.3688 832.217,-24.0271 839.596,-31.6298 842.727,-25.3688"/>
</g>
<!-- &#45;24&#45;&gt;3 -->
<g id="edge90" class="edge"><title>&#45;24&#45;&gt;3</title>
<path fill="none" stroke="green" stroke-width="0.130813" d="M1371.56,-67.8995C1368.91,-67.0438 1366.15,-66.262 1363.5,-65.6985 1178.96,-26.3997 1120.52,-86.2026 940.5,-29.6985 939.444,-29.3671 938.385,-28.9835 937.33,-28.5598"/>
<polygon fill="green" stroke="green" stroke-width="0.130813" points="938.737,-25.3496 928.23,-23.9863 935.593,-31.6042 938.737,-25.3496"/>
</g>
<!-- &#45;25 -->
<g id="node25" class="node"><title>&#45;25</title>
<polygon fill="lightgray" stroke="black" points="1448,-83.6985 1419,-83.6985 1419,-65.6985 1448,-65.6985 1448,-83.6985"/>
<text text-anchor="middle" x="1433.5" y="-72.4985" font-family="Times New Roman,serif" font-size="9.00">&#45;25</text>
</g>
<!-- &#45;25&#45;&gt;0 -->
<g id="edge91" class="edge"><title>&#45;25&#45;&gt;0</title>
<path fill="none" stroke="green" stroke-width="0.210048" d="M1418.57,-67.8648C1415.91,-67.013 1413.15,-66.2415 1410.5,-65.6985 1184.42,-19.3839 1113.22,-97.0995 892.5,-29.6985 891.442,-29.3753 890.38,-28.9985 889.324,-28.5801"/>
<polygon fill="green" stroke="green" stroke-width="0.210048" points="890.727,-25.3687 880.218,-24.0267 887.596,-31.6296 890.727,-25.3687"/>
</g>
<!-- &#45;25&#45;&gt;1 -->
<g id="edge92" class="edge"><title>&#45;25&#45;&gt;1</title>
<path fill="none" stroke="red" stroke-width="0.330285" d="M1418.55,-67.9584C1415.9,-67.0962 1413.14,-66.2969 1410.5,-65.6985 1252.87,-29.9493 1057.84,-19.4044 989.53,-16.6906"/>
<polygon fill="red" stroke="red" stroke-width="0.330285" points="989.453,-13.1853 979.329,-16.3071 989.19,-20.1804 989.453,-13.1853"/>
</g>
<!-- &#45;25&#45;&gt;2 -->
<g id="edge93" class="edge"><title>&#45;25&#45;&gt;2</title>
<path fill="none" stroke="green" stroke-width="0.120713" d="M1418.57,-67.8517C1415.92,-67.0013 1413.15,-66.2337 1410.5,-65.6985 1163.42,-15.8366 1085.79,-102.609 844.5,-29.6985 843.441,-29.3784 842.378,-29.0041 841.321,-28.5878"/>
<polygon fill="green" stroke="green" stroke-width="0.120713" points="842.723,-25.3759 832.213,-24.042 839.598,-31.6392 842.723,-25.3759"/>
</g>
<!-- &#45;25&#45;&gt;3 -->
<g id="edge94" class="edge"><title>&#45;25&#45;&gt;3</title>
<path fill="none" stroke="green" stroke-width="0.129656" d="M1418.56,-67.8806C1415.91,-67.027 1413.15,-66.2509 1410.5,-65.6985 1205.41,-22.9297 1140.65,-91.5923 940.5,-29.6985 939.443,-29.3716 938.382,-28.9917 937.327,-28.5709"/>
<polygon fill="green" stroke="green" stroke-width="0.129656" points="938.731,-25.36 928.223,-24.0083 935.595,-31.618 938.731,-25.36"/>
</g>
<!-- &#45;26 -->
<g id="node26" class="node"><title>&#45;26</title>
<polygon fill="lightgray" stroke="black" points="1495,-83.6985 1466,-83.6985 1466,-65.6985 1495,-65.6985 1495,-83.6985"/>
<text text-anchor="middle" x="1480.5" y="-72.4985" font-family="Times New Roman,serif" font-size="9.00">&#45;26</text>
</g>
<!-- &#45;26&#45;&gt;0 -->
<g id="edge95" class="edge"><title>&#45;26&#45;&gt;0</title>
<path fill="none" stroke="green" stroke-width="0.130459" d="M1465.57,-67.8519C1462.92,-67.0016 1460.15,-66.2339 1457.5,-65.6985 1210.85,-15.9105 1133.36,-102.494 892.5,-29.6985 891.441,-29.3784 890.378,-29.004 889.322,-28.5877"/>
<polygon fill="green" stroke="green" stroke-width="0.130459" points="890.724,-25.3758 880.213,-24.0417 887.598,-31.639 890.724,-25.3758"/>
</g>
<!-- &#45;26&#45;&gt;1 -->
<g id="edge96" class="edge"><title>&#45;26&#45;&gt;1</title>
<path fill="none" stroke="red" stroke-width="0.177238" d="M1465.55,-67.9349C1462.9,-67.0753 1460.14,-66.283 1457.5,-65.6985 1281.33,-26.7196 1062.92,-18.1502 989.726,-16.3259"/>
<polygon fill="red" stroke="red" stroke-width="0.177238" points="989.704,-12.8246 979.627,-16.0951 989.544,-19.8227 989.704,-12.8246"/>
</g>
<!-- &#45;26&#45;&gt;2 -->
<g id="edge97" class="edge"><title>&#45;26&#45;&gt;2</title>
<path fill="none" stroke="red" stroke-width="0.237452" d="M1465.57,-67.8408C1462.92,-66.9917 1460.15,-66.2273 1457.5,-65.6985 1189.85,-12.3622 1105.94,-108.005 844.5,-29.6985 843.44,-29.381 842.377,-29.0088 841.32,-28.5942"/>
<polygon fill="red" stroke="red" stroke-width="0.237452" points="842.72,-25.3819 832.209,-24.0547 839.599,-31.6472 842.72,-25.3819"/>
</g>
<!-- &#45;26&#45;&gt;3 -->
<g id="edge98" class="edge"><title>&#45;26&#45;&gt;3</title>
<path fill="none" stroke="green" stroke-width="0.137273" d="M1465.57,-67.8651C1462.91,-67.0133 1460.15,-66.2417 1457.5,-65.6985 1231.86,-19.4577 1160.79,-96.9848 940.5,-29.6985 939.442,-29.3753 938.38,-28.9983 937.324,-28.58"/>
<polygon fill="green" stroke="green" stroke-width="0.137273" points="938.727,-25.3685 928.218,-24.0264 935.596,-31.6294 938.727,-25.3685"/>
</g>
<!-- &#45;27 -->
<g id="node27" class="node"><title>&#45;27</title>
<polygon fill="lightgray" stroke="black" points="1542,-83.6985 1513,-83.6985 1513,-65.6985 1542,-65.6985 1542,-83.6985"/>
<text text-anchor="middle" x="1527.5" y="-72.4985" font-family="Times New Roman,serif" font-size="9.00">&#45;27</text>
</g>
<!-- &#45;27&#45;&gt;0 -->
<g id="edge99" class="edge"><title>&#45;27&#45;&gt;0</title>
<path fill="none" stroke="green" stroke-width="0.262588" d="M1512.57,-67.841C1509.92,-66.9919 1507.15,-66.2274 1504.5,-65.6985 1237.29,-12.4362 1153.51,-107.89 892.5,-29.6985 891.44,-29.381 890.377,-29.0087 889.32,-28.5941"/>
<polygon fill="green" stroke="green" stroke-width="0.262588" points="890.721,-25.3818 880.209,-24.0544 887.599,-31.6471 890.721,-25.3818"/>
</g>
<!-- &#45;27&#45;&gt;1 -->
<g id="edge100" class="edge"><title>&#45;27&#45;&gt;1</title>
<path fill="none" stroke="red" stroke-width="0.733297" d="M1512.56,-67.9155C1509.9,-67.058 1507.14,-66.2715 1504.5,-65.6985 1309.81,-23.5095 1068.05,-17.0068 990.033,-16.0204"/>
<polygon fill="red" stroke="red" stroke-width="0.733297" points="989.772,-12.5175 979.736,-15.9112 989.698,-19.5171 989.772,-12.5175"/>
</g>
<!-- &#45;27&#45;&gt;2 -->
<g id="edge101" class="edge"><title>&#45;27&#45;&gt;2</title>
<path fill="none" stroke="red" stroke-width="0.433862" d="M1512.57,-67.8315C1509.92,-66.9834 1507.15,-66.2217 1504.5,-65.6985 1216.28,-8.88702 1126.09,-113.402 844.5,-29.6985 843.439,-29.3832 842.376,-29.0128 841.318,-28.5997"/>
<polygon fill="red" stroke="red" stroke-width="0.433862" points="842.718,-25.3871 832.206,-24.0656 839.599,-31.6541 842.718,-25.3871"/>
</g>
<!-- &#45;27&#45;&gt;3 -->
<g id="edge102" class="edge"><title>&#45;27&#45;&gt;3</title>
<path fill="none" stroke="red" stroke-width="0.628187" d="M1512.57,-67.8522C1509.92,-67.0018 1507.15,-66.234 1504.5,-65.6985 1258.29,-15.9844 1180.93,-102.379 940.5,-29.6985 939.441,-29.3783 938.378,-29.0039 937.322,-28.5876"/>
<polygon fill="red" stroke="red" stroke-width="0.628187" points="938.724,-25.3756 928.213,-24.0414 935.598,-31.6389 938.724,-25.3756"/>
</g>
<!-- &#45;28 -->
<g id="node28" class="node"><title>&#45;28</title>
<polygon fill="lightgray" stroke="black" points="1589,-83.6985 1560,-83.6985 1560,-65.6985 1589,-65.6985 1589,-83.6985"/>
<text text-anchor="middle" x="1574.5" y="-72.4985" font-family="Times New Roman,serif" font-size="9.00">&#45;28</text>
</g>
<!-- &#45;28&#45;&gt;0 -->
<g id="edge103" class="edge"><title>&#45;28&#45;&gt;0</title>
<path fill="none" stroke="green" stroke-width="0.552512" d="M1559.57,-67.8317C1556.92,-66.9835 1554.15,-66.2219 1551.5,-65.6985 1263.71,-8.96097 1173.66,-113.287 892.5,-29.6985 891.439,-29.3832 890.376,-29.0127 889.318,-28.5996"/>
<polygon fill="green" stroke="green" stroke-width="0.552512" points="890.718,-25.387 880.206,-24.0654 887.599,-31.6539 890.718,-25.387"/>
</g>
<!-- &#45;28&#45;&gt;1 -->
<g id="edge104" class="edge"><title>&#45;28&#45;&gt;1</title>
<path fill="none" stroke="green" stroke-width="0.21082" d="M1559.56,-67.8991C1556.91,-67.0435 1554.15,-66.2618 1551.5,-65.6985 1337.75,-20.1993 1071.87,-15.9251 989.799,-15.7554"/>
<polygon fill="green" stroke="green" stroke-width="0.21082" points="989.67,-12.2555 979.67,-15.7545 989.669,-19.2555 989.67,-12.2555"/>
</g>
<!-- &#45;28&#45;&gt;2 -->
<g id="edge105" class="edge"><title>&#45;28&#45;&gt;2</title>
<path fill="none" stroke="green" stroke-width="0.360108" d="M1559.58,-67.8234C1556.92,-66.9762 1554.16,-66.2169 1551.5,-65.6985 1242.7,-5.41117 1146.25,-118.8 844.5,-29.6985 843.439,-29.3851 842.375,-29.0163 841.317,-28.6045"/>
<polygon fill="green" stroke="green" stroke-width="0.360108" points="842.716,-25.3915 832.203,-24.075 839.6,-31.66 842.716,-25.3915"/>
</g>
<!-- &#45;28&#45;&gt;3 -->
<g id="edge106" class="edge"><title>&#45;28&#45;&gt;3</title>
<path fill="none" stroke="red" stroke-width="0.237367" d="M1559.57,-67.8412C1556.92,-66.992 1554.15,-66.2275 1551.5,-65.6985 1284.72,-12.5101 1201.08,-107.775 940.5,-29.6985 939.44,-29.3809 938.377,-29.0086 937.32,-28.594"/>
<polygon fill="red" stroke="red" stroke-width="0.237367" points="938.721,-25.3817 928.209,-24.0542 935.599,-31.6469 938.721,-25.3817"/>
</g>
<!-- &#45;29 -->
<g id="node29" class="node"><title>&#45;29</title>
<polygon fill="lightgray" stroke="black" points="1730,-83.6985 1701,-83.6985 1701,-65.6985 1730,-65.6985 1730,-83.6985"/>
<text text-anchor="middle" x="1715.5" y="-72.4985" font-family="Times New Roman,serif" font-size="9.00">&#45;29</text>
</g>
<!-- &#45;29&#45;&gt;1 -->
<g id="edge107" class="edge"><title>&#45;29&#45;&gt;1</title>
<path fill="none" stroke="red" stroke-width="0.282947" d="M1700.57,-67.8625C1697.91,-67.011 1695.15,-66.2401 1692.5,-65.6985 1553.6,-37.3177 1101.13,-20.4596 989.543,-16.6692"/>
<polygon fill="red" stroke="red" stroke-width="0.282947" points="989.391,-13.1622 979.28,-16.325 989.157,-20.1583 989.391,-13.1622"/>
</g>
<!-- &#45;29&#45;&gt;2 -->
<g id="edge108" class="edge"><title>&#45;29&#45;&gt;2</title>
<path fill="none" stroke="red" stroke-width="0.128242" stroke-dasharray="1,5" d="M1700.58,-67.8044C1697.92,-66.9593 1695.16,-66.2057 1692.5,-65.6985 1507.23,-30.3397 1025.62,-82.3487 844.5,-29.6985 843.438,-29.3896 842.372,-29.0245 841.313,-28.6156"/>
<polygon fill="red" stroke="red" stroke-width="0.128242" points="842.711,-25.402 832.197,-24.0971 839.602,-31.6739 842.711,-25.402"/>
</g>
<!-- &#45;29&#45;&gt;3 -->
<g id="edge109" class="edge"><title>&#45;29&#45;&gt;3</title>
<path fill="none" stroke="green" stroke-width="0.17484" d="M1700.58,-67.8166C1697.92,-66.9701 1695.16,-66.2129 1692.5,-65.6985 1528.25,-33.8906 1101.03,-76.834 940.5,-29.6985 939.438,-29.3868 938.374,-29.0193 937.315,-28.6085"/>
<polygon fill="green" stroke="green" stroke-width="0.17484" points="938.714,-25.3953 928.201,-24.083 935.601,-31.665 938.714,-25.3953"/>
</g>
<!-- &#45;30 -->
<g id="node30" class="node"><title>&#45;30</title>
<polygon fill="lightgray" stroke="black" points="1636,-83.6985 1607,-83.6985 1607,-65.6985 1636,-65.6985 1636,-83.6985"/>
<text text-anchor="middle" x="1621.5" y="-72.4985" font-family="Times New Roman,serif" font-size="9.00">&#45;30</text>
</g>
<!-- &#45;30&#45;&gt;0 -->
<g id="edge110" class="edge"><title>&#45;30&#45;&gt;0</title>
<path fill="none" stroke="red" stroke-width="0.206515" d="M1606.58,-67.8235C1603.92,-66.9763 1601.16,-66.217 1598.5,-65.6985 1290.14,-5.48513 1193.82,-118.685 892.5,-29.6985 891.439,-29.3851 890.375,-29.0162 889.317,-28.6044"/>
<polygon fill="red" stroke="red" stroke-width="0.206515" points="890.716,-25.3915 880.203,-24.0748 887.6,-31.6599 890.716,-25.3915"/>
</g>
<!-- &#45;30&#45;&gt;1 -->
<g id="edge111" class="edge"><title>&#45;30&#45;&gt;1</title>
<path fill="none" stroke="red" stroke-width="0.331761" d="M1606.56,-67.8851C1603.91,-67.031 1601.15,-66.2535 1598.5,-65.6985 1365.57,-16.8788 1075.41,-14.9301 989.536,-15.5331"/>
<polygon fill="red" stroke="red" stroke-width="0.331761" points="989.411,-12.034 979.443,-15.6234 989.474,-19.0337 989.411,-12.034"/>
</g>
<!-- &#45;30&#45;&gt;2 -->
<g id="edge112" class="edge"><title>&#45;30&#45;&gt;2</title>
<path fill="none" stroke="red" stroke-width="0.218784" d="M1606.58,-67.8163C1603.92,-66.9699 1601.16,-66.2127 1598.5,-65.6985 1433.81,-33.8166 1005.45,-76.9489 844.5,-29.6985 843.438,-29.3868 842.374,-29.0194 841.315,-28.6087"/>
<polygon fill="red" stroke="red" stroke-width="0.218784" points="842.714,-25.3955 832.201,-24.0833 839.601,-31.6652 842.714,-25.3955"/>
</g>
<!-- &#45;30&#45;&gt;3 -->
<g id="edge113" class="edge"><title>&#45;30&#45;&gt;3</title>
<path fill="none" stroke="red" stroke-width="0.132731" d="M1606.57,-67.8318C1603.92,-66.9837 1601.15,-66.222 1598.5,-65.6985 1311.15,-9.03491 1221.23,-113.172 940.5,-29.6985 939.439,-29.3831 938.376,-29.0127 937.318,-28.5995"/>
<polygon fill="red" stroke="red" stroke-width="0.132731" points="938.718,-25.3869 928.206,-24.0651 935.599,-31.6538 938.718,-25.3869"/>
</g>
<!-- &#45;31 -->
<g id="node31" class="node"><title>&#45;31</title>
<polygon fill="lightgray" stroke="black" points="1683,-83.6985 1654,-83.6985 1654,-65.6985 1683,-65.6985 1683,-83.6985"/>
<text text-anchor="middle" x="1668.5" y="-72.4985" font-family="Times New Roman,serif" font-size="9.00">&#45;31</text>
</g>
<!-- &#45;31&#45;&gt;0 -->
<g id="edge114" class="edge"><title>&#45;31&#45;&gt;0</title>
<path fill="none" stroke="red" stroke-width="0.351764" d="M1653.58,-67.8164C1650.92,-66.97 1648.16,-66.2128 1645.5,-65.6985 1481.03,-33.8536 1053.24,-76.8914 892.5,-29.6985 891.438,-29.3868 890.374,-29.0193 889.315,-28.6086"/>
<polygon fill="red" stroke="red" stroke-width="0.351764" points="890.714,-25.3954 880.201,-24.0831 887.601,-31.6651 890.714,-25.3954"/>
</g>
<!-- &#45;31&#45;&gt;1 -->
<g id="edge115" class="edge"><title>&#45;31&#45;&gt;1</title>
<path fill="none" stroke="green" stroke-width="0.413217" d="M1653.57,-67.8731C1650.91,-67.0203 1648.15,-66.2464 1645.5,-65.6985 1393.64,-13.6201 1079.57,-14.0094 989.621,-15.3398"/>
<polygon fill="green" stroke="green" stroke-width="0.413217" points="989.496,-11.8413 979.555,-15.5075 989.612,-18.8403 989.496,-11.8413"/>
</g>
<!-- &#45;31&#45;&gt;2 -->
<g id="edge116" class="edge"><title>&#45;31&#45;&gt;2</title>
<path fill="none" stroke="red" stroke-width="0.102445" d="M1653.58,-67.81C1650.92,-66.9643 1648.16,-66.209 1645.5,-65.6985 1470.52,-32.0782 1015.54,-79.6487 844.5,-29.6985 843.438,-29.3883 842.373,-29.0221 841.314,-28.6124"/>
<polygon fill="red" stroke="red" stroke-width="0.102445" points="842.712,-25.3989 832.198,-24.0906 839.602,-31.6698 842.712,-25.3989"/>
</g>
<!-- &#45;31&#45;&gt;3 -->
<g id="edge117" class="edge"><title>&#45;31&#45;&gt;3</title>
<path fill="none" stroke="green" stroke-width="0.197564" d="M1653.58,-67.8237C1650.92,-66.9765 1648.16,-66.2171 1645.5,-65.6985 1337.58,-5.55909 1241.39,-118.571 940.5,-29.6985 939.439,-29.3851 938.375,-29.0162 937.317,-28.6043"/>
<polygon fill="green" stroke="green" stroke-width="0.197564" points="938.716,-25.3914 928.203,-24.0746 935.6,-31.6598 938.716,-25.3914"/>
</g>
<!-- &#45;32 -->
<g id="node32" class="node"><title>&#45;32</title>
<polygon fill="lightgray" stroke="black" points="166,-83.6985 137,-83.6985 137,-65.6985 166,-65.6985 166,-83.6985"/>
<text text-anchor="middle" x="151.5" y="-72.4985" font-family="Times New Roman,serif" font-size="9.00">&#45;32</text>
</g>
<!-- &#45;32&#45;&gt;0 -->
<g id="edge118" class="edge"><title>&#45;32&#45;&gt;0</title>
<path fill="none" stroke="green" stroke-width="0.271253" d="M166.426,-67.8297C169.08,-66.9818 171.845,-66.2207 174.5,-65.6985 467.101,-8.14753 558.619,-114.551 844.5,-29.6985 845.561,-29.3837 846.625,-29.0136 847.682,-28.6008"/>
<polygon fill="green" stroke="green" stroke-width="0.271253" points="849.4,-31.6554 856.795,-24.0677 846.283,-25.3881 849.4,-31.6554"/>
</g>
<!-- &#45;32&#45;&gt;1 -->
<g id="edge119" class="edge"><title>&#45;32&#45;&gt;1</title>
<path fill="none" stroke="red" stroke-width="0.4011" stroke-dasharray="1,5" d="M166.423,-67.8146C169.078,-66.9684 171.843,-66.2117 174.5,-65.6985 341.816,-33.3728 776.972,-77.6382 940.5,-29.6985 941.562,-29.3872 942.626,-29.0201 943.685,-28.6097"/>
<polygon fill="red" stroke="red" stroke-width="0.4011" points="945.399,-31.6665 952.8,-24.0852 942.287,-25.3964 945.399,-31.6665"/>
</g>
<!-- &#45;32&#45;&gt;2 -->
<g id="edge120" class="edge"><title>&#45;32&#45;&gt;2</title>
<path fill="none" stroke="green" stroke-width="0.16828" d="M166.437,-67.8819C169.09,-67.0282 171.851,-66.2516 174.5,-65.6985 412.088,-16.0821 708.094,-14.6915 795.258,-15.4796"/>
<polygon fill="green" stroke="green" stroke-width="0.16828" points="795.237,-18.9795 805.275,-15.5891 795.314,-11.9799 795.237,-18.9795"/>
</g>
<!-- &#45;32&#45;&gt;3 -->
<g id="edge121" class="edge"><title>&#45;32&#45;&gt;3</title>
<path fill="none" stroke="green" stroke-width="0.468626" d="M166.425,-67.8216C169.079,-66.9746 171.844,-66.2159 174.5,-65.6985 331.308,-35.148 739.267,-74.8812 892.5,-29.6985 893.561,-29.3856 894.626,-29.0171 895.684,-28.6055"/>
<polygon fill="green" stroke="green" stroke-width="0.468626" points="897.4,-31.6613 904.798,-24.0771 894.285,-25.3925 897.4,-31.6613"/>
</g>
<!-- &#45;33 -->
<g id="node33" class="node"><title>&#45;33</title>
<polygon fill="lightgray" stroke="black" points="213,-83.6985 184,-83.6985 184,-65.6985 213,-65.6985 213,-83.6985"/>
<text text-anchor="middle" x="198.5" y="-72.4985" font-family="Times New Roman,serif" font-size="9.00">&#45;33</text>
</g>
<!-- &#45;33&#45;&gt;0 -->
<g id="edge122" class="edge"><title>&#45;33&#45;&gt;0</title>
<path fill="none" stroke="red" stroke-width="0.472695" stroke-dasharray="1,5" d="M213.428,-67.8387C216.082,-66.9898 218.846,-66.226 221.5,-65.6985 493.528,-11.6229 578.774,-109.153 844.5,-29.6985 845.56,-29.3815 846.623,-29.0097 847.681,-28.5955"/>
<polygon fill="red" stroke="red" stroke-width="0.472695" points="849.401,-31.6488 856.792,-24.0571 846.28,-25.3831 849.401,-31.6488"/>
</g>
<!-- &#45;33&#45;&gt;1 -->
<g id="edge123" class="edge"><title>&#45;33&#45;&gt;1</title>
<path fill="none" stroke="red" stroke-width="0.120946" d="M213.425,-67.8215C216.079,-66.9745 218.844,-66.2158 221.5,-65.6985 378.527,-35.1111 787.052,-74.9386 940.5,-29.6985 941.561,-29.3856 942.626,-29.0171 943.684,-28.6056"/>
<polygon fill="red" stroke="red" stroke-width="0.120946" points="945.4,-31.6614 952.798,-24.0772 942.285,-25.3926 945.4,-31.6614"/>
</g>
<!-- &#45;33&#45;&gt;2 -->
<g id="edge124" class="edge"><title>&#45;33&#45;&gt;2</title>
<path fill="none" stroke="red" stroke-width="0.194281" stroke-dasharray="1,5" d="M213.44,-67.8953C216.092,-67.0401 218.853,-66.2596 221.5,-65.6985 440.12,-19.3565 712.155,-15.664 795.244,-15.695"/>
<polygon fill="red" stroke="red" stroke-width="0.194281" points="795.472,-19.1954 805.481,-15.7191 795.489,-12.1954 795.472,-19.1954"/>
</g>
<!-- &#45;33&#45;&gt;3 -->
<g id="edge125" class="edge"><title>&#45;33&#45;&gt;3</title>
<path fill="none" stroke="red" stroke-width="0.355258" stroke-dasharray="1,5" d="M213.426,-67.8295C216.08,-66.9816 218.845,-66.2206 221.5,-65.6985 514.539,-8.07358 606.191,-114.665 892.5,-29.6985 893.561,-29.3837 894.625,-29.0137 895.682,-28.6009"/>
<polygon fill="red" stroke="red" stroke-width="0.355258" points="897.4,-31.6555 904.795,-24.0679 894.283,-25.3882 897.4,-31.6555"/>
</g>
<!-- &#45;34 -->
<g id="node34" class="node"><title>&#45;34</title>
<polygon fill="lightgray" stroke="black" points="260,-83.6985 231,-83.6985 231,-65.6985 260,-65.6985 260,-83.6985"/>
<text text-anchor="middle" x="245.5" y="-72.4985" font-family="Times New Roman,serif" font-size="9.00">&#45;34</text>
</g>
<!-- &#45;34&#45;&gt;0 -->
<g id="edge126" class="edge"><title>&#45;34&#45;&gt;0</title>
<path fill="none" stroke="red" stroke-width="0.471527" d="M260.062,-68.1768C263.139,-67.1994 266.396,-66.3023 269.5,-65.6985 520.844,-16.8024 599.353,-103.642 844.5,-29.6985 845.559,-29.379 846.622,-29.0051 847.679,-28.5892"/>
<polygon fill="red" stroke="red" stroke-width="0.471527" points="849.402,-31.6409 856.788,-24.0446 846.277,-25.3771 849.402,-31.6409"/>
</g>
<!-- &#45;34&#45;&gt;1 -->
<g id="edge127" class="edge"><title>&#45;34&#45;&gt;1</title>
<path fill="none" stroke="green" stroke-width="0.320909" d="M260.058,-68.1554C263.136,-67.1794 266.393,-66.2885 269.5,-65.6985 562.907,-9.97752 654.191,-114.665 940.5,-29.6985 941.561,-29.3837 942.625,-29.0137 943.682,-28.6009"/>
<polygon fill="green" stroke="green" stroke-width="0.320909" points="945.4,-31.6555 952.795,-24.0679 942.283,-25.3882 945.4,-31.6555"/>
</g>
<!-- &#45;34&#45;&gt;2 -->
<g id="edge128" class="edge"><title>&#45;34&#45;&gt;2</title>
<path fill="none" stroke="green" stroke-width="0.1894" d="M260.075,-68.2434C263.152,-67.2611 266.405,-66.3453 269.5,-65.6985 468.888,-24.036 716.052,-17.1911 795.007,-16.0687"/>
<polygon fill="green" stroke="green" stroke-width="0.1894" points="795.454,-19.5636 805.41,-15.9411 795.368,-12.5641 795.454,-19.5636"/>
</g>
<!-- &#45;34&#45;&gt;3 -->
<g id="edge129" class="edge"><title>&#45;34&#45;&gt;3</title>
<path fill="none" stroke="red" stroke-width="0.273826" d="M260.06,-68.1653C263.137,-67.1886 266.394,-66.2949 269.5,-65.6985 541.873,-13.3903 626.774,-109.153 892.5,-29.6985 893.56,-29.3815 894.623,-29.0097 895.681,-28.5955"/>
<polygon fill="red" stroke="red" stroke-width="0.273826" points="897.401,-31.6488 904.792,-24.0571 894.28,-25.3831 897.401,-31.6488"/>
</g>
<!-- &#45;35 -->
<g id="node35" class="node"><title>&#45;35</title>
<polygon fill="lightgray" stroke="black" points="1820,-83.6985 1791,-83.6985 1791,-65.6985 1820,-65.6985 1820,-83.6985"/>
<text text-anchor="middle" x="1805.5" y="-72.4985" font-family="Times New Roman,serif" font-size="9.00">&#45;35</text>
</g>
<!-- &#45;35&#45;&gt;0 -->
<g id="edge130" class="edge"><title>&#45;35&#45;&gt;0</title>
<path fill="none" stroke="red" stroke-width="0.127976" d="M1790.95,-68.1237C1787.87,-67.1501 1784.61,-66.2681 1781.5,-65.6985 1587.02,-30.085 1082.41,-84.7043 892.5,-29.6985 891.437,-29.3907 890.372,-29.0264 889.313,-28.6182"/>
<polygon fill="red" stroke="red" stroke-width="0.127976" points="890.71,-25.4045 880.195,-24.1022 887.603,-31.6772 890.71,-25.4045"/>
</g>
<!-- &#45;35&#45;&gt;1 -->
<g id="edge131" class="edge"><title>&#45;35&#45;&gt;1</title>
<path fill="none" stroke="red" stroke-width="0.386852" stroke-dasharray="1,5" d="M1790.94,-68.173C1787.86,-67.1958 1784.6,-66.2999 1781.5,-65.6985 1624.06,-35.1999 1109.17,-19.7312 989.504,-16.497"/>
<polygon fill="red" stroke="red" stroke-width="0.386852" points="989.565,-12.9975 979.475,-16.2298 989.378,-19.995 989.565,-12.9975"/>
</g>
<!-- &#45;35&#45;&gt;3 -->
<g id="edge132" class="edge"><title>&#45;35&#45;&gt;3</title>
<path fill="none" stroke="red" stroke-width="0.149942" d="M1790.95,-68.1293C1787.87,-67.1553 1784.61,-66.2717 1781.5,-65.6985 1597.54,-31.7924 1120.12,-81.9466 940.5,-29.6985 939.438,-29.3894 938.372,-29.0241 937.313,-28.6152"/>
<polygon fill="red" stroke="red" stroke-width="0.149942" points="938.711,-25.4016 928.197,-24.0962 935.602,-31.6734 938.711,-25.4016"/>
</g>
<!-- &#45;36 -->
<g id="node36" class="node"><title>&#45;36</title>
<polygon fill="lightgray" stroke="black" points="307,-83.6985 278,-83.6985 278,-65.6985 307,-65.6985 307,-83.6985"/>
<text text-anchor="middle" x="292.5" y="-72.4985" font-family="Times New Roman,serif" font-size="9.00">&#45;36</text>
</g>
<!-- &#45;36&#45;&gt;0 -->
<g id="edge133" class="edge"><title>&#45;36&#45;&gt;0</title>
<path fill="none" stroke="red" stroke-width="0.146316" d="M307.064,-68.1902C310.142,-67.2117 313.398,-66.311 316.5,-65.6985 547.258,-20.1423 619.499,-98.2471 844.5,-29.6985 845.558,-29.376 846.62,-28.9997 847.677,-28.5819"/>
<polygon fill="red" stroke="red" stroke-width="0.146316" points="849.403,-31.6317 856.783,-24.0301 846.274,-25.3703 849.403,-31.6317"/>
</g>
<!-- &#45;36&#45;&gt;1 -->
<g id="edge134" class="edge"><title>&#45;36&#45;&gt;1</title>
<path fill="none" stroke="red" stroke-width="0.606235" d="M307.06,-68.1651C310.137,-67.1884 313.394,-66.2947 316.5,-65.6985 589.312,-13.3192 674.345,-109.268 940.5,-29.6985 941.56,-29.3816 942.623,-29.0098 943.681,-28.5956"/>
<polygon fill="red" stroke="red" stroke-width="0.606235" points="945.401,-31.6489 952.792,-24.0574 942.28,-25.3832 945.401,-31.6489"/>
</g>
<!-- &#45;36&#45;&gt;2 -->
<g id="edge135" class="edge"><title>&#45;36&#45;&gt;2</title>
<path fill="none" stroke="green" stroke-width="0.13067" d="M307.079,-68.2634C310.156,-67.2797 313.407,-66.3582 316.5,-65.6985 497.263,-27.1383 720.99,-18.2929 795.243,-16.3622"/>
<polygon fill="green" stroke="green" stroke-width="0.13067" points="795.558,-19.8558 805.471,-16.1165 795.389,-12.8578 795.558,-19.8558"/>
</g>
<!-- &#45;36&#45;&gt;3 -->
<g id="edge136" class="edge"><title>&#45;36&#45;&gt;3</title>
<path fill="none" stroke="green" stroke-width="0.29472" d="M307.062,-68.1766C310.139,-67.1991 313.396,-66.3022 316.5,-65.6985 568.282,-16.7313 646.924,-103.757 892.5,-29.6985 893.559,-29.379 894.622,-29.0052 895.679,-28.5893"/>
<polygon fill="green" stroke="green" stroke-width="0.29472" points="897.402,-31.641 904.788,-24.0449 894.277,-25.3773 897.402,-31.641"/>
</g>
<!-- &#45;37 -->
<g id="node37" class="node"><title>&#45;37</title>
<polygon fill="lightgray" stroke="black" points="354,-83.6985 325,-83.6985 325,-65.6985 354,-65.6985 354,-83.6985"/>
<text text-anchor="middle" x="339.5" y="-72.4985" font-family="Times New Roman,serif" font-size="9.00">&#45;37</text>
</g>
<!-- &#45;37&#45;&gt;0 -->
<g id="edge137" class="edge"><title>&#45;37&#45;&gt;0</title>
<path fill="none" stroke="red" stroke-width="0.533724" d="M354.068,-68.2061C357.145,-67.2265 360.4,-66.3212 363.5,-65.6985 573.678,-23.481 639.638,-92.8542 844.5,-29.6985 845.557,-29.3725 846.618,-28.9933 847.674,-28.5731"/>
<polygon fill="red" stroke="red" stroke-width="0.533724" points="849.405,-31.6209 856.778,-24.0129 846.27,-25.3621 849.405,-31.6209"/>
</g>
<!-- &#45;37&#45;&gt;1 -->
<g id="edge138" class="edge"><title>&#45;37&#45;&gt;1</title>
<path fill="none" stroke="red" stroke-width="0.295315" d="M354.062,-68.1763C357.139,-67.1989 360.396,-66.302 363.5,-65.6985 615.72,-16.6602 694.496,-103.872 940.5,-29.6985 941.559,-29.3791 942.622,-29.0053 943.679,-28.5894"/>
<polygon fill="red" stroke="red" stroke-width="0.295315" points="945.402,-31.6412 952.788,-24.0452 942.277,-25.3774 945.402,-31.6412"/>
</g>
<!-- &#45;37&#45;&gt;2 -->
<g id="edge139" class="edge"><title>&#45;37&#45;&gt;2</title>
<path fill="none" stroke="green" stroke-width="0.425844" d="M354.085,-68.2875C357.161,-67.302 360.411,-66.3738 363.5,-65.6985 525.619,-30.2617 725.863,-19.5044 795.355,-16.7138"/>
<polygon fill="green" stroke="green" stroke-width="0.425844" points="795.857,-20.1973 805.716,-16.3189 795.59,-13.2024 795.857,-20.1973"/>
</g>
<!-- &#45;37&#45;&gt;3 -->
<g id="edge140" class="edge"><title>&#45;37&#45;&gt;3</title>
<path fill="none" stroke="red" stroke-width="0.320517" d="M354.064,-68.1899C357.142,-67.2114 360.398,-66.3108 363.5,-65.6985 594.696,-20.0713 667.07,-98.3619 892.5,-29.6985 893.558,-29.3761 894.62,-28.9998 895.677,-28.582"/>
<polygon fill="red" stroke="red" stroke-width="0.320517" points="897.403,-31.6319 904.784,-24.0305 894.274,-25.3704 897.403,-31.6319"/>
</g>
<!-- &#45;38 -->
<g id="node38" class="node"><title>&#45;38</title>
<polygon fill="lightgray" stroke="black" points="401,-83.6985 372,-83.6985 372,-65.6985 401,-65.6985 401,-83.6985"/>
<text text-anchor="middle" x="386.5" y="-72.4985" font-family="Times New Roman,serif" font-size="9.00">&#45;38</text>
</g>
<!-- &#45;38&#45;&gt;0 -->
<g id="edge141" class="edge"><title>&#45;38&#45;&gt;0</title>
<path fill="none" stroke="red" stroke-width="0.126971" d="M401.072,-68.2255C404.148,-67.2444 407.402,-66.3337 410.5,-65.6985 600.106,-26.8181 659.77,-87.4637 844.5,-29.6985 845.556,-29.3683 846.616,-28.9856 847.671,-28.5626"/>
<polygon fill="red" stroke="red" stroke-width="0.126971" points="849.406,-31.6077 856.772,-23.9919 846.265,-25.3522 849.406,-31.6077"/>
</g>
<!-- &#45;38&#45;&gt;1 -->
<g id="edge142" class="edge"><title>&#45;38&#45;&gt;1</title>
<path fill="none" stroke="green" stroke-width="0.191995" d="M401.064,-68.1896C404.142,-67.2112 407.398,-66.3106 410.5,-65.6985 642.134,-20.0002 714.642,-98.4767 940.5,-29.6985 941.558,-29.3762 942.62,-29 943.677,-28.5822"/>
<polygon fill="green" stroke="green" stroke-width="0.191995" points="945.403,-31.6322 952.784,-24.0308 942.274,-25.3706 945.403,-31.6322"/>
</g>
<!-- &#45;38&#45;&gt;2 -->
<g id="edge143" class="edge"><title>&#45;38&#45;&gt;2</title>
<path fill="none" stroke="green" stroke-width="0.535063" d="M401.091,-68.317C404.167,-67.3294 407.415,-66.3928 410.5,-65.6985 554.001,-33.4025 730.781,-20.8568 795.367,-17.1462"/>
<polygon fill="green" stroke="green" stroke-width="0.535063" points="795.631,-20.637 805.422,-16.5888 795.244,-13.6478 795.631,-20.637"/>
</g>
<!-- &#45;38&#45;&gt;3 -->
<g id="edge144" class="edge"><title>&#45;38&#45;&gt;3</title>
<path fill="none" stroke="green" stroke-width="0.350869" d="M401.068,-68.2057C404.145,-67.2262 407.4,-66.321 410.5,-65.6985 621.115,-23.41 687.21,-92.9689 892.5,-29.6985 893.557,-29.3726 894.618,-28.9935 895.674,-28.5733"/>
<polygon fill="green" stroke="green" stroke-width="0.350869" points="897.405,-31.6211 904.778,-24.0133 894.27,-25.3623 897.405,-31.6211"/>
</g>
<!-- &#45;39 -->
<g id="node39" class="node"><title>&#45;39</title>
<polygon fill="lightgray" stroke="black" points="448,-83.6985 419,-83.6985 419,-65.6985 448,-65.6985 448,-83.6985"/>
<text text-anchor="middle" x="433.5" y="-72.4985" font-family="Times New Roman,serif" font-size="9.00">&#45;39</text>
</g>
<!-- &#45;39&#45;&gt;0 -->
<g id="edge145" class="edge"><title>&#45;39&#45;&gt;0</title>
<path fill="none" stroke="green" stroke-width="0.519531" d="M448.077,-68.2494C451.153,-67.2667 454.405,-66.3492 457.5,-65.6985 626.546,-30.1527 679.89,-82.0768 844.5,-29.6985 845.554,-29.363 846.613,-28.976 847.667,-28.5495"/>
<polygon fill="green" stroke="green" stroke-width="0.519531" points="849.408,-31.5913 856.763,-23.9659 846.258,-25.34 849.408,-31.5913"/>
</g>
<!-- &#45;39&#45;&gt;1 -->
<g id="edge146" class="edge"><title>&#45;39&#45;&gt;1</title>
<path fill="none" stroke="red" stroke-width="0.31422" d="M448.067,-68.2054C451.145,-67.2258 454.4,-66.3208 457.5,-65.6985 668.553,-23.339 734.781,-93.0836 940.5,-29.6985 941.557,-29.3727 942.619,-28.9936 943.674,-28.5735"/>
<polygon fill="red" stroke="red" stroke-width="0.31422" points="945.405,-31.6214 952.778,-24.0137 942.27,-25.3625 945.405,-31.6214"/>
</g>
<!-- &#45;39&#45;&gt;2 -->
<g id="edge147" class="edge"><title>&#45;39&#45;&gt;2</title>
<path fill="none" stroke="green" stroke-width="0.16597" stroke-dasharray="1,5" d="M448.1,-68.354C451.175,-67.3637 454.42,-66.4167 457.5,-65.6985 582.337,-36.5857 735.563,-22.4181 795.133,-17.7061"/>
<polygon fill="green" stroke="green" stroke-width="0.16597" points="795.749,-21.1691 805.451,-16.9114 795.212,-14.1898 795.749,-21.1691"/>
</g>
<!-- &#45;39&#45;&gt;3 -->
<g id="edge148" class="edge"><title>&#45;39&#45;&gt;3</title>
<path fill="none" stroke="red" stroke-width="0.157128" d="M448.071,-68.225C451.148,-67.244 454.402,-66.3334 457.5,-65.6985 647.544,-26.7471 707.341,-87.5784 892.5,-29.6985 893.556,-29.3684 894.616,-28.9858 895.671,-28.5628"/>
<polygon fill="red" stroke="red" stroke-width="0.157128" points="897.406,-31.608 904.772,-23.9924 894.265,-25.3525 897.406,-31.608"/>
</g>
<!-- &#45;40 -->
<g id="node40" class="node"><title>&#45;40</title>
<polygon fill="lightgray" stroke="black" points="495,-83.6985 466,-83.6985 466,-65.6985 495,-65.6985 495,-83.6985"/>
<text text-anchor="middle" x="480.5" y="-72.4985" font-family="Times New Roman,serif" font-size="9.00">&#45;40</text>
</g>
<!-- &#45;40&#45;&gt;0 -->
<g id="edge149" class="edge"><title>&#45;40&#45;&gt;0</title>
<path fill="none" stroke="green" stroke-width="0.319193" d="M495.083,-68.28C498.159,-67.295 501.41,-66.3689 504.5,-65.6985 653.002,-33.484 699.994,-76.6948 844.5,-29.6985 845.552,-29.3563 846.609,-28.9638 847.661,-28.5328"/>
<polygon fill="green" stroke="green" stroke-width="0.319193" points="849.41,-31.5705 856.753,-23.9329 846.25,-25.3245 849.41,-31.5705"/>
</g>
<!-- &#45;40&#45;&gt;1 -->
<g id="edge150" class="edge"><title>&#45;40&#45;&gt;1</title>
<path fill="none" stroke="red" stroke-width="0.501476" d="M495.071,-68.2245C498.148,-67.2436 501.402,-66.3331 504.5,-65.6985 694.981,-26.6761 754.913,-87.693 940.5,-29.6985 941.556,-29.3685 942.616,-28.986 943.671,-28.5631"/>
<polygon fill="red" stroke="red" stroke-width="0.501476" points="945.406,-31.6083 952.772,-23.9929 942.265,-25.3527 945.406,-31.6083"/>
</g>
<!-- &#45;40&#45;&gt;2 -->
<g id="edge151" class="edge"><title>&#45;40&#45;&gt;2</title>
<path fill="none" stroke="red" stroke-width="0.399381" d="M495.111,-68.4017C498.185,-67.4079 501.428,-66.4474 504.5,-65.6985 611.298,-39.6645 741.842,-24.0894 795.577,-18.3623"/>
<polygon fill="red" stroke="red" stroke-width="0.399381" points="796.26,-21.8101 805.842,-17.2895 795.532,-14.8481 796.26,-21.8101"/>
</g>
<!-- &#45;40&#45;&gt;3 -->
<g id="edge152" class="edge"><title>&#45;40&#45;&gt;3</title>
<path fill="none" stroke="green" stroke-width="0.650271" stroke-dasharray="1,5" d="M495.076,-68.2489C498.153,-67.2662 501.405,-66.3488 504.5,-65.6985 673.983,-30.0818 727.462,-82.1913 892.5,-29.6985 893.554,-29.3631 894.613,-28.9762 895.667,-28.5498"/>
<polygon fill="green" stroke="green" stroke-width="0.650271" points="897.408,-31.5917 904.764,-23.9665 894.258,-25.3403 897.408,-31.5917"/>
</g>
</g>
</svg>
