<?xml version="1.0" encoding="UTF-8" standalone="no"?>
<!DOCTYPE svg PUBLIC "-//W3C//DTD SVG 1.1//EN"
 "http://www.w3.org/Graphics/SVG/1.1/DTD/svg11.dtd">
<!-- Generated by graphviz version 2.38.0 (20140413.2041)
 -->
<!-- Title: %3 Pages: 1 -->
<svg width="1828pt" height="92pt"
 viewBox="0.00 0.00 1827.50 91.70" xmlns="http://www.w3.org/2000/svg" xmlns:xlink="http://www.w3.org/1999/xlink">
<g id="graph0" class="graph" transform="scale(1 1) rotate(0) translate(4 87.6985)">
<title>%3</title>
<polygon fill="white" stroke="none" points="-4,4 -4,-87.6985 1823.5,-87.6985 1823.5,4 -4,4"/>
<!-- &#45;1 -->
<g id="node1" class="node"><title>&#45;1</title>
<polygon fill="lightgray" stroke="black" points="674,-83.6985 650,-83.6985 650,-65.6985 674,-65.6985 674,-83.6985"/>
<text text-anchor="middle" x="662" y="-72.4985" font-family="Times New Roman,serif" font-size="9.00">&#45;1</text>
</g>
<!-- 0 -->
<g id="node41" class="node"><title>0</title>
<ellipse fill="lightblue" stroke="black" cx="830" cy="-14.8492" rx="14.7" ry="14.7"/>
<text text-anchor="middle" x="830" y="-12.6492" font-family="Times New Roman,serif" font-size="9.00">0</text>
</g>
<!-- &#45;1&#45;&gt;0 -->
<g id="edge1" class="edge"><title>&#45;1&#45;&gt;0</title>
<path fill="none" stroke="red" stroke-width="0.118956" d="M674.409,-68.8843C677.226,-67.8155 680.21,-66.7025 683,-65.6985 726.359,-50.0939 777.382,-33.0942 806.484,-23.5257"/>
<polygon fill="red" stroke="red" stroke-width="0.118956" points="807.748,-26.7947 816.159,-20.353 805.567,-20.1432 807.748,-26.7947"/>
</g>
<!-- 1 -->
<g id="node42" class="node"><title>1</title>
<ellipse fill="lightblue" stroke="black" cx="878" cy="-14.8492" rx="14.7" ry="14.7"/>
<text text-anchor="middle" x="878" y="-12.6492" font-family="Times New Roman,serif" font-size="9.00">1</text>
</g>
<!-- &#45;1&#45;&gt;1 -->
<g id="edge2" class="edge"><title>&#45;1&#45;&gt;1</title>
<path fill="none" stroke="red" stroke-width="0.20073" stroke-dasharray="1,5" d="M674.327,-68.6346C677.149,-67.5788 680.155,-66.5342 683,-65.6985 757.517,-43.8072 781.462,-57.4529 854,-29.6985 854.865,-29.3676 855.735,-29.0081 856.606,-28.6262"/>
<polygon fill="red" stroke="red" stroke-width="0.20073" points="858.379,-31.65 865.666,-23.9596 855.174,-25.427 858.379,-31.65"/>
</g>
<!-- 2 -->
<g id="node43" class="node"><title>2</title>
<ellipse fill="lightblue" stroke="black" cx="974" cy="-14.8492" rx="14.7" ry="14.7"/>
<text text-anchor="middle" x="974" y="-12.6492" font-family="Times New Roman,serif" font-size="9.00">2</text>
</g>
<!-- &#45;1&#45;&gt;2 -->
<g id="edge3" class="edge"><title>&#45;1&#45;&gt;2</title>
<path fill="none" stroke="green" stroke-width="0.28385" d="M674.284,-68.4788C677.108,-67.4311 680.126,-66.4292 683,-65.6985 799.048,-36.1901 836.67,-68.3521 950,-29.6985 950.876,-29.3995 951.757,-29.0673 952.636,-28.7083"/>
<polygon fill="green" stroke="green" stroke-width="0.28385" points="954.363,-31.7578 961.735,-24.1485 951.226,-25.4996 954.363,-31.7578"/>
</g>
<!-- 3 -->
<g id="node44" class="node"><title>3</title>
<ellipse fill="lightblue" stroke="black" cx="926" cy="-14.8492" rx="14.7" ry="14.7"/>
<text text-anchor="middle" x="926" y="-12.6492" font-family="Times New Roman,serif" font-size="9.00">3</text>
</g>
<!-- &#45;1&#45;&gt;3 -->
<g id="edge4" class="edge"><title>&#45;1&#45;&gt;3</title>
<path fill="none" stroke="red" stroke-width="0.237969" d="M674.3,-68.5403C677.123,-67.4894 680.137,-66.4706 683,-65.6985 778.236,-40.0112 809.111,-62.8864 902,-29.6985 902.872,-29.3869 903.749,-29.0439 904.624,-28.6759"/>
<polygon fill="red" stroke="red" stroke-width="0.237969" points="906.37,-31.7152 913.709,-24.0739 903.206,-25.4707 906.37,-31.7152"/>
</g>
<!-- &#45;2 -->
<g id="node2" class="node"><title>&#45;2</title>
<polygon fill="lightgray" stroke="black" points="716,-83.6985 692,-83.6985 692,-65.6985 716,-65.6985 716,-83.6985"/>
<text text-anchor="middle" x="704" y="-72.4985" font-family="Times New Roman,serif" font-size="9.00">&#45;2</text>
</g>
<!-- &#45;2&#45;&gt;0 -->
<g id="edge5" class="edge"><title>&#45;2&#45;&gt;0</title>
<path fill="none" stroke="green" stroke-width="0.214603" d="M716.081,-68.1517C737.055,-58.5224 780.515,-38.5687 807.278,-26.2816"/>
<polygon fill="green" stroke="green" stroke-width="0.214603" points="809.008,-29.3387 816.635,-21.9854 806.087,-22.9771 809.008,-29.3387"/>
</g>
<!-- &#45;2&#45;&gt;1 -->
<g id="edge6" class="edge"><title>&#45;2&#45;&gt;1</title>
<path fill="none" stroke="green" stroke-width="0.147376" d="M716.369,-68.7703C719.189,-67.7075 722.184,-66.6257 725,-65.6985 781.538,-47.0837 799.123,-52.7554 854,-29.6985 854.854,-29.3398 855.715,-28.9567 856.577,-28.555"/>
<polygon fill="green" stroke="green" stroke-width="0.147376" points="858.388,-31.5567 865.601,-23.7955 855.123,-25.3652 858.388,-31.5567"/>
</g>
<!-- &#45;2&#45;&gt;2 -->
<g id="edge7" class="edge"><title>&#45;2&#45;&gt;2</title>
<path fill="none" stroke="red" stroke-width="0.141167" stroke-dasharray="1,5" d="M716.298,-68.5312C719.121,-67.4808 722.136,-66.4645 725,-65.6985 822.834,-39.5346 854.56,-63.5683 950,-29.6985 950.873,-29.3888 951.75,-29.0473 952.626,-28.6807"/>
<polygon fill="red" stroke="red" stroke-width="0.141167" points="954.369,-31.7215 961.713,-24.0849 951.209,-25.475 954.369,-31.7215"/>
</g>
<!-- &#45;2&#45;&gt;3 -->
<g id="edge8" class="edge"><title>&#45;2&#45;&gt;3</title>
<path fill="none" stroke="green" stroke-width="0.267999" stroke-dasharray="1,5" d="M716.323,-68.6202C719.145,-67.5651 722.152,-66.5245 725,-65.6985 802.099,-43.3348 826.926,-58.1294 902,-29.6985 902.866,-29.3705 903.738,-29.0136 904.609,-28.6338"/>
<polygon fill="green" stroke="green" stroke-width="0.267999" points="906.378,-31.66 913.673,-23.9771 903.179,-25.4336 906.378,-31.66"/>
</g>
<!-- &#45;3 -->
<g id="node3" class="node"><title>&#45;3</title>
<polygon fill="lightgray" stroke="black" points="758,-83.6985 734,-83.6985 734,-65.6985 758,-65.6985 758,-83.6985"/>
<text text-anchor="middle" x="746" y="-72.4985" font-family="Times New Roman,serif" font-size="9.00">&#45;3</text>
</g>
<!-- &#45;3&#45;&gt;0 -->
<g id="edge9" class="edge"><title>&#45;3&#45;&gt;0</title>
<path fill="none" stroke="green" stroke-width="0.289222" d="M757.68,-65.6548C771.145,-56.3818 793.512,-40.978 809.812,-29.7523"/>
<polygon fill="green" stroke="green" stroke-width="0.289222" points="811.898,-32.5656 818.149,-24.0111 807.927,-26.8005 811.898,-32.5656"/>
</g>
<!-- &#45;3&#45;&gt;1 -->
<g id="edge10" class="edge"><title>&#45;3&#45;&gt;1</title>
<path fill="none" stroke="green" stroke-width="0.104972" d="M758.08,-69.0178C782.338,-59.5788 836.178,-38.4203 854,-29.6985 854.832,-29.2914 855.674,-28.8673 856.521,-28.4309"/>
<polygon fill="green" stroke="green" stroke-width="0.104972" points="858.394,-31.395 865.471,-23.5099 855.022,-25.2611 858.394,-31.395"/>
</g>
<!-- &#45;3&#45;&gt;2 -->
<g id="edge11" class="edge"><title>&#45;3&#45;&gt;2</title>
<path fill="none" stroke="red" stroke-width="0.284689" d="M758.319,-68.6066C761.141,-67.5523 764.15,-66.5154 767,-65.6985 846.684,-42.8617 872.387,-58.8068 950,-29.6985 950.867,-29.3733 951.739,-29.0187 952.611,-28.641"/>
<polygon fill="red" stroke="red" stroke-width="0.284689" points="954.376,-31.6694 961.679,-23.9935 951.184,-25.4399 954.376,-31.6694"/>
</g>
<!-- &#45;3&#45;&gt;3 -->
<g id="edge12" class="edge"><title>&#45;3&#45;&gt;3</title>
<path fill="none" stroke="red" stroke-width="0.228936" stroke-dasharray="1,5" d="M758.361,-68.7462C761.181,-67.6846 764.178,-66.6095 767,-65.6985 826.093,-46.6199 844.613,-53.4211 902,-29.6985 902.856,-29.3447 903.719,-28.9658 904.583,-28.5676"/>
<polygon fill="red" stroke="red" stroke-width="0.228936" points="906.387,-31.5733 913.613,-23.8246 903.132,-25.3761 906.387,-31.5733"/>
</g>
<!-- &#45;4 -->
<g id="node4" class="node"><title>&#45;4</title>
<polygon fill="lightgray" stroke="black" points="800,-83.6985 776,-83.6985 776,-65.6985 800,-65.6985 800,-83.6985"/>
<text text-anchor="middle" x="788" y="-72.4985" font-family="Times New Roman,serif" font-size="9.00">&#45;4</text>
</g>
<!-- &#45;4&#45;&gt;0 -->
<g id="edge13" class="edge"><title>&#45;4&#45;&gt;0</title>
<path fill="none" stroke="green" stroke-width="0.225333" d="M793.84,-65.6548C799.475,-57.8934 808.228,-45.8369 815.711,-35.5302"/>
<polygon fill="green" stroke="green" stroke-width="0.225333" points="818.559,-37.5653 821.602,-27.4169 812.894,-33.4527 818.559,-37.5653"/>
</g>
<!-- &#45;4&#45;&gt;1 -->
<g id="edge14" class="edge"><title>&#45;4&#45;&gt;1</title>
<path fill="none" stroke="green" stroke-width="0.408938" d="M800.138,-65.8967C814.765,-56.4946 839.578,-40.5455 857.262,-29.1793"/>
<polygon fill="green" stroke="green" stroke-width="0.408938" points="859.247,-32.0635 865.767,-23.7122 855.462,-26.175 859.247,-32.0635"/>
</g>
<!-- &#45;4&#45;&gt;2 -->
<g id="edge15" class="edge"><title>&#45;4&#45;&gt;2</title>
<path fill="none" stroke="red" stroke-width="0.414942" d="M800.354,-68.724C803.174,-67.6635 806.174,-66.5945 809,-65.6985 870.653,-46.1544 890.098,-54.089 950,-29.6985 950.858,-29.3493 951.722,-28.9742 952.587,-28.5793"/>
<polygon fill="red" stroke="red" stroke-width="0.414942" points="954.386,-31.5885 961.624,-23.8515 951.141,-25.3861 954.386,-31.5885"/>
</g>
<!-- &#45;4&#45;&gt;3 -->
<g id="edge16" class="edge"><title>&#45;4&#45;&gt;3</title>
<path fill="none" stroke="green" stroke-width="0.459211" d="M800.011,-69.1201C828.306,-58.3269 897.143,-32.0199 902,-29.6985 902.836,-29.2991 903.681,-28.8815 904.53,-28.4507"/>
<polygon fill="green" stroke="green" stroke-width="0.459211" points="906.394,-31.4207 913.493,-23.5555 903.039,-25.2774 906.394,-31.4207"/>
</g>
<!-- &#45;5 -->
<g id="node5" class="node"><title>&#45;5</title>
<polygon fill="lightgray" stroke="black" points="842,-83.6985 818,-83.6985 818,-65.6985 842,-65.6985 842,-83.6985"/>
<text text-anchor="middle" x="830" y="-72.4985" font-family="Times New Roman,serif" font-size="9.00">&#45;5</text>
</g>
<!-- &#45;5&#45;&gt;0 -->
<g id="edge17" class="edge"><title>&#45;5&#45;&gt;0</title>
<path fill="none" stroke="green" stroke-width="0.379141" d="M830,-65.6548C830,-59.0498 830,-49.3344 830,-40.2339"/>
<polygon fill="green" stroke="green" stroke-width="0.379141" points="833.5,-40.0563 830,-30.0563 826.5,-40.0564 833.5,-40.0563"/>
</g>
<!-- &#45;5&#45;&gt;1 -->
<g id="edge18" class="edge"><title>&#45;5&#45;&gt;1</title>
<path fill="none" stroke="green" stroke-width="0.191376" d="M836.674,-65.6548C843.26,-57.7178 853.572,-45.2891 862.248,-34.8334"/>
<polygon fill="green" stroke="green" stroke-width="0.191376" points="865.06,-36.9253 868.752,-26.9946 859.673,-32.4555 865.06,-36.9253"/>
</g>
<!-- &#45;5&#45;&gt;2 -->
<g id="edge19" class="edge"><title>&#45;5&#45;&gt;2</title>
<path fill="none" stroke="green" stroke-width="0.299449" d="M842.425,-68.9293C845.242,-67.8583 848.221,-66.7329 851,-65.6985 894.877,-49.3644 907.563,-49.474 950,-29.6985 950.839,-29.3073 951.688,-28.8967 952.54,-28.4717"/>
<polygon fill="green" stroke="green" stroke-width="0.299449" points="954.394,-31.4481 961.516,-23.6039 951.057,-25.2948 954.394,-31.4481"/>
</g>
<!-- &#45;5&#45;&gt;3 -->
<g id="edge20" class="edge"><title>&#45;5&#45;&gt;3</title>
<path fill="none" stroke="green" stroke-width="0.178615" d="M842.158,-66.3718C857.941,-56.8613 885.734,-40.1132 904.971,-28.5212"/>
<polygon fill="green" stroke="green" stroke-width="0.178615" points="906.878,-31.4583 913.637,-23.2991 903.265,-25.4627 906.878,-31.4583"/>
</g>
<!-- &#45;6 -->
<g id="node6" class="node"><title>&#45;6</title>
<polygon fill="lightgray" stroke="black" points="161,-83.6985 137,-83.6985 137,-65.6985 161,-65.6985 161,-83.6985"/>
<text text-anchor="middle" x="149" y="-72.4985" font-family="Times New Roman,serif" font-size="9.00">&#45;6</text>
</g>
<!-- &#45;6&#45;&gt;0 -->
<g id="edge21" class="edge"><title>&#45;6&#45;&gt;0</title>
<path fill="none" stroke="red" stroke-width="0.458205" d="M161.391,-68.5246C164.481,-67.421 167.822,-66.383 171,-65.6985 413.557,-13.4575 716.566,-13.9047 804.814,-15.3031"/>
<polygon fill="red" stroke="red" stroke-width="0.458205" points="804.876,-18.8046 814.937,-15.4836 805.001,-11.8057 804.876,-18.8046"/>
</g>
<!-- &#45;6&#45;&gt;1 -->
<g id="edge22" class="edge"><title>&#45;6&#45;&gt;1</title>
<path fill="none" stroke="green" stroke-width="0.105682" d="M161.38,-68.4731C164.471,-67.371 167.814,-66.3467 171,-65.6985 468.874,-5.09446 562.544,-116.044 854,-29.6985 855.061,-29.3842 856.125,-29.0146 857.183,-28.6021"/>
<polygon fill="green" stroke="green" stroke-width="0.105682" points="858.9,-31.6571 866.296,-24.0704 855.783,-25.3893 858.9,-31.6571"/>
</g>
<!-- &#45;6&#45;&gt;2 -->
<g id="edge23" class="edge"><title>&#45;6&#45;&gt;2</title>
<path fill="none" stroke="green" stroke-width="0.391638" d="M161.377,-68.4585C164.468,-67.3568 167.812,-66.3364 171,-65.6985 340.928,-31.6988 783.684,-78.3849 950,-29.6985 951.062,-29.3876 952.127,-29.0209 953.185,-28.6107"/>
<polygon fill="green" stroke="green" stroke-width="0.391638" points="954.899,-31.6678 962.301,-24.0873 951.787,-25.3974 954.899,-31.6678"/>
</g>
<!-- &#45;7 -->
<g id="node7" class="node"><title>&#45;7</title>
<polygon fill="lightgray" stroke="black" points="884,-83.6985 860,-83.6985 860,-65.6985 884,-65.6985 884,-83.6985"/>
<text text-anchor="middle" x="872" y="-72.4985" font-family="Times New Roman,serif" font-size="9.00">&#45;7</text>
</g>
<!-- &#45;7&#45;&gt;0 -->
<g id="edge24" class="edge"><title>&#45;7&#45;&gt;0</title>
<path fill="none" stroke="red" stroke-width="0.186395" d="M866.16,-65.6548C860.525,-57.8934 851.772,-45.8369 844.289,-35.5302"/>
<polygon fill="red" stroke="red" stroke-width="0.186395" points="847.106,-33.4527 838.398,-27.4169 841.441,-37.5653 847.106,-33.4527"/>
</g>
<!-- &#45;7&#45;&gt;1 -->
<g id="edge25" class="edge"><title>&#45;7&#45;&gt;1</title>
<path fill="none" stroke="red" stroke-width="0.526556" d="M872.834,-65.6548C873.519,-59.0498 874.527,-49.3344 875.471,-40.2339"/>
<polygon fill="red" stroke="red" stroke-width="0.526556" points="878.976,-40.3641 876.526,-30.0563 872.013,-39.6419 878.976,-40.3641"/>
</g>
<!-- &#45;7&#45;&gt;2 -->
<g id="edge26" class="edge"><title>&#45;7&#45;&gt;2</title>
<path fill="none" stroke="green" stroke-width="0.252147" d="M884.18,-66.876C899.547,-58.2577 926.773,-42.951 950,-29.6985 950.804,-29.2396 951.623,-28.7714 952.45,-28.2978"/>
<polygon fill="green" stroke="green" stroke-width="0.252147" points="954.385,-31.223 961.309,-23.2036 950.895,-25.1548 954.385,-31.223"/>
</g>
<!-- &#45;7&#45;&gt;3 -->
<g id="edge27" class="edge"><title>&#45;7&#45;&gt;3</title>
<path fill="none" stroke="green" stroke-width="0.383798" d="M879.508,-65.6548C887.175,-57.4413 899.332,-44.4177 909.292,-33.7481"/>
<polygon fill="green" stroke="green" stroke-width="0.383798" points="912.104,-35.8649 916.369,-26.1665 906.987,-31.0883 912.104,-35.8649"/>
</g>
<!-- &#45;8 -->
<g id="node8" class="node"><title>&#45;8</title>
<polygon fill="lightgray" stroke="black" points="926,-83.6985 902,-83.6985 902,-65.6985 926,-65.6985 926,-83.6985"/>
<text text-anchor="middle" x="914" y="-72.4985" font-family="Times New Roman,serif" font-size="9.00">&#45;8</text>
</g>
<!-- &#45;8&#45;&gt;0 -->
<g id="edge28" class="edge"><title>&#45;8&#45;&gt;0</title>
<path fill="none" stroke="green" stroke-width="0.105293" d="M902.32,-65.6548C888.855,-56.3818 866.488,-40.978 850.188,-29.7523"/>
<polygon fill="green" stroke="green" stroke-width="0.105293" points="852.073,-26.8005 841.851,-24.0111 848.102,-32.5656 852.073,-26.8005"/>
</g>
<!-- &#45;8&#45;&gt;1 -->
<g id="edge29" class="edge"><title>&#45;8&#45;&gt;1</title>
<path fill="none" stroke="green" stroke-width="0.244654" d="M908.994,-65.6548C904.32,-58.1437 897.143,-46.6101 890.871,-36.5326"/>
<polygon fill="green" stroke="green" stroke-width="0.244654" points="893.72,-34.4854 885.465,-27.8444 887.777,-38.1839 893.72,-34.4854"/>
</g>
<!-- &#45;8&#45;&gt;2 -->
<g id="edge30" class="edge"><title>&#45;8&#45;&gt;2</title>
<path fill="none" stroke="red" stroke-width="0.575737" d="M922.343,-65.6548C931.133,-57.1793 945.236,-43.5822 956.487,-32.7347"/>
<polygon fill="red" stroke="red" stroke-width="0.575737" points="958.95,-35.2215 963.72,-25.761 954.091,-30.1823 958.95,-35.2215"/>
</g>
<!-- &#45;8&#45;&gt;3 -->
<g id="edge31" class="edge"><title>&#45;8&#45;&gt;3</title>
<path fill="none" stroke="green" stroke-width="0.438475" d="M915.669,-65.6548C917.072,-58.8878 919.153,-48.8559 921.08,-39.5653"/>
<polygon fill="green" stroke="green" stroke-width="0.438475" points="924.543,-40.107 923.147,-29.6046 917.688,-38.6852 924.543,-40.107"/>
</g>
<!-- &#45;9 -->
<g id="node9" class="node"><title>&#45;9</title>
<polygon fill="lightgray" stroke="black" points="24,-83.6985 0,-83.6985 0,-65.6985 24,-65.6985 24,-83.6985"/>
<text text-anchor="middle" x="12" y="-72.4985" font-family="Times New Roman,serif" font-size="9.00">&#45;9</text>
</g>
<!-- &#45;9&#45;&gt;0 -->
<g id="edge32" class="edge"><title>&#45;9&#45;&gt;0</title>
<path fill="none" stroke="red" stroke-width="0.105928" stroke-dasharray="1,5" d="M24.2484,-68.3257C27.0739,-67.2859 30.1021,-66.3259 33,-65.6985 185.595,-32.6597 686.624,-19.1698 804.846,-16.4046"/>
<polygon fill="red" stroke="red" stroke-width="0.105928" points="805.15,-19.8986 815.067,-16.1701 804.989,-12.9004 805.15,-19.8986"/>
</g>
<!-- &#45;9&#45;&gt;1 -->
<g id="edge33" class="edge"><title>&#45;9&#45;&gt;1</title>
<path fill="none" stroke="red" stroke-width="0.249336" d="M24.2399,-68.2856C27.0659,-67.2479 30.0963,-66.2989 33,-65.6985 211.837,-28.7198 678.675,-80.7976 854,-29.6985 855.062,-29.3889 856.127,-29.0231 857.186,-28.6138"/>
<polygon fill="red" stroke="red" stroke-width="0.249336" points="858.898,-31.6716 866.302,-24.0935 855.788,-25.4003 858.898,-31.6716"/>
</g>
<!-- &#45;9&#45;&gt;3 -->
<g id="edge34" class="edge"><title>&#45;9&#45;&gt;3</title>
<path fill="none" stroke="green" stroke-width="0.62181" d="M24.2388,-68.2804C27.0649,-67.2429 30.0956,-66.2954 33,-65.6985 222.32,-26.7907 716.378,-83.5552 902,-29.6985 903.063,-29.3902 904.128,-29.0255 905.187,-28.617"/>
<polygon fill="green" stroke="green" stroke-width="0.62181" points="906.898,-31.6756 914.304,-24.0998 903.79,-25.4033 906.898,-31.6756"/>
</g>
<!-- &#45;10 -->
<g id="node10" class="node"><title>&#45;10</title>
<polygon fill="lightgray" stroke="black" points="1772.5,-83.6985 1743.5,-83.6985 1743.5,-65.6985 1772.5,-65.6985 1772.5,-83.6985"/>
<text text-anchor="middle" x="1758" y="-72.4985" font-family="Times New Roman,serif" font-size="9.00">&#45;10</text>
</g>
<!-- &#45;10&#45;&gt;0 -->
<g id="edge35" class="edge"><title>&#45;10&#45;&gt;0</title>
<path fill="none" stroke="red" stroke-width="0.100805" d="M1743.08,-67.8009C1740.42,-66.9562 1737.66,-66.2036 1735,-65.6985 1542.5,-29.1189 1042.2,-84.2447 854,-29.6985 852.937,-29.3905 851.872,-29.026 850.813,-28.6177"/>
<polygon fill="red" stroke="red" stroke-width="0.100805" points="852.21,-25.404 841.695,-24.1013 849.103,-31.6766 852.21,-25.404"/>
</g>
<!-- &#45;10&#45;&gt;2 -->
<g id="edge36" class="edge"><title>&#45;10&#45;&gt;2</title>
<path fill="none" stroke="red" stroke-width="0.283155" d="M1743.07,-67.8559C1740.42,-67.0051 1737.65,-66.2362 1735,-65.6985 1589.33,-36.1583 1113.81,-20.0898 999.079,-16.585"/>
<polygon fill="red" stroke="red" stroke-width="0.283155" points="998.943,-13.0795 988.843,-16.2766 998.733,-20.0763 998.943,-13.0795"/>
</g>
<!-- &#45;10&#45;&gt;3 -->
<g id="edge37" class="edge"><title>&#45;10&#45;&gt;3</title>
<path fill="none" stroke="green" stroke-width="0.179775" d="M1743.08,-67.8121C1740.42,-66.9661 1737.66,-66.2102 1735,-65.6985 1563.52,-32.6701 1117.6,-78.7296 950,-29.6985 948.938,-29.3878 947.873,-29.0212 946.815,-28.6112"/>
<polygon fill="green" stroke="green" stroke-width="0.179775" points="948.213,-25.3978 937.699,-24.0882 945.101,-31.6683 948.213,-25.3978"/>
</g>
<!-- &#45;11 -->
<g id="node11" class="node"><title>&#45;11</title>
<polygon fill="lightgray" stroke="black" points="973.5,-83.6985 944.5,-83.6985 944.5,-65.6985 973.5,-65.6985 973.5,-83.6985"/>
<text text-anchor="middle" x="959" y="-72.4985" font-family="Times New Roman,serif" font-size="9.00">&#45;11</text>
</g>
<!-- &#45;11&#45;&gt;0 -->
<g id="edge38" class="edge"><title>&#45;11&#45;&gt;0</title>
<path fill="none" stroke="red" stroke-width="0.325521" d="M944.476,-68.2842C923.973,-60.4903 885.523,-45.3204 854,-29.6985 853.17,-29.2873 852.33,-28.8596 851.484,-28.4203"/>
<polygon fill="red" stroke="red" stroke-width="0.325521" points="852.988,-25.2524 842.541,-23.4855 849.606,-31.3812 852.988,-25.2524"/>
</g>
<!-- &#45;11&#45;&gt;1 -->
<g id="edge39" class="edge"><title>&#45;11&#45;&gt;1</title>
<path fill="none" stroke="red" stroke-width="0.137046" d="M947.737,-65.6548C934.946,-56.5196 913.824,-41.4343 898.171,-30.2554"/>
<polygon fill="red" stroke="red" stroke-width="0.137046" points="899.863,-27.1629 889.692,-24.1992 895.795,-32.8593 899.863,-27.1629"/>
</g>
<!-- &#45;11&#45;&gt;2 -->
<g id="edge40" class="edge"><title>&#45;11&#45;&gt;2</title>
<path fill="none" stroke="green" stroke-width="0.198333" stroke-dasharray="1,5" d="M961.086,-65.6548C962.84,-58.8878 965.442,-48.8559 967.851,-39.5653"/>
<polygon fill="green" stroke="green" stroke-width="0.198333" points="971.311,-40.1629 970.433,-29.6046 964.535,-38.4059 971.311,-40.1629"/>
</g>
<!-- &#45;11&#45;&gt;3 -->
<g id="edge41" class="edge"><title>&#45;11&#45;&gt;3</title>
<path fill="none" stroke="green" stroke-width="0.247511" d="M954.411,-65.6548C950.224,-58.3144 943.845,-47.1324 938.192,-37.2221"/>
<polygon fill="green" stroke="green" stroke-width="0.247511" points="941.085,-35.229 933.089,-28.2771 935.004,-38.6975 941.085,-35.229"/>
</g>
<!-- &#45;12 -->
<g id="node12" class="node"><title>&#45;12</title>
<polygon fill="lightgray" stroke="black" points="1020.5,-83.6985 991.5,-83.6985 991.5,-65.6985 1020.5,-65.6985 1020.5,-83.6985"/>
<text text-anchor="middle" x="1006" y="-72.4985" font-family="Times New Roman,serif" font-size="9.00">&#45;12</text>
</g>
<!-- &#45;12&#45;&gt;0 -->
<g id="edge42" class="edge"><title>&#45;12&#45;&gt;0</title>
<path fill="none" stroke="green" stroke-width="0.259794" d="M991.445,-68.4818C988.652,-67.5246 985.744,-66.5575 983,-65.6985 926.195,-47.9123 908.877,-52.7554 854,-29.6985 853.146,-29.3398 852.285,-28.9567 851.423,-28.555"/>
<polygon fill="green" stroke="green" stroke-width="0.259794" points="852.877,-25.3652 842.399,-23.7955 849.612,-31.5567 852.877,-25.3652"/>
</g>
<!-- &#45;12&#45;&gt;1 -->
<g id="edge43" class="edge"><title>&#45;12&#45;&gt;1</title>
<path fill="none" stroke="red" stroke-width="0.179159" d="M991.276,-68.1314C970.89,-60.275 933.066,-45.16 902,-29.6985 901.171,-29.2859 900.331,-28.857 899.486,-28.4167"/>
<polygon fill="red" stroke="red" stroke-width="0.179159" points="900.991,-25.2494 890.545,-23.4771 897.606,-31.3765 900.991,-25.2494"/>
</g>
<!-- &#45;12&#45;&gt;2 -->
<g id="edge44" class="edge"><title>&#45;12&#45;&gt;2</title>
<path fill="none" stroke="red" stroke-width="0.536991" d="M1001.55,-65.6548C997.49,-58.3144 991.305,-47.1324 985.823,-37.2221"/>
<polygon fill="red" stroke="red" stroke-width="0.536991" points="988.778,-35.3334 980.875,-28.2771 982.652,-38.7217 988.778,-35.3334"/>
</g>
<!-- &#45;12&#45;&gt;3 -->
<g id="edge45" class="edge"><title>&#45;12&#45;&gt;3</title>
<path fill="none" stroke="green" stroke-width="0.195319" d="M994.876,-65.6548C982.243,-56.5196 961.382,-41.4343 945.922,-30.2554"/>
<polygon fill="green" stroke="green" stroke-width="0.195319" points="947.702,-27.2228 937.547,-24.1992 943.6,-32.8951 947.702,-27.2228"/>
</g>
<!-- &#45;13 -->
<g id="node13" class="node"><title>&#45;13</title>
<polygon fill="lightgray" stroke="black" points="1067.5,-83.6985 1038.5,-83.6985 1038.5,-65.6985 1067.5,-65.6985 1067.5,-83.6985"/>
<text text-anchor="middle" x="1053" y="-72.4985" font-family="Times New Roman,serif" font-size="9.00">&#45;13</text>
</g>
<!-- &#45;13&#45;&gt;0 -->
<g id="edge46" class="edge"><title>&#45;13&#45;&gt;0</title>
<path fill="none" stroke="red" stroke-width="0.600564" d="M1038.49,-68.3248C1035.69,-67.3821 1032.77,-66.4604 1030,-65.6985 953.014,-44.5369 928.651,-58.0165 854,-29.6985 853.134,-29.37 852.263,-29.0127 851.392,-28.6326"/>
<polygon fill="red" stroke="red" stroke-width="0.600564" points="852.822,-25.4325 842.328,-23.9742 849.622,-31.6584 852.822,-25.4325"/>
</g>
<!-- &#45;13&#45;&gt;1 -->
<g id="edge47" class="edge"><title>&#45;13&#45;&gt;1</title>
<path fill="none" stroke="red" stroke-width="0.185326" d="M1038.44,-68.4863C1035.65,-67.5287 1032.74,-66.5603 1030,-65.6985 973.622,-47.9832 956.459,-52.6447 902,-29.6985 901.147,-29.3389 900.286,-28.9551 899.424,-28.5528"/>
<polygon fill="red" stroke="red" stroke-width="0.185326" points="900.879,-25.3633 890.402,-23.7904 897.611,-31.5538 900.879,-25.3633"/>
</g>
<!-- &#45;13&#45;&gt;2 -->
<g id="edge48" class="edge"><title>&#45;13&#45;&gt;2</title>
<path fill="none" stroke="green" stroke-width="0.431051" d="M1042.02,-65.6548C1029.61,-56.5715 1009.17,-41.6056 993.934,-30.4463"/>
<polygon fill="green" stroke="green" stroke-width="0.431051" points="995.798,-27.4732 985.662,-24.389 991.662,-33.1209 995.798,-27.4732"/>
</g>
<!-- &#45;13&#45;&gt;3 -->
<g id="edge49" class="edge"><title>&#45;13&#45;&gt;3</title>
<path fill="none" stroke="red" stroke-width="0.271557" d="M1038.42,-68.1107C1018.24,-60.2303 980.786,-45.0876 950,-29.6985 949.172,-29.2844 948.332,-28.8543 947.488,-28.413"/>
<polygon fill="red" stroke="red" stroke-width="0.271557" points="948.994,-25.2464 938.55,-23.4686 945.606,-31.3717 948.994,-25.2464"/>
</g>
<!-- &#45;14 -->
<g id="node14" class="node"><title>&#45;14</title>
<polygon fill="lightgray" stroke="black" points="1114.5,-83.6985 1085.5,-83.6985 1085.5,-65.6985 1114.5,-65.6985 1114.5,-83.6985"/>
<text text-anchor="middle" x="1100" y="-72.4985" font-family="Times New Roman,serif" font-size="9.00">&#45;14</text>
</g>
<!-- &#45;14&#45;&gt;0 -->
<g id="edge50" class="edge"><title>&#45;14&#45;&gt;0</title>
<path fill="none" stroke="green" stroke-width="0.308334" d="M1085.02,-68.0666C1082.37,-67.1924 1079.62,-66.3611 1077,-65.6985 979.662,-41.114 948.59,-63.3409 854,-29.6985 853.127,-29.3882 852.251,-29.0462 851.375,-28.6791"/>
<polygon fill="green" stroke="green" stroke-width="0.308334" points="852.792,-25.4736 842.289,-24.0813 849.631,-31.7194 852.792,-25.4736"/>
</g>
<!-- &#45;14&#45;&gt;1 -->
<g id="edge51" class="edge"><title>&#45;14&#45;&gt;1</title>
<path fill="none" stroke="red" stroke-width="0.241997" d="M1085.49,-68.3273C1082.69,-67.3843 1079.77,-66.462 1077,-65.6985 1000.45,-44.6093 976.228,-57.9038 902,-29.6985 901.134,-29.3696 900.263,-29.0118 899.392,-28.6314"/>
<polygon fill="red" stroke="red" stroke-width="0.241997" points="900.823,-25.4314 890.329,-23.9714 897.622,-31.6568 900.823,-25.4314"/>
</g>
<!-- &#45;14&#45;&gt;2 -->
<g id="edge52" class="edge"><title>&#45;14&#45;&gt;2</title>
<path fill="none" stroke="red" stroke-width="0.238389" d="M1085.05,-66.8352C1063.18,-56.795 1022.3,-38.0233 996.702,-26.2723"/>
<polygon fill="red" stroke="red" stroke-width="0.238389" points="997.947,-22.9925 987.398,-22.0007 995.026,-29.354 997.947,-22.9925"/>
</g>
<!-- &#45;14&#45;&gt;3 -->
<g id="edge53" class="edge"><title>&#45;14&#45;&gt;3</title>
<path fill="none" stroke="green" stroke-width="0.238917" d="M1085.44,-68.4908C1082.65,-67.5328 1079.74,-66.5631 1077,-65.6985 1021.05,-48.0541 1004.04,-52.534 950,-29.6985 949.147,-29.338 948.287,-28.9535 947.425,-28.5505"/>
<polygon fill="green" stroke="green" stroke-width="0.238917" points="948.881,-25.3614 938.404,-23.7852 945.611,-31.5509 948.881,-25.3614"/>
</g>
<!-- &#45;15 -->
<g id="node15" class="node"><title>&#45;15</title>
<polygon fill="lightgray" stroke="black" points="1161.5,-83.6985 1132.5,-83.6985 1132.5,-65.6985 1161.5,-65.6985 1161.5,-83.6985"/>
<text text-anchor="middle" x="1147" y="-72.4985" font-family="Times New Roman,serif" font-size="9.00">&#45;15</text>
</g>
<!-- &#45;15&#45;&gt;0 -->
<g id="edge54" class="edge"><title>&#45;15&#45;&gt;0</title>
<path fill="none" stroke="red" stroke-width="0.127948" d="M1132.04,-68.0056C1129.39,-67.1381 1126.63,-66.3249 1124,-65.6985 1006.23,-37.6697 968.609,-68.6944 854,-29.6985 853.123,-29.4002 852.243,-29.0684 851.364,-28.71"/>
<polygon fill="red" stroke="red" stroke-width="0.127948" points="852.773,-25.5011 842.264,-24.1523 849.638,-31.76 852.773,-25.5011"/>
</g>
<!-- &#45;15&#45;&gt;1 -->
<g id="edge55" class="edge"><title>&#45;15&#45;&gt;1</title>
<path fill="none" stroke="red" stroke-width="0.167737" d="M1132.02,-68.0682C1129.37,-67.1937 1126.62,-66.362 1124,-65.6985 1027.1,-41.1871 996.164,-63.2272 902,-29.6985 901.128,-29.3879 900.251,-29.0456 899.375,-28.6783"/>
<polygon fill="red" stroke="red" stroke-width="0.167737" points="900.792,-25.4729 890.289,-24.0795 897.631,-31.7184 900.792,-25.4729"/>
</g>
<!-- &#45;15&#45;&gt;2 -->
<g id="edge56" class="edge"><title>&#45;15&#45;&gt;2</title>
<path fill="none" stroke="green" stroke-width="0.251464" stroke-dasharray="1,5" d="M1132.41,-68.5895C1129.62,-67.6224 1126.72,-66.624 1124,-65.6985 1079.57,-50.5906 1027.57,-33.424 997.935,-23.69"/>
<polygon fill="green" stroke="green" stroke-width="0.251464" points="998.677,-20.2499 988.084,-20.4576 996.495,-26.901 998.677,-20.2499"/>
</g>
<!-- &#45;15&#45;&gt;3 -->
<g id="edge57" class="edge"><title>&#45;15&#45;&gt;3</title>
<path fill="none" stroke="red" stroke-width="0.121187" d="M1132.49,-68.3298C1129.69,-67.3867 1126.77,-66.4636 1124,-65.6985 1047.88,-44.6818 1023.81,-57.791 950,-29.6985 949.135,-29.3691 948.264,-29.0109 947.393,-28.6301"/>
<polygon fill="red" stroke="red" stroke-width="0.121187" points="948.824,-25.4303 938.33,-23.9685 945.622,-31.6551 948.824,-25.4303"/>
</g>
<!-- &#45;16 -->
<g id="node16" class="node"><title>&#45;16</title>
<polygon fill="lightgray" stroke="black" points="1208.5,-83.6985 1179.5,-83.6985 1179.5,-65.6985 1208.5,-65.6985 1208.5,-83.6985"/>
<text text-anchor="middle" x="1194" y="-72.4985" font-family="Times New Roman,serif" font-size="9.00">&#45;16</text>
</g>
<!-- &#45;16&#45;&gt;0 -->
<g id="edge58" class="edge"><title>&#45;16&#45;&gt;0</title>
<path fill="none" stroke="green" stroke-width="0.638838" d="M1179.05,-67.9623C1176.39,-67.0997 1173.64,-66.2993 1171,-65.6985 1032.75,-34.2141 988.675,-74.0637 854,-29.6985 853.12,-29.4087 852.237,-29.0843 851.357,-28.7319"/>
<polygon fill="green" stroke="green" stroke-width="0.638838" points="852.76,-25.5208 842.247,-24.2028 849.643,-31.7888 852.76,-25.5208"/>
</g>
<!-- &#45;16&#45;&gt;1 -->
<g id="edge59" class="edge"><title>&#45;16&#45;&gt;1</title>
<path fill="none" stroke="green" stroke-width="0.625461" d="M1179.04,-68.0067C1176.39,-67.1391 1173.63,-66.3256 1171,-65.6985 1053.66,-37.7431 1016.18,-68.5803 902,-29.6985 901.123,-29.4 900.243,-29.0681 899.364,-28.7094"/>
<polygon fill="green" stroke="green" stroke-width="0.625461" points="900.773,-25.5006 890.264,-24.1511 897.638,-31.7593 900.773,-25.5006"/>
</g>
<!-- &#45;16&#45;&gt;2 -->
<g id="edge60" class="edge"><title>&#45;16&#45;&gt;2</title>
<path fill="none" stroke="red" stroke-width="0.245076" d="M1179.46,-68.4278C1176.67,-67.4756 1173.75,-66.5241 1171,-65.6985 1109.49,-47.2555 1035.85,-29.8366 998.429,-21.3103"/>
<polygon fill="red" stroke="red" stroke-width="0.245076" points="998.98,-17.8463 988.454,-19.0528 997.435,-24.6737 998.98,-17.8463"/>
</g>
<!-- &#45;16&#45;&gt;3 -->
<g id="edge61" class="edge"><title>&#45;16&#45;&gt;3</title>
<path fill="none" stroke="green" stroke-width="0.213613" d="M1179.02,-68.0697C1176.37,-67.1952 1173.62,-66.3629 1171,-65.6985 1074.53,-41.2602 1043.74,-63.1136 950,-29.6985 949.128,-29.3875 948.251,-29.0451 947.375,-28.6775"/>
<polygon fill="green" stroke="green" stroke-width="0.213613" points="948.793,-25.4722 938.29,-24.0776 945.631,-31.7173 948.793,-25.4722"/>
</g>
<!-- &#45;17 -->
<g id="node17" class="node"><title>&#45;17</title>
<polygon fill="lightgray" stroke="black" points="1255.5,-83.6985 1226.5,-83.6985 1226.5,-65.6985 1255.5,-65.6985 1255.5,-83.6985"/>
<text text-anchor="middle" x="1241" y="-72.4985" font-family="Times New Roman,serif" font-size="9.00">&#45;17</text>
</g>
<!-- &#45;17&#45;&gt;0 -->
<g id="edge62" class="edge"><title>&#45;17&#45;&gt;0</title>
<path fill="none" stroke="red" stroke-width="0.485067" d="M1226.05,-67.93C1223.4,-67.071 1220.64,-66.2801 1218,-65.6985 1059.23,-30.7518 1008.77,-79.4423 854,-29.6985 852.947,-29.3599 851.889,-28.9704 850.836,-28.5418"/>
<polygon fill="red" stroke="red" stroke-width="0.485067" points="852.246,-25.3329 841.741,-23.9508 849.091,-31.5818 852.246,-25.3329"/>
</g>
<!-- &#45;17&#45;&gt;1 -->
<g id="edge63" class="edge"><title>&#45;17&#45;&gt;1</title>
<path fill="none" stroke="green" stroke-width="0.485391" d="M1226.05,-67.9631C1223.39,-67.1004 1220.64,-66.2997 1218,-65.6985 1080.18,-34.2877 1036.25,-73.9493 902,-29.6985 901.121,-29.4086 900.238,-29.084 899.357,-28.7315"/>
<polygon fill="green" stroke="green" stroke-width="0.485391" points="900.76,-25.5204 890.247,-24.2019 897.643,-31.7883 900.76,-25.5204"/>
</g>
<!-- &#45;17&#45;&gt;2 -->
<g id="edge64" class="edge"><title>&#45;17&#45;&gt;2</title>
<path fill="none" stroke="red" stroke-width="0.259696" d="M1226.49,-68.3242C1223.69,-67.3816 1220.77,-66.4601 1218,-65.6985 1139.02,-43.9983 1043.31,-27.1163 998.885,-19.8051"/>
<polygon fill="red" stroke="red" stroke-width="0.259696" points="999.169,-16.3053 988.737,-18.1554 998.046,-23.2146 999.169,-16.3053"/>
</g>
<!-- &#45;17&#45;&gt;3 -->
<g id="edge65" class="edge"><title>&#45;17&#45;&gt;3</title>
<path fill="none" stroke="green" stroke-width="0.207374" d="M1226.04,-68.0078C1223.39,-67.1401 1220.63,-66.3262 1218,-65.6985 1101.1,-37.8165 1063.76,-68.4662 950,-29.6985 949.123,-29.3998 948.243,-29.0677 947.364,-28.7089"/>
<polygon fill="green" stroke="green" stroke-width="0.207374" points="948.773,-25.5001 938.265,-24.1498 945.638,-31.7585 948.773,-25.5001"/>
</g>
<!-- &#45;18 -->
<g id="node18" class="node"><title>&#45;18</title>
<polygon fill="lightgray" stroke="black" points="1302.5,-83.6985 1273.5,-83.6985 1273.5,-65.6985 1302.5,-65.6985 1302.5,-83.6985"/>
<text text-anchor="middle" x="1288" y="-72.4985" font-family="Times New Roman,serif" font-size="9.00">&#45;18</text>
</g>
<!-- &#45;18&#45;&gt;0 -->
<g id="edge66" class="edge"><title>&#45;18&#45;&gt;0</title>
<path fill="none" stroke="green" stroke-width="0.127907" d="M1273.06,-67.905C1270.41,-67.0487 1267.65,-66.2653 1265,-65.6985 1085.7,-27.2853 1028.88,-84.827 854,-29.6985 852.945,-29.3658 851.885,-28.9812 850.831,-28.5565"/>
<polygon fill="green" stroke="green" stroke-width="0.127907" points="852.238,-25.3466 841.732,-23.9799 849.093,-31.6001 852.238,-25.3466"/>
</g>
<!-- &#45;18&#45;&gt;1 -->
<g id="edge67" class="edge"><title>&#45;18&#45;&gt;1</title>
<path fill="none" stroke="green" stroke-width="0.465085" d="M1273.05,-67.9306C1270.4,-67.0715 1267.64,-66.2805 1265,-65.6985 1106.67,-30.8255 1056.34,-79.3278 902,-29.6985 900.947,-29.3598 899.889,-28.9702 898.836,-28.5415"/>
<polygon fill="green" stroke="green" stroke-width="0.465085" points="900.246,-25.3326 889.742,-23.9501 897.091,-31.5814 900.246,-25.3326"/>
</g>
<!-- &#45;18&#45;&gt;2 -->
<g id="edge68" class="edge"><title>&#45;18&#45;&gt;2</title>
<path fill="none" stroke="red" stroke-width="0.446332" d="M1273.02,-68.0878C1270.37,-67.2112 1267.62,-66.3737 1265,-65.6985 1167.89,-40.6752 1049.25,-24.7845 998.705,-18.6825"/>
<polygon fill="red" stroke="red" stroke-width="0.446332" points="999.057,-15.1998 988.714,-17.4977 998.232,-22.1511 999.057,-15.1998"/>
</g>
<!-- &#45;18&#45;&gt;3 -->
<g id="edge69" class="edge"><title>&#45;18&#45;&gt;3</title>
<path fill="none" stroke="red" stroke-width="0.288083" d="M1273.05,-67.9639C1270.39,-67.1011 1267.64,-66.3002 1265,-65.6985 1127.62,-34.3613 1083.82,-73.835 950,-29.6985 949.121,-29.4084 948.238,-29.0837 947.357,-28.7311"/>
<polygon fill="red" stroke="red" stroke-width="0.288083" points="948.76,-25.5201 938.248,-24.201 945.643,-31.7878 948.76,-25.5201"/>
</g>
<!-- &#45;19 -->
<g id="node19" class="node"><title>&#45;19</title>
<polygon fill="lightgray" stroke="black" points="1349.5,-83.6985 1320.5,-83.6985 1320.5,-65.6985 1349.5,-65.6985 1349.5,-83.6985"/>
<text text-anchor="middle" x="1335" y="-72.4985" font-family="Times New Roman,serif" font-size="9.00">&#45;19</text>
</g>
<!-- &#45;19&#45;&gt;0 -->
<g id="edge70" class="edge"><title>&#45;19&#45;&gt;0</title>
<path fill="none" stroke="red" stroke-width="0.225313" d="M1320.06,-67.8851C1317.41,-67.031 1314.65,-66.2535 1312,-65.6985 1112.16,-23.8158 1049.01,-90.2159 854,-29.6985 852.943,-29.3705 851.883,-28.9897 850.827,-28.5682"/>
<polygon fill="red" stroke="red" stroke-width="0.225313" points="852.233,-25.3575 841.725,-24.0031 849.095,-31.6147 852.233,-25.3575"/>
</g>
<!-- &#45;19&#45;&gt;1 -->
<g id="edge71" class="edge"><title>&#45;19&#45;&gt;1</title>
<path fill="none" stroke="red" stroke-width="0.312655" d="M1320.06,-67.9055C1317.41,-67.0491 1314.65,-66.2656 1312,-65.6985 1133.14,-27.3591 1076.45,-84.7124 902,-29.6985 900.945,-29.3657 899.885,-28.981 898.831,-28.5562"/>
<polygon fill="red" stroke="red" stroke-width="0.312655" points="900.239,-25.3463 889.732,-23.9794 897.093,-31.5998 900.239,-25.3463"/>
</g>
<!-- &#45;19&#45;&gt;2 -->
<g id="edge72" class="edge"><title>&#45;19&#45;&gt;2</title>
<path fill="none" stroke="red" stroke-width="0.119787" d="M1320.03,-68.0364C1317.38,-67.1655 1314.63,-66.3432 1312,-65.6985 1196.97,-37.4768 1055.74,-22.952 999.171,-17.9276"/>
<polygon fill="red" stroke="red" stroke-width="0.119787" points="999.284,-14.4243 989.019,-17.0481 998.68,-21.3982 999.284,-14.4243"/>
</g>
<!-- &#45;19&#45;&gt;3 -->
<g id="edge73" class="edge"><title>&#45;19&#45;&gt;3</title>
<path fill="none" stroke="red" stroke-width="0.267445" d="M1320.05,-67.9312C1317.4,-67.072 1314.64,-66.2808 1312,-65.6985 1154.11,-30.8993 1103.91,-79.2133 950,-29.6985 948.947,-29.3596 947.889,-28.9699 946.836,-28.5411"/>
<polygon fill="red" stroke="red" stroke-width="0.267445" points="948.246,-25.3322 937.742,-23.9494 945.091,-31.5809 948.246,-25.3322"/>
</g>
<!-- &#45;20 -->
<g id="node20" class="node"><title>&#45;20</title>
<polygon fill="lightgray" stroke="black" points="1396.5,-83.6985 1367.5,-83.6985 1367.5,-65.6985 1396.5,-65.6985 1396.5,-83.6985"/>
<text text-anchor="middle" x="1382" y="-72.4985" font-family="Times New Roman,serif" font-size="9.00">&#45;20</text>
</g>
<!-- &#45;20&#45;&gt;0 -->
<g id="edge74" class="edge"><title>&#45;20&#45;&gt;0</title>
<path fill="none" stroke="red" stroke-width="0.348787" d="M1367.07,-67.8688C1364.41,-67.0165 1361.65,-66.2439 1359,-65.6985 1138.6,-20.3443 1069.14,-95.6077 854,-29.6985 852.942,-29.3744 851.881,-28.9967 850.825,-28.5778"/>
<polygon fill="red" stroke="red" stroke-width="0.348787" points="852.228,-25.3665 841.719,-24.0221 849.096,-31.6267 852.228,-25.3665"/>
</g>
<!-- &#45;20&#45;&gt;1 -->
<g id="edge75" class="edge"><title>&#45;20&#45;&gt;1</title>
<path fill="none" stroke="green" stroke-width="0.255949" d="M1367.06,-67.8854C1364.41,-67.0313 1361.65,-66.2537 1359,-65.6985 1159.6,-23.8897 1096.58,-90.1012 902,-29.6985 900.943,-29.3705 899.883,-28.9896 898.828,-28.568"/>
<polygon fill="green" stroke="green" stroke-width="0.255949" points="900.233,-25.3573 889.725,-24.0027 897.095,-31.6145 900.233,-25.3573"/>
</g>
<!-- &#45;20&#45;&gt;2 -->
<g id="edge76" class="edge"><title>&#45;20&#45;&gt;2</title>
<path fill="none" stroke="red" stroke-width="0.141042" d="M1367.04,-67.9972C1364.39,-67.1307 1361.63,-66.3199 1359,-65.6985 1225.61,-34.2207 1061.22,-21.2978 999.235,-17.3134"/>
<polygon fill="red" stroke="red" stroke-width="0.141042" points="999.081,-13.7972 988.883,-16.671 998.647,-20.7838 999.081,-13.7972"/>
</g>
<!-- &#45;20&#45;&gt;3 -->
<g id="edge77" class="edge"><title>&#45;20&#45;&gt;3</title>
<path fill="none" stroke="green" stroke-width="0.323419" d="M1367.06,-67.9059C1364.41,-67.0496 1361.65,-66.2659 1359,-65.6985 1180.58,-27.4329 1124.03,-84.5978 950,-29.6985 948.945,-29.3656 947.886,-28.9808 946.831,-28.556"/>
<polygon fill="green" stroke="green" stroke-width="0.323419" points="948.239,-25.3461 937.732,-23.9788 945.093,-31.5994 948.239,-25.3461"/>
</g>
<!-- &#45;21 -->
<g id="node21" class="node"><title>&#45;21</title>
<polygon fill="lightgray" stroke="black" points="1443.5,-83.6985 1414.5,-83.6985 1414.5,-65.6985 1443.5,-65.6985 1443.5,-83.6985"/>
<text text-anchor="middle" x="1429" y="-72.4985" font-family="Times New Roman,serif" font-size="9.00">&#45;21</text>
</g>
<!-- &#45;21&#45;&gt;0 -->
<g id="edge78" class="edge"><title>&#45;21&#45;&gt;0</title>
<path fill="none" stroke="red" stroke-width="0.278464" d="M1414.07,-67.8553C1411.42,-67.0045 1408.65,-66.2358 1406,-65.6985 1165.04,-16.8714 1089.29,-101.002 854,-29.6985 852.941,-29.3776 851.879,-29.0026 850.822,-28.5857"/>
<polygon fill="red" stroke="red" stroke-width="0.278464" points="852.224,-25.3739 841.714,-24.0378 849.097,-31.6366 852.224,-25.3739"/>
</g>
<!-- &#45;21&#45;&gt;1 -->
<g id="edge79" class="edge"><title>&#45;21&#45;&gt;1</title>
<path fill="none" stroke="red" stroke-width="0.289457" d="M1414.07,-67.8691C1411.41,-67.0168 1408.65,-66.244 1406,-65.6985 1186.04,-20.4182 1116.72,-95.493 902,-29.6985 900.942,-29.3743 899.881,-28.9966 898.825,-28.5776"/>
<polygon fill="red" stroke="red" stroke-width="0.289457" points="900.228,-25.3663 889.719,-24.0217 897.096,-31.6264 900.228,-25.3663"/>
</g>
<!-- &#45;21&#45;&gt;2 -->
<g id="edge80" class="edge"><title>&#45;21&#45;&gt;2</title>
<path fill="none" stroke="red" stroke-width="0.154553" d="M1414.04,-67.9663C1411.39,-67.1032 1408.64,-66.3017 1406,-65.6985 1254.02,-30.9438 1066.13,-19.8227 999.158,-16.8215"/>
<polygon fill="red" stroke="red" stroke-width="0.154553" points="999.265,-13.3229 989.124,-16.393 998.966,-20.3165 999.265,-13.3229"/>
</g>
<!-- &#45;21&#45;&gt;3 -->
<g id="edge81" class="edge"><title>&#45;21&#45;&gt;3</title>
<path fill="none" stroke="green" stroke-width="0.308432" d="M1414.06,-67.8858C1411.41,-67.0317 1408.65,-66.2539 1406,-65.6985 1207.03,-23.9635 1144.15,-89.9865 950,-29.6985 948.943,-29.3704 947.883,-28.9894 946.828,-28.5678"/>
<polygon fill="green" stroke="green" stroke-width="0.308432" points="948.233,-25.3571 937.725,-24.0022 945.095,-31.6142 948.233,-25.3571"/>
</g>
<!-- &#45;22 -->
<g id="node22" class="node"><title>&#45;22</title>
<polygon fill="lightgray" stroke="black" points="71.5,-83.6985 42.5,-83.6985 42.5,-65.6985 71.5,-65.6985 71.5,-83.6985"/>
<text text-anchor="middle" x="57" y="-72.4985" font-family="Times New Roman,serif" font-size="9.00">&#45;22</text>
</g>
<!-- &#45;22&#45;&gt;0 -->
<g id="edge82" class="edge"><title>&#45;22&#45;&gt;0</title>
<path fill="none" stroke="red" stroke-width="0.163267" d="M71.9318,-67.8581C74.5852,-67.007 77.3485,-66.2375 80,-65.6985 223.406,-36.5462 691.199,-20.2127 804.917,-16.6128"/>
<polygon fill="red" stroke="red" stroke-width="0.163267" points="805.189,-20.1061 815.074,-16.2955 804.97,-13.1095 805.189,-20.1061"/>
</g>
<!-- &#45;22&#45;&gt;3 -->
<g id="edge83" class="edge"><title>&#45;22&#45;&gt;3</title>
<path fill="none" stroke="green" stroke-width="0.320064" d="M71.9219,-67.8074C74.5764,-66.962 77.3426,-66.2075 80,-65.6985 259.577,-31.3015 726.461,-80.8551 902,-29.6985 903.062,-29.3889 904.127,-29.0232 905.186,-28.6139"/>
<polygon fill="green" stroke="green" stroke-width="0.320064" points="906.898,-31.6717 914.302,-24.0936 903.788,-25.4004 906.898,-31.6717"/>
</g>
<!-- &#45;23 -->
<g id="node23" class="node"><title>&#45;23</title>
<polygon fill="lightgray" stroke="black" points="1490.5,-83.6985 1461.5,-83.6985 1461.5,-65.6985 1490.5,-65.6985 1490.5,-83.6985"/>
<text text-anchor="middle" x="1476" y="-72.4985" font-family="Times New Roman,serif" font-size="9.00">&#45;23</text>
</g>
<!-- &#45;23&#45;&gt;0 -->
<g id="edge84" class="edge"><title>&#45;23&#45;&gt;0</title>
<path fill="none" stroke="green" stroke-width="0.143951" d="M1461.07,-67.8439C1458.42,-66.9944 1455.65,-66.2291 1453,-65.6985 1191.48,-13.3972 1109.44,-106.397 854,-29.6985 852.94,-29.3803 851.877,-29.0075 850.82,-28.5924"/>
<polygon fill="green" stroke="green" stroke-width="0.143951" points="852.221,-25.3802 841.71,-24.0511 849.098,-31.645 852.221,-25.3802"/>
</g>
<!-- &#45;23&#45;&gt;1 -->
<g id="edge85" class="edge"><title>&#45;23&#45;&gt;1</title>
<path fill="none" stroke="red" stroke-width="0.223757" d="M1461.07,-67.8555C1458.42,-67.0048 1455.65,-66.236 1453,-65.6985 1212.48,-16.9453 1136.86,-100.887 902,-29.6985 900.941,-29.3775 899.879,-29.0025 898.822,-28.5856"/>
<polygon fill="red" stroke="red" stroke-width="0.223757" points="900.225,-25.3738 889.714,-24.0375 897.097,-31.6364 900.225,-25.3738"/>
</g>
<!-- &#45;23&#45;&gt;2 -->
<g id="edge86" class="edge"><title>&#45;23&#45;&gt;2</title>
<path fill="none" stroke="green" stroke-width="0.16044" d="M1461.05,-67.9414C1458.4,-67.0811 1455.64,-66.2869 1453,-65.6985 1282.58,-27.7294 1071.46,-18.5349 999.439,-16.4356"/>
<polygon fill="green" stroke="green" stroke-width="0.16044" points="999.193,-12.9278 989.102,-16.1563 999.004,-19.9252 999.193,-12.9278"/>
</g>
<!-- &#45;23&#45;&gt;3 -->
<g id="edge87" class="edge"><title>&#45;23&#45;&gt;3</title>
<path fill="none" stroke="green" stroke-width="0.130347" d="M1461.07,-67.8694C1458.41,-67.0171 1455.65,-66.2442 1453,-65.6985 1233.48,-20.4921 1164.29,-95.3783 950,-29.6985 948.942,-29.3742 947.881,-28.9965 946.825,-28.5774"/>
<polygon fill="green" stroke="green" stroke-width="0.130347" points="948.228,-25.3661 937.719,-24.0213 945.096,-31.6262 948.228,-25.3661"/>
</g>
<!-- &#45;24 -->
<g id="node24" class="node"><title>&#45;24</title>
<polygon fill="lightgray" stroke="black" points="1537.5,-83.6985 1508.5,-83.6985 1508.5,-65.6985 1537.5,-65.6985 1537.5,-83.6985"/>
<text text-anchor="middle" x="1523" y="-72.4985" font-family="Times New Roman,serif" font-size="9.00">&#45;24</text>
</g>
<!-- &#45;24&#45;&gt;0 -->
<g id="edge88" class="edge"><title>&#45;24&#45;&gt;0</title>
<path fill="none" stroke="green" stroke-width="0.173968" stroke-dasharray="1,5" d="M1508.07,-67.8341C1505.42,-66.9857 1502.65,-66.2233 1500,-65.6985 1217.9,-9.92226 1129.59,-111.794 854,-29.6985 852.94,-29.3826 851.876,-29.0117 850.818,-28.5982"/>
<polygon fill="green" stroke="green" stroke-width="0.173968" points="852.219,-25.3856 841.707,-24.0625 849.099,-31.6521 852.219,-25.3856"/>
</g>
<!-- &#45;24&#45;&gt;1 -->
<g id="edge89" class="edge"><title>&#45;24&#45;&gt;1</title>
<path fill="none" stroke="red" stroke-width="0.213939" d="M1508.07,-67.8441C1505.42,-66.9946 1502.65,-66.2292 1500,-65.6985 1238.91,-13.4712 1157.01,-106.283 902,-29.6985 900.94,-29.3802 899.877,-29.0074 898.82,-28.5923"/>
<polygon fill="red" stroke="red" stroke-width="0.213939" points="900.221,-25.3801 889.71,-24.0509 897.098,-31.6448 900.221,-25.3801"/>
</g>
<!-- &#45;24&#45;&gt;2 -->
<g id="edge90" class="edge"><title>&#45;24&#45;&gt;2</title>
<path fill="none" stroke="red" stroke-width="0.115763" d="M1508.05,-67.9209C1505.4,-67.0628 1502.64,-66.2747 1500,-65.6985 1310.36,-24.3629 1074.86,-17.3029 998.872,-16.0974"/>
<polygon fill="red" stroke="red" stroke-width="0.115763" points="998.889,-12.5974 988.841,-15.9586 998.792,-19.5967 998.889,-12.5974"/>
</g>
<!-- &#45;24&#45;&gt;3 -->
<g id="edge91" class="edge"><title>&#45;24&#45;&gt;3</title>
<path fill="none" stroke="green" stroke-width="0.183557" d="M1508.07,-67.8558C1505.42,-67.005 1502.65,-66.2362 1500,-65.6985 1259.92,-17.0192 1184.43,-100.772 950,-29.6985 948.941,-29.3775 947.879,-29.0023 946.822,-28.5854"/>
<polygon fill="green" stroke="green" stroke-width="0.183557" points="948.225,-25.3736 937.714,-24.0372 945.097,-31.6362 948.225,-25.3736"/>
</g>
<!-- &#45;25 -->
<g id="node25" class="node"><title>&#45;25</title>
<polygon fill="lightgray" stroke="black" points="1584.5,-83.6985 1555.5,-83.6985 1555.5,-65.6985 1584.5,-65.6985 1584.5,-83.6985"/>
<text text-anchor="middle" x="1570" y="-72.4985" font-family="Times New Roman,serif" font-size="9.00">&#45;25</text>
</g>
<!-- &#45;25&#45;&gt;0 -->
<g id="edge92" class="edge"><title>&#45;25&#45;&gt;0</title>
<path fill="none" stroke="green" stroke-width="0.482197" d="M1555.07,-67.8257C1552.42,-66.9782 1549.66,-66.2183 1547,-65.6985 1244.33,-6.44659 1149.74,-117.192 854,-29.6985 852.939,-29.3846 851.875,-29.0153 850.817,-28.6031"/>
<polygon fill="green" stroke="green" stroke-width="0.482197" points="852.216,-25.3903 841.704,-24.0723 849.1,-31.6583 852.216,-25.3903"/>
</g>
<!-- &#45;25&#45;&gt;1 -->
<g id="edge93" class="edge"><title>&#45;25&#45;&gt;1</title>
<path fill="none" stroke="red" stroke-width="0.188773" d="M1555.07,-67.8343C1552.42,-66.9859 1549.65,-66.2234 1547,-65.6985 1265.34,-9.9962 1177.16,-111.679 902,-29.6985 900.94,-29.3826 899.876,-29.0116 898.818,-28.5981"/>
<polygon fill="red" stroke="red" stroke-width="0.188773" points="900.219,-25.3855 889.707,-24.0623 897.099,-31.652 900.219,-25.3855"/>
</g>
<!-- &#45;25&#45;&gt;2 -->
<g id="edge94" class="edge"><title>&#45;25&#45;&gt;2</title>
<path fill="none" stroke="green" stroke-width="0.107619" d="M1555.06,-67.9037C1552.41,-67.0475 1549.65,-66.2645 1547,-65.6985 1339.03,-21.207 1080.5,-16.2423 999.484,-15.83"/>
<polygon fill="green" stroke="green" stroke-width="0.107619" points="999.265,-12.3295 989.255,-15.7985 999.244,-19.3294 999.265,-12.3295"/>
</g>
<!-- &#45;25&#45;&gt;3 -->
<g id="edge95" class="edge"><title>&#45;25&#45;&gt;3</title>
<path fill="none" stroke="red" stroke-width="0.174961" d="M1555.07,-67.8443C1552.42,-66.9948 1549.65,-66.2294 1547,-65.6985 1286.35,-13.5451 1204.58,-106.168 950,-29.6985 948.94,-29.3802 947.877,-29.0073 946.82,-28.5922"/>
<polygon fill="red" stroke="red" stroke-width="0.174961" points="948.221,-25.38 937.71,-24.0506 945.098,-31.6446 948.221,-25.38"/>
</g>
<!-- &#45;26 -->
<g id="node26" class="node"><title>&#45;26</title>
<polygon fill="lightgray" stroke="black" points="1631.5,-83.6985 1602.5,-83.6985 1602.5,-65.6985 1631.5,-65.6985 1631.5,-83.6985"/>
<text text-anchor="middle" x="1617" y="-72.4985" font-family="Times New Roman,serif" font-size="9.00">&#45;26</text>
</g>
<!-- &#45;26&#45;&gt;0 -->
<g id="edge96" class="edge"><title>&#45;26&#45;&gt;0</title>
<path fill="none" stroke="green" stroke-width="0.29673" d="M1602.08,-67.8183C1599.42,-66.9717 1596.66,-66.2139 1594,-65.6985 1432.38,-34.3344 1011.95,-76.1448 854,-29.6985 852.938,-29.3863 851.874,-29.0185 850.816,-28.6075"/>
<polygon fill="green" stroke="green" stroke-width="0.29673" points="852.214,-25.3944 841.701,-24.0809 849.101,-31.6637 852.214,-25.3944"/>
</g>
<!-- &#45;26&#45;&gt;1 -->
<g id="edge97" class="edge"><title>&#45;26&#45;&gt;1</title>
<path fill="none" stroke="green" stroke-width="0.152796" d="M1602.07,-67.8258C1599.42,-66.9784 1596.66,-66.2184 1594,-65.6985 1291.77,-6.52055 1197.32,-117.077 902,-29.6985 900.939,-29.3846 899.875,-29.0153 898.817,-28.6031"/>
<polygon fill="green" stroke="green" stroke-width="0.152796" points="900.216,-25.3902 889.704,-24.0721 897.1,-31.6582 900.216,-25.3902"/>
</g>
<!-- &#45;26&#45;&gt;2 -->
<g id="edge98" class="edge"><title>&#45;26&#45;&gt;2</title>
<path fill="none" stroke="red" stroke-width="0.314656" d="M1602.06,-67.8891C1599.41,-67.0345 1596.65,-66.2559 1594,-65.6985 1366.96,-17.9045 1084.3,-15.2221 999.306,-15.5946"/>
<polygon fill="red" stroke="red" stroke-width="0.314656" points="999.054,-12.096 989.076,-15.6594 999.098,-19.0959 999.054,-12.096"/>
</g>
<!-- &#45;26&#45;&gt;3 -->
<g id="edge99" class="edge"><title>&#45;26&#45;&gt;3</title>
<path fill="none" stroke="red" stroke-width="0.152661" d="M1602.07,-67.8345C1599.42,-66.9861 1596.65,-66.2235 1594,-65.6985 1312.78,-10.0701 1224.73,-111.565 950,-29.6985 948.94,-29.3825 947.876,-29.0115 946.818,-28.598"/>
<polygon fill="red" stroke="red" stroke-width="0.152661" points="948.219,-25.3854 937.707,-24.062 945.099,-31.6518 948.219,-25.3854"/>
</g>
<!-- &#45;27 -->
<g id="node27" class="node"><title>&#45;27</title>
<polygon fill="lightgray" stroke="black" points="1678.5,-83.6985 1649.5,-83.6985 1649.5,-65.6985 1678.5,-65.6985 1678.5,-83.6985"/>
<text text-anchor="middle" x="1664" y="-72.4985" font-family="Times New Roman,serif" font-size="9.00">&#45;27</text>
</g>
<!-- &#45;27&#45;&gt;0 -->
<g id="edge100" class="edge"><title>&#45;27&#45;&gt;0</title>
<path fill="none" stroke="green" stroke-width="0.326524" d="M1649.08,-67.8118C1646.42,-66.9659 1643.66,-66.2101 1641,-65.6985 1469.09,-32.5961 1022.03,-78.8445 854,-29.6985 852.938,-29.3879 851.873,-29.0213 850.815,-28.6113"/>
<polygon fill="green" stroke="green" stroke-width="0.326524" points="852.213,-25.398 841.699,-24.0885 849.101,-31.6685 852.213,-25.398"/>
</g>
<!-- &#45;27&#45;&gt;1 -->
<g id="edge101" class="edge"><title>&#45;27&#45;&gt;1</title>
<path fill="none" stroke="red" stroke-width="0.337551" d="M1649.08,-67.8184C1646.42,-66.9718 1643.66,-66.214 1641,-65.6985 1479.6,-34.3714 1059.74,-76.0873 902,-29.6985 900.939,-29.3863 899.874,-29.0184 898.816,-28.6074"/>
<polygon fill="red" stroke="red" stroke-width="0.337551" points="900.214,-25.3943 889.701,-24.0808 897.101,-31.6636 900.214,-25.3943"/>
</g>
<!-- &#45;27&#45;&gt;2 -->
<g id="edge102" class="edge"><title>&#45;27&#45;&gt;2</title>
<path fill="none" stroke="green" stroke-width="0.177147" d="M1649.06,-67.8765C1646.41,-67.0234 1643.65,-66.2484 1641,-65.6985 1395.13,-14.6617 1088.7,-14.2787 999.465,-15.3901"/>
<polygon fill="green" stroke="green" stroke-width="0.177147" points="999.178,-11.8938 989.229,-15.5371 999.279,-18.8931 999.178,-11.8938"/>
</g>
<!-- &#45;27&#45;&gt;3 -->
<g id="edge103" class="edge"><title>&#45;27&#45;&gt;3</title>
<path fill="none" stroke="green" stroke-width="0.37204" d="M1649.07,-67.826C1646.42,-66.9785 1643.66,-66.2185 1641,-65.6985 1339.21,-6.5945 1244.89,-116.963 950,-29.6985 948.939,-29.3845 947.875,-29.0152 946.817,-28.603"/>
<polygon fill="green" stroke="green" stroke-width="0.37204" points="948.216,-25.3901 937.704,-24.0719 945.1,-31.6581 948.216,-25.3901"/>
</g>
<!-- &#45;28 -->
<g id="node28" class="node"><title>&#45;28</title>
<polygon fill="lightgray" stroke="black" points="1725.5,-83.6985 1696.5,-83.6985 1696.5,-65.6985 1725.5,-65.6985 1725.5,-83.6985"/>
<text text-anchor="middle" x="1711" y="-72.4985" font-family="Times New Roman,serif" font-size="9.00">&#45;28</text>
</g>
<!-- &#45;28&#45;&gt;0 -->
<g id="edge104" class="edge"><title>&#45;28&#45;&gt;0</title>
<path fill="none" stroke="green" stroke-width="0.115875" d="M1696.08,-67.806C1693.42,-66.9608 1690.66,-66.2067 1688,-65.6985 1505.8,-30.8576 1032.11,-81.5444 854,-29.6985 852.938,-29.3893 851.872,-29.0238 850.814,-28.6147"/>
<polygon fill="green" stroke="green" stroke-width="0.115875" points="852.211,-25.4011 841.697,-24.0952 849.102,-31.6728 852.211,-25.4011"/>
</g>
<!-- &#45;28&#45;&gt;1 -->
<g id="edge105" class="edge"><title>&#45;28&#45;&gt;1</title>
<path fill="none" stroke="red" stroke-width="0.182511" d="M1696.08,-67.8119C1693.42,-66.966 1690.66,-66.2102 1688,-65.6985 1516.31,-32.6331 1069.82,-78.787 902,-29.6985 900.938,-29.3879 899.873,-29.0212 898.815,-28.6112"/>
<polygon fill="red" stroke="red" stroke-width="0.182511" points="900.213,-25.3979 889.699,-24.0884 897.101,-31.6684 900.213,-25.3979"/>
</g>
<!-- &#45;28&#45;&gt;2 -->
<g id="edge106" class="edge"><title>&#45;28&#45;&gt;2</title>
<path fill="none" stroke="red" stroke-width="0.256581" d="M1696.07,-67.8655C1693.41,-67.0136 1690.65,-66.2419 1688,-65.6985 1551.93,-37.8001 1108.96,-20.6105 998.918,-16.7033"/>
<polygon fill="red" stroke="red" stroke-width="0.256581" points="998.901,-13.2006 988.784,-16.3478 998.655,-20.1963 998.901,-13.2006"/>
</g>
<!-- &#45;28&#45;&gt;3 -->
<g id="edge107" class="edge"><title>&#45;28&#45;&gt;3</title>
<path fill="none" stroke="red" stroke-width="0.1953" stroke-dasharray="1,5" d="M1696.08,-67.8186C1693.42,-66.9719 1690.66,-66.2141 1688,-65.6985 1526.81,-34.4084 1107.52,-76.0299 950,-29.6985 948.939,-29.3863 947.874,-29.0184 946.816,-28.6073"/>
<polygon fill="red" stroke="red" stroke-width="0.1953" points="948.215,-25.3942 937.701,-24.0806 945.101,-31.6635 948.215,-25.3942"/>
</g>
<!-- &#45;29 -->
<g id="node29" class="node"><title>&#45;29</title>
<polygon fill="lightgray" stroke="black" points="1819.5,-83.6985 1790.5,-83.6985 1790.5,-65.6985 1819.5,-65.6985 1819.5,-83.6985"/>
<text text-anchor="middle" x="1805" y="-72.4985" font-family="Times New Roman,serif" font-size="9.00">&#45;29</text>
</g>
<!-- &#45;29&#45;&gt;1 -->
<g id="edge108" class="edge"><title>&#45;29&#45;&gt;1</title>
<path fill="none" stroke="green" stroke-width="0.229381" d="M1790.08,-67.801C1787.42,-66.9563 1784.66,-66.2037 1782,-65.6985 1589.72,-29.1559 1089.98,-84.1872 902,-29.6985 900.937,-29.3904 899.872,-29.026 898.813,-28.6177"/>
<polygon fill="green" stroke="green" stroke-width="0.229381" points="900.21,-25.404 889.695,-24.1011 897.103,-31.6765 900.21,-25.404"/>
</g>
<!-- &#45;29&#45;&gt;2 -->
<g id="edge109" class="edge"><title>&#45;29&#45;&gt;2</title>
<path fill="none" stroke="red" stroke-width="0.172948" d="M1790.07,-67.8474C1787.42,-66.9975 1784.65,-66.2312 1782,-65.6985 1626.65,-34.503 1118.15,-19.5888 999.096,-16.4758"/>
<polygon fill="red" stroke="red" stroke-width="0.172948" points="998.902,-12.9698 988.815,-16.2112 998.722,-19.9674 998.902,-12.9698"/>
</g>
<!-- &#45;29&#45;&gt;3 -->
<g id="edge110" class="edge"><title>&#45;29&#45;&gt;3</title>
<path fill="none" stroke="green" stroke-width="0.147688" d="M1790.08,-67.8063C1787.42,-66.961 1784.66,-66.2068 1782,-65.6985 1600.23,-30.9316 1127.68,-81.4295 950,-29.6985 948.938,-29.3892 947.872,-29.0237 946.814,-28.6146"/>
<polygon fill="green" stroke="green" stroke-width="0.147688" points="948.211,-25.401 937.697,-24.095 945.102,-31.6726 948.211,-25.401"/>
</g>
<!-- &#45;30 -->
<g id="node30" class="node"><title>&#45;30</title>
<polygon fill="lightgray" stroke="black" points="208.5,-83.6985 179.5,-83.6985 179.5,-65.6985 208.5,-65.6985 208.5,-83.6985"/>
<text text-anchor="middle" x="194" y="-72.4985" font-family="Times New Roman,serif" font-size="9.00">&#45;30</text>
</g>
<!-- &#45;30&#45;&gt;0 -->
<g id="edge111" class="edge"><title>&#45;30&#45;&gt;0</title>
<path fill="none" stroke="green" stroke-width="0.222107" d="M208.571,-68.2219C211.648,-67.2411 214.902,-66.3314 218,-65.6985 442.403,-19.8563 721.215,-15.8496 805.043,-15.7458"/>
<polygon fill="green" stroke="green" stroke-width="0.222107" points="805.13,-19.2458 815.133,-15.752 805.135,-12.2458 805.13,-19.2458"/>
</g>
<!-- &#45;30&#45;&gt;1 -->
<g id="edge112" class="edge"><title>&#45;30&#45;&gt;1</title>
<path fill="none" stroke="green" stroke-width="0.603375" d="M208.559,-68.1624C211.637,-67.186 214.894,-66.2931 218,-65.6985 496.07,-12.4661 582.7,-110.646 854,-29.6985 855.06,-29.3821 856.124,-29.0108 857.181,-28.597"/>
<polygon fill="green" stroke="green" stroke-width="0.603375" points="858.901,-31.6507 866.293,-24.0602 855.781,-25.3845 858.901,-31.6507"/>
</g>
<!-- &#45;30&#45;&gt;2 -->
<g id="edge113" class="edge"><title>&#45;30&#45;&gt;2</title>
<path fill="none" stroke="red" stroke-width="0.218784" d="M208.556,-68.1446C211.634,-67.1695 214.892,-66.2816 218,-65.6985 378.071,-35.669 793.764,-75.6853 950,-29.6985 951.061,-29.3861 952.126,-29.018 953.184,-28.6068"/>
<polygon fill="red" stroke="red" stroke-width="0.218784" points="954.899,-31.6629 962.298,-24.0796 951.785,-25.3937 954.899,-31.6629"/>
</g>
<!-- &#45;30&#45;&gt;3 -->
<g id="edge114" class="edge"><title>&#45;30&#45;&gt;3</title>
<path fill="none" stroke="red" stroke-width="0.225521" d="M208.557,-68.1529C211.635,-67.1772 214.893,-66.2869 218,-65.6985 517.104,-9.05311 610.115,-116.159 902,-29.6985 903.061,-29.3842 904.125,-29.0147 905.183,-28.6023"/>
<polygon fill="red" stroke="red" stroke-width="0.225521" points="906.9,-31.6572 914.296,-24.0706 903.783,-25.3894 906.9,-31.6572"/>
</g>
<!-- &#45;31 -->
<g id="node31" class="node"><title>&#45;31</title>
<polygon fill="lightgray" stroke="black" points="255.5,-83.6985 226.5,-83.6985 226.5,-65.6985 255.5,-65.6985 255.5,-83.6985"/>
<text text-anchor="middle" x="241" y="-72.4985" font-family="Times New Roman,serif" font-size="9.00">&#45;31</text>
</g>
<!-- &#45;31&#45;&gt;0 -->
<g id="edge115" class="edge"><title>&#45;31&#45;&gt;0</title>
<path fill="none" stroke="green" stroke-width="0.289762" d="M255.574,-68.238C258.651,-67.2561 261.904,-66.3418 265,-65.6985 470.34,-23.0306 725.081,-16.8551 804.895,-15.9845"/>
<polygon fill="green" stroke="green" stroke-width="0.289762" points="805.005,-19.4838 814.973,-15.8936 804.942,-12.4841 805.005,-19.4838"/>
</g>
<!-- &#45;31&#45;&gt;1 -->
<g id="edge116" class="edge"><title>&#45;31&#45;&gt;1</title>
<path fill="none" stroke="green" stroke-width="0.21673" d="M255.561,-68.1733C258.639,-67.196 261.895,-66.3 265,-65.6985 522.477,-15.8073 602.851,-105.249 854,-29.6985 855.06,-29.3798 856.122,-29.0065 857.179,-28.5911"/>
<polygon fill="green" stroke="green" stroke-width="0.21673" points="858.902,-31.6433 866.289,-24.0485 855.778,-25.379 858.902,-31.6433"/>
</g>
<!-- &#45;31&#45;&gt;2 -->
<g id="edge117" class="edge"><title>&#45;31&#45;&gt;2</title>
<path fill="none" stroke="red" stroke-width="0.139294" d="M255.557,-68.1527C258.635,-67.177 261.893,-66.2868 265,-65.6985 564.542,-8.982 657.686,-116.273 950,-29.6985 951.061,-29.3843 952.125,-29.0147 953.183,-28.6024"/>
<polygon fill="red" stroke="red" stroke-width="0.139294" points="954.9,-31.6573 962.296,-24.0708 951.783,-25.3895 954.9,-31.6573"/>
</g>
<!-- &#45;31&#45;&gt;3 -->
<g id="edge118" class="edge"><title>&#45;31&#45;&gt;3</title>
<path fill="none" stroke="green" stroke-width="0.173773" d="M255.559,-68.1622C258.637,-67.1858 261.894,-66.2929 265,-65.6985 543.508,-12.395 630.271,-110.761 902,-29.6985 903.06,-29.3822 904.124,-29.0109 905.181,-28.5971"/>
<polygon fill="green" stroke="green" stroke-width="0.173773" points="906.901,-31.6508 914.293,-24.0604 903.781,-25.3846 906.901,-31.6508"/>
</g>
<!-- &#45;32 -->
<g id="node32" class="node"><title>&#45;32</title>
<polygon fill="lightgray" stroke="black" points="302.5,-83.6985 273.5,-83.6985 273.5,-65.6985 302.5,-65.6985 302.5,-83.6985"/>
<text text-anchor="middle" x="288" y="-72.4985" font-family="Times New Roman,serif" font-size="9.00">&#45;32</text>
</g>
<!-- &#45;32&#45;&gt;0 -->
<g id="edge119" class="edge"><title>&#45;32&#45;&gt;0</title>
<path fill="none" stroke="red" stroke-width="0.168937" d="M302.578,-68.2571C305.655,-67.2738 308.906,-66.3541 312,-65.6985 498.209,-26.2343 728.768,-17.9639 804.557,-16.2725"/>
<polygon fill="red" stroke="red" stroke-width="0.168937" points="805.052,-19.7632 814.979,-16.0607 804.91,-12.7647 805.052,-19.7632"/>
</g>
<!-- &#45;32&#45;&gt;1 -->
<g id="edge120" class="edge"><title>&#45;32&#45;&gt;1</title>
<path fill="none" stroke="red" stroke-width="0.371908" d="M302.564,-68.186C305.641,-67.2078 308.897,-66.3082 312,-65.6985 548.889,-19.1476 622.999,-99.8539 854,-29.6985 855.059,-29.377 856.121,-29.0014 857.177,-28.5842"/>
<polygon fill="red" stroke="red" stroke-width="0.371908" points="858.903,-31.6346 866.285,-24.0347 855.775,-25.3724 858.903,-31.6346"/>
</g>
<!-- &#45;32&#45;&gt;2 -->
<g id="edge121" class="edge"><title>&#45;32&#45;&gt;2</title>
<path fill="none" stroke="green" stroke-width="0.408626" d="M302.559,-68.162C305.637,-67.1856 308.894,-66.2928 312,-65.6985 590.946,-12.3239 677.842,-110.876 950,-29.6985 951.06,-29.3822 952.124,-29.011 953.181,-28.5973"/>
<polygon fill="green" stroke="green" stroke-width="0.408626" points="954.901,-31.651 962.293,-24.0607 951.781,-25.3847 954.901,-31.651"/>
</g>
<!-- &#45;32&#45;&gt;3 -->
<g id="edge122" class="edge"><title>&#45;32&#45;&gt;3</title>
<path fill="none" stroke="red" stroke-width="0.41742" d="M302.561,-68.173C305.639,-67.1958 308.895,-66.2999 312,-65.6985 569.915,-15.7362 650.423,-105.364 902,-29.6985 903.06,-29.3798 904.122,-29.0066 905.18,-28.5912"/>
<polygon fill="red" stroke="red" stroke-width="0.41742" points="906.902,-31.6435 914.289,-24.0487 903.778,-25.3791 906.902,-31.6435"/>
</g>
<!-- &#45;33 -->
<g id="node33" class="node"><title>&#45;33</title>
<polygon fill="lightgray" stroke="black" points="349.5,-83.6985 320.5,-83.6985 320.5,-65.6985 349.5,-65.6985 349.5,-83.6985"/>
<text text-anchor="middle" x="335" y="-72.4985" font-family="Times New Roman,serif" font-size="9.00">&#45;33</text>
</g>
<!-- &#45;33&#45;&gt;0 -->
<g id="edge123" class="edge"><title>&#45;33&#45;&gt;0</title>
<path fill="none" stroke="green" stroke-width="0.280558" d="M349.583,-68.2798C352.659,-67.2949 355.91,-66.3688 359,-65.6985 526.812,-29.299 734.258,-19.1133 805.011,-16.5955"/>
<polygon fill="green" stroke="green" stroke-width="0.280558" points="805.288,-20.0882 815.165,-16.2544 805.053,-13.0922 805.288,-20.0882"/>
</g>
<!-- &#45;33&#45;&gt;1 -->
<g id="edge124" class="edge"><title>&#45;33&#45;&gt;1</title>
<path fill="none" stroke="green" stroke-width="0.122693" d="M349.567,-68.2011C352.644,-67.2218 355.899,-66.318 359,-65.6985 575.307,-22.4867 643.14,-94.4603 854,-29.6985 855.058,-29.3736 856.119,-28.9954 857.175,-28.5759"/>
<polygon fill="green" stroke="green" stroke-width="0.122693" points="858.904,-31.6243 866.28,-24.0183 855.771,-25.3647 858.904,-31.6243"/>
</g>
<!-- &#45;33&#45;&gt;2 -->
<g id="edge125" class="edge"><title>&#45;33&#45;&gt;2</title>
<path fill="none" stroke="red" stroke-width="0.32333" stroke-dasharray="1,5" d="M349.561,-68.1728C352.639,-67.1956 355.895,-66.2997 359,-65.6985 617.353,-15.6651 697.994,-105.479 950,-29.6985 951.06,-29.3799 952.122,-29.0067 953.18,-28.5914"/>
<polygon fill="red" stroke="red" stroke-width="0.32333" points="954.902,-31.6436 962.289,-24.049 951.778,-25.3792 954.902,-31.6436"/>
</g>
<!-- &#45;33&#45;&gt;3 -->
<g id="edge126" class="edge"><title>&#45;33&#45;&gt;3</title>
<path fill="none" stroke="green" stroke-width="0.534685" stroke-dasharray="1,5" d="M349.564,-68.1857C352.641,-67.2075 355.897,-66.3081 359,-65.6985 596.327,-19.0765 670.57,-99.9687 902,-29.6985 903.059,-29.377 904.121,-29.0015 905.177,-28.5843"/>
<polygon fill="green" stroke="green" stroke-width="0.534685" points="906.903,-31.6348 914.285,-24.035 903.775,-25.3726 906.903,-31.6348"/>
</g>
<!-- &#45;34 -->
<g id="node34" class="node"><title>&#45;34</title>
<polygon fill="lightgray" stroke="black" points="396.5,-83.6985 367.5,-83.6985 367.5,-65.6985 396.5,-65.6985 396.5,-83.6985"/>
<text text-anchor="middle" x="382" y="-72.4985" font-family="Times New Roman,serif" font-size="9.00">&#45;34</text>
</g>
<!-- &#45;34&#45;&gt;0 -->
<g id="edge127" class="edge"><title>&#45;34&#45;&gt;0</title>
<path fill="none" stroke="green" stroke-width="0.281403" d="M396.589,-68.3076C399.665,-67.3206 402.914,-66.3867 406,-65.6985 555.08,-32.4566 738.901,-20.4307 804.925,-17.0045"/>
<polygon fill="green" stroke="green" stroke-width="0.281403" points="805.358,-20.4874 815.171,-16.4938 805.009,-13.4961 805.358,-20.4874"/>
</g>
<!-- &#45;34&#45;&gt;1 -->
<g id="edge128" class="edge"><title>&#45;34&#45;&gt;1</title>
<path fill="none" stroke="green" stroke-width="0.156558" d="M396.57,-68.2193C399.647,-67.2387 402.901,-66.3297 406,-65.6985 601.733,-25.8243 663.274,-89.0691 854,-29.6985 855.056,-29.3696 856.117,-28.9881 857.172,-28.5659"/>
<polygon fill="green" stroke="green" stroke-width="0.156558" points="858.906,-31.6119 866.274,-23.9986 855.766,-25.3554 858.906,-31.6119"/>
</g>
<!-- &#45;34&#45;&gt;2 -->
<g id="edge129" class="edge"><title>&#45;34&#45;&gt;2</title>
<path fill="none" stroke="green" stroke-width="0.187027" d="M396.564,-68.1854C399.641,-67.2073 402.897,-66.3079 406,-65.6985 643.765,-19.0054 718.141,-100.083 950,-29.6985 951.059,-29.3771 952.121,-29.0016 953.177,-28.5845"/>
<polygon fill="green" stroke="green" stroke-width="0.187027" points="954.903,-31.635 962.285,-24.0353 951.775,-25.3727 954.903,-31.635"/>
</g>
<!-- &#45;34&#45;&gt;3 -->
<g id="edge130" class="edge"><title>&#45;34&#45;&gt;3</title>
<path fill="none" stroke="green" stroke-width="0.291322" d="M396.567,-68.2007C399.644,-67.2215 402.899,-66.3177 406,-65.6985 622.745,-22.4157 690.712,-94.5751 902,-29.6985 903.058,-29.3737 904.119,-28.9955 905.175,-28.5761"/>
<polygon fill="green" stroke="green" stroke-width="0.291322" points="906.904,-31.6246 914.28,-24.0187 903.771,-25.3649 906.904,-31.6246"/>
</g>
<!-- &#45;35 -->
<g id="node35" class="node"><title>&#45;35</title>
<polygon fill="lightgray" stroke="black" points="118.5,-83.6985 89.5,-83.6985 89.5,-65.6985 118.5,-65.6985 118.5,-83.6985"/>
<text text-anchor="middle" x="104" y="-72.4985" font-family="Times New Roman,serif" font-size="9.00">&#45;35</text>
</g>
<!-- &#45;35&#45;&gt;0 -->
<g id="edge131" class="edge"><title>&#45;35&#45;&gt;0</title>
<path fill="none" stroke="green" stroke-width="0.124388" d="M118.566,-68.1969C121.643,-67.218 124.898,-66.3153 128,-65.6985 388.558,-13.878 712.919,-14.1238 804.741,-15.3741"/>
<polygon fill="green" stroke="green" stroke-width="0.124388" points="804.943,-18.8775 814.996,-15.5321 805.051,-11.8783 804.943,-18.8775"/>
</g>
<!-- &#45;35&#45;&gt;1 -->
<g id="edge132" class="edge"><title>&#45;35&#45;&gt;1</title>
<path fill="none" stroke="red" stroke-width="0.51038" d="M118.556,-68.1456C121.634,-67.1704 124.892,-66.2822 128,-65.6985 286.756,-35.8824 699.051,-75.3406 854,-29.6985 855.061,-29.3858 856.126,-29.0176 857.184,-28.6063"/>
<polygon fill="red" stroke="red" stroke-width="0.51038" points="858.899,-31.6622 866.298,-24.0785 855.785,-25.3932 858.899,-31.6622"/>
</g>
<!-- &#45;35&#45;&gt;3 -->
<g id="edge133" class="edge"><title>&#45;35&#45;&gt;3</title>
<path fill="none" stroke="red" stroke-width="0.108015" d="M118.554,-68.1382C121.633,-67.1635 124.891,-66.2774 128,-65.6985 297.276,-34.1754 736.756,-78.0977 902,-29.6985 903.062,-29.3875 904.127,-29.0206 905.185,-28.6103"/>
<polygon fill="red" stroke="red" stroke-width="0.108015" points="906.899,-31.6673 914.3,-24.0865 903.787,-25.397 906.899,-31.6673"/>
</g>
<!-- &#45;36 -->
<g id="node36" class="node"><title>&#45;36</title>
<polygon fill="lightgray" stroke="black" points="443.5,-83.6985 414.5,-83.6985 414.5,-65.6985 443.5,-65.6985 443.5,-83.6985"/>
<text text-anchor="middle" x="429" y="-72.4985" font-family="Times New Roman,serif" font-size="9.00">&#45;36</text>
</g>
<!-- &#45;36&#45;&gt;0 -->
<g id="edge134" class="edge"><title>&#45;36&#45;&gt;0</title>
<path fill="none" stroke="green" stroke-width="0.435997" d="M443.597,-68.3421C446.672,-67.3526 449.919,-66.409 453,-65.6985 583.515,-35.6061 743.932,-21.9025 804.892,-17.5108"/>
<polygon fill="green" stroke="green" stroke-width="0.435997" points="805.357,-20.987 815.088,-16.7973 804.868,-14.004 805.357,-20.987"/>
</g>
<!-- &#45;36&#45;&gt;1 -->
<g id="edge135" class="edge"><title>&#45;36&#45;&gt;1</title>
<path fill="none" stroke="red" stroke-width="0.22016" d="M443.575,-68.2417C446.652,-67.2595 449.904,-66.3442 453,-65.6985 628.169,-29.1597 683.398,-83.681 854,-29.6985 855.055,-29.3647 856.114,-28.9791 857.168,-28.5537"/>
<polygon fill="red" stroke="red" stroke-width="0.22016" points="858.907,-31.5966 866.266,-23.9743 855.76,-25.3439 858.907,-31.5966"/>
</g>
<!-- &#45;36&#45;&gt;2 -->
<g id="edge136" class="edge"><title>&#45;36&#45;&gt;2</title>
<path fill="none" stroke="green" stroke-width="0.283176" d="M443.566,-68.2004C446.644,-67.2212 449.899,-66.3175 453,-65.6985 670.183,-22.3446 738.283,-94.6898 950,-29.6985 951.058,-29.3738 952.119,-28.9956 953.175,-28.5763"/>
<polygon fill="green" stroke="green" stroke-width="0.283176" points="954.904,-31.6248 962.28,-24.0191 951.771,-25.3651 954.904,-31.6248"/>
</g>
<!-- &#45;36&#45;&gt;3 -->
<g id="edge137" class="edge"><title>&#45;36&#45;&gt;3</title>
<path fill="none" stroke="green" stroke-width="0.165014" d="M443.57,-68.2188C446.647,-67.2383 449.901,-66.3295 453,-65.6985 649.17,-25.7533 710.846,-89.1838 902,-29.6985 903.056,-29.3697 904.117,-28.9882 905.172,-28.5662"/>
<polygon fill="green" stroke="green" stroke-width="0.165014" points="906.906,-31.6122 914.274,-23.9991 903.766,-25.3556 906.906,-31.6122"/>
</g>
<!-- &#45;37 -->
<g id="node37" class="node"><title>&#45;37</title>
<polygon fill="lightgray" stroke="black" points="490.5,-83.6985 461.5,-83.6985 461.5,-65.6985 490.5,-65.6985 490.5,-83.6985"/>
<text text-anchor="middle" x="476" y="-72.4985" font-family="Times New Roman,serif" font-size="9.00">&#45;37</text>
</g>
<!-- &#45;37&#45;&gt;0 -->
<g id="edge138" class="edge"><title>&#45;37&#45;&gt;0</title>
<path fill="none" stroke="green" stroke-width="0.1244" d="M490.607,-68.3861C493.682,-67.3935 496.925,-66.4374 500,-65.6985 612.235,-38.7273 749.634,-23.5456 805.062,-18.1379"/>
<polygon fill="green" stroke="green" stroke-width="0.1244" points="805.402,-21.6215 815.023,-17.186 804.736,-14.6532 805.402,-21.6215"/>
</g>
<!-- &#45;37&#45;&gt;1 -->
<g id="edge139" class="edge"><title>&#45;37&#45;&gt;1</title>
<path fill="none" stroke="red" stroke-width="0.295315" d="M490.581,-68.27C493.657,-67.2858 496.908,-66.3625 500,-65.6985 654.619,-32.4922 703.508,-78.2973 854,-29.6985 855.053,-29.3585 856.11,-28.9678 857.163,-28.5382"/>
<polygon fill="red" stroke="red" stroke-width="0.295315" points="858.909,-31.5773 866.256,-23.9436 855.753,-25.3295 858.909,-31.5773"/>
</g>
<!-- &#45;37&#45;&gt;2 -->
<g id="edge140" class="edge"><title>&#45;37&#45;&gt;2</title>
<path fill="none" stroke="green" stroke-width="0.249266" d="M490.57,-68.2184C493.647,-67.2379 496.901,-66.3292 500,-65.6985 696.608,-25.6823 758.418,-89.2984 950,-29.6985 951.057,-29.3698 952.117,-28.9884 953.172,-28.5664"/>
<polygon fill="green" stroke="green" stroke-width="0.249266" points="954.906,-31.6125 962.274,-23.9995 951.766,-25.3558 954.906,-31.6125"/>
</g>
<!-- &#45;37&#45;&gt;3 -->
<g id="edge141" class="edge"><title>&#45;37&#45;&gt;3</title>
<path fill="none" stroke="red" stroke-width="0.447866" d="M490.575,-68.2412C493.651,-67.259 496.904,-66.3439 500,-65.6985 675.606,-29.0888 730.97,-83.7956 902,-29.6985 903.055,-29.3648 904.114,-28.9793 905.168,-28.554"/>
<polygon fill="red" stroke="red" stroke-width="0.447866" points="906.907,-31.5969 914.266,-23.9749 903.76,-25.3442 906.907,-31.5969"/>
</g>
<!-- &#45;38 -->
<g id="node38" class="node"><title>&#45;38</title>
<polygon fill="lightgray" stroke="black" points="537.5,-83.6985 508.5,-83.6985 508.5,-65.6985 537.5,-65.6985 537.5,-83.6985"/>
<text text-anchor="middle" x="523" y="-72.4985" font-family="Times New Roman,serif" font-size="9.00">&#45;38</text>
</g>
<!-- &#45;38&#45;&gt;0 -->
<g id="edge142" class="edge"><title>&#45;38&#45;&gt;0</title>
<path fill="none" stroke="green" stroke-width="0.122979" d="M537.622,-68.4442C540.695,-67.4474 543.935,-66.4749 547,-65.6985 641.193,-41.8422 755.872,-25.4315 805.341,-18.9461"/>
<polygon fill="green" stroke="green" stroke-width="0.122979" points="805.94,-22.3979 815.409,-17.646 805.043,-15.4555 805.94,-22.3979"/>
</g>
<!-- &#45;38&#45;&gt;1 -->
<g id="edge143" class="edge"><title>&#45;38&#45;&gt;1</title>
<path fill="none" stroke="green" stroke-width="0.197729" d="M537.589,-68.3069C540.665,-67.32 543.913,-66.3862 547,-65.6985 681.091,-35.8201 723.597,-72.9203 854,-29.6985 854.879,-29.4071 855.762,-29.0813 856.642,-28.7278"/>
<polygon fill="green" stroke="green" stroke-width="0.197729" points="858.358,-31.7834 865.75,-24.1933 855.238,-25.5171 858.358,-31.7834"/>
</g>
<!-- &#45;38&#45;&gt;2 -->
<g id="edge144" class="edge"><title>&#45;38&#45;&gt;2</title>
<path fill="none" stroke="green" stroke-width="0.367171" d="M537.575,-68.2407C540.651,-67.2585 543.904,-66.3435 547,-65.6985 723.044,-29.0179 778.542,-83.9102 950,-29.6985 951.055,-29.3649 952.114,-28.9795 953.168,-28.5543"/>
<polygon fill="green" stroke="green" stroke-width="0.367171" points="954.907,-31.5973 962.266,-23.9754 951.76,-25.3445 954.907,-31.5973"/>
</g>
<!-- &#45;38&#45;&gt;3 -->
<g id="edge145" class="edge"><title>&#45;38&#45;&gt;3</title>
<path fill="none" stroke="red" stroke-width="0.468639" d="M537.581,-68.2694C540.657,-67.2852 543.908,-66.362 547,-65.6985 702.056,-32.4213 751.08,-78.4118 902,-29.6985 903.053,-29.3586 904.11,-28.968 905.163,-28.5386"/>
<polygon fill="red" stroke="red" stroke-width="0.468639" points="906.909,-31.5778 914.257,-23.9444 903.753,-25.3299 906.909,-31.5778"/>
</g>
<!-- &#45;39 -->
<g id="node39" class="node"><title>&#45;39</title>
<polygon fill="lightgray" stroke="black" points="584.5,-83.6985 555.5,-83.6985 555.5,-65.6985 584.5,-65.6985 584.5,-83.6985"/>
<text text-anchor="middle" x="570" y="-72.4985" font-family="Times New Roman,serif" font-size="9.00">&#45;39</text>
</g>
<!-- &#45;39&#45;&gt;0 -->
<g id="edge146" class="edge"><title>&#45;39&#45;&gt;0</title>
<path fill="none" stroke="green" stroke-width="0.519531" d="M584.643,-68.5244C587.714,-67.5217 590.948,-66.5266 594,-65.6985 670.216,-45.0182 762.21,-27.7551 805.377,-20.0971"/>
<polygon fill="green" stroke="green" stroke-width="0.519531" points="806.254,-23.4968 815.497,-18.3196 805.043,-16.6023 806.254,-23.4968"/>
</g>
<!-- &#45;39&#45;&gt;1 -->
<g id="edge147" class="edge"><title>&#45;39&#45;&gt;1</title>
<path fill="none" stroke="green" stroke-width="0.137212" stroke-dasharray="1,5" d="M584.6,-68.3567C587.675,-67.3662 590.921,-66.4184 594,-65.6985 707.595,-39.1407 743.655,-67.5538 854,-29.6985 854.876,-29.398 855.756,-29.0644 856.634,-28.7043"/>
<polygon fill="green" stroke="green" stroke-width="0.137212" points="858.363,-31.7525 865.732,-24.1393 855.224,-25.496 858.363,-31.7525"/>
</g>
<!-- &#45;39&#45;&gt;2 -->
<g id="edge148" class="edge"><title>&#45;39&#45;&gt;2</title>
<path fill="none" stroke="red" stroke-width="0.31478" d="M584.581,-68.2687C587.657,-67.2845 590.908,-66.3616 594,-65.6985 749.493,-32.3504 798.652,-78.5263 950,-29.6985 951.053,-29.3588 952.111,-28.9683 953.163,-28.5389"/>
<polygon fill="red" stroke="red" stroke-width="0.31478" points="954.909,-31.5782 962.257,-23.9451 951.753,-25.3302 954.909,-31.5782"/>
</g>
<!-- &#45;39&#45;&gt;3 -->
<g id="edge149" class="edge"><title>&#45;39&#45;&gt;3</title>
<path fill="none" stroke="red" stroke-width="0.106102" d="M584.589,-68.306C587.664,-67.3191 590.913,-66.3857 594,-65.6985 728.527,-35.7493 771.17,-73.0346 902,-29.6985 902.879,-29.4073 903.762,-29.0816 904.642,-28.7282"/>
<polygon fill="red" stroke="red" stroke-width="0.106102" points="906.358,-31.784 913.75,-24.1943 903.238,-25.5175 906.358,-31.784"/>
</g>
<!-- &#45;40 -->
<g id="node40" class="node"><title>&#45;40</title>
<polygon fill="lightgray" stroke="black" points="631.5,-83.6985 602.5,-83.6985 602.5,-65.6985 631.5,-65.6985 631.5,-83.6985"/>
<text text-anchor="middle" x="617" y="-72.4985" font-family="Times New Roman,serif" font-size="9.00">&#45;40</text>
</g>
<!-- &#45;40&#45;&gt;0 -->
<g id="edge150" class="edge"><title>&#45;40&#45;&gt;0</title>
<path fill="none" stroke="red" stroke-width="0.13109" d="M631.676,-68.6415C634.745,-67.6304 637.97,-66.6022 641,-65.6985 699.647,-48.2093 769.46,-30.6223 805.602,-21.7548"/>
<polygon fill="red" stroke="red" stroke-width="0.13109" points="806.803,-25.0644 815.688,-19.2925 805.143,-18.2641 806.803,-25.0644"/>
</g>
<!-- &#45;40&#45;&gt;1 -->
<g id="edge151" class="edge"><title>&#45;40&#45;&gt;1</title>
<path fill="none" stroke="red" stroke-width="0.101272" d="M631.618,-68.4278C634.691,-67.4321 637.932,-66.4643 641,-65.6985 734.152,-42.4489 763.661,-62.2049 854,-29.6985 854.871,-29.3849 855.747,-29.0403 856.622,-28.6709"/>
<polygon fill="red" stroke="red" stroke-width="0.101272" points="858.371,-31.7086 865.705,-24.0623 855.203,-25.4663 858.371,-31.7086"/>
</g>
<!-- &#45;40&#45;&gt;2 -->
<g id="edge152" class="edge"><title>&#45;40&#45;&gt;2</title>
<path fill="none" stroke="red" stroke-width="0.443089" d="M631.589,-68.3051C634.664,-67.3183 637.913,-66.3851 641,-65.6985 775.964,-35.6786 818.743,-73.149 950,-29.6985 950.879,-29.4075 951.762,-29.0819 952.642,-28.7286"/>
<polygon fill="red" stroke="red" stroke-width="0.443089" points="954.358,-31.7845 961.75,-24.1953 951.238,-25.5179 954.358,-31.7845"/>
</g>
<!-- &#45;40&#45;&gt;3 -->
<g id="edge153" class="edge"><title>&#45;40&#45;&gt;3</title>
<path fill="none" stroke="red" stroke-width="0.284869" stroke-dasharray="1,5" d="M631.6,-68.3554C634.675,-67.365 637.921,-66.4176 641,-65.6985 755.03,-39.0702 791.228,-67.6678 902,-29.6985 902.876,-29.3982 903.756,-29.0648 904.634,-28.7049"/>
<polygon fill="red" stroke="red" stroke-width="0.284869" points="906.363,-31.7533 913.732,-24.1406 903.224,-25.4966 906.363,-31.7533"/>
</g>
</g>
</svg>
