<?xml version="1.0" encoding="UTF-8" standalone="no"?>
<!DOCTYPE svg PUBLIC "-//W3C//DTD SVG 1.1//EN"
 "http://www.w3.org/Graphics/SVG/1.1/DTD/svg11.dtd">
<!-- Generated by graphviz version 2.38.0 (20140413.2041)
 -->
<!-- Title: %3 Pages: 1 -->
<svg width="2494pt" height="170pt"
 viewBox="0.00 0.00 2494.43 170.12" xmlns="http://www.w3.org/2000/svg" xmlns:xlink="http://www.w3.org/1999/xlink">
<g id="graph0" class="graph" transform="scale(1 1) rotate(0) translate(4 166.125)">
<title>%3</title>
<polygon fill="white" stroke="none" points="-4,4 -4,-166.125 2490.43,-166.125 2490.43,4 -4,4"/>
<!-- &#45;1 -->
<g id="node1" class="node"><title>&#45;1</title>
<polygon fill="lightgray" stroke="black" points="1798.21,-95.9117 1774.21,-95.9117 1774.21,-77.9117 1798.21,-77.9117 1798.21,-95.9117"/>
<text text-anchor="middle" x="1786.21" y="-84.7117" font-family="Times New Roman,serif" font-size="9.00">&#45;1</text>
</g>
<!-- 0 -->
<g id="node41" class="node"><title>0</title>
<ellipse fill="lightblue" stroke="black" cx="1059.21" cy="-14.8492" rx="14.7" ry="14.7"/>
<text text-anchor="middle" x="1059.21" y="-12.6492" font-family="Times New Roman,serif" font-size="9.00">0</text>
</g>
<!-- &#45;1&#45;&gt;0 -->
<g id="edge1" class="edge"><title>&#45;1&#45;&gt;0</title>
<path fill="none" stroke="red" stroke-width="0.120955" d="M1780.17,-77.7478C1776.4,-73.3421 1771.15,-68.2888 1765.21,-65.6985 1635.47,-9.08638 1269.65,-47.4785 1129.21,-29.6985 1113.89,-27.7586 1096.89,-24.4236 1083.48,-21.5123"/>
<polygon fill="red" stroke="red" stroke-width="0.120955" points="1084.12,-18.0688 1073.6,-19.3032 1082.59,-24.9002 1084.12,-18.0688"/>
</g>
<!-- 1 -->
<g id="node42" class="node"><title>1</title>
<ellipse fill="lightblue" stroke="black" cx="1153.21" cy="-14.8492" rx="14.7" ry="14.7"/>
<text text-anchor="middle" x="1153.21" y="-12.6492" font-family="Times New Roman,serif" font-size="9.00">1</text>
</g>
<!-- &#45;1&#45;&gt;1 -->
<g id="edge2" class="edge"><title>&#45;1&#45;&gt;1</title>
<path fill="none" stroke="green" stroke-width="0.200571" d="M1780.14,-77.8028C1776.37,-73.4153 1771.12,-68.362 1765.21,-65.6985 1758.4,-62.6227 1292.78,-26.5977 1178.39,-17.7853"/>
<polygon fill="green" stroke="green" stroke-width="0.200571" points="1178.39,-14.2757 1168.16,-16.9977 1177.86,-21.2551 1178.39,-14.2757"/>
</g>
<!-- 2 -->
<g id="node43" class="node"><title>2</title>
<ellipse fill="lightblue" stroke="black" cx="1436.21" cy="-14.8492" rx="14.7" ry="14.7"/>
<text text-anchor="middle" x="1436.21" y="-12.6492" font-family="Times New Roman,serif" font-size="9.00">2</text>
</g>
<!-- &#45;1&#45;&gt;2 -->
<g id="edge3" class="edge"><title>&#45;1&#45;&gt;2</title>
<path fill="none" stroke="green" stroke-width="0.557745" d="M1779.71,-77.5459C1775.94,-73.304 1770.84,-68.4748 1765.21,-65.6985 1711.48,-39.1852 1528.78,-22.9075 1461.42,-17.6871"/>
<polygon fill="green" stroke="green" stroke-width="0.557745" points="1461.53,-14.1847 1451.29,-16.9182 1461,-21.1647 1461.53,-14.1847"/>
</g>
<!-- 3 -->
<g id="node44" class="node"><title>3</title>
<ellipse fill="lightblue" stroke="black" cx="1365.21" cy="-14.8492" rx="14.7" ry="14.7"/>
<text text-anchor="middle" x="1365.21" y="-12.6492" font-family="Times New Roman,serif" font-size="9.00">3</text>
</g>
<!-- &#45;1&#45;&gt;3 -->
<g id="edge4" class="edge"><title>&#45;1&#45;&gt;3</title>
<path fill="none" stroke="red" stroke-width="0.108297" d="M1780.12,-77.8477C1776.34,-73.4753 1771.09,-68.422 1765.21,-65.6985 1622.13,0.611796 1566.95,-60.1157 1412.21,-29.6985 1404.5,-28.1818 1396.23,-25.9548 1388.81,-23.7281"/>
<polygon fill="red" stroke="red" stroke-width="0.108297" points="1389.62,-20.315 1379.03,-20.6546 1387.52,-26.9928 1389.62,-20.315"/>
</g>
<!-- &#45;2 -->
<g id="node2" class="node"><title>&#45;2</title>
<polygon fill="lightgray" stroke="black" points="1840.21,-95.9117 1816.21,-95.9117 1816.21,-77.9117 1840.21,-77.9117 1840.21,-95.9117"/>
<text text-anchor="middle" x="1828.21" y="-84.7117" font-family="Times New Roman,serif" font-size="9.00">&#45;2</text>
</g>
<!-- &#45;2&#45;&gt;0 -->
<g id="edge5" class="edge"><title>&#45;2&#45;&gt;0</title>
<path fill="none" stroke="red" stroke-width="0.217851" d="M1822.17,-77.7401C1818.4,-73.3318 1813.15,-68.2785 1807.21,-65.6985 1668.82,-5.60123 1278.93,-48.3874 1129.21,-29.6985 1113.89,-27.7854 1096.89,-24.451 1083.48,-21.5335"/>
<polygon fill="red" stroke="red" stroke-width="0.217851" points="1084.12,-18.0902 1073.59,-19.3181 1082.59,-24.9207 1084.12,-18.0902"/>
</g>
<!-- &#45;2&#45;&gt;1 -->
<g id="edge6" class="edge"><title>&#45;2&#45;&gt;1</title>
<path fill="none" stroke="green" stroke-width="0.438232" d="M1822.15,-77.7912C1818.37,-73.4 1813.12,-68.3467 1807.21,-65.6985 1803.54,-64.0549 1296.89,-26.4806 1177.99,-17.6811"/>
<polygon fill="green" stroke="green" stroke-width="0.438232" points="1178.24,-14.1905 1168.01,-16.943 1177.72,-21.1714 1178.24,-14.1905"/>
</g>
<!-- &#45;2&#45;&gt;2 -->
<g id="edge7" class="edge"><title>&#45;2&#45;&gt;2</title>
<path fill="none" stroke="green" stroke-width="0.219483" d="M1821.73,-77.5081C1817.97,-73.2551 1812.86,-68.4274 1807.21,-65.6985 1745.57,-35.9244 1534.11,-21.3944 1461.18,-17.1834"/>
<polygon fill="green" stroke="green" stroke-width="0.219483" points="1461.26,-13.6826 1451.08,-16.6157 1460.87,-20.6716 1461.26,-13.6826"/>
</g>
<!-- &#45;2&#45;&gt;3 -->
<g id="edge8" class="edge"><title>&#45;2&#45;&gt;3</title>
<path fill="none" stroke="green" stroke-width="0.1641" stroke-dasharray="1,5" d="M1822.13,-77.824C1818.35,-73.4437 1813.1,-68.3904 1807.21,-65.6985 1646.88,7.56424 1585.37,-62.7698 1412.21,-29.6985 1404.49,-28.2233 1396.22,-26.0078 1388.8,-23.7789"/>
<polygon fill="green" stroke="green" stroke-width="0.1641" points="1389.61,-20.3663 1379.02,-20.6949 1387.51,-27.0419 1389.61,-20.3663"/>
</g>
<!-- &#45;3 -->
<g id="node3" class="node"><title>&#45;3</title>
<polygon fill="lightgray" stroke="black" points="1882.21,-95.9117 1858.21,-95.9117 1858.21,-77.9117 1882.21,-77.9117 1882.21,-95.9117"/>
<text text-anchor="middle" x="1870.21" y="-84.7117" font-family="Times New Roman,serif" font-size="9.00">&#45;3</text>
</g>
<!-- &#45;3&#45;&gt;0 -->
<g id="edge9" class="edge"><title>&#45;3&#45;&gt;0</title>
<path fill="none" stroke="red" stroke-width="1.04834" d="M1864.17,-77.7332C1860.41,-73.3226 1855.16,-68.2693 1849.21,-65.6985 1702.17,-2.11559 1288.21,-49.2964 1129.21,-29.6985 1113.88,-27.8091 1096.88,-24.4753 1083.48,-21.5522"/>
<polygon fill="red" stroke="red" stroke-width="1.04834" points="1084.12,-18.1091 1073.59,-19.3313 1082.58,-24.9388 1084.12,-18.1091"/>
</g>
<!-- &#45;3&#45;&gt;1 -->
<g id="edge10" class="edge"><title>&#45;3&#45;&gt;1</title>
<path fill="none" stroke="green" stroke-width="0.156378" d="M1864.15,-77.7794C1860.38,-73.3842 1855.13,-68.3309 1849.21,-65.6985 1745.81,-19.7035 1454.09,-37.8557 1341.21,-29.6985 1282.94,-25.4871 1214.51,-20.4141 1178.43,-17.7294"/>
<polygon fill="green" stroke="green" stroke-width="0.156378" points="1178.55,-14.2289 1168.32,-16.9765 1178.03,-21.2095 1178.55,-14.2289"/>
</g>
<!-- &#45;3&#45;&gt;2 -->
<g id="edge11" class="edge"><title>&#45;3&#45;&gt;2</title>
<path fill="none" stroke="green" stroke-width="0.29567" d="M1864.1,-77.8884C1860.31,-73.5295 1855.06,-68.4762 1849.21,-65.6985 1779.88,-32.7835 1540.98,-20.1618 1461.88,-16.8254"/>
<polygon fill="green" stroke="green" stroke-width="0.29567" points="1461.54,-13.3088 1451.41,-16.3992 1461.26,-20.303 1461.54,-13.3088"/>
</g>
<!-- &#45;3&#45;&gt;3 -->
<g id="edge12" class="edge"><title>&#45;3&#45;&gt;3</title>
<path fill="none" stroke="green" stroke-width="0.201823" d="M1864.14,-77.8048C1860.37,-73.4181 1855.12,-68.3648 1849.21,-65.6985 1760.41,-25.5883 1508,-47.5623 1412.21,-29.6985 1404.48,-28.2569 1396.21,-26.0507 1388.79,-23.82"/>
<polygon fill="green" stroke="green" stroke-width="0.201823" points="1389.61,-20.4078 1379.02,-20.7274 1387.49,-27.0816 1389.61,-20.4078"/>
</g>
<!-- &#45;4 -->
<g id="node4" class="node"><title>&#45;4</title>
<polygon fill="lightgray" stroke="black" points="1924.21,-95.9117 1900.21,-95.9117 1900.21,-77.9117 1924.21,-77.9117 1924.21,-95.9117"/>
<text text-anchor="middle" x="1912.21" y="-84.7117" font-family="Times New Roman,serif" font-size="9.00">&#45;4</text>
</g>
<!-- &#45;4&#45;&gt;0 -->
<g id="edge13" class="edge"><title>&#45;4&#45;&gt;0</title>
<path fill="none" stroke="green" stroke-width="0.357955" d="M1906.17,-77.727C1902.41,-73.3144 1897.16,-68.2611 1891.21,-65.6985 1735.52,1.37045 1297.49,-50.2055 1129.21,-29.6985 1113.88,-27.8301 1096.88,-24.497 1083.47,-21.5688"/>
<polygon fill="green" stroke="green" stroke-width="0.357955" points="1084.12,-18.126 1073.59,-19.343 1082.58,-24.9549 1084.12,-18.126"/>
</g>
<!-- &#45;4&#45;&gt;1 -->
<g id="edge14" class="edge"><title>&#45;4&#45;&gt;1</title>
<path fill="none" stroke="red" stroke-width="0.176757" stroke-dasharray="1,5" d="M1906.16,-77.7675C1902.39,-73.3683 1897.14,-68.315 1891.21,-65.6985 1779.17,-16.2206 1463.4,-38.1978 1341.21,-29.6985 1282.93,-25.644 1214.5,-20.5091 1178.43,-17.7725"/>
<polygon fill="red" stroke="red" stroke-width="0.176757" points="1178.56,-14.2722 1168.32,-17.0041 1178.02,-21.252 1178.56,-14.2722"/>
</g>
<!-- &#45;4&#45;&gt;2 -->
<g id="edge15" class="edge"><title>&#45;4&#45;&gt;2</title>
<path fill="none" stroke="green" stroke-width="0.294059" d="M1906.11,-77.8642C1902.33,-73.4973 1897.08,-68.444 1891.21,-65.6985 1813.72,-29.433 1544.67,-18.907 1461.15,-16.478"/>
<polygon fill="green" stroke="green" stroke-width="0.294059" points="1461.14,-12.9767 1451.05,-16.1981 1460.95,-19.974 1461.14,-12.9767"/>
</g>
<!-- &#45;4&#45;&gt;3 -->
<g id="edge16" class="edge"><title>&#45;4&#45;&gt;3</title>
<path fill="none" stroke="red" stroke-width="0.307979" d="M1906.15,-77.7889C1902.38,-73.3969 1897.13,-68.3436 1891.21,-65.6985 1793.77,-22.1077 1517.22,-48.8914 1412.21,-29.6985 1404.48,-28.2847 1396.2,-26.0862 1388.78,-23.854"/>
<polygon fill="red" stroke="red" stroke-width="0.307979" points="1389.6,-20.4421 1379.01,-20.7544 1387.48,-27.1144 1389.6,-20.4421"/>
</g>
<!-- &#45;5 -->
<g id="node5" class="node"><title>&#45;5</title>
<polygon fill="lightgray" stroke="black" points="1966.21,-95.9117 1942.21,-95.9117 1942.21,-77.9117 1966.21,-77.9117 1966.21,-95.9117"/>
<text text-anchor="middle" x="1954.21" y="-84.7117" font-family="Times New Roman,serif" font-size="9.00">&#45;5</text>
</g>
<!-- &#45;5&#45;&gt;0 -->
<g id="edge17" class="edge"><title>&#45;5&#45;&gt;0</title>
<path fill="none" stroke="green" stroke-width="0.166379" d="M1948.18,-77.7216C1944.42,-73.3071 1939.17,-68.2538 1933.21,-65.6985 1851.04,-30.4208 1217.99,-40.4066 1129.21,-29.6985 1113.88,-27.849 1096.88,-24.5163 1083.47,-21.5837"/>
<polygon fill="green" stroke="green" stroke-width="0.166379" points="1084.12,-18.141 1073.59,-19.3535 1082.57,-24.9693 1084.12,-18.141"/>
</g>
<!-- &#45;5&#45;&gt;1 -->
<g id="edge18" class="edge"><title>&#45;5&#45;&gt;1</title>
<path fill="none" stroke="green" stroke-width="0.502604" d="M1948.16,-77.7572C1944.39,-73.3546 1939.14,-68.3013 1933.21,-65.6985 1812.52,-12.7369 1472.71,-38.5401 1341.21,-29.6985 1282.92,-25.7789 1214.5,-20.5907 1178.43,-17.8096"/>
<polygon fill="green" stroke="green" stroke-width="0.502604" points="1178.56,-14.3094 1168.32,-17.0278 1178.02,-21.2885 1178.56,-14.3094"/>
</g>
<!-- &#45;5&#45;&gt;2 -->
<g id="edge19" class="edge"><title>&#45;5&#45;&gt;2</title>
<path fill="none" stroke="green" stroke-width="0.4328" d="M1948.12,-77.8441C1944.34,-73.4704 1939.09,-68.4171 1933.21,-65.6985 1847.92,-26.2566 1550.83,-17.8692 1461.69,-16.224"/>
<polygon fill="green" stroke="green" stroke-width="0.4328" points="1461.48,-12.7201 1451.43,-16.0481 1461.36,-19.7191 1461.48,-12.7201"/>
</g>
<!-- &#45;5&#45;&gt;3 -->
<g id="edge20" class="edge"><title>&#45;5&#45;&gt;3</title>
<path fill="none" stroke="green" stroke-width="0.477505" d="M1948.15,-77.7755C1944.38,-73.379 1939.13,-68.3257 1933.21,-65.6985 1827.13,-18.6256 1526.44,-50.2211 1412.21,-29.6985 1404.47,-28.308 1396.2,-26.116 1388.78,-23.8825"/>
<polygon fill="green" stroke="green" stroke-width="0.477505" points="1389.6,-20.4709 1379.01,-20.777 1387.48,-27.142 1389.6,-20.4709"/>
</g>
<!-- &#45;6 -->
<g id="node6" class="node"><title>&#45;6</title>
<polygon fill="lightgray" stroke="black" points="585.213,-95.9117 561.213,-95.9117 561.213,-77.9117 585.213,-77.9117 585.213,-95.9117"/>
<text text-anchor="middle" x="573.213" y="-84.7117" font-family="Times New Roman,serif" font-size="9.00">&#45;6</text>
</g>
<!-- &#45;6&#45;&gt;0 -->
<g id="edge21" class="edge"><title>&#45;6&#45;&gt;0</title>
<path fill="none" stroke="red" stroke-width="0.325595" d="M579.311,-77.8591C583.093,-73.4905 588.343,-68.4372 594.213,-65.6985 673.512,-28.6998 948.939,-18.6656 1034,-16.4184"/>
<polygon fill="red" stroke="red" stroke-width="0.325595" points="1034.14,-19.9159 1044.05,-16.1662 1033.97,-12.9182 1034.14,-19.9159"/>
</g>
<!-- &#45;6&#45;&gt;1 -->
<g id="edge22" class="edge"><title>&#45;6&#45;&gt;1</title>
<path fill="none" stroke="green" stroke-width="0.246157" d="M579.277,-77.7855C583.049,-73.3923 588.299,-68.339 594.213,-65.6985 693.709,-21.2787 975.235,-44.2994 1083.21,-29.6985 1098.52,-27.6289 1115.52,-24.2904 1128.93,-21.4099"/>
<polygon fill="green" stroke="green" stroke-width="0.246157" points="1129.81,-24.801 1138.82,-19.2309 1128.3,-17.965 1129.81,-24.801"/>
</g>
<!-- &#45;6&#45;&gt;2 -->
<g id="edge23" class="edge"><title>&#45;6&#45;&gt;2</title>
<path fill="none" stroke="red" stroke-width="0.116588" d="M579.25,-77.7227C583.012,-73.3086 588.262,-68.2553 594.213,-65.6985 756.7,4.10973 1214.79,-58.9037 1389.21,-29.6985 1396.97,-28.3999 1405.25,-26.2334 1412.67,-23.9952"/>
<polygon fill="red" stroke="red" stroke-width="0.116588" points="1413.98,-27.2506 1422.43,-20.8661 1411.84,-20.5844 1413.98,-27.2506"/>
</g>
<!-- &#45;6&#45;&gt;3 -->
<g id="edge24" class="edge"><title>&#45;6&#45;&gt;3</title>
<path fill="none" stroke="green" stroke-width="0.106455" d="M579.266,-77.7593C583.033,-73.3573 588.283,-68.304 594.213,-65.6985 713.05,-13.4834 1047.71,-38.4667 1177.21,-29.6985 1235.51,-25.7516 1303.93,-20.5742 1340,-17.8021"/>
<polygon fill="green" stroke="green" stroke-width="0.106455" points="1340.41,-21.2811 1350.11,-17.023 1339.87,-14.3018 1340.41,-21.2811"/>
</g>
<!-- &#45;7 -->
<g id="node7" class="node"><title>&#45;7</title>
<polygon fill="lightgray" stroke="black" points="297.213,-162.125 273.213,-162.125 273.213,-144.125 297.213,-144.125 297.213,-162.125"/>
<text text-anchor="middle" x="285.213" y="-150.925" font-family="Times New Roman,serif" font-size="9.00">&#45;7</text>
</g>
<!-- &#45;7&#45;&gt;0 -->
<g id="edge25" class="edge"><title>&#45;7&#45;&gt;0</title>
<path fill="none" stroke="red" stroke-width="0.124101" stroke-dasharray="1,5" d="M273.054,-147.225C248.923,-137.383 196.895,-115.52 192.213,-108.125 182.126,-92.1935 179.268,-79.4092 192.213,-65.6985 221.911,-34.2445 895.354,-19.12 1034.28,-16.3289"/>
<polygon fill="red" stroke="red" stroke-width="0.124101" points="1034.44,-19.8265 1044.37,-16.1292 1034.3,-12.8279 1034.44,-19.8265"/>
</g>
<!-- &#45;7&#45;&gt;1 -->
<g id="edge26" class="edge"><title>&#45;7&#45;&gt;1</title>
<path fill="none" stroke="red" stroke-width="0.3654" d="M284.346,-144.086C282.965,-126.626 282.502,-85.2429 306.213,-65.6985 372.904,-10.7274 997.417,-40.1143 1083.21,-29.6985 1098.55,-27.8371 1115.55,-24.5041 1128.95,-21.5743"/>
<polygon fill="red" stroke="red" stroke-width="0.3654" points="1129.85,-24.9602 1138.84,-19.3469 1128.31,-18.1315 1129.85,-24.9602"/>
</g>
<!-- &#45;7&#45;&gt;2 -->
<g id="edge27" class="edge"><title>&#45;7&#45;&gt;2</title>
<path fill="none" stroke="green" stroke-width="0.527882" stroke-dasharray="1,5" d="M297.321,-152.085C458.83,-151.528 2182.43,-144.732 2218.21,-108.125 2231.39,-94.6407 2231.12,-79.4494 2218.21,-65.6985 2191.7,-37.442 1592.86,-19.9941 1461.52,-16.4996"/>
<polygon fill="green" stroke="green" stroke-width="0.527882" points="1461.35,-12.9938 1451.26,-16.2297 1461.16,-19.9914 1461.35,-12.9938"/>
</g>
<!-- &#45;7&#45;&gt;3 -->
<g id="edge28" class="edge"><title>&#45;7&#45;&gt;3</title>
<path fill="none" stroke="green" stroke-width="0.518072" d="M297.594,-152.067C455.701,-151.302 2075.54,-142.621 2109.21,-108.125 2122.38,-94.6317 2122.2,-79.3714 2109.21,-65.6985 2055.81,-9.46757 1488.66,-42.7478 1412.21,-29.6985 1404.46,-28.3753 1396.18,-26.202 1388.76,-23.965"/>
<polygon fill="green" stroke="green" stroke-width="0.518072" points="1389.59,-20.554 1379,-20.8423 1387.45,-27.2215 1389.59,-20.554"/>
</g>
<!-- 479 -->
<g id="node48" class="node"><title>479</title>
<ellipse fill="white" stroke="black" cx="119.213" cy="-86.9117" rx="21.4286" ry="21.4286"/>
<text text-anchor="middle" x="119.213" y="-84.7117" font-family="Times New Roman,serif" font-size="9.00">479</text>
</g>
<!-- &#45;7&#45;&gt;479 -->
<g id="edge160" class="edge"><title>&#45;7&#45;&gt;479</title>
<path fill="none" stroke="green" stroke-width="0.3" d="M273.133,-147.659C269.916,-146.49 266.439,-145.244 263.213,-144.125 215.012,-127.405 200.769,-128.992 154.213,-108.125 151.512,-106.914 148.75,-105.553 146.022,-104.125"/>
<polygon fill="green" stroke="green" stroke-width="0.3" points="147.451,-100.916 137.008,-99.1285 144.057,-107.038 147.451,-100.916"/>
</g>
<!-- &#45;8 -->
<g id="node8" class="node"><title>&#45;8</title>
<polygon fill="lightgray" stroke="black" points="543.213,-95.9117 519.213,-95.9117 519.213,-77.9117 543.213,-77.9117 543.213,-95.9117"/>
<text text-anchor="middle" x="531.213" y="-84.7117" font-family="Times New Roman,serif" font-size="9.00">&#45;8</text>
</g>
<!-- &#45;8&#45;&gt;0 -->
<g id="edge29" class="edge"><title>&#45;8&#45;&gt;0</title>
<path fill="none" stroke="green" stroke-width="0.406269" stroke-dasharray="1,5" d="M537.302,-77.8397C541.081,-73.4646 546.331,-68.4113 552.213,-65.6985 639.527,-25.4262 944.262,-17.6035 1034.1,-16.1604"/>
<polygon fill="green" stroke="green" stroke-width="0.406269" points="1034.24,-19.6588 1044.19,-16.0113 1034.14,-12.6596 1034.24,-19.6588"/>
</g>
<!-- &#45;8&#45;&gt;1 -->
<g id="edge30" class="edge"><title>&#45;8&#45;&gt;1</title>
<path fill="none" stroke="green" stroke-width="0.327698" d="M537.272,-77.7726C541.041,-73.3752 546.291,-68.3219 552.213,-65.6985 660.349,-17.7963 965.964,-45.2073 1083.21,-29.6985 1098.52,-27.6732 1115.52,-24.336 1128.94,-21.4449"/>
<polygon fill="green" stroke="green" stroke-width="0.327698" points="1129.82,-24.8349 1138.82,-19.2556 1128.3,-18.0005 1129.82,-24.8349"/>
</g>
<!-- &#45;8&#45;&gt;2 -->
<g id="edge31" class="edge"><title>&#45;8&#45;&gt;2</title>
<path fill="none" stroke="red" stroke-width="0.38263" d="M537.248,-77.7176C541.009,-73.3018 546.259,-68.2485 552.213,-65.6985 723.35,7.59634 1205.56,-60.2353 1389.21,-29.6985 1396.97,-28.4087 1405.25,-26.2447 1412.67,-24.0059"/>
<polygon fill="red" stroke="red" stroke-width="0.38263" points="1413.98,-27.261 1422.44,-20.8747 1411.85,-20.5953 1413.98,-27.261"/>
</g>
<!-- &#45;9 -->
<g id="node9" class="node"><title>&#45;9</title>
<polygon fill="lightgray" stroke="black" points="627.213,-95.9117 603.213,-95.9117 603.213,-77.9117 627.213,-77.9117 627.213,-95.9117"/>
<text text-anchor="middle" x="615.213" y="-84.7117" font-family="Times New Roman,serif" font-size="9.00">&#45;9</text>
</g>
<!-- &#45;9&#45;&gt;0 -->
<g id="edge32" class="edge"><title>&#45;9&#45;&gt;0</title>
<path fill="none" stroke="red" stroke-width="0.148917" d="M621.688,-77.8824C625.679,-73.5215 631.179,-68.4682 637.213,-65.6985 708.772,-32.8506 954.399,-20.1231 1034.06,-16.8002"/>
<polygon fill="red" stroke="red" stroke-width="0.148917" points="1034.31,-20.2929 1044.16,-16.3926 1034.03,-13.2986 1034.31,-20.2929"/>
</g>
<!-- &#45;9&#45;&gt;1 -->
<g id="edge33" class="edge"><title>&#45;9&#45;&gt;1</title>
<path fill="none" stroke="red" stroke-width="0.110474" d="M621.65,-77.7982C625.629,-73.4093 631.129,-68.356 637.213,-65.6985 728.333,-25.8976 984.724,-43.3702 1083.21,-29.6985 1098.51,-27.5749 1115.51,-24.2351 1128.93,-21.3673"/>
<polygon fill="red" stroke="red" stroke-width="0.110474" points="1129.8,-24.7597 1138.82,-19.2008 1128.3,-17.9218 1129.8,-24.7597"/>
</g>
<!-- &#45;9&#45;&gt;2 -->
<g id="edge34" class="edge"><title>&#45;9&#45;&gt;2</title>
<path fill="none" stroke="green" stroke-width="0.193462" d="M621.618,-77.7233C625.587,-73.3094 631.087,-68.2561 637.213,-65.6985 791.603,-1.24722 1224.24,-57.5405 1389.21,-29.6985 1396.97,-28.3899 1405.25,-26.2206 1412.67,-23.9829"/>
<polygon fill="green" stroke="green" stroke-width="0.193462" points="1413.98,-27.2388 1422.43,-20.8564 1411.84,-20.572 1413.98,-27.2388"/>
</g>
<!-- &#45;9&#45;&gt;3 -->
<g id="edge35" class="edge"><title>&#45;9&#45;&gt;3</title>
<path fill="none" stroke="green" stroke-width="0.152894" d="M621.636,-77.7663C625.611,-73.3667 631.111,-68.3134 637.213,-65.6985 747.758,-18.3299 1057.24,-38.1163 1177.21,-29.6985 1235.5,-25.6089 1303.92,-20.4878 1340,-17.7629"/>
<polygon fill="green" stroke="green" stroke-width="0.152894" points="1340.4,-21.2425 1350.11,-16.9979 1339.87,-14.2625 1340.4,-21.2425"/>
</g>
<!-- &#45;10 -->
<g id="node10" class="node"><title>&#45;10</title>
<polygon fill="lightgray" stroke="black" points="674.713,-95.9117 645.713,-95.9117 645.713,-77.9117 674.713,-77.9117 674.713,-95.9117"/>
<text text-anchor="middle" x="660.213" y="-84.7117" font-family="Times New Roman,serif" font-size="9.00">&#45;10</text>
</g>
<!-- &#45;10&#45;&gt;0 -->
<g id="edge36" class="edge"><title>&#45;10&#45;&gt;0</title>
<path fill="none" stroke="green" stroke-width="0.425034" d="M667.847,-77.509C672.211,-73.2563 678.035,-68.4286 684.213,-65.6985 747.496,-37.7367 960.607,-22.036 1034.07,-17.3537"/>
<polygon fill="green" stroke="green" stroke-width="0.425034" points="1034.48,-20.8352 1044.24,-16.7196 1034.04,-13.8487 1034.48,-20.8352"/>
</g>
<!-- &#45;10&#45;&gt;1 -->
<g id="edge37" class="edge"><title>&#45;10&#45;&gt;1</title>
<path fill="none" stroke="green" stroke-width="0.264706" d="M667.386,-77.8174C671.777,-73.4348 677.777,-68.3815 684.213,-65.6985 848.558,2.8131 906.968,-55.0123 1083.21,-29.6985 1098.5,-27.5027 1115.5,-24.161 1128.92,-21.3103"/>
<polygon fill="green" stroke="green" stroke-width="0.264706" points="1129.78,-24.7044 1138.81,-19.1606 1128.3,-17.8641 1129.78,-24.7044"/>
</g>
<!-- &#45;10&#45;&gt;2 -->
<g id="edge38" class="edge"><title>&#45;10&#45;&gt;2</title>
<path fill="none" stroke="green" stroke-width="0.328329" d="M667.348,-77.7229C671.726,-73.3089 677.726,-68.2556 684.213,-65.6985 830.155,-8.16968 1234.57,-56.0507 1389.21,-29.6985 1396.96,-28.3776 1405.25,-26.2049 1412.66,-23.9678"/>
<polygon fill="green" stroke="green" stroke-width="0.328329" points="1413.97,-27.2242 1422.43,-20.8445 1411.84,-20.5568 1413.97,-27.2242"/>
</g>
<!-- &#45;10&#45;&gt;3 -->
<g id="edge39" class="edge"><title>&#45;10&#45;&gt;3</title>
<path fill="none" stroke="red" stroke-width="0.154179" d="M667.369,-77.776C671.754,-73.3797 677.754,-68.3264 684.213,-65.6985 785.961,-24.2993 1067.66,-37.7336 1177.21,-29.6985 1235.49,-25.4246 1303.91,-20.3762 1339.99,-17.7122"/>
<polygon fill="red" stroke="red" stroke-width="0.154179" points="1340.39,-21.1926 1350.1,-16.9655 1339.87,-14.2116 1340.39,-21.1926"/>
</g>
<!-- &#45;11 -->
<g id="node11" class="node"><title>&#45;11</title>
<polygon fill="lightgray" stroke="black" points="462.713,-95.9117 433.713,-95.9117 433.713,-77.9117 462.713,-77.9117 462.713,-95.9117"/>
<text text-anchor="middle" x="448.213" y="-84.7117" font-family="Times New Roman,serif" font-size="9.00">&#45;11</text>
</g>
<!-- &#45;11&#45;&gt;0 -->
<g id="edge40" class="edge"><title>&#45;11&#45;&gt;0</title>
<path fill="none" stroke="red" stroke-width="0.164684" d="M457.173,-77.8091C462.576,-73.4238 469.826,-68.3705 477.213,-65.6985 582.124,-27.75 936.604,-18.2098 1034.17,-16.2777"/>
<polygon fill="red" stroke="red" stroke-width="0.164684" points="1034.35,-19.7751 1044.28,-16.087 1034.22,-12.7764 1034.35,-19.7751"/>
</g>
<!-- &#45;11&#45;&gt;1 -->
<g id="edge41" class="edge"><title>&#45;11&#45;&gt;1</title>
<path fill="none" stroke="red" stroke-width="0.254426" d="M457.147,-77.7366C462.542,-73.3272 469.792,-68.2739 477.213,-65.6985 604.661,-21.4704 949.401,-46.8294 1083.21,-29.6985 1098.53,-27.7372 1115.53,-24.4016 1128.94,-21.4954"/>
<polygon fill="red" stroke="red" stroke-width="0.254426" points="1129.83,-24.8839 1138.83,-19.2913 1128.31,-18.0517 1129.83,-24.8839"/>
</g>
<!-- &#45;11&#45;&gt;3 -->
<g id="edge42" class="edge"><title>&#45;11&#45;&gt;3</title>
<path fill="none" stroke="red" stroke-width="0.124214" d="M462.713,-79.9878C475.103,-75.2187 493.519,-68.8146 510.213,-65.6985 802.049,-11.2243 880.94,-48.6047 1177.21,-29.6985 1235.52,-25.9775 1303.94,-20.7109 1340,-17.8641"/>
<polygon fill="red" stroke="red" stroke-width="0.124214" points="1340.42,-21.3423 1350.11,-17.0628 1339.87,-14.3642 1340.42,-21.3423"/>
</g>
<!-- &#45;12 -->
<g id="node12" class="node"><title>&#45;12</title>
<polygon fill="lightgray" stroke="black" points="254.713,-162.125 225.713,-162.125 225.713,-144.125 254.713,-144.125 254.713,-162.125"/>
<text text-anchor="middle" x="240.213" y="-150.925" font-family="Times New Roman,serif" font-size="9.00">&#45;12</text>
</g>
<!-- &#45;12&#45;&gt;0 -->
<g id="edge43" class="edge"><title>&#45;12&#45;&gt;0</title>
<path fill="none" stroke="red" stroke-width="0.307872" d="M225.615,-150.099C191.049,-144.972 105.845,-130.295 89.2132,-108.125 77.8976,-93.0414 76.2265,-79.3697 89.2132,-65.6985 122.709,-30.4366 883.836,-18.2427 1033.72,-16.1796"/>
<polygon fill="red" stroke="red" stroke-width="0.307872" points="1034.22,-19.6733 1044.17,-16.0387 1034.12,-12.6739 1034.22,-19.6733"/>
</g>
<!-- &#45;12&#45;&gt;1 -->
<g id="edge44" class="edge"><title>&#45;12&#45;&gt;1</title>
<path fill="none" stroke="green" stroke-width="0.310281" d="M241.407,-143.892C244.482,-126.045 254.475,-83.9384 282.213,-65.6985 356.652,-16.7502 994.765,-40.3741 1083.21,-29.6985 1098.55,-27.8477 1115.55,-24.515 1128.95,-21.5827"/>
<polygon fill="green" stroke="green" stroke-width="0.310281" points="1129.85,-24.9683 1138.84,-19.3528 1128.31,-18.14 1129.85,-24.9683"/>
</g>
<!-- &#45;12&#45;&gt;2 -->
<g id="edge45" class="edge"><title>&#45;12&#45;&gt;2</title>
<path fill="none" stroke="green" stroke-width="0.391807" d="M254.756,-146.5C257.835,-145.53 261.097,-144.662 264.213,-144.125 314.729,-135.421 2073.32,-144.723 2109.21,-108.125 2122.42,-94.6621 2122.04,-79.5155 2109.21,-65.6985 2064.37,-17.4094 1578.51,-15.4959 1461.47,-15.7407"/>
<polygon fill="green" stroke="green" stroke-width="0.391807" points="1461.31,-12.2411 1451.32,-15.7697 1461.33,-19.2411 1461.31,-12.2411"/>
</g>
<!-- &#45;12&#45;&gt;3 -->
<g id="edge46" class="edge"><title>&#45;12&#45;&gt;3</title>
<path fill="none" stroke="red" stroke-width="0.27186" d="M254.756,-146.502C257.835,-145.532 261.097,-144.663 264.213,-144.125 312.371,-135.803 1989.01,-143.034 2023.21,-108.125 2036.41,-94.6558 2036.15,-79.4183 2023.21,-65.6985 1976.56,-16.2165 1479.21,-41.3852 1412.21,-29.6985 1404.47,-28.3472 1396.19,-26.1661 1388.77,-23.9306"/>
<polygon fill="red" stroke="red" stroke-width="0.27186" points="1389.59,-20.5194 1379,-20.815 1387.46,-27.1883 1389.59,-20.5194"/>
</g>
<!-- 574 -->
<g id="node47" class="node"><title>574</title>
<ellipse fill="white" stroke="black" cx="21.2132" cy="-86.9117" rx="21.4286" ry="21.4286"/>
<text text-anchor="middle" x="21.2132" y="-84.7117" font-family="Times New Roman,serif" font-size="9.00">574</text>
</g>
<!-- &#45;12&#45;&gt;574 -->
<g id="edge162" class="edge"><title>&#45;12&#45;&gt;574</title>
<path fill="none" stroke="green" stroke-width="0.352677" d="M225.461,-150.08C193.658,-145.355 116.626,-132.2 56.2132,-108.125 53.3084,-106.967 50.3544,-105.6 47.4563,-104.132"/>
<polygon fill="green" stroke="green" stroke-width="0.352677" points="48.9686,-100.969 38.5179,-99.2272 45.6012,-107.106 48.9686,-100.969"/>
</g>
<!-- &#45;13 -->
<g id="node13" class="node"><title>&#45;13</title>
<polygon fill="lightgray" stroke="black" points="415.713,-95.9117 386.713,-95.9117 386.713,-77.9117 415.713,-77.9117 415.713,-95.9117"/>
<text text-anchor="middle" x="401.213" y="-84.7117" font-family="Times New Roman,serif" font-size="9.00">&#45;13</text>
</g>
<!-- &#45;13&#45;&gt;0 -->
<g id="edge47" class="edge"><title>&#45;13&#45;&gt;0</title>
<path fill="none" stroke="red" stroke-width="0.155097" d="M408.012,-77.7909C412.195,-73.3995 417.945,-68.3462 424.213,-65.6985 537.119,-18.0065 930.615,-15.5315 1034.11,-15.7252"/>
<polygon fill="red" stroke="red" stroke-width="0.155097" points="1034.23,-19.2255 1044.24,-15.755 1034.25,-12.2255 1034.23,-19.2255"/>
</g>
<!-- &#45;13&#45;&gt;1 -->
<g id="edge48" class="edge"><title>&#45;13&#45;&gt;1</title>
<path fill="none" stroke="green" stroke-width="0.51083" d="M407.989,-77.7348C412.164,-73.3248 417.914,-68.2715 424.213,-65.6985 559.986,-10.2395 937.694,-47.9762 1083.21,-29.6985 1098.54,-27.7737 1115.54,-24.439 1128.95,-21.5242"/>
<polygon fill="green" stroke="green" stroke-width="0.51083" points="1129.84,-24.9118 1138.83,-19.3116 1128.31,-18.0808 1129.84,-24.9118"/>
</g>
<!-- &#45;13&#45;&gt;3 -->
<g id="edge49" class="edge"><title>&#45;13&#45;&gt;3</title>
<path fill="none" stroke="green" stroke-width="0.434682" d="M407.982,-77.7188C412.155,-73.3034 417.905,-68.2501 424.213,-65.6985 501.863,-34.2886 1093.6,-34.7758 1177.21,-29.6985 1235.53,-26.1568 1303.94,-20.8194 1340.01,-17.9134"/>
<polygon fill="green" stroke="green" stroke-width="0.434682" points="1340.43,-21.3908 1350.11,-17.0943 1339.86,-14.4137 1340.43,-21.3908"/>
</g>
<!-- &#45;14 -->
<g id="node14" class="node"><title>&#45;14</title>
<polygon fill="lightgray" stroke="black" points="721.713,-95.9117 692.713,-95.9117 692.713,-77.9117 721.713,-77.9117 721.713,-95.9117"/>
<text text-anchor="middle" x="707.213" y="-84.7117" font-family="Times New Roman,serif" font-size="9.00">&#45;14</text>
</g>
<!-- &#45;14&#45;&gt;0 -->
<g id="edge50" class="edge"><title>&#45;14&#45;&gt;0</title>
<path fill="none" stroke="green" stroke-width="0.257615" d="M714.868,-77.5549C719.237,-73.3156 725.06,-68.4861 731.213,-65.6985 836.225,-18.1223 977.536,-14.4688 1034.19,-15.1388"/>
<polygon fill="green" stroke="green" stroke-width="0.257615" points="1034.3,-18.6412 1044.36,-15.3188 1034.42,-11.6423 1034.3,-18.6412"/>
</g>
<!-- &#45;14&#45;&gt;1 -->
<g id="edge51" class="edge"><title>&#45;14&#45;&gt;1</title>
<path fill="none" stroke="red" stroke-width="0.144234" d="M714.398,-77.8461C718.793,-73.4732 724.793,-68.4199 731.213,-65.6985 876.002,-4.32249 927.686,-52.9848 1083.21,-29.6985 1098.49,-27.4115 1115.49,-24.0674 1128.91,-21.2383"/>
<polygon fill="red" stroke="red" stroke-width="0.144234" points="1129.76,-24.6345 1138.8,-19.1098 1128.29,-17.7911 1129.76,-24.6345"/>
</g>
<!-- &#45;14&#45;&gt;2 -->
<g id="edge52" class="edge"><title>&#45;14&#45;&gt;2</title>
<path fill="none" stroke="red" stroke-width="0.364557" d="M714.351,-77.7318C718.731,-73.3207 724.731,-68.2674 731.213,-65.6985 867.353,-11.7469 1244.9,-54.5611 1389.21,-29.6985 1396.96,-28.3635 1405.24,-26.1869 1412.66,-23.9505"/>
<polygon fill="red" stroke="red" stroke-width="0.364557" points="1413.97,-27.2075 1422.43,-20.8308 1411.84,-20.5394 1413.97,-27.2075"/>
</g>
<!-- &#45;14&#45;&gt;3 -->
<g id="edge53" class="edge"><title>&#45;14&#45;&gt;3</title>
<path fill="none" stroke="red" stroke-width="0.481541" d="M714.375,-77.7895C718.762,-73.3977 724.762,-68.3444 731.213,-65.6985 738.403,-62.7496 1223.71,-26.4021 1340.26,-17.7083"/>
<polygon fill="red" stroke="red" stroke-width="0.481541" points="1340.64,-21.1893 1350.35,-16.9554 1340.12,-14.2087 1340.64,-21.1893"/>
</g>
<!-- &#45;15 -->
<g id="node15" class="node"><title>&#45;15</title>
<polygon fill="lightgray" stroke="black" points="768.713,-95.9117 739.713,-95.9117 739.713,-77.9117 768.713,-77.9117 768.713,-95.9117"/>
<text text-anchor="middle" x="754.213" y="-84.7117" font-family="Times New Roman,serif" font-size="9.00">&#45;15</text>
</g>
<!-- &#45;15&#45;&gt;0 -->
<g id="edge54" class="edge"><title>&#45;15&#45;&gt;0</title>
<path fill="none" stroke="green" stroke-width="0.344266" d="M761.896,-77.6155C766.273,-73.3939 772.095,-68.562 778.213,-65.6985 866.007,-24.6062 983.731,-17.2075 1034.36,-16.003"/>
<polygon fill="green" stroke="green" stroke-width="0.344266" points="1034.45,-19.5021 1044.38,-15.827 1034.32,-12.5032 1034.45,-19.5021"/>
</g>
<!-- &#45;15&#45;&gt;1 -->
<g id="edge55" class="edge"><title>&#45;15&#45;&gt;1</title>
<path fill="none" stroke="green" stroke-width="0.274016" d="M761.414,-77.8836C765.815,-73.5231 771.815,-68.4698 778.213,-65.6985 903.466,-11.4495 948.383,-50.9605 1083.21,-29.6985 1098.47,-27.2927 1115.47,-23.9455 1128.89,-21.1445"/>
<polygon fill="green" stroke="green" stroke-width="0.274016" points="1129.74,-24.5434 1138.79,-19.0436 1128.28,-17.6959 1129.74,-24.5434"/>
</g>
<!-- &#45;15&#45;&gt;2 -->
<g id="edge56" class="edge"><title>&#45;15&#45;&gt;2</title>
<path fill="none" stroke="red" stroke-width="0.132493" d="M761.355,-77.742C765.736,-73.3343 771.736,-68.281 778.213,-65.6985 904.554,-15.3236 1255.22,-53.0718 1389.21,-29.6985 1396.96,-28.3472 1405.24,-26.1661 1412.66,-23.9306"/>
<polygon fill="red" stroke="red" stroke-width="0.132493" points="1413.96,-27.1883 1422.43,-20.815 1411.84,-20.5194 1413.96,-27.1883"/>
</g>
<!-- &#45;15&#45;&gt;3 -->
<g id="edge57" class="edge"><title>&#45;15&#45;&gt;3</title>
<path fill="none" stroke="red" stroke-width="0.378298" d="M761.381,-77.8046C765.77,-73.4179 771.77,-68.3646 778.213,-65.6985 791.433,-60.2283 1230.21,-26.2207 1340.34,-17.7557"/>
<polygon fill="red" stroke="red" stroke-width="0.378298" points="1340.79,-21.2315 1350.49,-16.9761 1340.25,-14.2521 1340.79,-21.2315"/>
</g>
<!-- &#45;16 -->
<g id="node16" class="node"><title>&#45;16</title>
<polygon fill="lightgray" stroke="black" points="815.713,-95.9117 786.713,-95.9117 786.713,-77.9117 815.713,-77.9117 815.713,-95.9117"/>
<text text-anchor="middle" x="801.213" y="-84.7117" font-family="Times New Roman,serif" font-size="9.00">&#45;16</text>
</g>
<!-- &#45;16&#45;&gt;0 -->
<g id="edge58" class="edge"><title>&#45;16&#45;&gt;0</title>
<path fill="none" stroke="red" stroke-width="0.342216" d="M808.936,-77.6989C813.325,-73.5017 819.145,-68.6666 825.213,-65.6985 895.899,-31.1228 990.113,-20.4216 1034.32,-17.1943"/>
<polygon fill="red" stroke="red" stroke-width="0.342216" points="1034.69,-20.6776 1044.44,-16.5249 1034.23,-13.6929 1034.69,-20.6776"/>
</g>
<!-- &#45;16&#45;&gt;1 -->
<g id="edge59" class="edge"><title>&#45;16&#45;&gt;1</title>
<path fill="none" stroke="green" stroke-width="0.298654" d="M808.854,-77.525C813.22,-73.2769 819.043,-68.4486 825.213,-65.6985 930.961,-18.5631 969.046,-48.9415 1083.21,-29.6985 1098.44,-27.1315 1115.44,-23.7801 1128.87,-21.0172"/>
<polygon fill="green" stroke="green" stroke-width="0.298654" points="1129.7,-24.4196 1138.78,-18.9537 1128.27,-17.5667 1129.7,-24.4196"/>
</g>
<!-- &#45;16&#45;&gt;2 -->
<g id="edge60" class="edge"><title>&#45;16&#45;&gt;2</title>
<path fill="none" stroke="red" stroke-width="0.254692" d="M808.36,-77.7539C812.743,-73.3501 818.743,-68.2968 825.213,-65.6985 941.756,-18.8994 1265.55,-51.5829 1389.21,-29.6985 1396.96,-28.3283 1405.24,-26.1419 1412.65,-23.9074"/>
<polygon fill="red" stroke="red" stroke-width="0.254692" points="1413.96,-27.166 1422.42,-20.7967 1411.83,-20.496 1413.96,-27.166"/>
</g>
<!-- &#45;16&#45;&gt;3 -->
<g id="edge61" class="edge"><title>&#45;16&#45;&gt;3</title>
<path fill="none" stroke="red" stroke-width="0.132615" d="M808.388,-77.8224C812.78,-73.4415 818.78,-68.3882 825.213,-65.6985 849.308,-55.6246 1237.4,-25.5575 1340.32,-17.7294"/>
<polygon fill="red" stroke="red" stroke-width="0.132615" points="1340.7,-21.2109 1350.41,-16.9643 1340.17,-14.231 1340.7,-21.2109"/>
</g>
<!-- &#45;17 -->
<g id="node17" class="node"><title>&#45;17</title>
<polygon fill="lightgray" stroke="black" points="862.713,-95.9117 833.713,-95.9117 833.713,-77.9117 862.713,-77.9117 862.713,-95.9117"/>
<text text-anchor="middle" x="848.213" y="-84.7117" font-family="Times New Roman,serif" font-size="9.00">&#45;17</text>
</g>
<!-- &#45;17&#45;&gt;0 -->
<g id="edge62" class="edge"><title>&#45;17&#45;&gt;0</title>
<path fill="none" stroke="red" stroke-width="0.425863" d="M855.997,-77.8206C860.404,-73.6591 866.222,-68.8192 872.213,-65.6985 926.185,-37.5842 997.391,-24.2992 1034.43,-18.9329"/>
<polygon fill="red" stroke="red" stroke-width="0.425863" points="1034.92,-22.3985 1044.35,-17.5686 1033.97,-15.4638 1034.92,-22.3985"/>
</g>
<!-- &#45;17&#45;&gt;1 -->
<g id="edge63" class="edge"><title>&#45;17&#45;&gt;1</title>
<path fill="none" stroke="green" stroke-width="0.43036" d="M855.888,-77.5994C860.263,-73.3731 866.086,-68.5419 872.213,-65.6985 958.507,-25.6539 989.654,-46.9319 1083.21,-29.6985 1098.4,-26.9007 1115.4,-23.5433 1128.84,-20.835"/>
<polygon fill="green" stroke="green" stroke-width="0.43036" points="1129.65,-24.2421 1138.76,-18.8252 1128.26,-17.3816 1129.65,-24.2421"/>
</g>
<!-- &#45;17&#45;&gt;2 -->
<g id="edge64" class="edge"><title>&#45;17&#45;&gt;2</title>
<path fill="none" stroke="red" stroke-width="0.412235" d="M855.366,-77.7679C859.75,-73.3688 865.75,-68.3155 872.213,-65.6985 978.961,-22.4743 1275.87,-50.0944 1389.21,-29.6985 1396.95,-28.3059 1405.23,-26.1133 1412.65,-23.88"/>
<polygon fill="red" stroke="red" stroke-width="0.412235" points="1413.95,-27.1395 1422.42,-20.775 1411.83,-20.4684 1413.95,-27.1395"/>
</g>
<!-- &#45;17&#45;&gt;3 -->
<g id="edge65" class="edge"><title>&#45;17&#45;&gt;3</title>
<path fill="none" stroke="green" stroke-width="0.356637" stroke-dasharray="1,5" d="M855.397,-77.8434C859.792,-73.4695 865.792,-68.4162 872.213,-65.6985 894.026,-56.467 1243.26,-26.2186 1340.35,-17.9528"/>
<polygon fill="green" stroke="green" stroke-width="0.356637" points="1340.75,-21.4315 1350.41,-17.0976 1340.15,-14.4567 1340.75,-21.4315"/>
</g>
<!-- &#45;18 -->
<g id="node18" class="node"><title>&#45;18</title>
<polygon fill="lightgray" stroke="black" points="2180.71,-162.125 2151.71,-162.125 2151.71,-144.125 2180.71,-144.125 2180.71,-162.125"/>
<text text-anchor="middle" x="2166.21" y="-150.925" font-family="Times New Roman,serif" font-size="9.00">&#45;18</text>
</g>
<!-- &#45;18&#45;&gt;0 -->
<g id="edge66" class="edge"><title>&#45;18&#45;&gt;0</title>
<path fill="none" stroke="green" stroke-width="0.558271" d="M2151.46,-152.051C1981.39,-151.168 397.305,-142.035 364.213,-108.125 351.044,-94.6298 351.366,-79.5005 364.213,-65.6985 410.674,-15.7862 914.44,-15.1255 1033.91,-15.6776"/>
<polygon fill="green" stroke="green" stroke-width="0.558271" points="1034.22,-19.1792 1044.24,-15.7332 1034.26,-12.1793 1034.22,-19.1792"/>
</g>
<!-- &#45;18&#45;&gt;1 -->
<g id="edge67" class="edge"><title>&#45;18&#45;&gt;1</title>
<path fill="none" stroke="green" stroke-width="0.80729" d="M2151.57,-152.049C1982.73,-151.142 410.064,-141.793 377.213,-108.125 364.045,-94.6286 364.224,-79.3671 377.213,-65.6985 431.321,-8.76117 1005.26,-39.3459 1083.21,-29.6985 1098.54,-27.8015 1115.54,-24.4676 1128.95,-21.5462"/>
<polygon fill="green" stroke="green" stroke-width="0.80729" points="1129.84,-24.933 1138.83,-19.3271 1128.31,-18.1031 1129.84,-24.933"/>
</g>
<!-- &#45;18&#45;&gt;2 -->
<g id="edge68" class="edge"><title>&#45;18&#45;&gt;2</title>
<path fill="none" stroke="red" stroke-width="0.16057" d="M2180.93,-150.197C2216.23,-145.243 2304.05,-130.833 2321.21,-108.125 2332.58,-93.0808 2334.17,-79.4016 2321.21,-65.6985 2290.88,-33.6113 1603.47,-18.989 1461.66,-16.3086"/>
<polygon fill="red" stroke="red" stroke-width="0.16057" points="1461.43,-12.8038 1451.36,-16.117 1461.3,-19.8025 1461.43,-12.8038"/>
</g>
<!-- &#45;18&#45;&gt;3 -->
<g id="edge69" class="edge"><title>&#45;18&#45;&gt;3</title>
<path fill="none" stroke="red" stroke-width="0.239566" d="M2166.77,-144.058C2167.49,-126.542 2166.41,-85.0538 2142.21,-65.6985 2078.79,-14.976 1492.28,-43.2708 1412.21,-29.6985 1404.46,-28.3843 1396.18,-26.2135 1388.76,-23.9761"/>
<polygon fill="red" stroke="red" stroke-width="0.239566" points="1389.59,-20.5652 1378.99,-20.851 1387.45,-27.2322 1389.59,-20.5652"/>
</g>
<!-- 181 -->
<g id="node46" class="node"><title>181</title>
<ellipse fill="white" stroke="black" cx="2291.21" cy="-86.9117" rx="21.4286" ry="21.4286"/>
<text text-anchor="middle" x="2291.21" y="-84.7117" font-family="Times New Roman,serif" font-size="9.00">181</text>
</g>
<!-- &#45;18&#45;&gt;181 -->
<g id="edge156" class="edge"><title>&#45;18&#45;&gt;181</title>
<path fill="none" stroke="red" stroke-width="0.175584" d="M2181.02,-145.269C2198.99,-136.863 2230.11,-122.02 2256.21,-108.125 2258.91,-106.687 2261.71,-105.153 2264.49,-103.597"/>
<polygon fill="red" stroke="red" stroke-width="0.175584" points="2266.23,-106.636 2273.18,-98.6431 2262.76,-100.554 2266.23,-106.636"/>
</g>
<!-- &#45;19 -->
<g id="node19" class="node"><title>&#45;19</title>
<polygon fill="lightgray" stroke="black" points="909.713,-95.9117 880.713,-95.9117 880.713,-77.9117 909.713,-77.9117 909.713,-95.9117"/>
<text text-anchor="middle" x="895.213" y="-84.7117" font-family="Times New Roman,serif" font-size="9.00">&#45;19</text>
</g>
<!-- &#45;19&#45;&gt;0 -->
<g id="edge70" class="edge"><title>&#45;19&#45;&gt;0</title>
<path fill="none" stroke="red" stroke-width="0.103232" d="M903.536,-77.6138C907.916,-73.5971 913.544,-68.9524 919.213,-65.6985 957.112,-43.9482 1006.14,-29.1587 1034.98,-21.6395"/>
<polygon fill="red" stroke="red" stroke-width="0.103232" points="1036.15,-24.956 1044.99,-19.1144 1034.43,-18.169 1036.15,-24.956"/>
</g>
<!-- &#45;19&#45;&gt;1 -->
<g id="edge71" class="edge"><title>&#45;19&#45;&gt;1</title>
<path fill="none" stroke="green" stroke-width="0.310501" stroke-dasharray="1,5" d="M902.936,-77.6989C907.325,-73.5017 913.145,-68.6666 919.213,-65.6985 928.697,-61.0595 1070.75,-32.3387 1128.79,-20.7199"/>
<polygon fill="green" stroke="green" stroke-width="0.310501" points="1129.48,-24.1516 1138.6,-18.7591 1128.11,-17.2874 1129.48,-24.1516"/>
</g>
<!-- &#45;19&#45;&gt;2 -->
<g id="edge72" class="edge"><title>&#45;19&#45;&gt;2</title>
<path fill="none" stroke="green" stroke-width="0.365133" d="M902.373,-77.7846C906.759,-73.3912 912.759,-68.3379 919.213,-65.6985 1016.17,-26.0478 1286.18,-48.6065 1389.21,-29.6985 1396.95,-28.2791 1405.22,-26.0791 1412.64,-23.8472"/>
<polygon fill="green" stroke="green" stroke-width="0.365133" points="1413.94,-27.1079 1422.41,-20.749 1411.82,-20.4353 1413.94,-27.1079"/>
</g>
<!-- &#45;19&#45;&gt;3 -->
<g id="edge73" class="edge"><title>&#45;19&#45;&gt;3</title>
<path fill="none" stroke="red" stroke-width="0.126638" d="M902.408,-77.8687C906.806,-73.5033 912.806,-68.45 919.213,-65.6985 958.089,-49.0035 1252.08,-24.752 1340.27,-17.786"/>
<polygon fill="red" stroke="red" stroke-width="0.126638" points="1340.73,-21.2611 1350.43,-16.989 1340.18,-14.2825 1340.73,-21.2611"/>
</g>
<!-- &#45;20 -->
<g id="node20" class="node"><title>&#45;20</title>
<polygon fill="lightgray" stroke="black" points="2099.71,-95.9117 2070.71,-95.9117 2070.71,-77.9117 2099.71,-77.9117 2099.71,-95.9117"/>
<text text-anchor="middle" x="2085.21" y="-84.7117" font-family="Times New Roman,serif" font-size="9.00">&#45;20</text>
</g>
<!-- &#45;20&#45;&gt;1 -->
<g id="edge74" class="edge"><title>&#45;20&#45;&gt;1</title>
<path fill="none" stroke="green" stroke-width="0.190071" d="M2070.22,-79.7909C2057.83,-75.0402 2039.69,-68.7633 2023.21,-65.6985 1724.8,-10.1793 1644.14,-48.8494 1341.21,-29.6985 1282.9,-26.012 1214.49,-20.7318 1178.42,-17.8736"/>
<polygon fill="green" stroke="green" stroke-width="0.190071" points="1178.56,-14.3737 1168.31,-17.0688 1178.01,-21.3516 1178.56,-14.3737"/>
</g>
<!-- &#45;20&#45;&gt;2 -->
<g id="edge75" class="edge"><title>&#45;20&#45;&gt;2</title>
<path fill="none" stroke="green" stroke-width="0.220484" d="M2076.26,-77.7947C2070.86,-73.4046 2063.61,-68.3513 2056.21,-65.6985 1943.79,-25.3647 1562.73,-17.5149 1461.23,-16.1262"/>
<polygon fill="green" stroke="green" stroke-width="0.220484" points="1461.06,-12.624 1451.02,-15.9959 1460.97,-19.6234 1461.06,-12.624"/>
</g>
<!-- &#45;20&#45;&gt;3 -->
<g id="edge76" class="edge"><title>&#45;20&#45;&gt;3</title>
<path fill="none" stroke="red" stroke-width="0.735497" d="M2076.28,-77.7269C2070.89,-73.3142 2063.64,-68.2609 2056.21,-65.6985 1920.72,-18.9431 1553.45,-54.1175 1412.21,-29.6985 1404.46,-28.3589 1396.18,-26.181 1388.77,-23.9449"/>
<polygon fill="red" stroke="red" stroke-width="0.735497" points="1389.59,-20.5337 1379,-20.8263 1387.46,-27.2021 1389.59,-20.5337"/>
</g>
<!-- &#45;21 -->
<g id="node21" class="node"><title>&#45;21</title>
<polygon fill="lightgray" stroke="black" points="956.713,-95.9117 927.713,-95.9117 927.713,-77.9117 956.713,-77.9117 956.713,-95.9117"/>
<text text-anchor="middle" x="942.213" y="-84.7117" font-family="Times New Roman,serif" font-size="9.00">&#45;21</text>
</g>
<!-- &#45;21&#45;&gt;0 -->
<g id="edge77" class="edge"><title>&#45;21&#45;&gt;0</title>
<path fill="none" stroke="green" stroke-width="0.486234" d="M951.204,-77.5706C955.566,-73.7284 960.984,-69.2457 966.213,-65.6985 989.193,-50.1115 1017.56,-35.5063 1036.89,-26.1848"/>
<polygon fill="green" stroke="green" stroke-width="0.486234" points="1038.56,-29.266 1046.09,-21.8147 1035.55,-22.9428 1038.56,-29.266"/>
</g>
<!-- &#45;21&#45;&gt;1 -->
<g id="edge78" class="edge"><title>&#45;21&#45;&gt;1</title>
<path fill="none" stroke="red" stroke-width="0.40501" d="M949.997,-77.8206C954.404,-73.6591 960.222,-68.8192 966.213,-65.6985 994.705,-50.8566 1084.98,-30.3721 1128.83,-20.957"/>
<polygon fill="red" stroke="red" stroke-width="0.40501" points="1129.62,-24.3678 1138.67,-18.8632 1128.16,-17.5211 1129.62,-24.3678"/>
</g>
<!-- &#45;21&#45;&gt;2 -->
<g id="edge79" class="edge"><title>&#45;21&#45;&gt;2</title>
<path fill="none" stroke="green" stroke-width="0.34075" d="M949.381,-77.8051C953.77,-73.4185 959.77,-68.3652 966.213,-65.6985 1140.55,6.45917 1203.78,-64.5405 1389.21,-29.6985 1396.94,-28.2464 1405.22,-26.0373 1412.64,-23.8072"/>
<polygon fill="green" stroke="green" stroke-width="0.34075" points="1413.93,-27.0692 1422.41,-20.7173 1411.82,-20.3949 1413.93,-27.0692"/>
</g>
<!-- &#45;21&#45;&gt;3 -->
<g id="edge80" class="edge"><title>&#45;21&#45;&gt;3</title>
<path fill="none" stroke="red" stroke-width="0.179652" d="M949.421,-77.8999C953.824,-73.5448 959.824,-68.4915 966.213,-65.6985 1000.54,-50.6941 1257.78,-25.8085 1340.02,-18.158"/>
<polygon fill="red" stroke="red" stroke-width="0.179652" points="1340.57,-21.6215 1350.21,-17.2149 1339.93,-14.6512 1340.57,-21.6215"/>
</g>
<!-- &#45;22 -->
<g id="node22" class="node"><title>&#45;22</title>
<polygon fill="lightgray" stroke="black" points="1003.71,-95.9117 974.713,-95.9117 974.713,-77.9117 1003.71,-77.9117 1003.71,-95.9117"/>
<text text-anchor="middle" x="989.213" y="-84.7117" font-family="Times New Roman,serif" font-size="9.00">&#45;22</text>
</g>
<!-- &#45;22&#45;&gt;0 -->
<g id="edge81" class="edge"><title>&#45;22&#45;&gt;0</title>
<path fill="none" stroke="green" stroke-width="0.186392" d="M997.243,-77.8746C1008.03,-67.0781 1027.49,-47.6015 1041.73,-33.3456"/>
<polygon fill="green" stroke="green" stroke-width="0.186392" points="1044.43,-35.599 1049.02,-26.051 1039.48,-30.6514 1044.43,-35.599"/>
</g>
<!-- &#45;22&#45;&gt;1 -->
<g id="edge82" class="edge"><title>&#45;22&#45;&gt;1</title>
<path fill="none" stroke="green" stroke-width="0.300922" d="M997.536,-77.6138C1001.92,-73.5971 1007.54,-68.9524 1013.21,-65.6985 1051.11,-43.9482 1100.14,-29.1587 1128.98,-21.6395"/>
<polygon fill="green" stroke="green" stroke-width="0.300922" points="1130.15,-24.956 1138.99,-19.1144 1128.43,-18.169 1130.15,-24.956"/>
</g>
<!-- &#45;22&#45;&gt;2 -->
<g id="edge83" class="edge"><title>&#45;22&#45;&gt;2</title>
<path fill="none" stroke="green" stroke-width="0.255229" d="M996.392,-77.8306C1000.78,-73.4524 1006.78,-68.3991 1013.21,-65.6985 1167.99,-0.679645 1224.39,-61.5688 1389.21,-29.6985 1396.93,-28.2057 1405.21,-25.9852 1412.63,-23.7573"/>
<polygon fill="green" stroke="green" stroke-width="0.255229" points="1413.91,-27.021 1422.4,-20.6778 1411.81,-20.3445 1413.91,-27.021"/>
</g>
<!-- &#45;22&#45;&gt;3 -->
<g id="edge84" class="edge"><title>&#45;22&#45;&gt;3</title>
<path fill="none" stroke="red" stroke-width="0.362822" d="M996.857,-77.53C1001.22,-73.2834 1007.05,-68.4549 1013.21,-65.6985 1072.18,-39.3417 1270.02,-22.7611 1340.24,-17.5892"/>
<polygon fill="red" stroke="red" stroke-width="0.362822" points="1340.65,-21.0687 1350.37,-16.8573 1340.14,-14.0869 1340.65,-21.0687"/>
</g>
<!-- &#45;23 -->
<g id="node23" class="node"><title>&#45;23</title>
<polygon fill="lightgray" stroke="black" points="1050.71,-95.9117 1021.71,-95.9117 1021.71,-77.9117 1050.71,-77.9117 1050.71,-95.9117"/>
<text text-anchor="middle" x="1036.21" y="-84.7117" font-family="Times New Roman,serif" font-size="9.00">&#45;23</text>
</g>
<!-- &#45;23&#45;&gt;0 -->
<g id="edge85" class="edge"><title>&#45;23&#45;&gt;0</title>
<path fill="none" stroke="green" stroke-width="0.222823" d="M1038.85,-77.8746C1041.95,-68.4226 1047.24,-52.3178 1051.65,-38.8876"/>
<polygon fill="green" stroke="green" stroke-width="0.222823" points="1055.01,-39.886 1054.8,-29.2932 1048.36,-37.7027 1055.01,-39.886"/>
</g>
<!-- &#45;23&#45;&gt;1 -->
<g id="edge86" class="edge"><title>&#45;23&#45;&gt;1</title>
<path fill="none" stroke="red" stroke-width="0.129925" d="M1045.2,-77.5706C1049.57,-73.7284 1054.98,-69.2457 1060.21,-65.6985 1083.19,-50.1115 1111.56,-35.5063 1130.89,-26.1848"/>
<polygon fill="red" stroke="red" stroke-width="0.129925" points="1132.56,-29.266 1140.09,-21.8147 1129.55,-22.9428 1132.56,-29.266"/>
</g>
<!-- &#45;23&#45;&gt;2 -->
<g id="edge87" class="edge"><title>&#45;23&#45;&gt;2</title>
<path fill="none" stroke="green" stroke-width="0.783443" d="M1043.41,-77.8631C1047.8,-73.4959 1053.8,-68.4426 1060.21,-65.6985 1195.44,-7.81148 1244.99,-58.6005 1389.21,-29.6985 1396.92,-28.1535 1405.19,-25.9185 1412.61,-23.6933"/>
<polygon fill="green" stroke="green" stroke-width="0.783443" points="1413.9,-26.9592 1422.39,-20.6271 1411.8,-20.2799 1413.9,-26.9592"/>
</g>
<!-- &#45;23&#45;&gt;3 -->
<g id="edge88" class="edge"><title>&#45;23&#45;&gt;3</title>
<path fill="none" stroke="green" stroke-width="0.566485" d="M1043.88,-77.5823C1048.25,-73.3511 1054.08,-68.5205 1060.21,-65.6985 1156.67,-21.3469 1286.23,-15.7756 1340.1,-15.5323"/>
<polygon fill="green" stroke="green" stroke-width="0.566485" points="1340.11,-19.0322 1350.12,-15.547 1340.12,-12.0323 1340.11,-19.0322"/>
</g>
<!-- &#45;24 -->
<g id="node24" class="node"><title>&#45;24</title>
<polygon fill="lightgray" stroke="black" points="2392.71,-162.125 2363.71,-162.125 2363.71,-144.125 2392.71,-144.125 2392.71,-162.125"/>
<text text-anchor="middle" x="2378.21" y="-150.925" font-family="Times New Roman,serif" font-size="9.00">&#45;24</text>
</g>
<!-- &#45;24&#45;&gt;0 -->
<g id="edge89" class="edge"><title>&#45;24&#45;&gt;0</title>
<path fill="none" stroke="green" stroke-width="0.241187" stroke-dasharray="1,5" d="M2363.59,-151.39C2331.97,-149.825 2254.87,-146.142 2190.21,-144.125 2139.87,-142.554 412.476,-144.094 377.213,-108.125 364.013,-94.6599 364.375,-79.5093 377.213,-65.6985 422.727,-16.7366 916.08,-15.3426 1034,-15.7146"/>
<polygon fill="green" stroke="green" stroke-width="0.241187" points="1034.2,-19.2154 1044.22,-15.7546 1034.23,-12.2154 1034.2,-19.2154"/>
</g>
<!-- &#45;24&#45;&gt;1 -->
<g id="edge90" class="edge"><title>&#45;24&#45;&gt;1</title>
<path fill="none" stroke="red" stroke-width="0.227632" d="M2363.59,-151.397C2331.97,-149.848 2254.86,-146.193 2190.21,-144.125 2143.56,-142.633 542.864,-141.482 510.213,-108.125 497.023,-94.6495 497.305,-79.4435 510.213,-65.6985 553.884,-19.1979 1019.95,-37.907 1083.21,-29.6985 1098.53,-27.7111 1115.53,-24.3748 1128.94,-21.4748"/>
<polygon fill="red" stroke="red" stroke-width="0.227632" points="1129.82,-24.8639 1138.83,-19.2767 1128.3,-18.0308 1129.82,-24.8639"/>
</g>
<!-- &#45;24&#45;&gt;2 -->
<g id="edge91" class="edge"><title>&#45;24&#45;&gt;2</title>
<path fill="none" stroke="green" stroke-width="0.503853" d="M2383.39,-143.93C2393.43,-126.889 2412.83,-87.4166 2392.21,-65.6985 2359.21,-30.9318 1609.06,-18.3404 1461.34,-16.194"/>
<polygon fill="green" stroke="green" stroke-width="0.503853" points="1461.09,-12.6903 1451.04,-16.0473 1460.99,-19.6895 1461.09,-12.6903"/>
</g>
<!-- &#45;24&#45;&gt;3 -->
<g id="edge92" class="edge"><title>&#45;24&#45;&gt;3</title>
<path fill="none" stroke="green" stroke-width="0.330803" d="M2375.72,-144.063C2369.7,-126.177 2352.52,-83.3625 2321.21,-65.6985 2233.18,-16.0305 1511.95,-46.1084 1412.21,-29.6985 1404.45,-28.4219 1396.17,-26.2615 1388.75,-24.0221"/>
<polygon fill="green" stroke="green" stroke-width="0.330803" points="1389.58,-20.6115 1378.99,-20.8875 1387.44,-27.2765 1389.58,-20.6115"/>
</g>
<!-- 401 -->
<g id="node45" class="node"><title>401</title>
<ellipse fill="white" stroke="black" cx="2465.21" cy="-86.9117" rx="21.4286" ry="21.4286"/>
<text text-anchor="middle" x="2465.21" y="-84.7117" font-family="Times New Roman,serif" font-size="9.00">401</text>
</g>
<!-- &#45;24&#45;&gt;401 -->
<g id="edge158" class="edge"><title>&#45;24&#45;&gt;401</title>
<path fill="none" stroke="green" stroke-width="0.616183" d="M2389.23,-143.992C2401.93,-134.624 2423.19,-118.927 2440,-106.52"/>
<polygon fill="green" stroke="green" stroke-width="0.616183" points="2442.35,-109.136 2448.32,-100.382 2438.19,-103.504 2442.35,-109.136"/>
</g>
<!-- &#45;25 -->
<g id="node25" class="node"><title>&#45;25</title>
<polygon fill="lightgray" stroke="black" points="1097.71,-95.9117 1068.71,-95.9117 1068.71,-77.9117 1097.71,-77.9117 1097.71,-95.9117"/>
<text text-anchor="middle" x="1083.21" y="-84.7117" font-family="Times New Roman,serif" font-size="9.00">&#45;25</text>
</g>
<!-- &#45;25&#45;&gt;0 -->
<g id="edge93" class="edge"><title>&#45;25&#45;&gt;0</title>
<path fill="none" stroke="green" stroke-width="0.501039" d="M1080.46,-77.8746C1077.2,-68.3653 1071.64,-52.1224 1067.02,-38.6437"/>
<polygon fill="green" stroke="green" stroke-width="0.501039" points="1070.28,-37.3587 1063.73,-29.0326 1063.66,-39.6272 1070.28,-37.3587"/>
</g>
<!-- &#45;25&#45;&gt;1 -->
<g id="edge94" class="edge"><title>&#45;25&#45;&gt;1</title>
<path fill="none" stroke="green" stroke-width="0.237345" d="M1091.24,-77.8746C1102.03,-67.0781 1121.49,-47.6015 1135.73,-33.3456"/>
<polygon fill="green" stroke="green" stroke-width="0.237345" points="1138.43,-35.599 1143.02,-26.051 1133.48,-30.6514 1138.43,-35.599"/>
</g>
<!-- &#45;25&#45;&gt;2 -->
<g id="edge95" class="edge"><title>&#45;25&#45;&gt;2</title>
<path fill="none" stroke="red" stroke-width="0.132841" d="M1090.42,-77.9063C1094.83,-73.5534 1100.83,-68.5001 1107.21,-65.6985 1222.92,-14.9327 1265.55,-55.6374 1389.21,-29.6985 1396.91,-28.0842 1405.18,-25.83 1412.6,-23.6085"/>
<polygon fill="red" stroke="red" stroke-width="0.132841" points="1413.87,-26.8772 1422.38,-20.5599 1411.79,-20.1942 1413.87,-26.8772"/>
</g>
<!-- &#45;25&#45;&gt;3 -->
<g id="edge96" class="edge"><title>&#45;25&#45;&gt;3</title>
<path fill="none" stroke="red" stroke-width="0.253935" d="M1090.91,-77.6527C1095.3,-73.4421 1101.12,-68.6087 1107.21,-65.6985 1186.47,-27.8628 1292.42,-18.742 1340.1,-16.5452"/>
<polygon fill="red" stroke="red" stroke-width="0.253935" points="1340.29,-20.0406 1350.14,-16.1475 1340.01,-13.046 1340.29,-20.0406"/>
</g>
<!-- &#45;26 -->
<g id="node26" class="node"><title>&#45;26</title>
<polygon fill="lightgray" stroke="black" points="1144.71,-95.9117 1115.71,-95.9117 1115.71,-77.9117 1144.71,-77.9117 1144.71,-95.9117"/>
<text text-anchor="middle" x="1130.21" y="-84.7117" font-family="Times New Roman,serif" font-size="9.00">&#45;26</text>
</g>
<!-- &#45;26&#45;&gt;0 -->
<g id="edge97" class="edge"><title>&#45;26&#45;&gt;0</title>
<path fill="none" stroke="green" stroke-width="0.221218" d="M1122.07,-77.8746C1111.13,-67.0781 1091.39,-47.6015 1076.94,-33.3456"/>
<polygon fill="green" stroke="green" stroke-width="0.221218" points="1079.13,-30.5836 1069.55,-26.051 1074.21,-35.5662 1079.13,-30.5836"/>
</g>
<!-- &#45;26&#45;&gt;1 -->
<g id="edge98" class="edge"><title>&#45;26&#45;&gt;1</title>
<path fill="none" stroke="green" stroke-width="0.115555" d="M1132.85,-77.8746C1135.95,-68.4226 1141.24,-52.3178 1145.65,-38.8876"/>
<polygon fill="green" stroke="green" stroke-width="0.115555" points="1149.01,-39.886 1148.8,-29.2932 1142.36,-37.7027 1149.01,-39.886"/>
</g>
<!-- &#45;26&#45;&gt;2 -->
<g id="edge99" class="edge"><title>&#45;26&#45;&gt;2</title>
<path fill="none" stroke="green" stroke-width="0.387465" d="M1137.87,-77.5578C1142.24,-73.3194 1148.06,-68.4898 1154.21,-65.6985 1250.43,-22.0368 1286.08,-52.6832 1389.21,-29.6985 1396.89,-27.988 1405.15,-25.7071 1412.57,-23.4907"/>
<polygon fill="green" stroke="green" stroke-width="0.387465" points="1413.84,-26.7631 1422.36,-20.4666 1411.77,-20.0751 1413.84,-26.7631"/>
</g>
<!-- &#45;26&#45;&gt;3 -->
<g id="edge100" class="edge"><title>&#45;26&#45;&gt;3</title>
<path fill="none" stroke="green" stroke-width="0.148763" d="M1137.96,-77.7522C1142.36,-73.5707 1148.18,-68.7335 1154.21,-65.6985 1216.59,-34.3284 1299.35,-22.2469 1340.21,-17.9716"/>
<polygon fill="green" stroke="green" stroke-width="0.148763" points="1340.73,-21.4376 1350.34,-16.9836 1340.05,-14.4706 1340.73,-21.4376"/>
</g>
<!-- &#45;27 -->
<g id="node27" class="node"><title>&#45;27</title>
<polygon fill="lightgray" stroke="black" points="1191.71,-95.9117 1162.71,-95.9117 1162.71,-77.9117 1191.71,-77.9117 1191.71,-95.9117"/>
<text text-anchor="middle" x="1177.21" y="-84.7117" font-family="Times New Roman,serif" font-size="9.00">&#45;27</text>
</g>
<!-- &#45;27&#45;&gt;0 -->
<g id="edge101" class="edge"><title>&#45;27&#45;&gt;0</title>
<path fill="none" stroke="green" stroke-width="0.262588" d="M1168.66,-77.5217C1164.49,-73.6688 1159.3,-69.1911 1154.21,-65.6985 1130.84,-49.6345 1101.66,-35.0438 1081.85,-25.8572"/>
<polygon fill="green" stroke="green" stroke-width="0.262588" points="1083.24,-22.643 1072.69,-21.6827 1080.34,-29.0132 1083.24,-22.643"/>
</g>
<!-- &#45;27&#45;&gt;1 -->
<g id="edge102" class="edge"><title>&#45;27&#45;&gt;1</title>
<path fill="none" stroke="red" stroke-width="1.11927" d="M1174.46,-77.8746C1171.2,-68.3653 1165.64,-52.1224 1161.02,-38.6437"/>
<polygon fill="red" stroke="red" stroke-width="1.11927" points="1164.28,-37.3587 1157.73,-29.0326 1157.66,-39.6272 1164.28,-37.3587"/>
</g>
<!-- &#45;27&#45;&gt;2 -->
<g id="edge103" class="edge"><title>&#45;27&#45;&gt;2</title>
<path fill="none" stroke="red" stroke-width="0.508043" d="M1184.91,-77.6487C1189.29,-73.4368 1195.11,-68.6036 1201.21,-65.6985 1278.02,-29.1102 1306.54,-49.7452 1389.21,-29.6985 1396.86,-27.8456 1405.11,-25.5251 1412.53,-23.3163"/>
<polygon fill="red" stroke="red" stroke-width="0.508043" points="1413.78,-26.594 1422.32,-20.3285 1411.74,-19.8986 1413.78,-26.594"/>
</g>
<!-- &#45;27&#45;&gt;3 -->
<g id="edge104" class="edge"><title>&#45;27&#45;&gt;3</title>
<path fill="none" stroke="red" stroke-width="0.143479" d="M1185.04,-77.9028C1189.46,-73.7654 1195.28,-68.9223 1201.21,-65.6985 1247.03,-40.8169 1306.94,-26.6445 1340.2,-20.1766"/>
<polygon fill="red" stroke="red" stroke-width="0.143479" points="1341.21,-23.5487 1350.4,-18.2742 1339.93,-16.6674 1341.21,-23.5487"/>
</g>
<!-- &#45;28 -->
<g id="node28" class="node"><title>&#45;28</title>
<polygon fill="lightgray" stroke="black" points="1238.71,-95.9117 1209.71,-95.9117 1209.71,-77.9117 1238.71,-77.9117 1238.71,-95.9117"/>
<text text-anchor="middle" x="1224.21" y="-84.7117" font-family="Times New Roman,serif" font-size="9.00">&#45;28</text>
</g>
<!-- &#45;28&#45;&gt;0 -->
<g id="edge105" class="edge"><title>&#45;28&#45;&gt;0</title>
<path fill="none" stroke="red" stroke-width="0.211461" d="M1216.3,-77.586C1212.12,-73.5622 1206.72,-68.9195 1201.21,-65.6985 1162.85,-43.2564 1112.77,-28.6286 1083.49,-21.3393"/>
<polygon fill="red" stroke="red" stroke-width="0.211461" points="1084.24,-17.9207 1073.7,-18.9849 1082.6,-24.7266 1084.24,-17.9207"/>
</g>
<!-- &#45;28&#45;&gt;1 -->
<g id="edge106" class="edge"><title>&#45;28&#45;&gt;1</title>
<path fill="none" stroke="red" stroke-width="0.155812" d="M1216.07,-77.8746C1205.13,-67.0781 1185.39,-47.6015 1170.94,-33.3456"/>
<polygon fill="red" stroke="red" stroke-width="0.155812" points="1173.13,-30.5836 1163.55,-26.051 1168.21,-35.5662 1173.13,-30.5836"/>
</g>
<!-- &#45;28&#45;&gt;2 -->
<g id="edge107" class="edge"><title>&#45;28&#45;&gt;2</title>
<path fill="none" stroke="red" stroke-width="0.374602" d="M1231.98,-77.7954C1236.39,-73.6265 1242.21,-68.7876 1248.21,-65.6985 1305.73,-36.121 1326.85,-46.8418 1389.21,-29.6985 1396.8,-27.6142 1405.03,-25.2295 1412.46,-23.033"/>
<polygon fill="red" stroke="red" stroke-width="0.374602" points="1413.69,-26.3188 1422.27,-20.1042 1411.68,-19.6113 1413.69,-26.3188"/>
</g>
<!-- &#45;28&#45;&gt;3 -->
<g id="edge108" class="edge"><title>&#45;28&#45;&gt;3</title>
<path fill="none" stroke="red" stroke-width="0.54797" d="M1232.62,-77.7582C1237.02,-73.7783 1242.64,-69.1229 1248.21,-65.6985 1278.66,-46.9756 1317.38,-31.9992 1341.74,-23.5173"/>
<polygon fill="red" stroke="red" stroke-width="0.54797" points="1342.9,-26.8217 1351.24,-20.2878 1340.64,-20.1946 1342.9,-26.8217"/>
</g>
<!-- &#45;29 -->
<g id="node29" class="node"><title>&#45;29</title>
<polygon fill="lightgray" stroke="black" points="1285.71,-95.9117 1256.71,-95.9117 1256.71,-77.9117 1285.71,-77.9117 1285.71,-95.9117"/>
<text text-anchor="middle" x="1271.21" y="-84.7117" font-family="Times New Roman,serif" font-size="9.00">&#45;29</text>
</g>
<!-- &#45;29&#45;&gt;0 -->
<g id="edge109" class="edge"><title>&#45;29&#45;&gt;0</title>
<path fill="none" stroke="red" stroke-width="0.198494" d="M1263.81,-77.8033C1259.61,-73.6367 1254.03,-68.7975 1248.21,-65.6985 1219.51,-50.4073 1127.82,-30.0654 1083.56,-20.8107"/>
<polygon fill="red" stroke="red" stroke-width="0.198494" points="1084.15,-17.3577 1073.65,-18.7567 1082.73,-24.2122 1084.15,-17.3577"/>
</g>
<!-- &#45;29&#45;&gt;1 -->
<g id="edge110" class="edge"><title>&#45;29&#45;&gt;1</title>
<path fill="none" stroke="green" stroke-width="0.122913" d="M1262.66,-77.5217C1258.49,-73.6688 1253.3,-69.1911 1248.21,-65.6985 1224.84,-49.6345 1195.66,-35.0438 1175.85,-25.8572"/>
<polygon fill="green" stroke="green" stroke-width="0.122913" points="1177.24,-22.643 1166.69,-21.6827 1174.34,-29.0132 1177.24,-22.643"/>
</g>
<!-- &#45;29&#45;&gt;2 -->
<g id="edge111" class="edge"><title>&#45;29&#45;&gt;2</title>
<path fill="none" stroke="red" stroke-width="0.172823" d="M1279.53,-77.6084C1283.91,-73.5904 1289.54,-68.946 1295.21,-65.6985 1315.63,-54.0092 1377.82,-33.8839 1412.39,-23.1277"/>
<polygon fill="red" stroke="red" stroke-width="0.172823" points="1413.64,-26.4063 1422.16,-20.1101 1411.57,-19.7182 1413.64,-26.4063"/>
</g>
<!-- &#45;29&#45;&gt;3 -->
<g id="edge112" class="edge"><title>&#45;29&#45;&gt;3</title>
<path fill="none" stroke="red" stroke-width="0.301777" d="M1280.41,-77.8614C1284.82,-74.083 1290.22,-69.5698 1295.21,-65.6985 1311.46,-53.1022 1330.5,-39.6216 1344.62,-29.8591"/>
<polygon fill="red" stroke="red" stroke-width="0.301777" points="1346.85,-32.5753 1353.11,-24.0274 1342.88,-26.806 1346.85,-32.5753"/>
</g>
<!-- &#45;30 -->
<g id="node30" class="node"><title>&#45;30</title>
<polygon fill="lightgray" stroke="black" points="1332.71,-95.9117 1303.71,-95.9117 1303.71,-77.9117 1332.71,-77.9117 1332.71,-95.9117"/>
<text text-anchor="middle" x="1318.21" y="-84.7117" font-family="Times New Roman,serif" font-size="9.00">&#45;30</text>
</g>
<!-- &#45;30&#45;&gt;0 -->
<g id="edge113" class="edge"><title>&#45;30&#45;&gt;0</title>
<path fill="none" stroke="red" stroke-width="0.163001" d="M1310.87,-77.6872C1306.69,-73.4866 1301.11,-68.6519 1295.21,-65.6985 1285.68,-60.9184 1141.73,-32.1524 1083.45,-20.6232"/>
<polygon fill="red" stroke="red" stroke-width="0.163001" points="1084.1,-17.1847 1073.61,-18.6807 1082.74,-24.0521 1084.1,-17.1847"/>
</g>
<!-- &#45;30&#45;&gt;1 -->
<g id="edge114" class="edge"><title>&#45;30&#45;&gt;1</title>
<path fill="none" stroke="green" stroke-width="0.123842" d="M1310.3,-77.586C1306.12,-73.5622 1300.72,-68.9195 1295.21,-65.6985 1256.85,-43.2564 1206.77,-28.6286 1177.49,-21.3393"/>
<polygon fill="green" stroke="green" stroke-width="0.123842" points="1178.24,-17.9207 1167.7,-18.9849 1176.6,-24.7266 1178.24,-17.9207"/>
</g>
<!-- &#45;30&#45;&gt;2 -->
<g id="edge115" class="edge"><title>&#45;30&#45;&gt;2</title>
<path fill="none" stroke="red" stroke-width="0.326912" d="M1327.2,-77.5602C1331.56,-73.7157 1336.98,-69.234 1342.21,-65.6985 1365.42,-50.0326 1394.1,-35.442 1413.64,-26.1454"/>
<polygon fill="red" stroke="red" stroke-width="0.326912" points="1415.37,-29.1989 1422.94,-21.7889 1412.4,-22.8593 1415.37,-29.1989"/>
</g>
<!-- &#45;30&#45;&gt;3 -->
<g id="edge116" class="edge"><title>&#45;30&#45;&gt;3</title>
<path fill="none" stroke="red" stroke-width="0.18271" d="M1323.6,-77.8746C1330.41,-67.7318 1342.35,-49.9283 1351.7,-35.9895"/>
<polygon fill="red" stroke="red" stroke-width="0.18271" points="1354.73,-37.7615 1357.39,-27.5071 1348.92,-33.8618 1354.73,-37.7615"/>
</g>
<!-- &#45;31 -->
<g id="node31" class="node"><title>&#45;31</title>
<polygon fill="lightgray" stroke="black" points="1379.71,-95.9117 1350.71,-95.9117 1350.71,-77.9117 1379.71,-77.9117 1379.71,-95.9117"/>
<text text-anchor="middle" x="1365.21" y="-84.7117" font-family="Times New Roman,serif" font-size="9.00">&#45;31</text>
</g>
<!-- &#45;31&#45;&gt;0 -->
<g id="edge117" class="edge"><title>&#45;31&#45;&gt;0</title>
<path fill="none" stroke="red" stroke-width="0.351764" d="M1357.92,-77.591C1353.75,-73.3622 1348.17,-68.5313 1342.21,-65.6985 1255.52,-24.4386 1223.65,-47.0171 1129.21,-29.6985 1114.02,-26.9125 1097.02,-23.5554 1083.58,-20.8443"/>
<polygon fill="red" stroke="red" stroke-width="0.351764" points="1084.17,-17.3911 1073.67,-18.8317 1082.77,-24.2512 1084.17,-17.3911"/>
</g>
<!-- &#45;31&#45;&gt;1 -->
<g id="edge118" class="edge"><title>&#45;31&#45;&gt;1</title>
<path fill="none" stroke="green" stroke-width="0.413217" d="M1357.81,-77.8033C1353.61,-73.6367 1348.03,-68.7975 1342.21,-65.6985 1287.83,-36.7304 1215.51,-23.7772 1178.06,-18.694"/>
<polygon fill="green" stroke="green" stroke-width="0.413217" points="1178.4,-15.2094 1168.04,-17.4109 1177.51,-22.1527 1178.4,-15.2094"/>
</g>
<!-- &#45;31&#45;&gt;2 -->
<g id="edge119" class="edge"><title>&#45;31&#45;&gt;2</title>
<path fill="none" stroke="red" stroke-width="0.149864" d="M1373.36,-77.8746C1384.3,-67.0781 1404.04,-47.6015 1418.48,-33.3456"/>
<polygon fill="red" stroke="red" stroke-width="0.149864" points="1421.22,-35.5662 1425.87,-26.051 1416.3,-30.5836 1421.22,-35.5662"/>
</g>
<!-- &#45;31&#45;&gt;3 -->
<g id="edge120" class="edge"><title>&#45;31&#45;&gt;3</title>
<path fill="none" stroke="green" stroke-width="0.197564" d="M1365.21,-77.8746C1365.21,-68.7202 1365.21,-53.3256 1365.21,-40.1641"/>
<polygon fill="green" stroke="green" stroke-width="0.197564" points="1368.71,-39.8196 1365.21,-29.8197 1361.71,-39.8197 1368.71,-39.8196"/>
</g>
<!-- &#45;32 -->
<g id="node32" class="node"><title>&#45;32</title>
<polygon fill="lightgray" stroke="black" points="1426.71,-95.9117 1397.71,-95.9117 1397.71,-77.9117 1426.71,-77.9117 1426.71,-95.9117"/>
<text text-anchor="middle" x="1412.21" y="-84.7117" font-family="Times New Roman,serif" font-size="9.00">&#45;32</text>
</g>
<!-- &#45;32&#45;&gt;0 -->
<g id="edge121" class="edge"><title>&#45;32&#45;&gt;0</title>
<path fill="none" stroke="green" stroke-width="0.224056" d="M1404.95,-77.5199C1400.79,-73.2703 1395.21,-68.4422 1389.21,-65.6985 1283.14,-17.1422 1244.26,-49.0273 1129.21,-29.6985 1113.98,-27.1395 1096.98,-23.7883 1083.55,-21.0235"/>
<polygon fill="green" stroke="green" stroke-width="0.224056" points="1084.15,-17.5731 1073.65,-18.9582 1082.72,-24.4258 1084.15,-17.5731"/>
</g>
<!-- &#45;32&#45;&gt;1 -->
<g id="edge122" class="edge"><title>&#45;32&#45;&gt;1</title>
<path fill="none" stroke="green" stroke-width="0.828775" stroke-dasharray="1,5" d="M1404.87,-77.6872C1400.69,-73.4866 1395.11,-68.6519 1389.21,-65.6985 1318.29,-30.1536 1223.09,-19.9176 1178.39,-16.9978"/>
<polygon fill="green" stroke="green" stroke-width="0.828775" points="1178.35,-13.4893 1168.16,-16.4022 1177.94,-20.4775 1178.35,-13.4893"/>
</g>
<!-- &#45;32&#45;&gt;2 -->
<g id="edge123" class="edge"><title>&#45;32&#45;&gt;2</title>
<path fill="none" stroke="green" stroke-width="0.254624" d="M1414.97,-77.8746C1418.22,-68.3653 1423.79,-52.1224 1428.4,-38.6437"/>
<polygon fill="green" stroke="green" stroke-width="0.254624" points="1431.77,-39.6272 1431.7,-29.0326 1425.15,-37.3587 1431.77,-39.6272"/>
</g>
<!-- &#45;32&#45;&gt;3 -->
<g id="edge124" class="edge"><title>&#45;32&#45;&gt;3</title>
<path fill="none" stroke="red" stroke-width="0.148177" stroke-dasharray="1,5" d="M1406.82,-77.8746C1400.02,-67.7318 1388.07,-49.9283 1378.72,-35.9895"/>
<polygon fill="red" stroke="red" stroke-width="0.148177" points="1381.51,-33.8618 1373.03,-27.5071 1375.7,-37.7615 1381.51,-33.8618"/>
</g>
<!-- &#45;33 -->
<g id="node33" class="node"><title>&#45;33</title>
<polygon fill="lightgray" stroke="black" points="1473.71,-95.9117 1444.71,-95.9117 1444.71,-77.9117 1473.71,-77.9117 1473.71,-95.9117"/>
<text text-anchor="middle" x="1459.21" y="-84.7117" font-family="Times New Roman,serif" font-size="9.00">&#45;33</text>
</g>
<!-- &#45;33&#45;&gt;0 -->
<g id="edge125" class="edge"><title>&#45;33&#45;&gt;0</title>
<path fill="none" stroke="red" stroke-width="0.404355" d="M1452.38,-77.8807C1448.18,-73.5193 1442.43,-68.466 1436.21,-65.6985 1310.71,-9.82311 1264.92,-51.0465 1129.21,-29.6985 1113.96,-27.2984 1096.96,-23.9514 1083.53,-21.149"/>
<polygon fill="red" stroke="red" stroke-width="0.404355" points="1084.14,-17.7005 1073.63,-19.0468 1082.69,-24.5478 1084.14,-17.7005"/>
</g>
<!-- &#45;33&#45;&gt;1 -->
<g id="edge126" class="edge"><title>&#45;33&#45;&gt;1</title>
<path fill="none" stroke="red" stroke-width="0.485941" d="M1451.91,-77.6074C1447.74,-73.3835 1442.16,-68.5519 1436.21,-65.6985 1348.23,-23.4484 1229.44,-16.6616 1178.32,-15.8099"/>
<polygon fill="red" stroke="red" stroke-width="0.485941" points="1178.23,-12.3089 1168.19,-15.7066 1178.16,-19.3086 1178.23,-12.3089"/>
</g>
<!-- &#45;33&#45;&gt;2 -->
<g id="edge127" class="edge"><title>&#45;33&#45;&gt;2</title>
<path fill="none" stroke="red" stroke-width="0.193708" d="M1456.57,-77.8746C1453.47,-68.4226 1448.19,-52.3178 1443.78,-38.8876"/>
<polygon fill="red" stroke="red" stroke-width="0.193708" points="1447.07,-37.7027 1440.63,-29.2932 1440.42,-39.886 1447.07,-37.7027"/>
</g>
<!-- &#45;33&#45;&gt;3 -->
<g id="edge128" class="edge"><title>&#45;33&#45;&gt;3</title>
<path fill="none" stroke="red" stroke-width="0.457345" stroke-dasharray="1,5" d="M1450.45,-77.8088C1446.24,-74.0188 1441.06,-69.5112 1436.21,-65.6985 1419.8,-52.7888 1400.34,-39.2424 1385.95,-29.5348"/>
<polygon fill="red" stroke="red" stroke-width="0.457345" points="1387.57,-26.4042 1377.31,-23.7551 1383.68,-32.2232 1387.57,-26.4042"/>
</g>
<!-- &#45;34 -->
<g id="node34" class="node"><title>&#45;34</title>
<polygon fill="lightgray" stroke="black" points="1520.71,-95.9117 1491.71,-95.9117 1491.71,-77.9117 1520.71,-77.9117 1520.71,-95.9117"/>
<text text-anchor="middle" x="1506.21" y="-84.7117" font-family="Times New Roman,serif" font-size="9.00">&#45;34</text>
</g>
<!-- &#45;34&#45;&gt;0 -->
<g id="edge129" class="edge"><title>&#45;34&#45;&gt;0</title>
<path fill="none" stroke="green" stroke-width="0.209283" d="M1499.39,-77.8448C1495.2,-73.4714 1489.45,-68.4181 1483.21,-65.6985 1338.25,-2.49052 1285.62,-53.071 1129.21,-29.6985 1113.94,-27.4159 1096.94,-24.0719 1083.52,-21.2417"/>
<polygon fill="green" stroke="green" stroke-width="0.209283" points="1084.14,-17.7946 1073.62,-19.1122 1082.66,-24.6379 1084.14,-17.7946"/>
</g>
<!-- &#45;34&#45;&gt;1 -->
<g id="edge130" class="edge"><title>&#45;34&#45;&gt;1</title>
<path fill="none" stroke="green" stroke-width="0.320481" stroke-dasharray="1,5" d="M1498.94,-77.5493C1494.77,-73.3084 1489.19,-68.4791 1483.21,-65.6985 1428.72,-40.3464 1245.84,-23.3479 1178.44,-17.8124"/>
<polygon fill="green" stroke="green" stroke-width="0.320481" points="1178.54,-14.3098 1168.3,-16.995 1177.98,-21.2871 1178.54,-14.3098"/>
</g>
<!-- &#45;34&#45;&gt;2 -->
<g id="edge131" class="edge"><title>&#45;34&#45;&gt;2</title>
<path fill="none" stroke="red" stroke-width="0.134612" d="M1498.18,-77.8746C1487.4,-67.0781 1467.94,-47.6015 1453.69,-33.3456"/>
<polygon fill="red" stroke="red" stroke-width="0.134612" points="1455.95,-30.6514 1446.41,-26.051 1451,-35.599 1455.95,-30.6514"/>
</g>
<!-- &#45;34&#45;&gt;3 -->
<g id="edge132" class="edge"><title>&#45;34&#45;&gt;3</title>
<path fill="none" stroke="green" stroke-width="0.362573" d="M1498.21,-77.7294C1494.01,-73.7422 1488.62,-69.0889 1483.21,-65.6985 1452.72,-46.5652 1413.61,-31.6974 1388.97,-23.3508"/>
<polygon fill="green" stroke="green" stroke-width="0.362573" points="1389.96,-19.9912 1379.37,-20.1796 1387.76,-26.6383 1389.96,-19.9912"/>
</g>
<!-- &#45;35 -->
<g id="node35" class="node"><title>&#45;35</title>
<polygon fill="lightgray" stroke="black" points="1567.71,-95.9117 1538.71,-95.9117 1538.71,-77.9117 1567.71,-77.9117 1567.71,-95.9117"/>
<text text-anchor="middle" x="1553.21" y="-84.7117" font-family="Times New Roman,serif" font-size="9.00">&#45;35</text>
</g>
<!-- &#45;35&#45;&gt;0 -->
<g id="edge133" class="edge"><title>&#45;35&#45;&gt;0</title>
<path fill="none" stroke="red" stroke-width="0.225895" d="M1546.4,-77.8171C1542.22,-73.4345 1536.47,-68.3812 1530.21,-65.6985 1365.77,4.85069 1306.34,-55.0986 1129.21,-29.6985 1113.92,-27.5061 1096.93,-24.1645 1083.51,-21.313"/>
<polygon fill="red" stroke="red" stroke-width="0.225895" points="1084.13,-17.8668 1073.62,-19.1625 1082.64,-24.707 1084.13,-17.8668"/>
</g>
<!-- &#45;35&#45;&gt;1 -->
<g id="edge134" class="edge"><title>&#45;35&#45;&gt;1</title>
<path fill="none" stroke="red" stroke-width="0.113377" d="M1545.96,-77.5052C1541.8,-73.2514 1536.22,-68.4238 1530.21,-65.6985 1466.89,-36.9444 1252.45,-21.7555 1178.52,-17.2792"/>
<polygon fill="red" stroke="red" stroke-width="0.113377" points="1178.47,-13.7705 1168.28,-16.6742 1178.06,-20.7583 1178.47,-13.7705"/>
</g>
<!-- &#45;35&#45;&gt;2 -->
<g id="edge135" class="edge"><title>&#45;35&#45;&gt;2</title>
<path fill="none" stroke="red" stroke-width="0.300056" d="M1544.65,-77.5316C1540.49,-73.6809 1535.29,-69.2022 1530.21,-65.6985 1507.17,-49.7894 1478.46,-35.2435 1458.87,-26.024"/>
<polygon fill="red" stroke="red" stroke-width="0.300056" points="1460.08,-22.7285 1449.54,-21.7093 1457.15,-29.0824 1460.08,-22.7285"/>
</g>
<!-- &#45;35&#45;&gt;3 -->
<g id="edge136" class="edge"><title>&#45;35&#45;&gt;3</title>
<path fill="none" stroke="green" stroke-width="0.112778" d="M1545.77,-77.8853C1541.55,-73.7428 1535.98,-68.9003 1530.21,-65.6985 1527.04,-63.9365 1433.97,-36.2314 1389.04,-22.9046"/>
<polygon fill="green" stroke="green" stroke-width="0.112778" points="1389.81,-19.4839 1379.23,-19.9975 1387.82,-26.1953 1389.81,-19.4839"/>
</g>
<!-- &#45;36 -->
<g id="node36" class="node"><title>&#45;36</title>
<polygon fill="lightgray" stroke="black" points="1614.71,-95.9117 1585.71,-95.9117 1585.71,-77.9117 1614.71,-77.9117 1614.71,-95.9117"/>
<text text-anchor="middle" x="1600.21" y="-84.7117" font-family="Times New Roman,serif" font-size="9.00">&#45;36</text>
</g>
<!-- &#45;36&#45;&gt;0 -->
<g id="edge137" class="edge"><title>&#45;36&#45;&gt;0</title>
<path fill="none" stroke="red" stroke-width="0.477175" d="M1593.41,-77.7952C1589.23,-73.4053 1583.48,-68.352 1577.21,-65.6985 1485.24,-26.7504 1228.14,-43.4134 1129.21,-29.6985 1113.91,-27.5776 1096.92,-24.2379 1083.5,-21.3694"/>
<polygon fill="red" stroke="red" stroke-width="0.477175" points="1084.13,-17.924 1073.61,-19.2023 1082.63,-24.7618 1084.13,-17.924"/>
</g>
<!-- &#45;36&#45;&gt;1 -->
<g id="edge138" class="edge"><title>&#45;36&#45;&gt;1</title>
<path fill="none" stroke="red" stroke-width="0.109746" d="M1593.38,-77.8814C1589.18,-73.5202 1583.43,-68.4669 1577.21,-65.6985 1540.65,-49.4121 1263.86,-25.1144 1178.32,-17.9242"/>
<polygon fill="red" stroke="red" stroke-width="0.109746" points="1178.47,-14.4244 1168.21,-17.0795 1177.88,-21.4001 1178.47,-14.4244"/>
</g>
<!-- &#45;36&#45;&gt;2 -->
<g id="edge139" class="edge"><title>&#45;36&#45;&gt;2</title>
<path fill="none" stroke="green" stroke-width="0.13067" d="M1592.3,-77.5912C1588.11,-73.5687 1582.72,-68.9256 1577.21,-65.6985 1539.11,-43.3548 1489.39,-28.6947 1460.31,-21.3726"/>
<polygon fill="green" stroke="green" stroke-width="0.13067" points="1461.14,-17.9713 1450.59,-19.0063 1459.48,-24.7727 1461.14,-17.9713"/>
</g>
<!-- &#45;36&#45;&gt;3 -->
<g id="edge140" class="edge"><title>&#45;36&#45;&gt;3</title>
<path fill="none" stroke="red" stroke-width="0.145977" d="M1592.87,-77.7028C1588.68,-73.5068 1583.1,-68.6715 1577.21,-65.6985 1510.22,-31.8457 1484.93,-48.3181 1412.21,-29.6985 1404.6,-27.7479 1396.35,-25.4002 1388.93,-23.1966"/>
<polygon fill="red" stroke="red" stroke-width="0.145977" points="1389.71,-19.7773 1379.13,-20.2338 1387.68,-26.4778 1389.71,-19.7773"/>
</g>
<!-- &#45;37 -->
<g id="node37" class="node"><title>&#45;37</title>
<polygon fill="lightgray" stroke="black" points="1661.71,-95.9117 1632.71,-95.9117 1632.71,-77.9117 1661.71,-77.9117 1661.71,-95.9117"/>
<text text-anchor="middle" x="1647.21" y="-84.7117" font-family="Times New Roman,serif" font-size="9.00">&#45;37</text>
</g>
<!-- &#45;37&#45;&gt;0 -->
<g id="edge141" class="edge"><title>&#45;37&#45;&gt;0</title>
<path fill="none" stroke="green" stroke-width="0.182126" d="M1640.42,-77.7773C1636.24,-73.3815 1630.49,-68.3282 1624.21,-65.6985 1522.49,-23.0748 1238.52,-44.429 1129.21,-29.6985 1113.91,-27.6357 1096.91,-24.2974 1083.49,-21.4153"/>
<polygon fill="green" stroke="green" stroke-width="0.182126" points="1084.12,-17.9705 1073.61,-19.2347 1082.62,-24.8062 1084.12,-17.9705"/>
</g>
<!-- &#45;37&#45;&gt;1 -->
<g id="edge142" class="edge"><title>&#45;37&#45;&gt;1</title>
<path fill="none" stroke="red" stroke-width="0.108124" d="M1640.39,-77.8544C1636.19,-73.4842 1630.44,-68.4309 1624.21,-65.6985 1583.15,-47.6919 1270.1,-24.1788 1178.39,-17.6167"/>
<polygon fill="red" stroke="red" stroke-width="0.108124" points="1178.55,-14.12 1168.33,-16.902 1178.06,-21.1024 1178.55,-14.12"/>
</g>
<!-- &#45;37&#45;&gt;2 -->
<g id="edge143" class="edge"><title>&#45;37&#45;&gt;2</title>
<path fill="none" stroke="green" stroke-width="0.496357" d="M1639.81,-77.8063C1635.61,-73.6407 1630.03,-68.8013 1624.21,-65.6985 1570.12,-36.8382 1498.18,-23.8398 1460.93,-18.7213"/>
<polygon fill="green" stroke="green" stroke-width="0.496357" points="1461.33,-15.2439 1450.96,-17.4282 1460.42,-22.1857 1461.33,-15.2439"/>
</g>
<!-- &#45;37&#45;&gt;3 -->
<g id="edge144" class="edge"><title>&#45;37&#45;&gt;3</title>
<path fill="none" stroke="red" stroke-width="0.320517" d="M1639.92,-77.5928C1635.75,-73.3646 1630.16,-68.5336 1624.21,-65.6985 1537.93,-24.5935 1505.32,-51.2427 1412.21,-29.6985 1404.55,-27.9259 1396.3,-25.6277 1388.87,-23.4146"/>
<polygon fill="red" stroke="red" stroke-width="0.320517" points="1389.67,-19.9982 1379.08,-20.4064 1387.61,-26.6894 1389.67,-19.9982"/>
</g>
<!-- &#45;38 -->
<g id="node38" class="node"><title>&#45;38</title>
<polygon fill="lightgray" stroke="black" points="1708.71,-95.9117 1679.71,-95.9117 1679.71,-77.9117 1708.71,-77.9117 1708.71,-95.9117"/>
<text text-anchor="middle" x="1694.21" y="-84.7117" font-family="Times New Roman,serif" font-size="9.00">&#45;38</text>
</g>
<!-- &#45;38&#45;&gt;0 -->
<g id="edge145" class="edge"><title>&#45;38&#45;&gt;0</title>
<path fill="none" stroke="red" stroke-width="0.554406" d="M1687.43,-77.7626C1683.25,-73.3618 1677.5,-68.3085 1671.21,-65.6985 1559.74,-19.3976 1248.89,-45.4452 1129.21,-29.6985 1113.9,-27.6837 1096.9,-24.3467 1083.49,-21.4532"/>
<polygon fill="red" stroke="red" stroke-width="0.554406" points="1084.12,-18.0089 1073.6,-19.2614 1082.61,-24.843 1084.12,-18.0089"/>
</g>
<!-- &#45;38&#45;&gt;1 -->
<g id="edge146" class="edge"><title>&#45;38&#45;&gt;1</title>
<path fill="none" stroke="red" stroke-width="0.452075" d="M1687.4,-77.8321C1683.21,-73.4545 1677.46,-68.4012 1671.21,-65.6985 1648.29,-55.7757 1278.21,-25.7811 1178.05,-17.8114"/>
<polygon fill="red" stroke="red" stroke-width="0.452075" points="1178.2,-14.3125 1167.95,-17.0102 1177.64,-21.2905 1178.2,-14.3125"/>
</g>
<!-- &#45;38&#45;&gt;2 -->
<g id="edge147" class="edge"><title>&#45;38&#45;&gt;2</title>
<path fill="none" stroke="green" stroke-width="0.714908" d="M1686.87,-77.6892C1682.69,-73.4892 1677.11,-68.6545 1671.21,-65.6985 1600.59,-30.2674 1505.8,-19.9768 1461.29,-17.0209"/>
<polygon fill="green" stroke="green" stroke-width="0.714908" points="1461.29,-13.5149 1451.1,-16.4166 1460.87,-20.5026 1461.29,-13.5149"/>
</g>
<!-- &#45;38&#45;&gt;3 -->
<g id="edge148" class="edge"><title>&#45;38&#45;&gt;3</title>
<path fill="none" stroke="green" stroke-width="0.218316" d="M1686.95,-77.5211C1682.79,-73.2719 1677.21,-68.4437 1671.21,-65.6985 1565.55,-17.2978 1525.82,-54.1903 1412.21,-29.6985 1404.53,-28.0414 1396.26,-25.7753 1388.84,-23.5561"/>
<polygon fill="green" stroke="green" stroke-width="0.218316" points="1389.65,-20.1412 1379.06,-20.5184 1387.57,-26.8264 1389.65,-20.1412"/>
</g>
<!-- &#45;39 -->
<g id="node39" class="node"><title>&#45;39</title>
<polygon fill="lightgray" stroke="black" points="2013.71,-95.9117 1984.71,-95.9117 1984.71,-77.9117 2013.71,-77.9117 2013.71,-95.9117"/>
<text text-anchor="middle" x="1999.21" y="-84.7117" font-family="Times New Roman,serif" font-size="9.00">&#45;39</text>
</g>
<!-- &#45;39&#45;&gt;1 -->
<g id="edge149" class="edge"><title>&#45;39&#45;&gt;1</title>
<path fill="none" stroke="red" stroke-width="0.561096" stroke-dasharray="1,5" d="M1992.07,-77.7368C1987.69,-73.3274 1981.69,-68.2741 1975.21,-65.6985 1844.08,-13.5734 1482.03,-38.8825 1341.21,-29.6985 1282.91,-25.8959 1214.49,-20.6615 1178.42,-17.8417"/>
<polygon fill="red" stroke="red" stroke-width="0.561096" points="1178.56,-14.3417 1168.32,-17.0484 1178.01,-21.3202 1178.56,-14.3417"/>
</g>
<!-- &#45;39&#45;&gt;2 -->
<g id="edge150" class="edge"><title>&#45;39&#45;&gt;2</title>
<path fill="none" stroke="red" stroke-width="0.28062" d="M1992.04,-77.8228C1987.65,-73.442 1981.65,-68.3887 1975.21,-65.6985 1880.44,-26.067 1554.47,-17.7705 1461.28,-16.1925"/>
<polygon fill="red" stroke="red" stroke-width="0.28062" points="1461.15,-12.6902 1451.1,-16.0317 1461.04,-19.6893 1461.15,-12.6902"/>
</g>
<!-- &#45;39&#45;&gt;3 -->
<g id="edge151" class="edge"><title>&#45;39&#45;&gt;3</title>
<path fill="none" stroke="green" stroke-width="0.167471" d="M1992.07,-77.7541C1987.68,-73.3505 1981.68,-68.2972 1975.21,-65.6985 1858.88,-18.9755 1535.66,-51.5512 1412.21,-29.6985 1404.47,-28.3278 1396.19,-26.1413 1388.77,-23.9069"/>
<polygon fill="green" stroke="green" stroke-width="0.167471" points="1389.59,-20.4954 1379,-20.7962 1387.47,-27.1654 1389.59,-20.4954"/>
</g>
<!-- &#45;40 -->
<g id="node40" class="node"><title>&#45;40</title>
<polygon fill="lightgray" stroke="black" points="1755.71,-95.9117 1726.71,-95.9117 1726.71,-77.9117 1755.71,-77.9117 1755.71,-95.9117"/>
<text text-anchor="middle" x="1741.21" y="-84.7117" font-family="Times New Roman,serif" font-size="9.00">&#45;40</text>
</g>
<!-- &#45;40&#45;&gt;0 -->
<g id="edge152" class="edge"><title>&#45;40&#45;&gt;0</title>
<path fill="none" stroke="red" stroke-width="0.326844" d="M1734.43,-77.7501C1730.25,-73.3452 1724.5,-68.2919 1718.21,-65.6985 1596.98,-15.7193 1259.27,-46.4617 1129.21,-29.6985 1113.9,-27.7241 1096.9,-24.3882 1083.48,-21.4851"/>
<polygon fill="red" stroke="red" stroke-width="0.326844" points="1084.12,-18.0412 1073.6,-19.284 1082.6,-24.8739 1084.12,-18.0412"/>
</g>
<!-- &#45;40&#45;&gt;1 -->
<g id="edge153" class="edge"><title>&#45;40&#45;&gt;1</title>
<path fill="none" stroke="red" stroke-width="0.501476" d="M1734.4,-77.8135C1730.22,-73.4297 1724.47,-68.3764 1718.21,-65.6985 1705.59,-60.2946 1285.84,-26.4484 1178.18,-17.8393"/>
<polygon fill="red" stroke="red" stroke-width="0.501476" points="1178.2,-14.3299 1167.95,-17.0225 1177.64,-21.3077 1178.2,-14.3299"/>
</g>
<!-- &#45;40&#45;&gt;2 -->
<g id="edge154" class="edge"><title>&#45;40&#45;&gt;2</title>
<path fill="none" stroke="green" stroke-width="0.312529" d="M1733.91,-77.6088C1729.74,-73.3853 1724.15,-68.5537 1718.21,-65.6985 1630.54,-23.5667 1512.17,-16.7174 1461.23,-15.8296"/>
<polygon fill="green" stroke="green" stroke-width="0.312529" points="1461.18,-12.329 1451.14,-15.7189 1461.1,-19.3286 1461.18,-12.329"/>
</g>
<!-- &#45;40&#45;&gt;3 -->
<g id="edge155" class="edge"><title>&#45;40&#45;&gt;3</title>
<path fill="none" stroke="green" stroke-width="0.347351" stroke-dasharray="1,5" d="M1734.37,-77.8816C1730.18,-73.5205 1724.43,-68.4672 1718.21,-65.6985 1593.12,-9.979 1546.37,-57.1497 1412.21,-29.6985 1404.51,-28.1222 1396.24,-25.8785 1388.82,-23.655"/>
<polygon fill="green" stroke="green" stroke-width="0.347351" points="1389.63,-20.2412 1379.04,-20.5968 1387.54,-26.9221 1389.63,-20.2412"/>
</g>
<!-- 401&#45;&gt;2 -->
<g id="edge159" class="edge"><title>401&#45;&gt;2</title>
<path fill="none" stroke="red" stroke-width="0.1772" d="M2448.15,-73.9031C2442.67,-70.6498 2436.4,-67.5254 2430.21,-65.6985 2334.82,-37.5514 1606.92,-19.7106 1461.46,-16.4064"/>
<polygon fill="red" stroke="red" stroke-width="0.1772" points="1461.38,-12.9037 1451.3,-16.1779 1461.22,-19.902 1461.38,-12.9037"/>
</g>
<!-- 181&#45;&gt;2 -->
<g id="edge157" class="edge"><title>181&#45;&gt;2</title>
<path fill="none" stroke="green" stroke-width="0.1049" d="M2274.14,-73.9435C2268.65,-70.6918 2262.4,-67.5582 2256.21,-65.6985 2102.08,-19.3308 1582.33,-15.9751 1461.47,-15.8303"/>
<polygon fill="green" stroke="green" stroke-width="0.1049" points="1461.34,-12.3303 1451.34,-15.8249 1461.34,-19.3303 1461.34,-12.3303"/>
</g>
<!-- 574&#45;&gt;0 -->
<g id="edge163" class="edge"><title>574&#45;&gt;0</title>
<path fill="none" stroke="green" stroke-width="0.130728" d="M38.2777,-73.9014C43.7593,-70.648 50.0211,-67.524 56.2132,-65.6985 152.578,-37.2888 888.515,-19.6264 1034.2,-16.3891"/>
<polygon fill="green" stroke="green" stroke-width="0.130728" points="1034.44,-19.8847 1044.36,-16.1655 1034.29,-12.8864 1034.44,-19.8847"/>
</g>
<!-- 479&#45;&gt;0 -->
<g id="edge161" class="edge"><title>479&#45;&gt;0</title>
<path fill="none" stroke="green" stroke-width="0.137617" d="M136.284,-73.9218C141.766,-70.6693 148.026,-67.5406 154.213,-65.6985 325.496,-14.7019 905.307,-14.9573 1033.84,-15.6627"/>
<polygon fill="green" stroke="green" stroke-width="0.137617" points="1034.2,-19.1649 1044.22,-15.7264 1034.24,-12.165 1034.2,-19.1649"/>
</g>
</g>
</svg>
