<?xml version="1.0" encoding="UTF-8" standalone="no"?>
<!DOCTYPE svg PUBLIC "-//W3C//DTD SVG 1.1//EN"
 "http://www.w3.org/Graphics/SVG/1.1/DTD/svg11.dtd">
<!-- Generated by graphviz version 2.38.0 (20140413.2041)
 -->
<!-- Title: %3 Pages: 1 -->
<svg width="2159pt" height="170pt"
 viewBox="0.00 0.00 2159.43 170.12" xmlns="http://www.w3.org/2000/svg" xmlns:xlink="http://www.w3.org/1999/xlink">
<g id="graph0" class="graph" transform="scale(1 1) rotate(0) translate(4 166.125)">
<title>%3</title>
<polygon fill="white" stroke="none" points="-4,4 -4,-166.125 2155.43,-166.125 2155.43,4 -4,4"/>
<!-- &#45;1 -->
<g id="node1" class="node"><title>&#45;1</title>
<polygon fill="lightgray" stroke="black" points="848.213,-95.9117 824.213,-95.9117 824.213,-77.9117 848.213,-77.9117 848.213,-95.9117"/>
<text text-anchor="middle" x="836.213" y="-84.7117" font-family="Times New Roman,serif" font-size="9.00">&#45;1</text>
</g>
<!-- 0 -->
<g id="node41" class="node"><title>0</title>
<ellipse fill="lightblue" stroke="black" cx="962.213" cy="-14.8492" rx="14.7" ry="14.7"/>
<text text-anchor="middle" x="962.213" y="-12.6492" font-family="Times New Roman,serif" font-size="9.00">0</text>
</g>
<!-- &#45;1&#45;&gt;0 -->
<g id="edge1" class="edge"><title>&#45;1&#45;&gt;0</title>
<path fill="none" stroke="green" stroke-width="0.140126" d="M843.467,-77.7821C847.291,-73.8083 852.218,-69.1511 857.213,-65.6985 883.295,-47.6716 916.913,-32.9954 938.992,-24.3472"/>
<polygon fill="green" stroke="green" stroke-width="0.140126" points="940.444,-27.5392 948.538,-20.7025 937.947,-20.9996 940.444,-27.5392"/>
</g>
<!-- 1 -->
<g id="node42" class="node"><title>1</title>
<ellipse fill="lightblue" stroke="black" cx="1025.21" cy="-14.8492" rx="14.7" ry="14.7"/>
<text text-anchor="middle" x="1025.21" y="-12.6492" font-family="Times New Roman,serif" font-size="9.00">1</text>
</g>
<!-- &#45;1&#45;&gt;1 -->
<g id="edge2" class="edge"><title>&#45;1&#45;&gt;1</title>
<path fill="none" stroke="green" stroke-width="0.140432" d="M842.86,-77.8149C846.668,-73.6518 851.765,-68.8121 857.213,-65.6985 908.892,-36.1621 929.467,-47.6686 986.213,-29.6985 991.389,-28.0594 996.907,-26.1814 1002.11,-24.3482"/>
<polygon fill="green" stroke="green" stroke-width="0.140432" points="1003.34,-27.6255 1011.57,-20.953 1000.98,-21.0371 1003.34,-27.6255"/>
</g>
<!-- 2 -->
<g id="node43" class="node"><title>2</title>
<ellipse fill="lightblue" stroke="black" cx="1172.21" cy="-14.8492" rx="14.7" ry="14.7"/>
<text text-anchor="middle" x="1172.21" y="-12.6492" font-family="Times New Roman,serif" font-size="9.00">2</text>
</g>
<!-- &#45;1&#45;&gt;2 -->
<g id="edge3" class="edge"><title>&#45;1&#45;&gt;2</title>
<path fill="none" stroke="green" stroke-width="0.292998" d="M842.696,-77.5026C846.456,-73.248 851.56,-68.4205 857.213,-65.6985 967.482,-12.6079 1010.91,-56.9809 1130.21,-29.6985 1136.35,-28.295 1142.87,-26.3697 1148.89,-24.4008"/>
<polygon fill="green" stroke="green" stroke-width="0.292998" points="1150.08,-27.6917 1158.4,-21.1307 1147.8,-21.0719 1150.08,-27.6917"/>
</g>
<!-- 3 -->
<g id="node44" class="node"><title>3</title>
<ellipse fill="lightblue" stroke="black" cx="1106.21" cy="-14.8492" rx="14.7" ry="14.7"/>
<text text-anchor="middle" x="1106.21" y="-12.6492" font-family="Times New Roman,serif" font-size="9.00">3</text>
</g>
<!-- &#45;1&#45;&gt;3 -->
<g id="edge4" class="edge"><title>&#45;1&#45;&gt;3</title>
<path fill="none" stroke="red" stroke-width="0.19092" d="M842.756,-77.6241C846.534,-73.405 851.635,-68.5728 857.213,-65.6985 934.389,-25.9282 964.334,-47.954 1049.21,-29.6985 1060,-27.3782 1071.87,-24.5408 1081.97,-22.0399"/>
<polygon fill="red" stroke="red" stroke-width="0.19092" points="1082.89,-25.4181 1091.74,-19.5912 1081.19,-18.6282 1082.89,-25.4181"/>
</g>
<!-- &#45;2 -->
<g id="node2" class="node"><title>&#45;2</title>
<polygon fill="lightgray" stroke="black" points="890.213,-95.9117 866.213,-95.9117 866.213,-77.9117 890.213,-77.9117 890.213,-95.9117"/>
<text text-anchor="middle" x="878.213" y="-84.7117" font-family="Times New Roman,serif" font-size="9.00">&#45;2</text>
</g>
<!-- &#45;2&#45;&gt;0 -->
<g id="edge5" class="edge"><title>&#45;2&#45;&gt;0</title>
<path fill="none" stroke="green" stroke-width="0.559166" d="M886.218,-77.8522C890.066,-74.0717 894.792,-69.5596 899.213,-65.6985 913.382,-53.325 930.109,-40.1526 942.765,-30.4577"/>
<polygon fill="green" stroke="green" stroke-width="0.559166" points="944.951,-33.1918 950.795,-24.354 940.715,-27.619 944.951,-33.1918"/>
</g>
<!-- &#45;2&#45;&gt;1 -->
<g id="edge6" class="edge"><title>&#45;2&#45;&gt;1</title>
<path fill="none" stroke="green" stroke-width="0.2485" d="M885.372,-77.6399C889.172,-73.6298 894.106,-68.9831 899.213,-65.6985 908.224,-59.9037 968.205,-37.1168 1002.06,-24.453"/>
<polygon fill="green" stroke="green" stroke-width="0.2485" points="1003.5,-27.6528 1011.64,-20.8779 1001.05,-21.0944 1003.5,-27.6528"/>
</g>
<!-- &#45;2&#45;&gt;2 -->
<g id="edge7" class="edge"><title>&#45;2&#45;&gt;2</title>
<path fill="none" stroke="green" stroke-width="0.473689" d="M884.722,-77.5554C888.489,-73.3163 893.592,-68.4867 899.213,-65.6985 992.297,-19.5273 1029.2,-54.0497 1130.21,-29.6985 1136.33,-28.223 1142.84,-26.2718 1148.86,-24.3011"/>
<polygon fill="green" stroke="green" stroke-width="0.473689" points="1150.05,-27.5943 1158.38,-21.0465 1147.78,-20.971 1150.05,-27.5943"/>
</g>
<!-- &#45;2&#45;&gt;3 -->
<g id="edge8" class="edge"><title>&#45;2&#45;&gt;3</title>
<path fill="none" stroke="red" stroke-width="0.208764" stroke-dasharray="1,5" d="M884.815,-77.735C888.61,-73.5485 893.709,-68.7119 899.213,-65.6985 959.35,-32.7734 982.569,-45.792 1049.21,-29.6985 1059.94,-27.1082 1071.8,-24.2294 1081.91,-21.7705"/>
<polygon fill="red" stroke="red" stroke-width="0.208764" points="1082.8,-25.1552 1091.69,-19.3897 1081.15,-18.3538 1082.8,-25.1552"/>
</g>
<!-- &#45;3 -->
<g id="node3" class="node"><title>&#45;3</title>
<polygon fill="lightgray" stroke="black" points="932.213,-95.9117 908.213,-95.9117 908.213,-77.9117 932.213,-77.9117 932.213,-95.9117"/>
<text text-anchor="middle" x="920.213" y="-84.7117" font-family="Times New Roman,serif" font-size="9.00">&#45;3</text>
</g>
<!-- &#45;3&#45;&gt;0 -->
<g id="edge9" class="edge"><title>&#45;3&#45;&gt;0</title>
<path fill="none" stroke="red" stroke-width="0.767256" d="M925.031,-77.8746C930.983,-67.9452 941.337,-50.6741 949.609,-36.8744"/>
<polygon fill="red" stroke="red" stroke-width="0.767256" points="952.785,-38.3847 954.924,-28.0082 946.781,-34.7856 952.785,-38.3847"/>
</g>
<!-- &#45;3&#45;&gt;1 -->
<g id="edge10" class="edge"><title>&#45;3&#45;&gt;1</title>
<path fill="none" stroke="green" stroke-width="0.190984" d="M927.996,-77.5793C931.794,-73.739 936.544,-69.2553 941.213,-65.6985 961.019,-50.6128 985.734,-36.4352 1003.21,-27.0857"/>
<polygon fill="green" stroke="green" stroke-width="0.190984" points="1004.88,-30.1639 1012.1,-22.4131 1001.62,-23.9676 1004.88,-30.1639"/>
</g>
<!-- &#45;3&#45;&gt;2 -->
<g id="edge11" class="edge"><title>&#45;3&#45;&gt;2</title>
<path fill="none" stroke="red" stroke-width="0.437554" d="M926.76,-77.6305C930.538,-73.4133 935.64,-68.5808 941.213,-65.6985 1017.17,-26.4192 1047.43,-51.1331 1130.21,-29.6985 1136.31,-28.1203 1142.81,-26.1322 1148.83,-24.1588"/>
<polygon fill="red" stroke="red" stroke-width="0.437554" points="1150,-27.4553 1158.35,-20.9263 1147.75,-20.8269 1150,-27.4553"/>
</g>
<!-- &#45;3&#45;&gt;3 -->
<g id="edge12" class="edge"><title>&#45;3&#45;&gt;3</title>
<path fill="none" stroke="red" stroke-width="0.265407" d="M926.887,-77.861C930.703,-73.7113 935.799,-68.8698 941.213,-65.6985 965.339,-51.5675 1042.16,-31.5053 1081.89,-21.7003"/>
<polygon fill="red" stroke="red" stroke-width="0.265407" points="1082.93,-25.049 1091.82,-19.2745 1081.27,-18.2492 1082.93,-25.049"/>
</g>
<!-- &#45;4 -->
<g id="node4" class="node"><title>&#45;4</title>
<polygon fill="lightgray" stroke="black" points="974.213,-95.9117 950.213,-95.9117 950.213,-77.9117 974.213,-77.9117 974.213,-95.9117"/>
<text text-anchor="middle" x="962.213" y="-84.7117" font-family="Times New Roman,serif" font-size="9.00">&#45;4</text>
</g>
<!-- &#45;4&#45;&gt;0 -->
<g id="edge13" class="edge"><title>&#45;4&#45;&gt;0</title>
<path fill="none" stroke="red" stroke-width="0.747838" d="M962.213,-77.8746C962.213,-68.7202 962.213,-53.3256 962.213,-40.1641"/>
<polygon fill="red" stroke="red" stroke-width="0.747838" points="965.713,-39.8196 962.213,-29.8197 958.713,-39.8197 965.713,-39.8196"/>
</g>
<!-- &#45;4&#45;&gt;1 -->
<g id="edge14" class="edge"><title>&#45;4&#45;&gt;1</title>
<path fill="none" stroke="red" stroke-width="0.455042" d="M969.44,-77.8746C978.95,-67.2982 995.951,-48.3922 1008.69,-34.2241"/>
<polygon fill="red" stroke="red" stroke-width="0.455042" points="1011.53,-36.3045 1015.61,-26.5283 1006.32,-31.624 1011.53,-36.3045"/>
</g>
<!-- &#45;4&#45;&gt;2 -->
<g id="edge15" class="edge"><title>&#45;4&#45;&gt;2</title>
<path fill="none" stroke="red" stroke-width="0.194607" d="M968.821,-77.7452C972.618,-73.5616 977.716,-68.7246 983.213,-65.6985 1042.14,-33.2593 1065.56,-48.2448 1130.21,-29.6985 1136.26,-27.9626 1142.75,-25.9178 1148.77,-23.9401"/>
<polygon fill="red" stroke="red" stroke-width="0.194607" points="1149.93,-27.2414 1158.3,-20.7416 1147.7,-20.6052 1149.93,-27.2414"/>
</g>
<!-- &#45;4&#45;&gt;3 -->
<g id="edge16" class="edge"><title>&#45;4&#45;&gt;3</title>
<path fill="none" stroke="green" stroke-width="0.434319" d="M969.384,-77.6578C973.187,-73.6523 978.12,-69.0043 983.213,-65.6985 1014.98,-45.0821 1056.65,-30.3908 1082.42,-22.5143"/>
<polygon fill="green" stroke="green" stroke-width="0.434319" points="1083.51,-25.8441 1092.1,-19.6491 1081.52,-19.1321 1083.51,-25.8441"/>
</g>
<!-- &#45;5 -->
<g id="node5" class="node"><title>&#45;5</title>
<polygon fill="lightgray" stroke="black" points="1016.21,-95.9117 992.213,-95.9117 992.213,-77.9117 1016.21,-77.9117 1016.21,-95.9117"/>
<text text-anchor="middle" x="1004.21" y="-84.7117" font-family="Times New Roman,serif" font-size="9.00">&#45;5</text>
</g>
<!-- &#45;5&#45;&gt;0 -->
<g id="edge17" class="edge"><title>&#45;5&#45;&gt;0</title>
<path fill="none" stroke="green" stroke-width="0.173634" stroke-dasharray="1,5" d="M999.395,-77.8746C993.443,-67.9452 983.09,-50.6741 974.817,-36.8744"/>
<polygon fill="green" stroke="green" stroke-width="0.173634" points="977.646,-34.7856 969.502,-28.0082 971.642,-38.3847 977.646,-34.7856"/>
</g>
<!-- &#45;5&#45;&gt;1 -->
<g id="edge18" class="edge"><title>&#45;5&#45;&gt;1</title>
<path fill="none" stroke="green" stroke-width="0.125195" d="M1006.62,-77.8746C1009.46,-68.4226 1014.28,-52.3178 1018.31,-38.8876"/>
<polygon fill="green" stroke="green" stroke-width="0.125195" points="1021.67,-39.8771 1021.18,-29.2932 1014.96,-37.8673 1021.67,-39.8771"/>
</g>
<!-- &#45;5&#45;&gt;2 -->
<g id="edge19" class="edge"><title>&#45;5&#45;&gt;2</title>
<path fill="none" stroke="green" stroke-width="0.524717" d="M1011.3,-77.5313C1015.09,-73.4936 1020.03,-68.855 1025.21,-65.6985 1027.95,-64.0313 1107.95,-37.2627 1148.76,-23.6581"/>
<polygon fill="green" stroke="green" stroke-width="0.524717" points="1150.06,-26.9117 1158.45,-20.4298 1147.85,-20.2706 1150.06,-26.9117"/>
</g>
<!-- &#45;5&#45;&gt;3 -->
<g id="edge20" class="edge"><title>&#45;5&#45;&gt;3</title>
<path fill="none" stroke="red" stroke-width="0.135255" d="M1012.02,-77.6129C1015.83,-73.78 1020.57,-69.2928 1025.21,-65.6985 1044.09,-51.0765 1067.49,-37.0667 1084.28,-27.6436"/>
<polygon fill="red" stroke="red" stroke-width="0.135255" points="1086.25,-30.5526 1093.31,-22.6555 1082.87,-24.4244 1086.25,-30.5526"/>
</g>
<!-- &#45;6 -->
<g id="node6" class="node"><title>&#45;6</title>
<polygon fill="lightgray" stroke="black" points="1058.21,-95.9117 1034.21,-95.9117 1034.21,-77.9117 1058.21,-77.9117 1058.21,-95.9117"/>
<text text-anchor="middle" x="1046.21" y="-84.7117" font-family="Times New Roman,serif" font-size="9.00">&#45;6</text>
</g>
<!-- &#45;6&#45;&gt;0 -->
<g id="edge21" class="edge"><title>&#45;6&#45;&gt;0</title>
<path fill="none" stroke="red" stroke-width="0.320145" d="M1038.21,-77.8522C1034.36,-74.0717 1029.63,-69.5596 1025.21,-65.6985 1011.04,-53.325 994.318,-40.1526 981.662,-30.4577"/>
<polygon fill="red" stroke="red" stroke-width="0.320145" points="983.711,-27.619 973.632,-24.354 979.475,-33.1918 983.711,-27.619"/>
</g>
<!-- &#45;6&#45;&gt;1 -->
<g id="edge22" class="edge"><title>&#45;6&#45;&gt;1</title>
<path fill="none" stroke="red" stroke-width="0.318558" d="M1043.8,-77.8746C1040.97,-68.4226 1036.14,-52.3178 1032.12,-38.8876"/>
<polygon fill="red" stroke="red" stroke-width="0.318558" points="1035.47,-37.8673 1029.24,-29.2932 1028.76,-39.8771 1035.47,-37.8673"/>
</g>
<!-- &#45;6&#45;&gt;2 -->
<g id="edge23" class="edge"><title>&#45;6&#45;&gt;2</title>
<path fill="none" stroke="green" stroke-width="0.164387" d="M1053.47,-77.7821C1057.29,-73.8083 1062.22,-69.1511 1067.21,-65.6985 1093.29,-47.6716 1126.91,-32.9954 1148.99,-24.3472"/>
<polygon fill="green" stroke="green" stroke-width="0.164387" points="1150.44,-27.5392 1158.54,-20.7025 1147.95,-20.9996 1150.44,-27.5392"/>
</g>
<!-- &#45;6&#45;&gt;3 -->
<g id="edge24" class="edge"><title>&#45;6&#45;&gt;3</title>
<path fill="none" stroke="green" stroke-width="0.376476" d="M1053.1,-77.8746C1062.05,-67.4184 1077.98,-48.8208 1090.06,-34.7089"/>
<polygon fill="green" stroke="green" stroke-width="0.376476" points="1092.81,-36.8858 1096.65,-27.0138 1087.49,-32.3326 1092.81,-36.8858"/>
</g>
<!-- &#45;7 -->
<g id="node7" class="node"><title>&#45;7</title>
<polygon fill="lightgray" stroke="black" points="1100.21,-95.9117 1076.21,-95.9117 1076.21,-77.9117 1100.21,-77.9117 1100.21,-95.9117"/>
<text text-anchor="middle" x="1088.21" y="-84.7117" font-family="Times New Roman,serif" font-size="9.00">&#45;7</text>
</g>
<!-- &#45;7&#45;&gt;0 -->
<g id="edge25" class="edge"><title>&#45;7&#45;&gt;0</title>
<path fill="none" stroke="red" stroke-width="0.297633" stroke-dasharray="1,5" d="M1080.96,-77.7821C1077.13,-73.8083 1072.21,-69.1511 1067.21,-65.6985 1041.13,-47.6716 1007.51,-32.9954 985.434,-24.3472"/>
<polygon fill="red" stroke="red" stroke-width="0.297633" points="986.479,-20.9996 975.888,-20.7025 983.982,-27.5392 986.479,-20.9996"/>
</g>
<!-- &#45;7&#45;&gt;1 -->
<g id="edge26" class="edge"><title>&#45;7&#45;&gt;1</title>
<path fill="none" stroke="red" stroke-width="0.102758" d="M1080.99,-77.8746C1071.48,-67.2982 1054.48,-48.3922 1041.74,-34.2241"/>
<polygon fill="red" stroke="red" stroke-width="0.102758" points="1044.1,-31.624 1034.82,-26.5283 1038.9,-36.3045 1044.1,-31.624"/>
</g>
<!-- &#45;7&#45;&gt;2 -->
<g id="edge27" class="edge"><title>&#45;7&#45;&gt;2</title>
<path fill="none" stroke="green" stroke-width="0.203129" d="M1096.22,-77.8522C1100.07,-74.0717 1104.79,-69.5596 1109.21,-65.6985 1123.38,-53.325 1140.11,-40.1526 1152.76,-30.4577"/>
<polygon fill="green" stroke="green" stroke-width="0.203129" points="1154.95,-33.1918 1160.79,-24.354 1150.72,-27.619 1154.95,-33.1918"/>
</g>
<!-- &#45;7&#45;&gt;3 -->
<g id="edge28" class="edge"><title>&#45;7&#45;&gt;3</title>
<path fill="none" stroke="green" stroke-width="0.100215" d="M1090.28,-77.8746C1092.68,-68.5153 1096.76,-52.633 1100.19,-39.2834"/>
<polygon fill="green" stroke="green" stroke-width="0.100215" points="1103.66,-39.8496 1102.76,-29.2932 1096.88,-38.1077 1103.66,-39.8496"/>
</g>
<!-- &#45;8 -->
<g id="node8" class="node"><title>&#45;8</title>
<polygon fill="lightgray" stroke="black" points="1142.21,-95.9117 1118.21,-95.9117 1118.21,-77.9117 1142.21,-77.9117 1142.21,-95.9117"/>
<text text-anchor="middle" x="1130.21" y="-84.7117" font-family="Times New Roman,serif" font-size="9.00">&#45;8</text>
</g>
<!-- &#45;8&#45;&gt;0 -->
<g id="edge29" class="edge"><title>&#45;8&#45;&gt;0</title>
<path fill="none" stroke="green" stroke-width="0.199935" d="M1123.13,-77.5199C1119.35,-73.4793 1114.41,-68.8415 1109.21,-65.6985 1065.92,-39.5104 1049.06,-46.165 1001.21,-29.6985 996.08,-27.9316 990.579,-26.0011 985.375,-24.1576"/>
<polygon fill="green" stroke="green" stroke-width="0.199935" points="986.502,-20.844 975.908,-20.7856 984.153,-27.4381 986.502,-20.844"/>
</g>
<!-- &#45;8&#45;&gt;1 -->
<g id="edge30" class="edge"><title>&#45;8&#45;&gt;1</title>
<path fill="none" stroke="green" stroke-width="0.273982" stroke-dasharray="1,5" d="M1122.43,-77.5793C1118.63,-73.739 1113.88,-69.2553 1109.21,-65.6985 1089.41,-50.6128 1064.69,-36.4352 1047.21,-27.0857"/>
<polygon fill="green" stroke="green" stroke-width="0.273982" points="1048.8,-23.9676 1038.32,-22.4131 1045.55,-30.1639 1048.8,-23.9676"/>
</g>
<!-- &#45;8&#45;&gt;2 -->
<g id="edge31" class="edge"><title>&#45;8&#45;&gt;2</title>
<path fill="none" stroke="green" stroke-width="0.11881" d="M1135.03,-77.8746C1140.98,-67.9452 1151.34,-50.6741 1159.61,-36.8744"/>
<polygon fill="green" stroke="green" stroke-width="0.11881" points="1162.78,-38.3847 1164.92,-28.0082 1156.78,-34.7856 1162.78,-38.3847"/>
</g>
<!-- &#45;8&#45;&gt;3 -->
<g id="edge32" class="edge"><title>&#45;8&#45;&gt;3</title>
<path fill="none" stroke="green" stroke-width="0.330369" d="M1127.46,-77.8746C1124.2,-68.3653 1118.64,-52.1224 1114.02,-38.6437"/>
<polygon fill="green" stroke="green" stroke-width="0.330369" points="1117.28,-37.3587 1110.73,-29.0326 1110.66,-39.6272 1117.28,-37.3587"/>
</g>
<!-- &#45;9 -->
<g id="node9" class="node"><title>&#45;9</title>
<polygon fill="lightgray" stroke="black" points="1184.21,-95.9117 1160.21,-95.9117 1160.21,-77.9117 1184.21,-77.9117 1184.21,-95.9117"/>
<text text-anchor="middle" x="1172.21" y="-84.7117" font-family="Times New Roman,serif" font-size="9.00">&#45;9</text>
</g>
<!-- &#45;9&#45;&gt;0 -->
<g id="edge33" class="edge"><title>&#45;9&#45;&gt;0</title>
<path fill="none" stroke="red" stroke-width="0.290436" stroke-dasharray="1,5" d="M1165.61,-77.735C1161.82,-73.5485 1156.72,-68.7119 1151.21,-65.6985 1091.08,-32.7734 1066.94,-49.197 1001.21,-29.6985 996.008,-28.1544 990.478,-26.3153 985.268,-24.4898"/>
<polygon fill="red" stroke="red" stroke-width="0.290436" points="986.408,-21.1804 975.814,-21.0773 984.032,-27.7646 986.408,-21.1804"/>
</g>
<!-- &#45;9&#45;&gt;1 -->
<g id="edge34" class="edge"><title>&#45;9&#45;&gt;1</title>
<path fill="none" stroke="red" stroke-width="0.24193" d="M1165.05,-77.6399C1161.25,-73.6298 1156.32,-68.9831 1151.21,-65.6985 1118.69,-44.7845 1076,-30.1777 1049.59,-22.3999"/>
<polygon fill="red" stroke="red" stroke-width="0.24193" points="1050.25,-18.9487 1039.68,-19.5753 1048.33,-25.681 1050.25,-18.9487"/>
</g>
<!-- &#45;9&#45;&gt;2 -->
<g id="edge35" class="edge"><title>&#45;9&#45;&gt;2</title>
<path fill="none" stroke="red" stroke-width="0.131888" d="M1172.21,-77.8746C1172.21,-68.7202 1172.21,-53.3256 1172.21,-40.1641"/>
<polygon fill="red" stroke="red" stroke-width="0.131888" points="1175.71,-39.8196 1172.21,-29.8197 1168.71,-39.8197 1175.71,-39.8196"/>
</g>
<!-- &#45;9&#45;&gt;3 -->
<g id="edge36" class="edge"><title>&#45;9&#45;&gt;3</title>
<path fill="none" stroke="green" stroke-width="0.404822" d="M1164.64,-77.8746C1154.59,-67.1994 1136.54,-48.0381 1123.15,-33.8281"/>
<polygon fill="green" stroke="green" stroke-width="0.404822" points="1125.68,-31.4074 1116.27,-26.5283 1120.58,-36.2072 1125.68,-31.4074"/>
</g>
<!-- &#45;10 -->
<g id="node10" class="node"><title>&#45;10</title>
<polygon fill="lightgray" stroke="black" points="1231.71,-95.9117 1202.71,-95.9117 1202.71,-77.9117 1231.71,-77.9117 1231.71,-95.9117"/>
<text text-anchor="middle" x="1217.21" y="-84.7117" font-family="Times New Roman,serif" font-size="9.00">&#45;10</text>
</g>
<!-- &#45;10&#45;&gt;0 -->
<g id="edge37" class="edge"><title>&#45;10&#45;&gt;0</title>
<path fill="none" stroke="green" stroke-width="0.303753" d="M1209.52,-77.6393C1205.14,-73.4247 1199.32,-68.5919 1193.21,-65.6985 1114.76,-28.51 1085.04,-52.2937 1001.21,-29.6985 995.971,-28.2855 990.426,-26.5001 985.213,-24.6852"/>
<polygon fill="green" stroke="green" stroke-width="0.303753" points="986.36,-21.378 975.766,-21.2489 983.967,-27.9563 986.36,-21.378"/>
</g>
<!-- &#45;10&#45;&gt;1 -->
<g id="edge38" class="edge"><title>&#45;10&#45;&gt;1</title>
<path fill="none" stroke="green" stroke-width="0.287836" d="M1209.39,-77.8871C1204.98,-73.7451 1199.16,-68.9026 1193.21,-65.6985 1168.07,-52.1534 1089.47,-31.6682 1049.32,-21.7048"/>
<polygon fill="green" stroke="green" stroke-width="0.287836" points="1050.1,-18.2906 1039.55,-19.2983 1048.42,-25.0876 1050.1,-18.2906"/>
</g>
<!-- &#45;10&#45;&gt;2 -->
<g id="edge39" class="edge"><title>&#45;10&#45;&gt;2</title>
<path fill="none" stroke="red" stroke-width="0.11118" d="M1212.05,-77.8746C1205.57,-67.7908 1194.23,-50.1351 1185.31,-36.233"/>
<polygon fill="red" stroke="red" stroke-width="0.11118" points="1188.21,-34.2792 1179.86,-27.7567 1182.32,-38.0622 1188.21,-34.2792"/>
</g>
<!-- &#45;10&#45;&gt;3 -->
<g id="edge40" class="edge"><title>&#45;10&#45;&gt;3</title>
<path fill="none" stroke="green" stroke-width="0.251663" d="M1208.18,-77.6366C1203.81,-73.8089 1198.39,-69.3192 1193.21,-65.6985 1172.15,-50.9707 1146.44,-36.6487 1128.45,-27.1639"/>
<polygon fill="green" stroke="green" stroke-width="0.251663" points="1129.82,-23.9298 1119.33,-22.4204 1126.59,-30.1399 1129.82,-23.9298"/>
</g>
<!-- &#45;11 -->
<g id="node11" class="node"><title>&#45;11</title>
<polygon fill="lightgray" stroke="black" points="288.713,-95.9117 259.713,-95.9117 259.713,-77.9117 288.713,-77.9117 288.713,-95.9117"/>
<text text-anchor="middle" x="274.213" y="-84.7117" font-family="Times New Roman,serif" font-size="9.00">&#45;11</text>
</g>
<!-- &#45;11&#45;&gt;0 -->
<g id="edge41" class="edge"><title>&#45;11&#45;&gt;0</title>
<path fill="none" stroke="red" stroke-width="0.164684" d="M281.009,-77.7826C285.19,-73.3884 290.94,-68.3351 297.213,-65.6985 415.887,-15.8164 830.187,-14.9809 936.958,-15.6217"/>
<polygon fill="red" stroke="red" stroke-width="0.164684" points="937.087,-19.1226 947.112,-15.6932 937.137,-12.1228 937.087,-19.1226"/>
</g>
<!-- &#45;11&#45;&gt;1 -->
<g id="edge42" class="edge"><title>&#45;11&#45;&gt;1</title>
<path fill="none" stroke="red" stroke-width="0.42865" d="M280.987,-77.7292C285.161,-73.3173 290.911,-68.264 297.213,-65.6985 439.218,-7.89049 835.85,-59.664 986.213,-29.6985 991.538,-28.6374 997.117,-26.9961 1002.34,-25.2096"/>
<polygon fill="red" stroke="red" stroke-width="0.42865" points="1003.61,-28.4698 1011.77,-21.7095 1001.18,-21.9071 1003.61,-28.4698"/>
</g>
<!-- &#45;11&#45;&gt;3 -->
<g id="edge43" class="edge"><title>&#45;11&#45;&gt;3</title>
<path fill="none" stroke="green" stroke-width="0.138327" d="M280.982,-77.7189C285.155,-73.3036 290.905,-68.2503 297.213,-65.6985 452.306,-2.95694 883.621,-53.5567 1049.21,-29.6985 1060.14,-28.1248 1072.02,-25.4021 1082.1,-22.7849"/>
<polygon fill="green" stroke="green" stroke-width="0.138327" points="1083.1,-26.1413 1091.84,-20.1484 1081.27,-19.3848 1083.1,-26.1413"/>
</g>
<!-- &#45;12 -->
<g id="node12" class="node"><title>&#45;12</title>
<polygon fill="lightgray" stroke="black" points="1278.71,-95.9117 1249.71,-95.9117 1249.71,-77.9117 1278.71,-77.9117 1278.71,-95.9117"/>
<text text-anchor="middle" x="1264.21" y="-84.7117" font-family="Times New Roman,serif" font-size="9.00">&#45;12</text>
</g>
<!-- &#45;12&#45;&gt;0 -->
<g id="edge44" class="edge"><title>&#45;12&#45;&gt;0</title>
<path fill="none" stroke="green" stroke-width="0.112936" d="M1256.94,-77.5469C1252.77,-73.3052 1247.19,-68.476 1241.21,-65.6985 1143.4,-20.2506 1105.85,-55.8663 1001.21,-29.6985 995.946,-28.3813 990.391,-26.6351 985.176,-24.8279"/>
<polygon fill="green" stroke="green" stroke-width="0.112936" points="986.327,-21.5222 975.733,-21.3743 983.922,-28.0963 986.327,-21.5222"/>
</g>
<!-- &#45;12&#45;&gt;1 -->
<g id="edge45" class="edge"><title>&#45;12&#45;&gt;1</title>
<path fill="none" stroke="green" stroke-width="0.143414" d="M1256.86,-77.7212C1252.66,-73.5306 1247.08,-68.6946 1241.21,-65.6985 1176.67,-32.7663 1152.75,-46.2524 1082.21,-29.6985 1071.47,-27.1773 1059.61,-24.3092 1049.5,-21.8395"/>
<polygon fill="green" stroke="green" stroke-width="0.143414" points="1050.27,-18.4241 1039.72,-19.4413 1048.6,-25.2226 1050.27,-18.4241"/>
</g>
<!-- &#45;12&#45;&gt;2 -->
<g id="edge46" class="edge"><title>&#45;12&#45;&gt;2</title>
<path fill="none" stroke="red" stroke-width="0.207624" d="M1255.43,-77.8381C1251.21,-74.0545 1246.03,-69.5438 1241.21,-65.6985 1225.29,-52.9984 1206.52,-39.5257 1192.57,-29.7927"/>
<polygon fill="red" stroke="red" stroke-width="0.207624" points="1194.4,-26.8007 1184.19,-23.9825 1190.41,-32.5546 1194.4,-26.8007"/>
</g>
<!-- &#45;12&#45;&gt;3 -->
<g id="edge47" class="edge"><title>&#45;12&#45;&gt;3</title>
<path fill="none" stroke="red" stroke-width="0.388426" d="M1256.28,-77.6235C1252.09,-73.6092 1246.69,-68.9638 1241.21,-65.6985 1231.35,-59.8204 1166.02,-36.6746 1129.99,-24.0951"/>
<polygon fill="red" stroke="red" stroke-width="0.388426" points="1130.85,-20.6887 1120.25,-20.7055 1128.55,-27.2994 1130.85,-20.6887"/>
</g>
<!-- &#45;13 -->
<g id="node13" class="node"><title>&#45;13</title>
<polygon fill="lightgray" stroke="black" points="241.713,-95.9117 212.713,-95.9117 212.713,-77.9117 241.713,-77.9117 241.713,-95.9117"/>
<text text-anchor="middle" x="227.213" y="-84.7117" font-family="Times New Roman,serif" font-size="9.00">&#45;13</text>
</g>
<!-- &#45;13&#45;&gt;0 -->
<g id="edge48" class="edge"><title>&#45;13&#45;&gt;0</title>
<path fill="none" stroke="green" stroke-width="0.208657" d="M234.004,-77.771C238.184,-73.373 243.934,-68.3197 250.213,-65.6985 378.041,-12.3383 825.641,-14.1599 936.987,-15.4776"/>
<polygon fill="green" stroke="green" stroke-width="0.208657" points="937.198,-18.9805 947.242,-15.6093 937.288,-11.9811 937.198,-18.9805"/>
</g>
<!-- &#45;13&#45;&gt;1 -->
<g id="edge49" class="edge"><title>&#45;13&#45;&gt;1</title>
<path fill="none" stroke="red" stroke-width="0.205823" stroke-dasharray="1,5" d="M233.983,-77.7214C238.157,-73.3068 243.907,-68.2535 250.213,-65.6985 401.981,-4.20998 825.567,-61.4354 986.213,-29.6985 991.539,-28.6462 997.119,-27.0086 1002.34,-25.2228"/>
<polygon fill="red" stroke="red" stroke-width="0.205823" points="1003.61,-28.4827 1011.77,-21.7211 1001.18,-21.9204 1003.61,-28.4827"/>
</g>
<!-- &#45;13&#45;&gt;3 -->
<g id="edge50" class="edge"><title>&#45;13&#45;&gt;3</title>
<path fill="none" stroke="green" stroke-width="0.392455" d="M233.98,-77.7123C238.152,-73.2947 243.902,-68.2414 250.213,-65.6985 415.071,0.724151 873.259,-54.7974 1049.21,-29.6985 1060.14,-28.1402 1072.03,-25.4198 1082.11,-22.8002"/>
<polygon fill="green" stroke="green" stroke-width="0.392455" points="1083.1,-26.1561 1091.84,-20.1599 1081.27,-19.4003 1083.1,-26.1561"/>
</g>
<!-- &#45;14 -->
<g id="node14" class="node"><title>&#45;14</title>
<polygon fill="lightgray" stroke="black" points="160.713,-162.125 131.713,-162.125 131.713,-144.125 160.713,-144.125 160.713,-162.125"/>
<text text-anchor="middle" x="146.213" y="-150.925" font-family="Times New Roman,serif" font-size="9.00">&#45;14</text>
</g>
<!-- &#45;14&#45;&gt;0 -->
<g id="edge51" class="edge"><title>&#45;14&#45;&gt;0</title>
<path fill="none" stroke="green" stroke-width="0.269881" stroke-dasharray="1,5" d="M131.676,-144.604C119.137,-137.213 101.876,-124.646 94.2132,-108.125 86.2795,-91.019 81.2677,-79.4087 94.2132,-65.6985 123.946,-34.2094 798.165,-19.1127 937.253,-16.3278"/>
<polygon fill="green" stroke="green" stroke-width="0.269881" points="937.423,-19.8252 947.352,-16.1285 937.285,-12.8266 937.423,-19.8252"/>
</g>
<!-- &#45;14&#45;&gt;1 -->
<g id="edge52" class="edge"><title>&#45;14&#45;&gt;1</title>
<path fill="none" stroke="green" stroke-width="0.711749" d="M145.646,-144.048C144.912,-126.514 145.962,-84.991 170.213,-65.6985 241.235,-9.19822 897.137,-47.0748 986.213,-29.6985 991.542,-28.659 997.123,-27.0265 1002.34,-25.2418"/>
<polygon fill="green" stroke="green" stroke-width="0.711749" points="1003.62,-28.5013 1011.77,-21.7378 1001.18,-21.9395 1003.62,-28.5013"/>
</g>
<!-- &#45;14&#45;&gt;2 -->
<g id="edge53" class="edge"><title>&#45;14&#45;&gt;2</title>
<path fill="none" stroke="red" stroke-width="0.29755" d="M160.773,-152.067C333.712,-151.344 1989.66,-143.502 2024.21,-108.125 2037.39,-94.6363 2037.15,-79.4157 2024.21,-65.6985 1995.1,-34.836 1335.97,-19.2933 1197.57,-16.3638"/>
<polygon fill="red" stroke="red" stroke-width="0.29755" points="1197.22,-12.856 1187.15,-16.1466 1197.08,-19.8545 1197.22,-12.856"/>
</g>
<!-- &#45;14&#45;&gt;3 -->
<g id="edge54" class="edge"><title>&#45;14&#45;&gt;3</title>
<path fill="none" stroke="red" stroke-width="0.429939" d="M160.936,-152.031C325.83,-150.943 1820.95,-140.201 1852.21,-108.125 1865.37,-94.6208 1865.2,-79.368 1852.21,-65.6985 1798.26,-8.91815 1225.2,-44.0909 1148.21,-29.6985 1142.02,-28.5416 1135.49,-26.7049 1129.47,-24.7426"/>
<polygon fill="red" stroke="red" stroke-width="0.429939" points="1130.56,-21.4173 1119.97,-21.4195 1128.25,-28.0248 1130.56,-21.4173"/>
</g>
<!-- 661 -->
<g id="node46" class="node"><title>661</title>
<ellipse fill="white" stroke="black" cx="21.2132" cy="-86.9117" rx="21.4286" ry="21.4286"/>
<text text-anchor="middle" x="21.2132" y="-84.7117" font-family="Times New Roman,serif" font-size="9.00">661</text>
</g>
<!-- &#45;14&#45;&gt;661 -->
<g id="edge159" class="edge"><title>&#45;14&#45;&gt;661</title>
<path fill="none" stroke="green" stroke-width="0.3" d="M131.403,-145.269C113.436,-136.863 82.3119,-122.02 56.2132,-108.125 53.5131,-106.687 50.7176,-105.153 47.9376,-103.597"/>
<polygon fill="green" stroke="green" stroke-width="0.3" points="49.6666,-100.554 39.2455,-98.6431 46.2003,-106.636 49.6666,-100.554"/>
</g>
<!-- &#45;15 -->
<g id="node15" class="node"><title>&#45;15</title>
<polygon fill="lightgray" stroke="black" points="1325.71,-95.9117 1296.71,-95.9117 1296.71,-77.9117 1325.71,-77.9117 1325.71,-95.9117"/>
<text text-anchor="middle" x="1311.21" y="-84.7117" font-family="Times New Roman,serif" font-size="9.00">&#45;15</text>
</g>
<!-- &#45;15&#45;&gt;0 -->
<g id="edge55" class="edge"><title>&#45;15&#45;&gt;0</title>
<path fill="none" stroke="red" stroke-width="0.183947" d="M1304.37,-77.8995C1300.17,-73.5443 1294.42,-68.491 1288.21,-65.6985 1170.98,-12.9397 1126.29,-59.3817 1001.21,-29.6985 995.931,-28.4449 990.369,-26.7247 985.153,-24.9227"/>
<polygon fill="red" stroke="red" stroke-width="0.183947" points="986.306,-21.6178 975.713,-21.4575 983.894,-28.1891 986.306,-21.6178"/>
</g>
<!-- &#45;15&#45;&gt;1 -->
<g id="edge56" class="edge"><title>&#45;15&#45;&gt;1</title>
<path fill="none" stroke="red" stroke-width="0.319628" d="M1303.92,-77.6042C1299.74,-73.3793 1294.16,-68.5479 1288.21,-65.6985 1204.4,-25.5224 1173.2,-48.6806 1082.21,-29.6985 1071.41,-27.4448 1059.54,-24.6176 1049.44,-22.1063"/>
<polygon fill="red" stroke="red" stroke-width="0.319628" points="1050.23,-18.6959 1039.68,-19.6409 1048.52,-25.4828 1050.23,-18.6959"/>
</g>
<!-- &#45;15&#45;&gt;2 -->
<g id="edge57" class="edge"><title>&#45;15&#45;&gt;2</title>
<path fill="none" stroke="green" stroke-width="0.295072" d="M1303.2,-77.7435C1299,-73.7599 1293.61,-69.1055 1288.21,-65.6985 1258.35,-46.8321 1220.12,-31.9647 1195.89,-23.5377"/>
<polygon fill="green" stroke="green" stroke-width="0.295072" points="1196.72,-20.1233 1186.12,-20.2277 1194.47,-26.7528 1196.72,-20.1233"/>
</g>
<!-- &#45;15&#45;&gt;3 -->
<g id="edge58" class="edge"><title>&#45;15&#45;&gt;3</title>
<path fill="none" stroke="red" stroke-width="0.143045" d="M1303.82,-77.7889C1299.62,-73.6181 1294.04,-68.7795 1288.21,-65.6985 1231.42,-35.6699 1209.87,-47.7682 1148.21,-29.6985 1142.17,-27.9277 1135.69,-25.8704 1129.67,-23.8918"/>
<polygon fill="red" stroke="red" stroke-width="0.143045" points="1130.73,-20.5562 1120.14,-20.7008 1128.51,-27.1942 1130.73,-20.5562"/>
</g>
<!-- &#45;16 -->
<g id="node16" class="node"><title>&#45;16</title>
<polygon fill="lightgray" stroke="black" points="1372.71,-95.9117 1343.71,-95.9117 1343.71,-77.9117 1372.71,-77.9117 1372.71,-95.9117"/>
<text text-anchor="middle" x="1358.21" y="-84.7117" font-family="Times New Roman,serif" font-size="9.00">&#45;16</text>
</g>
<!-- &#45;16&#45;&gt;0 -->
<g id="edge59" class="edge"><title>&#45;16&#45;&gt;0</title>
<path fill="none" stroke="green" stroke-width="0.355441" d="M1351.38,-77.8589C1347.19,-73.4902 1341.44,-68.4369 1335.21,-65.6985 1198.53,-5.61205 1146.78,-62.9065 1001.21,-29.6985 995.92,-28.4909 990.354,-26.7896 985.137,-24.9913"/>
<polygon fill="green" stroke="green" stroke-width="0.355441" points="986.292,-21.6871 975.699,-21.5178 983.874,-28.2563 986.292,-21.6871"/>
</g>
<!-- &#45;16&#45;&gt;1 -->
<g id="edge60" class="edge"><title>&#45;16&#45;&gt;1</title>
<path fill="none" stroke="green" stroke-width="0.298654" d="M1350.95,-77.5288C1346.79,-73.2819 1341.2,-68.4534 1335.21,-65.6985 1232.03,-18.2307 1193.75,-51.1315 1082.21,-29.6985 1071.38,-27.6161 1059.5,-24.8152 1049.41,-22.2773"/>
<polygon fill="green" stroke="green" stroke-width="0.298654" points="1050.21,-18.8697 1039.65,-19.7687 1048.47,-25.6491 1050.21,-18.8697"/>
</g>
<!-- &#45;16&#45;&gt;2 -->
<g id="edge61" class="edge"><title>&#45;16&#45;&gt;2</title>
<path fill="none" stroke="red" stroke-width="0.345673" d="M1350.77,-77.8931C1346.55,-73.7528 1340.97,-68.9101 1335.21,-65.6985 1289.94,-40.4392 1230.29,-26.4061 1197.15,-20.0637"/>
<polygon fill="red" stroke="red" stroke-width="0.345673" points="1197.45,-16.5609 1186.98,-18.2025 1196.19,-23.4464 1197.45,-16.5609"/>
</g>
<!-- &#45;16&#45;&gt;3 -->
<g id="edge62" class="edge"><title>&#45;16&#45;&gt;3</title>
<path fill="none" stroke="red" stroke-width="0.381274" d="M1350.9,-77.6448C1346.71,-73.4319 1341.13,-68.5988 1335.21,-65.6985 1259.21,-28.4586 1230.13,-50.9947 1148.21,-29.6985 1142.12,-28.1143 1135.62,-26.1241 1129.6,-24.1505"/>
<polygon fill="red" stroke="red" stroke-width="0.381274" points="1130.67,-20.8185 1120.08,-20.9193 1128.42,-27.4472 1130.67,-20.8185"/>
</g>
<!-- &#45;17 -->
<g id="node17" class="node"><title>&#45;17</title>
<polygon fill="lightgray" stroke="black" points="1419.71,-95.9117 1390.71,-95.9117 1390.71,-77.9117 1419.71,-77.9117 1419.71,-95.9117"/>
<text text-anchor="middle" x="1405.21" y="-84.7117" font-family="Times New Roman,serif" font-size="9.00">&#45;17</text>
</g>
<!-- &#45;17&#45;&gt;0 -->
<g id="edge63" class="edge"><title>&#45;17&#45;&gt;0</title>
<path fill="none" stroke="green" stroke-width="0.303797" d="M1398.4,-77.8281C1394.21,-73.4491 1388.46,-68.3958 1382.21,-65.6985 1226.06,1.72593 1167.29,-66.437 1001.21,-29.6985 995.912,-28.5258 990.343,-26.8388 985.125,-25.0433"/>
<polygon fill="green" stroke="green" stroke-width="0.303797" points="986.282,-21.7395 975.688,-21.5634 983.86,-28.3072 986.282,-21.7395"/>
</g>
<!-- &#45;17&#45;&gt;1 -->
<g id="edge64" class="edge"><title>&#45;17&#45;&gt;1</title>
<path fill="none" stroke="green" stroke-width="0.856428" d="M1398.37,-77.887C1394.18,-73.5277 1388.43,-68.4744 1382.21,-65.6985 1259.61,-10.9142 1214.36,-53.5936 1082.21,-29.6985 1071.35,-27.7349 1059.48,-24.9524 1049.39,-22.3959"/>
<polygon fill="green" stroke="green" stroke-width="0.856428" points="1050.2,-18.9902 1039.64,-19.8574 1048.43,-25.7644 1050.2,-18.9902"/>
</g>
<!-- &#45;17&#45;&gt;2 -->
<g id="edge65" class="edge"><title>&#45;17&#45;&gt;2</title>
<path fill="none" stroke="red" stroke-width="0.281131" d="M1397.85,-77.7455C1393.65,-73.562 1388.07,-68.7251 1382.21,-65.6985 1320.47,-33.7848 1237.95,-21.9475 1197.18,-17.8479"/>
<polygon fill="red" stroke="red" stroke-width="0.281131" points="1197.34,-14.3485 1187.06,-16.9059 1196.69,-21.3183 1197.34,-14.3485"/>
</g>
<!-- &#45;17&#45;&gt;3 -->
<g id="edge66" class="edge"><title>&#45;17&#45;&gt;3</title>
<path fill="none" stroke="green" stroke-width="0.295294" d="M1397.94,-77.5558C1393.77,-73.3168 1388.19,-68.4872 1382.21,-65.6985 1286.87,-21.1822 1250.53,-54.2587 1148.21,-29.6985 1142.09,-28.229 1135.58,-26.2799 1129.56,-24.3093"/>
<polygon fill="green" stroke="green" stroke-width="0.295294" points="1130.64,-20.9794 1120.05,-21.0535 1128.37,-27.6024 1130.64,-20.9794"/>
</g>
<!-- &#45;18 -->
<g id="node18" class="node"><title>&#45;18</title>
<polygon fill="lightgray" stroke="black" points="1971.71,-162.125 1942.71,-162.125 1942.71,-144.125 1971.71,-144.125 1971.71,-162.125"/>
<text text-anchor="middle" x="1957.21" y="-150.925" font-family="Times New Roman,serif" font-size="9.00">&#45;18</text>
</g>
<!-- &#45;18&#45;&gt;0 -->
<g id="edge67" class="edge"><title>&#45;18&#45;&gt;0</title>
<path fill="none" stroke="red" stroke-width="0.215636" d="M1942.46,-152.045C1773.96,-151.096 218.712,-141.442 186.213,-108.125 173.046,-94.627 173.314,-79.4526 186.213,-65.6985 212.516,-37.6514 806.768,-20.0401 937.097,-16.5072"/>
<polygon fill="red" stroke="red" stroke-width="0.215636" points="937.382,-20.0009 947.285,-16.2342 937.195,-13.0034 937.382,-20.0009"/>
</g>
<!-- &#45;18&#45;&gt;1 -->
<g id="edge68" class="edge"><title>&#45;18&#45;&gt;1</title>
<path fill="none" stroke="green" stroke-width="0.175622" d="M1942.6,-152.042C1775.72,-151.062 235.397,-141.126 203.213,-108.125 81.1213,17.0682 814.609,-63.3392 986.213,-29.6985 991.541,-28.654 997.121,-27.0196 1002.34,-25.2344"/>
<polygon fill="green" stroke="green" stroke-width="0.175622" points="1003.62,-28.4941 1011.77,-21.7313 1001.18,-21.9321 1003.62,-28.4941"/>
</g>
<!-- &#45;18&#45;&gt;2 -->
<g id="edge69" class="edge"><title>&#45;18&#45;&gt;2</title>
<path fill="none" stroke="green" stroke-width="0.234945" d="M1971.97,-150.577C1994.83,-147.296 2038.14,-137.353 2057.21,-108.125 2067.52,-92.3333 2070.17,-79.4016 2057.21,-65.6985 2026.88,-33.6113 1339.47,-18.989 1197.66,-16.3086"/>
<polygon fill="green" stroke="green" stroke-width="0.234945" points="1197.43,-12.8038 1187.36,-16.117 1197.3,-19.8025 1197.43,-12.8038"/>
</g>
<!-- &#45;18&#45;&gt;3 -->
<g id="edge70" class="edge"><title>&#45;18&#45;&gt;3</title>
<path fill="none" stroke="red" stroke-width="0.152653" d="M1958.28,-144.108C1960.11,-126.693 1961.6,-85.3929 1938.21,-65.6985 1871.01,-9.09394 1234.63,-45.6048 1148.21,-29.6985 1142.02,-28.5588 1135.49,-26.7283 1129.46,-24.7664"/>
<polygon fill="red" stroke="red" stroke-width="0.152653" points="1130.56,-21.4413 1119.96,-21.4396 1128.25,-28.048 1130.56,-21.4413"/>
</g>
<!-- 181 -->
<g id="node45" class="node"><title>181</title>
<ellipse fill="white" stroke="black" cx="2130.21" cy="-86.9117" rx="21.4286" ry="21.4286"/>
<text text-anchor="middle" x="2130.21" y="-84.7117" font-family="Times New Roman,serif" font-size="9.00">181</text>
</g>
<!-- &#45;18&#45;&gt;181 -->
<g id="edge157" class="edge"><title>&#45;18&#45;&gt;181</title>
<path fill="none" stroke="red" stroke-width="0.296754" d="M1972.1,-148.506C1997.82,-142.008 2051.97,-127.237 2095.21,-108.125 2097.92,-106.928 2100.69,-105.577 2103.42,-104.155"/>
<polygon fill="red" stroke="red" stroke-width="0.296754" points="2105.38,-107.069 2112.44,-99.1661 2101.99,-100.944 2105.38,-107.069"/>
</g>
<!-- &#45;19 -->
<g id="node19" class="node"><title>&#45;19</title>
<polygon fill="lightgray" stroke="black" points="1466.71,-95.9117 1437.71,-95.9117 1437.71,-77.9117 1466.71,-77.9117 1466.71,-95.9117"/>
<text text-anchor="middle" x="1452.21" y="-84.7117" font-family="Times New Roman,serif" font-size="9.00">&#45;19</text>
</g>
<!-- &#45;19&#45;&gt;0 -->
<g id="edge71" class="edge"><title>&#45;19&#45;&gt;0</title>
<path fill="none" stroke="green" stroke-width="0.512874" d="M1445.41,-77.8039C1441.22,-73.4169 1435.47,-68.3636 1429.21,-65.6985 1253.57,9.07076 1187.81,-69.9713 1001.21,-29.6985 995.906,-28.5531 990.334,-26.8773 985.116,-25.0839"/>
<polygon fill="green" stroke="green" stroke-width="0.512874" points="986.274,-21.7805 975.681,-21.5991 983.849,-28.347 986.274,-21.7805"/>
</g>
<!-- &#45;19&#45;&gt;1 -->
<g id="edge72" class="edge"><title>&#45;19&#45;&gt;1</title>
<path fill="none" stroke="green" stroke-width="0.223265" stroke-dasharray="1,5" d="M1445.39,-77.8495C1441.2,-73.4777 1435.45,-68.4244 1429.21,-65.6985 1287.15,-3.58325 1235.01,-56.0622 1082.21,-29.6985 1071.34,-27.8222 1059.46,-25.053 1049.37,-22.4829"/>
<polygon fill="green" stroke="green" stroke-width="0.223265" points="1050.19,-19.0786 1039.63,-19.9225 1048.41,-25.8488 1050.19,-19.0786"/>
</g>
<!-- &#45;19&#45;&gt;2 -->
<g id="edge73" class="edge"><title>&#45;19&#45;&gt;2</title>
<path fill="none" stroke="red" stroke-width="0.197655" d="M1444.89,-77.6481C1440.71,-73.4361 1435.13,-68.603 1429.21,-65.6985 1350.67,-27.1472 1244.93,-18.387 1197.31,-16.4131"/>
<polygon fill="red" stroke="red" stroke-width="0.197655" points="1197.39,-12.914 1187.28,-16.0645 1197.15,-19.9098 1197.39,-12.914"/>
</g>
<!-- &#45;19&#45;&gt;3 -->
<g id="edge74" class="edge"><title>&#45;19&#45;&gt;3</title>
<path fill="none" stroke="red" stroke-width="0.232699" d="M1445.36,-77.9056C1441.16,-73.5525 1435.41,-68.4992 1429.21,-65.6985 1314.46,-13.8741 1271.01,-57.5403 1148.21,-29.6985 1142.07,-28.3063 1135.56,-26.3851 1129.54,-24.4165"/>
<polygon fill="red" stroke="red" stroke-width="0.232699" points="1130.62,-21.0878 1120.02,-21.144 1128.34,-27.707 1130.62,-21.0878"/>
</g>
<!-- &#45;20 -->
<g id="node20" class="node"><title>&#45;20</title>
<polygon fill="lightgray" stroke="black" points="1928.71,-95.9117 1899.71,-95.9117 1899.71,-77.9117 1928.71,-77.9117 1928.71,-95.9117"/>
<text text-anchor="middle" x="1914.21" y="-84.7117" font-family="Times New Roman,serif" font-size="9.00">&#45;20</text>
</g>
<!-- &#45;20&#45;&gt;1 -->
<g id="edge75" class="edge"><title>&#45;20&#45;&gt;1</title>
<path fill="none" stroke="green" stroke-width="0.209805" stroke-dasharray="1,5" d="M1899.22,-79.7645C1886.84,-74.9984 1868.7,-68.7137 1852.21,-65.6985 1515.21,-4.04805 1421.34,-78.3652 1082.21,-29.6985 1071.29,-28.1309 1059.4,-25.4091 1049.32,-22.791"/>
<polygon fill="green" stroke="green" stroke-width="0.209805" points="1050.16,-19.391 1039.59,-20.153 1048.33,-26.1472 1050.16,-19.391"/>
</g>
<!-- &#45;20&#45;&gt;2 -->
<g id="edge76" class="edge"><title>&#45;20&#45;&gt;2</title>
<path fill="none" stroke="red" stroke-width="0.451947" d="M1905.27,-77.7657C1899.87,-73.366 1892.62,-68.3127 1885.21,-65.6985 1754.41,-19.537 1308.27,-15.9836 1197.34,-15.8241"/>
<polygon fill="red" stroke="red" stroke-width="0.451947" points="1197.13,-12.3241 1187.12,-15.8181 1197.12,-19.3241 1197.13,-12.3241"/>
</g>
<!-- &#45;20&#45;&gt;3 -->
<g id="edge77" class="edge"><title>&#45;20&#45;&gt;3</title>
<path fill="none" stroke="green" stroke-width="0.393528" d="M1905.29,-77.7073C1899.9,-73.2881 1892.65,-68.2348 1885.21,-65.6985 1730.02,-12.7564 1309.43,-59.6451 1148.21,-29.6985 1142.02,-28.5487 1135.49,-26.7145 1129.47,-24.7524"/>
<polygon fill="green" stroke="green" stroke-width="0.393528" points="1130.56,-21.4271 1119.97,-21.4277 1128.25,-28.0343 1130.56,-21.4271"/>
</g>
<!-- &#45;21 -->
<g id="node21" class="node"><title>&#45;21</title>
<polygon fill="lightgray" stroke="black" points="1513.71,-95.9117 1484.71,-95.9117 1484.71,-77.9117 1513.71,-77.9117 1513.71,-95.9117"/>
<text text-anchor="middle" x="1499.21" y="-84.7117" font-family="Times New Roman,serif" font-size="9.00">&#45;21</text>
</g>
<!-- &#45;21&#45;&gt;0 -->
<g id="edge78" class="edge"><title>&#45;21&#45;&gt;0</title>
<path fill="none" stroke="red" stroke-width="0.347843" d="M1492.42,-77.7845C1488.23,-73.391 1482.48,-68.3377 1476.21,-65.6985 1378.64,-24.6391 1104.78,-51.6033 1001.21,-29.6985 995.901,-28.575 990.328,-26.9082 985.109,-25.1167"/>
<polygon fill="red" stroke="red" stroke-width="0.347843" points="986.268,-21.8135 975.674,-21.6279 983.84,-28.379 986.268,-21.8135"/>
</g>
<!-- &#45;21&#45;&gt;1 -->
<g id="edge79" class="edge"><title>&#45;21&#45;&gt;1</title>
<path fill="none" stroke="green" stroke-width="0.243449" d="M1492.4,-77.8208C1488.21,-73.4395 1482.46,-68.3862 1476.21,-65.6985 1314.67,3.7569 1255.67,-58.5346 1082.21,-29.6985 1071.33,-27.8888 1059.44,-25.1299 1049.36,-22.5495"/>
<polygon fill="green" stroke="green" stroke-width="0.243449" points="1050.18,-19.1461 1039.62,-19.9723 1048.39,-25.9134 1050.18,-19.1461"/>
</g>
<!-- &#45;21&#45;&gt;2 -->
<g id="edge80" class="edge"><title>&#45;21&#45;&gt;2</title>
<path fill="none" stroke="red" stroke-width="0.137398" stroke-dasharray="1,5" d="M1491.93,-77.5793C1487.75,-73.3472 1482.17,-68.5167 1476.21,-65.6985 1380.55,-20.4545 1251.15,-15.3703 1197.32,-15.3943"/>
<polygon fill="red" stroke="red" stroke-width="0.137398" points="1197.28,-11.8943 1187.31,-15.4605 1197.33,-18.8942 1197.28,-11.8943"/>
</g>
<!-- &#45;21&#45;&gt;3 -->
<g id="edge81" class="edge"><title>&#45;21&#45;&gt;3</title>
<path fill="none" stroke="red" stroke-width="0.410485" d="M1492.38,-77.8634C1488.19,-73.4962 1482.44,-68.4429 1476.21,-65.6985 1342.02,-6.54816 1291.52,-60.8315 1148.21,-29.6985 1142.06,-28.3619 1135.54,-26.4607 1129.52,-24.4936"/>
<polygon fill="red" stroke="red" stroke-width="0.410485" points="1130.61,-21.1658 1120.01,-21.2091 1128.32,-27.7822 1130.61,-21.1658"/>
</g>
<!-- &#45;22 -->
<g id="node22" class="node"><title>&#45;22</title>
<polygon fill="lightgray" stroke="black" points="1560.71,-95.9117 1531.71,-95.9117 1531.71,-77.9117 1560.71,-77.9117 1560.71,-95.9117"/>
<text text-anchor="middle" x="1546.21" y="-84.7117" font-family="Times New Roman,serif" font-size="9.00">&#45;22</text>
</g>
<!-- &#45;22&#45;&gt;0 -->
<g id="edge82" class="edge"><title>&#45;22&#45;&gt;0</title>
<path fill="none" stroke="red" stroke-width="0.291253" d="M1539.42,-77.7685C1535.24,-73.3697 1529.49,-68.3164 1523.21,-65.6985 1415.89,-20.9625 1115.05,-53.3727 1001.21,-29.6985 995.898,-28.5931 990.322,-26.9336 985.104,-25.1435"/>
<polygon fill="red" stroke="red" stroke-width="0.291253" points="986.263,-21.8406 975.67,-21.6515 983.833,-28.4053 986.263,-21.8406"/>
</g>
<!-- &#45;22&#45;&gt;1 -->
<g id="edge83" class="edge"><title>&#45;22&#45;&gt;1</title>
<path fill="none" stroke="red" stroke-width="0.256449" d="M1539.41,-77.7982C1535.23,-73.4092 1529.48,-68.3559 1523.21,-65.6985 1432.7,-27.2976 1179.28,-45.354 1082.21,-29.6985 1071.32,-27.9415 1059.43,-25.1906 1049.35,-22.602"/>
<polygon fill="red" stroke="red" stroke-width="0.256449" points="1050.17,-19.1994 1039.61,-20.0116 1048.38,-25.9642 1050.17,-19.1994"/>
</g>
<!-- &#45;22&#45;&gt;2 -->
<g id="edge84" class="edge"><title>&#45;22&#45;&gt;2</title>
<path fill="none" stroke="green" stroke-width="0.402282" d="M1538.95,-77.5282C1534.79,-73.2811 1529.2,-68.4526 1523.21,-65.6985 1464.69,-38.7863 1267.24,-22.5585 1197.15,-17.5337"/>
<polygon fill="green" stroke="green" stroke-width="0.402282" points="1197.25,-14.0327 1187.03,-16.8236 1196.76,-21.0155 1197.25,-14.0327"/>
</g>
<!-- &#45;22&#45;&gt;3 -->
<g id="edge85" class="edge"><title>&#45;22&#45;&gt;3</title>
<path fill="none" stroke="green" stroke-width="0.612314" d="M1539.4,-77.8316C1535.21,-73.4538 1529.46,-68.4005 1523.21,-65.6985 1369.55,0.788727 1312.07,-64.1284 1148.21,-29.6985 1142.05,-28.4038 1135.53,-26.5177 1129.51,-24.5517"/>
<polygon fill="green" stroke="green" stroke-width="0.612314" points="1130.59,-21.2245 1120,-21.2582 1128.3,-27.8388 1130.59,-21.2245"/>
</g>
<!-- &#45;23 -->
<g id="node23" class="node"><title>&#45;23</title>
<polygon fill="lightgray" stroke="black" points="1607.71,-95.9117 1578.71,-95.9117 1578.71,-77.9117 1607.71,-77.9117 1607.71,-95.9117"/>
<text text-anchor="middle" x="1593.21" y="-84.7117" font-family="Times New Roman,serif" font-size="9.00">&#45;23</text>
</g>
<!-- &#45;23&#45;&gt;0 -->
<g id="edge86" class="edge"><title>&#45;23&#45;&gt;0</title>
<path fill="none" stroke="green" stroke-width="0.182347" d="M1586.43,-77.7552C1582.25,-73.3519 1576.5,-68.2986 1570.21,-65.6985 1453.13,-17.2847 1125.33,-55.1427 1001.21,-29.6985 995.895,-28.6082 990.318,-26.9549 985.099,-25.166"/>
<polygon fill="green" stroke="green" stroke-width="0.182347" points="986.259,-21.8632 975.665,-21.6712 983.827,-28.4272 986.259,-21.8632"/>
</g>
<!-- &#45;23&#45;&gt;1 -->
<g id="edge87" class="edge"><title>&#45;23&#45;&gt;1</title>
<path fill="none" stroke="green" stroke-width="0.324333" d="M1586.42,-77.7798C1582.24,-73.3847 1576.49,-68.3314 1570.21,-65.6985 1469.94,-23.6223 1189.63,-46.5924 1082.21,-29.6985 1071.31,-27.9841 1059.43,-25.2397 1049.34,-22.6445"/>
<polygon fill="green" stroke="green" stroke-width="0.324333" points="1050.17,-19.2425 1039.61,-20.0434 1048.36,-26.0054 1050.17,-19.2425"/>
</g>
<!-- &#45;23&#45;&gt;2 -->
<g id="edge88" class="edge"><title>&#45;23&#45;&gt;2</title>
<path fill="none" stroke="red" stroke-width="0.769451" d="M1586.37,-77.899C1582.17,-73.5437 1576.42,-68.4904 1570.21,-65.6985 1502.88,-35.4009 1273.98,-21.0915 1197.4,-17.0727"/>
<polygon fill="red" stroke="red" stroke-width="0.769451" points="1197.41,-13.5687 1187.25,-16.5537 1197.05,-20.5596 1197.41,-13.5687"/>
</g>
<!-- &#45;23&#45;&gt;3 -->
<g id="edge89" class="edge"><title>&#45;23&#45;&gt;3</title>
<path fill="none" stroke="green" stroke-width="0.391055" d="M1586.41,-77.8067C1582.22,-73.4206 1576.47,-68.3673 1570.21,-65.6985 1397.06,8.13282 1332.63,-67.4291 1148.21,-29.6985 1142.05,-28.4365 1135.52,-26.5621 1129.5,-24.597"/>
<polygon fill="green" stroke="green" stroke-width="0.391055" points="1130.59,-21.2703 1119.99,-21.2965 1128.29,-27.883 1130.59,-21.2703"/>
</g>
<!-- &#45;24 -->
<g id="node24" class="node"><title>&#45;24</title>
<polygon fill="lightgray" stroke="black" points="1654.71,-95.9117 1625.71,-95.9117 1625.71,-77.9117 1654.71,-77.9117 1654.71,-95.9117"/>
<text text-anchor="middle" x="1640.21" y="-84.7117" font-family="Times New Roman,serif" font-size="9.00">&#45;24</text>
</g>
<!-- &#45;24&#45;&gt;0 -->
<g id="edge90" class="edge"><title>&#45;24&#45;&gt;0</title>
<path fill="none" stroke="red" stroke-width="0.632198" d="M1633.43,-77.7438C1629.26,-73.3368 1623.51,-68.2835 1617.21,-65.6985 1490.37,-13.6059 1135.61,-56.9132 1001.21,-29.6985 995.892,-28.6209 990.314,-26.9729 985.095,-25.1851"/>
<polygon fill="red" stroke="red" stroke-width="0.632198" points="986.255,-21.8824 975.662,-21.688 983.822,-28.4459 986.255,-21.8824"/>
</g>
<!-- &#45;24&#45;&gt;1 -->
<g id="edge91" class="edge"><title>&#45;24&#45;&gt;1</title>
<path fill="none" stroke="red" stroke-width="0.396042" d="M1633.43,-77.7646C1629.25,-73.3645 1623.5,-68.3112 1617.21,-65.6985 1507.19,-19.9454 1199.98,-47.8314 1082.21,-29.6985 1071.31,-28.0192 1059.42,-25.2802 1049.34,-22.6795"/>
<polygon fill="red" stroke="red" stroke-width="0.396042" points="1050.17,-19.278 1039.6,-20.0696 1048.35,-26.0394 1050.17,-19.278"/>
</g>
<!-- &#45;24&#45;&gt;2 -->
<g id="edge92" class="edge"><title>&#45;24&#45;&gt;2</title>
<path fill="none" stroke="green" stroke-width="0.203034" stroke-dasharray="1,5" d="M1633.38,-77.8686C1629.19,-73.5032 1623.44,-68.4499 1617.21,-65.6985 1540.91,-31.9635 1279.75,-19.7553 1197.34,-16.6908"/>
<polygon fill="green" stroke="green" stroke-width="0.203034" points="1197.26,-13.1859 1187.14,-16.325 1197.01,-20.1814 1197.26,-13.1859"/>
</g>
<!-- &#45;24&#45;&gt;3 -->
<g id="edge93" class="edge"><title>&#45;24&#45;&gt;3</title>
<path fill="none" stroke="red" stroke-width="0.349784" stroke-dasharray="1,5" d="M1633.42,-77.7868C1629.23,-73.394 1623.48,-68.3407 1617.21,-65.6985 1520.89,-25.1083 1250.71,-50.2154 1148.21,-29.6985 1142.04,-28.4627 1135.51,-26.5977 1129.49,-24.6333"/>
<polygon fill="red" stroke="red" stroke-width="0.349784" points="1130.58,-21.3069 1119.99,-21.3271 1128.28,-27.9184 1130.58,-21.3069"/>
</g>
<!-- &#45;25 -->
<g id="node25" class="node"><title>&#45;25</title>
<polygon fill="lightgray" stroke="black" points="1701.71,-95.9117 1672.71,-95.9117 1672.71,-77.9117 1701.71,-77.9117 1701.71,-95.9117"/>
<text text-anchor="middle" x="1687.21" y="-84.7117" font-family="Times New Roman,serif" font-size="9.00">&#45;25</text>
</g>
<!-- &#45;25&#45;&gt;0 -->
<g id="edge94" class="edge"><title>&#45;25&#45;&gt;0</title>
<path fill="none" stroke="red" stroke-width="0.15112" d="M1680.44,-77.7341C1676.26,-73.3238 1670.51,-68.2705 1664.21,-65.6985 1527.61,-9.92628 1145.89,-58.6842 1001.21,-29.6985 995.89,-28.6319 990.311,-26.9884 985.092,-25.2015"/>
<polygon fill="red" stroke="red" stroke-width="0.15112" points="986.252,-21.8989 975.659,-21.7023 983.818,-28.4619 986.252,-21.8989"/>
</g>
<!-- &#45;25&#45;&gt;1 -->
<g id="edge95" class="edge"><title>&#45;25&#45;&gt;1</title>
<path fill="none" stroke="red" stroke-width="0.181425" d="M1680.43,-77.7519C1676.25,-73.3475 1670.5,-68.2942 1664.21,-65.6985 1544.43,-16.2672 1210.34,-49.0709 1082.21,-29.6985 1071.3,-28.0487 1059.42,-25.3143 1049.33,-22.709"/>
<polygon fill="red" stroke="red" stroke-width="0.181425" points="1050.16,-19.3079 1039.6,-20.0916 1048.35,-26.0679 1050.16,-19.3079"/>
</g>
<!-- &#45;25&#45;&gt;2 -->
<g id="edge96" class="edge"><title>&#45;25&#45;&gt;2</title>
<path fill="none" stroke="red" stroke-width="0.211819" stroke-dasharray="1,5" d="M1680.39,-77.8439C1676.2,-73.4702 1670.45,-68.4169 1664.21,-65.6985 1578.92,-28.5294 1285.41,-18.5664 1197.37,-16.3845"/>
<polygon fill="red" stroke="red" stroke-width="0.211819" points="1197.32,-12.8823 1187.24,-16.1457 1197.15,-19.8803 1197.32,-12.8823"/>
</g>
<!-- &#45;25&#45;&gt;3 -->
<g id="edge97" class="edge"><title>&#45;25&#45;&gt;3</title>
<path fill="none" stroke="green" stroke-width="0.186168" d="M1680.42,-77.7704C1676.24,-73.3722 1670.49,-68.3189 1664.21,-65.6985 1558.13,-21.4319 1261,-51.8679 1148.21,-29.6985 1142.04,-28.4842 1135.51,-26.6269 1129.48,-24.6631"/>
<polygon fill="green" stroke="green" stroke-width="0.186168" points="1130.58,-21.337 1119.98,-21.3523 1128.27,-27.9473 1130.58,-21.337"/>
</g>
<!-- &#45;26 -->
<g id="node26" class="node"><title>&#45;26</title>
<polygon fill="lightgray" stroke="black" points="1748.71,-95.9117 1719.71,-95.9117 1719.71,-77.9117 1748.71,-77.9117 1748.71,-95.9117"/>
<text text-anchor="middle" x="1734.21" y="-84.7117" font-family="Times New Roman,serif" font-size="9.00">&#45;26</text>
</g>
<!-- &#45;26&#45;&gt;0 -->
<g id="edge98" class="edge"><title>&#45;26&#45;&gt;0</title>
<path fill="none" stroke="red" stroke-width="0.210403" stroke-dasharray="1,5" d="M1727.44,-77.7256C1723.27,-73.3125 1717.52,-68.2592 1711.21,-65.6985 1564.85,-6.24607 1156.17,-60.4555 1001.21,-29.6985 995.888,-28.6415 990.308,-27.0019 985.089,-25.2157"/>
<polygon fill="red" stroke="red" stroke-width="0.210403" points="986.25,-21.9132 975.657,-21.7148 983.814,-28.4758 986.25,-21.9132"/>
</g>
<!-- &#45;26&#45;&gt;1 -->
<g id="edge99" class="edge"><title>&#45;26&#45;&gt;1</title>
<path fill="none" stroke="red" stroke-width="0.518759" d="M1727.44,-77.741C1723.26,-73.333 1717.51,-68.2797 1711.21,-65.6985 1581.67,-12.5882 1220.69,-50.3108 1082.21,-29.6985 1071.3,-28.0739 1059.41,-25.3433 1049.33,-22.7341"/>
<polygon fill="red" stroke="red" stroke-width="0.518759" points="1050.16,-19.3333 1039.6,-20.1104 1048.34,-26.0921 1050.16,-19.3333"/>
</g>
<!-- &#45;26&#45;&gt;2 -->
<g id="edge100" class="edge"><title>&#45;26&#45;&gt;2</title>
<path fill="none" stroke="red" stroke-width="0.315631" d="M1727.4,-77.8234C1723.21,-73.4429 1717.46,-68.3896 1711.21,-65.6985 1616.87,-25.0722 1290.59,-17.4799 1197.31,-16.1288"/>
<polygon fill="red" stroke="red" stroke-width="0.315631" points="1197.16,-12.6267 1187.12,-15.9932 1197.07,-19.6261 1197.16,-12.6267"/>
</g>
<!-- &#45;26&#45;&gt;3 -->
<g id="edge101" class="edge"><title>&#45;26&#45;&gt;3</title>
<path fill="none" stroke="green" stroke-width="0.10201" d="M1727.43,-77.7568C1723.25,-73.354 1717.5,-68.3007 1711.21,-65.6985 1595.38,-17.7543 1271.3,-53.5211 1148.21,-29.6985 1142.03,-28.5021 1135.5,-26.6512 1129.48,-24.6879"/>
<polygon fill="green" stroke="green" stroke-width="0.10201" points="1130.57,-21.3621 1119.98,-21.3732 1128.27,-27.9715 1130.57,-21.3621"/>
</g>
<!-- &#45;27 -->
<g id="node27" class="node"><title>&#45;27</title>
<polygon fill="lightgray" stroke="black" points="1795.71,-95.9117 1766.71,-95.9117 1766.71,-77.9117 1795.71,-77.9117 1795.71,-95.9117"/>
<text text-anchor="middle" x="1781.21" y="-84.7117" font-family="Times New Roman,serif" font-size="9.00">&#45;27</text>
</g>
<!-- &#45;27&#45;&gt;0 -->
<g id="edge102" class="edge"><title>&#45;27&#45;&gt;0</title>
<path fill="none" stroke="red" stroke-width="0.218808" d="M1774.44,-77.7182C1770.27,-73.3026 1764.52,-68.2493 1758.21,-65.6985 1602.08,-2.56535 1166.45,-62.227 1001.21,-29.6985 995.886,-28.6498 990.306,-27.0137 985.086,-25.2281"/>
<polygon fill="red" stroke="red" stroke-width="0.218808" points="986.247,-21.9258 975.655,-21.7258 983.811,-28.488 986.247,-21.9258"/>
</g>
<!-- &#45;27&#45;&gt;1 -->
<g id="edge103" class="edge"><title>&#45;27&#45;&gt;1</title>
<path fill="none" stroke="red" stroke-width="1.23113" d="M1774.44,-77.7316C1770.26,-73.3205 1764.51,-68.2672 1758.21,-65.6985 1618.91,-8.90841 1231.05,-51.5509 1082.21,-29.6985 1071.3,-28.0955 1059.41,-25.3683 1049.33,-22.7557"/>
<polygon fill="red" stroke="red" stroke-width="1.23113" points="1050.16,-19.3552 1039.59,-20.1265 1048.33,-26.113 1050.16,-19.3552"/>
</g>
<!-- &#45;27&#45;&gt;2 -->
<g id="edge104" class="edge"><title>&#45;27&#45;&gt;2</title>
<path fill="none" stroke="red" stroke-width="0.433862" d="M1774.41,-77.8062C1770.22,-73.4199 1764.47,-68.3666 1758.21,-65.6985 1654.77,-21.6062 1295.53,-16.4851 1197.24,-15.9146"/>
<polygon fill="red" stroke="red" stroke-width="0.433862" points="1197.08,-12.4139 1187.07,-15.8669 1197.05,-19.4138 1197.08,-12.4139"/>
</g>
<!-- &#45;27&#45;&gt;3 -->
<g id="edge105" class="edge"><title>&#45;27&#45;&gt;3</title>
<path fill="none" stroke="green" stroke-width="0.258608" d="M1774.43,-77.7452C1770.26,-73.3386 1764.51,-68.2853 1758.21,-65.6985 1632.62,-14.0756 1281.59,-55.1748 1148.21,-29.6985 1142.03,-28.5173 1135.5,-26.6719 1129.48,-24.7089"/>
<polygon fill="green" stroke="green" stroke-width="0.258608" points="1130.57,-21.3833 1119.97,-21.391 1128.26,-27.992 1130.57,-21.3833"/>
</g>
<!-- &#45;28 -->
<g id="node28" class="node"><title>&#45;28</title>
<polygon fill="lightgray" stroke="black" points="1842.71,-95.9117 1813.71,-95.9117 1813.71,-77.9117 1842.71,-77.9117 1842.71,-95.9117"/>
<text text-anchor="middle" x="1828.21" y="-84.7117" font-family="Times New Roman,serif" font-size="9.00">&#45;28</text>
</g>
<!-- &#45;28&#45;&gt;0 -->
<g id="edge106" class="edge"><title>&#45;28&#45;&gt;0</title>
<path fill="none" stroke="red" stroke-width="0.237957" d="M1821.45,-77.7116C1817.27,-73.2938 1811.52,-68.2405 1805.21,-65.6985 1639.32,1.11578 1176.74,-63.9987 1001.21,-29.6985 995.885,-28.6572 990.304,-27.0241 985.084,-25.2392"/>
<polygon fill="red" stroke="red" stroke-width="0.237957" points="986.246,-21.9369 975.653,-21.7355 983.808,-28.4988 986.246,-21.9369"/>
</g>
<!-- &#45;28&#45;&gt;1 -->
<g id="edge107" class="edge"><title>&#45;28&#45;&gt;1</title>
<path fill="none" stroke="green" stroke-width="0.501193" d="M1821.44,-77.7235C1817.27,-73.3096 1811.52,-68.2563 1805.21,-65.6985 1656.15,-5.22804 1241.41,-52.7913 1082.21,-29.6985 1071.29,-28.1144 1059.4,-25.39 1049.32,-22.7745"/>
<polygon fill="green" stroke="green" stroke-width="0.501193" points="1050.16,-19.3742 1039.59,-20.1406 1048.33,-26.1312 1050.16,-19.3742"/>
</g>
<!-- &#45;28&#45;&gt;2 -->
<g id="edge108" class="edge"><title>&#45;28&#45;&gt;2</title>
<path fill="none" stroke="red" stroke-width="0.12929" d="M1821.41,-77.7914C1817.23,-73.4002 1811.48,-68.3469 1805.21,-65.6985 1692.67,-18.1419 1300.41,-15.5678 1197.23,-15.7325"/>
<polygon fill="red" stroke="red" stroke-width="0.12929" points="1197.13,-12.2327 1187.14,-15.7594 1197.14,-19.2327 1197.13,-12.2327"/>
</g>
<!-- &#45;28&#45;&gt;3 -->
<g id="edge109" class="edge"><title>&#45;28&#45;&gt;3</title>
<path fill="none" stroke="red" stroke-width="0.58853" d="M1821.44,-77.7352C1817.26,-73.3253 1811.51,-68.272 1805.21,-65.6985 1669.86,-10.3961 1291.89,-56.8289 1148.21,-29.6985 1142.03,-28.5303 1135.49,-26.6896 1129.47,-24.727"/>
<polygon fill="red" stroke="red" stroke-width="0.58853" points="1130.57,-21.4015 1119.97,-21.4062 1128.26,-28.0095 1130.57,-21.4015"/>
</g>
<!-- &#45;29 -->
<g id="node29" class="node"><title>&#45;29</title>
<polygon fill="lightgray" stroke="black" points="335.713,-95.9117 306.713,-95.9117 306.713,-77.9117 335.713,-77.9117 335.713,-95.9117"/>
<text text-anchor="middle" x="321.213" y="-84.7117" font-family="Times New Roman,serif" font-size="9.00">&#45;29</text>
</g>
<!-- &#45;29&#45;&gt;0 -->
<g id="edge110" class="edge"><title>&#45;29&#45;&gt;0</title>
<path fill="none" stroke="green" stroke-width="0.208516" d="M328.014,-77.7959C332.198,-73.4062 337.948,-68.3529 344.213,-65.6985 453.835,-19.2552 835.443,-15.8543 937.145,-15.7877"/>
<polygon fill="green" stroke="green" stroke-width="0.208516" points="937.372,-19.2877 947.374,-15.7922 937.375,-12.2877 937.372,-19.2877"/>
</g>
<!-- &#45;29&#45;&gt;1 -->
<g id="edge111" class="edge"><title>&#45;29&#45;&gt;1</title>
<path fill="none" stroke="red" stroke-width="0.268853" d="M327.99,-77.7383C332.166,-73.3293 337.916,-68.276 344.213,-65.6985 476.455,-11.5704 846.132,-57.8929 986.213,-29.6985 991.536,-28.6272 997.114,-26.9818 1002.33,-25.1944"/>
<polygon fill="red" stroke="red" stroke-width="0.268853" points="1003.61,-28.455 1011.77,-21.6962 1001.17,-21.8918 1003.61,-28.455"/>
</g>
<!-- &#45;29&#45;&gt;2 -->
<g id="edge112" class="edge"><title>&#45;29&#45;&gt;2</title>
<path fill="none" stroke="green" stroke-width="0.389556" d="M327.98,-77.714C332.153,-73.297 337.903,-68.2437 344.213,-65.6985 506.37,-0.29406 958.256,-61.3704 1130.21,-29.6985 1136.4,-28.5581 1142.94,-26.7273 1148.96,-24.7654"/>
<polygon fill="green" stroke="green" stroke-width="0.389556" points="1150.18,-28.047 1158.46,-21.4387 1147.87,-21.4403 1150.18,-28.047"/>
</g>
<!-- &#45;29&#45;&gt;3 -->
<g id="edge113" class="edge"><title>&#45;29&#45;&gt;3</title>
<path fill="none" stroke="red" stroke-width="0.48474" d="M327.985,-77.7264C332.159,-73.3136 337.909,-68.2603 344.213,-65.6985 489.541,-6.63761 893.981,-52.3162 1049.21,-29.6985 1060.13,-28.1074 1072.02,-25.382 1082.1,-22.7676"/>
<polygon fill="red" stroke="red" stroke-width="0.48474" points="1083.1,-26.1246 1091.83,-20.1354 1081.27,-19.3673 1083.1,-26.1246"/>
</g>
<!-- &#45;30 -->
<g id="node30" class="node"><title>&#45;30</title>
<polygon fill="lightgray" stroke="black" points="382.713,-95.9117 353.713,-95.9117 353.713,-77.9117 382.713,-77.9117 382.713,-95.9117"/>
<text text-anchor="middle" x="368.213" y="-84.7117" font-family="Times New Roman,serif" font-size="9.00">&#45;30</text>
</g>
<!-- &#45;30&#45;&gt;0 -->
<g id="edge114" class="edge"><title>&#45;30&#45;&gt;0</title>
<path fill="none" stroke="red" stroke-width="0.224155" stroke-dasharray="1,5" d="M375.021,-77.8114C379.207,-73.4268 384.957,-68.3735 391.213,-65.6985 491.759,-22.709 840.519,-16.7925 937.195,-15.9788"/>
<polygon fill="red" stroke="red" stroke-width="0.224155" points="937.246,-19.4786 947.221,-15.9057 937.195,-12.4788 937.246,-19.4786"/>
</g>
<!-- &#45;30&#45;&gt;1 -->
<g id="edge115" class="edge"><title>&#45;30&#45;&gt;1</title>
<path fill="none" stroke="red" stroke-width="0.198227" d="M374.994,-77.7487C379.172,-73.3432 384.922,-68.2899 391.213,-65.6985 513.694,-15.2497 856.411,-56.1221 986.213,-29.6985 991.533,-28.6155 997.111,-26.9652 1002.33,-25.1769"/>
<polygon fill="red" stroke="red" stroke-width="0.198227" points="1003.6,-28.4379 1011.76,-21.6808 1001.17,-21.8742 1003.6,-28.4379"/>
</g>
<!-- &#45;30&#45;&gt;2 -->
<g id="edge116" class="edge"><title>&#45;30&#45;&gt;2</title>
<path fill="none" stroke="green" stroke-width="0.281324" d="M374.983,-77.7209C379.156,-73.3062 384.906,-68.2529 391.213,-65.6985 543.605,-3.97504 968.56,-59.7155 1130.21,-29.6985 1136.4,-28.5491 1142.94,-26.7151 1148.96,-24.753"/>
<polygon fill="green" stroke="green" stroke-width="0.281324" points="1150.18,-28.0349 1158.46,-21.4282 1147.87,-21.4277 1150.18,-28.0349"/>
</g>
<!-- &#45;30&#45;&gt;3 -->
<g id="edge117" class="edge"><title>&#45;30&#45;&gt;3</title>
<path fill="none" stroke="red" stroke-width="0.133917" d="M374.989,-77.735C379.164,-73.3251 384.914,-68.2718 391.213,-65.6985 526.778,-10.3178 904.341,-51.0759 1049.21,-29.6985 1060.13,-28.0876 1072.02,-25.3591 1082.1,-22.7478"/>
<polygon fill="red" stroke="red" stroke-width="0.133917" points="1083.09,-26.1054 1091.83,-20.1206 1081.27,-19.3472 1083.09,-26.1054"/>
</g>
<!-- &#45;31 -->
<g id="node31" class="node"><title>&#45;31</title>
<polygon fill="lightgray" stroke="black" points="429.713,-95.9117 400.713,-95.9117 400.713,-77.9117 429.713,-77.9117 429.713,-95.9117"/>
<text text-anchor="middle" x="415.213" y="-84.7117" font-family="Times New Roman,serif" font-size="9.00">&#45;31</text>
</g>
<!-- &#45;31&#45;&gt;0 -->
<g id="edge118" class="edge"><title>&#45;31&#45;&gt;0</title>
<path fill="none" stroke="red" stroke-width="0.335215" d="M422.029,-77.8296C426.217,-73.4511 431.967,-68.3978 438.213,-65.6985 529.703,-26.1599 845.726,-17.8088 937.215,-16.2034"/>
<polygon fill="red" stroke="red" stroke-width="0.335215" points="937.288,-19.7027 947.229,-16.0394 937.173,-12.7037 937.288,-19.7027"/>
</g>
<!-- &#45;31&#45;&gt;1 -->
<g id="edge119" class="edge"><title>&#45;31&#45;&gt;1</title>
<path fill="none" stroke="red" stroke-width="0.123225" d="M422,-77.7609C426.178,-73.3595 431.928,-68.3062 438.213,-65.6985 550.936,-18.9281 866.689,-54.3517 986.213,-29.6985 991.53,-28.6017 997.107,-26.9458 1002.33,-25.1564"/>
<polygon fill="red" stroke="red" stroke-width="0.123225" points="1003.6,-28.4179 1011.76,-21.6628 1001.17,-21.8536 1003.6,-28.4179"/>
</g>
<!-- &#45;31&#45;&gt;2 -->
<g id="edge120" class="edge"><title>&#45;31&#45;&gt;2</title>
<path fill="none" stroke="green" stroke-width="0.104868" d="M421.986,-77.7287C426.161,-73.3166 431.911,-68.2633 438.213,-65.6985 580.841,-7.65558 978.862,-58.0609 1130.21,-29.6985 1136.4,-28.5389 1142.93,-26.7012 1148.96,-24.7388"/>
<polygon fill="green" stroke="green" stroke-width="0.104868" points="1150.17,-28.0211 1158.46,-21.4163 1147.86,-21.4134 1150.17,-28.0211"/>
</g>
<!-- &#45;31&#45;&gt;3 -->
<g id="edge121" class="edge"><title>&#45;31&#45;&gt;3</title>
<path fill="none" stroke="red" stroke-width="0.313795" d="M421.993,-77.7449C426.17,-73.3383 431.92,-68.285 438.213,-65.6985 564.017,-13.9973 914.699,-49.8359 1049.21,-29.6985 1060.13,-28.0647 1072.01,-25.3327 1082.09,-22.7249"/>
<polygon fill="red" stroke="red" stroke-width="0.313795" points="1083.08,-26.0833 1091.83,-20.1035 1081.26,-19.324 1083.08,-26.0833"/>
</g>
<!-- &#45;32 -->
<g id="node32" class="node"><title>&#45;32</title>
<polygon fill="lightgray" stroke="black" points="476.713,-95.9117 447.713,-95.9117 447.713,-77.9117 476.713,-77.9117 476.713,-95.9117"/>
<text text-anchor="middle" x="462.213" y="-84.7117" font-family="Times New Roman,serif" font-size="9.00">&#45;32</text>
</g>
<!-- &#45;32&#45;&gt;0 -->
<g id="edge122" class="edge"><title>&#45;32&#45;&gt;0</title>
<path fill="none" stroke="green" stroke-width="0.179363" d="M469.038,-77.8513C473.23,-73.4801 478.98,-68.4268 485.213,-65.6985 567.604,-29.6373 850.62,-18.9396 936.986,-16.4781"/>
<polygon fill="green" stroke="green" stroke-width="0.179363" points="937.276,-19.9716 947.177,-16.2005 937.085,-12.9742 937.276,-19.9716"/>
</g>
<!-- &#45;32&#45;&gt;1 -->
<g id="edge123" class="edge"><title>&#45;32&#45;&gt;1</title>
<path fill="none" stroke="green" stroke-width="0.159951" stroke-dasharray="1,5" d="M469.006,-77.7753C473.186,-73.3787 478.936,-68.3254 485.213,-65.6985 588.18,-22.6054 876.964,-52.582 986.213,-29.6985 991.527,-28.5854 997.102,-26.9229 1002.32,-25.1321"/>
<polygon fill="green" stroke="green" stroke-width="0.159951" points="1003.59,-28.3941 1011.75,-21.6415 1001.16,-21.8291 1003.59,-28.3941"/>
</g>
<!-- &#45;32&#45;&gt;2 -->
<g id="edge124" class="edge"><title>&#45;32&#45;&gt;2</title>
<path fill="none" stroke="red" stroke-width="0.157504" d="M468.99,-77.7376C473.166,-73.3285 478.916,-68.2752 485.213,-65.6985 618.078,-11.3356 989.163,-56.4066 1130.21,-29.6985 1136.4,-28.5272 1142.93,-26.6853 1148.95,-24.7226"/>
<polygon fill="red" stroke="red" stroke-width="0.157504" points="1150.17,-28.0053 1158.46,-21.4026 1147.86,-21.3971 1150.17,-28.0053"/>
</g>
<!-- &#45;32&#45;&gt;3 -->
<g id="edge125" class="edge"><title>&#45;32&#45;&gt;3</title>
<path fill="none" stroke="green" stroke-width="0.132198" d="M468.998,-77.7565C473.176,-73.3537 478.926,-68.3004 485.213,-65.6985 601.258,-17.676 925.055,-48.5962 1049.21,-29.6985 1060.12,-28.038 1072.01,-25.3019 1082.09,-22.6983"/>
<polygon fill="green" stroke="green" stroke-width="0.132198" points="1083.08,-26.0575 1091.83,-20.0836 1081.26,-19.297 1083.08,-26.0575"/>
</g>
<!-- &#45;33 -->
<g id="node33" class="node"><title>&#45;33</title>
<polygon fill="lightgray" stroke="black" points="523.713,-95.9117 494.713,-95.9117 494.713,-77.9117 523.713,-77.9117 523.713,-95.9117"/>
<text text-anchor="middle" x="509.213" y="-84.7117" font-family="Times New Roman,serif" font-size="9.00">&#45;33</text>
</g>
<!-- &#45;33&#45;&gt;0 -->
<g id="edge126" class="edge"><title>&#45;33&#45;&gt;0</title>
<path fill="none" stroke="green" stroke-width="0.235985" d="M516.05,-77.8776C520.245,-73.5152 525.995,-68.4619 532.213,-65.6985 605.675,-33.0504 856.659,-20.156 937.152,-16.8001"/>
<polygon fill="green" stroke="green" stroke-width="0.235985" points="937.491,-20.2894 947.342,-16.3888 937.209,-13.2951 937.491,-20.2894"/>
</g>
<!-- &#45;33&#45;&gt;1 -->
<g id="edge127" class="edge"><title>&#45;33&#45;&gt;1</title>
<path fill="none" stroke="red" stroke-width="0.18216" d="M516.013,-77.7927C520.196,-73.4019 525.946,-68.3486 532.213,-65.6985 718.641,13.136 788.256,-71.9276 986.213,-29.6985 991.523,-28.5658 997.096,-26.8952 1002.31,-25.1029"/>
<polygon fill="red" stroke="red" stroke-width="0.18216" points="1003.58,-28.3655 1011.75,-21.6158 1001.16,-21.7996 1003.58,-28.3655"/>
</g>
<!-- &#45;33&#45;&gt;2 -->
<g id="edge128" class="edge"><title>&#45;33&#45;&gt;2</title>
<path fill="none" stroke="red" stroke-width="0.407601" d="M515.994,-77.748C520.171,-73.3423 525.921,-68.289 532.213,-65.6985 655.317,-15.0149 999.462,-54.7526 1130.21,-29.6985 1136.4,-28.5136 1142.93,-26.6669 1148.95,-24.7039"/>
<polygon fill="red" stroke="red" stroke-width="0.407601" points="1150.16,-27.9871 1158.45,-21.3867 1147.86,-21.3782 1150.16,-27.9871"/>
</g>
<!-- &#45;33&#45;&gt;3 -->
<g id="edge129" class="edge"><title>&#45;33&#45;&gt;3</title>
<path fill="none" stroke="red" stroke-width="0.213913" d="M516.003,-77.7701C520.183,-73.3718 525.933,-68.3185 532.213,-65.6985 638.501,-21.3537 935.408,-47.3568 1049.21,-29.6985 1060.12,-28.0065 1072,-25.2656 1082.09,-22.6669"/>
<polygon fill="red" stroke="red" stroke-width="0.213913" points="1083.07,-26.0271 1091.82,-20.0601 1081.26,-19.2652 1083.07,-26.0271"/>
</g>
<!-- &#45;34 -->
<g id="node34" class="node"><title>&#45;34</title>
<polygon fill="lightgray" stroke="black" points="570.713,-95.9117 541.713,-95.9117 541.713,-77.9117 570.713,-77.9117 570.713,-95.9117"/>
<text text-anchor="middle" x="556.213" y="-84.7117" font-family="Times New Roman,serif" font-size="9.00">&#45;34</text>
</g>
<!-- &#45;34&#45;&gt;0 -->
<g id="edge130" class="edge"><title>&#45;34&#45;&gt;0</title>
<path fill="none" stroke="green" stroke-width="0.253663" d="M563.064,-77.9103C567.265,-73.5587 573.015,-68.5054 579.213,-65.6985 643.704,-36.4943 862.386,-21.5521 937.014,-17.2136"/>
<polygon fill="green" stroke="green" stroke-width="0.253663" points="937.542,-20.6894 947.328,-16.6288 937.146,-13.7006 937.542,-20.6894"/>
</g>
<!-- &#45;34&#45;&gt;1 -->
<g id="edge131" class="edge"><title>&#45;34&#45;&gt;1</title>
<path fill="none" stroke="red" stroke-width="0.141398" d="M563.022,-77.8141C567.208,-73.4304 572.958,-68.3771 579.213,-65.6985 746.146,5.78833 808.788,-68.3918 986.213,-29.6985 991.518,-28.5417 997.089,-26.8612 1002.31,-25.0669"/>
<polygon fill="red" stroke="red" stroke-width="0.141398" points="1003.57,-28.3303 1011.74,-21.5842 1001.15,-21.7633 1003.57,-28.3303"/>
</g>
<!-- &#45;34&#45;&gt;2 -->
<g id="edge132" class="edge"><title>&#45;34&#45;&gt;2</title>
<path fill="none" stroke="green" stroke-width="0.206441" d="M562.999,-77.76C567.178,-73.3584 572.928,-68.3051 579.213,-65.6985 692.559,-18.6934 1009.76,-53.099 1130.21,-29.6985 1136.39,-28.4978 1142.92,-26.6454 1148.95,-24.682"/>
<polygon fill="green" stroke="green" stroke-width="0.206441" points="1150.16,-27.9657 1158.45,-21.3682 1147.85,-21.3561 1150.16,-27.9657"/>
</g>
<!-- &#45;34&#45;&gt;3 -->
<g id="edge133" class="edge"><title>&#45;34&#45;&gt;3</title>
<path fill="none" stroke="red" stroke-width="0.316384" d="M563.01,-77.7864C567.193,-73.3935 572.943,-68.3402 579.213,-65.6985 675.747,-25.0301 945.758,-46.118 1049.21,-29.6985 1060.11,-27.9687 1072,-25.222 1082.08,-22.6292"/>
<polygon fill="red" stroke="red" stroke-width="0.316384" points="1083.06,-25.9906 1091.82,-20.0319 1081.25,-19.227 1083.06,-25.9906"/>
</g>
<!-- &#45;35 -->
<g id="node35" class="node"><title>&#45;35</title>
<polygon fill="lightgray" stroke="black" points="617.713,-95.9117 588.713,-95.9117 588.713,-77.9117 617.713,-77.9117 617.713,-95.9117"/>
<text text-anchor="middle" x="603.213" y="-84.7117" font-family="Times New Roman,serif" font-size="9.00">&#45;35</text>
</g>
<!-- &#45;35&#45;&gt;0 -->
<g id="edge134" class="edge"><title>&#45;35&#45;&gt;0</title>
<path fill="none" stroke="red" stroke-width="0.207388" d="M610.482,-77.543C614.65,-73.3002 620.233,-68.4712 626.213,-65.6985 681.834,-39.9101 868.756,-23.1282 937,-17.7346"/>
<polygon fill="red" stroke="red" stroke-width="0.207388" points="937.551,-21.2024 947.251,-16.9401 937.01,-14.2234 937.551,-21.2024"/>
</g>
<!-- &#45;35&#45;&gt;1 -->
<g id="edge135" class="edge"><title>&#45;35&#45;&gt;1</title>
<path fill="none" stroke="green" stroke-width="0.188001" d="M610.034,-77.8409C614.224,-73.4662 619.974,-68.4129 626.213,-65.6985 773.663,-1.55376 829.306,-64.859 986.213,-29.6985 991.511,-28.5113 997.079,-26.8184 1002.3,-25.0217"/>
<polygon fill="green" stroke="green" stroke-width="0.188001" points="1003.56,-28.2861 1011.73,-21.5445 1001.14,-21.7177 1003.56,-28.2861"/>
</g>
<!-- &#45;35&#45;&gt;2 -->
<g id="edge136" class="edge"><title>&#45;35&#45;&gt;2</title>
<path fill="none" stroke="red" stroke-width="0.300056" stroke-dasharray="1,5" d="M610.005,-77.7743C614.186,-73.3774 619.936,-68.3241 626.213,-65.6985 729.802,-22.3707 1020.05,-51.4459 1130.21,-29.6985 1136.39,-28.4791 1142.92,-26.62 1148.94,-24.656"/>
<polygon fill="red" stroke="red" stroke-width="0.300056" points="1150.15,-27.9405 1158.44,-21.3463 1147.85,-21.3298 1150.15,-27.9405"/>
</g>
<!-- &#45;35&#45;&gt;3 -->
<g id="edge137" class="edge"><title>&#45;35&#45;&gt;3</title>
<path fill="none" stroke="red" stroke-width="0.156314" d="M610.019,-77.8063C614.204,-73.42 619.954,-68.3667 626.213,-65.6985 799.781,8.28914 862.993,-60.0614 1049.21,-29.6985 1060.1,-27.9227 1071.99,-25.1689 1082.07,-22.5832"/>
<polygon fill="red" stroke="red" stroke-width="0.156314" points="1083.05,-25.9461 1091.81,-19.9976 1081.25,-19.1804 1083.05,-25.9461"/>
</g>
<!-- &#45;36 -->
<g id="node36" class="node"><title>&#45;36</title>
<polygon fill="lightgray" stroke="black" points="664.713,-95.9117 635.713,-95.9117 635.713,-77.9117 664.713,-77.9117 664.713,-95.9117"/>
<text text-anchor="middle" x="650.213" y="-84.7117" font-family="Times New Roman,serif" font-size="9.00">&#45;36</text>
</g>
<!-- &#45;36&#45;&gt;0 -->
<g id="edge138" class="edge"><title>&#45;36&#45;&gt;0</title>
<path fill="none" stroke="red" stroke-width="0.260491" d="M657.509,-77.599C661.684,-73.3726 667.266,-68.5413 673.213,-65.6985 763.299,-22.6365 884.96,-16.2967 936.954,-15.6871"/>
<polygon fill="red" stroke="red" stroke-width="0.260491" points="937.253,-19.1857 947.234,-15.6333 937.216,-12.1858 937.253,-19.1857"/>
</g>
<!-- &#45;36&#45;&gt;1 -->
<g id="edge139" class="edge"><title>&#45;36&#45;&gt;1</title>
<path fill="none" stroke="green" stroke-width="0.378769" stroke-dasharray="1,5" d="M657.049,-77.8755C661.244,-73.5124 666.994,-68.4591 673.213,-65.6985 801.199,-8.88766 849.805,-61.3307 986.213,-29.6985 991.502,-28.472 997.067,-26.763 1002.28,-24.9631"/>
<polygon fill="green" stroke="green" stroke-width="0.378769" points="1003.54,-28.2287 1011.72,-21.493 1001.13,-21.6587 1003.54,-28.2287"/>
</g>
<!-- &#45;36&#45;&gt;2 -->
<g id="edge140" class="edge"><title>&#45;36&#45;&gt;2</title>
<path fill="none" stroke="green" stroke-width="0.281234" d="M657.012,-77.7915C661.195,-73.4003 666.945,-68.347 673.213,-65.6985 860.886,13.6052 930.476,-69.8887 1130.21,-29.6985 1136.39,-28.4566 1142.91,-26.5893 1148.93,-24.6247"/>
<polygon fill="green" stroke="green" stroke-width="0.281234" points="1150.14,-27.91 1158.44,-21.3199 1147.84,-21.2983 1150.14,-27.91"/>
</g>
<!-- &#45;36&#45;&gt;3 -->
<g id="edge141" class="edge"><title>&#45;36&#45;&gt;3</title>
<path fill="none" stroke="green" stroke-width="0.293262" d="M657.029,-77.831C661.218,-73.453 666.968,-68.3997 673.213,-65.6985 827.294,0.944919 883.671,-57.5873 1049.21,-29.6985 1060.09,-27.8653 1071.98,-25.1027 1082.06,-22.5259"/>
<polygon fill="green" stroke="green" stroke-width="0.293262" points="1083.03,-25.8905 1091.81,-19.9547 1081.24,-19.1222 1083.03,-25.8905"/>
</g>
<!-- &#45;37 -->
<g id="node37" class="node"><title>&#45;37</title>
<polygon fill="lightgray" stroke="black" points="711.713,-95.9117 682.713,-95.9117 682.713,-77.9117 711.713,-77.9117 711.713,-95.9117"/>
<text text-anchor="middle" x="697.213" y="-84.7117" font-family="Times New Roman,serif" font-size="9.00">&#45;37</text>
</g>
<!-- &#45;37&#45;&gt;0 -->
<g id="edge142" class="edge"><title>&#45;37&#45;&gt;0</title>
<path fill="none" stroke="red" stroke-width="0.679823" d="M704.546,-77.6754C708.732,-73.4714 714.313,-68.6371 720.213,-65.6985 793.287,-29.3054 891.453,-19.4727 937.021,-16.8228"/>
<polygon fill="red" stroke="red" stroke-width="0.679823" points="937.369,-20.3097 947.177,-16.303 937.011,-13.3188 937.369,-20.3097"/>
</g>
<!-- &#45;37&#45;&gt;1 -->
<g id="edge143" class="edge"><title>&#45;37&#45;&gt;1</title>
<path fill="none" stroke="green" stroke-width="0.238014" d="M704.468,-77.5125C708.632,-73.2608 714.215,-68.433 720.213,-65.6985 828.764,-16.2089 870.272,-57.8095 986.213,-29.6985 991.49,-28.4192 997.049,-26.6885 1002.26,-24.8844"/>
<polygon fill="green" stroke="green" stroke-width="0.238014" points="1003.52,-28.1516 1011.71,-21.4239 1001.11,-21.5792 1003.52,-28.1516"/>
</g>
<!-- &#45;37&#45;&gt;2 -->
<g id="edge144" class="edge"><title>&#45;37&#45;&gt;2</title>
<path fill="none" stroke="green" stroke-width="0.222599" d="M704.021,-77.8125C708.207,-73.4284 713.957,-68.3751 720.213,-65.6985 888.39,6.25719 951.048,-66.5861 1130.21,-29.6985 1136.38,-28.4289 1142.9,-26.5517 1148.93,-24.5864"/>
<polygon fill="green" stroke="green" stroke-width="0.222599" points="1150.13,-27.8727 1158.43,-21.2875 1147.84,-21.2596 1150.13,-27.8727"/>
</g>
<!-- &#45;37&#45;&gt;3 -->
<g id="edge145" class="edge"><title>&#45;37&#45;&gt;3</title>
<path fill="none" stroke="red" stroke-width="0.211247" d="M704.043,-77.8627C708.236,-73.4952 713.986,-68.4419 720.213,-65.6985 854.823,-6.39215 904.331,-55.1162 1049.21,-29.6985 1060.08,-27.7917 1071.96,-25.0178 1082.05,-22.4525"/>
<polygon fill="red" stroke="red" stroke-width="0.211247" points="1083.01,-25.8193 1091.8,-19.8998 1081.24,-19.0477 1083.01,-25.8193"/>
</g>
<!-- &#45;38 -->
<g id="node38" class="node"><title>&#45;38</title>
<polygon fill="lightgray" stroke="black" points="758.713,-95.9117 729.713,-95.9117 729.713,-77.9117 758.713,-77.9117 758.713,-95.9117"/>
<text text-anchor="middle" x="744.213" y="-84.7117" font-family="Times New Roman,serif" font-size="9.00">&#45;38</text>
</g>
<!-- &#45;38&#45;&gt;0 -->
<g id="edge146" class="edge"><title>&#45;38&#45;&gt;0</title>
<path fill="none" stroke="green" stroke-width="0.271761" d="M751.602,-77.7856C755.805,-73.6139 761.384,-68.7753 767.213,-65.6985 823.466,-36.0085 898.314,-23.3372 936.87,-18.4933"/>
<polygon fill="green" stroke="green" stroke-width="0.271761" points="937.653,-21.9254 947.175,-17.2789 936.834,-14.9735 937.653,-21.9254"/>
</g>
<!-- &#45;38&#45;&gt;1 -->
<g id="edge147" class="edge"><title>&#45;38&#45;&gt;1</title>
<path fill="none" stroke="green" stroke-width="0.202178" stroke-dasharray="1,5" d="M751.5,-77.5803C755.672,-73.3484 761.255,-68.5179 767.213,-65.6985 856.375,-23.5089 890.691,-54.3004 986.213,-29.6985 991.471,-28.3444 997.023,-26.5831 1002.24,-24.7729"/>
<polygon fill="green" stroke="green" stroke-width="0.202178" points="1003.49,-28.0424 1011.68,-21.326 1001.09,-21.4666 1003.49,-28.0424"/>
</g>
<!-- &#45;38&#45;&gt;2 -->
<g id="edge148" class="edge"><title>&#45;38&#45;&gt;2</title>
<path fill="none" stroke="red" stroke-width="0.172185" d="M751.033,-77.839C755.223,-73.4636 760.973,-68.4103 767.213,-65.6985 915.906,-1.08532 971.606,-63.2862 1130.21,-29.6985 1136.37,-28.3942 1142.9,-26.5045 1148.92,-24.5383"/>
<polygon fill="red" stroke="red" stroke-width="0.172185" points="1150.12,-27.8258 1158.42,-21.2469 1147.83,-21.2109 1150.12,-27.8258"/>
</g>
<!-- &#45;38&#45;&gt;3 -->
<g id="edge149" class="edge"><title>&#45;38&#45;&gt;3</title>
<path fill="none" stroke="red" stroke-width="0.634372" d="M751.062,-77.9046C755.261,-73.5511 761.011,-68.4978 767.213,-65.6985 882.376,-13.7184 924.965,-52.6497 1049.21,-29.6985 1060.06,-27.694 1071.94,-24.9051 1082.03,-22.355"/>
<polygon fill="red" stroke="red" stroke-width="0.634372" points="1082.98,-25.7247 1091.78,-19.8269 1081.23,-18.9487 1082.98,-25.7247"/>
</g>
<!-- &#45;39 -->
<g id="node39" class="node"><title>&#45;39</title>
<polygon fill="lightgray" stroke="black" points="2014.71,-95.9117 1985.71,-95.9117 1985.71,-77.9117 2014.71,-77.9117 2014.71,-95.9117"/>
<text text-anchor="middle" x="2000.21" y="-84.7117" font-family="Times New Roman,serif" font-size="9.00">&#45;39</text>
</g>
<!-- &#45;39&#45;&gt;1 -->
<g id="edge150" class="edge"><title>&#45;39&#45;&gt;1</title>
<path fill="none" stroke="green" stroke-width="0.239917" d="M1985.22,-79.7438C1972.85,-74.9658 1954.7,-68.6751 1938.21,-65.6985 1563.49,1.94516 1459.26,-82.9058 1082.21,-29.6985 1071.29,-28.1565 1059.4,-25.4386 1049.32,-22.8166"/>
<polygon fill="green" stroke="green" stroke-width="0.239917" points="1050.15,-19.4169 1039.59,-20.1721 1048.32,-26.1719 1050.15,-19.4169"/>
</g>
<!-- &#45;39&#45;&gt;2 -->
<g id="edge151" class="edge"><title>&#45;39&#45;&gt;2</title>
<path fill="none" stroke="green" stroke-width="0.137301" d="M1991.28,-77.7449C1985.88,-73.3382 1978.63,-68.2849 1971.21,-65.6985 1823.42,-14.1636 1317.2,-14.7241 1197.66,-15.6032"/>
<polygon fill="green" stroke="green" stroke-width="0.137301" points="1197.29,-12.1059 1187.32,-15.6875 1197.35,-19.1057 1197.29,-12.1059"/>
</g>
<!-- &#45;39&#45;&gt;3 -->
<g id="edge152" class="edge"><title>&#45;39&#45;&gt;3</title>
<path fill="none" stroke="red" stroke-width="0.182663" d="M1991.29,-77.6931C1985.9,-73.2691 1978.65,-68.2158 1971.21,-65.6985 1797.8,-7.03397 1328.28,-62.6732 1148.21,-29.6985 1141.92,-28.5467 1135.28,-26.6786 1129.18,-24.6822"/>
<polygon fill="red" stroke="red" stroke-width="0.182663" points="1130.18,-21.3235 1119.59,-21.305 1127.86,-27.9265 1130.18,-21.3235"/>
</g>
<!-- &#45;40 -->
<g id="node40" class="node"><title>&#45;40</title>
<polygon fill="lightgray" stroke="black" points="805.713,-95.9117 776.713,-95.9117 776.713,-77.9117 805.713,-77.9117 805.713,-95.9117"/>
<text text-anchor="middle" x="791.213" y="-84.7117" font-family="Times New Roman,serif" font-size="9.00">&#45;40</text>
</g>
<!-- &#45;40&#45;&gt;0 -->
<g id="edge153" class="edge"><title>&#45;40&#45;&gt;0</title>
<path fill="none" stroke="red" stroke-width="0.176043" d="M799.516,-77.5774C803.89,-73.5515 809.519,-68.9094 815.213,-65.6985 855.353,-43.0639 907.457,-28.4259 937.633,-21.2006"/>
<polygon fill="red" stroke="red" stroke-width="0.176043" points="938.741,-24.5367 947.695,-18.873 937.163,-17.7168 938.741,-24.5367"/>
</g>
<!-- &#45;40&#45;&gt;1 -->
<g id="edge154" class="edge"><title>&#45;40&#45;&gt;1</title>
<path fill="none" stroke="green" stroke-width="0.538318" stroke-dasharray="1,5" d="M798.933,-77.6931C803.321,-73.4942 809.142,-68.6593 815.213,-65.6985 885.021,-31.6561 911.452,-50.7404 986.213,-29.6985 991.439,-28.2276 996.978,-26.4184 1002.19,-24.5988"/>
<polygon fill="green" stroke="green" stroke-width="0.538318" points="1003.43,-27.8716 1011.64,-21.1731 1001.05,-21.2906 1003.43,-27.8716"/>
</g>
<!-- &#45;40&#45;&gt;2 -->
<g id="edge155" class="edge"><title>&#45;40&#45;&gt;2</title>
<path fill="none" stroke="green" stroke-width="0.111156" d="M798.41,-77.8747C802.81,-73.5112 808.81,-68.4579 815.213,-65.6985 944.621,-9.93404 992.581,-59.9204 1130.21,-29.6985 1136.36,-28.3482 1142.88,-26.442 1148.9,-24.4746"/>
<polygon fill="green" stroke="green" stroke-width="0.111156" points="1150.1,-27.7636 1158.41,-21.193 1147.82,-21.1465 1150.1,-27.7636"/>
</g>
<!-- &#45;40&#45;&gt;3 -->
<g id="edge156" class="edge"><title>&#45;40&#45;&gt;3</title>
<path fill="none" stroke="red" stroke-width="0.157529" d="M798.87,-77.5594C803.24,-73.3214 809.063,-68.4917 815.213,-65.6985 911.019,-22.1877 945.994,-50.1389 1049.21,-29.6985 1060.04,-27.5549 1071.91,-24.7446 1082.01,-22.2162"/>
<polygon fill="red" stroke="red" stroke-width="0.157529" points="1082.94,-25.5897 1091.76,-19.723 1081.21,-18.8076 1082.94,-25.5897"/>
</g>
<!-- 181&#45;&gt;2 -->
<g id="edge158" class="edge"><title>181&#45;&gt;2</title>
<path fill="none" stroke="red" stroke-width="0.357959" d="M2113.14,-73.9177C2107.66,-70.665 2101.4,-67.5373 2095.21,-65.6985 1920.14,-13.6765 1326.72,-14.7546 1197.28,-15.6332"/>
<polygon fill="red" stroke="red" stroke-width="0.357959" points="1197.14,-12.1341 1187.17,-15.7082 1197.19,-19.1339 1197.14,-12.1341"/>
</g>
<!-- 661&#45;&gt;0 -->
<g id="edge160" class="edge"><title>661&#45;&gt;0</title>
<path fill="none" stroke="green" stroke-width="0.139578" d="M38.2836,-73.9216C43.7656,-70.669 50.026,-67.5404 56.2132,-65.6985 227.858,-14.5996 809.305,-14.9464 937.198,-15.663"/>
<polygon fill="green" stroke="green" stroke-width="0.139578" points="937.182,-19.1628 947.204,-15.7253 937.226,-12.163 937.182,-19.1628"/>
</g>
</g>
</svg>
