<?xml version="1.0" encoding="UTF-8" standalone="no"?>
<!DOCTYPE svg PUBLIC "-//W3C//DTD SVG 1.1//EN"
 "http://www.w3.org/Graphics/SVG/1.1/DTD/svg11.dtd">
<!-- Generated by graphviz version 2.38.0 (20140413.2041)
 -->
<!-- Title: %3 Pages: 1 -->
<svg width="1828pt" height="92pt"
 viewBox="0.00 0.00 1827.50 91.70" xmlns="http://www.w3.org/2000/svg" xmlns:xlink="http://www.w3.org/1999/xlink">
<g id="graph0" class="graph" transform="scale(1 1) rotate(0) translate(4 87.6985)">
<title>%3</title>
<polygon fill="white" stroke="none" points="-4,4 -4,-87.6985 1823.5,-87.6985 1823.5,4 -4,4"/>
<!-- &#45;1 -->
<g id="node1" class="node"><title>&#45;1</title>
<polygon fill="lightgray" stroke="black" points="772,-83.6985 748,-83.6985 748,-65.6985 772,-65.6985 772,-83.6985"/>
<text text-anchor="middle" x="760" y="-72.4985" font-family="Times New Roman,serif" font-size="9.00">&#45;1</text>
</g>
<!-- 0 -->
<g id="node41" class="node"><title>0</title>
<ellipse fill="lightblue" stroke="black" cx="925" cy="-14.8492" rx="14.7" ry="14.7"/>
<text text-anchor="middle" x="925" y="-12.6492" font-family="Times New Roman,serif" font-size="9.00">0</text>
</g>
<!-- &#45;1&#45;&gt;0 -->
<g id="edge1" class="edge"><title>&#45;1&#45;&gt;0</title>
<path fill="none" stroke="green" stroke-width="0.275439" d="M772.383,-68.8106C775.201,-67.7457 778.193,-66.6529 781,-65.6985 833.718,-47.7755 849.876,-51.7617 901,-29.6985 901.85,-29.3316 902.708,-28.9415 903.568,-28.5339"/>
<polygon fill="green" stroke="green" stroke-width="0.275439" points="905.39,-31.5291 912.58,-23.7469 902.107,-25.3472 905.39,-31.5291"/>
</g>
<!-- 1 -->
<g id="node42" class="node"><title>1</title>
<ellipse fill="lightblue" stroke="black" cx="877" cy="-14.8492" rx="14.7" ry="14.7"/>
<text text-anchor="middle" x="877" y="-12.6492" font-family="Times New Roman,serif" font-size="9.00">1</text>
</g>
<!-- &#45;1&#45;&gt;1 -->
<g id="edge2" class="edge"><title>&#45;1&#45;&gt;1</title>
<path fill="none" stroke="green" stroke-width="0.242409" d="M772.193,-68.3127C790.113,-60.3114 824.522,-44.6205 853,-29.6985 853.82,-29.2687 854.653,-28.8252 855.491,-28.3726"/>
<polygon fill="green" stroke="green" stroke-width="0.242409" points="857.392,-31.3194 864.403,-23.3756 853.969,-25.2137 857.392,-31.3194"/>
</g>
<!-- 2 -->
<g id="node43" class="node"><title>2</title>
<ellipse fill="lightblue" stroke="black" cx="829" cy="-14.8492" rx="14.7" ry="14.7"/>
<text text-anchor="middle" x="829" y="-12.6492" font-family="Times New Roman,serif" font-size="9.00">2</text>
</g>
<!-- &#45;1&#45;&gt;2 -->
<g id="edge3" class="edge"><title>&#45;1&#45;&gt;2</title>
<path fill="none" stroke="green" stroke-width="0.458716" d="M769.594,-65.6548C780.044,-56.8941 797.02,-42.6612 810.155,-31.6492"/>
<polygon fill="green" stroke="green" stroke-width="0.458716" points="812.709,-34.0746 818.124,-24.9678 808.212,-28.7104 812.709,-34.0746"/>
</g>
<!-- 3 -->
<g id="node44" class="node"><title>3</title>
<ellipse fill="lightblue" stroke="black" cx="973" cy="-14.8492" rx="14.7" ry="14.7"/>
<text text-anchor="middle" x="973" y="-12.6492" font-family="Times New Roman,serif" font-size="9.00">3</text>
</g>
<!-- &#45;1&#45;&gt;3 -->
<g id="edge4" class="edge"><title>&#45;1&#45;&gt;3</title>
<path fill="none" stroke="red" stroke-width="0.237969" d="M772.329,-68.6422C775.151,-67.586 778.157,-66.5394 781,-65.6985 854.227,-44.043 877.73,-57.115 949,-29.6985 949.864,-29.366 950.734,-29.0052 951.604,-28.6223"/>
<polygon fill="red" stroke="red" stroke-width="0.237969" points="953.38,-31.6448 960.663,-23.9504 950.171,-25.4235 953.38,-31.6448"/>
</g>
<!-- &#45;2 -->
<g id="node2" class="node"><title>&#45;2</title>
<polygon fill="lightgray" stroke="black" points="814,-83.6985 790,-83.6985 790,-65.6985 814,-65.6985 814,-83.6985"/>
<text text-anchor="middle" x="802" y="-72.4985" font-family="Times New Roman,serif" font-size="9.00">&#45;2</text>
</g>
<!-- &#45;2&#45;&gt;0 -->
<g id="edge5" class="edge"><title>&#45;2&#45;&gt;0</title>
<path fill="none" stroke="red" stroke-width="0.186254" d="M814.076,-68.8141C832.916,-61.0867 870.325,-45.3112 901,-29.6985 901.825,-29.2784 902.662,-28.8432 903.504,-28.3976"/>
<polygon fill="red" stroke="red" stroke-width="0.186254" points="905.394,-31.3518 912.433,-23.4332 901.992,-25.2339 905.394,-31.3518"/>
</g>
<!-- &#45;2&#45;&gt;1 -->
<g id="edge6" class="edge"><title>&#45;2&#45;&gt;1</title>
<path fill="none" stroke="green" stroke-width="0.37048" d="M812.428,-65.6548C824.028,-56.7078 843.027,-42.0534 857.421,-30.9512"/>
<polygon fill="green" stroke="green" stroke-width="0.37048" points="859.9,-33.4593 865.68,-24.5803 855.624,-27.9165 859.9,-33.4593"/>
</g>
<!-- &#45;2&#45;&gt;2 -->
<g id="edge7" class="edge"><title>&#45;2&#45;&gt;2</title>
<path fill="none" stroke="green" stroke-width="0.421336" stroke-dasharray="1,5" d="M805.754,-65.6548C809.101,-58.4832 814.16,-47.6447 818.705,-37.9078"/>
<polygon fill="green" stroke="green" stroke-width="0.421336" points="821.937,-39.2567 822.995,-28.7148 815.594,-36.2961 821.937,-39.2567"/>
</g>
<!-- &#45;2&#45;&gt;3 -->
<g id="edge8" class="edge"><title>&#45;2&#45;&gt;3</title>
<path fill="none" stroke="green" stroke-width="0.271039" stroke-dasharray="1,5" d="M814.374,-68.7832C817.193,-67.7197 820.187,-66.6344 823,-65.6985 878.263,-47.3149 895.376,-52.4235 949,-29.6985 949.853,-29.3372 950.713,-28.9519 951.574,-28.5482"/>
<polygon fill="green" stroke="green" stroke-width="0.271039" points="953.389,-31.5479 960.594,-23.78 950.118,-25.3594 953.389,-31.5479"/>
</g>
<!-- &#45;3 -->
<g id="node3" class="node"><title>&#45;3</title>
<polygon fill="lightgray" stroke="black" points="856,-83.6985 832,-83.6985 832,-65.6985 856,-65.6985 856,-83.6985"/>
<text text-anchor="middle" x="844" y="-72.4985" font-family="Times New Roman,serif" font-size="9.00">&#45;3</text>
</g>
<!-- &#45;3&#45;&gt;0 -->
<g id="edge9" class="edge"><title>&#45;3&#45;&gt;0</title>
<path fill="none" stroke="green" stroke-width="0.289222" d="M855.263,-65.6548C868.054,-56.5196 889.176,-41.4343 904.829,-30.2554"/>
<polygon fill="green" stroke="green" stroke-width="0.289222" points="907.205,-32.8593 913.308,-24.1992 903.137,-27.1629 907.205,-32.8593"/>
</g>
<!-- &#45;3&#45;&gt;1 -->
<g id="edge10" class="edge"><title>&#45;3&#45;&gt;1</title>
<path fill="none" stroke="green" stroke-width="0.190984" d="M848.589,-65.6548C852.776,-58.3144 859.155,-47.1324 864.808,-37.2221"/>
<polygon fill="green" stroke="green" stroke-width="0.190984" points="867.996,-38.6975 869.911,-28.2771 861.915,-35.229 867.996,-38.6975"/>
</g>
<!-- &#45;3&#45;&gt;2 -->
<g id="edge11" class="edge"><title>&#45;3&#45;&gt;2</title>
<path fill="none" stroke="red" stroke-width="0.400879" d="M841.914,-65.6548C840.16,-58.8878 837.558,-48.8559 835.149,-39.5653"/>
<polygon fill="red" stroke="red" stroke-width="0.400879" points="838.465,-38.4059 832.567,-29.6046 831.689,-40.1629 838.465,-38.4059"/>
</g>
<!-- &#45;3&#45;&gt;3 -->
<g id="edge12" class="edge"><title>&#45;3&#45;&gt;3</title>
<path fill="none" stroke="red" stroke-width="0.116729" d="M856.103,-68.8519C879.849,-59.3059 931.733,-38.2554 949,-29.6985 949.83,-29.2873 950.67,-28.8596 951.516,-28.4203"/>
<polygon fill="red" stroke="red" stroke-width="0.116729" points="953.394,-31.3812 960.459,-23.4855 950.012,-25.2524 953.394,-31.3812"/>
</g>
<!-- &#45;4 -->
<g id="node4" class="node"><title>&#45;4</title>
<polygon fill="lightgray" stroke="black" points="898,-83.6985 874,-83.6985 874,-65.6985 898,-65.6985 898,-83.6985"/>
<text text-anchor="middle" x="886" y="-72.4985" font-family="Times New Roman,serif" font-size="9.00">&#45;4</text>
</g>
<!-- &#45;4&#45;&gt;0 -->
<g id="edge13" class="edge"><title>&#45;4&#45;&gt;0</title>
<path fill="none" stroke="green" stroke-width="0.183618" d="M891.423,-65.6548C896.538,-58.067 904.421,-46.3743 911.264,-36.2246"/>
<polygon fill="green" stroke="green" stroke-width="0.183618" points="914.225,-38.0926 916.913,-27.8444 908.421,-34.1796 914.225,-38.0926"/>
</g>
<!-- &#45;4&#45;&gt;1 -->
<g id="edge14" class="edge"><title>&#45;4&#45;&gt;1</title>
<path fill="none" stroke="green" stroke-width="0.408938" d="M884.749,-65.6548C883.696,-58.8878 882.135,-48.8559 880.69,-39.5653"/>
<polygon fill="green" stroke="green" stroke-width="0.408938" points="884.136,-38.9476 879.14,-29.6046 877.219,-40.0238 884.136,-38.9476"/>
</g>
<!-- &#45;4&#45;&gt;2 -->
<g id="edge15" class="edge"><title>&#45;4&#45;&gt;2</title>
<path fill="none" stroke="green" stroke-width="0.256845" d="M878.074,-65.6548C869.902,-57.3607 856.897,-44.1619 846.328,-33.435"/>
<polygon fill="green" stroke="green" stroke-width="0.256845" points="848.678,-30.8332 839.166,-26.1665 843.691,-35.7462 848.678,-30.8332"/>
</g>
<!-- &#45;4&#45;&gt;3 -->
<g id="edge16" class="edge"><title>&#45;4&#45;&gt;3</title>
<path fill="none" stroke="green" stroke-width="0.459211" d="M898.097,-65.6548C912.121,-56.3294 935.471,-40.8037 952.377,-29.5624"/>
<polygon fill="green" stroke="green" stroke-width="0.459211" points="954.617,-32.2762 961.006,-23.8246 950.741,-26.4472 954.617,-32.2762"/>
</g>
<!-- &#45;5 -->
<g id="node5" class="node"><title>&#45;5</title>
<polygon fill="lightgray" stroke="black" points="940,-83.6985 916,-83.6985 916,-65.6985 940,-65.6985 940,-83.6985"/>
<text text-anchor="middle" x="928" y="-72.4985" font-family="Times New Roman,serif" font-size="9.00">&#45;5</text>
</g>
<!-- &#45;5&#45;&gt;0 -->
<g id="edge17" class="edge"><title>&#45;5&#45;&gt;0</title>
<path fill="none" stroke="red" stroke-width="0.188821" stroke-dasharray="1,5" d="M927.583,-65.6548C927.24,-59.0498 926.737,-49.3344 926.265,-40.2339"/>
<polygon fill="red" stroke="red" stroke-width="0.188821" points="929.75,-39.8616 925.737,-30.0563 922.759,-40.2242 929.75,-39.8616"/>
</g>
<!-- &#45;5&#45;&gt;1 -->
<g id="edge18" class="edge"><title>&#45;5&#45;&gt;1</title>
<path fill="none" stroke="red" stroke-width="0.339302" d="M920.909,-65.6548C913.755,-57.5402 902.462,-44.7309 893.121,-34.1348"/>
<polygon fill="red" stroke="red" stroke-width="0.339302" points="895.697,-31.7644 886.458,-26.5778 890.446,-36.3935 895.697,-31.7644"/>
</g>
<!-- &#45;5&#45;&gt;2 -->
<g id="edge19" class="edge"><title>&#45;5&#45;&gt;2</title>
<path fill="none" stroke="red" stroke-width="0.195748" d="M915.861,-66.605C899.547,-57.0723 870.289,-39.9759 850.276,-28.2815"/>
<polygon fill="red" stroke="red" stroke-width="0.195748" points="851.951,-25.2065 841.551,-23.1832 848.419,-31.2504 851.951,-25.2065"/>
</g>
<!-- &#45;5&#45;&gt;3 -->
<g id="edge20" class="edge"><title>&#45;5&#45;&gt;3</title>
<path fill="none" stroke="green" stroke-width="0.39153" d="M934.257,-65.6548C940.37,-57.7964 949.908,-45.5348 957.99,-35.1446"/>
<polygon fill="green" stroke="green" stroke-width="0.39153" points="960.953,-37.0367 964.33,-26.9946 955.428,-32.7387 960.953,-37.0367"/>
</g>
<!-- &#45;6 -->
<g id="node6" class="node"><title>&#45;6</title>
<polygon fill="lightgray" stroke="black" points="24,-83.6985 0,-83.6985 0,-65.6985 24,-65.6985 24,-83.6985"/>
<text text-anchor="middle" x="12" y="-72.4985" font-family="Times New Roman,serif" font-size="9.00">&#45;6</text>
</g>
<!-- &#45;6&#45;&gt;0 -->
<g id="edge21" class="edge"><title>&#45;6&#45;&gt;0</title>
<path fill="none" stroke="red" stroke-width="0.180377" d="M24.2388,-68.2805C27.0649,-67.243 30.0956,-66.2954 33,-65.6985 222.102,-26.8309 715.593,-83.4978 901,-29.6985 902.063,-29.3901 903.128,-29.0254 904.187,-28.6169"/>
<polygon fill="red" stroke="red" stroke-width="0.180377" points="905.898,-31.6756 913.304,-24.0997 902.79,-25.4032 905.898,-31.6756"/>
</g>
<!-- &#45;6&#45;&gt;1 -->
<g id="edge22" class="edge"><title>&#45;6&#45;&gt;1</title>
<path fill="none" stroke="green" stroke-width="0.312544" d="M24.2399,-68.2857C27.0659,-67.248 30.0964,-66.299 33,-65.6985 211.618,-28.76 677.89,-80.7402 853,-29.6985 854.062,-29.3889 855.127,-29.0231 856.186,-28.6137"/>
<polygon fill="green" stroke="green" stroke-width="0.312544" points="857.898,-31.6716 865.302,-24.0933 854.788,-25.4002 857.898,-31.6716"/>
</g>
<!-- &#45;6&#45;&gt;2 -->
<g id="edge23" class="edge"><title>&#45;6&#45;&gt;2</title>
<path fill="none" stroke="green" stroke-width="0.391638" d="M24.2484,-68.3258C27.074,-67.2861 30.1021,-66.326 33,-65.6985 185.403,-32.695 685.804,-19.1783 803.877,-16.4061"/>
<polygon fill="green" stroke="green" stroke-width="0.391638" points="804.169,-19.9004 814.086,-16.1711 804.008,-12.9023 804.169,-19.9004"/>
</g>
<!-- &#45;7 -->
<g id="node7" class="node"><title>&#45;7</title>
<polygon fill="lightgray" stroke="black" points="982,-83.6985 958,-83.6985 958,-65.6985 982,-65.6985 982,-83.6985"/>
<text text-anchor="middle" x="970" y="-72.4985" font-family="Times New Roman,serif" font-size="9.00">&#45;7</text>
</g>
<!-- &#45;7&#45;&gt;0 -->
<g id="edge24" class="edge"><title>&#45;7&#45;&gt;0</title>
<path fill="none" stroke="red" stroke-width="0.244778" d="M963.743,-65.6548C957.63,-57.7964 948.092,-45.5348 940.01,-35.1446"/>
<polygon fill="red" stroke="red" stroke-width="0.244778" points="942.572,-32.7387 933.67,-26.9946 937.047,-37.0367 942.572,-32.7387"/>
</g>
<!-- &#45;7&#45;&gt;1 -->
<g id="edge25" class="edge"><title>&#45;7&#45;&gt;1</title>
<path fill="none" stroke="red" stroke-width="0.485972" d="M957.842,-66.1357C942.595,-56.6513 916.217,-40.2435 897.751,-28.7572"/>
<polygon fill="red" stroke="red" stroke-width="0.485972" points="899.501,-25.7238 889.161,-23.4139 895.804,-31.6677 899.501,-25.7238"/>
</g>
<!-- &#45;7&#45;&gt;2 -->
<g id="edge26" class="edge"><title>&#45;7&#45;&gt;2</title>
<path fill="none" stroke="green" stroke-width="0.32206" d="M957.567,-68.9499C954.751,-67.8778 951.774,-66.7468 949,-65.6985 906.375,-49.5874 894.207,-49.1519 853,-29.6985 852.163,-29.3031 851.315,-28.889 850.465,-28.461"/>
<polygon fill="green" stroke="green" stroke-width="0.32206" points="851.952,-25.2859 841.496,-23.5792 848.606,-31.4341 851.952,-25.2859"/>
</g>
<!-- &#45;7&#45;&gt;3 -->
<g id="edge27" class="edge"><title>&#45;7&#45;&gt;3</title>
<path fill="none" stroke="green" stroke-width="0.451202" d="M970.417,-65.6548C970.76,-59.0498 971.263,-49.3344 971.735,-40.2339"/>
<polygon fill="green" stroke="green" stroke-width="0.451202" points="975.241,-40.2242 972.263,-30.0563 968.25,-39.8616 975.241,-40.2242"/>
</g>
<!-- &#45;8 -->
<g id="node8" class="node"><title>&#45;8</title>
<polygon fill="lightgray" stroke="black" points="1024,-83.6985 1000,-83.6985 1000,-65.6985 1024,-65.6985 1024,-83.6985"/>
<text text-anchor="middle" x="1012" y="-72.4985" font-family="Times New Roman,serif" font-size="9.00">&#45;8</text>
</g>
<!-- &#45;8&#45;&gt;0 -->
<g id="edge28" class="edge"><title>&#45;8&#45;&gt;0</title>
<path fill="none" stroke="green" stroke-width="0.105293" d="M999.903,-65.6548C985.879,-56.3294 962.529,-40.8037 945.623,-29.5624"/>
<polygon fill="green" stroke="green" stroke-width="0.105293" points="947.259,-26.4472 936.994,-23.8246 943.383,-32.2762 947.259,-26.4472"/>
</g>
<!-- &#45;8&#45;&gt;1 -->
<g id="edge29" class="edge"><title>&#45;8&#45;&gt;1</title>
<path fill="none" stroke="green" stroke-width="0.265152" d="M999.729,-68.9509C972.831,-58.5279 910.331,-34.2104 901,-29.6985 900.166,-29.2954 899.322,-28.8746 898.474,-28.441"/>
<polygon fill="green" stroke="green" stroke-width="0.265152" points="899.969,-25.2694 889.518,-23.5332 896.606,-31.4082 899.969,-25.2694"/>
</g>
<!-- &#45;8&#45;&gt;2 -->
<g id="edge30" class="edge"><title>&#45;8&#45;&gt;2</title>
<path fill="none" stroke="red" stroke-width="0.575737" d="M999.642,-68.7349C996.822,-67.6739 993.824,-66.6018 991,-65.6985 930.627,-46.3874 911.644,-53.7548 853,-29.6985 852.143,-29.347 851.28,-28.9701 850.415,-28.5736"/>
<polygon fill="red" stroke="red" stroke-width="0.575737" points="851.864,-25.3812 841.382,-23.8383 848.614,-31.5811 851.864,-25.3812"/>
</g>
<!-- &#45;8&#45;&gt;3 -->
<g id="edge31" class="edge"><title>&#45;8&#45;&gt;3</title>
<path fill="none" stroke="green" stroke-width="0.440262" d="M1006.58,-65.6548C1001.46,-58.067 993.579,-46.3743 986.736,-36.2246"/>
<polygon fill="green" stroke="green" stroke-width="0.440262" points="989.579,-34.1796 981.087,-27.8444 983.775,-38.0926 989.579,-34.1796"/>
</g>
<!-- &#45;9 -->
<g id="node9" class="node"><title>&#45;9</title>
<polygon fill="lightgray" stroke="black" points="1725,-83.6985 1701,-83.6985 1701,-65.6985 1725,-65.6985 1725,-83.6985"/>
<text text-anchor="middle" x="1713" y="-72.4985" font-family="Times New Roman,serif" font-size="9.00">&#45;9</text>
</g>
<!-- &#45;9&#45;&gt;0 -->
<g id="edge32" class="edge"><title>&#45;9&#45;&gt;0</title>
<path fill="none" stroke="red" stroke-width="0.290436" stroke-dasharray="1,5" d="M1700.76,-68.2955C1697.93,-67.2573 1694.9,-66.3056 1692,-65.6985 1530.2,-31.8542 1107.6,-76.3171 949,-29.6985 947.938,-29.3864 946.874,-29.0187 945.816,-28.6077"/>
<polygon fill="red" stroke="red" stroke-width="0.290436" points="947.214,-25.3946 936.701,-24.0814 944.101,-31.6641 947.214,-25.3946"/>
</g>
<!-- &#45;9&#45;&gt;1 -->
<g id="edge33" class="edge"><title>&#45;9&#45;&gt;1</title>
<path fill="none" stroke="red" stroke-width="0.121154" d="M1700.76,-68.2891C1697.93,-67.2513 1694.9,-66.3013 1692,-65.6985 1519.72,-29.9254 1069.89,-79.0742 901,-29.6985 899.938,-29.388 898.873,-29.0215 897.814,-28.6116"/>
<polygon fill="red" stroke="red" stroke-width="0.121154" points="899.213,-25.3982 888.699,-24.0891 896.101,-31.6689 899.213,-25.3982"/>
</g>
<!-- &#45;9&#45;&gt;3 -->
<g id="edge34" class="edge"><title>&#45;9&#45;&gt;3</title>
<path fill="none" stroke="green" stroke-width="0.62181" d="M1700.75,-68.3402C1697.92,-67.2997 1694.9,-66.3357 1692,-65.6985 1555.4,-35.6383 1109.01,-20.0628 998.112,-16.5992"/>
<polygon fill="green" stroke="green" stroke-width="0.62181" points="998.003,-13.0943 987.9,-16.2851 997.788,-20.091 998.003,-13.0943"/>
</g>
<!-- &#45;10 -->
<g id="node10" class="node"><title>&#45;10</title>
<polygon fill="lightgray" stroke="black" points="1071.5,-83.6985 1042.5,-83.6985 1042.5,-65.6985 1071.5,-65.6985 1071.5,-83.6985"/>
<text text-anchor="middle" x="1057" y="-72.4985" font-family="Times New Roman,serif" font-size="9.00">&#45;10</text>
</g>
<!-- &#45;10&#45;&gt;0 -->
<g id="edge35" class="edge"><title>&#45;10&#45;&gt;0</title>
<path fill="none" stroke="green" stroke-width="0.112435" d="M1042.4,-68.4748C1021.38,-60.7937 981.552,-45.6291 949,-29.6985 948.168,-29.2914 947.326,-28.8673 946.479,-28.4309"/>
<polygon fill="green" stroke="green" stroke-width="0.112435" points="947.978,-25.2611 937.529,-23.5099 944.606,-31.395 947.978,-25.2611"/>
</g>
<!-- &#45;10&#45;&gt;1 -->
<g id="edge36" class="edge"><title>&#45;10&#45;&gt;1</title>
<path fill="none" stroke="green" stroke-width="0.308169" d="M1042.32,-68.6612C1039.25,-67.6486 1036.03,-66.6149 1033,-65.6985 974.8,-48.0769 957.131,-53.088 901,-29.6985 900.145,-29.3423 899.283,-28.9614 898.42,-28.5614"/>
<polygon fill="green" stroke="green" stroke-width="0.308169" points="899.873,-25.3707 889.393,-23.8104 896.612,-31.5652 899.873,-25.3707"/>
</g>
<!-- &#45;10&#45;&gt;2 -->
<g id="edge37" class="edge"><title>&#45;10&#45;&gt;2</title>
<path fill="none" stroke="green" stroke-width="0.373713" d="M1042.36,-68.4989C1039.29,-67.4981 1036.06,-66.5101 1033,-65.6985 954.149,-44.7584 929.343,-58.4679 853,-29.6985 852.133,-29.3719 851.262,-29.0162 850.39,-28.6375"/>
<polygon fill="green" stroke="green" stroke-width="0.373713" points="851.819,-25.4368 841.324,-23.9854 848.623,-31.6648 851.819,-25.4368"/>
</g>
<!-- &#45;10&#45;&gt;3 -->
<g id="edge38" class="edge"><title>&#45;10&#45;&gt;3</title>
<path fill="none" stroke="red" stroke-width="0.178155" d="M1045.32,-65.6548C1031.86,-56.3818 1009.49,-40.978 993.188,-29.7523"/>
<polygon fill="red" stroke="red" stroke-width="0.178155" points="995.073,-26.8005 984.851,-24.0111 991.102,-32.5656 995.073,-26.8005"/>
</g>
<!-- &#45;11 -->
<g id="node11" class="node"><title>&#45;11</title>
<polygon fill="lightgray" stroke="black" points="1118.5,-83.6985 1089.5,-83.6985 1089.5,-65.6985 1118.5,-65.6985 1118.5,-83.6985"/>
<text text-anchor="middle" x="1104" y="-72.4985" font-family="Times New Roman,serif" font-size="9.00">&#45;11</text>
</g>
<!-- &#45;11&#45;&gt;0 -->
<g id="edge39" class="edge"><title>&#45;11&#45;&gt;0</title>
<path fill="none" stroke="green" stroke-width="0.129931" d="M1089.45,-68.4687C1086.66,-67.5127 1083.75,-66.5494 1081,-65.6985 1022.92,-47.6994 1005.13,-53.088 949,-29.6985 948.145,-29.3423 947.283,-28.9614 946.42,-28.5614"/>
<polygon fill="green" stroke="green" stroke-width="0.129931" points="947.873,-25.3707 937.393,-23.8104 944.612,-31.5652 947.873,-25.3707"/>
</g>
<!-- &#45;11&#45;&gt;1 -->
<g id="edge40" class="edge"><title>&#45;11&#45;&gt;1</title>
<path fill="none" stroke="green" stroke-width="0.337044" d="M1089.49,-68.315C1086.7,-67.3732 1083.77,-66.4544 1081,-65.6985 1002.29,-44.2469 977.343,-58.4679 901,-29.6985 900.133,-29.3719 899.262,-29.0162 898.39,-28.6375"/>
<polygon fill="green" stroke="green" stroke-width="0.337044" points="899.819,-25.4368 889.324,-23.9854 896.623,-31.6648 899.819,-25.4368"/>
</g>
<!-- &#45;11&#45;&gt;2 -->
<g id="edge41" class="edge"><title>&#45;11&#45;&gt;2</title>
<path fill="none" stroke="red" stroke-width="0.178737" d="M1089.02,-68.0589C1086.37,-67.1856 1083.62,-66.3565 1081,-65.6985 981.492,-40.7483 949.716,-63.9094 853,-29.6985 852.127,-29.3897 851.25,-29.049 850.373,-28.683"/>
<polygon fill="red" stroke="red" stroke-width="0.178737" points="851.789,-25.477 841.286,-24.0902 848.632,-31.7245 851.789,-25.477"/>
</g>
<!-- &#45;11&#45;&gt;3 -->
<g id="edge42" class="edge"><title>&#45;11&#45;&gt;3</title>
<path fill="none" stroke="green" stroke-width="0.136777" d="M1089.48,-67.2866C1066.8,-57.2699 1022.77,-37.8266 995.817,-25.925"/>
<polygon fill="green" stroke="green" stroke-width="0.136777" points="996.965,-22.6062 986.404,-21.7683 994.138,-29.0097 996.965,-22.6062"/>
</g>
<!-- &#45;12 -->
<g id="node12" class="node"><title>&#45;12</title>
<polygon fill="lightgray" stroke="black" points="1165.5,-83.6985 1136.5,-83.6985 1136.5,-65.6985 1165.5,-65.6985 1165.5,-83.6985"/>
<text text-anchor="middle" x="1151" y="-72.4985" font-family="Times New Roman,serif" font-size="9.00">&#45;12</text>
</g>
<!-- &#45;12&#45;&gt;0 -->
<g id="edge43" class="edge"><title>&#45;12&#45;&gt;0</title>
<path fill="none" stroke="green" stroke-width="0.259794" d="M1136.49,-68.3174C1133.7,-67.3754 1130.77,-66.4559 1128,-65.6985 1049.72,-44.3194 1024.92,-58.3551 949,-29.6985 948.134,-29.3715 947.262,-29.0153 946.39,-28.6363"/>
<polygon fill="green" stroke="green" stroke-width="0.259794" points="947.82,-25.4358 937.325,-23.9826 944.623,-31.6632 947.82,-25.4358"/>
</g>
<!-- &#45;12&#45;&gt;1 -->
<g id="edge44" class="edge"><title>&#45;12&#45;&gt;1</title>
<path fill="none" stroke="red" stroke-width="0.179159" d="M1136.02,-68.0604C1133.37,-67.1869 1130.62,-66.3574 1128,-65.6985 1028.93,-40.8215 997.291,-63.7957 901,-29.6985 900.127,-29.3894 899.25,-29.0484 898.374,-28.6822"/>
<polygon fill="red" stroke="red" stroke-width="0.179159" points="899.79,-25.4764 889.286,-24.0884 896.632,-31.7235 899.79,-25.4764"/>
</g>
<!-- &#45;12&#45;&gt;2 -->
<g id="edge45" class="edge"><title>&#45;12&#45;&gt;2</title>
<path fill="none" stroke="red" stroke-width="0.536991" d="M1136.04,-68.0003C1133.39,-67.1334 1130.63,-66.3218 1128,-65.6985 1008.05,-37.3025 969.742,-69.265 853,-29.6985 852.123,-29.4012 851.242,-29.0704 850.363,-28.7127"/>
<polygon fill="red" stroke="red" stroke-width="0.536991" points="851.771,-25.5035 841.262,-24.1585 848.638,-31.7635 851.771,-25.5035"/>
</g>
<!-- &#45;12&#45;&gt;3 -->
<g id="edge46" class="edge"><title>&#45;12&#45;&gt;3</title>
<path fill="none" stroke="green" stroke-width="0.184642" d="M1136.42,-68.5681C1133.63,-67.603 1130.73,-66.6109 1128,-65.6985 1081.72,-50.2106 1027.37,-32.9408 996.878,-23.3365"/>
<polygon fill="green" stroke="green" stroke-width="0.184642" points="997.731,-19.9357 987.142,-20.2746 995.631,-26.6133 997.731,-19.9357"/>
</g>
<!-- &#45;13 -->
<g id="node13" class="node"><title>&#45;13</title>
<polygon fill="lightgray" stroke="black" points="1212.5,-83.6985 1183.5,-83.6985 1183.5,-65.6985 1212.5,-65.6985 1212.5,-83.6985"/>
<text text-anchor="middle" x="1198" y="-72.4985" font-family="Times New Roman,serif" font-size="9.00">&#45;13</text>
</g>
<!-- &#45;13&#45;&gt;0 -->
<g id="edge47" class="edge"><title>&#45;13&#45;&gt;0</title>
<path fill="none" stroke="red" stroke-width="0.200034" stroke-dasharray="1,5" d="M1183.02,-68.062C1180.37,-67.1882 1177.62,-66.3583 1175,-65.6985 1076.36,-40.8946 1044.87,-63.6819 949,-29.6985 948.127,-29.3891 947.25,-29.0479 946.374,-28.6815"/>
<polygon fill="red" stroke="red" stroke-width="0.200034" points="947.79,-25.4757 937.287,-24.0867 944.631,-31.7225 947.79,-25.4757"/>
</g>
<!-- &#45;13&#45;&gt;1 -->
<g id="edge48" class="edge"><title>&#45;13&#45;&gt;1</title>
<path fill="none" stroke="green" stroke-width="0.202505" d="M1183.04,-68.0014C1180.39,-67.1344 1177.63,-66.3224 1175,-65.6985 1055.49,-37.376 1017.32,-69.1509 901,-29.6985 900.123,-29.401 899.242,-29.07 898.363,-28.7121"/>
<polygon fill="green" stroke="green" stroke-width="0.202505" points="899.771,-25.503 889.262,-24.1573 896.638,-31.7628 899.771,-25.503"/>
</g>
<!-- &#45;13&#45;&gt;2 -->
<g id="edge49" class="edge"><title>&#45;13&#45;&gt;2</title>
<path fill="none" stroke="green" stroke-width="0.351957" d="M1183.05,-67.9584C1180.4,-67.0962 1177.64,-66.297 1175,-65.6985 1034.56,-33.846 989.812,-74.6355 853,-29.6985 852.12,-29.4095 851.237,-29.0857 850.356,-28.7339"/>
<polygon fill="green" stroke="green" stroke-width="0.351957" points="851.758,-25.5226 841.246,-24.2073 848.644,-31.7914 851.758,-25.5226"/>
</g>
<!-- &#45;13&#45;&gt;3 -->
<g id="edge50" class="edge"><title>&#45;13&#45;&gt;3</title>
<path fill="none" stroke="green" stroke-width="0.110568" d="M1183.47,-68.4146C1180.67,-67.4636 1177.76,-66.516 1175,-65.6985 1111.65,-46.9075 1035.68,-29.5164 997.486,-21.1205"/>
<polygon fill="green" stroke="green" stroke-width="0.110568" points="997.843,-17.6161 987.327,-18.9045 996.351,-24.4553 997.843,-17.6161"/>
</g>
<!-- &#45;14 -->
<g id="node14" class="node"><title>&#45;14</title>
<polygon fill="lightgray" stroke="black" points="1259.5,-83.6985 1230.5,-83.6985 1230.5,-65.6985 1259.5,-65.6985 1259.5,-83.6985"/>
<text text-anchor="middle" x="1245" y="-72.4985" font-family="Times New Roman,serif" font-size="9.00">&#45;14</text>
</g>
<!-- &#45;14&#45;&gt;0 -->
<g id="edge51" class="edge"><title>&#45;14&#45;&gt;0</title>
<path fill="none" stroke="red" stroke-width="0.358429" d="M1230.04,-68.0024C1227.39,-67.1353 1224.63,-66.323 1222,-65.6985 1102.92,-37.4494 1064.89,-69.0368 949,-29.6985 948.123,-29.4008 947.242,-29.0696 946.363,-28.7116"/>
<polygon fill="red" stroke="red" stroke-width="0.358429" points="947.772,-25.5026 937.263,-24.156 944.638,-31.7621 947.772,-25.5026"/>
</g>
<!-- &#45;14&#45;&gt;1 -->
<g id="edge52" class="edge"><title>&#45;14&#45;&gt;1</title>
<path fill="none" stroke="green" stroke-width="0.451296" d="M1230.05,-67.9592C1227.4,-67.0969 1224.64,-66.2974 1222,-65.6985 1082,-33.9197 1037.38,-74.5211 901,-29.6985 900.12,-29.4094 899.237,-29.0854 898.356,-28.7335"/>
<polygon fill="green" stroke="green" stroke-width="0.451296" points="899.759,-25.5222 889.246,-24.2064 896.644,-31.7909 899.759,-25.5222"/>
</g>
<!-- &#45;14&#45;&gt;2 -->
<g id="edge53" class="edge"><title>&#45;14&#45;&gt;2</title>
<path fill="none" stroke="green" stroke-width="0.199108" d="M1230.05,-67.9271C1227.4,-67.0683 1224.64,-66.2784 1222,-65.6985 1061.05,-30.3832 1009.91,-80.0149 853,-29.6985 851.946,-29.3606 850.888,-28.9717 849.835,-28.5436"/>
<polygon fill="green" stroke="green" stroke-width="0.199108" points="851.245,-25.3345 840.74,-23.9543 848.091,-31.584 851.245,-25.3345"/>
</g>
<!-- &#45;14&#45;&gt;3 -->
<g id="edge54" class="edge"><title>&#45;14&#45;&gt;3</title>
<path fill="none" stroke="red" stroke-width="0.343186" d="M1230.49,-68.3154C1227.7,-67.3736 1224.77,-66.4547 1222,-65.6985 1141.05,-43.63 1042.85,-26.8243 997.783,-19.6525"/>
<polygon fill="red" stroke="red" stroke-width="0.343186" points="998.18,-16.172 987.758,-18.0774 997.094,-23.0872 998.18,-16.172"/>
</g>
<!-- &#45;15 -->
<g id="node15" class="node"><title>&#45;15</title>
<polygon fill="lightgray" stroke="black" points="1306.5,-83.6985 1277.5,-83.6985 1277.5,-65.6985 1306.5,-65.6985 1306.5,-83.6985"/>
<text text-anchor="middle" x="1292" y="-72.4985" font-family="Times New Roman,serif" font-size="9.00">&#45;15</text>
</g>
<!-- &#45;15&#45;&gt;0 -->
<g id="edge55" class="edge"><title>&#45;15&#45;&gt;0</title>
<path fill="none" stroke="green" stroke-width="0.170769" d="M1277.05,-67.96C1274.4,-67.0976 1271.64,-66.2979 1269,-65.6985 1129.44,-33.9933 1084.96,-74.4067 949,-29.6985 948.12,-29.4092 947.237,-29.0851 946.356,-28.7331"/>
<polygon fill="green" stroke="green" stroke-width="0.170769" points="947.759,-25.5219 937.246,-24.2055 944.643,-31.7904 947.759,-25.5219"/>
</g>
<!-- &#45;15&#45;&gt;1 -->
<g id="edge56" class="edge"><title>&#45;15&#45;&gt;1</title>
<path fill="none" stroke="green" stroke-width="0.296426" d="M1277.05,-67.9276C1274.4,-67.0688 1271.64,-66.2787 1269,-65.6985 1108.49,-30.4569 1057.48,-79.9004 901,-29.6985 899.946,-29.3605 898.888,-28.9714 897.835,-28.5432"/>
<polygon fill="green" stroke="green" stroke-width="0.296426" points="899.245,-25.3342 888.74,-23.9536 896.091,-31.5835 899.245,-25.3342"/>
</g>
<!-- &#45;15&#45;&gt;2 -->
<g id="edge57" class="edge"><title>&#45;15&#45;&gt;2</title>
<path fill="none" stroke="green" stroke-width="0.297623" stroke-dasharray="1,5" d="M1277.06,-67.9027C1274.41,-67.0466 1271.65,-66.2639 1269,-65.6985 1087.52,-26.9163 1030.02,-85.4002 853,-29.6985 851.945,-29.3664 850.885,-28.9822 849.831,-28.5579"/>
<polygon fill="green" stroke="green" stroke-width="0.297623" points="851.238,-25.3479 840.731,-23.9826 848.093,-31.6018 851.238,-25.3479"/>
</g>
<!-- &#45;15&#45;&gt;3 -->
<g id="edge58" class="edge"><title>&#45;15&#45;&gt;3</title>
<path fill="none" stroke="red" stroke-width="0.119851" d="M1277.02,-68.0816C1274.37,-67.2057 1271.62,-66.37 1269,-65.6985 1170,-40.336 1048.97,-24.5781 997.765,-18.5932"/>
<polygon fill="red" stroke="red" stroke-width="0.119851" points="997.991,-15.0962 987.657,-17.4337 997.193,-22.0506 997.991,-15.0962"/>
</g>
<!-- &#45;16 -->
<g id="node16" class="node"><title>&#45;16</title>
<polygon fill="lightgray" stroke="black" points="1353.5,-83.6985 1324.5,-83.6985 1324.5,-65.6985 1353.5,-65.6985 1353.5,-83.6985"/>
<text text-anchor="middle" x="1339" y="-72.4985" font-family="Times New Roman,serif" font-size="9.00">&#45;16</text>
</g>
<!-- &#45;16&#45;&gt;0 -->
<g id="edge59" class="edge"><title>&#45;16&#45;&gt;0</title>
<path fill="none" stroke="green" stroke-width="0.138287" d="M1324.05,-67.9282C1321.4,-67.0694 1318.64,-66.2791 1316,-65.6985 1155.92,-30.5307 1105.05,-79.7859 949,-29.6985 947.946,-29.3603 946.889,-28.9712 945.836,-28.5429"/>
<polygon fill="green" stroke="green" stroke-width="0.138287" points="947.245,-25.3339 936.741,-23.9529 944.091,-31.5831 947.245,-25.3339"/>
</g>
<!-- &#45;16&#45;&gt;1 -->
<g id="edge60" class="edge"><title>&#45;16&#45;&gt;1</title>
<path fill="none" stroke="green" stroke-width="0.625461" d="M1324.06,-67.9031C1321.41,-67.0471 1318.65,-66.2642 1316,-65.6985 1134.95,-26.9901 1077.6,-85.2855 901,-29.6985 899.945,-29.3663 898.885,-28.982 897.831,-28.5576"/>
<polygon fill="green" stroke="green" stroke-width="0.625461" points="899.238,-25.3476 888.731,-23.9821 896.093,-31.6015 899.238,-25.3476"/>
</g>
<!-- &#45;16&#45;&gt;2 -->
<g id="edge61" class="edge"><title>&#45;16&#45;&gt;2</title>
<path fill="none" stroke="red" stroke-width="0.294799" d="M1324.06,-67.8832C1321.41,-67.0293 1318.65,-66.2524 1316,-65.6985 1113.97,-23.4466 1050.15,-90.7894 853,-29.6985 851.943,-29.371 850.882,-28.9906 849.827,-28.5693"/>
<polygon fill="red" stroke="red" stroke-width="0.294799" points="851.232,-25.3586 840.724,-24.0053 848.095,-31.6161 851.232,-25.3586"/>
</g>
<!-- &#45;16&#45;&gt;3 -->
<g id="edge62" class="edge"><title>&#45;16&#45;&gt;3</title>
<path fill="none" stroke="green" stroke-width="0.253114" d="M1324.03,-68.0317C1321.38,-67.1614 1318.63,-66.3404 1316,-65.6985 1199,-37.124 1055.28,-22.7589 998.141,-17.8514"/>
<polygon fill="green" stroke="green" stroke-width="0.253114" points="998.159,-14.3408 987.902,-16.9946 997.576,-21.3164 998.159,-14.3408"/>
</g>
<!-- &#45;17 -->
<g id="node17" class="node"><title>&#45;17</title>
<polygon fill="lightgray" stroke="black" points="1400.5,-83.6985 1371.5,-83.6985 1371.5,-65.6985 1400.5,-65.6985 1400.5,-83.6985"/>
<text text-anchor="middle" x="1386" y="-72.4985" font-family="Times New Roman,serif" font-size="9.00">&#45;17</text>
</g>
<!-- &#45;17&#45;&gt;0 -->
<g id="edge63" class="edge"><title>&#45;17&#45;&gt;0</title>
<path fill="none" stroke="red" stroke-width="0.190349" d="M1371.06,-67.9036C1368.41,-67.0475 1365.65,-66.2645 1363,-65.6985 1182.39,-27.0639 1125.17,-85.1709 949,-29.6985 947.945,-29.3662 946.885,-28.9818 945.831,-28.5573"/>
<polygon fill="red" stroke="red" stroke-width="0.190349" points="947.238,-25.3474 936.732,-23.9816 944.093,-31.6012 947.238,-25.3474"/>
</g>
<!-- &#45;17&#45;&gt;1 -->
<g id="edge64" class="edge"><title>&#45;17&#45;&gt;1</title>
<path fill="none" stroke="red" stroke-width="0.187943" d="M1371.06,-67.8835C1368.41,-67.0297 1365.65,-66.2526 1363,-65.6985 1161.41,-23.5205 1097.72,-90.6747 901,-29.6985 899.943,-29.3709 898.882,-28.9904 897.827,-28.5691"/>
<polygon fill="red" stroke="red" stroke-width="0.187943" points="899.232,-25.3584 888.724,-24.0049 896.095,-31.6158 899.232,-25.3584"/>
</g>
<!-- &#45;17&#45;&gt;2 -->
<g id="edge65" class="edge"><title>&#45;17&#45;&gt;2</title>
<path fill="none" stroke="red" stroke-width="0.10731" d="M1371.07,-67.8672C1368.41,-67.0152 1365.65,-66.2429 1363,-65.6985 1140.42,-19.9749 1070.29,-96.1815 853,-29.6985 851.942,-29.3748 850.88,-28.9974 849.824,-28.5787"/>
<polygon fill="red" stroke="red" stroke-width="0.10731" points="851.228,-25.3673 840.718,-24.0239 848.096,-31.6278 851.228,-25.3673"/>
</g>
<!-- &#45;17&#45;&gt;3 -->
<g id="edge66" class="edge"><title>&#45;17&#45;&gt;3</title>
<path fill="none" stroke="green" stroke-width="0.192748" d="M1371.04,-67.9936C1368.39,-67.1274 1365.63,-66.3178 1363,-65.6985 1227.6,-33.863 1060.66,-21.125 998.173,-17.2522"/>
<polygon fill="green" stroke="green" stroke-width="0.192748" points="998.268,-13.7517 988.077,-16.6483 997.85,-20.7392 998.268,-13.7517"/>
</g>
<!-- &#45;18 -->
<g id="node18" class="node"><title>&#45;18</title>
<polygon fill="lightgray" stroke="black" points="1447.5,-83.6985 1418.5,-83.6985 1418.5,-65.6985 1447.5,-65.6985 1447.5,-83.6985"/>
<text text-anchor="middle" x="1433" y="-72.4985" font-family="Times New Roman,serif" font-size="9.00">&#45;18</text>
</g>
<!-- &#45;18&#45;&gt;0 -->
<g id="edge67" class="edge"><title>&#45;18&#45;&gt;0</title>
<path fill="none" stroke="green" stroke-width="0.293626" d="M1418.06,-67.8839C1415.41,-67.03 1412.65,-66.2528 1410,-65.6985 1208.85,-23.5943 1145.29,-90.56 949,-29.6985 947.943,-29.3708 946.883,-28.9902 945.827,-28.5689"/>
<polygon fill="green" stroke="green" stroke-width="0.293626" points="947.232,-25.3582 936.724,-24.0045 944.095,-31.6156 947.232,-25.3582"/>
</g>
<!-- &#45;18&#45;&gt;1 -->
<g id="edge68" class="edge"><title>&#45;18&#45;&gt;1</title>
<path fill="none" stroke="green" stroke-width="0.557783" d="M1418.07,-67.8676C1415.41,-67.0154 1412.65,-66.2431 1410,-65.6985 1187.85,-20.0488 1117.86,-96.0667 901,-29.6985 899.942,-29.3747 898.88,-28.9973 897.824,-28.5785"/>
<polygon fill="green" stroke="green" stroke-width="0.557783" points="899.228,-25.3672 888.719,-24.0235 896.096,-31.6276 899.228,-25.3672"/>
</g>
<!-- &#45;18&#45;&gt;2 -->
<g id="edge69" class="edge"><title>&#45;18&#45;&gt;2</title>
<path fill="none" stroke="red" stroke-width="0.440288" d="M1418.07,-67.854C1415.42,-67.0034 1412.65,-66.2351 1410,-65.6985 1166.86,-16.5018 1090.43,-101.576 853,-29.6985 851.941,-29.3779 850.879,-29.0031 849.822,-28.5865"/>
<polygon fill="red" stroke="red" stroke-width="0.440288" points="851.224,-25.3746 840.714,-24.0393 848.097,-31.6375 851.224,-25.3746"/>
</g>
<!-- &#45;18&#45;&gt;3 -->
<g id="edge70" class="edge"><title>&#45;18&#45;&gt;3</title>
<path fill="none" stroke="green" stroke-width="0.222839" d="M1418.05,-67.9634C1415.39,-67.1007 1412.64,-66.2999 1410,-65.6985 1255.91,-30.5666 1065.32,-19.6578 997.985,-16.7682"/>
<polygon fill="green" stroke="green" stroke-width="0.222839" points="998.046,-13.2679 987.912,-16.3574 997.761,-20.2621 998.046,-13.2679"/>
</g>
<!-- &#45;19 -->
<g id="node19" class="node"><title>&#45;19</title>
<polygon fill="lightgray" stroke="black" points="1494.5,-83.6985 1465.5,-83.6985 1465.5,-65.6985 1494.5,-65.6985 1494.5,-83.6985"/>
<text text-anchor="middle" x="1480" y="-72.4985" font-family="Times New Roman,serif" font-size="9.00">&#45;19</text>
</g>
<!-- &#45;19&#45;&gt;0 -->
<g id="edge71" class="edge"><title>&#45;19&#45;&gt;0</title>
<path fill="none" stroke="green" stroke-width="0.114342" d="M1465.07,-67.8679C1462.41,-67.0157 1459.65,-66.2433 1457,-65.6985 1235.29,-20.1227 1165.43,-95.952 949,-29.6985 947.942,-29.3746 946.88,-28.9972 945.824,-28.5783"/>
<polygon fill="green" stroke="green" stroke-width="0.114342" points="947.228,-25.367 936.719,-24.0232 944.096,-31.6274 947.228,-25.367"/>
</g>
<!-- &#45;19&#45;&gt;1 -->
<g id="edge72" class="edge"><title>&#45;19&#45;&gt;1</title>
<path fill="none" stroke="red" stroke-width="0.327146" stroke-dasharray="1,5" d="M1465.07,-67.8542C1462.42,-67.0036 1459.65,-66.2352 1457,-65.6985 1214.29,-16.5757 1138,-101.461 901,-29.6985 899.941,-29.3778 898.879,-29.003 897.822,-28.5863"/>
<polygon fill="red" stroke="red" stroke-width="0.327146" points="899.224,-25.3745 888.714,-24.039 896.097,-31.6373 899.224,-25.3745"/>
</g>
<!-- &#45;19&#45;&gt;2 -->
<g id="edge73" class="edge"><title>&#45;19&#45;&gt;2</title>
<path fill="none" stroke="green" stroke-width="0.348345" d="M1465.07,-67.8428C1462.42,-66.9934 1459.65,-66.2284 1457,-65.6985 1193.29,-13.0276 1110.58,-106.971 853,-29.6985 851.94,-29.3806 850.877,-29.008 849.82,-28.5931"/>
<polygon fill="green" stroke="green" stroke-width="0.348345" points="851.221,-25.3808 840.71,-24.0524 848.098,-31.6458 851.221,-25.3808"/>
</g>
<!-- &#45;19&#45;&gt;3 -->
<g id="edge74" class="edge"><title>&#45;19&#45;&gt;3</title>
<path fill="none" stroke="green" stroke-width="0.154145" d="M1465.05,-67.939C1462.4,-67.079 1459.64,-66.2855 1457,-65.6985 1284.41,-27.3419 1070.5,-18.3833 998.21,-16.3913"/>
<polygon fill="green" stroke="green" stroke-width="0.154145" points="997.937,-12.8834 987.851,-16.128 997.759,-19.8811 997.937,-12.8834"/>
</g>
<!-- &#45;20 -->
<g id="node20" class="node"><title>&#45;20</title>
<polygon fill="lightgray" stroke="black" points="1541.5,-83.6985 1512.5,-83.6985 1512.5,-65.6985 1541.5,-65.6985 1541.5,-83.6985"/>
<text text-anchor="middle" x="1527" y="-72.4985" font-family="Times New Roman,serif" font-size="9.00">&#45;20</text>
</g>
<!-- &#45;20&#45;&gt;0 -->
<g id="edge75" class="edge"><title>&#45;20&#45;&gt;0</title>
<path fill="none" stroke="red" stroke-width="0.127805" d="M1512.07,-67.8545C1509.42,-67.0038 1506.65,-66.2354 1504,-65.6985 1261.73,-16.6496 1185.57,-101.346 949,-29.6985 947.941,-29.3778 946.879,-29.0029 945.822,-28.5862"/>
<polygon fill="red" stroke="red" stroke-width="0.127805" points="947.224,-25.3744 936.714,-24.0387 944.097,-31.6372 947.224,-25.3744"/>
</g>
<!-- &#45;20&#45;&gt;1 -->
<g id="edge76" class="edge"><title>&#45;20&#45;&gt;1</title>
<path fill="none" stroke="green" stroke-width="0.417261" d="M1512.07,-67.843C1509.42,-66.9936 1506.65,-66.2286 1504,-65.6985 1240.73,-13.1015 1158.15,-106.857 901,-29.6985 899.94,-29.3805 898.877,-29.0079 897.82,-28.593"/>
<polygon fill="green" stroke="green" stroke-width="0.417261" points="899.221,-25.3807 888.71,-24.0522 896.098,-31.6456 899.221,-25.3807"/>
</g>
<!-- &#45;20&#45;&gt;2 -->
<g id="edge77" class="edge"><title>&#45;20&#45;&gt;2</title>
<path fill="none" stroke="red" stroke-width="0.193523" d="M1512.07,-67.8332C1509.42,-66.9849 1506.65,-66.2227 1504,-65.6985 1219.72,-9.55254 1130.73,-112.369 853,-29.6985 851.94,-29.3828 850.876,-29.0121 849.818,-28.5987"/>
<polygon fill="red" stroke="red" stroke-width="0.193523" points="851.218,-25.3861 840.706,-24.0636 848.099,-31.6528 851.218,-25.3861"/>
</g>
<!-- &#45;20&#45;&gt;3 -->
<g id="edge78" class="edge"><title>&#45;20&#45;&gt;3</title>
<path fill="none" stroke="green" stroke-width="0.641847" d="M1512.06,-67.9189C1509.4,-67.0611 1506.64,-66.2736 1504,-65.6985 1312.56,-24.0581 1074.82,-17.1972 998.108,-16.0699"/>
<polygon fill="green" stroke="green" stroke-width="0.641847" points="998.026,-12.5687 987.982,-15.9417 997.937,-19.5681 998.026,-12.5687"/>
</g>
<!-- &#45;21 -->
<g id="node21" class="node"><title>&#45;21</title>
<polygon fill="lightgray" stroke="black" points="1588.5,-83.6985 1559.5,-83.6985 1559.5,-65.6985 1588.5,-65.6985 1588.5,-83.6985"/>
<text text-anchor="middle" x="1574" y="-72.4985" font-family="Times New Roman,serif" font-size="9.00">&#45;21</text>
</g>
<!-- &#45;21&#45;&gt;0 -->
<g id="edge79" class="edge"><title>&#45;21&#45;&gt;0</title>
<path fill="none" stroke="green" stroke-width="0.118881" d="M1559.07,-67.8432C1556.42,-66.9938 1553.65,-66.2287 1551,-65.6985 1288.16,-13.1755 1205.72,-106.742 949,-29.6985 947.94,-29.3804 946.877,-29.0078 945.82,-28.5928"/>
<polygon fill="green" stroke="green" stroke-width="0.118881" points="947.221,-25.3806 936.71,-24.0519 944.098,-31.6454 947.221,-25.3806"/>
</g>
<!-- &#45;21&#45;&gt;1 -->
<g id="edge80" class="edge"><title>&#45;21&#45;&gt;1</title>
<path fill="none" stroke="red" stroke-width="0.339586" d="M1559.07,-67.8334C1556.42,-66.985 1553.65,-66.2229 1551,-65.6985 1267.15,-9.62648 1178.3,-112.254 901,-29.6985 899.94,-29.3828 898.876,-29.012 897.818,-28.5986"/>
<polygon fill="red" stroke="red" stroke-width="0.339586" points="899.218,-25.386 888.707,-24.0634 896.099,-31.6527 899.218,-25.386"/>
</g>
<!-- &#45;21&#45;&gt;2 -->
<g id="edge81" class="edge"><title>&#45;21&#45;&gt;2</title>
<path fill="none" stroke="green" stroke-width="0.338009" d="M1559.07,-67.8248C1556.42,-66.9775 1553.66,-66.2178 1551,-65.6985 1246.14,-6.0768 1150.89,-117.767 853,-29.6985 851.939,-29.3848 850.875,-29.0157 849.817,-28.6036"/>
<polygon fill="green" stroke="green" stroke-width="0.338009" points="851.216,-25.3907 840.704,-24.0733 848.1,-31.6589 851.216,-25.3907"/>
</g>
<!-- &#45;21&#45;&gt;3 -->
<g id="edge82" class="edge"><title>&#45;21&#45;&gt;3</title>
<path fill="none" stroke="green" stroke-width="0.308432" d="M1559.06,-67.902C1556.41,-67.0461 1553.65,-66.2635 1551,-65.6985 1340.74,-20.7996 1079.26,-16.118 998.159,-15.8019"/>
<polygon fill="green" stroke="green" stroke-width="0.308432" points="997.944,-12.3015 987.937,-15.7825 997.931,-19.3015 997.944,-12.3015"/>
</g>
<!-- &#45;22 -->
<g id="node22" class="node"><title>&#45;22</title>
<polygon fill="lightgray" stroke="black" points="1819.5,-83.6985 1790.5,-83.6985 1790.5,-65.6985 1819.5,-65.6985 1819.5,-83.6985"/>
<text text-anchor="middle" x="1805" y="-72.4985" font-family="Times New Roman,serif" font-size="9.00">&#45;22</text>
</g>
<!-- &#45;22&#45;&gt;0 -->
<g id="edge83" class="edge"><title>&#45;22&#45;&gt;0</title>
<path fill="none" stroke="red" stroke-width="0.163267" d="M1790.08,-67.8062C1787.42,-66.9609 1784.66,-66.2067 1782,-65.6985 1600.01,-30.8946 1126.9,-81.487 949,-29.6985 947.938,-29.3892 946.872,-29.0237 945.814,-28.6146"/>
<polygon fill="red" stroke="red" stroke-width="0.163267" points="947.211,-25.4011 936.697,-24.0951 944.102,-31.6727 947.211,-25.4011"/>
</g>
<!-- &#45;22&#45;&gt;3 -->
<g id="edge84" class="edge"><title>&#45;22&#45;&gt;3</title>
<path fill="none" stroke="green" stroke-width="0.287329" d="M1790.07,-67.8473C1787.42,-66.9974 1784.65,-66.2311 1782,-65.6985 1626.46,-34.4705 1117.33,-19.5811 998.127,-16.4744"/>
<polygon fill="green" stroke="green" stroke-width="0.287329" points="997.92,-12.9681 987.834,-16.2104 997.741,-19.9658 997.92,-12.9681"/>
</g>
<!-- &#45;23 -->
<g id="node23" class="node"><title>&#45;23</title>
<polygon fill="lightgray" stroke="black" points="1635.5,-83.6985 1606.5,-83.6985 1606.5,-65.6985 1635.5,-65.6985 1635.5,-83.6985"/>
<text text-anchor="middle" x="1621" y="-72.4985" font-family="Times New Roman,serif" font-size="9.00">&#45;23</text>
</g>
<!-- &#45;23&#45;&gt;0 -->
<g id="edge85" class="edge"><title>&#45;23&#45;&gt;0</title>
<path fill="none" stroke="green" stroke-width="0.143951" d="M1606.07,-67.8335C1603.42,-66.9852 1600.65,-66.223 1598,-65.6985 1314.59,-9.70043 1225.88,-112.139 949,-29.6985 947.94,-29.3827 946.876,-29.0119 945.818,-28.5985"/>
<polygon fill="green" stroke="green" stroke-width="0.143951" points="947.219,-25.3859 936.707,-24.0632 944.099,-31.6525 947.219,-25.3859"/>
</g>
<!-- &#45;23&#45;&gt;1 -->
<g id="edge86" class="edge"><title>&#45;23&#45;&gt;1</title>
<path fill="none" stroke="green" stroke-width="0.382768" d="M1606.07,-67.825C1603.42,-66.9776 1600.66,-66.2179 1598,-65.6985 1293.58,-6.15076 1198.46,-117.652 901,-29.6985 899.939,-29.3848 898.875,-29.0156 897.817,-28.6035"/>
<polygon fill="green" stroke="green" stroke-width="0.382768" points="899.216,-25.3906 888.704,-24.0731 896.1,-31.6588 899.216,-25.3906"/>
</g>
<!-- &#45;23&#45;&gt;2 -->
<g id="edge87" class="edge"><title>&#45;23&#45;&gt;2</title>
<path fill="none" stroke="green" stroke-width="0.683454" d="M1606.08,-67.8176C1603.42,-66.971 1600.66,-66.2135 1598,-65.6985 1435.28,-34.1495 1012.02,-76.4319 853,-29.6985 851.938,-29.3865 850.874,-29.0188 849.816,-28.6079"/>
<polygon fill="green" stroke="green" stroke-width="0.683454" points="851.214,-25.3948 840.701,-24.0818 848.101,-31.6643 851.214,-25.3948"/>
</g>
<!-- &#45;23&#45;&gt;3 -->
<g id="edge88" class="edge"><title>&#45;23&#45;&gt;3</title>
<path fill="none" stroke="red" stroke-width="0.64599" d="M1606.06,-67.8876C1603.41,-67.0333 1600.65,-66.255 1598,-65.6985 1368.9,-17.5456 1083.61,-15.1175 998.248,-15.5719"/>
<polygon fill="red" stroke="red" stroke-width="0.64599" points="998.172,-12.0723 988.197,-15.6447 998.222,-19.0721 998.172,-12.0723"/>
</g>
<!-- &#45;24 -->
<g id="node24" class="node"><title>&#45;24</title>
<polygon fill="lightgray" stroke="black" points="1682.5,-83.6985 1653.5,-83.6985 1653.5,-65.6985 1682.5,-65.6985 1682.5,-83.6985"/>
<text text-anchor="middle" x="1668" y="-72.4985" font-family="Times New Roman,serif" font-size="9.00">&#45;24</text>
</g>
<!-- &#45;24&#45;&gt;0 -->
<g id="edge89" class="edge"><title>&#45;24&#45;&gt;0</title>
<path fill="none" stroke="green" stroke-width="0.485115" d="M1653.07,-67.8252C1650.42,-66.9778 1647.66,-66.218 1645,-65.6985 1341.02,-6.22472 1246.03,-117.537 949,-29.6985 947.939,-29.3847 946.875,-29.0155 945.817,-28.6034"/>
<polygon fill="green" stroke="green" stroke-width="0.485115" points="947.216,-25.3905 936.704,-24.0729 944.1,-31.6587 947.216,-25.3905"/>
</g>
<!-- &#45;24&#45;&gt;1 -->
<g id="edge90" class="edge"><title>&#45;24&#45;&gt;1</title>
<path fill="none" stroke="red" stroke-width="0.18679" d="M1653.08,-67.8177C1650.42,-66.9711 1647.66,-66.2136 1645,-65.6985 1482.5,-34.1865 1059.81,-76.3745 901,-29.6985 899.938,-29.3865 898.874,-29.0188 897.816,-28.6078"/>
<polygon fill="red" stroke="red" stroke-width="0.18679" points="899.214,-25.3947 888.701,-24.0816 896.101,-31.6642 899.214,-25.3947"/>
</g>
<!-- &#45;24&#45;&gt;2 -->
<g id="edge91" class="edge"><title>&#45;24&#45;&gt;2</title>
<path fill="none" stroke="green" stroke-width="0.141745" d="M1653.08,-67.8112C1650.42,-66.9653 1647.66,-66.2097 1645,-65.6985 1471.99,-32.4111 1022.1,-79.1317 853,-29.6985 851.938,-29.388 850.873,-29.0216 849.814,-28.6117"/>
<polygon fill="green" stroke="green" stroke-width="0.141745" points="851.213,-25.3983 840.699,-24.0893 848.101,-31.669 851.213,-25.3983"/>
</g>
<!-- &#45;24&#45;&gt;3 -->
<g id="edge92" class="edge"><title>&#45;24&#45;&gt;3</title>
<path fill="none" stroke="red" stroke-width="0.108648" d="M1653.06,-67.8752C1650.41,-67.0223 1647.65,-66.2477 1645,-65.6985 1396.73,-14.2359 1087.19,-14.1813 998.061,-15.3755"/>
<polygon fill="red" stroke="red" stroke-width="0.108648" points="997.802,-11.8789 987.857,-15.5316 997.909,-18.8781 997.802,-11.8789"/>
</g>
<!-- &#45;25 -->
<g id="node25" class="node"><title>&#45;25</title>
<polygon fill="lightgray" stroke="black" points="118.5,-83.6985 89.5,-83.6985 89.5,-65.6985 118.5,-65.6985 118.5,-83.6985"/>
<text text-anchor="middle" x="104" y="-72.4985" font-family="Times New Roman,serif" font-size="9.00">&#45;25</text>
</g>
<!-- &#45;25&#45;&gt;0 -->
<g id="edge93" class="edge"><title>&#45;25&#45;&gt;0</title>
<path fill="none" stroke="green" stroke-width="0.362023" d="M118.923,-67.8135C121.577,-66.9674 124.343,-66.2111 127,-65.6985 296.068,-33.0769 735.756,-78.0977 901,-29.6985 902.062,-29.3875 903.127,-29.0206 904.185,-28.6103"/>
<polygon fill="green" stroke="green" stroke-width="0.362023" points="905.899,-31.6673 913.3,-24.0865 902.787,-25.397 905.899,-31.6673"/>
</g>
<!-- &#45;25&#45;&gt;1 -->
<g id="edge94" class="edge"><title>&#45;25&#45;&gt;1</title>
<path fill="none" stroke="red" stroke-width="0.168032" d="M118.924,-67.8204C121.579,-66.9735 124.344,-66.2152 127,-65.6985 285.559,-34.8522 698.051,-75.3406 853,-29.6985 854.061,-29.3858 855.126,-29.0176 856.184,-28.6063"/>
<polygon fill="red" stroke="red" stroke-width="0.168032" points="857.899,-31.6622 865.298,-24.0785 854.785,-25.3932 857.899,-31.6622"/>
</g>
<!-- &#45;25&#45;&gt;2 -->
<g id="edge95" class="edge"><title>&#45;25&#45;&gt;2</title>
<path fill="none" stroke="green" stroke-width="0.125429" d="M118.934,-67.8682C121.587,-67.016 124.35,-66.2435 127,-65.6985 260.638,-38.217 695.368,-20.7464 804.149,-16.7349"/>
<polygon fill="green" stroke="green" stroke-width="0.125429" points="804.312,-20.2314 814.178,-16.3693 804.057,-13.236 804.312,-20.2314"/>
</g>
<!-- &#45;25&#45;&gt;3 -->
<g id="edge96" class="edge"><title>&#45;25&#45;&gt;3</title>
<path fill="none" stroke="red" stroke-width="0.123718" d="M118.922,-67.8074C121.576,-66.962 124.343,-66.2075 127,-65.6985 306.577,-31.3015 773.461,-80.8551 949,-29.6985 950.062,-29.3889 951.127,-29.0232 952.186,-28.6139"/>
<polygon fill="red" stroke="red" stroke-width="0.123718" points="953.898,-31.6717 961.302,-24.0936 950.788,-25.4004 953.898,-31.6717"/>
</g>
<!-- &#45;26 -->
<g id="node26" class="node"><title>&#45;26</title>
<polygon fill="lightgray" stroke="black" points="165.5,-83.6985 136.5,-83.6985 136.5,-65.6985 165.5,-65.6985 165.5,-83.6985"/>
<text text-anchor="middle" x="151" y="-72.4985" font-family="Times New Roman,serif" font-size="9.00">&#45;26</text>
</g>
<!-- &#45;26&#45;&gt;0 -->
<g id="edge97" class="edge"><title>&#45;26&#45;&gt;0</title>
<path fill="none" stroke="green" stroke-width="0.254358" d="M165.556,-68.1456C168.634,-67.1704 171.892,-66.2822 175,-65.6985 333.756,-35.8824 746.051,-75.3406 901,-29.6985 902.061,-29.3858 903.126,-29.0176 904.184,-28.6063"/>
<polygon fill="green" stroke="green" stroke-width="0.254358" points="905.899,-31.6622 913.298,-24.0785 902.785,-25.3932 905.899,-31.6622"/>
</g>
<!-- &#45;26&#45;&gt;1 -->
<g id="edge98" class="edge"><title>&#45;26&#45;&gt;1</title>
<path fill="none" stroke="green" stroke-width="0.132582" d="M165.557,-68.154C168.635,-67.1782 171.893,-66.2876 175,-65.6985 471.475,-9.47976 563.689,-115.469 853,-29.6985 854.061,-29.384 855.125,-29.0142 856.183,-28.6016"/>
<polygon fill="green" stroke="green" stroke-width="0.132582" points="857.9,-31.6564 865.295,-24.0693 854.783,-25.3889 857.9,-31.6564"/>
</g>
<!-- &#45;26&#45;&gt;2 -->
<g id="edge99" class="edge"><title>&#45;26&#45;&gt;2</title>
<path fill="none" stroke="red" stroke-width="0.419163" d="M165.568,-68.2094C168.645,-67.2296 171.9,-66.3234 175,-65.6985 416.392,-17.0391 716.636,-15.017 804.054,-15.5621"/>
<polygon fill="red" stroke="red" stroke-width="0.419163" points="804.054,-19.0621 814.081,-15.6427 804.11,-12.0623 804.054,-19.0621"/>
</g>
<!-- &#45;26&#45;&gt;3 -->
<g id="edge100" class="edge"><title>&#45;26&#45;&gt;3</title>
<path fill="none" stroke="green" stroke-width="0.137325" d="M165.554,-68.1382C168.633,-67.1635 171.891,-66.2774 175,-65.6985 344.276,-34.1754 783.756,-78.0977 949,-29.6985 950.062,-29.3875 951.127,-29.0206 952.185,-28.6103"/>
<polygon fill="green" stroke="green" stroke-width="0.137325" points="953.899,-31.6673 961.3,-24.0865 950.787,-25.397 953.899,-31.6673"/>
</g>
<!-- &#45;27 -->
<g id="node27" class="node"><title>&#45;27</title>
<polygon fill="lightgray" stroke="black" points="212.5,-83.6985 183.5,-83.6985 183.5,-65.6985 212.5,-65.6985 212.5,-83.6985"/>
<text text-anchor="middle" x="198" y="-72.4985" font-family="Times New Roman,serif" font-size="9.00">&#45;27</text>
</g>
<!-- &#45;27&#45;&gt;0 -->
<g id="edge101" class="edge"><title>&#45;27&#45;&gt;0</title>
<path fill="none" stroke="green" stroke-width="0.262588" d="M212.557,-68.1538C215.635,-67.178 218.893,-66.2875 222,-65.6985 518.913,-9.40866 611.26,-115.584 901,-29.6985 902.061,-29.384 903.125,-29.0143 904.183,-28.6017"/>
<polygon fill="green" stroke="green" stroke-width="0.262588" points="905.9,-31.6566 913.295,-24.0695 902.783,-25.3889 905.9,-31.6566"/>
</g>
<!-- &#45;27&#45;&gt;1 -->
<g id="edge102" class="edge"><title>&#45;27&#45;&gt;1</title>
<path fill="none" stroke="red" stroke-width="0.337551" d="M212.559,-68.1635C215.637,-67.187 218.894,-66.2938 222,-65.6985 497.879,-12.8216 583.844,-110.072 853,-29.6985 854.06,-29.3819 855.124,-29.0104 856.181,-28.5964"/>
<polygon fill="red" stroke="red" stroke-width="0.337551" points="857.901,-31.65 865.292,-24.059 854.781,-25.384 857.901,-31.65"/>
</g>
<!-- &#45;27&#45;&gt;2 -->
<g id="edge103" class="edge"><title>&#45;27&#45;&gt;2</title>
<path fill="none" stroke="green" stroke-width="0.177147" d="M212.571,-68.2235C215.648,-67.2426 218.902,-66.3325 222,-65.6985 444.071,-20.2556 719.871,-15.9643 803.688,-15.7702"/>
<polygon fill="green" stroke="green" stroke-width="0.177147" points="803.797,-19.2702 813.795,-15.7654 803.793,-12.2702 803.797,-19.2702"/>
</g>
<!-- &#45;27&#45;&gt;3 -->
<g id="edge104" class="edge"><title>&#45;27&#45;&gt;3</title>
<path fill="none" stroke="red" stroke-width="0.503781" d="M212.556,-68.1454C215.634,-67.1702 218.892,-66.2821 222,-65.6985 380.975,-35.8468 793.836,-75.3981 949,-29.6985 950.061,-29.3859 951.126,-29.0177 952.184,-28.6063"/>
<polygon fill="red" stroke="red" stroke-width="0.503781" points="953.899,-31.6623 961.298,-24.0787 950.785,-25.3933 953.899,-31.6623"/>
</g>
<!-- &#45;28 -->
<g id="node28" class="node"><title>&#45;28</title>
<polygon fill="lightgray" stroke="black" points="259.5,-83.6985 230.5,-83.6985 230.5,-65.6985 259.5,-65.6985 259.5,-83.6985"/>
<text text-anchor="middle" x="245" y="-72.4985" font-family="Times New Roman,serif" font-size="9.00">&#45;28</text>
</g>
<!-- &#45;28&#45;&gt;0 -->
<g id="edge105" class="edge"><title>&#45;28&#45;&gt;0</title>
<path fill="none" stroke="green" stroke-width="0.381614" d="M259.559,-68.1633C262.637,-67.1868 265.894,-66.2936 269,-65.6985 545.317,-12.7505 631.415,-110.187 901,-29.6985 902.06,-29.3819 903.124,-29.0105 904.181,-28.5966"/>
<polygon fill="green" stroke="green" stroke-width="0.381614" points="905.901,-31.6501 913.292,-24.0593 902.781,-25.3841 905.901,-31.6501"/>
</g>
<!-- &#45;28&#45;&gt;1 -->
<g id="edge106" class="edge"><title>&#45;28&#45;&gt;1</title>
<path fill="none" stroke="green" stroke-width="0.317155" d="M259.561,-68.1745C262.639,-67.1972 265.896,-66.3009 269,-65.6985 524.287,-16.1627 603.995,-104.675 853,-29.6985 854.059,-29.3795 855.122,-29.006 856.179,-28.5904"/>
<polygon fill="green" stroke="green" stroke-width="0.317155" points="857.902,-31.6424 865.289,-24.0471 854.778,-25.3783 857.902,-31.6424"/>
</g>
<!-- &#45;28&#45;&gt;2 -->
<g id="edge107" class="edge"><title>&#45;28&#45;&gt;2</title>
<path fill="none" stroke="red" stroke-width="0.333715" d="M259.575,-68.2399C262.651,-67.2579 265.904,-66.343 269,-65.6985 472.105,-23.4123 723.976,-16.9805 803.629,-16.0154"/>
<polygon fill="red" stroke="red" stroke-width="0.333715" points="804.142,-19.5105 814.106,-15.909 804.071,-12.5108 804.142,-19.5105"/>
</g>
<!-- &#45;28&#45;&gt;3 -->
<g id="edge108" class="edge"><title>&#45;28&#45;&gt;3</title>
<path fill="none" stroke="red" stroke-width="0.301179" d="M259.557,-68.1537C262.635,-67.1778 265.893,-66.2874 269,-65.6985 566.351,-9.33755 658.831,-115.699 949,-29.6985 950.061,-29.3841 951.125,-29.0144 952.183,-28.6018"/>
<polygon fill="red" stroke="red" stroke-width="0.301179" points="953.9,-31.6567 961.295,-24.0697 950.783,-25.389 953.9,-31.6567"/>
</g>
<!-- &#45;29 -->
<g id="node29" class="node"><title>&#45;29</title>
<polygon fill="lightgray" stroke="black" points="71.5,-83.6985 42.5,-83.6985 42.5,-65.6985 71.5,-65.6985 71.5,-83.6985"/>
<text text-anchor="middle" x="57" y="-72.4985" font-family="Times New Roman,serif" font-size="9.00">&#45;29</text>
</g>
<!-- &#45;29&#45;&gt;1 -->
<g id="edge109" class="edge"><title>&#45;29&#45;&gt;1</title>
<path fill="none" stroke="red" stroke-width="0.535987" d="M71.923,-67.8137C74.5774,-66.9675 77.3433,-66.2112 80,-65.6985 248.849,-33.1139 687.971,-78.0403 853,-29.6985 854.062,-29.3874 855.127,-29.0205 856.185,-28.6102"/>
<polygon fill="red" stroke="red" stroke-width="0.535987" points="857.899,-31.6672 865.3,-24.0864 854.787,-25.3969 857.899,-31.6672"/>
</g>
<!-- &#45;29&#45;&gt;2 -->
<g id="edge110" class="edge"><title>&#45;29&#45;&gt;2</title>
<path fill="none" stroke="red" stroke-width="0.172948" stroke-dasharray="1,5" d="M71.9319,-67.8583C74.5853,-67.0072 77.3485,-66.2376 80,-65.6985 223.214,-36.5786 690.384,-20.2207 803.95,-16.6143"/>
<polygon fill="red" stroke="red" stroke-width="0.172948" points="804.209,-20.108 814.094,-16.2964 803.99,-13.1114 804.209,-20.108"/>
</g>
<!-- &#45;29&#45;&gt;3 -->
<g id="edge111" class="edge"><title>&#45;29&#45;&gt;3</title>
<path fill="none" stroke="red" stroke-width="0.432965" d="M71.9208,-67.8021C74.5755,-66.9573 77.342,-66.2044 80,-65.6985 269.869,-29.5628 763.378,-83.5552 949,-29.6985 950.063,-29.3902 951.128,-29.0255 952.187,-28.617"/>
<polygon fill="red" stroke="red" stroke-width="0.432965" points="953.898,-31.6756 961.304,-24.0998 950.79,-25.4033 953.898,-31.6756"/>
</g>
<!-- &#45;30 -->
<g id="node30" class="node"><title>&#45;30</title>
<polygon fill="lightgray" stroke="black" points="306.5,-83.6985 277.5,-83.6985 277.5,-65.6985 306.5,-65.6985 306.5,-83.6985"/>
<text text-anchor="middle" x="292" y="-72.4985" font-family="Times New Roman,serif" font-size="9.00">&#45;30</text>
</g>
<!-- &#45;30&#45;&gt;0 -->
<g id="edge112" class="edge"><title>&#45;30&#45;&gt;0</title>
<path fill="none" stroke="green" stroke-width="0.240305" d="M306.561,-68.1743C309.639,-67.197 312.896,-66.3007 316,-65.6985 571.725,-16.0916 651.566,-104.79 901,-29.6985 902.059,-29.3795 903.122,-29.0061 904.179,-28.5906"/>
<polygon fill="green" stroke="green" stroke-width="0.240305" points="905.902,-31.6426 913.289,-24.0474 902.778,-25.3784 905.902,-31.6426"/>
</g>
<!-- &#45;30&#45;&gt;1 -->
<g id="edge113" class="edge"><title>&#45;30&#45;&gt;1</title>
<path fill="none" stroke="red" stroke-width="0.184855" d="M306.564,-68.1874C309.641,-67.2092 312.897,-66.3092 316,-65.6985 550.699,-19.5028 624.142,-99.2801 853,-29.6985 854.059,-29.3766 855.121,-29.0008 856.177,-28.5833"/>
<polygon fill="red" stroke="red" stroke-width="0.184855" points="857.903,-31.6336 865.284,-24.0331 854.774,-25.3717 857.903,-31.6336"/>
</g>
<!-- &#45;30&#45;&gt;2 -->
<g id="edge114" class="edge"><title>&#45;30&#45;&gt;2</title>
<path fill="none" stroke="red" stroke-width="0.218784" d="M306.579,-68.2593C309.655,-67.2758 312.907,-66.3556 316,-65.6985 500.41,-26.526 728.745,-18.0671 803.803,-16.2999"/>
<polygon fill="red" stroke="red" stroke-width="0.218784" points="804.201,-19.7922 814.124,-16.0774 804.051,-12.7938 804.201,-19.7922"/>
</g>
<!-- &#45;30&#45;&gt;3 -->
<g id="edge115" class="edge"><title>&#45;30&#45;&gt;3</title>
<path fill="none" stroke="red" stroke-width="0.423138" d="M306.559,-68.1631C309.637,-67.1866 312.894,-66.2935 316,-65.6985 592.755,-12.6794 678.986,-110.301 949,-29.6985 950.06,-29.382 951.124,-29.0106 952.181,-28.5967"/>
<polygon fill="red" stroke="red" stroke-width="0.423138" points="953.901,-31.6502 961.292,-24.0595 950.781,-25.3842 953.901,-31.6502"/>
</g>
<!-- &#45;31 -->
<g id="node31" class="node"><title>&#45;31</title>
<polygon fill="lightgray" stroke="black" points="353.5,-83.6985 324.5,-83.6985 324.5,-65.6985 353.5,-65.6985 353.5,-83.6985"/>
<text text-anchor="middle" x="339" y="-72.4985" font-family="Times New Roman,serif" font-size="9.00">&#45;31</text>
</g>
<!-- &#45;31&#45;&gt;0 -->
<g id="edge116" class="edge"><title>&#45;31&#45;&gt;0</title>
<path fill="none" stroke="green" stroke-width="0.345744" d="M353.564,-68.1871C356.641,-67.2089 359.897,-66.309 363,-65.6985 598.137,-19.4318 671.713,-99.3948 901,-29.6985 902.059,-29.3767 903.121,-29.0009 904.177,-28.5835"/>
<polygon fill="green" stroke="green" stroke-width="0.345744" points="905.903,-31.6338 913.284,-24.0334 902.775,-25.3718 905.903,-31.6338"/>
</g>
<!-- &#45;31&#45;&gt;1 -->
<g id="edge117" class="edge"><title>&#45;31&#45;&gt;1</title>
<path fill="none" stroke="green" stroke-width="0.364312" d="M353.567,-68.2028C356.644,-67.2235 359.899,-66.3191 363,-65.6985 577.118,-22.8418 644.282,-93.8867 853,-29.6985 854.058,-29.3732 855.119,-28.9947 856.175,-28.5749"/>
<polygon fill="green" stroke="green" stroke-width="0.364312" points="857.904,-31.6231 865.279,-24.0164 854.77,-25.3638 857.904,-31.6231"/>
</g>
<!-- &#45;31&#45;&gt;2 -->
<g id="edge118" class="edge"><title>&#45;31&#45;&gt;2</title>
<path fill="none" stroke="green" stroke-width="0.407959" d="M353.584,-68.2825C356.66,-67.2974 359.91,-66.3706 363,-65.6985 528.653,-29.67 733.342,-19.267 803.796,-16.6427"/>
<polygon fill="green" stroke="green" stroke-width="0.407959" points="804.055,-20.1359 813.925,-16.2856 803.808,-13.1402 804.055,-20.1359"/>
</g>
<!-- &#45;31&#45;&gt;3 -->
<g id="edge119" class="edge"><title>&#45;31&#45;&gt;3</title>
<path fill="none" stroke="green" stroke-width="0.116646" d="M353.561,-68.174C356.639,-67.1967 359.896,-66.3005 363,-65.6985 619.163,-16.0205 699.137,-104.905 949,-29.6985 950.059,-29.3796 951.122,-29.0062 952.179,-28.5907"/>
<polygon fill="green" stroke="green" stroke-width="0.116646" points="953.902,-31.6428 961.289,-24.0477 950.778,-25.3786 953.902,-31.6428"/>
</g>
<!-- &#45;32 -->
<g id="node32" class="node"><title>&#45;32</title>
<polygon fill="lightgray" stroke="black" points="400.5,-83.6985 371.5,-83.6985 371.5,-65.6985 400.5,-65.6985 400.5,-83.6985"/>
<text text-anchor="middle" x="386" y="-72.4985" font-family="Times New Roman,serif" font-size="9.00">&#45;32</text>
</g>
<!-- &#45;32&#45;&gt;0 -->
<g id="edge120" class="edge"><title>&#45;32&#45;&gt;0</title>
<path fill="none" stroke="green" stroke-width="0.284169" d="M400.567,-68.2025C403.644,-67.2231 406.899,-66.3189 410,-65.6985 624.556,-22.7708 691.854,-94.0014 901,-29.6985 902.058,-29.3733 903.119,-28.9948 904.175,-28.5751"/>
<polygon fill="green" stroke="green" stroke-width="0.284169" points="905.904,-31.6233 913.279,-24.0168 902.771,-25.364 905.904,-31.6233"/>
</g>
<!-- &#45;32&#45;&gt;1 -->
<g id="edge121" class="edge"><title>&#45;32&#45;&gt;1</title>
<path fill="none" stroke="red" stroke-width="0.327529" d="M400.571,-68.2214C403.648,-67.2407 406.902,-66.3311 410,-65.6985 603.544,-26.1792 664.415,-88.4957 853,-29.6985 854.056,-29.3692 855.117,-28.9872 856.171,-28.5648"/>
<polygon fill="red" stroke="red" stroke-width="0.327529" points="857.906,-31.6104 865.273,-23.9963 854.766,-25.3543 857.906,-31.6104"/>
</g>
<!-- &#45;32&#45;&gt;2 -->
<g id="edge122" class="edge"><title>&#45;32&#45;&gt;2</title>
<path fill="none" stroke="green" stroke-width="0.2894" d="M400.59,-68.3109C403.665,-67.3237 406.914,-66.3888 410,-65.6985 556.985,-32.8169 738.143,-20.5978 803.77,-17.0613"/>
<polygon fill="green" stroke="green" stroke-width="0.2894" points="804.165,-20.5456 813.971,-16.5323 803.803,-13.5549 804.165,-20.5456"/>
</g>
<!-- &#45;32&#45;&gt;3 -->
<g id="edge123" class="edge"><title>&#45;32&#45;&gt;3</title>
<path fill="none" stroke="green" stroke-width="0.341433" d="M400.564,-68.1869C403.641,-67.2086 406.897,-66.3088 410,-65.6985 645.575,-19.3607 719.284,-99.5096 949,-29.6985 950.059,-29.3768 951.121,-29.0011 952.177,-28.5837"/>
<polygon fill="green" stroke="green" stroke-width="0.341433" points="953.903,-31.634 961.285,-24.0337 950.775,-25.372 953.903,-31.634"/>
</g>
<!-- &#45;33 -->
<g id="node33" class="node"><title>&#45;33</title>
<polygon fill="lightgray" stroke="black" points="447.5,-83.6985 418.5,-83.6985 418.5,-65.6985 447.5,-65.6985 447.5,-83.6985"/>
<text text-anchor="middle" x="433" y="-72.4985" font-family="Times New Roman,serif" font-size="9.00">&#45;33</text>
</g>
<!-- &#45;33&#45;&gt;0 -->
<g id="edge124" class="edge"><title>&#45;33&#45;&gt;0</title>
<path fill="none" stroke="red" stroke-width="0.385546" stroke-dasharray="1,5" d="M447.571,-68.221C450.648,-67.2403 453.902,-66.3308 457,-65.6985 650.982,-26.1082 711.987,-88.6104 901,-29.6985 902.056,-29.3692 903.117,-28.9874 904.171,-28.565"/>
<polygon fill="red" stroke="red" stroke-width="0.385546" points="905.906,-31.6107 913.273,-23.9967 902.766,-25.3545 905.906,-31.6107"/>
</g>
<!-- &#45;33&#45;&gt;1 -->
<g id="edge125" class="edge"><title>&#45;33&#45;&gt;1</title>
<path fill="none" stroke="red" stroke-width="0.294226" d="M447.575,-68.2444C450.652,-67.262 453.905,-66.346 457,-65.6985 629.982,-29.5144 684.538,-83.108 853,-29.6985 854.055,-29.3641 855.114,-28.978 856.167,-28.5522"/>
<polygon fill="red" stroke="red" stroke-width="0.294226" points="857.908,-31.5947 865.265,-23.9714 854.759,-25.3426 857.908,-31.5947"/>
</g>
<!-- &#45;33&#45;&gt;2 -->
<g id="edge126" class="edge"><title>&#45;33&#45;&gt;2</title>
<path fill="none" stroke="red" stroke-width="0.367421" stroke-dasharray="1,5" d="M447.598,-68.3462C450.673,-67.3565 453.919,-66.4117 457,-65.6985 585.489,-35.955 743.34,-22.0831 803.806,-17.5782"/>
<polygon fill="red" stroke="red" stroke-width="0.367421" points="804.213,-21.058 813.934,-16.8444 803.707,-14.0763 804.213,-21.058"/>
</g>
<!-- &#45;33&#45;&gt;3 -->
<g id="edge127" class="edge"><title>&#45;33&#45;&gt;3</title>
<path fill="none" stroke="green" stroke-width="0.144325" d="M447.567,-68.2021C450.644,-67.2228 453.899,-66.3187 457,-65.6985 671.994,-22.6998 739.425,-94.1161 949,-29.6985 950.058,-29.3734 951.119,-28.9949 952.175,-28.5753"/>
<polygon fill="green" stroke="green" stroke-width="0.144325" points="953.904,-31.6236 961.28,-24.0172 950.771,-25.3642 953.904,-31.6236"/>
</g>
<!-- &#45;34 -->
<g id="node34" class="node"><title>&#45;34</title>
<polygon fill="lightgray" stroke="black" points="494.5,-83.6985 465.5,-83.6985 465.5,-65.6985 494.5,-65.6985 494.5,-83.6985"/>
<text text-anchor="middle" x="480" y="-72.4985" font-family="Times New Roman,serif" font-size="9.00">&#45;34</text>
</g>
<!-- &#45;34&#45;&gt;0 -->
<g id="edge128" class="edge"><title>&#45;34&#45;&gt;0</title>
<path fill="none" stroke="green" stroke-width="0.396315" d="M494.575,-68.2439C497.652,-67.2615 500.905,-66.3456 504,-65.6985 677.419,-29.4435 732.11,-83.2226 901,-29.6985 902.055,-29.3642 903.114,-28.9782 904.168,-28.5525"/>
<polygon fill="green" stroke="green" stroke-width="0.396315" points="905.908,-31.5951 913.265,-23.972 902.76,-25.3428 905.908,-31.5951"/>
</g>
<!-- &#45;34&#45;&gt;1 -->
<g id="edge129" class="edge"><title>&#45;34&#45;&gt;1</title>
<path fill="none" stroke="green" stroke-width="0.148838" d="M494.582,-68.2735C497.658,-67.289 500.909,-66.3647 504,-65.6985 656.434,-32.8464 704.646,-77.7249 853,-29.6985 854.053,-29.3577 855.11,-28.9664 856.162,-28.5363"/>
<polygon fill="green" stroke="green" stroke-width="0.148838" points="857.91,-31.5749 865.255,-23.9399 854.752,-25.3278 857.91,-31.5749"/>
</g>
<!-- &#45;34&#45;&gt;2 -->
<g id="edge130" class="edge"><title>&#45;34&#45;&gt;2</title>
<path fill="none" stroke="green" stroke-width="0.687258" d="M494.609,-68.3915C497.683,-67.3985 500.926,-66.4409 504,-65.6985 614.313,-39.0568 749.291,-23.7311 804.099,-18.2127"/>
<polygon fill="green" stroke="green" stroke-width="0.687258" points="804.643,-21.6762 814.251,-17.2114 803.956,-14.71 804.643,-21.6762"/>
</g>
<!-- &#45;34&#45;&gt;3 -->
<g id="edge131" class="edge"><title>&#45;34&#45;&gt;3</title>
<path fill="none" stroke="red" stroke-width="0.181692" d="M494.571,-68.2206C497.648,-67.2399 500.902,-66.3306 504,-65.6985 698.42,-26.0372 759.559,-88.725 949,-29.6985 950.056,-29.3693 951.117,-28.9876 952.172,-28.5652"/>
<polygon fill="red" stroke="red" stroke-width="0.181692" points="953.906,-31.611 961.273,-23.9972 950.766,-25.3547 953.906,-31.611"/>
</g>
<!-- &#45;35 -->
<g id="node35" class="node"><title>&#45;35</title>
<polygon fill="lightgray" stroke="black" points="1772.5,-83.6985 1743.5,-83.6985 1743.5,-65.6985 1772.5,-65.6985 1772.5,-83.6985"/>
<text text-anchor="middle" x="1758" y="-72.4985" font-family="Times New Roman,serif" font-size="9.00">&#45;35</text>
</g>
<!-- &#45;35&#45;&gt;0 -->
<g id="edge132" class="edge"><title>&#45;35&#45;&gt;0</title>
<path fill="none" stroke="green" stroke-width="0.124388" d="M1743.45,-68.1366C1740.37,-67.1621 1737.11,-66.2764 1734,-65.6985 1562.31,-33.7842 1116.6,-78.7296 949,-29.6985 947.938,-29.3878 946.873,-29.0212 945.815,-28.6112"/>
<polygon fill="green" stroke="green" stroke-width="0.124388" points="947.213,-25.3978 936.699,-24.0882 944.101,-31.6683 947.213,-25.3978"/>
</g>
<!-- &#45;35&#45;&gt;1 -->
<g id="edge133" class="edge"><title>&#45;35&#45;&gt;1</title>
<path fill="none" stroke="red" stroke-width="0.51038" d="M1743.45,-68.1303C1740.37,-67.1562 1737.11,-66.2723 1734,-65.6985 1551.79,-32.0769 1078.9,-81.487 901,-29.6985 899.938,-29.3892 898.872,-29.0237 897.814,-28.6146"/>
<polygon fill="red" stroke="red" stroke-width="0.51038" points="899.211,-25.4011 888.697,-24.0951 896.102,-31.6727 899.211,-25.4011"/>
</g>
<!-- &#45;35&#45;&gt;3 -->
<g id="edge134" class="edge"><title>&#45;35&#45;&gt;3</title>
<path fill="none" stroke="green" stroke-width="0.10923" d="M1743.44,-68.1838C1740.36,-67.2058 1737.1,-66.3068 1734,-65.6985 1588.14,-37.1048 1112.76,-20.3226 998.07,-16.6279"/>
<polygon fill="green" stroke="green" stroke-width="0.10923" points="997.944,-13.1222 987.837,-16.3024 997.721,-20.1187 997.944,-13.1222"/>
</g>
<!-- &#45;36 -->
<g id="node36" class="node"><title>&#45;36</title>
<polygon fill="lightgray" stroke="black" points="541.5,-83.6985 512.5,-83.6985 512.5,-65.6985 541.5,-65.6985 541.5,-83.6985"/>
<text text-anchor="middle" x="527" y="-72.4985" font-family="Times New Roman,serif" font-size="9.00">&#45;36</text>
</g>
<!-- &#45;36&#45;&gt;0 -->
<g id="edge135" class="edge"><title>&#45;36&#45;&gt;0</title>
<path fill="none" stroke="red" stroke-width="0.146316" d="M541.581,-68.2728C544.658,-67.2883 547.909,-66.3643 551,-65.6985 703.871,-32.7756 752.218,-77.8394 901,-29.6985 902.053,-29.3579 903.11,-28.9667 904.163,-28.5367"/>
<polygon fill="red" stroke="red" stroke-width="0.146316" points="905.91,-31.5754 913.255,-23.9407 902.752,-25.3281 905.91,-31.5754"/>
</g>
<!-- &#45;36&#45;&gt;1 -->
<g id="edge136" class="edge"><title>&#45;36&#45;&gt;1</title>
<path fill="none" stroke="green" stroke-width="0.230571" d="M541.59,-68.3114C544.666,-67.3242 547.914,-66.3892 551,-65.6985 682.909,-36.1737 724.732,-72.3488 853,-29.6985 853.879,-29.4063 854.761,-29.0797 855.641,-28.7256"/>
<polygon fill="green" stroke="green" stroke-width="0.230571" points="857.358,-31.7806 864.748,-24.1884 854.237,-25.5152 857.358,-31.7806"/>
</g>
<!-- &#45;36&#45;&gt;2 -->
<g id="edge137" class="edge"><title>&#45;36&#45;&gt;2</title>
<path fill="none" stroke="green" stroke-width="0.283176" d="M541.624,-68.4515C544.697,-67.4541 547.936,-66.4796 551,-65.6985 643.323,-42.165 755.651,-25.6381 804.43,-19.039"/>
<polygon fill="green" stroke="green" stroke-width="0.283176" points="804.921,-22.5045 814.371,-17.7134 803.996,-15.566 804.921,-22.5045"/>
</g>
<!-- &#45;36&#45;&gt;3 -->
<g id="edge138" class="edge"><title>&#45;36&#45;&gt;3</title>
<path fill="none" stroke="red" stroke-width="0.277832" d="M541.575,-68.2433C544.652,-67.261 547.905,-66.3453 551,-65.6985 724.857,-29.3725 779.682,-83.3372 949,-29.6985 950.055,-29.3643 951.114,-28.9784 952.168,-28.5528"/>
<polygon fill="red" stroke="red" stroke-width="0.277832" points="953.907,-31.5955 961.266,-23.9726 950.76,-25.3431 953.907,-31.5955"/>
</g>
<!-- &#45;37 -->
<g id="node37" class="node"><title>&#45;37</title>
<polygon fill="lightgray" stroke="black" points="588.5,-83.6985 559.5,-83.6985 559.5,-65.6985 588.5,-65.6985 588.5,-83.6985"/>
<text text-anchor="middle" x="574" y="-72.4985" font-family="Times New Roman,serif" font-size="9.00">&#45;37</text>
</g>
<!-- &#45;37&#45;&gt;0 -->
<g id="edge139" class="edge"><title>&#45;37&#45;&gt;0</title>
<path fill="none" stroke="red" stroke-width="0.533724" d="M588.59,-68.3105C591.665,-67.3233 594.914,-66.3886 598,-65.6985 730.345,-36.103 772.305,-72.4631 901,-29.6985 901.879,-29.4065 902.761,-29.0801 903.642,-28.7261"/>
<polygon fill="red" stroke="red" stroke-width="0.533724" points="905.358,-31.7812 912.749,-24.1894 902.237,-25.5155 905.358,-31.7812"/>
</g>
<!-- &#45;37&#45;&gt;1 -->
<g id="edge140" class="edge"><title>&#45;37&#45;&gt;1</title>
<path fill="none" stroke="red" stroke-width="0.295315" d="M588.602,-68.363C591.677,-67.3721 594.922,-66.4225 598,-65.6985 709.417,-39.4934 744.786,-66.9837 853,-29.6985 853.876,-29.3968 854.755,-29.0622 855.633,-28.7013"/>
<polygon fill="red" stroke="red" stroke-width="0.295315" points="857.364,-31.7486 864.729,-24.1324 854.222,-25.4934 857.364,-31.7486"/>
</g>
<!-- &#45;37&#45;&gt;2 -->
<g id="edge141" class="edge"><title>&#45;37&#45;&gt;2</title>
<path fill="none" stroke="green" stroke-width="0.425844" d="M588.645,-68.5347C591.717,-67.5313 594.95,-66.5333 598,-65.6985 672.445,-45.324 762.221,-27.9748 804.594,-20.2071"/>
<polygon fill="green" stroke="green" stroke-width="0.425844" points="805.327,-23.6313 814.541,-18.4008 804.076,-16.744 805.327,-23.6313"/>
</g>
<!-- &#45;37&#45;&gt;3 -->
<g id="edge142" class="edge"><title>&#45;37&#45;&gt;3</title>
<path fill="none" stroke="red" stroke-width="0.601049" d="M588.581,-68.2721C591.658,-67.2877 594.909,-66.3638 598,-65.6985 751.308,-32.7047 799.791,-77.9539 949,-29.6985 950.053,-29.358 951.11,-28.9669 952.163,-28.5371"/>
<polygon fill="red" stroke="red" stroke-width="0.601049" points="953.909,-31.5759 961.256,-23.9414 950.752,-25.3285 953.909,-31.5759"/>
</g>
<!-- &#45;38 -->
<g id="node38" class="node"><title>&#45;38</title>
<polygon fill="lightgray" stroke="black" points="635.5,-83.6985 606.5,-83.6985 606.5,-65.6985 635.5,-65.6985 635.5,-83.6985"/>
<text text-anchor="middle" x="621" y="-72.4985" font-family="Times New Roman,serif" font-size="9.00">&#45;38</text>
</g>
<!-- &#45;38&#45;&gt;0 -->
<g id="edge143" class="edge"><title>&#45;38&#45;&gt;0</title>
<path fill="none" stroke="green" stroke-width="0.122979" d="M635.602,-68.3617C638.676,-67.3709 641.922,-66.4217 645,-65.6985 756.852,-39.4229 792.36,-67.0977 901,-29.6985 901.876,-29.3971 902.755,-29.0627 903.633,-28.7019"/>
<polygon fill="green" stroke="green" stroke-width="0.122979" points="905.364,-31.7494 912.73,-24.1338 902.223,-25.4939 905.364,-31.7494"/>
</g>
<!-- &#45;38&#45;&gt;1 -->
<g id="edge144" class="edge"><title>&#45;38&#45;&gt;1</title>
<path fill="none" stroke="red" stroke-width="0.106426" d="M635.62,-68.4372C638.693,-67.4408 641.933,-66.4703 645,-65.6985 735.981,-42.7997 764.785,-61.6375 853,-29.6985 853.871,-29.3832 854.746,-29.0371 855.621,-28.6665"/>
<polygon fill="red" stroke="red" stroke-width="0.106426" points="857.372,-31.7028 864.701,-24.0521 854.2,-25.4624 857.372,-31.7028"/>
</g>
<!-- &#45;38&#45;&gt;2 -->
<g id="edge145" class="edge"><title>&#45;38&#45;&gt;2</title>
<path fill="none" stroke="green" stroke-width="0.414476" d="M635.681,-68.6572C638.75,-67.6449 641.973,-66.6123 645,-65.6985 701.853,-48.537 769.405,-30.9425 804.726,-21.9535"/>
<polygon fill="green" stroke="green" stroke-width="0.414476" points="805.772,-25.2992 814.606,-19.4501 804.052,-18.5137 805.772,-25.2992"/>
</g>
<!-- &#45;38&#45;&gt;3 -->
<g id="edge146" class="edge"><title>&#45;38&#45;&gt;3</title>
<path fill="none" stroke="red" stroke-width="0.49194" d="M635.59,-68.3096C638.665,-67.3225 641.914,-66.388 645,-65.6985 777.782,-36.0323 819.878,-72.5774 949,-29.6985 949.879,-29.4066 950.761,-29.0804 951.642,-28.7265"/>
<polygon fill="red" stroke="red" stroke-width="0.49194" points="953.358,-31.7817 960.749,-24.1904 950.237,-25.5159 953.358,-31.7817"/>
</g>
<!-- &#45;39 -->
<g id="node39" class="node"><title>&#45;39</title>
<polygon fill="lightgray" stroke="black" points="682.5,-83.6985 653.5,-83.6985 653.5,-65.6985 682.5,-65.6985 682.5,-83.6985"/>
<text text-anchor="middle" x="668" y="-72.4985" font-family="Times New Roman,serif" font-size="9.00">&#45;39</text>
</g>
<!-- &#45;39&#45;&gt;0 -->
<g id="edge147" class="edge"><title>&#45;39&#45;&gt;0</title>
<path fill="none" stroke="green" stroke-width="0.449141" d="M682.619,-68.4352C685.693,-67.439 688.933,-66.4691 692,-65.6985 783.415,-42.7296 812.36,-61.7509 901,-29.6985 901.871,-29.3836 902.746,-29.0377 903.621,-28.6674"/>
<polygon fill="green" stroke="green" stroke-width="0.449141" points="905.371,-31.704 912.702,-24.0542 902.201,-25.4632 905.371,-31.704"/>
</g>
<!-- &#45;39&#45;&gt;1 -->
<g id="edge148" class="edge"><title>&#45;39&#45;&gt;1</title>
<path fill="none" stroke="red" stroke-width="0.248442" d="M682.65,-68.5523C685.722,-67.5476 688.953,-66.5446 692,-65.6985 762.649,-46.0798 784.684,-56.3278 853,-29.6985 853.863,-29.3622 854.732,-28.9981 855.601,-28.6124"/>
<polygon fill="red" stroke="red" stroke-width="0.248442" points="857.381,-31.6319 864.654,-23.9277 854.164,-25.4149 857.381,-31.6319"/>
</g>
<!-- &#45;39&#45;&gt;2 -->
<g id="edge149" class="edge"><title>&#45;39&#45;&gt;2</title>
<path fill="none" stroke="green" stroke-width="0.197278" d="M682.572,-68.4627C710.491,-58.431 771.742,-36.4226 805.508,-24.2904"/>
<polygon fill="green" stroke="green" stroke-width="0.197278" points="806.809,-27.5418 815.037,-20.8664 804.442,-20.9541 806.809,-27.5418"/>
</g>
<!-- &#45;39&#45;&gt;3 -->
<g id="edge150" class="edge"><title>&#45;39&#45;&gt;3</title>
<path fill="none" stroke="red" stroke-width="0.216008" d="M682.601,-68.3605C685.676,-67.3697 688.921,-66.4208 692,-65.6985 804.288,-39.3523 839.934,-67.2117 949,-29.6985 949.876,-29.3973 950.755,-29.0631 951.634,-28.7025"/>
<polygon fill="red" stroke="red" stroke-width="0.216008" points="953.364,-31.7502 960.73,-24.1352 950.223,-25.4945 953.364,-31.7502"/>
</g>
<!-- &#45;40 -->
<g id="node40" class="node"><title>&#45;40</title>
<polygon fill="lightgray" stroke="black" points="729.5,-83.6985 700.5,-83.6985 700.5,-65.6985 729.5,-65.6985 729.5,-83.6985"/>
<text text-anchor="middle" x="715" y="-72.4985" font-family="Times New Roman,serif" font-size="9.00">&#45;40</text>
</g>
<!-- &#45;40&#45;&gt;0 -->
<g id="edge151" class="edge"><title>&#45;40&#45;&gt;0</title>
<path fill="none" stroke="red" stroke-width="0.245114" d="M729.649,-68.5492C732.721,-67.5447 735.952,-66.5426 739,-65.6985 810.08,-46.0104 832.262,-56.4402 901,-29.6985 901.863,-29.3627 902.732,-28.9992 903.601,-28.6139"/>
<polygon fill="red" stroke="red" stroke-width="0.245114" points="905.381,-31.6338 912.655,-23.9311 902.165,-25.4161 905.381,-31.6338"/>
</g>
<!-- &#45;40&#45;&gt;1 -->
<g id="edge152" class="edge"><title>&#45;40&#45;&gt;1</title>
<path fill="none" stroke="red" stroke-width="0.239143" d="M729.711,-68.7538C732.778,-67.7345 735.992,-66.6746 739,-65.6985 789.538,-49.2969 804.369,-51.103 853,-29.6985 853.848,-29.3254 854.703,-28.9302 855.561,-28.5182"/>
<polygon fill="red" stroke="red" stroke-width="0.239143" points="857.392,-31.5086 864.564,-23.7108 854.094,-25.3338 857.392,-31.5086"/>
</g>
<!-- &#45;40&#45;&gt;2 -->
<g id="edge153" class="edge"><title>&#45;40&#45;&gt;2</title>
<path fill="none" stroke="green" stroke-width="0.111985" d="M729.904,-66.1357C749.461,-56.2113 783.957,-38.7062 806.649,-27.1914"/>
<polygon fill="green" stroke="green" stroke-width="0.111985" points="808.526,-30.1634 815.86,-22.5171 805.359,-23.9212 808.526,-30.1634"/>
</g>
<!-- &#45;40&#45;&gt;3 -->
<g id="edge154" class="edge"><title>&#45;40&#45;&gt;3</title>
<path fill="none" stroke="red" stroke-width="0.284869" stroke-dasharray="1,5" d="M729.619,-68.4333C732.692,-67.4373 735.933,-66.4679 739,-65.6985 830.849,-42.6594 859.936,-61.8644 949,-29.6985 949.871,-29.3839 950.747,-29.0384 951.621,-28.6682"/>
<polygon fill="red" stroke="red" stroke-width="0.284869" points="953.371,-31.7052 960.702,-24.0563 950.201,-25.4639 953.371,-31.7052"/>
</g>
</g>
</svg>
