<?xml version="1.0" encoding="UTF-8" standalone="no"?>
<!DOCTYPE svg PUBLIC "-//W3C//DTD SVG 1.1//EN"
 "http://www.w3.org/Graphics/SVG/1.1/DTD/svg11.dtd">
<!-- Generated by graphviz version 2.38.0 (20140413.2041)
 -->
<!-- Title: %3 Pages: 1 -->
<svg width="2165pt" height="170pt"
 viewBox="0.00 0.00 2165.43 170.12" xmlns="http://www.w3.org/2000/svg" xmlns:xlink="http://www.w3.org/1999/xlink">
<g id="graph0" class="graph" transform="scale(1 1) rotate(0) translate(4 166.125)">
<title>%3</title>
<polygon fill="white" stroke="none" points="-4,4 -4,-166.125 2161.43,-166.125 2161.43,4 -4,4"/>
<!-- &#45;1 -->
<g id="node1" class="node"><title>&#45;1</title>
<polygon fill="lightgray" stroke="black" points="1178.21,-95.9117 1154.21,-95.9117 1154.21,-77.9117 1178.21,-77.9117 1178.21,-95.9117"/>
<text text-anchor="middle" x="1166.21" y="-84.7117" font-family="Times New Roman,serif" font-size="9.00">&#45;1</text>
</g>
<!-- 0 -->
<g id="node41" class="node"><title>0</title>
<ellipse fill="lightblue" stroke="black" cx="980.213" cy="-14.8492" rx="14.7" ry="14.7"/>
<text text-anchor="middle" x="980.213" y="-12.6492" font-family="Times New Roman,serif" font-size="9.00">0</text>
</g>
<!-- &#45;1&#45;&gt;0 -->
<g id="edge1" class="edge"><title>&#45;1&#45;&gt;0</title>
<path fill="none" stroke="green" stroke-width="0.290221" d="M1159.54,-77.861C1155.72,-73.7113 1150.63,-68.8698 1145.21,-65.6985 1121.09,-51.5675 1044.27,-31.5053 1004.53,-21.7003"/>
<polygon fill="green" stroke="green" stroke-width="0.290221" points="1005.16,-18.2492 994.611,-19.2745 1003.49,-25.049 1005.16,-18.2492"/>
</g>
<!-- 1 -->
<g id="node42" class="node"><title>1</title>
<ellipse fill="lightblue" stroke="black" cx="1131.21" cy="-14.8492" rx="14.7" ry="14.7"/>
<text text-anchor="middle" x="1131.21" y="-12.6492" font-family="Times New Roman,serif" font-size="9.00">1</text>
</g>
<!-- &#45;1&#45;&gt;1 -->
<g id="edge2" class="edge"><title>&#45;1&#45;&gt;1</title>
<path fill="none" stroke="red" stroke-width="0.180352" d="M1162.2,-77.8746C1157.34,-68.1564 1148.98,-51.4054 1142.16,-37.7594"/>
<polygon fill="red" stroke="red" stroke-width="0.180352" points="1145.14,-35.8985 1137.54,-28.5167 1138.88,-39.0268 1145.14,-35.8985"/>
</g>
<!-- 2 -->
<g id="node43" class="node"><title>2</title>
<ellipse fill="lightblue" stroke="black" cx="1198.21" cy="-14.8492" rx="14.7" ry="14.7"/>
<text text-anchor="middle" x="1198.21" y="-12.6492" font-family="Times New Roman,serif" font-size="9.00">2</text>
</g>
<!-- &#45;1&#45;&gt;2 -->
<g id="edge3" class="edge"><title>&#45;1&#45;&gt;2</title>
<path fill="none" stroke="green" stroke-width="0.288011" d="M1169.88,-77.8746C1174.3,-68.2142 1181.88,-51.6046 1188.09,-38.0034"/>
<polygon fill="green" stroke="green" stroke-width="0.288011" points="1191.34,-39.324 1192.31,-28.7738 1184.97,-36.4158 1191.34,-39.324"/>
</g>
<!-- 3 -->
<g id="node44" class="node"><title>3</title>
<ellipse fill="lightblue" stroke="black" cx="1061.21" cy="-14.8492" rx="14.7" ry="14.7"/>
<text text-anchor="middle" x="1061.21" y="-12.6492" font-family="Times New Roman,serif" font-size="9.00">3</text>
</g>
<!-- &#45;1&#45;&gt;3 -->
<g id="edge4" class="edge"><title>&#45;1&#45;&gt;3</title>
<path fill="none" stroke="red" stroke-width="0.441291" d="M1158.43,-77.5793C1154.63,-73.739 1149.88,-69.2553 1145.21,-65.6985 1125.41,-50.6128 1100.69,-36.4352 1083.21,-27.0857"/>
<polygon fill="red" stroke="red" stroke-width="0.441291" points="1084.8,-23.9676 1074.32,-22.4131 1081.55,-30.1639 1084.8,-23.9676"/>
</g>
<!-- &#45;2 -->
<g id="node2" class="node"><title>&#45;2</title>
<polygon fill="lightgray" stroke="black" points="1220.21,-95.9117 1196.21,-95.9117 1196.21,-77.9117 1220.21,-77.9117 1220.21,-95.9117"/>
<text text-anchor="middle" x="1208.21" y="-84.7117" font-family="Times New Roman,serif" font-size="9.00">&#45;2</text>
</g>
<!-- &#45;2&#45;&gt;0 -->
<g id="edge5" class="edge"><title>&#45;2&#45;&gt;0</title>
<path fill="none" stroke="green" stroke-width="0.183688" d="M1201.61,-77.735C1197.82,-73.5485 1192.72,-68.7119 1187.21,-65.6985 1127.08,-32.7734 1103.86,-45.792 1037.21,-29.6985 1026.49,-27.1082 1014.63,-24.2294 1004.52,-21.7705"/>
<polygon fill="green" stroke="green" stroke-width="0.183688" points="1005.28,-18.3538 994.736,-19.3897 1003.62,-25.1552 1005.28,-18.3538"/>
</g>
<!-- &#45;2&#45;&gt;1 -->
<g id="edge6" class="edge"><title>&#45;2&#45;&gt;1</title>
<path fill="none" stroke="green" stroke-width="0.11638" d="M1199.7,-77.5745C1195.91,-73.8987 1191.37,-69.5486 1187.21,-65.6985 1174.88,-54.2839 1160.75,-41.7052 1149.76,-32.0391"/>
<polygon fill="green" stroke="green" stroke-width="0.11638" points="1151.89,-29.2454 1142.06,-25.2827 1147.27,-34.508 1151.89,-29.2454"/>
</g>
<!-- &#45;2&#45;&gt;2 -->
<g id="edge7" class="edge"><title>&#45;2&#45;&gt;2</title>
<path fill="none" stroke="red" stroke-width="0.394696" d="M1207.07,-77.8746C1205.75,-68.6287 1203.52,-53.017 1201.63,-39.7699"/>
<polygon fill="red" stroke="red" stroke-width="0.394696" points="1205.09,-39.2248 1200.21,-29.8197 1198.16,-40.2139 1205.09,-39.2248"/>
</g>
<!-- &#45;2&#45;&gt;3 -->
<g id="edge8" class="edge"><title>&#45;2&#45;&gt;3</title>
<path fill="none" stroke="green" stroke-width="0.307019" stroke-dasharray="1,5" d="M1201.05,-77.6399C1197.25,-73.6298 1192.32,-68.9831 1187.21,-65.6985 1169.7,-54.4375 1116.18,-34.9197 1084.81,-23.945"/>
<polygon fill="green" stroke="green" stroke-width="0.307019" points="1085.7,-20.5488 1075.1,-20.5749 1083.4,-27.1615 1085.7,-20.5488"/>
</g>
<!-- &#45;3 -->
<g id="node3" class="node"><title>&#45;3</title>
<polygon fill="lightgray" stroke="black" points="120.213,-162.125 96.2132,-162.125 96.2132,-144.125 120.213,-144.125 120.213,-162.125"/>
<text text-anchor="middle" x="108.213" y="-150.925" font-family="Times New Roman,serif" font-size="9.00">&#45;3</text>
</g>
<!-- &#45;3&#45;&gt;0 -->
<g id="edge9" class="edge"><title>&#45;3&#45;&gt;0</title>
<path fill="none" stroke="red" stroke-width="0.277923" stroke-dasharray="1,5" d="M103.047,-143.937C93.022,-126.909 73.6427,-87.4589 94.2132,-65.6985 124.611,-33.5421 814.227,-18.9508 955.186,-16.299"/>
<polygon fill="red" stroke="red" stroke-width="0.277923" points="955.473,-19.7944 965.407,-16.1097 955.344,-12.7956 955.473,-19.7944"/>
</g>
<!-- &#45;3&#45;&gt;1 -->
<g id="edge10" class="edge"><title>&#45;3&#45;&gt;1</title>
<path fill="none" stroke="red" stroke-width="0.330354" d="M120.563,-152.054C274.975,-151.146 1825.95,-141.205 1858.21,-108.125 1871.38,-94.625 1871.19,-79.3777 1858.21,-65.6985 1805.83,-10.4879 1249.06,-43.4796 1174.21,-29.6985 1167.79,-28.5157 1160.99,-26.6368 1154.75,-24.6399"/>
<polygon fill="red" stroke="red" stroke-width="0.330354" points="1155.52,-21.2029 1144.92,-21.2698 1153.25,-27.8244 1155.52,-21.2029"/>
</g>
<!-- &#45;3&#45;&gt;2 -->
<g id="edge11" class="edge"><title>&#45;3&#45;&gt;2</title>
<path fill="none" stroke="green" stroke-width="0.142446" d="M120.252,-152.084C280.842,-151.509 1994.64,-144.526 2030.21,-108.125 2043.39,-94.6398 2043.14,-79.4247 2030.21,-65.6985 2001.84,-35.5701 1359.49,-19.4752 1223.4,-16.3969"/>
<polygon fill="green" stroke="green" stroke-width="0.142446" points="1223.23,-12.8922 1213.15,-16.1681 1223.07,-19.8905 1223.23,-12.8922"/>
</g>
<!-- &#45;3&#45;&gt;3 -->
<g id="edge12" class="edge"><title>&#45;3&#45;&gt;3</title>
<path fill="none" stroke="red" stroke-width="0.200362" d="M110.801,-144.066C117.024,-126.186 134.695,-83.3835 166.213,-65.6985 247.49,-20.0933 911.936,-42.7627 1004.21,-29.6985 1015.14,-28.1516 1027.03,-25.433 1037.11,-22.8116"/>
<polygon fill="red" stroke="red" stroke-width="0.200362" points="1038.11,-26.1672 1046.84,-20.1684 1036.27,-19.4119 1038.11,-26.1672"/>
</g>
<!-- 702 -->
<g id="node46" class="node"><title>702</title>
<ellipse fill="white" stroke="black" cx="21.2132" cy="-86.9117" rx="21.4286" ry="21.4286"/>
<text text-anchor="middle" x="21.2132" y="-84.7117" font-family="Times New Roman,serif" font-size="9.00">702</text>
</g>
<!-- &#45;3&#45;&gt;702 -->
<g id="edge160" class="edge"><title>&#45;3&#45;&gt;702</title>
<path fill="none" stroke="red" stroke-width="0.146222" d="M97.1946,-143.992C84.5013,-134.624 63.2352,-118.927 46.4244,-106.52"/>
<polygon fill="red" stroke="red" stroke-width="0.146222" points="48.2329,-103.504 38.1086,-100.382 44.0759,-109.136 48.2329,-103.504"/>
</g>
<!-- &#45;4 -->
<g id="node4" class="node"><title>&#45;4</title>
<polygon fill="lightgray" stroke="black" points="1262.21,-95.9117 1238.21,-95.9117 1238.21,-77.9117 1262.21,-77.9117 1262.21,-95.9117"/>
<text text-anchor="middle" x="1250.21" y="-84.7117" font-family="Times New Roman,serif" font-size="9.00">&#45;4</text>
</g>
<!-- &#45;4&#45;&gt;0 -->
<g id="edge13" class="edge"><title>&#45;4&#45;&gt;0</title>
<path fill="none" stroke="green" stroke-width="0.293827" d="M1243.67,-77.6241C1239.89,-73.405 1234.79,-68.5728 1229.21,-65.6985 1152.04,-25.9282 1122.09,-47.954 1037.21,-29.6985 1026.42,-27.3782 1014.56,-24.5408 1004.46,-22.0399"/>
<polygon fill="green" stroke="green" stroke-width="0.293827" points="1005.24,-18.6282 994.69,-19.5912 1003.54,-25.4181 1005.24,-18.6282"/>
</g>
<!-- &#45;4&#45;&gt;1 -->
<g id="edge14" class="edge"><title>&#45;4&#45;&gt;1</title>
<path fill="none" stroke="green" stroke-width="0.505267" stroke-dasharray="1,5" d="M1242.92,-77.8396C1239.08,-73.8804 1234.16,-69.219 1229.21,-65.6985 1205.29,-48.6747 1174.73,-34.1108 1154.15,-25.1972"/>
<polygon fill="green" stroke="green" stroke-width="0.505267" points="1155.49,-21.9657 1144.92,-21.2893 1152.77,-28.4116 1155.49,-21.9657"/>
</g>
<!-- &#45;4&#45;&gt;2 -->
<g id="edge15" class="edge"><title>&#45;4&#45;&gt;2</title>
<path fill="none" stroke="green" stroke-width="0.256845" d="M1244.25,-77.8746C1236.65,-67.6352 1223.25,-49.5885 1212.87,-35.5923"/>
<polygon fill="green" stroke="green" stroke-width="0.256845" points="1215.64,-33.4512 1206.87,-27.5071 1210.01,-37.6231 1215.64,-33.4512"/>
</g>
<!-- &#45;4&#45;&gt;3 -->
<g id="edge16" class="edge"><title>&#45;4&#45;&gt;3</title>
<path fill="none" stroke="green" stroke-width="0.10526" d="M1243.55,-77.847C1239.73,-73.6933 1234.64,-68.8523 1229.21,-65.6985 1180.34,-37.2837 1161.39,-45.8475 1107.21,-29.6985 1100.02,-27.5536 1092.19,-25.2044 1085.07,-23.06"/>
<polygon fill="green" stroke="green" stroke-width="0.10526" points="1085.88,-19.649 1075.3,-20.1122 1083.86,-26.3508 1085.88,-19.649"/>
</g>
<!-- &#45;5 -->
<g id="node5" class="node"><title>&#45;5</title>
<polygon fill="lightgray" stroke="black" points="1304.21,-95.9117 1280.21,-95.9117 1280.21,-77.9117 1304.21,-77.9117 1304.21,-95.9117"/>
<text text-anchor="middle" x="1292.21" y="-84.7117" font-family="Times New Roman,serif" font-size="9.00">&#45;5</text>
</g>
<!-- &#45;5&#45;&gt;0 -->
<g id="edge17" class="edge"><title>&#45;5&#45;&gt;0</title>
<path fill="none" stroke="green" stroke-width="0.307186" stroke-dasharray="1,5" d="M1285.71,-77.551C1281.94,-73.3106 1276.84,-68.4812 1271.21,-65.6985 1176.9,-19.0338 1140.43,-50.1389 1037.21,-29.6985 1026.39,-27.5549 1014.51,-24.7446 1004.42,-22.2162"/>
<polygon fill="green" stroke="green" stroke-width="0.307186" points="1005.22,-18.8076 994.663,-19.723 1003.48,-25.5897 1005.22,-18.8076"/>
</g>
<!-- &#45;5&#45;&gt;1 -->
<g id="edge18" class="edge"><title>&#45;5&#45;&gt;1</title>
<path fill="none" stroke="green" stroke-width="0.294625" d="M1285.1,-77.5645C1281.31,-73.5352 1276.38,-68.8941 1271.21,-65.6985 1261.04,-59.4 1192.06,-36.0429 1154.87,-23.6651"/>
<polygon fill="green" stroke="green" stroke-width="0.294625" points="1155.89,-20.3167 1145.3,-20.4884 1153.69,-26.9603 1155.89,-20.3167"/>
</g>
<!-- &#45;5&#45;&gt;2 -->
<g id="edge19" class="edge"><title>&#45;5&#45;&gt;2</title>
<path fill="none" stroke="green" stroke-width="0.137116" d="M1284.33,-77.7108C1280.51,-73.8993 1275.77,-69.4019 1271.21,-65.6985 1254.45,-52.0676 1234.05,-38.3533 1219.08,-28.7696"/>
<polygon fill="green" stroke="green" stroke-width="0.137116" points="1220.86,-25.7576 1210.54,-23.3738 1217.12,-31.675 1220.86,-25.7576"/>
</g>
<!-- &#45;5&#45;&gt;3 -->
<g id="edge20" class="edge"><title>&#45;5&#45;&gt;3</title>
<path fill="none" stroke="green" stroke-width="0.346344" d="M1285.63,-77.6922C1281.85,-73.4931 1276.75,-68.6582 1271.21,-65.6985 1205.41,-30.4995 1179.44,-48.4688 1107.21,-29.6985 1099.95,-27.8098 1092.1,-25.5366 1084.98,-23.3831"/>
<polygon fill="green" stroke="green" stroke-width="0.346344" points="1085.81,-19.9769 1075.23,-20.372 1083.75,-26.6656 1085.81,-19.9769"/>
</g>
<!-- &#45;6 -->
<g id="node6" class="node"><title>&#45;6</title>
<polygon fill="lightgray" stroke="black" points="1346.21,-95.9117 1322.21,-95.9117 1322.21,-77.9117 1346.21,-77.9117 1346.21,-95.9117"/>
<text text-anchor="middle" x="1334.21" y="-84.7117" font-family="Times New Roman,serif" font-size="9.00">&#45;6</text>
</g>
<!-- &#45;6&#45;&gt;0 -->
<g id="edge21" class="edge"><title>&#45;6&#45;&gt;0</title>
<path fill="none" stroke="red" stroke-width="0.37032" d="M1328.09,-77.9094C1324.3,-73.5575 1319.05,-68.5042 1313.21,-65.6985 1201.72,-12.113 1158.83,-52.3353 1037.21,-29.6985 1026.36,-27.6792 1014.49,-24.888 1004.4,-22.3403"/>
<polygon fill="red" stroke="red" stroke-width="0.37032" points="1005.2,-18.9337 994.645,-19.8158 1003.45,-25.7103 1005.2,-18.9337"/>
</g>
<!-- &#45;6&#45;&gt;1 -->
<g id="edge22" class="edge"><title>&#45;6&#45;&gt;1</title>
<path fill="none" stroke="green" stroke-width="0.155612" d="M1327.59,-77.7742C1323.79,-73.5991 1318.69,-68.761 1313.21,-65.6985 1257.51,-34.5523 1235.5,-47.488 1174.21,-29.6985 1167.94,-27.8777 1161.2,-25.7759 1154.96,-23.7686"/>
<polygon fill="green" stroke="green" stroke-width="0.155612" points="1155.69,-20.3251 1145.09,-20.546 1153.51,-26.9789 1155.69,-20.3251"/>
</g>
<!-- &#45;6&#45;&gt;2 -->
<g id="edge23" class="edge"><title>&#45;6&#45;&gt;2</title>
<path fill="none" stroke="green" stroke-width="0.165993" d="M1327.01,-77.7093C1323.2,-73.7169 1318.27,-69.0651 1313.21,-65.6985 1284.03,-46.2565 1246.02,-31.5382 1221.86,-23.3007"/>
<polygon fill="green" stroke="green" stroke-width="0.165993" points="1222.71,-19.8955 1212.11,-20.0752 1220.51,-26.5408 1222.71,-19.8955"/>
</g>
<!-- &#45;6&#45;&gt;3 -->
<g id="edge24" class="edge"><title>&#45;6&#45;&gt;3</title>
<path fill="none" stroke="green" stroke-width="0.132427" d="M1327.68,-77.5966C1323.91,-73.3695 1318.81,-68.5384 1313.21,-65.6985 1230.33,-23.634 1197.65,-51.1339 1107.21,-29.6985 1099.91,-27.9667 1092.05,-25.7401 1084.93,-23.581"/>
<polygon fill="green" stroke="green" stroke-width="0.132427" points="1085.78,-20.1774 1075.19,-20.5312 1083.69,-26.858 1085.78,-20.1774"/>
</g>
<!-- &#45;7 -->
<g id="node7" class="node"><title>&#45;7</title>
<polygon fill="lightgray" stroke="black" points="1388.21,-95.9117 1364.21,-95.9117 1364.21,-77.9117 1388.21,-77.9117 1388.21,-95.9117"/>
<text text-anchor="middle" x="1376.21" y="-84.7117" font-family="Times New Roman,serif" font-size="9.00">&#45;7</text>
</g>
<!-- &#45;7&#45;&gt;0 -->
<g id="edge25" class="edge"><title>&#45;7&#45;&gt;0</title>
<path fill="none" stroke="red" stroke-width="0.281484" d="M1370.11,-77.8721C1366.32,-73.5079 1361.07,-68.4546 1355.21,-65.6985 1226.5,-5.17647 1177.26,-54.5385 1037.21,-29.6985 1026.35,-27.7713 1014.47,-24.9943 1004.38,-22.4322"/>
<polygon fill="red" stroke="red" stroke-width="0.281484" points="1005.19,-19.0271 994.632,-19.8846 1003.42,-25.7996 1005.19,-19.0271"/>
</g>
<!-- &#45;7&#45;&gt;1 -->
<g id="edge26" class="edge"><title>&#45;7&#45;&gt;1</title>
<path fill="none" stroke="red" stroke-width="0.194732" d="M1369.66,-77.6485C1365.88,-73.4366 1360.78,-68.6034 1355.21,-65.6985 1282.51,-27.7272 1253.6,-50.305 1174.21,-29.6985 1167.89,-28.0575 1161.13,-26.0185 1154.89,-24.0141"/>
<polygon fill="red" stroke="red" stroke-width="0.194732" points="1155.63,-20.573 1145.04,-20.75 1153.43,-27.2177 1155.63,-20.573"/>
</g>
<!-- &#45;7&#45;&gt;2 -->
<g id="edge27" class="edge"><title>&#45;7&#45;&gt;2</title>
<path fill="none" stroke="green" stroke-width="0.203129" d="M1369.52,-77.8912C1365.7,-73.7505 1360.61,-68.9078 1355.21,-65.6985 1312.38,-40.2049 1255.1,-26.318 1222.89,-20.0507"/>
<polygon fill="green" stroke="green" stroke-width="0.203129" points="1223.46,-16.5966 1212.99,-18.2116 1222.18,-23.4789 1223.46,-16.5966"/>
</g>
<!-- &#45;7&#45;&gt;3 -->
<g id="edge28" class="edge"><title>&#45;7&#45;&gt;3</title>
<path fill="none" stroke="green" stroke-width="0.283764" d="M1369.72,-77.532C1365.95,-73.2859 1360.85,-68.4573 1355.21,-65.6985 1255.18,-16.7291 1215.95,-53.8192 1107.21,-29.6985 1099.88,-28.0723 1092.02,-25.8771 1084.9,-23.7141"/>
<polygon fill="green" stroke="green" stroke-width="0.283764" points="1085.75,-20.3122 1075.16,-20.6383 1083.65,-26.9872 1085.75,-20.3122"/>
</g>
<!-- &#45;8 -->
<g id="node8" class="node"><title>&#45;8</title>
<polygon fill="lightgray" stroke="black" points="1430.21,-95.9117 1406.21,-95.9117 1406.21,-77.9117 1430.21,-77.9117 1430.21,-95.9117"/>
<text text-anchor="middle" x="1418.21" y="-84.7117" font-family="Times New Roman,serif" font-size="9.00">&#45;8</text>
</g>
<!-- &#45;8&#45;&gt;0 -->
<g id="edge29" class="edge"><title>&#45;8&#45;&gt;0</title>
<path fill="none" stroke="red" stroke-width="0.151634" d="M1412.12,-77.8434C1408.34,-73.4695 1403.09,-68.4162 1397.21,-65.6985 1251.25,1.7701 1195.72,-56.7457 1037.21,-29.6985 1026.34,-27.8423 1014.45,-25.0762 1004.37,-22.503"/>
<polygon fill="red" stroke="red" stroke-width="0.151634" points="1005.18,-19.099 994.623,-19.9376 1003.4,-25.8683 1005.18,-19.099"/>
</g>
<!-- &#45;8&#45;&gt;1 -->
<g id="edge30" class="edge"><title>&#45;8&#45;&gt;1</title>
<path fill="none" stroke="red" stroke-width="0.153129" d="M1411.7,-77.5676C1407.93,-73.3321 1402.83,-68.502 1397.21,-65.6985 1307.4,-20.8426 1271.83,-53.1546 1174.21,-29.6985 1167.86,-28.1724 1161.09,-26.1736 1154.85,-24.1711"/>
<polygon fill="red" stroke="red" stroke-width="0.153129" points="1155.6,-20.7313 1145,-20.8804 1153.38,-27.3702 1155.6,-20.7313"/>
</g>
<!-- &#45;8&#45;&gt;2 -->
<g id="edge31" class="edge"><title>&#45;8&#45;&gt;2</title>
<path fill="none" stroke="green" stroke-width="0.268366" d="M1411.6,-77.7567C1407.8,-73.5765 1402.7,-68.7391 1397.21,-65.6985 1339.97,-33.9897 1262.39,-22.1188 1223.15,-17.9434"/>
<polygon fill="green" stroke="green" stroke-width="0.268366" points="1223.45,-14.4553 1213.15,-16.9597 1222.76,-21.4217 1223.45,-14.4553"/>
</g>
<!-- &#45;8&#45;&gt;3 -->
<g id="edge32" class="edge"><title>&#45;8&#45;&gt;3</title>
<path fill="none" stroke="green" stroke-width="0.408953" d="M1412.1,-77.8958C1408.31,-73.5394 1403.06,-68.4861 1397.21,-65.6985 1279.98,-9.8022 1234.29,-56.5153 1107.21,-29.6985 1099.87,-28.1481 1092,-25.9753 1084.88,-23.8096"/>
<polygon fill="green" stroke="green" stroke-width="0.408953" points="1085.74,-20.4087 1075.15,-20.7151 1083.62,-27.0799 1085.74,-20.4087"/>
</g>
<!-- &#45;9 -->
<g id="node9" class="node"><title>&#45;9</title>
<polygon fill="lightgray" stroke="black" points="1472.21,-95.9117 1448.21,-95.9117 1448.21,-77.9117 1472.21,-77.9117 1472.21,-95.9117"/>
<text text-anchor="middle" x="1460.21" y="-84.7117" font-family="Times New Roman,serif" font-size="9.00">&#45;9</text>
</g>
<!-- &#45;9&#45;&gt;0 -->
<g id="edge33" class="edge"><title>&#45;9&#45;&gt;0</title>
<path fill="none" stroke="red" stroke-width="0.195108" d="M1454.13,-77.8205C1450.36,-73.4391 1445.11,-68.3858 1439.21,-65.6985 1357.61,-28.4875 1125.7,-44.3271 1037.21,-29.6985 1026.33,-27.8987 1014.44,-25.1412 1004.36,-22.5593"/>
<polygon fill="red" stroke="red" stroke-width="0.195108" points="1005.18,-19.1561 994.616,-19.9796 1003.39,-25.9228 1005.18,-19.1561"/>
</g>
<!-- &#45;9&#45;&gt;1 -->
<g id="edge34" class="edge"><title>&#45;9&#45;&gt;1</title>
<path fill="none" stroke="green" stroke-width="0.223044" d="M1453.73,-77.5114C1449.97,-73.2594 1444.86,-68.4316 1439.21,-65.6985 1332.22,-13.9274 1290.12,-56.0202 1174.21,-29.6985 1167.84,-28.252 1161.07,-26.281 1154.82,-24.2798"/>
<polygon fill="green" stroke="green" stroke-width="0.223044" points="1155.58,-20.8408 1144.98,-20.9707 1153.35,-27.4757 1155.58,-20.8408"/>
</g>
<!-- &#45;9&#45;&gt;2 -->
<g id="edge35" class="edge"><title>&#45;9&#45;&gt;2</title>
<path fill="none" stroke="red" stroke-width="0.37336" stroke-dasharray="1,5" d="M1453.65,-77.6654C1449.86,-73.4585 1444.76,-68.6246 1439.21,-65.6985 1367.28,-27.7806 1269.11,-18.6901 1223.47,-16.5216"/>
<polygon fill="red" stroke="red" stroke-width="0.37336" points="1223.42,-13.0171 1213.29,-16.1141 1223.14,-20.0115 1223.42,-13.0171"/>
</g>
<!-- &#45;9&#45;&gt;3 -->
<g id="edge36" class="edge"><title>&#45;9&#45;&gt;3</title>
<path fill="none" stroke="green" stroke-width="0.634359" d="M1454.11,-77.8618C1450.33,-73.494 1445.08,-68.4407 1439.21,-65.6985 1304.75,-2.86187 1252.67,-59.2178 1107.21,-29.6985 1099.85,-28.2051 1091.98,-26.0492 1084.87,-23.8815"/>
<polygon fill="green" stroke="green" stroke-width="0.634359" points="1085.73,-20.4813 1075.13,-20.7729 1083.6,-27.1495 1085.73,-20.4813"/>
</g>
<!-- &#45;10 -->
<g id="node10" class="node"><title>&#45;10</title>
<polygon fill="lightgray" stroke="black" points="1519.71,-95.9117 1490.71,-95.9117 1490.71,-77.9117 1519.71,-77.9117 1519.71,-95.9117"/>
<text text-anchor="middle" x="1505.21" y="-84.7117" font-family="Times New Roman,serif" font-size="9.00">&#45;10</text>
</g>
<!-- &#45;10&#45;&gt;0 -->
<g id="edge37" class="edge"><title>&#45;10&#45;&gt;0</title>
<path fill="none" stroke="red" stroke-width="0.272502" d="M1498.05,-77.7954C1493.66,-73.4056 1487.66,-68.3523 1481.21,-65.6985 1389.67,-28.024 1134.95,-45.433 1037.21,-29.6985 1026.32,-27.9445 1014.43,-25.194 1004.35,-22.6049"/>
<polygon fill="red" stroke="red" stroke-width="0.272502" points="1005.17,-19.2024 994.61,-20.0138 1003.37,-25.9671 1005.17,-19.2024"/>
</g>
<!-- &#45;10&#45;&gt;1 -->
<g id="edge38" class="edge"><title>&#45;10&#45;&gt;1</title>
<path fill="none" stroke="red" stroke-width="0.328037" d="M1498.01,-77.8817C1493.61,-73.5206 1487.61,-68.4673 1481.21,-65.6985 1355.13,-11.1465 1308.45,-58.8949 1174.21,-29.6985 1167.83,-28.3103 1161.05,-26.3597 1154.81,-24.3594"/>
<polygon fill="red" stroke="red" stroke-width="0.328037" points="1155.56,-20.9209 1144.97,-21.0368 1153.32,-27.5529 1155.56,-20.9209"/>
</g>
<!-- &#45;10&#45;&gt;2 -->
<g id="edge39" class="edge"><title>&#45;10&#45;&gt;2</title>
<path fill="none" stroke="green" stroke-width="0.115225" d="M1497.53,-77.6125C1493.16,-73.3901 1487.33,-68.5583 1481.21,-65.6985 1392.79,-24.3763 1274.23,-17.0992 1223.24,-15.9646"/>
<polygon fill="green" stroke="green" stroke-width="0.115225" points="1223.2,-12.4637 1213.15,-15.8031 1223.09,-19.4628 1223.2,-12.4637"/>
</g>
<!-- &#45;10&#45;&gt;3 -->
<g id="edge40" class="edge"><title>&#45;10&#45;&gt;3</title>
<path fill="none" stroke="green" stroke-width="0.416191" stroke-dasharray="1,5" d="M1498.03,-77.8318C1493.64,-73.454 1487.64,-68.4007 1481.21,-65.6985 1327.27,-0.983289 1271.06,-61.9246 1107.21,-29.6985 1099.85,-28.2494 1091.97,-26.1067 1084.86,-23.9374"/>
<polygon fill="green" stroke="green" stroke-width="0.416191" points="1085.72,-20.5378 1075.13,-20.8179 1083.58,-27.2036 1085.72,-20.5378"/>
</g>
<!-- &#45;11 -->
<g id="node11" class="node"><title>&#45;11</title>
<polygon fill="lightgray" stroke="black" points="203.713,-95.9117 174.713,-95.9117 174.713,-77.9117 203.713,-77.9117 203.713,-95.9117"/>
<text text-anchor="middle" x="189.213" y="-84.7117" font-family="Times New Roman,serif" font-size="9.00">&#45;11</text>
</g>
<!-- &#45;11&#45;&gt;0 -->
<g id="edge41" class="edge"><title>&#45;11&#45;&gt;0</title>
<path fill="none" stroke="red" stroke-width="0.469998" d="M198.153,-77.7533C203.55,-73.3494 210.8,-68.2961 218.213,-65.6985 358.671,-16.4838 838.889,-15.2517 954.857,-15.6927"/>
<polygon fill="red" stroke="red" stroke-width="0.469998" points="955.188,-19.1942 965.204,-15.7406 955.22,-12.1942 955.188,-19.1942"/>
</g>
<!-- &#45;11&#45;&gt;1 -->
<g id="edge42" class="edge"><title>&#45;11&#45;&gt;1</title>
<path fill="none" stroke="red" stroke-width="0.400187" d="M203.948,-79.944C216.538,-75.1481 235.252,-68.7294 252.213,-65.6985 617.002,-0.512084 719.851,-91.5937 1085.21,-29.6985 1092.62,-28.4443 1100.5,-26.3594 1107.61,-24.1831"/>
<polygon fill="red" stroke="red" stroke-width="0.400187" points="1108.91,-27.4413 1117.34,-21.0155 1106.74,-20.7857 1108.91,-27.4413"/>
</g>
<!-- &#45;11&#45;&gt;3 -->
<g id="edge43" class="edge"><title>&#45;11&#45;&gt;3</title>
<path fill="none" stroke="green" stroke-width="0.154064" d="M198.134,-77.6988C203.525,-73.2768 210.775,-68.2235 218.213,-65.6985 383.784,-9.49607 831.125,-54.4542 1004.21,-29.6985 1015.14,-28.1361 1027.03,-25.4151 1037.11,-22.7962"/>
<polygon fill="green" stroke="green" stroke-width="0.154064" points="1038.1,-26.1522 1046.84,-20.1568 1036.27,-19.3962 1038.1,-26.1522"/>
</g>
<!-- &#45;12 -->
<g id="node12" class="node"><title>&#45;12</title>
<polygon fill="lightgray" stroke="black" points="1566.71,-95.9117 1537.71,-95.9117 1537.71,-77.9117 1566.71,-77.9117 1566.71,-95.9117"/>
<text text-anchor="middle" x="1552.21" y="-84.7117" font-family="Times New Roman,serif" font-size="9.00">&#45;12</text>
</g>
<!-- &#45;12&#45;&gt;0 -->
<g id="edge44" class="edge"><title>&#45;12&#45;&gt;0</title>
<path fill="none" stroke="green" stroke-width="0.621912" d="M1545.42,-77.7784C1541.24,-73.3829 1535.49,-68.3296 1529.21,-65.6985 1428.11,-23.3094 1145.51,-46.6978 1037.21,-29.6985 1026.31,-27.9873 1014.43,-25.2434 1004.34,-22.6477"/>
<polygon fill="green" stroke="green" stroke-width="0.621912" points="1005.17,-19.2458 994.605,-20.0458 1003.36,-26.0085 1005.17,-19.2458"/>
</g>
<!-- &#45;12&#45;&gt;1 -->
<g id="edge45" class="edge"><title>&#45;12&#45;&gt;1</title>
<path fill="none" stroke="red" stroke-width="0.120473" d="M1545.39,-77.8441C1541.2,-73.4705 1535.45,-68.4172 1529.21,-65.6985 1383.84,-2.33441 1329.44,-62.1871 1174.21,-29.6985 1167.82,-28.3604 1161.04,-26.4272 1154.79,-24.4278"/>
<polygon fill="red" stroke="red" stroke-width="0.120473" points="1155.55,-20.9897 1144.96,-21.0936 1153.3,-27.6191 1155.55,-20.9897"/>
</g>
<!-- &#45;12&#45;&gt;2 -->
<g id="edge46" class="edge"><title>&#45;12&#45;&gt;2</title>
<path fill="none" stroke="green" stroke-width="0.293451" d="M1544.94,-77.5483C1540.77,-73.307 1535.19,-68.4777 1529.21,-65.6985 1474.43,-40.2255 1290.28,-23.2467 1223.05,-17.768"/>
<polygon fill="green" stroke="green" stroke-width="0.293451" points="1223.2,-14.2687 1212.95,-16.9604 1222.64,-21.2465 1223.2,-14.2687"/>
</g>
<!-- &#45;12&#45;&gt;3 -->
<g id="edge47" class="edge"><title>&#45;12&#45;&gt;3</title>
<path fill="none" stroke="green" stroke-width="0.177413" d="M1545.41,-77.8067C1541.22,-73.4206 1535.47,-68.3673 1529.21,-65.6985 1356.06,8.13282 1292.11,-65.0213 1107.21,-29.6985 1099.84,-28.2895 1091.96,-26.1586 1084.85,-23.9879"/>
<polygon fill="green" stroke="green" stroke-width="0.177413" points="1085.71,-20.5887 1075.12,-20.8585 1083.57,-27.2525 1085.71,-20.5887"/>
</g>
<!-- &#45;13 -->
<g id="node13" class="node"><title>&#45;13</title>
<polygon fill="lightgray" stroke="black" points="1613.71,-95.9117 1584.71,-95.9117 1584.71,-77.9117 1613.71,-77.9117 1613.71,-95.9117"/>
<text text-anchor="middle" x="1599.21" y="-84.7117" font-family="Times New Roman,serif" font-size="9.00">&#45;13</text>
</g>
<!-- &#45;13&#45;&gt;0 -->
<g id="edge48" class="edge"><title>&#45;13&#45;&gt;0</title>
<path fill="none" stroke="red" stroke-width="0.689148" d="M1592.43,-77.7634C1588.25,-73.3629 1582.5,-68.3096 1576.21,-65.6985 1465.36,-19.6324 1155.86,-47.9369 1037.21,-29.6985 1026.31,-28.0219 1014.42,-25.2834 1004.34,-22.6822"/>
<polygon fill="red" stroke="red" stroke-width="0.689148" points="1005.17,-19.2808 994.601,-20.0716 1003.35,-26.042 1005.17,-19.2808"/>
</g>
<!-- &#45;13&#45;&gt;1 -->
<g id="edge49" class="edge"><title>&#45;13&#45;&gt;1</title>
<path fill="none" stroke="green" stroke-width="0.403796" d="M1592.4,-77.8166C1588.22,-73.4338 1582.47,-68.3805 1576.21,-65.6985 1411.35,5.00696 1350,-65.4151 1174.21,-29.6985 1167.81,-28.398 1161.03,-26.4779 1154.78,-24.4791"/>
<polygon fill="green" stroke="green" stroke-width="0.403796" points="1155.54,-21.0413 1144.95,-21.1362 1153.29,-27.6688 1155.54,-21.0413"/>
</g>
<!-- &#45;13&#45;&gt;2 -->
<g id="edge50" class="edge"><title>&#45;13&#45;&gt;2</title>
<path fill="none" stroke="green" stroke-width="0.182905" d="M1591.96,-77.5044C1587.8,-73.2503 1582.22,-68.4228 1576.21,-65.6985 1512.72,-36.8804 1297.71,-21.7329 1223.58,-17.2732"/>
<polygon fill="green" stroke="green" stroke-width="0.182905" points="1223.51,-13.7629 1213.32,-16.6705 1223.1,-20.7508 1223.51,-13.7629"/>
</g>
<!-- &#45;13&#45;&gt;3 -->
<g id="edge51" class="edge"><title>&#45;13&#45;&gt;3</title>
<path fill="none" stroke="red" stroke-width="0.274683" d="M1592.42,-77.7868C1588.23,-73.394 1582.48,-68.3407 1576.21,-65.6985 1479.89,-25.1083 1209.97,-48.8773 1107.21,-29.6985 1099.83,-28.3208 1091.95,-26.1992 1084.84,-24.0274"/>
<polygon fill="red" stroke="red" stroke-width="0.274683" points="1085.7,-20.6286 1075.11,-20.8902 1083.55,-27.2907 1085.7,-20.6286"/>
</g>
<!-- &#45;14 -->
<g id="node14" class="node"><title>&#45;14</title>
<polygon fill="lightgray" stroke="black" points="1660.71,-95.9117 1631.71,-95.9117 1631.71,-77.9117 1660.71,-77.9117 1660.71,-95.9117"/>
<text text-anchor="middle" x="1646.21" y="-84.7117" font-family="Times New Roman,serif" font-size="9.00">&#45;14</text>
</g>
<!-- &#45;14&#45;&gt;0 -->
<g id="edge52" class="edge"><title>&#45;14&#45;&gt;0</title>
<path fill="none" stroke="green" stroke-width="0.383857" d="M1639.43,-77.7509C1635.25,-73.3461 1629.5,-68.2928 1623.21,-65.6985 1502.6,-15.9542 1166.22,-49.1764 1037.21,-29.6985 1026.3,-28.051 1014.42,-25.3169 1004.33,-22.7113"/>
<polygon fill="green" stroke="green" stroke-width="0.383857" points="1005.16,-19.3102 994.598,-20.0933 1003.35,-26.0701 1005.16,-19.3102"/>
</g>
<!-- &#45;14&#45;&gt;1 -->
<g id="edge53" class="edge"><title>&#45;14&#45;&gt;1</title>
<path fill="none" stroke="red" stroke-width="0.467373" d="M1639.41,-77.7948C1635.23,-73.4047 1629.48,-68.3514 1623.21,-65.6985 1438.86,12.3541 1370.58,-68.646 1174.21,-29.6985 1167.81,-28.4278 1161.02,-26.5181 1154.77,-24.5198"/>
<polygon fill="red" stroke="red" stroke-width="0.467373" points="1155.54,-21.0822 1144.94,-21.17 1153.28,-27.7082 1155.54,-21.0822"/>
</g>
<!-- &#45;14&#45;&gt;2 -->
<g id="edge54" class="edge"><title>&#45;14&#45;&gt;2</title>
<path fill="none" stroke="red" stroke-width="0.364557" d="M1639.38,-77.8808C1635.18,-73.5194 1629.43,-68.4661 1623.21,-65.6985 1550.78,-33.4483 1303.65,-20.3217 1223.52,-16.8497"/>
<polygon fill="red" stroke="red" stroke-width="0.364557" points="1223.49,-13.3456 1213.36,-16.4228 1223.2,-20.3395 1223.49,-13.3456"/>
</g>
<!-- &#45;14&#45;&gt;3 -->
<g id="edge55" class="edge"><title>&#45;14&#45;&gt;3</title>
<path fill="none" stroke="green" stroke-width="0.181483" d="M1639.42,-77.7704C1635.24,-73.3722 1629.49,-68.3189 1623.21,-65.6985 1517.13,-21.4319 1220.28,-50.3955 1107.21,-29.6985 1099.83,-28.3465 1091.95,-26.2325 1084.83,-24.0598"/>
<polygon fill="green" stroke="green" stroke-width="0.181483" points="1085.7,-20.6613 1075.11,-20.9163 1083.55,-27.322 1085.7,-20.6613"/>
</g>
<!-- &#45;15 -->
<g id="node15" class="node"><title>&#45;15</title>
<polygon fill="lightgray" stroke="black" points="1707.71,-95.9117 1678.71,-95.9117 1678.71,-77.9117 1707.71,-77.9117 1707.71,-95.9117"/>
<text text-anchor="middle" x="1693.21" y="-84.7117" font-family="Times New Roman,serif" font-size="9.00">&#45;15</text>
</g>
<!-- &#45;15&#45;&gt;0 -->
<g id="edge56" class="edge"><title>&#45;15&#45;&gt;0</title>
<path fill="none" stroke="red" stroke-width="0.195083" d="M1686.44,-77.7401C1682.26,-73.3318 1676.51,-68.2785 1670.21,-65.6985 1539.84,-12.275 1176.58,-50.4163 1037.21,-29.6985 1026.3,-28.0758 1014.41,-25.3455 1004.33,-22.736"/>
<polygon fill="red" stroke="red" stroke-width="0.195083" points="1005.16,-19.3353 994.595,-20.1118 1003.34,-26.094 1005.16,-19.3353"/>
</g>
<!-- &#45;15&#45;&gt;1 -->
<g id="edge57" class="edge"><title>&#45;15&#45;&gt;1</title>
<path fill="none" stroke="green" stroke-width="0.275169" d="M1686.42,-77.777C1682.24,-73.381 1676.49,-68.3277 1670.21,-65.6985 1568.28,-22.9965 1282.69,-50.7888 1174.21,-29.6985 1167.8,-28.452 1161.01,-26.5508 1154.77,-24.5528"/>
<polygon fill="green" stroke="green" stroke-width="0.275169" points="1155.53,-21.1154 1144.94,-21.1975 1153.27,-27.7402 1155.53,-21.1154"/>
</g>
<!-- &#45;15&#45;&gt;2 -->
<g id="edge58" class="edge"><title>&#45;15&#45;&gt;2</title>
<path fill="none" stroke="red" stroke-width="0.481274" d="M1686.39,-77.8539C1682.2,-73.4835 1676.45,-68.4302 1670.21,-65.6985 1588.7,-29.9666 1308.64,-19.0424 1223.18,-16.5022"/>
<polygon fill="red" stroke="red" stroke-width="0.481274" points="1223.19,-13.0012 1213.09,-16.2151 1222.99,-19.9984 1223.19,-13.0012"/>
</g>
<!-- &#45;15&#45;&gt;3 -->
<g id="edge59" class="edge"><title>&#45;15&#45;&gt;3</title>
<path fill="none" stroke="red" stroke-width="0.430427" d="M1686.43,-77.7568C1682.25,-73.354 1676.5,-68.3007 1670.21,-65.6985 1554.38,-17.7543 1230.6,-51.9143 1107.21,-29.6985 1099.82,-28.3679 1091.94,-26.2603 1084.83,-24.0868"/>
<polygon fill="red" stroke="red" stroke-width="0.430427" points="1085.7,-20.6885 1075.1,-20.938 1083.54,-27.3482 1085.7,-20.6885"/>
</g>
<!-- &#45;16 -->
<g id="node16" class="node"><title>&#45;16</title>
<polygon fill="lightgray" stroke="black" points="1754.71,-95.9117 1725.71,-95.9117 1725.71,-77.9117 1754.71,-77.9117 1754.71,-95.9117"/>
<text text-anchor="middle" x="1740.21" y="-84.7117" font-family="Times New Roman,serif" font-size="9.00">&#45;16</text>
</g>
<!-- &#45;16&#45;&gt;0 -->
<g id="edge60" class="edge"><title>&#45;16&#45;&gt;0</title>
<path fill="none" stroke="green" stroke-width="0.309691" d="M1733.44,-77.7309C1729.26,-73.3195 1723.51,-68.2662 1717.21,-65.6985 1577.08,-8.5952 1186.93,-51.6565 1037.21,-29.6985 1026.29,-28.0972 1014.41,-25.3702 1004.33,-22.7574"/>
<polygon fill="green" stroke="green" stroke-width="0.309691" points="1005.16,-19.3569 994.593,-20.1278 1003.33,-26.1147 1005.16,-19.3569"/>
</g>
<!-- &#45;16&#45;&gt;1 -->
<g id="edge61" class="edge"><title>&#45;16&#45;&gt;1</title>
<path fill="none" stroke="green" stroke-width="0.137438" d="M1733.43,-77.7623C1729.25,-73.3614 1723.5,-68.3081 1717.21,-65.6985 1605.53,-19.3194 1292.99,-52.406 1174.21,-29.6985 1167.8,-28.472 1161.01,-26.5779 1154.76,-24.5802"/>
<polygon fill="green" stroke="green" stroke-width="0.137438" points="1155.53,-21.1429 1144.93,-21.2202 1153.26,-27.7667 1155.53,-21.1429"/>
</g>
<!-- &#45;16&#45;&gt;2 -->
<g id="edge62" class="edge"><title>&#45;16&#45;&gt;2</title>
<path fill="none" stroke="red" stroke-width="0.345673" d="M1733.4,-77.8317C1729.21,-73.4539 1723.46,-68.4006 1717.21,-65.6985 1626.7,-26.5324 1314.23,-17.9247 1223.25,-16.2303"/>
<polygon fill="red" stroke="red" stroke-width="0.345673" points="1223.11,-12.7275 1213.05,-16.0527 1222.99,-19.7265 1223.11,-12.7275"/>
</g>
<!-- &#45;16&#45;&gt;3 -->
<g id="edge63" class="edge"><title>&#45;16&#45;&gt;3</title>
<path fill="none" stroke="green" stroke-width="0.3127" d="M1733.43,-77.7452C1729.26,-73.3386 1723.51,-68.2853 1717.21,-65.6985 1591.62,-14.0756 1240.91,-53.4336 1107.21,-29.6985 1099.82,-28.386 1091.94,-26.2838 1084.82,-24.1096"/>
<polygon fill="green" stroke="green" stroke-width="0.3127" points="1085.69,-20.7116 1075.1,-20.9564 1083.53,-27.3703 1085.69,-20.7116"/>
</g>
<!-- &#45;17 -->
<g id="node17" class="node"><title>&#45;17</title>
<polygon fill="lightgray" stroke="black" points="1801.71,-95.9117 1772.71,-95.9117 1772.71,-77.9117 1801.71,-77.9117 1801.71,-95.9117"/>
<text text-anchor="middle" x="1787.21" y="-84.7117" font-family="Times New Roman,serif" font-size="9.00">&#45;17</text>
</g>
<!-- &#45;17&#45;&gt;0 -->
<g id="edge64" class="edge"><title>&#45;17&#45;&gt;0</title>
<path fill="none" stroke="red" stroke-width="0.225047" d="M1780.44,-77.7228C1776.27,-73.3087 1770.52,-68.2554 1764.21,-65.6985 1614.31,-4.9148 1197.29,-52.8969 1037.21,-29.6985 1026.29,-28.1159 1014.4,-25.3917 1004.32,-22.776"/>
<polygon fill="red" stroke="red" stroke-width="0.225047" points="1005.16,-19.3758 994.591,-20.1417 1003.33,-26.1327 1005.16,-19.3758"/>
</g>
<!-- &#45;17&#45;&gt;1 -->
<g id="edge65" class="edge"><title>&#45;17&#45;&gt;1</title>
<path fill="none" stroke="green" stroke-width="0.375219" d="M1780.43,-77.7499C1776.25,-73.3448 1770.5,-68.2915 1764.21,-65.6985 1642.77,-15.6411 1303.3,-54.0238 1174.21,-29.6985 1167.79,-28.4889 1161,-26.6006 1154.76,-24.6033"/>
<polygon fill="green" stroke="green" stroke-width="0.375219" points="1155.52,-21.1661 1144.93,-21.2394 1153.26,-27.789 1155.52,-21.1661"/>
</g>
<!-- &#45;17&#45;&gt;2 -->
<g id="edge66" class="edge"><title>&#45;17&#45;&gt;2</title>
<path fill="none" stroke="red" stroke-width="0.312007" d="M1780.4,-77.8132C1776.22,-73.4292 1770.47,-68.3759 1764.21,-65.6985 1664.66,-23.0877 1319.55,-16.8999 1223.31,-16.0017"/>
<polygon fill="red" stroke="red" stroke-width="0.312007" points="1223.1,-12.5 1213.07,-15.9179 1223.05,-19.4998 1223.1,-12.5"/>
</g>
<!-- &#45;17&#45;&gt;3 -->
<g id="edge67" class="edge"><title>&#45;17&#45;&gt;3</title>
<path fill="none" stroke="red" stroke-width="0.167778" d="M1780.44,-77.7352C1776.26,-73.3253 1770.51,-68.272 1764.21,-65.6985 1628.86,-10.3961 1251.23,-54.9532 1107.21,-29.6985 1099.82,-28.4016 1091.93,-26.304 1084.82,-24.1293"/>
<polygon fill="red" stroke="red" stroke-width="0.167778" points="1085.69,-20.7314 1075.1,-20.9722 1083.53,-27.3892 1085.69,-20.7314"/>
</g>
<!-- &#45;18 -->
<g id="node18" class="node"><title>&#45;18</title>
<polygon fill="lightgray" stroke="black" points="1977.71,-162.125 1948.71,-162.125 1948.71,-144.125 1977.71,-144.125 1977.71,-162.125"/>
<text text-anchor="middle" x="1963.21" y="-150.925" font-family="Times New Roman,serif" font-size="9.00">&#45;18</text>
</g>
<!-- &#45;18&#45;&gt;0 -->
<g id="edge68" class="edge"><title>&#45;18&#45;&gt;0</title>
<path fill="none" stroke="red" stroke-width="0.183688" d="M1948.5,-152.05C1778.91,-151.158 199.212,-141.942 166.213,-108.125 153.044,-94.6294 153.294,-79.4333 166.213,-65.6985 193.93,-36.2325 821.084,-19.6445 955.142,-16.4285"/>
<polygon fill="red" stroke="red" stroke-width="0.183688" points="955.34,-19.9249 965.255,-16.189 955.174,-12.9268 955.34,-19.9249"/>
</g>
<!-- &#45;18&#45;&gt;1 -->
<g id="edge69" class="edge"><title>&#45;18&#45;&gt;1</title>
<path fill="none" stroke="green" stroke-width="0.297322" d="M1964.28,-144.11C1966.1,-126.699 1967.59,-85.4067 1944.21,-65.6985 1878.74,-10.4853 1258.49,-44.9607 1174.21,-29.6985 1167.79,-28.5346 1160.99,-26.6623 1154.74,-24.6656"/>
<polygon fill="green" stroke="green" stroke-width="0.297322" points="1155.51,-21.2287 1144.92,-21.2912 1153.24,-27.8493 1155.51,-21.2287"/>
</g>
<!-- &#45;18&#45;&gt;2 -->
<g id="edge70" class="edge"><title>&#45;18&#45;&gt;2</title>
<path fill="none" stroke="red" stroke-width="0.428732" d="M1977.97,-150.577C2000.83,-147.296 2044.14,-137.353 2063.21,-108.125 2073.52,-92.3333 2076.16,-79.41 2063.21,-65.6985 2033.59,-34.3149 1361.69,-19.1345 1223.09,-16.3312"/>
<polygon fill="red" stroke="red" stroke-width="0.428732" points="1223.09,-12.8306 1213.02,-16.1306 1222.95,-19.8292 1223.09,-12.8306"/>
</g>
<!-- &#45;18&#45;&gt;3 -->
<g id="edge71" class="edge"><title>&#45;18&#45;&gt;3</title>
<path fill="none" stroke="red" stroke-width="0.175663" d="M1948.7,-152.033C1784.62,-150.964 283.582,-140.311 252.213,-108.125 134.944,12.1988 837.913,-53.6587 1004.21,-29.6985 1015.14,-28.1248 1027.02,-25.4021 1037.1,-22.7849"/>
<polygon fill="red" stroke="red" stroke-width="0.175663" points="1038.1,-26.1413 1046.84,-20.1484 1036.27,-19.3848 1038.1,-26.1413"/>
</g>
<!-- 181 -->
<g id="node45" class="node"><title>181</title>
<ellipse fill="white" stroke="black" cx="2136.21" cy="-86.9117" rx="21.4286" ry="21.4286"/>
<text text-anchor="middle" x="2136.21" y="-84.7117" font-family="Times New Roman,serif" font-size="9.00">181</text>
</g>
<!-- &#45;18&#45;&gt;181 -->
<g id="edge158" class="edge"><title>&#45;18&#45;&gt;181</title>
<path fill="none" stroke="red" stroke-width="0.10869" d="M1978.1,-148.506C2003.82,-142.008 2057.97,-127.237 2101.21,-108.125 2103.92,-106.928 2106.69,-105.577 2109.42,-104.155"/>
<polygon fill="red" stroke="red" stroke-width="0.10869" points="2111.38,-107.069 2118.44,-99.1661 2107.99,-100.944 2111.38,-107.069"/>
</g>
<!-- &#45;19 -->
<g id="node19" class="node"><title>&#45;19</title>
<polygon fill="lightgray" stroke="black" points="1848.71,-95.9117 1819.71,-95.9117 1819.71,-77.9117 1848.71,-77.9117 1848.71,-95.9117"/>
<text text-anchor="middle" x="1834.21" y="-84.7117" font-family="Times New Roman,serif" font-size="9.00">&#45;19</text>
</g>
<!-- &#45;19&#45;&gt;0 -->
<g id="edge72" class="edge"><title>&#45;19&#45;&gt;0</title>
<path fill="none" stroke="red" stroke-width="0.202059" d="M1827.45,-77.7157C1823.27,-73.2993 1817.52,-68.246 1811.21,-65.6985 1651.55,-1.23392 1207.66,-54.1374 1037.21,-29.6985 1026.29,-28.1322 1014.4,-25.4106 1004.32,-22.7923"/>
<polygon fill="red" stroke="red" stroke-width="0.202059" points="1005.16,-19.3923 994.589,-20.1539 1003.32,-26.1485 1005.16,-19.3923"/>
</g>
<!-- &#45;19&#45;&gt;1 -->
<g id="edge73" class="edge"><title>&#45;19&#45;&gt;1</title>
<path fill="none" stroke="red" stroke-width="0.109144" stroke-dasharray="1,5" d="M1827.44,-77.7393C1823.26,-73.3307 1817.51,-68.2774 1811.21,-65.6985 1680.01,-11.9619 1313.6,-55.6421 1174.21,-29.6985 1167.79,-28.5033 1161,-26.6201 1154.75,-24.6229"/>
<polygon fill="red" stroke="red" stroke-width="0.109144" points="1155.52,-21.1859 1144.92,-21.2557 1153.25,-27.808 1155.52,-21.1859"/>
</g>
<!-- &#45;19&#45;&gt;2 -->
<g id="edge74" class="edge"><title>&#45;19&#45;&gt;2</title>
<path fill="none" stroke="red" stroke-width="0.173264" d="M1827.41,-77.7974C1823.23,-73.4082 1817.48,-68.3549 1811.21,-65.6985 1702.61,-19.6432 1324.78,-15.9541 1223.41,-15.8069"/>
<polygon fill="red" stroke="red" stroke-width="0.173264" points="1223.2,-12.3069 1213.2,-15.8032 1223.2,-19.3069 1223.2,-12.3069"/>
</g>
<!-- &#45;19&#45;&gt;3 -->
<g id="edge75" class="edge"><title>&#45;19&#45;&gt;3</title>
<path fill="none" stroke="green" stroke-width="0.149257" d="M1827.44,-77.7266C1823.27,-73.3138 1817.52,-68.2605 1811.21,-65.6985 1666.09,-6.71591 1261.56,-56.4732 1107.21,-29.6985 1099.81,-28.4151 1091.93,-26.3215 1084.82,-24.1463"/>
<polygon fill="green" stroke="green" stroke-width="0.149257" points="1085.69,-20.7485 1075.09,-20.9858 1083.52,-27.4057 1085.69,-20.7485"/>
</g>
<!-- &#45;20 -->
<g id="node20" class="node"><title>&#45;20</title>
<polygon fill="lightgray" stroke="black" points="1934.71,-95.9117 1905.71,-95.9117 1905.71,-77.9117 1934.71,-77.9117 1934.71,-95.9117"/>
<text text-anchor="middle" x="1920.21" y="-84.7117" font-family="Times New Roman,serif" font-size="9.00">&#45;20</text>
</g>
<!-- &#45;20&#45;&gt;1 -->
<g id="edge76" class="edge"><title>&#45;20&#45;&gt;1</title>
<path fill="none" stroke="red" stroke-width="0.135341" d="M1911.29,-77.7111C1905.9,-73.2931 1898.65,-68.2398 1891.21,-65.6985 1740.26,-14.087 1331.14,-58.3972 1174.21,-29.6985 1167.79,-28.5235 1160.99,-26.6473 1154.75,-24.6505"/>
<polygon fill="red" stroke="red" stroke-width="0.135341" points="1155.52,-21.2136 1144.92,-21.2786 1153.24,-27.8347 1155.52,-21.2136"/>
</g>
<!-- &#45;20&#45;&gt;2 -->
<g id="edge77" class="edge"><title>&#45;20&#45;&gt;2</title>
<path fill="none" stroke="red" stroke-width="0.104718" d="M1911.27,-77.7713C1905.87,-73.3734 1898.62,-68.3201 1891.21,-65.6985 1764.38,-20.7952 1332.33,-16.297 1223.34,-15.8826"/>
<polygon fill="red" stroke="red" stroke-width="0.104718" points="1223.29,-12.3826 1213.28,-15.8529 1223.27,-19.3825 1223.29,-12.3826"/>
</g>
<!-- &#45;20&#45;&gt;3 -->
<g id="edge78" class="edge"><title>&#45;20&#45;&gt;3</title>
<path fill="none" stroke="green" stroke-width="0.472967" d="M1905.22,-79.7697C1892.84,-75.0066 1874.69,-68.7234 1858.21,-65.6985 1529.54,-5.37198 1436.55,-86.2883 1107.21,-29.6985 1099.81,-28.4269 1091.93,-26.3368 1084.82,-24.1612"/>
<polygon fill="green" stroke="green" stroke-width="0.472967" points="1085.68,-20.7635 1075.09,-20.9978 1083.52,-27.4201 1085.68,-20.7635"/>
</g>
<!-- &#45;21 -->
<g id="node21" class="node"><title>&#45;21</title>
<polygon fill="lightgray" stroke="black" points="289.713,-95.9117 260.713,-95.9117 260.713,-77.9117 289.713,-77.9117 289.713,-95.9117"/>
<text text-anchor="middle" x="275.213" y="-84.7117" font-family="Times New Roman,serif" font-size="9.00">&#45;21</text>
</g>
<!-- &#45;21&#45;&gt;0 -->
<g id="edge79" class="edge"><title>&#45;21&#45;&gt;0</title>
<path fill="none" stroke="green" stroke-width="0.417443" d="M282.369,-77.7765C286.755,-73.3803 292.755,-68.327 299.213,-65.6985 421.565,-15.9029 846.999,-15.0279 955.087,-15.6357"/>
<polygon fill="green" stroke="green" stroke-width="0.417443" points="955.319,-19.1372 965.342,-15.7037 955.366,-12.1374 955.319,-19.1372"/>
</g>
<!-- &#45;21&#45;&gt;1 -->
<g id="edge80" class="edge"><title>&#45;21&#45;&gt;1</title>
<path fill="none" stroke="red" stroke-width="0.25116" d="M282.343,-77.7102C286.719,-73.2919 292.719,-68.2386 299.213,-65.6985 462.049,-2.00351 912.857,-59.1256 1085.21,-29.6985 1092.61,-28.4348 1100.5,-26.347 1107.61,-24.1711"/>
<polygon fill="red" stroke="red" stroke-width="0.25116" points="1108.91,-27.4297 1117.34,-21.0058 1106.74,-20.7735 1108.91,-27.4297"/>
</g>
<!-- &#45;21&#45;&gt;2 -->
<g id="edge81" class="edge"><title>&#45;21&#45;&gt;2</title>
<path fill="none" stroke="green" stroke-width="0.294497" d="M282.339,-77.7011C286.715,-73.2797 292.715,-68.2264 299.213,-65.6985 476.651,3.32615 967.791,-63.1859 1155.21,-29.6985 1161.64,-28.5496 1168.44,-26.6826 1174.69,-24.6862"/>
<polygon fill="green" stroke="green" stroke-width="0.294497" points="1176.19,-27.8692 1184.51,-21.3083 1173.92,-21.2494 1176.19,-27.8692"/>
</g>
<!-- &#45;21&#45;&gt;3 -->
<g id="edge82" class="edge"><title>&#45;21&#45;&gt;3</title>
<path fill="none" stroke="red" stroke-width="0.160879" d="M282.348,-77.7229C286.726,-73.3089 292.726,-68.2556 299.213,-65.6985 445.155,-8.16968 848.981,-52.3162 1004.21,-29.6985 1015.13,-28.1074 1027.02,-25.382 1037.1,-22.7676"/>
<polygon fill="red" stroke="red" stroke-width="0.160879" points="1038.1,-26.1246 1046.83,-20.1354 1036.27,-19.3673 1038.1,-26.1246"/>
</g>
<!-- &#45;22 -->
<g id="node22" class="node"><title>&#45;22</title>
<polygon fill="lightgray" stroke="black" points="336.713,-95.9117 307.713,-95.9117 307.713,-77.9117 336.713,-77.9117 336.713,-95.9117"/>
<text text-anchor="middle" x="322.213" y="-84.7117" font-family="Times New Roman,serif" font-size="9.00">&#45;22</text>
</g>
<!-- &#45;22&#45;&gt;0 -->
<g id="edge83" class="edge"><title>&#45;22&#45;&gt;0</title>
<path fill="none" stroke="green" stroke-width="0.136425" d="M329.375,-77.7895C333.762,-73.3977 339.762,-68.3444 346.213,-65.6985 459.434,-19.2627 851.95,-15.8684 955.179,-15.793"/>
<polygon fill="green" stroke="green" stroke-width="0.136425" points="955.282,-19.2929 965.284,-15.7961 955.285,-12.2929 955.282,-19.2929"/>
</g>
<!-- &#45;22&#45;&gt;1 -->
<g id="edge84" class="edge"><title>&#45;22&#45;&gt;1</title>
<path fill="none" stroke="red" stroke-width="0.254307" stroke-dasharray="1,5" d="M329.346,-77.7172C333.723,-73.3013 339.723,-68.248 346.213,-65.6985 499.246,-5.58156 923.182,-57.6052 1085.21,-29.6985 1092.61,-28.424 1100.5,-26.3331 1107.61,-24.1575"/>
<polygon fill="red" stroke="red" stroke-width="0.254307" points="1108.91,-27.4166 1117.33,-20.9949 1106.74,-20.7599 1108.91,-27.4166"/>
</g>
<!-- &#45;22&#45;&gt;2 -->
<g id="edge85" class="edge"><title>&#45;22&#45;&gt;2</title>
<path fill="none" stroke="green" stroke-width="0.2309" d="M329.342,-77.707C333.718,-73.2877 339.718,-68.2344 346.213,-65.6985 513.846,-0.252417 978.102,-61.5665 1155.21,-29.6985 1161.64,-28.5418 1168.44,-26.672 1174.68,-24.6755"/>
<polygon fill="green" stroke="green" stroke-width="0.2309" points="1176.19,-27.8588 1184.51,-21.2994 1173.92,-21.2387 1176.19,-27.8588"/>
</g>
<!-- &#45;22&#45;&gt;3 -->
<g id="edge86" class="edge"><title>&#45;22&#45;&gt;3</title>
<path fill="none" stroke="green" stroke-width="0.109998" d="M329.351,-77.7318C333.731,-73.3207 339.731,-68.2674 346.213,-65.6985 482.353,-11.7469 859.341,-51.0759 1004.21,-29.6985 1015.13,-28.0876 1027.02,-25.3591 1037.1,-22.7478"/>
<polygon fill="green" stroke="green" stroke-width="0.109998" points="1038.09,-26.1054 1046.83,-20.1206 1036.27,-19.3472 1038.09,-26.1054"/>
</g>
<!-- &#45;23 -->
<g id="node23" class="node"><title>&#45;23</title>
<polygon fill="lightgray" stroke="black" points="383.713,-95.9117 354.713,-95.9117 354.713,-77.9117 383.713,-77.9117 383.713,-95.9117"/>
<text text-anchor="middle" x="369.213" y="-84.7117" font-family="Times New Roman,serif" font-size="9.00">&#45;23</text>
</g>
<!-- &#45;23&#45;&gt;0 -->
<g id="edge87" class="edge"><title>&#45;23&#45;&gt;0</title>
<path fill="none" stroke="green" stroke-width="0.204506" d="M376.381,-77.8046C380.77,-73.4179 386.77,-68.3646 393.213,-65.6985 497.292,-22.6314 856.818,-16.7714 955.172,-15.9745"/>
<polygon fill="green" stroke="green" stroke-width="0.204506" points="955.375,-19.4733 965.35,-15.9031 955.326,-12.4735 955.375,-19.4733"/>
</g>
<!-- &#45;23&#45;&gt;1 -->
<g id="edge88" class="edge"><title>&#45;23&#45;&gt;1</title>
<path fill="none" stroke="green" stroke-width="0.27692" d="M376.349,-77.7253C380.727,-73.312 386.727,-68.2587 393.213,-65.6985 536.443,-9.15918 933.505,-56.0851 1085.21,-29.6985 1092.61,-28.4118 1100.49,-26.3172 1107.61,-24.1421"/>
<polygon fill="green" stroke="green" stroke-width="0.27692" points="1108.9,-27.4017 1117.33,-20.9825 1106.74,-20.7443 1108.9,-27.4017"/>
</g>
<!-- &#45;23&#45;&gt;2 -->
<g id="edge89" class="edge"><title>&#45;23&#45;&gt;2</title>
<path fill="none" stroke="red" stroke-width="0.763613" d="M376.344,-77.7137C380.721,-73.2966 386.721,-68.2433 393.213,-65.6985 551.043,-3.83065 988.412,-59.9473 1155.21,-29.6985 1161.64,-28.533 1168.44,-26.6601 1174.68,-24.6635"/>
<polygon fill="red" stroke="red" stroke-width="0.763613" points="1176.19,-27.8472 1184.51,-21.2894 1173.91,-21.2266 1176.19,-27.8472"/>
</g>
<!-- &#45;23&#45;&gt;3 -->
<g id="edge90" class="edge"><title>&#45;23&#45;&gt;3</title>
<path fill="none" stroke="red" stroke-width="0.404775" d="M376.355,-77.742C380.736,-73.3343 386.736,-68.281 393.213,-65.6985 519.554,-15.3236 869.699,-49.8359 1004.21,-29.6985 1015.13,-28.0647 1027.01,-25.3327 1037.09,-22.7249"/>
<polygon fill="red" stroke="red" stroke-width="0.404775" points="1038.08,-26.0833 1046.83,-20.1035 1036.26,-19.324 1038.08,-26.0833"/>
</g>
<!-- &#45;24 -->
<g id="node24" class="node"><title>&#45;24</title>
<polygon fill="lightgray" stroke="black" points="430.713,-95.9117 401.713,-95.9117 401.713,-77.9117 430.713,-77.9117 430.713,-95.9117"/>
<text text-anchor="middle" x="416.213" y="-84.7117" font-family="Times New Roman,serif" font-size="9.00">&#45;24</text>
</g>
<!-- &#45;24&#45;&gt;0 -->
<g id="edge91" class="edge"><title>&#45;24&#45;&gt;0</title>
<path fill="none" stroke="red" stroke-width="0.540787" stroke-dasharray="1,5" d="M423.388,-77.8224C427.78,-73.4415 433.78,-68.3882 440.213,-65.6985 535.16,-26.0021 861.738,-17.7515 955.101,-16.1883"/>
<polygon fill="red" stroke="red" stroke-width="0.540787" points="955.355,-19.6849 965.299,-16.0292 955.246,-12.6857 955.355,-19.6849"/>
</g>
<!-- &#45;24&#45;&gt;1 -->
<g id="edge92" class="edge"><title>&#45;24&#45;&gt;1</title>
<path fill="none" stroke="red" stroke-width="0.180679" d="M423.352,-77.7345C427.732,-73.3243 433.732,-68.271 440.213,-65.6985 573.643,-12.7363 943.827,-54.5652 1085.21,-29.6985 1092.61,-28.3978 1100.49,-26.2991 1107.6,-24.1245"/>
<polygon fill="red" stroke="red" stroke-width="0.180679" points="1108.9,-27.3847 1117.33,-20.9684 1106.74,-20.7266 1108.9,-27.3847"/>
</g>
<!-- &#45;24&#45;&gt;2 -->
<g id="edge93" class="edge"><title>&#45;24&#45;&gt;2</title>
<path fill="none" stroke="red" stroke-width="0.240323" d="M423.347,-77.7212C427.725,-73.3066 433.725,-68.2533 440.213,-65.6985 588.24,-7.40849 998.72,-58.3284 1155.21,-29.6985 1161.64,-28.523 1168.43,-26.6467 1174.68,-24.6499"/>
<polygon fill="red" stroke="red" stroke-width="0.240323" points="1176.18,-27.8341 1184.51,-21.2781 1173.91,-21.2129 1176.18,-27.8341"/>
</g>
<!-- &#45;24&#45;&gt;3 -->
<g id="edge94" class="edge"><title>&#45;24&#45;&gt;3</title>
<path fill="none" stroke="red" stroke-width="0.368053" d="M423.36,-77.7539C427.743,-73.3501 433.743,-68.2968 440.213,-65.6985 556.756,-18.8994 880.055,-48.5962 1004.21,-29.6985 1015.12,-28.038 1027.01,-25.3019 1037.09,-22.6983"/>
<polygon fill="red" stroke="red" stroke-width="0.368053" points="1038.08,-26.0575 1046.83,-20.0836 1036.26,-19.297 1038.08,-26.0575"/>
</g>
<!-- &#45;25 -->
<g id="node25" class="node"><title>&#45;25</title>
<polygon fill="lightgray" stroke="black" points="477.713,-95.9117 448.713,-95.9117 448.713,-77.9117 477.713,-77.9117 477.713,-95.9117"/>
<text text-anchor="middle" x="463.213" y="-84.7117" font-family="Times New Roman,serif" font-size="9.00">&#45;25</text>
</g>
<!-- &#45;25&#45;&gt;0 -->
<g id="edge95" class="edge"><title>&#45;25&#45;&gt;0</title>
<path fill="none" stroke="green" stroke-width="0.343332" d="M470.397,-77.8434C474.792,-73.4695 480.792,-68.4162 487.213,-65.6985 573.064,-29.3644 866.903,-18.8226 955.031,-16.4434"/>
<polygon fill="green" stroke="green" stroke-width="0.343332" points="955.271,-19.9385 965.177,-16.1816 955.09,-12.9408 955.271,-19.9385"/>
</g>
<!-- &#45;25&#45;&gt;1 -->
<g id="edge96" class="edge"><title>&#45;25&#45;&gt;1</title>
<path fill="none" stroke="green" stroke-width="0.124159" d="M470.357,-77.7451C474.738,-73.3384 480.738,-68.2851 487.213,-65.6985 610.844,-16.3127 954.147,-53.0456 1085.21,-29.6985 1092.61,-28.3817 1100.49,-26.2781 1107.6,-24.1041"/>
<polygon fill="green" stroke="green" stroke-width="0.124159" points="1108.89,-27.365 1117.33,-20.952 1106.73,-20.706 1108.89,-27.365"/>
</g>
<!-- &#45;25&#45;&gt;2 -->
<g id="edge97" class="edge"><title>&#45;25&#45;&gt;2</title>
<path fill="none" stroke="red" stroke-width="0.214109" d="M470.351,-77.7298C474.73,-73.3181 480.73,-68.2648 487.213,-65.6985 625.439,-10.9859 1009.03,-56.7096 1155.21,-29.6985 1161.64,-28.5117 1168.43,-26.6314 1174.68,-24.6344"/>
<polygon fill="red" stroke="red" stroke-width="0.214109" points="1176.18,-27.8191 1184.5,-21.2652 1173.91,-21.1974 1176.18,-27.8191"/>
</g>
<!-- &#45;25&#45;&gt;3 -->
<g id="edge98" class="edge"><title>&#45;25&#45;&gt;3</title>
<path fill="none" stroke="red" stroke-width="0.332385" d="M470.366,-77.7679C474.75,-73.3688 480.75,-68.3155 487.213,-65.6985 593.961,-22.4743 890.408,-47.3568 1004.21,-29.6985 1015.12,-28.0065 1027,-25.2656 1037.09,-22.6669"/>
<polygon fill="red" stroke="red" stroke-width="0.332385" points="1038.07,-26.0271 1046.82,-20.0601 1036.26,-19.2652 1038.07,-26.0271"/>
</g>
<!-- &#45;26 -->
<g id="node26" class="node"><title>&#45;26</title>
<polygon fill="lightgray" stroke="black" points="524.713,-95.9117 495.713,-95.9117 495.713,-77.9117 524.713,-77.9117 524.713,-95.9117"/>
<text text-anchor="middle" x="510.213" y="-84.7117" font-family="Times New Roman,serif" font-size="9.00">&#45;26</text>
</g>
<!-- &#45;26&#45;&gt;0 -->
<g id="edge99" class="edge"><title>&#45;26&#45;&gt;0</title>
<path fill="none" stroke="red" stroke-width="0.192908" stroke-dasharray="1,5" d="M517.408,-77.8687C521.806,-73.5033 527.806,-68.45 534.213,-65.6985 611.042,-32.7045 872.553,-19.9948 955.06,-16.7489"/>
<polygon fill="red" stroke="red" stroke-width="0.192908" points="955.407,-20.2383 965.267,-16.3602 955.141,-13.2433 955.407,-20.2383"/>
</g>
<!-- &#45;26&#45;&gt;1 -->
<g id="edge100" class="edge"><title>&#45;26&#45;&gt;1</title>
<path fill="none" stroke="green" stroke-width="0.152796" d="M517.362,-77.7575C521.744,-73.355 527.744,-68.3017 534.213,-65.6985 648.047,-19.8883 964.465,-51.5264 1085.21,-29.6985 1092.6,-28.3628 1100.48,-26.2536 1107.6,-24.0803"/>
<polygon fill="green" stroke="green" stroke-width="0.152796" points="1108.89,-27.3419 1117.32,-20.9328 1106.73,-20.682 1108.89,-27.3419"/>
</g>
<!-- &#45;26&#45;&gt;2 -->
<g id="edge101" class="edge"><title>&#45;26&#45;&gt;2</title>
<path fill="none" stroke="green" stroke-width="0.231168" d="M517.355,-77.7397C521.735,-73.3312 527.735,-68.2779 534.213,-65.6985 662.639,-14.5626 1019.33,-55.0911 1155.21,-29.6985 1161.63,-28.4986 1168.43,-26.6138 1174.67,-24.6166"/>
<polygon fill="green" stroke="green" stroke-width="0.231168" points="1176.17,-27.8018 1184.5,-21.2504 1173.91,-21.1795 1176.17,-27.8018"/>
</g>
<!-- &#45;26&#45;&gt;3 -->
<g id="edge102" class="edge"><title>&#45;26&#45;&gt;3</title>
<path fill="none" stroke="red" stroke-width="0.34378" d="M517.373,-77.7846C521.759,-73.3912 527.759,-68.3379 534.213,-65.6985 631.169,-26.0478 900.758,-46.118 1004.21,-29.6985 1015.11,-27.9687 1027,-25.222 1037.08,-22.6292"/>
<polygon fill="red" stroke="red" stroke-width="0.34378" points="1038.06,-25.9906 1046.82,-20.0319 1036.25,-19.227 1038.06,-25.9906"/>
</g>
<!-- &#45;27 -->
<g id="node27" class="node"><title>&#45;27</title>
<polygon fill="lightgray" stroke="black" points="571.713,-95.9117 542.713,-95.9117 542.713,-77.9117 571.713,-77.9117 571.713,-95.9117"/>
<text text-anchor="middle" x="557.213" y="-84.7117" font-family="Times New Roman,serif" font-size="9.00">&#45;27</text>
</g>
<!-- &#45;27&#45;&gt;0 -->
<g id="edge103" class="edge"><title>&#45;27&#45;&gt;0</title>
<path fill="none" stroke="green" stroke-width="0.20214" d="M564.421,-77.8999C568.824,-73.5448 574.824,-68.4915 581.213,-65.6985 649.038,-36.0483 878.303,-21.3137 954.99,-17.1298"/>
<polygon fill="green" stroke="green" stroke-width="0.20214" points="955.36,-20.6152 965.159,-16.5886 954.988,-13.6251 955.36,-20.6152"/>
</g>
<!-- &#45;27&#45;&gt;1 -->
<g id="edge104" class="edge"><title>&#45;27&#45;&gt;1</title>
<path fill="none" stroke="red" stroke-width="1.06207" d="M564.368,-77.7722C568.752,-73.3746 574.752,-68.3213 581.213,-65.6985 685.252,-23.4629 974.78,-50.0078 1085.21,-29.6985 1092.6,-28.3404 1100.48,-26.2246 1107.59,-24.0521"/>
<polygon fill="red" stroke="red" stroke-width="1.06207" points="1108.88,-27.3146 1117.32,-20.9101 1106.73,-20.6535 1108.88,-27.3146"/>
</g>
<!-- &#45;27&#45;&gt;2 -->
<g id="edge105" class="edge"><title>&#45;27&#45;&gt;2</title>
<path fill="none" stroke="red" stroke-width="0.614392" d="M564.359,-77.7512C568.741,-73.3466 574.741,-68.2933 581.213,-65.6985 699.841,-18.1387 1029.64,-53.473 1155.21,-29.6985 1161.63,-28.4835 1168.42,-26.5933 1174.67,-24.5958"/>
<polygon fill="red" stroke="red" stroke-width="0.614392" points="1176.17,-27.7818 1184.5,-21.2332 1173.9,-21.1586 1176.17,-27.7818"/>
</g>
<!-- &#45;27&#45;&gt;3 -->
<g id="edge106" class="edge"><title>&#45;27&#45;&gt;3</title>
<path fill="none" stroke="green" stroke-width="0.114268" d="M564.381,-77.8051C568.77,-73.4185 574.77,-68.3652 581.213,-65.6985 755.55,6.45917 817.993,-60.0614 1004.21,-29.6985 1015.1,-27.9227 1026.99,-25.1689 1037.07,-22.5832"/>
<polygon fill="green" stroke="green" stroke-width="0.114268" points="1038.05,-25.9461 1046.81,-19.9976 1036.25,-19.1804 1038.05,-25.9461"/>
</g>
<!-- &#45;28 -->
<g id="node28" class="node"><title>&#45;28</title>
<polygon fill="lightgray" stroke="black" points="618.713,-95.9117 589.713,-95.9117 589.713,-77.9117 618.713,-77.9117 618.713,-95.9117"/>
<text text-anchor="middle" x="604.213" y="-84.7117" font-family="Times New Roman,serif" font-size="9.00">&#45;28</text>
</g>
<!-- &#45;28&#45;&gt;0 -->
<g id="edge107" class="edge"><title>&#45;28&#45;&gt;0</title>
<path fill="none" stroke="green" stroke-width="0.116231" d="M611.857,-77.53C616.223,-73.2834 622.046,-68.4549 628.213,-65.6985 687.183,-39.3417 885.022,-22.7611 955.235,-17.5892"/>
<polygon fill="green" stroke="green" stroke-width="0.116231" points="955.646,-21.0687 965.368,-16.8573 955.141,-14.0869 955.646,-21.0687"/>
</g>
<!-- &#45;28&#45;&gt;1 -->
<g id="edge108" class="edge"><title>&#45;28&#45;&gt;1</title>
<path fill="none" stroke="green" stroke-width="0.279884" d="M611.375,-77.7899C615.762,-73.3982 621.762,-68.3449 628.213,-65.6985 816.71,11.6265 884.969,-67.281 1085.21,-29.6985 1092.59,-28.3134 1100.47,-26.1896 1107.59,-24.0181"/>
<polygon fill="green" stroke="green" stroke-width="0.279884" points="1108.87,-27.2817 1117.31,-20.8827 1106.72,-20.6192 1108.87,-27.2817"/>
</g>
<!-- &#45;28&#45;&gt;2 -->
<g id="edge109" class="edge"><title>&#45;28&#45;&gt;2</title>
<path fill="none" stroke="red" stroke-width="0.210386" d="M611.365,-77.7647C615.748,-73.3646 621.748,-68.3113 628.213,-65.6985 737.045,-21.7138 1039.94,-51.8554 1155.21,-29.6985 1161.63,-28.4656 1168.42,-26.5692 1174.66,-24.5714"/>
<polygon fill="red" stroke="red" stroke-width="0.210386" points="1176.16,-27.7582 1184.49,-21.2129 1173.9,-21.1341 1176.16,-27.7582"/>
</g>
<!-- &#45;28&#45;&gt;3 -->
<g id="edge110" class="edge"><title>&#45;28&#45;&gt;3</title>
<path fill="none" stroke="green" stroke-width="0.157794" d="M611.392,-77.8306C615.785,-73.4524 621.785,-68.3991 628.213,-65.6985 782.986,-0.679645 838.671,-57.5873 1004.21,-29.6985 1015.09,-27.8653 1026.98,-25.1027 1037.06,-22.5259"/>
<polygon fill="green" stroke="green" stroke-width="0.157794" points="1038.03,-25.8905 1046.81,-19.9547 1036.24,-19.1222 1038.03,-25.8905"/>
</g>
<!-- &#45;29 -->
<g id="node29" class="node"><title>&#45;29</title>
<polygon fill="lightgray" stroke="black" points="665.713,-95.9117 636.713,-95.9117 636.713,-77.9117 665.713,-77.9117 665.713,-95.9117"/>
<text text-anchor="middle" x="651.213" y="-84.7117" font-family="Times New Roman,serif" font-size="9.00">&#45;29</text>
</g>
<!-- &#45;29&#45;&gt;0 -->
<g id="edge111" class="edge"><title>&#45;29&#45;&gt;0</title>
<path fill="none" stroke="green" stroke-width="0.137919" d="M658.88,-77.5823C663.253,-73.3511 669.076,-68.5205 675.213,-65.6985 771.669,-21.3469 901.229,-15.7756 955.096,-15.5323"/>
<polygon fill="green" stroke="green" stroke-width="0.137919" points="955.11,-19.0322 965.115,-15.547 955.12,-12.0323 955.11,-19.0322"/>
</g>
<!-- &#45;29&#45;&gt;1 -->
<g id="edge112" class="edge"><title>&#45;29&#45;&gt;1</title>
<path fill="none" stroke="red" stroke-width="0.535987" d="M658.384,-77.8116C662.774,-73.4271 668.774,-68.3738 675.213,-65.6985 844.137,4.48404 905.582,-64.2469 1085.21,-29.6985 1092.59,-28.2803 1100.46,-26.1467 1107.58,-23.9764"/>
<polygon fill="red" stroke="red" stroke-width="0.535987" points="1108.86,-27.2413 1117.31,-20.8492 1106.72,-20.5771 1108.86,-27.2413"/>
</g>
<!-- &#45;29&#45;&gt;2 -->
<g id="edge113" class="edge"><title>&#45;29&#45;&gt;2</title>
<path fill="none" stroke="green" stroke-width="0.232261" d="M658.371,-77.7808C662.757,-73.3861 668.757,-68.3328 675.213,-65.6985 774.252,-25.2876 1050.24,-50.2384 1155.21,-29.6985 1161.62,-28.4443 1168.41,-26.5404 1174.66,-24.5423"/>
<polygon fill="green" stroke="green" stroke-width="0.232261" points="1176.15,-27.73 1184.49,-21.1887 1173.89,-21.1048 1176.15,-27.73"/>
</g>
<!-- &#45;29&#45;&gt;3 -->
<g id="edge114" class="edge"><title>&#45;29&#45;&gt;3</title>
<path fill="none" stroke="green" stroke-width="0.22606" d="M658.406,-77.8631C662.803,-73.4959 668.803,-68.4426 675.213,-65.6985 810.439,-7.81148 859.331,-55.1162 1004.21,-29.6985 1015.08,-27.7917 1026.96,-25.0178 1037.05,-22.4525"/>
<polygon fill="green" stroke="green" stroke-width="0.22606" points="1038.01,-25.8193 1046.8,-19.8998 1036.24,-19.0477 1038.01,-25.8193"/>
</g>
<!-- &#45;30 -->
<g id="node30" class="node"><title>&#45;30</title>
<polygon fill="lightgray" stroke="black" points="712.713,-95.9117 683.713,-95.9117 683.713,-77.9117 712.713,-77.9117 712.713,-95.9117"/>
<text text-anchor="middle" x="698.213" y="-84.7117" font-family="Times New Roman,serif" font-size="9.00">&#45;30</text>
</g>
<!-- &#45;30&#45;&gt;0 -->
<g id="edge115" class="edge"><title>&#45;30&#45;&gt;0</title>
<path fill="none" stroke="green" stroke-width="0.397328" d="M705.913,-77.6527C710.296,-73.4421 716.117,-68.6087 722.213,-65.6985 801.466,-27.8628 907.416,-18.742 955.098,-16.5452"/>
<polygon fill="green" stroke="green" stroke-width="0.397328" points="955.286,-20.0406 965.14,-16.1475 955.009,-13.046 955.286,-20.0406"/>
</g>
<!-- &#45;30&#45;&gt;1 -->
<g id="edge116" class="edge"><title>&#45;30&#45;&gt;1</title>
<path fill="none" stroke="green" stroke-width="0.148264" d="M705.395,-77.8387C709.789,-73.4633 715.789,-68.41 722.213,-65.6985 871.578,-2.6531 926.181,-61.2153 1085.21,-29.6985 1092.58,-28.2388 1100.45,-26.0929 1107.57,-23.924"/>
<polygon fill="green" stroke="green" stroke-width="0.148264" points="1108.84,-27.1907 1117.3,-20.8071 1106.71,-20.5243 1108.84,-27.1907"/>
</g>
<!-- &#45;30&#45;&gt;2 -->
<g id="edge117" class="edge"><title>&#45;30&#45;&gt;2</title>
<path fill="none" stroke="green" stroke-width="0.103858" d="M705.379,-77.8004C709.768,-73.4122 715.768,-68.3589 722.213,-65.6985 900.714,7.97874 965.85,-67.5459 1155.21,-29.6985 1161.62,-28.4183 1168.41,-26.5054 1174.65,-24.5069"/>
<polygon fill="green" stroke="green" stroke-width="0.103858" points="1176.14,-27.6957 1184.48,-21.1593 1173.89,-21.0693 1176.14,-27.6957"/>
</g>
<!-- &#45;30&#45;&gt;3 -->
<g id="edge118" class="edge"><title>&#45;30&#45;&gt;3</title>
<path fill="none" stroke="red" stroke-width="0.232612" d="M705.424,-77.9063C709.828,-73.5534 715.828,-68.5001 722.213,-65.6985 837.917,-14.9327 879.965,-52.6497 1004.21,-29.6985 1015.06,-27.694 1026.94,-24.9051 1037.03,-22.355"/>
<polygon fill="red" stroke="red" stroke-width="0.232612" points="1037.98,-25.7247 1046.78,-19.8269 1036.23,-18.9487 1037.98,-25.7247"/>
</g>
<!-- &#45;31 -->
<g id="node31" class="node"><title>&#45;31</title>
<polygon fill="lightgray" stroke="black" points="759.713,-95.9117 730.713,-95.9117 730.713,-77.9117 759.713,-77.9117 759.713,-95.9117"/>
<text text-anchor="middle" x="745.213" y="-84.7117" font-family="Times New Roman,serif" font-size="9.00">&#45;31</text>
</g>
<!-- &#45;31&#45;&gt;0 -->
<g id="edge119" class="edge"><title>&#45;31&#45;&gt;0</title>
<path fill="none" stroke="red" stroke-width="0.339603" d="M752.962,-77.7522C757.359,-73.5707 763.178,-68.7335 769.213,-65.6985 831.589,-34.3284 914.351,-22.2469 955.208,-17.9716"/>
<polygon fill="red" stroke="red" stroke-width="0.339603" points="955.728,-21.4376 965.341,-16.9836 955.049,-14.4706 955.728,-21.4376"/>
</g>
<!-- &#45;31&#45;&gt;1 -->
<g id="edge120" class="edge"><title>&#45;31&#45;&gt;1</title>
<path fill="none" stroke="green" stroke-width="0.150158" d="M752.41,-77.8738C756.809,-73.5101 762.809,-68.4568 769.213,-65.6985 899.036,-9.78246 946.761,-58.1877 1085.21,-29.6985 1092.57,-28.1851 1100.44,-26.0233 1107.55,-23.8563"/>
<polygon fill="green" stroke="green" stroke-width="0.150158" points="1108.82,-27.1251 1117.29,-20.7527 1106.7,-20.4559 1108.82,-27.1251"/>
</g>
<!-- &#45;31&#45;&gt;2 -->
<g id="edge121" class="edge"><title>&#45;31&#45;&gt;2</title>
<path fill="none" stroke="red" stroke-width="0.163162" d="M752.389,-77.8246C756.781,-73.4445 762.781,-68.3912 769.213,-65.6985 928.147,0.838755 986.427,-64.3158 1155.21,-29.6985 1161.61,-28.3862 1168.4,-26.462 1174.64,-24.463"/>
<polygon fill="red" stroke="red" stroke-width="0.163162" points="1176.13,-27.6532 1184.48,-21.1229 1173.88,-21.0251 1176.13,-27.6532"/>
</g>
<!-- &#45;31&#45;&gt;3 -->
<g id="edge122" class="edge"><title>&#45;31&#45;&gt;3</title>
<path fill="none" stroke="green" stroke-width="0.257423" d="M752.869,-77.5578C757.239,-73.3194 763.062,-68.4898 769.213,-65.6985 865.433,-22.0368 900.557,-50.1911 1004.21,-29.6985 1015.04,-27.5583 1026.91,-24.7486 1037.01,-22.2196"/>
<polygon fill="green" stroke="green" stroke-width="0.257423" points="1037.94,-25.5931 1046.76,-19.7256 1036.21,-18.8111 1037.94,-25.5931"/>
</g>
<!-- &#45;32 -->
<g id="node32" class="node"><title>&#45;32</title>
<polygon fill="lightgray" stroke="black" points="806.713,-95.9117 777.713,-95.9117 777.713,-77.9117 806.713,-77.9117 806.713,-95.9117"/>
<text text-anchor="middle" x="792.213" y="-84.7117" font-family="Times New Roman,serif" font-size="9.00">&#45;32</text>
</g>
<!-- &#45;32&#45;&gt;0 -->
<g id="edge123" class="edge"><title>&#45;32&#45;&gt;0</title>
<path fill="none" stroke="red" stroke-width="0.123474" d="M800.041,-77.9028C804.461,-73.7654 810.277,-68.9223 816.213,-65.6985 862.028,-40.8169 921.944,-26.6445 955.203,-20.1766"/>
<polygon fill="red" stroke="red" stroke-width="0.123474" points="956.213,-23.5487 965.402,-18.2742 954.93,-16.6674 956.213,-23.5487"/>
</g>
<!-- &#45;32&#45;&gt;1 -->
<g id="edge124" class="edge"><title>&#45;32&#45;&gt;1</title>
<path fill="none" stroke="green" stroke-width="0.196982" stroke-dasharray="1,5" d="M799.848,-77.5112C804.212,-73.2591 810.036,-68.4313 816.213,-65.6985 926.523,-16.8998 967.311,-55.1662 1085.21,-29.6985 1092.55,-28.1131 1100.42,-25.9299 1107.53,-23.7655"/>
<polygon fill="green" stroke="green" stroke-width="0.196982" points="1108.8,-27.0371 1117.27,-20.6796 1106.68,-20.3641 1108.8,-27.0371"/>
</g>
<!-- &#45;32&#45;&gt;2 -->
<g id="edge125" class="edge"><title>&#45;32&#45;&gt;2</title>
<path fill="none" stroke="red" stroke-width="0.320016" d="M799.402,-77.8555C803.799,-73.4856 809.799,-68.4323 816.213,-65.6985 955.596,-6.2948 1006.99,-61.0891 1155.21,-29.6985 1161.6,-28.3453 1168.39,-26.4068 1174.63,-24.4071"/>
<polygon fill="red" stroke="red" stroke-width="0.320016" points="1176.12,-27.5991 1184.47,-21.0764 1173.87,-20.9689 1176.12,-27.5991"/>
</g>
<!-- &#45;32&#45;&gt;3 -->
<g id="edge126" class="edge"><title>&#45;32&#45;&gt;3</title>
<path fill="none" stroke="red" stroke-width="0.339247" d="M799.911,-77.6487C804.293,-73.4368 810.115,-68.6036 816.213,-65.6985 893.017,-29.1102 921.076,-47.7469 1004.21,-29.6985 1015,-27.3574 1026.86,-24.5169 1036.97,-22.0192"/>
<polygon fill="red" stroke="red" stroke-width="0.339247" points="1037.88,-25.3979 1046.73,-19.5757 1036.18,-18.6071 1037.88,-25.3979"/>
</g>
<!-- &#45;33 -->
<g id="node33" class="node"><title>&#45;33</title>
<polygon fill="lightgray" stroke="black" points="853.713,-95.9117 824.713,-95.9117 824.713,-77.9117 853.713,-77.9117 853.713,-95.9117"/>
<text text-anchor="middle" x="839.213" y="-84.7117" font-family="Times New Roman,serif" font-size="9.00">&#45;33</text>
</g>
<!-- &#45;33&#45;&gt;0 -->
<g id="edge127" class="edge"><title>&#45;33&#45;&gt;0</title>
<path fill="none" stroke="red" stroke-width="0.234024" d="M847.622,-77.7582C852.023,-73.7783 857.645,-69.1229 863.213,-65.6985 893.658,-46.9756 932.381,-31.9992 956.741,-23.5173"/>
<polygon fill="red" stroke="red" stroke-width="0.234024" points="957.895,-26.8217 966.235,-20.2878 955.641,-20.1946 957.895,-26.8217"/>
</g>
<!-- &#45;33&#45;&gt;1 -->
<g id="edge128" class="edge"><title>&#45;33&#45;&gt;1</title>
<path fill="none" stroke="green" stroke-width="0.474667" d="M846.879,-77.5793C851.251,-73.3471 857.074,-68.5166 863.213,-65.6985 954.054,-23.9972 987.813,-52.1551 1085.21,-29.6985 1092.53,-28.0115 1100.39,-25.7982 1107.51,-23.6374"/>
<polygon fill="green" stroke="green" stroke-width="0.474667" points="1108.76,-26.9128 1117.25,-20.5766 1106.66,-20.2346 1108.76,-26.9128"/>
</g>
<!-- &#45;33&#45;&gt;2 -->
<g id="edge129" class="edge"><title>&#45;33&#45;&gt;2</title>
<path fill="none" stroke="green" stroke-width="0.220746" d="M846.42,-77.896C850.822,-73.5396 856.822,-68.4863 863.213,-65.6985 983.068,-13.4187 1027.52,-57.8675 1155.21,-29.6985 1161.59,-28.2914 1168.37,-26.3341 1174.61,-24.3336"/>
<polygon fill="green" stroke="green" stroke-width="0.220746" points="1176.1,-27.5278 1184.45,-21.0153 1173.86,-20.8949 1176.1,-27.5278"/>
</g>
<!-- &#45;33&#45;&gt;3 -->
<g id="edge130" class="edge"><title>&#45;33&#45;&gt;3</title>
<path fill="none" stroke="red" stroke-width="0.454438" d="M846.98,-77.7874C851.382,-73.6162 857.201,-68.7776 863.213,-65.6985 867.144,-63.6856 984.986,-34.5875 1036.97,-21.8017"/>
<polygon fill="red" stroke="red" stroke-width="0.454438" points="1038.13,-25.1223 1047,-19.3365 1036.46,-18.3247 1038.13,-25.1223"/>
</g>
<!-- &#45;34 -->
<g id="node34" class="node"><title>&#45;34</title>
<polygon fill="lightgray" stroke="black" points="900.713,-95.9117 871.713,-95.9117 871.713,-77.9117 900.713,-77.9117 900.713,-95.9117"/>
<text text-anchor="middle" x="886.213" y="-84.7117" font-family="Times New Roman,serif" font-size="9.00">&#45;34</text>
</g>
<!-- &#45;34&#45;&gt;0 -->
<g id="edge131" class="edge"><title>&#45;34&#45;&gt;0</title>
<path fill="none" stroke="green" stroke-width="0.386012" d="M895.415,-77.8614C899.823,-74.083 905.219,-69.5698 910.213,-65.6985 926.464,-53.1022 945.504,-39.6216 959.621,-29.8591"/>
<polygon fill="green" stroke="green" stroke-width="0.386012" points="961.848,-32.5753 968.108,-24.0274 957.884,-26.806 961.848,-32.5753"/>
</g>
<!-- &#45;34&#45;&gt;1 -->
<g id="edge132" class="edge"><title>&#45;34&#45;&gt;1</title>
<path fill="none" stroke="green" stroke-width="0.130379" d="M893.927,-77.6819C898.314,-73.4798 904.135,-68.6453 910.213,-65.6985 981.665,-31.0578 1008.23,-49.164 1085.21,-29.6985 1092.49,-27.8578 1100.34,-25.5989 1107.46,-23.4436"/>
<polygon fill="green" stroke="green" stroke-width="0.130379" points="1108.7,-26.7245 1117.21,-20.4207 1106.62,-20.0383 1108.7,-26.7245"/>
</g>
<!-- &#45;34&#45;&gt;2 -->
<g id="edge133" class="edge"><title>&#45;34&#45;&gt;2</title>
<path fill="none" stroke="red" stroke-width="0.275058" d="M893.862,-77.5428C898.23,-73.3 904.053,-68.4709 910.213,-65.6985 1010.57,-20.5272 1048.02,-54.6542 1155.21,-29.6985 1161.57,-28.2174 1168.35,-26.2343 1174.59,-24.2325"/>
<polygon fill="red" stroke="red" stroke-width="0.275058" points="1176.07,-27.4298 1184.43,-20.9314 1173.84,-20.7932 1176.07,-27.4298"/>
</g>
<!-- &#45;34&#45;&gt;3 -->
<g id="edge134" class="edge"><title>&#45;34&#45;&gt;3</title>
<path fill="none" stroke="green" stroke-width="0.115762" d="M894.505,-77.5579C898.876,-73.527 904.506,-68.8864 910.213,-65.6985 932.369,-53.3227 1000.58,-33.0121 1037.27,-22.5468"/>
<polygon fill="green" stroke="green" stroke-width="0.115762" points="1038.47,-25.8445 1047.14,-19.7525 1036.57,-19.1093 1038.47,-25.8445"/>
</g>
<!-- &#45;35 -->
<g id="node35" class="node"><title>&#45;35</title>
<polygon fill="lightgray" stroke="black" points="947.713,-95.9117 918.713,-95.9117 918.713,-77.9117 947.713,-77.9117 947.713,-95.9117"/>
<text text-anchor="middle" x="933.213" y="-84.7117" font-family="Times New Roman,serif" font-size="9.00">&#45;35</text>
</g>
<!-- &#45;35&#45;&gt;0 -->
<g id="edge135" class="edge"><title>&#45;35&#45;&gt;0</title>
<path fill="none" stroke="green" stroke-width="0.146118" d="M938.605,-77.8746C945.409,-67.7318 957.352,-49.9283 966.703,-35.9895"/>
<polygon fill="green" stroke="green" stroke-width="0.146118" points="969.728,-37.7615 972.393,-27.5071 963.915,-33.8618 969.728,-37.7615"/>
</g>
<!-- &#45;35&#45;&gt;1 -->
<g id="edge136" class="edge"><title>&#45;35&#45;&gt;1</title>
<path fill="none" stroke="green" stroke-width="0.300674" d="M941.014,-77.8532C945.426,-73.7012 951.244,-68.86 957.213,-65.6985 1009.44,-38.0396 1028.47,-46.2175 1085.21,-29.6985 1092.42,-27.5996 1100.25,-25.2641 1107.37,-23.118"/>
<polygon fill="green" stroke="green" stroke-width="0.300674" points="1108.58,-26.4074 1117.14,-20.1589 1106.55,-19.708 1108.58,-26.4074"/>
</g>
<!-- &#45;35&#45;&gt;2 -->
<g id="edge137" class="edge"><title>&#45;35&#45;&gt;2</title>
<path fill="none" stroke="green" stroke-width="0.290716" d="M940.901,-77.6259C945.28,-73.4074 951.101,-68.5751 957.213,-65.6985 1038.14,-27.6089 1068.46,-51.4558 1155.21,-29.6985 1161.55,-28.1096 1168.31,-26.0889 1174.56,-24.0853"/>
<polygon fill="green" stroke="green" stroke-width="0.290716" points="1176.02,-27.2869 1184.4,-20.8091 1173.81,-20.6448 1176.02,-27.2869"/>
</g>
<!-- &#45;35&#45;&gt;3 -->
<g id="edge138" class="edge"><title>&#45;35&#45;&gt;3</title>
<path fill="none" stroke="green" stroke-width="0.228688" stroke-dasharray="1,5" d="M941.687,-77.8617C946.105,-73.9082 951.722,-69.2451 957.213,-65.6985 983.494,-48.7245 1016.44,-33.9 1038.12,-24.9247"/>
<polygon fill="green" stroke="green" stroke-width="0.228688" points="1039.55,-28.12 1047.5,-21.1152 1036.92,-21.6341 1039.55,-28.12"/>
</g>
<!-- &#45;36 -->
<g id="node36" class="node"><title>&#45;36</title>
<polygon fill="lightgray" stroke="black" points="994.713,-95.9117 965.713,-95.9117 965.713,-77.9117 994.713,-77.9117 994.713,-95.9117"/>
<text text-anchor="middle" x="980.213" y="-84.7117" font-family="Times New Roman,serif" font-size="9.00">&#45;36</text>
</g>
<!-- &#45;36&#45;&gt;0 -->
<g id="edge139" class="edge"><title>&#45;36&#45;&gt;0</title>
<path fill="none" stroke="red" stroke-width="0.385341" d="M980.213,-77.8746C980.213,-68.7202 980.213,-53.3256 980.213,-40.1641"/>
<polygon fill="red" stroke="red" stroke-width="0.385341" points="983.713,-39.8196 980.213,-29.8197 976.713,-39.8197 983.713,-39.8196"/>
</g>
<!-- &#45;36&#45;&gt;1 -->
<g id="edge140" class="edge"><title>&#45;36&#45;&gt;1</title>
<path fill="none" stroke="red" stroke-width="0.168917" stroke-dasharray="1,5" d="M988.581,-77.6902C992.972,-73.693 998.596,-69.0426 1004.21,-65.6985 1037.66,-45.7837 1080.51,-30.8931 1106.9,-22.784"/>
<polygon fill="red" stroke="red" stroke-width="0.168917" points="1108.22,-26.0411 1116.8,-19.823 1106.22,-19.3344 1108.22,-26.0411"/>
</g>
<!-- &#45;36&#45;&gt;2 -->
<g id="edge141" class="edge"><title>&#45;36&#45;&gt;2</title>
<path fill="none" stroke="green" stroke-width="0.529223" d="M987.965,-77.7571C992.362,-73.5771 998.182,-68.7396 1004.21,-65.6985 1065.82,-34.6376 1088.77,-48.2878 1155.21,-29.6985 1161.5,-27.9386 1168.25,-25.858 1174.49,-23.8517"/>
<polygon fill="green" stroke="green" stroke-width="0.529223" points="1175.94,-27.0598 1184.35,-20.6151 1173.76,-20.4091 1175.94,-27.0598"/>
</g>
<!-- &#45;36&#45;&gt;3 -->
<g id="edge142" class="edge"><title>&#45;36&#45;&gt;3</title>
<path fill="none" stroke="red" stroke-width="0.268296" d="M989.505,-77.8746C1002.31,-66.7944 1025.69,-46.5723 1042.27,-32.2332"/>
<polygon fill="red" stroke="red" stroke-width="0.268296" points="1044.96,-34.5397 1050.23,-25.3506 1040.38,-29.2454 1044.96,-34.5397"/>
</g>
<!-- &#45;37 -->
<g id="node37" class="node"><title>&#45;37</title>
<polygon fill="lightgray" stroke="black" points="1041.71,-95.9117 1012.71,-95.9117 1012.71,-77.9117 1041.71,-77.9117 1041.71,-95.9117"/>
<text text-anchor="middle" x="1027.21" y="-84.7117" font-family="Times New Roman,serif" font-size="9.00">&#45;37</text>
</g>
<!-- &#45;37&#45;&gt;0 -->
<g id="edge143" class="edge"><title>&#45;37&#45;&gt;0</title>
<path fill="none" stroke="red" stroke-width="0.472065" d="M1021.82,-77.8746C1015.02,-67.7318 1003.07,-49.9283 993.724,-35.9895"/>
<polygon fill="red" stroke="red" stroke-width="0.472065" points="996.511,-33.8618 988.034,-27.5071 990.698,-37.7615 996.511,-33.8618"/>
</g>
<!-- &#45;37&#45;&gt;1 -->
<g id="edge144" class="edge"><title>&#45;37&#45;&gt;1</title>
<path fill="none" stroke="green" stroke-width="0.151702" d="M1036.31,-77.7218C1040.7,-73.9128 1046.1,-69.4142 1051.21,-65.6985 1070.36,-51.7826 1093.4,-37.681 1109.83,-28.0445"/>
<polygon fill="green" stroke="green" stroke-width="0.151702" points="1111.77,-30.9676 1118.66,-22.9218 1108.25,-24.9129 1111.77,-30.9676"/>
</g>
<!-- &#45;37&#45;&gt;2 -->
<g id="edge145" class="edge"><title>&#45;37&#45;&gt;2</title>
<path fill="none" stroke="green" stroke-width="0.496357" d="M1035.52,-77.5774C1039.89,-73.5515 1045.52,-68.9094 1051.21,-65.6985 1056.77,-62.563 1134.65,-36.7537 1174.74,-23.5574"/>
<polygon fill="green" stroke="green" stroke-width="0.496357" points="1175.87,-26.8703 1184.27,-20.4212 1173.68,-20.2207 1175.87,-26.8703"/>
</g>
<!-- &#45;37&#45;&gt;3 -->
<g id="edge146" class="edge"><title>&#45;37&#45;&gt;3</title>
<path fill="none" stroke="red" stroke-width="0.608356" d="M1031.11,-77.8746C1035.83,-68.1564 1043.96,-51.4054 1050.58,-37.7594"/>
<polygon fill="red" stroke="red" stroke-width="0.608356" points="1053.85,-39.0414 1055.07,-28.5167 1047.55,-35.9853 1053.85,-39.0414"/>
</g>
<!-- &#45;38 -->
<g id="node38" class="node"><title>&#45;38</title>
<polygon fill="lightgray" stroke="black" points="1088.71,-95.9117 1059.71,-95.9117 1059.71,-77.9117 1088.71,-77.9117 1088.71,-95.9117"/>
<text text-anchor="middle" x="1074.21" y="-84.7117" font-family="Times New Roman,serif" font-size="9.00">&#45;38</text>
</g>
<!-- &#45;38&#45;&gt;0 -->
<g id="edge147" class="edge"><title>&#45;38&#45;&gt;0</title>
<path fill="none" stroke="red" stroke-width="0.168418" d="M1065.45,-77.8088C1061.24,-74.0188 1056.06,-69.5112 1051.21,-65.6985 1034.8,-52.7888 1015.34,-39.2424 1000.95,-29.5348"/>
<polygon fill="red" stroke="red" stroke-width="0.168418" points="1002.57,-26.4042 992.309,-23.7551 998.676,-32.2232 1002.57,-26.4042"/>
</g>
<!-- &#45;38&#45;&gt;1 -->
<g id="edge148" class="edge"><title>&#45;38&#45;&gt;1</title>
<path fill="none" stroke="red" stroke-width="0.417416" d="M1080.75,-77.8746C1089.18,-67.5161 1104.11,-49.1677 1115.55,-35.1057"/>
<polygon fill="red" stroke="red" stroke-width="0.417416" points="1118.53,-36.9797 1122.13,-27.0138 1113.1,-32.5621 1118.53,-36.9797"/>
</g>
<!-- &#45;38&#45;&gt;2 -->
<g id="edge149" class="edge"><title>&#45;38&#45;&gt;2</title>
<path fill="none" stroke="green" stroke-width="0.333841" d="M1082.71,-77.8976C1087.13,-73.9532 1092.75,-69.2875 1098.21,-65.6985 1123.29,-49.2237 1154.58,-34.4579 1175.41,-25.351"/>
<polygon fill="green" stroke="green" stroke-width="0.333841" points="1176.91,-28.5134 1184.72,-21.3522 1174.15,-22.0811 1176.91,-28.5134"/>
</g>
<!-- &#45;38&#45;&gt;3 -->
<g id="edge150" class="edge"><title>&#45;38&#45;&gt;3</title>
<path fill="none" stroke="green" stroke-width="0.121586" d="M1072.72,-77.8746C1071,-68.572 1068.07,-52.8252 1065.61,-39.5264"/>
<polygon fill="green" stroke="green" stroke-width="0.121586" points="1069.02,-38.7492 1063.76,-29.5556 1062.14,-40.0263 1069.02,-38.7492"/>
</g>
<!-- &#45;39 -->
<g id="node39" class="node"><title>&#45;39</title>
<polygon fill="lightgray" stroke="black" points="2020.71,-95.9117 1991.71,-95.9117 1991.71,-77.9117 2020.71,-77.9117 2020.71,-95.9117"/>
<text text-anchor="middle" x="2006.21" y="-84.7117" font-family="Times New Roman,serif" font-size="9.00">&#45;39</text>
</g>
<!-- &#45;39&#45;&gt;1 -->
<g id="edge151" class="edge"><title>&#45;39&#45;&gt;1</title>
<path fill="none" stroke="red" stroke-width="0.152945" stroke-dasharray="1,5" d="M1997.29,-77.6961C1991.9,-73.2732 1984.65,-68.2199 1977.21,-65.6985 1808.04,-8.36485 1350.01,-61.3598 1174.21,-29.6985 1167.78,-28.5407 1160.99,-26.6706 1154.74,-24.674"/>
<polygon fill="red" stroke="red" stroke-width="0.152945" points="1155.51,-21.2372 1144.92,-21.2982 1153.24,-27.8574 1155.51,-21.2372"/>
</g>
<!-- &#45;39&#45;&gt;2 -->
<g id="edge152" class="edge"><title>&#45;39&#45;&gt;2</title>
<path fill="none" stroke="green" stroke-width="0.214604" d="M1997.27,-77.7493C1991.88,-73.3441 1984.63,-68.2908 1977.21,-65.6985 1833.3,-15.3877 1340.63,-15.0061 1223.4,-15.6518"/>
<polygon fill="green" stroke="green" stroke-width="0.214604" points="1223.23,-12.1527 1213.25,-15.7158 1223.27,-19.1525 1223.23,-12.1527"/>
</g>
<!-- &#45;39&#45;&gt;3 -->
<g id="edge153" class="edge"><title>&#45;39&#45;&gt;3</title>
<path fill="none" stroke="red" stroke-width="0.309046" d="M1991.22,-79.748C1978.85,-74.9724 1960.7,-68.6829 1944.21,-65.6985 1577.82,0.620992 1474.33,-91.8525 1107.21,-29.6985 1099.81,-28.4451 1091.92,-26.3604 1084.81,-24.1841"/>
<polygon fill="red" stroke="red" stroke-width="0.309046" points="1085.68,-20.7866 1075.09,-21.0163 1083.51,-27.4422 1085.68,-20.7866"/>
</g>
<!-- &#45;40 -->
<g id="node40" class="node"><title>&#45;40</title>
<polygon fill="lightgray" stroke="black" points="1135.71,-95.9117 1106.71,-95.9117 1106.71,-77.9117 1135.71,-77.9117 1135.71,-95.9117"/>
<text text-anchor="middle" x="1121.21" y="-84.7117" font-family="Times New Roman,serif" font-size="9.00">&#45;40</text>
</g>
<!-- &#45;40&#45;&gt;0 -->
<g id="edge154" class="edge"><title>&#45;40&#45;&gt;0</title>
<path fill="none" stroke="green" stroke-width="0.207157" d="M1113.21,-77.7294C1109.01,-73.7422 1103.62,-69.0889 1098.21,-65.6985 1067.72,-46.5652 1028.61,-31.6974 1003.97,-23.3508"/>
<polygon fill="green" stroke="green" stroke-width="0.207157" points="1004.96,-19.9912 994.366,-20.1796 1002.76,-26.6383 1004.96,-19.9912"/>
</g>
<!-- &#45;40&#45;&gt;1 -->
<g id="edge155" class="edge"><title>&#45;40&#45;&gt;1</title>
<path fill="none" stroke="red" stroke-width="0.11514" d="M1122.36,-77.8746C1123.68,-68.6287 1125.91,-53.017 1127.8,-39.7699"/>
<polygon fill="red" stroke="red" stroke-width="0.11514" points="1131.27,-40.2139 1129.22,-29.8197 1124.34,-39.2248 1131.27,-40.2139"/>
</g>
<!-- &#45;40&#45;&gt;2 -->
<g id="edge156" class="edge"><title>&#45;40&#45;&gt;2</title>
<path fill="none" stroke="red" stroke-width="0.225649" d="M1130.05,-77.8746C1142.16,-66.8557 1164.2,-46.7955 1179.95,-32.4714"/>
<polygon fill="red" stroke="red" stroke-width="0.225649" points="1182.48,-34.9007 1187.52,-25.5819 1177.76,-29.7232 1182.48,-34.9007"/>
</g>
<!-- &#45;40&#45;&gt;3 -->
<g id="edge157" class="edge"><title>&#45;40&#45;&gt;3</title>
<path fill="none" stroke="green" stroke-width="0.390572" d="M1114.33,-77.8746C1105.38,-67.4184 1089.45,-48.8208 1077.36,-34.7089"/>
<polygon fill="green" stroke="green" stroke-width="0.390572" points="1079.94,-32.3326 1070.77,-27.0138 1074.62,-36.8858 1079.94,-32.3326"/>
</g>
<!-- 181&#45;&gt;2 -->
<g id="edge159" class="edge"><title>181&#45;&gt;2</title>
<path fill="none" stroke="green" stroke-width="0.192356" d="M2119.14,-73.9223C2113.66,-70.6697 2107.4,-67.541 2101.21,-65.6985 1930.31,-14.8039 1351.78,-14.9802 1223.53,-15.6666"/>
<polygon fill="green" stroke="green" stroke-width="0.192356" points="1223.15,-12.1687 1213.17,-15.7288 1223.19,-19.1686 1223.15,-12.1687"/>
</g>
<!-- 702&#45;&gt;0 -->
<g id="edge161" class="edge"><title>702&#45;&gt;0</title>
<path fill="none" stroke="red" stroke-width="0.277923" d="M38.2824,-73.9175C43.7643,-70.6648 50.025,-67.5371 56.2132,-65.6985 231.473,-13.6254 825.539,-14.7433 955.119,-15.6313"/>
<polygon fill="red" stroke="red" stroke-width="0.277923" points="955.217,-19.1321 965.243,-15.7071 955.27,-12.1323 955.217,-19.1321"/>
</g>
</g>
</svg>
