<?xml version="1.0" encoding="UTF-8" standalone="no"?>
<!DOCTYPE svg PUBLIC "-//W3C//DTD SVG 1.1//EN"
 "http://www.w3.org/Graphics/SVG/1.1/DTD/svg11.dtd">
<!-- Generated by graphviz version 2.38.0 (20140413.2041)
 -->
<!-- Title: %3 Pages: 1 -->
<svg width="1955pt" height="170pt"
 viewBox="0.00 0.00 1955.07 170.12" xmlns="http://www.w3.org/2000/svg" xmlns:xlink="http://www.w3.org/1999/xlink">
<g id="graph0" class="graph" transform="scale(1 1) rotate(0) translate(4 166.125)">
<title>%3</title>
<polygon fill="white" stroke="none" points="-4,4 -4,-166.125 1951.07,-166.125 1951.07,4 -4,4"/>
<!-- &#45;1 -->
<g id="node1" class="node"><title>&#45;1</title>
<polygon fill="lightgray" stroke="black" points="1543.28,-95.9117 1519.28,-95.9117 1519.28,-77.9117 1543.28,-77.9117 1543.28,-95.9117"/>
<text text-anchor="middle" x="1531.28" y="-84.7117" font-family="Times New Roman,serif" font-size="9.00">&#45;1</text>
</g>
<!-- 0 -->
<g id="node41" class="node"><title>0</title>
<ellipse fill="lightblue" stroke="black" cx="921.276" cy="-14.8492" rx="14.7" ry="14.7"/>
<text text-anchor="middle" x="921.276" y="-12.6492" font-family="Times New Roman,serif" font-size="9.00">0</text>
</g>
<!-- &#45;1&#45;&gt;0 -->
<g id="edge1" class="edge"><title>&#45;1&#45;&gt;0</title>
<path fill="none" stroke="red" stroke-width="0.120955" d="M1525.22,-77.7636C1521.45,-73.3632 1516.2,-68.3099 1510.28,-65.6985 1395.14,-14.9765 1065.71,-66.0963 945.276,-29.6985 944.217,-29.3784 943.154,-29.004 942.097,-28.5877"/>
<polygon fill="red" stroke="red" stroke-width="0.120955" points="943.499,-25.3758 932.989,-24.0417 940.373,-31.639 943.499,-25.3758"/>
</g>
<!-- 1 -->
<g id="node42" class="node"><title>1</title>
<ellipse fill="lightblue" stroke="black" cx="1062.28" cy="-14.8492" rx="14.7" ry="14.7"/>
<text text-anchor="middle" x="1062.28" y="-12.6492" font-family="Times New Roman,serif" font-size="9.00">1</text>
</g>
<!-- &#45;1&#45;&gt;1 -->
<g id="edge2" class="edge"><title>&#45;1&#45;&gt;1</title>
<path fill="none" stroke="green" stroke-width="0.200571" d="M1525.2,-77.8103C1521.43,-73.4255 1516.18,-68.3722 1510.28,-65.6985 1338.02,12.3678 1266.72,-86.3172 1086.28,-29.6985 1085.22,-29.3672 1084.16,-28.9837 1083.11,-28.56"/>
<polygon fill="green" stroke="green" stroke-width="0.200571" points="1084.51,-25.3498 1074.01,-23.9869 1081.37,-31.6045 1084.51,-25.3498"/>
</g>
<!-- 2 -->
<g id="node43" class="node"><title>2</title>
<ellipse fill="lightblue" stroke="black" cx="1110.28" cy="-14.8492" rx="14.7" ry="14.7"/>
<text text-anchor="middle" x="1110.28" y="-12.6492" font-family="Times New Roman,serif" font-size="9.00">2</text>
</g>
<!-- &#45;1&#45;&gt;2 -->
<g id="edge3" class="edge"><title>&#45;1&#45;&gt;2</title>
<path fill="none" stroke="green" stroke-width="0.557745" stroke-dasharray="1,5" d="M1525.16,-77.8969C1521.37,-73.5408 1516.12,-68.4875 1510.28,-65.6985 1443.3,-33.7465 1212.79,-20.5237 1135.65,-16.9265"/>
<polygon fill="green" stroke="green" stroke-width="0.557745" points="1135.57,-13.4193 1125.42,-16.4645 1135.25,-20.4122 1135.57,-13.4193"/>
</g>
<!-- 3 -->
<g id="node44" class="node"><title>3</title>
<ellipse fill="lightblue" stroke="black" cx="969.276" cy="-14.8492" rx="14.7" ry="14.7"/>
<text text-anchor="middle" x="969.276" y="-12.6492" font-family="Times New Roman,serif" font-size="9.00">3</text>
</g>
<!-- &#45;1&#45;&gt;3 -->
<g id="edge4" class="edge"><title>&#45;1&#45;&gt;3</title>
<path fill="none" stroke="red" stroke-width="0.17302" d="M1525.21,-77.7913C1521.44,-73.4001 1516.19,-68.3468 1510.28,-65.6985 1414.28,-22.6879 1142.48,-44.0757 1038.28,-29.6985 1023.43,-27.6503 1006.97,-24.3855 993.852,-21.5401"/>
<polygon fill="red" stroke="red" stroke-width="0.17302" points="994.248,-18.0427 983.726,-19.2846 992.726,-24.8752 994.248,-18.0427"/>
</g>
<!-- &#45;2 -->
<g id="node2" class="node"><title>&#45;2</title>
<polygon fill="lightgray" stroke="black" points="1585.28,-95.9117 1561.28,-95.9117 1561.28,-77.9117 1585.28,-77.9117 1585.28,-95.9117"/>
<text text-anchor="middle" x="1573.28" y="-84.7117" font-family="Times New Roman,serif" font-size="9.00">&#45;2</text>
</g>
<!-- &#45;2&#45;&gt;0 -->
<g id="edge5" class="edge"><title>&#45;2&#45;&gt;0</title>
<path fill="none" stroke="green" stroke-width="0.102679" d="M1567.23,-77.7538C1563.46,-73.3501 1558.21,-68.2968 1552.28,-65.6985 1428.5,-11.4925 1074.71,-68.5072 945.276,-29.6985 944.216,-29.3807 943.153,-29.0082 942.095,-28.5935"/>
<polygon fill="green" stroke="green" stroke-width="0.102679" points="943.496,-25.3812 932.985,-24.0532 940.374,-31.6463 943.496,-25.3812"/>
</g>
<!-- &#45;2&#45;&gt;1 -->
<g id="edge6" class="edge"><title>&#45;2&#45;&gt;1</title>
<path fill="none" stroke="green" stroke-width="0.252593" d="M1567.21,-77.7935C1563.44,-73.403 1558.19,-68.3497 1552.28,-65.6985 1362.75,19.3281 1284.71,-91.1335 1086.28,-29.6985 1085.22,-29.3713 1084.16,-28.991 1083.1,-28.57"/>
<polygon fill="green" stroke="green" stroke-width="0.252593" points="1084.51,-25.3592 1074,-24.0066 1081.37,-31.6169 1084.51,-25.3592"/>
</g>
<!-- &#45;2&#45;&gt;2 -->
<g id="edge7" class="edge"><title>&#45;2&#45;&gt;2</title>
<path fill="none" stroke="green" stroke-width="0.4068" d="M1567.17,-77.8712C1563.39,-73.5066 1558.14,-68.4533 1552.28,-65.6985 1477.27,-30.4515 1217.34,-19.2667 1135.29,-16.5724"/>
<polygon fill="green" stroke="green" stroke-width="0.4068" points="1135.25,-13.0693 1125.14,-16.2532 1135.03,-20.0659 1135.25,-13.0693"/>
</g>
<!-- &#45;2&#45;&gt;3 -->
<g id="edge8" class="edge"><title>&#45;2&#45;&gt;3</title>
<path fill="none" stroke="green" stroke-width="0.383092" stroke-dasharray="1,5" d="M1567.22,-77.7776C1563.44,-73.3818 1558.19,-68.3285 1552.28,-65.6985 1447.64,-19.206 1151.75,-44.9962 1038.28,-29.6985 1023.33,-27.6835 1006.75,-24.3918 993.596,-21.5231"/>
<polygon fill="green" stroke="green" stroke-width="0.383092" points="993.981,-18.0226 983.458,-19.2501 992.45,-24.8531 993.981,-18.0226"/>
</g>
<!-- &#45;3 -->
<g id="node3" class="node"><title>&#45;3</title>
<polygon fill="lightgray" stroke="black" points="1627.28,-95.9117 1603.28,-95.9117 1603.28,-77.9117 1627.28,-77.9117 1627.28,-95.9117"/>
<text text-anchor="middle" x="1615.28" y="-84.7117" font-family="Times New Roman,serif" font-size="9.00">&#45;3</text>
</g>
<!-- &#45;3&#45;&gt;0 -->
<g id="edge9" class="edge"><title>&#45;3&#45;&gt;0</title>
<path fill="none" stroke="red" stroke-width="0.390215" d="M1609.23,-77.7453C1605.46,-73.3388 1600.21,-68.2855 1594.28,-65.6985 1461.85,-8.0077 1083.71,-70.9187 945.276,-29.6985 944.215,-29.3827 943.152,-29.0119 942.094,-28.5985"/>
<polygon fill="red" stroke="red" stroke-width="0.390215" points="943.494,-25.3859 932.982,-24.0632 940.375,-31.6525 943.494,-25.3859"/>
</g>
<!-- &#45;3&#45;&gt;1 -->
<g id="edge10" class="edge"><title>&#45;3&#45;&gt;1</title>
<path fill="none" stroke="green" stroke-width="0.156378" d="M1609.21,-77.7794C1605.44,-73.3842 1600.19,-68.3309 1594.28,-65.6985 1387.47,26.2915 1302.71,-95.952 1086.28,-29.6985 1085.22,-29.3746 1084.16,-28.9972 1083.1,-28.5783"/>
<polygon fill="green" stroke="green" stroke-width="0.156378" points="1084.5,-25.367 1073.99,-24.0232 1081.37,-31.6274 1084.5,-25.367"/>
</g>
<!-- &#45;3&#45;&gt;2 -->
<g id="edge11" class="edge"><title>&#45;3&#45;&gt;2</title>
<path fill="none" stroke="red" stroke-width="0.400879" stroke-dasharray="1,5" d="M1609.18,-77.8499C1605.4,-73.4782 1600.15,-68.4249 1594.28,-65.6985 1511.33,-27.2063 1222.49,-18.1669 1135.35,-16.294"/>
<polygon fill="red" stroke="red" stroke-width="0.400879" points="1135.16,-12.7895 1125.09,-16.0872 1135.02,-19.7881 1135.16,-12.7895"/>
</g>
<!-- &#45;3&#45;&gt;3 -->
<g id="edge12" class="edge"><title>&#45;3&#45;&gt;3</title>
<path fill="none" stroke="green" stroke-width="0.378431" d="M1609.22,-77.7659C1605.45,-73.3662 1600.2,-68.3129 1594.28,-65.6985 1481,-15.723 1161.02,-45.9172 1038.28,-29.6985 1023.32,-27.7229 1006.75,-24.4326 993.592,-21.5547"/>
<polygon fill="green" stroke="green" stroke-width="0.378431" points="993.98,-18.0545 983.455,-19.2723 992.442,-24.8835 993.98,-18.0545"/>
</g>
<!-- &#45;4 -->
<g id="node4" class="node"><title>&#45;4</title>
<polygon fill="lightgray" stroke="black" points="1669.28,-95.9117 1645.28,-95.9117 1645.28,-77.9117 1669.28,-77.9117 1669.28,-95.9117"/>
<text text-anchor="middle" x="1657.28" y="-84.7117" font-family="Times New Roman,serif" font-size="9.00">&#45;4</text>
</g>
<!-- &#45;4&#45;&gt;0 -->
<g id="edge13" class="edge"><title>&#45;4&#45;&gt;0</title>
<path fill="none" stroke="green" stroke-width="0.183618" d="M1651.23,-77.7378C1647.47,-73.3288 1642.22,-68.2755 1636.28,-65.6985 1495.21,-4.52239 1092.72,-73.3305 945.276,-29.6985 944.215,-29.3845 943.151,-29.0152 942.093,-28.603"/>
<polygon fill="green" stroke="green" stroke-width="0.183618" points="943.492,-25.3901 932.98,-24.0719 940.376,-31.6581 943.492,-25.3901"/>
</g>
<!-- &#45;4&#45;&gt;1 -->
<g id="edge14" class="edge"><title>&#45;4&#45;&gt;1</title>
<path fill="none" stroke="red" stroke-width="0.154773" d="M1651.22,-77.7675C1647.45,-73.3683 1642.2,-68.315 1636.28,-65.6985 1524.23,-16.2206 1203.49,-65.2353 1086.28,-29.6985 1085.22,-29.3775 1084.15,-29.0023 1083.1,-28.5854"/>
<polygon fill="red" stroke="red" stroke-width="0.154773" points="1084.5,-25.3736 1073.99,-24.0372 1081.37,-31.6362 1084.5,-25.3736"/>
</g>
<!-- &#45;4&#45;&gt;2 -->
<g id="edge15" class="edge"><title>&#45;4&#45;&gt;2</title>
<path fill="none" stroke="green" stroke-width="0.270547" d="M1651.19,-77.832C1647.41,-73.4543 1642.16,-68.401 1636.28,-65.6985 1545.35,-23.9563 1227.48,-17.1569 1135.43,-16.0587"/>
<polygon fill="green" stroke="green" stroke-width="0.270547" points="1135.39,-12.5582 1125.35,-15.9511 1135.32,-19.5578 1135.39,-12.5582"/>
</g>
<!-- &#45;4&#45;&gt;3 -->
<g id="edge16" class="edge"><title>&#45;4&#45;&gt;3</title>
<path fill="none" stroke="green" stroke-width="0.435768" d="M1651.22,-77.7558C1647.46,-73.3528 1642.21,-68.2995 1636.28,-65.6985 1514.35,-12.2391 1170.3,-46.8384 1038.28,-29.6985 1023.32,-27.7568 1006.74,-24.4677 993.588,-21.582"/>
<polygon fill="green" stroke="green" stroke-width="0.435768" points="993.978,-18.0818 983.452,-19.2913 992.435,-24.9097 993.978,-18.0818"/>
</g>
<!-- &#45;5 -->
<g id="node5" class="node"><title>&#45;5</title>
<polygon fill="lightgray" stroke="black" points="1711.28,-95.9117 1687.28,-95.9117 1687.28,-77.9117 1711.28,-77.9117 1711.28,-95.9117"/>
<text text-anchor="middle" x="1699.28" y="-84.7117" font-family="Times New Roman,serif" font-size="9.00">&#45;5</text>
</g>
<!-- &#45;5&#45;&gt;0 -->
<g id="edge17" class="edge"><title>&#45;5&#45;&gt;0</title>
<path fill="none" stroke="red" stroke-width="0.305761" stroke-dasharray="1,5" d="M1693.24,-77.7312C1689.47,-73.3199 1684.22,-68.2666 1678.28,-65.6985 1528.56,-1.03662 1101.73,-75.7427 945.276,-29.6985 944.214,-29.3861 943.15,-29.0181 942.091,-28.6069"/>
<polygon fill="red" stroke="red" stroke-width="0.305761" points="943.49,-25.3938 932.977,-24.0797 940.376,-31.663 943.49,-25.3938"/>
</g>
<!-- &#45;5&#45;&gt;1 -->
<g id="edge18" class="edge"><title>&#45;5&#45;&gt;1</title>
<path fill="none" stroke="green" stroke-width="0.22122" d="M1693.22,-77.7572C1689.46,-73.3546 1684.21,-68.3013 1678.28,-65.6985 1557.59,-12.7369 1212.49,-67.6461 1086.28,-29.6985 1085.22,-29.3799 1084.15,-29.0068 1083.1,-28.5915"/>
<polygon fill="green" stroke="green" stroke-width="0.22122" points="1084.5,-25.3793 1073.99,-24.0493 1081.37,-31.6438 1084.5,-25.3793"/>
</g>
<!-- &#45;5&#45;&gt;2 -->
<g id="edge19" class="edge"><title>&#45;5&#45;&gt;2</title>
<path fill="none" stroke="green" stroke-width="0.306533" d="M1693.2,-77.8166C1689.42,-73.4338 1684.17,-68.3805 1678.28,-65.6985 1579.36,-20.7012 1232.32,-16.2205 1135.52,-15.8566"/>
<polygon fill="green" stroke="green" stroke-width="0.306533" points="1135.24,-12.356 1125.23,-15.8305 1135.22,-19.356 1135.24,-12.356"/>
</g>
<!-- &#45;5&#45;&gt;3 -->
<g id="edge20" class="edge"><title>&#45;5&#45;&gt;3</title>
<path fill="none" stroke="green" stroke-width="0.396876" d="M1693.23,-77.7471C1689.46,-73.3411 1684.21,-68.2878 1678.28,-65.6985 1547.71,-8.75448 1179.57,-47.7599 1038.28,-29.6985 1023.32,-27.7862 1006.74,-24.4982 993.585,-21.6057"/>
<polygon fill="green" stroke="green" stroke-width="0.396876" points="993.977,-18.1056 983.45,-19.3079 992.429,-24.9324 993.977,-18.1056"/>
</g>
<!-- &#45;6 -->
<g id="node6" class="node"><title>&#45;6</title>
<polygon fill="lightgray" stroke="black" points="1795.28,-95.9117 1771.28,-95.9117 1771.28,-77.9117 1795.28,-77.9117 1795.28,-95.9117"/>
<text text-anchor="middle" x="1783.28" y="-84.7117" font-family="Times New Roman,serif" font-size="9.00">&#45;6</text>
</g>
<!-- &#45;6&#45;&gt;0 -->
<g id="edge21" class="edge"><title>&#45;6&#45;&gt;0</title>
<path fill="none" stroke="red" stroke-width="0.420907" d="M1777.24,-77.72C1773.48,-73.305 1768.23,-68.2517 1762.28,-65.6985 1595.26,5.93602 1119.74,-80.5678 945.276,-29.6985 944.213,-29.3888 943.148,-29.0229 942.09,-28.6135"/>
<polygon fill="red" stroke="red" stroke-width="0.420907" points="943.487,-25.4 932.973,-24.0929 940.377,-31.6713 943.487,-25.4"/>
</g>
<!-- &#45;6&#45;&gt;1 -->
<g id="edge22" class="edge"><title>&#45;6&#45;&gt;1</title>
<path fill="none" stroke="green" stroke-width="0.246157" d="M1777.23,-77.7404C1773.47,-73.3322 1768.22,-68.2789 1762.28,-65.6985 1624.29,-5.7672 1230.5,-72.4691 1086.28,-29.6985 1085.21,-29.3839 1084.15,-29.0141 1083.09,-28.6014"/>
<polygon fill="green" stroke="green" stroke-width="0.246157" points="1084.49,-25.3887 1073.98,-24.0689 1081.38,-31.6562 1084.49,-25.3887"/>
</g>
<!-- &#45;6&#45;&gt;2 -->
<g id="edge23" class="edge"><title>&#45;6&#45;&gt;2</title>
<path fill="none" stroke="green" stroke-width="0.165993" d="M1777.21,-77.7918C1773.44,-73.4007 1768.19,-68.3474 1762.28,-65.6985 1647.2,-14.129 1240.85,-14.5231 1135.42,-15.5287"/>
<polygon fill="green" stroke="green" stroke-width="0.165993" points="1135.08,-12.0319 1125.12,-15.6385 1135.16,-19.0316 1135.08,-12.0319"/>
</g>
<!-- &#45;7 -->
<g id="node7" class="node"><title>&#45;7</title>
<polygon fill="lightgray" stroke="black" points="1753.28,-95.9117 1729.28,-95.9117 1729.28,-77.9117 1753.28,-77.9117 1753.28,-95.9117"/>
<text text-anchor="middle" x="1741.28" y="-84.7117" font-family="Times New Roman,serif" font-size="9.00">&#45;7</text>
</g>
<!-- &#45;7&#45;&gt;0 -->
<g id="edge24" class="edge"><title>&#45;7&#45;&gt;0</title>
<path fill="none" stroke="red" stroke-width="0.246872" d="M1735.24,-77.7253C1731.48,-73.312 1726.23,-68.2587 1720.28,-65.6985 1561.91,2.44954 1110.73,-78.1551 945.276,-29.6985 944.214,-29.3875 943.149,-29.0206 942.09,-28.6104"/>
<polygon fill="red" stroke="red" stroke-width="0.246872" points="943.489,-25.3971 932.975,-24.0867 940.377,-31.6674 943.489,-25.3971"/>
</g>
<!-- &#45;7&#45;&gt;1 -->
<g id="edge25" class="edge"><title>&#45;7&#45;&gt;1</title>
<path fill="none" stroke="red" stroke-width="0.102758" d="M1735.23,-77.7482C1731.46,-73.3427 1726.21,-68.2894 1720.28,-65.6985 1590.94,-9.25232 1221.5,-70.0574 1086.28,-29.6985 1085.22,-29.382 1084.15,-29.0107 1083.09,-28.5968"/>
<polygon fill="red" stroke="red" stroke-width="0.102758" points="1084.49,-25.3843 1073.98,-24.0597 1081.37,-31.6504 1084.49,-25.3843"/>
</g>
<!-- &#45;7&#45;&gt;2 -->
<g id="edge26" class="edge"><title>&#45;7&#45;&gt;2</title>
<path fill="none" stroke="green" stroke-width="0.182449" d="M1735.2,-77.8033C1731.43,-73.4161 1726.18,-68.3628 1720.28,-65.6985 1613.27,-17.4092 1236.52,-15.3426 1135.41,-15.6814"/>
<polygon fill="green" stroke="green" stroke-width="0.182449" points="1135.21,-12.1821 1125.23,-15.7273 1135.24,-19.1821 1135.21,-12.1821"/>
</g>
<!-- &#45;7&#45;&gt;3 -->
<g id="edge27" class="edge"><title>&#45;7&#45;&gt;3</title>
<path fill="none" stroke="green" stroke-width="0.23904" d="M1735.23,-77.7394C1731.47,-73.3308 1726.22,-68.2775 1720.28,-65.6985 1581.06,-5.26928 1188.85,-48.6816 1038.28,-29.6985 1023.31,-27.8121 1006.74,-24.5249 993.583,-21.6265"/>
<polygon fill="green" stroke="green" stroke-width="0.23904" points="993.976,-18.1265 983.448,-19.3224 992.424,-24.9524 993.976,-18.1265"/>
</g>
<!-- &#45;8 -->
<g id="node8" class="node"><title>&#45;8</title>
<polygon fill="lightgray" stroke="black" points="278.276,-95.9117 254.276,-95.9117 254.276,-77.9117 278.276,-77.9117 278.276,-95.9117"/>
<text text-anchor="middle" x="266.276" y="-84.7117" font-family="Times New Roman,serif" font-size="9.00">&#45;8</text>
</g>
<!-- &#45;8&#45;&gt;0 -->
<g id="edge28" class="edge"><title>&#45;8&#45;&gt;0</title>
<path fill="none" stroke="green" stroke-width="0.106234" stroke-dasharray="1,5" d="M272.345,-77.7965C276.118,-73.407 281.368,-68.3537 287.276,-65.6985 398.894,-15.5328 792.582,-14.8681 896.155,-15.5918"/>
<polygon fill="green" stroke="green" stroke-width="0.106234" points="896.266,-19.0927 906.294,-15.6741 896.322,-12.0929 896.266,-19.0927"/>
</g>
<!-- &#45;8&#45;&gt;1 -->
<g id="edge29" class="edge"><title>&#45;8&#45;&gt;1</title>
<path fill="none" stroke="red" stroke-width="0.472615" d="M272.318,-77.7354C276.082,-73.3255 281.332,-68.2722 287.276,-65.6985 431.434,-3.27752 837.399,-49.2083 993.276,-29.6985 1008.24,-27.8254 1024.82,-24.5388 1037.97,-21.6372"/>
<polygon fill="red" stroke="red" stroke-width="0.472615" points="1039.13,-24.9627 1048.1,-19.33 1037.58,-18.1374 1039.13,-24.9627"/>
</g>
<!-- &#45;8&#45;&gt;2 -->
<g id="edge30" class="edge"><title>&#45;8&#45;&gt;2</title>
<path fill="none" stroke="red" stroke-width="0.544857" d="M272.312,-77.7222C276.074,-73.3079 281.324,-68.2546 287.276,-65.6985 450.586,4.44177 915.67,-79.5338 1086.28,-29.6985 1087.34,-29.3882 1088.4,-29.022 1089.46,-28.6122"/>
<polygon fill="red" stroke="red" stroke-width="0.544857" points="1091.17,-31.6697 1098.58,-24.0903 1088.06,-25.3988 1091.17,-31.6697"/>
</g>
<!-- &#45;8&#45;&gt;3 -->
<g id="edge31" class="edge"><title>&#45;8&#45;&gt;3</title>
<path fill="none" stroke="green" stroke-width="0.202481" d="M272.321,-77.7436C276.087,-73.3365 281.337,-68.2832 287.276,-65.6985 421.551,-7.26089 804.908,-71.4355 945.276,-29.6985 946.336,-29.3831 947.4,-29.0127 948.458,-28.5995"/>
<polygon fill="green" stroke="green" stroke-width="0.202481" points="950.176,-31.6538 957.57,-24.0651 947.058,-25.3869 950.176,-31.6538"/>
</g>
<!-- &#45;9 -->
<g id="node9" class="node"><title>&#45;9</title>
<polygon fill="lightgray" stroke="black" points="150.276,-95.9117 126.276,-95.9117 126.276,-77.9117 150.276,-77.9117 150.276,-95.9117"/>
<text text-anchor="middle" x="138.276" y="-84.7117" font-family="Times New Roman,serif" font-size="9.00">&#45;9</text>
</g>
<!-- &#45;9&#45;&gt;0 -->
<g id="edge32" class="edge"><title>&#45;9&#45;&gt;0</title>
<path fill="none" stroke="green" stroke-width="0.110101" d="M146.145,-77.7556C150.935,-73.3524 157.435,-68.2991 164.276,-65.6985 302.483,-13.1567 780.552,-14.4335 896.025,-15.5418"/>
<polygon fill="green" stroke="green" stroke-width="0.110101" points="896.292,-19.0447 906.329,-15.65 896.366,-12.0451 896.292,-19.0447"/>
</g>
<!-- &#45;9&#45;&gt;1 -->
<g id="edge33" class="edge"><title>&#45;9&#45;&gt;1</title>
<path fill="none" stroke="green" stroke-width="0.46602" d="M150.654,-80.5107C162.402,-75.6659 180.681,-68.8492 197.276,-65.6985 545.2,0.359427 641.753,-72.6693 993.276,-29.6985 1008.25,-27.8685 1024.82,-24.5834 1037.97,-21.6719"/>
<polygon fill="green" stroke="green" stroke-width="0.46602" points="1039.14,-24.9959 1048.11,-19.3542 1037.58,-18.1721 1039.14,-24.9959"/>
</g>
<!-- &#45;9&#45;&gt;3 -->
<g id="edge34" class="edge"><title>&#45;9&#45;&gt;3</title>
<path fill="none" stroke="green" stroke-width="0.76512" d="M146.126,-77.7049C150.91,-73.2849 157.41,-68.2316 164.276,-65.6985 327.276,-5.56165 778.53,-78.4998 945.276,-29.6985 946.338,-29.3877 947.402,-29.021 948.461,-28.6109"/>
<polygon fill="green" stroke="green" stroke-width="0.76512" points="950.174,-31.6679 957.576,-24.0876 947.063,-25.3975 950.174,-31.6679"/>
</g>
<!-- &#45;10 -->
<g id="node10" class="node"><title>&#45;10</title>
<polygon fill="lightgray" stroke="black" points="325.776,-95.9117 296.776,-95.9117 296.776,-77.9117 325.776,-77.9117 325.776,-95.9117"/>
<text text-anchor="middle" x="311.276" y="-84.7117" font-family="Times New Roman,serif" font-size="9.00">&#45;10</text>
</g>
<!-- &#45;10&#45;&gt;0 -->
<g id="edge35" class="edge"><title>&#45;10&#45;&gt;0</title>
<path fill="none" stroke="green" stroke-width="0.118749" d="M318.081,-77.8058C322.266,-73.4194 328.016,-68.3661 334.276,-65.6985 437.896,-21.5389 797.752,-16.4663 896.207,-15.9106"/>
<polygon fill="green" stroke="green" stroke-width="0.118749" points="896.412,-19.4099 906.396,-15.8645 896.381,-12.4099 896.412,-19.4099"/>
</g>
<!-- &#45;10&#45;&gt;1 -->
<g id="edge36" class="edge"><title>&#45;10&#45;&gt;1</title>
<path fill="none" stroke="green" stroke-width="0.221041" d="M318.051,-77.7348C322.226,-73.3248 327.976,-68.2715 334.276,-65.6985 470.049,-10.2395 847.782,-48.1768 993.276,-29.6985 1008.24,-27.7983 1024.81,-24.5107 1037.97,-21.6154"/>
<polygon fill="green" stroke="green" stroke-width="0.221041" points="1039.12,-24.9417 1048.1,-19.3147 1037.58,-18.1154 1039.12,-24.9417"/>
</g>
<!-- &#45;10&#45;&gt;2 -->
<g id="edge37" class="edge"><title>&#45;10&#45;&gt;2</title>
<path fill="none" stroke="green" stroke-width="0.225576" stroke-dasharray="1,5" d="M318.045,-77.7189C322.218,-73.3036 327.968,-68.2503 334.276,-65.6985 489.368,-2.95694 925.75,-76.834 1086.28,-29.6985 1087.34,-29.3868 1088.4,-29.0193 1089.46,-28.6085"/>
<polygon fill="green" stroke="green" stroke-width="0.225576" points="1091.17,-31.665 1098.57,-24.083 1088.06,-25.3953 1091.17,-31.665"/>
</g>
<!-- &#45;10&#45;&gt;3 -->
<g id="edge38" class="edge"><title>&#45;10&#45;&gt;3</title>
<path fill="none" stroke="red" stroke-width="0.197637" d="M318.055,-77.7449C322.232,-73.3383 327.982,-68.285 334.276,-65.6985 460.079,-13.9973 814.985,-68.7369 945.276,-29.6985 946.336,-29.3809 947.399,-29.0086 948.456,-28.594"/>
<polygon fill="red" stroke="red" stroke-width="0.197637" points="950.177,-31.6469 957.566,-24.0542 947.055,-25.3817 950.177,-31.6469"/>
</g>
<!-- &#45;11 -->
<g id="node11" class="node"><title>&#45;11</title>
<polygon fill="lightgray" stroke="black" points="372.776,-95.9117 343.776,-95.9117 343.776,-77.9117 372.776,-77.9117 372.776,-95.9117"/>
<text text-anchor="middle" x="358.276" y="-84.7117" font-family="Times New Roman,serif" font-size="9.00">&#45;11</text>
</g>
<!-- &#45;11&#45;&gt;0 -->
<g id="edge39" class="edge"><title>&#45;11&#45;&gt;0</title>
<path fill="none" stroke="green" stroke-width="0.203867" d="M365.088,-77.823C369.276,-73.4424 375.026,-68.3891 381.276,-65.6985 475.799,-25.0055 802.676,-17.4604 896.136,-16.1246"/>
<polygon fill="green" stroke="green" stroke-width="0.203867" points="896.392,-19.6216 906.345,-15.9906 896.3,-12.6222 896.392,-19.6216"/>
</g>
<!-- &#45;11&#45;&gt;1 -->
<g id="edge40" class="edge"><title>&#45;11&#45;&gt;1</title>
<path fill="none" stroke="red" stroke-width="0.189097" d="M365.055,-77.7447C369.232,-73.338 374.982,-68.2847 381.276,-65.6985 507.287,-13.919 858.162,-47.1456 993.276,-29.6985 1008.23,-27.767 1024.81,-24.4783 1037.96,-21.5902"/>
<polygon fill="red" stroke="red" stroke-width="0.189097" points="1039.12,-24.9176 1048.1,-19.2971 1037.57,-18.0901 1039.12,-24.9176"/>
</g>
<!-- &#45;11&#45;&gt;2 -->
<g id="edge41" class="edge"><title>&#45;11&#45;&gt;2</title>
<path fill="none" stroke="red" stroke-width="0.131273" stroke-dasharray="1,5" d="M365.048,-77.7264C369.222,-73.3136 374.972,-68.2603 381.276,-65.6985 526.604,-6.63761 935.83,-74.1345 1086.28,-29.6985 1087.34,-29.3851 1088.4,-29.0162 1089.46,-28.6043"/>
<polygon fill="red" stroke="red" stroke-width="0.131273" points="1091.18,-31.6598 1098.57,-24.0746 1088.06,-25.3914 1091.18,-31.6598"/>
</g>
<!-- &#45;11&#45;&gt;3 -->
<g id="edge42" class="edge"><title>&#45;11&#45;&gt;3</title>
<path fill="none" stroke="green" stroke-width="0.145847" d="M365.06,-77.7565C369.238,-73.3537 374.988,-68.3004 381.276,-65.6985 497.32,-17.676 825.06,-66.0389 945.276,-29.6985 946.335,-29.3783 947.397,-29.0039 948.454,-28.5876"/>
<polygon fill="green" stroke="green" stroke-width="0.145847" points="950.178,-31.6389 957.563,-24.0414 947.052,-25.3756 950.178,-31.6389"/>
</g>
<!-- &#45;12 -->
<g id="node12" class="node"><title>&#45;12</title>
<polygon fill="lightgray" stroke="black" points="419.776,-95.9117 390.776,-95.9117 390.776,-77.9117 419.776,-77.9117 419.776,-95.9117"/>
<text text-anchor="middle" x="405.276" y="-84.7117" font-family="Times New Roman,serif" font-size="9.00">&#45;12</text>
</g>
<!-- &#45;12&#45;&gt;0 -->
<g id="edge43" class="edge"><title>&#45;12&#45;&gt;0</title>
<path fill="none" stroke="green" stroke-width="0.23506" d="M412.097,-77.8435C416.288,-73.4696 422.038,-68.4163 428.276,-65.6985 513.74,-28.4633 807.847,-18.5462 896.066,-16.3798"/>
<polygon fill="green" stroke="green" stroke-width="0.23506" points="896.307,-19.8752 906.223,-16.1429 896.144,-12.8771 896.307,-19.8752"/>
</g>
<!-- &#45;12&#45;&gt;1 -->
<g id="edge44" class="edge"><title>&#45;12&#45;&gt;1</title>
<path fill="none" stroke="green" stroke-width="0.123082" d="M412.06,-77.7562C416.238,-73.3533 421.988,-68.3 428.276,-65.6985 544.528,-17.5977 868.541,-46.1146 993.276,-29.6985 1008.23,-27.7306 1024.8,-24.4405 1037.96,-21.5609"/>
<polygon fill="green" stroke="green" stroke-width="0.123082" points="1039.11,-24.8894 1048.1,-19.2766 1037.57,-18.0607 1039.11,-24.8894"/>
</g>
<!-- &#45;12&#45;&gt;2 -->
<g id="edge45" class="edge"><title>&#45;12&#45;&gt;2</title>
<path fill="none" stroke="red" stroke-width="0.171506" d="M412.051,-77.735C416.227,-73.3251 421.977,-68.2718 428.276,-65.6985 563.841,-10.3178 945.908,-71.4355 1086.28,-29.6985 1087.34,-29.3831 1088.4,-29.0127 1089.46,-28.5995"/>
<polygon fill="red" stroke="red" stroke-width="0.171506" points="1091.18,-31.6538 1098.57,-24.0651 1088.06,-25.3869 1091.18,-31.6538"/>
</g>
<!-- &#45;12&#45;&gt;3 -->
<g id="edge46" class="edge"><title>&#45;12&#45;&gt;3</title>
<path fill="none" stroke="red" stroke-width="0.267591" d="M412.066,-77.7701C416.246,-73.3718 421.996,-68.3185 428.276,-65.6985 640.85,22.9911 724.989,-96.9848 945.276,-29.6985 946.334,-29.3753 947.396,-28.9983 948.452,-28.58"/>
<polygon fill="red" stroke="red" stroke-width="0.267591" points="950.179,-31.6294 957.558,-24.0264 947.048,-25.3685 950.179,-31.6294"/>
</g>
<!-- &#45;13 -->
<g id="node13" class="node"><title>&#45;13</title>
<polygon fill="lightgray" stroke="black" points="466.776,-95.9117 437.776,-95.9117 437.776,-77.9117 466.776,-77.9117 466.776,-95.9117"/>
<text text-anchor="middle" x="452.276" y="-84.7117" font-family="Times New Roman,serif" font-size="9.00">&#45;13</text>
</g>
<!-- &#45;13&#45;&gt;0 -->
<g id="edge47" class="edge"><title>&#45;13&#45;&gt;0</title>
<path fill="none" stroke="red" stroke-width="0.3195" d="M459.108,-77.8681C463.302,-73.5024 469.052,-68.4491 475.276,-65.6985 551.753,-31.8981 813.502,-19.7342 896.095,-16.6857"/>
<polygon fill="red" stroke="red" stroke-width="0.3195" points="896.444,-20.1756 906.313,-16.3219 896.195,-13.18 896.444,-20.1756"/>
</g>
<!-- &#45;13&#45;&gt;1 -->
<g id="edge48" class="edge"><title>&#45;13&#45;&gt;1</title>
<path fill="none" stroke="green" stroke-width="0.51083" d="M459.066,-77.7698C463.246,-73.3714 468.996,-68.3181 475.276,-65.6985 581.771,-21.2755 878.917,-45.0839 993.276,-29.6985 1008.22,-27.6876 1024.8,-24.396 1037.96,-21.5263"/>
<polygon fill="green" stroke="green" stroke-width="0.51083" points="1039.1,-24.8562 1048.09,-19.2524 1037.57,-18.0259 1039.1,-24.8562"/>
</g>
<!-- &#45;13&#45;&gt;2 -->
<g id="edge49" class="edge"><title>&#45;13&#45;&gt;2</title>
<path fill="none" stroke="green" stroke-width="0.311381" d="M459.055,-77.7449C463.232,-73.3383 468.982,-68.285 475.276,-65.6985 601.079,-13.9973 955.985,-68.7369 1086.28,-29.6985 1087.34,-29.3809 1088.4,-29.0086 1089.46,-28.594"/>
<polygon fill="green" stroke="green" stroke-width="0.311381" points="1091.18,-31.6469 1098.57,-24.0542 1088.06,-25.3817 1091.18,-31.6469"/>
</g>
<!-- &#45;13&#45;&gt;3 -->
<g id="edge50" class="edge"><title>&#45;13&#45;&gt;3</title>
<path fill="none" stroke="red" stroke-width="0.22775" d="M459.073,-77.7864C463.255,-73.3935 469.005,-68.3402 475.276,-65.6985 668.343,15.6383 745.126,-91.5923 945.276,-29.6985 946.333,-29.3716 947.394,-28.9917 948.449,-28.5709"/>
<polygon fill="red" stroke="red" stroke-width="0.22775" points="950.181,-31.618 957.552,-24.0083 947.044,-25.36 950.181,-31.618"/>
</g>
<!-- &#45;14 -->
<g id="node14" class="node"><title>&#45;14</title>
<polygon fill="lightgray" stroke="black" points="1880.78,-95.9117 1851.78,-95.9117 1851.78,-77.9117 1880.78,-77.9117 1880.78,-95.9117"/>
<text text-anchor="middle" x="1866.28" y="-84.7117" font-family="Times New Roman,serif" font-size="9.00">&#45;14</text>
</g>
<!-- &#45;14&#45;&gt;1 -->
<g id="edge51" class="edge"><title>&#45;14&#45;&gt;1</title>
<path fill="none" stroke="red" stroke-width="0.210894" d="M1857.35,-77.7048C1851.96,-73.2847 1844.71,-68.2314 1837.28,-65.6985 1679.12,-11.8249 1246.59,-76.7766 1086.28,-29.6985 1085.21,-29.3867 1084.15,-29.0192 1083.09,-28.6084"/>
<polygon fill="red" stroke="red" stroke-width="0.210894" points="1084.49,-25.3952 1073.98,-24.0828 1081.38,-31.6649 1084.49,-25.3952"/>
</g>
<!-- &#45;14&#45;&gt;2 -->
<g id="edge52" class="edge"><title>&#45;14&#45;&gt;2</title>
<path fill="none" stroke="green" stroke-width="0.311245" d="M1857.33,-77.762C1851.94,-73.361 1844.69,-68.3077 1837.28,-65.6985 1703.6,-18.6261 1247.09,-15.7656 1135.19,-15.7851"/>
<polygon fill="green" stroke="green" stroke-width="0.311245" points="1135.18,-12.285 1125.18,-15.7951 1135.19,-19.285 1135.18,-12.285"/>
</g>
<!-- &#45;14&#45;&gt;3 -->
<g id="edge53" class="edge"><title>&#45;14&#45;&gt;3</title>
<path fill="none" stroke="red" stroke-width="0.141723" d="M1851.28,-79.7655C1838.9,-75.0001 1820.76,-68.7157 1804.28,-65.6985 1469.03,-4.32678 1376.54,-71.3521 1038.28,-29.6985 1023.31,-27.8553 1006.73,-24.5697 993.578,-21.6612"/>
<polygon fill="red" stroke="red" stroke-width="0.141723" points="993.974,-18.1615 983.445,-19.3468 992.415,-24.9857 993.974,-18.1615"/>
</g>
<!-- &#45;15 -->
<g id="node15" class="node"><title>&#45;15</title>
<polygon fill="lightgray" stroke="black" points="513.776,-95.9117 484.776,-95.9117 484.776,-77.9117 513.776,-77.9117 513.776,-95.9117"/>
<text text-anchor="middle" x="499.276" y="-84.7117" font-family="Times New Roman,serif" font-size="9.00">&#45;15</text>
</g>
<!-- &#45;15&#45;&gt;0 -->
<g id="edge54" class="edge"><title>&#45;15&#45;&gt;0</title>
<path fill="none" stroke="green" stroke-width="0.331728" d="M506.121,-77.8983C510.32,-73.5428 516.07,-68.4895 522.276,-65.6985 589.785,-35.3364 819.257,-21.0694 896.024,-17.067"/>
<polygon fill="green" stroke="green" stroke-width="0.331728" points="896.395,-20.5527 906.205,-16.5502 896.04,-13.5617 896.395,-20.5527"/>
</g>
<!-- &#45;15&#45;&gt;1 -->
<g id="edge55" class="edge"><title>&#45;15&#45;&gt;1</title>
<path fill="none" stroke="green" stroke-width="0.274841" d="M506.072,-77.786C510.255,-73.393 516.005,-68.3397 522.276,-65.6985 619.017,-24.9519 889.29,-44.0538 993.276,-29.6985 1008.12,-27.6491 1024.58,-24.3843 1037.7,-21.5392"/>
<polygon fill="green" stroke="green" stroke-width="0.274841" points="1038.83,-24.8743 1047.83,-19.2839 1037.3,-18.0417 1038.83,-24.8743"/>
</g>
<!-- &#45;15&#45;&gt;2 -->
<g id="edge56" class="edge"><title>&#45;15&#45;&gt;2</title>
<path fill="none" stroke="green" stroke-width="0.563577" stroke-dasharray="1,5" d="M506.06,-77.7565C510.238,-73.3537 515.988,-68.3004 522.276,-65.6985 638.32,-17.676 966.06,-66.0389 1086.28,-29.6985 1087.33,-29.3783 1088.4,-29.0039 1089.45,-28.5876"/>
<polygon fill="green" stroke="green" stroke-width="0.563577" points="1091.18,-31.6389 1098.56,-24.0414 1088.05,-25.3756 1091.18,-31.6389"/>
</g>
<!-- &#45;15&#45;&gt;3 -->
<g id="edge57" class="edge"><title>&#45;15&#45;&gt;3</title>
<path fill="none" stroke="red" stroke-width="0.216995" d="M506.081,-77.8063C510.266,-73.42 516.016,-68.3667 522.276,-65.6985 695.844,8.28914 765.255,-86.2026 945.276,-29.6985 946.331,-29.3671 947.391,-28.9835 948.446,-28.5598"/>
<polygon fill="red" stroke="red" stroke-width="0.216995" points="950.182,-31.6042 957.546,-23.9863 947.039,-25.3496 950.182,-31.6042"/>
</g>
<!-- &#45;16 -->
<g id="node16" class="node"><title>&#45;16</title>
<polygon fill="lightgray" stroke="black" points="560.776,-95.9117 531.776,-95.9117 531.776,-77.9117 560.776,-77.9117 560.776,-95.9117"/>
<text text-anchor="middle" x="546.276" y="-84.7117" font-family="Times New Roman,serif" font-size="9.00">&#45;16</text>
</g>
<!-- &#45;16&#45;&gt;0 -->
<g id="edge58" class="edge"><title>&#45;16&#45;&gt;0</title>
<path fill="none" stroke="green" stroke-width="0.138287" d="M553.537,-77.5273C557.703,-73.2799 563.286,-68.4514 569.276,-65.6985 627.965,-38.7228 825.982,-22.5353 896.27,-17.5274"/>
<polygon fill="green" stroke="green" stroke-width="0.138287" points="896.681,-21.0073 906.413,-16.8197 896.194,-14.0243 896.681,-21.0073"/>
</g>
<!-- &#45;16&#45;&gt;1 -->
<g id="edge59" class="edge"><title>&#45;16&#45;&gt;1</title>
<path fill="none" stroke="green" stroke-width="0.625461" d="M553.081,-77.8058C557.266,-73.4194 563.016,-68.3661 569.276,-65.6985 656.267,-28.6265 899.658,-43.0242 993.276,-29.6985 1008.11,-27.5866 1024.57,-24.3192 1037.69,-21.4883"/>
<polygon fill="green" stroke="green" stroke-width="0.625461" points="1038.81,-24.8254 1047.82,-19.248 1037.3,-17.9906 1038.81,-24.8254"/>
</g>
<!-- &#45;16&#45;&gt;2 -->
<g id="edge60" class="edge"><title>&#45;16&#45;&gt;2</title>
<path fill="none" stroke="red" stroke-width="0.269415" d="M553.066,-77.7701C557.246,-73.3718 562.996,-68.3185 569.276,-65.6985 781.85,22.9911 865.989,-96.9848 1086.28,-29.6985 1087.33,-29.3753 1088.4,-28.9983 1089.45,-28.58"/>
<polygon fill="red" stroke="red" stroke-width="0.269415" points="1091.18,-31.6294 1098.56,-24.0264 1088.05,-25.3685 1091.18,-31.6294"/>
</g>
<!-- &#45;16&#45;&gt;3 -->
<g id="edge61" class="edge"><title>&#45;16&#45;&gt;3</title>
<path fill="none" stroke="red" stroke-width="0.185741" d="M553.092,-77.831C557.28,-73.453 563.03,-68.3997 569.276,-65.6985 723.356,0.944919 785.372,-80.8167 945.276,-29.6985 946.33,-29.3616 947.388,-28.9734 948.441,-28.5459"/>
<polygon fill="red" stroke="red" stroke-width="0.185741" points="950.184,-31.5869 957.537,-23.9589 947.032,-25.3367 950.184,-31.5869"/>
</g>
<!-- &#45;17 -->
<g id="node17" class="node"><title>&#45;17</title>
<polygon fill="lightgray" stroke="black" points="607.776,-95.9117 578.776,-95.9117 578.776,-77.9117 607.776,-77.9117 607.776,-95.9117"/>
<text text-anchor="middle" x="593.276" y="-84.7117" font-family="Times New Roman,serif" font-size="9.00">&#45;17</text>
</g>
<!-- &#45;17&#45;&gt;0 -->
<g id="edge62" class="edge"><title>&#45;17&#45;&gt;0</title>
<path fill="none" stroke="red" stroke-width="0.190349" d="M600.561,-77.5781C604.733,-73.3456 610.316,-68.5151 616.276,-65.6985 712.26,-20.3347 842.077,-15.3159 896.085,-15.3757"/>
<polygon fill="red" stroke="red" stroke-width="0.190349" points="896.107,-18.8759 906.132,-15.4489 896.158,-11.8761 896.107,-18.8759"/>
</g>
<!-- &#45;17&#45;&gt;1 -->
<g id="edge63" class="edge"><title>&#45;17&#45;&gt;1</title>
<path fill="none" stroke="green" stroke-width="0.260117" d="M600.091,-77.8304C604.28,-73.4522 610.03,-68.3989 616.276,-65.6985 770.771,1.10111 826.764,-54.2925 993.276,-29.6985 1008.1,-27.5087 1024.56,-24.2381 1037.68,-21.425"/>
<polygon fill="green" stroke="green" stroke-width="0.260117" points="1038.8,-24.7643 1047.81,-19.2033 1037.3,-17.9268 1038.8,-24.7643"/>
</g>
<!-- &#45;17&#45;&gt;2 -->
<g id="edge64" class="edge"><title>&#45;17&#45;&gt;2</title>
<path fill="none" stroke="green" stroke-width="0.246412" d="M600.073,-77.7864C604.255,-73.3935 610.005,-68.3402 616.276,-65.6985 809.343,15.6383 886.126,-91.5923 1086.28,-29.6985 1087.33,-29.3716 1088.39,-28.9917 1089.45,-28.5709"/>
<polygon fill="green" stroke="green" stroke-width="0.246412" points="1091.18,-31.618 1098.55,-24.0083 1088.04,-25.36 1091.18,-31.618"/>
</g>
<!-- &#45;17&#45;&gt;3 -->
<g id="edge65" class="edge"><title>&#45;17&#45;&gt;3</title>
<path fill="none" stroke="green" stroke-width="0.419467" d="M600.106,-77.8627C604.299,-73.4952 610.049,-68.4419 616.276,-65.6985 750.885,-6.39215 805.472,-75.4362 945.276,-29.6985 946.156,-29.4105 947.039,-29.0876 947.921,-28.7365"/>
<polygon fill="green" stroke="green" stroke-width="0.419467" points="949.631,-31.7949 957.032,-24.2134 946.519,-25.525 949.631,-31.7949"/>
</g>
<!-- &#45;18 -->
<g id="node18" class="node"><title>&#45;18</title>
<polygon fill="lightgray" stroke="black" points="654.776,-95.9117 625.776,-95.9117 625.776,-77.9117 654.776,-77.9117 654.776,-95.9117"/>
<text text-anchor="middle" x="640.276" y="-84.7117" font-family="Times New Roman,serif" font-size="9.00">&#45;18</text>
</g>
<!-- &#45;18&#45;&gt;0 -->
<g id="edge66" class="edge"><title>&#45;18&#45;&gt;0</title>
<path fill="none" stroke="red" stroke-width="0.35005" d="M647.594,-77.6464C651.776,-73.4339 657.357,-68.6008 663.276,-65.6985 742.316,-26.938 848.791,-18.2877 896.431,-16.3778"/>
<polygon fill="red" stroke="red" stroke-width="0.35005" points="896.574,-19.8751 906.452,-16.0431 896.34,-12.879 896.574,-19.8751"/>
</g>
<!-- &#45;18&#45;&gt;1 -->
<g id="edge67" class="edge"><title>&#45;18&#45;&gt;1</title>
<path fill="none" stroke="green" stroke-width="0.80729" d="M647.105,-77.8619C651.298,-73.4942 657.048,-68.4409 663.276,-65.6985 798.299,-6.23614 847.471,-52.2378 993.276,-29.6985 1008.09,-27.409 1024.54,-24.1342 1037.67,-21.3438"/>
<polygon fill="green" stroke="green" stroke-width="0.80729" points="1038.77,-24.686 1047.8,-19.1461 1037.29,-17.8451 1038.77,-24.686"/>
</g>
<!-- &#45;18&#45;&gt;2 -->
<g id="edge68" class="edge"><title>&#45;18&#45;&gt;2</title>
<path fill="none" stroke="red" stroke-width="0.368045" d="M647.081,-77.8063C651.266,-73.42 657.016,-68.3667 663.276,-65.6985 836.844,8.28914 906.255,-86.2026 1086.28,-29.6985 1087.33,-29.3671 1088.39,-28.9835 1089.45,-28.5598"/>
<polygon fill="red" stroke="red" stroke-width="0.368045" points="1091.18,-31.6042 1098.55,-23.9863 1088.04,-25.3496 1091.18,-31.6042"/>
</g>
<!-- &#45;18&#45;&gt;3 -->
<g id="edge69" class="edge"><title>&#45;18&#45;&gt;3</title>
<path fill="none" stroke="green" stroke-width="0.222839" d="M647.124,-77.9046C651.324,-73.5511 657.074,-68.4978 663.276,-65.6985 778.439,-13.7184 825.547,-70.0641 945.276,-29.6985 946.153,-29.4026 947.034,-29.073 947.914,-28.7163"/>
<polygon fill="green" stroke="green" stroke-width="0.222839" points="949.636,-31.7682 957.017,-24.1668 946.507,-25.5067 949.636,-31.7682"/>
</g>
<!-- &#45;19 -->
<g id="node19" class="node"><title>&#45;19</title>
<polygon fill="lightgray" stroke="black" points="701.776,-95.9117 672.776,-95.9117 672.776,-77.9117 701.776,-77.9117 701.776,-95.9117"/>
<text text-anchor="middle" x="687.276" y="-84.7117" font-family="Times New Roman,serif" font-size="9.00">&#45;19</text>
</g>
<!-- &#45;19&#45;&gt;0 -->
<g id="edge70" class="edge"><title>&#45;19&#45;&gt;0</title>
<path fill="none" stroke="green" stroke-width="0.114342" d="M694.643,-77.743C698.839,-73.5588 704.418,-68.7219 710.276,-65.6985 772.318,-33.674 855.23,-21.8864 896.195,-17.8226"/>
<polygon fill="green" stroke="green" stroke-width="0.114342" points="896.718,-21.2894 906.356,-16.89 896.078,-14.3187 896.718,-21.2894"/>
</g>
<!-- &#45;19&#45;&gt;1 -->
<g id="edge71" class="edge"><title>&#45;19&#45;&gt;1</title>
<path fill="none" stroke="red" stroke-width="0.356085" stroke-dasharray="1,5" d="M694.124,-77.9035C698.323,-73.5497 704.073,-68.4964 710.276,-65.6985 825.852,-13.5627 868.151,-50.1872 993.276,-29.6985 1008.06,-27.2768 1024.52,-23.9964 1037.65,-21.2362"/>
<polygon fill="red" stroke="red" stroke-width="0.356085" points="1038.74,-24.5822 1047.79,-19.0701 1037.28,-17.7367 1038.74,-24.5822"/>
</g>
<!-- &#45;19&#45;&gt;2 -->
<g id="edge72" class="edge"><title>&#45;19&#45;&gt;2</title>
<path fill="none" stroke="green" stroke-width="0.114437" d="M694.092,-77.831C698.28,-73.453 704.03,-68.3997 710.276,-65.6985 864.356,0.944919 926.372,-80.8167 1086.28,-29.6985 1087.33,-29.3616 1088.39,-28.9734 1089.44,-28.5459"/>
<polygon fill="green" stroke="green" stroke-width="0.114437" points="1091.18,-31.5869 1098.54,-23.9589 1088.03,-25.3367 1091.18,-31.5869"/>
</g>
<!-- &#45;19&#45;&gt;3 -->
<g id="edge73" class="edge"><title>&#45;19&#45;&gt;3</title>
<path fill="none" stroke="green" stroke-width="0.254129" d="M694.55,-77.5543C698.719,-73.3148 704.302,-68.4853 710.276,-65.6985 806.031,-21.027 845.58,-64.7057 945.276,-29.6985 946.149,-29.3917 947.027,-29.0527 947.904,-28.6881"/>
<polygon fill="green" stroke="green" stroke-width="0.254129" points="949.643,-31.7313 956.994,-24.102 946.49,-25.4816 949.643,-31.7313"/>
</g>
<!-- &#45;20 -->
<g id="node20" class="node"><title>&#45;20</title>
<polygon fill="lightgray" stroke="black" points="748.776,-95.9117 719.776,-95.9117 719.776,-77.9117 748.776,-77.9117 748.776,-95.9117"/>
<text text-anchor="middle" x="734.276" y="-84.7117" font-family="Times New Roman,serif" font-size="9.00">&#45;20</text>
</g>
<!-- &#45;20&#45;&gt;0 -->
<g id="edge74" class="edge"><title>&#45;20&#45;&gt;0</title>
<path fill="none" stroke="green" stroke-width="0.111012" d="M741.721,-77.8892C745.94,-73.7478 751.516,-68.9052 757.276,-65.6985 802.826,-40.3363 862.84,-26.3411 896.187,-20.0329"/>
<polygon fill="green" stroke="green" stroke-width="0.111012" points="897.197,-23.4071 906.414,-18.183 895.951,-16.5189 897.197,-23.4071"/>
</g>
<!-- &#45;20&#45;&gt;1 -->
<g id="edge75" class="edge"><title>&#45;20&#45;&gt;1</title>
<path fill="none" stroke="red" stroke-width="0.147587" d="M741.549,-77.5528C745.718,-73.3128 751.301,-68.4834 757.276,-65.6985 853.443,-20.8718 888.789,-48.1434 993.276,-29.6985 1008.03,-27.0933 1024.49,-23.8052 1037.63,-21.0868"/>
<polygon fill="red" stroke="red" stroke-width="0.147587" points="1038.7,-24.4378 1047.77,-18.9647 1037.27,-17.5861 1038.7,-24.4378"/>
</g>
<!-- &#45;20&#45;&gt;2 -->
<g id="edge76" class="edge"><title>&#45;20&#45;&gt;2</title>
<path fill="none" stroke="green" stroke-width="0.138354" d="M741.106,-77.8627C745.299,-73.4952 751.049,-68.4419 757.276,-65.6985 891.885,-6.39215 946.472,-75.4362 1086.28,-29.6985 1087.16,-29.4105 1088.04,-29.0876 1088.92,-28.7365"/>
<polygon fill="green" stroke="green" stroke-width="0.138354" points="1090.63,-31.7949 1098.03,-24.2134 1087.52,-25.525 1090.63,-31.7949"/>
</g>
<!-- &#45;20&#45;&gt;3 -->
<g id="edge77" class="edge"><title>&#45;20&#45;&gt;3</title>
<path fill="none" stroke="red" stroke-width="0.33261" d="M741.592,-77.6425C745.774,-73.4288 751.355,-68.5959 757.276,-65.6985 833.69,-28.3043 865.545,-59.3719 945.276,-29.6985 946.144,-29.3755 947.017,-29.0227 947.889,-28.6466"/>
<polygon fill="red" stroke="red" stroke-width="0.33261" points="949.651,-31.6767 956.96,-24.0064 946.463,-25.4448 949.651,-31.6767"/>
</g>
<!-- &#45;21 -->
<g id="node21" class="node"><title>&#45;21</title>
<polygon fill="lightgray" stroke="black" points="795.776,-95.9117 766.776,-95.9117 766.776,-77.9117 795.776,-77.9117 795.776,-95.9117"/>
<text text-anchor="middle" x="781.276" y="-84.7117" font-family="Times New Roman,serif" font-size="9.00">&#45;21</text>
</g>
<!-- &#45;21&#45;&gt;0 -->
<g id="edge78" class="edge"><title>&#45;21&#45;&gt;0</title>
<path fill="none" stroke="green" stroke-width="0.216972" d="M789.282,-77.7364C793.486,-73.751 798.877,-69.0972 804.276,-65.6985 834.521,-46.6564 873.298,-31.7644 897.723,-23.3878"/>
<polygon fill="green" stroke="green" stroke-width="0.216972" points="898.871,-26.6943 907.245,-20.2036 896.652,-20.0556 898.871,-26.6943"/>
</g>
<!-- &#45;21&#45;&gt;1 -->
<g id="edge79" class="edge"><title>&#45;21&#45;&gt;1</title>
<path fill="none" stroke="red" stroke-width="0.262403" d="M788.591,-77.6402C792.772,-73.4259 798.353,-68.593 804.276,-65.6985 881.101,-28.1499 909.356,-46.1124 993.276,-29.6985 1007.98,-26.8218 1024.44,-23.5225 1037.59,-20.8659"/>
<polygon fill="red" stroke="red" stroke-width="0.262403" points="1038.64,-24.2239 1047.75,-18.8088 1037.25,-17.3632 1038.64,-24.2239"/>
</g>
<!-- &#45;21&#45;&gt;2 -->
<g id="edge80" class="edge"><title>&#45;21&#45;&gt;2</title>
<path fill="none" stroke="green" stroke-width="0.125765" d="M788.124,-77.9046C792.324,-73.5511 798.074,-68.4978 804.276,-65.6985 919.439,-13.7184 966.547,-70.0641 1086.28,-29.6985 1087.15,-29.4026 1088.03,-29.073 1088.91,-28.7163"/>
<polygon fill="green" stroke="green" stroke-width="0.125765" points="1090.64,-31.7682 1098.02,-24.1668 1087.51,-25.5067 1090.64,-31.7682"/>
</g>
<!-- &#45;21&#45;&gt;3 -->
<g id="edge81" class="edge"><title>&#45;21&#45;&gt;3</title>
<path fill="none" stroke="green" stroke-width="0.308432" d="M788.664,-77.7849C792.867,-73.613 798.446,-68.7745 804.276,-65.6985 861.479,-35.5176 885.374,-54.089 945.276,-29.6985 946.133,-29.3493 946.998,-28.9742 947.863,-28.5793"/>
<polygon fill="green" stroke="green" stroke-width="0.308432" points="949.661,-31.5885 956.899,-23.8515 946.416,-25.3861 949.661,-31.5885"/>
</g>
<!-- &#45;22 -->
<g id="node22" class="node"><title>&#45;22</title>
<polygon fill="lightgray" stroke="black" points="107.776,-95.9117 78.7756,-95.9117 78.7756,-77.9117 107.776,-77.9117 107.776,-95.9117"/>
<text text-anchor="middle" x="93.2756" y="-84.7117" font-family="Times New Roman,serif" font-size="9.00">&#45;22</text>
</g>
<!-- &#45;22&#45;&gt;0 -->
<g id="edge82" class="edge"><title>&#45;22&#45;&gt;0</title>
<path fill="none" stroke="green" stroke-width="0.178726" d="M100.421,-77.7494C104.803,-73.3443 110.803,-68.291 117.276,-65.6985 191.073,-36.1424 768.021,-19.7644 896.131,-16.4711"/>
<polygon fill="green" stroke="green" stroke-width="0.178726" points="896.258,-19.9691 906.166,-16.2165 896.08,-12.9714 896.258,-19.9691"/>
</g>
<!-- &#45;22&#45;&gt;3 -->
<g id="edge83" class="edge"><title>&#45;22&#45;&gt;3</title>
<path fill="none" stroke="green" stroke-width="0.404065" d="M100.403,-77.7045C104.779,-73.2844 110.779,-68.2311 117.276,-65.6985 288.872,1.1942 768.449,-81.1998 945.276,-29.6985 946.338,-29.3891 947.403,-29.0235 948.462,-28.6143"/>
<polygon fill="green" stroke="green" stroke-width="0.404065" points="950.174,-31.6723 957.578,-24.0944 947.064,-25.4008 950.174,-31.6723"/>
</g>
<!-- &#45;23 -->
<g id="node23" class="node"><title>&#45;23</title>
<polygon fill="lightgray" stroke="black" points="842.776,-95.9117 813.776,-95.9117 813.776,-77.9117 842.776,-77.9117 842.776,-95.9117"/>
<text text-anchor="middle" x="828.276" y="-84.7117" font-family="Times New Roman,serif" font-size="9.00">&#45;23</text>
</g>
<!-- &#45;23&#45;&gt;0 -->
<g id="edge84" class="edge"><title>&#45;23&#45;&gt;0</title>
<path fill="none" stroke="green" stroke-width="0.391294" d="M837.051,-77.8233C841.266,-74.0365 846.442,-69.5274 851.276,-65.6985 867.393,-52.932 886.443,-39.4644 900.598,-29.7503"/>
<polygon fill="green" stroke="green" stroke-width="0.391294" points="902.816,-32.4745 909.113,-23.9538 898.877,-26.688 902.816,-32.4745"/>
</g>
<!-- &#45;23&#45;&gt;1 -->
<g id="edge85" class="edge"><title>&#45;23&#45;&gt;1</title>
<path fill="none" stroke="green" stroke-width="0.324333" d="M835.643,-77.743C839.839,-73.5588 845.418,-68.7219 851.276,-65.6985 867.904,-57.1156 986.014,-31.7884 1037.91,-20.9089"/>
<polygon fill="green" stroke="green" stroke-width="0.324333" points="1038.85,-24.2889 1047.92,-18.8179 1037.42,-17.4368 1038.85,-24.2889"/>
</g>
<!-- &#45;23&#45;&gt;2 -->
<g id="edge86" class="edge"><title>&#45;23&#45;&gt;2</title>
<path fill="none" stroke="green" stroke-width="0.124069" d="M835.55,-77.5543C839.719,-73.3148 845.302,-68.4853 851.276,-65.6985 947.031,-21.027 986.58,-64.7057 1086.28,-29.6985 1087.15,-29.3917 1088.03,-29.0527 1088.9,-28.6881"/>
<polygon fill="green" stroke="green" stroke-width="0.124069" points="1090.64,-31.7313 1097.99,-24.102 1087.49,-25.4816 1090.64,-31.7313"/>
</g>
<!-- &#45;23&#45;&gt;3 -->
<g id="edge87" class="edge"><title>&#45;23&#45;&gt;3</title>
<path fill="none" stroke="green" stroke-width="0.167063" d="M836.229,-77.6513C840.42,-73.6442 845.815,-68.9967 851.276,-65.6985 889.569,-42.5684 904.887,-48.9381 945.276,-29.6985 946.112,-29.3002 946.958,-28.8836 947.807,-28.4535"/>
<polygon fill="green" stroke="green" stroke-width="0.167063" points="949.67,-31.4244 956.772,-23.5619 946.317,-25.2797 949.67,-31.4244"/>
</g>
<!-- &#45;24 -->
<g id="node24" class="node"><title>&#45;24</title>
<polygon fill="lightgray" stroke="black" points="889.776,-95.9117 860.776,-95.9117 860.776,-77.9117 889.776,-77.9117 889.776,-95.9117"/>
<text text-anchor="middle" x="875.276" y="-84.7117" font-family="Times New Roman,serif" font-size="9.00">&#45;24</text>
</g>
<!-- &#45;24&#45;&gt;0 -->
<g id="edge88" class="edge"><title>&#45;24&#45;&gt;0</title>
<path fill="none" stroke="red" stroke-width="0.18471" stroke-dasharray="1,5" d="M880.552,-77.8746C887.173,-67.7908 898.765,-50.1351 907.893,-36.233"/>
<polygon fill="red" stroke="red" stroke-width="0.18471" points="910.895,-38.037 913.458,-27.7567 905.044,-34.1951 910.895,-38.037"/>
</g>
<!-- &#45;24&#45;&gt;1 -->
<g id="edge89" class="edge"><title>&#45;24&#45;&gt;1</title>
<path fill="none" stroke="red" stroke-width="0.15622" d="M882.721,-77.8892C886.94,-73.7478 892.516,-68.9052 898.276,-65.6985 943.826,-40.3363 1003.84,-26.3411 1037.19,-20.0329"/>
<polygon fill="red" stroke="red" stroke-width="0.15622" points="1038.2,-23.4071 1047.41,-18.183 1036.95,-16.5189 1038.2,-23.4071"/>
</g>
<!-- &#45;24&#45;&gt;2 -->
<g id="edge90" class="edge"><title>&#45;24&#45;&gt;2</title>
<path fill="none" stroke="green" stroke-width="0.352309" d="M882.592,-77.6425C886.774,-73.4288 892.355,-68.5959 898.276,-65.6985 974.69,-28.3043 1006.54,-59.3719 1086.28,-29.6985 1087.14,-29.3755 1088.02,-29.0227 1088.89,-28.6466"/>
<polygon fill="green" stroke="green" stroke-width="0.352309" points="1090.65,-31.6767 1097.96,-24.0064 1087.46,-25.4448 1090.65,-31.6767"/>
</g>
<!-- &#45;24&#45;&gt;3 -->
<g id="edge91" class="edge"><title>&#45;24&#45;&gt;3</title>
<path fill="none" stroke="red" stroke-width="0.102529" d="M884.04,-77.8088C888.252,-74.0188 893.429,-69.5112 898.276,-65.6985 914.686,-52.7888 934.144,-39.2424 948.537,-29.5348"/>
<polygon fill="red" stroke="red" stroke-width="0.102529" points="950.813,-32.2232 957.18,-23.7551 946.922,-26.4042 950.813,-32.2232"/>
</g>
<!-- &#45;25 -->
<g id="node25" class="node"><title>&#45;25</title>
<polygon fill="lightgray" stroke="black" points="936.776,-95.9117 907.776,-95.9117 907.776,-77.9117 936.776,-77.9117 936.776,-95.9117"/>
<text text-anchor="middle" x="922.276" y="-84.7117" font-family="Times New Roman,serif" font-size="9.00">&#45;25</text>
</g>
<!-- &#45;25&#45;&gt;0 -->
<g id="edge92" class="edge"><title>&#45;25&#45;&gt;0</title>
<path fill="none" stroke="green" stroke-width="0.210048" d="M922.161,-77.8746C922.03,-68.7202 921.811,-53.3256 921.623,-40.1641"/>
<polygon fill="green" stroke="green" stroke-width="0.210048" points="925.117,-39.7687 921.475,-29.8197 918.118,-39.8686 925.117,-39.7687"/>
</g>
<!-- &#45;25&#45;&gt;1 -->
<g id="edge93" class="edge"><title>&#45;25&#45;&gt;1</title>
<path fill="none" stroke="red" stroke-width="0.330285" d="M930.282,-77.7364C934.486,-73.751 939.877,-69.0972 945.276,-65.6985 975.521,-46.6564 1014.3,-31.7644 1038.72,-23.3878"/>
<polygon fill="red" stroke="red" stroke-width="0.330285" points="1039.87,-26.6943 1048.25,-20.2036 1037.65,-20.0556 1039.87,-26.6943"/>
</g>
<!-- &#45;25&#45;&gt;2 -->
<g id="edge94" class="edge"><title>&#45;25&#45;&gt;2</title>
<path fill="none" stroke="red" stroke-width="0.104727" d="M929.664,-77.7849C933.867,-73.613 939.446,-68.7745 945.276,-65.6985 1002.48,-35.5176 1026.37,-54.089 1086.28,-29.6985 1087.13,-29.3493 1088,-28.9742 1088.86,-28.5793"/>
<polygon fill="red" stroke="red" stroke-width="0.104727" points="1090.66,-31.5885 1097.9,-23.8515 1087.42,-25.3861 1090.66,-31.5885"/>
</g>
<!-- &#45;25&#45;&gt;3 -->
<g id="edge95" class="edge"><title>&#45;25&#45;&gt;3</title>
<path fill="none" stroke="green" stroke-width="0.202423" d="M927.667,-77.8746C934.471,-67.7318 946.414,-49.9283 955.765,-35.9895"/>
<polygon fill="green" stroke="green" stroke-width="0.202423" points="958.791,-37.7615 961.455,-27.5071 952.978,-33.8618 958.791,-37.7615"/>
</g>
<!-- &#45;26 -->
<g id="node26" class="node"><title>&#45;26</title>
<polygon fill="lightgray" stroke="black" points="983.776,-95.9117 954.776,-95.9117 954.776,-77.9117 983.776,-77.9117 983.776,-95.9117"/>
<text text-anchor="middle" x="969.276" y="-84.7117" font-family="Times New Roman,serif" font-size="9.00">&#45;26</text>
</g>
<!-- &#45;26&#45;&gt;0 -->
<g id="edge96" class="edge"><title>&#45;26&#45;&gt;0</title>
<path fill="none" stroke="green" stroke-width="0.421907" d="M963.769,-77.8746C956.821,-67.7318 944.623,-49.9283 935.074,-35.9895"/>
<polygon fill="green" stroke="green" stroke-width="0.421907" points="937.802,-33.7786 929.262,-27.5071 932.027,-37.7349 937.802,-33.7786"/>
</g>
<!-- &#45;26&#45;&gt;1 -->
<g id="edge97" class="edge"><title>&#45;26&#45;&gt;1</title>
<path fill="none" stroke="red" stroke-width="0.104602" d="M978.051,-77.8233C982.266,-74.0365 987.442,-69.5274 992.276,-65.6985 1008.39,-52.932 1027.44,-39.4644 1041.6,-29.7503"/>
<polygon fill="red" stroke="red" stroke-width="0.104602" points="1043.82,-32.4745 1050.11,-23.9538 1039.88,-26.688 1043.82,-32.4745"/>
</g>
<!-- &#45;26&#45;&gt;2 -->
<g id="edge98" class="edge"><title>&#45;26&#45;&gt;2</title>
<path fill="none" stroke="red" stroke-width="0.419163" d="M977.229,-77.6513C981.42,-73.6442 986.815,-68.9967 992.276,-65.6985 1030.57,-42.5684 1045.89,-48.9381 1086.28,-29.6985 1087.11,-29.3002 1087.96,-28.8836 1088.81,-28.4535"/>
<polygon fill="red" stroke="red" stroke-width="0.419163" points="1090.67,-31.4244 1097.77,-23.5619 1087.32,-25.2797 1090.67,-31.4244"/>
</g>
<!-- &#45;26&#45;&gt;3 -->
<g id="edge99" class="edge"><title>&#45;26&#45;&gt;3</title>
<path fill="none" stroke="red" stroke-width="0.275435" stroke-dasharray="1,5" d="M969.276,-77.8746C969.276,-68.7202 969.276,-53.3256 969.276,-40.1641"/>
<polygon fill="red" stroke="red" stroke-width="0.275435" points="972.776,-39.8196 969.276,-29.8197 965.776,-39.8197 972.776,-39.8196"/>
</g>
<!-- &#45;27 -->
<g id="node27" class="node"><title>&#45;27</title>
<polygon fill="lightgray" stroke="black" points="192.776,-162.125 163.776,-162.125 163.776,-144.125 192.776,-144.125 192.776,-162.125"/>
<text text-anchor="middle" x="178.276" y="-150.925" font-family="Times New Roman,serif" font-size="9.00">&#45;27</text>
</g>
<!-- &#45;27&#45;&gt;0 -->
<g id="edge100" class="edge"><title>&#45;27&#45;&gt;0</title>
<path fill="none" stroke="green" stroke-width="0.256711" d="M163.639,-150.573C126.167,-146.267 28.3738,-132.832 9.27565,-108.125 -2.25629,-93.2061 -3.68873,-79.3908 9.27565,-65.6985 40.6226,-32.5914 751.928,-18.7339 895.974,-16.2623"/>
<polygon fill="green" stroke="green" stroke-width="0.256711" points="896.464,-19.7546 906.404,-16.0864 896.346,-12.7556 896.464,-19.7546"/>
</g>
<!-- &#45;27&#45;&gt;1 -->
<g id="edge101" class="edge"><title>&#45;27&#45;&gt;1</title>
<path fill="none" stroke="red" stroke-width="0.935276" stroke-dasharray="1,5" d="M193.048,-152.011C353.887,-150.742 1774.55,-138.67 1804.28,-108.125 1817.43,-94.6124 1817.27,-79.3616 1804.28,-65.6985 1749.23,-7.81928 1162.89,-52.2898 1086.28,-29.6985 1085.21,-29.3856 1084.15,-29.0171 1083.09,-28.6055"/>
<polygon fill="red" stroke="red" stroke-width="0.935276" points="1084.49,-25.3925 1073.98,-24.0771 1081.38,-31.6613 1084.49,-25.3925"/>
</g>
<!-- &#45;27&#45;&gt;2 -->
<g id="edge102" class="edge"><title>&#45;27&#45;&gt;2</title>
<path fill="none" stroke="red" stroke-width="0.379591" d="M192.933,-152.043C360.283,-151.072 1905,-141.219 1937.28,-108.125 1950.44,-94.6259 1950.2,-79.4271 1937.28,-65.6985 1909.07,-35.7454 1270.59,-19.5124 1135.31,-16.4029"/>
<polygon fill="red" stroke="red" stroke-width="0.379591" points="1135.2,-12.8995 1125.12,-16.1717 1135.04,-19.8977 1135.2,-12.8995"/>
</g>
<!-- &#45;27&#45;&gt;3 -->
<g id="edge103" class="edge"><title>&#45;27&#45;&gt;3</title>
<path fill="none" stroke="green" stroke-width="0.179746" d="M177.208,-144.112C175.393,-126.706 173.917,-85.4227 197.276,-65.6985 260.849,-12.0157 865.442,-53.1514 945.276,-29.6985 946.337,-29.3866 947.402,-29.019 948.46,-28.6082"/>
<polygon fill="green" stroke="green" stroke-width="0.179746" points="950.175,-31.6646 957.575,-24.0823 947.062,-25.395 950.175,-31.6646"/>
</g>
<!-- 420 -->
<g id="node45" class="node"><title>420</title>
<ellipse fill="white" stroke="black" cx="39.2756" cy="-86.9117" rx="21.4286" ry="21.4286"/>
<text text-anchor="middle" x="39.2756" y="-84.7117" font-family="Times New Roman,serif" font-size="9.00">420</text>
</g>
<!-- &#45;27&#45;&gt;420 -->
<g id="edge154" class="edge"><title>&#45;27&#45;&gt;420</title>
<path fill="none" stroke="green" stroke-width="0.3" d="M163.737,-147.35C142.425,-140.109 101.716,-125.357 69.2756,-108.125 67.7504,-107.315 66.2067,-106.445 64.666,-105.539"/>
<polygon fill="green" stroke="green" stroke-width="0.3" points="66.3524,-102.465 56.026,-100.095 62.6207,-108.387 66.3524,-102.465"/>
</g>
<!-- &#45;28 -->
<g id="node28" class="node"><title>&#45;28</title>
<polygon fill="lightgray" stroke="black" points="1030.78,-95.9117 1001.78,-95.9117 1001.78,-77.9117 1030.78,-77.9117 1030.78,-95.9117"/>
<text text-anchor="middle" x="1016.28" y="-84.7117" font-family="Times New Roman,serif" font-size="9.00">&#45;28</text>
</g>
<!-- &#45;28&#45;&gt;0 -->
<g id="edge104" class="edge"><title>&#45;28&#45;&gt;0</title>
<path fill="none" stroke="green" stroke-width="0.824675" d="M1007.09,-77.8464C1002.68,-74.0647 997.283,-69.5531 992.276,-65.6985 975.828,-53.0375 956.513,-39.5618 942.185,-29.8177"/>
<polygon fill="green" stroke="green" stroke-width="0.824675" points="943.815,-26.6954 933.569,-23.9994 939.898,-32.4965 943.815,-26.6954"/>
</g>
<!-- &#45;28&#45;&gt;1 -->
<g id="edge105" class="edge"><title>&#45;28&#45;&gt;1</title>
<path fill="none" stroke="green" stroke-width="0.346926" d="M1021.55,-77.8746C1028.17,-67.7908 1039.77,-50.1351 1048.89,-36.233"/>
<polygon fill="green" stroke="green" stroke-width="0.346926" points="1051.9,-38.037 1054.46,-27.7567 1046.04,-34.1951 1051.9,-38.037"/>
</g>
<!-- &#45;28&#45;&gt;2 -->
<g id="edge106" class="edge"><title>&#45;28&#45;&gt;2</title>
<path fill="none" stroke="green" stroke-width="0.152" d="M1025.04,-77.8088C1029.25,-74.0188 1034.43,-69.5112 1039.28,-65.6985 1055.69,-52.7888 1075.14,-39.2424 1089.54,-29.5348"/>
<polygon fill="green" stroke="green" stroke-width="0.152" points="1091.81,-32.2232 1098.18,-23.7551 1087.92,-26.4042 1091.81,-32.2232"/>
</g>
<!-- &#45;28&#45;&gt;3 -->
<g id="edge107" class="edge"><title>&#45;28&#45;&gt;3</title>
<path fill="none" stroke="red" stroke-width="0.175589" stroke-dasharray="1,5" d="M1010.88,-77.8746C1004.08,-67.7318 992.137,-49.9283 982.786,-35.9895"/>
<polygon fill="red" stroke="red" stroke-width="0.175589" points="985.574,-33.8618 977.096,-27.5071 979.76,-37.7615 985.574,-33.8618"/>
</g>
<!-- &#45;29 -->
<g id="node29" class="node"><title>&#45;29</title>
<polygon fill="lightgray" stroke="black" points="1927.78,-95.9117 1898.78,-95.9117 1898.78,-77.9117 1927.78,-77.9117 1927.78,-95.9117"/>
<text text-anchor="middle" x="1913.28" y="-84.7117" font-family="Times New Roman,serif" font-size="9.00">&#45;29</text>
</g>
<!-- &#45;29&#45;&gt;1 -->
<g id="edge108" class="edge"><title>&#45;29&#45;&gt;1</title>
<path fill="none" stroke="red" stroke-width="0.156241" d="M1906.51,-77.7116C1902.34,-73.2938 1896.59,-68.2405 1890.28,-65.6985 1724.38,1.11578 1257.95,-79.821 1086.28,-29.6985 1085.21,-29.3884 1084.15,-29.0222 1083.09,-28.6126"/>
<polygon fill="red" stroke="red" stroke-width="0.156241" points="1084.49,-25.3992 1073.97,-24.091 1081.38,-31.6701 1084.49,-25.3992"/>
</g>
<!-- &#45;29&#45;&gt;2 -->
<g id="edge109" class="edge"><title>&#45;29&#45;&gt;2</title>
<path fill="none" stroke="green" stroke-width="0.250461" stroke-dasharray="1,5" d="M1906.49,-77.7567C1902.31,-73.3539 1896.56,-68.3006 1890.28,-65.6985 1819.15,-36.263 1261.35,-19.8458 1135.46,-16.494"/>
<polygon fill="green" stroke="green" stroke-width="0.250461" points="1135.36,-12.9902 1125.27,-16.2263 1135.17,-19.9878 1135.36,-12.9902"/>
</g>
<!-- &#45;29&#45;&gt;3 -->
<g id="edge110" class="edge"><title>&#45;29&#45;&gt;3</title>
<path fill="none" stroke="green" stroke-width="0.10571" d="M1906.51,-77.7056C1902.34,-73.2859 1896.59,-68.2326 1890.28,-65.6985 1802.34,-30.4115 1132.34,-41.0559 1038.28,-29.6985 1023.3,-27.8907 1006.73,-24.6064 993.575,-21.6897"/>
<polygon fill="green" stroke="green" stroke-width="0.10571" points="993.972,-18.1901 983.443,-19.3667 992.408,-25.0131 993.972,-18.1901"/>
</g>
<!-- &#45;30 -->
<g id="node30" class="node"><title>&#45;30</title>
<polygon fill="lightgray" stroke="black" points="1077.78,-95.9117 1048.78,-95.9117 1048.78,-77.9117 1077.78,-77.9117 1077.78,-95.9117"/>
<text text-anchor="middle" x="1063.28" y="-84.7117" font-family="Times New Roman,serif" font-size="9.00">&#45;30</text>
</g>
<!-- &#45;30&#45;&gt;0 -->
<g id="edge111" class="edge"><title>&#45;30&#45;&gt;0</title>
<path fill="none" stroke="green" stroke-width="0.262735" d="M1054.92,-77.6705C1050.53,-73.6682 1044.91,-69.0193 1039.28,-65.6985 1000.74,-42.9725 985.664,-48.9381 945.276,-29.6985 944.44,-29.3002 943.594,-28.8836 942.744,-28.4535"/>
<polygon fill="green" stroke="green" stroke-width="0.262735" points="944.234,-25.2797 933.78,-23.5619 940.881,-31.4244 944.234,-25.2797"/>
</g>
<!-- &#45;30&#45;&gt;1 -->
<g id="edge112" class="edge"><title>&#45;30&#45;&gt;1</title>
<path fill="none" stroke="red" stroke-width="0.331761" d="M1063.16,-77.8746C1063.03,-68.7202 1062.81,-53.3256 1062.62,-40.1641"/>
<polygon fill="red" stroke="red" stroke-width="0.331761" points="1066.12,-39.7687 1062.48,-29.8197 1059.12,-39.8686 1066.12,-39.7687"/>
</g>
<!-- &#45;30&#45;&gt;2 -->
<g id="edge113" class="edge"><title>&#45;30&#45;&gt;2</title>
<path fill="none" stroke="green" stroke-width="0.180085" d="M1068.67,-77.8746C1075.47,-67.7318 1087.41,-49.9283 1096.76,-35.9895"/>
<polygon fill="green" stroke="green" stroke-width="0.180085" points="1099.79,-37.7615 1102.46,-27.5071 1093.98,-33.8618 1099.79,-37.7615"/>
</g>
<!-- &#45;30&#45;&gt;3 -->
<g id="edge114" class="edge"><title>&#45;30&#45;&gt;3</title>
<path fill="none" stroke="red" stroke-width="0.12367" d="M1054.07,-77.8614C1049.67,-74.083 1044.27,-69.5698 1039.28,-65.6985 1023.03,-53.1022 1003.98,-39.6216 989.868,-29.8591"/>
<polygon fill="red" stroke="red" stroke-width="0.12367" points="991.605,-26.806 981.381,-24.0274 987.641,-32.5753 991.605,-26.806"/>
</g>
<!-- &#45;31 -->
<g id="node31" class="node"><title>&#45;31</title>
<polygon fill="lightgray" stroke="black" points="1124.78,-95.9117 1095.78,-95.9117 1095.78,-77.9117 1124.78,-77.9117 1124.78,-95.9117"/>
<text text-anchor="middle" x="1110.28" y="-84.7117" font-family="Times New Roman,serif" font-size="9.00">&#45;31</text>
</g>
<!-- &#45;31&#45;&gt;0 -->
<g id="edge115" class="edge"><title>&#45;31&#45;&gt;0</title>
<path fill="none" stroke="red" stroke-width="0.236039" d="M1102.5,-77.7954C1098.1,-73.6265 1092.28,-68.7876 1086.28,-65.6985 1028.76,-36.121 1005.18,-54.089 945.276,-29.6985 944.418,-29.3493 943.554,-28.9742 942.688,-28.5793"/>
<polygon fill="red" stroke="red" stroke-width="0.236039" points="944.135,-25.3861 933.652,-23.8515 940.89,-31.5885 944.135,-25.3861"/>
</g>
<!-- &#45;31&#45;&gt;1 -->
<g id="edge116" class="edge"><title>&#45;31&#45;&gt;1</title>
<path fill="none" stroke="green" stroke-width="0.22158" d="M1104.77,-77.8746C1097.82,-67.7318 1085.62,-49.9283 1076.07,-35.9895"/>
<polygon fill="green" stroke="green" stroke-width="0.22158" points="1078.8,-33.7786 1070.26,-27.5071 1073.03,-37.7349 1078.8,-33.7786"/>
</g>
<!-- &#45;31&#45;&gt;2 -->
<g id="edge117" class="edge"><title>&#45;31&#45;&gt;2</title>
<path fill="none" stroke="green" stroke-width="0.328847" d="M1110.28,-77.8746C1110.28,-68.7202 1110.28,-53.3256 1110.28,-40.1641"/>
<polygon fill="green" stroke="green" stroke-width="0.328847" points="1113.78,-39.8196 1110.28,-29.8197 1106.78,-39.8197 1113.78,-39.8196"/>
</g>
<!-- &#45;31&#45;&gt;3 -->
<g id="edge118" class="edge"><title>&#45;31&#45;&gt;3</title>
<path fill="none" stroke="red" stroke-width="0.339051" d="M1101.87,-77.7582C1097.47,-73.7783 1091.84,-69.1229 1086.28,-65.6985 1055.83,-46.9756 1017.11,-31.9992 992.748,-23.5173"/>
<polygon fill="red" stroke="red" stroke-width="0.339051" points="993.848,-20.1946 983.254,-20.2878 991.594,-26.8217 993.848,-20.1946"/>
</g>
<!-- &#45;32 -->
<g id="node32" class="node"><title>&#45;32</title>
<polygon fill="lightgray" stroke="black" points="1171.78,-95.9117 1142.78,-95.9117 1142.78,-77.9117 1171.78,-77.9117 1171.78,-95.9117"/>
<text text-anchor="middle" x="1157.28" y="-84.7117" font-family="Times New Roman,serif" font-size="9.00">&#45;32</text>
</g>
<!-- &#45;32&#45;&gt;0 -->
<g id="edge119" class="edge"><title>&#45;32&#45;&gt;0</title>
<path fill="none" stroke="green" stroke-width="0.281681" d="M1149.96,-77.6402C1145.78,-73.4259 1140.2,-68.593 1134.28,-65.6985 1057.45,-28.1499 1025.43,-59.485 945.276,-29.6985 944.408,-29.3759 943.534,-29.0235 942.662,-28.6477"/>
<polygon fill="green" stroke="green" stroke-width="0.281681" points="944.088,-25.4458 933.591,-24.0089 940.9,-31.6781 944.088,-25.4458"/>
</g>
<!-- &#45;32&#45;&gt;1 -->
<g id="edge120" class="edge"><title>&#45;32&#45;&gt;1</title>
<path fill="none" stroke="red" stroke-width="0.220139" d="M1148.52,-77.7945C1144.31,-74.0014 1139.13,-69.4953 1134.28,-65.6985 1117.67,-52.7211 1097.93,-39.1804 1083.33,-29.4921"/>
<polygon fill="red" stroke="red" stroke-width="0.220139" points="1084.83,-26.2942 1074.56,-23.7266 1080.99,-32.1439 1084.83,-26.2942"/>
</g>
<!-- &#45;32&#45;&gt;2 -->
<g id="edge121" class="edge"><title>&#45;32&#45;&gt;2</title>
<path fill="none" stroke="green" stroke-width="0.331285" d="M1151.88,-77.8746C1145.08,-67.7318 1133.14,-49.9283 1123.79,-35.9895"/>
<polygon fill="green" stroke="green" stroke-width="0.331285" points="1126.57,-33.8618 1118.1,-27.5071 1120.76,-37.7615 1126.57,-33.8618"/>
</g>
<!-- &#45;32&#45;&gt;3 -->
<g id="edge122" class="edge"><title>&#45;32&#45;&gt;3</title>
<path fill="none" stroke="red" stroke-width="0.258803" d="M1149.83,-77.8853C1145.61,-73.7428 1140.04,-68.9003 1134.28,-65.6985 1088.21,-40.1028 1027.45,-26.1333 994.004,-19.9063"/>
<polygon fill="red" stroke="red" stroke-width="0.258803" points="994.228,-16.3912 983.769,-18.0857 993.002,-23.283 994.228,-16.3912"/>
</g>
<!-- &#45;33 -->
<g id="node33" class="node"><title>&#45;33</title>
<polygon fill="lightgray" stroke="black" points="1218.78,-95.9117 1189.78,-95.9117 1189.78,-77.9117 1218.78,-77.9117 1218.78,-95.9117"/>
<text text-anchor="middle" x="1204.28" y="-84.7117" font-family="Times New Roman,serif" font-size="9.00">&#45;33</text>
</g>
<!-- &#45;33&#45;&gt;0 -->
<g id="edge123" class="edge"><title>&#45;33&#45;&gt;0</title>
<path fill="none" stroke="green" stroke-width="0.49027" stroke-dasharray="1,5" d="M1197,-77.5528C1192.83,-73.3128 1187.25,-68.4834 1181.28,-65.6985 1085.11,-20.8718 1045.4,-64.8195 945.276,-29.6985 944.402,-29.392 943.524,-29.0532 942.647,-28.6888"/>
<polygon fill="green" stroke="green" stroke-width="0.49027" points="944.061,-25.4822 933.556,-24.1037 940.909,-31.7322 944.061,-25.4822"/>
</g>
<!-- &#45;33&#45;&gt;1 -->
<g id="edge124" class="edge"><title>&#45;33&#45;&gt;1</title>
<path fill="none" stroke="red" stroke-width="0.120946" d="M1196.33,-77.6432C1192.14,-73.634 1186.74,-68.987 1181.28,-65.6985 1142.59,-42.4217 1127.07,-49.0449 1086.28,-29.6985 1085.44,-29.3017 1084.59,-28.8863 1083.74,-28.4573"/>
<polygon fill="red" stroke="red" stroke-width="0.120946" points="1085.23,-25.2828 1074.78,-23.5706 1081.88,-31.4293 1085.23,-25.2828"/>
</g>
<!-- &#45;33&#45;&gt;2 -->
<g id="edge125" class="edge"><title>&#45;33&#45;&gt;2</title>
<path fill="none" stroke="red" stroke-width="0.194281" d="M1195.51,-77.8088C1191.3,-74.0188 1186.12,-69.5112 1181.28,-65.6985 1164.87,-52.7888 1145.41,-39.2424 1131.01,-29.5348"/>
<polygon fill="red" stroke="red" stroke-width="0.194281" points="1132.63,-26.4042 1122.37,-23.7551 1128.74,-32.2232 1132.63,-26.4042"/>
</g>
<!-- &#45;33&#45;&gt;3 -->
<g id="edge126" class="edge"><title>&#45;33&#45;&gt;3</title>
<path fill="none" stroke="red" stroke-width="0.437655" d="M1196.91,-77.7406C1192.71,-73.5556 1187.13,-68.7188 1181.28,-65.6985 1164.57,-57.0859 1045.9,-31.7751 993.753,-20.9045"/>
<polygon fill="red" stroke="red" stroke-width="0.437655" points="994.198,-17.4224 983.695,-18.8152 992.774,-24.2761 994.198,-17.4224"/>
</g>
<!-- &#45;34 -->
<g id="node34" class="node"><title>&#45;34</title>
<polygon fill="lightgray" stroke="black" points="1265.78,-95.9117 1236.78,-95.9117 1236.78,-77.9117 1265.78,-77.9117 1265.78,-95.9117"/>
<text text-anchor="middle" x="1251.28" y="-84.7117" font-family="Times New Roman,serif" font-size="9.00">&#45;34</text>
</g>
<!-- &#45;34&#45;&gt;0 -->
<g id="edge127" class="edge"><title>&#45;34&#45;&gt;0</title>
<path fill="none" stroke="red" stroke-width="0.27149" d="M1244.43,-77.9035C1240.23,-73.5497 1234.48,-68.4964 1228.28,-65.6985 1112.7,-13.5627 1065.43,-70.1783 945.276,-29.6985 944.398,-29.4028 943.517,-29.0733 942.637,-28.7168"/>
<polygon fill="red" stroke="red" stroke-width="0.27149" points="944.044,-25.5072 933.534,-24.1679 940.915,-31.7689 944.044,-25.5072"/>
</g>
<!-- &#45;34&#45;&gt;1 -->
<g id="edge128" class="edge"><title>&#45;34&#45;&gt;1</title>
<path fill="none" stroke="green" stroke-width="0.319922" stroke-dasharray="1,5" d="M1243.89,-77.781C1239.69,-73.6079 1234.11,-68.7695 1228.28,-65.6985 1170.67,-35.3652 1146.6,-54.2005 1086.28,-29.6985 1085.42,-29.35 1084.55,-28.9756 1083.69,-28.5812"/>
<polygon fill="green" stroke="green" stroke-width="0.319922" points="1085.13,-25.3877 1074.65,-23.8558 1081.89,-31.591 1085.13,-25.3877"/>
</g>
<!-- &#45;34&#45;&gt;2 -->
<g id="edge129" class="edge"><title>&#45;34&#45;&gt;2</title>
<path fill="none" stroke="green" stroke-width="0.103046" d="M1243.27,-77.7294C1239.07,-73.7422 1233.68,-69.0889 1228.28,-65.6985 1197.78,-46.5652 1158.67,-31.6974 1134.03,-23.3508"/>
<polygon fill="green" stroke="green" stroke-width="0.103046" points="1135.02,-19.9912 1124.43,-20.1796 1132.83,-26.6383 1135.02,-19.9912"/>
</g>
<!-- &#45;34&#45;&gt;3 -->
<g id="edge130" class="edge"><title>&#45;34&#45;&gt;3</title>
<path fill="none" stroke="red" stroke-width="0.258089" d="M1243.96,-77.6379C1239.78,-73.4229 1234.2,-68.5901 1228.28,-65.6985 1151.04,-27.9956 1122.63,-46.1554 1038.28,-29.6985 1023.57,-26.8289 1007.11,-23.5299 993.963,-20.8716"/>
<polygon fill="red" stroke="red" stroke-width="0.258089" points="994.301,-17.369 983.805,-18.8129 992.91,-24.2295 994.301,-17.369"/>
</g>
<!-- &#45;35 -->
<g id="node35" class="node"><title>&#45;35</title>
<polygon fill="lightgray" stroke="black" points="235.776,-95.9117 206.776,-95.9117 206.776,-77.9117 235.776,-77.9117 235.776,-95.9117"/>
<text text-anchor="middle" x="221.276" y="-84.7117" font-family="Times New Roman,serif" font-size="9.00">&#45;35</text>
</g>
<!-- &#45;35&#45;&gt;0 -->
<g id="edge131" class="edge"><title>&#45;35&#45;&gt;0</title>
<path fill="none" stroke="red" stroke-width="0.162404" d="M228.432,-77.7778C232.818,-73.382 238.818,-68.3287 245.276,-65.6985 366.589,-16.2875 788.123,-15.1161 895.983,-15.6506"/>
<polygon fill="red" stroke="red" stroke-width="0.162404" points="896.208,-19.1519 906.229,-15.7117 896.25,-12.152 896.208,-19.1519"/>
</g>
<!-- &#45;35&#45;&gt;1 -->
<g id="edge132" class="edge"><title>&#45;35&#45;&gt;1</title>
<path fill="none" stroke="red" stroke-width="0.113377" d="M228.408,-77.7158C232.785,-73.2994 238.785,-68.2461 245.276,-65.6985 400.185,-4.89644 828.12,-50.1302 993.276,-29.6985 1008.24,-27.8468 1024.82,-24.5609 1037.97,-21.6544"/>
<polygon fill="red" stroke="red" stroke-width="0.113377" points="1039.13,-24.9792 1048.11,-19.342 1037.58,-18.1546 1039.13,-24.9792"/>
</g>
<!-- &#45;35&#45;&gt;3 -->
<g id="edge133" class="edge"><title>&#45;35&#45;&gt;3</title>
<path fill="none" stroke="green" stroke-width="0.137802" d="M228.411,-77.7238C232.789,-73.3101 238.789,-68.2568 245.276,-65.6985 390.174,-8.55026 795.902,-73.8474 945.276,-29.6985 946.337,-29.3849 947.401,-29.0158 948.459,-28.6038"/>
<polygon fill="green" stroke="green" stroke-width="0.137802" points="950.175,-31.6592 957.572,-24.0737 947.06,-25.3909 950.175,-31.6592"/>
</g>
<!-- &#45;36 -->
<g id="node36" class="node"><title>&#45;36</title>
<polygon fill="lightgray" stroke="black" points="1312.78,-95.9117 1283.78,-95.9117 1283.78,-77.9117 1312.78,-77.9117 1312.78,-95.9117"/>
<text text-anchor="middle" x="1298.28" y="-84.7117" font-family="Times New Roman,serif" font-size="9.00">&#45;36</text>
</g>
<!-- &#45;36&#45;&gt;0 -->
<g id="edge134" class="edge"><title>&#45;36&#45;&gt;0</title>
<path fill="none" stroke="red" stroke-width="0.146316" stroke-dasharray="1,5" d="M1291.45,-77.8619C1287.25,-73.4942 1281.5,-68.4409 1275.28,-65.6985 1140.25,-6.23614 1085.51,-75.5506 945.276,-29.6985 944.395,-29.4107 943.512,-29.0879 942.631,-28.7369"/>
<polygon fill="red" stroke="red" stroke-width="0.146316" points="944.032,-25.5253 933.519,-24.2143 940.92,-31.7954 944.032,-25.5253"/>
</g>
<!-- &#45;36&#45;&gt;1 -->
<g id="edge135" class="edge"><title>&#45;36&#45;&gt;1</title>
<path fill="none" stroke="red" stroke-width="0.789677" d="M1290.96,-77.6402C1286.78,-73.4259 1281.2,-68.593 1275.28,-65.6985 1198.45,-28.1499 1166.43,-59.485 1086.28,-29.6985 1085.41,-29.3759 1084.53,-29.0235 1083.66,-28.6477"/>
<polygon fill="red" stroke="red" stroke-width="0.789677" points="1085.09,-25.4458 1074.59,-24.0089 1081.9,-31.6781 1085.09,-25.4458"/>
</g>
<!-- &#45;36&#45;&gt;2 -->
<g id="edge136" class="edge"><title>&#45;36&#45;&gt;2</title>
<path fill="none" stroke="red" stroke-width="0.202601" d="M1290.83,-77.8853C1286.61,-73.7428 1281.04,-68.9003 1275.28,-65.6985 1229.21,-40.1028 1168.45,-26.1333 1135,-19.9063"/>
<polygon fill="red" stroke="red" stroke-width="0.202601" points="1135.23,-16.3912 1124.77,-18.0857 1134,-23.283 1135.23,-16.3912"/>
</g>
<!-- &#45;36&#45;&gt;3 -->
<g id="edge137" class="edge"><title>&#45;36&#45;&gt;3</title>
<path fill="none" stroke="green" stroke-width="0.29472" d="M1291,-77.5513C1286.83,-73.3109 1281.25,-68.4815 1275.28,-65.6985 1178.7,-20.7165 1143.2,-48.1868 1038.28,-29.6985 1023.52,-27.0979 1007.06,-23.8101 993.922,-21.0906"/>
<polygon fill="green" stroke="green" stroke-width="0.29472" points="994.281,-17.5899 983.776,-18.9674 992.847,-24.4415 994.281,-17.5899"/>
</g>
<!-- &#45;37 -->
<g id="node37" class="node"><title>&#45;37</title>
<polygon fill="lightgray" stroke="black" points="1359.78,-95.9117 1330.78,-95.9117 1330.78,-77.9117 1359.78,-77.9117 1359.78,-95.9117"/>
<text text-anchor="middle" x="1345.28" y="-84.7117" font-family="Times New Roman,serif" font-size="9.00">&#45;37</text>
</g>
<!-- &#45;37&#45;&gt;0 -->
<g id="edge138" class="edge"><title>&#45;37&#45;&gt;0</title>
<path fill="none" stroke="red" stroke-width="0.135898" d="M1338.46,-77.8304C1334.27,-73.4522 1328.52,-68.3989 1322.28,-65.6985 1167.78,1.10111 1105.61,-80.9312 945.276,-29.6985 944.222,-29.3617 943.163,-28.9736 942.11,-28.5463"/>
<polygon fill="red" stroke="red" stroke-width="0.135898" points="943.519,-25.337 933.014,-23.9596 940.367,-31.5873 943.519,-25.337"/>
</g>
<!-- &#45;37&#45;&gt;1 -->
<g id="edge139" class="edge"><title>&#45;37&#45;&gt;1</title>
<path fill="none" stroke="red" stroke-width="0.21464" d="M1338,-77.5528C1333.83,-73.3128 1328.25,-68.4834 1322.28,-65.6985 1226.11,-20.8718 1186.4,-64.8195 1086.28,-29.6985 1085.4,-29.392 1084.52,-29.0532 1083.65,-28.6888"/>
<polygon fill="red" stroke="red" stroke-width="0.21464" points="1085.06,-25.4822 1074.56,-24.1037 1081.91,-31.7322 1085.06,-25.4822"/>
</g>
<!-- &#45;37&#45;&gt;2 -->
<g id="edge140" class="edge"><title>&#45;37&#45;&gt;2</title>
<path fill="none" stroke="green" stroke-width="0.431058" d="M1337.91,-77.7406C1333.71,-73.5556 1328.13,-68.7188 1322.28,-65.6985 1259.78,-33.4838 1176.22,-21.7675 1135.17,-17.7677"/>
<polygon fill="green" stroke="green" stroke-width="0.431058" points="1135.27,-14.263 1125,-16.8523 1134.65,-21.2348 1135.27,-14.263"/>
</g>
<!-- &#45;37&#45;&gt;3 -->
<g id="edge141" class="edge"><title>&#45;37&#45;&gt;3</title>
<path fill="none" stroke="red" stroke-width="0.649596" d="M1338.43,-77.9025C1334.23,-73.5483 1328.48,-68.495 1322.28,-65.6985 1206.29,-13.4069 1163.84,-50.2307 1038.28,-29.6985 1023.49,-27.2801 1007.03,-23.9998 993.897,-21.2388"/>
<polygon fill="red" stroke="red" stroke-width="0.649596" points="994.269,-17.7393 983.758,-19.072 992.806,-24.5847 994.269,-17.7393"/>
</g>
<!-- &#45;38 -->
<g id="node38" class="node"><title>&#45;38</title>
<polygon fill="lightgray" stroke="black" points="1406.78,-95.9117 1377.78,-95.9117 1377.78,-77.9117 1406.78,-77.9117 1406.78,-95.9117"/>
<text text-anchor="middle" x="1392.28" y="-84.7117" font-family="Times New Roman,serif" font-size="9.00">&#45;38</text>
</g>
<!-- &#45;38&#45;&gt;0 -->
<g id="edge142" class="edge"><title>&#45;38&#45;&gt;0</title>
<path fill="none" stroke="red" stroke-width="0.126971" d="M1385.47,-77.8058C1381.29,-73.4194 1375.54,-68.3661 1369.28,-65.6985 1195.29,8.44546 1125.72,-86.3172 945.276,-29.6985 944.22,-29.3672 943.16,-28.9837 942.106,-28.56"/>
<polygon fill="red" stroke="red" stroke-width="0.126971" points="943.512,-25.3498 933.006,-23.9869 940.369,-31.6045 943.512,-25.3498"/>
</g>
<!-- &#45;38&#45;&gt;1 -->
<g id="edge143" class="edge"><title>&#45;38&#45;&gt;1</title>
<path fill="none" stroke="red" stroke-width="0.247084" d="M1385.43,-77.9035C1381.23,-73.5497 1375.48,-68.4964 1369.28,-65.6985 1253.7,-13.5627 1206.43,-70.1783 1086.28,-29.6985 1085.4,-29.4028 1084.52,-29.0733 1083.64,-28.7168"/>
<polygon fill="red" stroke="red" stroke-width="0.247084" points="1085.04,-25.5072 1074.53,-24.1679 1081.92,-31.7689 1085.04,-25.5072"/>
</g>
<!-- &#45;38&#45;&gt;2 -->
<g id="edge144" class="edge"><title>&#45;38&#45;&gt;2</title>
<path fill="none" stroke="red" stroke-width="0.118539" d="M1384.96,-77.6447C1380.78,-73.4317 1375.2,-68.5987 1369.28,-65.6985 1289.93,-26.8217 1183.04,-18.2304 1135.22,-16.3566"/>
<polygon fill="red" stroke="red" stroke-width="0.118539" points="1135.27,-12.8565 1125.16,-16.0299 1135.04,-19.8528 1135.27,-12.8565"/>
</g>
<!-- &#45;38&#45;&gt;3 -->
<g id="edge145" class="edge"><title>&#45;38&#45;&gt;3</title>
<path fill="none" stroke="red" stroke-width="0.132702" d="M1385.45,-77.8611C1381.25,-73.4932 1375.5,-68.4399 1369.28,-65.6985 1233.84,-6.08013 1184.52,-52.2815 1038.28,-29.6985 1023.46,-27.4114 1007.01,-24.1367 993.88,-21.3457"/>
<polygon fill="red" stroke="red" stroke-width="0.132702" points="994.261,-17.847 983.746,-19.1474 992.777,-24.6879 994.261,-17.847"/>
</g>
<!-- &#45;39 -->
<g id="node39" class="node"><title>&#45;39</title>
<polygon fill="lightgray" stroke="black" points="1453.78,-95.9117 1424.78,-95.9117 1424.78,-77.9117 1453.78,-77.9117 1453.78,-95.9117"/>
<text text-anchor="middle" x="1439.28" y="-84.7117" font-family="Times New Roman,serif" font-size="9.00">&#45;39</text>
</g>
<!-- &#45;39&#45;&gt;0 -->
<g id="edge146" class="edge"><title>&#45;39&#45;&gt;0</title>
<path fill="none" stroke="red" stroke-width="0.194968" d="M1432.48,-77.786C1428.3,-73.393 1422.55,-68.3397 1416.28,-65.6985 1222.79,15.7947 1145.85,-91.707 945.276,-29.6985 944.219,-29.3717 943.158,-28.9918 942.102,-28.5711"/>
<polygon fill="red" stroke="red" stroke-width="0.194968" points="943.507,-25.3602 932.999,-24.0087 940.371,-31.6183 943.507,-25.3602"/>
</g>
<!-- &#45;39&#45;&gt;1 -->
<g id="edge147" class="edge"><title>&#45;39&#45;&gt;1</title>
<path fill="none" stroke="red" stroke-width="0.31422" d="M1432.45,-77.8619C1428.25,-73.4942 1422.5,-68.4409 1416.28,-65.6985 1281.25,-6.23614 1226.51,-75.5506 1086.28,-29.6985 1085.4,-29.4107 1084.51,-29.0879 1083.63,-28.7369"/>
<polygon fill="red" stroke="red" stroke-width="0.31422" points="1085.03,-25.5253 1074.52,-24.2143 1081.92,-31.7954 1085.03,-25.5253"/>
</g>
<!-- &#45;39&#45;&gt;2 -->
<g id="edge148" class="edge"><title>&#45;39&#45;&gt;2</title>
<path fill="none" stroke="green" stroke-width="0.212801" d="M1431.99,-77.5768C1427.82,-73.344 1422.24,-68.5136 1416.28,-65.6985 1319.75,-20.1074 1189.12,-15.2383 1135.17,-15.358"/>
<polygon fill="green" stroke="green" stroke-width="0.212801" points="1135.11,-11.8582 1125.14,-15.442 1135.17,-18.8579 1135.11,-11.8582"/>
</g>
<!-- &#45;39&#45;&gt;3 -->
<g id="edge149" class="edge"><title>&#45;39&#45;&gt;3</title>
<path fill="none" stroke="green" stroke-width="0.251196" d="M1432.46,-77.8298C1428.27,-73.4514 1422.52,-68.3981 1416.28,-65.6985 1261.37,1.25731 1205.23,-54.3363 1038.28,-29.6985 1023.45,-27.5106 1006.99,-24.24 993.868,-21.4265"/>
<polygon fill="green" stroke="green" stroke-width="0.251196" points="994.255,-17.9283 983.738,-19.2044 992.755,-24.7658 994.255,-17.9283"/>
</g>
<!-- &#45;40 -->
<g id="node40" class="node"><title>&#45;40</title>
<polygon fill="lightgray" stroke="black" points="1500.78,-95.9117 1471.78,-95.9117 1471.78,-77.9117 1500.78,-77.9117 1500.78,-95.9117"/>
<text text-anchor="middle" x="1486.28" y="-84.7117" font-family="Times New Roman,serif" font-size="9.00">&#45;40</text>
</g>
<!-- &#45;40&#45;&gt;0 -->
<g id="edge150" class="edge"><title>&#45;40&#45;&gt;0</title>
<path fill="none" stroke="red" stroke-width="0.243495" d="M1479.49,-77.7698C1475.31,-73.3714 1469.56,-68.3181 1463.28,-65.6985 1250.29,23.1475 1165.99,-97.0995 945.276,-29.6985 944.217,-29.3753 943.156,-28.9985 942.099,-28.5801"/>
<polygon fill="red" stroke="red" stroke-width="0.243495" points="943.503,-25.3687 932.993,-24.0267 940.372,-31.6296 943.503,-25.3687"/>
</g>
<!-- &#45;40&#45;&gt;1 -->
<g id="edge151" class="edge"><title>&#45;40&#45;&gt;1</title>
<path fill="none" stroke="red" stroke-width="0.437854" d="M1479.46,-77.8304C1475.27,-73.4522 1469.52,-68.3989 1463.28,-65.6985 1308.78,1.10111 1246.61,-80.9312 1086.28,-29.6985 1085.22,-29.3617 1084.16,-28.9736 1083.11,-28.5463"/>
<polygon fill="red" stroke="red" stroke-width="0.437854" points="1084.52,-25.337 1074.01,-23.9596 1081.37,-31.5873 1084.52,-25.337"/>
</g>
<!-- &#45;40&#45;&gt;2 -->
<g id="edge152" class="edge"><title>&#45;40&#45;&gt;2</title>
<path fill="none" stroke="green" stroke-width="0.335129" d="M1479.01,-77.5263C1474.85,-73.2787 1469.27,-68.4503 1463.28,-65.6985 1404.42,-38.6592 1205.84,-22.5122 1135.35,-17.521"/>
<polygon fill="green" stroke="green" stroke-width="0.335129" points="1135.4,-14.0159 1125.18,-16.8158 1134.91,-20.9992 1135.4,-14.0159"/>
</g>
<!-- &#45;40&#45;&gt;3 -->
<g id="edge153" class="edge"><title>&#45;40&#45;&gt;3</title>
<path fill="none" stroke="green" stroke-width="0.406579" d="M1479.47,-77.8053C1475.29,-73.4188 1469.54,-68.3655 1463.28,-65.6985 1376.08,-28.5484 1132.11,-43.0461 1038.28,-29.6985 1023.44,-27.5881 1006.98,-24.3207 993.859,-21.4895"/>
<polygon fill="green" stroke="green" stroke-width="0.406579" points="994.251,-17.9918 983.731,-19.2489 992.739,-24.8265 994.251,-17.9918"/>
</g>
<!-- 420&#45;&gt;0 -->
<g id="edge155" class="edge"><title>420&#45;&gt;0</title>
<path fill="none" stroke="red" stroke-width="0.239377" d="M55.2514,-72.8751C59.5651,-70.0122 64.3965,-67.3462 69.2756,-65.6985 228.199,-12.0304 772.469,-14.3009 896.139,-15.5424"/>
<polygon fill="red" stroke="red" stroke-width="0.239377" points="896.128,-19.0424 906.165,-15.6504 896.203,-12.0428 896.128,-19.0424"/>
</g>
</g>
</svg>
