<?xml version="1.0" encoding="UTF-8" standalone="no"?>
<!DOCTYPE svg PUBLIC "-//W3C//DTD SVG 1.1//EN"
 "http://www.w3.org/Graphics/SVG/1.1/DTD/svg11.dtd">
<!-- Generated by graphviz version 2.38.0 (20140413.2041)
 -->
<!-- Title: %3 Pages: 1 -->
<svg width="1827pt" height="92pt"
 viewBox="0.00 0.00 1827.00 91.70" xmlns="http://www.w3.org/2000/svg" xmlns:xlink="http://www.w3.org/1999/xlink">
<g id="graph0" class="graph" transform="scale(1 1) rotate(0) translate(4 87.6985)">
<title>%3</title>
<polygon fill="white" stroke="none" points="-4,4 -4,-87.6985 1823,-87.6985 1823,4 -4,4"/>
<!-- &#45;1 -->
<g id="node1" class="node"><title>&#45;1</title>
<polygon fill="lightgray" stroke="black" points="917.5,-83.6985 893.5,-83.6985 893.5,-65.6985 917.5,-65.6985 917.5,-83.6985"/>
<text text-anchor="middle" x="905.5" y="-72.4985" font-family="Times New Roman,serif" font-size="9.00">&#45;1</text>
</g>
<!-- 0 -->
<g id="node41" class="node"><title>0</title>
<ellipse fill="lightblue" stroke="black" cx="848.5" cy="-14.8492" rx="14.7" ry="14.7"/>
<text text-anchor="middle" x="848.5" y="-12.6492" font-family="Times New Roman,serif" font-size="9.00">0</text>
</g>
<!-- &#45;1&#45;&gt;0 -->
<g id="edge1" class="edge"><title>&#45;1&#45;&gt;0</title>
<path fill="none" stroke="green" stroke-width="0.122725" d="M897.574,-65.6548C889.402,-57.3607 876.397,-44.1619 865.828,-33.435"/>
<polygon fill="green" stroke="green" stroke-width="0.122725" points="868.178,-30.8332 858.666,-26.1665 863.191,-35.7462 868.178,-30.8332"/>
</g>
<!-- 1 -->
<g id="node42" class="node"><title>1</title>
<ellipse fill="lightblue" stroke="black" cx="896.5" cy="-14.8492" rx="14.7" ry="14.7"/>
<text text-anchor="middle" x="896.5" y="-12.6492" font-family="Times New Roman,serif" font-size="9.00">1</text>
</g>
<!-- &#45;1&#45;&gt;1 -->
<g id="edge2" class="edge"><title>&#45;1&#45;&gt;1</title>
<path fill="none" stroke="green" stroke-width="0.231075" stroke-dasharray="1,5" d="M904.249,-65.6548C903.196,-58.8878 901.635,-48.8559 900.19,-39.5653"/>
<polygon fill="green" stroke="green" stroke-width="0.231075" points="903.636,-38.9476 898.64,-29.6046 896.719,-40.0238 903.636,-38.9476"/>
</g>
<!-- 2 -->
<g id="node43" class="node"><title>2</title>
<ellipse fill="lightblue" stroke="black" cx="992.5" cy="-14.8492" rx="14.7" ry="14.7"/>
<text text-anchor="middle" x="992.5" y="-12.6492" font-family="Times New Roman,serif" font-size="9.00">2</text>
</g>
<!-- &#45;1&#45;&gt;2 -->
<g id="edge3" class="edge"><title>&#45;1&#45;&gt;2</title>
<path fill="none" stroke="green" stroke-width="0.322332" d="M917.597,-65.6548C931.621,-56.3294 954.971,-40.8037 971.877,-29.5624"/>
<polygon fill="green" stroke="green" stroke-width="0.322332" points="974.117,-32.2762 980.506,-23.8246 970.241,-26.4472 974.117,-32.2762"/>
</g>
<!-- 3 -->
<g id="node44" class="node"><title>3</title>
<ellipse fill="lightblue" stroke="black" cx="944.5" cy="-14.8492" rx="14.7" ry="14.7"/>
<text text-anchor="middle" x="944.5" y="-12.6492" font-family="Times New Roman,serif" font-size="9.00">3</text>
</g>
<!-- &#45;1&#45;&gt;3 -->
<g id="edge4" class="edge"><title>&#45;1&#45;&gt;3</title>
<path fill="none" stroke="red" stroke-width="0.191515" d="M910.923,-65.6548C916.038,-58.067 923.921,-46.3743 930.764,-36.2246"/>
<polygon fill="red" stroke="red" stroke-width="0.191515" points="933.725,-38.0926 936.413,-27.8444 927.921,-34.1796 933.725,-38.0926"/>
</g>
<!-- &#45;2 -->
<g id="node2" class="node"><title>&#45;2</title>
<polygon fill="lightgray" stroke="black" points="959.5,-83.6985 935.5,-83.6985 935.5,-65.6985 959.5,-65.6985 959.5,-83.6985"/>
<text text-anchor="middle" x="947.5" y="-72.4985" font-family="Times New Roman,serif" font-size="9.00">&#45;2</text>
</g>
<!-- &#45;2&#45;&gt;0 -->
<g id="edge5" class="edge"><title>&#45;2&#45;&gt;0</title>
<path fill="none" stroke="red" stroke-width="0.104182" d="M935.361,-66.605C919.047,-57.0723 889.789,-39.9759 869.776,-28.2815"/>
<polygon fill="red" stroke="red" stroke-width="0.104182" points="871.451,-25.2065 861.051,-23.1832 867.919,-31.2504 871.451,-25.2065"/>
</g>
<!-- &#45;2&#45;&gt;1 -->
<g id="edge6" class="edge"><title>&#45;2&#45;&gt;1</title>
<path fill="none" stroke="red" stroke-width="0.117216" d="M940.409,-65.6548C933.255,-57.5402 921.962,-44.7309 912.621,-34.1348"/>
<polygon fill="red" stroke="red" stroke-width="0.117216" points="915.197,-31.7644 905.958,-26.5778 909.946,-36.3935 915.197,-31.7644"/>
</g>
<!-- &#45;2&#45;&gt;2 -->
<g id="edge7" class="edge"><title>&#45;2&#45;&gt;2</title>
<path fill="none" stroke="red" stroke-width="0.39521" stroke-dasharray="1,5" d="M953.757,-65.6548C959.87,-57.7964 969.408,-45.5348 977.49,-35.1446"/>
<polygon fill="red" stroke="red" stroke-width="0.39521" points="980.453,-37.0367 983.83,-26.9946 974.928,-32.7387 980.453,-37.0367"/>
</g>
<!-- &#45;2&#45;&gt;3 -->
<g id="edge8" class="edge"><title>&#45;2&#45;&gt;3</title>
<path fill="none" stroke="green" stroke-width="0.259349" stroke-dasharray="1,5" d="M947.083,-65.6548C946.74,-59.0498 946.237,-49.3344 945.765,-40.2339"/>
<polygon fill="green" stroke="green" stroke-width="0.259349" points="949.25,-39.8616 945.237,-30.0563 942.259,-40.2242 949.25,-39.8616"/>
</g>
<!-- &#45;3 -->
<g id="node3" class="node"><title>&#45;3</title>
<polygon fill="lightgray" stroke="black" points="1001.5,-83.6985 977.5,-83.6985 977.5,-65.6985 1001.5,-65.6985 1001.5,-83.6985"/>
<text text-anchor="middle" x="989.5" y="-72.4985" font-family="Times New Roman,serif" font-size="9.00">&#45;3</text>
</g>
<!-- &#45;3&#45;&gt;0 -->
<g id="edge9" class="edge"><title>&#45;3&#45;&gt;0</title>
<path fill="none" stroke="red" stroke-width="0.258873" d="M977.067,-68.9499C974.251,-67.8778 971.274,-66.7468 968.5,-65.6985 925.875,-49.5874 913.707,-49.1519 872.5,-29.6985 871.663,-29.3031 870.815,-28.889 869.965,-28.461"/>
<polygon fill="red" stroke="red" stroke-width="0.258873" points="871.452,-25.2859 860.996,-23.5792 868.106,-31.4341 871.452,-25.2859"/>
</g>
<!-- &#45;3&#45;&gt;1 -->
<g id="edge10" class="edge"><title>&#45;3&#45;&gt;1</title>
<path fill="none" stroke="green" stroke-width="0.459449" d="M977.342,-66.1357C962.095,-56.6513 935.717,-40.2435 917.251,-28.7572"/>
<polygon fill="green" stroke="green" stroke-width="0.459449" points="919.001,-25.7238 908.661,-23.4139 915.304,-31.6677 919.001,-25.7238"/>
</g>
<!-- &#45;3&#45;&gt;2 -->
<g id="edge11" class="edge"><title>&#45;3&#45;&gt;2</title>
<path fill="none" stroke="green" stroke-width="0.26191" d="M989.917,-65.6548C990.26,-59.0498 990.763,-49.3344 991.235,-40.2339"/>
<polygon fill="green" stroke="green" stroke-width="0.26191" points="994.741,-40.2242 991.763,-30.0563 987.75,-39.8616 994.741,-40.2242"/>
</g>
<!-- &#45;3&#45;&gt;3 -->
<g id="edge12" class="edge"><title>&#45;3&#45;&gt;3</title>
<path fill="none" stroke="red" stroke-width="0.116729" d="M983.243,-65.6548C977.13,-57.7964 967.592,-45.5348 959.51,-35.1446"/>
<polygon fill="red" stroke="red" stroke-width="0.116729" points="962.072,-32.7387 953.17,-26.9946 956.547,-37.0367 962.072,-32.7387"/>
</g>
<!-- &#45;4 -->
<g id="node4" class="node"><title>&#45;4</title>
<polygon fill="lightgray" stroke="black" points="1043.5,-83.6985 1019.5,-83.6985 1019.5,-65.6985 1043.5,-65.6985 1043.5,-83.6985"/>
<text text-anchor="middle" x="1031.5" y="-72.4985" font-family="Times New Roman,serif" font-size="9.00">&#45;4</text>
</g>
<!-- &#45;4&#45;&gt;0 -->
<g id="edge13" class="edge"><title>&#45;4&#45;&gt;0</title>
<path fill="none" stroke="green" stroke-width="0.153621" stroke-dasharray="1,5" d="M1019.14,-68.7349C1016.32,-67.6739 1013.32,-66.6018 1010.5,-65.6985 950.127,-46.3874 931.144,-53.7548 872.5,-29.6985 871.643,-29.347 870.78,-28.9701 869.915,-28.5736"/>
<polygon fill="green" stroke="green" stroke-width="0.153621" points="871.364,-25.3812 860.882,-23.8383 868.114,-31.5811 871.364,-25.3812"/>
</g>
<!-- &#45;4&#45;&gt;1 -->
<g id="edge14" class="edge"><title>&#45;4&#45;&gt;1</title>
<path fill="none" stroke="green" stroke-width="0.335255" stroke-dasharray="1,5" d="M1019.23,-68.9509C992.331,-58.5279 929.831,-34.2104 920.5,-29.6985 919.666,-29.2954 918.822,-28.8746 917.974,-28.441"/>
<polygon fill="green" stroke="green" stroke-width="0.335255" points="919.469,-25.2694 909.018,-23.5332 916.106,-31.4082 919.469,-25.2694"/>
</g>
<!-- &#45;4&#45;&gt;2 -->
<g id="edge15" class="edge"><title>&#45;4&#45;&gt;2</title>
<path fill="none" stroke="green" stroke-width="0.224288" d="M1026.08,-65.6548C1020.96,-58.067 1013.08,-46.3743 1006.24,-36.2246"/>
<polygon fill="green" stroke="green" stroke-width="0.224288" points="1009.08,-34.1796 1000.59,-27.8444 1003.27,-38.0926 1009.08,-34.1796"/>
</g>
<!-- &#45;4&#45;&gt;3 -->
<g id="edge16" class="edge"><title>&#45;4&#45;&gt;3</title>
<path fill="none" stroke="red" stroke-width="0.279841" d="M1019.4,-65.6548C1005.38,-56.3294 982.029,-40.8037 965.123,-29.5624"/>
<polygon fill="red" stroke="red" stroke-width="0.279841" points="966.759,-26.4472 956.494,-23.8246 962.883,-32.2762 966.759,-26.4472"/>
</g>
<!-- &#45;5 -->
<g id="node5" class="node"><title>&#45;5</title>
<polygon fill="lightgray" stroke="black" points="1085.5,-83.6985 1061.5,-83.6985 1061.5,-65.6985 1085.5,-65.6985 1085.5,-83.6985"/>
<text text-anchor="middle" x="1073.5" y="-72.4985" font-family="Times New Roman,serif" font-size="9.00">&#45;5</text>
</g>
<!-- &#45;5&#45;&gt;0 -->
<g id="edge17" class="edge"><title>&#45;5&#45;&gt;0</title>
<path fill="none" stroke="green" stroke-width="0.59804" d="M1061.18,-68.6133C1058.36,-67.5586 1055.35,-66.5199 1052.5,-65.6985 974.108,-43.0983 948.843,-58.4679 872.5,-29.6985 871.633,-29.3719 870.762,-29.0162 869.89,-28.6375"/>
<polygon fill="green" stroke="green" stroke-width="0.59804" points="871.319,-25.4368 860.824,-23.9854 868.123,-31.6648 871.319,-25.4368"/>
</g>
<!-- &#45;5&#45;&gt;1 -->
<g id="edge18" class="edge"><title>&#45;5&#45;&gt;1</title>
<path fill="none" stroke="green" stroke-width="0.230868" d="M1061.13,-68.758C1058.32,-67.6958 1055.32,-66.6174 1052.5,-65.6985 994.685,-46.8521 976.631,-53.088 920.5,-29.6985 919.645,-29.3423 918.783,-28.9614 917.92,-28.5614"/>
<polygon fill="green" stroke="green" stroke-width="0.230868" points="919.373,-25.3707 908.893,-23.8104 916.112,-31.5652 919.373,-25.3707"/>
</g>
<!-- &#45;5&#45;&gt;2 -->
<g id="edge19" class="edge"><title>&#45;5&#45;&gt;2</title>
<path fill="none" stroke="green" stroke-width="0.262728" d="M1062.24,-65.6548C1049.45,-56.5196 1028.32,-41.4343 1012.67,-30.2554"/>
<polygon fill="green" stroke="green" stroke-width="0.262728" points="1014.36,-27.1629 1004.19,-24.1992 1010.3,-32.8593 1014.36,-27.1629"/>
</g>
<!-- &#45;5&#45;&gt;3 -->
<g id="edge20" class="edge"><title>&#45;5&#45;&gt;3</title>
<path fill="none" stroke="green" stroke-width="0.408894" d="M1061.4,-68.8519C1037.65,-59.3059 985.767,-38.2554 968.5,-29.6985 967.67,-29.2873 966.83,-28.8596 965.984,-28.4203"/>
<polygon fill="green" stroke="green" stroke-width="0.408894" points="967.488,-25.2524 957.041,-23.4855 964.106,-31.3812 967.488,-25.2524"/>
</g>
<!-- &#45;6 -->
<g id="node6" class="node"><title>&#45;6</title>
<polygon fill="lightgray" stroke="black" points="1127.5,-83.6985 1103.5,-83.6985 1103.5,-65.6985 1127.5,-65.6985 1127.5,-83.6985"/>
<text text-anchor="middle" x="1115.5" y="-72.4985" font-family="Times New Roman,serif" font-size="9.00">&#45;6</text>
</g>
<!-- &#45;6&#45;&gt;0 -->
<g id="edge21" class="edge"><title>&#45;6&#45;&gt;0</title>
<path fill="none" stroke="red" stroke-width="0.420907" d="M1103.2,-68.5357C1100.38,-67.485 1097.36,-66.4675 1094.5,-65.6985 997.965,-39.7729 966.664,-63.2272 872.5,-29.6985 871.628,-29.3879 870.751,-29.0456 869.875,-28.6783"/>
<polygon fill="red" stroke="red" stroke-width="0.420907" points="871.292,-25.4729 860.789,-24.0795 868.131,-31.7184 871.292,-25.4729"/>
</g>
<!-- &#45;6&#45;&gt;1 -->
<g id="edge22" class="edge"><title>&#45;6&#45;&gt;1</title>
<path fill="none" stroke="green" stroke-width="0.385204" d="M1103.18,-68.6273C1100.35,-67.5719 1097.35,-66.5293 1094.5,-65.6985 1018.69,-43.5711 994.306,-57.791 920.5,-29.6985 919.635,-29.3691 918.764,-29.0109 917.893,-28.6301"/>
<polygon fill="green" stroke="green" stroke-width="0.385204" points="919.324,-25.4303 908.83,-23.9685 916.122,-31.6551 919.324,-25.4303"/>
</g>
<!-- &#45;6&#45;&gt;2 -->
<g id="edge23" class="edge"><title>&#45;6&#45;&gt;2</title>
<path fill="none" stroke="red" stroke-width="0.255056" d="M1103.26,-67.9402C1082.67,-58.2598 1040.85,-38.5888 1014.9,-26.3831"/>
<polygon fill="red" stroke="red" stroke-width="0.255056" points="1016.34,-23.196 1005.81,-22.1071 1013.37,-29.5304 1016.34,-23.196"/>
</g>
<!-- &#45;6&#45;&gt;3 -->
<g id="edge24" class="edge"><title>&#45;6&#45;&gt;3</title>
<path fill="none" stroke="red" stroke-width="0.117302" d="M1103.13,-68.7832C1100.31,-67.7197 1097.31,-66.6344 1094.5,-65.6985 1039.24,-47.3149 1022.12,-52.4235 968.5,-29.6985 967.647,-29.3372 966.787,-28.9519 965.926,-28.5482"/>
<polygon fill="red" stroke="red" stroke-width="0.117302" points="967.382,-25.3594 956.906,-23.78 964.111,-31.5479 967.382,-25.3594"/>
</g>
<!-- &#45;7 -->
<g id="node7" class="node"><title>&#45;7</title>
<polygon fill="lightgray" stroke="black" points="1724.5,-83.6985 1700.5,-83.6985 1700.5,-65.6985 1724.5,-65.6985 1724.5,-83.6985"/>
<text text-anchor="middle" x="1712.5" y="-72.4985" font-family="Times New Roman,serif" font-size="9.00">&#45;7</text>
</g>
<!-- &#45;7&#45;&gt;0 -->
<g id="edge25" class="edge"><title>&#45;7&#45;&gt;0</title>
<path fill="none" stroke="red" stroke-width="0.710184" d="M1700.26,-68.2858C1697.43,-67.2481 1694.4,-66.299 1691.5,-65.6985 1513.1,-28.8002 1047.4,-80.6827 872.5,-29.6985 871.438,-29.3888 870.373,-29.023 869.314,-28.6137"/>
<polygon fill="red" stroke="red" stroke-width="0.710184" points="870.712,-25.4002 860.198,-24.0932 867.602,-31.6715 870.712,-25.4002"/>
</g>
<!-- &#45;7&#45;&gt;2 -->
<g id="edge26" class="edge"><title>&#45;7&#45;&gt;2</title>
<path fill="none" stroke="green" stroke-width="0.24404" d="M1700.25,-68.3444C1697.42,-67.3037 1694.4,-66.3386 1691.5,-65.6985 1558.99,-36.4028 1126.6,-20.3101 1017.62,-16.6565"/>
<polygon fill="green" stroke="green" stroke-width="0.24404" points="1017.67,-13.1564 1007.56,-16.3241 1017.44,-20.1526 1017.67,-13.1564"/>
</g>
<!-- &#45;7&#45;&gt;3 -->
<g id="edge27" class="edge"><title>&#45;7&#45;&gt;3</title>
<path fill="none" stroke="green" stroke-width="0.397227" d="M1700.26,-68.2983C1697.43,-67.26 1694.4,-66.3075 1691.5,-65.6985 1376.63,0.382882 1277.11,-120.638 968.5,-29.6985 967.439,-29.3857 966.374,-29.0174 965.316,-28.606"/>
<polygon fill="green" stroke="green" stroke-width="0.397227" points="966.715,-25.3929 956.202,-24.078 963.601,-31.6619 966.715,-25.3929"/>
</g>
<!-- &#45;8 -->
<g id="node8" class="node"><title>&#45;8</title>
<polygon fill="lightgray" stroke="black" points="1169.5,-83.6985 1145.5,-83.6985 1145.5,-65.6985 1169.5,-65.6985 1169.5,-83.6985"/>
<text text-anchor="middle" x="1157.5" y="-72.4985" font-family="Times New Roman,serif" font-size="9.00">&#45;8</text>
</g>
<!-- &#45;8&#45;&gt;0 -->
<g id="edge28" class="edge"><title>&#45;8&#45;&gt;0</title>
<path fill="none" stroke="red" stroke-width="0.386784" d="M1145.21,-68.482C1142.39,-67.4342 1139.37,-66.4313 1136.5,-65.6985 1021.75,-36.4294 984.551,-68.0099 872.5,-29.6985 871.624,-29.3989 870.744,-29.066 869.865,-28.7066"/>
<polygon fill="red" stroke="red" stroke-width="0.386784" points="871.275,-25.4981 860.767,-24.1446 868.137,-31.7556 871.275,-25.4981"/>
</g>
<!-- &#45;8&#45;&gt;1 -->
<g id="edge29" class="edge"><title>&#45;8&#45;&gt;1</title>
<path fill="none" stroke="green" stroke-width="0.190324" d="M1145.2,-68.545C1142.38,-67.4939 1139.36,-66.4738 1136.5,-65.6985 1042.56,-40.2493 1012.11,-62.5456 920.5,-29.6985 919.628,-29.3859 918.752,-29.0421 917.877,-28.6734"/>
<polygon fill="green" stroke="green" stroke-width="0.190324" points="919.295,-25.4685 908.793,-24.0682 916.13,-31.7119 919.295,-25.4685"/>
</g>
<!-- &#45;8&#45;&gt;2 -->
<g id="edge30" class="edge"><title>&#45;8&#45;&gt;2</title>
<path fill="none" stroke="red" stroke-width="0.487718" d="M1145.09,-68.8973C1142.27,-67.8279 1139.29,-66.7114 1136.5,-65.6985 1094.2,-50.3252 1044.54,-33.3719 1015.97,-23.7265"/>
<polygon fill="red" stroke="red" stroke-width="0.487718" points="1017.05,-20.396 1006.45,-20.52 1014.81,-27.0296 1017.05,-20.396"/>
</g>
<!-- &#45;8&#45;&gt;3 -->
<g id="edge31" class="edge"><title>&#45;8&#45;&gt;3</title>
<path fill="none" stroke="green" stroke-width="0.360968" d="M1145.17,-68.6422C1142.35,-67.586 1139.34,-66.5394 1136.5,-65.6985 1063.27,-44.043 1039.77,-57.115 968.5,-29.6985 967.636,-29.366 966.766,-29.0052 965.896,-28.6223"/>
<polygon fill="green" stroke="green" stroke-width="0.360968" points="967.329,-25.4235 956.837,-23.9504 964.12,-31.6448 967.329,-25.4235"/>
</g>
<!-- &#45;9 -->
<g id="node9" class="node"><title>&#45;9</title>
<polygon fill="lightgray" stroke="black" points="1211.5,-83.6985 1187.5,-83.6985 1187.5,-65.6985 1211.5,-65.6985 1211.5,-83.6985"/>
<text text-anchor="middle" x="1199.5" y="-72.4985" font-family="Times New Roman,serif" font-size="9.00">&#45;9</text>
</g>
<!-- &#45;9&#45;&gt;0 -->
<g id="edge32" class="edge"><title>&#45;9&#45;&gt;0</title>
<path fill="none" stroke="green" stroke-width="0.321683" stroke-dasharray="1,5" d="M1187.22,-68.4427C1184.4,-67.3969 1181.38,-66.4049 1178.5,-65.6985 1045.5,-33.0756 1002.48,-72.806 872.5,-29.6985 871.621,-29.407 870.739,-29.081 869.858,-28.7274"/>
<polygon fill="green" stroke="green" stroke-width="0.321683" points="871.262,-25.5167 860.751,-24.1924 868.142,-31.7829 871.262,-25.5167"/>
</g>
<!-- &#45;9&#45;&gt;1 -->
<g id="edge33" class="edge"><title>&#45;9&#45;&gt;1</title>
<path fill="none" stroke="green" stroke-width="0.3259" d="M1187.21,-68.4887C1184.39,-67.4404 1181.37,-66.4358 1178.5,-65.6985 1066.36,-36.9078 1029.99,-67.3257 920.5,-29.6985 919.624,-29.3975 918.744,-29.0635 917.866,-28.7031"/>
<polygon fill="green" stroke="green" stroke-width="0.3259" points="919.277,-25.495 908.769,-24.1366 916.136,-31.751 919.277,-25.495"/>
</g>
<!-- &#45;9&#45;&gt;2 -->
<g id="edge34" class="edge"><title>&#45;9&#45;&gt;2</title>
<path fill="none" stroke="red" stroke-width="0.367152" d="M1187.14,-68.7488C1184.32,-67.6871 1181.32,-66.6112 1178.5,-65.6985 1121.42,-47.232 1052.98,-30.162 1017.14,-21.6033"/>
<polygon fill="red" stroke="red" stroke-width="0.367152" points="1017.66,-18.1278 1007.12,-19.2283 1016.04,-24.9392 1017.66,-18.1278"/>
</g>
<!-- &#45;9&#45;&gt;3 -->
<g id="edge35" class="edge"><title>&#45;9&#45;&gt;3</title>
<path fill="none" stroke="green" stroke-width="0.634751" d="M1187.2,-68.5548C1184.37,-67.5032 1181.36,-66.4804 1178.5,-65.6985 1087.16,-40.7254 1057.56,-61.8644 968.5,-29.6985 967.629,-29.3839 966.753,-29.0384 965.879,-28.6682"/>
<polygon fill="green" stroke="green" stroke-width="0.634751" points="967.299,-25.4639 956.798,-24.0563 964.129,-31.7052 967.299,-25.4639"/>
</g>
<!-- &#45;10 -->
<g id="node10" class="node"><title>&#45;10</title>
<polygon fill="lightgray" stroke="black" points="1259,-83.6985 1230,-83.6985 1230,-65.6985 1259,-65.6985 1259,-83.6985"/>
<text text-anchor="middle" x="1244.5" y="-72.4985" font-family="Times New Roman,serif" font-size="9.00">&#45;10</text>
</g>
<!-- &#45;10&#45;&gt;0 -->
<g id="edge36" class="edge"><title>&#45;10&#45;&gt;0</title>
<path fill="none" stroke="green" stroke-width="0.189579" d="M1229.92,-68.2742C1226.84,-67.2896 1223.59,-66.3652 1220.5,-65.6985 1068.5,-32.9173 1020.43,-77.6105 872.5,-29.6985 871.447,-29.3576 870.39,-28.9661 869.338,-28.5359"/>
<polygon fill="green" stroke="green" stroke-width="0.189579" points="870.749,-25.3274 860.245,-23.9391 867.59,-31.5745 870.749,-25.3274"/>
</g>
<!-- &#45;10&#45;&gt;1 -->
<g id="edge37" class="edge"><title>&#45;10&#45;&gt;1</title>
<path fill="none" stroke="red" stroke-width="0.308074" d="M1229.91,-68.3133C1226.83,-67.3259 1223.59,-66.3904 1220.5,-65.6985 1089.46,-36.3152 1047.91,-72.1203 920.5,-29.6985 919.621,-29.4059 918.739,-29.0791 917.859,-28.7248"/>
<polygon fill="red" stroke="red" stroke-width="0.308074" points="919.264,-25.5144 908.753,-24.1863 916.141,-31.7794 919.264,-25.5144"/>
</g>
<!-- &#45;10&#45;&gt;2 -->
<g id="edge38" class="edge"><title>&#45;10&#45;&gt;2</title>
<path fill="none" stroke="green" stroke-width="0.361576" d="M1229.85,-68.5411C1226.78,-67.5372 1223.55,-66.5374 1220.5,-65.6985 1147.19,-45.5266 1058.84,-28.1412 1016.89,-20.2969"/>
<polygon fill="green" stroke="green" stroke-width="0.361576" points="1017.51,-16.8509 1007.04,-18.4698 1016.23,-23.7337 1017.51,-16.8509"/>
</g>
<!-- &#45;10&#45;&gt;3 -->
<g id="edge39" class="edge"><title>&#45;10&#45;&gt;3</title>
<path fill="none" stroke="red" stroke-width="0.134434" d="M1229.9,-68.367C1226.82,-67.3757 1223.58,-66.425 1220.5,-65.6985 1110.39,-39.7049 1075.44,-66.6418 968.5,-29.6985 967.625,-29.3961 966.745,-29.0609 965.867,-28.6995"/>
<polygon fill="red" stroke="red" stroke-width="0.134434" points="967.279,-25.4917 956.772,-24.1281 964.135,-31.7462 967.279,-25.4917"/>
</g>
<!-- &#45;11 -->
<g id="node11" class="node"><title>&#45;11</title>
<polygon fill="lightgray" stroke="black" points="29,-83.6985 0,-83.6985 0,-65.6985 29,-65.6985 29,-83.6985"/>
<text text-anchor="middle" x="14.5" y="-72.4985" font-family="Times New Roman,serif" font-size="9.00">&#45;11</text>
</g>
<!-- &#45;11&#45;&gt;0 -->
<g id="edge40" class="edge"><title>&#45;11&#45;&gt;0</title>
<path fill="none" stroke="green" stroke-width="0.512507" d="M29.4296,-67.8469C32.0832,-66.9971 34.8472,-66.2309 37.5,-65.6985 193.424,-34.4054 703.817,-19.5655 823.311,-16.4716"/>
<polygon fill="green" stroke="green" stroke-width="0.512507" points="823.722,-19.9624 833.63,-16.2087 823.544,-12.9647 823.722,-19.9624"/>
</g>
<!-- &#45;11&#45;&gt;1 -->
<g id="edge41" class="edge"><title>&#45;11&#45;&gt;1</title>
<path fill="none" stroke="red" stroke-width="0.23466" d="M29.4216,-67.8059C32.0761,-66.9607 34.8424,-66.2066 37.5,-65.6985 219.924,-30.8206 694.172,-81.6019 872.5,-29.6985 873.562,-29.3893 874.628,-29.0238 875.686,-28.6148"/>
<polygon fill="red" stroke="red" stroke-width="0.23466" points="877.398,-31.6729 884.803,-24.0954 874.289,-25.4012 877.398,-31.6729"/>
</g>
<!-- &#45;11&#45;&gt;3 -->
<g id="edge42" class="edge"><title>&#45;11&#45;&gt;3</title>
<path fill="none" stroke="red" stroke-width="0.211839" d="M29.4206,-67.8007C32.0752,-66.956 34.8418,-66.2035 37.5,-65.6985 230.434,-29.0449 731.875,-84.3596 920.5,-29.6985 921.563,-29.3905 922.628,-29.0261 923.687,-28.6179"/>
<polygon fill="red" stroke="red" stroke-width="0.211839" points="925.397,-31.6767 932.805,-24.1015 922.29,-25.4041 925.397,-31.6767"/>
</g>
<!-- &#45;12 -->
<g id="node12" class="node"><title>&#45;12</title>
<polygon fill="lightgray" stroke="black" points="1306,-83.6985 1277,-83.6985 1277,-65.6985 1306,-65.6985 1306,-83.6985"/>
<text text-anchor="middle" x="1291.5" y="-72.4985" font-family="Times New Roman,serif" font-size="9.00">&#45;12</text>
</g>
<!-- &#45;12&#45;&gt;0 -->
<g id="edge43" class="edge"><title>&#45;12&#45;&gt;0</title>
<path fill="none" stroke="green" stroke-width="0.231224" d="M1276.56,-67.9123C1273.9,-67.0552 1271.14,-66.2697 1268.5,-65.6985 1095.76,-28.392 1040.96,-83.108 872.5,-29.6985 871.445,-29.3641 870.386,-28.978 869.333,-28.5522"/>
<polygon fill="green" stroke="green" stroke-width="0.231224" points="870.741,-25.3426 860.235,-23.9714 867.592,-31.5947 870.741,-25.3426"/>
</g>
<!-- &#45;12&#45;&gt;1 -->
<g id="edge44" class="edge"><title>&#45;12&#45;&gt;1</title>
<path fill="none" stroke="green" stroke-width="0.359401" d="M1276.55,-67.94C1273.9,-67.0799 1271.14,-66.2861 1268.5,-65.6985 1116.72,-31.9311 1068.43,-77.6105 920.5,-29.6985 919.447,-29.3576 918.39,-28.9661 917.338,-28.5359"/>
<polygon fill="green" stroke="green" stroke-width="0.359401" points="918.749,-25.3274 908.245,-23.9391 915.59,-31.5745 918.749,-25.3274"/>
</g>
<!-- &#45;12&#45;&gt;2 -->
<g id="edge45" class="edge"><title>&#45;12&#45;&gt;2</title>
<path fill="none" stroke="green" stroke-width="0.207079" d="M1276.51,-68.1078C1273.86,-67.229 1271.12,-66.3855 1268.5,-65.6985 1177.21,-41.7341 1065.93,-25.4806 1017.27,-19.0004"/>
<polygon fill="green" stroke="green" stroke-width="0.207079" points="1017.71,-15.5282 1007.34,-17.6987 1016.8,-22.4688 1017.71,-15.5282"/>
</g>
<!-- &#45;12&#45;&gt;3 -->
<g id="edge46" class="edge"><title>&#45;12&#45;&gt;3</title>
<path fill="none" stroke="red" stroke-width="0.108099" d="M1276.54,-67.9764C1273.89,-67.1122 1271.14,-66.3076 1268.5,-65.6985 1137.66,-35.465 1095.91,-72.1203 968.5,-29.6985 967.621,-29.4059 966.739,-29.0791 965.859,-28.7248"/>
<polygon fill="red" stroke="red" stroke-width="0.108099" points="967.264,-25.5144 956.753,-24.1863 964.141,-31.7794 967.264,-25.5144"/>
</g>
<!-- &#45;13 -->
<g id="node13" class="node"><title>&#45;13</title>
<polygon fill="lightgray" stroke="black" points="1353,-83.6985 1324,-83.6985 1324,-65.6985 1353,-65.6985 1353,-83.6985"/>
<text text-anchor="middle" x="1338.5" y="-72.4985" font-family="Times New Roman,serif" font-size="9.00">&#45;13</text>
</g>
<!-- &#45;13&#45;&gt;0 -->
<g id="edge47" class="edge"><title>&#45;13&#45;&gt;0</title>
<path fill="none" stroke="green" stroke-width="0.309112" d="M1323.56,-67.891C1320.91,-67.0362 1318.15,-66.257 1315.5,-65.6985 1122.22,-24.9234 1061.08,-88.4957 872.5,-29.6985 871.444,-29.3692 870.383,-28.9872 869.329,-28.5648"/>
<polygon fill="green" stroke="green" stroke-width="0.309112" points="870.734,-25.3543 860.227,-23.9963 867.594,-31.6104 870.734,-25.3543"/>
</g>
<!-- &#45;13&#45;&gt;1 -->
<g id="edge48" class="edge"><title>&#45;13&#45;&gt;1</title>
<path fill="none" stroke="red" stroke-width="0.253653" d="M1323.56,-67.9129C1320.9,-67.0557 1318.14,-66.27 1315.5,-65.6985 1143.19,-28.4658 1088.53,-82.9934 920.5,-29.6985 919.445,-29.364 918.386,-28.9778 917.333,-28.5519"/>
<polygon fill="red" stroke="red" stroke-width="0.253653" points="918.741,-25.3423 908.235,-23.9708 915.592,-31.5944 918.741,-25.3423"/>
</g>
<!-- &#45;13&#45;&gt;2 -->
<g id="edge49" class="edge"><title>&#45;13&#45;&gt;2</title>
<path fill="none" stroke="green" stroke-width="0.226983" d="M1323.52,-68.0512C1320.88,-67.1787 1318.13,-66.352 1315.5,-65.6985 1206.04,-38.4548 1071.79,-23.4621 1017.27,-18.1226"/>
<polygon fill="green" stroke="green" stroke-width="0.226983" points="1017.46,-14.6247 1007.17,-17.1556 1016.79,-21.5929 1017.46,-14.6247"/>
</g>
<!-- &#45;13&#45;&gt;3 -->
<g id="edge50" class="edge"><title>&#45;13&#45;&gt;3</title>
<path fill="none" stroke="red" stroke-width="0.359049" d="M1323.55,-67.9407C1320.9,-67.0805 1318.14,-66.2865 1315.5,-65.6985 1164.16,-32.0047 1116,-77.496 968.5,-29.6985 967.447,-29.3574 966.39,-28.9658 965.338,-28.5356"/>
<polygon fill="red" stroke="red" stroke-width="0.359049" points="966.749,-25.327 956.245,-23.9384 963.59,-31.574 966.749,-25.327"/>
</g>
<!-- &#45;14 -->
<g id="node14" class="node"><title>&#45;14</title>
<polygon fill="lightgray" stroke="black" points="1400,-83.6985 1371,-83.6985 1371,-65.6985 1400,-65.6985 1400,-83.6985"/>
<text text-anchor="middle" x="1385.5" y="-72.4985" font-family="Times New Roman,serif" font-size="9.00">&#45;14</text>
</g>
<!-- &#45;14&#45;&gt;0 -->
<g id="edge51" class="edge"><title>&#45;14&#45;&gt;0</title>
<path fill="none" stroke="green" stroke-width="0.193875" d="M1370.56,-67.8737C1367.91,-67.0209 1365.15,-66.2467 1362.5,-65.6985 1148.66,-21.4524 1081.22,-93.8867 872.5,-29.6985 871.442,-29.3732 870.381,-28.9947 869.325,-28.5749"/>
<polygon fill="green" stroke="green" stroke-width="0.193875" points="870.73,-25.3638 860.221,-24.0164 867.596,-31.6231 870.73,-25.3638"/>
</g>
<!-- &#45;14&#45;&gt;1 -->
<g id="edge52" class="edge"><title>&#45;14&#45;&gt;1</title>
<path fill="none" stroke="red" stroke-width="0.29919" d="M1370.56,-67.8914C1367.91,-67.0366 1365.15,-66.2572 1362.5,-65.6985 1169.65,-24.9972 1108.66,-88.381 920.5,-29.6985 919.444,-29.3691 918.384,-28.987 917.329,-28.5645"/>
<polygon fill="red" stroke="red" stroke-width="0.29919" points="918.735,-25.3541 908.227,-23.9958 915.594,-31.6101 918.735,-25.3541"/>
</g>
<!-- &#45;14&#45;&gt;2 -->
<g id="edge53" class="edge"><title>&#45;14&#45;&gt;2</title>
<path fill="none" stroke="green" stroke-width="0.104738" d="M1370.53,-68.0086C1367.89,-67.1409 1365.13,-66.3267 1362.5,-65.6985 1234.9,-35.2374 1077.78,-21.7826 1017.58,-17.4839"/>
<polygon fill="green" stroke="green" stroke-width="0.104738" points="1017.72,-13.9849 1007.5,-16.7857 1017.24,-20.9682 1017.72,-13.9849"/>
</g>
<!-- &#45;14&#45;&gt;3 -->
<g id="edge54" class="edge"><title>&#45;14&#45;&gt;3</title>
<path fill="none" stroke="red" stroke-width="0.680748" d="M1370.56,-67.9134C1367.9,-67.0562 1365.14,-66.2703 1362.5,-65.6985 1190.63,-28.5395 1136.11,-82.8788 968.5,-29.6985 967.445,-29.3639 966.387,-28.9776 965.333,-28.5516"/>
<polygon fill="red" stroke="red" stroke-width="0.680748" points="966.741,-25.342 956.235,-23.9702 963.592,-31.594 966.741,-25.342"/>
</g>
<!-- &#45;15 -->
<g id="node15" class="node"><title>&#45;15</title>
<polygon fill="lightgray" stroke="black" points="1447,-83.6985 1418,-83.6985 1418,-65.6985 1447,-65.6985 1447,-83.6985"/>
<text text-anchor="middle" x="1432.5" y="-72.4985" font-family="Times New Roman,serif" font-size="9.00">&#45;15</text>
</g>
<!-- &#45;15&#45;&gt;0 -->
<g id="edge55" class="edge"><title>&#45;15&#45;&gt;0</title>
<path fill="none" stroke="red" stroke-width="0.224918" d="M1417.57,-67.8593C1414.91,-67.0081 1412.15,-66.2383 1409.5,-65.6985 1175.11,-17.9799 1101.36,-99.2801 872.5,-29.6985 871.441,-29.3766 870.379,-29.0008 869.323,-28.5833"/>
<polygon fill="red" stroke="red" stroke-width="0.224918" points="870.726,-25.3717 860.216,-24.0331 867.597,-31.6336 870.726,-25.3717"/>
</g>
<!-- &#45;15&#45;&gt;1 -->
<g id="edge56" class="edge"><title>&#45;15&#45;&gt;1</title>
<path fill="none" stroke="green" stroke-width="0.246399" d="M1417.56,-67.874C1414.91,-67.0212 1412.15,-66.2469 1409.5,-65.6985 1196.1,-21.5263 1128.79,-93.772 920.5,-29.6985 919.442,-29.3732 918.381,-28.9945 917.325,-28.5747"/>
<polygon fill="green" stroke="green" stroke-width="0.246399" points="918.73,-25.3636 908.221,-24.016 915.596,-31.6229 918.73,-25.3636"/>
</g>
<!-- &#45;15&#45;&gt;2 -->
<g id="edge57" class="edge"><title>&#45;15&#45;&gt;2</title>
<path fill="none" stroke="red" stroke-width="0.625841" d="M1417.54,-67.9754C1414.89,-67.1113 1412.14,-66.307 1409.5,-65.6985 1263.43,-31.9813 1083.01,-20.2688 1017.63,-16.9641"/>
<polygon fill="red" stroke="red" stroke-width="0.625841" points="1017.63,-13.4599 1007.47,-16.4724 1017.29,-20.4517 1017.63,-13.4599"/>
</g>
<!-- &#45;15&#45;&gt;3 -->
<g id="edge58" class="edge"><title>&#45;15&#45;&gt;3</title>
<path fill="none" stroke="green" stroke-width="0.161048" d="M1417.56,-67.8918C1414.91,-67.037 1412.15,-66.2575 1409.5,-65.6985 1217.09,-25.071 1156.23,-88.2664 968.5,-29.6985 967.444,-29.369 966.384,-28.9869 965.329,-28.5643"/>
<polygon fill="green" stroke="green" stroke-width="0.161048" points="966.735,-25.3538 956.227,-23.9953 963.594,-31.6098 966.735,-25.3538"/>
</g>
<!-- &#45;16 -->
<g id="node16" class="node"><title>&#45;16</title>
<polygon fill="lightgray" stroke="black" points="1494,-83.6985 1465,-83.6985 1465,-65.6985 1494,-65.6985 1494,-83.6985"/>
<text text-anchor="middle" x="1479.5" y="-72.4985" font-family="Times New Roman,serif" font-size="9.00">&#45;16</text>
</g>
<!-- &#45;16&#45;&gt;0 -->
<g id="edge59" class="edge"><title>&#45;16&#45;&gt;0</title>
<path fill="none" stroke="green" stroke-width="0.638838" d="M1464.57,-67.8473C1461.92,-66.9974 1459.15,-66.2311 1456.5,-65.6985 1201.54,-14.5061 1121.51,-104.675 872.5,-29.6985 871.441,-29.3795 870.378,-29.006 869.321,-28.5904"/>
<polygon fill="green" stroke="green" stroke-width="0.638838" points="870.722,-25.3783 860.211,-24.0471 867.598,-31.6424 870.722,-25.3783"/>
</g>
<!-- &#45;16&#45;&gt;1 -->
<g id="edge60" class="edge"><title>&#45;16&#45;&gt;1</title>
<path fill="none" stroke="green" stroke-width="0.30184" d="M1464.57,-67.8596C1461.91,-67.0084 1459.15,-66.2384 1456.5,-65.6985 1222.54,-18.0538 1148.93,-99.1653 920.5,-29.6985 919.441,-29.3766 918.379,-29.0007 917.323,-28.5832"/>
<polygon fill="green" stroke="green" stroke-width="0.30184" points="918.726,-25.3715 908.216,-24.0328 915.597,-31.6334 918.726,-25.3715"/>
</g>
<!-- &#45;16&#45;&gt;2 -->
<g id="edge61" class="edge"><title>&#45;16&#45;&gt;2</title>
<path fill="none" stroke="red" stroke-width="0.371412" d="M1464.55,-67.9488C1461.9,-67.0877 1459.14,-66.2913 1456.5,-65.6985 1291.79,-28.715 1087.84,-18.9116 1017.62,-16.5435"/>
<polygon fill="red" stroke="red" stroke-width="0.371412" points="1017.63,-13.0422 1007.53,-16.2242 1017.41,-20.0387 1017.63,-13.0422"/>
</g>
<!-- &#45;16&#45;&gt;3 -->
<g id="edge62" class="edge"><title>&#45;16&#45;&gt;3</title>
<path fill="none" stroke="red" stroke-width="0.101031" d="M1464.56,-67.8743C1461.91,-67.0215 1459.15,-66.2471 1456.5,-65.6985 1243.54,-21.6002 1176.36,-93.6572 968.5,-29.6985 967.442,-29.3731 966.381,-28.9944 965.326,-28.5745"/>
<polygon fill="red" stroke="red" stroke-width="0.101031" points="966.73,-25.3634 956.221,-24.0156 963.596,-31.6226 966.73,-25.3634"/>
</g>
<!-- &#45;17 -->
<g id="node17" class="node"><title>&#45;17</title>
<polygon fill="lightgray" stroke="black" points="1541,-83.6985 1512,-83.6985 1512,-65.6985 1541,-65.6985 1541,-83.6985"/>
<text text-anchor="middle" x="1526.5" y="-72.4985" font-family="Times New Roman,serif" font-size="9.00">&#45;17</text>
</g>
<!-- &#45;17&#45;&gt;0 -->
<g id="edge63" class="edge"><title>&#45;17&#45;&gt;0</title>
<path fill="none" stroke="red" stroke-width="0.485067" d="M1511.57,-67.8371C1508.92,-66.9883 1506.15,-66.2251 1503.5,-65.6985 1227.97,-11.0314 1141.66,-110.072 872.5,-29.6985 871.44,-29.3819 870.376,-29.0104 869.319,-28.5964"/>
<polygon fill="red" stroke="red" stroke-width="0.485067" points="870.719,-25.384 860.208,-24.059 867.599,-31.65 870.719,-25.384"/>
</g>
<!-- &#45;17&#45;&gt;1 -->
<g id="edge64" class="edge"><title>&#45;17&#45;&gt;1</title>
<path fill="none" stroke="green" stroke-width="0.293607" d="M1511.57,-67.8476C1508.92,-66.9977 1506.15,-66.2313 1503.5,-65.6985 1248.98,-14.58 1169.08,-104.56 920.5,-29.6985 919.441,-29.3794 918.378,-29.0059 917.321,-28.5903"/>
<polygon fill="green" stroke="green" stroke-width="0.293607" points="918.722,-25.3782 908.211,-24.0468 915.598,-31.6423 918.722,-25.3782"/>
</g>
<!-- &#45;17&#45;&gt;2 -->
<g id="edge65" class="edge"><title>&#45;17&#45;&gt;2</title>
<path fill="none" stroke="green" stroke-width="0.231848" d="M1511.55,-67.927C1508.9,-67.0683 1506.14,-66.2784 1503.5,-65.6985 1320.07,-25.4508 1092.46,-17.6865 1017.62,-16.1988"/>
<polygon fill="green" stroke="green" stroke-width="0.231848" points="1017.39,-12.6943 1007.33,-16.0158 1017.27,-19.6932 1017.39,-12.6943"/>
</g>
<!-- &#45;17&#45;&gt;3 -->
<g id="edge66" class="edge"><title>&#45;17&#45;&gt;3</title>
<path fill="none" stroke="green" stroke-width="0.309296" d="M1511.57,-67.8599C1508.91,-67.0086 1506.15,-66.2386 1503.5,-65.6985 1269.98,-18.1277 1196.5,-99.0505 968.5,-29.6985 967.441,-29.3765 966.379,-29.0006 965.323,-28.583"/>
<polygon fill="green" stroke="green" stroke-width="0.309296" points="966.726,-25.3714 956.216,-24.0324 963.597,-31.6332 966.726,-25.3714"/>
</g>
<!-- &#45;18 -->
<g id="node18" class="node"><title>&#45;18</title>
<polygon fill="lightgray" stroke="black" points="1588,-83.6985 1559,-83.6985 1559,-65.6985 1588,-65.6985 1588,-83.6985"/>
<text text-anchor="middle" x="1573.5" y="-72.4985" font-family="Times New Roman,serif" font-size="9.00">&#45;18</text>
</g>
<!-- &#45;18&#45;&gt;0 -->
<g id="edge67" class="edge"><title>&#45;18&#45;&gt;0</title>
<path fill="none" stroke="green" stroke-width="0.13365" d="M1558.57,-67.8282C1555.92,-66.9805 1553.16,-66.2198 1550.5,-65.6985 1254.4,-7.55591 1161.81,-115.469 872.5,-29.6985 871.439,-29.384 870.375,-29.0142 869.317,-28.6016"/>
<polygon fill="green" stroke="green" stroke-width="0.13365" points="870.717,-25.3889 860.205,-24.0693 867.6,-31.6564 870.717,-25.3889"/>
</g>
<!-- &#45;18&#45;&gt;1 -->
<g id="edge68" class="edge"><title>&#45;18&#45;&gt;1</title>
<path fill="none" stroke="green" stroke-width="0.465085" d="M1558.57,-67.8373C1555.92,-66.9885 1553.15,-66.2252 1550.5,-65.6985 1275.41,-11.1053 1189.23,-109.957 920.5,-29.6985 919.44,-29.3819 918.376,-29.0103 917.319,-28.5963"/>
<polygon fill="green" stroke="green" stroke-width="0.465085" points="918.72,-25.3839 908.208,-24.0588 915.599,-31.6498 918.72,-25.3839"/>
</g>
<!-- &#45;18&#45;&gt;2 -->
<g id="edge69" class="edge"><title>&#45;18&#45;&gt;2</title>
<path fill="none" stroke="red" stroke-width="0.155752" d="M1558.56,-67.9089C1555.91,-67.0522 1553.15,-66.2676 1550.5,-65.6985 1348.4,-22.217 1097.24,-16.5747 1017.8,-15.9121"/>
<polygon fill="red" stroke="red" stroke-width="0.155752" points="1017.38,-12.4094 1007.36,-15.8465 1017.33,-19.4093 1017.38,-12.4094"/>
</g>
<!-- &#45;18&#45;&gt;3 -->
<g id="edge70" class="edge"><title>&#45;18&#45;&gt;3</title>
<path fill="none" stroke="red" stroke-width="0.188002" d="M1558.57,-67.8478C1555.92,-66.9979 1553.15,-66.2314 1550.5,-65.6985 1296.42,-14.654 1216.65,-104.446 968.5,-29.6985 967.441,-29.3794 966.378,-29.0058 965.321,-28.5901"/>
<polygon fill="red" stroke="red" stroke-width="0.188002" points="966.722,-25.3781 956.212,-24.0466 963.598,-31.6421 966.722,-25.3781"/>
</g>
<!-- &#45;19 -->
<g id="node19" class="node"><title>&#45;19</title>
<polygon fill="lightgray" stroke="black" points="1635,-83.6985 1606,-83.6985 1606,-65.6985 1635,-65.6985 1635,-83.6985"/>
<text text-anchor="middle" x="1620.5" y="-72.4985" font-family="Times New Roman,serif" font-size="9.00">&#45;19</text>
</g>
<!-- &#45;19&#45;&gt;0 -->
<g id="edge71" class="edge"><title>&#45;19&#45;&gt;0</title>
<path fill="none" stroke="green" stroke-width="0.240819" d="M1605.58,-67.8206C1602.92,-66.9737 1600.16,-66.2153 1597.5,-65.6985 1439.16,-34.8892 1027.23,-75.2832 872.5,-29.6985 871.439,-29.3858 870.374,-29.0175 869.316,-28.6062"/>
<polygon fill="green" stroke="green" stroke-width="0.240819" points="870.715,-25.3931 860.202,-24.0783 867.601,-31.6621 870.715,-25.3931"/>
</g>
<!-- &#45;19&#45;&gt;1 -->
<g id="edge72" class="edge"><title>&#45;19&#45;&gt;1</title>
<path fill="none" stroke="green" stroke-width="0.379216" d="M1605.57,-67.8284C1602.92,-66.9806 1600.16,-66.2199 1597.5,-65.6985 1301.83,-7.62986 1209.38,-115.355 920.5,-29.6985 919.439,-29.3839 918.375,-29.0141 917.317,-28.6015"/>
<polygon fill="green" stroke="green" stroke-width="0.379216" points="918.717,-25.3888 908.205,-24.0691 915.6,-31.6563 918.717,-25.3888"/>
</g>
<!-- &#45;19&#45;&gt;2 -->
<g id="edge73" class="edge"><title>&#45;19&#45;&gt;2</title>
<path fill="none" stroke="red" stroke-width="0.191399" d="M1605.56,-67.8935C1602.91,-67.0385 1600.15,-66.2585 1597.5,-65.6985 1376.46,-18.9383 1101.37,-15.5359 1017.75,-15.6657"/>
<polygon fill="red" stroke="red" stroke-width="0.191399" points="1017.66,-12.1659 1007.67,-15.7009 1017.68,-19.1658 1017.66,-12.1659"/>
</g>
<!-- &#45;19&#45;&gt;3 -->
<g id="edge74" class="edge"><title>&#45;19&#45;&gt;3</title>
<path fill="none" stroke="green" stroke-width="0.254129" d="M1605.57,-67.8375C1602.92,-66.9887 1600.15,-66.2253 1597.5,-65.6985 1322.85,-11.1793 1236.8,-109.842 968.5,-29.6985 967.44,-29.3818 966.376,-29.0102 965.319,-28.5962"/>
<polygon fill="green" stroke="green" stroke-width="0.254129" points="966.72,-25.3837 956.208,-24.0586 963.599,-31.6497 966.72,-25.3837"/>
</g>
<!-- &#45;20 -->
<g id="node20" class="node"><title>&#45;20</title>
<polygon fill="lightgray" stroke="black" points="1772,-83.6985 1743,-83.6985 1743,-65.6985 1772,-65.6985 1772,-83.6985"/>
<text text-anchor="middle" x="1757.5" y="-72.4985" font-family="Times New Roman,serif" font-size="9.00">&#45;20</text>
</g>
<!-- &#45;20&#45;&gt;1 -->
<g id="edge75" class="edge"><title>&#45;20&#45;&gt;1</title>
<path fill="none" stroke="red" stroke-width="0.711259" d="M1742.95,-68.1328C1739.87,-67.1585 1736.61,-66.274 1733.5,-65.6985 1555.68,-32.7883 1094.11,-80.338 920.5,-29.6985 919.438,-29.3887 918.373,-29.0227 917.314,-28.6132"/>
<polygon fill="red" stroke="red" stroke-width="0.711259" points="918.712,-25.3998 908.198,-24.0923 915.602,-31.6709 918.712,-25.3998"/>
</g>
<!-- &#45;20&#45;&gt;2 -->
<g id="edge76" class="edge"><title>&#45;20&#45;&gt;2</title>
<path fill="none" stroke="green" stroke-width="0.138354" d="M1742.94,-68.188C1739.86,-67.2097 1736.6,-66.3096 1733.5,-65.6985 1591.79,-37.7883 1130.59,-20.5503 1017.64,-16.6811"/>
<polygon fill="green" stroke="green" stroke-width="0.138354" points="1017.65,-13.1796 1007.54,-16.3391 1017.41,-20.1756 1017.65,-13.1796"/>
</g>
<!-- &#45;20&#45;&gt;3 -->
<g id="edge77" class="edge"><title>&#45;20&#45;&gt;3</title>
<path fill="none" stroke="red" stroke-width="0.484477" d="M1742.95,-68.1395C1739.87,-67.1647 1736.61,-66.2783 1733.5,-65.6985 1566.2,-34.4955 1131.81,-77.5807 968.5,-29.6985 967.438,-29.3872 966.374,-29.02 965.315,-28.6096"/>
<polygon fill="red" stroke="red" stroke-width="0.484477" points="966.713,-25.3963 956.2,-24.0851 963.601,-31.6664 966.713,-25.3963"/>
</g>
<!-- &#45;21 -->
<g id="node21" class="node"><title>&#45;21</title>
<polygon fill="lightgray" stroke="black" points="1682,-83.6985 1653,-83.6985 1653,-65.6985 1682,-65.6985 1682,-83.6985"/>
<text text-anchor="middle" x="1667.5" y="-72.4985" font-family="Times New Roman,serif" font-size="9.00">&#45;21</text>
</g>
<!-- &#45;21&#45;&gt;0 -->
<g id="edge78" class="edge"><title>&#45;21&#45;&gt;0</title>
<path fill="none" stroke="red" stroke-width="0.117152" d="M1652.58,-67.8138C1649.92,-66.9676 1647.16,-66.2113 1644.5,-65.6985 1475.87,-33.1509 1037.31,-77.9828 872.5,-29.6985 871.438,-29.3874 870.373,-29.0204 869.315,-28.6101"/>
<polygon fill="red" stroke="red" stroke-width="0.117152" points="870.713,-25.3969 860.2,-24.0862 867.601,-31.6671 870.713,-25.3969"/>
</g>
<!-- &#45;21&#45;&gt;1 -->
<g id="edge79" class="edge"><title>&#45;21&#45;&gt;1</title>
<path fill="none" stroke="red" stroke-width="0.122567" d="M1652.58,-67.8207C1649.92,-66.9738 1647.16,-66.2154 1644.5,-65.6985 1486.38,-34.9262 1075.02,-75.2258 920.5,-29.6985 919.439,-29.3858 918.374,-29.0175 917.316,-28.6061"/>
<polygon fill="red" stroke="red" stroke-width="0.122567" points="918.715,-25.393 908.202,-24.0781 915.601,-31.662 918.715,-25.393"/>
</g>
<!-- &#45;21&#45;&gt;2 -->
<g id="edge80" class="edge"><title>&#45;21&#45;&gt;2</title>
<path fill="none" stroke="green" stroke-width="0.454069" d="M1652.56,-67.8803C1649.91,-67.0268 1647.15,-66.2507 1644.5,-65.6985 1404.17,-15.5976 1104.62,-14.5693 1017.39,-15.4578"/>
<polygon fill="green" stroke="green" stroke-width="0.454069" points="1017.34,-11.9581 1007.39,-15.5787 1017.43,-18.9576 1017.34,-11.9581"/>
</g>
<!-- &#45;21&#45;&gt;3 -->
<g id="edge81" class="edge"><title>&#45;21&#45;&gt;3</title>
<path fill="none" stroke="red" stroke-width="0.263222" d="M1652.57,-67.8286C1649.92,-66.9808 1647.15,-66.22 1644.5,-65.6985 1349.27,-7.70382 1256.95,-115.24 968.5,-29.6985 967.439,-29.3839 966.375,-29.0141 965.317,-28.6014"/>
<polygon fill="red" stroke="red" stroke-width="0.263222" points="966.717,-25.3887 956.205,-24.0689 963.6,-31.6562 966.717,-25.3887"/>
</g>
<!-- &#45;22 -->
<g id="node22" class="node"><title>&#45;22</title>
<polygon fill="lightgray" stroke="black" points="76,-83.6985 47,-83.6985 47,-65.6985 76,-65.6985 76,-83.6985"/>
<text text-anchor="middle" x="61.5" y="-72.4985" font-family="Times New Roman,serif" font-size="9.00">&#45;22</text>
</g>
<!-- &#45;22&#45;&gt;0 -->
<g id="edge82" class="edge"><title>&#45;22&#45;&gt;0</title>
<path fill="none" stroke="red" stroke-width="0.314258" d="M76.4313,-67.8554C79.0848,-67.0046 81.8482,-66.2359 84.5,-65.6985 230.746,-36.0611 708.138,-20.0659 823.323,-16.5806"/>
<polygon fill="red" stroke="red" stroke-width="0.314258" points="823.708,-20.0708 833.599,-16.274 823.499,-13.0739 823.708,-20.0708"/>
</g>
<!-- &#45;22&#45;&gt;1 -->
<g id="edge83" class="edge"><title>&#45;22&#45;&gt;1</title>
<path fill="none" stroke="red" stroke-width="0.432478" d="M76.4227,-67.8117C79.0771,-66.9658 81.8431,-66.21 84.5,-65.6985 256.633,-32.5591 704.253,-78.9019 872.5,-29.6985 873.562,-29.3879 874.627,-29.0214 875.686,-28.6114"/>
<polygon fill="red" stroke="red" stroke-width="0.432478" points="877.399,-31.6686 884.801,-24.0887 874.287,-25.398 877.399,-31.6686"/>
</g>
<!-- &#45;22&#45;&gt;2 -->
<g id="edge84" class="edge"><title>&#45;22&#45;&gt;2</title>
<path fill="none" stroke="green" stroke-width="0.174101" d="M76.4205,-67.8006C79.0752,-66.9559 81.8418,-66.2034 84.5,-65.6985 277.653,-29.0079 779.661,-84.417 968.5,-29.6985 969.563,-29.3905 970.628,-29.0261 971.687,-28.6179"/>
<polygon fill="green" stroke="green" stroke-width="0.174101" points="973.397,-31.6768 980.805,-24.1016 970.29,-25.4042 973.397,-31.6768"/>
</g>
<!-- &#45;22&#45;&gt;3 -->
<g id="edge85" class="edge"><title>&#45;22&#45;&gt;3</title>
<path fill="none" stroke="green" stroke-width="0.169809" d="M76.4215,-67.8058C79.0761,-66.9605 81.8424,-66.2065 84.5,-65.6985 267.143,-30.7836 741.957,-81.6593 920.5,-29.6985 921.562,-29.3893 922.628,-29.0239 923.687,-28.6148"/>
<polygon fill="green" stroke="green" stroke-width="0.169809" points="925.398,-31.6729 932.803,-24.0955 922.289,-25.4013 925.398,-31.6729"/>
</g>
<!-- &#45;23 -->
<g id="node23" class="node"><title>&#45;23</title>
<polygon fill="lightgray" stroke="black" points="123,-83.6985 94,-83.6985 94,-65.6985 123,-65.6985 123,-83.6985"/>
<text text-anchor="middle" x="108.5" y="-72.4985" font-family="Times New Roman,serif" font-size="9.00">&#45;23</text>
</g>
<!-- &#45;23&#45;&gt;0 -->
<g id="edge86" class="edge"><title>&#45;23&#45;&gt;0</title>
<path fill="none" stroke="red" stroke-width="0.183098" d="M123.433,-67.8649C126.086,-67.0131 128.849,-66.2415 131.5,-65.6985 268.148,-37.7033 712.975,-20.586 823.478,-16.6986"/>
<polygon fill="red" stroke="red" stroke-width="0.183098" points="823.781,-20.1903 833.654,-16.345 823.538,-13.1945 823.781,-20.1903"/>
</g>
<!-- &#45;23&#45;&gt;1 -->
<g id="edge87" class="edge"><title>&#45;23&#45;&gt;1</title>
<path fill="none" stroke="red" stroke-width="0.294375" d="M123.424,-67.8182C126.078,-66.9715 128.844,-66.2138 131.5,-65.6985 293.343,-34.2974 714.334,-76.2022 872.5,-29.6985 873.562,-29.3864 874.626,-29.0186 875.684,-28.6076"/>
<polygon fill="red" stroke="red" stroke-width="0.294375" points="877.399,-31.6639 884.799,-24.0811 874.286,-25.3944 877.399,-31.6639"/>
</g>
<!-- &#45;23&#45;&gt;2 -->
<g id="edge88" class="edge"><title>&#45;23&#45;&gt;2</title>
<path fill="none" stroke="red" stroke-width="0.459951" stroke-dasharray="1,5" d="M123.422,-67.8057C126.076,-66.9604 128.842,-66.2065 131.5,-65.6985 314.362,-30.7466 789.743,-81.7168 968.5,-29.6985 969.562,-29.3893 970.628,-29.0239 971.687,-28.6149"/>
<polygon fill="red" stroke="red" stroke-width="0.459951" points="973.398,-31.673 980.803,-24.0956 970.289,-25.4013 973.398,-31.673"/>
</g>
<!-- &#45;23&#45;&gt;3 -->
<g id="edge89" class="edge"><title>&#45;23&#45;&gt;3</title>
<path fill="none" stroke="green" stroke-width="0.391596" d="M123.423,-67.8115C126.077,-66.9657 128.843,-66.2099 131.5,-65.6985 303.852,-32.5221 752.039,-78.9593 920.5,-29.6985 921.562,-29.3879 922.627,-29.0214 923.686,-28.6115"/>
<polygon fill="green" stroke="green" stroke-width="0.391596" points="925.399,-31.6687 932.801,-24.0888 922.287,-25.3981 925.399,-31.6687"/>
</g>
<!-- &#45;24 -->
<g id="node24" class="node"><title>&#45;24</title>
<polygon fill="lightgray" stroke="black" points="170,-83.6985 141,-83.6985 141,-65.6985 170,-65.6985 170,-83.6985"/>
<text text-anchor="middle" x="155.5" y="-72.4985" font-family="Times New Roman,serif" font-size="9.00">&#45;24</text>
</g>
<!-- &#45;24&#45;&gt;0 -->
<g id="edge90" class="edge"><title>&#45;24&#45;&gt;0</title>
<path fill="none" stroke="red" stroke-width="0.191266" stroke-dasharray="1,5" d="M170.435,-67.8757C173.088,-67.0227 175.851,-66.248 178.5,-65.6985 425.733,-14.4224 733.916,-14.2201 823.194,-15.3801"/>
<polygon fill="red" stroke="red" stroke-width="0.191266" points="823.151,-18.8798 833.202,-15.5288 823.255,-11.8806 823.151,-18.8798"/>
</g>
<!-- &#45;24&#45;&gt;1 -->
<g id="edge91" class="edge"><title>&#45;24&#45;&gt;1</title>
<path fill="none" stroke="green" stroke-width="0.325244" d="M170.425,-67.8255C173.079,-66.9781 175.845,-66.2182 178.5,-65.6985 481.608,-6.37263 576.327,-117.307 872.5,-29.6985 873.561,-29.3846 874.625,-29.0154 875.683,-28.6032"/>
<polygon fill="green" stroke="green" stroke-width="0.325244" points="877.4,-31.6585 884.796,-24.0725 874.284,-25.3904 877.4,-31.6585"/>
</g>
<!-- &#45;24&#45;&gt;2 -->
<g id="edge92" class="edge"><title>&#45;24&#45;&gt;2</title>
<path fill="none" stroke="green" stroke-width="0.334265" d="M170.423,-67.8114C173.077,-66.9655 175.843,-66.2099 178.5,-65.6985 351.071,-32.4851 799.824,-79.0168 968.5,-29.6985 969.562,-29.388 970.627,-29.0215 971.686,-28.6115"/>
<polygon fill="green" stroke="green" stroke-width="0.334265" points="973.399,-31.6688 980.801,-24.089 970.287,-25.3982 973.399,-31.6688"/>
</g>
<!-- &#45;24&#45;&gt;3 -->
<g id="edge93" class="edge"><title>&#45;24&#45;&gt;3</title>
<path fill="none" stroke="green" stroke-width="0.277232" d="M170.424,-67.818C173.078,-66.9714 175.844,-66.2138 178.5,-65.6985 340.562,-34.2605 762.119,-76.2596 920.5,-29.6985 921.562,-29.3864 922.626,-29.0186 923.684,-28.6077"/>
<polygon fill="green" stroke="green" stroke-width="0.277232" points="925.399,-31.664 932.799,-24.0813 922.286,-25.3945 925.399,-31.664"/>
</g>
<!-- &#45;25 -->
<g id="node25" class="node"><title>&#45;25</title>
<polygon fill="lightgray" stroke="black" points="217,-83.6985 188,-83.6985 188,-65.6985 217,-65.6985 217,-83.6985"/>
<text text-anchor="middle" x="202.5" y="-72.4985" font-family="Times New Roman,serif" font-size="9.00">&#45;25</text>
</g>
<!-- &#45;25&#45;&gt;0 -->
<g id="edge94" class="edge"><title>&#45;25&#45;&gt;0</title>
<path fill="none" stroke="green" stroke-width="0.482197" d="M217.438,-67.8882C220.091,-67.0338 222.852,-66.2554 225.5,-65.6985 453.87,-17.6696 738.243,-15.1572 823.332,-15.5814"/>
<polygon fill="green" stroke="green" stroke-width="0.482197" points="823.327,-19.0814 833.351,-15.6506 823.376,-12.0816 823.327,-19.0814"/>
</g>
<!-- &#45;25&#45;&gt;1 -->
<g id="edge95" class="edge"><title>&#45;25&#45;&gt;1</title>
<path fill="none" stroke="green" stroke-width="0.393681" d="M217.427,-67.8339C220.081,-66.9855 222.846,-66.2232 225.5,-65.6985 508.033,-9.84832 596.483,-111.909 872.5,-29.6985 873.56,-29.3826 874.624,-29.0118 875.682,-28.5983"/>
<polygon fill="green" stroke="green" stroke-width="0.393681" points="877.401,-31.6523 884.793,-24.0627 874.281,-25.3857 877.401,-31.6523"/>
</g>
<!-- &#45;25&#45;&gt;2 -->
<g id="edge96" class="edge"><title>&#45;25&#45;&gt;2</title>
<path fill="none" stroke="red" stroke-width="0.264164" d="M217.424,-67.8179C220.078,-66.9713 222.844,-66.2137 225.5,-65.6985 387.781,-34.2235 809.905,-76.3171 968.5,-29.6985 969.562,-29.3864 970.626,-29.0187 971.684,-28.6077"/>
<polygon fill="red" stroke="red" stroke-width="0.264164" points="973.399,-31.6641 980.799,-24.0814 970.286,-25.3946 973.399,-31.6641"/>
</g>
<!-- &#45;25&#45;&gt;3 -->
<g id="edge97" class="edge"><title>&#45;25&#45;&gt;3</title>
<path fill="none" stroke="green" stroke-width="0.12087" d="M217.425,-67.8253C220.079,-66.9779 222.845,-66.2181 225.5,-65.6985 529.046,-6.29867 623.898,-117.422 920.5,-29.6985 921.561,-29.3847 922.625,-29.0155 923.683,-28.6033"/>
<polygon fill="green" stroke="green" stroke-width="0.12087" points="925.4,-31.6586 932.796,-24.0727 922.284,-25.3905 925.4,-31.6586"/>
</g>
<!-- &#45;26 -->
<g id="node26" class="node"><title>&#45;26</title>
<polygon fill="lightgray" stroke="black" points="264,-83.6985 235,-83.6985 235,-65.6985 264,-65.6985 264,-83.6985"/>
<text text-anchor="middle" x="249.5" y="-72.4985" font-family="Times New Roman,serif" font-size="9.00">&#45;26</text>
</g>
<!-- &#45;26&#45;&gt;0 -->
<g id="edge98" class="edge"><title>&#45;26&#45;&gt;0</title>
<path fill="none" stroke="green" stroke-width="0.303832" d="M264.441,-67.9027C267.094,-67.0467 269.854,-66.2639 272.5,-65.6985 482.027,-20.9227 742.61,-16.1589 823.428,-15.8121"/>
<polygon fill="green" stroke="green" stroke-width="0.303832" points="823.622,-19.3117 833.614,-15.7887 823.606,-12.3117 823.622,-19.3117"/>
</g>
<!-- &#45;26&#45;&gt;1 -->
<g id="edge99" class="edge"><title>&#45;26&#45;&gt;1</title>
<path fill="none" stroke="green" stroke-width="0.167494" d="M264.429,-67.8437C267.083,-66.9942 269.847,-66.229 272.5,-65.6985 534.462,-13.3233 616.635,-106.512 872.5,-29.6985 873.56,-29.3803 874.623,-29.0076 875.68,-28.5926"/>
<polygon fill="green" stroke="green" stroke-width="0.167494" points="877.402,-31.6451 884.79,-24.0514 874.279,-25.3803 877.402,-31.6451"/>
</g>
<!-- &#45;26&#45;&gt;2 -->
<g id="edge100" class="edge"><title>&#45;26&#45;&gt;2</title>
<path fill="none" stroke="red" stroke-width="0.455441" d="M264.425,-67.8252C267.079,-66.9778 269.845,-66.218 272.5,-65.6985 576.484,-6.22472 671.469,-117.537 968.5,-29.6985 969.561,-29.3847 970.625,-29.0155 971.683,-28.6034"/>
<polygon fill="red" stroke="red" stroke-width="0.455441" points="973.4,-31.6587 980.796,-24.0729 970.284,-25.3905 973.4,-31.6587"/>
</g>
<!-- &#45;26&#45;&gt;3 -->
<g id="edge101" class="edge"><title>&#45;26&#45;&gt;3</title>
<path fill="none" stroke="red" stroke-width="0.288523" d="M264.427,-67.8337C267.081,-66.9854 269.846,-66.2231 272.5,-65.6985 555.471,-9.77437 644.054,-112.024 920.5,-29.6985 921.56,-29.3827 922.624,-29.0119 923.682,-28.5984"/>
<polygon fill="red" stroke="red" stroke-width="0.288523" points="925.401,-31.6524 932.793,-24.0629 922.281,-25.3858 925.401,-31.6524"/>
</g>
<!-- &#45;27 -->
<g id="node27" class="node"><title>&#45;27</title>
<polygon fill="lightgray" stroke="black" points="311,-83.6985 282,-83.6985 282,-65.6985 311,-65.6985 311,-83.6985"/>
<text text-anchor="middle" x="296.5" y="-72.4985" font-family="Times New Roman,serif" font-size="9.00">&#45;27</text>
</g>
<!-- &#45;27&#45;&gt;0 -->
<g id="edge102" class="edge"><title>&#45;27&#45;&gt;0</title>
<path fill="none" stroke="green" stroke-width="0.276736" d="M311.445,-67.9197C314.097,-67.0618 316.856,-66.274 319.5,-65.6985 510.222,-24.1801 747.061,-17.2395 823.487,-16.0809"/>
<polygon fill="green" stroke="green" stroke-width="0.276736" points="823.621,-19.5795 833.574,-15.9485 823.529,-12.5801 823.621,-19.5795"/>
</g>
<!-- &#45;27&#45;&gt;1 -->
<g id="edge103" class="edge"><title>&#45;27&#45;&gt;1</title>
<path fill="none" stroke="red" stroke-width="0.738431" d="M311.431,-67.855C314.085,-67.0043 316.848,-66.2357 319.5,-65.6985 560.895,-16.7975 636.784,-101.117 872.5,-29.6985 873.559,-29.3777 874.621,-29.0027 875.678,-28.5859"/>
<polygon fill="red" stroke="red" stroke-width="0.738431" points="877.403,-31.6368 884.786,-24.0381 874.276,-25.3741 877.403,-31.6368"/>
</g>
<!-- &#45;27&#45;&gt;2 -->
<g id="edge104" class="edge"><title>&#45;27&#45;&gt;2</title>
<path fill="none" stroke="red" stroke-width="0.65508" d="M311.427,-67.8335C314.081,-66.9852 316.846,-66.223 319.5,-65.6985 602.909,-9.70043 691.625,-112.139 968.5,-29.6985 969.56,-29.3827 970.624,-29.0119 971.682,-28.5985"/>
<polygon fill="red" stroke="red" stroke-width="0.65508" points="973.401,-31.6525 980.793,-24.0632 970.281,-25.3859 973.401,-31.6525"/>
</g>
<!-- &#45;27&#45;&gt;3 -->
<g id="edge105" class="edge"><title>&#45;27&#45;&gt;3</title>
<path fill="none" stroke="green" stroke-width="0.20656" d="M311.429,-67.8434C314.083,-66.994 316.847,-66.2288 319.5,-65.6985 581.899,-13.2494 664.207,-106.627 920.5,-29.6985 921.56,-29.3804 922.623,-29.0077 923.68,-28.5927"/>
<polygon fill="green" stroke="green" stroke-width="0.20656" points="925.402,-31.6453 932.79,-24.0516 922.279,-25.3805 925.402,-31.6453"/>
</g>
<!-- &#45;28 -->
<g id="node28" class="node"><title>&#45;28</title>
<polygon fill="lightgray" stroke="black" points="358,-83.6985 329,-83.6985 329,-65.6985 358,-65.6985 358,-83.6985"/>
<text text-anchor="middle" x="343.5" y="-72.4985" font-family="Times New Roman,serif" font-size="9.00">&#45;28</text>
</g>
<!-- &#45;28&#45;&gt;0 -->
<g id="edge106" class="edge"><title>&#45;28&#45;&gt;0</title>
<path fill="none" stroke="green" stroke-width="0.100099" d="M358.449,-67.94C361.101,-67.0798 363.859,-66.286 366.5,-65.6985 537.988,-27.5491 750.433,-18.4684 822.902,-16.4172"/>
<polygon fill="green" stroke="green" stroke-width="0.100099" points="823.399,-19.9055 833.304,-16.145 823.215,-12.9079 823.399,-19.9055"/>
</g>
<!-- &#45;28&#45;&gt;1 -->
<g id="edge107" class="edge"><title>&#45;28&#45;&gt;1</title>
<path fill="none" stroke="red" stroke-width="0.703943" d="M358.434,-67.8685C361.087,-67.0163 363.85,-66.2437 366.5,-65.6985 587.333,-20.2705 656.927,-95.7225 872.5,-29.6985 873.558,-29.3745 874.62,-28.9969 875.676,-28.578"/>
<polygon fill="red" stroke="red" stroke-width="0.703943" points="877.404,-31.6269 884.781,-24.0224 874.272,-25.3666 877.404,-31.6269"/>
</g>
<!-- &#45;28&#45;&gt;2 -->
<g id="edge108" class="edge"><title>&#45;28&#45;&gt;2</title>
<path fill="none" stroke="red" stroke-width="0.145771" d="M358.429,-67.8432C361.083,-66.9938 363.847,-66.2287 366.5,-65.6985 629.337,-13.1755 711.778,-106.742 968.5,-29.6985 969.56,-29.3804 970.623,-29.0078 971.68,-28.5928"/>
<polygon fill="red" stroke="red" stroke-width="0.145771" points="973.402,-31.6454 980.79,-24.0519 970.279,-25.3806 973.402,-31.6454"/>
</g>
<!-- &#45;28&#45;&gt;3 -->
<g id="edge109" class="edge"><title>&#45;28&#45;&gt;3</title>
<path fill="none" stroke="red" stroke-width="0.527571" stroke-dasharray="1,5" d="M358.431,-67.8548C361.085,-67.0041 363.848,-66.2355 366.5,-65.6985 608.332,-16.7235 684.355,-101.231 920.5,-29.6985 921.559,-29.3777 922.621,-29.0028 923.678,-28.586"/>
<polygon fill="red" stroke="red" stroke-width="0.527571" points="925.403,-31.637 932.786,-24.0384 922.276,-25.3742 925.403,-31.637"/>
</g>
<!-- &#45;29 -->
<g id="node29" class="node"><title>&#45;29</title>
<polygon fill="lightgray" stroke="black" points="405,-83.6985 376,-83.6985 376,-65.6985 405,-65.6985 405,-83.6985"/>
<text text-anchor="middle" x="390.5" y="-72.4985" font-family="Times New Roman,serif" font-size="9.00">&#45;29</text>
</g>
<!-- &#45;29&#45;&gt;0 -->
<g id="edge110" class="edge"><title>&#45;29&#45;&gt;0</title>
<path fill="none" stroke="green" stroke-width="0.181044" d="M405.455,-67.9646C408.106,-67.1017 410.862,-66.3006 413.5,-65.6985 566.889,-30.6856 756.598,-19.7034 823.629,-16.7813"/>
<polygon fill="green" stroke="green" stroke-width="0.181044" points="823.81,-20.2769 833.656,-16.3655 823.52,-13.2829 823.81,-20.2769"/>
</g>
<!-- &#45;29&#45;&gt;1 -->
<g id="edge111" class="edge"><title>&#45;29&#45;&gt;1</title>
<path fill="none" stroke="red" stroke-width="0.120691" d="M405.437,-67.8847C408.09,-67.0307 410.852,-66.2533 413.5,-65.6985 613.779,-23.742 677.063,-90.3306 872.5,-29.6985 873.557,-29.3706 874.617,-28.9899 875.673,-28.5685"/>
<polygon fill="red" stroke="red" stroke-width="0.120691" points="877.405,-31.615 884.775,-24.0036 874.267,-25.3577 877.405,-31.615"/>
</g>
<!-- &#45;29&#45;&gt;2 -->
<g id="edge112" class="edge"><title>&#45;29&#45;&gt;2</title>
<path fill="none" stroke="green" stroke-width="0.389556" stroke-dasharray="1,5" d="M405.431,-67.8545C408.085,-67.0038 410.848,-66.2354 413.5,-65.6985 655.77,-16.6496 731.926,-101.346 968.5,-29.6985 969.559,-29.3778 970.621,-29.0029 971.678,-28.5862"/>
<polygon fill="green" stroke="green" stroke-width="0.389556" points="973.403,-31.6372 980.786,-24.0387 970.276,-25.3744 973.403,-31.6372"/>
</g>
<!-- &#45;29&#45;&gt;3 -->
<g id="edge113" class="edge"><title>&#45;29&#45;&gt;3</title>
<path fill="none" stroke="green" stroke-width="0.393973" d="M405.434,-67.8682C408.087,-67.016 410.85,-66.2435 413.5,-65.6985 634.771,-20.1966 704.498,-95.8372 920.5,-29.6985 921.558,-29.3745 922.62,-28.997 923.676,-28.5782"/>
<polygon fill="green" stroke="green" stroke-width="0.393973" points="925.404,-31.6271 932.781,-24.0228 922.272,-25.3668 925.404,-31.6271"/>
</g>
<!-- &#45;30 -->
<g id="node30" class="node"><title>&#45;30</title>
<polygon fill="lightgray" stroke="black" points="452,-83.6985 423,-83.6985 423,-65.6985 452,-65.6985 452,-83.6985"/>
<text text-anchor="middle" x="437.5" y="-72.4985" font-family="Times New Roman,serif" font-size="9.00">&#45;30</text>
</g>
<!-- &#45;30&#45;&gt;0 -->
<g id="edge114" class="edge"><title>&#45;30&#45;&gt;0</title>
<path fill="none" stroke="red" stroke-width="0.145075" d="M452.462,-67.995C455.112,-67.1287 457.866,-66.3186 460.5,-65.6985 595.203,-33.98 761.288,-21.1727 823.456,-17.2668"/>
<polygon fill="red" stroke="red" stroke-width="0.145075" points="823.731,-20.7567 833.501,-16.6574 823.307,-13.7695 823.731,-20.7567"/>
</g>
<!-- &#45;30&#45;&gt;1 -->
<g id="edge115" class="edge"><title>&#45;30&#45;&gt;1</title>
<path fill="none" stroke="red" stroke-width="0.206527" d="M452.442,-67.9045C455.094,-67.0483 457.854,-66.265 460.5,-65.6985 640.234,-27.2115 697.189,-84.9417 872.5,-29.6985 873.555,-29.3659 874.615,-28.9814 875.669,-28.5568"/>
<polygon fill="red" stroke="red" stroke-width="0.206527" points="877.407,-31.6005 884.768,-23.9805 874.262,-25.3468 877.407,-31.6005"/>
</g>
<!-- &#45;30&#45;&gt;2 -->
<g id="edge116" class="edge"><title>&#45;30&#45;&gt;2</title>
<path fill="none" stroke="green" stroke-width="0.215828" d="M452.434,-67.8679C455.087,-67.0157 457.85,-66.2433 460.5,-65.6985 682.208,-20.1227 752.07,-95.952 968.5,-29.6985 969.558,-29.3746 970.62,-28.9972 971.676,-28.5783"/>
<polygon fill="green" stroke="green" stroke-width="0.215828" points="973.404,-31.6274 980.781,-24.0232 970.272,-25.367 973.404,-31.6274"/>
</g>
<!-- &#45;30&#45;&gt;3 -->
<g id="edge117" class="edge"><title>&#45;30&#45;&gt;3</title>
<path fill="none" stroke="green" stroke-width="0.259708" d="M452.437,-67.8843C455.09,-67.0303 457.852,-66.253 460.5,-65.6985 661.216,-23.6681 724.634,-90.4453 920.5,-29.6985 921.557,-29.3707 922.617,-28.9901 923.673,-28.5687"/>
<polygon fill="green" stroke="green" stroke-width="0.259708" points="925.405,-31.6153 932.775,-24.004 922.267,-25.3579 925.405,-31.6153"/>
</g>
<!-- &#45;31 -->
<g id="node31" class="node"><title>&#45;31</title>
<polygon fill="lightgray" stroke="black" points="499,-83.6985 470,-83.6985 470,-65.6985 499,-65.6985 499,-83.6985"/>
<text text-anchor="middle" x="484.5" y="-72.4985" font-family="Times New Roman,serif" font-size="9.00">&#45;31</text>
</g>
<!-- &#45;31&#45;&gt;0 -->
<g id="edge118" class="edge"><title>&#45;31&#45;&gt;0</title>
<path fill="none" stroke="red" stroke-width="0.236039" d="M499.471,-68.0336C502.12,-67.163 504.872,-66.3415 507.5,-65.6985 623.824,-37.2386 766.705,-22.8089 823.506,-17.8678"/>
<polygon fill="red" stroke="red" stroke-width="0.236039" points="824.016,-21.3372 833.685,-17.0047 823.425,-14.3622 824.016,-21.3372"/>
</g>
<!-- &#45;31&#45;&gt;1 -->
<g id="edge119" class="edge"><title>&#45;31&#45;&gt;1</title>
<path fill="none" stroke="green" stroke-width="0.63216" d="M499.447,-67.9294C502.099,-67.0704 504.857,-66.2798 507.5,-65.6985 666.703,-30.6781 717.303,-79.5568 872.5,-29.6985 873.553,-29.3601 874.611,-28.9707 875.664,-28.5422"/>
<polygon fill="green" stroke="green" stroke-width="0.63216" points="877.409,-31.5822 884.759,-23.9515 874.255,-25.3332 877.409,-31.5822"/>
</g>
<!-- &#45;31&#45;&gt;2 -->
<g id="edge120" class="edge"><title>&#45;31&#45;&gt;2</title>
<path fill="none" stroke="green" stroke-width="0.259389" d="M499.437,-67.8839C502.09,-67.03 504.852,-66.2528 507.5,-65.6985 708.653,-23.5943 772.206,-90.56 968.5,-29.6985 969.557,-29.3708 970.617,-28.9902 971.673,-28.5689"/>
<polygon fill="green" stroke="green" stroke-width="0.259389" points="973.405,-31.6156 980.776,-24.0045 970.268,-25.3582 973.405,-31.6156"/>
</g>
<!-- &#45;31&#45;&gt;3 -->
<g id="edge121" class="edge"><title>&#45;31&#45;&gt;3</title>
<path fill="none" stroke="red" stroke-width="0.491436" d="M499.441,-67.9041C502.094,-67.0479 504.854,-66.2647 507.5,-65.6985 687.671,-27.1377 744.761,-85.0563 920.5,-29.6985 921.555,-29.3661 922.615,-28.9816 923.669,-28.5571"/>
<polygon fill="red" stroke="red" stroke-width="0.491436" points="925.407,-31.6008 932.768,-23.981 922.262,-25.3471 925.407,-31.6008"/>
</g>
<!-- &#45;32 -->
<g id="node32" class="node"><title>&#45;32</title>
<polygon fill="lightgray" stroke="black" points="546,-83.6985 517,-83.6985 517,-65.6985 546,-65.6985 546,-83.6985"/>
<text text-anchor="middle" x="531.5" y="-72.4985" font-family="Times New Roman,serif" font-size="9.00">&#45;32</text>
</g>
<!-- &#45;32&#45;&gt;0 -->
<g id="edge122" class="edge"><title>&#45;32&#45;&gt;0</title>
<path fill="none" stroke="red" stroke-width="0.288657" d="M546.484,-68.0841C549.131,-67.2079 551.879,-66.3714 554.5,-65.6985 652.603,-40.5078 772.471,-24.7056 823.539,-18.6546"/>
<polygon fill="red" stroke="red" stroke-width="0.288657" points="824.105,-22.1125 833.633,-17.4803 823.296,-15.1594 824.105,-22.1125"/>
</g>
<!-- &#45;32&#45;&gt;1 -->
<g id="edge123" class="edge"><title>&#45;32&#45;&gt;1</title>
<path fill="none" stroke="red" stroke-width="0.161525" d="M546.454,-67.9615C549.105,-67.099 551.862,-66.2988 554.5,-65.6985 693.191,-34.1405 737.398,-74.178 872.5,-29.6985 873.38,-29.4089 874.263,-29.0845 875.144,-28.7323"/>
<polygon fill="red" stroke="red" stroke-width="0.161525" points="876.857,-31.7894 884.253,-24.2037 873.741,-25.5212 876.857,-31.7894"/>
</g>
<!-- &#45;32&#45;&gt;2 -->
<g id="edge124" class="edge"><title>&#45;32&#45;&gt;2</title>
<path fill="none" stroke="red" stroke-width="0.298012" d="M546.441,-67.9036C549.094,-67.0475 551.854,-66.2645 554.5,-65.6985 735.108,-27.0639 792.333,-85.1709 968.5,-29.6985 969.555,-29.3662 970.615,-28.9818 971.669,-28.5573"/>
<polygon fill="red" stroke="red" stroke-width="0.298012" points="973.407,-31.6012 980.768,-23.9816 970.262,-25.3474 973.407,-31.6012"/>
</g>
<!-- &#45;32&#45;&gt;3 -->
<g id="edge125" class="edge"><title>&#45;32&#45;&gt;3</title>
<path fill="none" stroke="green" stroke-width="0.362808" d="M546.447,-67.9288C549.099,-67.0699 551.857,-66.2794 554.5,-65.6985 714.14,-30.6044 764.875,-79.6713 920.5,-29.6985 921.553,-29.3602 922.611,-28.9709 923.664,-28.5425"/>
<polygon fill="green" stroke="green" stroke-width="0.362808" points="925.409,-31.5827 932.759,-23.9522 922.255,-25.3335 925.409,-31.5827"/>
</g>
<!-- &#45;33 -->
<g id="node33" class="node"><title>&#45;33</title>
<polygon fill="lightgray" stroke="black" points="593,-83.6985 564,-83.6985 564,-65.6985 593,-65.6985 593,-83.6985"/>
<text text-anchor="middle" x="578.5" y="-72.4985" font-family="Times New Roman,serif" font-size="9.00">&#45;33</text>
</g>
<!-- &#45;33&#45;&gt;0 -->
<g id="edge126" class="edge"><title>&#45;33&#45;&gt;0</title>
<path fill="none" stroke="red" stroke-width="0.394448" d="M593.007,-68.3189C595.804,-67.3767 598.727,-66.4568 601.5,-65.6985 681.805,-43.7378 779.214,-26.8796 823.918,-19.6738"/>
<polygon fill="red" stroke="red" stroke-width="0.394448" points="824.536,-23.1195 833.862,-18.0908 823.436,-16.2066 824.536,-23.1195"/>
</g>
<!-- &#45;33&#45;&gt;1 -->
<g id="edge127" class="edge"><title>&#45;33&#45;&gt;1</title>
<path fill="none" stroke="red" stroke-width="0.168325" d="M593.464,-68.0045C596.114,-67.1372 598.868,-66.3243 601.5,-65.6985 719.708,-37.5963 757.464,-68.8085 872.5,-29.6985 873.377,-29.4004 874.257,-29.0688 875.136,-28.7105"/>
<polygon fill="red" stroke="red" stroke-width="0.168325" points="876.862,-31.7607 884.236,-24.1536 873.728,-25.5016 876.862,-31.7607"/>
</g>
<!-- &#45;33&#45;&gt;2 -->
<g id="edge128" class="edge"><title>&#45;33&#45;&gt;2</title>
<path fill="none" stroke="red" stroke-width="0.32333" stroke-dasharray="1,5" d="M593.447,-67.9282C596.098,-67.0694 598.857,-66.2791 601.5,-65.6985 761.576,-30.5307 812.447,-79.7859 968.5,-29.6985 969.554,-29.3603 970.611,-28.9712 971.664,-28.5429"/>
<polygon fill="red" stroke="red" stroke-width="0.32333" points="973.409,-31.5831 980.759,-23.9529 970.255,-25.3339 973.409,-31.5831"/>
</g>
<!-- &#45;33&#45;&gt;3 -->
<g id="edge129" class="edge"><title>&#45;33&#45;&gt;3</title>
<path fill="none" stroke="red" stroke-width="0.228749" stroke-dasharray="1,5" d="M593.454,-67.9607C596.105,-67.0983 598.862,-66.2983 601.5,-65.6985 740.627,-34.0669 784.97,-74.2924 920.5,-29.6985 921.38,-29.409 922.263,-29.0848 923.144,-28.7327"/>
<polygon fill="red" stroke="red" stroke-width="0.228749" points="924.857,-31.7899 932.254,-24.2046 921.741,-25.5215 924.857,-31.7899"/>
</g>
<!-- &#45;34 -->
<g id="node34" class="node"><title>&#45;34</title>
<polygon fill="lightgray" stroke="black" points="640,-83.6985 611,-83.6985 611,-65.6985 640,-65.6985 640,-83.6985"/>
<text text-anchor="middle" x="625.5" y="-72.4985" font-family="Times New Roman,serif" font-size="9.00">&#45;34</text>
</g>
<!-- &#45;34&#45;&gt;0 -->
<g id="edge130" class="edge"><title>&#45;34&#45;&gt;0</title>
<path fill="none" stroke="green" stroke-width="0.265127" d="M640.036,-68.4198C642.83,-67.4683 645.745,-66.5192 648.5,-65.6985 710.928,-47.1029 785.697,-29.7484 823.693,-21.272"/>
<polygon fill="green" stroke="green" stroke-width="0.265127" points="824.816,-24.6082 833.823,-19.0287 823.302,-17.7738 824.816,-24.6082"/>
</g>
<!-- &#45;34&#45;&gt;1 -->
<g id="edge131" class="edge"><title>&#45;34&#45;&gt;1</title>
<path fill="none" stroke="green" stroke-width="0.342749" stroke-dasharray="1,5" d="M640.479,-68.065C643.127,-67.191 645.876,-66.3601 648.5,-65.6985 746.272,-41.0409 777.485,-63.4546 872.5,-29.6985 873.373,-29.3885 874.25,-29.0468 875.126,-28.6799"/>
<polygon fill="green" stroke="green" stroke-width="0.342749" points="876.869,-31.7205 884.212,-24.0831 873.709,-25.4743 876.869,-31.7205"/>
</g>
<!-- &#45;34&#45;&gt;2 -->
<g id="edge132" class="edge"><title>&#45;34&#45;&gt;2</title>
<path fill="none" stroke="green" stroke-width="0.163517" d="M640.454,-67.96C643.105,-67.0976 645.861,-66.2979 648.5,-65.6985 788.063,-33.9933 832.543,-74.4067 968.5,-29.6985 969.38,-29.4092 970.263,-29.0851 971.144,-28.7331"/>
<polygon fill="green" stroke="green" stroke-width="0.163517" points="972.857,-31.7904 980.254,-24.2055 969.741,-25.5219 972.857,-31.7904"/>
</g>
<!-- &#45;34&#45;&gt;3 -->
<g id="edge133" class="edge"><title>&#45;34&#45;&gt;3</title>
<path fill="none" stroke="green" stroke-width="0.322578" d="M640.464,-68.0035C643.114,-67.1362 645.867,-66.3237 648.5,-65.6985 767.143,-37.5228 805.037,-68.9226 920.5,-29.6985 921.377,-29.4006 922.258,-29.0692 923.136,-28.7111"/>
<polygon fill="green" stroke="green" stroke-width="0.322578" points="924.862,-31.7614 932.237,-24.1548 921.728,-25.5021 924.862,-31.7614"/>
</g>
<!-- &#45;35 -->
<g id="node35" class="node"><title>&#45;35</title>
<polygon fill="lightgray" stroke="black" points="687,-83.6985 658,-83.6985 658,-65.6985 687,-65.6985 687,-83.6985"/>
<text text-anchor="middle" x="672.5" y="-72.4985" font-family="Times New Roman,serif" font-size="9.00">&#45;35</text>
</g>
<!-- &#45;35&#45;&gt;0 -->
<g id="edge134" class="edge"><title>&#45;35&#45;&gt;0</title>
<path fill="none" stroke="red" stroke-width="0.162404" d="M687.086,-68.5765C689.876,-67.6106 692.776,-66.616 695.5,-65.6985 741.209,-50.3046 794.851,-33.002 824.938,-23.3664"/>
<polygon fill="red" stroke="red" stroke-width="0.162404" points="826.088,-26.6735 834.546,-20.2936 823.955,-20.0062 826.088,-26.6735"/>
</g>
<!-- &#45;35&#45;&gt;1 -->
<g id="edge135" class="edge"><title>&#45;35&#45;&gt;1</title>
<path fill="none" stroke="red" stroke-width="0.494341" d="M687.008,-68.3223C689.805,-67.3798 692.728,-66.4589 695.5,-65.6985 772.918,-44.4644 797.426,-58.1294 872.5,-29.6985 873.366,-29.3705 874.238,-29.0136 875.109,-28.6338"/>
<polygon fill="red" stroke="red" stroke-width="0.494341" points="876.878,-31.66 884.173,-23.9771 873.679,-25.4336 876.878,-31.66"/>
</g>
<!-- &#45;35&#45;&gt;2 -->
<g id="edge136" class="edge"><title>&#45;35&#45;&gt;2</title>
<path fill="none" stroke="green" stroke-width="0.456383" d="M687.464,-68.0024C690.114,-67.1353 692.867,-66.323 695.5,-65.6985 814.579,-37.4494 852.611,-69.0368 968.5,-29.6985 969.377,-29.4008 970.258,-29.0696 971.137,-28.7116"/>
<polygon fill="green" stroke="green" stroke-width="0.456383" points="972.862,-31.7621 980.237,-24.156 969.728,-25.5026 972.862,-31.7621"/>
</g>
<!-- &#45;35&#45;&gt;3 -->
<g id="edge137" class="edge"><title>&#45;35&#45;&gt;3</title>
<path fill="none" stroke="green" stroke-width="0.195948" d="M687.479,-68.0635C690.127,-67.1896 692.876,-66.3592 695.5,-65.6985 793.706,-40.9677 825.06,-63.5683 920.5,-29.6985 921.373,-29.3888 922.25,-29.0473 923.126,-28.6807"/>
<polygon fill="green" stroke="green" stroke-width="0.195948" points="924.869,-31.7215 932.213,-24.0849 921.709,-25.475 924.869,-31.7215"/>
</g>
<!-- &#45;36 -->
<g id="node36" class="node"><title>&#45;36</title>
<polygon fill="lightgray" stroke="black" points="734,-83.6985 705,-83.6985 705,-65.6985 734,-65.6985 734,-83.6985"/>
<text text-anchor="middle" x="719.5" y="-72.4985" font-family="Times New Roman,serif" font-size="9.00">&#45;36</text>
</g>
<!-- &#45;36&#45;&gt;0 -->
<g id="edge138" class="edge"><title>&#45;36&#45;&gt;0</title>
<path fill="none" stroke="green" stroke-width="0.130608" stroke-dasharray="1,5" d="M734.298,-67.0624C756.715,-57.0097 799.455,-37.8432 825.816,-26.0217"/>
<polygon fill="green" stroke="green" stroke-width="0.130608" points="827.349,-29.1704 835.041,-21.8849 824.484,-22.7832 827.349,-29.1704"/>
</g>
<!-- &#45;36&#45;&gt;1 -->
<g id="edge139" class="edge"><title>&#45;36&#45;&gt;1</title>
<path fill="none" stroke="green" stroke-width="0.560989" d="M734.054,-68.4774C736.846,-67.5206 739.756,-66.5548 742.5,-65.6985 799.731,-47.8414 817.205,-52.8662 872.5,-29.6985 873.354,-29.3406 874.215,-28.9583 875.078,-28.5571"/>
<polygon fill="green" stroke="green" stroke-width="0.560989" points="876.888,-31.5596 884.103,-23.8005 873.624,-25.3671 876.888,-31.5596"/>
</g>
<!-- &#45;36&#45;&gt;2 -->
<g id="edge140" class="edge"><title>&#45;36&#45;&gt;2</title>
<path fill="none" stroke="green" stroke-width="0.118843" d="M734.478,-68.062C737.126,-67.1882 739.876,-66.3583 742.5,-65.6985 841.14,-40.8946 872.634,-63.6819 968.5,-29.6985 969.373,-29.3891 970.25,-29.0479 971.126,-28.6815"/>
<polygon fill="green" stroke="green" stroke-width="0.118843" points="972.869,-31.7225 980.213,-24.0867 969.71,-25.4757 972.869,-31.7225"/>
</g>
<!-- &#45;36&#45;&gt;3 -->
<g id="edge141" class="edge"><title>&#45;36&#45;&gt;3</title>
<path fill="none" stroke="red" stroke-width="0.145611" d="M734.007,-68.3198C736.805,-67.3776 739.727,-66.4574 742.5,-65.6985 820.35,-44.3919 845.003,-58.2422 920.5,-29.6985 921.366,-29.371 922.238,-29.0144 923.109,-28.6351"/>
<polygon fill="red" stroke="red" stroke-width="0.145611" points="924.877,-31.6616 932.174,-23.9799 921.68,-25.4347 924.877,-31.6616"/>
</g>
<!-- &#45;37 -->
<g id="node37" class="node"><title>&#45;37</title>
<polygon fill="lightgray" stroke="black" points="781,-83.6985 752,-83.6985 752,-65.6985 781,-65.6985 781,-83.6985"/>
<text text-anchor="middle" x="766.5" y="-72.4985" font-family="Times New Roman,serif" font-size="9.00">&#45;37</text>
</g>
<!-- &#45;37&#45;&gt;0 -->
<g id="edge142" class="edge"><title>&#45;37&#45;&gt;0</title>
<path fill="none" stroke="red" stroke-width="0.168277" d="M777.902,-65.6548C790.851,-56.5196 812.234,-41.4343 828.08,-30.2554"/>
<polygon fill="red" stroke="red" stroke-width="0.168277" points="830.51,-32.8238 836.664,-24.1992 826.475,-27.104 830.51,-32.8238"/>
</g>
<!-- &#45;37&#45;&gt;1 -->
<g id="edge143" class="edge"><title>&#45;37&#45;&gt;1</title>
<path fill="none" stroke="red" stroke-width="0.322939" d="M781.167,-68.3046C801.872,-60.5348 840.695,-45.3935 872.5,-29.6985 873.33,-29.2887 874.172,-28.8622 875.017,-28.4239"/>
<polygon fill="red" stroke="red" stroke-width="0.322939" points="876.894,-31.3859 883.963,-23.4937 873.516,-25.2553 876.894,-31.3859"/>
</g>
<!-- &#45;37&#45;&gt;2 -->
<g id="edge144" class="edge"><title>&#45;37&#45;&gt;2</title>
<path fill="none" stroke="green" stroke-width="0.403698" d="M781.007,-68.3174C783.804,-67.3754 786.727,-66.4559 789.5,-65.6985 867.782,-44.3194 892.58,-58.3551 968.5,-29.6985 969.366,-29.3715 970.238,-29.0153 971.11,-28.6363"/>
<polygon fill="green" stroke="green" stroke-width="0.403698" points="972.877,-31.6632 980.175,-23.9826 969.68,-25.4358 972.877,-31.6632"/>
</g>
<!-- &#45;37&#45;&gt;3 -->
<g id="edge145" class="edge"><title>&#45;37&#45;&gt;3</title>
<path fill="none" stroke="red" stroke-width="0.602448" d="M781.052,-68.473C783.845,-67.5166 786.755,-66.5521 789.5,-65.6985 847.158,-47.7704 864.787,-52.977 920.5,-29.6985 921.354,-29.3415 922.216,-28.9598 923.079,-28.5593"/>
<polygon fill="red" stroke="red" stroke-width="0.602448" points="924.888,-31.5624 932.105,-23.8055 921.626,-25.3689 924.888,-31.5624"/>
</g>
<!-- &#45;38 -->
<g id="node38" class="node"><title>&#45;38</title>
<polygon fill="lightgray" stroke="black" points="828,-83.6985 799,-83.6985 799,-65.6985 828,-65.6985 828,-83.6985"/>
<text text-anchor="middle" x="813.5" y="-72.4985" font-family="Times New Roman,serif" font-size="9.00">&#45;38</text>
</g>
<!-- &#45;38&#45;&gt;0 -->
<g id="edge146" class="edge"><title>&#45;38&#45;&gt;0</title>
<path fill="none" stroke="green" stroke-width="0.287161" d="M818.367,-65.6548C822.911,-58.1437 829.889,-46.6101 835.986,-36.5326"/>
<polygon fill="green" stroke="green" stroke-width="0.287161" points="839.061,-38.2121 841.243,-27.8444 833.072,-34.5886 839.061,-38.2121"/>
</g>
<!-- &#45;38&#45;&gt;1 -->
<g id="edge147" class="edge"><title>&#45;38&#45;&gt;1</title>
<path fill="none" stroke="green" stroke-width="0.197729" d="M825.041,-65.6548C838.345,-56.3818 860.446,-40.978 876.552,-29.7523"/>
<polygon fill="green" stroke="green" stroke-width="0.197729" points="878.587,-32.6005 884.79,-24.0111 874.584,-26.8577 878.587,-32.6005"/>
</g>
<!-- &#45;38&#45;&gt;2 -->
<g id="edge148" class="edge"><title>&#45;38&#45;&gt;2</title>
<path fill="none" stroke="green" stroke-width="0.282667" d="M828.051,-68.4687C830.844,-67.5127 833.754,-66.5494 836.5,-65.6985 894.585,-47.6994 912.369,-53.088 968.5,-29.6985 969.355,-29.3423 970.217,-28.9614 971.08,-28.5614"/>
<polygon fill="green" stroke="green" stroke-width="0.282667" points="972.888,-31.5652 980.107,-23.8104 969.627,-25.3707 972.888,-31.5652"/>
</g>
<!-- &#45;38&#45;&gt;3 -->
<g id="edge149" class="edge"><title>&#45;38&#45;&gt;3</title>
<path fill="none" stroke="red" stroke-width="0.167171" stroke-dasharray="1,5" d="M828.31,-68.325C849.217,-60.5795 888.413,-45.4667 920.5,-29.6985 921.331,-29.2901 922.173,-28.8648 923.019,-28.4274"/>
<polygon fill="red" stroke="red" stroke-width="0.167171" points="924.894,-31.3905 931.967,-23.5019 921.519,-25.2582 924.894,-31.3905"/>
</g>
<!-- &#45;39 -->
<g id="node39" class="node"><title>&#45;39</title>
<polygon fill="lightgray" stroke="black" points="1819,-83.6985 1790,-83.6985 1790,-65.6985 1819,-65.6985 1819,-83.6985"/>
<text text-anchor="middle" x="1804.5" y="-72.4985" font-family="Times New Roman,serif" font-size="9.00">&#45;39</text>
</g>
<!-- &#45;39&#45;&gt;1 -->
<g id="edge150" class="edge"><title>&#45;39&#45;&gt;1</title>
<path fill="none" stroke="red" stroke-width="0.194633" d="M1789.58,-67.803C1786.92,-66.9581 1784.16,-66.2049 1781.5,-65.6985 1593.38,-29.8588 1104.41,-83.0956 920.5,-29.6985 919.437,-29.39 918.372,-29.0251 917.313,-28.6165"/>
<polygon fill="red" stroke="red" stroke-width="0.194633" points="918.71,-25.4028 908.196,-24.0988 915.602,-31.675 918.71,-25.4028"/>
</g>
<!-- &#45;39&#45;&gt;2 -->
<g id="edge151" class="edge"><title>&#45;39&#45;&gt;2</title>
<path fill="none" stroke="green" stroke-width="0.178277" d="M1789.57,-67.8507C1786.92,-67.0005 1784.15,-66.2332 1781.5,-65.6985 1630.14,-35.1872 1135.39,-19.8025 1017.76,-16.5232"/>
<polygon fill="green" stroke="green" stroke-width="0.178277" points="1017.67,-13.0195 1007.58,-16.2435 1017.48,-20.0169 1017.67,-13.0195"/>
</g>
<!-- &#45;39&#45;&gt;3 -->
<g id="edge152" class="edge"><title>&#45;39&#45;&gt;3</title>
<path fill="none" stroke="red" stroke-width="0.409853" d="M1789.58,-67.8085C1786.92,-66.963 1784.16,-66.2081 1781.5,-65.6985 1603.89,-31.6344 1142.11,-80.338 968.5,-29.6985 967.438,-29.3887 966.373,-29.0227 965.314,-28.6132"/>
<polygon fill="red" stroke="red" stroke-width="0.409853" points="966.712,-25.3998 956.198,-24.0923 963.602,-31.6709 966.712,-25.3998"/>
</g>
<!-- &#45;40 -->
<g id="node40" class="node"><title>&#45;40</title>
<polygon fill="lightgray" stroke="black" points="875,-83.6985 846,-83.6985 846,-65.6985 875,-65.6985 875,-83.6985"/>
<text text-anchor="middle" x="860.5" y="-72.4985" font-family="Times New Roman,serif" font-size="9.00">&#45;40</text>
</g>
<!-- &#45;40&#45;&gt;0 -->
<g id="edge153" class="edge"><title>&#45;40&#45;&gt;0</title>
<path fill="none" stroke="green" stroke-width="0.319193" d="M858.831,-65.6548C857.428,-58.8878 855.347,-48.8559 853.42,-39.5653"/>
<polygon fill="green" stroke="green" stroke-width="0.319193" points="856.812,-38.6852 851.353,-29.6046 849.957,-40.107 856.812,-38.6852"/>
</g>
<!-- &#45;40&#45;&gt;1 -->
<g id="edge154" class="edge"><title>&#45;40&#45;&gt;1</title>
<path fill="none" stroke="red" stroke-width="0.182908" d="M865.506,-65.6548C870.18,-58.1437 877.357,-46.6101 883.629,-36.5326"/>
<polygon fill="red" stroke="red" stroke-width="0.182908" points="886.723,-38.1839 889.035,-27.8444 880.78,-34.4854 886.723,-38.1839"/>
</g>
<!-- &#45;40&#45;&gt;2 -->
<g id="edge155" class="edge"><title>&#45;40&#45;&gt;2</title>
<path fill="none" stroke="red" stroke-width="0.106069" d="M875.1,-68.4748C896.116,-60.7937 935.948,-45.6291 968.5,-29.6985 969.332,-29.2914 970.174,-28.8673 971.021,-28.4309"/>
<polygon fill="red" stroke="red" stroke-width="0.106069" points="972.894,-31.395 979.971,-23.5099 969.522,-25.2611 972.894,-31.395"/>
</g>
<!-- &#45;40&#45;&gt;3 -->
<g id="edge156" class="edge"><title>&#45;40&#45;&gt;3</title>
<path fill="none" stroke="green" stroke-width="0.191484" d="M872.18,-65.6548C885.645,-56.3818 908.012,-40.978 924.312,-29.7523"/>
<polygon fill="green" stroke="green" stroke-width="0.191484" points="926.398,-32.5656 932.649,-24.0111 922.427,-26.8005 926.398,-32.5656"/>
</g>
</g>
</svg>
