<?xml version="1.0" encoding="UTF-8" standalone="no"?>
<!DOCTYPE svg PUBLIC "-//W3C//DTD SVG 1.1//EN"
 "http://www.w3.org/Graphics/SVG/1.1/DTD/svg11.dtd">
<!-- Generated by graphviz version 2.38.0 (20140413.2041)
 -->
<!-- Title: %3 Pages: 1 -->
<svg width="2475pt" height="170pt"
 viewBox="0.00 0.00 2475.45 170.12" xmlns="http://www.w3.org/2000/svg" xmlns:xlink="http://www.w3.org/1999/xlink">
<g id="graph0" class="graph" transform="scale(1 1) rotate(0) translate(4 166.125)">
<title>%3</title>
<polygon fill="white" stroke="none" points="-4,4 -4,-166.125 2471.45,-166.125 2471.45,4 -4,4"/>
<!-- &#45;1 -->
<g id="node1" class="node"><title>&#45;1</title>
<polygon fill="lightgray" stroke="black" points="1451.24,-95.9117 1427.24,-95.9117 1427.24,-77.9117 1451.24,-77.9117 1451.24,-95.9117"/>
<text text-anchor="middle" x="1439.24" y="-84.7117" font-family="Times New Roman,serif" font-size="9.00">&#45;1</text>
</g>
<!-- 0 -->
<g id="node41" class="node"><title>0</title>
<ellipse fill="lightblue" stroke="black" cx="1018.24" cy="-14.8492" rx="14.7" ry="14.7"/>
<text text-anchor="middle" x="1018.24" y="-12.6492" font-family="Times New Roman,serif" font-size="9.00">0</text>
</g>
<!-- &#45;1&#45;&gt;0 -->
<g id="edge1" class="edge"><title>&#45;1&#45;&gt;0</title>
<path fill="none" stroke="red" stroke-width="0.120955" d="M1433.15,-77.8477C1429.37,-73.4753 1424.12,-68.422 1418.24,-65.6985 1275.16,0.611796 1219.98,-60.1157 1065.24,-29.6985 1057.52,-28.1818 1049.25,-25.9548 1041.83,-23.7281"/>
<polygon fill="red" stroke="red" stroke-width="0.120955" points="1042.65,-20.315 1032.06,-20.6546 1040.55,-26.9928 1042.65,-20.315"/>
</g>
<!-- 1 -->
<g id="node42" class="node"><title>1</title>
<ellipse fill="lightblue" stroke="black" cx="1276.24" cy="-14.8492" rx="14.7" ry="14.7"/>
<text text-anchor="middle" x="1276.24" y="-12.6492" font-family="Times New Roman,serif" font-size="9.00">1</text>
</g>
<!-- &#45;1&#45;&gt;1 -->
<g id="edge2" class="edge"><title>&#45;1&#45;&gt;1</title>
<path fill="none" stroke="red" stroke-width="0.383455" d="M1432.13,-77.5547C1428.35,-73.523 1423.41,-68.8826 1418.24,-65.6985 1380.39,-42.3931 1330.15,-28.0493 1300.69,-21.0478"/>
<polygon fill="red" stroke="red" stroke-width="0.383455" points="1301.36,-17.6125 1290.84,-18.7975 1299.81,-24.4367 1301.36,-17.6125"/>
</g>
<!-- 2 -->
<g id="node43" class="node"><title>2</title>
<ellipse fill="lightblue" stroke="black" cx="1394.24" cy="-14.8492" rx="14.7" ry="14.7"/>
<text text-anchor="middle" x="1394.24" y="-12.6492" font-family="Times New Roman,serif" font-size="9.00">2</text>
</g>
<!-- &#45;1&#45;&gt;2 -->
<g id="edge3" class="edge"><title>&#45;1&#45;&gt;2</title>
<path fill="none" stroke="green" stroke-width="0.557745" d="M1434.08,-77.8746C1427.6,-67.7908 1416.26,-50.1351 1407.33,-36.233"/>
<polygon fill="green" stroke="green" stroke-width="0.557745" points="1410.24,-34.2792 1401.89,-27.7567 1404.35,-38.0622 1410.24,-34.2792"/>
</g>
<!-- 3 -->
<g id="node44" class="node"><title>3</title>
<ellipse fill="lightblue" stroke="black" cx="1089.24" cy="-14.8492" rx="14.7" ry="14.7"/>
<text text-anchor="middle" x="1089.24" y="-12.6492" font-family="Times New Roman,serif" font-size="9.00">3</text>
</g>
<!-- &#45;1&#45;&gt;3 -->
<g id="edge4" class="edge"><title>&#45;1&#45;&gt;3</title>
<path fill="none" stroke="red" stroke-width="0.362485" d="M1432.74,-77.5459C1428.97,-73.304 1423.87,-68.4748 1418.24,-65.6985 1364.5,-39.1852 1181.81,-22.9075 1114.45,-17.6871"/>
<polygon fill="red" stroke="red" stroke-width="0.362485" points="1114.55,-14.1847 1104.32,-16.9182 1114.02,-21.1647 1114.55,-14.1847"/>
</g>
<!-- &#45;2 -->
<g id="node2" class="node"><title>&#45;2</title>
<polygon fill="lightgray" stroke="black" points="1493.24,-95.9117 1469.24,-95.9117 1469.24,-77.9117 1493.24,-77.9117 1493.24,-95.9117"/>
<text text-anchor="middle" x="1481.24" y="-84.7117" font-family="Times New Roman,serif" font-size="9.00">&#45;2</text>
</g>
<!-- &#45;2&#45;&gt;0 -->
<g id="edge5" class="edge"><title>&#45;2&#45;&gt;0</title>
<path fill="none" stroke="green" stroke-width="0.102679" d="M1475.16,-77.824C1471.38,-73.4437 1466.13,-68.3904 1460.24,-65.6985 1299.9,7.56424 1238.39,-62.7698 1065.24,-29.6985 1057.52,-28.2233 1049.24,-26.0078 1041.82,-23.7789"/>
<polygon fill="green" stroke="green" stroke-width="0.102679" points="1042.64,-20.3663 1032.05,-20.6949 1040.53,-27.0419 1042.64,-20.3663"/>
</g>
<!-- &#45;2&#45;&gt;1 -->
<g id="edge6" class="edge"><title>&#45;2&#45;&gt;1</title>
<path fill="none" stroke="green" stroke-width="0.147376" d="M1474.6,-77.7985C1470.8,-73.6305 1465.7,-68.7914 1460.24,-65.6985 1408.31,-36.2779 1338.23,-23.5701 1301.35,-18.6286"/>
<polygon fill="green" stroke="green" stroke-width="0.147376" points="1301.38,-15.1054 1291.02,-17.3344 1300.51,-22.0511 1301.38,-15.1054"/>
</g>
<!-- &#45;2&#45;&gt;2 -->
<g id="edge7" class="edge"><title>&#45;2&#45;&gt;2</title>
<path fill="none" stroke="green" stroke-width="0.220653" d="M1473.27,-77.8074C1469.43,-74.0171 1464.7,-69.5095 1460.24,-65.6985 1445.51,-53.1244 1427.98,-39.9628 1414.69,-30.323"/>
<polygon fill="green" stroke="green" stroke-width="0.220653" points="1416.42,-27.254 1406.25,-24.2624 1412.33,-32.9392 1416.42,-27.254"/>
</g>
<!-- &#45;2&#45;&gt;3 -->
<g id="edge8" class="edge"><title>&#45;2&#45;&gt;3</title>
<path fill="none" stroke="green" stroke-width="0.280045" stroke-dasharray="1,5" d="M1474.75,-77.5081C1470.99,-73.2551 1465.89,-68.4274 1460.24,-65.6985 1429.07,-50.6462 1192.89,-26.1276 1114.46,-18.3196"/>
<polygon fill="green" stroke="green" stroke-width="0.280045" points="1114.38,-14.794 1104.08,-17.2919 1113.69,-21.7599 1114.38,-14.794"/>
</g>
<!-- &#45;3 -->
<g id="node3" class="node"><title>&#45;3</title>
<polygon fill="lightgray" stroke="black" points="1535.24,-95.9117 1511.24,-95.9117 1511.24,-77.9117 1535.24,-77.9117 1535.24,-95.9117"/>
<text text-anchor="middle" x="1523.24" y="-84.7117" font-family="Times New Roman,serif" font-size="9.00">&#45;3</text>
</g>
<!-- &#45;3&#45;&gt;0 -->
<g id="edge9" class="edge"><title>&#45;3&#45;&gt;0</title>
<path fill="none" stroke="red" stroke-width="0.223415" d="M1517.17,-77.8048C1513.39,-73.4181 1508.14,-68.3648 1502.24,-65.6985 1413.44,-25.5883 1161.03,-47.5623 1065.24,-29.6985 1057.51,-28.2569 1049.23,-26.0507 1041.82,-23.82"/>
<polygon fill="red" stroke="red" stroke-width="0.223415" points="1042.63,-20.4078 1032.04,-20.7274 1040.52,-27.0816 1042.63,-20.4078"/>
</g>
<!-- &#45;3&#45;&gt;1 -->
<g id="edge10" class="edge"><title>&#45;3&#45;&gt;1</title>
<path fill="none" stroke="red" stroke-width="0.313333" d="M1516.66,-77.6944C1512.87,-73.496 1507.77,-68.661 1502.24,-65.6985 1467.34,-47.0093 1352.28,-27.5579 1301.13,-19.5896"/>
<polygon fill="red" stroke="red" stroke-width="0.313333" points="1301.37,-16.0863 1290.96,-18.0259 1300.31,-23.005 1301.37,-16.0863"/>
</g>
<!-- &#45;3&#45;&gt;2 -->
<g id="edge11" class="edge"><title>&#45;3&#45;&gt;2</title>
<path fill="none" stroke="green" stroke-width="0.370489" d="M1516,-77.7592C1512.18,-73.7795 1507.25,-69.1241 1502.24,-65.6985 1475.33,-47.312 1440.55,-32.6494 1417.83,-24.1075"/>
<polygon fill="green" stroke="green" stroke-width="0.370489" points="1418.91,-20.7746 1408.32,-20.6222 1416.5,-27.3476 1418.91,-20.7746"/>
</g>
<!-- &#45;3&#45;&gt;3 -->
<g id="edge12" class="edge"><title>&#45;3&#45;&gt;3</title>
<path fill="none" stroke="green" stroke-width="0.30686" d="M1517.13,-77.8884C1513.34,-73.5295 1508.09,-68.4762 1502.24,-65.6985 1467.12,-49.0253 1198.88,-25.1319 1114.54,-17.9613"/>
<polygon fill="green" stroke="green" stroke-width="0.30686" points="1114.59,-14.453 1104.33,-17.0987 1114,-21.4282 1114.59,-14.453"/>
</g>
<!-- &#45;4 -->
<g id="node4" class="node"><title>&#45;4</title>
<polygon fill="lightgray" stroke="black" points="1577.24,-95.9117 1553.24,-95.9117 1553.24,-77.9117 1577.24,-77.9117 1577.24,-95.9117"/>
<text text-anchor="middle" x="1565.24" y="-84.7117" font-family="Times New Roman,serif" font-size="9.00">&#45;4</text>
</g>
<!-- &#45;4&#45;&gt;0 -->
<g id="edge13" class="edge"><title>&#45;4&#45;&gt;0</title>
<path fill="none" stroke="red" stroke-width="0.770362" stroke-dasharray="1,5" d="M1559.17,-77.7889C1555.4,-73.3969 1550.15,-68.3436 1544.24,-65.6985 1446.8,-22.1077 1170.25,-48.8914 1065.24,-29.6985 1057.5,-28.2847 1049.23,-26.0862 1041.81,-23.854"/>
<polygon fill="red" stroke="red" stroke-width="0.770362" points="1042.63,-20.4421 1032.04,-20.7544 1040.51,-27.1144 1042.63,-20.4421"/>
</g>
<!-- &#45;4&#45;&gt;1 -->
<g id="edge14" class="edge"><title>&#45;4&#45;&gt;1</title>
<path fill="none" stroke="green" stroke-width="0.140659" d="M1558.7,-77.6209C1554.92,-73.4009 1549.82,-68.5688 1544.24,-65.6985 1522.65,-54.5939 1363.51,-29.2675 1301.18,-19.6498"/>
<polygon fill="green" stroke="green" stroke-width="0.140659" points="1301.46,-16.1527 1291.05,-18.0938 1300.4,-23.0715 1301.46,-16.1527"/>
</g>
<!-- &#45;4&#45;&gt;2 -->
<g id="edge15" class="edge"><title>&#45;4&#45;&gt;2</title>
<path fill="none" stroke="green" stroke-width="0.347586" d="M1558.16,-77.5179C1554.38,-73.4768 1549.44,-68.8391 1544.24,-65.6985 1503.69,-41.1949 1449.61,-27.0697 1418.7,-20.469"/>
<polygon fill="green" stroke="green" stroke-width="0.347586" points="1419.28,-17.017 1408.79,-18.4434 1417.88,-23.8752 1419.28,-17.017"/>
</g>
<!-- &#45;4&#45;&gt;3 -->
<g id="edge16" class="edge"><title>&#45;4&#45;&gt;3</title>
<path fill="none" stroke="red" stroke-width="0.325059" d="M1559.14,-77.8642C1555.36,-73.4973 1550.11,-68.444 1544.24,-65.6985 1524.57,-56.494 1206.69,-26.6577 1114.26,-18.1393"/>
<polygon fill="red" stroke="red" stroke-width="0.325059" points="1114.42,-14.6393 1104.14,-17.209 1113.78,-21.6099 1114.42,-14.6393"/>
</g>
<!-- &#45;5 -->
<g id="node5" class="node"><title>&#45;5</title>
<polygon fill="lightgray" stroke="black" points="1619.24,-95.9117 1595.24,-95.9117 1595.24,-77.9117 1619.24,-77.9117 1619.24,-95.9117"/>
<text text-anchor="middle" x="1607.24" y="-84.7117" font-family="Times New Roman,serif" font-size="9.00">&#45;5</text>
</g>
<!-- &#45;5&#45;&gt;0 -->
<g id="edge17" class="edge"><title>&#45;5&#45;&gt;0</title>
<path fill="none" stroke="red" stroke-width="0.377008" stroke-dasharray="1,5" d="M1601.18,-77.7755C1597.41,-73.379 1592.16,-68.3257 1586.24,-65.6985 1480.16,-18.6256 1179.46,-50.2211 1065.24,-29.6985 1057.5,-28.308 1049.22,-26.116 1041.8,-23.8825"/>
<polygon fill="red" stroke="red" stroke-width="0.377008" points="1042.62,-20.4709 1032.03,-20.777 1040.5,-27.142 1042.62,-20.4709"/>
</g>
<!-- &#45;5&#45;&gt;1 -->
<g id="edge18" class="edge"><title>&#45;5&#45;&gt;1</title>
<path fill="none" stroke="green" stroke-width="0.566854" d="M1600.73,-77.5663C1596.96,-73.3303 1591.85,-68.5003 1586.24,-65.6985 1579.8,-62.4862 1373.07,-30.6573 1300.85,-19.6059"/>
<polygon fill="green" stroke="green" stroke-width="0.566854" points="1301.25,-16.1265 1290.83,-18.0749 1300.19,-23.0461 1301.25,-16.1265"/>
</g>
<!-- &#45;5&#45;&gt;2 -->
<g id="edge19" class="edge"><title>&#45;5&#45;&gt;2</title>
<path fill="none" stroke="red" stroke-width="0.534887" d="M1600.62,-77.7755C1596.81,-73.6008 1591.72,-68.7626 1586.24,-65.6985 1531.53,-35.0861 1457.55,-22.8041 1419.36,-18.2623"/>
<polygon fill="red" stroke="red" stroke-width="0.534887" points="1419.48,-14.7538 1409.15,-17.1334 1418.71,-21.7114 1419.48,-14.7538"/>
</g>
<!-- &#45;5&#45;&gt;3 -->
<g id="edge20" class="edge"><title>&#45;5&#45;&gt;3</title>
<path fill="none" stroke="green" stroke-width="0.477505" d="M1601.15,-77.8441C1597.37,-73.4704 1592.12,-68.4171 1586.24,-65.6985 1575.37,-60.6719 1212.99,-27.1836 1114,-18.112"/>
<polygon fill="green" stroke="green" stroke-width="0.477505" points="1114.29,-14.6239 1104.02,-17.1975 1113.66,-21.5947 1114.29,-14.6239"/>
</g>
<!-- &#45;6 -->
<g id="node6" class="node"><title>&#45;6</title>
<polygon fill="lightgray" stroke="black" points="1661.24,-95.9117 1637.24,-95.9117 1637.24,-77.9117 1661.24,-77.9117 1661.24,-95.9117"/>
<text text-anchor="middle" x="1649.24" y="-84.7117" font-family="Times New Roman,serif" font-size="9.00">&#45;6</text>
</g>
<!-- &#45;6&#45;&gt;0 -->
<g id="edge21" class="edge"><title>&#45;6&#45;&gt;0</title>
<path fill="none" stroke="red" stroke-width="0.185737" d="M1643.19,-77.7641C1639.42,-73.3638 1634.17,-68.3105 1628.24,-65.6985 1513.52,-15.1424 1188.69,-51.5512 1065.24,-29.6985 1057.5,-28.3278 1049.22,-26.1413 1041.8,-23.9069"/>
<polygon fill="red" stroke="red" stroke-width="0.185737" points="1042.62,-20.4954 1032.03,-20.7962 1040.5,-27.1654 1042.62,-20.4954"/>
</g>
<!-- &#45;6&#45;&gt;1 -->
<g id="edge22" class="edge"><title>&#45;6&#45;&gt;1</title>
<path fill="none" stroke="green" stroke-width="0.246157" d="M1642.75,-77.5196C1638.99,-73.2699 1633.88,-68.4418 1628.24,-65.6985 1524.11,-15.0814 1484.84,-46.1364 1370.24,-29.6985 1346.65,-26.3154 1319.76,-22.3406 1300.79,-19.5191"/>
<polygon fill="green" stroke="green" stroke-width="0.246157" points="1301.3,-16.0554 1290.89,-18.0429 1300.26,-22.9789 1301.3,-16.0554"/>
</g>
<!-- &#45;6&#45;&gt;2 -->
<g id="edge23" class="edge"><title>&#45;6&#45;&gt;2</title>
<path fill="none" stroke="green" stroke-width="0.165993" d="M1642.67,-77.6785C1638.88,-73.4754 1633.78,-68.6411 1628.24,-65.6985 1558.74,-28.7972 1463.96,-19.2124 1419.37,-16.7228"/>
<polygon fill="green" stroke="green" stroke-width="0.165993" points="1419.32,-13.2164 1409.16,-16.2304 1418.98,-20.2082 1419.32,-13.2164"/>
</g>
<!-- &#45;6&#45;&gt;3 -->
<g id="edge24" class="edge"><title>&#45;6&#45;&gt;3</title>
<path fill="none" stroke="green" stroke-width="0.279314" d="M1643.16,-77.827C1639.38,-73.4476 1634.13,-68.3943 1628.24,-65.6985 1622.3,-62.9774 1219.08,-27.2914 1114.04,-18.0318"/>
<polygon fill="green" stroke="green" stroke-width="0.279314" points="1114.3,-14.5419 1104.04,-17.1507 1113.69,-21.5149 1114.3,-14.5419"/>
</g>
<!-- &#45;7 -->
<g id="node7" class="node"><title>&#45;7</title>
<polygon fill="lightgray" stroke="black" points="176.24,-162.125 152.24,-162.125 152.24,-144.125 176.24,-144.125 176.24,-162.125"/>
<text text-anchor="middle" x="164.24" y="-150.925" font-family="Times New Roman,serif" font-size="9.00">&#45;7</text>
</g>
<!-- &#45;7&#45;&gt;0 -->
<g id="edge25" class="edge"><title>&#45;7&#45;&gt;0</title>
<path fill="none" stroke="green" stroke-width="0.12473" stroke-dasharray="1,5" d="M151.786,-150.512C118.141,-145.876 26.7789,-131.335 9.24007,-108.125 -2.12787,-93.0808 -3.76014,-79.3568 9.24007,-65.6985 44.2246,-28.9429 840.759,-17.9016 993.162,-16.1224"/>
<polygon fill="green" stroke="green" stroke-width="0.12473" points="993.413,-19.6199 1003.37,-16.006 993.333,-12.6203 993.413,-19.6199"/>
</g>
<!-- &#45;7&#45;&gt;1 -->
<g id="edge26" class="edge"><title>&#45;7&#45;&gt;1</title>
<path fill="none" stroke="red" stroke-width="0.42256" d="M176.463,-152.052C329.287,-151.113 1864.32,-140.869 1896.24,-108.125 1909.4,-94.6233 1909.11,-79.4795 1896.24,-65.6985 1856.26,-22.8845 1428.48,-35.9726 1370.24,-29.6985 1346.55,-27.1464 1319.66,-23.0649 1300.73,-19.9925"/>
<polygon fill="red" stroke="red" stroke-width="0.42256" points="1301.28,-16.5362 1290.85,-18.3625 1300.15,-23.4429 1301.28,-16.5362"/>
</g>
<!-- &#45;7&#45;&gt;2 -->
<g id="edge27" class="edge"><title>&#45;7&#45;&gt;2</title>
<path fill="none" stroke="green" stroke-width="0.39753" d="M176.642,-152.091C342.077,-151.611 2107.58,-145.612 2144.24,-108.125 2157.42,-94.6443 2157.12,-79.4669 2144.24,-65.6985 2093.66,-11.6476 1543.55,-14.2501 1419.15,-15.54"/>
<polygon fill="green" stroke="green" stroke-width="0.39753" points="1419.03,-12.0409 1409.07,-15.6516 1419.11,-19.0405 1419.03,-12.0409"/>
</g>
<!-- &#45;7&#45;&gt;3 -->
<g id="edge28" class="edge"><title>&#45;7&#45;&gt;3</title>
<path fill="none" stroke="green" stroke-width="0.132086" d="M168.556,-144.003C178.638,-125.994 205.68,-82.9451 242.24,-65.6985 322.714,-27.7357 954.481,-44.3804 1042.24,-29.6985 1050,-28.401 1058.28,-26.2348 1065.7,-23.9965"/>
<polygon fill="green" stroke="green" stroke-width="0.132086" points="1067.01,-27.2519 1075.46,-20.8672 1064.87,-20.5858 1067.01,-27.2519"/>
</g>
<!-- 479 -->
<g id="node48" class="node"><title>479</title>
<ellipse fill="white" stroke="black" cx="39.2401" cy="-86.9117" rx="21.4286" ry="21.4286"/>
<text text-anchor="middle" x="39.2401" y="-84.7117" font-family="Times New Roman,serif" font-size="9.00">479</text>
</g>
<!-- &#45;7&#45;&gt;479 -->
<g id="edge161" class="edge"><title>&#45;7&#45;&gt;479</title>
<path fill="none" stroke="red" stroke-width="0.62903" d="M152.17,-146.548C134.773,-138.438 101.72,-122.755 74.2401,-108.125 71.5399,-106.687 68.7445,-105.153 65.9645,-103.597"/>
<polygon fill="red" stroke="red" stroke-width="0.62903" points="67.6935,-100.554 57.2724,-98.6431 64.2272,-106.636 67.6935,-100.554"/>
</g>
<!-- &#45;8 -->
<g id="node8" class="node"><title>&#45;8</title>
<polygon fill="lightgray" stroke="black" points="1703.24,-95.9117 1679.24,-95.9117 1679.24,-77.9117 1703.24,-77.9117 1703.24,-95.9117"/>
<text text-anchor="middle" x="1691.24" y="-84.7117" font-family="Times New Roman,serif" font-size="9.00">&#45;8</text>
</g>
<!-- &#45;8&#45;&gt;0 -->
<g id="edge29" class="edge"><title>&#45;8&#45;&gt;0</title>
<path fill="none" stroke="red" stroke-width="0.441313" d="M1685.19,-77.7543C1681.42,-73.3507 1676.17,-68.2974 1670.24,-65.6985 1546.87,-11.6584 1197.91,-52.8817 1065.24,-29.6985 1057.49,-28.345 1049.21,-26.1632 1041.8,-23.9278"/>
<polygon fill="red" stroke="red" stroke-width="0.441313" points="1042.62,-20.5166 1032.03,-20.8128 1040.49,-27.1857 1042.62,-20.5166"/>
</g>
<!-- &#45;8&#45;&gt;1 -->
<g id="edge30" class="edge"><title>&#45;8&#45;&gt;1</title>
<path fill="none" stroke="red" stroke-width="0.293431" d="M1685.13,-77.8869C1681.34,-73.5275 1676.09,-68.4742 1670.24,-65.6985 1548.91,-8.15074 1503.35,-47.4871 1370.24,-29.6985 1346.62,-26.5421 1319.73,-22.5382 1300.78,-19.6482"/>
<polygon fill="red" stroke="red" stroke-width="0.293431" points="1301.29,-16.1866 1290.88,-18.1301 1300.23,-23.1057 1301.29,-16.1866"/>
</g>
<!-- &#45;8&#45;&gt;2 -->
<g id="edge31" class="edge"><title>&#45;8&#45;&gt;2</title>
<path fill="none" stroke="red" stroke-width="0.36409" stroke-dasharray="1,5" d="M1684.7,-77.6093C1680.93,-73.3859 1675.83,-68.5542 1670.24,-65.6985 1585.79,-22.537 1470.08,-16.1966 1419.56,-15.6328"/>
<polygon fill="red" stroke="red" stroke-width="0.36409" points="1419.27,-12.1317 1409.26,-15.5906 1419.25,-19.1317 1419.27,-12.1317"/>
</g>
<!-- &#45;8&#45;&gt;3 -->
<g id="edge32" class="edge"><title>&#45;8&#45;&gt;3</title>
<path fill="none" stroke="green" stroke-width="0.335273" d="M1685.16,-77.8123C1681.39,-73.4281 1676.14,-68.3748 1670.24,-65.6985 1669.43,-65.3328 1225.95,-27.5042 1114.45,-17.9978"/>
<polygon fill="green" stroke="green" stroke-width="0.335273" points="1114.42,-14.4833 1104.16,-17.1212 1113.83,-21.458 1114.42,-14.4833"/>
</g>
<!-- &#45;9 -->
<g id="node9" class="node"><title>&#45;9</title>
<polygon fill="lightgray" stroke="black" points="1745.24,-95.9117 1721.24,-95.9117 1721.24,-77.9117 1745.24,-77.9117 1745.24,-95.9117"/>
<text text-anchor="middle" x="1733.24" y="-84.7117" font-family="Times New Roman,serif" font-size="9.00">&#45;9</text>
</g>
<!-- &#45;9&#45;&gt;0 -->
<g id="edge33" class="edge"><title>&#45;9&#45;&gt;0</title>
<path fill="none" stroke="red" stroke-width="0.290436" d="M1727.19,-77.7457C1723.43,-73.3393 1718.18,-68.286 1712.24,-65.6985 1580.23,-8.17365 1207.14,-54.2125 1065.24,-29.6985 1057.49,-28.3599 1049.21,-26.1823 1041.79,-23.9461"/>
<polygon fill="red" stroke="red" stroke-width="0.290436" points="1042.62,-20.535 1032.03,-20.8273 1040.49,-27.2033 1042.62,-20.535"/>
</g>
<!-- &#45;9&#45;&gt;1 -->
<g id="edge34" class="edge"><title>&#45;9&#45;&gt;1</title>
<path fill="none" stroke="red" stroke-width="0.393605" d="M1727.14,-77.8549C1723.36,-73.4848 1718.11,-68.4315 1712.24,-65.6985 1573.67,-1.20799 1521.88,-48.8415 1370.24,-29.6985 1346.6,-26.714 1319.71,-22.688 1300.76,-19.7462"/>
<polygon fill="red" stroke="red" stroke-width="0.393605" points="1301.29,-16.2861 1290.87,-18.1962 1300.21,-23.2018 1301.29,-16.2861"/>
</g>
<!-- &#45;9&#45;&gt;2 -->
<g id="edge35" class="edge"><title>&#45;9&#45;&gt;2</title>
<path fill="none" stroke="green" stroke-width="0.106467" d="M1726.73,-77.5574C1722.96,-73.3189 1717.86,-68.4892 1712.24,-65.6985 1660.55,-40.0303 1485.26,-23.331 1419.47,-17.8374"/>
<polygon fill="green" stroke="green" stroke-width="0.106467" points="1419.44,-14.324 1409.19,-16.9969 1418.87,-21.3007 1419.44,-14.324"/>
</g>
<!-- &#45;9&#45;&gt;3 -->
<g id="edge36" class="edge"><title>&#45;9&#45;&gt;3</title>
<path fill="none" stroke="green" stroke-width="0.217007" d="M1727.17,-77.7957C1723.4,-73.406 1718.15,-68.3527 1712.24,-65.6985 1618.71,-23.6825 1354.44,-38.0388 1252.24,-29.6985 1203.37,-25.7101 1146.28,-20.8025 1114.29,-18.0294"/>
<polygon fill="green" stroke="green" stroke-width="0.217007" points="1114.34,-14.5206 1104.07,-17.1426 1113.73,-21.4944 1114.34,-14.5206"/>
</g>
<!-- &#45;10 -->
<g id="node10" class="node"><title>&#45;10</title>
<polygon fill="lightgray" stroke="black" points="1792.74,-95.9117 1763.74,-95.9117 1763.74,-77.9117 1792.74,-77.9117 1792.74,-95.9117"/>
<text text-anchor="middle" x="1778.24" y="-84.7117" font-family="Times New Roman,serif" font-size="9.00">&#45;10</text>
</g>
<!-- &#45;10&#45;&gt;0 -->
<g id="edge37" class="edge"><title>&#45;10&#45;&gt;0</title>
<path fill="none" stroke="green" stroke-width="0.231631" d="M1771.1,-77.7258C1766.73,-73.3128 1760.73,-68.2595 1754.24,-65.6985 1611.64,-9.38753 1216.37,-55.5436 1065.24,-29.6985 1057.49,-28.373 1049.21,-26.199 1041.79,-23.9622"/>
<polygon fill="green" stroke="green" stroke-width="0.231631" points="1042.61,-20.5512 1032.02,-20.84 1040.48,-27.2188 1042.61,-20.5512"/>
</g>
<!-- &#45;10&#45;&gt;1 -->
<g id="edge38" class="edge"><title>&#45;10&#45;&gt;1</title>
<path fill="none" stroke="green" stroke-width="0.493372" d="M1771.06,-77.8258C1766.67,-73.4461 1760.67,-68.3928 1754.24,-65.6985 1596.14,0.535052 1540.42,-50.1983 1370.24,-29.6985 1346.58,-26.8488 1319.69,-22.8055 1300.75,-19.823"/>
<polygon fill="green" stroke="green" stroke-width="0.493372" points="1301.29,-16.3641 1290.86,-18.248 1300.19,-23.277 1301.29,-16.3641"/>
</g>
<!-- &#45;10&#45;&gt;2 -->
<g id="edge39" class="edge"><title>&#45;10&#45;&gt;2</title>
<path fill="none" stroke="red" stroke-width="0.540503" stroke-dasharray="1,5" d="M1770.6,-77.5224C1766.24,-73.2736 1760.41,-68.4453 1754.24,-65.6985 1693.78,-38.7865 1490.67,-22.5071 1419.3,-17.5057"/>
<polygon fill="red" stroke="red" stroke-width="0.540503" points="1419.23,-13.9931 1409.02,-16.8 1418.75,-20.9766 1419.23,-13.9931"/>
</g>
<!-- &#45;10&#45;&gt;3 -->
<g id="edge40" class="edge"><title>&#45;10&#45;&gt;3</title>
<path fill="none" stroke="red" stroke-width="0.154179" d="M1771.09,-77.7729C1766.7,-73.3755 1760.7,-68.3222 1754.24,-65.6985 1650.62,-23.6149 1363.74,-38.4329 1252.24,-29.6985 1203.36,-25.8693 1146.27,-20.9061 1114.28,-18.08"/>
<polygon fill="red" stroke="red" stroke-width="0.154179" points="1114.34,-14.5713 1104.07,-17.1749 1113.72,-21.544 1114.34,-14.5713"/>
</g>
<!-- &#45;11 -->
<g id="node11" class="node"><title>&#45;11</title>
<polygon fill="lightgray" stroke="black" points="297.74,-95.9117 268.74,-95.9117 268.74,-77.9117 297.74,-77.9117 297.74,-95.9117"/>
<text text-anchor="middle" x="283.24" y="-84.7117" font-family="Times New Roman,serif" font-size="9.00">&#45;11</text>
</g>
<!-- &#45;11&#45;&gt;0 -->
<g id="edge41" class="edge"><title>&#45;11&#45;&gt;0</title>
<path fill="none" stroke="green" stroke-width="0.162808" d="M292.185,-77.7676C297.583,-73.3685 304.833,-68.3152 312.24,-65.6985 441.612,-19.9928 882.563,-16.095 993.002,-15.8445"/>
<polygon fill="green" stroke="green" stroke-width="0.162808" points="993.19,-19.3443 1003.18,-15.83 993.18,-12.3443 993.19,-19.3443"/>
</g>
<!-- &#45;11&#45;&gt;1 -->
<g id="edge42" class="edge"><title>&#45;11&#45;&gt;1</title>
<path fill="none" stroke="green" stroke-width="0.141485" d="M298.034,-82.1953C317.451,-77.4855 352.659,-69.5213 383.24,-65.6985 705.57,-25.4056 789.131,-51.4523 1113.24,-29.6985 1162.16,-26.4149 1219.23,-21.2615 1251.21,-18.2536"/>
<polygon fill="green" stroke="green" stroke-width="0.141485" points="1251.8,-21.7139 1261.42,-17.2857 1251.13,-14.7451 1251.8,-21.7139"/>
</g>
<!-- &#45;11&#45;&gt;3 -->
<g id="edge43" class="edge"><title>&#45;11&#45;&gt;3</title>
<path fill="none" stroke="red" stroke-width="0.407527" d="M292.164,-77.7086C297.556,-73.2898 304.806,-68.2365 312.24,-65.6985 465.948,-13.2221 882.105,-56.8432 1042.24,-29.6985 1049.99,-28.3843 1058.27,-26.2135 1065.69,-23.9761"/>
<polygon fill="red" stroke="red" stroke-width="0.407527" points="1067,-27.2322 1075.46,-20.851 1064.87,-20.5652 1067,-27.2322"/>
</g>
<!-- &#45;12 -->
<g id="node12" class="node"><title>&#45;12</title>
<polygon fill="lightgray" stroke="black" points="1839.74,-95.9117 1810.74,-95.9117 1810.74,-77.9117 1839.74,-77.9117 1839.74,-95.9117"/>
<text text-anchor="middle" x="1825.24" y="-84.7117" font-family="Times New Roman,serif" font-size="9.00">&#45;12</text>
</g>
<!-- &#45;12&#45;&gt;0 -->
<g id="edge44" class="edge"><title>&#45;12&#45;&gt;0</title>
<path fill="none" stroke="red" stroke-width="0.307872" d="M1818.47,-77.7212C1814.3,-73.3066 1808.55,-68.2533 1802.24,-65.6985 1650.26,-4.13167 1226.91,-57.065 1065.24,-29.6985 1057.49,-28.3861 1049.21,-26.2158 1041.79,-23.9783"/>
<polygon fill="red" stroke="red" stroke-width="0.307872" points="1042.61,-20.5674 1032.02,-20.8528 1040.48,-27.2343 1042.61,-20.5674"/>
</g>
<!-- &#45;12&#45;&gt;1 -->
<g id="edge45" class="edge"><title>&#45;12&#45;&gt;1</title>
<path fill="none" stroke="green" stroke-width="0.100195" d="M1818.44,-77.8021C1814.25,-73.4145 1808.5,-68.3612 1802.24,-65.6985 1713.59,-28.0012 1465.94,-40.7247 1370.24,-29.6985 1346.57,-26.9711 1319.68,-22.9121 1300.74,-19.8926"/>
<polygon fill="green" stroke="green" stroke-width="0.100195" points="1301.29,-16.4348 1290.86,-18.2951 1300.17,-23.3452 1301.29,-16.4348"/>
</g>
<!-- &#45;12&#45;&gt;2 -->
<g id="edge46" class="edge"><title>&#45;12&#45;&gt;2</title>
<path fill="none" stroke="green" stroke-width="0.498356" d="M1818.4,-77.892C1814.2,-73.5343 1808.45,-68.481 1802.24,-65.6985 1733.03,-34.6861 1497.5,-20.8077 1419.53,-16.9898"/>
<polygon fill="green" stroke="green" stroke-width="0.498356" points="1419.37,-13.478 1409.21,-16.4987 1419.03,-20.4701 1419.37,-13.478"/>
</g>
<!-- &#45;12&#45;&gt;3 -->
<g id="edge47" class="edge"><title>&#45;12&#45;&gt;3</title>
<path fill="none" stroke="red" stroke-width="0.262636" d="M1818.45,-77.7603C1814.28,-73.3587 1808.53,-68.3054 1802.24,-65.6985 1689.1,-18.7716 1374.38,-38.8836 1252.24,-29.6985 1203.35,-26.0215 1146.27,-21.0053 1114.28,-18.1285"/>
<polygon fill="red" stroke="red" stroke-width="0.262636" points="1114.34,-14.6198 1104.07,-17.2058 1113.71,-21.5914 1114.34,-14.6198"/>
</g>
<!-- &#45;13 -->
<g id="node13" class="node"><title>&#45;13</title>
<polygon fill="lightgray" stroke="black" points="421.74,-95.9117 392.74,-95.9117 392.74,-77.9117 421.74,-77.9117 421.74,-95.9117"/>
<text text-anchor="middle" x="407.24" y="-84.7117" font-family="Times New Roman,serif" font-size="9.00">&#45;13</text>
</g>
<!-- &#45;13&#45;&gt;0 -->
<g id="edge48" class="edge"><title>&#45;13&#45;&gt;0</title>
<path fill="none" stroke="red" stroke-width="0.20774" d="M414.045,-77.8055C418.23,-73.419 423.98,-68.3657 430.24,-65.6985 534.039,-21.4717 894.506,-16.4475 993.129,-15.9067"/>
<polygon fill="red" stroke="red" stroke-width="0.20774" points="993.351,-19.4059 1003.34,-15.8622 993.32,-12.4059 993.351,-19.4059"/>
</g>
<!-- &#45;13&#45;&gt;1 -->
<g id="edge49" class="edge"><title>&#45;13&#45;&gt;1</title>
<path fill="none" stroke="red" stroke-width="0.295014" d="M414.014,-77.7303C418.188,-73.3188 423.938,-68.2655 430.24,-65.6985 570.998,-8.3603 961.61,-40.1335 1113.24,-29.6985 1162.16,-26.3321 1219.23,-21.2075 1251.21,-18.2273"/>
<polygon fill="red" stroke="red" stroke-width="0.295014" points="1251.79,-21.6881 1261.42,-17.2689 1251.14,-14.7188 1251.79,-21.6881"/>
</g>
<!-- &#45;13&#45;&gt;3 -->
<g id="edge50" class="edge"><title>&#45;13&#45;&gt;3</title>
<path fill="none" stroke="green" stroke-width="0.371107" d="M414.02,-77.7447C418.196,-73.338 423.946,-68.2847 430.24,-65.6985 556.252,-13.919 908.031,-53.1035 1042.24,-29.6985 1049.99,-28.3476 1058.27,-26.1666 1065.69,-23.9311"/>
<polygon fill="green" stroke="green" stroke-width="0.371107" points="1066.99,-27.1888 1075.45,-20.8154 1064.86,-20.5198 1066.99,-27.1888"/>
</g>
<!-- &#45;14 -->
<g id="node14" class="node"><title>&#45;14</title>
<polygon fill="lightgray" stroke="black" points="1886.74,-95.9117 1857.74,-95.9117 1857.74,-77.9117 1886.74,-77.9117 1886.74,-95.9117"/>
<text text-anchor="middle" x="1872.24" y="-84.7117" font-family="Times New Roman,serif" font-size="9.00">&#45;14</text>
</g>
<!-- &#45;14&#45;&gt;0 -->
<g id="edge51" class="edge"><title>&#45;14&#45;&gt;0</title>
<path fill="none" stroke="green" stroke-width="0.262457" d="M1865.47,-77.7143C1861.3,-73.2974 1855.55,-68.2441 1849.24,-65.6985 1687.5,-0.450706 1237.24,-58.555 1065.24,-29.6985 1057.49,-28.3975 1049.2,-26.2303 1041.78,-23.9921"/>
<polygon fill="green" stroke="green" stroke-width="0.262457" points="1042.61,-20.5814 1032.02,-20.8638 1040.47,-27.2477 1042.61,-20.5814"/>
</g>
<!-- &#45;14&#45;&gt;1 -->
<g id="edge52" class="edge"><title>&#45;14&#45;&gt;1</title>
<path fill="none" stroke="red" stroke-width="0.23459" d="M1865.44,-77.783C1861.26,-73.389 1855.51,-68.3357 1849.24,-65.6985 1750.84,-24.3262 1476.33,-41.4855 1370.24,-29.6985 1346.56,-27.0673 1319.67,-22.9959 1300.74,-19.9474"/>
<polygon fill="red" stroke="red" stroke-width="0.23459" points="1301.29,-16.4904 1290.85,-18.3321 1300.16,-23.3988 1301.29,-16.4904"/>
</g>
<!-- &#45;14&#45;&gt;2 -->
<g id="edge53" class="edge"><title>&#45;14&#45;&gt;2</title>
<path fill="none" stroke="green" stroke-width="0.311245" d="M1865.41,-77.863C1861.22,-73.4956 1855.47,-68.4423 1849.24,-65.6985 1770.95,-31.1978 1502.44,-19.4677 1419.11,-16.6116"/>
<polygon fill="green" stroke="green" stroke-width="0.311245" points="1419.15,-13.1111 1409.04,-16.2793 1418.92,-20.1073 1419.15,-13.1111"/>
</g>
<!-- &#45;14&#45;&gt;3 -->
<g id="edge54" class="edge"><title>&#45;14&#45;&gt;3</title>
<path fill="none" stroke="green" stroke-width="0.501116" d="M1865.46,-77.7482C1861.28,-73.3426 1855.53,-68.2893 1849.24,-65.6985 1726.34,-15.0932 1384.8,-39.3252 1252.24,-29.6985 1203.34,-26.147 1146.26,-21.087 1114.28,-18.1684"/>
<polygon fill="green" stroke="green" stroke-width="0.501116" points="1114.34,-14.6598 1104.06,-17.2313 1113.7,-21.6305 1114.34,-14.6598"/>
</g>
<!-- &#45;15 -->
<g id="node15" class="node"><title>&#45;15</title>
<polygon fill="lightgray" stroke="black" points="468.74,-95.9117 439.74,-95.9117 439.74,-77.9117 468.74,-77.9117 468.74,-95.9117"/>
<text text-anchor="middle" x="454.24" y="-84.7117" font-family="Times New Roman,serif" font-size="9.00">&#45;15</text>
</g>
<!-- &#45;15&#45;&gt;0 -->
<g id="edge55" class="edge"><title>&#45;15&#45;&gt;0</title>
<path fill="none" stroke="green" stroke-width="0.331728" d="M461.053,-77.8226C465.24,-73.4419 470.99,-68.3886 477.24,-65.6985 571.941,-24.9388 899.422,-17.441 993.054,-16.1203"/>
<polygon fill="green" stroke="green" stroke-width="0.331728" points="993.328,-19.6171 1003.28,-15.988 993.237,-12.6177 993.328,-19.6171"/>
</g>
<!-- &#45;15&#45;&gt;1 -->
<g id="edge56" class="edge"><title>&#45;15&#45;&gt;1</title>
<path fill="none" stroke="green" stroke-width="0.349646" d="M461.018,-77.7395C465.193,-73.331 470.943,-68.2777 477.24,-65.6985 608.236,-12.0402 972.034,-39.6917 1113.24,-29.6985 1162.15,-26.2371 1219.22,-21.1457 1251.21,-18.197"/>
<polygon fill="green" stroke="green" stroke-width="0.349646" points="1251.78,-21.6586 1261.42,-17.2496 1251.14,-14.6885 1251.78,-21.6586"/>
</g>
<!-- &#45;15&#45;&gt;2 -->
<g id="edge57" class="edge"><title>&#45;15&#45;&gt;2</title>
<path fill="none" stroke="red" stroke-width="0.455385" d="M461.005,-77.7092C465.177,-73.2906 470.927,-68.2373 477.24,-65.6985 562.162,-31.5472 1209.12,-38.3807 1300.24,-29.6985 1323.96,-27.4383 1350.84,-23.3192 1369.76,-20.1587"/>
<polygon fill="red" stroke="red" stroke-width="0.455385" points="1370.37,-23.6053 1379.64,-18.4747 1369.2,-16.7048 1370.37,-23.6053"/>
</g>
<!-- &#45;15&#45;&gt;3 -->
<g id="edge58" class="edge"><title>&#45;15&#45;&gt;3</title>
<path fill="none" stroke="red" stroke-width="0.153691" stroke-dasharray="1,5" d="M461.024,-77.7562C465.203,-73.3533 470.953,-68.3 477.24,-65.6985 593.492,-17.5977 918.353,-51.6146 1042.24,-29.6985 1049.98,-28.3287 1058.26,-26.1424 1065.68,-23.9079"/>
<polygon fill="red" stroke="red" stroke-width="0.153691" points="1066.98,-27.1665 1075.45,-20.7971 1064.86,-20.4965 1066.98,-27.1665"/>
</g>
<!-- &#45;16 -->
<g id="node16" class="node"><title>&#45;16</title>
<polygon fill="lightgray" stroke="black" points="515.74,-95.9117 486.74,-95.9117 486.74,-77.9117 515.74,-77.9117 515.74,-95.9117"/>
<text text-anchor="middle" x="501.24" y="-84.7117" font-family="Times New Roman,serif" font-size="9.00">&#45;16</text>
</g>
<!-- &#45;16&#45;&gt;0 -->
<g id="edge59" class="edge"><title>&#45;16&#45;&gt;0</title>
<path fill="none" stroke="red" stroke-width="0.283425" d="M508.061,-77.843C512.252,-73.469 518.002,-68.4157 524.24,-65.6985 609.879,-28.3972 904.582,-18.5259 992.979,-16.3752"/>
<polygon fill="red" stroke="red" stroke-width="0.283425" points="993.241,-19.8702 1003.16,-16.14 993.079,-12.872 993.241,-19.8702"/>
</g>
<!-- &#45;16&#45;&gt;1 -->
<g id="edge60" class="edge"><title>&#45;16&#45;&gt;1</title>
<path fill="none" stroke="green" stroke-width="0.510607" d="M508.022,-77.7501C512.199,-73.3452 517.949,-68.2919 524.24,-65.6985 645.475,-15.7193 982.455,-39.25 1113.24,-29.6985 1162.14,-26.1271 1219.22,-21.074 1251.2,-18.162"/>
<polygon fill="green" stroke="green" stroke-width="0.510607" points="1251.78,-21.6243 1261.42,-17.2273 1251.14,-14.6534 1251.78,-21.6243"/>
</g>
<!-- &#45;16&#45;&gt;2 -->
<g id="edge61" class="edge"><title>&#45;16&#45;&gt;2</title>
<path fill="none" stroke="red" stroke-width="0.102843" d="M508.008,-77.7154C512.18,-73.2989 517.93,-68.2456 524.24,-65.6985 604.279,-33.3879 1214.33,-37.9994 1300.24,-29.6985 1323.96,-27.4069 1350.84,-23.2918 1369.76,-20.1408"/>
<polygon fill="red" stroke="red" stroke-width="0.102843" points="1370.37,-23.5879 1379.64,-18.4627 1369.2,-16.6867 1370.37,-23.5879"/>
</g>
<!-- &#45;16&#45;&gt;3 -->
<g id="edge62" class="edge"><title>&#45;16&#45;&gt;3</title>
<path fill="none" stroke="green" stroke-width="0.479967" d="M508.03,-77.7698C512.21,-73.3714 517.96,-68.3181 524.24,-65.6985 630.735,-21.2755 928.674,-50.1261 1042.24,-29.6985 1049.98,-28.3064 1058.26,-26.114 1065.68,-23.8807"/>
<polygon fill="green" stroke="green" stroke-width="0.479967" points="1066.98,-27.1401 1075.45,-20.7755 1064.86,-20.469 1066.98,-27.1401"/>
</g>
<!-- &#45;17 -->
<g id="node17" class="node"><title>&#45;17</title>
<polygon fill="lightgray" stroke="black" points="562.74,-95.9117 533.74,-95.9117 533.74,-77.9117 562.74,-77.9117 562.74,-95.9117"/>
<text text-anchor="middle" x="548.24" y="-84.7117" font-family="Times New Roman,serif" font-size="9.00">&#45;17</text>
</g>
<!-- &#45;17&#45;&gt;0 -->
<g id="edge63" class="edge"><title>&#45;17&#45;&gt;0</title>
<path fill="none" stroke="green" stroke-width="0.139222" d="M555.072,-77.8675C559.266,-73.5017 565.016,-68.4484 571.24,-65.6985 647.891,-31.8327 910.225,-19.7131 993.003,-16.6806"/>
<polygon fill="green" stroke="green" stroke-width="0.139222" points="993.374,-20.1698 1003.24,-16.3188 993.126,-13.1741 993.374,-20.1698"/>
</g>
<!-- &#45;17&#45;&gt;1 -->
<g id="edge64" class="edge"><title>&#45;17&#45;&gt;1</title>
<path fill="none" stroke="green" stroke-width="0.123973" d="M555.027,-77.7626C559.206,-73.3618 564.956,-68.3085 571.24,-65.6985 682.717,-19.3976 992.874,-38.8085 1113.24,-29.6985 1162.13,-25.998 1219.21,-20.99 1251.2,-18.121"/>
<polygon fill="green" stroke="green" stroke-width="0.123973" points="1251.77,-21.5841 1261.41,-17.2011 1251.14,-14.6123 1251.77,-21.5841"/>
</g>
<!-- &#45;17&#45;&gt;2 -->
<g id="edge65" class="edge"><title>&#45;17&#45;&gt;2</title>
<path fill="none" stroke="red" stroke-width="0.206633" d="M555.011,-77.7225C559.184,-73.3083 564.934,-68.255 571.24,-65.6985 721.554,-4.75817 1138.82,-45.5379 1300.24,-29.6985 1323.95,-27.3715 1350.84,-23.261 1369.76,-20.1207"/>
<polygon fill="red" stroke="red" stroke-width="0.206633" points="1370.36,-23.5682 1379.64,-18.4491 1369.2,-16.6663 1370.36,-23.5682"/>
</g>
<!-- &#45;17&#45;&gt;3 -->
<g id="edge66" class="edge"><title>&#45;17&#45;&gt;3</title>
<path fill="none" stroke="red" stroke-width="0.430454" d="M555.037,-77.786C559.219,-73.393 564.969,-68.3397 571.24,-65.6985 667.981,-24.9519 938.991,-48.6382 1042.24,-29.6985 1049.97,-28.2797 1058.25,-26.0799 1065.67,-23.848"/>
<polygon fill="red" stroke="red" stroke-width="0.430454" points="1066.97,-27.1086 1075.44,-20.7496 1064.85,-20.436 1066.97,-27.1086"/>
</g>
<!-- &#45;18 -->
<g id="node18" class="node"><title>&#45;18</title>
<polygon fill="lightgray" stroke="black" points="2006.74,-162.125 1977.74,-162.125 1977.74,-144.125 2006.74,-144.125 2006.74,-162.125"/>
<text text-anchor="middle" x="1992.24" y="-150.925" font-family="Times New Roman,serif" font-size="9.00">&#45;18</text>
</g>
<!-- &#45;18&#45;&gt;0 -->
<g id="edge67" class="edge"><title>&#45;18&#45;&gt;0</title>
<path fill="none" stroke="green" stroke-width="0.240843" stroke-dasharray="1,5" d="M1977.66,-152.067C1804.54,-151.348 146.835,-143.539 112.24,-108.125 99.0636,-94.6365 99.2782,-79.3932 112.24,-65.6985 143.374,-32.8047 849.926,-18.7784 993.08,-16.2693"/>
<polygon fill="green" stroke="green" stroke-width="0.240843" points="993.162,-19.7685 1003.1,-16.0965 993.041,-12.7695 993.162,-19.7685"/>
</g>
<!-- &#45;18&#45;&gt;1 -->
<g id="edge68" class="edge"><title>&#45;18&#45;&gt;1</title>
<path fill="none" stroke="green" stroke-width="0.298693" d="M1994.28,-143.99C1998.07,-126.708 2003.98,-86.241 1982.24,-65.6985 1932.73,-18.9103 1438,-36.6695 1370.24,-29.6985 1346.54,-27.2599 1319.65,-23.1638 1300.73,-20.0571"/>
<polygon fill="green" stroke="green" stroke-width="0.298693" points="1301.28,-16.6018 1290.84,-18.4061 1300.13,-23.5061 1301.28,-16.6018"/>
</g>
<!-- &#45;18&#45;&gt;2 -->
<g id="edge69" class="edge"><title>&#45;18&#45;&gt;2</title>
<path fill="none" stroke="red" stroke-width="0.502961" d="M2006.89,-146.979C2009.96,-145.974 2013.19,-144.971 2016.24,-144.125 2086.89,-124.506 2131.4,-165.35 2177.24,-108.125 2189.03,-93.4085 2190.14,-79.4489 2177.24,-65.6985 2150.69,-37.4071 1551.09,-19.9864 1419.58,-16.4983"/>
<polygon fill="red" stroke="red" stroke-width="0.502961" points="1419.39,-12.9922 1409.3,-16.2289 1419.21,-19.9898 1419.39,-12.9922"/>
</g>
<!-- &#45;18&#45;&gt;3 -->
<g id="edge70" class="edge"><title>&#45;18&#45;&gt;3</title>
<path fill="none" stroke="red" stroke-width="0.30703" d="M1977.54,-152.037C1811.35,-151.009 291.017,-140.719 259.24,-108.125 137.167,17.0867 869.781,-58.637 1042.24,-29.6985 1049.99,-28.3972 1058.28,-26.23 1065.7,-23.9919"/>
<polygon fill="red" stroke="red" stroke-width="0.30703" points="1067.01,-27.2474 1075.46,-20.8635 1064.87,-20.5811 1067.01,-27.2474"/>
</g>
<!-- 181 -->
<g id="node46" class="node"><title>181</title>
<ellipse fill="white" stroke="black" cx="2250.24" cy="-86.9117" rx="21.4286" ry="21.4286"/>
<text text-anchor="middle" x="2250.24" y="-84.7117" font-family="Times New Roman,serif" font-size="9.00">181</text>
</g>
<!-- &#45;18&#45;&gt;181 -->
<g id="edge157" class="edge"><title>&#45;18&#45;&gt;181</title>
<path fill="none" stroke="green" stroke-width="0.277506" d="M2006.86,-146.882C2009.94,-145.884 2013.18,-144.908 2016.24,-144.125 2103.32,-121.857 2130.85,-139.058 2215.24,-108.125 2218.18,-107.049 2221.15,-105.735 2224.06,-104.298"/>
<polygon fill="green" stroke="green" stroke-width="0.277506" points="2225.9,-107.283 2233.01,-99.4341 2222.56,-101.132 2225.9,-107.283"/>
</g>
<!-- &#45;19 -->
<g id="node19" class="node"><title>&#45;19</title>
<polygon fill="lightgray" stroke="black" points="609.74,-95.9117 580.74,-95.9117 580.74,-77.9117 609.74,-77.9117 609.74,-95.9117"/>
<text text-anchor="middle" x="595.24" y="-84.7117" font-family="Times New Roman,serif" font-size="9.00">&#45;19</text>
</g>
<!-- &#45;19&#45;&gt;0 -->
<g id="edge71" class="edge"><title>&#45;19&#45;&gt;0</title>
<path fill="none" stroke="green" stroke-width="0.204617" d="M602.085,-77.8976C606.284,-73.5418 612.034,-68.4885 618.24,-65.6985 685.92,-35.2719 915.966,-21.0472 992.925,-17.0613"/>
<polygon fill="green" stroke="green" stroke-width="0.204617" points="993.321,-20.5459 1003.13,-16.5467 992.968,-13.5548 993.321,-20.5459"/>
</g>
<!-- &#45;19&#45;&gt;1 -->
<g id="edge72" class="edge"><title>&#45;19&#45;&gt;1</title>
<path fill="none" stroke="red" stroke-width="0.103668" d="M602.033,-77.7773C606.214,-73.3815 611.964,-68.3282 618.24,-65.6985 719.961,-23.0748 1003.29,-38.3672 1113.24,-29.6985 1162.12,-25.8446 1219.2,-20.8901 1251.2,-18.0722"/>
<polygon fill="red" stroke="red" stroke-width="0.103668" points="1251.76,-21.5363 1261.41,-17.1699 1251.14,-14.5634 1251.76,-21.5363"/>
</g>
<!-- &#45;19&#45;&gt;2 -->
<g id="edge73" class="edge"><title>&#45;19&#45;&gt;2</title>
<path fill="none" stroke="red" stroke-width="0.131141" d="M602.014,-77.7305C606.189,-73.319 611.939,-68.2657 618.24,-65.6985 758.79,-8.4386 1149.22,-44.7756 1300.24,-29.6985 1323.95,-27.3313 1350.83,-23.2259 1369.76,-20.0978"/>
<polygon fill="red" stroke="red" stroke-width="0.131141" points="1370.36,-23.5458 1379.64,-18.4336 1369.2,-16.643 1370.36,-23.5458"/>
</g>
<!-- &#45;19&#45;&gt;3 -->
<g id="edge74" class="edge"><title>&#45;19&#45;&gt;3</title>
<path fill="none" stroke="red" stroke-width="0.583151" d="M602.045,-77.8058C606.23,-73.4194 611.98,-68.3661 618.24,-65.6985 792.223,8.44546 856.367,-64.6038 1042.24,-29.6985 1049.97,-28.2472 1058.24,-26.0383 1065.66,-23.8081"/>
<polygon fill="red" stroke="red" stroke-width="0.583151" points="1066.96,-27.0701 1075.44,-20.718 1064.85,-20.3958 1066.96,-27.0701"/>
</g>
<!-- &#45;20 -->
<g id="node20" class="node"><title>&#45;20</title>
<polygon fill="lightgray" stroke="black" points="2134.74,-95.9117 2105.74,-95.9117 2105.74,-77.9117 2134.74,-77.9117 2134.74,-95.9117"/>
<text text-anchor="middle" x="2120.24" y="-84.7117" font-family="Times New Roman,serif" font-size="9.00">&#45;20</text>
</g>
<!-- &#45;20&#45;&gt;1 -->
<g id="edge75" class="edge"><title>&#45;20&#45;&gt;1</title>
<path fill="none" stroke="green" stroke-width="0.302286" d="M2111.32,-77.7103C2105.92,-73.2921 2098.67,-68.2388 2091.24,-65.6985 1939.44,-13.8209 1529.89,-45.4082 1370.24,-29.6985 1346.53,-27.365 1319.64,-23.2554 1300.72,-20.117"/>
<polygon fill="green" stroke="green" stroke-width="0.302286" points="1301.28,-16.6625 1290.84,-18.4466 1300.12,-23.5646 1301.28,-16.6625"/>
</g>
<!-- &#45;20&#45;&gt;2 -->
<g id="edge76" class="edge"><title>&#45;20&#45;&gt;2</title>
<path fill="none" stroke="red" stroke-width="0.100843" d="M2111.29,-77.7702C2105.9,-73.3719 2098.65,-68.3186 2091.24,-65.6985 1963.53,-20.5146 1528.19,-16.2282 1419.16,-15.87"/>
<polygon fill="red" stroke="red" stroke-width="0.100843" points="1419.11,-12.37 1409.1,-15.8455 1419.1,-19.3699 1419.11,-12.37"/>
</g>
<!-- &#45;20&#45;&gt;3 -->
<g id="edge77" class="edge"><title>&#45;20&#45;&gt;3</title>
<path fill="none" stroke="red" stroke-width="0.145369" d="M2105.39,-83.2572C2080.17,-78.8565 2027.31,-70.0998 1982.24,-65.6985 1658.94,-34.1232 1576.35,-51.4523 1252.24,-29.6985 1203.32,-26.4149 1146.25,-21.2615 1114.27,-18.2536"/>
<polygon fill="red" stroke="red" stroke-width="0.145369" points="1114.35,-14.7451 1104.06,-17.2857 1113.68,-21.7139 1114.35,-14.7451"/>
</g>
<!-- &#45;21 -->
<g id="node21" class="node"><title>&#45;21</title>
<polygon fill="lightgray" stroke="black" points="656.74,-95.9117 627.74,-95.9117 627.74,-77.9117 656.74,-77.9117 656.74,-95.9117"/>
<text text-anchor="middle" x="642.24" y="-84.7117" font-family="Times New Roman,serif" font-size="9.00">&#45;21</text>
</g>
<!-- &#45;21&#45;&gt;0 -->
<g id="edge78" class="edge"><title>&#45;21&#45;&gt;0</title>
<path fill="none" stroke="green" stroke-width="0.393061" d="M649.501,-77.5263C653.667,-73.2787 659.25,-68.4503 665.24,-65.6985 724.098,-38.6592 922.676,-22.5122 993.163,-17.521"/>
<polygon fill="green" stroke="green" stroke-width="0.393061" points="993.601,-20.9992 1003.34,-16.8158 993.117,-14.0159 993.601,-20.9992"/>
</g>
<!-- &#45;21&#45;&gt;1 -->
<g id="edge79" class="edge"><title>&#45;21&#45;&gt;1</title>
<path fill="none" stroke="red" stroke-width="0.435846" d="M649.041,-77.7952C653.224,-73.4053 658.974,-68.352 665.24,-65.6985 757.209,-26.7504 1013.7,-37.9263 1113.24,-29.6985 1162.11,-25.6592 1219.2,-20.7694 1251.19,-18.0132"/>
<polygon fill="red" stroke="red" stroke-width="0.435846" points="1251.75,-21.4785 1261.41,-17.1322 1251.15,-14.5044 1251.75,-21.4785"/>
</g>
<!-- &#45;21&#45;&gt;2 -->
<g id="edge80" class="edge"><title>&#45;21&#45;&gt;2</title>
<path fill="none" stroke="green" stroke-width="0.34075" d="M649.018,-77.7397C653.194,-73.3313 658.944,-68.278 665.24,-65.6985 796.028,-12.1185 1159.63,-44.0135 1300.24,-29.6985 1323.95,-27.2851 1350.83,-23.1857 1369.75,-20.0715"/>
<polygon fill="green" stroke="green" stroke-width="0.34075" points="1370.35,-23.5201 1379.64,-18.4158 1369.2,-16.6163 1370.35,-23.5201"/>
</g>
<!-- &#45;21&#45;&gt;3 -->
<g id="edge81" class="edge"><title>&#45;21&#45;&gt;3</title>
<path fill="none" stroke="green" stroke-width="0.449502" d="M649.056,-77.8304C653.244,-73.4522 658.994,-68.3989 665.24,-65.6985 819.735,1.10111 876.979,-61.632 1042.24,-29.6985 1049.96,-28.2067 1058.23,-25.9865 1065.65,-23.7585"/>
<polygon fill="green" stroke="green" stroke-width="0.449502" points="1066.94,-27.0222 1075.43,-20.6787 1064.84,-20.3457 1066.94,-27.0222"/>
</g>
<!-- &#45;22 -->
<g id="node22" class="node"><title>&#45;22</title>
<polygon fill="lightgray" stroke="black" points="703.74,-95.9117 674.74,-95.9117 674.74,-77.9117 703.74,-77.9117 703.74,-95.9117"/>
<text text-anchor="middle" x="689.24" y="-84.7117" font-family="Times New Roman,serif" font-size="9.00">&#45;22</text>
</g>
<!-- &#45;22&#45;&gt;0 -->
<g id="edge82" class="edge"><title>&#45;22&#45;&gt;0</title>
<path fill="none" stroke="green" stroke-width="0.280111" d="M696.525,-77.5768C700.697,-73.344 706.28,-68.5136 712.24,-65.6985 808.77,-20.1074 939.4,-15.2383 993.35,-15.358"/>
<polygon fill="green" stroke="green" stroke-width="0.280111" points="993.344,-18.8579 1003.37,-15.442 993.403,-11.8582 993.344,-18.8579"/>
</g>
<!-- &#45;22&#45;&gt;1 -->
<g id="edge83" class="edge"><title>&#45;22&#45;&gt;1</title>
<path fill="none" stroke="green" stroke-width="0.11923" d="M696.049,-77.8139C700.235,-73.4302 705.985,-68.3769 712.24,-65.6985 715.397,-64.3468 1143.2,-27.336 1251.53,-17.9812"/>
<polygon fill="green" stroke="green" stroke-width="0.11923" points="1251.87,-21.465 1261.54,-17.1178 1251.27,-14.491 1251.87,-21.465"/>
</g>
<!-- &#45;22&#45;&gt;2 -->
<g id="edge84" class="edge"><title>&#45;22&#45;&gt;2</title>
<path fill="none" stroke="red" stroke-width="0.432673" d="M696.022,-77.7504C700.199,-73.3455 705.949,-68.2922 712.24,-65.6985 833.268,-15.7976 1170.03,-43.2515 1300.24,-29.6985 1323.94,-27.2316 1350.82,-23.1391 1369.75,-20.041"/>
<polygon fill="red" stroke="red" stroke-width="0.432673" points="1370.35,-23.4903 1379.63,-18.3952 1369.2,-16.5854 1370.35,-23.4903"/>
</g>
<!-- &#45;22&#45;&gt;3 -->
<g id="edge85" class="edge"><title>&#45;22&#45;&gt;3</title>
<path fill="none" stroke="green" stroke-width="0.612314" d="M696.07,-77.8619C700.263,-73.4942 706.013,-68.4409 712.24,-65.6985 847.264,-6.23614 897.574,-58.6636 1042.24,-29.6985 1049.95,-28.1547 1058.22,-25.9201 1065.64,-23.6949"/>
<polygon fill="green" stroke="green" stroke-width="0.612314" points="1066.92,-26.9607 1075.42,-20.6283 1064.83,-20.2815 1066.92,-26.9607"/>
</g>
<!-- &#45;23 -->
<g id="node23" class="node"><title>&#45;23</title>
<polygon fill="lightgray" stroke="black" points="750.74,-95.9117 721.74,-95.9117 721.74,-77.9117 750.74,-77.9117 750.74,-95.9117"/>
<text text-anchor="middle" x="736.24" y="-84.7117" font-family="Times New Roman,serif" font-size="9.00">&#45;23</text>
</g>
<!-- &#45;23&#45;&gt;0 -->
<g id="edge86" class="edge"><title>&#45;23&#45;&gt;0</title>
<path fill="none" stroke="green" stroke-width="0.130556" d="M743.558,-77.6447C747.739,-73.4317 753.321,-68.5987 759.24,-65.6985 838.59,-26.8217 945.476,-18.2304 993.299,-16.3566"/>
<polygon fill="green" stroke="green" stroke-width="0.130556" points="993.478,-19.8528 1003.36,-16.0299 993.251,-12.8565 993.478,-19.8528"/>
</g>
<!-- &#45;23&#45;&gt;1 -->
<g id="edge87" class="edge"><title>&#45;23&#45;&gt;1</title>
<path fill="none" stroke="green" stroke-width="0.416754" d="M743.057,-77.8326C747.246,-73.4551 752.996,-68.4018 759.24,-65.6985 770.693,-60.7401 1149.19,-27.0588 1251.16,-18.0573"/>
<polygon fill="green" stroke="green" stroke-width="0.416754" points="1251.77,-21.5169 1261.42,-17.1519 1251.15,-14.544 1251.77,-21.5169"/>
</g>
<!-- &#45;23&#45;&gt;2 -->
<g id="edge88" class="edge"><title>&#45;23&#45;&gt;2</title>
<path fill="none" stroke="green" stroke-width="0.185508" d="M743.027,-77.7629C747.206,-73.3621 752.956,-68.3088 759.24,-65.6985 870.509,-19.4759 1180.43,-42.4898 1300.24,-29.6985 1323.93,-27.1688 1350.82,-23.0844 1369.75,-20.0052"/>
<polygon fill="green" stroke="green" stroke-width="0.185508" points="1370.34,-23.4554 1379.63,-18.3711 1369.2,-16.5491 1370.34,-23.4554"/>
</g>
<!-- &#45;23&#45;&gt;3 -->
<g id="edge89" class="edge"><title>&#45;23&#45;&gt;3</title>
<path fill="none" stroke="green" stroke-width="0.299189" d="M743.088,-77.9035C747.288,-73.5497 753.038,-68.4964 759.24,-65.6985 874.816,-13.5627 918.144,-55.7004 1042.24,-29.6985 1049.94,-28.0859 1058.2,-25.8322 1065.62,-23.6106"/>
<polygon fill="green" stroke="green" stroke-width="0.299189" points="1066.9,-26.8792 1075.4,-20.5616 1064.82,-20.1964 1066.9,-26.8792"/>
</g>
<!-- &#45;24 -->
<g id="node24" class="node"><title>&#45;24</title>
<polygon fill="lightgray" stroke="black" points="2053.74,-162.125 2024.74,-162.125 2024.74,-144.125 2053.74,-144.125 2053.74,-162.125"/>
<text text-anchor="middle" x="2039.24" y="-150.925" font-family="Times New Roman,serif" font-size="9.00">&#45;24</text>
</g>
<!-- &#45;24&#45;&gt;0 -->
<g id="edge90" class="edge"><title>&#45;24&#45;&gt;0</title>
<path fill="none" stroke="green" stroke-width="0.596504" d="M2024.33,-146.18C2021.67,-145.34 2018.9,-144.602 2016.24,-144.125 1966.25,-135.172 223.797,-144.389 188.24,-108.125 175.039,-94.6609 175.313,-79.4257 188.24,-65.6985 216.547,-35.6402 857.347,-19.4901 993.111,-16.3993"/>
<polygon fill="green" stroke="green" stroke-width="0.596504" points="993.42,-19.8933 1003.34,-16.1696 993.263,-12.8951 993.42,-19.8933"/>
</g>
<!-- &#45;24&#45;&gt;1 -->
<g id="edge91" class="edge"><title>&#45;24&#45;&gt;1</title>
<path fill="none" stroke="red" stroke-width="0.111497" d="M2038.61,-143.96C2036.75,-126.251 2029.63,-84.3994 2003.24,-65.6985 1945.76,-24.9694 1440.32,-36.8398 1370.24,-29.6985 1346.53,-27.283 1319.65,-23.1839 1300.73,-20.0702"/>
<polygon fill="red" stroke="red" stroke-width="0.111497" points="1301.28,-16.6151 1290.84,-18.415 1300.13,-23.5189 1301.28,-16.6151"/>
</g>
<!-- &#45;24&#45;&gt;2 -->
<g id="edge92" class="edge"><title>&#45;24&#45;&gt;2</title>
<path fill="none" stroke="red" stroke-width="0.139787" d="M2053.84,-146.763C2056.91,-145.774 2060.16,-144.832 2063.24,-144.125 2123.74,-130.246 2299.27,-154.76 2340.24,-108.125 2352.68,-93.9584 2353.22,-79.3781 2340.24,-65.6985 2307.63,-31.3218 1566.85,-18.4375 1419.57,-16.2114"/>
<polygon fill="red" stroke="red" stroke-width="0.139787" points="1419.34,-12.7077 1409.29,-16.0589 1419.23,-19.7069 1419.34,-12.7077"/>
</g>
<!-- &#45;24&#45;&gt;3 -->
<g id="edge93" class="edge"><title>&#45;24&#45;&gt;3</title>
<path fill="none" stroke="green" stroke-width="0.322281" d="M2024.33,-146.184C2021.67,-145.344 2018.9,-144.604 2016.24,-144.125 1970.68,-135.921 382.616,-141.208 350.24,-108.125 337.052,-94.6483 337.258,-79.3738 350.24,-65.6985 403.249,-9.86 966.348,-42.6686 1042.24,-29.6985 1049.99,-28.3738 1058.27,-26.2001 1065.69,-23.9632"/>
<polygon fill="green" stroke="green" stroke-width="0.322281" points="1067,-27.2198 1075.46,-20.8409 1064.87,-20.5522 1067,-27.2198"/>
</g>
<!-- 401 -->
<g id="node45" class="node"><title>401</title>
<ellipse fill="white" stroke="black" cx="2310.24" cy="-86.9117" rx="21.4286" ry="21.4286"/>
<text text-anchor="middle" x="2310.24" y="-84.7117" font-family="Times New Roman,serif" font-size="9.00">401</text>
</g>
<!-- &#45;24&#45;&gt;401 -->
<g id="edge159" class="edge"><title>&#45;24&#45;&gt;401</title>
<path fill="none" stroke="green" stroke-width="0.390085" d="M2053.86,-146.847C2056.93,-145.852 2060.17,-144.886 2063.24,-144.125 2158.13,-120.594 2189.4,-144.265 2280.24,-108.125 2281.84,-107.486 2283.45,-106.752 2285.04,-105.949"/>
<polygon fill="green" stroke="green" stroke-width="0.390085" points="2286.96,-108.88 2293.82,-100.803 2283.42,-102.841 2286.96,-108.88"/>
</g>
<!-- &#45;25 -->
<g id="node25" class="node"><title>&#45;25</title>
<polygon fill="lightgray" stroke="black" points="797.74,-95.9117 768.74,-95.9117 768.74,-77.9117 797.74,-77.9117 797.74,-95.9117"/>
<text text-anchor="middle" x="783.24" y="-84.7117" font-family="Times New Roman,serif" font-size="9.00">&#45;25</text>
</g>
<!-- &#45;25&#45;&gt;0 -->
<g id="edge94" class="edge"><title>&#45;25&#45;&gt;0</title>
<path fill="none" stroke="green" stroke-width="0.501039" d="M790.606,-77.7406C794.802,-73.5556 800.381,-68.7188 806.24,-65.6985 868.732,-33.4838 952.294,-21.7675 993.345,-17.7677"/>
<polygon fill="green" stroke="green" stroke-width="0.501039" points="993.869,-21.2348 1003.51,-16.8523 993.241,-14.263 993.869,-21.2348"/>
</g>
<!-- &#45;25&#45;&gt;1 -->
<g id="edge95" class="edge"><title>&#45;25&#45;&gt;1</title>
<path fill="none" stroke="green" stroke-width="0.237345" d="M790.067,-77.8549C794.259,-73.4849 800.009,-68.4316 806.24,-65.6985 826.841,-56.6631 1157.1,-26.5225 1251.32,-18.0701"/>
<polygon fill="green" stroke="green" stroke-width="0.237345" points="1251.72,-21.5483 1261.37,-17.1707 1251.1,-14.5762 1251.72,-21.5483"/>
</g>
<!-- &#45;25&#45;&gt;2 -->
<g id="edge96" class="edge"><title>&#45;25&#45;&gt;2</title>
<path fill="none" stroke="green" stroke-width="0.109574" d="M790.033,-77.7777C794.215,-73.3819 799.965,-68.3286 806.24,-65.6985 907.754,-23.153 1190.83,-41.7284 1300.24,-29.6985 1323.93,-27.0942 1350.81,-23.0193 1369.74,-19.9627"/>
<polygon fill="green" stroke="green" stroke-width="0.109574" points="1370.33,-23.4138 1379.63,-18.3424 1369.19,-16.506 1370.33,-23.4138"/>
</g>
<!-- &#45;25&#45;&gt;3 -->
<g id="edge97" class="edge"><title>&#45;25&#45;&gt;3</title>
<path fill="none" stroke="green" stroke-width="0.189373" d="M790.514,-77.5528C794.683,-73.3128 800.265,-68.4834 806.24,-65.6985 902.408,-20.8718 938.671,-52.746 1042.24,-29.6985 1049.92,-27.9904 1058.18,-25.7102 1065.6,-23.4937"/>
<polygon fill="green" stroke="green" stroke-width="0.189373" points="1066.86,-26.766 1075.38,-20.469 1064.8,-20.0781 1066.86,-26.766"/>
</g>
<!-- &#45;26 -->
<g id="node26" class="node"><title>&#45;26</title>
<polygon fill="lightgray" stroke="black" points="844.74,-95.9117 815.74,-95.9117 815.74,-77.9117 844.74,-77.9117 844.74,-95.9117"/>
<text text-anchor="middle" x="830.24" y="-84.7117" font-family="Times New Roman,serif" font-size="9.00">&#45;26</text>
</g>
<!-- &#45;26&#45;&gt;0 -->
<g id="edge98" class="edge"><title>&#45;26&#45;&gt;0</title>
<path fill="none" stroke="green" stroke-width="0.341942" d="M837.683,-77.8853C841.902,-73.7428 847.478,-68.9003 853.24,-65.6985 899.302,-40.1028 960.066,-26.1333 993.512,-19.9063"/>
<polygon fill="green" stroke="green" stroke-width="0.341942" points="994.514,-23.283 1003.75,-18.0857 993.288,-16.3912 994.514,-23.283"/>
</g>
<!-- &#45;26&#45;&gt;1 -->
<g id="edge99" class="edge"><title>&#45;26&#45;&gt;1</title>
<path fill="none" stroke="green" stroke-width="0.265921" d="M837.079,-77.8821C841.275,-73.5211 847.025,-68.4678 853.24,-65.6985 889.719,-49.445 1165.86,-25.1247 1251.19,-17.9266"/>
<polygon fill="green" stroke="green" stroke-width="0.265921" points="1251.61,-21.4044 1261.28,-17.0809 1251.02,-14.4289 1251.61,-21.4044"/>
</g>
<!-- &#45;26&#45;&gt;2 -->
<g id="edge100" class="edge"><title>&#45;26&#45;&gt;2</title>
<path fill="none" stroke="red" stroke-width="0.237452" d="M837.041,-77.7956C841.225,-73.4058 846.975,-68.3525 853.24,-65.6985 945.002,-26.8285 1201.22,-40.9674 1300.24,-29.6985 1323.92,-27.004 1350.8,-22.9407 1369.74,-19.9113"/>
<polygon fill="red" stroke="red" stroke-width="0.237452" points="1370.31,-23.3635 1379.63,-18.3077 1369.19,-16.4538 1370.31,-23.3635"/>
</g>
<!-- &#45;26&#45;&gt;3 -->
<g id="edge101" class="edge"><title>&#45;26&#45;&gt;3</title>
<path fill="none" stroke="green" stroke-width="0.148763" stroke-dasharray="1,5" d="M837.555,-77.6402C841.737,-73.4259 847.318,-68.593 853.24,-65.6985 930.065,-28.1499 959.128,-49.8075 1042.24,-29.6985 1049.88,-27.8493 1058.13,-25.5299 1065.56,-23.3209"/>
<polygon fill="green" stroke="green" stroke-width="0.148763" points="1066.81,-26.5984 1075.35,-20.3322 1064.77,-19.9032 1066.81,-26.5984"/>
</g>
<!-- &#45;27 -->
<g id="node27" class="node"><title>&#45;27</title>
<polygon fill="lightgray" stroke="black" points="891.74,-95.9117 862.74,-95.9117 862.74,-77.9117 891.74,-77.9117 891.74,-95.9117"/>
<text text-anchor="middle" x="877.24" y="-84.7117" font-family="Times New Roman,serif" font-size="9.00">&#45;27</text>
</g>
<!-- &#45;27&#45;&gt;0 -->
<g id="edge102" class="edge"><title>&#45;27&#45;&gt;0</title>
<path fill="none" stroke="red" stroke-width="0.10533" d="M885.242,-77.7294C889.445,-73.7422 894.837,-69.0889 900.24,-65.6985 930.734,-46.5652 969.844,-31.6974 994.482,-23.3508"/>
<polygon fill="red" stroke="red" stroke-width="0.10533" points="995.689,-26.6383 1004.09,-20.1796 993.494,-19.9912 995.689,-26.6383"/>
</g>
<!-- &#45;27&#45;&gt;1 -->
<g id="edge103" class="edge"><title>&#45;27&#45;&gt;1</title>
<path fill="none" stroke="red" stroke-width="0.328445" d="M884.492,-77.506C888.655,-73.2524 894.239,-68.4248 900.24,-65.6985 932.234,-51.1645 1172.29,-26.2096 1251.19,-18.3173"/>
<polygon fill="red" stroke="red" stroke-width="0.328445" points="1251.61,-21.7928 1261.22,-17.3197 1250.92,-14.8272 1251.61,-21.7928"/>
</g>
<!-- &#45;27&#45;&gt;2 -->
<g id="edge104" class="edge"><title>&#45;27&#45;&gt;2</title>
<path fill="none" stroke="red" stroke-width="0.18307" d="M884.05,-77.8177C888.237,-73.4352 893.987,-68.3819 900.24,-65.6985 982.255,-30.502 1211.61,-40.207 1300.24,-29.6985 1323.9,-26.8928 1350.79,-22.8438 1369.73,-19.848"/>
<polygon fill="red" stroke="red" stroke-width="0.18307" points="1370.3,-23.3015 1379.62,-18.2649 1369.19,-16.3895 1370.3,-23.3015"/>
</g>
<!-- &#45;27&#45;&gt;3 -->
<g id="edge105" class="edge"><title>&#45;27&#45;&gt;3</title>
<path fill="none" stroke="red" stroke-width="0.143479" d="M884.627,-77.781C888.829,-73.6079 894.407,-68.7695 900.24,-65.6985 957.85,-35.3652 979.447,-46.903 1042.24,-29.6985 1049.82,-27.6206 1058.06,-25.2377 1065.49,-23.0408"/>
<polygon fill="red" stroke="red" stroke-width="0.143479" points="1066.72,-26.3264 1075.3,-20.1104 1064.71,-19.6193 1066.72,-26.3264"/>
</g>
<!-- &#45;28 -->
<g id="node28" class="node"><title>&#45;28</title>
<polygon fill="lightgray" stroke="black" points="938.74,-95.9117 909.74,-95.9117 909.74,-77.9117 938.74,-77.9117 938.74,-95.9117"/>
<text text-anchor="middle" x="924.24" y="-84.7117" font-family="Times New Roman,serif" font-size="9.00">&#45;28</text>
</g>
<!-- &#45;28&#45;&gt;0 -->
<g id="edge106" class="edge"><title>&#45;28&#45;&gt;0</title>
<path fill="none" stroke="red" stroke-width="0.211461" d="M933.004,-77.8088C937.217,-74.0188 942.394,-69.5112 947.24,-65.6985 963.65,-52.7888 983.109,-39.2424 997.501,-29.5348"/>
<polygon fill="red" stroke="red" stroke-width="0.211461" points="999.777,-32.2232 1006.14,-23.7551 995.886,-26.4042 999.777,-32.2232"/>
</g>
<!-- &#45;28&#45;&gt;1 -->
<g id="edge107" class="edge"><title>&#45;28&#45;&gt;1</title>
<path fill="none" stroke="red" stroke-width="0.21787" d="M931.512,-77.5504C935.681,-73.3098 941.264,-68.4804 947.24,-65.6985 1001.56,-40.4094 1183.89,-23.3718 1251.09,-17.8191"/>
<polygon fill="red" stroke="red" stroke-width="0.21787" points="1251.52,-21.2961 1261.2,-16.9991 1250.95,-14.319 1251.52,-21.2961"/>
</g>
<!-- &#45;28&#45;&gt;2 -->
<g id="edge108" class="edge"><title>&#45;28&#45;&gt;2</title>
<path fill="none" stroke="red" stroke-width="0.431477" d="M931.062,-77.8455C935.253,-73.4723 941.003,-68.419 947.24,-65.6985 1091.79,-2.64664 1143.75,-49.1966 1300.24,-29.6985 1323.89,-26.7524 1350.78,-22.7215 1369.72,-19.768"/>
<polygon fill="red" stroke="red" stroke-width="0.431477" points="1370.28,-23.2232 1379.61,-18.2109 1369.19,-16.3083 1370.28,-23.2232"/>
</g>
<!-- &#45;28&#45;&gt;3 -->
<g id="edge109" class="edge"><title>&#45;28&#45;&gt;3</title>
<path fill="none" stroke="red" stroke-width="0.328285" d="M932.155,-77.586C936.336,-73.5622 941.734,-68.9195 947.24,-65.6985 967.678,-53.7426 1030.36,-33.7282 1065.22,-23.0595"/>
<polygon fill="red" stroke="red" stroke-width="0.328285" points="1066.51,-26.3234 1075.07,-20.0679 1064.48,-19.6257 1066.51,-26.3234"/>
</g>
<!-- &#45;29 -->
<g id="node29" class="node"><title>&#45;29</title>
<polygon fill="lightgray" stroke="black" points="985.74,-95.9117 956.74,-95.9117 956.74,-77.9117 985.74,-77.9117 985.74,-95.9117"/>
<text text-anchor="middle" x="971.24" y="-84.7117" font-family="Times New Roman,serif" font-size="9.00">&#45;29</text>
</g>
<!-- &#45;29&#45;&gt;0 -->
<g id="edge110" class="edge"><title>&#45;29&#45;&gt;0</title>
<path fill="none" stroke="red" stroke-width="0.109902" d="M976.632,-77.8746C983.436,-67.7318 995.379,-49.9283 1004.73,-35.9895"/>
<polygon fill="red" stroke="red" stroke-width="0.109902" points="1007.76,-37.7615 1010.42,-27.5071 1001.94,-33.8618 1007.76,-37.7615"/>
</g>
<!-- &#45;29&#45;&gt;1 -->
<g id="edge111" class="edge"><title>&#45;29&#45;&gt;1</title>
<path fill="none" stroke="red" stroke-width="0.247077" d="M978.54,-77.6088C982.717,-73.3853 988.299,-68.5537 994.24,-65.6985 1039.8,-43.8036 1190.91,-25.24 1251.14,-18.5297"/>
<polygon fill="red" stroke="red" stroke-width="0.247077" points="1251.72,-21.9866 1261.28,-17.4165 1250.96,-15.0284 1251.72,-21.9866"/>
</g>
<!-- &#45;29&#45;&gt;2 -->
<g id="edge112" class="edge"><title>&#45;29&#45;&gt;2</title>
<path fill="none" stroke="red" stroke-width="0.128242" d="M978.078,-77.8816C982.274,-73.5205 988.024,-68.4672 994.24,-65.6985 1119.33,-9.979 1164.49,-47.6804 1300.24,-29.6985 1323.86,-26.5695 1350.76,-22.5621 1369.71,-19.6639"/>
<polygon fill="red" stroke="red" stroke-width="0.128242" points="1370.25,-23.121 1379.6,-18.1406 1369.19,-16.2025 1370.25,-23.121"/>
</g>
<!-- &#45;29&#45;&gt;3 -->
<g id="edge113" class="edge"><title>&#45;29&#45;&gt;3</title>
<path fill="none" stroke="green" stroke-width="0.207157" d="M979.793,-77.5217C983.959,-73.6688 989.158,-69.1911 994.24,-65.6985 1017.61,-49.6345 1046.79,-35.0438 1066.6,-25.8572"/>
<polygon fill="green" stroke="green" stroke-width="0.207157" points="1068.12,-29.0132 1075.77,-21.6827 1065.21,-22.643 1068.12,-29.0132"/>
</g>
<!-- &#45;30 -->
<g id="node30" class="node"><title>&#45;30</title>
<polygon fill="lightgray" stroke="black" points="1032.74,-95.9117 1003.74,-95.9117 1003.74,-77.9117 1032.74,-77.9117 1032.74,-95.9117"/>
<text text-anchor="middle" x="1018.24" y="-84.7117" font-family="Times New Roman,serif" font-size="9.00">&#45;30</text>
</g>
<!-- &#45;30&#45;&gt;0 -->
<g id="edge114" class="edge"><title>&#45;30&#45;&gt;0</title>
<path fill="none" stroke="green" stroke-width="0.138302" d="M1018.24,-77.8746C1018.24,-68.7202 1018.24,-53.3256 1018.24,-40.1641"/>
<polygon fill="green" stroke="green" stroke-width="0.138302" points="1021.74,-39.8196 1018.24,-29.8197 1014.74,-39.8197 1021.74,-39.8196"/>
</g>
<!-- &#45;30&#45;&gt;1 -->
<g id="edge115" class="edge"><title>&#45;30&#45;&gt;1</title>
<path fill="none" stroke="green" stroke-width="0.123842" d="M1025.58,-77.6892C1029.77,-73.4892 1035.35,-68.6545 1041.24,-65.6985 1111.86,-30.2674 1206.65,-19.9768 1251.17,-17.0209"/>
<polygon fill="green" stroke="green" stroke-width="0.123842" points="1251.58,-20.5026 1261.36,-16.4166 1251.17,-13.5149 1251.58,-20.5026"/>
</g>
<!-- &#45;30&#45;&gt;2 -->
<g id="edge116" class="edge"><title>&#45;30&#45;&gt;2</title>
<path fill="none" stroke="red" stroke-width="0.326912" d="M1025.5,-77.5211C1029.66,-73.2719 1035.25,-68.4437 1041.24,-65.6985 1146.9,-17.2978 1185.2,-46.1685 1300.24,-29.6985 1323.83,-26.3216 1350.73,-22.3461 1369.69,-19.5227"/>
<polygon fill="red" stroke="red" stroke-width="0.326912" points="1370.22,-22.9824 1379.59,-18.0453 1369.18,-16.059 1370.22,-22.9824"/>
</g>
<!-- &#45;30&#45;&gt;3 -->
<g id="edge117" class="edge"><title>&#45;30&#45;&gt;3</title>
<path fill="none" stroke="green" stroke-width="0.331841" d="M1026.38,-77.8746C1037.33,-67.0781 1057.06,-47.6015 1071.51,-33.3456"/>
<polygon fill="green" stroke="green" stroke-width="0.331841" points="1074.24,-35.5662 1078.9,-26.051 1069.33,-30.5836 1074.24,-35.5662"/>
</g>
<!-- &#45;31 -->
<g id="node31" class="node"><title>&#45;31</title>
<polygon fill="lightgray" stroke="black" points="1079.74,-95.9117 1050.74,-95.9117 1050.74,-77.9117 1079.74,-77.9117 1079.74,-95.9117"/>
<text text-anchor="middle" x="1065.24" y="-84.7117" font-family="Times New Roman,serif" font-size="9.00">&#45;31</text>
</g>
<!-- &#45;31&#45;&gt;0 -->
<g id="edge118" class="edge"><title>&#45;31&#45;&gt;0</title>
<path fill="none" stroke="green" stroke-width="0.271542" d="M1059.85,-77.8746C1053.04,-67.7318 1041.1,-49.9283 1031.75,-35.9895"/>
<polygon fill="green" stroke="green" stroke-width="0.271542" points="1034.54,-33.8618 1026.06,-27.5071 1028.72,-37.7615 1034.54,-33.8618"/>
</g>
<!-- &#45;31&#45;&gt;1 -->
<g id="edge119" class="edge"><title>&#45;31&#45;&gt;1</title>
<path fill="none" stroke="green" stroke-width="0.413217" d="M1072.64,-77.8063C1076.85,-73.6407 1082.42,-68.8013 1088.24,-65.6985 1142.34,-36.8382 1214.27,-23.8398 1251.53,-18.7213"/>
<polygon fill="green" stroke="green" stroke-width="0.413217" points="1252.03,-22.1857 1261.5,-17.4282 1251.13,-15.2439 1252.03,-22.1857"/>
</g>
<!-- &#45;31&#45;&gt;2 -->
<g id="edge120" class="edge"><title>&#45;31&#45;&gt;2</title>
<path fill="none" stroke="red" stroke-width="0.101548" d="M1072.52,-77.5768C1076.7,-73.344 1082.28,-68.5136 1088.24,-65.6985 1101,-59.6708 1298.32,-30.0487 1369.16,-19.5483"/>
<polygon fill="red" stroke="red" stroke-width="0.101548" points="1370.02,-22.9598 1379.4,-18.0337 1368.99,-16.0352 1370.02,-22.9598"/>
</g>
<!-- &#45;31&#45;&gt;3 -->
<g id="edge121" class="edge"><title>&#45;31&#45;&gt;3</title>
<path fill="none" stroke="green" stroke-width="0.197564" d="M1067.99,-77.8746C1071.25,-68.3653 1076.81,-52.1224 1081.43,-38.6437"/>
<polygon fill="green" stroke="green" stroke-width="0.197564" points="1084.79,-39.6272 1084.72,-29.0326 1078.17,-37.3587 1084.79,-39.6272"/>
</g>
<!-- &#45;32 -->
<g id="node32" class="node"><title>&#45;32</title>
<polygon fill="lightgray" stroke="black" points="2100.74,-162.125 2071.74,-162.125 2071.74,-144.125 2100.74,-144.125 2100.74,-162.125"/>
<text text-anchor="middle" x="2086.24" y="-150.925" font-family="Times New Roman,serif" font-size="9.00">&#45;32</text>
</g>
<!-- &#45;32&#45;&gt;0 -->
<g id="edge122" class="edge"><title>&#45;32&#45;&gt;0</title>
<path fill="none" stroke="green" stroke-width="0.241371" d="M2071.33,-146.18C2068.67,-145.341 2065.9,-144.602 2063.24,-144.125 2013.91,-135.283 294.326,-143.918 259.24,-108.125 246.04,-94.6592 246.351,-79.4618 259.24,-65.6985 310.443,-11.0219 867.143,-14.1078 993.036,-15.5157"/>
<polygon fill="green" stroke="green" stroke-width="0.241371" points="993.191,-19.0177 1003.23,-15.637 993.274,-12.0182 993.191,-19.0177"/>
</g>
<!-- &#45;32&#45;&gt;1 -->
<g id="edge123" class="edge"><title>&#45;32&#45;&gt;1</title>
<path fill="none" stroke="red" stroke-width="0.216437" stroke-dasharray="1,5" d="M2083.81,-144.101C2077.96,-126.292 2061.18,-83.6264 2030.24,-65.6985 1966.7,-28.8769 1443.31,-37.0587 1370.24,-29.6985 1346.53,-27.3105 1319.65,-23.2078 1300.72,-20.0859"/>
<polygon fill="red" stroke="red" stroke-width="0.216437" points="1301.28,-16.631 1290.84,-18.4256 1300.12,-23.5342 1301.28,-16.631"/>
</g>
<!-- &#45;32&#45;&gt;2 -->
<g id="edge124" class="edge"><title>&#45;32&#45;&gt;2</title>
<path fill="none" stroke="red" stroke-width="0.298012" stroke-dasharray="1,5" d="M2101.06,-152.185C2167.91,-152.015 2434.84,-146.36 2358.24,-65.6985 2324.96,-30.6488 1568.53,-18.2846 1419.57,-16.1858"/>
<polygon fill="red" stroke="red" stroke-width="0.298012" points="1419.24,-12.6809 1409.19,-16.0424 1419.14,-19.6802 1419.24,-12.6809"/>
</g>
<!-- &#45;32&#45;&gt;3 -->
<g id="edge125" class="edge"><title>&#45;32&#45;&gt;3</title>
<path fill="none" stroke="red" stroke-width="0.148177" d="M2071.33,-146.184C2068.67,-145.344 2065.9,-144.604 2063.24,-144.125 2017.3,-135.856 415.89,-141.482 383.24,-108.125 370.05,-94.6495 370.275,-79.3906 383.24,-65.6985 433.659,-12.4499 969.973,-42.1457 1042.24,-29.6985 1049.99,-28.3638 1058.27,-26.1873 1065.69,-23.9509"/>
<polygon fill="red" stroke="red" stroke-width="0.148177" points="1066.99,-27.2079 1075.46,-20.8311 1064.86,-20.5398 1066.99,-27.2079"/>
</g>
<!-- 606 -->
<g id="node47" class="node"><title>606</title>
<ellipse fill="white" stroke="black" cx="2446.24" cy="-86.9117" rx="21.4286" ry="21.4286"/>
<text text-anchor="middle" x="2446.24" y="-84.7117" font-family="Times New Roman,serif" font-size="9.00">606</text>
</g>
<!-- &#45;32&#45;&gt;606 -->
<g id="edge163" class="edge"><title>&#45;32&#45;&gt;606</title>
<path fill="none" stroke="green" stroke-width="0.3" d="M2100.95,-152.136C2147.7,-151.754 2296.47,-147.326 2411.24,-108.125 2414.2,-107.114 2417.19,-105.843 2420.11,-104.432"/>
<polygon fill="green" stroke="green" stroke-width="0.3" points="2421.93,-107.426 2429.07,-99.6005 2418.61,-101.264 2421.93,-107.426"/>
</g>
<!-- &#45;33 -->
<g id="node33" class="node"><title>&#45;33</title>
<polygon fill="lightgray" stroke="black" points="1126.74,-95.9117 1097.74,-95.9117 1097.74,-77.9117 1126.74,-77.9117 1126.74,-95.9117"/>
<text text-anchor="middle" x="1112.24" y="-84.7117" font-family="Times New Roman,serif" font-size="9.00">&#45;33</text>
</g>
<!-- &#45;33&#45;&gt;0 -->
<g id="edge126" class="edge"><title>&#45;33&#45;&gt;0</title>
<path fill="none" stroke="red" stroke-width="0.4526" stroke-dasharray="1,5" d="M1103.04,-77.8614C1098.63,-74.083 1093.23,-69.5698 1088.24,-65.6985 1071.99,-53.1022 1052.95,-39.6216 1038.83,-29.8591"/>
<polygon fill="red" stroke="red" stroke-width="0.4526" points="1040.57,-26.806 1030.35,-24.0274 1036.61,-32.5753 1040.57,-26.806"/>
</g>
<!-- &#45;33&#45;&gt;1 -->
<g id="edge127" class="edge"><title>&#45;33&#45;&gt;1</title>
<path fill="none" stroke="green" stroke-width="0.324596" d="M1120.16,-77.5912C1124.34,-73.5687 1129.74,-68.9256 1135.24,-65.6985 1173.34,-43.3548 1223.06,-28.6947 1252.14,-21.3726"/>
<polygon fill="green" stroke="green" stroke-width="0.324596" points="1252.97,-24.7727 1261.86,-19.0063 1251.32,-17.9713 1252.97,-24.7727"/>
</g>
<!-- &#45;33&#45;&gt;2 -->
<g id="edge128" class="edge"><title>&#45;33&#45;&gt;2</title>
<path fill="none" stroke="red" stroke-width="0.199796" d="M1119.56,-77.6447C1123.74,-73.4317 1129.32,-68.5987 1135.24,-65.6985 1156.24,-55.4093 1308.65,-29.7981 1369.37,-19.8705"/>
<polygon fill="red" stroke="red" stroke-width="0.199796" points="1370.28,-23.2683 1379.59,-18.2066 1369.16,-16.3593 1370.28,-23.2683"/>
</g>
<!-- &#45;33&#45;&gt;3 -->
<g id="edge129" class="edge"><title>&#45;33&#45;&gt;3</title>
<path fill="none" stroke="red" stroke-width="0.538771" d="M1109.6,-77.8746C1106.5,-68.4226 1101.21,-52.3178 1096.8,-38.8876"/>
<polygon fill="red" stroke="red" stroke-width="0.538771" points="1100.1,-37.7027 1093.65,-29.2932 1093.45,-39.886 1100.1,-37.7027"/>
</g>
<!-- &#45;34 -->
<g id="node34" class="node"><title>&#45;34</title>
<polygon fill="lightgray" stroke="black" points="1173.74,-95.9117 1144.74,-95.9117 1144.74,-77.9117 1173.74,-77.9117 1173.74,-95.9117"/>
<text text-anchor="middle" x="1159.24" y="-84.7117" font-family="Times New Roman,serif" font-size="9.00">&#45;34</text>
</g>
<!-- &#45;34&#45;&gt;0 -->
<g id="edge130" class="edge"><title>&#45;34&#45;&gt;0</title>
<path fill="none" stroke="red" stroke-width="0.457446" d="M1150.83,-77.7582C1146.43,-73.7783 1140.81,-69.1229 1135.24,-65.6985 1104.8,-46.9756 1066.07,-31.9992 1041.71,-23.5173"/>
<polygon fill="red" stroke="red" stroke-width="0.457446" points="1042.81,-20.1946 1032.22,-20.2878 1040.56,-26.8217 1042.81,-20.1946"/>
</g>
<!-- &#45;34&#45;&gt;1 -->
<g id="edge131" class="edge"><title>&#45;34&#45;&gt;1</title>
<path fill="none" stroke="red" stroke-width="0.218026" d="M1167.8,-77.5316C1171.97,-73.6809 1177.17,-69.2022 1182.24,-65.6985 1205.28,-49.7894 1233.99,-35.2435 1253.58,-26.024"/>
<polygon fill="red" stroke="red" stroke-width="0.218026" points="1255.31,-29.0824 1262.91,-21.7093 1252.37,-22.7285 1255.31,-29.0824"/>
</g>
<!-- &#45;34&#45;&gt;2 -->
<g id="edge132" class="edge"><title>&#45;34&#45;&gt;2</title>
<path fill="none" stroke="red" stroke-width="0.272542" d="M1166.61,-77.7406C1170.8,-73.5556 1176.38,-68.7188 1182.24,-65.6985 1215.05,-48.787 1321.12,-28.6772 1369.62,-20.0833"/>
<polygon fill="red" stroke="red" stroke-width="0.272542" points="1370.34,-23.5113 1379.58,-18.3374 1369.13,-16.6164 1370.34,-23.5113"/>
</g>
<!-- &#45;34&#45;&gt;3 -->
<g id="edge133" class="edge"><title>&#45;34&#45;&gt;3</title>
<path fill="none" stroke="green" stroke-width="0.362573" stroke-dasharray="1,5" d="M1151.21,-77.8746C1140.42,-67.0781 1120.96,-47.6015 1106.72,-33.3456"/>
<polygon fill="green" stroke="green" stroke-width="0.362573" points="1108.98,-30.6514 1099.43,-26.051 1104.02,-35.599 1108.98,-30.6514"/>
</g>
<!-- &#45;35 -->
<g id="node35" class="node"><title>&#45;35</title>
<polygon fill="lightgray" stroke="black" points="1220.74,-95.9117 1191.74,-95.9117 1191.74,-77.9117 1220.74,-77.9117 1220.74,-95.9117"/>
<text text-anchor="middle" x="1206.24" y="-84.7117" font-family="Times New Roman,serif" font-size="9.00">&#45;35</text>
</g>
<!-- &#45;35&#45;&gt;0 -->
<g id="edge134" class="edge"><title>&#45;35&#45;&gt;0</title>
<path fill="none" stroke="green" stroke-width="0.241837" d="M1198.41,-77.9028C1193.99,-73.7654 1188.18,-68.9223 1182.24,-65.6985 1179.07,-63.9769 1086.57,-36.2509 1041.91,-22.9117"/>
<polygon fill="green" stroke="green" stroke-width="0.241837" points="1042.75,-19.509 1032.17,-20.0018 1040.75,-26.2164 1042.75,-19.509"/>
</g>
<!-- &#45;35&#45;&gt;1 -->
<g id="edge135" class="edge"><title>&#45;35&#45;&gt;1</title>
<path fill="none" stroke="red" stroke-width="0.455011" d="M1214.27,-77.8746C1225.06,-67.0781 1244.52,-47.6015 1258.76,-33.3456"/>
<polygon fill="red" stroke="red" stroke-width="0.455011" points="1261.46,-35.599 1266.05,-26.051 1256.5,-30.6514 1261.46,-35.599"/>
</g>
<!-- &#45;35&#45;&gt;2 -->
<g id="edge136" class="edge"><title>&#45;35&#45;&gt;2</title>
<path fill="none" stroke="green" stroke-width="0.403908" stroke-dasharray="1,5" d="M1214.07,-77.9028C1218.49,-73.7654 1224.3,-68.9223 1230.24,-65.6985 1276.06,-40.8169 1335.97,-26.6445 1369.23,-20.1766"/>
<polygon fill="green" stroke="green" stroke-width="0.403908" points="1370.24,-23.5487 1379.43,-18.2742 1368.96,-16.6674 1370.24,-23.5487"/>
</g>
<!-- &#45;35&#45;&gt;3 -->
<g id="edge137" class="edge"><title>&#45;35&#45;&gt;3</title>
<path fill="none" stroke="red" stroke-width="0.26967" d="M1197.25,-77.5706C1192.89,-73.7284 1187.47,-69.2457 1182.24,-65.6985 1159.26,-50.1115 1130.89,-35.5063 1111.57,-26.1848"/>
<polygon fill="red" stroke="red" stroke-width="0.26967" points="1112.9,-22.9428 1102.36,-21.8147 1109.9,-29.266 1112.9,-22.9428"/>
</g>
<!-- &#45;36 -->
<g id="node36" class="node"><title>&#45;36</title>
<polygon fill="lightgray" stroke="black" points="1267.74,-95.9117 1238.74,-95.9117 1238.74,-77.9117 1267.74,-77.9117 1267.74,-95.9117"/>
<text text-anchor="middle" x="1253.24" y="-84.7117" font-family="Times New Roman,serif" font-size="9.00">&#45;36</text>
</g>
<!-- &#45;36&#45;&gt;0 -->
<g id="edge138" class="edge"><title>&#45;36&#45;&gt;0</title>
<path fill="none" stroke="red" stroke-width="0.146589" d="M1245.89,-77.7028C1241.7,-73.5068 1236.12,-68.6715 1230.24,-65.6985 1163.25,-31.8457 1137.95,-48.3181 1065.24,-29.6985 1057.62,-27.7479 1049.38,-25.4002 1041.95,-23.1966"/>
<polygon fill="red" stroke="red" stroke-width="0.146589" points="1042.74,-19.7773 1032.15,-20.2338 1040.71,-26.4778 1042.74,-19.7773"/>
</g>
<!-- &#45;36&#45;&gt;1 -->
<g id="edge139" class="edge"><title>&#45;36&#45;&gt;1</title>
<path fill="none" stroke="green" stroke-width="0.103367" d="M1255.88,-77.8746C1258.98,-68.4226 1264.27,-52.3178 1268.68,-38.8876"/>
<polygon fill="green" stroke="green" stroke-width="0.103367" points="1272.03,-39.886 1271.83,-29.2932 1265.38,-37.7027 1272.03,-39.886"/>
</g>
<!-- &#45;36&#45;&gt;2 -->
<g id="edge140" class="edge"><title>&#45;36&#45;&gt;2</title>
<path fill="none" stroke="red" stroke-width="0.247479" d="M1261.65,-77.7582C1266.05,-73.7783 1271.67,-69.1229 1277.24,-65.6985 1307.68,-46.9756 1346.41,-31.9992 1370.77,-23.5173"/>
<polygon fill="red" stroke="red" stroke-width="0.247479" points="1371.92,-26.8217 1380.26,-20.2878 1369.67,-20.1946 1371.92,-26.8217"/>
</g>
<!-- &#45;36&#45;&gt;3 -->
<g id="edge141" class="edge"><title>&#45;36&#45;&gt;3</title>
<path fill="none" stroke="green" stroke-width="0.317548" d="M1245.32,-77.5912C1241.14,-73.5687 1235.74,-68.9256 1230.24,-65.6985 1192.14,-43.3548 1142.42,-28.6947 1113.34,-21.3726"/>
<polygon fill="green" stroke="green" stroke-width="0.317548" points="1114.16,-17.9713 1103.62,-19.0063 1112.51,-24.7727 1114.16,-17.9713"/>
</g>
<!-- &#45;37 -->
<g id="node37" class="node"><title>&#45;37</title>
<polygon fill="lightgray" stroke="black" points="1314.74,-95.9117 1285.74,-95.9117 1285.74,-77.9117 1314.74,-77.9117 1314.74,-95.9117"/>
<text text-anchor="middle" x="1300.24" y="-84.7117" font-family="Times New Roman,serif" font-size="9.00">&#45;37</text>
</g>
<!-- &#45;37&#45;&gt;0 -->
<g id="edge142" class="edge"><title>&#45;37&#45;&gt;0</title>
<path fill="none" stroke="green" stroke-width="0.522192" d="M1292.95,-77.5928C1288.77,-73.3646 1283.19,-68.5336 1277.24,-65.6985 1190.96,-24.5935 1158.35,-51.2427 1065.24,-29.6985 1057.58,-27.9259 1049.32,-25.6277 1041.9,-23.4146"/>
<polygon fill="green" stroke="green" stroke-width="0.522192" points="1042.7,-19.9982 1032.11,-20.4064 1040.64,-26.6894 1042.7,-19.9982"/>
</g>
<!-- &#45;37&#45;&gt;1 -->
<g id="edge143" class="edge"><title>&#45;37&#45;&gt;1</title>
<path fill="none" stroke="green" stroke-width="0.124421" d="M1297.49,-77.8746C1294.23,-68.3653 1288.67,-52.1224 1284.05,-38.6437"/>
<polygon fill="green" stroke="green" stroke-width="0.124421" points="1287.31,-37.3587 1280.76,-29.0326 1280.69,-39.6272 1287.31,-37.3587"/>
</g>
<!-- &#45;37&#45;&gt;2 -->
<g id="edge144" class="edge"><title>&#45;37&#45;&gt;2</title>
<path fill="none" stroke="green" stroke-width="0.53969" d="M1309.44,-77.8614C1313.85,-74.083 1319.25,-69.5698 1324.24,-65.6985 1340.49,-53.1022 1359.53,-39.6216 1373.65,-29.8591"/>
<polygon fill="green" stroke="green" stroke-width="0.53969" points="1375.88,-32.5753 1382.13,-24.0274 1371.91,-26.806 1375.88,-32.5753"/>
</g>
<!-- &#45;37&#45;&gt;3 -->
<g id="edge145" class="edge"><title>&#45;37&#45;&gt;3</title>
<path fill="none" stroke="green" stroke-width="0.147866" stroke-dasharray="1,5" d="M1292.84,-77.8063C1288.63,-73.6407 1283.06,-68.8013 1277.24,-65.6985 1223.14,-36.8382 1151.21,-23.8398 1113.95,-18.7213"/>
<polygon fill="green" stroke="green" stroke-width="0.147866" points="1114.35,-15.2439 1103.99,-17.4282 1113.45,-22.1857 1114.35,-15.2439"/>
</g>
<!-- &#45;38 -->
<g id="node38" class="node"><title>&#45;38</title>
<polygon fill="lightgray" stroke="black" points="1361.74,-95.9117 1332.74,-95.9117 1332.74,-77.9117 1361.74,-77.9117 1361.74,-95.9117"/>
<text text-anchor="middle" x="1347.24" y="-84.7117" font-family="Times New Roman,serif" font-size="9.00">&#45;38</text>
</g>
<!-- &#45;38&#45;&gt;0 -->
<g id="edge146" class="edge"><title>&#45;38&#45;&gt;0</title>
<path fill="none" stroke="red" stroke-width="0.454318" d="M1339.98,-77.5211C1335.82,-73.2719 1330.23,-68.4437 1324.24,-65.6985 1218.58,-17.2978 1178.85,-54.1903 1065.24,-29.6985 1057.55,-28.0414 1049.29,-25.7753 1041.87,-23.5561"/>
<polygon fill="red" stroke="red" stroke-width="0.454318" points="1042.67,-20.1412 1032.09,-20.5184 1040.6,-26.8264 1042.67,-20.1412"/>
</g>
<!-- &#45;38&#45;&gt;1 -->
<g id="edge147" class="edge"><title>&#45;38&#45;&gt;1</title>
<path fill="none" stroke="green" stroke-width="0.517944" d="M1339.1,-77.8746C1328.15,-67.0781 1308.42,-47.6015 1293.97,-33.3456"/>
<polygon fill="green" stroke="green" stroke-width="0.517944" points="1296.15,-30.5836 1286.58,-26.051 1291.24,-35.5662 1296.15,-30.5836"/>
</g>
<!-- &#45;38&#45;&gt;2 -->
<g id="edge148" class="edge"><title>&#45;38&#45;&gt;2</title>
<path fill="none" stroke="green" stroke-width="0.62163" d="M1352.63,-77.8746C1359.44,-67.7318 1371.38,-49.9283 1380.73,-35.9895"/>
<polygon fill="green" stroke="green" stroke-width="0.62163" points="1383.76,-37.7615 1386.42,-27.5071 1377.94,-33.8618 1383.76,-37.7615"/>
</g>
<!-- &#45;38&#45;&gt;3 -->
<g id="edge149" class="edge"><title>&#45;38&#45;&gt;3</title>
<path fill="none" stroke="green" stroke-width="0.257002" stroke-dasharray="1,5" d="M1339.9,-77.6892C1335.71,-73.4892 1330.13,-68.6545 1324.24,-65.6985 1253.62,-30.2674 1158.83,-19.9768 1114.31,-17.0209"/>
<polygon fill="green" stroke="green" stroke-width="0.257002" points="1114.31,-13.5149 1104.12,-16.4166 1113.9,-20.5026 1114.31,-13.5149"/>
</g>
<!-- &#45;39 -->
<g id="node39" class="node"><title>&#45;39</title>
<polygon fill="lightgray" stroke="black" points="1972.74,-95.9117 1943.74,-95.9117 1943.74,-77.9117 1972.74,-77.9117 1972.74,-95.9117"/>
<text text-anchor="middle" x="1958.24" y="-84.7117" font-family="Times New Roman,serif" font-size="9.00">&#45;39</text>
</g>
<!-- &#45;39&#45;&gt;1 -->
<g id="edge150" class="edge"><title>&#45;39&#45;&gt;1</title>
<path fill="none" stroke="red" stroke-width="0.632524" stroke-dasharray="1,5" d="M1949.3,-77.7505C1943.9,-73.3456 1936.65,-68.2923 1929.24,-65.6985 1811.74,-24.5956 1494.03,-42.7815 1370.24,-29.6985 1346.54,-27.1941 1319.66,-23.1064 1300.73,-20.0196"/>
<polygon fill="red" stroke="red" stroke-width="0.632524" points="1301.28,-16.5637 1290.85,-18.3808 1300.14,-23.4695 1301.28,-16.5637"/>
</g>
<!-- &#45;39&#45;&gt;2 -->
<g id="edge151" class="edge"><title>&#45;39&#45;&gt;2</title>
<path fill="none" stroke="green" stroke-width="0.185028" stroke-dasharray="1,5" d="M1949.27,-77.8298C1943.87,-73.4514 1936.62,-68.3981 1929.24,-65.6985 1833.59,-30.6954 1511.83,-19.1365 1419.32,-16.4949"/>
<polygon fill="green" stroke="green" stroke-width="0.185028" points="1419.29,-12.993 1409.2,-16.2159 1419.1,-19.9903 1419.29,-12.993"/>
</g>
<!-- &#45;39&#45;&gt;3 -->
<g id="edge152" class="edge"><title>&#45;39&#45;&gt;3</title>
<path fill="none" stroke="red" stroke-width="0.157128" d="M1943.74,-79.996C1931.35,-75.2319 1912.93,-68.8306 1896.24,-65.6985 1614.49,-12.8264 1538.2,-49.8352 1252.24,-29.6985 1203.33,-26.2543 1146.26,-21.1569 1114.27,-18.2025"/>
<polygon fill="red" stroke="red" stroke-width="0.157128" points="1114.34,-14.694 1104.06,-17.2531 1113.7,-21.6639 1114.34,-14.694"/>
</g>
<!-- &#45;40 -->
<g id="node40" class="node"><title>&#45;40</title>
<polygon fill="lightgray" stroke="black" points="1408.74,-95.9117 1379.74,-95.9117 1379.74,-77.9117 1408.74,-77.9117 1408.74,-95.9117"/>
<text text-anchor="middle" x="1394.24" y="-84.7117" font-family="Times New Roman,serif" font-size="9.00">&#45;40</text>
</g>
<!-- &#45;40&#45;&gt;0 -->
<g id="edge153" class="edge"><title>&#45;40&#45;&gt;0</title>
<path fill="none" stroke="green" stroke-width="0.319193" d="M1387.4,-77.8816C1383.21,-73.5205 1377.46,-68.4672 1371.24,-65.6985 1246.15,-9.979 1199.4,-57.1497 1065.24,-29.6985 1057.54,-28.1222 1049.27,-25.8785 1041.85,-23.655"/>
<polygon fill="green" stroke="green" stroke-width="0.319193" points="1042.66,-20.2412 1032.07,-20.5968 1040.57,-26.9221 1042.66,-20.2412"/>
</g>
<!-- &#45;40&#45;&gt;1 -->
<g id="edge154" class="edge"><title>&#45;40&#45;&gt;1</title>
<path fill="none" stroke="green" stroke-width="0.453878" d="M1385.69,-77.5217C1381.52,-73.6688 1376.32,-69.1911 1371.24,-65.6985 1347.87,-49.6345 1318.69,-35.0438 1298.88,-25.8572"/>
<polygon fill="green" stroke="green" stroke-width="0.453878" points="1300.27,-22.643 1289.71,-21.6827 1297.36,-29.0132 1300.27,-22.643"/>
</g>
<!-- &#45;40&#45;&gt;2 -->
<g id="edge155" class="edge"><title>&#45;40&#45;&gt;2</title>
<path fill="none" stroke="red" stroke-width="0.272415" d="M1394.24,-77.8746C1394.24,-68.7202 1394.24,-53.3256 1394.24,-40.1641"/>
<polygon fill="red" stroke="red" stroke-width="0.272415" points="1397.74,-39.8196 1394.24,-29.8197 1390.74,-39.8197 1397.74,-39.8196"/>
</g>
<!-- &#45;40&#45;&gt;3 -->
<g id="edge156" class="edge"><title>&#45;40&#45;&gt;3</title>
<path fill="none" stroke="green" stroke-width="0.553635" stroke-dasharray="1,5" d="M1386.94,-77.6088C1382.76,-73.3853 1377.18,-68.5537 1371.24,-65.6985 1325.68,-43.8036 1174.57,-25.24 1114.34,-18.5297"/>
<polygon fill="green" stroke="green" stroke-width="0.553635" points="1114.52,-15.0284 1104.2,-17.4165 1113.76,-21.9866 1114.52,-15.0284"/>
</g>
<!-- 401&#45;&gt;2 -->
<g id="edge160" class="edge"><title>401&#45;&gt;2</title>
<path fill="none" stroke="red" stroke-width="0.135452" d="M2294.27,-72.8675C2289.95,-70.0047 2285.12,-67.3407 2280.24,-65.6985 2196.71,-37.5948 1554.67,-19.9052 1419.26,-16.4654"/>
<polygon fill="red" stroke="red" stroke-width="0.135452" points="1419.15,-12.9616 1409.07,-16.2092 1418.98,-19.9594 1419.15,-12.9616"/>
</g>
<!-- 181&#45;&gt;2 -->
<g id="edge158" class="edge"><title>181&#45;&gt;2</title>
<path fill="none" stroke="green" stroke-width="0.1049" d="M2233.16,-73.9432C2227.68,-70.6915 2221.42,-67.558 2215.24,-65.6985 2060.75,-19.2303 1539.42,-15.9561 1419.14,-15.8277"/>
<polygon fill="green" stroke="green" stroke-width="0.1049" points="1419.07,-12.3278 1409.07,-15.8237 1419.07,-19.3278 1419.07,-12.3278"/>
</g>
<!-- 606&#45;&gt;2 -->
<g id="edge164" class="edge"><title>606&#45;&gt;2</title>
<path fill="none" stroke="red" stroke-width="0.273775" d="M2429.18,-73.8988C2423.69,-70.6453 2417.43,-67.5219 2411.24,-65.6985 2313.52,-36.9265 1567.32,-19.5542 1419.6,-16.3783"/>
<polygon fill="red" stroke="red" stroke-width="0.273775" points="1419.37,-12.8726 1409.3,-16.159 1419.22,-19.8711 1419.37,-12.8726"/>
</g>
<!-- 479&#45;&gt;0 -->
<g id="edge162" class="edge"><title>479&#45;&gt;0</title>
<path fill="none" stroke="red" stroke-width="0.186395" d="M56.308,-73.9132C61.7898,-70.6603 68.0508,-67.5336 74.2401,-65.6985 253.504,-12.5469 861.518,-14.5208 993.025,-15.5971"/>
<polygon fill="red" stroke="red" stroke-width="0.186395" points="993.257,-19.0992 1003.29,-15.6875 993.318,-12.0994 993.257,-19.0992"/>
</g>
</g>
</svg>
