<?xml version="1.0" encoding="UTF-8" standalone="no"?>
<!DOCTYPE svg PUBLIC "-//W3C//DTD SVG 1.1//EN"
 "http://www.w3.org/Graphics/SVG/1.1/DTD/svg11.dtd">
<!-- Generated by graphviz version 2.38.0 (20140413.2041)
 -->
<!-- Title: %3 Pages: 1 -->
<svg width="1826pt" height="92pt"
 viewBox="0.00 0.00 1826.00 91.70" xmlns="http://www.w3.org/2000/svg" xmlns:xlink="http://www.w3.org/1999/xlink">
<g id="graph0" class="graph" transform="scale(1 1) rotate(0) translate(4 87.6985)">
<title>%3</title>
<polygon fill="white" stroke="none" points="-4,4 -4,-87.6985 1822,-87.6985 1822,4 -4,4"/>
<!-- &#45;1 -->
<g id="node1" class="node"><title>&#45;1</title>
<polygon fill="lightgray" stroke="black" points="1434.5,-83.6985 1410.5,-83.6985 1410.5,-65.6985 1434.5,-65.6985 1434.5,-83.6985"/>
<text text-anchor="middle" x="1422.5" y="-72.4985" font-family="Times New Roman,serif" font-size="9.00">&#45;1</text>
</g>
<!-- 0 -->
<g id="node41" class="node"><title>0</title>
<ellipse fill="lightblue" stroke="black" cx="906.5" cy="-14.8492" rx="14.7" ry="14.7"/>
<text text-anchor="middle" x="906.5" y="-12.6492" font-family="Times New Roman,serif" font-size="9.00">0</text>
</g>
<!-- &#45;1&#45;&gt;0 -->
<g id="edge1" class="edge"><title>&#45;1&#45;&gt;0</title>
<path fill="none" stroke="green" stroke-width="0.200212" d="M1410.25,-68.3553C1407.42,-67.314 1404.39,-66.3459 1401.5,-65.6985 1196.62,-19.8555 1131.08,-91.707 930.5,-29.6985 929.443,-29.3717 928.382,-28.9918 927.327,-28.5711"/>
<polygon fill="green" stroke="green" stroke-width="0.200212" points="928.731,-25.3602 918.223,-24.0087 925.595,-31.6183 928.731,-25.3602"/>
</g>
<!-- 1 -->
<g id="node42" class="node"><title>1</title>
<ellipse fill="lightblue" stroke="black" cx="954.5" cy="-14.8492" rx="14.7" ry="14.7"/>
<text text-anchor="middle" x="954.5" y="-12.6492" font-family="Times New Roman,serif" font-size="9.00">1</text>
</g>
<!-- &#45;1&#45;&gt;1 -->
<g id="edge2" class="edge"><title>&#45;1&#45;&gt;1</title>
<path fill="none" stroke="green" stroke-width="0.100897" d="M1410.24,-68.3738C1407.42,-67.3316 1404.39,-66.3584 1401.5,-65.6985 1217.55,-23.7058 1158.52,-86.2026 978.5,-29.6985 977.444,-29.3671 976.385,-28.9835 975.33,-28.5598"/>
<polygon fill="green" stroke="green" stroke-width="0.100897" points="976.737,-25.3496 966.23,-23.9863 973.593,-31.6042 976.737,-25.3496"/>
</g>
<!-- 2 -->
<g id="node43" class="node"><title>2</title>
<ellipse fill="lightblue" stroke="black" cx="858.5" cy="-14.8492" rx="14.7" ry="14.7"/>
<text text-anchor="middle" x="858.5" y="-12.6492" font-family="Times New Roman,serif" font-size="9.00">2</text>
</g>
<!-- &#45;1&#45;&gt;2 -->
<g id="edge3" class="edge"><title>&#45;1&#45;&gt;2</title>
<path fill="none" stroke="green" stroke-width="0.214357" d="M1410.25,-68.3403C1407.42,-67.2997 1404.4,-66.3358 1401.5,-65.6985 1175.68,-16.0031 1103.64,-97.2143 882.5,-29.6985 881.442,-29.3754 880.38,-28.9986 879.324,-28.5803"/>
<polygon fill="green" stroke="green" stroke-width="0.214357" points="880.727,-25.3688 870.217,-24.0271 877.596,-31.6298 880.727,-25.3688"/>
</g>
<!-- 3 -->
<g id="node44" class="node"><title>3</title>
<ellipse fill="lightblue" stroke="black" cx="1002.5" cy="-14.8492" rx="14.7" ry="14.7"/>
<text text-anchor="middle" x="1002.5" y="-12.6492" font-family="Times New Roman,serif" font-size="9.00">3</text>
</g>
<!-- &#45;1&#45;&gt;3 -->
<g id="edge4" class="edge"><title>&#45;1&#45;&gt;3</title>
<path fill="none" stroke="red" stroke-width="0.310328" d="M1410.22,-68.4581C1407.4,-67.4114 1404.38,-66.4152 1401.5,-65.6985 1263.15,-31.2352 1091.59,-20.0332 1027.87,-16.9122"/>
<polygon fill="red" stroke="red" stroke-width="0.310328" points="1027.74,-13.4025 1017.59,-16.4341 1027.42,-20.3949 1027.74,-13.4025"/>
</g>
<!-- &#45;2 -->
<g id="node2" class="node"><title>&#45;2</title>
<polygon fill="lightgray" stroke="black" points="1476.5,-83.6985 1452.5,-83.6985 1452.5,-65.6985 1476.5,-65.6985 1476.5,-83.6985"/>
<text text-anchor="middle" x="1464.5" y="-72.4985" font-family="Times New Roman,serif" font-size="9.00">&#45;2</text>
</g>
<!-- &#45;2&#45;&gt;0 -->
<g id="edge5" class="edge"><title>&#45;2&#45;&gt;0</title>
<path fill="none" stroke="green" stroke-width="0.258095" d="M1452.25,-68.342C1449.42,-67.3014 1446.4,-66.3369 1443.5,-65.6985 1220.3,-16.4847 1149.07,-96.5257 930.5,-29.6985 929.442,-29.375 928.38,-28.9978 927.324,-28.5792"/>
<polygon fill="green" stroke="green" stroke-width="0.258095" points="928.728,-25.3678 918.218,-24.025 925.596,-31.6285 928.728,-25.3678"/>
</g>
<!-- &#45;2&#45;&gt;1 -->
<g id="edge6" class="edge"><title>&#45;2&#45;&gt;1</title>
<path fill="none" stroke="red" stroke-width="0.102802" d="M1452.24,-68.3575C1449.42,-67.316 1446.39,-66.3474 1443.5,-65.6985 1241.24,-20.3369 1176.51,-91.0188 978.5,-29.6985 977.443,-29.3712 976.382,-28.9909 975.327,-28.5698"/>
<polygon fill="red" stroke="red" stroke-width="0.102802" points="976.732,-25.359 966.224,-24.0062 973.595,-31.6167 976.732,-25.359"/>
</g>
<!-- &#45;2&#45;&gt;2 -->
<g id="edge7" class="edge"><title>&#45;2&#45;&gt;2</title>
<path fill="none" stroke="green" stroke-width="0.192788" d="M1452.25,-68.3291C1449.43,-67.2892 1446.4,-66.3283 1443.5,-65.6985 1199.35,-12.631 1121.65,-102.035 882.5,-29.6985 881.441,-29.3781 880.378,-29.0036 879.322,-28.5871"/>
<polygon fill="green" stroke="green" stroke-width="0.192788" points="880.724,-25.3752 870.213,-24.0405 877.597,-31.6383 880.724,-25.3752"/>
</g>
<!-- &#45;2&#45;&gt;3 -->
<g id="edge8" class="edge"><title>&#45;2&#45;&gt;3</title>
<path fill="none" stroke="red" stroke-width="0.305842" d="M1452.23,-68.433C1449.4,-67.3877 1446.38,-66.3983 1443.5,-65.6985 1288.53,-28.0587 1095.87,-18.6974 1027.77,-16.4923"/>
<polygon fill="red" stroke="red" stroke-width="0.305842" points="1027.69,-12.9882 1017.58,-16.1869 1027.48,-19.9851 1027.69,-12.9882"/>
</g>
<!-- &#45;3 -->
<g id="node3" class="node"><title>&#45;3</title>
<polygon fill="lightgray" stroke="black" points="1518.5,-83.6985 1494.5,-83.6985 1494.5,-65.6985 1518.5,-65.6985 1518.5,-83.6985"/>
<text text-anchor="middle" x="1506.5" y="-72.4985" font-family="Times New Roman,serif" font-size="9.00">&#45;3</text>
</g>
<!-- &#45;3&#45;&gt;0 -->
<g id="edge9" class="edge"><title>&#45;3&#45;&gt;0</title>
<path fill="none" stroke="red" stroke-width="0.341269" d="M1494.25,-68.3306C1491.43,-67.2906 1488.4,-66.3293 1485.5,-65.6985 1243.97,-13.1128 1167.07,-101.346 930.5,-29.6985 929.441,-29.3778 928.379,-29.0029 927.322,-28.5862"/>
<polygon fill="red" stroke="red" stroke-width="0.341269" points="928.724,-25.3744 918.214,-24.0387 925.597,-31.6372 928.724,-25.3744"/>
</g>
<!-- &#45;3&#45;&gt;1 -->
<g id="edge10" class="edge"><title>&#45;3&#45;&gt;1</title>
<path fill="none" stroke="red" stroke-width="0.120865" d="M1494.25,-68.3438C1491.42,-67.3031 1488.4,-66.3381 1485.5,-65.6985 1264.92,-16.9664 1194.5,-95.8372 978.5,-29.6985 977.442,-29.3745 976.38,-28.997 975.324,-28.5782"/>
<polygon fill="red" stroke="red" stroke-width="0.120865" points="976.728,-25.3668 966.219,-24.0228 973.596,-31.6271 976.728,-25.3668"/>
</g>
<!-- &#45;3&#45;&gt;2 -->
<g id="edge11" class="edge"><title>&#45;3&#45;&gt;2</title>
<path fill="none" stroke="green" stroke-width="0.139538" d="M1494.25,-68.3196C1491.43,-67.2801 1488.4,-66.3218 1485.5,-65.6985 1223.02,-9.25794 1139.65,-106.857 882.5,-29.6985 881.44,-29.3805 880.377,-29.0079 879.32,-28.593"/>
<polygon fill="green" stroke="green" stroke-width="0.139538" points="880.721,-25.3807 870.21,-24.0522 877.598,-31.6456 880.721,-25.3807"/>
</g>
<!-- &#45;3&#45;&gt;3 -->
<g id="edge12" class="edge"><title>&#45;3&#45;&gt;3</title>
<path fill="none" stroke="green" stroke-width="0.286379" d="M1494.23,-68.4123C1491.41,-67.368 1488.38,-66.3843 1485.5,-65.6985 1313.84,-24.888 1100.01,-17.4881 1027.72,-16.1464"/>
<polygon fill="green" stroke="green" stroke-width="0.286379" points="1027.41,-12.6411 1017.36,-15.9789 1027.3,-19.6402 1027.41,-12.6411"/>
</g>
<!-- &#45;4 -->
<g id="node4" class="node"><title>&#45;4</title>
<polygon fill="lightgray" stroke="black" points="1560.5,-83.6985 1536.5,-83.6985 1536.5,-65.6985 1560.5,-65.6985 1560.5,-83.6985"/>
<text text-anchor="middle" x="1548.5" y="-72.4985" font-family="Times New Roman,serif" font-size="9.00">&#45;4</text>
</g>
<!-- &#45;4&#45;&gt;0 -->
<g id="edge13" class="edge"><title>&#45;4&#45;&gt;0</title>
<path fill="none" stroke="red" stroke-width="0.316274" d="M1536.25,-68.3209C1533.43,-67.2813 1530.4,-66.3227 1527.5,-65.6985 1267.64,-9.73985 1185.08,-106.168 930.5,-29.6985 929.44,-29.3802 928.377,-29.0073 927.32,-28.5922"/>
<polygon fill="red" stroke="red" stroke-width="0.316274" points="928.721,-25.38 918.21,-24.0506 925.598,-31.6446 928.721,-25.38"/>
</g>
<!-- &#45;4&#45;&gt;1 -->
<g id="edge14" class="edge"><title>&#45;4&#45;&gt;1</title>
<path fill="none" stroke="green" stroke-width="0.115219" d="M1536.25,-68.3321C1533.42,-67.292 1530.4,-66.3303 1527.5,-65.6985 1288.59,-13.5945 1212.5,-100.657 978.5,-29.6985 977.441,-29.3774 976.379,-29.0022 975.322,-28.5853"/>
<polygon fill="green" stroke="green" stroke-width="0.115219" points="976.725,-25.3735 966.214,-24.0369 973.597,-31.636 976.725,-25.3735"/>
</g>
<!-- &#45;4&#45;&gt;2 -->
<g id="edge15" class="edge"><title>&#45;4&#45;&gt;2</title>
<path fill="none" stroke="green" stroke-width="0.233317" d="M1536.25,-68.3112C1533.43,-67.2722 1530.4,-66.3162 1527.5,-65.6985 1246.69,-5.88417 1157.66,-111.679 882.5,-29.6985 881.44,-29.3826 880.376,-29.0116 879.318,-28.5981"/>
<polygon fill="green" stroke="green" stroke-width="0.233317" points="880.719,-25.3855 870.207,-24.0623 877.599,-31.652 880.719,-25.3855"/>
</g>
<!-- &#45;4&#45;&gt;3 -->
<g id="edge16" class="edge"><title>&#45;4&#45;&gt;3</title>
<path fill="none" stroke="green" stroke-width="0.185375" d="M1536.24,-68.3948C1533.41,-67.3514 1530.39,-66.3725 1527.5,-65.6985 1338.85,-21.6609 1103.39,-16.3655 1027.38,-15.8535"/>
<polygon fill="green" stroke="green" stroke-width="0.185375" points="1027.36,-12.3535 1017.35,-15.8086 1027.33,-19.3534 1027.36,-12.3535"/>
</g>
<!-- &#45;5 -->
<g id="node5" class="node"><title>&#45;5</title>
<polygon fill="lightgray" stroke="black" points="1602.5,-83.6985 1578.5,-83.6985 1578.5,-65.6985 1602.5,-65.6985 1602.5,-83.6985"/>
<text text-anchor="middle" x="1590.5" y="-72.4985" font-family="Times New Roman,serif" font-size="9.00">&#45;5</text>
</g>
<!-- &#45;5&#45;&gt;0 -->
<g id="edge17" class="edge"><title>&#45;5&#45;&gt;0</title>
<path fill="none" stroke="red" stroke-width="0.130453" d="M1578.25,-68.3124C1575.43,-67.2733 1572.4,-66.317 1569.5,-65.6985 1291.31,-6.36618 1203.09,-110.99 930.5,-29.6985 929.44,-29.3823 928.376,-29.0111 927.319,-28.5974"/>
<polygon fill="red" stroke="red" stroke-width="0.130453" points="928.719,-25.3849 918.207,-24.0609 925.599,-31.6511 928.719,-25.3849"/>
</g>
<!-- &#45;5&#45;&gt;1 -->
<g id="edge18" class="edge"><title>&#45;5&#45;&gt;1</title>
<path fill="none" stroke="red" stroke-width="0.515966" d="M1578.25,-68.3222C1575.43,-67.2826 1572.4,-66.3236 1569.5,-65.6985 1312.26,-10.2217 1230.51,-105.479 978.5,-29.6985 977.44,-29.3799 976.378,-29.0067 975.32,-28.5914"/>
<polygon fill="red" stroke="red" stroke-width="0.515966" points="976.722,-25.3792 966.211,-24.049 973.598,-31.6436 976.722,-25.3792"/>
</g>
<!-- &#45;5&#45;&gt;2 -->
<g id="edge19" class="edge"><title>&#45;5&#45;&gt;2</title>
<path fill="none" stroke="red" stroke-width="0.187372" d="M1578.26,-68.3039C1575.43,-67.2653 1572.4,-66.3113 1569.5,-65.6985 1270.35,-2.50981 1175.67,-116.503 882.5,-29.6985 881.439,-29.3844 880.375,-29.0149 879.317,-28.6026"/>
<polygon fill="red" stroke="red" stroke-width="0.187372" points="880.717,-25.3897 870.204,-24.0712 877.6,-31.6576 880.717,-25.3897"/>
</g>
<!-- &#45;5&#45;&gt;3 -->
<g id="edge20" class="edge"><title>&#45;5&#45;&gt;3</title>
<path fill="none" stroke="green" stroke-width="0.286669" d="M1578.24,-68.3798C1575.41,-67.3372 1572.39,-66.3624 1569.5,-65.6985 1364.38,-18.5714 1108.11,-15.3565 1027.77,-15.6068"/>
<polygon fill="green" stroke="green" stroke-width="0.286669" points="1027.61,-12.1075 1017.63,-15.6609 1027.65,-19.1074 1027.61,-12.1075"/>
</g>
<!-- &#45;6 -->
<g id="node6" class="node"><title>&#45;6</title>
<polygon fill="lightgray" stroke="black" points="1644.5,-83.6985 1620.5,-83.6985 1620.5,-65.6985 1644.5,-65.6985 1644.5,-83.6985"/>
<text text-anchor="middle" x="1632.5" y="-72.4985" font-family="Times New Roman,serif" font-size="9.00">&#45;6</text>
</g>
<!-- &#45;6&#45;&gt;0 -->
<g id="edge21" class="edge"><title>&#45;6&#45;&gt;0</title>
<path fill="none" stroke="green" stroke-width="0.216281" d="M1620.26,-68.3049C1617.43,-67.2662 1614.4,-66.3119 1611.5,-65.6985 1314.97,-2.9919 1221.1,-115.814 930.5,-29.6985 929.439,-29.3841 928.375,-29.0144 927.317,-28.6019"/>
<polygon fill="green" stroke="green" stroke-width="0.216281" points="928.717,-25.3891 918.205,-24.07 925.6,-31.6568 928.717,-25.3891"/>
</g>
<!-- &#45;6&#45;&gt;1 -->
<g id="edge22" class="edge"><title>&#45;6&#45;&gt;1</title>
<path fill="none" stroke="green" stroke-width="0.302333" d="M1620.25,-68.3135C1617.43,-67.2744 1614.4,-66.3177 1611.5,-65.6985 1335.93,-6.84817 1248.51,-110.301 978.5,-29.6985 977.44,-29.382 976.376,-29.0106 975.319,-28.5967"/>
<polygon fill="green" stroke="green" stroke-width="0.302333" points="976.719,-25.3842 966.208,-24.0595 973.599,-31.6502 976.719,-25.3842"/>
</g>
<!-- &#45;6&#45;&gt;2 -->
<g id="edge23" class="edge"><title>&#45;6&#45;&gt;2</title>
<path fill="none" stroke="green" stroke-width="0.291338" d="M1620.26,-68.2975C1617.43,-67.2591 1614.4,-66.3069 1611.5,-65.6985 1294.01,0.865028 1193.69,-121.327 882.5,-29.6985 881.439,-29.386 880.374,-29.0178 879.316,-28.6065"/>
<polygon fill="green" stroke="green" stroke-width="0.291338" points="880.715,-25.3934 870.202,-24.079 877.601,-31.6625 880.715,-25.3934"/>
</g>
<!-- &#45;6&#45;&gt;3 -->
<g id="edge24" class="edge"><title>&#45;6&#45;&gt;3</title>
<path fill="none" stroke="red" stroke-width="0.26474" d="M1620.24,-68.3669C1617.42,-67.325 1614.39,-66.3537 1611.5,-65.6985 1389.21,-15.3307 1111.08,-14.3948 1027.41,-15.3951"/>
<polygon fill="red" stroke="red" stroke-width="0.26474" points="1027.29,-11.8964 1017.34,-15.5372 1027.39,-18.8957 1027.29,-11.8964"/>
</g>
<!-- &#45;7 -->
<g id="node7" class="node"><title>&#45;7</title>
<polygon fill="lightgray" stroke="black" points="1686.5,-83.6985 1662.5,-83.6985 1662.5,-65.6985 1686.5,-65.6985 1686.5,-83.6985"/>
<text text-anchor="middle" x="1674.5" y="-72.4985" font-family="Times New Roman,serif" font-size="9.00">&#45;7</text>
</g>
<!-- &#45;7&#45;&gt;0 -->
<g id="edge25" class="edge"><title>&#45;7&#45;&gt;0</title>
<path fill="none" stroke="green" stroke-width="0.10389" d="M1662.26,-68.2983C1659.43,-67.26 1656.4,-66.3075 1653.5,-65.6985 1338.63,0.382882 1239.11,-120.638 930.5,-29.6985 929.439,-29.3857 928.374,-29.0174 927.316,-28.606"/>
<polygon fill="green" stroke="green" stroke-width="0.10389" points="928.715,-25.3929 918.202,-24.078 925.601,-31.6619 928.715,-25.3929"/>
</g>
<!-- &#45;7&#45;&gt;1 -->
<g id="edge26" class="edge"><title>&#45;7&#45;&gt;1</title>
<path fill="none" stroke="green" stroke-width="0.304554" d="M1662.26,-68.3059C1659.43,-67.2672 1656.4,-66.3126 1653.5,-65.6985 1359.59,-3.47397 1266.52,-115.125 978.5,-29.6985 977.439,-29.3839 976.375,-29.014 975.317,-28.6013"/>
<polygon fill="green" stroke="green" stroke-width="0.304554" points="976.717,-25.3886 966.205,-24.0687 973.6,-31.6561 976.717,-25.3886"/>
</g>
<!-- &#45;7&#45;&gt;2 -->
<g id="edge27" class="edge"><title>&#45;7&#45;&gt;2</title>
<path fill="none" stroke="red" stroke-width="0.544237" d="M1662.26,-68.2917C1659.43,-67.2537 1656.4,-66.303 1653.5,-65.6985 1485.58,-30.7291 1047.1,-77.9254 882.5,-29.6985 881.438,-29.3874 880.373,-29.0204 879.315,-28.6101"/>
<polygon fill="red" stroke="red" stroke-width="0.544237" points="880.713,-25.3968 870.2,-24.086 877.601,-31.667 880.713,-25.3968"/>
</g>
<!-- &#45;7&#45;&gt;3 -->
<g id="edge28" class="edge"><title>&#45;7&#45;&gt;3</title>
<path fill="none" stroke="green" stroke-width="0.430851" d="M1662.25,-68.3556C1659.42,-67.3143 1656.39,-66.3461 1653.5,-65.6985 1530.77,-38.2266 1131.63,-20.9245 1027.52,-16.8041"/>
<polygon fill="green" stroke="green" stroke-width="0.430851" points="1027.47,-13.2996 1017.34,-16.4063 1027.2,-20.2942 1027.47,-13.2996"/>
</g>
<!-- &#45;8 -->
<g id="node8" class="node"><title>&#45;8</title>
<polygon fill="lightgray" stroke="black" points="1728.5,-83.6985 1704.5,-83.6985 1704.5,-65.6985 1728.5,-65.6985 1728.5,-83.6985"/>
<text text-anchor="middle" x="1716.5" y="-72.4985" font-family="Times New Roman,serif" font-size="9.00">&#45;8</text>
</g>
<!-- &#45;8&#45;&gt;0 -->
<g id="edge29" class="edge"><title>&#45;8&#45;&gt;0</title>
<path fill="none" stroke="green" stroke-width="0.146137" d="M1704.26,-68.2925C1701.43,-67.2544 1698.4,-66.3035 1695.5,-65.6985 1528.89,-30.9702 1093.81,-77.5807 930.5,-29.6985 929.438,-29.3872 928.374,-29.02 927.315,-28.6096"/>
<polygon fill="green" stroke="green" stroke-width="0.146137" points="928.713,-25.3963 918.2,-24.0851 925.601,-31.6664 928.713,-25.3963"/>
</g>
<!-- &#45;8&#45;&gt;1 -->
<g id="edge30" class="edge"><title>&#45;8&#45;&gt;1</title>
<path fill="none" stroke="red" stroke-width="0.130859" d="M1704.26,-68.2992C1701.43,-67.2608 1698.4,-66.3081 1695.5,-65.6985 1383.25,-0.0992567 1284.54,-119.949 978.5,-29.6985 977.439,-29.3855 976.374,-29.017 975.316,-28.6054"/>
<polygon fill="red" stroke="red" stroke-width="0.130859" points="976.715,-25.3924 966.203,-24.0769 973.6,-31.6612 976.715,-25.3924"/>
</g>
<!-- &#45;8&#45;&gt;2 -->
<g id="edge31" class="edge"><title>&#45;8&#45;&gt;2</title>
<path fill="none" stroke="red" stroke-width="0.128472" d="M1704.26,-68.2865C1701.43,-67.2488 1698.4,-66.2995 1695.5,-65.6985 1518.41,-29.0413 1056.11,-80.338 882.5,-29.6985 881.438,-29.3887 880.373,-29.0227 879.314,-28.6132"/>
<polygon fill="red" stroke="red" stroke-width="0.128472" points="880.712,-25.3998 870.198,-24.0923 877.602,-31.6709 880.712,-25.3998"/>
</g>
<!-- &#45;8&#45;&gt;3 -->
<g id="edge32" class="edge"><title>&#45;8&#45;&gt;3</title>
<path fill="none" stroke="green" stroke-width="0.430866" d="M1704.25,-68.3457C1701.42,-67.3049 1698.39,-66.3395 1695.5,-65.6985 1564.27,-36.642 1136.32,-20.3969 1027.73,-16.6782"/>
<polygon fill="green" stroke="green" stroke-width="0.430866" points="1027.54,-13.1699 1017.43,-16.3304 1027.31,-20.1659 1027.54,-13.1699"/>
</g>
<!-- &#45;9 -->
<g id="node9" class="node"><title>&#45;9</title>
<polygon fill="lightgray" stroke="black" points="1770.5,-83.6985 1746.5,-83.6985 1746.5,-65.6985 1770.5,-65.6985 1770.5,-83.6985"/>
<text text-anchor="middle" x="1758.5" y="-72.4985" font-family="Times New Roman,serif" font-size="9.00">&#45;9</text>
</g>
<!-- &#45;9&#45;&gt;0 -->
<g id="edge33" class="edge"><title>&#45;9&#45;&gt;0</title>
<path fill="none" stroke="green" stroke-width="0.247185" d="M1746.26,-68.2872C1743.43,-67.2494 1740.4,-66.3 1737.5,-65.6985 1561.72,-29.2824 1102.82,-79.9934 930.5,-29.6985 929.438,-29.3885 928.373,-29.0224 927.314,-28.6128"/>
<polygon fill="green" stroke="green" stroke-width="0.247185" points="928.712,-25.3994 918.198,-24.0915 925.602,-31.6704 928.712,-25.3994"/>
</g>
<!-- &#45;9&#45;&gt;1 -->
<g id="edge34" class="edge"><title>&#45;9&#45;&gt;1</title>
<path fill="none" stroke="red" stroke-width="0.197604" stroke-dasharray="1,5" d="M1746.26,-68.2933C1743.43,-67.2552 1740.4,-66.3041 1737.5,-65.6985 1572.2,-31.2113 1140.53,-77.2361 978.5,-29.6985 977.438,-29.387 976.374,-29.0197 975.315,-28.6091"/>
<polygon fill="red" stroke="red" stroke-width="0.197604" points="976.714,-25.3959 966.2,-24.0841 973.601,-31.6658 976.714,-25.3959"/>
</g>
<!-- &#45;9&#45;&gt;2 -->
<g id="edge35" class="edge"><title>&#45;9&#45;&gt;2</title>
<path fill="none" stroke="red" stroke-width="0.185282" d="M1746.26,-68.2818C1743.43,-67.2443 1740.4,-66.2964 1737.5,-65.6985 1551.24,-27.3534 1065.12,-82.7509 882.5,-29.6985 881.437,-29.3898 880.372,-29.0248 879.313,-28.6161"/>
<polygon fill="red" stroke="red" stroke-width="0.185282" points="880.711,-25.4025 870.196,-24.098 877.602,-31.6745 880.711,-25.4025"/>
</g>
<!-- &#45;9&#45;&gt;3 -->
<g id="edge36" class="edge"><title>&#45;9&#45;&gt;3</title>
<path fill="none" stroke="red" stroke-width="0.264361" d="M1746.25,-68.337C1743.42,-67.2966 1740.4,-66.3335 1737.5,-65.6985 1597.55,-35.0134 1139.62,-19.8574 1027.46,-16.5513"/>
<polygon fill="red" stroke="red" stroke-width="0.264361" points="1027.53,-13.0519 1017.43,-16.2604 1027.33,-20.049 1027.53,-13.0519"/>
</g>
<!-- &#45;10 -->
<g id="node10" class="node"><title>&#45;10</title>
<polygon fill="lightgray" stroke="black" points="29,-83.6985 0,-83.6985 0,-65.6985 29,-65.6985 29,-83.6985"/>
<text text-anchor="middle" x="14.5" y="-72.4985" font-family="Times New Roman,serif" font-size="9.00">&#45;10</text>
</g>
<!-- &#45;10&#45;&gt;0 -->
<g id="edge37" class="edge"><title>&#45;10&#45;&gt;0</title>
<path fill="none" stroke="green" stroke-width="0.549435" d="M29.4213,-67.8048C32.0759,-66.9596 34.8423,-66.2059 37.5,-65.6985 222.113,-30.4507 702.027,-82.1764 882.5,-29.6985 883.562,-29.3895 884.628,-29.0243 885.687,-28.6154"/>
<polygon fill="green" stroke="green" stroke-width="0.549435" points="887.398,-31.6737 894.803,-24.0967 884.289,-25.4018 887.398,-31.6737"/>
</g>
<!-- &#45;10&#45;&gt;1 -->
<g id="edge38" class="edge"><title>&#45;10&#45;&gt;1</title>
<path fill="none" stroke="green" stroke-width="0.20017" d="M29.4204,-67.7997C32.075,-66.9551 34.8417,-66.2029 37.5,-65.6985 232.624,-28.675 739.73,-84.9341 930.5,-29.6985 931.563,-29.3908 932.628,-29.0265 933.688,-28.6185"/>
<polygon fill="green" stroke="green" stroke-width="0.20017" points="935.397,-31.6775 942.805,-24.1027 932.29,-25.4047 935.397,-31.6775"/>
</g>
<!-- &#45;10&#45;&gt;2 -->
<g id="edge39" class="edge"><title>&#45;10&#45;&gt;2</title>
<path fill="none" stroke="red" stroke-width="0.487456" d="M29.4293,-67.8453C32.083,-66.9956 34.847,-66.2299 37.5,-65.6985 195.511,-34.048 713.076,-19.4585 833.365,-16.4486"/>
<polygon fill="red" stroke="red" stroke-width="0.487456" points="833.536,-19.9456 843.446,-16.2004 833.363,-12.9477 833.536,-19.9456"/>
</g>
<!-- &#45;10&#45;&gt;3 -->
<g id="edge40" class="edge"><title>&#45;10&#45;&gt;3</title>
<path fill="none" stroke="green" stroke-width="0.181784" d="M29.4195,-67.795C32.0743,-66.951 34.8412,-66.2002 37.5,-65.6985 243.136,-26.8991 777.432,-87.692 978.5,-29.6985 979.563,-29.3919 980.629,-29.0285 981.688,-28.6212"/>
<polygon fill="green" stroke="green" stroke-width="0.181784" points="983.397,-31.6809 990.807,-24.1081 980.292,-25.4072 983.397,-31.6809"/>
</g>
<!-- &#45;11 -->
<g id="node11" class="node"><title>&#45;11</title>
<polygon fill="lightgray" stroke="black" points="76,-83.6985 47,-83.6985 47,-65.6985 76,-65.6985 76,-83.6985"/>
<text text-anchor="middle" x="61.5" y="-72.4985" font-family="Times New Roman,serif" font-size="9.00">&#45;11</text>
</g>
<!-- &#45;11&#45;&gt;0 -->
<g id="edge41" class="edge"><title>&#45;11&#45;&gt;0</title>
<path fill="none" stroke="red" stroke-width="0.243174" d="M76.4224,-67.8104C79.0769,-66.9646 81.8429,-66.2092 84.5,-65.6985 258.822,-32.1892 712.108,-79.4763 882.5,-29.6985 883.562,-29.3882 884.627,-29.0219 885.686,-28.6121"/>
<polygon fill="red" stroke="red" stroke-width="0.243174" points="887.398,-31.6696 894.801,-24.0902 884.288,-25.3987 887.398,-31.6696"/>
</g>
<!-- &#45;11&#45;&gt;1 -->
<g id="edge42" class="edge"><title>&#45;11&#45;&gt;1</title>
<path fill="none" stroke="green" stroke-width="0.149359" d="M76.4213,-67.8047C79.0759,-66.9595 81.8423,-66.2059 84.5,-65.6985 269.332,-30.4137 749.812,-82.2338 930.5,-29.6985 931.562,-29.3896 932.628,-29.0244 933.687,-28.6155"/>
<polygon fill="green" stroke="green" stroke-width="0.149359" points="935.398,-31.6738 942.803,-24.0968 932.289,-25.4019 935.398,-31.6738"/>
</g>
<!-- &#45;11&#45;&gt;2 -->
<g id="edge43" class="edge"><title>&#45;11&#45;&gt;2</title>
<path fill="none" stroke="green" stroke-width="0.243382" stroke-dasharray="1,5" d="M76.4309,-67.8535C79.0844,-67.0029 81.8479,-66.2348 84.5,-65.6985 232.825,-35.7047 717.345,-19.9523 833.369,-16.5549"/>
<polygon fill="green" stroke="green" stroke-width="0.243382" points="833.813,-20.0436 843.708,-16.2565 833.611,-13.0465 833.813,-20.0436"/>
</g>
<!-- &#45;11&#45;&gt;3 -->
<g id="edge44" class="edge"><title>&#45;11&#45;&gt;3</title>
<path fill="none" stroke="green" stroke-width="0.271544" d="M76.4203,-67.7996C79.075,-66.955 81.8417,-66.2028 84.5,-65.6985 279.843,-28.638 787.515,-84.9916 978.5,-29.6985 979.563,-29.3908 980.628,-29.0266 981.688,-28.6185"/>
<polygon fill="green" stroke="green" stroke-width="0.271544" points="983.397,-31.6775 990.805,-24.1028 980.291,-25.4047 983.397,-31.6775"/>
</g>
<!-- &#45;12 -->
<g id="node12" class="node"><title>&#45;12</title>
<polygon fill="lightgray" stroke="black" points="123,-83.6985 94,-83.6985 94,-65.6985 123,-65.6985 123,-83.6985"/>
<text text-anchor="middle" x="108.5" y="-72.4985" font-family="Times New Roman,serif" font-size="9.00">&#45;12</text>
</g>
<!-- &#45;12&#45;&gt;0 -->
<g id="edge45" class="edge"><title>&#45;12&#45;&gt;0</title>
<path fill="none" stroke="green" stroke-width="0.162985" d="M123.424,-67.8167C126.078,-66.9702 128.844,-66.213 131.5,-65.6985 295.532,-33.9276 722.189,-76.7766 882.5,-29.6985 883.562,-29.3867 884.626,-29.0192 885.685,-28.6084"/>
<polygon fill="green" stroke="green" stroke-width="0.162985" points="887.399,-31.6649 894.799,-24.0828 884.286,-25.3952 887.399,-31.6649"/>
</g>
<!-- &#45;12&#45;&gt;1 -->
<g id="edge46" class="edge"><title>&#45;12&#45;&gt;1</title>
<path fill="none" stroke="green" stroke-width="0.249106" d="M123.422,-67.8103C126.077,-66.9645 128.843,-66.2092 131.5,-65.6985 306.041,-32.1522 759.894,-79.5338 930.5,-29.6985 931.562,-29.3882 932.627,-29.022 933.686,-28.6122"/>
<polygon fill="green" stroke="green" stroke-width="0.249106" points="935.398,-31.6697 942.801,-24.0903 932.288,-25.3988 935.398,-31.6697"/>
</g>
<!-- &#45;12&#45;&gt;2 -->
<g id="edge47" class="edge"><title>&#45;12&#45;&gt;2</title>
<path fill="none" stroke="red" stroke-width="0.589388" d="M123.433,-67.8627C126.086,-67.0112 128.849,-66.2403 131.5,-65.6985 270.058,-37.3806 721.086,-20.5042 833.129,-16.6831"/>
<polygon fill="red" stroke="red" stroke-width="0.589388" points="833.57,-20.1703 843.447,-16.3356 833.335,-13.1743 833.57,-20.1703"/>
</g>
<!-- &#45;12&#45;&gt;3 -->
<g id="edge48" class="edge"><title>&#45;12&#45;&gt;3</title>
<path fill="none" stroke="red" stroke-width="0.170205" d="M123.421,-67.8046C126.076,-66.9594 128.842,-66.2058 131.5,-65.6985 316.551,-30.3767 797.598,-82.2913 978.5,-29.6985 979.562,-29.3896 980.628,-29.0244 981.687,-28.6156"/>
<polygon fill="red" stroke="red" stroke-width="0.170205" points="983.398,-31.6739 990.803,-24.097 980.289,-25.402 983.398,-31.6739"/>
</g>
<!-- &#45;13 -->
<g id="node13" class="node"><title>&#45;13</title>
<polygon fill="lightgray" stroke="black" points="170,-83.6985 141,-83.6985 141,-65.6985 170,-65.6985 170,-83.6985"/>
<text text-anchor="middle" x="155.5" y="-72.4985" font-family="Times New Roman,serif" font-size="9.00">&#45;13</text>
</g>
<!-- &#45;13&#45;&gt;0 -->
<g id="edge49" class="edge"><title>&#45;13&#45;&gt;0</title>
<path fill="none" stroke="green" stroke-width="0.304739" d="M170.425,-67.8239C173.079,-66.9766 175.844,-66.2172 178.5,-65.6985 485.986,-5.63305 582.038,-118.456 882.5,-29.6985 883.561,-29.385 884.625,-29.0161 885.683,-28.6042"/>
<polygon fill="green" stroke="green" stroke-width="0.304739" points="887.4,-31.6597 894.797,-24.0745 884.284,-25.3913 887.4,-31.6597"/>
</g>
<!-- &#45;13&#45;&gt;1 -->
<g id="edge50" class="edge"><title>&#45;13&#45;&gt;1</title>
<path fill="none" stroke="red" stroke-width="0.176496" stroke-dasharray="1,5" d="M170.424,-67.8166C173.078,-66.9701 175.844,-66.2129 178.5,-65.6985 342.751,-33.8906 769.975,-76.834 930.5,-29.6985 931.562,-29.3868 932.626,-29.0193 933.685,-28.6085"/>
<polygon fill="red" stroke="red" stroke-width="0.176496" points="935.399,-31.665 942.799,-24.083 932.286,-25.3953 935.399,-31.665"/>
</g>
<!-- &#45;13&#45;&gt;2 -->
<g id="edge51" class="edge"><title>&#45;13&#45;&gt;2</title>
<path fill="none" stroke="green" stroke-width="0.129395" d="M170.435,-67.8733C173.088,-67.0205 175.85,-66.2465 178.5,-65.6985 429.987,-13.6827 743.595,-14.0285 833.416,-15.3442"/>
<polygon fill="green" stroke="green" stroke-width="0.129395" points="833.41,-18.8445 843.467,-15.5102 833.526,-11.8454 833.41,-18.8445"/>
</g>
<!-- &#45;13&#45;&gt;3 -->
<g id="edge52" class="edge"><title>&#45;13&#45;&gt;3</title>
<path fill="none" stroke="red" stroke-width="0.176148" stroke-dasharray="1,5" d="M170.422,-67.8101C173.077,-66.9644 175.843,-66.2091 178.5,-65.6985 353.26,-32.1152 807.679,-79.5912 978.5,-29.6985 979.562,-29.3883 980.627,-29.022 981.686,-28.6123"/>
<polygon fill="red" stroke="red" stroke-width="0.176148" points="983.398,-31.6697 990.801,-24.0905 980.288,-25.3989 983.398,-31.6697"/>
</g>
<!-- &#45;14 -->
<g id="node14" class="node"><title>&#45;14</title>
<polygon fill="lightgray" stroke="black" points="217,-83.6985 188,-83.6985 188,-65.6985 217,-65.6985 217,-83.6985"/>
<text text-anchor="middle" x="202.5" y="-72.4985" font-family="Times New Roman,serif" font-size="9.00">&#45;14</text>
</g>
<!-- &#45;14&#45;&gt;0 -->
<g id="edge53" class="edge"><title>&#45;14&#45;&gt;0</title>
<path fill="none" stroke="green" stroke-width="0.233096" d="M217.427,-67.832C220.081,-66.9839 222.845,-66.2221 225.5,-65.6985 512.41,-9.10886 602.194,-113.058 882.5,-29.6985 883.561,-29.3831 884.624,-29.0126 885.682,-28.5994"/>
<polygon fill="green" stroke="green" stroke-width="0.233096" points="887.401,-31.6537 894.794,-24.0649 884.282,-25.3868 887.401,-31.6537"/>
</g>
<!-- &#45;14&#45;&gt;1 -->
<g id="edge54" class="edge"><title>&#45;14&#45;&gt;1</title>
<path fill="none" stroke="green" stroke-width="0.161698" d="M217.425,-67.8237C220.079,-66.9765 222.844,-66.2171 225.5,-65.6985 533.424,-5.55909 629.609,-118.571 930.5,-29.6985 931.561,-29.3851 932.625,-29.0162 933.683,-28.6043"/>
<polygon fill="green" stroke="green" stroke-width="0.161698" points="935.4,-31.6598 942.797,-24.0746 932.284,-25.3914 935.4,-31.6598"/>
</g>
<!-- &#45;14&#45;&gt;2 -->
<g id="edge55" class="edge"><title>&#45;14&#45;&gt;2</title>
<path fill="none" stroke="red" stroke-width="0.40984" d="M217.437,-67.8854C220.09,-67.0313 222.852,-66.2537 225.5,-65.6985 458.06,-16.941 747.762,-14.9498 833.503,-15.5378"/>
<polygon fill="red" stroke="red" stroke-width="0.40984" points="833.55,-19.0382 843.581,-15.6262 833.612,-12.0385 833.55,-19.0382"/>
</g>
<!-- &#45;14&#45;&gt;3 -->
<g id="edge56" class="edge"><title>&#45;14&#45;&gt;3</title>
<path fill="none" stroke="red" stroke-width="0.119081" d="M217.424,-67.8164C220.078,-66.97 222.844,-66.2128 225.5,-65.6985 389.97,-33.8536 817.76,-76.8914 978.5,-29.6985 979.562,-29.3868 980.626,-29.0193 981.685,-28.6086"/>
<polygon fill="red" stroke="red" stroke-width="0.119081" points="983.399,-31.6651 990.799,-24.0831 980.286,-25.3954 983.399,-31.6651"/>
</g>
<!-- &#45;15 -->
<g id="node15" class="node"><title>&#45;15</title>
<polygon fill="lightgray" stroke="black" points="264,-83.6985 235,-83.6985 235,-65.6985 264,-65.6985 264,-83.6985"/>
<text text-anchor="middle" x="249.5" y="-72.4985" font-family="Times New Roman,serif" font-size="9.00">&#45;15</text>
</g>
<!-- &#45;15&#45;&gt;0 -->
<g id="edge57" class="edge"><title>&#45;15&#45;&gt;0</title>
<path fill="none" stroke="red" stroke-width="0.148975" d="M264.428,-67.8415C267.082,-66.9922 269.847,-66.2277 272.5,-65.6985 538.838,-12.584 622.348,-107.66 882.5,-29.6985 883.56,-29.3809 884.623,-29.0085 885.68,-28.5939"/>
<polygon fill="red" stroke="red" stroke-width="0.148975" points="887.401,-31.6467 894.791,-24.0539 884.279,-25.3815 887.401,-31.6467"/>
</g>
<!-- &#45;15&#45;&gt;1 -->
<g id="edge58" class="edge"><title>&#45;15&#45;&gt;1</title>
<path fill="none" stroke="green" stroke-width="0.265645" d="M264.427,-67.8318C267.081,-66.9837 269.845,-66.222 272.5,-65.6985 559.848,-9.03491 649.766,-113.172 930.5,-29.6985 931.561,-29.3831 932.624,-29.0127 933.682,-28.5995"/>
<polygon fill="green" stroke="green" stroke-width="0.265645" points="935.401,-31.6538 942.794,-24.0651 932.282,-25.3869 935.401,-31.6538"/>
</g>
<!-- &#45;15&#45;&gt;2 -->
<g id="edge59" class="edge"><title>&#45;15&#45;&gt;2</title>
<path fill="none" stroke="green" stroke-width="0.210466" d="M264.44,-67.8994C267.093,-67.0437 269.854,-66.262 272.5,-65.6985 485.889,-20.2609 751.316,-15.9455 833.244,-15.7605"/>
<polygon fill="green" stroke="green" stroke-width="0.210466" points="833.357,-19.2606 843.356,-15.7576 833.355,-12.2606 833.357,-19.2606"/>
</g>
<!-- &#45;15&#45;&gt;3 -->
<g id="edge60" class="edge"><title>&#45;15&#45;&gt;3</title>
<path fill="none" stroke="red" stroke-width="0.3925" d="M264.425,-67.8235C267.079,-66.9763 269.844,-66.217 272.5,-65.6985 580.862,-5.48513 677.18,-118.685 978.5,-29.6985 979.561,-29.3851 980.625,-29.0162 981.683,-28.6044"/>
<polygon fill="red" stroke="red" stroke-width="0.3925" points="983.4,-31.6599 990.797,-24.0748 980.284,-25.3915 983.4,-31.6599"/>
</g>
<!-- &#45;16 -->
<g id="node16" class="node"><title>&#45;16</title>
<polygon fill="lightgray" stroke="black" points="311,-83.6985 282,-83.6985 282,-65.6985 311,-65.6985 311,-83.6985"/>
<text text-anchor="middle" x="296.5" y="-72.4985" font-family="Times New Roman,serif" font-size="9.00">&#45;16</text>
</g>
<!-- &#45;16&#45;&gt;0 -->
<g id="edge61" class="edge"><title>&#45;16&#45;&gt;0</title>
<path fill="none" stroke="green" stroke-width="0.118574" d="M311.431,-67.8524C314.084,-67.002 316.848,-66.2342 319.5,-65.6985 565.27,-16.0584 642.497,-102.264 882.5,-29.6985 883.559,-29.3783 884.622,-29.0038 885.678,-28.5874"/>
<polygon fill="green" stroke="green" stroke-width="0.118574" points="887.402,-31.6387 894.787,-24.0411 884.276,-25.3755 887.402,-31.6387"/>
</g>
<!-- &#45;16&#45;&gt;1 -->
<g id="edge62" class="edge"><title>&#45;16&#45;&gt;1</title>
<path fill="none" stroke="green" stroke-width="0.443218" d="M311.428,-67.8412C314.082,-66.992 316.846,-66.2275 319.5,-65.6985 586.276,-12.5101 669.919,-107.775 930.5,-29.6985 931.56,-29.3809 932.623,-29.0086 933.68,-28.594"/>
<polygon fill="green" stroke="green" stroke-width="0.443218" points="935.401,-31.6469 942.791,-24.0542 932.279,-25.3817 935.401,-31.6469"/>
</g>
<!-- &#45;16&#45;&gt;2 -->
<g id="edge63" class="edge"><title>&#45;16&#45;&gt;2</title>
<path fill="none" stroke="red" stroke-width="0.216601" d="M311.444,-67.9158C314.096,-67.0583 316.856,-66.2717 319.5,-65.6985 513.833,-23.5705 755.145,-17.028 833.014,-16.0259"/>
<polygon fill="red" stroke="red" stroke-width="0.216601" points="833.331,-19.5227 843.292,-15.9146 833.255,-12.5231 833.331,-19.5227"/>
</g>
<!-- &#45;16&#45;&gt;3 -->
<g id="edge64" class="edge"><title>&#45;16&#45;&gt;3</title>
<path fill="none" stroke="green" stroke-width="0.156144" d="M311.427,-67.8317C314.081,-66.9835 316.845,-66.2219 319.5,-65.6985 607.286,-8.96097 697.337,-113.287 978.5,-29.6985 979.561,-29.3832 980.624,-29.0127 981.682,-28.5996"/>
<polygon fill="green" stroke="green" stroke-width="0.156144" points="983.401,-31.6539 990.794,-24.0654 980.282,-25.387 983.401,-31.6539"/>
</g>
<!-- &#45;17 -->
<g id="node17" class="node"><title>&#45;17</title>
<polygon fill="lightgray" stroke="black" points="358,-83.6985 329,-83.6985 329,-65.6985 358,-65.6985 358,-83.6985"/>
<text text-anchor="middle" x="343.5" y="-72.4985" font-family="Times New Roman,serif" font-size="9.00">&#45;17</text>
</g>
<!-- &#45;17&#45;&gt;0 -->
<g id="edge65" class="edge"><title>&#45;17&#45;&gt;0</title>
<path fill="none" stroke="green" stroke-width="0.108036" d="M358.433,-67.8654C361.087,-67.0135 363.849,-66.2419 366.5,-65.6985 591.707,-19.5316 662.641,-96.87 882.5,-29.6985 883.558,-29.3752 884.62,-28.9982 885.676,-28.5798"/>
<polygon fill="green" stroke="green" stroke-width="0.108036" points="887.404,-31.6291 894.782,-24.026 884.273,-25.3683 887.404,-31.6291"/>
</g>
<!-- &#45;17&#45;&gt;1 -->
<g id="edge66" class="edge"><title>&#45;17&#45;&gt;1</title>
<path fill="none" stroke="green" stroke-width="0.422964" d="M358.431,-67.8522C361.084,-67.0018 363.848,-66.234 366.5,-65.6985 612.708,-15.9844 690.069,-102.379 930.5,-29.6985 931.559,-29.3783 932.622,-29.0039 933.678,-28.5876"/>
<polygon fill="green" stroke="green" stroke-width="0.422964" points="935.402,-31.6389 942.787,-24.0414 932.276,-25.3756 935.402,-31.6389"/>
</g>
<!-- &#45;17&#45;&gt;2 -->
<g id="edge67" class="edge"><title>&#45;17&#45;&gt;2</title>
<path fill="none" stroke="green" stroke-width="0.349095" d="M358.448,-67.9353C361.1,-67.0757 363.858,-66.2833 366.5,-65.6985 542.308,-26.7799 760.28,-18.172 833.325,-16.3318"/>
<polygon fill="green" stroke="green" stroke-width="0.349095" points="833.487,-19.8291 843.404,-16.0987 833.325,-12.831 833.487,-19.8291"/>
</g>
<!-- &#45;17&#45;&gt;3 -->
<g id="edge68" class="edge"><title>&#45;17&#45;&gt;3</title>
<path fill="none" stroke="green" stroke-width="0.335171" d="M358.428,-67.841C361.082,-66.9919 363.846,-66.2274 366.5,-65.6985 633.714,-12.4362 717.49,-107.89 978.5,-29.6985 979.56,-29.381 980.623,-29.0087 981.68,-28.5941"/>
<polygon fill="green" stroke="green" stroke-width="0.335171" points="983.401,-31.6471 990.791,-24.0544 980.279,-25.3818 983.401,-31.6471"/>
</g>
<!-- &#45;18 -->
<g id="node18" class="node"><title>&#45;18</title>
<polygon fill="lightgray" stroke="black" points="405,-83.6985 376,-83.6985 376,-65.6985 405,-65.6985 405,-83.6985"/>
<text text-anchor="middle" x="390.5" y="-72.4985" font-family="Times New Roman,serif" font-size="9.00">&#45;18</text>
</g>
<!-- &#45;18&#45;&gt;0 -->
<g id="edge69" class="edge"><title>&#45;18&#45;&gt;0</title>
<path fill="none" stroke="green" stroke-width="0.268541" d="M405.437,-67.881C408.089,-67.0274 410.851,-66.2511 413.5,-65.6985 618.151,-23.0035 682.779,-91.4776 882.5,-29.6985 883.557,-29.3715 884.618,-28.9915 885.673,-28.5706"/>
<polygon fill="green" stroke="green" stroke-width="0.268541" points="887.405,-31.6177 894.777,-24.0079 884.268,-25.3598 887.405,-31.6177"/>
</g>
<!-- &#45;18&#45;&gt;1 -->
<g id="edge70" class="edge"><title>&#45;18&#45;&gt;1</title>
<path fill="none" stroke="red" stroke-width="0.135731" d="M405.433,-67.8651C408.087,-67.0133 410.849,-66.2417 413.5,-65.6985 639.145,-19.4577 710.213,-96.9848 930.5,-29.6985 931.558,-29.3753 932.62,-28.9983 933.676,-28.58"/>
<polygon fill="red" stroke="red" stroke-width="0.135731" points="935.404,-31.6294 942.782,-24.0264 932.273,-25.3685 935.404,-31.6294"/>
</g>
<!-- &#45;18&#45;&gt;2 -->
<g id="edge71" class="edge"><title>&#45;18&#45;&gt;2</title>
<path fill="none" stroke="green" stroke-width="0.153155" d="M405.454,-67.9589C408.105,-67.0966 410.861,-66.2973 413.5,-65.6985 570.774,-30.009 765.374,-19.427 833.526,-16.697"/>
<polygon fill="green" stroke="green" stroke-width="0.153155" points="833.844,-20.1876 843.705,-16.3111 833.579,-13.1926 833.844,-20.1876"/>
</g>
<!-- &#45;18&#45;&gt;3 -->
<g id="edge72" class="edge"><title>&#45;18&#45;&gt;3</title>
<path fill="none" stroke="red" stroke-width="0.43017" d="M405.431,-67.8519C408.084,-67.0016 410.848,-66.2339 413.5,-65.6985 660.145,-15.9105 737.64,-102.494 978.5,-29.6985 979.559,-29.3784 980.622,-29.004 981.678,-28.5877"/>
<polygon fill="red" stroke="red" stroke-width="0.43017" points="983.402,-31.639 990.787,-24.0417 980.276,-25.3758 983.402,-31.639"/>
</g>
<!-- &#45;19 -->
<g id="node19" class="node"><title>&#45;19</title>
<polygon fill="lightgray" stroke="black" points="452,-83.6985 423,-83.6985 423,-65.6985 452,-65.6985 452,-83.6985"/>
<text text-anchor="middle" x="437.5" y="-72.4985" font-family="Times New Roman,serif" font-size="9.00">&#45;19</text>
</g>
<!-- &#45;19&#45;&gt;0 -->
<g id="edge73" class="edge"><title>&#45;19&#45;&gt;0</title>
<path fill="none" stroke="green" stroke-width="0.199669" d="M452.441,-67.8999C455.093,-67.0442 457.854,-66.2623 460.5,-65.6985 644.605,-26.4735 702.908,-86.088 882.5,-29.6985 883.556,-29.367 884.615,-28.9833 885.67,-28.5595"/>
<polygon fill="green" stroke="green" stroke-width="0.199669" points="887.407,-31.6038 894.77,-23.9858 884.263,-25.3494 887.407,-31.6038"/>
</g>
<!-- &#45;19&#45;&gt;1 -->
<g id="edge74" class="edge"><title>&#45;19&#45;&gt;1</title>
<path fill="none" stroke="red" stroke-width="0.411648" d="M452.436,-67.8806C455.089,-67.027 457.851,-66.2509 460.5,-65.6985 665.589,-22.9297 730.351,-91.5923 930.5,-29.6985 931.557,-29.3716 932.618,-28.9917 933.673,-28.5709"/>
<polygon fill="red" stroke="red" stroke-width="0.411648" points="935.405,-31.618 942.777,-24.0083 932.269,-25.36 935.405,-31.618"/>
</g>
<!-- &#45;19&#45;&gt;2 -->
<g id="edge75" class="edge"><title>&#45;19&#45;&gt;2</title>
<path fill="none" stroke="green" stroke-width="0.499835" d="M452.46,-67.9879C455.11,-67.1224 457.865,-66.3145 460.5,-65.6985 598.99,-33.3203 769.827,-20.8764 833.251,-17.1679"/>
<polygon fill="green" stroke="green" stroke-width="0.499835" points="833.696,-20.6485 843.483,-16.592 833.302,-13.6596 833.696,-20.6485"/>
</g>
<!-- &#45;19&#45;&gt;3 -->
<g id="edge76" class="edge"><title>&#45;19&#45;&gt;3</title>
<path fill="none" stroke="green" stroke-width="0.23922" d="M452.433,-67.8648C455.086,-67.013 457.849,-66.2415 460.5,-65.6985 686.582,-19.3839 757.784,-97.0995 978.5,-29.6985 979.558,-29.3753 980.62,-28.9985 981.676,-28.5801"/>
<polygon fill="green" stroke="green" stroke-width="0.23922" points="983.404,-31.6296 990.782,-24.0267 980.273,-25.3687 983.404,-31.6296"/>
</g>
<!-- &#45;20 -->
<g id="node20" class="node"><title>&#45;20</title>
<polygon fill="lightgray" stroke="black" points="499,-83.6985 470,-83.6985 470,-65.6985 499,-65.6985 499,-83.6985"/>
<text text-anchor="middle" x="484.5" y="-72.4985" font-family="Times New Roman,serif" font-size="9.00">&#45;20</text>
</g>
<!-- &#45;20&#45;&gt;0 -->
<g id="edge77" class="edge"><title>&#45;20&#45;&gt;0</title>
<path fill="none" stroke="red" stroke-width="0.128113" d="M499.446,-67.9236C502.098,-67.0653 504.857,-66.2763 507.5,-65.6985 671.07,-29.9408 723.025,-80.7021 882.5,-29.6985 883.554,-29.3614 884.612,-28.9732 885.665,-28.5456"/>
<polygon fill="red" stroke="red" stroke-width="0.128113" points="887.408,-31.5865 894.761,-23.9583 884.256,-25.3364 887.408,-31.5865"/>
</g>
<!-- &#45;20&#45;&gt;1 -->
<g id="edge78" class="edge"><title>&#45;20&#45;&gt;1</title>
<path fill="none" stroke="green" stroke-width="0.355201" d="M499.44,-67.8995C502.093,-67.0438 504.854,-66.262 507.5,-65.6985 692.042,-26.3997 750.48,-86.2026 930.5,-29.6985 931.556,-29.3671 932.615,-28.9835 933.67,-28.5598"/>
<polygon fill="green" stroke="green" stroke-width="0.355201" points="935.407,-31.6042 942.77,-23.9863 932.263,-25.3496 935.407,-31.6042"/>
</g>
<!-- &#45;20&#45;&gt;2 -->
<g id="edge79" class="edge"><title>&#45;20&#45;&gt;2</title>
<path fill="none" stroke="red" stroke-width="0.139216" d="M499.469,-68.0245C502.118,-67.155 504.87,-66.3361 507.5,-65.6985 627.755,-36.5368 775.605,-22.4341 833.543,-17.7231"/>
<polygon fill="red" stroke="red" stroke-width="0.139216" points="833.901,-21.2058 843.593,-16.9277 833.348,-14.2276 833.901,-21.2058"/>
</g>
<!-- &#45;20&#45;&gt;3 -->
<g id="edge80" class="edge"><title>&#45;20&#45;&gt;3</title>
<path fill="none" stroke="green" stroke-width="0.481141" d="M499.436,-67.8802C502.089,-67.0267 504.851,-66.2506 507.5,-65.6985 713.026,-22.8558 777.922,-91.707 978.5,-29.6985 979.557,-29.3717 980.618,-28.9918 981.673,-28.5711"/>
<polygon fill="green" stroke="green" stroke-width="0.481141" points="983.405,-31.6183 990.777,-24.0087 980.269,-25.3602 983.405,-31.6183"/>
</g>
<!-- &#45;21 -->
<g id="node21" class="node"><title>&#45;21</title>
<polygon fill="lightgray" stroke="black" points="546,-83.6985 517,-83.6985 517,-65.6985 546,-65.6985 546,-83.6985"/>
<text text-anchor="middle" x="531.5" y="-72.4985" font-family="Times New Roman,serif" font-size="9.00">&#45;21</text>
</g>
<!-- &#45;21&#45;&gt;0 -->
<g id="edge81" class="edge"><title>&#45;21&#45;&gt;0</title>
<path fill="none" stroke="red" stroke-width="0.256159" d="M546.452,-67.9539C549.104,-67.0922 551.861,-66.2943 554.5,-65.6985 697.553,-33.4043 743.124,-75.3218 882.5,-29.6985 883.38,-29.4104 884.264,-29.0873 885.145,-28.7362"/>
<polygon fill="red" stroke="red" stroke-width="0.256159" points="886.856,-31.7944 894.256,-24.2126 883.743,-25.5246 886.856,-31.7944"/>
</g>
<!-- &#45;21&#45;&gt;1 -->
<g id="edge82" class="edge"><title>&#45;21&#45;&gt;1</title>
<path fill="none" stroke="red" stroke-width="0.432509" d="M546.446,-67.923C549.097,-67.0648 551.857,-66.276 554.5,-65.6985 718.507,-29.8671 770.597,-80.8167 930.5,-29.6985 931.554,-29.3616 932.612,-28.9734 933.665,-28.5459"/>
<polygon fill="red" stroke="red" stroke-width="0.432509" points="935.408,-31.5869 942.761,-23.9589 932.256,-25.3367 935.408,-31.5869"/>
</g>
<!-- &#45;21&#45;&gt;2 -->
<g id="edge83" class="edge"><title>&#45;21&#45;&gt;2</title>
<path fill="none" stroke="green" stroke-width="0.165538" d="M546.481,-68.0721C549.129,-67.1972 551.877,-66.3643 554.5,-65.6985 656.615,-39.7728 781.579,-24.2299 833.765,-18.4417"/>
<polygon fill="green" stroke="green" stroke-width="0.165538" points="834.199,-21.9153 843.761,-17.3544 833.442,-14.9563 834.199,-21.9153"/>
</g>
<!-- &#45;21&#45;&gt;3 -->
<g id="edge84" class="edge"><title>&#45;21&#45;&gt;3</title>
<path fill="none" stroke="green" stroke-width="0.208956" d="M546.44,-67.899C549.093,-67.0434 551.854,-66.2618 554.5,-65.6985 739.479,-26.3259 798.052,-86.3172 978.5,-29.6985 979.556,-29.3672 980.615,-28.9837 981.67,-28.56"/>
<polygon fill="green" stroke="green" stroke-width="0.208956" points="983.407,-31.6045 990.77,-23.9869 980.263,-25.3498 983.407,-31.6045"/>
</g>
<!-- &#45;22 -->
<g id="node22" class="node"><title>&#45;22</title>
<polygon fill="lightgray" stroke="black" points="1818,-83.6985 1789,-83.6985 1789,-65.6985 1818,-65.6985 1818,-83.6985"/>
<text text-anchor="middle" x="1803.5" y="-72.4985" font-family="Times New Roman,serif" font-size="9.00">&#45;22</text>
</g>
<!-- &#45;22&#45;&gt;0 -->
<g id="edge85" class="edge"><title>&#45;22&#45;&gt;0</title>
<path fill="none" stroke="red" stroke-width="0.172129" d="M1788.95,-68.1283C1785.87,-67.1544 1782.61,-66.271 1779.5,-65.6985 1593.78,-31.5078 1111.83,-82.4062 930.5,-29.6985 929.438,-29.3897 928.372,-29.0245 927.313,-28.6157"/>
<polygon fill="red" stroke="red" stroke-width="0.172129" points="928.711,-25.4021 918.197,-24.0972 925.602,-31.674 928.711,-25.4021"/>
</g>
<!-- &#45;22&#45;&gt;1 -->
<g id="edge86" class="edge"><title>&#45;22&#45;&gt;1</title>
<path fill="none" stroke="green" stroke-width="0.149026" d="M1788.95,-68.1344C1785.87,-67.16 1782.61,-66.275 1779.5,-65.6985 1604.31,-33.2151 1149.54,-79.6487 978.5,-29.6985 977.438,-29.3883 976.373,-29.0221 975.314,-28.6124"/>
<polygon fill="green" stroke="green" stroke-width="0.149026" points="976.712,-25.3989 966.198,-24.0906 973.602,-31.6698 976.712,-25.3989"/>
</g>
<!-- &#45;22&#45;&gt;3 -->
<g id="edge87" class="edge"><title>&#45;22&#45;&gt;3</title>
<path fill="none" stroke="red" stroke-width="0.322935" d="M1788.94,-68.1805C1785.86,-67.2028 1782.6,-66.3047 1779.5,-65.6985 1630.26,-36.5454 1143.17,-20.1315 1027.37,-16.583"/>
<polygon fill="red" stroke="red" stroke-width="0.322935" points="1027.45,-13.0838 1017.34,-16.2797 1027.23,-20.0806 1027.45,-13.0838"/>
</g>
<!-- &#45;23 -->
<g id="node23" class="node"><title>&#45;23</title>
<polygon fill="lightgray" stroke="black" points="593,-83.6985 564,-83.6985 564,-65.6985 593,-65.6985 593,-83.6985"/>
<text text-anchor="middle" x="578.5" y="-72.4985" font-family="Times New Roman,serif" font-size="9.00">&#45;23</text>
</g>
<!-- &#45;23&#45;&gt;0 -->
<g id="edge88" class="edge"><title>&#45;23&#45;&gt;0</title>
<path fill="none" stroke="green" stroke-width="0.438241" d="M593.462,-67.9942C596.112,-67.128 598.866,-66.3182 601.5,-65.6985 724.063,-36.8617 763.198,-69.9499 882.5,-29.6985 883.377,-29.4024 884.259,-29.0726 885.138,-28.7158"/>
<polygon fill="green" stroke="green" stroke-width="0.438241" points="886.861,-31.7676 894.241,-24.1656 883.731,-25.5063 886.861,-31.7676"/>
</g>
<!-- &#45;23&#45;&gt;1 -->
<g id="edge89" class="edge"><title>&#45;23&#45;&gt;1</title>
<path fill="none" stroke="green" stroke-width="0.243014" d="M593.452,-67.9532C596.103,-67.0916 598.861,-66.2939 601.5,-65.6985 744.99,-33.3306 790.697,-75.4362 930.5,-29.6985 931.38,-29.4105 932.264,-29.0876 933.145,-28.7365"/>
<polygon fill="green" stroke="green" stroke-width="0.243014" points="934.856,-31.7949 942.256,-24.2134 931.743,-25.525 934.856,-31.7949"/>
</g>
<!-- &#45;23&#45;&gt;2 -->
<g id="edge90" class="edge"><title>&#45;23&#45;&gt;2</title>
<path fill="none" stroke="green" stroke-width="0.367874" d="M593.003,-68.3019C595.8,-67.3613 598.724,-66.4463 601.5,-65.6985 685.6,-43.0412 787.804,-26.3714 833.881,-19.4213"/>
<polygon fill="green" stroke="green" stroke-width="0.367874" points="834.466,-22.8729 843.842,-17.9391 833.436,-15.9491 834.466,-22.8729"/>
</g>
<!-- &#45;23&#45;&gt;3 -->
<g id="edge91" class="edge"><title>&#45;23&#45;&gt;3</title>
<path fill="none" stroke="red" stroke-width="0.35083" d="M593.445,-67.9225C596.097,-67.0643 598.857,-66.2757 601.5,-65.6985 765.944,-29.7934 818.169,-80.9312 978.5,-29.6985 979.554,-29.3617 980.612,-28.9736 981.666,-28.5463"/>
<polygon fill="red" stroke="red" stroke-width="0.35083" points="983.408,-31.5873 990.761,-23.9596 980.257,-25.337 983.408,-31.5873"/>
</g>
<!-- &#45;24 -->
<g id="node24" class="node"><title>&#45;24</title>
<polygon fill="lightgray" stroke="black" points="640,-83.6985 611,-83.6985 611,-65.6985 640,-65.6985 640,-83.6985"/>
<text text-anchor="middle" x="625.5" y="-72.4985" font-family="Times New Roman,serif" font-size="9.00">&#45;24</text>
</g>
<!-- &#45;24&#45;&gt;0 -->
<g id="edge92" class="edge"><title>&#45;24&#45;&gt;0</title>
<path fill="none" stroke="red" stroke-width="0.426119" d="M640.475,-68.0502C643.124,-67.1778 645.874,-66.3513 648.5,-65.6985 750.615,-40.3093 783.23,-64.5919 882.5,-29.6985 883.374,-29.3914 884.252,-29.0522 885.128,-28.6874"/>
<polygon fill="red" stroke="red" stroke-width="0.426119" points="886.867,-31.7303 894.218,-24.1004 883.714,-25.481 886.867,-31.7303"/>
</g>
<!-- &#45;24&#45;&gt;1 -->
<g id="edge93" class="edge"><title>&#45;24&#45;&gt;1</title>
<path fill="none" stroke="red" stroke-width="0.381936" d="M640.461,-67.9932C643.112,-67.1271 645.866,-66.3176 648.5,-65.6985 771.499,-36.7883 810.771,-70.0641 930.5,-29.6985 931.378,-29.4026 932.259,-29.073 933.138,-28.7163"/>
<polygon fill="red" stroke="red" stroke-width="0.381936" points="934.861,-31.7682 942.241,-24.1668 931.731,-25.5067 934.861,-31.7682"/>
</g>
<!-- &#45;24&#45;&gt;2 -->
<g id="edge94" class="edge"><title>&#45;24&#45;&gt;2</title>
<path fill="none" stroke="green" stroke-width="0.354053" d="M640.029,-68.3948C642.824,-67.4456 645.74,-66.5037 648.5,-65.6985 714.918,-46.3189 794.771,-28.9627 834.128,-20.7924"/>
<polygon fill="green" stroke="green" stroke-width="0.354053" points="835.021,-24.182 844.11,-18.7375 833.609,-17.3258 835.021,-24.182"/>
</g>
<!-- &#45;24&#45;&gt;3 -->
<g id="edge95" class="edge"><title>&#45;24&#45;&gt;3</title>
<path fill="none" stroke="red" stroke-width="0.506909" d="M640.452,-67.9525C643.103,-67.0909 645.86,-66.2934 648.5,-65.6985 792.426,-33.257 838.269,-75.5506 978.5,-29.6985 979.38,-29.4107 980.264,-29.0879 981.145,-28.7369"/>
<polygon fill="red" stroke="red" stroke-width="0.506909" points="982.856,-31.7954 990.257,-24.2143 979.743,-25.5253 982.856,-31.7954"/>
</g>
<!-- &#45;25 -->
<g id="node25" class="node"><title>&#45;25</title>
<polygon fill="lightgray" stroke="black" points="687,-83.6985 658,-83.6985 658,-65.6985 687,-65.6985 687,-83.6985"/>
<text text-anchor="middle" x="672.5" y="-72.4985" font-family="Times New Roman,serif" font-size="9.00">&#45;25</text>
</g>
<!-- &#45;25&#45;&gt;0 -->
<g id="edge96" class="edge"><title>&#45;25&#45;&gt;0</title>
<path fill="none" stroke="green" stroke-width="0.206839" d="M687.002,-68.2988C689.799,-67.3585 692.724,-66.4444 695.5,-65.6985 777.239,-43.7386 803.193,-59.2588 882.5,-29.6985 883.368,-29.3751 884.241,-29.022 885.113,-28.6455"/>
<polygon fill="green" stroke="green" stroke-width="0.206839" points="886.876,-31.6753 894.183,-24.0039 883.687,-25.4439 886.876,-31.6753"/>
</g>
<!-- &#45;25&#45;&gt;1 -->
<g id="edge97" class="edge"><title>&#45;25&#45;&gt;1</title>
<path fill="none" stroke="red" stroke-width="0.203453" d="M687.475,-68.0488C690.124,-67.1765 692.874,-66.3505 695.5,-65.6985 798.049,-40.2361 830.805,-64.7057 930.5,-29.6985 931.374,-29.3917 932.252,-29.0527 933.129,-28.6881"/>
<polygon fill="red" stroke="red" stroke-width="0.203453" points="934.867,-31.7313 942.219,-24.102 931.714,-25.4816 934.867,-31.7313"/>
</g>
<!-- &#45;25&#45;&gt;2 -->
<g id="edge98" class="edge"><title>&#45;25&#45;&gt;2</title>
<path fill="none" stroke="green" stroke-width="0.208463" d="M687.072,-68.5364C689.864,-67.5742 692.767,-66.5912 695.5,-65.6985 744.781,-49.5986 802.951,-32.1882 834.762,-22.8014"/>
<polygon fill="green" stroke="green" stroke-width="0.208463" points="835.884,-26.1197 844.489,-19.9391 833.908,-19.4044 835.884,-26.1197"/>
</g>
<!-- &#45;25&#45;&gt;3 -->
<g id="edge99" class="edge"><title>&#45;25&#45;&gt;3</title>
<path fill="none" stroke="red" stroke-width="0.26473" d="M687.461,-67.9922C690.111,-67.1263 692.866,-66.317 695.5,-65.6985 818.934,-36.7148 858.344,-70.1783 978.5,-29.6985 979.378,-29.4028 980.259,-29.0733 981.138,-28.7168"/>
<polygon fill="red" stroke="red" stroke-width="0.26473" points="982.861,-31.7689 990.241,-24.1679 979.731,-25.5072 982.861,-31.7689"/>
</g>
<!-- &#45;26 -->
<g id="node26" class="node"><title>&#45;26</title>
<polygon fill="lightgray" stroke="black" points="734,-83.6985 705,-83.6985 705,-65.6985 734,-65.6985 734,-83.6985"/>
<text text-anchor="middle" x="719.5" y="-72.4985" font-family="Times New Roman,serif" font-size="9.00">&#45;26</text>
</g>
<!-- &#45;26&#45;&gt;0 -->
<g id="edge100" class="edge"><title>&#45;26&#45;&gt;0</title>
<path fill="none" stroke="red" stroke-width="0.12765" d="M734.041,-68.4363C736.835,-67.4833 739.748,-66.5294 742.5,-65.6985 804.004,-47.1293 823.018,-53.9775 882.5,-29.6985 883.357,-29.3485 884.222,-28.9729 885.087,-28.5774"/>
<polygon fill="red" stroke="red" stroke-width="0.12765" points="886.886,-31.5861 894.122,-23.8472 883.639,-25.3845 886.886,-31.5861"/>
</g>
<!-- &#45;26&#45;&gt;1 -->
<g id="edge101" class="edge"><title>&#45;26&#45;&gt;1</title>
<path fill="none" stroke="red" stroke-width="0.128264" d="M734.001,-68.2966C736.799,-67.3565 739.723,-66.443 742.5,-65.6985 824.671,-43.6659 850.769,-59.3719 930.5,-29.6985 931.368,-29.3755 932.241,-29.0227 933.114,-28.6466"/>
<polygon fill="red" stroke="red" stroke-width="0.128264" points="934.875,-31.6767 942.184,-24.0064 931.687,-25.4448 934.875,-31.6767"/>
</g>
<!-- &#45;26&#45;&gt;2 -->
<g id="edge102" class="edge"><title>&#45;26&#45;&gt;2</title>
<path fill="none" stroke="red" stroke-width="0.175563" stroke-dasharray="1,5" d="M734.113,-67.6169C758.305,-57.5486 806.858,-37.3418 835.627,-25.3687"/>
<polygon fill="red" stroke="red" stroke-width="0.175563" points="837.018,-28.5809 844.905,-21.5072 834.328,-22.1183 837.018,-28.5809"/>
</g>
<!-- &#45;26&#45;&gt;3 -->
<g id="edge103" class="edge"><title>&#45;26&#45;&gt;3</title>
<path fill="none" stroke="green" stroke-width="0.174761" d="M734.475,-68.0474C737.123,-67.1753 739.874,-66.3497 742.5,-65.6985 845.484,-40.1629 878.379,-64.8195 978.5,-29.6985 979.374,-29.392 980.252,-29.0532 981.129,-28.6888"/>
<polygon fill="green" stroke="green" stroke-width="0.174761" points="982.867,-31.7322 990.219,-24.1037 979.714,-25.4822 982.867,-31.7322"/>
</g>
<!-- &#45;27 -->
<g id="node27" class="node"><title>&#45;27</title>
<polygon fill="lightgray" stroke="black" points="781,-83.6985 752,-83.6985 752,-65.6985 781,-65.6985 781,-83.6985"/>
<text text-anchor="middle" x="766.5" y="-72.4985" font-family="Times New Roman,serif" font-size="9.00">&#45;27</text>
</g>
<!-- &#45;27&#45;&gt;0 -->
<g id="edge104" class="edge"><title>&#45;27&#45;&gt;0</title>
<path fill="none" stroke="green" stroke-width="0.452644" d="M781.122,-68.4852C807.909,-58.8798 863.818,-38.5611 882.5,-29.6985 883.337,-29.3016 884.183,-28.886 885.033,-28.4569"/>
<polygon fill="green" stroke="green" stroke-width="0.452644" points="886.894,-31.4288 894,-23.5698 883.544,-25.2825 886.894,-31.4288"/>
</g>
<!-- &#45;27&#45;&gt;1 -->
<g id="edge105" class="edge"><title>&#45;27&#45;&gt;1</title>
<path fill="none" stroke="red" stroke-width="0.103478" d="M781.04,-68.4325C783.834,-67.4799 786.747,-66.527 789.5,-65.6985 851.433,-47.0579 870.598,-54.089 930.5,-29.6985 931.358,-29.3493 932.222,-28.9742 933.087,-28.5793"/>
<polygon fill="red" stroke="red" stroke-width="0.103478" points="934.886,-31.5885 942.124,-23.8515 931.641,-25.3861 934.886,-31.5885"/>
</g>
<!-- &#45;27&#45;&gt;2 -->
<g id="edge106" class="edge"><title>&#45;27&#45;&gt;2</title>
<path fill="none" stroke="red" stroke-width="0.197664" d="M779.292,-65.6548C794.344,-56.1902 819.553,-40.3388 837.487,-29.0619"/>
<polygon fill="red" stroke="red" stroke-width="0.197664" points="839.508,-31.9258 846.11,-23.6398 835.782,-26 839.508,-31.9258"/>
</g>
<!-- &#45;27&#45;&gt;3 -->
<g id="edge107" class="edge"><title>&#45;27&#45;&gt;3</title>
<path fill="none" stroke="red" stroke-width="0.41504" d="M781.001,-68.2944C783.798,-67.3545 786.723,-66.4417 789.5,-65.6985 872.104,-43.5933 898.345,-59.485 978.5,-29.6985 979.368,-29.3759 980.241,-29.0235 981.114,-28.6477"/>
<polygon fill="red" stroke="red" stroke-width="0.41504" points="982.875,-31.6781 990.185,-24.0089 979.688,-25.4458 982.875,-31.6781"/>
</g>
<!-- &#45;28 -->
<g id="node28" class="node"><title>&#45;28</title>
<polygon fill="lightgray" stroke="black" points="828,-83.6985 799,-83.6985 799,-65.6985 828,-65.6985 828,-83.6985"/>
<text text-anchor="middle" x="813.5" y="-72.4985" font-family="Times New Roman,serif" font-size="9.00">&#45;28</text>
</g>
<!-- &#45;28&#45;&gt;0 -->
<g id="edge108" class="edge"><title>&#45;28&#45;&gt;0</title>
<path fill="none" stroke="green" stroke-width="0.177351" d="M826.431,-65.6548C841.732,-56.1374 867.415,-40.1615 885.562,-28.8733"/>
<polygon fill="green" stroke="green" stroke-width="0.177351" points="887.628,-31.7105 894.27,-23.4566 883.93,-25.7666 887.628,-31.7105"/>
</g>
<!-- &#45;28&#45;&gt;1 -->
<g id="edge109" class="edge"><title>&#45;28&#45;&gt;1</title>
<path fill="none" stroke="red" stroke-width="0.10599" stroke-dasharray="1,5" d="M828.25,-68.4928C855.27,-58.8999 911.665,-38.6013 930.5,-29.6985 931.337,-29.3028 932.184,-28.8882 933.035,-28.46"/>
<polygon fill="red" stroke="red" stroke-width="0.10599" points="934.894,-31.4328 942.003,-23.5768 931.547,-25.2851 934.894,-31.4328"/>
</g>
<!-- &#45;28&#45;&gt;2 -->
<g id="edge110" class="edge"><title>&#45;28&#45;&gt;2</title>
<path fill="none" stroke="red" stroke-width="0.158157" d="M819.757,-65.6548C825.87,-57.7964 835.408,-45.5348 843.49,-35.1446"/>
<polygon fill="red" stroke="red" stroke-width="0.158157" points="846.453,-37.0367 849.83,-26.9946 840.928,-32.7387 846.453,-37.0367"/>
</g>
<!-- &#45;28&#45;&gt;3 -->
<g id="edge111" class="edge"><title>&#45;28&#45;&gt;3</title>
<path fill="none" stroke="green" stroke-width="0.292102" d="M828.039,-68.4288C830.833,-67.4765 833.746,-66.5247 836.5,-65.6985 898.861,-46.9864 918.179,-54.2005 978.5,-29.6985 979.358,-29.35 980.223,-28.9756 981.088,-28.5812"/>
<polygon fill="green" stroke="green" stroke-width="0.292102" points="982.885,-31.591 990.125,-23.8558 979.642,-25.3877 982.885,-31.591"/>
</g>
<!-- &#45;29 -->
<g id="node29" class="node"><title>&#45;29</title>
<polygon fill="lightgray" stroke="black" points="875,-83.6985 846,-83.6985 846,-65.6985 875,-65.6985 875,-83.6985"/>
<text text-anchor="middle" x="860.5" y="-72.4985" font-family="Times New Roman,serif" font-size="9.00">&#45;29</text>
</g>
<!-- &#45;29&#45;&gt;0 -->
<g id="edge112" class="edge"><title>&#45;29&#45;&gt;0</title>
<path fill="none" stroke="green" stroke-width="0.314533" d="M866.896,-65.6548C873.207,-57.7178 883.09,-45.2891 891.404,-34.8334"/>
<polygon fill="green" stroke="green" stroke-width="0.314533" points="894.153,-37.0001 897.638,-26.9946 888.674,-32.6433 894.153,-37.0001"/>
</g>
<!-- &#45;29&#45;&gt;1 -->
<g id="edge113" class="edge"><title>&#45;29&#45;&gt;1</title>
<path fill="none" stroke="green" stroke-width="0.192003" d="M873.57,-65.6548C889.106,-56.0937 915.233,-40.0148 933.589,-28.7182"/>
<polygon fill="green" stroke="green" stroke-width="0.192003" points="935.457,-31.6786 942.139,-23.4566 931.788,-25.7171 935.457,-31.6786"/>
</g>
<!-- &#45;29&#45;&gt;2 -->
<g id="edge114" class="edge"><title>&#45;29&#45;&gt;2</title>
<path fill="none" stroke="green" stroke-width="0.385521" d="M860.222,-65.6548C859.994,-59.0498 859.658,-49.3344 859.343,-40.2339"/>
<polygon fill="green" stroke="green" stroke-width="0.385521" points="862.835,-39.9294 858.991,-30.0563 855.839,-40.1713 862.835,-39.9294"/>
</g>
<!-- &#45;29&#45;&gt;3 -->
<g id="edge115" class="edge"><title>&#45;29&#45;&gt;3</title>
<path fill="none" stroke="green" stroke-width="0.195357" d="M875.377,-68.5003C902.631,-58.92 959.511,-38.6414 978.5,-29.6985 979.338,-29.3039 980.185,-28.8904 981.036,-28.463"/>
<polygon fill="green" stroke="green" stroke-width="0.195357" points="982.894,-31.4367 990.006,-23.5837 979.549,-25.2876 982.894,-31.4367"/>
</g>
<!-- &#45;30 -->
<g id="node30" class="node"><title>&#45;30</title>
<polygon fill="lightgray" stroke="black" points="922,-83.6985 893,-83.6985 893,-65.6985 922,-65.6985 922,-83.6985"/>
<text text-anchor="middle" x="907.5" y="-72.4985" font-family="Times New Roman,serif" font-size="9.00">&#45;30</text>
</g>
<!-- &#45;30&#45;&gt;0 -->
<g id="edge116" class="edge"><title>&#45;30&#45;&gt;0</title>
<path fill="none" stroke="green" stroke-width="0.30106" d="M907.361,-65.6548C907.247,-59.0498 907.079,-49.3344 906.922,-40.2339"/>
<polygon fill="green" stroke="green" stroke-width="0.30106" points="910.418,-39.9943 906.746,-30.0563 903.419,-40.1153 910.418,-39.9943"/>
</g>
<!-- &#45;30&#45;&gt;1 -->
<g id="edge117" class="edge"><title>&#45;30&#45;&gt;1</title>
<path fill="none" stroke="red" stroke-width="0.185923" d="M914.035,-65.6548C920.484,-57.7178 930.581,-45.2891 939.076,-34.8334"/>
<polygon fill="red" stroke="red" stroke-width="0.185923" points="941.856,-36.9629 945.445,-26.9946 936.423,-32.5489 941.856,-36.9629"/>
</g>
<!-- &#45;30&#45;&gt;2 -->
<g id="edge118" class="edge"><title>&#45;30&#45;&gt;2</title>
<path fill="none" stroke="red" stroke-width="0.291287" d="M900.687,-65.6548C893.964,-57.7178 883.436,-45.2891 874.58,-34.8334"/>
<polygon fill="red" stroke="red" stroke-width="0.291287" points="877.074,-32.363 867.94,-26.9946 871.733,-36.8874 877.074,-32.363"/>
</g>
<!-- &#45;30&#45;&gt;3 -->
<g id="edge119" class="edge"><title>&#45;30&#45;&gt;3</title>
<path fill="none" stroke="red" stroke-width="0.16631" d="M920.709,-65.6548C936.411,-56.0937 962.815,-40.0148 981.367,-28.7182"/>
<polygon fill="red" stroke="red" stroke-width="0.16631" points="983.286,-31.647 990.007,-23.4566 979.646,-25.6683 983.286,-31.647"/>
</g>
<!-- &#45;31 -->
<g id="node31" class="node"><title>&#45;31</title>
<polygon fill="lightgray" stroke="black" points="969,-83.6985 940,-83.6985 940,-65.6985 969,-65.6985 969,-83.6985"/>
<text text-anchor="middle" x="954.5" y="-72.4985" font-family="Times New Roman,serif" font-size="9.00">&#45;31</text>
</g>
<!-- &#45;31&#45;&gt;0 -->
<g id="edge120" class="edge"><title>&#45;31&#45;&gt;0</title>
<path fill="none" stroke="red" stroke-width="0.44197" d="M947.826,-65.6548C941.24,-57.7178 930.928,-45.2891 922.252,-34.8334"/>
<polygon fill="red" stroke="red" stroke-width="0.44197" points="924.827,-32.4555 915.748,-26.9946 919.44,-36.9253 924.827,-32.4555"/>
</g>
<!-- &#45;31&#45;&gt;1 -->
<g id="edge121" class="edge"><title>&#45;31&#45;&gt;1</title>
<path fill="none" stroke="red" stroke-width="0.400517" d="M954.5,-65.6548C954.5,-59.0498 954.5,-49.3344 954.5,-40.2339"/>
<polygon fill="red" stroke="red" stroke-width="0.400517" points="958,-40.0563 954.5,-30.0563 951,-40.0564 958,-40.0563"/>
</g>
<!-- &#45;31&#45;&gt;2 -->
<g id="edge122" class="edge"><title>&#45;31&#45;&gt;2</title>
<path fill="none" stroke="green" stroke-width="0.448275" d="M941.152,-65.6548C925.197,-56.0406 898.306,-39.8359 879.544,-28.5304"/>
<polygon fill="green" stroke="green" stroke-width="0.448275" points="881.195,-25.4387 870.823,-23.2752 877.582,-31.4343 881.195,-25.4387"/>
</g>
<!-- &#45;31&#45;&gt;3 -->
<g id="edge123" class="edge"><title>&#45;31&#45;&gt;3</title>
<path fill="none" stroke="red" stroke-width="0.437589" d="M961.174,-65.6548C967.76,-57.7178 978.072,-45.2891 986.748,-34.8334"/>
<polygon fill="red" stroke="red" stroke-width="0.437589" points="989.56,-36.9253 993.252,-26.9946 984.173,-32.4555 989.56,-36.9253"/>
</g>
<!-- &#45;32 -->
<g id="node32" class="node"><title>&#45;32</title>
<polygon fill="lightgray" stroke="black" points="1016,-83.6985 987,-83.6985 987,-65.6985 1016,-65.6985 1016,-83.6985"/>
<text text-anchor="middle" x="1001.5" y="-72.4985" font-family="Times New Roman,serif" font-size="9.00">&#45;32</text>
</g>
<!-- &#45;32&#45;&gt;0 -->
<g id="edge124" class="edge"><title>&#45;32&#45;&gt;0</title>
<path fill="none" stroke="red" stroke-width="0.248476" d="M988.291,-65.6548C972.589,-56.0937 946.185,-40.0148 927.633,-28.7182"/>
<polygon fill="red" stroke="red" stroke-width="0.248476" points="929.354,-25.6683 918.993,-23.4566 925.714,-31.647 929.354,-25.6683"/>
</g>
<!-- &#45;32&#45;&gt;1 -->
<g id="edge125" class="edge"><title>&#45;32&#45;&gt;1</title>
<path fill="none" stroke="red" stroke-width="0.136769" d="M994.965,-65.6548C988.516,-57.7178 978.419,-45.2891 969.924,-34.8334"/>
<polygon fill="red" stroke="red" stroke-width="0.136769" points="972.577,-32.5489 963.555,-26.9946 967.144,-36.9629 972.577,-32.5489"/>
</g>
<!-- &#45;32&#45;&gt;2 -->
<g id="edge126" class="edge"><title>&#45;32&#45;&gt;2</title>
<path fill="none" stroke="red" stroke-width="0.298012" d="M986.923,-68.6565C959.607,-59.1514 901.742,-38.7284 882.5,-29.6985 881.662,-29.3051 880.814,-28.8925 879.962,-28.4659"/>
<polygon fill="red" stroke="red" stroke-width="0.298012" points="881.448,-25.29 870.991,-23.5906 878.106,-31.4406 881.448,-25.29"/>
</g>
<!-- &#45;32&#45;&gt;3 -->
<g id="edge127" class="edge"><title>&#45;32&#45;&gt;3</title>
<path fill="none" stroke="red" stroke-width="0.240422" d="M1001.64,-65.6548C1001.75,-59.0498 1001.92,-49.3344 1002.08,-40.2339"/>
<polygon fill="red" stroke="red" stroke-width="0.240422" points="1005.58,-40.1153 1002.25,-30.0563 998.582,-39.9943 1005.58,-40.1153"/>
</g>
<!-- &#45;33 -->
<g id="node33" class="node"><title>&#45;33</title>
<polygon fill="lightgray" stroke="black" points="1063,-83.6985 1034,-83.6985 1034,-65.6985 1063,-65.6985 1063,-83.6985"/>
<text text-anchor="middle" x="1048.5" y="-72.4985" font-family="Times New Roman,serif" font-size="9.00">&#45;33</text>
</g>
<!-- &#45;33&#45;&gt;0 -->
<g id="edge128" class="edge"><title>&#45;33&#45;&gt;0</title>
<path fill="none" stroke="red" stroke-width="0.316114" d="M1033.62,-68.5003C1006.37,-58.92 949.489,-38.6414 930.5,-29.6985 929.662,-29.3039 928.815,-28.8904 927.964,-28.463"/>
<polygon fill="red" stroke="red" stroke-width="0.316114" points="929.451,-25.2876 918.994,-23.5837 926.106,-31.4367 929.451,-25.2876"/>
</g>
<!-- &#45;33&#45;&gt;1 -->
<g id="edge129" class="edge"><title>&#45;33&#45;&gt;1</title>
<path fill="none" stroke="green" stroke-width="0.185361" d="M1035.43,-65.6548C1019.89,-56.0937 993.767,-40.0148 975.411,-28.7182"/>
<polygon fill="green" stroke="green" stroke-width="0.185361" points="977.212,-25.7171 966.861,-23.4566 973.543,-31.6786 977.212,-25.7171"/>
</g>
<!-- &#45;33&#45;&gt;2 -->
<g id="edge130" class="edge"><title>&#45;33&#45;&gt;2</title>
<path fill="none" stroke="red" stroke-width="0.152387" d="M1033.96,-68.425C1031.17,-67.4731 1028.25,-66.5224 1025.5,-65.6985 962.711,-46.9149 943.241,-54.3121 882.5,-29.6985 881.642,-29.3507 880.777,-28.9769 879.911,-28.583"/>
<polygon fill="red" stroke="red" stroke-width="0.152387" points="881.357,-25.3893 870.873,-23.86 878.115,-31.5934 881.357,-25.3893"/>
</g>
<!-- &#45;33&#45;&gt;3 -->
<g id="edge131" class="edge"><title>&#45;33&#45;&gt;3</title>
<path fill="none" stroke="green" stroke-width="0.223067" d="M1042.1,-65.6548C1035.79,-57.7178 1025.91,-45.2891 1017.6,-34.8334"/>
<polygon fill="green" stroke="green" stroke-width="0.223067" points="1020.33,-32.6433 1011.36,-26.9946 1014.85,-37.0001 1020.33,-32.6433"/>
</g>
<!-- &#45;34 -->
<g id="node34" class="node"><title>&#45;34</title>
<polygon fill="lightgray" stroke="black" points="1110,-83.6985 1081,-83.6985 1081,-65.6985 1110,-65.6985 1110,-83.6985"/>
<text text-anchor="middle" x="1095.5" y="-72.4985" font-family="Times New Roman,serif" font-size="9.00">&#45;34</text>
</g>
<!-- &#45;34&#45;&gt;0 -->
<g id="edge132" class="edge"><title>&#45;34&#45;&gt;0</title>
<path fill="none" stroke="green" stroke-width="0.241585" d="M1080.96,-68.4288C1078.17,-67.4765 1075.25,-66.5247 1072.5,-65.6985 1010.14,-46.9864 990.821,-54.2005 930.5,-29.6985 929.642,-29.35 928.777,-28.9756 927.912,-28.5812"/>
<polygon fill="green" stroke="green" stroke-width="0.241585" points="929.358,-25.3877 918.875,-23.8558 926.115,-31.591 929.358,-25.3877"/>
</g>
<!-- &#45;34&#45;&gt;1 -->
<g id="edge133" class="edge"><title>&#45;34&#45;&gt;1</title>
<path fill="none" stroke="green" stroke-width="0.352976" stroke-dasharray="1,5" d="M1080.75,-68.4928C1053.73,-58.8999 997.335,-38.6013 978.5,-29.6985 977.663,-29.3028 976.816,-28.8882 975.965,-28.46"/>
<polygon fill="green" stroke="green" stroke-width="0.352976" points="977.453,-25.2851 966.997,-23.5768 974.106,-31.4328 977.453,-25.2851"/>
</g>
<!-- &#45;34&#45;&gt;2 -->
<g id="edge134" class="edge"><title>&#45;34&#45;&gt;2</title>
<path fill="none" stroke="green" stroke-width="0.188902" d="M1080.51,-68.1267C1077.86,-67.2458 1075.11,-66.3967 1072.5,-65.6985 989.464,-43.5206 963.078,-59.5981 882.5,-29.6985 881.632,-29.3763 880.758,-29.0243 879.886,-28.6487"/>
<polygon fill="green" stroke="green" stroke-width="0.188902" points="881.311,-25.4467 870.814,-24.0114 878.125,-31.6796 881.311,-25.4467"/>
</g>
<!-- &#45;34&#45;&gt;3 -->
<g id="edge135" class="edge"><title>&#45;34&#45;&gt;3</title>
<path fill="none" stroke="green" stroke-width="0.321251" d="M1082.57,-65.6548C1067.27,-56.1374 1041.59,-40.1615 1023.44,-28.8733"/>
<polygon fill="green" stroke="green" stroke-width="0.321251" points="1025.07,-25.7666 1014.73,-23.4566 1021.37,-31.7105 1025.07,-25.7666"/>
</g>
<!-- &#45;35 -->
<g id="node35" class="node"><title>&#45;35</title>
<polygon fill="lightgray" stroke="black" points="1157,-83.6985 1128,-83.6985 1128,-65.6985 1157,-65.6985 1157,-83.6985"/>
<text text-anchor="middle" x="1142.5" y="-72.4985" font-family="Times New Roman,serif" font-size="9.00">&#45;35</text>
</g>
<!-- &#45;35&#45;&gt;0 -->
<g id="edge136" class="edge"><title>&#45;35&#45;&gt;0</title>
<path fill="none" stroke="green" stroke-width="0.171799" d="M1128,-68.2944C1125.2,-67.3545 1122.28,-66.4417 1119.5,-65.6985 1036.9,-43.5933 1010.65,-59.485 930.5,-29.6985 929.632,-29.3759 928.759,-29.0235 927.886,-28.6477"/>
<polygon fill="green" stroke="green" stroke-width="0.171799" points="929.312,-25.4458 918.815,-24.0089 926.125,-31.6781 929.312,-25.4458"/>
</g>
<!-- &#45;35&#45;&gt;1 -->
<g id="edge137" class="edge"><title>&#45;35&#45;&gt;1</title>
<path fill="none" stroke="green" stroke-width="0.420826" d="M1127.96,-68.4325C1125.17,-67.4799 1122.25,-66.527 1119.5,-65.6985 1057.57,-47.0579 1038.4,-54.089 978.5,-29.6985 977.642,-29.3493 976.778,-28.9742 975.913,-28.5793"/>
<polygon fill="green" stroke="green" stroke-width="0.420826" points="977.359,-25.3861 966.876,-23.8515 974.114,-31.5885 977.359,-25.3861"/>
</g>
<!-- &#45;35&#45;&gt;2 -->
<g id="edge138" class="edge"><title>&#45;35&#45;&gt;2</title>
<path fill="none" stroke="green" stroke-width="0.293612" d="M1127.53,-68.046C1124.88,-67.174 1122.13,-66.3488 1119.5,-65.6985 1016.08,-40.0896 983.047,-64.9333 882.5,-29.6985 881.626,-29.3922 880.748,-29.0537 879.871,-28.6895"/>
<polygon fill="green" stroke="green" stroke-width="0.293612" points="881.285,-25.4829 870.78,-24.1053 878.133,-31.7331 881.285,-25.4829"/>
</g>
<!-- &#45;35&#45;&gt;3 -->
<g id="edge139" class="edge"><title>&#45;35&#45;&gt;3</title>
<path fill="none" stroke="green" stroke-width="0.181121" d="M1127.78,-67.6169C1103.42,-57.5486 1054.51,-37.3418 1025.54,-25.3687"/>
<polygon fill="green" stroke="green" stroke-width="0.181121" points="1026.77,-22.0914 1016.19,-21.5072 1024.1,-28.5609 1026.77,-22.0914"/>
</g>
<!-- &#45;36 -->
<g id="node36" class="node"><title>&#45;36</title>
<polygon fill="lightgray" stroke="black" points="1204,-83.6985 1175,-83.6985 1175,-65.6985 1204,-65.6985 1204,-83.6985"/>
<text text-anchor="middle" x="1189.5" y="-72.4985" font-family="Times New Roman,serif" font-size="9.00">&#45;36</text>
</g>
<!-- &#45;36&#45;&gt;0 -->
<g id="edge140" class="edge"><title>&#45;36&#45;&gt;0</title>
<path fill="none" stroke="green" stroke-width="0.173194" d="M1174.53,-68.0474C1171.88,-67.1753 1169.13,-66.3497 1166.5,-65.6985 1063.52,-40.1629 1030.62,-64.8195 930.5,-29.6985 929.626,-29.392 928.748,-29.0532 927.871,-28.6888"/>
<polygon fill="green" stroke="green" stroke-width="0.173194" points="929.286,-25.4822 918.781,-24.1037 926.133,-31.7322 929.286,-25.4822"/>
</g>
<!-- &#45;36&#45;&gt;1 -->
<g id="edge141" class="edge"><title>&#45;36&#45;&gt;1</title>
<path fill="none" stroke="red" stroke-width="0.133286" d="M1175,-68.2966C1172.2,-67.3565 1169.28,-66.443 1166.5,-65.6985 1084.33,-43.6659 1058.23,-59.3719 978.5,-29.6985 977.632,-29.3755 976.759,-29.0227 975.886,-28.6466"/>
<polygon fill="red" stroke="red" stroke-width="0.133286" points="977.313,-25.4448 966.816,-24.0064 974.125,-31.6767 977.313,-25.4448"/>
</g>
<!-- &#45;36&#45;&gt;2 -->
<g id="edge142" class="edge"><title>&#45;36&#45;&gt;2</title>
<path fill="none" stroke="green" stroke-width="0.547175" d="M1174.54,-67.9912C1171.89,-67.1254 1169.13,-66.3164 1166.5,-65.6985 1042.63,-36.6413 1003.08,-70.2925 882.5,-29.6985 881.622,-29.403 880.741,-29.0737 879.861,-28.7173"/>
<polygon fill="green" stroke="green" stroke-width="0.547175" points="881.268,-25.5076 870.758,-24.1691 878.14,-31.7696 881.268,-25.5076"/>
</g>
<!-- &#45;36&#45;&gt;3 -->
<g id="edge143" class="edge"><title>&#45;36&#45;&gt;3</title>
<path fill="none" stroke="green" stroke-width="0.392516" d="M1174.93,-68.5326C1172.14,-67.5708 1169.23,-66.5889 1166.5,-65.6985 1116.93,-49.5505 1058.4,-32.1579 1026.39,-22.787"/>
<polygon fill="green" stroke="green" stroke-width="0.392516" points="1027.18,-19.3722 1016.6,-19.9299 1025.22,-26.0918 1027.18,-19.3722"/>
</g>
<!-- &#45;37 -->
<g id="node37" class="node"><title>&#45;37</title>
<polygon fill="lightgray" stroke="black" points="1251,-83.6985 1222,-83.6985 1222,-65.6985 1251,-65.6985 1251,-83.6985"/>
<text text-anchor="middle" x="1236.5" y="-72.4985" font-family="Times New Roman,serif" font-size="9.00">&#45;37</text>
</g>
<!-- &#45;37&#45;&gt;0 -->
<g id="edge144" class="edge"><title>&#45;37&#45;&gt;0</title>
<path fill="none" stroke="red" stroke-width="0.569646" d="M1221.54,-67.9922C1218.89,-67.1263 1216.13,-66.317 1213.5,-65.6985 1090.07,-36.7148 1050.66,-70.1783 930.5,-29.6985 929.622,-29.4028 928.741,-29.0733 927.862,-28.7168"/>
<polygon fill="red" stroke="red" stroke-width="0.569646" points="929.269,-25.5072 918.759,-24.1679 926.139,-31.7689 929.269,-25.5072"/>
</g>
<!-- &#45;37&#45;&gt;1 -->
<g id="edge145" class="edge"><title>&#45;37&#45;&gt;1</title>
<path fill="none" stroke="red" stroke-width="0.237661" d="M1221.53,-68.0488C1218.88,-67.1765 1216.13,-66.3505 1213.5,-65.6985 1110.95,-40.2361 1078.2,-64.7057 978.5,-29.6985 977.626,-29.3917 976.748,-29.0527 975.871,-28.6881"/>
<polygon fill="red" stroke="red" stroke-width="0.237661" points="977.286,-25.4816 966.781,-24.102 974.133,-31.7313 977.286,-25.4816"/>
</g>
<!-- &#45;37&#45;&gt;2 -->
<g id="edge146" class="edge"><title>&#45;37&#45;&gt;2</title>
<path fill="none" stroke="green" stroke-width="0.110326" d="M1221.55,-67.9517C1218.9,-67.0903 1216.14,-66.293 1213.5,-65.6985 1069.14,-33.1834 1023.16,-75.665 882.5,-29.6985 881.62,-29.4108 880.736,-29.0881 879.855,-28.7373"/>
<polygon fill="green" stroke="green" stroke-width="0.110326" points="881.256,-25.5256 870.743,-24.2151 878.145,-31.7959 881.256,-25.5256"/>
</g>
<!-- &#45;37&#45;&gt;3 -->
<g id="edge147" class="edge"><title>&#45;37&#45;&gt;3</title>
<path fill="none" stroke="green" stroke-width="0.322284" d="M1221.97,-68.3924C1219.18,-67.4435 1216.26,-66.5023 1213.5,-65.6985 1146.77,-46.2671 1066.54,-28.9338 1026.99,-20.7803"/>
<polygon fill="green" stroke="green" stroke-width="0.322284" points="1027.46,-17.3037 1016.96,-18.7299 1026.06,-24.1619 1027.46,-17.3037"/>
</g>
<!-- &#45;38 -->
<g id="node38" class="node"><title>&#45;38</title>
<polygon fill="lightgray" stroke="black" points="1298,-83.6985 1269,-83.6985 1269,-65.6985 1298,-65.6985 1298,-83.6985"/>
<text text-anchor="middle" x="1283.5" y="-72.4985" font-family="Times New Roman,serif" font-size="9.00">&#45;38</text>
</g>
<!-- &#45;38&#45;&gt;0 -->
<g id="edge148" class="edge"><title>&#45;38&#45;&gt;0</title>
<path fill="none" stroke="red" stroke-width="0.221378" d="M1268.55,-67.9525C1265.9,-67.0909 1263.14,-66.2934 1260.5,-65.6985 1116.57,-33.257 1070.73,-75.5506 930.5,-29.6985 929.62,-29.4107 928.736,-29.0879 927.855,-28.7369"/>
<polygon fill="red" stroke="red" stroke-width="0.221378" points="929.257,-25.5253 918.743,-24.2143 926.144,-31.7954 929.257,-25.5253"/>
</g>
<!-- &#45;38&#45;&gt;1 -->
<g id="edge149" class="edge"><title>&#45;38&#45;&gt;1</title>
<path fill="none" stroke="green" stroke-width="0.230661" d="M1268.54,-67.9932C1265.89,-67.1271 1263.13,-66.3176 1260.5,-65.6985 1137.5,-36.7883 1098.23,-70.0641 978.5,-29.6985 977.622,-29.4026 976.741,-29.073 975.862,-28.7163"/>
<polygon fill="green" stroke="green" stroke-width="0.230661" points="977.269,-25.5067 966.759,-24.1668 974.139,-31.7682 977.269,-25.5067"/>
</g>
<!-- &#45;38&#45;&gt;2 -->
<g id="edge150" class="edge"><title>&#45;38&#45;&gt;2</title>
<path fill="none" stroke="green" stroke-width="0.42754" d="M1268.55,-67.9219C1265.9,-67.0638 1263.14,-66.2753 1260.5,-65.6985 1095.62,-29.7196 1043.26,-81.0457 882.5,-29.6985 881.446,-29.3618 880.388,-28.9739 879.334,-28.5466"/>
<polygon fill="green" stroke="green" stroke-width="0.42754" points="880.743,-25.3373 870.238,-23.9602 877.592,-31.5877 880.743,-25.3373"/>
</g>
<!-- &#45;38&#45;&gt;3 -->
<g id="edge151" class="edge"><title>&#45;38&#45;&gt;3</title>
<path fill="none" stroke="red" stroke-width="0.132538" d="M1269,-68.3003C1266.2,-67.3599 1263.28,-66.4453 1260.5,-65.6985 1176.08,-42.9868 1073.47,-26.344 1027.22,-19.411"/>
<polygon fill="red" stroke="red" stroke-width="0.132538" points="1027.62,-15.9328 1017.22,-17.9327 1026.6,-22.8575 1027.62,-15.9328"/>
</g>
<!-- &#45;39 -->
<g id="node39" class="node"><title>&#45;39</title>
<polygon fill="lightgray" stroke="black" points="1345,-83.6985 1316,-83.6985 1316,-65.6985 1345,-65.6985 1345,-83.6985"/>
<text text-anchor="middle" x="1330.5" y="-72.4985" font-family="Times New Roman,serif" font-size="9.00">&#45;39</text>
</g>
<!-- &#45;39&#45;&gt;0 -->
<g id="edge152" class="edge"><title>&#45;39&#45;&gt;0</title>
<path fill="none" stroke="green" stroke-width="0.264702" d="M1315.55,-67.9225C1312.9,-67.0643 1310.14,-66.2757 1307.5,-65.6985 1143.06,-29.7934 1090.83,-80.9312 930.5,-29.6985 929.446,-29.3617 928.388,-28.9736 927.334,-28.5463"/>
<polygon fill="green" stroke="green" stroke-width="0.264702" points="928.743,-25.337 918.239,-23.9596 925.592,-31.5873 928.743,-25.337"/>
</g>
<!-- &#45;39&#45;&gt;1 -->
<g id="edge153" class="edge"><title>&#45;39&#45;&gt;1</title>
<path fill="none" stroke="red" stroke-width="0.146976" d="M1315.55,-67.9532C1312.9,-67.0916 1310.14,-66.2939 1307.5,-65.6985 1164.01,-33.3306 1118.3,-75.4362 978.5,-29.6985 977.62,-29.4105 976.736,-29.0876 975.855,-28.7365"/>
<polygon fill="red" stroke="red" stroke-width="0.146976" points="977.257,-25.525 966.744,-24.2134 974.144,-31.7949 977.257,-25.525"/>
</g>
<!-- &#45;39&#45;&gt;2 -->
<g id="edge154" class="edge"><title>&#45;39&#45;&gt;2</title>
<path fill="none" stroke="red" stroke-width="0.276536" d="M1315.56,-67.8986C1312.91,-67.043 1310.15,-66.2615 1307.5,-65.6985 1122.08,-26.2521 1063.38,-86.4319 882.5,-29.6985 881.444,-29.3673 880.385,-28.9839 879.33,-28.5603"/>
<polygon fill="red" stroke="red" stroke-width="0.276536" points="880.737,-25.3501 870.23,-23.9874 877.594,-31.6048 880.737,-25.3501"/>
</g>
<!-- &#45;39&#45;&gt;3 -->
<g id="edge155" class="edge"><title>&#45;39&#45;&gt;3</title>
<path fill="none" stroke="green" stroke-width="0.216877" d="M1315.52,-68.0709C1312.87,-67.1962 1310.12,-66.3636 1307.5,-65.6985 1205.05,-39.7166 1079.68,-24.2039 1027.32,-18.4328"/>
<polygon fill="green" stroke="green" stroke-width="0.216877" points="1027.61,-14.9436 1017.29,-17.3489 1026.85,-21.9031 1027.61,-14.9436"/>
</g>
<!-- &#45;40 -->
<g id="node40" class="node"><title>&#45;40</title>
<polygon fill="lightgray" stroke="black" points="1392,-83.6985 1363,-83.6985 1363,-65.6985 1392,-65.6985 1392,-83.6985"/>
<text text-anchor="middle" x="1377.5" y="-72.4985" font-family="Times New Roman,serif" font-size="9.00">&#45;40</text>
</g>
<!-- &#45;40&#45;&gt;0 -->
<g id="edge156" class="edge"><title>&#45;40&#45;&gt;0</title>
<path fill="none" stroke="red" stroke-width="0.351265" d="M1362.56,-67.899C1359.91,-67.0434 1357.15,-66.2618 1354.5,-65.6985 1169.52,-26.3259 1110.95,-86.3172 930.5,-29.6985 929.444,-29.3672 928.385,-28.9837 927.33,-28.56"/>
<polygon fill="red" stroke="red" stroke-width="0.351265" points="928.737,-25.3498 918.23,-23.9869 925.593,-31.6045 928.737,-25.3498"/>
</g>
<!-- &#45;40&#45;&gt;1 -->
<g id="edge157" class="edge"><title>&#45;40&#45;&gt;1</title>
<path fill="none" stroke="red" stroke-width="0.417324" d="M1362.55,-67.923C1359.9,-67.0648 1357.14,-66.276 1354.5,-65.6985 1190.49,-29.8671 1138.4,-80.8167 978.5,-29.6985 977.446,-29.3616 976.388,-28.9734 975.335,-28.5459"/>
<polygon fill="red" stroke="red" stroke-width="0.417324" points="976.744,-25.3367 966.239,-23.9589 973.592,-31.5869 976.744,-25.3367"/>
</g>
<!-- &#45;40&#45;&gt;2 -->
<g id="edge158" class="edge"><title>&#45;40&#45;&gt;2</title>
<path fill="none" stroke="green" stroke-width="0.399963" d="M1362.56,-67.8799C1359.91,-67.0264 1357.15,-66.2504 1354.5,-65.6985 1148.54,-22.782 1083.51,-91.8217 882.5,-29.6985 881.443,-29.3718 880.382,-28.992 879.327,-28.5713"/>
<polygon fill="green" stroke="green" stroke-width="0.399963" points="880.731,-25.3604 870.223,-24.0092 877.595,-31.6185 880.731,-25.3604"/>
</g>
<!-- &#45;40&#45;&gt;3 -->
<g id="edge159" class="edge"><title>&#45;40&#45;&gt;3</title>
<path fill="none" stroke="red" stroke-width="0.14317" d="M1362.53,-68.0237C1359.88,-67.1542 1357.13,-66.3356 1354.5,-65.6985 1233.9,-36.4792 1085.63,-22.4094 1027.53,-17.7151"/>
<polygon fill="red" stroke="red" stroke-width="0.14317" points="1027.69,-14.2174 1017.45,-16.9228 1027.14,-21.1958 1027.69,-14.2174"/>
</g>
</g>
</svg>
