<?xml version="1.0" encoding="UTF-8" standalone="no"?>
<!DOCTYPE svg PUBLIC "-//W3C//DTD SVG 1.1//EN"
 "http://www.w3.org/Graphics/SVG/1.1/DTD/svg11.dtd">
<!-- Generated by graphviz version 2.38.0 (20140413.2041)
 -->
<!-- Title: %3 Pages: 1 -->
<svg width="1955pt" height="170pt"
 viewBox="0.00 0.00 1955.09 170.12" xmlns="http://www.w3.org/2000/svg" xmlns:xlink="http://www.w3.org/1999/xlink">
<g id="graph0" class="graph" transform="scale(1 1) rotate(0) translate(4 166.125)">
<title>%3</title>
<polygon fill="white" stroke="none" points="-4,4 -4,-166.125 1951.09,-166.125 1951.09,4 -4,4"/>
<!-- &#45;1 -->
<g id="node1" class="node"><title>&#45;1</title>
<polygon fill="lightgray" stroke="black" points="223.798,-95.9117 199.798,-95.9117 199.798,-77.9117 223.798,-77.9117 223.798,-95.9117"/>
<text text-anchor="middle" x="211.798" y="-84.7117" font-family="Times New Roman,serif" font-size="9.00">&#45;1</text>
</g>
<!-- 0 -->
<g id="node41" class="node"><title>0</title>
<ellipse fill="lightblue" stroke="black" cx="832.798" cy="-14.8492" rx="14.7" ry="14.7"/>
<text text-anchor="middle" x="832.798" y="-12.6492" font-family="Times New Roman,serif" font-size="9.00">0</text>
</g>
<!-- &#45;1&#45;&gt;0 -->
<g id="edge1" class="edge"><title>&#45;1&#45;&gt;0</title>
<path fill="none" stroke="red" stroke-width="0.20318" d="M217.872,-77.8063C221.646,-73.4201 226.896,-68.3668 232.798,-65.6985 337.912,-18.1762 707.809,-15.5441 807.75,-15.721"/>
<polygon fill="red" stroke="red" stroke-width="0.20318" points="807.813,-19.2211 817.823,-15.7505 807.833,-12.2211 807.813,-19.2211"/>
</g>
<!-- 1 -->
<g id="node42" class="node"><title>1</title>
<ellipse fill="lightblue" stroke="black" cx="880.798" cy="-14.8492" rx="14.7" ry="14.7"/>
<text text-anchor="middle" x="880.798" y="-12.6492" font-family="Times New Roman,serif" font-size="9.00">1</text>
</g>
<!-- &#45;1&#45;&gt;1 -->
<g id="edge2" class="edge"><title>&#45;1&#45;&gt;1</title>
<path fill="none" stroke="red" stroke-width="0.20073" stroke-dasharray="1,5" d="M217.847,-77.7503C221.613,-73.3454 226.863,-68.2921 232.798,-65.6985 360.075,-10.082 723.721,-69.4832 856.798,-29.6985 857.859,-29.3816 858.922,-29.0098 859.979,-28.5956"/>
<polygon fill="red" stroke="red" stroke-width="0.20073" points="861.7,-31.6489 869.09,-24.0574 858.579,-25.3832 861.7,-31.6489"/>
</g>
<!-- 2 -->
<g id="node43" class="node"><title>2</title>
<ellipse fill="lightblue" stroke="black" cx="1009.8" cy="-14.8492" rx="14.7" ry="14.7"/>
<text text-anchor="middle" x="1009.8" y="-12.6492" font-family="Times New Roman,serif" font-size="9.00">2</text>
</g>
<!-- &#45;1&#45;&gt;2 -->
<g id="edge3" class="edge"><title>&#45;1&#45;&gt;2</title>
<path fill="none" stroke="green" stroke-width="0.28385" d="M217.839,-77.7315C221.602,-73.3203 226.852,-68.267 232.798,-65.6985 382.105,-1.20261 803.524,-57.3465 963.798,-29.6985 971.198,-28.422 979.082,-26.3305 986.195,-24.1551"/>
<polygon fill="green" stroke="green" stroke-width="0.28385" points="987.491,-27.4142 995.918,-20.9929 985.326,-20.7574 987.491,-27.4142"/>
</g>
<!-- 3 -->
<g id="node44" class="node"><title>3</title>
<ellipse fill="lightblue" stroke="black" cx="939.798" cy="-14.8492" rx="14.7" ry="14.7"/>
<text text-anchor="middle" x="939.798" y="-12.6492" font-family="Times New Roman,serif" font-size="9.00">3</text>
</g>
<!-- &#45;1&#45;&gt;3 -->
<g id="edge4" class="edge"><title>&#45;1&#45;&gt;3</title>
<path fill="none" stroke="red" stroke-width="0.237969" d="M217.843,-77.7411C221.608,-73.3332 226.858,-68.2799 232.798,-65.6985 369.957,-6.09914 758.699,-61.6265 904.798,-29.6985 908.918,-28.7982 913.185,-27.4717 917.263,-25.9912"/>
<polygon fill="red" stroke="red" stroke-width="0.237969" points="918.847,-29.1267 926.819,-22.1485 916.235,-22.6321 918.847,-29.1267"/>
</g>
<!-- &#45;2 -->
<g id="node2" class="node"><title>&#45;2</title>
<polygon fill="lightgray" stroke="black" points="265.798,-95.9117 241.798,-95.9117 241.798,-77.9117 265.798,-77.9117 265.798,-95.9117"/>
<text text-anchor="middle" x="253.798" y="-84.7117" font-family="Times New Roman,serif" font-size="9.00">&#45;2</text>
</g>
<!-- &#45;2&#45;&gt;0 -->
<g id="edge5" class="edge"><title>&#45;2&#45;&gt;0</title>
<path fill="none" stroke="red" stroke-width="0.104182" d="M259.878,-77.8201C263.655,-73.4384 268.905,-68.3851 274.798,-65.6985 371.846,-21.46 712.151,-16.4337 807.687,-15.9015"/>
<polygon fill="red" stroke="red" stroke-width="0.104182" points="807.869,-19.4009 817.854,-15.8573 807.838,-12.4009 807.869,-19.4009"/>
</g>
<!-- &#45;2&#45;&gt;1 -->
<g id="edge6" class="edge"><title>&#45;2&#45;&gt;1</title>
<path fill="none" stroke="green" stroke-width="0.147376" d="M259.851,-77.7595C263.619,-73.3577 268.869,-68.3044 274.798,-65.6985 393.43,-13.5664 732.725,-67.0721 856.798,-29.6985 857.858,-29.3794 858.921,-29.0058 859.978,-28.5901"/>
<polygon fill="green" stroke="green" stroke-width="0.147376" points="861.701,-31.6421 869.087,-24.0466 858.576,-25.3781 861.701,-31.6421"/>
</g>
<!-- &#45;2&#45;&gt;2 -->
<g id="edge7" class="edge"><title>&#45;2&#45;&gt;2</title>
<path fill="none" stroke="red" stroke-width="0.186659" stroke-dasharray="1,5" d="M259.842,-77.7382C263.606,-73.3292 268.856,-68.2759 274.798,-65.6985 415.457,-4.68837 812.749,-55.9881 963.798,-29.6985 971.196,-28.411 979.08,-26.3161 986.193,-24.1411"/>
<polygon fill="red" stroke="red" stroke-width="0.186659" points="987.487,-27.4007 995.916,-20.9817 985.324,-20.7433 987.487,-27.4007"/>
</g>
<!-- &#45;2&#45;&gt;3 -->
<g id="edge8" class="edge"><title>&#45;2&#45;&gt;3</title>
<path fill="none" stroke="red" stroke-width="0.175675" d="M259.846,-77.749C263.612,-73.3437 268.862,-68.2904 274.798,-65.6985 403.31,-9.58421 767.857,-59.8808 904.798,-29.6985 908.917,-28.7908 913.183,-27.4608 917.26,-25.9789"/>
<polygon fill="red" stroke="red" stroke-width="0.175675" points="918.844,-29.1145 926.817,-22.1368 916.233,-22.6198 918.844,-29.1145"/>
</g>
<!-- &#45;3 -->
<g id="node3" class="node"><title>&#45;3</title>
<polygon fill="lightgray" stroke="black" points="307.798,-95.9117 283.798,-95.9117 283.798,-77.9117 307.798,-77.9117 307.798,-95.9117"/>
<text text-anchor="middle" x="295.798" y="-84.7117" font-family="Times New Roman,serif" font-size="9.00">&#45;3</text>
</g>
<!-- &#45;3&#45;&gt;0 -->
<g id="edge9" class="edge"><title>&#45;3&#45;&gt;0</title>
<path fill="none" stroke="red" stroke-width="0.33162" d="M301.885,-77.836C305.664,-73.4596 310.914,-68.4063 316.798,-65.6985 405.682,-24.7936 715.813,-17.4129 807.243,-16.1174"/>
<polygon fill="red" stroke="red" stroke-width="0.33162" points="807.556,-19.6137 817.51,-15.985 807.466,-12.6143 807.556,-19.6137"/>
</g>
<!-- &#45;3&#45;&gt;1 -->
<g id="edge10" class="edge"><title>&#45;3&#45;&gt;1</title>
<path fill="none" stroke="green" stroke-width="0.170369" d="M301.856,-77.7701C305.625,-73.3719 310.875,-68.3186 316.798,-65.6985 426.786,-17.05 741.726,-64.6614 856.798,-29.6985 857.857,-29.3768 858.919,-29.0012 859.976,-28.5838"/>
<polygon fill="green" stroke="green" stroke-width="0.170369" points="861.702,-31.6342 869.083,-24.0341 858.573,-25.3721 861.702,-31.6342"/>
</g>
<!-- &#45;3&#45;&gt;2 -->
<g id="edge11" class="edge"><title>&#45;3&#45;&gt;2</title>
<path fill="none" stroke="red" stroke-width="0.284689" d="M301.845,-77.7457C305.611,-73.3393 310.861,-68.286 316.798,-65.6985 448.81,-8.17365 821.973,-54.6299 963.798,-29.6985 971.194,-28.3985 979.077,-26.2999 986.19,-24.1253"/>
<polygon fill="red" stroke="red" stroke-width="0.284689" points="987.483,-27.3854 995.914,-20.969 985.322,-20.7274 987.483,-27.3854"/>
</g>
<!-- &#45;3&#45;&gt;3 -->
<g id="edge12" class="edge"><title>&#45;3&#45;&gt;3</title>
<path fill="none" stroke="red" stroke-width="0.116729" stroke-dasharray="1,5" d="M301.85,-77.7581C305.618,-73.3558 310.868,-68.3025 316.798,-65.6985 436.665,-13.0687 777.013,-58.1353 904.798,-29.6985 908.915,-28.7825 913.18,-27.4482 917.257,-25.9649"/>
<polygon fill="red" stroke="red" stroke-width="0.116729" points="918.84,-29.1006 926.814,-22.1235 916.23,-22.6057 918.84,-29.1006"/>
</g>
<!-- &#45;4 -->
<g id="node4" class="node"><title>&#45;4</title>
<polygon fill="lightgray" stroke="black" points="349.798,-95.9117 325.798,-95.9117 325.798,-77.9117 349.798,-77.9117 349.798,-95.9117"/>
<text text-anchor="middle" x="337.798" y="-84.7117" font-family="Times New Roman,serif" font-size="9.00">&#45;4</text>
</g>
<!-- &#45;4&#45;&gt;0 -->
<g id="edge13" class="edge"><title>&#45;4&#45;&gt;0</title>
<path fill="none" stroke="green" stroke-width="0.274103" d="M343.894,-77.8547C347.676,-73.4846 352.926,-68.4313 358.798,-65.6985 439.832,-27.9895 721.645,-18.425 807.669,-16.3576"/>
<polygon fill="green" stroke="green" stroke-width="0.274103" points="807.901,-19.8533 817.819,-16.1272 807.742,-12.8551 807.901,-19.8533"/>
</g>
<!-- &#45;4&#45;&gt;1 -->
<g id="edge14" class="edge"><title>&#45;4&#45;&gt;1</title>
<path fill="none" stroke="red" stroke-width="0.290218" d="M343.861,-77.7826C347.632,-73.3884 352.882,-68.3351 358.798,-65.6985 561.492,24.6333 644.653,-94.8046 856.798,-29.6985 857.856,-29.3739 858.918,-28.9958 859.974,-28.5765"/>
<polygon fill="red" stroke="red" stroke-width="0.290218" points="861.703,-31.625 869.079,-24.0195 858.57,-25.3652 861.703,-31.625"/>
</g>
<!-- &#45;4&#45;&gt;2 -->
<g id="edge15" class="edge"><title>&#45;4&#45;&gt;2</title>
<path fill="none" stroke="red" stroke-width="0.414942" d="M343.849,-77.7543C347.616,-73.3507 352.866,-68.2974 358.798,-65.6985 482.164,-11.6584 831.195,-53.2719 963.798,-29.6985 971.191,-28.3842 979.074,-26.2815 986.187,-24.1074"/>
<polygon fill="red" stroke="red" stroke-width="0.414942" points="987.478,-27.3681 995.911,-20.9546 985.319,-20.7093 987.478,-27.3681"/>
</g>
<!-- &#45;4&#45;&gt;3 -->
<g id="edge16" class="edge"><title>&#45;4&#45;&gt;3</title>
<path fill="none" stroke="green" stroke-width="0.459211" d="M343.855,-77.7685C347.624,-73.3697 352.874,-68.3164 358.798,-65.6985 470.021,-16.5524 786.167,-56.3903 904.798,-29.6985 908.913,-28.7728 913.177,-27.4338 917.253,-25.9487"/>
<polygon fill="green" stroke="green" stroke-width="0.459211" points="918.836,-29.0846 926.81,-22.1081 916.226,-22.5895 918.836,-29.0846"/>
</g>
<!-- &#45;5 -->
<g id="node5" class="node"><title>&#45;5</title>
<polygon fill="lightgray" stroke="black" points="391.798,-95.9117 367.798,-95.9117 367.798,-77.9117 391.798,-77.9117 391.798,-95.9117"/>
<text text-anchor="middle" x="379.798" y="-84.7117" font-family="Times New Roman,serif" font-size="9.00">&#45;5</text>
</g>
<!-- &#45;5&#45;&gt;0 -->
<g id="edge17" class="edge"><title>&#45;5&#45;&gt;0</title>
<path fill="none" stroke="green" stroke-width="0.379141" d="M385.905,-77.8769C389.69,-73.5142 394.94,-68.4609 400.798,-65.6985 473.845,-31.2565 726.504,-19.5665 807.559,-16.6548"/>
<polygon fill="green" stroke="green" stroke-width="0.379141" points="807.948,-20.1436 817.821,-16.3008 807.706,-13.1478 807.948,-20.1436"/>
</g>
<!-- &#45;5&#45;&gt;1 -->
<g id="edge18" class="edge"><title>&#45;5&#45;&gt;1</title>
<path fill="none" stroke="green" stroke-width="0.191376" d="M385.868,-77.7972C389.641,-73.408 394.891,-68.3547 400.798,-65.6985 586.215,17.6706 662.646,-89.9865 856.798,-29.6985 857.855,-29.3704 858.916,-28.9894 859.971,-28.5678"/>
<polygon fill="green" stroke="green" stroke-width="0.191376" points="861.704,-31.6142 869.073,-24.0022 858.566,-25.3571 861.704,-31.6142"/>
</g>
<!-- &#45;5&#45;&gt;2 -->
<g id="edge19" class="edge"><title>&#45;5&#45;&gt;2</title>
<path fill="none" stroke="green" stroke-width="0.299449" d="M385.853,-77.7641C389.621,-73.3638 394.871,-68.3105 400.798,-65.6985 515.519,-15.1424 840.416,-51.9143 963.798,-29.6985 971.188,-28.3679 979.07,-26.2603 986.183,-24.0868"/>
<polygon fill="green" stroke="green" stroke-width="0.299449" points="987.473,-27.3482 995.908,-20.938 985.317,-20.6885 987.473,-27.3482"/>
</g>
<!-- &#45;5&#45;&gt;3 -->
<g id="edge20" class="edge"><title>&#45;5&#45;&gt;3</title>
<path fill="none" stroke="green" stroke-width="0.178615" d="M385.86,-77.7807C389.631,-73.3859 394.881,-68.3326 400.798,-65.6985 503.379,-20.0351 795.32,-54.6458 904.798,-29.6985 908.91,-28.7616 913.173,-27.417 917.249,-25.9298"/>
<polygon fill="green" stroke="green" stroke-width="0.178615" points="918.832,-29.0659 926.806,-22.0902 916.222,-22.5705 918.832,-29.0659"/>
</g>
<!-- &#45;6 -->
<g id="node6" class="node"><title>&#45;6</title>
<polygon fill="lightgray" stroke="black" points="433.798,-95.9117 409.798,-95.9117 409.798,-77.9117 433.798,-77.9117 433.798,-95.9117"/>
<text text-anchor="middle" x="421.798" y="-84.7117" font-family="Times New Roman,serif" font-size="9.00">&#45;6</text>
</g>
<!-- &#45;6&#45;&gt;0 -->
<g id="edge21" class="edge"><title>&#45;6&#45;&gt;0</title>
<path fill="none" stroke="green" stroke-width="0.453914" d="M427.917,-77.9037C431.707,-73.55 436.957,-68.4967 442.798,-65.6985 507.941,-34.4943 731.917,-20.8145 807.589,-17.0102"/>
<polygon fill="green" stroke="green" stroke-width="0.453914" points="808.212,-20.4841 818.029,-16.5014 807.871,-13.4924 808.212,-20.4841"/>
</g>
<!-- &#45;6&#45;&gt;1 -->
<g id="edge22" class="edge"><title>&#45;6&#45;&gt;1</title>
<path fill="none" stroke="red" stroke-width="0.228882" d="M427.876,-77.8148C431.652,-73.4315 436.902,-68.3782 442.798,-65.6985 610.946,10.7112 680.631,-85.1709 856.798,-29.6985 857.854,-29.3662 858.913,-28.9818 859.968,-28.5573"/>
<polygon fill="red" stroke="red" stroke-width="0.228882" points="861.705,-31.6012 869.067,-23.9816 858.56,-25.3474 861.705,-31.6012"/>
</g>
<!-- &#45;6&#45;&gt;2 -->
<g id="edge23" class="edge"><title>&#45;6&#45;&gt;2</title>
<path fill="none" stroke="red" stroke-width="0.255056" d="M427.858,-77.7755C431.628,-73.379 436.878,-68.3257 442.798,-65.6985 548.877,-18.6256 849.634,-50.557 963.798,-29.6985 971.185,-28.3489 979.065,-26.2357 986.179,-24.0629"/>
<polygon fill="red" stroke="red" stroke-width="0.255056" points="987.466,-27.325 995.905,-20.9188 985.313,-20.6644 987.466,-27.325"/>
</g>
<!-- &#45;6&#45;&gt;3 -->
<g id="edge24" class="edge"><title>&#45;6&#45;&gt;3</title>
<path fill="none" stroke="red" stroke-width="0.38587" d="M427.867,-77.795C431.64,-73.405 436.89,-68.3517 442.798,-65.6985 536.741,-23.5167 804.469,-52.9019 904.798,-29.6985 908.907,-28.7483 913.168,-27.3971 917.244,-25.9075"/>
<polygon fill="red" stroke="red" stroke-width="0.38587" points="918.826,-29.0439 926.801,-22.069 916.217,-22.5482 918.826,-29.0439"/>
</g>
<!-- &#45;7 -->
<g id="node7" class="node"><title>&#45;7</title>
<polygon fill="lightgray" stroke="black" points="1735.8,-95.9117 1711.8,-95.9117 1711.8,-77.9117 1735.8,-77.9117 1735.8,-95.9117"/>
<text text-anchor="middle" x="1723.8" y="-84.7117" font-family="Times New Roman,serif" font-size="9.00">&#45;7</text>
</g>
<!-- &#45;7&#45;&gt;0 -->
<g id="edge25" class="edge"><title>&#45;7&#45;&gt;0</title>
<path fill="none" stroke="red" stroke-width="0.586781" d="M1717.76,-77.7166C1714,-73.3005 1708.75,-68.2472 1702.8,-65.6985 1529.81,8.34351 1037.49,-82.2338 856.798,-29.6985 855.736,-29.3896 854.671,-29.0244 853.612,-28.6155"/>
<polygon fill="red" stroke="red" stroke-width="0.586781" points="855.009,-25.4019 844.495,-24.0968 851.901,-31.6738 855.009,-25.4019"/>
</g>
<!-- &#45;7&#45;&gt;2 -->
<g id="edge26" class="edge"><title>&#45;7&#45;&gt;2</title>
<path fill="none" stroke="green" stroke-width="0.252147" d="M1717.74,-77.7818C1713.97,-73.3874 1708.72,-68.3341 1702.8,-65.6985 1640.75,-38.0612 1151.44,-20.4681 1034.73,-16.6386"/>
<polygon fill="green" stroke="green" stroke-width="0.252147" points="1034.73,-13.137 1024.63,-16.3111 1034.51,-20.1333 1034.73,-13.137"/>
</g>
<!-- &#45;7&#45;&gt;3 -->
<g id="edge27" class="edge"><title>&#45;7&#45;&gt;3</title>
<path fill="none" stroke="green" stroke-width="0.383798" d="M1717.76,-77.7336C1713.99,-73.3232 1708.74,-68.2699 1702.8,-65.6985 1556.37,-2.36458 1143,-56.8937 985.798,-29.6985 978.4,-28.4185 970.515,-26.3259 963.403,-24.1506"/>
<polygon fill="green" stroke="green" stroke-width="0.383798" points="964.272,-20.7529 953.679,-20.9893 962.107,-27.4098 964.272,-20.7529"/>
</g>
<!-- &#45;8 -->
<g id="node8" class="node"><title>&#45;8</title>
<polygon fill="lightgray" stroke="black" points="475.798,-95.9117 451.798,-95.9117 451.798,-77.9117 475.798,-77.9117 475.798,-95.9117"/>
<text text-anchor="middle" x="463.798" y="-84.7117" font-family="Times New Roman,serif" font-size="9.00">&#45;8</text>
</g>
<!-- &#45;8&#45;&gt;0 -->
<g id="edge28" class="edge"><title>&#45;8&#45;&gt;0</title>
<path fill="none" stroke="green" stroke-width="0.105293" d="M470.293,-77.5277C474.057,-73.2805 479.16,-68.452 484.798,-65.6985 542.192,-37.6696 738.358,-22.1511 808.014,-17.4223"/>
<polygon fill="green" stroke="green" stroke-width="0.105293" points="808.32,-20.9097 818.067,-16.7557 807.857,-13.9251 808.32,-20.9097"/>
</g>
<!-- &#45;8&#45;&gt;1 -->
<g id="edge29" class="edge"><title>&#45;8&#45;&gt;1</title>
<path fill="none" stroke="green" stroke-width="0.244654" d="M469.886,-77.8363C473.665,-73.4601 478.915,-68.4068 484.798,-65.6985 635.686,3.7562 698.607,-80.3585 856.798,-29.6985 857.852,-29.361 858.91,-28.9724 859.964,-28.5446"/>
<polygon fill="green" stroke="green" stroke-width="0.244654" points="861.707,-31.5852 869.059,-23.9563 858.554,-25.3355 861.707,-31.5852"/>
</g>
<!-- &#45;8&#45;&gt;2 -->
<g id="edge30" class="edge"><title>&#45;8&#45;&gt;2</title>
<path fill="none" stroke="green" stroke-width="0.201928" d="M469.864,-77.7889C473.636,-73.3969 478.886,-68.3436 484.798,-65.6985 582.237,-22.1077 858.85,-49.2002 963.798,-29.6985 971.181,-28.3267 979.06,-26.2068 986.174,-24.0348"/>
<polygon fill="green" stroke="green" stroke-width="0.201928" points="987.459,-27.2979 995.901,-20.8962 985.309,-20.6361 987.459,-27.2979"/>
</g>
<!-- &#45;8&#45;&gt;3 -->
<g id="edge31" class="edge"><title>&#45;8&#45;&gt;3</title>
<path fill="none" stroke="green" stroke-width="0.438475" d="M469.875,-77.8121C473.65,-73.4278 478.9,-68.3745 484.798,-65.6985 655.412,11.7051 722.43,-72.6194 904.798,-29.6985 908.903,-28.7324 913.163,-27.3734 917.238,-25.8809"/>
<polygon fill="green" stroke="green" stroke-width="0.438475" points="918.819,-29.0175 926.795,-22.0437 916.211,-22.5215 918.819,-29.0175"/>
</g>
<!-- &#45;9 -->
<g id="node9" class="node"><title>&#45;9</title>
<polygon fill="lightgray" stroke="black" points="517.798,-95.9117 493.798,-95.9117 493.798,-77.9117 517.798,-77.9117 517.798,-95.9117"/>
<text text-anchor="middle" x="505.798" y="-84.7117" font-family="Times New Roman,serif" font-size="9.00">&#45;9</text>
</g>
<!-- &#45;9&#45;&gt;0 -->
<g id="edge32" class="edge"><title>&#45;9&#45;&gt;0</title>
<path fill="none" stroke="green" stroke-width="0.163048" stroke-dasharray="1,5" d="M512.7,-77.5746C516.672,-73.3411 522.014,-68.5108 527.798,-65.6985 623.501,-19.1672 753.985,-14.8148 807.912,-15.2149"/>
<polygon fill="green" stroke="green" stroke-width="0.163048" points="807.884,-18.7147 817.931,-15.353 807.981,-11.7154 807.884,-18.7147"/>
</g>
<!-- &#45;9&#45;&gt;1 -->
<g id="edge33" class="edge"><title>&#45;9&#45;&gt;1</title>
<path fill="none" stroke="green" stroke-width="0.353894" d="M512.264,-77.8629C516.253,-73.4955 521.753,-68.4422 527.798,-65.6985 661.744,-4.90853 716.995,-75.4362 856.798,-29.6985 857.679,-29.4105 858.562,-29.0876 859.443,-28.7365"/>
<polygon fill="green" stroke="green" stroke-width="0.353894" points="861.154,-31.7949 868.555,-24.2134 858.042,-25.525 861.154,-31.7949"/>
</g>
<!-- &#45;9&#45;&gt;2 -->
<g id="edge34" class="edge"><title>&#45;9&#45;&gt;2</title>
<path fill="none" stroke="green" stroke-width="0.176276" d="M512.237,-77.8024C516.217,-73.4149 521.717,-68.3616 527.798,-65.6985 616.853,-26.7022 868.282,-47.8118 963.798,-29.6985 971.176,-28.2995 979.053,-26.1716 986.167,-24.0005"/>
<polygon fill="green" stroke="green" stroke-width="0.176276" points="987.449,-27.2647 995.896,-20.8686 985.304,-20.6015 987.449,-27.2647"/>
</g>
<!-- &#45;9&#45;&gt;3 -->
<g id="edge35" class="edge"><title>&#45;9&#45;&gt;3</title>
<path fill="none" stroke="green" stroke-width="0.634751" d="M512.25,-77.8316C516.234,-73.4538 521.734,-68.4005 527.798,-65.6985 681.546,2.80399 741.146,-69.0529 904.798,-29.6985 908.899,-28.7125 913.156,-27.3436 917.23,-25.8475"/>
<polygon fill="green" stroke="green" stroke-width="0.634751" points="918.811,-28.9845 926.788,-22.012 916.204,-22.488 918.811,-28.9845"/>
</g>
<!-- &#45;10 -->
<g id="node10" class="node"><title>&#45;10</title>
<polygon fill="lightgray" stroke="black" points="565.298,-95.9117 536.298,-95.9117 536.298,-77.9117 565.298,-77.9117 565.298,-95.9117"/>
<text text-anchor="middle" x="550.798" y="-84.7117" font-family="Times New Roman,serif" font-size="9.00">&#45;10</text>
</g>
<!-- &#45;10&#45;&gt;0 -->
<g id="edge36" class="edge"><title>&#45;10&#45;&gt;0</title>
<path fill="none" stroke="green" stroke-width="0.135796" d="M558.499,-77.6527C562.881,-73.4421 568.703,-68.6087 574.798,-65.6985 654.051,-27.8628 760.001,-18.742 807.683,-16.5452"/>
<polygon fill="green" stroke="green" stroke-width="0.135796" points="807.871,-20.0406 817.725,-16.1475 807.594,-13.046 807.871,-20.0406"/>
</g>
<!-- &#45;10&#45;&gt;1 -->
<g id="edge37" class="edge"><title>&#45;10&#45;&gt;1</title>
<path fill="none" stroke="green" stroke-width="0.308368" d="M558.01,-77.9063C562.413,-73.5534 568.413,-68.5001 574.798,-65.6985 690.502,-14.9327 737.069,-70.0641 856.798,-29.6985 857.676,-29.4026 858.557,-29.073 859.437,-28.7163"/>
<polygon fill="green" stroke="green" stroke-width="0.308368" points="861.159,-31.7682 868.539,-24.1668 858.03,-25.5067 861.159,-31.7682"/>
</g>
<!-- &#45;10&#45;&gt;2 -->
<g id="edge38" class="edge"><title>&#45;10&#45;&gt;2</title>
<path fill="none" stroke="red" stroke-width="0.336278" d="M557.974,-77.8229C562.366,-73.4422 568.366,-68.3889 574.798,-65.6985 734.981,1.29433 793.373,-62.892 963.798,-29.6985 971.169,-28.263 979.044,-26.1243 986.158,-23.9545"/>
<polygon fill="red" stroke="red" stroke-width="0.336278" points="987.437,-27.2202 995.889,-20.8316 985.297,-20.5551 987.437,-27.2202"/>
</g>
<!-- &#45;10&#45;&gt;3 -->
<g id="edge39" class="edge"><title>&#45;10&#45;&gt;3</title>
<path fill="none" stroke="red" stroke-width="0.108992" d="M557.99,-77.8623C562.388,-73.4948 568.388,-68.4415 574.798,-65.6985 710.44,-7.65984 761.586,-65.1587 904.798,-29.6985 908.822,-28.7021 913.001,-27.3491 917.011,-25.8774"/>
<polygon fill="red" stroke="red" stroke-width="0.108992" points="918.457,-29.0688 926.447,-22.1101 915.862,-22.5678 918.457,-29.0688"/>
</g>
<!-- &#45;11 -->
<g id="node11" class="node"><title>&#45;11</title>
<polygon fill="lightgray" stroke="black" points="48.2985,-95.9117 19.2985,-95.9117 19.2985,-77.9117 48.2985,-77.9117 48.2985,-95.9117"/>
<text text-anchor="middle" x="33.7985" y="-84.7117" font-family="Times New Roman,serif" font-size="9.00">&#45;11</text>
</g>
<!-- &#45;11&#45;&gt;0 -->
<g id="edge40" class="edge"><title>&#45;11&#45;&gt;0</title>
<path fill="none" stroke="green" stroke-width="0.281362" d="M42.7377,-77.7514C48.1341,-73.3469 55.3841,-68.2936 62.7985,-65.6985 205.038,-15.9136 692.021,-15.1335 807.905,-15.6749"/>
<polygon fill="green" stroke="green" stroke-width="0.281362" points="807.918,-19.1749 817.937,-15.7298 807.957,-12.175 807.918,-19.1749"/>
</g>
<!-- &#45;11&#45;&gt;1 -->
<g id="edge41" class="edge"><title>&#45;11&#45;&gt;1</title>
<path fill="none" stroke="green" stroke-width="0.157687" d="M42.7191,-77.6975C48.1094,-73.2751 55.3594,-68.2218 62.7985,-65.6985 230.064,-8.96374 687.265,-79.2466 856.798,-29.6985 857.86,-29.3881 858.925,-29.0217 859.984,-28.6118"/>
<polygon fill="green" stroke="green" stroke-width="0.157687" points="861.697,-31.6692 869.1,-24.0896 858.586,-25.3985 861.697,-31.6692"/>
</g>
<!-- &#45;11&#45;&gt;3 -->
<g id="edge42" class="edge"><title>&#45;11&#45;&gt;3</title>
<path fill="none" stroke="green" stroke-width="0.383479" d="M48.7897,-79.7546C61.1665,-74.9828 79.3128,-68.6952 95.7985,-65.6985 449.907,-1.33033 552.841,-104.947 904.798,-29.6985 908.922,-28.8168 913.191,-27.4996 917.27,-26.0225"/>
<polygon fill="green" stroke="green" stroke-width="0.383479" points="918.854,-29.1576 926.826,-22.1782 916.242,-22.6634 918.854,-29.1576"/>
</g>
<!-- &#45;12 -->
<g id="node12" class="node"><title>&#45;12</title>
<polygon fill="lightgray" stroke="black" points="612.298,-95.9117 583.298,-95.9117 583.298,-77.9117 612.298,-77.9117 612.298,-95.9117"/>
<text text-anchor="middle" x="597.798" y="-84.7117" font-family="Times New Roman,serif" font-size="9.00">&#45;12</text>
</g>
<!-- &#45;12&#45;&gt;0 -->
<g id="edge43" class="edge"><title>&#45;12&#45;&gt;0</title>
<path fill="none" stroke="red" stroke-width="0.256267" d="M605.547,-77.7522C609.944,-73.5707 615.764,-68.7335 621.798,-65.6985 684.175,-34.3284 766.937,-22.2469 807.793,-17.9716"/>
<polygon fill="red" stroke="red" stroke-width="0.256267" points="808.313,-21.4376 817.926,-16.9836 807.634,-14.4706 808.313,-21.4376"/>
</g>
<!-- &#45;12&#45;&gt;1 -->
<g id="edge44" class="edge"><title>&#45;12&#45;&gt;1</title>
<path fill="none" stroke="green" stroke-width="0.287947" d="M605.454,-77.5578C609.824,-73.3194 615.647,-68.4898 621.798,-65.6985 718.019,-22.0368 757.103,-64.7057 856.798,-29.6985 857.672,-29.3917 858.55,-29.0527 859.427,-28.6881"/>
<polygon fill="green" stroke="green" stroke-width="0.287947" points="861.166,-31.7313 868.517,-24.102 858.012,-25.4816 861.166,-31.7313"/>
</g>
<!-- &#45;12&#45;&gt;2 -->
<g id="edge45" class="edge"><title>&#45;12&#45;&gt;2</title>
<path fill="none" stroke="green" stroke-width="0.160438" d="M604.987,-77.8532C609.383,-73.4827 615.383,-68.4294 621.798,-65.6985 762.429,-5.83972 813.965,-59.862 963.798,-29.6985 971.16,-28.2166 979.032,-26.0641 986.147,-23.896"/>
<polygon fill="green" stroke="green" stroke-width="0.160438" points="987.42,-27.1636 995.879,-20.7846 985.288,-20.496 987.42,-27.1636"/>
</g>
<!-- &#45;12&#45;&gt;3 -->
<g id="edge46" class="edge"><title>&#45;12&#45;&gt;3</title>
<path fill="none" stroke="green" stroke-width="0.1254" d="M605.009,-77.9052C609.413,-73.552 615.413,-68.4987 621.798,-65.6985 737.917,-14.7814 782.001,-61.2708 904.798,-29.6985 908.813,-28.6662 912.988,-27.2951 916.996,-25.8165"/>
<polygon fill="green" stroke="green" stroke-width="0.1254" points="918.441,-29.0082 926.432,-22.0512 915.847,-22.5068 918.441,-29.0082"/>
</g>
<!-- &#45;13 -->
<g id="node13" class="node"><title>&#45;13</title>
<polygon fill="lightgray" stroke="black" points="659.298,-95.9117 630.298,-95.9117 630.298,-77.9117 659.298,-77.9117 659.298,-95.9117"/>
<text text-anchor="middle" x="644.798" y="-84.7117" font-family="Times New Roman,serif" font-size="9.00">&#45;13</text>
</g>
<!-- &#45;13&#45;&gt;0 -->
<g id="edge47" class="edge"><title>&#45;13&#45;&gt;0</title>
<path fill="none" stroke="red" stroke-width="0.600564" d="M652.626,-77.9028C657.046,-73.7654 662.862,-68.9223 668.798,-65.6985 714.613,-40.8169 774.529,-26.6445 807.789,-20.1766"/>
<polygon fill="red" stroke="red" stroke-width="0.600564" points="808.799,-23.5487 817.987,-18.2742 807.515,-16.6674 808.799,-23.5487"/>
</g>
<!-- &#45;13&#45;&gt;1 -->
<g id="edge48" class="edge"><title>&#45;13&#45;&gt;1</title>
<path fill="none" stroke="red" stroke-width="0.187376" d="M652.497,-77.6487C656.879,-73.4368 662.7,-68.6036 668.798,-65.6985 745.602,-29.1102 777.068,-59.3719 856.798,-29.6985 857.666,-29.3755 858.539,-29.0227 859.412,-28.6466"/>
<polygon fill="red" stroke="red" stroke-width="0.187376" points="861.174,-31.6767 868.483,-24.0064 857.986,-25.4448 861.174,-31.6767"/>
</g>
<!-- &#45;13&#45;&gt;2 -->
<g id="edge49" class="edge"><title>&#45;13&#45;&gt;2</title>
<path fill="none" stroke="green" stroke-width="0.198213" d="M652.004,-77.893C656.405,-73.5357 662.405,-68.4824 668.798,-65.6985 789.899,-12.9644 834.533,-56.8367 963.798,-29.6985 971.147,-28.1557 979.016,-25.9852 986.131,-23.8192"/>
<polygon fill="green" stroke="green" stroke-width="0.198213" points="987.398,-27.0892 995.867,-20.7228 985.276,-20.4184 987.398,-27.0892"/>
</g>
<!-- &#45;13&#45;&gt;3 -->
<g id="edge50" class="edge"><title>&#45;13&#45;&gt;3</title>
<path fill="none" stroke="green" stroke-width="0.252372" d="M652.454,-77.5563C656.823,-73.3174 662.646,-68.4878 668.798,-65.6985 765.433,-21.8859 802.375,-57.3936 904.798,-29.6985 908.8,-28.6164 912.968,-27.2202 916.974,-25.732"/>
<polygon fill="green" stroke="green" stroke-width="0.252372" points="918.418,-28.9243 926.41,-21.9695 915.825,-22.422 918.418,-28.9243"/>
</g>
<!-- &#45;14 -->
<g id="node14" class="node"><title>&#45;14</title>
<polygon fill="lightgray" stroke="black" points="706.298,-95.9117 677.298,-95.9117 677.298,-77.9117 706.298,-77.9117 706.298,-95.9117"/>
<text text-anchor="middle" x="691.798" y="-84.7117" font-family="Times New Roman,serif" font-size="9.00">&#45;14</text>
</g>
<!-- &#45;14&#45;&gt;0 -->
<g id="edge51" class="edge"><title>&#45;14&#45;&gt;0</title>
<path fill="none" stroke="green" stroke-width="0.308334" d="M700.207,-77.7582C704.609,-73.7783 710.23,-69.1229 715.798,-65.6985 746.243,-46.9756 784.966,-31.9992 809.326,-23.5173"/>
<polygon fill="green" stroke="green" stroke-width="0.308334" points="810.48,-26.8217 818.821,-20.2878 808.226,-20.1946 810.48,-26.8217"/>
</g>
<!-- &#45;14&#45;&gt;1 -->
<g id="edge52" class="edge"><title>&#45;14&#45;&gt;1</title>
<path fill="none" stroke="green" stroke-width="0.359261" d="M699.569,-77.7954C703.973,-73.6265 709.791,-68.7876 715.798,-65.6985 773.316,-36.121 796.897,-54.089 856.798,-29.6985 857.656,-29.3493 858.521,-28.9742 859.386,-28.5793"/>
<polygon fill="green" stroke="green" stroke-width="0.359261" points="861.184,-31.5885 868.422,-23.8515 857.939,-25.3861 861.184,-31.5885"/>
</g>
<!-- &#45;14&#45;&gt;2 -->
<g id="edge53" class="edge"><title>&#45;14&#45;&gt;2</title>
<path fill="none" stroke="green" stroke-width="0.154962" d="M699.446,-77.5385C703.813,-73.2944 709.636,-68.4656 715.798,-65.6985 817.402,-20.0741 855.064,-53.8192 963.798,-29.6985 971.129,-28.0723 978.993,-25.8771 986.108,-23.7141"/>
<polygon fill="green" stroke="green" stroke-width="0.154962" points="987.366,-26.9872 995.848,-20.6383 985.258,-20.3122 987.366,-26.9872"/>
</g>
<!-- &#45;14&#45;&gt;3 -->
<g id="edge54" class="edge"><title>&#45;14&#45;&gt;3</title>
<path fill="none" stroke="green" stroke-width="0.238917" d="M699.496,-77.6463C703.877,-73.4338 709.699,-68.6007 715.798,-65.6985 793.014,-28.9602 822.678,-53.5355 904.798,-29.6985 908.78,-28.5429 912.937,-27.1096 916.939,-25.6071"/>
<polygon fill="green" stroke="green" stroke-width="0.238917" points="918.381,-28.8002 926.376,-21.8489 915.791,-22.2969 918.381,-28.8002"/>
</g>
<!-- &#45;15 -->
<g id="node15" class="node"><title>&#45;15</title>
<polygon fill="lightgray" stroke="black" points="753.298,-95.9117 724.298,-95.9117 724.298,-77.9117 753.298,-77.9117 753.298,-95.9117"/>
<text text-anchor="middle" x="738.798" y="-84.7117" font-family="Times New Roman,serif" font-size="9.00">&#45;15</text>
</g>
<!-- &#45;15&#45;&gt;0 -->
<g id="edge55" class="edge"><title>&#45;15&#45;&gt;0</title>
<path fill="none" stroke="red" stroke-width="0.127948" d="M748,-77.8614C752.408,-74.083 757.804,-69.5698 762.798,-65.6985 779.049,-53.1022 798.089,-39.6216 812.206,-29.8591"/>
<polygon fill="red" stroke="red" stroke-width="0.127948" points="814.434,-32.5753 820.693,-24.0274 810.469,-26.806 814.434,-32.5753"/>
</g>
<!-- &#45;15&#45;&gt;1 -->
<g id="edge56" class="edge"><title>&#45;15&#45;&gt;1</title>
<path fill="none" stroke="green" stroke-width="0.158082" d="M747.155,-77.6705C751.542,-73.6682 757.168,-69.0193 762.798,-65.6985 801.333,-42.9725 816.41,-48.9381 856.798,-29.6985 857.635,-29.3002 858.481,-28.8836 859.33,-28.4535"/>
<polygon fill="green" stroke="green" stroke-width="0.158082" points="861.193,-31.4244 868.294,-23.5619 857.84,-25.2797 861.193,-31.4244"/>
</g>
<!-- &#45;15&#45;&gt;2 -->
<g id="edge57" class="edge"><title>&#45;15&#45;&gt;2</title>
<path fill="none" stroke="red" stroke-width="0.455003" d="M746.483,-77.6195C750.861,-73.3991 756.683,-68.5671 762.798,-65.6985 844.963,-27.1581 875.535,-50.8153 963.798,-29.6985 971.101,-27.9513 978.957,-25.7202 986.073,-23.5615"/>
<polygon fill="red" stroke="red" stroke-width="0.455003" points="987.319,-26.8391 995.82,-20.5156 985.231,-20.1578 987.319,-26.8391"/>
</g>
<!-- &#45;15&#45;&gt;3 -->
<g id="edge58" class="edge"><title>&#45;15&#45;&gt;3</title>
<path fill="none" stroke="green" stroke-width="0.327789" d="M746.567,-77.7913C750.97,-73.6213 756.789,-68.7825 762.798,-65.6985 820.724,-35.973 842.845,-49.7175 904.798,-29.6985 908.743,-28.4238 912.882,-26.9305 916.877,-25.4051"/>
<polygon fill="green" stroke="green" stroke-width="0.327789" points="918.316,-28.5994 926.316,-21.6536 915.731,-22.0943 918.316,-28.5994"/>
</g>
<!-- &#45;16 -->
<g id="node16" class="node"><title>&#45;16</title>
<polygon fill="lightgray" stroke="black" points="800.298,-95.9117 771.298,-95.9117 771.298,-77.9117 800.298,-77.9117 800.298,-95.9117"/>
<text text-anchor="middle" x="785.798" y="-84.7117" font-family="Times New Roman,serif" font-size="9.00">&#45;16</text>
</g>
<!-- &#45;16&#45;&gt;0 -->
<g id="edge59" class="edge"><title>&#45;16&#45;&gt;0</title>
<path fill="none" stroke="green" stroke-width="0.638838" d="M791.19,-77.8746C797.994,-67.7318 809.937,-49.9283 819.288,-35.9895"/>
<polygon fill="green" stroke="green" stroke-width="0.638838" points="822.314,-37.7615 824.978,-27.5071 816.5,-33.8618 822.314,-37.7615"/>
</g>
<!-- &#45;16&#45;&gt;1 -->
<g id="edge60" class="edge"><title>&#45;16&#45;&gt;1</title>
<path fill="none" stroke="green" stroke-width="0.30184" d="M794.988,-77.8464C799.394,-74.0647 804.791,-69.5531 809.798,-65.6985 826.246,-53.0375 845.561,-39.5618 859.889,-29.8177"/>
<polygon fill="green" stroke="green" stroke-width="0.30184" points="862.177,-32.4965 868.505,-23.9994 858.259,-26.6954 862.177,-32.4965"/>
</g>
<!-- &#45;16&#45;&gt;2 -->
<g id="edge61" class="edge"><title>&#45;16&#45;&gt;2</title>
<path fill="none" stroke="red" stroke-width="0.371412" d="M793.545,-77.7465C797.941,-73.5634 803.76,-68.7264 809.798,-65.6985 872.631,-34.1915 895.89,-47.8393 963.798,-29.6985 971.053,-27.7606 978.894,-25.4728 986.012,-23.321"/>
<polygon fill="red" stroke="red" stroke-width="0.371412" points="987.24,-26.6052 995.771,-20.3221 985.184,-19.914 987.24,-26.6052"/>
</g>
<!-- &#45;16&#45;&gt;3 -->
<g id="edge62" class="edge"><title>&#45;16&#45;&gt;3</title>
<path fill="none" stroke="green" stroke-width="0.110636" d="M794.15,-77.6621C798.536,-73.6577 804.162,-69.0093 809.798,-65.6985 848.731,-42.83 862.694,-46.0055 904.798,-29.6985 908.664,-28.2013 912.763,-26.5957 916.743,-25.0274"/>
<polygon fill="green" stroke="green" stroke-width="0.110636" points="918.177,-28.2237 926.187,-21.2885 915.601,-21.7152 918.177,-28.2237"/>
</g>
<!-- &#45;17 -->
<g id="node17" class="node"><title>&#45;17</title>
<polygon fill="lightgray" stroke="black" points="847.298,-95.9117 818.298,-95.9117 818.298,-77.9117 847.298,-77.9117 847.298,-95.9117"/>
<text text-anchor="middle" x="832.798" y="-84.7117" font-family="Times New Roman,serif" font-size="9.00">&#45;17</text>
</g>
<!-- &#45;17&#45;&gt;0 -->
<g id="edge63" class="edge"><title>&#45;17&#45;&gt;0</title>
<path fill="none" stroke="red" stroke-width="0.485067" d="M832.798,-77.8746C832.798,-68.7202 832.798,-53.3256 832.798,-40.1641"/>
<polygon fill="red" stroke="red" stroke-width="0.485067" points="836.299,-39.8196 832.798,-29.8197 829.299,-39.8197 836.299,-39.8196"/>
</g>
<!-- &#45;17&#45;&gt;1 -->
<g id="edge64" class="edge"><title>&#45;17&#45;&gt;1</title>
<path fill="none" stroke="green" stroke-width="0.485391" d="M838.305,-77.8746C845.254,-67.7318 857.451,-49.9283 867,-35.9895"/>
<polygon fill="green" stroke="green" stroke-width="0.485391" points="870.047,-37.7349 872.812,-27.5071 864.272,-33.7786 870.047,-37.7349"/>
</g>
<!-- &#45;17&#45;&gt;2 -->
<g id="edge65" class="edge"><title>&#45;17&#45;&gt;2</title>
<path fill="none" stroke="red" stroke-width="0.351434" d="M841.085,-77.5485C845.455,-73.5152 851.085,-68.8752 856.798,-65.6985 868.313,-59.2959 945.937,-35.2611 985.988,-23.0566"/>
<polygon fill="red" stroke="red" stroke-width="0.351434" points="987.2,-26.3461 995.75,-20.0891 985.165,-19.6486 987.2,-26.3461"/>
</g>
<!-- &#45;17&#45;&gt;3 -->
<g id="edge66" class="edge"><title>&#45;17&#45;&gt;3</title>
<path fill="none" stroke="green" stroke-width="0.207374" d="M841.868,-77.6842C846.247,-73.8669 851.657,-69.3722 856.798,-65.6985 876.691,-51.4846 900.773,-37.3302 917.862,-27.7562"/>
<polygon fill="green" stroke="green" stroke-width="0.207374" points="919.976,-30.5867 927.031,-22.6827 916.587,-24.4618 919.976,-30.5867"/>
</g>
<!-- &#45;18 -->
<g id="node18" class="node"><title>&#45;18</title>
<polygon fill="lightgray" stroke="black" points="1778.3,-162.125 1749.3,-162.125 1749.3,-144.125 1778.3,-144.125 1778.3,-162.125"/>
<text text-anchor="middle" x="1763.8" y="-150.925" font-family="Times New Roman,serif" font-size="9.00">&#45;18</text>
</g>
<!-- &#45;18&#45;&gt;0 -->
<g id="edge67" class="edge"><title>&#45;18&#45;&gt;0</title>
<path fill="none" stroke="green" stroke-width="0.112368" d="M1749.18,-152.042C1582.31,-151.062 41.982,-141.126 9.79847,-108.125 -3.36662,-94.6254 -3.12552,-79.429 9.79847,-65.6985 37.8304,-35.9173 671.911,-19.577 807.45,-16.4176"/>
<polygon fill="green" stroke="green" stroke-width="0.112368" points="807.758,-19.9116 817.675,-16.1824 807.597,-12.9134 807.758,-19.9116"/>
</g>
<!-- &#45;18&#45;&gt;1 -->
<g id="edge68" class="edge"><title>&#45;18&#45;&gt;1</title>
<path fill="none" stroke="green" stroke-width="0.465085" d="M1749.15,-152.023C1586.67,-150.853 126.337,-139.48 95.7985,-108.125 82.6421,-94.6169 82.784,-79.3432 95.7985,-65.6985 154.224,-4.44392 775.571,-53.5247 856.798,-29.6985 857.86,-29.3871 858.925,-29.0198 859.983,-28.6093"/>
<polygon fill="green" stroke="green" stroke-width="0.465085" points="861.697,-31.666 869.098,-24.0844 858.585,-25.396 861.697,-31.666"/>
</g>
<!-- &#45;18&#45;&gt;2 -->
<g id="edge69" class="edge"><title>&#45;18&#45;&gt;2</title>
<path fill="none" stroke="green" stroke-width="0.38439" d="M1778.3,-150.703C1816.45,-146.634 1917.99,-133.571 1937.8,-108.125 1949.38,-93.2467 1950.77,-79.3847 1937.8,-65.6985 1905.86,-31.9935 1180.66,-18.5925 1035.1,-16.2378"/>
<polygon fill="green" stroke="green" stroke-width="0.38439" points="1034.99,-12.7355 1024.93,-16.076 1034.87,-19.7346 1034.99,-12.7355"/>
</g>
<!-- &#45;18&#45;&gt;3 -->
<g id="edge70" class="edge"><title>&#45;18&#45;&gt;3</title>
<path fill="none" stroke="red" stroke-width="0.288083" d="M1764.87,-144.111C1766.68,-126.703 1768.16,-85.4146 1744.8,-65.6985 1680.27,-11.2505 1069.01,-43.9753 985.798,-29.6985 978.398,-28.4287 970.513,-26.3392 963.4,-24.1635"/>
<polygon fill="red" stroke="red" stroke-width="0.288083" points="964.27,-20.7659 953.678,-20.9997 962.104,-27.4223 964.27,-20.7659"/>
</g>
<!-- 181 -->
<g id="node45" class="node"><title>181</title>
<ellipse fill="white" stroke="black" cx="1907.8" cy="-86.9117" rx="21.4286" ry="21.4286"/>
<text text-anchor="middle" x="1907.8" y="-84.7117" font-family="Times New Roman,serif" font-size="9.00">181</text>
</g>
<!-- &#45;18&#45;&gt;181 -->
<g id="edge157" class="edge"><title>&#45;18&#45;&gt;181</title>
<path fill="none" stroke="green" stroke-width="0.219714" d="M1778.65,-147.579C1800.86,-140.522 1843.75,-125.878 1877.8,-108.125 1879.33,-107.326 1880.88,-106.466 1882.42,-105.567"/>
<polygon fill="green" stroke="green" stroke-width="0.219714" points="1884.46,-108.42 1891.07,-100.143 1880.74,-102.49 1884.46,-108.42"/>
</g>
<!-- &#45;19 -->
<g id="node19" class="node"><title>&#45;19</title>
<polygon fill="lightgray" stroke="black" points="894.298,-95.9117 865.298,-95.9117 865.298,-77.9117 894.298,-77.9117 894.298,-95.9117"/>
<text text-anchor="middle" x="879.798" y="-84.7117" font-family="Times New Roman,serif" font-size="9.00">&#45;19</text>
</g>
<!-- &#45;19&#45;&gt;0 -->
<g id="edge71" class="edge"><title>&#45;19&#45;&gt;0</title>
<path fill="none" stroke="green" stroke-width="0.66425" d="M874.407,-77.8746C867.603,-67.7318 855.66,-49.9283 846.309,-35.9895"/>
<polygon fill="green" stroke="green" stroke-width="0.66425" points="849.096,-33.8618 840.619,-27.5071 843.283,-37.7615 849.096,-33.8618"/>
</g>
<!-- &#45;19&#45;&gt;1 -->
<g id="edge72" class="edge"><title>&#45;19&#45;&gt;1</title>
<path fill="none" stroke="red" stroke-width="0.121255" d="M879.913,-77.8746C880.044,-68.7202 880.264,-53.3256 880.451,-40.1641"/>
<polygon fill="red" stroke="red" stroke-width="0.121255" points="883.956,-39.8686 880.599,-29.8197 876.957,-39.7687 883.956,-39.8686"/>
</g>
<!-- &#45;19&#45;&gt;2 -->
<g id="edge73" class="edge"><title>&#45;19&#45;&gt;2</title>
<path fill="none" stroke="red" stroke-width="0.191399" d="M888.262,-77.8445C892.677,-73.8866 898.294,-69.2248 903.798,-65.6985 930.703,-48.4625 964.51,-33.6063 986.613,-24.7011"/>
<polygon fill="red" stroke="red" stroke-width="0.191399" points="988.144,-27.8598 996.16,-20.9322 985.573,-21.3488 988.144,-27.8598"/>
</g>
<!-- &#45;19&#45;&gt;3 -->
<g id="edge74" class="edge"><title>&#45;19&#45;&gt;3</title>
<path fill="none" stroke="green" stroke-width="0.108271" d="M886.681,-77.8746C895.636,-67.4184 911.562,-48.8208 923.647,-34.7089"/>
<polygon fill="green" stroke="green" stroke-width="0.108271" points="926.391,-36.8858 930.237,-27.0138 921.074,-32.3326 926.391,-36.8858"/>
</g>
<!-- &#45;20 -->
<g id="node20" class="node"><title>&#45;20</title>
<polygon fill="lightgray" stroke="black" points="1821.3,-95.9117 1792.3,-95.9117 1792.3,-77.9117 1821.3,-77.9117 1821.3,-95.9117"/>
<text text-anchor="middle" x="1806.8" y="-84.7117" font-family="Times New Roman,serif" font-size="9.00">&#45;20</text>
</g>
<!-- &#45;20&#45;&gt;1 -->
<g id="edge75" class="edge"><title>&#45;20&#45;&gt;1</title>
<path fill="none" stroke="green" stroke-width="0.255949" d="M1791.81,-79.7499C1779.43,-74.9753 1761.29,-68.6863 1744.8,-65.6985 1381.92,0.0634598 1276.48,-106.61 915.798,-29.6985 911.674,-28.819 907.405,-27.5029 903.327,-26.0262"/>
<polygon fill="green" stroke="green" stroke-width="0.255949" points="904.354,-22.6672 893.771,-22.1818 901.742,-29.1613 904.354,-22.6672"/>
</g>
<!-- &#45;20&#45;&gt;2 -->
<g id="edge76" class="edge"><title>&#45;20&#45;&gt;2</title>
<path fill="none" stroke="red" stroke-width="0.141042" d="M1797.86,-77.7519C1792.46,-73.3475 1785.21,-68.2942 1777.8,-65.6985 1636.08,-16.0839 1151.26,-15.1637 1035,-15.6784"/>
<polygon fill="red" stroke="red" stroke-width="0.141042" points="1034.91,-12.1787 1024.93,-15.7311 1034.94,-19.1786 1034.91,-12.1787"/>
</g>
<!-- &#45;20&#45;&gt;3 -->
<g id="edge77" class="edge"><title>&#45;20&#45;&gt;3</title>
<path fill="none" stroke="green" stroke-width="0.323419" d="M1797.88,-77.6979C1792.49,-73.2755 1785.24,-68.2222 1777.8,-65.6985 1610.96,-9.09682 1159.47,-59.3197 985.798,-29.6985 978.397,-28.436 970.512,-26.3487 963.399,-24.1727"/>
<polygon fill="green" stroke="green" stroke-width="0.323419" points="964.269,-20.7752 953.676,-21.0071 962.101,-27.4312 964.269,-20.7752"/>
</g>
<!-- &#45;21 -->
<g id="node21" class="node"><title>&#45;21</title>
<polygon fill="lightgray" stroke="black" points="941.298,-95.9117 912.298,-95.9117 912.298,-77.9117 941.298,-77.9117 941.298,-95.9117"/>
<text text-anchor="middle" x="926.798" y="-84.7117" font-family="Times New Roman,serif" font-size="9.00">&#45;21</text>
</g>
<!-- &#45;21&#45;&gt;0 -->
<g id="edge78" class="edge"><title>&#45;21&#45;&gt;0</title>
<path fill="none" stroke="red" stroke-width="0.17386" d="M918.034,-77.8088C913.822,-74.0188 908.645,-69.5112 903.798,-65.6985 887.388,-52.7888 867.93,-39.2424 853.537,-29.5348"/>
<polygon fill="red" stroke="red" stroke-width="0.17386" points="855.152,-26.4042 844.894,-23.7551 851.261,-32.2232 855.152,-26.4042"/>
</g>
<!-- &#45;21&#45;&gt;1 -->
<g id="edge79" class="edge"><title>&#45;21&#45;&gt;1</title>
<path fill="none" stroke="red" stroke-width="0.122567" d="M921.522,-77.8746C914.901,-67.7908 903.309,-50.1351 894.182,-36.233"/>
<polygon fill="red" stroke="red" stroke-width="0.122567" points="897.031,-34.1951 888.616,-27.7567 891.179,-38.037 897.031,-34.1951"/>
</g>
<!-- &#45;21&#45;&gt;2 -->
<g id="edge80" class="edge"><title>&#45;21&#45;&gt;2</title>
<path fill="none" stroke="green" stroke-width="0.191898" d="M936.32,-77.8746C949.639,-66.631 974.111,-45.9737 991.136,-31.6025"/>
<polygon fill="green" stroke="green" stroke-width="0.191898" points="993.43,-34.2463 998.814,-25.1214 988.915,-28.8972 993.43,-34.2463"/>
</g>
<!-- &#45;21&#45;&gt;3 -->
<g id="edge81" class="edge"><title>&#45;21&#45;&gt;3</title>
<path fill="none" stroke="red" stroke-width="0.263222" d="M928.29,-77.8746C930.016,-68.572 932.938,-52.8252 935.405,-39.5264"/>
<polygon fill="red" stroke="red" stroke-width="0.263222" points="938.872,-40.0263 937.255,-29.5556 931.99,-38.7492 938.872,-40.0263"/>
</g>
<!-- &#45;22 -->
<g id="node22" class="node"><title>&#45;22</title>
<polygon fill="lightgray" stroke="black" points="988.298,-95.9117 959.298,-95.9117 959.298,-77.9117 988.298,-77.9117 988.298,-95.9117"/>
<text text-anchor="middle" x="973.798" y="-84.7117" font-family="Times New Roman,serif" font-size="9.00">&#45;22</text>
</g>
<!-- &#45;22&#45;&gt;0 -->
<g id="edge82" class="edge"><title>&#45;22&#45;&gt;0</title>
<path fill="none" stroke="red" stroke-width="0.314258" d="M965.845,-77.6513C961.654,-73.6442 956.259,-68.9967 950.798,-65.6985 912.505,-42.5684 897.187,-48.9381 856.798,-29.6985 855.962,-29.3002 855.116,-28.8836 854.267,-28.4535"/>
<polygon fill="red" stroke="red" stroke-width="0.314258" points="855.757,-25.2797 845.303,-23.5619 852.404,-31.4244 855.757,-25.2797"/>
</g>
<!-- &#45;22&#45;&gt;1 -->
<g id="edge83" class="edge"><title>&#45;22&#45;&gt;1</title>
<path fill="none" stroke="green" stroke-width="0.186635" d="M965.023,-77.8233C960.808,-74.0365 955.632,-69.5274 950.798,-65.6985 934.681,-52.932 915.631,-39.4644 901.476,-29.7503"/>
<polygon fill="green" stroke="green" stroke-width="0.186635" points="903.197,-26.688 892.961,-23.9538 899.258,-32.4745 903.197,-26.688"/>
</g>
<!-- &#45;22&#45;&gt;2 -->
<g id="edge84" class="edge"><title>&#45;22&#45;&gt;2</title>
<path fill="none" stroke="green" stroke-width="0.353005" d="M977.928,-77.8746C982.951,-68.0985 991.631,-51.2057 998.665,-37.5161"/>
<polygon fill="green" stroke="green" stroke-width="0.353005" points="1001.96,-38.7557 1003.42,-28.2615 995.737,-35.5565 1001.96,-38.7557"/>
</g>
<!-- &#45;22&#45;&gt;3 -->
<g id="edge85" class="edge"><title>&#45;22&#45;&gt;3</title>
<path fill="none" stroke="green" stroke-width="0.320064" d="M969.898,-77.8746C965.182,-68.1564 957.053,-51.4054 950.431,-37.7594"/>
<polygon fill="green" stroke="green" stroke-width="0.320064" points="953.461,-35.9853 945.946,-28.5167 947.163,-39.0414 953.461,-35.9853"/>
</g>
<!-- &#45;23 -->
<g id="node23" class="node"><title>&#45;23</title>
<polygon fill="lightgray" stroke="black" points="1035.3,-95.9117 1006.3,-95.9117 1006.3,-77.9117 1035.3,-77.9117 1035.3,-95.9117"/>
<text text-anchor="middle" x="1020.8" y="-84.7117" font-family="Times New Roman,serif" font-size="9.00">&#45;23</text>
</g>
<!-- &#45;23&#45;&gt;0 -->
<g id="edge86" class="edge"><title>&#45;23&#45;&gt;0</title>
<path fill="none" stroke="red" stroke-width="0.36379" d="M1013.41,-77.7849C1009.21,-73.613 1003.63,-68.7745 997.798,-65.6985 940.595,-35.5176 916.7,-54.089 856.798,-29.6985 855.941,-29.3493 855.076,-28.9742 854.211,-28.5793"/>
<polygon fill="red" stroke="red" stroke-width="0.36379" points="855.658,-25.3861 845.175,-23.8515 852.413,-31.5885 855.658,-25.3861"/>
</g>
<!-- &#45;23&#45;&gt;1 -->
<g id="edge87" class="edge"><title>&#45;23&#45;&gt;1</title>
<path fill="none" stroke="red" stroke-width="0.223757" d="M1012.79,-77.7364C1008.59,-73.751 1003.2,-69.0972 997.798,-65.6985 989.411,-60.4177 935.225,-38.019 903.617,-25.1147"/>
<polygon fill="red" stroke="red" stroke-width="0.223757" points="904.816,-21.8239 894.234,-21.2923 902.175,-28.3065 904.816,-21.8239"/>
</g>
<!-- &#45;23&#45;&gt;2 -->
<g id="edge88" class="edge"><title>&#45;23&#45;&gt;2</title>
<path fill="none" stroke="red" stroke-width="0.346964" d="M1019.54,-77.8746C1018.08,-68.572 1015.6,-52.8252 1013.52,-39.5264"/>
<polygon fill="red" stroke="red" stroke-width="0.346964" points="1016.96,-38.8917 1011.95,-29.5556 1010.04,-39.9774 1016.96,-38.8917"/>
</g>
<!-- &#45;23&#45;&gt;3 -->
<g id="edge89" class="edge"><title>&#45;23&#45;&gt;3</title>
<path fill="none" stroke="green" stroke-width="0.149975" d="M1011.42,-77.6273C1007.26,-73.9612 1002.29,-69.6041 997.798,-65.6985 984.734,-54.3445 969.936,-41.6278 958.557,-31.8803"/>
<polygon fill="green" stroke="green" stroke-width="0.149975" points="960.822,-29.2124 950.949,-25.3694 956.271,-34.5307 960.822,-29.2124"/>
</g>
<!-- &#45;24 -->
<g id="node24" class="node"><title>&#45;24</title>
<polygon fill="lightgray" stroke="black" points="1082.3,-95.9117 1053.3,-95.9117 1053.3,-77.9117 1082.3,-77.9117 1082.3,-95.9117"/>
<text text-anchor="middle" x="1067.8" y="-84.7117" font-family="Times New Roman,serif" font-size="9.00">&#45;24</text>
</g>
<!-- &#45;24&#45;&gt;0 -->
<g id="edge90" class="edge"><title>&#45;24&#45;&gt;0</title>
<path fill="none" stroke="green" stroke-width="0.173968" stroke-dasharray="1,5" d="M1060.48,-77.6425C1056.3,-73.4288 1050.72,-68.5959 1044.8,-65.6985 968.384,-28.3043 936.529,-59.3719 856.798,-29.6985 855.931,-29.3755 855.058,-29.0227 854.185,-28.6466"/>
<polygon fill="green" stroke="green" stroke-width="0.173968" points="855.611,-25.4448 845.114,-24.0064 852.423,-31.6767 855.611,-25.4448"/>
</g>
<!-- &#45;24&#45;&gt;1 -->
<g id="edge91" class="edge"><title>&#45;24&#45;&gt;1</title>
<path fill="none" stroke="red" stroke-width="0.49445" d="M1060.38,-77.8363C1056.17,-73.6794 1050.59,-68.8389 1044.8,-65.6985 992.464,-37.3404 972.217,-48.675 915.798,-29.6985 911.869,-28.3769 907.738,-26.8598 903.747,-25.3254"/>
<polygon fill="red" stroke="red" stroke-width="0.49445" points="904.892,-22.0143 894.306,-21.5765 902.308,-28.5201 904.892,-22.0143"/>
</g>
<!-- &#45;24&#45;&gt;2 -->
<g id="edge92" class="edge"><title>&#45;24&#45;&gt;2</title>
<path fill="none" stroke="green" stroke-width="0.167674" d="M1061.15,-77.8746C1052.57,-67.5161 1037.38,-49.1677 1025.74,-35.1057"/>
<polygon fill="green" stroke="green" stroke-width="0.167674" points="1028.11,-32.4849 1019.04,-27.0138 1022.72,-36.9487 1028.11,-32.4849"/>
</g>
<!-- &#45;24&#45;&gt;3 -->
<g id="edge93" class="edge"><title>&#45;24&#45;&gt;3</title>
<path fill="none" stroke="green" stroke-width="0.277232" d="M1059.73,-77.8283C1055.51,-73.8663 1050.13,-69.2057 1044.8,-65.6985 1018.46,-48.3629 985.157,-33.6182 963.203,-24.76"/>
<polygon fill="green" stroke="green" stroke-width="0.277232" points="964.285,-21.4246 953.699,-21.0073 961.715,-27.9354 964.285,-21.4246"/>
</g>
<!-- &#45;25 -->
<g id="node25" class="node"><title>&#45;25</title>
<polygon fill="lightgray" stroke="black" points="1129.3,-95.9117 1100.3,-95.9117 1100.3,-77.9117 1129.3,-77.9117 1129.3,-95.9117"/>
<text text-anchor="middle" x="1114.8" y="-84.7117" font-family="Times New Roman,serif" font-size="9.00">&#45;25</text>
</g>
<!-- &#45;25&#45;&gt;0 -->
<g id="edge94" class="edge"><title>&#45;25&#45;&gt;0</title>
<path fill="none" stroke="green" stroke-width="0.482197" d="M1107.52,-77.5543C1103.36,-73.3148 1097.77,-68.4853 1091.8,-65.6985 996.043,-21.027 956.494,-64.7057 856.798,-29.6985 855.925,-29.3917 855.047,-29.0527 854.17,-28.6881"/>
<polygon fill="green" stroke="green" stroke-width="0.482197" points="855.584,-25.4816 845.08,-24.102 852.431,-31.7313 855.584,-25.4816"/>
</g>
<!-- &#45;25&#45;&gt;1 -->
<g id="edge95" class="edge"><title>&#45;25&#45;&gt;1</title>
<path fill="none" stroke="red" stroke-width="0.188773" d="M1107.47,-77.6721C1103.28,-73.4671 1097.7,-68.633 1091.8,-65.6985 1020.3,-30.1542 992.323,-52.474 915.798,-29.6985 911.825,-28.5159 907.672,-27.0691 903.672,-25.5614"/>
<polygon fill="red" stroke="red" stroke-width="0.188773" points="904.819,-22.2511 894.234,-21.8047 902.23,-28.7548 904.819,-22.2511"/>
</g>
<!-- &#45;25&#45;&gt;2 -->
<g id="edge96" class="edge"><title>&#45;25&#45;&gt;2</title>
<path fill="none" stroke="green" stroke-width="0.266093" d="M1106.14,-77.6637C1101.96,-73.8419 1096.77,-69.3494 1091.8,-65.6985 1072.27,-51.3512 1048.46,-37.215 1031.54,-27.6816"/>
<polygon fill="green" stroke="green" stroke-width="0.266093" points="1032.9,-24.4325 1022.46,-22.6335 1029.5,-30.5509 1032.9,-24.4325"/>
</g>
<!-- &#45;25&#45;&gt;3 -->
<g id="edge97" class="edge"><title>&#45;25&#45;&gt;3</title>
<path fill="none" stroke="red" stroke-width="0.478677" d="M1106.91,-77.5376C1102.74,-73.5015 1097.34,-68.8623 1091.8,-65.6985 1080.43,-59.2026 1003.28,-35.212 963.468,-23.0372"/>
<polygon fill="red" stroke="red" stroke-width="0.478677" points="964.349,-19.647 953.763,-20.0773 962.307,-26.3425 964.349,-19.647"/>
</g>
<!-- &#45;26 -->
<g id="node26" class="node"><title>&#45;26</title>
<polygon fill="lightgray" stroke="black" points="1176.3,-95.9117 1147.3,-95.9117 1147.3,-77.9117 1176.3,-77.9117 1176.3,-95.9117"/>
<text text-anchor="middle" x="1161.8" y="-84.7117" font-family="Times New Roman,serif" font-size="9.00">&#45;26</text>
</g>
<!-- &#45;26&#45;&gt;0 -->
<g id="edge98" class="edge"><title>&#45;26&#45;&gt;0</title>
<path fill="none" stroke="green" stroke-width="0.303832" d="M1154.95,-77.9046C1150.75,-73.5511 1145,-68.4978 1138.8,-65.6985 1023.64,-13.7184 976.528,-70.0641 856.798,-29.6985 855.921,-29.4026 855.04,-29.073 854.16,-28.7163"/>
<polygon fill="green" stroke="green" stroke-width="0.303832" points="855.567,-25.5067 845.058,-24.1668 852.438,-31.7682 855.567,-25.5067"/>
</g>
<!-- &#45;26&#45;&gt;1 -->
<g id="edge99" class="edge"><title>&#45;26&#45;&gt;1</title>
<path fill="none" stroke="green" stroke-width="0.152796" d="M1154.52,-77.5734C1150.34,-73.3396 1144.76,-68.5093 1138.8,-65.6985 1047.99,-22.8888 1012.6,-56.324 915.798,-29.6985 911.801,-28.5991 907.636,-27.1941 903.631,-25.7025"/>
<polygon fill="green" stroke="green" stroke-width="0.152796" points="904.78,-22.3925 894.195,-21.941 902.188,-28.895 904.78,-22.3925"/>
</g>
<!-- &#45;26&#45;&gt;2 -->
<g id="edge100" class="edge"><title>&#45;26&#45;&gt;2</title>
<path fill="none" stroke="red" stroke-width="0.216671" d="M1153.84,-77.6583C1149.65,-73.6529 1144.25,-69.0049 1138.8,-65.6985 1104.72,-45.0444 1060.61,-30.2188 1033.8,-22.3454"/>
<polygon fill="red" stroke="red" stroke-width="0.216671" points="1034.67,-18.9562 1024.1,-19.5801 1032.75,-25.6879 1034.67,-18.9562"/>
</g>
<!-- &#45;26&#45;&gt;3 -->
<g id="edge101" class="edge"><title>&#45;26&#45;&gt;3</title>
<path fill="none" stroke="red" stroke-width="0.152661" d="M1154.43,-77.7409C1150.24,-73.5561 1144.66,-68.7193 1138.8,-65.6985 1076.71,-33.6853 1053.28,-47.7765 985.798,-29.6985 978.545,-27.7553 970.705,-25.466 963.586,-23.3144"/>
<polygon fill="red" stroke="red" stroke-width="0.152661" points="964.414,-19.9073 953.827,-20.3168 962.359,-26.5988 964.414,-19.9073"/>
</g>
<!-- &#45;27 -->
<g id="node27" class="node"><title>&#45;27</title>
<polygon fill="lightgray" stroke="black" points="1223.3,-95.9117 1194.3,-95.9117 1194.3,-77.9117 1223.3,-77.9117 1223.3,-95.9117"/>
<text text-anchor="middle" x="1208.8" y="-84.7117" font-family="Times New Roman,serif" font-size="9.00">&#45;27</text>
</g>
<!-- &#45;27&#45;&gt;0 -->
<g id="edge102" class="edge"><title>&#45;27&#45;&gt;0</title>
<path fill="none" stroke="green" stroke-width="0.194829" d="M1201.97,-77.8627C1197.78,-73.4952 1192.03,-68.4419 1185.8,-65.6985 1051.19,-6.39215 996.602,-75.4362 856.798,-29.6985 855.918,-29.4105 855.035,-29.0876 854.154,-28.7365"/>
<polygon fill="green" stroke="green" stroke-width="0.194829" points="855.555,-25.525 845.042,-24.2134 852.443,-31.7949 855.555,-25.525"/>
</g>
<!-- &#45;27&#45;&gt;1 -->
<g id="edge103" class="edge"><title>&#45;27&#45;&gt;1</title>
<path fill="none" stroke="red" stroke-width="0.738431" d="M1201.55,-77.5078C1197.38,-73.2547 1191.8,-68.4271 1185.8,-65.6985 1075.6,-15.5865 1032.96,-60.1971 915.798,-29.6985 911.787,-28.6541 907.614,-27.2769 903.606,-25.796"/>
<polygon fill="red" stroke="red" stroke-width="0.738431" points="904.755,-22.4862 894.17,-22.0314 902.161,-28.9879 904.755,-22.4862"/>
</g>
<!-- &#45;27&#45;&gt;2 -->
<g id="edge104" class="edge"><title>&#45;27&#45;&gt;2</title>
<path fill="none" stroke="red" stroke-width="0.210826" d="M1201.38,-77.8452C1197.17,-73.691 1191.59,-68.8501 1185.8,-65.6985 1136,-38.591 1070.06,-25.0482 1034.71,-19.3341"/>
<polygon fill="red" stroke="red" stroke-width="0.210826" points="1035.19,-15.8668 1024.78,-17.8058 1034.13,-22.7855 1035.19,-15.8668"/>
</g>
<!-- &#45;27&#45;&gt;3 -->
<g id="edge105" class="edge"><title>&#45;27&#45;&gt;3</title>
<path fill="none" stroke="red" stroke-width="0.340813" d="M1201.49,-77.6162C1197.32,-73.3949 1191.74,-68.563 1185.8,-65.6985 1104.45,-26.4505 1073.63,-50.7516 985.798,-29.6985 978.497,-27.9482 970.641,-25.7161 963.525,-23.5575"/>
<polygon fill="red" stroke="red" stroke-width="0.340813" points="964.366,-20.1537 953.778,-20.5124 962.279,-26.8352 964.366,-20.1537"/>
</g>
<!-- &#45;28 -->
<g id="node28" class="node"><title>&#45;28</title>
<polygon fill="lightgray" stroke="black" points="1270.3,-95.9117 1241.3,-95.9117 1241.3,-77.9117 1270.3,-77.9117 1270.3,-95.9117"/>
<text text-anchor="middle" x="1255.8" y="-84.7117" font-family="Times New Roman,serif" font-size="9.00">&#45;28</text>
</g>
<!-- &#45;28&#45;&gt;0 -->
<g id="edge106" class="edge"><title>&#45;28&#45;&gt;0</title>
<path fill="none" stroke="green" stroke-width="0.115875" d="M1248.98,-77.831C1244.79,-73.453 1239.04,-68.3997 1232.8,-65.6985 1078.72,0.944919 1016.7,-80.8167 856.798,-29.6985 855.745,-29.3616 854.686,-28.9734 853.633,-28.5459"/>
<polygon fill="green" stroke="green" stroke-width="0.115875" points="855.042,-25.3367 844.537,-23.9589 851.89,-31.5869 855.042,-25.3367"/>
</g>
<!-- &#45;28&#45;&gt;1 -->
<g id="edge107" class="edge"><title>&#45;28&#45;&gt;1</title>
<path fill="none" stroke="red" stroke-width="0.182511" d="M1248.96,-77.8722C1244.77,-73.5079 1239.02,-68.4546 1232.8,-65.6985 1103.16,-8.26391 1053.36,-64.0825 915.798,-29.6985 911.777,-28.6932 907.599,-27.3358 903.589,-25.8624"/>
<polygon fill="red" stroke="red" stroke-width="0.182511" points="904.739,-22.5527 894.154,-22.0955 902.144,-29.0538 904.739,-22.5527"/>
</g>
<!-- &#45;28&#45;&gt;2 -->
<g id="edge108" class="edge"><title>&#45;28&#45;&gt;2</title>
<path fill="none" stroke="red" stroke-width="0.101486" d="M1248.45,-77.7148C1244.25,-73.5223 1238.67,-68.6865 1232.8,-65.6985 1166.44,-31.9515 1077.53,-20.8938 1034.8,-17.395"/>
<polygon fill="red" stroke="red" stroke-width="0.101486" points="1034.97,-13.8979 1024.73,-16.6432 1034.45,-20.8784 1034.97,-13.8979"/>
</g>
<!-- &#45;28&#45;&gt;3 -->
<g id="edge109" class="edge"><title>&#45;28&#45;&gt;3</title>
<path fill="none" stroke="red" stroke-width="0.1953" stroke-dasharray="1,5" d="M1248.53,-77.5369C1244.37,-73.2924 1238.78,-68.4635 1232.8,-65.6985 1132.09,-19.1632 1094.1,-53.7551 985.798,-29.6985 978.468,-28.0702 970.605,-25.8743 963.489,-23.7114"/>
<polygon fill="red" stroke="red" stroke-width="0.1953" points="964.339,-20.3095 953.749,-20.6361 962.231,-26.9846 964.339,-20.3095"/>
</g>
<!-- &#45;29 -->
<g id="node29" class="node"><title>&#45;29</title>
<polygon fill="lightgray" stroke="black" points="1317.3,-95.9117 1288.3,-95.9117 1288.3,-77.9117 1317.3,-77.9117 1317.3,-95.9117"/>
<text text-anchor="middle" x="1302.8" y="-84.7117" font-family="Times New Roman,serif" font-size="9.00">&#45;29</text>
</g>
<!-- &#45;29&#45;&gt;0 -->
<g id="edge110" class="edge"><title>&#45;29&#45;&gt;0</title>
<path fill="none" stroke="green" stroke-width="0.269977" d="M1295.99,-77.8063C1291.81,-73.42 1286.06,-68.3667 1279.8,-65.6985 1106.23,8.28914 1036.82,-86.2026 856.798,-29.6985 855.743,-29.3671 854.683,-28.9835 853.629,-28.5598"/>
<polygon fill="green" stroke="green" stroke-width="0.269977" points="855.035,-25.3496 844.529,-23.9863 851.892,-31.6042 855.035,-25.3496"/>
</g>
<!-- &#45;29&#45;&gt;1 -->
<g id="edge111" class="edge"><title>&#45;29&#45;&gt;1</title>
<path fill="none" stroke="green" stroke-width="0.327788" d="M1295.98,-77.8383C1291.79,-73.4628 1286.04,-68.4095 1279.8,-65.6985 1130.69,-0.929169 1073.8,-67.9753 915.798,-29.6985 911.77,-28.7224 907.588,-27.3797 903.577,-25.9119"/>
<polygon fill="green" stroke="green" stroke-width="0.327788" points="904.727,-22.6024 894.142,-22.1434 902.131,-29.103 904.727,-22.6024"/>
</g>
<!-- &#45;29&#45;&gt;2 -->
<g id="edge112" class="edge"><title>&#45;29&#45;&gt;2</title>
<path fill="none" stroke="red" stroke-width="0.182919" d="M1295.49,-77.6268C1291.31,-73.4086 1285.73,-68.5763 1279.8,-65.6985 1196.47,-25.2634 1084.09,-17.4916 1034.77,-16.0941"/>
<polygon fill="red" stroke="red" stroke-width="0.182919" points="1034.77,-12.5934 1024.7,-15.875 1034.62,-19.5918 1034.77,-12.5934"/>
</g>
<!-- &#45;29&#45;&gt;3 -->
<g id="edge113" class="edge"><title>&#45;29&#45;&gt;3</title>
<path fill="none" stroke="green" stroke-width="0.19766" d="M1295.96,-77.8926C1291.76,-73.5352 1286.01,-68.4819 1279.8,-65.6985 1159.67,-11.8492 1114.63,-56.7724 985.798,-29.6985 978.45,-28.1542 970.581,-25.9832 963.466,-23.8173"/>
<polygon fill="green" stroke="green" stroke-width="0.19766" points="964.321,-20.4165 953.731,-20.7213 962.2,-27.0873 964.321,-20.4165"/>
</g>
<!-- &#45;30 -->
<g id="node30" class="node"><title>&#45;30</title>
<polygon fill="lightgray" stroke="black" points="1364.3,-95.9117 1335.3,-95.9117 1335.3,-77.9117 1364.3,-77.9117 1364.3,-95.9117"/>
<text text-anchor="middle" x="1349.8" y="-84.7117" font-family="Times New Roman,serif" font-size="9.00">&#45;30</text>
</g>
<!-- &#45;30&#45;&gt;0 -->
<g id="edge114" class="edge"><title>&#45;30&#45;&gt;0</title>
<path fill="none" stroke="green" stroke-width="0.222107" d="M1343,-77.7864C1338.82,-73.3935 1333.07,-68.3402 1326.8,-65.6985 1133.73,15.6383 1056.95,-91.5923 856.798,-29.6985 855.741,-29.3716 854.681,-28.9917 853.625,-28.5709"/>
<polygon fill="green" stroke="green" stroke-width="0.222107" points="855.03,-25.36 844.522,-24.0083 851.893,-31.618 855.03,-25.36"/>
</g>
<!-- &#45;30&#45;&gt;1 -->
<g id="edge115" class="edge"><title>&#45;30&#45;&gt;1</title>
<path fill="none" stroke="red" stroke-width="0.184855" d="M1342.99,-77.8121C1338.8,-73.4277 1333.05,-68.3744 1326.8,-65.6985 1158.21,6.41348 1094.25,-71.8727 915.798,-29.6985 911.695,-28.7286 907.436,-27.3676 903.361,-25.8744"/>
<polygon fill="red" stroke="red" stroke-width="0.184855" points="904.387,-22.5151 893.803,-22.0376 901.779,-29.0112 904.387,-22.5151"/>
</g>
<!-- &#45;30&#45;&gt;2 -->
<g id="edge116" class="edge"><title>&#45;30&#45;&gt;2</title>
<path fill="none" stroke="green" stroke-width="0.215828" d="M1342.52,-77.5637C1338.35,-73.327 1332.77,-68.4972 1326.8,-65.6985 1226.52,-18.675 1090.82,-14.6235 1035.18,-15.1605"/>
<polygon fill="green" stroke="green" stroke-width="0.215828" points="1034.81,-11.6659 1024.86,-15.3242 1034.92,-18.6651 1034.81,-11.6659"/>
</g>
<!-- &#45;30&#45;&gt;3 -->
<g id="edge117" class="edge"><title>&#45;30&#45;&gt;3</title>
<path fill="none" stroke="red" stroke-width="0.225521" d="M1342.97,-77.8538C1338.78,-73.4834 1333.03,-68.4301 1326.8,-65.6985 1187.22,-4.51971 1135.19,-59.7976 985.798,-29.6985 978.438,-28.2155 970.565,-26.0627 963.45,-23.8946"/>
<polygon fill="red" stroke="red" stroke-width="0.225521" points="964.309,-20.4946 953.718,-20.7834 962.177,-27.1622 964.309,-20.4946"/>
</g>
<!-- &#45;31 -->
<g id="node31" class="node"><title>&#45;31</title>
<polygon fill="lightgray" stroke="black" points="1411.3,-95.9117 1382.3,-95.9117 1382.3,-77.9117 1411.3,-77.9117 1411.3,-95.9117"/>
<text text-anchor="middle" x="1396.8" y="-84.7117" font-family="Times New Roman,serif" font-size="9.00">&#45;31</text>
</g>
<!-- &#45;31&#45;&gt;0 -->
<g id="edge118" class="edge"><title>&#45;31&#45;&gt;0</title>
<path fill="none" stroke="red" stroke-width="0.307411" d="M1390.01,-77.7701C1385.83,-73.3718 1380.08,-68.3185 1373.8,-65.6985 1161.22,22.9911 1077.09,-96.9848 856.798,-29.6985 855.74,-29.3753 854.679,-28.9983 853.622,-28.58"/>
<polygon fill="red" stroke="red" stroke-width="0.307411" points="855.026,-25.3685 844.516,-24.0264 851.895,-31.6294 855.026,-25.3685"/>
</g>
<!-- &#45;31&#45;&gt;1 -->
<g id="edge119" class="edge"><title>&#45;31&#45;&gt;1</title>
<path fill="none" stroke="green" stroke-width="0.21673" d="M1390,-77.7911C1385.82,-73.3998 1380.07,-68.3465 1373.8,-65.6985 1185.71,13.7615 1114.72,-75.7733 915.798,-29.6985 911.69,-28.7469 907.429,-27.3951 903.353,-25.9052"/>
<polygon fill="green" stroke="green" stroke-width="0.21673" points="904.38,-22.5459 893.796,-22.0668 901.771,-29.0416 904.38,-22.5459"/>
</g>
<!-- &#45;31&#45;&gt;2 -->
<g id="edge120" class="edge"><title>&#45;31&#45;&gt;2</title>
<path fill="none" stroke="green" stroke-width="0.167763" d="M1389.54,-77.5163C1385.38,-73.2657 1379.79,-68.4377 1373.8,-65.6985 1312.95,-37.897 1107.4,-22.1859 1035.16,-17.4187"/>
<polygon fill="green" stroke="green" stroke-width="0.167763" points="1034.96,-13.8985 1024.75,-16.7474 1034.51,-20.8839 1034.96,-13.8985"/>
</g>
<!-- &#45;31&#45;&gt;3 -->
<g id="edge121" class="edge"><title>&#45;31&#45;&gt;3</title>
<path fill="none" stroke="red" stroke-width="0.725233" d="M1389.99,-77.8241C1385.8,-73.4438 1380.05,-68.3905 1373.8,-65.6985 1214.74,2.81947 1155.79,-62.8275 985.798,-29.6985 978.428,-28.2621 970.553,-26.1231 963.439,-23.9534"/>
<polygon fill="red" stroke="red" stroke-width="0.725233" points="964.3,-20.5539 953.709,-20.8307 962.161,-27.2191 964.3,-20.5539"/>
</g>
<!-- &#45;32 -->
<g id="node32" class="node"><title>&#45;32</title>
<polygon fill="lightgray" stroke="black" points="1458.3,-95.9117 1429.3,-95.9117 1429.3,-77.9117 1458.3,-77.9117 1458.3,-95.9117"/>
<text text-anchor="middle" x="1443.8" y="-84.7117" font-family="Times New Roman,serif" font-size="9.00">&#45;32</text>
</g>
<!-- &#45;32&#45;&gt;0 -->
<g id="edge122" class="edge"><title>&#45;32&#45;&gt;0</title>
<path fill="none" stroke="red" stroke-width="0.137985" d="M1437.01,-77.7565C1432.84,-73.3537 1427.09,-68.3004 1420.8,-65.6985 1304.75,-17.676 977.014,-66.0389 856.798,-29.6985 855.739,-29.3783 854.677,-29.0039 853.62,-28.5876"/>
<polygon fill="red" stroke="red" stroke-width="0.137985" points="855.022,-25.3756 844.512,-24.0414 851.896,-31.6389 855.022,-25.3756"/>
</g>
<!-- &#45;32&#45;&gt;1 -->
<g id="edge123" class="edge"><title>&#45;32&#45;&gt;1</title>
<path fill="none" stroke="green" stroke-width="0.340158" d="M1437.01,-77.774C1432.83,-73.377 1427.08,-68.3237 1420.8,-65.6985 1317,-22.2925 1025.5,-54.6873 915.798,-29.6985 911.687,-28.7619 907.424,-27.4174 903.348,-25.9303"/>
<polygon fill="green" stroke="green" stroke-width="0.340158" points="904.375,-22.571 893.791,-22.0906 901.765,-29.0664 904.375,-22.571"/>
</g>
<!-- &#45;32&#45;&gt;2 -->
<g id="edge124" class="edge"><title>&#45;32&#45;&gt;2</title>
<path fill="none" stroke="green" stroke-width="0.408626" d="M1436.96,-77.89C1432.76,-73.5316 1427.01,-68.4783 1420.8,-65.6985 1351.08,-34.4921 1113.81,-20.7418 1035.28,-16.973"/>
<polygon fill="green" stroke="green" stroke-width="0.408626" points="1035.03,-13.4579 1024.88,-16.4885 1034.71,-20.4503 1035.03,-13.4579"/>
</g>
<!-- &#45;32&#45;&gt;3 -->
<g id="edge125" class="edge"><title>&#45;32&#45;&gt;3</title>
<path fill="none" stroke="red" stroke-width="0.258803" stroke-dasharray="1,5" d="M1437,-77.8008C1432.81,-73.4127 1427.06,-68.3594 1420.8,-65.6985 1242.25,10.1651 1176.39,-65.8605 985.798,-29.6985 978.421,-28.2988 970.544,-26.1707 963.43,-23.9996"/>
<polygon fill="red" stroke="red" stroke-width="0.258803" points="964.293,-20.6006 953.701,-20.8679 962.148,-27.2639 964.293,-20.6006"/>
</g>
<!-- &#45;33 -->
<g id="node33" class="node"><title>&#45;33</title>
<polygon fill="lightgray" stroke="black" points="1505.3,-95.9117 1476.3,-95.9117 1476.3,-77.9117 1505.3,-77.9117 1505.3,-95.9117"/>
<text text-anchor="middle" x="1490.8" y="-84.7117" font-family="Times New Roman,serif" font-size="9.00">&#45;33</text>
</g>
<!-- &#45;33&#45;&gt;0 -->
<g id="edge126" class="edge"><title>&#45;33&#45;&gt;0</title>
<path fill="none" stroke="red" stroke-width="0.394448" d="M1484.02,-77.7449C1479.84,-73.3383 1474.09,-68.285 1467.8,-65.6985 1341.99,-13.9973 987.089,-68.7369 856.798,-29.6985 855.739,-29.3809 854.675,-29.0086 853.618,-28.594"/>
<polygon fill="red" stroke="red" stroke-width="0.394448" points="855.019,-25.3817 844.508,-24.0542 851.897,-31.6469 855.019,-25.3817"/>
</g>
<!-- &#45;33&#45;&gt;1 -->
<g id="edge127" class="edge"><title>&#45;33&#45;&gt;1</title>
<path fill="none" stroke="red" stroke-width="0.151402" d="M1484.01,-77.7597C1479.83,-73.358 1474.08,-68.3047 1467.8,-65.6985 1354.25,-18.6151 1035.74,-56.6396 915.798,-29.6985 911.684,-28.7743 907.42,-27.436 903.343,-25.9511"/>
<polygon fill="red" stroke="red" stroke-width="0.151402" points="904.37,-22.5919 893.786,-22.1104 901.76,-29.087 904.37,-22.5919"/>
</g>
<!-- &#45;33&#45;&gt;2 -->
<g id="edge128" class="edge"><title>&#45;33&#45;&gt;2</title>
<path fill="none" stroke="red" stroke-width="0.32333" stroke-dasharray="1,5" d="M1483.97,-77.8613C1479.78,-73.4934 1474.03,-68.4401 1467.8,-65.6985 1388.98,-31.0009 1118.71,-19.4052 1034.83,-16.5967"/>
<polygon fill="red" stroke="red" stroke-width="0.32333" points="1034.8,-13.094 1024.7,-16.2702 1034.58,-20.0904 1034.8,-13.094"/>
</g>
<!-- &#45;33&#45;&gt;3 -->
<g id="edge129" class="edge"><title>&#45;33&#45;&gt;3</title>
<path fill="none" stroke="green" stroke-width="0.380133" stroke-dasharray="1,5" d="M1484,-77.7819C1479.82,-73.3876 1474.07,-68.3343 1467.8,-65.6985 1368.77,-24.0916 1091.4,-49.2971 985.798,-29.6985 978.416,-28.3284 970.536,-26.2091 963.423,-24.037"/>
<polygon fill="green" stroke="green" stroke-width="0.380133" points="964.287,-20.6383 953.696,-20.8979 962.138,-27.3 964.287,-20.6383"/>
</g>
<!-- &#45;34 -->
<g id="node34" class="node"><title>&#45;34</title>
<polygon fill="lightgray" stroke="black" points="1552.3,-95.9117 1523.3,-95.9117 1523.3,-77.9117 1552.3,-77.9117 1552.3,-95.9117"/>
<text text-anchor="middle" x="1537.8" y="-84.7117" font-family="Times New Roman,serif" font-size="9.00">&#45;34</text>
</g>
<!-- &#45;34&#45;&gt;0 -->
<g id="edge130" class="edge"><title>&#45;34&#45;&gt;0</title>
<path fill="none" stroke="green" stroke-width="0.281403" d="M1531.02,-77.735C1526.85,-73.3251 1521.1,-68.2718 1514.8,-65.6985 1379.23,-10.3178 997.166,-71.4355 856.798,-29.6985 855.738,-29.3831 854.674,-29.0127 853.616,-28.5995"/>
<polygon fill="green" stroke="green" stroke-width="0.281403" points="855.017,-25.3869 844.504,-24.0651 851.898,-31.6538 855.017,-25.3869"/>
</g>
<!-- &#45;34&#45;&gt;1 -->
<g id="edge131" class="edge"><title>&#45;34&#45;&gt;1</title>
<path fill="none" stroke="green" stroke-width="0.342749" d="M1531.02,-77.7477C1526.84,-73.342 1521.09,-68.2887 1514.8,-65.6985 1391.49,-14.9366 1045.98,-58.5924 915.798,-29.6985 911.682,-28.7848 907.416,-27.4517 903.339,-25.9687"/>
<polygon fill="green" stroke="green" stroke-width="0.342749" points="904.366,-22.6096 893.783,-22.1271 901.756,-29.1044 904.366,-22.6096"/>
</g>
<!-- &#45;34&#45;&gt;2 -->
<g id="edge132" class="edge"><title>&#45;34&#45;&gt;2</title>
<path fill="none" stroke="green" stroke-width="0.187027" d="M1530.98,-77.8379C1526.79,-73.4622 1521.04,-68.4089 1514.8,-65.6985 1426.95,-27.5472 1124.03,-18.2426 1034.75,-16.3049"/>
<polygon fill="green" stroke="green" stroke-width="0.187027" points="1034.79,-12.8051 1024.72,-16.0993 1034.65,-19.8037 1034.79,-12.8051"/>
</g>
<!-- &#45;34&#45;&gt;3 -->
<g id="edge133" class="edge"><title>&#45;34&#45;&gt;3</title>
<path fill="none" stroke="green" stroke-width="0.203867" d="M1531.01,-77.7664C1526.83,-73.3669 1521.08,-68.3136 1514.8,-65.6985 1406.02,-20.4148 1101.72,-50.8155 985.798,-29.6985 978.411,-28.3528 970.531,-26.2407 963.417,-24.0677"/>
<polygon fill="green" stroke="green" stroke-width="0.203867" points="964.283,-20.6693 953.691,-20.9227 962.129,-27.3297 964.283,-20.6693"/>
</g>
<!-- &#45;35 -->
<g id="node35" class="node"><title>&#45;35</title>
<polygon fill="lightgray" stroke="black" points="1599.3,-95.9117 1570.3,-95.9117 1570.3,-77.9117 1599.3,-77.9117 1599.3,-95.9117"/>
<text text-anchor="middle" x="1584.8" y="-84.7117" font-family="Times New Roman,serif" font-size="9.00">&#45;35</text>
</g>
<!-- &#45;35&#45;&gt;0 -->
<g id="edge134" class="edge"><title>&#45;35&#45;&gt;0</title>
<path fill="none" stroke="red" stroke-width="0.225694" d="M1578.03,-77.7264C1573.85,-73.3136 1568.1,-68.2603 1561.8,-65.6985 1416.47,-6.63761 1007.24,-74.1345 856.798,-29.6985 855.737,-29.3851 854.673,-29.0162 853.615,-28.6043"/>
<polygon fill="red" stroke="red" stroke-width="0.225694" points="855.014,-25.3914 844.502,-24.0746 851.899,-31.6598 855.014,-25.3914"/>
</g>
<!-- &#45;35&#45;&gt;1 -->
<g id="edge135" class="edge"><title>&#45;35&#45;&gt;1</title>
<path fill="none" stroke="green" stroke-width="0.194797" d="M1578.02,-77.7374C1573.85,-73.3283 1568.1,-68.275 1561.8,-65.6985 1428.73,-11.2573 1056.23,-60.5458 915.798,-29.6985 911.68,-28.7937 907.413,-27.4651 903.336,-25.9838"/>
<polygon fill="green" stroke="green" stroke-width="0.194797" points="904.363,-22.6246 893.779,-22.1415 901.752,-29.1193 904.363,-22.6246"/>
</g>
<!-- &#45;35&#45;&gt;2 -->
<g id="edge136" class="edge"><title>&#45;35&#45;&gt;2</title>
<path fill="none" stroke="red" stroke-width="0.364952" stroke-dasharray="1,5" d="M1577.99,-77.8184C1573.8,-73.4362 1568.05,-68.3829 1561.8,-65.6985 1464.95,-24.1171 1129.61,-17.1972 1034.89,-16.0661"/>
<polygon fill="red" stroke="red" stroke-width="0.364952" points="1034.84,-12.5654 1024.8,-15.9572 1034.76,-19.565 1034.84,-12.5654"/>
</g>
<!-- &#45;35&#45;&gt;3 -->
<g id="edge137" class="edge"><title>&#45;35&#45;&gt;3</title>
<path fill="none" stroke="green" stroke-width="0.125981" d="M1578.02,-77.7534C1573.84,-73.3495 1568.09,-68.2962 1561.8,-65.6985 1443.26,-16.7368 1112.03,-52.3345 985.798,-29.6985 978.408,-28.3732 970.526,-26.2672 963.413,-24.0935"/>
<polygon fill="green" stroke="green" stroke-width="0.125981" points="964.279,-20.6953 953.687,-20.9434 962.122,-27.3546 964.279,-20.6953"/>
</g>
<!-- &#45;36 -->
<g id="node36" class="node"><title>&#45;36</title>
<polygon fill="lightgray" stroke="black" points="1646.3,-95.9117 1617.3,-95.9117 1617.3,-77.9117 1646.3,-77.9117 1646.3,-95.9117"/>
<text text-anchor="middle" x="1631.8" y="-84.7117" font-family="Times New Roman,serif" font-size="9.00">&#45;36</text>
</g>
<!-- &#45;36&#45;&gt;0 -->
<g id="edge138" class="edge"><title>&#45;36&#45;&gt;0</title>
<path fill="none" stroke="red" stroke-width="0.136776" d="M1625.03,-77.7189C1620.86,-73.3036 1615.11,-68.2503 1608.8,-65.6985 1453.71,-2.95694 1017.32,-76.834 856.798,-29.6985 855.737,-29.3868 854.672,-29.0193 853.614,-28.6085"/>
<polygon fill="red" stroke="red" stroke-width="0.136776" points="855.012,-25.3953 844.499,-24.083 851.899,-31.665 855.012,-25.3953"/>
</g>
<!-- &#45;36&#45;&gt;1 -->
<g id="edge139" class="edge"><title>&#45;36&#45;&gt;1</title>
<path fill="none" stroke="red" stroke-width="0.22016" d="M1625.03,-77.7285C1620.85,-73.3164 1615.1,-68.2631 1608.8,-65.6985 1465.96,-7.57727 1066.48,-62.4995 915.798,-29.6985 911.678,-28.8015 907.411,-27.4767 903.333,-25.9968"/>
<polygon fill="red" stroke="red" stroke-width="0.22016" points="904.36,-22.6377 893.777,-22.1538 901.749,-29.1322 904.36,-22.6377"/>
</g>
<!-- &#45;36&#45;&gt;2 -->
<g id="edge140" class="edge"><title>&#45;36&#45;&gt;2</title>
<path fill="none" stroke="green" stroke-width="0.283176" d="M1624.99,-77.8019C1620.81,-73.4142 1615.06,-68.3609 1608.8,-65.6985 1502.81,-20.6371 1134.29,-16.2222 1034.75,-15.8611"/>
<polygon fill="green" stroke="green" stroke-width="0.283176" points="1034.72,-12.3612 1024.71,-15.8357 1034.7,-19.3611 1034.72,-12.3612"/>
</g>
<!-- &#45;36&#45;&gt;3 -->
<g id="edge141" class="edge"><title>&#45;36&#45;&gt;3</title>
<path fill="none" stroke="green" stroke-width="0.165014" d="M1625.02,-77.7423C1620.84,-73.3347 1615.09,-68.2814 1608.8,-65.6985 1480.5,-13.0579 1122.35,-53.8539 985.798,-29.6985 978.404,-28.3906 970.522,-26.2897 963.409,-24.1154"/>
<polygon fill="green" stroke="green" stroke-width="0.165014" points="964.276,-20.7173 953.684,-20.961 962.116,-27.3758 964.276,-20.7173"/>
</g>
<!-- &#45;37 -->
<g id="node37" class="node"><title>&#45;37</title>
<polygon fill="lightgray" stroke="black" points="1693.3,-95.9117 1664.3,-95.9117 1664.3,-77.9117 1693.3,-77.9117 1693.3,-95.9117"/>
<text text-anchor="middle" x="1678.8" y="-84.7117" font-family="Times New Roman,serif" font-size="9.00">&#45;37</text>
</g>
<!-- &#45;37&#45;&gt;0 -->
<g id="edge142" class="edge"><title>&#45;37&#45;&gt;0</title>
<path fill="none" stroke="green" stroke-width="0.147213" d="M1672.03,-77.7123C1667.86,-73.2947 1662.11,-68.2414 1655.8,-65.6985 1490.94,0.724151 1027.4,-79.5338 856.798,-29.6985 855.736,-29.3882 854.671,-29.022 853.613,-28.6122"/>
<polygon fill="green" stroke="green" stroke-width="0.147213" points="855.011,-25.3988 844.497,-24.0903 851.9,-31.6697 855.011,-25.3988"/>
</g>
<!-- &#45;37&#45;&gt;1 -->
<g id="edge143" class="edge"><title>&#45;37&#45;&gt;1</title>
<path fill="none" stroke="green" stroke-width="0.408977" d="M1672.03,-77.7208C1667.86,-73.306 1662.11,-68.2527 1655.8,-65.6985 1503.2,-3.89673 1076.73,-64.4536 915.798,-29.6985 911.677,-28.8083 907.409,-27.4869 903.33,-26.0082"/>
<polygon fill="green" stroke="green" stroke-width="0.408977" points="904.358,-22.6491 893.774,-22.1646 901.746,-29.1435 904.358,-22.6491"/>
</g>
<!-- &#45;37&#45;&gt;2 -->
<g id="edge144" class="edge"><title>&#45;37&#45;&gt;2</title>
<path fill="none" stroke="green" stroke-width="0.495765" d="M1672,-77.7877C1667.82,-73.3953 1662.07,-68.342 1655.8,-65.6985 1540.79,-17.209 1139.75,-15.3276 1034.99,-15.6862"/>
<polygon fill="green" stroke="green" stroke-width="0.495765" points="1034.73,-12.1873 1024.75,-15.7322 1034.76,-19.1872 1034.73,-12.1873"/>
</g>
<!-- &#45;37&#45;&gt;3 -->
<g id="edge145" class="edge"><title>&#45;37&#45;&gt;3</title>
<path fill="none" stroke="red" stroke-width="0.447866" d="M1672.02,-77.7327C1667.85,-73.322 1662.1,-68.2687 1655.8,-65.6985 1517.74,-9.3782 1132.67,-55.3736 985.798,-29.6985 978.402,-28.4055 970.518,-26.3091 963.405,-24.1342"/>
<polygon fill="red" stroke="red" stroke-width="0.447866" points="964.274,-20.7363 953.682,-20.9761 962.111,-27.394 964.274,-20.7363"/>
</g>
<!-- &#45;38 -->
<g id="node38" class="node"><title>&#45;38</title>
<polygon fill="lightgray" stroke="black" points="134.298,-95.9117 105.298,-95.9117 105.298,-77.9117 134.298,-77.9117 134.298,-95.9117"/>
<text text-anchor="middle" x="119.798" y="-84.7117" font-family="Times New Roman,serif" font-size="9.00">&#45;38</text>
</g>
<!-- &#45;38&#45;&gt;0 -->
<g id="edge146" class="edge"><title>&#45;38&#45;&gt;0</title>
<path fill="none" stroke="red" stroke-width="0.194281" d="M126.591,-77.7762C130.772,-73.38 136.522,-68.3267 142.798,-65.6985 266.371,-13.9535 698.562,-14.5379 807.645,-15.5434"/>
<polygon fill="red" stroke="red" stroke-width="0.194281" points="807.68,-19.0438 817.715,-15.6464 807.751,-12.0442 807.68,-19.0438"/>
</g>
<!-- &#45;38&#45;&gt;1 -->
<g id="edge147" class="edge"><title>&#45;38&#45;&gt;1</title>
<path fill="none" stroke="green" stroke-width="0.197729" stroke-dasharray="1,5" d="M126.57,-77.7249C130.744,-73.3116 136.494,-68.2583 142.798,-65.6985 289.996,-5.93283 704.423,-74.6514 856.798,-29.6985 857.86,-29.3854 858.924,-29.0168 859.982,-28.6052"/>
<polygon fill="green" stroke="green" stroke-width="0.197729" points="861.698,-31.6608 869.096,-24.0763 858.583,-25.3922 861.698,-31.6608"/>
</g>
<!-- &#45;38&#45;&gt;2 -->
<g id="edge148" class="edge"><title>&#45;38&#45;&gt;2</title>
<path fill="none" stroke="green" stroke-width="0.367171" d="M126.564,-77.7094C130.736,-73.2909 136.486,-68.2376 142.798,-65.6985 312.227,2.44734 783.754,-60.2578 963.798,-29.6985 971.201,-28.442 979.087,-26.3564 986.199,-24.1802"/>
<polygon fill="green" stroke="green" stroke-width="0.367171" points="987.498,-27.4385 995.922,-21.0131 985.329,-20.7827 987.498,-27.4385"/>
</g>
<!-- &#45;38&#45;&gt;3 -->
<g id="edge149" class="edge"><title>&#45;38&#45;&gt;3</title>
<path fill="none" stroke="red" stroke-width="0.167171" d="M126.567,-77.7174C130.74,-73.3016 136.49,-68.2483 142.798,-65.6985 299.968,-2.17376 739.071,-65.3683 904.798,-29.6985 908.921,-28.8112 913.189,-27.4912 917.268,-26.0131"/>
<polygon fill="red" stroke="red" stroke-width="0.167171" points="918.852,-29.1483 926.824,-22.1692 916.24,-22.654 918.852,-29.1483"/>
</g>
<!-- &#45;39 -->
<g id="node39" class="node"><title>&#45;39</title>
<polygon fill="lightgray" stroke="black" points="1868.3,-95.9117 1839.3,-95.9117 1839.3,-77.9117 1868.3,-77.9117 1868.3,-95.9117"/>
<text text-anchor="middle" x="1853.8" y="-84.7117" font-family="Times New Roman,serif" font-size="9.00">&#45;39</text>
</g>
<!-- &#45;39&#45;&gt;1 -->
<g id="edge150" class="edge"><title>&#45;39&#45;&gt;1</title>
<path fill="none" stroke="green" stroke-width="0.137212" d="M1847.04,-77.6988C1842.87,-73.2767 1837.12,-68.2234 1830.8,-65.6985 1641.84,9.81077 1114.9,-71.7311 915.798,-29.6985 911.672,-28.8274 907.403,-27.5155 903.324,-26.0403"/>
<polygon fill="green" stroke="green" stroke-width="0.137212" points="904.352,-22.6813 893.768,-22.1952 901.738,-29.1753 904.352,-22.6813"/>
</g>
<!-- &#45;39&#45;&gt;2 -->
<g id="edge151" class="edge"><title>&#45;39&#45;&gt;2</title>
<path fill="none" stroke="red" stroke-width="0.31478" d="M1847.02,-77.7492C1842.84,-73.3439 1837.09,-68.2906 1830.8,-65.6985 1755.67,-34.7437 1165.1,-19.4263 1035.07,-16.4102"/>
<polygon fill="red" stroke="red" stroke-width="0.31478" points="1034.97,-12.9072 1024.9,-16.1777 1034.81,-19.9054 1034.97,-12.9072"/>
</g>
<!-- &#45;39&#45;&gt;3 -->
<g id="edge152" class="edge"><title>&#45;39&#45;&gt;3</title>
<path fill="none" stroke="red" stroke-width="0.185581" d="M1847.03,-77.7065C1842.86,-73.287 1837.11,-68.2337 1830.8,-65.6985 1656.38,4.32726 1171.12,-61.0343 985.798,-29.6985 978.395,-28.4466 970.509,-26.3623 963.396,-24.186"/>
<polygon fill="red" stroke="red" stroke-width="0.185581" points="964.267,-20.7885 953.675,-21.0178 962.098,-27.4441 964.267,-20.7885"/>
</g>
<!-- &#45;40 -->
<g id="node40" class="node"><title>&#45;40</title>
<polygon fill="lightgray" stroke="black" points="181.298,-95.9117 152.298,-95.9117 152.298,-77.9117 181.298,-77.9117 181.298,-95.9117"/>
<text text-anchor="middle" x="166.798" y="-84.7117" font-family="Times New Roman,serif" font-size="9.00">&#45;40</text>
</g>
<!-- &#45;40&#45;&gt;0 -->
<g id="edge153" class="edge"><title>&#45;40&#45;&gt;0</title>
<path fill="none" stroke="red" stroke-width="0.13109" d="M173.959,-77.7872C178.346,-73.3946 184.346,-68.3413 190.798,-65.6985 305.587,-18.6851 703.786,-15.7207 807.789,-15.7647"/>
<polygon fill="red" stroke="red" stroke-width="0.13109" points="807.953,-19.2649 817.959,-15.7795 807.964,-12.2649 807.953,-19.2649"/>
</g>
<!-- &#45;40&#45;&gt;1 -->
<g id="edge154" class="edge"><title>&#45;40&#45;&gt;1</title>
<path fill="none" stroke="red" stroke-width="0.182349" d="M173.936,-77.7302C178.315,-73.3186 184.315,-68.2653 190.798,-65.6985 328.607,-11.1381 714.716,-71.8948 856.798,-29.6985 857.859,-29.3835 858.923,-29.0133 859.981,-28.6004"/>
<polygon fill="red" stroke="red" stroke-width="0.182349" points="861.699,-31.6549 869.093,-24.0669 858.581,-25.3877 861.699,-31.6549"/>
</g>
<!-- &#45;40&#45;&gt;2 -->
<g id="edge155" class="edge"><title>&#45;40&#45;&gt;2</title>
<path fill="none" stroke="red" stroke-width="0.443089" d="M173.929,-77.712C178.306,-73.2944 184.306,-68.2411 190.798,-65.6985 350.922,-2.99323 794.299,-58.705 963.798,-29.6985 971.2,-28.4319 979.084,-26.3433 986.197,-24.1675"/>
<polygon fill="red" stroke="red" stroke-width="0.443089" points="987.494,-27.4262 995.92,-21.0029 985.328,-20.7699 987.494,-27.4262"/>
</g>
<!-- &#45;40&#45;&gt;3 -->
<g id="edge156" class="edge"><title>&#45;40&#45;&gt;3</title>
<path fill="none" stroke="green" stroke-width="0.215134" d="M173.933,-77.7214C178.311,-73.3068 184.311,-68.2535 190.798,-65.6985 338.617,-7.48461 749.54,-63.3726 904.798,-29.6985 908.92,-28.8046 913.187,-27.4814 917.265,-26.0021"/>
<polygon fill="green" stroke="green" stroke-width="0.215134" points="918.85,-29.1374 926.821,-22.1588 916.238,-22.643 918.85,-29.1374"/>
</g>
<!-- 181&#45;&gt;2 -->
<g id="edge158" class="edge"><title>181&#45;&gt;2</title>
<path fill="none" stroke="green" stroke-width="0.1049" d="M1891.82,-72.8714C1887.51,-70.0086 1882.68,-67.3435 1877.8,-65.6985 1715.7,-11.0545 1160.21,-14.0953 1035,-15.5102"/>
<polygon fill="green" stroke="green" stroke-width="0.1049" points="1034.82,-12.012 1024.87,-15.6322 1034.91,-19.0115 1034.82,-12.012"/>
</g>
</g>
</svg>
