<?xml version="1.0" encoding="UTF-8" standalone="no"?>
<!DOCTYPE svg PUBLIC "-//W3C//DTD SVG 1.1//EN"
 "http://www.w3.org/Graphics/SVG/1.1/DTD/svg11.dtd">
<!-- Generated by graphviz version 2.38.0 (20140413.2041)
 -->
<!-- Title: %3 Pages: 1 -->
<svg width="2133pt" height="170pt"
 viewBox="0.00 0.00 2133.46 170.12" xmlns="http://www.w3.org/2000/svg" xmlns:xlink="http://www.w3.org/1999/xlink">
<g id="graph0" class="graph" transform="scale(1 1) rotate(0) translate(4 166.125)">
<title>%3</title>
<polygon fill="white" stroke="none" points="-4,4 -4,-166.125 2129.46,-166.125 2129.46,4 -4,4"/>
<!-- &#45;1 -->
<g id="node1" class="node"><title>&#45;1</title>
<polygon fill="lightgray" stroke="black" points="631.243,-95.9117 607.243,-95.9117 607.243,-77.9117 631.243,-77.9117 631.243,-95.9117"/>
<text text-anchor="middle" x="619.243" y="-84.7117" font-family="Times New Roman,serif" font-size="9.00">&#45;1</text>
</g>
<!-- 0 -->
<g id="node41" class="node"><title>0</title>
<ellipse fill="lightblue" stroke="black" cx="916.243" cy="-14.8492" rx="14.7" ry="14.7"/>
<text text-anchor="middle" x="916.243" y="-12.6492" font-family="Times New Roman,serif" font-size="9.00">0</text>
</g>
<!-- &#45;1&#45;&gt;0 -->
<g id="edge1" class="edge"><title>&#45;1&#45;&gt;0</title>
<path fill="none" stroke="green" stroke-width="0.166526" d="M625.778,-77.6093C629.554,-73.3859 634.656,-68.5542 640.243,-65.6985 724.689,-22.537 840.4,-16.1966 890.921,-15.6328"/>
<polygon fill="green" stroke="green" stroke-width="0.166526" points="891.238,-19.1317 901.223,-15.5906 891.209,-12.1317 891.238,-19.1317"/>
</g>
<!-- 1 -->
<g id="node42" class="node"><title>1</title>
<ellipse fill="lightblue" stroke="black" cx="964.243" cy="-14.8492" rx="14.7" ry="14.7"/>
<text text-anchor="middle" x="964.243" y="-12.6492" font-family="Times New Roman,serif" font-size="9.00">1</text>
</g>
<!-- &#45;1&#45;&gt;1 -->
<g id="edge2" class="edge"><title>&#45;1&#45;&gt;1</title>
<path fill="none" stroke="red" stroke-width="0.282209" d="M625.354,-77.8869C629.14,-73.5275 634.39,-68.4742 640.243,-65.6985 761.577,-8.15074 812.829,-72.1203 940.243,-29.6985 941.121,-29.4059 942.004,-29.0791 942.884,-28.7248"/>
<polygon fill="red" stroke="red" stroke-width="0.282209" points="944.601,-31.7794 951.99,-24.1863 941.479,-25.5144 944.601,-31.7794"/>
</g>
<!-- 2 -->
<g id="node43" class="node"><title>2</title>
<ellipse fill="lightblue" stroke="black" cx="1103.24" cy="-14.8492" rx="14.7" ry="14.7"/>
<text text-anchor="middle" x="1103.24" y="-12.6492" font-family="Times New Roman,serif" font-size="9.00">2</text>
</g>
<!-- &#45;1&#45;&gt;2 -->
<g id="edge3" class="edge"><title>&#45;1&#45;&gt;2</title>
<path fill="none" stroke="red" stroke-width="0.3989" d="M625.337,-77.8509C629.118,-73.4796 634.368,-68.4263 640.243,-65.6985 710.758,-32.957 910.979,-38.3466 988.243,-29.6985 1019.3,-26.2226 1055.02,-21.8637 1078.31,-18.9745"/>
<polygon fill="red" stroke="red" stroke-width="0.3989" points="1078.87,-22.4309 1088.37,-17.7217 1078.01,-15.4846 1078.87,-22.4309"/>
</g>
<!-- 3 -->
<g id="node44" class="node"><title>3</title>
<ellipse fill="lightblue" stroke="black" cx="1151.24" cy="-14.8492" rx="14.7" ry="14.7"/>
<text text-anchor="middle" x="1151.24" y="-12.6492" font-family="Times New Roman,serif" font-size="9.00">3</text>
</g>
<!-- &#45;1&#45;&gt;3 -->
<g id="edge4" class="edge"><title>&#45;1&#45;&gt;3</title>
<path fill="none" stroke="green" stroke-width="0.255965" d="M625.307,-77.7862C629.079,-73.3932 634.329,-68.3399 640.243,-65.6985 838.411,22.8095 919.811,-93.5425 1127.24,-29.6985 1128.3,-29.373 1129.36,-28.9942 1130.42,-28.5743"/>
<polygon fill="green" stroke="green" stroke-width="0.255965" points="1132.15,-31.6224 1139.52,-24.0153 1129.01,-25.3632 1132.15,-31.6224"/>
</g>
<!-- &#45;2 -->
<g id="node2" class="node"><title>&#45;2</title>
<polygon fill="lightgray" stroke="black" points="673.243,-95.9117 649.243,-95.9117 649.243,-77.9117 673.243,-77.9117 673.243,-95.9117"/>
<text text-anchor="middle" x="661.243" y="-84.7117" font-family="Times New Roman,serif" font-size="9.00">&#45;2</text>
</g>
<!-- &#45;2&#45;&gt;0 -->
<g id="edge5" class="edge"><title>&#45;2&#45;&gt;0</title>
<path fill="none" stroke="green" stroke-width="0.263755" d="M667.814,-77.6785C671.601,-73.4754 676.701,-68.6411 682.243,-65.6985 751.743,-28.7972 846.526,-19.2124 891.111,-16.7228"/>
<polygon fill="green" stroke="green" stroke-width="0.263755" points="891.499,-20.2082 901.319,-16.2304 891.162,-13.2164 891.499,-20.2082"/>
</g>
<!-- &#45;2&#45;&gt;1 -->
<g id="edge6" class="edge"><title>&#45;2&#45;&gt;1</title>
<path fill="none" stroke="red" stroke-width="0.481327" d="M667.734,-77.5196C671.496,-73.2699 676.599,-68.4418 682.243,-65.6985 786.369,-15.0814 830.75,-67.3257 940.243,-29.6985 941.119,-29.3975 941.998,-29.0635 942.877,-28.7031"/>
<polygon fill="red" stroke="red" stroke-width="0.481327" points="944.607,-31.751 951.973,-24.1366 941.466,-25.495 944.607,-31.751"/>
</g>
<!-- &#45;2&#45;&gt;2 -->
<g id="edge7" class="edge"><title>&#45;2&#45;&gt;2</title>
<path fill="none" stroke="green" stroke-width="0.15209" d="M667.351,-77.8818C671.137,-73.5207 676.387,-68.4674 682.243,-65.6985 806.038,-7.15954 852.265,-45.8849 988.243,-29.6985 1019.27,-26.0048 1055,-21.6926 1078.3,-18.8736"/>
<polygon fill="green" stroke="green" stroke-width="0.15209" points="1078.85,-22.332 1088.36,-17.655 1078.01,-15.3827 1078.85,-22.332"/>
</g>
<!-- &#45;2&#45;&gt;3 -->
<g id="edge8" class="edge"><title>&#45;2&#45;&gt;3</title>
<path fill="none" stroke="green" stroke-width="0.14063" stroke-dasharray="1,5" d="M667.314,-77.8015C671.088,-73.4137 676.338,-68.3604 682.243,-65.6985 863.136,15.8475 937.802,-88.725 1127.24,-29.6985 1128.3,-29.3693 1129.36,-28.9876 1130.41,-28.5652"/>
<polygon fill="green" stroke="green" stroke-width="0.14063" points="1132.15,-31.611 1139.52,-23.9972 1129.01,-25.3547 1132.15,-31.611"/>
</g>
<!-- &#45;3 -->
<g id="node3" class="node"><title>&#45;3</title>
<polygon fill="lightgray" stroke="black" points="715.243,-95.9117 691.243,-95.9117 691.243,-77.9117 715.243,-77.9117 715.243,-95.9117"/>
<text text-anchor="middle" x="703.243" y="-84.7117" font-family="Times New Roman,serif" font-size="9.00">&#45;3</text>
</g>
<!-- &#45;3&#45;&gt;0 -->
<g id="edge9" class="edge"><title>&#45;3&#45;&gt;0</title>
<path fill="none" stroke="red" stroke-width="0.189012" d="M709.867,-77.7755C713.669,-73.6008 718.767,-68.7626 724.243,-65.6985 778.949,-35.0861 852.933,-22.8041 891.119,-18.2623"/>
<polygon fill="red" stroke="red" stroke-width="0.189012" points="891.774,-21.7114 901.328,-17.1334 891.004,-14.7538 891.774,-21.7114"/>
</g>
<!-- &#45;3&#45;&gt;1 -->
<g id="edge10" class="edge"><title>&#45;3&#45;&gt;1</title>
<path fill="none" stroke="red" stroke-width="0.285543" d="M709.763,-77.579C713.534,-73.3468 718.636,-68.5163 724.243,-65.6985 811.201,-21.9927 848.629,-62.5456 940.243,-29.6985 941.115,-29.3859 941.991,-29.0421 942.866,-28.6734"/>
<polygon fill="red" stroke="red" stroke-width="0.285543" points="944.613,-31.7119 951.949,-24.0682 941.448,-25.4685 944.613,-31.7119"/>
</g>
<!-- &#45;3&#45;&gt;2 -->
<g id="edge11" class="edge"><title>&#45;3&#45;&gt;2</title>
<path fill="none" stroke="red" stroke-width="0.317802" d="M709.725,-77.5019C713.485,-73.247 718.589,-68.4196 724.243,-65.6985 732.291,-61.8253 994.949,-29.1987 1078.2,-18.9303"/>
<polygon fill="red" stroke="red" stroke-width="0.317802" points="1078.79,-22.384 1088.29,-17.6871 1077.93,-15.4365 1078.79,-22.384"/>
</g>
<!-- &#45;3&#45;&gt;3 -->
<g id="edge12" class="edge"><title>&#45;3&#45;&gt;3</title>
<path fill="none" stroke="green" stroke-width="0.136013" d="M709.322,-77.8201C713.099,-73.4384 718.349,-68.3851 724.243,-65.6985 887.869,8.88914 955.785,-83.9102 1127.24,-29.6985 1128.3,-29.3649 1129.36,-28.9795 1130.41,-28.5543"/>
<polygon fill="green" stroke="green" stroke-width="0.136013" points="1132.15,-31.5973 1139.51,-23.9754 1129,-25.3445 1132.15,-31.5973"/>
</g>
<!-- &#45;4 -->
<g id="node4" class="node"><title>&#45;4</title>
<polygon fill="lightgray" stroke="black" points="757.243,-95.9117 733.243,-95.9117 733.243,-77.9117 757.243,-77.9117 757.243,-95.9117"/>
<text text-anchor="middle" x="745.243" y="-84.7117" font-family="Times New Roman,serif" font-size="9.00">&#45;4</text>
</g>
<!-- &#45;4&#45;&gt;0 -->
<g id="edge13" class="edge"><title>&#45;4&#45;&gt;0</title>
<path fill="none" stroke="green" stroke-width="0.149804" d="M752.326,-77.5179C756.107,-73.4768 761.046,-68.8391 766.243,-65.6985 806.791,-41.1949 860.869,-27.0697 891.787,-20.469"/>
<polygon fill="green" stroke="green" stroke-width="0.149804" points="892.6,-23.8752 901.697,-18.4434 891.198,-17.017 892.6,-23.8752"/>
</g>
<!-- &#45;4&#45;&gt;1 -->
<g id="edge14" class="edge"><title>&#45;4&#45;&gt;1</title>
<path fill="none" stroke="green" stroke-width="0.40822" d="M751.808,-77.6655C755.592,-73.4586 760.692,-68.6248 766.243,-65.6985 836.101,-28.87 866.437,-57.791 940.243,-29.6985 941.108,-29.3691 941.979,-29.0109 942.85,-28.6301"/>
<polygon fill="green" stroke="green" stroke-width="0.40822" points="944.621,-31.6551 951.913,-23.9685 941.419,-25.4303 944.621,-31.6551"/>
</g>
<!-- &#45;4&#45;&gt;2 -->
<g id="edge15" class="edge"><title>&#45;4&#45;&gt;2</title>
<path fill="none" stroke="green" stroke-width="0.209389" d="M751.743,-77.538C755.508,-73.2938 760.611,-68.4649 766.243,-65.6985 780.347,-58.7707 1003.34,-28.9839 1078.63,-19.0715"/>
<polygon fill="green" stroke="green" stroke-width="0.209389" points="1079.17,-22.5313 1088.62,-17.7584 1078.25,-15.5909 1079.17,-22.5313"/>
</g>
<!-- &#45;4&#45;&gt;3 -->
<g id="edge16" class="edge"><title>&#45;4&#45;&gt;3</title>
<path fill="none" stroke="green" stroke-width="0.291914" d="M751.333,-77.8428C755.113,-73.4687 760.363,-68.4154 766.243,-65.6985 912.612,1.93559 973.757,-79.0988 1127.24,-29.6985 1128.3,-29.3595 1129.35,-28.9696 1130.41,-28.5408"/>
<polygon fill="green" stroke="green" stroke-width="0.291914" points="1132.15,-31.5805 1139.5,-23.9487 1129,-25.3319 1132.15,-31.5805"/>
</g>
<!-- &#45;5 -->
<g id="node5" class="node"><title>&#45;5</title>
<polygon fill="lightgray" stroke="black" points="1951.24,-95.9117 1927.24,-95.9117 1927.24,-77.9117 1951.24,-77.9117 1951.24,-95.9117"/>
<text text-anchor="middle" x="1939.24" y="-84.7117" font-family="Times New Roman,serif" font-size="9.00">&#45;5</text>
</g>
<!-- &#45;5&#45;&gt;1 -->
<g id="edge17" class="edge"><title>&#45;5&#45;&gt;1</title>
<path fill="none" stroke="red" stroke-width="0.190304" d="M1926.86,-80.5096C1915.12,-75.6641 1896.84,-68.8468 1880.24,-65.6985 1530.13,0.7242 1434.39,-59.023 1079.24,-29.6985 1048.1,-27.1271 1012.39,-22.5747 989.138,-19.3936"/>
<polygon fill="red" stroke="red" stroke-width="0.190304" points="989.48,-15.9076 979.093,-17.9987 988.517,-22.841 989.48,-15.9076"/>
</g>
<!-- &#45;5&#45;&gt;2 -->
<g id="edge18" class="edge"><title>&#45;5&#45;&gt;2</title>
<path fill="none" stroke="green" stroke-width="0.494076" d="M1931.39,-77.7042C1926.61,-73.2839 1920.11,-68.2306 1913.24,-65.6985 1749.19,-5.20147 1295.06,-78.787 1127.24,-29.6985 1126.18,-29.3879 1125.12,-29.0212 1124.06,-28.6112"/>
<polygon fill="green" stroke="green" stroke-width="0.494076" points="1125.46,-25.3979 1114.94,-24.0884 1122.34,-31.6684 1125.46,-25.3979"/>
</g>
<!-- &#45;5&#45;&gt;3 -->
<g id="edge19" class="edge"><title>&#45;5&#45;&gt;3</title>
<path fill="none" stroke="green" stroke-width="0.123583" d="M1931.37,-77.7544C1926.58,-73.3509 1920.08,-68.2976 1913.24,-65.6985 1773.97,-12.7878 1291.92,-14.359 1176.31,-15.531"/>
<polygon fill="green" stroke="green" stroke-width="0.123583" points="1176.25,-12.0314 1166.29,-15.6414 1176.33,-19.031 1176.25,-12.0314"/>
</g>
<!-- &#45;6 -->
<g id="node6" class="node"><title>&#45;6</title>
<polygon fill="lightgray" stroke="black" points="221.243,-95.9117 197.243,-95.9117 197.243,-77.9117 221.243,-77.9117 221.243,-95.9117"/>
<text text-anchor="middle" x="209.243" y="-84.7117" font-family="Times New Roman,serif" font-size="9.00">&#45;6</text>
</g>
<!-- &#45;6&#45;&gt;0 -->
<g id="edge20" class="edge"><title>&#45;6&#45;&gt;0</title>
<path fill="none" stroke="red" stroke-width="0.423153" d="M217.119,-77.7743C221.912,-73.3774 228.412,-68.3241 235.243,-65.6985 358.546,-18.3062 783.275,-15.6501 891.164,-15.7565"/>
<polygon fill="red" stroke="red" stroke-width="0.423153" points="891.394,-19.2569 901.401,-15.7763 891.407,-12.2569 891.394,-19.2569"/>
</g>
<!-- &#45;6&#45;&gt;1 -->
<g id="edge21" class="edge"><title>&#45;6&#45;&gt;1</title>
<path fill="none" stroke="green" stroke-width="0.298875" stroke-dasharray="1,5" d="M217.098,-77.7177C221.883,-73.3019 228.383,-68.2486 235.243,-65.6985 382.282,-11.0359 789.797,-74.1345 940.243,-29.6985 941.304,-29.3851 942.368,-29.0162 943.426,-28.6043"/>
<polygon fill="green" stroke="green" stroke-width="0.298875" points="945.143,-31.6598 952.54,-24.0746 942.027,-25.3914 945.143,-31.6598"/>
</g>
<!-- &#45;6&#45;&gt;2 -->
<g id="edge22" class="edge"><title>&#45;6&#45;&gt;2</title>
<path fill="none" stroke="green" stroke-width="0.371225" d="M221.388,-80.7163C233.324,-75.8765 252.18,-68.9356 269.243,-65.6985 583.592,-6.06191 669.44,-56.8427 988.243,-29.6985 1019.38,-27.0475 1055.09,-22.5121 1078.34,-19.3567"/>
<polygon fill="green" stroke="green" stroke-width="0.371225" points="1078.96,-22.805 1088.39,-17.9744 1078.01,-15.8703 1078.96,-22.805"/>
</g>
<!-- &#45;7 -->
<g id="node7" class="node"><title>&#45;7</title>
<polygon fill="lightgray" stroke="black" points="799.243,-95.9117 775.243,-95.9117 775.243,-77.9117 799.243,-77.9117 799.243,-95.9117"/>
<text text-anchor="middle" x="787.243" y="-84.7117" font-family="Times New Roman,serif" font-size="9.00">&#45;7</text>
</g>
<!-- &#45;7&#45;&gt;0 -->
<g id="edge23" class="edge"><title>&#45;7&#45;&gt;0</title>
<path fill="none" stroke="red" stroke-width="0.677125" d="M794.481,-77.7592C798.301,-73.7795 803.229,-69.1241 808.243,-65.6985 835.155,-47.312 869.933,-32.6494 892.65,-24.1075"/>
<polygon fill="red" stroke="red" stroke-width="0.677125" points="893.98,-27.3476 902.167,-20.6222 891.573,-20.7746 893.98,-27.3476"/>
</g>
<!-- &#45;7&#45;&gt;1 -->
<g id="edge24" class="edge"><title>&#45;7&#45;&gt;1</title>
<path fill="none" stroke="red" stroke-width="0.574123" d="M793.882,-77.8021C797.688,-73.6352 802.786,-68.796 808.243,-65.6985 861.126,-35.68 884.112,-53.088 940.243,-29.6985 941.098,-29.3423 941.96,-28.9614 942.823,-28.5614"/>
<polygon fill="red" stroke="red" stroke-width="0.574123" points="944.631,-31.5652 951.85,-23.8104 941.37,-25.3707 944.631,-31.5652"/>
</g>
<!-- &#45;7&#45;&gt;2 -->
<g id="edge25" class="edge"><title>&#45;7&#45;&gt;2</title>
<path fill="none" stroke="green" stroke-width="0.381587" d="M793.766,-77.5841C797.537,-73.3533 802.639,-68.5226 808.243,-65.6985 832.353,-53.5465 1011.9,-28.2498 1078.49,-19.1773"/>
<polygon fill="green" stroke="green" stroke-width="0.381587" points="1079.08,-22.6301 1088.51,-17.818 1078.13,-15.6936 1079.08,-22.6301"/>
</g>
<!-- &#45;7&#45;&gt;3 -->
<g id="edge26" class="edge"><title>&#45;7&#45;&gt;3</title>
<path fill="none" stroke="green" stroke-width="0.23904" d="M793.346,-77.8714C797.131,-73.5068 802.381,-68.4535 808.243,-65.6985 937.371,-5.01118 991.713,-74.2924 1127.24,-29.6985 1128.12,-29.409 1129.01,-29.0848 1129.89,-28.7327"/>
<polygon fill="green" stroke="green" stroke-width="0.23904" points="1131.6,-31.7899 1139,-24.2046 1128.48,-25.5215 1131.6,-31.7899"/>
</g>
<!-- &#45;8 -->
<g id="node8" class="node"><title>&#45;8</title>
<polygon fill="lightgray" stroke="black" points="841.243,-95.9117 817.243,-95.9117 817.243,-77.9117 841.243,-77.9117 841.243,-95.9117"/>
<text text-anchor="middle" x="829.243" y="-84.7117" font-family="Times New Roman,serif" font-size="9.00">&#45;8</text>
</g>
<!-- &#45;8&#45;&gt;0 -->
<g id="edge27" class="edge"><title>&#45;8&#45;&gt;0</title>
<path fill="none" stroke="green" stroke-width="0.106234" stroke-dasharray="1,5" d="M837.209,-77.8074C841.048,-74.0171 845.778,-69.5095 850.243,-65.6985 864.973,-53.1244 882.502,-39.9628 895.792,-30.323"/>
<polygon fill="green" stroke="green" stroke-width="0.106234" points="898.149,-32.9392 904.229,-24.2624 894.065,-27.254 898.149,-32.9392"/>
</g>
<!-- &#45;8&#45;&gt;1 -->
<g id="edge28" class="edge"><title>&#45;8&#45;&gt;1</title>
<path fill="none" stroke="green" stroke-width="0.499716" d="M836.407,-77.648C840.209,-73.64 845.142,-68.9927 850.243,-65.6985 886.434,-42.327 901.487,-48.5126 940.243,-29.6985 941.076,-29.2941 941.919,-28.8722 942.767,-28.4377"/>
<polygon fill="green" stroke="green" stroke-width="0.499716" points="944.637,-31.4038 951.721,-23.5255 941.27,-25.2666 944.637,-31.4038"/>
</g>
<!-- &#45;8&#45;&gt;2 -->
<g id="edge29" class="edge"><title>&#45;8&#45;&gt;2</title>
<path fill="none" stroke="red" stroke-width="0.544857" d="M835.797,-77.6445C839.577,-73.4314 844.678,-68.5984 850.243,-65.6985 890.067,-44.944 1022.86,-26.1037 1078.44,-18.9242"/>
<polygon fill="red" stroke="red" stroke-width="0.544857" points="1079,-22.3814 1088.48,-17.6466 1078.12,-15.4374 1079,-22.3814"/>
</g>
<!-- &#45;8&#45;&gt;3 -->
<g id="edge30" class="edge"><title>&#45;8&#45;&gt;3</title>
<path fill="none" stroke="red" stroke-width="0.10362" d="M835.364,-77.9084C839.154,-73.5562 844.404,-68.5029 850.243,-65.6985 962.15,-11.948 1009.65,-69.4933 1127.24,-29.6985 1128.12,-29.4016 1129,-29.0711 1129.88,-28.7137"/>
<polygon fill="red" stroke="red" stroke-width="0.10362" points="1131.6,-31.7649 1138.98,-24.1609 1128.47,-25.5044 1131.6,-31.7649"/>
</g>
<!-- &#45;9 -->
<g id="node9" class="node"><title>&#45;9</title>
<polygon fill="lightgray" stroke="black" points="883.243,-95.9117 859.243,-95.9117 859.243,-77.9117 883.243,-77.9117 883.243,-95.9117"/>
<text text-anchor="middle" x="871.243" y="-84.7117" font-family="Times New Roman,serif" font-size="9.00">&#45;9</text>
</g>
<!-- &#45;9&#45;&gt;0 -->
<g id="edge31" class="edge"><title>&#45;9&#45;&gt;0</title>
<path fill="none" stroke="red" stroke-width="0.293177" d="M876.405,-77.8746C882.882,-67.7908 894.222,-50.1351 903.151,-36.233"/>
<polygon fill="red" stroke="red" stroke-width="0.293177" points="906.136,-38.0622 908.595,-27.7567 900.246,-34.2792 906.136,-38.0622"/>
</g>
<!-- &#45;9&#45;&gt;1 -->
<g id="edge32" class="edge"><title>&#45;9&#45;&gt;1</title>
<path fill="none" stroke="red" stroke-width="0.67657" d="M879.58,-77.7724C883.599,-73.9744 888.555,-69.4706 893.243,-65.6985 909.51,-52.6082 928.98,-39.0769 943.413,-29.421"/>
<polygon fill="red" stroke="red" stroke-width="0.67657" points="945.681,-32.1176 952.087,-23.6789 941.816,-26.2807 945.681,-32.1176"/>
</g>
<!-- &#45;9&#45;&gt;2 -->
<g id="edge33" class="edge"><title>&#45;9&#45;&gt;2</title>
<path fill="none" stroke="green" stroke-width="0.176276" d="M878.227,-77.7371C882.223,-73.5511 887.562,-68.7145 893.243,-65.6985 954.634,-33.1046 1037.31,-21.5728 1078.2,-17.6931"/>
<polygon fill="green" stroke="green" stroke-width="0.176276" points="1078.68,-21.1641 1088.34,-16.8086 1078.08,-14.1906 1078.68,-21.1641"/>
</g>
<!-- &#45;9&#45;&gt;3 -->
<g id="edge34" class="edge"><title>&#45;9&#45;&gt;3</title>
<path fill="none" stroke="red" stroke-width="0.100647" d="M878.134,-77.553C882.103,-73.3131 887.446,-68.4837 893.243,-65.6985 988.088,-20.1315 1027.97,-64.5919 1127.24,-29.6985 1128.12,-29.3914 1128.99,-29.0522 1129.87,-28.6874"/>
<polygon fill="red" stroke="red" stroke-width="0.100647" points="1131.61,-31.7303 1138.96,-24.1004 1128.46,-25.481 1131.61,-31.7303"/>
</g>
<!-- &#45;10 -->
<g id="node10" class="node"><title>&#45;10</title>
<polygon fill="lightgray" stroke="black" points="930.743,-95.9117 901.743,-95.9117 901.743,-77.9117 930.743,-77.9117 930.743,-95.9117"/>
<text text-anchor="middle" x="916.243" y="-84.7117" font-family="Times New Roman,serif" font-size="9.00">&#45;10</text>
</g>
<!-- &#45;10&#45;&gt;0 -->
<g id="edge35" class="edge"><title>&#45;10&#45;&gt;0</title>
<path fill="none" stroke="green" stroke-width="0.370349" d="M916.243,-77.8746C916.243,-68.7202 916.243,-53.3256 916.243,-40.1641"/>
<polygon fill="green" stroke="green" stroke-width="0.370349" points="919.743,-39.8196 916.243,-29.8197 912.743,-39.8197 919.743,-39.8196"/>
</g>
<!-- &#45;10&#45;&gt;1 -->
<g id="edge36" class="edge"><title>&#45;10&#45;&gt;1</title>
<path fill="none" stroke="red" stroke-width="0.413686" d="M921.749,-77.8746C928.698,-67.7318 940.895,-49.9283 950.445,-35.9895"/>
<polygon fill="red" stroke="red" stroke-width="0.413686" points="953.491,-37.7349 956.256,-27.5071 947.717,-33.7786 953.491,-37.7349"/>
</g>
<!-- &#45;10&#45;&gt;2 -->
<g id="edge37" class="edge"><title>&#45;10&#45;&gt;2</title>
<path fill="none" stroke="red" stroke-width="0.168647" stroke-dasharray="1,5" d="M924.073,-77.9069C928.493,-73.7707 934.31,-68.9273 940.243,-65.6985 985.781,-40.9169 1045.33,-26.7076 1078.39,-20.2065"/>
<polygon fill="red" stroke="red" stroke-width="0.168647" points="1079.35,-23.5874 1088.52,-18.2931 1078.05,-16.7089 1079.35,-23.5874"/>
</g>
<!-- &#45;10&#45;&gt;3 -->
<g id="edge38" class="edge"><title>&#45;10&#45;&gt;3</title>
<path fill="none" stroke="green" stroke-width="0.138959" d="M923.942,-77.6511C928.325,-73.4399 934.146,-68.6067 940.243,-65.6985 1016.63,-29.2602 1047.94,-59.2588 1127.24,-29.6985 1128.11,-29.3751 1128.98,-29.022 1129.86,-28.6455"/>
<polygon fill="green" stroke="green" stroke-width="0.138959" points="1131.62,-31.6753 1138.93,-24.0039 1128.43,-25.4439 1131.62,-31.6753"/>
</g>
<!-- &#45;11 -->
<g id="node11" class="node"><title>&#45;11</title>
<polygon fill="lightgray" stroke="black" points="977.743,-95.9117 948.743,-95.9117 948.743,-77.9117 977.743,-77.9117 977.743,-95.9117"/>
<text text-anchor="middle" x="963.243" y="-84.7117" font-family="Times New Roman,serif" font-size="9.00">&#45;11</text>
</g>
<!-- &#45;11&#45;&gt;0 -->
<g id="edge39" class="edge"><title>&#45;11&#45;&gt;0</title>
<path fill="none" stroke="green" stroke-width="0.29043" d="M957.851,-77.8746C951.047,-67.7318 939.104,-49.9283 929.753,-35.9895"/>
<polygon fill="green" stroke="green" stroke-width="0.29043" points="932.541,-33.8618 924.063,-27.5071 926.728,-37.7615 932.541,-33.8618"/>
</g>
<!-- &#45;11&#45;&gt;1 -->
<g id="edge40" class="edge"><title>&#45;11&#45;&gt;1</title>
<path fill="none" stroke="red" stroke-width="0.310718" d="M963.358,-77.8746C963.488,-68.7202 963.708,-53.3256 963.896,-40.1641"/>
<polygon fill="red" stroke="red" stroke-width="0.310718" points="967.4,-39.8686 964.043,-29.8197 960.401,-39.7687 967.4,-39.8686"/>
</g>
<!-- &#45;11&#45;&gt;2 -->
<g id="edge41" class="edge"><title>&#45;11&#45;&gt;2</title>
<path fill="none" stroke="red" stroke-width="0.145576" stroke-dasharray="1,5" d="M971.656,-77.7655C976.059,-73.7875 981.68,-69.1316 987.243,-65.6985 1017.3,-47.1473 1055.49,-32.1982 1079.65,-23.6675"/>
<polygon fill="red" stroke="red" stroke-width="0.145576" points="1081.07,-26.8793 1089.39,-20.3112 1078.79,-20.2615 1081.07,-26.8793"/>
</g>
<!-- &#45;11&#45;&gt;3 -->
<g id="edge42" class="edge"><title>&#45;11&#45;&gt;3</title>
<path fill="none" stroke="red" stroke-width="0.13349" d="M971.016,-77.7995C975.42,-73.6318 981.238,-68.7927 987.243,-65.6985 1044.35,-36.269 1067.76,-53.9775 1127.24,-29.6985 1128.1,-29.3485 1128.96,-28.9729 1129.83,-28.5774"/>
<polygon fill="red" stroke="red" stroke-width="0.13349" points="1131.63,-31.5861 1138.86,-23.8472 1128.38,-25.3845 1131.63,-31.5861"/>
</g>
<!-- &#45;12 -->
<g id="node12" class="node"><title>&#45;12</title>
<polygon fill="lightgray" stroke="black" points="1024.74,-95.9117 995.743,-95.9117 995.743,-77.9117 1024.74,-77.9117 1024.74,-95.9117"/>
<text text-anchor="middle" x="1010.24" y="-84.7117" font-family="Times New Roman,serif" font-size="9.00">&#45;12</text>
</g>
<!-- &#45;12&#45;&gt;0 -->
<g id="edge43" class="edge"><title>&#45;12&#45;&gt;0</title>
<path fill="none" stroke="green" stroke-width="0.23506" stroke-dasharray="1,5" d="M1001.48,-77.8088C997.266,-74.0188 992.089,-69.5112 987.243,-65.6985 970.832,-52.7888 951.374,-39.2424 936.982,-29.5348"/>
<polygon fill="green" stroke="green" stroke-width="0.23506" points="938.596,-26.4042 928.338,-23.7551 934.705,-32.2232 938.596,-26.4042"/>
</g>
<!-- &#45;12&#45;&gt;1 -->
<g id="edge44" class="edge"><title>&#45;12&#45;&gt;1</title>
<path fill="none" stroke="green" stroke-width="0.115471" d="M1004.97,-77.8746C998.345,-67.7908 986.753,-50.1351 977.626,-36.233"/>
<polygon fill="green" stroke="green" stroke-width="0.115471" points="980.475,-34.1951 972.061,-27.7567 974.623,-38.037 980.475,-34.1951"/>
</g>
<!-- &#45;12&#45;&gt;2 -->
<g id="edge45" class="edge"><title>&#45;12&#45;&gt;2</title>
<path fill="none" stroke="red" stroke-width="0.460655" d="M1019.46,-77.8767C1023.87,-74.1016 1029.26,-69.5868 1034.24,-65.6985 1050.3,-53.1666 1069.06,-39.681 1082.97,-29.9003"/>
<polygon fill="red" stroke="red" stroke-width="0.460655" points="1085.14,-32.6543 1091.33,-24.0552 1081.13,-26.9178 1085.14,-32.6543"/>
</g>
<!-- &#45;12&#45;&gt;3 -->
<g id="edge46" class="edge"><title>&#45;12&#45;&gt;3</title>
<path fill="none" stroke="red" stroke-width="0.267591" d="M1018.6,-77.679C1022.99,-73.6789 1028.62,-69.0294 1034.24,-65.6985 1072.38,-43.1148 1087.26,-48.8314 1127.24,-29.6985 1128.08,-29.2987 1128.92,-28.8808 1129.77,-28.4496"/>
<polygon fill="red" stroke="red" stroke-width="0.267591" points="1131.64,-31.4194 1138.73,-23.5531 1128.28,-25.2765 1131.64,-31.4194"/>
</g>
<!-- &#45;13 -->
<g id="node13" class="node"><title>&#45;13</title>
<polygon fill="lightgray" stroke="black" points="1071.74,-95.9117 1042.74,-95.9117 1042.74,-77.9117 1071.74,-77.9117 1071.74,-95.9117"/>
<text text-anchor="middle" x="1057.24" y="-84.7117" font-family="Times New Roman,serif" font-size="9.00">&#45;13</text>
</g>
<!-- &#45;13&#45;&gt;0 -->
<g id="edge47" class="edge"><title>&#45;13&#45;&gt;0</title>
<path fill="none" stroke="red" stroke-width="0.275943" d="M1049.29,-77.6513C1045.1,-73.6442 1039.7,-68.9967 1034.24,-65.6985 995.949,-42.5684 980.631,-48.9381 940.243,-29.6985 939.407,-29.3002 938.561,-28.8836 937.711,-28.4535"/>
<polygon fill="red" stroke="red" stroke-width="0.275943" points="939.202,-25.2797 928.747,-23.5619 935.848,-31.4244 939.202,-25.2797"/>
</g>
<!-- &#45;13&#45;&gt;1 -->
<g id="edge48" class="edge"><title>&#45;13&#45;&gt;1</title>
<path fill="none" stroke="green" stroke-width="0.159906" d="M1048.47,-77.8233C1044.25,-74.0365 1039.08,-69.5274 1034.24,-65.6985 1018.13,-52.932 999.075,-39.4644 984.92,-29.7503"/>
<polygon fill="green" stroke="green" stroke-width="0.159906" points="986.642,-26.688 976.406,-23.9538 982.702,-32.4745 986.642,-26.688"/>
</g>
<!-- &#45;13&#45;&gt;2 -->
<g id="edge49" class="edge"><title>&#45;13&#45;&gt;2</title>
<path fill="none" stroke="green" stroke-width="0.163253" d="M1062.52,-77.8746C1069.14,-67.7908 1080.73,-50.1351 1089.86,-36.233"/>
<polygon fill="green" stroke="green" stroke-width="0.163253" points="1092.86,-38.037 1095.42,-27.7567 1087.01,-34.1951 1092.86,-38.037"/>
</g>
<!-- &#45;13&#45;&gt;3 -->
<g id="edge50" class="edge"><title>&#45;13&#45;&gt;3</title>
<path fill="none" stroke="red" stroke-width="0.22775" d="M1066.44,-77.8614C1070.85,-74.083 1076.25,-69.5698 1081.24,-65.6985 1097.49,-53.1022 1116.53,-39.6216 1130.65,-29.8591"/>
<polygon fill="red" stroke="red" stroke-width="0.22775" points="1132.88,-32.5753 1139.14,-24.0274 1128.91,-26.806 1132.88,-32.5753"/>
</g>
<!-- &#45;14 -->
<g id="node14" class="node"><title>&#45;14</title>
<polygon fill="lightgray" stroke="black" points="1118.74,-95.9117 1089.74,-95.9117 1089.74,-77.9117 1118.74,-77.9117 1118.74,-95.9117"/>
<text text-anchor="middle" x="1104.24" y="-84.7117" font-family="Times New Roman,serif" font-size="9.00">&#45;14</text>
</g>
<!-- &#45;14&#45;&gt;0 -->
<g id="edge51" class="edge"><title>&#45;14&#45;&gt;0</title>
<path fill="none" stroke="green" stroke-width="0.22599" d="M1096.85,-77.7849C1092.65,-73.613 1087.07,-68.7745 1081.24,-65.6985 1024.04,-35.5176 1000.14,-54.089 940.243,-29.6985 939.385,-29.3493 938.521,-28.9742 937.655,-28.5793"/>
<polygon fill="green" stroke="green" stroke-width="0.22599" points="939.102,-25.3861 928.619,-23.8515 935.857,-31.5885 939.102,-25.3861"/>
</g>
<!-- &#45;14&#45;&gt;1 -->
<g id="edge52" class="edge"><title>&#45;14&#45;&gt;1</title>
<path fill="none" stroke="red" stroke-width="0.113243" d="M1096.24,-77.7364C1092.03,-73.751 1086.64,-69.0972 1081.24,-65.6985 1051,-46.6564 1012.22,-31.7644 987.796,-23.3878"/>
<polygon fill="red" stroke="red" stroke-width="0.113243" points="988.867,-20.0556 978.273,-20.2036 986.647,-26.6943 988.867,-20.0556"/>
</g>
<!-- &#45;14&#45;&gt;2 -->
<g id="edge53" class="edge"><title>&#45;14&#45;&gt;2</title>
<path fill="none" stroke="green" stroke-width="0.294473" d="M1104.13,-77.8746C1104,-68.7202 1103.78,-53.3256 1103.59,-40.1641"/>
<polygon fill="green" stroke="green" stroke-width="0.294473" points="1107.08,-39.7687 1103.44,-29.8197 1100.09,-39.8686 1107.08,-39.7687"/>
</g>
<!-- &#45;14&#45;&gt;3 -->
<g id="edge54" class="edge"><title>&#45;14&#45;&gt;3</title>
<path fill="none" stroke="green" stroke-width="0.273297" d="M1109.63,-77.8746C1116.44,-67.7318 1128.38,-49.9283 1137.73,-35.9895"/>
<polygon fill="green" stroke="green" stroke-width="0.273297" points="1140.76,-37.7615 1143.42,-27.5071 1134.94,-33.8618 1140.76,-37.7615"/>
</g>
<!-- &#45;15 -->
<g id="node15" class="node"><title>&#45;15</title>
<polygon fill="lightgray" stroke="black" points="1165.74,-95.9117 1136.74,-95.9117 1136.74,-77.9117 1165.74,-77.9117 1165.74,-95.9117"/>
<text text-anchor="middle" x="1151.24" y="-84.7117" font-family="Times New Roman,serif" font-size="9.00">&#45;15</text>
</g>
<!-- &#45;15&#45;&gt;0 -->
<g id="edge55" class="edge"><title>&#45;15&#45;&gt;0</title>
<path fill="none" stroke="green" stroke-width="0.331728" d="M1143.93,-77.6425C1139.74,-73.4288 1134.16,-68.5959 1128.24,-65.6985 1051.83,-28.3043 1019.97,-59.3719 940.243,-29.6985 939.375,-29.3755 938.502,-29.0227 937.629,-28.6466"/>
<polygon fill="green" stroke="green" stroke-width="0.331728" points="939.055,-25.4448 928.559,-24.0064 935.867,-31.6767 939.055,-25.4448"/>
</g>
<!-- &#45;15&#45;&gt;1 -->
<g id="edge56" class="edge"><title>&#45;15&#45;&gt;1</title>
<path fill="none" stroke="red" stroke-width="0.328213" d="M1143.8,-77.8892C1139.58,-73.7478 1134,-68.9052 1128.24,-65.6985 1082.69,-40.3363 1022.68,-26.3411 989.332,-20.0329"/>
<polygon fill="red" stroke="red" stroke-width="0.328213" points="989.567,-16.5189 979.104,-18.183 988.321,-23.4071 989.567,-16.5189"/>
</g>
<!-- &#45;15&#45;&gt;2 -->
<g id="edge57" class="edge"><title>&#45;15&#45;&gt;2</title>
<path fill="none" stroke="green" stroke-width="0.266762" d="M1145.74,-77.8746C1138.79,-67.7318 1126.59,-49.9283 1117.04,-35.9895"/>
<polygon fill="green" stroke="green" stroke-width="0.266762" points="1119.77,-33.7786 1111.23,-27.5071 1113.99,-37.7349 1119.77,-33.7786"/>
</g>
<!-- &#45;15&#45;&gt;3 -->
<g id="edge58" class="edge"><title>&#45;15&#45;&gt;3</title>
<path fill="none" stroke="green" stroke-width="0.18951" d="M1151.24,-77.8746C1151.24,-68.7202 1151.24,-53.3256 1151.24,-40.1641"/>
<polygon fill="green" stroke="green" stroke-width="0.18951" points="1154.74,-39.8196 1151.24,-29.8197 1147.74,-39.8197 1154.74,-39.8196"/>
</g>
<!-- &#45;16 -->
<g id="node16" class="node"><title>&#45;16</title>
<polygon fill="lightgray" stroke="black" points="1212.74,-95.9117 1183.74,-95.9117 1183.74,-77.9117 1212.74,-77.9117 1212.74,-95.9117"/>
<text text-anchor="middle" x="1198.24" y="-84.7117" font-family="Times New Roman,serif" font-size="9.00">&#45;16</text>
</g>
<!-- &#45;16&#45;&gt;0 -->
<g id="edge59" class="edge"><title>&#45;16&#45;&gt;0</title>
<path fill="none" stroke="red" stroke-width="0.401554" d="M1190.97,-77.5543C1186.8,-73.3148 1181.22,-68.4853 1175.24,-65.6985 1079.49,-21.027 1039.94,-64.7057 940.243,-29.6985 939.369,-29.3917 938.491,-29.0527 937.614,-28.6881"/>
<polygon fill="red" stroke="red" stroke-width="0.401554" points="939.029,-25.4816 928.524,-24.102 935.876,-31.7313 939.029,-25.4816"/>
</g>
<!-- &#45;16&#45;&gt;1 -->
<g id="edge60" class="edge"><title>&#45;16&#45;&gt;1</title>
<path fill="none" stroke="green" stroke-width="0.298654" d="M1190.88,-77.743C1186.68,-73.5588 1181.1,-68.7219 1175.24,-65.6985 1113.2,-33.674 1030.29,-21.8864 989.324,-17.8226"/>
<polygon fill="green" stroke="green" stroke-width="0.298654" points="989.441,-14.3187 979.163,-16.89 988.801,-21.2894 989.441,-14.3187"/>
</g>
<!-- &#45;16&#45;&gt;2 -->
<g id="edge61" class="edge"><title>&#45;16&#45;&gt;2</title>
<path fill="none" stroke="red" stroke-width="0.482503" d="M1189.49,-77.7945C1185.28,-74.0014 1180.1,-69.4953 1175.24,-65.6985 1158.63,-52.7211 1138.9,-39.1804 1124.29,-29.4921"/>
<polygon fill="red" stroke="red" stroke-width="0.482503" points="1125.8,-26.2942 1115.52,-23.7266 1121.96,-32.1439 1125.8,-26.2942"/>
</g>
<!-- &#45;16&#45;&gt;3 -->
<g id="edge62" class="edge"><title>&#45;16&#45;&gt;3</title>
<path fill="none" stroke="red" stroke-width="0.185741" d="M1192.85,-77.8746C1186.05,-67.7318 1174.1,-49.9283 1164.75,-35.9895"/>
<polygon fill="red" stroke="red" stroke-width="0.185741" points="1167.54,-33.8618 1159.06,-27.5071 1161.73,-37.7615 1167.54,-33.8618"/>
</g>
<!-- &#45;17 -->
<g id="node17" class="node"><title>&#45;17</title>
<polygon fill="lightgray" stroke="black" points="1259.74,-95.9117 1230.74,-95.9117 1230.74,-77.9117 1259.74,-77.9117 1259.74,-95.9117"/>
<text text-anchor="middle" x="1245.24" y="-84.7117" font-family="Times New Roman,serif" font-size="9.00">&#45;17</text>
</g>
<!-- &#45;17&#45;&gt;0 -->
<g id="edge63" class="edge"><title>&#45;17&#45;&gt;0</title>
<path fill="none" stroke="red" stroke-width="0.380955" d="M1238.39,-77.9046C1234.19,-73.5511 1228.44,-68.4978 1222.24,-65.6985 1107.08,-13.7184 1059.97,-70.0641 940.243,-29.6985 939.365,-29.4026 938.484,-29.073 937.605,-28.7163"/>
<polygon fill="red" stroke="red" stroke-width="0.380955" points="939.012,-25.5067 928.502,-24.1668 935.882,-31.7682 939.012,-25.5067"/>
</g>
<!-- &#45;17&#45;&gt;1 -->
<g id="edge64" class="edge"><title>&#45;17&#45;&gt;1</title>
<path fill="none" stroke="green" stroke-width="0.47509" d="M1237.92,-77.6464C1233.74,-73.4339 1228.16,-68.6008 1222.24,-65.6985 1181.06,-45.5022 1045.38,-26.2759 989.073,-18.9578"/>
<polygon fill="green" stroke="green" stroke-width="0.47509" points="989.285,-15.4565 978.922,-17.6562 988.395,-22.3996 989.285,-15.4565"/>
</g>
<!-- &#45;17&#45;&gt;2 -->
<g id="edge65" class="edge"><title>&#45;17&#45;&gt;2</title>
<path fill="none" stroke="red" stroke-width="0.231854" d="M1237.29,-77.6432C1233.1,-73.634 1227.71,-68.987 1222.24,-65.6985 1183.55,-42.4217 1168.04,-49.0449 1127.24,-29.6985 1126.41,-29.3017 1125.56,-28.8863 1124.71,-28.4573"/>
<polygon fill="red" stroke="red" stroke-width="0.231854" points="1126.2,-25.2828 1115.74,-23.5706 1122.85,-31.4293 1126.2,-25.2828"/>
</g>
<!-- &#45;17&#45;&gt;3 -->
<g id="edge66" class="edge"><title>&#45;17&#45;&gt;3</title>
<path fill="none" stroke="green" stroke-width="0.284995" d="M1236.48,-77.8088C1232.27,-74.0188 1227.09,-69.5112 1222.24,-65.6985 1205.83,-52.7888 1186.37,-39.2424 1171.98,-29.5348"/>
<polygon fill="green" stroke="green" stroke-width="0.284995" points="1173.6,-26.4042 1163.34,-23.7551 1169.71,-32.2232 1173.6,-26.4042"/>
</g>
<!-- &#45;18 -->
<g id="node18" class="node"><title>&#45;18</title>
<polygon fill="lightgray" stroke="black" points="1306.74,-95.9117 1277.74,-95.9117 1277.74,-77.9117 1306.74,-77.9117 1306.74,-95.9117"/>
<text text-anchor="middle" x="1292.24" y="-84.7117" font-family="Times New Roman,serif" font-size="9.00">&#45;18</text>
</g>
<!-- &#45;18&#45;&gt;0 -->
<g id="edge67" class="edge"><title>&#45;18&#45;&gt;0</title>
<path fill="none" stroke="green" stroke-width="0.296817" d="M1285.41,-77.8627C1281.22,-73.4952 1275.47,-68.4419 1269.24,-65.6985 1134.63,-6.39215 1080.05,-75.4362 940.243,-29.6985 939.363,-29.4105 938.479,-29.0876 937.598,-28.7365"/>
<polygon fill="green" stroke="green" stroke-width="0.296817" points="939,-25.525 928.486,-24.2134 935.887,-31.7949 939,-25.525"/>
</g>
<!-- &#45;18&#45;&gt;1 -->
<g id="edge68" class="edge"><title>&#45;18&#45;&gt;1</title>
<path fill="none" stroke="green" stroke-width="0.108285" d="M1284.96,-77.5781C1280.78,-73.3456 1275.2,-68.5151 1269.24,-65.6985 1243.97,-53.754 1057.72,-28.222 989.336,-19.14"/>
<polygon fill="green" stroke="green" stroke-width="0.108285" points="989.431,-15.6221 979.058,-17.7813 988.513,-22.5617 989.431,-15.6221"/>
</g>
<!-- &#45;18&#45;&gt;2 -->
<g id="edge69" class="edge"><title>&#45;18&#45;&gt;2</title>
<path fill="none" stroke="red" stroke-width="0.498229" d="M1284.86,-77.781C1280.65,-73.6079 1275.08,-68.7695 1269.24,-65.6985 1211.63,-35.3652 1187.56,-54.2005 1127.24,-29.6985 1126.38,-29.35 1125.52,-28.9756 1124.65,-28.5812"/>
<polygon fill="red" stroke="red" stroke-width="0.498229" points="1126.1,-25.3877 1115.62,-23.8558 1122.86,-31.591 1126.1,-25.3877"/>
</g>
<!-- &#45;18&#45;&gt;3 -->
<g id="edge70" class="edge"><title>&#45;18&#45;&gt;3</title>
<path fill="none" stroke="red" stroke-width="0.189253" d="M1284.24,-77.7294C1280.04,-73.7422 1274.65,-69.0889 1269.24,-65.6985 1238.75,-46.5652 1199.64,-31.6974 1175,-23.3508"/>
<polygon fill="red" stroke="red" stroke-width="0.189253" points="1175.99,-19.9912 1165.4,-20.1796 1173.79,-26.6383 1175.99,-19.9912"/>
</g>
<!-- &#45;19 -->
<g id="node19" class="node"><title>&#45;19</title>
<polygon fill="lightgray" stroke="black" points="1353.74,-95.9117 1324.74,-95.9117 1324.74,-77.9117 1353.74,-77.9117 1353.74,-95.9117"/>
<text text-anchor="middle" x="1339.24" y="-84.7117" font-family="Times New Roman,serif" font-size="9.00">&#45;19</text>
</g>
<!-- &#45;19&#45;&gt;0 -->
<g id="edge71" class="edge"><title>&#45;19&#45;&gt;0</title>
<path fill="none" stroke="red" stroke-width="0.269266" d="M1332.43,-77.831C1328.24,-73.453 1322.49,-68.3997 1316.24,-65.6985 1162.16,0.944919 1100.15,-80.8167 940.243,-29.6985 939.189,-29.3616 938.131,-28.9734 937.077,-28.5459"/>
<polygon fill="red" stroke="red" stroke-width="0.269266" points="938.486,-25.3367 927.982,-23.9589 935.334,-31.5869 938.486,-25.3367"/>
</g>
<!-- &#45;19&#45;&gt;1 -->
<g id="edge72" class="edge"><title>&#45;19&#45;&gt;1</title>
<path fill="none" stroke="red" stroke-width="0.149322" stroke-dasharray="1,5" d="M1331.98,-77.5273C1327.82,-73.2799 1322.23,-68.4514 1316.24,-65.6985 1301.31,-58.8347 1067.49,-28.8769 989.41,-19.0119"/>
<polygon fill="red" stroke="red" stroke-width="0.149322" points="989.424,-15.4859 979.064,-17.7073 988.548,-22.4309 989.424,-15.4859"/>
</g>
<!-- &#45;19&#45;&gt;2 -->
<g id="edge73" class="edge"><title>&#45;19&#45;&gt;2</title>
<path fill="none" stroke="red" stroke-width="0.236877" d="M1331.93,-77.6402C1327.75,-73.4259 1322.17,-68.593 1316.24,-65.6985 1239.42,-28.1499 1207.4,-59.485 1127.24,-29.6985 1126.37,-29.3759 1125.5,-29.0235 1124.63,-28.6477"/>
<polygon fill="red" stroke="red" stroke-width="0.236877" points="1126.05,-25.4458 1115.56,-24.0089 1122.87,-31.6781 1126.05,-25.4458"/>
</g>
<!-- &#45;19&#45;&gt;3 -->
<g id="edge74" class="edge"><title>&#45;19&#45;&gt;3</title>
<path fill="none" stroke="red" stroke-width="0.19347" d="M1331.8,-77.8853C1327.58,-73.7428 1322,-68.9003 1316.24,-65.6985 1270.18,-40.1028 1209.42,-26.1333 1175.97,-19.9063"/>
<polygon fill="red" stroke="red" stroke-width="0.19347" points="1176.2,-16.3912 1165.74,-18.0857 1174.97,-23.283 1176.2,-16.3912"/>
</g>
<!-- &#45;20 -->
<g id="node20" class="node"><title>&#45;20</title>
<polygon fill="lightgray" stroke="black" points="1400.74,-95.9117 1371.74,-95.9117 1371.74,-77.9117 1400.74,-77.9117 1400.74,-95.9117"/>
<text text-anchor="middle" x="1386.24" y="-84.7117" font-family="Times New Roman,serif" font-size="9.00">&#45;20</text>
</g>
<!-- &#45;20&#45;&gt;0 -->
<g id="edge75" class="edge"><title>&#45;20&#45;&gt;0</title>
<path fill="none" stroke="green" stroke-width="0.236629" d="M1379.44,-77.8063C1375.25,-73.42 1369.5,-68.3667 1363.24,-65.6985 1189.67,8.28914 1120.26,-86.2026 940.243,-29.6985 939.187,-29.3671 938.127,-28.9835 937.073,-28.5598"/>
<polygon fill="green" stroke="green" stroke-width="0.236629" points="938.48,-25.3496 927.973,-23.9863 935.336,-31.6042 938.48,-25.3496"/>
</g>
<!-- &#45;20&#45;&gt;1 -->
<g id="edge76" class="edge"><title>&#45;20&#45;&gt;1</title>
<path fill="none" stroke="red" stroke-width="0.101982" d="M1379.4,-77.8983C1375.2,-73.5428 1369.45,-68.4895 1363.24,-65.6985 1358.93,-63.7592 1075.94,-29.3747 989.224,-18.8714"/>
<polygon fill="red" stroke="red" stroke-width="0.101982" points="989.56,-15.3866 979.212,-17.6592 988.718,-22.3358 989.56,-15.3866"/>
</g>
<!-- &#45;20&#45;&gt;2 -->
<g id="edge77" class="edge"><title>&#45;20&#45;&gt;2</title>
<path fill="none" stroke="green" stroke-width="0.456004" d="M1378.97,-77.5528C1374.8,-73.3128 1369.22,-68.4834 1363.24,-65.6985 1267.08,-20.8718 1227.36,-64.8195 1127.24,-29.6985 1126.37,-29.392 1125.49,-29.0532 1124.61,-28.6888"/>
<polygon fill="green" stroke="green" stroke-width="0.456004" points="1126.03,-25.4822 1115.52,-24.1037 1122.88,-31.7322 1126.03,-25.4822"/>
</g>
<!-- &#45;20&#45;&gt;3 -->
<g id="edge78" class="edge"><title>&#45;20&#45;&gt;3</title>
<path fill="none" stroke="green" stroke-width="0.449715" d="M1378.88,-77.7406C1374.68,-73.5556 1369.1,-68.7188 1363.24,-65.6985 1300.75,-33.4838 1217.19,-21.7675 1176.14,-17.7677"/>
<polygon fill="green" stroke="green" stroke-width="0.449715" points="1176.24,-14.263 1165.97,-16.8523 1175.61,-21.2348 1176.24,-14.263"/>
</g>
<!-- &#45;21 -->
<g id="node21" class="node"><title>&#45;21</title>
<polygon fill="lightgray" stroke="black" points="1447.74,-95.9117 1418.74,-95.9117 1418.74,-77.9117 1447.74,-77.9117 1447.74,-95.9117"/>
<text text-anchor="middle" x="1433.24" y="-84.7117" font-family="Times New Roman,serif" font-size="9.00">&#45;21</text>
</g>
<!-- &#45;21&#45;&gt;0 -->
<g id="edge79" class="edge"><title>&#45;21&#45;&gt;0</title>
<path fill="none" stroke="red" stroke-width="0.148776" d="M1426.45,-77.7864C1422.26,-73.3935 1416.51,-68.3402 1410.24,-65.6985 1217.18,15.6383 1140.39,-91.5923 940.243,-29.6985 939.186,-29.3716 938.125,-28.9917 937.069,-28.5709"/>
<polygon fill="red" stroke="red" stroke-width="0.148776" points="938.474,-25.36 927.966,-24.0083 935.338,-31.618 938.474,-25.36"/>
</g>
<!-- &#45;21&#45;&gt;1 -->
<g id="edge80" class="edge"><title>&#45;21&#45;&gt;1</title>
<path fill="none" stroke="red" stroke-width="0.287799" d="M1426.41,-77.8611C1422.22,-73.4932 1416.47,-68.4399 1410.24,-65.6985 1274.81,-6.08013 1226.26,-46.5452 1079.24,-29.6985 1048.2,-26.141 1012.47,-21.7996 989.183,-18.9367"/>
<polygon fill="red" stroke="red" stroke-width="0.287799" points="989.476,-15.4464 979.123,-17.6967 988.62,-22.3938 989.476,-15.4464"/>
</g>
<!-- &#45;21&#45;&gt;2 -->
<g id="edge81" class="edge"><title>&#45;21&#45;&gt;2</title>
<path fill="none" stroke="red" stroke-width="0.405789" d="M1426.39,-77.9035C1422.2,-73.5497 1416.45,-68.4964 1410.24,-65.6985 1294.67,-13.5627 1247.4,-70.1783 1127.24,-29.6985 1126.37,-29.4028 1125.48,-29.0733 1124.6,-28.7168"/>
<polygon fill="red" stroke="red" stroke-width="0.405789" points="1126.01,-25.5072 1115.5,-24.1679 1122.88,-31.7689 1126.01,-25.5072"/>
</g>
<!-- &#45;21&#45;&gt;3 -->
<g id="edge82" class="edge"><title>&#45;21&#45;&gt;3</title>
<path fill="none" stroke="green" stroke-width="0.39785" d="M1425.93,-77.6447C1421.74,-73.4317 1416.16,-68.5987 1410.24,-65.6985 1330.89,-26.8217 1224.01,-18.2304 1176.18,-16.3566"/>
<polygon fill="green" stroke="green" stroke-width="0.39785" points="1176.23,-12.8565 1166.12,-16.0299 1176,-19.8528 1176.23,-12.8565"/>
</g>
<!-- &#45;22 -->
<g id="node22" class="node"><title>&#45;22</title>
<polygon fill="lightgray" stroke="black" points="306.743,-95.9117 277.743,-95.9117 277.743,-77.9117 306.743,-77.9117 306.743,-95.9117"/>
<text text-anchor="middle" x="292.243" y="-84.7117" font-family="Times New Roman,serif" font-size="9.00">&#45;22</text>
</g>
<!-- &#45;22&#45;&gt;0 -->
<g id="edge83" class="edge"><title>&#45;22&#45;&gt;0</title>
<path fill="none" stroke="green" stroke-width="0.151388" d="M299.409,-77.8002C303.797,-73.412 309.797,-68.3587 316.243,-65.6985 422.875,-21.689 791.672,-16.5121 891.281,-15.921"/>
<polygon fill="green" stroke="green" stroke-width="0.151388" points="891.337,-19.4209 901.32,-15.8721 891.303,-12.421 891.337,-19.4209"/>
</g>
<!-- &#45;22&#45;&gt;1 -->
<g id="edge84" class="edge"><title>&#45;22&#45;&gt;1</title>
<path fill="none" stroke="green" stroke-width="0.308326" d="M299.384,-77.739C303.764,-73.3303 309.764,-68.277 316.243,-65.6985 445.294,-14.3343 807.165,-69.4832 940.243,-29.6985 941.303,-29.3816 942.366,-29.0098 943.424,-28.5956"/>
<polygon fill="green" stroke="green" stroke-width="0.308326" points="945.144,-31.6489 952.535,-24.0574 942.023,-25.3832 945.144,-31.6489"/>
</g>
<!-- &#45;22&#45;&gt;3 -->
<g id="edge85" class="edge"><title>&#45;22&#45;&gt;3</title>
<path fill="none" stroke="green" stroke-width="0.464745" d="M299.371,-77.7067C303.747,-73.2873 309.747,-68.234 316.243,-65.6985 484.293,-0.100144 954.063,-80.2231 1127.24,-29.6985 1128.3,-29.3886 1129.37,-29.0226 1130.43,-28.6131"/>
<polygon fill="green" stroke="green" stroke-width="0.464745" points="1132.14,-31.6708 1139.54,-24.092 1129.03,-25.3996 1132.14,-31.6708"/>
</g>
<!-- &#45;23 -->
<g id="node23" class="node"><title>&#45;23</title>
<polygon fill="lightgray" stroke="black" points="1494.74,-95.9117 1465.74,-95.9117 1465.74,-77.9117 1494.74,-77.9117 1494.74,-95.9117"/>
<text text-anchor="middle" x="1480.24" y="-84.7117" font-family="Times New Roman,serif" font-size="9.00">&#45;23</text>
</g>
<!-- &#45;23&#45;&gt;0 -->
<g id="edge86" class="edge"><title>&#45;23&#45;&gt;0</title>
<path fill="none" stroke="red" stroke-width="0.140156" d="M1473.45,-77.7701C1469.27,-73.3718 1463.52,-68.3185 1457.24,-65.6985 1244.67,22.9911 1160.53,-96.9848 940.243,-29.6985 939.185,-29.3753 938.123,-28.9983 937.067,-28.58"/>
<polygon fill="red" stroke="red" stroke-width="0.140156" points="938.47,-25.3685 927.96,-24.0264 935.339,-31.6294 938.47,-25.3685"/>
</g>
<!-- &#45;23&#45;&gt;1 -->
<g id="edge87" class="edge"><title>&#45;23&#45;&gt;1</title>
<path fill="none" stroke="green" stroke-width="0.424034" d="M1473.43,-77.8298C1469.24,-73.4514 1463.49,-68.3981 1457.24,-65.6985 1379.79,-32.2206 1163.14,-38.7436 1079.24,-29.6985 1048.17,-26.3488 1012.45,-21.963 989.172,-19.033"/>
<polygon fill="green" stroke="green" stroke-width="0.424034" points="989.476,-15.5436 979.116,-17.7604 988.597,-22.4882 989.476,-15.5436"/>
</g>
<!-- &#45;23&#45;&gt;2 -->
<g id="edge88" class="edge"><title>&#45;23&#45;&gt;2</title>
<path fill="none" stroke="green" stroke-width="0.261822" stroke-dasharray="1,5" d="M1473.41,-77.8619C1469.22,-73.4942 1463.47,-68.4409 1457.24,-65.6985 1322.22,-6.23614 1267.47,-75.5506 1127.24,-29.6985 1126.36,-29.4107 1125.48,-29.0879 1124.6,-28.7369"/>
<polygon fill="green" stroke="green" stroke-width="0.261822" points="1126,-25.5253 1115.49,-24.2143 1122.89,-31.7954 1126,-25.5253"/>
</g>
<!-- &#45;23&#45;&gt;3 -->
<g id="edge89" class="edge"><title>&#45;23&#45;&gt;3</title>
<path fill="none" stroke="green" stroke-width="0.546726" d="M1472.96,-77.5768C1468.79,-73.344 1463.2,-68.5136 1457.24,-65.6985 1360.71,-20.1074 1230.08,-15.2383 1176.13,-15.358"/>
<polygon fill="green" stroke="green" stroke-width="0.546726" points="1176.08,-11.8582 1166.11,-15.442 1176.14,-18.8579 1176.08,-11.8582"/>
</g>
<!-- &#45;24 -->
<g id="node24" class="node"><title>&#45;24</title>
<polygon fill="lightgray" stroke="black" points="1541.74,-95.9117 1512.74,-95.9117 1512.74,-77.9117 1541.74,-77.9117 1541.74,-95.9117"/>
<text text-anchor="middle" x="1527.24" y="-84.7117" font-family="Times New Roman,serif" font-size="9.00">&#45;24</text>
</g>
<!-- &#45;24&#45;&gt;0 -->
<g id="edge90" class="edge"><title>&#45;24&#45;&gt;0</title>
<path fill="none" stroke="green" stroke-width="0.351702" stroke-dasharray="1,5" d="M1520.46,-77.7565C1516.28,-73.3537 1510.53,-68.3004 1504.24,-65.6985 1388.2,-17.676 1060.46,-66.0389 940.243,-29.6985 939.184,-29.3783 938.121,-29.0039 937.064,-28.5876"/>
<polygon fill="green" stroke="green" stroke-width="0.351702" points="938.466,-25.3756 927.956,-24.0414 935.34,-31.6389 938.466,-25.3756"/>
</g>
<!-- &#45;24&#45;&gt;1 -->
<g id="edge91" class="edge"><title>&#45;24&#45;&gt;1</title>
<path fill="none" stroke="red" stroke-width="0.15622" d="M1520.44,-77.8053C1516.25,-73.4188 1510.5,-68.3655 1504.24,-65.6985 1417.04,-28.5484 1173.53,-39.3663 1079.24,-29.6985 1048.16,-26.5112 1012.44,-22.0906 989.164,-19.1082"/>
<polygon fill="red" stroke="red" stroke-width="0.15622" points="989.476,-15.6196 979.111,-17.8101 988.58,-22.5619 989.476,-15.6196"/>
</g>
<!-- &#45;24&#45;&gt;2 -->
<g id="edge92" class="edge"><title>&#45;24&#45;&gt;2</title>
<path fill="none" stroke="green" stroke-width="0.352309" d="M1520.43,-77.8304C1516.24,-73.4522 1510.49,-68.3989 1504.24,-65.6985 1349.75,1.10111 1287.57,-80.9312 1127.24,-29.6985 1126.19,-29.3617 1125.13,-28.9736 1124.08,-28.5463"/>
<polygon fill="green" stroke="green" stroke-width="0.352309" points="1125.49,-25.337 1114.98,-23.9596 1122.33,-31.5873 1125.49,-25.337"/>
</g>
<!-- &#45;24&#45;&gt;3 -->
<g id="edge93" class="edge"><title>&#45;24&#45;&gt;3</title>
<path fill="none" stroke="green" stroke-width="0.130691" d="M1519.98,-77.5263C1515.82,-73.2787 1510.23,-68.4503 1504.24,-65.6985 1445.38,-38.6592 1246.81,-22.5122 1176.32,-17.521"/>
<polygon fill="green" stroke="green" stroke-width="0.130691" points="1176.37,-14.0159 1166.15,-16.8158 1175.88,-20.9992 1176.37,-14.0159"/>
</g>
<!-- &#45;25 -->
<g id="node25" class="node"><title>&#45;25</title>
<polygon fill="lightgray" stroke="black" points="1588.74,-95.9117 1559.74,-95.9117 1559.74,-77.9117 1588.74,-77.9117 1588.74,-95.9117"/>
<text text-anchor="middle" x="1574.24" y="-84.7117" font-family="Times New Roman,serif" font-size="9.00">&#45;25</text>
</g>
<!-- &#45;25&#45;&gt;0 -->
<g id="edge94" class="edge"><title>&#45;25&#45;&gt;0</title>
<path fill="none" stroke="red" stroke-width="0.357024" stroke-dasharray="1,5" d="M1567.46,-77.7449C1563.29,-73.3383 1557.54,-68.285 1551.24,-65.6985 1425.44,-13.9973 1070.53,-68.7369 940.243,-29.6985 939.183,-29.3809 938.12,-29.0086 937.062,-28.594"/>
<polygon fill="red" stroke="red" stroke-width="0.357024" points="938.463,-25.3817 927.952,-24.0542 935.341,-31.6469 938.463,-25.3817"/>
</g>
<!-- &#45;25&#45;&gt;1 -->
<g id="edge95" class="edge"><title>&#45;25&#45;&gt;1</title>
<path fill="none" stroke="red" stroke-width="0.202285" d="M1567.45,-77.7856C1563.26,-73.3925 1557.51,-68.3392 1551.24,-65.6985 1454.29,-24.8737 1183.93,-39.9896 1079.24,-29.6985 1048.14,-26.6414 1012.43,-22.193 989.158,-19.1686"/>
<polygon fill="red" stroke="red" stroke-width="0.202285" points="989.477,-15.6805 979.107,-17.85 988.566,-22.621 989.477,-15.6805"/>
</g>
<!-- &#45;25&#45;&gt;2 -->
<g id="edge96" class="edge"><title>&#45;25&#45;&gt;2</title>
<path fill="none" stroke="green" stroke-width="0.359098" d="M1567.44,-77.8058C1563.25,-73.4194 1557.5,-68.3661 1551.24,-65.6985 1377.26,8.44546 1307.69,-86.3172 1127.24,-29.6985 1126.19,-29.3672 1125.13,-28.9837 1124.07,-28.56"/>
<polygon fill="green" stroke="green" stroke-width="0.359098" points="1125.48,-25.3498 1114.97,-23.9869 1122.34,-31.6045 1125.48,-25.3498"/>
</g>
<!-- &#45;25&#45;&gt;3 -->
<g id="edge97" class="edge"><title>&#45;25&#45;&gt;3</title>
<path fill="none" stroke="green" stroke-width="0.202423" d="M1567.4,-77.8976C1563.2,-73.5418 1557.45,-68.4885 1551.24,-65.6985 1483.56,-35.2719 1253.52,-21.0472 1176.56,-17.0613"/>
<polygon fill="green" stroke="green" stroke-width="0.202423" points="1176.51,-13.5548 1166.35,-16.5467 1176.16,-20.5459 1176.51,-13.5548"/>
</g>
<!-- &#45;26 -->
<g id="node26" class="node"><title>&#45;26</title>
<polygon fill="lightgray" stroke="black" points="183.743,-162.125 154.743,-162.125 154.743,-144.125 183.743,-144.125 183.743,-162.125"/>
<text text-anchor="middle" x="169.243" y="-150.925" font-family="Times New Roman,serif" font-size="9.00">&#45;26</text>
</g>
<!-- &#45;26&#45;&gt;0 -->
<g id="edge98" class="edge"><title>&#45;26&#45;&gt;0</title>
<path fill="none" stroke="green" stroke-width="0.421907" d="M154.59,-150.344C118.527,-145.629 27.0984,-131.554 9.24281,-108.125 -2.18693,-93.1277 -3.71951,-79.3928 9.24281,-65.6985 40.4117,-32.7695 747.743,-18.7713 891.055,-16.2682"/>
<polygon fill="green" stroke="green" stroke-width="0.421907" points="891.147,-19.7672 901.086,-16.0958 891.027,-12.7682 891.147,-19.7672"/>
</g>
<!-- &#45;26&#45;&gt;1 -->
<g id="edge99" class="edge"><title>&#45;26&#45;&gt;1</title>
<path fill="none" stroke="green" stroke-width="0.253082" d="M168.175,-144.112C166.359,-126.705 164.882,-85.4197 188.243,-65.6985 252.163,-11.7374 859.98,-53.2662 940.243,-29.6985 941.304,-29.3868 942.369,-29.0193 943.427,-28.6085"/>
<polygon fill="green" stroke="green" stroke-width="0.253082" points="945.142,-31.665 952.542,-24.083 942.029,-25.3953 945.142,-31.665"/>
</g>
<!-- &#45;26&#45;&gt;2 -->
<g id="edge100" class="edge"><title>&#45;26&#45;&gt;2</title>
<path fill="none" stroke="green" stroke-width="0.273757" d="M183.753,-152.033C347.835,-150.964 1848.87,-140.311 1880.24,-108.125 1893.4,-94.6213 1893.25,-79.3465 1880.24,-65.6985 1822.45,-5.07192 1207.61,-53.295 1127.24,-29.6985 1126.18,-29.3868 1125.12,-29.0193 1124.06,-28.6086"/>
<polygon fill="green" stroke="green" stroke-width="0.273757" points="1125.46,-25.3954 1114.94,-24.0831 1122.34,-31.6651 1125.46,-25.3954"/>
</g>
<!-- &#45;26&#45;&gt;3 -->
<g id="edge101" class="edge"><title>&#45;26&#45;&gt;3</title>
<path fill="none" stroke="red" stroke-width="0.400398" d="M183.904,-152.049C352.936,-151.146 1927.36,-141.83 1960.24,-108.125 1973.41,-94.6288 1973.16,-79.4357 1960.24,-65.6985 1932.7,-36.4077 1309.4,-19.682 1176.16,-16.4345"/>
<polygon fill="red" stroke="red" stroke-width="0.400398" points="1176.19,-12.9343 1166.11,-16.1926 1176.02,-19.9323 1176.19,-12.9343"/>
</g>
<!-- 205 -->
<g id="node45" class="node"><title>205</title>
<ellipse fill="white" stroke="black" cx="72.2428" cy="-86.9117" rx="21.4286" ry="21.4286"/>
<text text-anchor="middle" x="72.2428" y="-84.7117" font-family="Times New Roman,serif" font-size="9.00">205</text>
</g>
<!-- &#45;26&#45;&gt;205 -->
<g id="edge156" class="edge"><title>&#45;26&#45;&gt;205</title>
<path fill="none" stroke="green" stroke-width="0.149996" d="M156.865,-144.059C143.397,-135.268 121.245,-120.765 102.243,-108.125 100.805,-107.168 99.3296,-106.184 97.8418,-105.189"/>
<polygon fill="green" stroke="green" stroke-width="0.149996" points="99.6067,-102.158 89.3532,-99.491 95.7054,-107.97 99.6067,-102.158"/>
</g>
<!-- &#45;27 -->
<g id="node27" class="node"><title>&#45;27</title>
<polygon fill="lightgray" stroke="black" points="1635.74,-95.9117 1606.74,-95.9117 1606.74,-77.9117 1635.74,-77.9117 1635.74,-95.9117"/>
<text text-anchor="middle" x="1621.24" y="-84.7117" font-family="Times New Roman,serif" font-size="9.00">&#45;27</text>
</g>
<!-- &#45;27&#45;&gt;0 -->
<g id="edge102" class="edge"><title>&#45;27&#45;&gt;0</title>
<path fill="none" stroke="red" stroke-width="0.115724" d="M1614.47,-77.735C1610.29,-73.3251 1604.54,-68.2718 1598.24,-65.6985 1462.68,-10.3178 1080.61,-71.4355 940.243,-29.6985 939.182,-29.3831 938.119,-29.0127 937.061,-28.5995"/>
<polygon fill="red" stroke="red" stroke-width="0.115724" points="938.461,-25.3869 927.949,-24.0651 935.342,-31.6538 938.461,-25.3869"/>
</g>
<!-- &#45;27&#45;&gt;1 -->
<g id="edge103" class="edge"><title>&#45;27&#45;&gt;1</title>
<path fill="none" stroke="red" stroke-width="0.733297" d="M1614.45,-77.7695C1610.27,-73.371 1604.52,-68.3177 1598.24,-65.6985 1491.54,-21.1972 1194.34,-40.6134 1079.24,-29.6985 1048.13,-26.7483 1012.42,-22.277 989.153,-19.2181"/>
<polygon fill="red" stroke="red" stroke-width="0.733297" points="989.477,-15.7305 979.103,-17.8827 988.555,-22.6695 989.477,-15.7305"/>
</g>
<!-- &#45;27&#45;&gt;2 -->
<g id="edge104" class="edge"><title>&#45;27&#45;&gt;2</title>
<path fill="none" stroke="red" stroke-width="0.379591" d="M1614.45,-77.786C1610.26,-73.393 1604.51,-68.3397 1598.24,-65.6985 1404.76,15.7947 1327.82,-91.707 1127.24,-29.6985 1126.19,-29.3717 1125.12,-28.9918 1124.07,-28.5711"/>
<polygon fill="red" stroke="red" stroke-width="0.379591" points="1125.47,-25.3602 1114.97,-24.0087 1122.34,-31.6183 1125.47,-25.3602"/>
</g>
<!-- &#45;27&#45;&gt;3 -->
<g id="edge105" class="edge"><title>&#45;27&#45;&gt;3</title>
<path fill="none" stroke="green" stroke-width="0.122879" d="M1614.41,-77.8675C1610.22,-73.5017 1604.47,-68.4484 1598.24,-65.6985 1521.59,-31.8327 1259.26,-19.7131 1176.48,-16.6806"/>
<polygon fill="green" stroke="green" stroke-width="0.122879" points="1176.36,-13.1741 1166.24,-16.3188 1176.11,-20.1698 1176.36,-13.1741"/>
</g>
<!-- &#45;28 -->
<g id="node28" class="node"><title>&#45;28</title>
<polygon fill="lightgray" stroke="black" points="1682.74,-95.9117 1653.74,-95.9117 1653.74,-77.9117 1682.74,-77.9117 1682.74,-95.9117"/>
<text text-anchor="middle" x="1668.24" y="-84.7117" font-family="Times New Roman,serif" font-size="9.00">&#45;28</text>
</g>
<!-- &#45;28&#45;&gt;0 -->
<g id="edge106" class="edge"><title>&#45;28&#45;&gt;0</title>
<path fill="none" stroke="red" stroke-width="0.103548" d="M1661.47,-77.7264C1657.3,-73.3136 1651.55,-68.2603 1645.24,-65.6985 1499.91,-6.63761 1090.69,-74.1345 940.243,-29.6985 939.182,-29.3851 938.117,-29.0162 937.059,-28.6043"/>
<polygon fill="red" stroke="red" stroke-width="0.103548" points="938.459,-25.3914 927.946,-24.0746 935.343,-31.6598 938.459,-25.3914"/>
</g>
<!-- &#45;28&#45;&gt;1 -->
<g id="edge107" class="edge"><title>&#45;28&#45;&gt;1</title>
<path fill="none" stroke="green" stroke-width="0.12298" d="M1661.46,-77.756C1657.28,-73.3529 1651.53,-68.2996 1645.24,-65.6985 1528.78,-17.5195 1204.75,-41.2375 1079.24,-29.6985 1048.13,-26.8375 1012.41,-22.3471 989.15,-19.2594"/>
<polygon fill="green" stroke="green" stroke-width="0.12298" points="989.478,-15.7722 979.101,-17.9101 988.546,-22.7099 989.478,-15.7722"/>
</g>
<!-- &#45;28&#45;&gt;2 -->
<g id="edge108" class="edge"><title>&#45;28&#45;&gt;2</title>
<path fill="none" stroke="red" stroke-width="0.464489" d="M1661.45,-77.7698C1657.27,-73.3714 1651.52,-68.3181 1645.24,-65.6985 1432.25,23.1475 1347.96,-97.0995 1127.24,-29.6985 1126.18,-29.3753 1125.12,-28.9985 1124.07,-28.5801"/>
<polygon fill="red" stroke="red" stroke-width="0.464489" points="1125.47,-25.3687 1114.96,-24.0267 1122.34,-31.6296 1125.47,-25.3687"/>
</g>
<!-- &#45;28&#45;&gt;3 -->
<g id="edge109" class="edge"><title>&#45;28&#45;&gt;3</title>
<path fill="none" stroke="red" stroke-width="0.527571" d="M1661.42,-77.843C1657.23,-73.469 1651.48,-68.4157 1645.24,-65.6985 1559.6,-28.3972 1264.9,-18.5259 1176.5,-16.3752"/>
<polygon fill="red" stroke="red" stroke-width="0.527571" points="1176.4,-12.872 1166.33,-16.14 1176.24,-19.8702 1176.4,-12.872"/>
</g>
<!-- &#45;29 -->
<g id="node29" class="node"><title>&#45;29</title>
<polygon fill="lightgray" stroke="black" points="140.743,-95.9117 111.743,-95.9117 111.743,-77.9117 140.743,-77.9117 140.743,-95.9117"/>
<text text-anchor="middle" x="126.243" y="-84.7117" font-family="Times New Roman,serif" font-size="9.00">&#45;29</text>
</g>
<!-- &#45;29&#45;&gt;0 -->
<g id="edge110" class="edge"><title>&#45;29&#45;&gt;0</title>
<path fill="none" stroke="red" stroke-width="0.2907" d="M135.183,-77.7535C140.579,-73.3497 147.829,-68.2964 155.243,-65.6985 295.515,-16.5421 775.104,-15.266 890.919,-15.6953"/>
<polygon fill="red" stroke="red" stroke-width="0.2907" points="891.237,-19.1967 901.253,-15.7422 891.269,-12.1968 891.237,-19.1967"/>
</g>
<!-- &#45;29&#45;&gt;1 -->
<g id="edge111" class="edge"><title>&#45;29&#45;&gt;1</title>
<path fill="none" stroke="red" stroke-width="0.282947" d="M135.164,-77.699C140.554,-73.277 147.804,-68.2237 155.243,-65.6985 320.602,-9.56261 772.64,-78.7296 940.243,-29.6985 941.305,-29.3878 942.37,-29.0212 943.428,-28.6112"/>
<polygon fill="red" stroke="red" stroke-width="0.282947" points="945.141,-31.6683 952.544,-24.0882 942.03,-25.3978 945.141,-31.6683"/>
</g>
<!-- &#45;29&#45;&gt;2 -->
<g id="edge112" class="edge"><title>&#45;29&#45;&gt;2</title>
<path fill="none" stroke="green" stroke-width="0.251684" d="M141.234,-79.7568C153.612,-74.9862 171.758,-68.6993 188.243,-65.6985 538.404,-1.95752 633.535,-58.9964 988.243,-29.6985 1019.39,-27.1262 1055.09,-22.574 1078.35,-19.3932"/>
<polygon fill="green" stroke="green" stroke-width="0.251684" points="1078.97,-22.8406 1088.39,-17.9985 1078.01,-15.9072 1078.97,-22.8406"/>
</g>
<!-- &#45;30 -->
<g id="node30" class="node"><title>&#45;30</title>
<polygon fill="lightgray" stroke="black" points="1729.74,-95.9117 1700.74,-95.9117 1700.74,-77.9117 1729.74,-77.9117 1729.74,-95.9117"/>
<text text-anchor="middle" x="1715.24" y="-84.7117" font-family="Times New Roman,serif" font-size="9.00">&#45;30</text>
</g>
<!-- &#45;30&#45;&gt;0 -->
<g id="edge113" class="edge"><title>&#45;30&#45;&gt;0</title>
<path fill="none" stroke="green" stroke-width="0.222107" d="M1708.47,-77.7189C1704.3,-73.3036 1698.55,-68.2503 1692.24,-65.6985 1537.15,-2.95694 1100.77,-76.834 940.243,-29.6985 939.181,-29.3868 938.117,-29.0193 937.058,-28.6085"/>
<polygon fill="green" stroke="green" stroke-width="0.222107" points="938.457,-25.3953 927.944,-24.083 935.344,-31.665 938.457,-25.3953"/>
</g>
<!-- &#45;30&#45;&gt;1 -->
<g id="edge114" class="edge"><title>&#45;30&#45;&gt;1</title>
<path fill="none" stroke="green" stroke-width="0.220212" d="M1708.46,-77.7445C1704.29,-73.3377 1698.54,-68.2844 1692.24,-65.6985 1566.02,-13.8407 1215.16,-41.8619 1079.24,-29.6985 1048.12,-26.9131 1012.41,-22.4065 989.146,-19.2945"/>
<polygon fill="green" stroke="green" stroke-width="0.220212" points="989.478,-15.8075 979.099,-17.9332 988.538,-22.7441 989.478,-15.8075"/>
</g>
<!-- &#45;30&#45;&gt;2 -->
<g id="edge115" class="edge"><title>&#45;30&#45;&gt;2</title>
<path fill="none" stroke="green" stroke-width="0.120402" d="M1708.46,-77.7562C1704.28,-73.3533 1698.53,-68.3 1692.24,-65.6985 1575.99,-17.5977 1247.67,-66.0963 1127.24,-29.6985 1126.18,-29.3784 1125.12,-29.004 1124.06,-28.5877"/>
<polygon fill="green" stroke="green" stroke-width="0.120402" points="1125.47,-25.3758 1114.96,-24.0417 1122.34,-31.639 1125.47,-25.3758"/>
</g>
<!-- &#45;30&#45;&gt;3 -->
<g id="edge116" class="edge"><title>&#45;30&#45;&gt;3</title>
<path fill="none" stroke="red" stroke-width="0.318079" d="M1708.43,-77.8226C1704.24,-73.4419 1698.49,-68.3886 1692.24,-65.6985 1597.54,-24.9388 1270.06,-17.441 1176.43,-16.1203"/>
<polygon fill="red" stroke="red" stroke-width="0.318079" points="1176.25,-12.6177 1166.2,-15.988 1176.15,-19.6171 1176.25,-12.6177"/>
</g>
<!-- &#45;31 -->
<g id="node31" class="node"><title>&#45;31</title>
<polygon fill="lightgray" stroke="black" points="1776.74,-95.9117 1747.74,-95.9117 1747.74,-77.9117 1776.74,-77.9117 1776.74,-95.9117"/>
<text text-anchor="middle" x="1762.24" y="-84.7117" font-family="Times New Roman,serif" font-size="9.00">&#45;31</text>
</g>
<!-- &#45;31&#45;&gt;0 -->
<g id="edge117" class="edge"><title>&#45;31&#45;&gt;0</title>
<path fill="none" stroke="red" stroke-width="0.307411" d="M1755.48,-77.7123C1751.3,-73.2947 1745.55,-68.2414 1739.24,-65.6985 1574.39,0.724151 1110.85,-79.5338 940.243,-29.6985 939.181,-29.3882 938.116,-29.022 937.057,-28.6122"/>
<polygon fill="red" stroke="red" stroke-width="0.307411" points="938.455,-25.3988 927.941,-24.0903 935.344,-31.6697 938.455,-25.3988"/>
</g>
<!-- &#45;31&#45;&gt;1 -->
<g id="edge118" class="edge"><title>&#45;31&#45;&gt;1</title>
<path fill="none" stroke="green" stroke-width="0.22158" d="M1755.47,-77.7347C1751.29,-73.3245 1745.54,-68.2712 1739.24,-65.6985 1603.26,-10.1612 1225.57,-42.4864 1079.24,-29.6985 1048.11,-26.978 1012.4,-22.4575 989.144,-19.3245"/>
<polygon fill="green" stroke="green" stroke-width="0.22158" points="989.479,-15.8379 979.097,-17.9531 988.532,-22.7735 989.479,-15.8379"/>
</g>
<!-- &#45;31&#45;&gt;2 -->
<g id="edge119" class="edge"><title>&#45;31&#45;&gt;2</title>
<path fill="none" stroke="red" stroke-width="0.14601" d="M1755.46,-77.7447C1751.29,-73.338 1745.54,-68.2847 1739.24,-65.6985 1613.23,-13.919 1257.75,-68.7943 1127.24,-29.6985 1126.18,-29.381 1125.12,-29.0087 1124.06,-28.5941"/>
<polygon fill="red" stroke="red" stroke-width="0.14601" points="1125.46,-25.3818 1114.95,-24.0544 1122.34,-31.6471 1125.46,-25.3818"/>
</g>
<!-- &#45;31&#45;&gt;3 -->
<g id="edge120" class="edge"><title>&#45;31&#45;&gt;3</title>
<path fill="none" stroke="red" stroke-width="0.340735" d="M1755.44,-77.8055C1751.25,-73.419 1745.5,-68.3657 1739.24,-65.6985 1635.44,-21.4717 1274.98,-16.4475 1176.35,-15.9067"/>
<polygon fill="red" stroke="red" stroke-width="0.340735" points="1176.16,-12.4059 1166.15,-15.8622 1176.13,-19.4059 1176.16,-12.4059"/>
</g>
<!-- &#45;32 -->
<g id="node32" class="node"><title>&#45;32</title>
<polygon fill="lightgray" stroke="black" points="2031.74,-162.125 2002.74,-162.125 2002.74,-144.125 2031.74,-144.125 2031.74,-162.125"/>
<text text-anchor="middle" x="2017.24" y="-150.925" font-family="Times New Roman,serif" font-size="9.00">&#45;32</text>
</g>
<!-- &#45;32&#45;&gt;0 -->
<g id="edge121" class="edge"><title>&#45;32&#45;&gt;0</title>
<path fill="none" stroke="green" stroke-width="0.369317" d="M2002.49,-152.083C1823.65,-151.545 78.6434,-145.346 42.2428,-108.125 29.0588,-94.6439 29.2947,-79.4062 42.2428,-65.6985 72.1865,-33.9983 751.062,-19.0691 891.11,-16.321"/>
<polygon fill="green" stroke="green" stroke-width="0.369317" points="891.349,-19.8172 901.279,-16.1245 891.213,-12.8185 891.349,-19.8172"/>
</g>
<!-- &#45;32&#45;&gt;1 -->
<g id="edge122" class="edge"><title>&#45;32&#45;&gt;1</title>
<path fill="none" stroke="red" stroke-width="0.30148" stroke-dasharray="1,5" d="M2002.68,-152.041C1836.37,-151.05 301.315,-141.014 269.243,-108.125 256.078,-94.6248 256.272,-79.3843 269.243,-65.6985 320.604,-11.5082 868.665,-50.9402 940.243,-29.6985 941.304,-29.3837 942.367,-29.0137 943.425,-28.6009"/>
<polygon fill="red" stroke="red" stroke-width="0.30148" points="945.143,-31.6555 952.538,-24.0679 942.025,-25.3882 945.143,-31.6555"/>
</g>
<!-- &#45;32&#45;&gt;2 -->
<g id="edge123" class="edge"><title>&#45;32&#45;&gt;2</title>
<path fill="none" stroke="red" stroke-width="0.185156" d="M2014.74,-144.071C2008.72,-126.202 1991.52,-83.419 1960.24,-65.6985 1879.64,-20.0309 1216.19,-55.5927 1127.24,-29.6985 1126.18,-29.3892 1125.12,-29.0237 1124.06,-28.6146"/>
<polygon fill="red" stroke="red" stroke-width="0.185156" points="1125.45,-25.4011 1114.94,-24.0951 1122.34,-31.6727 1125.45,-25.4011"/>
</g>
<!-- &#45;32&#45;&gt;3 -->
<g id="edge124" class="edge"><title>&#45;32&#45;&gt;3</title>
<path fill="none" stroke="red" stroke-width="0.258803" stroke-dasharray="1,5" d="M2022.41,-143.937C2032.43,-126.91 2051.81,-87.4628 2031.24,-65.6985 2001.09,-33.7872 1317.56,-19.0254 1176.55,-16.3142"/>
<polygon fill="red" stroke="red" stroke-width="0.258803" points="1176.37,-12.8104 1166.31,-16.1204 1176.24,-19.8092 1176.37,-12.8104"/>
</g>
<!-- 342 -->
<g id="node46" class="node"><title>342</title>
<ellipse fill="white" stroke="black" cx="2104.24" cy="-86.9117" rx="21.4286" ry="21.4286"/>
<text text-anchor="middle" x="2104.24" y="-84.7117" font-family="Times New Roman,serif" font-size="9.00">342</text>
</g>
<!-- &#45;32&#45;&gt;342 -->
<g id="edge158" class="edge"><title>&#45;32&#45;&gt;342</title>
<path fill="none" stroke="green" stroke-width="0.3" d="M2028.26,-143.992C2040.95,-134.624 2062.22,-118.927 2079.03,-106.52"/>
<polygon fill="green" stroke="green" stroke-width="0.3" points="2081.38,-109.136 2087.35,-100.382 2077.22,-103.504 2081.38,-109.136"/>
</g>
<!-- &#45;33 -->
<g id="node33" class="node"><title>&#45;33</title>
<polygon fill="lightgray" stroke="black" points="1870.74,-95.9117 1841.74,-95.9117 1841.74,-77.9117 1870.74,-77.9117 1870.74,-95.9117"/>
<text text-anchor="middle" x="1856.24" y="-84.7117" font-family="Times New Roman,serif" font-size="9.00">&#45;33</text>
</g>
<!-- &#45;33&#45;&gt;1 -->
<g id="edge125" class="edge"><title>&#45;33&#45;&gt;1</title>
<path fill="none" stroke="red" stroke-width="0.286008" d="M1849.47,-77.7186C1845.3,-73.3032 1839.55,-68.2499 1833.24,-65.6985 1755.49,-34.2494 1162.82,-36.7172 1079.24,-29.6985 1048.1,-27.0836 1012.4,-22.5405 989.14,-19.3734"/>
<polygon fill="red" stroke="red" stroke-width="0.286008" points="989.479,-15.8872 979.094,-17.9854 988.521,-22.8213 989.479,-15.8872"/>
</g>
<!-- &#45;33&#45;&gt;2 -->
<g id="edge126" class="edge"><title>&#45;33&#45;&gt;2</title>
<path fill="none" stroke="red" stroke-width="0.189986" stroke-dasharray="1,5" d="M1849.47,-77.7263C1845.3,-73.3134 1839.55,-68.2601 1833.24,-65.6985 1687.71,-6.5593 1277.9,-74.192 1127.24,-29.6985 1126.18,-29.3851 1125.12,-29.0162 1124.06,-28.6044"/>
<polygon fill="red" stroke="red" stroke-width="0.189986" points="1125.46,-25.3915 1114.95,-24.0748 1122.34,-31.6599 1125.46,-25.3915"/>
</g>
<!-- &#45;33&#45;&gt;3 -->
<g id="edge127" class="edge"><title>&#45;33&#45;&gt;3</title>
<path fill="none" stroke="red" stroke-width="0.355258" d="M1849.45,-77.7782C1845.27,-73.3826 1839.52,-68.3293 1833.24,-65.6985 1711.24,-14.5505 1284.79,-14.6778 1176.43,-15.5677"/>
<polygon fill="red" stroke="red" stroke-width="0.355258" points="1176.12,-12.0704 1166.15,-15.6628 1176.18,-19.0701 1176.12,-12.0704"/>
</g>
<!-- &#45;34 -->
<g id="node34" class="node"><title>&#45;34</title>
<polygon fill="lightgray" stroke="black" points="1823.74,-95.9117 1794.74,-95.9117 1794.74,-77.9117 1823.74,-77.9117 1823.74,-95.9117"/>
<text text-anchor="middle" x="1809.24" y="-84.7117" font-family="Times New Roman,serif" font-size="9.00">&#45;34</text>
</g>
<!-- &#45;34&#45;&gt;0 -->
<g id="edge128" class="edge"><title>&#45;34&#45;&gt;0</title>
<path fill="none" stroke="red" stroke-width="0.263815" d="M1802.48,-77.7064C1798.31,-73.2868 1792.56,-68.2335 1786.24,-65.6985 1611.62,4.40559 1120.93,-82.2338 940.243,-29.6985 939.18,-29.3896 938.115,-29.0244 937.056,-28.6155"/>
<polygon fill="red" stroke="red" stroke-width="0.263815" points="938.454,-25.4019 927.939,-24.0968 935.345,-31.6738 938.454,-25.4019"/>
</g>
<!-- &#45;34&#45;&gt;1 -->
<g id="edge129" class="edge"><title>&#45;34&#45;&gt;1</title>
<path fill="none" stroke="red" stroke-width="0.195142" d="M1802.47,-77.7261C1798.3,-73.3131 1792.55,-68.2598 1786.24,-65.6985 1640.5,-6.48099 1235.98,-43.1111 1079.24,-29.6985 1048.11,-27.0343 1012.4,-22.5017 989.141,-19.3506"/>
<polygon fill="red" stroke="red" stroke-width="0.195142" points="989.479,-15.8642 979.096,-17.9703 988.526,-22.799 989.479,-15.8642"/>
</g>
<!-- &#45;34&#45;&gt;2 -->
<g id="edge130" class="edge"><title>&#45;34&#45;&gt;2</title>
<path fill="none" stroke="red" stroke-width="0.121016" d="M1802.47,-77.7348C1798.29,-73.3248 1792.54,-68.2715 1786.24,-65.6985 1650.47,-10.2395 1267.82,-71.4929 1127.24,-29.6985 1126.18,-29.3832 1125.12,-29.0127 1124.06,-28.5996"/>
<polygon fill="red" stroke="red" stroke-width="0.121016" points="1125.46,-25.387 1114.95,-24.0654 1122.34,-31.6539 1125.46,-25.387"/>
</g>
<!-- &#45;34&#45;&gt;3 -->
<g id="edge131" class="edge"><title>&#45;34&#45;&gt;3</title>
<path fill="none" stroke="green" stroke-width="0.12138" d="M1802.44,-77.7909C1798.26,-73.3995 1792.51,-68.3462 1786.24,-65.6985 1673.34,-18.0065 1279.84,-15.5315 1176.34,-15.7252"/>
<polygon fill="green" stroke="green" stroke-width="0.12138" points="1176.2,-12.2255 1166.21,-15.755 1176.22,-19.2255 1176.2,-12.2255"/>
</g>
<!-- &#45;35 -->
<g id="node35" class="node"><title>&#45;35</title>
<polygon fill="lightgray" stroke="black" points="353.743,-95.9117 324.743,-95.9117 324.743,-77.9117 353.743,-77.9117 353.743,-95.9117"/>
<text text-anchor="middle" x="339.243" y="-84.7117" font-family="Times New Roman,serif" font-size="9.00">&#45;35</text>
</g>
<!-- &#45;35&#45;&gt;0 -->
<g id="edge132" class="edge"><title>&#45;35&#45;&gt;0</title>
<path fill="none" stroke="red" stroke-width="0.127976" d="M346.416,-77.8172C350.807,-73.4345 356.807,-68.3812 363.243,-65.6985 460.705,-25.0733 796.339,-17.4731 891.131,-16.1258"/>
<polygon fill="red" stroke="red" stroke-width="0.127976" points="891.275,-19.6243 901.228,-15.9935 891.183,-12.6249 891.275,-19.6243"/>
</g>
<!-- &#45;35&#45;&gt;1 -->
<g id="edge133" class="edge"><title>&#45;35&#45;&gt;1</title>
<path fill="none" stroke="red" stroke-width="0.386852" d="M346.388,-77.7504C350.77,-73.3455 356.77,-68.2922 363.243,-65.6985 601.748,29.8776 694.239,-103.872 940.243,-29.6985 941.302,-29.3791 942.365,-29.0053 943.422,-28.5894"/>
<polygon fill="red" stroke="red" stroke-width="0.386852" points="945.145,-31.6412 952.531,-24.0452 942.02,-25.3774 945.145,-31.6412"/>
</g>
<!-- &#45;35&#45;&gt;2 -->
<g id="edge134" class="edge"><title>&#45;35&#45;&gt;2</title>
<path fill="none" stroke="green" stroke-width="0.122711" d="M346.384,-77.7388C350.764,-73.3301 356.764,-68.2768 363.243,-65.6985 492.502,-14.2582 849.671,-42.0213 988.243,-29.6985 1019.37,-26.9306 1055.08,-22.4202 1078.34,-19.3026"/>
<polygon fill="green" stroke="green" stroke-width="0.122711" points="1078.95,-22.7521 1088.39,-17.9386 1078.01,-15.8157 1078.95,-22.7521"/>
</g>
<!-- &#45;35&#45;&gt;3 -->
<g id="edge135" class="edge"><title>&#45;35&#45;&gt;3</title>
<path fill="none" stroke="red" stroke-width="0.147728" d="M346.374,-77.7134C350.751,-73.2962 356.751,-68.2429 363.243,-65.6985 521.489,-3.67839 964.144,-77.5233 1127.24,-29.6985 1128.3,-29.3872 1129.37,-29.02 1130.43,-28.6095"/>
<polygon fill="red" stroke="red" stroke-width="0.147728" points="1132.14,-31.6663 1139.54,-24.0849 1129.03,-25.3962 1132.14,-31.6663"/>
</g>
<!-- &#45;36 -->
<g id="node36" class="node"><title>&#45;36</title>
<polygon fill="lightgray" stroke="black" points="400.743,-95.9117 371.743,-95.9117 371.743,-77.9117 400.743,-77.9117 400.743,-95.9117"/>
<text text-anchor="middle" x="386.243" y="-84.7117" font-family="Times New Roman,serif" font-size="9.00">&#45;36</text>
</g>
<!-- &#45;36&#45;&gt;0 -->
<g id="edge136" class="edge"><title>&#45;36&#45;&gt;0</title>
<path fill="none" stroke="red" stroke-width="0.146316" d="M393.424,-77.8372C397.818,-73.4612 403.818,-68.4079 410.243,-65.6985 498.668,-28.409 801.905,-18.5023 891.269,-16.3636"/>
<polygon fill="red" stroke="red" stroke-width="0.146316" points="891.386,-19.8619 901.303,-16.1351 891.226,-12.8637 891.386,-19.8619"/>
</g>
<!-- &#45;36&#45;&gt;1 -->
<g id="edge137" class="edge"><title>&#45;36&#45;&gt;1</title>
<path fill="none" stroke="red" stroke-width="0.606235" d="M393.394,-77.7637C397.777,-73.3633 403.777,-68.31 410.243,-65.6985 629.157,22.7273 714.384,-98.4767 940.243,-29.6985 941.301,-29.3762 942.363,-29 943.42,-28.5822"/>
<polygon fill="red" stroke="red" stroke-width="0.606235" points="945.146,-31.6322 952.526,-24.0308 942.017,-25.3706 945.146,-31.6322"/>
</g>
<!-- &#45;36&#45;&gt;2 -->
<g id="edge138" class="edge"><title>&#45;36&#45;&gt;2</title>
<path fill="none" stroke="red" stroke-width="0.267886" d="M393.388,-77.7501C397.77,-73.3452 403.77,-68.2919 410.243,-65.6985 529.704,-17.8344 860.082,-41.3969 988.243,-29.6985 1019.36,-26.858 1055.07,-22.3632 1078.34,-19.2689"/>
<polygon fill="red" stroke="red" stroke-width="0.267886" points="1078.94,-22.7192 1088.39,-17.9163 1078.01,-15.7817 1078.94,-22.7192"/>
</g>
<!-- &#45;36&#45;&gt;3 -->
<g id="edge139" class="edge"><title>&#45;36&#45;&gt;3</title>
<path fill="none" stroke="red" stroke-width="0.378277" d="M393.377,-77.7209C397.755,-73.3062 403.755,-68.2529 410.243,-65.6985 558.687,-7.25625 974.224,-74.8237 1127.24,-29.6985 1128.3,-29.3855 1129.37,-29.017 1130.43,-28.6054"/>
<polygon fill="red" stroke="red" stroke-width="0.378277" points="1132.14,-31.6612 1139.54,-24.0769 1129.03,-25.3924 1132.14,-31.6612"/>
</g>
<!-- &#45;37 -->
<g id="node37" class="node"><title>&#45;37</title>
<polygon fill="lightgray" stroke="black" points="447.743,-95.9117 418.743,-95.9117 418.743,-77.9117 447.743,-77.9117 447.743,-95.9117"/>
<text text-anchor="middle" x="433.243" y="-84.7117" font-family="Times New Roman,serif" font-size="9.00">&#45;37</text>
</g>
<!-- &#45;37&#45;&gt;0 -->
<g id="edge140" class="edge"><title>&#45;37&#45;&gt;0</title>
<path fill="none" stroke="red" stroke-width="0.135179" d="M440.434,-77.8612C444.831,-73.4933 450.831,-68.44 457.243,-65.6985 536.594,-31.7682 807.205,-19.649 891.18,-16.6548"/>
<polygon fill="red" stroke="red" stroke-width="0.135179" points="891.455,-20.1475 901.328,-16.3055 891.214,-13.1516 891.455,-20.1475"/>
</g>
<!-- &#45;37&#45;&gt;1 -->
<g id="edge141" class="edge"><title>&#45;37&#45;&gt;1</title>
<path fill="none" stroke="green" stroke-width="0.173999" d="M440.4,-77.7797C444.786,-73.3846 450.786,-68.3313 457.243,-65.6985 656.571,15.5794 734.524,-93.0836 940.243,-29.6985 941.3,-29.3727 942.361,-28.9936 943.417,-28.5735"/>
<polygon fill="green" stroke="green" stroke-width="0.173999" points="945.147,-31.6214 952.521,-24.0137 942.013,-25.3625 945.147,-31.6214"/>
</g>
<!-- &#45;37&#45;&gt;2 -->
<g id="edge142" class="edge"><title>&#45;37&#45;&gt;2</title>
<path fill="none" stroke="green" stroke-width="0.431058" d="M440.394,-77.7634C444.777,-73.3629 450.777,-68.3096 457.243,-65.6985 566.908,-21.4095 870.492,-40.7727 988.243,-29.6985 1019.35,-26.7726 1055.07,-22.296 1078.33,-19.2293"/>
<polygon fill="green" stroke="green" stroke-width="0.431058" points="1078.93,-22.6805 1088.38,-17.8902 1078.01,-15.7418 1078.93,-22.6805"/>
</g>
<!-- &#45;37&#45;&gt;3 -->
<g id="edge143" class="edge"><title>&#45;37&#45;&gt;3</title>
<path fill="none" stroke="green" stroke-width="0.138784" d="M440.38,-77.7294C444.759,-73.3176 450.759,-68.2643 457.243,-65.6985 595.885,-10.8336 984.303,-72.1245 1127.24,-29.6985 1128.3,-29.3837 1129.37,-29.0136 1130.43,-28.6008"/>
<polygon fill="green" stroke="green" stroke-width="0.138784" points="1132.14,-31.6554 1139.54,-24.0677 1129.03,-25.3881 1132.14,-31.6554"/>
</g>
<!-- &#45;38 -->
<g id="node38" class="node"><title>&#45;38</title>
<polygon fill="lightgray" stroke="black" points="494.743,-95.9117 465.743,-95.9117 465.743,-77.9117 494.743,-77.9117 494.743,-95.9117"/>
<text text-anchor="middle" x="480.243" y="-84.7117" font-family="Times New Roman,serif" font-size="9.00">&#45;38</text>
</g>
<!-- &#45;38&#45;&gt;0 -->
<g id="edge144" class="edge"><title>&#45;38&#45;&gt;0</title>
<path fill="none" stroke="green" stroke-width="0.112042" d="M487.447,-77.8906C491.848,-73.5324 497.848,-68.4791 504.243,-65.6985 574.461,-35.1643 812.086,-20.9701 890.731,-17.0312"/>
<polygon fill="green" stroke="green" stroke-width="0.112042" points="891.324,-20.5065 901.142,-16.5237 890.983,-13.5148 891.324,-20.5065"/>
</g>
<!-- &#45;38&#45;&gt;1 -->
<g id="edge145" class="edge"><title>&#45;38&#45;&gt;1</title>
<path fill="none" stroke="red" stroke-width="0.247084" d="M487.408,-77.799C491.797,-73.4103 497.797,-68.357 504.243,-65.6985 683.993,8.43465 754.656,-87.693 940.243,-29.6985 941.299,-29.3685 942.359,-28.986 943.414,-28.5631"/>
<polygon fill="red" stroke="red" stroke-width="0.247084" points="945.149,-31.6083 952.515,-23.9929 942.008,-25.3527 945.149,-31.6083"/>
</g>
<!-- &#45;38&#45;&gt;2 -->
<g id="edge146" class="edge"><title>&#45;38&#45;&gt;2</title>
<path fill="none" stroke="green" stroke-width="0.346029" d="M487.4,-77.7793C491.786,-73.3841 497.786,-68.3308 504.243,-65.6985 604.115,-24.9835 880.898,-40.1489 988.243,-29.6985 1019.34,-26.6707 1055.06,-22.2159 1078.33,-19.1821"/>
<polygon fill="green" stroke="green" stroke-width="0.346029" points="1078.92,-22.6343 1088.38,-17.859 1078.01,-15.6942 1078.92,-22.6343"/>
</g>
<!-- &#45;38&#45;&gt;3 -->
<g id="edge147" class="edge"><title>&#45;38&#45;&gt;3</title>
<path fill="none" stroke="red" stroke-width="0.19759" d="M487.384,-77.7392C491.764,-73.3306 497.764,-68.2773 504.243,-65.6985 633.085,-14.4104 994.38,-69.4258 1127.24,-29.6985 1128.3,-29.3815 1129.37,-29.0097 1130.42,-28.5955"/>
<polygon fill="red" stroke="red" stroke-width="0.19759" points="1132.14,-31.6488 1139.53,-24.0571 1129.02,-25.3831 1132.14,-31.6488"/>
</g>
<!-- &#45;39 -->
<g id="node39" class="node"><title>&#45;39</title>
<polygon fill="lightgray" stroke="black" points="541.743,-95.9117 512.743,-95.9117 512.743,-77.9117 541.743,-77.9117 541.743,-95.9117"/>
<text text-anchor="middle" x="527.243" y="-84.7117" font-family="Times New Roman,serif" font-size="9.00">&#45;39</text>
</g>
<!-- &#45;39&#45;&gt;0 -->
<g id="edge148" class="edge"><title>&#45;39&#45;&gt;0</title>
<path fill="none" stroke="red" stroke-width="0.194968" d="M534.881,-77.5178C539.245,-73.2677 545.069,-68.4396 551.243,-65.6985 612.68,-38.4207 819.324,-22.3291 891.283,-17.4452"/>
<polygon fill="red" stroke="red" stroke-width="0.194968" points="891.517,-20.9375 901.263,-16.7817 891.052,-13.9529 891.517,-20.9375"/>
</g>
<!-- &#45;39&#45;&gt;1 -->
<g id="edge149" class="edge"><title>&#45;39&#45;&gt;1</title>
<path fill="none" stroke="red" stroke-width="0.282297" d="M534.418,-77.8229C538.81,-73.4422 544.81,-68.3889 551.243,-65.6985 711.426,1.29433 774.777,-82.3059 940.243,-29.6985 941.297,-29.3632 942.356,-28.9765 943.41,-28.5501"/>
<polygon fill="red" stroke="red" stroke-width="0.282297" points="945.151,-31.5921 952.507,-23.9672 942.001,-25.3406 945.151,-31.5921"/>
</g>
<!-- &#45;39&#45;&gt;2 -->
<g id="edge150" class="edge"><title>&#45;39&#45;&gt;2</title>
<path fill="none" stroke="green" stroke-width="0.185028" d="M534.408,-77.7985C538.796,-73.4097 544.796,-68.3564 551.243,-65.6985 641.326,-28.5559 891.3,-39.5254 988.243,-29.6985 1019.33,-26.5471 1055.05,-22.1188 1078.32,-19.1249"/>
<polygon fill="green" stroke="green" stroke-width="0.185028" points="1078.91,-22.5782 1088.38,-17.8211 1078.01,-15.6364 1078.91,-22.5782"/>
</g>
<!-- &#45;39&#45;&gt;3 -->
<g id="edge151" class="edge"><title>&#45;39&#45;&gt;3</title>
<path fill="none" stroke="red" stroke-width="0.157128" d="M534.389,-77.7506C538.77,-73.3459 544.77,-68.2926 551.243,-65.6985 789.332,29.7255 881.667,-103.757 1127.24,-29.6985 1128.3,-29.379 1129.36,-29.0052 1130.42,-28.5893"/>
<polygon fill="red" stroke="red" stroke-width="0.157128" points="1132.15,-31.641 1139.53,-24.0449 1129.02,-25.3773 1132.15,-31.641"/>
</g>
<!-- &#45;40 -->
<g id="node40" class="node"><title>&#45;40</title>
<polygon fill="lightgray" stroke="black" points="588.743,-95.9117 559.743,-95.9117 559.743,-77.9117 588.743,-77.9117 588.743,-95.9117"/>
<text text-anchor="middle" x="574.243" y="-84.7117" font-family="Times New Roman,serif" font-size="9.00">&#45;40</text>
</g>
<!-- &#45;40&#45;&gt;0 -->
<g id="edge152" class="edge"><title>&#45;40&#45;&gt;0</title>
<path fill="none" stroke="green" stroke-width="0.103144" stroke-dasharray="1,5" d="M581.903,-77.5664C586.273,-73.3304 592.096,-68.5005 598.243,-65.6985 699.331,-19.6154 835.19,-15.0438 890.853,-15.3013"/>
<polygon fill="green" stroke="green" stroke-width="0.103144" points="891.141,-18.8045 901.177,-15.4113 891.215,-11.8049 891.141,-18.8045"/>
</g>
<!-- &#45;40&#45;&gt;1 -->
<g id="edge153" class="edge"><title>&#45;40&#45;&gt;1</title>
<path fill="none" stroke="green" stroke-width="0.22782" d="M581.431,-77.8532C585.827,-73.4827 591.827,-68.4294 598.243,-65.6985 738.873,-5.83972 794.882,-76.9237 940.243,-29.6985 941.295,-29.3566 942.352,-28.9644 943.404,-28.5336"/>
<polygon fill="green" stroke="green" stroke-width="0.22782" points="945.153,-31.5715 952.496,-23.9345 941.993,-25.3252 945.153,-31.5715"/>
</g>
<!-- &#45;40&#45;&gt;2 -->
<g id="edge154" class="edge"><title>&#45;40&#45;&gt;2</title>
<path fill="none" stroke="green" stroke-width="0.215737" d="M581.418,-77.8223C585.81,-73.4415 591.81,-68.3882 598.243,-65.6985 678.542,-32.1261 901.696,-38.9025 988.243,-29.6985 1019.32,-26.3939 1055.04,-21.9984 1078.32,-19.0539"/>
<polygon fill="green" stroke="green" stroke-width="0.215737" points="1078.89,-22.5087 1088.37,-17.7742 1078.01,-15.5647 1078.89,-22.5087"/>
</g>
<!-- &#45;40&#45;&gt;3 -->
<g id="edge155" class="edge"><title>&#45;40&#45;&gt;3</title>
<path fill="none" stroke="green" stroke-width="0.306367" d="M581.394,-77.7641C585.778,-73.3637 591.778,-68.3104 598.243,-65.6985 816.74,22.5752 901.813,-98.3619 1127.24,-29.6985 1128.3,-29.3761 1129.36,-28.9998 1130.42,-28.582"/>
<polygon fill="green" stroke="green" stroke-width="0.306367" points="1132.15,-31.6319 1139.53,-24.0305 1129.02,-25.3704 1132.15,-31.6319"/>
</g>
<!-- 205&#45;&gt;1 -->
<g id="edge157" class="edge"><title>205&#45;&gt;1</title>
<path fill="none" stroke="red" stroke-width="0.347023" d="M88.2011,-72.8226C92.5151,-69.9607 97.3511,-67.3083 102.243,-65.6985 279.296,-7.43335 761.271,-81.7742 940.243,-29.6985 941.305,-29.3894 942.37,-29.024 943.429,-28.615"/>
<polygon fill="red" stroke="red" stroke-width="0.347023" points="945.141,-31.6731 952.546,-24.0958 942.032,-25.4014 945.141,-31.6731"/>
</g>
<!-- 342&#45;&gt;3 -->
<g id="edge159" class="edge"><title>342&#45;&gt;3</title>
<path fill="none" stroke="red" stroke-width="0.109573" d="M2087.17,-73.9189C2081.69,-70.6662 2075.43,-67.5382 2069.24,-65.6985 1895.13,-13.9319 1304.91,-14.8113 1176.17,-15.6426"/>
<polygon fill="red" stroke="red" stroke-width="0.109573" points="1176.09,-12.143 1166.12,-15.7139 1176.14,-19.1429 1176.09,-12.143"/>
</g>
</g>
</svg>
