<?xml version="1.0" encoding="UTF-8" standalone="no"?>
<!DOCTYPE svg PUBLIC "-//W3C//DTD SVG 1.1//EN"
 "http://www.w3.org/Graphics/SVG/1.1/DTD/svg11.dtd">
<!-- Generated by graphviz version 2.38.0 (20140413.2041)
 -->
<!-- Title: %3 Pages: 1 -->
<svg width="1955pt" height="170pt"
 viewBox="0.00 0.00 1954.89 170.12" xmlns="http://www.w3.org/2000/svg" xmlns:xlink="http://www.w3.org/1999/xlink">
<g id="graph0" class="graph" transform="scale(1 1) rotate(0) translate(4 166.125)">
<title>%3</title>
<polygon fill="white" stroke="none" points="-4,4 -4,-166.125 1950.89,-166.125 1950.89,4 -4,4"/>
<!-- &#45;1 -->
<g id="node1" class="node"><title>&#45;1</title>
<polygon fill="lightgray" stroke="black" points="270.8,-95.9117 246.8,-95.9117 246.8,-77.9117 270.8,-77.9117 270.8,-95.9117"/>
<text text-anchor="middle" x="258.8" y="-84.7117" font-family="Times New Roman,serif" font-size="9.00">&#45;1</text>
</g>
<!-- 0 -->
<g id="node41" class="node"><title>0</title>
<ellipse fill="lightblue" stroke="black" cx="832.8" cy="-14.8492" rx="14.7" ry="14.7"/>
<text text-anchor="middle" x="832.8" y="-12.6492" font-family="Times New Roman,serif" font-size="9.00">0</text>
</g>
<!-- &#45;1&#45;&gt;0 -->
<g id="edge1" class="edge"><title>&#45;1&#45;&gt;0</title>
<path fill="none" stroke="green" stroke-width="0.215604" d="M264.881,-77.8218C268.658,-73.4408 273.908,-68.3875 279.8,-65.6985 375.862,-21.8629 712.492,-16.5469 807.601,-15.9254"/>
<polygon fill="green" stroke="green" stroke-width="0.215604" points="807.751,-19.4248 817.733,-15.8716 807.714,-12.4249 807.751,-19.4248"/>
</g>
<!-- 1 -->
<g id="node42" class="node"><title>1</title>
<ellipse fill="lightblue" stroke="black" cx="891.8" cy="-14.8492" rx="14.7" ry="14.7"/>
<text text-anchor="middle" x="891.8" y="-12.6492" font-family="Times New Roman,serif" font-size="9.00">1</text>
</g>
<!-- &#45;1&#45;&gt;1 -->
<g id="edge2" class="edge"><title>&#45;1&#45;&gt;1</title>
<path fill="none" stroke="green" stroke-width="0.21093" d="M264.854,-77.7607C268.621,-73.3592 273.871,-68.3059 279.8,-65.6985 397.403,-13.9812 731.413,-57.6783 856.8,-29.6985 860.916,-28.7801 865.181,-27.4447 869.258,-25.9609"/>
<polygon fill="green" stroke="green" stroke-width="0.21093" points="870.841,-29.0966 878.815,-22.1197 868.231,-22.6017 870.841,-29.0966"/>
</g>
<!-- 2 -->
<g id="node43" class="node"><title>2</title>
<ellipse fill="lightblue" stroke="black" cx="1015.8" cy="-14.8492" rx="14.7" ry="14.7"/>
<text text-anchor="middle" x="1015.8" y="-12.6492" font-family="Times New Roman,serif" font-size="9.00">2</text>
</g>
<!-- &#45;1&#45;&gt;2 -->
<g id="edge3" class="edge"><title>&#45;1&#45;&gt;2</title>
<path fill="none" stroke="green" stroke-width="0.324789" d="M264.842,-77.7354C268.606,-73.3255 273.856,-68.2722 279.8,-65.6985 423.959,-3.27752 833.275,-67.3022 985.8,-29.6985 988.476,-29.0389 991.203,-28.1394 993.869,-27.113"/>
<polygon fill="green" stroke="green" stroke-width="0.324789" points="995.328,-30.2946 1003.05,-23.0424 992.492,-23.8951 995.328,-30.2946"/>
</g>
<!-- 3 -->
<g id="node44" class="node"><title>3</title>
<ellipse fill="lightblue" stroke="black" cx="961.8" cy="-14.8492" rx="14.7" ry="14.7"/>
<text text-anchor="middle" x="961.8" y="-12.6492" font-family="Times New Roman,serif" font-size="9.00">3</text>
</g>
<!-- &#45;1&#45;&gt;3 -->
<g id="edge4" class="edge"><title>&#45;1&#45;&gt;3</title>
<path fill="none" stroke="red" stroke-width="0.127683" d="M264.848,-77.7478C268.614,-73.3421 273.864,-68.2888 279.8,-65.6985 409.547,-9.08638 776.39,-54.2742 915.8,-29.6985 923.195,-28.3949 931.078,-26.2953 938.191,-24.1208"/>
<polygon fill="red" stroke="red" stroke-width="0.127683" points="939.484,-27.3811 947.915,-20.9654 937.323,-20.7229 939.484,-27.3811"/>
</g>
<!-- &#45;2 -->
<g id="node2" class="node"><title>&#45;2</title>
<polygon fill="lightgray" stroke="black" points="312.8,-95.9117 288.8,-95.9117 288.8,-77.9117 312.8,-77.9117 312.8,-95.9117"/>
<text text-anchor="middle" x="300.8" y="-84.7117" font-family="Times New Roman,serif" font-size="9.00">&#45;2</text>
</g>
<!-- &#45;2&#45;&gt;0 -->
<g id="edge5" class="edge"><title>&#45;2&#45;&gt;0</title>
<path fill="none" stroke="green" stroke-width="0.166144" d="M306.888,-77.8381C310.668,-73.4624 315.918,-68.4091 321.8,-65.6985 409.812,-25.1451 716.945,-17.5188 807.492,-16.1413"/>
<polygon fill="green" stroke="green" stroke-width="0.166144" points="807.71,-19.6387 817.66,-15.9996 807.612,-12.6394 807.71,-19.6387"/>
</g>
<!-- &#45;2&#45;&gt;1 -->
<g id="edge6" class="edge"><title>&#45;2&#45;&gt;1</title>
<path fill="none" stroke="green" stroke-width="0.138663" d="M306.858,-77.7715C310.628,-73.3737 315.878,-68.3204 321.8,-65.6985 430.759,-17.4646 740.567,-55.9334 856.8,-29.6985 860.914,-28.77 865.178,-27.4297 869.254,-25.944"/>
<polygon fill="green" stroke="green" stroke-width="0.138663" points="870.837,-29.08 878.811,-22.1037 868.227,-22.5848 870.837,-29.08"/>
</g>
<!-- &#45;2&#45;&gt;2 -->
<g id="edge7" class="edge"><title>&#45;2&#45;&gt;2</title>
<path fill="none" stroke="green" stroke-width="0.240063" stroke-dasharray="1,5" d="M306.846,-77.7425C310.611,-73.3351 315.861,-68.2818 321.8,-65.6985 457.311,-6.763 842.381,-65.3019 985.8,-29.6985 988.475,-29.0346 991.201,-28.1324 993.867,-27.1045"/>
<polygon fill="green" stroke="green" stroke-width="0.240063" points="995.327,-30.2858 1003.05,-23.0326 992.489,-23.8867 995.327,-30.2858"/>
</g>
<!-- &#45;2&#45;&gt;3 -->
<g id="edge8" class="edge"><title>&#45;2&#45;&gt;3</title>
<path fill="none" stroke="green" stroke-width="0.24515" stroke-dasharray="1,5" d="M306.852,-77.7567C310.619,-73.354 315.869,-68.3007 321.8,-65.6985 442.901,-12.5709 785.612,-52.9163 915.8,-29.6985 923.193,-28.3802 931.075,-26.2762 938.188,-24.1023"/>
<polygon fill="green" stroke="green" stroke-width="0.24515" points="939.479,-27.3631 947.913,-20.9504 937.321,-20.7041 939.479,-27.3631"/>
</g>
<!-- &#45;3 -->
<g id="node3" class="node"><title>&#45;3</title>
<polygon fill="lightgray" stroke="black" points="354.8,-95.9117 330.8,-95.9117 330.8,-77.9117 354.8,-77.9117 354.8,-95.9117"/>
<text text-anchor="middle" x="342.8" y="-84.7117" font-family="Times New Roman,serif" font-size="9.00">&#45;3</text>
</g>
<!-- &#45;3&#45;&gt;0 -->
<g id="edge9" class="edge"><title>&#45;3&#45;&gt;0</title>
<path fill="none" stroke="red" stroke-width="0.767256" d="M348.897,-77.8571C352.679,-73.4878 357.929,-68.4345 363.8,-65.6985 443.968,-28.3384 722.816,-18.534 807.935,-16.3831"/>
<polygon fill="red" stroke="red" stroke-width="0.767256" points="808.065,-19.8811 817.978,-16.1427 807.898,-12.8831 808.065,-19.8811"/>
</g>
<!-- &#45;3&#45;&gt;1 -->
<g id="edge10" class="edge"><title>&#45;3&#45;&gt;1</title>
<path fill="none" stroke="green" stroke-width="0.190984" d="M348.864,-77.7842C352.635,-73.3906 357.885,-68.3373 363.8,-65.6985 464.119,-20.9471 749.718,-54.189 856.8,-29.6985 860.911,-28.7583 865.174,-27.4121 869.25,-25.9243"/>
<polygon fill="green" stroke="green" stroke-width="0.190984" points="870.832,-29.0605 878.807,-22.085 868.223,-22.5651 870.832,-29.0605"/>
</g>
<!-- &#45;3&#45;&gt;2 -->
<g id="edge11" class="edge"><title>&#45;3&#45;&gt;2</title>
<path fill="none" stroke="green" stroke-width="0.415894" d="M348.849,-77.7507C352.615,-73.3459 357.865,-68.2926 363.8,-65.6985 490.665,-10.248 851.487,-63.3018 985.8,-29.6985 988.473,-29.0298 991.199,-28.1244 993.864,-27.0949"/>
<polygon fill="green" stroke="green" stroke-width="0.415894" points="995.325,-30.2758 1003.05,-23.0215 992.487,-23.8771 995.325,-30.2758"/>
</g>
<!-- &#45;3&#45;&gt;3 -->
<g id="edge12" class="edge"><title>&#45;3&#45;&gt;3</title>
<path fill="none" stroke="red" stroke-width="0.265407" d="M348.856,-77.7669C352.625,-73.3676 357.875,-68.3143 363.8,-65.6985 476.258,-16.0548 794.832,-51.5588 915.8,-29.6985 923.19,-28.3632 931.071,-26.2542 938.184,-24.0809"/>
<polygon fill="red" stroke="red" stroke-width="0.265407" points="939.473,-27.3424 947.91,-20.9332 937.318,-20.6825 939.473,-27.3424"/>
</g>
<!-- &#45;4 -->
<g id="node4" class="node"><title>&#45;4</title>
<polygon fill="lightgray" stroke="black" points="396.8,-95.9117 372.8,-95.9117 372.8,-77.9117 396.8,-77.9117 396.8,-95.9117"/>
<text text-anchor="middle" x="384.8" y="-84.7117" font-family="Times New Roman,serif" font-size="9.00">&#45;4</text>
</g>
<!-- &#45;4&#45;&gt;0 -->
<g id="edge13" class="edge"><title>&#45;4&#45;&gt;0</title>
<path fill="none" stroke="red" stroke-width="0.747838" d="M390.908,-77.8798C394.694,-73.5181 399.944,-68.4648 405.8,-65.6985 477.99,-31.6017 727.732,-19.68 807.852,-16.6828"/>
<polygon fill="red" stroke="red" stroke-width="0.747838" points="808.128,-20.1752 817.996,-16.3177 807.876,-13.1798 808.128,-20.1752"/>
</g>
<!-- &#45;4&#45;&gt;1 -->
<g id="edge14" class="edge"><title>&#45;4&#45;&gt;1</title>
<path fill="none" stroke="red" stroke-width="0.213861" d="M390.871,-77.7992C394.644,-73.4106 399.894,-68.3573 405.8,-65.6985 589.161,16.8419 660.932,-75.1922 856.8,-29.6985 860.908,-28.7444 865.169,-27.3913 869.244,-25.901"/>
<polygon fill="red" stroke="red" stroke-width="0.213861" points="870.826,-29.0375 878.802,-22.0628 868.218,-22.5417 870.826,-29.0375"/>
</g>
<!-- &#45;4&#45;&gt;2 -->
<g id="edge15" class="edge"><title>&#45;4&#45;&gt;2</title>
<path fill="none" stroke="red" stroke-width="0.194607" d="M390.853,-77.76C394.621,-73.3583 399.871,-68.305 405.8,-65.6985 524.02,-13.7323 860.59,-61.3021 985.8,-29.6985 988.472,-29.0242 991.197,-28.1154 993.862,-27.0838"/>
<polygon fill="red" stroke="red" stroke-width="0.194607" points="995.323,-30.2644 1003.04,-23.0088 992.484,-23.8662 995.323,-30.2644"/>
</g>
<!-- &#45;4&#45;&gt;3 -->
<g id="edge16" class="edge"><title>&#45;4&#45;&gt;3</title>
<path fill="none" stroke="green" stroke-width="0.131691" d="M390.862,-77.7788C394.632,-73.3834 399.882,-68.3301 405.8,-65.6985 509.616,-19.5377 804.05,-50.2016 915.8,-29.6985 923.186,-28.3434 931.066,-26.2286 938.179,-24.056"/>
<polygon fill="green" stroke="green" stroke-width="0.131691" points="939.466,-27.3184 947.906,-20.9132 937.314,-20.6574 939.466,-27.3184"/>
</g>
<!-- &#45;5 -->
<g id="node5" class="node"><title>&#45;5</title>
<polygon fill="lightgray" stroke="black" points="438.8,-95.9117 414.8,-95.9117 414.8,-77.9117 438.8,-77.9117 438.8,-95.9117"/>
<text text-anchor="middle" x="426.8" y="-84.7117" font-family="Times New Roman,serif" font-size="9.00">&#45;5</text>
</g>
<!-- &#45;5&#45;&gt;0 -->
<g id="edge17" class="edge"><title>&#45;5&#45;&gt;0</title>
<path fill="none" stroke="green" stroke-width="0.108257" stroke-dasharray="1,5" d="M432.921,-77.9073C436.711,-73.5548 441.961,-68.5015 447.8,-65.6985 511.951,-34.9047 732.215,-20.9952 807.408,-17.0673"/>
<polygon fill="green" stroke="green" stroke-width="0.108257" points="807.99,-20.5424 817.8,-16.5404 807.636,-13.5514 807.99,-20.5424"/>
</g>
<!-- &#45;5&#45;&gt;1 -->
<g id="edge18" class="edge"><title>&#45;5&#45;&gt;1</title>
<path fill="none" stroke="red" stroke-width="0.163089" d="M432.879,-77.8172C436.655,-73.4346 441.905,-68.3813 447.8,-65.6985 613.893,9.88294 679.221,-71.7068 856.8,-29.6985 860.904,-28.7277 865.163,-27.3663 869.238,-25.873"/>
<polygon fill="red" stroke="red" stroke-width="0.163089" points="870.819,-29.0097 878.795,-22.0362 868.211,-22.5136 870.819,-29.0097"/>
</g>
<!-- &#45;5&#45;&gt;2 -->
<g id="edge19" class="edge"><title>&#45;5&#45;&gt;2</title>
<path fill="none" stroke="red" stroke-width="0.378601" d="M432.858,-77.7707C436.627,-73.3726 441.877,-68.3193 447.8,-65.6985 557.377,-17.2158 869.692,-59.3029 985.8,-29.6985 988.47,-29.0177 991.194,-28.1049 993.858,-27.0711"/>
<polygon fill="red" stroke="red" stroke-width="0.378601" points="995.321,-30.2512 1003.04,-22.9942 992.48,-23.8535 995.321,-30.2512"/>
</g>
<!-- &#45;5&#45;&gt;3 -->
<g id="edge20" class="edge"><title>&#45;5&#45;&gt;3</title>
<path fill="none" stroke="green" stroke-width="0.533364" d="M432.868,-77.7928C436.64,-73.402 441.89,-68.3487 447.8,-65.6985 542.977,-23.0194 813.265,-48.845 915.8,-29.6985 923.182,-28.3202 931.06,-26.1984 938.174,-24.0266"/>
<polygon fill="green" stroke="green" stroke-width="0.533364" points="939.458,-27.29 947.902,-20.8896 937.31,-20.6278 939.458,-27.29"/>
</g>
<!-- &#45;6 -->
<g id="node6" class="node"><title>&#45;6</title>
<polygon fill="lightgray" stroke="black" points="480.8,-95.9117 456.8,-95.9117 456.8,-77.9117 480.8,-77.9117 480.8,-95.9117"/>
<text text-anchor="middle" x="468.8" y="-84.7117" font-family="Times New Roman,serif" font-size="9.00">&#45;6</text>
</g>
<!-- &#45;6&#45;&gt;0 -->
<g id="edge21" class="edge"><title>&#45;6&#45;&gt;0</title>
<path fill="none" stroke="red" stroke-width="0.60942" d="M475.297,-77.5323C479.062,-73.2864 484.165,-68.4578 489.8,-65.6985 546.23,-38.0691 738.837,-22.3454 807.902,-17.4888"/>
<polygon fill="red" stroke="red" stroke-width="0.60942" points="808.15,-20.9801 817.886,-16.8025 807.67,-13.9966 808.15,-20.9801"/>
</g>
<!-- &#45;6&#45;&gt;1 -->
<g id="edge22" class="edge"><title>&#45;6&#45;&gt;1</title>
<path fill="none" stroke="red" stroke-width="0.237059" d="M474.889,-77.8392C478.668,-73.464 483.918,-68.4107 489.8,-65.6985 638.634,2.92859 697.499,-68.2239 856.8,-29.6985 860.899,-28.7072 865.156,-27.3357 869.23,-25.8386"/>
<polygon fill="red" stroke="red" stroke-width="0.237059" points="870.81,-28.9757 878.788,-22.0035 868.204,-22.4792 870.81,-28.9757"/>
</g>
<!-- &#45;6&#45;&gt;2 -->
<g id="edge23" class="edge"><title>&#45;6&#45;&gt;2</title>
<path fill="none" stroke="green" stroke-width="0.164387" d="M474.863,-77.7832C478.635,-73.3893 483.885,-68.336 489.8,-65.6985 590.736,-20.6984 878.792,-57.3044 985.8,-29.6985 988.468,-29.0102 991.191,-28.0927 993.855,-27.0562"/>
<polygon fill="green" stroke="green" stroke-width="0.164387" points="995.318,-30.2359 1003.04,-22.9771 992.476,-23.8388 995.318,-30.2359"/>
</g>
<!-- &#45;6&#45;&gt;3 -->
<g id="edge24" class="edge"><title>&#45;6&#45;&gt;3</title>
<path fill="none" stroke="green" stroke-width="0.506677" d="M474.875,-77.8095C478.65,-73.4243 483.9,-68.371 489.8,-65.6985 576.341,-26.4997 822.477,-47.489 915.8,-29.6985 923.176,-28.2924 931.054,-26.1624 938.167,-23.9916"/>
<polygon fill="green" stroke="green" stroke-width="0.506677" points="939.449,-27.2561 947.896,-20.8614 937.305,-20.5925 939.449,-27.2561"/>
</g>
<!-- &#45;7 -->
<g id="node7" class="node"><title>&#45;7</title>
<polygon fill="lightgray" stroke="black" points="522.8,-95.9117 498.8,-95.9117 498.8,-77.9117 522.8,-77.9117 522.8,-95.9117"/>
<text text-anchor="middle" x="510.8" y="-84.7117" font-family="Times New Roman,serif" font-size="9.00">&#45;7</text>
</g>
<!-- &#45;7&#45;&gt;0 -->
<g id="edge25" class="edge"><title>&#45;7&#45;&gt;0</title>
<path fill="none" stroke="red" stroke-width="0.173734" stroke-dasharray="1,5" d="M517.319,-77.5767C521.09,-73.3438 526.192,-68.5135 531.8,-65.6985 625.275,-18.778 753.624,-14.5817 807.44,-15.1163"/>
<polygon fill="red" stroke="red" stroke-width="0.173734" points="807.696,-18.621 817.753,-15.2885 807.813,-11.622 807.696,-18.621"/>
</g>
<!-- &#45;7&#45;&gt;1 -->
<g id="edge26" class="edge"><title>&#45;7&#45;&gt;1</title>
<path fill="none" stroke="green" stroke-width="0.103725" d="M516.902,-77.8669C520.685,-73.5008 525.935,-68.4475 531.8,-65.6985 663.39,-4.0193 715.762,-64.7447 856.8,-29.6985 860.824,-28.6988 865.002,-27.3441 869.012,-25.8718"/>
<polygon fill="green" stroke="green" stroke-width="0.103725" points="870.458,-29.0632 878.447,-22.1046 867.862,-22.5622 870.458,-29.0632"/>
</g>
<!-- &#45;7&#45;&gt;2 -->
<g id="edge27" class="edge"><title>&#45;7&#45;&gt;2</title>
<path fill="none" stroke="green" stroke-width="0.209466" d="M516.87,-77.798C520.643,-73.409 525.893,-68.3557 531.8,-65.6985 716.395,17.3391 789.976,-80.9146 985.8,-29.6985 988.466,-29.0013 991.188,-28.0782 993.85,-27.0385"/>
<polygon fill="green" stroke="green" stroke-width="0.209466" points="995.315,-30.2177 1003.03,-22.9568 992.471,-23.8214 995.315,-30.2177"/>
</g>
<!-- &#45;7&#45;&gt;3 -->
<g id="edge28" class="edge"><title>&#45;7&#45;&gt;3</title>
<path fill="none" stroke="green" stroke-width="0.104056" d="M516.885,-77.8297C520.663,-73.4513 525.913,-68.398 531.8,-65.6985 687.618,5.74279 747.567,-62.5695 915.8,-29.6985 923.17,-28.2586 931.045,-26.1186 938.159,-23.9489"/>
<polygon fill="green" stroke="green" stroke-width="0.104056" points="939.437,-27.2148 947.89,-20.8272 937.298,-20.5495 939.437,-27.2148"/>
</g>
<!-- &#45;8 -->
<g id="node8" class="node"><title>&#45;8</title>
<polygon fill="lightgray" stroke="black" points="564.8,-95.9117 540.8,-95.9117 540.8,-77.9117 564.8,-77.9117 564.8,-95.9117"/>
<text text-anchor="middle" x="552.8" y="-84.7117" font-family="Times New Roman,serif" font-size="9.00">&#45;8</text>
</g>
<!-- &#45;8&#45;&gt;0 -->
<g id="edge29" class="edge"><title>&#45;8&#45;&gt;0</title>
<path fill="none" stroke="red" stroke-width="0.486072" stroke-dasharray="1,5" d="M559.349,-77.6347C563.128,-73.4188 568.23,-68.5862 573.8,-65.6985 652.249,-25.0341 759.592,-17.3502 807.696,-16.0315"/>
<polygon fill="red" stroke="red" stroke-width="0.486072" points="807.89,-19.5284 817.817,-15.8267 807.748,-12.5299 807.89,-19.5284"/>
</g>
<!-- &#45;8&#45;&gt;1 -->
<g id="edge30" class="edge"><title>&#45;8&#45;&gt;1</title>
<path fill="none" stroke="red" stroke-width="0.314857" stroke-dasharray="1,5" d="M558.919,-77.9024C562.708,-73.5482 567.958,-68.4949 573.8,-65.6985 688.166,-10.9578 734.003,-61.2708 856.8,-29.6985 860.815,-28.6662 864.99,-27.2951 868.998,-25.8165"/>
<polygon fill="red" stroke="red" stroke-width="0.314857" points="870.443,-29.0082 878.434,-22.0512 867.849,-22.5068 870.443,-29.0082"/>
</g>
<!-- &#45;8&#45;&gt;2 -->
<g id="edge31" class="edge"><title>&#45;8&#45;&gt;2</title>
<path fill="none" stroke="red" stroke-width="0.284529" stroke-dasharray="1,5" d="M558.878,-77.8158C562.654,-73.4327 567.904,-68.3794 573.8,-65.6985 741.126,10.3799 808.161,-76.9211 985.8,-29.6985 988.463,-28.9906 991.183,-28.0608 993.844,-27.0174"/>
<polygon fill="red" stroke="red" stroke-width="0.284529" points="995.311,-30.1958 1003.02,-22.9325 992.465,-23.8004 995.311,-30.1958"/>
</g>
<!-- &#45;8&#45;&gt;3 -->
<g id="edge32" class="edge"><title>&#45;8&#45;&gt;3</title>
<path fill="none" stroke="green" stroke-width="0.434236" d="M558.896,-77.8549C562.678,-73.4848 567.928,-68.4315 573.8,-65.6985 712.368,-1.20799 765.967,-59.862 915.8,-29.6985 923.162,-28.2166 931.034,-26.0641 938.149,-23.896"/>
<polygon fill="green" stroke="green" stroke-width="0.434236" points="939.422,-27.1636 947.881,-20.7846 937.29,-20.496 939.422,-27.1636"/>
</g>
<!-- &#45;9 -->
<g id="node9" class="node"><title>&#45;9</title>
<polygon fill="lightgray" stroke="black" points="606.8,-95.9117 582.8,-95.9117 582.8,-77.9117 606.8,-77.9117 606.8,-95.9117"/>
<text text-anchor="middle" x="594.8" y="-84.7117" font-family="Times New Roman,serif" font-size="9.00">&#45;9</text>
</g>
<!-- &#45;9&#45;&gt;0 -->
<g id="edge33" class="edge"><title>&#45;9&#45;&gt;0</title>
<path fill="none" stroke="red" stroke-width="0.394929" d="M601.777,-77.7229C605.771,-73.5328 611.11,-68.6967 616.8,-65.6985 680.405,-32.1839 766.199,-21.0376 807.931,-17.4606"/>
<polygon fill="red" stroke="red" stroke-width="0.394929" points="808.319,-20.9411 818.016,-16.6724 807.773,-13.9623 808.319,-20.9411"/>
</g>
<!-- &#45;9&#45;&gt;1 -->
<g id="edge34" class="edge"><title>&#45;9&#45;&gt;1</title>
<path fill="none" stroke="green" stroke-width="0.310723" stroke-dasharray="1,5" d="M601.688,-77.5443C605.655,-73.3019 610.998,-68.4728 616.8,-65.6985 714.11,-19.1727 752.645,-57.723 856.8,-29.6985 860.804,-28.6214 864.972,-27.2277 868.978,-25.7404"/>
<polygon fill="green" stroke="green" stroke-width="0.310723" points="870.422,-28.9326 878.414,-21.9777 867.829,-22.4305 870.422,-28.9326"/>
</g>
<!-- &#45;9&#45;&gt;2 -->
<g id="edge35" class="edge"><title>&#45;9&#45;&gt;2</title>
<path fill="none" stroke="green" stroke-width="0.516282" d="M601.254,-77.8363C605.239,-73.46 610.739,-68.4067 616.8,-65.6985 767.246,1.51796 826.768,-72.8353 985.8,-29.6985 988.46,-28.9772 991.177,-28.039 993.837,-26.9908"/>
<polygon fill="green" stroke="green" stroke-width="0.516282" points="995.305,-30.1684 1003.02,-22.902 992.457,-23.7741 995.305,-30.1684"/>
</g>
<!-- &#45;9&#45;&gt;3 -->
<g id="edge36" class="edge"><title>&#45;9&#45;&gt;3</title>
<path fill="none" stroke="green" stroke-width="0.729227" d="M601.277,-77.8874C605.27,-73.5282 610.77,-68.4749 616.8,-65.6985 738.383,-9.72332 784.785,-57.0939 915.8,-29.6985 923.15,-28.1616 931.02,-25.9928 938.134,-23.8267"/>
<polygon fill="green" stroke="green" stroke-width="0.729227" points="939.402,-27.0964 947.87,-20.7288 937.279,-20.426 939.402,-27.0964"/>
</g>
<!-- &#45;10 -->
<g id="node10" class="node"><title>&#45;10</title>
<polygon fill="lightgray" stroke="black" points="654.3,-95.9117 625.3,-95.9117 625.3,-77.9117 654.3,-77.9117 654.3,-95.9117"/>
<text text-anchor="middle" x="639.8" y="-84.7117" font-family="Times New Roman,serif" font-size="9.00">&#45;10</text>
</g>
<!-- &#45;10&#45;&gt;0 -->
<g id="edge37" class="edge"><title>&#45;10&#45;&gt;0</title>
<path fill="none" stroke="green" stroke-width="0.374778" d="M647.618,-77.8833C652.034,-73.7401 657.851,-68.8978 663.8,-65.6985 711.449,-40.0751 773.922,-26.0637 807.994,-19.8494"/>
<polygon fill="green" stroke="green" stroke-width="0.374778" points="808.755,-23.2696 818.004,-18.101 807.551,-16.374 808.755,-23.2696"/>
</g>
<!-- &#45;10&#45;&gt;1 -->
<g id="edge38" class="edge"><title>&#45;10&#45;&gt;1</title>
<path fill="none" stroke="red" stroke-width="0.132575" d="M647.493,-77.637C651.873,-73.4218 657.695,-68.589 663.8,-65.6985 742.665,-28.3599 772.956,-53.8627 856.8,-29.6985 860.784,-28.5505 864.942,-27.121 868.944,-25.62"/>
<polygon fill="red" stroke="red" stroke-width="0.132575" points="870.387,-28.813 878.382,-21.8613 867.797,-22.3098 870.387,-28.813"/>
</g>
<!-- &#45;10&#45;&gt;2 -->
<g id="edge39" class="edge"><title>&#45;10&#45;&gt;2</title>
<path fill="none" stroke="red" stroke-width="0.11118" d="M646.995,-77.8688C651.393,-73.5034 657.393,-68.4501 663.8,-65.6985 796.117,-8.87288 847.089,-68.3744 985.8,-29.6985 988.454,-28.9585 991.169,-28.0086 993.827,-26.9537"/>
<polygon fill="red" stroke="red" stroke-width="0.11118" points="995.298,-30.1302 1003,-22.8595 992.446,-23.7375 995.298,-30.1302"/>
</g>
<!-- &#45;10&#45;&gt;3 -->
<g id="edge40" class="edge"><title>&#45;10&#45;&gt;3</title>
<path fill="none" stroke="green" stroke-width="0.251663" d="M647.445,-77.533C651.812,-73.2873 657.635,-68.4586 663.8,-65.6985 767.062,-19.4699 805.321,-54.0755 915.8,-29.6985 923.133,-28.0806 930.997,-25.8878 938.113,-23.7245"/>
<polygon fill="green" stroke="green" stroke-width="0.251663" points="939.372,-26.9973 947.852,-20.6467 937.262,-20.3227 939.372,-26.9973"/>
</g>
<!-- &#45;11 -->
<g id="node11" class="node"><title>&#45;11</title>
<polygon fill="lightgray" stroke="black" points="134.3,-95.9117 105.3,-95.9117 105.3,-77.9117 134.3,-77.9117 134.3,-95.9117"/>
<text text-anchor="middle" x="119.8" y="-84.7117" font-family="Times New Roman,serif" font-size="9.00">&#45;11</text>
</g>
<!-- &#45;11&#45;&gt;0 -->
<g id="edge41" class="edge"><title>&#45;11&#45;&gt;0</title>
<path fill="none" stroke="red" stroke-width="0.218224" d="M126.593,-77.7762C130.774,-73.38 136.524,-68.3267 142.8,-65.6985 266.373,-13.9535 698.564,-14.5379 807.647,-15.5434"/>
<polygon fill="red" stroke="red" stroke-width="0.218224" points="807.682,-19.0438 817.717,-15.6464 807.753,-12.0442 807.682,-19.0438"/>
</g>
<!-- &#45;11&#45;&gt;1 -->
<g id="edge42" class="edge"><title>&#45;11&#45;&gt;1</title>
<path fill="none" stroke="green" stroke-width="0.119902" d="M126.572,-77.7249C130.746,-73.3116 136.496,-68.2583 142.8,-65.6985 289.998,-5.93283 701.542,-63.3726 856.8,-29.6985 860.922,-28.8046 865.189,-27.4814 869.267,-26.0021"/>
<polygon fill="green" stroke="green" stroke-width="0.119902" points="870.851,-29.1374 878.823,-22.1588 868.24,-22.643 870.851,-29.1374"/>
</g>
<!-- &#45;11&#45;&gt;3 -->
<g id="edge43" class="edge"><title>&#45;11&#45;&gt;3</title>
<path fill="none" stroke="red" stroke-width="0.209989" d="M126.568,-77.7159C130.741,-73.2995 136.491,-68.2462 142.8,-65.6985 302.256,-1.31224 746.3,-58.705 915.8,-29.6985 923.202,-28.4319 931.086,-26.3433 938.199,-24.1675"/>
<polygon fill="red" stroke="red" stroke-width="0.209989" points="939.496,-27.4262 947.922,-21.0029 937.33,-20.7699 939.496,-27.4262"/>
</g>
<!-- &#45;12 -->
<g id="node12" class="node"><title>&#45;12</title>
<polygon fill="lightgray" stroke="black" points="701.3,-95.9117 672.3,-95.9117 672.3,-77.9117 701.3,-77.9117 701.3,-95.9117"/>
<text text-anchor="middle" x="686.8" y="-84.7117" font-family="Times New Roman,serif" font-size="9.00">&#45;12</text>
</g>
<!-- &#45;12&#45;&gt;0 -->
<g id="edge44" class="edge"><title>&#45;12&#45;&gt;0</title>
<path fill="none" stroke="green" stroke-width="0.324479" d="M695.188,-77.7231C699.584,-73.7342 705.207,-69.0814 710.8,-65.6985 742.806,-46.3418 783.685,-31.3789 809.054,-23.0917"/>
<polygon fill="green" stroke="green" stroke-width="0.324479" points="810.127,-26.4232 818.592,-20.0524 808.001,-19.7536 810.127,-26.4232"/>
</g>
<!-- &#45;12&#45;&gt;1 -->
<g id="edge45" class="edge"><title>&#45;12&#45;&gt;1</title>
<path fill="none" stroke="red" stroke-width="0.376493" d="M694.561,-77.7757C698.962,-73.601 704.781,-68.7629 710.8,-65.6985 770.36,-35.38 793.139,-50.0398 856.8,-29.6985 860.749,-28.4367 864.89,-26.9499 868.886,-25.427"/>
<polygon fill="red" stroke="red" stroke-width="0.376493" points="870.325,-28.6212 878.325,-21.6747 867.74,-22.1162 870.325,-28.6212"/>
</g>
<!-- &#45;12&#45;&gt;2 -->
<g id="edge46" class="edge"><title>&#45;12&#45;&gt;2</title>
<path fill="none" stroke="red" stroke-width="0.207624" d="M694.432,-77.5041C698.795,-73.2499 704.619,-68.4224 710.8,-65.6985 823.599,-15.9921 867.381,-63.9211 985.8,-29.6985 988.447,-28.9335 991.157,-27.9681 993.813,-26.9043"/>
<polygon fill="red" stroke="red" stroke-width="0.207624" points="995.287,-30.0792 1002.99,-22.8027 992.43,-23.6887 995.287,-30.0792"/>
</g>
<!-- &#45;12&#45;&gt;3 -->
<g id="edge47" class="edge"><title>&#45;12&#45;&gt;3</title>
<path fill="none" stroke="green" stroke-width="0.122047" d="M694.481,-77.6112C698.858,-73.3884 704.68,-68.5567 710.8,-65.6985 794.617,-26.5567 825.798,-51.0701 915.8,-29.6985 923.106,-27.9637 930.963,-25.7362 938.079,-23.5771"/>
<polygon fill="green" stroke="green" stroke-width="0.122047" points="939.326,-26.8543 947.825,-20.5281 937.236,-20.1736 939.326,-26.8543"/>
</g>
<!-- &#45;13 -->
<g id="node13" class="node"><title>&#45;13</title>
<polygon fill="lightgray" stroke="black" points="48.3004,-95.9117 19.3004,-95.9117 19.3004,-77.9117 48.3004,-77.9117 48.3004,-95.9117"/>
<text text-anchor="middle" x="33.8004" y="-84.7117" font-family="Times New Roman,serif" font-size="9.00">&#45;13</text>
</g>
<!-- &#45;13&#45;&gt;0 -->
<g id="edge48" class="edge"><title>&#45;13&#45;&gt;0</title>
<path fill="none" stroke="green" stroke-width="0.587269" d="M42.7396,-77.7514C48.136,-73.3469 55.386,-68.2936 62.8004,-65.6985 205.04,-15.9136 692.023,-15.1335 807.907,-15.6749"/>
<polygon fill="green" stroke="green" stroke-width="0.587269" points="807.92,-19.1749 817.939,-15.7298 807.959,-12.175 807.92,-19.1749"/>
</g>
<!-- &#45;13&#45;&gt;1 -->
<g id="edge49" class="edge"><title>&#45;13&#45;&gt;1</title>
<path fill="none" stroke="red" stroke-width="0.305916" stroke-dasharray="1,5" d="M42.7211,-77.6975C48.1113,-73.2751 55.3613,-68.2218 62.8004,-65.6985 230.066,-8.96374 684.094,-66.6989 856.8,-29.6985 860.924,-28.8151 865.192,-27.4971 869.271,-26.0196"/>
<polygon fill="red" stroke="red" stroke-width="0.305916" points="870.856,-29.1548 878.827,-22.1755 868.243,-22.6605 870.856,-29.1548"/>
</g>
<!-- &#45;13&#45;&gt;3 -->
<g id="edge50" class="edge"><title>&#45;13&#45;&gt;3</title>
<path fill="none" stroke="green" stroke-width="0.428348" d="M48.7912,-79.752C61.1677,-74.9786 79.3139,-68.6903 95.8004,-65.6985 454.734,-0.563753 556.15,-90.7525 915.8,-29.6985 923.203,-28.4418 931.089,-26.3561 938.201,-24.1799"/>
<polygon fill="green" stroke="green" stroke-width="0.428348" points="939.499,-27.4382 947.924,-21.0129 937.331,-20.7824 939.499,-27.4382"/>
</g>
<!-- &#45;14 -->
<g id="node14" class="node"><title>&#45;14</title>
<polygon fill="lightgray" stroke="black" points="748.3,-95.9117 719.3,-95.9117 719.3,-77.9117 748.3,-77.9117 748.3,-95.9117"/>
<text text-anchor="middle" x="733.8" y="-84.7117" font-family="Times New Roman,serif" font-size="9.00">&#45;14</text>
</g>
<!-- &#45;14&#45;&gt;0 -->
<g id="edge51" class="edge"><title>&#45;14&#45;&gt;0</title>
<path fill="none" stroke="green" stroke-width="0.440742" d="M742.946,-77.7888C747.343,-73.9945 752.744,-69.4889 757.8,-65.6985 775.515,-52.4183 796.581,-38.577 811.87,-28.859"/>
<polygon fill="green" stroke="green" stroke-width="0.440742" points="813.966,-31.6749 820.561,-23.3829 810.235,-25.7525 813.966,-31.6749"/>
</g>
<!-- &#45;14&#45;&gt;1 -->
<g id="edge52" class="edge"><title>&#45;14&#45;&gt;1</title>
<path fill="none" stroke="green" stroke-width="0.912863" d="M742.133,-77.6299C746.515,-73.6173 752.142,-68.9714 757.8,-65.6985 798.329,-42.258 813.029,-46.3133 856.8,-29.6985 860.676,-28.2274 864.78,-26.6349 868.762,-25.0716"/>
<polygon fill="green" stroke="green" stroke-width="0.912863" points="870.197,-28.2677 878.205,-21.3312 867.619,-21.7596 870.197,-28.2677"/>
</g>
<!-- &#45;14&#45;&gt;2 -->
<g id="edge53" class="edge"><title>&#45;14&#45;&gt;2</title>
<path fill="none" stroke="green" stroke-width="0.310976" d="M741.462,-77.5691C745.833,-73.3339 751.656,-68.5039 757.8,-65.6985 851.123,-23.0927 887.63,-59.4807 985.8,-29.6985 988.437,-28.8986 991.14,-27.9113 993.793,-26.8352"/>
<polygon fill="green" stroke="green" stroke-width="0.310976" points="995.271,-30.0079 1002.96,-22.7234 992.408,-23.6204 995.271,-30.0079"/>
</g>
<!-- &#45;14&#45;&gt;3 -->
<g id="edge54" class="edge"><title>&#45;14&#45;&gt;3</title>
<path fill="none" stroke="green" stroke-width="0.418953" d="M741.54,-77.733C745.934,-73.5459 751.754,-68.7094 757.8,-65.6985 822.272,-33.5961 846.166,-48.0908 915.8,-29.6985 923.06,-27.781 930.903,-25.4993 938.021,-23.3467"/>
<polygon fill="green" stroke="green" stroke-width="0.418953" points="939.251,-26.6302 947.778,-20.3428 937.191,-19.9401 939.251,-26.6302"/>
</g>
<!-- &#45;15 -->
<g id="node15" class="node"><title>&#45;15</title>
<polygon fill="lightgray" stroke="black" points="795.3,-95.9117 766.3,-95.9117 766.3,-77.9117 795.3,-77.9117 795.3,-95.9117"/>
<text text-anchor="middle" x="780.8" y="-84.7117" font-family="Times New Roman,serif" font-size="9.00">&#45;15</text>
</g>
<!-- &#45;15&#45;&gt;0 -->
<g id="edge55" class="edge"><title>&#45;15&#45;&gt;0</title>
<path fill="none" stroke="green" stroke-width="0.238961" d="M786.765,-77.8746C794.365,-67.6352 807.759,-49.5885 818.147,-35.5923"/>
<polygon fill="green" stroke="green" stroke-width="0.238961" points="820.999,-37.6231 824.148,-27.5071 815.378,-33.4512 820.999,-37.6231"/>
</g>
<!-- &#45;15&#45;&gt;1 -->
<g id="edge56" class="edge"><title>&#45;15&#45;&gt;1</title>
<path fill="none" stroke="green" stroke-width="0.291003" d="M789.836,-77.6366C794.208,-73.8089 799.621,-69.3192 804.8,-65.6985 825.866,-50.9707 851.574,-36.6487 869.561,-27.1639"/>
<polygon fill="green" stroke="green" stroke-width="0.291003" points="871.425,-30.1399 878.681,-22.4204 868.194,-23.9298 871.425,-30.1399"/>
</g>
<!-- &#45;15&#45;&gt;2 -->
<g id="edge57" class="edge"><title>&#45;15&#45;&gt;2</title>
<path fill="none" stroke="red" stroke-width="0.377416" d="M788.507,-77.666C792.891,-73.4592 798.712,-68.6254 804.8,-65.6985 878.721,-30.1596 907.801,-55.0639 985.8,-29.6985 988.421,-28.8464 991.114,-27.8265 993.76,-26.7318"/>
<polygon fill="red" stroke="red" stroke-width="0.377416" points="995.246,-29.9014 1002.93,-22.6047 992.372,-23.5185 995.246,-29.9014"/>
</g>
<!-- &#45;15&#45;&gt;3 -->
<g id="edge58" class="edge"><title>&#45;15&#45;&gt;3</title>
<path fill="none" stroke="red" stroke-width="0.262927" d="M789.077,-77.5303C793.444,-73.4923 799.075,-68.8537 804.8,-65.6985 810.789,-62.3979 895.488,-36.197 937.925,-23.1618"/>
<polygon fill="red" stroke="red" stroke-width="0.262927" points="939.196,-26.4328 947.73,-20.1534 937.143,-19.7407 939.196,-26.4328"/>
</g>
<!-- &#45;16 -->
<g id="node16" class="node"><title>&#45;16</title>
<polygon fill="lightgray" stroke="black" points="842.3,-95.9117 813.3,-95.9117 813.3,-77.9117 842.3,-77.9117 842.3,-95.9117"/>
<text text-anchor="middle" x="827.8" y="-84.7117" font-family="Times New Roman,serif" font-size="9.00">&#45;16</text>
</g>
<!-- &#45;16&#45;&gt;0 -->
<g id="edge59" class="edge"><title>&#45;16&#45;&gt;0</title>
<path fill="none" stroke="red" stroke-width="0.529696" d="M828.374,-77.8746C829.027,-68.7202 830.126,-53.3256 831.065,-40.1641"/>
<polygon fill="red" stroke="red" stroke-width="0.529696" points="834.583,-40.0435 831.803,-29.8197 827.6,-39.5451 834.583,-40.0435"/>
</g>
<!-- &#45;16&#45;&gt;1 -->
<g id="edge60" class="edge"><title>&#45;16&#45;&gt;1</title>
<path fill="none" stroke="green" stroke-width="0.287321" d="M835.142,-77.8746C844.803,-67.2982 862.073,-48.3922 875.016,-34.2241"/>
<polygon fill="green" stroke="green" stroke-width="0.287321" points="877.885,-36.2722 882.045,-26.5283 872.717,-31.5511 877.885,-36.2722"/>
</g>
<!-- &#45;16&#45;&gt;2 -->
<g id="edge61" class="edge"><title>&#45;16&#45;&gt;2</title>
<path fill="none" stroke="red" stroke-width="0.546362" d="M835.587,-77.8252C839.995,-73.6651 845.813,-68.825 851.8,-65.6985 906.465,-37.1557 927.819,-50.6978 985.8,-29.6985 988.391,-28.7602 991.066,-27.6865 993.701,-26.5612"/>
<polygon fill="red" stroke="red" stroke-width="0.546362" points="995.198,-29.7259 1002.86,-22.4088 992.307,-23.3506 995.198,-29.7259"/>
</g>
<!-- &#45;16&#45;&gt;3 -->
<g id="edge62" class="edge"><title>&#45;16&#45;&gt;3</title>
<path fill="none" stroke="green" stroke-width="0.281891" d="M836.243,-77.8116C840.652,-73.8453 846.271,-69.186 851.8,-65.6985 879.943,-47.9475 915.465,-33.0482 938.403,-24.2864"/>
<polygon fill="green" stroke="green" stroke-width="0.281891" points="939.843,-27.4846 947.985,-20.7044 937.392,-20.9278 939.843,-27.4846"/>
</g>
<!-- &#45;17 -->
<g id="node17" class="node"><title>&#45;17</title>
<polygon fill="lightgray" stroke="black" points="889.3,-95.9117 860.3,-95.9117 860.3,-77.9117 889.3,-77.9117 889.3,-95.9117"/>
<text text-anchor="middle" x="874.8" y="-84.7117" font-family="Times New Roman,serif" font-size="9.00">&#45;17</text>
</g>
<!-- &#45;17&#45;&gt;0 -->
<g id="edge63" class="edge"><title>&#45;17&#45;&gt;0</title>
<path fill="none" stroke="green" stroke-width="0.178522" stroke-dasharray="1,5" d="M869.982,-77.8746C864.03,-67.9452 853.677,-50.6741 845.404,-36.8744"/>
<polygon fill="green" stroke="green" stroke-width="0.178522" points="848.233,-34.7856 840.089,-28.0082 842.229,-38.3847 848.233,-34.7856"/>
</g>
<!-- &#45;17&#45;&gt;1 -->
<g id="edge64" class="edge"><title>&#45;17&#45;&gt;1</title>
<path fill="none" stroke="green" stroke-width="0.861738" d="M876.751,-77.8746C879.008,-68.572 882.829,-52.8252 886.055,-39.5264"/>
<polygon fill="green" stroke="green" stroke-width="0.861738" points="889.518,-40.0989 888.475,-29.5556 882.715,-38.4483 889.518,-40.0989"/>
</g>
<!-- &#45;17&#45;&gt;2 -->
<g id="edge65" class="edge"><title>&#45;17&#45;&gt;2</title>
<path fill="none" stroke="red" stroke-width="0.344234" d="M883.194,-77.7336C887.592,-73.7474 893.214,-69.0938 898.8,-65.6985 934.559,-43.9635 947.463,-46.4715 985.8,-29.6985 988.325,-28.5941 990.958,-27.4166 993.57,-26.2323"/>
<polygon fill="red" stroke="red" stroke-width="0.344234" points="995.085,-29.3881 1002.71,-22.0312 992.161,-23.0279 995.085,-29.3881"/>
</g>
<!-- &#45;17&#45;&gt;3 -->
<g id="edge66" class="edge"><title>&#45;17&#45;&gt;3</title>
<path fill="none" stroke="green" stroke-width="0.113505" d="M884.552,-77.5826C888.89,-73.9083 894.074,-69.557 898.8,-65.6985 913.372,-53.8018 930.077,-40.6038 942.622,-30.7779"/>
<polygon fill="green" stroke="green" stroke-width="0.113505" points="944.84,-33.4864 950.566,-24.5716 940.531,-27.9704 944.84,-33.4864"/>
</g>
<!-- &#45;18 -->
<g id="node18" class="node"><title>&#45;18</title>
<polygon fill="lightgray" stroke="black" points="1825.3,-162.125 1796.3,-162.125 1796.3,-144.125 1825.3,-144.125 1825.3,-162.125"/>
<text text-anchor="middle" x="1810.8" y="-150.925" font-family="Times New Roman,serif" font-size="9.00">&#45;18</text>
</g>
<!-- &#45;18&#45;&gt;0 -->
<g id="edge67" class="edge"><title>&#45;18&#45;&gt;0</title>
<path fill="none" stroke="red" stroke-width="0.424071" stroke-dasharray="1,5" d="M1796.06,-152.051C1626.08,-151.166 42.8739,-142.016 9.8004,-108.125 -3.3691,-94.6297 -3.12358,-79.429 9.8004,-65.6985 37.8323,-35.9173 671.913,-19.577 807.452,-16.4176"/>
<polygon fill="red" stroke="red" stroke-width="0.424071" points="807.76,-19.9116 817.677,-16.1824 807.599,-12.9134 807.76,-19.9116"/>
</g>
<!-- &#45;18&#45;&gt;1 -->
<g id="edge68" class="edge"><title>&#45;18&#45;&gt;1</title>
<path fill="none" stroke="red" stroke-width="0.229479" d="M1796.26,-152.034C1631.79,-150.972 127.243,-140.385 95.8004,-108.125 82.6392,-94.6217 82.7859,-79.3432 95.8004,-65.6985 154.226,-4.44392 774.046,-47.5126 856.8,-29.6985 860.923,-28.811 865.191,-27.491 869.269,-26.0128"/>
<polygon fill="red" stroke="red" stroke-width="0.229479" points="870.854,-29.1481 878.825,-22.169 868.242,-22.6537 870.854,-29.1481"/>
</g>
<!-- &#45;18&#45;&gt;2 -->
<g id="edge69" class="edge"><title>&#45;18&#45;&gt;2</title>
<path fill="none" stroke="red" stroke-width="0.527982" d="M1825.34,-152.108C1852.76,-151.191 1911.68,-144.814 1937.8,-108.125 1948.74,-92.7634 1950.77,-79.387 1937.8,-65.6985 1906.07,-32.2052 1185.56,-18.6351 1040.94,-16.2442"/>
<polygon fill="red" stroke="red" stroke-width="0.527982" points="1040.89,-12.743 1030.84,-16.0799 1040.78,-19.7421 1040.89,-12.743"/>
</g>
<!-- &#45;18&#45;&gt;3 -->
<g id="edge70" class="edge"><title>&#45;18&#45;&gt;3</title>
<path fill="none" stroke="red" stroke-width="0.152653" d="M1811.87,-144.107C1813.7,-126.69 1815.19,-85.3862 1791.8,-65.6985 1723.73,-8.39825 1078.26,-50.7393 991.8,-29.6985 989.123,-29.0469 986.395,-28.1523 983.728,-27.1289"/>
<polygon fill="red" stroke="red" stroke-width="0.152653" points="985.105,-23.9108 974.544,-23.0605 982.27,-30.3109 985.105,-23.9108"/>
</g>
<!-- 181 -->
<g id="node45" class="node"><title>181</title>
<ellipse fill="white" stroke="black" cx="1907.8" cy="-86.9117" rx="21.4286" ry="21.4286"/>
<text text-anchor="middle" x="1907.8" y="-84.7117" font-family="Times New Roman,serif" font-size="9.00">181</text>
</g>
<!-- &#45;18&#45;&gt;181 -->
<g id="edge157" class="edge"><title>&#45;18&#45;&gt;181</title>
<path fill="none" stroke="red" stroke-width="0.296754" d="M1823.18,-144.059C1836.65,-135.268 1858.8,-120.765 1877.8,-108.125 1879.24,-107.168 1880.71,-106.184 1882.2,-105.189"/>
<polygon fill="red" stroke="red" stroke-width="0.296754" points="1884.34,-107.97 1890.69,-99.491 1880.44,-102.158 1884.34,-107.97"/>
</g>
<!-- &#45;19 -->
<g id="node19" class="node"><title>&#45;19</title>
<polygon fill="lightgray" stroke="black" points="936.3,-95.9117 907.3,-95.9117 907.3,-77.9117 936.3,-77.9117 936.3,-95.9117"/>
<text text-anchor="middle" x="921.8" y="-84.7117" font-family="Times New Roman,serif" font-size="9.00">&#45;19</text>
</g>
<!-- &#45;19&#45;&gt;0 -->
<g id="edge71" class="edge"><title>&#45;19&#45;&gt;0</title>
<path fill="none" stroke="green" stroke-width="0.512874" d="M912.976,-77.8838C908.75,-74.1103 903.58,-69.5948 898.8,-65.6985 883.789,-53.4613 866.275,-40.2816 853.063,-30.5492"/>
<polygon fill="green" stroke="green" stroke-width="0.512874" points="854.822,-27.4999 844.686,-24.4162 850.687,-33.1478 854.822,-27.4999"/>
</g>
<!-- &#45;19&#45;&gt;1 -->
<g id="edge72" class="edge"><title>&#45;19&#45;&gt;1</title>
<path fill="none" stroke="green" stroke-width="0.290544" d="M918.359,-77.8746C914.223,-68.2142 907.11,-51.6046 901.287,-38.0034"/>
<polygon fill="green" stroke="green" stroke-width="0.290544" points="904.488,-36.5888 897.335,-28.7738 898.053,-39.3442 904.488,-36.5888"/>
</g>
<!-- &#45;19&#45;&gt;2 -->
<g id="edge73" class="edge"><title>&#45;19&#45;&gt;2</title>
<path fill="none" stroke="red" stroke-width="0.430042" d="M931.002,-77.8614C935.41,-74.083 940.806,-69.5698 945.8,-65.6985 962.051,-53.1022 981.091,-39.6216 995.208,-29.8591"/>
<polygon fill="red" stroke="red" stroke-width="0.430042" points="997.435,-32.5753 1003.7,-24.0274 993.471,-26.806 997.435,-32.5753"/>
</g>
<!-- &#45;19&#45;&gt;3 -->
<g id="edge74" class="edge"><title>&#45;19&#45;&gt;3</title>
<path fill="none" stroke="green" stroke-width="0.325749" d="M926.389,-77.8746C932.058,-67.9452 941.918,-50.6741 949.797,-36.8744"/>
<polygon fill="green" stroke="green" stroke-width="0.325749" points="952.94,-38.4279 954.859,-28.0082 946.861,-34.9572 952.94,-38.4279"/>
</g>
<!-- &#45;20 -->
<g id="node20" class="node"><title>&#45;20</title>
<polygon fill="lightgray" stroke="black" points="1868.3,-95.9117 1839.3,-95.9117 1839.3,-77.9117 1868.3,-77.9117 1868.3,-95.9117"/>
<text text-anchor="middle" x="1853.8" y="-84.7117" font-family="Times New Roman,serif" font-size="9.00">&#45;20</text>
</g>
<!-- &#45;20&#45;&gt;1 -->
<g id="edge75" class="edge"><title>&#45;20&#45;&gt;1</title>
<path fill="none" stroke="red" stroke-width="0.184881" d="M1838.81,-79.7443C1826.44,-74.9665 1808.29,-68.6759 1791.8,-65.6985 1417.95,1.80577 1312.39,-92.9525 937.8,-29.6985 930.396,-28.4482 922.511,-26.3645 915.398,-24.1881"/>
<polygon fill="red" stroke="red" stroke-width="0.184881" points="916.269,-20.7907 905.676,-21.0195 914.099,-27.4461 916.269,-20.7907"/>
</g>
<!-- &#45;20&#45;&gt;2 -->
<g id="edge76" class="edge"><title>&#45;20&#45;&gt;2</title>
<path fill="none" stroke="green" stroke-width="0.103168" d="M1844.86,-77.7428C1839.47,-73.3353 1832.22,-68.282 1824.8,-65.6985 1674.83,-13.4699 1160.46,-14.5879 1040.81,-15.584"/>
<polygon fill="green" stroke="green" stroke-width="0.103168" points="1040.75,-12.0843 1030.78,-15.6753 1040.81,-19.084 1040.75,-12.0843"/>
</g>
<!-- &#45;20&#45;&gt;3 -->
<g id="edge77" class="edge"><title>&#45;20&#45;&gt;3</title>
<path fill="none" stroke="red" stroke-width="0.401104" d="M1844.88,-77.6916C1839.49,-73.2672 1832.24,-68.2139 1824.8,-65.6985 1649.27,-6.3685 1171.87,-73.3524 991.8,-29.6985 989.123,-29.0493 986.394,-28.1562 983.727,-27.1336"/>
<polygon fill="red" stroke="red" stroke-width="0.401104" points="985.104,-23.9155 974.543,-23.066 982.269,-30.3158 985.104,-23.9155"/>
</g>
<!-- &#45;21 -->
<g id="node21" class="node"><title>&#45;21</title>
<polygon fill="lightgray" stroke="black" points="983.3,-95.9117 954.3,-95.9117 954.3,-77.9117 983.3,-77.9117 983.3,-95.9117"/>
<text text-anchor="middle" x="968.8" y="-84.7117" font-family="Times New Roman,serif" font-size="9.00">&#45;21</text>
</g>
<!-- &#45;21&#45;&gt;0 -->
<g id="edge78" class="edge"><title>&#45;21&#45;&gt;0</title>
<path fill="none" stroke="green" stroke-width="0.451666" d="M960.776,-77.7654C956.567,-73.7873 951.177,-69.1314 945.8,-65.6985 930.187,-55.7299 884.175,-36.5098 855.91,-25.0674"/>
<polygon fill="green" stroke="green" stroke-width="0.451666" points="856.973,-21.7222 846.389,-21.2351 854.359,-28.2159 856.973,-21.7222"/>
</g>
<!-- &#45;21&#45;&gt;1 -->
<g id="edge79" class="edge"><title>&#45;21&#45;&gt;1</title>
<path fill="none" stroke="red" stroke-width="0.124869" d="M959.968,-77.8746C947.857,-66.8557 925.811,-46.7955 910.068,-32.4714"/>
<polygon fill="red" stroke="red" stroke-width="0.124869" points="912.249,-29.7232 902.497,-25.5819 907.538,-34.9007 912.249,-29.7232"/>
</g>
<!-- &#45;21&#45;&gt;2 -->
<g id="edge80" class="edge"><title>&#45;21&#45;&gt;2</title>
<path fill="none" stroke="red" stroke-width="0.591864" d="M974.192,-77.8746C980.996,-67.7318 992.939,-49.9283 1002.29,-35.9895"/>
<polygon fill="red" stroke="red" stroke-width="0.591864" points="1005.32,-37.7615 1007.98,-27.5071 999.502,-33.8618 1005.32,-37.7615"/>
</g>
<!-- &#45;21&#45;&gt;3 -->
<g id="edge81" class="edge"><title>&#45;21&#45;&gt;3</title>
<path fill="none" stroke="red" stroke-width="0.207356" d="M967.997,-77.8746C967.083,-68.7202 965.545,-53.3256 964.23,-40.1641"/>
<polygon fill="red" stroke="red" stroke-width="0.207356" points="967.673,-39.4221 963.196,-29.8197 960.708,-40.1181 967.673,-39.4221"/>
</g>
<!-- &#45;22 -->
<g id="node22" class="node"><title>&#45;22</title>
<polygon fill="lightgray" stroke="black" points="1030.3,-95.9117 1001.3,-95.9117 1001.3,-77.9117 1030.3,-77.9117 1030.3,-95.9117"/>
<text text-anchor="middle" x="1015.8" y="-84.7117" font-family="Times New Roman,serif" font-size="9.00">&#45;22</text>
</g>
<!-- &#45;22&#45;&gt;0 -->
<g id="edge82" class="edge"><title>&#45;22&#45;&gt;0</title>
<path fill="none" stroke="red" stroke-width="0.291253" d="M1008.37,-77.8554C1004.16,-73.7041 998.583,-68.8628 992.8,-65.6985 942.084,-37.9454 922.521,-48.356 867.8,-29.6985 863.877,-28.3607 859.748,-26.8354 855.758,-25.2978"/>
<polygon fill="red" stroke="red" stroke-width="0.291253" points="856.903,-21.9867 846.317,-21.5499 854.32,-28.4927 856.903,-21.9867"/>
</g>
<!-- &#45;22&#45;&gt;1 -->
<g id="edge83" class="edge"><title>&#45;22&#45;&gt;1</title>
<path fill="none" stroke="red" stroke-width="0.277607" d="M1007.71,-77.8626C1003.49,-73.9093 998.102,-69.2462 992.8,-65.6985 967.662,-48.8763 936.026,-34.1829 914.924,-25.1878"/>
<polygon fill="red" stroke="red" stroke-width="0.277607" points="916.062,-21.87 905.486,-21.2453 913.364,-28.3292 916.062,-21.87"/>
</g>
<!-- &#45;22&#45;&gt;2 -->
<g id="edge84" class="edge"><title>&#45;22&#45;&gt;2</title>
<path fill="none" stroke="red" stroke-width="0.472935" d="M1015.8,-77.8746C1015.8,-68.7202 1015.8,-53.3256 1015.8,-40.1641"/>
<polygon fill="red" stroke="red" stroke-width="0.472935" points="1019.3,-39.8196 1015.8,-29.8197 1012.3,-39.8197 1019.3,-39.8196"/>
</g>
<!-- &#45;22&#45;&gt;3 -->
<g id="edge85" class="edge"><title>&#45;22&#45;&gt;3</title>
<path fill="none" stroke="red" stroke-width="0.253616" d="M1009.61,-77.8746C1001.62,-67.5161 987.48,-49.1677 976.642,-35.1057"/>
<polygon fill="red" stroke="red" stroke-width="0.253616" points="979.282,-32.7976 970.405,-27.0138 973.738,-37.0709 979.282,-32.7976"/>
</g>
<!-- &#45;23 -->
<g id="node23" class="node"><title>&#45;23</title>
<polygon fill="lightgray" stroke="black" points="1077.3,-95.9117 1048.3,-95.9117 1048.3,-77.9117 1077.3,-77.9117 1077.3,-95.9117"/>
<text text-anchor="middle" x="1062.8" y="-84.7117" font-family="Times New Roman,serif" font-size="9.00">&#45;23</text>
</g>
<!-- &#45;23&#45;&gt;0 -->
<g id="edge86" class="edge"><title>&#45;23&#45;&gt;0</title>
<path fill="none" stroke="green" stroke-width="0.194276" d="M1055.46,-77.6828C1051.28,-73.481 1045.7,-68.6465 1039.8,-65.6985 969.945,-30.7698 942.605,-52.148 867.8,-29.6985 863.83,-28.5069 859.678,-27.0554 855.678,-25.5461"/>
<polygon fill="green" stroke="green" stroke-width="0.194276" points="856.825,-22.2356 846.24,-21.7898 854.237,-28.7395 856.825,-22.2356"/>
</g>
<!-- &#45;23&#45;&gt;1 -->
<g id="edge87" class="edge"><title>&#45;23&#45;&gt;1</title>
<path fill="none" stroke="green" stroke-width="0.416754" d="M1054.9,-77.5563C1050.73,-73.5249 1045.33,-68.8844 1039.8,-65.6985 1028.82,-59.3706 954.969,-35.706 915.913,-23.3963"/>
<polygon fill="green" stroke="green" stroke-width="0.416754" points="916.491,-19.9091 905.901,-20.2493 914.392,-26.5869 916.491,-19.9091"/>
</g>
<!-- &#45;23&#45;&gt;2 -->
<g id="edge88" class="edge"><title>&#45;23&#45;&gt;2</title>
<path fill="none" stroke="red" stroke-width="0.181751" d="M1057.41,-77.8746C1050.6,-67.7318 1038.66,-49.9283 1029.31,-35.9895"/>
<polygon fill="red" stroke="red" stroke-width="0.181751" points="1032.1,-33.8618 1023.62,-27.5071 1026.29,-37.7615 1032.1,-33.8618"/>
</g>
<!-- &#45;23&#45;&gt;3 -->
<g id="edge89" class="edge"><title>&#45;23&#45;&gt;3</title>
<path fill="none" stroke="green" stroke-width="0.391055" d="M1054.11,-77.7135C1049.91,-73.9027 1044.73,-69.405 1039.8,-65.6985 1021.33,-51.8097 999.005,-37.7973 982.979,-28.1813"/>
<polygon fill="green" stroke="green" stroke-width="0.391055" points="984.734,-25.1531 974.348,-23.0618 981.163,-31.1737 984.734,-25.1531"/>
</g>
<!-- &#45;24 -->
<g id="node24" class="node"><title>&#45;24</title>
<polygon fill="lightgray" stroke="black" points="1124.3,-95.9117 1095.3,-95.9117 1095.3,-77.9117 1124.3,-77.9117 1124.3,-95.9117"/>
<text text-anchor="middle" x="1109.8" y="-84.7117" font-family="Times New Roman,serif" font-size="9.00">&#45;24</text>
</g>
<!-- &#45;24&#45;&gt;0 -->
<g id="edge90" class="edge"><title>&#45;24&#45;&gt;0</title>
<path fill="none" stroke="green" stroke-width="0.241187" d="M1102.51,-77.5803C1098.34,-73.3484 1092.76,-68.5179 1086.8,-65.6985 997.639,-23.5089 962.87,-55.9952 867.8,-29.6985 863.805,-28.5933 859.64,-27.1854 855.636,-25.6928"/>
<polygon fill="green" stroke="green" stroke-width="0.241187" points="856.784,-22.3827 846.199,-21.9316 854.193,-28.8853 856.784,-22.3827"/>
</g>
<!-- &#45;24&#45;&gt;1 -->
<g id="edge91" class="edge"><title>&#45;24&#45;&gt;1</title>
<path fill="none" stroke="red" stroke-width="0.396042" d="M1102.43,-77.7549C1098.23,-73.5741 1092.65,-68.7368 1086.8,-65.6985 1026.34,-34.297 1003.55,-47.5255 937.8,-29.6985 930.553,-27.7337 922.714,-25.4379 915.596,-23.287"/>
<polygon fill="red" stroke="red" stroke-width="0.396042" points="916.422,-19.8796 905.835,-20.2948 914.37,-26.5722 916.422,-19.8796"/>
</g>
<!-- &#45;24&#45;&gt;2 -->
<g id="edge92" class="edge"><title>&#45;24&#45;&gt;2</title>
<path fill="none" stroke="green" stroke-width="0.203034" d="M1101.04,-77.8088C1096.82,-74.0188 1091.65,-69.5112 1086.8,-65.6985 1070.39,-52.7888 1050.93,-39.2424 1036.54,-29.5348"/>
<polygon fill="green" stroke="green" stroke-width="0.203034" points="1038.15,-26.4042 1027.9,-23.7551 1034.26,-32.2232 1038.15,-26.4042"/>
</g>
<!-- &#45;24&#45;&gt;3 -->
<g id="edge93" class="edge"><title>&#45;24&#45;&gt;3</title>
<path fill="none" stroke="red" stroke-width="0.286555" d="M1101.85,-77.6432C1097.66,-73.634 1092.27,-68.987 1086.8,-65.6985 1048.11,-42.4217 1033.43,-47.1717 991.8,-29.6985 989.26,-28.6322 986.616,-27.4785 983.998,-26.3078"/>
<polygon fill="red" stroke="red" stroke-width="0.286555" points="985.404,-23.1018 974.855,-22.1179 982.488,-29.4655 985.404,-23.1018"/>
</g>
<!-- &#45;25 -->
<g id="node25" class="node"><title>&#45;25</title>
<polygon fill="lightgray" stroke="black" points="1171.3,-95.9117 1142.3,-95.9117 1142.3,-77.9117 1171.3,-77.9117 1171.3,-95.9117"/>
<text text-anchor="middle" x="1156.8" y="-84.7117" font-family="Times New Roman,serif" font-size="9.00">&#45;25</text>
</g>
<!-- &#45;25&#45;&gt;0 -->
<g id="edge94" class="edge"><title>&#45;25&#45;&gt;0</title>
<path fill="none" stroke="red" stroke-width="0.409922" d="M1149.55,-77.5125C1145.38,-73.2608 1139.8,-68.433 1133.8,-65.6985 1025.25,-16.2089 983.223,-59.8669 867.8,-29.6985 863.79,-28.6502 859.617,-27.271 855.61,-25.7893"/>
<polygon fill="red" stroke="red" stroke-width="0.409922" points="856.759,-22.4795 846.174,-22.0249 854.165,-28.9812 856.759,-22.4795"/>
</g>
<!-- &#45;25&#45;&gt;1 -->
<g id="edge95" class="edge"><title>&#45;25&#45;&gt;1</title>
<path fill="none" stroke="red" stroke-width="0.325303" d="M1149.49,-77.6247C1145.31,-73.4058 1139.73,-68.5735 1133.8,-65.6985 1054.1,-27.0688 1023.89,-50.497 937.8,-29.6985 930.502,-27.9352 922.647,-25.6992 915.531,-23.5412"/>
<polygon fill="red" stroke="red" stroke-width="0.325303" points="916.371,-20.1372 905.783,-20.4992 914.286,-26.8193 916.371,-20.1372"/>
</g>
<!-- &#45;25&#45;&gt;2 -->
<g id="edge96" class="edge"><title>&#45;25&#45;&gt;2</title>
<path fill="none" stroke="red" stroke-width="0.132841" d="M1148.8,-77.7294C1144.6,-73.7422 1139.2,-69.0889 1133.8,-65.6985 1103.31,-46.5652 1064.2,-31.6974 1039.56,-23.3508"/>
<polygon fill="red" stroke="red" stroke-width="0.132841" points="1040.55,-19.9912 1029.95,-20.1796 1038.35,-26.6383 1040.55,-19.9912"/>
</g>
<!-- &#45;25&#45;&gt;3 -->
<g id="edge97" class="edge"><title>&#45;25&#45;&gt;3</title>
<path fill="none" stroke="green" stroke-width="0.16745" d="M1149.41,-77.781C1145.21,-73.6079 1139.63,-68.7695 1133.8,-65.6985 1076.19,-35.3652 1053.17,-51.4351 991.8,-29.6985 989.203,-28.7786 986.524,-27.7164 983.886,-26.5976"/>
<polygon fill="green" stroke="green" stroke-width="0.16745" points="985.279,-23.3863 974.726,-22.4506 982.392,-29.7633 985.279,-23.3863"/>
</g>
<!-- &#45;26 -->
<g id="node26" class="node"><title>&#45;26</title>
<polygon fill="lightgray" stroke="black" points="1218.3,-95.9117 1189.3,-95.9117 1189.3,-77.9117 1218.3,-77.9117 1218.3,-95.9117"/>
<text text-anchor="middle" x="1203.8" y="-84.7117" font-family="Times New Roman,serif" font-size="9.00">&#45;26</text>
</g>
<!-- &#45;26&#45;&gt;0 -->
<g id="edge98" class="edge"><title>&#45;26&#45;&gt;0</title>
<path fill="none" stroke="red" stroke-width="0.210403" d="M1196.96,-77.8755C1192.77,-73.5124 1187.02,-68.4591 1180.8,-65.6985 1052.81,-8.88766 1003.62,-63.7515 867.8,-29.6985 863.779,-28.6904 859.602,-27.3314 855.593,-25.8575"/>
<polygon fill="red" stroke="red" stroke-width="0.210403" points="856.742,-22.5478 846.157,-22.0908 854.147,-29.0489 856.742,-22.5478"/>
</g>
<!-- &#45;26&#45;&gt;1 -->
<g id="edge99" class="edge"><title>&#45;26&#45;&gt;1</title>
<path fill="none" stroke="red" stroke-width="0.411792" stroke-dasharray="1,5" d="M1196.53,-77.5425C1192.36,-73.2996 1186.78,-68.4706 1180.8,-65.6985 1081.75,-19.7847 1044.35,-53.4988 937.8,-29.6985 930.472,-28.0616 922.609,-25.8632 915.494,-23.7006"/>
<polygon fill="red" stroke="red" stroke-width="0.411792" points="916.343,-20.2985 905.753,-20.6274 914.237,-26.9741 916.343,-20.2985"/>
</g>
<!-- &#45;26&#45;&gt;2 -->
<g id="edge100" class="edge"><title>&#45;26&#45;&gt;2</title>
<path fill="none" stroke="red" stroke-width="0.315631" d="M1196.36,-77.8853C1192.14,-73.7428 1186.56,-68.9003 1180.8,-65.6985 1134.74,-40.1028 1073.97,-26.1333 1040.53,-19.9063"/>
<polygon fill="red" stroke="red" stroke-width="0.315631" points="1040.75,-16.3912 1030.29,-18.0857 1039.53,-23.283 1040.75,-16.3912"/>
</g>
<!-- &#45;26&#45;&gt;3 -->
<g id="edge101" class="edge"><title>&#45;26&#45;&gt;3</title>
<path fill="none" stroke="red" stroke-width="0.523383" d="M1196.49,-77.6402C1192.3,-73.4259 1186.72,-68.593 1180.8,-65.6985 1103.98,-28.1499 1073.23,-55.8132 991.8,-29.6985 989.177,-28.857 986.481,-27.8438 983.834,-26.7528"/>
<polygon fill="red" stroke="red" stroke-width="0.523383" points="985.221,-23.5392 974.666,-22.6288 982.35,-29.9231 985.221,-23.5392"/>
</g>
<!-- &#45;27 -->
<g id="node27" class="node"><title>&#45;27</title>
<polygon fill="lightgray" stroke="black" points="1265.3,-95.9117 1236.3,-95.9117 1236.3,-77.9117 1265.3,-77.9117 1265.3,-95.9117"/>
<text text-anchor="middle" x="1250.8" y="-84.7117" font-family="Times New Roman,serif" font-size="9.00">&#45;27</text>
</g>
<!-- &#45;27&#45;&gt;0 -->
<g id="edge102" class="edge"><title>&#45;27&#45;&gt;0</title>
<path fill="none" stroke="green" stroke-width="0.228963" d="M1243.98,-77.8409C1239.79,-73.4662 1234.04,-68.4129 1227.8,-65.6985 1080.35,-1.55376 1024.06,-67.6438 867.8,-29.6985 863.772,-28.7202 859.591,-27.3764 855.58,-25.9082"/>
<polygon fill="green" stroke="green" stroke-width="0.228963" points="856.73,-22.5986 846.145,-22.1398 854.133,-29.0993 856.73,-22.5986"/>
</g>
<!-- &#45;27&#45;&gt;1 -->
<g id="edge103" class="edge"><title>&#45;27&#45;&gt;1</title>
<path fill="none" stroke="red" stroke-width="1.11927" d="M1243.96,-77.8965C1239.76,-73.5403 1234.01,-68.487 1227.8,-65.6985 1109.33,-12.4724 1064.88,-56.5153 937.8,-29.6985 930.453,-28.1481 922.585,-25.9753 915.47,-23.8096"/>
<polygon fill="red" stroke="red" stroke-width="1.11927" points="916.324,-20.4087 905.734,-20.7151 914.204,-27.0799 916.324,-20.4087"/>
</g>
<!-- &#45;27&#45;&gt;2 -->
<g id="edge104" class="edge"><title>&#45;27&#45;&gt;2</title>
<path fill="none" stroke="red" stroke-width="0.274258" d="M1243.43,-77.7406C1239.24,-73.5556 1233.66,-68.7188 1227.8,-65.6985 1165.31,-33.4838 1081.75,-21.7675 1040.7,-17.7677"/>
<polygon fill="red" stroke="red" stroke-width="0.274258" points="1040.8,-14.263 1030.53,-16.8523 1040.17,-21.2348 1040.8,-14.263"/>
</g>
<!-- &#45;27&#45;&gt;3 -->
<g id="edge105" class="edge"><title>&#45;27&#45;&gt;3</title>
<path fill="none" stroke="green" stroke-width="0.143278" d="M1243.53,-77.5528C1239.36,-73.3128 1233.77,-68.4834 1227.8,-65.6985 1131.63,-20.8718 1093.41,-60.2352 991.8,-29.6985 989.162,-28.9055 986.457,-27.9225 983.804,-26.8488"/>
<polygon fill="green" stroke="green" stroke-width="0.143278" points="985.189,-23.6339 974.632,-22.739 982.326,-30.022 985.189,-23.6339"/>
</g>
<!-- &#45;28 -->
<g id="node28" class="node"><title>&#45;28</title>
<polygon fill="lightgray" stroke="black" points="1312.3,-95.9117 1283.3,-95.9117 1283.3,-77.9117 1312.3,-77.9117 1312.3,-95.9117"/>
<text text-anchor="middle" x="1297.8" y="-84.7117" font-family="Times New Roman,serif" font-size="9.00">&#45;28</text>
</g>
<!-- &#45;28&#45;&gt;0 -->
<g id="edge106" class="edge"><title>&#45;28&#45;&gt;0</title>
<path fill="none" stroke="red" stroke-width="0.352336" d="M1290.99,-77.8141C1286.81,-73.4304 1281.06,-68.3771 1274.8,-65.6985 1107.87,5.78833 1044.51,-71.5409 867.8,-29.6985 863.697,-28.7268 859.438,-27.365 855.363,-25.8715"/>
<polygon fill="red" stroke="red" stroke-width="0.352336" points="856.39,-22.5121 845.806,-22.0348 853.782,-29.0083 856.39,-22.5121"/>
</g>
<!-- &#45;28&#45;&gt;1 -->
<g id="edge107" class="edge"><title>&#45;28&#45;&gt;1</title>
<path fill="none" stroke="red" stroke-width="0.355507" d="M1290.97,-77.8567C1286.78,-73.4872 1281.03,-68.4339 1274.8,-65.6985 1136.88,-5.14393 1085.44,-59.5399 937.8,-29.6985 930.44,-28.2109 922.568,-26.0568 915.454,-23.8888"/>
<polygon fill="red" stroke="red" stroke-width="0.355507" points="916.312,-20.4888 905.721,-20.7788 914.181,-27.1566 916.312,-20.4888"/>
</g>
<!-- &#45;28&#45;&gt;2 -->
<g id="edge108" class="edge"><title>&#45;28&#45;&gt;2</title>
<path fill="none" stroke="red" stroke-width="0.20191" d="M1290.48,-77.6447C1286.3,-73.4317 1280.72,-68.5987 1274.8,-65.6985 1195.45,-26.8217 1088.56,-18.2304 1040.74,-16.3566"/>
<polygon fill="red" stroke="red" stroke-width="0.20191" points="1040.79,-12.8565 1030.68,-16.0299 1040.56,-19.8528 1040.79,-12.8565"/>
</g>
<!-- &#45;28&#45;&gt;3 -->
<g id="edge109" class="edge"><title>&#45;28&#45;&gt;3</title>
<path fill="none" stroke="red" stroke-width="0.682662" d="M1290.95,-77.9035C1286.75,-73.5497 1281,-68.4964 1274.8,-65.6985 1159.22,-13.5627 1113.67,-64.6784 991.8,-29.6985 989.152,-28.9383 986.441,-27.9759 983.785,-26.9138"/>
<polygon fill="red" stroke="red" stroke-width="0.682662" points="985.167,-23.6981 974.61,-22.8137 982.312,-30.089 985.167,-23.6981"/>
</g>
<!-- &#45;29 -->
<g id="node29" class="node"><title>&#45;29</title>
<polygon fill="lightgray" stroke="black" points="1359.3,-95.9117 1330.3,-95.9117 1330.3,-77.9117 1359.3,-77.9117 1359.3,-95.9117"/>
<text text-anchor="middle" x="1344.8" y="-84.7117" font-family="Times New Roman,serif" font-size="9.00">&#45;29</text>
</g>
<!-- &#45;29&#45;&gt;0 -->
<g id="edge110" class="edge"><title>&#45;29&#45;&gt;0</title>
<path fill="none" stroke="red" stroke-width="0.109244" d="M1338,-77.7927C1333.82,-73.4019 1328.07,-68.3486 1321.8,-65.6985 1135.37,13.136 1064.98,-75.4413 867.8,-29.6985 863.693,-28.7455 859.432,-27.3929 855.356,-25.9028"/>
<polygon fill="red" stroke="red" stroke-width="0.109244" points="856.383,-22.5435 845.799,-22.0645 853.774,-29.0392 856.383,-22.5435"/>
</g>
<!-- &#45;29&#45;&gt;1 -->
<g id="edge111" class="edge"><title>&#45;29&#45;&gt;1</title>
<path fill="none" stroke="green" stroke-width="0.435149" d="M1337.99,-77.8264C1333.8,-73.4468 1328.05,-68.3935 1321.8,-65.6985 1164.4,2.19457 1106.03,-62.5695 937.8,-29.6985 930.431,-28.2586 922.556,-26.1186 915.442,-23.9489"/>
<polygon fill="green" stroke="green" stroke-width="0.435149" points="916.302,-20.5495 905.711,-20.8272 914.164,-27.2148 916.302,-20.5495"/>
</g>
<!-- &#45;29&#45;&gt;2 -->
<g id="edge112" class="edge"><title>&#45;29&#45;&gt;2</title>
<path fill="none" stroke="red" stroke-width="0.209967" d="M1337.52,-77.5768C1333.34,-73.344 1327.76,-68.5136 1321.8,-65.6985 1225.27,-20.1074 1094.64,-15.2383 1040.69,-15.358"/>
<polygon fill="red" stroke="red" stroke-width="0.209967" points="1040.64,-11.8582 1030.67,-15.442 1040.7,-18.8579 1040.64,-11.8582"/>
</g>
<!-- &#45;29&#45;&gt;3 -->
<g id="edge113" class="edge"><title>&#45;29&#45;&gt;3</title>
<path fill="none" stroke="red" stroke-width="0.522145" d="M1337.97,-77.8619C1333.78,-73.4942 1328.03,-68.4409 1321.8,-65.6985 1186.78,-6.23614 1133.97,-69.1332 991.8,-29.6985 989.145,-28.962 986.43,-28.0144 983.772,-26.9608"/>
<polygon fill="red" stroke="red" stroke-width="0.522145" points="985.153,-23.7445 974.594,-22.8675 982.302,-30.1374 985.153,-23.7445"/>
</g>
<!-- &#45;30 -->
<g id="node30" class="node"><title>&#45;30</title>
<polygon fill="lightgray" stroke="black" points="1406.3,-95.9117 1377.3,-95.9117 1377.3,-77.9117 1406.3,-77.9117 1406.3,-95.9117"/>
<text text-anchor="middle" x="1391.8" y="-84.7117" font-family="Times New Roman,serif" font-size="9.00">&#45;30</text>
</g>
<!-- &#45;30&#45;&gt;0 -->
<g id="edge114" class="edge"><title>&#45;30&#45;&gt;0</title>
<path fill="none" stroke="red" stroke-width="0.104044" d="M1385.01,-77.7753C1380.83,-73.3787 1375.08,-68.3254 1368.8,-65.6985 1265.83,-22.6054 976.626,-54.5212 867.8,-29.6985 863.689,-28.7607 859.426,-27.4157 855.35,-25.9283"/>
<polygon fill="red" stroke="red" stroke-width="0.104044" points="856.377,-22.5691 845.793,-22.0888 853.767,-29.0645 856.377,-22.5691"/>
</g>
<!-- &#45;30&#45;&gt;1 -->
<g id="edge115" class="edge"><title>&#45;30&#45;&gt;1</title>
<path fill="none" stroke="red" stroke-width="0.198227" d="M1385,-77.8026C1380.81,-73.4151 1375.06,-68.3618 1368.8,-65.6985 1191.91,9.53976 1126.64,-65.6023 937.8,-29.6985 930.424,-28.296 922.546,-26.167 915.433,-23.9961"/>
<polygon fill="red" stroke="red" stroke-width="0.198227" points="916.295,-20.597 905.704,-20.8651 914.151,-27.2605 916.295,-20.597"/>
</g>
<!-- &#45;30&#45;&gt;2 -->
<g id="edge116" class="edge"><title>&#45;30&#45;&gt;2</title>
<path fill="none" stroke="green" stroke-width="0.103858" d="M1384.54,-77.5263C1380.37,-73.2787 1374.79,-68.4503 1368.8,-65.6985 1309.94,-38.6592 1111.36,-22.5122 1040.88,-17.521"/>
<polygon fill="green" stroke="green" stroke-width="0.103858" points="1040.92,-14.0159 1030.71,-16.8158 1040.44,-20.9992 1040.92,-14.0159"/>
</g>
<!-- &#45;30&#45;&gt;3 -->
<g id="edge117" class="edge"><title>&#45;30&#45;&gt;3</title>
<path fill="none" stroke="green" stroke-width="0.10991" d="M1384.98,-77.8304C1380.8,-73.4522 1375.05,-68.3989 1368.8,-65.6985 1214.31,1.10111 1154.29,-73.5952 991.8,-29.6985 989.14,-28.9799 986.423,-28.0434 983.762,-26.9962"/>
<polygon fill="green" stroke="green" stroke-width="0.10991" points="985.142,-23.7795 974.583,-22.9082 982.294,-30.1739 985.142,-23.7795"/>
</g>
<!-- &#45;31 -->
<g id="node31" class="node"><title>&#45;31</title>
<polygon fill="lightgray" stroke="black" points="1453.3,-95.9117 1424.3,-95.9117 1424.3,-77.9117 1453.3,-77.9117 1453.3,-95.9117"/>
<text text-anchor="middle" x="1438.8" y="-84.7117" font-family="Times New Roman,serif" font-size="9.00">&#45;31</text>
</g>
<!-- &#45;31&#45;&gt;0 -->
<g id="edge118" class="edge"><title>&#45;31&#45;&gt;0</title>
<path fill="none" stroke="red" stroke-width="0.351764" d="M1432.01,-77.7609C1427.84,-73.3595 1422.09,-68.3062 1415.8,-65.6985 1303.08,-18.9281 986.867,-56.4734 867.8,-29.6985 863.686,-28.7733 859.422,-27.4345 855.345,-25.9495"/>
<polygon fill="red" stroke="red" stroke-width="0.351764" points="856.372,-22.5903 845.789,-22.1089 853.762,-29.0854 856.372,-22.5903"/>
</g>
<!-- &#45;31&#45;&gt;1 -->
<g id="edge119" class="edge"><title>&#45;31&#45;&gt;1</title>
<path fill="none" stroke="green" stroke-width="0.273203" d="M1432,-77.7834C1427.82,-73.3895 1422.07,-68.3362 1415.8,-65.6985 1317.61,-24.4044 1042.53,-49.1679 937.8,-29.6985 930.418,-28.3261 922.539,-26.2061 915.425,-24.0341"/>
<polygon fill="green" stroke="green" stroke-width="0.273203" points="916.29,-20.6354 905.698,-20.8956 914.14,-27.2972 916.29,-20.6354"/>
</g>
<!-- &#45;31&#45;&gt;2 -->
<g id="edge120" class="edge"><title>&#45;31&#45;&gt;2</title>
<path fill="none" stroke="red" stroke-width="0.293597" d="M1431.95,-77.8976C1427.76,-73.5418 1422.01,-68.4885 1415.8,-65.6985 1348.12,-35.2719 1118.07,-21.0472 1041.12,-17.0613"/>
<polygon fill="red" stroke="red" stroke-width="0.293597" points="1041.07,-13.5548 1030.91,-16.5467 1040.72,-20.5459 1041.07,-13.5548"/>
</g>
<!-- &#45;31&#45;&gt;3 -->
<g id="edge121" class="edge"><title>&#45;31&#45;&gt;3</title>
<path fill="none" stroke="green" stroke-width="0.322316" d="M1432,-77.8058C1427.81,-73.4194 1422.06,-68.3661 1415.8,-65.6985 1241.82,8.44546 1174.63,-78.0618 991.8,-29.6985 989.137,-28.9939 986.416,-28.0662 983.755,-27.0238"/>
<polygon fill="green" stroke="green" stroke-width="0.322316" points="985.134,-23.8068 974.575,-22.9399 982.289,-30.2025 985.134,-23.8068"/>
</g>
<!-- &#45;32 -->
<g id="node32" class="node"><title>&#45;32</title>
<polygon fill="lightgray" stroke="black" points="1500.3,-95.9117 1471.3,-95.9117 1471.3,-77.9117 1500.3,-77.9117 1500.3,-95.9117"/>
<text text-anchor="middle" x="1485.8" y="-84.7117" font-family="Times New Roman,serif" font-size="9.00">&#45;32</text>
</g>
<!-- &#45;32&#45;&gt;0 -->
<g id="edge122" class="edge"><title>&#45;32&#45;&gt;0</title>
<path fill="none" stroke="green" stroke-width="0.299526" d="M1479.02,-77.7487C1474.84,-73.3432 1469.09,-68.2899 1462.8,-65.6985 1340.32,-15.2497 997.112,-58.4262 867.8,-29.6985 863.684,-28.7839 859.419,-27.4505 855.341,-25.9674"/>
<polygon fill="green" stroke="green" stroke-width="0.299526" points="856.369,-22.6082 845.785,-22.1258 853.758,-29.1031 856.369,-22.6082"/>
</g>
<!-- &#45;32&#45;&gt;1 -->
<g id="edge123" class="edge"><title>&#45;32&#45;&gt;1</title>
<path fill="none" stroke="green" stroke-width="0.154872" d="M1479.01,-77.7676C1474.83,-73.3685 1469.08,-68.3152 1462.8,-65.6985 1354.85,-20.7278 1052.84,-50.6863 937.8,-29.6985 930.414,-28.3509 922.533,-26.2382 915.42,-24.0653"/>
<polygon fill="green" stroke="green" stroke-width="0.154872" points="916.285,-20.6669 905.694,-20.9207 914.132,-27.3274 916.285,-20.6669"/>
</g>
<!-- &#45;32&#45;&gt;2 -->
<g id="edge124" class="edge"><title>&#45;32&#45;&gt;2</title>
<path fill="none" stroke="red" stroke-width="0.224134" d="M1478.97,-77.8675C1474.77,-73.5017 1469.02,-68.4484 1462.8,-65.6985 1386.15,-31.8327 1123.82,-19.7131 1041.04,-16.6806"/>
<polygon fill="red" stroke="red" stroke-width="0.224134" points="1040.91,-13.1741 1030.8,-16.3188 1040.67,-20.1698 1040.91,-13.1741"/>
</g>
<!-- &#45;32&#45;&gt;3 -->
<g id="edge125" class="edge"><title>&#45;32&#45;&gt;3</title>
<path fill="none" stroke="red" stroke-width="0.16063" d="M1479,-77.786C1474.82,-73.393 1469.07,-68.3397 1462.8,-65.6985 1269.32,15.7947 1194.99,-82.5317 991.8,-29.6985 989.134,-29.0051 986.412,-28.0844 983.749,-27.046"/>
<polygon fill="red" stroke="red" stroke-width="0.16063" points="985.128,-23.8288 974.568,-22.9654 982.285,-30.2254 985.128,-23.8288"/>
</g>
<!-- &#45;33 -->
<g id="node33" class="node"><title>&#45;33</title>
<polygon fill="lightgray" stroke="black" points="1547.3,-95.9117 1518.3,-95.9117 1518.3,-77.9117 1547.3,-77.9117 1547.3,-95.9117"/>
<text text-anchor="middle" x="1532.8" y="-84.7117" font-family="Times New Roman,serif" font-size="9.00">&#45;33</text>
</g>
<!-- &#45;33&#45;&gt;0 -->
<g id="edge126" class="edge"><title>&#45;33&#45;&gt;0</title>
<path fill="none" stroke="green" stroke-width="0.123784" d="M1526.02,-77.7383C1521.85,-73.3293 1516.1,-68.276 1509.8,-65.6985 1377.56,-11.5704 1007.36,-60.3795 867.8,-29.6985 863.682,-28.793 859.416,-27.464 855.338,-25.9826"/>
<polygon fill="green" stroke="green" stroke-width="0.123784" points="856.365,-22.6234 845.782,-22.1403 853.754,-29.1182 856.365,-22.6234"/>
</g>
<!-- &#45;33&#45;&gt;1 -->
<g id="edge127" class="edge"><title>&#45;33&#45;&gt;1</title>
<path fill="none" stroke="red" stroke-width="0.485941" d="M1526.02,-77.7544C1521.84,-73.3509 1516.09,-68.2976 1509.8,-65.6985 1392.1,-17.0499 1063.16,-52.2052 937.8,-29.6985 930.41,-28.3716 922.528,-26.2651 915.415,-24.0914"/>
<polygon fill="red" stroke="red" stroke-width="0.485941" points="916.282,-20.6932 905.69,-20.9417 914.125,-27.3527 916.282,-20.6932"/>
</g>
<!-- &#45;33&#45;&gt;2 -->
<g id="edge128" class="edge"><title>&#45;33&#45;&gt;2</title>
<path fill="none" stroke="red" stroke-width="0.369882" d="M1525.98,-77.843C1521.79,-73.469 1516.04,-68.4157 1509.8,-65.6985 1424.16,-28.3972 1129.46,-18.5259 1041.06,-16.3752"/>
<polygon fill="red" stroke="red" stroke-width="0.369882" points="1040.96,-12.872 1030.88,-16.14 1040.8,-19.8702 1040.96,-12.872"/>
</g>
<!-- &#45;33&#45;&gt;3 -->
<g id="edge129" class="edge"><title>&#45;33&#45;&gt;3</title>
<path fill="none" stroke="red" stroke-width="0.158192" d="M1526.01,-77.7698C1521.83,-73.3714 1516.08,-68.3181 1509.8,-65.6985 1403.31,-21.2755 1103.58,-58.3512 991.8,-29.6985 989.131,-29.0143 986.408,-28.0993 983.744,-27.0643"/>
<polygon fill="red" stroke="red" stroke-width="0.158192" points="985.123,-23.8468 974.563,-22.9864 982.281,-30.2442 985.123,-23.8468"/>
</g>
<!-- &#45;34 -->
<g id="node34" class="node"><title>&#45;34</title>
<polygon fill="lightgray" stroke="black" points="1594.3,-95.9117 1565.3,-95.9117 1565.3,-77.9117 1594.3,-77.9117 1594.3,-95.9117"/>
<text text-anchor="middle" x="1579.8" y="-84.7117" font-family="Times New Roman,serif" font-size="9.00">&#45;34</text>
</g>
<!-- &#45;34&#45;&gt;0 -->
<g id="edge130" class="edge"><title>&#45;34&#45;&gt;0</title>
<path fill="none" stroke="green" stroke-width="0.300238" d="M1573.03,-77.7292C1568.85,-73.3173 1563.1,-68.264 1556.8,-65.6985 1414.8,-7.89049 1017.61,-62.3332 867.8,-29.6985 863.68,-28.8009 859.413,-27.4758 855.335,-25.9958"/>
<polygon fill="green" stroke="green" stroke-width="0.300238" points="856.363,-22.6367 845.779,-22.1528 853.751,-29.1312 856.363,-22.6367"/>
</g>
<!-- &#45;34&#45;&gt;1 -->
<g id="edge131" class="edge"><title>&#45;34&#45;&gt;1</title>
<path fill="none" stroke="green" stroke-width="0.283244" stroke-dasharray="1,5" d="M1573.02,-77.7432C1568.85,-73.3359 1563.1,-68.2826 1556.8,-65.6985 1429.34,-13.371 1073.48,-53.7246 937.8,-29.6985 930.407,-28.3892 922.524,-26.2879 915.411,-24.1136"/>
<polygon fill="green" stroke="green" stroke-width="0.283244" points="916.279,-20.7156 905.687,-20.9596 914.119,-27.3741 916.279,-20.7156"/>
</g>
<!-- &#45;34&#45;&gt;2 -->
<g id="edge132" class="edge"><title>&#45;34&#45;&gt;2</title>
<path fill="none" stroke="red" stroke-width="0.134612" d="M1572.99,-77.8226C1568.8,-73.4419 1563.05,-68.3886 1556.8,-65.6985 1462.1,-24.9388 1134.62,-17.441 1040.99,-16.1203"/>
<polygon fill="red" stroke="red" stroke-width="0.134612" points="1040.8,-12.6177 1030.76,-15.988 1040.71,-19.6171 1040.8,-12.6177"/>
</g>
<!-- &#45;34&#45;&gt;3 -->
<g id="edge133" class="edge"><title>&#45;34&#45;&gt;3</title>
<path fill="none" stroke="red" stroke-width="0.248282" d="M1573.02,-77.7562C1568.84,-73.3533 1563.09,-68.3 1556.8,-65.6985 1440.55,-17.5977 1113.76,-60.5881 991.8,-29.6985 989.129,-29.022 986.405,-28.1118 983.74,-27.0795"/>
<polygon fill="red" stroke="red" stroke-width="0.248282" points="985.118,-23.8619 974.558,-23.0038 982.278,-30.2599 985.118,-23.8619"/>
</g>
<!-- &#45;35 -->
<g id="node35" class="node"><title>&#45;35</title>
<polygon fill="lightgray" stroke="black" points="1641.3,-95.9117 1612.3,-95.9117 1612.3,-77.9117 1641.3,-77.9117 1641.3,-95.9117"/>
<text text-anchor="middle" x="1626.8" y="-84.7117" font-family="Times New Roman,serif" font-size="9.00">&#45;35</text>
</g>
<!-- &#45;35&#45;&gt;0 -->
<g id="edge134" class="edge"><title>&#45;35&#45;&gt;0</title>
<path fill="none" stroke="red" stroke-width="0.207388" d="M1620.03,-77.7214C1615.86,-73.3068 1610.11,-68.2535 1603.8,-65.6985 1452.03,-4.20998 1027.86,-64.2873 867.8,-29.6985 863.679,-28.8077 859.411,-27.4861 855.333,-26.0073"/>
<polygon fill="red" stroke="red" stroke-width="0.207388" points="856.36,-22.6482 845.776,-22.1638 853.748,-29.1426 856.36,-22.6482"/>
</g>
<!-- &#45;35&#45;&gt;1 -->
<g id="edge135" class="edge"><title>&#45;35&#45;&gt;1</title>
<path fill="none" stroke="green" stroke-width="0.188001" d="M1620.03,-77.7335C1615.85,-73.323 1610.1,-68.2697 1603.8,-65.6985 1466.57,-9.69139 1083.8,-55.2443 937.8,-29.6985 930.404,-28.4043 922.521,-26.3075 915.408,-24.1327"/>
<polygon fill="green" stroke="green" stroke-width="0.188001" points="916.276,-20.7348 905.684,-20.9749 914.114,-27.3926 916.276,-20.7348"/>
</g>
<!-- &#45;35&#45;&gt;2 -->
<g id="edge136" class="edge"><title>&#45;35&#45;&gt;2</title>
<path fill="none" stroke="green" stroke-width="0.343216" stroke-dasharray="1,5" d="M1620,-77.8055C1615.81,-73.419 1610.06,-68.3657 1603.8,-65.6985 1500,-21.4717 1139.53,-16.4475 1040.91,-15.9067"/>
<polygon fill="green" stroke="green" stroke-width="0.343216" points="1040.72,-12.4059 1030.7,-15.8622 1040.69,-19.4059 1040.72,-12.4059"/>
</g>
<!-- &#45;35&#45;&gt;3 -->
<g id="edge137" class="edge"><title>&#45;35&#45;&gt;3</title>
<path fill="none" stroke="red" stroke-width="0.156314" d="M1620.02,-77.7447C1615.84,-73.338 1610.09,-68.2847 1603.8,-65.6985 1477.79,-13.919 1123.95,-62.8257 991.8,-29.6985 989.128,-29.0285 986.402,-28.1224 983.737,-27.0924"/>
<polygon fill="red" stroke="red" stroke-width="0.156314" points="985.115,-23.8746 974.555,-23.0186 982.276,-30.2732 985.115,-23.8746"/>
</g>
<!-- &#45;36 -->
<g id="node36" class="node"><title>&#45;36</title>
<polygon fill="lightgray" stroke="black" points="1688.3,-95.9117 1659.3,-95.9117 1659.3,-77.9117 1688.3,-77.9117 1688.3,-95.9117"/>
<text text-anchor="middle" x="1673.8" y="-84.7117" font-family="Times New Roman,serif" font-size="9.00">&#45;36</text>
</g>
<!-- &#45;36&#45;&gt;0 -->
<g id="edge138" class="edge"><title>&#45;36&#45;&gt;0</title>
<path fill="none" stroke="red" stroke-width="0.148455" d="M1667.03,-77.7144C1662.86,-73.2976 1657.11,-68.2443 1650.8,-65.6985 1489.27,-0.529028 1038.11,-66.2415 867.8,-29.6985 863.677,-28.8138 859.409,-27.4951 855.33,-26.0174"/>
<polygon fill="red" stroke="red" stroke-width="0.148455" points="856.358,-22.6583 845.774,-22.1734 853.746,-29.1526 856.358,-22.6583"/>
</g>
<!-- &#45;36&#45;&gt;1 -->
<g id="edge139" class="edge"><title>&#45;36&#45;&gt;1</title>
<path fill="none" stroke="green" stroke-width="0.121911" stroke-dasharray="1,5" d="M1667.03,-77.7251C1662.85,-73.3118 1657.1,-68.2585 1650.8,-65.6985 1503.81,-6.01114 1094.12,-56.7643 937.8,-29.6985 930.402,-28.4174 922.518,-26.3246 915.405,-24.1493"/>
<polygon fill="green" stroke="green" stroke-width="0.121911" points="916.274,-20.7515 905.682,-20.9883 914.109,-27.4086 916.274,-20.7515"/>
</g>
<!-- &#45;36&#45;&gt;2 -->
<g id="edge140" class="edge"><title>&#45;36&#45;&gt;2</title>
<path fill="none" stroke="green" stroke-width="0.597061" d="M1667,-77.7909C1662.82,-73.3995 1657.07,-68.3462 1650.8,-65.6985 1537.89,-18.0065 1144.4,-15.5315 1040.9,-15.7252"/>
<polygon fill="green" stroke="green" stroke-width="0.597061" points="1040.76,-12.2255 1030.77,-15.755 1040.78,-19.2255 1040.76,-12.2255"/>
</g>
<!-- &#45;36&#45;&gt;3 -->
<g id="edge141" class="edge"><title>&#45;36&#45;&gt;3</title>
<path fill="none" stroke="red" stroke-width="0.218214" d="M1667.02,-77.7348C1662.85,-73.3248 1657.1,-68.2715 1650.8,-65.6985 1515.03,-10.2395 1134.14,-65.0638 991.8,-29.6985 989.126,-29.0341 986.4,-28.1315 983.734,-27.1034"/>
<polygon fill="red" stroke="red" stroke-width="0.218214" points="985.112,-23.8856 974.551,-23.0313 982.274,-30.2847 985.112,-23.8856"/>
</g>
<!-- &#45;37 -->
<g id="node37" class="node"><title>&#45;37</title>
<polygon fill="lightgray" stroke="black" points="1735.3,-95.9117 1706.3,-95.9117 1706.3,-77.9117 1735.3,-77.9117 1735.3,-95.9117"/>
<text text-anchor="middle" x="1720.8" y="-84.7117" font-family="Times New Roman,serif" font-size="9.00">&#45;37</text>
</g>
<!-- &#45;37&#45;&gt;0 -->
<g id="edge142" class="edge"><title>&#45;37&#45;&gt;0</title>
<path fill="none" stroke="red" stroke-width="0.679823" d="M1714.04,-77.7083C1709.86,-73.2894 1704.11,-68.2361 1697.8,-65.6985 1526.5,3.1523 1048.36,-68.196 867.8,-29.6985 863.676,-28.8191 859.407,-27.5031 855.328,-26.0264"/>
<polygon fill="red" stroke="red" stroke-width="0.679823" points="856.356,-22.6673 845.773,-22.1819 853.744,-29.1615 856.356,-22.6673"/>
</g>
<!-- &#45;37&#45;&gt;1 -->
<g id="edge143" class="edge"><title>&#45;37&#45;&gt;1</title>
<path fill="none" stroke="green" stroke-width="0.213624" d="M1714.03,-77.7177C1709.86,-73.302 1704.11,-68.2487 1697.8,-65.6985 1541.05,-2.3304 1104.44,-58.2845 937.8,-29.6985 930.4,-28.429 922.515,-26.3395 915.402,-24.1638"/>
<polygon fill="green" stroke="green" stroke-width="0.213624" points="916.272,-20.7662 905.679,-20.9999 914.106,-27.4226 916.272,-20.7662"/>
</g>
<!-- &#45;37&#45;&gt;2 -->
<g id="edge144" class="edge"><title>&#45;37&#45;&gt;2</title>
<path fill="none" stroke="green" stroke-width="0.536972" d="M1714.01,-77.7782C1709.83,-73.3826 1704.08,-68.3293 1697.8,-65.6985 1575.8,-14.5505 1149.35,-14.6778 1040.99,-15.5677"/>
<polygon fill="green" stroke="green" stroke-width="0.536972" points="1040.68,-12.0704 1030.71,-15.6628 1040.74,-19.0701 1040.68,-12.0704"/>
</g>
<!-- &#45;37&#45;&gt;3 -->
<g id="edge145" class="edge"><title>&#45;37&#45;&gt;3</title>
<path fill="none" stroke="green" stroke-width="0.165411" d="M1714.03,-77.7263C1709.85,-73.3134 1704.1,-68.2601 1697.8,-65.6985 1552.26,-6.5593 1144.33,-67.3022 991.8,-29.6985 989.125,-29.0389 986.398,-28.1394 983.732,-27.113"/>
<polygon fill="green" stroke="green" stroke-width="0.165411" points="985.109,-23.8951 974.549,-23.0424 982.272,-30.2946 985.109,-23.8951"/>
</g>
<!-- &#45;38 -->
<g id="node38" class="node"><title>&#45;38</title>
<polygon fill="lightgray" stroke="black" points="181.3,-95.9117 152.3,-95.9117 152.3,-77.9117 181.3,-77.9117 181.3,-95.9117"/>
<text text-anchor="middle" x="166.8" y="-84.7117" font-family="Times New Roman,serif" font-size="9.00">&#45;38</text>
</g>
<!-- &#45;38&#45;&gt;0 -->
<g id="edge146" class="edge"><title>&#45;38&#45;&gt;0</title>
<path fill="none" stroke="green" stroke-width="0.43495" d="M173.598,-77.7886C177.781,-73.3964 183.531,-68.3431 189.8,-65.6985 304.268,-17.4124 703.454,-15.3817 807.726,-15.697"/>
<polygon fill="green" stroke="green" stroke-width="0.43495" points="807.907,-19.1977 817.921,-15.7387 807.936,-12.1978 807.907,-19.1977"/>
</g>
<!-- &#45;38&#45;&gt;1 -->
<g id="edge147" class="edge"><title>&#45;38&#45;&gt;1</title>
<path fill="none" stroke="green" stroke-width="0.202178" d="M173.575,-77.7333C177.75,-73.3227 183.5,-68.2694 189.8,-65.6985 327.235,-9.61309 711.791,-61.4187 856.8,-29.6985 860.92,-28.7973 865.187,-27.4705 869.264,-25.9898"/>
<polygon fill="green" stroke="green" stroke-width="0.202178" points="870.849,-29.1253 878.821,-22.1472 868.237,-22.6307 870.849,-29.1253"/>
</g>
<!-- &#45;38&#45;&gt;2 -->
<g id="edge148" class="edge"><title>&#45;38&#45;&gt;2</title>
<path fill="none" stroke="red" stroke-width="0.172185" d="M173.567,-77.7127C177.739,-73.2952 183.489,-68.2419 189.8,-65.6985 354.035,0.489176 813.757,-71.5896 985.8,-29.6985 988.478,-29.0466 991.206,-28.1519 993.873,-27.1283"/>
<polygon fill="red" stroke="red" stroke-width="0.172185" points="995.331,-30.3103 1003.06,-23.0599 992.496,-23.9102 995.331,-30.3103"/>
</g>
<!-- &#45;38&#45;&gt;3 -->
<g id="edge149" class="edge"><title>&#45;38&#45;&gt;3</title>
<path fill="none" stroke="red" stroke-width="0.171994" d="M173.571,-77.723C177.745,-73.309 183.495,-68.2557 189.8,-65.6985 339.491,-4.99311 756.625,-57.1848 915.8,-29.6985 923.2,-28.4208 931.084,-26.3289 938.197,-24.1535"/>
<polygon fill="red" stroke="red" stroke-width="0.171994" points="939.492,-27.4126 947.92,-20.9916 937.328,-20.7558 939.492,-27.4126"/>
</g>
<!-- &#45;39 -->
<g id="node39" class="node"><title>&#45;39</title>
<polygon fill="lightgray" stroke="black" points="1782.3,-95.9117 1753.3,-95.9117 1753.3,-77.9117 1782.3,-77.9117 1782.3,-95.9117"/>
<text text-anchor="middle" x="1767.8" y="-84.7117" font-family="Times New Roman,serif" font-size="9.00">&#45;39</text>
</g>
<!-- &#45;39&#45;&gt;1 -->
<g id="edge150" class="edge"><title>&#45;39&#45;&gt;1</title>
<path fill="none" stroke="green" stroke-width="0.318253" stroke-dasharray="1,5" d="M1761.03,-77.7112C1756.86,-73.2933 1751.11,-68.24 1744.8,-65.6985 1578.28,1.35076 1114.77,-59.8049 937.8,-29.6985 930.398,-28.4392 922.513,-26.3527 915.4,-24.1767"/>
<polygon fill="green" stroke="green" stroke-width="0.318253" points="916.27,-20.7791 905.678,-21.0103 914.102,-27.435 916.27,-20.7791"/>
</g>
<!-- &#45;39&#45;&gt;2 -->
<g id="edge151" class="edge"><title>&#45;39&#45;&gt;2</title>
<path fill="none" stroke="green" stroke-width="0.385903" d="M1761.01,-77.7672C1756.83,-73.3679 1751.08,-68.3146 1744.8,-65.6985 1678.65,-38.1481 1161.39,-20.3979 1040.85,-16.6099"/>
<polygon fill="green" stroke="green" stroke-width="0.385903" points="1040.85,-13.1083 1030.74,-16.2961 1040.63,-20.105 1040.85,-13.1083"/>
</g>
<!-- &#45;39&#45;&gt;3 -->
<g id="edge152" class="edge"><title>&#45;39&#45;&gt;3</title>
<path fill="none" stroke="red" stroke-width="0.392165" d="M1761.03,-77.7188C1756.86,-73.3034 1751.11,-68.2501 1744.8,-65.6985 1589.5,-2.87862 1154.52,-69.5411 991.8,-29.6985 989.124,-29.0432 986.396,-28.1463 983.73,-27.1214"/>
<polygon fill="red" stroke="red" stroke-width="0.392165" points="985.107,-23.9034 974.546,-23.052 982.271,-30.3033 985.107,-23.9034"/>
</g>
<!-- &#45;40 -->
<g id="node40" class="node"><title>&#45;40</title>
<polygon fill="lightgray" stroke="black" points="228.3,-95.9117 199.3,-95.9117 199.3,-77.9117 228.3,-77.9117 228.3,-95.9117"/>
<text text-anchor="middle" x="213.8" y="-84.7117" font-family="Times New Roman,serif" font-size="9.00">&#45;40</text>
</g>
<!-- &#45;40&#45;&gt;0 -->
<g id="edge153" class="edge"><title>&#45;40&#45;&gt;0</title>
<path fill="none" stroke="green" stroke-width="0.10469" d="M220.967,-77.8019C225.356,-73.4142 231.356,-68.3609 237.8,-65.6985 343.42,-22.0642 708.467,-16.6143 807.721,-15.9419"/>
<polygon fill="green" stroke="green" stroke-width="0.10469" points="807.756,-19.4418 817.735,-15.8847 807.715,-12.442 807.756,-19.4418"/>
</g>
<!-- &#45;40&#45;&gt;1 -->
<g id="edge154" class="edge"><title>&#45;40&#45;&gt;1</title>
<path fill="none" stroke="red" stroke-width="0.219258" d="M220.942,-77.7401C225.322,-73.3319 231.322,-68.2786 237.8,-65.6985 365.809,-14.7148 722.257,-59.4236 856.8,-29.6985 860.918,-28.7888 865.184,-27.4577 869.261,-25.9754"/>
<polygon fill="red" stroke="red" stroke-width="0.219258" points="870.845,-29.1111 878.818,-22.1335 868.234,-22.6163 870.845,-29.1111"/>
</g>
<!-- &#45;40&#45;&gt;2 -->
<g id="edge155" class="edge"><title>&#45;40&#45;&gt;2</title>
<path fill="none" stroke="green" stroke-width="0.217827" d="M220.932,-77.7158C225.31,-73.2994 231.31,-68.2461 237.8,-65.6985 392.71,-4.89644 824.167,-69.3029 985.8,-29.6985 988.477,-29.0428 991.205,-28.1456 993.871,-27.1206"/>
<polygon fill="green" stroke="green" stroke-width="0.217827" points="995.33,-30.3024 1003.05,-23.051 992.494,-23.9026 995.33,-30.3024"/>
</g>
<!-- &#45;40&#45;&gt;3 -->
<g id="edge156" class="edge"><title>&#45;40&#45;&gt;3</title>
<path fill="none" stroke="red" stroke-width="0.341991" d="M220.937,-77.7279C225.316,-73.3155 231.316,-68.2622 237.8,-65.6985 378.111,-10.2248 767.167,-55.6323 915.8,-29.6985 923.197,-28.4078 931.081,-26.3121 938.194,-24.1371"/>
<polygon fill="red" stroke="red" stroke-width="0.341991" points="939.488,-27.3969 947.918,-20.9785 937.325,-20.7393 939.488,-27.3969"/>
</g>
<!-- 181&#45;&gt;2 -->
<g id="edge158" class="edge"><title>181&#45;&gt;2</title>
<path fill="none" stroke="red" stroke-width="0.47282" stroke-dasharray="1,5" d="M1891.83,-72.8728C1887.51,-70.0099 1882.68,-67.3445 1877.8,-65.6985 1716.83,-11.3989 1165.17,-14.1743 1040.83,-15.5238"/>
<polygon fill="red" stroke="red" stroke-width="0.47282" points="1040.72,-12.0247 1030.76,-15.6404 1040.8,-19.0242 1040.72,-12.0247"/>
</g>
</g>
</svg>
