<?xml version="1.0" encoding="UTF-8" standalone="no"?>
<!DOCTYPE svg PUBLIC "-//W3C//DTD SVG 1.1//EN"
 "http://www.w3.org/Graphics/SVG/1.1/DTD/svg11.dtd">
<!-- Generated by graphviz version 2.38.0 (20140413.2041)
 -->
<!-- Title: %3 Pages: 1 -->
<svg width="1911pt" height="164pt"
 viewBox="0.00 0.00 1910.52 164.47" xmlns="http://www.w3.org/2000/svg" xmlns:xlink="http://www.w3.org/1999/xlink">
<g id="graph0" class="graph" transform="scale(1 1) rotate(0) translate(4 160.468)">
<title>%3</title>
<polygon fill="white" stroke="none" points="-4,4 -4,-160.468 1906.52,-160.468 1906.52,4 -4,4"/>
<!-- &#45;1 -->
<g id="node1" class="node"><title>&#45;1</title>
<polygon fill="lightgray" stroke="black" points="1073.02,-93.0833 1049.02,-93.0833 1049.02,-75.0833 1073.02,-75.0833 1073.02,-93.0833"/>
<text text-anchor="middle" x="1061.02" y="-81.8833" font-family="Times New Roman,serif" font-size="9.00">&#45;1</text>
</g>
<!-- 0 -->
<g id="node41" class="node"><title>0</title>
<ellipse fill="lightblue" stroke="black" cx="969.02" cy="-14.8492" rx="14.7" ry="14.7"/>
<text text-anchor="middle" x="969.02" y="-12.6492" font-family="Times New Roman,serif" font-size="9.00">0</text>
</g>
<!-- &#45;1&#45;&gt;0 -->
<g id="edge1" class="edge"><title>&#45;1&#45;&gt;0</title>
<path fill="none" stroke="red" stroke-width="0.23325" d="M1051.32,-74.7827C1047.81,-71.8505 1043.78,-68.5697 1040.02,-65.6985 1023.52,-53.1072 1004.21,-39.6262 989.895,-29.8623"/>
<polygon fill="red" stroke="red" stroke-width="0.23325" points="991.531,-26.7435 981.29,-24.0295 987.604,-32.5377 991.531,-26.7435"/>
</g>
<!-- 1 -->
<g id="node42" class="node"><title>1</title>
<ellipse fill="lightblue" stroke="black" cx="1065.02" cy="-14.8492" rx="14.7" ry="14.7"/>
<text text-anchor="middle" x="1065.02" y="-12.6492" font-family="Times New Roman,serif" font-size="9.00">1</text>
</g>
<!-- &#45;1&#45;&gt;1 -->
<g id="edge2" class="edge"><title>&#45;1&#45;&gt;1</title>
<path fill="none" stroke="green" stroke-width="0.280374" d="M1061.51,-74.8391C1062.03,-66.1604 1062.86,-52.0878 1063.59,-39.8642"/>
<polygon fill="green" stroke="green" stroke-width="0.280374" points="1067.09,-39.9704 1064.19,-29.7802 1060.1,-39.5546 1067.09,-39.9704"/>
</g>
<!-- 2 -->
<g id="node43" class="node"><title>2</title>
<ellipse fill="lightblue" stroke="black" cx="921.02" cy="-14.8492" rx="14.7" ry="14.7"/>
<text text-anchor="middle" x="921.02" y="-12.6492" font-family="Times New Roman,serif" font-size="9.00">2</text>
</g>
<!-- &#45;1&#45;&gt;2 -->
<g id="edge3" class="edge"><title>&#45;1&#45;&gt;2</title>
<path fill="none" stroke="red" stroke-width="0.416349" d="M1052.51,-74.9473C1048.87,-71.7645 1044.44,-68.2687 1040.02,-65.6985 1000.99,-42.995 985.817,-49.0449 945.02,-29.6985 944.183,-29.3017 943.336,-28.8863 942.486,-28.4573"/>
<polygon fill="red" stroke="red" stroke-width="0.416349" points="943.975,-25.2828 933.52,-23.5706 940.625,-31.4293 943.975,-25.2828"/>
</g>
<!-- 3 -->
<g id="node44" class="node"><title>3</title>
<ellipse fill="lightblue" stroke="black" cx="1017.02" cy="-14.8492" rx="14.7" ry="14.7"/>
<text text-anchor="middle" x="1017.02" y="-12.6492" font-family="Times New Roman,serif" font-size="9.00">3</text>
</g>
<!-- &#45;1&#45;&gt;3 -->
<g id="edge4" class="edge"><title>&#45;1&#45;&gt;3</title>
<path fill="none" stroke="red" stroke-width="0.285528" d="M1055.62,-74.8391C1049.42,-65.3583 1039,-49.4405 1030.55,-36.528"/>
<polygon fill="red" stroke="red" stroke-width="0.285528" points="1033.24,-34.2427 1024.84,-27.7919 1027.38,-38.0759 1033.24,-34.2427"/>
</g>
<!-- &#45;2 -->
<g id="node2" class="node"><title>&#45;2</title>
<polygon fill="lightgray" stroke="black" points="1115.02,-93.0833 1091.02,-93.0833 1091.02,-75.0833 1115.02,-75.0833 1115.02,-93.0833"/>
<text text-anchor="middle" x="1103.02" y="-81.8833" font-family="Times New Roman,serif" font-size="9.00">&#45;2</text>
</g>
<!-- &#45;2&#45;&gt;0 -->
<g id="edge5" class="edge"><title>&#45;2&#45;&gt;0</title>
<path fill="none" stroke="green" stroke-width="0.117986" d="M1094.48,-74.9962C1090.83,-71.8209 1086.41,-68.3175 1082.02,-65.6985 1045.38,-43.8365 1031.37,-48.4068 993.02,-29.6985 992.187,-29.2925 991.345,-28.8692 990.497,-28.4336"/>
<polygon fill="green" stroke="green" stroke-width="0.117986" points="991.996,-25.2632 981.546,-23.516 988.625,-31.3985 991.996,-25.2632"/>
</g>
<!-- &#45;2&#45;&gt;1 -->
<g id="edge6" class="edge"><title>&#45;2&#45;&gt;1</title>
<path fill="none" stroke="green" stroke-width="0.177435" d="M1098.36,-74.8391C1093.07,-65.4711 1084.22,-49.8186 1076.97,-36.9904"/>
<polygon fill="green" stroke="green" stroke-width="0.177435" points="1080.01,-35.2626 1072.04,-28.279 1073.92,-38.7069 1080.01,-35.2626"/>
</g>
<!-- &#45;2&#45;&gt;2 -->
<g id="edge7" class="edge"><title>&#45;2&#45;&gt;2</title>
<path fill="none" stroke="green" stroke-width="0.159424" d="M1095.04,-75.0673C1091.34,-71.7493 1086.74,-68.1192 1082.02,-65.6985 1026.01,-36.9495 1003.24,-53.6435 945.02,-29.6985 944.163,-29.3463 943.3,-28.9687 942.435,-28.5716"/>
<polygon fill="green" stroke="green" stroke-width="0.159424" points="943.885,-25.3795 933.403,-23.8338 940.633,-31.5785 943.885,-25.3795"/>
</g>
<!-- &#45;2&#45;&gt;3 -->
<g id="edge8" class="edge"><title>&#45;2&#45;&gt;3</title>
<path fill="none" stroke="green" stroke-width="0.187149" d="M1093.25,-74.8702C1089.74,-71.9462 1085.72,-68.6482 1082.02,-65.6985 1067.02,-53.7444 1049.78,-40.5495 1036.83,-30.7394"/>
<polygon fill="green" stroke="green" stroke-width="0.187149" points="1038.72,-27.7783 1028.63,-24.5454 1034.5,-33.3646 1038.72,-27.7783"/>
</g>
<!-- &#45;3 -->
<g id="node3" class="node"><title>&#45;3</title>
<polygon fill="lightgray" stroke="black" points="1157.02,-93.0833 1133.02,-93.0833 1133.02,-75.0833 1157.02,-75.0833 1157.02,-93.0833"/>
<text text-anchor="middle" x="1145.02" y="-81.8833" font-family="Times New Roman,serif" font-size="9.00">&#45;3</text>
</g>
<!-- &#45;3&#45;&gt;0 -->
<g id="edge9" class="edge"><title>&#45;3&#45;&gt;0</title>
<path fill="none" stroke="red" stroke-width="0.236662" d="M1136.63,-74.7362C1133,-71.521 1128.55,-68.0582 1124.02,-65.6985 1070.46,-37.8245 1048.73,-52.977 993.02,-29.6985 992.165,-29.3415 991.304,-28.9598 990.441,-28.5593"/>
<polygon fill="red" stroke="red" stroke-width="0.236662" points="991.894,-25.3689 981.415,-23.8055 988.632,-31.5624 991.894,-25.3689"/>
</g>
<!-- &#45;3&#45;&gt;1 -->
<g id="edge10" class="edge"><title>&#45;3&#45;&gt;1</title>
<path fill="none" stroke="green" stroke-width="0.100376" d="M1135.21,-74.8391C1122.42,-64.0894 1099.78,-45.0642 1083.67,-31.5274"/>
<polygon fill="green" stroke="green" stroke-width="0.100376" points="1085.84,-28.7762 1075.93,-25.0218 1081.34,-34.135 1085.84,-28.7762"/>
</g>
<!-- &#45;3&#45;&gt;2 -->
<g id="edge11" class="edge"><title>&#45;3&#45;&gt;2</title>
<path fill="none" stroke="red" stroke-width="0.379399" d="M1137.1,-74.9354C1133.42,-71.593 1128.8,-67.9802 1124.02,-65.6985 1050.77,-30.7689 1020.94,-58.3551 945.02,-29.6985 944.153,-29.3715 943.281,-29.0153 942.41,-28.6363"/>
<polygon fill="red" stroke="red" stroke-width="0.379399" points="943.839,-25.4358 933.344,-23.9826 940.642,-31.6632 943.839,-25.4358"/>
</g>
<!-- &#45;3&#45;&gt;3 -->
<g id="edge12" class="edge"><title>&#45;3&#45;&gt;3</title>
<path fill="none" stroke="green" stroke-width="0.162802" d="M1136.45,-75.0508C1132.79,-71.8837 1128.38,-68.3719 1124.02,-65.6985 1089.75,-44.6689 1076.94,-47.7763 1041.02,-29.6985 1040.19,-29.2821 1039.35,-28.8501 1038.51,-28.4071"/>
<polygon fill="green" stroke="green" stroke-width="0.162802" points="1040.02,-25.2416 1029.58,-23.4551 1036.63,-31.3641 1040.02,-25.2416"/>
</g>
<!-- &#45;4 -->
<g id="node4" class="node"><title>&#45;4</title>
<polygon fill="lightgray" stroke="black" points="1199.02,-93.0833 1175.02,-93.0833 1175.02,-75.0833 1199.02,-75.0833 1199.02,-93.0833"/>
<text text-anchor="middle" x="1187.02" y="-81.8833" font-family="Times New Roman,serif" font-size="9.00">&#45;4</text>
</g>
<!-- &#45;4&#45;&gt;0 -->
<g id="edge13" class="edge"><title>&#45;4&#45;&gt;0</title>
<path fill="none" stroke="green" stroke-width="0.141306" d="M1179.1,-74.9506C1175.41,-71.611 1170.8,-67.9963 1166.02,-65.6985 1095.25,-31.6563 1066.4,-57.6783 993.02,-29.6985 992.154,-29.3686 991.284,-29.01 990.413,-28.6288"/>
<polygon fill="green" stroke="green" stroke-width="0.141306" points="991.844,-25.4292 981.351,-23.9655 988.641,-31.6534 991.844,-25.4292"/>
</g>
<!-- &#45;4&#45;&gt;1 -->
<g id="edge14" class="edge"><title>&#45;4&#45;&gt;1</title>
<path fill="none" stroke="red" stroke-width="0.300175" d="M1177.97,-74.8059C1174.39,-71.7465 1170.15,-68.3754 1166.02,-65.6985 1140.64,-49.249 1109.05,-34.4779 1088.03,-25.3629"/>
<polygon fill="red" stroke="red" stroke-width="0.300175" points="1089.2,-22.0583 1078.63,-21.36 1086.46,-28.4985 1089.2,-22.0583"/>
</g>
<!-- &#45;4&#45;&gt;2 -->
<g id="edge15" class="edge"><title>&#45;4&#45;&gt;2</title>
<path fill="none" stroke="red" stroke-width="0.518047" d="M1179.14,-74.8511C1175.47,-71.493 1170.85,-67.8914 1166.02,-65.6985 1075.42,-24.5311 1038.76,-63.1136 945.02,-29.6985 944.147,-29.3875 943.271,-29.0451 942.395,-28.6775"/>
<polygon fill="red" stroke="red" stroke-width="0.518047" points="943.812,-25.4722 933.31,-24.0776 940.65,-31.7173 943.812,-25.4722"/>
</g>
<!-- &#45;4&#45;&gt;3 -->
<g id="edge16" class="edge"><title>&#45;4&#45;&gt;3</title>
<path fill="none" stroke="green" stroke-width="0.459211" d="M1178.61,-74.764C1174.98,-71.553 1170.54,-68.0859 1166.02,-65.6985 1114.9,-38.6966 1094.23,-52.313 1041.02,-29.6985 1040.17,-29.3363 1039.31,-28.9502 1038.45,-28.5459"/>
<polygon fill="green" stroke="green" stroke-width="0.459211" points="1039.9,-25.3575 1029.43,-23.7747 1036.63,-31.5449 1039.9,-25.3575"/>
</g>
<!-- &#45;5 -->
<g id="node5" class="node"><title>&#45;5</title>
<polygon fill="lightgray" stroke="black" points="1241.02,-93.0833 1217.02,-93.0833 1217.02,-75.0833 1241.02,-75.0833 1241.02,-93.0833"/>
<text text-anchor="middle" x="1229.02" y="-81.8833" font-family="Times New Roman,serif" font-size="9.00">&#45;5</text>
</g>
<!-- &#45;5&#45;&gt;0 -->
<g id="edge17" class="edge"><title>&#45;5&#45;&gt;0</title>
<path fill="none" stroke="red" stroke-width="0.125613" d="M1221.14,-74.8612C1217.46,-71.505 1212.84,-67.902 1208.02,-65.6985 1119.9,-25.4244 1084.21,-62.432 993.02,-29.6985 992.148,-29.3856 991.272,-29.0415 990.397,-28.6726"/>
<polygon fill="red" stroke="red" stroke-width="0.125613" points="991.815,-25.4678 981.314,-24.0662 988.649,-31.7108 991.815,-25.4678"/>
</g>
<!-- &#45;5&#45;&gt;1 -->
<g id="edge18" class="edge"><title>&#45;5&#45;&gt;1</title>
<path fill="none" stroke="red" stroke-width="0.191154" d="M1220.54,-74.8877C1216.91,-71.6957 1212.47,-68.2093 1208.02,-65.6985 1169.06,-43.7302 1118.74,-28.9465 1089.35,-21.4993"/>
<polygon fill="red" stroke="red" stroke-width="0.191154" points="1090.08,-18.0742 1079.54,-19.0878 1088.41,-24.8721 1090.08,-18.0742"/>
</g>
<!-- &#45;5&#45;&gt;2 -->
<g id="edge19" class="edge"><title>&#45;5&#45;&gt;2</title>
<path fill="none" stroke="green" stroke-width="0.113363" d="M1221.17,-74.7926C1217.5,-71.4238 1212.87,-67.8298 1208.02,-65.6985 1100,-18.2641 1056.64,-67.8959 945.02,-29.6985 944.143,-29.3987 943.263,-29.0656 942.385,-28.7061"/>
<polygon fill="green" stroke="green" stroke-width="0.113363" points="943.795,-25.4976 933.287,-24.1433 940.657,-31.7548 943.795,-25.4976"/>
</g>
<!-- &#45;5&#45;&gt;3 -->
<g id="edge20" class="edge"><title>&#45;5&#45;&gt;3</title>
<path fill="none" stroke="red" stroke-width="0.360779" d="M1221.09,-74.9668C1217.4,-71.6302 1212.79,-68.0133 1208.02,-65.6985 1139.71,-32.5426 1111.87,-57.0025 1041.02,-29.6985 1040.16,-29.3655 1039.29,-29.0042 1038.42,-28.6209"/>
<polygon fill="red" stroke="red" stroke-width="0.360779" points="1039.85,-25.4223 1029.36,-23.9473 1036.64,-31.643 1039.85,-25.4223"/>
</g>
<!-- &#45;6 -->
<g id="node6" class="node"><title>&#45;6</title>
<polygon fill="lightgray" stroke="black" points="69.0196,-156.468 45.0196,-156.468 45.0196,-138.468 69.0196,-138.468 69.0196,-156.468"/>
<text text-anchor="middle" x="57.0196" y="-145.268" font-family="Times New Roman,serif" font-size="9.00">&#45;6</text>
</g>
<!-- &#45;6&#45;&gt;0 -->
<g id="edge21" class="edge"><title>&#45;6&#45;&gt;0</title>
<path fill="none" stroke="red" stroke-width="0.363257" d="M58.4987,-138.239C62.0415,-121.236 72.7544,-82.4191 99.0196,-65.6985 178.387,-15.1727 854.676,-55.9662 945.02,-29.6985 946.082,-29.3896 947.147,-29.0244 948.206,-28.6155"/>
<polygon fill="red" stroke="red" stroke-width="0.363257" points="949.918,-31.6738 957.323,-24.0968 946.809,-25.4019 949.918,-31.6738"/>
</g>
<!-- &#45;6&#45;&gt;1 -->
<g id="edge22" class="edge"><title>&#45;6&#45;&gt;1</title>
<path fill="none" stroke="green" stroke-width="0.371544" d="M69.4886,-146.412C228.722,-145.669 1860.1,-137.207 1894.02,-102.468 1905.44,-90.775 1905.22,-77.5958 1894.02,-65.6985 1865.75,-35.6752 1225.72,-19.4975 1090.12,-16.4005"/>
<polygon fill="green" stroke="green" stroke-width="0.371544" points="1089.98,-12.8966 1079.9,-16.1703 1089.82,-19.8948 1089.98,-12.8966"/>
</g>
<!-- &#45;6&#45;&gt;2 -->
<g id="edge23" class="edge"><title>&#45;6&#45;&gt;2</title>
<path fill="none" stroke="green" stroke-width="0.126378" d="M44.8674,-139.932C32.7089,-132.623 14.736,-119.537 7.01965,-102.468 0.287881,-87.5769 -4.21686,-77.5645 7.01965,-65.6985 38.4686,-32.4876 752.732,-18.6919 896.095,-16.2528"/>
<polygon fill="green" stroke="green" stroke-width="0.126378" points="896.175,-19.752 906.115,-16.0851 896.058,-12.753 896.175,-19.752"/>
</g>
<!-- 25 -->
<g id="node45" class="node"><title>25</title>
<ellipse fill="white" stroke="black" cx="34.0196" cy="-84.0833" rx="18.2703" ry="18.2703"/>
<text text-anchor="middle" x="34.0196" y="-81.8833" font-family="Times New Roman,serif" font-size="9.00">25</text>
</g>
<!-- &#45;6&#45;&gt;25 -->
<g id="edge160" class="edge"><title>&#45;6&#45;&gt;25</title>
<path fill="none" stroke="green" stroke-width="0.455881" d="M54.0128,-138.443C51.4009,-131.472 47.4684,-120.977 43.7802,-111.133"/>
<polygon fill="green" stroke="green" stroke-width="0.455881" points="47.0177,-109.798 40.2315,-101.662 40.4627,-112.254 47.0177,-109.798"/>
</g>
<!-- &#45;7 -->
<g id="node7" class="node"><title>&#45;7</title>
<polygon fill="lightgray" stroke="black" points="1283.02,-93.0833 1259.02,-93.0833 1259.02,-75.0833 1283.02,-75.0833 1283.02,-93.0833"/>
<text text-anchor="middle" x="1271.02" y="-81.8833" font-family="Times New Roman,serif" font-size="9.00">&#45;7</text>
</g>
<!-- &#45;7&#45;&gt;0 -->
<g id="edge24" class="edge"><title>&#45;7&#45;&gt;0</title>
<path fill="none" stroke="red" stroke-width="0.309922" d="M1263.17,-74.7998C1259.5,-71.4323 1254.87,-67.8374 1250.02,-65.6985 1144.49,-19.1606 1102.09,-67.2117 993.02,-29.6985 992.144,-29.3973 991.264,-29.0631 990.386,-28.7025"/>
<polygon fill="red" stroke="red" stroke-width="0.309922" points="991.797,-25.4945 981.289,-24.1352 988.656,-31.7502 991.797,-25.4945"/>
</g>
<!-- &#45;7&#45;&gt;1 -->
<g id="edge25" class="edge"><title>&#45;7&#45;&gt;1</title>
<path fill="none" stroke="green" stroke-width="0.295591" stroke-dasharray="1,5" d="M1263.03,-75.0813C1259.34,-71.7659 1254.73,-68.1339 1250.02,-65.6985 1196.74,-38.1381 1126.72,-24.6696 1089.98,-19.1159"/>
<polygon fill="green" stroke="green" stroke-width="0.295591" points="1090.1,-15.5974 1079.71,-17.6397 1089.11,-22.5262 1090.1,-15.5974"/>
</g>
<!-- &#45;7&#45;&gt;2 -->
<g id="edge26" class="edge"><title>&#45;7&#45;&gt;2</title>
<path fill="none" stroke="green" stroke-width="0.244357" d="M1263.19,-74.7498C1259.52,-71.373 1254.89,-67.7847 1250.02,-65.6985 1124.54,-11.9802 1074.57,-72.6917 945.02,-29.6985 944.141,-29.4068 943.258,-29.0807 942.378,-28.7269"/>
<polygon fill="green" stroke="green" stroke-width="0.244357" points="943.782,-25.5163 933.27,-24.1914 940.662,-31.7823 943.782,-25.5163"/>
</g>
<!-- &#45;7&#45;&gt;3 -->
<g id="edge27" class="edge"><title>&#45;7&#45;&gt;3</title>
<path fill="none" stroke="green" stroke-width="0.352552" d="M1263.13,-74.8719C1259.46,-71.5177 1254.84,-67.9133 1250.02,-65.6985 1164.38,-26.3171 1129.66,-61.7509 1041.02,-29.6985 1040.15,-29.3836 1039.27,-29.0377 1038.4,-28.6674"/>
<polygon fill="green" stroke="green" stroke-width="0.352552" points="1039.82,-25.4632 1029.32,-24.0542 1036.65,-31.704 1039.82,-25.4632"/>
</g>
<!-- &#45;8 -->
<g id="node8" class="node"><title>&#45;8</title>
<polygon fill="lightgray" stroke="black" points="1325.02,-93.0833 1301.02,-93.0833 1301.02,-75.0833 1325.02,-75.0833 1325.02,-93.0833"/>
<text text-anchor="middle" x="1313.02" y="-81.8833" font-family="Times New Roman,serif" font-size="9.00">&#45;8</text>
</g>
<!-- &#45;8&#45;&gt;0 -->
<g id="edge28" class="edge"><title>&#45;8&#45;&gt;0</title>
<path fill="none" stroke="red" stroke-width="0.203356" d="M1305.18,-74.7552C1301.52,-71.3794 1296.89,-67.7904 1292.02,-65.6985 1169.03,-12.8787 1120.01,-72.006 993.02,-29.6985 992.141,-29.4058 991.259,-29.0788 990.379,-28.7243"/>
<polygon fill="red" stroke="red" stroke-width="0.203356" points="991.784,-25.514 981.272,-24.1853 988.661,-31.7788 991.784,-25.514"/>
</g>
<!-- &#45;8&#45;&gt;1 -->
<g id="edge29" class="edge"><title>&#45;8&#45;&gt;1</title>
<path fill="none" stroke="green" stroke-width="0.177037" d="M1305.08,-74.9755C1301.4,-71.6406 1296.78,-68.0225 1292.02,-65.6985 1223.8,-32.4206 1133.26,-21.1323 1090.04,-17.4858"/>
<polygon fill="green" stroke="green" stroke-width="0.177037" points="1090.12,-13.9813 1079.88,-16.6978 1089.58,-20.9604 1090.12,-13.9813"/>
</g>
<!-- &#45;8&#45;&gt;2 -->
<g id="edge30" class="edge"><title>&#45;8&#45;&gt;2</title>
<path fill="none" stroke="green" stroke-width="0.499757" d="M1305.59,-75.0787C1301.87,-71.5922 1297.08,-67.8235 1292.02,-65.6985 1149.05,-5.68584 1092.52,-77.496 945.02,-29.6985 943.967,-29.3574 942.91,-28.9658 941.858,-28.5356"/>
<polygon fill="green" stroke="green" stroke-width="0.499757" points="943.268,-25.327 932.765,-23.9384 940.11,-31.574 943.268,-25.327"/>
</g>
<!-- &#45;8&#45;&gt;3 -->
<g id="edge31" class="edge"><title>&#45;8&#45;&gt;3</title>
<path fill="none" stroke="green" stroke-width="0.371973" d="M1305.16,-74.8074C1301.49,-71.4413 1296.87,-67.8454 1292.02,-65.6985 1188.98,-20.0567 1147.53,-66.5278 1041.02,-29.6985 1040.14,-29.3959 1039.27,-29.0604 1038.39,-28.6988"/>
<polygon fill="green" stroke="green" stroke-width="0.371973" points="1039.8,-25.4912 1029.29,-24.1267 1036.65,-31.7454 1039.8,-25.4912"/>
</g>
<!-- &#45;9 -->
<g id="node9" class="node"><title>&#45;9</title>
<polygon fill="lightgray" stroke="black" points="1367.02,-93.0833 1343.02,-93.0833 1343.02,-75.0833 1367.02,-75.0833 1367.02,-93.0833"/>
<text text-anchor="middle" x="1355.02" y="-81.8833" font-family="Times New Roman,serif" font-size="9.00">&#45;9</text>
</g>
<!-- &#45;9&#45;&gt;0 -->
<g id="edge32" class="edge"><title>&#45;9&#45;&gt;0</title>
<path fill="none" stroke="green" stroke-width="0.266764" d="M1347.59,-75.0828C1343.87,-71.5972 1339.08,-67.8281 1334.02,-65.6985 1193.55,-6.58553 1137.95,-76.8093 993.02,-29.6985 991.967,-29.3564 990.91,-28.9641 989.858,-28.5332"/>
<polygon fill="green" stroke="green" stroke-width="0.266764" points="991.27,-25.3248 980.767,-23.9337 988.11,-31.571 991.27,-25.3248"/>
</g>
<!-- &#45;9&#45;&gt;1 -->
<g id="edge33" class="edge"><title>&#45;9&#45;&gt;1</title>
<path fill="none" stroke="green" stroke-width="0.241874" d="M1347.12,-74.9008C1343.44,-71.5519 1338.82,-67.9437 1334.02,-65.6985 1250.62,-26.7032 1139.29,-18.1812 1090.15,-16.3418"/>
<polygon fill="green" stroke="green" stroke-width="0.241874" points="1090.2,-12.842 1080.1,-16.0288 1089.99,-19.8386 1090.2,-12.842"/>
</g>
<!-- &#45;9&#45;&gt;2 -->
<g id="edge34" class="edge"><title>&#45;9&#45;&gt;2</title>
<path fill="none" stroke="red" stroke-width="0.220919" d="M1347.6,-75.0535C1343.88,-71.5615 1339.09,-67.7954 1334.02,-65.6985 1173.55,0.615621 1110.49,-82.3059 945.02,-29.6985 943.965,-29.3632 942.907,-28.9765 941.853,-28.5501"/>
<polygon fill="red" stroke="red" stroke-width="0.220919" points="943.261,-25.3406 932.756,-23.9672 940.112,-31.5921 943.261,-25.3406"/>
</g>
<!-- &#45;9&#45;&gt;3 -->
<g id="edge35" class="edge"><title>&#45;9&#45;&gt;3</title>
<path fill="none" stroke="red" stroke-width="0.21408" d="M1347.18,-74.7608C1343.52,-71.3861 1338.89,-67.7963 1334.02,-65.6985 1213.53,-13.7769 1165.44,-71.3204 1041.02,-29.6985 1040.14,-29.4047 1039.26,-29.0768 1038.38,-28.7216"/>
<polygon fill="red" stroke="red" stroke-width="0.21408" points="1039.79,-25.5115 1029.27,-24.179 1036.66,-31.7752 1039.79,-25.5115"/>
</g>
<!-- &#45;10 -->
<g id="node10" class="node"><title>&#45;10</title>
<polygon fill="lightgray" stroke="black" points="1414.52,-93.0833 1385.52,-93.0833 1385.52,-75.0833 1414.52,-75.0833 1414.52,-93.0833"/>
<text text-anchor="middle" x="1400.02" y="-81.8833" font-family="Times New Roman,serif" font-size="9.00">&#45;10</text>
</g>
<!-- &#45;10&#45;&gt;0 -->
<g id="edge36" class="edge"><title>&#45;10&#45;&gt;0</title>
<path fill="none" stroke="red" stroke-width="0.250666" d="M1391.35,-75.06C1387.06,-71.5694 1381.6,-67.8026 1376.02,-65.6985 1216.03,-5.42033 1155.92,-81.6185 993.02,-29.6985 991.965,-29.3625 990.907,-28.9751 989.853,-28.5482"/>
<polygon fill="red" stroke="red" stroke-width="0.250666" points="991.262,-25.3388 980.757,-23.9634 988.112,-31.5897 991.262,-25.3388"/>
</g>
<!-- &#45;10&#45;&gt;1 -->
<g id="edge37" class="edge"><title>&#45;10&#45;&gt;1</title>
<path fill="none" stroke="green" stroke-width="0.209186" d="M1390.83,-74.8638C1386.6,-71.5081 1381.34,-67.9048 1376.02,-65.6985 1275.83,-24.1732 1144.21,-17.07 1090,-15.9768"/>
<polygon fill="green" stroke="green" stroke-width="0.209186" points="1089.98,-12.4763 1079.93,-15.8272 1089.88,-19.4755 1089.98,-12.4763"/>
</g>
<!-- &#45;10&#45;&gt;2 -->
<g id="edge38" class="edge"><title>&#45;10&#45;&gt;2</title>
<path fill="none" stroke="green" stroke-width="0.373713" d="M1391.36,-75.0339C1387.07,-71.5376 1381.62,-67.7736 1376.02,-65.6985 1195.79,1.13657 1128.47,-87.1198 945.02,-29.6985 943.964,-29.368 942.904,-28.985 941.849,-28.5618"/>
<polygon fill="green" stroke="green" stroke-width="0.373713" points="943.255,-25.3515 932.748,-23.9904 940.113,-31.6067 943.255,-25.3515"/>
</g>
<!-- &#45;10&#45;&gt;3 -->
<g id="edge39" class="edge"><title>&#45;10&#45;&gt;3</title>
<path fill="none" stroke="green" stroke-width="0.137065" d="M1390.89,-74.732C1386.66,-71.352 1381.4,-67.766 1376.02,-65.6985 1236.24,-11.971 1183.39,-76.1227 1041.02,-29.6985 1040.14,-29.4114 1039.26,-29.0892 1038.37,-28.7387"/>
<polygon fill="green" stroke="green" stroke-width="0.137065" points="1039.78,-25.5269 1029.26,-24.2185 1036.66,-31.7978 1039.78,-25.5269"/>
</g>
<!-- &#45;11 -->
<g id="node11" class="node"><title>&#45;11</title>
<polygon fill="lightgray" stroke="black" points="1461.52,-93.0833 1432.52,-93.0833 1432.52,-75.0833 1461.52,-75.0833 1461.52,-93.0833"/>
<text text-anchor="middle" x="1447.02" y="-81.8833" font-family="Times New Roman,serif" font-size="9.00">&#45;11</text>
</g>
<!-- &#45;11&#45;&gt;0 -->
<g id="edge40" class="edge"><title>&#45;11&#45;&gt;0</title>
<path fill="none" stroke="green" stroke-width="0.336719" d="M1438.77,-75.033C1434.67,-71.5365 1429.44,-67.7726 1424.02,-65.6985 1244.48,2.96678 1176.47,-87.1198 993.02,-29.6985 991.964,-29.368 990.904,-28.985 989.849,-28.5618"/>
<polygon fill="green" stroke="green" stroke-width="0.336719" points="991.255,-25.3515 980.748,-23.9904 988.113,-31.6067 991.255,-25.3515"/>
</g>
<!-- &#45;11&#45;&gt;1 -->
<g id="edge41" class="edge"><title>&#45;11&#45;&gt;1</title>
<path fill="none" stroke="red" stroke-width="0.310718" d="M1438.29,-74.8055C1434.25,-71.439 1429.2,-67.8433 1424.02,-65.6985 1306.35,-16.9706 1150.34,-14.1337 1090.17,-15.0817"/>
<polygon fill="red" stroke="red" stroke-width="0.310718" points="1090,-11.5843 1080.08,-15.2926 1090.15,-18.5828 1090,-11.5843"/>
</g>
<!-- &#45;11&#45;&gt;2 -->
<g id="edge42" class="edge"><title>&#45;11&#45;&gt;2</title>
<path fill="none" stroke="red" stroke-width="0.145576" d="M1438.78,-75.0127C1434.68,-71.5118 1429.45,-67.75 1424.02,-65.6985 1224.3,9.73367 1149.02,-92.6247 945.02,-29.6985 943.962,-29.3724 942.901,-28.993 941.846,-28.5727"/>
<polygon fill="red" stroke="red" stroke-width="0.145576" points="943.25,-25.3617 932.742,-24.0121 940.115,-31.6204 943.25,-25.3617"/>
</g>
<!-- &#45;11&#45;&gt;3 -->
<g id="edge43" class="edge"><title>&#45;11&#45;&gt;3</title>
<path fill="none" stroke="green" stroke-width="0.158604" d="M1438.76,-75.0582C1434.66,-71.5673 1429.43,-67.8007 1424.02,-65.6985 1264.65,-3.79565 1203.92,-81.6185 1041.02,-29.6985 1039.97,-29.3625 1038.91,-28.9751 1037.85,-28.5482"/>
<polygon fill="green" stroke="green" stroke-width="0.158604" points="1039.26,-25.3388 1028.76,-23.9634 1036.11,-31.5897 1039.26,-25.3388"/>
</g>
<!-- &#45;12 -->
<g id="node12" class="node"><title>&#45;12</title>
<polygon fill="lightgray" stroke="black" points="1508.52,-93.0833 1479.52,-93.0833 1479.52,-75.0833 1508.52,-75.0833 1508.52,-93.0833"/>
<text text-anchor="middle" x="1494.02" y="-81.8833" font-family="Times New Roman,serif" font-size="9.00">&#45;12</text>
</g>
<!-- &#45;12&#45;&gt;0 -->
<g id="edge44" class="edge"><title>&#45;12&#45;&gt;0</title>
<path fill="none" stroke="green" stroke-width="0.259794" d="M1485.78,-75.0131C1481.68,-71.5123 1476.45,-67.7504 1471.02,-65.6985 1271.72,9.59265 1196.6,-92.51 993.02,-29.6985 991.962,-29.3723 990.901,-28.9929 989.846,-28.5725"/>
<polygon fill="green" stroke="green" stroke-width="0.259794" points="991.25,-25.3615 980.742,-24.0116 988.115,-31.6201 991.25,-25.3615"/>
</g>
<!-- &#45;12&#45;&gt;1 -->
<g id="edge45" class="edge"><title>&#45;12&#45;&gt;1</title>
<path fill="none" stroke="red" stroke-width="0.263733" d="M1485.31,-74.7666C1481.27,-71.3929 1476.22,-67.8024 1471.02,-65.6985 1401.07,-37.3754 1167.4,-21.7207 1090.09,-17.2223"/>
<polygon fill="red" stroke="red" stroke-width="0.263733" points="1090.04,-13.7138 1079.86,-16.6393 1089.65,-20.7025 1090.04,-13.7138"/>
</g>
<!-- &#45;12&#45;&gt;2 -->
<g id="edge46" class="edge"><title>&#45;12&#45;&gt;2</title>
<path fill="none" stroke="green" stroke-width="0.194511" d="M1485.79,-74.9965C1481.69,-71.492 1476.46,-67.7319 1471.02,-65.6985 1251.53,16.3627 1169.16,-98.0176 945.02,-29.6985 943.961,-29.3759 942.899,-28.9995 941.843,-28.5815"/>
<polygon fill="green" stroke="green" stroke-width="0.194511" points="943.246,-25.37 932.736,-24.0295 940.116,-31.6313 943.246,-25.37"/>
</g>
<!-- &#45;12&#45;&gt;3 -->
<g id="edge47" class="edge"><title>&#45;12&#45;&gt;3</title>
<path fill="none" stroke="red" stroke-width="0.212402" d="M1485.77,-75.0335C1481.67,-71.5371 1476.44,-67.7731 1471.02,-65.6985 1291.9,2.82585 1224.04,-87.0051 1041.02,-29.6985 1039.96,-29.3679 1038.9,-28.9849 1037.85,-28.5616"/>
<polygon fill="red" stroke="red" stroke-width="0.212402" points="1039.26,-25.3513 1028.75,-23.9899 1036.11,-31.6064 1039.26,-25.3513"/>
</g>
<!-- &#45;13 -->
<g id="node13" class="node"><title>&#45;13</title>
<polygon fill="lightgray" stroke="black" points="1555.52,-93.0833 1526.52,-93.0833 1526.52,-75.0833 1555.52,-75.0833 1555.52,-93.0833"/>
<text text-anchor="middle" x="1541.02" y="-81.8833" font-family="Times New Roman,serif" font-size="9.00">&#45;13</text>
</g>
<!-- &#45;13&#45;&gt;0 -->
<g id="edge48" class="edge"><title>&#45;13&#45;&gt;0</title>
<path fill="none" stroke="red" stroke-width="0.202814" d="M1532.79,-74.9968C1528.69,-71.4923 1523.46,-67.7322 1518.02,-65.6985 1298.95,16.2216 1216.74,-97.9028 993.02,-29.6985 991.961,-29.3758 990.899,-28.9994 989.843,-28.5813"/>
<polygon fill="red" stroke="red" stroke-width="0.202814" points="991.246,-25.3698 980.736,-24.0291 988.116,-31.6311 991.246,-25.3698"/>
</g>
<!-- &#45;13&#45;&gt;1 -->
<g id="edge49" class="edge"><title>&#45;13&#45;&gt;1</title>
<path fill="none" stroke="green" stroke-width="0.365471" d="M1532.32,-74.7355C1528.28,-71.3561 1523.23,-67.7697 1518.02,-65.6985 1439.04,-34.2961 1173.55,-20.4913 1090.24,-16.8649"/>
<polygon fill="green" stroke="green" stroke-width="0.365471" points="1090.3,-13.3642 1080.16,-16.4374 1090,-20.3579 1090.3,-13.3642"/>
</g>
<!-- &#45;13&#45;&gt;2 -->
<g id="edge50" class="edge"><title>&#45;13&#45;&gt;2</title>
<path fill="none" stroke="red" stroke-width="0.163273" d="M1532.79,-74.9828C1528.7,-71.4753 1523.46,-67.7166 1518.02,-65.6985 1278.76,22.994 1189.31,-103.412 945.02,-29.6985 943.96,-29.3789 942.898,-29.0049 941.841,-28.5889"/>
<polygon fill="red" stroke="red" stroke-width="0.163273" points="943.243,-25.3769 932.732,-24.044 940.117,-31.6405 943.243,-25.3769"/>
</g>
<!-- &#45;13&#45;&gt;3 -->
<g id="edge51" class="edge"><title>&#45;13&#45;&gt;3</title>
<path fill="none" stroke="green" stroke-width="0.201111" d="M1532.78,-75.0135C1528.68,-71.5128 1523.45,-67.7509 1518.02,-65.6985 1319.14,9.45164 1244.17,-92.3953 1041.02,-29.6985 1039.96,-29.3722 1038.9,-28.9927 1037.85,-28.5723"/>
<polygon fill="green" stroke="green" stroke-width="0.201111" points="1039.25,-25.3614 1028.74,-24.0112 1036.11,-31.6198 1039.25,-25.3614"/>
</g>
<!-- &#45;14 -->
<g id="node14" class="node"><title>&#45;14</title>
<polygon fill="lightgray" stroke="black" points="1602.52,-93.0833 1573.52,-93.0833 1573.52,-75.0833 1602.52,-75.0833 1602.52,-93.0833"/>
<text text-anchor="middle" x="1588.02" y="-81.8833" font-family="Times New Roman,serif" font-size="9.00">&#45;14</text>
</g>
<!-- &#45;14&#45;&gt;0 -->
<g id="edge52" class="edge"><title>&#45;14&#45;&gt;0</title>
<path fill="none" stroke="red" stroke-width="0.235507" d="M1579.79,-74.9831C1575.7,-71.4757 1570.46,-67.7169 1565.02,-65.6985 1326.18,22.8529 1236.88,-103.298 993.02,-29.6985 991.96,-29.3788 990.898,-29.0048 989.841,-28.5887"/>
<polygon fill="red" stroke="red" stroke-width="0.235507" points="991.243,-25.3767 980.732,-24.0437 988.117,-31.6403 991.243,-25.3767"/>
</g>
<!-- &#45;14&#45;&gt;1 -->
<g id="edge53" class="edge"><title>&#45;14&#45;&gt;1</title>
<path fill="none" stroke="red" stroke-width="0.303657" d="M1579.76,-75.072C1575.66,-71.584 1570.43,-67.816 1565.02,-65.6985 1477,-31.2226 1179.65,-19.3927 1090.49,-16.5746"/>
<polygon fill="red" stroke="red" stroke-width="0.303657" points="1090.33,-13.0681 1080.23,-16.2614 1090.12,-20.0649 1090.33,-13.0681"/>
</g>
<!-- &#45;14&#45;&gt;2 -->
<g id="edge54" class="edge"><title>&#45;14&#45;&gt;2</title>
<path fill="none" stroke="red" stroke-width="0.162719" d="M1579.8,-74.9712C1575.7,-71.4612 1570.47,-67.7037 1565.02,-65.6985 1305.98,29.6271 1209.46,-108.809 945.02,-29.6985 943.96,-29.3814 942.896,-29.0094 941.839,-28.5951"/>
<polygon fill="red" stroke="red" stroke-width="0.162719" points="943.24,-25.3827 932.728,-24.0564 940.118,-31.6483 943.24,-25.3827"/>
</g>
<!-- &#45;14&#45;&gt;3 -->
<g id="edge55" class="edge"><title>&#45;14&#45;&gt;3</title>
<path fill="none" stroke="red" stroke-width="0.317648" d="M1579.79,-74.9971C1575.69,-71.4927 1570.46,-67.7326 1565.02,-65.6985 1346.38,16.0805 1264.31,-97.7881 1041.02,-29.6985 1039.96,-29.3758 1038.9,-28.9992 1037.84,-28.5812"/>
<polygon fill="red" stroke="red" stroke-width="0.317648" points="1039.25,-25.3696 1028.74,-24.0288 1036.12,-31.6309 1039.25,-25.3696"/>
</g>
<!-- &#45;15 -->
<g id="node15" class="node"><title>&#45;15</title>
<polygon fill="lightgray" stroke="black" points="1649.52,-93.0833 1620.52,-93.0833 1620.52,-75.0833 1649.52,-75.0833 1649.52,-93.0833"/>
<text text-anchor="middle" x="1635.02" y="-81.8833" font-family="Times New Roman,serif" font-size="9.00">&#45;15</text>
</g>
<!-- &#45;15&#45;&gt;0 -->
<g id="edge56" class="edge"><title>&#45;15&#45;&gt;0</title>
<path fill="none" stroke="red" stroke-width="0.171994" d="M1626.8,-74.9714C1622.7,-71.4615 1617.47,-67.704 1612.02,-65.6985 1353.4,29.4859 1257.03,-108.694 993.02,-29.6985 991.96,-29.3813 990.896,-29.0093 989.839,-28.595"/>
<polygon fill="red" stroke="red" stroke-width="0.171994" points="991.24,-25.3826 980.728,-24.0562 988.118,-31.6481 991.24,-25.3826"/>
</g>
<!-- &#45;15&#45;&gt;1 -->
<g id="edge57" class="edge"><title>&#45;15&#45;&gt;1</title>
<path fill="none" stroke="red" stroke-width="0.245361" d="M1626.77,-75.0514C1622.67,-71.5589 1617.43,-67.793 1612.02,-65.6985 1514.7,-28.056 1184,-18.3421 1090.08,-16.3157"/>
<polygon fill="red" stroke="red" stroke-width="0.245361" points="1089.9,-12.8114 1079.83,-16.1053 1089.76,-19.8099 1089.9,-12.8114"/>
</g>
<!-- &#45;15&#45;&gt;2 -->
<g id="edge58" class="edge"><title>&#45;15&#45;&gt;2</title>
<path fill="none" stroke="red" stroke-width="0.159252" d="M1626.8,-74.9612C1622.71,-71.449 1617.47,-67.6926 1612.02,-65.6985 1472.61,-14.7185 1087.32,-71.9523 945.02,-29.6985 943.959,-29.3835 942.895,-29.0134 941.837,-28.6005"/>
<polygon fill="red" stroke="red" stroke-width="0.159252" points="943.237,-25.3878 932.725,-24.0671 940.119,-31.655 943.237,-25.3878"/>
</g>
<!-- &#45;15&#45;&gt;3 -->
<g id="edge59" class="edge"><title>&#45;15&#45;&gt;3</title>
<path fill="none" stroke="green" stroke-width="0.327789" d="M1626.79,-74.9833C1622.7,-71.476 1617.46,-67.7172 1612.02,-65.6985 1373.6,22.7118 1284.45,-103.183 1041.02,-29.6985 1039.96,-29.3787 1038.9,-29.0047 1037.84,-28.5886"/>
<polygon fill="green" stroke="green" stroke-width="0.327789" points="1039.24,-25.3766 1028.73,-24.0435 1036.12,-31.6401 1039.24,-25.3766"/>
</g>
<!-- &#45;16 -->
<g id="node16" class="node"><title>&#45;16</title>
<polygon fill="lightgray" stroke="black" points="1696.52,-93.0833 1667.52,-93.0833 1667.52,-75.0833 1696.52,-75.0833 1696.52,-93.0833"/>
<text text-anchor="middle" x="1682.02" y="-81.8833" font-family="Times New Roman,serif" font-size="9.00">&#45;16</text>
</g>
<!-- &#45;16&#45;&gt;0 -->
<g id="edge60" class="edge"><title>&#45;16&#45;&gt;0</title>
<path fill="none" stroke="green" stroke-width="0.162304" d="M1673.8,-74.9614C1669.71,-71.4493 1664.47,-67.6928 1659.02,-65.6985 1519.82,-14.789 1135.1,-71.8948 993.02,-29.6985 991.959,-29.3835 990.895,-29.0133 989.837,-28.6004"/>
<polygon fill="green" stroke="green" stroke-width="0.162304" points="991.237,-25.3877 980.725,-24.0669 988.119,-31.6549 991.237,-25.3877"/>
</g>
<!-- &#45;16&#45;&gt;1 -->
<g id="edge61" class="edge"><title>&#45;16&#45;&gt;1</title>
<path fill="none" stroke="green" stroke-width="0.463189" d="M1673.77,-75.034C1669.67,-71.5377 1664.44,-67.7736 1659.02,-65.6985 1552.58,-24.965 1189.57,-17.4229 1090.29,-16.111"/>
<polygon fill="green" stroke="green" stroke-width="0.463189" points="1090.06,-12.608 1080.02,-15.9855 1089.98,-19.6075 1090.06,-12.608"/>
</g>
<!-- &#45;16&#45;&gt;2 -->
<g id="edge62" class="edge"><title>&#45;16&#45;&gt;2</title>
<path fill="none" stroke="red" stroke-width="0.374332" d="M1673.8,-74.9526C1669.71,-71.4385 1664.48,-67.6829 1659.02,-65.6985 1509.72,-11.4007 1097.4,-74.6514 945.02,-29.6985 943.958,-29.3854 942.894,-29.0168 941.836,-28.6052"/>
<polygon fill="red" stroke="red" stroke-width="0.374332" points="943.235,-25.3922 932.722,-24.0763 940.12,-31.6608 943.235,-25.3922"/>
</g>
<!-- &#45;16&#45;&gt;3 -->
<g id="edge63" class="edge"><title>&#45;16&#45;&gt;3</title>
<path fill="none" stroke="red" stroke-width="0.727005" d="M1673.8,-74.9717C1669.7,-71.4618 1664.47,-67.7042 1659.02,-65.6985 1400.82,29.3448 1304.6,-108.579 1041.02,-29.6985 1039.96,-29.3813 1038.9,-29.0093 1037.84,-28.5949"/>
<polygon fill="red" stroke="red" stroke-width="0.727005" points="1039.24,-25.3825 1028.73,-24.0559 1036.12,-31.648 1039.24,-25.3825"/>
</g>
<!-- &#45;17 -->
<g id="node17" class="node"><title>&#45;17</title>
<polygon fill="lightgray" stroke="black" points="1743.52,-93.0833 1714.52,-93.0833 1714.52,-75.0833 1743.52,-75.0833 1743.52,-93.0833"/>
<text text-anchor="middle" x="1729.02" y="-81.8833" font-family="Times New Roman,serif" font-size="9.00">&#45;17</text>
</g>
<!-- &#45;17&#45;&gt;0 -->
<g id="edge64" class="edge"><title>&#45;17&#45;&gt;0</title>
<path fill="none" stroke="red" stroke-width="0.105412" d="M1720.8,-74.9527C1716.71,-71.4387 1711.48,-67.6831 1706.02,-65.6985 1556.93,-11.4713 1145.18,-74.594 993.02,-29.6985 991.958,-29.3854 990.894,-29.0167 989.836,-28.6051"/>
<polygon fill="red" stroke="red" stroke-width="0.105412" points="991.235,-25.3921 980.722,-24.0761 988.12,-31.6607 991.235,-25.3921"/>
</g>
<!-- &#45;17&#45;&gt;1 -->
<g id="edge65" class="edge"><title>&#45;17&#45;&gt;1</title>
<path fill="none" stroke="green" stroke-width="0.394866" d="M1720.78,-75.0191C1716.68,-71.5195 1711.45,-67.7571 1706.02,-65.6985 1590.34,-21.8356 1194.38,-16.5584 1090.26,-15.9318"/>
<polygon fill="green" stroke="green" stroke-width="0.394866" points="1090.09,-12.431 1080.07,-15.8802 1090.06,-19.4309 1090.09,-12.431"/>
</g>
<!-- &#45;17&#45;&gt;2 -->
<g id="edge66" class="edge"><title>&#45;17&#45;&gt;2</title>
<path fill="none" stroke="red" stroke-width="0.371232" d="M1720.81,-74.945C1716.71,-71.4292 1711.48,-67.6745 1706.02,-65.6985 1546.82,-8.08244 1107.48,-77.351 945.02,-29.6985 943.958,-29.3871 942.893,-29.0198 941.835,-28.6093"/>
<polygon fill="red" stroke="red" stroke-width="0.371232" points="943.233,-25.396 932.72,-24.0844 940.121,-31.666 943.233,-25.396"/>
</g>
<!-- &#45;17&#45;&gt;3 -->
<g id="edge67" class="edge"><title>&#45;17&#45;&gt;3</title>
<path fill="none" stroke="red" stroke-width="0.119252" d="M1720.8,-74.9616C1716.71,-71.4495 1711.47,-67.693 1706.02,-65.6985 1567.03,-14.8596 1182.89,-71.8374 1041.02,-29.6985 1039.96,-29.3834 1038.9,-29.0132 1037.84,-28.6003"/>
<polygon fill="red" stroke="red" stroke-width="0.119252" points="1039.24,-25.3876 1028.73,-24.0666 1036.12,-31.6547 1039.24,-25.3876"/>
</g>
<!-- &#45;18 -->
<g id="node18" class="node"><title>&#45;18</title>
<polygon fill="lightgray" stroke="black" points="1790.52,-93.0833 1761.52,-93.0833 1761.52,-75.0833 1790.52,-75.0833 1790.52,-93.0833"/>
<text text-anchor="middle" x="1776.02" y="-81.8833" font-family="Times New Roman,serif" font-size="9.00">&#45;18</text>
</g>
<!-- &#45;18&#45;&gt;0 -->
<g id="edge68" class="edge"><title>&#45;18&#45;&gt;0</title>
<path fill="none" stroke="green" stroke-width="0.121939" d="M1767.81,-74.9451C1763.71,-71.4294 1758.48,-67.6746 1753.02,-65.6985 1594.04,-8.15304 1155.26,-77.2935 993.02,-29.6985 991.958,-29.387 990.893,-29.0197 989.835,-28.6092"/>
<polygon fill="green" stroke="green" stroke-width="0.121939" points="991.233,-25.3959 980.72,-24.0843 988.121,-31.6659 991.233,-25.3959"/>
</g>
<!-- &#45;18&#45;&gt;1 -->
<g id="edge69" class="edge"><title>&#45;18&#45;&gt;1</title>
<path fill="none" stroke="green" stroke-width="0.441651" d="M1767.78,-75.0062C1763.69,-71.5038 1758.45,-67.7427 1753.02,-65.6985 1627.99,-18.6677 1198.4,-15.75 1090.01,-15.7771"/>
<polygon fill="green" stroke="green" stroke-width="0.441651" points="1090,-12.2771 1080,-15.7887 1090.01,-19.2771 1090,-12.2771"/>
</g>
<!-- &#45;18&#45;&gt;2 -->
<g id="edge70" class="edge"><title>&#45;18&#45;&gt;2</title>
<path fill="none" stroke="red" stroke-width="0.326911" d="M1767.81,-74.9382C1763.72,-71.421 1758.48,-67.667 1753.02,-65.6985 1583.93,-4.76383 1117.56,-80.0508 945.02,-29.6985 943.958,-29.3885 942.892,-29.0225 941.834,-28.6129"/>
<polygon fill="red" stroke="red" stroke-width="0.326911" points="943.232,-25.3994 932.718,-24.0916 940.121,-31.6705 943.232,-25.3994"/>
</g>
<!-- &#45;18&#45;&gt;3 -->
<g id="edge71" class="edge"><title>&#45;18&#45;&gt;3</title>
<path fill="none" stroke="red" stroke-width="0.389539" d="M1767.8,-74.9529C1763.71,-71.4389 1758.48,-67.6833 1753.02,-65.6985 1604.14,-11.5419 1192.97,-74.5366 1041.02,-29.6985 1039.96,-29.3853 1038.89,-29.0167 1037.84,-28.605"/>
<polygon fill="red" stroke="red" stroke-width="0.389539" points="1039.24,-25.392 1028.72,-24.0759 1036.12,-31.6606 1039.24,-25.392"/>
</g>
<!-- &#45;19 -->
<g id="node19" class="node"><title>&#45;19</title>
<polygon fill="lightgray" stroke="black" points="1837.52,-93.0833 1808.52,-93.0833 1808.52,-75.0833 1837.52,-75.0833 1837.52,-93.0833"/>
<text text-anchor="middle" x="1823.02" y="-81.8833" font-family="Times New Roman,serif" font-size="9.00">&#45;19</text>
</g>
<!-- &#45;19&#45;&gt;0 -->
<g id="edge72" class="edge"><title>&#45;19&#45;&gt;0</title>
<path fill="none" stroke="red" stroke-width="0.341506" d="M1814.81,-74.9384C1810.72,-71.4212 1805.48,-67.6671 1800.02,-65.6985 1631.14,-4.83444 1165.34,-79.9934 993.02,-29.6985 991.958,-29.3885 990.893,-29.0224 989.834,-28.6128"/>
<polygon fill="red" stroke="red" stroke-width="0.341506" points="991.232,-25.3994 980.718,-24.0915 988.121,-31.6704 991.232,-25.3994"/>
</g>
<!-- &#45;19&#45;&gt;1 -->
<g id="edge73" class="edge"><title>&#45;19&#45;&gt;1</title>
<path fill="none" stroke="green" stroke-width="0.214599" d="M1814.79,-74.995C1810.69,-71.4901 1805.46,-67.7302 1800.02,-65.6985 1665.81,-15.5662 1203.57,-15.0016 1090.25,-15.642"/>
<polygon fill="green" stroke="green" stroke-width="0.214599" points="1090.09,-12.1429 1080.12,-15.7082 1090.14,-19.1427 1090.09,-12.1429"/>
</g>
<!-- &#45;19&#45;&gt;2 -->
<g id="edge74" class="edge"><title>&#45;19&#45;&gt;2</title>
<path fill="none" stroke="green" stroke-width="0.235816" d="M1814.81,-74.9322C1810.72,-71.4137 1805.48,-67.6603 1800.02,-65.6985 1621.04,-1.44492 1127.64,-82.7509 945.02,-29.6985 943.957,-29.3898 942.892,-29.0248 941.833,-28.6161"/>
<polygon fill="green" stroke="green" stroke-width="0.235816" points="943.23,-25.4025 932.716,-24.098 940.122,-31.6745 943.23,-25.4025"/>
</g>
<!-- &#45;19&#45;&gt;3 -->
<g id="edge75" class="edge"><title>&#45;19&#45;&gt;3</title>
<path fill="none" stroke="green" stroke-width="0.103089" d="M1814.81,-74.9453C1810.71,-71.4296 1805.48,-67.6748 1800.02,-65.6985 1641.25,-8.22365 1203.05,-77.2361 1041.02,-29.6985 1039.96,-29.387 1038.89,-29.0197 1037.83,-28.6091"/>
<polygon fill="green" stroke="green" stroke-width="0.103089" points="1039.23,-25.3959 1028.72,-24.0841 1036.12,-31.6658 1039.23,-25.3959"/>
</g>
<!-- &#45;20 -->
<g id="node20" class="node"><title>&#45;20</title>
<polygon fill="lightgray" stroke="black" points="1884.52,-93.0833 1855.52,-93.0833 1855.52,-75.0833 1884.52,-75.0833 1884.52,-93.0833"/>
<text text-anchor="middle" x="1870.02" y="-81.8833" font-family="Times New Roman,serif" font-size="9.00">&#45;20</text>
</g>
<!-- &#45;20&#45;&gt;0 -->
<g id="edge76" class="edge"><title>&#45;20&#45;&gt;0</title>
<path fill="none" stroke="green" stroke-width="0.155333" d="M1861.81,-74.9324C1857.72,-71.4138 1852.48,-67.6604 1847.02,-65.6985 1668.25,-1.51554 1175.42,-82.6934 993.02,-29.6985 991.957,-29.3898 990.892,-29.0248 989.833,-28.616"/>
<polygon fill="green" stroke="green" stroke-width="0.155333" points="991.23,-25.4024 980.716,-24.0979 988.122,-31.6744 991.23,-25.4024"/>
</g>
<!-- &#45;20&#45;&gt;1 -->
<g id="edge77" class="edge"><title>&#45;20&#45;&gt;1</title>
<path fill="none" stroke="red" stroke-width="0.431003" d="M1861.79,-74.985C1857.7,-71.4781 1852.46,-67.7191 1847.02,-65.6985 1703.55,-12.439 1208.23,-14.2918 1090.34,-15.522"/>
<polygon fill="red" stroke="red" stroke-width="0.431003" points="1090.1,-12.0244 1080.14,-15.6372 1090.18,-19.024 1090.1,-12.0244"/>
</g>
<!-- &#45;20&#45;&gt;2 -->
<g id="edge78" class="edge"><title>&#45;20&#45;&gt;2</title>
<path fill="none" stroke="red" stroke-width="0.164223" d="M1861.81,-74.9269C1857.72,-71.4071 1852.49,-67.6543 1847.02,-65.6985 1658.14,1.87425 1137.72,-85.4512 945.02,-29.6985 943.957,-29.391 942.891,-29.0269 941.832,-28.619"/>
<polygon fill="red" stroke="red" stroke-width="0.164223" points="943.229,-25.4052 932.714,-24.1037 940.122,-31.6781 943.229,-25.4052"/>
</g>
<!-- &#45;20&#45;&gt;3 -->
<g id="edge79" class="edge"><title>&#45;20&#45;&gt;3</title>
<path fill="none" stroke="red" stroke-width="0.172927" d="M1861.81,-74.9385C1857.72,-71.4213 1852.48,-67.6673 1847.02,-65.6985 1678.35,-4.90505 1213.13,-79.9359 1041.02,-29.6985 1039.96,-29.3885 1038.89,-29.0223 1037.83,-28.6127"/>
<polygon fill="red" stroke="red" stroke-width="0.172927" points="1039.23,-25.3993 1028.72,-24.0913 1036.12,-31.6703 1039.23,-25.3993"/>
</g>
<!-- &#45;21 -->
<g id="node21" class="node"><title>&#45;21</title>
<polygon fill="lightgray" stroke="black" points="137.52,-93.0833 108.52,-93.0833 108.52,-75.0833 137.52,-75.0833 137.52,-93.0833"/>
<text text-anchor="middle" x="123.02" y="-81.8833" font-family="Times New Roman,serif" font-size="9.00">&#45;21</text>
</g>
<!-- &#45;21&#45;&gt;0 -->
<g id="edge80" class="edge"><title>&#45;21&#45;&gt;0</title>
<path fill="none" stroke="red" stroke-width="0.269218" d="M131.232,-74.9395C135.323,-71.4225 140.558,-67.6683 146.02,-65.6985 313.214,-5.39933 774.414,-79.5338 945.02,-29.6985 946.082,-29.3882 947.147,-29.022 948.205,-28.6122"/>
<polygon fill="red" stroke="red" stroke-width="0.269218" points="949.918,-31.6697 957.321,-24.0903 946.807,-25.3988 949.918,-31.6697"/>
</g>
<!-- &#45;21&#45;&gt;1 -->
<g id="edge81" class="edge"><title>&#45;21&#45;&gt;1</title>
<path fill="none" stroke="green" stroke-width="0.313726" d="M131.227,-74.9276C135.318,-71.4081 140.553,-67.6552 146.02,-65.6985 333.426,1.37989 849.821,-85.049 1041.02,-29.6985 1042.08,-29.3908 1043.15,-29.0266 1044.21,-28.6186"/>
<polygon fill="green" stroke="green" stroke-width="0.313726" points="1045.92,-31.6776 1053.32,-24.1029 1042.81,-25.4048 1045.92,-31.6776"/>
</g>
<!-- &#45;21&#45;&gt;2 -->
<g id="edge82" class="edge"><title>&#45;21&#45;&gt;2</title>
<path fill="none" stroke="green" stroke-width="0.336955" d="M131.249,-74.9864C135.344,-71.4798 140.577,-67.7207 146.02,-65.6985 288.198,-12.873 779.09,-14.3969 895.921,-15.5411"/>
<polygon fill="green" stroke="green" stroke-width="0.336955" points="895.999,-19.042 906.036,-15.6488 896.074,-12.0424 895.999,-19.042"/>
</g>
<!-- &#45;21&#45;&gt;3 -->
<g id="edge83" class="edge"><title>&#45;21&#45;&gt;3</title>
<path fill="none" stroke="green" stroke-width="0.378193" d="M131.229,-74.9332C135.321,-71.4149 140.555,-67.6614 146.02,-65.6985 323.32,-2.00986 812.117,-82.2913 993.02,-29.6985 994.082,-29.3896 995.147,-29.0244 996.206,-28.6156"/>
<polygon fill="green" stroke="green" stroke-width="0.378193" points="997.918,-31.6739 1005.32,-24.097 994.809,-25.402 997.918,-31.6739"/>
</g>
<!-- &#45;22 -->
<g id="node22" class="node"><title>&#45;22</title>
<polygon fill="lightgray" stroke="black" points="184.52,-93.0833 155.52,-93.0833 155.52,-75.0833 184.52,-75.0833 184.52,-93.0833"/>
<text text-anchor="middle" x="170.02" y="-81.8833" font-family="Times New Roman,serif" font-size="9.00">&#45;22</text>
</g>
<!-- &#45;22&#45;&gt;0 -->
<g id="edge84" class="edge"><title>&#45;22&#45;&gt;0</title>
<path fill="none" stroke="red" stroke-width="0.236947" d="M178.649,-74.9447C182.932,-71.4288 188.388,-67.6741 194.02,-65.6985 351.68,-10.3897 784.709,-76.7766 945.02,-29.6985 946.081,-29.3867 947.146,-29.0192 948.204,-28.6084"/>
<polygon fill="red" stroke="red" stroke-width="0.236947" points="949.919,-31.6649 957.319,-24.0828 946.806,-25.3952 949.919,-31.6649"/>
</g>
<!-- &#45;22&#45;&gt;1 -->
<g id="edge85" class="edge"><title>&#45;22&#45;&gt;1</title>
<path fill="none" stroke="green" stroke-width="0.263041" d="M178.645,-74.931C182.926,-71.4121 188.383,-67.6589 194.02,-65.6985 371.959,-3.81703 860.117,-82.2913 1041.02,-29.6985 1042.08,-29.3896 1043.15,-29.0244 1044.21,-28.6156"/>
<polygon fill="green" stroke="green" stroke-width="0.263041" points="1045.92,-31.6739 1053.32,-24.097 1042.81,-25.402 1045.92,-31.6739"/>
</g>
<!-- &#45;22&#45;&gt;2 -->
<g id="edge86" class="edge"><title>&#45;22&#45;&gt;2</title>
<path fill="none" stroke="red" stroke-width="0.191824" d="M178.668,-74.9965C182.955,-71.492 188.409,-67.7319 194.02,-65.6985 327.258,-17.4131 784.094,-15.4628 896.085,-15.7284"/>
<polygon fill="red" stroke="red" stroke-width="0.191824" points="896.09,-19.2283 906.101,-15.7606 896.112,-12.2283 896.09,-19.2283"/>
</g>
<!-- &#45;22&#45;&gt;3 -->
<g id="edge87" class="edge"><title>&#45;22&#45;&gt;3</title>
<path fill="none" stroke="green" stroke-width="0.245852" d="M178.647,-74.9374C182.929,-71.42 188.385,-67.666 194.02,-65.6985 361.819,-7.10351 822.414,-79.5338 993.02,-29.6985 994.082,-29.3882 995.147,-29.022 996.205,-28.6122"/>
<polygon fill="green" stroke="green" stroke-width="0.245852" points="997.918,-31.6697 1005.32,-24.0903 994.807,-25.3988 997.918,-31.6697"/>
</g>
<!-- &#45;23 -->
<g id="node23" class="node"><title>&#45;23</title>
<polygon fill="lightgray" stroke="black" points="231.52,-93.0833 202.52,-93.0833 202.52,-75.0833 231.52,-75.0833 231.52,-93.0833"/>
<text text-anchor="middle" x="217.02" y="-81.8833" font-family="Times New Roman,serif" font-size="9.00">&#45;23</text>
</g>
<!-- &#45;23&#45;&gt;0 -->
<g id="edge88" class="edge"><title>&#45;23&#45;&gt;0</title>
<path fill="none" stroke="red" stroke-width="0.142586" d="M225.652,-74.9527C229.936,-71.4387 235.391,-67.6831 241.02,-65.6985 388.754,-13.607 794.788,-74.0771 945.02,-29.6985 946.081,-29.385 947.145,-29.0161 948.203,-28.6042"/>
<polygon fill="red" stroke="red" stroke-width="0.142586" points="949.919,-31.6597 957.316,-24.0745 946.804,-25.3913 949.919,-31.6597"/>
</g>
<!-- &#45;23&#45;&gt;1 -->
<g id="edge89" class="edge"><title>&#45;23&#45;&gt;1</title>
<path fill="none" stroke="red" stroke-width="0.390375" d="M225.647,-74.9373C229.929,-71.4198 235.385,-67.6659 241.02,-65.6985 409.03,-7.03504 870.199,-79.5912 1041.02,-29.6985 1042.08,-29.3883 1043.15,-29.022 1044.21,-28.6123"/>
<polygon fill="red" stroke="red" stroke-width="0.390375" points="1045.92,-31.6697 1053.32,-24.0905 1042.81,-25.3989 1045.92,-31.6697"/>
</g>
<!-- &#45;23&#45;&gt;2 -->
<g id="edge90" class="edge"><title>&#45;23&#45;&gt;2</title>
<path fill="none" stroke="green" stroke-width="0.23175" d="M225.672,-75.0084C229.96,-71.5065 235.413,-67.7451 241.02,-65.6985 364.791,-20.5136 787.533,-16.2181 895.666,-15.8661"/>
<polygon fill="green" stroke="green" stroke-width="0.23175" points="895.946,-19.3656 905.937,-15.8419 895.929,-12.3656 895.946,-19.3656"/>
</g>
<!-- &#45;23&#45;&gt;3 -->
<g id="edge91" class="edge"><title>&#45;23&#45;&gt;3</title>
<path fill="none" stroke="red" stroke-width="0.266407" d="M225.649,-74.9445C229.932,-71.4286 235.388,-67.6739 241.02,-65.6985 398.891,-10.3212 832.494,-76.834 993.02,-29.6985 994.081,-29.3868 995.146,-29.0193 996.204,-28.6085"/>
<polygon fill="red" stroke="red" stroke-width="0.266407" points="997.919,-31.665 1005.32,-24.083 994.806,-25.3953 997.919,-31.665"/>
</g>
<!-- &#45;24 -->
<g id="node24" class="node"><title>&#45;24</title>
<polygon fill="lightgray" stroke="black" points="278.52,-93.0833 249.52,-93.0833 249.52,-75.0833 278.52,-75.0833 278.52,-93.0833"/>
<text text-anchor="middle" x="264.02" y="-81.8833" font-family="Times New Roman,serif" font-size="9.00">&#45;24</text>
</g>
<!-- &#45;24&#45;&gt;0 -->
<g id="edge92" class="edge"><title>&#45;24&#45;&gt;0</title>
<path fill="none" stroke="green" stroke-width="0.212162" d="M272.655,-74.9619C276.94,-71.4499 282.395,-67.6934 288.02,-65.6985 563.637,32.0508 664.714,-113.058 945.02,-29.6985 946.08,-29.3831 947.144,-29.0126 948.202,-28.5994"/>
<polygon fill="green" stroke="green" stroke-width="0.212162" points="949.92,-31.6537 957.314,-24.0649 946.802,-25.3868 949.92,-31.6537"/>
</g>
<!-- &#45;24&#45;&gt;1 -->
<g id="edge93" class="edge"><title>&#45;24&#45;&gt;1</title>
<path fill="none" stroke="red" stroke-width="0.165675" d="M272.649,-74.9443C276.932,-71.4284 282.388,-67.6738 288.02,-65.6985 446.103,-10.2528 880.28,-76.8914 1041.02,-29.6985 1042.08,-29.3868 1043.15,-29.0193 1044.2,-28.6086"/>
<polygon fill="red" stroke="red" stroke-width="0.165675" points="1045.92,-31.6651 1053.32,-24.0831 1042.81,-25.3954 1045.92,-31.6651"/>
</g>
<!-- &#45;24&#45;&gt;2 -->
<g id="edge94" class="edge"><title>&#45;24&#45;&gt;2</title>
<path fill="none" stroke="green" stroke-width="0.23838" d="M272.677,-75.022C276.966,-71.5231 282.419,-67.7603 288.02,-65.6985 402.679,-23.4883 793.392,-17.0016 896.112,-16.0209"/>
<polygon fill="green" stroke="green" stroke-width="0.23838" points="896.197,-19.5204 906.166,-15.9342 896.137,-12.5207 896.197,-19.5204"/>
</g>
<!-- &#45;24&#45;&gt;3 -->
<g id="edge95" class="edge"><title>&#45;24&#45;&gt;3</title>
<path fill="none" stroke="red" stroke-width="0.431412" d="M272.652,-74.9525C276.936,-71.4384 282.391,-67.6829 288.02,-65.6985 435.965,-13.5385 842.574,-74.1345 993.02,-29.6985 994.081,-29.3851 995.145,-29.0162 996.203,-28.6043"/>
<polygon fill="red" stroke="red" stroke-width="0.431412" points="997.919,-31.6598 1005.32,-24.0746 994.804,-25.3914 997.919,-31.6598"/>
</g>
<!-- &#45;25 -->
<g id="node25" class="node"><title>&#45;25</title>
<polygon fill="lightgray" stroke="black" points="325.52,-93.0833 296.52,-93.0833 296.52,-75.0833 325.52,-75.0833 325.52,-93.0833"/>
<text text-anchor="middle" x="311.02" y="-81.8833" font-family="Times New Roman,serif" font-size="9.00">&#45;25</text>
</g>
<!-- &#45;25&#45;&gt;0 -->
<g id="edge96" class="edge"><title>&#45;25&#45;&gt;0</title>
<path fill="none" stroke="red" stroke-width="0.128617" d="M319.659,-74.9726C323.944,-71.4628 329.399,-67.7052 335.02,-65.6985 590.79,25.6182 684.867,-107.66 945.02,-29.6985 946.08,-29.3809 947.143,-29.0085 948.2,-28.5939"/>
<polygon fill="red" stroke="red" stroke-width="0.128617" points="949.921,-31.6467 957.31,-24.0539 946.799,-25.3815 949.921,-31.6467"/>
</g>
<!-- &#45;25&#45;&gt;1 -->
<g id="edge97" class="edge"><title>&#45;25&#45;&gt;1</title>
<path fill="none" stroke="red" stroke-width="0.168032" d="M319.652,-74.9524C323.936,-71.4382 329.391,-67.6827 335.02,-65.6985 483.176,-13.4701 890.36,-74.192 1041.02,-29.6985 1042.08,-29.3851 1043.14,-29.0162 1044.2,-28.6044"/>
<polygon fill="red" stroke="red" stroke-width="0.168032" points="1045.92,-31.6599 1053.32,-24.0748 1042.8,-25.3915 1045.92,-31.6599"/>
</g>
<!-- &#45;25&#45;&gt;2 -->
<g id="edge98" class="edge"><title>&#45;25&#45;&gt;2</title>
<path fill="none" stroke="red" stroke-width="0.475597" d="M319.683,-75.0377C323.973,-71.5423 329.425,-67.7779 335.02,-65.6985 440.306,-26.5632 797.471,-17.8762 895.787,-16.2074"/>
<polygon fill="red" stroke="red" stroke-width="0.475597" points="896.029,-19.704 905.971,-16.0443 895.917,-12.7049 896.029,-19.704"/>
</g>
<!-- &#45;25&#45;&gt;3 -->
<g id="edge99" class="edge"><title>&#45;25&#45;&gt;3</title>
<path fill="none" stroke="green" stroke-width="0.298132" d="M319.655,-74.9617C323.94,-71.4496 329.395,-67.6931 335.02,-65.6985 611.06,32.1876 712.285,-113.172 993.02,-29.6985 994.08,-29.3831 995.144,-29.0127 996.202,-28.5995"/>
<polygon fill="green" stroke="green" stroke-width="0.298132" points="997.92,-31.6538 1005.31,-24.0651 994.802,-25.3869 997.92,-31.6538"/>
</g>
<!-- &#45;26 -->
<g id="node26" class="node"><title>&#45;26</title>
<polygon fill="lightgray" stroke="black" points="372.52,-93.0833 343.52,-93.0833 343.52,-75.0833 372.52,-75.0833 372.52,-93.0833"/>
<text text-anchor="middle" x="358.02" y="-81.8833" font-family="Times New Roman,serif" font-size="9.00">&#45;26</text>
</g>
<!-- &#45;26&#45;&gt;0 -->
<g id="edge100" class="edge"><title>&#45;26&#45;&gt;0</title>
<path fill="none" stroke="green" stroke-width="0.44687" d="M366.664,-74.9849C370.95,-71.4779 376.404,-67.719 382.02,-65.6985 617.947,19.187 705.017,-102.264 945.02,-29.6985 946.079,-29.3783 947.141,-29.0038 948.198,-28.5874"/>
<polygon fill="green" stroke="green" stroke-width="0.44687" points="949.922,-31.6387 957.306,-24.0411 946.796,-25.3755 949.922,-31.6387"/>
</g>
<!-- &#45;26&#45;&gt;1 -->
<g id="edge101" class="edge"><title>&#45;26&#45;&gt;1</title>
<path fill="none" stroke="red" stroke-width="0.40024" d="M366.655,-74.9615C370.94,-71.4494 376.395,-67.6929 382.02,-65.6985 658.482,32.3245 759.856,-113.287 1041.02,-29.6985 1042.08,-29.3832 1043.14,-29.0127 1044.2,-28.5996"/>
<polygon fill="red" stroke="red" stroke-width="0.40024" points="1045.92,-31.6539 1053.31,-24.0654 1042.8,-25.387 1045.92,-31.6539"/>
</g>
<!-- &#45;26&#45;&gt;2 -->
<g id="edge102" class="edge"><title>&#45;26&#45;&gt;2</title>
<path fill="none" stroke="green" stroke-width="0.247487" d="M366.69,-75.0562C370.982,-71.5648 376.433,-67.7984 382.02,-65.6985 478.173,-29.5548 803.167,-18.7892 896.042,-16.4156"/>
<polygon fill="green" stroke="green" stroke-width="0.247487" points="896.275,-19.9111 906.187,-16.1666 896.104,-12.9132 896.275,-19.9111"/>
</g>
<!-- &#45;26&#45;&gt;3 -->
<g id="edge103" class="edge"><title>&#45;26&#45;&gt;3</title>
<path fill="none" stroke="green" stroke-width="0.239249" d="M366.659,-74.9723C370.944,-71.4625 376.399,-67.7049 382.02,-65.6985 638.212,25.755 732.439,-107.775 993.02,-29.6985 994.08,-29.3809 995.143,-29.0086 996.2,-28.594"/>
<polygon fill="green" stroke="green" stroke-width="0.239249" points="997.921,-31.6469 1005.31,-24.0542 994.799,-25.3817 997.921,-31.6469"/>
</g>
<!-- &#45;27 -->
<g id="node27" class="node"><title>&#45;27</title>
<polygon fill="lightgray" stroke="black" points="419.52,-93.0833 390.52,-93.0833 390.52,-75.0833 419.52,-75.0833 419.52,-93.0833"/>
<text text-anchor="middle" x="405.02" y="-81.8833" font-family="Times New Roman,serif" font-size="9.00">&#45;27</text>
</g>
<!-- &#45;27&#45;&gt;0 -->
<g id="edge104" class="edge"><title>&#45;27&#45;&gt;0</title>
<path fill="none" stroke="red" stroke-width="0.356032" d="M413.669,-74.9995C417.956,-71.4957 423.41,-67.7353 429.02,-65.6985 645.109,12.7576 725.161,-96.87 945.02,-29.6985 946.078,-29.3752 947.14,-28.9982 948.196,-28.5798"/>
<polygon fill="red" stroke="red" stroke-width="0.356032" points="949.923,-31.6291 957.302,-24.026 946.792,-25.3683 949.923,-31.6291"/>
</g>
<!-- &#45;27&#45;&gt;1 -->
<g id="edge105" class="edge"><title>&#45;27&#45;&gt;1</title>
<path fill="none" stroke="red" stroke-width="0.841548" d="M413.659,-74.9721C417.944,-71.4622 423.399,-67.7047 429.02,-65.6985 685.635,25.8919 780.01,-107.89 1041.02,-29.6985 1042.08,-29.381 1043.14,-29.0087 1044.2,-28.5941"/>
<polygon fill="red" stroke="red" stroke-width="0.841548" points="1045.92,-31.6471 1053.31,-24.0544 1042.8,-25.3818 1045.92,-31.6471"/>
</g>
<!-- &#45;27&#45;&gt;2 -->
<g id="edge106" class="edge"><title>&#45;27&#45;&gt;2</title>
<path fill="none" stroke="red" stroke-width="0.164263" d="M413.698,-75.0781C417.992,-71.5915 423.442,-67.8229 429.02,-65.6985 515.962,-32.5821 808.328,-19.8098 895.978,-16.6706"/>
<polygon fill="red" stroke="red" stroke-width="0.164263" points="896.196,-20.1652 906.069,-16.3198 895.953,-13.1694 896.196,-20.1652"/>
</g>
<!-- &#45;27&#45;&gt;3 -->
<g id="edge107" class="edge"><title>&#45;27&#45;&gt;3</title>
<path fill="none" stroke="red" stroke-width="0.179759" d="M413.664,-74.9846C417.95,-71.4776 423.404,-67.7187 429.02,-65.6985 665.369,19.3238 752.588,-102.379 993.02,-29.6985 994.079,-29.3783 995.141,-29.0039 996.198,-28.5876"/>
<polygon fill="red" stroke="red" stroke-width="0.179759" points="997.922,-31.6389 1005.31,-24.0414 994.796,-25.3756 997.922,-31.6389"/>
</g>
<!-- &#45;28 -->
<g id="node28" class="node"><title>&#45;28</title>
<polygon fill="lightgray" stroke="black" points="466.52,-93.0833 437.52,-93.0833 437.52,-75.0833 466.52,-75.0833 466.52,-93.0833"/>
<text text-anchor="middle" x="452.02" y="-81.8833" font-family="Times New Roman,serif" font-size="9.00">&#45;28</text>
</g>
<!-- &#45;28&#45;&gt;0 -->
<g id="edge108" class="edge"><title>&#45;28&#45;&gt;0</title>
<path fill="none" stroke="green" stroke-width="0.451153" d="M460.675,-75.017C464.964,-71.517 470.417,-67.7548 476.02,-65.6985 672.277,6.33058 745.299,-91.4776 945.02,-29.6985 946.077,-29.3715 947.137,-28.9915 948.193,-28.5706"/>
<polygon fill="green" stroke="green" stroke-width="0.451153" points="949.925,-31.6177 957.296,-24.0079 946.788,-25.3598 949.925,-31.6177"/>
</g>
<!-- &#45;28&#45;&gt;1 -->
<g id="edge109" class="edge"><title>&#45;28&#45;&gt;1</title>
<path fill="none" stroke="green" stroke-width="0.455371" d="M460.663,-74.9844C464.949,-71.4772 470.404,-67.7184 476.02,-65.6985 712.791,19.4606 800.16,-102.494 1041.02,-29.6985 1042.08,-29.3784 1043.14,-29.004 1044.2,-28.5877"/>
<polygon fill="green" stroke="green" stroke-width="0.455371" points="1045.92,-31.639 1053.31,-24.0417 1042.8,-25.3758 1045.92,-31.639"/>
</g>
<!-- &#45;28&#45;&gt;2 -->
<g id="edge110" class="edge"><title>&#45;28&#45;&gt;2</title>
<path fill="none" stroke="red" stroke-width="0.436794" d="M461.157,-74.7435C465.38,-71.3656 470.646,-67.7781 476.02,-65.6985 553.826,-35.5898 813.972,-20.9272 896.013,-16.9749"/>
<polygon fill="red" stroke="red" stroke-width="0.436794" points="896.337,-20.4636 906.162,-16.4973 896.008,-13.4713 896.337,-20.4636"/>
</g>
<!-- &#45;28&#45;&gt;3 -->
<g id="edge111" class="edge"><title>&#45;28&#45;&gt;3</title>
<path fill="none" stroke="green" stroke-width="0.220124" d="M460.669,-74.9992C464.956,-71.4953 470.41,-67.7349 476.02,-65.6985 692.531,12.8944 772.733,-96.9848 993.02,-29.6985 994.078,-29.3753 995.14,-28.9983 996.196,-28.58"/>
<polygon fill="green" stroke="green" stroke-width="0.220124" points="997.923,-31.6294 1005.3,-24.0264 994.792,-25.3685 997.923,-31.6294"/>
</g>
<!-- &#45;29 -->
<g id="node29" class="node"><title>&#45;29</title>
<polygon fill="lightgray" stroke="black" points="513.52,-93.0833 484.52,-93.0833 484.52,-75.0833 513.52,-75.0833 513.52,-93.0833"/>
<text text-anchor="middle" x="499.02" y="-81.8833" font-family="Times New Roman,serif" font-size="9.00">&#45;29</text>
</g>
<!-- &#45;29&#45;&gt;0 -->
<g id="edge112" class="edge"><title>&#45;29&#45;&gt;0</title>
<path fill="none" stroke="red" stroke-width="0.299106" d="M507.683,-75.0383C511.974,-71.543 517.426,-67.7785 523.02,-65.6985 699.454,-0.0932284 765.428,-86.088 945.02,-29.6985 946.075,-29.367 947.135,-28.9833 948.189,-28.5595"/>
<polygon fill="red" stroke="red" stroke-width="0.299106" points="949.926,-31.6038 957.289,-23.9858 946.783,-25.3494 949.926,-31.6038"/>
</g>
<!-- &#45;29&#45;&gt;1 -->
<g id="edge113" class="edge"><title>&#45;29&#45;&gt;1</title>
<path fill="none" stroke="red" stroke-width="0.20374" d="M507.669,-74.9988C511.956,-71.4949 517.41,-67.7345 523.02,-65.6985 739.953,13.0311 820.304,-97.0995 1041.02,-29.6985 1042.08,-29.3753 1043.14,-28.9985 1044.2,-28.5801"/>
<polygon fill="red" stroke="red" stroke-width="0.20374" points="1045.92,-31.6296 1053.3,-24.0267 1042.79,-25.3687 1045.92,-31.6296"/>
</g>
<!-- &#45;29&#45;&gt;2 -->
<g id="edge114" class="edge"><title>&#45;29&#45;&gt;2</title>
<path fill="none" stroke="green" stroke-width="0.127431" d="M508.17,-74.7767C512.396,-71.405 517.659,-67.8131 523.02,-65.6985 591.708,-38.6017 819.719,-22.19 895.95,-17.3554"/>
<polygon fill="green" stroke="green" stroke-width="0.127431" points="896.296,-20.8408 906.059,-16.7262 895.861,-13.8543 896.296,-20.8408"/>
</g>
<!-- &#45;29&#45;&gt;3 -->
<g id="edge115" class="edge"><title>&#45;29&#45;&gt;3</title>
<path fill="none" stroke="red" stroke-width="0.208836" d="M507.675,-75.0166C511.964,-71.5165 517.417,-67.7543 523.02,-65.6985 719.699,6.4673 792.87,-91.5923 993.02,-29.6985 994.077,-29.3716 995.138,-28.9917 996.193,-28.5709"/>
<polygon fill="red" stroke="red" stroke-width="0.208836" points="997.925,-31.618 1005.3,-24.0083 994.788,-25.36 997.925,-31.618"/>
</g>
<!-- &#45;30 -->
<g id="node30" class="node"><title>&#45;30</title>
<polygon fill="lightgray" stroke="black" points="560.52,-93.0833 531.52,-93.0833 531.52,-75.0833 560.52,-75.0833 560.52,-93.0833"/>
<text text-anchor="middle" x="546.02" y="-81.8833" font-family="Times New Roman,serif" font-size="9.00">&#45;30</text>
</g>
<!-- &#45;30&#45;&gt;0 -->
<g id="edge116" class="edge"><title>&#45;30&#45;&gt;0</title>
<path fill="none" stroke="red" stroke-width="0.32023" d="M554.693,-75.0649C558.986,-71.5754 564.437,-67.8082 570.02,-65.6985 726.643,-6.5126 785.544,-80.7021 945.02,-29.6985 946.074,-29.3614 947.132,-28.9732 948.185,-28.5456"/>
<polygon fill="red" stroke="red" stroke-width="0.32023" points="949.928,-31.5865 957.281,-23.9583 946.776,-25.3364 949.928,-31.5865"/>
</g>
<!-- &#45;30&#45;&gt;1 -->
<g id="edge117" class="edge"><title>&#45;30&#45;&gt;1</title>
<path fill="none" stroke="green" stroke-width="0.132955" d="M554.675,-75.0162C558.964,-71.516 564.417,-67.7539 570.02,-65.6985 767.121,6.60402 840.442,-91.707 1041.02,-29.6985 1042.08,-29.3717 1043.14,-28.9918 1044.19,-28.5711"/>
<polygon fill="green" stroke="green" stroke-width="0.132955" points="1045.92,-31.6183 1053.3,-24.0087 1042.79,-25.3602 1045.92,-31.6183"/>
</g>
<!-- &#45;30&#45;&gt;2 -->
<g id="edge118" class="edge"><title>&#45;30&#45;&gt;2</title>
<path fill="none" stroke="green" stroke-width="0.420465" d="M555.187,-74.8186C559.415,-71.4546 564.677,-67.8572 570.02,-65.6985 685.017,-19.235 836.458,-15.0323 895.715,-15.3481"/>
<polygon fill="green" stroke="green" stroke-width="0.420465" points="895.952,-18.8507 905.988,-15.4554 896.026,-11.851 895.952,-18.8507"/>
</g>
<!-- &#45;30&#45;&gt;3 -->
<g id="edge119" class="edge"><title>&#45;30&#45;&gt;3</title>
<path fill="none" stroke="red" stroke-width="0.255459" d="M554.683,-75.0378C558.973,-71.5424 564.425,-67.778 570.02,-65.6985 746.876,0.0434076 812.999,-86.2026 993.02,-29.6985 994.075,-29.3671 995.135,-28.9835 996.19,-28.5598"/>
<polygon fill="red" stroke="red" stroke-width="0.255459" points="997.926,-31.6042 1005.29,-23.9863 994.783,-25.3496 997.926,-31.6042"/>
</g>
<!-- &#45;31 -->
<g id="node31" class="node"><title>&#45;31</title>
<polygon fill="lightgray" stroke="black" points="607.52,-93.0833 578.52,-93.0833 578.52,-75.0833 607.52,-75.0833 607.52,-93.0833"/>
<text text-anchor="middle" x="593.02" y="-81.8833" font-family="Times New Roman,serif" font-size="9.00">&#45;31</text>
</g>
<!-- &#45;31&#45;&gt;0 -->
<g id="edge120" class="edge"><title>&#45;31&#45;&gt;0</title>
<path fill="none" stroke="red" stroke-width="0.186183" d="M602.155,-74.7378C606.378,-71.3588 611.643,-67.7721 617.02,-65.6985 753.849,-12.9256 805.644,-75.3218 945.02,-29.6985 945.9,-29.4104 946.783,-29.0873 947.664,-28.7362"/>
<polygon fill="red" stroke="red" stroke-width="0.186183" points="949.375,-31.7944 956.776,-24.2126 946.263,-25.5246 949.375,-31.7944"/>
</g>
<!-- &#45;31&#45;&gt;1 -->
<g id="edge121" class="edge"><title>&#45;31&#45;&gt;1</title>
<path fill="none" stroke="red" stroke-width="0.251338" d="M601.683,-75.0373C605.973,-71.5418 611.425,-67.7774 617.02,-65.6985 794.297,0.180046 860.571,-86.3172 1041.02,-29.6985 1042.08,-29.3672 1043.14,-28.9837 1044.19,-28.56"/>
<polygon fill="red" stroke="red" stroke-width="0.251338" points="1045.93,-31.6045 1053.29,-23.9869 1042.78,-25.3498 1045.93,-31.6045"/>
</g>
<!-- &#45;31&#45;&gt;2 -->
<g id="edge122" class="edge"><title>&#45;31&#45;&gt;2</title>
<path fill="none" stroke="green" stroke-width="0.302315" d="M602.209,-74.8729C606.442,-71.5189 611.7,-67.9144 617.02,-65.6985 714.504,-25.0892 842.462,-17.4683 895.889,-16.1065"/>
<polygon fill="green" stroke="green" stroke-width="0.302315" points="896.194,-19.6012 906.121,-15.9013 896.053,-12.6027 896.194,-19.6012"/>
</g>
<!-- &#45;31&#45;&gt;3 -->
<g id="edge123" class="edge"><title>&#45;31&#45;&gt;3</title>
<path fill="none" stroke="green" stroke-width="0.238917" d="M601.693,-75.0643C605.985,-71.5747 611.437,-67.8075 617.02,-65.6985 774.064,-6.37608 833.116,-80.8167 993.02,-29.6985 994.074,-29.3616 995.132,-28.9734 996.185,-28.5459"/>
<polygon fill="green" stroke="green" stroke-width="0.238917" points="997.928,-31.5869 1005.28,-23.9589 994.776,-25.3367 997.928,-31.5869"/>
</g>
<!-- &#45;32 -->
<g id="node32" class="node"><title>&#45;32</title>
<polygon fill="lightgray" stroke="black" points="654.52,-93.0833 625.52,-93.0833 625.52,-75.0833 654.52,-75.0833 654.52,-93.0833"/>
<text text-anchor="middle" x="640.02" y="-81.8833" font-family="Times New Roman,serif" font-size="9.00">&#45;32</text>
</g>
<!-- &#45;32&#45;&gt;0 -->
<g id="edge124" class="edge"><title>&#45;32&#45;&gt;0</title>
<path fill="none" stroke="green" stroke-width="0.26835" d="M649.173,-74.7839C653.399,-71.4135 658.662,-67.8206 664.02,-65.6985 781.08,-19.3288 825.717,-69.9499 945.02,-29.6985 945.897,-29.4024 946.778,-29.0726 947.658,-28.7158"/>
<polygon fill="green" stroke="green" stroke-width="0.26835" points="949.38,-31.7676 956.76,-24.1656 946.251,-25.5063 949.38,-31.7676"/>
</g>
<!-- &#45;32&#45;&gt;1 -->
<g id="edge125" class="edge"><title>&#45;32&#45;&gt;1</title>
<path fill="none" stroke="red" stroke-width="0.237984" d="M648.693,-75.0637C652.985,-71.5739 658.436,-67.8068 664.02,-65.6985 821.486,-6.23955 880.689,-80.9312 1041.02,-29.6985 1042.07,-29.3617 1043.13,-28.9736 1044.19,-28.5463"/>
<polygon fill="red" stroke="red" stroke-width="0.237984" points="1045.93,-31.5873 1053.28,-23.9596 1042.78,-25.337 1045.93,-31.5873"/>
</g>
<!-- &#45;32&#45;&gt;2 -->
<g id="edge126" class="edge"><title>&#45;32&#45;&gt;2</title>
<path fill="none" stroke="red" stroke-width="0.111034" d="M649.24,-74.946C653.479,-71.6056 658.733,-67.9914 664.02,-65.6985 744.119,-30.9574 848.719,-20.2857 895.948,-17.1227"/>
<polygon fill="red" stroke="red" stroke-width="0.111034" points="896.39,-20.6022 906.158,-16.4982 895.963,-13.6153 896.39,-20.6022"/>
</g>
<!-- &#45;32&#45;&gt;3 -->
<g id="edge127" class="edge"><title>&#45;32&#45;&gt;3</title>
<path fill="none" stroke="red" stroke-width="0.164635" d="M649.154,-74.737C653.377,-71.3578 658.643,-67.7712 664.02,-65.6985 801.27,-12.7892 853.216,-75.4362 993.02,-29.6985 993.9,-29.4105 994.783,-29.0876 995.665,-28.7365"/>
<polygon fill="red" stroke="red" stroke-width="0.164635" points="997.375,-31.7949 1004.78,-24.2134 994.263,-25.525 997.375,-31.7949"/>
</g>
<!-- &#45;33 -->
<g id="node33" class="node"><title>&#45;33</title>
<polygon fill="lightgray" stroke="black" points="701.52,-93.0833 672.52,-93.0833 672.52,-75.0833 701.52,-75.0833 701.52,-93.0833"/>
<text text-anchor="middle" x="687.02" y="-81.8833" font-family="Times New Roman,serif" font-size="9.00">&#45;33</text>
</g>
<!-- &#45;33&#45;&gt;0 -->
<g id="edge128" class="edge"><title>&#45;33&#45;&gt;0</title>
<path fill="none" stroke="red" stroke-width="0.356686" d="M696.198,-74.8479C700.429,-71.4893 705.689,-67.888 711.02,-65.6985 808.351,-25.716 845.75,-64.5919 945.02,-29.6985 945.893,-29.3914 946.771,-29.0522 947.648,-28.6874"/>
<polygon fill="red" stroke="red" stroke-width="0.356686" points="949.387,-31.7303 956.738,-24.1004 946.233,-25.481 949.387,-31.7303"/>
</g>
<!-- &#45;33&#45;&gt;1 -->
<g id="edge129" class="edge"><title>&#45;33&#45;&gt;1</title>
<path fill="none" stroke="red" stroke-width="0.18216" d="M696.154,-74.7361C700.377,-71.3568 705.643,-67.7703 711.02,-65.6985 848.691,-12.6528 900.789,-75.5506 1041.02,-29.6985 1041.9,-29.4107 1042.78,-29.0879 1043.66,-28.7369"/>
<polygon fill="red" stroke="red" stroke-width="0.18216" points="1045.38,-31.7954 1052.78,-24.2143 1042.26,-25.5253 1045.38,-31.7954"/>
</g>
<!-- &#45;33&#45;&gt;2 -->
<g id="edge130" class="edge"><title>&#45;33&#45;&gt;2</title>
<path fill="none" stroke="red" stroke-width="0.110375" d="M696.286,-75.0496C700.533,-71.7283 705.782,-68.1005 711.02,-65.6985 774.2,-36.7245 856.076,-23.5667 896.383,-18.5168"/>
<polygon fill="red" stroke="red" stroke-width="0.110375" points="896.86,-21.9849 906.375,-17.3263 896.031,-15.0341 896.86,-21.9849"/>
</g>
<!-- &#45;33&#45;&gt;3 -->
<g id="edge131" class="edge"><title>&#45;33&#45;&gt;3</title>
<path fill="none" stroke="green" stroke-width="0.198724" stroke-dasharray="1,5" d="M696.172,-74.7828C700.398,-71.4121 705.662,-67.8194 711.02,-65.6985 828.5,-19.1927 873.291,-70.0641 993.02,-29.6985 993.897,-29.4026 994.778,-29.073 995.658,-28.7163"/>
<polygon fill="green" stroke="green" stroke-width="0.198724" points="997.38,-31.7682 1004.76,-24.1668 994.251,-25.5067 997.38,-31.7682"/>
</g>
<!-- &#45;34 -->
<g id="node34" class="node"><title>&#45;34</title>
<polygon fill="lightgray" stroke="black" points="748.52,-93.0833 719.52,-93.0833 719.52,-75.0833 748.52,-75.0833 748.52,-93.0833"/>
<text text-anchor="middle" x="734.02" y="-81.8833" font-family="Times New Roman,serif" font-size="9.00">&#45;34</text>
</g>
<!-- &#45;34&#45;&gt;0 -->
<g id="edge132" class="edge"><title>&#45;34&#45;&gt;0</title>
<path fill="none" stroke="green" stroke-width="0.217571" d="M743.238,-74.9425C747.477,-71.6014 752.732,-67.9877 758.02,-65.6985 835.691,-32.0747 865.712,-59.2588 945.02,-29.6985 945.887,-29.3751 946.76,-29.022 947.633,-28.6455"/>
<polygon fill="green" stroke="green" stroke-width="0.217571" points="949.395,-31.6753 956.703,-24.0039 946.206,-25.4439 949.395,-31.6753"/>
</g>
<!-- &#45;34&#45;&gt;1 -->
<g id="edge133" class="edge"><title>&#45;34&#45;&gt;1</title>
<path fill="none" stroke="green" stroke-width="0.38075" stroke-dasharray="1,5" d="M743.172,-74.7817C747.398,-71.4108 752.661,-67.8182 758.02,-65.6985 875.92,-19.0565 920.864,-70.1783 1041.02,-29.6985 1041.9,-29.4028 1042.78,-29.0733 1043.66,-28.7168"/>
<polygon fill="green" stroke="green" stroke-width="0.38075" points="1045.38,-31.7689 1052.76,-24.1679 1042.25,-25.5072 1045.38,-31.7689"/>
</g>
<!-- &#45;34&#45;&gt;2 -->
<g id="edge134" class="edge"><title>&#45;34&#45;&gt;2</title>
<path fill="none" stroke="green" stroke-width="0.239357" d="M743.821,-74.8528C747.996,-71.6555 753.045,-68.1745 758.02,-65.6985 804.433,-42.5967 863.66,-27.768 896.425,-20.7086"/>
<polygon fill="green" stroke="green" stroke-width="0.239357" points="897.392,-24.0822 906.465,-18.6116 895.961,-17.23 897.392,-24.0822"/>
</g>
<!-- &#45;34&#45;&gt;3 -->
<g id="edge135" class="edge"><title>&#45;34&#45;&gt;3</title>
<path fill="none" stroke="green" stroke-width="0.277349" d="M743.198,-74.8463C747.429,-71.4874 752.689,-67.8863 758.02,-65.6985 855.77,-25.5803 893.324,-64.7057 993.02,-29.6985 993.893,-29.3917 994.771,-29.0527 995.648,-28.6881"/>
<polygon fill="green" stroke="green" stroke-width="0.277349" points="997.387,-31.7313 1004.74,-24.102 994.234,-25.4816 997.387,-31.7313"/>
</g>
<!-- &#45;35 -->
<g id="node35" class="node"><title>&#45;35</title>
<polygon fill="lightgray" stroke="black" points="795.52,-93.0833 766.52,-93.0833 766.52,-75.0833 795.52,-75.0833 795.52,-93.0833"/>
<text text-anchor="middle" x="781.02" y="-81.8833" font-family="Times New Roman,serif" font-size="9.00">&#45;35</text>
</g>
<!-- &#45;35&#45;&gt;0 -->
<g id="edge136" class="edge"><title>&#45;35&#45;&gt;0</title>
<path fill="none" stroke="green" stroke-width="0.37199" d="M790.767,-74.7397C794.933,-71.525 799.991,-68.0617 805.02,-65.6985 863.166,-38.3746 885.537,-53.9775 945.02,-29.6985 945.877,-29.3485 946.741,-28.9729 947.606,-28.5774"/>
<polygon fill="green" stroke="green" stroke-width="0.37199" points="949.406,-31.5861 956.642,-23.8472 946.159,-25.3845 949.406,-31.5861"/>
</g>
<!-- &#45;35&#45;&gt;1 -->
<g id="edge137" class="edge"><title>&#45;35&#45;&gt;1</title>
<path fill="none" stroke="green" stroke-width="0.26718" d="M790.197,-74.8447C794.428,-71.4855 799.688,-67.8846 805.02,-65.6985 903.189,-25.4447 940.899,-64.8195 1041.02,-29.6985 1041.89,-29.392 1042.77,-29.0532 1043.65,-28.6888"/>
<polygon fill="green" stroke="green" stroke-width="0.26718" points="1045.39,-31.7322 1052.74,-24.1037 1042.23,-25.4822 1045.39,-31.7322"/>
</g>
<!-- &#45;35&#45;&gt;2 -->
<g id="edge138" class="edge"><title>&#45;35&#45;&gt;2</title>
<path fill="none" stroke="green" stroke-width="0.205177" d="M791.434,-74.7689C795.533,-71.7049 800.367,-68.3404 805.02,-65.6985 835.572,-48.3519 873.339,-33.1858 897.309,-24.2696"/>
<polygon fill="green" stroke="green" stroke-width="0.205177" points="898.787,-27.4562 906.977,-20.7351 896.383,-20.8818 898.787,-27.4562"/>
</g>
<!-- &#45;35&#45;&gt;3 -->
<g id="edge139" class="edge"><title>&#45;35&#45;&gt;3</title>
<path fill="none" stroke="red" stroke-width="0.360521" d="M790.237,-74.94C794.475,-71.5985 799.73,-67.9851 805.02,-65.6985 883.109,-31.9399 913.289,-59.3719 993.02,-29.6985 993.888,-29.3755 994.761,-29.0227 995.633,-28.6466"/>
<polygon fill="red" stroke="red" stroke-width="0.360521" points="997.395,-31.6767 1004.7,-24.0064 994.207,-25.4448 997.395,-31.6767"/>
</g>
<!-- &#45;36 -->
<g id="node36" class="node"><title>&#45;36</title>
<polygon fill="lightgray" stroke="black" points="842.52,-93.0833 813.52,-93.0833 813.52,-75.0833 842.52,-75.0833 842.52,-93.0833"/>
<text text-anchor="middle" x="828.02" y="-81.8833" font-family="Times New Roman,serif" font-size="9.00">&#45;36</text>
</g>
<!-- &#45;36&#45;&gt;0 -->
<g id="edge140" class="edge"><title>&#45;36&#45;&gt;0</title>
<path fill="none" stroke="red" stroke-width="0.175775" d="M837.915,-75.0321C842.104,-71.8622 847.138,-68.3532 852.02,-65.6985 890.956,-44.5228 905.04,-48.8314 945.02,-29.6985 945.855,-29.2987 946.7,-28.8808 947.55,-28.4496"/>
<polygon fill="red" stroke="red" stroke-width="0.175775" points="949.414,-31.4194 956.511,-23.5531 946.058,-25.2765 949.414,-31.4194"/>
</g>
<!-- &#45;36&#45;&gt;1 -->
<g id="edge141" class="edge"><title>&#45;36&#45;&gt;1</title>
<path fill="none" stroke="green" stroke-width="0.181081" d="M837.236,-74.9376C841.474,-71.5955 846.729,-67.9825 852.02,-65.6985 930.526,-31.805 960.865,-59.485 1041.02,-29.6985 1041.89,-29.3759 1042.76,-29.0235 1043.63,-28.6477"/>
<polygon fill="green" stroke="green" stroke-width="0.181081" points="1045.39,-31.6781 1052.7,-24.0089 1042.21,-25.4458 1045.39,-31.6781"/>
</g>
<!-- &#45;36&#45;&gt;2 -->
<g id="edge142" class="edge"><title>&#45;36&#45;&gt;2</title>
<path fill="none" stroke="red" stroke-width="0.30961" d="M839.251,-74.9436C843.277,-72.0264 847.851,-68.7141 852.02,-65.6985 868.521,-53.7613 887.252,-40.2301 901.03,-30.2805"/>
<polygon fill="red" stroke="red" stroke-width="0.30961" points="903.237,-33.0039 909.296,-24.3122 899.14,-27.3287 903.237,-33.0039"/>
</g>
<!-- &#45;36&#45;&gt;3 -->
<g id="edge143" class="edge"><title>&#45;36&#45;&gt;3</title>
<path fill="none" stroke="red" stroke-width="0.259781" d="M837.765,-74.7354C841.931,-71.5201 846.989,-68.0574 852.02,-65.6985 910.579,-38.2416 933.118,-54.089 993.02,-29.6985 993.877,-29.3493 994.742,-28.9742 995.607,-28.5793"/>
<polygon fill="red" stroke="red" stroke-width="0.259781" points="997.405,-31.5885 1004.64,-23.8515 994.16,-25.3861 997.405,-31.5885"/>
</g>
<!-- &#45;37 -->
<g id="node37" class="node"><title>&#45;37</title>
<polygon fill="lightgray" stroke="black" points="889.52,-93.0833 860.52,-93.0833 860.52,-75.0833 889.52,-75.0833 889.52,-93.0833"/>
<text text-anchor="middle" x="875.02" y="-81.8833" font-family="Times New Roman,serif" font-size="9.00">&#45;37</text>
</g>
<!-- &#45;37&#45;&gt;0 -->
<g id="edge144" class="edge"><title>&#45;37&#45;&gt;0</title>
<path fill="none" stroke="red" stroke-width="0.194338" d="M886.239,-74.9277C890.265,-72.0091 894.841,-68.6998 899.02,-65.6985 915.719,-53.7042 934.725,-40.1774 948.715,-30.244"/>
<polygon fill="red" stroke="red" stroke-width="0.194338" points="950.979,-32.9291 957.109,-24.2875 946.928,-27.2203 950.979,-32.9291"/>
</g>
<!-- &#45;37&#45;&gt;1 -->
<g id="edge145" class="edge"><title>&#45;37&#45;&gt;1</title>
<path fill="none" stroke="red" stroke-width="0.761312" d="M884.763,-74.7311C888.929,-71.5152 893.987,-68.0531 899.02,-65.6985 957.993,-38.1085 980.698,-54.2005 1041.02,-29.6985 1041.88,-29.35 1042.74,-28.9756 1043.61,-28.5812"/>
<polygon fill="red" stroke="red" stroke-width="0.761312" points="1045.41,-31.591 1052.65,-23.8558 1042.16,-25.3877 1045.41,-31.591"/>
</g>
<!-- &#45;37&#45;&gt;2 -->
<g id="edge146" class="edge"><title>&#45;37&#45;&gt;2</title>
<path fill="none" stroke="green" stroke-width="0.190604" d="M880.66,-74.8391C887.21,-65.2662 898.249,-49.1308 907.128,-36.1528"/>
<polygon fill="green" stroke="green" stroke-width="0.190604" points="910.091,-38.0214 912.849,-27.7919 904.313,-34.0687 910.091,-38.0214"/>
</g>
<!-- &#45;37&#45;&gt;3 -->
<g id="edge147" class="edge"><title>&#45;37&#45;&gt;3</title>
<path fill="none" stroke="red" stroke-width="0.503038" d="M884.91,-75.0233C889.099,-71.852 894.134,-68.3445 899.02,-65.6985 938.359,-44.3951 952.631,-48.9381 993.02,-29.6985 993.856,-29.3002 994.702,-28.8836 995.551,-28.4535"/>
<polygon fill="red" stroke="red" stroke-width="0.503038" points="997.414,-31.4244 1004.52,-23.5619 994.061,-25.2797 997.414,-31.4244"/>
</g>
<!-- &#45;38 -->
<g id="node38" class="node"><title>&#45;38</title>
<polygon fill="lightgray" stroke="black" points="936.52,-93.0833 907.52,-93.0833 907.52,-75.0833 936.52,-75.0833 936.52,-93.0833"/>
<text text-anchor="middle" x="922.02" y="-81.8833" font-family="Times New Roman,serif" font-size="9.00">&#45;38</text>
</g>
<!-- &#45;38&#45;&gt;0 -->
<g id="edge148" class="edge"><title>&#45;38&#45;&gt;0</title>
<path fill="none" stroke="red" stroke-width="0.512319" d="M927.783,-74.8391C934.475,-65.2662 945.754,-49.1308 954.826,-36.1528"/>
<polygon fill="red" stroke="red" stroke-width="0.512319" points="957.81,-37.9932 960.671,-27.7919 952.073,-33.9825 957.81,-37.9932"/>
</g>
<!-- &#45;38&#45;&gt;1 -->
<g id="edge149" class="edge"><title>&#45;38&#45;&gt;1</title>
<path fill="none" stroke="green" stroke-width="0.185651" d="M931.905,-75.0146C936.093,-71.8421 941.129,-68.3359 946.02,-65.6985 985.762,-44.2673 1000.22,-49.0449 1041.02,-29.6985 1041.86,-29.3017 1042.7,-28.8863 1043.55,-28.4573"/>
<polygon fill="green" stroke="green" stroke-width="0.185651" points="1045.41,-31.4293 1052.52,-23.5706 1042.06,-25.2828 1045.41,-31.4293"/>
</g>
<!-- &#45;38&#45;&gt;2 -->
<g id="edge150" class="edge"><title>&#45;38&#45;&gt;2</title>
<path fill="none" stroke="green" stroke-width="0.44501" d="M921.897,-74.8391C921.768,-66.1604 921.559,-52.0878 921.377,-39.8642"/>
<polygon fill="green" stroke="green" stroke-width="0.44501" points="924.875,-39.727 921.227,-29.7802 917.876,-39.8312 924.875,-39.727"/>
</g>
<!-- &#45;38&#45;&gt;3 -->
<g id="edge151" class="edge"><title>&#45;38&#45;&gt;3</title>
<path fill="none" stroke="red" stroke-width="0.284069" d="M933.228,-74.9121C937.252,-71.992 941.831,-68.6858 946.02,-65.6985 962.918,-53.6466 982.199,-40.1243 996.399,-30.2072"/>
<polygon fill="red" stroke="red" stroke-width="0.284069" points="998.722,-32.8544 1004.92,-24.2627 994.717,-27.1132 998.722,-32.8544"/>
</g>
<!-- &#45;39 -->
<g id="node39" class="node"><title>&#45;39</title>
<polygon fill="lightgray" stroke="black" points="983.52,-93.0833 954.52,-93.0833 954.52,-75.0833 983.52,-75.0833 983.52,-93.0833"/>
<text text-anchor="middle" x="969.02" y="-81.8833" font-family="Times New Roman,serif" font-size="9.00">&#45;39</text>
</g>
<!-- &#45;39&#45;&gt;0 -->
<g id="edge152" class="edge"><title>&#45;39&#45;&gt;0</title>
<path fill="none" stroke="red" stroke-width="0.293053" stroke-dasharray="1,5" d="M969.02,-74.8391C969.02,-66.1604 969.02,-52.0878 969.02,-39.8642"/>
<polygon fill="red" stroke="red" stroke-width="0.293053" points="972.52,-39.7801 969.02,-29.7802 965.52,-39.7802 972.52,-39.7801"/>
</g>
<!-- &#45;39&#45;&gt;1 -->
<g id="edge153" class="edge"><title>&#45;39&#45;&gt;1</title>
<path fill="none" stroke="green" stroke-width="0.177402" d="M980.217,-74.8968C984.24,-71.9753 988.821,-68.6721 993.02,-65.6985 1010.22,-53.5166 1029.91,-39.9098 1044.34,-29.9938"/>
<polygon fill="green" stroke="green" stroke-width="0.177402" points="1046.72,-32.6047 1052.99,-24.0626 1042.76,-26.8318 1046.72,-32.6047"/>
</g>
<!-- &#45;39&#45;&gt;2 -->
<g id="edge154" class="edge"><title>&#45;39&#45;&gt;2</title>
<path fill="none" stroke="green" stroke-width="0.439252" d="M963.134,-74.8391C956.218,-65.1523 944.505,-48.7457 935.185,-35.6906"/>
<polygon fill="green" stroke="green" stroke-width="0.439252" points="937.862,-33.4168 929.203,-27.3117 932.165,-37.4841 937.862,-33.4168"/>
</g>
<!-- &#45;39&#45;&gt;3 -->
<g id="edge155" class="edge"><title>&#45;39&#45;&gt;3</title>
<path fill="none" stroke="red" stroke-width="0.111739" d="M974.905,-74.8391C981.821,-65.1523 993.534,-48.7457 1002.85,-35.6906"/>
<polygon fill="red" stroke="red" stroke-width="0.111739" points="1005.87,-37.4841 1008.84,-27.3117 1000.18,-33.4168 1005.87,-37.4841"/>
</g>
<!-- &#45;40 -->
<g id="node40" class="node"><title>&#45;40</title>
<polygon fill="lightgray" stroke="black" points="1030.52,-93.0833 1001.52,-93.0833 1001.52,-75.0833 1030.52,-75.0833 1030.52,-93.0833"/>
<text text-anchor="middle" x="1016.02" y="-81.8833" font-family="Times New Roman,serif" font-size="9.00">&#45;40</text>
</g>
<!-- &#45;40&#45;&gt;0 -->
<g id="edge156" class="edge"><title>&#45;40&#45;&gt;0</title>
<path fill="none" stroke="red" stroke-width="0.342958" d="M1010.26,-74.8391C1003.56,-65.2662 992.285,-49.1308 983.213,-36.1528"/>
<polygon fill="red" stroke="red" stroke-width="0.342958" points="985.966,-33.9825 977.368,-27.7919 980.229,-37.9932 985.966,-33.9825"/>
</g>
<!-- &#45;40&#45;&gt;1 -->
<g id="edge157" class="edge"><title>&#45;40&#45;&gt;1</title>
<path fill="none" stroke="red" stroke-width="0.204419" d="M1022.03,-74.8391C1029.09,-65.1523 1041.04,-48.7457 1050.56,-35.6906"/>
<polygon fill="red" stroke="red" stroke-width="0.204419" points="1053.6,-37.4547 1056.67,-27.3117 1047.95,-33.3318 1053.6,-37.4547"/>
</g>
<!-- &#45;40&#45;&gt;2 -->
<g id="edge158" class="edge"><title>&#45;40&#45;&gt;2</title>
<path fill="none" stroke="red" stroke-width="0.307792" d="M1005.32,-74.8531C1001.47,-71.9274 997.075,-68.6328 993.02,-65.6985 975.944,-53.3423 956.248,-39.7499 941.777,-29.8838"/>
<polygon fill="red" stroke="red" stroke-width="0.307792" points="943.34,-26.7146 933.102,-23.9889 939.406,-32.5043 943.34,-26.7146"/>
</g>
<!-- &#45;40&#45;&gt;3 -->
<g id="edge159" class="edge"><title>&#45;40&#45;&gt;3</title>
<path fill="none" stroke="green" stroke-width="0.109474" stroke-dasharray="1,5" d="M1016.14,-74.8391C1016.27,-66.1604 1016.48,-52.0878 1016.66,-39.8642"/>
<polygon fill="green" stroke="green" stroke-width="0.109474" points="1020.16,-39.8312 1016.81,-29.7802 1013.16,-39.727 1020.16,-39.8312"/>
</g>
<!-- 25&#45;&gt;2 -->
<g id="edge161" class="edge"><title>25&#45;&gt;2</title>
<path fill="none" stroke="red" stroke-width="0.208154" d="M49.0549,-73.1508C54.2239,-70.225 60.183,-67.3639 66.0196,-65.6985 227.888,-19.5114 772.24,-16.0299 895.89,-15.8421"/>
<polygon fill="red" stroke="red" stroke-width="0.208154" points="895.917,-19.3422 905.914,-15.833 895.911,-12.3422 895.917,-19.3422"/>
</g>
</g>
</svg>
