<?xml version="1.0" encoding="UTF-8" standalone="no"?>
<!DOCTYPE svg PUBLIC "-//W3C//DTD SVG 1.1//EN"
 "http://www.w3.org/Graphics/SVG/1.1/DTD/svg11.dtd">
<!-- Generated by graphviz version 2.38.0 (20140413.2041)
 -->
<!-- Title: %3 Pages: 1 -->
<svg width="1954pt" height="170pt"
 viewBox="0.00 0.00 1954.09 170.12" xmlns="http://www.w3.org/2000/svg" xmlns:xlink="http://www.w3.org/1999/xlink">
<g id="graph0" class="graph" transform="scale(1 1) rotate(0) translate(4 166.125)">
<title>%3</title>
<polygon fill="white" stroke="none" points="-4,4 -4,-166.125 1950.09,-166.125 1950.09,4 -4,4"/>
<!-- &#45;1 -->
<g id="node1" class="node"><title>&#45;1</title>
<polygon fill="lightgray" stroke="black" points="1757.29,-95.9117 1733.29,-95.9117 1733.29,-77.9117 1757.29,-77.9117 1757.29,-95.9117"/>
<text text-anchor="middle" x="1745.29" y="-84.7117" font-family="Times New Roman,serif" font-size="9.00">&#45;1</text>
</g>
<!-- 0 -->
<g id="node41" class="node"><title>0</title>
<ellipse fill="lightblue" stroke="black" cx="901.288" cy="-14.8492" rx="14.7" ry="14.7"/>
<text text-anchor="middle" x="901.288" y="-12.6492" font-family="Times New Roman,serif" font-size="9.00">0</text>
</g>
<!-- &#45;1&#45;&gt;0 -->
<g id="edge1" class="edge"><title>&#45;1&#45;&gt;0</title>
<path fill="none" stroke="green" stroke-width="0.275439" d="M1739.25,-77.7222C1735.49,-73.3079 1730.24,-68.2546 1724.29,-65.6985 1560.98,4.44177 1095.89,-79.5338 925.288,-29.6985 924.226,-29.3882 923.161,-29.022 922.103,-28.6122"/>
<polygon fill="green" stroke="green" stroke-width="0.275439" points="923.501,-25.3988 912.987,-24.0903 920.39,-31.6697 923.501,-25.3988"/>
</g>
<!-- 1 -->
<g id="node42" class="node"><title>1</title>
<ellipse fill="lightblue" stroke="black" cx="1041.29" cy="-14.8492" rx="14.7" ry="14.7"/>
<text text-anchor="middle" x="1041.29" y="-12.6492" font-family="Times New Roman,serif" font-size="9.00">1</text>
</g>
<!-- &#45;1&#45;&gt;1 -->
<g id="edge2" class="edge"><title>&#45;1&#45;&gt;1</title>
<path fill="none" stroke="green" stroke-width="0.242409" d="M1739.24,-77.7435C1735.48,-73.3363 1730.23,-68.283 1724.29,-65.6985 1589.81,-7.17791 1205.87,-71.4929 1065.29,-29.6985 1064.23,-29.3832 1063.16,-29.0127 1062.11,-28.5996"/>
<polygon fill="green" stroke="green" stroke-width="0.242409" points="1063.51,-25.387 1052.99,-24.0654 1060.39,-31.6539 1063.51,-25.387"/>
</g>
<!-- 2 -->
<g id="node43" class="node"><title>2</title>
<ellipse fill="lightblue" stroke="black" cx="1089.29" cy="-14.8492" rx="14.7" ry="14.7"/>
<text text-anchor="middle" x="1089.29" y="-12.6492" font-family="Times New Roman,serif" font-size="9.00">2</text>
</g>
<!-- &#45;1&#45;&gt;2 -->
<g id="edge3" class="edge"><title>&#45;1&#45;&gt;2</title>
<path fill="none" stroke="green" stroke-width="0.458716" d="M1739.22,-77.7963C1735.45,-73.4067 1730.2,-68.3534 1724.29,-65.6985 1612.49,-15.461 1218.18,-14.8488 1114.45,-15.5879"/>
<polygon fill="green" stroke="green" stroke-width="0.458716" points="1114.26,-12.0892 1104.29,-15.6718 1114.32,-19.089 1114.26,-12.0892"/>
</g>
<!-- 3 -->
<g id="node44" class="node"><title>3</title>
<ellipse fill="lightblue" stroke="black" cx="949.288" cy="-14.8492" rx="14.7" ry="14.7"/>
<text text-anchor="middle" x="949.288" y="-12.6492" font-family="Times New Roman,serif" font-size="9.00">3</text>
</g>
<!-- &#45;1&#45;&gt;3 -->
<g id="edge4" class="edge"><title>&#45;1&#45;&gt;3</title>
<path fill="none" stroke="red" stroke-width="0.237969" d="M1739.25,-77.7352C1735.48,-73.3253 1730.23,-68.272 1724.29,-65.6985 1579.92,-3.19452 1173.36,-49.4516 1017.29,-29.6985 1002.63,-27.843 986.406,-24.5862 973.484,-21.697"/>
<polygon fill="red" stroke="red" stroke-width="0.237969" points="974.043,-18.2342 963.512,-19.3953 972.469,-25.0548 974.043,-18.2342"/>
</g>
<!-- &#45;2 -->
<g id="node2" class="node"><title>&#45;2</title>
<polygon fill="lightgray" stroke="black" points="1799.29,-95.9117 1775.29,-95.9117 1775.29,-77.9117 1799.29,-77.9117 1799.29,-95.9117"/>
<text text-anchor="middle" x="1787.29" y="-84.7117" font-family="Times New Roman,serif" font-size="9.00">&#45;2</text>
</g>
<!-- &#45;2&#45;&gt;0 -->
<g id="edge5" class="edge"><title>&#45;2&#45;&gt;0</title>
<path fill="none" stroke="red" stroke-width="0.186254" d="M1781.25,-77.7172C1777.49,-73.3012 1772.24,-68.2479 1766.29,-65.6985 1594.33,7.92841 1104.9,-81.9466 925.288,-29.6985 924.226,-29.3894 923.161,-29.0241 922.102,-28.6152"/>
<polygon fill="red" stroke="red" stroke-width="0.186254" points="923.499,-25.4016 912.985,-24.0962 920.39,-31.6734 923.499,-25.4016"/>
</g>
<!-- &#45;2&#45;&gt;1 -->
<g id="edge6" class="edge"><title>&#45;2&#45;&gt;1</title>
<path fill="none" stroke="green" stroke-width="0.166478" d="M1781.25,-77.7362C1777.48,-73.3266 1772.23,-68.2733 1766.29,-65.6985 1623.16,-3.69248 1214.88,-73.9048 1065.29,-29.6985 1064.23,-29.3849 1063.16,-29.0159 1062.11,-28.6039"/>
<polygon fill="green" stroke="green" stroke-width="0.166478" points="1063.5,-25.391 1052.99,-24.0739 1060.39,-31.6593 1063.5,-25.391"/>
</g>
<!-- &#45;2&#45;&gt;2 -->
<g id="edge7" class="edge"><title>&#45;2&#45;&gt;2</title>
<path fill="none" stroke="green" stroke-width="0.197417" stroke-dasharray="1,5" d="M1781.22,-77.7855C1777.45,-73.3924 1772.2,-68.3391 1766.29,-65.6985 1646.37,-12.1606 1222.16,-14.0591 1114.35,-15.4476"/>
<polygon fill="green" stroke="green" stroke-width="0.197417" points="1114.07,-11.9511 1104.12,-15.5906 1114.17,-18.9504 1114.07,-11.9511"/>
</g>
<!-- &#45;2&#45;&gt;3 -->
<g id="edge8" class="edge"><title>&#45;2&#45;&gt;3</title>
<path fill="none" stroke="green" stroke-width="0.347258" stroke-dasharray="1,5" d="M1781.25,-77.7289C1777.49,-73.3168 1772.24,-68.2635 1766.29,-65.6985 1613.27,0.291401 1182.64,-50.3866 1017.29,-29.6985 1002.63,-27.8638 986.403,-24.608 973.481,-21.714"/>
<polygon fill="green" stroke="green" stroke-width="0.347258" points="974.042,-18.2513 963.511,-19.4072 972.464,-25.0712 974.042,-18.2513"/>
</g>
<!-- &#45;3 -->
<g id="node3" class="node"><title>&#45;3</title>
<polygon fill="lightgray" stroke="black" points="277.288,-95.9117 253.288,-95.9117 253.288,-77.9117 277.288,-77.9117 277.288,-95.9117"/>
<text text-anchor="middle" x="265.288" y="-84.7117" font-family="Times New Roman,serif" font-size="9.00">&#45;3</text>
</g>
<!-- &#45;3&#45;&gt;0 -->
<g id="edge9" class="edge"><title>&#45;3&#45;&gt;0</title>
<path fill="none" stroke="green" stroke-width="0.289222" d="M271.36,-77.8019C275.134,-73.4142 280.384,-68.3609 286.288,-65.6985 394.179,-17.0516 774.011,-15.2448 875.95,-15.6613"/>
<polygon fill="green" stroke="green" stroke-width="0.289222" points="876.195,-19.1625 886.213,-15.7151 876.232,-12.1626 876.195,-19.1625"/>
</g>
<!-- &#45;3&#45;&gt;1 -->
<g id="edge10" class="edge"><title>&#45;3&#45;&gt;1</title>
<path fill="none" stroke="green" stroke-width="0.190984" d="M271.332,-77.7385C275.096,-73.3297 280.346,-68.2764 286.288,-65.6985 426.535,-4.85434 821.636,-49.0063 973.288,-29.6985 987.948,-27.8321 1004.17,-24.5749 1017.09,-21.6882"/>
<polygon fill="green" stroke="green" stroke-width="0.190984" points="1018.11,-25.0463 1027.06,-19.389 1016.53,-18.2253 1018.11,-25.0463"/>
</g>
<!-- &#45;3&#45;&gt;2 -->
<g id="edge11" class="edge"><title>&#45;3&#45;&gt;2</title>
<path fill="none" stroke="red" stroke-width="0.400879" d="M271.326,-77.7248C275.088,-73.3113 280.338,-68.258 286.288,-65.6985 445.48,2.78157 898.972,-78.3849 1065.29,-29.6985 1066.35,-29.3876 1067.42,-29.0209 1068.47,-28.6107"/>
<polygon fill="red" stroke="red" stroke-width="0.400879" points="1070.19,-31.6678 1077.59,-24.0873 1067.08,-25.3974 1070.19,-31.6678"/>
</g>
<!-- &#45;3&#45;&gt;3 -->
<g id="edge12" class="edge"><title>&#45;3&#45;&gt;3</title>
<path fill="none" stroke="green" stroke-width="0.112301" d="M271.336,-77.7473C275.101,-73.3413 280.351,-68.288 286.288,-65.6985 416.653,-8.83746 788.995,-70.3445 925.288,-29.6985 926.349,-29.3823 927.412,-29.0111 928.47,-28.5974"/>
<polygon fill="green" stroke="green" stroke-width="0.112301" points="930.189,-31.6511 937.581,-24.0609 927.069,-25.3849 930.189,-31.6511"/>
</g>
<!-- &#45;4 -->
<g id="node4" class="node"><title>&#45;4</title>
<polygon fill="lightgray" stroke="black" points="319.288,-95.9117 295.288,-95.9117 295.288,-77.9117 319.288,-77.9117 319.288,-95.9117"/>
<text text-anchor="middle" x="307.288" y="-84.7117" font-family="Times New Roman,serif" font-size="9.00">&#45;4</text>
</g>
<!-- &#45;4&#45;&gt;0 -->
<g id="edge13" class="edge"><title>&#45;4&#45;&gt;0</title>
<path fill="none" stroke="green" stroke-width="0.183618" d="M313.366,-77.8149C317.141,-73.4316 322.391,-68.3783 328.288,-65.6985 428.296,-20.2503 779.654,-16.1017 876.441,-15.8333"/>
<polygon fill="green" stroke="green" stroke-width="0.183618" points="876.474,-19.3333 886.468,-15.8174 876.463,-12.3333 876.474,-19.3333"/>
</g>
<!-- &#45;4&#45;&gt;1 -->
<g id="edge14" class="edge"><title>&#45;4&#45;&gt;1</title>
<path fill="none" stroke="green" stroke-width="0.408938" d="M313.335,-77.7461C317.101,-73.3398 322.351,-68.2865 328.288,-65.6985 459.888,-8.33961 830.912,-48.0715 973.288,-29.6985 987.944,-27.8072 1004.17,-24.549 1017.09,-21.6679"/>
<polygon fill="green" stroke="green" stroke-width="0.408938" points="1018.1,-25.0267 1027.06,-19.3747 1016.53,-18.2048 1018.1,-25.0267"/>
</g>
<!-- &#45;4&#45;&gt;2 -->
<g id="edge15" class="edge"><title>&#45;4&#45;&gt;2</title>
<path fill="none" stroke="green" stroke-width="0.256845" d="M313.328,-77.7306C317.092,-73.3192 322.342,-68.2659 328.288,-65.6985 478.831,-0.704617 907.98,-75.9724 1065.29,-29.6985 1066.35,-29.3862 1067.41,-29.0183 1068.47,-28.6072"/>
<polygon fill="green" stroke="green" stroke-width="0.256845" points="1070.19,-31.6634 1077.59,-24.0804 1067.07,-25.3941 1070.19,-31.6634"/>
</g>
<!-- &#45;4&#45;&gt;3 -->
<g id="edge16" class="edge"><title>&#45;4&#45;&gt;3</title>
<path fill="none" stroke="green" stroke-width="0.459211" d="M313.339,-77.756C317.106,-73.3531 322.356,-68.2998 328.288,-65.6985 450.007,-12.3221 797.999,-67.9331 925.288,-29.6985 926.348,-29.3802 927.411,-29.0073 928.468,-28.5922"/>
<polygon fill="green" stroke="green" stroke-width="0.459211" points="930.19,-31.6446 937.578,-24.0506 927.067,-25.38 930.19,-31.6446"/>
</g>
<!-- &#45;5 -->
<g id="node5" class="node"><title>&#45;5</title>
<polygon fill="lightgray" stroke="black" points="361.288,-95.9117 337.288,-95.9117 337.288,-77.9117 361.288,-77.9117 361.288,-95.9117"/>
<text text-anchor="middle" x="349.288" y="-84.7117" font-family="Times New Roman,serif" font-size="9.00">&#45;5</text>
</g>
<!-- &#45;5&#45;&gt;0 -->
<g id="edge17" class="edge"><title>&#45;5&#45;&gt;0</title>
<path fill="none" stroke="red" stroke-width="0.305761" stroke-dasharray="1,5" d="M355.373,-77.83C359.151,-73.4517 364.401,-68.3984 370.288,-65.6985 462.186,-23.5573 783.681,-17.0382 876.202,-16.0322"/>
<polygon fill="red" stroke="red" stroke-width="0.305761" points="876.354,-19.531 886.32,-15.9349 876.286,-12.5314 876.354,-19.531"/>
</g>
<!-- &#45;5&#45;&gt;1 -->
<g id="edge18" class="edge"><title>&#45;5&#45;&gt;1</title>
<path fill="none" stroke="red" stroke-width="0.339302" d="M355.339,-77.7547C359.106,-73.3513 364.356,-68.298 370.288,-65.6985 493.242,-11.8243 840.187,-47.1369 973.288,-29.6985 987.941,-27.7788 1004.16,-24.5194 1017.09,-21.6448"/>
<polygon fill="red" stroke="red" stroke-width="0.339302" points="1018.09,-25.0045 1027.06,-19.3584 1016.53,-18.1815 1018.09,-25.0045"/>
</g>
<!-- &#45;5&#45;&gt;2 -->
<g id="edge19" class="edge"><title>&#45;5&#45;&gt;2</title>
<path fill="none" stroke="red" stroke-width="0.195748" d="M355.331,-77.7372C359.095,-73.3279 364.345,-68.2746 370.288,-65.6985 512.182,-4.19043 916.987,-73.5602 1065.29,-29.6985 1066.35,-29.3847 1067.41,-29.0155 1068.47,-28.6033"/>
<polygon fill="red" stroke="red" stroke-width="0.195748" points="1070.19,-31.6586 1077.58,-24.0727 1067.07,-25.3905 1070.19,-31.6586"/>
</g>
<!-- &#45;5&#45;&gt;3 -->
<g id="edge20" class="edge"><title>&#45;5&#45;&gt;3</title>
<path fill="none" stroke="green" stroke-width="0.39153" d="M355.344,-77.7662C359.112,-73.3665 364.362,-68.3132 370.288,-65.6985 483.363,-15.8059 807.002,-65.5223 925.288,-29.6985 926.347,-29.3778 927.41,-29.0029 928.466,-28.5862"/>
<polygon fill="green" stroke="green" stroke-width="0.39153" points="930.191,-31.6372 937.574,-24.0387 927.064,-25.3744 930.191,-31.6372"/>
</g>
<!-- &#45;6 -->
<g id="node6" class="node"><title>&#45;6</title>
<polygon fill="lightgray" stroke="black" points="1841.29,-95.9117 1817.29,-95.9117 1817.29,-77.9117 1841.29,-77.9117 1841.29,-95.9117"/>
<text text-anchor="middle" x="1829.29" y="-84.7117" font-family="Times New Roman,serif" font-size="9.00">&#45;6</text>
</g>
<!-- &#45;6&#45;&gt;0 -->
<g id="edge21" class="edge"><title>&#45;6&#45;&gt;0</title>
<path fill="none" stroke="red" stroke-width="0.180377" d="M1823.26,-77.7126C1819.5,-73.2952 1814.25,-68.2419 1808.29,-65.6985 1627.68,11.4153 1113.91,-84.3596 925.288,-29.6985 924.226,-29.3905 923.16,-29.0261 922.101,-28.6179"/>
<polygon fill="red" stroke="red" stroke-width="0.180377" points="923.498,-25.4041 912.984,-24.1015 920.391,-31.6767 923.498,-25.4041"/>
</g>
<!-- &#45;6&#45;&gt;1 -->
<g id="edge22" class="edge"><title>&#45;6&#45;&gt;1</title>
<path fill="none" stroke="green" stroke-width="0.312544" d="M1823.25,-77.7297C1819.49,-73.318 1814.24,-68.2647 1808.29,-65.6985 1656.51,-0.206612 1223.88,-76.3171 1065.29,-29.6985 1064.23,-29.3864 1063.16,-29.0187 1062.1,-28.6077"/>
<polygon fill="green" stroke="green" stroke-width="0.312544" points="1063.5,-25.3946 1052.99,-24.0814 1060.39,-31.6641 1063.5,-25.3946"/>
</g>
<!-- &#45;6&#45;&gt;2 -->
<g id="edge23" class="edge"><title>&#45;6&#45;&gt;2</title>
<path fill="none" stroke="green" stroke-width="0.391638" d="M1823.23,-77.776C1819.46,-73.3797 1814.21,-68.3264 1808.29,-65.6985 1743.76,-37.0533 1234.12,-20.1698 1114.4,-16.5749"/>
<polygon fill="green" stroke="green" stroke-width="0.391638" points="1114.46,-13.075 1104.36,-16.2771 1114.25,-20.0719 1114.46,-13.075"/>
</g>
<!-- &#45;7 -->
<g id="node7" class="node"><title>&#45;7</title>
<polygon fill="lightgray" stroke="black" points="403.288,-95.9117 379.288,-95.9117 379.288,-77.9117 403.288,-77.9117 403.288,-95.9117"/>
<text text-anchor="middle" x="391.288" y="-84.7117" font-family="Times New Roman,serif" font-size="9.00">&#45;7</text>
</g>
<!-- &#45;7&#45;&gt;0 -->
<g id="edge24" class="edge"><title>&#45;7&#45;&gt;0</title>
<path fill="none" stroke="red" stroke-width="0.215515" d="M397.381,-77.8476C401.161,-73.4752 406.411,-68.4219 412.288,-65.6985 496.191,-26.8169 788.514,-18.0411 876.222,-16.2636"/>
<polygon fill="red" stroke="red" stroke-width="0.215515" points="876.389,-19.7612 886.321,-16.0721 876.256,-12.7624 876.389,-19.7612"/>
</g>
<!-- &#45;7&#45;&gt;1 -->
<g id="edge25" class="edge"><title>&#45;7&#45;&gt;1</title>
<path fill="none" stroke="red" stroke-width="0.485972" d="M397.343,-77.7646C401.111,-73.3645 406.361,-68.3112 412.288,-65.6985 526.598,-15.3083 849.46,-46.2024 973.288,-29.6985 987.936,-27.7462 1004.16,-24.4854 1017.08,-21.6182"/>
<polygon fill="red" stroke="red" stroke-width="0.485972" points="1018.09,-24.9789 1027.06,-19.3397 1016.53,-18.1546 1018.09,-24.9789"/>
</g>
<!-- &#45;7&#45;&gt;2 -->
<g id="edge26" class="edge"><title>&#45;7&#45;&gt;2</title>
<path fill="none" stroke="green" stroke-width="0.346186" d="M397.334,-77.7446C401.1,-73.3378 406.35,-68.2845 412.288,-65.6985 545.535,-7.67579 925.993,-71.1483 1065.29,-29.6985 1066.35,-29.3829 1067.41,-29.0123 1068.47,-28.599"/>
<polygon fill="green" stroke="green" stroke-width="0.346186" points="1070.19,-31.6531 1077.58,-24.064 1067.07,-25.3863 1070.19,-31.6531"/>
</g>
<!-- &#45;7&#45;&gt;3 -->
<g id="edge27" class="edge"><title>&#45;7&#45;&gt;3</title>
<path fill="none" stroke="green" stroke-width="0.451202" d="M397.349,-77.7779C401.119,-73.3822 406.369,-68.3289 412.288,-65.6985 516.721,-19.2889 816.002,-63.1121 925.288,-29.6985 926.346,-29.375 927.408,-28.9978 928.464,-28.5792"/>
<polygon fill="green" stroke="green" stroke-width="0.451202" points="930.192,-31.6285 937.57,-24.025 927.061,-25.3678 930.192,-31.6285"/>
</g>
<!-- &#45;8 -->
<g id="node8" class="node"><title>&#45;8</title>
<polygon fill="lightgray" stroke="black" points="445.288,-95.9117 421.288,-95.9117 421.288,-77.9117 445.288,-77.9117 445.288,-95.9117"/>
<text text-anchor="middle" x="433.288" y="-84.7117" font-family="Times New Roman,serif" font-size="9.00">&#45;8</text>
</g>
<!-- &#45;8&#45;&gt;0 -->
<g id="edge28" class="edge"><title>&#45;8&#45;&gt;0</title>
<path fill="none" stroke="green" stroke-width="0.105982" d="M439.39,-77.8685C443.174,-73.503 448.424,-68.4497 454.288,-65.6985 530.23,-30.0686 793.557,-19.1324 876.243,-16.5373"/>
<polygon fill="green" stroke="green" stroke-width="0.105982" points="876.364,-20.0353 886.255,-16.2367 876.154,-13.0385 876.364,-20.0353"/>
</g>
<!-- &#45;8&#45;&gt;1 -->
<g id="edge29" class="edge"><title>&#45;8&#45;&gt;1</title>
<path fill="none" stroke="green" stroke-width="0.265152" d="M439.348,-77.7761C443.118,-73.3798 448.368,-68.3265 454.288,-65.6985 559.955,-18.7914 858.731,-45.2683 973.288,-29.6985 987.931,-27.7083 1004.15,-24.446 1017.08,-21.5874"/>
<polygon fill="green" stroke="green" stroke-width="0.265152" points="1018.08,-24.9491 1027.05,-19.3179 1016.53,-18.1235 1018.08,-24.9491"/>
</g>
<!-- &#45;8&#45;&gt;2 -->
<g id="edge30" class="edge"><title>&#45;8&#45;&gt;2</title>
<path fill="none" stroke="red" stroke-width="0.521732" stroke-dasharray="1,5" d="M439.338,-77.753C443.105,-73.349 448.355,-68.2957 454.288,-65.6985 578.889,-11.1606 934.998,-68.7369 1065.29,-29.6985 1066.35,-29.3809 1067.41,-29.0086 1068.47,-28.594"/>
<polygon fill="red" stroke="red" stroke-width="0.521732" points="1070.19,-31.6469 1077.58,-24.0542 1067.07,-25.3817 1070.19,-31.6469"/>
</g>
<!-- &#45;8&#45;&gt;3 -->
<g id="edge31" class="edge"><title>&#45;8&#45;&gt;3</title>
<path fill="none" stroke="green" stroke-width="0.595925" d="M439.355,-77.7917C443.127,-73.4006 448.377,-68.3473 454.288,-65.6985 645.875,20.1569 724.711,-91.707 925.288,-29.6985 926.345,-29.3717 927.406,-28.9918 928.462,-28.5711"/>
<polygon fill="green" stroke="green" stroke-width="0.595925" points="930.193,-31.6183 937.565,-24.0087 927.057,-25.3602 930.193,-31.6183"/>
</g>
<!-- &#45;9 -->
<g id="node9" class="node"><title>&#45;9</title>
<polygon fill="lightgray" stroke="black" points="235.288,-95.9117 211.288,-95.9117 211.288,-77.9117 235.288,-77.9117 235.288,-95.9117"/>
<text text-anchor="middle" x="223.288" y="-84.7117" font-family="Times New Roman,serif" font-size="9.00">&#45;9</text>
</g>
<!-- &#45;9&#45;&gt;0 -->
<g id="edge32" class="edge"><title>&#45;9&#45;&gt;0</title>
<path fill="none" stroke="red" stroke-width="0.372026" stroke-dasharray="1,5" d="M229.355,-77.7905C233.127,-73.399 238.377,-68.3457 244.288,-65.6985 360.372,-13.7168 770.545,-14.4294 876.277,-15.5131"/>
<polygon fill="red" stroke="red" stroke-width="0.372026" points="876.293,-19.0134 886.332,-15.6272 876.372,-12.0138 876.293,-19.0134"/>
</g>
<!-- &#45;9&#45;&gt;1 -->
<g id="edge33" class="edge"><title>&#45;9&#45;&gt;1</title>
<path fill="none" stroke="green" stroke-width="0.149502" d="M229.329,-77.7318C233.092,-73.3207 238.342,-68.2674 244.288,-65.6985 393.183,-1.36861 812.359,-49.9413 973.288,-29.6985 987.95,-27.8542 1004.17,-24.5979 1017.09,-21.7061"/>
<polygon fill="green" stroke="green" stroke-width="0.149502" points="1018.11,-25.0636 1027.07,-19.4017 1016.53,-18.2434 1018.11,-25.0636"/>
</g>
<!-- &#45;9&#45;&gt;3 -->
<g id="edge34" class="edge"><title>&#45;9&#45;&gt;3</title>
<path fill="none" stroke="green" stroke-width="0.76512" d="M229.332,-77.7395C233.097,-73.3311 238.347,-68.2778 244.288,-65.6985 383.3,-5.35227 779.989,-72.7562 925.288,-29.6985 926.349,-29.3841 927.413,-29.0144 928.471,-28.6019"/>
<polygon fill="green" stroke="green" stroke-width="0.76512" points="930.188,-31.6568 937.584,-24.07 927.071,-25.3891 930.188,-31.6568"/>
</g>
<!-- &#45;10 -->
<g id="node10" class="node"><title>&#45;10</title>
<polygon fill="lightgray" stroke="black" points="492.788,-95.9117 463.788,-95.9117 463.788,-77.9117 492.788,-77.9117 492.788,-95.9117"/>
<text text-anchor="middle" x="478.288" y="-84.7117" font-family="Times New Roman,serif" font-size="9.00">&#45;10</text>
</g>
<!-- &#45;10&#45;&gt;0 -->
<g id="edge35" class="edge"><title>&#45;10&#45;&gt;0</title>
<path fill="none" stroke="green" stroke-width="0.112435" d="M485.134,-77.8976C489.332,-73.5418 495.082,-68.4885 501.288,-65.6985 568.969,-35.2719 799.015,-21.0472 875.974,-17.0613"/>
<polygon fill="green" stroke="green" stroke-width="0.112435" points="876.369,-20.5459 886.18,-16.5467 876.016,-13.5548 876.369,-20.5459"/>
</g>
<!-- &#45;10&#45;&gt;1 -->
<g id="edge36" class="edge"><title>&#45;10&#45;&gt;1</title>
<path fill="none" stroke="green" stroke-width="0.194738" d="M485.085,-77.7856C489.267,-73.3925 495.017,-68.3392 501.288,-65.6985 598.237,-24.8737 869.102,-44.2234 973.288,-29.6985 987.924,-27.658 1004.15,-24.3936 1017.07,-21.5465"/>
<polygon fill="green" stroke="green" stroke-width="0.194738" points="1018.07,-24.9096 1027.05,-19.2891 1016.52,-18.0822 1018.07,-24.9096"/>
</g>
<!-- &#45;10&#45;&gt;2 -->
<g id="edge37" class="edge"><title>&#45;10&#45;&gt;2</title>
<path fill="none" stroke="green" stroke-width="0.373713" d="M485.073,-77.7565C489.251,-73.3537 495.001,-68.3004 501.288,-65.6985 617.333,-17.676 945.073,-66.0389 1065.29,-29.6985 1066.35,-29.3783 1067.41,-29.0039 1068.47,-28.5876"/>
<polygon fill="green" stroke="green" stroke-width="0.373713" points="1070.19,-31.6389 1077.58,-24.0414 1067.06,-25.3756 1070.19,-31.6389"/>
</g>
<!-- &#45;10&#45;&gt;3 -->
<g id="edge38" class="edge"><title>&#45;10&#45;&gt;3</title>
<path fill="none" stroke="red" stroke-width="0.178155" d="M485.094,-77.8058C489.279,-73.4194 495.029,-68.3661 501.288,-65.6985 675.271,8.44546 744.84,-86.3172 925.288,-29.6985 926.344,-29.3672 927.404,-28.9837 928.458,-28.56"/>
<polygon fill="red" stroke="red" stroke-width="0.178155" points="930.195,-31.6045 937.558,-23.9869 927.052,-25.3498 930.195,-31.6045"/>
</g>
<!-- &#45;11 -->
<g id="node11" class="node"><title>&#45;11</title>
<polygon fill="lightgray" stroke="black" points="539.788,-95.9117 510.788,-95.9117 510.788,-77.9117 539.788,-77.9117 539.788,-95.9117"/>
<text text-anchor="middle" x="525.288" y="-84.7117" font-family="Times New Roman,serif" font-size="9.00">&#45;11</text>
</g>
<!-- &#45;11&#45;&gt;0 -->
<g id="edge39" class="edge"><title>&#45;11&#45;&gt;0</title>
<path fill="none" stroke="green" stroke-width="0.129931" d="M532.55,-77.5263C536.715,-73.2787 542.298,-68.4503 548.288,-65.6985 607.146,-38.6592 805.724,-22.5122 876.212,-17.521"/>
<polygon fill="green" stroke="green" stroke-width="0.129931" points="876.65,-20.9992 886.384,-16.8158 876.166,-14.0159 876.65,-20.9992"/>
</g>
<!-- &#45;11&#45;&gt;1 -->
<g id="edge40" class="edge"><title>&#45;11&#45;&gt;1</title>
<path fill="none" stroke="green" stroke-width="0.337044" d="M532.093,-77.8053C536.278,-73.4188 542.028,-68.3655 548.288,-65.6985 635.487,-28.5484 879.469,-43.1791 973.288,-29.6985 987.916,-27.5967 1004.14,-24.3297 1017.07,-21.4966"/>
<polygon fill="green" stroke="green" stroke-width="0.337044" points="1018.06,-24.8614 1027.05,-19.2538 1016.52,-18.0317 1018.06,-24.8614"/>
</g>
<!-- &#45;11&#45;&gt;2 -->
<g id="edge41" class="edge"><title>&#45;11&#45;&gt;2</title>
<path fill="none" stroke="red" stroke-width="0.178737" d="M532.079,-77.7701C536.259,-73.3718 542.009,-68.3185 548.288,-65.6985 760.863,22.9911 845.001,-96.9848 1065.29,-29.6985 1066.35,-29.3753 1067.41,-28.9983 1068.46,-28.58"/>
<polygon fill="red" stroke="red" stroke-width="0.178737" points="1070.19,-31.6294 1077.57,-24.0264 1067.06,-25.3685 1070.19,-31.6294"/>
</g>
<!-- &#45;11&#45;&gt;3 -->
<g id="edge42" class="edge"><title>&#45;11&#45;&gt;3</title>
<path fill="none" stroke="green" stroke-width="0.136777" d="M532.104,-77.8304C536.293,-73.4522 542.043,-68.3989 548.288,-65.6985 702.783,1.10111 764.957,-80.9312 925.288,-29.6985 926.342,-29.3617 927.401,-28.9736 928.454,-28.5463"/>
<polygon fill="green" stroke="green" stroke-width="0.136777" points="930.197,-31.5873 937.55,-23.9596 927.045,-25.337 930.197,-31.5873"/>
</g>
<!-- &#45;12 -->
<g id="node12" class="node"><title>&#45;12</title>
<polygon fill="lightgray" stroke="black" points="586.788,-95.9117 557.788,-95.9117 557.788,-77.9117 586.788,-77.9117 586.788,-95.9117"/>
<text text-anchor="middle" x="572.288" y="-84.7117" font-family="Times New Roman,serif" font-size="9.00">&#45;12</text>
</g>
<!-- &#45;12&#45;&gt;0 -->
<g id="edge43" class="edge"><title>&#45;12&#45;&gt;0</title>
<path fill="none" stroke="green" stroke-width="0.303013" d="M579.573,-77.5768C583.745,-73.344 589.328,-68.5136 595.288,-65.6985 691.818,-20.1074 822.448,-15.2383 876.399,-15.358"/>
<polygon fill="green" stroke="green" stroke-width="0.303013" points="876.392,-18.8579 886.421,-15.442 876.451,-11.8582 876.392,-18.8579"/>
</g>
<!-- &#45;12&#45;&gt;1 -->
<g id="edge44" class="edge"><title>&#45;12&#45;&gt;1</title>
<path fill="none" stroke="red" stroke-width="0.179159" d="M579.104,-77.8298C583.292,-73.4514 589.042,-68.3981 595.288,-65.6985 750.198,1.25731 806.371,-54.573 973.288,-29.6985 987.904,-27.5203 1004.12,-24.2502 1017.06,-21.4344"/>
<polygon fill="red" stroke="red" stroke-width="0.179159" points="1018.04,-24.8013 1027.04,-19.21 1016.52,-17.9689 1018.04,-24.8013"/>
</g>
<!-- &#45;12&#45;&gt;2 -->
<g id="edge45" class="edge"><title>&#45;12&#45;&gt;2</title>
<path fill="none" stroke="red" stroke-width="0.618543" d="M579.085,-77.7864C583.268,-73.3935 589.018,-68.3402 595.288,-65.6985 788.355,15.6383 865.139,-91.5923 1065.29,-29.6985 1066.35,-29.3716 1067.41,-28.9917 1068.46,-28.5709"/>
<polygon fill="red" stroke="red" stroke-width="0.618543" points="1070.19,-31.618 1077.57,-24.0083 1067.06,-25.36 1070.19,-31.618"/>
</g>
<!-- &#45;12&#45;&gt;3 -->
<g id="edge46" class="edge"><title>&#45;12&#45;&gt;3</title>
<path fill="none" stroke="green" stroke-width="0.184642" d="M579.118,-77.8619C583.311,-73.4942 589.061,-68.4409 595.288,-65.6985 730.312,-6.23614 785.057,-75.5506 925.288,-29.6985 926.169,-29.4107 927.052,-29.0879 927.933,-28.7369"/>
<polygon fill="green" stroke="green" stroke-width="0.184642" points="929.644,-31.7954 937.045,-24.2143 926.532,-25.5253 929.644,-31.7954"/>
</g>
<!-- &#45;13 -->
<g id="node13" class="node"><title>&#45;13</title>
<polygon fill="lightgray" stroke="black" points="633.788,-95.9117 604.788,-95.9117 604.788,-77.9117 633.788,-77.9117 633.788,-95.9117"/>
<text text-anchor="middle" x="619.288" y="-84.7117" font-family="Times New Roman,serif" font-size="9.00">&#45;13</text>
</g>
<!-- &#45;13&#45;&gt;0 -->
<g id="edge47" class="edge"><title>&#45;13&#45;&gt;0</title>
<path fill="none" stroke="red" stroke-width="0.283379" stroke-dasharray="1,5" d="M626.606,-77.6447C630.788,-73.4317 636.369,-68.5987 642.288,-65.6985 721.638,-26.8217 828.524,-18.2304 876.348,-16.3566"/>
<polygon fill="red" stroke="red" stroke-width="0.283379" points="876.526,-19.8528 886.407,-16.0299 876.299,-12.8565 876.526,-19.8528"/>
</g>
<!-- &#45;13&#45;&gt;1 -->
<g id="edge48" class="edge"><title>&#45;13&#45;&gt;1</title>
<path fill="none" stroke="green" stroke-width="0.202505" d="M626.118,-77.8611C630.311,-73.4932 636.061,-68.4399 642.288,-65.6985 777.726,-6.08013 827.075,-52.4888 973.288,-29.6985 987.89,-27.4226 1004.11,-24.1483 1017.04,-21.3548"/>
<polygon fill="green" stroke="green" stroke-width="0.202505" points="1018.02,-24.7243 1027.03,-19.1538 1016.51,-17.8884 1018.02,-24.7243"/>
</g>
<!-- &#45;13&#45;&gt;2 -->
<g id="edge49" class="edge"><title>&#45;13&#45;&gt;2</title>
<path fill="none" stroke="green" stroke-width="0.311381" d="M626.094,-77.8063C630.279,-73.42 636.029,-68.3667 642.288,-65.6985 815.856,8.28914 885.268,-86.2026 1065.29,-29.6985 1066.34,-29.3671 1067.4,-28.9835 1068.46,-28.5598"/>
<polygon fill="green" stroke="green" stroke-width="0.311381" points="1070.19,-31.6042 1077.56,-23.9863 1067.05,-25.3496 1070.19,-31.6042"/>
</g>
<!-- &#45;13&#45;&gt;3 -->
<g id="edge50" class="edge"><title>&#45;13&#45;&gt;3</title>
<path fill="none" stroke="green" stroke-width="0.110568" d="M626.136,-77.9035C630.336,-73.5497 636.086,-68.4964 642.288,-65.6985 757.865,-13.5627 805.132,-70.1783 925.288,-29.6985 926.166,-29.4028 927.047,-29.0733 927.927,-28.7168"/>
<polygon fill="green" stroke="green" stroke-width="0.110568" points="929.649,-31.7689 937.03,-24.1679 926.52,-25.5072 929.649,-31.7689"/>
</g>
<!-- &#45;14 -->
<g id="node14" class="node"><title>&#45;14</title>
<polygon fill="lightgray" stroke="black" points="680.788,-95.9117 651.788,-95.9117 651.788,-77.9117 680.788,-77.9117 680.788,-95.9117"/>
<text text-anchor="middle" x="666.288" y="-84.7117" font-family="Times New Roman,serif" font-size="9.00">&#45;14</text>
</g>
<!-- &#45;14&#45;&gt;0 -->
<g id="edge51" class="edge"><title>&#45;14&#45;&gt;0</title>
<path fill="none" stroke="red" stroke-width="0.358429" d="M673.654,-77.7406C677.85,-73.5556 683.429,-68.7188 689.288,-65.6985 751.781,-33.4838 835.342,-21.7675 876.393,-17.7677"/>
<polygon fill="red" stroke="red" stroke-width="0.358429" points="876.917,-21.2348 886.563,-16.8523 876.289,-14.263 876.917,-21.2348"/>
</g>
<!-- &#45;14&#45;&gt;1 -->
<g id="edge52" class="edge"><title>&#45;14&#45;&gt;1</title>
<path fill="none" stroke="green" stroke-width="0.451296" d="M673.136,-77.9025C677.335,-73.5483 683.085,-68.495 689.288,-65.6985 805.278,-13.4069 847.753,-50.4087 973.288,-29.6985 987.869,-27.2931 1004.09,-24.0134 1017.03,-21.2494"/>
<polygon fill="green" stroke="green" stroke-width="0.451296" points="1017.99,-24.6223 1027.02,-19.0795 1016.5,-17.7818 1017.99,-24.6223"/>
</g>
<!-- &#45;14&#45;&gt;2 -->
<g id="edge53" class="edge"><title>&#45;14&#45;&gt;2</title>
<path fill="none" stroke="green" stroke-width="0.311245" d="M673.104,-77.831C677.293,-73.453 683.043,-68.3997 689.288,-65.6985 843.369,0.944919 905.385,-80.8167 1065.29,-29.6985 1066.34,-29.3616 1067.4,-28.9734 1068.45,-28.5459"/>
<polygon fill="green" stroke="green" stroke-width="0.311245" points="1070.2,-31.5869 1077.55,-23.9589 1067.04,-25.3367 1070.2,-31.5869"/>
</g>
<!-- &#45;14&#45;&gt;3 -->
<g id="edge54" class="edge"><title>&#45;14&#45;&gt;3</title>
<path fill="none" stroke="red" stroke-width="0.343186" d="M673.562,-77.5528C677.731,-73.3128 683.314,-68.4834 689.288,-65.6985 785.456,-20.8718 825.167,-64.8195 925.288,-29.6985 926.162,-29.392 927.04,-29.0532 927.917,-28.6888"/>
<polygon fill="red" stroke="red" stroke-width="0.343186" points="929.655,-31.7322 937.008,-24.1037 926.503,-25.4822 929.655,-31.7322"/>
</g>
<!-- &#45;15 -->
<g id="node15" class="node"><title>&#45;15</title>
<polygon fill="lightgray" stroke="black" points="727.788,-95.9117 698.788,-95.9117 698.788,-77.9117 727.788,-77.9117 727.788,-95.9117"/>
<text text-anchor="middle" x="713.288" y="-84.7117" font-family="Times New Roman,serif" font-size="9.00">&#45;15</text>
</g>
<!-- &#45;15&#45;&gt;0 -->
<g id="edge55" class="edge"><title>&#45;15&#45;&gt;0</title>
<path fill="none" stroke="red" stroke-width="0.123748" d="M720.731,-77.8853C724.95,-73.7428 730.526,-68.9003 736.288,-65.6985 782.35,-40.1028 843.114,-26.1333 876.56,-19.9063"/>
<polygon fill="red" stroke="red" stroke-width="0.123748" points="877.562,-23.283 886.795,-18.0857 876.336,-16.3912 877.562,-23.283"/>
</g>
<!-- &#45;15&#45;&gt;1 -->
<g id="edge56" class="edge"><title>&#45;15&#45;&gt;1</title>
<path fill="none" stroke="green" stroke-width="0.296426" d="M720.561,-77.5513C724.73,-73.3109 730.313,-68.4815 736.288,-65.6985 832.869,-20.7165 868.389,-48.3355 973.288,-29.6985 987.838,-27.1135 1004.06,-23.8263 1017,-21.1032"/>
<polygon fill="green" stroke="green" stroke-width="0.296426" points="1017.95,-24.4806 1027,-18.9763 1016.49,-17.6338 1017.95,-24.4806"/>
</g>
<!-- &#45;15&#45;&gt;2 -->
<g id="edge57" class="edge"><title>&#45;15&#45;&gt;2</title>
<path fill="none" stroke="green" stroke-width="0.297623" stroke-dasharray="1,5" d="M720.118,-77.8627C724.311,-73.4952 730.061,-68.4419 736.288,-65.6985 870.898,-6.39215 925.485,-75.4362 1065.29,-29.6985 1066.17,-29.4105 1067.05,-29.0876 1067.93,-28.7365"/>
<polygon fill="green" stroke="green" stroke-width="0.297623" points="1069.64,-31.7949 1077.04,-24.2134 1066.53,-25.525 1069.64,-31.7949"/>
</g>
<!-- &#45;15&#45;&gt;3 -->
<g id="edge58" class="edge"><title>&#45;15&#45;&gt;3</title>
<path fill="none" stroke="red" stroke-width="0.119851" d="M720.604,-77.6402C724.785,-73.4259 730.366,-68.593 736.288,-65.6985 813.113,-28.1499 845.134,-59.485 925.288,-29.6985 926.156,-29.3759 927.03,-29.0235 927.902,-28.6477"/>
<polygon fill="red" stroke="red" stroke-width="0.119851" points="929.664,-31.6781 936.973,-24.0089 926.476,-25.4458 929.664,-31.6781"/>
</g>
<!-- &#45;16 -->
<g id="node16" class="node"><title>&#45;16</title>
<polygon fill="lightgray" stroke="black" points="774.788,-95.9117 745.788,-95.9117 745.788,-77.9117 774.788,-77.9117 774.788,-95.9117"/>
<text text-anchor="middle" x="760.288" y="-84.7117" font-family="Times New Roman,serif" font-size="9.00">&#45;16</text>
</g>
<!-- &#45;16&#45;&gt;0 -->
<g id="edge59" class="edge"><title>&#45;16&#45;&gt;0</title>
<path fill="none" stroke="green" stroke-width="0.138287" d="M768.29,-77.7294C772.493,-73.7422 777.885,-69.0889 783.288,-65.6985 813.782,-46.5652 852.893,-31.6974 877.53,-23.3508"/>
<polygon fill="green" stroke="green" stroke-width="0.138287" points="878.737,-26.6383 887.135,-20.1796 876.542,-19.9912 878.737,-26.6383"/>
</g>
<!-- &#45;16&#45;&gt;1 -->
<g id="edge60" class="edge"><title>&#45;16&#45;&gt;1</title>
<path fill="none" stroke="green" stroke-width="0.625461" d="M767.602,-77.6379C771.783,-73.4229 777.365,-68.5901 783.288,-65.6985 860.524,-27.9956 888.955,-46.275 973.288,-29.6985 987.788,-26.8484 1004,-23.5501 1016.96,-20.8874"/>
<polygon fill="green" stroke="green" stroke-width="0.625461" points="1017.88,-24.271 1026.97,-18.8241 1016.47,-17.4151 1017.88,-24.271"/>
</g>
<!-- &#45;16&#45;&gt;2 -->
<g id="edge61" class="edge"><title>&#45;16&#45;&gt;2</title>
<path fill="none" stroke="red" stroke-width="0.294799" d="M767.137,-77.9046C771.336,-73.5511 777.086,-68.4978 783.288,-65.6985 898.451,-13.7184 945.559,-70.0641 1065.29,-29.6985 1066.17,-29.4026 1067.05,-29.073 1067.93,-28.7163"/>
<polygon fill="red" stroke="red" stroke-width="0.294799" points="1069.65,-31.7682 1077.03,-24.1668 1066.52,-25.5067 1069.65,-31.7682"/>
</g>
<!-- &#45;16&#45;&gt;3 -->
<g id="edge62" class="edge"><title>&#45;16&#45;&gt;3</title>
<path fill="none" stroke="green" stroke-width="0.220556" d="M767.675,-77.781C771.877,-73.6079 777.456,-68.7695 783.288,-65.6985 840.898,-35.3652 864.967,-54.2005 925.288,-29.6985 926.146,-29.35 927.011,-28.9756 927.876,-28.5812"/>
<polygon fill="green" stroke="green" stroke-width="0.220556" points="929.674,-31.591 936.914,-23.8558 926.43,-25.3877 929.674,-31.591"/>
</g>
<!-- &#45;17 -->
<g id="node17" class="node"><title>&#45;17</title>
<polygon fill="lightgray" stroke="black" points="821.788,-95.9117 792.788,-95.9117 792.788,-77.9117 821.788,-77.9117 821.788,-95.9117"/>
<text text-anchor="middle" x="807.288" y="-84.7117" font-family="Times New Roman,serif" font-size="9.00">&#45;17</text>
</g>
<!-- &#45;17&#45;&gt;0 -->
<g id="edge63" class="edge"><title>&#45;17&#45;&gt;0</title>
<path fill="none" stroke="red" stroke-width="0.190349" d="M816.052,-77.8088C820.265,-74.0188 825.442,-69.5112 830.288,-65.6985 846.699,-52.7888 866.157,-39.2424 880.549,-29.5348"/>
<polygon fill="red" stroke="red" stroke-width="0.190349" points="882.826,-32.2232 889.193,-23.7551 878.935,-26.4042 882.826,-32.2232"/>
</g>
<!-- &#45;17&#45;&gt;1 -->
<g id="edge64" class="edge"><title>&#45;17&#45;&gt;1</title>
<path fill="none" stroke="red" stroke-width="0.25866" d="M814.655,-77.743C818.852,-73.5588 824.431,-68.7219 830.288,-65.6985 846.916,-57.1156 965.026,-31.7884 1016.93,-20.9089"/>
<polygon fill="red" stroke="red" stroke-width="0.25866" points="1017.86,-24.2889 1026.94,-18.8179 1016.43,-17.4368 1017.86,-24.2889"/>
</g>
<!-- &#45;17&#45;&gt;2 -->
<g id="edge65" class="edge"><title>&#45;17&#45;&gt;2</title>
<path fill="none" stroke="red" stroke-width="0.10731" d="M814.563,-77.5543C818.732,-73.3148 824.315,-68.4853 830.288,-65.6985 926.044,-21.027 965.593,-64.7057 1065.29,-29.6985 1066.16,-29.3917 1067.04,-29.0527 1067.92,-28.6881"/>
<polygon fill="red" stroke="red" stroke-width="0.10731" points="1069.66,-31.7313 1077.01,-24.102 1066.5,-25.4816 1069.66,-31.7313"/>
</g>
<!-- &#45;17&#45;&gt;3 -->
<g id="edge66" class="edge"><title>&#45;17&#45;&gt;3</title>
<path fill="none" stroke="green" stroke-width="0.192748" d="M815.237,-77.6432C819.427,-73.634 824.822,-68.987 830.288,-65.6985 868.978,-42.4217 884.491,-49.0449 925.288,-29.6985 926.125,-29.3017 926.972,-28.8863 927.822,-28.4573"/>
<polygon fill="green" stroke="green" stroke-width="0.192748" points="929.683,-31.4293 936.788,-23.5706 926.333,-25.2828 929.683,-31.4293"/>
</g>
<!-- &#45;18 -->
<g id="node18" class="node"><title>&#45;18</title>
<polygon fill="lightgray" stroke="black" points="868.788,-95.9117 839.788,-95.9117 839.788,-77.9117 868.788,-77.9117 868.788,-95.9117"/>
<text text-anchor="middle" x="854.288" y="-84.7117" font-family="Times New Roman,serif" font-size="9.00">&#45;18</text>
</g>
<!-- &#45;18&#45;&gt;0 -->
<g id="edge67" class="edge"><title>&#45;18&#45;&gt;0</title>
<path fill="none" stroke="green" stroke-width="0.293626" d="M859.68,-77.8746C866.484,-67.7318 878.427,-49.9283 887.778,-35.9895"/>
<polygon fill="green" stroke="green" stroke-width="0.293626" points="890.803,-37.7615 893.468,-27.5071 884.99,-33.8618 890.803,-37.7615"/>
</g>
<!-- &#45;18&#45;&gt;1 -->
<g id="edge68" class="edge"><title>&#45;18&#45;&gt;1</title>
<path fill="none" stroke="green" stroke-width="0.557783" d="M861.734,-77.8892C865.953,-73.7478 871.529,-68.9052 877.288,-65.6985 901.581,-52.1726 977.792,-31.8321 1017.18,-21.8326"/>
<polygon fill="green" stroke="green" stroke-width="0.557783" points="1018.18,-25.1916 1027.02,-19.3563 1016.47,-18.4034 1018.18,-25.1916"/>
</g>
<!-- &#45;18&#45;&gt;2 -->
<g id="edge69" class="edge"><title>&#45;18&#45;&gt;2</title>
<path fill="none" stroke="red" stroke-width="0.368045" d="M861.605,-77.6425C865.786,-73.4288 871.367,-68.5959 877.288,-65.6985 953.703,-28.3043 985.557,-59.3719 1065.29,-29.6985 1066.16,-29.3755 1067.03,-29.0227 1067.9,-28.6466"/>
<polygon fill="red" stroke="red" stroke-width="0.368045" points="1069.66,-31.6767 1076.97,-24.0064 1066.48,-25.4448 1069.66,-31.6767"/>
</g>
<!-- &#45;18&#45;&gt;3 -->
<g id="edge70" class="edge"><title>&#45;18&#45;&gt;3</title>
<path fill="none" stroke="green" stroke-width="0.222839" d="M863.041,-77.7945C867.251,-74.0014 872.429,-69.4953 877.288,-65.6985 893.897,-52.7211 913.632,-39.1804 928.236,-29.4921"/>
<polygon fill="green" stroke="green" stroke-width="0.222839" points="930.574,-32.1439 937.009,-23.7266 926.73,-26.2942 930.574,-32.1439"/>
</g>
<!-- &#45;19 -->
<g id="node19" class="node"><title>&#45;19</title>
<polygon fill="lightgray" stroke="black" points="915.788,-95.9117 886.788,-95.9117 886.788,-77.9117 915.788,-77.9117 915.788,-95.9117"/>
<text text-anchor="middle" x="901.288" y="-84.7117" font-family="Times New Roman,serif" font-size="9.00">&#45;19</text>
</g>
<!-- &#45;19&#45;&gt;0 -->
<g id="edge71" class="edge"><title>&#45;19&#45;&gt;0</title>
<path fill="none" stroke="green" stroke-width="0.114342" d="M901.288,-77.8746C901.288,-68.7202 901.288,-53.3256 901.288,-40.1641"/>
<polygon fill="green" stroke="green" stroke-width="0.114342" points="904.788,-39.8196 901.288,-29.8197 897.788,-39.8197 904.788,-39.8196"/>
</g>
<!-- &#45;19&#45;&gt;1 -->
<g id="edge72" class="edge"><title>&#45;19&#45;&gt;1</title>
<path fill="none" stroke="red" stroke-width="0.327146" stroke-dasharray="1,5" d="M909.294,-77.7364C913.499,-73.751 918.89,-69.0972 924.288,-65.6985 954.534,-46.6564 993.31,-31.7644 1017.74,-23.3878"/>
<polygon fill="red" stroke="red" stroke-width="0.327146" points="1018.88,-26.6943 1027.26,-20.2036 1016.66,-20.0556 1018.88,-26.6943"/>
</g>
<!-- &#45;19&#45;&gt;2 -->
<g id="edge73" class="edge"><title>&#45;19&#45;&gt;2</title>
<path fill="none" stroke="green" stroke-width="0.348345" d="M908.677,-77.7849C912.88,-73.613 918.458,-68.7745 924.288,-65.6985 981.492,-35.5176 1005.39,-54.089 1065.29,-29.6985 1066.15,-29.3493 1067.01,-28.9742 1067.88,-28.5793"/>
<polygon fill="green" stroke="green" stroke-width="0.348345" points="1069.67,-31.5885 1076.91,-23.8515 1066.43,-25.3861 1069.67,-31.5885"/>
</g>
<!-- &#45;19&#45;&gt;3 -->
<g id="edge74" class="edge"><title>&#45;19&#45;&gt;3</title>
<path fill="none" stroke="green" stroke-width="0.129964" d="M906.795,-77.8746C913.743,-67.7318 925.941,-49.9283 935.49,-35.9895"/>
<polygon fill="green" stroke="green" stroke-width="0.129964" points="938.537,-37.7349 941.301,-27.5071 932.762,-33.7786 938.537,-37.7349"/>
</g>
<!-- &#45;20 -->
<g id="node20" class="node"><title>&#45;20</title>
<polygon fill="lightgray" stroke="black" points="962.788,-95.9117 933.788,-95.9117 933.788,-77.9117 962.788,-77.9117 962.788,-95.9117"/>
<text text-anchor="middle" x="948.288" y="-84.7117" font-family="Times New Roman,serif" font-size="9.00">&#45;20</text>
</g>
<!-- &#45;20&#45;&gt;0 -->
<g id="edge75" class="edge"><title>&#45;20&#45;&gt;0</title>
<path fill="none" stroke="red" stroke-width="0.127805" d="M942.897,-77.8746C936.093,-67.7318 924.15,-49.9283 914.799,-35.9895"/>
<polygon fill="red" stroke="red" stroke-width="0.127805" points="917.586,-33.8618 909.109,-27.5071 911.773,-37.7615 917.586,-33.8618"/>
</g>
<!-- &#45;20&#45;&gt;1 -->
<g id="edge76" class="edge"><title>&#45;20&#45;&gt;1</title>
<path fill="none" stroke="green" stroke-width="0.417261" d="M957.064,-77.8233C961.279,-74.0365 966.455,-69.5274 971.288,-65.6985 987.405,-52.932 1006.46,-39.4644 1020.61,-29.7503"/>
<polygon fill="green" stroke="green" stroke-width="0.417261" points="1022.83,-32.4745 1029.13,-23.9538 1018.89,-26.688 1022.83,-32.4745"/>
</g>
<!-- &#45;20&#45;&gt;2 -->
<g id="edge77" class="edge"><title>&#45;20&#45;&gt;2</title>
<path fill="none" stroke="red" stroke-width="0.193523" d="M956.242,-77.6513C960.433,-73.6442 965.828,-68.9967 971.288,-65.6985 1009.58,-42.5684 1024.9,-48.9381 1065.29,-29.6985 1066.12,-29.3002 1066.97,-28.8836 1067.82,-28.4535"/>
<polygon fill="red" stroke="red" stroke-width="0.193523" points="1069.68,-31.4244 1076.78,-23.5619 1066.33,-25.2797 1069.68,-31.4244"/>
</g>
<!-- &#45;20&#45;&gt;3 -->
<g id="edge78" class="edge"><title>&#45;20&#45;&gt;3</title>
<path fill="none" stroke="green" stroke-width="0.641847" d="M948.403,-77.8746C948.534,-68.7202 948.753,-53.3256 948.941,-40.1641"/>
<polygon fill="green" stroke="green" stroke-width="0.641847" points="952.446,-39.8686 949.089,-29.8197 945.446,-39.7687 952.446,-39.8686"/>
</g>
<!-- &#45;21 -->
<g id="node21" class="node"><title>&#45;21</title>
<polygon fill="lightgray" stroke="black" points="1009.79,-95.9117 980.788,-95.9117 980.788,-77.9117 1009.79,-77.9117 1009.79,-95.9117"/>
<text text-anchor="middle" x="995.288" y="-84.7117" font-family="Times New Roman,serif" font-size="9.00">&#45;21</text>
</g>
<!-- &#45;21&#45;&gt;0 -->
<g id="edge79" class="edge"><title>&#45;21&#45;&gt;0</title>
<path fill="none" stroke="green" stroke-width="0.118881" d="M986.087,-77.8614C981.679,-74.083 976.283,-69.5698 971.288,-65.6985 955.038,-53.1022 935.998,-39.6216 921.881,-29.8591"/>
<polygon fill="green" stroke="green" stroke-width="0.118881" points="923.618,-26.806 913.394,-24.0274 919.653,-32.5753 923.618,-26.806"/>
</g>
<!-- &#45;21&#45;&gt;1 -->
<g id="edge80" class="edge"><title>&#45;21&#45;&gt;1</title>
<path fill="none" stroke="red" stroke-width="0.113418" d="M1000.57,-77.8746C1007.19,-67.7908 1018.78,-50.1351 1027.91,-36.233"/>
<polygon fill="red" stroke="red" stroke-width="0.113418" points="1030.91,-38.037 1033.47,-27.7567 1025.06,-34.1951 1030.91,-38.037"/>
</g>
<!-- &#45;21&#45;&gt;2 -->
<g id="edge81" class="edge"><title>&#45;21&#45;&gt;2</title>
<path fill="none" stroke="green" stroke-width="0.338009" d="M1004.05,-77.8088C1008.27,-74.0188 1013.44,-69.5112 1018.29,-65.6985 1034.7,-52.7888 1054.16,-39.2424 1068.55,-29.5348"/>
<polygon fill="green" stroke="green" stroke-width="0.338009" points="1070.83,-32.2232 1077.19,-23.7551 1066.93,-26.4042 1070.83,-32.2232"/>
</g>
<!-- &#45;21&#45;&gt;3 -->
<g id="edge82" class="edge"><title>&#45;21&#45;&gt;3</title>
<path fill="none" stroke="green" stroke-width="0.308432" d="M990.012,-77.8746C983.391,-67.7908 971.799,-50.1351 962.671,-36.233"/>
<polygon fill="green" stroke="green" stroke-width="0.308432" points="965.52,-34.1951 957.106,-27.7567 959.669,-38.037 965.52,-34.1951"/>
</g>
<!-- &#45;22 -->
<g id="node22" class="node"><title>&#45;22</title>
<polygon fill="lightgray" stroke="black" points="107.788,-95.9117 78.7883,-95.9117 78.7883,-77.9117 107.788,-77.9117 107.788,-95.9117"/>
<text text-anchor="middle" x="93.2883" y="-84.7117" font-family="Times New Roman,serif" font-size="9.00">&#45;22</text>
</g>
<!-- &#45;22&#45;&gt;0 -->
<g id="edge83" class="edge"><title>&#45;22&#45;&gt;0</title>
<path fill="none" stroke="red" stroke-width="0.163267" d="M100.073,-77.7557C104.251,-73.3526 110.001,-68.2993 116.288,-65.6985 187.87,-36.0895 749.249,-19.8064 875.943,-16.4873"/>
<polygon fill="red" stroke="red" stroke-width="0.163267" points="876.294,-19.9795 886.2,-16.2222 876.113,-12.9818 876.294,-19.9795"/>
</g>
<!-- &#45;22&#45;&gt;3 -->
<g id="edge84" class="edge"><title>&#45;22&#45;&gt;3</title>
<path fill="none" stroke="green" stroke-width="0.287329" d="M100.054,-77.711C104.226,-73.2929 109.976,-68.2396 116.288,-65.6985 283.224,1.50741 752.537,-80.1082 925.288,-29.6985 926.35,-29.3885 927.415,-29.0225 928.474,-28.613"/>
<polygon fill="green" stroke="green" stroke-width="0.287329" points="930.187,-31.6706 937.59,-24.0918 927.076,-25.3995 930.187,-31.6706"/>
</g>
<!-- &#45;23 -->
<g id="node23" class="node"><title>&#45;23</title>
<polygon fill="lightgray" stroke="black" points="1056.79,-95.9117 1027.79,-95.9117 1027.79,-77.9117 1056.79,-77.9117 1056.79,-95.9117"/>
<text text-anchor="middle" x="1042.29" y="-84.7117" font-family="Times New Roman,serif" font-size="9.00">&#45;23</text>
</g>
<!-- &#45;23&#45;&gt;0 -->
<g id="edge85" class="edge"><title>&#45;23&#45;&gt;0</title>
<path fill="none" stroke="green" stroke-width="0.143951" d="M1033.93,-77.679C1029.54,-73.6789 1023.91,-69.0294 1018.29,-65.6985 980.151,-43.1148 965.268,-48.8314 925.288,-29.6985 924.453,-29.2987 923.608,-28.8808 922.758,-28.4496"/>
<polygon fill="green" stroke="green" stroke-width="0.143951" points="924.25,-25.2765 913.797,-23.5531 920.894,-31.4194 924.25,-25.2765"/>
</g>
<!-- &#45;23&#45;&gt;1 -->
<g id="edge86" class="edge"><title>&#45;23&#45;&gt;1</title>
<path fill="none" stroke="green" stroke-width="0.324333" d="M1042.17,-77.8746C1042.04,-68.7202 1041.82,-53.3256 1041.64,-40.1641"/>
<polygon fill="green" stroke="green" stroke-width="0.324333" points="1045.13,-39.7687 1041.49,-29.8197 1038.13,-39.8686 1045.13,-39.7687"/>
</g>
<!-- &#45;23&#45;&gt;2 -->
<g id="edge87" class="edge"><title>&#45;23&#45;&gt;2</title>
<path fill="none" stroke="green" stroke-width="0.623063" d="M1047.68,-77.8746C1054.48,-67.7318 1066.43,-49.9283 1075.78,-35.9895"/>
<polygon fill="green" stroke="green" stroke-width="0.623063" points="1078.8,-37.7615 1081.47,-27.5071 1072.99,-33.8618 1078.8,-37.7615"/>
</g>
<!-- &#45;23&#45;&gt;3 -->
<g id="edge88" class="edge"><title>&#45;23&#45;&gt;3</title>
<path fill="none" stroke="red" stroke-width="0.64599" d="M1033.08,-77.8767C1028.66,-74.1016 1023.27,-69.5868 1018.29,-65.6985 1002.23,-53.1666 983.469,-39.681 969.564,-29.9003"/>
<polygon fill="red" stroke="red" stroke-width="0.64599" points="971.406,-26.9178 961.205,-24.0552 967.394,-32.6543 971.406,-26.9178"/>
</g>
<!-- &#45;24 -->
<g id="node24" class="node"><title>&#45;24</title>
<polygon fill="lightgray" stroke="black" points="1103.79,-95.9117 1074.79,-95.9117 1074.79,-77.9117 1103.79,-77.9117 1103.79,-95.9117"/>
<text text-anchor="middle" x="1089.29" y="-84.7117" font-family="Times New Roman,serif" font-size="9.00">&#45;24</text>
</g>
<!-- &#45;24&#45;&gt;0 -->
<g id="edge89" class="edge"><title>&#45;24&#45;&gt;0</title>
<path fill="none" stroke="green" stroke-width="0.485115" d="M1081.52,-77.7995C1077.11,-73.6318 1071.29,-68.7927 1065.29,-65.6985 1008.18,-36.269 984.771,-53.9775 925.288,-29.6985 924.431,-29.3485 923.567,-28.9729 922.702,-28.5774"/>
<polygon fill="green" stroke="green" stroke-width="0.485115" points="924.149,-25.3845 913.666,-23.8472 920.902,-31.5861 924.149,-25.3845"/>
</g>
<!-- &#45;24&#45;&gt;1 -->
<g id="edge90" class="edge"><title>&#45;24&#45;&gt;1</title>
<path fill="none" stroke="red" stroke-width="0.101382" d="M1083.78,-77.8746C1076.83,-67.7318 1064.64,-49.9283 1055.09,-35.9895"/>
<polygon fill="red" stroke="red" stroke-width="0.101382" points="1057.81,-33.7786 1049.28,-27.5071 1052.04,-37.7349 1057.81,-33.7786"/>
</g>
<!-- &#45;24&#45;&gt;2 -->
<g id="edge91" class="edge"><title>&#45;24&#45;&gt;2</title>
<path fill="none" stroke="green" stroke-width="0.141745" d="M1089.29,-77.8746C1089.29,-68.7202 1089.29,-53.3256 1089.29,-40.1641"/>
<polygon fill="green" stroke="green" stroke-width="0.141745" points="1092.79,-39.8196 1089.29,-29.8197 1085.79,-39.8197 1092.79,-39.8196"/>
</g>
<!-- &#45;24&#45;&gt;3 -->
<g id="edge92" class="edge"><title>&#45;24&#45;&gt;3</title>
<path fill="none" stroke="red" stroke-width="0.108648" d="M1080.87,-77.7655C1076.47,-73.7875 1070.85,-69.1316 1065.29,-65.6985 1035.23,-47.1473 997.046,-32.1982 972.88,-23.6675"/>
<polygon fill="red" stroke="red" stroke-width="0.108648" points="973.738,-20.2615 963.144,-20.3112 971.457,-26.8793 973.738,-20.2615"/>
</g>
<!-- &#45;25 -->
<g id="node25" class="node"><title>&#45;25</title>
<polygon fill="lightgray" stroke="black" points="1150.79,-95.9117 1121.79,-95.9117 1121.79,-77.9117 1150.79,-77.9117 1150.79,-95.9117"/>
<text text-anchor="middle" x="1136.29" y="-84.7117" font-family="Times New Roman,serif" font-size="9.00">&#45;25</text>
</g>
<!-- &#45;25&#45;&gt;0 -->
<g id="edge93" class="edge"><title>&#45;25&#45;&gt;0</title>
<path fill="none" stroke="green" stroke-width="0.362023" d="M1128.97,-77.6425C1124.79,-73.4288 1119.21,-68.5959 1113.29,-65.6985 1036.87,-28.3043 1005.02,-59.3719 925.288,-29.6985 924.42,-29.3755 923.547,-29.0227 922.675,-28.6466"/>
<polygon fill="green" stroke="green" stroke-width="0.362023" points="924.101,-25.4448 913.604,-24.0064 920.913,-31.6767 924.101,-25.4448"/>
</g>
<!-- &#45;25&#45;&gt;1 -->
<g id="edge94" class="edge"><title>&#45;25&#45;&gt;1</title>
<path fill="none" stroke="red" stroke-width="0.330285" d="M1127.54,-77.7945C1123.33,-74.0014 1118.15,-69.4953 1113.29,-65.6985 1096.68,-52.7211 1076.95,-39.1804 1062.34,-29.4921"/>
<polygon fill="red" stroke="red" stroke-width="0.330285" points="1063.85,-26.2942 1053.57,-23.7266 1060,-32.1439 1063.85,-26.2942"/>
</g>
<!-- &#45;25&#45;&gt;2 -->
<g id="edge95" class="edge"><title>&#45;25&#45;&gt;2</title>
<path fill="none" stroke="red" stroke-width="0.104727" d="M1130.9,-77.8746C1124.09,-67.7318 1112.15,-49.9283 1102.8,-35.9895"/>
<polygon fill="red" stroke="red" stroke-width="0.104727" points="1105.59,-33.8618 1097.11,-27.5071 1099.77,-37.7615 1105.59,-33.8618"/>
</g>
<!-- &#45;25&#45;&gt;3 -->
<g id="edge96" class="edge"><title>&#45;25&#45;&gt;3</title>
<path fill="none" stroke="red" stroke-width="0.123718" d="M1128.84,-77.8892C1124.62,-73.7478 1119.05,-68.9052 1113.29,-65.6985 1089,-52.1726 1012.78,-31.8321 973.394,-21.8326"/>
<polygon fill="red" stroke="red" stroke-width="0.123718" points="974.108,-18.4034 963.557,-19.3563 972.4,-25.1916 974.108,-18.4034"/>
</g>
<!-- &#45;26 -->
<g id="node26" class="node"><title>&#45;26</title>
<polygon fill="lightgray" stroke="black" points="1197.79,-95.9117 1168.79,-95.9117 1168.79,-77.9117 1197.79,-77.9117 1197.79,-95.9117"/>
<text text-anchor="middle" x="1183.29" y="-84.7117" font-family="Times New Roman,serif" font-size="9.00">&#45;26</text>
</g>
<!-- &#45;26&#45;&gt;0 -->
<g id="edge97" class="edge"><title>&#45;26&#45;&gt;0</title>
<path fill="none" stroke="green" stroke-width="0.254358" d="M1176.01,-77.5543C1171.84,-73.3148 1166.26,-68.4853 1160.29,-65.6985 1064.53,-21.027 1024.98,-64.7057 925.288,-29.6985 924.415,-29.3917 923.537,-29.0527 922.66,-28.6881"/>
<polygon fill="green" stroke="green" stroke-width="0.254358" points="924.074,-25.4816 913.57,-24.102 920.921,-31.7313 924.074,-25.4816"/>
</g>
<!-- &#45;26&#45;&gt;1 -->
<g id="edge98" class="edge"><title>&#45;26&#45;&gt;1</title>
<path fill="none" stroke="red" stroke-width="0.142409" d="M1175.34,-77.6432C1171.15,-73.634 1165.75,-68.987 1160.29,-65.6985 1121.6,-42.4217 1106.09,-49.0449 1065.29,-29.6985 1064.45,-29.3017 1063.6,-28.8863 1062.75,-28.4573"/>
<polygon fill="red" stroke="red" stroke-width="0.142409" points="1064.24,-25.2828 1053.79,-23.5706 1060.89,-31.4293 1064.24,-25.2828"/>
</g>
<!-- &#45;26&#45;&gt;2 -->
<g id="edge99" class="edge"><title>&#45;26&#45;&gt;2</title>
<path fill="none" stroke="red" stroke-width="0.419163" d="M1174.52,-77.8088C1170.31,-74.0188 1165.13,-69.5112 1160.29,-65.6985 1143.88,-52.7888 1124.42,-39.2424 1110.03,-29.5348"/>
<polygon fill="red" stroke="red" stroke-width="0.419163" points="1111.64,-26.4042 1101.38,-23.7551 1107.75,-32.2232 1111.64,-26.4042"/>
</g>
<!-- &#45;26&#45;&gt;3 -->
<g id="edge100" class="edge"><title>&#45;26&#45;&gt;3</title>
<path fill="none" stroke="green" stroke-width="0.159026" d="M1175.92,-77.743C1171.73,-73.5588 1166.15,-68.7219 1160.29,-65.6985 1143.66,-57.1156 1025.55,-31.7884 973.65,-20.9089"/>
<polygon fill="green" stroke="green" stroke-width="0.159026" points="974.145,-17.4368 963.64,-18.8179 972.713,-24.2889 974.145,-17.4368"/>
</g>
<!-- &#45;27 -->
<g id="node27" class="node"><title>&#45;27</title>
<polygon fill="lightgray" stroke="black" points="197.788,-162.125 168.788,-162.125 168.788,-144.125 197.788,-144.125 197.788,-162.125"/>
<text text-anchor="middle" x="183.288" y="-150.925" font-family="Times New Roman,serif" font-size="9.00">&#45;27</text>
</g>
<!-- &#45;27&#45;&gt;0 -->
<g id="edge101" class="edge"><title>&#45;27&#45;&gt;0</title>
<path fill="none" stroke="green" stroke-width="0.262588" stroke-dasharray="1,5" d="M168.782,-150.703C130.638,-146.634 29.1009,-133.571 9.28833,-108.125 -2.2959,-93.2467 -3.66768,-79.3988 9.28833,-65.6985 39.8977,-33.3308 734.179,-18.9075 876.092,-16.2924"/>
<polygon fill="green" stroke="green" stroke-width="0.262588" points="876.447,-19.7866 886.382,-16.1057 876.32,-12.7877 876.447,-19.7866"/>
</g>
<!-- &#45;27&#45;&gt;1 -->
<g id="edge102" class="edge"><title>&#45;27&#45;&gt;1</title>
<path fill="none" stroke="red" stroke-width="0.337551" d="M197.925,-152.022C360.309,-150.851 1819.77,-139.461 1850.29,-108.125 1863.44,-94.6168 1863.31,-79.3338 1850.29,-65.6985 1789.98,-2.55986 1149.09,-54.214 1065.29,-29.6985 1064.23,-29.3878 1063.16,-29.0212 1062.1,-28.6112"/>
<polygon fill="red" stroke="red" stroke-width="0.337551" points="1063.5,-25.3978 1052.99,-24.0882 1060.39,-31.6683 1063.5,-25.3978"/>
</g>
<!-- &#45;27&#45;&gt;2 -->
<g id="edge103" class="edge"><title>&#45;27&#45;&gt;2</title>
<path fill="none" stroke="green" stroke-width="0.177147" d="M197.895,-152.042C364.675,-151.06 1904.12,-141.107 1936.29,-108.125 1949.45,-94.6253 1949.22,-79.4179 1936.29,-65.6985 1907.35,-35.0115 1252.08,-19.3302 1114.49,-16.3697"/>
<polygon fill="green" stroke="green" stroke-width="0.177147" points="1114.21,-12.863 1104.14,-16.1501 1114.06,-19.8615 1114.21,-12.863"/>
</g>
<!-- &#45;27&#45;&gt;3 -->
<g id="edge104" class="edge"><title>&#45;27&#45;&gt;3</title>
<path fill="none" stroke="red" stroke-width="0.503781" d="M182.223,-144.115C180.413,-126.715 178.946,-85.4421 202.288,-65.6985 263.699,-13.7547 848.135,-52.4334 925.288,-29.6985 926.35,-29.3857 927.414,-29.0174 928.472,-28.606"/>
<polygon fill="red" stroke="red" stroke-width="0.503781" points="930.188,-31.6619 937.586,-24.078 927.073,-25.3929 930.188,-31.6619"/>
</g>
<!-- 420 -->
<g id="node45" class="node"><title>420</title>
<ellipse fill="white" stroke="black" cx="39.2883" cy="-86.9117" rx="21.4286" ry="21.4286"/>
<text text-anchor="middle" x="39.2883" y="-84.7117" font-family="Times New Roman,serif" font-size="9.00">420</text>
</g>
<!-- &#45;27&#45;&gt;420 -->
<g id="edge155" class="edge"><title>&#45;27&#45;&gt;420</title>
<path fill="none" stroke="green" stroke-width="0.3" d="M168.435,-147.579C146.226,-140.522 103.337,-125.878 69.2883,-108.125 67.7569,-107.326 66.2084,-106.466 64.664,-105.567"/>
<polygon fill="green" stroke="green" stroke-width="0.3" points="66.345,-102.49 56.0133,-100.143 62.6265,-108.42 66.345,-102.49"/>
</g>
<!-- &#45;28 -->
<g id="node28" class="node"><title>&#45;28</title>
<polygon fill="lightgray" stroke="black" points="1244.79,-95.9117 1215.79,-95.9117 1215.79,-77.9117 1244.79,-77.9117 1244.79,-95.9117"/>
<text text-anchor="middle" x="1230.29" y="-84.7117" font-family="Times New Roman,serif" font-size="9.00">&#45;28</text>
</g>
<!-- &#45;28&#45;&gt;0 -->
<g id="edge105" class="edge"><title>&#45;28&#45;&gt;0</title>
<path fill="none" stroke="green" stroke-width="0.381614" d="M1223.44,-77.9046C1219.24,-73.5511 1213.49,-68.4978 1207.29,-65.6985 1092.13,-13.7184 1045.02,-70.0641 925.288,-29.6985 924.411,-29.4026 923.53,-29.073 922.65,-28.7163"/>
<polygon fill="green" stroke="green" stroke-width="0.381614" points="924.057,-25.5067 913.547,-24.1668 920.928,-31.7682 924.057,-25.5067"/>
</g>
<!-- &#45;28&#45;&gt;1 -->
<g id="edge106" class="edge"><title>&#45;28&#45;&gt;1</title>
<path fill="none" stroke="green" stroke-width="0.317155" d="M1222.9,-77.781C1218.7,-73.6079 1213.12,-68.7695 1207.29,-65.6985 1149.68,-35.3652 1125.61,-54.2005 1065.29,-29.6985 1064.43,-29.35 1063.57,-28.9756 1062.7,-28.5812"/>
<polygon fill="green" stroke="green" stroke-width="0.317155" points="1064.15,-25.3877 1053.66,-23.8558 1060.9,-31.591 1064.15,-25.3877"/>
</g>
<!-- &#45;28&#45;&gt;2 -->
<g id="edge107" class="edge"><title>&#45;28&#45;&gt;2</title>
<path fill="none" stroke="red" stroke-width="0.333715" d="M1222.29,-77.7294C1218.08,-73.7422 1212.69,-69.0889 1207.29,-65.6985 1176.79,-46.5652 1137.68,-31.6974 1113.05,-23.3508"/>
<polygon fill="red" stroke="red" stroke-width="0.333715" points="1114.03,-19.9912 1103.44,-20.1796 1111.84,-26.6383 1114.03,-19.9912"/>
</g>
<!-- &#45;28&#45;&gt;3 -->
<g id="edge108" class="edge"><title>&#45;28&#45;&gt;3</title>
<path fill="none" stroke="red" stroke-width="0.301179" d="M1222.97,-77.6379C1218.79,-73.4229 1213.21,-68.5901 1207.29,-65.6985 1130.05,-27.9956 1101.62,-46.275 1017.29,-29.6985 1002.79,-26.8484 986.573,-23.5501 973.614,-20.8874"/>
<polygon fill="red" stroke="red" stroke-width="0.301179" points="974.105,-17.4151 963.604,-18.8241 972.692,-24.271 974.105,-17.4151"/>
</g>
<!-- &#45;29 -->
<g id="node29" class="node"><title>&#45;29</title>
<polygon fill="lightgray" stroke="black" points="1926.79,-95.9117 1897.79,-95.9117 1897.79,-77.9117 1926.79,-77.9117 1926.79,-95.9117"/>
<text text-anchor="middle" x="1912.29" y="-84.7117" font-family="Times New Roman,serif" font-size="9.00">&#45;29</text>
</g>
<!-- &#45;29&#45;&gt;1 -->
<g id="edge109" class="edge"><title>&#45;29&#45;&gt;1</title>
<path fill="none" stroke="red" stroke-width="0.535987" d="M1903.37,-77.6938C1897.98,-73.2701 1890.73,-68.2168 1883.29,-65.6985 1710.94,-7.36669 1239.97,-80.6253 1065.29,-29.6985 1064.23,-29.3888 1063.16,-29.023 1062.1,-28.6136"/>
<polygon fill="red" stroke="red" stroke-width="0.535987" points="1063.5,-25.4001 1052.99,-24.093 1060.39,-31.6714 1063.5,-25.4001"/>
</g>
<!-- &#45;29&#45;&gt;2 -->
<g id="edge110" class="edge"><title>&#45;29&#45;&gt;2</title>
<path fill="none" stroke="red" stroke-width="0.172948" stroke-dasharray="1,5" d="M1903.35,-77.746C1897.96,-73.3396 1890.71,-68.2863 1883.29,-65.6985 1736.43,-14.4561 1233.36,-14.7944 1114.57,-15.6158"/>
<polygon fill="red" stroke="red" stroke-width="0.172948" points="1114.27,-12.1179 1104.3,-15.6951 1114.33,-19.1177 1114.27,-12.1179"/>
</g>
<!-- &#45;29&#45;&gt;3 -->
<g id="edge111" class="edge"><title>&#45;29&#45;&gt;3</title>
<path fill="none" stroke="red" stroke-width="0.432965" d="M1897.3,-79.7489C1884.92,-74.9739 1866.78,-68.6846 1850.29,-65.6985 1485.65,0.342225 1385.1,-74.8155 1017.29,-29.6985 1002.62,-27.8993 986.398,-24.6449 973.478,-21.7428"/>
<polygon fill="red" stroke="red" stroke-width="0.432965" points="974.041,-18.2805 963.508,-19.4276 972.457,-25.099 974.041,-18.2805"/>
</g>
<!-- &#45;30 -->
<g id="node30" class="node"><title>&#45;30</title>
<polygon fill="lightgray" stroke="black" points="1291.79,-95.9117 1262.79,-95.9117 1262.79,-77.9117 1291.79,-77.9117 1291.79,-95.9117"/>
<text text-anchor="middle" x="1277.29" y="-84.7117" font-family="Times New Roman,serif" font-size="9.00">&#45;30</text>
</g>
<!-- &#45;30&#45;&gt;0 -->
<g id="edge112" class="edge"><title>&#45;30&#45;&gt;0</title>
<path fill="none" stroke="green" stroke-width="0.240305" d="M1270.46,-77.8627C1266.27,-73.4952 1260.52,-68.4419 1254.29,-65.6985 1119.68,-6.39215 1065.09,-75.4362 925.288,-29.6985 924.408,-29.4105 923.525,-29.0876 922.643,-28.7365"/>
<polygon fill="green" stroke="green" stroke-width="0.240305" points="924.045,-25.525 913.532,-24.2134 920.933,-31.7949 924.045,-25.525"/>
</g>
<!-- &#45;30&#45;&gt;1 -->
<g id="edge113" class="edge"><title>&#45;30&#45;&gt;1</title>
<path fill="none" stroke="red" stroke-width="0.196594" d="M1269.97,-77.6402C1265.79,-73.4259 1260.21,-68.593 1254.29,-65.6985 1177.46,-28.1499 1145.44,-59.485 1065.29,-29.6985 1064.42,-29.3759 1063.55,-29.0235 1062.67,-28.6477"/>
<polygon fill="red" stroke="red" stroke-width="0.196594" points="1064.1,-25.4458 1053.6,-24.0089 1060.91,-31.6781 1064.1,-25.4458"/>
</g>
<!-- &#45;30&#45;&gt;2 -->
<g id="edge114" class="edge"><title>&#45;30&#45;&gt;2</title>
<path fill="none" stroke="red" stroke-width="0.214366" d="M1269.85,-77.8853C1265.63,-73.7428 1260.05,-68.9003 1254.29,-65.6985 1208.23,-40.1028 1147.46,-26.1333 1114.02,-19.9063"/>
<polygon fill="red" stroke="red" stroke-width="0.214366" points="1114.24,-16.3912 1103.78,-18.0857 1113.01,-23.283 1114.24,-16.3912"/>
</g>
<!-- &#45;30&#45;&gt;3 -->
<g id="edge115" class="edge"><title>&#45;30&#45;&gt;3</title>
<path fill="none" stroke="red" stroke-width="0.423138" d="M1270.02,-77.5513C1265.85,-73.3109 1260.26,-68.4815 1254.29,-65.6985 1157.71,-20.7165 1122.19,-48.3355 1017.29,-29.6985 1002.74,-27.1135 986.521,-23.8263 973.574,-21.1032"/>
<polygon fill="red" stroke="red" stroke-width="0.423138" points="974.085,-17.6338 963.576,-18.9763 972.629,-24.4806 974.085,-17.6338"/>
</g>
<!-- &#45;31 -->
<g id="node31" class="node"><title>&#45;31</title>
<polygon fill="lightgray" stroke="black" points="1338.79,-95.9117 1309.79,-95.9117 1309.79,-77.9117 1338.79,-77.9117 1338.79,-95.9117"/>
<text text-anchor="middle" x="1324.29" y="-84.7117" font-family="Times New Roman,serif" font-size="9.00">&#45;31</text>
</g>
<!-- &#45;31&#45;&gt;0 -->
<g id="edge116" class="edge"><title>&#45;31&#45;&gt;0</title>
<path fill="none" stroke="green" stroke-width="0.345744" d="M1317.47,-77.831C1313.28,-73.453 1307.53,-68.3997 1301.29,-65.6985 1147.21,0.944919 1085.19,-80.8167 925.288,-29.6985 924.234,-29.3616 923.176,-28.9734 922.123,-28.5459"/>
<polygon fill="green" stroke="green" stroke-width="0.345744" points="923.532,-25.3367 913.027,-23.9589 920.38,-31.5869 923.532,-25.3367"/>
</g>
<!-- &#45;31&#45;&gt;1 -->
<g id="edge117" class="edge"><title>&#45;31&#45;&gt;1</title>
<path fill="none" stroke="green" stroke-width="0.301703" d="M1317.01,-77.5528C1312.85,-73.3128 1307.26,-68.4834 1301.29,-65.6985 1205.12,-20.8718 1165.41,-64.8195 1065.29,-29.6985 1064.41,-29.392 1063.54,-29.0532 1062.66,-28.6888"/>
<polygon fill="green" stroke="green" stroke-width="0.301703" points="1064.07,-25.4822 1053.57,-24.1037 1060.92,-31.7322 1064.07,-25.4822"/>
</g>
<!-- &#45;31&#45;&gt;2 -->
<g id="edge118" class="edge"><title>&#45;31&#45;&gt;2</title>
<path fill="none" stroke="green" stroke-width="0.407959" d="M1316.92,-77.7406C1312.73,-73.5556 1307.15,-68.7188 1301.29,-65.6985 1238.8,-33.4838 1155.23,-21.7675 1114.18,-17.7677"/>
<polygon fill="green" stroke="green" stroke-width="0.407959" points="1114.29,-14.263 1104.01,-16.8523 1113.66,-21.2348 1114.29,-14.263"/>
</g>
<!-- &#45;31&#45;&gt;3 -->
<g id="edge119" class="edge"><title>&#45;31&#45;&gt;3</title>
<path fill="none" stroke="green" stroke-width="0.116646" d="M1317.44,-77.9025C1313.24,-73.5483 1307.49,-68.495 1301.29,-65.6985 1185.3,-13.4069 1142.82,-50.4087 1017.29,-29.6985 1002.71,-27.2931 986.489,-24.0134 973.549,-21.2494"/>
<polygon fill="green" stroke="green" stroke-width="0.116646" points="974.073,-17.7818 963.558,-19.0795 972.587,-24.6223 974.073,-17.7818"/>
</g>
<!-- &#45;32 -->
<g id="node32" class="node"><title>&#45;32</title>
<polygon fill="lightgray" stroke="black" points="1385.79,-95.9117 1356.79,-95.9117 1356.79,-77.9117 1385.79,-77.9117 1385.79,-95.9117"/>
<text text-anchor="middle" x="1371.29" y="-84.7117" font-family="Times New Roman,serif" font-size="9.00">&#45;32</text>
</g>
<!-- &#45;32&#45;&gt;0 -->
<g id="edge120" class="edge"><title>&#45;32&#45;&gt;0</title>
<path fill="none" stroke="green" stroke-width="0.284169" d="M1364.48,-77.8063C1360.3,-73.42 1354.55,-68.3667 1348.29,-65.6985 1174.72,8.28914 1105.31,-86.2026 925.288,-29.6985 924.233,-29.3671 923.173,-28.9835 922.118,-28.5598"/>
<polygon fill="green" stroke="green" stroke-width="0.284169" points="923.525,-25.3496 913.018,-23.9863 920.382,-31.6042 923.525,-25.3496"/>
</g>
<!-- &#45;32&#45;&gt;1 -->
<g id="edge121" class="edge"><title>&#45;32&#45;&gt;1</title>
<path fill="none" stroke="red" stroke-width="0.363342" d="M1364.44,-77.9035C1360.24,-73.5497 1354.49,-68.4964 1348.29,-65.6985 1232.71,-13.5627 1185.44,-70.1783 1065.29,-29.6985 1064.41,-29.4028 1063.53,-29.0733 1062.65,-28.7168"/>
<polygon fill="red" stroke="red" stroke-width="0.363342" points="1064.06,-25.5072 1053.55,-24.1679 1060.93,-31.7689 1064.06,-25.5072"/>
</g>
<!-- &#45;32&#45;&gt;2 -->
<g id="edge122" class="edge"><title>&#45;32&#45;&gt;2</title>
<path fill="none" stroke="green" stroke-width="0.331285" d="M1363.97,-77.6447C1359.79,-73.4317 1354.21,-68.5987 1348.29,-65.6985 1268.94,-26.8217 1162.05,-18.2304 1114.23,-16.3566"/>
<polygon fill="green" stroke="green" stroke-width="0.331285" points="1114.28,-12.8565 1104.17,-16.0299 1114.05,-19.8528 1114.28,-12.8565"/>
</g>
<!-- &#45;32&#45;&gt;3 -->
<g id="edge123" class="edge"><title>&#45;32&#45;&gt;3</title>
<path fill="none" stroke="green" stroke-width="0.519828" d="M1364.46,-77.8611C1360.27,-73.4932 1354.52,-68.4399 1348.29,-65.6985 1212.85,-6.08013 1163.5,-52.4888 1017.29,-29.6985 1002.69,-27.4226 986.467,-24.1483 973.532,-21.3548"/>
<polygon fill="green" stroke="green" stroke-width="0.519828" points="974.065,-17.8884 963.546,-19.1538 972.558,-24.7243 974.065,-17.8884"/>
</g>
<!-- &#45;33 -->
<g id="node33" class="node"><title>&#45;33</title>
<polygon fill="lightgray" stroke="black" points="1432.79,-95.9117 1403.79,-95.9117 1403.79,-77.9117 1432.79,-77.9117 1432.79,-95.9117"/>
<text text-anchor="middle" x="1418.29" y="-84.7117" font-family="Times New Roman,serif" font-size="9.00">&#45;33</text>
</g>
<!-- &#45;33&#45;&gt;0 -->
<g id="edge124" class="edge"><title>&#45;33&#45;&gt;0</title>
<path fill="none" stroke="red" stroke-width="0.478372" stroke-dasharray="1,5" d="M1411.49,-77.7864C1407.31,-73.3935 1401.56,-68.3402 1395.29,-65.6985 1202.22,15.6383 1125.44,-91.5923 925.288,-29.6985 924.231,-29.3716 923.17,-28.9917 922.115,-28.5709"/>
<polygon fill="red" stroke="red" stroke-width="0.478372" points="923.52,-25.36 913.012,-24.0083 920.383,-31.618 923.52,-25.36"/>
</g>
<!-- &#45;33&#45;&gt;1 -->
<g id="edge125" class="edge"><title>&#45;33&#45;&gt;1</title>
<path fill="none" stroke="red" stroke-width="0.294226" d="M1411.46,-77.8619C1407.27,-73.4942 1401.52,-68.4409 1395.29,-65.6985 1260.26,-6.23614 1205.52,-75.5506 1065.29,-29.6985 1064.41,-29.4107 1063.52,-29.0879 1062.64,-28.7369"/>
<polygon fill="red" stroke="red" stroke-width="0.294226" points="1064.05,-25.5253 1053.53,-24.2143 1060.93,-31.7954 1064.05,-25.5253"/>
</g>
<!-- &#45;33&#45;&gt;2 -->
<g id="edge126" class="edge"><title>&#45;33&#45;&gt;2</title>
<path fill="none" stroke="red" stroke-width="0.367421" stroke-dasharray="1,5" d="M1411,-77.5768C1406.83,-73.344 1401.25,-68.5136 1395.29,-65.6985 1298.76,-20.1074 1168.13,-15.2383 1114.18,-15.358"/>
<polygon fill="red" stroke="red" stroke-width="0.367421" points="1114.13,-11.8582 1104.16,-15.442 1114.18,-18.8579 1114.13,-11.8582"/>
</g>
<!-- &#45;33&#45;&gt;3 -->
<g id="edge127" class="edge"><title>&#45;33&#45;&gt;3</title>
<path fill="none" stroke="green" stroke-width="0.185844" d="M1411.47,-77.8298C1407.28,-73.4514 1401.53,-68.3981 1395.29,-65.6985 1240.38,1.25731 1184.21,-54.573 1017.29,-29.6985 1002.67,-27.5203 986.452,-24.2502 973.52,-21.4344"/>
<polygon fill="green" stroke="green" stroke-width="0.185844" points="974.06,-17.9689 963.538,-19.21 972.537,-24.8013 974.06,-17.9689"/>
</g>
<!-- &#45;34 -->
<g id="node34" class="node"><title>&#45;34</title>
<polygon fill="lightgray" stroke="black" points="1479.79,-95.9117 1450.79,-95.9117 1450.79,-77.9117 1479.79,-77.9117 1479.79,-95.9117"/>
<text text-anchor="middle" x="1465.29" y="-84.7117" font-family="Times New Roman,serif" font-size="9.00">&#45;34</text>
</g>
<!-- &#45;34&#45;&gt;0 -->
<g id="edge128" class="edge"><title>&#45;34&#45;&gt;0</title>
<path fill="none" stroke="green" stroke-width="0.396315" d="M1458.5,-77.7701C1454.32,-73.3718 1448.57,-68.3185 1442.29,-65.6985 1229.71,22.9911 1145.58,-96.9848 925.288,-29.6985 924.23,-29.3753 923.168,-28.9983 922.112,-28.58"/>
<polygon fill="green" stroke="green" stroke-width="0.396315" points="923.515,-25.3685 913.006,-24.0264 920.385,-31.6294 923.515,-25.3685"/>
</g>
<!-- &#45;34&#45;&gt;1 -->
<g id="edge129" class="edge"><title>&#45;34&#45;&gt;1</title>
<path fill="none" stroke="green" stroke-width="0.45586" d="M1458.47,-77.8304C1454.28,-73.4522 1448.53,-68.3989 1442.29,-65.6985 1287.79,1.10111 1225.62,-80.9312 1065.29,-29.6985 1064.23,-29.3617 1063.18,-28.9736 1062.12,-28.5463"/>
<polygon fill="green" stroke="green" stroke-width="0.45586" points="1063.53,-25.337 1053.03,-23.9596 1060.38,-31.5873 1063.53,-25.337"/>
</g>
<!-- &#45;34&#45;&gt;2 -->
<g id="edge130" class="edge"><title>&#45;34&#45;&gt;2</title>
<path fill="none" stroke="green" stroke-width="0.554107" d="M1458.03,-77.5263C1453.86,-73.2787 1448.28,-68.4503 1442.29,-65.6985 1383.43,-38.6592 1184.85,-22.5122 1114.36,-17.521"/>
<polygon fill="green" stroke="green" stroke-width="0.554107" points="1114.41,-14.0159 1104.19,-16.8158 1113.93,-20.9992 1114.41,-14.0159"/>
</g>
<!-- &#45;34&#45;&gt;3 -->
<g id="edge131" class="edge"><title>&#45;34&#45;&gt;3</title>
<path fill="none" stroke="red" stroke-width="0.273826" d="M1458.48,-77.8053C1454.3,-73.4188 1448.55,-68.3655 1442.29,-65.6985 1355.09,-28.5484 1111.11,-43.1791 1017.29,-29.6985 1002.66,-27.5967 986.44,-24.3297 973.511,-21.4966"/>
<polygon fill="red" stroke="red" stroke-width="0.273826" points="974.055,-18.0317 963.531,-19.2538 972.52,-24.8614 974.055,-18.0317"/>
</g>
<!-- &#45;35 -->
<g id="node35" class="node"><title>&#45;35</title>
<polygon fill="lightgray" stroke="black" points="154.788,-95.9117 125.788,-95.9117 125.788,-77.9117 154.788,-77.9117 154.788,-95.9117"/>
<text text-anchor="middle" x="140.288" y="-84.7117" font-family="Times New Roman,serif" font-size="9.00">&#45;35</text>
</g>
<!-- &#45;35&#45;&gt;0 -->
<g id="edge132" class="edge"><title>&#45;35&#45;&gt;0</title>
<path fill="none" stroke="red" stroke-width="0.200792" d="M149.231,-77.7607C154.628,-73.3593 161.878,-68.306 169.288,-65.6985 303.886,-18.3352 763.532,-15.693 876.203,-15.7715"/>
<polygon fill="red" stroke="red" stroke-width="0.200792" points="876.274,-19.2715 886.28,-15.7868 876.285,-12.2715 876.274,-19.2715"/>
</g>
<!-- &#45;35&#45;&gt;1 -->
<g id="edge133" class="edge"><title>&#45;35&#45;&gt;1</title>
<path fill="none" stroke="red" stroke-width="0.51038" d="M155.281,-79.7642C167.659,-74.998 185.806,-68.7132 202.288,-65.6985 539.73,-3.97837 632.873,-72.0544 973.288,-29.6985 987.953,-27.8739 1004.18,-24.6184 1017.1,-21.7221"/>
<polygon fill="red" stroke="red" stroke-width="0.51038" points="1018.11,-25.0791 1027.07,-19.413 1016.53,-18.2596 1018.11,-25.0791"/>
</g>
<!-- &#45;35&#45;&gt;3 -->
<g id="edge134" class="edge"><title>&#45;35&#45;&gt;3</title>
<path fill="none" stroke="green" stroke-width="0.10923" d="M149.211,-77.7039C154.602,-73.2835 161.852,-68.2302 169.288,-65.6985 328.504,-11.4922 763.905,-77.0638 925.288,-29.6985 926.35,-29.3869 927.415,-29.0195 928.473,-28.6088"/>
<polygon fill="green" stroke="green" stroke-width="0.10923" points="930.187,-31.6654 937.588,-24.0836 927.075,-25.3956 930.187,-31.6654"/>
</g>
<!-- &#45;36 -->
<g id="node36" class="node"><title>&#45;36</title>
<polygon fill="lightgray" stroke="black" points="1526.79,-95.9117 1497.79,-95.9117 1497.79,-77.9117 1526.79,-77.9117 1526.79,-95.9117"/>
<text text-anchor="middle" x="1512.29" y="-84.7117" font-family="Times New Roman,serif" font-size="9.00">&#45;36</text>
</g>
<!-- &#45;36&#45;&gt;0 -->
<g id="edge135" class="edge"><title>&#45;36&#45;&gt;0</title>
<path fill="none" stroke="red" stroke-width="0.146316" d="M1505.5,-77.7565C1501.33,-73.3537 1495.58,-68.3004 1489.29,-65.6985 1373.24,-17.676 1045.5,-66.0389 925.288,-29.6985 924.229,-29.3783 923.167,-29.0039 922.11,-28.5876"/>
<polygon fill="red" stroke="red" stroke-width="0.146316" points="923.512,-25.3756 913.001,-24.0414 920.386,-31.6389 923.512,-25.3756"/>
</g>
<!-- &#45;36&#45;&gt;1 -->
<g id="edge136" class="edge"><title>&#45;36&#45;&gt;1</title>
<path fill="none" stroke="green" stroke-width="0.319578" d="M1505.48,-77.8058C1501.3,-73.4194 1495.55,-68.3661 1489.29,-65.6985 1315.31,8.44546 1245.74,-86.3172 1065.29,-29.6985 1064.23,-29.3672 1063.17,-28.9837 1062.12,-28.56"/>
<polygon fill="green" stroke="green" stroke-width="0.319578" points="1063.53,-25.3498 1053.02,-23.9869 1060.38,-31.6045 1063.53,-25.3498"/>
</g>
<!-- &#45;36&#45;&gt;2 -->
<g id="edge137" class="edge"><title>&#45;36&#45;&gt;2</title>
<path fill="none" stroke="green" stroke-width="0.283176" d="M1505.44,-77.8976C1501.24,-73.5418 1495.49,-68.4885 1489.29,-65.6985 1421.61,-35.2719 1191.56,-21.0472 1114.6,-17.0613"/>
<polygon fill="green" stroke="green" stroke-width="0.283176" points="1114.56,-13.5548 1104.4,-16.5467 1114.21,-20.5459 1114.56,-13.5548"/>
</g>
<!-- &#45;36&#45;&gt;3 -->
<g id="edge138" class="edge"><title>&#45;36&#45;&gt;3</title>
<path fill="none" stroke="red" stroke-width="0.277832" d="M1505.49,-77.7856C1501.31,-73.3925 1495.56,-68.3392 1489.29,-65.6985 1392.34,-24.8737 1121.47,-44.2234 1017.29,-29.6985 1002.65,-27.658 986.431,-24.3936 973.504,-21.5465"/>
<polygon fill="red" stroke="red" stroke-width="0.277832" points="974.052,-18.0822 963.526,-19.2891 972.507,-24.9096 974.052,-18.0822"/>
</g>
<!-- &#45;37 -->
<g id="node37" class="node"><title>&#45;37</title>
<polygon fill="lightgray" stroke="black" points="1573.79,-95.9117 1544.79,-95.9117 1544.79,-77.9117 1573.79,-77.9117 1573.79,-95.9117"/>
<text text-anchor="middle" x="1559.29" y="-84.7117" font-family="Times New Roman,serif" font-size="9.00">&#45;37</text>
</g>
<!-- &#45;37&#45;&gt;0 -->
<g id="edge139" class="edge"><title>&#45;37&#45;&gt;0</title>
<path fill="none" stroke="red" stroke-width="0.533724" d="M1552.51,-77.7449C1548.33,-73.3383 1542.58,-68.285 1536.29,-65.6985 1410.48,-13.9973 1055.58,-68.7369 925.288,-29.6985 924.228,-29.3809 923.165,-29.0086 922.108,-28.594"/>
<polygon fill="red" stroke="red" stroke-width="0.533724" points="923.509,-25.3817 912.998,-24.0542 920.387,-31.6469 923.509,-25.3817"/>
</g>
<!-- &#45;37&#45;&gt;1 -->
<g id="edge140" class="edge"><title>&#45;37&#45;&gt;1</title>
<path fill="none" stroke="red" stroke-width="0.295315" d="M1552.49,-77.786C1548.31,-73.393 1542.56,-68.3397 1536.29,-65.6985 1342.81,15.7947 1265.87,-91.707 1065.29,-29.6985 1064.23,-29.3717 1063.17,-28.9918 1062.11,-28.5711"/>
<polygon fill="red" stroke="red" stroke-width="0.295315" points="1063.52,-25.3602 1053.01,-24.0087 1060.38,-31.6183 1063.52,-25.3602"/>
</g>
<!-- &#45;37&#45;&gt;2 -->
<g id="edge141" class="edge"><title>&#45;37&#45;&gt;2</title>
<path fill="none" stroke="green" stroke-width="0.425844" d="M1552.46,-77.8675C1548.26,-73.5017 1542.51,-68.4484 1536.29,-65.6985 1459.64,-31.8327 1197.3,-19.7131 1114.53,-16.6806"/>
<polygon fill="green" stroke="green" stroke-width="0.425844" points="1114.4,-13.1741 1104.28,-16.3188 1114.15,-20.1698 1114.4,-13.1741"/>
</g>
<!-- &#45;37&#45;&gt;3 -->
<g id="edge142" class="edge"><title>&#45;37&#45;&gt;3</title>
<path fill="none" stroke="red" stroke-width="0.601049" d="M1552.5,-77.7695C1548.32,-73.371 1542.57,-68.3177 1536.29,-65.6985 1429.59,-21.1972 1131.85,-45.2683 1017.29,-29.6985 1002.65,-27.7083 986.424,-24.446 973.498,-21.5874"/>
<polygon fill="red" stroke="red" stroke-width="0.601049" points="974.05,-18.1235 963.522,-19.3179 972.497,-24.9491 974.05,-18.1235"/>
</g>
<!-- &#45;38 -->
<g id="node38" class="node"><title>&#45;38</title>
<polygon fill="lightgray" stroke="black" points="1620.79,-95.9117 1591.79,-95.9117 1591.79,-77.9117 1620.79,-77.9117 1620.79,-95.9117"/>
<text text-anchor="middle" x="1606.29" y="-84.7117" font-family="Times New Roman,serif" font-size="9.00">&#45;38</text>
</g>
<!-- &#45;38&#45;&gt;0 -->
<g id="edge143" class="edge"><title>&#45;38&#45;&gt;0</title>
<path fill="none" stroke="green" stroke-width="0.122979" d="M1599.51,-77.735C1595.34,-73.3251 1589.59,-68.2718 1583.29,-65.6985 1447.72,-10.3178 1065.66,-71.4355 925.288,-29.6985 924.228,-29.3831 923.164,-29.0127 922.106,-28.5995"/>
<polygon fill="green" stroke="green" stroke-width="0.122979" points="923.506,-25.3869 912.994,-24.0651 920.388,-31.6538 923.506,-25.3869"/>
</g>
<!-- &#45;38&#45;&gt;1 -->
<g id="edge144" class="edge"><title>&#45;38&#45;&gt;1</title>
<path fill="none" stroke="red" stroke-width="0.106426" d="M1599.5,-77.7698C1595.32,-73.3714 1589.57,-68.3181 1583.29,-65.6985 1370.3,23.1475 1286,-97.0995 1065.29,-29.6985 1064.23,-29.3753 1063.17,-28.9985 1062.11,-28.5801"/>
<polygon fill="red" stroke="red" stroke-width="0.106426" points="1063.52,-25.3687 1053.01,-24.0267 1060.38,-31.6296 1063.52,-25.3687"/>
</g>
<!-- &#45;38&#45;&gt;2 -->
<g id="edge145" class="edge"><title>&#45;38&#45;&gt;2</title>
<path fill="none" stroke="green" stroke-width="0.414476" d="M1599.47,-77.843C1595.28,-73.469 1589.53,-68.4157 1583.29,-65.6985 1497.65,-28.3972 1202.95,-18.5259 1114.55,-16.3752"/>
<polygon fill="green" stroke="green" stroke-width="0.414476" points="1114.45,-12.872 1104.37,-16.14 1114.29,-19.8702 1114.45,-12.872"/>
</g>
<!-- &#45;38&#45;&gt;3 -->
<g id="edge146" class="edge"><title>&#45;38&#45;&gt;3</title>
<path fill="none" stroke="green" stroke-width="0.233989" d="M1599.5,-77.756C1595.33,-73.3529 1589.58,-68.2996 1583.29,-65.6985 1466.83,-17.5195 1142.22,-46.3137 1017.29,-29.6985 1002.64,-27.7503 986.418,-24.4897 973.493,-21.6216"/>
<polygon fill="green" stroke="green" stroke-width="0.233989" points="974.047,-18.158 963.519,-19.3421 972.488,-24.9821 974.047,-18.158"/>
</g>
<!-- &#45;39 -->
<g id="node39" class="node"><title>&#45;39</title>
<polygon fill="lightgray" stroke="black" points="1667.79,-95.9117 1638.79,-95.9117 1638.79,-77.9117 1667.79,-77.9117 1667.79,-95.9117"/>
<text text-anchor="middle" x="1653.29" y="-84.7117" font-family="Times New Roman,serif" font-size="9.00">&#45;39</text>
</g>
<!-- &#45;39&#45;&gt;0 -->
<g id="edge147" class="edge"><title>&#45;39&#45;&gt;0</title>
<path fill="none" stroke="green" stroke-width="0.552669" d="M1646.52,-77.7264C1642.34,-73.3136 1636.59,-68.2603 1630.29,-65.6985 1484.96,-6.63761 1075.73,-74.1345 925.288,-29.6985 924.227,-29.3851 923.163,-29.0162 922.105,-28.6043"/>
<polygon fill="green" stroke="green" stroke-width="0.552669" points="923.504,-25.3914 912.991,-24.0746 920.389,-31.6598 923.504,-25.3914"/>
</g>
<!-- &#45;39&#45;&gt;1 -->
<g id="edge148" class="edge"><title>&#45;39&#45;&gt;1</title>
<path fill="none" stroke="red" stroke-width="0.248442" d="M1646.5,-77.7562C1642.33,-73.3533 1636.58,-68.3 1630.29,-65.6985 1514.04,-17.5977 1185.72,-66.0963 1065.29,-29.6985 1064.23,-29.3784 1063.17,-29.004 1062.11,-28.5877"/>
<polygon fill="red" stroke="red" stroke-width="0.248442" points="1063.51,-25.3758 1053,-24.0417 1060.39,-31.639 1063.51,-25.3758"/>
</g>
<!-- &#45;39&#45;&gt;2 -->
<g id="edge149" class="edge"><title>&#45;39&#45;&gt;2</title>
<path fill="none" stroke="green" stroke-width="0.197278" d="M1646.48,-77.8226C1642.29,-73.4419 1636.54,-68.3886 1630.29,-65.6985 1535.59,-24.9388 1208.11,-17.441 1114.47,-16.1203"/>
<polygon fill="green" stroke="green" stroke-width="0.197278" points="1114.29,-12.6177 1104.25,-15.988 1114.2,-19.6171 1114.29,-12.6177"/>
</g>
<!-- &#45;39&#45;&gt;3 -->
<g id="edge150" class="edge"><title>&#45;39&#45;&gt;3</title>
<path fill="none" stroke="red" stroke-width="0.15666" d="M1646.51,-77.7445C1642.33,-73.3377 1636.58,-68.2844 1630.29,-65.6985 1504.07,-13.8407 1152.6,-47.3594 1017.29,-29.6985 1002.64,-27.7859 986.413,-24.5268 973.49,-21.6505"/>
<polygon fill="red" stroke="red" stroke-width="0.15666" points="974.046,-18.1873 963.516,-19.3625 972.48,-25.01 974.046,-18.1873"/>
</g>
<!-- &#45;40 -->
<g id="node40" class="node"><title>&#45;40</title>
<polygon fill="lightgray" stroke="black" points="1714.79,-95.9117 1685.79,-95.9117 1685.79,-77.9117 1714.79,-77.9117 1714.79,-95.9117"/>
<text text-anchor="middle" x="1700.29" y="-84.7117" font-family="Times New Roman,serif" font-size="9.00">&#45;40</text>
</g>
<!-- &#45;40&#45;&gt;0 -->
<g id="edge151" class="edge"><title>&#45;40&#45;&gt;0</title>
<path fill="none" stroke="red" stroke-width="0.243495" d="M1693.52,-77.7189C1689.35,-73.3036 1683.6,-68.2503 1677.29,-65.6985 1522.2,-2.95694 1085.81,-76.834 925.288,-29.6985 924.227,-29.3868 923.162,-29.0193 922.104,-28.6085"/>
<polygon fill="red" stroke="red" stroke-width="0.243495" points="923.502,-25.3953 912.989,-24.083 920.389,-31.665 923.502,-25.3953"/>
</g>
<!-- &#45;40&#45;&gt;1 -->
<g id="edge152" class="edge"><title>&#45;40&#45;&gt;1</title>
<path fill="none" stroke="red" stroke-width="0.239143" d="M1693.51,-77.7447C1689.33,-73.338 1683.58,-68.2847 1677.29,-65.6985 1551.28,-13.919 1195.79,-68.7943 1065.29,-29.6985 1064.23,-29.381 1063.17,-29.0087 1062.11,-28.5941"/>
<polygon fill="red" stroke="red" stroke-width="0.239143" points="1063.51,-25.3818 1053,-24.0544 1060.39,-31.6471 1063.51,-25.3818"/>
</g>
<!-- &#45;40&#45;&gt;2 -->
<g id="edge153" class="edge"><title>&#45;40&#45;&gt;2</title>
<path fill="none" stroke="green" stroke-width="0.111985" d="M1693.48,-77.8055C1689.3,-73.419 1683.55,-68.3657 1677.29,-65.6985 1573.49,-21.4717 1213.02,-16.4475 1114.4,-15.9067"/>
<polygon fill="green" stroke="green" stroke-width="0.111985" points="1114.21,-12.4059 1104.19,-15.8622 1114.18,-19.4059 1114.21,-12.4059"/>
</g>
<!-- &#45;40&#45;&gt;3 -->
<g id="edge154" class="edge"><title>&#45;40&#45;&gt;3</title>
<path fill="none" stroke="red" stroke-width="0.284869" stroke-dasharray="1,5" d="M1693.51,-77.7347C1689.34,-73.3245 1683.59,-68.2712 1677.29,-65.6985 1541.31,-10.1612 1162.98,-48.4054 1017.29,-29.6985 1002.63,-27.8165 986.409,-24.5586 973.486,-21.6754"/>
<polygon fill="red" stroke="red" stroke-width="0.284869" points="974.044,-18.2124 963.514,-19.38 972.474,-25.034 974.044,-18.2124"/>
</g>
<!-- 420&#45;&gt;0 -->
<g id="edge156" class="edge"><title>420&#45;&gt;0</title>
<path fill="none" stroke="red" stroke-width="0.239377" d="M55.2657,-72.8798C59.5794,-70.0168 64.4104,-67.3496 69.2883,-65.6985 224.135,-13.2862 753.763,-14.5604 875.983,-15.582"/>
<polygon fill="red" stroke="red" stroke-width="0.239377" points="876.183,-19.0838 886.214,-15.6753 876.247,-12.0841 876.183,-19.0838"/>
</g>
</g>
</svg>
