<?xml version="1.0" encoding="UTF-8" standalone="no"?>
<!DOCTYPE svg PUBLIC "-//W3C//DTD SVG 1.1//EN"
 "http://www.w3.org/Graphics/SVG/1.1/DTD/svg11.dtd">
<!-- Generated by graphviz version 2.38.0 (20140413.2041)
 -->
<!-- Title: %3 Pages: 1 -->
<svg width="2219pt" height="170pt"
 viewBox="0.00 0.00 2219.23 170.12" xmlns="http://www.w3.org/2000/svg" xmlns:xlink="http://www.w3.org/1999/xlink">
<g id="graph0" class="graph" transform="scale(1 1) rotate(0) translate(4 166.125)">
<title>%3</title>
<polygon fill="white" stroke="none" points="-4,4 -4,-166.125 2215.23,-166.125 2215.23,4 -4,4"/>
<!-- &#45;1 -->
<g id="node1" class="node"><title>&#45;1</title>
<polygon fill="lightgray" stroke="black" points="1667.81,-95.9117 1643.81,-95.9117 1643.81,-77.9117 1667.81,-77.9117 1667.81,-95.9117"/>
<text text-anchor="middle" x="1655.81" y="-84.7117" font-family="Times New Roman,serif" font-size="9.00">&#45;1</text>
</g>
<!-- 0 -->
<g id="node41" class="node"><title>0</title>
<ellipse fill="lightblue" stroke="black" cx="916.813" cy="-14.8492" rx="14.7" ry="14.7"/>
<text text-anchor="middle" x="916.813" y="-12.6492" font-family="Times New Roman,serif" font-size="9.00">0</text>
</g>
<!-- &#45;1&#45;&gt;0 -->
<g id="edge1" class="edge"><title>&#45;1&#45;&gt;0</title>
<path fill="none" stroke="red" stroke-width="0.30626" d="M1649.77,-77.7413C1646,-73.3334 1640.75,-68.2801 1634.81,-65.6985 1497.86,-6.18212 1110.98,-54.9731 963.813,-29.6985 956.063,-28.3676 947.782,-26.1921 940.364,-23.9555"/>
<polygon fill="red" stroke="red" stroke-width="0.30626" points="941.187,-20.5445 930.597,-20.8348 939.057,-27.2124 941.187,-20.5445"/>
</g>
<!-- 1 -->
<g id="node42" class="node"><title>1</title>
<ellipse fill="lightblue" stroke="black" cx="1139.81" cy="-14.8492" rx="14.7" ry="14.7"/>
<text text-anchor="middle" x="1139.81" y="-12.6492" font-family="Times New Roman,serif" font-size="9.00">1</text>
</g>
<!-- &#45;1&#45;&gt;1 -->
<g id="edge2" class="edge"><title>&#45;1&#45;&gt;1</title>
<path fill="none" stroke="red" stroke-width="0.20073" d="M1649.75,-77.7917C1645.97,-73.4006 1640.72,-68.3473 1634.81,-65.6985 1443.23,20.1569 1364.39,-91.707 1163.81,-29.6985 1162.76,-29.3717 1161.69,-28.9918 1160.64,-28.5711"/>
<polygon fill="red" stroke="red" stroke-width="0.20073" points="1162.04,-25.3602 1151.54,-24.0087 1158.91,-31.6183 1162.04,-25.3602"/>
</g>
<!-- 2 -->
<g id="node43" class="node"><title>2</title>
<ellipse fill="lightblue" stroke="black" cx="1187.81" cy="-14.8492" rx="14.7" ry="14.7"/>
<text text-anchor="middle" x="1187.81" y="-12.6492" font-family="Times New Roman,serif" font-size="9.00">2</text>
</g>
<!-- &#45;1&#45;&gt;2 -->
<g id="edge3" class="edge"><title>&#45;1&#45;&gt;2</title>
<path fill="none" stroke="green" stroke-width="0.233274" d="M1649.71,-77.8685C1645.93,-73.503 1640.68,-68.4497 1634.81,-65.6985 1558.87,-30.0686 1295.54,-19.1324 1212.86,-16.5373"/>
<polygon fill="green" stroke="green" stroke-width="0.233274" points="1212.95,-13.0385 1202.85,-16.2367 1212.74,-20.0353 1212.95,-13.0385"/>
</g>
<!-- 3 -->
<g id="node44" class="node"><title>3</title>
<ellipse fill="lightblue" stroke="black" cx="987.813" cy="-14.8492" rx="14.7" ry="14.7"/>
<text text-anchor="middle" x="987.813" y="-12.6492" font-family="Times New Roman,serif" font-size="9.00">3</text>
</g>
<!-- &#45;1&#45;&gt;3 -->
<g id="edge4" class="edge"><title>&#45;1&#45;&gt;3</title>
<path fill="none" stroke="red" stroke-width="0.553121" stroke-dasharray="1,5" d="M1649.75,-77.7761C1645.98,-73.3798 1640.73,-68.3265 1634.81,-65.6985 1529.15,-18.7914 1230.97,-39.9185 1115.81,-29.6985 1079.97,-26.5173 1038.58,-21.8597 1012.8,-18.8411"/>
<polygon fill="red" stroke="red" stroke-width="0.553121" points="1013.11,-15.3535 1002.77,-17.6568 1012.29,-22.3052 1013.11,-15.3535"/>
</g>
<!-- &#45;2 -->
<g id="node2" class="node"><title>&#45;2</title>
<polygon fill="lightgray" stroke="black" points="1709.81,-95.9117 1685.81,-95.9117 1685.81,-77.9117 1709.81,-77.9117 1709.81,-95.9117"/>
<text text-anchor="middle" x="1697.81" y="-84.7117" font-family="Times New Roman,serif" font-size="9.00">&#45;2</text>
</g>
<!-- &#45;2&#45;&gt;0 -->
<g id="edge5" class="edge"><title>&#45;2&#45;&gt;0</title>
<path fill="none" stroke="green" stroke-width="0.369943" d="M1691.77,-77.7343C1688.01,-73.324 1682.76,-68.2707 1676.81,-65.6985 1531.21,-2.69656 1120.21,-56.3043 963.813,-29.6985 956.061,-28.3798 947.779,-26.2077 940.361,-23.9705"/>
<polygon fill="green" stroke="green" stroke-width="0.369943" points="941.185,-20.5595 930.595,-20.8466 939.053,-27.2268 941.185,-20.5595"/>
</g>
<!-- &#45;2&#45;&gt;1 -->
<g id="edge6" class="edge"><title>&#45;2&#45;&gt;1</title>
<path fill="none" stroke="green" stroke-width="0.147376" d="M1691.75,-77.7779C1687.98,-73.3822 1682.73,-68.3289 1676.81,-65.6985 1572.38,-19.2889 1273.1,-63.1121 1163.81,-29.6985 1162.75,-29.375 1161.69,-28.9978 1160.64,-28.5792"/>
<polygon fill="green" stroke="green" stroke-width="0.147376" points="1162.04,-25.3678 1151.53,-24.025 1158.91,-31.6285 1162.04,-25.3678"/>
</g>
<!-- &#45;2&#45;&gt;2 -->
<g id="edge7" class="edge"><title>&#45;2&#45;&gt;2</title>
<path fill="none" stroke="red" stroke-width="0.179312" d="M1691.72,-77.8476C1687.94,-73.4752 1682.69,-68.4219 1676.81,-65.6985 1592.91,-26.8169 1300.59,-18.0411 1212.88,-16.2636"/>
<polygon fill="red" stroke="red" stroke-width="0.179312" points="1212.85,-12.7624 1202.78,-16.0721 1212.71,-19.7612 1212.85,-12.7624"/>
</g>
<!-- &#45;2&#45;&gt;3 -->
<g id="edge8" class="edge"><title>&#45;2&#45;&gt;3</title>
<path fill="none" stroke="red" stroke-width="0.325148" stroke-dasharray="1,5" d="M1691.76,-77.7646C1687.99,-73.3645 1682.74,-68.3112 1676.81,-65.6985 1562.5,-15.3083 1240.27,-40.42 1115.81,-29.6985 1079.96,-26.6099 1038.58,-21.9285 1012.8,-18.8793"/>
<polygon fill="red" stroke="red" stroke-width="0.325148" points="1013.11,-15.3921 1002.77,-17.6819 1012.28,-22.3427 1013.11,-15.3921"/>
</g>
<!-- &#45;3 -->
<g id="node3" class="node"><title>&#45;3</title>
<polygon fill="lightgray" stroke="black" points="1751.81,-95.9117 1727.81,-95.9117 1727.81,-77.9117 1751.81,-77.9117 1751.81,-95.9117"/>
<text text-anchor="middle" x="1739.81" y="-84.7117" font-family="Times New Roman,serif" font-size="9.00">&#45;3</text>
</g>
<!-- &#45;3&#45;&gt;0 -->
<g id="edge9" class="edge"><title>&#45;3&#45;&gt;0</title>
<path fill="none" stroke="red" stroke-width="0.150853" d="M1733.77,-77.728C1730.01,-73.3157 1724.76,-68.2624 1718.81,-65.6985 1564.56,0.789421 1129.44,-57.6356 963.813,-29.6985 956.059,-28.3906 947.777,-26.2216 940.359,-23.9838"/>
<polygon fill="red" stroke="red" stroke-width="0.150853" points="941.184,-20.573 930.593,-20.8571 939.049,-27.2396 941.184,-20.573"/>
</g>
<!-- &#45;3&#45;&gt;1 -->
<g id="edge10" class="edge"><title>&#45;3&#45;&gt;1</title>
<path fill="none" stroke="green" stroke-width="0.38255" d="M1733.76,-77.7662C1729.99,-73.3665 1724.74,-68.3132 1718.81,-65.6985 1605.74,-15.8059 1282.1,-65.5223 1163.81,-29.6985 1162.75,-29.3778 1161.69,-29.0029 1160.63,-28.5862"/>
<polygon fill="green" stroke="green" stroke-width="0.38255" points="1162.04,-25.3744 1151.53,-24.0387 1158.91,-31.6372 1162.04,-25.3744"/>
</g>
<!-- &#45;3&#45;&gt;2 -->
<g id="edge11" class="edge"><title>&#45;3&#45;&gt;2</title>
<path fill="none" stroke="red" stroke-width="0.404246" stroke-dasharray="1,5" d="M1733.73,-77.83C1729.95,-73.4517 1724.7,-68.3984 1718.81,-65.6985 1626.92,-23.5573 1305.42,-17.0382 1212.9,-16.0322"/>
<polygon fill="red" stroke="red" stroke-width="0.404246" points="1212.81,-12.5314 1202.78,-15.9349 1212.75,-19.531 1212.81,-12.5314"/>
</g>
<!-- &#45;3&#45;&gt;3 -->
<g id="edge12" class="edge"><title>&#45;3&#45;&gt;3</title>
<path fill="none" stroke="red" stroke-width="0.293846" stroke-dasharray="1,5" d="M1733.76,-77.7547C1730,-73.3513 1724.75,-68.298 1718.81,-65.6985 1595.86,-11.8243 1249.58,-40.9217 1115.81,-29.6985 1079.95,-26.6898 1038.57,-21.9878 1012.8,-18.9123"/>
<polygon fill="red" stroke="red" stroke-width="0.293846" points="1013.11,-15.4254 1002.77,-17.7035 1012.28,-22.3751 1013.11,-15.4254"/>
</g>
<!-- &#45;4 -->
<g id="node4" class="node"><title>&#45;4</title>
<polygon fill="lightgray" stroke="black" points="1793.81,-95.9117 1769.81,-95.9117 1769.81,-77.9117 1793.81,-77.9117 1793.81,-95.9117"/>
<text text-anchor="middle" x="1781.81" y="-84.7117" font-family="Times New Roman,serif" font-size="9.00">&#45;4</text>
</g>
<!-- &#45;4&#45;&gt;0 -->
<g id="edge13" class="edge"><title>&#45;4&#45;&gt;0</title>
<path fill="none" stroke="red" stroke-width="0.852443" stroke-dasharray="1,5" d="M1775.78,-77.7224C1772.01,-73.3082 1766.76,-68.2549 1760.81,-65.6985 1597.91,4.27575 1138.67,-58.9671 963.813,-29.6985 956.057,-28.4004 947.775,-26.234 940.357,-23.9957"/>
<polygon fill="red" stroke="red" stroke-width="0.852443" points="941.182,-20.5849 930.591,-20.8666 939.046,-27.2511 941.182,-20.5849"/>
</g>
<!-- &#45;4&#45;&gt;1 -->
<g id="edge14" class="edge"><title>&#45;4&#45;&gt;1</title>
<path fill="none" stroke="red" stroke-width="0.149908" d="M1775.76,-77.756C1771.99,-73.3531 1766.74,-68.2998 1760.81,-65.6985 1639.09,-12.3221 1291.1,-67.9331 1163.81,-29.6985 1162.75,-29.3802 1161.69,-29.0073 1160.63,-28.5922"/>
<polygon fill="red" stroke="red" stroke-width="0.149908" points="1162.03,-25.38 1151.52,-24.0506 1158.91,-31.6446 1162.03,-25.38"/>
</g>
<!-- &#45;4&#45;&gt;2 -->
<g id="edge15" class="edge"><title>&#45;4&#45;&gt;2</title>
<path fill="none" stroke="green" stroke-width="0.256845" d="M1775.74,-77.8149C1771.96,-73.4316 1766.71,-68.3783 1760.81,-65.6985 1660.8,-20.2503 1309.45,-16.1017 1212.66,-15.8333"/>
<polygon fill="green" stroke="green" stroke-width="0.256845" points="1212.64,-12.3333 1202.63,-15.8174 1212.63,-19.3333 1212.64,-12.3333"/>
</g>
<!-- &#45;4&#45;&gt;3 -->
<g id="edge16" class="edge"><title>&#45;4&#45;&gt;3</title>
<path fill="none" stroke="red" stroke-width="0.123474" d="M1775.77,-77.7461C1772,-73.3398 1766.75,-68.2865 1760.81,-65.6985 1629.21,-8.33961 1258.89,-41.4236 1115.81,-29.6985 1079.95,-26.7592 1038.57,-22.0393 1012.79,-18.941"/>
<polygon fill="red" stroke="red" stroke-width="0.123474" points="1013.11,-15.4544 1002.77,-17.7224 1012.27,-22.4032 1013.11,-15.4544"/>
</g>
<!-- &#45;5 -->
<g id="node5" class="node"><title>&#45;5</title>
<polygon fill="lightgray" stroke="black" points="323.813,-95.9117 299.813,-95.9117 299.813,-77.9117 323.813,-77.9117 323.813,-95.9117"/>
<text text-anchor="middle" x="311.813" y="-84.7117" font-family="Times New Roman,serif" font-size="9.00">&#45;5</text>
</g>
<!-- &#45;5&#45;&gt;0 -->
<g id="edge17" class="edge"><title>&#45;5&#45;&gt;0</title>
<path fill="none" stroke="green" stroke-width="0.350235" d="M317.889,-77.8113C321.664,-73.4268 326.914,-68.3735 332.813,-65.6985 434.876,-19.4166 793.633,-15.8738 891.813,-15.7866"/>
<polygon fill="green" stroke="green" stroke-width="0.350235" points="891.972,-19.2865 901.973,-15.7896 891.974,-12.2865 891.972,-19.2865"/>
</g>
<!-- &#45;5&#45;&gt;1 -->
<g id="edge18" class="edge"><title>&#45;5&#45;&gt;1</title>
<path fill="none" stroke="red" stroke-width="0.183911" d="M317.857,-77.7399C321.622,-73.3315 326.872,-68.2782 332.813,-65.6985 402.113,-35.6084 936.506,-35.7642 1011.81,-29.6985 1047.68,-26.8092 1089.06,-22.0764 1114.83,-18.9617"/>
<polygon fill="red" stroke="red" stroke-width="0.183911" points="1115.36,-22.4235 1124.86,-17.7359 1114.51,-15.4752 1115.36,-22.4235"/>
</g>
<!-- &#45;5&#45;&gt;2 -->
<g id="edge19" class="edge"><title>&#45;5&#45;&gt;2</title>
<path fill="none" stroke="red" stroke-width="0.138577" d="M317.848,-77.7183C321.609,-73.3027 326.859,-68.2494 332.813,-65.6985 502.714,7.09824 986.343,-81.3721 1163.81,-29.6985 1164.88,-29.3892 1165.94,-29.0236 1167,-28.6145"/>
<polygon fill="red" stroke="red" stroke-width="0.138577" points="1168.71,-31.6725 1176.12,-24.0948 1165.6,-25.401 1168.71,-31.6725"/>
</g>
<!-- &#45;5&#45;&gt;3 -->
<g id="edge20" class="edge"><title>&#45;5&#45;&gt;3</title>
<path fill="none" stroke="green" stroke-width="0.130715" d="M317.863,-77.7536C321.629,-73.3498 326.879,-68.2965 332.813,-65.6985 456.796,-11.4095 807.482,-52.9768 940.813,-29.6985 948.559,-28.3461 956.839,-26.1647 964.257,-23.9292"/>
<polygon fill="green" stroke="green" stroke-width="0.130715" points="965.562,-27.187 974.025,-20.8139 963.435,-20.518 965.562,-27.187"/>
</g>
<!-- &#45;6 -->
<g id="node6" class="node"><title>&#45;6</title>
<polygon fill="lightgray" stroke="black" points="365.813,-95.9117 341.813,-95.9117 341.813,-77.9117 365.813,-77.9117 365.813,-95.9117"/>
<text text-anchor="middle" x="353.813" y="-84.7117" font-family="Times New Roman,serif" font-size="9.00">&#45;6</text>
</g>
<!-- &#45;6&#45;&gt;0 -->
<g id="edge21" class="edge"><title>&#45;6&#45;&gt;0</title>
<path fill="none" stroke="green" stroke-width="0.316962" d="M359.895,-77.8258C363.673,-73.4461 368.923,-68.3928 374.813,-65.6985 468.741,-22.7332 797.498,-16.7967 891.52,-15.9792"/>
<polygon fill="green" stroke="green" stroke-width="0.316962" points="891.817,-19.4772 901.79,-15.9027 891.765,-12.4773 891.817,-19.4772"/>
</g>
<!-- &#45;6&#45;&gt;1 -->
<g id="edge22" class="edge"><title>&#45;6&#45;&gt;1</title>
<path fill="none" stroke="red" stroke-width="0.294852" d="M359.86,-77.7477C363.626,-73.3419 368.876,-68.2886 374.813,-65.6985 504.765,-9.0034 870.509,-41.328 1011.81,-29.6985 1047.68,-26.7467 1089.06,-22.03 1114.83,-18.9358"/>
<polygon fill="red" stroke="red" stroke-width="0.294852" points="1115.35,-22.3982 1124.86,-17.719 1114.51,-15.4491 1115.35,-22.3982"/>
</g>
<!-- &#45;6&#45;&gt;2 -->
<g id="edge23" class="edge"><title>&#45;6&#45;&gt;2</title>
<path fill="none" stroke="red" stroke-width="0.235966" d="M359.85,-77.7234C363.612,-73.3096 368.862,-68.2563 374.813,-65.6985 536.064,3.61166 995.352,-78.9593 1163.81,-29.6985 1164.87,-29.3879 1165.94,-29.0214 1167,-28.6115"/>
<polygon fill="red" stroke="red" stroke-width="0.235966" points="1168.71,-31.6687 1176.11,-24.0888 1165.6,-25.3981 1168.71,-31.6687"/>
</g>
<!-- &#45;6&#45;&gt;3 -->
<g id="edge24" class="edge"><title>&#45;6&#45;&gt;3</title>
<path fill="none" stroke="green" stroke-width="0.273862" d="M359.867,-77.7634C363.635,-73.3628 368.885,-68.3095 374.813,-65.6985 490.151,-14.8936 816.707,-51.6462 940.813,-29.6985 948.556,-28.3291 956.835,-26.143 964.254,-23.9085"/>
<polygon fill="green" stroke="green" stroke-width="0.273862" points="965.556,-27.167 974.023,-20.7975 963.432,-20.497 965.556,-27.167"/>
</g>
<!-- &#45;7 -->
<g id="node7" class="node"><title>&#45;7</title>
<polygon fill="lightgray" stroke="black" points="407.813,-95.9117 383.813,-95.9117 383.813,-77.9117 407.813,-77.9117 407.813,-95.9117"/>
<text text-anchor="middle" x="395.813" y="-84.7117" font-family="Times New Roman,serif" font-size="9.00">&#45;7</text>
</g>
<!-- &#45;7&#45;&gt;0 -->
<g id="edge25" class="edge"><title>&#45;7&#45;&gt;0</title>
<path fill="none" stroke="red" stroke-width="0.710184" d="M401.903,-77.8427C405.683,-73.4687 410.933,-68.4154 416.813,-65.6985 502.818,-25.9587 802.833,-17.7684 891.776,-16.1987"/>
<polygon fill="red" stroke="red" stroke-width="0.710184" points="892.056,-19.6947 901.997,-16.0317 891.941,-12.6957 892.056,-19.6947"/>
</g>
<!-- &#45;7&#45;&gt;1 -->
<g id="edge26" class="edge"><title>&#45;7&#45;&gt;1</title>
<path fill="none" stroke="red" stroke-width="0.485972" d="M401.864,-77.7565C405.631,-73.3537 410.881,-68.3004 416.813,-65.6985 538.12,-12.488 879.817,-40.8261 1011.81,-29.6985 1047.67,-26.6754 1089.05,-21.9771 1114.83,-18.9064"/>
<polygon fill="red" stroke="red" stroke-width="0.485972" points="1115.35,-22.3693 1124.86,-17.6996 1114.51,-15.4194 1115.35,-22.3693"/>
</g>
<!-- &#45;7&#45;&gt;2 -->
<g id="edge27" class="edge"><title>&#45;7&#45;&gt;2</title>
<path fill="none" stroke="green" stroke-width="0.209466" d="M401.852,-77.7292C405.615,-73.3172 410.865,-68.2639 416.813,-65.6985 569.414,0.125396 1004.36,-76.5468 1163.81,-29.6985 1164.87,-29.3866 1165.94,-29.0189 1167,-28.6081"/>
<polygon fill="green" stroke="green" stroke-width="0.209466" points="1168.71,-31.6645 1176.11,-24.0821 1165.6,-25.3949 1168.71,-31.6645"/>
</g>
<!-- &#45;7&#45;&gt;3 -->
<g id="edge28" class="edge"><title>&#45;7&#45;&gt;3</title>
<path fill="none" stroke="green" stroke-width="0.352552" d="M401.872,-77.7746C405.642,-73.3779 410.892,-68.3246 416.813,-65.6985 523.509,-18.3768 825.929,-50.3161 940.813,-29.6985 948.552,-28.3095 956.831,-26.1179 964.25,-23.8844"/>
<polygon fill="green" stroke="green" stroke-width="0.352552" points="965.55,-27.1438 974.019,-20.7784 963.429,-20.4728 965.55,-27.1438"/>
</g>
<!-- &#45;8 -->
<g id="node8" class="node"><title>&#45;8</title>
<polygon fill="lightgray" stroke="black" points="2151.81,-162.125 2127.81,-162.125 2127.81,-144.125 2151.81,-144.125 2151.81,-162.125"/>
<text text-anchor="middle" x="2139.81" y="-150.925" font-family="Times New Roman,serif" font-size="9.00">&#45;8</text>
</g>
<!-- &#45;8&#45;&gt;0 -->
<g id="edge29" class="edge"><title>&#45;8&#45;&gt;0</title>
<path fill="none" stroke="red" stroke-width="0.157086" d="M2127.7,-151.399C2100.88,-149.819 2034.47,-146.057 1978.81,-144.125 1928.22,-142.369 192.252,-144.271 156.813,-108.125 143.612,-94.6605 143.923,-79.4612 156.813,-65.6985 208.086,-10.9524 765.517,-14.092 891.575,-15.513"/>
<polygon fill="red" stroke="red" stroke-width="0.157086" points="891.743,-19.0152 901.785,-15.6354 891.827,-12.0157 891.743,-19.0152"/>
</g>
<!-- &#45;8&#45;&gt;1 -->
<g id="edge30" class="edge"><title>&#45;8&#45;&gt;1</title>
<path fill="none" stroke="red" stroke-width="0.377934" d="M2147.32,-144.057C2162.06,-127.257 2191.54,-88.2154 2169.81,-65.6985 2130.98,-25.4529 1217.57,-45.1306 1163.81,-29.6985 1162.75,-29.3932 1161.68,-29.0309 1160.62,-28.6244"/>
<polygon fill="red" stroke="red" stroke-width="0.377934" points="1162.02,-25.4103 1151.5,-24.1145 1158.92,-31.6849 1162.02,-25.4103"/>
</g>
<!-- &#45;8&#45;&gt;2 -->
<g id="edge31" class="edge"><title>&#45;8&#45;&gt;2</title>
<path fill="none" stroke="red" stroke-width="0.347542" d="M2152.02,-147.702C2167.12,-141.49 2192.14,-128.591 2202.81,-108.125 2211.53,-91.4045 2215.82,-79.3549 2202.81,-65.6985 2167.62,-28.7299 1366.35,-17.8608 1213.04,-16.1165"/>
<polygon fill="red" stroke="red" stroke-width="0.347542" points="1212.81,-12.6139 1202.77,-16.0025 1212.73,-19.6134 1212.81,-12.6139"/>
</g>
<!-- &#45;8&#45;&gt;3 -->
<g id="edge32" class="edge"><title>&#45;8&#45;&gt;3</title>
<path fill="none" stroke="green" stroke-width="0.117371" d="M2127.7,-151.403C2100.88,-149.832 2034.47,-146.084 1978.81,-144.125 1930.61,-142.428 276.563,-142.582 242.813,-108.125 229.618,-94.654 229.827,-79.3709 242.813,-65.6985 296.293,-9.38908 864.261,-42.7637 940.813,-29.6985 948.564,-28.3756 956.845,-26.2023 964.264,-23.9653"/>
<polygon fill="green" stroke="green" stroke-width="0.117371" points="965.571,-27.2218 974.03,-20.8425 963.439,-20.5544 965.571,-27.2218"/>
</g>
<!-- 401 -->
<g id="node45" class="node"><title>401</title>
<ellipse fill="white" stroke="black" cx="2139.81" cy="-86.9117" rx="21.4286" ry="21.4286"/>
<text text-anchor="middle" x="2139.81" y="-84.7117" font-family="Times New Roman,serif" font-size="9.00">401</text>
</g>
<!-- &#45;8&#45;&gt;401 -->
<g id="edge161" class="edge"><title>&#45;8&#45;&gt;401</title>
<path fill="none" stroke="red" stroke-width="0.248643" d="M2139.81,-143.992C2139.81,-137.449 2139.81,-127.82 2139.81,-118.381"/>
<polygon fill="red" stroke="red" stroke-width="0.248643" points="2143.31,-118.367 2139.81,-108.367 2136.31,-118.367 2143.31,-118.367"/>
</g>
<!-- &#45;9 -->
<g id="node9" class="node"><title>&#45;9</title>
<polygon fill="lightgray" stroke="black" points="449.813,-95.9117 425.813,-95.9117 425.813,-77.9117 449.813,-77.9117 449.813,-95.9117"/>
<text text-anchor="middle" x="437.813" y="-84.7117" font-family="Times New Roman,serif" font-size="9.00">&#45;9</text>
</g>
<!-- &#45;9&#45;&gt;0 -->
<g id="edge33" class="edge"><title>&#45;9&#45;&gt;0</title>
<path fill="none" stroke="red" stroke-width="0.290436" stroke-dasharray="1,5" d="M443.912,-77.8627C447.695,-73.4952 452.945,-68.4419 458.813,-65.6985 536.822,-29.2244 807.641,-18.8408 891.716,-16.4622"/>
<polygon fill="red" stroke="red" stroke-width="0.290436" points="891.975,-19.9566 901.877,-16.1886 891.787,-12.9591 891.975,-19.9566"/>
</g>
<!-- &#45;9&#45;&gt;1 -->
<g id="edge34" class="edge"><title>&#45;9&#45;&gt;1</title>
<path fill="none" stroke="green" stroke-width="0.353894" d="M443.869,-77.7667C447.637,-73.3672 452.887,-68.3139 458.813,-65.6985 571.476,-15.9718 889.123,-40.3244 1011.81,-29.6985 1047.67,-26.5934 1089.05,-21.9162 1114.83,-18.8725"/>
<polygon fill="green" stroke="green" stroke-width="0.353894" points="1115.34,-22.336 1124.86,-17.6774 1114.51,-15.3852 1115.34,-22.336"/>
</g>
<!-- &#45;9&#45;&gt;2 -->
<g id="edge35" class="edge"><title>&#45;9&#45;&gt;2</title>
<path fill="none" stroke="green" stroke-width="0.238016" d="M443.855,-77.7355C447.619,-73.3257 452.869,-68.2724 458.813,-65.6985 602.766,-3.36051 1013.37,-74.1345 1163.81,-29.6985 1164.87,-29.3851 1165.94,-29.0162 1167,-28.6043"/>
<polygon fill="green" stroke="green" stroke-width="0.238016" points="1168.71,-31.6598 1176.11,-24.0746 1165.6,-25.3914 1168.71,-31.6598"/>
</g>
<!-- &#45;9&#45;&gt;3 -->
<g id="edge36" class="edge"><title>&#45;9&#45;&gt;3</title>
<path fill="none" stroke="green" stroke-width="0.282023" d="M443.878,-77.7879C447.65,-73.3955 452.9,-68.3422 458.813,-65.6985 556.868,-21.859 835.149,-48.9863 940.813,-29.6985 948.548,-28.2864 956.825,-26.0885 964.244,-23.8562"/>
<polygon fill="green" stroke="green" stroke-width="0.282023" points="965.542,-27.1165 974.015,-20.7561 963.425,-20.4443 965.542,-27.1165"/>
</g>
<!-- &#45;10 -->
<g id="node10" class="node"><title>&#45;10</title>
<polygon fill="lightgray" stroke="black" points="497.313,-95.9117 468.313,-95.9117 468.313,-77.9117 497.313,-77.9117 497.313,-95.9117"/>
<text text-anchor="middle" x="482.813" y="-84.7117" font-family="Times New Roman,serif" font-size="9.00">&#45;10</text>
</g>
<!-- &#45;10&#45;&gt;0 -->
<g id="edge37" class="edge"><title>&#45;10&#45;&gt;0</title>
<path fill="none" stroke="green" stroke-width="0.281987" d="M489.655,-77.89C493.852,-73.5316 499.602,-68.4783 505.813,-65.6985 575.534,-34.4921 812.798,-20.7418 891.335,-16.973"/>
<polygon fill="green" stroke="green" stroke-width="0.281987" points="891.905,-20.4503 901.732,-16.4885 891.579,-13.4579 891.905,-20.4503"/>
</g>
<!-- &#45;10&#45;&gt;1 -->
<g id="edge38" class="edge"><title>&#45;10&#45;&gt;1</title>
<path fill="none" stroke="green" stroke-width="0.308368" d="M489.604,-77.7736C493.785,-73.3765 499.535,-68.3232 505.813,-65.6985 609.817,-22.2143 899.534,-39.7633 1011.81,-29.6985 1047.66,-26.4855 1089.04,-21.8361 1114.82,-18.8279"/>
<polygon fill="green" stroke="green" stroke-width="0.308368" points="1115.33,-22.2923 1124.85,-17.6481 1114.51,-15.3402 1115.33,-22.2923"/>
</g>
<!-- &#45;10&#45;&gt;2 -->
<g id="edge39" class="edge"><title>&#45;10&#45;&gt;2</title>
<path fill="none" stroke="red" stroke-width="0.348395" d="M489.589,-77.735C493.764,-73.3251 499.514,-68.2718 505.813,-65.6985 641.378,-10.3178 1023.45,-71.4355 1163.81,-29.6985 1164.87,-29.3831 1165.94,-29.0127 1166.99,-28.5995"/>
<polygon fill="red" stroke="red" stroke-width="0.348395" points="1168.71,-31.6538 1176.11,-24.0651 1165.59,-25.3869 1168.71,-31.6538"/>
</g>
<!-- &#45;10&#45;&gt;3 -->
<g id="edge40" class="edge"><title>&#45;10&#45;&gt;3</title>
<path fill="none" stroke="green" stroke-width="0.10208" d="M489.616,-77.8008C493.8,-73.4127 499.55,-68.3594 505.813,-65.6985 684.358,10.1651 750.113,-65.2997 940.813,-29.6985 948.543,-28.2554 956.818,-26.0488 964.237,-23.8182"/>
<polygon fill="green" stroke="green" stroke-width="0.10208" points="965.531,-27.0799 974.01,-20.726 963.42,-20.406 965.531,-27.0799"/>
</g>
<!-- &#45;11 -->
<g id="node11" class="node"><title>&#45;11</title>
<polygon fill="lightgray" stroke="black" points="195.313,-95.9117 166.313,-95.9117 166.313,-77.9117 195.313,-77.9117 195.313,-95.9117"/>
<text text-anchor="middle" x="180.813" y="-84.7117" font-family="Times New Roman,serif" font-size="9.00">&#45;11</text>
</g>
<!-- &#45;11&#45;&gt;0 -->
<g id="edge41" class="edge"><title>&#45;11&#45;&gt;0</title>
<path fill="none" stroke="green" stroke-width="0.162808" d="M189.758,-77.7674C195.156,-73.3682 202.406,-68.3148 209.813,-65.6985 339.369,-19.9348 780.944,-16.0802 891.539,-15.8416"/>
<polygon fill="green" stroke="green" stroke-width="0.162808" points="891.741,-19.3415 901.736,-15.8283 891.732,-12.3415 891.741,-19.3415"/>
</g>
<!-- &#45;11&#45;&gt;1 -->
<g id="edge42" class="edge"><title>&#45;11&#45;&gt;1</title>
<path fill="none" stroke="red" stroke-width="0.400187" d="M195.806,-79.7647C208.184,-74.9988 226.331,-68.7142 242.813,-65.6985 579.378,-4.11773 670.682,-56.1133 1011.81,-29.6985 1047.69,-26.9202 1089.07,-22.1588 1114.84,-19.0075"/>
<polygon fill="red" stroke="red" stroke-width="0.400187" points="1115.37,-22.4684 1124.86,-17.766 1114.51,-15.5215 1115.37,-22.4684"/>
</g>
<!-- &#45;11&#45;&gt;3 -->
<g id="edge43" class="edge"><title>&#45;11&#45;&gt;3</title>
<path fill="none" stroke="red" stroke-width="0.400852" d="M189.737,-77.7084C195.129,-73.2896 202.379,-68.2363 209.813,-65.6985 363.733,-13.1556 780.458,-56.8749 940.813,-29.6985 948.566,-28.3846 956.847,-26.2138 964.266,-23.9764"/>
<polygon fill="red" stroke="red" stroke-width="0.400852" points="965.574,-27.2325 974.032,-20.8513 963.441,-20.5655 965.574,-27.2325"/>
</g>
<!-- &#45;12 -->
<g id="node12" class="node"><title>&#45;12</title>
<polygon fill="lightgray" stroke="black" points="544.313,-95.9117 515.313,-95.9117 515.313,-77.9117 544.313,-77.9117 544.313,-95.9117"/>
<text text-anchor="middle" x="529.813" y="-84.7117" font-family="Times New Roman,serif" font-size="9.00">&#45;12</text>
</g>
<!-- &#45;12&#45;&gt;0 -->
<g id="edge44" class="edge"><title>&#45;12&#45;&gt;0</title>
<path fill="none" stroke="red" stroke-width="0.17791" d="M537.07,-77.5163C541.234,-73.2657 546.817,-68.4377 552.813,-65.6985 613.665,-37.897 819.209,-22.1859 891.449,-17.4187"/>
<polygon fill="red" stroke="red" stroke-width="0.17791" points="892.103,-20.8839 901.856,-16.7474 891.652,-13.8985 892.103,-20.8839"/>
</g>
<!-- &#45;12&#45;&gt;1 -->
<g id="edge45" class="edge"><title>&#45;12&#45;&gt;1</title>
<path fill="none" stroke="red" stroke-width="0.13324" d="M536.612,-77.7907C540.795,-73.3993 546.545,-68.346 552.813,-65.6985 647.064,-25.8903 909.942,-39.2024 1011.81,-29.6985 1047.64,-26.3557 1089.03,-21.7398 1114.82,-18.7743"/>
<polygon fill="red" stroke="red" stroke-width="0.13324" points="1115.32,-22.2396 1124.85,-17.6129 1114.51,-15.2861 1115.32,-22.2396"/>
</g>
<!-- &#45;12&#45;&gt;2 -->
<g id="edge46" class="edge"><title>&#45;12&#45;&gt;2</title>
<path fill="none" stroke="green" stroke-width="0.421934" d="M536.593,-77.7449C540.769,-73.3383 546.519,-68.285 552.813,-65.6985 678.617,-13.9973 1033.52,-68.7369 1163.81,-29.6985 1164.87,-29.3809 1165.94,-29.0086 1166.99,-28.594"/>
<polygon fill="green" stroke="green" stroke-width="0.421934" points="1168.71,-31.6469 1176.1,-24.0542 1165.59,-25.3817 1168.71,-31.6469"/>
</g>
<!-- &#45;12&#45;&gt;3 -->
<g id="edge47" class="edge"><title>&#45;12&#45;&gt;3</title>
<path fill="none" stroke="red" stroke-width="0.442589" d="M536.626,-77.8241C540.814,-73.4438 546.564,-68.3905 552.813,-65.6985 711.867,2.81947 770.729,-62.3272 940.813,-29.6985 948.535,-28.217 956.809,-25.9997 964.228,-23.7712"/>
<polygon fill="red" stroke="red" stroke-width="0.442589" points="965.518,-27.0344 974.003,-20.6888 963.413,-20.3585 965.518,-27.0344"/>
</g>
<!-- &#45;13 -->
<g id="node13" class="node"><title>&#45;13</title>
<polygon fill="lightgray" stroke="black" points="591.313,-95.9117 562.313,-95.9117 562.313,-77.9117 591.313,-77.9117 591.313,-95.9117"/>
<text text-anchor="middle" x="576.813" y="-84.7117" font-family="Times New Roman,serif" font-size="9.00">&#45;13</text>
</g>
<!-- &#45;13&#45;&gt;0 -->
<g id="edge48" class="edge"><title>&#45;13&#45;&gt;0</title>
<path fill="none" stroke="red" stroke-width="0.265387" d="M584.091,-77.5637C588.262,-73.327 593.845,-68.4972 599.813,-65.6985 700.09,-18.675 835.795,-14.6235 891.429,-15.1605"/>
<polygon fill="red" stroke="red" stroke-width="0.265387" points="891.695,-18.6651 901.749,-15.3242 891.806,-11.6659 891.695,-18.6651"/>
</g>
<!-- &#45;13&#45;&gt;1 -->
<g id="edge49" class="edge"><title>&#45;13&#45;&gt;1</title>
<path fill="none" stroke="red" stroke-width="0.253653" d="M583.621,-77.8116C587.806,-73.4271 593.556,-68.3738 599.813,-65.6985 684.316,-29.5644 920.345,-38.642 1011.81,-29.6985 1047.63,-26.1965 1089.02,-21.6217 1114.81,-18.7085"/>
<polygon fill="red" stroke="red" stroke-width="0.253653" points="1115.3,-22.175 1124.85,-17.5698 1114.52,-15.2197 1115.3,-22.175"/>
</g>
<!-- &#45;13&#45;&gt;2 -->
<g id="edge50" class="edge"><title>&#45;13&#45;&gt;2</title>
<path fill="none" stroke="red" stroke-width="0.115531" d="M583.597,-77.7565C587.776,-73.3537 593.526,-68.3004 599.813,-65.6985 715.857,-17.676 1043.6,-66.0389 1163.81,-29.6985 1164.87,-29.3783 1165.93,-29.0039 1166.99,-28.5876"/>
<polygon fill="red" stroke="red" stroke-width="0.115531" points="1168.72,-31.6389 1176.1,-24.0414 1165.59,-25.3756 1168.72,-31.6389"/>
</g>
<!-- &#45;13&#45;&gt;3 -->
<g id="edge51" class="edge"><title>&#45;13&#45;&gt;3</title>
<path fill="none" stroke="green" stroke-width="0.374523" d="M583.639,-77.8538C587.831,-73.4834 593.581,-68.4301 599.813,-65.6985 739.392,-4.51971 791.329,-59.3579 940.813,-29.6985 948.526,-28.1681 956.797,-25.9373 964.217,-23.7113"/>
<polygon fill="green" stroke="green" stroke-width="0.374523" points="965.501,-26.9766 973.993,-20.6414 963.404,-20.2981 965.501,-26.9766"/>
</g>
<!-- &#45;14 -->
<g id="node14" class="node"><title>&#45;14</title>
<polygon fill="lightgray" stroke="black" points="638.313,-95.9117 609.313,-95.9117 609.313,-77.9117 638.313,-77.9117 638.313,-95.9117"/>
<text text-anchor="middle" x="623.813" y="-84.7117" font-family="Times New Roman,serif" font-size="9.00">&#45;14</text>
</g>
<!-- &#45;14&#45;&gt;0 -->
<g id="edge52" class="edge"><title>&#45;14&#45;&gt;0</title>
<path fill="none" stroke="green" stroke-width="0.235905" d="M631.122,-77.6268C635.301,-73.4086 640.882,-68.5763 646.813,-65.6985 730.14,-25.2634 842.519,-17.4916 891.846,-16.0941"/>
<polygon fill="green" stroke="green" stroke-width="0.235905" points="891.994,-19.5918 901.915,-15.875 891.842,-12.5934 891.994,-19.5918"/>
</g>
<!-- &#45;14&#45;&gt;1 -->
<g id="edge53" class="edge"><title>&#45;14&#45;&gt;1</title>
<path fill="none" stroke="red" stroke-width="0.48556" d="M630.632,-77.8377C634.821,-73.4619 640.571,-68.4086 646.813,-65.6985 721.574,-33.2357 930.74,-38.0823 1011.81,-29.6985 1047.61,-25.9968 1089.01,-21.4734 1114.8,-18.626"/>
<polygon fill="red" stroke="red" stroke-width="0.48556" points="1115.29,-22.094 1124.84,-17.5156 1114.52,-15.1364 1115.29,-22.094"/>
</g>
<!-- &#45;14&#45;&gt;2 -->
<g id="edge54" class="edge"><title>&#45;14&#45;&gt;2</title>
<path fill="none" stroke="green" stroke-width="0.104738" d="M630.603,-77.7701C634.783,-73.3718 640.533,-68.3185 646.813,-65.6985 859.387,22.9911 943.526,-96.9848 1163.81,-29.6985 1164.87,-29.3753 1165.93,-28.9983 1166.99,-28.58"/>
<polygon fill="green" stroke="green" stroke-width="0.104738" points="1168.72,-31.6294 1176.1,-24.0264 1165.59,-25.3685 1168.72,-31.6294"/>
</g>
<!-- &#45;14&#45;&gt;3 -->
<g id="edge55" class="edge"><title>&#45;14&#45;&gt;3</title>
<path fill="none" stroke="red" stroke-width="0.488636" d="M630.656,-77.8926C634.854,-73.5352 640.604,-68.4819 646.813,-65.6985 766.938,-11.8492 811.905,-56.3933 940.813,-29.6985 948.513,-28.1039 956.78,-25.8552 964.201,-23.6327"/>
<polygon fill="red" stroke="red" stroke-width="0.488636" points="965.478,-26.9005 973.981,-20.5791 963.392,-20.2187 965.478,-26.9005"/>
</g>
<!-- &#45;15 -->
<g id="node15" class="node"><title>&#45;15</title>
<polygon fill="lightgray" stroke="black" points="685.313,-95.9117 656.313,-95.9117 656.313,-77.9117 685.313,-77.9117 685.313,-95.9117"/>
<text text-anchor="middle" x="670.813" y="-84.7117" font-family="Times New Roman,serif" font-size="9.00">&#45;15</text>
</g>
<!-- &#45;15&#45;&gt;0 -->
<g id="edge56" class="edge"><title>&#45;15&#45;&gt;0</title>
<path fill="none" stroke="green" stroke-width="0.121841" d="M678.165,-77.7148C682.357,-73.5223 687.937,-68.6865 693.813,-65.6985 760.173,-31.9515 849.077,-20.8938 891.812,-17.395"/>
<polygon fill="green" stroke="green" stroke-width="0.121841" points="892.165,-20.8784 901.877,-16.6432 891.644,-13.8979 892.165,-20.8784"/>
</g>
<!-- &#45;15&#45;&gt;1 -->
<g id="edge57" class="edge"><title>&#45;15&#45;&gt;1</title>
<path fill="none" stroke="red" stroke-width="0.179624" d="M677.645,-77.8681C681.839,-73.5024 687.589,-68.4491 693.813,-65.6985 696.255,-64.6192 1021.85,-28.8027 1115.11,-18.5602"/>
<polygon fill="red" stroke="red" stroke-width="0.179624" points="1115.51,-22.0382 1125.06,-17.4675 1114.74,-15.08 1115.51,-22.0382"/>
</g>
<!-- &#45;15&#45;&gt;2 -->
<g id="edge58" class="edge"><title>&#45;15&#45;&gt;2</title>
<path fill="none" stroke="red" stroke-width="0.268708" d="M677.61,-77.7864C681.792,-73.3935 687.542,-68.3402 693.813,-65.6985 886.88,15.6383 963.664,-91.5923 1163.81,-29.6985 1164.87,-29.3716 1165.93,-28.9917 1166.99,-28.5709"/>
<polygon fill="red" stroke="red" stroke-width="0.268708" points="1168.72,-31.618 1176.09,-24.0083 1165.58,-25.36 1168.72,-31.618"/>
</g>
<!-- &#45;15&#45;&gt;3 -->
<g id="edge59" class="edge"><title>&#45;15&#45;&gt;3</title>
<path fill="none" stroke="green" stroke-width="0.300061" d="M678.079,-77.5369C682.246,-73.2924 687.829,-68.4635 693.813,-65.6985 794.518,-19.1632 832.445,-53.4364 940.813,-29.6985 948.494,-28.0159 956.756,-25.7428 964.178,-23.5249"/>
<polygon fill="green" stroke="green" stroke-width="0.300061" points="965.446,-26.7962 973.962,-20.4937 963.375,-20.1097 965.446,-26.7962"/>
</g>
<!-- &#45;16 -->
<g id="node16" class="node"><title>&#45;16</title>
<polygon fill="lightgray" stroke="black" points="732.313,-95.9117 703.313,-95.9117 703.313,-77.9117 732.313,-77.9117 732.313,-95.9117"/>
<text text-anchor="middle" x="717.813" y="-84.7117" font-family="Times New Roman,serif" font-size="9.00">&#45;16</text>
</g>
<!-- &#45;16&#45;&gt;0 -->
<g id="edge60" class="edge"><title>&#45;16&#45;&gt;0</title>
<path fill="none" stroke="red" stroke-width="0.283425" d="M725.234,-77.8452C729.446,-73.691 735.023,-68.8501 740.813,-65.6985 790.61,-38.591 856.549,-25.0482 891.896,-19.3341"/>
<polygon fill="red" stroke="red" stroke-width="0.283425" points="892.481,-22.7855 901.833,-17.8058 891.417,-15.8668 892.481,-22.7855"/>
</g>
<!-- &#45;16&#45;&gt;1 -->
<g id="edge61" class="edge"><title>&#45;16&#45;&gt;1</title>
<path fill="none" stroke="green" stroke-width="0.76179" d="M724.659,-77.8983C728.857,-73.5428 734.607,-68.4895 740.813,-65.6985 758.005,-57.9662 1030.32,-27.7855 1114.93,-18.5498"/>
<polygon fill="green" stroke="green" stroke-width="0.76179" points="1115.37,-22.0221 1124.94,-17.4597 1114.62,-15.0633 1115.37,-22.0221"/>
</g>
<!-- &#45;16&#45;&gt;2 -->
<g id="edge62" class="edge"><title>&#45;16&#45;&gt;2</title>
<path fill="none" stroke="red" stroke-width="0.309305" d="M724.618,-77.8063C728.803,-73.42 734.553,-68.3667 740.813,-65.6985 914.381,8.28914 983.793,-86.2026 1163.81,-29.6985 1164.87,-29.3671 1165.93,-28.9835 1166.98,-28.5598"/>
<polygon fill="red" stroke="red" stroke-width="0.309305" points="1168.72,-31.6042 1176.08,-23.9863 1165.58,-25.3496 1168.72,-31.6042"/>
</g>
<!-- &#45;16&#45;&gt;3 -->
<g id="edge63" class="edge"><title>&#45;16&#45;&gt;3</title>
<path fill="none" stroke="green" stroke-width="0.373664" d="M725.116,-77.6162C729.294,-73.3949 734.876,-68.563 740.813,-65.6985 822.157,-26.4505 852.922,-50.4931 940.813,-29.6985 948.465,-27.888 956.719,-25.5794 964.142,-23.3683"/>
<polygon fill="green" stroke="green" stroke-width="0.373664" points="965.397,-26.6444 973.934,-20.3697 963.348,-19.9512 965.397,-26.6444"/>
</g>
<!-- &#45;17 -->
<g id="node17" class="node"><title>&#45;17</title>
<polygon fill="lightgray" stroke="black" points="779.313,-95.9117 750.313,-95.9117 750.313,-77.9117 779.313,-77.9117 779.313,-95.9117"/>
<text text-anchor="middle" x="764.813" y="-84.7117" font-family="Times New Roman,serif" font-size="9.00">&#45;17</text>
</g>
<!-- &#45;17&#45;&gt;0 -->
<g id="edge64" class="edge"><title>&#45;17&#45;&gt;0</title>
<path fill="none" stroke="green" stroke-width="0.309134" d="M772.771,-77.6583C776.963,-73.6529 782.357,-69.0049 787.813,-65.6985 821.891,-45.0444 866.003,-30.2188 892.815,-22.3454"/>
<polygon fill="green" stroke="green" stroke-width="0.309134" points="893.857,-25.6879 902.514,-19.5801 891.937,-18.9562 893.857,-25.6879"/>
</g>
<!-- &#45;17&#45;&gt;1 -->
<g id="edge65" class="edge"><title>&#45;17&#45;&gt;1</title>
<path fill="none" stroke="green" stroke-width="0.293607" d="M772.075,-77.5273C776.24,-73.2799 781.823,-68.4514 787.813,-65.6985 817.545,-52.0323 1039.58,-26.7994 1114.9,-18.5419"/>
<polygon fill="green" stroke="green" stroke-width="0.293607" points="1115.35,-22.0139 1124.91,-17.4501 1114.59,-15.0552 1115.35,-22.0139"/>
</g>
<!-- &#45;17&#45;&gt;2 -->
<g id="edge66" class="edge"><title>&#45;17&#45;&gt;2</title>
<path fill="none" stroke="red" stroke-width="0.284572" d="M771.629,-77.831C775.818,-73.453 781.568,-68.3997 787.813,-65.6985 941.893,0.944919 1003.91,-80.8167 1163.81,-29.6985 1164.87,-29.3616 1165.92,-28.9734 1166.98,-28.5459"/>
<polygon fill="red" stroke="red" stroke-width="0.284572" points="1168.72,-31.5869 1176.07,-23.9589 1165.57,-25.3367 1168.72,-31.5869"/>
</g>
<!-- &#45;17&#45;&gt;3 -->
<g id="edge67" class="edge"><title>&#45;17&#45;&gt;3</title>
<path fill="none" stroke="green" stroke-width="0.309296" d="M772.179,-77.7409C776.375,-73.5561 781.954,-68.7193 787.813,-65.6985 849.903,-33.6853 873.283,-47.5779 940.813,-29.6985 948.414,-27.6859 956.654,-25.3211 964.08,-23.1208"/>
<polygon fill="green" stroke="green" stroke-width="0.309296" points="965.316,-26.4041 973.885,-20.1737 963.301,-19.7004 965.316,-26.4041"/>
</g>
<!-- &#45;18 -->
<g id="node18" class="node"><title>&#45;18</title>
<polygon fill="lightgray" stroke="black" points="1836.31,-162.125 1807.31,-162.125 1807.31,-144.125 1836.31,-144.125 1836.31,-162.125"/>
<text text-anchor="middle" x="1821.81" y="-150.925" font-family="Times New Roman,serif" font-size="9.00">&#45;18</text>
</g>
<!-- &#45;18&#45;&gt;0 -->
<g id="edge68" class="edge"><title>&#45;18&#45;&gt;0</title>
<path fill="none" stroke="green" stroke-width="0.112368" stroke-dasharray="1,5" d="M1807.24,-152.054C1637.61,-151.197 43.1079,-142.238 9.81282,-108.125 -3.35768,-94.6307 -3.1495,-79.3928 9.81282,-65.6985 40.9817,-32.7695 748.313,-18.7713 891.625,-16.2682"/>
<polygon fill="green" stroke="green" stroke-width="0.112368" points="891.717,-19.7672 901.656,-16.0958 891.597,-12.7682 891.717,-19.7672"/>
</g>
<!-- &#45;18&#45;&gt;1 -->
<g id="edge69" class="edge"><title>&#45;18&#45;&gt;1</title>
<path fill="none" stroke="green" stroke-width="0.465085" d="M1822.9,-143.863C1824.67,-126.335 1825.97,-85.4186 1802.81,-65.6985 1748.67,-19.5968 1231.96,-50.0215 1163.81,-29.6985 1162.75,-29.3823 1161.69,-29.0111 1160.63,-28.5974"/>
<polygon fill="green" stroke="green" stroke-width="0.465085" points="1162.03,-25.3849 1151.52,-24.0609 1158.91,-31.6511 1162.03,-25.3849"/>
</g>
<!-- &#45;18&#45;&gt;2 -->
<g id="edge70" class="edge"><title>&#45;18&#45;&gt;2</title>
<path fill="none" stroke="red" stroke-width="0.502961" d="M1836.49,-151.455C1861.8,-149.415 1913.13,-141.19 1935.81,-108.125 1946.48,-92.5753 1948.7,-79.468 1935.81,-65.6985 1885.43,-11.8443 1337.9,-14.2764 1213.05,-15.5413"/>
<polygon fill="red" stroke="red" stroke-width="0.502961" points="1212.89,-12.0428 1202.93,-15.6511 1212.97,-19.0424 1212.89,-12.0428"/>
</g>
<!-- &#45;18&#45;&gt;3 -->
<g id="edge71" class="edge"><title>&#45;18&#45;&gt;3</title>
<path fill="none" stroke="red" stroke-width="0.330976" d="M1807.16,-152.029C1643.04,-150.927 154.924,-140.053 123.813,-108.125 -3.4751,22.5041 760.909,-59.7096 940.813,-29.6985 948.569,-28.4046 956.852,-26.2395 964.27,-24.0009"/>
<polygon fill="red" stroke="red" stroke-width="0.330976" points="965.581,-27.2562 974.035,-20.8707 963.444,-20.5902 965.581,-27.2562"/>
</g>
<!-- 181 -->
<g id="node46" class="node"><title>181</title>
<ellipse fill="white" stroke="black" cx="2041.81" cy="-86.9117" rx="21.4286" ry="21.4286"/>
<text text-anchor="middle" x="2041.81" y="-84.7117" font-family="Times New Roman,serif" font-size="9.00">181</text>
</g>
<!-- &#45;18&#45;&gt;181 -->
<g id="edge157" class="edge"><title>&#45;18&#45;&gt;181</title>
<path fill="none" stroke="green" stroke-width="0.408896" d="M1836.65,-150.093C1868.62,-145.394 1946.07,-132.287 2006.81,-108.125 2009.72,-106.969 2012.67,-105.603 2015.57,-104.135"/>
<polygon fill="green" stroke="green" stroke-width="0.408896" points="2017.43,-107.11 2024.51,-99.2317 2014.06,-100.973 2017.43,-107.11"/>
</g>
<!-- &#45;19 -->
<g id="node19" class="node"><title>&#45;19</title>
<polygon fill="lightgray" stroke="black" points="826.313,-95.9117 797.313,-95.9117 797.313,-77.9117 826.313,-77.9117 826.313,-95.9117"/>
<text text-anchor="middle" x="811.813" y="-84.7117" font-family="Times New Roman,serif" font-size="9.00">&#45;19</text>
</g>
<!-- &#45;19&#45;&gt;0 -->
<g id="edge72" class="edge"><title>&#45;19&#45;&gt;0</title>
<path fill="none" stroke="green" stroke-width="0.512874" d="M820.467,-77.6637C824.655,-73.8419 829.843,-69.3494 834.813,-65.6985 854.342,-51.3512 878.151,-37.215 895.071,-27.6816"/>
<polygon fill="green" stroke="green" stroke-width="0.512874" points="897.113,-30.5509 904.154,-22.6335 893.713,-24.4325 897.113,-30.5509"/>
</g>
<!-- &#45;19&#45;&gt;1 -->
<g id="edge73" class="edge"><title>&#45;19&#45;&gt;1</title>
<path fill="none" stroke="green" stroke-width="0.348021" d="M819.098,-77.5781C823.271,-73.3456 828.853,-68.5151 834.813,-65.6985 860.086,-53.754 1046.33,-28.222 1114.72,-19.14"/>
<polygon fill="green" stroke="green" stroke-width="0.348021" points="1115.54,-22.5617 1125,-17.7813 1114.63,-15.6221 1115.54,-22.5617"/>
</g>
<!-- &#45;19&#45;&gt;2 -->
<g id="edge74" class="edge"><title>&#45;19&#45;&gt;2</title>
<path fill="none" stroke="red" stroke-width="0.415814" d="M818.643,-77.8627C822.836,-73.4952 828.586,-68.4419 834.813,-65.6985 969.422,-6.39215 1024.01,-75.4362 1163.81,-29.6985 1164.69,-29.4105 1165.58,-29.0876 1166.46,-28.7365"/>
<polygon fill="red" stroke="red" stroke-width="0.415814" points="1168.17,-31.7949 1175.57,-24.2134 1165.06,-25.525 1168.17,-31.7949"/>
</g>
<!-- &#45;19&#45;&gt;3 -->
<g id="edge75" class="edge"><title>&#45;19&#45;&gt;3</title>
<path fill="none" stroke="green" stroke-width="0.131361" d="M819.697,-77.5331C823.87,-73.4958 829.271,-68.857 834.813,-65.6985 846.26,-59.1751 923.915,-35.1976 963.988,-23.0315"/>
<polygon fill="green" stroke="green" stroke-width="0.131361" points="965.2,-26.3216 973.756,-20.0738 963.171,-19.6219 965.2,-26.3216"/>
</g>
<!-- &#45;20 -->
<g id="node20" class="node"><title>&#45;20</title>
<polygon fill="lightgray" stroke="black" points="1879.31,-95.9117 1850.31,-95.9117 1850.31,-77.9117 1879.31,-77.9117 1879.31,-95.9117"/>
<text text-anchor="middle" x="1864.81" y="-84.7117" font-family="Times New Roman,serif" font-size="9.00">&#45;20</text>
</g>
<!-- &#45;20&#45;&gt;1 -->
<g id="edge76" class="edge"><title>&#45;20&#45;&gt;1</title>
<path fill="none" stroke="green" stroke-width="0.111001" d="M1855.88,-77.7204C1850.49,-73.3056 1843.24,-68.2523 1835.81,-65.6985 1552.96,31.5372 1450.55,-114.78 1163.81,-29.6985 1162.75,-29.3837 1161.69,-29.0138 1160.63,-28.601"/>
<polygon fill="green" stroke="green" stroke-width="0.111001" points="1162.03,-25.3883 1151.52,-24.0681 1158.91,-31.6557 1162.03,-25.3883"/>
</g>
<!-- &#45;20&#45;&gt;2 -->
<g id="edge77" class="edge"><title>&#45;20&#45;&gt;2</title>
<path fill="none" stroke="green" stroke-width="0.493019" d="M1855.86,-77.7851C1850.46,-73.3918 1843.21,-68.3385 1835.81,-65.6985 1717.9,-23.6235 1317.48,-17.0358 1212.95,-16.0274"/>
<polygon fill="green" stroke="green" stroke-width="0.493019" points="1212.76,-12.5257 1202.73,-15.9379 1212.69,-19.5254 1212.76,-12.5257"/>
</g>
<!-- &#45;20&#45;&gt;3 -->
<g id="edge78" class="edge"><title>&#45;20&#45;&gt;3</title>
<path fill="none" stroke="green" stroke-width="0.323419" d="M1849.82,-79.7893C1837.43,-75.0376 1819.29,-68.7601 1802.81,-65.6985 1502.21,-9.831 1420.59,-54.1527 1115.81,-29.6985 1079.94,-26.8203 1038.56,-22.0846 1012.79,-18.9662"/>
<polygon fill="green" stroke="green" stroke-width="0.323419" points="1013.12,-15.4798 1002.76,-17.7389 1012.26,-22.428 1013.12,-15.4798"/>
</g>
<!-- &#45;21 -->
<g id="node21" class="node"><title>&#45;21</title>
<polygon fill="lightgray" stroke="black" points="873.313,-95.9117 844.313,-95.9117 844.313,-77.9117 873.313,-77.9117 873.313,-95.9117"/>
<text text-anchor="middle" x="858.813" y="-84.7117" font-family="Times New Roman,serif" font-size="9.00">&#45;21</text>
</g>
<!-- &#45;21&#45;&gt;0 -->
<g id="edge79" class="edge"><title>&#45;21&#45;&gt;0</title>
<path fill="none" stroke="green" stroke-width="0.357362" d="M865.466,-77.8746C874.041,-67.5161 889.231,-49.1677 900.872,-35.1057"/>
<polygon fill="green" stroke="green" stroke-width="0.357362" points="903.89,-36.9487 907.57,-27.0138 898.498,-32.4849 903.89,-36.9487"/>
</g>
<!-- &#45;21&#45;&gt;1 -->
<g id="edge80" class="edge"><title>&#45;21&#45;&gt;1</title>
<path fill="none" stroke="green" stroke-width="0.189108" d="M866.131,-77.6464C870.313,-73.4339 875.894,-68.6008 881.813,-65.6985 922.997,-45.5022 1058.68,-26.2759 1114.98,-18.9578"/>
<polygon fill="green" stroke="green" stroke-width="0.189108" points="1115.66,-22.3996 1125.13,-17.6562 1114.77,-15.4565 1115.66,-22.3996"/>
</g>
<!-- &#45;21&#45;&gt;2 -->
<g id="edge81" class="edge"><title>&#45;21&#45;&gt;2</title>
<path fill="none" stroke="red" stroke-width="0.452501" d="M865.661,-77.9046C869.861,-73.5511 875.611,-68.4978 881.813,-65.6985 996.976,-13.7184 1044.08,-70.0641 1163.81,-29.6985 1164.69,-29.4026 1165.57,-29.073 1166.45,-28.7163"/>
<polygon fill="red" stroke="red" stroke-width="0.452501" points="1168.17,-31.7682 1175.55,-24.1668 1165.04,-25.5067 1168.17,-31.7682"/>
</g>
<!-- &#45;21&#45;&gt;3 -->
<g id="edge82" class="edge"><title>&#45;21&#45;&gt;3</title>
<path fill="none" stroke="red" stroke-width="0.369969" d="M866.873,-77.8201C871.091,-73.8559 876.478,-69.196 881.813,-65.6985 908.534,-48.1804 942.383,-33.3884 964.546,-24.5749"/>
<polygon fill="red" stroke="red" stroke-width="0.369969" points="966.07,-27.7374 974.121,-20.8502 963.533,-21.2135 966.07,-27.7374"/>
</g>
<!-- &#45;22 -->
<g id="node22" class="node"><title>&#45;22</title>
<polygon fill="lightgray" stroke="black" points="920.313,-95.9117 891.313,-95.9117 891.313,-77.9117 920.313,-77.9117 920.313,-95.9117"/>
<text text-anchor="middle" x="905.813" y="-84.7117" font-family="Times New Roman,serif" font-size="9.00">&#45;22</text>
</g>
<!-- &#45;22&#45;&gt;0 -->
<g id="edge83" class="edge"><title>&#45;22&#45;&gt;0</title>
<path fill="none" stroke="green" stroke-width="0.280111" d="M907.075,-77.8746C908.535,-68.572 911.007,-52.8252 913.095,-39.5264"/>
<polygon fill="green" stroke="green" stroke-width="0.280111" points="916.567,-39.9774 914.661,-29.5556 909.652,-38.8917 916.567,-39.9774"/>
</g>
<!-- &#45;22&#45;&gt;1 -->
<g id="edge84" class="edge"><title>&#45;22&#45;&gt;1</title>
<path fill="none" stroke="red" stroke-width="0.153046" d="M913.18,-77.743C917.376,-73.5588 922.955,-68.7219 928.813,-65.6985 990.856,-33.674 1073.77,-21.8864 1114.73,-17.8226"/>
<polygon fill="red" stroke="red" stroke-width="0.153046" points="1115.25,-21.2894 1124.89,-16.89 1114.61,-14.3187 1115.25,-21.2894"/>
</g>
<!-- &#45;22&#45;&gt;2 -->
<g id="edge85" class="edge"><title>&#45;22&#45;&gt;2</title>
<path fill="none" stroke="green" stroke-width="0.539453" d="M913.087,-77.5543C917.256,-73.3148 922.839,-68.4853 928.813,-65.6985 1024.57,-21.027 1064.12,-64.7057 1163.81,-29.6985 1164.69,-29.3917 1165.56,-29.0527 1166.44,-28.6881"/>
<polygon fill="green" stroke="green" stroke-width="0.539453" points="1168.18,-31.7313 1175.53,-24.102 1165.03,-25.4816 1168.18,-31.7313"/>
</g>
<!-- &#45;22&#45;&gt;3 -->
<g id="edge86" class="edge"><title>&#45;22&#45;&gt;3</title>
<path fill="none" stroke="green" stroke-width="0.276212" d="M915.177,-77.6092C919.336,-73.9399 924.303,-69.5851 928.813,-65.6985 942.219,-54.1463 957.482,-41.2574 969.125,-31.4799"/>
<polygon fill="green" stroke="green" stroke-width="0.276212" points="971.47,-34.0807 976.885,-24.9738 966.973,-28.7166 971.47,-34.0807"/>
</g>
<!-- &#45;23 -->
<g id="node23" class="node"><title>&#45;23</title>
<polygon fill="lightgray" stroke="black" points="967.313,-95.9117 938.313,-95.9117 938.313,-77.9117 967.313,-77.9117 967.313,-95.9117"/>
<text text-anchor="middle" x="952.813" y="-84.7117" font-family="Times New Roman,serif" font-size="9.00">&#45;23</text>
</g>
<!-- &#45;23&#45;&gt;0 -->
<g id="edge87" class="edge"><title>&#45;23&#45;&gt;0</title>
<path fill="none" stroke="green" stroke-width="0.283749" d="M948.683,-77.8746C943.66,-68.0985 934.98,-51.2057 927.946,-37.5161"/>
<polygon fill="green" stroke="green" stroke-width="0.283749" points="930.874,-35.5565 923.191,-28.2615 924.648,-38.7557 930.874,-35.5565"/>
</g>
<!-- &#45;23&#45;&gt;1 -->
<g id="edge88" class="edge"><title>&#45;23&#45;&gt;1</title>
<path fill="none" stroke="green" stroke-width="0.394716" d="M960.258,-77.8892C964.477,-73.7478 970.054,-68.9052 975.813,-65.6985 1021.36,-40.3363 1081.38,-26.3411 1114.72,-20.0329"/>
<polygon fill="green" stroke="green" stroke-width="0.394716" points="1115.73,-23.4071 1124.95,-18.183 1114.49,-16.5189 1115.73,-23.4071"/>
</g>
<!-- &#45;23&#45;&gt;2 -->
<g id="edge89" class="edge"><title>&#45;23&#45;&gt;2</title>
<path fill="none" stroke="green" stroke-width="0.354412" d="M960.129,-77.6425C964.311,-73.4288 969.892,-68.5959 975.813,-65.6985 1052.23,-28.3043 1084.08,-59.3719 1163.81,-29.6985 1164.68,-29.3755 1165.55,-29.0227 1166.43,-28.6466"/>
<polygon fill="green" stroke="green" stroke-width="0.354412" points="1168.19,-31.6767 1175.5,-24.0064 1165,-25.4448 1168.19,-31.6767"/>
</g>
<!-- &#45;23&#45;&gt;3 -->
<g id="edge90" class="edge"><title>&#45;23&#45;&gt;3</title>
<path fill="none" stroke="green" stroke-width="0.540143" d="M956.828,-77.8746C961.683,-68.1564 970.051,-51.4054 976.868,-37.7594"/>
<polygon fill="green" stroke="green" stroke-width="0.540143" points="980.147,-39.0268 981.485,-28.5167 973.885,-35.8985 980.147,-39.0268"/>
</g>
<!-- &#45;24 -->
<g id="node24" class="node"><title>&#45;24</title>
<polygon fill="lightgray" stroke="black" points="1969.31,-162.125 1940.31,-162.125 1940.31,-144.125 1969.31,-144.125 1969.31,-162.125"/>
<text text-anchor="middle" x="1954.81" y="-150.925" font-family="Times New Roman,serif" font-size="9.00">&#45;24</text>
</g>
<!-- &#45;24&#45;&gt;0 -->
<g id="edge91" class="edge"><title>&#45;24&#45;&gt;0</title>
<path fill="none" stroke="red" stroke-width="0.573595" d="M1940.02,-150.79C1919.07,-148.957 1879.55,-145.707 1845.81,-144.125 1796.97,-141.834 120.034,-143.054 85.8128,-108.125 72.6165,-94.6559 72.8848,-79.4252 85.8128,-65.6985 114.155,-35.6051 755.726,-19.4827 891.653,-16.3981"/>
<polygon fill="red" stroke="red" stroke-width="0.573595" points="891.974,-19.8919 901.894,-16.1689 891.818,-12.8937 891.974,-19.8919"/>
</g>
<!-- &#45;24&#45;&gt;1 -->
<g id="edge92" class="edge"><title>&#45;24&#45;&gt;1</title>
<path fill="none" stroke="green" stroke-width="0.113984" d="M1955.88,-144.11C1957.7,-126.698 1959.19,-85.4053 1935.81,-65.6985 1870.16,-10.3461 1246.22,-53.8407 1163.81,-29.6985 1162.75,-29.3874 1161.69,-29.0204 1160.63,-28.6101"/>
<polygon fill="green" stroke="green" stroke-width="0.113984" points="1162.03,-25.3969 1151.51,-24.0862 1158.91,-31.6671 1162.03,-25.3969"/>
</g>
<!-- &#45;24&#45;&gt;2 -->
<g id="edge93" class="edge"><title>&#45;24&#45;&gt;2</title>
<path fill="none" stroke="red" stroke-width="0.119049" d="M1969.45,-151.619C1995.26,-149.842 2048.34,-142.026 2071.81,-108.125 2082.55,-92.6215 2084.77,-79.402 2071.81,-65.6985 2041.52,-33.6465 1354.88,-18.9963 1213.23,-16.3097"/>
<polygon fill="red" stroke="red" stroke-width="0.119049" points="1213.01,-12.8051 1202.95,-16.1177 1212.88,-19.8039 1213.01,-12.8051"/>
</g>
<!-- &#45;24&#45;&gt;3 -->
<g id="edge94" class="edge"><title>&#45;24&#45;&gt;3</title>
<path fill="none" stroke="green" stroke-width="0.481292" d="M1940.02,-150.794C1919.07,-148.965 1879.55,-145.721 1845.81,-144.125 1798.94,-141.907 189.64,-141.659 156.813,-108.125 34.3305,16.9959 768.134,-58.6685 940.813,-29.6985 948.568,-28.3975 956.85,-26.2303 964.268,-23.9921"/>
<polygon fill="green" stroke="green" stroke-width="0.481292" points="965.578,-27.2477 974.034,-20.8638 963.443,-20.5814 965.578,-27.2477"/>
</g>
<!-- &#45;24&#45;&gt;401 -->
<g id="edge159" class="edge"><title>&#45;24&#45;&gt;401</title>
<path fill="none" stroke="green" stroke-width="0.402142" d="M1969.7,-149.001C1997.12,-142.978 2057.16,-128.526 2104.81,-108.125 2107.53,-106.96 2110.31,-105.63 2113.05,-104.221"/>
<polygon fill="green" stroke="green" stroke-width="0.402142" points="2115,-107.14 2122.07,-99.2513 2111.62,-101.008 2115,-107.14"/>
</g>
<!-- &#45;25 -->
<g id="node25" class="node"><title>&#45;25</title>
<polygon fill="lightgray" stroke="black" points="1014.31,-95.9117 985.313,-95.9117 985.313,-77.9117 1014.31,-77.9117 1014.31,-95.9117"/>
<text text-anchor="middle" x="999.813" y="-84.7117" font-family="Times New Roman,serif" font-size="9.00">&#45;25</text>
</g>
<!-- &#45;25&#45;&gt;0 -->
<g id="edge95" class="edge"><title>&#45;25&#45;&gt;0</title>
<path fill="none" stroke="green" stroke-width="0.573661" d="M990.292,-77.8746C976.972,-66.631 952.5,-45.9737 935.475,-31.6025"/>
<polygon fill="green" stroke="green" stroke-width="0.573661" points="937.696,-28.8972 927.797,-25.1214 933.181,-34.2463 937.696,-28.8972"/>
</g>
<!-- &#45;25&#45;&gt;1 -->
<g id="edge96" class="edge"><title>&#45;25&#45;&gt;1</title>
<path fill="none" stroke="red" stroke-width="0.140322" d="M1007.82,-77.7364C1012.02,-73.751 1017.41,-69.0972 1022.81,-65.6985 1053.06,-46.6564 1091.83,-31.7644 1116.26,-23.3878"/>
<polygon fill="red" stroke="red" stroke-width="0.140322" points="1117.41,-26.6943 1125.78,-20.2036 1115.19,-20.0556 1117.41,-26.6943"/>
</g>
<!-- &#45;25&#45;&gt;2 -->
<g id="edge97" class="edge"><title>&#45;25&#45;&gt;2</title>
<path fill="none" stroke="red" stroke-width="0.174852" d="M1007.2,-77.7849C1011.4,-73.613 1016.98,-68.7745 1022.81,-65.6985 1080.02,-35.5176 1103.91,-54.089 1163.81,-29.6985 1164.67,-29.3493 1165.53,-28.9742 1166.4,-28.5793"/>
<polygon fill="red" stroke="red" stroke-width="0.174852" points="1168.2,-31.5885 1175.44,-23.8515 1164.95,-25.3861 1168.2,-31.5885"/>
</g>
<!-- &#45;25&#45;&gt;3 -->
<g id="edge98" class="edge"><title>&#45;25&#45;&gt;3</title>
<path fill="none" stroke="green" stroke-width="0.12087" d="M998.436,-77.8746C996.843,-68.572 994.146,-52.8252 991.868,-39.5264"/>
<polygon fill="green" stroke="green" stroke-width="0.12087" points="995.298,-38.8212 990.16,-29.5556 988.399,-40.0029 995.298,-38.8212"/>
</g>
<!-- &#45;26 -->
<g id="node26" class="node"><title>&#45;26</title>
<polygon fill="lightgray" stroke="black" points="1061.31,-95.9117 1032.31,-95.9117 1032.31,-77.9117 1061.31,-77.9117 1061.31,-95.9117"/>
<text text-anchor="middle" x="1046.81" y="-84.7117" font-family="Times New Roman,serif" font-size="9.00">&#45;26</text>
</g>
<!-- &#45;26&#45;&gt;0 -->
<g id="edge99" class="edge"><title>&#45;26&#45;&gt;0</title>
<path fill="none" stroke="red" stroke-width="0.128261" d="M1038.35,-77.8445C1033.93,-73.8866 1028.32,-69.2248 1022.81,-65.6985 995.909,-48.4625 962.101,-33.6063 939.998,-24.7011"/>
<polygon fill="red" stroke="red" stroke-width="0.128261" points="941.038,-21.3488 930.451,-20.9322 938.468,-27.8598 941.038,-21.3488"/>
</g>
<!-- &#45;26&#45;&gt;1 -->
<g id="edge100" class="edge"><title>&#45;26&#45;&gt;1</title>
<path fill="none" stroke="red" stroke-width="0.312276" d="M1055.59,-77.8233C1059.8,-74.0365 1064.98,-69.5274 1069.81,-65.6985 1085.93,-52.932 1104.98,-39.4644 1119.14,-29.7503"/>
<polygon fill="red" stroke="red" stroke-width="0.312276" points="1121.35,-32.4745 1127.65,-23.9538 1117.41,-26.688 1121.35,-32.4745"/>
</g>
<!-- &#45;26&#45;&gt;2 -->
<g id="edge101" class="edge"><title>&#45;26&#45;&gt;2</title>
<path fill="none" stroke="red" stroke-width="0.283088" d="M1054.77,-77.6513C1058.96,-73.6442 1064.35,-68.9967 1069.81,-65.6985 1108.11,-42.5684 1123.42,-48.9381 1163.81,-29.6985 1164.65,-29.3002 1165.49,-28.8836 1166.34,-28.4535"/>
<polygon fill="red" stroke="red" stroke-width="0.283088" points="1168.21,-31.4244 1175.31,-23.5619 1164.85,-25.2797 1168.21,-31.4244"/>
</g>
<!-- &#45;26&#45;&gt;3 -->
<g id="edge102" class="edge"><title>&#45;26&#45;&gt;3</title>
<path fill="none" stroke="red" stroke-width="0.405994" stroke-dasharray="1,5" d="M1040.04,-77.8746C1031.24,-67.4184 1015.58,-48.8208 1003.69,-34.7089"/>
<polygon fill="red" stroke="red" stroke-width="0.405994" points="1006.33,-32.4084 997.215,-27.0138 1000.98,-36.9174 1006.33,-32.4084"/>
</g>
<!-- &#45;27 -->
<g id="node27" class="node"><title>&#45;27</title>
<polygon fill="lightgray" stroke="black" points="1108.31,-95.9117 1079.31,-95.9117 1079.31,-77.9117 1108.31,-77.9117 1108.31,-95.9117"/>
<text text-anchor="middle" x="1093.81" y="-84.7117" font-family="Times New Roman,serif" font-size="9.00">&#45;27</text>
</g>
<!-- &#45;27&#45;&gt;0 -->
<g id="edge103" class="edge"><title>&#45;27&#45;&gt;0</title>
<path fill="none" stroke="green" stroke-width="0.194829" d="M1085.53,-77.5485C1081.16,-73.5152 1075.53,-68.8752 1069.81,-65.6985 1058.3,-59.2959 980.674,-35.2611 940.624,-23.0566"/>
<polygon fill="green" stroke="green" stroke-width="0.194829" points="941.447,-19.6486 930.861,-20.0891 939.411,-26.3461 941.447,-19.6486"/>
</g>
<!-- &#45;27&#45;&gt;1 -->
<g id="edge104" class="edge"><title>&#45;27&#45;&gt;1</title>
<path fill="none" stroke="red" stroke-width="0.738431" d="M1099.09,-77.8746C1105.71,-67.7908 1117.3,-50.1351 1126.43,-36.233"/>
<polygon fill="red" stroke="red" stroke-width="0.738431" points="1129.43,-38.037 1131.99,-27.7567 1123.58,-34.1951 1129.43,-38.037"/>
</g>
<!-- &#45;27&#45;&gt;2 -->
<g id="edge105" class="edge"><title>&#45;27&#45;&gt;2</title>
<path fill="none" stroke="red" stroke-width="0.65508" d="M1103.01,-77.8614C1107.42,-74.083 1112.82,-69.5698 1117.81,-65.6985 1134.06,-53.1022 1153.1,-39.6216 1167.22,-29.8591"/>
<polygon fill="red" stroke="red" stroke-width="0.65508" points="1169.45,-32.5753 1175.71,-24.0274 1165.48,-26.806 1169.45,-32.5753"/>
</g>
<!-- &#45;27&#45;&gt;3 -->
<g id="edge106" class="edge"><title>&#45;27&#45;&gt;3</title>
<path fill="none" stroke="green" stroke-width="0.397993" d="M1084.73,-77.6965C1080.35,-73.8819 1074.94,-69.386 1069.81,-65.6985 1050.13,-51.5574 1026.35,-37.3931 1009.47,-27.7969"/>
<polygon fill="green" stroke="green" stroke-width="0.397993" points="1010.85,-24.5571 1000.42,-22.7095 1007.42,-30.6596 1010.85,-24.5571"/>
</g>
<!-- &#45;28 -->
<g id="node28" class="node"><title>&#45;28</title>
<polygon fill="lightgray" stroke="black" points="1155.31,-95.9117 1126.31,-95.9117 1126.31,-77.9117 1155.31,-77.9117 1155.31,-95.9117"/>
<text text-anchor="middle" x="1140.81" y="-84.7117" font-family="Times New Roman,serif" font-size="9.00">&#45;28</text>
</g>
<!-- &#45;28&#45;&gt;0 -->
<g id="edge107" class="edge"><title>&#45;28&#45;&gt;0</title>
<path fill="none" stroke="red" stroke-width="0.247429" d="M1133.45,-77.7375C1129.25,-73.5517 1123.67,-68.715 1117.81,-65.6985 1055.31,-33.5323 1031.77,-47.6394 963.813,-29.6985 956.21,-27.6914 947.97,-25.3281 940.544,-23.1275"/>
<polygon fill="red" stroke="red" stroke-width="0.247429" points="941.323,-19.7072 930.739,-20.179 939.308,-26.4107 941.323,-19.7072"/>
</g>
<!-- &#45;28&#45;&gt;1 -->
<g id="edge108" class="edge"><title>&#45;28&#45;&gt;1</title>
<path fill="none" stroke="green" stroke-width="0.372179" d="M1140.7,-77.8746C1140.57,-68.7202 1140.35,-53.3256 1140.16,-40.1641"/>
<polygon fill="green" stroke="green" stroke-width="0.372179" points="1143.65,-39.7687 1140.01,-29.8197 1136.66,-39.8686 1143.65,-39.7687"/>
</g>
<!-- &#45;28&#45;&gt;2 -->
<g id="edge109" class="edge"><title>&#45;28&#45;&gt;2</title>
<path fill="none" stroke="green" stroke-width="0.19366" d="M1146.2,-77.8746C1153.01,-67.7318 1164.95,-49.9283 1174.3,-35.9895"/>
<polygon fill="green" stroke="green" stroke-width="0.19366" points="1177.33,-37.7615 1179.99,-27.5071 1171.51,-33.8618 1177.33,-37.7615"/>
</g>
<!-- &#45;28&#45;&gt;3 -->
<g id="edge110" class="edge"><title>&#45;28&#45;&gt;3</title>
<path fill="none" stroke="green" stroke-width="0.110502" stroke-dasharray="1,5" d="M1132.86,-77.6523C1128.67,-73.6454 1123.27,-68.9978 1117.81,-65.6985 1083.48,-44.9495 1039.02,-30.152 1012,-22.3102"/>
<polygon fill="green" stroke="green" stroke-width="0.110502" points="1012.8,-18.8992 1002.22,-19.5574 1010.9,-25.6371 1012.8,-18.8992"/>
</g>
<!-- &#45;29 -->
<g id="node29" class="node"><title>&#45;29</title>
<polygon fill="lightgray" stroke="black" points="1202.31,-95.9117 1173.31,-95.9117 1173.31,-77.9117 1202.31,-77.9117 1202.31,-95.9117"/>
<text text-anchor="middle" x="1187.81" y="-84.7117" font-family="Times New Roman,serif" font-size="9.00">&#45;29</text>
</g>
<!-- &#45;29&#45;&gt;0 -->
<g id="edge111" class="edge"><title>&#45;29&#45;&gt;0</title>
<path fill="none" stroke="green" stroke-width="0.198895" d="M1180.51,-77.6142C1176.33,-73.3922 1170.75,-68.5604 1164.81,-65.6985 1083.06,-26.2959 1052.14,-50.5555 963.813,-29.6985 956.16,-27.8914 947.906,-25.5836 940.482,-23.3724"/>
<polygon fill="green" stroke="green" stroke-width="0.198895" points="941.277,-19.9554 930.691,-20.3729 939.227,-26.6484 941.277,-19.9554"/>
</g>
<!-- &#45;29&#45;&gt;1 -->
<g id="edge112" class="edge"><title>&#45;29&#45;&gt;1</title>
<path fill="none" stroke="green" stroke-width="0.327788" stroke-dasharray="1,5" d="M1182.31,-77.8746C1175.36,-67.7318 1163.16,-49.9283 1153.61,-35.9895"/>
<polygon fill="green" stroke="green" stroke-width="0.327788" points="1156.34,-33.7786 1147.8,-27.5071 1150.56,-37.7349 1156.34,-33.7786"/>
</g>
<!-- &#45;29&#45;&gt;2 -->
<g id="edge113" class="edge"><title>&#45;29&#45;&gt;2</title>
<path fill="none" stroke="red" stroke-width="0.23212" d="M1187.81,-77.8746C1187.81,-68.7202 1187.81,-53.3256 1187.81,-40.1641"/>
<polygon fill="red" stroke="red" stroke-width="0.23212" points="1191.31,-39.8196 1187.81,-29.8197 1184.31,-39.8197 1191.31,-39.8196"/>
</g>
<!-- &#45;29&#45;&gt;3 -->
<g id="edge114" class="edge"><title>&#45;29&#45;&gt;3</title>
<path fill="none" stroke="red" stroke-width="0.276586" d="M1180.39,-77.8418C1176.18,-73.6865 1170.6,-68.8458 1164.81,-65.6985 1114.48,-38.3474 1047.75,-24.8477 1012.33,-19.2193"/>
<polygon fill="red" stroke="red" stroke-width="0.276586" points="1012.81,-15.7519 1002.4,-17.7186 1011.76,-22.6734 1012.81,-15.7519"/>
</g>
<!-- &#45;30 -->
<g id="node30" class="node"><title>&#45;30</title>
<polygon fill="lightgray" stroke="black" points="1249.31,-95.9117 1220.31,-95.9117 1220.31,-77.9117 1249.31,-77.9117 1249.31,-95.9117"/>
<text text-anchor="middle" x="1234.81" y="-84.7117" font-family="Times New Roman,serif" font-size="9.00">&#45;30</text>
</g>
<!-- &#45;30&#45;&gt;0 -->
<g id="edge115" class="edge"><title>&#45;30&#45;&gt;0</title>
<path fill="none" stroke="green" stroke-width="0.222107" d="M1227.55,-77.5356C1223.38,-73.2906 1217.8,-68.4618 1211.81,-65.6985 1110.69,-19.0078 1072.62,-53.4992 963.813,-29.6985 956.131,-28.0181 947.869,-25.7456 940.447,-23.5276"/>
<polygon fill="green" stroke="green" stroke-width="0.222107" points="941.251,-20.1125 930.663,-20.4959 939.179,-26.7989 941.251,-20.1125"/>
</g>
<!-- &#45;30&#45;&gt;1 -->
<g id="edge116" class="edge"><title>&#45;30&#45;&gt;1</title>
<path fill="none" stroke="red" stroke-width="0.23848" d="M1226.06,-77.7945C1221.85,-74.0014 1216.67,-69.4953 1211.81,-65.6985 1195.2,-52.7211 1175.47,-39.1804 1160.86,-29.4921"/>
<polygon fill="red" stroke="red" stroke-width="0.23848" points="1162.37,-26.2942 1152.09,-23.7266 1158.53,-32.1439 1162.37,-26.2942"/>
</g>
<!-- &#45;30&#45;&gt;2 -->
<g id="edge117" class="edge"><title>&#45;30&#45;&gt;2</title>
<path fill="none" stroke="red" stroke-width="0.326912" d="M1229.42,-77.8746C1222.62,-67.7318 1210.67,-49.9283 1201.32,-35.9895"/>
<polygon fill="red" stroke="red" stroke-width="0.326912" points="1204.11,-33.8618 1195.63,-27.5071 1198.3,-37.7615 1204.11,-33.8618"/>
</g>
<!-- &#45;30&#45;&gt;3 -->
<g id="edge118" class="edge"><title>&#45;30&#45;&gt;3</title>
<path fill="none" stroke="red" stroke-width="0.380639" d="M1227.46,-77.7125C1223.27,-73.5194 1217.69,-68.6837 1211.81,-65.6985 1145.15,-31.8391 1055.85,-20.8338 1012.93,-17.371"/>
<polygon fill="red" stroke="red" stroke-width="0.380639" points="1013.05,-13.8704 1002.82,-16.6281 1012.53,-20.8516 1013.05,-13.8704"/>
</g>
<!-- &#45;31 -->
<g id="node31" class="node"><title>&#45;31</title>
<polygon fill="lightgray" stroke="black" points="1296.31,-95.9117 1267.31,-95.9117 1267.31,-77.9117 1296.31,-77.9117 1296.31,-95.9117"/>
<text text-anchor="middle" x="1281.81" y="-84.7117" font-family="Times New Roman,serif" font-size="9.00">&#45;31</text>
</g>
<!-- &#45;31&#45;&gt;0 -->
<g id="edge119" class="edge"><title>&#45;31&#45;&gt;0</title>
<path fill="none" stroke="red" stroke-width="0.229152" d="M1274.97,-77.8917C1270.77,-73.5339 1265.02,-68.4806 1258.81,-65.6985 1138.27,-11.6934 1093.16,-56.4563 963.813,-29.6985 956.113,-28.1055 947.845,-25.8573 940.424,-23.6346"/>
<polygon fill="red" stroke="red" stroke-width="0.229152" points="941.233,-20.2206 930.645,-20.5806 939.147,-26.9024 941.233,-20.2206"/>
</g>
<!-- &#45;31&#45;&gt;1 -->
<g id="edge120" class="edge"><title>&#45;31&#45;&gt;1</title>
<path fill="none" stroke="green" stroke-width="0.21673" d="M1273.86,-77.6432C1269.67,-73.634 1264.28,-68.987 1258.81,-65.6985 1220.12,-42.4217 1204.61,-49.0449 1163.81,-29.6985 1162.98,-29.3017 1162.13,-28.8863 1161.28,-28.4573"/>
<polygon fill="green" stroke="green" stroke-width="0.21673" points="1162.77,-25.2828 1152.31,-23.5706 1159.42,-31.4293 1162.77,-25.2828"/>
</g>
<!-- &#45;31&#45;&gt;2 -->
<g id="edge121" class="edge"><title>&#45;31&#45;&gt;2</title>
<path fill="none" stroke="red" stroke-width="0.544992" d="M1273.05,-77.8088C1268.84,-74.0188 1263.66,-69.5112 1258.81,-65.6985 1242.4,-52.7888 1222.94,-39.2424 1208.55,-29.5348"/>
<polygon fill="red" stroke="red" stroke-width="0.544992" points="1210.17,-26.4042 1199.91,-23.7551 1206.28,-32.2232 1210.17,-26.4042"/>
</g>
<!-- &#45;31&#45;&gt;3 -->
<g id="edge122" class="edge"><title>&#45;31&#45;&gt;3</title>
<path fill="none" stroke="red" stroke-width="0.491436" d="M1274.5,-77.6253C1270.33,-73.4066 1264.74,-68.5743 1258.81,-65.6985 1215.24,-44.5721 1071.1,-25.6842 1012.7,-18.7069"/>
<polygon fill="red" stroke="red" stroke-width="0.491436" points="1012.87,-15.2027 1002.53,-17.5089 1012.05,-22.1546 1012.87,-15.2027"/>
</g>
<!-- &#45;32 -->
<g id="node32" class="node"><title>&#45;32</title>
<polygon fill="lightgray" stroke="black" points="1343.31,-95.9117 1314.31,-95.9117 1314.31,-77.9117 1343.31,-77.9117 1343.31,-95.9117"/>
<text text-anchor="middle" x="1328.81" y="-84.7117" font-family="Times New Roman,serif" font-size="9.00">&#45;32</text>
</g>
<!-- &#45;32&#45;&gt;0 -->
<g id="edge123" class="edge"><title>&#45;32&#45;&gt;0</title>
<path fill="none" stroke="green" stroke-width="0.211781" d="M1321.99,-77.8531C1317.8,-73.4824 1312.05,-68.4291 1305.81,-65.6985 1165.82,-4.36364 1113.73,-59.4211 963.813,-29.6985 956.1,-28.1693 947.829,-25.9388 940.409,-23.7128"/>
<polygon fill="green" stroke="green" stroke-width="0.211781" points="941.221,-20.2996 930.632,-20.6425 939.124,-26.978 941.221,-20.2996"/>
</g>
<!-- &#45;32&#45;&gt;1 -->
<g id="edge124" class="edge"><title>&#45;32&#45;&gt;1</title>
<path fill="none" stroke="green" stroke-width="0.339737" d="M1321.43,-77.781C1317.22,-73.6079 1311.65,-68.7695 1305.81,-65.6985 1248.2,-35.3652 1224.13,-54.2005 1163.81,-29.6985 1162.95,-29.35 1162.09,-28.9756 1161.22,-28.5812"/>
<polygon fill="green" stroke="green" stroke-width="0.339737" points="1162.67,-25.3877 1152.19,-23.8558 1159.43,-31.591 1162.67,-25.3877"/>
</g>
<!-- &#45;32&#45;&gt;2 -->
<g id="edge125" class="edge"><title>&#45;32&#45;&gt;2</title>
<path fill="none" stroke="red" stroke-width="0.298012" d="M1320.81,-77.7294C1316.61,-73.7422 1311.22,-69.0889 1305.81,-65.6985 1275.32,-46.5652 1236.21,-31.6974 1211.57,-23.3508"/>
<polygon fill="red" stroke="red" stroke-width="0.298012" points="1212.56,-19.9912 1201.97,-20.1796 1210.36,-26.6383 1212.56,-19.9912"/>
</g>
<!-- &#45;32&#45;&gt;3 -->
<g id="edge126" class="edge"><title>&#45;32&#45;&gt;3</title>
<path fill="none" stroke="red" stroke-width="0.258803" d="M1321.53,-77.5626C1317.36,-73.3255 1311.78,-68.4957 1305.81,-65.6985 1279.28,-53.2619 1082.7,-27.7344 1012.57,-18.9214"/>
<polygon fill="red" stroke="red" stroke-width="0.258803" points="1012.81,-15.4235 1002.45,-17.6551 1011.94,-22.3694 1012.81,-15.4235"/>
</g>
<!-- &#45;33 -->
<g id="node33" class="node"><title>&#45;33</title>
<polygon fill="lightgray" stroke="black" points="1390.31,-95.9117 1361.31,-95.9117 1361.31,-77.9117 1390.31,-77.9117 1390.31,-95.9117"/>
<text text-anchor="middle" x="1375.81" y="-84.7117" font-family="Times New Roman,serif" font-size="9.00">&#45;33</text>
</g>
<!-- &#45;33&#45;&gt;0 -->
<g id="edge127" class="edge"><title>&#45;33&#45;&gt;0</title>
<path fill="none" stroke="red" stroke-width="0.4526" d="M1369,-77.8236C1364.81,-73.4431 1359.06,-68.3898 1352.81,-65.6985 1193.34,2.9757 1134.33,-62.3905 963.813,-29.6985 956.09,-28.2179 947.817,-26.0009 940.397,-23.7723"/>
<polygon fill="red" stroke="red" stroke-width="0.4526" points="941.213,-20.3596 930.623,-20.6896 939.107,-27.0355 941.213,-20.3596"/>
</g>
<!-- &#45;33&#45;&gt;1 -->
<g id="edge128" class="edge"><title>&#45;33&#45;&gt;1</title>
<path fill="none" stroke="green" stroke-width="0.397079" d="M1368.5,-77.6402C1364.32,-73.4259 1358.74,-68.593 1352.81,-65.6985 1275.99,-28.1499 1243.97,-59.485 1163.81,-29.6985 1162.94,-29.3759 1162.07,-29.0235 1161.2,-28.6477"/>
<polygon fill="green" stroke="green" stroke-width="0.397079" points="1162.62,-25.4458 1152.13,-24.0089 1159.44,-31.6781 1162.62,-25.4458"/>
</g>
<!-- &#45;33&#45;&gt;2 -->
<g id="edge129" class="edge"><title>&#45;33&#45;&gt;2</title>
<path fill="none" stroke="green" stroke-width="0.395222" d="M1368.37,-77.8853C1364.15,-73.7428 1358.57,-68.9003 1352.81,-65.6985 1306.75,-40.1028 1245.99,-26.1333 1212.54,-19.9063"/>
<polygon fill="green" stroke="green" stroke-width="0.395222" points="1212.77,-16.3912 1202.31,-18.0857 1211.54,-23.283 1212.77,-16.3912"/>
</g>
<!-- &#45;33&#45;&gt;3 -->
<g id="edge130" class="edge"><title>&#45;33&#45;&gt;3</title>
<path fill="none" stroke="red" stroke-width="0.137034" d="M1368.56,-77.5154C1364.39,-73.2646 1358.81,-68.4366 1352.81,-65.6985 1337.25,-58.594 1092.79,-28.55 1012.88,-18.8689"/>
<polygon fill="red" stroke="red" stroke-width="0.137034" points="1013.08,-15.3682 1002.73,-17.6425 1012.24,-22.3176 1013.08,-15.3682"/>
</g>
<!-- &#45;34 -->
<g id="node34" class="node"><title>&#45;34</title>
<polygon fill="lightgray" stroke="black" points="281.313,-95.9117 252.313,-95.9117 252.313,-77.9117 281.313,-77.9117 281.313,-95.9117"/>
<text text-anchor="middle" x="266.813" y="-84.7117" font-family="Times New Roman,serif" font-size="9.00">&#45;34</text>
</g>
<!-- &#45;34&#45;&gt;0 -->
<g id="edge131" class="edge"><title>&#45;34&#45;&gt;0</title>
<path fill="none" stroke="green" stroke-width="0.270875" d="M273.975,-77.7919C278.363,-73.4009 284.363,-68.3476 290.813,-65.6985 402.47,-19.8392 789.321,-16.0178 891.76,-15.822"/>
<polygon fill="green" stroke="green" stroke-width="0.270875" points="891.801,-19.3221 901.798,-15.8132 891.795,-12.3221 891.801,-19.3221"/>
</g>
<!-- &#45;34&#45;&gt;2 -->
<g id="edge132" class="edge"><title>&#45;34&#45;&gt;2</title>
<path fill="none" stroke="red" stroke-width="0.407211" d="M273.938,-77.6991C278.313,-73.2771 284.313,-68.2238 290.813,-65.6985 471.797,4.62059 977.333,-83.785 1163.81,-29.6985 1164.88,-29.3903 1165.94,-29.0257 1167,-28.6173"/>
<polygon fill="red" stroke="red" stroke-width="0.407211" points="1168.71,-31.6759 1176.12,-24.1003 1165.6,-25.4035 1168.71,-31.6759"/>
</g>
<!-- &#45;34&#45;&gt;3 -->
<g id="edge133" class="edge"><title>&#45;34&#45;&gt;3</title>
<path fill="none" stroke="red" stroke-width="0.22543" d="M273.952,-77.7334C278.331,-73.3229 284.331,-68.2696 290.813,-65.6985 425.285,-12.3558 798.256,-54.3076 940.813,-29.6985 948.561,-28.3609 956.842,-26.1835 964.261,-23.9473"/>
<polygon fill="red" stroke="red" stroke-width="0.22543" points="965.567,-27.2045 974.028,-20.8283 963.437,-20.5362 965.567,-27.2045"/>
</g>
<!-- &#45;35 -->
<g id="node35" class="node"><title>&#45;35</title>
<polygon fill="lightgray" stroke="black" points="1437.31,-95.9117 1408.31,-95.9117 1408.31,-77.9117 1437.31,-77.9117 1437.31,-95.9117"/>
<text text-anchor="middle" x="1422.81" y="-84.7117" font-family="Times New Roman,serif" font-size="9.00">&#45;35</text>
</g>
<!-- &#45;35&#45;&gt;0 -->
<g id="edge134" class="edge"><title>&#45;35&#45;&gt;0</title>
<path fill="none" stroke="red" stroke-width="0.162404" d="M1416.01,-77.8003C1411.83,-73.4121 1406.08,-68.3588 1399.81,-65.6985 1220.85,10.3215 1154.95,-65.3629 963.813,-29.6985 956.083,-28.2562 947.807,-26.0498 940.388,-23.8191"/>
<polygon fill="red" stroke="red" stroke-width="0.162404" points="941.206,-20.4069 930.616,-20.7267 939.094,-27.0807 941.206,-20.4069"/>
</g>
<!-- &#45;35&#45;&gt;1 -->
<g id="edge135" class="edge"><title>&#45;35&#45;&gt;1</title>
<path fill="none" stroke="red" stroke-width="0.111953" d="M1415.54,-77.5528C1411.37,-73.3128 1405.79,-68.4834 1399.81,-65.6985 1303.65,-20.8718 1263.93,-64.8195 1163.81,-29.6985 1162.94,-29.392 1162.06,-29.0532 1161.18,-28.6888"/>
<polygon fill="red" stroke="red" stroke-width="0.111953" points="1162.6,-25.4822 1152.09,-24.1037 1159.45,-31.7322 1162.6,-25.4822"/>
</g>
<!-- &#45;35&#45;&gt;2 -->
<g id="edge136" class="edge"><title>&#45;35&#45;&gt;2</title>
<path fill="none" stroke="green" stroke-width="0.134656" stroke-dasharray="1,5" d="M1415.45,-77.7406C1411.25,-73.5556 1405.67,-68.7188 1399.81,-65.6985 1337.32,-33.4838 1253.76,-21.7675 1212.71,-17.7677"/>
<polygon fill="green" stroke="green" stroke-width="0.134656" points="1212.81,-14.263 1202.54,-16.8523 1212.18,-21.2348 1212.81,-14.263"/>
</g>
<!-- &#45;35&#45;&gt;3 -->
<g id="edge137" class="edge"><title>&#45;35&#45;&gt;3</title>
<path fill="none" stroke="red" stroke-width="0.26967" d="M1415.97,-77.8893C1411.77,-73.5307 1406.02,-68.4774 1399.81,-65.6985 1390.88,-61.7038 1100.5,-28.6008 1012.71,-18.6608"/>
<polygon fill="red" stroke="red" stroke-width="0.26967" points="1012.92,-15.1628 1002.59,-17.5166 1012.14,-22.1185 1012.92,-15.1628"/>
</g>
<!-- &#45;36 -->
<g id="node36" class="node"><title>&#45;36</title>
<polygon fill="lightgray" stroke="black" points="1484.31,-95.9117 1455.31,-95.9117 1455.31,-77.9117 1484.31,-77.9117 1484.31,-95.9117"/>
<text text-anchor="middle" x="1469.81" y="-84.7117" font-family="Times New Roman,serif" font-size="9.00">&#45;36</text>
</g>
<!-- &#45;36&#45;&gt;0 -->
<g id="edge138" class="edge"><title>&#45;36&#45;&gt;0</title>
<path fill="none" stroke="green" stroke-width="0.337152" d="M1463.02,-77.7816C1458.84,-73.3871 1453.09,-68.3338 1446.81,-65.6985 1347.58,-24.0134 1069.7,-49.018 963.813,-29.6985 956.077,-28.287 947.8,-26.0892 940.381,-23.8569"/>
<polygon fill="green" stroke="green" stroke-width="0.337152" points="941.201,-20.4451 930.61,-20.7567 939.084,-27.1172 941.201,-20.4451"/>
</g>
<!-- &#45;36&#45;&gt;1 -->
<g id="edge139" class="edge"><title>&#45;36&#45;&gt;1</title>
<path fill="none" stroke="red" stroke-width="0.618083" stroke-dasharray="1,5" d="M1462.96,-77.9035C1458.77,-73.5497 1453.02,-68.4964 1446.81,-65.6985 1331.24,-13.5627 1283.97,-70.1783 1163.81,-29.6985 1162.94,-29.4028 1162.05,-29.0733 1161.17,-28.7168"/>
<polygon fill="red" stroke="red" stroke-width="0.618083" points="1162.58,-25.5072 1152.07,-24.1679 1159.45,-31.7689 1162.58,-25.5072"/>
</g>
<!-- &#45;36&#45;&gt;2 -->
<g id="edge140" class="edge"><title>&#45;36&#45;&gt;2</title>
<path fill="none" stroke="red" stroke-width="0.308017" d="M1462.5,-77.6447C1458.31,-73.4317 1452.73,-68.5987 1446.81,-65.6985 1367.46,-26.8217 1260.58,-18.2304 1212.75,-16.3566"/>
<polygon fill="red" stroke="red" stroke-width="0.308017" points="1212.8,-12.8565 1202.69,-16.0299 1212.57,-19.8528 1212.8,-12.8565"/>
</g>
<!-- &#45;36&#45;&gt;3 -->
<g id="edge141" class="edge"><title>&#45;36&#45;&gt;3</title>
<path fill="none" stroke="green" stroke-width="0.140733" d="M1462.98,-77.8608C1458.79,-73.4927 1453.04,-68.4394 1446.81,-65.6985 1446.5,-65.5599 1108.36,-28.9121 1012.74,-18.5497"/>
<polygon fill="green" stroke="green" stroke-width="0.140733" points="1012.87,-15.0441 1002.55,-17.4464 1012.12,-22.0034 1012.87,-15.0441"/>
</g>
<!-- &#45;37 -->
<g id="node37" class="node"><title>&#45;37</title>
<polygon fill="lightgray" stroke="black" points="1531.31,-95.9117 1502.31,-95.9117 1502.31,-77.9117 1531.31,-77.9117 1531.31,-95.9117"/>
<text text-anchor="middle" x="1516.81" y="-84.7117" font-family="Times New Roman,serif" font-size="9.00">&#45;37</text>
</g>
<!-- &#45;37&#45;&gt;0 -->
<g id="edge142" class="edge"><title>&#45;37&#45;&gt;0</title>
<path fill="none" stroke="green" stroke-width="0.182126" d="M1510.02,-77.7661C1505.84,-73.3665 1500.09,-68.3132 1493.81,-65.6985 1384.83,-20.3366 1080.01,-50.5061 963.813,-29.6985 956.073,-28.3125 947.794,-26.1217 940.375,-23.8881"/>
<polygon fill="green" stroke="green" stroke-width="0.182126" points="941.196,-20.4765 930.606,-20.7813 939.075,-27.1473 941.196,-20.4765"/>
</g>
<!-- &#45;37&#45;&gt;1 -->
<g id="edge143" class="edge"><title>&#45;37&#45;&gt;1</title>
<path fill="none" stroke="green" stroke-width="0.414188" d="M1509.98,-77.8619C1505.79,-73.4942 1500.04,-68.4409 1493.81,-65.6985 1358.79,-6.23614 1304.04,-75.5506 1163.81,-29.6985 1162.93,-29.4107 1162.05,-29.0879 1161.17,-28.7369"/>
<polygon fill="green" stroke="green" stroke-width="0.414188" points="1162.57,-25.5253 1152.06,-24.2143 1159.46,-31.7954 1162.57,-25.5253"/>
</g>
<!-- &#45;37&#45;&gt;2 -->
<g id="edge144" class="edge"><title>&#45;37&#45;&gt;2</title>
<path fill="none" stroke="green" stroke-width="0.551435" d="M1509.53,-77.5768C1505.36,-73.344 1499.77,-68.5136 1493.81,-65.6985 1397.28,-20.1074 1266.65,-15.2383 1212.7,-15.358"/>
<polygon fill="green" stroke="green" stroke-width="0.551435" points="1212.65,-11.8582 1202.68,-15.442 1212.71,-18.8579 1212.65,-11.8582"/>
</g>
<!-- &#45;37&#45;&gt;3 -->
<g id="edge145" class="edge"><title>&#45;37&#45;&gt;3</title>
<path fill="none" stroke="red" stroke-width="0.125167" d="M1510,-77.8298C1505.81,-73.4514 1500.06,-68.3981 1493.81,-65.6985 1416.36,-32.2206 1199.76,-38.237 1115.81,-29.6985 1080.01,-26.057 1038.61,-21.5181 1012.82,-18.6509"/>
<polygon fill="red" stroke="red" stroke-width="0.125167" points="1013.11,-15.1615 1002.78,-17.5319 1012.33,-22.1184 1013.11,-15.1615"/>
</g>
<!-- &#45;38 -->
<g id="node38" class="node"><title>&#45;38</title>
<polygon fill="lightgray" stroke="black" points="1578.31,-95.9117 1549.31,-95.9117 1549.31,-77.9117 1578.31,-77.9117 1578.31,-95.9117"/>
<text text-anchor="middle" x="1563.81" y="-84.7117" font-family="Times New Roman,serif" font-size="9.00">&#45;38</text>
</g>
<!-- &#45;38&#45;&gt;0 -->
<g id="edge146" class="edge"><title>&#45;38&#45;&gt;0</title>
<path fill="none" stroke="green" stroke-width="0.139188" d="M1557.03,-77.7531C1552.85,-73.3492 1547.1,-68.2958 1540.81,-65.6985 1422.07,-16.6586 1090.33,-51.9947 963.813,-29.6985 956.069,-28.3338 947.789,-26.149 940.371,-23.9142"/>
<polygon fill="green" stroke="green" stroke-width="0.139188" points="941.193,-20.5028 930.602,-20.802 939.068,-27.1725 941.193,-20.5028"/>
</g>
<!-- &#45;38&#45;&gt;1 -->
<g id="edge147" class="edge"><title>&#45;38&#45;&gt;1</title>
<path fill="none" stroke="red" stroke-width="0.446661" stroke-dasharray="1,5" d="M1557,-77.8304C1552.81,-73.4522 1547.06,-68.3989 1540.81,-65.6985 1386.32,1.10111 1324.14,-80.9312 1163.81,-29.6985 1162.76,-29.3617 1161.7,-28.9736 1160.65,-28.5463"/>
<polygon fill="red" stroke="red" stroke-width="0.446661" points="1162.06,-25.337 1151.55,-23.9596 1158.9,-31.5873 1162.06,-25.337"/>
</g>
<!-- &#45;38&#45;&gt;2 -->
<g id="edge148" class="edge"><title>&#45;38&#45;&gt;2</title>
<path fill="none" stroke="green" stroke-width="0.367171" d="M1556.55,-77.5263C1552.39,-73.2787 1546.8,-68.4503 1540.81,-65.6985 1481.95,-38.6592 1283.38,-22.5122 1212.89,-17.521"/>
<polygon fill="green" stroke="green" stroke-width="0.367171" points="1212.94,-14.0159 1202.72,-16.8158 1212.45,-20.9992 1212.94,-14.0159"/>
</g>
<!-- &#45;38&#45;&gt;3 -->
<g id="edge149" class="edge"><title>&#45;38&#45;&gt;3</title>
<path fill="none" stroke="green" stroke-width="0.250178" stroke-dasharray="1,5" d="M1557.01,-77.8053C1552.82,-73.4188 1547.07,-68.3655 1540.81,-65.6985 1453.61,-28.5484 1210.16,-38.797 1115.81,-29.6985 1079.99,-26.244 1038.6,-21.6569 1012.81,-18.7282"/>
<polygon fill="green" stroke="green" stroke-width="0.250178" points="1013.11,-15.2395 1002.78,-17.5826 1012.32,-22.1943 1013.11,-15.2395"/>
</g>
<!-- &#45;39 -->
<g id="node39" class="node"><title>&#45;39</title>
<polygon fill="lightgray" stroke="black" points="1926.31,-95.9117 1897.31,-95.9117 1897.31,-77.9117 1926.31,-77.9117 1926.31,-95.9117"/>
<text text-anchor="middle" x="1911.81" y="-84.7117" font-family="Times New Roman,serif" font-size="9.00">&#45;39</text>
</g>
<!-- &#45;39&#45;&gt;1 -->
<g id="edge150" class="edge"><title>&#45;39&#45;&gt;1</title>
<path fill="none" stroke="green" stroke-width="0.342398" stroke-dasharray="1,5" d="M1905.04,-77.7231C1900.87,-73.3092 1895.12,-68.2559 1888.81,-65.6985 1739.33,-5.07142 1318.55,-75.2832 1163.81,-29.6985 1162.75,-29.3858 1161.69,-29.0175 1160.63,-28.6062"/>
<polygon fill="green" stroke="green" stroke-width="0.342398" points="1162.03,-25.3931 1151.51,-24.0783 1158.91,-31.6621 1162.03,-25.3931"/>
</g>
<!-- &#45;39&#45;&gt;2 -->
<g id="edge151" class="edge"><title>&#45;39&#45;&gt;2</title>
<path fill="none" stroke="green" stroke-width="0.185028" d="M1905.02,-77.7736C1900.84,-73.3764 1895.09,-68.3231 1888.81,-65.6985 1763.11,-13.1467 1323.23,-14.3476 1213.01,-15.51"/>
<polygon fill="green" stroke="green" stroke-width="0.185028" points="1212.8,-12.012 1202.84,-15.6274 1212.88,-19.0116 1212.8,-12.012"/>
</g>
<!-- &#45;39&#45;&gt;3 -->
<g id="edge152" class="edge"><title>&#45;39&#45;&gt;3</title>
<path fill="none" stroke="red" stroke-width="0.443784" d="M1905.04,-77.7159C1900.87,-73.2995 1895.12,-68.2462 1888.81,-65.6985 1809.09,-33.5054 1201.54,-36.3261 1115.81,-29.6985 1079.93,-26.9246 1038.56,-22.162 1012.79,-19.0093"/>
<polygon fill="red" stroke="red" stroke-width="0.443784" points="1013.12,-15.5233 1002.76,-17.7672 1012.26,-22.4702 1013.12,-15.5233"/>
</g>
<!-- &#45;40 -->
<g id="node40" class="node"><title>&#45;40</title>
<polygon fill="lightgray" stroke="black" points="1625.31,-95.9117 1596.31,-95.9117 1596.31,-77.9117 1625.31,-77.9117 1625.31,-95.9117"/>
<text text-anchor="middle" x="1610.81" y="-84.7117" font-family="Times New Roman,serif" font-size="9.00">&#45;40</text>
</g>
<!-- &#45;40&#45;&gt;0 -->
<g id="edge153" class="edge"><title>&#45;40&#45;&gt;0</title>
<path fill="none" stroke="red" stroke-width="0.272553" d="M1604.03,-77.7421C1599.86,-73.3344 1594.11,-68.2811 1587.81,-65.6985 1459.31,-12.9796 1100.66,-53.4837 963.813,-29.6985 956.066,-28.3519 947.785,-26.1722 940.367,-23.9364"/>
<polygon fill="red" stroke="red" stroke-width="0.272553" points="941.19,-20.5252 930.599,-20.8196 939.062,-27.1939 941.19,-20.5252"/>
</g>
<!-- &#45;40&#45;&gt;1 -->
<g id="edge154" class="edge"><title>&#45;40&#45;&gt;1</title>
<path fill="none" stroke="green" stroke-width="0.286548" d="M1604.01,-77.8058C1599.82,-73.4194 1594.07,-68.3661 1587.81,-65.6985 1413.83,8.44546 1344.26,-86.3172 1163.81,-29.6985 1162.76,-29.3672 1161.7,-28.9837 1160.64,-28.56"/>
<polygon fill="green" stroke="green" stroke-width="0.286548" points="1162.05,-25.3498 1151.54,-23.9869 1158.91,-31.6045 1162.05,-25.3498"/>
</g>
<!-- &#45;40&#45;&gt;2 -->
<g id="edge155" class="edge"><title>&#45;40&#45;&gt;2</title>
<path fill="none" stroke="green" stroke-width="0.271706" d="M1603.97,-77.8976C1599.77,-73.5418 1594.02,-68.4885 1587.81,-65.6985 1520.13,-35.2719 1290.09,-21.0472 1213.13,-17.0613"/>
<polygon fill="green" stroke="green" stroke-width="0.271706" points="1213.08,-13.5548 1202.92,-16.5467 1212.73,-20.5459 1213.08,-13.5548"/>
</g>
<!-- &#45;40&#45;&gt;3 -->
<g id="edge156" class="edge"><title>&#45;40&#45;&gt;3</title>
<path fill="none" stroke="red" stroke-width="0.170268" d="M1604.02,-77.7856C1599.83,-73.3925 1594.08,-68.3392 1587.81,-65.6985 1490.86,-24.8737 1220.56,-39.3575 1115.81,-29.6985 1079.98,-26.3941 1038.59,-21.7684 1012.81,-18.7902"/>
<polygon fill="red" stroke="red" stroke-width="0.170268" points="1013.11,-15.3021 1002.77,-17.6234 1012.3,-22.2552 1013.11,-15.3021"/>
</g>
<!-- 401&#45;&gt;2 -->
<g id="edge160" class="edge"><title>401&#45;&gt;2</title>
<path fill="none" stroke="green" stroke-width="0.125809" d="M2122.74,-73.9191C2117.26,-70.6664 2111,-67.5384 2104.81,-65.6985 1930.89,-13.983 1341.32,-14.8226 1212.72,-15.6445"/>
<polygon fill="green" stroke="green" stroke-width="0.125809" points="1212.64,-12.1448 1202.67,-15.715 1212.69,-19.1447 1212.64,-12.1448"/>
</g>
<!-- 181&#45;&gt;2 -->
<g id="edge158" class="edge"><title>181&#45;&gt;2</title>
<path fill="none" stroke="green" stroke-width="0.168858" d="M2024.74,-73.9438C2019.25,-70.6921 2012.99,-67.5584 2006.81,-65.6985 1852.87,-19.3815 1333.75,-15.9871 1213.04,-15.8324"/>
<polygon fill="green" stroke="green" stroke-width="0.168858" points="1212.93,-12.3324 1202.92,-15.8262 1212.92,-19.3324 1212.93,-12.3324"/>
</g>
</g>
</svg>
