<?xml version="1.0" encoding="UTF-8" standalone="no"?>
<!DOCTYPE svg PUBLIC "-//W3C//DTD SVG 1.1//EN"
 "http://www.w3.org/Graphics/SVG/1.1/DTD/svg11.dtd">
<!-- Generated by graphviz version 2.38.0 (20140413.2041)
 -->
<!-- Title: %3 Pages: 1 -->
<svg width="2307pt" height="170pt"
 viewBox="0.00 0.00 2307.41 170.12" xmlns="http://www.w3.org/2000/svg" xmlns:xlink="http://www.w3.org/1999/xlink">
<g id="graph0" class="graph" transform="scale(1 1) rotate(0) translate(4 166.125)">
<title>%3</title>
<polygon fill="white" stroke="none" points="-4,4 -4,-166.125 2303.41,-166.125 2303.41,4 -4,4"/>
<!-- &#45;1 -->
<g id="node1" class="node"><title>&#45;1</title>
<polygon fill="lightgray" stroke="black" points="877.213,-95.9117 853.213,-95.9117 853.213,-77.9117 877.213,-77.9117 877.213,-95.9117"/>
<text text-anchor="middle" x="865.213" y="-84.7117" font-family="Times New Roman,serif" font-size="9.00">&#45;1</text>
</g>
<!-- 0 -->
<g id="node41" class="node"><title>0</title>
<ellipse fill="lightblue" stroke="black" cx="991.213" cy="-14.8492" rx="14.7" ry="14.7"/>
<text text-anchor="middle" x="991.213" y="-12.6492" font-family="Times New Roman,serif" font-size="9.00">0</text>
</g>
<!-- &#45;1&#45;&gt;0 -->
<g id="edge1" class="edge"><title>&#45;1&#45;&gt;0</title>
<path fill="none" stroke="red" stroke-width="0.131599" d="M872.467,-77.7821C876.291,-73.8083 881.218,-69.1511 886.213,-65.6985 912.295,-47.6716 945.913,-32.9954 967.992,-24.3472"/>
<polygon fill="red" stroke="red" stroke-width="0.131599" points="969.444,-27.5392 977.538,-20.7025 966.947,-20.9996 969.444,-27.5392"/>
</g>
<!-- 1 -->
<g id="node42" class="node"><title>1</title>
<ellipse fill="lightblue" stroke="black" cx="1057.21" cy="-14.8492" rx="14.7" ry="14.7"/>
<text text-anchor="middle" x="1057.21" y="-12.6492" font-family="Times New Roman,serif" font-size="9.00">1</text>
</g>
<!-- &#45;1&#45;&gt;1 -->
<g id="edge2" class="edge"><title>&#45;1&#45;&gt;1</title>
<path fill="none" stroke="green" stroke-width="0.433352" d="M871.86,-77.8149C875.668,-73.6518 880.765,-68.8121 886.213,-65.6985 937.892,-36.1621 958.266,-47.0234 1015.21,-29.6985 1021.24,-27.866 1027.71,-25.7866 1033.73,-23.8063"/>
<polygon fill="green" stroke="green" stroke-width="0.433352" points="1034.88,-27.1104 1043.26,-20.6286 1032.67,-20.4694 1034.88,-27.1104"/>
</g>
<!-- 2 -->
<g id="node43" class="node"><title>2</title>
<ellipse fill="lightblue" stroke="black" cx="1246.21" cy="-14.8492" rx="14.7" ry="14.7"/>
<text text-anchor="middle" x="1246.21" y="-12.6492" font-family="Times New Roman,serif" font-size="9.00">2</text>
</g>
<!-- &#45;1&#45;&gt;2 -->
<g id="edge3" class="edge"><title>&#45;1&#45;&gt;2</title>
<path fill="none" stroke="green" stroke-width="0.396817" d="M871.318,-77.8737C875.103,-73.5099 880.353,-68.4566 886.213,-65.6985 1014.11,-5.50704 1063.94,-59.0524 1202.21,-29.6985 1209,-28.2579 1216.23,-26.2065 1222.83,-24.1226"/>
<polygon fill="green" stroke="green" stroke-width="0.396817" points="1224.13,-27.3771 1232.52,-20.9043 1221.93,-20.7337 1224.13,-27.3771"/>
</g>
<!-- 3 -->
<g id="node44" class="node"><title>3</title>
<ellipse fill="lightblue" stroke="black" cx="1178.21" cy="-14.8492" rx="14.7" ry="14.7"/>
<text text-anchor="middle" x="1178.21" y="-12.6492" font-family="Times New Roman,serif" font-size="9.00">3</text>
</g>
<!-- &#45;1&#45;&gt;3 -->
<g id="edge4" class="edge"><title>&#45;1&#45;&gt;3</title>
<path fill="none" stroke="green" stroke-width="0.149777" d="M871.738,-77.5878C875.51,-73.3582 880.612,-68.5274 886.213,-65.6985 898.199,-59.645 1085.01,-30.2849 1153.39,-19.68"/>
<polygon fill="green" stroke="green" stroke-width="0.149777" points="1154.31,-23.0792 1163.66,-18.0905 1153.24,-16.1616 1154.31,-23.0792"/>
</g>
<!-- &#45;2 -->
<g id="node2" class="node"><title>&#45;2</title>
<polygon fill="lightgray" stroke="black" points="919.213,-95.9117 895.213,-95.9117 895.213,-77.9117 919.213,-77.9117 919.213,-95.9117"/>
<text text-anchor="middle" x="907.213" y="-84.7117" font-family="Times New Roman,serif" font-size="9.00">&#45;2</text>
</g>
<!-- &#45;2&#45;&gt;0 -->
<g id="edge5" class="edge"><title>&#45;2&#45;&gt;0</title>
<path fill="none" stroke="green" stroke-width="0.166839" d="M915.218,-77.8522C919.066,-74.0717 923.792,-69.5596 928.213,-65.6985 942.382,-53.325 959.109,-40.1526 971.765,-30.4577"/>
<polygon fill="green" stroke="green" stroke-width="0.166839" points="973.951,-33.1918 979.795,-24.354 969.715,-27.619 973.951,-33.1918"/>
</g>
<!-- &#45;2&#45;&gt;1 -->
<g id="edge6" class="edge"><title>&#45;2&#45;&gt;1</title>
<path fill="none" stroke="green" stroke-width="0.175344" d="M914.361,-77.6226C918.158,-73.6081 923.093,-68.9627 928.213,-65.6985 946.221,-54.2187 1001.49,-34.6227 1033.54,-23.7334"/>
<polygon fill="green" stroke="green" stroke-width="0.175344" points="1035.08,-26.9098 1043.44,-20.3985 1032.84,-20.2766 1035.08,-26.9098"/>
</g>
<!-- &#45;2&#45;&gt;2 -->
<g id="edge7" class="edge"><title>&#45;2&#45;&gt;2</title>
<path fill="none" stroke="green" stroke-width="0.304652" stroke-dasharray="1,5" d="M913.336,-77.9114C917.127,-73.5602 922.377,-68.5069 928.213,-65.6985 1038.89,-12.4429 1082.29,-56.2373 1202.21,-29.6985 1208.99,-28.1996 1216.21,-26.1293 1222.81,-24.046"/>
<polygon fill="green" stroke="green" stroke-width="0.304652" points="1224.11,-27.3028 1232.51,-20.8417 1221.92,-20.6563 1224.11,-27.3028"/>
</g>
<!-- &#45;2&#45;&gt;3 -->
<g id="edge8" class="edge"><title>&#45;2&#45;&gt;3</title>
<path fill="none" stroke="red" stroke-width="0.468413" stroke-dasharray="1,5" d="M913.77,-77.6496C917.551,-73.438 922.652,-68.6047 928.213,-65.6985 948.199,-55.2538 1094.83,-29.843 1153.77,-19.917"/>
<polygon fill="red" stroke="red" stroke-width="0.468413" points="1154.43,-23.3565 1163.71,-18.251 1153.27,-16.4529 1154.43,-23.3565"/>
</g>
<!-- &#45;3 -->
<g id="node3" class="node"><title>&#45;3</title>
<polygon fill="lightgray" stroke="black" points="961.213,-95.9117 937.213,-95.9117 937.213,-77.9117 961.213,-77.9117 961.213,-95.9117"/>
<text text-anchor="middle" x="949.213" y="-84.7117" font-family="Times New Roman,serif" font-size="9.00">&#45;3</text>
</g>
<!-- &#45;3&#45;&gt;0 -->
<g id="edge9" class="edge"><title>&#45;3&#45;&gt;0</title>
<path fill="none" stroke="red" stroke-width="0.189012" d="M954.031,-77.8746C959.983,-67.9452 970.337,-50.6741 978.609,-36.8744"/>
<polygon fill="red" stroke="red" stroke-width="0.189012" points="981.785,-38.3847 983.924,-28.0082 975.781,-34.7856 981.785,-38.3847"/>
</g>
<!-- &#45;3&#45;&gt;1 -->
<g id="edge10" class="edge"><title>&#45;3&#45;&gt;1</title>
<path fill="none" stroke="red" stroke-width="0.422854" d="M956.972,-77.5472C960.764,-73.6999 965.517,-69.2196 970.213,-65.6985 990.779,-50.2801 1016.56,-36.0641 1034.71,-26.7928"/>
<polygon fill="red" stroke="red" stroke-width="0.422854" points="1036.55,-29.7855 1043.92,-22.1745 1033.41,-23.528 1036.55,-29.7855"/>
</g>
<!-- &#45;3&#45;&gt;2 -->
<g id="edge11" class="edge"><title>&#45;3&#45;&gt;2</title>
<path fill="none" stroke="red" stroke-width="0.363478" d="M955.721,-77.5539C959.488,-73.3144 964.591,-68.4849 970.213,-65.6985 1063.71,-19.3628 1100.6,-53.4301 1202.21,-29.6985 1208.97,-28.1207 1216.19,-26.025 1222.79,-23.9425"/>
<polygon fill="red" stroke="red" stroke-width="0.363478" points="1224.08,-27.2023 1232.49,-20.7572 1221.9,-20.5517 1224.08,-27.2023"/>
</g>
<!-- &#45;3&#45;&gt;3 -->
<g id="edge12" class="edge"><title>&#45;3&#45;&gt;3</title>
<path fill="none" stroke="green" stroke-width="0.387299" d="M955.815,-77.7343C959.61,-73.5475 964.709,-68.711 970.213,-65.6985 1001.87,-48.3734 1105.35,-28.6216 1153.35,-20.1143"/>
<polygon fill="green" stroke="green" stroke-width="0.387299" points="1154.25,-23.51 1163.5,-18.3374 1153.04,-16.615 1154.25,-23.51"/>
</g>
<!-- &#45;4 -->
<g id="node4" class="node"><title>&#45;4</title>
<polygon fill="lightgray" stroke="black" points="1003.21,-95.9117 979.213,-95.9117 979.213,-77.9117 1003.21,-77.9117 1003.21,-95.9117"/>
<text text-anchor="middle" x="991.213" y="-84.7117" font-family="Times New Roman,serif" font-size="9.00">&#45;4</text>
</g>
<!-- &#45;4&#45;&gt;0 -->
<g id="edge13" class="edge"><title>&#45;4&#45;&gt;0</title>
<path fill="none" stroke="green" stroke-width="0.188084" d="M991.213,-77.8746C991.213,-68.7202 991.213,-53.3256 991.213,-40.1641"/>
<polygon fill="green" stroke="green" stroke-width="0.188084" points="994.713,-39.8196 991.213,-29.8197 987.713,-39.8197 994.713,-39.8196"/>
</g>
<!-- &#45;4&#45;&gt;1 -->
<g id="edge14" class="edge"><title>&#45;4&#45;&gt;1</title>
<path fill="none" stroke="green" stroke-width="0.459366" d="M998.784,-77.8746C1008.84,-67.1994 1026.89,-48.0381 1040.28,-33.8281"/>
<polygon fill="green" stroke="green" stroke-width="0.459366" points="1042.84,-36.2072 1047.15,-26.5283 1037.75,-31.4074 1042.84,-36.2072"/>
</g>
<!-- &#45;4&#45;&gt;2 -->
<g id="edge15" class="edge"><title>&#45;4&#45;&gt;2</title>
<path fill="none" stroke="red" stroke-width="0.383744" d="M997.759,-77.6283C1001.54,-73.4105 1006.64,-68.5781 1012.21,-65.6985 1088.57,-26.2556 1118.86,-50.6368 1202.21,-29.6985 1208.94,-28.0084 1216.15,-25.8764 1222.75,-23.795"/>
<polygon fill="red" stroke="red" stroke-width="0.383744" points="1224.03,-27.059 1232.46,-20.6367 1221.87,-20.4025 1224.03,-27.059"/>
</g>
<!-- &#45;4&#45;&gt;3 -->
<g id="edge16" class="edge"><title>&#45;4&#45;&gt;3</title>
<path fill="none" stroke="green" stroke-width="0.459211" d="M997.885,-77.8574C1001.7,-73.7067 1006.8,-68.8653 1012.21,-65.6985 1058.16,-38.8398 1119.85,-25.2999 1153.6,-19.4953"/>
<polygon fill="green" stroke="green" stroke-width="0.459211" points="1154.22,-22.9411 1163.52,-17.8754 1153.09,-16.0326 1154.22,-22.9411"/>
</g>
<!-- &#45;5 -->
<g id="node5" class="node"><title>&#45;5</title>
<polygon fill="lightgray" stroke="black" points="1045.21,-95.9117 1021.21,-95.9117 1021.21,-77.9117 1045.21,-77.9117 1045.21,-95.9117"/>
<text text-anchor="middle" x="1033.21" y="-84.7117" font-family="Times New Roman,serif" font-size="9.00">&#45;5</text>
</g>
<!-- &#45;5&#45;&gt;0 -->
<g id="edge17" class="edge"><title>&#45;5&#45;&gt;0</title>
<path fill="none" stroke="red" stroke-width="0.342663" stroke-dasharray="1,5" d="M1028.4,-77.8746C1022.44,-67.9452 1012.09,-50.6741 1003.82,-36.8744"/>
<polygon fill="red" stroke="red" stroke-width="0.342663" points="1006.65,-34.7856 998.502,-28.0082 1000.64,-38.3847 1006.65,-34.7856"/>
</g>
<!-- &#45;5&#45;&gt;1 -->
<g id="edge18" class="edge"><title>&#45;5&#45;&gt;1</title>
<path fill="none" stroke="green" stroke-width="0.146908" d="M1035.97,-77.8746C1039.22,-68.3653 1044.79,-52.1224 1049.4,-38.6437"/>
<polygon fill="green" stroke="green" stroke-width="0.146908" points="1052.77,-39.6272 1052.7,-29.0326 1046.15,-37.3587 1052.77,-39.6272"/>
</g>
<!-- &#45;5&#45;&gt;2 -->
<g id="edge19" class="edge"><title>&#45;5&#45;&gt;2</title>
<path fill="none" stroke="red" stroke-width="0.130254" d="M1039.82,-77.7417C1043.62,-73.5572 1048.71,-68.7203 1054.21,-65.6985 1113.54,-33.0974 1137,-47.8708 1202.21,-29.6985 1208.9,-27.8362 1216.09,-25.6486 1222.69,-23.5689"/>
<polygon fill="red" stroke="red" stroke-width="0.130254" points="1223.96,-26.8389 1232.41,-20.452 1221.82,-20.1734 1223.96,-26.8389"/>
</g>
<!-- &#45;5&#45;&gt;3 -->
<g id="edge20" class="edge"><title>&#45;5&#45;&gt;3</title>
<path fill="none" stroke="red" stroke-width="0.192742" d="M1040.38,-77.6517C1044.18,-73.6447 1049.11,-68.9972 1054.21,-65.6985 1086.23,-44.9831 1128.25,-30.3199 1154.23,-22.4762"/>
<polygon fill="red" stroke="red" stroke-width="0.192742" points="1155.37,-25.7894 1163.98,-19.6245 1153.4,-19.0705 1155.37,-25.7894"/>
</g>
<!-- &#45;6 -->
<g id="node6" class="node"><title>&#45;6</title>
<polygon fill="lightgray" stroke="black" points="1087.21,-95.9117 1063.21,-95.9117 1063.21,-77.9117 1087.21,-77.9117 1087.21,-95.9117"/>
<text text-anchor="middle" x="1075.21" y="-84.7117" font-family="Times New Roman,serif" font-size="9.00">&#45;6</text>
</g>
<!-- &#45;6&#45;&gt;0 -->
<g id="edge21" class="edge"><title>&#45;6&#45;&gt;0</title>
<path fill="none" stroke="red" stroke-width="0.178607" d="M1067.21,-77.8522C1063.36,-74.0717 1058.63,-69.5596 1054.21,-65.6985 1040.04,-53.325 1023.32,-40.1526 1010.66,-30.4577"/>
<polygon fill="red" stroke="red" stroke-width="0.178607" points="1012.71,-27.619 1002.63,-24.354 1008.47,-33.1918 1012.71,-27.619"/>
</g>
<!-- &#45;6&#45;&gt;1 -->
<g id="edge22" class="edge"><title>&#45;6&#45;&gt;1</title>
<path fill="none" stroke="red" stroke-width="0.151284" d="M1073.15,-77.8746C1070.74,-68.5153 1066.66,-52.633 1063.23,-39.2834"/>
<polygon fill="red" stroke="red" stroke-width="0.151284" points="1066.55,-38.1077 1060.67,-29.2932 1059.77,-39.8496 1066.55,-38.1077"/>
</g>
<!-- &#45;6&#45;&gt;2 -->
<g id="edge23" class="edge"><title>&#45;6&#45;&gt;2</title>
<path fill="none" stroke="green" stroke-width="0.155746" d="M1082.3,-77.5179C1086.08,-73.4768 1091.02,-68.8391 1096.21,-65.6985 1101.79,-62.3283 1181.69,-36.5111 1222.53,-23.4161"/>
<polygon fill="green" stroke="green" stroke-width="0.155746" points="1223.78,-26.6916 1232.24,-20.3088 1221.65,-20.025 1223.78,-26.6916"/>
</g>
<!-- &#45;6&#45;&gt;3 -->
<g id="edge24" class="edge"><title>&#45;6&#45;&gt;3</title>
<path fill="none" stroke="green" stroke-width="0.354527" d="M1083.01,-77.6015C1086.81,-73.7661 1091.56,-69.2801 1096.21,-65.6985 1115.41,-50.9125 1139.27,-36.836 1156.29,-27.4361"/>
<polygon fill="green" stroke="green" stroke-width="0.354527" points="1158.31,-30.3187 1165.43,-22.472 1154.97,-24.1665 1158.31,-30.3187"/>
</g>
<!-- &#45;7 -->
<g id="node7" class="node"><title>&#45;7</title>
<polygon fill="lightgray" stroke="black" points="1129.21,-95.9117 1105.21,-95.9117 1105.21,-77.9117 1129.21,-77.9117 1129.21,-95.9117"/>
<text text-anchor="middle" x="1117.21" y="-84.7117" font-family="Times New Roman,serif" font-size="9.00">&#45;7</text>
</g>
<!-- &#45;7&#45;&gt;0 -->
<g id="edge25" class="edge"><title>&#45;7&#45;&gt;0</title>
<path fill="none" stroke="green" stroke-width="0.124883" d="M1109.96,-77.7821C1106.13,-73.8083 1101.21,-69.1511 1096.21,-65.6985 1070.13,-47.6716 1036.51,-32.9954 1014.43,-24.3472"/>
<polygon fill="green" stroke="green" stroke-width="0.124883" points="1015.48,-20.9996 1004.89,-20.7025 1012.98,-27.5392 1015.48,-20.9996"/>
</g>
<!-- &#45;7&#45;&gt;1 -->
<g id="edge26" class="edge"><title>&#45;7&#45;&gt;1</title>
<path fill="none" stroke="red" stroke-width="0.397707" d="M1110.33,-77.8746C1101.38,-67.4184 1085.45,-48.8208 1073.36,-34.7089"/>
<polygon fill="red" stroke="red" stroke-width="0.397707" points="1075.94,-32.3326 1066.77,-27.0138 1070.62,-36.8858 1075.94,-32.3326"/>
</g>
<!-- &#45;7&#45;&gt;2 -->
<g id="edge27" class="edge"><title>&#45;7&#45;&gt;2</title>
<path fill="none" stroke="green" stroke-width="0.481493" d="M1124.45,-77.7592C1128.27,-73.7795 1133.2,-69.1241 1138.21,-65.6985 1165.12,-47.312 1199.9,-32.6494 1222.62,-24.1075"/>
<polygon fill="green" stroke="green" stroke-width="0.481493" points="1223.95,-27.3476 1232.14,-20.6222 1221.54,-20.7746 1223.95,-27.3476"/>
</g>
<!-- &#45;7&#45;&gt;3 -->
<g id="edge28" class="edge"><title>&#45;7&#45;&gt;3</title>
<path fill="none" stroke="green" stroke-width="0.394323" d="M1124.21,-77.8746C1133.42,-67.2982 1149.88,-48.3922 1162.22,-34.2241"/>
<polygon fill="green" stroke="green" stroke-width="0.394323" points="1164.99,-36.3686 1168.92,-26.5283 1159.71,-31.7721 1164.99,-36.3686"/>
</g>
<!-- &#45;8 -->
<g id="node8" class="node"><title>&#45;8</title>
<polygon fill="lightgray" stroke="black" points="1171.21,-95.9117 1147.21,-95.9117 1147.21,-77.9117 1171.21,-77.9117 1171.21,-95.9117"/>
<text text-anchor="middle" x="1159.21" y="-84.7117" font-family="Times New Roman,serif" font-size="9.00">&#45;8</text>
</g>
<!-- &#45;8&#45;&gt;0 -->
<g id="edge29" class="edge"><title>&#45;8&#45;&gt;0</title>
<path fill="none" stroke="green" stroke-width="0.105293" d="M1152.12,-77.5313C1148.34,-73.4936 1143.4,-68.855 1138.21,-65.6985 1135.47,-64.0313 1055.47,-37.2627 1014.67,-23.6581"/>
<polygon fill="green" stroke="green" stroke-width="0.105293" points="1015.57,-20.2706 1004.98,-20.4298 1013.36,-26.9117 1015.57,-20.2706"/>
</g>
<!-- &#45;8&#45;&gt;1 -->
<g id="edge30" class="edge"><title>&#45;8&#45;&gt;1</title>
<path fill="none" stroke="green" stroke-width="0.401881" d="M1151.4,-77.6129C1147.6,-73.78 1142.85,-69.2928 1138.21,-65.6985 1119.33,-51.0765 1095.94,-37.0667 1079.15,-27.6436"/>
<polygon fill="green" stroke="green" stroke-width="0.401881" points="1080.56,-24.4244 1070.11,-22.6555 1077.18,-30.5526 1080.56,-24.4244"/>
</g>
<!-- &#45;8&#45;&gt;2 -->
<g id="edge31" class="edge"><title>&#45;8&#45;&gt;2</title>
<path fill="none" stroke="red" stroke-width="0.575737" d="M1167.18,-77.8074C1171.02,-74.0171 1175.75,-69.5095 1180.21,-65.6985 1194.94,-53.1244 1212.47,-39.9628 1225.76,-30.323"/>
<polygon fill="red" stroke="red" stroke-width="0.575737" points="1228.12,-32.9392 1234.2,-24.2624 1224.04,-27.254 1228.12,-32.9392"/>
</g>
<!-- &#45;8&#45;&gt;3 -->
<g id="edge32" class="edge"><title>&#45;8&#45;&gt;3</title>
<path fill="none" stroke="green" stroke-width="0.486457" d="M1161.39,-77.8746C1163.93,-68.5153 1168.24,-52.633 1171.86,-39.2834"/>
<polygon fill="green" stroke="green" stroke-width="0.486457" points="1175.33,-39.8607 1174.57,-29.2932 1168.57,-38.0285 1175.33,-39.8607"/>
</g>
<!-- &#45;9 -->
<g id="node9" class="node"><title>&#45;9</title>
<polygon fill="lightgray" stroke="black" points="1213.21,-95.9117 1189.21,-95.9117 1189.21,-77.9117 1213.21,-77.9117 1213.21,-95.9117"/>
<text text-anchor="middle" x="1201.21" y="-84.7117" font-family="Times New Roman,serif" font-size="9.00">&#45;9</text>
</g>
<!-- &#45;9&#45;&gt;0 -->
<g id="edge33" class="edge"><title>&#45;9&#45;&gt;0</title>
<path fill="none" stroke="red" stroke-width="0.290436" d="M1194.61,-77.7452C1190.81,-73.5616 1185.71,-68.7246 1180.21,-65.6985 1121.29,-33.2593 1097.87,-48.2448 1033.21,-29.6985 1027.16,-27.9626 1020.68,-25.9178 1014.66,-23.9401"/>
<polygon fill="red" stroke="red" stroke-width="0.290436" points="1015.72,-20.6052 1005.13,-20.7416 1013.49,-27.2414 1015.72,-20.6052"/>
</g>
<!-- &#45;9&#45;&gt;1 -->
<g id="edge34" class="edge"><title>&#45;9&#45;&gt;1</title>
<path fill="none" stroke="red" stroke-width="0.21943" d="M1194.04,-77.6578C1190.24,-73.6523 1185.31,-69.0043 1180.21,-65.6985 1148.45,-45.0821 1106.77,-30.3908 1081,-22.5143"/>
<polygon fill="red" stroke="red" stroke-width="0.21943" points="1081.91,-19.1321 1071.33,-19.6491 1079.92,-25.8441 1081.91,-19.1321"/>
</g>
<!-- &#45;9&#45;&gt;2 -->
<g id="edge35" class="edge"><title>&#45;9&#45;&gt;2</title>
<path fill="none" stroke="red" stroke-width="0.385431" d="M1206.38,-77.8746C1212.85,-67.7908 1224.19,-50.1351 1233.12,-36.233"/>
<polygon fill="red" stroke="red" stroke-width="0.385431" points="1236.11,-38.0622 1238.57,-27.7567 1230.22,-34.2792 1236.11,-38.0622"/>
</g>
<!-- &#45;9&#45;&gt;3 -->
<g id="edge36" class="edge"><title>&#45;9&#45;&gt;3</title>
<path fill="none" stroke="green" stroke-width="0.164978" d="M1198.57,-77.8746C1195.47,-68.4226 1190.19,-52.3178 1185.78,-38.8876"/>
<polygon fill="green" stroke="green" stroke-width="0.164978" points="1189.07,-37.7027 1182.63,-29.2932 1182.42,-39.886 1189.07,-37.7027"/>
</g>
<!-- &#45;10 -->
<g id="node10" class="node"><title>&#45;10</title>
<polygon fill="lightgray" stroke="black" points="1260.71,-95.9117 1231.71,-95.9117 1231.71,-77.9117 1260.71,-77.9117 1260.71,-95.9117"/>
<text text-anchor="middle" x="1246.21" y="-84.7117" font-family="Times New Roman,serif" font-size="9.00">&#45;10</text>
</g>
<!-- &#45;10&#45;&gt;0 -->
<g id="edge37" class="edge"><title>&#45;10&#45;&gt;0</title>
<path fill="none" stroke="red" stroke-width="0.436672" d="M1238.52,-77.6463C1234.13,-73.4338 1228.31,-68.6007 1222.21,-65.6985 1145,-28.9602 1115.99,-51.1331 1033.21,-29.6985 1027.12,-28.1203 1020.62,-26.1322 1014.6,-24.1588"/>
<polygon fill="red" stroke="red" stroke-width="0.436672" points="1015.67,-20.8269 1005.08,-20.9263 1013.42,-27.4553 1015.67,-20.8269"/>
</g>
<!-- &#45;10&#45;&gt;1 -->
<g id="edge38" class="edge"><title>&#45;10&#45;&gt;1</title>
<path fill="none" stroke="green" stroke-width="0.115449" d="M1238.39,-77.8988C1233.97,-73.7603 1228.15,-68.9173 1222.21,-65.6985 1176.12,-40.7169 1115.84,-26.5813 1082.38,-20.1467"/>
<polygon fill="green" stroke="green" stroke-width="0.115449" points="1082.58,-16.6261 1072.12,-18.2552 1081.31,-23.5101 1082.58,-16.6261"/>
</g>
<!-- &#45;10&#45;&gt;2 -->
<g id="edge39" class="edge"><title>&#45;10&#45;&gt;2</title>
<path fill="none" stroke="red" stroke-width="0.206959" d="M1246.21,-77.8746C1246.21,-68.7202 1246.21,-53.3256 1246.21,-40.1641"/>
<polygon fill="red" stroke="red" stroke-width="0.206959" points="1249.71,-39.8196 1246.21,-29.8197 1242.71,-39.8197 1249.71,-39.8196"/>
</g>
<!-- &#45;10&#45;&gt;3 -->
<g id="edge40" class="edge"><title>&#45;10&#45;&gt;3</title>
<path fill="none" stroke="green" stroke-width="0.191676" d="M1238.41,-77.8746C1227.93,-67.0781 1209.03,-47.6015 1195.19,-33.3456"/>
<polygon fill="green" stroke="green" stroke-width="0.191676" points="1197.59,-30.7893 1188.11,-26.051 1192.57,-35.6645 1197.59,-30.7893"/>
</g>
<!-- &#45;11 -->
<g id="node11" class="node"><title>&#45;11</title>
<polygon fill="lightgray" stroke="black" points="317.713,-95.9117 288.713,-95.9117 288.713,-77.9117 317.713,-77.9117 317.713,-95.9117"/>
<text text-anchor="middle" x="303.213" y="-84.7117" font-family="Times New Roman,serif" font-size="9.00">&#45;11</text>
</g>
<!-- &#45;11&#45;&gt;0 -->
<g id="edge41" class="edge"><title>&#45;11&#45;&gt;0</title>
<path fill="none" stroke="green" stroke-width="0.145653" d="M310.009,-77.7826C314.19,-73.3884 319.94,-68.3351 326.213,-65.6985 444.887,-15.8164 859.187,-14.9809 965.958,-15.6217"/>
<polygon fill="green" stroke="green" stroke-width="0.145653" points="966.087,-19.1226 976.112,-15.6932 966.137,-12.1228 966.087,-19.1226"/>
</g>
<!-- &#45;11&#45;&gt;1 -->
<g id="edge42" class="edge"><title>&#45;11&#45;&gt;1</title>
<path fill="none" stroke="red" stroke-width="0.310718" d="M309.987,-77.7292C314.161,-73.3173 319.911,-68.264 326.213,-65.6985 468.218,-7.89049 864.52,-57.9553 1015.21,-29.6985 1021.4,-28.5382 1027.93,-26.7002 1033.96,-24.7378"/>
<polygon fill="red" stroke="red" stroke-width="0.310718" points="1035.17,-28.0201 1043.46,-21.4154 1032.86,-21.4125 1035.17,-28.0201"/>
</g>
<!-- &#45;11&#45;&gt;3 -->
<g id="edge43" class="edge"><title>&#45;11&#45;&gt;3</title>
<path fill="none" stroke="red" stroke-width="0.13349" d="M309.982,-77.7185C314.155,-73.303 319.905,-68.2497 326.213,-65.6985 481.929,-2.72199 913.998,-45.5866 1081.21,-29.6985 1105.93,-27.3497 1134,-23.1768 1153.56,-20.0236"/>
<polygon fill="red" stroke="red" stroke-width="0.13349" points="1154.17,-23.4695 1163.47,-18.3948 1153.04,-16.5621 1154.17,-23.4695"/>
</g>
<!-- &#45;12 -->
<g id="node12" class="node"><title>&#45;12</title>
<polygon fill="lightgray" stroke="black" points="1307.71,-95.9117 1278.71,-95.9117 1278.71,-77.9117 1307.71,-77.9117 1307.71,-95.9117"/>
<text text-anchor="middle" x="1293.21" y="-84.7117" font-family="Times New Roman,serif" font-size="9.00">&#45;12</text>
</g>
<!-- &#45;12&#45;&gt;0 -->
<g id="edge44" class="edge"><title>&#45;12&#45;&gt;0</title>
<path fill="none" stroke="red" stroke-width="0.289712" d="M1285.94,-77.5513C1281.77,-73.3109 1276.19,-68.4815 1270.21,-65.6985 1173.63,-20.7165 1136.84,-54.4678 1033.21,-29.6985 1027.09,-28.2348 1020.58,-26.2879 1014.56,-24.3174"/>
<polygon fill="red" stroke="red" stroke-width="0.289712" points="1015.64,-20.9875 1005.04,-21.0603 1013.37,-27.6103 1015.64,-20.9875"/>
</g>
<!-- &#45;12&#45;&gt;1 -->
<g id="edge45" class="edge"><title>&#45;12&#45;&gt;1</title>
<path fill="none" stroke="red" stroke-width="0.178453" d="M1285.85,-77.7381C1281.65,-73.5525 1276.07,-68.7158 1270.21,-65.6985 1237.25,-48.7286 1130.68,-28.6495 1081.95,-20.0734"/>
<polygon fill="red" stroke="red" stroke-width="0.178453" points="1082.39,-16.5981 1071.94,-18.3313 1081.19,-23.4944 1082.39,-16.5981"/>
</g>
<!-- &#45;12&#45;&gt;2 -->
<g id="edge46" class="edge"><title>&#45;12&#45;&gt;2</title>
<path fill="none" stroke="red" stroke-width="0.536991" d="M1287.82,-77.8746C1281.02,-67.7318 1269.07,-49.9283 1259.72,-35.9895"/>
<polygon fill="red" stroke="red" stroke-width="0.536991" points="1262.51,-33.8618 1254.03,-27.5071 1256.7,-37.7615 1262.51,-33.8618"/>
</g>
<!-- &#45;12&#45;&gt;3 -->
<g id="edge47" class="edge"><title>&#45;12&#45;&gt;3</title>
<path fill="none" stroke="green" stroke-width="0.249724" d="M1284.64,-77.552C1280.47,-73.7057 1275.27,-69.2249 1270.21,-65.6985 1247.75,-50.0401 1219.85,-35.5397 1200.7,-26.2618"/>
<polygon fill="green" stroke="green" stroke-width="0.249724" points="1202.09,-23.0478 1191.55,-21.9076 1199.08,-29.3676 1202.09,-23.0478"/>
</g>
<!-- &#45;13 -->
<g id="node13" class="node"><title>&#45;13</title>
<polygon fill="lightgray" stroke="black" points="1354.71,-95.9117 1325.71,-95.9117 1325.71,-77.9117 1354.71,-77.9117 1354.71,-95.9117"/>
<text text-anchor="middle" x="1340.21" y="-84.7117" font-family="Times New Roman,serif" font-size="9.00">&#45;13</text>
</g>
<!-- &#45;13&#45;&gt;0 -->
<g id="edge48" class="edge"><title>&#45;13&#45;&gt;0</title>
<path fill="none" stroke="red" stroke-width="0.30867" d="M1333.37,-77.9025C1329.17,-73.5483 1323.42,-68.495 1317.21,-65.6985 1201.22,-13.4069 1157.31,-57.7501 1033.21,-29.6985 1027.07,-28.3104 1020.56,-26.3906 1014.54,-24.4222"/>
<polygon fill="red" stroke="red" stroke-width="0.30867" points="1015.62,-21.0936 1005.02,-21.1488 1013.34,-27.7126 1015.62,-21.0936"/>
</g>
<!-- &#45;13&#45;&gt;1 -->
<g id="edge49" class="edge"><title>&#45;13&#45;&gt;1</title>
<path fill="none" stroke="green" stroke-width="0.297852" d="M1332.9,-77.643C1328.71,-73.4296 1323.13,-68.5966 1317.21,-65.6985 1296.09,-55.3571 1142.5,-29.6794 1081.8,-19.8052"/>
<polygon fill="green" stroke="green" stroke-width="0.297852" points="1082.35,-16.349 1071.92,-18.2043 1081.23,-23.2589 1082.35,-16.349"/>
</g>
<!-- &#45;13&#45;&gt;2 -->
<g id="edge50" class="edge"><title>&#45;13&#45;&gt;2</title>
<path fill="none" stroke="green" stroke-width="0.185857" d="M1331.45,-77.8088C1327.24,-74.0188 1322.06,-69.5112 1317.21,-65.6985 1300.8,-52.7888 1281.34,-39.2424 1266.95,-29.5348"/>
<polygon fill="green" stroke="green" stroke-width="0.185857" points="1268.57,-26.4042 1258.31,-23.7551 1264.68,-32.2232 1268.57,-26.4042"/>
</g>
<!-- &#45;13&#45;&gt;3 -->
<g id="edge51" class="edge"><title>&#45;13&#45;&gt;3</title>
<path fill="none" stroke="green" stroke-width="0.252372" d="M1332.29,-77.6017C1328.11,-73.5819 1322.71,-68.938 1317.21,-65.6985 1306.97,-59.659 1238.55,-36.1854 1201.67,-23.724"/>
<polygon fill="green" stroke="green" stroke-width="0.252372" points="1202.77,-20.4024 1192.18,-20.5248 1200.54,-27.0357 1202.77,-20.4024"/>
</g>
<!-- &#45;14 -->
<g id="node14" class="node"><title>&#45;14</title>
<polygon fill="lightgray" stroke="black" points="1401.71,-95.9117 1372.71,-95.9117 1372.71,-77.9117 1401.71,-77.9117 1401.71,-95.9117"/>
<text text-anchor="middle" x="1387.21" y="-84.7117" font-family="Times New Roman,serif" font-size="9.00">&#45;14</text>
</g>
<!-- &#45;14&#45;&gt;0 -->
<g id="edge52" class="edge"><title>&#45;14&#45;&gt;0</title>
<path fill="none" stroke="red" stroke-width="0.237422" d="M1380.38,-77.8611C1376.19,-73.4932 1370.44,-68.4399 1364.21,-65.6985 1228.78,-6.08013 1177.83,-61.0418 1033.21,-29.6985 1027.06,-28.365 1020.54,-26.4648 1014.52,-24.4978"/>
<polygon fill="red" stroke="red" stroke-width="0.237422" points="1015.6,-21.17 1005.01,-21.2127 1013.32,-27.7863 1015.6,-21.17"/>
</g>
<!-- &#45;14&#45;&gt;1 -->
<g id="edge53" class="edge"><title>&#45;14&#45;&gt;1</title>
<path fill="none" stroke="red" stroke-width="0.231326" d="M1379.93,-77.5756C1375.76,-73.3424 1370.17,-68.512 1364.21,-65.6985 1351.41,-59.655 1153.44,-30.043 1082.37,-19.5467"/>
<polygon fill="red" stroke="red" stroke-width="0.231326" points="1082.51,-16.0288 1072.1,-18.0328 1081.49,-22.9539 1082.51,-16.0288"/>
</g>
<!-- &#45;14&#45;&gt;2 -->
<g id="edge54" class="edge"><title>&#45;14&#45;&gt;2</title>
<path fill="none" stroke="green" stroke-width="0.369837" d="M1379.21,-77.7294C1375.01,-73.7422 1369.62,-69.0889 1364.21,-65.6985 1333.72,-46.5652 1294.61,-31.6974 1269.97,-23.3508"/>
<polygon fill="green" stroke="green" stroke-width="0.369837" points="1270.96,-19.9912 1260.37,-20.1796 1268.76,-26.6383 1270.96,-19.9912"/>
</g>
<!-- &#45;14&#45;&gt;3 -->
<g id="edge55" class="edge"><title>&#45;14&#45;&gt;3</title>
<path fill="none" stroke="green" stroke-width="0.273297" d="M1379.83,-77.781C1375.62,-73.6079 1370.05,-68.7695 1364.21,-65.6985 1306.6,-35.3652 1284.85,-47.4794 1222.21,-29.6985 1215.54,-27.8039 1208.34,-25.6058 1201.74,-23.5264"/>
<polygon fill="green" stroke="green" stroke-width="0.273297" points="1202.62,-20.1303 1192.02,-20.4174 1200.48,-26.7976 1202.62,-20.1303"/>
</g>
<!-- &#45;15 -->
<g id="node15" class="node"><title>&#45;15</title>
<polygon fill="lightgray" stroke="black" points="1448.71,-95.9117 1419.71,-95.9117 1419.71,-77.9117 1448.71,-77.9117 1448.71,-95.9117"/>
<text text-anchor="middle" x="1434.21" y="-84.7117" font-family="Times New Roman,serif" font-size="9.00">&#45;15</text>
</g>
<!-- &#45;15&#45;&gt;0 -->
<g id="edge56" class="edge"><title>&#45;15&#45;&gt;0</title>
<path fill="none" stroke="red" stroke-width="0.127948" d="M1427.4,-77.8298C1423.21,-73.4514 1417.46,-68.3981 1411.21,-65.6985 1256.3,1.25731 1198.38,-64.339 1033.21,-29.6985 1027.05,-28.4062 1020.53,-26.5208 1014.51,-24.5549"/>
<polygon fill="red" stroke="red" stroke-width="0.127948" points="1015.59,-21.2277 1005,-21.2609 1013.3,-27.842 1015.59,-21.2277"/>
</g>
<!-- &#45;15&#45;&gt;1 -->
<g id="edge57" class="edge"><title>&#45;15&#45;&gt;1</title>
<path fill="none" stroke="green" stroke-width="0.332469" d="M1426.95,-77.5237C1422.79,-73.2752 1417.2,-68.4469 1411.21,-65.6985 1306.38,-17.6088 1268.41,-45.8495 1154.21,-29.6985 1129.63,-26.2213 1101.54,-22.2068 1081.94,-19.3983"/>
<polygon fill="green" stroke="green" stroke-width="0.332469" points="1082.4,-15.9278 1072,-17.9731 1081.4,-22.857 1082.4,-15.9278"/>
</g>
<!-- &#45;15&#45;&gt;2 -->
<g id="edge58" class="edge"><title>&#45;15&#45;&gt;2</title>
<path fill="none" stroke="red" stroke-width="0.182428" d="M1426.77,-77.8853C1422.55,-73.7428 1416.98,-68.9003 1411.21,-65.6985 1365.15,-40.1028 1304.39,-26.1333 1270.94,-19.9063"/>
<polygon fill="red" stroke="red" stroke-width="0.182428" points="1271.17,-16.3912 1260.71,-18.0857 1269.94,-23.283 1271.17,-16.3912"/>
</g>
<!-- &#45;15&#45;&gt;3 -->
<g id="edge59" class="edge"><title>&#45;15&#45;&gt;3</title>
<path fill="none" stroke="red" stroke-width="0.119851" stroke-dasharray="1,5" d="M1426.9,-77.6402C1422.72,-73.4259 1417.14,-68.593 1411.21,-65.6985 1334.39,-28.1499 1305.14,-50.5706 1222.21,-29.6985 1215.49,-28.0052 1208.27,-25.8721 1201.67,-23.7907"/>
<polygon fill="red" stroke="red" stroke-width="0.119851" points="1202.56,-20.3982 1191.97,-20.6332 1200.39,-27.0549 1202.56,-20.3982"/>
</g>
<!-- &#45;16 -->
<g id="node16" class="node"><title>&#45;16</title>
<polygon fill="lightgray" stroke="black" points="1495.71,-95.9117 1466.71,-95.9117 1466.71,-77.9117 1495.71,-77.9117 1495.71,-95.9117"/>
<text text-anchor="middle" x="1481.21" y="-84.7117" font-family="Times New Roman,serif" font-size="9.00">&#45;16</text>
</g>
<!-- &#45;16&#45;&gt;0 -->
<g id="edge60" class="edge"><title>&#45;16&#45;&gt;0</title>
<path fill="none" stroke="green" stroke-width="0.154511" d="M1474.41,-77.8053C1470.22,-73.4188 1464.47,-68.3655 1458.21,-65.6985 1283.82,8.60178 1218.94,-67.6399 1033.21,-29.6985 1027.04,-28.4384 1020.52,-26.5646 1014.5,-24.5996"/>
<polygon fill="green" stroke="green" stroke-width="0.154511" points="1015.59,-21.2728 1004.99,-21.2986 1013.29,-27.8855 1015.59,-21.2728"/>
</g>
<!-- &#45;16&#45;&gt;1 -->
<g id="edge61" class="edge"><title>&#45;16&#45;&gt;1</title>
<path fill="none" stroke="green" stroke-width="0.245266" d="M1474.37,-77.8834C1470.18,-73.5228 1464.43,-68.4695 1458.21,-65.6985 1333.95,-10.2908 1289.12,-47.3149 1154.21,-29.6985 1129.59,-26.4834 1101.51,-22.4321 1081.92,-19.5435"/>
<polygon fill="green" stroke="green" stroke-width="0.245266" points="1082.39,-16.0752 1071.99,-18.071 1081.37,-22.9995 1082.39,-16.0752"/>
</g>
<!-- &#45;16&#45;&gt;2 -->
<g id="edge62" class="edge"><title>&#45;16&#45;&gt;2</title>
<path fill="none" stroke="red" stroke-width="0.384967" d="M1473.85,-77.7406C1469.65,-73.5556 1464.07,-68.7188 1458.21,-65.6985 1395.72,-33.4838 1312.16,-21.7675 1271.11,-17.7677"/>
<polygon fill="red" stroke="red" stroke-width="0.384967" points="1271.21,-14.263 1260.94,-16.8523 1270.58,-21.2348 1271.21,-14.263"/>
</g>
<!-- &#45;16&#45;&gt;3 -->
<g id="edge63" class="edge"><title>&#45;16&#45;&gt;3</title>
<path fill="none" stroke="red" stroke-width="0.642474" d="M1473.94,-77.5528C1469.77,-73.3128 1464.19,-68.4834 1458.21,-65.6985 1362.05,-20.8718 1325.57,-53.697 1222.21,-29.6985 1215.46,-28.1294 1208.23,-26.0365 1201.63,-23.9539"/>
<polygon fill="red" stroke="red" stroke-width="0.642474" points="1202.53,-20.5632 1191.93,-20.7665 1200.34,-27.2134 1202.53,-20.5632"/>
</g>
<!-- &#45;17 -->
<g id="node17" class="node"><title>&#45;17</title>
<polygon fill="lightgray" stroke="black" points="1542.71,-95.9117 1513.71,-95.9117 1513.71,-77.9117 1542.71,-77.9117 1542.71,-95.9117"/>
<text text-anchor="middle" x="1528.21" y="-84.7117" font-family="Times New Roman,serif" font-size="9.00">&#45;17</text>
</g>
<!-- &#45;17&#45;&gt;0 -->
<g id="edge64" class="edge"><title>&#45;17&#45;&gt;0</title>
<path fill="none" stroke="green" stroke-width="0.210534" d="M1521.42,-77.7856C1517.23,-73.3925 1511.48,-68.3392 1505.21,-65.6985 1408.26,-24.8737 1136.37,-50.3209 1033.21,-29.6985 1027.04,-28.4642 1020.51,-26.5997 1014.49,-24.6354"/>
<polygon fill="green" stroke="green" stroke-width="0.210534" points="1015.58,-21.309 1004.99,-21.3289 1013.28,-27.9204 1015.58,-21.309"/>
</g>
<!-- &#45;17&#45;&gt;1 -->
<g id="edge65" class="edge"><title>&#45;17&#45;&gt;1</title>
<path fill="none" stroke="red" stroke-width="0.350474" d="M1521.39,-77.8468C1517.2,-73.4741 1511.45,-68.4208 1505.21,-65.6985 1361.49,-2.95886 1309.87,-48.7848 1154.21,-29.6985 1129.57,-26.6763 1101.49,-22.598 1081.91,-19.6504"/>
<polygon fill="red" stroke="red" stroke-width="0.350474" points="1082.39,-16.1837 1071.98,-18.1431 1081.34,-23.1044 1082.39,-16.1837"/>
</g>
<!-- &#45;17&#45;&gt;2 -->
<g id="edge66" class="edge"><title>&#45;17&#45;&gt;2</title>
<path fill="none" stroke="green" stroke-width="0.131796" d="M1520.9,-77.6447C1516.71,-73.4317 1511.13,-68.5987 1505.21,-65.6985 1425.86,-26.8217 1318.98,-18.2304 1271.15,-16.3566"/>
<polygon fill="green" stroke="green" stroke-width="0.131796" points="1271.2,-12.8565 1261.09,-16.0299 1270.98,-19.8528 1271.2,-12.8565"/>
</g>
<!-- &#45;17&#45;&gt;3 -->
<g id="edge67" class="edge"><title>&#45;17&#45;&gt;3</title>
<path fill="none" stroke="green" stroke-width="0.207374" d="M1521.37,-77.9035C1517.17,-73.5497 1511.42,-68.4964 1505.21,-65.6985 1389.64,-13.5627 1346.07,-56.84 1222.21,-29.6985 1215.44,-28.2135 1208.21,-26.1477 1201.61,-24.0643"/>
<polygon fill="green" stroke="green" stroke-width="0.207374" points="1202.51,-20.6748 1191.91,-20.8566 1200.31,-27.3205 1202.51,-20.6748"/>
</g>
<!-- &#45;18 -->
<g id="node18" class="node"><title>&#45;18</title>
<polygon fill="lightgray" stroke="black" points="2041.71,-162.125 2012.71,-162.125 2012.71,-144.125 2041.71,-144.125 2041.71,-162.125"/>
<text text-anchor="middle" x="2027.21" y="-150.925" font-family="Times New Roman,serif" font-size="9.00">&#45;18</text>
</g>
<!-- &#45;18&#45;&gt;0 -->
<g id="edge68" class="edge"><title>&#45;18&#45;&gt;0</title>
<path fill="none" stroke="green" stroke-width="0.168945" d="M2012.3,-146.182C2009.65,-145.342 2006.88,-144.603 2004.21,-144.125 1956.69,-135.588 300.003,-142.621 266.213,-108.125 253.019,-94.6542 253.345,-79.4815 266.213,-65.6985 314.899,-13.5499 843.531,-14.6377 965.989,-15.5983"/>
<polygon fill="green" stroke="green" stroke-width="0.168945" points="966.214,-19.1002 976.244,-15.6862 966.274,-12.1005 966.214,-19.1002"/>
</g>
<!-- &#45;18&#45;&gt;1 -->
<g id="edge69" class="edge"><title>&#45;18&#45;&gt;1</title>
<path fill="none" stroke="green" stroke-width="0.557783" d="M2012.3,-146.182C2009.65,-145.343 2006.88,-144.603 2004.21,-144.125 1957.04,-135.648 312.747,-142.366 279.213,-108.125 266.02,-94.6532 266.21,-79.3536 279.213,-65.6985 335.676,-6.40638 934.715,-44.6542 1015.21,-29.6985 1021.4,-28.5485 1027.94,-26.7142 1033.96,-24.7521"/>
<polygon fill="green" stroke="green" stroke-width="0.557783" points="1035.18,-28.034 1043.46,-21.4275 1032.87,-21.4269 1035.18,-28.034"/>
</g>
<!-- &#45;18&#45;&gt;2 -->
<g id="edge70" class="edge"><title>&#45;18&#45;&gt;2</title>
<path fill="none" stroke="red" stroke-width="0.46555" d="M2041.78,-152.014C2106.23,-151.083 2359.48,-142.557 2286.21,-65.6985 2250.09,-27.8029 1427.41,-17.6693 1271.57,-16.0871"/>
<polygon fill="red" stroke="red" stroke-width="0.46555" points="1271.18,-12.5831 1261.14,-15.984 1271.11,-19.5828 1271.18,-12.5831"/>
</g>
<!-- &#45;18&#45;&gt;3 -->
<g id="edge71" class="edge"><title>&#45;18&#45;&gt;3</title>
<path fill="none" stroke="green" stroke-width="0.130892" d="M2025.92,-143.89C2022.63,-126.039 2012.14,-83.9243 1984.21,-65.6985 1913.23,-19.3774 1305.66,-44.5457 1222.21,-29.6985 1215.38,-28.4833 1208.14,-26.5048 1201.54,-24.4186"/>
<polygon fill="green" stroke="green" stroke-width="0.130892" points="1202.45,-21.0323 1191.86,-21.1461 1200.21,-27.6638 1202.45,-21.0323"/>
</g>
<!-- 181 -->
<g id="node47" class="node"><title>181</title>
<ellipse fill="white" stroke="black" cx="2256.21" cy="-86.9117" rx="21.4286" ry="21.4286"/>
<text text-anchor="middle" x="2256.21" y="-84.7117" font-family="Times New Roman,serif" font-size="9.00">181</text>
</g>
<!-- &#45;18&#45;&gt;181 -->
<g id="edge158" class="edge"><title>&#45;18&#45;&gt;181</title>
<path fill="none" stroke="green" stroke-width="0.252556" d="M2041.77,-150.346C2074.67,-146.003 2156.9,-133.32 2221.21,-108.125 2224.12,-106.984 2227.08,-105.628 2229.98,-104.167"/>
<polygon fill="green" stroke="green" stroke-width="0.252556" points="2231.84,-107.143 2238.93,-99.2704 2228.47,-101.003 2231.84,-107.143"/>
</g>
<!-- &#45;19 -->
<g id="node19" class="node"><title>&#45;19</title>
<polygon fill="lightgray" stroke="black" points="1589.71,-95.9117 1560.71,-95.9117 1560.71,-77.9117 1589.71,-77.9117 1589.71,-95.9117"/>
<text text-anchor="middle" x="1575.21" y="-84.7117" font-family="Times New Roman,serif" font-size="9.00">&#45;19</text>
</g>
<!-- &#45;19&#45;&gt;0 -->
<g id="edge72" class="edge"><title>&#45;19&#45;&gt;0</title>
<path fill="none" stroke="green" stroke-width="0.191604" d="M1568.42,-77.7695C1564.24,-73.371 1558.49,-68.3177 1552.21,-65.6985 1445.51,-21.1972 1146.66,-51.9734 1033.21,-29.6985 1027.04,-28.4854 1020.51,-26.6286 1014.48,-24.6648"/>
<polygon fill="green" stroke="green" stroke-width="0.191604" points="1015.58,-21.3387 1004.98,-21.3537 1013.27,-27.949 1015.58,-21.3387"/>
</g>
<!-- &#45;19&#45;&gt;1 -->
<g id="edge73" class="edge"><title>&#45;19&#45;&gt;1</title>
<path fill="none" stroke="green" stroke-width="0.246731" d="M1568.4,-77.8187C1564.22,-73.4366 1558.47,-68.3833 1552.21,-65.6985 1470.61,-30.6583 1242.42,-39.9779 1154.21,-29.6985 1129.55,-26.8243 1101.48,-22.7251 1081.9,-19.7324"/>
<polygon fill="green" stroke="green" stroke-width="0.246731" points="1082.39,-16.2668 1071.97,-18.1984 1081.32,-23.1847 1082.39,-16.2668"/>
</g>
<!-- &#45;19&#45;&gt;2 -->
<g id="edge74" class="edge"><title>&#45;19&#45;&gt;2</title>
<path fill="none" stroke="red" stroke-width="0.236877" d="M1567.93,-77.5768C1563.76,-73.344 1558.17,-68.5136 1552.21,-65.6985 1455.68,-20.1074 1325.05,-15.2383 1271.1,-15.358"/>
<polygon fill="red" stroke="red" stroke-width="0.236877" points="1271.05,-11.8582 1261.08,-15.442 1271.11,-18.8579 1271.05,-11.8582"/>
</g>
<!-- &#45;19&#45;&gt;3 -->
<g id="edge75" class="edge"><title>&#45;19&#45;&gt;3</title>
<path fill="none" stroke="red" stroke-width="0.19347" d="M1568.38,-77.8619C1564.19,-73.4942 1558.44,-68.4409 1552.21,-65.6985 1417.19,-6.23614 1366.61,-59.9921 1222.21,-29.6985 1215.42,-28.2741 1208.19,-26.2279 1201.59,-24.1438"/>
<polygon fill="red" stroke="red" stroke-width="0.19347" points="1202.49,-20.7552 1191.9,-20.9216 1200.29,-27.3977 1202.49,-20.7552"/>
</g>
<!-- &#45;20 -->
<g id="node20" class="node"><title>&#45;20</title>
<polygon fill="lightgray" stroke="black" points="2080.71,-95.9117 2051.71,-95.9117 2051.71,-77.9117 2080.71,-77.9117 2080.71,-95.9117"/>
<text text-anchor="middle" x="2066.21" y="-84.7117" font-family="Times New Roman,serif" font-size="9.00">&#45;20</text>
</g>
<!-- &#45;20&#45;&gt;1 -->
<g id="edge76" class="edge"><title>&#45;20&#45;&gt;1</title>
<path fill="none" stroke="green" stroke-width="0.116849" d="M2051.36,-83.2435C2026.14,-78.8226 1973.29,-70.0368 1928.21,-65.6985 1585.43,-32.7039 1497.06,-62.0724 1154.21,-29.6985 1129.49,-27.3642 1101.43,-23.1892 1081.87,-20.0316"/>
<polygon fill="green" stroke="green" stroke-width="0.116849" points="1082.39,-16.5702 1071.95,-18.4002 1081.25,-23.4773 1082.39,-16.5702"/>
</g>
<!-- &#45;20&#45;&gt;2 -->
<g id="edge77" class="edge"><title>&#45;20&#45;&gt;2</title>
<path fill="none" stroke="green" stroke-width="0.189658" d="M2057.28,-77.7466C2051.88,-73.3405 2044.63,-68.2872 2037.21,-65.6985 1890.91,-14.6316 1389.75,-14.8366 1271.4,-15.6234"/>
<polygon fill="green" stroke="green" stroke-width="0.189658" points="1271.14,-12.1252 1261.17,-15.6997 1271.19,-19.125 1271.14,-12.1252"/>
</g>
<!-- &#45;20&#45;&gt;3 -->
<g id="edge78" class="edge"><title>&#45;20&#45;&gt;3</title>
<path fill="none" stroke="green" stroke-width="0.482392" d="M2057.29,-77.6943C2051.9,-73.2707 2044.65,-68.2174 2037.21,-65.6985 1865.5,-7.56633 1400.75,-61.1802 1222.21,-29.6985 1215.38,-28.4938 1208.14,-26.5186 1201.54,-24.4324"/>
<polygon fill="green" stroke="green" stroke-width="0.482392" points="1202.45,-21.0462 1191.85,-21.1573 1200.21,-27.6771 1202.45,-21.0462"/>
</g>
<!-- &#45;21 -->
<g id="node21" class="node"><title>&#45;21</title>
<polygon fill="lightgray" stroke="black" points="1636.71,-95.9117 1607.71,-95.9117 1607.71,-77.9117 1636.71,-77.9117 1636.71,-95.9117"/>
<text text-anchor="middle" x="1622.21" y="-84.7117" font-family="Times New Roman,serif" font-size="9.00">&#45;21</text>
</g>
<!-- &#45;21&#45;&gt;0 -->
<g id="edge79" class="edge"><title>&#45;21&#45;&gt;0</title>
<path fill="none" stroke="red" stroke-width="0.257509" d="M1615.43,-77.756C1611.25,-73.3529 1605.5,-68.2996 1599.21,-65.6985 1482.75,-17.5195 1156.95,-53.6267 1033.21,-29.6985 1027.03,-28.5032 1020.5,-26.6527 1014.48,-24.6894"/>
<polygon fill="red" stroke="red" stroke-width="0.257509" points="1015.57,-21.3635 1004.98,-21.3745 1013.27,-27.9729 1015.57,-21.3635"/>
</g>
<!-- &#45;21&#45;&gt;1 -->
<g id="edge80" class="edge"><title>&#45;21&#45;&gt;1</title>
<path fill="none" stroke="green" stroke-width="0.199251" d="M1615.41,-77.7965C1611.23,-73.4069 1605.48,-68.3536 1599.21,-65.6985 1507.87,-26.9849 1252.81,-40.715 1154.21,-29.6985 1129.54,-26.9413 1101.46,-22.8257 1081.89,-19.7972"/>
<polygon fill="green" stroke="green" stroke-width="0.199251" points="1082.39,-16.3326 1071.97,-18.2421 1081.31,-23.2482 1082.39,-16.3326"/>
</g>
<!-- &#45;21&#45;&gt;2 -->
<g id="edge81" class="edge"><title>&#45;21&#45;&gt;2</title>
<path fill="none" stroke="red" stroke-width="0.202523" d="M1614.95,-77.5263C1610.79,-73.2787 1605.2,-68.4503 1599.21,-65.6985 1540.36,-38.6592 1341.78,-22.5122 1271.29,-17.521"/>
<polygon fill="red" stroke="red" stroke-width="0.202523" points="1271.34,-14.0159 1261.12,-16.8158 1270.85,-20.9992 1271.34,-14.0159"/>
</g>
<!-- &#45;21&#45;&gt;3 -->
<g id="edge82" class="edge"><title>&#45;21&#45;&gt;3</title>
<path fill="none" stroke="red" stroke-width="0.513388" d="M1615.4,-77.8304C1611.21,-73.4522 1605.46,-68.3989 1599.21,-65.6985 1444.72,1.10111 1387.17,-63.1496 1222.21,-29.6985 1215.41,-28.3198 1208.18,-26.2884 1201.58,-24.2039"/>
<polygon fill="red" stroke="red" stroke-width="0.513388" points="1202.48,-20.8158 1191.89,-20.9707 1200.27,-27.4559 1202.48,-20.8158"/>
</g>
<!-- &#45;22 -->
<g id="node22" class="node"><title>&#45;22</title>
<polygon fill="lightgray" stroke="black" points="1683.71,-95.9117 1654.71,-95.9117 1654.71,-77.9117 1683.71,-77.9117 1683.71,-95.9117"/>
<text text-anchor="middle" x="1669.21" y="-84.7117" font-family="Times New Roman,serif" font-size="9.00">&#45;22</text>
</g>
<!-- &#45;22&#45;&gt;0 -->
<g id="edge83" class="edge"><title>&#45;22&#45;&gt;0</title>
<path fill="none" stroke="red" stroke-width="0.135708" d="M1662.43,-77.7445C1658.26,-73.3377 1652.51,-68.2844 1646.21,-65.6985 1519.99,-13.8407 1167.25,-55.2804 1033.21,-29.6985 1027.03,-28.5182 1020.5,-26.6731 1014.48,-24.7102"/>
<polygon fill="red" stroke="red" stroke-width="0.135708" points="1015.57,-21.3845 1004.97,-21.3921 1013.26,-27.9932 1015.57,-21.3845"/>
</g>
<!-- &#45;22&#45;&gt;1 -->
<g id="edge84" class="edge"><title>&#45;22&#45;&gt;1</title>
<path fill="none" stroke="red" stroke-width="0.40876" d="M1662.42,-77.7784C1658.24,-73.3829 1652.49,-68.3296 1646.21,-65.6985 1545.11,-23.3094 1263.21,-41.4528 1154.21,-29.6985 1129.53,-27.0361 1101.45,-22.9072 1081.89,-19.8498"/>
<polygon fill="red" stroke="red" stroke-width="0.40876" points="1082.39,-16.3859 1071.96,-18.2776 1081.29,-23.2996 1082.39,-16.3859"/>
</g>
<!-- &#45;22&#45;&gt;2 -->
<g id="edge85" class="edge"><title>&#45;22&#45;&gt;2</title>
<path fill="none" stroke="green" stroke-width="0.240916" d="M1662.37,-77.8976C1658.17,-73.5418 1652.42,-68.4885 1646.21,-65.6985 1578.53,-35.2719 1348.49,-21.0472 1271.53,-17.0613"/>
<polygon fill="green" stroke="green" stroke-width="0.240916" points="1271.49,-13.5548 1261.32,-16.5467 1271.13,-20.5459 1271.49,-13.5548"/>
</g>
<!-- &#45;22&#45;&gt;3 -->
<g id="edge86" class="edge"><title>&#45;22&#45;&gt;3</title>
<path fill="none" stroke="green" stroke-width="0.273342" d="M1662.41,-77.8058C1658.22,-73.4194 1652.47,-68.3661 1646.21,-65.6985 1472.23,8.44546 1407.76,-66.3108 1222.21,-29.6985 1215.41,-28.3555 1208.17,-26.3357 1201.57,-24.2508"/>
<polygon fill="green" stroke="green" stroke-width="0.273342" points="1202.48,-20.8631 1191.88,-21.009 1200.26,-27.5013 1202.48,-20.8631"/>
</g>
<!-- &#45;23 -->
<g id="node23" class="node"><title>&#45;23</title>
<polygon fill="lightgray" stroke="black" points="1730.71,-95.9117 1701.71,-95.9117 1701.71,-77.9117 1730.71,-77.9117 1730.71,-95.9117"/>
<text text-anchor="middle" x="1716.21" y="-84.7117" font-family="Times New Roman,serif" font-size="9.00">&#45;23</text>
</g>
<!-- &#45;23&#45;&gt;0 -->
<g id="edge87" class="edge"><title>&#45;23&#45;&gt;0</title>
<path fill="none" stroke="red" stroke-width="0.254685" d="M1709.44,-77.7347C1705.26,-73.3245 1699.51,-68.2712 1693.21,-65.6985 1557.23,-10.1612 1177.55,-56.9345 1033.21,-29.6985 1027.03,-28.5311 1020.49,-26.6906 1014.47,-24.728"/>
<polygon fill="red" stroke="red" stroke-width="0.254685" points="1015.57,-21.4026 1004.97,-21.4071 1013.26,-28.0106 1015.57,-21.4026"/>
</g>
<!-- &#45;23&#45;&gt;1 -->
<g id="edge88" class="edge"><title>&#45;23&#45;&gt;1</title>
<path fill="none" stroke="green" stroke-width="0.309676" d="M1709.43,-77.7634C1705.25,-73.3629 1699.5,-68.3096 1693.21,-65.6985 1582.36,-19.6324 1273.61,-42.191 1154.21,-29.6985 1129.52,-27.1145 1101.45,-22.9746 1081.88,-19.8932"/>
<polygon fill="green" stroke="green" stroke-width="0.309676" points="1082.39,-16.4299 1071.96,-18.3069 1081.28,-23.3421 1082.39,-16.4299"/>
</g>
<!-- &#45;23&#45;&gt;2 -->
<g id="edge89" class="edge"><title>&#45;23&#45;&gt;2</title>
<path fill="none" stroke="red" stroke-width="0.346964" d="M1709.38,-77.8675C1705.19,-73.5017 1699.44,-68.4484 1693.21,-65.6985 1616.56,-31.8327 1354.23,-19.7131 1271.45,-16.6806"/>
<polygon fill="red" stroke="red" stroke-width="0.346964" points="1271.33,-13.1741 1261.21,-16.3188 1271.08,-20.1698 1271.33,-13.1741"/>
</g>
<!-- &#45;23&#45;&gt;3 -->
<g id="edge90" class="edge"><title>&#45;23&#45;&gt;3</title>
<path fill="none" stroke="red" stroke-width="0.404775" d="M1709.42,-77.786C1705.23,-73.393 1699.48,-68.3397 1693.21,-65.6985 1596.47,-24.9519 1325.28,-49.5864 1222.21,-29.6985 1215.4,-28.3842 1208.16,-26.3736 1201.56,-24.2884"/>
<polygon fill="red" stroke="red" stroke-width="0.404775" points="1202.47,-20.9011 1191.88,-21.0397 1200.24,-27.5378 1202.47,-20.9011"/>
</g>
<!-- &#45;24 -->
<g id="node24" class="node"><title>&#45;24</title>
<polygon fill="lightgray" stroke="black" points="1994.71,-162.125 1965.71,-162.125 1965.71,-144.125 1994.71,-144.125 1994.71,-162.125"/>
<text text-anchor="middle" x="1980.21" y="-150.925" font-family="Times New Roman,serif" font-size="9.00">&#45;24</text>
</g>
<!-- &#45;24&#45;&gt;0 -->
<g id="edge91" class="edge"><title>&#45;24&#45;&gt;0</title>
<path fill="none" stroke="green" stroke-width="0.108568" stroke-dasharray="1,5" d="M1965.66,-152.054C1796.21,-151.193 203.471,-142.201 170.213,-108.125 157.043,-94.6305 157.29,-79.4299 170.213,-65.6985 198.175,-35.9874 830.717,-19.592 965.926,-16.42"/>
<polygon fill="green" stroke="green" stroke-width="0.108568" points="966.21,-19.9145 976.126,-16.1839 966.048,-12.9164 966.21,-19.9145"/>
</g>
<!-- &#45;24&#45;&gt;1 -->
<g id="edge92" class="edge"><title>&#45;24&#45;&gt;1</title>
<path fill="none" stroke="green" stroke-width="0.245623" d="M1965.51,-152.037C1799.22,-151.011 278.009,-140.738 246.213,-108.125 126.3,14.8695 846.295,-60.8988 1015.21,-29.6985 1021.4,-28.5549 1027.94,-26.723 1033.96,-24.7611"/>
<polygon fill="green" stroke="green" stroke-width="0.245623" points="1035.18,-28.0428 1043.46,-21.4351 1032.87,-21.4359 1035.18,-28.0428"/>
</g>
<!-- &#45;24&#45;&gt;2 -->
<g id="edge93" class="edge"><title>&#45;24&#45;&gt;2</title>
<path fill="none" stroke="green" stroke-width="0.129707" stroke-dasharray="1,5" d="M1994.85,-146.915C1997.92,-145.915 2001.16,-144.93 2004.21,-144.125 2084.79,-122.906 2135.25,-172.456 2188.21,-108.125 2200.2,-93.5677 2201.19,-79.3796 2188.21,-65.6985 2155.74,-31.4632 1418.09,-18.4656 1271.43,-16.2156"/>
<polygon fill="green" stroke="green" stroke-width="0.129707" points="1271.25,-12.7125 1261.2,-16.0614 1271.14,-19.7117 1271.25,-12.7125"/>
</g>
<!-- &#45;24&#45;&gt;3 -->
<g id="edge94" class="edge"><title>&#45;24&#45;&gt;3</title>
<path fill="none" stroke="green" stroke-width="0.130813" d="M1981.28,-144.113C1983.09,-126.709 1984.57,-85.4295 1961.21,-65.6985 1898.42,-12.6417 1303.14,-44.1579 1222.21,-29.6985 1215.38,-28.4783 1208.14,-26.4982 1201.54,-24.4121"/>
<polygon fill="green" stroke="green" stroke-width="0.130813" points="1202.45,-21.0257 1191.86,-21.1407 1200.21,-27.6574 1202.45,-21.0257"/>
</g>
<!-- 401 -->
<g id="node46" class="node"><title>401</title>
<ellipse fill="white" stroke="black" cx="2158.21" cy="-86.9117" rx="21.4286" ry="21.4286"/>
<text text-anchor="middle" x="2158.21" y="-84.7117" font-family="Times New Roman,serif" font-size="9.00">401</text>
</g>
<!-- &#45;24&#45;&gt;401 -->
<g id="edge160" class="edge"><title>&#45;24&#45;&gt;401</title>
<path fill="none" stroke="red" stroke-width="0.173198" d="M1994.92,-147.152C1997.98,-146.135 2001.2,-145.083 2004.21,-144.125 2056.87,-127.386 2072.51,-130.087 2123.21,-108.125 2125.93,-106.948 2128.7,-105.611 2131.44,-104.197"/>
<polygon fill="red" stroke="red" stroke-width="0.173198" points="2133.39,-107.115 2140.46,-99.2205 2130.01,-100.985 2133.39,-107.115"/>
</g>
<!-- &#45;25 -->
<g id="node25" class="node"><title>&#45;25</title>
<polygon fill="lightgray" stroke="black" points="1777.71,-95.9117 1748.71,-95.9117 1748.71,-77.9117 1777.71,-77.9117 1777.71,-95.9117"/>
<text text-anchor="middle" x="1763.21" y="-84.7117" font-family="Times New Roman,serif" font-size="9.00">&#45;25</text>
</g>
<!-- &#45;25&#45;&gt;0 -->
<g id="edge95" class="edge"><title>&#45;25&#45;&gt;0</title>
<path fill="none" stroke="green" stroke-width="0.482197" d="M1756.44,-77.7261C1752.27,-73.3131 1746.52,-68.2598 1740.21,-65.6985 1594.47,-6.48099 1187.85,-58.589 1033.21,-29.6985 1027.02,-28.5423 1020.49,-26.7058 1014.47,-24.7435"/>
<polygon fill="green" stroke="green" stroke-width="0.482197" points="1015.56,-21.4182 1004.97,-21.4202 1013.25,-28.0257 1015.56,-21.4182"/>
</g>
<!-- &#45;25&#45;&gt;1 -->
<g id="edge96" class="edge"><title>&#45;25&#45;&gt;1</title>
<path fill="none" stroke="red" stroke-width="0.329136" d="M1756.43,-77.7509C1752.25,-73.3461 1746.5,-68.2928 1740.21,-65.6985 1619.6,-15.9542 1284.01,-42.9295 1154.21,-29.6985 1129.51,-27.1803 1101.44,-23.0312 1081.88,-19.9297"/>
<polygon fill="red" stroke="red" stroke-width="0.329136" points="1082.39,-16.4669 1071.96,-18.3315 1081.27,-23.3778 1082.39,-16.4669"/>
</g>
<!-- &#45;25&#45;&gt;2 -->
<g id="edge97" class="edge"><title>&#45;25&#45;&gt;2</title>
<path fill="none" stroke="green" stroke-width="0.122281" d="M1756.39,-77.843C1752.2,-73.469 1746.45,-68.4157 1740.21,-65.6985 1654.57,-28.3972 1359.87,-18.5259 1271.47,-16.3752"/>
<polygon fill="green" stroke="green" stroke-width="0.122281" points="1271.37,-12.872 1261.3,-16.14 1271.21,-19.8702 1271.37,-12.872"/>
</g>
<!-- &#45;25&#45;&gt;3 -->
<g id="edge98" class="edge"><title>&#45;25&#45;&gt;3</title>
<path fill="none" stroke="red" stroke-width="0.214333" d="M1756.42,-77.7698C1752.24,-73.3714 1746.49,-68.3181 1740.21,-65.6985 1633.72,-21.2755 1335.59,-51.1691 1222.21,-29.6985 1215.4,-28.4077 1208.16,-26.4047 1201.56,-24.3193"/>
<polygon fill="red" stroke="red" stroke-width="0.214333" points="1202.47,-20.9322 1191.87,-21.0649 1200.24,-27.5677 1202.47,-20.9322"/>
</g>
<!-- &#45;26 -->
<g id="node26" class="node"><title>&#45;26</title>
<polygon fill="lightgray" stroke="black" points="1824.71,-95.9117 1795.71,-95.9117 1795.71,-77.9117 1824.71,-77.9117 1824.71,-95.9117"/>
<text text-anchor="middle" x="1810.21" y="-84.7117" font-family="Times New Roman,serif" font-size="9.00">&#45;26</text>
</g>
<!-- &#45;26&#45;&gt;0 -->
<g id="edge99" class="edge"><title>&#45;26&#45;&gt;0</title>
<path fill="none" stroke="green" stroke-width="0.173361" d="M1803.44,-77.7186C1799.27,-73.3032 1793.52,-68.2499 1787.21,-65.6985 1631.71,-2.8003 1198.16,-60.2436 1033.21,-29.6985 1027.02,-28.5521 1020.49,-26.7191 1014.47,-24.7571"/>
<polygon fill="green" stroke="green" stroke-width="0.173361" points="1015.56,-21.4319 1004.97,-21.4317 1013.25,-28.0389 1015.56,-21.4319"/>
</g>
<!-- &#45;26&#45;&gt;1 -->
<g id="edge100" class="edge"><title>&#45;26&#45;&gt;1</title>
<path fill="none" stroke="red" stroke-width="0.248739" d="M1803.44,-77.7401C1799.26,-73.3318 1793.51,-68.2785 1787.21,-65.6985 1656.84,-12.275 1294.41,-43.6682 1154.21,-29.6985 1129.5,-27.2365 1101.44,-23.0795 1081.87,-19.9609"/>
<polygon fill="red" stroke="red" stroke-width="0.248739" points="1082.39,-16.4985 1071.96,-18.3525 1081.27,-23.4082 1082.39,-16.4985"/>
</g>
<!-- &#45;26&#45;&gt;2 -->
<g id="edge101" class="edge"><title>&#45;26&#45;&gt;2</title>
<path fill="none" stroke="red" stroke-width="0.242928" d="M1803.4,-77.8226C1799.21,-73.4419 1793.46,-68.3886 1787.21,-65.6985 1692.51,-24.9388 1365.03,-17.441 1271.4,-16.1203"/>
<polygon fill="red" stroke="red" stroke-width="0.242928" points="1271.22,-12.6177 1261.17,-15.988 1271.13,-19.6171 1271.22,-12.6177"/>
</g>
<!-- &#45;26&#45;&gt;3 -->
<g id="edge102" class="edge"><title>&#45;26&#45;&gt;3</title>
<path fill="none" stroke="red" stroke-width="0.545087" d="M1803.43,-77.7562C1799.25,-73.3533 1793.5,-68.3 1787.21,-65.6985 1670.96,-17.5977 1345.89,-52.7524 1222.21,-29.6985 1215.39,-28.4273 1208.15,-26.4306 1201.55,-24.345"/>
<polygon fill="red" stroke="red" stroke-width="0.545087" points="1202.46,-20.9582 1191.87,-21.086 1200.23,-27.5926 1202.46,-20.9582"/>
</g>
<!-- &#45;27 -->
<g id="node27" class="node"><title>&#45;27</title>
<polygon fill="lightgray" stroke="black" points="1871.71,-95.9117 1842.71,-95.9117 1842.71,-77.9117 1871.71,-77.9117 1871.71,-95.9117"/>
<text text-anchor="middle" x="1857.21" y="-84.7117" font-family="Times New Roman,serif" font-size="9.00">&#45;27</text>
</g>
<!-- &#45;27&#45;&gt;0 -->
<g id="edge103" class="edge"><title>&#45;27&#45;&gt;0</title>
<path fill="none" stroke="green" stroke-width="0.194829" d="M1850.45,-77.712C1846.27,-73.2943 1840.52,-68.241 1834.21,-65.6985 1668.94,0.880801 1208.46,-61.8985 1033.21,-29.6985 1027.02,-28.5607 1020.49,-26.7309 1014.46,-24.7691"/>
<polygon fill="green" stroke="green" stroke-width="0.194829" points="1015.56,-21.444 1004.96,-21.4418 1013.24,-28.0506 1015.56,-21.444"/>
</g>
<!-- &#45;27&#45;&gt;1 -->
<g id="edge104" class="edge"><title>&#45;27&#45;&gt;1</title>
<path fill="none" stroke="red" stroke-width="0.353025" d="M1850.44,-77.7309C1846.26,-73.3195 1840.51,-68.2662 1834.21,-65.6985 1694.08,-8.5952 1304.82,-44.4072 1154.21,-29.6985 1129.5,-27.2849 1101.43,-23.1211 1081.87,-19.9877"/>
<polygon fill="red" stroke="red" stroke-width="0.353025" points="1082.39,-16.5256 1071.95,-18.3706 1081.26,-23.4344 1082.39,-16.5256"/>
</g>
<!-- &#45;27&#45;&gt;2 -->
<g id="edge105" class="edge"><title>&#45;27&#45;&gt;2</title>
<path fill="none" stroke="green" stroke-width="0.128258" d="M1850.41,-77.8055C1846.22,-73.419 1840.47,-68.3657 1834.21,-65.6985 1730.41,-21.4717 1369.95,-16.4475 1271.32,-15.9067"/>
<polygon fill="green" stroke="green" stroke-width="0.128258" points="1271.13,-12.4059 1261.12,-15.8622 1271.1,-19.4059 1271.13,-12.4059"/>
</g>
<!-- &#45;27&#45;&gt;3 -->
<g id="edge106" class="edge"><title>&#45;27&#45;&gt;3</title>
<path fill="none" stroke="red" stroke-width="0.120593" d="M1850.43,-77.7447C1846.26,-73.338 1840.51,-68.2847 1834.21,-65.6985 1708.2,-13.919 1356.2,-54.3361 1222.21,-29.6985 1215.39,-28.4439 1208.15,-26.4526 1201.55,-24.3669"/>
<polygon fill="red" stroke="red" stroke-width="0.120593" points="1202.46,-20.9802 1191.86,-21.1038 1200.22,-27.6137 1202.46,-20.9802"/>
</g>
<!-- &#45;28 -->
<g id="node28" class="node"><title>&#45;28</title>
<polygon fill="lightgray" stroke="black" points="160.713,-162.125 131.713,-162.125 131.713,-144.125 160.713,-144.125 160.713,-162.125"/>
<text text-anchor="middle" x="146.213" y="-150.925" font-family="Times New Roman,serif" font-size="9.00">&#45;28</text>
</g>
<!-- &#45;28&#45;&gt;0 -->
<g id="edge107" class="edge"><title>&#45;28&#45;&gt;0</title>
<path fill="none" stroke="green" stroke-width="0.112369" stroke-dasharray="1,5" d="M131.676,-144.604C119.137,-137.213 101.876,-124.646 94.2132,-108.125 86.2795,-91.019 81.2551,-79.3967 94.2132,-65.6985 124.999,-33.1547 823.168,-18.8715 965.875,-16.2868"/>
<polygon fill="green" stroke="green" stroke-width="0.112369" points="966.287,-19.7801 976.223,-16.1024 966.162,-12.7812 966.287,-19.7801"/>
</g>
<!-- &#45;28&#45;&gt;1 -->
<g id="edge108" class="edge"><title>&#45;28&#45;&gt;1</title>
<path fill="none" stroke="red" stroke-width="0.273903" d="M149.154,-144.053C156.165,-126.146 175.741,-83.2926 208.213,-65.6985 287.13,-22.9398 926.932,-45.9041 1015.21,-29.6985 1021.41,-28.5618 1027.94,-26.7323 1033.96,-24.7705"/>
<polygon fill="red" stroke="red" stroke-width="0.273903" points="1035.18,-28.052 1043.46,-21.4431 1032.87,-21.4454 1035.18,-28.052"/>
</g>
<!-- &#45;28&#45;&gt;2 -->
<g id="edge109" class="edge"><title>&#45;28&#45;&gt;2</title>
<path fill="none" stroke="red" stroke-width="0.52478" d="M160.737,-152.079C336.766,-151.486 2054.39,-144.768 2090.21,-108.125 2103.39,-94.6415 2103.15,-79.4193 2090.21,-65.6985 2061.38,-35.1168 1408.43,-19.3524 1271.33,-16.3732"/>
<polygon fill="red" stroke="red" stroke-width="0.52478" points="1271.09,-12.8673 1261.01,-16.1522 1270.94,-19.8657 1271.09,-12.8673"/>
</g>
<!-- &#45;28&#45;&gt;3 -->
<g id="edge110" class="edge"><title>&#45;28&#45;&gt;3</title>
<path fill="none" stroke="red" stroke-width="0.389206" d="M160.8,-152.048C328.983,-151.128 1895.49,-141.663 1928.21,-108.125 1941.38,-94.628 1941.2,-79.3671 1928.21,-65.6985 1874.11,-8.76117 1299.52,-43.6016 1222.21,-29.6985 1215.39,-28.4706 1208.14,-26.4879 1201.54,-24.4019"/>
<polygon fill="red" stroke="red" stroke-width="0.389206" points="1202.45,-21.0154 1191.86,-21.1324 1200.21,-27.6476 1202.45,-21.0154"/>
</g>
<!-- 515 -->
<g id="node45" class="node"><title>515</title>
<ellipse fill="white" stroke="black" cx="21.2132" cy="-86.9117" rx="21.4286" ry="21.4286"/>
<text text-anchor="middle" x="21.2132" y="-84.7117" font-family="Times New Roman,serif" font-size="9.00">515</text>
</g>
<!-- &#45;28&#45;&gt;515 -->
<g id="edge162" class="edge"><title>&#45;28&#45;&gt;515</title>
<path fill="none" stroke="green" stroke-width="0.3" d="M131.403,-145.269C113.436,-136.863 82.3119,-122.02 56.2132,-108.125 53.5131,-106.687 50.7176,-105.153 47.9376,-103.597"/>
<polygon fill="green" stroke="green" stroke-width="0.3" points="49.6666,-100.554 39.2455,-98.6431 46.2003,-106.636 49.6666,-100.554"/>
</g>
<!-- &#45;29 -->
<g id="node29" class="node"><title>&#45;29</title>
<polygon fill="lightgray" stroke="black" points="364.713,-95.9117 335.713,-95.9117 335.713,-77.9117 364.713,-77.9117 364.713,-95.9117"/>
<text text-anchor="middle" x="350.213" y="-84.7117" font-family="Times New Roman,serif" font-size="9.00">&#45;29</text>
</g>
<!-- &#45;29&#45;&gt;0 -->
<g id="edge111" class="edge"><title>&#45;29&#45;&gt;0</title>
<path fill="none" stroke="red" stroke-width="0.246928" d="M357.014,-77.7959C361.198,-73.4062 366.948,-68.3529 373.213,-65.6985 482.835,-19.2552 864.443,-15.8543 966.145,-15.7877"/>
<polygon fill="red" stroke="red" stroke-width="0.246928" points="966.372,-19.2877 976.374,-15.7922 966.375,-12.2877 966.372,-19.2877"/>
</g>
<!-- &#45;29&#45;&gt;1 -->
<g id="edge112" class="edge"><title>&#45;29&#45;&gt;1</title>
<path fill="none" stroke="green" stroke-width="0.176058" d="M356.99,-77.7383C361.166,-73.3293 366.916,-68.276 373.213,-65.6985 505.455,-11.5704 874.821,-56.301 1015.21,-29.6985 1021.4,-28.5264 1027.93,-26.6842 1033.95,-24.7215"/>
<polygon fill="green" stroke="green" stroke-width="0.176058" points="1035.17,-28.0042 1043.46,-21.4016 1032.86,-21.396 1035.17,-28.0042"/>
</g>
<!-- &#45;29&#45;&gt;2 -->
<g id="edge113" class="edge"><title>&#45;29&#45;&gt;2</title>
<path fill="none" stroke="green" stroke-width="0.233992" d="M356.978,-77.7084C361.15,-73.2896 366.9,-68.2363 373.213,-65.6985 544.304,3.07397 1020.61,-61.6523 1202.21,-29.6985 1209.05,-28.4963 1216.29,-26.522 1222.89,-24.4357"/>
<polygon fill="green" stroke="green" stroke-width="0.233992" points="1224.22,-27.6803 1232.57,-21.16 1221.98,-21.0495 1224.22,-27.6803"/>
</g>
<!-- &#45;29&#45;&gt;3 -->
<g id="edge114" class="edge"><title>&#45;29&#45;&gt;3</title>
<path fill="none" stroke="red" stroke-width="0.22607" d="M356.985,-77.7259C361.159,-73.3129 366.909,-68.2596 373.213,-65.6985 519.165,-6.40268 924.407,-44.8475 1081.21,-29.6985 1105.93,-27.3107 1134,-23.1433 1153.56,-20.002"/>
<polygon fill="red" stroke="red" stroke-width="0.22607" points="1154.17,-23.4484 1163.47,-18.3802 1153.04,-16.5401 1154.17,-23.4484"/>
</g>
<!-- &#45;30 -->
<g id="node30" class="node"><title>&#45;30</title>
<polygon fill="lightgray" stroke="black" points="411.713,-95.9117 382.713,-95.9117 382.713,-77.9117 411.713,-77.9117 411.713,-95.9117"/>
<text text-anchor="middle" x="397.213" y="-84.7117" font-family="Times New Roman,serif" font-size="9.00">&#45;30</text>
</g>
<!-- &#45;30&#45;&gt;0 -->
<g id="edge115" class="edge"><title>&#45;30&#45;&gt;0</title>
<path fill="none" stroke="red" stroke-width="0.252242" d="M404.021,-77.8114C408.207,-73.4268 413.957,-68.3735 420.213,-65.6985 520.759,-22.709 869.519,-16.7925 966.195,-15.9788"/>
<polygon fill="red" stroke="red" stroke-width="0.252242" points="966.246,-19.4786 976.221,-15.9057 966.195,-12.4788 966.246,-19.4786"/>
</g>
<!-- &#45;30&#45;&gt;1 -->
<g id="edge116" class="edge"><title>&#45;30&#45;&gt;1</title>
<path fill="none" stroke="green" stroke-width="0.173738" d="M403.994,-77.7487C408.172,-73.3432 413.922,-68.2899 420.213,-65.6985 542.694,-15.2497 885.12,-54.647 1015.21,-29.6985 1021.4,-28.5127 1027.93,-26.6656 1033.95,-24.7026"/>
<polygon fill="green" stroke="green" stroke-width="0.173738" points="1035.16,-27.9858 1043.45,-21.3856 1032.86,-21.3769 1035.16,-27.9858"/>
</g>
<!-- &#45;30&#45;&gt;2 -->
<g id="edge117" class="edge"><title>&#45;30&#45;&gt;2</title>
<path fill="none" stroke="green" stroke-width="0.384167" d="M403.981,-77.7146C408.153,-73.2978 413.903,-68.2445 420.213,-65.6985 581.539,-0.607351 1030.92,-60.0673 1202.21,-29.6985 1209.04,-28.4874 1216.29,-26.5102 1222.89,-24.424"/>
<polygon fill="green" stroke="green" stroke-width="0.384167" points="1224.22,-27.669 1232.57,-21.1505 1221.98,-21.0378 1224.22,-27.669"/>
</g>
<!-- &#45;30&#45;&gt;3 -->
<g id="edge118" class="edge"><title>&#45;30&#45;&gt;3</title>
<path fill="none" stroke="red" stroke-width="0.156314" d="M403.989,-77.7345C408.164,-73.3243 413.914,-68.271 420.213,-65.6985 556.401,-10.0829 934.814,-44.1084 1081.21,-29.6985 1105.92,-27.2662 1133.99,-23.105 1153.55,-19.9773"/>
<polygon fill="red" stroke="red" stroke-width="0.156314" points="1154.16,-23.4243 1163.47,-18.3636 1153.04,-16.5151 1154.16,-23.4243"/>
</g>
<!-- &#45;31 -->
<g id="node31" class="node"><title>&#45;31</title>
<polygon fill="lightgray" stroke="black" points="458.713,-95.9117 429.713,-95.9117 429.713,-77.9117 458.713,-77.9117 458.713,-95.9117"/>
<text text-anchor="middle" x="444.213" y="-84.7117" font-family="Times New Roman,serif" font-size="9.00">&#45;31</text>
</g>
<!-- &#45;31&#45;&gt;0 -->
<g id="edge119" class="edge"><title>&#45;31&#45;&gt;0</title>
<path fill="none" stroke="red" stroke-width="0.242508" d="M451.029,-77.8296C455.217,-73.4511 460.967,-68.3978 467.213,-65.6985 558.703,-26.1599 874.726,-17.8088 966.215,-16.2034"/>
<polygon fill="red" stroke="red" stroke-width="0.242508" points="966.288,-19.7027 976.229,-16.0394 966.173,-12.7037 966.288,-19.7027"/>
</g>
<!-- &#45;31&#45;&gt;1 -->
<g id="edge120" class="edge"><title>&#45;31&#45;&gt;1</title>
<path fill="none" stroke="green" stroke-width="0.22158" d="M451,-77.7609C455.178,-73.3595 460.928,-68.3062 467.213,-65.6985 579.936,-18.9281 895.417,-52.9934 1015.21,-29.6985 1021.39,-28.4967 1027.92,-26.6439 1033.95,-24.6804"/>
<polygon fill="green" stroke="green" stroke-width="0.22158" points="1035.16,-27.9642 1043.45,-21.3669 1032.85,-21.3545 1035.16,-27.9642"/>
</g>
<!-- &#45;31&#45;&gt;2 -->
<g id="edge121" class="edge"><title>&#45;31&#45;&gt;2</title>
<path fill="none" stroke="red" stroke-width="0.27265" d="M450.983,-77.7215C455.157,-73.307 460.907,-68.2537 467.213,-65.6985 618.774,-4.2883 1041.24,-58.4825 1202.21,-29.6985 1209.04,-28.4774 1216.29,-26.497 1222.89,-24.4109"/>
<polygon fill="red" stroke="red" stroke-width="0.27265" points="1224.21,-27.6563 1232.57,-21.1397 1221.97,-21.0245 1224.21,-27.6563"/>
</g>
<!-- &#45;31&#45;&gt;3 -->
<g id="edge122" class="edge"><title>&#45;31&#45;&gt;3</title>
<path fill="none" stroke="red" stroke-width="0.181911" d="M450.993,-77.7443C455.169,-73.3374 460.919,-68.2841 467.213,-65.6985 593.64,-13.7624 945.22,-43.3696 1081.21,-29.6985 1105.92,-27.2148 1133.99,-23.0609 1153.55,-19.9488"/>
<polygon fill="red" stroke="red" stroke-width="0.181911" points="1154.16,-23.3965 1163.47,-18.3444 1153.04,-16.4863 1154.16,-23.3965"/>
</g>
<!-- &#45;32 -->
<g id="node32" class="node"><title>&#45;32</title>
<polygon fill="lightgray" stroke="black" points="505.713,-95.9117 476.713,-95.9117 476.713,-77.9117 505.713,-77.9117 505.713,-95.9117"/>
<text text-anchor="middle" x="491.213" y="-84.7117" font-family="Times New Roman,serif" font-size="9.00">&#45;32</text>
</g>
<!-- &#45;32&#45;&gt;0 -->
<g id="edge123" class="edge"><title>&#45;32&#45;&gt;0</title>
<path fill="none" stroke="red" stroke-width="0.265849" d="M498.038,-77.8513C502.23,-73.4801 507.98,-68.4268 514.213,-65.6985 596.604,-29.6373 879.62,-18.9396 965.986,-16.4781"/>
<polygon fill="red" stroke="red" stroke-width="0.265849" points="966.276,-19.9716 976.177,-16.2005 966.085,-12.9742 966.276,-19.9716"/>
</g>
<!-- &#45;32&#45;&gt;1 -->
<g id="edge124" class="edge"><title>&#45;32&#45;&gt;1</title>
<path fill="none" stroke="red" stroke-width="0.246584" stroke-dasharray="1,5" d="M498.006,-77.7753C502.186,-73.3787 507.936,-68.3254 514.213,-65.6985 617.18,-22.6054 905.711,-51.3404 1015.21,-29.6985 1021.39,-28.4778 1027.92,-26.6182 1033.94,-24.6542"/>
<polygon fill="red" stroke="red" stroke-width="0.246584" points="1035.15,-27.9387 1043.44,-21.3448 1032.85,-21.328 1035.15,-27.9387"/>
</g>
<!-- &#45;32&#45;&gt;2 -->
<g id="edge125" class="edge"><title>&#45;32&#45;&gt;2</title>
<path fill="none" stroke="green" stroke-width="0.17937" d="M497.987,-77.7294C502.161,-73.3176 507.911,-68.2643 514.213,-65.6985 656.01,-7.96879 1051.55,-56.8979 1202.21,-29.6985 1209.04,-28.466 1216.28,-26.4819 1222.88,-24.3959"/>
<polygon fill="green" stroke="green" stroke-width="0.17937" points="1224.21,-27.6418 1232.57,-21.1275 1221.97,-21.0094 1224.21,-27.6418"/>
</g>
<!-- &#45;32&#45;&gt;3 -->
<g id="edge126" class="edge"><title>&#45;32&#45;&gt;3</title>
<path fill="none" stroke="green" stroke-width="0.215601" stroke-dasharray="1,5" d="M497.997,-77.7557C502.175,-73.3526 507.925,-68.2993 514.213,-65.6985 630.88,-17.4412 955.624,-42.6309 1081.21,-29.6985 1105.91,-27.155 1133.98,-23.0094 1153.55,-19.9157"/>
<polygon fill="green" stroke="green" stroke-width="0.215601" points="1154.15,-23.3641 1163.47,-18.322 1153.04,-16.4527 1154.15,-23.3641"/>
</g>
<!-- &#45;33 -->
<g id="node33" class="node"><title>&#45;33</title>
<polygon fill="lightgray" stroke="black" points="552.713,-95.9117 523.713,-95.9117 523.713,-77.9117 552.713,-77.9117 552.713,-95.9117"/>
<text text-anchor="middle" x="538.213" y="-84.7117" font-family="Times New Roman,serif" font-size="9.00">&#45;33</text>
</g>
<!-- &#45;33&#45;&gt;0 -->
<g id="edge127" class="edge"><title>&#45;33&#45;&gt;0</title>
<path fill="none" stroke="red" stroke-width="0.4526" d="M545.05,-77.8776C549.245,-73.5152 554.995,-68.4619 561.213,-65.6985 634.675,-33.0504 885.659,-20.156 966.152,-16.8001"/>
<polygon fill="red" stroke="red" stroke-width="0.4526" points="966.491,-20.2894 976.342,-16.3888 966.209,-13.2951 966.491,-20.2894"/>
</g>
<!-- &#45;33&#45;&gt;1 -->
<g id="edge128" class="edge"><title>&#45;33&#45;&gt;1</title>
<path fill="none" stroke="red" stroke-width="0.270419" d="M545.013,-77.7927C549.196,-73.4019 554.946,-68.3486 561.213,-65.6985 747.641,13.136 816.79,-69.6779 1015.21,-29.6985 1021.39,-28.455 1027.91,-26.5871 1033.93,-24.6225"/>
<polygon fill="red" stroke="red" stroke-width="0.270419" points="1035.14,-27.9079 1043.44,-21.318 1032.84,-21.296 1035.14,-27.9079"/>
</g>
<!-- &#45;33&#45;&gt;2 -->
<g id="edge129" class="edge"><title>&#45;33&#45;&gt;2</title>
<path fill="none" stroke="red" stroke-width="0.189986" stroke-dasharray="1,5" d="M544.99,-77.7385C549.166,-73.3296 554.916,-68.2763 561.213,-65.6985 693.247,-11.6487 1061.86,-55.3135 1202.21,-29.6985 1209.04,-28.453 1216.28,-26.4646 1222.88,-24.3788"/>
<polygon fill="red" stroke="red" stroke-width="0.189986" points="1224.21,-27.6252 1232.56,-21.1135 1221.97,-20.9921 1224.21,-27.6252"/>
</g>
<!-- &#45;33&#45;&gt;3 -->
<g id="edge130" class="edge"><title>&#45;33&#45;&gt;3</title>
<path fill="none" stroke="red" stroke-width="0.457345" d="M545.003,-77.7692C549.183,-73.3705 554.933,-68.3172 561.213,-65.6985 668.123,-21.119 966.025,-41.8925 1081.21,-29.6985 1105.91,-27.0845 1133.98,-22.9488 1153.54,-19.8766"/>
<polygon fill="red" stroke="red" stroke-width="0.457345" points="1154.14,-23.3258 1163.46,-18.2957 1153.04,-16.413 1154.14,-23.3258"/>
</g>
<!-- &#45;34 -->
<g id="node34" class="node"><title>&#45;34</title>
<polygon fill="lightgray" stroke="black" points="599.713,-95.9117 570.713,-95.9117 570.713,-77.9117 599.713,-77.9117 599.713,-95.9117"/>
<text text-anchor="middle" x="585.213" y="-84.7117" font-family="Times New Roman,serif" font-size="9.00">&#45;34</text>
</g>
<!-- &#45;34&#45;&gt;0 -->
<g id="edge131" class="edge"><title>&#45;34&#45;&gt;0</title>
<path fill="none" stroke="red" stroke-width="0.224202" d="M592.064,-77.9103C596.265,-73.5587 602.015,-68.5054 608.213,-65.6985 672.704,-36.4943 891.386,-21.5521 966.014,-17.2136"/>
<polygon fill="red" stroke="red" stroke-width="0.224202" points="966.542,-20.6894 976.328,-16.6288 966.146,-13.7006 966.542,-20.6894"/>
</g>
<!-- &#45;34&#45;&gt;1 -->
<g id="edge132" class="edge"><title>&#45;34&#45;&gt;1</title>
<path fill="none" stroke="red" stroke-width="0.467054" d="M592.022,-77.8141C596.208,-73.4304 601.958,-68.3771 608.213,-65.6985 775.146,5.78833 837.36,-66.3754 1015.21,-29.6985 1021.38,-28.4269 1027.9,-26.549 1033.93,-24.5837"/>
<polygon fill="red" stroke="red" stroke-width="0.467054" points="1035.13,-27.87 1043.43,-21.2852 1032.84,-21.2568 1035.13,-27.87"/>
</g>
<!-- &#45;34&#45;&gt;2 -->
<g id="edge133" class="edge"><title>&#45;34&#45;&gt;2</title>
<path fill="none" stroke="green" stroke-width="0.114558" d="M591.995,-77.7489C596.172,-73.3436 601.922,-68.2903 608.213,-65.6985 730.487,-15.328 1072.17,-53.7295 1202.21,-29.6985 1209.03,-28.4379 1216.28,-26.4446 1222.88,-24.3589"/>
<polygon fill="green" stroke="green" stroke-width="0.114558" points="1224.2,-27.606 1232.56,-21.0973 1221.97,-20.9721 1224.2,-27.606"/>
</g>
<!-- &#45;34&#45;&gt;3 -->
<g id="edge134" class="edge"><title>&#45;34&#45;&gt;3</title>
<path fill="none" stroke="red" stroke-width="0.164688" d="M592.01,-77.7853C596.192,-73.392 601.942,-68.3387 608.213,-65.6985 705.369,-24.7955 976.422,-41.1545 1081.21,-29.6985 1105.9,-27 1133.97,-22.8762 1153.54,-19.8298"/>
<polygon fill="red" stroke="red" stroke-width="0.164688" points="1154.13,-23.28 1163.46,-18.2641 1153.04,-16.3656 1154.13,-23.28"/>
</g>
<!-- &#45;35 -->
<g id="node35" class="node"><title>&#45;35</title>
<polygon fill="lightgray" stroke="black" points="646.713,-95.9117 617.713,-95.9117 617.713,-77.9117 646.713,-77.9117 646.713,-95.9117"/>
<text text-anchor="middle" x="632.213" y="-84.7117" font-family="Times New Roman,serif" font-size="9.00">&#45;35</text>
</g>
<!-- &#45;35&#45;&gt;0 -->
<g id="edge135" class="edge"><title>&#45;35&#45;&gt;0</title>
<path fill="none" stroke="red" stroke-width="0.532541" d="M639.482,-77.543C643.65,-73.3002 649.233,-68.4712 655.213,-65.6985 710.834,-39.9101 897.756,-23.1282 966,-17.7346"/>
<polygon fill="red" stroke="red" stroke-width="0.532541" points="966.551,-21.2024 976.251,-16.9401 966.01,-14.2234 966.551,-21.2024"/>
</g>
<!-- &#45;35&#45;&gt;1 -->
<g id="edge136" class="edge"><title>&#45;35&#45;&gt;1</title>
<path fill="none" stroke="red" stroke-width="0.386852" d="M639.034,-77.8409C643.224,-73.4662 648.974,-68.4129 655.213,-65.6985 802.663,-1.55376 857.917,-63.0757 1015.21,-29.6985 1021.37,-28.3916 1027.89,-26.5011 1033.92,-24.5348"/>
<polygon fill="red" stroke="red" stroke-width="0.386852" points="1035.12,-27.8223 1043.42,-21.2439 1032.83,-21.2074 1035.12,-27.8223"/>
</g>
<!-- &#45;35&#45;&gt;2 -->
<g id="edge137" class="edge"><title>&#45;35&#45;&gt;2</title>
<path fill="none" stroke="green" stroke-width="0.37766" stroke-dasharray="1,5" d="M639,-77.7611C643.178,-73.3599 648.928,-68.3066 655.213,-65.6985 767.728,-19.0064 1082.48,-52.1459 1202.21,-29.6985 1209.03,-28.4202 1216.27,-26.4212 1222.87,-24.3357"/>
<polygon fill="green" stroke="green" stroke-width="0.37766" points="1224.19,-27.5835 1232.56,-21.0783 1221.96,-20.9487 1224.19,-27.5835"/>
</g>
<!-- &#45;35&#45;&gt;3 -->
<g id="edge138" class="edge"><title>&#45;35&#45;&gt;3</title>
<path fill="none" stroke="green" stroke-width="0.266473" d="M639.018,-77.8049C643.203,-73.4182 648.953,-68.3649 655.213,-65.6985 742.619,-28.4702 986.816,-40.417 1081.21,-29.6985 1105.89,-26.897 1133.96,-22.7877 1153.53,-19.7727"/>
<polygon fill="green" stroke="green" stroke-width="0.266473" points="1154.12,-23.2242 1163.46,-18.2256 1153.04,-16.3077 1154.12,-23.2242"/>
</g>
<!-- &#45;36 -->
<g id="node36" class="node"><title>&#45;36</title>
<polygon fill="lightgray" stroke="black" points="693.713,-95.9117 664.713,-95.9117 664.713,-77.9117 693.713,-77.9117 693.713,-95.9117"/>
<text text-anchor="middle" x="679.213" y="-84.7117" font-family="Times New Roman,serif" font-size="9.00">&#45;36</text>
</g>
<!-- &#45;36&#45;&gt;0 -->
<g id="edge139" class="edge"><title>&#45;36&#45;&gt;0</title>
<path fill="none" stroke="green" stroke-width="0.323605" d="M686.509,-77.599C690.684,-73.3726 696.266,-68.5413 702.213,-65.6985 792.299,-22.6365 913.96,-16.2967 965.954,-15.6871"/>
<polygon fill="green" stroke="green" stroke-width="0.323605" points="966.253,-19.1857 976.234,-15.6333 966.216,-12.1858 966.253,-19.1857"/>
</g>
<!-- &#45;36&#45;&gt;1 -->
<g id="edge140" class="edge"><title>&#45;36&#45;&gt;1</title>
<path fill="none" stroke="green" stroke-width="0.300961" d="M686.049,-77.8755C690.244,-73.5124 695.994,-68.4591 702.213,-65.6985 830.199,-8.88766 878.454,-59.7803 1015.21,-29.6985 1021.36,-28.346 1027.88,-26.439 1033.9,-24.4715"/>
<polygon fill="green" stroke="green" stroke-width="0.300961" points="1035.1,-27.7606 1043.41,-21.1904 1032.82,-21.1434 1035.1,-27.7606"/>
</g>
<!-- &#45;36&#45;&gt;2 -->
<g id="edge141" class="edge"><title>&#45;36&#45;&gt;2</title>
<path fill="none" stroke="green" stroke-width="0.596568" d="M686.006,-77.7756C690.187,-73.3792 695.937,-68.3259 702.213,-65.6985 804.972,-22.6836 1092.79,-50.5629 1202.21,-29.6985 1209.03,-28.3992 1216.27,-26.3934 1222.87,-24.3081"/>
<polygon fill="green" stroke="green" stroke-width="0.596568" points="1224.19,-27.5569 1232.55,-21.0558 1221.96,-20.9209 1224.19,-27.5569"/>
</g>
<!-- &#45;36&#45;&gt;3 -->
<g id="edge142" class="edge"><title>&#45;36&#45;&gt;3</title>
<path fill="none" stroke="green" stroke-width="0.150196" d="M686.028,-77.8292C690.217,-73.4507 695.967,-68.3974 702.213,-65.6985 779.875,-32.1425 997.203,-39.6801 1081.21,-29.6985 1105.87,-26.7688 1133.95,-22.6775 1153.52,-19.7017"/>
<polygon fill="green" stroke="green" stroke-width="0.150196" points="1154.1,-23.1546 1163.45,-18.1777 1153.04,-16.2357 1154.1,-23.1546"/>
</g>
<!-- &#45;37 -->
<g id="node37" class="node"><title>&#45;37</title>
<polygon fill="lightgray" stroke="black" points="740.713,-95.9117 711.713,-95.9117 711.713,-77.9117 740.713,-77.9117 740.713,-95.9117"/>
<text text-anchor="middle" x="726.213" y="-84.7117" font-family="Times New Roman,serif" font-size="9.00">&#45;37</text>
</g>
<!-- &#45;37&#45;&gt;0 -->
<g id="edge143" class="edge"><title>&#45;37&#45;&gt;0</title>
<path fill="none" stroke="red" stroke-width="0.569646" d="M733.546,-77.6754C737.732,-73.4714 743.313,-68.6371 749.213,-65.6985 822.287,-29.3054 920.453,-19.4727 966.021,-16.8228"/>
<polygon fill="red" stroke="red" stroke-width="0.569646" points="966.369,-20.3097 976.177,-16.303 966.011,-13.3188 966.369,-20.3097"/>
</g>
<!-- &#45;37&#45;&gt;1 -->
<g id="edge144" class="edge"><title>&#45;37&#45;&gt;1</title>
<path fill="none" stroke="green" stroke-width="0.154028" d="M733.468,-77.5125C737.632,-73.2608 743.215,-68.433 749.213,-65.6985 857.764,-16.2089 898.961,-56.4917 1015.21,-29.6985 1021.35,-28.2845 1027.86,-26.3554 1033.88,-24.3863"/>
<polygon fill="green" stroke="green" stroke-width="0.154028" points="1035.08,-27.6776 1043.4,-21.1185 1032.8,-21.0573 1035.08,-27.6776"/>
</g>
<!-- &#45;37&#45;&gt;2 -->
<g id="edge145" class="edge"><title>&#45;37&#45;&gt;2</title>
<path fill="none" stroke="green" stroke-width="0.142404" d="M733.013,-77.7931C737.196,-73.4025 742.946,-68.3492 749.213,-65.6985 935.226,12.9796 1003.96,-68.2625 1202.21,-29.6985 1209.02,-28.3739 1216.26,-26.36 1222.86,-24.2749"/>
<polygon fill="green" stroke="green" stroke-width="0.142404" points="1224.18,-27.5247 1232.55,-21.0287 1221.95,-20.8874 1224.18,-27.5247"/>
</g>
<!-- &#45;37&#45;&gt;3 -->
<g id="edge146" class="edge"><title>&#45;37&#45;&gt;3</title>
<path fill="none" stroke="red" stroke-width="0.447866" d="M733.042,-77.8604C737.235,-73.4922 742.985,-68.4389 749.213,-65.6985 885.065,-5.9241 933.949,-48.1902 1081.21,-29.6985 1105.85,-26.6048 1133.93,-22.5365 1153.51,-19.6108"/>
<polygon fill="red" stroke="red" stroke-width="0.447866" points="1154.08,-23.0655 1163.44,-18.1164 1153.03,-16.1435 1154.08,-23.0655"/>
</g>
<!-- &#45;38 -->
<g id="node38" class="node"><title>&#45;38</title>
<polygon fill="lightgray" stroke="black" points="787.713,-95.9117 758.713,-95.9117 758.713,-77.9117 787.713,-77.9117 787.713,-95.9117"/>
<text text-anchor="middle" x="773.213" y="-84.7117" font-family="Times New Roman,serif" font-size="9.00">&#45;38</text>
</g>
<!-- &#45;38&#45;&gt;0 -->
<g id="edge147" class="edge"><title>&#45;38&#45;&gt;0</title>
<path fill="none" stroke="green" stroke-width="0.112042" d="M780.602,-77.7856C784.805,-73.6139 790.384,-68.7753 796.213,-65.6985 852.466,-36.0085 927.314,-23.3372 965.87,-18.4933"/>
<polygon fill="green" stroke="green" stroke-width="0.112042" points="966.653,-21.9254 976.175,-17.2789 965.834,-14.9735 966.653,-21.9254"/>
</g>
<!-- &#45;38&#45;&gt;1 -->
<g id="edge148" class="edge"><title>&#45;38&#45;&gt;1</title>
<path fill="none" stroke="green" stroke-width="0.192542" d="M780.5,-77.5803C784.672,-73.3484 790.255,-68.5179 796.213,-65.6985 885.375,-23.5089 919.418,-53.2145 1015.21,-29.6985 1021.33,-28.1975 1027.83,-26.2372 1033.85,-24.2658"/>
<polygon fill="green" stroke="green" stroke-width="0.192542" points="1035.04,-27.5599 1043.37,-21.0167 1032.78,-20.9353 1035.04,-27.5599"/>
</g>
<!-- &#45;38&#45;&gt;2 -->
<g id="edge149" class="edge"><title>&#45;38&#45;&gt;2</title>
<path fill="none" stroke="green" stroke-width="0.288287" d="M780.022,-77.8146C784.209,-73.4311 789.959,-68.3778 796.213,-65.6985 962.731,5.63205 1024.55,-65.0998 1202.21,-29.6985 1209.02,-28.3428 1216.25,-26.3188 1222.85,-24.2341"/>
<polygon fill="green" stroke="green" stroke-width="0.288287" points="1224.17,-27.4852 1232.54,-20.9953 1221.95,-20.8463 1224.17,-27.4852"/>
</g>
<!-- &#45;38&#45;&gt;3 -->
<g id="edge150" class="edge"><title>&#45;38&#45;&gt;3</title>
<path fill="none" stroke="red" stroke-width="0.630421" d="M780.06,-77.9015C784.259,-73.547 790.009,-68.4937 796.213,-65.6985 912.616,-13.2512 954.68,-46.7219 1081.21,-29.6985 1105.82,-26.3877 1133.9,-22.3498 1153.5,-19.4904"/>
<polygon fill="red" stroke="red" stroke-width="0.630421" points="1154.05,-22.9475 1163.43,-18.0352 1153.03,-16.0214 1154.05,-22.9475"/>
</g>
<!-- &#45;39 -->
<g id="node39" class="node"><title>&#45;39</title>
<polygon fill="lightgray" stroke="black" points="1918.71,-95.9117 1889.71,-95.9117 1889.71,-77.9117 1918.71,-77.9117 1918.71,-95.9117"/>
<text text-anchor="middle" x="1904.21" y="-84.7117" font-family="Times New Roman,serif" font-size="9.00">&#45;39</text>
</g>
<!-- &#45;39&#45;&gt;1 -->
<g id="edge151" class="edge"><title>&#45;39&#45;&gt;1</title>
<path fill="none" stroke="green" stroke-width="0.302179" d="M1897.44,-77.7228C1893.27,-73.3087 1887.52,-68.2554 1881.21,-65.6985 1731.31,-4.9148 1315.23,-45.1463 1154.21,-29.6985 1129.5,-27.3271 1101.43,-23.1574 1081.87,-20.0111"/>
<polygon fill="green" stroke="green" stroke-width="0.302179" points="1082.39,-16.5493 1071.95,-18.3863 1081.26,-23.4572 1082.39,-16.5493"/>
</g>
<!-- &#45;39&#45;&gt;2 -->
<g id="edge152" class="edge"><title>&#45;39&#45;&gt;2</title>
<path fill="none" stroke="red" stroke-width="0.34046" d="M1897.41,-77.7909C1893.23,-73.3995 1887.48,-68.3462 1881.21,-65.6985 1768.31,-18.0065 1374.81,-15.5315 1271.31,-15.7252"/>
<polygon fill="red" stroke="red" stroke-width="0.34046" points="1271.17,-12.2255 1261.18,-15.755 1271.19,-19.2255 1271.17,-12.2255"/>
</g>
<!-- &#45;39&#45;&gt;3 -->
<g id="edge153" class="edge"><title>&#45;39&#45;&gt;3</title>
<path fill="none" stroke="red" stroke-width="0.353904" d="M1897.44,-77.7348C1893.26,-73.3248 1887.51,-68.2715 1881.21,-65.6985 1745.44,-10.2395 1366.51,-55.9203 1222.21,-29.6985 1215.39,-28.4582 1208.14,-26.4715 1201.55,-24.3856"/>
<polygon fill="red" stroke="red" stroke-width="0.353904" points="1202.46,-20.9991 1191.86,-21.1191 1200.22,-27.6319 1202.46,-20.9991"/>
</g>
<!-- &#45;40 -->
<g id="node40" class="node"><title>&#45;40</title>
<polygon fill="lightgray" stroke="black" points="834.713,-95.9117 805.713,-95.9117 805.713,-77.9117 834.713,-77.9117 834.713,-95.9117"/>
<text text-anchor="middle" x="820.213" y="-84.7117" font-family="Times New Roman,serif" font-size="9.00">&#45;40</text>
</g>
<!-- &#45;40&#45;&gt;0 -->
<g id="edge154" class="edge"><title>&#45;40&#45;&gt;0</title>
<path fill="none" stroke="red" stroke-width="0.145825" d="M828.516,-77.5774C832.89,-73.5515 838.519,-68.9094 844.213,-65.6985 884.353,-43.0639 936.457,-28.4259 966.633,-21.2006"/>
<polygon fill="red" stroke="red" stroke-width="0.145825" points="967.741,-24.5367 976.695,-18.873 966.163,-17.7168 967.741,-24.5367"/>
</g>
<!-- &#45;40&#45;&gt;1 -->
<g id="edge155" class="edge"><title>&#45;40&#45;&gt;1</title>
<path fill="none" stroke="green" stroke-width="0.205123" d="M827.933,-77.6931C832.321,-73.4942 838.142,-68.6593 844.213,-65.6985 914.021,-31.6561 940.218,-49.8904 1015.21,-29.6985 1021.29,-28.0617 1027.79,-26.0525 1033.81,-24.0775"/>
<polygon fill="green" stroke="green" stroke-width="0.205123" points="1034.98,-27.3758 1043.33,-20.8576 1032.74,-20.7445 1034.98,-27.3758"/>
</g>
<!-- &#45;40&#45;&gt;2 -->
<g id="edge156" class="edge"><title>&#45;40&#45;&gt;2</title>
<path fill="none" stroke="red" stroke-width="0.349696" d="M827.397,-77.842C831.791,-73.4677 837.791,-68.4144 844.213,-65.6985 991.498,-3.41197 1045.57,-61.8727 1202.21,-29.6985 1209.01,-28.3027 1216.24,-26.2658 1222.84,-24.1815"/>
<polygon fill="red" stroke="red" stroke-width="0.349696" points="1224.15,-27.4342 1232.53,-20.9524 1221.94,-20.7932 1224.15,-27.4342"/>
</g>
<!-- &#45;40&#45;&gt;3 -->
<g id="edge157" class="edge"><title>&#45;40&#45;&gt;3</title>
<path fill="none" stroke="green" stroke-width="0.318985" d="M827.865,-77.5484C832.233,-73.3072 838.057,-68.4779 844.213,-65.6985 847.77,-64.0926 1076.68,-30.6423 1153.44,-19.4564"/>
<polygon fill="green" stroke="green" stroke-width="0.318985" points="1154.22,-22.8791 1163.61,-17.9741 1153.21,-15.9522 1154.22,-22.8791"/>
</g>
<!-- 515&#45;&gt;0 -->
<g id="edge163" class="edge"><title>515&#45;&gt;0</title>
<path fill="none" stroke="red" stroke-width="0.111678" d="M38.2817,-73.9151C43.7636,-70.6623 50.0244,-67.5352 56.2132,-65.6985 233.57,-13.0634 834.7,-14.6187 965.82,-15.6106"/>
<polygon fill="red" stroke="red" stroke-width="0.111678" points="966.037,-19.1124 976.065,-15.6946 966.094,-12.1126 966.037,-19.1124"/>
</g>
<!-- 401&#45;&gt;2 -->
<g id="edge161" class="edge"><title>401&#45;&gt;2</title>
<path fill="none" stroke="red" stroke-width="0.299531" d="M2141.14,-73.9285C2135.66,-70.6762 2129.4,-67.546 2123.21,-65.6985 1957.43,-16.1823 1396.56,-15.2809 1271.2,-15.7157"/>
<polygon fill="red" stroke="red" stroke-width="0.299531" points="1271.05,-12.2162 1261.07,-15.7575 1271.08,-19.2162 1271.05,-12.2162"/>
</g>
<!-- 181&#45;&gt;2 -->
<g id="edge159" class="edge"><title>181&#45;&gt;2</title>
<path fill="none" stroke="green" stroke-width="0.194228" d="M2239.15,-73.9068C2233.67,-70.6536 2227.4,-67.5284 2221.21,-65.6985 2035.65,-10.8478 1405.47,-14.1858 1271.42,-15.5481"/>
<polygon fill="green" stroke="green" stroke-width="0.194228" points="1271.27,-12.0494 1261.31,-15.657 1271.35,-19.049 1271.27,-12.0494"/>
</g>
</g>
</svg>
