<?xml version="1.0" encoding="UTF-8" standalone="no"?>
<!DOCTYPE svg PUBLIC "-//W3C//DTD SVG 1.1//EN"
 "http://www.w3.org/Graphics/SVG/1.1/DTD/svg11.dtd">
<!-- Generated by graphviz version 2.38.0 (20140413.2041)
 -->
<!-- Title: %3 Pages: 1 -->
<svg width="2097pt" height="170pt"
 viewBox="0.00 0.00 2097.01 170.12" xmlns="http://www.w3.org/2000/svg" xmlns:xlink="http://www.w3.org/1999/xlink">
<g id="graph0" class="graph" transform="scale(1 1) rotate(0) translate(4 166.125)">
<title>%3</title>
<polygon fill="white" stroke="none" points="-4,4 -4,-166.125 2093.01,-166.125 2093.01,4 -4,4"/>
<!-- &#45;1 -->
<g id="node1" class="node"><title>&#45;1</title>
<polygon fill="lightgray" stroke="black" points="537.796,-95.9117 513.796,-95.9117 513.796,-77.9117 537.796,-77.9117 537.796,-95.9117"/>
<text text-anchor="middle" x="525.796" y="-84.7117" font-family="Times New Roman,serif" font-size="9.00">&#45;1</text>
</g>
<!-- 0 -->
<g id="node41" class="node"><title>0</title>
<ellipse fill="lightblue" stroke="black" cx="819.796" cy="-14.8492" rx="14.7" ry="14.7"/>
<text text-anchor="middle" x="819.796" y="-12.6492" font-family="Times New Roman,serif" font-size="9.00">0</text>
</g>
<!-- &#45;1&#45;&gt;0 -->
<g id="edge1" class="edge"><title>&#45;1&#45;&gt;0</title>
<path fill="none" stroke="green" stroke-width="0.51152" d="M532.334,-77.6135C536.11,-73.3914 541.211,-68.5596 546.796,-65.6985 630.312,-22.911 744.772,-16.3755 794.747,-15.697"/>
<polygon fill="green" stroke="green" stroke-width="0.51152" points="794.961,-19.1958 804.938,-15.6304 794.915,-12.1959 794.961,-19.1958"/>
</g>
<!-- 1 -->
<g id="node42" class="node"><title>1</title>
<ellipse fill="lightblue" stroke="black" cx="1035.8" cy="-14.8492" rx="14.7" ry="14.7"/>
<text text-anchor="middle" x="1035.8" y="-12.6492" font-family="Times New Roman,serif" font-size="9.00">1</text>
</g>
<!-- &#45;1&#45;&gt;1 -->
<g id="edge2" class="edge"><title>&#45;1&#45;&gt;1</title>
<path fill="none" stroke="red" stroke-width="0.598167" d="M531.868,-77.8027C535.642,-73.4153 540.892,-68.362 546.796,-65.6985 636.625,-25.1741 891.91,-47.7205 988.796,-29.6985 996.526,-28.2605 1004.8,-26.0553 1012.22,-23.8244"/>
<polygon fill="red" stroke="red" stroke-width="0.598167" points="1013.52,-27.0858 1021.99,-20.7309 1011.4,-20.4122 1013.52,-27.0858"/>
</g>
<!-- 2 -->
<g id="node43" class="node"><title>2</title>
<ellipse fill="lightblue" stroke="black" cx="964.796" cy="-14.8492" rx="14.7" ry="14.7"/>
<text text-anchor="middle" x="964.796" y="-12.6492" font-family="Times New Roman,serif" font-size="9.00">2</text>
</g>
<!-- &#45;1&#45;&gt;2 -->
<g id="edge3" class="edge"><title>&#45;1&#45;&gt;2</title>
<path fill="none" stroke="green" stroke-width="0.458716" d="M531.891,-77.8529C535.672,-73.4822 540.922,-68.4289 546.796,-65.6985 686.595,-0.711737 739.264,-52.0856 891.796,-29.6985 908.068,-27.3101 926.24,-23.8655 940.382,-21.0092"/>
<polygon fill="green" stroke="green" stroke-width="0.458716" points="941.223,-24.4095 950.313,-18.9668 939.813,-17.553 941.223,-24.4095"/>
</g>
<!-- 3 -->
<g id="node44" class="node"><title>3</title>
<ellipse fill="lightblue" stroke="black" cx="867.796" cy="-14.8492" rx="14.7" ry="14.7"/>
<text text-anchor="middle" x="867.796" y="-12.6492" font-family="Times New Roman,serif" font-size="9.00">3</text>
</g>
<!-- &#45;1&#45;&gt;3 -->
<g id="edge4" class="edge"><title>&#45;1&#45;&gt;3</title>
<path fill="none" stroke="green" stroke-width="0.544863" d="M531.908,-77.8895C535.695,-73.531 540.945,-68.4777 546.796,-65.6985 666.9,-8.64625 717.663,-71.7774 843.796,-29.6985 844.674,-29.4054 845.556,-29.0781 846.436,-28.7234"/>
<polygon fill="green" stroke="green" stroke-width="0.544863" points="848.155,-31.7777 855.542,-24.1832 845.031,-25.5132 848.155,-31.7777"/>
</g>
<!-- &#45;2 -->
<g id="node2" class="node"><title>&#45;2</title>
<polygon fill="lightgray" stroke="black" points="579.796,-95.9117 555.796,-95.9117 555.796,-77.9117 579.796,-77.9117 579.796,-95.9117"/>
<text text-anchor="middle" x="567.796" y="-84.7117" font-family="Times New Roman,serif" font-size="9.00">&#45;2</text>
</g>
<!-- &#45;2&#45;&gt;0 -->
<g id="edge5" class="edge"><title>&#45;2&#45;&gt;0</title>
<path fill="none" stroke="red" stroke-width="0.292178" d="M574.371,-77.6843C578.158,-73.483 583.258,-68.6484 588.796,-65.6985 657.229,-29.2478 750.512,-19.4481 794.662,-16.8153"/>
<polygon fill="red" stroke="red" stroke-width="0.292178" points="794.979,-20.3036 804.783,-16.2885 794.615,-13.3131 794.979,-20.3036"/>
</g>
<!-- &#45;2&#45;&gt;1 -->
<g id="edge6" class="edge"><title>&#45;2&#45;&gt;1</title>
<path fill="none" stroke="green" stroke-width="0.307297" d="M573.876,-77.8215C577.653,-73.4404 582.903,-68.3871 588.796,-65.6985 751.189,8.39228 813.45,-63.0859 988.796,-29.6985 996.52,-28.2277 1004.79,-26.0133 1012.21,-23.7842"/>
<polygon fill="green" stroke="green" stroke-width="0.307297" points="1013.5,-27.047 1021.99,-20.6991 1011.4,-20.3717 1013.5,-27.047"/>
</g>
<!-- &#45;2&#45;&gt;2 -->
<g id="edge7" class="edge"><title>&#45;2&#45;&gt;2</title>
<path fill="none" stroke="green" stroke-width="0.15209" d="M573.905,-77.8843C577.692,-73.5241 582.942,-68.4708 588.796,-65.6985 711.36,-7.65517 757.763,-50.3495 891.796,-29.6985 908.051,-27.194 926.222,-23.7489 940.369,-20.9213"/>
<polygon fill="green" stroke="green" stroke-width="0.15209" points="941.2,-24.3242 950.304,-18.9053 939.807,-17.464 941.2,-24.3242"/>
</g>
<!-- &#45;2&#45;&gt;3 -->
<g id="edge8" class="edge"><title>&#45;2&#45;&gt;3</title>
<path fill="none" stroke="green" stroke-width="0.166528" d="M574.288,-77.5232C578.051,-73.2746 583.155,-68.4463 588.796,-65.6985 691.695,-15.5758 735.582,-66.9837 843.796,-29.6985 844.671,-29.3968 845.551,-29.0622 846.429,-28.7013"/>
<polygon fill="green" stroke="green" stroke-width="0.166528" points="848.16,-31.7486 855.525,-24.1324 845.018,-25.4934 848.16,-31.7486"/>
</g>
<!-- &#45;3 -->
<g id="node3" class="node"><title>&#45;3</title>
<polygon fill="lightgray" stroke="black" points="621.796,-95.9117 597.796,-95.9117 597.796,-77.9117 621.796,-77.9117 621.796,-95.9117"/>
<text text-anchor="middle" x="609.796" y="-84.7117" font-family="Times New Roman,serif" font-size="9.00">&#45;3</text>
</g>
<!-- &#45;3&#45;&gt;0 -->
<g id="edge9" class="edge"><title>&#45;3&#45;&gt;0</title>
<path fill="none" stroke="red" stroke-width="0.889061" d="M616.425,-77.7839C620.228,-73.6117 625.326,-68.7732 630.796,-65.6985 684.643,-35.4301 757.473,-23.0029 795.064,-18.3485"/>
<polygon fill="red" stroke="red" stroke-width="0.889061" points="795.581,-21.8121 805.114,-17.1877 794.778,-14.8583 795.581,-21.8121"/>
</g>
<!-- &#45;3&#45;&gt;1 -->
<g id="edge10" class="edge"><title>&#45;3&#45;&gt;1</title>
<path fill="none" stroke="green" stroke-width="0.311206" d="M615.887,-77.8446C619.667,-73.4712 624.917,-68.4179 630.796,-65.6985 775.933,1.43914 831.863,-60.4315 988.796,-29.6985 996.512,-28.1873 1004.78,-25.9617 1012.2,-23.7347"/>
<polygon fill="green" stroke="green" stroke-width="0.311206" points="1013.49,-26.9992 1021.98,-20.6599 1011.39,-20.3218 1013.49,-26.9992"/>
</g>
<!-- &#45;3&#45;&gt;2 -->
<g id="edge11" class="edge"><title>&#45;3&#45;&gt;2</title>
<path fill="none" stroke="red" stroke-width="0.238155" d="M616.285,-77.516C620.047,-73.2653 625.15,-68.4373 630.796,-65.6985 736.15,-14.5869 776.236,-48.6175 891.796,-29.6985 908.027,-27.0412 926.198,-23.5955 940.35,-20.8059"/>
<polygon fill="red" stroke="red" stroke-width="0.238155" points="941.168,-24.2118 950.291,-18.8244 939.8,-17.3469 941.168,-24.2118"/>
</g>
<!-- &#45;3&#45;&gt;3 -->
<g id="edge12" class="edge"><title>&#45;3&#45;&gt;3</title>
<path fill="none" stroke="green" stroke-width="0.289754" d="M616.319,-77.5841C620.09,-73.3534 625.192,-68.5227 630.796,-65.6985 716.53,-22.4853 753.457,-62.2049 843.796,-29.6985 844.667,-29.3849 845.543,-29.0403 846.418,-28.6709"/>
<polygon fill="green" stroke="green" stroke-width="0.289754" points="848.166,-31.7086 855.5,-24.0623 844.999,-25.4663 848.166,-31.7086"/>
</g>
<!-- &#45;4 -->
<g id="node4" class="node"><title>&#45;4</title>
<polygon fill="lightgray" stroke="black" points="663.796,-95.9117 639.796,-95.9117 639.796,-77.9117 663.796,-77.9117 663.796,-95.9117"/>
<text text-anchor="middle" x="651.796" y="-84.7117" font-family="Times New Roman,serif" font-size="9.00">&#45;4</text>
</g>
<!-- &#45;4&#45;&gt;0 -->
<g id="edge13" class="edge"><title>&#45;4&#45;&gt;0</title>
<path fill="none" stroke="green" stroke-width="0.424851" stroke-dasharray="1,5" d="M658.887,-77.5313C662.67,-73.4936 667.608,-68.855 672.796,-65.6985 712.163,-41.7449 764.527,-27.55 794.96,-20.7644"/>
<polygon fill="green" stroke="green" stroke-width="0.424851" points="796.066,-24.107 805.115,-18.5953 794.604,-17.2614 796.066,-24.107"/>
</g>
<!-- &#45;4&#45;&gt;1 -->
<g id="edge14" class="edge"><title>&#45;4&#45;&gt;1</title>
<path fill="none" stroke="red" stroke-width="0.172095" d="M657.9,-77.8737C661.685,-73.5099 666.935,-68.4566 672.796,-65.6985 800.693,-5.50704 850.26,-57.7803 988.796,-29.6985 996.502,-28.1363 1004.77,-25.8966 1012.19,-23.6724"/>
<polygon fill="red" stroke="red" stroke-width="0.172095" points="1013.47,-26.9389 1021.97,-20.6105 1011.38,-20.2587 1013.47,-26.9389"/>
</g>
<!-- &#45;4&#45;&gt;2 -->
<g id="edge15" class="edge"><title>&#45;4&#45;&gt;2</title>
<path fill="none" stroke="green" stroke-width="0.256845" d="M658.314,-77.5741C662.084,-73.3404 667.186,-68.5101 672.796,-65.6985 760.979,-21.4999 794.666,-46.8926 891.796,-29.6985 907.991,-26.8316 926.162,-23.385 940.323,-20.6474"/>
<polygon fill="green" stroke="green" stroke-width="0.256845" points="941.124,-24.0574 950.272,-18.7134 939.788,-17.1861 941.124,-24.0574"/>
</g>
<!-- &#45;4&#45;&gt;3 -->
<g id="edge16" class="edge"><title>&#45;4&#45;&gt;3</title>
<path fill="none" stroke="green" stroke-width="0.459211" d="M658.365,-77.6732C662.15,-73.4686 667.25,-68.6344 672.796,-65.6985 741.436,-29.3593 771.258,-57.4529 843.796,-29.6985 844.661,-29.3676 845.531,-29.0081 846.402,-28.6262"/>
<polygon fill="green" stroke="green" stroke-width="0.459211" points="848.175,-31.65 855.462,-23.9596 844.969,-25.427 848.175,-31.65"/>
</g>
<!-- &#45;5 -->
<g id="node5" class="node"><title>&#45;5</title>
<polygon fill="lightgray" stroke="black" points="705.796,-95.9117 681.796,-95.9117 681.796,-77.9117 705.796,-77.9117 705.796,-95.9117"/>
<text text-anchor="middle" x="693.796" y="-84.7117" font-family="Times New Roman,serif" font-size="9.00">&#45;5</text>
</g>
<!-- &#45;5&#45;&gt;0 -->
<g id="edge17" class="edge"><title>&#45;5&#45;&gt;0</title>
<path fill="none" stroke="red" stroke-width="0.342663" d="M701.049,-77.7821C704.874,-73.8083 709.8,-69.1511 714.796,-65.6985 740.877,-47.6716 774.495,-32.9954 796.575,-24.3472"/>
<polygon fill="red" stroke="red" stroke-width="0.342663" points="798.027,-27.5392 806.121,-20.7025 795.53,-20.9996 798.027,-27.5392"/>
</g>
<!-- &#45;5&#45;&gt;1 -->
<g id="edge18" class="edge"><title>&#45;5&#45;&gt;1</title>
<path fill="none" stroke="red" stroke-width="0.339302" d="M699.918,-77.9114C703.709,-73.5602 708.959,-68.5069 714.796,-65.6985 825.474,-12.4429 868.634,-55.1338 988.796,-29.6985 996.489,-28.0701 1004.75,-25.812 1012.18,-23.5912"/>
<polygon fill="red" stroke="red" stroke-width="0.339302" points="1013.45,-26.8604 1021.96,-20.5463 1011.37,-20.1768 1013.45,-26.8604"/>
</g>
<!-- &#45;5&#45;&gt;2 -->
<g id="edge19" class="edge"><title>&#45;5&#45;&gt;2</title>
<path fill="none" stroke="red" stroke-width="0.404613" d="M700.352,-77.6496C704.134,-73.438 709.235,-68.6047 714.796,-65.6985 719.837,-63.0638 878.113,-32.4925 940.175,-20.5695"/>
<polygon fill="red" stroke="red" stroke-width="0.404613" points="941.098,-23.9562 950.259,-18.6336 939.779,-17.0818 941.098,-23.9562"/>
</g>
<!-- &#45;5&#45;&gt;3 -->
<g id="edge20" class="edge"><title>&#45;5&#45;&gt;3</title>
<path fill="none" stroke="green" stroke-width="0.39153" d="M700.443,-77.8149C704.251,-73.6518 709.348,-68.8121 714.796,-65.6985 766.475,-36.1621 788.919,-52.7554 843.796,-29.6985 844.65,-29.3398 845.511,-28.9567 846.373,-28.555"/>
<polygon fill="green" stroke="green" stroke-width="0.39153" points="848.184,-31.5567 855.396,-23.7955 844.918,-25.3652 848.184,-31.5567"/>
</g>
<!-- &#45;6 -->
<g id="node6" class="node"><title>&#45;6</title>
<polygon fill="lightgray" stroke="black" points="747.796,-95.9117 723.796,-95.9117 723.796,-77.9117 747.796,-77.9117 747.796,-95.9117"/>
<text text-anchor="middle" x="735.796" y="-84.7117" font-family="Times New Roman,serif" font-size="9.00">&#45;6</text>
</g>
<!-- &#45;6&#45;&gt;0 -->
<g id="edge21" class="edge"><title>&#45;6&#45;&gt;0</title>
<path fill="none" stroke="red" stroke-width="0.60076" d="M743.801,-77.8522C747.648,-74.0717 752.374,-69.5596 756.796,-65.6985 770.965,-53.325 787.691,-40.1526 800.347,-30.4577"/>
<polygon fill="red" stroke="red" stroke-width="0.60076" points="802.534,-33.1918 808.377,-24.354 798.298,-27.619 802.534,-33.1918"/>
</g>
<!-- &#45;6&#45;&gt;1 -->
<g id="edge22" class="edge"><title>&#45;6&#45;&gt;1</title>
<path fill="none" stroke="red" stroke-width="0.230837" d="M742.303,-77.5539C746.071,-73.3144 751.174,-68.4849 756.796,-65.6985 850.289,-19.3628 886.971,-52.4951 988.796,-29.6985 996.469,-27.9806 1004.73,-25.6976 1012.15,-23.4816"/>
<polygon fill="red" stroke="red" stroke-width="0.230837" points="1013.42,-26.7543 1021.94,-20.4594 1011.35,-20.0659 1013.42,-26.7543"/>
</g>
<!-- &#45;6&#45;&gt;2 -->
<g id="edge23" class="edge"><title>&#45;6&#45;&gt;2</title>
<path fill="none" stroke="green" stroke-width="0.372657" d="M742.397,-77.7343C746.192,-73.5475 751.291,-68.711 756.796,-65.6985 772.952,-56.8564 888.983,-31.7815 940.389,-20.9434"/>
<polygon fill="green" stroke="green" stroke-width="0.372657" points="941.252,-24.3387 950.319,-18.8577 939.813,-17.4881 941.252,-24.3387"/>
</g>
<!-- &#45;6&#45;&gt;3 -->
<g id="edge24" class="edge"><title>&#45;6&#45;&gt;3</title>
<path fill="none" stroke="green" stroke-width="0.293331" d="M742.976,-77.6735C746.782,-73.672 751.714,-69.0229 756.796,-65.6985 791.814,-42.7894 806.26,-48.1957 843.796,-29.6985 844.626,-29.2891 845.468,-28.8631 846.314,-28.4251"/>
<polygon fill="green" stroke="green" stroke-width="0.293331" points="848.19,-31.3874 855.26,-23.4965 844.812,-25.2563 848.19,-31.3874"/>
</g>
<!-- &#45;7 -->
<g id="node7" class="node"><title>&#45;7</title>
<polygon fill="lightgray" stroke="black" points="789.796,-95.9117 765.796,-95.9117 765.796,-77.9117 789.796,-77.9117 789.796,-95.9117"/>
<text text-anchor="middle" x="777.796" y="-84.7117" font-family="Times New Roman,serif" font-size="9.00">&#45;7</text>
</g>
<!-- &#45;7&#45;&gt;0 -->
<g id="edge25" class="edge"><title>&#45;7&#45;&gt;0</title>
<path fill="none" stroke="red" stroke-width="0.216094" d="M782.614,-77.8746C788.566,-67.9452 798.919,-50.6741 807.192,-36.8744"/>
<polygon fill="red" stroke="red" stroke-width="0.216094" points="810.367,-38.3847 812.507,-28.0082 804.363,-34.7856 810.367,-38.3847"/>
</g>
<!-- &#45;7&#45;&gt;1 -->
<g id="edge26" class="edge"><title>&#45;7&#45;&gt;1</title>
<path fill="none" stroke="red" stroke-width="0.485972" d="M784.341,-77.6283C788.12,-73.4105 793.221,-68.5781 798.796,-65.6985 875.158,-26.2556 905.249,-49.8698 988.796,-29.6985 996.439,-27.853 1004.69,-25.5346 1012.11,-23.3254"/>
<polygon fill="red" stroke="red" stroke-width="0.485972" points="1013.37,-26.6028 1021.91,-20.3357 1011.32,-19.9078 1013.37,-26.6028"/>
</g>
<!-- &#45;7&#45;&gt;2 -->
<g id="edge27" class="edge"><title>&#45;7&#45;&gt;2</title>
<path fill="none" stroke="red" stroke-width="0.626778" d="M784.467,-77.8574C788.282,-73.7067 793.379,-68.8653 798.796,-65.6985 844.739,-38.8398 906.431,-25.2999 940.183,-19.4953"/>
<polygon fill="red" stroke="red" stroke-width="0.626778" points="940.8,-22.9411 950.105,-17.8754 939.672,-16.0326 940.8,-22.9411"/>
</g>
<!-- &#45;7&#45;&gt;3 -->
<g id="edge28" class="edge"><title>&#45;7&#45;&gt;3</title>
<path fill="none" stroke="green" stroke-width="0.427643" d="M785.726,-77.7646C789.557,-73.965 794.291,-69.4619 798.796,-65.6985 814.426,-52.6409 833.223,-39.1957 847.249,-29.5642"/>
<polygon fill="green" stroke="green" stroke-width="0.427643" points="849.389,-32.3416 855.695,-23.828 845.456,-26.5508 849.389,-32.3416"/>
</g>
<!-- &#45;8 -->
<g id="node8" class="node"><title>&#45;8</title>
<polygon fill="lightgray" stroke="black" points="831.796,-95.9117 807.796,-95.9117 807.796,-77.9117 831.796,-77.9117 831.796,-95.9117"/>
<text text-anchor="middle" x="819.796" y="-84.7117" font-family="Times New Roman,serif" font-size="9.00">&#45;8</text>
</g>
<!-- &#45;8&#45;&gt;0 -->
<g id="edge29" class="edge"><title>&#45;8&#45;&gt;0</title>
<path fill="none" stroke="green" stroke-width="0.105293" d="M819.796,-77.8746C819.796,-68.7202 819.796,-53.3256 819.796,-40.1641"/>
<polygon fill="green" stroke="green" stroke-width="0.105293" points="823.296,-39.8196 819.796,-29.8197 816.296,-39.8197 823.296,-39.8196"/>
</g>
<!-- &#45;8&#45;&gt;1 -->
<g id="edge30" class="edge"><title>&#45;8&#45;&gt;1</title>
<path fill="none" stroke="green" stroke-width="0.265152" d="M826.402,-77.7417C830.198,-73.5572 835.297,-68.7203 840.796,-65.6985 900.124,-33.0974 923.42,-47.2706 988.796,-29.6985 996.39,-27.6574 1004.63,-25.2846 1012.05,-23.0858"/>
<polygon fill="green" stroke="green" stroke-width="0.265152" points="1013.29,-26.3701 1021.86,-20.146 1011.28,-19.6649 1013.29,-26.3701"/>
</g>
<!-- &#45;8&#45;&gt;2 -->
<g id="edge31" class="edge"><title>&#45;8&#45;&gt;2</title>
<path fill="none" stroke="red" stroke-width="0.249661" d="M826.962,-77.6517C830.765,-73.6447 835.697,-68.9972 840.796,-65.6985 872.813,-44.9831 914.829,-30.3199 940.809,-22.4762"/>
<polygon fill="red" stroke="red" stroke-width="0.249661" points="941.95,-25.7894 950.566,-19.6245 939.986,-19.0705 941.95,-25.7894"/>
</g>
<!-- &#45;8&#45;&gt;3 -->
<g id="edge32" class="edge"><title>&#45;8&#45;&gt;3</title>
<path fill="none" stroke="green" stroke-width="0.380134" d="M825.302,-77.8746C832.251,-67.7318 844.448,-49.9283 853.998,-35.9895"/>
<polygon fill="green" stroke="green" stroke-width="0.380134" points="857.044,-37.7349 859.809,-27.5071 851.27,-33.7786 857.044,-37.7349"/>
</g>
<!-- &#45;9 -->
<g id="node9" class="node"><title>&#45;9</title>
<polygon fill="lightgray" stroke="black" points="873.796,-95.9117 849.796,-95.9117 849.796,-77.9117 873.796,-77.9117 873.796,-95.9117"/>
<text text-anchor="middle" x="861.796" y="-84.7117" font-family="Times New Roman,serif" font-size="9.00">&#45;9</text>
</g>
<!-- &#45;9&#45;&gt;0 -->
<g id="edge33" class="edge"><title>&#45;9&#45;&gt;0</title>
<path fill="none" stroke="red" stroke-width="0.457729" stroke-dasharray="1,5" d="M856.978,-77.8746C851.025,-67.9452 840.672,-50.6741 832.4,-36.8744"/>
<polygon fill="red" stroke="red" stroke-width="0.457729" points="835.228,-34.7856 827.085,-28.0082 829.224,-38.3847 835.228,-34.7856"/>
</g>
<!-- &#45;9&#45;&gt;1 -->
<g id="edge34" class="edge"><title>&#45;9&#45;&gt;1</title>
<path fill="none" stroke="red" stroke-width="0.61282" d="M868.497,-77.9074C872.321,-73.7713 877.416,-68.928 882.796,-65.6985 894.092,-58.9174 971.819,-35.062 1011.94,-22.978"/>
<polygon fill="red" stroke="red" stroke-width="0.61282" points="1013.15,-26.2692 1021.72,-20.041 1011.14,-19.565 1013.15,-26.2692"/>
</g>
<!-- &#45;9&#45;&gt;2 -->
<g id="edge35" class="edge"><title>&#45;9&#45;&gt;2</title>
<path fill="none" stroke="red" stroke-width="0.242206" d="M869.595,-77.6015C873.397,-73.7661 878.145,-69.2801 882.796,-65.6985 901.995,-50.9125 925.849,-36.836 942.87,-27.4361"/>
<polygon fill="red" stroke="red" stroke-width="0.242206" points="944.896,-30.3187 952.015,-22.472 941.557,-24.1665 944.896,-30.3187"/>
</g>
<!-- &#45;9&#45;&gt;3 -->
<g id="edge36" class="edge"><title>&#45;9&#45;&gt;3</title>
<path fill="none" stroke="red" stroke-width="0.100647" d="M862.484,-77.8746C863.268,-68.7202 864.586,-53.3256 865.713,-40.1641"/>
<polygon fill="red" stroke="red" stroke-width="0.100647" points="869.233,-40.0819 866.599,-29.8197 862.259,-39.4845 869.233,-40.0819"/>
</g>
<!-- &#45;10 -->
<g id="node10" class="node"><title>&#45;10</title>
<polygon fill="lightgray" stroke="black" points="921.296,-95.9117 892.296,-95.9117 892.296,-77.9117 921.296,-77.9117 921.296,-95.9117"/>
<text text-anchor="middle" x="906.796" y="-84.7117" font-family="Times New Roman,serif" font-size="9.00">&#45;10</text>
</g>
<!-- &#45;10&#45;&gt;0 -->
<g id="edge37" class="edge"><title>&#45;10&#45;&gt;0</title>
<path fill="none" stroke="green" stroke-width="0.157144" d="M897.044,-77.5826C892.706,-73.9083 887.522,-69.557 882.796,-65.6985 868.224,-53.8018 851.519,-40.6038 838.974,-30.7779"/>
<polygon fill="green" stroke="green" stroke-width="0.157144" points="841.065,-27.9704 831.031,-24.5716 836.756,-33.4864 841.065,-27.9704"/>
</g>
<!-- &#45;10&#45;&gt;1 -->
<g id="edge38" class="edge"><title>&#45;10&#45;&gt;1</title>
<path fill="none" stroke="red" stroke-width="0.302764" d="M914.856,-77.8201C919.074,-73.8559 924.461,-69.196 929.796,-65.6985 956.517,-48.1804 990.366,-33.3884 1012.53,-24.5749"/>
<polygon fill="red" stroke="red" stroke-width="0.302764" points="1014.05,-27.7374 1022.1,-20.8502 1011.52,-21.2135 1014.05,-27.7374"/>
</g>
<!-- &#45;10&#45;&gt;2 -->
<g id="edge39" class="edge"><title>&#45;10&#45;&gt;2</title>
<path fill="none" stroke="green" stroke-width="0.262082" d="M913.449,-77.8746C922.024,-67.5161 937.214,-49.1677 948.855,-35.1057"/>
<polygon fill="green" stroke="green" stroke-width="0.262082" points="951.873,-36.9487 955.553,-27.0138 946.48,-32.4849 951.873,-36.9487"/>
</g>
<!-- &#45;10&#45;&gt;3 -->
<g id="edge40" class="edge"><title>&#45;10&#45;&gt;3</title>
<path fill="none" stroke="red" stroke-width="0.195131" d="M902.322,-77.8746C896.827,-68.0036 887.294,-50.8771 879.635,-37.1182"/>
<polygon fill="red" stroke="red" stroke-width="0.195131" points="882.627,-35.2967 874.705,-28.2615 876.511,-38.7014 882.627,-35.2967"/>
</g>
<!-- &#45;11 -->
<g id="node11" class="node"><title>&#45;11</title>
<polygon fill="lightgray" stroke="black" points="968.296,-95.9117 939.296,-95.9117 939.296,-77.9117 968.296,-77.9117 968.296,-95.9117"/>
<text text-anchor="middle" x="953.796" y="-84.7117" font-family="Times New Roman,serif" font-size="9.00">&#45;11</text>
</g>
<!-- &#45;11&#45;&gt;0 -->
<g id="edge41" class="edge"><title>&#45;11&#45;&gt;0</title>
<path fill="none" stroke="green" stroke-width="0.146214" d="M945.396,-77.7433C940.997,-73.7596 935.375,-69.1053 929.796,-65.6985 894.432,-44.1041 880.926,-48.0905 843.796,-29.6985 842.966,-29.2874 842.125,-28.8599 841.28,-28.4207"/>
<polygon fill="green" stroke="green" stroke-width="0.146214" points="842.783,-25.2527 832.337,-23.4864 839.402,-31.3818 842.783,-25.2527"/>
</g>
<!-- &#45;11&#45;&gt;1 -->
<g id="edge42" class="edge"><title>&#45;11&#45;&gt;1</title>
<path fill="none" stroke="red" stroke-width="0.206301" d="M963.16,-77.6092C967.319,-73.9399 972.285,-69.5851 976.796,-65.6985 990.202,-54.1463 1005.46,-41.2574 1017.11,-31.4799"/>
<polygon fill="red" stroke="red" stroke-width="0.206301" points="1019.45,-34.0807 1024.87,-24.9738 1014.96,-28.7166 1019.45,-34.0807"/>
</g>
<!-- &#45;11&#45;&gt;2 -->
<g id="edge43" class="edge"><title>&#45;11&#45;&gt;2</title>
<path fill="none" stroke="red" stroke-width="0.255338" stroke-dasharray="1,5" d="M955.058,-77.8746C956.518,-68.572 958.99,-52.8252 961.078,-39.5264"/>
<polygon fill="red" stroke="red" stroke-width="0.255338" points="964.55,-39.9774 962.644,-29.5556 957.635,-38.8917 964.55,-39.9774"/>
</g>
<!-- &#45;11&#45;&gt;3 -->
<g id="edge44" class="edge"><title>&#45;11&#45;&gt;3</title>
<path fill="none" stroke="green" stroke-width="0.147702" d="M944.029,-77.6001C939.69,-73.929 934.507,-69.5754 929.796,-65.6985 915.722,-54.1164 899.682,-41.2284 887.443,-31.4588"/>
<polygon fill="green" stroke="green" stroke-width="0.147702" points="889.288,-28.4535 879.286,-24.9594 884.926,-33.9282 889.288,-28.4535"/>
</g>
<!-- &#45;12 -->
<g id="node12" class="node"><title>&#45;12</title>
<polygon fill="lightgray" stroke="black" points="1806.3,-95.9117 1777.3,-95.9117 1777.3,-77.9117 1806.3,-77.9117 1806.3,-95.9117"/>
<text text-anchor="middle" x="1791.8" y="-84.7117" font-family="Times New Roman,serif" font-size="9.00">&#45;12</text>
</g>
<!-- &#45;12&#45;&gt;1 -->
<g id="edge45" class="edge"><title>&#45;12&#45;&gt;1</title>
<path fill="none" stroke="green" stroke-width="0.145531" d="M1782.85,-77.762C1777.46,-73.361 1770.21,-68.3077 1762.8,-65.6985 1629.12,-18.6261 1172.61,-15.7656 1060.71,-15.7851"/>
<polygon fill="green" stroke="green" stroke-width="0.145531" points="1060.7,-12.285 1050.7,-15.7951 1060.71,-19.285 1060.7,-12.285"/>
</g>
<!-- &#45;12&#45;&gt;2 -->
<g id="edge46" class="edge"><title>&#45;12&#45;&gt;2</title>
<path fill="none" stroke="red" stroke-width="0.40383" d="M1782.87,-77.7048C1777.48,-73.2847 1770.23,-68.2314 1762.8,-65.6985 1604.64,-11.8249 1176.55,-57.5088 1011.8,-29.6985 1004.04,-28.3897 995.76,-26.2203 988.342,-23.9826"/>
<polygon fill="red" stroke="red" stroke-width="0.40383" points="989.167,-20.5717 978.576,-20.8562 987.033,-27.2385 989.167,-20.5717"/>
</g>
<!-- &#45;12&#45;&gt;3 -->
<g id="edge47" class="edge"><title>&#45;12&#45;&gt;3</title>
<path fill="none" stroke="red" stroke-width="0.239098" d="M1776.8,-79.7595C1764.43,-74.9906 1746.28,-68.7044 1729.8,-65.6985 1384.46,-2.72406 1289.45,-70.5157 940.796,-29.6985 924.46,-27.7861 906.289,-24.3433 892.162,-21.3689"/>
<polygon fill="red" stroke="red" stroke-width="0.239098" points="892.76,-17.9172 882.245,-19.2188 891.276,-24.7583 892.76,-17.9172"/>
</g>
<!-- &#45;13 -->
<g id="node13" class="node"><title>&#45;13</title>
<polygon fill="lightgray" stroke="black" points="1015.3,-95.9117 986.296,-95.9117 986.296,-77.9117 1015.3,-77.9117 1015.3,-95.9117"/>
<text text-anchor="middle" x="1000.8" y="-84.7117" font-family="Times New Roman,serif" font-size="9.00">&#45;13</text>
</g>
<!-- &#45;13&#45;&gt;0 -->
<g id="edge48" class="edge"><title>&#45;13&#45;&gt;0</title>
<path fill="none" stroke="red" stroke-width="0.200034" d="M993.007,-77.8297C988.599,-73.6709 982.781,-68.8307 976.796,-65.6985 922.539,-37.3032 900.345,-53.1989 843.796,-29.6985 842.941,-29.3431 842.078,-28.9629 841.215,-28.5635"/>
<polygon fill="red" stroke="red" stroke-width="0.200034" points="842.667,-25.3725 832.187,-23.8152 839.408,-31.5679 842.667,-25.3725"/>
</g>
<!-- &#45;13&#45;&gt;1 -->
<g id="edge49" class="edge"><title>&#45;13&#45;&gt;1</title>
<path fill="none" stroke="red" stroke-width="0.28449" d="M1004.81,-77.8746C1009.67,-68.1564 1018.03,-51.4054 1024.85,-37.7594"/>
<polygon fill="red" stroke="red" stroke-width="0.28449" points="1028.13,-39.0268 1029.47,-28.5167 1021.87,-35.8985 1028.13,-39.0268"/>
</g>
<!-- &#45;13&#45;&gt;2 -->
<g id="edge50" class="edge"><title>&#45;13&#45;&gt;2</title>
<path fill="none" stroke="green" stroke-width="0.358049" d="M996.666,-77.8746C991.643,-68.0985 982.963,-51.2057 975.929,-37.5161"/>
<polygon fill="green" stroke="green" stroke-width="0.358049" points="978.857,-35.5565 971.174,-28.2615 972.631,-38.7557 978.857,-35.5565"/>
</g>
<!-- &#45;13&#45;&gt;3 -->
<g id="edge51" class="edge"><title>&#45;13&#45;&gt;3</title>
<path fill="none" stroke="red" stroke-width="0.391115" d="M992.348,-77.8197C987.937,-73.8554 982.319,-69.1955 976.796,-65.6985 948.896,-48.0332 913.7,-33.1134 890.975,-24.3236"/>
<polygon fill="red" stroke="red" stroke-width="0.391115" points="892.074,-20.9972 881.482,-20.7286 889.594,-27.5435 892.074,-20.9972"/>
</g>
<!-- &#45;14 -->
<g id="node14" class="node"><title>&#45;14</title>
<polygon fill="lightgray" stroke="black" points="1062.3,-95.9117 1033.3,-95.9117 1033.3,-77.9117 1062.3,-77.9117 1062.3,-95.9117"/>
<text text-anchor="middle" x="1047.8" y="-84.7117" font-family="Times New Roman,serif" font-size="9.00">&#45;14</text>
</g>
<!-- &#45;14&#45;&gt;0 -->
<g id="edge52" class="edge"><title>&#45;14&#45;&gt;0</title>
<path fill="none" stroke="green" stroke-width="0.238006" d="M1040.09,-77.6686C1035.7,-73.4626 1029.88,-68.6286 1023.8,-65.6985 950.287,-30.3094 920.139,-58.4679 843.796,-29.6985 842.929,-29.3719 842.057,-29.0162 841.186,-28.6375"/>
<polygon fill="green" stroke="green" stroke-width="0.238006" points="842.615,-25.4368 832.12,-23.9854 839.419,-31.6648 842.615,-25.4368"/>
</g>
<!-- &#45;14&#45;&gt;1 -->
<g id="edge53" class="edge"><title>&#45;14&#45;&gt;1</title>
<path fill="none" stroke="green" stroke-width="0.451296" d="M1046.42,-77.8746C1044.83,-68.572 1042.13,-52.8252 1039.85,-39.5264"/>
<polygon fill="green" stroke="green" stroke-width="0.451296" points="1043.28,-38.8212 1038.14,-29.5556 1036.38,-40.0029 1043.28,-38.8212"/>
</g>
<!-- &#45;14&#45;&gt;2 -->
<g id="edge54" class="edge"><title>&#45;14&#45;&gt;2</title>
<path fill="none" stroke="red" stroke-width="0.30891" d="M1038.27,-77.8746C1024.95,-66.631 1000.48,-45.9737 983.458,-31.6025"/>
<polygon fill="red" stroke="red" stroke-width="0.30891" points="985.679,-28.8972 975.78,-25.1214 981.164,-34.2463 985.679,-28.8972"/>
</g>
<!-- &#45;14&#45;&gt;3 -->
<g id="edge55" class="edge"><title>&#45;14&#45;&gt;3</title>
<path fill="none" stroke="red" stroke-width="0.125878" d="M1039.52,-77.5348C1035.15,-73.4979 1029.52,-68.859 1023.8,-65.6985 980.604,-41.8429 924.284,-27.4229 892.482,-20.6082"/>
<polygon fill="red" stroke="red" stroke-width="0.125878" points="892.819,-17.104 882.318,-18.512 891.405,-23.9598 892.819,-17.104"/>
</g>
<!-- &#45;15 -->
<g id="node15" class="node"><title>&#45;15</title>
<polygon fill="lightgray" stroke="black" points="1109.3,-95.9117 1080.3,-95.9117 1080.3,-77.9117 1109.3,-77.9117 1109.3,-95.9117"/>
<text text-anchor="middle" x="1094.8" y="-84.7117" font-family="Times New Roman,serif" font-size="9.00">&#45;15</text>
</g>
<!-- &#45;15&#45;&gt;0 -->
<g id="edge56" class="edge"><title>&#45;15&#45;&gt;0</title>
<path fill="none" stroke="green" stroke-width="0.256148" d="M1087.52,-77.5652C1083.35,-73.3289 1077.76,-68.499 1071.8,-65.6985 978.926,-22.1133 940.512,-63.9094 843.796,-29.6985 842.923,-29.3897 842.045,-29.049 841.169,-28.683"/>
<polygon fill="green" stroke="green" stroke-width="0.256148" points="842.585,-25.477 832.081,-24.0902 839.428,-31.7245 842.585,-25.477"/>
</g>
<!-- &#45;15&#45;&gt;1 -->
<g id="edge57" class="edge"><title>&#45;15&#45;&gt;1</title>
<path fill="none" stroke="green" stroke-width="0.262112" d="M1088.03,-77.8746C1079.22,-67.4184 1063.56,-48.8208 1051.68,-34.7089"/>
<polygon fill="green" stroke="green" stroke-width="0.262112" points="1054.32,-32.4084 1045.2,-27.0138 1048.96,-36.9174 1054.32,-32.4084"/>
</g>
<!-- &#45;15&#45;&gt;2 -->
<g id="edge58" class="edge"><title>&#45;15&#45;&gt;2</title>
<path fill="none" stroke="red" stroke-width="0.257378" d="M1086.74,-77.8119C1082.52,-73.8457 1077.14,-69.1863 1071.8,-65.6985 1044.71,-48.0139 1010.36,-33.1876 987.986,-24.4171"/>
<polygon fill="red" stroke="red" stroke-width="0.257378" points="989.211,-21.1385 978.621,-20.825 986.704,-27.6742 989.211,-21.1385"/>
</g>
<!-- &#45;15&#45;&gt;3 -->
<g id="edge59" class="edge"><title>&#45;15&#45;&gt;3</title>
<path fill="none" stroke="green" stroke-width="0.18951" d="M1087.42,-77.7609C1083.22,-73.5819 1077.64,-68.7444 1071.8,-65.6985 1040.45,-49.366 939.559,-29.1774 892.453,-20.3433"/>
<polygon fill="green" stroke="green" stroke-width="0.18951" points="892.954,-16.8765 882.483,-18.4928 891.676,-23.759 892.954,-16.8765"/>
</g>
<!-- &#45;16 -->
<g id="node16" class="node"><title>&#45;16</title>
<polygon fill="lightgray" stroke="black" points="1156.3,-95.9117 1127.3,-95.9117 1127.3,-77.9117 1156.3,-77.9117 1156.3,-95.9117"/>
<text text-anchor="middle" x="1141.8" y="-84.7117" font-family="Times New Roman,serif" font-size="9.00">&#45;16</text>
</g>
<!-- &#45;16&#45;&gt;0 -->
<g id="edge60" class="edge"><title>&#45;16&#45;&gt;0</title>
<path fill="none" stroke="green" stroke-width="0.138287" d="M1134.55,-77.5021C1130.38,-73.2474 1124.8,-68.4199 1118.8,-65.6985 1006.53,-14.8082 960.538,-69.265 843.796,-29.6985 842.919,-29.4012 842.038,-29.0704 841.159,-28.7127"/>
<polygon fill="green" stroke="green" stroke-width="0.138287" points="842.567,-25.5035 832.058,-24.1585 839.434,-31.7635 842.567,-25.5035"/>
</g>
<!-- &#45;16&#45;&gt;1 -->
<g id="edge61" class="edge"><title>&#45;16&#45;&gt;1</title>
<path fill="none" stroke="green" stroke-width="0.625461" d="M1133.15,-77.6517C1128.96,-73.8273 1123.78,-69.3361 1118.8,-65.6985 1099.05,-51.2762 1074.95,-37.1501 1057.82,-27.6396"/>
<polygon fill="green" stroke="green" stroke-width="0.625461" points="1059.07,-24.3364 1048.62,-22.6059 1055.71,-30.477 1059.07,-24.3364"/>
</g>
<!-- &#45;16&#45;&gt;2 -->
<g id="edge62" class="edge"><title>&#45;16&#45;&gt;2</title>
<path fill="none" stroke="green" stroke-width="0.358628" d="M1133.91,-77.5286C1129.74,-73.4901 1124.34,-68.8517 1118.8,-65.6985 1107.27,-59.1476 1029.11,-35.1831 988.777,-23.0258"/>
<polygon fill="green" stroke="green" stroke-width="0.358628" points="989.529,-19.5972 978.944,-20.0703 987.514,-26.3009 989.529,-19.5972"/>
</g>
<!-- &#45;16&#45;&gt;3 -->
<g id="edge63" class="edge"><title>&#45;16&#45;&gt;3</title>
<path fill="none" stroke="red" stroke-width="0.531273" d="M1134.47,-77.6587C1130.29,-73.4498 1124.71,-68.6162 1118.8,-65.6985 1113.68,-63.1709 954.802,-32.5347 892.508,-20.5819"/>
<polygon fill="red" stroke="red" stroke-width="0.531273" points="892.867,-17.087 882.386,-18.6411 891.548,-23.9617 892.867,-17.087"/>
</g>
<!-- &#45;17 -->
<g id="node17" class="node"><title>&#45;17</title>
<polygon fill="lightgray" stroke="black" points="1203.3,-95.9117 1174.3,-95.9117 1174.3,-77.9117 1203.3,-77.9117 1203.3,-95.9117"/>
<text text-anchor="middle" x="1188.8" y="-84.7117" font-family="Times New Roman,serif" font-size="9.00">&#45;17</text>
</g>
<!-- &#45;17&#45;&gt;0 -->
<g id="edge64" class="edge"><title>&#45;17&#45;&gt;0</title>
<path fill="none" stroke="red" stroke-width="0.219249" d="M1181.96,-77.8681C1177.77,-73.5025 1172.02,-68.4492 1165.8,-65.6985 1034.08,-7.4841 980.608,-74.6355 843.796,-29.6985 842.916,-29.4095 842.033,-29.0857 841.152,-28.7339"/>
<polygon fill="red" stroke="red" stroke-width="0.219249" points="842.554,-25.5226 832.041,-24.2073 839.439,-31.7914 842.554,-25.5226"/>
</g>
<!-- &#45;17&#45;&gt;1 -->
<g id="edge65" class="edge"><title>&#45;17&#45;&gt;1</title>
<path fill="none" stroke="green" stroke-width="0.440466" d="M1180.84,-77.6523C1176.65,-73.6454 1171.26,-68.9978 1165.8,-65.6985 1131.46,-44.9495 1087,-30.152 1059.98,-22.3102"/>
<polygon fill="green" stroke="green" stroke-width="0.440466" points="1060.78,-18.8992 1050.21,-19.5574 1058.88,-25.6371 1060.78,-18.8992"/>
</g>
<!-- &#45;17&#45;&gt;2 -->
<g id="edge66" class="edge"><title>&#45;17&#45;&gt;2</title>
<path fill="none" stroke="green" stroke-width="0.344042" d="M1181.43,-77.7375C1177.24,-73.5517 1171.66,-68.715 1165.8,-65.6985 1103.3,-33.5323 1079.76,-47.6394 1011.8,-29.6985 1004.19,-27.6914 995.953,-25.3281 988.527,-23.1275"/>
<polygon fill="green" stroke="green" stroke-width="0.344042" points="989.306,-19.7072 978.722,-20.179 987.29,-26.4107 989.306,-19.7072"/>
</g>
<!-- &#45;17&#45;&gt;3 -->
<g id="edge67" class="edge"><title>&#45;17&#45;&gt;3</title>
<path fill="none" stroke="green" stroke-width="0.207374" d="M1181.51,-77.5701C1177.34,-73.3353 1171.76,-68.5051 1165.8,-65.6985 1074.16,-22.5787 1040.55,-47.1384 940.796,-29.6985 924.594,-26.8662 906.423,-23.4198 892.263,-20.6736"/>
<polygon fill="green" stroke="green" stroke-width="0.207374" points="892.802,-17.2126 882.316,-18.7318 891.46,-24.0829 892.802,-17.2126"/>
</g>
<!-- &#45;18 -->
<g id="node18" class="node"><title>&#45;18</title>
<polygon fill="lightgray" stroke="black" points="1250.3,-95.9117 1221.3,-95.9117 1221.3,-77.9117 1250.3,-77.9117 1250.3,-95.9117"/>
<text text-anchor="middle" x="1235.8" y="-84.7117" font-family="Times New Roman,serif" font-size="9.00">&#45;18</text>
</g>
<!-- &#45;18&#45;&gt;0 -->
<g id="edge68" class="edge"><title>&#45;18&#45;&gt;0</title>
<path fill="none" stroke="green" stroke-width="0.300068" d="M1228.98,-77.8352C1224.79,-73.4586 1219.04,-68.4053 1212.8,-65.6985 1061.62,-0.148358 1000.7,-80.0149 843.796,-29.6985 842.742,-29.3606 841.684,-28.9717 840.631,-28.5436"/>
<polygon fill="green" stroke="green" stroke-width="0.300068" points="842.041,-25.3345 831.536,-23.9543 838.887,-31.584 842.041,-25.3345"/>
</g>
<!-- &#45;18&#45;&gt;1 -->
<g id="edge69" class="edge"><title>&#45;18&#45;&gt;1</title>
<path fill="none" stroke="red" stroke-width="0.17821" d="M1228.38,-77.8418C1224.16,-73.6865 1218.59,-68.8458 1212.8,-65.6985 1162.46,-38.3474 1095.73,-24.8477 1060.31,-19.2193"/>
<polygon fill="red" stroke="red" stroke-width="0.17821" points="1060.79,-15.7519 1050.38,-17.7186 1059.75,-22.6734 1060.79,-15.7519"/>
</g>
<!-- &#45;18&#45;&gt;2 -->
<g id="edge70" class="edge"><title>&#45;18&#45;&gt;2</title>
<path fill="none" stroke="red" stroke-width="0.440083" d="M1228.49,-77.6142C1224.32,-73.3922 1218.73,-68.5604 1212.8,-65.6985 1131.04,-26.2959 1100.12,-50.5555 1011.8,-29.6985 1004.14,-27.8914 995.889,-25.5836 988.465,-23.3724"/>
<polygon fill="red" stroke="red" stroke-width="0.440083" points="989.26,-19.9554 978.674,-20.3729 987.21,-26.6484 989.26,-19.9554"/>
</g>
<!-- &#45;18&#45;&gt;3 -->
<g id="edge71" class="edge"><title>&#45;18&#45;&gt;3</title>
<path fill="none" stroke="red" stroke-width="0.230718" d="M1228.54,-77.5055C1224.38,-73.2518 1218.8,-68.4242 1212.8,-65.6985 1101.77,-15.2752 1061.19,-49.0706 940.796,-29.6985 924.558,-27.0857 906.386,-23.6402 892.236,-20.8395"/>
<polygon fill="red" stroke="red" stroke-width="0.230718" points="892.789,-17.381 882.297,-18.848 891.414,-24.2445 892.789,-17.381"/>
</g>
<!-- &#45;19 -->
<g id="node19" class="node"><title>&#45;19</title>
<polygon fill="lightgray" stroke="black" points="1297.3,-95.9117 1268.3,-95.9117 1268.3,-77.9117 1297.3,-77.9117 1297.3,-95.9117"/>
<text text-anchor="middle" x="1282.8" y="-84.7117" font-family="Times New Roman,serif" font-size="9.00">&#45;19</text>
</g>
<!-- &#45;19&#45;&gt;0 -->
<g id="edge72" class="edge"><title>&#45;19&#45;&gt;0</title>
<path fill="none" stroke="green" stroke-width="0.476545" d="M1275.99,-77.8096C1271.8,-73.4245 1266.05,-68.3712 1259.8,-65.6985 1089.13,7.19496 1020.82,-85.4002 843.796,-29.6985 842.74,-29.3664 841.681,-28.9822 840.626,-28.5579"/>
<polygon fill="green" stroke="green" stroke-width="0.476545" points="842.034,-25.3479 831.527,-23.9826 838.889,-31.6018 842.034,-25.3479"/>
</g>
<!-- &#45;19&#45;&gt;1 -->
<g id="edge73" class="edge"><title>&#45;19&#45;&gt;1</title>
<path fill="none" stroke="green" stroke-width="0.173503" stroke-dasharray="1,5" d="M1275.44,-77.7125C1271.25,-73.5194 1265.67,-68.6837 1259.8,-65.6985 1193.14,-31.8391 1103.83,-20.8338 1060.91,-17.371"/>
<polygon fill="green" stroke="green" stroke-width="0.173503" points="1061.03,-13.8704 1050.8,-16.6281 1060.51,-20.8516 1061.03,-13.8704"/>
</g>
<!-- &#45;19&#45;&gt;2 -->
<g id="edge74" class="edge"><title>&#45;19&#45;&gt;2</title>
<path fill="none" stroke="green" stroke-width="0.348345" d="M1275.53,-77.5356C1271.36,-73.2906 1265.78,-68.4618 1259.8,-65.6985 1158.68,-19.0078 1120.6,-53.4992 1011.8,-29.6985 1004.11,-28.0181 995.852,-25.7456 988.43,-23.5276"/>
<polygon fill="green" stroke="green" stroke-width="0.348345" points="989.234,-20.1125 978.646,-20.4959 987.162,-26.7989 989.234,-20.1125"/>
</g>
<!-- &#45;19&#45;&gt;3 -->
<g id="edge75" class="edge"><title>&#45;19&#45;&gt;3</title>
<path fill="none" stroke="red" stroke-width="0.178239" d="M1275.96,-77.8706C1271.77,-73.5058 1266.02,-68.4525 1259.8,-65.6985 1129.33,-7.952 1081.87,-51.0104 940.796,-29.6985 924.533,-27.2418 906.362,-23.7969 892.217,-20.9575"/>
<polygon fill="red" stroke="red" stroke-width="0.178239" points="892.782,-17.5006 882.284,-18.9306 891.382,-24.3593 892.782,-17.5006"/>
</g>
<!-- &#45;20 -->
<g id="node20" class="node"><title>&#45;20</title>
<polygon fill="lightgray" stroke="black" points="1344.3,-95.9117 1315.3,-95.9117 1315.3,-77.9117 1344.3,-77.9117 1344.3,-95.9117"/>
<text text-anchor="middle" x="1329.8" y="-84.7117" font-family="Times New Roman,serif" font-size="9.00">&#45;20</text>
</g>
<!-- &#45;20&#45;&gt;0 -->
<g id="edge76" class="edge"><title>&#45;20&#45;&gt;0</title>
<path fill="none" stroke="red" stroke-width="0.127805" d="M1323,-77.7891C1318.81,-73.3971 1313.06,-68.3438 1306.8,-65.6985 1116.63,14.5435 1040.95,-90.7894 843.796,-29.6985 842.739,-29.371 841.678,-28.9906 840.623,-28.5693"/>
<polygon fill="red" stroke="red" stroke-width="0.127805" points="842.028,-25.3586 831.52,-24.0053 838.891,-31.6161 842.028,-25.3586"/>
</g>
<!-- &#45;20&#45;&gt;1 -->
<g id="edge77" class="edge"><title>&#45;20&#45;&gt;1</title>
<path fill="none" stroke="green" stroke-width="0.255949" d="M1322.49,-77.6253C1318.31,-73.4066 1312.73,-68.5743 1306.8,-65.6985 1223.16,-25.1461 1110.36,-17.435 1060.85,-16.0736"/>
<polygon fill="green" stroke="green" stroke-width="0.255949" points="1060.82,-12.5722 1050.75,-15.8622 1060.67,-19.5707 1060.82,-12.5722"/>
</g>
<!-- &#45;20&#45;&gt;2 -->
<g id="edge78" class="edge"><title>&#45;20&#45;&gt;2</title>
<path fill="none" stroke="red" stroke-width="0.226507" d="M1322.95,-77.8917C1318.76,-73.5339 1313.01,-68.4806 1306.8,-65.6985 1186.26,-11.6934 1141.14,-56.4563 1011.8,-29.6985 1004.1,-28.1055 995.828,-25.8573 988.407,-23.6346"/>
<polygon fill="red" stroke="red" stroke-width="0.226507" points="989.216,-20.2206 978.628,-20.5806 987.13,-26.9024 989.216,-20.2206"/>
</g>
<!-- &#45;20&#45;&gt;3 -->
<g id="edge79" class="edge"><title>&#45;20&#45;&gt;3</title>
<path fill="none" stroke="green" stroke-width="0.742614" d="M1322.98,-77.8371C1318.79,-73.4611 1313.04,-68.4078 1306.8,-65.6985 1156.86,-0.616855 1102.58,-52.9547 940.796,-29.6985 924.516,-27.3584 906.345,-23.9139 892.204,-21.0456"/>
<polygon fill="green" stroke="green" stroke-width="0.742614" points="892.776,-17.5899 882.275,-18.9923 891.359,-24.4449 892.776,-17.5899"/>
</g>
<!-- &#45;21 -->
<g id="node21" class="node"><title>&#45;21</title>
<polygon fill="lightgray" stroke="black" points="1391.3,-95.9117 1362.3,-95.9117 1362.3,-77.9117 1391.3,-77.9117 1391.3,-95.9117"/>
<text text-anchor="middle" x="1376.8" y="-84.7117" font-family="Times New Roman,serif" font-size="9.00">&#45;21</text>
</g>
<!-- &#45;21&#45;&gt;0 -->
<g id="edge80" class="edge"><title>&#45;21&#45;&gt;0</title>
<path fill="none" stroke="red" stroke-width="0.148776" d="M1370,-77.7723C1365.82,-73.3748 1360.07,-68.3215 1353.8,-65.6985 1144.13,21.8958 1061.08,-96.1815 843.796,-29.6985 842.738,-29.3748 841.676,-28.9974 840.62,-28.5787"/>
<polygon fill="red" stroke="red" stroke-width="0.148776" points="842.024,-25.3673 831.514,-24.0239 838.892,-31.6278 842.024,-25.3673"/>
</g>
<!-- &#45;21&#45;&gt;1 -->
<g id="edge81" class="edge"><title>&#45;21&#45;&gt;1</title>
<path fill="none" stroke="red" stroke-width="0.400558" d="M1369.52,-77.5626C1365.35,-73.3255 1359.76,-68.4957 1353.8,-65.6985 1252.99,-18.4561 1116.5,-14.5533 1060.91,-15.1461"/>
<polygon fill="red" stroke="red" stroke-width="0.400558" points="1060.85,-11.6466 1050.91,-15.3131 1060.96,-18.6456 1060.85,-11.6466"/>
</g>
<!-- &#45;21&#45;&gt;2 -->
<g id="edge82" class="edge"><title>&#45;21&#45;&gt;2</title>
<path fill="none" stroke="green" stroke-width="0.255967" d="M1369.97,-77.8531C1365.78,-73.4824 1360.03,-68.4291 1353.8,-65.6985 1213.8,-4.36364 1161.72,-59.4211 1011.8,-29.6985 1004.08,-28.1693 995.812,-25.9388 988.391,-23.7128"/>
<polygon fill="green" stroke="green" stroke-width="0.255967" points="989.204,-20.2996 978.615,-20.6425 987.107,-26.978 989.204,-20.2996"/>
</g>
<!-- &#45;21&#45;&gt;3 -->
<g id="edge83" class="edge"><title>&#45;21&#45;&gt;3</title>
<path fill="none" stroke="green" stroke-width="0.308432" d="M1369.99,-77.8111C1365.8,-73.4264 1360.05,-68.3731 1353.8,-65.6985 1269.09,-29.4862 1032.06,-42.3001 940.796,-29.6985 924.503,-27.4487 906.332,-24.0046 892.195,-21.1139"/>
<polygon fill="green" stroke="green" stroke-width="0.308432" points="892.772,-17.6591 882.268,-19.0402 891.341,-24.5112 892.772,-17.6591"/>
</g>
<!-- &#45;22 -->
<g id="node22" class="node"><title>&#45;22</title>
<polygon fill="lightgray" stroke="black" points="1438.3,-95.9117 1409.3,-95.9117 1409.3,-77.9117 1438.3,-77.9117 1438.3,-95.9117"/>
<text text-anchor="middle" x="1423.8" y="-84.7117" font-family="Times New Roman,serif" font-size="9.00">&#45;22</text>
</g>
<!-- &#45;22&#45;&gt;0 -->
<g id="edge84" class="edge"><title>&#45;22&#45;&gt;0</title>
<path fill="none" stroke="red" stroke-width="0.23603" d="M1417.01,-77.7584C1412.83,-73.3562 1407.08,-68.3029 1400.8,-65.6985 1286.2,-18.2238 962.511,-65.6371 843.796,-29.6985 842.737,-29.3779 841.674,-29.0031 840.618,-28.5865"/>
<polygon fill="red" stroke="red" stroke-width="0.23603" points="842.02,-25.3746 831.509,-24.0393 838.893,-31.6375 842.02,-25.3746"/>
</g>
<!-- &#45;22&#45;&gt;1 -->
<g id="edge85" class="edge"><title>&#45;22&#45;&gt;1</title>
<path fill="none" stroke="red" stroke-width="0.226891" d="M1416.54,-77.5154C1412.38,-73.2646 1406.79,-68.4366 1400.8,-65.6985 1339.65,-37.7759 1132.82,-22.0984 1060.78,-17.3833"/>
<polygon fill="red" stroke="red" stroke-width="0.226891" points="1061,-13.8899 1050.79,-16.7436 1060.55,-20.8756 1061,-13.8899"/>
</g>
<!-- &#45;22&#45;&gt;2 -->
<g id="edge86" class="edge"><title>&#45;22&#45;&gt;2</title>
<path fill="none" stroke="green" stroke-width="0.177111" d="M1416.98,-77.8236C1412.8,-73.4431 1407.05,-68.3898 1400.8,-65.6985 1241.33,2.9757 1182.32,-62.3905 1011.8,-29.6985 1004.07,-28.2179 995.8,-26.0009 988.38,-23.7723"/>
<polygon fill="green" stroke="green" stroke-width="0.177111" points="989.196,-20.3596 978.606,-20.6896 987.09,-27.0355 989.196,-20.3596"/>
</g>
<!-- &#45;22&#45;&gt;3 -->
<g id="edge87" class="edge"><title>&#45;22&#45;&gt;3</title>
<path fill="none" stroke="green" stroke-width="0.287329" d="M1417,-77.7903C1412.81,-73.3987 1407.06,-68.3454 1400.8,-65.6985 1306.34,-25.8121 1042.43,-43.2746 940.796,-29.6985 924.493,-27.5208 906.322,-24.077 892.187,-21.1684"/>
<polygon fill="green" stroke="green" stroke-width="0.287329" points="892.769,-17.7143 882.263,-19.0783 891.327,-24.5641 892.769,-17.7143"/>
</g>
<!-- &#45;23 -->
<g id="node23" class="node"><title>&#45;23</title>
<polygon fill="lightgray" stroke="black" points="1485.3,-95.9117 1456.3,-95.9117 1456.3,-77.9117 1485.3,-77.9117 1485.3,-95.9117"/>
<text text-anchor="middle" x="1470.8" y="-84.7117" font-family="Times New Roman,serif" font-size="9.00">&#45;23</text>
</g>
<!-- &#45;23&#45;&gt;0 -->
<g id="edge88" class="edge"><title>&#45;23&#45;&gt;0</title>
<path fill="none" stroke="red" stroke-width="0.349369" d="M1464.02,-77.7466C1459.84,-73.3404 1454.09,-68.2871 1447.8,-65.6985 1323.45,-14.5452 972.586,-68.335 843.796,-29.6985 842.736,-29.3806 841.673,-29.008 840.616,-28.5931"/>
<polygon fill="red" stroke="red" stroke-width="0.349369" points="842.017,-25.3808 831.506,-24.0524 838.894,-31.6458 842.017,-25.3808"/>
</g>
<!-- &#45;23&#45;&gt;1 -->
<g id="edge89" class="edge"><title>&#45;23&#45;&gt;1</title>
<path fill="none" stroke="red" stroke-width="0.223757" d="M1463.95,-77.8893C1459.76,-73.5307 1454.01,-68.4774 1447.8,-65.6985 1377.9,-34.4274 1140.06,-20.7199 1061.34,-16.9675"/>
<polygon fill="red" stroke="red" stroke-width="0.223757" points="1061.06,-13.4513 1050.91,-16.4851 1060.74,-20.4438 1061.06,-13.4513"/>
</g>
<!-- &#45;23&#45;&gt;2 -->
<g id="edge90" class="edge"><title>&#45;23&#45;&gt;2</title>
<path fill="none" stroke="red" stroke-width="0.346964" stroke-dasharray="1,5" d="M1463.99,-77.8003C1459.81,-73.4121 1454.06,-68.3588 1447.8,-65.6985 1268.84,10.3215 1202.93,-65.3629 1011.8,-29.6985 1004.07,-28.2562 995.79,-26.0498 988.371,-23.8191"/>
<polygon fill="red" stroke="red" stroke-width="0.346964" points="989.189,-20.4069 978.599,-20.7267 987.077,-27.0807 989.189,-20.4069"/>
</g>
<!-- &#45;23&#45;&gt;3 -->
<g id="edge91" class="edge"><title>&#45;23&#45;&gt;3</title>
<path fill="none" stroke="green" stroke-width="0.276203" d="M1464,-77.7733C1459.82,-73.3761 1454.07,-68.3228 1447.8,-65.6985 1343.58,-22.136 1052.8,-44.2497 940.796,-29.6985 924.486,-27.5796 906.314,-24.136 892.181,-21.2129"/>
<polygon fill="green" stroke="green" stroke-width="0.276203" points="892.767,-17.7593 882.259,-19.1095 891.316,-24.6072 892.767,-17.7593"/>
</g>
<!-- &#45;24 -->
<g id="node24" class="node"><title>&#45;24</title>
<polygon fill="lightgray" stroke="black" points="1892.3,-95.9117 1863.3,-95.9117 1863.3,-77.9117 1892.3,-77.9117 1892.3,-95.9117"/>
<text text-anchor="middle" x="1877.8" y="-84.7117" font-family="Times New Roman,serif" font-size="9.00">&#45;24</text>
</g>
<!-- &#45;24&#45;&gt;1 -->
<g id="edge92" class="edge"><title>&#45;24&#45;&gt;1</title>
<path fill="none" stroke="red" stroke-width="0.183367" d="M1868.86,-77.7419C1863.46,-73.3342 1856.21,-68.2809 1848.8,-65.6985 1698.08,-13.2354 1181.16,-14.5324 1060.93,-15.5742"/>
<polygon fill="red" stroke="red" stroke-width="0.183367" points="1060.82,-12.075 1050.85,-15.6693 1060.88,-19.0747 1060.82,-12.075"/>
</g>
<!-- &#45;24&#45;&gt;2 -->
<g id="edge93" class="edge"><title>&#45;24&#45;&gt;2</title>
<path fill="none" stroke="red" stroke-width="0.281346" d="M1868.88,-77.6911C1863.49,-73.2664 1856.24,-68.2131 1848.8,-65.6985 1672.42,-6.10232 1195.45,-60.2353 1011.8,-29.6985 1004.04,-28.4087 995.756,-26.2447 988.338,-24.0059"/>
<polygon fill="red" stroke="red" stroke-width="0.281346" points="989.164,-20.5953 978.573,-20.8747 987.026,-27.261 989.164,-20.5953"/>
</g>
<!-- &#45;25 -->
<g id="node25" class="node"><title>&#45;25</title>
<polygon fill="lightgray" stroke="black" points="1532.3,-95.9117 1503.3,-95.9117 1503.3,-77.9117 1532.3,-77.9117 1532.3,-95.9117"/>
<text text-anchor="middle" x="1517.8" y="-84.7117" font-family="Times New Roman,serif" font-size="9.00">&#45;25</text>
</g>
<!-- &#45;25&#45;&gt;0 -->
<g id="edge94" class="edge"><title>&#45;25&#45;&gt;0</title>
<path fill="none" stroke="green" stroke-width="0.418362" d="M1511.02,-77.7364C1506.84,-73.3269 1501.09,-68.2736 1494.8,-65.6985 1360.68,-10.8658 982.662,-71.0335 843.796,-29.6985 842.735,-29.3828 841.672,-29.0121 840.614,-28.5987"/>
<polygon fill="green" stroke="green" stroke-width="0.418362" points="842.014,-25.3861 831.502,-24.0636 838.895,-31.6528 842.014,-25.3861"/>
</g>
<!-- &#45;25&#45;&gt;1 -->
<g id="edge95" class="edge"><title>&#45;25&#45;&gt;1</title>
<path fill="none" stroke="red" stroke-width="0.153907" d="M1510.97,-77.8608C1506.77,-73.4927 1501.02,-68.4394 1494.8,-65.6985 1415.81,-30.9353 1144.95,-19.3844 1060.89,-16.5917"/>
<polygon fill="red" stroke="red" stroke-width="0.153907" points="1060.83,-13.0883 1050.73,-16.2672 1060.61,-20.0848 1060.83,-13.0883"/>
</g>
<!-- &#45;25&#45;&gt;2 -->
<g id="edge96" class="edge"><title>&#45;25&#45;&gt;2</title>
<path fill="none" stroke="green" stroke-width="0.343203" d="M1511,-77.7816C1506.82,-73.3871 1501.07,-68.3338 1494.8,-65.6985 1395.56,-24.0134 1117.68,-49.018 1011.8,-29.6985 1004.06,-28.287 995.783,-26.0892 988.364,-23.8569"/>
<polygon fill="green" stroke="green" stroke-width="0.343203" points="989.184,-20.4451 978.593,-20.7567 987.066,-27.1172 989.184,-20.4451"/>
</g>
<!-- &#45;25&#45;&gt;3 -->
<g id="edge97" class="edge"><title>&#45;25&#45;&gt;3</title>
<path fill="none" stroke="red" stroke-width="0.259967" d="M1511.01,-77.7592C1506.83,-73.3573 1501.08,-68.304 1494.8,-65.6985 1380.83,-18.4586 1063.19,-45.2252 940.796,-29.6985 924.479,-27.6285 906.308,-24.1851 892.177,-21.2498"/>
<polygon fill="red" stroke="red" stroke-width="0.259967" points="892.765,-17.7968 882.255,-19.1354 891.306,-24.643 892.765,-17.7968"/>
</g>
<!-- &#45;26 -->
<g id="node26" class="node"><title>&#45;26</title>
<polygon fill="lightgray" stroke="black" points="1579.3,-95.9117 1550.3,-95.9117 1550.3,-77.9117 1579.3,-77.9117 1579.3,-95.9117"/>
<text text-anchor="middle" x="1564.8" y="-84.7117" font-family="Times New Roman,serif" font-size="9.00">&#45;26</text>
</g>
<!-- &#45;26&#45;&gt;0 -->
<g id="edge98" class="edge"><title>&#45;26&#45;&gt;0</title>
<path fill="none" stroke="green" stroke-width="0.226361" d="M1558.02,-77.7277C1553.85,-73.3152 1548.1,-68.2619 1541.8,-65.6985 1397.92,-7.18575 992.74,-73.7325 843.796,-29.6985 842.735,-29.3848 841.671,-29.0157 840.613,-28.6036"/>
<polygon fill="green" stroke="green" stroke-width="0.226361" points="842.012,-25.3907 831.499,-24.0733 838.896,-31.6589 842.012,-25.3907"/>
</g>
<!-- &#45;26&#45;&gt;1 -->
<g id="edge99" class="edge"><title>&#45;26&#45;&gt;1</title>
<path fill="none" stroke="green" stroke-width="0.156662" d="M1557.98,-77.8374C1553.79,-73.4616 1548.04,-68.4083 1541.8,-65.6985 1453.77,-27.4809 1150.25,-18.2226 1060.8,-16.3004"/>
<polygon fill="green" stroke="green" stroke-width="0.156662" points="1060.82,-12.8002 1050.75,-16.0966 1060.68,-19.7988 1060.82,-12.8002"/>
</g>
<!-- &#45;26&#45;&gt;2 -->
<g id="edge100" class="edge"><title>&#45;26&#45;&gt;2</title>
<path fill="none" stroke="red" stroke-width="0.24642" d="M1558.01,-77.7661C1553.83,-73.3665 1548.08,-68.3132 1541.8,-65.6985 1432.81,-20.3366 1128,-50.5061 1011.8,-29.6985 1004.06,-28.3125 995.777,-26.1217 988.358,-23.8881"/>
<polygon fill="red" stroke="red" stroke-width="0.24642" points="989.179,-20.4765 978.589,-20.7813 987.058,-27.1473 989.179,-20.4765"/>
</g>
<!-- &#45;26&#45;&gt;3 -->
<g id="edge101" class="edge"><title>&#45;26&#45;&gt;3</title>
<path fill="none" stroke="red" stroke-width="0.278112" d="M1558.02,-77.7473C1553.84,-73.3413 1548.09,-68.288 1541.8,-65.6985 1418.07,-14.7801 1073.57,-46.2012 940.796,-29.6985 924.474,-27.6698 906.303,-24.2266 892.173,-21.2811"/>
<polygon fill="red" stroke="red" stroke-width="0.278112" points="892.764,-17.8284 882.253,-19.1572 891.298,-24.6732 892.764,-17.8284"/>
</g>
<!-- &#45;27 -->
<g id="node27" class="node"><title>&#45;27</title>
<polygon fill="lightgray" stroke="black" points="1626.3,-95.9117 1597.3,-95.9117 1597.3,-77.9117 1626.3,-77.9117 1626.3,-95.9117"/>
<text text-anchor="middle" x="1611.8" y="-84.7117" font-family="Times New Roman,serif" font-size="9.00">&#45;27</text>
</g>
<!-- &#45;27&#45;&gt;0 -->
<g id="edge102" class="edge"><title>&#45;27&#45;&gt;0</title>
<path fill="none" stroke="red" stroke-width="0.115724" d="M1605.03,-77.72C1600.85,-73.305 1595.1,-68.2517 1588.8,-65.6985 1435.16,-3.50515 1002.82,-76.4319 843.796,-29.6985 842.734,-29.3865 841.67,-29.0188 840.611,-28.6079"/>
<polygon fill="red" stroke="red" stroke-width="0.115724" points="842.01,-25.3948 831.497,-24.0818 838.897,-31.6643 842.01,-25.3948"/>
</g>
<!-- &#45;27&#45;&gt;1 -->
<g id="edge103" class="edge"><title>&#45;27&#45;&gt;1</title>
<path fill="none" stroke="red" stroke-width="0.592584" d="M1604.99,-77.818C1600.8,-73.4357 1595.05,-68.3824 1588.8,-65.6985 1491.77,-24.0503 1155.82,-17.1779 1060.93,-16.0619"/>
<polygon fill="red" stroke="red" stroke-width="0.592584" points="1060.86,-12.5611 1050.83,-15.9546 1060.79,-19.5607 1060.86,-12.5611"/>
</g>
<!-- &#45;27&#45;&gt;2 -->
<g id="edge104" class="edge"><title>&#45;27&#45;&gt;2</title>
<path fill="none" stroke="green" stroke-width="0.177147" d="M1605.01,-77.7531C1600.83,-73.3492 1595.08,-68.2958 1588.8,-65.6985 1470.05,-16.6586 1138.32,-51.9947 1011.8,-29.6985 1004.05,-28.3338 995.772,-26.149 988.354,-23.9142"/>
<polygon fill="green" stroke="green" stroke-width="0.177147" points="989.176,-20.5028 978.585,-20.802 987.051,-27.1725 989.176,-20.5028"/>
</g>
<!-- &#45;27&#45;&gt;3 -->
<g id="edge105" class="edge"><title>&#45;27&#45;&gt;3</title>
<path fill="none" stroke="red" stroke-width="0.395707" d="M1605.02,-77.737C1600.84,-73.3277 1595.09,-68.2744 1588.8,-65.6985 1455.31,-11.1007 1083.95,-47.1774 940.796,-29.6985 924.47,-27.7052 906.298,-24.2621 892.169,-21.3078"/>
<polygon fill="red" stroke="red" stroke-width="0.395707" points="892.763,-17.8554 882.25,-19.176 891.292,-24.6991 892.763,-17.8554"/>
</g>
<!-- &#45;28 -->
<g id="node28" class="node"><title>&#45;28</title>
<polygon fill="lightgray" stroke="black" points="1673.3,-95.9117 1644.3,-95.9117 1644.3,-77.9117 1673.3,-77.9117 1673.3,-95.9117"/>
<text text-anchor="middle" x="1658.8" y="-84.7117" font-family="Times New Roman,serif" font-size="9.00">&#45;28</text>
</g>
<!-- &#45;28&#45;&gt;0 -->
<g id="edge106" class="edge"><title>&#45;28&#45;&gt;0</title>
<path fill="none" stroke="green" stroke-width="0.218434" d="M1652.03,-77.7132C1647.86,-73.296 1642.11,-68.2427 1635.8,-65.6985 1472.39,0.17588 1012.9,-79.1317 843.796,-29.6985 842.734,-29.388 841.669,-29.0216 840.61,-28.6117"/>
<polygon fill="green" stroke="green" stroke-width="0.218434" points="842.008,-25.3983 831.495,-24.0893 838.897,-31.669 842.008,-25.3983"/>
</g>
<!-- &#45;28&#45;&gt;1 -->
<g id="edge107" class="edge"><title>&#45;28&#45;&gt;1</title>
<path fill="none" stroke="red" stroke-width="0.39516" d="M1651.99,-77.8015C1647.81,-73.4137 1642.06,-68.3604 1635.8,-65.6985 1529.63,-20.5697 1160.5,-16.2037 1060.78,-15.8573"/>
<polygon fill="red" stroke="red" stroke-width="0.39516" points="1060.74,-12.3573 1050.73,-15.8333 1060.73,-19.3573 1060.74,-12.3573"/>
</g>
<!-- &#45;28&#45;&gt;2 -->
<g id="edge108" class="edge"><title>&#45;28&#45;&gt;2</title>
<path fill="none" stroke="red" stroke-width="0.414213" d="M1652.02,-77.7421C1647.84,-73.3344 1642.09,-68.2811 1635.8,-65.6985 1507.29,-12.9796 1148.64,-53.4837 1011.8,-29.6985 1004.05,-28.3519 995.768,-26.1722 988.35,-23.9364"/>
<polygon fill="red" stroke="red" stroke-width="0.414213" points="989.173,-20.5252 978.582,-20.8196 987.045,-27.1939 989.173,-20.5252"/>
</g>
<!-- &#45;28&#45;&gt;3 -->
<g id="edge109" class="edge"><title>&#45;28&#45;&gt;3</title>
<path fill="none" stroke="red" stroke-width="0.342654" d="M1652.02,-77.7282C1647.85,-73.3159 1642.1,-68.2626 1635.8,-65.6985 1492.54,-7.42066 1094.34,-48.1538 940.796,-29.6985 924.466,-27.7358 906.295,-24.2928 892.167,-21.3309"/>
<polygon fill="red" stroke="red" stroke-width="0.342654" points="892.761,-17.8788 882.248,-19.1921 891.286,-24.7215 892.761,-17.8788"/>
</g>
<!-- &#45;29 -->
<g id="node29" class="node"><title>&#45;29</title>
<polygon fill="lightgray" stroke="black" points="119.296,-95.9117 90.2958,-95.9117 90.2958,-77.9117 119.296,-77.9117 119.296,-95.9117"/>
<text text-anchor="middle" x="104.796" y="-84.7117" font-family="Times New Roman,serif" font-size="9.00">&#45;29</text>
</g>
<!-- &#45;29&#45;&gt;0 -->
<g id="edge110" class="edge"><title>&#45;29&#45;&gt;0</title>
<path fill="none" stroke="green" stroke-width="0.257691" d="M111.588,-77.7757C115.769,-73.3793 121.519,-68.326 127.796,-65.6985 251.864,-13.7609 686.11,-14.5044 794.924,-15.54"/>
<polygon fill="green" stroke="green" stroke-width="0.257691" points="794.922,-19.0401 804.958,-15.6456 794.995,-12.0405 794.922,-19.0401"/>
</g>
<!-- &#45;29&#45;&gt;1 -->
<g id="edge111" class="edge"><title>&#45;29&#45;&gt;1</title>
<path fill="none" stroke="red" stroke-width="0.222109" d="M111.559,-77.7046C115.73,-73.2845 121.48,-68.2312 127.796,-65.6985 305.536,5.58058 799.87,-60.9963 988.796,-29.6985 996.553,-28.4134 1004.84,-26.2506 1012.25,-24.0116"/>
<polygon fill="red" stroke="red" stroke-width="0.222109" points="1013.57,-27.2664 1022.02,-20.8792 1011.43,-20.601 1013.57,-27.2664"/>
</g>
<!-- &#45;29&#45;&gt;2 -->
<g id="edge112" class="edge"><title>&#45;29&#45;&gt;2</title>
<path fill="none" stroke="green" stroke-width="0.385521" d="M111.564,-77.7171C115.737,-73.3012 121.487,-68.2479 127.796,-65.6985 285.381,-2.01712 722.997,-49.5876 891.796,-29.6985 908.13,-27.7739 926.301,-24.3311 940.428,-21.3597"/>
<polygon fill="green" stroke="green" stroke-width="0.385521" points="941.313,-24.7494 950.346,-19.2123 939.831,-17.9079 941.313,-24.7494"/>
</g>
<!-- &#45;29&#45;&gt;3 -->
<g id="edge113" class="edge"><title>&#45;29&#45;&gt;3</title>
<path fill="none" stroke="red" stroke-width="0.20725" d="M111.567,-77.7246C115.741,-73.3111 121.491,-68.2578 127.796,-65.6985 275.409,-5.77621 690.991,-74.7663 843.796,-29.6985 844.857,-29.3855 845.921,-29.0169 846.979,-28.6053"/>
<polygon fill="red" stroke="red" stroke-width="0.20725" points="848.695,-31.6611 856.093,-24.0767 845.58,-25.3923 848.695,-31.6611"/>
</g>
<!-- &#45;30 -->
<g id="node30" class="node"><title>&#45;30</title>
<polygon fill="lightgray" stroke="black" points="1763.3,-162.125 1734.3,-162.125 1734.3,-144.125 1763.3,-144.125 1763.3,-162.125"/>
<text text-anchor="middle" x="1748.8" y="-150.925" font-family="Times New Roman,serif" font-size="9.00">&#45;30</text>
</g>
<!-- &#45;30&#45;&gt;0 -->
<g id="edge114" class="edge"><title>&#45;30&#45;&gt;0</title>
<path fill="none" stroke="red" stroke-width="0.208379" d="M1734.05,-152.038C1567.28,-151.021 41.6842,-140.83 9.79575,-108.125 -3.36787,-94.624 -3.12158,-79.4352 9.79575,-65.6985 37.3723,-36.3726 661.447,-19.6745 794.847,-16.4333"/>
<polygon fill="red" stroke="red" stroke-width="0.208379" points="794.997,-19.9308 804.911,-16.1919 794.829,-12.9328 794.997,-19.9308"/>
</g>
<!-- &#45;30&#45;&gt;1 -->
<g id="edge115" class="edge"><title>&#45;30&#45;&gt;1</title>
<path fill="none" stroke="red" stroke-width="0.148022" d="M1763.33,-150.167C1798.18,-145.143 1884.88,-130.591 1901.8,-108.125 1913.14,-93.0613 1914.74,-79.4096 1901.8,-65.6985 1872.13,-34.2797 1199.47,-19.1272 1060.7,-16.33"/>
<polygon fill="red" stroke="red" stroke-width="0.148022" points="1060.69,-12.8293 1050.62,-16.1299 1060.55,-19.8279 1060.69,-12.8293"/>
</g>
<!-- &#45;30&#45;&gt;2 -->
<g id="edge116" class="edge"><title>&#45;30&#45;&gt;2</title>
<path fill="none" stroke="green" stroke-width="0.33484" d="M1749.86,-144.116C1751.67,-126.717 1753.13,-85.4461 1729.8,-65.6985 1668.82,-14.1025 1090.54,-43.0806 1011.8,-29.6985 1004.04,-28.3811 995.762,-26.2094 988.344,-23.9721"/>
<polygon fill="green" stroke="green" stroke-width="0.33484" points="989.168,-20.5612 978.577,-20.8479 987.035,-27.2284 989.168,-20.5612"/>
</g>
<!-- &#45;30&#45;&gt;3 -->
<g id="edge117" class="edge"><title>&#45;30&#45;&gt;3</title>
<path fill="none" stroke="red" stroke-width="0.423138" d="M1734.15,-152.023C1571.67,-150.853 111.335,-139.48 80.7958,-108.125 67.6394,-94.6169 67.7804,-79.3424 80.7958,-65.6985 139.378,-4.28692 762.353,-53.5822 843.796,-29.6985 844.857,-29.3871 845.922,-29.0199 846.981,-28.6094"/>
<polygon fill="red" stroke="red" stroke-width="0.423138" points="848.695,-31.6662 856.096,-24.0848 845.582,-25.3962 848.695,-31.6662"/>
</g>
<!-- 245 -->
<g id="node45" class="node"><title>245</title>
<ellipse fill="white" stroke="black" cx="1969.8" cy="-86.9117" rx="21.4286" ry="21.4286"/>
<text text-anchor="middle" x="1969.8" y="-84.7117" font-family="Times New Roman,serif" font-size="9.00">245</text>
</g>
<!-- &#45;30&#45;&gt;245 -->
<g id="edge158" class="edge"><title>&#45;30&#45;&gt;245</title>
<path fill="none" stroke="green" stroke-width="0.540612" d="M1763.71,-150.107C1795.86,-145.434 1873.73,-132.374 1934.8,-108.125 1937.7,-106.971 1940.66,-105.606 1943.56,-104.139"/>
<polygon fill="green" stroke="green" stroke-width="0.540612" points="1945.41,-107.114 1952.49,-99.2362 1942.04,-100.976 1945.41,-107.114"/>
</g>
<!-- &#45;31 -->
<g id="node31" class="node"><title>&#45;31</title>
<polygon fill="lightgray" stroke="black" points="1720.3,-95.9117 1691.3,-95.9117 1691.3,-77.9117 1720.3,-77.9117 1720.3,-95.9117"/>
<text text-anchor="middle" x="1705.8" y="-84.7117" font-family="Times New Roman,serif" font-size="9.00">&#45;31</text>
</g>
<!-- &#45;31&#45;&gt;0 -->
<g id="edge118" class="edge"><title>&#45;31&#45;&gt;0</title>
<path fill="none" stroke="red" stroke-width="0.592642" d="M1699.03,-77.7072C1694.86,-73.2879 1689.11,-68.2346 1682.8,-65.6985 1509.63,3.85727 1022.98,-81.8317 843.796,-29.6985 842.733,-29.3894 841.668,-29.024 840.609,-28.615"/>
<polygon fill="red" stroke="red" stroke-width="0.592642" points="842.007,-25.4015 831.493,-24.0959 838.898,-31.6732 842.007,-25.4015"/>
</g>
<!-- &#45;31&#45;&gt;1 -->
<g id="edge119" class="edge"><title>&#45;31&#45;&gt;1</title>
<path fill="none" stroke="green" stroke-width="0.364312" d="M1699,-77.7875C1694.82,-73.3949 1689.07,-68.3416 1682.8,-65.6985 1567.61,-17.1412 1165.95,-15.3095 1061.03,-15.6826"/>
<polygon fill="green" stroke="green" stroke-width="0.364312" points="1060.75,-12.1838 1050.77,-15.73 1060.78,-19.1837 1060.75,-12.1838"/>
</g>
<!-- &#45;31&#45;&gt;2 -->
<g id="edge120" class="edge"><title>&#45;31&#45;&gt;2</title>
<path fill="none" stroke="green" stroke-width="0.209002" d="M1699.02,-77.7325C1694.85,-73.3217 1689.1,-68.2684 1682.8,-65.6985 1544.53,-9.2999 1158.97,-54.9731 1011.8,-29.6985 1004.05,-28.3676 995.765,-26.1921 988.347,-23.9555"/>
<polygon fill="green" stroke="green" stroke-width="0.209002" points="989.17,-20.5445 978.58,-20.8348 987.04,-27.2124 989.17,-20.5445"/>
</g>
<!-- &#45;32 -->
<g id="node32" class="node"><title>&#45;32</title>
<polygon fill="lightgray" stroke="black" points="166.296,-95.9117 137.296,-95.9117 137.296,-77.9117 166.296,-77.9117 166.296,-95.9117"/>
<text text-anchor="middle" x="151.796" y="-84.7117" font-family="Times New Roman,serif" font-size="9.00">&#45;32</text>
</g>
<!-- &#45;32&#45;&gt;0 -->
<g id="edge121" class="edge"><title>&#45;32&#45;&gt;0</title>
<path fill="none" stroke="green" stroke-width="0.167851" d="M158.593,-77.788C162.776,-73.3957 168.526,-68.3424 174.796,-65.6985 289.623,-17.2768 690.048,-15.3456 794.643,-15.6898"/>
<polygon fill="green" stroke="green" stroke-width="0.167851" points="794.855,-19.1907 804.871,-15.7344 794.886,-12.1908 794.855,-19.1907"/>
</g>
<!-- &#45;32&#45;&gt;1 -->
<g id="edge122" class="edge"><title>&#45;32&#45;&gt;1</title>
<path fill="none" stroke="green" stroke-width="0.472179" d="M158.561,-77.7103C162.733,-73.2921 168.483,-68.2388 174.796,-65.6985 342.77,1.89904 810.2,-59.5061 988.796,-29.6985 996.552,-28.404 1004.83,-26.2387 1012.25,-24.0002"/>
<polygon fill="green" stroke="green" stroke-width="0.472179" points="1013.56,-27.2554 1022.02,-20.8701 1011.43,-20.5895 1013.56,-27.2554"/>
</g>
<!-- &#45;32&#45;&gt;2 -->
<g id="edge123" class="edge"><title>&#45;32&#45;&gt;2</title>
<path fill="none" stroke="red" stroke-width="0.226703" d="M158.567,-77.7244C162.741,-73.3109 168.491,-68.2576 174.796,-65.6985 322.617,-5.6979 733.387,-48.6109 891.796,-29.6985 908.127,-27.7487 926.298,-24.3058 940.426,-21.3407"/>
<polygon fill="red" stroke="red" stroke-width="0.226703" points="941.308,-24.731 950.344,-19.199 939.83,-17.8887 941.308,-24.731"/>
</g>
<!-- &#45;32&#45;&gt;3 -->
<g id="edge124" class="edge"><title>&#45;32&#45;&gt;3</title>
<path fill="none" stroke="green" stroke-width="0.331411" d="M158.571,-77.7329C162.746,-73.3222 168.496,-68.2689 174.796,-65.6985 312.646,-9.4565 701.07,-72.0671 843.796,-29.6985 844.856,-29.3836 845.92,-29.0135 846.978,-28.6007"/>
<polygon fill="green" stroke="green" stroke-width="0.331411" points="848.696,-31.6553 856.09,-24.0675 845.578,-25.388 848.696,-31.6553"/>
</g>
<!-- &#45;33 -->
<g id="node33" class="node"><title>&#45;33</title>
<polygon fill="lightgray" stroke="black" points="1941.3,-162.125 1912.3,-162.125 1912.3,-144.125 1941.3,-144.125 1941.3,-162.125"/>
<text text-anchor="middle" x="1926.8" y="-150.925" font-family="Times New Roman,serif" font-size="9.00">&#45;33</text>
</g>
<!-- &#45;33&#45;&gt;0 -->
<g id="edge125" class="edge"><title>&#45;33&#45;&gt;0</title>
<path fill="none" stroke="red" stroke-width="0.436341" d="M1911.94,-151.201C1884.47,-149.528 1823.9,-145.995 1772.8,-144.125 1725.82,-142.405 113.682,-141.718 80.7958,-108.125 67.605,-94.6505 67.9189,-79.4732 80.7958,-65.6985 130.555,-12.4693 671.512,-14.4197 794.859,-15.5659"/>
<polygon fill="red" stroke="red" stroke-width="0.436341" points="794.827,-19.0657 804.861,-15.666 794.897,-12.066 794.827,-19.0657"/>
</g>
<!-- &#45;33&#45;&gt;1 -->
<g id="edge126" class="edge"><title>&#45;33&#45;&gt;1</title>
<path fill="none" stroke="red" stroke-width="0.18216" d="M1941.48,-148.081C1958.96,-142.388 1987.35,-130.157 1999.8,-108.125 2009.07,-91.7069 2012.78,-79.3718 1999.8,-65.6985 1966.51,-30.6488 1210.09,-18.2846 1061.13,-16.1858"/>
<polygon fill="red" stroke="red" stroke-width="0.18216" points="1060.8,-12.6809 1050.75,-16.0424 1060.7,-19.6802 1060.8,-12.6809"/>
</g>
<!-- &#45;33&#45;&gt;2 -->
<g id="edge127" class="edge"><title>&#45;33&#45;&gt;2</title>
<path fill="none" stroke="red" stroke-width="0.123532" stroke-dasharray="1,5" d="M1912.22,-144.78C1897.09,-136.812 1873.13,-123.195 1854.8,-108.125 1835.01,-91.8611 1839.01,-76.5174 1815.8,-65.6985 1734.74,-27.9256 1099.99,-44.4438 1011.8,-29.6985 1004.04,-28.4019 995.757,-26.236 988.339,-23.9976"/>
<polygon fill="red" stroke="red" stroke-width="0.123532" points="989.165,-20.5868 978.574,-20.868 987.029,-27.2529 989.165,-20.5868"/>
</g>
<!-- 214 -->
<g id="node46" class="node"><title>214</title>
<ellipse fill="white" stroke="black" cx="2067.8" cy="-86.9117" rx="21.4286" ry="21.4286"/>
<text text-anchor="middle" x="2067.8" y="-84.7117" font-family="Times New Roman,serif" font-size="9.00">214</text>
</g>
<!-- &#45;33&#45;&gt;214 -->
<g id="edge156" class="edge"><title>&#45;33&#45;&gt;214</title>
<path fill="none" stroke="green" stroke-width="0.361315" d="M1941.46,-146.733C1962.17,-138.965 2000.99,-123.825 2032.8,-108.125 2035.54,-106.771 2038.36,-105.292 2041.16,-103.769"/>
<polygon fill="green" stroke="green" stroke-width="0.361315" points="2042.88,-106.818 2049.87,-98.8602 2039.44,-100.719 2042.88,-106.818"/>
</g>
<!-- &#45;34 -->
<g id="node34" class="node"><title>&#45;34</title>
<polygon fill="lightgray" stroke="black" points="213.296,-95.9117 184.296,-95.9117 184.296,-77.9117 213.296,-77.9117 213.296,-95.9117"/>
<text text-anchor="middle" x="198.796" y="-84.7117" font-family="Times New Roman,serif" font-size="9.00">&#45;34</text>
</g>
<!-- &#45;34&#45;&gt;0 -->
<g id="edge128" class="edge"><title>&#45;34&#45;&gt;0</title>
<path fill="none" stroke="green" stroke-width="0.396315" d="M205.599,-77.8022C209.784,-73.4146 215.534,-68.3613 221.796,-65.6985 327.602,-20.7045 695.51,-16.2408 794.89,-15.865"/>
<polygon fill="green" stroke="green" stroke-width="0.396315" points="794.916,-19.365 804.906,-15.838 794.897,-12.365 794.916,-19.365"/>
</g>
<!-- &#45;34&#45;&gt;1 -->
<g id="edge129" class="edge"><title>&#45;34&#45;&gt;1</title>
<path fill="none" stroke="green" stroke-width="0.148838" d="M205.564,-77.7167C209.737,-73.3006 215.487,-68.2473 221.796,-65.6985 380.005,-1.78216 820.53,-58.0161 988.796,-29.6985 996.55,-28.3935 1004.83,-26.2253 1012.25,-23.9873"/>
<polygon fill="green" stroke="green" stroke-width="0.148838" points="1013.56,-27.243 1022.02,-20.8599 1011.43,-20.5765 1013.56,-27.243"/>
</g>
<!-- &#45;34&#45;&gt;2 -->
<g id="edge130" class="edge"><title>&#45;34&#45;&gt;2</title>
<path fill="none" stroke="red" stroke-width="0.28852" d="M205.571,-77.7327C209.745,-73.322 215.495,-68.2687 221.796,-65.6985 359.853,-9.3782 743.775,-47.6344 891.796,-29.6985 908.123,-27.72 926.295,-24.277 940.423,-21.319"/>
<polygon fill="red" stroke="red" stroke-width="0.28852" points="941.303,-24.71 950.342,-19.1838 939.83,-17.8667 941.303,-24.71"/>
</g>
<!-- &#45;34&#45;&gt;3 -->
<g id="edge131" class="edge"><title>&#45;34&#45;&gt;3</title>
<path fill="none" stroke="green" stroke-width="0.33294" d="M205.575,-77.7425C209.751,-73.335 215.501,-68.2817 221.796,-65.6985 349.884,-13.1362 711.147,-69.3684 843.796,-29.6985 844.856,-29.3815 845.919,-29.0096 846.977,-28.5954"/>
<polygon fill="green" stroke="green" stroke-width="0.33294" points="848.697,-31.6486 856.087,-24.0569 845.576,-25.383 848.697,-31.6486"/>
</g>
<!-- &#45;35 -->
<g id="node35" class="node"><title>&#45;35</title>
<polygon fill="lightgray" stroke="black" points="260.296,-95.9117 231.296,-95.9117 231.296,-77.9117 260.296,-77.9117 260.296,-95.9117"/>
<text text-anchor="middle" x="245.796" y="-84.7117" font-family="Times New Roman,serif" font-size="9.00">&#45;35</text>
</g>
<!-- &#45;35&#45;&gt;0 -->
<g id="edge132" class="edge"><title>&#45;35&#45;&gt;0</title>
<path fill="none" stroke="red" stroke-width="0.361058" d="M252.607,-77.8188C256.793,-73.4367 262.543,-68.3834 268.796,-65.6985 365.471,-24.184 700.2,-17.2165 794.748,-16.0703"/>
<polygon fill="red" stroke="red" stroke-width="0.361058" points="794.858,-19.5694 804.819,-15.9597 794.781,-12.5698 794.858,-19.5694"/>
</g>
<!-- &#45;35&#45;&gt;1 -->
<g id="edge133" class="edge"><title>&#45;35&#45;&gt;1</title>
<path fill="none" stroke="red" stroke-width="0.19916" d="M252.567,-77.7239C256.741,-73.3103 262.491,-68.257 268.796,-65.6985 417.24,-5.46297 830.858,-56.5262 988.796,-29.6985 996.548,-28.3817 1004.83,-26.2101 1012.25,-23.9728"/>
<polygon fill="red" stroke="red" stroke-width="0.19916" points="1013.56,-27.229 1022.01,-20.8484 1011.42,-20.5619 1013.56,-27.229"/>
</g>
<!-- &#45;35&#45;&gt;2 -->
<g id="edge134" class="edge"><title>&#45;35&#45;&gt;2</title>
<path fill="none" stroke="red" stroke-width="0.161465" d="M252.574,-77.7423C256.751,-73.3347 262.501,-68.2814 268.796,-65.6985 397.092,-13.0579 754.161,-46.6581 891.796,-29.6985 908.119,-27.6871 926.291,-24.2439 940.42,-21.2941"/>
<polygon fill="red" stroke="red" stroke-width="0.161465" points="941.296,-24.6858 950.34,-19.1664 939.828,-17.8415 941.296,-24.6858"/>
</g>
<!-- &#45;35&#45;&gt;3 -->
<g id="edge135" class="edge"><title>&#45;35&#45;&gt;3</title>
<path fill="none" stroke="green" stroke-width="0.10923" d="M252.579,-77.7536C256.757,-73.3498 262.507,-68.2965 268.796,-65.6985 387.124,-16.8151 721.222,-66.6702 843.796,-29.6985 844.855,-29.379 845.918,-29.0051 846.975,-28.5892"/>
<polygon fill="green" stroke="green" stroke-width="0.10923" points="848.698,-31.6409 856.084,-24.0446 845.573,-25.3771 848.698,-31.6409"/>
</g>
<!-- &#45;36 -->
<g id="node36" class="node"><title>&#45;36</title>
<polygon fill="lightgray" stroke="black" points="307.296,-95.9117 278.296,-95.9117 278.296,-77.9117 307.296,-77.9117 307.296,-95.9117"/>
<text text-anchor="middle" x="292.796" y="-84.7117" font-family="Times New Roman,serif" font-size="9.00">&#45;36</text>
</g>
<!-- &#45;36&#45;&gt;0 -->
<g id="edge136" class="edge"><title>&#45;36&#45;&gt;0</title>
<path fill="none" stroke="red" stroke-width="0.146316" d="M299.615,-77.8383C303.805,-73.4628 309.555,-68.4095 315.796,-65.6985 403.472,-27.6135 705.789,-18.2626 794.893,-16.3094"/>
<polygon fill="red" stroke="red" stroke-width="0.146316" points="794.973,-19.8086 804.899,-16.1021 794.828,-12.8101 794.973,-19.8086"/>
</g>
<!-- &#45;36&#45;&gt;1 -->
<g id="edge137" class="edge"><title>&#45;36&#45;&gt;1</title>
<path fill="none" stroke="red" stroke-width="0.606235" d="M299.57,-77.7322C303.745,-73.3212 309.495,-68.2679 315.796,-65.6985 454.477,-9.1433 841.185,-55.0365 988.796,-29.6985 996.546,-28.3682 1004.83,-26.1929 1012.25,-23.9563"/>
<polygon fill="red" stroke="red" stroke-width="0.606235" points="1013.55,-27.2131 1022.01,-20.8354 1011.42,-20.5452 1013.55,-27.2131"/>
</g>
<!-- &#45;36&#45;&gt;2 -->
<g id="edge138" class="edge"><title>&#45;36&#45;&gt;2</title>
<path fill="none" stroke="green" stroke-width="0.342552" d="M299.579,-77.7534C303.757,-73.3495 309.507,-68.2962 315.796,-65.6985 434.332,-16.7368 764.546,-45.682 891.796,-29.6985 908.115,-27.6487 926.286,-24.2054 940.417,-21.2651"/>
<polygon fill="green" stroke="green" stroke-width="0.342552" points="941.289,-24.6578 950.337,-19.1461 939.827,-17.8122 941.289,-24.6578"/>
</g>
<!-- &#45;36&#45;&gt;3 -->
<g id="edge139" class="edge"><title>&#45;36&#45;&gt;3</title>
<path fill="none" stroke="red" stroke-width="0.344381" d="M299.585,-77.7667C303.764,-73.3673 309.514,-68.314 315.796,-65.6985 532.937,24.7123 618.795,-98.2471 843.796,-29.6985 844.854,-29.376 845.916,-28.9997 846.972,-28.5819"/>
<polygon fill="red" stroke="red" stroke-width="0.344381" points="848.699,-31.6317 856.079,-24.0301 845.569,-25.3703 848.699,-31.6317"/>
</g>
<!-- &#45;37 -->
<g id="node37" class="node"><title>&#45;37</title>
<polygon fill="lightgray" stroke="black" points="354.296,-95.9117 325.296,-95.9117 325.296,-77.9117 354.296,-77.9117 354.296,-95.9117"/>
<text text-anchor="middle" x="339.796" y="-84.7117" font-family="Times New Roman,serif" font-size="9.00">&#45;37</text>
</g>
<!-- &#45;37&#45;&gt;0 -->
<g id="edge140" class="edge"><title>&#45;37&#45;&gt;0</title>
<path fill="none" stroke="red" stroke-width="0.283906" d="M346.625,-77.8619C350.818,-73.4942 356.568,-68.4409 362.796,-65.6985 441.437,-31.0666 711.117,-19.4261 794.815,-16.6016"/>
<polygon fill="red" stroke="red" stroke-width="0.283906" points="795.049,-20.096 804.93,-16.2732 794.821,-13.0997 795.049,-20.096"/>
</g>
<!-- &#45;37&#45;&gt;1 -->
<g id="edge141" class="edge"><title>&#45;37&#45;&gt;1</title>
<path fill="none" stroke="red" stroke-width="0.295315" d="M346.574,-77.7416C350.75,-73.3338 356.5,-68.2805 362.796,-65.6985 491.715,-12.823 851.511,-53.5471 988.796,-29.6985 996.543,-28.3527 1004.82,-26.1731 1012.24,-23.9373"/>
<polygon fill="red" stroke="red" stroke-width="0.295315" points="1013.55,-27.1948 1022.01,-20.8203 1011.42,-20.5261 1013.55,-27.1948"/>
</g>
<!-- &#45;37&#45;&gt;2 -->
<g id="edge142" class="edge"><title>&#45;37&#45;&gt;2</title>
<path fill="none" stroke="green" stroke-width="0.425844" d="M346.584,-77.7664C350.764,-73.3669 356.514,-68.3136 362.796,-65.6985 471.574,-20.4148 774.928,-44.7063 891.796,-29.6985 908.109,-27.6036 926.28,-24.1601 940.413,-21.231"/>
<polygon fill="green" stroke="green" stroke-width="0.425844" points="941.281,-24.6247 950.334,-19.1222 939.825,-17.7777 941.281,-24.6247"/>
</g>
<!-- &#45;37&#45;&gt;3 -->
<g id="edge143" class="edge"><title>&#45;37&#45;&gt;3</title>
<path fill="none" stroke="red" stroke-width="0.601049" d="M346.591,-77.7823C350.773,-73.3881 356.523,-68.3348 362.796,-65.6985 560.428,17.3589 638.934,-92.8542 843.796,-29.6985 844.853,-29.3725 845.914,-28.9933 846.97,-28.5731"/>
<polygon fill="red" stroke="red" stroke-width="0.601049" points="848.7,-31.6209 856.074,-24.0129 845.565,-25.3621 848.7,-31.6209"/>
</g>
<!-- &#45;38 -->
<g id="node38" class="node"><title>&#45;38</title>
<polygon fill="lightgray" stroke="black" points="401.296,-95.9117 372.296,-95.9117 372.296,-77.9117 401.296,-77.9117 401.296,-95.9117"/>
<text text-anchor="middle" x="386.796" y="-84.7117" font-family="Times New Roman,serif" font-size="9.00">&#45;38</text>
</g>
<!-- &#45;38&#45;&gt;0 -->
<g id="edge144" class="edge"><title>&#45;38&#45;&gt;0</title>
<path fill="none" stroke="green" stroke-width="0.291016" d="M393.638,-77.8906C397.835,-73.5325 403.585,-68.4792 409.796,-65.6985 479.345,-34.5567 716.033,-20.7638 794.379,-16.9786"/>
<polygon fill="green" stroke="green" stroke-width="0.291016" points="794.926,-20.4569 804.751,-16.4919 794.598,-13.4646 794.926,-20.4569"/>
</g>
<!-- &#45;38&#45;&gt;1 -->
<g id="edge145" class="edge"><title>&#45;38&#45;&gt;1</title>
<path fill="none" stroke="red" stroke-width="0.191977" d="M393.579,-77.7526C397.756,-73.3485 403.506,-68.2952 409.796,-65.6985 528.955,-16.502 861.834,-52.058 988.796,-29.6985 996.54,-28.3346 1004.82,-26.15 1012.24,-23.9152"/>
<polygon fill="red" stroke="red" stroke-width="0.191977" points="1013.54,-27.1735 1022.01,-20.8028 1011.42,-20.5038 1013.54,-27.1735"/>
</g>
<!-- &#45;38&#45;&gt;2 -->
<g id="edge146" class="edge"><title>&#45;38&#45;&gt;2</title>
<path fill="none" stroke="green" stroke-width="0.348661" d="M393.591,-77.7819C397.773,-73.3876 403.523,-68.3343 409.796,-65.6985 508.819,-24.0916 785.307,-43.7309 891.796,-29.6985 908.102,-27.5498 926.273,-24.1061 940.407,-21.1903"/>
<polygon fill="green" stroke="green" stroke-width="0.348661" points="941.27,-24.5853 950.331,-19.0937 939.823,-17.7365 941.27,-24.5853"/>
</g>
<!-- &#45;38&#45;&gt;3 -->
<g id="edge147" class="edge"><title>&#45;38&#45;&gt;3</title>
<path fill="none" stroke="green" stroke-width="0.115924" d="M393.599,-77.8012C397.783,-73.4133 403.533,-68.36 409.796,-65.6985 587.926,10.0088 659.065,-87.4637 843.796,-29.6985 844.852,-29.3683 845.912,-28.9856 846.966,-28.5626"/>
<polygon fill="green" stroke="green" stroke-width="0.115924" points="848.702,-31.6077 856.067,-23.9919 845.56,-25.3522 848.702,-31.6077"/>
</g>
<!-- &#45;39 -->
<g id="node39" class="node"><title>&#45;39</title>
<polygon fill="lightgray" stroke="black" points="448.296,-95.9117 419.296,-95.9117 419.296,-77.9117 448.296,-77.9117 448.296,-95.9117"/>
<text text-anchor="middle" x="433.796" y="-84.7117" font-family="Times New Roman,serif" font-size="9.00">&#45;39</text>
</g>
<!-- &#45;39&#45;&gt;0 -->
<g id="edge148" class="edge"><title>&#45;39&#45;&gt;0</title>
<path fill="none" stroke="green" stroke-width="0.491972" d="M441.053,-77.5172C445.217,-73.2669 450.801,-68.4388 456.796,-65.6985 517.479,-37.9607 722.459,-22.2089 794.502,-17.4249"/>
<polygon fill="green" stroke="green" stroke-width="0.491972" points="795.128,-20.8917 804.88,-16.7512 794.675,-13.9064 795.128,-20.8917"/>
</g>
<!-- &#45;39&#45;&gt;1 -->
<g id="edge149" class="edge"><title>&#45;39&#45;&gt;1</title>
<path fill="none" stroke="red" stroke-width="0.587289" d="M440.584,-77.7655C444.763,-73.3657 450.513,-68.3124 456.796,-65.6985 566.197,-20.1801 872.156,-50.5694 988.796,-29.6985 996.536,-28.3135 1004.81,-26.123 1012.23,-23.8893"/>
<polygon fill="red" stroke="red" stroke-width="0.587289" points="1013.53,-27.1485 1022,-20.7823 1011.41,-20.4777 1013.53,-27.1485"/>
</g>
<!-- &#45;39&#45;&gt;2 -->
<g id="edge150" class="edge"><title>&#45;39&#45;&gt;2</title>
<path fill="none" stroke="red" stroke-width="0.204016" d="M440.599,-77.8008C444.783,-73.4127 450.533,-68.3594 456.796,-65.6985 546.068,-27.7667 795.682,-42.7561 891.796,-29.6985 908.093,-27.4844 926.264,-24.0404 940.401,-21.1409"/>
<polygon fill="red" stroke="red" stroke-width="0.204016" points="941.258,-24.5374 950.326,-19.0591 939.821,-17.6864 941.258,-24.5374"/>
</g>
<!-- &#45;39&#45;&gt;3 -->
<g id="edge151" class="edge"><title>&#45;39&#45;&gt;3</title>
<path fill="none" stroke="red" stroke-width="0.346976" d="M440.609,-77.8247C444.797,-73.4446 450.547,-68.3913 456.796,-65.6985 615.436,2.66324 679.186,-82.0768 843.796,-29.6985 844.85,-29.363 845.909,-28.976 846.962,-28.5495"/>
<polygon fill="red" stroke="red" stroke-width="0.346976" points="848.704,-31.5913 856.059,-23.9659 845.554,-25.34 848.704,-31.5913"/>
</g>
<!-- &#45;40 -->
<g id="node40" class="node"><title>&#45;40</title>
<polygon fill="lightgray" stroke="black" points="495.296,-95.9117 466.296,-95.9117 466.296,-77.9117 495.296,-77.9117 495.296,-95.9117"/>
<text text-anchor="middle" x="480.796" y="-84.7117" font-family="Times New Roman,serif" font-size="9.00">&#45;40</text>
</g>
<!-- &#45;40&#45;&gt;0 -->
<g id="edge152" class="edge"><title>&#45;40&#45;&gt;0</title>
<path fill="none" stroke="red" stroke-width="0.827708" d="M488.457,-77.5699C492.829,-73.335 498.651,-68.5049 504.796,-65.6985 604.92,-19.9667 739.503,-15.2007 794.644,-15.3539"/>
<polygon fill="red" stroke="red" stroke-width="0.827708" points="794.841,-18.8557 804.872,-15.4438 794.903,-11.856 794.841,-18.8557"/>
</g>
<!-- &#45;40&#45;&gt;1 -->
<g id="edge153" class="edge"><title>&#45;40&#45;&gt;1</title>
<path fill="none" stroke="red" stroke-width="0.272417" d="M487.953,-77.7793C492.339,-73.3841 498.339,-68.3308 504.796,-65.6985 604.668,-24.9835 882.693,-49.0497 988.796,-29.6985 996.531,-28.2876 1004.81,-26.09 1012.23,-23.8577"/>
<polygon fill="red" stroke="red" stroke-width="0.272417" points="1013.53,-27.1179 1022,-20.7572 1011.41,-20.4458 1013.53,-27.1179"/>
</g>
<!-- &#45;40&#45;&gt;2 -->
<g id="edge154" class="edge"><title>&#45;40&#45;&gt;2</title>
<path fill="none" stroke="red" stroke-width="0.307792" d="M487.972,-77.824C492.363,-73.4437 498.363,-68.3904 504.796,-65.6985 664.146,0.990612 720.746,-53.8244 891.796,-29.6985 908.082,-27.4014 926.253,-23.9571 940.392,-21.0782"/>
<polygon fill="red" stroke="red" stroke-width="0.307792" points="941.241,-24.4765 950.32,-19.0151 939.817,-17.6229 941.241,-24.4765"/>
</g>
<!-- &#45;40&#45;&gt;3 -->
<g id="edge155" class="edge"><title>&#45;40&#45;&gt;3</title>
<path fill="none" stroke="green" stroke-width="0.306367" d="M487.985,-77.8555C492.381,-73.4856 498.381,-68.4323 504.796,-65.6985 644.179,-6.2948 699.718,-76.5804 843.796,-29.6985 844.676,-29.4119 845.56,-29.0902 846.442,-28.7401"/>
<polygon fill="green" stroke="green" stroke-width="0.306367" points="848.15,-31.7997 855.555,-24.2217 845.041,-25.5282 848.15,-31.7997"/>
</g>
<!-- 245&#45;&gt;1 -->
<g id="edge159" class="edge"><title>245&#45;&gt;1</title>
<path fill="none" stroke="green" stroke-width="0.27626" d="M1952.72,-73.9232C1947.24,-70.6707 1940.98,-67.5417 1934.8,-65.6985 1764.65,-15.0078 1188.68,-15.0262 1061,-15.6744"/>
<polygon fill="green" stroke="green" stroke-width="0.27626" points="1060.67,-12.1761 1050.69,-15.7334 1060.71,-19.176 1060.67,-12.1761"/>
</g>
<!-- 214&#45;&gt;1 -->
<g id="edge157" class="edge"><title>214&#45;&gt;1</title>
<path fill="none" stroke="red" stroke-width="0.132053" d="M2050.73,-73.9025C2045.25,-70.6492 2038.99,-67.5249 2032.8,-65.6985 1937.11,-37.4739 1207.02,-19.695 1061.12,-16.4041"/>
<polygon fill="red" stroke="red" stroke-width="0.132053" points="1061,-12.9007 1050.93,-16.1765 1060.85,-19.899 1061,-12.9007"/>
</g>
</g>
</svg>
