<?xml version="1.0" encoding="UTF-8" standalone="no"?>
<!DOCTYPE svg PUBLIC "-//W3C//DTD SVG 1.1//EN"
 "http://www.w3.org/Graphics/SVG/1.1/DTD/svg11.dtd">
<!-- Generated by graphviz version 2.38.0 (20140413.2041)
 -->
<!-- Title: %3 Pages: 1 -->
<svg width="1826pt" height="92pt"
 viewBox="0.00 0.00 1826.00 91.70" xmlns="http://www.w3.org/2000/svg" xmlns:xlink="http://www.w3.org/1999/xlink">
<g id="graph0" class="graph" transform="scale(1 1) rotate(0) translate(4 87.6985)">
<title>%3</title>
<polygon fill="white" stroke="none" points="-4,4 -4,-87.6985 1822,-87.6985 1822,4 -4,4"/>
<!-- &#45;1 -->
<g id="node1" class="node"><title>&#45;1</title>
<polygon fill="lightgray" stroke="black" points="1608,-83.6985 1584,-83.6985 1584,-65.6985 1608,-65.6985 1608,-83.6985"/>
<text text-anchor="middle" x="1596" y="-72.4985" font-family="Times New Roman,serif" font-size="9.00">&#45;1</text>
</g>
<!-- 0 -->
<g id="node41" class="node"><title>0</title>
<ellipse fill="lightblue" stroke="black" cx="940" cy="-14.8492" rx="14.7" ry="14.7"/>
<text text-anchor="middle" x="940" y="-12.6492" font-family="Times New Roman,serif" font-size="9.00">0</text>
</g>
<!-- &#45;1&#45;&gt;0 -->
<g id="edge1" class="edge"><title>&#45;1&#45;&gt;0</title>
<path fill="none" stroke="green" stroke-width="0.283217" d="M1583.75,-68.3179C1580.93,-67.2785 1577.9,-66.3207 1575,-65.6985 1309.03,-8.61537 1224.58,-107.775 964,-29.6985 962.94,-29.3809 961.877,-29.0086 960.82,-28.594"/>
<polygon fill="green" stroke="green" stroke-width="0.283217" points="962.221,-25.3817 951.709,-24.0542 959.099,-31.6469 962.221,-25.3817"/>
</g>
<!-- 1 -->
<g id="node42" class="node"><title>1</title>
<ellipse fill="lightblue" stroke="black" cx="988" cy="-14.8492" rx="14.7" ry="14.7"/>
<text text-anchor="middle" x="988" y="-12.6492" font-family="Times New Roman,serif" font-size="9.00">1</text>
</g>
<!-- &#45;1&#45;&gt;1 -->
<g id="edge2" class="edge"><title>&#45;1&#45;&gt;1</title>
<path fill="none" stroke="green" stroke-width="0.233488" d="M1583.74,-68.3734C1580.92,-67.3312 1577.89,-66.3581 1575,-65.6985 1361.93,-17.0789 1095.59,-14.8934 1013.36,-15.4996"/>
<polygon fill="green" stroke="green" stroke-width="0.233488" points="1013.17,-12.0011 1003.2,-15.5966 1013.24,-19.0008 1013.17,-12.0011"/>
</g>
<!-- 2 -->
<g id="node43" class="node"><title>2</title>
<ellipse fill="lightblue" stroke="black" cx="844" cy="-14.8492" rx="14.7" ry="14.7"/>
<text text-anchor="middle" x="844" y="-12.6492" font-family="Times New Roman,serif" font-size="9.00">2</text>
</g>
<!-- &#45;1&#45;&gt;2 -->
<g id="edge3" class="edge"><title>&#45;1&#45;&gt;2</title>
<path fill="none" stroke="green" stroke-width="0.169255" d="M1583.76,-68.3007C1580.93,-67.2623 1577.9,-66.3091 1575,-65.6985 1267.12,-0.902801 1169.75,-118.8 868,-29.6985 866.939,-29.3851 865.875,-29.0163 864.817,-28.6045"/>
<polygon fill="green" stroke="green" stroke-width="0.169255" points="866.216,-25.3915 855.703,-24.075 863.1,-31.66 866.216,-25.3915"/>
</g>
<!-- 3 -->
<g id="node44" class="node"><title>3</title>
<ellipse fill="lightblue" stroke="black" cx="892" cy="-14.8492" rx="14.7" ry="14.7"/>
<text text-anchor="middle" x="892" y="-12.6492" font-family="Times New Roman,serif" font-size="9.00">3</text>
</g>
<!-- &#45;1&#45;&gt;3 -->
<g id="edge4" class="edge"><title>&#45;1&#45;&gt;3</title>
<path fill="none" stroke="green" stroke-width="0.160914" d="M1583.76,-68.3087C1580.93,-67.2698 1577.9,-66.3145 1575,-65.6985 1288.07,-4.75945 1197.16,-113.287 916,-29.6985 914.939,-29.3832 913.876,-29.0127 912.818,-28.5996"/>
<polygon fill="green" stroke="green" stroke-width="0.160914" points="914.218,-25.387 903.706,-24.0654 911.099,-31.6539 914.218,-25.387"/>
</g>
<!-- &#45;2 -->
<g id="node2" class="node"><title>&#45;2</title>
<polygon fill="lightgray" stroke="black" points="1650,-83.6985 1626,-83.6985 1626,-65.6985 1650,-65.6985 1650,-83.6985"/>
<text text-anchor="middle" x="1638" y="-72.4985" font-family="Times New Roman,serif" font-size="9.00">&#45;2</text>
</g>
<!-- &#45;2&#45;&gt;0 -->
<g id="edge5" class="edge"><title>&#45;2&#45;&gt;0</title>
<path fill="none" stroke="red" stroke-width="0.169416" d="M1625.76,-68.3098C1622.93,-67.2708 1619.9,-66.3152 1617,-65.6985 1332.69,-5.24148 1242.59,-112.598 964,-29.6985 962.94,-29.3829 961.876,-29.0123 960.818,-28.599"/>
<polygon fill="red" stroke="red" stroke-width="0.169416" points="962.218,-25.3863 951.706,-24.064 959.099,-31.6531 962.218,-25.3863"/>
</g>
<!-- &#45;2&#45;&gt;1 -->
<g id="edge6" class="edge"><title>&#45;2&#45;&gt;1</title>
<path fill="none" stroke="red" stroke-width="0.137212" d="M1625.74,-68.3614C1622.92,-67.3197 1619.89,-66.35 1617,-65.6985 1386.65,-13.8162 1098.27,-13.9624 1012.89,-15.3037"/>
<polygon fill="red" stroke="red" stroke-width="0.137212" points="1012.79,-11.8048 1002.86,-15.4827 1012.92,-18.8037 1012.79,-11.8048"/>
</g>
<!-- &#45;2&#45;&gt;2 -->
<g id="edge7" class="edge"><title>&#45;2&#45;&gt;2</title>
<path fill="none" stroke="green" stroke-width="0.305613" d="M1625.76,-68.2946C1622.93,-67.2565 1619.9,-66.305 1617,-65.6985 1453.89,-31.6131 1027.88,-76.6617 868,-29.6985 866.938,-29.3867 865.874,-29.0191 864.815,-28.6083"/>
<polygon fill="green" stroke="green" stroke-width="0.305613" points="866.214,-25.3951 855.701,-24.0825 863.101,-31.6647 866.214,-25.3951"/>
</g>
<!-- &#45;2&#45;&gt;3 -->
<g id="edge8" class="edge"><title>&#45;2&#45;&gt;3</title>
<path fill="none" stroke="red" stroke-width="0.130126" d="M1625.76,-68.3017C1622.93,-67.2632 1619.9,-66.3098 1617,-65.6985 1311.74,-1.38492 1215.18,-118.111 916,-29.6985 914.939,-29.3849 913.875,-29.0159 912.817,-28.6039"/>
<polygon fill="red" stroke="red" stroke-width="0.130126" points="914.216,-25.391 903.703,-24.0739 911.1,-31.6593 914.216,-25.391"/>
</g>
<!-- &#45;3 -->
<g id="node3" class="node"><title>&#45;3</title>
<polygon fill="lightgray" stroke="black" points="1692,-83.6985 1668,-83.6985 1668,-65.6985 1692,-65.6985 1692,-83.6985"/>
<text text-anchor="middle" x="1680" y="-72.4985" font-family="Times New Roman,serif" font-size="9.00">&#45;3</text>
</g>
<!-- &#45;3&#45;&gt;0 -->
<g id="edge9" class="edge"><title>&#45;3&#45;&gt;0</title>
<path fill="none" stroke="red" stroke-width="0.494723" d="M1667.76,-68.3026C1664.93,-67.2641 1661.9,-66.3104 1659,-65.6985 1356.36,-1.86702 1260.6,-117.422 964,-29.6985 962.939,-29.3847 961.875,-29.0155 960.817,-28.6033"/>
<polygon fill="red" stroke="red" stroke-width="0.494723" points="962.216,-25.3905 951.704,-24.0727 959.1,-31.6586 962.216,-25.3905"/>
</g>
<!-- &#45;3&#45;&gt;1 -->
<g id="edge10" class="edge"><title>&#45;3&#45;&gt;1</title>
<path fill="none" stroke="red" stroke-width="0.297658" d="M1667.75,-68.3508C1664.92,-67.3097 1661.89,-66.3429 1659,-65.6985 1532.22,-37.4719 1119.37,-20.6688 1013.12,-16.7422"/>
<polygon fill="red" stroke="red" stroke-width="0.297658" points="1013.14,-13.2407 1003.02,-16.3738 1012.88,-20.236 1013.14,-13.2407"/>
</g>
<!-- &#45;3&#45;&gt;2 -->
<g id="edge11" class="edge"><title>&#45;3&#45;&gt;2</title>
<path fill="none" stroke="red" stroke-width="0.189389" d="M1667.76,-68.2891C1664.93,-67.2513 1661.9,-66.3013 1659,-65.6985 1486.72,-29.9254 1036.89,-79.0742 868,-29.6985 866.938,-29.388 865.873,-29.0215 864.814,-28.6116"/>
<polygon fill="red" stroke="red" stroke-width="0.189389" points="866.213,-25.3982 855.699,-24.0891 863.101,-31.6689 866.213,-25.3982"/>
</g>
<!-- &#45;3&#45;&gt;3 -->
<g id="edge12" class="edge"><title>&#45;3&#45;&gt;3</title>
<path fill="none" stroke="red" stroke-width="0.329292" d="M1667.76,-68.2955C1664.93,-67.2573 1661.9,-66.3056 1659,-65.6985 1497.2,-31.8542 1074.6,-76.3171 916,-29.6985 914.938,-29.3864 913.874,-29.0187 912.816,-28.6077"/>
<polygon fill="red" stroke="red" stroke-width="0.329292" points="914.214,-25.3946 903.701,-24.0814 911.101,-31.6641 914.214,-25.3946"/>
</g>
<!-- &#45;4 -->
<g id="node4" class="node"><title>&#45;4</title>
<polygon fill="lightgray" stroke="black" points="1734,-83.6985 1710,-83.6985 1710,-65.6985 1734,-65.6985 1734,-83.6985"/>
<text text-anchor="middle" x="1722" y="-72.4985" font-family="Times New Roman,serif" font-size="9.00">&#45;4</text>
</g>
<!-- &#45;4&#45;&gt;0 -->
<g id="edge13" class="edge"><title>&#45;4&#45;&gt;0</title>
<path fill="none" stroke="red" stroke-width="0.294037" d="M1709.76,-68.2963C1706.93,-67.2581 1703.9,-66.3061 1701,-65.6985 1380.01,1.5079 1278.62,-122.246 964,-29.6985 962.939,-29.3862 961.874,-29.0183 960.816,-28.6072"/>
<polygon fill="red" stroke="red" stroke-width="0.294037" points="962.215,-25.3941 951.701,-24.0804 959.101,-31.6634 962.215,-25.3941"/>
</g>
<!-- &#45;4&#45;&gt;1 -->
<g id="edge14" class="edge"><title>&#45;4&#45;&gt;1</title>
<path fill="none" stroke="green" stroke-width="0.270269" d="M1709.75,-68.3414C1706.92,-67.3008 1703.9,-66.3366 1701,-65.6985 1565.68,-35.8809 1123.83,-20.1501 1013.26,-16.6207"/>
<polygon fill="green" stroke="green" stroke-width="0.270269" points="1013.17,-13.1163 1003.07,-16.3002 1012.95,-20.1128 1013.17,-13.1163"/>
</g>
<!-- &#45;4&#45;&gt;2 -->
<g id="edge15" class="edge"><title>&#45;4&#45;&gt;2</title>
<path fill="none" stroke="red" stroke-width="0.21514" d="M1709.76,-68.2842C1706.93,-67.2466 1703.9,-66.298 1701,-65.6985 1519.54,-28.2375 1045.9,-81.487 868,-29.6985 866.938,-29.3892 865.872,-29.0237 864.814,-28.6146"/>
<polygon fill="red" stroke="red" stroke-width="0.21514" points="866.211,-25.4011 855.697,-24.0951 863.102,-31.6727 866.211,-25.4011"/>
</g>
<!-- &#45;4&#45;&gt;3 -->
<g id="edge16" class="edge"><title>&#45;4&#45;&gt;3</title>
<path fill="none" stroke="green" stroke-width="0.253355" d="M1709.76,-68.2899C1706.93,-67.252 1703.9,-66.3018 1701,-65.6985 1530.03,-30.1665 1083.6,-78.7296 916,-29.6985 914.938,-29.3878 913.873,-29.0212 912.815,-28.6112"/>
<polygon fill="green" stroke="green" stroke-width="0.253355" points="914.213,-25.3978 903.699,-24.0882 911.101,-31.6683 914.213,-25.3978"/>
</g>
<!-- &#45;5 -->
<g id="node5" class="node"><title>&#45;5</title>
<polygon fill="lightgray" stroke="black" points="1776,-83.6985 1752,-83.6985 1752,-65.6985 1776,-65.6985 1776,-83.6985"/>
<text text-anchor="middle" x="1764" y="-72.4985" font-family="Times New Roman,serif" font-size="9.00">&#45;5</text>
</g>
<!-- &#45;5&#45;&gt;0 -->
<g id="edge17" class="edge"><title>&#45;5&#45;&gt;0</title>
<path fill="none" stroke="red" stroke-width="0.169096" d="M1751.76,-68.2906C1748.93,-67.2527 1745.9,-66.3023 1743,-65.6985 1573.34,-30.4076 1130.32,-78.3849 964,-29.6985 962.938,-29.3876 961.873,-29.0209 960.815,-28.6107"/>
<polygon fill="red" stroke="red" stroke-width="0.169096" points="962.213,-25.3974 951.699,-24.0873 959.101,-31.6678 962.213,-25.3974"/>
</g>
<!-- &#45;5&#45;&gt;1 -->
<g id="edge18" class="edge"><title>&#45;5&#45;&gt;1</title>
<path fill="none" stroke="red" stroke-width="0.219083" d="M1751.75,-68.3331C1748.92,-67.293 1745.9,-66.3309 1743,-65.6985 1599.08,-34.2768 1127.84,-19.6504 1013.27,-16.5083"/>
<polygon fill="red" stroke="red" stroke-width="0.219083" points="1013.13,-13.0033 1003.04,-16.2324 1012.94,-20.0007 1013.13,-13.0033"/>
</g>
<!-- &#45;5&#45;&gt;2 -->
<g id="edge19" class="edge"><title>&#45;5&#45;&gt;2</title>
<path fill="none" stroke="green" stroke-width="0.30645" d="M1751.76,-68.2797C1748.94,-67.2424 1745.9,-66.295 1743,-65.6985 1552.37,-26.5496 1054.91,-83.8999 868,-29.6985 866.937,-29.3903 865.872,-29.0257 864.813,-28.6174"/>
<polygon fill="green" stroke="green" stroke-width="0.30645" points="866.21,-25.4037 855.696,-24.1005 863.102,-31.6761 866.21,-25.4037"/>
</g>
<!-- &#45;5&#45;&gt;3 -->
<g id="edge20" class="edge"><title>&#45;5&#45;&gt;3</title>
<path fill="none" stroke="green" stroke-width="0.442204" d="M1751.76,-68.2849C1748.93,-67.2472 1745.9,-66.2984 1743,-65.6985 1562.85,-28.4787 1092.61,-81.1423 916,-29.6985 914.938,-29.3891 913.873,-29.0234 912.814,-28.6142"/>
<polygon fill="green" stroke="green" stroke-width="0.442204" points="914.211,-25.4007 903.697,-24.0943 911.102,-31.6722 914.211,-25.4007"/>
</g>
<!-- &#45;6 -->
<g id="node6" class="node"><title>&#45;6</title>
<polygon fill="lightgray" stroke="black" points="1818,-83.6985 1794,-83.6985 1794,-65.6985 1818,-65.6985 1818,-83.6985"/>
<text text-anchor="middle" x="1806" y="-72.4985" font-family="Times New Roman,serif" font-size="9.00">&#45;6</text>
</g>
<!-- &#45;6&#45;&gt;0 -->
<g id="edge21" class="edge"><title>&#45;6&#45;&gt;0</title>
<path fill="none" stroke="green" stroke-width="0.147481" d="M1793.76,-68.2856C1790.93,-67.2479 1787.9,-66.2989 1785,-65.6985 1606.16,-28.7198 1139.32,-80.7976 964,-29.6985 962.938,-29.3889 961.873,-29.0231 960.814,-28.6138"/>
<polygon fill="green" stroke="green" stroke-width="0.147481" points="962.212,-25.4003 951.698,-24.0935 959.102,-31.6716 962.212,-25.4003"/>
</g>
<!-- &#45;6&#45;&gt;1 -->
<g id="edge22" class="edge"><title>&#45;6&#45;&gt;1</title>
<path fill="none" stroke="red" stroke-width="0.282285" d="M1793.75,-68.3257C1790.93,-67.2859 1787.9,-66.3259 1785,-65.6985 1632.4,-32.6597 1131.38,-19.1698 1013.15,-16.4046"/>
<polygon fill="red" stroke="red" stroke-width="0.282285" points="1013.01,-12.9004 1002.93,-16.1701 1012.85,-19.8986 1013.01,-12.9004"/>
</g>
<!-- &#45;6&#45;&gt;2 -->
<g id="edge23" class="edge"><title>&#45;6&#45;&gt;2</title>
<path fill="none" stroke="red" stroke-width="0.213055" d="M1793.76,-68.2757C1790.94,-67.2385 1787.91,-66.2922 1785,-65.6985 1585.2,-24.8614 1063.92,-86.313 868,-29.6985 866.937,-29.3913 865.871,-29.0276 864.812,-28.6199"/>
<polygon fill="red" stroke="red" stroke-width="0.213055" points="866.209,-25.406 855.694,-24.1055 863.103,-31.6792 866.209,-25.406"/>
</g>
<!-- &#45;6&#45;&gt;3 -->
<g id="edge24" class="edge"><title>&#45;6&#45;&gt;3</title>
<path fill="none" stroke="red" stroke-width="0.168516" d="M1793.76,-68.2804C1790.94,-67.2429 1787.9,-66.2954 1785,-65.6985 1595.68,-26.7907 1101.62,-83.5552 916,-29.6985 914.937,-29.3902 913.872,-29.0255 912.813,-28.617"/>
<polygon fill="red" stroke="red" stroke-width="0.168516" points="914.21,-25.4033 903.696,-24.0998 911.102,-31.6756 914.21,-25.4033"/>
</g>
<!-- &#45;7 -->
<g id="node7" class="node"><title>&#45;7</title>
<polygon fill="lightgray" stroke="black" points="24,-83.6985 0,-83.6985 0,-65.6985 24,-65.6985 24,-83.6985"/>
<text text-anchor="middle" x="12" y="-72.4985" font-family="Times New Roman,serif" font-size="9.00">&#45;7</text>
</g>
<!-- &#45;7&#45;&gt;0 -->
<g id="edge25" class="edge"><title>&#45;7&#45;&gt;0</title>
<path fill="none" stroke="green" stroke-width="0.430894" d="M24.2385,-68.2789C27.0646,-67.2416 30.0954,-66.2944 33,-65.6985 225.378,-26.228 727.375,-84.3596 916,-29.6985 917.063,-29.3905 918.128,-29.0261 919.187,-28.6179"/>
<polygon fill="green" stroke="green" stroke-width="0.430894" points="920.897,-31.6767 928.305,-24.1015 917.79,-25.4041 920.897,-31.6767"/>
</g>
<!-- &#45;7&#45;&gt;1 -->
<g id="edge26" class="edge"><title>&#45;7&#45;&gt;1</title>
<path fill="none" stroke="red" stroke-width="0.263049" d="M24.2376,-68.2744C27.0637,-67.2373 30.0948,-66.2914 33,-65.6985 235.862,-24.2987 765.078,-87.1174 964,-29.6985 965.063,-29.3916 966.129,-29.0281 967.188,-28.6206"/>
<polygon fill="red" stroke="red" stroke-width="0.263049" points="968.897,-31.6802 976.306,-24.107 965.791,-25.4067 968.897,-31.6802"/>
</g>
<!-- &#45;7&#45;&gt;2 -->
<g id="edge27" class="edge"><title>&#45;7&#45;&gt;2</title>
<path fill="none" stroke="green" stroke-width="0.336165" d="M24.2479,-68.3234C27.0735,-67.2837 30.1017,-66.3244 33,-65.6985 188.45,-32.129 699.204,-19.0227 818.791,-16.3746"/>
<polygon fill="green" stroke="green" stroke-width="0.336165" points="819.196,-19.8667 829.118,-16.1506 819.044,-12.8683 819.196,-19.8667"/>
</g>
<!-- &#45;7&#45;&gt;3 -->
<g id="edge28" class="edge"><title>&#45;7&#45;&gt;3</title>
<path fill="none" stroke="green" stroke-width="0.231754" d="M24.2395,-68.284C27.0656,-67.2464 30.0961,-66.2978 33,-65.6985 214.894,-28.1572 689.672,-81.6019 868,-29.6985 869.062,-29.3893 870.128,-29.0238 871.186,-28.6148"/>
<polygon fill="green" stroke="green" stroke-width="0.231754" points="872.898,-31.6729 880.303,-24.0954 869.789,-25.4012 872.898,-31.6729"/>
</g>
<!-- &#45;8 -->
<g id="node8" class="node"><title>&#45;8</title>
<polygon fill="lightgray" stroke="black" points="66,-83.6985 42,-83.6985 42,-65.6985 66,-65.6985 66,-83.6985"/>
<text text-anchor="middle" x="54" y="-72.4985" font-family="Times New Roman,serif" font-size="9.00">&#45;8</text>
</g>
<!-- &#45;8&#45;&gt;0 -->
<g id="edge29" class="edge"><title>&#45;8&#45;&gt;0</title>
<path fill="none" stroke="red" stroke-width="0.177846" d="M66.2394,-68.2833C69.0655,-67.2457 72.096,-66.2974 75,-65.6985 258.205,-27.916 736.385,-81.9466 916,-29.6985 917.062,-29.3894 918.128,-29.0241 919.187,-28.6152"/>
<polygon fill="red" stroke="red" stroke-width="0.177846" points="920.898,-31.6734 928.303,-24.0962 917.789,-25.4016 920.898,-31.6734"/>
</g>
<!-- &#45;8&#45;&gt;1 -->
<g id="edge30" class="edge"><title>&#45;8&#45;&gt;1</title>
<path fill="none" stroke="red" stroke-width="0.18989" d="M66.2384,-68.2784C69.0645,-67.241 72.0953,-66.294 75,-65.6985 268.688,-25.9869 774.088,-84.7043 964,-29.6985 965.063,-29.3907 966.128,-29.0264 967.187,-28.6182"/>
<polygon fill="red" stroke="red" stroke-width="0.18989" points="968.897,-31.6772 976.305,-24.1022 965.79,-25.4045 968.897,-31.6772"/>
</g>
<!-- &#45;8&#45;&gt;2 -->
<g id="edge31" class="edge"><title>&#45;8&#45;&gt;2</title>
<path fill="none" stroke="green" stroke-width="0.301862" d="M66.2494,-68.3305C69.075,-67.2905 72.1028,-66.3292 75,-65.6985 221.902,-33.7177 703.58,-19.4689 818.988,-16.4667"/>
<polygon fill="green" stroke="green" stroke-width="0.301862" points="819.082,-19.9655 828.989,-16.211 818.903,-12.9678 819.082,-19.9655"/>
</g>
<!-- &#45;8&#45;&gt;3 -->
<g id="edge32" class="edge"><title>&#45;8&#45;&gt;3</title>
<path fill="none" stroke="green" stroke-width="0.543888" d="M66.2406,-68.2889C69.0666,-67.251 72.0968,-66.3011 75,-65.6985 247.722,-29.845 698.681,-79.1891 868,-29.6985 869.062,-29.3881 870.127,-29.0216 871.186,-28.6118"/>
<polygon fill="green" stroke="green" stroke-width="0.543888" points="872.899,-31.6691 880.301,-24.0894 869.787,-25.3984 872.899,-31.6691"/>
</g>
<!-- &#45;9 -->
<g id="node9" class="node"><title>&#45;9</title>
<polygon fill="lightgray" stroke="black" points="108,-83.6985 84,-83.6985 84,-65.6985 108,-65.6985 108,-83.6985"/>
<text text-anchor="middle" x="96" y="-72.4985" font-family="Times New Roman,serif" font-size="9.00">&#45;9</text>
</g>
<!-- &#45;9&#45;&gt;0 -->
<g id="edge33" class="edge"><title>&#45;9&#45;&gt;0</title>
<path fill="none" stroke="red" stroke-width="0.115832" d="M108.24,-68.2882C111.066,-67.2503 114.097,-66.3006 117,-65.6985 291.032,-29.6039 745.394,-79.5338 916,-29.6985 917.062,-29.3882 918.127,-29.022 919.186,-28.6122"/>
<polygon fill="red" stroke="red" stroke-width="0.115832" points="920.898,-31.6697 928.301,-24.0903 917.788,-25.3988 920.898,-31.6697"/>
</g>
<!-- &#45;9&#45;&gt;1 -->
<g id="edge34" class="edge"><title>&#45;9&#45;&gt;1</title>
<path fill="none" stroke="green" stroke-width="0.372484" d="M108.239,-68.2827C111.065,-67.2451 114.096,-66.2969 117,-65.6985 301.515,-27.6749 783.098,-82.2913 964,-29.6985 965.062,-29.3896 966.128,-29.0244 967.187,-28.6156"/>
<polygon fill="green" stroke="green" stroke-width="0.372484" points="968.898,-31.6739 976.303,-24.097 965.789,-25.402 968.898,-31.6739"/>
</g>
<!-- &#45;9&#45;&gt;2 -->
<g id="edge35" class="edge"><title>&#45;9&#45;&gt;2</title>
<path fill="none" stroke="red" stroke-width="0.265184" d="M108.251,-68.3386C111.077,-67.2981 114.104,-66.3346 117,-65.6985 255.129,-35.3579 706.478,-19.9918 818.608,-16.5857"/>
<polygon fill="red" stroke="red" stroke-width="0.265184" points="819.044,-20.0743 828.934,-16.277 818.834,-13.0775 819.044,-20.0743"/>
</g>
<!-- &#45;9&#45;&gt;3 -->
<g id="edge36" class="edge"><title>&#45;9&#45;&gt;3</title>
<path fill="none" stroke="red" stroke-width="0.363546" d="M108.242,-68.2943C111.068,-67.2562 114.098,-66.3048 117,-65.6985 280.55,-31.5328 707.689,-76.7766 868,-29.6985 869.062,-29.3867 870.126,-29.0192 871.185,-28.6084"/>
<polygon fill="red" stroke="red" stroke-width="0.363546" points="872.899,-31.6649 880.299,-24.0828 869.786,-25.3952 872.899,-31.6649"/>
</g>
<!-- &#45;10 -->
<g id="node10" class="node"><title>&#45;10</title>
<polygon fill="lightgray" stroke="black" points="155.5,-83.6985 126.5,-83.6985 126.5,-65.6985 155.5,-65.6985 155.5,-83.6985"/>
<text text-anchor="middle" x="141" y="-72.4985" font-family="Times New Roman,serif" font-size="9.00">&#45;10</text>
</g>
<!-- &#45;10&#45;&gt;0 -->
<g id="edge37" class="edge"><title>&#45;10&#45;&gt;0</title>
<path fill="none" stroke="red" stroke-width="0.369423" d="M155.924,-67.8166C158.578,-66.9701 161.344,-66.2129 164,-65.6985 328.251,-33.8906 755.475,-76.834 916,-29.6985 917.062,-29.3868 918.126,-29.0193 919.185,-28.6085"/>
<polygon fill="red" stroke="red" stroke-width="0.369423" points="920.899,-31.665 928.299,-24.083 917.786,-25.3953 920.899,-31.665"/>
</g>
<!-- &#45;10&#45;&gt;1 -->
<g id="edge38" class="edge"><title>&#45;10&#45;&gt;1</title>
<path fill="none" stroke="green" stroke-width="0.20017" d="M155.922,-67.8101C158.577,-66.9644 161.343,-66.2091 164,-65.6985 338.76,-32.1152 793.179,-79.5912 964,-29.6985 965.062,-29.3883 966.127,-29.022 967.186,-28.6123"/>
<polygon fill="green" stroke="green" stroke-width="0.20017" points="968.898,-31.6697 976.301,-24.0905 965.788,-25.3989 968.898,-31.6697"/>
</g>
<!-- &#45;10&#45;&gt;2 -->
<g id="edge39" class="edge"><title>&#45;10&#45;&gt;2</title>
<path fill="none" stroke="green" stroke-width="0.33415" d="M155.935,-67.8733C158.588,-67.0205 161.35,-66.2465 164,-65.6985 415.487,-13.6827 729.095,-14.0285 818.916,-15.3442"/>
<polygon fill="green" stroke="green" stroke-width="0.33415" points="818.91,-18.8445 828.967,-15.5102 819.026,-11.8454 818.91,-18.8445"/>
</g>
<!-- &#45;10&#45;&gt;3 -->
<g id="edge40" class="edge"><title>&#45;10&#45;&gt;3</title>
<path fill="none" stroke="red" stroke-width="0.263488" d="M155.925,-67.8239C158.579,-66.9766 161.344,-66.2172 164,-65.6985 471.486,-5.63305 567.538,-118.456 868,-29.6985 869.061,-29.385 870.125,-29.0161 871.183,-28.6042"/>
<polygon fill="red" stroke="red" stroke-width="0.263488" points="872.9,-31.6597 880.297,-24.0745 869.784,-25.3913 872.9,-31.6597"/>
</g>
<!-- &#45;11 -->
<g id="node11" class="node"><title>&#45;11</title>
<polygon fill="lightgray" stroke="black" points="202.5,-83.6985 173.5,-83.6985 173.5,-65.6985 202.5,-65.6985 202.5,-83.6985"/>
<text text-anchor="middle" x="188" y="-72.4985" font-family="Times New Roman,serif" font-size="9.00">&#45;11</text>
</g>
<!-- &#45;11&#45;&gt;0 -->
<g id="edge41" class="edge"><title>&#45;11&#45;&gt;0</title>
<path fill="none" stroke="red" stroke-width="0.362543" d="M202.925,-67.8237C205.579,-66.9765 208.344,-66.2171 211,-65.6985 518.924,-5.55909 615.109,-118.571 916,-29.6985 917.061,-29.3851 918.125,-29.0162 919.183,-28.6043"/>
<polygon fill="red" stroke="red" stroke-width="0.362543" points="920.9,-31.6598 928.297,-24.0746 917.784,-25.3914 920.9,-31.6598"/>
</g>
<!-- &#45;11&#45;&gt;1 -->
<g id="edge42" class="edge"><title>&#45;11&#45;&gt;1</title>
<path fill="none" stroke="red" stroke-width="0.120217" d="M202.924,-67.8164C205.578,-66.97 208.344,-66.2128 211,-65.6985 375.47,-33.8536 803.26,-76.8914 964,-29.6985 965.062,-29.3868 966.126,-29.0193 967.185,-28.6086"/>
<polygon fill="red" stroke="red" stroke-width="0.120217" points="968.899,-31.6651 976.299,-24.0831 965.786,-25.3954 968.899,-31.6651"/>
</g>
<!-- &#45;11&#45;&gt;2 -->
<g id="edge43" class="edge"><title>&#45;11&#45;&gt;2</title>
<path fill="none" stroke="green" stroke-width="0.465739" d="M202.937,-67.8854C205.59,-67.0313 208.352,-66.2537 211,-65.6985 443.56,-16.941 733.262,-14.9498 819.003,-15.5378"/>
<polygon fill="green" stroke="green" stroke-width="0.465739" points="819.05,-19.0382 829.081,-15.6262 819.112,-12.0385 819.05,-19.0382"/>
</g>
<!-- &#45;11&#45;&gt;3 -->
<g id="edge44" class="edge"><title>&#45;11&#45;&gt;3</title>
<path fill="none" stroke="green" stroke-width="0.143273" d="M202.927,-67.832C205.581,-66.9839 208.345,-66.2221 211,-65.6985 497.91,-9.10886 587.694,-113.058 868,-29.6985 869.061,-29.3831 870.124,-29.0126 871.182,-28.5994"/>
<polygon fill="green" stroke="green" stroke-width="0.143273" points="872.901,-31.6537 880.294,-24.0649 869.782,-25.3868 872.901,-31.6537"/>
</g>
<!-- &#45;12 -->
<g id="node12" class="node"><title>&#45;12</title>
<polygon fill="lightgray" stroke="black" points="249.5,-83.6985 220.5,-83.6985 220.5,-65.6985 249.5,-65.6985 249.5,-83.6985"/>
<text text-anchor="middle" x="235" y="-72.4985" font-family="Times New Roman,serif" font-size="9.00">&#45;12</text>
</g>
<!-- &#45;12&#45;&gt;0 -->
<g id="edge45" class="edge"><title>&#45;12&#45;&gt;0</title>
<path fill="none" stroke="red" stroke-width="0.297393" d="M249.927,-67.8318C252.581,-66.9837 255.345,-66.222 258,-65.6985 545.348,-9.03491 635.266,-113.172 916,-29.6985 917.061,-29.3831 918.124,-29.0127 919.182,-28.5995"/>
<polygon fill="red" stroke="red" stroke-width="0.297393" points="920.901,-31.6538 928.294,-24.0651 917.782,-25.3869 920.901,-31.6538"/>
</g>
<!-- &#45;12&#45;&gt;1 -->
<g id="edge46" class="edge"><title>&#45;12&#45;&gt;1</title>
<path fill="none" stroke="green" stroke-width="0.128559" d="M249.925,-67.8235C252.579,-66.9763 255.344,-66.217 258,-65.6985 566.362,-5.48513 662.68,-118.685 964,-29.6985 965.061,-29.3851 966.125,-29.0162 967.183,-28.6044"/>
<polygon fill="green" stroke="green" stroke-width="0.128559" points="968.9,-31.6599 976.297,-24.0748 965.784,-25.3915 968.9,-31.6599"/>
</g>
<!-- &#45;12&#45;&gt;2 -->
<g id="edge47" class="edge"><title>&#45;12&#45;&gt;2</title>
<path fill="none" stroke="green" stroke-width="0.304862" d="M249.94,-67.8994C252.593,-67.0437 255.354,-66.262 258,-65.6985 471.389,-20.2609 736.816,-15.9455 818.744,-15.7605"/>
<polygon fill="green" stroke="green" stroke-width="0.304862" points="818.857,-19.2606 828.856,-15.7576 818.855,-12.2606 818.857,-19.2606"/>
</g>
<!-- &#45;12&#45;&gt;3 -->
<g id="edge48" class="edge"><title>&#45;12&#45;&gt;3</title>
<path fill="none" stroke="green" stroke-width="0.111887" d="M249.928,-67.8415C252.582,-66.9922 255.347,-66.2277 258,-65.6985 524.338,-12.584 607.848,-107.66 868,-29.6985 869.06,-29.3809 870.123,-29.0085 871.18,-28.5939"/>
<polygon fill="green" stroke="green" stroke-width="0.111887" points="872.901,-31.6467 880.291,-24.0539 869.779,-25.3815 872.901,-31.6467"/>
</g>
<!-- &#45;13 -->
<g id="node13" class="node"><title>&#45;13</title>
<polygon fill="lightgray" stroke="black" points="296.5,-83.6985 267.5,-83.6985 267.5,-65.6985 296.5,-65.6985 296.5,-83.6985"/>
<text text-anchor="middle" x="282" y="-72.4985" font-family="Times New Roman,serif" font-size="9.00">&#45;13</text>
</g>
<!-- &#45;13&#45;&gt;0 -->
<g id="edge49" class="edge"><title>&#45;13&#45;&gt;0</title>
<path fill="none" stroke="green" stroke-width="0.331698" d="M296.928,-67.8412C299.582,-66.992 302.346,-66.2275 305,-65.6985 571.776,-12.5101 655.419,-107.775 916,-29.6985 917.06,-29.3809 918.123,-29.0086 919.18,-28.594"/>
<polygon fill="green" stroke="green" stroke-width="0.331698" points="920.901,-31.6469 928.291,-24.0542 917.779,-25.3817 920.901,-31.6469"/>
</g>
<!-- &#45;13&#45;&gt;1 -->
<g id="edge50" class="edge"><title>&#45;13&#45;&gt;1</title>
<path fill="none" stroke="red" stroke-width="0.131689" d="M296.927,-67.8317C299.581,-66.9835 302.345,-66.2219 305,-65.6985 592.786,-8.96097 682.837,-113.287 964,-29.6985 965.061,-29.3832 966.124,-29.0127 967.182,-28.5996"/>
<polygon fill="red" stroke="red" stroke-width="0.131689" points="968.901,-31.6539 976.294,-24.0654 965.782,-25.387 968.901,-31.6539"/>
</g>
<!-- &#45;13&#45;&gt;2 -->
<g id="edge51" class="edge"><title>&#45;13&#45;&gt;2</title>
<path fill="none" stroke="green" stroke-width="0.331827" d="M296.944,-67.9158C299.596,-67.0583 302.356,-66.2717 305,-65.6985 499.333,-23.5705 740.645,-17.028 818.514,-16.0259"/>
<polygon fill="green" stroke="green" stroke-width="0.331827" points="818.831,-19.5227 828.792,-15.9146 818.755,-12.5231 818.831,-19.5227"/>
</g>
<!-- &#45;13&#45;&gt;3 -->
<g id="edge52" class="edge"><title>&#45;13&#45;&gt;3</title>
<path fill="none" stroke="green" stroke-width="0.278467" d="M296.931,-67.8524C299.584,-67.002 302.348,-66.2342 305,-65.6985 550.77,-16.0584 627.997,-102.264 868,-29.6985 869.059,-29.3783 870.122,-29.0038 871.178,-28.5874"/>
<polygon fill="green" stroke="green" stroke-width="0.278467" points="872.902,-31.6387 880.287,-24.0411 869.776,-25.3755 872.902,-31.6387"/>
</g>
<!-- &#45;14 -->
<g id="node14" class="node"><title>&#45;14</title>
<polygon fill="lightgray" stroke="black" points="343.5,-83.6985 314.5,-83.6985 314.5,-65.6985 343.5,-65.6985 343.5,-83.6985"/>
<text text-anchor="middle" x="329" y="-72.4985" font-family="Times New Roman,serif" font-size="9.00">&#45;14</text>
</g>
<!-- &#45;14&#45;&gt;0 -->
<g id="edge53" class="edge"><title>&#45;14&#45;&gt;0</title>
<path fill="none" stroke="red" stroke-width="0.14159" d="M343.931,-67.8522C346.584,-67.0018 349.348,-66.234 352,-65.6985 598.208,-15.9844 675.569,-102.379 916,-29.6985 917.059,-29.3783 918.122,-29.0039 919.178,-28.5876"/>
<polygon fill="red" stroke="red" stroke-width="0.14159" points="920.902,-31.6389 928.287,-24.0414 917.776,-25.3756 920.902,-31.6389"/>
</g>
<!-- &#45;14&#45;&gt;1 -->
<g id="edge54" class="edge"><title>&#45;14&#45;&gt;1</title>
<path fill="none" stroke="green" stroke-width="0.109072" d="M343.928,-67.841C346.582,-66.9919 349.346,-66.2274 352,-65.6985 619.214,-12.4362 702.99,-107.89 964,-29.6985 965.06,-29.381 966.123,-29.0087 967.18,-28.5941"/>
<polygon fill="green" stroke="green" stroke-width="0.109072" points="968.901,-31.6471 976.291,-24.0544 965.779,-25.3818 968.901,-31.6471"/>
</g>
<!-- &#45;14&#45;&gt;2 -->
<g id="edge55" class="edge"><title>&#45;14&#45;&gt;2</title>
<path fill="none" stroke="green" stroke-width="0.182574" d="M343.948,-67.9353C346.6,-67.0757 349.358,-66.2833 352,-65.6985 527.808,-26.7799 745.78,-18.172 818.825,-16.3318"/>
<polygon fill="green" stroke="green" stroke-width="0.182574" points="818.987,-19.8291 828.904,-16.0987 818.825,-12.831 818.987,-19.8291"/>
</g>
<!-- &#45;14&#45;&gt;3 -->
<g id="edge56" class="edge"><title>&#45;14&#45;&gt;3</title>
<path fill="none" stroke="green" stroke-width="0.314993" d="M343.933,-67.8654C346.587,-67.0135 349.349,-66.2419 352,-65.6985 577.207,-19.5316 648.141,-96.87 868,-29.6985 869.058,-29.3752 870.12,-28.9982 871.176,-28.5798"/>
<polygon fill="green" stroke="green" stroke-width="0.314993" points="872.904,-31.6291 880.282,-24.026 869.773,-25.3683 872.904,-31.6291"/>
</g>
<!-- &#45;15 -->
<g id="node15" class="node"><title>&#45;15</title>
<polygon fill="lightgray" stroke="black" points="390.5,-83.6985 361.5,-83.6985 361.5,-65.6985 390.5,-65.6985 390.5,-83.6985"/>
<text text-anchor="middle" x="376" y="-72.4985" font-family="Times New Roman,serif" font-size="9.00">&#45;15</text>
</g>
<!-- &#45;15&#45;&gt;0 -->
<g id="edge57" class="edge"><title>&#45;15&#45;&gt;0</title>
<path fill="none" stroke="red" stroke-width="0.203519" d="M390.933,-67.8651C393.587,-67.0133 396.349,-66.2417 399,-65.6985 624.645,-19.4577 695.713,-96.9848 916,-29.6985 917.058,-29.3753 918.12,-28.9983 919.176,-28.58"/>
<polygon fill="red" stroke="red" stroke-width="0.203519" points="920.904,-31.6294 928.282,-24.0264 917.773,-25.3685 920.904,-31.6294"/>
</g>
<!-- &#45;15&#45;&gt;1 -->
<g id="edge58" class="edge"><title>&#45;15&#45;&gt;1</title>
<path fill="none" stroke="red" stroke-width="0.156578" d="M390.931,-67.8519C393.584,-67.0016 396.348,-66.2339 399,-65.6985 645.645,-15.9105 723.14,-102.494 964,-29.6985 965.059,-29.3784 966.122,-29.004 967.178,-28.5877"/>
<polygon fill="red" stroke="red" stroke-width="0.156578" points="968.902,-31.639 976.287,-24.0417 965.776,-25.3758 968.902,-31.639"/>
</g>
<!-- &#45;15&#45;&gt;2 -->
<g id="edge59" class="edge"><title>&#45;15&#45;&gt;2</title>
<path fill="none" stroke="red" stroke-width="0.176085" d="M390.954,-67.9589C393.605,-67.0966 396.361,-66.2973 399,-65.6985 556.274,-30.009 750.874,-19.427 819.026,-16.697"/>
<polygon fill="red" stroke="red" stroke-width="0.176085" points="819.344,-20.1876 829.205,-16.3111 819.079,-13.1926 819.344,-20.1876"/>
</g>
<!-- &#45;15&#45;&gt;3 -->
<g id="edge60" class="edge"><title>&#45;15&#45;&gt;3</title>
<path fill="none" stroke="green" stroke-width="0.243981" d="M390.937,-67.881C393.589,-67.0274 396.351,-66.2511 399,-65.6985 603.651,-23.0035 668.279,-91.4776 868,-29.6985 869.057,-29.3715 870.118,-28.9915 871.173,-28.5706"/>
<polygon fill="green" stroke="green" stroke-width="0.243981" points="872.905,-31.6177 880.277,-24.0079 869.768,-25.3598 872.905,-31.6177"/>
</g>
<!-- &#45;16 -->
<g id="node16" class="node"><title>&#45;16</title>
<polygon fill="lightgray" stroke="black" points="437.5,-83.6985 408.5,-83.6985 408.5,-65.6985 437.5,-65.6985 437.5,-83.6985"/>
<text text-anchor="middle" x="423" y="-72.4985" font-family="Times New Roman,serif" font-size="9.00">&#45;16</text>
</g>
<!-- &#45;16&#45;&gt;0 -->
<g id="edge61" class="edge"><title>&#45;16&#45;&gt;0</title>
<path fill="none" stroke="green" stroke-width="0.305765" d="M437.936,-67.8806C440.589,-67.027 443.351,-66.2509 446,-65.6985 651.089,-22.9297 715.851,-91.5923 916,-29.6985 917.057,-29.3716 918.118,-28.9917 919.173,-28.5709"/>
<polygon fill="green" stroke="green" stroke-width="0.305765" points="920.905,-31.618 928.277,-24.0083 917.769,-25.36 920.905,-31.618"/>
</g>
<!-- &#45;16&#45;&gt;1 -->
<g id="edge62" class="edge"><title>&#45;16&#45;&gt;1</title>
<path fill="none" stroke="red" stroke-width="0.170467" d="M437.933,-67.8648C440.586,-67.013 443.349,-66.2415 446,-65.6985 672.082,-19.3839 743.284,-97.0995 964,-29.6985 965.058,-29.3753 966.12,-28.9985 967.176,-28.5801"/>
<polygon fill="red" stroke="red" stroke-width="0.170467" points="968.904,-31.6296 976.282,-24.0267 965.773,-25.3687 968.904,-31.6296"/>
</g>
<!-- &#45;16&#45;&gt;2 -->
<g id="edge63" class="edge"><title>&#45;16&#45;&gt;2</title>
<path fill="none" stroke="red" stroke-width="0.147824" d="M437.96,-67.9879C440.61,-67.1224 443.365,-66.3145 446,-65.6985 584.49,-33.3203 755.327,-20.8764 818.751,-17.1679"/>
<polygon fill="red" stroke="red" stroke-width="0.147824" points="819.196,-20.6485 828.983,-16.592 818.802,-13.6596 819.196,-20.6485"/>
</g>
<!-- &#45;16&#45;&gt;3 -->
<g id="edge64" class="edge"><title>&#45;16&#45;&gt;3</title>
<path fill="none" stroke="red" stroke-width="0.106599" d="M437.941,-67.8999C440.593,-67.0442 443.354,-66.2623 446,-65.6985 630.105,-26.4735 688.408,-86.088 868,-29.6985 869.056,-29.367 870.115,-28.9833 871.17,-28.5595"/>
<polygon fill="red" stroke="red" stroke-width="0.106599" points="872.907,-31.6038 880.27,-23.9858 869.763,-25.3494 872.907,-31.6038"/>
</g>
<!-- &#45;17 -->
<g id="node17" class="node"><title>&#45;17</title>
<polygon fill="lightgray" stroke="black" points="484.5,-83.6985 455.5,-83.6985 455.5,-65.6985 484.5,-65.6985 484.5,-83.6985"/>
<text text-anchor="middle" x="470" y="-72.4985" font-family="Times New Roman,serif" font-size="9.00">&#45;17</text>
</g>
<!-- &#45;17&#45;&gt;0 -->
<g id="edge65" class="edge"><title>&#45;17&#45;&gt;0</title>
<path fill="none" stroke="red" stroke-width="0.141192" d="M484.94,-67.8995C487.593,-67.0438 490.354,-66.262 493,-65.6985 677.542,-26.3997 735.98,-86.2026 916,-29.6985 917.056,-29.3671 918.115,-28.9835 919.17,-28.5598"/>
<polygon fill="red" stroke="red" stroke-width="0.141192" points="920.907,-31.6042 928.27,-23.9863 917.763,-25.3496 920.907,-31.6042"/>
</g>
<!-- &#45;17&#45;&gt;1 -->
<g id="edge66" class="edge"><title>&#45;17&#45;&gt;1</title>
<path fill="none" stroke="green" stroke-width="0.434528" d="M484.936,-67.8802C487.589,-67.0267 490.351,-66.2506 493,-65.6985 698.526,-22.8558 763.422,-91.707 964,-29.6985 965.057,-29.3717 966.118,-28.9918 967.173,-28.5711"/>
<polygon fill="green" stroke="green" stroke-width="0.434528" points="968.905,-31.6183 976.277,-24.0087 965.769,-25.3602 968.905,-31.6183"/>
</g>
<!-- &#45;17&#45;&gt;2 -->
<g id="edge67" class="edge"><title>&#45;17&#45;&gt;2</title>
<path fill="none" stroke="green" stroke-width="0.222834" d="M484.969,-68.0245C487.618,-67.155 490.37,-66.3361 493,-65.6985 613.255,-36.5368 761.105,-22.4341 819.043,-17.7231"/>
<polygon fill="green" stroke="green" stroke-width="0.222834" points="819.401,-21.2058 829.093,-16.9277 818.848,-14.2276 819.401,-21.2058"/>
</g>
<!-- &#45;17&#45;&gt;3 -->
<g id="edge68" class="edge"><title>&#45;17&#45;&gt;3</title>
<path fill="none" stroke="green" stroke-width="0.283103" d="M484.946,-67.9236C487.598,-67.0653 490.357,-66.2763 493,-65.6985 656.57,-29.9408 708.525,-80.7021 868,-29.6985 869.054,-29.3614 870.112,-28.9732 871.165,-28.5456"/>
<polygon fill="green" stroke="green" stroke-width="0.283103" points="872.908,-31.5865 880.261,-23.9583 869.756,-25.3364 872.908,-31.5865"/>
</g>
<!-- &#45;18 -->
<g id="node18" class="node"><title>&#45;18</title>
<polygon fill="lightgray" stroke="black" points="531.5,-83.6985 502.5,-83.6985 502.5,-65.6985 531.5,-65.6985 531.5,-83.6985"/>
<text text-anchor="middle" x="517" y="-72.4985" font-family="Times New Roman,serif" font-size="9.00">&#45;18</text>
</g>
<!-- &#45;18&#45;&gt;0 -->
<g id="edge69" class="edge"><title>&#45;18&#45;&gt;0</title>
<path fill="none" stroke="red" stroke-width="0.190105" d="M531.946,-67.923C534.597,-67.0648 537.357,-66.276 540,-65.6985 704.007,-29.8671 756.097,-80.8167 916,-29.6985 917.054,-29.3616 918.112,-28.9734 919.165,-28.5459"/>
<polygon fill="red" stroke="red" stroke-width="0.190105" points="920.908,-31.5869 928.261,-23.9589 917.756,-25.3367 920.908,-31.5869"/>
</g>
<!-- &#45;18&#45;&gt;1 -->
<g id="edge70" class="edge"><title>&#45;18&#45;&gt;1</title>
<path fill="none" stroke="green" stroke-width="0.394624" d="M531.94,-67.899C534.593,-67.0434 537.354,-66.2618 540,-65.6985 724.979,-26.3259 783.552,-86.3172 964,-29.6985 965.056,-29.3672 966.115,-28.9837 967.17,-28.56"/>
<polygon fill="green" stroke="green" stroke-width="0.394624" points="968.907,-31.6045 976.27,-23.9869 965.763,-25.3498 968.907,-31.6045"/>
</g>
<!-- &#45;18&#45;&gt;2 -->
<g id="edge71" class="edge"><title>&#45;18&#45;&gt;2</title>
<path fill="none" stroke="red" stroke-width="0.229164" d="M531.981,-68.0721C534.629,-67.1972 537.377,-66.3643 540,-65.6985 642.115,-39.7728 767.079,-24.2299 819.265,-18.4417"/>
<polygon fill="red" stroke="red" stroke-width="0.229164" points="819.699,-21.9153 829.261,-17.3544 818.942,-14.9563 819.699,-21.9153"/>
</g>
<!-- &#45;18&#45;&gt;3 -->
<g id="edge72" class="edge"><title>&#45;18&#45;&gt;3</title>
<path fill="none" stroke="red" stroke-width="0.314637" d="M531.952,-67.9539C534.604,-67.0922 537.361,-66.2943 540,-65.6985 683.053,-33.4043 728.624,-75.3218 868,-29.6985 868.88,-29.4104 869.764,-29.0873 870.645,-28.7362"/>
<polygon fill="red" stroke="red" stroke-width="0.314637" points="872.356,-31.7944 879.756,-24.2126 869.243,-25.5246 872.356,-31.7944"/>
</g>
<!-- &#45;19 -->
<g id="node19" class="node"><title>&#45;19</title>
<polygon fill="lightgray" stroke="black" points="578.5,-83.6985 549.5,-83.6985 549.5,-65.6985 578.5,-65.6985 578.5,-83.6985"/>
<text text-anchor="middle" x="564" y="-72.4985" font-family="Times New Roman,serif" font-size="9.00">&#45;19</text>
</g>
<!-- &#45;19&#45;&gt;0 -->
<g id="edge73" class="edge"><title>&#45;19&#45;&gt;0</title>
<path fill="none" stroke="red" stroke-width="0.485637" d="M578.952,-67.9532C581.603,-67.0916 584.361,-66.2939 587,-65.6985 730.49,-33.3306 776.197,-75.4362 916,-29.6985 916.88,-29.4105 917.764,-29.0876 918.645,-28.7365"/>
<polygon fill="red" stroke="red" stroke-width="0.485637" points="920.356,-31.7949 927.756,-24.2134 917.243,-25.525 920.356,-31.7949"/>
</g>
<!-- &#45;19&#45;&gt;1 -->
<g id="edge74" class="edge"><title>&#45;19&#45;&gt;1</title>
<path fill="none" stroke="red" stroke-width="0.377968" d="M578.945,-67.9225C581.597,-67.0643 584.357,-66.2757 587,-65.6985 751.444,-29.7934 803.669,-80.9312 964,-29.6985 965.054,-29.3617 966.112,-28.9736 967.166,-28.5463"/>
<polygon fill="red" stroke="red" stroke-width="0.377968" points="968.908,-31.5873 976.261,-23.9596 965.757,-25.337 968.908,-31.5873"/>
</g>
<!-- &#45;19&#45;&gt;2 -->
<g id="edge75" class="edge"><title>&#45;19&#45;&gt;2</title>
<path fill="none" stroke="green" stroke-width="0.301163" d="M578.503,-68.3019C581.3,-67.3613 584.224,-66.4463 587,-65.6985 671.1,-43.0412 773.304,-26.3714 819.381,-19.4213"/>
<polygon fill="green" stroke="green" stroke-width="0.301163" points="819.966,-22.8729 829.342,-17.9391 818.936,-15.9491 819.966,-22.8729"/>
</g>
<!-- &#45;19&#45;&gt;3 -->
<g id="edge76" class="edge"><title>&#45;19&#45;&gt;3</title>
<path fill="none" stroke="green" stroke-width="0.459745" d="M578.962,-67.9942C581.612,-67.128 584.366,-66.3182 587,-65.6985 709.563,-36.8617 748.698,-69.9499 868,-29.6985 868.877,-29.4024 869.759,-29.0726 870.638,-28.7158"/>
<polygon fill="green" stroke="green" stroke-width="0.459745" points="872.361,-31.7676 879.741,-24.1656 869.231,-25.5063 872.361,-31.7676"/>
</g>
<!-- &#45;20 -->
<g id="node20" class="node"><title>&#45;20</title>
<polygon fill="lightgray" stroke="black" points="625.5,-83.6985 596.5,-83.6985 596.5,-65.6985 625.5,-65.6985 625.5,-83.6985"/>
<text text-anchor="middle" x="611" y="-72.4985" font-family="Times New Roman,serif" font-size="9.00">&#45;20</text>
</g>
<!-- &#45;20&#45;&gt;0 -->
<g id="edge77" class="edge"><title>&#45;20&#45;&gt;0</title>
<path fill="none" stroke="red" stroke-width="0.203965" d="M625.961,-67.9932C628.612,-67.1271 631.366,-66.3176 634,-65.6985 756.999,-36.7883 796.271,-70.0641 916,-29.6985 916.878,-29.4026 917.759,-29.073 918.638,-28.7163"/>
<polygon fill="red" stroke="red" stroke-width="0.203965" points="920.361,-31.7682 927.741,-24.1668 917.231,-25.5067 920.361,-31.7682"/>
</g>
<!-- &#45;20&#45;&gt;1 -->
<g id="edge78" class="edge"><title>&#45;20&#45;&gt;1</title>
<path fill="none" stroke="red" stroke-width="0.780392" d="M625.952,-67.9525C628.603,-67.0909 631.36,-66.2934 634,-65.6985 777.926,-33.257 823.769,-75.5506 964,-29.6985 964.88,-29.4107 965.764,-29.0879 966.645,-28.7369"/>
<polygon fill="red" stroke="red" stroke-width="0.780392" points="968.356,-31.7954 975.757,-24.2143 965.243,-25.5253 968.356,-31.7954"/>
</g>
<!-- &#45;20&#45;&gt;2 -->
<g id="edge79" class="edge"><title>&#45;20&#45;&gt;2</title>
<path fill="none" stroke="red" stroke-width="0.164223" d="M625.529,-68.3948C628.324,-67.4456 631.24,-66.5037 634,-65.6985 700.418,-46.3189 780.271,-28.9627 819.628,-20.7924"/>
<polygon fill="red" stroke="red" stroke-width="0.164223" points="820.521,-24.182 829.61,-18.7375 819.109,-17.3258 820.521,-24.182"/>
</g>
<!-- &#45;20&#45;&gt;3 -->
<g id="edge80" class="edge"><title>&#45;20&#45;&gt;3</title>
<path fill="none" stroke="red" stroke-width="0.132377" d="M625.975,-68.0502C628.624,-67.1778 631.374,-66.3513 634,-65.6985 736.115,-40.3093 768.73,-64.5919 868,-29.6985 868.874,-29.3914 869.752,-29.0522 870.628,-28.6874"/>
<polygon fill="red" stroke="red" stroke-width="0.132377" points="872.367,-31.7303 879.718,-24.1004 869.214,-25.481 872.367,-31.7303"/>
</g>
<!-- &#45;21 -->
<g id="node21" class="node"><title>&#45;21</title>
<polygon fill="lightgray" stroke="black" points="672.5,-83.6985 643.5,-83.6985 643.5,-65.6985 672.5,-65.6985 672.5,-83.6985"/>
<text text-anchor="middle" x="658" y="-72.4985" font-family="Times New Roman,serif" font-size="9.00">&#45;21</text>
</g>
<!-- &#45;21&#45;&gt;0 -->
<g id="edge81" class="edge"><title>&#45;21&#45;&gt;0</title>
<path fill="none" stroke="green" stroke-width="0.222458" d="M672.975,-68.0488C675.624,-67.1765 678.374,-66.3505 681,-65.6985 783.549,-40.2361 816.305,-64.7057 916,-29.6985 916.874,-29.3917 917.752,-29.0527 918.629,-28.6881"/>
<polygon fill="green" stroke="green" stroke-width="0.222458" points="920.367,-31.7313 927.719,-24.102 917.214,-25.4816 920.367,-31.7313"/>
</g>
<!-- &#45;21&#45;&gt;1 -->
<g id="edge82" class="edge"><title>&#45;21&#45;&gt;1</title>
<path fill="none" stroke="red" stroke-width="0.361442" d="M672.961,-67.9922C675.611,-67.1263 678.366,-66.317 681,-65.6985 804.434,-36.7148 843.844,-70.1783 964,-29.6985 964.878,-29.4028 965.759,-29.0733 966.638,-28.7168"/>
<polygon fill="red" stroke="red" stroke-width="0.361442" points="968.361,-31.7689 975.741,-24.1679 965.231,-25.5072 968.361,-31.7689"/>
</g>
<!-- &#45;21&#45;&gt;2 -->
<g id="edge83" class="edge"><title>&#45;21&#45;&gt;2</title>
<path fill="none" stroke="red" stroke-width="0.114606" d="M672.572,-68.5364C675.364,-67.5742 678.267,-66.5912 681,-65.6985 730.281,-49.5986 788.451,-32.1882 820.262,-22.8014"/>
<polygon fill="red" stroke="red" stroke-width="0.114606" points="821.384,-26.1197 829.989,-19.9391 819.408,-19.4044 821.384,-26.1197"/>
</g>
<!-- &#45;21&#45;&gt;3 -->
<g id="edge84" class="edge"><title>&#45;21&#45;&gt;3</title>
<path fill="none" stroke="green" stroke-width="0.136315" d="M672.502,-68.2988C675.299,-67.3585 678.224,-66.4444 681,-65.6985 762.739,-43.7386 788.693,-59.2588 868,-29.6985 868.868,-29.3751 869.741,-29.022 870.613,-28.6455"/>
<polygon fill="green" stroke="green" stroke-width="0.136315" points="872.376,-31.6753 879.683,-24.0039 869.187,-25.4439 872.376,-31.6753"/>
</g>
<!-- &#45;22 -->
<g id="node22" class="node"><title>&#45;22</title>
<polygon fill="lightgray" stroke="black" points="719.5,-83.6985 690.5,-83.6985 690.5,-65.6985 719.5,-65.6985 719.5,-83.6985"/>
<text text-anchor="middle" x="705" y="-72.4985" font-family="Times New Roman,serif" font-size="9.00">&#45;22</text>
</g>
<!-- &#45;22&#45;&gt;0 -->
<g id="edge85" class="edge"><title>&#45;22&#45;&gt;0</title>
<path fill="none" stroke="green" stroke-width="0.168242" d="M719.501,-68.2966C722.299,-67.3565 725.223,-66.443 728,-65.6985 810.171,-43.6659 836.269,-59.3719 916,-29.6985 916.868,-29.3755 917.741,-29.0227 918.614,-28.6466"/>
<polygon fill="green" stroke="green" stroke-width="0.168242" points="920.375,-31.6767 927.684,-24.0064 917.187,-25.4448 920.375,-31.6767"/>
</g>
<!-- &#45;22&#45;&gt;1 -->
<g id="edge86" class="edge"><title>&#45;22&#45;&gt;1</title>
<path fill="none" stroke="red" stroke-width="0.200342" d="M719.975,-68.0474C722.623,-67.1753 725.374,-66.3497 728,-65.6985 830.984,-40.1629 863.879,-64.8195 964,-29.6985 964.874,-29.392 965.752,-29.0532 966.629,-28.6888"/>
<polygon fill="red" stroke="red" stroke-width="0.200342" points="968.367,-31.7322 975.719,-24.1037 965.214,-25.4822 968.367,-31.7322"/>
</g>
<!-- &#45;22&#45;&gt;2 -->
<g id="edge87" class="edge"><title>&#45;22&#45;&gt;2</title>
<path fill="none" stroke="green" stroke-width="0.280678" d="M719.613,-67.6169C743.805,-57.5486 792.358,-37.3418 821.127,-25.3687"/>
<polygon fill="green" stroke="green" stroke-width="0.280678" points="822.518,-28.5809 830.405,-21.5072 819.828,-22.1183 822.518,-28.5809"/>
</g>
<!-- &#45;22&#45;&gt;3 -->
<g id="edge88" class="edge"><title>&#45;22&#45;&gt;3</title>
<path fill="none" stroke="green" stroke-width="0.181742" d="M719.541,-68.4363C722.335,-67.4833 725.248,-66.5294 728,-65.6985 789.504,-47.1293 808.518,-53.9775 868,-29.6985 868.857,-29.3485 869.722,-28.9729 870.587,-28.5774"/>
<polygon fill="green" stroke="green" stroke-width="0.181742" points="872.386,-31.5861 879.622,-23.8472 869.139,-25.3845 872.386,-31.5861"/>
</g>
<!-- &#45;23 -->
<g id="node23" class="node"><title>&#45;23</title>
<polygon fill="lightgray" stroke="black" points="766.5,-83.6985 737.5,-83.6985 737.5,-65.6985 766.5,-65.6985 766.5,-83.6985"/>
<text text-anchor="middle" x="752" y="-72.4985" font-family="Times New Roman,serif" font-size="9.00">&#45;23</text>
</g>
<!-- &#45;23&#45;&gt;0 -->
<g id="edge89" class="edge"><title>&#45;23&#45;&gt;0</title>
<path fill="none" stroke="red" stroke-width="0.350285" d="M766.54,-68.4325C769.334,-67.4799 772.247,-66.527 775,-65.6985 836.933,-47.0579 856.098,-54.089 916,-29.6985 916.858,-29.3493 917.722,-28.9742 918.587,-28.5793"/>
<polygon fill="red" stroke="red" stroke-width="0.350285" points="920.386,-31.5885 927.624,-23.8515 917.141,-25.3861 920.386,-31.5885"/>
</g>
<!-- &#45;23&#45;&gt;1 -->
<g id="edge90" class="edge"><title>&#45;23&#45;&gt;1</title>
<path fill="none" stroke="red" stroke-width="0.347504" d="M766.501,-68.2944C769.298,-67.3545 772.223,-66.4417 775,-65.6985 857.604,-43.5933 883.845,-59.485 964,-29.6985 964.868,-29.3759 965.741,-29.0235 966.614,-28.6477"/>
<polygon fill="red" stroke="red" stroke-width="0.347504" points="968.375,-31.6781 975.685,-24.0089 965.188,-25.4458 968.375,-31.6781"/>
</g>
<!-- &#45;23&#45;&gt;2 -->
<g id="edge91" class="edge"><title>&#45;23&#45;&gt;2</title>
<path fill="none" stroke="red" stroke-width="0.569905" d="M764.792,-65.6548C779.844,-56.1902 805.053,-40.3388 822.987,-29.0619"/>
<polygon fill="red" stroke="red" stroke-width="0.569905" points="825.008,-31.9258 831.61,-23.6398 821.282,-26 825.008,-31.9258"/>
</g>
<!-- &#45;23&#45;&gt;3 -->
<g id="edge92" class="edge"><title>&#45;23&#45;&gt;3</title>
<path fill="none" stroke="green" stroke-width="0.266289" d="M766.622,-68.4852C793.409,-58.8798 849.318,-38.5611 868,-29.6985 868.837,-29.3016 869.683,-28.886 870.533,-28.4569"/>
<polygon fill="green" stroke="green" stroke-width="0.266289" points="872.394,-31.4288 879.5,-23.5698 869.044,-25.2825 872.394,-31.4288"/>
</g>
<!-- &#45;24 -->
<g id="node24" class="node"><title>&#45;24</title>
<polygon fill="lightgray" stroke="black" points="813.5,-83.6985 784.5,-83.6985 784.5,-65.6985 813.5,-65.6985 813.5,-83.6985"/>
<text text-anchor="middle" x="799" y="-72.4985" font-family="Times New Roman,serif" font-size="9.00">&#45;24</text>
</g>
<!-- &#45;24&#45;&gt;0 -->
<g id="edge93" class="edge"><title>&#45;24&#45;&gt;0</title>
<path fill="none" stroke="red" stroke-width="0.306247" d="M813.75,-68.4928C840.77,-58.8999 897.165,-38.6013 916,-29.6985 916.837,-29.3028 917.684,-28.8882 918.535,-28.46"/>
<polygon fill="red" stroke="red" stroke-width="0.306247" points="920.394,-31.4328 927.503,-23.5768 917.047,-25.2851 920.394,-31.4328"/>
</g>
<!-- &#45;24&#45;&gt;1 -->
<g id="edge94" class="edge"><title>&#45;24&#45;&gt;1</title>
<path fill="none" stroke="red" stroke-width="0.353339" d="M813.539,-68.4288C816.333,-67.4765 819.246,-66.5247 822,-65.6985 884.361,-46.9864 903.679,-54.2005 964,-29.6985 964.858,-29.35 965.723,-28.9756 966.588,-28.5812"/>
<polygon fill="red" stroke="red" stroke-width="0.353339" points="968.385,-31.591 975.625,-23.8558 965.142,-25.3877 968.385,-31.591"/>
</g>
<!-- &#45;24&#45;&gt;2 -->
<g id="edge95" class="edge"><title>&#45;24&#45;&gt;2</title>
<path fill="none" stroke="red" stroke-width="0.526061" d="M805.257,-65.6548C811.37,-57.7964 820.908,-45.5348 828.99,-35.1446"/>
<polygon fill="red" stroke="red" stroke-width="0.526061" points="831.953,-37.0367 835.33,-26.9946 826.428,-32.7387 831.953,-37.0367"/>
</g>
<!-- &#45;24&#45;&gt;3 -->
<g id="edge96" class="edge"><title>&#45;24&#45;&gt;3</title>
<path fill="none" stroke="green" stroke-width="0.382582" d="M811.931,-65.6548C827.232,-56.1374 852.915,-40.1615 871.062,-28.8733"/>
<polygon fill="green" stroke="green" stroke-width="0.382582" points="873.128,-31.7105 879.77,-23.4566 869.43,-25.7666 873.128,-31.7105"/>
</g>
<!-- &#45;25 -->
<g id="node25" class="node"><title>&#45;25</title>
<polygon fill="lightgray" stroke="black" points="860.5,-83.6985 831.5,-83.6985 831.5,-65.6985 860.5,-65.6985 860.5,-83.6985"/>
<text text-anchor="middle" x="846" y="-72.4985" font-family="Times New Roman,serif" font-size="9.00">&#45;25</text>
</g>
<!-- &#45;25&#45;&gt;0 -->
<g id="edge97" class="edge"><title>&#45;25&#45;&gt;0</title>
<path fill="none" stroke="green" stroke-width="0.124154" d="M859.07,-65.6548C874.606,-56.0937 900.733,-40.0148 919.089,-28.7182"/>
<polygon fill="green" stroke="green" stroke-width="0.124154" points="920.957,-31.6786 927.639,-23.4566 917.288,-25.7171 920.957,-31.6786"/>
</g>
<!-- &#45;25&#45;&gt;1 -->
<g id="edge98" class="edge"><title>&#45;25&#45;&gt;1</title>
<path fill="none" stroke="green" stroke-width="0.345013" d="M860.877,-68.5003C888.131,-58.92 945.011,-38.6414 964,-29.6985 964.838,-29.3039 965.685,-28.8904 966.536,-28.463"/>
<polygon fill="green" stroke="green" stroke-width="0.345013" points="968.394,-31.4367 975.506,-23.5837 965.049,-25.2876 968.394,-31.4367"/>
</g>
<!-- &#45;25&#45;&gt;2 -->
<g id="edge99" class="edge"><title>&#45;25&#45;&gt;2</title>
<path fill="none" stroke="green" stroke-width="0.105713" d="M845.722,-65.6548C845.494,-59.0498 845.158,-49.3344 844.843,-40.2339"/>
<polygon fill="green" stroke="green" stroke-width="0.105713" points="848.335,-39.9294 844.491,-30.0563 841.339,-40.1713 848.335,-39.9294"/>
</g>
<!-- &#45;25&#45;&gt;3 -->
<g id="edge100" class="edge"><title>&#45;25&#45;&gt;3</title>
<path fill="none" stroke="red" stroke-width="0.328656" d="M852.396,-65.6548C858.707,-57.7178 868.59,-45.2891 876.904,-34.8334"/>
<polygon fill="red" stroke="red" stroke-width="0.328656" points="879.653,-37.0001 883.138,-26.9946 874.174,-32.6433 879.653,-37.0001"/>
</g>
<!-- &#45;26 -->
<g id="node26" class="node"><title>&#45;26</title>
<polygon fill="lightgray" stroke="black" points="907.5,-83.6985 878.5,-83.6985 878.5,-65.6985 907.5,-65.6985 907.5,-83.6985"/>
<text text-anchor="middle" x="893" y="-72.4985" font-family="Times New Roman,serif" font-size="9.00">&#45;26</text>
</g>
<!-- &#45;26&#45;&gt;0 -->
<g id="edge101" class="edge"><title>&#45;26&#45;&gt;0</title>
<path fill="none" stroke="red" stroke-width="0.428151" d="M899.535,-65.6548C905.984,-57.7178 916.081,-45.2891 924.576,-34.8334"/>
<polygon fill="red" stroke="red" stroke-width="0.428151" points="927.356,-36.9629 930.945,-26.9946 921.923,-32.5489 927.356,-36.9629"/>
</g>
<!-- &#45;26&#45;&gt;1 -->
<g id="edge102" class="edge"><title>&#45;26&#45;&gt;1</title>
<path fill="none" stroke="red" stroke-width="0.132893" d="M906.209,-65.6548C921.911,-56.0937 948.315,-40.0148 966.867,-28.7182"/>
<polygon fill="red" stroke="red" stroke-width="0.132893" points="968.786,-31.647 975.507,-23.4566 965.146,-25.6683 968.786,-31.647"/>
</g>
<!-- &#45;26&#45;&gt;2 -->
<g id="edge103" class="edge"><title>&#45;26&#45;&gt;2</title>
<path fill="none" stroke="red" stroke-width="0.32942" d="M886.187,-65.6548C879.464,-57.7178 868.936,-45.2891 860.08,-34.8334"/>
<polygon fill="red" stroke="red" stroke-width="0.32942" points="862.574,-32.363 853.44,-26.9946 857.233,-36.8874 862.574,-32.363"/>
</g>
<!-- &#45;26&#45;&gt;3 -->
<g id="edge104" class="edge"><title>&#45;26&#45;&gt;3</title>
<path fill="none" stroke="red" stroke-width="0.181465" d="M892.861,-65.6548C892.747,-59.0498 892.579,-49.3344 892.422,-40.2339"/>
<polygon fill="red" stroke="red" stroke-width="0.181465" points="895.918,-39.9943 892.246,-30.0563 888.919,-40.1153 895.918,-39.9943"/>
</g>
<!-- &#45;27 -->
<g id="node27" class="node"><title>&#45;27</title>
<polygon fill="lightgray" stroke="black" points="954.5,-83.6985 925.5,-83.6985 925.5,-65.6985 954.5,-65.6985 954.5,-83.6985"/>
<text text-anchor="middle" x="940" y="-72.4985" font-family="Times New Roman,serif" font-size="9.00">&#45;27</text>
</g>
<!-- &#45;27&#45;&gt;0 -->
<g id="edge105" class="edge"><title>&#45;27&#45;&gt;0</title>
<path fill="none" stroke="green" stroke-width="0.268432" d="M940,-65.6548C940,-59.0498 940,-49.3344 940,-40.2339"/>
<polygon fill="green" stroke="green" stroke-width="0.268432" points="943.5,-40.0563 940,-30.0563 936.5,-40.0564 943.5,-40.0563"/>
</g>
<!-- &#45;27&#45;&gt;1 -->
<g id="edge106" class="edge"><title>&#45;27&#45;&gt;1</title>
<path fill="none" stroke="red" stroke-width="0.103478" d="M946.674,-65.6548C953.26,-57.7178 963.572,-45.2891 972.248,-34.8334"/>
<polygon fill="red" stroke="red" stroke-width="0.103478" points="975.06,-36.9253 978.752,-26.9946 969.673,-32.4555 975.06,-36.9253"/>
</g>
<!-- &#45;27&#45;&gt;2 -->
<g id="edge107" class="edge"><title>&#45;27&#45;&gt;2</title>
<path fill="none" stroke="red" stroke-width="0.217522" d="M926.652,-65.6548C910.697,-56.0406 883.806,-39.8359 865.044,-28.5304"/>
<polygon fill="red" stroke="red" stroke-width="0.217522" points="866.695,-25.4387 856.323,-23.2752 863.082,-31.4343 866.695,-25.4387"/>
</g>
<!-- &#45;27&#45;&gt;3 -->
<g id="edge108" class="edge"><title>&#45;27&#45;&gt;3</title>
<path fill="none" stroke="red" stroke-width="0.332451" d="M933.326,-65.6548C926.74,-57.7178 916.428,-45.2891 907.752,-34.8334"/>
<polygon fill="red" stroke="red" stroke-width="0.332451" points="910.327,-32.4555 901.248,-26.9946 904.94,-36.9253 910.327,-32.4555"/>
</g>
<!-- &#45;28 -->
<g id="node28" class="node"><title>&#45;28</title>
<polygon fill="lightgray" stroke="black" points="1001.5,-83.6985 972.5,-83.6985 972.5,-65.6985 1001.5,-65.6985 1001.5,-83.6985"/>
<text text-anchor="middle" x="987" y="-72.4985" font-family="Times New Roman,serif" font-size="9.00">&#45;28</text>
</g>
<!-- &#45;28&#45;&gt;0 -->
<g id="edge109" class="edge"><title>&#45;28&#45;&gt;0</title>
<path fill="none" stroke="green" stroke-width="0.153075" d="M980.465,-65.6548C974.016,-57.7178 963.919,-45.2891 955.424,-34.8334"/>
<polygon fill="green" stroke="green" stroke-width="0.153075" points="958.077,-32.5489 949.055,-26.9946 952.644,-36.9629 958.077,-32.5489"/>
</g>
<!-- &#45;28&#45;&gt;1 -->
<g id="edge110" class="edge"><title>&#45;28&#45;&gt;1</title>
<path fill="none" stroke="red" stroke-width="0.144196" d="M987.139,-65.6548C987.253,-59.0498 987.421,-49.3344 987.578,-40.2339"/>
<polygon fill="red" stroke="red" stroke-width="0.144196" points="991.081,-40.1153 987.754,-30.0563 984.082,-39.9943 991.081,-40.1153"/>
</g>
<!-- &#45;28&#45;&gt;2 -->
<g id="edge111" class="edge"><title>&#45;28&#45;&gt;2</title>
<path fill="none" stroke="red" stroke-width="0.23432" d="M972.423,-68.6565C945.107,-59.1514 887.242,-38.7284 868,-29.6985 867.162,-29.3051 866.314,-28.8925 865.462,-28.4659"/>
<polygon fill="red" stroke="red" stroke-width="0.23432" points="866.948,-25.29 856.491,-23.5906 863.606,-31.4406 866.948,-25.29"/>
</g>
<!-- &#45;28&#45;&gt;3 -->
<g id="edge112" class="edge"><title>&#45;28&#45;&gt;3</title>
<path fill="none" stroke="red" stroke-width="0.169462" d="M973.791,-65.6548C958.089,-56.0937 931.685,-40.0148 913.133,-28.7182"/>
<polygon fill="red" stroke="red" stroke-width="0.169462" points="914.854,-25.6683 904.493,-23.4566 911.214,-31.647 914.854,-25.6683"/>
</g>
<!-- &#45;29 -->
<g id="node29" class="node"><title>&#45;29</title>
<polygon fill="lightgray" stroke="black" points="1048.5,-83.6985 1019.5,-83.6985 1019.5,-65.6985 1048.5,-65.6985 1048.5,-83.6985"/>
<text text-anchor="middle" x="1034" y="-72.4985" font-family="Times New Roman,serif" font-size="9.00">&#45;29</text>
</g>
<!-- &#45;29&#45;&gt;0 -->
<g id="edge113" class="edge"><title>&#45;29&#45;&gt;0</title>
<path fill="none" stroke="red" stroke-width="0.255373" d="M1020.93,-65.6548C1005.39,-56.0937 979.267,-40.0148 960.911,-28.7182"/>
<polygon fill="red" stroke="red" stroke-width="0.255373" points="962.712,-25.7171 952.361,-23.4566 959.043,-31.6786 962.712,-25.7171"/>
</g>
<!-- &#45;29&#45;&gt;1 -->
<g id="edge114" class="edge"><title>&#45;29&#45;&gt;1</title>
<path fill="none" stroke="green" stroke-width="0.12074" d="M1027.6,-65.6548C1021.29,-57.7178 1011.41,-45.2891 1003.1,-34.8334"/>
<polygon fill="green" stroke="green" stroke-width="0.12074" points="1005.83,-32.6433 996.862,-26.9946 1000.35,-37.0001 1005.83,-32.6433"/>
</g>
<!-- &#45;29&#45;&gt;2 -->
<g id="edge115" class="edge"><title>&#45;29&#45;&gt;2</title>
<path fill="none" stroke="green" stroke-width="0.259858" d="M1019.46,-68.425C1016.67,-67.4731 1013.75,-66.5224 1011,-65.6985 948.211,-46.9149 928.741,-54.3121 868,-29.6985 867.142,-29.3507 866.277,-28.9769 865.411,-28.583"/>
<polygon fill="green" stroke="green" stroke-width="0.259858" points="866.857,-25.3893 856.373,-23.86 863.615,-31.5934 866.857,-25.3893"/>
</g>
<!-- &#45;29&#45;&gt;3 -->
<g id="edge116" class="edge"><title>&#45;29&#45;&gt;3</title>
<path fill="none" stroke="green" stroke-width="0.19302" d="M1019.12,-68.5003C991.869,-58.92 934.989,-38.6414 916,-29.6985 915.162,-29.3039 914.315,-28.8904 913.464,-28.463"/>
<polygon fill="green" stroke="green" stroke-width="0.19302" points="914.951,-25.2876 904.494,-23.5837 911.606,-31.4367 914.951,-25.2876"/>
</g>
<!-- &#45;30 -->
<g id="node30" class="node"><title>&#45;30</title>
<polygon fill="lightgray" stroke="black" points="1095.5,-83.6985 1066.5,-83.6985 1066.5,-65.6985 1095.5,-65.6985 1095.5,-83.6985"/>
<text text-anchor="middle" x="1081" y="-72.4985" font-family="Times New Roman,serif" font-size="9.00">&#45;30</text>
</g>
<!-- &#45;30&#45;&gt;0 -->
<g id="edge117" class="edge"><title>&#45;30&#45;&gt;0</title>
<path fill="none" stroke="red" stroke-width="0.322606" d="M1066.25,-68.4928C1039.23,-58.8999 982.835,-38.6013 964,-29.6985 963.163,-29.3028 962.316,-28.8882 961.465,-28.46"/>
<polygon fill="red" stroke="red" stroke-width="0.322606" points="962.953,-25.2851 952.497,-23.5768 959.606,-31.4328 962.953,-25.2851"/>
</g>
<!-- &#45;30&#45;&gt;1 -->
<g id="edge118" class="edge"><title>&#45;30&#45;&gt;1</title>
<path fill="none" stroke="green" stroke-width="0.160121" d="M1068.07,-65.6548C1052.77,-56.1374 1027.09,-40.1615 1008.94,-28.8733"/>
<polygon fill="green" stroke="green" stroke-width="0.160121" points="1010.57,-25.7666 1000.23,-23.4566 1006.87,-31.7105 1010.57,-25.7666"/>
</g>
<!-- &#45;30&#45;&gt;2 -->
<g id="edge119" class="edge"><title>&#45;30&#45;&gt;2</title>
<path fill="none" stroke="red" stroke-width="0.164976" d="M1066.01,-68.1267C1063.36,-67.2458 1060.61,-66.3967 1058,-65.6985 974.964,-43.5206 948.578,-59.5981 868,-29.6985 867.132,-29.3763 866.258,-29.0243 865.386,-28.6487"/>
<polygon fill="red" stroke="red" stroke-width="0.164976" points="866.811,-25.4467 856.314,-24.0114 863.625,-31.6796 866.811,-25.4467"/>
</g>
<!-- &#45;30&#45;&gt;3 -->
<g id="edge120" class="edge"><title>&#45;30&#45;&gt;3</title>
<path fill="none" stroke="red" stroke-width="0.205251" d="M1066.46,-68.4288C1063.67,-67.4765 1060.75,-66.5247 1058,-65.6985 995.639,-46.9864 976.321,-54.2005 916,-29.6985 915.142,-29.35 914.277,-28.9756 913.412,-28.5812"/>
<polygon fill="red" stroke="red" stroke-width="0.205251" points="914.858,-25.3877 904.375,-23.8558 911.615,-31.591 914.858,-25.3877"/>
</g>
<!-- &#45;31 -->
<g id="node31" class="node"><title>&#45;31</title>
<polygon fill="lightgray" stroke="black" points="1142.5,-83.6985 1113.5,-83.6985 1113.5,-65.6985 1142.5,-65.6985 1142.5,-83.6985"/>
<text text-anchor="middle" x="1128" y="-72.4985" font-family="Times New Roman,serif" font-size="9.00">&#45;31</text>
</g>
<!-- &#45;31&#45;&gt;0 -->
<g id="edge121" class="edge"><title>&#45;31&#45;&gt;0</title>
<path fill="none" stroke="red" stroke-width="0.483868" d="M1113.46,-68.4325C1110.67,-67.4799 1107.75,-66.527 1105,-65.6985 1043.07,-47.0579 1023.9,-54.089 964,-29.6985 963.142,-29.3493 962.278,-28.9742 961.413,-28.5793"/>
<polygon fill="red" stroke="red" stroke-width="0.483868" points="962.859,-25.3861 952.376,-23.8515 959.614,-31.5885 962.859,-25.3861"/>
</g>
<!-- &#45;31&#45;&gt;1 -->
<g id="edge122" class="edge"><title>&#45;31&#45;&gt;1</title>
<path fill="none" stroke="red" stroke-width="0.43039" d="M1113.28,-67.6169C1088.92,-57.5486 1040.01,-37.3418 1011.04,-25.3687"/>
<polygon fill="red" stroke="red" stroke-width="0.43039" points="1012.27,-22.0914 1001.69,-21.5072 1009.6,-28.5609 1012.27,-22.0914"/>
</g>
<!-- &#45;31&#45;&gt;2 -->
<g id="edge123" class="edge"><title>&#45;31&#45;&gt;2</title>
<path fill="none" stroke="green" stroke-width="0.213431" d="M1113.03,-68.046C1110.38,-67.174 1107.63,-66.3488 1105,-65.6985 1001.58,-40.0896 968.547,-64.9333 868,-29.6985 867.126,-29.3922 866.248,-29.0537 865.371,-28.6895"/>
<polygon fill="green" stroke="green" stroke-width="0.213431" points="866.785,-25.4829 856.28,-24.1053 863.633,-31.7331 866.785,-25.4829"/>
</g>
<!-- &#45;31&#45;&gt;3 -->
<g id="edge124" class="edge"><title>&#45;31&#45;&gt;3</title>
<path fill="none" stroke="red" stroke-width="0.58933" d="M1113.5,-68.2944C1110.7,-67.3545 1107.78,-66.4417 1105,-65.6985 1022.4,-43.5933 996.155,-59.485 916,-29.6985 915.132,-29.3759 914.259,-29.0235 913.386,-28.6477"/>
<polygon fill="red" stroke="red" stroke-width="0.58933" points="914.812,-25.4458 904.315,-24.0089 911.625,-31.6781 914.812,-25.4458"/>
</g>
<!-- &#45;32 -->
<g id="node32" class="node"><title>&#45;32</title>
<polygon fill="lightgray" stroke="black" points="1189.5,-83.6985 1160.5,-83.6985 1160.5,-65.6985 1189.5,-65.6985 1189.5,-83.6985"/>
<text text-anchor="middle" x="1175" y="-72.4985" font-family="Times New Roman,serif" font-size="9.00">&#45;32</text>
</g>
<!-- &#45;32&#45;&gt;0 -->
<g id="edge125" class="edge"><title>&#45;32&#45;&gt;0</title>
<path fill="none" stroke="red" stroke-width="0.258296" d="M1160.5,-68.2966C1157.7,-67.3565 1154.78,-66.443 1152,-65.6985 1069.83,-43.6659 1043.73,-59.3719 964,-29.6985 963.132,-29.3755 962.259,-29.0227 961.386,-28.6466"/>
<polygon fill="red" stroke="red" stroke-width="0.258296" points="962.813,-25.4448 952.316,-24.0064 959.625,-31.6767 962.813,-25.4448"/>
</g>
<!-- &#45;32&#45;&gt;1 -->
<g id="edge126" class="edge"><title>&#45;32&#45;&gt;1</title>
<path fill="none" stroke="red" stroke-width="0.223185" d="M1160.43,-68.5326C1157.64,-67.5708 1154.73,-66.5889 1152,-65.6985 1102.43,-49.5505 1043.9,-32.1579 1011.89,-22.787"/>
<polygon fill="red" stroke="red" stroke-width="0.223185" points="1012.68,-19.3722 1002.1,-19.9299 1010.72,-26.0918 1012.68,-19.3722"/>
</g>
<!-- &#45;32&#45;&gt;2 -->
<g id="edge127" class="edge"><title>&#45;32&#45;&gt;2</title>
<path fill="none" stroke="red" stroke-width="0.268487" d="M1160.04,-67.9912C1157.39,-67.1254 1154.63,-66.3164 1152,-65.6985 1028.13,-36.6413 988.583,-70.2925 868,-29.6985 867.122,-29.403 866.241,-29.0737 865.361,-28.7173"/>
<polygon fill="red" stroke="red" stroke-width="0.268487" points="866.768,-25.5076 856.258,-24.1691 863.64,-31.7696 866.768,-25.5076"/>
</g>
<!-- &#45;32&#45;&gt;3 -->
<g id="edge128" class="edge"><title>&#45;32&#45;&gt;3</title>
<path fill="none" stroke="red" stroke-width="0.110289" d="M1160.03,-68.0474C1157.38,-67.1753 1154.63,-66.3497 1152,-65.6985 1049.02,-40.1629 1016.12,-64.8195 916,-29.6985 915.126,-29.392 914.248,-29.0532 913.371,-28.6888"/>
<polygon fill="red" stroke="red" stroke-width="0.110289" points="914.786,-25.4822 904.281,-24.1037 911.633,-31.7322 914.786,-25.4822"/>
</g>
<!-- &#45;33 -->
<g id="node33" class="node"><title>&#45;33</title>
<polygon fill="lightgray" stroke="black" points="1236.5,-83.6985 1207.5,-83.6985 1207.5,-65.6985 1236.5,-65.6985 1236.5,-83.6985"/>
<text text-anchor="middle" x="1222" y="-72.4985" font-family="Times New Roman,serif" font-size="9.00">&#45;33</text>
</g>
<!-- &#45;33&#45;&gt;0 -->
<g id="edge129" class="edge"><title>&#45;33&#45;&gt;0</title>
<path fill="none" stroke="green" stroke-width="0.4733" d="M1207.03,-68.0488C1204.38,-67.1765 1201.63,-66.3505 1199,-65.6985 1096.45,-40.2361 1063.7,-64.7057 964,-29.6985 963.126,-29.3917 962.248,-29.0527 961.371,-28.6881"/>
<polygon fill="green" stroke="green" stroke-width="0.4733" points="962.786,-25.4816 952.281,-24.102 959.633,-31.7313 962.786,-25.4816"/>
</g>
<!-- &#45;33&#45;&gt;1 -->
<g id="edge130" class="edge"><title>&#45;33&#45;&gt;1</title>
<path fill="none" stroke="red" stroke-width="0.247224" d="M1207.47,-68.3924C1204.68,-67.4435 1201.76,-66.5023 1199,-65.6985 1132.27,-46.2671 1052.04,-28.9338 1012.49,-20.7803"/>
<polygon fill="red" stroke="red" stroke-width="0.247224" points="1012.96,-17.3037 1002.46,-18.7299 1011.56,-24.1619 1012.96,-17.3037"/>
</g>
<!-- &#45;33&#45;&gt;2 -->
<g id="edge131" class="edge"><title>&#45;33&#45;&gt;2</title>
<path fill="none" stroke="red" stroke-width="0.118516" d="M1207.05,-67.9517C1204.4,-67.0903 1201.64,-66.293 1199,-65.6985 1054.64,-33.1834 1008.66,-75.665 868,-29.6985 867.12,-29.4108 866.236,-29.0881 865.355,-28.7373"/>
<polygon fill="red" stroke="red" stroke-width="0.118516" points="866.756,-25.5256 856.243,-24.2151 863.645,-31.7959 866.756,-25.5256"/>
</g>
<!-- &#45;33&#45;&gt;3 -->
<g id="edge132" class="edge"><title>&#45;33&#45;&gt;3</title>
<path fill="none" stroke="green" stroke-width="0.11473" d="M1207.04,-67.9922C1204.39,-67.1263 1201.63,-66.317 1199,-65.6985 1075.57,-36.7148 1036.16,-70.1783 916,-29.6985 915.122,-29.4028 914.241,-29.0733 913.362,-28.7168"/>
<polygon fill="green" stroke="green" stroke-width="0.11473" points="914.769,-25.5072 904.259,-24.1679 911.639,-31.7689 914.769,-25.5072"/>
</g>
<!-- &#45;34 -->
<g id="node34" class="node"><title>&#45;34</title>
<polygon fill="lightgray" stroke="black" points="1283.5,-83.6985 1254.5,-83.6985 1254.5,-65.6985 1283.5,-65.6985 1283.5,-83.6985"/>
<text text-anchor="middle" x="1269" y="-72.4985" font-family="Times New Roman,serif" font-size="9.00">&#45;34</text>
</g>
<!-- &#45;34&#45;&gt;0 -->
<g id="edge133" class="edge"><title>&#45;34&#45;&gt;0</title>
<path fill="none" stroke="red" stroke-width="0.156645" d="M1254.04,-67.9932C1251.39,-67.1271 1248.63,-66.3176 1246,-65.6985 1123,-36.7883 1083.73,-70.0641 964,-29.6985 963.122,-29.4026 962.241,-29.073 961.362,-28.7163"/>
<polygon fill="red" stroke="red" stroke-width="0.156645" points="962.769,-25.5067 952.259,-24.1668 959.639,-31.7682 962.769,-25.5067"/>
</g>
<!-- &#45;34&#45;&gt;1 -->
<g id="edge134" class="edge"><title>&#45;34&#45;&gt;1</title>
<path fill="none" stroke="green" stroke-width="0.333343" d="M1254.5,-68.3003C1251.7,-67.3599 1248.78,-66.4453 1246,-65.6985 1161.58,-42.9868 1058.97,-26.344 1012.72,-19.411"/>
<polygon fill="green" stroke="green" stroke-width="0.333343" points="1013.12,-15.9328 1002.72,-17.9327 1012.1,-22.8575 1013.12,-15.9328"/>
</g>
<!-- &#45;34&#45;&gt;2 -->
<g id="edge135" class="edge"><title>&#45;34&#45;&gt;2</title>
<path fill="none" stroke="green" stroke-width="0.188902" d="M1254.05,-67.9219C1251.4,-67.0638 1248.64,-66.2753 1246,-65.6985 1081.12,-29.7196 1028.76,-81.0457 868,-29.6985 866.946,-29.3618 865.888,-28.9739 864.834,-28.5466"/>
<polygon fill="green" stroke="green" stroke-width="0.188902" points="866.243,-25.3373 855.738,-23.9602 863.092,-31.5877 866.243,-25.3373"/>
</g>
<!-- &#45;34&#45;&gt;3 -->
<g id="edge136" class="edge"><title>&#45;34&#45;&gt;3</title>
<path fill="none" stroke="red" stroke-width="0.605197" d="M1254.05,-67.9525C1251.4,-67.0909 1248.64,-66.2934 1246,-65.6985 1102.07,-33.257 1056.23,-75.5506 916,-29.6985 915.12,-29.4107 914.236,-29.0879 913.355,-28.7369"/>
<polygon fill="red" stroke="red" stroke-width="0.605197" points="914.757,-25.5253 904.243,-24.2143 911.644,-31.7954 914.757,-25.5253"/>
</g>
<!-- &#45;35 -->
<g id="node35" class="node"><title>&#45;35</title>
<polygon fill="lightgray" stroke="black" points="1330.5,-83.6985 1301.5,-83.6985 1301.5,-65.6985 1330.5,-65.6985 1330.5,-83.6985"/>
<text text-anchor="middle" x="1316" y="-72.4985" font-family="Times New Roman,serif" font-size="9.00">&#45;35</text>
</g>
<!-- &#45;35&#45;&gt;0 -->
<g id="edge137" class="edge"><title>&#45;35&#45;&gt;0</title>
<path fill="none" stroke="red" stroke-width="0.424927" d="M1301.05,-67.9532C1298.4,-67.0916 1295.64,-66.2939 1293,-65.6985 1149.51,-33.3306 1103.8,-75.4362 964,-29.6985 963.12,-29.4105 962.236,-29.0876 961.355,-28.7365"/>
<polygon fill="red" stroke="red" stroke-width="0.424927" points="962.757,-25.525 952.244,-24.2134 959.644,-31.7949 962.757,-25.525"/>
</g>
<!-- &#45;35&#45;&gt;1 -->
<g id="edge138" class="edge"><title>&#45;35&#45;&gt;1</title>
<path fill="none" stroke="green" stroke-width="0.149277" d="M1301.02,-68.0709C1298.37,-67.1962 1295.62,-66.3636 1293,-65.6985 1190.55,-39.7166 1065.18,-24.2039 1012.82,-18.4328"/>
<polygon fill="green" stroke="green" stroke-width="0.149277" points="1013.11,-14.9436 1002.79,-17.3489 1012.35,-21.9031 1013.11,-14.9436"/>
</g>
<!-- &#45;35&#45;&gt;2 -->
<g id="edge139" class="edge"><title>&#45;35&#45;&gt;2</title>
<path fill="none" stroke="green" stroke-width="0.392665" d="M1301.06,-67.8986C1298.41,-67.043 1295.65,-66.2615 1293,-65.6985 1107.58,-26.2521 1048.88,-86.4319 868,-29.6985 866.944,-29.3673 865.885,-28.9839 864.83,-28.5603"/>
<polygon fill="green" stroke="green" stroke-width="0.392665" points="866.237,-25.3501 855.73,-23.9874 863.094,-31.6048 866.237,-25.3501"/>
</g>
<!-- &#45;35&#45;&gt;3 -->
<g id="edge140" class="edge"><title>&#45;35&#45;&gt;3</title>
<path fill="none" stroke="red" stroke-width="0.232327" d="M1301.05,-67.9225C1298.4,-67.0643 1295.64,-66.2757 1293,-65.6985 1128.56,-29.7934 1076.33,-80.9312 916,-29.6985 914.946,-29.3617 913.888,-28.9736 912.834,-28.5463"/>
<polygon fill="red" stroke="red" stroke-width="0.232327" points="914.243,-25.337 903.739,-23.9596 911.092,-31.5873 914.243,-25.337"/>
</g>
<!-- &#45;36 -->
<g id="node36" class="node"><title>&#45;36</title>
<polygon fill="lightgray" stroke="black" points="1377.5,-83.6985 1348.5,-83.6985 1348.5,-65.6985 1377.5,-65.6985 1377.5,-83.6985"/>
<text text-anchor="middle" x="1363" y="-72.4985" font-family="Times New Roman,serif" font-size="9.00">&#45;36</text>
</g>
<!-- &#45;36&#45;&gt;0 -->
<g id="edge141" class="edge"><title>&#45;36&#45;&gt;0</title>
<path fill="none" stroke="red" stroke-width="0.146316" d="M1348.05,-67.923C1345.4,-67.0648 1342.64,-66.276 1340,-65.6985 1175.99,-29.8671 1123.9,-80.8167 964,-29.6985 962.946,-29.3616 961.888,-28.9734 960.835,-28.5459"/>
<polygon fill="red" stroke="red" stroke-width="0.146316" points="962.244,-25.3367 951.739,-23.9589 959.092,-31.5869 962.244,-25.3367"/>
</g>
<!-- &#45;36&#45;&gt;1 -->
<g id="edge142" class="edge"><title>&#45;36&#45;&gt;1</title>
<path fill="none" stroke="red" stroke-width="0.131302" d="M1348.03,-68.0237C1345.38,-67.1542 1342.63,-66.3356 1340,-65.6985 1219.4,-36.4792 1071.13,-22.4094 1013.03,-17.7151"/>
<polygon fill="red" stroke="red" stroke-width="0.131302" points="1013.19,-14.2174 1002.95,-16.9228 1012.64,-21.1958 1013.19,-14.2174"/>
</g>
<!-- &#45;36&#45;&gt;2 -->
<g id="edge143" class="edge"><title>&#45;36&#45;&gt;2</title>
<path fill="none" stroke="green" stroke-width="0.167794" d="M1348.06,-67.8799C1345.41,-67.0264 1342.65,-66.2504 1340,-65.6985 1134.04,-22.782 1069.01,-91.8217 868,-29.6985 866.943,-29.3718 865.882,-28.992 864.827,-28.5713"/>
<polygon fill="green" stroke="green" stroke-width="0.167794" points="866.231,-25.3604 855.723,-24.0092 863.095,-31.6185 866.231,-25.3604"/>
</g>
<!-- &#45;36&#45;&gt;3 -->
<g id="edge144" class="edge"><title>&#45;36&#45;&gt;3</title>
<path fill="none" stroke="red" stroke-width="0.258731" d="M1348.06,-67.899C1345.41,-67.0434 1342.65,-66.2618 1340,-65.6985 1155.02,-26.3259 1096.45,-86.3172 916,-29.6985 914.944,-29.3672 913.885,-28.9837 912.83,-28.56"/>
<polygon fill="red" stroke="red" stroke-width="0.258731" points="914.237,-25.3498 903.73,-23.9869 911.093,-31.6045 914.237,-25.3498"/>
</g>
<!-- &#45;37 -->
<g id="node37" class="node"><title>&#45;37</title>
<polygon fill="lightgray" stroke="black" points="1424.5,-83.6985 1395.5,-83.6985 1395.5,-65.6985 1424.5,-65.6985 1424.5,-83.6985"/>
<text text-anchor="middle" x="1410" y="-72.4985" font-family="Times New Roman,serif" font-size="9.00">&#45;37</text>
</g>
<!-- &#45;37&#45;&gt;0 -->
<g id="edge145" class="edge"><title>&#45;37&#45;&gt;0</title>
<path fill="none" stroke="red" stroke-width="0.201886" d="M1395.06,-67.8995C1392.41,-67.0438 1389.65,-66.262 1387,-65.6985 1202.46,-26.3997 1144.02,-86.2026 964,-29.6985 962.944,-29.3671 961.885,-28.9835 960.83,-28.5598"/>
<polygon fill="red" stroke="red" stroke-width="0.201886" points="962.237,-25.3496 951.73,-23.9863 959.093,-31.6042 962.237,-25.3496"/>
</g>
<!-- &#45;37&#45;&gt;1 -->
<g id="edge146" class="edge"><title>&#45;37&#45;&gt;1</title>
<path fill="none" stroke="green" stroke-width="0.166413" d="M1395.04,-67.9873C1392.39,-67.1218 1389.63,-66.3141 1387,-65.6985 1248.16,-33.2616 1076.9,-20.8527 1013.31,-17.1607"/>
<polygon fill="green" stroke="green" stroke-width="0.166413" points="1013.23,-13.651 1003.05,-16.5875 1012.84,-20.6401 1013.23,-13.651"/>
</g>
<!-- &#45;37&#45;&gt;2 -->
<g id="edge147" class="edge"><title>&#45;37&#45;&gt;2</title>
<path fill="none" stroke="red" stroke-width="0.204268" d="M1395.07,-67.8645C1392.41,-67.0127 1389.65,-66.2413 1387,-65.6985 1160.48,-19.31 1089.14,-97.2143 868,-29.6985 866.942,-29.3754 865.88,-28.9986 864.824,-28.5803"/>
<polygon fill="red" stroke="red" stroke-width="0.204268" points="866.227,-25.3688 855.717,-24.0271 863.096,-31.6298 866.227,-25.3688"/>
</g>
<!-- &#45;37&#45;&gt;3 -->
<g id="edge148" class="edge"><title>&#45;37&#45;&gt;3</title>
<path fill="none" stroke="red" stroke-width="0.191574" d="M1395.06,-67.8802C1392.41,-67.0267 1389.65,-66.2506 1387,-65.6985 1181.47,-22.8558 1116.58,-91.707 916,-29.6985 914.943,-29.3717 913.882,-28.9918 912.827,-28.5711"/>
<polygon fill="red" stroke="red" stroke-width="0.191574" points="914.231,-25.3602 903.723,-24.0087 911.095,-31.6183 914.231,-25.3602"/>
</g>
<!-- &#45;38 -->
<g id="node38" class="node"><title>&#45;38</title>
<polygon fill="lightgray" stroke="black" points="1471.5,-83.6985 1442.5,-83.6985 1442.5,-65.6985 1471.5,-65.6985 1471.5,-83.6985"/>
<text text-anchor="middle" x="1457" y="-72.4985" font-family="Times New Roman,serif" font-size="9.00">&#45;38</text>
</g>
<!-- &#45;38&#45;&gt;0 -->
<g id="edge149" class="edge"><title>&#45;38&#45;&gt;0</title>
<path fill="none" stroke="green" stroke-width="0.119006" d="M1442.06,-67.8806C1439.41,-67.027 1436.65,-66.2509 1434,-65.6985 1228.91,-22.9297 1164.15,-91.5923 964,-29.6985 962.943,-29.3716 961.882,-28.9917 960.827,-28.5709"/>
<polygon fill="green" stroke="green" stroke-width="0.119006" points="962.231,-25.36 951.723,-24.0083 959.095,-31.618 962.231,-25.36"/>
</g>
<!-- &#45;38&#45;&gt;1 -->
<g id="edge150" class="edge"><title>&#45;38&#45;&gt;1</title>
<path fill="none" stroke="red" stroke-width="0.13881" d="M1442.05,-67.9584C1439.4,-67.0962 1436.64,-66.2969 1434,-65.6985 1276.37,-29.9493 1081.34,-19.4044 1013.03,-16.6906"/>
<polygon fill="red" stroke="red" stroke-width="0.13881" points="1012.95,-13.1853 1002.83,-16.3071 1012.69,-20.1804 1012.95,-13.1853"/>
</g>
<!-- &#45;38&#45;&gt;2 -->
<g id="edge151" class="edge"><title>&#45;38&#45;&gt;2</title>
<path fill="none" stroke="green" stroke-width="0.218273" d="M1442.07,-67.8517C1439.42,-67.0013 1436.65,-66.2337 1434,-65.6985 1186.92,-15.8366 1109.29,-102.609 868,-29.6985 866.941,-29.3784 865.878,-29.0041 864.821,-28.5878"/>
<polygon fill="green" stroke="green" stroke-width="0.218273" points="866.223,-25.3759 855.713,-24.042 863.098,-31.6392 866.223,-25.3759"/>
</g>
<!-- &#45;38&#45;&gt;3 -->
<g id="edge152" class="edge"><title>&#45;38&#45;&gt;3</title>
<path fill="none" stroke="green" stroke-width="0.180084" d="M1442.07,-67.8648C1439.41,-67.013 1436.65,-66.2415 1434,-65.6985 1207.92,-19.3839 1136.72,-97.0995 916,-29.6985 914.942,-29.3753 913.88,-28.9985 912.824,-28.5801"/>
<polygon fill="green" stroke="green" stroke-width="0.180084" points="914.227,-25.3687 903.718,-24.0267 911.096,-31.6296 914.227,-25.3687"/>
</g>
<!-- &#45;39 -->
<g id="node39" class="node"><title>&#45;39</title>
<polygon fill="lightgray" stroke="black" points="1518.5,-83.6985 1489.5,-83.6985 1489.5,-65.6985 1518.5,-65.6985 1518.5,-83.6985"/>
<text text-anchor="middle" x="1504" y="-72.4985" font-family="Times New Roman,serif" font-size="9.00">&#45;39</text>
</g>
<!-- &#45;39&#45;&gt;0 -->
<g id="edge153" class="edge"><title>&#45;39&#45;&gt;0</title>
<path fill="none" stroke="red" stroke-width="0.213094" d="M1489.07,-67.8651C1486.41,-67.0133 1483.65,-66.2417 1481,-65.6985 1255.36,-19.4577 1184.29,-96.9848 964,-29.6985 962.942,-29.3753 961.88,-28.9983 960.824,-28.58"/>
<polygon fill="red" stroke="red" stroke-width="0.213094" points="962.227,-25.3685 951.718,-24.0264 959.096,-31.6294 962.227,-25.3685"/>
</g>
<!-- &#45;39&#45;&gt;1 -->
<g id="edge154" class="edge"><title>&#45;39&#45;&gt;1</title>
<path fill="none" stroke="green" stroke-width="0.170908" d="M1489.05,-67.9349C1486.4,-67.0753 1483.64,-66.283 1481,-65.6985 1304.83,-26.7196 1086.42,-18.1502 1013.23,-16.3259"/>
<polygon fill="green" stroke="green" stroke-width="0.170908" points="1013.2,-12.8246 1003.13,-16.0951 1013.04,-19.8227 1013.2,-12.8246"/>
</g>
<!-- &#45;39&#45;&gt;2 -->
<g id="edge155" class="edge"><title>&#45;39&#45;&gt;2</title>
<path fill="none" stroke="red" stroke-width="0.136311" d="M1489.07,-67.8408C1486.42,-66.9917 1483.65,-66.2273 1481,-65.6985 1213.35,-12.3622 1129.44,-108.005 868,-29.6985 866.94,-29.381 865.877,-29.0088 864.82,-28.5942"/>
<polygon fill="red" stroke="red" stroke-width="0.136311" points="866.22,-25.3819 855.709,-24.0547 863.099,-31.6472 866.22,-25.3819"/>
</g>
<!-- &#45;39&#45;&gt;3 -->
<g id="edge156" class="edge"><title>&#45;39&#45;&gt;3</title>
<path fill="none" stroke="green" stroke-width="0.164212" d="M1489.07,-67.8519C1486.42,-67.0016 1483.65,-66.2339 1481,-65.6985 1234.35,-15.9105 1156.86,-102.494 916,-29.6985 914.941,-29.3784 913.878,-29.004 912.822,-28.5877"/>
<polygon fill="green" stroke="green" stroke-width="0.164212" points="914.224,-25.3758 903.713,-24.0417 911.098,-31.639 914.224,-25.3758"/>
</g>
<!-- &#45;40 -->
<g id="node40" class="node"><title>&#45;40</title>
<polygon fill="lightgray" stroke="black" points="1565.5,-83.6985 1536.5,-83.6985 1536.5,-65.6985 1565.5,-65.6985 1565.5,-83.6985"/>
<text text-anchor="middle" x="1551" y="-72.4985" font-family="Times New Roman,serif" font-size="9.00">&#45;40</text>
</g>
<!-- &#45;40&#45;&gt;0 -->
<g id="edge157" class="edge"><title>&#45;40&#45;&gt;0</title>
<path fill="none" stroke="red" stroke-width="0.129732" d="M1536.07,-67.8522C1533.42,-67.0018 1530.65,-66.234 1528,-65.6985 1281.79,-15.9844 1204.43,-102.379 964,-29.6985 962.941,-29.3783 961.878,-29.0039 960.822,-28.5876"/>
<polygon fill="red" stroke="red" stroke-width="0.129732" points="962.224,-25.3756 951.713,-24.0414 959.098,-31.6389 962.224,-25.3756"/>
</g>
<!-- &#45;40&#45;&gt;1 -->
<g id="edge158" class="edge"><title>&#45;40&#45;&gt;1</title>
<path fill="none" stroke="red" stroke-width="0.149589" d="M1536.06,-67.9155C1533.4,-67.058 1530.64,-66.2715 1528,-65.6985 1333.31,-23.5095 1091.55,-17.0068 1013.53,-16.0204"/>
<polygon fill="red" stroke="red" stroke-width="0.149589" points="1013.27,-12.5175 1003.24,-15.9112 1013.2,-19.5171 1013.27,-12.5175"/>
</g>
<!-- &#45;40&#45;&gt;2 -->
<g id="edge159" class="edge"><title>&#45;40&#45;&gt;2</title>
<path fill="none" stroke="red" stroke-width="0.195903" d="M1536.07,-67.8315C1533.42,-66.9834 1530.65,-66.2217 1528,-65.6985 1239.78,-8.88702 1149.59,-113.402 868,-29.6985 866.939,-29.3832 865.876,-29.0128 864.818,-28.5997"/>
<polygon fill="red" stroke="red" stroke-width="0.195903" points="866.218,-25.3871 855.706,-24.0656 863.099,-31.6541 866.218,-25.3871"/>
</g>
<!-- &#45;40&#45;&gt;3 -->
<g id="edge160" class="edge"><title>&#45;40&#45;&gt;3</title>
<path fill="none" stroke="green" stroke-width="0.342206" d="M1536.07,-67.841C1533.42,-66.9919 1530.65,-66.2274 1528,-65.6985 1260.79,-12.4362 1177.01,-107.89 916,-29.6985 914.94,-29.381 913.877,-29.0087 912.82,-28.5941"/>
<polygon fill="green" stroke="green" stroke-width="0.342206" points="914.221,-25.3818 903.709,-24.0544 911.099,-31.6471 914.221,-25.3818"/>
</g>
</g>
</svg>
