<?xml version="1.0" encoding="UTF-8" standalone="no"?>
<!DOCTYPE svg PUBLIC "-//W3C//DTD SVG 1.1//EN"
 "http://www.w3.org/Graphics/SVG/1.1/DTD/svg11.dtd">
<!-- Generated by graphviz version 2.38.0 (20140413.2041)
 -->
<!-- Title: %3 Pages: 1 -->
<svg width="1827pt" height="92pt"
 viewBox="0.00 0.00 1826.50 91.70" xmlns="http://www.w3.org/2000/svg" xmlns:xlink="http://www.w3.org/1999/xlink">
<g id="graph0" class="graph" transform="scale(1 1) rotate(0) translate(4 87.6985)">
<title>%3</title>
<polygon fill="white" stroke="none" points="-4,4 -4,-87.6985 1822.5,-87.6985 1822.5,4 -4,4"/>
<!-- &#45;1 -->
<g id="node1" class="node"><title>&#45;1</title>
<polygon fill="lightgray" stroke="black" points="1101,-83.6985 1077,-83.6985 1077,-65.6985 1101,-65.6985 1101,-83.6985"/>
<text text-anchor="middle" x="1089" y="-72.4985" font-family="Times New Roman,serif" font-size="9.00">&#45;1</text>
</g>
<!-- 0 -->
<g id="node41" class="node"><title>0</title>
<ellipse fill="lightblue" stroke="black" cx="949" cy="-14.8492" rx="14.7" ry="14.7"/>
<text text-anchor="middle" x="949" y="-12.6492" font-family="Times New Roman,serif" font-size="9.00">0</text>
</g>
<!-- &#45;1&#45;&gt;0 -->
<g id="edge1" class="edge"><title>&#45;1&#45;&gt;0</title>
<path fill="none" stroke="green" stroke-width="0.473141" d="M1076.56,-68.957C1073.75,-67.8845 1070.77,-66.7516 1068,-65.6985 1025.79,-49.6615 1013.8,-49.0449 973,-29.6985 972.163,-29.3017 971.317,-28.8863 970.466,-28.4573"/>
<polygon fill="green" stroke="green" stroke-width="0.473141" points="971.956,-25.2828 961.5,-23.5706 968.606,-31.4293 971.956,-25.2828"/>
</g>
<!-- 1 -->
<g id="node42" class="node"><title>1</title>
<ellipse fill="lightblue" stroke="black" cx="853" cy="-14.8492" rx="14.7" ry="14.7"/>
<text text-anchor="middle" x="853" y="-12.6492" font-family="Times New Roman,serif" font-size="9.00">1</text>
</g>
<!-- &#45;1&#45;&gt;1 -->
<g id="edge2" class="edge"><title>&#45;1&#45;&gt;1</title>
<path fill="none" stroke="red" stroke-width="0.257846" d="M1076.69,-68.5898C1073.86,-67.5364 1070.85,-66.504 1068,-65.6985 984.865,-42.2299 958.002,-59.7113 877,-29.6985 876.132,-29.3767 875.258,-29.0251 874.385,-28.6498"/>
<polygon fill="red" stroke="red" stroke-width="0.257846" points="875.811,-25.4477 865.313,-24.0138 872.625,-31.681 875.811,-25.4477"/>
</g>
<!-- 2 -->
<g id="node43" class="node"><title>2</title>
<ellipse fill="lightblue" stroke="black" cx="901" cy="-14.8492" rx="14.7" ry="14.7"/>
<text text-anchor="middle" x="901" y="-12.6492" font-family="Times New Roman,serif" font-size="9.00">2</text>
</g>
<!-- &#45;1&#45;&gt;2 -->
<g id="edge3" class="edge"><title>&#45;1&#45;&gt;2</title>
<path fill="none" stroke="red" stroke-width="0.144861" d="M1076.65,-68.7169C1073.83,-67.6569 1070.83,-66.5897 1068,-65.6985 1005.49,-45.9989 985.741,-54.3121 925,-29.6985 924.142,-29.3507 923.277,-28.9769 922.411,-28.583"/>
<polygon fill="red" stroke="red" stroke-width="0.144861" points="923.857,-25.3893 913.373,-23.86 920.615,-31.5934 923.857,-25.3893"/>
</g>
<!-- 3 -->
<g id="node44" class="node"><title>3</title>
<ellipse fill="lightblue" stroke="black" cx="997" cy="-14.8492" rx="14.7" ry="14.7"/>
<text text-anchor="middle" x="997" y="-12.6492" font-family="Times New Roman,serif" font-size="9.00">3</text>
</g>
<!-- &#45;1&#45;&gt;3 -->
<g id="edge4" class="edge"><title>&#45;1&#45;&gt;3</title>
<path fill="none" stroke="red" stroke-width="0.234866" d="M1076.97,-66.1357C1061.97,-56.7037 1036.08,-40.4246 1017.83,-28.948"/>
<polygon fill="red" stroke="red" stroke-width="0.234866" points="1019.65,-25.9587 1009.32,-23.5985 1015.93,-31.8846 1019.65,-25.9587"/>
</g>
<!-- &#45;2 -->
<g id="node2" class="node"><title>&#45;2</title>
<polygon fill="lightgray" stroke="black" points="1143,-83.6985 1119,-83.6985 1119,-65.6985 1143,-65.6985 1143,-83.6985"/>
<text text-anchor="middle" x="1131" y="-72.4985" font-family="Times New Roman,serif" font-size="9.00">&#45;2</text>
</g>
<!-- &#45;2&#45;&gt;0 -->
<g id="edge5" class="edge"><title>&#45;2&#45;&gt;0</title>
<path fill="none" stroke="red" stroke-width="0.136547" d="M1118.64,-68.7386C1115.82,-67.6774 1112.82,-66.6043 1110,-65.6985 1050.05,-46.4649 1031.22,-53.6435 973,-29.6985 972.144,-29.3463 971.28,-28.9687 970.416,-28.5716"/>
<polygon fill="red" stroke="red" stroke-width="0.136547" points="971.865,-25.3795 961.383,-23.8338 968.613,-31.5785 971.865,-25.3795"/>
</g>
<!-- &#45;2&#45;&gt;1 -->
<g id="edge6" class="edge"><title>&#45;2&#45;&gt;1</title>
<path fill="none" stroke="green" stroke-width="0.323288" d="M1118.7,-68.5198C1115.88,-67.47 1112.87,-66.4568 1110,-65.6985 1008.7,-38.8986 975.844,-64.4781 877,-29.6985 876.126,-29.3911 875.249,-29.0517 874.372,-28.6867"/>
<polygon fill="green" stroke="green" stroke-width="0.323288" points="875.787,-25.4803 865.283,-24.0987 872.633,-31.7294 875.787,-25.4803"/>
</g>
<!-- &#45;2&#45;&gt;2 -->
<g id="edge7" class="edge"><title>&#45;2&#45;&gt;2</title>
<path fill="none" stroke="red" stroke-width="0.46812" d="M1118.68,-68.6023C1115.86,-67.5482 1112.85,-66.5124 1110,-65.6985 1029.45,-42.7038 1003.46,-59.0328 925,-29.6985 924.133,-29.3742 923.26,-29.0203 922.388,-28.6432"/>
<polygon fill="red" stroke="red" stroke-width="0.46812" points="923.815,-25.4419 913.319,-23.9987 920.624,-31.6723 923.815,-25.4419"/>
</g>
<!-- &#45;2&#45;&gt;3 -->
<g id="edge8" class="edge"><title>&#45;2&#45;&gt;3</title>
<path fill="none" stroke="green" stroke-width="0.528025" d="M1118.63,-68.3599C1096.15,-58.6518 1048.25,-37.9754 1019.73,-25.6624"/>
<polygon fill="green" stroke="green" stroke-width="0.528025" points="1021.09,-22.4379 1010.52,-21.6877 1018.32,-28.8646 1021.09,-22.4379"/>
</g>
<!-- &#45;3 -->
<g id="node3" class="node"><title>&#45;3</title>
<polygon fill="lightgray" stroke="black" points="1185,-83.6985 1161,-83.6985 1161,-65.6985 1185,-65.6985 1185,-83.6985"/>
<text text-anchor="middle" x="1173" y="-72.4985" font-family="Times New Roman,serif" font-size="9.00">&#45;3</text>
</g>
<!-- &#45;3&#45;&gt;0 -->
<g id="edge9" class="edge"><title>&#45;3&#45;&gt;0</title>
<path fill="none" stroke="red" stroke-width="0.894617" d="M1160.68,-68.6156C1157.86,-67.5608 1154.85,-66.5214 1152,-65.6985 1074.04,-43.1772 1048.92,-58.3551 973,-29.6985 972.134,-29.3715 971.262,-29.0153 970.39,-28.6363"/>
<polygon fill="red" stroke="red" stroke-width="0.894617" points="971.82,-25.4358 961.325,-23.9826 968.623,-31.6632 971.82,-25.4358"/>
</g>
<!-- &#45;3&#45;&gt;1 -->
<g id="edge10" class="edge"><title>&#45;3&#45;&gt;1</title>
<path fill="none" stroke="red" stroke-width="0.25743" d="M1160.72,-68.4706C1157.89,-67.4233 1154.88,-66.4236 1152,-65.6985 1032.48,-35.5518 993.742,-69.265 877,-29.6985 876.123,-29.4012 875.242,-29.0704 874.363,-28.7127"/>
<polygon fill="red" stroke="red" stroke-width="0.25743" points="875.771,-25.5035 865.262,-24.1585 872.638,-31.7635 875.771,-25.5035"/>
</g>
<!-- &#45;3&#45;&gt;2 -->
<g id="edge11" class="edge"><title>&#45;3&#45;&gt;2</title>
<path fill="none" stroke="green" stroke-width="0.304284" d="M1160.7,-68.5283C1157.88,-67.478 1154.86,-66.4626 1152,-65.6985 1053.3,-39.3756 1021.29,-63.7957 925,-29.6985 924.127,-29.3894 923.25,-29.0484 922.374,-28.6822"/>
<polygon fill="green" stroke="green" stroke-width="0.304284" points="923.79,-25.4764 913.286,-24.0884 920.632,-31.7235 923.79,-25.4764"/>
</g>
<!-- &#45;3&#45;&gt;3 -->
<g id="edge12" class="edge"><title>&#45;3&#45;&gt;3</title>
<path fill="none" stroke="green" stroke-width="0.401555" d="M1160.6,-68.8516C1157.79,-67.7845 1154.8,-66.6805 1152,-65.6985 1105.95,-49.5356 1051.52,-32.5013 1020.95,-23.1219"/>
<polygon fill="green" stroke="green" stroke-width="0.401555" points="1021.77,-19.7136 1011.19,-20.1375 1019.73,-26.4078 1021.77,-19.7136"/>
</g>
<!-- &#45;4 -->
<g id="node4" class="node"><title>&#45;4</title>
<polygon fill="lightgray" stroke="black" points="1227,-83.6985 1203,-83.6985 1203,-65.6985 1227,-65.6985 1227,-83.6985"/>
<text text-anchor="middle" x="1215" y="-72.4985" font-family="Times New Roman,serif" font-size="9.00">&#45;4</text>
</g>
<!-- &#45;4&#45;&gt;0 -->
<g id="edge13" class="edge"><title>&#45;4&#45;&gt;0</title>
<path fill="none" stroke="red" stroke-width="0.775305" d="M1202.7,-68.5372C1199.88,-67.4865 1196.86,-66.4686 1194,-65.6985 1097.9,-39.8523 1066.74,-63.1136 973,-29.6985 972.128,-29.3875 971.251,-29.0451 970.375,-28.6775"/>
<polygon fill="red" stroke="red" stroke-width="0.775305" points="971.793,-25.4722 961.29,-24.0776 968.631,-31.7173 971.793,-25.4722"/>
</g>
<!-- &#45;4&#45;&gt;1 -->
<g id="edge14" class="edge"><title>&#45;4&#45;&gt;1</title>
<path fill="none" stroke="red" stroke-width="0.298748" d="M1202.73,-68.4341C1199.9,-67.3887 1196.88,-66.3991 1194,-65.6985 1056.22,-32.1961 1011.68,-74.0637 877,-29.6985 876.12,-29.4087 875.237,-29.0843 874.357,-28.7319"/>
<polygon fill="red" stroke="red" stroke-width="0.298748" points="875.76,-25.5208 865.247,-24.2028 872.643,-31.7888 875.76,-25.5208"/>
</g>
<!-- &#45;4&#45;&gt;2 -->
<g id="edge15" class="edge"><title>&#45;4&#45;&gt;2</title>
<path fill="none" stroke="red" stroke-width="0.414942" d="M1202.72,-68.4767C1199.89,-67.4291 1196.87,-66.4278 1194,-65.6985 1077.08,-36.0306 1039.18,-68.5803 925,-29.6985 924.123,-29.4 923.243,-29.0681 922.364,-28.7094"/>
<polygon fill="red" stroke="red" stroke-width="0.414942" points="923.773,-25.5006 913.264,-24.1511 920.638,-31.7593 923.773,-25.5006"/>
</g>
<!-- &#45;4&#45;&gt;3 -->
<g id="edge16" class="edge"><title>&#45;4&#45;&gt;3</title>
<path fill="none" stroke="green" stroke-width="0.459211" d="M1202.65,-68.7195C1199.83,-67.6593 1196.83,-66.5915 1194,-65.6985 1132.76,-46.3581 1059.01,-29.318 1021.5,-21.0855"/>
<polygon fill="green" stroke="green" stroke-width="0.459211" points="1022.01,-17.6156 1011.5,-18.9113 1020.53,-24.4558 1022.01,-17.6156"/>
</g>
<!-- &#45;5 -->
<g id="node5" class="node"><title>&#45;5</title>
<polygon fill="lightgray" stroke="black" points="1269,-83.6985 1245,-83.6985 1245,-65.6985 1269,-65.6985 1269,-83.6985"/>
<text text-anchor="middle" x="1257" y="-72.4985" font-family="Times New Roman,serif" font-size="9.00">&#45;5</text>
</g>
<!-- &#45;5&#45;&gt;0 -->
<g id="edge17" class="edge"><title>&#45;5&#45;&gt;0</title>
<path fill="none" stroke="red" stroke-width="0.145822" d="M1244.71,-68.4831C1241.89,-67.4352 1238.87,-66.4321 1236,-65.6985 1121.69,-36.5092 1084.62,-67.8959 973,-29.6985 972.124,-29.3987 971.244,-29.0656 970.365,-28.7061"/>
<polygon fill="red" stroke="red" stroke-width="0.145822" points="971.775,-25.4976 961.267,-24.1433 968.637,-31.7548 971.775,-25.4976"/>
</g>
<!-- &#45;5&#45;&gt;1 -->
<g id="edge18" class="edge"><title>&#45;5&#45;&gt;1</title>
<path fill="none" stroke="green" stroke-width="0.149246" d="M1244.73,-68.406C1241.91,-67.3621 1238.89,-66.3801 1236,-65.6985 1079.94,-28.8348 1029.63,-78.8698 877,-29.6985 875.947,-29.3592 874.889,-28.9691 873.836,-28.54"/>
<polygon fill="green" stroke="green" stroke-width="0.149246" points="875.247,-25.3312 864.742,-23.9473 872.091,-31.5796 875.247,-25.3312"/>
</g>
<!-- &#45;5&#45;&gt;2 -->
<g id="edge19" class="edge"><title>&#45;5&#45;&gt;2</title>
<path fill="none" stroke="green" stroke-width="0.120519" d="M1244.73,-68.4388C1241.9,-67.3931 1238.88,-66.4022 1236,-65.6985 1100.83,-32.6759 1057.11,-73.3776 925,-29.6985 924.121,-29.4078 923.238,-29.0825 922.357,-28.7295"/>
<polygon fill="green" stroke="green" stroke-width="0.120519" points="923.761,-25.5186 913.249,-24.1972 920.643,-31.7856 923.761,-25.5186"/>
</g>
<!-- &#45;5&#45;&gt;3 -->
<g id="edge20" class="edge"><title>&#45;5&#45;&gt;3</title>
<path fill="none" stroke="red" stroke-width="0.299376" d="M1244.67,-68.6307C1241.85,-67.5751 1238.85,-66.5316 1236,-65.6985 1159.12,-43.1921 1065.5,-26.7488 1021.76,-19.682"/>
<polygon fill="red" stroke="red" stroke-width="0.299376" points="1022.17,-16.2047 1011.75,-18.0894 1021.07,-23.1177 1022.17,-16.2047"/>
</g>
<!-- &#45;6 -->
<g id="node6" class="node"><title>&#45;6</title>
<polygon fill="lightgray" stroke="black" points="24,-83.6985 0,-83.6985 0,-65.6985 24,-65.6985 24,-83.6985"/>
<text text-anchor="middle" x="12" y="-72.4985" font-family="Times New Roman,serif" font-size="9.00">&#45;6</text>
</g>
<!-- &#45;6&#45;&gt;0 -->
<g id="edge21" class="edge"><title>&#45;6&#45;&gt;0</title>
<path fill="none" stroke="green" stroke-width="0.168508" d="M24.2383,-68.2781C27.0644,-67.2408 30.0953,-66.2938 33,-65.6985 227.344,-25.8663 734.444,-84.8767 925,-29.6985 926.063,-29.3907 927.128,-29.0265 928.188,-28.6184"/>
<polygon fill="green" stroke="green" stroke-width="0.168508" points="929.897,-31.6774 937.305,-24.1026 926.79,-25.4046 929.897,-31.6774"/>
</g>
<!-- &#45;6&#45;&gt;1 -->
<g id="edge22" class="edge"><title>&#45;6&#45;&gt;1</title>
<path fill="none" stroke="red" stroke-width="0.324125" stroke-dasharray="1,5" d="M24.2475,-68.3219C27.0732,-67.2823 30.1015,-66.3234 33,-65.6985 190.339,-31.7765 707.64,-18.9209 827.876,-16.3532"/>
<polygon fill="red" stroke="red" stroke-width="0.324125" points="828.028,-19.8509 837.953,-16.1425 827.882,-12.8524 828.028,-19.8509"/>
</g>
<!-- &#45;6&#45;&gt;2 -->
<g id="edge23" class="edge"><title>&#45;6&#45;&gt;2</title>
<path fill="none" stroke="green" stroke-width="0.538498" d="M24.2393,-68.283C27.0654,-67.2454 30.096,-66.2972 33,-65.6985 216.86,-27.7955 696.741,-82.1189 877,-29.6985 878.062,-29.3895 879.128,-29.0243 880.187,-28.6154"/>
<polygon fill="green" stroke="green" stroke-width="0.538498" points="881.898,-31.6736 889.303,-24.0966 878.789,-25.4018 881.898,-31.6736"/>
</g>
<!-- &#45;7 -->
<g id="node7" class="node"><title>&#45;7</title>
<polygon fill="lightgray" stroke="black" points="1311,-83.6985 1287,-83.6985 1287,-65.6985 1311,-65.6985 1311,-83.6985"/>
<text text-anchor="middle" x="1299" y="-72.4985" font-family="Times New Roman,serif" font-size="9.00">&#45;7</text>
</g>
<!-- &#45;7&#45;&gt;0 -->
<g id="edge24" class="edge"><title>&#45;7&#45;&gt;0</title>
<path fill="none" stroke="red" stroke-width="0.23688" d="M1286.72,-68.4436C1283.9,-67.3977 1280.88,-66.4054 1278,-65.6985 1145.44,-33.1556 1102.55,-72.6917 973,-29.6985 972.121,-29.4068 971.239,-29.0807 970.358,-28.7269"/>
<polygon fill="red" stroke="red" stroke-width="0.23688" points="971.763,-25.5163 961.251,-24.1914 968.642,-31.7823 971.763,-25.5163"/>
</g>
<!-- &#45;7&#45;&gt;1 -->
<g id="edge25" class="edge"><title>&#45;7&#45;&gt;1</title>
<path fill="none" stroke="red" stroke-width="0.433052" d="M1286.74,-68.3838C1283.91,-67.341 1280.89,-66.3651 1278,-65.6985 1103.64,-25.4696 1047.6,-83.681 877,-29.6985 875.945,-29.3647 874.886,-28.9791 873.832,-28.5537"/>
<polygon fill="red" stroke="red" stroke-width="0.433052" points="875.24,-25.3439 864.734,-23.9743 872.093,-31.5966 875.24,-25.3439"/>
</g>
<!-- &#45;7&#45;&gt;2 -->
<g id="edge26" class="edge"><title>&#45;7&#45;&gt;2</title>
<path fill="none" stroke="green" stroke-width="0.187967" d="M1286.73,-68.4097C1283.91,-67.3655 1280.89,-66.3826 1278,-65.6985 1124.55,-29.3152 1075.06,-78.1828 925,-29.6985 923.947,-29.3583 922.89,-28.9675 921.837,-28.5378"/>
<polygon fill="green" stroke="green" stroke-width="0.187967" points="923.248,-25.3292 912.744,-23.9429 920.091,-31.5768 923.248,-25.3292"/>
</g>
<!-- &#45;7&#45;&gt;3 -->
<g id="edge27" class="edge"><title>&#45;7&#45;&gt;3</title>
<path fill="none" stroke="red" stroke-width="0.431197" d="M1286.69,-68.5671C1283.87,-67.5148 1280.86,-66.4887 1278,-65.6985 1185.21,-40.0408 1071.4,-24.6142 1021.93,-18.6689"/>
<polygon fill="red" stroke="red" stroke-width="0.431197" points="1022.18,-15.1751 1011.84,-17.4823 1021.37,-22.1271 1022.18,-15.1751"/>
</g>
<!-- &#45;8 -->
<g id="node8" class="node"><title>&#45;8</title>
<polygon fill="lightgray" stroke="black" points="1353,-83.6985 1329,-83.6985 1329,-65.6985 1353,-65.6985 1353,-83.6985"/>
<text text-anchor="middle" x="1341" y="-72.4985" font-family="Times New Roman,serif" font-size="9.00">&#45;8</text>
</g>
<!-- &#45;8&#45;&gt;0 -->
<g id="edge28" class="edge"><title>&#45;8&#45;&gt;0</title>
<path fill="none" stroke="red" stroke-width="0.100746" d="M1328.73,-68.4134C1325.91,-67.3691 1322.88,-66.3851 1320,-65.6985 1169.16,-29.7956 1120.5,-77.496 973,-29.6985 971.947,-29.3574 970.89,-28.9658 969.838,-28.5356"/>
<polygon fill="red" stroke="red" stroke-width="0.100746" points="971.249,-25.327 960.745,-23.9384 968.09,-31.574 971.249,-25.327"/>
</g>
<!-- &#45;8&#45;&gt;1 -->
<g id="edge29" class="edge"><title>&#45;8&#45;&gt;1</title>
<path fill="none" stroke="green" stroke-width="0.220483" d="M1328.74,-68.3656C1325.92,-67.3238 1322.89,-66.3529 1320,-65.6985 1127.33,-22.1018 1065.58,-88.4957 877,-29.6985 875.944,-29.3692 874.883,-28.9872 873.829,-28.5648"/>
<polygon fill="green" stroke="green" stroke-width="0.220483" points="875.234,-25.3543 864.727,-23.9963 872.094,-31.6104 875.234,-25.3543"/>
</g>
<!-- &#45;8&#45;&gt;2 -->
<g id="edge30" class="edge"><title>&#45;8&#45;&gt;2</title>
<path fill="none" stroke="red" stroke-width="0.226894" d="M1328.74,-68.3867C1325.91,-67.3437 1322.89,-66.367 1320,-65.6985 1148.26,-25.9505 1093.03,-82.9934 925,-29.6985 923.945,-29.364 922.886,-28.9778 921.833,-28.5519"/>
<polygon fill="red" stroke="red" stroke-width="0.226894" points="923.241,-25.3423 912.735,-23.9708 920.092,-31.5944 923.241,-25.3423"/>
</g>
<!-- &#45;8&#45;&gt;3 -->
<g id="edge31" class="edge"><title>&#45;8&#45;&gt;3</title>
<path fill="none" stroke="green" stroke-width="0.317444" d="M1328.71,-68.5195C1325.88,-67.4697 1322.87,-66.4566 1320,-65.6985 1210.95,-36.8573 1076.48,-22.7482 1021.83,-17.8834"/>
<polygon fill="green" stroke="green" stroke-width="0.317444" points="1021.98,-14.3826 1011.71,-17.0077 1021.37,-21.3566 1021.98,-14.3826"/>
</g>
<!-- &#45;9 -->
<g id="node9" class="node"><title>&#45;9</title>
<polygon fill="lightgray" stroke="black" points="1395,-83.6985 1371,-83.6985 1371,-65.6985 1395,-65.6985 1395,-83.6985"/>
<text text-anchor="middle" x="1383" y="-72.4985" font-family="Times New Roman,serif" font-size="9.00">&#45;9</text>
</g>
<!-- &#45;9&#45;&gt;0 -->
<g id="edge32" class="edge"><title>&#45;9&#45;&gt;0</title>
<path fill="none" stroke="red" stroke-width="0.157148" d="M1370.74,-68.3896C1367.91,-67.3466 1364.89,-66.3691 1362,-65.6985 1192.87,-26.4314 1138.47,-82.3059 973,-29.6985 971.946,-29.3632 970.887,-28.9765 969.833,-28.5501"/>
<polygon fill="red" stroke="red" stroke-width="0.157148" points="971.242,-25.3406 960.736,-23.9672 968.092,-31.5921 971.242,-25.3406"/>
</g>
<!-- &#45;9&#45;&gt;1 -->
<g id="edge33" class="edge"><title>&#45;9&#45;&gt;1</title>
<path fill="none" stroke="green" stroke-width="0.205905" d="M1370.75,-68.3506C1367.92,-67.3096 1364.89,-66.3428 1362,-65.6985 1151.02,-18.7321 1083.58,-93.313 877,-29.6985 875.943,-29.3728 874.881,-28.9939 873.826,-28.5739"/>
<polygon fill="green" stroke="green" stroke-width="0.205905" points="875.23,-25.3629 864.721,-24.0145 872.095,-31.6219 875.23,-25.3629"/>
</g>
<!-- &#45;9&#45;&gt;2 -->
<g id="edge34" class="edge"><title>&#45;9&#45;&gt;2</title>
<path fill="none" stroke="red" stroke-width="0.251136" d="M1370.74,-68.368C1367.92,-67.3261 1364.89,-66.3545 1362,-65.6985 1171.95,-22.583 1111.02,-87.8077 925,-29.6985 923.944,-29.3686 922.884,-28.9861 921.829,-28.5633"/>
<polygon fill="red" stroke="red" stroke-width="0.251136" points="923.235,-25.3529 912.728,-23.9934 920.094,-31.6086 923.235,-25.3529"/>
</g>
<!-- &#45;9&#45;&gt;3 -->
<g id="edge35" class="edge"><title>&#45;9&#45;&gt;3</title>
<path fill="none" stroke="green" stroke-width="0.30744" d="M1370.71,-68.4825C1367.89,-67.4346 1364.87,-66.4316 1362,-65.6985 1236.83,-33.7567 1081.96,-21.1869 1022.18,-17.3045"/>
<polygon fill="green" stroke="green" stroke-width="0.30744" points="1022.03,-13.7889 1011.84,-16.6593 1021.6,-20.7753 1022.03,-13.7889"/>
</g>
<!-- &#45;10 -->
<g id="node10" class="node"><title>&#45;10</title>
<polygon fill="lightgray" stroke="black" points="1442.5,-83.6985 1413.5,-83.6985 1413.5,-65.6985 1442.5,-65.6985 1442.5,-83.6985"/>
<text text-anchor="middle" x="1428" y="-72.4985" font-family="Times New Roman,serif" font-size="9.00">&#45;10</text>
</g>
<!-- &#45;10&#45;&gt;0 -->
<g id="edge36" class="edge"><title>&#45;10&#45;&gt;0</title>
<path fill="none" stroke="red" stroke-width="0.108525" d="M1413.43,-68.2268C1410.35,-67.2457 1407.1,-66.3346 1404,-65.6985 1215.71,-27.031 1156.45,-87.1198 973,-29.6985 971.944,-29.368 970.884,-28.985 969.829,-28.5618"/>
<polygon fill="red" stroke="red" stroke-width="0.108525" points="971.236,-25.3515 960.729,-23.9904 968.094,-31.6067 971.236,-25.3515"/>
</g>
<!-- &#45;10&#45;&gt;1 -->
<g id="edge37" class="edge"><title>&#45;10&#45;&gt;1</title>
<path fill="none" stroke="red" stroke-width="0.307046" d="M1413.44,-68.1905C1410.36,-67.212 1407.1,-66.3112 1404,-65.6985 1173.68,-20.2134 1101.57,-98.1324 877,-29.6985 875.942,-29.376 874.88,-28.9996 873.823,-28.5817"/>
<polygon fill="red" stroke="red" stroke-width="0.307046" points="875.226,-25.3701 864.717,-24.0298 872.097,-31.6315 875.226,-25.3701"/>
</g>
<!-- &#45;10&#45;&gt;2 -->
<g id="edge38" class="edge"><title>&#45;10&#45;&gt;2</title>
<path fill="none" stroke="red" stroke-width="0.128557" d="M1413.43,-68.2069C1410.36,-67.2272 1407.1,-66.3217 1404,-65.6985 1194.7,-23.6231 1129,-92.6247 925,-29.6985 923.943,-29.3724 922.882,-28.993 921.826,-28.5727"/>
<polygon fill="red" stroke="red" stroke-width="0.128557" points="923.231,-25.3617 912.722,-24.0121 920.095,-31.6204 923.231,-25.3617"/>
</g>
<!-- &#45;10&#45;&gt;3 -->
<g id="edge39" class="edge"><title>&#45;10&#45;&gt;3</title>
<path fill="none" stroke="green" stroke-width="0.177881" d="M1413.41,-68.3192C1410.33,-67.3314 1407.08,-66.3942 1404,-65.6985 1261.84,-33.6388 1086.79,-20.9766 1022.35,-17.1897"/>
<polygon fill="green" stroke="green" stroke-width="0.177881" points="1022.15,-13.673 1011.97,-16.6013 1021.75,-20.6618 1022.15,-13.673"/>
</g>
<!-- &#45;11 -->
<g id="node11" class="node"><title>&#45;11</title>
<polygon fill="lightgray" stroke="black" points="1489.5,-83.6985 1460.5,-83.6985 1460.5,-65.6985 1489.5,-65.6985 1489.5,-83.6985"/>
<text text-anchor="middle" x="1475" y="-72.4985" font-family="Times New Roman,serif" font-size="9.00">&#45;11</text>
</g>
<!-- &#45;11&#45;&gt;0 -->
<g id="edge40" class="edge"><title>&#45;11&#45;&gt;0</title>
<path fill="none" stroke="green" stroke-width="0.352083" d="M1460.06,-67.8774C1457.41,-67.0242 1454.65,-66.249 1452,-65.6985 1242.98,-22.265 1177,-92.6247 973,-29.6985 971.943,-29.3724 970.882,-28.993 969.826,-28.5727"/>
<polygon fill="green" stroke="green" stroke-width="0.352083" points="971.231,-25.3617 960.722,-24.0121 968.095,-31.6204 971.231,-25.3617"/>
</g>
<!-- &#45;11&#45;&gt;1 -->
<g id="edge41" class="edge"><title>&#45;11&#45;&gt;1</title>
<path fill="none" stroke="green" stroke-width="0.225435" d="M1460.07,-67.8495C1457.42,-66.9994 1454.65,-66.2324 1452,-65.6985 1200.98,-15.1714 1122.15,-103.642 877,-29.6985 875.941,-29.379 874.878,-29.0051 873.821,-28.5892"/>
<polygon fill="green" stroke="green" stroke-width="0.225435" points="875.223,-25.3771 864.712,-24.0446 872.098,-31.6409 875.223,-25.3771"/>
</g>
<!-- &#45;11&#45;&gt;2 -->
<g id="edge42" class="edge"><title>&#45;11&#45;&gt;2</title>
<path fill="none" stroke="red" stroke-width="0.112501" stroke-dasharray="1,5" d="M1460.07,-67.8622C1457.41,-67.0107 1454.65,-66.2399 1452,-65.6985 1221.98,-18.7189 1149.57,-98.1324 925,-29.6985 923.942,-29.376 922.88,-28.9996 921.823,-28.5817"/>
<polygon fill="red" stroke="red" stroke-width="0.112501" points="923.226,-25.3701 912.717,-24.0298 920.097,-31.6315 923.226,-25.3701"/>
</g>
<!-- &#45;11&#45;&gt;3 -->
<g id="edge43" class="edge"><title>&#45;11&#45;&gt;3</title>
<path fill="none" stroke="green" stroke-width="0.28846" d="M1460.05,-67.9535C1457.4,-67.0918 1454.64,-66.2941 1452,-65.6985 1291.19,-29.4123 1092.22,-19.2007 1022.53,-16.6326"/>
<polygon fill="green" stroke="green" stroke-width="0.28846" points="1022.24,-13.1205 1012.13,-16.2716 1022,-20.1163 1022.24,-13.1205"/>
</g>
<!-- &#45;12 -->
<g id="node12" class="node"><title>&#45;12</title>
<polygon fill="lightgray" stroke="black" points="1536.5,-83.6985 1507.5,-83.6985 1507.5,-65.6985 1536.5,-65.6985 1536.5,-83.6985"/>
<text text-anchor="middle" x="1522" y="-72.4985" font-family="Times New Roman,serif" font-size="9.00">&#45;12</text>
</g>
<!-- &#45;12&#45;&gt;0 -->
<g id="edge44" class="edge"><title>&#45;12&#45;&gt;0</title>
<path fill="none" stroke="green" stroke-width="0.126048" d="M1507.07,-67.8625C1504.41,-67.0109 1501.65,-66.2401 1499,-65.6985 1269.42,-18.7927 1197.14,-98.0176 973,-29.6985 971.942,-29.3759 970.88,-28.9995 969.823,-28.5815"/>
<polygon fill="green" stroke="green" stroke-width="0.126048" points="971.226,-25.37 960.717,-24.0295 968.097,-31.6313 971.226,-25.37"/>
</g>
<!-- &#45;12&#45;&gt;1 -->
<g id="edge45" class="edge"><title>&#45;12&#45;&gt;1</title>
<path fill="none" stroke="green" stroke-width="0.556404" d="M1507.07,-67.8389C1504.42,-66.99 1501.65,-66.2261 1499,-65.6985 1227.41,-11.6968 1142.3,-109.038 877,-29.6985 875.94,-29.3815 874.877,-29.0096 873.819,-28.5954"/>
<polygon fill="green" stroke="green" stroke-width="0.556404" points="875.22,-25.383 864.708,-24.0569 872.099,-31.6486 875.22,-25.383"/>
</g>
<!-- &#45;12&#45;&gt;2 -->
<g id="edge46" class="edge"><title>&#45;12&#45;&gt;2</title>
<path fill="none" stroke="red" stroke-width="0.365405" d="M1507.07,-67.8497C1504.42,-66.9996 1501.65,-66.2325 1499,-65.6985 1248.42,-15.2453 1169.72,-103.527 925,-29.6985 923.941,-29.3789 922.878,-29.005 921.821,-28.589"/>
<polygon fill="red" stroke="red" stroke-width="0.365405" points="923.223,-25.377 912.712,-24.0443 920.098,-31.6407 923.223,-25.377"/>
</g>
<!-- &#45;12&#45;&gt;3 -->
<g id="edge47" class="edge"><title>&#45;12&#45;&gt;3</title>
<path fill="none" stroke="red" stroke-width="0.316255" d="M1507.05,-67.9309C1504.4,-67.0717 1501.64,-66.2807 1499,-65.6985 1319.21,-26.0865 1096.21,-17.9166 1022.18,-16.2613"/>
<polygon fill="red" stroke="red" stroke-width="0.316255" points="1022.05,-12.7581 1011.98,-16.0545 1021.91,-19.7566 1022.05,-12.7581"/>
</g>
<!-- &#45;13 -->
<g id="node13" class="node"><title>&#45;13</title>
<polygon fill="lightgray" stroke="black" points="1583.5,-83.6985 1554.5,-83.6985 1554.5,-65.6985 1583.5,-65.6985 1583.5,-83.6985"/>
<text text-anchor="middle" x="1569" y="-72.4985" font-family="Times New Roman,serif" font-size="9.00">&#45;13</text>
</g>
<!-- &#45;13&#45;&gt;0 -->
<g id="edge48" class="edge"><title>&#45;13&#45;&gt;0</title>
<path fill="none" stroke="red" stroke-width="0.528274" d="M1554.07,-67.85C1551.42,-66.9998 1548.65,-66.2327 1546,-65.6985 1295.85,-15.3192 1217.29,-103.412 973,-29.6985 971.941,-29.3789 970.878,-29.0049 969.821,-28.5889"/>
<polygon fill="red" stroke="red" stroke-width="0.528274" points="971.223,-25.3769 960.712,-24.044 968.098,-31.6405 971.223,-25.3769"/>
</g>
<!-- &#45;13&#45;&gt;1 -->
<g id="edge49" class="edge"><title>&#45;13&#45;&gt;1</title>
<path fill="none" stroke="red" stroke-width="0.176988" d="M1554.07,-67.8298C1551.42,-66.9819 1548.65,-66.2208 1546,-65.6985 1253.84,-8.22148 1162.45,-114.436 877,-29.6985 875.939,-29.3836 874.875,-29.0135 873.818,-28.6007"/>
<polygon fill="red" stroke="red" stroke-width="0.176988" points="875.218,-25.388 864.705,-24.0675 872.1,-31.6553 875.218,-25.388"/>
</g>
<!-- &#45;13&#45;&gt;2 -->
<g id="edge50" class="edge"><title>&#45;13&#45;&gt;2</title>
<path fill="none" stroke="green" stroke-width="0.487874" stroke-dasharray="1,5" d="M1554.07,-67.8391C1551.42,-66.9902 1548.65,-66.2263 1546,-65.6985 1274.85,-11.7708 1189.87,-108.923 925,-29.6985 923.94,-29.3814 922.877,-29.0095 921.819,-28.5952"/>
<polygon fill="green" stroke="green" stroke-width="0.487874" points="923.22,-25.3828 912.709,-24.0567 920.099,-31.6484 923.22,-25.3828"/>
</g>
<!-- &#45;13&#45;&gt;3 -->
<g id="edge51" class="edge"><title>&#45;13&#45;&gt;3</title>
<path fill="none" stroke="green" stroke-width="0.283919" d="M1554.06,-67.9121C1551.4,-67.055 1548.64,-66.2695 1546,-65.6985 1347.61,-22.8645 1101.16,-16.789 1022.42,-15.9652"/>
<polygon fill="green" stroke="green" stroke-width="0.283919" points="1022.08,-12.4623 1012.05,-15.878 1022.02,-19.462 1022.08,-12.4623"/>
</g>
<!-- &#45;14 -->
<g id="node14" class="node"><title>&#45;14</title>
<polygon fill="lightgray" stroke="black" points="1630.5,-83.6985 1601.5,-83.6985 1601.5,-65.6985 1630.5,-65.6985 1630.5,-83.6985"/>
<text text-anchor="middle" x="1616" y="-72.4985" font-family="Times New Roman,serif" font-size="9.00">&#45;14</text>
</g>
<!-- &#45;14&#45;&gt;0 -->
<g id="edge52" class="edge"><title>&#45;14&#45;&gt;0</title>
<path fill="none" stroke="green" stroke-width="0.302882" stroke-dasharray="1,5" d="M1601.07,-67.8393C1598.42,-66.9904 1595.65,-66.2264 1593,-65.6985 1322.28,-11.8447 1237.44,-108.809 973,-29.6985 971.94,-29.3814 970.877,-29.0094 969.819,-28.5951"/>
<polygon fill="green" stroke="green" stroke-width="0.302882" points="971.22,-25.3827 960.709,-24.0564 968.099,-31.6483 971.22,-25.3827"/>
</g>
<!-- &#45;14&#45;&gt;1 -->
<g id="edge53" class="edge"><title>&#45;14&#45;&gt;1</title>
<path fill="none" stroke="green" stroke-width="0.423448" stroke-dasharray="1,5" d="M1601.08,-67.8219C1598.42,-66.9749 1595.66,-66.2161 1593,-65.6985 1436.63,-35.222 1029.8,-74.7663 877,-29.6985 875.939,-29.3855 874.874,-29.0169 873.816,-28.6053"/>
<polygon fill="green" stroke="green" stroke-width="0.423448" points="875.215,-25.3923 864.703,-24.0767 872.1,-31.6611 875.215,-25.3923"/>
</g>
<!-- &#45;14&#45;&gt;2 -->
<g id="edge54" class="edge"><title>&#45;14&#45;&gt;2</title>
<path fill="none" stroke="green" stroke-width="0.154962" d="M1601.07,-67.83C1598.42,-66.9821 1595.65,-66.2209 1593,-65.6985 1301.27,-8.29543 1210.02,-114.321 925,-29.6985 923.939,-29.3836 922.875,-29.0135 921.818,-28.6006"/>
<polygon fill="green" stroke="green" stroke-width="0.154962" points="923.218,-25.3879 912.705,-24.0673 920.1,-31.6551 923.218,-25.3879"/>
</g>
<!-- &#45;14&#45;&gt;3 -->
<g id="edge55" class="edge"><title>&#45;14&#45;&gt;3</title>
<path fill="none" stroke="green" stroke-width="0.167072" d="M1601.06,-67.8962C1598.41,-67.0409 1595.65,-66.2601 1593,-65.6985 1375.48,-19.5418 1104.8,-15.7245 1022.13,-15.7098"/>
<polygon fill="green" stroke="green" stroke-width="0.167072" points="1021.94,-12.2101 1011.94,-15.7282 1021.95,-19.2101 1021.94,-12.2101"/>
</g>
<!-- &#45;15 -->
<g id="node15" class="node"><title>&#45;15</title>
<polygon fill="lightgray" stroke="black" points="1771.5,-83.6985 1742.5,-83.6985 1742.5,-65.6985 1771.5,-65.6985 1771.5,-83.6985"/>
<text text-anchor="middle" x="1757" y="-72.4985" font-family="Times New Roman,serif" font-size="9.00">&#45;15</text>
</g>
<!-- &#45;15&#45;&gt;0 -->
<g id="edge56" class="edge"><title>&#45;15&#45;&gt;0</title>
<path fill="none" stroke="red" stroke-width="0.268812" d="M1742.08,-67.8153C1739.42,-66.969 1736.66,-66.2122 1734,-65.6985 1567.78,-33.5577 1135.46,-77.351 973,-29.6985 971.938,-29.3871 970.874,-29.0198 969.815,-28.6093"/>
<polygon fill="red" stroke="red" stroke-width="0.268812" points="971.214,-25.396 960.7,-24.0844 968.101,-31.666 971.214,-25.396"/>
</g>
<!-- &#45;15&#45;&gt;2 -->
<g id="edge57" class="edge"><title>&#45;15&#45;&gt;2</title>
<path fill="none" stroke="green" stroke-width="0.353385" stroke-dasharray="1,5" d="M1742.08,-67.809C1739.42,-66.9634 1736.66,-66.2084 1734,-65.6985 1557.27,-31.7823 1097.75,-80.1082 925,-29.6985 923.938,-29.3885 922.873,-29.0225 921.814,-28.613"/>
<polygon fill="green" stroke="green" stroke-width="0.353385" points="923.212,-25.3995 912.698,-24.0918 920.102,-31.6706 923.212,-25.3995"/>
</g>
<!-- &#45;15&#45;&gt;3 -->
<g id="edge58" class="edge"><title>&#45;15&#45;&gt;3</title>
<path fill="none" stroke="green" stroke-width="0.147896" d="M1742.07,-67.8607C1739.41,-67.0093 1736.65,-66.239 1734,-65.6985 1593.24,-36.9981 1134.39,-20.3529 1022.01,-16.6441"/>
<polygon fill="green" stroke="green" stroke-width="0.147896" points="1022.07,-13.1443 1011.96,-16.3167 1021.84,-20.1406 1022.07,-13.1443"/>
</g>
<!-- &#45;16 -->
<g id="node16" class="node"><title>&#45;16</title>
<polygon fill="lightgray" stroke="black" points="1677.5,-83.6985 1648.5,-83.6985 1648.5,-65.6985 1677.5,-65.6985 1677.5,-83.6985"/>
<text text-anchor="middle" x="1663" y="-72.4985" font-family="Times New Roman,serif" font-size="9.00">&#45;16</text>
</g>
<!-- &#45;16&#45;&gt;0 -->
<g id="edge59" class="edge"><title>&#45;16&#45;&gt;0</title>
<path fill="none" stroke="red" stroke-width="0.325503" d="M1648.07,-67.8302C1645.42,-66.9822 1642.65,-66.221 1640,-65.6985 1348.71,-8.36938 1257.59,-114.206 973,-29.6985 971.939,-29.3835 970.876,-29.0134 969.818,-28.6005"/>
<polygon fill="red" stroke="red" stroke-width="0.325503" points="971.218,-25.3878 960.705,-24.0671 968.1,-31.655 971.218,-25.3878"/>
</g>
<!-- &#45;16&#45;&gt;1 -->
<g id="edge60" class="edge"><title>&#45;16&#45;&gt;1</title>
<path fill="none" stroke="green" stroke-width="0.688364" d="M1648.08,-67.815C1645.42,-66.9687 1642.66,-66.212 1640,-65.6985 1473.34,-33.4838 1039.88,-77.4658 877,-29.6985 875.938,-29.3871 874.874,-29.0199 873.815,-28.6094"/>
<polygon fill="green" stroke="green" stroke-width="0.688364" points="875.214,-25.3962 864.7,-24.0848 872.101,-31.6662 875.214,-25.3962"/>
</g>
<!-- &#45;16&#45;&gt;2 -->
<g id="edge61" class="edge"><title>&#45;16&#45;&gt;2</title>
<path fill="none" stroke="red" stroke-width="0.295276" stroke-dasharray="1,5" d="M1648.08,-67.8221C1645.42,-66.975 1642.66,-66.2162 1640,-65.6985 1327.7,-4.81948 1230.18,-119.719 925,-29.6985 923.939,-29.3854 922.874,-29.0169 921.816,-28.6053"/>
<polygon fill="red" stroke="red" stroke-width="0.295276" points="923.215,-25.3922 912.703,-24.0765 920.1,-31.661 923.215,-25.3922"/>
</g>
<!-- &#45;16&#45;&gt;3 -->
<g id="edge62" class="edge"><title>&#45;16&#45;&gt;3</title>
<path fill="none" stroke="red" stroke-width="0.727005" d="M1648.06,-67.8827C1645.41,-67.0289 1642.65,-66.2521 1640,-65.6985 1403.76,-16.3192 1109.48,-14.7533 1022.39,-15.4912"/>
<polygon fill="red" stroke="red" stroke-width="0.727005" points="1022.12,-11.9937 1012.15,-15.5977 1022.19,-18.9934 1022.12,-11.9937"/>
</g>
<!-- &#45;17 -->
<g id="node17" class="node"><title>&#45;17</title>
<polygon fill="lightgray" stroke="black" points="1724.5,-83.6985 1695.5,-83.6985 1695.5,-65.6985 1724.5,-65.6985 1724.5,-83.6985"/>
<text text-anchor="middle" x="1710" y="-72.4985" font-family="Times New Roman,serif" font-size="9.00">&#45;17</text>
</g>
<!-- &#45;17&#45;&gt;0 -->
<g id="edge63" class="edge"><title>&#45;17&#45;&gt;0</title>
<path fill="none" stroke="red" stroke-width="0.617297" d="M1695.08,-67.8223C1692.42,-66.9752 1689.66,-66.2163 1687,-65.6985 1375.14,-4.89344 1277.75,-119.604 973,-29.6985 971.939,-29.3854 970.875,-29.0168 969.816,-28.6052"/>
<polygon fill="red" stroke="red" stroke-width="0.617297" points="971.215,-25.3922 960.703,-24.0763 968.1,-31.6608 971.215,-25.3922"/>
</g>
<!-- &#45;17&#45;&gt;1 -->
<g id="edge64" class="edge"><title>&#45;17&#45;&gt;1</title>
<path fill="none" stroke="green" stroke-width="0.415032" d="M1695.08,-67.8089C1692.42,-66.9633 1689.66,-66.2084 1687,-65.6985 1510.05,-31.7453 1049.97,-80.1657 877,-29.6985 875.938,-29.3886 874.873,-29.0226 873.814,-28.613"/>
<polygon fill="green" stroke="green" stroke-width="0.415032" points="875.212,-25.3996 864.698,-24.0919 872.102,-31.6707 875.212,-25.3996"/>
</g>
<!-- &#45;17&#45;&gt;2 -->
<g id="edge65" class="edge"><title>&#45;17&#45;&gt;2</title>
<path fill="none" stroke="red" stroke-width="0.22807" d="M1695.08,-67.8152C1692.42,-66.9689 1689.66,-66.2121 1687,-65.6985 1520.56,-33.5208 1087.67,-77.4084 925,-29.6985 923.938,-29.3871 922.874,-29.0199 921.815,-28.6093"/>
<polygon fill="red" stroke="red" stroke-width="0.22807" points="923.214,-25.3961 912.7,-24.0846 920.101,-31.6661 923.214,-25.3961"/>
</g>
<!-- &#45;17&#45;&gt;3 -->
<g id="edge66" class="edge"><title>&#45;17&#45;&gt;3</title>
<path fill="none" stroke="green" stroke-width="0.416026" d="M1695.07,-67.8709C1692.41,-67.0184 1689.65,-66.2451 1687,-65.6985 1431.81,-13.0566 1113.59,-13.8375 1022.45,-15.3005"/>
<polygon fill="green" stroke="green" stroke-width="0.416026" points="1022.19,-11.8045 1012.25,-15.4833 1022.32,-18.8034 1022.19,-11.8045"/>
</g>
<!-- &#45;18 -->
<g id="node18" class="node"><title>&#45;18</title>
<polygon fill="lightgray" stroke="black" points="71.5,-83.6985 42.5,-83.6985 42.5,-65.6985 71.5,-65.6985 71.5,-83.6985"/>
<text text-anchor="middle" x="57" y="-72.4985" font-family="Times New Roman,serif" font-size="9.00">&#45;18</text>
</g>
<!-- &#45;18&#45;&gt;0 -->
<g id="edge67" class="edge"><title>&#45;18&#45;&gt;0</title>
<path fill="none" stroke="red" stroke-width="0.306137" d="M71.9213,-67.8048C74.5759,-66.9596 77.3423,-66.2059 80,-65.6985 264.613,-30.4507 744.527,-82.1764 925,-29.6985 926.062,-29.3895 927.128,-29.0243 928.187,-28.6154"/>
<polygon fill="red" stroke="red" stroke-width="0.306137" points="929.898,-31.6737 937.303,-24.0967 926.789,-25.4018 929.898,-31.6737"/>
</g>
<!-- &#45;18&#45;&gt;1 -->
<g id="edge68" class="edge"><title>&#45;18&#45;&gt;1</title>
<path fill="none" stroke="green" stroke-width="0.244446" d="M71.9309,-67.8537C74.5845,-67.0031 77.348,-66.2349 80,-65.6985 228.123,-35.7392 711.961,-19.9624 827.878,-16.557"/>
<polygon fill="green" stroke="green" stroke-width="0.244446" points="828.029,-20.0542 837.924,-16.2661 827.826,-13.0572 828.029,-20.0542"/>
</g>
<!-- &#45;18&#45;&gt;2 -->
<g id="edge69" class="edge"><title>&#45;18&#45;&gt;2</title>
<path fill="none" stroke="red" stroke-width="0.16057" d="M71.9224,-67.8105C74.5769,-66.9647 77.3429,-66.2093 80,-65.6985 254.103,-32.2262 706.823,-79.4189 877,-29.6985 878.062,-29.3882 879.127,-29.0219 880.186,-28.6121"/>
<polygon fill="red" stroke="red" stroke-width="0.16057" points="881.898,-31.6695 889.301,-24.09 878.788,-25.3987 881.898,-31.6695"/>
</g>
<!-- &#45;18&#45;&gt;3 -->
<g id="edge70" class="edge"><title>&#45;18&#45;&gt;3</title>
<path fill="none" stroke="red" stroke-width="0.317028" d="M71.9204,-67.7997C74.575,-66.9551 77.3417,-66.2029 80,-65.6985 275.124,-28.675 782.23,-84.9341 973,-29.6985 974.063,-29.3908 975.128,-29.0265 976.188,-28.6185"/>
<polygon fill="red" stroke="red" stroke-width="0.317028" points="977.897,-31.6775 985.305,-24.1027 974.79,-25.4047 977.897,-31.6775"/>
</g>
<!-- &#45;19 -->
<g id="node19" class="node"><title>&#45;19</title>
<polygon fill="lightgray" stroke="black" points="118.5,-83.6985 89.5,-83.6985 89.5,-65.6985 118.5,-65.6985 118.5,-83.6985"/>
<text text-anchor="middle" x="104" y="-72.4985" font-family="Times New Roman,serif" font-size="9.00">&#45;19</text>
</g>
<!-- &#45;19&#45;&gt;0 -->
<g id="edge71" class="edge"><title>&#45;19&#45;&gt;0</title>
<path fill="none" stroke="red" stroke-width="0.260204" d="M118.922,-67.8104C121.577,-66.9646 124.343,-66.2092 127,-65.6985 301.322,-32.1892 754.608,-79.4763 925,-29.6985 926.062,-29.3882 927.127,-29.0219 928.186,-28.6121"/>
<polygon fill="red" stroke="red" stroke-width="0.260204" points="929.898,-31.6696 937.301,-24.0902 926.788,-25.3987 929.898,-31.6696"/>
</g>
<!-- &#45;19&#45;&gt;1 -->
<g id="edge72" class="edge"><title>&#45;19&#45;&gt;1</title>
<path fill="none" stroke="green" stroke-width="0.17535" d="M118.933,-67.863C121.586,-67.0114 124.349,-66.2404 127,-65.6985 265.367,-37.4129 715.775,-20.5124 827.664,-16.6846"/>
<polygon fill="green" stroke="green" stroke-width="0.17535" points="828.092,-20.1723 837.968,-16.3366 827.855,-13.1763 828.092,-20.1723"/>
</g>
<!-- &#45;19&#45;&gt;2 -->
<g id="edge73" class="edge"><title>&#45;19&#45;&gt;2</title>
<path fill="none" stroke="red" stroke-width="0.265719" d="M118.924,-67.8169C121.578,-66.9704 124.344,-66.2131 127,-65.6985 290.813,-33.9646 716.904,-76.7191 877,-29.6985 878.062,-29.3867 879.126,-29.0191 880.185,-28.6083"/>
<polygon fill="red" stroke="red" stroke-width="0.265719" points="881.899,-31.6648 889.299,-24.0826 878.786,-25.3952 881.899,-31.6648"/>
</g>
<!-- &#45;19&#45;&gt;3 -->
<g id="edge74" class="edge"><title>&#45;19&#45;&gt;3</title>
<path fill="none" stroke="green" stroke-width="0.14174" d="M118.921,-67.8047C121.576,-66.9595 124.342,-66.2059 127,-65.6985 311.832,-30.4137 792.312,-82.2338 973,-29.6985 974.062,-29.3896 975.128,-29.0244 976.187,-28.6155"/>
<polygon fill="green" stroke="green" stroke-width="0.14174" points="977.898,-31.6738 985.303,-24.0968 974.789,-25.4019 977.898,-31.6738"/>
</g>
<!-- &#45;20 -->
<g id="node20" class="node"><title>&#45;20</title>
<polygon fill="lightgray" stroke="black" points="165.5,-83.6985 136.5,-83.6985 136.5,-65.6985 165.5,-65.6985 165.5,-83.6985"/>
<text text-anchor="middle" x="151" y="-72.4985" font-family="Times New Roman,serif" font-size="9.00">&#45;20</text>
</g>
<!-- &#45;20&#45;&gt;0 -->
<g id="edge75" class="edge"><title>&#45;20&#45;&gt;0</title>
<path fill="none" stroke="green" stroke-width="0.139801" d="M165.555,-68.1418C168.633,-67.1668 171.892,-66.2797 175,-65.6985 339.016,-35.0289 764.904,-76.7191 925,-29.6985 926.062,-29.3867 927.126,-29.0191 928.185,-28.6083"/>
<polygon fill="green" stroke="green" stroke-width="0.139801" points="929.899,-31.6648 937.299,-24.0826 926.786,-25.3952 929.899,-31.6648"/>
</g>
<!-- &#45;20&#45;&gt;1 -->
<g id="edge76" class="edge"><title>&#45;20&#45;&gt;1</title>
<path fill="none" stroke="green" stroke-width="0.469051" d="M165.567,-68.203C168.644,-67.2236 171.899,-66.3192 175,-65.6985 426.078,-15.4371 738.534,-14.5637 828.013,-15.4666"/>
<polygon fill="green" stroke="green" stroke-width="0.469051" points="827.984,-18.9665 838.025,-15.5854 828.067,-11.9669 827.984,-18.9665"/>
</g>
<!-- &#45;20&#45;&gt;2 -->
<g id="edge77" class="edge"><title>&#45;20&#45;&gt;2</title>
<path fill="none" stroke="green" stroke-width="0.134369" d="M165.557,-68.1497C168.635,-67.1742 171.893,-66.2848 175,-65.6985 481.993,-7.77308 577.395,-118.226 877,-29.6985 878.061,-29.385 879.125,-29.016 880.183,-28.604"/>
<polygon fill="green" stroke="green" stroke-width="0.134369" points="881.9,-31.6594 889.297,-24.0741 878.784,-25.3911 881.9,-31.6594"/>
</g>
<!-- &#45;20&#45;&gt;3 -->
<g id="edge78" class="edge"><title>&#45;20&#45;&gt;3</title>
<path fill="none" stroke="red" stroke-width="0.404566" d="M165.554,-68.1348C168.632,-67.1604 171.891,-66.2753 175,-65.6985 349.536,-33.3218 802.608,-79.4763 973,-29.6985 974.062,-29.3882 975.127,-29.0219 976.186,-28.6121"/>
<polygon fill="red" stroke="red" stroke-width="0.404566" points="977.898,-31.6696 985.301,-24.0902 974.788,-25.3987 977.898,-31.6696"/>
</g>
<!-- &#45;21 -->
<g id="node21" class="node"><title>&#45;21</title>
<polygon fill="lightgray" stroke="black" points="212.5,-83.6985 183.5,-83.6985 183.5,-65.6985 212.5,-65.6985 212.5,-83.6985"/>
<text text-anchor="middle" x="198" y="-72.4985" font-family="Times New Roman,serif" font-size="9.00">&#45;21</text>
</g>
<!-- &#45;21&#45;&gt;0 -->
<g id="edge79" class="edge"><title>&#45;21&#45;&gt;0</title>
<path fill="none" stroke="red" stroke-width="0.276162" d="M212.557,-68.1495C215.635,-67.174 218.893,-66.2847 222,-65.6985 529.431,-7.70197 624.967,-118.341 925,-29.6985 926.061,-29.385 927.125,-29.016 928.183,-28.6041"/>
<polygon fill="red" stroke="red" stroke-width="0.276162" points="929.9,-31.6595 937.297,-24.0743 926.784,-25.3912 929.9,-31.6595"/>
</g>
<!-- &#45;21&#45;&gt;1 -->
<g id="edge80" class="edge"><title>&#45;21&#45;&gt;1</title>
<path fill="none" stroke="green" stroke-width="0.160778" d="M212.57,-68.216C215.647,-67.2357 218.901,-66.3276 222,-65.6985 454.134,-18.5716 742.71,-15.4651 828.106,-15.6599"/>
<polygon fill="green" stroke="green" stroke-width="0.160778" points="828.128,-19.1599 838.142,-15.7011 828.156,-12.16 828.128,-19.1599"/>
</g>
<!-- &#45;21&#45;&gt;2 -->
<g id="edge81" class="edge"><title>&#45;21&#45;&gt;2</title>
<path fill="none" stroke="green" stroke-width="0.117121" d="M212.558,-68.1585C215.636,-67.1823 218.894,-66.2905 222,-65.6985 508.395,-11.1152 597.552,-112.828 877,-29.6985 878.061,-29.383 879.124,-29.0124 880.182,-28.5992"/>
<polygon fill="green" stroke="green" stroke-width="0.117121" points="881.901,-31.6534 889.294,-24.0645 878.782,-25.3865 881.901,-31.6534"/>
</g>
<!-- &#45;21&#45;&gt;3 -->
<g id="edge82" class="edge"><title>&#45;21&#45;&gt;3</title>
<path fill="none" stroke="green" stroke-width="0.246398" d="M212.555,-68.1416C215.633,-67.1667 218.892,-66.2796 222,-65.6985 386.235,-34.9933 812.689,-76.7766 973,-29.6985 974.062,-29.3867 975.126,-29.0192 976.185,-28.6084"/>
<polygon fill="green" stroke="green" stroke-width="0.246398" points="977.899,-31.6649 985.299,-24.0828 974.786,-25.3952 977.899,-31.6649"/>
</g>
<!-- &#45;22 -->
<g id="node22" class="node"><title>&#45;22</title>
<polygon fill="lightgray" stroke="black" points="1818.5,-83.6985 1789.5,-83.6985 1789.5,-65.6985 1818.5,-65.6985 1818.5,-83.6985"/>
<text text-anchor="middle" x="1804" y="-72.4985" font-family="Times New Roman,serif" font-size="9.00">&#45;22</text>
</g>
<!-- &#45;22&#45;&gt;0 -->
<g id="edge83" class="edge"><title>&#45;22&#45;&gt;0</title>
<path fill="none" stroke="red" stroke-width="0.167874" d="M1789.08,-67.8091C1786.42,-66.9635 1783.66,-66.2085 1781,-65.6985 1604.49,-31.8193 1145.54,-80.0508 973,-29.6985 971.938,-29.3885 970.873,-29.0225 969.814,-28.6129"/>
<polygon fill="red" stroke="red" stroke-width="0.167874" points="971.212,-25.3994 960.698,-24.0916 968.102,-31.6705 971.212,-25.3994"/>
</g>
<!-- &#45;22&#45;&gt;3 -->
<g id="edge84" class="edge"><title>&#45;22&#45;&gt;3</title>
<path fill="none" stroke="red" stroke-width="0.206477" d="M1789.07,-67.8516C1786.42,-67.0013 1783.65,-66.2337 1781,-65.6985 1630.6,-35.3496 1138.99,-19.8418 1022.1,-16.5304"/>
<polygon fill="red" stroke="red" stroke-width="0.206477" points="1022.08,-13.0284 1011.98,-16.2479 1021.88,-20.0257 1022.08,-13.0284"/>
</g>
<!-- &#45;23 -->
<g id="node23" class="node"><title>&#45;23</title>
<polygon fill="lightgray" stroke="black" points="259.5,-83.6985 230.5,-83.6985 230.5,-65.6985 259.5,-65.6985 259.5,-83.6985"/>
<text text-anchor="middle" x="245" y="-72.4985" font-family="Times New Roman,serif" font-size="9.00">&#45;23</text>
</g>
<!-- &#45;23&#45;&gt;0 -->
<g id="edge85" class="edge"><title>&#45;23&#45;&gt;0</title>
<path fill="none" stroke="green" stroke-width="0.184013" d="M259.558,-68.1583C262.636,-67.1822 265.894,-66.2904 269,-65.6985 555.834,-11.0441 645.123,-112.943 925,-29.6985 926.061,-29.383 927.124,-29.0125 928.182,-28.5993"/>
<polygon fill="green" stroke="green" stroke-width="0.184013" points="929.901,-31.6535 937.294,-24.0647 926.782,-25.3867 929.901,-31.6535"/>
</g>
<!-- &#45;23&#45;&gt;1 -->
<g id="edge86" class="edge"><title>&#45;23&#45;&gt;1</title>
<path fill="none" stroke="red" stroke-width="0.133924" d="M259.573,-68.2312C262.65,-67.2498 265.903,-66.3374 269,-65.6985 481.732,-21.8107 745.737,-16.454 827.604,-15.8856"/>
<polygon fill="red" stroke="red" stroke-width="0.133924" points="827.94,-19.3841 837.922,-15.8337 827.905,-12.3842 827.94,-19.3841"/>
</g>
<!-- &#45;23&#45;&gt;2 -->
<g id="edge87" class="edge"><title>&#45;23&#45;&gt;2</title>
<path fill="none" stroke="green" stroke-width="0.229015" d="M259.56,-68.1687C262.638,-67.1918 265.895,-66.2971 269,-65.6985 534.801,-14.4567 617.705,-107.431 877,-29.6985 878.06,-29.3808 879.123,-29.0083 880.18,-28.5936"/>
<polygon fill="green" stroke="green" stroke-width="0.229015" points="881.902,-31.6464 889.291,-24.0534 878.779,-25.3813 881.902,-31.6464"/>
</g>
<!-- &#45;23&#45;&gt;3 -->
<g id="edge88" class="edge"><title>&#45;23&#45;&gt;3</title>
<path fill="none" stroke="red" stroke-width="0.164401" d="M259.557,-68.1493C262.635,-67.1738 265.893,-66.2846 269,-65.6985 576.869,-7.63085 672.538,-118.456 973,-29.6985 974.061,-29.385 975.125,-29.0161 976.183,-28.6042"/>
<polygon fill="red" stroke="red" stroke-width="0.164401" points="977.9,-31.6597 985.297,-24.0745 974.784,-25.3913 977.9,-31.6597"/>
</g>
<!-- &#45;24 -->
<g id="node24" class="node"><title>&#45;24</title>
<polygon fill="lightgray" stroke="black" points="306.5,-83.6985 277.5,-83.6985 277.5,-65.6985 306.5,-65.6985 306.5,-83.6985"/>
<text text-anchor="middle" x="292" y="-72.4985" font-family="Times New Roman,serif" font-size="9.00">&#45;24</text>
</g>
<!-- &#45;24&#45;&gt;0 -->
<g id="edge89" class="edge"><title>&#45;24&#45;&gt;0</title>
<path fill="none" stroke="red" stroke-width="0.509748" d="M306.56,-68.1685C309.638,-67.1916 312.895,-66.2969 316,-65.6985 582.239,-14.3856 665.277,-107.546 925,-29.6985 926.06,-29.3808 927.123,-29.0084 928.18,-28.5937"/>
<polygon fill="red" stroke="red" stroke-width="0.509748" points="929.901,-31.6466 937.291,-24.0537 926.779,-25.3814 929.901,-31.6466"/>
</g>
<!-- &#45;24&#45;&gt;1 -->
<g id="edge90" class="edge"><title>&#45;24&#45;&gt;1</title>
<path fill="none" stroke="green" stroke-width="0.264501" stroke-dasharray="1,5" d="M306.576,-68.249C309.653,-67.2663 312.905,-66.3489 316,-65.6985 509.879,-24.9504 750.121,-17.5067 827.633,-16.1504"/>
<polygon fill="green" stroke="green" stroke-width="0.264501" points="827.919,-19.6465 837.864,-15.9912 827.81,-12.6473 827.919,-19.6465"/>
</g>
<!-- &#45;24&#45;&gt;2 -->
<g id="edge91" class="edge"><title>&#45;24&#45;&gt;2</title>
<path fill="none" stroke="green" stroke-width="0.265147" d="M306.563,-68.1806C309.64,-67.2028 312.896,-66.3048 316,-65.6985 561.211,-17.7974 637.855,-102.035 877,-29.6985 878.059,-29.3781 879.122,-29.0036 880.178,-28.5871"/>
<polygon fill="green" stroke="green" stroke-width="0.265147" points="881.903,-31.6383 889.287,-24.0405 878.776,-25.3752 881.903,-31.6383"/>
</g>
<!-- &#45;24&#45;&gt;3 -->
<g id="edge92" class="edge"><title>&#45;24&#45;&gt;3</title>
<path fill="none" stroke="green" stroke-width="0.277232" d="M306.558,-68.1581C309.636,-67.182 312.894,-66.2903 316,-65.6985 603.272,-10.973 692.694,-113.058 973,-29.6985 974.061,-29.3831 975.124,-29.0126 976.182,-28.5994"/>
<polygon fill="green" stroke="green" stroke-width="0.277232" points="977.901,-31.6537 985.294,-24.0649 974.782,-25.3868 977.901,-31.6537"/>
</g>
<!-- &#45;25 -->
<g id="node25" class="node"><title>&#45;25</title>
<polygon fill="lightgray" stroke="black" points="353.5,-83.6985 324.5,-83.6985 324.5,-65.6985 353.5,-65.6985 353.5,-83.6985"/>
<text text-anchor="middle" x="339" y="-72.4985" font-family="Times New Roman,serif" font-size="9.00">&#45;25</text>
</g>
<!-- &#45;25&#45;&gt;0 -->
<g id="edge93" class="edge"><title>&#45;25&#45;&gt;0</title>
<path fill="none" stroke="red" stroke-width="0.206304" d="M353.563,-68.1803C356.64,-67.2026 359.896,-66.3046 363,-65.6985 608.649,-17.7263 685.426,-102.15 925,-29.6985 926.059,-29.3782 927.122,-29.0037 928.178,-28.5873"/>
<polygon fill="red" stroke="red" stroke-width="0.206304" points="929.903,-31.6385 937.287,-24.0408 926.776,-25.3753 929.903,-31.6385"/>
</g>
<!-- &#45;25&#45;&gt;1 -->
<g id="edge94" class="edge"><title>&#45;25&#45;&gt;1</title>
<path fill="none" stroke="red" stroke-width="0.168252" d="M353.581,-68.2701C356.657,-67.2859 359.908,-66.3625 363,-65.6985 538.341,-28.0384 755.269,-18.6269 827.952,-16.4551"/>
<polygon fill="red" stroke="red" stroke-width="0.168252" points="828.082,-19.953 837.98,-16.175 827.886,-12.9557 828.082,-19.953"/>
</g>
<!-- &#45;25&#45;&gt;2 -->
<g id="edge95" class="edge"><title>&#45;25&#45;&gt;2</title>
<path fill="none" stroke="red" stroke-width="0.608487" d="M353.565,-68.1946C356.643,-67.2159 359.898,-66.3138 363,-65.6985 587.627,-21.137 657.999,-96.6405 877,-29.6985 878.058,-29.3751 879.12,-28.9979 880.176,-28.5794"/>
<polygon fill="red" stroke="red" stroke-width="0.608487" points="881.904,-31.6287 889.282,-24.0253 878.773,-25.368 881.904,-31.6287"/>
</g>
<!-- &#45;25&#45;&gt;3 -->
<g id="edge96" class="edge"><title>&#45;25&#45;&gt;3</title>
<path fill="none" stroke="green" stroke-width="0.260562" d="M353.56,-68.1682C356.638,-67.1914 359.895,-66.2968 363,-65.6985 629.678,-14.3145 712.848,-107.66 973,-29.6985 974.06,-29.3809 975.123,-29.0085 976.18,-28.5939"/>
<polygon fill="green" stroke="green" stroke-width="0.260562" points="977.901,-31.6467 985.291,-24.0539 974.779,-25.3815 977.901,-31.6467"/>
</g>
<!-- &#45;26 -->
<g id="node26" class="node"><title>&#45;26</title>
<polygon fill="lightgray" stroke="black" points="400.5,-83.6985 371.5,-83.6985 371.5,-65.6985 400.5,-65.6985 400.5,-83.6985"/>
<text text-anchor="middle" x="386" y="-72.4985" font-family="Times New Roman,serif" font-size="9.00">&#45;26</text>
</g>
<!-- &#45;26&#45;&gt;0 -->
<g id="edge97" class="edge"><title>&#45;26&#45;&gt;0</title>
<path fill="none" stroke="green" stroke-width="0.605949" d="M400.565,-68.1943C403.643,-67.2155 406.898,-66.3136 410,-65.6985 635.065,-21.0659 705.57,-96.7552 925,-29.6985 926.058,-29.3751 927.12,-28.9981 928.176,-28.5796"/>
<polygon fill="green" stroke="green" stroke-width="0.605949" points="929.904,-31.6289 937.282,-24.0257 926.773,-25.3682 929.904,-31.6289"/>
</g>
<!-- &#45;26&#45;&gt;1 -->
<g id="edge98" class="edge"><title>&#45;26&#45;&gt;1</title>
<path fill="none" stroke="red" stroke-width="0.247445" stroke-dasharray="1,5" d="M400.586,-68.2957C403.662,-67.3096 406.912,-66.379 410,-65.6985 566.437,-31.2245 759.495,-19.9098 827.697,-16.8406"/>
<polygon fill="red" stroke="red" stroke-width="0.247445" points="828.058,-20.3284 837.899,-16.4021 827.757,-13.3348 828.058,-20.3284"/>
</g>
<!-- &#45;26&#45;&gt;2 -->
<g id="edge99" class="edge"><title>&#45;26&#45;&gt;2</title>
<path fill="none" stroke="red" stroke-width="0.71636" d="M400.569,-68.2115C403.646,-67.2315 406.9,-66.3247 410,-65.6985 614.049,-24.4753 678.136,-91.2482 877,-29.6985 878.057,-29.3713 879.118,-28.9912 880.173,-28.5702"/>
<polygon fill="red" stroke="red" stroke-width="0.71636" points="881.905,-31.6172 889.276,-24.0071 878.768,-25.3594 881.905,-31.6172"/>
</g>
<!-- &#45;26&#45;&gt;3 -->
<g id="edge100" class="edge"><title>&#45;26&#45;&gt;3</title>
<path fill="none" stroke="red" stroke-width="0.18358" stroke-dasharray="1,5" d="M400.562,-68.18C403.64,-67.2023 406.896,-66.3044 410,-65.6985 656.087,-17.6552 732.997,-102.264 973,-29.6985 974.059,-29.3783 975.122,-29.0038 976.178,-28.5874"/>
<polygon fill="red" stroke="red" stroke-width="0.18358" points="977.902,-31.6387 985.287,-24.0411 974.776,-25.3755 977.902,-31.6387"/>
</g>
<!-- &#45;27 -->
<g id="node27" class="node"><title>&#45;27</title>
<polygon fill="lightgray" stroke="black" points="447.5,-83.6985 418.5,-83.6985 418.5,-65.6985 447.5,-65.6985 447.5,-83.6985"/>
<text text-anchor="middle" x="433" y="-72.4985" font-family="Times New Roman,serif" font-size="9.00">&#45;27</text>
</g>
<!-- &#45;27&#45;&gt;0 -->
<g id="edge101" class="edge"><title>&#45;27&#45;&gt;0</title>
<path fill="none" stroke="green" stroke-width="0.264751" d="M447.569,-68.2111C450.646,-67.2311 453.9,-66.3244 457,-65.6985 661.487,-24.4042 725.708,-91.3629 925,-29.6985 926.057,-29.3714 927.118,-28.9914 928.173,-28.5704"/>
<polygon fill="green" stroke="green" stroke-width="0.264751" points="929.905,-31.6175 937.277,-24.0075 926.768,-25.3596 929.905,-31.6175"/>
</g>
<!-- &#45;27&#45;&gt;1 -->
<g id="edge102" class="edge"><title>&#45;27&#45;&gt;1</title>
<path fill="none" stroke="red" stroke-width="0.380492" d="M447.594,-68.3272C450.669,-67.3388 453.916,-66.3993 457,-65.6985 595.002,-34.333 764.857,-21.2859 827.903,-17.2921"/>
<polygon fill="red" stroke="red" stroke-width="0.380492" points="828.307,-20.774 838.074,-16.6687 827.879,-13.7871 828.307,-20.774"/>
</g>
<!-- &#45;27&#45;&gt;2 -->
<g id="edge103" class="edge"><title>&#45;27&#45;&gt;2</title>
<path fill="none" stroke="red" stroke-width="0.723099" d="M447.573,-68.232C450.65,-67.2506 453.903,-66.338 457,-65.6985 640.48,-27.8117 698.264,-85.8587 877,-29.6985 878.056,-29.3668 879.115,-28.983 880.17,-28.559"/>
<polygon fill="red" stroke="red" stroke-width="0.723099" points="881.907,-31.6032 889.269,-23.9848 878.763,-25.3489 881.907,-31.6032"/>
</g>
<!-- &#45;27&#45;&gt;3 -->
<g id="edge104" class="edge"><title>&#45;27&#45;&gt;3</title>
<path fill="none" stroke="red" stroke-width="0.208052" d="M447.565,-68.194C450.643,-67.2152 453.898,-66.3134 457,-65.6985 682.502,-20.9949 753.141,-96.87 973,-29.6985 974.058,-29.3752 975.12,-28.9982 976.176,-28.5798"/>
<polygon fill="red" stroke="red" stroke-width="0.208052" points="977.904,-31.6291 985.282,-24.026 974.773,-25.3683 977.904,-31.6291"/>
</g>
<!-- &#45;28 -->
<g id="node28" class="node"><title>&#45;28</title>
<polygon fill="lightgray" stroke="black" points="494.5,-83.6985 465.5,-83.6985 465.5,-65.6985 494.5,-65.6985 494.5,-83.6985"/>
<text text-anchor="middle" x="480" y="-72.4985" font-family="Times New Roman,serif" font-size="9.00">&#45;28</text>
</g>
<!-- &#45;28&#45;&gt;0 -->
<g id="edge105" class="edge"><title>&#45;28&#45;&gt;0</title>
<path fill="none" stroke="red" stroke-width="0.426125" d="M494.573,-68.2316C497.65,-67.2501 500.903,-66.3377 504,-65.6985 687.918,-27.7407 745.836,-85.9733 925,-29.6985 926.056,-29.3669 927.115,-28.9832 928.17,-28.5592"/>
<polygon fill="red" stroke="red" stroke-width="0.426125" points="929.907,-31.6035 937.27,-23.9853 926.763,-25.3491 929.907,-31.6035"/>
</g>
<!-- &#45;28&#45;&gt;1 -->
<g id="edge106" class="edge"><title>&#45;28&#45;&gt;1</title>
<path fill="none" stroke="green" stroke-width="0.102003" d="M494.603,-68.3669C497.677,-67.3757 500.922,-66.425 504,-65.6985 623.757,-37.429 770.658,-22.8172 828.211,-17.8464"/>
<polygon fill="green" stroke="green" stroke-width="0.102003" points="828.524,-21.3326 838.194,-17.0044 827.936,-14.3573 828.524,-21.3326"/>
</g>
<!-- &#45;28&#45;&gt;2 -->
<g id="edge107" class="edge"><title>&#45;28&#45;&gt;2</title>
<path fill="none" stroke="green" stroke-width="0.108979" d="M494.578,-68.2577C497.655,-67.2744 500.907,-66.3545 504,-65.6985 666.924,-31.1455 718.38,-80.473 877,-29.6985 878.054,-29.3612 879.112,-28.9727 880.165,-28.5449"/>
<polygon fill="green" stroke="green" stroke-width="0.108979" points="881.909,-31.5857 889.261,-23.9569 878.756,-25.3358 881.909,-31.5857"/>
</g>
<!-- &#45;28&#45;&gt;3 -->
<g id="edge108" class="edge"><title>&#45;28&#45;&gt;3</title>
<path fill="none" stroke="green" stroke-width="0.249023" d="M494.569,-68.2107C497.646,-67.2307 500.9,-66.3242 504,-65.6985 708.924,-24.3332 773.279,-91.4776 973,-29.6985 974.057,-29.3715 975.118,-28.9915 976.173,-28.5706"/>
<polygon fill="green" stroke="green" stroke-width="0.249023" points="977.905,-31.6177 985.277,-24.0079 974.768,-25.3598 977.905,-31.6177"/>
</g>
<!-- &#45;29 -->
<g id="node29" class="node"><title>&#45;29</title>
<polygon fill="lightgray" stroke="black" points="541.5,-83.6985 512.5,-83.6985 512.5,-65.6985 541.5,-65.6985 541.5,-83.6985"/>
<text text-anchor="middle" x="527" y="-72.4985" font-family="Times New Roman,serif" font-size="9.00">&#45;29</text>
</g>
<!-- &#45;29&#45;&gt;0 -->
<g id="edge109" class="edge"><title>&#45;29&#45;&gt;0</title>
<path fill="none" stroke="green" stroke-width="0.291424" d="M541.578,-68.2571C544.655,-67.2738 547.906,-66.3542 551,-65.6985 714.362,-31.0746 765.952,-80.5876 925,-29.6985 926.054,-29.3613 927.112,-28.9729 928.165,-28.5453"/>
<polygon fill="green" stroke="green" stroke-width="0.291424" points="929.908,-31.5861 937.261,-23.9576 926.756,-25.3361 929.908,-31.5861"/>
</g>
<!-- &#45;29&#45;&gt;1 -->
<g id="edge110" class="edge"><title>&#45;29&#45;&gt;1</title>
<path fill="none" stroke="red" stroke-width="0.128498" d="M541.615,-68.4186C544.689,-67.4236 547.93,-66.4584 551,-65.6985 652.4,-40.5971 776.144,-24.6525 828.128,-18.6027"/>
<polygon fill="red" stroke="red" stroke-width="0.128498" points="828.838,-22.0445 838.375,-17.4311 828.042,-15.0898 828.838,-22.0445"/>
</g>
<!-- &#45;29&#45;&gt;2 -->
<g id="edge111" class="edge"><title>&#45;29&#45;&gt;2</title>
<path fill="none" stroke="green" stroke-width="0.182384" d="M541.585,-68.2907C544.661,-67.305 547.911,-66.3758 551,-65.6985 693.386,-34.4754 738.479,-75.093 877,-29.6985 877.88,-29.4101 878.763,-29.0868 879.645,-28.7354"/>
<polygon fill="green" stroke="green" stroke-width="0.182384" points="881.356,-31.7934 888.756,-24.2109 878.242,-25.5239 881.356,-31.7934"/>
</g>
<!-- &#45;29&#45;&gt;3 -->
<g id="edge112" class="edge"><title>&#45;29&#45;&gt;3</title>
<path fill="none" stroke="red" stroke-width="0.432965" d="M541.573,-68.2311C544.65,-67.2497 547.903,-66.3373 551,-65.6985 735.355,-27.6697 793.408,-86.088 973,-29.6985 974.056,-29.367 975.115,-28.9833 976.17,-28.5595"/>
<polygon fill="red" stroke="red" stroke-width="0.432965" points="977.907,-31.6038 985.27,-23.9858 974.763,-25.3494 977.907,-31.6038"/>
</g>
<!-- &#45;30 -->
<g id="node30" class="node"><title>&#45;30</title>
<polygon fill="lightgray" stroke="black" points="588.5,-83.6985 559.5,-83.6985 559.5,-65.6985 588.5,-65.6985 588.5,-83.6985"/>
<text text-anchor="middle" x="574" y="-72.4985" font-family="Times New Roman,serif" font-size="9.00">&#45;30</text>
</g>
<!-- &#45;30&#45;&gt;0 -->
<g id="edge113" class="edge"><title>&#45;30&#45;&gt;0</title>
<path fill="none" stroke="red" stroke-width="0.128051" d="M588.585,-68.2899C591.661,-67.3042 594.911,-66.3753 598,-65.6985 740.823,-34.4046 786.051,-75.2074 925,-29.6985 925.88,-29.4102 926.763,-29.0871 927.645,-28.7358"/>
<polygon fill="red" stroke="red" stroke-width="0.128051" points="929.356,-31.7939 936.756,-24.2117 926.243,-25.5243 929.356,-31.7939"/>
</g>
<!-- &#45;30&#45;&gt;1 -->
<g id="edge114" class="edge"><title>&#45;30&#45;&gt;1</title>
<path fill="none" stroke="red" stroke-width="0.661495" d="M588.633,-68.4886C591.706,-67.4885 594.942,-66.5035 598,-65.6985 681.421,-43.7387 782.504,-26.7705 828.311,-19.5902"/>
<polygon fill="red" stroke="red" stroke-width="0.661495" points="829.128,-23.0056 838.474,-18.0164 828.056,-16.0881 829.128,-23.0056"/>
</g>
<!-- &#45;30&#45;&gt;2 -->
<g id="edge115" class="edge"><title>&#45;30&#45;&gt;2</title>
<path fill="none" stroke="green" stroke-width="0.448019" d="M588.595,-68.3346C591.67,-67.3457 594.917,-66.4041 598,-65.6985 719.876,-37.7994 758.551,-69.7216 877,-29.6985 877.877,-29.402 878.758,-29.0719 879.638,-28.7147"/>
<polygon fill="green" stroke="green" stroke-width="0.448019" points="881.361,-31.7662 888.74,-24.1633 878.23,-25.5054 881.361,-31.7662"/>
</g>
<!-- &#45;30&#45;&gt;3 -->
<g id="edge116" class="edge"><title>&#45;30&#45;&gt;3</title>
<path fill="none" stroke="red" stroke-width="0.363349" d="M588.578,-68.2565C591.654,-67.2733 594.906,-66.3538 598,-65.6985 761.799,-31.0037 813.525,-80.7021 973,-29.6985 974.054,-29.3614 975.112,-28.9732 976.165,-28.5456"/>
<polygon fill="red" stroke="red" stroke-width="0.363349" points="977.908,-31.5865 985.261,-23.9583 974.756,-25.3364 977.908,-31.5865"/>
</g>
<!-- &#45;31 -->
<g id="node31" class="node"><title>&#45;31</title>
<polygon fill="lightgray" stroke="black" points="635.5,-83.6985 606.5,-83.6985 606.5,-65.6985 635.5,-65.6985 635.5,-83.6985"/>
<text text-anchor="middle" x="621" y="-72.4985" font-family="Times New Roman,serif" font-size="9.00">&#45;31</text>
</g>
<!-- &#45;31&#45;&gt;0 -->
<g id="edge117" class="edge"><title>&#45;31&#45;&gt;0</title>
<path fill="none" stroke="red" stroke-width="0.287854" d="M635.595,-68.3335C638.67,-67.3446 641.917,-66.4034 645,-65.6985 767.312,-37.7288 806.124,-69.8358 925,-29.6985 925.877,-29.4022 926.759,-29.0722 927.638,-28.7152"/>
<polygon fill="red" stroke="red" stroke-width="0.287854" points="929.361,-31.7669 936.74,-24.1644 926.231,-25.5058 929.361,-31.7669"/>
</g>
<!-- &#45;31&#45;&gt;1 -->
<g id="edge118" class="edge"><title>&#45;31&#45;&gt;1</title>
<path fill="none" stroke="green" stroke-width="0.467291" d="M635.66,-68.5882C638.731,-67.5809 641.96,-66.5678 645,-65.6985 710.759,-46.8968 789.563,-29.3459 828.602,-20.9784"/>
<polygon fill="green" stroke="green" stroke-width="0.467291" points="829.462,-24.3737 838.514,-18.8684 828.005,-17.5271 829.462,-24.3737"/>
</g>
<!-- &#45;31&#45;&gt;2 -->
<g id="edge119" class="edge"><title>&#45;31&#45;&gt;2</title>
<path fill="none" stroke="red" stroke-width="0.102215" d="M635.61,-68.3957C638.684,-67.4023 641.927,-66.4436 645,-65.6985 746.408,-41.1136 778.582,-64.3644 877,-29.6985 877.873,-29.3908 878.751,-29.0511 879.628,-28.686"/>
<polygon fill="red" stroke="red" stroke-width="0.102215" points="881.368,-31.7284 888.717,-24.097 878.213,-25.4797 881.368,-31.7284"/>
</g>
<!-- &#45;31&#45;&gt;3 -->
<g id="edge120" class="edge"><title>&#45;31&#45;&gt;3</title>
<path fill="none" stroke="red" stroke-width="0.277724" d="M635.585,-68.2891C638.661,-67.3035 641.911,-66.3748 645,-65.6985 788.26,-34.3338 833.624,-75.3218 973,-29.6985 973.88,-29.4104 974.764,-29.0873 975.645,-28.7362"/>
<polygon fill="red" stroke="red" stroke-width="0.277724" points="977.356,-31.7944 984.756,-24.2126 974.243,-25.5246 977.356,-31.7944"/>
</g>
<!-- &#45;32 -->
<g id="node32" class="node"><title>&#45;32</title>
<polygon fill="lightgray" stroke="black" points="682.5,-83.6985 653.5,-83.6985 653.5,-65.6985 682.5,-65.6985 682.5,-83.6985"/>
<text text-anchor="middle" x="668" y="-72.4985" font-family="Times New Roman,serif" font-size="9.00">&#45;32</text>
</g>
<!-- &#45;32&#45;&gt;0 -->
<g id="edge121" class="edge"><title>&#45;32&#45;&gt;0</title>
<path fill="none" stroke="red" stroke-width="0.166755" stroke-dasharray="1,5" d="M682.609,-68.3941C685.683,-67.4009 688.927,-66.4426 692,-65.6985 793.842,-41.0432 826.156,-64.4781 925,-29.6985 925.874,-29.3911 926.751,-29.0517 927.628,-28.6867"/>
<polygon fill="red" stroke="red" stroke-width="0.166755" points="929.367,-31.7294 936.717,-24.0987 926.213,-25.4803 929.367,-31.7294"/>
</g>
<!-- &#45;32&#45;&gt;1 -->
<g id="edge122" class="edge"><title>&#45;32&#45;&gt;1</title>
<path fill="none" stroke="red" stroke-width="0.207437" d="M682.707,-68.7407C685.774,-67.7224 688.989,-66.6662 692,-65.6985 740.554,-50.0916 797.624,-32.6288 829.107,-23.0718"/>
<polygon fill="red" stroke="red" stroke-width="0.207437" points="830.199,-26.3982 838.753,-20.148 828.168,-19.6992 830.199,-26.3982"/>
</g>
<!-- &#45;32&#45;&gt;2 -->
<g id="edge123" class="edge"><title>&#45;32&#45;&gt;2</title>
<path fill="none" stroke="red" stroke-width="0.111034" d="M682.633,-68.4865C685.705,-67.4866 688.942,-66.5022 692,-65.6985 773.014,-44.4095 798.54,-59.0328 877,-29.6985 877.867,-29.3742 878.74,-29.0203 879.612,-28.6432"/>
<polygon fill="red" stroke="red" stroke-width="0.111034" points="881.376,-31.6723 888.681,-23.9987 878.185,-25.4419 881.376,-31.6723"/>
</g>
<!-- &#45;32&#45;&gt;3 -->
<g id="edge124" class="edge"><title>&#45;32&#45;&gt;3</title>
<path fill="none" stroke="red" stroke-width="0.153408" d="M682.595,-68.3324C685.67,-67.3437 688.917,-66.4027 692,-65.6985 814.748,-37.6582 853.698,-69.9499 973,-29.6985 973.877,-29.4024 974.759,-29.0726 975.638,-28.7158"/>
<polygon fill="red" stroke="red" stroke-width="0.153408" points="977.361,-31.7676 984.741,-24.1656 974.231,-25.5063 977.361,-31.7676"/>
</g>
<!-- &#45;33 -->
<g id="node33" class="node"><title>&#45;33</title>
<polygon fill="lightgray" stroke="black" points="729.5,-83.6985 700.5,-83.6985 700.5,-65.6985 729.5,-65.6985 729.5,-83.6985"/>
<text text-anchor="middle" x="715" y="-72.4985" font-family="Times New Roman,serif" font-size="9.00">&#45;33</text>
</g>
<!-- &#45;33&#45;&gt;0 -->
<g id="edge125" class="edge"><title>&#45;33&#45;&gt;0</title>
<path fill="none" stroke="green" stroke-width="0.133419" d="M729.632,-68.4842C732.704,-67.4844 735.941,-66.5006 739,-65.6985 820.447,-44.3397 846.116,-59.1458 925,-29.6985 925.868,-29.3746 926.74,-29.0212 927.613,-28.6444"/>
<polygon fill="green" stroke="green" stroke-width="0.133419" points="929.376,-31.6738 936.682,-24.0013 926.186,-25.4429 929.376,-31.6738"/>
</g>
<!-- &#45;33&#45;&gt;1 -->
<g id="edge126" class="edge"><title>&#45;33&#45;&gt;1</title>
<path fill="none" stroke="red" stroke-width="0.325802" d="M729.508,-67.6169C753.421,-57.5925 801.309,-37.5181 829.916,-25.526"/>
<polygon fill="red" stroke="red" stroke-width="0.325802" points="831.634,-28.6011 839.503,-21.5072 828.927,-22.1454 831.634,-28.6011"/>
</g>
<!-- &#45;33&#45;&gt;2 -->
<g id="edge127" class="edge"><title>&#45;33&#45;&gt;2</title>
<path fill="none" stroke="green" stroke-width="0.233376" stroke-dasharray="1,5" d="M729.674,-68.6352C732.744,-67.6245 735.968,-66.5981 739,-65.6985 799.767,-47.6663 818.356,-53.7548 877,-29.6985 877.857,-29.347 878.72,-28.9701 879.585,-28.5736"/>
<polygon fill="green" stroke="green" stroke-width="0.233376" points="881.386,-31.5811 888.618,-23.8383 878.136,-25.3812 881.386,-31.5811"/>
</g>
<!-- &#45;33&#45;&gt;3 -->
<g id="edge128" class="edge"><title>&#45;33&#45;&gt;3</title>
<path fill="none" stroke="red" stroke-width="0.331893" d="M729.609,-68.3926C732.683,-67.3995 735.926,-66.4416 739,-65.6985 841.277,-40.9729 873.73,-64.5919 973,-29.6985 973.874,-29.3914 974.752,-29.0522 975.628,-28.6874"/>
<polygon fill="red" stroke="red" stroke-width="0.331893" points="977.367,-31.7303 984.718,-24.1004 974.214,-25.481 977.367,-31.7303"/>
</g>
<!-- &#45;34 -->
<g id="node34" class="node"><title>&#45;34</title>
<polygon fill="lightgray" stroke="black" points="776.5,-83.6985 747.5,-83.6985 747.5,-65.6985 776.5,-65.6985 776.5,-83.6985"/>
<text text-anchor="middle" x="762" y="-72.4985" font-family="Times New Roman,serif" font-size="9.00">&#45;34</text>
</g>
<!-- &#45;34&#45;&gt;0 -->
<g id="edge129" class="edge"><title>&#45;34&#45;&gt;0</title>
<path fill="none" stroke="red" stroke-width="0.317647" d="M776.673,-68.6311C779.742,-67.6207 782.968,-66.5954 786,-65.6985 847.195,-47.5977 865.937,-53.8661 925,-29.6985 925.857,-29.3478 926.721,-28.9715 927.586,-28.5755"/>
<polygon fill="red" stroke="red" stroke-width="0.317647" points="929.386,-31.5836 936.62,-23.8428 926.138,-25.3829 929.386,-31.5836"/>
</g>
<!-- &#45;34&#45;&gt;1 -->
<g id="edge130" class="edge"><title>&#45;34&#45;&gt;1</title>
<path fill="none" stroke="green" stroke-width="0.38075" d="M774.653,-65.6548C789.541,-56.1902 814.477,-40.3388 832.216,-29.0619"/>
<polygon fill="green" stroke="green" stroke-width="0.38075" points="834.184,-31.9583 840.745,-23.6398 830.428,-26.0509 834.184,-31.9583"/>
</g>
<!-- &#45;34&#45;&gt;2 -->
<g id="edge131" class="edge"><title>&#45;34&#45;&gt;2</title>
<path fill="none" stroke="red" stroke-width="0.107922" d="M776.912,-68.3266C803.625,-58.6482 858.568,-38.4751 877,-29.6985 877.836,-29.3004 878.682,-28.8838 879.532,-28.4538"/>
<polygon fill="red" stroke="red" stroke-width="0.107922" points="881.394,-31.4248 888.496,-23.5627 878.042,-25.28 881.394,-31.4248"/>
</g>
<!-- &#45;34&#45;&gt;3 -->
<g id="edge132" class="edge"><title>&#45;34&#45;&gt;3</title>
<path fill="none" stroke="green" stroke-width="0.104408" d="M776.631,-68.4818C779.704,-67.4822 782.941,-66.4991 786,-65.6985 867.88,-44.2698 893.693,-59.2588 973,-29.6985 973.868,-29.3751 974.741,-29.022 975.613,-28.6455"/>
<polygon fill="green" stroke="green" stroke-width="0.104408" points="977.376,-31.6753 984.683,-24.0039 974.187,-25.4439 977.376,-31.6753"/>
</g>
<!-- &#45;35 -->
<g id="node35" class="node"><title>&#45;35</title>
<polygon fill="lightgray" stroke="black" points="823.5,-83.6985 794.5,-83.6985 794.5,-65.6985 823.5,-65.6985 823.5,-83.6985"/>
<text text-anchor="middle" x="809" y="-72.4985" font-family="Times New Roman,serif" font-size="9.00">&#45;35</text>
</g>
<!-- &#45;35&#45;&gt;0 -->
<g id="edge133" class="edge"><title>&#45;35&#45;&gt;0</title>
<path fill="none" stroke="green" stroke-width="0.402699" d="M823.622,-68.4852C850.409,-58.8798 906.318,-38.5611 925,-29.6985 925.837,-29.3016 926.683,-28.886 927.533,-28.4569"/>
<polygon fill="green" stroke="green" stroke-width="0.402699" points="929.394,-31.4288 936.5,-23.5698 926.044,-25.2825 929.394,-31.4288"/>
</g>
<!-- &#45;35&#45;&gt;1 -->
<g id="edge134" class="edge"><title>&#45;35&#45;&gt;1</title>
<path fill="none" stroke="green" stroke-width="0.206486" d="M815.118,-65.6548C821.021,-57.8934 830.191,-45.8369 838.031,-35.5302"/>
<polygon fill="green" stroke="green" stroke-width="0.206486" points="840.934,-37.4951 844.202,-27.4169 835.362,-33.2574 840.934,-37.4951"/>
</g>
<!-- &#45;35&#45;&gt;2 -->
<g id="edge135" class="edge"><title>&#45;35&#45;&gt;2</title>
<path fill="none" stroke="green" stroke-width="0.440086" d="M821.792,-65.6548C836.844,-56.1902 862.053,-40.3388 879.987,-29.0619"/>
<polygon fill="green" stroke="green" stroke-width="0.440086" points="882.008,-31.9258 888.61,-23.6398 878.282,-26 882.008,-31.9258"/>
</g>
<!-- &#45;35&#45;&gt;3 -->
<g id="edge136" class="edge"><title>&#45;35&#45;&gt;3</title>
<path fill="none" stroke="green" stroke-width="0.137802" d="M823.672,-68.627C826.741,-67.6169 829.967,-66.5928 833,-65.6985 894.624,-47.5291 913.518,-53.9775 973,-29.6985 973.857,-29.3485 974.722,-28.9729 975.587,-28.5774"/>
<polygon fill="green" stroke="green" stroke-width="0.137802" points="977.386,-31.5861 984.622,-23.8472 974.139,-25.3845 977.386,-31.5861"/>
</g>
<!-- &#45;36 -->
<g id="node36" class="node"><title>&#45;36</title>
<polygon fill="lightgray" stroke="black" points="870.5,-83.6985 841.5,-83.6985 841.5,-65.6985 870.5,-65.6985 870.5,-83.6985"/>
<text text-anchor="middle" x="856" y="-72.4985" font-family="Times New Roman,serif" font-size="9.00">&#45;36</text>
</g>
<!-- &#45;36&#45;&gt;0 -->
<g id="edge137" class="edge"><title>&#45;36&#45;&gt;0</title>
<path fill="none" stroke="green" stroke-width="0.240905" d="M868.931,-65.6548C884.232,-56.1374 909.915,-40.1615 928.062,-28.8733"/>
<polygon fill="green" stroke="green" stroke-width="0.240905" points="930.128,-31.7105 936.77,-23.4566 926.43,-25.7666 930.128,-31.7105"/>
</g>
<!-- &#45;36&#45;&gt;1 -->
<g id="edge138" class="edge"><title>&#45;36&#45;&gt;1</title>
<path fill="none" stroke="red" stroke-width="0.213698" d="M855.583,-65.6548C855.24,-59.0498 854.737,-49.3344 854.265,-40.2339"/>
<polygon fill="red" stroke="red" stroke-width="0.213698" points="857.75,-39.8616 853.737,-30.0563 850.759,-40.2242 857.75,-39.8616"/>
</g>
<!-- &#45;36&#45;&gt;2 -->
<g id="edge139" class="edge"><title>&#45;36&#45;&gt;2</title>
<path fill="none" stroke="red" stroke-width="0.116665" d="M862.257,-65.6548C868.37,-57.7964 877.908,-45.5348 885.99,-35.1446"/>
<polygon fill="red" stroke="red" stroke-width="0.116665" points="888.953,-37.0367 892.33,-26.9946 883.428,-32.7387 888.953,-37.0367"/>
</g>
<!-- &#45;36&#45;&gt;3 -->
<g id="edge140" class="edge"><title>&#45;36&#45;&gt;3</title>
<path fill="none" stroke="red" stroke-width="0.166398" d="M870.75,-68.4928C897.77,-58.8999 954.165,-38.6013 973,-29.6985 973.837,-29.3028 974.684,-28.8882 975.535,-28.46"/>
<polygon fill="red" stroke="red" stroke-width="0.166398" points="977.394,-31.4328 984.503,-23.5768 974.047,-25.2851 977.394,-31.4328"/>
</g>
<!-- &#45;37 -->
<g id="node37" class="node"><title>&#45;37</title>
<polygon fill="lightgray" stroke="black" points="917.5,-83.6985 888.5,-83.6985 888.5,-65.6985 917.5,-65.6985 917.5,-83.6985"/>
<text text-anchor="middle" x="903" y="-72.4985" font-family="Times New Roman,serif" font-size="9.00">&#45;37</text>
</g>
<!-- &#45;37&#45;&gt;0 -->
<g id="edge141" class="edge"><title>&#45;37&#45;&gt;0</title>
<path fill="none" stroke="red" stroke-width="0.231474" d="M909.396,-65.6548C915.707,-57.7178 925.59,-45.2891 933.904,-34.8334"/>
<polygon fill="red" stroke="red" stroke-width="0.231474" points="936.653,-37.0001 940.138,-26.9946 931.174,-32.6433 936.653,-37.0001"/>
</g>
<!-- &#45;37&#45;&gt;1 -->
<g id="edge142" class="edge"><title>&#45;37&#45;&gt;1</title>
<path fill="none" stroke="green" stroke-width="0.156573" d="M896.048,-65.6548C889.103,-57.6198 878.18,-44.9816 869.074,-34.4471"/>
<polygon fill="green" stroke="green" stroke-width="0.156573" points="871.46,-31.8548 862.273,-26.5778 866.164,-36.4322 871.46,-31.8548"/>
</g>
<!-- &#45;37&#45;&gt;2 -->
<g id="edge143" class="edge"><title>&#45;37&#45;&gt;2</title>
<path fill="none" stroke="green" stroke-width="0.326349" d="M902.722,-65.6548C902.494,-59.0498 902.158,-49.3344 901.843,-40.2339"/>
<polygon fill="green" stroke="green" stroke-width="0.326349" points="905.335,-39.9294 901.491,-30.0563 898.339,-40.1713 905.335,-39.9294"/>
</g>
<!-- &#45;37&#45;&gt;3 -->
<g id="edge144" class="edge"><title>&#45;37&#45;&gt;3</title>
<path fill="none" stroke="red" stroke-width="0.544608" d="M916.07,-65.6548C931.606,-56.0937 957.733,-40.0148 976.089,-28.7182"/>
<polygon fill="red" stroke="red" stroke-width="0.544608" points="977.957,-31.6786 984.639,-23.4566 974.288,-25.7171 977.957,-31.6786"/>
</g>
<!-- &#45;38 -->
<g id="node38" class="node"><title>&#45;38</title>
<polygon fill="lightgray" stroke="black" points="964.5,-83.6985 935.5,-83.6985 935.5,-65.6985 964.5,-65.6985 964.5,-83.6985"/>
<text text-anchor="middle" x="950" y="-72.4985" font-family="Times New Roman,serif" font-size="9.00">&#45;38</text>
</g>
<!-- &#45;38&#45;&gt;0 -->
<g id="edge145" class="edge"><title>&#45;38&#45;&gt;0</title>
<path fill="none" stroke="red" stroke-width="0.118249" d="M949.861,-65.6548C949.747,-59.0498 949.579,-49.3344 949.422,-40.2339"/>
<polygon fill="red" stroke="red" stroke-width="0.118249" points="952.918,-39.9943 949.246,-30.0563 945.919,-40.1153 952.918,-39.9943"/>
</g>
<!-- &#45;38&#45;&gt;1 -->
<g id="edge146" class="edge"><title>&#45;38&#45;&gt;1</title>
<path fill="none" stroke="green" stroke-width="0.446718" d="M936.513,-65.6548C920.392,-56.0406 893.22,-39.8359 874.263,-28.5304"/>
<polygon fill="green" stroke="green" stroke-width="0.446718" points="875.833,-25.3913 865.452,-23.2752 872.247,-31.4033 875.833,-25.3913"/>
</g>
<!-- &#45;38&#45;&gt;2 -->
<g id="edge147" class="edge"><title>&#45;38&#45;&gt;2</title>
<path fill="none" stroke="red" stroke-width="0.158059" d="M943.187,-65.6548C936.464,-57.7178 925.936,-45.2891 917.08,-34.8334"/>
<polygon fill="red" stroke="red" stroke-width="0.158059" points="919.574,-32.363 910.44,-26.9946 914.233,-36.8874 919.574,-32.363"/>
</g>
<!-- &#45;38&#45;&gt;3 -->
<g id="edge148" class="edge"><title>&#45;38&#45;&gt;3</title>
<path fill="none" stroke="red" stroke-width="0.384913" d="M956.535,-65.6548C962.984,-57.7178 973.081,-45.2891 981.576,-34.8334"/>
<polygon fill="red" stroke="red" stroke-width="0.384913" points="984.356,-36.9629 987.945,-26.9946 978.923,-32.5489 984.356,-36.9629"/>
</g>
<!-- &#45;39 -->
<g id="node39" class="node"><title>&#45;39</title>
<polygon fill="lightgray" stroke="black" points="1011.5,-83.6985 982.5,-83.6985 982.5,-65.6985 1011.5,-65.6985 1011.5,-83.6985"/>
<text text-anchor="middle" x="997" y="-72.4985" font-family="Times New Roman,serif" font-size="9.00">&#45;39</text>
</g>
<!-- &#45;39&#45;&gt;0 -->
<g id="edge149" class="edge"><title>&#45;39&#45;&gt;0</title>
<path fill="none" stroke="green" stroke-width="0.192761" d="M990.326,-65.6548C983.74,-57.7178 973.428,-45.2891 964.752,-34.8334"/>
<polygon fill="green" stroke="green" stroke-width="0.192761" points="967.327,-32.4555 958.248,-26.9946 961.94,-36.9253 967.327,-32.4555"/>
</g>
<!-- &#45;39&#45;&gt;1 -->
<g id="edge150" class="edge"><title>&#45;39&#45;&gt;1</title>
<path fill="none" stroke="green" stroke-width="0.255267" d="M982.394,-68.5021C952.624,-57.8881 886.9,-34.3277 877,-29.6985 876.161,-29.3062 875.313,-28.8946 874.461,-28.4689"/>
<polygon fill="green" stroke="green" stroke-width="0.255267" points="875.946,-25.2924 865.487,-23.5973 872.606,-31.4444 875.946,-25.2924"/>
</g>
<!-- &#45;39&#45;&gt;2 -->
<g id="edge151" class="edge"><title>&#45;39&#45;&gt;2</title>
<path fill="none" stroke="green" stroke-width="0.463031" d="M983.652,-65.6548C967.697,-56.0406 940.806,-39.8359 922.044,-28.5304"/>
<polygon fill="green" stroke="green" stroke-width="0.463031" points="923.695,-25.4387 913.323,-23.2752 920.082,-31.4343 923.695,-25.4387"/>
</g>
<!-- &#45;39&#45;&gt;3 -->
<g id="edge152" class="edge"><title>&#45;39&#45;&gt;3</title>
<path fill="none" stroke="green" stroke-width="0.477113" d="M997,-65.6548C997,-59.0498 997,-49.3344 997,-40.2339"/>
<polygon fill="green" stroke="green" stroke-width="0.477113" points="1000.5,-40.0563 997,-30.0563 993.5,-40.0564 1000.5,-40.0563"/>
</g>
<!-- &#45;40 -->
<g id="node40" class="node"><title>&#45;40</title>
<polygon fill="lightgray" stroke="black" points="1058.5,-83.6985 1029.5,-83.6985 1029.5,-65.6985 1058.5,-65.6985 1058.5,-83.6985"/>
<text text-anchor="middle" x="1044" y="-72.4985" font-family="Times New Roman,serif" font-size="9.00">&#45;40</text>
</g>
<!-- &#45;40&#45;&gt;0 -->
<g id="edge153" class="edge"><title>&#45;40&#45;&gt;0</title>
<path fill="none" stroke="red" stroke-width="0.221213" d="M1030.79,-65.6548C1015.09,-56.0937 988.685,-40.0148 970.133,-28.7182"/>
<polygon fill="red" stroke="red" stroke-width="0.221213" points="971.854,-25.6683 961.493,-23.4566 968.214,-31.647 971.854,-25.6683"/>
</g>
<!-- &#45;40&#45;&gt;1 -->
<g id="edge154" class="edge"><title>&#45;40&#45;&gt;1</title>
<path fill="none" stroke="red" stroke-width="0.154307" d="M1029.46,-68.4214C1026.67,-67.4698 1023.75,-66.5202 1021,-65.6985 957.782,-46.8433 938.161,-54.4237 877,-29.6985 876.141,-29.3514 875.276,-28.9782 874.41,-28.5848"/>
<polygon fill="red" stroke="red" stroke-width="0.154307" points="875.855,-25.3909 865.371,-23.8642 872.615,-31.5957 875.855,-25.3909"/>
</g>
<!-- &#45;40&#45;&gt;2 -->
<g id="edge155" class="edge"><title>&#45;40&#45;&gt;2</title>
<path fill="none" stroke="red" stroke-width="0.307792" d="M1029.06,-68.3361C999.336,-57.6398 934.771,-34.2836 925,-29.6985 924.162,-29.3051 923.314,-28.8925 922.462,-28.4659"/>
<polygon fill="red" stroke="red" stroke-width="0.307792" points="923.948,-25.29 913.491,-23.5906 920.606,-31.4406 923.948,-25.29"/>
</g>
<!-- &#45;40&#45;&gt;3 -->
<g id="edge156" class="edge"><title>&#45;40&#45;&gt;3</title>
<path fill="none" stroke="red" stroke-width="0.202804" stroke-dasharray="1,5" d="M1037.46,-65.6548C1031.02,-57.7178 1020.92,-45.2891 1012.42,-34.8334"/>
<polygon fill="red" stroke="red" stroke-width="0.202804" points="1015.08,-32.5489 1006.06,-26.9946 1009.64,-36.9629 1015.08,-32.5489"/>
</g>
</g>
</svg>
