<?xml version="1.0" encoding="UTF-8" standalone="no"?>
<!DOCTYPE svg PUBLIC "-//W3C//DTD SVG 1.1//EN"
 "http://www.w3.org/Graphics/SVG/1.1/DTD/svg11.dtd">
<!-- Generated by graphviz version 2.38.0 (20140413.2041)
 -->
<!-- Title: %3 Pages: 1 -->
<svg width="1829pt" height="92pt"
 viewBox="0.00 0.00 1828.50 91.70" xmlns="http://www.w3.org/2000/svg" xmlns:xlink="http://www.w3.org/1999/xlink">
<g id="graph0" class="graph" transform="scale(1 1) rotate(0) translate(4 87.6985)">
<title>%3</title>
<polygon fill="white" stroke="none" points="-4,4 -4,-87.6985 1824.5,-87.6985 1824.5,4 -4,4"/>
<!-- &#45;1 -->
<g id="node1" class="node"><title>&#45;1</title>
<polygon fill="lightgray" stroke="black" points="486,-83.6985 462,-83.6985 462,-65.6985 486,-65.6985 486,-83.6985"/>
<text text-anchor="middle" x="474" y="-72.4985" font-family="Times New Roman,serif" font-size="9.00">&#45;1</text>
</g>
<!-- 0 -->
<g id="node41" class="node"><title>0</title>
<ellipse fill="lightblue" stroke="black" cx="869" cy="-14.8492" rx="14.7" ry="14.7"/>
<text text-anchor="middle" x="869" y="-12.6492" font-family="Times New Roman,serif" font-size="9.00">0</text>
</g>
<!-- &#45;1&#45;&gt;0 -->
<g id="edge1" class="edge"><title>&#45;1&#45;&gt;0</title>
<path fill="none" stroke="green" stroke-width="0.290221" d="M486.268,-68.4115C489.092,-67.3673 492.115,-66.3838 495,-65.6985 647.142,-29.5554 696.218,-77.8394 845,-29.6985 846.053,-29.3579 847.11,-28.9667 848.163,-28.5367"/>
<polygon fill="green" stroke="green" stroke-width="0.290221" points="849.91,-31.5754 857.255,-23.9407 846.752,-25.3281 849.91,-31.5754"/>
</g>
<!-- 1 -->
<g id="node42" class="node"><title>1</title>
<ellipse fill="lightblue" stroke="black" cx="965" cy="-14.8492" rx="14.7" ry="14.7"/>
<text text-anchor="middle" x="965" y="-12.6492" font-family="Times New Roman,serif" font-size="9.00">1</text>
</g>
<!-- &#45;1&#45;&gt;1 -->
<g id="edge2" class="edge"><title>&#45;1&#45;&gt;1</title>
<path fill="none" stroke="green" stroke-width="0.30624" d="M486.257,-68.3645C489.082,-67.3227 492.108,-66.3521 495,-65.6985 688.975,-21.8612 751.131,-88.8397 941,-29.6985 942.056,-29.3694 943.117,-28.9877 944.172,-28.5655"/>
<polygon fill="green" stroke="green" stroke-width="0.30624" points="945.906,-31.6113 953.273,-23.9977 942.766,-25.3549 945.906,-31.6113"/>
</g>
<!-- 2 -->
<g id="node43" class="node"><title>2</title>
<ellipse fill="lightblue" stroke="black" cx="821" cy="-14.8492" rx="14.7" ry="14.7"/>
<text text-anchor="middle" x="821" y="-12.6492" font-family="Times New Roman,serif" font-size="9.00">2</text>
</g>
<!-- &#45;1&#45;&gt;2 -->
<g id="edge3" class="edge"><title>&#45;1&#45;&gt;2</title>
<path fill="none" stroke="red" stroke-width="0.318373" d="M486.294,-68.5165C489.117,-67.4669 492.133,-66.4546 495,-65.6985 605.062,-36.672 740.782,-22.6654 795.934,-17.8556"/>
<polygon fill="red" stroke="red" stroke-width="0.318373" points="796.482,-21.3218 806.151,-16.9906 795.891,-14.3468 796.482,-21.3218"/>
</g>
<!-- 3 -->
<g id="node44" class="node"><title>3</title>
<ellipse fill="lightblue" stroke="black" cx="917" cy="-14.8492" rx="14.7" ry="14.7"/>
<text text-anchor="middle" x="917" y="-12.6492" font-family="Times New Roman,serif" font-size="9.00">3</text>
</g>
<!-- &#45;1&#45;&gt;3 -->
<g id="edge4" class="edge"><title>&#45;1&#45;&gt;3</title>
<path fill="none" stroke="green" stroke-width="0.190895" d="M486.262,-68.3852C489.087,-67.3423 492.111,-66.3661 495,-65.6985 668.051,-25.7101 723.682,-83.3372 893,-29.6985 894.055,-29.3643 895.114,-28.9784 896.168,-28.5528"/>
<polygon fill="green" stroke="green" stroke-width="0.190895" points="897.907,-31.5955 905.266,-23.9726 894.76,-25.3431 897.907,-31.5955"/>
</g>
<!-- &#45;2 -->
<g id="node2" class="node"><title>&#45;2</title>
<polygon fill="lightgray" stroke="black" points="528,-83.6985 504,-83.6985 504,-65.6985 528,-65.6985 528,-83.6985"/>
<text text-anchor="middle" x="516" y="-72.4985" font-family="Times New Roman,serif" font-size="9.00">&#45;2</text>
</g>
<!-- &#45;2&#45;&gt;0 -->
<g id="edge5" class="edge"><title>&#45;2&#45;&gt;0</title>
<path fill="none" stroke="red" stroke-width="0.164997" d="M528.275,-68.4411C531.099,-67.3954 534.12,-66.4038 537,-65.6985 670.865,-32.9158 714.17,-73.0346 845,-29.6985 845.879,-29.4073 846.762,-29.0816 847.642,-28.7282"/>
<polygon fill="red" stroke="red" stroke-width="0.164997" points="849.358,-31.784 856.75,-24.1943 846.238,-25.5175 849.358,-31.784"/>
</g>
<!-- &#45;2&#45;&gt;1 -->
<g id="edge6" class="edge"><title>&#45;2&#45;&gt;1</title>
<path fill="none" stroke="green" stroke-width="0.150116" d="M528.261,-68.3823C531.086,-67.3396 534.111,-66.3641 537,-65.6985 712.666,-25.2291 769.114,-84.0248 941,-29.6985 942.055,-29.365 943.114,-28.9797 944.168,-28.5545"/>
<polygon fill="green" stroke="green" stroke-width="0.150116" points="945.907,-31.5977 953.267,-23.976 942.761,-25.3447 945.907,-31.5977"/>
</g>
<!-- &#45;2&#45;&gt;2 -->
<g id="edge7" class="edge"><title>&#45;2&#45;&gt;2</title>
<path fill="none" stroke="green" stroke-width="0.280898" d="M528.307,-68.5633C531.129,-67.5112 534.141,-66.4861 537,-65.6985 630.997,-39.7985 746.357,-24.4539 796.163,-18.5953"/>
<polygon fill="green" stroke="green" stroke-width="0.280898" points="796.767,-22.049 806.301,-17.4284 795.967,-15.0949 796.767,-22.049"/>
</g>
<!-- &#45;2&#45;&gt;3 -->
<g id="edge8" class="edge"><title>&#45;2&#45;&gt;3</title>
<path fill="none" stroke="red" stroke-width="0.388481" stroke-dasharray="1,5" d="M528.267,-68.4078C531.092,-67.3638 534.115,-66.3813 537,-65.6985 691.755,-29.075 741.652,-78.5263 893,-29.6985 894.053,-29.3588 895.111,-28.9683 896.163,-28.5389"/>
<polygon fill="red" stroke="red" stroke-width="0.388481" points="897.909,-31.5782 905.257,-23.9451 894.753,-25.3302 897.909,-31.5782"/>
</g>
<!-- &#45;3 -->
<g id="node3" class="node"><title>&#45;3</title>
<polygon fill="lightgray" stroke="black" points="24,-83.6985 0,-83.6985 0,-65.6985 24,-65.6985 24,-83.6985"/>
<text text-anchor="middle" x="12" y="-72.4985" font-family="Times New Roman,serif" font-size="9.00">&#45;3</text>
</g>
<!-- &#45;3&#45;&gt;0 -->
<g id="edge9" class="edge"><title>&#45;3&#45;&gt;0</title>
<path fill="none" stroke="green" stroke-width="0.115012" d="M24.2401,-68.2866C27.0661,-67.2489 30.0965,-66.2996 33,-65.6985 209.871,-29.0815 671.606,-80.2806 845,-29.6985 846.062,-29.3886 847.127,-29.0227 848.186,-28.6132"/>
<polygon fill="green" stroke="green" stroke-width="0.115012" points="849.898,-31.6708 857.302,-24.0922 846.788,-25.3997 849.898,-31.6708"/>
</g>
<!-- &#45;3&#45;&gt;2 -->
<g id="edge10" class="edge"><title>&#45;3&#45;&gt;2</title>
<path fill="none" stroke="red" stroke-width="0.186705" stroke-dasharray="1,5" d="M24.2487,-68.3272C27.0743,-67.2874 30.1023,-66.327 33,-65.6985 183.705,-33.0128 678.177,-19.2758 795.751,-16.4275"/>
<polygon fill="red" stroke="red" stroke-width="0.186705" points="796.015,-19.9223 805.929,-16.1856 795.848,-12.9243 796.015,-19.9223"/>
</g>
<!-- &#45;3&#45;&gt;3 -->
<g id="edge11" class="edge"><title>&#45;3&#45;&gt;3</title>
<path fill="none" stroke="green" stroke-width="0.28569" stroke-dasharray="1,5" d="M24.239,-68.2813C27.0651,-67.2438 30.0957,-66.296 33,-65.6985 220.354,-27.1524 709.309,-83.0382 893,-29.6985 894.063,-29.3899 895.128,-29.0251 896.187,-28.6164"/>
<polygon fill="green" stroke="green" stroke-width="0.28569" points="897.898,-31.6749 905.304,-24.0987 894.79,-25.4028 897.898,-31.6749"/>
</g>
<!-- &#45;4 -->
<g id="node4" class="node"><title>&#45;4</title>
<polygon fill="lightgray" stroke="black" points="570,-83.6985 546,-83.6985 546,-65.6985 570,-65.6985 570,-83.6985"/>
<text text-anchor="middle" x="558" y="-72.4985" font-family="Times New Roman,serif" font-size="9.00">&#45;4</text>
</g>
<!-- &#45;4&#45;&gt;0 -->
<g id="edge12" class="edge"><title>&#45;4&#45;&gt;0</title>
<path fill="none" stroke="red" stroke-width="0.281661" d="M570.285,-68.4799C573.108,-67.4321 576.127,-66.4299 579,-65.6985 694.613,-36.2699 732.097,-68.2381 845,-29.6985 845.876,-29.3993 846.757,-29.0669 847.635,-28.7078"/>
<polygon fill="red" stroke="red" stroke-width="0.281661" points="849.363,-31.7571 856.734,-24.1472 846.226,-25.4991 849.363,-31.7571"/>
</g>
<!-- &#45;4&#45;&gt;1 -->
<g id="edge13" class="edge"><title>&#45;4&#45;&gt;1</title>
<path fill="none" stroke="green" stroke-width="0.341094" d="M570.266,-68.4043C573.091,-67.3604 576.114,-66.3789 579,-65.6985 736.367,-28.5945 787.086,-79.2133 941,-29.6985 942.053,-29.3596 943.111,-28.9699 944.164,-28.5411"/>
<polygon fill="green" stroke="green" stroke-width="0.341094" points="945.909,-31.5809 953.258,-23.9494 942.754,-25.3322 945.909,-31.5809"/>
</g>
<!-- &#45;4&#45;&gt;2 -->
<g id="edge14" class="edge"><title>&#45;4&#45;&gt;2</title>
<path fill="none" stroke="red" stroke-width="0.122827" d="M570.324,-68.6255C573.146,-67.5701 576.153,-66.5281 579,-65.6985 657.019,-42.9625 752.093,-26.5777 796.255,-19.595"/>
<polygon fill="red" stroke="red" stroke-width="0.122827" points="797.001,-23.021 806.344,-18.0242 795.924,-16.1044 797.001,-23.021"/>
</g>
<!-- &#45;4&#45;&gt;3 -->
<g id="edge15" class="edge"><title>&#45;4&#45;&gt;3</title>
<path fill="none" stroke="green" stroke-width="0.616271" d="M570.274,-68.4364C573.098,-67.3909 576.119,-66.4006 579,-65.6985 715.475,-32.436 759.607,-73.7206 893,-29.6985 893.879,-29.4083 894.762,-29.0834 895.643,-28.7307"/>
<polygon fill="green" stroke="green" stroke-width="0.616271" points="897.357,-31.7873 904.752,-24.2 894.24,-25.5197 897.357,-31.7873"/>
</g>
<!-- &#45;5 -->
<g id="node5" class="node"><title>&#45;5</title>
<polygon fill="lightgray" stroke="black" points="612,-83.6985 588,-83.6985 588,-65.6985 612,-65.6985 612,-83.6985"/>
<text text-anchor="middle" x="600" y="-72.4985" font-family="Times New Roman,serif" font-size="9.00">&#45;5</text>
</g>
<!-- &#45;5&#45;&gt;0 -->
<g id="edge16" class="edge"><title>&#45;5&#45;&gt;0</title>
<path fill="none" stroke="green" stroke-width="0.166379" d="M612.298,-68.5327C615.121,-67.4822 618.136,-66.4655 621,-65.6985 718.401,-39.614 749.985,-63.4546 845,-29.6985 845.873,-29.3885 846.75,-29.0468 847.626,-28.6799"/>
<polygon fill="green" stroke="green" stroke-width="0.166379" points="849.369,-31.7205 856.712,-24.0831 846.209,-25.4743 849.369,-31.7205"/>
</g>
<!-- &#45;5&#45;&gt;1 -->
<g id="edge17" class="edge"><title>&#45;5&#45;&gt;1</title>
<path fill="none" stroke="green" stroke-width="0.310718" d="M612.273,-68.4319C615.097,-67.3866 618.119,-66.3975 621,-65.6985 760.085,-31.9562 805.043,-74.4067 941,-29.6985 941.88,-29.4092 942.763,-29.0851 943.644,-28.7331"/>
<polygon fill="green" stroke="green" stroke-width="0.310718" points="945.357,-31.7904 952.754,-24.2055 942.241,-25.5219 945.357,-31.7904"/>
</g>
<!-- &#45;5&#45;&gt;2 -->
<g id="edge18" class="edge"><title>&#45;5&#45;&gt;2</title>
<path fill="none" stroke="green" stroke-width="0.188795" d="M612.351,-68.712C615.171,-67.6522 618.171,-66.5864 621,-65.6985 683.15,-46.1921 758.036,-29.2221 796.123,-21.0439"/>
<polygon fill="green" stroke="green" stroke-width="0.188795" points="797.225,-24.388 806.279,-18.8851 795.769,-17.541 797.225,-24.388"/>
</g>
<!-- &#45;5&#45;&gt;3 -->
<g id="edge19" class="edge"><title>&#45;5&#45;&gt;3</title>
<path fill="none" stroke="green" stroke-width="0.345651" d="M612.283,-68.4736C615.107,-67.4262 618.125,-66.4257 621,-65.6985 739.219,-35.7912 777.537,-68.9226 893,-29.6985 893.877,-29.4006 894.758,-29.0692 895.636,-28.7111"/>
<polygon fill="green" stroke="green" stroke-width="0.345651" points="897.362,-31.7614 904.737,-24.1548 894.228,-25.5021 897.362,-31.7614"/>
</g>
<!-- &#45;6 -->
<g id="node6" class="node"><title>&#45;6</title>
<polygon fill="lightgray" stroke="black" points="161,-83.6985 137,-83.6985 137,-65.6985 161,-65.6985 161,-83.6985"/>
<text text-anchor="middle" x="149" y="-72.4985" font-family="Times New Roman,serif" font-size="9.00">&#45;6</text>
</g>
<!-- &#45;6&#45;&gt;0 -->
<g id="edge20" class="edge"><title>&#45;6&#45;&gt;0</title>
<path fill="none" stroke="green" stroke-width="0.350931" d="M161.244,-68.3059C164.07,-67.2672 167.099,-66.3126 170,-65.6985 463.912,-3.47397 556.975,-115.125 845,-29.6985 846.061,-29.3839 847.125,-29.014 848.183,-28.6013"/>
<polygon fill="green" stroke="green" stroke-width="0.350931" points="849.9,-31.6561 857.295,-24.0687 846.783,-25.3886 849.9,-31.6561"/>
</g>
<!-- &#45;6&#45;&gt;1 -->
<g id="edge21" class="edge"><title>&#45;6&#45;&gt;1</title>
<path fill="none" stroke="green" stroke-width="0.302972" d="M161.241,-68.2917C164.067,-67.2537 167.097,-66.303 170,-65.6985 337.917,-30.7291 776.4,-77.9254 941,-29.6985 942.062,-29.3874 943.127,-29.0204 944.185,-28.6101"/>
<polygon fill="green" stroke="green" stroke-width="0.302972" points="945.899,-31.667 953.3,-24.086 942.787,-25.3968 945.899,-31.667"/>
</g>
<!-- &#45;6&#45;&gt;2 -->
<g id="edge22" class="edge"><title>&#45;6&#45;&gt;2</title>
<path fill="none" stroke="green" stroke-width="0.125586" d="M161.255,-68.3556C164.08,-67.3143 167.107,-66.3461 170,-65.6985 292.735,-38.2266 691.866,-20.9245 795.977,-16.8041"/>
<polygon fill="green" stroke="green" stroke-width="0.125586" points="796.3,-20.2942 806.155,-16.4063 796.026,-13.2996 796.3,-20.2942"/>
</g>
<!-- &#45;7 -->
<g id="node7" class="node"><title>&#45;7</title>
<polygon fill="lightgray" stroke="black" points="654,-83.6985 630,-83.6985 630,-65.6985 654,-65.6985 654,-83.6985"/>
<text text-anchor="middle" x="642" y="-72.4985" font-family="Times New Roman,serif" font-size="9.00">&#45;7</text>
</g>
<!-- &#45;7&#45;&gt;0 -->
<g id="edge23" class="edge"><title>&#45;7&#45;&gt;0</title>
<path fill="none" stroke="green" stroke-width="0.198569" d="M654.32,-68.6088C657.141,-67.5544 660.15,-66.5168 663,-65.6985 742.253,-42.9406 767.81,-58.6938 845,-29.6985 845.867,-29.3728 846.739,-29.0179 847.611,-28.6398"/>
<polygon fill="green" stroke="green" stroke-width="0.198569" points="849.377,-31.6678 856.678,-23.9908 846.183,-25.4389 849.377,-31.6678"/>
</g>
<!-- &#45;7&#45;&gt;1 -->
<g id="edge24" class="edge"><title>&#45;7&#45;&gt;1</title>
<path fill="none" stroke="red" stroke-width="0.152816" d="M654.282,-68.4676C657.105,-67.4205 660.124,-66.4217 663,-65.6985 783.825,-35.3124 822.978,-69.6074 941,-29.6985 941.877,-29.4018 942.758,-29.0715 943.638,-28.7142"/>
<polygon fill="red" stroke="red" stroke-width="0.152816" points="945.361,-31.7656 952.739,-24.1621 942.23,-25.5049 945.361,-31.7656"/>
</g>
<!-- &#45;7&#45;&gt;2 -->
<g id="edge25" class="edge"><title>&#45;7&#45;&gt;2</title>
<path fill="none" stroke="green" stroke-width="0.528512" d="M654.393,-68.8401C657.211,-67.7736 660.2,-66.6727 663,-65.6985 710.144,-49.2972 765.977,-32.2251 797.055,-22.9286"/>
<polygon fill="green" stroke="green" stroke-width="0.528512" points="798.376,-26.1873 806.96,-19.9784 796.377,-19.4785 798.376,-26.1873"/>
</g>
<!-- &#45;7&#45;&gt;3 -->
<g id="edge26" class="edge"><title>&#45;7&#45;&gt;3</title>
<path fill="none" stroke="green" stroke-width="0.351578" d="M654.296,-68.524C657.119,-67.474 660.134,-66.4597 663,-65.6985 762.999,-39.1371 795.433,-64.1368 893,-29.6985 893.873,-29.3903 894.751,-29.0501 895.627,-28.6845"/>
<polygon fill="green" stroke="green" stroke-width="0.351578" points="897.368,-31.7265 904.716,-24.0936 894.212,-25.4784 897.368,-31.7265"/>
</g>
<!-- &#45;8 -->
<g id="node8" class="node"><title>&#45;8</title>
<polygon fill="lightgray" stroke="black" points="696,-83.6985 672,-83.6985 672,-65.6985 696,-65.6985 696,-83.6985"/>
<text text-anchor="middle" x="684" y="-72.4985" font-family="Times New Roman,serif" font-size="9.00">&#45;8</text>
</g>
<!-- &#45;8&#45;&gt;0 -->
<g id="edge27" class="edge"><title>&#45;8&#45;&gt;0</title>
<path fill="none" stroke="red" stroke-width="0.269749" stroke-dasharray="1,5" d="M696.033,-69.0883C699.25,-67.9203 702.74,-66.7109 706,-65.6985 766.945,-46.7726 785.937,-53.8661 845,-29.6985 845.857,-29.3478 846.721,-28.9715 847.586,-28.5755"/>
<polygon fill="red" stroke="red" stroke-width="0.269749" points="849.386,-31.5836 856.62,-23.8428 846.138,-25.3829 849.386,-31.5836"/>
</g>
<!-- &#45;8&#45;&gt;1 -->
<g id="edge28" class="edge"><title>&#45;8&#45;&gt;1</title>
<path fill="none" stroke="green" stroke-width="0.229395" d="M696.431,-68.6963C699.52,-67.5875 702.85,-66.5041 706,-65.6985 808.368,-39.5171 841.305,-64.7057 941,-29.6985 941.874,-29.3917 942.752,-29.0527 943.629,-28.6881"/>
<polygon fill="green" stroke="green" stroke-width="0.229395" points="945.367,-31.7313 952.719,-24.102 942.214,-25.4816 945.367,-31.7313"/>
</g>
<!-- &#45;8&#45;&gt;2 -->
<g id="edge29" class="edge"><title>&#45;8&#45;&gt;2</title>
<path fill="none" stroke="green" stroke-width="0.119308" d="M696.158,-68.5648C719.004,-58.9178 768.678,-37.9426 798.013,-25.5557"/>
<polygon fill="green" stroke="green" stroke-width="0.119308" points="799.613,-28.6795 807.463,-21.5652 796.89,-22.2309 799.613,-28.6795"/>
</g>
<!-- &#45;8&#45;&gt;3 -->
<g id="edge30" class="edge"><title>&#45;8&#45;&gt;3</title>
<path fill="none" stroke="green" stroke-width="0.330369" d="M696.454,-68.7813C699.542,-67.6699 702.866,-66.5641 706,-65.6985 787.583,-43.1656 813.693,-59.2588 893,-29.6985 893.868,-29.3751 894.741,-29.022 895.613,-28.6455"/>
<polygon fill="green" stroke="green" stroke-width="0.330369" points="897.376,-31.6753 904.683,-24.0039 894.187,-25.4439 897.376,-31.6753"/>
</g>
<!-- &#45;9 -->
<g id="node9" class="node"><title>&#45;9</title>
<polygon fill="lightgray" stroke="black" points="1773,-83.6985 1749,-83.6985 1749,-65.6985 1773,-65.6985 1773,-83.6985"/>
<text text-anchor="middle" x="1761" y="-72.4985" font-family="Times New Roman,serif" font-size="9.00">&#45;9</text>
</g>
<!-- &#45;9&#45;&gt;0 -->
<g id="edge31" class="edge"><title>&#45;9&#45;&gt;0</title>
<path fill="none" stroke="green" stroke-width="0.110756" d="M1748.76,-68.2827C1745.93,-67.2451 1742.9,-66.2969 1740,-65.6985 1555.48,-27.6749 1073.9,-82.2913 893,-29.6985 891.938,-29.3896 890.872,-29.0244 889.813,-28.6156"/>
<polygon fill="green" stroke="green" stroke-width="0.110756" points="891.211,-25.402 880.697,-24.097 888.102,-31.6739 891.211,-25.402"/>
</g>
<!-- &#45;9&#45;&gt;1 -->
<g id="edge32" class="edge"><title>&#45;9&#45;&gt;1</title>
<path fill="none" stroke="red" stroke-width="0.204265" stroke-dasharray="1,5" d="M1748.75,-68.3295C1745.93,-67.2895 1742.9,-66.3285 1740,-65.6985 1591.79,-33.4716 1105.47,-19.3869 989.833,-16.4477"/>
<polygon fill="red" stroke="red" stroke-width="0.204265" points="989.907,-12.9486 979.823,-16.1978 989.733,-19.9464 989.907,-12.9486"/>
</g>
<!-- &#45;9&#45;&gt;3 -->
<g id="edge33" class="edge"><title>&#45;9&#45;&gt;3</title>
<path fill="none" stroke="green" stroke-width="0.465378" d="M1748.76,-68.2882C1745.93,-67.2503 1742.9,-66.3006 1740,-65.6985 1565.97,-29.6039 1111.61,-79.5338 941,-29.6985 939.938,-29.3882 938.873,-29.022 937.814,-28.6122"/>
<polygon fill="green" stroke="green" stroke-width="0.465378" points="939.212,-25.3988 928.699,-24.0903 936.102,-31.6697 939.212,-25.3988"/>
</g>
<!-- &#45;10 -->
<g id="node10" class="node"><title>&#45;10</title>
<polygon fill="lightgray" stroke="black" points="71.5,-83.6985 42.5,-83.6985 42.5,-65.6985 71.5,-65.6985 71.5,-83.6985"/>
<text text-anchor="middle" x="57" y="-72.4985" font-family="Times New Roman,serif" font-size="9.00">&#45;10</text>
</g>
<!-- &#45;10&#45;&gt;0 -->
<g id="edge34" class="edge"><title>&#45;10&#45;&gt;0</title>
<path fill="none" stroke="green" stroke-width="0.513336" d="M71.9233,-67.8147C74.5776,-66.9685 77.3434,-66.2118 80,-65.6985 247.097,-33.4098 681.687,-77.5807 845,-29.6985 846.062,-29.3872 847.126,-29.02 848.185,-28.6096"/>
<polygon fill="green" stroke="green" stroke-width="0.513336" points="849.899,-31.6664 857.3,-24.0851 846.787,-25.3963 849.899,-31.6664"/>
</g>
<!-- &#45;10&#45;&gt;2 -->
<g id="edge35" class="edge"><title>&#45;10&#45;&gt;2</title>
<path fill="none" stroke="red" stroke-width="0.241475" stroke-dasharray="1,5" d="M71.9322,-67.8599C74.5856,-67.0086 77.3487,-66.2386 80,-65.6985 221.528,-36.8687 682.867,-20.3206 795.853,-16.6381"/>
<polygon fill="red" stroke="red" stroke-width="0.241475" points="796.074,-20.1329 805.957,-16.313 795.849,-13.1365 796.074,-20.1329"/>
</g>
<!-- &#45;10&#45;&gt;3 -->
<g id="edge36" class="edge"><title>&#45;10&#45;&gt;3</title>
<path fill="none" stroke="red" stroke-width="0.205965" stroke-dasharray="1,5" d="M71.9221,-67.8085C74.5766,-66.963 77.3427,-66.2081 80,-65.6985 257.607,-31.6344 719.391,-80.338 893,-29.6985 894.062,-29.3887 895.127,-29.0227 896.186,-28.6132"/>
<polygon fill="red" stroke="red" stroke-width="0.205965" points="897.898,-31.6709 905.302,-24.0923 894.788,-25.3998 897.898,-31.6709"/>
</g>
<!-- &#45;11 -->
<g id="node11" class="node"><title>&#45;11</title>
<polygon fill="lightgray" stroke="black" points="743.5,-83.6985 714.5,-83.6985 714.5,-65.6985 743.5,-65.6985 743.5,-83.6985"/>
<text text-anchor="middle" x="729" y="-72.4985" font-family="Times New Roman,serif" font-size="9.00">&#45;11</text>
</g>
<!-- &#45;11&#45;&gt;0 -->
<g id="edge37" class="edge"><title>&#45;11&#45;&gt;0</title>
<path fill="none" stroke="red" stroke-width="0.164684" d="M743.622,-68.4852C770.409,-58.8798 826.318,-38.5611 845,-29.6985 845.837,-29.3016 846.683,-28.886 847.533,-28.4569"/>
<polygon fill="red" stroke="red" stroke-width="0.164684" points="849.394,-31.4288 856.5,-23.5698 846.044,-25.2825 849.394,-31.4288"/>
</g>
<!-- &#45;11&#45;&gt;1 -->
<g id="edge38" class="edge"><title>&#45;11&#45;&gt;1</title>
<path fill="none" stroke="red" stroke-width="0.201517" d="M743.631,-68.4794C746.703,-67.48 749.94,-66.4976 753,-65.6985 835.312,-44.2 861.269,-59.3719 941,-29.6985 941.868,-29.3755 942.741,-29.0227 943.614,-28.6466"/>
<polygon fill="red" stroke="red" stroke-width="0.201517" points="945.375,-31.6767 952.684,-24.0064 942.187,-25.4448 945.375,-31.6767"/>
</g>
<!-- &#45;11&#45;&gt;2 -->
<g id="edge39" class="edge"><title>&#45;11&#45;&gt;2</title>
<path fill="none" stroke="green" stroke-width="0.211899" d="M741.792,-65.6548C756.844,-56.1902 782.053,-40.3388 799.987,-29.0619"/>
<polygon fill="green" stroke="green" stroke-width="0.211899" points="802.008,-31.9258 808.61,-23.6398 798.282,-26 802.008,-31.9258"/>
</g>
<!-- &#45;11&#45;&gt;3 -->
<g id="edge40" class="edge"><title>&#45;11&#45;&gt;3</title>
<path fill="none" stroke="red" stroke-width="0.332723" d="M743.672,-68.627C746.741,-67.6169 749.967,-66.5928 753,-65.6985 814.624,-47.5291 833.518,-53.9775 893,-29.6985 893.857,-29.3485 894.722,-28.9729 895.587,-28.5774"/>
<polygon fill="red" stroke="red" stroke-width="0.332723" points="897.386,-31.5861 904.622,-23.8472 894.139,-25.3845 897.386,-31.5861"/>
</g>
<!-- &#45;12 -->
<g id="node12" class="node"><title>&#45;12</title>
<polygon fill="lightgray" stroke="black" points="790.5,-83.6985 761.5,-83.6985 761.5,-65.6985 790.5,-65.6985 790.5,-83.6985"/>
<text text-anchor="middle" x="776" y="-72.4985" font-family="Times New Roman,serif" font-size="9.00">&#45;12</text>
</g>
<!-- &#45;12&#45;&gt;0 -->
<g id="edge41" class="edge"><title>&#45;12&#45;&gt;0</title>
<path fill="none" stroke="green" stroke-width="0.621912" d="M788.931,-65.6548C804.232,-56.1374 829.915,-40.1615 848.062,-28.8733"/>
<polygon fill="green" stroke="green" stroke-width="0.621912" points="850.128,-31.7105 856.77,-23.4566 846.43,-25.7666 850.128,-31.7105"/>
</g>
<!-- &#45;12&#45;&gt;1 -->
<g id="edge42" class="edge"><title>&#45;12&#45;&gt;1</title>
<path fill="none" stroke="green" stroke-width="0.155941" d="M790.671,-68.623C793.74,-67.6131 796.966,-66.5902 800,-65.6985 862.052,-47.4604 881.098,-54.089 941,-29.6985 941.858,-29.3493 942.722,-28.9742 943.587,-28.5793"/>
<polygon fill="green" stroke="green" stroke-width="0.155941" points="945.386,-31.5885 952.624,-23.8515 942.141,-25.3861 945.386,-31.5885"/>
</g>
<!-- &#45;12&#45;&gt;2 -->
<g id="edge43" class="edge"><title>&#45;12&#45;&gt;2</title>
<path fill="none" stroke="red" stroke-width="0.122229" d="M782.257,-65.6548C788.37,-57.7964 797.908,-45.5348 805.99,-35.1446"/>
<polygon fill="red" stroke="red" stroke-width="0.122229" points="808.953,-37.0367 812.33,-26.9946 803.428,-32.7387 808.953,-37.0367"/>
</g>
<!-- &#45;12&#45;&gt;3 -->
<g id="edge44" class="edge"><title>&#45;12&#45;&gt;3</title>
<path fill="none" stroke="red" stroke-width="0.388426" d="M790.75,-68.4928C817.77,-58.8999 874.165,-38.6013 893,-29.6985 893.837,-29.3028 894.684,-28.8882 895.535,-28.46"/>
<polygon fill="red" stroke="red" stroke-width="0.388426" points="897.394,-31.4328 904.503,-23.5768 894.047,-25.2851 897.394,-31.4328"/>
</g>
<!-- &#45;13 -->
<g id="node13" class="node"><title>&#45;13</title>
<polygon fill="lightgray" stroke="black" points="837.5,-83.6985 808.5,-83.6985 808.5,-65.6985 837.5,-65.6985 837.5,-83.6985"/>
<text text-anchor="middle" x="823" y="-72.4985" font-family="Times New Roman,serif" font-size="9.00">&#45;13</text>
</g>
<!-- &#45;13&#45;&gt;0 -->
<g id="edge45" class="edge"><title>&#45;13&#45;&gt;0</title>
<path fill="none" stroke="green" stroke-width="0.148114" d="M829.396,-65.6548C835.707,-57.7178 845.59,-45.2891 853.904,-34.8334"/>
<polygon fill="green" stroke="green" stroke-width="0.148114" points="856.653,-37.0001 860.138,-26.9946 851.174,-32.6433 856.653,-37.0001"/>
</g>
<!-- &#45;13&#45;&gt;1 -->
<g id="edge46" class="edge"><title>&#45;13&#45;&gt;1</title>
<path fill="none" stroke="red" stroke-width="0.142321" d="M837.877,-68.5003C865.131,-58.92 922.011,-38.6414 941,-29.6985 941.838,-29.3039 942.685,-28.8904 943.536,-28.463"/>
<polygon fill="red" stroke="red" stroke-width="0.142321" points="945.394,-31.4367 952.506,-23.5837 942.049,-25.2876 945.394,-31.4367"/>
</g>
<!-- &#45;13&#45;&gt;2 -->
<g id="edge47" class="edge"><title>&#45;13&#45;&gt;2</title>
<path fill="none" stroke="green" stroke-width="0.166635" d="M822.722,-65.6548C822.494,-59.0498 822.158,-49.3344 821.843,-40.2339"/>
<polygon fill="green" stroke="green" stroke-width="0.166635" points="825.335,-39.9294 821.491,-30.0563 818.339,-40.1713 825.335,-39.9294"/>
</g>
<!-- &#45;13&#45;&gt;3 -->
<g id="edge48" class="edge"><title>&#45;13&#45;&gt;3</title>
<path fill="none" stroke="green" stroke-width="0.591619" stroke-dasharray="1,5" d="M836.07,-65.6548C851.606,-56.0937 877.733,-40.0148 896.089,-28.7182"/>
<polygon fill="green" stroke="green" stroke-width="0.591619" points="897.957,-31.6786 904.639,-23.4566 894.288,-25.7171 897.957,-31.6786"/>
</g>
<!-- &#45;14 -->
<g id="node14" class="node"><title>&#45;14</title>
<polygon fill="lightgray" stroke="black" points="884.5,-83.6985 855.5,-83.6985 855.5,-65.6985 884.5,-65.6985 884.5,-83.6985"/>
<text text-anchor="middle" x="870" y="-72.4985" font-family="Times New Roman,serif" font-size="9.00">&#45;14</text>
</g>
<!-- &#45;14&#45;&gt;0 -->
<g id="edge49" class="edge"><title>&#45;14&#45;&gt;0</title>
<path fill="none" stroke="red" stroke-width="0.135457" d="M869.861,-65.6548C869.747,-59.0498 869.579,-49.3344 869.422,-40.2339"/>
<polygon fill="red" stroke="red" stroke-width="0.135457" points="872.918,-39.9943 869.246,-30.0563 865.919,-40.1153 872.918,-39.9943"/>
</g>
<!-- &#45;14&#45;&gt;1 -->
<g id="edge50" class="edge"><title>&#45;14&#45;&gt;1</title>
<path fill="none" stroke="green" stroke-width="0.232593" d="M883.209,-65.6548C898.911,-56.0937 925.315,-40.0148 943.867,-28.7182"/>
<polygon fill="green" stroke="green" stroke-width="0.232593" points="945.786,-31.647 952.507,-23.4566 942.146,-25.6683 945.786,-31.647"/>
</g>
<!-- &#45;14&#45;&gt;2 -->
<g id="edge51" class="edge"><title>&#45;14&#45;&gt;2</title>
<path fill="none" stroke="red" stroke-width="0.267747" d="M863.187,-65.6548C856.464,-57.7178 845.936,-45.2891 837.08,-34.8334"/>
<polygon fill="red" stroke="red" stroke-width="0.267747" points="839.574,-32.363 830.44,-26.9946 834.233,-36.8874 839.574,-32.363"/>
</g>
<!-- &#45;14&#45;&gt;3 -->
<g id="edge52" class="edge"><title>&#45;14&#45;&gt;3</title>
<path fill="none" stroke="red" stroke-width="0.429939" d="M876.535,-65.6548C882.984,-57.7178 893.081,-45.2891 901.576,-34.8334"/>
<polygon fill="red" stroke="red" stroke-width="0.429939" points="904.356,-36.9629 907.945,-26.9946 898.923,-32.5489 904.356,-36.9629"/>
</g>
<!-- &#45;15 -->
<g id="node15" class="node"><title>&#45;15</title>
<polygon fill="lightgray" stroke="black" points="118.5,-83.6985 89.5,-83.6985 89.5,-65.6985 118.5,-65.6985 118.5,-83.6985"/>
<text text-anchor="middle" x="104" y="-72.4985" font-family="Times New Roman,serif" font-size="9.00">&#45;15</text>
</g>
<!-- &#45;15&#45;&gt;0 -->
<g id="edge53" class="edge"><title>&#45;15&#45;&gt;0</title>
<path fill="none" stroke="green" stroke-width="0.223735" d="M118.556,-68.1471C121.634,-67.1718 124.892,-66.2832 128,-65.6985 284.784,-36.2024 691.981,-74.8237 845,-29.6985 846.061,-29.3855 847.126,-29.017 848.184,-28.6054"/>
<polygon fill="green" stroke="green" stroke-width="0.223735" points="849.9,-31.6612 857.297,-24.0769 846.785,-25.3924 849.9,-31.6612"/>
</g>
<!-- &#45;15&#45;&gt;2 -->
<g id="edge54" class="edge"><title>&#45;15&#45;&gt;2</title>
<path fill="none" stroke="red" stroke-width="0.515906" d="M118.566,-68.1992C121.644,-67.2201 124.899,-66.3167 128,-65.6985 384.643,-14.5342 704.005,-14.2882 795.461,-15.4036"/>
<polygon fill="red" stroke="red" stroke-width="0.515906" points="795.646,-18.9065 805.694,-15.5467 795.744,-11.9071 795.646,-18.9065"/>
</g>
<!-- &#45;15&#45;&gt;3 -->
<g id="edge55" class="edge"><title>&#45;15&#45;&gt;3</title>
<path fill="none" stroke="red" stroke-width="0.430427" d="M118.555,-68.1395C121.633,-67.1647 124.891,-66.2783 128,-65.6985 295.303,-34.4955 729.687,-77.5807 893,-29.6985 894.062,-29.3872 895.126,-29.02 896.185,-28.6096"/>
<polygon fill="red" stroke="red" stroke-width="0.430427" points="897.899,-31.6664 905.3,-24.0851 894.787,-25.3963 897.899,-31.6664"/>
</g>
<!-- &#45;16 -->
<g id="node16" class="node"><title>&#45;16</title>
<polygon fill="lightgray" stroke="black" points="931.5,-83.6985 902.5,-83.6985 902.5,-65.6985 931.5,-65.6985 931.5,-83.6985"/>
<text text-anchor="middle" x="917" y="-72.4985" font-family="Times New Roman,serif" font-size="9.00">&#45;16</text>
</g>
<!-- &#45;16&#45;&gt;0 -->
<g id="edge56" class="edge"><title>&#45;16&#45;&gt;0</title>
<path fill="none" stroke="red" stroke-width="0.283425" d="M910.326,-65.6548C903.74,-57.7178 893.428,-45.2891 884.752,-34.8334"/>
<polygon fill="red" stroke="red" stroke-width="0.283425" points="887.327,-32.4555 878.248,-26.9946 881.94,-36.9253 887.327,-32.4555"/>
</g>
<!-- &#45;16&#45;&gt;1 -->
<g id="edge57" class="edge"><title>&#45;16&#45;&gt;1</title>
<path fill="none" stroke="green" stroke-width="0.298654" d="M923.674,-65.6548C930.26,-57.7178 940.572,-45.2891 949.248,-34.8334"/>
<polygon fill="green" stroke="green" stroke-width="0.298654" points="952.06,-36.9253 955.752,-26.9946 946.673,-32.4555 952.06,-36.9253"/>
</g>
<!-- &#45;16&#45;&gt;2 -->
<g id="edge58" class="edge"><title>&#45;16&#45;&gt;2</title>
<path fill="none" stroke="red" stroke-width="0.392169" d="M903.652,-65.6548C887.697,-56.0406 860.806,-39.8359 842.044,-28.5304"/>
<polygon fill="red" stroke="red" stroke-width="0.392169" points="843.695,-25.4387 833.323,-23.2752 840.082,-31.4343 843.695,-25.4387"/>
</g>
<!-- &#45;16&#45;&gt;3 -->
<g id="edge59" class="edge"><title>&#45;16&#45;&gt;3</title>
<path fill="none" stroke="red" stroke-width="0.381274" d="M917,-65.6548C917,-59.0498 917,-49.3344 917,-40.2339"/>
<polygon fill="red" stroke="red" stroke-width="0.381274" points="920.5,-40.0563 917,-30.0563 913.5,-40.0564 920.5,-40.0563"/>
</g>
<!-- &#45;17 -->
<g id="node17" class="node"><title>&#45;17</title>
<polygon fill="lightgray" stroke="black" points="978.5,-83.6985 949.5,-83.6985 949.5,-65.6985 978.5,-65.6985 978.5,-83.6985"/>
<text text-anchor="middle" x="964" y="-72.4985" font-family="Times New Roman,serif" font-size="9.00">&#45;17</text>
</g>
<!-- &#45;17&#45;&gt;0 -->
<g id="edge60" class="edge"><title>&#45;17&#45;&gt;0</title>
<path fill="none" stroke="red" stroke-width="0.190349" d="M950.791,-65.6548C935.089,-56.0937 908.685,-40.0148 890.133,-28.7182"/>
<polygon fill="red" stroke="red" stroke-width="0.190349" points="891.854,-25.6683 881.493,-23.4566 888.214,-31.647 891.854,-25.6683"/>
</g>
<!-- &#45;17&#45;&gt;1 -->
<g id="edge61" class="edge"><title>&#45;17&#45;&gt;1</title>
<path fill="none" stroke="green" stroke-width="0.131186" d="M964.139,-65.6548C964.253,-59.0498 964.421,-49.3344 964.578,-40.2339"/>
<polygon fill="green" stroke="green" stroke-width="0.131186" points="968.081,-40.1153 964.754,-30.0563 961.082,-39.9943 968.081,-40.1153"/>
</g>
<!-- &#45;17&#45;&gt;2 -->
<g id="edge62" class="edge"><title>&#45;17&#45;&gt;2</title>
<path fill="none" stroke="green" stroke-width="0.38931" d="M949.064,-68.3361C919.336,-57.6398 854.771,-34.2836 845,-29.6985 844.162,-29.3051 843.314,-28.8925 842.462,-28.4659"/>
<polygon fill="green" stroke="green" stroke-width="0.38931" points="843.948,-25.29 833.491,-23.5906 840.606,-31.4406 843.948,-25.29"/>
</g>
<!-- &#45;17&#45;&gt;3 -->
<g id="edge63" class="edge"><title>&#45;17&#45;&gt;3</title>
<path fill="none" stroke="red" stroke-width="0.597306" d="M957.465,-65.6548C951.016,-57.7178 940.919,-45.2891 932.424,-34.8334"/>
<polygon fill="red" stroke="red" stroke-width="0.597306" points="935.077,-32.5489 926.055,-26.9946 929.644,-36.9629 935.077,-32.5489"/>
</g>
<!-- &#45;18 -->
<g id="node18" class="node"><title>&#45;18</title>
<polygon fill="lightgray" stroke="black" points="1025.5,-83.6985 996.5,-83.6985 996.5,-65.6985 1025.5,-65.6985 1025.5,-83.6985"/>
<text text-anchor="middle" x="1011" y="-72.4985" font-family="Times New Roman,serif" font-size="9.00">&#45;18</text>
</g>
<!-- &#45;18&#45;&gt;0 -->
<g id="edge64" class="edge"><title>&#45;18&#45;&gt;0</title>
<path fill="none" stroke="green" stroke-width="0.313348" d="M996.123,-68.5003C968.869,-58.92 911.989,-38.6414 893,-29.6985 892.162,-29.3039 891.315,-28.8904 890.464,-28.463"/>
<polygon fill="green" stroke="green" stroke-width="0.313348" points="891.951,-25.2876 881.494,-23.5837 888.606,-31.4367 891.951,-25.2876"/>
</g>
<!-- &#45;18&#45;&gt;1 -->
<g id="edge65" class="edge"><title>&#45;18&#45;&gt;1</title>
<path fill="none" stroke="red" stroke-width="0.205171" d="M1004.6,-65.6548C998.293,-57.7178 988.41,-45.2891 980.096,-34.8334"/>
<polygon fill="red" stroke="red" stroke-width="0.205171" points="982.826,-32.6433 973.862,-26.9946 977.347,-37.0001 982.826,-32.6433"/>
</g>
<!-- &#45;18&#45;&gt;2 -->
<g id="edge66" class="edge"><title>&#45;18&#45;&gt;2</title>
<path fill="none" stroke="red" stroke-width="0.45477" d="M996.462,-68.425C993.668,-67.4731 990.754,-66.5224 988,-65.6985 925.211,-46.9149 905.741,-54.3121 845,-29.6985 844.142,-29.3507 843.277,-28.9769 842.411,-28.583"/>
<polygon fill="red" stroke="red" stroke-width="0.45477" points="843.857,-25.3893 833.373,-23.86 840.615,-31.5934 843.857,-25.3893"/>
</g>
<!-- &#45;18&#45;&gt;3 -->
<g id="edge67" class="edge"><title>&#45;18&#45;&gt;3</title>
<path fill="none" stroke="red" stroke-width="0.121141" d="M997.93,-65.6548C982.394,-56.0937 956.267,-40.0148 937.911,-28.7182"/>
<polygon fill="red" stroke="red" stroke-width="0.121141" points="939.712,-25.7171 929.361,-23.4566 936.043,-31.6786 939.712,-25.7171"/>
</g>
<!-- &#45;19 -->
<g id="node19" class="node"><title>&#45;19</title>
<polygon fill="lightgray" stroke="black" points="1072.5,-83.6985 1043.5,-83.6985 1043.5,-65.6985 1072.5,-65.6985 1072.5,-83.6985"/>
<text text-anchor="middle" x="1058" y="-72.4985" font-family="Times New Roman,serif" font-size="9.00">&#45;19</text>
</g>
<!-- &#45;19&#45;&gt;0 -->
<g id="edge68" class="edge"><title>&#45;19&#45;&gt;0</title>
<path fill="none" stroke="red" stroke-width="0.593346" d="M1043.46,-68.4288C1040.67,-67.4765 1037.75,-66.5247 1035,-65.6985 972.639,-46.9864 953.321,-54.2005 893,-29.6985 892.142,-29.35 891.277,-28.9756 890.412,-28.5812"/>
<polygon fill="red" stroke="red" stroke-width="0.593346" points="891.858,-25.3877 881.375,-23.8558 888.615,-31.591 891.858,-25.3877"/>
</g>
<!-- &#45;19&#45;&gt;1 -->
<g id="edge69" class="edge"><title>&#45;19&#45;&gt;1</title>
<path fill="none" stroke="green" stroke-width="0.284055" d="M1045.07,-65.6548C1029.77,-56.1374 1004.09,-40.1615 985.938,-28.8733"/>
<polygon fill="green" stroke="green" stroke-width="0.284055" points="987.57,-25.7666 977.23,-23.4566 983.872,-31.7105 987.57,-25.7666"/>
</g>
<!-- &#45;19&#45;&gt;2 -->
<g id="edge70" class="edge"><title>&#45;19&#45;&gt;2</title>
<path fill="none" stroke="green" stroke-width="0.346258" d="M1043.01,-68.1267C1040.36,-67.2458 1037.61,-66.3967 1035,-65.6985 951.964,-43.5206 925.578,-59.5981 845,-29.6985 844.132,-29.3763 843.258,-29.0243 842.386,-28.6487"/>
<polygon fill="green" stroke="green" stroke-width="0.346258" points="843.811,-25.4467 833.314,-24.0114 840.625,-31.6796 843.811,-25.4467"/>
</g>
<!-- &#45;19&#45;&gt;3 -->
<g id="edge71" class="edge"><title>&#45;19&#45;&gt;3</title>
<path fill="none" stroke="green" stroke-width="0.254129" d="M1043.25,-68.4928C1016.23,-58.8999 959.835,-38.6013 941,-29.6985 940.163,-29.3028 939.316,-28.8882 938.465,-28.46"/>
<polygon fill="green" stroke="green" stroke-width="0.254129" points="939.953,-25.2851 929.497,-23.5768 936.606,-31.4328 939.953,-25.2851"/>
</g>
<!-- &#45;20 -->
<g id="node20" class="node"><title>&#45;20</title>
<polygon fill="lightgray" stroke="black" points="1119.5,-83.6985 1090.5,-83.6985 1090.5,-65.6985 1119.5,-65.6985 1119.5,-83.6985"/>
<text text-anchor="middle" x="1105" y="-72.4985" font-family="Times New Roman,serif" font-size="9.00">&#45;20</text>
</g>
<!-- &#45;20&#45;&gt;0 -->
<g id="edge72" class="edge"><title>&#45;20&#45;&gt;0</title>
<path fill="none" stroke="red" stroke-width="0.472093" d="M1090.5,-68.2944C1087.7,-67.3545 1084.78,-66.4417 1082,-65.6985 999.396,-43.5933 973.155,-59.485 893,-29.6985 892.132,-29.3759 891.259,-29.0235 890.386,-28.6477"/>
<polygon fill="red" stroke="red" stroke-width="0.472093" points="891.812,-25.4458 881.315,-24.0089 888.625,-31.6781 891.812,-25.4458"/>
</g>
<!-- &#45;20&#45;&gt;1 -->
<g id="edge73" class="edge"><title>&#45;20&#45;&gt;1</title>
<path fill="none" stroke="red" stroke-width="0.107446" d="M1090.28,-67.6169C1065.92,-57.5486 1017.01,-37.3418 988.038,-25.3687"/>
<polygon fill="red" stroke="red" stroke-width="0.107446" points="989.271,-22.0914 978.693,-21.5072 986.598,-28.5609 989.271,-22.0914"/>
</g>
<!-- &#45;20&#45;&gt;2 -->
<g id="edge74" class="edge"><title>&#45;20&#45;&gt;2</title>
<path fill="none" stroke="green" stroke-width="0.138354" d="M1090.03,-68.046C1087.38,-67.174 1084.63,-66.3488 1082,-65.6985 978.582,-40.0896 945.547,-64.9333 845,-29.6985 844.126,-29.3922 843.248,-29.0537 842.371,-28.6895"/>
<polygon fill="green" stroke="green" stroke-width="0.138354" points="843.785,-25.4829 833.28,-24.1053 840.633,-31.7331 843.785,-25.4829"/>
</g>
<!-- &#45;20&#45;&gt;3 -->
<g id="edge75" class="edge"><title>&#45;20&#45;&gt;3</title>
<path fill="none" stroke="green" stroke-width="0.11875" d="M1090.46,-68.4325C1087.67,-67.4799 1084.75,-66.527 1082,-65.6985 1020.07,-47.0579 1000.9,-54.089 941,-29.6985 940.142,-29.3493 939.278,-28.9742 938.413,-28.5793"/>
<polygon fill="green" stroke="green" stroke-width="0.11875" points="939.859,-25.3861 929.376,-23.8515 936.614,-31.5885 939.859,-25.3861"/>
</g>
<!-- &#45;21 -->
<g id="node21" class="node"><title>&#45;21</title>
<polygon fill="lightgray" stroke="black" points="1166.5,-83.6985 1137.5,-83.6985 1137.5,-65.6985 1166.5,-65.6985 1166.5,-83.6985"/>
<text text-anchor="middle" x="1152" y="-72.4985" font-family="Times New Roman,serif" font-size="9.00">&#45;21</text>
</g>
<!-- &#45;21&#45;&gt;0 -->
<g id="edge76" class="edge"><title>&#45;21&#45;&gt;0</title>
<path fill="none" stroke="green" stroke-width="0.385551" d="M1137.03,-68.0474C1134.38,-67.1753 1131.63,-66.3497 1129,-65.6985 1026.02,-40.1629 993.121,-64.8195 893,-29.6985 892.126,-29.392 891.248,-29.0532 890.371,-28.6888"/>
<polygon fill="green" stroke="green" stroke-width="0.385551" points="891.786,-25.4822 881.281,-24.1037 888.633,-31.7322 891.786,-25.4822"/>
</g>
<!-- &#45;21&#45;&gt;1 -->
<g id="edge77" class="edge"><title>&#45;21&#45;&gt;1</title>
<path fill="none" stroke="red" stroke-width="0.291032" d="M1137.43,-68.5326C1134.64,-67.5708 1131.73,-66.5889 1129,-65.6985 1079.43,-49.5505 1020.9,-32.1579 988.887,-22.787"/>
<polygon fill="red" stroke="red" stroke-width="0.291032" points="989.679,-19.3722 979.099,-19.9299 987.718,-26.0918 989.679,-19.3722"/>
</g>
<!-- &#45;21&#45;&gt;2 -->
<g id="edge78" class="edge"><title>&#45;21&#45;&gt;2</title>
<path fill="none" stroke="red" stroke-width="0.452501" d="M1137.04,-67.9912C1134.39,-67.1254 1131.63,-66.3164 1129,-65.6985 1005.13,-36.6413 965.583,-70.2925 845,-29.6985 844.122,-29.403 843.241,-29.0737 842.361,-28.7173"/>
<polygon fill="red" stroke="red" stroke-width="0.452501" points="843.768,-25.5076 833.258,-24.1691 840.64,-31.7696 843.768,-25.5076"/>
</g>
<!-- &#45;21&#45;&gt;3 -->
<g id="edge79" class="edge"><title>&#45;21&#45;&gt;3</title>
<path fill="none" stroke="green" stroke-width="0.491666" d="M1137.5,-68.2966C1134.7,-67.3565 1131.78,-66.443 1129,-65.6985 1046.83,-43.6659 1020.73,-59.3719 941,-29.6985 940.132,-29.3755 939.259,-29.0227 938.386,-28.6466"/>
<polygon fill="green" stroke="green" stroke-width="0.491666" points="939.813,-25.4448 929.316,-24.0064 936.625,-31.6767 939.813,-25.4448"/>
</g>
<!-- &#45;22 -->
<g id="node22" class="node"><title>&#45;22</title>
<polygon fill="lightgray" stroke="black" points="1213.5,-83.6985 1184.5,-83.6985 1184.5,-65.6985 1213.5,-65.6985 1213.5,-83.6985"/>
<text text-anchor="middle" x="1199" y="-72.4985" font-family="Times New Roman,serif" font-size="9.00">&#45;22</text>
</g>
<!-- &#45;22&#45;&gt;0 -->
<g id="edge80" class="edge"><title>&#45;22&#45;&gt;0</title>
<path fill="none" stroke="green" stroke-width="0.507269" d="M1184.04,-67.9922C1181.39,-67.1263 1178.63,-66.317 1176,-65.6985 1052.57,-36.7148 1013.16,-70.1783 893,-29.6985 892.122,-29.4028 891.241,-29.0733 890.362,-28.7168"/>
<polygon fill="green" stroke="green" stroke-width="0.507269" points="891.769,-25.5072 881.259,-24.1679 888.639,-31.7689 891.769,-25.5072"/>
</g>
<!-- &#45;22&#45;&gt;3 -->
<g id="edge81" class="edge"><title>&#45;22&#45;&gt;3</title>
<path fill="none" stroke="green" stroke-width="0.170777" d="M1184.03,-68.0488C1181.38,-67.1765 1178.63,-66.3505 1176,-65.6985 1073.45,-40.2361 1040.7,-64.7057 941,-29.6985 940.126,-29.3917 939.248,-29.0527 938.371,-28.6881"/>
<polygon fill="green" stroke="green" stroke-width="0.170777" points="939.786,-25.4816 929.281,-24.102 936.633,-31.7313 939.786,-25.4816"/>
</g>
<!-- &#45;23 -->
<g id="node23" class="node"><title>&#45;23</title>
<polygon fill="lightgray" stroke="black" points="1260.5,-83.6985 1231.5,-83.6985 1231.5,-65.6985 1260.5,-65.6985 1260.5,-83.6985"/>
<text text-anchor="middle" x="1246" y="-72.4985" font-family="Times New Roman,serif" font-size="9.00">&#45;23</text>
</g>
<!-- &#45;23&#45;&gt;0 -->
<g id="edge82" class="edge"><title>&#45;23&#45;&gt;0</title>
<path fill="none" stroke="green" stroke-width="0.290052" d="M1231.05,-67.9525C1228.4,-67.0909 1225.64,-66.2934 1223,-65.6985 1079.07,-33.257 1033.23,-75.5506 893,-29.6985 892.12,-29.4107 891.236,-29.0879 890.355,-28.7369"/>
<polygon fill="green" stroke="green" stroke-width="0.290052" points="891.757,-25.5253 881.243,-24.2143 888.644,-31.7954 891.757,-25.5253"/>
</g>
<!-- &#45;23&#45;&gt;1 -->
<g id="edge83" class="edge"><title>&#45;23&#45;&gt;1</title>
<path fill="none" stroke="green" stroke-width="0.347679" d="M1231.5,-68.3003C1228.7,-67.3599 1225.78,-66.4453 1223,-65.6985 1138.58,-42.9868 1035.97,-26.344 989.716,-19.411"/>
<polygon fill="green" stroke="green" stroke-width="0.347679" points="990.12,-15.9328 979.715,-17.9327 989.096,-22.8575 990.12,-15.9328"/>
</g>
<!-- &#45;23&#45;&gt;2 -->
<g id="edge84" class="edge"><title>&#45;23&#45;&gt;2</title>
<path fill="none" stroke="red" stroke-width="0.5238" stroke-dasharray="1,5" d="M1231.05,-67.9219C1228.4,-67.0638 1225.64,-66.2753 1223,-65.6985 1058.12,-29.7196 1005.76,-81.0457 845,-29.6985 843.946,-29.3618 842.888,-28.9739 841.834,-28.5466"/>
<polygon fill="red" stroke="red" stroke-width="0.5238" points="843.243,-25.3373 832.738,-23.9602 840.092,-31.5877 843.243,-25.3373"/>
</g>
<!-- &#45;23&#45;&gt;3 -->
<g id="edge85" class="edge"><title>&#45;23&#45;&gt;3</title>
<path fill="none" stroke="green" stroke-width="0.554491" d="M1231.04,-67.9932C1228.39,-67.1271 1225.63,-66.3176 1223,-65.6985 1100,-36.7883 1060.73,-70.0641 941,-29.6985 940.122,-29.4026 939.241,-29.073 938.362,-28.7163"/>
<polygon fill="green" stroke="green" stroke-width="0.554491" points="939.769,-25.5067 929.259,-24.1668 936.639,-31.7682 939.769,-25.5067"/>
</g>
<!-- &#45;24 -->
<g id="node24" class="node"><title>&#45;24</title>
<polygon fill="lightgray" stroke="black" points="1307.5,-83.6985 1278.5,-83.6985 1278.5,-65.6985 1307.5,-65.6985 1307.5,-83.6985"/>
<text text-anchor="middle" x="1293" y="-72.4985" font-family="Times New Roman,serif" font-size="9.00">&#45;24</text>
</g>
<!-- &#45;24&#45;&gt;0 -->
<g id="edge86" class="edge"><title>&#45;24&#45;&gt;0</title>
<path fill="none" stroke="green" stroke-width="0.13847" d="M1278.05,-67.9225C1275.4,-67.0643 1272.64,-66.2757 1270,-65.6985 1105.56,-29.7934 1053.33,-80.9312 893,-29.6985 891.946,-29.3617 890.888,-28.9736 889.834,-28.5463"/>
<polygon fill="green" stroke="green" stroke-width="0.13847" points="891.243,-25.337 880.739,-23.9596 888.092,-31.5873 891.243,-25.337"/>
</g>
<!-- &#45;24&#45;&gt;1 -->
<g id="edge87" class="edge"><title>&#45;24&#45;&gt;1</title>
<path fill="none" stroke="red" stroke-width="0.129492" d="M1278.02,-68.0709C1275.37,-67.1962 1272.62,-66.3636 1270,-65.6985 1167.55,-39.7166 1042.18,-24.2039 989.817,-18.4328"/>
<polygon fill="red" stroke="red" stroke-width="0.129492" points="990.105,-14.9436 979.787,-17.3489 989.353,-21.9031 990.105,-14.9436"/>
</g>
<!-- &#45;24&#45;&gt;2 -->
<g id="edge88" class="edge"><title>&#45;24&#45;&gt;2</title>
<path fill="none" stroke="red" stroke-width="0.278904" stroke-dasharray="1,5" d="M1278.06,-67.8986C1275.41,-67.043 1272.65,-66.2615 1270,-65.6985 1084.58,-26.2521 1025.88,-86.4319 845,-29.6985 843.944,-29.3673 842.885,-28.9839 841.83,-28.5603"/>
<polygon fill="red" stroke="red" stroke-width="0.278904" points="843.237,-25.3501 832.73,-23.9874 840.094,-31.6048 843.237,-25.3501"/>
</g>
<!-- &#45;24&#45;&gt;3 -->
<g id="edge89" class="edge"><title>&#45;24&#45;&gt;3</title>
<path fill="none" stroke="green" stroke-width="0.178283" stroke-dasharray="1,5" d="M1278.05,-67.9532C1275.4,-67.0916 1272.64,-66.2939 1270,-65.6985 1126.51,-33.3306 1080.8,-75.4362 941,-29.6985 940.12,-29.4105 939.236,-29.0876 938.355,-28.7365"/>
<polygon fill="green" stroke="green" stroke-width="0.178283" points="939.757,-25.525 929.244,-24.2134 936.644,-31.7949 939.757,-25.525"/>
</g>
<!-- &#45;25 -->
<g id="node25" class="node"><title>&#45;25</title>
<polygon fill="lightgray" stroke="black" points="1354.5,-83.6985 1325.5,-83.6985 1325.5,-65.6985 1354.5,-65.6985 1354.5,-83.6985"/>
<text text-anchor="middle" x="1340" y="-72.4985" font-family="Times New Roman,serif" font-size="9.00">&#45;25</text>
</g>
<!-- &#45;25&#45;&gt;0 -->
<g id="edge90" class="edge"><title>&#45;25&#45;&gt;0</title>
<path fill="none" stroke="green" stroke-width="0.501039" d="M1325.06,-67.899C1322.41,-67.0434 1319.65,-66.2618 1317,-65.6985 1132.02,-26.3259 1073.45,-86.3172 893,-29.6985 891.944,-29.3672 890.885,-28.9837 889.83,-28.56"/>
<polygon fill="green" stroke="green" stroke-width="0.501039" points="891.237,-25.3498 880.73,-23.9869 888.093,-31.6045 891.237,-25.3498"/>
</g>
<!-- &#45;25&#45;&gt;1 -->
<g id="edge91" class="edge"><title>&#45;25&#45;&gt;1</title>
<path fill="none" stroke="green" stroke-width="0.448804" d="M1325.03,-68.0237C1322.38,-67.1542 1319.63,-66.3356 1317,-65.6985 1196.4,-36.4792 1048.13,-22.4094 990.028,-17.7151"/>
<polygon fill="green" stroke="green" stroke-width="0.448804" points="990.193,-14.2174 979.949,-16.9228 989.644,-21.1958 990.193,-14.2174"/>
</g>
<!-- &#45;25&#45;&gt;2 -->
<g id="edge92" class="edge"><title>&#45;25&#45;&gt;2</title>
<path fill="none" stroke="red" stroke-width="0.17914" d="M1325.06,-67.8799C1322.41,-67.0264 1319.65,-66.2504 1317,-65.6985 1111.04,-22.782 1046.01,-91.8217 845,-29.6985 843.943,-29.3718 842.882,-28.992 841.827,-28.5713"/>
<polygon fill="red" stroke="red" stroke-width="0.17914" points="843.231,-25.3604 832.723,-24.0092 840.095,-31.6185 843.231,-25.3604"/>
</g>
<!-- &#45;25&#45;&gt;3 -->
<g id="edge93" class="edge"><title>&#45;25&#45;&gt;3</title>
<path fill="none" stroke="green" stroke-width="0.129656" d="M1325.05,-67.923C1322.4,-67.0648 1319.64,-66.276 1317,-65.6985 1152.99,-29.8671 1100.9,-80.8167 941,-29.6985 939.946,-29.3616 938.888,-28.9734 937.835,-28.5459"/>
<polygon fill="green" stroke="green" stroke-width="0.129656" points="939.244,-25.3367 928.739,-23.9589 936.092,-31.5869 939.244,-25.3367"/>
</g>
<!-- &#45;26 -->
<g id="node26" class="node"><title>&#45;26</title>
<polygon fill="lightgray" stroke="black" points="1401.5,-83.6985 1372.5,-83.6985 1372.5,-65.6985 1401.5,-65.6985 1401.5,-83.6985"/>
<text text-anchor="middle" x="1387" y="-72.4985" font-family="Times New Roman,serif" font-size="9.00">&#45;26</text>
</g>
<!-- &#45;26&#45;&gt;0 -->
<g id="edge94" class="edge"><title>&#45;26&#45;&gt;0</title>
<path fill="none" stroke="green" stroke-width="0.475521" d="M1372.06,-67.8802C1369.41,-67.0267 1366.65,-66.2506 1364,-65.6985 1158.47,-22.8558 1093.58,-91.707 893,-29.6985 891.943,-29.3717 890.882,-28.9918 889.827,-28.5711"/>
<polygon fill="green" stroke="green" stroke-width="0.475521" points="891.231,-25.3602 880.723,-24.0087 888.095,-31.6183 891.231,-25.3602"/>
</g>
<!-- &#45;26&#45;&gt;1 -->
<g id="edge95" class="edge"><title>&#45;26&#45;&gt;1</title>
<path fill="none" stroke="green" stroke-width="0.258694" d="M1372.04,-67.9873C1369.39,-67.1218 1366.63,-66.3141 1364,-65.6985 1225.16,-33.2616 1053.9,-20.8527 990.313,-17.1607"/>
<polygon fill="green" stroke="green" stroke-width="0.258694" points="990.234,-13.651 980.055,-16.5875 989.844,-20.6401 990.234,-13.651"/>
</g>
<!-- &#45;26&#45;&gt;2 -->
<g id="edge96" class="edge"><title>&#45;26&#45;&gt;2</title>
<path fill="none" stroke="red" stroke-width="0.138751" d="M1372.07,-67.8645C1369.41,-67.0127 1366.65,-66.2413 1364,-65.6985 1137.48,-19.31 1066.14,-97.2143 845,-29.6985 843.942,-29.3754 842.88,-28.9986 841.824,-28.5803"/>
<polygon fill="red" stroke="red" stroke-width="0.138751" points="843.227,-25.3688 832.717,-24.0271 840.096,-31.6298 843.227,-25.3688"/>
</g>
<!-- &#45;26&#45;&gt;3 -->
<g id="edge97" class="edge"><title>&#45;26&#45;&gt;3</title>
<path fill="none" stroke="green" stroke-width="0.149609" stroke-dasharray="1,5" d="M1372.06,-67.8995C1369.41,-67.0438 1366.65,-66.262 1364,-65.6985 1179.46,-26.3997 1121.02,-86.2026 941,-29.6985 939.944,-29.3671 938.885,-28.9835 937.83,-28.5598"/>
<polygon fill="green" stroke="green" stroke-width="0.149609" points="939.237,-25.3496 928.73,-23.9863 936.093,-31.6042 939.237,-25.3496"/>
</g>
<!-- &#45;27 -->
<g id="node27" class="node"><title>&#45;27</title>
<polygon fill="lightgray" stroke="black" points="1448.5,-83.6985 1419.5,-83.6985 1419.5,-65.6985 1448.5,-65.6985 1448.5,-83.6985"/>
<text text-anchor="middle" x="1434" y="-72.4985" font-family="Times New Roman,serif" font-size="9.00">&#45;27</text>
</g>
<!-- &#45;27&#45;&gt;0 -->
<g id="edge98" class="edge"><title>&#45;27&#45;&gt;0</title>
<path fill="none" stroke="green" stroke-width="0.27224" d="M1419.07,-67.8648C1416.41,-67.013 1413.65,-66.2415 1411,-65.6985 1184.92,-19.3839 1113.72,-97.0995 893,-29.6985 891.942,-29.3753 890.88,-28.9985 889.824,-28.5801"/>
<polygon fill="green" stroke="green" stroke-width="0.27224" points="891.227,-25.3687 880.718,-24.0267 888.096,-31.6296 891.227,-25.3687"/>
</g>
<!-- &#45;27&#45;&gt;1 -->
<g id="edge99" class="edge"><title>&#45;27&#45;&gt;1</title>
<path fill="none" stroke="red" stroke-width="0.458174" d="M1419.05,-67.9584C1416.4,-67.0962 1413.64,-66.2969 1411,-65.6985 1253.37,-29.9493 1058.34,-19.4044 990.03,-16.6906"/>
<polygon fill="red" stroke="red" stroke-width="0.458174" points="989.953,-13.1853 979.829,-16.3071 989.69,-20.1804 989.953,-13.1853"/>
</g>
<!-- &#45;27&#45;&gt;2 -->
<g id="edge100" class="edge"><title>&#45;27&#45;&gt;2</title>
<path fill="none" stroke="red" stroke-width="0.18307" d="M1419.07,-67.8517C1416.42,-67.0013 1413.65,-66.2337 1411,-65.6985 1163.92,-15.8366 1086.29,-102.609 845,-29.6985 843.941,-29.3784 842.878,-29.0041 841.821,-28.5878"/>
<polygon fill="red" stroke="red" stroke-width="0.18307" points="843.223,-25.3759 832.713,-24.042 840.098,-31.6392 843.223,-25.3759"/>
</g>
<!-- &#45;27&#45;&gt;3 -->
<g id="edge101" class="edge"><title>&#45;27&#45;&gt;3</title>
<path fill="none" stroke="green" stroke-width="0.278412" d="M1419.06,-67.8806C1416.41,-67.027 1413.65,-66.2509 1411,-65.6985 1205.91,-22.9297 1141.15,-91.5923 941,-29.6985 939.943,-29.3716 938.882,-28.9917 937.827,-28.5709"/>
<polygon fill="green" stroke="green" stroke-width="0.278412" points="939.231,-25.36 928.723,-24.0083 936.095,-31.618 939.231,-25.36"/>
</g>
<!-- &#45;28 -->
<g id="node28" class="node"><title>&#45;28</title>
<polygon fill="lightgray" stroke="black" points="1495.5,-83.6985 1466.5,-83.6985 1466.5,-65.6985 1495.5,-65.6985 1495.5,-83.6985"/>
<text text-anchor="middle" x="1481" y="-72.4985" font-family="Times New Roman,serif" font-size="9.00">&#45;28</text>
</g>
<!-- &#45;28&#45;&gt;0 -->
<g id="edge102" class="edge"><title>&#45;28&#45;&gt;0</title>
<path fill="none" stroke="red" stroke-width="0.415334" d="M1466.07,-67.8519C1463.42,-67.0016 1460.65,-66.2339 1458,-65.6985 1211.35,-15.9105 1133.86,-102.494 893,-29.6985 891.941,-29.3784 890.878,-29.004 889.822,-28.5877"/>
<polygon fill="red" stroke="red" stroke-width="0.415334" points="891.224,-25.3758 880.713,-24.0417 888.098,-31.639 891.224,-25.3758"/>
</g>
<!-- &#45;28&#45;&gt;1 -->
<g id="edge103" class="edge"><title>&#45;28&#45;&gt;1</title>
<path fill="none" stroke="red" stroke-width="0.3669" d="M1466.05,-67.9349C1463.4,-67.0753 1460.64,-66.283 1458,-65.6985 1281.83,-26.7196 1063.42,-18.1502 990.226,-16.3259"/>
<polygon fill="red" stroke="red" stroke-width="0.3669" points="990.204,-12.8246 980.127,-16.0951 990.044,-19.8227 990.204,-12.8246"/>
</g>
<!-- &#45;28&#45;&gt;2 -->
<g id="edge104" class="edge"><title>&#45;28&#45;&gt;2</title>
<path fill="none" stroke="red" stroke-width="0.487537" d="M1466.07,-67.8408C1463.42,-66.9917 1460.65,-66.2273 1458,-65.6985 1190.35,-12.3622 1106.44,-108.005 845,-29.6985 843.94,-29.381 842.877,-29.0088 841.82,-28.5942"/>
<polygon fill="red" stroke="red" stroke-width="0.487537" points="843.22,-25.3819 832.709,-24.0547 840.099,-31.6472 843.22,-25.3819"/>
</g>
<!-- &#45;28&#45;&gt;3 -->
<g id="edge105" class="edge"><title>&#45;28&#45;&gt;3</title>
<path fill="none" stroke="green" stroke-width="0.246765" d="M1466.07,-67.8651C1463.41,-67.0133 1460.65,-66.2417 1458,-65.6985 1232.36,-19.4577 1161.29,-96.9848 941,-29.6985 939.942,-29.3753 938.88,-28.9983 937.824,-28.58"/>
<polygon fill="green" stroke="green" stroke-width="0.246765" points="939.227,-25.3685 928.718,-24.0264 936.096,-31.6294 939.227,-25.3685"/>
</g>
<!-- &#45;29 -->
<g id="node29" class="node"><title>&#45;29</title>
<polygon fill="lightgray" stroke="black" points="1730.5,-83.6985 1701.5,-83.6985 1701.5,-65.6985 1730.5,-65.6985 1730.5,-83.6985"/>
<text text-anchor="middle" x="1716" y="-72.4985" font-family="Times New Roman,serif" font-size="9.00">&#45;29</text>
</g>
<!-- &#45;29&#45;&gt;1 -->
<g id="edge106" class="edge"><title>&#45;29&#45;&gt;1</title>
<path fill="none" stroke="green" stroke-width="0.142086" d="M1701.07,-67.8625C1698.41,-67.011 1695.65,-66.2401 1693,-65.6985 1554.1,-37.3177 1101.63,-20.4596 990.043,-16.6692"/>
<polygon fill="green" stroke="green" stroke-width="0.142086" points="989.891,-13.1622 979.78,-16.325 989.657,-20.1583 989.891,-13.1622"/>
</g>
<!-- &#45;29&#45;&gt;2 -->
<g id="edge107" class="edge"><title>&#45;29&#45;&gt;2</title>
<path fill="none" stroke="red" stroke-width="0.291925" d="M1701.08,-67.8044C1698.42,-66.9593 1695.66,-66.2057 1693,-65.6985 1507.73,-30.3397 1026.12,-82.3487 845,-29.6985 843.938,-29.3896 842.872,-29.0245 841.813,-28.6156"/>
<polygon fill="red" stroke="red" stroke-width="0.291925" points="843.211,-25.402 832.697,-24.0971 840.102,-31.6739 843.211,-25.402"/>
</g>
<!-- &#45;29&#45;&gt;3 -->
<g id="edge108" class="edge"><title>&#45;29&#45;&gt;3</title>
<path fill="none" stroke="red" stroke-width="0.381938" d="M1701.08,-67.8166C1698.42,-66.9701 1695.66,-66.2129 1693,-65.6985 1528.75,-33.8906 1101.53,-76.834 941,-29.6985 939.938,-29.3868 938.874,-29.0193 937.815,-28.6085"/>
<polygon fill="red" stroke="red" stroke-width="0.381938" points="939.214,-25.3953 928.701,-24.083 936.101,-31.665 939.214,-25.3953"/>
</g>
<!-- &#45;30 -->
<g id="node30" class="node"><title>&#45;30</title>
<polygon fill="lightgray" stroke="black" points="1542.5,-83.6985 1513.5,-83.6985 1513.5,-65.6985 1542.5,-65.6985 1542.5,-83.6985"/>
<text text-anchor="middle" x="1528" y="-72.4985" font-family="Times New Roman,serif" font-size="9.00">&#45;30</text>
</g>
<!-- &#45;30&#45;&gt;0 -->
<g id="edge109" class="edge"><title>&#45;30&#45;&gt;0</title>
<path fill="none" stroke="red" stroke-width="0.371974" d="M1513.07,-67.841C1510.42,-66.9919 1507.65,-66.2274 1505,-65.6985 1237.79,-12.4362 1154.01,-107.89 893,-29.6985 891.94,-29.381 890.877,-29.0087 889.82,-28.5941"/>
<polygon fill="red" stroke="red" stroke-width="0.371974" points="891.221,-25.3818 880.709,-24.0544 888.099,-31.6471 891.221,-25.3818"/>
</g>
<!-- &#45;30&#45;&gt;1 -->
<g id="edge110" class="edge"><title>&#45;30&#45;&gt;1</title>
<path fill="none" stroke="green" stroke-width="0.148264" d="M1513.06,-67.9155C1510.4,-67.058 1507.64,-66.2715 1505,-65.6985 1310.31,-23.5095 1068.55,-17.0068 990.533,-16.0204"/>
<polygon fill="green" stroke="green" stroke-width="0.148264" points="990.272,-12.5175 980.236,-15.9112 990.198,-19.5171 990.272,-12.5175"/>
</g>
<!-- &#45;30&#45;&gt;2 -->
<g id="edge111" class="edge"><title>&#45;30&#45;&gt;2</title>
<path fill="none" stroke="green" stroke-width="0.175797" d="M1513.07,-67.8315C1510.42,-66.9834 1507.65,-66.2217 1505,-65.6985 1216.78,-8.88702 1126.59,-113.402 845,-29.6985 843.939,-29.3832 842.876,-29.0128 841.818,-28.5997"/>
<polygon fill="green" stroke="green" stroke-width="0.175797" points="843.218,-25.3871 832.706,-24.0656 840.099,-31.6541 843.218,-25.3871"/>
</g>
<!-- &#45;30&#45;&gt;3 -->
<g id="edge112" class="edge"><title>&#45;30&#45;&gt;3</title>
<path fill="none" stroke="red" stroke-width="0.238138" d="M1513.07,-67.8522C1510.42,-67.0018 1507.65,-66.234 1505,-65.6985 1258.79,-15.9844 1181.43,-102.379 941,-29.6985 939.941,-29.3783 938.878,-29.0039 937.822,-28.5876"/>
<polygon fill="red" stroke="red" stroke-width="0.238138" points="939.224,-25.3756 928.713,-24.0414 936.098,-31.6389 939.224,-25.3756"/>
</g>
<!-- &#45;31 -->
<g id="node31" class="node"><title>&#45;31</title>
<polygon fill="lightgray" stroke="black" points="1589.5,-83.6985 1560.5,-83.6985 1560.5,-65.6985 1589.5,-65.6985 1589.5,-83.6985"/>
<text text-anchor="middle" x="1575" y="-72.4985" font-family="Times New Roman,serif" font-size="9.00">&#45;31</text>
</g>
<!-- &#45;31&#45;&gt;0 -->
<g id="edge113" class="edge"><title>&#45;31&#45;&gt;0</title>
<path fill="none" stroke="red" stroke-width="0.238789" d="M1560.07,-67.8317C1557.42,-66.9835 1554.65,-66.2219 1552,-65.6985 1264.21,-8.96097 1174.16,-113.287 893,-29.6985 891.939,-29.3832 890.876,-29.0127 889.818,-28.5996"/>
<polygon fill="red" stroke="red" stroke-width="0.238789" points="891.218,-25.387 880.706,-24.0654 888.099,-31.6539 891.218,-25.387"/>
</g>
<!-- &#45;31&#45;&gt;1 -->
<g id="edge114" class="edge"><title>&#45;31&#45;&gt;1</title>
<path fill="none" stroke="green" stroke-width="0.347804" d="M1560.06,-67.8991C1557.41,-67.0435 1554.65,-66.2618 1552,-65.6985 1338.25,-20.1993 1072.37,-15.9251 990.299,-15.7554"/>
<polygon fill="green" stroke="green" stroke-width="0.347804" points="990.17,-12.2555 980.17,-15.7545 990.169,-19.2555 990.17,-12.2555"/>
</g>
<!-- &#45;31&#45;&gt;2 -->
<g id="edge115" class="edge"><title>&#45;31&#45;&gt;2</title>
<path fill="none" stroke="green" stroke-width="0.24393" d="M1560.08,-67.8234C1557.42,-66.9762 1554.66,-66.2169 1552,-65.6985 1243.2,-5.41117 1146.75,-118.8 845,-29.6985 843.939,-29.3851 842.875,-29.0163 841.817,-28.6045"/>
<polygon fill="green" stroke="green" stroke-width="0.24393" points="843.216,-25.3915 832.703,-24.075 840.1,-31.66 843.216,-25.3915"/>
</g>
<!-- &#45;31&#45;&gt;3 -->
<g id="edge116" class="edge"><title>&#45;31&#45;&gt;3</title>
<path fill="none" stroke="green" stroke-width="0.199152" d="M1560.07,-67.8412C1557.42,-66.992 1554.65,-66.2275 1552,-65.6985 1285.22,-12.5101 1201.58,-107.775 941,-29.6985 939.94,-29.3809 938.877,-29.0086 937.82,-28.594"/>
<polygon fill="green" stroke="green" stroke-width="0.199152" points="939.221,-25.3817 928.709,-24.0542 936.099,-31.6469 939.221,-25.3817"/>
</g>
<!-- &#45;32 -->
<g id="node32" class="node"><title>&#45;32</title>
<polygon fill="lightgray" stroke="black" points="1636.5,-83.6985 1607.5,-83.6985 1607.5,-65.6985 1636.5,-65.6985 1636.5,-83.6985"/>
<text text-anchor="middle" x="1622" y="-72.4985" font-family="Times New Roman,serif" font-size="9.00">&#45;32</text>
</g>
<!-- &#45;32&#45;&gt;0 -->
<g id="edge117" class="edge"><title>&#45;32&#45;&gt;0</title>
<path fill="none" stroke="green" stroke-width="0.17944" d="M1607.08,-67.8235C1604.42,-66.9763 1601.66,-66.217 1599,-65.6985 1290.64,-5.48513 1194.32,-118.685 893,-29.6985 891.939,-29.3851 890.875,-29.0162 889.817,-28.6044"/>
<polygon fill="green" stroke="green" stroke-width="0.17944" points="891.216,-25.3915 880.703,-24.0748 888.1,-31.6599 891.216,-25.3915"/>
</g>
<!-- &#45;32&#45;&gt;1 -->
<g id="edge118" class="edge"><title>&#45;32&#45;&gt;1</title>
<path fill="none" stroke="green" stroke-width="0.660744" d="M1607.06,-67.8851C1604.41,-67.031 1601.65,-66.2535 1599,-65.6985 1366.07,-16.8788 1075.91,-14.9301 990.036,-15.5331"/>
<polygon fill="green" stroke="green" stroke-width="0.660744" points="989.911,-12.034 979.943,-15.6234 989.974,-19.0337 989.911,-12.034"/>
</g>
<!-- &#45;32&#45;&gt;2 -->
<g id="edge119" class="edge"><title>&#45;32&#45;&gt;2</title>
<path fill="none" stroke="green" stroke-width="0.157315" d="M1607.08,-67.8163C1604.42,-66.9699 1601.66,-66.2127 1599,-65.6985 1434.31,-33.8166 1005.95,-76.9489 845,-29.6985 843.938,-29.3868 842.874,-29.0194 841.815,-28.6087"/>
<polygon fill="green" stroke="green" stroke-width="0.157315" points="843.214,-25.3955 832.701,-24.0833 840.101,-31.6652 843.214,-25.3955"/>
</g>
<!-- &#45;32&#45;&gt;3 -->
<g id="edge120" class="edge"><title>&#45;32&#45;&gt;3</title>
<path fill="none" stroke="red" stroke-width="0.12459" d="M1607.07,-67.8318C1604.42,-66.9837 1601.65,-66.222 1599,-65.6985 1311.65,-9.03491 1221.73,-113.172 941,-29.6985 939.939,-29.3831 938.876,-29.0127 937.818,-28.5995"/>
<polygon fill="red" stroke="red" stroke-width="0.12459" points="939.218,-25.3869 928.706,-24.0651 936.099,-31.6538 939.218,-25.3869"/>
</g>
<!-- &#45;33 -->
<g id="node33" class="node"><title>&#45;33</title>
<polygon fill="lightgray" stroke="black" points="1683.5,-83.6985 1654.5,-83.6985 1654.5,-65.6985 1683.5,-65.6985 1683.5,-83.6985"/>
<text text-anchor="middle" x="1669" y="-72.4985" font-family="Times New Roman,serif" font-size="9.00">&#45;33</text>
</g>
<!-- &#45;33&#45;&gt;0 -->
<g id="edge121" class="edge"><title>&#45;33&#45;&gt;0</title>
<path fill="none" stroke="red" stroke-width="0.277301" d="M1654.08,-67.8164C1651.42,-66.97 1648.66,-66.2128 1646,-65.6985 1481.53,-33.8536 1053.74,-76.8914 893,-29.6985 891.938,-29.3868 890.874,-29.0193 889.815,-28.6086"/>
<polygon fill="red" stroke="red" stroke-width="0.277301" points="891.214,-25.3954 880.701,-24.0831 888.101,-31.6651 891.214,-25.3954"/>
</g>
<!-- &#45;33&#45;&gt;1 -->
<g id="edge122" class="edge"><title>&#45;33&#45;&gt;1</title>
<path fill="none" stroke="green" stroke-width="0.123335" d="M1654.07,-67.8731C1651.41,-67.0203 1648.65,-66.2464 1646,-65.6985 1394.14,-13.6201 1080.07,-14.0094 990.121,-15.3398"/>
<polygon fill="green" stroke="green" stroke-width="0.123335" points="989.996,-11.8413 980.055,-15.5075 990.112,-18.8403 989.996,-11.8413"/>
</g>
<!-- &#45;33&#45;&gt;2 -->
<g id="edge123" class="edge"><title>&#45;33&#45;&gt;2</title>
<path fill="none" stroke="red" stroke-width="0.108096" stroke-dasharray="1,5" d="M1654.08,-67.81C1651.42,-66.9643 1648.66,-66.209 1646,-65.6985 1471.02,-32.0782 1016.04,-79.6487 845,-29.6985 843.938,-29.3883 842.873,-29.0221 841.814,-28.6124"/>
<polygon fill="red" stroke="red" stroke-width="0.108096" points="843.212,-25.3989 832.698,-24.0906 840.102,-31.6698 843.212,-25.3989"/>
</g>
<!-- &#45;33&#45;&gt;3 -->
<g id="edge124" class="edge"><title>&#45;33&#45;&gt;3</title>
<path fill="none" stroke="red" stroke-width="0.264686" d="M1654.08,-67.8237C1651.42,-66.9765 1648.66,-66.2171 1646,-65.6985 1338.08,-5.55909 1241.89,-118.571 941,-29.6985 939.939,-29.3851 938.875,-29.0162 937.817,-28.6043"/>
<polygon fill="red" stroke="red" stroke-width="0.264686" points="939.216,-25.3914 928.703,-24.0746 936.1,-31.6598 939.216,-25.3914"/>
</g>
<!-- &#45;34 -->
<g id="node34" class="node"><title>&#45;34</title>
<polygon fill="lightgray" stroke="black" points="208.5,-83.6985 179.5,-83.6985 179.5,-65.6985 208.5,-65.6985 208.5,-83.6985"/>
<text text-anchor="middle" x="194" y="-72.4985" font-family="Times New Roman,serif" font-size="9.00">&#45;34</text>
</g>
<!-- &#45;34&#45;&gt;0 -->
<g id="edge125" class="edge"><title>&#45;34&#45;&gt;0</title>
<path fill="none" stroke="red" stroke-width="0.12958" d="M208.928,-67.8377C211.582,-66.9889 214.346,-66.2254 217,-65.6985 491.217,-11.2532 577.13,-109.727 845,-29.6985 846.06,-29.3818 847.124,-29.0102 848.181,-28.5961"/>
<polygon fill="red" stroke="red" stroke-width="0.12958" points="849.901,-31.6495 857.292,-24.0583 846.78,-25.3836 849.901,-31.6495"/>
</g>
<!-- &#45;34&#45;&gt;1 -->
<g id="edge126" class="edge"><title>&#45;34&#45;&gt;1</title>
<path fill="none" stroke="green" stroke-width="0.320909" d="M208.924,-67.8207C211.579,-66.9738 214.344,-66.2154 217,-65.6985 375.121,-34.9262 786.48,-75.2258 941,-29.6985 942.061,-29.3858 943.126,-29.0175 944.184,-28.6061"/>
<polygon fill="green" stroke="green" stroke-width="0.320909" points="945.899,-31.662 953.298,-24.0781 942.785,-25.393 945.899,-31.662"/>
</g>
<!-- &#45;34&#45;&gt;2 -->
<g id="edge127" class="edge"><title>&#45;34&#45;&gt;2</title>
<path fill="none" stroke="red" stroke-width="0.301059" d="M208.939,-67.8938C211.592,-67.0387 214.353,-66.2587 217,-65.6985 437.673,-19.0001 712.313,-15.556 795.79,-15.6706"/>
<polygon fill="red" stroke="red" stroke-width="0.301059" points="795.844,-19.1707 805.855,-15.7039 795.867,-12.1707 795.844,-19.1707"/>
</g>
<!-- &#45;34&#45;&gt;3 -->
<g id="edge128" class="edge"><title>&#45;34&#45;&gt;3</title>
<path fill="none" stroke="green" stroke-width="0.17402" d="M208.926,-67.8286C211.58,-66.9808 214.345,-66.22 217,-65.6985 512.228,-7.70382 604.546,-115.24 893,-29.6985 894.061,-29.3839 895.125,-29.0141 896.183,-28.6014"/>
<polygon fill="green" stroke="green" stroke-width="0.17402" points="897.9,-31.6562 905.295,-24.0689 894.783,-25.3887 897.9,-31.6562"/>
</g>
<!-- &#45;35 -->
<g id="node35" class="node"><title>&#45;35</title>
<polygon fill="lightgray" stroke="black" points="1820.5,-83.6985 1791.5,-83.6985 1791.5,-65.6985 1820.5,-65.6985 1820.5,-83.6985"/>
<text text-anchor="middle" x="1806" y="-72.4985" font-family="Times New Roman,serif" font-size="9.00">&#45;35</text>
</g>
<!-- &#45;35&#45;&gt;0 -->
<g id="edge129" class="edge"><title>&#45;35&#45;&gt;0</title>
<path fill="none" stroke="red" stroke-width="0.170915" d="M1791.45,-68.1237C1788.37,-67.1501 1785.11,-66.2681 1782,-65.6985 1587.52,-30.085 1082.91,-84.7043 893,-29.6985 891.937,-29.3907 890.872,-29.0264 889.813,-28.6182"/>
<polygon fill="red" stroke="red" stroke-width="0.170915" points="891.21,-25.4045 880.695,-24.1022 888.103,-31.6772 891.21,-25.4045"/>
</g>
<!-- &#45;35&#45;&gt;1 -->
<g id="edge130" class="edge"><title>&#45;35&#45;&gt;1</title>
<path fill="none" stroke="red" stroke-width="0.2781" d="M1791.44,-68.173C1788.36,-67.1958 1785.1,-66.2999 1782,-65.6985 1624.56,-35.1999 1109.67,-19.7312 990.004,-16.497"/>
<polygon fill="red" stroke="red" stroke-width="0.2781" points="990.065,-12.9975 979.975,-16.2298 989.878,-19.995 990.065,-12.9975"/>
</g>
<!-- &#45;35&#45;&gt;3 -->
<g id="edge131" class="edge"><title>&#45;35&#45;&gt;3</title>
<path fill="none" stroke="green" stroke-width="0.206794" d="M1791.45,-68.1293C1788.37,-67.1553 1785.11,-66.2717 1782,-65.6985 1598.04,-31.7924 1120.62,-81.9466 941,-29.6985 939.938,-29.3894 938.872,-29.0241 937.813,-28.6152"/>
<polygon fill="green" stroke="green" stroke-width="0.206794" points="939.211,-25.4016 928.697,-24.0962 936.102,-31.6734 939.211,-25.4016"/>
</g>
<!-- &#45;36 -->
<g id="node36" class="node"><title>&#45;36</title>
<polygon fill="lightgray" stroke="black" points="255.5,-83.6985 226.5,-83.6985 226.5,-65.6985 255.5,-65.6985 255.5,-83.6985"/>
<text text-anchor="middle" x="241" y="-72.4985" font-family="Times New Roman,serif" font-size="9.00">&#45;36</text>
</g>
<!-- &#45;36&#45;&gt;0 -->
<g id="edge132" class="edge"><title>&#45;36&#45;&gt;0</title>
<path fill="none" stroke="red" stroke-width="0.451074" d="M255.93,-67.848C258.583,-66.9981 261.347,-66.2315 264,-65.6985 517.647,-14.7279 597.281,-104.331 845,-29.6985 846.059,-29.3793 847.122,-29.0057 848.179,-28.59"/>
<polygon fill="red" stroke="red" stroke-width="0.451074" points="849.902,-31.6419 857.288,-24.0463 846.778,-25.3779 849.902,-31.6419"/>
</g>
<!-- &#45;36&#45;&gt;1 -->
<g id="edge133" class="edge"><title>&#45;36&#45;&gt;1</title>
<path fill="none" stroke="red" stroke-width="0.439508" d="M255.926,-67.8284C258.58,-66.9806 261.345,-66.2199 264,-65.6985 559.666,-7.62986 652.117,-115.355 941,-29.6985 942.061,-29.3839 943.125,-29.0141 944.183,-28.6015"/>
<polygon fill="red" stroke="red" stroke-width="0.439508" points="945.9,-31.6563 953.295,-24.0691 942.783,-25.3888 945.9,-31.6563"/>
</g>
<!-- &#45;36&#45;&gt;2 -->
<g id="edge134" class="edge"><title>&#45;36&#45;&gt;2</title>
<path fill="none" stroke="green" stroke-width="0.410093" d="M255.943,-67.9092C258.595,-67.0525 261.355,-66.2678 264,-65.6985 465.737,-22.2782 716.444,-16.5955 795.741,-15.9174"/>
<polygon fill="green" stroke="green" stroke-width="0.410093" points="796.194,-19.4146 806.171,-15.8497 796.148,-12.4147 796.194,-19.4146"/>
</g>
<!-- &#45;36&#45;&gt;3 -->
<g id="edge135" class="edge"><title>&#45;36&#45;&gt;3</title>
<path fill="none" stroke="red" stroke-width="0.181117" d="M255.928,-67.8375C258.582,-66.9887 261.346,-66.2253 264,-65.6985 538.654,-11.1793 624.701,-109.842 893,-29.6985 894.06,-29.3818 895.124,-29.0102 896.181,-28.5962"/>
<polygon fill="red" stroke="red" stroke-width="0.181117" points="897.901,-31.6497 905.292,-24.0586 894.78,-25.3837 897.901,-31.6497"/>
</g>
<!-- &#45;37 -->
<g id="node37" class="node"><title>&#45;37</title>
<polygon fill="lightgray" stroke="black" points="302.5,-83.6985 273.5,-83.6985 273.5,-65.6985 302.5,-65.6985 302.5,-83.6985"/>
<text text-anchor="middle" x="288" y="-72.4985" font-family="Times New Roman,serif" font-size="9.00">&#45;37</text>
</g>
<!-- &#45;37&#45;&gt;0 -->
<g id="edge136" class="edge"><title>&#45;37&#45;&gt;0</title>
<path fill="none" stroke="red" stroke-width="0.383359" d="M302.564,-68.1887C305.642,-67.2103 308.897,-66.31 312,-65.6985 544.947,-19.7871 617.856,-98.821 845,-29.6985 846.059,-29.3764 847.121,-29.0003 848.177,-28.5827"/>
<polygon fill="red" stroke="red" stroke-width="0.383359" points="849.903,-31.6328 857.284,-24.0318 846.774,-25.3711 849.903,-31.6328"/>
</g>
<!-- &#45;37&#45;&gt;1 -->
<g id="edge137" class="edge"><title>&#45;37&#45;&gt;1</title>
<path fill="none" stroke="green" stroke-width="0.179566" d="M302.559,-68.164C305.637,-67.1874 308.894,-66.294 312,-65.6985 587.002,-12.9638 672.701,-109.842 941,-29.6985 942.06,-29.3818 943.124,-29.0102 944.181,-28.5962"/>
<polygon fill="green" stroke="green" stroke-width="0.179566" points="945.901,-31.6497 953.292,-24.0586 942.78,-25.3837 945.901,-31.6497"/>
</g>
<!-- &#45;37&#45;&gt;2 -->
<g id="edge138" class="edge"><title>&#45;37&#45;&gt;2</title>
<path fill="none" stroke="green" stroke-width="0.193926" d="M302.579,-68.2611C305.655,-67.2775 308.907,-66.3567 312,-65.6985 494.558,-26.8473 720.503,-18.1888 795.493,-16.3343"/>
<polygon fill="green" stroke="green" stroke-width="0.193926" points="795.904,-19.826 805.821,-16.0993 795.744,-12.8278 795.904,-19.826"/>
</g>
<!-- &#45;37&#45;&gt;3 -->
<g id="edge139" class="edge"><title>&#45;37&#45;&gt;3</title>
<path fill="none" stroke="red" stroke-width="0.410757" d="M302.562,-68.1753C305.639,-67.1979 308.896,-66.3013 312,-65.6985 565.972,-16.3759 645.281,-104.331 893,-29.6985 894.059,-29.3793 895.122,-29.0057 896.179,-28.59"/>
<polygon fill="red" stroke="red" stroke-width="0.410757" points="897.902,-31.6419 905.288,-24.0463 894.778,-25.3779 897.902,-31.6419"/>
</g>
<!-- &#45;38 -->
<g id="node38" class="node"><title>&#45;38</title>
<polygon fill="lightgray" stroke="black" points="349.5,-83.6985 320.5,-83.6985 320.5,-65.6985 349.5,-65.6985 349.5,-83.6985"/>
<text text-anchor="middle" x="335" y="-72.4985" font-family="Times New Roman,serif" font-size="9.00">&#45;38</text>
</g>
<!-- &#45;38&#45;&gt;0 -->
<g id="edge140" class="edge"><title>&#45;38&#45;&gt;0</title>
<path fill="none" stroke="red" stroke-width="0.217709" d="M349.567,-68.2043C352.644,-67.2248 355.899,-66.3201 359,-65.6985 571.367,-23.1259 637.996,-93.4278 845,-29.6985 846.057,-29.3729 847.119,-28.9941 848.174,-28.5741"/>
<polygon fill="red" stroke="red" stroke-width="0.217709" points="849.904,-31.6221 857.279,-24.0149 846.77,-25.3631 849.904,-31.6221"/>
</g>
<!-- &#45;38&#45;&gt;1 -->
<g id="edge141" class="edge"><title>&#45;38&#45;&gt;1</title>
<path fill="none" stroke="red" stroke-width="0.388439" d="M349.561,-68.175C352.639,-67.1977 355.896,-66.3012 359,-65.6985 613.411,-16.3048 692.852,-104.446 941,-29.6985 942.059,-29.3794 943.122,-29.0058 944.179,-28.5901"/>
<polygon fill="red" stroke="red" stroke-width="0.388439" points="945.902,-31.6421 953.288,-24.0466 942.778,-25.3781 945.902,-31.6421"/>
</g>
<!-- &#45;38&#45;&gt;2 -->
<g id="edge142" class="edge"><title>&#45;38&#45;&gt;2</title>
<path fill="none" stroke="green" stroke-width="0.333841" d="M349.584,-68.2847C352.66,-67.2994 355.91,-66.372 359,-65.6985 523.231,-29.9005 726.163,-19.3529 796.013,-16.6667"/>
<polygon fill="green" stroke="green" stroke-width="0.333841" points="796.189,-20.1627 806.054,-16.3004 795.933,-13.1674 796.189,-20.1627"/>
</g>
<!-- &#45;38&#45;&gt;3 -->
<g id="edge143" class="edge"><title>&#45;38&#45;&gt;3</title>
<path fill="none" stroke="red" stroke-width="0.250855" d="M349.564,-68.1883C352.642,-67.21 355.897,-66.3098 359,-65.6985 592.385,-19.716 665.427,-98.9357 893,-29.6985 894.059,-29.3764 895.121,-29.0005 896.177,-28.5829"/>
<polygon fill="red" stroke="red" stroke-width="0.250855" points="897.903,-31.633 905.284,-24.0321 894.774,-25.3712 897.903,-31.633"/>
</g>
<!-- &#45;39 -->
<g id="node39" class="node"><title>&#45;39</title>
<polygon fill="lightgray" stroke="black" points="396.5,-83.6985 367.5,-83.6985 367.5,-65.6985 396.5,-65.6985 396.5,-83.6985"/>
<text text-anchor="middle" x="382" y="-72.4985" font-family="Times New Roman,serif" font-size="9.00">&#45;39</text>
</g>
<!-- &#45;39&#45;&gt;0 -->
<g id="edge144" class="edge"><title>&#45;39&#45;&gt;0</title>
<path fill="none" stroke="green" stroke-width="0.458919" d="M396.571,-68.2232C399.648,-67.2424 402.902,-66.3323 406,-65.6985 597.794,-26.4632 658.128,-88.037 845,-29.6985 846.056,-29.3688 847.116,-28.9865 848.171,-28.5638"/>
<polygon fill="green" stroke="green" stroke-width="0.458919" points="849.906,-31.6092 857.272,-23.9943 846.765,-25.3534 849.906,-31.6092"/>
</g>
<!-- &#45;39&#45;&gt;1 -->
<g id="edge145" class="edge"><title>&#45;39&#45;&gt;1</title>
<path fill="none" stroke="green" stroke-width="0.326409" stroke-dasharray="1,5" d="M396.564,-68.188C399.641,-67.2098 402.897,-66.3096 406,-65.6985 639.823,-19.645 712.999,-99.0505 941,-29.6985 942.059,-29.3765 943.121,-29.0006 944.177,-28.583"/>
<polygon fill="green" stroke="green" stroke-width="0.326409" points="945.903,-31.6332 953.284,-24.0324 942.774,-25.3714 945.903,-31.6332"/>
</g>
<!-- &#45;39&#45;&gt;2 -->
<g id="edge146" class="edge"><title>&#45;39&#45;&gt;2</title>
<path fill="none" stroke="red" stroke-width="0.335761" d="M396.59,-68.3136C399.666,-67.3262 402.914,-66.3906 406,-65.6985 551.583,-33.0441 731.011,-20.6873 796.011,-17.0877"/>
<polygon fill="red" stroke="red" stroke-width="0.335761" points="796.315,-20.5765 806.114,-16.5487 795.942,-13.5865 796.315,-20.5765"/>
</g>
<!-- &#45;39&#45;&gt;3 -->
<g id="edge147" class="edge"><title>&#45;39&#45;&gt;3</title>
<path fill="none" stroke="green" stroke-width="0.375561" stroke-dasharray="1,5" d="M396.567,-68.2039C399.644,-67.2245 402.899,-66.3198 406,-65.6985 618.804,-23.0549 685.568,-93.5425 893,-29.6985 894.057,-29.373 895.119,-28.9942 896.174,-28.5743"/>
<polygon fill="green" stroke="green" stroke-width="0.375561" points="897.904,-31.6224 905.279,-24.0153 894.77,-25.3632 897.904,-31.6224"/>
</g>
<!-- &#45;40 -->
<g id="node40" class="node"><title>&#45;40</title>
<polygon fill="lightgray" stroke="black" points="443.5,-83.6985 414.5,-83.6985 414.5,-65.6985 443.5,-65.6985 443.5,-83.6985"/>
<text text-anchor="middle" x="429" y="-72.4985" font-family="Times New Roman,serif" font-size="9.00">&#45;40</text>
</g>
<!-- &#45;40&#45;&gt;0 -->
<g id="edge148" class="edge"><title>&#45;40&#45;&gt;0</title>
<path fill="none" stroke="green" stroke-width="0.13592" d="M443.576,-68.2466C446.653,-67.2641 449.905,-66.3474 453,-65.6985 624.232,-29.7981 678.25,-82.6497 845,-29.6985 846.055,-29.3636 847.113,-28.9771 848.167,-28.551"/>
<polygon fill="green" stroke="green" stroke-width="0.13592" points="849.908,-31.5932 857.264,-23.969 846.759,-25.3414 849.908,-31.5932"/>
</g>
<!-- &#45;40&#45;&gt;1 -->
<g id="edge149" class="edge"><title>&#45;40&#45;&gt;1</title>
<path fill="none" stroke="red" stroke-width="0.42075" d="M443.567,-68.2035C446.644,-67.2241 449.899,-66.3196 453,-65.6985 666.242,-22.9839 733.139,-93.6572 941,-29.6985 942.058,-29.3731 943.119,-28.9944 944.174,-28.5745"/>
<polygon fill="red" stroke="red" stroke-width="0.42075" points="945.904,-31.6226 953.279,-24.0156 942.77,-25.3634 945.904,-31.6226"/>
</g>
<!-- &#45;40&#45;&gt;2 -->
<g id="edge150" class="edge"><title>&#45;40&#45;&gt;2</title>
<path fill="none" stroke="green" stroke-width="0.199586" d="M443.599,-68.3497C446.674,-67.3596 449.92,-66.4139 453,-65.6985 580.111,-36.1782 736.263,-22.1765 796.077,-17.6076"/>
<polygon fill="green" stroke="green" stroke-width="0.199586" points="796.383,-21.0946 806.096,-16.8626 795.864,-14.1139 796.383,-21.0946"/>
</g>
<!-- &#45;40&#45;&gt;3 -->
<g id="edge151" class="edge"><title>&#45;40&#45;&gt;3</title>
<path fill="none" stroke="red" stroke-width="0.281457" stroke-dasharray="1,5" d="M443.571,-68.2228C446.648,-67.2419 449.902,-66.332 453,-65.6985 645.232,-26.3922 705.7,-88.1517 893,-29.6985 894.056,-29.3689 895.116,-28.9867 896.171,-28.564"/>
<polygon fill="red" stroke="red" stroke-width="0.281457" points="897.906,-31.6095 905.273,-23.9948 894.765,-25.3536 897.906,-31.6095"/>
</g>
</g>
</svg>
