<?xml version="1.0" encoding="UTF-8" standalone="no"?>
<!DOCTYPE svg PUBLIC "-//W3C//DTD SVG 1.1//EN"
 "http://www.w3.org/Graphics/SVG/1.1/DTD/svg11.dtd">
<!-- Generated by graphviz version 2.38.0 (20140413.2041)
 -->
<!-- Title: %3 Pages: 1 -->
<svg width="1828pt" height="236pt"
 viewBox="0.00 0.00 1828.00 235.82" xmlns="http://www.w3.org/2000/svg" xmlns:xlink="http://www.w3.org/1999/xlink">
<g id="graph0" class="graph" transform="scale(1 1) rotate(0) translate(4 231.823)">
<title>%3</title>
<polygon fill="white" stroke="none" points="-4,4 -4,-231.823 1824,-231.823 1824,4 -4,4"/>
<!-- &#45;1 -->
<g id="node1" class="node"><title>&#45;1</title>
<polygon fill="lightgray" stroke="black" points="738.5,-227.823 714.5,-227.823 714.5,-209.823 738.5,-209.823 738.5,-227.823"/>
<text text-anchor="middle" x="726.5" y="-216.623" font-family="Times New Roman,serif" font-size="9.00">&#45;1</text>
</g>
<!-- 0 -->
<g id="node41" class="node"><title>0</title>
<ellipse fill="lightblue" stroke="black" cx="807.5" cy="-158.974" rx="14.7" ry="14.7"/>
<text text-anchor="middle" x="807.5" y="-156.774" font-family="Times New Roman,serif" font-size="9.00">0</text>
</g>
<!-- &#45;1&#45;&gt;0 -->
<g id="edge1" class="edge"><title>&#45;1&#45;&gt;0</title>
<path fill="none" stroke="green" stroke-width="0.635392" d="M737.763,-209.78C750.554,-200.644 771.676,-185.559 787.329,-174.38"/>
<polygon fill="green" stroke="green" stroke-width="0.635392" points="789.705,-176.984 795.808,-168.324 785.637,-171.288 789.705,-176.984"/>
</g>
<!-- 1 -->
<g id="node42" class="node"><title>1</title>
<ellipse fill="lightblue" stroke="black" cx="855.5" cy="-158.974" rx="14.7" ry="14.7"/>
<text text-anchor="middle" x="855.5" y="-156.774" font-family="Times New Roman,serif" font-size="9.00">1</text>
</g>
<!-- &#45;1&#45;&gt;1 -->
<g id="edge2" class="edge"><title>&#45;1&#45;&gt;1</title>
<path fill="none" stroke="green" stroke-width="0.140432" d="M738.603,-212.977C762.349,-203.431 814.233,-182.38 831.5,-173.823 832.33,-173.412 833.17,-172.985 834.016,-172.545"/>
<polygon fill="green" stroke="green" stroke-width="0.140432" points="835.894,-175.506 842.959,-167.61 832.512,-169.377 835.894,-175.506"/>
</g>
<!-- 2 -->
<g id="node43" class="node"><title>2</title>
<ellipse fill="lightblue" stroke="black" cx="965.5" cy="-14.8492" rx="14.7" ry="14.7"/>
<text text-anchor="middle" x="965.5" y="-12.6492" font-family="Times New Roman,serif" font-size="9.00">2</text>
</g>
<!-- &#45;1&#45;&gt;2 -->
<g id="edge3" class="edge"><title>&#45;1&#45;&gt;2</title>
<path fill="none" stroke="red" stroke-width="0.157741" d="M728.654,-209.486C735.674,-183.986 760.321,-106.313 809.5,-65.6985 847.908,-33.9791 906.808,-22.3278 940.164,-18.1328"/>
<polygon fill="red" stroke="red" stroke-width="0.157741" points="940.885,-21.5739 950.431,-16.9778 940.102,-14.6178 940.885,-21.5739"/>
</g>
<!-- 3 -->
<g id="node44" class="node"><title>3</title>
<ellipse fill="lightblue" stroke="black" cx="903.5" cy="-158.974" rx="14.7" ry="14.7"/>
<text text-anchor="middle" x="903.5" y="-156.774" font-family="Times New Roman,serif" font-size="9.00">3</text>
</g>
<!-- &#45;1&#45;&gt;3 -->
<g id="edge4" class="edge"><title>&#45;1&#45;&gt;3</title>
<path fill="none" stroke="red" stroke-width="0.23445" d="M738.865,-212.883C741.685,-211.821 744.681,-210.742 747.5,-209.823 805.315,-190.977 823.369,-197.213 879.5,-173.823 880.355,-173.467 881.217,-173.086 882.08,-172.686"/>
<polygon fill="red" stroke="red" stroke-width="0.23445" points="883.888,-175.69 891.107,-167.935 880.627,-169.496 883.888,-175.69"/>
</g>
<!-- &#45;2 -->
<g id="node2" class="node"><title>&#45;2</title>
<polygon fill="lightgray" stroke="black" points="386.5,-227.823 362.5,-227.823 362.5,-209.823 386.5,-209.823 386.5,-227.823"/>
<text text-anchor="middle" x="374.5" y="-216.623" font-family="Times New Roman,serif" font-size="9.00">&#45;2</text>
</g>
<!-- &#45;2&#45;&gt;0 -->
<g id="edge5" class="edge"><title>&#45;2&#45;&gt;0</title>
<path fill="none" stroke="green" stroke-width="0.369943" d="M386.777,-212.575C389.601,-211.528 392.621,-210.535 395.5,-209.823 539.314,-174.295 717.879,-163.681 782.608,-160.878"/>
<polygon fill="green" stroke="green" stroke-width="0.369943" points="782.822,-164.373 792.67,-160.467 782.536,-157.379 782.822,-164.373"/>
</g>
<!-- &#45;2&#45;&gt;1 -->
<g id="edge6" class="edge"><title>&#45;2&#45;&gt;1</title>
<path fill="none" stroke="red" stroke-width="0.221346" d="M386.758,-212.493C389.583,-211.451 392.608,-210.48 395.5,-209.823 585.115,-166.788 645.913,-231.818 831.5,-173.823 832.556,-173.493 833.616,-173.111 834.671,-172.688"/>
<polygon fill="red" stroke="red" stroke-width="0.221346" points="836.406,-175.733 843.772,-168.118 833.265,-169.478 836.406,-175.733"/>
</g>
<!-- &#45;2&#45;&gt;2 -->
<g id="edge7" class="edge"><title>&#45;2&#45;&gt;2</title>
<path fill="none" stroke="green" stroke-width="0.315916" stroke-dasharray="1,5" d="M379.236,-209.771C397.041,-179.622 459.705,-74.6726 474.5,-65.6985 553.968,-17.4972 851.378,-15.1922 940.26,-15.6104"/>
<polygon fill="green" stroke="green" stroke-width="0.315916" points="940.24,-19.1103 950.262,-15.6739 940.285,-12.1104 940.24,-19.1103"/>
</g>
<!-- &#45;2&#45;&gt;3 -->
<g id="edge8" class="edge"><title>&#45;2&#45;&gt;3</title>
<path fill="none" stroke="red" stroke-width="0.139118" stroke-dasharray="1,5" d="M386.754,-212.476C389.579,-211.435 392.606,-210.468 395.5,-209.823 606.048,-162.937 673.353,-237.323 879.5,-173.823 880.557,-173.498 881.619,-173.119 882.674,-172.699"/>
<polygon fill="red" stroke="red" stroke-width="0.139118" points="884.405,-175.747 891.779,-168.139 881.27,-169.488 884.405,-175.747"/>
</g>
<!-- &#45;3 -->
<g id="node3" class="node"><title>&#45;3</title>
<polygon fill="lightgray" stroke="black" points="428.5,-227.823 404.5,-227.823 404.5,-209.823 428.5,-209.823 428.5,-227.823"/>
<text text-anchor="middle" x="416.5" y="-216.623" font-family="Times New Roman,serif" font-size="9.00">&#45;3</text>
</g>
<!-- &#45;3&#45;&gt;0 -->
<g id="edge9" class="edge"><title>&#45;3&#45;&gt;0</title>
<path fill="none" stroke="red" stroke-width="1.04834" d="M428.784,-212.603C431.608,-211.556 434.626,-210.554 437.5,-209.823 564.646,-177.5 722.028,-165.128 782.355,-161.364"/>
<polygon fill="red" stroke="red" stroke-width="1.04834" points="782.688,-164.85 792.461,-160.758 782.27,-157.863 782.688,-164.85"/>
</g>
<!-- &#45;3&#45;&gt;1 -->
<g id="edge10" class="edge"><title>&#45;3&#45;&gt;1</title>
<path fill="none" stroke="red" stroke-width="0.272651" d="M428.762,-212.512C431.587,-211.469 434.611,-210.492 437.5,-209.823 608.808,-170.156 663.894,-227.004 831.5,-173.823 832.555,-173.489 833.613,-173.102 834.667,-172.676"/>
<polygon fill="red" stroke="red" stroke-width="0.272651" points="836.408,-175.719 843.765,-168.095 833.259,-169.467 836.408,-175.719"/>
</g>
<!-- &#45;3&#45;&gt;2 -->
<g id="edge11" class="edge"><title>&#45;3&#45;&gt;2</title>
<path fill="none" stroke="green" stroke-width="0.181389" d="M420.559,-209.557C435.011,-180.473 484.643,-83.6501 513.5,-65.6985 585.674,-20.7997 856.229,-16.1641 940.368,-15.8243"/>
<polygon fill="green" stroke="green" stroke-width="0.181389" points="940.547,-19.324 950.539,-15.8013 940.531,-12.3241 940.547,-19.324"/>
</g>
<!-- &#45;3&#45;&gt;3 -->
<g id="edge12" class="edge"><title>&#45;3&#45;&gt;3</title>
<path fill="none" stroke="green" stroke-width="0.10898" d="M428.757,-212.491C431.582,-211.449 434.608,-210.478 437.5,-209.823 629.731,-166.307 691.344,-232.506 879.5,-173.823 880.556,-173.494 881.616,-173.112 882.671,-172.689"/>
<polygon fill="green" stroke="green" stroke-width="0.10898" points="884.406,-175.735 891.773,-168.121 881.265,-169.479 884.406,-175.735"/>
</g>
<!-- &#45;4 -->
<g id="node4" class="node"><title>&#45;4</title>
<polygon fill="lightgray" stroke="black" points="71.5,-227.823 47.5,-227.823 47.5,-209.823 71.5,-209.823 71.5,-227.823"/>
<text text-anchor="middle" x="59.5" y="-216.623" font-family="Times New Roman,serif" font-size="9.00">&#45;4</text>
</g>
<!-- &#45;4&#45;&gt;0 -->
<g id="edge13" class="edge"><title>&#45;4&#45;&gt;0</title>
<path fill="none" stroke="red" stroke-width="0.278885" d="M71.7512,-212.463C74.5766,-211.423 77.604,-210.46 80.5,-209.823 218.629,-179.483 669.978,-164.117 782.108,-160.711"/>
<polygon fill="red" stroke="red" stroke-width="0.278885" points="782.544,-164.199 792.434,-160.402 782.334,-157.202 782.544,-164.199"/>
</g>
<!-- &#45;4&#45;&gt;1 -->
<g id="edge14" class="edge"><title>&#45;4&#45;&gt;1</title>
<path fill="none" stroke="red" stroke-width="0.565253" stroke-dasharray="1,5" d="M71.7417,-212.419C74.5676,-211.381 77.5976,-210.43 80.5,-209.823 244.05,-175.658 671.189,-220.901 831.5,-173.823 832.562,-173.512 833.626,-173.144 834.685,-172.733"/>
<polygon fill="red" stroke="red" stroke-width="0.565253" points="836.399,-175.79 843.799,-168.208 833.286,-169.52 836.399,-175.79"/>
</g>
<!-- &#45;4&#45;&gt;2 -->
<g id="edge15" class="edge"><title>&#45;4&#45;&gt;2</title>
<path fill="none" stroke="green" stroke-width="0.212795" d="M59.7872,-209.766C61.1964,-183.718 69.5099,-101.403 118.5,-65.6985 186.453,-16.1739 806.993,-15.3371 940.337,-15.7347"/>
<polygon fill="green" stroke="green" stroke-width="0.212795" points="940.392,-19.2349 950.405,-15.7702 940.417,-12.2349 940.392,-19.2349"/>
</g>
<!-- &#45;4&#45;&gt;3 -->
<g id="edge16" class="edge"><title>&#45;4&#45;&gt;3</title>
<path fill="none" stroke="red" stroke-width="0.120438" d="M71.7404,-212.413C74.5664,-211.375 77.5967,-210.426 80.5,-209.823 254.532,-173.729 708.894,-223.659 879.5,-173.823 880.562,-173.513 881.627,-173.147 882.686,-172.737"/>
<polygon fill="red" stroke="red" stroke-width="0.120438" points="884.398,-175.795 891.801,-168.215 881.288,-169.524 884.398,-175.795"/>
</g>
<!-- &#45;5 -->
<g id="node5" class="node"><title>&#45;5</title>
<polygon fill="lightgray" stroke="black" points="696.5,-227.823 672.5,-227.823 672.5,-209.823 696.5,-209.823 696.5,-227.823"/>
<text text-anchor="middle" x="684.5" y="-216.623" font-family="Times New Roman,serif" font-size="9.00">&#45;5</text>
</g>
<!-- &#45;5&#45;&gt;0 -->
<g id="edge17" class="edge"><title>&#45;5&#45;&gt;0</title>
<path fill="none" stroke="green" stroke-width="0.173634" d="M696.743,-212.065C717.326,-202.385 759.151,-182.714 785.103,-170.508"/>
<polygon fill="green" stroke="green" stroke-width="0.173634" points="786.635,-173.655 794.194,-166.232 783.656,-167.321 786.635,-173.655"/>
</g>
<!-- &#45;5&#45;&gt;1 -->
<g id="edge18" class="edge"><title>&#45;5&#45;&gt;1</title>
<path fill="none" stroke="red" stroke-width="0.138235" d="M696.874,-212.908C699.693,-211.845 702.687,-210.759 705.5,-209.823 760.763,-191.44 777.876,-196.548 831.5,-173.823 832.353,-173.462 833.213,-173.077 834.074,-172.673"/>
<polygon fill="red" stroke="red" stroke-width="0.138235" points="835.889,-175.673 843.094,-167.905 832.618,-169.484 835.889,-175.673"/>
</g>
<!-- &#45;5&#45;&gt;2 -->
<g id="edge19" class="edge"><title>&#45;5&#45;&gt;2</title>
<path fill="none" stroke="green" stroke-width="0.414769" d="M686.621,-209.714C693.725,-184.205 719.184,-104.975 770.5,-65.6985 821.734,-26.4849 900.503,-17.9053 940.435,-16.1691"/>
<polygon fill="green" stroke="green" stroke-width="0.414769" points="940.731,-19.6615 950.613,-15.8411 940.505,-12.6651 940.731,-19.6615"/>
</g>
<!-- &#45;5&#45;&gt;3 -->
<g id="edge20" class="edge"><title>&#45;5&#45;&gt;3</title>
<path fill="none" stroke="green" stroke-width="0.408894" d="M696.825,-212.752C699.647,-211.697 702.654,-210.654 705.5,-209.823 781.308,-187.696 805.694,-201.916 879.5,-173.823 880.365,-173.494 881.236,-173.136 882.107,-172.755"/>
<polygon fill="green" stroke="green" stroke-width="0.408894" points="883.878,-175.78 891.17,-168.093 880.676,-169.555 883.878,-175.78"/>
</g>
<!-- &#45;6 -->
<g id="node6" class="node"><title>&#45;6</title>
<polygon fill="lightgray" stroke="black" points="344.5,-227.823 320.5,-227.823 320.5,-209.823 344.5,-209.823 344.5,-227.823"/>
<text text-anchor="middle" x="332.5" y="-216.623" font-family="Times New Roman,serif" font-size="9.00">&#45;6</text>
</g>
<!-- &#45;6&#45;&gt;0 -->
<g id="edge21" class="edge"><title>&#45;6&#45;&gt;0</title>
<path fill="none" stroke="red" stroke-width="0.320145" d="M344.771,-212.551C347.596,-211.506 350.618,-210.519 353.5,-209.823 513.409,-171.255 712.283,-162.46 781.962,-160.511"/>
<polygon fill="red" stroke="red" stroke-width="0.320145" points="782.462,-164 792.369,-160.246 782.283,-157.002 782.462,-164"/>
</g>
<!-- &#45;6&#45;&gt;1 -->
<g id="edge22" class="edge"><title>&#45;6&#45;&gt;1</title>
<path fill="none" stroke="red" stroke-width="0.318558" d="M344.754,-212.478C347.58,-211.437 350.606,-210.469 353.5,-209.823 561.431,-163.419 627.924,-236.635 831.5,-173.823 832.557,-173.497 833.618,-173.118 834.674,-172.697"/>
<polygon fill="red" stroke="red" stroke-width="0.318558" points="836.405,-175.745 843.778,-168.137 833.269,-169.486 836.405,-175.745"/>
</g>
<!-- &#45;6&#45;&gt;2 -->
<g id="edge23" class="edge"><title>&#45;6&#45;&gt;2</title>
<path fill="none" stroke="green" stroke-width="0.302285" d="M337.601,-209.765C356.776,-179.594 424.213,-74.5767 439.5,-65.6985 526.109,-15.3997 847.7,-14.6402 940.364,-15.5035"/>
<polygon fill="green" stroke="green" stroke-width="0.302285" points="940.461,-19.0047 950.498,-15.6137 940.537,-12.0051 940.461,-19.0047"/>
</g>
<!-- &#45;6&#45;&gt;3 -->
<g id="edge24" class="edge"><title>&#45;6&#45;&gt;3</title>
<path fill="none" stroke="green" stroke-width="0.226857" d="M344.751,-212.463C347.577,-211.423 350.604,-210.459 353.5,-209.823 582.372,-159.566 655.356,-242.142 879.5,-173.823 880.558,-173.501 881.62,-173.124 882.677,-172.706"/>
<polygon fill="green" stroke="green" stroke-width="0.226857" points="884.403,-175.756 891.783,-168.154 881.274,-169.495 884.403,-175.756"/>
</g>
<!-- &#45;7 -->
<g id="node7" class="node"><title>&#45;7</title>
<polygon fill="lightgray" stroke="black" points="113.5,-227.823 89.5,-227.823 89.5,-209.823 113.5,-209.823 113.5,-227.823"/>
<text text-anchor="middle" x="101.5" y="-216.623" font-family="Times New Roman,serif" font-size="9.00">&#45;7</text>
</g>
<!-- &#45;7&#45;&gt;0 -->
<g id="edge25" class="edge"><title>&#45;7&#45;&gt;0</title>
<path fill="none" stroke="red" stroke-width="0.425077" d="M113.753,-212.472C116.578,-211.432 119.605,-210.466 122.5,-209.823 252.075,-181.078 674.307,-164.63 782.21,-160.829"/>
<polygon fill="red" stroke="red" stroke-width="0.425077" points="782.585,-164.319 792.458,-160.473 782.342,-157.323 782.585,-164.319"/>
</g>
<!-- &#45;7&#45;&gt;1 -->
<g id="edge26" class="edge"><title>&#45;7&#45;&gt;1</title>
<path fill="none" stroke="red" stroke-width="0.102758" d="M113.743,-212.425C116.569,-211.387 119.598,-210.434 122.5,-209.823 431.258,-144.867 528.893,-263.155 831.5,-173.823 832.561,-173.51 833.625,-173.141 834.684,-172.73"/>
<polygon fill="red" stroke="red" stroke-width="0.102758" points="836.4,-175.785 843.797,-168.2 833.284,-169.517 836.4,-175.785"/>
</g>
<!-- &#45;7&#45;&gt;2 -->
<g id="edge27" class="edge"><title>&#45;7&#45;&gt;2</title>
<path fill="none" stroke="green" stroke-width="0.209466" d="M101.404,-209.807C101.577,-183.884 106,-101.911 153.5,-65.6985 217.483,-16.9202 810.859,-15.4823 940.541,-15.7556"/>
<polygon fill="green" stroke="green" stroke-width="0.209466" points="940.664,-19.2559 950.673,-15.7828 940.683,-12.2559 940.664,-19.2559"/>
</g>
<!-- &#45;7&#45;&gt;3 -->
<g id="edge28" class="edge"><title>&#45;7&#45;&gt;3</title>
<path fill="none" stroke="red" stroke-width="0.260027" stroke-dasharray="1,5" d="M113.742,-212.418C116.567,-211.38 119.597,-210.429 122.5,-209.823 287.36,-175.417 717.902,-221.246 879.5,-173.823 880.562,-173.512 881.626,-173.144 882.685,-172.734"/>
<polygon fill="red" stroke="red" stroke-width="0.260027" points="884.399,-175.79 891.8,-168.209 881.286,-169.521 884.399,-175.79"/>
</g>
<!-- &#45;8 -->
<g id="node8" class="node"><title>&#45;8</title>
<polygon fill="lightgray" stroke="black" points="470.5,-227.823 446.5,-227.823 446.5,-209.823 470.5,-209.823 470.5,-227.823"/>
<text text-anchor="middle" x="458.5" y="-216.623" font-family="Times New Roman,serif" font-size="9.00">&#45;8</text>
</g>
<!-- &#45;8&#45;&gt;0 -->
<g id="edge29" class="edge"><title>&#45;8&#45;&gt;0</title>
<path fill="none" stroke="red" stroke-width="0.157086" d="M470.794,-212.639C473.617,-211.59 476.633,-210.578 479.5,-209.823 590.235,-180.673 726.789,-166.735 782.28,-161.962"/>
<polygon fill="red" stroke="red" stroke-width="0.157086" points="782.886,-165.424 792.56,-161.104 782.303,-158.448 782.886,-165.424"/>
</g>
<!-- &#45;8&#45;&gt;1 -->
<g id="edge30" class="edge"><title>&#45;8&#45;&gt;1</title>
<path fill="none" stroke="red" stroke-width="0.162765" d="M470.768,-212.535C473.592,-211.491 476.615,-210.508 479.5,-209.823 632.513,-173.52 681.863,-222.193 831.5,-173.823 832.553,-173.483 833.61,-173.092 834.663,-172.662"/>
<polygon fill="red" stroke="red" stroke-width="0.162765" points="836.409,-175.701 843.756,-168.067 833.252,-169.454 836.409,-175.701"/>
</g>
<!-- &#45;8&#45;&gt;2 -->
<g id="edge31" class="edge"><title>&#45;8&#45;&gt;2</title>
<path fill="none" stroke="green" stroke-width="0.137928" d="M462.404,-209.57C476.311,-180.531 524.117,-83.8394 552.5,-65.6985 617.449,-24.1859 861.232,-17.2434 940.458,-16.0824"/>
<polygon fill="green" stroke="green" stroke-width="0.137928" points="940.555,-19.5815 950.509,-15.9539 940.465,-12.5821 940.555,-19.5815"/>
</g>
<!-- &#45;8&#45;&gt;3 -->
<g id="edge32" class="edge"><title>&#45;8&#45;&gt;3</title>
<path fill="none" stroke="green" stroke-width="0.434236" d="M470.761,-212.509C473.586,-211.466 476.611,-210.49 479.5,-209.823 653.422,-169.675 709.326,-227.691 879.5,-173.823 880.555,-173.489 881.614,-173.104 882.668,-172.678"/>
<polygon fill="green" stroke="green" stroke-width="0.434236" points="884.407,-175.721 891.766,-168.099 881.26,-169.469 884.407,-175.721"/>
</g>
<!-- &#45;9 -->
<g id="node9" class="node"><title>&#45;9</title>
<polygon fill="lightgray" stroke="black" points="654.5,-227.823 630.5,-227.823 630.5,-209.823 654.5,-209.823 654.5,-227.823"/>
<text text-anchor="middle" x="642.5" y="-216.623" font-family="Times New Roman,serif" font-size="9.00">&#45;9</text>
</g>
<!-- &#45;9&#45;&gt;0 -->
<g id="edge33" class="edge"><title>&#45;9&#45;&gt;0</title>
<path fill="none" stroke="red" stroke-width="0.263668" stroke-dasharray="1,5" d="M654.913,-213.022C657.73,-211.953 660.713,-210.836 663.5,-209.823 705.796,-194.45 755.464,-177.497 784.032,-167.851"/>
<polygon fill="red" stroke="red" stroke-width="0.263668" points="785.19,-171.155 793.549,-164.645 782.955,-164.521 785.19,-171.155"/>
</g>
<!-- &#45;9&#45;&gt;1 -->
<g id="edge34" class="edge"><title>&#45;9&#45;&gt;1</title>
<path fill="none" stroke="green" stroke-width="0.178484" d="M654.829,-212.767C657.651,-211.711 660.657,-210.664 663.5,-209.823 736.727,-188.168 760.23,-201.24 831.5,-173.823 832.364,-173.491 833.234,-173.13 834.104,-172.747"/>
<polygon fill="green" stroke="green" stroke-width="0.178484" points="835.88,-175.77 843.163,-168.075 832.671,-169.548 835.88,-175.77"/>
</g>
<!-- &#45;9&#45;&gt;2 -->
<g id="edge35" class="edge"><title>&#45;9&#45;&gt;2</title>
<path fill="none" stroke="red" stroke-width="0.131888" d="M644.55,-209.62C651.446,-183.832 676.352,-103.863 728.5,-65.6985 762.307,-40.957 887.084,-24.5289 940.725,-18.4631"/>
<polygon fill="red" stroke="red" stroke-width="0.131888" points="941.189,-21.9332 950.745,-17.3576 940.421,-14.9754 941.189,-21.9332"/>
</g>
<!-- &#45;9&#45;&gt;3 -->
<g id="edge36" class="edge"><title>&#45;9&#45;&gt;3</title>
<path fill="none" stroke="green" stroke-width="0.437222" d="M654.802,-212.67C657.625,-211.619 660.638,-210.599 663.5,-209.823 757.438,-184.374 787.886,-206.67 879.5,-173.823 880.372,-173.511 881.248,-173.167 882.123,-172.798"/>
<polygon fill="green" stroke="green" stroke-width="0.437222" points="883.87,-175.837 891.207,-168.193 880.705,-169.593 883.87,-175.837"/>
</g>
<!-- &#45;10 -->
<g id="node10" class="node"><title>&#45;10</title>
<polygon fill="lightgray" stroke="black" points="302,-227.823 273,-227.823 273,-209.823 302,-209.823 302,-227.823"/>
<text text-anchor="middle" x="287.5" y="-216.623" font-family="Times New Roman,serif" font-size="9.00">&#45;10</text>
</g>
<!-- &#45;10&#45;&gt;0 -->
<g id="edge37" class="edge"><title>&#45;10&#45;&gt;0</title>
<path fill="none" stroke="green" stroke-width="0.209325" d="M302.08,-212.392C305.157,-211.408 308.408,-210.486 311.5,-209.823 488.99,-171.815 708.573,-162.626 782.145,-160.546"/>
<polygon fill="green" stroke="green" stroke-width="0.209325" points="782.392,-164.041 792.296,-160.279 782.208,-157.043 782.392,-164.041"/>
</g>
<!-- &#45;10&#45;&gt;1 -->
<g id="edge38" class="edge"><title>&#45;10&#45;&gt;1</title>
<path fill="none" stroke="red" stroke-width="0.413686" d="M302.065,-212.318C305.142,-211.339 308.398,-210.437 311.5,-209.823 538.754,-164.836 609.927,-241.454 831.5,-173.823 832.558,-173.5 833.62,-173.124 834.676,-172.705"/>
<polygon fill="red" stroke="red" stroke-width="0.413686" points="836.404,-175.755 843.783,-168.152 833.273,-169.494 836.404,-175.755"/>
</g>
<!-- &#45;10&#45;&gt;2 -->
<g id="edge39" class="edge"><title>&#45;10&#45;&gt;2</title>
<path fill="none" stroke="red" stroke-width="0.465053" d="M294.022,-209.769C301.105,-200.988 312.718,-186.494 322.5,-173.823 359.193,-126.295 351.043,-94.9143 403.5,-65.6985 497.443,-13.3773 843.628,-14.1352 940.287,-15.4113"/>
<polygon fill="red" stroke="red" stroke-width="0.465053" points="940.513,-18.9149 950.563,-15.5621 940.616,-11.9157 940.513,-18.9149"/>
</g>
<!-- &#45;10&#45;&gt;3 -->
<g id="edge40" class="edge"><title>&#45;10&#45;&gt;3</title>
<path fill="none" stroke="green" stroke-width="0.18045" d="M302.062,-212.304C305.14,-211.326 308.396,-210.428 311.5,-209.823 559.778,-161.425 637.354,-246.963 879.5,-173.823 880.559,-173.503 881.622,-173.129 882.679,-172.713"/>
<polygon fill="green" stroke="green" stroke-width="0.18045" points="884.402,-175.764 891.787,-168.167 881.277,-169.501 884.402,-175.764"/>
</g>
<!-- &#45;11 -->
<g id="node11" class="node"><title>&#45;11</title>
<polygon fill="lightgray" stroke="black" points="833,-227.823 804,-227.823 804,-209.823 833,-209.823 833,-227.823"/>
<text text-anchor="middle" x="818.5" y="-216.623" font-family="Times New Roman,serif" font-size="9.00">&#45;11</text>
</g>
<!-- &#45;11&#45;&gt;0 -->
<g id="edge41" class="edge"><title>&#45;11&#45;&gt;0</title>
<path fill="none" stroke="red" stroke-width="0.164684" d="M816.97,-209.78C815.684,-203.013 813.776,-192.981 812.01,-183.69"/>
<polygon fill="red" stroke="red" stroke-width="0.164684" points="815.422,-182.9 810.116,-173.729 808.545,-184.207 815.422,-182.9"/>
</g>
<!-- &#45;11&#45;&gt;1 -->
<g id="edge42" class="edge"><title>&#45;11&#45;&gt;1</title>
<path fill="none" stroke="green" stroke-width="0.154994" d="M823.645,-209.78C828.449,-202.269 835.826,-190.735 842.271,-180.658"/>
<polygon fill="green" stroke="green" stroke-width="0.154994" points="845.388,-182.279 847.828,-171.969 839.491,-178.508 845.388,-182.279"/>
</g>
<!-- &#45;11&#45;&gt;3 -->
<g id="edge43" class="edge"><title>&#45;11&#45;&gt;3</title>
<path fill="none" stroke="red" stroke-width="0.258558" d="M830.319,-209.78C843.944,-200.507 866.577,-185.103 883.072,-173.877"/>
<polygon fill="red" stroke="red" stroke-width="0.258558" points="885.21,-176.656 891.507,-168.136 881.271,-170.869 885.21,-176.656"/>
</g>
<!-- &#45;12 -->
<g id="node12" class="node"><title>&#45;12</title>
<polygon fill="lightgray" stroke="black" points="161,-227.823 132,-227.823 132,-209.823 161,-209.823 161,-227.823"/>
<text text-anchor="middle" x="146.5" y="-216.623" font-family="Times New Roman,serif" font-size="9.00">&#45;12</text>
</g>
<!-- &#45;12&#45;&gt;0 -->
<g id="edge44" class="edge"><title>&#45;12&#45;&gt;0</title>
<path fill="none" stroke="green" stroke-width="0.295502" d="M161.437,-212.009C164.09,-211.155 166.852,-210.378 169.5,-209.823 403.9,-160.755 695.889,-158.976 782.306,-159.639"/>
<polygon fill="green" stroke="green" stroke-width="0.295502" points="782.43,-163.141 792.463,-159.737 782.497,-156.141 782.43,-163.141"/>
</g>
<!-- &#45;12&#45;&gt;1 -->
<g id="edge45" class="edge"><title>&#45;12&#45;&gt;1</title>
<path fill="none" stroke="red" stroke-width="0.243555" d="M161.426,-211.956C164.08,-211.108 166.845,-210.346 169.5,-209.823 458.599,-152.864 549.05,-257.757 831.5,-173.823 832.561,-173.508 833.624,-173.138 834.682,-172.725"/>
<polygon fill="red" stroke="red" stroke-width="0.243555" points="836.4,-175.779 843.794,-168.191 833.282,-169.512 836.4,-175.779"/>
</g>
<!-- &#45;12&#45;&gt;2 -->
<g id="edge46" class="edge"><title>&#45;12&#45;&gt;2</title>
<path fill="none" stroke="red" stroke-width="0.460655" d="M150.442,-209.592C163.675,-183.01 209.425,-99.2456 275.5,-65.6985 335.802,-35.0826 824.114,-19.7521 940.611,-16.5095"/>
<polygon fill="red" stroke="red" stroke-width="0.460655" points="940.797,-20.0059 950.698,-16.2334 940.606,-13.0085 940.797,-20.0059"/>
</g>
<!-- &#45;12&#45;&gt;3 -->
<g id="edge47" class="edge"><title>&#45;12&#45;&gt;3</title>
<path fill="none" stroke="red" stroke-width="0.314221" d="M161.425,-211.948C164.079,-211.101 166.844,-210.342 169.5,-209.823 479.613,-149.314 576.464,-263.27 879.5,-173.823 880.561,-173.51 881.625,-173.141 882.684,-172.73"/>
<polygon fill="red" stroke="red" stroke-width="0.314221" points="884.4,-175.785 891.797,-168.2 881.284,-169.517 884.4,-175.785"/>
</g>
<!-- &#45;13 -->
<g id="node13" class="node"><title>&#45;13</title>
<polygon fill="lightgray" stroke="black" points="518,-227.823 489,-227.823 489,-209.823 518,-209.823 518,-227.823"/>
<text text-anchor="middle" x="503.5" y="-216.623" font-family="Times New Roman,serif" font-size="9.00">&#45;13</text>
</g>
<!-- &#45;13&#45;&gt;0 -->
<g id="edge48" class="edge"><title>&#45;13&#45;&gt;0</title>
<path fill="none" stroke="red" stroke-width="0.333636" d="M518.488,-212.226C521.135,-211.348 523.882,-210.506 526.5,-209.823 619.654,-185.525 733.28,-169.394 782.636,-163.031"/>
<polygon fill="red" stroke="red" stroke-width="0.333636" points="783.215,-166.485 792.695,-161.755 782.334,-159.541 783.215,-166.485"/>
</g>
<!-- &#45;13&#45;&gt;1 -->
<g id="edge49" class="edge"><title>&#45;13&#45;&gt;1</title>
<path fill="none" stroke="red" stroke-width="0.205823" d="M518.457,-212.097C521.107,-211.233 523.863,-210.43 526.5,-209.823 659.522,-179.222 701.951,-216.817 831.5,-173.823 832.379,-173.532 833.261,-173.206 834.142,-172.852"/>
<polygon fill="red" stroke="red" stroke-width="0.205823" points="835.858,-175.907 843.249,-168.316 832.737,-169.641 835.858,-175.907"/>
</g>
<!-- &#45;13&#45;&gt;2 -->
<g id="edge50" class="edge"><title>&#45;13&#45;&gt;2</title>
<path fill="none" stroke="green" stroke-width="0.733578" d="M505.761,-209.805C513.531,-183.875 541.781,-101.884 597.5,-65.6985 654.459,-28.7075 866.914,-18.8394 940.344,-16.505"/>
<polygon fill="green" stroke="green" stroke-width="0.733578" points="940.622,-19.9983 950.514,-16.2023 940.414,-13.0014 940.622,-19.9983"/>
</g>
<!-- &#45;13&#45;&gt;3 -->
<g id="edge51" class="edge"><title>&#45;13&#45;&gt;3</title>
<path fill="none" stroke="green" stroke-width="0.377387" d="M518.449,-212.062C521.1,-211.202 523.858,-210.409 526.5,-209.823 680.464,-175.687 729.435,-222.308 879.5,-173.823 880.553,-173.483 881.61,-173.092 882.663,-172.663"/>
<polygon fill="green" stroke="green" stroke-width="0.377387" points="884.409,-175.702 891.756,-168.068 881.252,-169.454 884.409,-175.702"/>
</g>
<!-- &#45;14 -->
<g id="node14" class="node"><title>&#45;14</title>
<polygon fill="lightgray" stroke="black" points="612,-227.823 583,-227.823 583,-209.823 612,-209.823 612,-227.823"/>
<text text-anchor="middle" x="597.5" y="-216.623" font-family="Times New Roman,serif" font-size="9.00">&#45;14</text>
</g>
<!-- &#45;14&#45;&gt;0 -->
<g id="edge52" class="edge"><title>&#45;14&#45;&gt;0</title>
<path fill="none" stroke="green" stroke-width="0.441112" d="M612.179,-212.776C615.248,-211.764 618.471,-210.733 621.5,-209.823 678.952,-192.566 747.247,-175.01 782.958,-166.053"/>
<polygon fill="green" stroke="green" stroke-width="0.441112" points="784.092,-169.377 792.946,-163.559 782.396,-162.585 784.092,-169.377"/>
</g>
<!-- &#45;14&#45;&gt;1 -->
<g id="edge53" class="edge"><title>&#45;14&#45;&gt;1</title>
<path fill="none" stroke="red" stroke-width="0.48556" d="M612.119,-212.558C615.192,-211.562 618.433,-210.593 621.5,-209.823 713.349,-186.784 742.436,-205.989 831.5,-173.823 832.371,-173.509 833.247,-173.163 834.121,-172.793"/>
<polygon fill="red" stroke="red" stroke-width="0.48556" points="835.871,-175.83 843.202,-168.181 832.701,-169.589 835.871,-175.83"/>
</g>
<!-- &#45;14&#45;&gt;2 -->
<g id="edge54" class="edge"><title>&#45;14&#45;&gt;2</title>
<path fill="none" stroke="green" stroke-width="0.419475" d="M599.665,-209.546C606.931,-183.538 633.047,-102.988 686.5,-65.6985 727.625,-37.0091 880.112,-22.4047 940.572,-17.6426"/>
<polygon fill="green" stroke="green" stroke-width="0.419475" points="941.038,-21.1173 950.743,-16.8668 940.506,-14.1376 941.038,-21.1173"/>
</g>
<!-- &#45;14&#45;&gt;3 -->
<g id="edge55" class="edge"><title>&#45;14&#45;&gt;3</title>
<path fill="none" stroke="green" stroke-width="0.286569" d="M612.101,-212.484C615.176,-211.493 618.421,-210.545 621.5,-209.823 734.224,-183.407 770.007,-211.451 879.5,-173.823 880.376,-173.522 881.256,-173.188 882.134,-172.828"/>
<polygon fill="green" stroke="green" stroke-width="0.286569" points="883.864,-175.876 891.231,-168.261 880.723,-169.62 883.864,-175.876"/>
</g>
<!-- &#45;15 -->
<g id="node15" class="node"><title>&#45;15</title>
<polygon fill="lightgray" stroke="black" points="255,-227.823 226,-227.823 226,-209.823 255,-209.823 255,-227.823"/>
<text text-anchor="middle" x="240.5" y="-216.623" font-family="Times New Roman,serif" font-size="9.00">&#45;15</text>
</g>
<!-- &#45;15&#45;&gt;0 -->
<g id="edge56" class="edge"><title>&#45;15&#45;&gt;0</title>
<path fill="none" stroke="green" stroke-width="0.149111" d="M255.444,-212.039C258.096,-211.182 260.855,-210.396 263.5,-209.823 460.08,-167.295 704.284,-161.019 782.307,-160.117"/>
<polygon fill="green" stroke="green" stroke-width="0.149111" points="782.621,-163.614 792.587,-160.019 782.554,-156.615 782.621,-163.614"/>
</g>
<!-- &#45;15&#45;&gt;1 -->
<g id="edge57" class="edge"><title>&#45;15&#45;&gt;1</title>
<path fill="none" stroke="green" stroke-width="0.301525" d="M255.43,-211.976C258.084,-211.126 260.848,-210.358 263.5,-209.823 511.458,-159.814 589.354,-246.963 831.5,-173.823 832.559,-173.503 833.622,-173.129 834.679,-172.713"/>
<polygon fill="green" stroke="green" stroke-width="0.301525" points="836.402,-175.764 843.787,-168.167 833.277,-169.501 836.402,-175.764"/>
</g>
<!-- &#45;15&#45;&gt;2 -->
<g id="edge58" class="edge"><title>&#45;15&#45;&gt;2</title>
<path fill="none" stroke="red" stroke-width="0.265711" d="M249.8,-209.542C259.096,-201.038 273.545,-187.193 284.5,-173.823 321.091,-129.165 306.759,-95.0099 356.5,-65.6985 407.476,-35.6591 832.146,-20.1172 940.442,-16.619"/>
<polygon fill="red" stroke="red" stroke-width="0.265711" points="940.837,-20.1083 950.721,-16.2927 940.615,-13.1119 940.837,-20.1083"/>
</g>
<!-- &#45;15&#45;&gt;3 -->
<g id="edge59" class="edge"><title>&#45;15&#45;&gt;3</title>
<path fill="none" stroke="green" stroke-width="0.269954" d="M255.428,-211.965C258.082,-211.116 260.846,-210.352 263.5,-209.823 532.464,-156.265 616.775,-252.474 879.5,-173.823 880.56,-173.506 881.623,-173.134 882.681,-172.72"/>
<polygon fill="green" stroke="green" stroke-width="0.269954" points="884.401,-175.773 891.791,-168.18 881.28,-169.507 884.401,-175.773"/>
</g>
<!-- &#45;16 -->
<g id="node16" class="node"><title>&#45;16</title>
<polygon fill="lightgray" stroke="black" points="208,-227.823 179,-227.823 179,-209.823 208,-209.823 208,-227.823"/>
<text text-anchor="middle" x="193.5" y="-216.623" font-family="Times New Roman,serif" font-size="9.00">&#45;16</text>
</g>
<!-- &#45;16&#45;&gt;0 -->
<g id="edge60" class="edge"><title>&#45;16&#45;&gt;0</title>
<path fill="none" stroke="red" stroke-width="0.283425" d="M208.44,-212.023C211.093,-211.167 213.853,-210.386 216.5,-209.823 431.713,-164.078 699.403,-159.969 782.029,-159.86"/>
<polygon fill="red" stroke="red" stroke-width="0.283425" points="782.225,-163.36 792.227,-159.867 782.229,-156.36 782.225,-163.36"/>
</g>
<!-- &#45;16&#45;&gt;1 -->
<g id="edge61" class="edge"><title>&#45;16&#45;&gt;1</title>
<path fill="none" stroke="green" stroke-width="0.298654" d="M208.428,-211.965C211.082,-211.116 213.846,-210.352 216.5,-209.823 485.027,-156.339 569.204,-252.359 831.5,-173.823 832.56,-173.506 833.623,-173.134 834.681,-172.719"/>
<polygon fill="green" stroke="green" stroke-width="0.298654" points="836.401,-175.772 843.791,-168.18 833.28,-169.507 836.401,-175.772"/>
</g>
<!-- &#45;16&#45;&gt;2 -->
<g id="edge62" class="edge"><title>&#45;16&#45;&gt;2</title>
<path fill="none" stroke="red" stroke-width="0.301802" d="M205.379,-209.663C216.776,-201.463 234.046,-188.033 246.5,-173.823 283.918,-131.131 265.894,-95.027 314.5,-65.6985 368.918,-32.8632 827.66,-19.3001 940.501,-16.4432"/>
<polygon fill="red" stroke="red" stroke-width="0.301802" points="940.686,-19.9398 950.596,-16.1931 940.512,-12.9419 940.686,-19.9398"/>
</g>
<!-- &#45;16&#45;&gt;3 -->
<g id="edge63" class="edge"><title>&#45;16&#45;&gt;3</title>
<path fill="none" stroke="red" stroke-width="0.531273" d="M208.426,-211.956C211.08,-211.108 213.845,-210.346 216.5,-209.823 506.037,-152.79 596.621,-257.872 879.5,-173.823 880.561,-173.508 881.624,-173.138 882.682,-172.725"/>
<polygon fill="red" stroke="red" stroke-width="0.531273" points="884.4,-175.779 891.794,-168.191 881.282,-169.512 884.4,-175.779"/>
</g>
<!-- &#45;17 -->
<g id="node17" class="node"><title>&#45;17</title>
<polygon fill="lightgray" stroke="black" points="565,-227.823 536,-227.823 536,-209.823 565,-209.823 565,-227.823"/>
<text text-anchor="middle" x="550.5" y="-216.623" font-family="Times New Roman,serif" font-size="9.00">&#45;17</text>
</g>
<!-- &#45;17&#45;&gt;0 -->
<g id="edge64" class="edge"><title>&#45;17&#45;&gt;0</title>
<path fill="none" stroke="red" stroke-width="0.213984" stroke-dasharray="1,5" d="M565.014,-212.468C567.81,-211.524 570.731,-210.597 573.5,-209.823 648.761,-188.807 739.774,-171.759 782.745,-164.197"/>
<polygon fill="red" stroke="red" stroke-width="0.213984" points="783.581,-167.604 792.833,-162.441 782.381,-160.707 783.581,-167.604"/>
</g>
<!-- &#45;17&#45;&gt;1 -->
<g id="edge65" class="edge"><title>&#45;17&#45;&gt;1</title>
<path fill="none" stroke="green" stroke-width="0.443297" d="M565.468,-212.144C568.117,-211.275 570.87,-210.458 573.5,-209.823 686.05,-182.675 722.007,-211.451 831.5,-173.823 832.376,-173.522 833.256,-173.188 834.134,-172.828"/>
<polygon fill="green" stroke="green" stroke-width="0.443297" points="835.864,-175.876 843.231,-168.261 832.723,-169.62 835.864,-175.876"/>
</g>
<!-- &#45;17&#45;&gt;2 -->
<g id="edge66" class="edge"><title>&#45;17&#45;&gt;2</title>
<path fill="none" stroke="red" stroke-width="0.412235" d="M552.791,-209.485C560.459,-183.298 587.873,-102.275 642.5,-65.6985 691.404,-32.9542 873.155,-20.5441 940.333,-17.0148"/>
<polygon fill="red" stroke="red" stroke-width="0.412235" points="940.633,-20.5042 950.444,-16.5059 940.281,-13.5131 940.633,-20.5042"/>
</g>
<!-- &#45;17&#45;&gt;3 -->
<g id="edge67" class="edge"><title>&#45;17&#45;&gt;3</title>
<path fill="none" stroke="red" stroke-width="0.319905" d="M565.456,-212.096C568.107,-211.233 570.863,-210.429 573.5,-209.823 706.958,-179.148 749.524,-216.931 879.5,-173.823 880.379,-173.532 881.261,-173.206 882.142,-172.852"/>
<polygon fill="red" stroke="red" stroke-width="0.319905" points="883.858,-175.908 891.249,-168.317 880.738,-169.642 883.858,-175.908"/>
</g>
<!-- &#45;18 -->
<g id="node18" class="node"><title>&#45;18</title>
<polygon fill="lightgray" stroke="black" points="29,-227.823 0,-227.823 0,-209.823 29,-209.823 29,-227.823"/>
<text text-anchor="middle" x="14.5" y="-216.623" font-family="Times New Roman,serif" font-size="9.00">&#45;18</text>
</g>
<!-- &#45;18&#45;&gt;0 -->
<g id="edge68" class="edge"><title>&#45;18&#45;&gt;0</title>
<path fill="none" stroke="green" stroke-width="0.566487" d="M29.0629,-212.307C32.1404,-211.329 35.3966,-210.431 38.5,-209.823 185.896,-180.98 666.267,-164.386 782.167,-160.742"/>
<polygon fill="green" stroke="green" stroke-width="0.566487" points="782.62,-164.229 792.507,-160.421 782.403,-157.233 782.62,-164.229"/>
</g>
<!-- &#45;18&#45;&gt;1 -->
<g id="edge69" class="edge"><title>&#45;18&#45;&gt;1</title>
<path fill="none" stroke="green" stroke-width="0.175622" d="M29.054,-212.26C32.1322,-211.286 35.3908,-210.401 38.5,-209.823 211.94,-177.625 662.181,-223.314 831.5,-173.823 832.562,-173.513 833.627,-173.147 834.686,-172.737"/>
<polygon fill="green" stroke="green" stroke-width="0.175622" points="836.399,-175.794 843.801,-168.214 833.287,-169.523 836.399,-175.794"/>
</g>
<!-- &#45;18&#45;&gt;2 -->
<g id="edge70" class="edge"><title>&#45;18&#45;&gt;2</title>
<path fill="none" stroke="red" stroke-width="0.428017" d="M15.22,-209.724C18.0267,-183.546 30.7441,-100.881 81.5,-65.6985 153.768,-15.6042 803.084,-15.2352 940.161,-15.7216"/>
<polygon fill="red" stroke="red" stroke-width="0.428017" points="940.468,-19.2228 950.483,-15.7636 940.497,-12.2228 940.468,-19.2228"/>
</g>
<!-- &#45;18&#45;&gt;3 -->
<g id="edge71" class="edge"><title>&#45;18&#45;&gt;3</title>
<path fill="none" stroke="red" stroke-width="0.113337" d="M29.0528,-212.254C32.1311,-211.28 35.3901,-210.397 38.5,-209.823 222.462,-175.917 699.885,-226.071 879.5,-173.823 880.562,-173.514 881.628,-173.149 882.687,-172.74"/>
<polygon fill="red" stroke="red" stroke-width="0.113337" points="884.398,-175.798 891.803,-168.221 881.289,-169.526 884.398,-175.798"/>
</g>
<!-- 181 -->
<g id="node46" class="node"><title>181</title>
<ellipse fill="white" stroke="black" cx="183.5" cy="-86.9117" rx="21.4286" ry="21.4286"/>
<text text-anchor="middle" x="183.5" y="-84.7117" font-family="Times New Roman,serif" font-size="9.00">181</text>
</g>
<!-- &#45;18&#45;&gt;181 -->
<g id="edge157" class="edge"><title>&#45;18&#45;&gt;181</title>
<path fill="none" stroke="green" stroke-width="0.365854" d="M25.0717,-209.697C51.4968,-189.384 120.992,-135.962 158.554,-107.088"/>
<polygon fill="green" stroke="green" stroke-width="0.365854" points="161.138,-109.516 166.934,-100.646 156.872,-103.966 161.138,-109.516"/>
</g>
<!-- &#45;19 -->
<g id="node19" class="node"><title>&#45;19</title>
<polygon fill="lightgray" stroke="black" points="1585,-227.823 1556,-227.823 1556,-209.823 1585,-209.823 1585,-227.823"/>
<text text-anchor="middle" x="1570.5" y="-216.623" font-family="Times New Roman,serif" font-size="9.00">&#45;19</text>
</g>
<!-- &#45;19&#45;&gt;0 -->
<g id="edge72" class="edge"><title>&#45;19&#45;&gt;0</title>
<path fill="none" stroke="red" stroke-width="0.213693" d="M1555.94,-212.272C1552.87,-211.297 1549.61,-210.408 1546.5,-209.823 1390.15,-180.398 984.09,-218.834 831.5,-173.823 830.439,-173.51 829.374,-173.142 828.316,-172.73"/>
<polygon fill="red" stroke="red" stroke-width="0.213693" points="829.715,-169.517 819.203,-168.201 826.6,-175.786 829.715,-169.517"/>
</g>
<!-- &#45;19&#45;&gt;1 -->
<g id="edge73" class="edge"><title>&#45;19&#45;&gt;1</title>
<path fill="none" stroke="green" stroke-width="0.149456" d="M1555.94,-212.281C1552.86,-211.305 1549.61,-210.414 1546.5,-209.823 1254.85,-154.387 1164.09,-258.331 879.5,-173.823 878.439,-173.508 877.376,-173.138 876.318,-172.725"/>
<polygon fill="green" stroke="green" stroke-width="0.149456" points="877.718,-169.513 867.205,-168.192 874.6,-175.78 877.718,-169.513"/>
</g>
<!-- &#45;19&#45;&gt;2 -->
<g id="edge74" class="edge"><title>&#45;19&#45;&gt;2</title>
<path fill="none" stroke="red" stroke-width="0.197655" d="M1565.01,-209.652C1546.76,-183.254 1485.01,-99.9909 1410.5,-65.6985 1334.71,-30.819 1073.2,-19.3855 990.665,-16.6012"/>
<polygon fill="red" stroke="red" stroke-width="0.197655" points="990.562,-13.0961 980.454,-16.2706 990.335,-20.0924 990.562,-13.0961"/>
</g>
<!-- &#45;19&#45;&gt;3 -->
<g id="edge75" class="edge"><title>&#45;19&#45;&gt;3</title>
<path fill="none" stroke="red" stroke-width="0.531242" d="M1555.93,-212.337C1552.85,-211.357 1549.6,-210.45 1546.5,-209.823 1309.94,-161.979 1015.88,-159.363 928.867,-159.731"/>
<polygon fill="red" stroke="red" stroke-width="0.531242" points="928.619,-156.232 918.64,-159.793 928.661,-163.232 928.619,-156.232"/>
</g>
<!-- &#45;20 -->
<g id="node20" class="node"><title>&#45;20</title>
<polygon fill="lightgray" stroke="black" points="1773,-227.823 1744,-227.823 1744,-209.823 1773,-209.823 1773,-227.823"/>
<text text-anchor="middle" x="1758.5" y="-216.623" font-family="Times New Roman,serif" font-size="9.00">&#45;20</text>
</g>
<!-- &#45;20&#45;&gt;1 -->
<g id="edge76" class="edge"><title>&#45;20&#45;&gt;1</title>
<path fill="none" stroke="green" stroke-width="0.209805" d="M1743.95,-212.252C1740.87,-211.279 1737.61,-210.395 1734.5,-209.823 1547.47,-175.419 1062.12,-226.876 879.5,-173.823 878.437,-173.515 877.372,-173.15 876.313,-172.741"/>
<polygon fill="green" stroke="green" stroke-width="0.209805" points="877.711,-169.527 867.196,-168.223 874.602,-175.799 877.711,-169.527"/>
</g>
<!-- &#45;20&#45;&gt;2 -->
<g id="edge77" class="edge"><title>&#45;20&#45;&gt;2</title>
<path fill="none" stroke="green" stroke-width="0.117575" d="M1759.23,-209.516C1761.02,-183.422 1762.55,-102.643 1717.5,-65.6985 1660.17,-18.6843 1114.86,-15.8443 990.611,-15.8109"/>
<polygon fill="green" stroke="green" stroke-width="0.117575" points="990.536,-12.3108 980.537,-15.8144 990.539,-19.3108 990.536,-12.3108"/>
</g>
<!-- &#45;20&#45;&gt;3 -->
<g id="edge78" class="edge"><title>&#45;20&#45;&gt;3</title>
<path fill="none" stroke="green" stroke-width="0.372247" d="M1743.94,-212.295C1740.86,-211.318 1737.6,-210.423 1734.5,-209.823 1574.18,-178.853 1049.52,-163.72 928.541,-160.593"/>
<polygon fill="green" stroke="green" stroke-width="0.372247" points="928.5,-157.091 918.415,-160.336 928.322,-164.089 928.5,-157.091"/>
</g>
<!-- &#45;21 -->
<g id="node21" class="node"><title>&#45;21</title>
<polygon fill="lightgray" stroke="black" points="1726,-227.823 1697,-227.823 1697,-209.823 1726,-209.823 1726,-227.823"/>
<text text-anchor="middle" x="1711.5" y="-216.623" font-family="Times New Roman,serif" font-size="9.00">&#45;21</text>
</g>
<!-- &#45;21&#45;&gt;0 -->
<g id="edge79" class="edge"><title>&#45;21&#45;&gt;0</title>
<path fill="none" stroke="green" stroke-width="0.360475" d="M1696.95,-212.252C1693.87,-211.278 1690.61,-210.395 1687.5,-209.823 1500.25,-175.384 1014.33,-226.933 831.5,-173.823 830.437,-173.515 829.372,-173.15 828.313,-172.741"/>
<polygon fill="green" stroke="green" stroke-width="0.360475" points="829.711,-169.527 819.196,-168.223 826.602,-175.799 829.711,-169.527"/>
</g>
<!-- &#45;21&#45;&gt;1 -->
<g id="edge80" class="edge"><title>&#45;21&#45;&gt;1</title>
<path fill="none" stroke="green" stroke-width="0.460397" d="M1696.95,-212.258C1693.87,-211.284 1690.61,-210.399 1687.5,-209.823 1510.77,-177.091 1052.04,-224.176 879.5,-173.823 878.438,-173.513 877.373,-173.147 876.314,-172.738"/>
<polygon fill="green" stroke="green" stroke-width="0.460397" points="877.712,-169.524 867.198,-168.217 874.602,-175.795 877.712,-169.524"/>
</g>
<!-- &#45;21&#45;&gt;2 -->
<g id="edge81" class="edge"><title>&#45;21&#45;&gt;2</title>
<path fill="none" stroke="red" stroke-width="0.17529" stroke-dasharray="1,5" d="M1713.5,-209.678C1719.24,-184.063 1732.85,-104.553 1691.5,-65.6985 1639.44,-16.7765 1112.62,-15.3892 990.624,-15.7295"/>
<polygon fill="red" stroke="red" stroke-width="0.17529" points="990.397,-12.2302 980.409,-15.7651 990.422,-19.2302 990.397,-12.2302"/>
</g>
<!-- &#45;21&#45;&gt;3 -->
<g id="edge82" class="edge"><title>&#45;21&#45;&gt;3</title>
<path fill="none" stroke="green" stroke-width="0.399377" d="M1696.94,-212.304C1693.86,-211.326 1690.6,-210.429 1687.5,-209.823 1536.91,-180.452 1045.44,-164.203 928.592,-160.698"/>
<polygon fill="green" stroke="green" stroke-width="0.399377" points="928.577,-157.196 918.478,-160.399 928.37,-164.193 928.577,-157.196"/>
</g>
<!-- 560 -->
<g id="node45" class="node"><title>560</title>
<ellipse fill="white" stroke="black" cx="1661.5" cy="-86.9117" rx="21.4286" ry="21.4286"/>
<text text-anchor="middle" x="1661.5" y="-84.7117" font-family="Times New Roman,serif" font-size="9.00">560</text>
</g>
<!-- &#45;21&#45;&gt;560 -->
<g id="edge159" class="edge"><title>&#45;21&#45;&gt;560</title>
<path fill="none" stroke="green" stroke-width="0.3" d="M1708.37,-209.697C1701.34,-191.431 1684.01,-146.394 1672.51,-116.507"/>
<polygon fill="green" stroke="green" stroke-width="0.3" points="1675.71,-115.088 1668.85,-107.013 1669.18,-117.603 1675.71,-115.088"/>
</g>
<!-- &#45;22 -->
<g id="node22" class="node"><title>&#45;22</title>
<polygon fill="lightgray" stroke="black" points="1491,-227.823 1462,-227.823 1462,-209.823 1491,-209.823 1491,-227.823"/>
<text text-anchor="middle" x="1476.5" y="-216.623" font-family="Times New Roman,serif" font-size="9.00">&#45;22</text>
</g>
<!-- &#45;22&#45;&gt;0 -->
<g id="edge83" class="edge"><title>&#45;22&#45;&gt;0</title>
<path fill="none" stroke="green" stroke-width="0.225881" d="M1461.94,-212.291C1458.86,-211.314 1455.61,-210.42 1452.5,-209.823 1181,-157.657 1096.37,-253.048 831.5,-173.823 830.44,-173.506 829.377,-173.134 828.319,-172.72"/>
<polygon fill="green" stroke="green" stroke-width="0.225881" points="829.72,-169.508 819.209,-168.182 826.599,-175.773 829.72,-169.508"/>
</g>
<!-- &#45;22&#45;&gt;1 -->
<g id="edge84" class="edge"><title>&#45;22&#45;&gt;1</title>
<path fill="none" stroke="red" stroke-width="0.483815" d="M1461.94,-212.302C1458.86,-211.325 1455.6,-210.428 1452.5,-209.823 1202.03,-161.069 1123.79,-247.537 879.5,-173.823 878.441,-173.504 877.378,-173.13 876.321,-172.714"/>
<polygon fill="red" stroke="red" stroke-width="0.483815" points="877.723,-169.502 867.212,-168.169 874.598,-175.765 877.723,-169.502"/>
</g>
<!-- &#45;22&#45;&gt;2 -->
<g id="edge85" class="edge"><title>&#45;22&#45;&gt;2</title>
<path fill="none" stroke="green" stroke-width="0.315629" d="M1471.25,-209.76C1453.77,-183.694 1394.6,-101.331 1322.5,-65.6985 1263.79,-36.6822 1062.44,-21.7909 990.942,-17.3237"/>
<polygon fill="green" stroke="green" stroke-width="0.315629" points="990.817,-13.8097 980.623,-16.6957 990.392,-20.7968 990.817,-13.8097"/>
</g>
<!-- &#45;22&#45;&gt;3 -->
<g id="edge86" class="edge"><title>&#45;22&#45;&gt;3</title>
<path fill="none" stroke="green" stroke-width="0.168408" d="M1461.92,-212.369C1458.85,-211.387 1455.6,-210.471 1452.5,-209.823 1253.84,-168.278 1007.57,-161.356 928.9,-160.204"/>
<polygon fill="green" stroke="green" stroke-width="0.168408" points="928.579,-156.7 918.535,-160.072 928.49,-163.699 928.579,-156.7"/>
</g>
<!-- &#45;23 -->
<g id="node23" class="node"><title>&#45;23</title>
<polygon fill="lightgray" stroke="black" points="1115,-227.823 1086,-227.823 1086,-209.823 1115,-209.823 1115,-227.823"/>
<text text-anchor="middle" x="1100.5" y="-216.623" font-family="Times New Roman,serif" font-size="9.00">&#45;23</text>
</g>
<!-- &#45;23&#45;&gt;0 -->
<g id="edge87" class="edge"><title>&#45;23&#45;&gt;0</title>
<path fill="none" stroke="green" stroke-width="0.182347" d="M1085.89,-212.501C1082.82,-211.509 1079.58,-210.556 1076.5,-209.823 969.437,-184.323 935.453,-209.969 831.5,-173.823 830.625,-173.519 829.746,-173.183 828.869,-172.82"/>
<polygon fill="green" stroke="green" stroke-width="0.182347" points="830.282,-169.613 819.776,-168.243 827.134,-175.865 830.282,-169.613"/>
</g>
<!-- &#45;23&#45;&gt;1 -->
<g id="edge88" class="edge"><title>&#45;23&#45;&gt;1</title>
<path fill="none" stroke="red" stroke-width="0.261828" d="M1085.87,-212.584C1082.8,-211.586 1079.56,-210.61 1076.5,-209.823 990.289,-187.695 963.046,-204.515 879.5,-173.823 878.631,-173.504 877.757,-173.154 876.883,-172.781"/>
<polygon fill="red" stroke="red" stroke-width="0.261828" points="878.306,-169.578 867.808,-168.153 875.126,-175.814 878.306,-169.578"/>
</g>
<!-- &#45;23&#45;&gt;2 -->
<g id="edge89" class="edge"><title>&#45;23&#45;&gt;2</title>
<path fill="none" stroke="red" stroke-width="0.346964" d="M1097.4,-209.651C1088.13,-185.865 1058.89,-115.229 1020.5,-65.6985 1010.31,-52.5489 996.41,-39.9851 985.134,-30.7601"/>
<polygon fill="red" stroke="red" stroke-width="0.346964" points="987.136,-27.88 977.128,-24.402 982.782,-33.3618 987.136,-27.88"/>
</g>
<!-- &#45;23&#45;&gt;3 -->
<g id="edge90" class="edge"><title>&#45;23&#45;&gt;3</title>
<path fill="none" stroke="red" stroke-width="0.134209" d="M1085.81,-212.82C1082.74,-211.805 1079.52,-210.761 1076.5,-209.823 1023.71,-193.426 961.289,-175.893 927.742,-166.62"/>
<polygon fill="red" stroke="red" stroke-width="0.134209" points="928.484,-163.194 917.913,-163.911 926.624,-169.942 928.484,-163.194"/>
</g>
<!-- &#45;24 -->
<g id="node24" class="node"><title>&#45;24</title>
<polygon fill="lightgray" stroke="black" points="974,-227.823 945,-227.823 945,-209.823 974,-209.823 974,-227.823"/>
<text text-anchor="middle" x="959.5" y="-216.623" font-family="Times New Roman,serif" font-size="9.00">&#45;24</text>
</g>
<!-- &#45;24&#45;&gt;0 -->
<g id="edge91" class="edge"><title>&#45;24&#45;&gt;0</title>
<path fill="none" stroke="red" stroke-width="0.508367" d="M944.572,-212.778C911.964,-201.744 836.847,-176.258 831.5,-173.823 830.657,-173.44 829.805,-173.035 828.951,-172.616"/>
<polygon fill="red" stroke="red" stroke-width="0.508367" points="830.428,-169.436 819.964,-167.773 827.107,-175.598 830.428,-169.436"/>
</g>
<!-- &#45;24&#45;&gt;1 -->
<g id="edge92" class="edge"><title>&#45;24&#45;&gt;1</title>
<path fill="none" stroke="red" stroke-width="0.396042" d="M944.998,-209.964C928.933,-201.229 902.286,-186.662 879.5,-173.823 878.693,-173.369 877.872,-172.904 877.043,-172.434"/>
<polygon fill="red" stroke="red" stroke-width="0.396042" points="878.594,-169.288 868.177,-167.354 875.114,-175.362 878.594,-169.288"/>
</g>
<!-- &#45;24&#45;&gt;2 -->
<g id="edge93" class="edge"><title>&#45;24&#45;&gt;2</title>
<path fill="none" stroke="green" stroke-width="0.171338" stroke-dasharray="1,5" d="M959.743,-209.656C960.589,-181.157 963.434,-85.4005 964.781,-40.0521"/>
<polygon fill="green" stroke="green" stroke-width="0.171338" points="968.283,-40.0284 965.082,-29.9288 961.286,-39.8205 968.283,-40.0284"/>
</g>
<!-- &#45;24&#45;&gt;3 -->
<g id="edge94" class="edge"><title>&#45;24&#45;&gt;3</title>
<path fill="none" stroke="red" stroke-width="0.349784" d="M951.713,-209.78C943.685,-201.486 930.908,-188.287 920.524,-177.56"/>
<polygon fill="red" stroke="red" stroke-width="0.349784" points="922.958,-175.042 913.487,-170.291 917.928,-179.911 922.958,-175.042"/>
</g>
<!-- &#45;25 -->
<g id="node25" class="node"><title>&#45;25</title>
<polygon fill="lightgray" stroke="black" points="1350,-227.823 1321,-227.823 1321,-209.823 1350,-209.823 1350,-227.823"/>
<text text-anchor="middle" x="1335.5" y="-216.623" font-family="Times New Roman,serif" font-size="9.00">&#45;25</text>
</g>
<!-- &#45;25&#45;&gt;0 -->
<g id="edge95" class="edge"><title>&#45;25&#45;&gt;0</title>
<path fill="none" stroke="red" stroke-width="0.210899" d="M1320.93,-212.331C1317.86,-211.352 1314.6,-210.446 1311.5,-209.823 1101.76,-167.677 1035.93,-236.864 831.5,-173.823 830.443,-173.497 829.382,-173.118 828.326,-172.698"/>
<polygon fill="red" stroke="red" stroke-width="0.210899" points="829.73,-169.487 819.222,-168.137 826.595,-175.745 829.73,-169.487"/>
</g>
<!-- &#45;25&#45;&gt;1 -->
<g id="edge96" class="edge"><title>&#45;25&#45;&gt;1</title>
<path fill="none" stroke="red" stroke-width="0.288815" d="M1320.93,-212.351C1317.85,-211.37 1314.6,-210.459 1311.5,-209.823 1122.77,-171.085 1063.37,-231.359 879.5,-173.823 878.444,-173.493 877.384,-173.11 876.329,-172.687"/>
<polygon fill="red" stroke="red" stroke-width="0.288815" points="877.736,-169.477 867.229,-168.116 874.594,-175.732 877.736,-169.477"/>
</g>
<!-- &#45;25&#45;&gt;2 -->
<g id="edge97" class="edge"><title>&#45;25&#45;&gt;2</title>
<path fill="none" stroke="red" stroke-width="0.211819" d="M1330.54,-209.609C1314.49,-183.788 1261.11,-103.733 1194.5,-65.6985 1127.73,-27.5691 1034.74,-18.5692 990.635,-16.4702"/>
<polygon fill="red" stroke="red" stroke-width="0.211819" points="990.65,-12.9681 980.52,-16.0717 990.375,-19.9627 990.65,-12.9681"/>
</g>
<!-- &#45;25&#45;&gt;3 -->
<g id="edge98" class="edge"><title>&#45;25&#45;&gt;3</title>
<path fill="none" stroke="red" stroke-width="0.334667" d="M1320.91,-212.443C1317.83,-211.456 1314.58,-210.519 1311.5,-209.823 1168.7,-177.641 992.781,-165.027 928.51,-161.285"/>
<polygon fill="red" stroke="red" stroke-width="0.334667" points="928.685,-157.789 918.504,-160.722 928.292,-164.778 928.685,-157.789"/>
</g>
<!-- &#45;26 -->
<g id="node26" class="node"><title>&#45;26</title>
<polygon fill="lightgray" stroke="black" points="1632,-227.823 1603,-227.823 1603,-209.823 1632,-209.823 1632,-227.823"/>
<text text-anchor="middle" x="1617.5" y="-216.623" font-family="Times New Roman,serif" font-size="9.00">&#45;26</text>
</g>
<!-- &#45;26&#45;&gt;0 -->
<g id="edge99" class="edge"><title>&#45;26&#45;&gt;0</title>
<path fill="none" stroke="red" stroke-width="0.394883" d="M1602.95,-212.265C1599.87,-211.29 1596.61,-210.403 1593.5,-209.823 1426.85,-178.727 994.17,-221.533 831.5,-173.823 830.438,-173.512 829.374,-173.145 828.315,-172.734"/>
<polygon fill="red" stroke="red" stroke-width="0.394883" points="829.714,-169.521 819.2,-168.209 826.601,-175.791 829.714,-169.521"/>
</g>
<!-- &#45;26&#45;&gt;1 -->
<g id="edge100" class="edge"><title>&#45;26&#45;&gt;1</title>
<path fill="none" stroke="red" stroke-width="0.46462" d="M1602.94,-212.272C1599.87,-211.297 1596.61,-210.408 1593.5,-209.823 1437.37,-180.434 1031.88,-218.776 879.5,-173.823 878.439,-173.51 877.375,-173.142 876.316,-172.73"/>
<polygon fill="red" stroke="red" stroke-width="0.46462" points="877.715,-169.517 867.203,-168.201 874.6,-175.786 877.715,-169.517"/>
</g>
<!-- &#45;26&#45;&gt;2 -->
<g id="edge101" class="edge"><title>&#45;26&#45;&gt;2</title>
<path fill="none" stroke="red" stroke-width="0.347245" d="M1611.93,-209.621C1593.4,-183.13 1530.78,-99.6129 1455.5,-65.6985 1371.02,-27.6366 1078.38,-18.2925 990.589,-16.3215"/>
<polygon fill="red" stroke="red" stroke-width="0.347245" points="990.553,-12.82 980.481,-16.1074 990.404,-19.8184 990.553,-12.82"/>
</g>
<!-- &#45;26&#45;&gt;3 -->
<g id="edge102" class="edge"><title>&#45;26&#45;&gt;3</title>
<path fill="none" stroke="red" stroke-width="0.405994" d="M1602.93,-212.325C1599.86,-211.346 1596.6,-210.442 1593.5,-209.823 1337.97,-158.84 1019.99,-158.468 928.929,-159.541"/>
<polygon fill="red" stroke="red" stroke-width="0.405994" points="928.691,-156.044 918.74,-159.679 928.786,-163.043 928.691,-156.044"/>
</g>
<!-- &#45;27 -->
<g id="node27" class="node"><title>&#45;27</title>
<polygon fill="lightgray" stroke="black" points="1256,-227.823 1227,-227.823 1227,-209.823 1256,-209.823 1256,-227.823"/>
<text text-anchor="middle" x="1241.5" y="-216.623" font-family="Times New Roman,serif" font-size="9.00">&#45;27</text>
</g>
<!-- &#45;27&#45;&gt;0 -->
<g id="edge103" class="edge"><title>&#45;27&#45;&gt;0</title>
<path fill="none" stroke="green" stroke-width="0.396182" d="M1226.92,-212.375C1223.85,-211.392 1220.59,-210.474 1217.5,-209.823 1048.89,-174.349 995.682,-226.087 831.5,-173.823 830.446,-173.488 829.387,-173.101 828.333,-172.674"/>
<polygon fill="green" stroke="green" stroke-width="0.396182" points="829.742,-169.465 819.237,-168.09 826.592,-175.716 829.742,-169.465"/>
</g>
<!-- &#45;27&#45;&gt;1 -->
<g id="edge104" class="edge"><title>&#45;27&#45;&gt;1</title>
<path fill="none" stroke="red" stroke-width="1.23113" d="M1226.92,-212.406C1223.84,-211.421 1220.59,-210.495 1217.5,-209.823 1069.87,-177.751 1023.15,-220.591 879.5,-173.823 878.619,-173.537 877.736,-173.215 876.854,-172.865"/>
<polygon fill="red" stroke="red" stroke-width="1.23113" points="878.255,-169.653 867.741,-168.346 875.145,-175.924 878.255,-169.653"/>
</g>
<!-- &#45;27&#45;&gt;2 -->
<g id="edge105" class="edge"><title>&#45;27&#45;&gt;2</title>
<path fill="none" stroke="red" stroke-width="0.258325" d="M1236.99,-209.518C1222.77,-184.109 1176.27,-106.672 1116.5,-65.6985 1077.19,-38.7507 1022.22,-25.478 990.598,-19.6916"/>
<polygon fill="red" stroke="red" stroke-width="0.258325" points="990.897,-16.1918 980.449,-17.947 989.711,-23.0906 990.897,-16.1918"/>
</g>
<!-- &#45;27&#45;&gt;3 -->
<g id="edge106" class="edge"><title>&#45;27&#45;&gt;3</title>
<path fill="none" stroke="green" stroke-width="0.12864" d="M1226.89,-212.529C1223.81,-211.535 1220.57,-210.574 1217.5,-209.823 1111.62,-183.959 982.271,-168.337 928.643,-162.545"/>
<polygon fill="green" stroke="green" stroke-width="0.12864" points="928.698,-159.031 918.385,-161.458 927.961,-165.992 928.698,-159.031"/>
</g>
<!-- &#45;28 -->
<g id="node28" class="node"><title>&#45;28</title>
<polygon fill="lightgray" stroke="black" points="880,-227.823 851,-227.823 851,-209.823 880,-209.823 880,-227.823"/>
<text text-anchor="middle" x="865.5" y="-216.623" font-family="Times New Roman,serif" font-size="9.00">&#45;28</text>
</g>
<!-- &#45;28&#45;&gt;0 -->
<g id="edge107" class="edge"><title>&#45;28&#45;&gt;0</title>
<path fill="none" stroke="red" stroke-width="0.394801" d="M857.435,-209.78C849.12,-201.486 835.886,-188.287 825.132,-177.56"/>
<polygon fill="red" stroke="red" stroke-width="0.394801" points="827.396,-174.875 817.844,-170.291 822.453,-179.831 827.396,-174.875"/>
</g>
<!-- &#45;28&#45;&gt;1 -->
<g id="edge108" class="edge"><title>&#45;28&#45;&gt;1</title>
<path fill="none" stroke="red" stroke-width="0.320807" d="M864.11,-209.78C862.94,-203.013 861.206,-192.981 859.6,-183.69"/>
<polygon fill="red" stroke="red" stroke-width="0.320807" points="863.03,-182.987 857.878,-173.729 856.132,-184.18 863.03,-182.987"/>
</g>
<!-- &#45;28&#45;&gt;3 -->
<g id="edge109" class="edge"><title>&#45;28&#45;&gt;3</title>
<path fill="none" stroke="red" stroke-width="0.480977" d="M870.784,-209.78C875.768,-202.192 883.449,-190.499 890.116,-180.35"/>
<polygon fill="red" stroke="red" stroke-width="0.480977" points="893.056,-182.249 895.621,-171.969 887.205,-178.406 893.056,-182.249"/>
</g>
<!-- &#45;29 -->
<g id="node29" class="node"><title>&#45;29</title>
<polygon fill="lightgray" stroke="black" points="786,-227.823 757,-227.823 757,-209.823 786,-209.823 786,-227.823"/>
<text text-anchor="middle" x="771.5" y="-216.623" font-family="Times New Roman,serif" font-size="9.00">&#45;29</text>
</g>
<!-- &#45;29&#45;&gt;0 -->
<g id="edge110" class="edge"><title>&#45;29&#45;&gt;0</title>
<path fill="none" stroke="red" stroke-width="0.187991" d="M776.506,-209.78C781.18,-202.269 788.357,-190.735 794.629,-180.658"/>
<polygon fill="red" stroke="red" stroke-width="0.187991" points="797.723,-182.309 800.035,-171.969 791.78,-178.61 797.723,-182.309"/>
</g>
<!-- &#45;29&#45;&gt;1 -->
<g id="edge111" class="edge"><title>&#45;29&#45;&gt;1</title>
<path fill="none" stroke="green" stroke-width="0.327788" d="M783.18,-209.78C796.645,-200.507 819.012,-185.103 835.312,-173.877"/>
<polygon fill="green" stroke="green" stroke-width="0.327788" points="837.398,-176.69 843.649,-168.136 833.427,-170.925 837.398,-176.69"/>
</g>
<!-- &#45;29&#45;&gt;2 -->
<g id="edge112" class="edge"><title>&#45;29&#45;&gt;2</title>
<path fill="none" stroke="green" stroke-width="0.298817" d="M770.876,-209.817C770.153,-195.487 770.435,-165.005 783.5,-144.125 822.264,-82.1753 903.024,-41.7691 942.618,-24.8706"/>
<polygon fill="green" stroke="green" stroke-width="0.298817" points="944.07,-28.0572 951.967,-20.9933 941.389,-21.5913 944.07,-28.0572"/>
</g>
<!-- &#45;29&#45;&gt;3 -->
<g id="edge113" class="edge"><title>&#45;29&#45;&gt;3</title>
<path fill="none" stroke="green" stroke-width="0.216095" d="M786.1,-212.6C807.116,-204.919 846.948,-189.754 879.5,-173.823 880.332,-173.416 881.174,-172.992 882.021,-172.556"/>
<polygon fill="green" stroke="green" stroke-width="0.216095" points="883.894,-175.52 890.971,-167.635 880.522,-169.386 883.894,-175.52"/>
</g>
<!-- &#45;30 -->
<g id="node30" class="node"><title>&#45;30</title>
<polygon fill="lightgray" stroke="black" points="1209,-227.823 1180,-227.823 1180,-209.823 1209,-209.823 1209,-227.823"/>
<text text-anchor="middle" x="1194.5" y="-216.623" font-family="Times New Roman,serif" font-size="9.00">&#45;30</text>
</g>
<!-- &#45;30&#45;&gt;0 -->
<g id="edge114" class="edge"><title>&#45;30&#45;&gt;0</title>
<path fill="none" stroke="green" stroke-width="0.225901" d="M1179.92,-212.406C1176.84,-211.421 1173.59,-210.494 1170.5,-209.823 1022.44,-177.68 975.578,-220.705 831.5,-173.823 830.619,-173.537 829.736,-173.215 828.854,-172.865"/>
<polygon fill="green" stroke="green" stroke-width="0.225901" points="830.255,-169.653 819.741,-168.347 827.145,-175.925 830.255,-169.653"/>
</g>
<!-- &#45;30&#45;&gt;1 -->
<g id="edge115" class="edge"><title>&#45;30&#45;&gt;1</title>
<path fill="none" stroke="red" stroke-width="0.198227" d="M1179.91,-212.447C1176.83,-211.459 1173.58,-210.521 1170.5,-209.823 1043.39,-181.076 1003.07,-215.217 879.5,-173.823 878.622,-173.529 877.74,-173.201 876.86,-172.846"/>
<polygon fill="red" stroke="red" stroke-width="0.198227" points="878.266,-169.636 867.756,-168.302 875.14,-175.899 878.266,-169.636"/>
</g>
<!-- &#45;30&#45;&gt;2 -->
<g id="edge116" class="edge"><title>&#45;30&#45;&gt;2</title>
<path fill="none" stroke="green" stroke-width="0.285963" d="M1190.48,-209.719C1177.8,-184.892 1136.22,-108.95 1081.5,-65.6985 1053.66,-43.6951 1014.65,-29.5869 989.724,-22.1869"/>
<polygon fill="green" stroke="green" stroke-width="0.285963" points="990.553,-18.7841 979.978,-19.4227 988.643,-25.5185 990.553,-18.7841"/>
</g>
<!-- &#45;30&#45;&gt;3 -->
<g id="edge117" class="edge"><title>&#45;30&#45;&gt;3</title>
<path fill="none" stroke="green" stroke-width="0.10991" d="M1179.87,-212.593C1176.8,-211.595 1173.56,-210.615 1170.5,-209.823 1082.41,-187.032 975.413,-170.276 928.066,-163.407"/>
<polygon fill="green" stroke="green" stroke-width="0.10991" points="928.52,-159.936 918.125,-161.983 927.528,-166.866 928.52,-159.936"/>
</g>
<!-- &#45;31 -->
<g id="node31" class="node"><title>&#45;31</title>
<polygon fill="lightgray" stroke="black" points="1397,-227.823 1368,-227.823 1368,-209.823 1397,-209.823 1397,-227.823"/>
<text text-anchor="middle" x="1382.5" y="-216.623" font-family="Times New Roman,serif" font-size="9.00">&#45;31</text>
</g>
<!-- &#45;31&#45;&gt;0 -->
<g id="edge118" class="edge"><title>&#45;31&#45;&gt;0</title>
<path fill="none" stroke="green" stroke-width="0.170339" d="M1367.94,-212.315C1364.86,-211.337 1361.6,-210.436 1358.5,-209.823 1128.18,-164.338 1056.07,-242.257 831.5,-173.823 830.442,-173.501 829.38,-173.124 828.323,-172.707"/>
<polygon fill="green" stroke="green" stroke-width="0.170339" points="829.726,-169.495 819.217,-168.155 826.597,-175.756 829.726,-169.495"/>
</g>
<!-- &#45;31&#45;&gt;1 -->
<g id="edge119" class="edge"><title>&#45;31&#45;&gt;1</title>
<path fill="none" stroke="green" stroke-width="0.182206" d="M1367.93,-212.332C1364.86,-211.352 1361.6,-210.447 1358.5,-209.823 1149.2,-167.748 1083.5,-236.75 879.5,-173.823 878.443,-173.497 877.382,-173.118 876.326,-172.698"/>
<polygon fill="green" stroke="green" stroke-width="0.182206" points="877.731,-169.487 867.222,-168.137 874.595,-175.745 877.731,-169.487"/>
</g>
<!-- &#45;31&#45;&gt;2 -->
<g id="edge120" class="edge"><title>&#45;31&#45;&gt;2</title>
<path fill="none" stroke="red" stroke-width="0.177734" d="M1377.34,-209.518C1360.63,-183.429 1305.15,-102.663 1236.5,-65.6985 1154.46,-21.5261 1040.39,-15.7131 990.514,-15.4593"/>
<polygon fill="red" stroke="red" stroke-width="0.177734" points="990.333,-11.9597 980.341,-15.483 990.349,-18.9596 990.333,-11.9597"/>
</g>
<!-- &#45;31&#45;&gt;3 -->
<g id="edge121" class="edge"><title>&#45;31&#45;&gt;3</title>
<path fill="none" stroke="green" stroke-width="0.199152" d="M1367.92,-212.414C1364.84,-211.428 1361.59,-210.499 1358.5,-209.823 1197.46,-174.582 998.631,-163.722 929.01,-160.87"/>
<polygon fill="green" stroke="green" stroke-width="0.199152" points="928.741,-157.357 918.612,-160.466 928.469,-164.352 928.741,-157.357"/>
</g>
<!-- &#45;32 -->
<g id="node32" class="node"><title>&#45;32</title>
<polygon fill="lightgray" stroke="black" points="1021,-227.823 992,-227.823 992,-209.823 1021,-209.823 1021,-227.823"/>
<text text-anchor="middle" x="1006.5" y="-216.623" font-family="Times New Roman,serif" font-size="9.00">&#45;32</text>
</g>
<!-- &#45;32&#45;&gt;0 -->
<g id="edge122" class="edge"><title>&#45;32&#45;&gt;0</title>
<path fill="none" stroke="green" stroke-width="0.179363" d="M991.84,-212.71C988.77,-211.703 985.541,-210.691 982.5,-209.823 916.155,-190.897 895.603,-199.331 831.5,-173.823 830.64,-173.481 829.773,-173.112 828.906,-172.722"/>
<polygon fill="green" stroke="green" stroke-width="0.179363" points="830.347,-169.526 819.86,-168.017 827.117,-175.736 830.347,-169.526"/>
</g>
<!-- &#45;32&#45;&gt;1 -->
<g id="edge123" class="edge"><title>&#45;32&#45;&gt;1</title>
<path fill="none" stroke="green" stroke-width="0.267982" d="M991.986,-212.968C960.944,-202.559 890.06,-178.646 879.5,-173.823 878.658,-173.439 877.806,-173.033 876.952,-172.613"/>
<polygon fill="green" stroke="green" stroke-width="0.267982" points="878.43,-169.433 867.967,-167.767 875.107,-175.594 878.43,-169.433"/>
</g>
<!-- &#45;32&#45;&gt;2 -->
<g id="edge124" class="edge"><title>&#45;32&#45;&gt;2</title>
<path fill="none" stroke="red" stroke-width="0.312016" d="M1005.07,-209.55C1001.06,-186.625 989.284,-120.366 977.5,-65.6985 975.627,-57.0103 973.39,-47.5165 971.357,-39.1671"/>
<polygon fill="red" stroke="red" stroke-width="0.312016" points="974.729,-38.2203 968.935,-29.35 967.933,-39.8973 974.729,-38.2203"/>
</g>
<!-- &#45;32&#45;&gt;3 -->
<g id="edge125" class="edge"><title>&#45;32&#45;&gt;3</title>
<path fill="none" stroke="green" stroke-width="0.471278" d="M992.178,-209.78C974.713,-199.97 945.033,-183.301 924.865,-171.974"/>
<polygon fill="green" stroke="green" stroke-width="0.471278" points="926.518,-168.888 916.085,-167.042 923.09,-174.991 926.518,-168.888"/>
</g>
<!-- &#45;33 -->
<g id="node33" class="node"><title>&#45;33</title>
<polygon fill="lightgray" stroke="black" points="1068,-227.823 1039,-227.823 1039,-209.823 1068,-209.823 1068,-227.823"/>
<text text-anchor="middle" x="1053.5" y="-216.623" font-family="Times New Roman,serif" font-size="9.00">&#45;33</text>
</g>
<!-- &#45;33&#45;&gt;0 -->
<g id="edge126" class="edge"><title>&#45;33&#45;&gt;0</title>
<path fill="none" stroke="red" stroke-width="0.49063" d="M1038.88,-212.582C1035.8,-211.584 1032.56,-210.608 1029.5,-209.823 942.856,-187.625 915.47,-204.629 831.5,-173.823 830.631,-173.504 829.756,-173.155 828.883,-172.782"/>
<polygon fill="red" stroke="red" stroke-width="0.49063" points="830.306,-169.579 819.807,-168.155 827.127,-175.815 830.306,-169.579"/>
</g>
<!-- &#45;33&#45;&gt;1 -->
<g id="edge127" class="edge"><title>&#45;33&#45;&gt;1</title>
<path fill="none" stroke="red" stroke-width="0.195711" d="M1038.84,-212.714C1035.77,-211.707 1032.54,-210.693 1029.5,-209.823 963.585,-190.966 943.183,-199.219 879.5,-173.823 878.64,-173.48 877.773,-173.111 876.906,-172.72"/>
<polygon fill="red" stroke="red" stroke-width="0.195711" points="878.348,-169.525 867.862,-168.013 875.116,-175.734 878.348,-169.525"/>
</g>
<!-- &#45;33&#45;&gt;2 -->
<g id="edge128" class="edge"><title>&#45;33&#45;&gt;2</title>
<path fill="none" stroke="green" stroke-width="0.17261" d="M1051.07,-209.671C1044.05,-186.512 1022.53,-118.584 996.5,-65.6985 991.489,-55.5191 984.974,-44.7659 979.21,-35.8631"/>
<polygon fill="green" stroke="green" stroke-width="0.17261" points="982.014,-33.7574 973.571,-27.3568 976.179,-37.6255 982.014,-33.7574"/>
</g>
<!-- &#45;33&#45;&gt;3 -->
<g id="edge129" class="edge"><title>&#45;33&#45;&gt;3</title>
<path fill="none" stroke="green" stroke-width="0.158194" d="M1038.84,-212.171C1012.75,-202.107 958.042,-181.009 926.76,-168.945"/>
<polygon fill="green" stroke="green" stroke-width="0.158194" points="927.714,-165.562 917.125,-165.229 925.196,-172.093 927.714,-165.562"/>
</g>
<!-- &#45;34 -->
<g id="node34" class="node"><title>&#45;34</title>
<polygon fill="lightgray" stroke="black" points="1444,-227.823 1415,-227.823 1415,-209.823 1444,-209.823 1444,-227.823"/>
<text text-anchor="middle" x="1429.5" y="-216.623" font-family="Times New Roman,serif" font-size="9.00">&#45;34</text>
</g>
<!-- &#45;34&#45;&gt;0 -->
<g id="edge130" class="edge"><title>&#45;34&#45;&gt;0</title>
<path fill="none" stroke="red" stroke-width="0.396942" d="M1414.94,-212.302C1411.86,-211.324 1408.6,-210.427 1405.5,-209.823 1154.59,-160.998 1076.22,-247.652 831.5,-173.823 830.441,-173.504 829.378,-173.13 828.321,-172.714"/>
<polygon fill="red" stroke="red" stroke-width="0.396942" points="829.723,-169.502 819.212,-168.169 826.598,-175.766 829.723,-169.502"/>
</g>
<!-- &#45;34&#45;&gt;1 -->
<g id="edge131" class="edge"><title>&#45;34&#45;&gt;1</title>
<path fill="none" stroke="red" stroke-width="0.141398" d="M1414.94,-212.316C1411.86,-211.337 1408.6,-210.436 1405.5,-209.823 1175.62,-164.409 1103.64,-242.142 879.5,-173.823 878.442,-173.501 877.38,-173.124 876.323,-172.706"/>
<polygon fill="red" stroke="red" stroke-width="0.141398" points="877.726,-169.495 867.217,-168.154 874.597,-175.756 877.726,-169.495"/>
</g>
<!-- &#45;34&#45;&gt;2 -->
<g id="edge132" class="edge"><title>&#45;34&#45;&gt;2</title>
<path fill="none" stroke="green" stroke-width="0.319401" d="M1424.41,-209.814C1407.48,-183.912 1350.09,-101.994 1279.5,-65.6985 1228.8,-39.6314 1055.5,-23.1769 990.447,-17.7927"/>
<polygon fill="green" stroke="green" stroke-width="0.319401" points="990.537,-14.2887 980.287,-16.9697 989.972,-21.2658 990.537,-14.2887"/>
</g>
<!-- &#45;34&#45;&gt;3 -->
<g id="edge133" class="edge"><title>&#45;34&#45;&gt;3</title>
<path fill="none" stroke="red" stroke-width="0.315312" d="M1414.92,-212.389C1411.84,-211.405 1408.59,-210.484 1405.5,-209.823 1225.45,-171.38 1002.62,-162.459 928.657,-160.498"/>
<polygon fill="red" stroke="red" stroke-width="0.315312" points="928.553,-156.995 918.47,-160.248 928.381,-163.993 928.553,-156.995"/>
</g>
<!-- &#45;35 -->
<g id="node35" class="node"><title>&#45;35</title>
<polygon fill="lightgray" stroke="black" points="1538,-227.823 1509,-227.823 1509,-209.823 1538,-209.823 1538,-227.823"/>
<text text-anchor="middle" x="1523.5" y="-216.623" font-family="Times New Roman,serif" font-size="9.00">&#45;35</text>
</g>
<!-- &#45;35&#45;&gt;0 -->
<g id="edge134" class="edge"><title>&#45;35&#45;&gt;0</title>
<path fill="none" stroke="red" stroke-width="0.207388" d="M1508.94,-212.281C1505.86,-211.305 1502.61,-210.414 1499.5,-209.823 1207.41,-154.316 1116.52,-258.446 831.5,-173.823 830.439,-173.508 829.375,-173.138 828.318,-172.725"/>
<polygon fill="red" stroke="red" stroke-width="0.207388" points="829.718,-169.513 819.205,-168.192 826.6,-175.78 829.718,-169.513"/>
</g>
<!-- &#45;35&#45;&gt;1 -->
<g id="edge135" class="edge"><title>&#45;35&#45;&gt;1</title>
<path fill="none" stroke="red" stroke-width="0.111953" d="M1508.94,-212.291C1505.86,-211.314 1502.61,-210.42 1499.5,-209.823 1228.44,-157.728 1143.94,-252.934 879.5,-173.823 878.44,-173.506 877.377,-173.134 876.319,-172.72"/>
<polygon fill="red" stroke="red" stroke-width="0.111953" points="877.72,-169.508 867.209,-168.181 874.599,-175.773 877.72,-169.508"/>
</g>
<!-- &#45;35&#45;&gt;2 -->
<g id="edge136" class="edge"><title>&#45;35&#45;&gt;2</title>
<path fill="none" stroke="red" stroke-width="0.300056" stroke-dasharray="1,5" d="M1518.12,-209.716C1500.25,-183.514 1439.75,-100.782 1366.5,-65.6985 1299.41,-33.5667 1068.29,-20.462 990.945,-16.9106"/>
<polygon fill="red" stroke="red" stroke-width="0.300056" points="990.833,-13.4023 980.687,-16.4548 990.522,-20.3954 990.833,-13.4023"/>
</g>
<!-- &#45;35&#45;&gt;3 -->
<g id="edge137" class="edge"><title>&#45;35&#45;&gt;3</title>
<path fill="none" stroke="green" stroke-width="0.370798" d="M1508.93,-212.352C1505.85,-211.371 1502.6,-210.46 1499.5,-209.823 1281.68,-165.08 1011.21,-160.311 928.606,-159.948"/>
<polygon fill="green" stroke="green" stroke-width="0.370798" points="928.439,-156.448 918.43,-159.922 928.421,-163.448 928.439,-156.448"/>
</g>
<!-- &#45;36 -->
<g id="node36" class="node"><title>&#45;36</title>
<polygon fill="lightgray" stroke="black" points="1162,-227.823 1133,-227.823 1133,-209.823 1162,-209.823 1162,-227.823"/>
<text text-anchor="middle" x="1147.5" y="-216.623" font-family="Times New Roman,serif" font-size="9.00">&#45;36</text>
</g>
<!-- &#45;36&#45;&gt;0 -->
<g id="edge138" class="edge"><title>&#45;36&#45;&gt;0</title>
<path fill="none" stroke="red" stroke-width="0.385341" d="M1132.91,-212.446C1129.83,-211.458 1126.58,-210.52 1123.5,-209.823 995.955,-181.006 955.498,-215.331 831.5,-173.823 830.622,-173.529 829.74,-173.201 828.86,-172.846"/>
<polygon fill="red" stroke="red" stroke-width="0.385341" points="830.266,-169.636 819.755,-168.303 827.141,-175.9 830.266,-169.636"/>
</g>
<!-- &#45;36&#45;&gt;1 -->
<g id="edge139" class="edge"><title>&#45;36&#45;&gt;1</title>
<path fill="none" stroke="green" stroke-width="0.193927" d="M1132.89,-212.503C1129.82,-211.511 1126.58,-210.557 1123.5,-209.823 1016.87,-184.394 983.027,-209.855 879.5,-173.823 878.625,-173.519 877.747,-173.182 876.869,-172.819"/>
<polygon fill="green" stroke="green" stroke-width="0.193927" points="878.282,-169.612 867.776,-168.241 875.134,-175.864 878.282,-169.612"/>
</g>
<!-- &#45;36&#45;&gt;2 -->
<g id="edge140" class="edge"><title>&#45;36&#45;&gt;2</title>
<path fill="none" stroke="green" stroke-width="0.596568" d="M1143.9,-209.639C1132.85,-185.216 1097.23,-111.703 1049.5,-65.6985 1031.47,-48.3208 1006.3,-34.4057 988.215,-25.74"/>
<polygon fill="green" stroke="green" stroke-width="0.596568" points="989.536,-22.4949 978.99,-21.4771 986.599,-28.8492 989.536,-22.4949"/>
</g>
<!-- &#45;36&#45;&gt;3 -->
<g id="edge141" class="edge"><title>&#45;36&#45;&gt;3</title>
<path fill="none" stroke="green" stroke-width="0.293262" d="M1132.85,-212.684C1129.78,-211.679 1126.55,-210.674 1123.5,-209.823 1053.21,-190.197 968.68,-172.73 927.886,-164.678"/>
<polygon fill="green" stroke="green" stroke-width="0.293262" points="928.525,-161.237 918.038,-162.75 927.18,-168.106 928.525,-161.237"/>
</g>
<!-- &#45;37 -->
<g id="node37" class="node"><title>&#45;37</title>
<polygon fill="lightgray" stroke="black" points="927,-227.823 898,-227.823 898,-209.823 927,-209.823 927,-227.823"/>
<text text-anchor="middle" x="912.5" y="-216.623" font-family="Times New Roman,serif" font-size="9.00">&#45;37</text>
</g>
<!-- &#45;37&#45;&gt;0 -->
<g id="edge142" class="edge"><title>&#45;37&#45;&gt;0</title>
<path fill="none" stroke="red" stroke-width="0.569646" d="M897.805,-209.988C881.528,-201.274 854.539,-186.725 831.5,-173.823 830.692,-173.371 829.87,-172.908 829.04,-172.439"/>
<polygon fill="red" stroke="red" stroke-width="0.569646" points="830.588,-169.293 820.17,-167.367 827.113,-175.369 830.588,-169.293"/>
</g>
<!-- &#45;37&#45;&gt;1 -->
<g id="edge143" class="edge"><title>&#45;37&#45;&gt;1</title>
<path fill="none" stroke="red" stroke-width="0.248539" d="M904.574,-209.78C896.402,-201.486 883.397,-188.287 872.828,-177.56"/>
<polygon fill="red" stroke="red" stroke-width="0.248539" points="875.178,-174.958 865.666,-170.291 870.191,-179.871 875.178,-174.958"/>
</g>
<!-- &#45;37&#45;&gt;2 -->
<g id="edge144" class="edge"><title>&#45;37&#45;&gt;2</title>
<path fill="none" stroke="green" stroke-width="0.605828" d="M915.491,-209.785C918.694,-201.018 923.813,-186.535 927.5,-173.823 941.207,-126.566 953.877,-70.3651 960.56,-39.349"/>
<polygon fill="green" stroke="green" stroke-width="0.605828" points="964.001,-39.9949 962.666,-29.4845 957.155,-38.5335 964.001,-39.9949"/>
</g>
<!-- &#45;37&#45;&gt;3 -->
<g id="edge145" class="edge"><title>&#45;37&#45;&gt;3</title>
<path fill="none" stroke="red" stroke-width="0.602448" d="M911.249,-209.78C910.196,-203.013 908.635,-192.981 907.19,-183.69"/>
<polygon fill="red" stroke="red" stroke-width="0.602448" points="910.636,-183.073 905.64,-173.729 903.719,-184.149 910.636,-183.073"/>
</g>
<!-- &#45;38 -->
<g id="node38" class="node"><title>&#45;38</title>
<polygon fill="lightgray" stroke="black" points="1303,-227.823 1274,-227.823 1274,-209.823 1303,-209.823 1303,-227.823"/>
<text text-anchor="middle" x="1288.5" y="-216.623" font-family="Times New Roman,serif" font-size="9.00">&#45;38</text>
</g>
<!-- &#45;38&#45;&gt;0 -->
<g id="edge146" class="edge"><title>&#45;38&#45;&gt;0</title>
<path fill="none" stroke="green" stroke-width="0.412894" d="M1273.93,-212.351C1270.85,-211.37 1267.6,-210.459 1264.5,-209.823 1075.33,-171.014 1015.8,-231.474 831.5,-173.823 830.444,-173.493 829.384,-173.11 828.329,-172.687"/>
<polygon fill="green" stroke="green" stroke-width="0.412894" points="829.736,-169.477 819.228,-168.116 826.594,-175.732 829.736,-169.477"/>
</g>
<!-- &#45;38&#45;&gt;1 -->
<g id="edge147" class="edge"><title>&#45;38&#45;&gt;1</title>
<path fill="none" stroke="red" stroke-width="0.463097" stroke-dasharray="1,5" d="M1273.92,-212.375C1270.85,-211.393 1267.59,-210.475 1264.5,-209.823 1096.33,-174.419 1043.25,-225.973 879.5,-173.823 878.446,-173.488 877.387,-173.1 876.334,-172.674"/>
<polygon fill="red" stroke="red" stroke-width="0.463097" points="877.742,-169.464 867.237,-168.09 874.592,-175.715 877.742,-169.464"/>
</g>
<!-- &#45;38&#45;&gt;2 -->
<g id="edge148" class="edge"><title>&#45;38&#45;&gt;2</title>
<path fill="none" stroke="green" stroke-width="0.349059" d="M1283.83,-209.724C1268.69,-184.244 1218.28,-105.091 1154.5,-65.6985 1101.94,-33.2392 1028.57,-21.7368 990.555,-17.7997"/>
<polygon fill="green" stroke="green" stroke-width="0.349059" points="990.67,-14.2951 980.386,-16.8421 990.013,-21.2643 990.67,-14.2951"/>
</g>
<!-- &#45;38&#45;&gt;3 -->
<g id="edge149" class="edge"><title>&#45;38&#45;&gt;3</title>
<path fill="none" stroke="green" stroke-width="0.525369" d="M1273.9,-212.481C1270.83,-211.49 1267.58,-210.543 1264.5,-209.823 1140.35,-180.822 987.968,-166.59 928.727,-161.846"/>
<polygon fill="green" stroke="green" stroke-width="0.525369" points="928.708,-158.334 918.466,-161.046 928.164,-165.313 928.708,-158.334"/>
</g>
<!-- &#45;39 -->
<g id="node39" class="node"><title>&#45;39</title>
<polygon fill="lightgray" stroke="black" points="1820,-227.823 1791,-227.823 1791,-209.823 1820,-209.823 1820,-227.823"/>
<text text-anchor="middle" x="1805.5" y="-216.623" font-family="Times New Roman,serif" font-size="9.00">&#45;39</text>
</g>
<!-- &#45;39&#45;&gt;1 -->
<g id="edge150" class="edge"><title>&#45;39&#45;&gt;1</title>
<path fill="none" stroke="green" stroke-width="0.239917" stroke-dasharray="1,5" d="M1790.95,-212.247C1787.87,-211.274 1784.61,-210.392 1781.5,-209.823 1584.17,-173.747 1072.2,-229.576 879.5,-173.823 878.437,-173.516 877.372,-173.152 876.312,-172.744"/>
<polygon fill="green" stroke="green" stroke-width="0.239917" points="877.709,-169.53 867.195,-168.229 874.603,-175.803 877.709,-169.53"/>
</g>
<!-- &#45;39&#45;&gt;2 -->
<g id="edge151" class="edge"><title>&#45;39&#45;&gt;2</title>
<path fill="none" stroke="red" stroke-width="0.28178" d="M1805.21,-209.776C1803.77,-183.757 1795.4,-101.524 1746.5,-65.6985 1684.26,-20.1021 1117.61,-16.1747 990.659,-15.8686"/>
<polygon fill="red" stroke="red" stroke-width="0.28178" points="990.398,-12.3682 980.392,-15.8497 990.385,-19.3682 990.398,-12.3682"/>
</g>
<!-- &#45;39&#45;&gt;3 -->
<g id="edge152" class="edge"><title>&#45;39&#45;&gt;3</title>
<path fill="none" stroke="green" stroke-width="0.361159" d="M1790.94,-212.288C1787.86,-211.311 1784.61,-210.418 1781.5,-209.823 1611.56,-177.276 1054.27,-163.285 928.76,-160.506"/>
<polygon fill="green" stroke="green" stroke-width="0.361159" points="928.672,-157.003 918.598,-160.285 928.519,-164.002 928.672,-157.003"/>
</g>
<!-- &#45;40 -->
<g id="node40" class="node"><title>&#45;40</title>
<polygon fill="lightgray" stroke="black" points="1679,-227.823 1650,-227.823 1650,-209.823 1679,-209.823 1679,-227.823"/>
<text text-anchor="middle" x="1664.5" y="-216.623" font-family="Times New Roman,serif" font-size="9.00">&#45;40</text>
</g>
<!-- &#45;40&#45;&gt;0 -->
<g id="edge153" class="edge"><title>&#45;40&#45;&gt;0</title>
<path fill="none" stroke="red" stroke-width="0.228638" d="M1649.95,-212.258C1646.87,-211.284 1643.61,-210.399 1640.5,-209.823 1463.55,-177.055 1004.25,-224.233 831.5,-173.823 830.438,-173.513 829.373,-173.147 828.314,-172.738"/>
<polygon fill="red" stroke="red" stroke-width="0.228638" points="829.712,-169.524 819.198,-168.217 826.602,-175.795 829.712,-169.524"/>
</g>
<!-- &#45;40&#45;&gt;1 -->
<g id="edge154" class="edge"><title>&#45;40&#45;&gt;1</title>
<path fill="none" stroke="green" stroke-width="0.538318" d="M1649.95,-212.265C1646.87,-211.29 1643.61,-210.404 1640.5,-209.823 1474.07,-178.763 1041.96,-221.476 879.5,-173.823 878.438,-173.512 877.374,-173.145 876.315,-172.734"/>
<polygon fill="green" stroke="green" stroke-width="0.538318" points="877.714,-169.521 867.2,-168.209 874.601,-175.791 877.714,-169.521"/>
</g>
<!-- &#45;40&#45;&gt;2 -->
<g id="edge155" class="edge"><title>&#45;40&#45;&gt;2</title>
<path fill="none" stroke="green" stroke-width="0.312529" d="M1658.93,-209.613C1640.42,-183.094 1577.83,-99.5029 1502.5,-65.6985 1409.13,-23.7957 1083.62,-17.1071 990.54,-16.0472"/>
<polygon fill="green" stroke="green" stroke-width="0.312529" points="990.407,-12.5457 980.372,-15.9438 990.336,-19.5454 990.407,-12.5457"/>
</g>
<!-- &#45;40&#45;&gt;3 -->
<g id="edge156" class="edge"><title>&#45;40&#45;&gt;3</title>
<path fill="none" stroke="red" stroke-width="0.112324" d="M1649.94,-212.314C1646.86,-211.335 1643.6,-210.435 1640.5,-209.823 1499.55,-182.038 1040.84,-164.706 928.503,-160.812"/>
<polygon fill="red" stroke="red" stroke-width="0.112324" points="928.571,-157.312 918.457,-160.468 928.331,-164.308 928.571,-157.312"/>
</g>
<!-- 3&#45;&gt;181 -->
<g id="edge161" class="edge"><title>3&#45;&gt;181</title>
<path fill="none" stroke="green" stroke-width="0.169817" d="M891.773,-149.826C888.014,-147.6 883.726,-145.441 879.5,-144.125 752.812,-104.66 333.836,-91.5845 215.109,-88.6243"/>
<polygon fill="green" stroke="green" stroke-width="0.169817" points="214.967,-85.1199 204.885,-88.3762 214.797,-92.1179 214.967,-85.1199"/>
</g>
<!-- 560&#45;&gt;2 -->
<g id="edge160" class="edge"><title>560&#45;&gt;2</title>
<path fill="none" stroke="red" stroke-width="0.452501" d="M1644.41,-73.9988C1638.92,-70.7494 1632.67,-67.6031 1626.5,-65.6985 1504.24,-27.9447 1095.6,-18.1664 990.38,-16.2493"/>
<polygon fill="red" stroke="red" stroke-width="0.452501" points="990.435,-12.7498 980.375,-16.0744 990.313,-19.7487 990.435,-12.7498"/>
</g>
<!-- 181&#45;&gt;2 -->
<g id="edge158" class="edge"><title>181&#45;&gt;2</title>
<path fill="none" stroke="red" stroke-width="0.168021" d="M200.584,-73.966C206.066,-70.7152 212.324,-67.5765 218.5,-65.6985 357.952,-23.2963 826.417,-16.9294 940.362,-16.0026"/>
<polygon fill="red" stroke="red" stroke-width="0.168021" points="940.566,-19.5013 950.54,-15.927 940.514,-12.5014 940.566,-19.5013"/>
</g>
</g>
</svg>
