<?xml version="1.0" encoding="UTF-8" standalone="no"?>
<!DOCTYPE svg PUBLIC "-//W3C//DTD SVG 1.1//EN"
 "http://www.w3.org/Graphics/SVG/1.1/DTD/svg11.dtd">
<!-- Generated by graphviz version 2.38.0 (20140413.2041)
 -->
<!-- Title: %3 Pages: 1 -->
<svg width="1956pt" height="170pt"
 viewBox="0.00 0.00 1956.07 170.12" xmlns="http://www.w3.org/2000/svg" xmlns:xlink="http://www.w3.org/1999/xlink">
<g id="graph0" class="graph" transform="scale(1 1) rotate(0) translate(4 166.125)">
<title>%3</title>
<polygon fill="white" stroke="none" points="-4,4 -4,-166.125 1952.07,-166.125 1952.07,4 -4,4"/>
<!-- &#45;1 -->
<g id="node1" class="node"><title>&#45;1</title>
<polygon fill="lightgray" stroke="black" points="1441.8,-95.9117 1417.8,-95.9117 1417.8,-77.9117 1441.8,-77.9117 1441.8,-95.9117"/>
<text text-anchor="middle" x="1429.8" y="-84.7117" font-family="Times New Roman,serif" font-size="9.00">&#45;1</text>
</g>
<!-- 0 -->
<g id="node41" class="node"><title>0</title>
<ellipse fill="lightblue" stroke="black" cx="914.804" cy="-14.8492" rx="14.7" ry="14.7"/>
<text text-anchor="middle" x="914.804" y="-12.6492" font-family="Times New Roman,serif" font-size="9.00">0</text>
</g>
<!-- &#45;1&#45;&gt;0 -->
<g id="edge1" class="edge"><title>&#45;1&#45;&gt;0</title>
<path fill="none" stroke="green" stroke-width="0.163957" d="M1423.73,-77.8099C1419.95,-73.4249 1414.7,-68.3716 1408.8,-65.6985 1322.47,-26.5825 1077.64,-43.0461 983.804,-29.6985 968.967,-27.5881 952.508,-24.3207 939.387,-21.4895"/>
<polygon fill="green" stroke="green" stroke-width="0.163957" points="939.779,-17.9918 929.259,-19.2489 938.267,-24.8265 939.779,-17.9918"/>
</g>
<!-- 1 -->
<g id="node42" class="node"><title>1</title>
<ellipse fill="lightblue" stroke="black" cx="1055.8" cy="-14.8492" rx="14.7" ry="14.7"/>
<text text-anchor="middle" x="1055.8" y="-12.6492" font-family="Times New Roman,serif" font-size="9.00">1</text>
</g>
<!-- &#45;1&#45;&gt;1 -->
<g id="edge2" class="edge"><title>&#45;1&#45;&gt;1</title>
<path fill="none" stroke="red" stroke-width="0.112926" d="M1423.31,-77.5233C1419.55,-73.2747 1414.44,-68.4464 1408.8,-65.6985 1350.57,-37.3328 1151.6,-22.0283 1080.94,-17.3886"/>
<polygon fill="red" stroke="red" stroke-width="0.112926" points="1080.95,-13.882 1070.75,-16.7352 1080.5,-20.8677 1080.95,-13.882"/>
</g>
<!-- 2 -->
<g id="node43" class="node"><title>2</title>
<ellipse fill="lightblue" stroke="black" cx="866.804" cy="-14.8492" rx="14.7" ry="14.7"/>
<text text-anchor="middle" x="866.804" y="-12.6492" font-family="Times New Roman,serif" font-size="9.00">2</text>
</g>
<!-- &#45;1&#45;&gt;2 -->
<g id="edge3" class="edge"><title>&#45;1&#45;&gt;2</title>
<path fill="none" stroke="green" stroke-width="0.292366" d="M1423.74,-77.7764C1419.97,-73.3802 1414.72,-68.3269 1408.8,-65.6985 1303.34,-18.8743 1001.16,-63.399 890.804,-29.6985 889.746,-29.3753 888.684,-28.9985 887.628,-28.5801"/>
<polygon fill="green" stroke="green" stroke-width="0.292366" points="889.031,-25.3687 878.521,-24.0267 885.9,-31.6296 889.031,-25.3687"/>
</g>
<!-- 3 -->
<g id="node44" class="node"><title>3</title>
<ellipse fill="lightblue" stroke="black" cx="1007.8" cy="-14.8492" rx="14.7" ry="14.7"/>
<text text-anchor="middle" x="1007.8" y="-12.6492" font-family="Times New Roman,serif" font-size="9.00">3</text>
</g>
<!-- &#45;1&#45;&gt;3 -->
<g id="edge4" class="edge"><title>&#45;1&#45;&gt;3</title>
<path fill="none" stroke="red" stroke-width="0.17189" d="M1423.72,-77.8335C1419.94,-73.4564 1414.69,-68.4031 1408.8,-65.6985 1255.86,4.58389 1192.13,-80.9312 1031.8,-29.6985 1030.75,-29.3617 1029.69,-28.9736 1028.64,-28.5463"/>
<polygon fill="red" stroke="red" stroke-width="0.17189" points="1030.05,-25.337 1019.54,-23.9596 1026.9,-31.5873 1030.05,-25.337"/>
</g>
<!-- &#45;2 -->
<g id="node2" class="node"><title>&#45;2</title>
<polygon fill="lightgray" stroke="black" points="1483.8,-95.9117 1459.8,-95.9117 1459.8,-77.9117 1483.8,-77.9117 1483.8,-95.9117"/>
<text text-anchor="middle" x="1471.8" y="-84.7117" font-family="Times New Roman,serif" font-size="9.00">&#45;2</text>
</g>
<!-- &#45;2&#45;&gt;0 -->
<g id="edge5" class="edge"><title>&#45;2&#45;&gt;0</title>
<path fill="none" stroke="red" stroke-width="0.18643" d="M1465.74,-77.7931C1461.96,-73.4025 1456.71,-68.3492 1450.8,-65.6985 1355.83,-23.1023 1086.91,-43.9661 983.804,-29.6985 968.959,-27.6442 952.5,-24.3792 939.38,-21.5352"/>
<polygon fill="red" stroke="red" stroke-width="0.18643" points="939.776,-18.0378 929.255,-19.2811 938.255,-24.8705 939.776,-18.0378"/>
</g>
<!-- &#45;2&#45;&gt;1 -->
<g id="edge6" class="edge"><title>&#45;2&#45;&gt;1</title>
<path fill="none" stroke="green" stroke-width="0.2485" d="M1465.69,-77.9003C1461.9,-73.5453 1456.65,-68.492 1450.8,-65.6985 1384.68,-34.0884 1157.04,-20.641 1080.86,-16.9567"/>
<polygon fill="green" stroke="green" stroke-width="0.2485" points="1080.91,-13.4553 1070.76,-16.483 1080.59,-20.4476 1080.91,-13.4553"/>
</g>
<!-- &#45;2&#45;&gt;2 -->
<g id="edge7" class="edge"><title>&#45;2&#45;&gt;2</title>
<path fill="none" stroke="green" stroke-width="0.467782" d="M1465.75,-77.7649C1461.98,-73.3648 1456.73,-68.3115 1450.8,-65.6985 1336.7,-15.3912 1010.16,-65.8093 890.804,-29.6985 889.745,-29.3781 888.682,-29.0035 887.626,-28.587"/>
<polygon fill="green" stroke="green" stroke-width="0.467782" points="889.028,-25.3751 878.517,-24.0402 885.901,-31.6381 889.028,-25.3751"/>
</g>
<!-- &#45;2&#45;&gt;3 -->
<g id="edge8" class="edge"><title>&#45;2&#45;&gt;3</title>
<path fill="none" stroke="green" stroke-width="0.49979" stroke-dasharray="1,5" d="M1465.73,-77.8126C1461.95,-73.4284 1456.7,-68.3751 1450.8,-65.6985 1280.6,11.5395 1210.11,-85.744 1031.8,-29.6985 1030.75,-29.3667 1029.69,-28.9828 1028.63,-28.5587"/>
<polygon fill="green" stroke="green" stroke-width="0.49979" points="1030.04,-25.3486 1019.53,-23.9842 1026.9,-31.6028 1030.04,-25.3486"/>
</g>
<!-- &#45;3 -->
<g id="node3" class="node"><title>&#45;3</title>
<polygon fill="lightgray" stroke="black" points="1525.8,-95.9117 1501.8,-95.9117 1501.8,-77.9117 1525.8,-77.9117 1525.8,-95.9117"/>
<text text-anchor="middle" x="1513.8" y="-84.7117" font-family="Times New Roman,serif" font-size="9.00">&#45;3</text>
</g>
<!-- &#45;3&#45;&gt;0 -->
<g id="edge9" class="edge"><title>&#45;3&#45;&gt;0</title>
<path fill="none" stroke="red" stroke-width="0.191085" d="M1507.74,-77.7791C1503.97,-73.3838 1498.72,-68.3305 1492.8,-65.6985 1389.19,-19.6206 1096.18,-44.8866 983.804,-29.6985 968.953,-27.6912 952.493,-24.4281 939.375,-21.5735"/>
<polygon fill="red" stroke="red" stroke-width="0.191085" points="939.774,-18.0762 929.251,-19.3081 938.246,-24.9073 939.774,-18.0762"/>
</g>
<!-- &#45;3&#45;&gt;1 -->
<g id="edge10" class="edge"><title>&#45;3&#45;&gt;1</title>
<path fill="none" stroke="red" stroke-width="0.330354" d="M1507.7,-77.874C1503.91,-73.5104 1498.66,-68.4571 1492.8,-65.6985 1418.82,-30.8756 1162.8,-19.4296 1081.08,-16.6182"/>
<polygon fill="red" stroke="red" stroke-width="0.330354" points="1081.06,-13.1158 1070.95,-16.2839 1080.83,-20.112 1081.06,-13.1158"/>
</g>
<!-- &#45;3&#45;&gt;2 -->
<g id="edge11" class="edge"><title>&#45;3&#45;&gt;2</title>
<path fill="none" stroke="red" stroke-width="0.321586" d="M1507.75,-77.7549C1503.99,-73.3516 1498.74,-68.2983 1492.8,-65.6985 1370.06,-11.9073 1019.16,-68.2202 890.804,-29.6985 889.744,-29.3804 888.681,-29.0078 887.624,-28.5928"/>
<polygon fill="red" stroke="red" stroke-width="0.321586" points="889.025,-25.3806 878.514,-24.0519 885.902,-31.6454 889.025,-25.3806"/>
</g>
<!-- &#45;3&#45;&gt;3 -->
<g id="edge12" class="edge"><title>&#45;3&#45;&gt;3</title>
<path fill="none" stroke="green" stroke-width="0.153625" d="M1507.74,-77.7954C1503.96,-73.4055 1498.71,-68.3522 1492.8,-65.6985 1305.33,18.4993 1228.1,-90.56 1031.8,-29.6985 1030.75,-29.3708 1029.69,-28.9902 1028.63,-28.5689"/>
<polygon fill="green" stroke="green" stroke-width="0.153625" points="1030.04,-25.3582 1019.53,-24.0045 1026.9,-31.6156 1030.04,-25.3582"/>
</g>
<!-- &#45;4 -->
<g id="node4" class="node"><title>&#45;4</title>
<polygon fill="lightgray" stroke="black" points="1567.8,-95.9117 1543.8,-95.9117 1543.8,-77.9117 1567.8,-77.9117 1567.8,-95.9117"/>
<text text-anchor="middle" x="1555.8" y="-84.7117" font-family="Times New Roman,serif" font-size="9.00">&#45;4</text>
</g>
<!-- &#45;4&#45;&gt;0 -->
<g id="edge13" class="edge"><title>&#45;4&#45;&gt;0</title>
<path fill="none" stroke="red" stroke-width="0.299219" d="M1549.75,-77.7672C1545.98,-73.3679 1540.73,-68.3146 1534.8,-65.6985 1422.55,-16.1377 1105.45,-45.8075 983.804,-29.6985 968.853,-27.7185 952.278,-24.4281 939.121,-21.5512"/>
<polygon fill="red" stroke="red" stroke-width="0.299219" points="939.508,-18.0509 928.984,-19.2698 937.971,-24.8801 939.508,-18.0509"/>
</g>
<!-- &#45;4&#45;&gt;1 -->
<g id="edge14" class="edge"><title>&#45;4&#45;&gt;1</title>
<path fill="none" stroke="green" stroke-width="0.250912" stroke-dasharray="1,5" d="M1549.71,-77.8523C1545.93,-73.4814 1540.68,-68.4281 1534.8,-65.6985 1452.9,-27.6405 1168.13,-18.316 1081.2,-16.3321"/>
<polygon fill="green" stroke="green" stroke-width="0.250912" points="1081.01,-12.8274 1070.94,-16.1117 1080.86,-19.8258 1081.01,-12.8274"/>
</g>
<!-- &#45;4&#45;&gt;2 -->
<g id="edge15" class="edge"><title>&#45;4&#45;&gt;2</title>
<path fill="none" stroke="green" stroke-width="0.458473" d="M1549.76,-77.7463C1545.99,-73.3401 1540.74,-68.2868 1534.8,-65.6985 1403.41,-8.42258 1028.17,-70.6316 890.804,-29.6985 889.743,-29.3825 888.68,-29.0115 887.622,-28.598"/>
<polygon fill="green" stroke="green" stroke-width="0.458473" points="889.023,-25.3854 878.511,-24.062 885.903,-31.6518 889.023,-25.3854"/>
</g>
<!-- &#45;4&#45;&gt;3 -->
<g id="edge16" class="edge"><title>&#45;4&#45;&gt;3</title>
<path fill="none" stroke="red" stroke-width="0.155113" d="M1549.74,-77.781C1545.97,-73.3863 1540.72,-68.333 1534.8,-65.6985 1330.05,25.4624 1246.09,-95.3783 1031.8,-29.6985 1030.75,-29.3742 1029.68,-28.9965 1028.63,-28.5774"/>
<polygon fill="red" stroke="red" stroke-width="0.155113" points="1030.03,-25.3661 1019.52,-24.0213 1026.9,-31.6262 1030.03,-25.3661"/>
</g>
<!-- &#45;5 -->
<g id="node5" class="node"><title>&#45;5</title>
<polygon fill="lightgray" stroke="black" points="1609.8,-95.9117 1585.8,-95.9117 1585.8,-77.9117 1609.8,-77.9117 1609.8,-95.9117"/>
<text text-anchor="middle" x="1597.8" y="-84.7117" font-family="Times New Roman,serif" font-size="9.00">&#45;5</text>
</g>
<!-- &#45;5&#45;&gt;0 -->
<g id="edge17" class="edge"><title>&#45;5&#45;&gt;0</title>
<path fill="none" stroke="red" stroke-width="0.566236" stroke-dasharray="1,5" d="M1591.75,-77.7569C1587.99,-73.3543 1582.74,-68.301 1576.8,-65.6985 1455.91,-12.6539 1114.72,-46.7288 983.804,-29.6985 968.848,-27.753 952.273,-24.4638 939.117,-21.5789"/>
<polygon fill="red" stroke="red" stroke-width="0.566236" points="939.506,-18.0788 928.981,-19.2892 937.964,-24.9067 939.506,-18.0788"/>
</g>
<!-- &#45;5&#45;&gt;1 -->
<g id="edge18" class="edge"><title>&#45;5&#45;&gt;1</title>
<path fill="none" stroke="red" stroke-width="0.138703" d="M1591.72,-77.834C1587.94,-73.4569 1582.69,-68.4036 1576.8,-65.6985 1486.85,-24.351 1172.54,-17.2756 1081,-16.0855"/>
<polygon fill="red" stroke="red" stroke-width="0.138703" points="1080.78,-12.5828 1070.74,-15.9652 1080.7,-19.5823 1080.78,-12.5828"/>
</g>
<!-- &#45;5&#45;&gt;2 -->
<g id="edge19" class="edge"><title>&#45;5&#45;&gt;2</title>
<path fill="none" stroke="green" stroke-width="0.129471" d="M1591.76,-77.7387C1588,-73.3299 1582.75,-68.2766 1576.8,-65.6985 1436.76,-4.93733 1037.18,-73.0434 890.804,-29.6985 889.743,-29.3843 888.679,-29.0148 887.621,-28.6025"/>
<polygon fill="green" stroke="green" stroke-width="0.129471" points="889.021,-25.3896 878.508,-24.071 885.904,-31.6575 889.021,-25.3896"/>
</g>
<!-- &#45;5&#45;&gt;3 -->
<g id="edge20" class="edge"><title>&#45;5&#45;&gt;3</title>
<path fill="none" stroke="green" stroke-width="0.58802" d="M1591.75,-77.7688C1587.98,-73.3701 1582.73,-68.3168 1576.8,-65.6985 1465.79,-16.6353 1147.95,-64.9484 1031.8,-29.6985 1030.75,-29.3771 1029.68,-29.0018 1028.63,-28.5846"/>
<polygon fill="green" stroke="green" stroke-width="0.58802" points="1030.03,-25.3729 1019.52,-24.0356 1026.9,-31.6352 1030.03,-25.3729"/>
</g>
<!-- &#45;6 -->
<g id="node6" class="node"><title>&#45;6</title>
<polygon fill="lightgray" stroke="black" points="176.804,-95.9117 152.804,-95.9117 152.804,-77.9117 176.804,-77.9117 176.804,-95.9117"/>
<text text-anchor="middle" x="164.804" y="-84.7117" font-family="Times New Roman,serif" font-size="9.00">&#45;6</text>
</g>
<!-- &#45;6&#45;&gt;0 -->
<g id="edge21" class="edge"><title>&#45;6&#45;&gt;0</title>
<path fill="none" stroke="red" stroke-width="0.453752" stroke-dasharray="1,5" d="M170.846,-77.7355C174.61,-73.3257 179.86,-68.2724 185.804,-65.6985 329.757,-3.36051 740.358,-74.1345 890.804,-29.6985 891.865,-29.3851 892.929,-29.0162 893.987,-28.6043"/>
<polygon fill="red" stroke="red" stroke-width="0.453752" points="895.704,-31.6598 903.101,-24.0746 892.588,-25.3914 895.704,-31.6598"/>
</g>
<!-- &#45;6&#45;&gt;1 -->
<g id="edge22" class="edge"><title>&#45;6&#45;&gt;1</title>
<path fill="none" stroke="green" stroke-width="0.323661" d="M170.838,-77.7166C174.599,-73.3005 179.849,-68.2472 185.804,-65.6985 358.795,8.34351 851.116,-82.2338 1031.8,-29.6985 1032.87,-29.3896 1033.93,-29.0244 1034.99,-28.6155"/>
<polygon fill="green" stroke="green" stroke-width="0.323661" points="1036.7,-31.6738 1044.11,-24.0968 1033.59,-25.4019 1036.7,-31.6738"/>
</g>
<!-- &#45;6&#45;&gt;2 -->
<g id="edge23" class="edge"><title>&#45;6&#45;&gt;2</title>
<path fill="none" stroke="green" stroke-width="0.170906" d="M170.868,-77.7846C174.639,-73.3911 179.889,-68.3378 185.804,-65.6985 306.437,-11.872 733.145,-13.9844 841.591,-15.4331"/>
<polygon fill="green" stroke="green" stroke-width="0.170906" points="841.831,-18.9368 851.881,-15.5819 841.933,-11.9376 841.831,-18.9368"/>
</g>
<!-- &#45;7 -->
<g id="node7" class="node"><title>&#45;7</title>
<polygon fill="lightgray" stroke="black" points="1651.8,-95.9117 1627.8,-95.9117 1627.8,-77.9117 1651.8,-77.9117 1651.8,-95.9117"/>
<text text-anchor="middle" x="1639.8" y="-84.7117" font-family="Times New Roman,serif" font-size="9.00">&#45;7</text>
</g>
<!-- &#45;7&#45;&gt;0 -->
<g id="edge24" class="edge"><title>&#45;7&#45;&gt;0</title>
<path fill="none" stroke="red" stroke-width="0.734629" d="M1633.76,-77.748C1629.99,-73.3424 1624.74,-68.2891 1618.8,-65.6985 1489.26,-9.16935 1124,-47.6502 983.804,-29.6985 968.844,-27.7829 952.269,-24.4947 939.114,-21.603"/>
<polygon fill="red" stroke="red" stroke-width="0.734629" points="939.505,-18.103 928.979,-19.306 937.958,-24.9299 939.505,-18.103"/>
</g>
<!-- &#45;7&#45;&gt;1 -->
<g id="edge25" class="edge"><title>&#45;7&#45;&gt;1</title>
<path fill="none" stroke="red" stroke-width="0.102758" d="M1633.72,-77.8183C1629.95,-73.4361 1624.7,-68.3828 1618.8,-65.6985 1520.77,-21.0564 1176.78,-16.3216 1080.82,-15.8782"/>
<polygon fill="red" stroke="red" stroke-width="0.102758" points="1080.64,-12.3776 1070.62,-15.8435 1080.61,-19.3776 1080.64,-12.3776"/>
</g>
<!-- &#45;7&#45;&gt;2 -->
<g id="edge26" class="edge"><title>&#45;7&#45;&gt;2</title>
<path fill="none" stroke="red" stroke-width="0.115119" d="M1633.76,-77.732C1630,-73.3209 1624.75,-68.2676 1618.8,-65.6985 1470.11,-1.45161 1046.18,-75.4555 890.804,-29.6985 889.742,-29.3859 888.678,-29.0177 887.62,-28.6064"/>
<polygon fill="red" stroke="red" stroke-width="0.115119" points="889.019,-25.3934 878.506,-24.0788 885.904,-31.6624 889.019,-25.3934"/>
</g>
<!-- &#45;7&#45;&gt;3 -->
<g id="edge27" class="edge"><title>&#45;7&#45;&gt;3</title>
<path fill="none" stroke="green" stroke-width="0.478296" d="M1633.75,-77.7583C1629.98,-73.3561 1624.73,-68.3028 1618.8,-65.6985 1499.14,-13.1516 1156.95,-67.3591 1031.8,-29.6985 1030.74,-29.3796 1029.68,-29.0063 1028.62,-28.5908"/>
<polygon fill="green" stroke="green" stroke-width="0.478296" points="1030.03,-25.3787 1019.51,-24.0479 1026.9,-31.6429 1030.03,-25.3787"/>
</g>
<!-- &#45;8 -->
<g id="node8" class="node"><title>&#45;8</title>
<polygon fill="lightgray" stroke="black" points="1693.8,-95.9117 1669.8,-95.9117 1669.8,-77.9117 1693.8,-77.9117 1693.8,-95.9117"/>
<text text-anchor="middle" x="1681.8" y="-84.7117" font-family="Times New Roman,serif" font-size="9.00">&#45;8</text>
</g>
<!-- &#45;8&#45;&gt;0 -->
<g id="edge28" class="edge"><title>&#45;8&#45;&gt;0</title>
<path fill="none" stroke="green" stroke-width="0.200034" d="M1675.76,-77.7402C1671.99,-73.332 1666.74,-68.2787 1660.8,-65.6985 1522.62,-5.68421 1133.27,-48.5718 983.804,-29.6985 968.841,-27.8091 952.265,-24.5219 939.111,-21.6241"/>
<polygon fill="green" stroke="green" stroke-width="0.200034" points="939.504,-18.1242 928.977,-19.3208 937.953,-24.9501 939.504,-18.1242"/>
</g>
<!-- &#45;8&#45;&gt;1 -->
<g id="edge29" class="edge"><title>&#45;8&#45;&gt;1</title>
<path fill="none" stroke="green" stroke-width="0.288541" d="M1675.73,-77.8048C1671.96,-73.4181 1666.71,-68.3648 1660.8,-65.6985 1554.69,-17.7668 1181.02,-15.4405 1080.73,-15.7015"/>
<polygon fill="green" stroke="green" stroke-width="0.288541" points="1080.62,-12.2018 1070.63,-15.7394 1080.65,-19.2017 1080.62,-12.2018"/>
</g>
<!-- &#45;8&#45;&gt;2 -->
<g id="edge30" class="edge"><title>&#45;8&#45;&gt;2</title>
<path fill="none" stroke="red" stroke-width="0.398113" d="M1675.77,-77.726C1672,-73.3129 1666.75,-68.2596 1660.8,-65.6985 1503.47,2.0345 1055.19,-77.8679 890.804,-29.6985 889.742,-29.3873 888.677,-29.0203 887.619,-28.61"/>
<polygon fill="red" stroke="red" stroke-width="0.398113" points="889.017,-25.3967 878.504,-24.0859 885.905,-31.6669 889.017,-25.3967"/>
</g>
<!-- &#45;8&#45;&gt;3 -->
<g id="edge31" class="edge"><title>&#45;8&#45;&gt;3</title>
<path fill="none" stroke="green" stroke-width="0.434236" d="M1675.76,-77.7492C1671.99,-73.344 1666.74,-68.2907 1660.8,-65.6985 1532.5,-9.66718 1165.95,-69.7703 1031.8,-29.6985 1030.74,-29.3818 1029.68,-29.0102 1028.62,-28.5962"/>
<polygon fill="green" stroke="green" stroke-width="0.434236" points="1030.02,-25.3837 1019.51,-24.0586 1026.9,-31.6497 1030.02,-25.3837"/>
</g>
<!-- &#45;9 -->
<g id="node9" class="node"><title>&#45;9</title>
<polygon fill="lightgray" stroke="black" points="1821.8,-95.9117 1797.8,-95.9117 1797.8,-77.9117 1821.8,-77.9117 1821.8,-95.9117"/>
<text text-anchor="middle" x="1809.8" y="-84.7117" font-family="Times New Roman,serif" font-size="9.00">&#45;9</text>
</g>
<!-- &#45;9&#45;&gt;0 -->
<g id="edge32" class="edge"><title>&#45;9&#45;&gt;0</title>
<path fill="none" stroke="green" stroke-width="0.316869" d="M1797.42,-80.5172C1785.68,-75.6769 1767.4,-68.8633 1750.8,-65.6985 1415.58,-1.75617 1322.51,-71.3961 983.804,-29.6985 968.835,-27.8557 952.259,-24.5701 939.107,-21.6616"/>
<polygon fill="green" stroke="green" stroke-width="0.316869" points="939.502,-18.1618 928.974,-19.347 937.943,-24.9861 939.502,-18.1618"/>
</g>
<!-- &#45;9&#45;&gt;1 -->
<g id="edge33" class="edge"><title>&#45;9&#45;&gt;1</title>
<path fill="none" stroke="green" stroke-width="0.102118" d="M1801.93,-77.7622C1797.14,-73.3613 1790.64,-68.308 1783.8,-65.6985 1651.22,-15.0965 1193.13,-14.8843 1080.81,-15.62"/>
<polygon fill="green" stroke="green" stroke-width="0.102118" points="1080.74,-12.1204 1070.77,-15.6949 1080.79,-19.1202 1080.74,-12.1204"/>
</g>
<!-- &#45;9&#45;&gt;3 -->
<g id="edge34" class="edge"><title>&#45;9&#45;&gt;3</title>
<path fill="none" stroke="green" stroke-width="0.527144" d="M1801.95,-77.7095C1797.17,-73.291 1790.67,-68.2377 1783.8,-65.6985 1626.89,-7.65065 1192.33,-76.834 1031.8,-29.6985 1030.74,-29.3868 1029.68,-29.0193 1028.62,-28.6085"/>
<polygon fill="green" stroke="green" stroke-width="0.527144" points="1030.02,-25.3953 1019.5,-24.083 1026.9,-31.665 1030.02,-25.3953"/>
</g>
<!-- &#45;10 -->
<g id="node10" class="node"><title>&#45;10</title>
<polygon fill="lightgray" stroke="black" points="134.304,-95.9117 105.304,-95.9117 105.304,-77.9117 134.304,-77.9117 134.304,-95.9117"/>
<text text-anchor="middle" x="119.804" y="-84.7117" font-family="Times New Roman,serif" font-size="9.00">&#45;10</text>
</g>
<!-- &#45;10&#45;&gt;0 -->
<g id="edge35" class="edge"><title>&#45;10&#45;&gt;0</title>
<path fill="none" stroke="red" stroke-width="0.286035" stroke-dasharray="1,5" d="M126.936,-77.716C131.313,-73.2996 137.313,-68.2463 143.804,-65.6985 298.505,-4.97256 731.351,-76.5468 890.804,-29.6985 891.865,-29.3866 892.93,-29.0189 893.988,-28.6081"/>
<polygon fill="red" stroke="red" stroke-width="0.286035" points="895.703,-31.6645 903.103,-24.0821 892.59,-25.3949 895.703,-31.6645"/>
</g>
<!-- &#45;10&#45;&gt;2 -->
<g id="edge36" class="edge"><title>&#45;10&#45;&gt;2</title>
<path fill="none" stroke="red" stroke-width="0.12513" stroke-dasharray="1,5" d="M126.956,-77.7662C131.34,-73.3666 137.34,-68.3133 143.804,-65.6985 274.329,-12.8984 729.251,-14.3192 841.581,-15.5112"/>
<polygon fill="red" stroke="red" stroke-width="0.12513" points="841.875,-19.0147 851.915,-15.6309 841.956,-12.0152 841.875,-19.0147"/>
</g>
<!-- &#45;10&#45;&gt;3 -->
<g id="edge37" class="edge"><title>&#45;10&#45;&gt;3</title>
<path fill="none" stroke="red" stroke-width="0.122443" d="M126.933,-77.7089C131.309,-73.2902 137.309,-68.2369 143.804,-65.6985 308.517,-1.31831 763.263,-51.162 938.804,-29.6985 953.774,-27.8681 970.35,-24.5829 983.502,-21.6715"/>
<polygon fill="red" stroke="red" stroke-width="0.122443" points="984.667,-24.9956 993.635,-19.354 983.106,-18.1718 984.667,-24.9956"/>
</g>
<!-- &#45;11 -->
<g id="node11" class="node"><title>&#45;11</title>
<polygon fill="lightgray" stroke="black" points="224.304,-95.9117 195.304,-95.9117 195.304,-77.9117 224.304,-77.9117 224.304,-95.9117"/>
<text text-anchor="middle" x="209.804" y="-84.7117" font-family="Times New Roman,serif" font-size="9.00">&#45;11</text>
</g>
<!-- &#45;11&#45;&gt;0 -->
<g id="edge38" class="edge"><title>&#45;11&#45;&gt;0</title>
<path fill="none" stroke="red" stroke-width="0.322254" d="M216.58,-77.735C220.755,-73.3251 226.505,-68.2718 232.804,-65.6985 368.369,-10.3178 750.437,-71.4355 890.804,-29.6985 891.864,-29.3831 892.928,-29.0127 893.986,-28.5995"/>
<polygon fill="red" stroke="red" stroke-width="0.322254" points="895.704,-31.6538 903.098,-24.0651 892.586,-25.3869 895.704,-31.6538"/>
</g>
<!-- &#45;11&#45;&gt;1 -->
<g id="edge39" class="edge"><title>&#45;11&#45;&gt;1</title>
<path fill="none" stroke="red" stroke-width="0.409265" d="M216.57,-77.7123C220.742,-73.2947 226.492,-68.2414 232.804,-65.6985 397.661,0.724151 861.198,-79.5338 1031.8,-29.6985 1032.87,-29.3882 1033.93,-29.022 1034.99,-28.6122"/>
<polygon fill="red" stroke="red" stroke-width="0.409265" points="1036.7,-31.6697 1044.11,-24.0903 1033.59,-25.3988 1036.7,-31.6697"/>
</g>
<!-- &#45;11&#45;&gt;2 -->
<g id="edge40" class="edge"><title>&#45;11&#45;&gt;2</title>
<path fill="none" stroke="red" stroke-width="0.239495" d="M216.603,-77.7911C220.786,-73.3999 226.536,-68.3466 232.804,-65.6985 345.53,-18.0742 738.408,-15.5496 841.743,-15.7289"/>
<polygon fill="red" stroke="red" stroke-width="0.239495" points="841.848,-19.2291 851.858,-15.7572 841.868,-12.2291 841.848,-19.2291"/>
</g>
<!-- &#45;11&#45;&gt;3 -->
<g id="edge41" class="edge"><title>&#45;11&#45;&gt;3</title>
<path fill="none" stroke="green" stroke-width="0.19244" d="M216.576,-77.7263C220.75,-73.3134 226.5,-68.2601 232.804,-65.6985 378.34,-6.5593 782.927,-49.2083 938.804,-29.6985 953.769,-27.8254 970.344,-24.5388 983.498,-21.6372"/>
<polygon fill="green" stroke="green" stroke-width="0.19244" points="984.659,-24.9627 993.632,-19.33 983.104,-18.1374 984.659,-24.9627"/>
</g>
<!-- &#45;12 -->
<g id="node12" class="node"><title>&#45;12</title>
<polygon fill="lightgray" stroke="black" points="271.304,-95.9117 242.304,-95.9117 242.304,-77.9117 271.304,-77.9117 271.304,-95.9117"/>
<text text-anchor="middle" x="256.804" y="-84.7117" font-family="Times New Roman,serif" font-size="9.00">&#45;12</text>
</g>
<!-- &#45;12&#45;&gt;0 -->
<g id="edge42" class="edge"><title>&#45;12&#45;&gt;0</title>
<path fill="none" stroke="red" stroke-width="0.17791" d="M263.584,-77.7449C267.76,-73.3383 273.51,-68.285 279.804,-65.6985 405.608,-13.9973 760.513,-68.7369 890.804,-29.6985 891.864,-29.3809 892.927,-29.0086 893.984,-28.594"/>
<polygon fill="red" stroke="red" stroke-width="0.17791" points="895.705,-31.6469 903.095,-24.0542 892.583,-25.3817 895.705,-31.6469"/>
</g>
<!-- &#45;12&#45;&gt;1 -->
<g id="edge43" class="edge"><title>&#45;12&#45;&gt;1</title>
<path fill="none" stroke="green" stroke-width="0.145176" d="M263.573,-77.7189C267.746,-73.3036 273.496,-68.2503 279.804,-65.6985 434.896,-2.95694 871.279,-76.834 1031.8,-29.6985 1032.87,-29.3868 1033.93,-29.0193 1034.99,-28.6085"/>
<polygon fill="green" stroke="green" stroke-width="0.145176" points="1036.7,-31.665 1044.1,-24.083 1033.59,-25.3953 1036.7,-31.665"/>
</g>
<!-- &#45;12&#45;&gt;2 -->
<g id="edge44" class="edge"><title>&#45;12&#45;&gt;2</title>
<path fill="none" stroke="red" stroke-width="0.494646" d="M263.609,-77.8058C267.794,-73.4194 273.544,-68.3661 279.804,-65.6985 383.424,-21.5389 743.28,-16.4663 841.736,-15.9106"/>
<polygon fill="red" stroke="red" stroke-width="0.494646" points="841.941,-19.4099 851.925,-15.8645 841.909,-12.4099 841.941,-19.4099"/>
</g>
<!-- &#45;12&#45;&gt;3 -->
<g id="edge45" class="edge"><title>&#45;12&#45;&gt;3</title>
<path fill="none" stroke="red" stroke-width="0.314221" d="M263.579,-77.7348C267.755,-73.3248 273.505,-68.2715 279.804,-65.6985 415.577,-10.2395 793.31,-48.1768 938.804,-29.6985 953.765,-27.7983 970.341,-24.5107 983.495,-21.6154"/>
<polygon fill="red" stroke="red" stroke-width="0.314221" points="984.653,-24.9417 993.63,-19.3147 983.103,-18.1154 984.653,-24.9417"/>
</g>
<!-- &#45;13 -->
<g id="node13" class="node"><title>&#45;13</title>
<polygon fill="lightgray" stroke="black" points="318.304,-95.9117 289.304,-95.9117 289.304,-77.9117 318.304,-77.9117 318.304,-95.9117"/>
<text text-anchor="middle" x="303.804" y="-84.7117" font-family="Times New Roman,serif" font-size="9.00">&#45;13</text>
</g>
<!-- &#45;13&#45;&gt;0 -->
<g id="edge46" class="edge"><title>&#45;13&#45;&gt;0</title>
<path fill="none" stroke="green" stroke-width="0.275619" stroke-dasharray="1,5" d="M310.951,-77.7541C315.333,-73.3505 321.333,-68.2972 327.804,-65.6985 560.473,27.7475 650.801,-102.264 890.804,-29.6985 891.863,-29.3783 892.925,-29.0038 893.982,-28.5874"/>
<polygon fill="green" stroke="green" stroke-width="0.275619" points="895.706,-31.6387 903.091,-24.0411 892.58,-25.3755 895.706,-31.6387"/>
</g>
<!-- &#45;13&#45;&gt;1 -->
<g id="edge47" class="edge"><title>&#45;13&#45;&gt;1</title>
<path fill="none" stroke="green" stroke-width="0.240523" d="M310.939,-77.7231C315.317,-73.3092 321.317,-68.2559 327.804,-65.6985 473.537,-8.24579 881.573,-74.0771 1031.8,-29.6985 1032.86,-29.385 1033.93,-29.0161 1034.99,-28.6042"/>
<polygon fill="green" stroke="green" stroke-width="0.240523" points="1036.7,-31.6597 1044.1,-24.0745 1033.59,-25.3913 1036.7,-31.6597"/>
</g>
<!-- &#45;13&#45;&gt;2 -->
<g id="edge48" class="edge"><title>&#45;13&#45;&gt;2</title>
<path fill="none" stroke="green" stroke-width="0.110778" d="M310.979,-77.8228C315.371,-73.442 321.371,-68.3887 327.804,-65.6985 422.573,-26.067 748.547,-17.7705 841.738,-16.1925"/>
<polygon fill="green" stroke="green" stroke-width="0.110778" points="841.974,-19.6893 851.917,-16.0317 841.863,-12.6902 841.974,-19.6893"/>
</g>
<!-- &#45;13&#45;&gt;3 -->
<g id="edge49" class="edge"><title>&#45;13&#45;&gt;3</title>
<path fill="none" stroke="green" stroke-width="0.102617" d="M310.946,-77.742C315.327,-73.3343 321.327,-68.281 327.804,-65.6985 454.145,-15.3236 803.911,-47.1236 938.804,-29.6985 953.761,-27.7663 970.337,-24.4776 983.492,-21.5897"/>
<polygon fill="green" stroke="green" stroke-width="0.102617" points="984.647,-24.917 993.628,-19.2967 983.102,-18.0896 984.647,-24.917"/>
</g>
<!-- &#45;14 -->
<g id="node14" class="node"><title>&#45;14</title>
<polygon fill="lightgray" stroke="black" points="365.304,-95.9117 336.304,-95.9117 336.304,-77.9117 365.304,-77.9117 365.304,-95.9117"/>
<text text-anchor="middle" x="350.804" y="-84.7117" font-family="Times New Roman,serif" font-size="9.00">&#45;14</text>
</g>
<!-- &#45;14&#45;&gt;0 -->
<g id="edge50" class="edge"><title>&#45;14&#45;&gt;0</title>
<path fill="none" stroke="green" stroke-width="0.284457" d="M357.957,-77.7682C362.341,-73.3693 368.341,-68.316 374.804,-65.6985 587.883,20.5978 670.945,-96.87 890.804,-29.6985 891.862,-29.3752 892.924,-28.9982 893.98,-28.5798"/>
<polygon fill="green" stroke="green" stroke-width="0.284457" points="895.708,-31.6291 903.086,-24.026 892.577,-25.3683 895.708,-31.6291"/>
</g>
<!-- &#45;14&#45;&gt;1 -->
<g id="edge51" class="edge"><title>&#45;14&#45;&gt;1</title>
<path fill="none" stroke="red" stroke-width="0.397862" d="M357.942,-77.732C362.322,-73.321 368.322,-68.2677 374.804,-65.6985 510.736,-11.823 891.651,-71.378 1031.8,-29.6985 1032.86,-29.3831 1033.93,-29.0126 1034.99,-28.5994"/>
<polygon fill="red" stroke="red" stroke-width="0.397862" points="1036.7,-31.6537 1044.1,-24.0649 1033.59,-25.3868 1036.7,-31.6537"/>
</g>
<!-- &#45;14&#45;&gt;2 -->
<g id="edge52" class="edge"><title>&#45;14&#45;&gt;2</title>
<path fill="none" stroke="green" stroke-width="0.27795" d="M357.988,-77.8439C362.383,-73.4701 368.383,-68.4168 374.804,-65.6985 460.479,-29.4286 753.723,-18.8423 841.672,-16.448"/>
<polygon fill="green" stroke="green" stroke-width="0.27795" points="841.893,-19.9435 851.798,-16.1843 841.711,-12.9459 841.893,-19.9435"/>
</g>
<!-- &#45;14&#45;&gt;3 -->
<g id="edge53" class="edge"><title>&#45;14&#45;&gt;3</title>
<path fill="none" stroke="green" stroke-width="0.317469" d="M357.951,-77.7539C362.333,-73.3501 368.333,-68.2968 374.804,-65.6985 491.347,-18.8994 814.29,-46.0927 938.804,-29.6985 953.757,-27.7297 970.332,-24.4397 983.488,-21.5602"/>
<polygon fill="green" stroke="green" stroke-width="0.317469" points="984.639,-24.8888 993.625,-19.2761 983.1,-18.06 984.639,-24.8888"/>
</g>
<!-- &#45;15 -->
<g id="node15" class="node"><title>&#45;15</title>
<polygon fill="lightgray" stroke="black" points="48.3039,-95.9117 19.3039,-95.9117 19.3039,-77.9117 48.3039,-77.9117 48.3039,-95.9117"/>
<text text-anchor="middle" x="33.8039" y="-84.7117" font-family="Times New Roman,serif" font-size="9.00">&#45;15</text>
</g>
<!-- &#45;15&#45;&gt;0 -->
<g id="edge54" class="edge"><title>&#45;15&#45;&gt;0</title>
<path fill="none" stroke="red" stroke-width="0.260319" d="M42.7228,-77.6924C48.1124,-73.2681 55.3624,-68.2148 62.8039,-65.6985 237.273,-6.70124 713.977,-81.1998 890.804,-29.6985 891.866,-29.3891 892.931,-29.0235 893.99,-28.6143"/>
<polygon fill="red" stroke="red" stroke-width="0.260319" points="895.702,-31.6723 903.106,-24.0944 892.592,-25.4008 895.702,-31.6723"/>
</g>
<!-- &#45;15&#45;&gt;2 -->
<g id="edge55" class="edge"><title>&#45;15&#45;&gt;2</title>
<path fill="none" stroke="green" stroke-width="0.183622" d="M42.7404,-77.7438C48.136,-73.3368 55.386,-68.2835 62.8039,-65.6985 211.689,-13.8154 722.012,-14.6556 841.59,-15.5935"/>
<polygon fill="green" stroke="green" stroke-width="0.183622" points="841.887,-19.0961 851.916,-15.6828 841.947,-12.0964 841.887,-19.0961"/>
</g>
<!-- &#45;15&#45;&gt;3 -->
<g id="edge56" class="edge"><title>&#45;15&#45;&gt;3</title>
<path fill="none" stroke="red" stroke-width="0.121717" d="M48.7937,-79.7467C61.1697,-74.9703 79.3155,-68.6804 95.8039,-65.6985 464.826,1.03915 566.51,-74.7331 938.804,-29.6985 953.776,-27.8873 970.352,-24.6029 983.504,-21.687"/>
<polygon fill="red" stroke="red" stroke-width="0.121717" points="984.671,-25.0105 993.636,-19.3648 983.107,-18.1874 984.671,-25.0105"/>
</g>
<!-- &#45;16 -->
<g id="node16" class="node"><title>&#45;16</title>
<polygon fill="lightgray" stroke="black" points="1784.3,-162.125 1755.3,-162.125 1755.3,-144.125 1784.3,-144.125 1784.3,-162.125"/>
<text text-anchor="middle" x="1769.8" y="-150.925" font-family="Times New Roman,serif" font-size="9.00">&#45;16</text>
</g>
<!-- &#45;16&#45;&gt;0 -->
<g id="edge57" class="edge"><title>&#45;16&#45;&gt;0</title>
<path fill="none" stroke="green" stroke-width="0.112759" d="M1755.11,-152.024C1592.04,-150.866 126.454,-139.591 95.8039,-108.125 82.6469,-94.6175 82.7756,-79.3301 95.8039,-65.6985 156.898,-1.77481 805.93,-54.5012 890.804,-29.6985 891.866,-29.3881 892.931,-29.0217 893.99,-28.6119"/>
<polygon fill="green" stroke="green" stroke-width="0.112759" points="895.702,-31.6693 903.105,-24.0897 892.591,-25.3985 895.702,-31.6693"/>
</g>
<!-- &#45;16&#45;&gt;1 -->
<g id="edge58" class="edge"><title>&#45;16&#45;&gt;1</title>
<path fill="none" stroke="green" stroke-width="0.179375" stroke-dasharray="1,5" d="M1784.44,-150.573C1821.91,-146.267 1919.71,-132.832 1938.8,-108.125 1950.34,-93.2061 1951.76,-79.4024 1938.8,-65.6985 1908.54,-33.6817 1222.68,-19.0036 1081.19,-16.3109"/>
<polygon fill="green" stroke="green" stroke-width="0.179375" points="1080.99,-12.8064 1070.92,-16.1184 1080.85,-19.8052 1080.99,-12.8064"/>
</g>
<!-- &#45;16&#45;&gt;2 -->
<g id="edge59" class="edge"><title>&#45;16&#45;&gt;2</title>
<path fill="none" stroke="red" stroke-width="0.400762" d="M1755.14,-152.043C1587.69,-151.074 42.0988,-141.237 9.80386,-108.125 -3.36181,-94.626 -3.13656,-79.4135 9.80386,-65.6985 39.1184,-34.6293 703.422,-19.2254 841.721,-16.3493"/>
<polygon fill="red" stroke="red" stroke-width="0.400762" points="841.851,-19.8475 851.777,-16.1431 841.707,-12.849 841.851,-19.8475"/>
</g>
<!-- &#45;16&#45;&gt;3 -->
<g id="edge60" class="edge"><title>&#45;16&#45;&gt;3</title>
<path fill="none" stroke="red" stroke-width="0.195756" d="M1770.87,-144.116C1772.68,-126.716 1774.14,-85.4453 1750.8,-65.6985 1689.74,-14.0329 1108.53,-52.3185 1031.8,-29.6985 1030.74,-29.3856 1029.68,-29.0171 1028.62,-28.6056"/>
<polygon fill="red" stroke="red" stroke-width="0.195756" points="1030.02,-25.3926 1019.51,-24.0772 1026.9,-31.6614 1030.02,-25.3926"/>
</g>
<!-- 618 -->
<g id="node45" class="node"><title>618</title>
<ellipse fill="white" stroke="black" cx="1908.8" cy="-86.9117" rx="21.4286" ry="21.4286"/>
<text text-anchor="middle" x="1908.8" y="-84.7117" font-family="Times New Roman,serif" font-size="9.00">618</text>
</g>
<!-- &#45;16&#45;&gt;618 -->
<g id="edge153" class="edge"><title>&#45;16&#45;&gt;618</title>
<path fill="none" stroke="green" stroke-width="0.3" d="M1784.34,-147.35C1805.65,-140.109 1846.36,-125.357 1878.8,-108.125 1880.33,-107.315 1881.87,-106.445 1883.41,-105.539"/>
<polygon fill="green" stroke="green" stroke-width="0.3" points="1885.46,-108.387 1892.05,-100.095 1881.73,-102.465 1885.46,-108.387"/>
</g>
<!-- &#45;17 -->
<g id="node17" class="node"><title>&#45;17</title>
<polygon fill="lightgray" stroke="black" points="412.304,-95.9117 383.304,-95.9117 383.304,-77.9117 412.304,-77.9117 412.304,-95.9117"/>
<text text-anchor="middle" x="397.804" y="-84.7117" font-family="Times New Roman,serif" font-size="9.00">&#45;17</text>
</g>
<!-- &#45;17&#45;&gt;0 -->
<g id="edge61" class="edge"><title>&#45;17&#45;&gt;0</title>
<path fill="none" stroke="red" stroke-width="0.146874" d="M404.963,-77.785C409.35,-73.3917 415.35,-68.3384 421.804,-65.6985 615.299,13.4508 691.083,-91.4776 890.804,-29.6985 891.861,-29.3715 892.922,-28.9915 893.977,-28.5706"/>
<polygon fill="red" stroke="red" stroke-width="0.146874" points="895.709,-31.6177 903.081,-24.0079 892.572,-25.3598 895.709,-31.6177"/>
</g>
<!-- &#45;17&#45;&gt;1 -->
<g id="edge62" class="edge"><title>&#45;17&#45;&gt;1</title>
<path fill="none" stroke="green" stroke-width="0.400136" d="M404.946,-77.7422C409.327,-73.3346 415.327,-68.2813 421.804,-65.6985 547.936,-15.3996 901.728,-68.6794 1031.8,-29.6985 1032.86,-29.3809 1033.93,-29.0085 1034.98,-28.5939"/>
<polygon fill="green" stroke="green" stroke-width="0.400136" points="1036.71,-31.6467 1044.09,-24.0539 1033.58,-25.3815 1036.71,-31.6467"/>
</g>
<!-- &#45;17&#45;&gt;2 -->
<g id="edge63" class="edge"><title>&#45;17&#45;&gt;2</title>
<path fill="none" stroke="red" stroke-width="0.284572" d="M404.999,-77.8693C409.397,-73.5041 415.397,-68.4508 421.804,-65.6985 498.458,-32.7681 759.385,-20.0153 841.707,-16.7539"/>
<polygon fill="red" stroke="red" stroke-width="0.284572" points="842.033,-20.244 851.891,-16.3632 841.764,-13.2492 842.033,-20.244"/>
</g>
<!-- &#45;17&#45;&gt;3 -->
<g id="edge64" class="edge"><title>&#45;17&#45;&gt;3</title>
<path fill="none" stroke="red" stroke-width="0.100264" d="M404.957,-77.7679C409.341,-73.3688 415.341,-68.3155 421.804,-65.6985 528.552,-22.4743 824.666,-45.062 938.804,-29.6985 953.751,-27.6866 970.326,-24.395 983.484,-21.5255"/>
<polygon fill="red" stroke="red" stroke-width="0.100264" points="984.63,-24.8554 993.622,-19.2518 983.098,-18.0251 984.63,-24.8554"/>
</g>
<!-- &#45;18 -->
<g id="node18" class="node"><title>&#45;18</title>
<polygon fill="lightgray" stroke="black" points="459.304,-95.9117 430.304,-95.9117 430.304,-77.9117 459.304,-77.9117 459.304,-95.9117"/>
<text text-anchor="middle" x="444.804" y="-84.7117" font-family="Times New Roman,serif" font-size="9.00">&#45;18</text>
</g>
<!-- &#45;18&#45;&gt;0 -->
<g id="edge65" class="edge"><title>&#45;18&#45;&gt;0</title>
<path fill="none" stroke="red" stroke-width="0.503019" d="M451.972,-77.8056C456.361,-73.4191 462.361,-68.3658 468.804,-65.6985 642.724,6.30722 711.212,-86.088 890.804,-29.6985 891.859,-29.367 892.919,-28.9833 893.974,-28.5595"/>
<polygon fill="red" stroke="red" stroke-width="0.503019" points="895.71,-31.6038 903.074,-23.9858 892.567,-25.3494 895.71,-31.6038"/>
</g>
<!-- &#45;18&#45;&gt;1 -->
<g id="edge66" class="edge"><title>&#45;18&#45;&gt;1</title>
<path fill="none" stroke="red" stroke-width="0.24039" d="M451.951,-77.7541C456.333,-73.3505 462.333,-68.2972 468.804,-65.6985 701.473,27.7475 791.801,-102.264 1031.8,-29.6985 1032.86,-29.3783 1033.93,-29.0038 1034.98,-28.5874"/>
<polygon fill="red" stroke="red" stroke-width="0.24039" points="1036.71,-31.6387 1044.09,-24.0411 1033.58,-25.3755 1036.71,-31.6387"/>
</g>
<!-- &#45;18&#45;&gt;2 -->
<g id="edge67" class="edge"><title>&#45;18&#45;&gt;2</title>
<path fill="none" stroke="red" stroke-width="0.428017" d="M452.012,-77.9006C456.415,-73.5458 462.415,-68.4925 468.804,-65.6985 536.457,-36.111 765.148,-21.3352 841.643,-17.1354"/>
<polygon fill="red" stroke="red" stroke-width="0.428017" points="841.989,-20.622 851.788,-16.592 841.615,-13.632 841.989,-20.622"/>
</g>
<!-- &#45;18&#45;&gt;3 -->
<g id="edge68" class="edge"><title>&#45;18&#45;&gt;3</title>
<path fill="none" stroke="green" stroke-width="0.125185" d="M451.963,-77.7846C456.35,-73.3912 462.35,-68.3379 468.804,-65.6985 565.76,-26.0478 835.039,-44.0318 938.804,-29.6985 953.649,-27.6479 970.109,-24.383 983.228,-21.5382"/>
<polygon fill="green" stroke="green" stroke-width="0.125185" points="984.353,-24.8734 993.353,-19.2832 982.831,-18.0408 984.353,-24.8734"/>
</g>
<!-- &#45;19 -->
<g id="node19" class="node"><title>&#45;19</title>
<polygon fill="lightgray" stroke="black" points="506.304,-95.9117 477.304,-95.9117 477.304,-77.9117 506.304,-77.9117 506.304,-95.9117"/>
<text text-anchor="middle" x="491.804" y="-84.7117" font-family="Times New Roman,serif" font-size="9.00">&#45;19</text>
</g>
<!-- &#45;19&#45;&gt;0 -->
<g id="edge69" class="edge"><title>&#45;19&#45;&gt;0</title>
<path fill="none" stroke="green" stroke-width="0.555014" d="M498.983,-77.8312C503.376,-73.4532 509.376,-68.3999 515.804,-65.6985 670.161,-0.831469 731.328,-80.7021 890.804,-29.6985 891.858,-29.3614 892.916,-28.9732 893.969,-28.5456"/>
<polygon fill="green" stroke="green" stroke-width="0.555014" points="895.712,-31.5865 903.065,-23.9583 892.56,-25.3364 895.712,-31.5865"/>
</g>
<!-- &#45;19&#45;&gt;1 -->
<g id="edge70" class="edge"><title>&#45;19&#45;&gt;1</title>
<path fill="none" stroke="green" stroke-width="0.216409" d="M498.957,-77.7682C503.341,-73.3693 509.341,-68.316 515.804,-65.6985 728.883,20.5978 811.945,-96.87 1031.8,-29.6985 1032.86,-29.3752 1033.92,-28.9982 1034.98,-28.5798"/>
<polygon fill="green" stroke="green" stroke-width="0.216409" points="1036.71,-31.6291 1044.09,-24.026 1033.58,-25.3683 1036.71,-31.6291"/>
</g>
<!-- &#45;19&#45;&gt;2 -->
<g id="edge71" class="edge"><title>&#45;19&#45;&gt;2</title>
<path fill="none" stroke="red" stroke-width="0.188219" d="M499.448,-77.531C503.814,-73.2847 509.637,-68.4561 515.804,-65.6985 574.604,-39.4034 771.882,-22.7837 841.897,-17.5953"/>
<polygon fill="red" stroke="red" stroke-width="0.188219" points="842.28,-21.0768 852,-16.8611 841.773,-14.0952 842.28,-21.0768"/>
</g>
<!-- &#45;19&#45;&gt;3 -->
<g id="edge72" class="edge"><title>&#45;19&#45;&gt;3</title>
<path fill="none" stroke="green" stroke-width="0.155568" d="M498.972,-77.8051C503.361,-73.4185 509.361,-68.3652 515.804,-65.6985 602.972,-29.6197 845.407,-43.0023 938.804,-29.6985 953.64,-27.5851 970.099,-24.3176 983.22,-21.4871"/>
<polygon fill="green" stroke="green" stroke-width="0.155568" points="984.34,-24.8242 993.348,-19.2472 982.828,-17.9894 984.34,-24.8242"/>
</g>
<!-- &#45;20 -->
<g id="node20" class="node"><title>&#45;20</title>
<polygon fill="lightgray" stroke="black" points="553.304,-95.9117 524.304,-95.9117 524.304,-77.9117 553.304,-77.9117 553.304,-95.9117"/>
<text text-anchor="middle" x="538.804" y="-84.7117" font-family="Times New Roman,serif" font-size="9.00">&#45;20</text>
</g>
<!-- &#45;20&#45;&gt;0 -->
<g id="edge73" class="edge"><title>&#45;20&#45;&gt;0</title>
<path fill="none" stroke="red" stroke-width="0.407762" d="M545.997,-77.8639C550.394,-73.4969 556.394,-68.4436 562.804,-65.6985 697.614,-7.96313 751.428,-75.3218 890.804,-29.6985 891.684,-29.4104 892.567,-29.0873 893.449,-28.7362"/>
<polygon fill="red" stroke="red" stroke-width="0.407762" points="895.16,-31.7944 902.56,-24.2126 892.047,-25.5246 895.16,-31.7944"/>
</g>
<!-- &#45;20&#45;&gt;1 -->
<g id="edge74" class="edge"><title>&#45;20&#45;&gt;1</title>
<path fill="none" stroke="green" stroke-width="0.138419" d="M545.963,-77.785C550.35,-73.3917 556.35,-68.3384 562.804,-65.6985 756.299,13.4508 832.083,-91.4776 1031.8,-29.6985 1032.86,-29.3715 1033.92,-28.9915 1034.98,-28.5706"/>
<polygon fill="green" stroke="green" stroke-width="0.138419" points="1036.71,-31.6177 1044.08,-24.0079 1033.57,-25.3598 1036.71,-31.6177"/>
</g>
<!-- &#45;20&#45;&gt;2 -->
<g id="edge75" class="edge"><title>&#45;20&#45;&gt;2</title>
<path fill="none" stroke="green" stroke-width="0.138354" d="M546.472,-77.5836C550.845,-73.3527 556.667,-68.5221 562.804,-65.6985 658.74,-21.5557 787.538,-15.8522 841.431,-15.5521"/>
<polygon fill="green" stroke="green" stroke-width="0.138354" points="841.753,-19.0522 851.755,-15.5582 841.757,-12.0522 841.753,-19.0522"/>
</g>
<!-- &#45;20&#45;&gt;3 -->
<g id="edge76" class="edge"><title>&#45;20&#45;&gt;3</title>
<path fill="none" stroke="red" stroke-width="0.293819" d="M545.982,-77.8306C550.375,-73.4524 556.375,-68.3991 562.804,-65.6985 717.577,-0.679645 772.733,-54.2488 938.804,-29.6985 953.629,-27.5069 970.088,-24.2361 983.211,-21.4234"/>
<polygon fill="red" stroke="red" stroke-width="0.293819" points="984.323,-24.7628 993.342,-19.2022 982.824,-17.9253 984.323,-24.7628"/>
</g>
<!-- &#45;21 -->
<g id="node21" class="node"><title>&#45;21</title>
<polygon fill="lightgray" stroke="black" points="600.304,-95.9117 571.304,-95.9117 571.304,-77.9117 600.304,-77.9117 600.304,-95.9117"/>
<text text-anchor="middle" x="585.804" y="-84.7117" font-family="Times New Roman,serif" font-size="9.00">&#45;21</text>
</g>
<!-- &#45;21&#45;&gt;0 -->
<g id="edge77" class="edge"><title>&#45;21&#45;&gt;0</title>
<path fill="none" stroke="green" stroke-width="0.139725" d="M593.015,-77.9074C597.419,-73.5548 603.419,-68.5015 609.804,-65.6985 725.092,-15.0841 771.501,-69.9499 890.804,-29.6985 891.681,-29.4024 892.563,-29.0726 893.442,-28.7158"/>
<polygon fill="green" stroke="green" stroke-width="0.139725" points="895.165,-31.7676 902.544,-24.1656 892.035,-25.5063 895.165,-31.7676"/>
</g>
<!-- &#45;21&#45;&gt;1 -->
<g id="edge78" class="edge"><title>&#45;21&#45;&gt;1</title>
<path fill="none" stroke="red" stroke-width="0.324414" d="M592.972,-77.8056C597.361,-73.4191 603.361,-68.3658 609.804,-65.6985 783.724,6.30722 852.212,-86.088 1031.8,-29.6985 1032.86,-29.367 1033.92,-28.9833 1034.97,-28.5595"/>
<polygon fill="red" stroke="red" stroke-width="0.324414" points="1036.71,-31.6038 1044.07,-23.9858 1033.57,-25.3494 1036.71,-31.6038"/>
</g>
<!-- &#45;21&#45;&gt;2 -->
<g id="edge79" class="edge"><title>&#45;21&#45;&gt;2</title>
<path fill="none" stroke="red" stroke-width="0.551224" d="M593.505,-77.6545C597.888,-73.4443 603.709,-68.6109 609.804,-65.6985 688.747,-27.9755 794.288,-18.7979 841.785,-16.566"/>
<polygon fill="red" stroke="red" stroke-width="0.551224" points="841.938,-20.0628 851.788,-16.1606 841.655,-13.0685 841.938,-20.0628"/>
</g>
<!-- &#45;21&#45;&gt;3 -->
<g id="edge80" class="edge"><title>&#45;21&#45;&gt;3</title>
<path fill="none" stroke="red" stroke-width="0.256703" d="M592.996,-77.8631C597.394,-73.4959 603.394,-68.4426 609.804,-65.6985 745.03,-7.81148 793.439,-52.1941 938.804,-29.6985 953.614,-27.4066 970.072,-24.1317 983.199,-21.3418"/>
<polygon fill="red" stroke="red" stroke-width="0.256703" points="984.302,-24.6841 993.333,-19.1447 982.818,-17.8431 984.302,-24.6841"/>
</g>
<!-- &#45;22 -->
<g id="node22" class="node"><title>&#45;22</title>
<polygon fill="lightgray" stroke="black" points="1117.3,-95.9117 1088.3,-95.9117 1088.3,-77.9117 1117.3,-77.9117 1117.3,-95.9117"/>
<text text-anchor="middle" x="1102.8" y="-84.7117" font-family="Times New Roman,serif" font-size="9.00">&#45;22</text>
</g>
<!-- &#45;22&#45;&gt;0 -->
<g id="edge81" class="edge"><title>&#45;22&#45;&gt;0</title>
<path fill="none" stroke="green" stroke-width="0.280111" d="M1095.36,-77.8853C1091.14,-73.7428 1085.57,-68.9003 1079.8,-65.6985 1033.74,-40.1028 972.978,-26.1333 939.532,-19.9063"/>
<polygon fill="green" stroke="green" stroke-width="0.280111" points="939.756,-16.3912 929.298,-18.0857 938.53,-23.283 939.756,-16.3912"/>
</g>
<!-- &#45;22&#45;&gt;3 -->
<g id="edge82" class="edge"><title>&#45;22&#45;&gt;3</title>
<path fill="none" stroke="green" stroke-width="0.359812" d="M1094.05,-77.7945C1089.84,-74.0014 1084.66,-69.4953 1079.8,-65.6985 1063.2,-52.7211 1043.46,-39.1804 1028.86,-29.4921"/>
<polygon fill="green" stroke="green" stroke-width="0.359812" points="1030.36,-26.2942 1020.08,-23.7266 1026.52,-32.1439 1030.36,-26.2942"/>
</g>
<!-- &#45;23 -->
<g id="node23" class="node"><title>&#45;23</title>
<polygon fill="lightgray" stroke="black" points="647.304,-95.9117 618.304,-95.9117 618.304,-77.9117 647.304,-77.9117 647.304,-95.9117"/>
<text text-anchor="middle" x="632.804" y="-84.7117" font-family="Times New Roman,serif" font-size="9.00">&#45;23</text>
</g>
<!-- &#45;23&#45;&gt;0 -->
<g id="edge83" class="edge"><title>&#45;23&#45;&gt;0</title>
<path fill="none" stroke="red" stroke-width="0.158661" d="M640.461,-77.5594C644.83,-73.3214 650.653,-68.4917 656.804,-65.6985 752.61,-22.1877 791.534,-64.5919 890.804,-29.6985 891.678,-29.3914 892.555,-29.0522 893.432,-28.6874"/>
<polygon fill="red" stroke="red" stroke-width="0.158661" points="895.171,-31.7303 902.522,-24.1004 892.017,-25.481 895.171,-31.7303"/>
</g>
<!-- &#45;23&#45;&gt;1 -->
<g id="edge84" class="edge"><title>&#45;23&#45;&gt;1</title>
<path fill="none" stroke="red" stroke-width="0.160151" d="M639.983,-77.8312C644.376,-73.4532 650.376,-68.3999 656.804,-65.6985 811.161,-0.831469 872.328,-80.7021 1031.8,-29.6985 1032.86,-29.3614 1033.92,-28.9732 1034.97,-28.5456"/>
<polygon fill="red" stroke="red" stroke-width="0.160151" points="1036.71,-31.5865 1044.06,-23.9583 1033.56,-25.3364 1036.71,-31.5865"/>
</g>
<!-- &#45;23&#45;&gt;2 -->
<g id="edge85" class="edge"><title>&#45;23&#45;&gt;2</title>
<path fill="none" stroke="red" stroke-width="0.593487" d="M640.554,-77.7548C644.951,-73.574 650.771,-68.7367 656.804,-65.6985 718.884,-34.4362 801.254,-22.3063 841.917,-17.9961"/>
<polygon fill="red" stroke="red" stroke-width="0.593487" points="842.395,-21.466 852.002,-16.999 841.706,-14.5 842.395,-21.466"/>
</g>
<!-- &#45;23&#45;&gt;3 -->
<g id="edge86" class="edge"><title>&#45;23&#45;&gt;3</title>
<path fill="none" stroke="green" stroke-width="0.368204" d="M640.015,-77.9063C644.419,-73.5534 650.419,-68.5001 656.804,-65.6985 772.507,-14.9327 814.118,-50.1436 938.804,-29.6985 953.593,-27.2735 970.05,-23.993 983.182,-21.2335"/>
<polygon fill="green" stroke="green" stroke-width="0.368204" points="984.272,-24.5796 993.321,-19.0682 982.81,-17.734 984.272,-24.5796"/>
</g>
<!-- &#45;24 -->
<g id="node24" class="node"><title>&#45;24</title>
<polygon fill="lightgray" stroke="black" points="694.304,-95.9117 665.304,-95.9117 665.304,-77.9117 694.304,-77.9117 694.304,-95.9117"/>
<text text-anchor="middle" x="679.804" y="-84.7117" font-family="Times New Roman,serif" font-size="9.00">&#45;24</text>
</g>
<!-- &#45;24&#45;&gt;0 -->
<g id="edge87" class="edge"><title>&#45;24&#45;&gt;0</title>
<path fill="none" stroke="red" stroke-width="0.340727" d="M687.503,-77.6511C691.886,-73.4399 697.707,-68.6067 703.804,-65.6985 780.196,-29.2602 811.497,-59.2588 890.804,-29.6985 891.672,-29.3751 892.545,-29.022 893.417,-28.6455"/>
<polygon fill="red" stroke="red" stroke-width="0.340727" points="895.179,-31.6753 902.487,-24.0039 891.99,-25.4439 895.179,-31.6753"/>
</g>
<!-- &#45;24&#45;&gt;1 -->
<g id="edge88" class="edge"><title>&#45;24&#45;&gt;1</title>
<path fill="none" stroke="green" stroke-width="0.373448" d="M686.997,-77.8639C691.394,-73.4969 697.394,-68.4436 703.804,-65.6985 838.614,-7.96313 892.428,-75.3218 1031.8,-29.6985 1032.68,-29.4104 1033.57,-29.0873 1034.45,-28.7362"/>
<polygon fill="green" stroke="green" stroke-width="0.373448" points="1036.16,-31.7944 1043.56,-24.2126 1033.05,-25.5246 1036.16,-31.7944"/>
</g>
<!-- &#45;24&#45;&gt;2 -->
<g id="edge89" class="edge"><title>&#45;24&#45;&gt;2</title>
<path fill="none" stroke="green" stroke-width="0.171338" stroke-dasharray="1,5" d="M687.634,-77.9069C692.054,-73.7707 697.871,-68.9273 703.804,-65.6985 749.342,-40.9169 808.892,-26.7076 841.947,-20.2065"/>
<polygon fill="green" stroke="green" stroke-width="0.171338" points="842.906,-23.5874 852.083,-18.2931 841.608,-16.7089 842.906,-23.5874"/>
</g>
<!-- &#45;24&#45;&gt;3 -->
<g id="edge90" class="edge"><title>&#45;24&#45;&gt;3</title>
<path fill="none" stroke="red" stroke-width="0.102529" d="M687.46,-77.5578C691.829,-73.3194 697.653,-68.4898 703.804,-65.6985 800.024,-22.0368 834.756,-48.1 938.804,-29.6985 953.561,-27.0886 970.017,-23.8004 983.156,-21.083"/>
<polygon fill="red" stroke="red" stroke-width="0.102529" points="984.23,-24.4341 993.303,-18.962 982.798,-17.5822 984.23,-24.4341"/>
</g>
<!-- &#45;25 -->
<g id="node25" class="node"><title>&#45;25</title>
<polygon fill="lightgray" stroke="black" points="741.304,-95.9117 712.304,-95.9117 712.304,-77.9117 741.304,-77.9117 741.304,-95.9117"/>
<text text-anchor="middle" x="726.804" y="-84.7117" font-family="Times New Roman,serif" font-size="9.00">&#45;25</text>
</g>
<!-- &#45;25&#45;&gt;0 -->
<g id="edge91" class="edge"><title>&#45;25&#45;&gt;0</title>
<path fill="none" stroke="green" stroke-width="0.853317" d="M734.577,-77.7995C738.981,-73.6318 744.799,-68.7927 750.804,-65.6985 807.914,-36.269 831.322,-53.9775 890.804,-29.6985 891.661,-29.3485 892.525,-28.9729 893.39,-28.5774"/>
<polygon fill="green" stroke="green" stroke-width="0.853317" points="895.19,-31.5861 902.426,-23.8472 891.943,-25.3845 895.19,-31.5861"/>
</g>
<!-- &#45;25&#45;&gt;1 -->
<g id="edge92" class="edge"><title>&#45;25&#45;&gt;1</title>
<path fill="none" stroke="red" stroke-width="0.330285" d="M734.015,-77.9074C738.419,-73.5548 744.419,-68.5015 750.804,-65.6985 866.092,-15.0841 912.501,-69.9499 1031.8,-29.6985 1032.68,-29.4024 1033.56,-29.0726 1034.44,-28.7158"/>
<polygon fill="red" stroke="red" stroke-width="0.330285" points="1036.16,-31.7676 1043.54,-24.1656 1033.03,-25.5063 1036.16,-31.7676"/>
</g>
<!-- &#45;25&#45;&gt;2 -->
<g id="edge93" class="edge"><title>&#45;25&#45;&gt;2</title>
<path fill="none" stroke="green" stroke-width="0.472815" d="M735.217,-77.7655C739.62,-73.7875 745.241,-69.1316 750.804,-65.6985 780.865,-47.1473 819.046,-32.1982 843.212,-23.6675"/>
<polygon fill="green" stroke="green" stroke-width="0.472815" points="844.635,-26.8793 852.948,-20.3112 842.354,-20.2615 844.635,-26.8793"/>
</g>
<!-- &#45;25&#45;&gt;3 -->
<g id="edge94" class="edge"><title>&#45;25&#45;&gt;3</title>
<path fill="none" stroke="green" stroke-width="0.372165" d="M734.502,-77.6487C738.884,-73.4368 744.706,-68.6036 750.804,-65.6985 827.608,-29.1102 855.32,-46.0694 938.804,-29.6985 953.51,-26.8146 969.964,-23.515 983.114,-20.86"/>
<polygon fill="green" stroke="green" stroke-width="0.372165" points="984.166,-24.2183 993.273,-18.8047 982.778,-17.3573 984.166,-24.2183"/>
</g>
<!-- &#45;26 -->
<g id="node26" class="node"><title>&#45;26</title>
<polygon fill="lightgray" stroke="black" points="788.304,-95.9117 759.304,-95.9117 759.304,-77.9117 788.304,-77.9117 788.304,-95.9117"/>
<text text-anchor="middle" x="773.804" y="-84.7117" font-family="Times New Roman,serif" font-size="9.00">&#45;26</text>
</g>
<!-- &#45;26&#45;&gt;0 -->
<g id="edge95" class="edge"><title>&#45;26&#45;&gt;0</title>
<path fill="none" stroke="red" stroke-width="0.286285" d="M782.165,-77.679C786.554,-73.6789 792.179,-69.0294 797.804,-65.6985 835.941,-43.1148 850.824,-48.8314 890.804,-29.6985 891.639,-29.2987 892.485,-28.8808 893.334,-28.4496"/>
<polygon fill="red" stroke="red" stroke-width="0.286285" points="895.198,-31.4194 902.296,-23.5531 891.842,-25.2765 895.198,-31.4194"/>
</g>
<!-- &#45;26&#45;&gt;1 -->
<g id="edge96" class="edge"><title>&#45;26&#45;&gt;1</title>
<path fill="none" stroke="green" stroke-width="0.168394" d="M781.461,-77.5594C785.83,-73.3214 791.653,-68.4917 797.804,-65.6985 893.61,-22.1877 932.534,-64.5919 1031.8,-29.6985 1032.68,-29.3914 1033.56,-29.0522 1034.43,-28.6874"/>
<polygon fill="green" stroke="green" stroke-width="0.168394" points="1036.17,-31.7303 1043.52,-24.1004 1033.02,-25.481 1036.17,-31.7303"/>
</g>
<!-- &#45;26&#45;&gt;2 -->
<g id="edge97" class="edge"><title>&#45;26&#45;&gt;2</title>
<path fill="none" stroke="red" stroke-width="0.291922" d="M783.017,-77.8767C787.428,-74.1016 792.823,-69.5868 797.804,-65.6985 813.858,-53.1666 832.624,-39.681 846.529,-29.9003"/>
<polygon fill="red" stroke="red" stroke-width="0.291922" points="848.698,-32.6543 854.887,-24.0552 844.686,-26.9178 848.698,-32.6543"/>
</g>
<!-- &#45;26&#45;&gt;3 -->
<g id="edge98" class="edge"><title>&#45;26&#45;&gt;3</title>
<path fill="none" stroke="red" stroke-width="0.145137" stroke-dasharray="1,5" d="M781.554,-77.7548C785.951,-73.574 791.771,-68.7367 797.804,-65.6985 814.403,-57.3396 931.392,-31.9989 983.206,-21.0168"/>
<polygon fill="red" stroke="red" stroke-width="0.145137" points="984.154,-24.394 993.214,-18.9025 982.707,-17.5451 984.154,-24.394"/>
</g>
<!-- &#45;27 -->
<g id="node27" class="node"><title>&#45;27</title>
<polygon fill="lightgray" stroke="black" points="835.304,-95.9117 806.304,-95.9117 806.304,-77.9117 835.304,-77.9117 835.304,-95.9117"/>
<text text-anchor="middle" x="820.804" y="-84.7117" font-family="Times New Roman,serif" font-size="9.00">&#45;27</text>
</g>
<!-- &#45;27&#45;&gt;0 -->
<g id="edge99" class="edge"><title>&#45;27&#45;&gt;0</title>
<path fill="none" stroke="green" stroke-width="0.380238" d="M830.005,-77.8614C834.413,-74.083 839.809,-69.5698 844.804,-65.6985 861.054,-53.1022 880.095,-39.6216 894.212,-29.8591"/>
<polygon fill="green" stroke="green" stroke-width="0.380238" points="896.439,-32.5753 902.699,-24.0274 892.475,-26.806 896.439,-32.5753"/>
</g>
<!-- &#45;27&#45;&gt;1 -->
<g id="edge100" class="edge"><title>&#45;27&#45;&gt;1</title>
<path fill="none" stroke="red" stroke-width="1.0127" d="M828.503,-77.6511C832.886,-73.4399 838.707,-68.6067 844.804,-65.6985 921.196,-29.2602 952.497,-59.2588 1031.8,-29.6985 1032.67,-29.3751 1033.54,-29.022 1034.42,-28.6455"/>
<polygon fill="red" stroke="red" stroke-width="1.0127" points="1036.18,-31.6753 1043.49,-24.0039 1032.99,-25.4439 1036.18,-31.6753"/>
</g>
<!-- &#45;27&#45;&gt;2 -->
<g id="edge101" class="edge"><title>&#45;27&#45;&gt;2</title>
<path fill="none" stroke="green" stroke-width="0.30197" d="M826.081,-77.8746C832.701,-67.7908 844.293,-50.1351 853.421,-36.233"/>
<polygon fill="green" stroke="green" stroke-width="0.30197" points="856.423,-38.037 858.986,-27.7567 850.572,-34.1951 856.423,-38.037"/>
</g>
<!-- &#45;27&#45;&gt;3 -->
<g id="edge102" class="edge"><title>&#45;27&#45;&gt;3</title>
<path fill="none" stroke="green" stroke-width="0.277734" d="M828.634,-77.9069C833.054,-73.7707 838.871,-68.9273 844.804,-65.6985 890.342,-40.9169 949.892,-26.7076 982.947,-20.2065"/>
<polygon fill="green" stroke="green" stroke-width="0.277734" points="983.906,-23.5874 993.083,-18.2931 982.608,-16.7089 983.906,-23.5874"/>
</g>
<!-- &#45;28 -->
<g id="node28" class="node"><title>&#45;28</title>
<polygon fill="lightgray" stroke="black" points="882.304,-95.9117 853.304,-95.9117 853.304,-77.9117 882.304,-77.9117 882.304,-95.9117"/>
<text text-anchor="middle" x="867.804" y="-84.7117" font-family="Times New Roman,serif" font-size="9.00">&#45;28</text>
</g>
<!-- &#45;28&#45;&gt;0 -->
<g id="edge103" class="edge"><title>&#45;28&#45;&gt;0</title>
<path fill="none" stroke="green" stroke-width="0.870434" d="M873.195,-77.8746C879.999,-67.7318 891.943,-49.9283 901.293,-35.9895"/>
<polygon fill="green" stroke="green" stroke-width="0.870434" points="904.319,-37.7615 906.983,-27.5071 898.506,-33.8618 904.319,-37.7615"/>
</g>
<!-- &#45;28&#45;&gt;1 -->
<g id="edge104" class="edge"><title>&#45;28&#45;&gt;1</title>
<path fill="none" stroke="green" stroke-width="0.10554" d="M875.577,-77.7995C879.981,-73.6318 885.799,-68.7927 891.804,-65.6985 948.914,-36.269 972.322,-53.9775 1031.8,-29.6985 1032.66,-29.3485 1033.53,-28.9729 1034.39,-28.5774"/>
<polygon fill="green" stroke="green" stroke-width="0.10554" points="1036.19,-31.5861 1043.43,-23.8472 1032.94,-25.3845 1036.19,-31.5861"/>
</g>
<!-- &#45;28&#45;&gt;2 -->
<g id="edge105" class="edge"><title>&#45;28&#45;&gt;2</title>
<path fill="none" stroke="red" stroke-width="0.116235" stroke-dasharray="1,5" d="M867.689,-77.8746C867.558,-68.7202 867.339,-53.3256 867.151,-40.1641"/>
<polygon fill="red" stroke="red" stroke-width="0.116235" points="870.646,-39.7687 867.003,-29.8197 863.646,-39.8686 870.646,-39.7687"/>
</g>
<!-- &#45;28&#45;&gt;3 -->
<g id="edge106" class="edge"><title>&#45;28&#45;&gt;3</title>
<path fill="none" stroke="red" stroke-width="0.613712" d="M876.217,-77.7655C880.62,-73.7875 886.241,-69.1316 891.804,-65.6985 921.865,-47.1473 960.046,-32.1982 984.212,-23.6675"/>
<polygon fill="red" stroke="red" stroke-width="0.613712" points="985.635,-26.8793 993.948,-20.3112 983.354,-20.2615 985.635,-26.8793"/>
</g>
<!-- &#45;29 -->
<g id="node29" class="node"><title>&#45;29</title>
<polygon fill="lightgray" stroke="black" points="1741.3,-95.9117 1712.3,-95.9117 1712.3,-77.9117 1741.3,-77.9117 1741.3,-95.9117"/>
<text text-anchor="middle" x="1726.8" y="-84.7117" font-family="Times New Roman,serif" font-size="9.00">&#45;29</text>
</g>
<!-- &#45;29&#45;&gt;1 -->
<g id="edge107" class="edge"><title>&#45;29&#45;&gt;1</title>
<path fill="none" stroke="red" stroke-width="0.57996" d="M1719.64,-77.7857C1715.26,-73.3926 1709.26,-68.3393 1702.8,-65.6985 1587.11,-18.3556 1185.82,-15.6329 1081.01,-15.7472"/>
<polygon fill="red" stroke="red" stroke-width="0.57996" points="1080.75,-12.2476 1070.76,-15.769 1080.77,-19.2476 1080.75,-12.2476"/>
</g>
<!-- &#45;29&#45;&gt;2 -->
<g id="edge108" class="edge"><title>&#45;29&#45;&gt;2</title>
<path fill="none" stroke="red" stroke-width="0.231511" d="M1719.68,-77.7066C1715.3,-73.2871 1709.3,-68.2338 1702.8,-65.6985 1534.54,-0.024007 1064.2,-80.2806 890.804,-29.6985 889.742,-29.3886 888.677,-29.0227 887.618,-28.6132"/>
<polygon fill="red" stroke="red" stroke-width="0.231511" points="889.016,-25.3997 878.502,-24.0922 885.906,-31.6708 889.016,-25.3997"/>
</g>
<!-- &#45;29&#45;&gt;3 -->
<g id="edge109" class="edge"><title>&#45;29&#45;&gt;3</title>
<path fill="none" stroke="red" stroke-width="0.145056" d="M1719.67,-77.7292C1715.29,-73.3173 1709.29,-68.264 1702.8,-65.6985 1563.95,-10.7575 1174.96,-72.182 1031.8,-29.6985 1030.74,-29.3837 1029.68,-29.0137 1028.62,-28.6009"/>
<polygon fill="red" stroke="red" stroke-width="0.145056" points="1030.02,-25.3882 1019.51,-24.0679 1026.9,-31.6555 1030.02,-25.3882"/>
</g>
<!-- &#45;30 -->
<g id="node30" class="node"><title>&#45;30</title>
<polygon fill="lightgray" stroke="black" points="929.304,-95.9117 900.304,-95.9117 900.304,-77.9117 929.304,-77.9117 929.304,-95.9117"/>
<text text-anchor="middle" x="914.804" y="-84.7117" font-family="Times New Roman,serif" font-size="9.00">&#45;30</text>
</g>
<!-- &#45;30&#45;&gt;0 -->
<g id="edge110" class="edge"><title>&#45;30&#45;&gt;0</title>
<path fill="none" stroke="red" stroke-width="0.163001" d="M914.804,-77.8746C914.804,-68.7202 914.804,-53.3256 914.804,-40.1641"/>
<polygon fill="red" stroke="red" stroke-width="0.163001" points="918.304,-39.8196 914.804,-29.8197 911.304,-39.8197 918.304,-39.8196"/>
</g>
<!-- &#45;30&#45;&gt;1 -->
<g id="edge111" class="edge"><title>&#45;30&#45;&gt;1</title>
<path fill="none" stroke="green" stroke-width="0.134365" d="M923.165,-77.679C927.554,-73.6789 933.179,-69.0294 938.804,-65.6985 976.941,-43.1148 991.824,-48.8314 1031.8,-29.6985 1032.64,-29.2987 1033.48,-28.8808 1034.33,-28.4496"/>
<polygon fill="green" stroke="green" stroke-width="0.134365" points="1036.2,-31.4194 1043.3,-23.5531 1032.84,-25.2765 1036.2,-31.4194"/>
</g>
<!-- &#45;30&#45;&gt;2 -->
<g id="edge112" class="edge"><title>&#45;30&#45;&gt;2</title>
<path fill="none" stroke="green" stroke-width="0.118485" d="M909.298,-77.8746C902.349,-67.7318 890.152,-49.9283 880.602,-35.9895"/>
<polygon fill="green" stroke="green" stroke-width="0.118485" points="883.33,-33.7786 874.791,-27.5071 877.555,-37.7349 883.33,-33.7786"/>
</g>
<!-- &#45;30&#45;&gt;3 -->
<g id="edge113" class="edge"><title>&#45;30&#45;&gt;3</title>
<path fill="none" stroke="red" stroke-width="0.134399" d="M924.017,-77.8767C928.428,-74.1016 933.823,-69.5868 938.804,-65.6985 954.858,-53.1666 973.624,-39.681 987.529,-29.9003"/>
<polygon fill="red" stroke="red" stroke-width="0.134399" points="989.698,-32.6543 995.887,-24.0552 985.686,-26.9178 989.698,-32.6543"/>
</g>
<!-- &#45;31 -->
<g id="node31" class="node"><title>&#45;31</title>
<polygon fill="lightgray" stroke="black" points="976.304,-95.9117 947.304,-95.9117 947.304,-77.9117 976.304,-77.9117 976.304,-95.9117"/>
<text text-anchor="middle" x="961.804" y="-84.7117" font-family="Times New Roman,serif" font-size="9.00">&#45;31</text>
</g>
<!-- &#45;31&#45;&gt;0 -->
<g id="edge114" class="edge"><title>&#45;31&#45;&gt;0</title>
<path fill="none" stroke="green" stroke-width="0.279597" d="M956.412,-77.8746C949.608,-67.7318 937.665,-49.9283 928.315,-35.9895"/>
<polygon fill="green" stroke="green" stroke-width="0.279597" points="931.102,-33.8618 922.624,-27.5071 925.289,-37.7615 931.102,-33.8618"/>
</g>
<!-- &#45;31&#45;&gt;1 -->
<g id="edge115" class="edge"><title>&#45;31&#45;&gt;1</title>
<path fill="none" stroke="green" stroke-width="0.646708" d="M971.005,-77.8614C975.413,-74.083 980.809,-69.5698 985.804,-65.6985 1002.05,-53.1022 1021.09,-39.6216 1035.21,-29.8591"/>
<polygon fill="green" stroke="green" stroke-width="0.646708" points="1037.44,-32.5753 1043.7,-24.0274 1033.47,-26.806 1037.44,-32.5753"/>
</g>
<!-- &#45;31&#45;&gt;2 -->
<g id="edge116" class="edge"><title>&#45;31&#45;&gt;2</title>
<path fill="none" stroke="green" stroke-width="0.203121" d="M953.051,-77.7945C948.841,-74.0014 943.663,-69.4953 938.804,-65.6985 922.196,-52.7211 902.461,-39.1804 887.856,-29.4921"/>
<polygon fill="green" stroke="green" stroke-width="0.203121" points="889.363,-26.2942 879.084,-23.7266 885.518,-32.1439 889.363,-26.2942"/>
</g>
<!-- &#45;31&#45;&gt;3 -->
<g id="edge117" class="edge"><title>&#45;31&#45;&gt;3</title>
<path fill="none" stroke="red" stroke-width="0.280952" d="M967.081,-77.8746C973.701,-67.7908 985.293,-50.1351 994.421,-36.233"/>
<polygon fill="red" stroke="red" stroke-width="0.280952" points="997.423,-38.037 999.986,-27.7567 991.572,-34.1951 997.423,-38.037"/>
</g>
<!-- &#45;32 -->
<g id="node32" class="node"><title>&#45;32</title>
<polygon fill="lightgray" stroke="black" points="1023.3,-95.9117 994.304,-95.9117 994.304,-77.9117 1023.3,-77.9117 1023.3,-95.9117"/>
<text text-anchor="middle" x="1008.8" y="-84.7117" font-family="Times New Roman,serif" font-size="9.00">&#45;32</text>
</g>
<!-- &#45;32&#45;&gt;0 -->
<g id="edge118" class="edge"><title>&#45;32&#45;&gt;0</title>
<path fill="none" stroke="red" stroke-width="0.184899" d="M1000.04,-77.8088C995.827,-74.0188 990.65,-69.5112 985.804,-65.6985 969.393,-52.7888 949.935,-39.2424 935.543,-29.5348"/>
<polygon fill="red" stroke="red" stroke-width="0.184899" points="937.158,-26.4042 926.899,-23.7551 933.267,-32.2232 937.158,-26.4042"/>
</g>
<!-- &#45;32&#45;&gt;1 -->
<g id="edge119" class="edge"><title>&#45;32&#45;&gt;1</title>
<path fill="none" stroke="green" stroke-width="0.187215" d="M1014.2,-77.8746C1021,-67.7318 1032.94,-49.9283 1042.29,-35.9895"/>
<polygon fill="green" stroke="green" stroke-width="0.187215" points="1045.32,-37.7615 1047.98,-27.5071 1039.51,-33.8618 1045.32,-37.7615"/>
</g>
<!-- &#45;32&#45;&gt;2 -->
<g id="edge120" class="edge"><title>&#45;32&#45;&gt;2</title>
<path fill="none" stroke="green" stroke-width="0.345739" d="M1000.86,-77.6432C996.665,-73.634 991.27,-68.987 985.804,-65.6985 947.114,-42.4217 931.601,-49.0449 890.804,-29.6985 889.967,-29.3017 889.121,-28.8863 888.27,-28.4573"/>
<polygon fill="green" stroke="green" stroke-width="0.345739" points="889.759,-25.2828 879.304,-23.5706 886.41,-31.4293 889.759,-25.2828"/>
</g>
<!-- &#45;32&#45;&gt;3 -->
<g id="edge121" class="edge"><title>&#45;32&#45;&gt;3</title>
<path fill="none" stroke="green" stroke-width="0.362808" stroke-dasharray="1,5" d="M1008.69,-77.8746C1008.56,-68.7202 1008.34,-53.3256 1008.15,-40.1641"/>
<polygon fill="green" stroke="green" stroke-width="0.362808" points="1011.65,-39.7687 1008,-29.8197 1004.65,-39.8686 1011.65,-39.7687"/>
</g>
<!-- &#45;33 -->
<g id="node33" class="node"><title>&#45;33</title>
<polygon fill="lightgray" stroke="black" points="1070.3,-95.9117 1041.3,-95.9117 1041.3,-77.9117 1070.3,-77.9117 1070.3,-95.9117"/>
<text text-anchor="middle" x="1055.8" y="-84.7117" font-family="Times New Roman,serif" font-size="9.00">&#45;33</text>
</g>
<!-- &#45;33&#45;&gt;0 -->
<g id="edge122" class="edge"><title>&#45;33&#45;&gt;0</title>
<path fill="none" stroke="red" stroke-width="0.258626" d="M1047.8,-77.7294C1043.6,-73.7422 1038.21,-69.0889 1032.8,-65.6985 1002.31,-46.5652 963.2,-31.6974 938.562,-23.3508"/>
<polygon fill="red" stroke="red" stroke-width="0.258626" points="939.55,-19.9912 928.957,-20.1796 937.355,-26.6383 939.55,-19.9912"/>
</g>
<!-- &#45;33&#45;&gt;1 -->
<g id="edge123" class="edge"><title>&#45;33&#45;&gt;1</title>
<path fill="none" stroke="green" stroke-width="0.231292" stroke-dasharray="1,5" d="M1055.8,-77.8746C1055.8,-68.7202 1055.8,-53.3256 1055.8,-40.1641"/>
<polygon fill="green" stroke="green" stroke-width="0.231292" points="1059.3,-39.8196 1055.8,-29.8197 1052.3,-39.8197 1059.3,-39.8196"/>
</g>
<!-- &#45;33&#45;&gt;2 -->
<g id="edge124" class="edge"><title>&#45;33&#45;&gt;2</title>
<path fill="none" stroke="red" stroke-width="0.273724" d="M1048.42,-77.781C1044.22,-73.6079 1038.64,-68.7695 1032.8,-65.6985 975.194,-35.3652 951.125,-54.2005 890.804,-29.6985 889.946,-29.35 889.081,-28.9756 888.216,-28.5812"/>
<polygon fill="red" stroke="red" stroke-width="0.273724" points="889.662,-25.3877 879.178,-23.8558 886.418,-31.591 889.662,-25.3877"/>
</g>
<!-- &#45;33&#45;&gt;3 -->
<g id="edge125" class="edge"><title>&#45;33&#45;&gt;3</title>
<path fill="none" stroke="red" stroke-width="0.117311" d="M1050.3,-77.8746C1043.35,-67.7318 1031.15,-49.9283 1021.6,-35.9895"/>
<polygon fill="red" stroke="red" stroke-width="0.117311" points="1024.33,-33.7786 1015.79,-27.5071 1018.56,-37.7349 1024.33,-33.7786"/>
</g>
<!-- &#45;34 -->
<g id="node34" class="node"><title>&#45;34</title>
<polygon fill="lightgray" stroke="black" points="1164.3,-95.9117 1135.3,-95.9117 1135.3,-77.9117 1164.3,-77.9117 1164.3,-95.9117"/>
<text text-anchor="middle" x="1149.8" y="-84.7117" font-family="Times New Roman,serif" font-size="9.00">&#45;34</text>
</g>
<!-- &#45;34&#45;&gt;0 -->
<g id="edge126" class="edge"><title>&#45;34&#45;&gt;0</title>
<path fill="none" stroke="green" stroke-width="0.183406" d="M1142.44,-77.7406C1138.24,-73.5556 1132.66,-68.7188 1126.8,-65.6985 1110.1,-57.0859 991.427,-31.7751 939.281,-20.9045"/>
<polygon fill="green" stroke="green" stroke-width="0.183406" points="939.727,-17.4224 929.224,-18.8152 938.303,-24.2761 939.727,-17.4224"/>
</g>
<!-- &#45;34&#45;&gt;1 -->
<g id="edge127" class="edge"><title>&#45;34&#45;&gt;1</title>
<path fill="none" stroke="green" stroke-width="0.362789" d="M1141.04,-77.8088C1136.83,-74.0188 1131.65,-69.5112 1126.8,-65.6985 1110.39,-52.7888 1090.94,-39.2424 1076.54,-29.5348"/>
<polygon fill="green" stroke="green" stroke-width="0.362789" points="1078.16,-26.4042 1067.9,-23.7551 1074.27,-32.2232 1078.16,-26.4042"/>
</g>
<!-- &#45;34&#45;&gt;2 -->
<g id="edge128" class="edge"><title>&#45;34&#45;&gt;2</title>
<path fill="none" stroke="green" stroke-width="0.450119" d="M1142.53,-77.5528C1138.36,-73.3128 1132.78,-68.4834 1126.8,-65.6985 1030.64,-20.8718 990.925,-64.8195 890.804,-29.6985 889.93,-29.392 889.052,-29.0532 888.175,-28.6888"/>
<polygon fill="green" stroke="green" stroke-width="0.450119" points="889.589,-25.4822 879.085,-24.1037 886.437,-31.7322 889.589,-25.4822"/>
</g>
<!-- &#45;34&#45;&gt;3 -->
<g id="edge129" class="edge"><title>&#45;34&#45;&gt;3</title>
<path fill="none" stroke="red" stroke-width="0.215612" d="M1141.86,-77.6432C1137.67,-73.634 1132.27,-68.987 1126.8,-65.6985 1088.11,-42.4217 1072.6,-49.0449 1031.8,-29.6985 1030.97,-29.3017 1030.12,-28.8863 1029.27,-28.4573"/>
<polygon fill="red" stroke="red" stroke-width="0.215612" points="1030.76,-25.2828 1020.3,-23.5706 1027.41,-31.4293 1030.76,-25.2828"/>
</g>
<!-- &#45;35 -->
<g id="node35" class="node"><title>&#45;35</title>
<polygon fill="lightgray" stroke="black" points="1869.3,-95.9117 1840.3,-95.9117 1840.3,-77.9117 1869.3,-77.9117 1869.3,-95.9117"/>
<text text-anchor="middle" x="1854.8" y="-84.7117" font-family="Times New Roman,serif" font-size="9.00">&#45;35</text>
</g>
<!-- &#45;35&#45;&gt;0 -->
<g id="edge130" class="edge"><title>&#45;35&#45;&gt;0</title>
<path fill="none" stroke="green" stroke-width="0.229289" d="M1847.68,-77.7021C1843.3,-73.2812 1837.3,-68.2279 1830.8,-65.6985 1655.24,2.64087 1170.83,-52.3036 983.804,-29.6985 968.831,-27.8888 952.255,-24.6044 939.103,-21.6882"/>
<polygon fill="green" stroke="green" stroke-width="0.229289" points="939.501,-18.1886 928.971,-19.3657 937.936,-25.0116 939.501,-18.1886"/>
</g>
<!-- &#45;35&#45;&gt;1 -->
<g id="edge131" class="edge"><title>&#45;35&#45;&gt;1</title>
<path fill="none" stroke="red" stroke-width="0.193423" d="M1847.66,-77.755C1843.27,-73.3517 1837.27,-68.2984 1830.8,-65.6985 1759.84,-37.1813 1205.84,-20.0546 1080.82,-16.5296"/>
<polygon fill="red" stroke="red" stroke-width="0.193423" points="1080.79,-13.0276 1070.69,-16.2477 1080.59,-20.0249 1080.79,-13.0276"/>
</g>
<!-- &#45;35&#45;&gt;3 -->
<g id="edge132" class="edge"><title>&#45;35&#45;&gt;3</title>
<path fill="none" stroke="green" stroke-width="0.111654" d="M1847.67,-77.7084C1843.3,-73.2895 1837.3,-68.2362 1830.8,-65.6985 1665.26,-1.01377 1202.41,-79.5338 1031.8,-29.6985 1030.74,-29.3882 1029.68,-29.022 1028.62,-28.6122"/>
<polygon fill="green" stroke="green" stroke-width="0.111654" points="1030.02,-25.3988 1019.5,-24.0903 1026.91,-31.6697 1030.02,-25.3988"/>
</g>
<!-- &#45;36 -->
<g id="node36" class="node"><title>&#45;36</title>
<polygon fill="lightgray" stroke="black" points="1211.3,-95.9117 1182.3,-95.9117 1182.3,-77.9117 1211.3,-77.9117 1211.3,-95.9117"/>
<text text-anchor="middle" x="1196.8" y="-84.7117" font-family="Times New Roman,serif" font-size="9.00">&#45;36</text>
</g>
<!-- &#45;36&#45;&gt;0 -->
<g id="edge133" class="edge"><title>&#45;36&#45;&gt;0</title>
<path fill="none" stroke="red" stroke-width="0.146316" d="M1189.49,-77.6379C1185.31,-73.4229 1179.73,-68.5901 1173.8,-65.6985 1096.57,-27.9956 1068.16,-46.1554 983.804,-29.6985 969.095,-26.8289 952.641,-23.5299 939.491,-20.8716"/>
<polygon fill="red" stroke="red" stroke-width="0.146316" points="939.829,-17.369 929.333,-18.8129 938.438,-24.2295 939.829,-17.369"/>
</g>
<!-- &#45;36&#45;&gt;1 -->
<g id="edge134" class="edge"><title>&#45;36&#45;&gt;1</title>
<path fill="none" stroke="red" stroke-width="0.439508" d="M1188.8,-77.7294C1184.6,-73.7422 1179.21,-69.0889 1173.8,-65.6985 1143.31,-46.5652 1104.2,-31.6974 1079.56,-23.3508"/>
<polygon fill="red" stroke="red" stroke-width="0.439508" points="1080.55,-19.9912 1069.96,-20.1796 1078.36,-26.6383 1080.55,-19.9912"/>
</g>
<!-- &#45;36&#45;&gt;2 -->
<g id="edge135" class="edge"><title>&#45;36&#45;&gt;2</title>
<path fill="none" stroke="green" stroke-width="0.400299" d="M1189.96,-77.9035C1185.76,-73.5497 1180.01,-68.4964 1173.8,-65.6985 1058.23,-13.5627 1010.96,-70.1783 890.804,-29.6985 889.926,-29.4028 889.045,-29.0733 888.165,-28.7168"/>
<polygon fill="green" stroke="green" stroke-width="0.400299" points="889.572,-25.5072 879.063,-24.1679 886.443,-31.7689 889.572,-25.5072"/>
</g>
<!-- &#45;36&#45;&gt;3 -->
<g id="edge136" class="edge"><title>&#45;36&#45;&gt;3</title>
<path fill="none" stroke="red" stroke-width="0.235635" d="M1189.42,-77.781C1185.22,-73.6079 1179.64,-68.7695 1173.8,-65.6985 1116.19,-35.3652 1092.13,-54.2005 1031.8,-29.6985 1030.95,-29.35 1030.08,-28.9756 1029.22,-28.5812"/>
<polygon fill="red" stroke="red" stroke-width="0.235635" points="1030.66,-25.3877 1020.18,-23.8558 1027.42,-31.591 1030.66,-25.3877"/>
</g>
<!-- &#45;37 -->
<g id="node37" class="node"><title>&#45;37</title>
<polygon fill="lightgray" stroke="black" points="1258.3,-95.9117 1229.3,-95.9117 1229.3,-77.9117 1258.3,-77.9117 1258.3,-95.9117"/>
<text text-anchor="middle" x="1243.8" y="-84.7117" font-family="Times New Roman,serif" font-size="9.00">&#45;37</text>
</g>
<!-- &#45;37&#45;&gt;0 -->
<g id="edge137" class="edge"><title>&#45;37&#45;&gt;0</title>
<path fill="none" stroke="red" stroke-width="0.22807" d="M1236.53,-77.5513C1232.36,-73.3109 1226.78,-68.4815 1220.8,-65.6985 1124.22,-20.7165 1088.73,-48.1868 983.804,-29.6985 969.045,-27.0979 952.589,-23.8101 939.45,-21.0906"/>
<polygon fill="red" stroke="red" stroke-width="0.22807" points="939.809,-17.5899 929.304,-18.9674 938.375,-24.4415 939.809,-17.5899"/>
</g>
<!-- &#45;37&#45;&gt;1 -->
<g id="edge138" class="edge"><title>&#45;37&#45;&gt;1</title>
<path fill="none" stroke="green" stroke-width="0.292953" d="M1236.36,-77.8853C1232.14,-73.7428 1226.57,-68.9003 1220.8,-65.6985 1174.74,-40.1028 1113.98,-26.1333 1080.53,-19.9063"/>
<polygon fill="green" stroke="green" stroke-width="0.292953" points="1080.76,-16.3912 1070.3,-18.0857 1079.53,-23.283 1080.76,-16.3912"/>
</g>
<!-- &#45;37&#45;&gt;2 -->
<g id="edge139" class="edge"><title>&#45;37&#45;&gt;2</title>
<path fill="none" stroke="green" stroke-width="0.495765" d="M1236.97,-77.8619C1232.78,-73.4942 1227.03,-68.4409 1220.8,-65.6985 1085.78,-6.23614 1031.03,-75.5506 890.804,-29.6985 889.924,-29.4107 889.04,-29.0879 888.159,-28.7369"/>
<polygon fill="green" stroke="green" stroke-width="0.495765" points="889.561,-25.5253 879.047,-24.2143 886.448,-31.7954 889.561,-25.5253"/>
</g>
<!-- &#45;37&#45;&gt;3 -->
<g id="edge140" class="edge"><title>&#45;37&#45;&gt;3</title>
<path fill="none" stroke="red" stroke-width="0.649596" d="M1236.49,-77.6402C1232.31,-73.4259 1226.73,-68.593 1220.8,-65.6985 1143.98,-28.1499 1111.96,-59.485 1031.8,-29.6985 1030.94,-29.3759 1030.06,-29.0235 1029.19,-28.6477"/>
<polygon fill="red" stroke="red" stroke-width="0.649596" points="1030.62,-25.4458 1020.12,-24.0089 1027.43,-31.6781 1030.62,-25.4458"/>
</g>
<!-- &#45;38 -->
<g id="node38" class="node"><title>&#45;38</title>
<polygon fill="lightgray" stroke="black" points="1305.3,-95.9117 1276.3,-95.9117 1276.3,-77.9117 1305.3,-77.9117 1305.3,-95.9117"/>
<text text-anchor="middle" x="1290.8" y="-84.7117" font-family="Times New Roman,serif" font-size="9.00">&#45;38</text>
</g>
<!-- &#45;38&#45;&gt;0 -->
<g id="edge141" class="edge"><title>&#45;38&#45;&gt;0</title>
<path fill="none" stroke="green" stroke-width="0.216201" d="M1283.96,-77.9025C1279.76,-73.5483 1274.01,-68.495 1267.8,-65.6985 1151.81,-13.4069 1109.37,-50.2307 983.804,-29.6985 969.014,-27.2801 952.557,-23.9998 939.425,-21.2388"/>
<polygon fill="green" stroke="green" stroke-width="0.216201" points="939.797,-17.7393 929.286,-19.072 938.334,-24.5847 939.797,-17.7393"/>
</g>
<!-- &#45;38&#45;&gt;1 -->
<g id="edge142" class="edge"><title>&#45;38&#45;&gt;1</title>
<path fill="none" stroke="red" stroke-width="0.367379" d="M1283.44,-77.7406C1279.24,-73.5556 1273.66,-68.7188 1267.8,-65.6985 1205.31,-33.4838 1121.75,-21.7675 1080.7,-17.7677"/>
<polygon fill="red" stroke="red" stroke-width="0.367379" points="1080.8,-14.263 1070.53,-16.8523 1080.18,-21.2348 1080.8,-14.263"/>
</g>
<!-- &#45;38&#45;&gt;2 -->
<g id="edge143" class="edge"><title>&#45;38&#45;&gt;2</title>
<path fill="none" stroke="red" stroke-width="0.120554" d="M1283.99,-77.8304C1279.8,-73.4522 1274.05,-68.3989 1267.8,-65.6985 1113.31,1.10111 1051.13,-80.9312 890.804,-29.6985 889.75,-29.3617 888.692,-28.9736 887.638,-28.5463"/>
<polygon fill="red" stroke="red" stroke-width="0.120554" points="889.047,-25.337 878.542,-23.9596 885.896,-31.5873 889.047,-25.337"/>
</g>
<!-- &#45;38&#45;&gt;3 -->
<g id="edge144" class="edge"><title>&#45;38&#45;&gt;3</title>
<path fill="none" stroke="green" stroke-width="0.346611" d="M1283.53,-77.5528C1279.36,-73.3128 1273.78,-68.4834 1267.8,-65.6985 1171.64,-20.8718 1131.92,-64.8195 1031.8,-29.6985 1030.93,-29.392 1030.05,-29.0532 1029.18,-28.6888"/>
<polygon fill="green" stroke="green" stroke-width="0.346611" points="1030.59,-25.4822 1020.08,-24.1037 1027.44,-31.7322 1030.59,-25.4822"/>
</g>
<!-- &#45;39 -->
<g id="node39" class="node"><title>&#45;39</title>
<polygon fill="lightgray" stroke="black" points="1352.3,-95.9117 1323.3,-95.9117 1323.3,-77.9117 1352.3,-77.9117 1352.3,-95.9117"/>
<text text-anchor="middle" x="1337.8" y="-84.7117" font-family="Times New Roman,serif" font-size="9.00">&#45;39</text>
</g>
<!-- &#45;39&#45;&gt;0 -->
<g id="edge145" class="edge"><title>&#45;39&#45;&gt;0</title>
<path fill="none" stroke="green" stroke-width="0.519531" d="M1330.97,-77.8611C1326.78,-73.4932 1321.03,-68.4399 1314.8,-65.6985 1179.37,-6.08013 1130.05,-52.2815 983.804,-29.6985 968.993,-27.4114 952.535,-24.1367 939.408,-21.3457"/>
<polygon fill="green" stroke="green" stroke-width="0.519531" points="939.789,-17.847 929.274,-19.1474 938.305,-24.6879 939.789,-17.847"/>
</g>
<!-- &#45;39&#45;&gt;1 -->
<g id="edge146" class="edge"><title>&#45;39&#45;&gt;1</title>
<path fill="none" stroke="green" stroke-width="0.537286" d="M1330.49,-77.6447C1326.3,-73.4317 1320.72,-68.5987 1314.8,-65.6985 1235.45,-26.8217 1128.57,-18.2304 1080.74,-16.3566"/>
<polygon fill="green" stroke="green" stroke-width="0.537286" points="1080.79,-12.8565 1070.68,-16.0299 1080.57,-19.8528 1080.79,-12.8565"/>
</g>
<!-- &#45;39&#45;&gt;2 -->
<g id="edge147" class="edge"><title>&#45;39&#45;&gt;2</title>
<path fill="none" stroke="red" stroke-width="0.399228" d="M1331,-77.8058C1326.81,-73.4194 1321.06,-68.3661 1314.8,-65.6985 1140.82,8.44546 1071.25,-86.3172 890.804,-29.6985 889.748,-29.3672 888.688,-28.9837 887.634,-28.56"/>
<polygon fill="red" stroke="red" stroke-width="0.399228" points="889.041,-25.3498 878.534,-23.9869 885.897,-31.6045 889.041,-25.3498"/>
</g>
<!-- &#45;39&#45;&gt;3 -->
<g id="edge148" class="edge"><title>&#45;39&#45;&gt;3</title>
<path fill="none" stroke="green" stroke-width="0.617362" d="M1330.96,-77.9035C1326.76,-73.5497 1321.01,-68.4964 1314.8,-65.6985 1199.23,-13.5627 1151.96,-70.1783 1031.8,-29.6985 1030.93,-29.4028 1030.04,-29.0733 1029.17,-28.7168"/>
<polygon fill="green" stroke="green" stroke-width="0.617362" points="1030.57,-25.5072 1020.06,-24.1679 1027.44,-31.7689 1030.57,-25.5072"/>
</g>
<!-- &#45;40 -->
<g id="node40" class="node"><title>&#45;40</title>
<polygon fill="lightgray" stroke="black" points="1399.3,-95.9117 1370.3,-95.9117 1370.3,-77.9117 1399.3,-77.9117 1399.3,-95.9117"/>
<text text-anchor="middle" x="1384.8" y="-84.7117" font-family="Times New Roman,serif" font-size="9.00">&#45;40</text>
</g>
<!-- &#45;40&#45;&gt;0 -->
<g id="edge149" class="edge"><title>&#45;40&#45;&gt;0</title>
<path fill="none" stroke="red" stroke-width="0.447843" d="M1377.99,-77.8298C1373.8,-73.4514 1368.05,-68.3981 1361.8,-65.6985 1206.89,1.25731 1150.76,-54.3363 983.804,-29.6985 968.978,-27.5106 952.519,-24.24 939.396,-21.4265"/>
<polygon fill="red" stroke="red" stroke-width="0.447843" points="939.784,-17.9283 929.266,-19.2044 938.284,-24.7658 939.784,-17.9283"/>
</g>
<!-- &#45;40&#45;&gt;1 -->
<g id="edge150" class="edge"><title>&#45;40&#45;&gt;1</title>
<path fill="none" stroke="red" stroke-width="0.30817" d="M1377.52,-77.5768C1373.35,-73.344 1367.76,-68.5136 1361.8,-65.6985 1265.27,-20.1074 1134.64,-15.2383 1080.69,-15.358"/>
<polygon fill="red" stroke="red" stroke-width="0.30817" points="1080.64,-11.8582 1070.67,-15.442 1080.7,-18.8579 1080.64,-11.8582"/>
</g>
<!-- &#45;40&#45;&gt;2 -->
<g id="edge151" class="edge"><title>&#45;40&#45;&gt;2</title>
<path fill="none" stroke="red" stroke-width="0.349696" d="M1378.01,-77.786C1373.82,-73.393 1368.07,-68.3397 1361.8,-65.6985 1168.32,15.7947 1091.38,-91.707 890.804,-29.6985 889.747,-29.3717 888.686,-28.9918 887.63,-28.5711"/>
<polygon fill="red" stroke="red" stroke-width="0.349696" points="889.035,-25.3602 878.527,-24.0087 885.899,-31.6183 889.035,-25.3602"/>
</g>
<!-- &#45;40&#45;&gt;3 -->
<g id="edge152" class="edge"><title>&#45;40&#45;&gt;3</title>
<path fill="none" stroke="red" stroke-width="0.270951" d="M1377.97,-77.8619C1373.78,-73.4942 1368.03,-68.4409 1361.8,-65.6985 1226.78,-6.23614 1172.03,-75.5506 1031.8,-29.6985 1030.92,-29.4107 1030.04,-29.0879 1029.16,-28.7369"/>
<polygon fill="red" stroke="red" stroke-width="0.270951" points="1030.56,-25.5253 1020.05,-24.2143 1027.45,-31.7954 1030.56,-25.5253"/>
</g>
<!-- 618&#45;&gt;1 -->
<g id="edge154" class="edge"><title>618&#45;&gt;1</title>
<path fill="none" stroke="green" stroke-width="0.275311" d="M1892.83,-72.882C1888.51,-70.019 1883.68,-67.3512 1878.8,-65.6985 1725.64,-13.8011 1201.74,-14.6813 1080.84,-15.6032"/>
<polygon fill="green" stroke="green" stroke-width="0.275311" points="1080.69,-12.1043 1070.72,-15.6881 1080.74,-19.104 1080.69,-12.1043"/>
</g>
</g>
</svg>
