<?xml version="1.0" encoding="UTF-8" standalone="no"?>
<!DOCTYPE svg PUBLIC "-//W3C//DTD SVG 1.1//EN"
 "http://www.w3.org/Graphics/SVG/1.1/DTD/svg11.dtd">
<!-- Generated by graphviz version 2.38.0 (20140413.2041)
 -->
<!-- Title: %3 Pages: 1 -->
<svg width="2119pt" height="170pt"
 viewBox="0.00 0.00 2118.93 170.12" xmlns="http://www.w3.org/2000/svg" xmlns:xlink="http://www.w3.org/1999/xlink">
<g id="graph0" class="graph" transform="scale(1 1) rotate(0) translate(4 166.125)">
<title>%3</title>
<polygon fill="white" stroke="none" points="-4,4 -4,-166.125 2114.93,-166.125 2114.93,4 -4,4"/>
<!-- &#45;1 -->
<g id="node1" class="node"><title>&#45;1</title>
<polygon fill="lightgray" stroke="black" points="922.662,-95.9117 898.662,-95.9117 898.662,-77.9117 922.662,-77.9117 922.662,-95.9117"/>
<text text-anchor="middle" x="910.662" y="-84.7117" font-family="Times New Roman,serif" font-size="9.00">&#45;1</text>
</g>
<!-- 0 -->
<g id="node41" class="node"><title>0</title>
<ellipse fill="lightblue" stroke="black" cx="949.662" cy="-14.8492" rx="14.7" ry="14.7"/>
<text text-anchor="middle" x="949.662" y="-12.6492" font-family="Times New Roman,serif" font-size="9.00">0</text>
</g>
<!-- &#45;1&#45;&gt;0 -->
<g id="edge1" class="edge"><title>&#45;1&#45;&gt;0</title>
<path fill="none" stroke="red" stroke-width="0.117378" d="M915.136,-77.8746C920.631,-68.0036 930.164,-50.8771 937.823,-37.1182"/>
<polygon fill="red" stroke="red" stroke-width="0.117378" points="940.948,-38.7014 942.753,-28.2615 934.831,-35.2967 940.948,-38.7014"/>
</g>
<!-- 1 -->
<g id="node42" class="node"><title>1</title>
<ellipse fill="lightblue" stroke="black" cx="1114.66" cy="-14.8492" rx="14.7" ry="14.7"/>
<text text-anchor="middle" x="1114.66" y="-12.6492" font-family="Times New Roman,serif" font-size="9.00">1</text>
</g>
<!-- &#45;1&#45;&gt;1 -->
<g id="edge2" class="edge"><title>&#45;1&#45;&gt;1</title>
<path fill="none" stroke="red" stroke-width="0.178826" d="M917.302,-77.8015C921.108,-73.6344 926.205,-68.7952 931.662,-65.6985 983.311,-36.3913 1053.01,-23.6371 1089.69,-18.6582"/>
<polygon fill="red" stroke="red" stroke-width="0.178826" points="1090.48,-22.0861 1099.96,-17.353 1089.6,-15.142 1090.48,-22.0861"/>
</g>
<!-- 2 -->
<g id="node43" class="node"><title>2</title>
<ellipse fill="lightblue" stroke="black" cx="1162.66" cy="-14.8492" rx="14.7" ry="14.7"/>
<text text-anchor="middle" x="1162.66" y="-12.6492" font-family="Times New Roman,serif" font-size="9.00">2</text>
</g>
<!-- &#45;1&#45;&gt;2 -->
<g id="edge3" class="edge"><title>&#45;1&#45;&gt;2</title>
<path fill="none" stroke="green" stroke-width="0.110958" d="M917.191,-77.5948C920.964,-73.3671 926.066,-68.5361 931.662,-65.6985 1014.95,-23.47 1050.87,-61.524 1138.66,-29.6985 1139.53,-29.3829 1140.41,-29.0364 1141.28,-28.6655"/>
<polygon fill="green" stroke="green" stroke-width="0.110958" points="1143.03,-31.7016 1150.36,-24.05 1139.86,-25.4616 1143.03,-31.7016"/>
</g>
<!-- 3 -->
<g id="node44" class="node"><title>3</title>
<ellipse fill="lightblue" stroke="black" cx="997.662" cy="-14.8492" rx="14.7" ry="14.7"/>
<text text-anchor="middle" x="997.662" y="-12.6492" font-family="Times New Roman,serif" font-size="9.00">3</text>
</g>
<!-- &#45;1&#45;&gt;3 -->
<g id="edge4" class="edge"><title>&#45;1&#45;&gt;3</title>
<path fill="none" stroke="green" stroke-width="0.191952" d="M918.629,-77.8074C922.468,-74.0171 927.198,-69.5095 931.662,-65.6985 946.393,-53.1244 963.922,-39.9628 977.211,-30.323"/>
<polygon fill="green" stroke="green" stroke-width="0.191952" points="979.569,-32.9392 985.648,-24.2624 975.485,-27.254 979.569,-32.9392"/>
</g>
<!-- &#45;2 -->
<g id="node2" class="node"><title>&#45;2</title>
<polygon fill="lightgray" stroke="black" points="964.662,-95.9117 940.662,-95.9117 940.662,-77.9117 964.662,-77.9117 964.662,-95.9117"/>
<text text-anchor="middle" x="952.662" y="-84.7117" font-family="Times New Roman,serif" font-size="9.00">&#45;2</text>
</g>
<!-- &#45;2&#45;&gt;0 -->
<g id="edge5" class="edge"><title>&#45;2&#45;&gt;0</title>
<path fill="none" stroke="red" stroke-width="0.18455" d="M952.318,-77.8746C951.926,-68.7202 951.267,-53.3256 950.704,-40.1641"/>
<polygon fill="red" stroke="red" stroke-width="0.18455" points="954.185,-39.6608 950.261,-29.8197 947.192,-39.9603 954.185,-39.6608"/>
</g>
<!-- &#45;2&#45;&gt;1 -->
<g id="edge6" class="edge"><title>&#45;2&#45;&gt;1</title>
<path fill="none" stroke="red" stroke-width="0.470616" d="M959.771,-77.5596C963.558,-73.5291 968.495,-68.8883 973.662,-65.6985 1011.25,-42.4975 1061.14,-28.1194 1090.39,-21.083"/>
<polygon fill="red" stroke="red" stroke-width="0.470616" points="1091.22,-24.4842 1100.17,-18.8201 1089.64,-17.6643 1091.22,-24.4842"/>
</g>
<!-- &#45;2&#45;&gt;2 -->
<g id="edge7" class="edge"><title>&#45;2&#45;&gt;2</title>
<path fill="none" stroke="red" stroke-width="0.281301" stroke-dasharray="1,5" d="M959.24,-77.6894C963.028,-73.4895 968.128,-68.6547 973.662,-65.6985 1039.87,-30.3368 1068.66,-56.7775 1138.66,-29.6985 1139.53,-29.3644 1140.4,-29.0022 1141.27,-28.6181"/>
<polygon fill="red" stroke="red" stroke-width="0.281301" points="1143.04,-31.6394 1150.32,-23.9409 1139.83,-25.4199 1143.04,-31.6394"/>
</g>
<!-- &#45;2&#45;&gt;3 -->
<g id="edge8" class="edge"><title>&#45;2&#45;&gt;3</title>
<path fill="none" stroke="green" stroke-width="0.209563" stroke-dasharray="1,5" d="M957.825,-77.8746C964.301,-67.7908 975.641,-50.1351 984.57,-36.233"/>
<polygon fill="green" stroke="green" stroke-width="0.209563" points="987.555,-38.0622 990.015,-27.7567 981.665,-34.2792 987.555,-38.0622"/>
</g>
<!-- &#45;3 -->
<g id="node3" class="node"><title>&#45;3</title>
<polygon fill="lightgray" stroke="black" points="1006.66,-95.9117 982.662,-95.9117 982.662,-77.9117 1006.66,-77.9117 1006.66,-95.9117"/>
<text text-anchor="middle" x="994.662" y="-84.7117" font-family="Times New Roman,serif" font-size="9.00">&#45;3</text>
</g>
<!-- &#45;3&#45;&gt;0 -->
<g id="edge9" class="edge"><title>&#45;3&#45;&gt;0</title>
<path fill="none" stroke="red" stroke-width="0.314606" d="M989.5,-77.8746C983.024,-67.7908 971.684,-50.1351 962.755,-36.233"/>
<polygon fill="red" stroke="red" stroke-width="0.314606" points="965.66,-34.2792 957.31,-27.7567 959.77,-38.0622 965.66,-34.2792"/>
</g>
<!-- &#45;3&#45;&gt;1 -->
<g id="edge10" class="edge"><title>&#45;3&#45;&gt;1</title>
<path fill="none" stroke="green" stroke-width="0.107252" d="M1001.95,-77.831C1005.78,-73.8697 1010.71,-69.2089 1015.66,-65.6985 1039.95,-48.4904 1071.03,-33.8774 1091.83,-25.0064"/>
<polygon fill="green" stroke="green" stroke-width="0.107252" points="1093.26,-28.2044 1101.14,-21.1266 1090.56,-21.7432 1093.26,-28.2044"/>
</g>
<!-- &#45;3&#45;&gt;2 -->
<g id="edge11" class="edge"><title>&#45;3&#45;&gt;2</title>
<path fill="none" stroke="red" stroke-width="0.201193" d="M1001.33,-77.8422C1005.14,-73.6871 1010.23,-68.8463 1015.66,-65.6985 1064.94,-37.1238 1086.29,-52.0922 1138.66,-29.6985 1139.51,-29.3344 1140.37,-28.9468 1141.23,-28.5412"/>
<polygon fill="red" stroke="red" stroke-width="0.201193" points="1143.05,-31.5387 1150.25,-23.7638 1139.77,-25.3534 1143.05,-31.5387"/>
</g>
<!-- &#45;3&#45;&gt;3 -->
<g id="edge12" class="edge"><title>&#45;3&#45;&gt;3</title>
<path fill="none" stroke="green" stroke-width="0.387299" d="M995.007,-77.8746C995.399,-68.7202 996.058,-53.3256 996.621,-40.1641"/>
<polygon fill="green" stroke="green" stroke-width="0.387299" points="1000.13,-39.9603 997.064,-29.8197 993.14,-39.6608 1000.13,-39.9603"/>
</g>
<!-- &#45;4 -->
<g id="node4" class="node"><title>&#45;4</title>
<polygon fill="lightgray" stroke="black" points="1908.66,-95.9117 1884.66,-95.9117 1884.66,-77.9117 1908.66,-77.9117 1908.66,-95.9117"/>
<text text-anchor="middle" x="1896.66" y="-84.7117" font-family="Times New Roman,serif" font-size="9.00">&#45;4</text>
</g>
<!-- &#45;4&#45;&gt;1 -->
<g id="edge13" class="edge"><title>&#45;4&#45;&gt;1</title>
<path fill="none" stroke="green" stroke-width="0.350612" d="M1888.81,-77.7129C1884.02,-73.2955 1877.52,-68.2422 1870.66,-65.6985 1717.95,-9.09125 1294.9,-75.6853 1138.66,-29.6985 1137.6,-29.3861 1136.54,-29.018 1135.48,-28.6068"/>
<polygon fill="green" stroke="green" stroke-width="0.350612" points="1136.88,-25.3937 1126.36,-24.0796 1133.76,-31.6629 1136.88,-25.3937"/>
</g>
<!-- &#45;4&#45;&gt;2 -->
<g id="edge14" class="edge"><title>&#45;4&#45;&gt;2</title>
<path fill="none" stroke="green" stroke-width="0.448611" d="M1888.79,-77.7672C1884,-73.3679 1877.5,-68.3146 1870.66,-65.6985 1742.02,-16.459 1298.08,-15.2038 1187.67,-15.6759"/>
<polygon fill="green" stroke="green" stroke-width="0.448611" points="1187.49,-12.1768 1177.5,-15.7288 1187.52,-19.1767 1187.49,-12.1768"/>
</g>
<!-- &#45;4&#45;&gt;3 -->
<g id="edge15" class="edge"><title>&#45;4&#45;&gt;3</title>
<path fill="none" stroke="red" stroke-width="0.133393" d="M1884.28,-80.5219C1872.53,-75.6851 1854.25,-68.8737 1837.66,-65.6985 1511.2,-3.21512 1421.45,-62.2178 1090.66,-29.6985 1067.3,-27.4022 1040.85,-23.3166 1022.14,-20.176"/>
<polygon fill="red" stroke="red" stroke-width="0.133393" points="1022.55,-16.6955 1012.1,-18.4567 1021.37,-23.595 1022.55,-16.6955"/>
</g>
<!-- &#45;5 -->
<g id="node5" class="node"><title>&#45;5</title>
<polygon fill="lightgray" stroke="black" points="1048.66,-95.9117 1024.66,-95.9117 1024.66,-77.9117 1048.66,-77.9117 1048.66,-95.9117"/>
<text text-anchor="middle" x="1036.66" y="-84.7117" font-family="Times New Roman,serif" font-size="9.00">&#45;5</text>
</g>
<!-- &#45;5&#45;&gt;0 -->
<g id="edge16" class="edge"><title>&#45;5&#45;&gt;0</title>
<path fill="none" stroke="red" stroke-width="0.34852" d="M1028.7,-77.8074C1024.86,-74.0171 1020.13,-69.5095 1015.66,-65.6985 1000.93,-53.1244 983.403,-39.9628 970.114,-30.323"/>
<polygon fill="red" stroke="red" stroke-width="0.34852" points="971.84,-27.254 961.677,-24.2624 967.756,-32.9392 971.84,-27.254"/>
</g>
<!-- &#45;5&#45;&gt;1 -->
<g id="edge17" class="edge"><title>&#45;5&#45;&gt;1</title>
<path fill="none" stroke="green" stroke-width="0.169737" d="M1045.16,-77.5572C1048.94,-73.8782 1053.49,-69.5303 1057.66,-65.6985 1070.17,-54.2245 1084.55,-41.6464 1095.75,-31.9954"/>
<polygon fill="green" stroke="green" stroke-width="0.169737" points="1098.29,-34.423 1103.6,-25.2525 1093.73,-29.1126 1098.29,-34.423"/>
</g>
<!-- &#45;5&#45;&gt;2 -->
<g id="edge18" class="edge"><title>&#45;5&#45;&gt;2</title>
<path fill="none" stroke="green" stroke-width="0.129471" d="M1043.88,-77.729C1047.7,-73.7416 1052.62,-69.0884 1057.66,-65.6985 1090.35,-43.7062 1103.55,-47.5682 1138.66,-29.6985 1139.49,-29.2784 1140.32,-28.8432 1141.17,-28.3976"/>
<polygon fill="green" stroke="green" stroke-width="0.129471" points="1143.06,-31.3518 1150.1,-23.4332 1139.65,-25.2339 1143.06,-31.3518"/>
</g>
<!-- &#45;5&#45;&gt;3 -->
<g id="edge19" class="edge"><title>&#45;5&#45;&gt;3</title>
<path fill="none" stroke="red" stroke-width="0.273138" d="M1032.19,-77.8746C1026.69,-68.0036 1017.16,-50.8771 1009.5,-37.1182"/>
<polygon fill="red" stroke="red" stroke-width="0.273138" points="1012.49,-35.2967 1004.57,-28.2615 1006.38,-38.7014 1012.49,-35.2967"/>
</g>
<!-- &#45;6 -->
<g id="node6" class="node"><title>&#45;6</title>
<polygon fill="lightgray" stroke="black" points="1828.66,-95.9117 1804.66,-95.9117 1804.66,-77.9117 1828.66,-77.9117 1828.66,-95.9117"/>
<text text-anchor="middle" x="1816.66" y="-84.7117" font-family="Times New Roman,serif" font-size="9.00">&#45;6</text>
</g>
<!-- &#45;6&#45;&gt;0 -->
<g id="edge20" class="edge"><title>&#45;6&#45;&gt;0</title>
<path fill="none" stroke="green" stroke-width="0.169552" d="M1810.63,-77.7194C1806.87,-73.3042 1801.62,-68.2509 1795.66,-65.6985 1627.61,6.35109 1149.2,-80.8551 973.662,-29.6985 972.6,-29.3889 971.535,-29.0232 970.476,-28.6139"/>
<polygon fill="green" stroke="green" stroke-width="0.169552" points="971.874,-25.4004 961.36,-24.0936 968.764,-31.6717 971.874,-25.4004"/>
</g>
<!-- &#45;6&#45;&gt;1 -->
<g id="edge21" class="edge"><title>&#45;6&#45;&gt;1</title>
<path fill="none" stroke="red" stroke-width="0.161443" stroke-dasharray="1,5" d="M1810.62,-77.7438C1806.85,-73.3368 1801.6,-68.2835 1795.66,-65.6985 1661.59,-7.34387 1278.82,-71.378 1138.66,-29.6985 1137.6,-29.3831 1136.54,-29.0126 1135.48,-28.5994"/>
<polygon fill="red" stroke="red" stroke-width="0.161443" points="1136.88,-25.3868 1126.37,-24.0649 1133.76,-31.6537 1136.88,-25.3868"/>
</g>
<!-- &#45;6&#45;&gt;2 -->
<g id="edge22" class="edge"><title>&#45;6&#45;&gt;2</title>
<path fill="none" stroke="green" stroke-width="0.155746" d="M1810.59,-77.7968C1806.82,-73.4074 1801.57,-68.3541 1795.66,-65.6985 1684.22,-15.6045 1291.15,-14.8873 1187.74,-15.5957"/>
<polygon fill="green" stroke="green" stroke-width="0.155746" points="1187.59,-12.0967 1177.62,-15.6765 1187.65,-19.0964 1187.59,-12.0967"/>
</g>
<!-- &#45;7 -->
<g id="node7" class="node"><title>&#45;7</title>
<polygon fill="lightgray" stroke="black" points="1090.66,-95.9117 1066.66,-95.9117 1066.66,-77.9117 1090.66,-77.9117 1090.66,-95.9117"/>
<text text-anchor="middle" x="1078.66" y="-84.7117" font-family="Times New Roman,serif" font-size="9.00">&#45;7</text>
</g>
<!-- &#45;7&#45;&gt;0 -->
<g id="edge23" class="edge"><title>&#45;7&#45;&gt;0</title>
<path fill="none" stroke="red" stroke-width="0.232077" d="M1071.46,-77.7005C1067.65,-73.7058 1062.72,-69.0547 1057.66,-65.6985 1023.81,-43.2492 1009.98,-47.8808 973.662,-29.6985 972.834,-29.2839 971.995,-28.8534 971.151,-28.4117"/>
<polygon fill="red" stroke="red" stroke-width="0.232077" points="972.658,-25.2454 962.214,-23.4657 969.268,-31.3701 972.658,-25.2454"/>
</g>
<!-- &#45;7&#45;&gt;1 -->
<g id="edge24" class="edge"><title>&#45;7&#45;&gt;1</title>
<path fill="none" stroke="red" stroke-width="0.397707" d="M1082.79,-77.8746C1087.82,-68.0985 1096.5,-51.2057 1103.53,-37.5161"/>
<polygon fill="red" stroke="red" stroke-width="0.397707" points="1106.83,-38.7557 1108.28,-28.2615 1100.6,-35.5565 1106.83,-38.7557"/>
</g>
<!-- &#45;7&#45;&gt;2 -->
<g id="edge25" class="edge"><title>&#45;7&#45;&gt;2</title>
<path fill="none" stroke="green" stroke-width="0.268194" d="M1086.67,-77.8522C1090.51,-74.0717 1095.24,-69.5596 1099.66,-65.6985 1113.83,-53.325 1130.56,-40.1526 1143.21,-30.4577"/>
<polygon fill="green" stroke="green" stroke-width="0.268194" points="1145.4,-33.1918 1151.24,-24.354 1141.16,-27.619 1145.4,-33.1918"/>
</g>
<!-- &#45;7&#45;&gt;3 -->
<g id="edge26" class="edge"><title>&#45;7&#45;&gt;3</title>
<path fill="none" stroke="green" stroke-width="0.520314" d="M1070.62,-77.8993C1066.76,-74.1292 1062.04,-69.612 1057.66,-65.6985 1044.34,-53.783 1028.81,-40.9053 1016.89,-31.224"/>
<polygon fill="green" stroke="green" stroke-width="0.520314" points="1018.91,-28.3557 1008.93,-24.7988 1014.51,-33.803 1018.91,-28.3557"/>
</g>
<!-- &#45;8 -->
<g id="node8" class="node"><title>&#45;8</title>
<polygon fill="lightgray" stroke="black" points="1132.66,-95.9117 1108.66,-95.9117 1108.66,-77.9117 1132.66,-77.9117 1132.66,-95.9117"/>
<text text-anchor="middle" x="1120.66" y="-84.7117" font-family="Times New Roman,serif" font-size="9.00">&#45;8</text>
</g>
<!-- &#45;8&#45;&gt;0 -->
<g id="edge27" class="edge"><title>&#45;8&#45;&gt;0</title>
<path fill="none" stroke="green" stroke-width="0.105293" d="M1114.01,-77.8283C1110.2,-73.6691 1105.1,-68.8288 1099.66,-65.6985 1049.19,-36.6433 1027.29,-52.4235 973.662,-29.6985 972.81,-29.3372 971.95,-28.9519 971.088,-28.5482"/>
<polygon fill="green" stroke="green" stroke-width="0.105293" points="972.545,-25.3594 962.068,-23.78 969.273,-31.5479 972.545,-25.3594"/>
</g>
<!-- &#45;8&#45;&gt;1 -->
<g id="edge28" class="edge"><title>&#45;8&#45;&gt;1</title>
<path fill="none" stroke="red" stroke-width="0.519895" d="M1119.97,-77.8746C1119.19,-68.7202 1117.87,-53.3256 1116.74,-40.1641"/>
<polygon fill="red" stroke="red" stroke-width="0.519895" points="1120.2,-39.4845 1115.86,-29.8197 1113.22,-40.0819 1120.2,-39.4845"/>
</g>
<!-- &#45;8&#45;&gt;2 -->
<g id="edge29" class="edge"><title>&#45;8&#45;&gt;2</title>
<path fill="none" stroke="red" stroke-width="0.251989" d="M1125.48,-77.8746C1131.43,-67.9452 1141.79,-50.6741 1150.06,-36.8744"/>
<polygon fill="red" stroke="red" stroke-width="0.251989" points="1153.23,-38.3847 1155.37,-28.0082 1147.23,-34.7856 1153.23,-38.3847"/>
</g>
<!-- &#45;8&#45;&gt;3 -->
<g id="edge30" class="edge"><title>&#45;8&#45;&gt;3</title>
<path fill="none" stroke="red" stroke-width="0.366679" d="M1113.39,-77.806C1109.56,-73.8383 1104.64,-69.1794 1099.66,-65.6985 1074.54,-48.1242 1042.29,-33.5028 1020.85,-24.7341"/>
<polygon fill="red" stroke="red" stroke-width="0.366679" points="1021.86,-21.3672 1011.27,-20.9123 1019.26,-27.8688 1021.86,-21.3672"/>
</g>
<!-- &#45;9 -->
<g id="node9" class="node"><title>&#45;9</title>
<polygon fill="lightgray" stroke="black" points="1174.66,-95.9117 1150.66,-95.9117 1150.66,-77.9117 1174.66,-77.9117 1174.66,-95.9117"/>
<text text-anchor="middle" x="1162.66" y="-84.7117" font-family="Times New Roman,serif" font-size="9.00">&#45;9</text>
</g>
<!-- &#45;9&#45;&gt;0 -->
<g id="edge31" class="edge"><title>&#45;9&#45;&gt;0</title>
<path fill="none" stroke="green" stroke-width="0.340381" stroke-dasharray="1,5" d="M1156.09,-77.6812C1152.3,-73.4788 1147.2,-68.6444 1141.66,-65.6985 1074.24,-29.8482 1044.93,-57.115 973.662,-29.6985 972.798,-29.366 971.928,-29.0052 971.058,-28.6223"/>
<polygon fill="green" stroke="green" stroke-width="0.340381" points="972.492,-25.4235 962,-23.9504 969.283,-31.6448 972.492,-25.4235"/>
</g>
<!-- &#45;9&#45;&gt;1 -->
<g id="edge32" class="edge"><title>&#45;9&#45;&gt;1</title>
<path fill="none" stroke="green" stroke-width="0.353894" d="M1157.16,-77.8746C1150.21,-67.7318 1138.01,-49.9283 1128.46,-35.9895"/>
<polygon fill="green" stroke="green" stroke-width="0.353894" points="1131.19,-33.7786 1122.65,-27.5071 1125.41,-37.7349 1131.19,-33.7786"/>
</g>
<!-- &#45;9&#45;&gt;2 -->
<g id="edge33" class="edge"><title>&#45;9&#45;&gt;2</title>
<path fill="none" stroke="green" stroke-width="0.316975" d="M1162.66,-77.8746C1162.66,-68.7202 1162.66,-53.3256 1162.66,-40.1641"/>
<polygon fill="green" stroke="green" stroke-width="0.316975" points="1166.16,-39.8196 1162.66,-29.8197 1159.16,-39.8197 1166.16,-39.8196"/>
</g>
<!-- &#45;9&#45;&gt;3 -->
<g id="edge34" class="edge"><title>&#45;9&#45;&gt;3</title>
<path fill="none" stroke="green" stroke-width="0.512333" d="M1155.56,-77.5452C1151.78,-73.511 1146.84,-68.8713 1141.66,-65.6985 1103.09,-42.0608 1051.8,-27.7598 1021.99,-20.8689"/>
<polygon fill="green" stroke="green" stroke-width="0.512333" points="1022.56,-17.4112 1012.04,-18.6618 1021.05,-24.245 1022.56,-17.4112"/>
</g>
<!-- &#45;10 -->
<g id="node10" class="node"><title>&#45;10</title>
<polygon fill="lightgray" stroke="black" points="1222.16,-95.9117 1193.16,-95.9117 1193.16,-77.9117 1222.16,-77.9117 1222.16,-95.9117"/>
<text text-anchor="middle" x="1207.66" y="-84.7117" font-family="Times New Roman,serif" font-size="9.00">&#45;10</text>
</g>
<!-- &#45;10&#45;&gt;0 -->
<g id="edge35" class="edge"><title>&#45;10&#45;&gt;0</title>
<path fill="none" stroke="red" stroke-width="0.286035" d="M1199.99,-77.6013C1195.61,-73.3756 1189.79,-68.5443 1183.66,-65.6985 1097.78,-25.8044 1062.73,-61.8644 973.662,-29.6985 972.792,-29.3839 971.916,-29.0384 971.041,-28.6682"/>
<polygon fill="red" stroke="red" stroke-width="0.286035" points="972.461,-25.4639 961.96,-24.0563 969.291,-31.7052 972.461,-25.4639"/>
</g>
<!-- &#45;10&#45;&gt;1 -->
<g id="edge36" class="edge"><title>&#45;10&#45;&gt;1</title>
<path fill="none" stroke="green" stroke-width="0.308368" d="M1198.45,-77.8767C1194.04,-74.1016 1188.64,-69.5868 1183.66,-65.6985 1167.61,-53.1666 1148.84,-39.681 1134.94,-29.9003"/>
<polygon fill="green" stroke="green" stroke-width="0.308368" points="1136.78,-26.9178 1126.58,-24.0552 1132.77,-32.6543 1136.78,-26.9178"/>
</g>
<!-- &#45;10&#45;&gt;2 -->
<g id="edge37" class="edge"><title>&#45;10&#45;&gt;2</title>
<path fill="none" stroke="green" stroke-width="0.159505" d="M1202.5,-77.8746C1196.02,-67.7908 1184.68,-50.1351 1175.75,-36.233"/>
<polygon fill="green" stroke="green" stroke-width="0.159505" points="1178.66,-34.2792 1170.31,-27.7567 1172.77,-38.0622 1178.66,-34.2792"/>
</g>
<!-- &#45;10&#45;&gt;3 -->
<g id="edge38" class="edge"><title>&#45;10&#45;&gt;3</title>
<path fill="none" stroke="green" stroke-width="0.292577" d="M1199.88,-77.8238C1195.47,-73.6633 1189.65,-68.8232 1183.66,-65.6985 1130.21,-37.8088 1059.76,-24.475 1022.79,-19.0297"/>
<polygon fill="green" stroke="green" stroke-width="0.292577" points="1022.84,-15.5021 1012.45,-17.5856 1021.87,-22.4348 1022.84,-15.5021"/>
</g>
<!-- &#45;11 -->
<g id="node11" class="node"><title>&#45;11</title>
<polygon fill="lightgray" stroke="black" points="1269.16,-95.9117 1240.16,-95.9117 1240.16,-77.9117 1269.16,-77.9117 1269.16,-95.9117"/>
<text text-anchor="middle" x="1254.66" y="-84.7117" font-family="Times New Roman,serif" font-size="9.00">&#45;11</text>
</g>
<!-- &#45;11&#45;&gt;0 -->
<g id="edge39" class="edge"><title>&#45;11&#45;&gt;0</title>
<path fill="none" stroke="green" stroke-width="0.129931" d="M1247.4,-77.5224C1243.24,-73.2736 1237.65,-68.4453 1231.66,-65.6985 1126.42,-17.4533 1083.16,-67.3257 973.662,-29.6985 972.787,-29.3975 971.907,-29.0635 971.029,-28.7031"/>
<polygon fill="green" stroke="green" stroke-width="0.129931" points="972.439,-25.495 961.932,-24.1366 969.299,-31.751 972.439,-25.495"/>
</g>
<!-- &#45;11&#45;&gt;1 -->
<g id="edge40" class="edge"><title>&#45;11&#45;&gt;1</title>
<path fill="none" stroke="green" stroke-width="0.312303" d="M1246.7,-77.6596C1242.51,-73.6546 1237.12,-69.0064 1231.66,-65.6985 1193.77,-42.7148 1178.64,-48.8314 1138.66,-29.6985 1137.83,-29.2987 1136.98,-28.8808 1136.13,-28.4496"/>
<polygon fill="green" stroke="green" stroke-width="0.312303" points="1137.62,-25.2765 1127.17,-23.5531 1134.27,-31.4194 1137.62,-25.2765"/>
</g>
<!-- &#45;11&#45;&gt;2 -->
<g id="edge41" class="edge"><title>&#45;11&#45;&gt;2</title>
<path fill="none" stroke="green" stroke-width="0.162867" stroke-dasharray="1,5" d="M1245.88,-77.8381C1241.66,-74.0545 1236.48,-69.5438 1231.66,-65.6985 1215.74,-52.9984 1196.97,-39.5257 1183.02,-29.7927"/>
<polygon fill="green" stroke="green" stroke-width="0.162867" points="1184.85,-26.8007 1174.64,-23.9825 1180.86,-32.5546 1184.85,-26.8007"/>
</g>
<!-- &#45;11&#45;&gt;3 -->
<g id="edge42" class="edge"><title>&#45;11&#45;&gt;3</title>
<path fill="none" stroke="green" stroke-width="0.383479" d="M1247.32,-77.6912C1243.13,-73.4919 1237.55,-68.657 1231.66,-65.6985 1194.84,-47.2062 1074.56,-27.438 1022.29,-19.4772"/>
<polygon fill="green" stroke="green" stroke-width="0.383479" points="1022.63,-15.9892 1012.22,-17.9623 1021.59,-22.9113 1022.63,-15.9892"/>
</g>
<!-- &#45;12 -->
<g id="node12" class="node"><title>&#45;12</title>
<polygon fill="lightgray" stroke="black" points="1316.16,-95.9117 1287.16,-95.9117 1287.16,-77.9117 1316.16,-77.9117 1316.16,-95.9117"/>
<text text-anchor="middle" x="1301.66" y="-84.7117" font-family="Times New Roman,serif" font-size="9.00">&#45;12</text>
</g>
<!-- &#45;12&#45;&gt;0 -->
<g id="edge43" class="edge"><title>&#45;12&#45;&gt;0</title>
<path fill="none" stroke="green" stroke-width="0.148532" stroke-dasharray="1,5" d="M1294.82,-77.8825C1290.63,-73.5217 1284.88,-68.4684 1278.66,-65.6985 1153.99,-10.1349 1103.21,-72.6917 973.662,-29.6985 972.784,-29.4068 971.901,-29.0807 971.021,-28.7269"/>
<polygon fill="green" stroke="green" stroke-width="0.148532" points="972.425,-25.5163 961.913,-24.1914 969.304,-31.7823 972.425,-25.5163"/>
</g>
<!-- &#45;12&#45;&gt;1 -->
<g id="edge44" class="edge"><title>&#45;12&#45;&gt;1</title>
<path fill="none" stroke="red" stroke-width="0.365678" d="M1294.27,-77.7889C1290.07,-73.6181 1284.49,-68.7795 1278.66,-65.6985 1221.87,-35.6699 1198.14,-53.9775 1138.66,-29.6985 1137.81,-29.3485 1136.94,-28.9729 1136.08,-28.5774"/>
<polygon fill="red" stroke="red" stroke-width="0.365678" points="1137.52,-25.3845 1127.04,-23.8472 1134.28,-31.5861 1137.52,-25.3845"/>
</g>
<!-- &#45;12&#45;&gt;2 -->
<g id="edge45" class="edge"><title>&#45;12&#45;&gt;2</title>
<path fill="none" stroke="red" stroke-width="0.505253" d="M1293.65,-77.7435C1289.45,-73.7599 1284.06,-69.1055 1278.66,-65.6985 1248.8,-46.8321 1210.57,-31.9647 1186.33,-23.5377"/>
<polygon fill="red" stroke="red" stroke-width="0.505253" points="1187.16,-20.1233 1176.57,-20.2277 1184.92,-26.7528 1187.16,-20.1233"/>
</g>
<!-- &#45;12&#45;&gt;3 -->
<g id="edge46" class="edge"><title>&#45;12&#45;&gt;3</title>
<path fill="none" stroke="red" stroke-width="0.326359" d="M1294.36,-77.6103C1290.18,-73.3872 1284.6,-68.5555 1278.66,-65.6985 1255.61,-54.6096 1086.83,-28.9633 1022.48,-19.4693"/>
<polygon fill="red" stroke="red" stroke-width="0.326359" points="1022.82,-15.9807 1012.41,-17.9897 1021.8,-22.9063 1022.82,-15.9807"/>
</g>
<!-- &#45;13 -->
<g id="node13" class="node"><title>&#45;13</title>
<polygon fill="lightgray" stroke="black" points="1363.16,-95.9117 1334.16,-95.9117 1334.16,-77.9117 1363.16,-77.9117 1363.16,-95.9117"/>
<text text-anchor="middle" x="1348.66" y="-84.7117" font-family="Times New Roman,serif" font-size="9.00">&#45;13</text>
</g>
<!-- &#45;13&#45;&gt;0 -->
<g id="edge47" class="edge"><title>&#45;13&#45;&gt;0</title>
<path fill="none" stroke="red" stroke-width="0.348081" d="M1341.84,-77.8461C1337.65,-73.4732 1331.9,-68.4199 1325.66,-65.6985 1181.53,-2.80275 1123.3,-78.0684 973.662,-29.6985 972.61,-29.3582 971.552,-28.9672 970.5,-28.5375"/>
<polygon fill="red" stroke="red" stroke-width="0.348081" points="971.91,-25.3288 961.407,-23.9422 968.753,-31.5764 971.91,-25.3288"/>
</g>
<!-- &#45;13&#45;&gt;1 -->
<g id="edge48" class="edge"><title>&#45;13&#45;&gt;1</title>
<path fill="none" stroke="red" stroke-width="0.187376" d="M1341.34,-77.6448C1337.16,-73.4319 1331.58,-68.5988 1325.66,-65.6985 1249.66,-28.4586 1217.97,-59.2588 1138.66,-29.6985 1137.79,-29.3751 1136.92,-29.022 1136.05,-28.6455"/>
<polygon fill="red" stroke="red" stroke-width="0.187376" points="1137.48,-25.4439 1126.98,-24.0039 1134.29,-31.6753 1137.48,-25.4439"/>
</g>
<!-- &#45;13&#45;&gt;2 -->
<g id="edge49" class="edge"><title>&#45;13&#45;&gt;2</title>
<path fill="none" stroke="green" stroke-width="0.111481" stroke-dasharray="1,5" d="M1341.22,-77.8931C1337,-73.7528 1331.42,-68.9101 1325.66,-65.6985 1280.39,-40.4392 1220.74,-26.4061 1187.6,-20.0637"/>
<polygon fill="green" stroke="green" stroke-width="0.111481" points="1187.9,-16.5609 1177.43,-18.2025 1186.64,-23.4464 1187.9,-16.5609"/>
</g>
<!-- &#45;13&#45;&gt;3 -->
<g id="edge50" class="edge"><title>&#45;13&#45;&gt;3</title>
<path fill="none" stroke="green" stroke-width="0.252372" d="M1341.39,-77.5515C1337.22,-73.3112 1331.64,-68.4818 1325.66,-65.6985 1323.93,-64.8908 1098.97,-31.0615 1022.65,-19.6005"/>
<polygon fill="green" stroke="green" stroke-width="0.252372" points="1022.93,-16.1022 1012.52,-18.0785 1021.89,-23.0246 1022.93,-16.1022"/>
</g>
<!-- &#45;14 -->
<g id="node14" class="node"><title>&#45;14</title>
<polygon fill="lightgray" stroke="black" points="230.162,-95.9117 201.162,-95.9117 201.162,-77.9117 230.162,-77.9117 230.162,-95.9117"/>
<text text-anchor="middle" x="215.662" y="-84.7117" font-family="Times New Roman,serif" font-size="9.00">&#45;14</text>
</g>
<!-- &#45;14&#45;&gt;0 -->
<g id="edge51" class="edge"><title>&#45;14&#45;&gt;0</title>
<path fill="none" stroke="green" stroke-width="0.308334" d="M224.608,-77.7679C230.006,-73.3689 237.256,-68.3156 244.662,-65.6985 373.85,-20.0508 814.177,-16.1098 924.46,-15.8473"/>
<polygon fill="green" stroke="green" stroke-width="0.308334" points="924.634,-19.3471 934.628,-15.8317 924.623,-12.3472 924.634,-19.3471"/>
</g>
<!-- &#45;14&#45;&gt;1 -->
<g id="edge52" class="edge"><title>&#45;14&#45;&gt;1</title>
<path fill="none" stroke="red" stroke-width="0.748625" d="M230.657,-79.7716C243.035,-75.0097 261.183,-68.7271 277.662,-65.6985 603.263,-5.85973 692.2,-62.1194 1021.66,-29.6985 1045.02,-27.3999 1071.48,-23.3146 1090.18,-20.1747"/>
<polygon fill="red" stroke="red" stroke-width="0.748625" points="1090.95,-23.5937 1100.22,-18.4559 1089.77,-16.6942 1090.95,-23.5937"/>
</g>
<!-- &#45;14&#45;&gt;3 -->
<g id="edge53" class="edge"><title>&#45;14&#45;&gt;3</title>
<path fill="none" stroke="green" stroke-width="0.238917" d="M224.587,-77.7088C229.978,-73.2901 237.228,-68.2368 244.662,-65.6985 398.159,-13.2886 818.07,-75.5129 973.662,-29.6985 974.724,-29.386 975.788,-29.0178 976.847,-28.6065"/>
<polygon fill="green" stroke="green" stroke-width="0.238917" points="978.562,-31.6625 985.961,-24.079 975.448,-25.3934 978.562,-31.6625"/>
</g>
<!-- &#45;15 -->
<g id="node15" class="node"><title>&#45;15</title>
<polygon fill="lightgray" stroke="black" points="1410.16,-95.9117 1381.16,-95.9117 1381.16,-77.9117 1410.16,-77.9117 1410.16,-95.9117"/>
<text text-anchor="middle" x="1395.66" y="-84.7117" font-family="Times New Roman,serif" font-size="9.00">&#45;15</text>
</g>
<!-- &#45;15&#45;&gt;0 -->
<g id="edge54" class="edge"><title>&#45;15&#45;&gt;0</title>
<path fill="none" stroke="red" stroke-width="0.127948" d="M1388.85,-77.8182C1384.67,-73.4359 1378.92,-68.3826 1372.66,-65.6985 1209.05,4.53817 1143.41,-83.4518 973.662,-29.6985 972.608,-29.3645 971.549,-28.9787 970.495,-28.5531"/>
<polygon fill="red" stroke="red" stroke-width="0.127948" points="971.903,-25.3434 961.397,-23.9731 968.755,-31.5959 971.903,-25.3434"/>
</g>
<!-- &#45;15&#45;&gt;1 -->
<g id="edge55" class="edge"><title>&#45;15&#45;&gt;1</title>
<path fill="none" stroke="green" stroke-width="0.15786" d="M1388.39,-77.5558C1384.22,-73.3168 1378.64,-68.4872 1372.66,-65.6985 1277.32,-21.1822 1237.93,-64.5919 1138.66,-29.6985 1137.79,-29.3914 1136.91,-29.0522 1136.03,-28.6874"/>
<polygon fill="green" stroke="green" stroke-width="0.15786" points="1137.45,-25.481 1126.94,-24.1004 1134.3,-31.7303 1137.45,-25.481"/>
</g>
<!-- &#45;15&#45;&gt;2 -->
<g id="edge56" class="edge"><title>&#45;15&#45;&gt;2</title>
<path fill="none" stroke="green" stroke-width="0.202318" d="M1388.29,-77.7455C1384.1,-73.562 1378.52,-68.7251 1372.66,-65.6985 1310.92,-33.7848 1228.4,-21.9475 1187.62,-17.8479"/>
<polygon fill="green" stroke="green" stroke-width="0.202318" points="1187.79,-14.3485 1177.51,-16.9059 1187.14,-21.3183 1187.79,-14.3485"/>
</g>
<!-- &#45;15&#45;&gt;3 -->
<g id="edge57" class="edge"><title>&#45;15&#45;&gt;3</title>
<path fill="none" stroke="red" stroke-width="0.291958" d="M1388.81,-77.9046C1384.61,-73.5511 1378.86,-68.4978 1372.66,-65.6985 1257.5,-13.7184 1215.82,-47.0047 1090.66,-29.6985 1067.55,-26.5024 1041.25,-22.5575 1022.53,-19.6966"/>
<polygon fill="red" stroke="red" stroke-width="0.291958" points="1022.88,-16.2096 1012.47,-18.1513 1021.82,-23.1285 1022.88,-16.2096"/>
</g>
<!-- &#45;16 -->
<g id="node16" class="node"><title>&#45;16</title>
<polygon fill="lightgray" stroke="black" points="1457.16,-95.9117 1428.16,-95.9117 1428.16,-77.9117 1457.16,-77.9117 1457.16,-95.9117"/>
<text text-anchor="middle" x="1442.66" y="-84.7117" font-family="Times New Roman,serif" font-size="9.00">&#45;16</text>
</g>
<!-- &#45;16&#45;&gt;0 -->
<g id="edge58" class="edge"><title>&#45;16&#45;&gt;0</title>
<path fill="none" stroke="green" stroke-width="0.103062" d="M1435.86,-77.796C1431.68,-73.4064 1425.93,-68.3531 1419.66,-65.6985 1236.55,11.885 1163.53,-88.8397 973.662,-29.6985 972.606,-29.3694 971.546,-28.9877 970.491,-28.5655"/>
<polygon fill="green" stroke="green" stroke-width="0.103062" points="971.897,-25.3549 961.389,-23.9977 968.757,-31.6113 971.897,-25.3549"/>
</g>
<!-- &#45;16&#45;&gt;1 -->
<g id="edge59" class="edge"><title>&#45;16&#45;&gt;1</title>
<path fill="none" stroke="green" stroke-width="0.529933" d="M1435.81,-77.9056C1431.61,-73.5525 1425.86,-68.4992 1419.66,-65.6985 1304.91,-13.8741 1257.96,-69.9499 1138.66,-29.6985 1137.79,-29.4024 1136.9,-29.0726 1136.02,-28.7158"/>
<polygon fill="green" stroke="green" stroke-width="0.529933" points="1137.43,-25.5063 1126.92,-24.1656 1134.3,-31.7676 1137.43,-25.5063"/>
</g>
<!-- &#45;16&#45;&gt;2 -->
<g id="edge60" class="edge"><title>&#45;16&#45;&gt;2</title>
<path fill="none" stroke="red" stroke-width="0.28868" d="M1435.34,-77.6481C1431.16,-73.4361 1425.58,-68.603 1419.66,-65.6985 1341.12,-27.1472 1235.38,-18.387 1187.75,-16.4131"/>
<polygon fill="red" stroke="red" stroke-width="0.28868" points="1187.84,-12.914 1177.72,-16.0645 1187.6,-19.9098 1187.84,-12.914"/>
</g>
<!-- &#45;16&#45;&gt;3 -->
<g id="edge61" class="edge"><title>&#45;16&#45;&gt;3</title>
<path fill="none" stroke="green" stroke-width="0.193962" d="M1435.83,-77.8627C1431.64,-73.4952 1425.89,-68.4419 1419.66,-65.6985 1285.05,-6.39215 1236.55,-48.535 1090.66,-29.6985 1067.39,-26.6929 1040.92,-22.6948 1022.19,-19.7671"/>
<polygon fill="green" stroke="green" stroke-width="0.193962" points="1022.56,-16.2825 1012.14,-18.1827 1021.47,-23.1971 1022.56,-16.2825"/>
</g>
<!-- &#45;17 -->
<g id="node17" class="node"><title>&#45;17</title>
<polygon fill="lightgray" stroke="black" points="1504.16,-95.9117 1475.16,-95.9117 1475.16,-77.9117 1504.16,-77.9117 1504.16,-95.9117"/>
<text text-anchor="middle" x="1489.66" y="-84.7117" font-family="Times New Roman,serif" font-size="9.00">&#45;17</text>
</g>
<!-- &#45;17&#45;&gt;0 -->
<g id="edge62" class="edge"><title>&#45;17&#45;&gt;0</title>
<path fill="none" stroke="red" stroke-width="0.171058" d="M1482.87,-77.778C1478.69,-73.3824 1472.94,-68.3291 1466.66,-65.6985 1264.05,19.2361 1183.67,-94.2309 973.662,-29.6985 972.605,-29.3735 971.544,-28.9951 970.488,-28.5755"/>
<polygon fill="red" stroke="red" stroke-width="0.171058" points="971.892,-25.3643 961.383,-24.0176 968.758,-31.6238 971.892,-25.3643"/>
</g>
<!-- &#45;17&#45;&gt;1 -->
<g id="edge63" class="edge"><title>&#45;17&#45;&gt;1</title>
<path fill="none" stroke="green" stroke-width="0.398614" d="M1482.83,-77.8634C1478.64,-73.4962 1472.89,-68.4429 1466.66,-65.6985 1332.47,-6.54816 1278.04,-75.3218 1138.66,-29.6985 1137.78,-29.4104 1136.9,-29.0873 1136.02,-28.7362"/>
<polygon fill="green" stroke="green" stroke-width="0.398614" points="1137.42,-25.5246 1126.91,-24.2126 1134.31,-31.7944 1137.42,-25.5246"/>
</g>
<!-- &#45;17&#45;&gt;2 -->
<g id="edge64" class="edge"><title>&#45;17&#45;&gt;2</title>
<path fill="none" stroke="green" stroke-width="0.215712" d="M1482.38,-77.5793C1478.2,-73.3472 1472.62,-68.5167 1466.66,-65.6985 1371,-20.4545 1241.6,-15.3703 1187.77,-15.3943"/>
<polygon fill="green" stroke="green" stroke-width="0.215712" points="1187.73,-11.8943 1177.76,-15.4605 1187.78,-18.8942 1187.73,-11.8943"/>
</g>
<!-- &#45;17&#45;&gt;3 -->
<g id="edge65" class="edge"><title>&#45;17&#45;&gt;3</title>
<path fill="none" stroke="green" stroke-width="0.105644" d="M1482.85,-77.831C1478.66,-73.453 1472.91,-68.3997 1466.66,-65.6985 1312.58,0.944919 1257.3,-50.0688 1090.66,-29.6985 1067.37,-26.8505 1040.9,-22.8329 1022.18,-19.858"/>
<polygon fill="green" stroke="green" stroke-width="0.105644" points="1022.56,-16.3743 1012.13,-18.2436 1021.45,-23.2857 1022.56,-16.3743"/>
</g>
<!-- &#45;18 -->
<g id="node18" class="node"><title>&#45;18</title>
<polygon fill="lightgray" stroke="black" points="1551.16,-95.9117 1522.16,-95.9117 1522.16,-77.9117 1551.16,-77.9117 1551.16,-95.9117"/>
<text text-anchor="middle" x="1536.66" y="-84.7117" font-family="Times New Roman,serif" font-size="9.00">&#45;18</text>
</g>
<!-- &#45;18&#45;&gt;0 -->
<g id="edge66" class="edge"><title>&#45;18&#45;&gt;0</title>
<path fill="none" stroke="red" stroke-width="0.204706" d="M1529.88,-77.7631C1525.7,-73.3625 1519.95,-68.3092 1513.66,-65.6985 1291.54,26.5902 1203.81,-99.6244 973.662,-29.6985 972.604,-29.3768 971.542,-29.0012 970.485,-28.5838"/>
<polygon fill="red" stroke="red" stroke-width="0.204706" points="971.888,-25.3721 961.378,-24.0341 968.759,-31.6342 971.888,-25.3721"/>
</g>
<!-- &#45;18&#45;&gt;1 -->
<g id="edge67" class="edge"><title>&#45;18&#45;&gt;1</title>
<path fill="none" stroke="green" stroke-width="0.611903" d="M1529.85,-77.8316C1525.66,-73.4538 1519.91,-68.4005 1513.66,-65.6985 1360,0.788727 1298.14,-80.7021 1138.66,-29.6985 1137.61,-29.3614 1136.55,-28.9732 1135.5,-28.5456"/>
<polygon fill="green" stroke="green" stroke-width="0.611903" points="1136.91,-25.3364 1126.4,-23.9583 1133.75,-31.5865 1136.91,-25.3364"/>
</g>
<!-- &#45;18&#45;&gt;2 -->
<g id="edge68" class="edge"><title>&#45;18&#45;&gt;2</title>
<path fill="none" stroke="red" stroke-width="0.3341" d="M1529.4,-77.5282C1525.23,-73.2811 1519.65,-68.4526 1513.66,-65.6985 1455.14,-38.7863 1257.69,-22.5585 1187.6,-17.5337"/>
<polygon fill="red" stroke="red" stroke-width="0.3341" points="1187.7,-14.0327 1177.48,-16.8236 1187.21,-21.0155 1187.7,-14.0327"/>
</g>
<!-- &#45;18&#45;&gt;3 -->
<g id="edge69" class="edge"><title>&#45;18&#45;&gt;3</title>
<path fill="none" stroke="red" stroke-width="0.189253" d="M1529.86,-77.8063C1525.67,-73.42 1519.92,-68.3667 1513.66,-65.6985 1426.88,-28.7047 1184.36,-40.6517 1090.66,-29.6985 1067.35,-26.9735 1040.89,-22.9407 1022.17,-19.9289"/>
<polygon fill="red" stroke="red" stroke-width="0.189253" points="1022.56,-16.4459 1012.12,-18.2911 1021.43,-23.3547 1022.56,-16.4459"/>
</g>
<!-- &#45;19 -->
<g id="node19" class="node"><title>&#45;19</title>
<polygon fill="lightgray" stroke="black" points="1598.16,-95.9117 1569.16,-95.9117 1569.16,-77.9117 1598.16,-77.9117 1598.16,-95.9117"/>
<text text-anchor="middle" x="1583.66" y="-84.7117" font-family="Times New Roman,serif" font-size="9.00">&#45;19</text>
</g>
<!-- &#45;19&#45;&gt;0 -->
<g id="edge70" class="edge"><title>&#45;19&#45;&gt;0</title>
<path fill="none" stroke="green" stroke-width="0.300017" d="M1576.88,-77.7506C1572.7,-73.3458 1566.95,-68.2925 1560.66,-65.6985 1439.84,-15.8759 1098.81,-67.3591 973.662,-29.6985 972.603,-29.3796 971.54,-29.0063 970.483,-28.5908"/>
<polygon fill="green" stroke="green" stroke-width="0.300017" points="971.885,-25.3787 961.374,-24.0479 968.761,-31.6429 971.885,-25.3787"/>
</g>
<!-- &#45;19&#45;&gt;1 -->
<g id="edge71" class="edge"><title>&#45;19&#45;&gt;1</title>
<path fill="none" stroke="green" stroke-width="0.12859" d="M1576.86,-77.8067C1572.67,-73.4206 1566.92,-68.3673 1560.66,-65.6985 1387.51,8.13282 1318.25,-86.088 1138.66,-29.6985 1137.61,-29.367 1136.55,-28.9833 1135.49,-28.5595"/>
<polygon fill="green" stroke="green" stroke-width="0.12859" points="1136.9,-25.3494 1126.39,-23.9858 1133.76,-31.6038 1136.9,-25.3494"/>
</g>
<!-- &#45;19&#45;&gt;2 -->
<g id="edge72" class="edge"><title>&#45;19&#45;&gt;2</title>
<path fill="none" stroke="red" stroke-width="0.200803" d="M1576.82,-77.899C1572.62,-73.5437 1566.87,-68.4904 1560.66,-65.6985 1493.32,-35.4009 1264.43,-21.0915 1187.85,-17.0727"/>
<polygon fill="red" stroke="red" stroke-width="0.200803" points="1187.86,-13.5687 1177.7,-16.5537 1187.5,-20.5596 1187.86,-13.5687"/>
</g>
<!-- &#45;19&#45;&gt;3 -->
<g id="edge73" class="edge"><title>&#45;19&#45;&gt;3</title>
<path fill="none" stroke="green" stroke-width="0.108271" d="M1576.87,-77.7864C1572.68,-73.3935 1566.93,-68.3402 1560.66,-65.6985 1464.13,-25.0301 1194.75,-41.4204 1090.66,-29.6985 1067.34,-27.072 1040.88,-23.0272 1022.16,-19.9857"/>
<polygon fill="green" stroke="green" stroke-width="0.108271" points="1022.55,-16.5033 1012.12,-18.3292 1021.42,-23.41 1022.55,-16.5033"/>
</g>
<!-- &#45;20 -->
<g id="node20" class="node"><title>&#45;20</title>
<polygon fill="lightgray" stroke="black" points="1645.16,-95.9117 1616.16,-95.9117 1616.16,-77.9117 1645.16,-77.9117 1645.16,-95.9117"/>
<text text-anchor="middle" x="1630.66" y="-84.7117" font-family="Times New Roman,serif" font-size="9.00">&#45;20</text>
</g>
<!-- &#45;20&#45;&gt;0 -->
<g id="edge74" class="edge"><title>&#45;20&#45;&gt;0</title>
<path fill="none" stroke="red" stroke-width="0.336318" d="M1623.88,-77.7399C1619.71,-73.3316 1613.96,-68.2783 1607.66,-65.6985 1477.08,-12.1968 1108.88,-70.0574 973.662,-29.6985 972.602,-29.382 971.539,-29.0107 970.481,-28.5968"/>
<polygon fill="red" stroke="red" stroke-width="0.336318" points="971.882,-25.3843 961.37,-24.0597 968.761,-31.6504 971.882,-25.3843"/>
</g>
<!-- &#45;20&#45;&gt;1 -->
<g id="edge75" class="edge"><title>&#45;20&#45;&gt;1</title>
<path fill="none" stroke="red" stroke-width="0.170669" d="M1623.87,-77.7868C1619.68,-73.394 1613.93,-68.3407 1607.66,-65.6985 1415.01,15.4819 1338.38,-91.4776 1138.66,-29.6985 1137.61,-29.3715 1136.54,-28.9915 1135.49,-28.5706"/>
<polygon fill="red" stroke="red" stroke-width="0.170669" points="1136.89,-25.3598 1126.39,-24.0079 1133.76,-31.6177 1136.89,-25.3598"/>
</g>
<!-- &#45;20&#45;&gt;2 -->
<g id="edge76" class="edge"><title>&#45;20&#45;&gt;2</title>
<path fill="none" stroke="green" stroke-width="0.134369" d="M1623.83,-77.8686C1619.64,-73.5032 1613.89,-68.4499 1607.66,-65.6985 1531.36,-31.9635 1270.2,-19.7553 1187.79,-16.6908"/>
<polygon fill="green" stroke="green" stroke-width="0.134369" points="1187.71,-13.1859 1177.59,-16.325 1187.46,-20.1814 1187.71,-13.1859"/>
</g>
<!-- &#45;20&#45;&gt;3 -->
<g id="edge77" class="edge"><title>&#45;20&#45;&gt;3</title>
<path fill="none" stroke="green" stroke-width="0.342886" d="M1623.87,-77.7701C1619.69,-73.3718 1613.94,-68.3185 1607.66,-65.6985 1501.38,-21.3537 1205.15,-42.1897 1090.66,-29.6985 1067.33,-27.1528 1040.87,-23.098 1022.16,-20.0323"/>
<polygon fill="green" stroke="green" stroke-width="0.342886" points="1022.55,-16.5504 1012.11,-18.3604 1021.4,-23.4553 1022.55,-16.5504"/>
</g>
<!-- &#45;21 -->
<g id="node21" class="node"><title>&#45;21</title>
<polygon fill="lightgray" stroke="black" points="1692.16,-95.9117 1663.16,-95.9117 1663.16,-77.9117 1692.16,-77.9117 1692.16,-95.9117"/>
<text text-anchor="middle" x="1677.66" y="-84.7117" font-family="Times New Roman,serif" font-size="9.00">&#45;21</text>
</g>
<!-- &#45;21&#45;&gt;0 -->
<g id="edge78" class="edge"><title>&#45;21&#45;&gt;0</title>
<path fill="none" stroke="red" stroke-width="0.201321" d="M1670.89,-77.7307C1666.71,-73.3193 1660.96,-68.266 1654.66,-65.6985 1514.32,-8.5169 1118.96,-72.7562 973.662,-29.6985 972.602,-29.3841 971.538,-29.0144 970.48,-28.6019"/>
<polygon fill="red" stroke="red" stroke-width="0.201321" points="971.879,-25.3891 961.367,-24.07 968.762,-31.6568 971.879,-25.3891"/>
</g>
<!-- &#45;21&#45;&gt;1 -->
<g id="edge79" class="edge"><title>&#45;21&#45;&gt;1</title>
<path fill="none" stroke="red" stroke-width="0.543522" d="M1670.87,-77.7704C1666.69,-73.3722 1660.94,-68.3189 1654.66,-65.6985 1442.5,22.8346 1358.52,-96.87 1138.66,-29.6985 1137.6,-29.3752 1136.54,-28.9982 1135.49,-28.5798"/>
<polygon fill="red" stroke="red" stroke-width="0.543522" points="1136.89,-25.3683 1126.38,-24.026 1133.76,-31.6291 1136.89,-25.3683"/>
</g>
<!-- &#45;21&#45;&gt;2 -->
<g id="edge80" class="edge"><title>&#45;21&#45;&gt;2</title>
<path fill="none" stroke="green" stroke-width="0.191898" d="M1670.84,-77.8439C1666.65,-73.4702 1660.9,-68.4169 1654.66,-65.6985 1569.37,-28.5294 1275.86,-18.5664 1187.82,-16.3845"/>
<polygon fill="green" stroke="green" stroke-width="0.191898" points="1187.76,-12.8823 1177.68,-16.1457 1187.6,-19.8803 1187.76,-12.8823"/>
</g>
<!-- &#45;21&#45;&gt;3 -->
<g id="edge81" class="edge"><title>&#45;21&#45;&gt;3</title>
<path fill="none" stroke="red" stroke-width="0.549455" d="M1670.88,-77.7565C1666.7,-73.3537 1660.95,-68.3004 1654.66,-65.6985 1538.62,-17.676 1215.55,-42.9593 1090.66,-29.6985 1067.32,-27.2202 1040.86,-23.1571 1022.15,-20.0711"/>
<polygon fill="red" stroke="red" stroke-width="0.549455" points="1022.55,-16.5896 1012.11,-18.3864 1021.4,-23.4931 1022.55,-16.5896"/>
</g>
<!-- &#45;22 -->
<g id="node22" class="node"><title>&#45;22</title>
<polygon fill="lightgray" stroke="black" points="183.162,-95.9117 154.162,-95.9117 154.162,-77.9117 183.162,-77.9117 183.162,-95.9117"/>
<text text-anchor="middle" x="168.662" y="-84.7117" font-family="Times New Roman,serif" font-size="9.00">&#45;22</text>
</g>
<!-- &#45;22&#45;&gt;0 -->
<g id="edge82" class="edge"><title>&#45;22&#45;&gt;0</title>
<path fill="none" stroke="green" stroke-width="0.351865" d="M175.449,-77.761C179.628,-73.3597 185.378,-68.3064 191.662,-65.6985 260.617,-37.0854 800.601,-20.0899 924.421,-16.5455"/>
<polygon fill="green" stroke="green" stroke-width="0.351865" points="924.876,-20.0342 934.774,-16.253 924.679,-13.037 924.876,-20.0342"/>
</g>
<!-- &#45;22&#45;&gt;1 -->
<g id="edge83" class="edge"><title>&#45;22&#45;&gt;1</title>
<path fill="none" stroke="red" stroke-width="0.312659" d="M175.427,-77.7083C179.599,-73.2894 185.349,-68.2361 191.662,-65.6985 277.312,-31.2731 929.775,-38.5087 1021.66,-29.6985 1045.03,-27.4584 1071.48,-23.3659 1090.19,-20.2084"/>
<polygon fill="red" stroke="red" stroke-width="0.312659" points="1090.96,-23.6264 1100.22,-18.4784 1089.77,-16.7282 1090.96,-23.6264"/>
</g>
<!-- &#45;22&#45;&gt;3 -->
<g id="edge84" class="edge"><title>&#45;22&#45;&gt;3</title>
<path fill="none" stroke="green" stroke-width="0.570971" d="M175.43,-77.7146C179.602,-73.2978 185.352,-68.2445 191.662,-65.6985 352.988,-0.607351 806.703,-78.5572 973.662,-29.6985 974.724,-29.3877 975.789,-29.021 976.848,-28.6109"/>
<polygon fill="green" stroke="green" stroke-width="0.570971" points="978.561,-31.668 985.963,-24.0878 975.45,-25.3976 978.561,-31.668"/>
</g>
<!-- &#45;23 -->
<g id="node23" class="node"><title>&#45;23</title>
<polygon fill="lightgray" stroke="black" points="1739.16,-95.9117 1710.16,-95.9117 1710.16,-77.9117 1739.16,-77.9117 1739.16,-95.9117"/>
<text text-anchor="middle" x="1724.66" y="-84.7117" font-family="Times New Roman,serif" font-size="9.00">&#45;23</text>
</g>
<!-- &#45;23&#45;&gt;0 -->
<g id="edge85" class="edge"><title>&#45;23&#45;&gt;0</title>
<path fill="none" stroke="red" stroke-width="0.278145" d="M1717.89,-77.7226C1713.72,-73.3085 1707.97,-68.2552 1701.66,-65.6985 1551.56,-4.83649 1129.04,-75.4555 973.662,-29.6985 972.601,-29.3859 971.537,-29.0177 970.478,-28.6064"/>
<polygon fill="red" stroke="red" stroke-width="0.278145" points="971.877,-25.3934 961.364,-24.0788 968.763,-31.6624 971.877,-25.3934"/>
</g>
<!-- &#45;23&#45;&gt;1 -->
<g id="edge86" class="edge"><title>&#45;23&#45;&gt;1</title>
<path fill="none" stroke="green" stroke-width="0.110206" d="M1717.88,-77.7568C1713.7,-73.354 1707.95,-68.3007 1701.66,-65.6985 1585.83,-17.7543 1258.66,-65.9815 1138.66,-29.6985 1137.6,-29.3783 1136.54,-29.0038 1135.48,-28.5874"/>
<polygon fill="green" stroke="green" stroke-width="0.110206" points="1136.89,-25.3755 1126.38,-24.0411 1133.76,-31.6387 1136.89,-25.3755"/>
</g>
<!-- &#45;23&#45;&gt;2 -->
<g id="edge87" class="edge"><title>&#45;23&#45;&gt;2</title>
<path fill="none" stroke="red" stroke-width="0.36047" d="M1717.85,-77.8234C1713.66,-73.4429 1707.91,-68.3896 1701.66,-65.6985 1607.32,-25.0722 1281.04,-17.4799 1187.76,-16.1288"/>
<polygon fill="red" stroke="red" stroke-width="0.36047" points="1187.61,-12.6267 1177.57,-15.9932 1187.52,-19.6261 1187.61,-12.6267"/>
</g>
<!-- &#45;23&#45;&gt;3 -->
<g id="edge88" class="edge"><title>&#45;23&#45;&gt;3</title>
<path fill="none" stroke="green" stroke-width="0.278101" d="M1717.88,-77.7449C1713.71,-73.3383 1707.96,-68.285 1701.66,-65.6985 1575.86,-13.9973 1225.95,-43.7292 1090.66,-29.6985 1067.32,-27.2773 1040.86,-23.2071 1022.15,-20.104"/>
<polygon fill="green" stroke="green" stroke-width="0.278101" points="1022.55,-16.6228 1012.11,-18.4085 1021.39,-23.5251 1022.55,-16.6228"/>
</g>
<!-- &#45;24 -->
<g id="node24" class="node"><title>&#45;24</title>
<polygon fill="lightgray" stroke="black" points="1786.16,-95.9117 1757.16,-95.9117 1757.16,-77.9117 1786.16,-77.9117 1786.16,-95.9117"/>
<text text-anchor="middle" x="1771.66" y="-84.7117" font-family="Times New Roman,serif" font-size="9.00">&#45;24</text>
</g>
<!-- &#45;24&#45;&gt;0 -->
<g id="edge89" class="edge"><title>&#45;24&#45;&gt;0</title>
<path fill="none" stroke="green" stroke-width="0.374369" d="M1764.89,-77.7156C1760.72,-73.2991 1754.97,-68.2458 1748.66,-65.6985 1588.79,-1.1556 1139.12,-78.1551 973.662,-29.6985 972.601,-29.3875 971.536,-29.0206 970.477,-28.6104"/>
<polygon fill="green" stroke="green" stroke-width="0.374369" points="971.876,-25.3971 961.362,-24.0867 968.764,-31.6674 971.876,-25.3971"/>
</g>
<!-- &#45;24&#45;&gt;1 -->
<g id="edge90" class="edge"><title>&#45;24&#45;&gt;1</title>
<path fill="none" stroke="green" stroke-width="0.245623" d="M1764.88,-77.7452C1760.71,-73.3386 1754.96,-68.2853 1748.66,-65.6985 1623.07,-14.0756 1268.74,-68.6794 1138.66,-29.6985 1137.6,-29.3809 1136.54,-29.0085 1135.48,-28.5939"/>
<polygon fill="green" stroke="green" stroke-width="0.245623" points="1136.88,-25.3815 1126.37,-24.0539 1133.76,-31.6467 1136.88,-25.3815"/>
</g>
<!-- &#45;24&#45;&gt;2 -->
<g id="edge91" class="edge"><title>&#45;24&#45;&gt;2</title>
<path fill="none" stroke="red" stroke-width="0.326238" d="M1764.86,-77.8062C1760.67,-73.4199 1754.92,-68.3666 1748.66,-65.6985 1645.22,-21.6062 1285.98,-16.4851 1187.69,-15.9146"/>
<polygon fill="red" stroke="red" stroke-width="0.326238" points="1187.53,-12.4139 1177.52,-15.8669 1187.5,-19.4138 1187.53,-12.4139"/>
</g>
<!-- &#45;24&#45;&gt;3 -->
<g id="edge92" class="edge"><title>&#45;24&#45;&gt;3</title>
<path fill="none" stroke="green" stroke-width="0.277232" d="M1764.89,-77.735C1760.71,-73.3251 1754.96,-68.2718 1748.66,-65.6985 1613.1,-10.3178 1236.35,-44.4994 1090.66,-29.6985 1067.31,-27.3263 1040.85,-23.2501 1022.15,-20.1323"/>
<polygon fill="green" stroke="green" stroke-width="0.277232" points="1022.55,-16.6513 1012.11,-18.4274 1021.38,-23.5525 1022.55,-16.6513"/>
</g>
<!-- &#45;25 -->
<g id="node25" class="node"><title>&#45;25</title>
<polygon fill="lightgray" stroke="black" points="316.162,-95.9117 287.162,-95.9117 287.162,-77.9117 316.162,-77.9117 316.162,-95.9117"/>
<text text-anchor="middle" x="301.662" y="-84.7117" font-family="Times New Roman,serif" font-size="9.00">&#45;25</text>
</g>
<!-- &#45;25&#45;&gt;0 -->
<g id="edge93" class="edge"><title>&#45;25&#45;&gt;0</title>
<path fill="none" stroke="green" stroke-width="0.210048" d="M308.463,-77.7938C312.646,-73.4034 318.396,-68.3501 324.662,-65.6985 435.651,-18.7348 822.242,-15.7196 924.623,-15.7616"/>
<polygon fill="green" stroke="green" stroke-width="0.210048" points="924.65,-19.2616 934.655,-15.7764 924.661,-12.2616 924.65,-19.2616"/>
</g>
<!-- &#45;25&#45;&gt;1 -->
<g id="edge94" class="edge"><title>&#45;25&#45;&gt;1</title>
<path fill="none" stroke="red" stroke-width="0.437881" d="M308.435,-77.7278C312.61,-73.3154 318.36,-68.2621 324.662,-65.6985 468.329,-7.26405 867.338,-45.1385 1021.66,-29.6985 1045.02,-27.3619 1071.47,-23.2813 1090.18,-20.1528"/>
<polygon fill="red" stroke="red" stroke-width="0.437881" points="1090.95,-23.5725 1100.22,-18.4412 1089.77,-16.6721 1090.95,-23.5725"/>
</g>
<!-- &#45;25&#45;&gt;2 -->
<g id="edge95" class="edge"><title>&#45;25&#45;&gt;2</title>
<path fill="none" stroke="red" stroke-width="0.253638" d="M308.428,-77.7103C312.6,-73.2921 318.35,-68.2388 324.662,-65.6985 492.637,1.89904 964.839,-80.3955 1138.66,-29.6985 1139.72,-29.3887 1140.79,-29.0228 1141.85,-28.6133"/>
<polygon fill="red" stroke="red" stroke-width="0.253638" points="1143.56,-31.671 1150.96,-24.0925 1140.45,-25.3998 1143.56,-31.671"/>
</g>
<!-- &#45;25&#45;&gt;3 -->
<g id="edge96" class="edge"><title>&#45;25&#45;&gt;3</title>
<path fill="none" stroke="green" stroke-width="0.134318" stroke-dasharray="1,5" d="M308.439,-77.7368C312.614,-73.3274 318.364,-68.2741 324.662,-65.6985 458.358,-11.0224 835.225,-70.9187 973.662,-29.6985 974.723,-29.3827 975.787,-29.0119 976.844,-28.5985"/>
<polygon fill="green" stroke="green" stroke-width="0.134318" points="978.563,-31.6525 985.956,-24.0632 975.444,-25.3859 978.563,-31.6525"/>
</g>
<!-- &#45;26 -->
<g id="node26" class="node"><title>&#45;26</title>
<polygon fill="lightgray" stroke="black" points="1951.16,-162.125 1922.16,-162.125 1922.16,-144.125 1951.16,-144.125 1951.16,-162.125"/>
<text text-anchor="middle" x="1936.66" y="-150.925" font-family="Times New Roman,serif" font-size="9.00">&#45;26</text>
</g>
<!-- &#45;26&#45;&gt;0 -->
<g id="edge97" class="edge"><title>&#45;26&#45;&gt;0</title>
<path fill="none" stroke="green" stroke-width="0.340571" d="M1921.99,-152.05C1752.87,-151.148 177.569,-141.849 144.662,-108.125 131.494,-94.6289 131.748,-79.4377 144.662,-65.6985 172.064,-36.5478 792.29,-19.7121 924.868,-16.4393"/>
<polygon fill="green" stroke="green" stroke-width="0.340571" points="924.957,-19.9383 934.869,-16.1955 924.787,-12.9404 924.957,-19.9383"/>
</g>
<!-- &#45;26&#45;&gt;1 -->
<g id="edge98" class="edge"><title>&#45;26&#45;&gt;1</title>
<path fill="none" stroke="green" stroke-width="0.156662" d="M1937.73,-144.109C1939.55,-126.696 1941.04,-85.4004 1917.66,-65.6985 1851.41,-9.85918 1221.82,-54.0417 1138.66,-29.6985 1137.6,-29.3876 1136.54,-29.0209 1135.48,-28.6107"/>
<polygon fill="green" stroke="green" stroke-width="0.156662" points="1136.88,-25.3974 1126.36,-24.0873 1133.76,-31.6678 1136.88,-25.3974"/>
</g>
<!-- &#45;26&#45;&gt;2 -->
<g id="edge99" class="edge"><title>&#45;26&#45;&gt;2</title>
<path fill="none" stroke="red" stroke-width="0.794926" d="M1951.23,-150.484C1988.02,-146.008 2083.1,-132.281 2101.66,-108.125 2113.15,-93.1722 2114.64,-79.3807 2101.66,-65.6985 2069.3,-31.5691 1334,-18.4867 1187.8,-16.2188"/>
<polygon fill="red" stroke="red" stroke-width="0.794926" points="1187.65,-12.7161 1177.6,-16.0633 1187.54,-19.7153 1187.65,-12.7161"/>
</g>
<!-- &#45;26&#45;&gt;3 -->
<g id="edge100" class="edge"><title>&#45;26&#45;&gt;3</title>
<path fill="none" stroke="green" stroke-width="0.347811" d="M1922.1,-152.021C1760.49,-150.835 308.034,-139.313 277.662,-108.125 264.507,-94.616 264.678,-79.3718 277.662,-65.6985 330.986,-9.54605 899.405,-51.6581 973.662,-29.6985 974.724,-29.3847 975.788,-29.0155 976.846,-28.6034"/>
<polygon fill="green" stroke="green" stroke-width="0.347811" points="978.562,-31.6587 985.959,-24.0729 975.446,-25.3905 978.562,-31.6587"/>
</g>
<!-- 205 -->
<g id="node46" class="node"><title>205</title>
<ellipse fill="white" stroke="black" cx="2071.66" cy="-86.9117" rx="21.4286" ry="21.4286"/>
<text text-anchor="middle" x="2071.66" y="-84.7117" font-family="Times New Roman,serif" font-size="9.00">205</text>
</g>
<!-- &#45;26&#45;&gt;205 -->
<g id="edge156" class="edge"><title>&#45;26&#45;&gt;205</title>
<path fill="none" stroke="green" stroke-width="0.264055" d="M1951.47,-146.205C1971.2,-138.182 2007.06,-123.131 2036.66,-108.125 2039.39,-106.742 2042.21,-105.244 2045,-103.71"/>
<polygon fill="green" stroke="green" stroke-width="0.264055" points="2046.72,-106.755 2053.7,-98.7852 2043.28,-100.662 2046.72,-106.755"/>
</g>
<!-- &#45;27 -->
<g id="node27" class="node"><title>&#45;27</title>
<polygon fill="lightgray" stroke="black" points="363.162,-95.9117 334.162,-95.9117 334.162,-77.9117 363.162,-77.9117 363.162,-95.9117"/>
<text text-anchor="middle" x="348.662" y="-84.7117" font-family="Times New Roman,serif" font-size="9.00">&#45;27</text>
</g>
<!-- &#45;27&#45;&gt;0 -->
<g id="edge101" class="edge"><title>&#45;27&#45;&gt;0</title>
<path fill="none" stroke="red" stroke-width="0.474432" d="M355.469,-77.8089C359.655,-73.4236 365.405,-68.3703 371.662,-65.6985 473.566,-22.1917 827.254,-16.6474 924.659,-15.9483"/>
<polygon fill="red" stroke="red" stroke-width="0.474432" points="924.771,-19.4478 934.75,-15.8872 924.729,-12.4479 924.771,-19.4478"/>
</g>
<!-- &#45;27&#45;&gt;1 -->
<g id="edge102" class="edge"><title>&#45;27&#45;&gt;1</title>
<path fill="none" stroke="red" stroke-width="0.693785" d="M355.439,-77.7366C359.614,-73.3272 365.364,-68.2739 371.662,-65.6985 505.566,-10.9441 877.742,-44.3683 1021.66,-29.6985 1045.01,-27.3185 1071.47,-23.2432 1090.18,-20.1277"/>
<polygon fill="red" stroke="red" stroke-width="0.693785" points="1090.94,-23.5481 1100.22,-18.4244 1089.77,-16.6468 1090.94,-23.5481"/>
</g>
<!-- &#45;27&#45;&gt;2 -->
<g id="edge103" class="edge"><title>&#45;27&#45;&gt;2</title>
<path fill="none" stroke="green" stroke-width="0.328319" d="M355.431,-77.7167C359.604,-73.3006 365.354,-68.2473 371.662,-65.6985 529.871,-1.78216 974.92,-77.6956 1138.66,-29.6985 1139.72,-29.3873 1140.79,-29.0202 1141.85,-28.6097"/>
<polygon fill="green" stroke="green" stroke-width="0.328319" points="1143.56,-31.6666 1150.96,-24.0854 1140.45,-25.3965 1143.56,-31.6666"/>
</g>
<!-- &#45;27&#45;&gt;3 -->
<g id="edge104" class="edge"><title>&#45;27&#45;&gt;3</title>
<path fill="none" stroke="green" stroke-width="0.356679" d="M355.443,-77.747C359.62,-73.341 365.37,-68.2877 371.662,-65.6985 495.597,-14.7018 845.301,-68.2202 973.662,-29.6985 974.722,-29.3804 975.785,-29.0078 976.843,-28.5928"/>
<polygon fill="green" stroke="green" stroke-width="0.356679" points="978.564,-31.6454 985.953,-24.0519 975.441,-25.3806 978.564,-31.6454"/>
</g>
<!-- &#45;28 -->
<g id="node28" class="node"><title>&#45;28</title>
<polygon fill="lightgray" stroke="black" points="410.162,-95.9117 381.162,-95.9117 381.162,-77.9117 410.162,-77.9117 410.162,-95.9117"/>
<text text-anchor="middle" x="395.662" y="-84.7117" font-family="Times New Roman,serif" font-size="9.00">&#45;28</text>
</g>
<!-- &#45;28&#45;&gt;0 -->
<g id="edge105" class="edge"><title>&#45;28&#45;&gt;0</title>
<path fill="none" stroke="green" stroke-width="0.144057" d="M402.477,-77.8267C406.665,-73.4472 412.415,-68.3939 418.662,-65.6985 511.491,-25.6499 832.329,-17.6534 924.637,-16.1679"/>
<polygon fill="green" stroke="green" stroke-width="0.144057" points="924.784,-19.6662 934.73,-16.0173 924.679,-12.6669 924.784,-19.6662"/>
</g>
<!-- &#45;28&#45;&gt;1 -->
<g id="edge106" class="edge"><title>&#45;28&#45;&gt;1</title>
<path fill="none" stroke="red" stroke-width="0.200972" d="M402.443,-77.7468C406.62,-73.3407 412.37,-68.2874 418.662,-65.6985 542.805,-14.6235 888.145,-43.5982 1021.66,-29.6985 1045.01,-27.2682 1071.47,-23.1992 1090.18,-20.0988"/>
<polygon fill="red" stroke="red" stroke-width="0.200972" points="1090.94,-23.52 1100.21,-18.405 1089.77,-16.6175 1090.94,-23.52"/>
</g>
<!-- &#45;28&#45;&gt;2 -->
<g id="edge107" class="edge"><title>&#45;28&#45;&gt;2</title>
<path fill="none" stroke="green" stroke-width="0.125641" d="M402.434,-77.7239C406.607,-73.3103 412.357,-68.257 418.662,-65.6985 567.107,-5.46297 985,-74.996 1138.66,-29.6985 1139.72,-29.3856 1140.79,-29.0172 1141.85,-28.6057"/>
<polygon fill="green" stroke="green" stroke-width="0.125641" points="1143.56,-31.6615 1150.96,-24.0774 1140.45,-25.3927 1143.56,-31.6615"/>
</g>
<!-- &#45;28&#45;&gt;3 -->
<g id="edge108" class="edge"><title>&#45;28&#45;&gt;3</title>
<path fill="none" stroke="red" stroke-width="0.239652" stroke-dasharray="1,5" d="M402.448,-77.7589C406.627,-73.3569 412.377,-68.3036 418.662,-65.6985 647.014,28.9378 737.089,-101.346 973.662,-29.6985 974.721,-29.3778 975.784,-29.0029 976.841,-28.5862"/>
<polygon fill="red" stroke="red" stroke-width="0.239652" points="978.565,-31.6372 985.949,-24.0387 975.438,-25.3744 978.565,-31.6372"/>
</g>
<!-- &#45;29 -->
<g id="node29" class="node"><title>&#45;29</title>
<polygon fill="lightgray" stroke="black" points="457.162,-95.9117 428.162,-95.9117 428.162,-77.9117 457.162,-77.9117 457.162,-95.9117"/>
<text text-anchor="middle" x="442.662" y="-84.7117" font-family="Times New Roman,serif" font-size="9.00">&#45;29</text>
</g>
<!-- &#45;29&#45;&gt;0 -->
<g id="edge109" class="edge"><title>&#45;29&#45;&gt;0</title>
<path fill="none" stroke="green" stroke-width="0.269977" d="M449.486,-77.8478C453.677,-73.4754 459.427,-68.4221 465.662,-65.6985 549.362,-29.1391 837.022,-18.7745 924.334,-16.4372"/>
<polygon fill="green" stroke="green" stroke-width="0.269977" points="924.498,-19.9343 934.406,-16.18 924.32,-12.9366 924.498,-19.9343"/>
</g>
<!-- &#45;29&#45;&gt;1 -->
<g id="edge110" class="edge"><title>&#45;29&#45;&gt;1</title>
<path fill="none" stroke="red" stroke-width="0.222109" d="M449.448,-77.7586C453.626,-73.3565 459.376,-68.3032 465.662,-65.6985 580.046,-18.3021 898.546,-42.8283 1021.66,-29.6985 1045,-27.2096 1071.46,-23.1477 1090.17,-20.065"/>
<polygon fill="red" stroke="red" stroke-width="0.222109" points="1090.93,-23.4871 1100.21,-18.3823 1089.77,-16.5834 1090.93,-23.4871"/>
</g>
<!-- &#45;29&#45;&gt;2 -->
<g id="edge111" class="edge"><title>&#45;29&#45;&gt;2</title>
<path fill="none" stroke="red" stroke-width="0.128242" d="M449.437,-77.7322C453.612,-73.3212 459.362,-68.2679 465.662,-65.6985 604.343,-9.1433 995.079,-72.2968 1138.66,-29.6985 1139.72,-29.3838 1140.79,-29.0138 1141.84,-28.6011"/>
<polygon fill="red" stroke="red" stroke-width="0.128242" points="1143.56,-31.6558 1150.96,-24.0683 1140.45,-25.3884 1143.56,-31.6558"/>
</g>
<!-- &#45;29&#45;&gt;3 -->
<g id="edge112" class="edge"><title>&#45;29&#45;&gt;3</title>
<path fill="none" stroke="green" stroke-width="0.19766" d="M449.454,-77.773C453.634,-73.3757 459.384,-68.3224 465.662,-65.6985 674.501,21.5829 757.232,-95.952 973.662,-29.6985 974.72,-29.3746 975.782,-28.9972 976.838,-28.5783"/>
<polygon fill="green" stroke="green" stroke-width="0.19766" points="978.566,-31.6274 985.944,-24.0232 975.435,-25.367 978.566,-31.6274"/>
</g>
<!-- &#45;30 -->
<g id="node30" class="node"><title>&#45;30</title>
<polygon fill="lightgray" stroke="black" points="102.162,-162.125 73.1625,-162.125 73.1625,-144.125 102.162,-144.125 102.162,-162.125"/>
<text text-anchor="middle" x="87.6625" y="-150.925" font-family="Times New Roman,serif" font-size="9.00">&#45;30</text>
</g>
<!-- &#45;30&#45;&gt;0 -->
<g id="edge113" class="edge"><title>&#45;30&#45;&gt;0</title>
<path fill="none" stroke="green" stroke-width="0.222107" d="M73.1213,-148.811C54.3879,-143.675 22.5823,-131.811 8.66249,-108.125 -0.891268,-91.8682 -4.31338,-79.3799 8.66249,-65.6985 41.0987,-31.4985 777.965,-18.4727 924.469,-16.2166"/>
<polygon fill="green" stroke="green" stroke-width="0.222107" points="924.748,-19.7129 934.694,-16.0621 924.642,-12.7137 924.748,-19.7129"/>
</g>
<!-- &#45;30&#45;&gt;1 -->
<g id="edge114" class="edge"><title>&#45;30&#45;&gt;1</title>
<path fill="none" stroke="green" stroke-width="0.237402" d="M102.244,-152.041C268.738,-151.054 1805.55,-141.052 1837.66,-108.125 1850.83,-94.625 1850.65,-79.3704 1837.66,-65.6985 1784.1,-9.31059 1213.24,-51.7442 1138.66,-29.6985 1137.6,-29.3848 1136.54,-29.0158 1135.48,-28.6037"/>
<polygon fill="green" stroke="green" stroke-width="0.237402" points="1136.88,-25.3908 1126.37,-24.0735 1133.76,-31.6591 1136.88,-25.3908"/>
</g>
<!-- &#45;30&#45;&gt;2 -->
<g id="edge115" class="edge"><title>&#45;30&#45;&gt;2</title>
<path fill="none" stroke="green" stroke-width="0.420465" d="M102.246,-152.074C277.213,-151.425 1968.38,-144.228 2003.66,-108.125 2016.84,-94.6394 2016.6,-79.4206 2003.66,-65.6985 1974.97,-35.2545 1325.69,-19.4082 1188.12,-16.3862"/>
<polygon fill="green" stroke="green" stroke-width="0.420465" points="1187.83,-12.8792 1177.76,-16.1618 1187.68,-19.8776 1187.83,-12.8792"/>
</g>
<!-- &#45;30&#45;&gt;3 -->
<g id="edge116" class="edge"><title>&#45;30&#45;&gt;3</title>
<path fill="none" stroke="red" stroke-width="0.533423" d="M90.1621,-144.072C96.1896,-126.203 113.387,-83.4222 144.662,-65.6985 224.875,-20.2414 885.142,-55.4778 973.662,-29.6985 974.725,-29.3891 975.79,-29.0235 976.849,-28.6144"/>
<polygon fill="red" stroke="red" stroke-width="0.533423" points="978.561,-31.6723 985.965,-24.0946 975.451,-25.4008 978.561,-31.6723"/>
</g>
<!-- 393 -->
<g id="node45" class="node"><title>393</title>
<ellipse fill="white" stroke="black" cx="38.6625" cy="-86.9117" rx="21.4286" ry="21.4286"/>
<text text-anchor="middle" x="38.6625" y="-84.7117" font-family="Times New Roman,serif" font-size="9.00">393</text>
</g>
<!-- &#45;30&#45;&gt;393 -->
<g id="edge158" class="edge"><title>&#45;30&#45;&gt;393</title>
<path fill="none" stroke="green" stroke-width="0.11616" d="M81.4566,-143.992C75.4233,-136.086 65.9512,-123.673 57.4506,-112.533"/>
<polygon fill="green" stroke="green" stroke-width="0.11616" points="60.0614,-110.185 51.2126,-104.358 54.4966,-114.431 60.0614,-110.185"/>
</g>
<!-- &#45;31 -->
<g id="node31" class="node"><title>&#45;31</title>
<polygon fill="lightgray" stroke="black" points="504.162,-95.9117 475.162,-95.9117 475.162,-77.9117 504.162,-77.9117 504.162,-95.9117"/>
<text text-anchor="middle" x="489.662" y="-84.7117" font-family="Times New Roman,serif" font-size="9.00">&#45;31</text>
</g>
<!-- &#45;31&#45;&gt;0 -->
<g id="edge117" class="edge"><title>&#45;31&#45;&gt;0</title>
<path fill="none" stroke="red" stroke-width="0.307411" d="M496.497,-77.8734C500.692,-73.5095 506.442,-68.4562 512.662,-65.6985 587.335,-32.5943 842.394,-20.0061 924.194,-16.7632"/>
<polygon fill="red" stroke="red" stroke-width="0.307411" points="924.691,-20.2468 934.55,-16.3665 924.423,-13.2519 924.691,-20.2468"/>
</g>
<!-- &#45;31&#45;&gt;1 -->
<g id="edge118" class="edge"><title>&#45;31&#45;&gt;1</title>
<path fill="none" stroke="red" stroke-width="0.279219" d="M496.454,-77.7727C500.634,-73.3752 506.384,-68.3219 512.662,-65.6985 617.289,-21.9796 908.944,-42.0587 1021.66,-29.6985 1044.99,-27.1401 1071.45,-23.0869 1090.17,-20.0249"/>
<polygon fill="red" stroke="red" stroke-width="0.279219" points="1090.92,-23.4482 1100.21,-18.3555 1089.77,-16.543 1090.92,-23.4482"/>
</g>
<!-- &#45;31&#45;&gt;2 -->
<g id="edge119" class="edge"><title>&#45;31&#45;&gt;2</title>
<path fill="none" stroke="green" stroke-width="0.265801" d="M496.441,-77.7416C500.617,-73.3338 506.367,-68.2805 512.662,-65.6985 641.581,-12.823 1005.16,-69.5981 1138.66,-29.6985 1139.72,-29.3817 1140.79,-29.01 1141.84,-28.5958"/>
<polygon fill="green" stroke="green" stroke-width="0.265801" points="1143.56,-31.6492 1150.95,-24.0579 1140.44,-25.3834 1143.56,-31.6492"/>
</g>
<!-- &#45;31&#45;&gt;3 -->
<g id="edge120" class="edge"><title>&#45;31&#45;&gt;3</title>
<path fill="none" stroke="red" stroke-width="0.422221" d="M496.461,-77.7899C500.644,-73.3982 506.394,-68.3449 512.662,-65.6985 701.995,14.2307 777.368,-90.56 973.662,-29.6985 974.719,-29.3708 975.78,-28.9902 976.835,-28.5689"/>
<polygon fill="red" stroke="red" stroke-width="0.422221" points="978.568,-31.6156 985.938,-24.0045 975.43,-25.3582 978.568,-31.6156"/>
</g>
<!-- &#45;32 -->
<g id="node32" class="node"><title>&#45;32</title>
<polygon fill="lightgray" stroke="black" points="551.162,-95.9117 522.162,-95.9117 522.162,-77.9117 551.162,-77.9117 551.162,-95.9117"/>
<text text-anchor="middle" x="536.662" y="-84.7117" font-family="Times New Roman,serif" font-size="9.00">&#45;32</text>
</g>
<!-- &#45;32&#45;&gt;0 -->
<g id="edge121" class="edge"><title>&#45;32&#45;&gt;0</title>
<path fill="none" stroke="green" stroke-width="0.179363" d="M543.511,-77.9049C547.711,-73.5516 553.461,-68.4983 559.662,-65.6985 625.482,-35.9839 848.931,-21.3345 924.471,-17.1464"/>
<polygon fill="green" stroke="green" stroke-width="0.179363" points="924.71,-20.6387 934.506,-16.6038 924.332,-13.6489 924.71,-20.6387"/>
</g>
<!-- &#45;32&#45;&gt;1 -->
<g id="edge122" class="edge"><title>&#45;32&#45;&gt;1</title>
<path fill="none" stroke="green" stroke-width="0.197611" d="M543.461,-77.7895C547.644,-73.3977 553.394,-68.3444 559.662,-65.6985 654.536,-25.6557 919.339,-41.2895 1021.66,-29.6985 1044.98,-27.0567 1071.45,-23.0137 1090.16,-19.9768"/>
<polygon fill="green" stroke="green" stroke-width="0.197611" points="1090.91,-23.4014 1100.21,-18.3232 1089.77,-16.4944 1090.91,-23.4014"/>
</g>
<!-- &#45;32&#45;&gt;2 -->
<g id="edge123" class="edge"><title>&#45;32&#45;&gt;2</title>
<path fill="none" stroke="red" stroke-width="0.143972" d="M543.445,-77.7526C547.623,-73.3485 553.373,-68.2952 559.662,-65.6985 678.821,-16.502 1015.23,-66.8998 1138.66,-29.6985 1139.72,-29.3792 1140.78,-29.0055 1141.84,-28.5897"/>
<polygon fill="red" stroke="red" stroke-width="0.143972" points="1143.56,-31.6416 1150.95,-24.0457 1140.44,-25.3777 1143.56,-31.6416"/>
</g>
<!-- &#45;32&#45;&gt;3 -->
<g id="edge124" class="edge"><title>&#45;32&#45;&gt;3</title>
<path fill="none" stroke="green" stroke-width="0.215601" stroke-dasharray="1,5" d="M543.47,-77.8106C547.656,-73.4258 553.406,-68.3725 559.662,-65.6985 729.498,6.88236 797.495,-85.1709 973.662,-29.6985 974.718,-29.3662 975.777,-28.9818 976.832,-28.5573"/>
<polygon fill="green" stroke="green" stroke-width="0.215601" points="978.569,-31.6012 985.931,-23.9816 975.424,-25.3474 978.569,-31.6012"/>
</g>
<!-- &#45;33 -->
<g id="node33" class="node"><title>&#45;33</title>
<polygon fill="lightgray" stroke="black" points="1994.16,-95.9117 1965.16,-95.9117 1965.16,-77.9117 1994.16,-77.9117 1994.16,-95.9117"/>
<text text-anchor="middle" x="1979.66" y="-84.7117" font-family="Times New Roman,serif" font-size="9.00">&#45;33</text>
</g>
<!-- &#45;33&#45;&gt;1 -->
<g id="edge125" class="edge"><title>&#45;33&#45;&gt;1</title>
<path fill="none" stroke="red" stroke-width="0.151402" d="M1970.74,-77.6947C1965.35,-73.2713 1958.1,-68.218 1950.66,-65.6985 1779.58,-7.76596 1312.06,-80.2806 1138.66,-29.6985 1137.6,-29.3886 1136.54,-29.0227 1135.48,-28.6132"/>
<polygon fill="red" stroke="red" stroke-width="0.151402" points="1136.87,-25.3997 1126.36,-24.0922 1133.76,-31.6708 1136.87,-25.3997"/>
</g>
<!-- &#45;33&#45;&gt;2 -->
<g id="edge126" class="edge"><title>&#45;33&#45;&gt;2</title>
<path fill="none" stroke="red" stroke-width="0.123532" stroke-dasharray="1,5" d="M1970.72,-77.7473C1965.33,-73.3414 1958.08,-68.2881 1950.66,-65.6985 1804.92,-14.8071 1305.65,-14.8788 1187.75,-15.631"/>
<polygon fill="red" stroke="red" stroke-width="0.123532" points="1187.54,-12.1324 1177.56,-15.7043 1187.59,-19.1322 1187.54,-12.1324"/>
</g>
<!-- &#45;33&#45;&gt;3 -->
<g id="edge127" class="edge"><title>&#45;33&#45;&gt;3</title>
<path fill="none" stroke="green" stroke-width="0.169191" d="M1964.67,-79.7503C1952.3,-74.976 1934.15,-68.6872 1917.66,-65.6985 1555.66,-0.0759218 1456.88,-64.841 1090.66,-29.6985 1067.3,-27.4565 1040.84,-23.3643 1022.14,-20.2073"/>
<polygon fill="green" stroke="green" stroke-width="0.169191" points="1022.55,-16.7271 1012.1,-18.4777 1021.36,-23.6254 1022.55,-16.7271"/>
</g>
<!-- &#45;34 -->
<g id="node34" class="node"><title>&#45;34</title>
<polygon fill="lightgray" stroke="black" points="598.162,-95.9117 569.162,-95.9117 569.162,-77.9117 598.162,-77.9117 598.162,-95.9117"/>
<text text-anchor="middle" x="583.662" y="-84.7117" font-family="Times New Roman,serif" font-size="9.00">&#45;34</text>
</g>
<!-- &#45;34&#45;&gt;0 -->
<g id="edge128" class="edge"><title>&#45;34&#45;&gt;0</title>
<path fill="none" stroke="green" stroke-width="0.504735" d="M590.928,-77.536C595.095,-73.2911 600.678,-68.4623 606.662,-65.6985 663.586,-39.4087 855.133,-22.8872 924.399,-17.652"/>
<polygon fill="green" stroke="green" stroke-width="0.504735" points="925.072,-21.1119 934.786,-16.8829 924.555,-14.131 925.072,-21.1119"/>
</g>
<!-- &#45;34&#45;&gt;1 -->
<g id="edge129" class="edge"><title>&#45;34&#45;&gt;1</title>
<path fill="none" stroke="red" stroke-width="0.298149" d="M590.47,-77.8101C594.655,-73.4251 600.405,-68.3718 606.662,-65.6985 691.787,-29.3299 929.729,-40.5209 1021.66,-29.6985 1044.97,-26.9545 1071.43,-22.9241 1090.16,-19.9179"/>
<polygon fill="red" stroke="red" stroke-width="0.298149" points="1090.89,-23.3441 1100.2,-18.2837 1089.77,-16.4349 1090.89,-23.3441"/>
</g>
<!-- &#45;34&#45;&gt;2 -->
<g id="edge130" class="edge"><title>&#45;34&#45;&gt;2</title>
<path fill="none" stroke="red" stroke-width="0.143345" d="M590.451,-77.7655C594.63,-73.3657 600.38,-68.3124 606.662,-65.6985 825.464,25.3383 911.947,-98.7062 1138.66,-29.6985 1139.72,-29.3763 1140.78,-29.0002 1141.84,-28.5825"/>
<polygon fill="red" stroke="red" stroke-width="0.143345" points="1143.57,-31.6326 1150.95,-24.0315 1140.44,-25.3709 1143.57,-31.6326"/>
</g>
<!-- &#45;34&#45;&gt;3 -->
<g id="edge131" class="edge"><title>&#45;34&#45;&gt;3</title>
<path fill="none" stroke="red" stroke-width="0.438236" d="M590.481,-77.8365C594.67,-73.4603 600.42,-68.407 606.662,-65.6985 757.013,-0.460693 817.61,-79.7859 973.662,-29.6985 974.716,-29.3603 975.774,-28.9712 976.827,-28.5429"/>
<polygon fill="red" stroke="red" stroke-width="0.438236" points="978.571,-31.5831 985.922,-23.9529 975.417,-25.3339 978.571,-31.5831"/>
</g>
<!-- &#45;35 -->
<g id="node35" class="node"><title>&#45;35</title>
<polygon fill="lightgray" stroke="black" points="645.162,-95.9117 616.162,-95.9117 616.162,-77.9117 645.162,-77.9117 645.162,-95.9117"/>
<text text-anchor="middle" x="630.662" y="-84.7117" font-family="Times New Roman,serif" font-size="9.00">&#45;35</text>
</g>
<!-- &#45;35&#45;&gt;0 -->
<g id="edge132" class="edge"><title>&#45;35&#45;&gt;0</title>
<path fill="none" stroke="red" stroke-width="0.175175" d="M637.953,-77.5896C642.127,-73.3604 647.71,-68.5295 653.662,-65.6985 746.368,-21.6096 871.666,-15.8561 924.506,-15.5463"/>
<polygon fill="red" stroke="red" stroke-width="0.175175" points="924.643,-19.0463 934.644,-15.551 924.646,-12.0463 924.643,-19.0463"/>
</g>
<!-- &#45;35&#45;&gt;1 -->
<g id="edge133" class="edge"><title>&#45;35&#45;&gt;1</title>
<path fill="none" stroke="green" stroke-width="0.346877" d="M637.481,-77.8358C641.67,-73.4594 647.42,-68.4061 653.662,-65.6985 804.427,-0.304527 858.561,-49.8076 1021.66,-29.6985 1044.96,-26.8265 1071.42,-22.8119 1090.15,-19.8441"/>
<polygon fill="green" stroke="green" stroke-width="0.346877" points="1090.87,-23.2722 1100.2,-18.2343 1089.77,-16.3603 1090.87,-23.2722"/>
</g>
<!-- &#45;35&#45;&gt;2 -->
<g id="edge134" class="edge"><title>&#45;35&#45;&gt;2</title>
<path fill="none" stroke="green" stroke-width="0.511252" d="M637.457,-77.7809C641.639,-73.3861 647.389,-68.3328 653.662,-65.6985 852.955,17.9846 932.087,-93.313 1138.66,-29.6985 1139.72,-29.3728 1140.78,-28.9939 1141.84,-28.5739"/>
<polygon fill="green" stroke="green" stroke-width="0.511252" points="1143.57,-31.6219 1150.94,-24.0145 1140.43,-25.3629 1143.57,-31.6219"/>
</g>
<!-- &#45;35&#45;&gt;3 -->
<g id="edge135" class="edge"><title>&#45;35&#45;&gt;3</title>
<path fill="none" stroke="green" stroke-width="0.171026" stroke-dasharray="1,5" d="M637.495,-77.8698C641.69,-73.5047 647.44,-68.4514 653.662,-65.6985 784.546,-7.79604 837.705,-74.4067 973.662,-29.6985 974.542,-29.4092 975.425,-29.0851 976.306,-28.7331"/>
<polygon fill="green" stroke="green" stroke-width="0.171026" points="978.019,-31.7904 985.416,-24.2055 974.904,-25.5219 978.019,-31.7904"/>
</g>
<!-- &#45;36 -->
<g id="node36" class="node"><title>&#45;36</title>
<polygon fill="lightgray" stroke="black" points="692.162,-95.9117 663.162,-95.9117 663.162,-77.9117 692.162,-77.9117 692.162,-95.9117"/>
<text text-anchor="middle" x="677.662" y="-84.7117" font-family="Times New Roman,serif" font-size="9.00">&#45;36</text>
</g>
<!-- &#45;36&#45;&gt;0 -->
<g id="edge136" class="edge"><title>&#45;36&#45;&gt;0</title>
<path fill="none" stroke="red" stroke-width="0.136776" d="M684.989,-77.6623C689.173,-73.4544 694.754,-68.6207 700.662,-65.6985 776.394,-28.2444 878.276,-18.9309 924.719,-16.6153"/>
<polygon fill="red" stroke="red" stroke-width="0.136776" points="924.938,-20.1092 934.778,-16.1824 924.637,-13.1157 924.938,-20.1092"/>
</g>
<!-- &#45;36&#45;&gt;1 -->
<g id="edge137" class="edge"><title>&#45;36&#45;&gt;1</title>
<path fill="none" stroke="green" stroke-width="0.470414" d="M684.495,-77.8689C688.689,-73.5036 694.439,-68.4503 700.662,-65.6985 831.96,-7.64007 879.308,-48.2742 1021.66,-29.6985 1044.94,-26.6616 1071.4,-22.6673 1090.13,-19.7491"/>
<polygon fill="green" stroke="green" stroke-width="0.470414" points="1090.85,-23.1795 1100.19,-18.1705 1089.77,-16.2642 1090.85,-23.1795"/>
</g>
<!-- &#45;36&#45;&gt;2 -->
<g id="edge138" class="edge"><title>&#45;36&#45;&gt;2</title>
<path fill="none" stroke="green" stroke-width="0.388127" d="M684.465,-77.7995C688.649,-73.411 694.399,-68.3577 700.662,-65.6985 880.452,10.6342 952.219,-87.9224 1138.66,-29.6985 1139.72,-29.3687 1140.78,-28.9863 1141.83,-28.5635"/>
<polygon fill="green" stroke="green" stroke-width="0.388127" points="1143.57,-31.6089 1150.93,-23.9939 1140.43,-25.3532 1143.57,-31.6089"/>
</g>
<!-- &#45;36&#45;&gt;3 -->
<g id="edge139" class="edge"><title>&#45;36&#45;&gt;3</title>
<path fill="none" stroke="red" stroke-width="0.336379" d="M684.914,-77.5044C689.076,-73.2503 694.66,-68.4227 700.662,-65.6985 812.106,-15.1196 857.773,-69.0368 973.662,-29.6985 974.539,-29.4008 975.42,-29.0696 976.299,-28.7116"/>
<polygon fill="red" stroke="red" stroke-width="0.336379" points="978.024,-31.7621 985.4,-24.156 974.891,-25.5026 978.024,-31.7621"/>
</g>
<!-- &#45;37 -->
<g id="node37" class="node"><title>&#45;37</title>
<polygon fill="lightgray" stroke="black" points="739.162,-95.9117 710.162,-95.9117 710.162,-77.9117 739.162,-77.9117 739.162,-95.9117"/>
<text text-anchor="middle" x="724.662" y="-84.7117" font-family="Times New Roman,serif" font-size="9.00">&#45;37</text>
</g>
<!-- &#45;37&#45;&gt;0 -->
<g id="edge140" class="edge"><title>&#45;37&#45;&gt;0</title>
<path fill="none" stroke="red" stroke-width="0.569646" d="M732.041,-77.7662C736.241,-73.5888 741.82,-68.751 747.662,-65.6985 806.629,-34.8896 885.308,-22.6091 924.812,-18.1435"/>
<polygon fill="red" stroke="red" stroke-width="0.569646" points="925.289,-21.6127 934.866,-17.0823 924.554,-14.6514 925.289,-21.6127"/>
</g>
<!-- &#45;37&#45;&gt;1 -->
<g id="edge141" class="edge"><title>&#45;37&#45;&gt;1</title>
<path fill="none" stroke="green" stroke-width="0.243557" d="M731.913,-77.5032C736.076,-73.2488 741.659,-68.4213 747.662,-65.6985 859.519,-14.9639 900.027,-46.7447 1021.66,-29.6985 1044.77,-26.46 1071.07,-22.5201 1089.79,-19.6718"/>
<polygon fill="green" stroke="green" stroke-width="0.243557" points="1090.5,-23.1043 1099.86,-18.1345 1089.44,-16.1845 1090.5,-23.1043"/>
</g>
<!-- &#45;37&#45;&gt;2 -->
<g id="edge142" class="edge"><title>&#45;37&#45;&gt;2</title>
<path fill="none" stroke="red" stroke-width="0.348245" d="M731.475,-77.8225C735.662,-73.4416 741.412,-68.3883 747.662,-65.6985 907.961,3.28817 972.34,-82.5351 1138.66,-29.6985 1139.72,-29.3635 1140.78,-28.9769 1141.83,-28.5507"/>
<polygon fill="red" stroke="red" stroke-width="0.348245" points="1143.57,-31.5929 1150.93,-23.9684 1140.42,-25.3411 1143.57,-31.5929"/>
</g>
<!-- &#45;37&#45;&gt;3 -->
<g id="edge143" class="edge"><title>&#45;37&#45;&gt;3</title>
<path fill="none" stroke="red" stroke-width="0.601049" d="M731.943,-77.5685C736.114,-73.3331 741.697,-68.5031 747.662,-65.6985 839.708,-22.4236 877.797,-63.6819 973.662,-29.6985 974.535,-29.3891 975.413,-29.0479 976.289,-28.6815"/>
<polygon fill="red" stroke="red" stroke-width="0.601049" points="978.031,-31.7225 985.376,-24.0867 974.872,-25.4757 978.031,-31.7225"/>
</g>
<!-- &#45;38 -->
<g id="node38" class="node"><title>&#45;38</title>
<polygon fill="lightgray" stroke="black" points="786.162,-95.9117 757.162,-95.9117 757.162,-77.9117 786.162,-77.9117 786.162,-95.9117"/>
<text text-anchor="middle" x="771.662" y="-84.7117" font-family="Times New Roman,serif" font-size="9.00">&#45;38</text>
</g>
<!-- &#45;38&#45;&gt;0 -->
<g id="edge144" class="edge"><title>&#45;38&#45;&gt;0</title>
<path fill="none" stroke="green" stroke-width="0.230747" d="M779.542,-77.5241C783.714,-73.4845 789.114,-68.8464 794.662,-65.6985 837.328,-41.4913 893.376,-27.1964 925.057,-20.4988"/>
<polygon fill="green" stroke="green" stroke-width="0.230747" points="926.081,-23.8624 935.185,-18.4429 924.688,-17.0023 926.081,-23.8624"/>
</g>
<!-- &#45;38&#45;&gt;1 -->
<g id="edge145" class="edge"><title>&#45;38&#45;&gt;1</title>
<path fill="none" stroke="green" stroke-width="0.197729" d="M778.94,-77.5603C783.11,-73.3226 788.692,-68.4929 794.662,-65.6985 801.398,-62.5458 1015.7,-30.537 1089.77,-19.5376"/>
<polygon fill="green" stroke="green" stroke-width="0.197729" points="1090.64,-22.9463 1100.02,-18.0164 1089.62,-16.0221 1090.64,-22.9463"/>
</g>
<!-- &#45;38&#45;&gt;2 -->
<g id="edge146" class="edge"><title>&#45;38&#45;&gt;2</title>
<path fill="none" stroke="green" stroke-width="0.125001" d="M778.488,-77.8516C782.679,-73.4805 788.429,-68.4272 794.662,-65.6985 935.484,-4.0515 992.447,-77.1526 1138.66,-29.6985 1139.71,-29.3569 1140.77,-28.965 1141.82,-28.5344"/>
<polygon fill="green" stroke="green" stroke-width="0.125001" points="1143.57,-31.5725 1150.92,-23.9361 1140.41,-25.326 1143.57,-31.5725"/>
</g>
<!-- &#45;38&#45;&gt;3 -->
<g id="edge147" class="edge"><title>&#45;38&#45;&gt;3</title>
<path fill="none" stroke="green" stroke-width="0.283532" stroke-dasharray="1,5" d="M778.99,-77.6644C783.174,-73.4571 788.755,-68.6233 794.662,-65.6985 867.385,-29.6921 897.742,-58.3551 973.662,-29.6985 974.529,-29.3715 975.401,-29.0153 976.272,-28.6363"/>
<polygon fill="green" stroke="green" stroke-width="0.283532" points="978.04,-31.6632 985.338,-23.9826 974.843,-25.4358 978.04,-31.6632"/>
</g>
<!-- &#45;39 -->
<g id="node39" class="node"><title>&#45;39</title>
<polygon fill="lightgray" stroke="black" points="833.162,-95.9117 804.162,-95.9117 804.162,-77.9117 833.162,-77.9117 833.162,-95.9117"/>
<text text-anchor="middle" x="818.662" y="-84.7117" font-family="Times New Roman,serif" font-size="9.00">&#45;39</text>
</g>
<!-- &#45;39&#45;&gt;0 -->
<g id="edge148" class="edge"><title>&#45;39&#45;&gt;0</title>
<path fill="none" stroke="green" stroke-width="0.193313" stroke-dasharray="1,5" d="M826.712,-77.8039C830.927,-73.8356 836.315,-69.1769 841.662,-65.6985 868.984,-47.9264 903.667,-33.1206 926.25,-24.3785"/>
<polygon fill="green" stroke="green" stroke-width="0.193313" points="927.591,-27.6133 935.705,-20.7997 925.113,-21.0666 927.591,-27.6133"/>
</g>
<!-- &#45;39&#45;&gt;1 -->
<g id="edge149" class="edge"><title>&#45;39&#45;&gt;1</title>
<path fill="none" stroke="green" stroke-width="0.321316" d="M825.969,-77.6222C830.148,-73.4026 835.729,-68.5704 841.662,-65.6985 863.958,-54.9062 1026.61,-29.2838 1089.72,-19.6229"/>
<polygon fill="green" stroke="green" stroke-width="0.321316" points="1090.61,-23.029 1099.96,-18.062 1089.55,-16.109 1090.61,-23.029"/>
</g>
<!-- &#45;39&#45;&gt;2 -->
<g id="edge150" class="edge"><title>&#45;39&#45;&gt;2</title>
<path fill="none" stroke="green" stroke-width="0.121712" d="M825.504,-77.8898C829.702,-73.5314 835.452,-68.4781 841.662,-65.6985 963.028,-11.3817 1012.53,-71.7774 1138.66,-29.6985 1139.54,-29.4054 1140.42,-29.0781 1141.3,-28.7234"/>
<polygon fill="green" stroke="green" stroke-width="0.121712" points="1143.02,-31.7777 1150.41,-24.1832 1139.9,-25.5132 1143.02,-31.7777"/>
</g>
<!-- &#45;39&#45;&gt;3 -->
<g id="edge151" class="edge"><title>&#45;39&#45;&gt;3</title>
<path fill="none" stroke="green" stroke-width="0.10299" d="M826.071,-77.8227C830.28,-73.6618 835.858,-68.8218 841.662,-65.6985 895.212,-36.8857 917.531,-53.088 973.662,-29.6985 974.517,-29.3423 975.379,-28.9614 976.242,-28.5614"/>
<polygon fill="green" stroke="green" stroke-width="0.10299" points="978.05,-31.5652 985.269,-23.8104 974.79,-25.3707 978.05,-31.5652"/>
</g>
<!-- &#45;40 -->
<g id="node40" class="node"><title>&#45;40</title>
<polygon fill="lightgray" stroke="black" points="880.162,-95.9117 851.162,-95.9117 851.162,-77.9117 880.162,-77.9117 880.162,-95.9117"/>
<text text-anchor="middle" x="865.662" y="-84.7117" font-family="Times New Roman,serif" font-size="9.00">&#45;40</text>
</g>
<!-- &#45;40&#45;&gt;0 -->
<g id="edge152" class="edge"><title>&#45;40&#45;&gt;0</title>
<path fill="none" stroke="red" stroke-width="0.241435" d="M875.459,-77.6359C879.804,-73.9714 884.983,-69.6132 889.662,-65.6985 903.371,-54.2314 918.89,-41.3398 930.711,-31.5397"/>
<polygon fill="red" stroke="red" stroke-width="0.241435" points="933.119,-34.0902 938.586,-25.0147 928.652,-28.7001 933.119,-34.0902"/>
</g>
<!-- &#45;40&#45;&gt;1 -->
<g id="edge153" class="edge"><title>&#45;40&#45;&gt;1</title>
<path fill="none" stroke="green" stroke-width="0.17991" d="M873.395,-77.7185C877.787,-73.5272 883.607,-68.6913 889.662,-65.6985 925.001,-48.2345 1039.24,-28.1222 1089.98,-19.7845"/>
<polygon fill="green" stroke="green" stroke-width="0.17991" points="1090.76,-23.2039 1100.07,-18.1451 1089.64,-16.2946 1090.76,-23.2039"/>
</g>
<!-- &#45;40&#45;&gt;2 -->
<g id="edge154" class="edge"><title>&#45;40&#45;&gt;2</title>
<path fill="none" stroke="red" stroke-width="0.296715" d="M873.309,-77.5371C877.676,-73.2926 883.499,-68.4638 889.662,-65.6985 991.681,-19.9231 1033.01,-66.2999 1138.66,-29.6985 1139.54,-29.3954 1140.42,-29.0595 1141.29,-28.6976"/>
<polygon fill="red" stroke="red" stroke-width="0.296715" points="1143.03,-31.7437 1150.39,-24.1238 1139.88,-25.49 1143.03,-31.7437"/>
</g>
<!-- &#45;40&#45;&gt;3 -->
<g id="edge155" class="edge"><title>&#45;40&#45;&gt;3</title>
<path fill="none" stroke="red" stroke-width="0.195691" d="M874.075,-77.7632C878.477,-73.7846 884.098,-69.1288 889.662,-65.6985 924.238,-44.3844 937.342,-47.8808 973.662,-29.6985 974.491,-29.2839 975.33,-28.8534 976.174,-28.4117"/>
<polygon fill="red" stroke="red" stroke-width="0.195691" points="978.057,-31.3701 985.111,-23.4657 974.667,-25.2454 978.057,-31.3701"/>
</g>
<!-- 393&#45;&gt;0 -->
<g id="edge159" class="edge"><title>393&#45;&gt;0</title>
<path fill="none" stroke="green" stroke-width="0.247328" d="M55.7351,-73.9287C61.2171,-70.6765 67.477,-67.5462 73.6625,-65.6985 239.251,-16.2333 799.483,-15.2925 924.701,-15.7177"/>
<polygon fill="green" stroke="green" stroke-width="0.247328" points="924.812,-19.2181 934.827,-15.7587 924.841,-12.2182 924.812,-19.2181"/>
</g>
<!-- 205&#45;&gt;1 -->
<g id="edge157" class="edge"><title>205&#45;&gt;1</title>
<path fill="none" stroke="green" stroke-width="0.234837" d="M2052.03,-78.6687C2038.61,-74.0681 2020.31,-68.4743 2003.66,-65.6985 1813.9,-34.048 1323.43,-83.3254 1138.66,-29.6985 1137.6,-29.3901 1136.53,-29.0253 1135.48,-28.6167"/>
<polygon fill="green" stroke="green" stroke-width="0.234837" points="1136.87,-25.4031 1126.36,-24.0993 1133.76,-31.6753 1136.87,-25.4031"/>
</g>
</g>
</svg>
