<?xml version="1.0" encoding="UTF-8" standalone="no"?>
<!DOCTYPE svg PUBLIC "-//W3C//DTD SVG 1.1//EN"
 "http://www.w3.org/Graphics/SVG/1.1/DTD/svg11.dtd">
<!-- Generated by graphviz version 2.38.0 (20140413.2041)
 -->
<!-- Title: %3 Pages: 1 -->
<svg width="1958pt" height="170pt"
 viewBox="0.00 0.00 1958.47 170.12" xmlns="http://www.w3.org/2000/svg" xmlns:xlink="http://www.w3.org/1999/xlink">
<g id="graph0" class="graph" transform="scale(1 1) rotate(0) translate(4 166.125)">
<title>%3</title>
<polygon fill="white" stroke="none" points="-4,4 -4,-166.125 1954.47,-166.125 1954.47,4 -4,4"/>
<!-- &#45;1 -->
<g id="node1" class="node"><title>&#45;1</title>
<polygon fill="lightgray" stroke="black" points="787.811,-95.9117 763.811,-95.9117 763.811,-77.9117 787.811,-77.9117 787.811,-95.9117"/>
<text text-anchor="middle" x="775.811" y="-84.7117" font-family="Times New Roman,serif" font-size="9.00">&#45;1</text>
</g>
<!-- 0 -->
<g id="node41" class="node"><title>0</title>
<ellipse fill="lightblue" stroke="black" cx="940.811" cy="-14.8492" rx="14.7" ry="14.7"/>
<text text-anchor="middle" x="940.811" y="-12.6492" font-family="Times New Roman,serif" font-size="9.00">0</text>
</g>
<!-- &#45;1&#45;&gt;0 -->
<g id="edge1" class="edge"><title>&#45;1&#45;&gt;0</title>
<path fill="none" stroke="green" stroke-width="0.14327" d="M782.482,-77.8568C786.297,-73.7059 791.394,-68.8646 796.811,-65.6985 844.885,-37.6032 865.687,-51.7617 916.811,-29.6985 917.661,-29.3316 918.52,-28.9415 919.379,-28.5339"/>
<polygon fill="green" stroke="green" stroke-width="0.14327" points="921.202,-31.5291 928.391,-23.7469 917.918,-25.3472 921.202,-31.5291"/>
</g>
<!-- 1 -->
<g id="node42" class="node"><title>1</title>
<ellipse fill="lightblue" stroke="black" cx="1036.81" cy="-14.8492" rx="14.7" ry="14.7"/>
<text text-anchor="middle" x="1036.81" y="-12.6492" font-family="Times New Roman,serif" font-size="9.00">1</text>
</g>
<!-- &#45;1&#45;&gt;1 -->
<g id="edge2" class="edge"><title>&#45;1&#45;&gt;1</title>
<path fill="none" stroke="red" stroke-width="0.26177" d="M782.331,-77.579C786.103,-73.3468 791.205,-68.5163 796.811,-65.6985 883.77,-21.9927 921.198,-62.5456 1012.81,-29.6985 1013.68,-29.3859 1014.56,-29.0421 1015.43,-28.6734"/>
<polygon fill="red" stroke="red" stroke-width="0.26177" points="1017.18,-31.7119 1024.52,-24.0682 1014.02,-25.4685 1017.18,-31.7119"/>
</g>
<!-- 2 -->
<g id="node43" class="node"><title>2</title>
<ellipse fill="lightblue" stroke="black" cx="988.811" cy="-14.8492" rx="14.7" ry="14.7"/>
<text text-anchor="middle" x="988.811" y="-12.6492" font-family="Times New Roman,serif" font-size="9.00">2</text>
</g>
<!-- &#45;1&#45;&gt;2 -->
<g id="edge3" class="edge"><title>&#45;1&#45;&gt;2</title>
<path fill="none" stroke="red" stroke-width="0.207924" d="M782.384,-77.6812C786.171,-73.4788 791.271,-68.6444 796.811,-65.6985 864.234,-29.8482 893.541,-57.115 964.811,-29.6985 965.676,-29.366 966.546,-29.0052 967.416,-28.6223"/>
<polygon fill="red" stroke="red" stroke-width="0.207924" points="969.191,-31.6448 976.474,-23.9504 965.982,-25.4235 969.191,-31.6448"/>
</g>
<!-- 3 -->
<g id="node44" class="node"><title>3</title>
<ellipse fill="lightblue" stroke="black" cx="892.811" cy="-14.8492" rx="14.7" ry="14.7"/>
<text text-anchor="middle" x="892.811" y="-12.6492" font-family="Times New Roman,serif" font-size="9.00">3</text>
</g>
<!-- &#45;1&#45;&gt;3 -->
<g id="edge4" class="edge"><title>&#45;1&#45;&gt;3</title>
<path fill="none" stroke="red" stroke-width="0.252444" d="M783.118,-77.8571C786.956,-73.9024 791.878,-69.2397 796.811,-65.6985 820.172,-48.9282 849.934,-34.3847 870.081,-25.4044"/>
<polygon fill="red" stroke="red" stroke-width="0.252444" points="871.624,-28.55 879.392,-21.3452 868.827,-22.1333 871.624,-28.55"/>
</g>
<!-- &#45;2 -->
<g id="node2" class="node"><title>&#45;2</title>
<polygon fill="lightgray" stroke="black" points="829.811,-95.9117 805.811,-95.9117 805.811,-77.9117 829.811,-77.9117 829.811,-95.9117"/>
<text text-anchor="middle" x="817.811" y="-84.7117" font-family="Times New Roman,serif" font-size="9.00">&#45;2</text>
</g>
<!-- &#45;2&#45;&gt;0 -->
<g id="edge5" class="edge"><title>&#45;2&#45;&gt;0</title>
<path fill="none" stroke="red" stroke-width="0.412748" d="M825.049,-77.7591C828.87,-73.7795 833.797,-69.124 838.811,-65.6985 870.337,-44.1602 882.908,-47.2582 916.811,-29.6985 917.634,-29.2726 918.468,-28.8324 919.308,-28.3826"/>
<polygon fill="red" stroke="red" stroke-width="0.412748" points="921.204,-31.3323 928.226,-23.3987 917.789,-25.2218 921.204,-31.3323"/>
</g>
<!-- &#45;2&#45;&gt;1 -->
<g id="edge6" class="edge"><title>&#45;2&#45;&gt;1</title>
<path fill="none" stroke="green" stroke-width="0.323288" d="M824.376,-77.6655C828.16,-73.4586 833.261,-68.6248 838.811,-65.6985 908.669,-28.87 939.006,-57.791 1012.81,-29.6985 1013.68,-29.3691 1014.55,-29.0109 1015.42,-28.6301"/>
<polygon fill="green" stroke="green" stroke-width="0.323288" points="1017.19,-31.6551 1024.48,-23.9685 1013.99,-25.4303 1017.19,-31.6551"/>
</g>
<!-- &#45;2&#45;&gt;2 -->
<g id="edge7" class="edge"><title>&#45;2&#45;&gt;2</title>
<path fill="none" stroke="green" stroke-width="0.4068" d="M824.466,-77.8283C828.276,-73.6691 833.373,-68.8288 838.811,-65.6985 889.287,-36.6433 911.187,-52.4235 964.811,-29.6985 965.664,-29.3372 966.524,-28.9519 967.386,-28.5482"/>
<polygon fill="green" stroke="green" stroke-width="0.4068" points="969.2,-31.5479 976.405,-23.78 965.929,-25.3594 969.2,-31.5479"/>
</g>
<!-- &#45;2&#45;&gt;3 -->
<g id="edge8" class="edge"><title>&#45;2&#45;&gt;3</title>
<path fill="none" stroke="red" stroke-width="0.437954" stroke-dasharray="1,5" d="M826.355,-77.6101C830.152,-73.9409 834.687,-69.586 838.811,-65.6985 850.649,-54.5401 864.09,-42.1314 874.601,-32.4856"/>
<polygon fill="red" stroke="red" stroke-width="0.437954" points="876.983,-35.0501 881.992,-25.7145 872.254,-29.8885 876.983,-35.0501"/>
</g>
<!-- &#45;3 -->
<g id="node3" class="node"><title>&#45;3</title>
<polygon fill="lightgray" stroke="black" points="871.811,-95.9117 847.811,-95.9117 847.811,-77.9117 871.811,-77.9117 871.811,-95.9117"/>
<text text-anchor="middle" x="859.811" y="-84.7117" font-family="Times New Roman,serif" font-size="9.00">&#45;3</text>
</g>
<!-- &#45;3&#45;&gt;0 -->
<g id="edge9" class="edge"><title>&#45;3&#45;&gt;0</title>
<path fill="none" stroke="red" stroke-width="0.889061" d="M867.858,-77.8993C871.714,-74.1292 876.436,-69.612 880.811,-65.6985 894.132,-53.783 909.663,-40.9053 921.586,-31.224"/>
<polygon fill="red" stroke="red" stroke-width="0.889061" points="923.964,-33.803 929.547,-24.7988 919.568,-28.3557 923.964,-33.803"/>
</g>
<!-- &#45;3&#45;&gt;1 -->
<g id="edge10" class="edge"><title>&#45;3&#45;&gt;1</title>
<path fill="none" stroke="red" stroke-width="0.22478" d="M866.451,-77.8021C870.257,-73.6352 875.354,-68.796 880.811,-65.6985 933.695,-35.68 956.68,-53.088 1012.81,-29.6985 1013.67,-29.3423 1014.53,-28.9614 1015.39,-28.5614"/>
<polygon fill="red" stroke="red" stroke-width="0.22478" points="1017.2,-31.5652 1024.42,-23.8104 1013.94,-25.3707 1017.2,-31.5652"/>
</g>
<!-- &#45;3&#45;&gt;2 -->
<g id="edge11" class="edge"><title>&#45;3&#45;&gt;2</title>
<path fill="none" stroke="red" stroke-width="0.194447" d="M867.01,-77.7005C870.82,-73.7058 875.751,-69.0547 880.811,-65.6985 914.661,-43.2492 928.491,-47.8808 964.811,-29.6985 965.639,-29.2839 966.479,-28.8534 967.323,-28.4117"/>
<polygon fill="red" stroke="red" stroke-width="0.194447" points="969.205,-31.3701 976.26,-23.4657 965.816,-25.2454 969.205,-31.3701"/>
</g>
<!-- &#45;3&#45;&gt;3 -->
<g id="edge12" class="edge"><title>&#45;3&#45;&gt;3</title>
<path fill="none" stroke="green" stroke-width="0.281487" stroke-dasharray="1,5" d="M863.597,-77.8746C868.174,-68.1564 876.064,-51.4054 882.491,-37.7594"/>
<polygon fill="green" stroke="green" stroke-width="0.281487" points="885.75,-39.0549 886.845,-28.5167 879.417,-36.0721 885.75,-39.0549"/>
</g>
<!-- &#45;4 -->
<g id="node4" class="node"><title>&#45;4</title>
<polygon fill="lightgray" stroke="black" points="913.811,-95.9117 889.811,-95.9117 889.811,-77.9117 913.811,-77.9117 913.811,-95.9117"/>
<text text-anchor="middle" x="901.811" y="-84.7117" font-family="Times New Roman,serif" font-size="9.00">&#45;4</text>
</g>
<!-- &#45;4&#45;&gt;0 -->
<g id="edge13" class="edge"><title>&#45;4&#45;&gt;0</title>
<path fill="none" stroke="red" stroke-width="0.255614" d="M906.285,-77.8746C911.78,-68.0036 921.313,-50.8771 928.972,-37.1182"/>
<polygon fill="red" stroke="red" stroke-width="0.255614" points="932.096,-38.7014 933.902,-28.2615 925.98,-35.2967 932.096,-38.7014"/>
</g>
<!-- &#45;4&#45;&gt;1 -->
<g id="edge14" class="edge"><title>&#45;4&#45;&gt;1</title>
<path fill="none" stroke="green" stroke-width="0.260353" d="M908.975,-77.648C912.777,-73.64 917.71,-68.9927 922.811,-65.6985 959.002,-42.327 974.055,-48.5126 1012.81,-29.6985 1013.64,-29.2941 1014.49,-28.8722 1015.34,-28.4377"/>
<polygon fill="green" stroke="green" stroke-width="0.260353" points="1017.21,-31.4038 1024.29,-23.5255 1013.84,-25.2666 1017.21,-31.4038"/>
</g>
<!-- &#45;4&#45;&gt;2 -->
<g id="edge15" class="edge"><title>&#45;4&#45;&gt;2</title>
<path fill="none" stroke="red" stroke-width="0.325486" d="M909.778,-77.8074C913.616,-74.0171 918.347,-69.5095 922.811,-65.6985 937.541,-53.1244 955.07,-39.9628 968.36,-30.323"/>
<polygon fill="red" stroke="red" stroke-width="0.325486" points="970.717,-32.9392 976.797,-24.2624 966.633,-27.254 970.717,-32.9392"/>
</g>
<!-- &#45;4&#45;&gt;3 -->
<g id="edge16" class="edge"><title>&#45;4&#45;&gt;3</title>
<path fill="none" stroke="red" stroke-width="0.366951" d="M900.779,-77.8746C899.591,-68.6287 897.586,-53.017 895.884,-39.7699"/>
<polygon fill="red" stroke="red" stroke-width="0.366951" points="899.351,-39.2922 894.606,-29.8197 892.409,-40.1841 899.351,-39.2922"/>
</g>
<!-- &#45;5 -->
<g id="node5" class="node"><title>&#45;5</title>
<polygon fill="lightgray" stroke="black" points="955.811,-95.9117 931.811,-95.9117 931.811,-77.9117 955.811,-77.9117 955.811,-95.9117"/>
<text text-anchor="middle" x="943.811" y="-84.7117" font-family="Times New Roman,serif" font-size="9.00">&#45;5</text>
</g>
<!-- &#45;5&#45;&gt;0 -->
<g id="edge17" class="edge"><title>&#45;5&#45;&gt;0</title>
<path fill="none" stroke="red" stroke-width="0.492333" stroke-dasharray="1,5" d="M943.467,-77.8746C943.075,-68.7202 942.416,-53.3256 941.852,-40.1641"/>
<polygon fill="red" stroke="red" stroke-width="0.492333" points="945.334,-39.6608 941.409,-29.8197 938.341,-39.9603 945.334,-39.6608"/>
</g>
<!-- &#45;5&#45;&gt;1 -->
<g id="edge18" class="edge"><title>&#45;5&#45;&gt;1</title>
<path fill="none" stroke="red" stroke-width="0.111751" d="M951.708,-77.7239C955.531,-73.9153 960.269,-69.4165 964.811,-65.6985 981.374,-52.1413 1001.49,-38.4197 1016.25,-28.8144"/>
<polygon fill="red" stroke="red" stroke-width="0.111751" points="1018.15,-31.7562 1024.67,-23.404 1014.36,-25.8682 1018.15,-31.7562"/>
</g>
<!-- &#45;5&#45;&gt;2 -->
<g id="edge19" class="edge"><title>&#45;5&#45;&gt;2</title>
<path fill="none" stroke="green" stroke-width="0.414769" d="M948.973,-77.8746C955.45,-67.7908 966.79,-50.1351 975.719,-36.233"/>
<polygon fill="green" stroke="green" stroke-width="0.414769" points="978.704,-38.0622 981.163,-27.7567 972.814,-34.2792 978.704,-38.0622"/>
</g>
<!-- &#45;5&#45;&gt;3 -->
<g id="edge20" class="edge"><title>&#45;5&#45;&gt;3</title>
<path fill="none" stroke="green" stroke-width="0.430291" d="M937.961,-77.8746C930.507,-67.6352 917.371,-49.5885 907.183,-35.5923"/>
<polygon fill="green" stroke="green" stroke-width="0.430291" points="910.012,-33.5322 901.297,-27.5071 904.353,-37.6518 910.012,-33.5322"/>
</g>
<!-- &#45;6 -->
<g id="node6" class="node"><title>&#45;6</title>
<polygon fill="lightgray" stroke="black" points="1834.81,-95.9117 1810.81,-95.9117 1810.81,-77.9117 1834.81,-77.9117 1834.81,-95.9117"/>
<text text-anchor="middle" x="1822.81" y="-84.7117" font-family="Times New Roman,serif" font-size="9.00">&#45;6</text>
</g>
<!-- &#45;6&#45;&gt;0 -->
<g id="edge21" class="edge"><title>&#45;6&#45;&gt;0</title>
<path fill="none" stroke="red" stroke-width="0.605328" d="M1816.78,-77.7176C1813.02,-73.3018 1807.77,-68.2485 1801.81,-65.6985 1630.67,7.59634 1143.57,-81.7168 964.811,-29.6985 963.749,-29.3893 962.684,-29.0239 961.625,-28.6149"/>
<polygon fill="red" stroke="red" stroke-width="0.605328" points="963.022,-25.4013 952.508,-24.0956 959.913,-31.673 963.022,-25.4013"/>
</g>
<!-- &#45;6&#45;&gt;1 -->
<g id="edge22" class="edge"><title>&#45;6&#45;&gt;1</title>
<path fill="none" stroke="green" stroke-width="0.236177" d="M1816.76,-77.7668C1812.99,-73.3674 1807.74,-68.3141 1801.81,-65.6985 1732.82,-35.2433 1186.3,-19.64 1061.94,-16.4634"/>
<polygon fill="green" stroke="green" stroke-width="0.236177" points="1061.94,-12.9625 1051.85,-16.2097 1061.76,-19.9603 1061.94,-12.9625"/>
</g>
<!-- &#45;6&#45;&gt;2 -->
<g id="edge23" class="edge"><title>&#45;6&#45;&gt;2</title>
<path fill="none" stroke="green" stroke-width="0.165993" d="M1816.77,-77.7234C1813.01,-73.3096 1807.76,-68.2563 1801.81,-65.6985 1640.56,3.61166 1181.27,-78.9593 1012.81,-29.6985 1011.75,-29.3879 1010.68,-29.0214 1009.63,-28.6115"/>
<polygon fill="green" stroke="green" stroke-width="0.165993" points="1011.02,-25.3981 1000.51,-24.0888 1007.91,-31.6687 1011.02,-25.3981"/>
</g>
<!-- &#45;7 -->
<g id="node7" class="node"><title>&#45;7</title>
<polygon fill="lightgray" stroke="black" points="997.811,-95.9117 973.811,-95.9117 973.811,-77.9117 997.811,-77.9117 997.811,-95.9117"/>
<text text-anchor="middle" x="985.811" y="-84.7117" font-family="Times New Roman,serif" font-size="9.00">&#45;7</text>
</g>
<!-- &#45;7&#45;&gt;0 -->
<g id="edge24" class="edge"><title>&#45;7&#45;&gt;0</title>
<path fill="none" stroke="red" stroke-width="0.264401" d="M980.649,-77.8746C974.172,-67.7908 962.832,-50.1351 953.903,-36.233"/>
<polygon fill="red" stroke="red" stroke-width="0.264401" points="956.808,-34.2792 948.459,-27.7567 950.918,-38.0622 956.808,-34.2792"/>
</g>
<!-- &#45;7&#45;&gt;1 -->
<g id="edge25" class="edge"><title>&#45;7&#45;&gt;1</title>
<path fill="none" stroke="red" stroke-width="0.562599" d="M991.662,-77.8746C999.115,-67.6352 1012.25,-49.5885 1022.44,-35.5923"/>
<polygon fill="red" stroke="red" stroke-width="0.562599" points="1025.27,-37.6518 1028.33,-27.5071 1019.61,-33.5322 1025.27,-37.6518"/>
</g>
<!-- &#45;7&#45;&gt;2 -->
<g id="edge26" class="edge"><title>&#45;7&#45;&gt;2</title>
<path fill="none" stroke="green" stroke-width="0.199417" d="M986.155,-77.8746C986.547,-68.7202 987.207,-53.3256 987.77,-40.1641"/>
<polygon fill="green" stroke="green" stroke-width="0.199417" points="991.282,-39.9603 988.213,-29.8197 984.288,-39.6608 991.282,-39.9603"/>
</g>
<!-- &#45;7&#45;&gt;3 -->
<g id="edge27" class="edge"><title>&#45;7&#45;&gt;3</title>
<path fill="none" stroke="green" stroke-width="0.258056" d="M977.914,-77.7239C974.091,-73.9153 969.354,-69.4165 964.811,-65.6985 948.248,-52.1413 928.128,-38.4197 913.372,-28.8144"/>
<polygon fill="green" stroke="green" stroke-width="0.258056" points="915.261,-25.8682 904.957,-23.404 911.476,-31.7562 915.261,-25.8682"/>
</g>
<!-- &#45;8 -->
<g id="node8" class="node"><title>&#45;8</title>
<polygon fill="lightgray" stroke="black" points="1039.81,-95.9117 1015.81,-95.9117 1015.81,-77.9117 1039.81,-77.9117 1039.81,-95.9117"/>
<text text-anchor="middle" x="1027.81" y="-84.7117" font-family="Times New Roman,serif" font-size="9.00">&#45;8</text>
</g>
<!-- &#45;8&#45;&gt;0 -->
<g id="edge28" class="edge"><title>&#45;8&#45;&gt;0</title>
<path fill="none" stroke="red" stroke-width="0.42283" d="M1019.84,-77.8074C1016.01,-74.0171 1011.28,-69.5095 1006.81,-65.6985 992.081,-53.1244 974.552,-39.9628 961.262,-30.323"/>
<polygon fill="red" stroke="red" stroke-width="0.42283" points="962.989,-27.254 952.825,-24.2624 958.905,-32.9392 962.989,-27.254"/>
</g>
<!-- &#45;8&#45;&gt;1 -->
<g id="edge29" class="edge"><title>&#45;8&#45;&gt;1</title>
<path fill="none" stroke="green" stroke-width="0.259522" d="M1028.84,-77.8746C1030.03,-68.6287 1032.04,-53.017 1033.74,-39.7699"/>
<polygon fill="green" stroke="green" stroke-width="0.259522" points="1037.21,-40.1841 1035.02,-29.8197 1030.27,-39.2922 1037.21,-40.1841"/>
</g>
<!-- &#45;8&#45;&gt;2 -->
<g id="edge30" class="edge"><title>&#45;8&#45;&gt;2</title>
<path fill="none" stroke="green" stroke-width="0.229111" stroke-dasharray="1,5" d="M1023.34,-77.8746C1017.84,-68.0036 1008.31,-50.8771 1000.65,-37.1182"/>
<polygon fill="green" stroke="green" stroke-width="0.229111" points="1003.64,-35.2967 995.72,-28.2615 997.526,-38.7014 1003.64,-35.2967"/>
</g>
<!-- &#45;8&#45;&gt;3 -->
<g id="edge31" class="edge"><title>&#45;8&#45;&gt;3</title>
<path fill="none" stroke="green" stroke-width="0.264599" d="M1020.65,-77.648C1016.85,-73.64 1011.91,-68.9927 1006.81,-65.6985 970.62,-42.327 955.567,-48.5126 916.811,-29.6985 915.978,-29.2941 915.135,-28.8722 914.287,-28.4377"/>
<polygon fill="green" stroke="green" stroke-width="0.264599" points="915.784,-25.2666 905.333,-23.5255 912.417,-31.4038 915.784,-25.2666"/>
</g>
<!-- &#45;9 -->
<g id="node9" class="node"><title>&#45;9</title>
<polygon fill="lightgray" stroke="black" points="1874.81,-162.125 1850.81,-162.125 1850.81,-144.125 1874.81,-144.125 1874.81,-162.125"/>
<text text-anchor="middle" x="1862.81" y="-150.925" font-family="Times New Roman,serif" font-size="9.00">&#45;9</text>
</g>
<!-- &#45;9&#45;&gt;0 -->
<g id="edge32" class="edge"><title>&#45;9&#45;&gt;0</title>
<path fill="none" stroke="red" stroke-width="0.225616" stroke-dasharray="1,5" d="M1850.34,-152.057C1694.43,-151.178 128.387,-141.522 95.8112,-108.125 82.6449,-94.6266 82.7732,-79.3207 95.8112,-65.6985 158.947,0.266405 829.149,-55.248 916.811,-29.6985 917.873,-29.3889 918.939,-29.0231 919.997,-28.6138"/>
<polygon fill="red" stroke="red" stroke-width="0.225616" points="921.709,-31.6716 929.114,-24.0935 918.6,-25.4003 921.709,-31.6716"/>
</g>
<!-- &#45;9&#45;&gt;1 -->
<g id="edge33" class="edge"><title>&#45;9&#45;&gt;1</title>
<path fill="none" stroke="red" stroke-width="0.580253" stroke-dasharray="1,5" d="M1874.87,-149.474C1893.14,-144.735 1927.26,-132.894 1941.81,-108.125 1951.36,-91.8682 1954.77,-79.3936 1941.81,-65.6985 1910.71,-32.84 1204.94,-18.7856 1061.94,-16.2704"/>
<polygon fill="red" stroke="red" stroke-width="0.580253" points="1061.99,-12.7708 1051.93,-16.0971 1061.87,-19.7698 1061.99,-12.7708"/>
</g>
<!-- &#45;9&#45;&gt;2 -->
<g id="edge34" class="edge"><title>&#45;9&#45;&gt;2</title>
<path fill="none" stroke="red" stroke-width="0.203018" d="M1863.89,-144.104C1865.72,-126.681 1867.22,-85.3666 1843.81,-65.6985 1773.06,-6.24152 1101.55,-55.5353 1012.81,-29.6985 1011.75,-29.3892 1010.68,-29.0236 1009.62,-28.6145"/>
<polygon fill="red" stroke="red" stroke-width="0.203018" points="1011.02,-25.401 1000.51,-24.0948 1007.91,-31.6725 1011.02,-25.401"/>
</g>
<!-- &#45;9&#45;&gt;3 -->
<g id="edge35" class="edge"><title>&#45;9&#45;&gt;3</title>
<path fill="none" stroke="red" stroke-width="0.20259" d="M1850.72,-152.073C1692.99,-151.371 44.0618,-143.198 9.81122,-108.125 -3.36291,-94.6342 -3.1409,-79.4024 9.81122,-65.6985 40.0715,-33.6817 725.931,-19.0036 867.42,-16.3109"/>
<polygon fill="red" stroke="red" stroke-width="0.20259" points="867.761,-19.8052 877.694,-16.1184 867.63,-12.8064 867.761,-19.8052"/>
</g>
<!-- 431 -->
<g id="node45" class="node"><title>431</title>
<ellipse fill="white" stroke="black" cx="1911.81" cy="-86.9117" rx="21.4286" ry="21.4286"/>
<text text-anchor="middle" x="1911.81" y="-84.7117" font-family="Times New Roman,serif" font-size="9.00">431</text>
</g>
<!-- &#45;9&#45;&gt;431 -->
<g id="edge156" class="edge"><title>&#45;9&#45;&gt;431</title>
<path fill="none" stroke="green" stroke-width="0.3" d="M1869.02,-143.992C1875.05,-136.086 1884.52,-123.673 1893.02,-112.533"/>
<polygon fill="green" stroke="green" stroke-width="0.3" points="1895.98,-114.431 1899.26,-104.358 1890.41,-110.185 1895.98,-114.431"/>
</g>
<!-- &#45;10 -->
<g id="node10" class="node"><title>&#45;10</title>
<polygon fill="lightgray" stroke="black" points="1087.31,-95.9117 1058.31,-95.9117 1058.31,-77.9117 1087.31,-77.9117 1087.31,-95.9117"/>
<text text-anchor="middle" x="1072.81" y="-84.7117" font-family="Times New Roman,serif" font-size="9.00">&#45;10</text>
</g>
<!-- &#45;10&#45;&gt;0 -->
<g id="edge36" class="edge"><title>&#45;10&#45;&gt;0</title>
<path fill="none" stroke="green" stroke-width="0.289665" d="M1064.4,-77.7632C1060,-73.7846 1054.38,-69.1288 1048.81,-65.6985 1014.24,-44.3844 1001.13,-47.8808 964.811,-29.6985 963.983,-29.2839 963.144,-28.8534 962.3,-28.4117"/>
<polygon fill="green" stroke="green" stroke-width="0.289665" points="963.807,-25.2454 953.362,-23.4657 960.417,-31.3701 963.807,-25.2454"/>
</g>
<!-- &#45;10&#45;&gt;1 -->
<g id="edge37" class="edge"><title>&#45;10&#45;&gt;1</title>
<path fill="none" stroke="green" stroke-width="0.137379" d="M1068.68,-77.8746C1063.66,-68.0985 1054.98,-51.2057 1047.94,-37.5161"/>
<polygon fill="green" stroke="green" stroke-width="0.137379" points="1050.87,-35.5565 1043.19,-28.2615 1044.65,-38.7557 1050.87,-35.5565"/>
</g>
<!-- &#45;10&#45;&gt;2 -->
<g id="edge38" class="edge"><title>&#45;10&#45;&gt;2</title>
<path fill="none" stroke="red" stroke-width="0.606091" d="M1063.02,-77.6359C1058.67,-73.9714 1053.49,-69.6132 1048.81,-65.6985 1035.1,-54.2314 1019.58,-41.3398 1007.76,-31.5397"/>
<polygon fill="red" stroke="red" stroke-width="0.606091" points="1009.82,-28.7001 999.888,-25.0147 1005.36,-34.0902 1009.82,-28.7001"/>
</g>
<!-- &#45;10&#45;&gt;3 -->
<g id="edge39" class="edge"><title>&#45;10&#45;&gt;3</title>
<path fill="none" stroke="red" stroke-width="0.178155" d="M1065.02,-77.8343C1060.61,-73.6768 1054.79,-68.8364 1048.81,-65.6985 994.961,-37.4506 972.942,-53.088 916.811,-29.6985 915.956,-29.3423 915.094,-28.9614 914.231,-28.5614"/>
<polygon fill="red" stroke="red" stroke-width="0.178155" points="915.684,-25.3707 905.204,-23.8104 912.423,-31.5652 915.684,-25.3707"/>
</g>
<!-- &#45;11 -->
<g id="node11" class="node"><title>&#45;11</title>
<polygon fill="lightgray" stroke="black" points="1134.31,-95.9117 1105.31,-95.9117 1105.31,-77.9117 1134.31,-77.9117 1134.31,-95.9117"/>
<text text-anchor="middle" x="1119.81" y="-84.7117" font-family="Times New Roman,serif" font-size="9.00">&#45;11</text>
</g>
<!-- &#45;11&#45;&gt;0 -->
<g id="edge40" class="edge"><title>&#45;11&#45;&gt;0</title>
<path fill="none" stroke="green" stroke-width="0.13203" d="M1112.4,-77.8227C1108.19,-73.6618 1102.62,-68.8218 1096.81,-65.6985 1043.26,-36.8857 1020.94,-53.088 964.811,-29.6985 963.956,-29.3423 963.094,-28.9614 962.231,-28.5614"/>
<polygon fill="green" stroke="green" stroke-width="0.13203" points="963.684,-25.3707 953.204,-23.8104 960.423,-31.5652 963.684,-25.3707"/>
</g>
<!-- &#45;11&#45;&gt;1 -->
<g id="edge41" class="edge"><title>&#45;11&#45;&gt;1</title>
<path fill="none" stroke="green" stroke-width="0.225435" d="M1110.46,-77.5915C1106.31,-73.9188 1101.34,-69.5664 1096.81,-65.6985 1083.22,-54.0878 1067.7,-41.2007 1055.85,-31.4386"/>
<polygon fill="green" stroke="green" stroke-width="0.225435" points="1057.89,-28.5903 1047.95,-24.9456 1053.45,-33.9986 1057.89,-28.5903"/>
</g>
<!-- &#45;11&#45;&gt;2 -->
<g id="edge42" class="edge"><title>&#45;11&#45;&gt;2</title>
<path fill="none" stroke="red" stroke-width="0.112501" stroke-dasharray="1,5" d="M1111.8,-77.7413C1107.6,-73.757 1102.21,-69.1029 1096.81,-65.6985 1062.46,-44.0218 1049.13,-47.8808 1012.81,-29.6985 1011.98,-29.2839 1011.14,-28.8534 1010.3,-28.4117"/>
<polygon fill="red" stroke="red" stroke-width="0.112501" points="1011.81,-25.2454 1001.36,-23.4657 1008.42,-31.3701 1011.81,-25.2454"/>
</g>
<!-- &#45;11&#45;&gt;3 -->
<g id="edge43" class="edge"><title>&#45;11&#45;&gt;3</title>
<path fill="none" stroke="green" stroke-width="0.439313" d="M1112.49,-77.6618C1108.3,-73.4538 1102.72,-68.6201 1096.81,-65.6985 1023.68,-29.538 993.155,-58.4679 916.811,-29.6985 915.945,-29.3719 915.073,-29.0162 914.201,-28.6375"/>
<polygon fill="green" stroke="green" stroke-width="0.439313" points="915.63,-25.4368 905.135,-23.9854 912.434,-31.6648 915.63,-25.4368"/>
</g>
<!-- &#45;12 -->
<g id="node12" class="node"><title>&#45;12</title>
<polygon fill="lightgray" stroke="black" points="1181.31,-95.9117 1152.31,-95.9117 1152.31,-77.9117 1181.31,-77.9117 1181.31,-95.9117"/>
<text text-anchor="middle" x="1166.81" y="-84.7117" font-family="Times New Roman,serif" font-size="9.00">&#45;12</text>
</g>
<!-- &#45;12&#45;&gt;0 -->
<g id="edge44" class="edge"><title>&#45;12&#45;&gt;0</title>
<path fill="none" stroke="green" stroke-width="0.180688" d="M1159.48,-77.6644C1155.3,-73.4571 1149.72,-68.6233 1143.81,-65.6985 1071.09,-29.6921 1040.73,-58.3551 964.811,-29.6985 963.945,-29.3715 963.073,-29.0153 962.202,-28.6363"/>
<polygon fill="green" stroke="green" stroke-width="0.180688" points="963.631,-25.4358 953.136,-23.9826 960.434,-31.6632 963.631,-25.4358"/>
</g>
<!-- &#45;12&#45;&gt;1 -->
<g id="edge45" class="edge"><title>&#45;12&#45;&gt;1</title>
<path fill="none" stroke="green" stroke-width="0.556404" d="M1158.76,-77.8119C1154.54,-73.8457 1149.15,-69.1863 1143.81,-65.6985 1116.73,-48.0139 1082.37,-33.1876 1060,-24.4171"/>
<polygon fill="green" stroke="green" stroke-width="0.556404" points="1061.23,-21.1385 1050.64,-20.825 1058.72,-27.6742 1061.23,-21.1385"/>
</g>
<!-- &#45;12&#45;&gt;2 -->
<g id="edge46" class="edge"><title>&#45;12&#45;&gt;2</title>
<path fill="none" stroke="red" stroke-width="0.159292" d="M1159.4,-77.8272C1155.19,-73.6676 1149.61,-68.8274 1143.81,-65.6985 1090.67,-37.0374 1068.52,-52.977 1012.81,-29.6985 1011.96,-29.3415 1011.1,-28.9598 1010.23,-28.5593"/>
<polygon fill="red" stroke="red" stroke-width="0.159292" points="1011.69,-25.3689 1001.21,-23.8055 1008.42,-31.5624 1011.69,-25.3689"/>
</g>
<!-- &#45;12&#45;&gt;3 -->
<g id="edge47" class="edge"><title>&#45;12&#45;&gt;3</title>
<path fill="none" stroke="red" stroke-width="0.262636" d="M1159.53,-77.5668C1155.36,-73.331 1149.78,-68.501 1143.81,-65.6985 1051.35,-22.2685 1013.1,-63.7957 916.811,-29.6985 915.938,-29.3894 915.061,-29.0484 914.185,-28.6822"/>
<polygon fill="red" stroke="red" stroke-width="0.262636" points="915.601,-25.4764 905.097,-24.0884 912.443,-31.7235 915.601,-25.4764"/>
</g>
<!-- &#45;13 -->
<g id="node13" class="node"><title>&#45;13</title>
<polygon fill="lightgray" stroke="black" points="1228.31,-95.9117 1199.31,-95.9117 1199.31,-77.9117 1228.31,-77.9117 1228.31,-95.9117"/>
<text text-anchor="middle" x="1213.81" y="-84.7117" font-family="Times New Roman,serif" font-size="9.00">&#45;13</text>
</g>
<!-- &#45;13&#45;&gt;0 -->
<g id="edge48" class="edge"><title>&#45;13&#45;&gt;0</title>
<path fill="none" stroke="red" stroke-width="0.528274" d="M1206.53,-77.5685C1202.36,-73.3331 1196.78,-68.5031 1190.81,-65.6985 1098.77,-22.4236 1060.68,-63.6819 964.811,-29.6985 963.938,-29.3891 963.061,-29.0479 962.185,-28.6815"/>
<polygon fill="red" stroke="red" stroke-width="0.528274" points="963.601,-25.4757 953.098,-24.0867 960.443,-31.7225 963.601,-25.4757"/>
</g>
<!-- &#45;13&#45;&gt;1 -->
<g id="edge49" class="edge"><title>&#45;13&#45;&gt;1</title>
<path fill="none" stroke="green" stroke-width="0.372733" d="M1205.93,-77.5286C1201.76,-73.4901 1196.36,-68.8517 1190.81,-65.6985 1148.64,-41.717 1093.31,-27.4097 1061.75,-20.6351"/>
<polygon fill="green" stroke="green" stroke-width="0.372733" points="1062.14,-17.1418 1051.63,-18.5494 1060.72,-23.9975 1062.14,-17.1418"/>
</g>
<!-- &#45;13&#45;&gt;2 -->
<g id="edge50" class="edge"><title>&#45;13&#45;&gt;2</title>
<path fill="none" stroke="green" stroke-width="0.132362" d="M1206.48,-77.6669C1202.3,-73.4604 1196.72,-68.6265 1190.81,-65.6985 1118.5,-29.8462 1088.31,-58.2422 1012.81,-29.6985 1011.95,-29.371 1011.07,-29.0144 1010.2,-28.6351"/>
<polygon fill="green" stroke="green" stroke-width="0.132362" points="1011.63,-25.4347 1001.14,-23.9799 1008.43,-31.6616 1011.63,-25.4347"/>
</g>
<!-- &#45;13&#45;&gt;3 -->
<g id="edge51" class="edge"><title>&#45;13&#45;&gt;3</title>
<path fill="none" stroke="red" stroke-width="0.17496" d="M1206.56,-77.5032C1202.4,-73.2488 1196.81,-68.4213 1190.81,-65.6985 1078.95,-14.9639 1033.13,-69.1509 916.811,-29.6985 915.934,-29.401 915.053,-29.07 914.174,-28.7121"/>
<polygon fill="red" stroke="red" stroke-width="0.17496" points="915.583,-25.503 905.073,-24.1573 912.45,-31.7628 915.583,-25.503"/>
</g>
<!-- &#45;14 -->
<g id="node14" class="node"><title>&#45;14</title>
<polygon fill="lightgray" stroke="black" points="1275.31,-95.9117 1246.31,-95.9117 1246.31,-77.9117 1275.31,-77.9117 1275.31,-95.9117"/>
<text text-anchor="middle" x="1260.81" y="-84.7117" font-family="Times New Roman,serif" font-size="9.00">&#45;14</text>
</g>
<!-- &#45;14&#45;&gt;0 -->
<g id="edge52" class="edge"><title>&#45;14&#45;&gt;0</title>
<path fill="none" stroke="green" stroke-width="0.238006" d="M1253.56,-77.5044C1249.4,-73.2503 1243.81,-68.4227 1237.81,-65.6985 1126.37,-15.1196 1080.7,-69.0368 964.811,-29.6985 963.934,-29.4008 963.054,-29.0696 962.175,-28.7116"/>
<polygon fill="green" stroke="green" stroke-width="0.238006" points="963.583,-25.5026 953.074,-24.156 960.449,-31.7621 963.583,-25.5026"/>
</g>
<!-- &#45;14&#45;&gt;1 -->
<g id="edge53" class="edge"><title>&#45;14&#45;&gt;1</title>
<path fill="none" stroke="green" stroke-width="0.250253" d="M1253.43,-77.7689C1249.23,-73.5923 1243.65,-68.7544 1237.81,-65.6985 1179.14,-34.9994 1100.85,-22.6707 1061.54,-18.1694"/>
<polygon fill="green" stroke="green" stroke-width="0.250253" points="1061.85,-14.6828 1051.53,-17.0986 1061.1,-21.6431 1061.85,-14.6828"/>
</g>
<!-- &#45;14&#45;&gt;2 -->
<g id="edge54" class="edge"><title>&#45;14&#45;&gt;2</title>
<path fill="none" stroke="green" stroke-width="0.311245" d="M1253.53,-77.5701C1249.36,-73.3353 1243.78,-68.5051 1237.81,-65.6985 1146.18,-22.5787 1108.25,-63.5683 1012.81,-29.6985 1011.94,-29.3888 1011.06,-29.0473 1010.19,-28.6807"/>
<polygon fill="green" stroke="green" stroke-width="0.311245" points="1011.6,-25.475 1001.1,-24.0849 1008.44,-31.7215 1011.6,-25.475"/>
</g>
<!-- &#45;14&#45;&gt;3 -->
<g id="edge55" class="edge"><title>&#45;14&#45;&gt;3</title>
<path fill="none" stroke="red" stroke-width="0.195918" d="M1253.98,-77.8689C1249.78,-73.5036 1244.03,-68.4503 1237.81,-65.6985 1106.51,-7.64007 1053.2,-74.5211 916.811,-29.6985 915.931,-29.4094 915.048,-29.0854 914.167,-28.7335"/>
<polygon fill="red" stroke="red" stroke-width="0.195918" points="915.57,-25.5222 905.057,-24.2064 912.455,-31.7909 915.57,-25.5222"/>
</g>
<!-- &#45;15 -->
<g id="node15" class="node"><title>&#45;15</title>
<polygon fill="lightgray" stroke="black" points="134.311,-95.9117 105.311,-95.9117 105.311,-77.9117 134.311,-77.9117 134.311,-95.9117"/>
<text text-anchor="middle" x="119.811" y="-84.7117" font-family="Times New Roman,serif" font-size="9.00">&#45;15</text>
</g>
<!-- &#45;15&#45;&gt;2 -->
<g id="edge56" class="edge"><title>&#45;15&#45;&gt;2</title>
<path fill="none" stroke="red" stroke-width="0.511417" d="M126.576,-77.7093C130.748,-73.2907 136.498,-68.2374 142.811,-65.6985 312.448,2.52567 789.272,-80.8551 964.811,-29.6985 965.873,-29.3889 966.939,-29.0232 967.997,-28.6139"/>
<polygon fill="red" stroke="red" stroke-width="0.511417" points="969.709,-31.6717 977.114,-24.0936 966.6,-25.4004 969.709,-31.6717"/>
</g>
<!-- &#45;15&#45;&gt;3 -->
<g id="edge57" class="edge"><title>&#45;15&#45;&gt;3</title>
<path fill="none" stroke="green" stroke-width="0.385889" d="M126.598,-77.7627C130.777,-73.3619 136.527,-68.3086 142.811,-65.6985 210.958,-37.3926 744.178,-20.1907 867.441,-16.5682"/>
<polygon fill="green" stroke="green" stroke-width="0.385889" points="867.866,-20.0575 877.76,-16.2687 867.662,-13.0604 867.866,-20.0575"/>
</g>
<!-- &#45;16 -->
<g id="node16" class="node"><title>&#45;16</title>
<polygon fill="lightgray" stroke="black" points="1322.31,-95.9117 1293.31,-95.9117 1293.31,-77.9117 1322.31,-77.9117 1322.31,-95.9117"/>
<text text-anchor="middle" x="1307.81" y="-84.7117" font-family="Times New Roman,serif" font-size="9.00">&#45;16</text>
</g>
<!-- &#45;16&#45;&gt;0 -->
<g id="edge58" class="edge"><title>&#45;16&#45;&gt;0</title>
<path fill="none" stroke="red" stroke-width="0.233721" d="M1300.98,-77.8698C1296.78,-73.5047 1291.03,-68.4514 1284.81,-65.6985 1153.93,-7.79604 1100.77,-74.4067 964.811,-29.6985 963.932,-29.4092 963.048,-29.0851 962.167,-28.7331"/>
<polygon fill="red" stroke="red" stroke-width="0.233721" points="963.57,-25.5219 953.057,-24.2055 960.455,-31.7904 963.57,-25.5219"/>
</g>
<!-- &#45;16&#45;&gt;1 -->
<g id="edge59" class="edge"><title>&#45;16&#45;&gt;1</title>
<path fill="none" stroke="green" stroke-width="0.518266" d="M1300.48,-77.6641C1296.3,-73.4568 1290.72,-68.623 1284.81,-65.6985 1209.39,-28.3597 1107.91,-18.9889 1061.65,-16.6372"/>
<polygon fill="green" stroke="green" stroke-width="0.518266" points="1061.78,-13.1394 1051.64,-16.1961 1061.47,-20.1327 1061.78,-13.1394"/>
</g>
<!-- &#45;16&#45;&gt;2 -->
<g id="edge60" class="edge"><title>&#45;16&#45;&gt;2</title>
<path fill="none" stroke="red" stroke-width="0.434608" d="M1300.56,-77.5055C1296.4,-73.2518 1290.81,-68.4242 1284.81,-65.6985 1173.78,-15.2752 1128.27,-68.9226 1012.81,-29.6985 1011.93,-29.4006 1011.05,-29.0692 1010.17,-28.7111"/>
<polygon fill="red" stroke="red" stroke-width="0.434608" points="1011.58,-25.5021 1001.07,-24.1548 1008.45,-31.7614 1011.58,-25.5021"/>
</g>
<!-- &#45;16&#45;&gt;3 -->
<g id="edge61" class="edge"><title>&#45;16&#45;&gt;3</title>
<path fill="none" stroke="red" stroke-width="0.531273" d="M1300.99,-77.8358C1296.8,-73.4594 1291.05,-68.4061 1284.81,-65.6985 1134.05,-0.304527 1073.29,-79.9004 916.811,-29.6985 915.758,-29.3605 914.7,-28.9714 913.647,-28.5432"/>
<polygon fill="red" stroke="red" stroke-width="0.531273" points="915.056,-25.3342 904.552,-23.9536 911.902,-31.5835 915.056,-25.3342"/>
</g>
<!-- &#45;17 -->
<g id="node17" class="node"><title>&#45;17</title>
<polygon fill="lightgray" stroke="black" points="1369.31,-95.9117 1340.31,-95.9117 1340.31,-77.9117 1369.31,-77.9117 1369.31,-95.9117"/>
<text text-anchor="middle" x="1354.81" y="-84.7117" font-family="Times New Roman,serif" font-size="9.00">&#45;17</text>
</g>
<!-- &#45;17&#45;&gt;0 -->
<g id="edge62" class="edge"><title>&#45;17&#45;&gt;0</title>
<path fill="none" stroke="green" stroke-width="0.228352" d="M1347.99,-77.8365C1343.8,-73.4603 1338.05,-68.407 1331.81,-65.6985 1181.46,-0.460693 1120.86,-79.7859 964.811,-29.6985 963.758,-29.3603 962.7,-28.9712 961.647,-28.5429"/>
<polygon fill="green" stroke="green" stroke-width="0.228352" points="963.056,-25.3339 952.552,-23.9529 959.902,-31.5831 963.056,-25.3339"/>
</g>
<!-- &#45;17&#45;&gt;1 -->
<g id="edge63" class="edge"><title>&#45;17&#45;&gt;1</title>
<path fill="none" stroke="green" stroke-width="0.170972" d="M1347.52,-77.5909C1343.35,-73.3621 1337.76,-68.5312 1331.81,-65.6985 1239.42,-21.7288 1114.55,-15.911 1061.88,-15.5653"/>
<polygon fill="green" stroke="green" stroke-width="0.170972" points="1061.78,-12.0654 1051.78,-15.5628 1061.78,-19.0654 1061.78,-12.0654"/>
</g>
<!-- &#45;17&#45;&gt;2 -->
<g id="edge64" class="edge"><title>&#45;17&#45;&gt;2</title>
<path fill="none" stroke="red" stroke-width="0.188948" d="M1347.98,-77.8706C1343.78,-73.5058 1338.03,-68.4525 1331.81,-65.6985 1201.34,-7.952 1148.34,-74.2924 1012.81,-29.6985 1011.93,-29.409 1011.05,-29.0848 1010.17,-28.7327"/>
<polygon fill="red" stroke="red" stroke-width="0.188948" points="1011.57,-25.5215 1001.06,-24.2046 1008.45,-31.7899 1011.57,-25.5215"/>
</g>
<!-- &#45;17&#45;&gt;3 -->
<g id="edge65" class="edge"><title>&#45;17&#45;&gt;3</title>
<path fill="none" stroke="red" stroke-width="0.277433" d="M1348,-77.8101C1343.82,-73.4251 1338.07,-68.3718 1331.81,-65.6985 1161.56,7.03866 1093.41,-85.2855 916.811,-29.6985 915.756,-29.3663 914.696,-28.982 913.642,-28.5576"/>
<polygon fill="red" stroke="red" stroke-width="0.277433" points="915.049,-25.3476 904.543,-23.9821 911.904,-31.6015 915.049,-25.3476"/>
</g>
<!-- &#45;18 -->
<g id="node18" class="node"><title>&#45;18</title>
<polygon fill="lightgray" stroke="black" points="1416.31,-95.9117 1387.31,-95.9117 1387.31,-77.9117 1416.31,-77.9117 1416.31,-95.9117"/>
<text text-anchor="middle" x="1401.81" y="-84.7117" font-family="Times New Roman,serif" font-size="9.00">&#45;18</text>
</g>
<!-- &#45;18&#45;&gt;0 -->
<g id="edge66" class="edge"><title>&#45;18&#45;&gt;0</title>
<path fill="none" stroke="green" stroke-width="0.507866" d="M1395,-77.8106C1390.82,-73.4258 1385.07,-68.3725 1378.81,-65.6985 1208.98,6.88236 1140.98,-85.1709 964.811,-29.6985 963.756,-29.3662 962.696,-28.9818 961.642,-28.5573"/>
<polygon fill="green" stroke="green" stroke-width="0.507866" points="963.049,-25.3474 952.543,-23.9816 959.904,-31.6012 963.049,-25.3474"/>
</g>
<!-- &#45;18&#45;&gt;1 -->
<g id="edge67" class="edge"><title>&#45;18&#45;&gt;1</title>
<path fill="none" stroke="green" stroke-width="0.264784" d="M1394.55,-77.537C1390.38,-73.2924 1384.8,-68.4636 1378.81,-65.6985 1322.06,-39.472 1131.07,-22.9107 1062,-17.6585"/>
<polygon fill="green" stroke="green" stroke-width="0.264784" points="1061.88,-14.1397 1051.64,-16.8868 1061.36,-21.1203 1061.88,-14.1397"/>
</g>
<!-- &#45;18&#45;&gt;2 -->
<g id="edge68" class="edge"><title>&#45;18&#45;&gt;2</title>
<path fill="none" stroke="red" stroke-width="0.210712" d="M1394.99,-77.8371C1390.8,-73.4611 1385.05,-68.4078 1378.81,-65.6985 1228.88,-0.616855 1168.44,-79.6713 1012.81,-29.6985 1011.76,-29.3602 1010.7,-28.9709 1009.65,-28.5425"/>
<polygon fill="red" stroke="red" stroke-width="0.210712" points="1011.06,-25.3335 1000.55,-23.9522 1007.9,-31.5827 1011.06,-25.3335"/>
</g>
<!-- &#45;18&#45;&gt;3 -->
<g id="edge69" class="edge"><title>&#45;18&#45;&gt;3</title>
<path fill="none" stroke="green" stroke-width="0.134915" d="M1395.01,-77.7895C1390.83,-73.3977 1385.08,-68.3444 1378.81,-65.6985 1189.06,14.3871 1113.53,-90.6747 916.811,-29.6985 915.754,-29.3709 914.694,-28.9904 913.638,-28.5691"/>
<polygon fill="green" stroke="green" stroke-width="0.134915" points="915.044,-25.3584 904.535,-24.0049 911.906,-31.6158 915.044,-25.3584"/>
</g>
<!-- &#45;19 -->
<g id="node19" class="node"><title>&#45;19</title>
<polygon fill="lightgray" stroke="black" points="1463.31,-95.9117 1434.31,-95.9117 1434.31,-77.9117 1463.31,-77.9117 1463.31,-95.9117"/>
<text text-anchor="middle" x="1448.81" y="-84.7117" font-family="Times New Roman,serif" font-size="9.00">&#45;19</text>
</g>
<!-- &#45;19&#45;&gt;0 -->
<g id="edge70" class="edge"><title>&#45;19&#45;&gt;0</title>
<path fill="none" stroke="green" stroke-width="0.476545" d="M1442.01,-77.7899C1437.83,-73.3982 1432.08,-68.3449 1425.81,-65.6985 1236.48,14.2307 1161.11,-90.56 964.811,-29.6985 963.754,-29.3708 962.694,-28.9902 961.639,-28.5689"/>
<polygon fill="green" stroke="green" stroke-width="0.476545" points="963.044,-25.3582 952.536,-24.0045 959.906,-31.6156 963.044,-25.3582"/>
</g>
<!-- &#45;19&#45;&gt;1 -->
<g id="edge71" class="edge"><title>&#45;19&#45;&gt;1</title>
<path fill="none" stroke="green" stroke-width="0.173503" d="M1441.96,-77.9057C1437.76,-73.5526 1432.01,-68.4993 1425.81,-65.6985 1360.16,-36.0483 1137.28,-21.3568 1061.94,-17.1522"/>
<polygon fill="green" stroke="green" stroke-width="0.173503" points="1062.1,-13.6561 1051.93,-16.6074 1061.72,-20.6458 1062.1,-13.6561"/>
</g>
<!-- &#45;19&#45;&gt;2 -->
<g id="edge72" class="edge"><title>&#45;19&#45;&gt;2</title>
<path fill="none" stroke="red" stroke-width="0.274046" d="M1442,-77.8111C1437.82,-73.4264 1432.07,-68.3731 1425.81,-65.6985 1256.39,6.72606 1188.55,-85.0563 1012.81,-29.6985 1011.76,-29.3661 1010.7,-28.9816 1009.64,-28.5571"/>
<polygon fill="red" stroke="red" stroke-width="0.274046" points="1011.05,-25.3471 1000.54,-23.981 1007.9,-31.6008 1011.05,-25.3471"/>
</g>
<!-- &#45;19&#45;&gt;3 -->
<g id="edge73" class="edge"><title>&#45;19&#45;&gt;3</title>
<path fill="none" stroke="green" stroke-width="0.254129" d="M1442.02,-77.7727C1437.84,-73.3752 1432.09,-68.3219 1425.81,-65.6985 1216.56,21.7393 1133.67,-96.0667 916.811,-29.6985 915.753,-29.3747 914.692,-28.9973 913.636,-28.5785"/>
<polygon fill="green" stroke="green" stroke-width="0.254129" points="915.039,-25.3672 904.53,-24.0235 911.907,-31.6276 915.039,-25.3672"/>
</g>
<!-- &#45;20 -->
<g id="node20" class="node"><title>&#45;20</title>
<polygon fill="lightgray" stroke="black" points="1510.31,-95.9117 1481.31,-95.9117 1481.31,-77.9117 1510.31,-77.9117 1510.31,-95.9117"/>
<text text-anchor="middle" x="1495.81" y="-84.7117" font-family="Times New Roman,serif" font-size="9.00">&#45;20</text>
</g>
<!-- &#45;20&#45;&gt;0 -->
<g id="edge74" class="edge"><title>&#45;20&#45;&gt;0</title>
<path fill="none" stroke="green" stroke-width="0.239191" d="M1489.02,-77.773C1484.84,-73.3757 1479.09,-68.3224 1472.81,-65.6985 1263.97,21.5829 1181.24,-95.952 964.811,-29.6985 963.753,-29.3746 962.692,-28.9972 961.636,-28.5783"/>
<polygon fill="green" stroke="green" stroke-width="0.239191" points="963.039,-25.367 952.53,-24.0232 959.907,-31.6274 963.039,-25.367"/>
</g>
<!-- &#45;20&#45;&gt;1 -->
<g id="edge75" class="edge"><title>&#45;20&#45;&gt;1</title>
<path fill="none" stroke="green" stroke-width="0.321663" d="M1488.98,-77.874C1484.78,-73.5103 1479.03,-68.457 1472.81,-65.6985 1398.31,-32.6595 1143.83,-20.0276 1062.22,-16.7685"/>
<polygon fill="green" stroke="green" stroke-width="0.321663" points="1062.02,-13.2581 1051.89,-16.3697 1061.75,-20.2529 1062.02,-13.2581"/>
</g>
<!-- &#45;20&#45;&gt;2 -->
<g id="edge76" class="edge"><title>&#45;20&#45;&gt;2</title>
<path fill="none" stroke="green" stroke-width="0.147627" d="M1489.01,-77.7903C1484.83,-73.3987 1479.08,-68.3454 1472.81,-65.6985 1283.89,14.0743 1208.68,-90.4453 1012.81,-29.6985 1011.75,-29.3707 1010.69,-28.9901 1009.64,-28.5687"/>
<polygon fill="green" stroke="green" stroke-width="0.147627" points="1011.04,-25.3579 1000.54,-24.004 1007.91,-31.6153 1011.04,-25.3579"/>
</g>
<!-- &#45;20&#45;&gt;3 -->
<g id="edge77" class="edge"><title>&#45;20&#45;&gt;3</title>
<path fill="none" stroke="red" stroke-width="0.253572" d="M1489.03,-77.7586C1484.85,-73.3565 1479.1,-68.3032 1472.81,-65.6985 1358.43,-18.3021 1035.31,-65.5797 916.811,-29.6985 915.752,-29.3778 914.69,-29.003 913.633,-28.5863"/>
<polygon fill="red" stroke="red" stroke-width="0.253572" points="915.035,-25.3745 904.525,-24.039 911.909,-31.6373 915.035,-25.3745"/>
</g>
<!-- &#45;21 -->
<g id="node21" class="node"><title>&#45;21</title>
<polygon fill="lightgray" stroke="black" points="1557.31,-95.9117 1528.31,-95.9117 1528.31,-77.9117 1557.31,-77.9117 1557.31,-95.9117"/>
<text text-anchor="middle" x="1542.81" y="-84.7117" font-family="Times New Roman,serif" font-size="9.00">&#45;21</text>
</g>
<!-- &#45;21&#45;&gt;0 -->
<g id="edge78" class="edge"><title>&#45;21&#45;&gt;0</title>
<path fill="none" stroke="red" stroke-width="0.276162" d="M1536.03,-77.7589C1531.85,-73.3569 1526.1,-68.3036 1519.81,-65.6985 1291.46,28.9378 1201.38,-101.346 964.811,-29.6985 963.752,-29.3778 962.69,-29.0029 961.633,-28.5862"/>
<polygon fill="red" stroke="red" stroke-width="0.276162" points="963.035,-25.3744 952.525,-24.0387 959.909,-31.6372 963.035,-25.3744"/>
</g>
<!-- &#45;21&#45;&gt;1 -->
<g id="edge79" class="edge"><title>&#45;21&#45;&gt;1</title>
<path fill="none" stroke="red" stroke-width="0.411474" d="M1535.99,-77.8483C1531.8,-73.4761 1526.05,-68.4228 1519.81,-65.6985 1436.29,-29.205 1149.22,-18.7949 1062.09,-16.442"/>
<polygon fill="red" stroke="red" stroke-width="0.411474" points="1062.12,-12.9419 1052.04,-16.1829 1061.94,-19.9395 1062.12,-12.9419"/>
</g>
<!-- &#45;21&#45;&gt;2 -->
<g id="edge80" class="edge"><title>&#45;21&#45;&gt;2</title>
<path fill="none" stroke="red" stroke-width="0.314948" d="M1536.02,-77.7733C1531.84,-73.3761 1526.09,-68.3228 1519.81,-65.6985 1311.39,21.4264 1228.81,-95.8372 1012.81,-29.6985 1011.75,-29.3745 1010.69,-28.997 1009.64,-28.5782"/>
<polygon fill="red" stroke="red" stroke-width="0.314948" points="1011.04,-25.3668 1000.53,-24.0228 1007.91,-31.6271 1011.04,-25.3668"/>
</g>
<!-- &#45;21&#45;&gt;3 -->
<g id="edge81" class="edge"><title>&#45;21&#45;&gt;3</title>
<path fill="none" stroke="red" stroke-width="0.296985" d="M1536.03,-77.7468C1531.85,-73.3407 1526.1,-68.2874 1519.81,-65.6985 1395.67,-14.6235 1045.39,-68.2776 916.811,-29.6985 915.751,-29.3805 914.688,-29.0079 913.631,-28.593"/>
<polygon fill="red" stroke="red" stroke-width="0.296985" points="915.032,-25.3807 904.521,-24.0522 911.91,-31.6456 915.032,-25.3807"/>
</g>
<!-- &#45;22 -->
<g id="node22" class="node"><title>&#45;22</title>
<polygon fill="lightgray" stroke="black" points="48.3112,-95.9117 19.3112,-95.9117 19.3112,-77.9117 48.3112,-77.9117 48.3112,-95.9117"/>
<text text-anchor="middle" x="33.8112" y="-84.7117" font-family="Times New Roman,serif" font-size="9.00">&#45;22</text>
</g>
<!-- &#45;22&#45;&gt;0 -->
<g id="edge82" class="edge"><title>&#45;22&#45;&gt;0</title>
<path fill="none" stroke="green" stroke-width="0.551213" d="M42.7289,-77.6887C48.1181,-73.2632 55.3681,-68.2099 62.8112,-65.6985 242.788,-4.971 734.407,-82.6934 916.811,-29.6985 917.874,-29.3898 918.939,-29.0248 919.998,-28.616"/>
<polygon fill="green" stroke="green" stroke-width="0.551213" points="921.709,-31.6744 929.115,-24.0979 918.601,-25.4024 921.709,-31.6744"/>
</g>
<!-- &#45;22&#45;&gt;3 -->
<g id="edge83" class="edge"><title>&#45;22&#45;&gt;3</title>
<path fill="none" stroke="green" stroke-width="0.612314" d="M42.7459,-77.7384C48.1408,-73.3296 55.3908,-68.2763 62.8112,-65.6985 216.865,-12.1813 745.542,-14.301 867.549,-15.5363"/>
<polygon fill="green" stroke="green" stroke-width="0.612314" points="867.725,-19.0383 877.763,-15.6477 867.802,-12.0387 867.725,-19.0383"/>
</g>
<!-- &#45;23 -->
<g id="node23" class="node"><title>&#45;23</title>
<polygon fill="lightgray" stroke="black" points="1604.31,-95.9117 1575.31,-95.9117 1575.31,-77.9117 1604.31,-77.9117 1604.31,-95.9117"/>
<text text-anchor="middle" x="1589.81" y="-84.7117" font-family="Times New Roman,serif" font-size="9.00">&#45;23</text>
</g>
<!-- &#45;23&#45;&gt;0 -->
<g id="edge84" class="edge"><title>&#45;23&#45;&gt;0</title>
<path fill="none" stroke="green" stroke-width="0.304654" d="M1583.03,-77.747C1578.85,-73.341 1573.1,-68.2877 1566.81,-65.6985 1442.88,-14.7018 1093.17,-68.2202 964.811,-29.6985 963.751,-29.3804 962.688,-29.0078 961.631,-28.5928"/>
<polygon fill="green" stroke="green" stroke-width="0.304654" points="963.032,-25.3806 952.521,-24.0519 959.91,-31.6454 963.032,-25.3806"/>
</g>
<!-- &#45;23&#45;&gt;1 -->
<g id="edge85" class="edge"><title>&#45;23&#45;&gt;1</title>
<path fill="none" stroke="green" stroke-width="0.313373" d="M1583,-77.8271C1578.81,-73.4478 1573.06,-68.3945 1566.81,-65.6985 1474.16,-25.7166 1153.92,-17.6729 1061.79,-16.1722"/>
<polygon fill="green" stroke="green" stroke-width="0.313373" points="1061.77,-12.6715 1051.72,-16.0199 1061.66,-19.6707 1061.77,-12.6715"/>
</g>
<!-- &#45;23&#45;&gt;2 -->
<g id="edge86" class="edge"><title>&#45;23&#45;&gt;2</title>
<path fill="none" stroke="green" stroke-width="0.34931" d="M1583.03,-77.7592C1578.85,-73.3573 1573.1,-68.304 1566.81,-65.6985 1338.87,28.7813 1248.96,-101.231 1012.81,-29.6985 1011.75,-29.3777 1010.69,-29.0028 1009.63,-28.586"/>
<polygon fill="green" stroke="green" stroke-width="0.34931" points="1011.04,-25.3742 1000.53,-24.0384 1007.91,-31.637 1011.04,-25.3742"/>
</g>
<!-- &#45;23&#45;&gt;3 -->
<g id="edge87" class="edge"><title>&#45;23&#45;&gt;3</title>
<path fill="none" stroke="green" stroke-width="0.33785" d="M1583.03,-77.7366C1578.86,-73.3272 1573.11,-68.2739 1566.81,-65.6985 1432.91,-10.9441 1055.46,-70.9761 916.811,-29.6985 915.751,-29.3828 914.687,-29.012 913.629,-28.5986"/>
<polygon fill="green" stroke="green" stroke-width="0.33785" points="915.03,-25.386 904.518,-24.0634 911.911,-31.6527 915.03,-25.386"/>
</g>
<!-- &#45;24 -->
<g id="node24" class="node"><title>&#45;24</title>
<polygon fill="lightgray" stroke="black" points="1651.31,-95.9117 1622.31,-95.9117 1622.31,-77.9117 1651.31,-77.9117 1651.31,-95.9117"/>
<text text-anchor="middle" x="1636.81" y="-84.7117" font-family="Times New Roman,serif" font-size="9.00">&#45;24</text>
</g>
<!-- &#45;24&#45;&gt;0 -->
<g id="edge88" class="edge"><title>&#45;24&#45;&gt;0</title>
<path fill="none" stroke="green" stroke-width="0.485115" d="M1630.03,-77.7368C1625.86,-73.3274 1620.11,-68.2741 1613.81,-65.6985 1480.12,-11.0224 1103.25,-70.9187 964.811,-29.6985 963.751,-29.3827 962.687,-29.0119 961.63,-28.5985"/>
<polygon fill="green" stroke="green" stroke-width="0.485115" points="963.03,-25.3859 952.518,-24.0632 959.91,-31.6525 963.03,-25.3859"/>
</g>
<!-- &#45;24&#45;&gt;1 -->
<g id="edge89" class="edge"><title>&#45;24&#45;&gt;1</title>
<path fill="none" stroke="green" stroke-width="0.375508" d="M1630,-77.8093C1625.82,-73.424 1620.07,-68.3707 1613.81,-65.6985 1512.09,-22.2589 1159.01,-16.6663 1061.77,-15.9523"/>
<polygon fill="green" stroke="green" stroke-width="0.375508" points="1061.72,-12.452 1051.7,-15.8896 1061.68,-19.4519 1061.72,-12.452"/>
</g>
<!-- &#45;24&#45;&gt;2 -->
<g id="edge90" class="edge"><title>&#45;24&#45;&gt;2</title>
<path fill="none" stroke="green" stroke-width="0.366675" d="M1630.03,-77.7473C1625.85,-73.3413 1620.1,-68.288 1613.81,-65.6985 1490.08,-14.7801 1140.96,-68.1628 1012.81,-29.6985 1011.75,-29.3804 1010.69,-29.0077 1009.63,-28.5927"/>
<polygon fill="green" stroke="green" stroke-width="0.366675" points="1011.03,-25.3805 1000.52,-24.0516 1007.91,-31.6453 1011.03,-25.3805"/>
</g>
<!-- &#45;24&#45;&gt;3 -->
<g id="edge91" class="edge"><title>&#45;24&#45;&gt;3</title>
<path fill="none" stroke="red" stroke-width="0.102529" d="M1630.04,-77.7278C1625.86,-73.3154 1620.11,-68.2621 1613.81,-65.6985 1470.14,-7.26405 1065.54,-73.6751 916.811,-29.6985 915.75,-29.3848 914.686,-29.0156 913.628,-28.6035"/>
<polygon fill="red" stroke="red" stroke-width="0.102529" points="915.027,-25.3906 904.515,-24.0731 911.911,-31.6588 915.027,-25.3906"/>
</g>
<!-- &#45;25 -->
<g id="node25" class="node"><title>&#45;25</title>
<polygon fill="lightgray" stroke="black" points="1698.31,-95.9117 1669.31,-95.9117 1669.31,-77.9117 1698.31,-77.9117 1698.31,-95.9117"/>
<text text-anchor="middle" x="1683.81" y="-84.7117" font-family="Times New Roman,serif" font-size="9.00">&#45;25</text>
</g>
<!-- &#45;25&#45;&gt;0 -->
<g id="edge92" class="edge"><title>&#45;25&#45;&gt;0</title>
<path fill="none" stroke="green" stroke-width="0.120789" d="M1677.04,-77.728C1672.86,-73.3157 1667.11,-68.2624 1660.81,-65.6985 1517.35,-7.34236 1113.33,-73.6177 964.811,-29.6985 963.75,-29.3847 962.686,-29.0155 961.628,-28.6034"/>
<polygon fill="green" stroke="green" stroke-width="0.120789" points="963.027,-25.3905 952.515,-24.0729 959.911,-31.6587 963.027,-25.3905"/>
</g>
<!-- &#45;25&#45;&gt;1 -->
<g id="edge93" class="edge"><title>&#45;25&#45;&gt;1</title>
<path fill="none" stroke="red" stroke-width="0.484178" d="M1677.01,-77.7941C1672.83,-73.4038 1667.08,-68.3505 1660.81,-65.6985 1550,-18.8024 1164.03,-15.7378 1061.81,-15.7653"/>
<polygon fill="red" stroke="red" stroke-width="0.484178" points="1061.79,-12.2652 1051.79,-15.7787 1061.8,-19.2652 1061.79,-12.2652"/>
</g>
<!-- &#45;25&#45;&gt;2 -->
<g id="edge94" class="edge"><title>&#45;25&#45;&gt;2</title>
<path fill="none" stroke="red" stroke-width="0.104727" d="M1677.03,-77.737C1672.86,-73.3277 1667.11,-68.2744 1660.81,-65.6985 1527.32,-11.1007 1151.03,-70.8612 1012.81,-29.6985 1011.75,-29.3827 1010.69,-29.0119 1009.63,-28.5984"/>
<polygon fill="red" stroke="red" stroke-width="0.104727" points="1011.03,-25.3858 1000.52,-24.0629 1007.91,-31.6524 1011.03,-25.3858"/>
</g>
<!-- &#45;25&#45;&gt;3 -->
<g id="edge95" class="edge"><title>&#45;25&#45;&gt;3</title>
<path fill="none" stroke="green" stroke-width="0.134318" d="M1677.04,-77.7201C1672.87,-73.3052 1667.12,-68.2519 1660.81,-65.6985 1507.38,-3.58347 1075.62,-76.3745 916.811,-29.6985 915.75,-29.3865 914.685,-29.0188 913.627,-28.6078"/>
<polygon fill="green" stroke="green" stroke-width="0.134318" points="915.025,-25.3947 904.512,-24.0816 911.912,-31.6642 915.025,-25.3947"/>
</g>
<!-- &#45;26 -->
<g id="node26" class="node"><title>&#45;26</title>
<polygon fill="lightgray" stroke="black" points="1745.31,-95.9117 1716.31,-95.9117 1716.31,-77.9117 1745.31,-77.9117 1745.31,-95.9117"/>
<text text-anchor="middle" x="1730.81" y="-84.7117" font-family="Times New Roman,serif" font-size="9.00">&#45;26</text>
</g>
<!-- &#45;26&#45;&gt;0 -->
<g id="edge96" class="edge"><title>&#45;26&#45;&gt;0</title>
<path fill="none" stroke="red" stroke-width="0.210015" d="M1724.04,-77.7203C1719.87,-73.3054 1714.12,-68.2521 1707.81,-65.6985 1554.59,-3.66178 1123.41,-76.3171 964.811,-29.6985 963.75,-29.3864 962.685,-29.0187 961.627,-28.6077"/>
<polygon fill="red" stroke="red" stroke-width="0.210015" points="963.026,-25.3946 952.512,-24.0814 959.912,-31.6641 963.026,-25.3946"/>
</g>
<!-- &#45;26&#45;&gt;1 -->
<g id="edge97" class="edge"><title>&#45;26&#45;&gt;1</title>
<path fill="none" stroke="green" stroke-width="0.156662" stroke-dasharray="1,5" d="M1724.02,-77.781C1719.83,-73.3863 1714.08,-68.333 1707.81,-65.6985 1587.93,-15.3541 1169.12,-14.8727 1061.94,-15.603"/>
<polygon fill="green" stroke="green" stroke-width="0.156662" points="1061.74,-12.1044 1051.76,-15.6829 1061.79,-19.1042 1061.74,-12.1044"/>
</g>
<!-- &#45;26&#45;&gt;2 -->
<g id="edge98" class="edge"><title>&#45;26&#45;&gt;2</title>
<path fill="none" stroke="red" stroke-width="0.438406" d="M1724.04,-77.7282C1719.86,-73.3159 1714.11,-68.2626 1707.81,-65.6985 1564.56,-7.42066 1161.11,-73.5602 1012.81,-29.6985 1011.75,-29.3847 1010.69,-29.0155 1009.63,-28.6033"/>
<polygon fill="red" stroke="red" stroke-width="0.438406" points="1011.03,-25.3905 1000.51,-24.0727 1007.91,-31.6586 1011.03,-25.3905"/>
</g>
<!-- &#45;26&#45;&gt;3 -->
<g id="edge99" class="edge"><title>&#45;26&#45;&gt;3</title>
<path fill="none" stroke="green" stroke-width="0.137273" d="M1724.04,-77.7133C1719.87,-73.2961 1714.12,-68.2428 1707.81,-65.6985 1544.62,0.097556 1085.7,-79.0742 916.811,-29.6985 915.749,-29.388 914.684,-29.0215 913.626,-28.6116"/>
<polygon fill="green" stroke="green" stroke-width="0.137273" points="915.024,-25.3982 904.51,-24.0891 911.913,-31.6689 915.024,-25.3982"/>
</g>
<!-- &#45;27 -->
<g id="node27" class="node"><title>&#45;27</title>
<polygon fill="lightgray" stroke="black" points="1792.31,-95.9117 1763.31,-95.9117 1763.31,-77.9117 1792.31,-77.9117 1792.31,-95.9117"/>
<text text-anchor="middle" x="1777.81" y="-84.7117" font-family="Times New Roman,serif" font-size="9.00">&#45;27</text>
</g>
<!-- &#45;27&#45;&gt;0 -->
<g id="edge100" class="edge"><title>&#45;27&#45;&gt;0</title>
<path fill="none" stroke="green" stroke-width="0.396182" d="M1771.04,-77.7135C1766.87,-73.2963 1761.12,-68.243 1754.81,-65.6985 1591.82,0.0192324 1133.49,-79.0168 964.811,-29.6985 963.749,-29.388 962.684,-29.0215 961.626,-28.6115"/>
<polygon fill="green" stroke="green" stroke-width="0.396182" points="963.024,-25.3982 952.51,-24.089 959.913,-31.6688 963.024,-25.3982"/>
</g>
<!-- &#45;27&#45;&gt;1 -->
<g id="edge101" class="edge"><title>&#45;27&#45;&gt;1</title>
<path fill="none" stroke="red" stroke-width="0.815806" d="M1771.02,-77.7696C1766.84,-73.3712 1761.09,-68.3179 1754.81,-65.6985 1625.77,-11.874 1173.62,-14.0604 1061.91,-15.4621"/>
<polygon fill="red" stroke="red" stroke-width="0.815806" points="1061.86,-11.9624 1051.91,-15.5974 1061.95,-18.9617 1061.86,-11.9624"/>
</g>
<!-- &#45;27&#45;&gt;2 -->
<g id="edge102" class="edge"><title>&#45;27&#45;&gt;2</title>
<path fill="none" stroke="red" stroke-width="0.353391" d="M1771.04,-77.7204C1766.87,-73.3056 1761.12,-68.2523 1754.81,-65.6985 1601.8,-3.7401 1171.19,-76.2596 1012.81,-29.6985 1011.75,-29.3864 1010.69,-29.0186 1009.63,-28.6077"/>
<polygon fill="red" stroke="red" stroke-width="0.353391" points="1011.03,-25.3945 1000.51,-24.0813 1007.91,-31.664 1011.03,-25.3945"/>
</g>
<!-- &#45;27&#45;&gt;3 -->
<g id="edge103" class="edge"><title>&#45;27&#45;&gt;3</title>
<path fill="none" stroke="red" stroke-width="0.660454" d="M1771.05,-77.7073C1766.88,-73.2881 1761.13,-68.2348 1754.81,-65.6985 1581.85,3.77894 1095.78,-81.7742 916.811,-29.6985 915.749,-29.3894 914.684,-29.024 913.625,-28.615"/>
<polygon fill="red" stroke="red" stroke-width="0.660454" points="915.022,-25.4014 904.508,-24.0958 911.913,-31.6731 915.022,-25.4014"/>
</g>
<!-- &#45;28 -->
<g id="node28" class="node"><title>&#45;28</title>
<polygon fill="lightgray" stroke="black" points="181.311,-95.9117 152.311,-95.9117 152.311,-77.9117 181.311,-77.9117 181.311,-95.9117"/>
<text text-anchor="middle" x="166.811" y="-84.7117" font-family="Times New Roman,serif" font-size="9.00">&#45;28</text>
</g>
<!-- &#45;28&#45;&gt;0 -->
<g id="edge104" class="edge"><title>&#45;28&#45;&gt;0</title>
<path fill="none" stroke="red" stroke-width="0.394801" d="M173.582,-77.7228C177.756,-73.3087 183.506,-68.2554 189.811,-65.6985 339.71,-4.9148 761.648,-75.3981 916.811,-29.6985 917.873,-29.3859 918.937,-29.0177 919.995,-28.6063"/>
<polygon fill="red" stroke="red" stroke-width="0.394801" points="921.711,-31.6623 929.109,-24.0787 918.596,-25.3933 921.711,-31.6623"/>
</g>
<!-- &#45;28&#45;&gt;1 -->
<g id="edge105" class="edge"><title>&#45;28&#45;&gt;1</title>
<path fill="none" stroke="red" stroke-width="0.21787" d="M173.576,-77.7092C177.748,-73.2906 183.498,-68.2373 189.811,-65.6985 359.656,2.60399 837.057,-80.9125 1012.81,-29.6985 1013.87,-29.3889 1014.94,-29.0232 1016,-28.6139"/>
<polygon fill="red" stroke="red" stroke-width="0.21787" points="1017.71,-31.6718 1025.11,-24.0937 1014.6,-25.4004 1017.71,-31.6718"/>
</g>
<!-- &#45;28&#45;&gt;2 -->
<g id="edge106" class="edge"><title>&#45;28&#45;&gt;2</title>
<path fill="none" stroke="red" stroke-width="0.175633" d="M173.579,-77.7156C177.752,-73.2991 183.502,-68.2458 189.811,-65.6985 349.682,-1.1556 799.353,-78.1551 964.811,-29.6985 965.873,-29.3875 966.938,-29.0206 967.996,-28.6104"/>
<polygon fill="red" stroke="red" stroke-width="0.175633" points="969.71,-31.6674 977.112,-24.0867 966.598,-25.3971 969.71,-31.6674"/>
</g>
<!-- &#45;28&#45;&gt;3 -->
<g id="edge107" class="edge"><title>&#45;28&#45;&gt;3</title>
<path fill="none" stroke="red" stroke-width="0.237367" d="M173.603,-77.7731C177.783,-73.3758 183.533,-68.3225 189.811,-65.6985 315.871,-13.0102 757.006,-14.3128 867.545,-15.5033"/>
<polygon fill="red" stroke="red" stroke-width="0.237367" points="867.698,-19.0053 877.738,-15.6234 867.78,-12.0057 867.698,-19.0053"/>
</g>
<!-- &#45;29 -->
<g id="node29" class="node"><title>&#45;29</title>
<polygon fill="lightgray" stroke="black" points="228.311,-95.9117 199.311,-95.9117 199.311,-77.9117 228.311,-77.9117 228.311,-95.9117"/>
<text text-anchor="middle" x="213.811" y="-84.7117" font-family="Times New Roman,serif" font-size="9.00">&#45;29</text>
</g>
<!-- &#45;29&#45;&gt;0 -->
<g id="edge108" class="edge"><title>&#45;29&#45;&gt;0</title>
<path fill="none" stroke="green" stroke-width="0.303346" d="M220.585,-77.7309C224.76,-73.3195 230.51,-68.2662 236.811,-65.6985 376.946,-8.5952 771.727,-72.6988 916.811,-29.6985 917.872,-29.3841 918.936,-29.0144 919.994,-28.6018"/>
<polygon fill="green" stroke="green" stroke-width="0.303346" points="921.711,-31.6567 929.107,-24.0697 918.594,-25.389 921.711,-31.6567"/>
</g>
<!-- &#45;29&#45;&gt;1 -->
<g id="edge109" class="edge"><title>&#45;29&#45;&gt;1</title>
<path fill="none" stroke="green" stroke-width="0.309053" d="M220.579,-77.7154C224.752,-73.2989 230.502,-68.2456 236.811,-65.6985 396.89,-1.07728 847.138,-78.2126 1012.81,-29.6985 1013.87,-29.3875 1014.94,-29.0207 1016,-28.6105"/>
<polygon fill="green" stroke="green" stroke-width="0.309053" points="1017.71,-31.6675 1025.11,-24.0868 1014.6,-25.3971 1017.71,-31.6675"/>
</g>
<!-- &#45;29&#45;&gt;2 -->
<g id="edge110" class="edge"><title>&#45;29&#45;&gt;2</title>
<path fill="none" stroke="red" stroke-width="0.128242" d="M220.582,-77.7226C224.755,-73.3085 230.505,-68.2552 236.811,-65.6985 386.917,-4.83649 809.433,-75.4555 964.811,-29.6985 965.873,-29.3859 966.937,-29.0177 967.995,-28.6064"/>
<polygon fill="red" stroke="red" stroke-width="0.128242" points="969.711,-31.6624 977.109,-24.0788 966.596,-25.3934 969.711,-31.6624"/>
</g>
<!-- &#45;29&#45;&gt;3 -->
<g id="edge111" class="edge"><title>&#45;29&#45;&gt;3</title>
<path fill="none" stroke="green" stroke-width="0.10571" d="M220.608,-77.785C224.79,-73.3916 230.54,-68.3383 236.811,-65.6985 353.862,-16.4278 762.567,-15.1415 867.897,-15.6534"/>
<polygon fill="green" stroke="green" stroke-width="0.10571" points="867.893,-19.1533 877.914,-15.7124 867.934,-12.1534 867.893,-19.1533"/>
</g>
<!-- &#45;30 -->
<g id="node30" class="node"><title>&#45;30</title>
<polygon fill="lightgray" stroke="black" points="275.311,-95.9117 246.311,-95.9117 246.311,-77.9117 275.311,-77.9117 275.311,-95.9117"/>
<text text-anchor="middle" x="260.811" y="-84.7117" font-family="Times New Roman,serif" font-size="9.00">&#45;30</text>
</g>
<!-- &#45;30&#45;&gt;0 -->
<g id="edge112" class="edge"><title>&#45;30&#45;&gt;0</title>
<path fill="none" stroke="green" stroke-width="0.138302" d="M267.589,-77.7401C271.765,-73.3318 277.515,-68.2785 283.811,-65.6985 414.184,-12.275 781.804,-70 916.811,-29.6985 917.871,-29.382 918.935,-29.0106 919.992,-28.5967"/>
<polygon fill="green" stroke="green" stroke-width="0.138302" points="921.712,-31.6502 929.104,-24.0595 918.592,-25.3842 921.712,-31.6502"/>
</g>
<!-- &#45;30&#45;&gt;1 -->
<g id="edge113" class="edge"><title>&#45;30&#45;&gt;1</title>
<path fill="none" stroke="red" stroke-width="0.331761" d="M267.582,-77.7225C271.755,-73.3083 277.505,-68.255 283.811,-65.6985 434.125,-4.75817 857.219,-75.5129 1012.81,-29.6985 1013.87,-29.386 1014.94,-29.0178 1016,-28.6065"/>
<polygon fill="red" stroke="red" stroke-width="0.331761" points="1017.71,-31.6625 1025.11,-24.079 1014.6,-25.3934 1017.71,-31.6625"/>
</g>
<!-- &#45;30&#45;&gt;2 -->
<g id="edge114" class="edge"><title>&#45;30&#45;&gt;2</title>
<path fill="none" stroke="green" stroke-width="0.274797" d="M267.585,-77.7307C271.76,-73.3193 277.51,-68.266 283.811,-65.6985 424.154,-8.5169 819.512,-72.7562 964.811,-29.6985 965.872,-29.3841 966.936,-29.0144 967.994,-28.6019"/>
<polygon fill="green" stroke="green" stroke-width="0.274797" points="969.711,-31.6568 977.107,-24.07 966.594,-25.3891 969.711,-31.6568"/>
</g>
<!-- &#45;30&#45;&gt;3 -->
<g id="edge115" class="edge"><title>&#45;30&#45;&gt;3</title>
<path fill="none" stroke="red" stroke-width="0.368983" d="M267.613,-77.7987C271.797,-73.4099 277.547,-68.3566 283.811,-65.6985 391.702,-19.9131 767.063,-16.028 867.779,-15.822"/>
<polygon fill="red" stroke="red" stroke-width="0.368983" points="867.922,-19.322 877.919,-15.8124 867.916,-12.322 867.922,-19.322"/>
</g>
<!-- &#45;31 -->
<g id="node31" class="node"><title>&#45;31</title>
<polygon fill="lightgray" stroke="black" points="322.311,-95.9117 293.311,-95.9117 293.311,-77.9117 322.311,-77.9117 322.311,-95.9117"/>
<text text-anchor="middle" x="307.811" y="-84.7117" font-family="Times New Roman,serif" font-size="9.00">&#45;31</text>
</g>
<!-- &#45;31&#45;&gt;0 -->
<g id="edge116" class="edge"><title>&#45;31&#45;&gt;0</title>
<path fill="none" stroke="red" stroke-width="0.280606" d="M314.593,-77.7509C318.771,-73.3461 324.521,-68.2928 330.811,-65.6985 451.424,-15.9542 791.88,-67.3017 916.811,-29.6985 917.871,-29.3796 918.934,-29.0062 919.991,-28.5907"/>
<polygon fill="red" stroke="red" stroke-width="0.280606" points="921.713,-31.6428 929.1,-24.0477 918.589,-25.3786 921.713,-31.6428"/>
</g>
<!-- &#45;31&#45;&gt;1 -->
<g id="edge117" class="edge"><title>&#45;31&#45;&gt;1</title>
<path fill="none" stroke="green" stroke-width="0.369233" d="M314.585,-77.7305C318.76,-73.319 324.51,-68.2657 330.811,-65.6985 471.362,-8.4386 867.298,-72.8137 1012.81,-29.6985 1013.87,-29.3842 1014.94,-29.0145 1015.99,-28.602"/>
<polygon fill="green" stroke="green" stroke-width="0.369233" points="1017.71,-31.657 1025.11,-24.0702 1014.59,-25.3892 1017.71,-31.657"/>
</g>
<!-- &#45;31&#45;&gt;2 -->
<g id="edge118" class="edge"><title>&#45;31&#45;&gt;2</title>
<path fill="none" stroke="green" stroke-width="0.183008" d="M314.589,-77.7399C318.765,-73.3316 324.515,-68.2783 330.811,-65.6985 461.392,-12.1968 829.59,-70.0574 964.811,-29.6985 965.871,-29.382 966.935,-29.0107 967.992,-28.5968"/>
<polygon fill="green" stroke="green" stroke-width="0.183008" points="969.712,-31.6504 977.104,-24.0597 966.592,-25.3843 969.712,-31.6504"/>
</g>
<!-- &#45;31&#45;&gt;3 -->
<g id="edge119" class="edge"><title>&#45;31&#45;&gt;3</title>
<path fill="none" stroke="red" stroke-width="0.515241" d="M314.62,-77.8146C318.807,-73.4312 324.557,-68.3779 330.811,-65.6985 429.546,-23.4021 771.584,-16.9902 867.581,-16.0212"/>
<polygon fill="red" stroke="red" stroke-width="0.515241" points="867.828,-19.5192 877.796,-15.9298 867.765,-12.5195 867.828,-19.5192"/>
</g>
<!-- &#45;32 -->
<g id="node32" class="node"><title>&#45;32</title>
<polygon fill="lightgray" stroke="black" points="369.311,-95.9117 340.311,-95.9117 340.311,-77.9117 369.311,-77.9117 369.311,-95.9117"/>
<text text-anchor="middle" x="354.811" y="-84.7117" font-family="Times New Roman,serif" font-size="9.00">&#45;32</text>
</g>
<!-- &#45;32&#45;&gt;0 -->
<g id="edge120" class="edge"><title>&#45;32&#45;&gt;0</title>
<path fill="none" stroke="green" stroke-width="0.166567" d="M361.599,-77.7634C365.778,-73.3629 371.528,-68.3096 377.811,-65.6985 599.519,26.4337 687.096,-99.5096 916.811,-29.6985 917.87,-29.3768 918.932,-29.0011 919.988,-28.5837"/>
<polygon fill="green" stroke="green" stroke-width="0.166567" points="921.714,-31.634 929.096,-24.0337 918.586,-25.372 921.714,-31.634"/>
</g>
<!-- &#45;32&#45;&gt;1 -->
<g id="edge121" class="edge"><title>&#45;32&#45;&gt;1</title>
<path fill="none" stroke="green" stroke-width="0.623205" d="M361.589,-77.7397C365.765,-73.3313 371.515,-68.278 377.811,-65.6985 508.599,-12.1185 877.375,-70.1148 1012.81,-29.6985 1013.87,-29.3821 1014.93,-29.0108 1015.99,-28.5969"/>
<polygon fill="green" stroke="green" stroke-width="0.623205" points="1017.71,-31.6505 1025.1,-24.06 1014.59,-25.3844 1017.71,-31.6505"/>
</g>
<!-- &#45;32&#45;&gt;2 -->
<g id="edge122" class="edge"><title>&#45;32&#45;&gt;2</title>
<path fill="none" stroke="red" stroke-width="0.226703" d="M361.593,-77.7506C365.771,-73.3458 371.521,-68.2925 377.811,-65.6985 498.631,-15.8759 839.666,-67.3591 964.811,-29.6985 965.871,-29.3796 966.934,-29.0063 967.991,-28.5908"/>
<polygon fill="red" stroke="red" stroke-width="0.226703" points="969.713,-31.6429 977.1,-24.0479 966.589,-25.3787 969.713,-31.6429"/>
</g>
<!-- &#45;32&#45;&gt;3 -->
<g id="edge123" class="edge"><title>&#45;32&#45;&gt;3</title>
<path fill="none" stroke="green" stroke-width="0.323349" d="M361.628,-77.8334C365.817,-73.4563 371.567,-68.403 377.811,-65.6985 467.423,-26.884 776.323,-18.0427 867.367,-16.2597"/>
<polygon fill="green" stroke="green" stroke-width="0.323349" points="867.656,-19.7551 877.59,-16.0718 867.527,-12.7563 867.656,-19.7551"/>
</g>
<!-- &#45;33 -->
<g id="node33" class="node"><title>&#45;33</title>
<polygon fill="lightgray" stroke="black" points="416.311,-95.9117 387.311,-95.9117 387.311,-77.9117 416.311,-77.9117 416.311,-95.9117"/>
<text text-anchor="middle" x="401.811" y="-84.7117" font-family="Times New Roman,serif" font-size="9.00">&#45;33</text>
</g>
<!-- &#45;33&#45;&gt;0 -->
<g id="edge124" class="edge"><title>&#45;33&#45;&gt;0</title>
<path fill="none" stroke="red" stroke-width="0.263595" d="M408.605,-77.7784C412.786,-73.3829 418.536,-68.3296 424.811,-65.6985 627.009,19.0796 707.237,-94.1161 916.811,-29.6985 917.869,-29.3734 918.93,-28.9949 919.986,-28.5753"/>
<polygon fill="red" stroke="red" stroke-width="0.263595" points="921.716,-31.6236 929.091,-24.0172 918.582,-25.3642 921.716,-31.6236"/>
</g>
<!-- &#45;33&#45;&gt;1 -->
<g id="edge125" class="edge"><title>&#45;33&#45;&gt;1</title>
<path fill="none" stroke="red" stroke-width="0.209822" d="M408.593,-77.7504C412.771,-73.3455 418.521,-68.2922 424.811,-65.6985 545.839,-15.7976 887.451,-67.4165 1012.81,-29.6985 1013.87,-29.3797 1014.93,-29.0064 1015.99,-28.591"/>
<polygon fill="red" stroke="red" stroke-width="0.209822" points="1017.71,-31.6431 1025.1,-24.0482 1014.59,-25.3788 1017.71,-31.6431"/>
</g>
<!-- &#45;33&#45;&gt;2 -->
<g id="edge126" class="edge"><title>&#45;33&#45;&gt;2</title>
<path fill="none" stroke="green" stroke-width="0.384588" d="M408.598,-77.7631C412.778,-73.3625 418.528,-68.3092 424.811,-65.6985 646.935,26.5902 734.667,-99.6244 964.811,-29.6985 965.87,-29.3768 966.932,-29.0012 967.989,-28.5838"/>
<polygon fill="green" stroke="green" stroke-width="0.384588" points="969.714,-31.6342 977.096,-24.0341 966.586,-25.3721 969.714,-31.6342"/>
</g>
<!-- &#45;33&#45;&gt;3 -->
<g id="edge127" class="edge"><title>&#45;33&#45;&gt;3</title>
<path fill="none" stroke="red" stroke-width="0.239983" d="M408.638,-77.8559C412.83,-73.4863 418.58,-68.433 424.811,-65.6985 505.451,-30.3086 782.088,-19.174 867.493,-16.5389"/>
<polygon fill="red" stroke="red" stroke-width="0.239983" points="867.696,-20.0345 877.588,-16.2401 867.489,-13.0376 867.696,-20.0345"/>
</g>
<!-- &#45;34 -->
<g id="node34" class="node"><title>&#45;34</title>
<polygon fill="lightgray" stroke="black" points="463.311,-95.9117 434.311,-95.9117 434.311,-77.9117 463.311,-77.9117 463.311,-95.9117"/>
<text text-anchor="middle" x="448.811" y="-84.7117" font-family="Times New Roman,serif" font-size="9.00">&#45;34</text>
</g>
<!-- &#45;34&#45;&gt;0 -->
<g id="edge128" class="edge"><title>&#45;34&#45;&gt;0</title>
<path fill="none" stroke="green" stroke-width="0.239226" d="M455.612,-77.7965C459.796,-73.4069 465.546,-68.3536 471.811,-65.6985 654.505,11.7287 727.37,-88.725 916.811,-29.6985 917.868,-29.3693 918.928,-28.9876 919.983,-28.5652"/>
<polygon fill="green" stroke="green" stroke-width="0.239226" points="921.717,-31.611 929.085,-23.9972 918.577,-25.3547 921.717,-31.611"/>
</g>
<!-- &#45;34&#45;&gt;1 -->
<g id="edge129" class="edge"><title>&#45;34&#45;&gt;1</title>
<path fill="none" stroke="red" stroke-width="0.196456" d="M455.598,-77.7629C459.777,-73.3621 465.527,-68.3088 471.811,-65.6985 694.35,26.7467 782.238,-99.7392 1012.81,-29.6985 1013.87,-29.3769 1014.93,-29.0013 1015.99,-28.584"/>
<polygon fill="red" stroke="red" stroke-width="0.196456" points="1017.71,-31.6344 1025.1,-24.0344 1014.59,-25.3723 1017.71,-31.6344"/>
</g>
<!-- &#45;34&#45;&gt;2 -->
<g id="edge130" class="edge"><title>&#45;34&#45;&gt;2</title>
<path fill="none" stroke="green" stroke-width="0.320157" d="M455.605,-77.778C459.786,-73.3824 465.536,-68.3291 471.811,-65.6985 674.424,19.2361 754.808,-94.2309 964.811,-29.6985 965.869,-29.3735 966.93,-28.9951 967.986,-28.5755"/>
<polygon fill="green" stroke="green" stroke-width="0.320157" points="969.716,-31.6238 977.091,-24.0176 966.582,-25.3643 969.716,-31.6238"/>
</g>
<!-- &#45;34&#45;&gt;3 -->
<g id="edge131" class="edge"><title>&#45;34&#45;&gt;3</title>
<path fill="none" stroke="red" stroke-width="0.22543" d="M455.65,-77.8833C459.847,-73.5228 465.597,-68.4695 471.811,-65.6985 543.556,-33.7082 788.364,-20.4081 867.743,-16.8712"/>
<polygon fill="red" stroke="red" stroke-width="0.22543" points="867.971,-20.3647 877.81,-16.436 867.668,-13.3712 867.971,-20.3647"/>
</g>
<!-- &#45;35 -->
<g id="node35" class="node"><title>&#45;35</title>
<polygon fill="lightgray" stroke="black" points="510.311,-95.9117 481.311,-95.9117 481.311,-77.9117 510.311,-77.9117 510.311,-95.9117"/>
<text text-anchor="middle" x="495.811" y="-84.7117" font-family="Times New Roman,serif" font-size="9.00">&#45;35</text>
</g>
<!-- &#45;35&#45;&gt;0 -->
<g id="edge132" class="edge"><title>&#45;35&#45;&gt;0</title>
<path fill="none" stroke="red" stroke-width="0.213222" d="M502.622,-77.8187C506.809,-73.4366 512.559,-68.3833 518.811,-65.6985 682.012,4.38191 747.493,-83.3372 916.811,-29.6985 917.866,-29.3643 918.925,-28.9784 919.979,-28.5528"/>
<polygon fill="red" stroke="red" stroke-width="0.213222" points="921.719,-31.5955 929.077,-23.9726 918.571,-25.3431 921.719,-31.5955"/>
</g>
<!-- &#45;35&#45;&gt;1 -->
<g id="edge133" class="edge"><title>&#45;35&#45;&gt;1</title>
<path fill="none" stroke="red" stroke-width="0.180853" d="M502.605,-77.7777C506.786,-73.3819 512.536,-68.3286 518.811,-65.6985 721.839,19.3925 802.38,-94.3456 1012.81,-29.6985 1013.87,-29.3736 1014.93,-28.9952 1015.99,-28.5757"/>
<polygon fill="red" stroke="red" stroke-width="0.180853" points="1017.72,-31.6241 1025.09,-24.018 1014.58,-25.3645 1017.72,-31.6241"/>
</g>
<!-- &#45;35&#45;&gt;2 -->
<g id="edge134" class="edge"><title>&#45;35&#45;&gt;2</title>
<path fill="none" stroke="red" stroke-width="0.328484" d="M502.612,-77.796C506.796,-73.4064 512.546,-68.3531 518.811,-65.6985 701.92,11.885 774.942,-88.8397 964.811,-29.6985 965.868,-29.3694 966.928,-28.9877 967.983,-28.5655"/>
<polygon fill="red" stroke="red" stroke-width="0.328484" points="969.717,-31.6113 977.085,-23.9977 966.577,-25.3549 969.717,-31.6113"/>
</g>
<!-- &#45;35&#45;&gt;3 -->
<g id="edge135" class="edge"><title>&#45;35&#45;&gt;3</title>
<path fill="none" stroke="green" stroke-width="0.137802" d="M503.064,-77.5077C507.227,-73.2546 512.811,-68.4269 518.811,-65.6985 581.627,-37.1365 794.362,-21.8235 867.708,-17.2973"/>
<polygon fill="green" stroke="green" stroke-width="0.137802" points="868.091,-20.7806 877.863,-16.6852 867.67,-13.7933 868.091,-20.7806"/>
</g>
<!-- &#45;36 -->
<g id="node36" class="node"><title>&#45;36</title>
<polygon fill="lightgray" stroke="black" points="557.311,-95.9117 528.311,-95.9117 528.311,-77.9117 557.311,-77.9117 557.311,-95.9117"/>
<text text-anchor="middle" x="542.811" y="-84.7117" font-family="Times New Roman,serif" font-size="9.00">&#45;36</text>
</g>
<!-- &#45;36&#45;&gt;0 -->
<g id="edge136" class="edge"><title>&#45;36&#45;&gt;0</title>
<path fill="none" stroke="green" stroke-width="0.131785" d="M549.634,-77.8468C553.825,-73.4741 559.575,-68.4208 565.811,-65.6985 709.532,-2.95886 767.602,-77.9539 916.811,-29.6985 917.864,-29.358 918.921,-28.9669 919.974,-28.5371"/>
<polygon fill="green" stroke="green" stroke-width="0.131785" points="921.721,-31.5759 929.067,-23.9414 918.563,-25.3285 921.721,-31.5759"/>
</g>
<!-- &#45;36&#45;&gt;1 -->
<g id="edge137" class="edge"><title>&#45;36&#45;&gt;1</title>
<path fill="none" stroke="red" stroke-width="0.672962" d="M549.612,-77.7956C553.796,-73.4058 559.546,-68.3525 565.811,-65.6985 749.335,12.0414 822.514,-88.9544 1012.81,-29.6985 1013.87,-29.3695 1014.93,-28.9879 1015.98,-28.5657"/>
<polygon fill="red" stroke="red" stroke-width="0.672962" points="1017.72,-31.6116 1025.08,-23.9981 1014.58,-25.3552 1017.72,-31.6116"/>
</g>
<!-- &#45;36&#45;&gt;2 -->
<g id="edge138" class="edge"><title>&#45;36&#45;&gt;2</title>
<path fill="none" stroke="red" stroke-width="0.491665" d="M549.622,-77.8182C553.809,-73.4359 559.559,-68.3826 565.811,-65.6985 729.426,4.53817 795.065,-83.4518 964.811,-29.6985 965.866,-29.3645 966.925,-28.9787 967.979,-28.5531"/>
<polygon fill="red" stroke="red" stroke-width="0.491665" points="969.719,-31.5959 977.077,-23.9731 966.571,-25.3434 969.719,-31.5959"/>
</g>
<!-- &#45;36&#45;&gt;3 -->
<g id="edge139" class="edge"><title>&#45;36&#45;&gt;3</title>
<path fill="none" stroke="green" stroke-width="0.421315" d="M550.085,-77.5525C554.254,-73.3126 559.837,-68.4831 565.811,-65.6985 669.994,-17.1416 811.161,-14.041 867.792,-14.9988"/>
<polygon fill="green" stroke="green" stroke-width="0.421315" points="867.877,-18.5016 877.955,-15.2323 868.038,-11.5035 867.877,-18.5016"/>
</g>
<!-- &#45;37 -->
<g id="node37" class="node"><title>&#45;37</title>
<polygon fill="lightgray" stroke="black" points="604.311,-95.9117 575.311,-95.9117 575.311,-77.9117 604.311,-77.9117 604.311,-95.9117"/>
<text text-anchor="middle" x="589.811" y="-84.7117" font-family="Times New Roman,serif" font-size="9.00">&#45;37</text>
</g>
<!-- &#45;37&#45;&gt;0 -->
<g id="edge140" class="edge"><title>&#45;37&#45;&gt;0</title>
<path fill="none" stroke="red" stroke-width="0.137486" d="M596.65,-77.8834C600.847,-73.5228 606.597,-68.4695 612.811,-65.6985 737.073,-10.2908 787.69,-72.5774 916.811,-29.6985 917.69,-29.4066 918.572,-29.0804 919.453,-28.7265"/>
<polygon fill="red" stroke="red" stroke-width="0.137486" points="921.169,-31.7817 928.56,-24.1904 918.048,-25.5159 921.169,-31.7817"/>
</g>
<!-- &#45;37&#45;&gt;1 -->
<g id="edge141" class="edge"><title>&#45;37&#45;&gt;1</title>
<path fill="none" stroke="red" stroke-width="0.160697" d="M596.622,-77.8177C600.808,-73.4352 606.558,-68.3819 612.811,-65.6985 776.841,4.69443 842.637,-83.5664 1012.81,-29.6985 1013.87,-29.3646 1014.93,-28.9789 1015.98,-28.5534"/>
<polygon fill="red" stroke="red" stroke-width="0.160697" points="1017.72,-31.5962 1025.08,-23.9737 1014.57,-25.3437 1017.72,-31.5962"/>
</g>
<!-- &#45;37&#45;&gt;2 -->
<g id="edge142" class="edge"><title>&#45;37&#45;&gt;2</title>
<path fill="none" stroke="green" stroke-width="0.425844" d="M596.634,-77.8461C600.825,-73.4732 606.575,-68.4199 612.811,-65.6985 756.947,-2.80275 815.174,-78.0684 964.811,-29.6985 965.864,-29.3582 966.921,-28.9672 967.974,-28.5375"/>
<polygon fill="green" stroke="green" stroke-width="0.425844" points="969.721,-31.5764 977.067,-23.9422 966.563,-25.3288 969.721,-31.5764"/>
</g>
<!-- &#45;37&#45;&gt;3 -->
<g id="edge143" class="edge"><title>&#45;37&#45;&gt;3</title>
<path fill="none" stroke="red" stroke-width="0.639206" d="M597.113,-77.6117C601.29,-73.3891 606.872,-68.5573 612.811,-65.6985 699.854,-23.8031 817.39,-16.8289 867.974,-15.869"/>
<polygon fill="red" stroke="red" stroke-width="0.639206" points="868.033,-19.3687 877.988,-15.7435 867.945,-12.3692 868.033,-19.3687"/>
</g>
<!-- &#45;38 -->
<g id="node38" class="node"><title>&#45;38</title>
<polygon fill="lightgray" stroke="black" points="651.311,-95.9117 622.311,-95.9117 622.311,-77.9117 651.311,-77.9117 651.311,-95.9117"/>
<text text-anchor="middle" x="636.811" y="-84.7117" font-family="Times New Roman,serif" font-size="9.00">&#45;38</text>
</g>
<!-- &#45;38&#45;&gt;0 -->
<g id="edge144" class="edge"><title>&#45;38&#45;&gt;0</title>
<path fill="none" stroke="red" stroke-width="0.38165" d="M644.071,-77.5237C648.236,-73.2752 653.82,-68.4469 659.811,-65.6985 764.645,-17.6088 807.745,-67.2117 916.811,-29.6985 917.687,-29.3973 918.567,-29.0631 919.445,-28.7025"/>
<polygon fill="red" stroke="red" stroke-width="0.38165" points="921.175,-31.7502 928.541,-24.1352 918.034,-25.4945 921.175,-31.7502"/>
</g>
<!-- &#45;38&#45;&gt;1 -->
<g id="edge145" class="edge"><title>&#45;38&#45;&gt;1</title>
<path fill="none" stroke="green" stroke-width="0.222162" d="M643.634,-77.8455C647.824,-73.4723 653.574,-68.419 659.811,-65.6985 804.361,-2.64664 862.747,-78.1828 1012.81,-29.6985 1013.86,-29.3583 1014.92,-28.9675 1015.97,-28.5378"/>
<polygon fill="green" stroke="green" stroke-width="0.222162" points="1017.72,-31.5768 1025.07,-23.9429 1014.56,-25.3292 1017.72,-31.5768"/>
</g>
<!-- &#45;38&#45;&gt;2 -->
<g id="edge146" class="edge"><title>&#45;38&#45;&gt;2</title>
<path fill="none" stroke="green" stroke-width="0.282667" d="M643.65,-77.8825C647.846,-73.5217 653.596,-68.4684 659.811,-65.6985 784.487,-10.1349 835.262,-72.6917 964.811,-29.6985 965.69,-29.4068 966.573,-29.0807 967.453,-28.7269"/>
<polygon fill="green" stroke="green" stroke-width="0.282667" points="969.169,-31.7823 976.56,-24.1914 966.049,-25.5163 969.169,-31.7823"/>
</g>
<!-- &#45;38&#45;&gt;3 -->
<g id="edge147" class="edge"><title>&#45;38&#45;&gt;3</title>
<path fill="none" stroke="red" stroke-width="0.642375" d="M644.153,-77.6933C648.342,-73.4945 653.922,-68.6596 659.811,-65.6985 729.656,-30.5805 823.357,-20.1459 867.629,-17.0893"/>
<polygon fill="red" stroke="red" stroke-width="0.642375" points="868.01,-20.5724 877.775,-16.4606 867.577,-13.5858 868.01,-20.5724"/>
</g>
<!-- &#45;39 -->
<g id="node39" class="node"><title>&#45;39</title>
<polygon fill="lightgray" stroke="black" points="698.311,-95.9117 669.311,-95.9117 669.311,-77.9117 698.311,-77.9117 698.311,-95.9117"/>
<text text-anchor="middle" x="683.811" y="-84.7117" font-family="Times New Roman,serif" font-size="9.00">&#45;39</text>
</g>
<!-- &#45;39&#45;&gt;0 -->
<g id="edge148" class="edge"><title>&#45;39&#45;&gt;0</title>
<path fill="none" stroke="red" stroke-width="0.507343" d="M691.105,-77.5965C695.28,-73.3694 700.863,-68.5383 706.811,-65.6985 792.268,-24.9032 827.747,-61.8644 916.811,-29.6985 917.682,-29.3839 918.558,-29.0384 919.433,-28.6682"/>
<polygon fill="red" stroke="red" stroke-width="0.507343" points="921.182,-31.7052 928.514,-24.0563 918.013,-25.4639 921.182,-31.7052"/>
</g>
<!-- &#45;39&#45;&gt;1 -->
<g id="edge149" class="edge"><title>&#45;39&#45;&gt;1</title>
<path fill="none" stroke="green" stroke-width="0.139313" d="M690.649,-77.8816C694.846,-73.5205 700.596,-68.4672 706.811,-65.6985 831.901,-9.979 882.835,-72.806 1012.81,-29.6985 1013.69,-29.407 1014.57,-29.081 1015.45,-28.7274"/>
<polygon fill="green" stroke="green" stroke-width="0.139313" points="1017.17,-31.7829 1024.56,-24.1924 1014.05,-25.5167 1017.17,-31.7829"/>
</g>
<!-- &#45;39&#45;&gt;2 -->
<g id="edge150" class="edge"><title>&#45;39&#45;&gt;2</title>
<path fill="none" stroke="red" stroke-width="0.265241" d="M691.071,-77.5224C695.236,-73.2736 700.819,-68.4453 706.811,-65.6985 812.058,-17.4533 855.319,-67.3257 964.811,-29.6985 965.687,-29.3975 966.567,-29.0635 967.445,-28.7031"/>
<polygon fill="red" stroke="red" stroke-width="0.265241" points="969.175,-31.751 976.542,-24.1366 966.034,-25.495 969.175,-31.751"/>
</g>
<!-- &#45;39&#45;&gt;3 -->
<g id="edge151" class="edge"><title>&#45;39&#45;&gt;3</title>
<path fill="none" stroke="green" stroke-width="0.361159" d="M691.215,-77.8125C695.422,-73.6486 701,-68.809 706.811,-65.6985 759.968,-37.2481 830.537,-24.1435 867.606,-18.8827"/>
<polygon fill="green" stroke="green" stroke-width="0.361159" points="868.531,-22.2902 877.978,-17.4936 867.602,-15.3521 868.531,-22.2902"/>
</g>
<!-- &#45;40 -->
<g id="node40" class="node"><title>&#45;40</title>
<polygon fill="lightgray" stroke="black" points="745.311,-95.9117 716.311,-95.9117 716.311,-77.9117 745.311,-77.9117 745.311,-95.9117"/>
<text text-anchor="middle" x="730.811" y="-84.7117" font-family="Times New Roman,serif" font-size="9.00">&#45;40</text>
</g>
<!-- &#45;40&#45;&gt;0 -->
<g id="edge152" class="edge"><title>&#45;40&#45;&gt;0</title>
<path fill="none" stroke="red" stroke-width="0.245114" d="M738.544,-77.7201C742.936,-73.5292 748.756,-68.6932 754.811,-65.6985 820.923,-32.9999 848.073,-56.4402 916.811,-29.6985 917.674,-29.3627 918.543,-28.9992 919.412,-28.6139"/>
<polygon fill="red" stroke="red" stroke-width="0.245114" points="921.192,-31.6338 928.467,-23.9311 917.976,-25.4161 921.192,-31.6338"/>
</g>
<!-- &#45;40&#45;&gt;1 -->
<g id="edge153" class="edge"><title>&#45;40&#45;&gt;1</title>
<path fill="none" stroke="red" stroke-width="0.238663" d="M738.452,-77.525C742.818,-73.2769 748.641,-68.4486 754.811,-65.6985 860.56,-18.5631 903.319,-67.3257 1012.81,-29.6985 1013.69,-29.3975 1014.57,-29.0635 1015.44,-28.7031"/>
<polygon fill="red" stroke="red" stroke-width="0.238663" points="1017.17,-31.751 1024.54,-24.1366 1014.03,-25.495 1017.17,-31.751"/>
</g>
<!-- &#45;40&#45;&gt;2 -->
<g id="edge154" class="edge"><title>&#45;40&#45;&gt;2</title>
<path fill="none" stroke="green" stroke-width="0.232941" d="M738.487,-77.6013C742.863,-73.3756 748.685,-68.5443 754.811,-65.6985 840.692,-25.8044 875.747,-61.8644 964.811,-29.6985 965.682,-29.3839 966.558,-29.0384 967.433,-28.6682"/>
<polygon fill="green" stroke="green" stroke-width="0.232941" points="969.182,-31.7052 976.514,-24.0563 966.013,-25.4639 969.182,-31.7052"/>
</g>
<!-- &#45;40&#45;&gt;3 -->
<g id="edge155" class="edge"><title>&#45;40&#45;&gt;3</title>
<path fill="none" stroke="green" stroke-width="0.128204" stroke-dasharray="1,5" d="M739.141,-77.6248C743.522,-73.6109 749.149,-68.9653 754.811,-65.6985 791.985,-44.2512 839.999,-29.4431 868.485,-21.8245"/>
<polygon fill="green" stroke="green" stroke-width="0.128204" points="869.581,-25.156 878.383,-19.2578 867.824,-18.3801 869.581,-25.156"/>
</g>
<!-- 431&#45;&gt;1 -->
<g id="edge157" class="edge"><title>431&#45;&gt;1</title>
<path fill="none" stroke="green" stroke-width="0.205905" d="M1894.74,-73.938C1889.25,-70.6861 1882.99,-67.5537 1876.81,-65.6985 1718.56,-18.2161 1184.2,-15.7245 1061.89,-15.7881"/>
<polygon fill="green" stroke="green" stroke-width="0.205905" points="1061.66,-12.2883 1051.67,-15.8002 1061.67,-19.2883 1061.66,-12.2883"/>
</g>
</g>
</svg>
