<?xml version="1.0" encoding="UTF-8" standalone="no"?>
<!DOCTYPE svg PUBLIC "-//W3C//DTD SVG 1.1//EN"
 "http://www.w3.org/Graphics/SVG/1.1/DTD/svg11.dtd">
<!-- Generated by graphviz version 2.38.0 (20140413.2041)
 -->
<!-- Title: %3 Pages: 1 -->
<svg width="2136pt" height="170pt"
 viewBox="0.00 0.00 2136.02 170.12" xmlns="http://www.w3.org/2000/svg" xmlns:xlink="http://www.w3.org/1999/xlink">
<g id="graph0" class="graph" transform="scale(1 1) rotate(0) translate(4 166.125)">
<title>%3</title>
<polygon fill="white" stroke="none" points="-4,4 -4,-166.125 2132.02,-166.125 2132.02,4 -4,4"/>
<!-- &#45;1 -->
<g id="node1" class="node"><title>&#45;1</title>
<polygon fill="lightgray" stroke="black" points="853.807,-95.9117 829.807,-95.9117 829.807,-77.9117 853.807,-77.9117 853.807,-95.9117"/>
<text text-anchor="middle" x="841.807" y="-84.7117" font-family="Times New Roman,serif" font-size="9.00">&#45;1</text>
</g>
<!-- 0 -->
<g id="node41" class="node"><title>0</title>
<ellipse fill="lightblue" stroke="black" cx="883.807" cy="-14.8492" rx="14.7" ry="14.7"/>
<text text-anchor="middle" x="883.807" y="-12.6492" font-family="Times New Roman,serif" font-size="9.00">0</text>
</g>
<!-- &#45;1&#45;&gt;0 -->
<g id="edge1" class="edge"><title>&#45;1&#45;&gt;0</title>
<path fill="none" stroke="red" stroke-width="0.26604" d="M846.625,-77.8746C852.577,-67.9452 862.931,-50.6741 871.203,-36.8744"/>
<polygon fill="red" stroke="red" stroke-width="0.26604" points="874.378,-38.3847 876.518,-28.0082 868.375,-34.7856 874.378,-38.3847"/>
</g>
<!-- 1 -->
<g id="node42" class="node"><title>1</title>
<ellipse fill="lightblue" stroke="black" cx="1027.81" cy="-14.8492" rx="14.7" ry="14.7"/>
<text text-anchor="middle" x="1027.81" y="-12.6492" font-family="Times New Roman,serif" font-size="9.00">1</text>
</g>
<!-- &#45;1&#45;&gt;1 -->
<g id="edge2" class="edge"><title>&#45;1&#45;&gt;1</title>
<path fill="none" stroke="green" stroke-width="0.40143" d="M848.48,-77.861C852.296,-73.7113 857.393,-68.8698 862.807,-65.6985 908.277,-39.0659 969.264,-25.4859 1002.91,-19.6032"/>
<polygon fill="green" stroke="green" stroke-width="0.40143" points="1003.91,-22.9842 1013.2,-17.8955 1002.77,-16.0785 1003.91,-22.9842"/>
</g>
<!-- 2 -->
<g id="node43" class="node"><title>2</title>
<ellipse fill="lightblue" stroke="black" cx="1115.81" cy="-14.8492" rx="14.7" ry="14.7"/>
<text text-anchor="middle" x="1115.81" y="-12.6492" font-family="Times New Roman,serif" font-size="9.00">2</text>
</g>
<!-- &#45;1&#45;&gt;2 -->
<g id="edge3" class="edge"><title>&#45;1&#45;&gt;2</title>
<path fill="none" stroke="red" stroke-width="0.163622" d="M848.353,-77.6305C852.132,-73.4133 857.233,-68.5808 862.807,-65.6985 938.762,-26.4192 968.013,-46.7425 1051.81,-29.6985 1064.86,-27.0442 1079.36,-23.9192 1091.26,-21.3101"/>
<polygon fill="red" stroke="red" stroke-width="0.163622" points="1092.33,-24.6592 1101.34,-19.0873 1090.82,-17.8235 1092.33,-24.6592"/>
</g>
<!-- 3 -->
<g id="node44" class="node"><title>3</title>
<ellipse fill="lightblue" stroke="black" cx="931.807" cy="-14.8492" rx="14.7" ry="14.7"/>
<text text-anchor="middle" x="931.807" y="-12.6492" font-family="Times New Roman,serif" font-size="9.00">3</text>
</g>
<!-- &#45;1&#45;&gt;3 -->
<g id="edge4" class="edge"><title>&#45;1&#45;&gt;3</title>
<path fill="none" stroke="red" stroke-width="0.17189" d="M849.737,-77.7646C853.568,-73.965 858.302,-69.4619 862.807,-65.6985 878.437,-52.6409 897.235,-39.1957 911.26,-29.5642"/>
<polygon fill="red" stroke="red" stroke-width="0.17189" points="913.4,-32.3416 919.707,-23.828 909.468,-26.5508 913.4,-32.3416"/>
</g>
<!-- &#45;2 -->
<g id="node2" class="node"><title>&#45;2</title>
<polygon fill="lightgray" stroke="black" points="895.807,-95.9117 871.807,-95.9117 871.807,-77.9117 895.807,-77.9117 895.807,-95.9117"/>
<text text-anchor="middle" x="883.807" y="-84.7117" font-family="Times New Roman,serif" font-size="9.00">&#45;2</text>
</g>
<!-- &#45;2&#45;&gt;0 -->
<g id="edge5" class="edge"><title>&#45;2&#45;&gt;0</title>
<path fill="none" stroke="red" stroke-width="0.104182" d="M883.807,-77.8746C883.807,-68.7202 883.807,-53.3256 883.807,-40.1641"/>
<polygon fill="red" stroke="red" stroke-width="0.104182" points="887.307,-39.8196 883.807,-29.8197 880.307,-39.8197 887.307,-39.8196"/>
</g>
<!-- &#45;2&#45;&gt;1 -->
<g id="edge6" class="edge"><title>&#45;2&#45;&gt;1</title>
<path fill="none" stroke="green" stroke-width="0.2485" d="M890.977,-77.6578C894.781,-73.6523 899.713,-69.0043 904.807,-65.6985 936.573,-45.0821 978.249,-30.3908 1004.02,-22.5143"/>
<polygon fill="green" stroke="green" stroke-width="0.2485" points="1005.1,-25.8441 1013.69,-19.6491 1003.11,-19.1321 1005.1,-25.8441"/>
</g>
<!-- &#45;2&#45;&gt;2 -->
<g id="edge7" class="edge"><title>&#45;2&#45;&gt;2</title>
<path fill="none" stroke="red" stroke-width="0.185621" d="M890.405,-77.7272C894.199,-73.5384 899.298,-68.7021 904.807,-65.6985 913.078,-61.1894 1037.46,-33.2445 1091.29,-21.2779"/>
<polygon fill="red" stroke="red" stroke-width="0.185621" points="1092.34,-24.629 1101.35,-19.0451 1090.83,-17.7954 1092.34,-24.629"/>
</g>
<!-- &#45;2&#45;&gt;3 -->
<g id="edge8" class="edge"><title>&#45;2&#45;&gt;3</title>
<path fill="none" stroke="green" stroke-width="0.120455" stroke-dasharray="1,5" d="M889.313,-77.8746C896.262,-67.7318 908.459,-49.9283 918.009,-35.9895"/>
<polygon fill="green" stroke="green" stroke-width="0.120455" points="921.056,-37.7349 923.82,-27.5071 915.281,-33.7786 921.056,-37.7349"/>
</g>
<!-- &#45;3 -->
<g id="node3" class="node"><title>&#45;3</title>
<polygon fill="lightgray" stroke="black" points="937.807,-95.9117 913.807,-95.9117 913.807,-77.9117 937.807,-77.9117 937.807,-95.9117"/>
<text text-anchor="middle" x="925.807" y="-84.7117" font-family="Times New Roman,serif" font-size="9.00">&#45;3</text>
</g>
<!-- &#45;3&#45;&gt;0 -->
<g id="edge9" class="edge"><title>&#45;3&#45;&gt;0</title>
<path fill="none" stroke="red" stroke-width="0.845367" d="M920.989,-77.8746C915.037,-67.9452 904.683,-50.6741 896.411,-36.8744"/>
<polygon fill="red" stroke="red" stroke-width="0.845367" points="899.239,-34.7856 891.096,-28.0082 893.236,-38.3847 899.239,-34.7856"/>
</g>
<!-- &#45;3&#45;&gt;1 -->
<g id="edge10" class="edge"><title>&#45;3&#45;&gt;1</title>
<path fill="none" stroke="green" stroke-width="0.190984" d="M933.615,-77.6129C937.419,-73.78 942.166,-69.2928 946.807,-65.6985 965.686,-51.0765 989.084,-37.0667 1005.87,-27.6436"/>
<polygon fill="green" stroke="green" stroke-width="0.190984" points="1007.84,-30.5526 1014.91,-22.6555 1004.46,-24.4244 1007.84,-30.5526"/>
</g>
<!-- &#45;3&#45;&gt;2 -->
<g id="edge11" class="edge"><title>&#45;3&#45;&gt;2</title>
<path fill="none" stroke="green" stroke-width="0.415894" d="M932.472,-77.8468C936.286,-73.693 941.382,-68.852 946.807,-65.6985 971.691,-51.2331 1051.31,-31.0979 1091.75,-21.4451"/>
<polygon fill="green" stroke="green" stroke-width="0.415894" points="1092.66,-24.8269 1101.59,-19.12 1091.05,-18.0146 1092.66,-24.8269"/>
</g>
<!-- &#45;3&#45;&gt;3 -->
<g id="edge12" class="edge"><title>&#45;3&#45;&gt;3</title>
<path fill="none" stroke="green" stroke-width="0.174542" d="M926.495,-77.8746C927.279,-68.7202 928.598,-53.3256 929.725,-40.1641"/>
<polygon fill="green" stroke="green" stroke-width="0.174542" points="933.245,-40.0819 930.611,-29.8197 926.27,-39.4845 933.245,-40.0819"/>
</g>
<!-- &#45;4 -->
<g id="node4" class="node"><title>&#45;4</title>
<polygon fill="lightgray" stroke="black" points="979.807,-95.9117 955.807,-95.9117 955.807,-77.9117 979.807,-77.9117 979.807,-95.9117"/>
<text text-anchor="middle" x="967.807" y="-84.7117" font-family="Times New Roman,serif" font-size="9.00">&#45;4</text>
</g>
<!-- &#45;4&#45;&gt;0 -->
<g id="edge13" class="edge"><title>&#45;4&#45;&gt;0</title>
<path fill="none" stroke="red" stroke-width="0.770362" d="M959.802,-77.8522C955.955,-74.0717 951.228,-69.5596 946.807,-65.6985 932.638,-53.325 915.912,-40.1526 903.256,-30.4577"/>
<polygon fill="red" stroke="red" stroke-width="0.770362" points="905.305,-27.619 895.226,-24.354 901.069,-33.1918 905.305,-27.619"/>
</g>
<!-- &#45;4&#45;&gt;1 -->
<g id="edge14" class="edge"><title>&#45;4&#45;&gt;1</title>
<path fill="none" stroke="red" stroke-width="0.436896" d="M974.69,-77.8746C983.644,-67.4184 999.571,-48.8208 1011.66,-34.7089"/>
<polygon fill="red" stroke="red" stroke-width="0.436896" points="1014.4,-36.8858 1018.25,-27.0138 1009.08,-32.3326 1014.4,-36.8858"/>
</g>
<!-- &#45;4&#45;&gt;2 -->
<g id="edge15" class="edge"><title>&#45;4&#45;&gt;2</title>
<path fill="none" stroke="green" stroke-width="0.516017" d="M974.962,-77.634C978.761,-73.6225 983.695,-68.9762 988.807,-65.6985 1021.75,-44.5727 1065.08,-29.9508 1091.66,-22.238"/>
<polygon fill="green" stroke="green" stroke-width="0.516017" points="1092.94,-25.5146 1101.62,-19.4445 1091.05,-18.7746 1092.94,-25.5146"/>
</g>
<!-- &#45;4&#45;&gt;3 -->
<g id="edge16" class="edge"><title>&#45;4&#45;&gt;3</title>
<path fill="none" stroke="red" stroke-width="0.52482" d="M963.677,-77.8746C958.654,-68.0985 949.974,-51.2057 942.94,-37.5161"/>
<polygon fill="red" stroke="red" stroke-width="0.52482" points="945.868,-35.5565 938.185,-28.2615 939.642,-38.7557 945.868,-35.5565"/>
</g>
<!-- &#45;5 -->
<g id="node5" class="node"><title>&#45;5</title>
<polygon fill="lightgray" stroke="black" points="1759.81,-95.9117 1735.81,-95.9117 1735.81,-77.9117 1759.81,-77.9117 1759.81,-95.9117"/>
<text text-anchor="middle" x="1747.81" y="-84.7117" font-family="Times New Roman,serif" font-size="9.00">&#45;5</text>
</g>
<!-- &#45;5&#45;&gt;0 -->
<g id="edge17" class="edge"><title>&#45;5&#45;&gt;0</title>
<path fill="none" stroke="green" stroke-width="0.378122" d="M1741.77,-77.7197C1738.01,-73.3046 1732.76,-68.2513 1726.81,-65.6985 1559.38,6.10205 1082.7,-80.6827 907.807,-29.6985 906.745,-29.3888 905.68,-29.023 904.621,-28.6137"/>
<polygon fill="green" stroke="green" stroke-width="0.378122" points="906.019,-25.4002 895.505,-24.0932 902.909,-31.6715 906.019,-25.4002"/>
</g>
<!-- &#45;5&#45;&gt;1 -->
<g id="edge18" class="edge"><title>&#45;5&#45;&gt;1</title>
<path fill="none" stroke="green" stroke-width="0.230868" d="M1741.76,-77.748C1737.99,-73.3424 1732.74,-68.2891 1726.81,-65.6985 1597.27,-9.16935 1231.86,-48.703 1091.81,-29.6985 1078.52,-27.8962 1063.9,-24.8163 1051.99,-22.0179"/>
<polygon fill="green" stroke="green" stroke-width="0.230868" points="1052.47,-18.5335 1041.93,-19.5719 1050.82,-25.3353 1052.47,-18.5335"/>
</g>
<!-- &#45;5&#45;&gt;2 -->
<g id="edge19" class="edge"><title>&#45;5&#45;&gt;2</title>
<path fill="none" stroke="green" stroke-width="0.157282" d="M1741.74,-77.803C1737.96,-73.4157 1732.71,-68.3624 1726.81,-65.6985 1619.63,-17.3377 1242.26,-15.3231 1140.98,-15.6774"/>
<polygon fill="green" stroke="green" stroke-width="0.157282" points="1140.77,-12.1782 1130.78,-15.7249 1140.8,-19.1781 1140.77,-12.1782"/>
</g>
<!-- &#45;6 -->
<g id="node6" class="node"><title>&#45;6</title>
<polygon fill="lightgray" stroke="black" points="1021.81,-95.9117 997.807,-95.9117 997.807,-77.9117 1021.81,-77.9117 1021.81,-95.9117"/>
<text text-anchor="middle" x="1009.81" y="-84.7117" font-family="Times New Roman,serif" font-size="9.00">&#45;6</text>
</g>
<!-- &#45;6&#45;&gt;0 -->
<g id="edge20" class="edge"><title>&#45;6&#45;&gt;0</title>
<path fill="none" stroke="red" stroke-width="0.298336" d="M1002.59,-77.729C998.774,-73.7416 993.845,-69.0884 988.807,-65.6985 956.122,-43.7062 942.916,-47.5682 907.807,-29.6985 906.982,-29.2784 906.145,-28.8432 905.303,-28.3976"/>
<polygon fill="red" stroke="red" stroke-width="0.298336" points="906.815,-25.2339 896.374,-23.4332 903.413,-31.3518 906.815,-25.2339"/>
</g>
<!-- &#45;6&#45;&gt;1 -->
<g id="edge21" class="edge"><title>&#45;6&#45;&gt;1</title>
<path fill="none" stroke="red" stroke-width="0.227496" d="M1011.87,-77.8746C1014.28,-68.5153 1018.36,-52.633 1021.79,-39.2834"/>
<polygon fill="red" stroke="red" stroke-width="0.227496" points="1025.25,-39.8496 1024.35,-29.2932 1018.47,-38.1077 1025.25,-39.8496"/>
</g>
<!-- &#45;6&#45;&gt;2 -->
<g id="edge22" class="edge"><title>&#45;6&#45;&gt;2</title>
<path fill="none" stroke="red" stroke-width="0.303218" d="M1017.58,-77.5684C1021.38,-73.7258 1026.13,-69.2432 1030.81,-65.6985 1050.94,-50.4444 1076.13,-36.2031 1093.84,-26.881"/>
<polygon fill="red" stroke="red" stroke-width="0.303218" points="1095.55,-29.9343 1102.83,-22.233 1092.34,-23.7161 1095.55,-29.9343"/>
</g>
<!-- &#45;6&#45;&gt;3 -->
<g id="edge23" class="edge"><title>&#45;6&#45;&gt;3</title>
<path fill="none" stroke="red" stroke-width="0.211598" d="M1001.31,-77.5572C997.525,-73.8782 992.983,-69.5303 988.807,-65.6985 976.302,-54.2245 961.915,-41.6464 950.723,-31.9954"/>
<polygon fill="red" stroke="red" stroke-width="0.211598" points="952.738,-29.1126 942.871,-25.2525 948.177,-34.423 952.738,-29.1126"/>
</g>
<!-- &#45;7 -->
<g id="node7" class="node"><title>&#45;7</title>
<polygon fill="lightgray" stroke="black" points="199.807,-95.9117 175.807,-95.9117 175.807,-77.9117 199.807,-77.9117 199.807,-95.9117"/>
<text text-anchor="middle" x="187.807" y="-84.7117" font-family="Times New Roman,serif" font-size="9.00">&#45;7</text>
</g>
<!-- &#45;7&#45;&gt;0 -->
<g id="edge24" class="edge"><title>&#45;7&#45;&gt;0</title>
<path fill="none" stroke="red" stroke-width="0.161471" d="M193.871,-77.786C197.643,-73.393 202.893,-68.3397 208.807,-65.6985 328.236,-12.3628 750.406,-14.0927 858.465,-15.4504"/>
<polygon fill="red" stroke="red" stroke-width="0.161471" points="858.683,-18.9537 868.73,-15.5907 858.779,-11.9543 858.683,-18.9537"/>
</g>
<!-- &#45;7&#45;&gt;1 -->
<g id="edge25" class="edge"><title>&#45;7&#45;&gt;1</title>
<path fill="none" stroke="red" stroke-width="0.557963" d="M193.846,-77.7292C197.61,-73.3172 202.86,-68.2639 208.807,-65.6985 361.409,0.125396 790.792,-49.444 955.807,-29.6985 971.922,-27.7702 989.844,-24.3274 1003.78,-21.3569"/>
<polygon fill="red" stroke="red" stroke-width="0.557963" points="1004.54,-24.7728 1013.56,-19.2104 1003.04,-17.9355 1004.54,-24.7728"/>
</g>
<!-- &#45;7&#45;&gt;3 -->
<g id="edge26" class="edge"><title>&#45;7&#45;&gt;3</title>
<path fill="none" stroke="green" stroke-width="0.443227" d="M193.85,-77.7365C197.614,-73.327 202.864,-68.2737 208.807,-65.6985 351.524,-3.85846 758.648,-73.79 907.807,-29.6985 908.868,-29.3848 909.932,-29.0158 910.99,-28.6037"/>
<polygon fill="green" stroke="green" stroke-width="0.443227" points="912.707,-31.6591 920.104,-24.0735 909.591,-25.3908 912.707,-31.6591"/>
</g>
<!-- &#45;8 -->
<g id="node8" class="node"><title>&#45;8</title>
<polygon fill="lightgray" stroke="black" points="1063.81,-95.9117 1039.81,-95.9117 1039.81,-77.9117 1063.81,-77.9117 1063.81,-95.9117"/>
<text text-anchor="middle" x="1051.81" y="-84.7117" font-family="Times New Roman,serif" font-size="9.00">&#45;8</text>
</g>
<!-- &#45;8&#45;&gt;0 -->
<g id="edge27" class="edge"><title>&#45;8&#45;&gt;0</title>
<path fill="none" stroke="red" stroke-width="0.167755" d="M1045.14,-77.8422C1041.33,-73.6871 1036.24,-68.8463 1030.81,-65.6985 981.533,-37.1238 960.18,-52.0922 907.807,-29.6985 906.956,-29.3344 906.096,-28.9468 905.236,-28.5412"/>
<polygon fill="red" stroke="red" stroke-width="0.167755" points="906.695,-25.3534 896.22,-23.7638 903.417,-31.5387 906.695,-25.3534"/>
</g>
<!-- &#45;8&#45;&gt;1 -->
<g id="edge28" class="edge"><title>&#45;8&#45;&gt;1</title>
<path fill="none" stroke="red" stroke-width="0.165995" d="M1049.05,-77.8746C1045.8,-68.3653 1040.23,-52.1224 1035.62,-38.6437"/>
<polygon fill="red" stroke="red" stroke-width="0.165995" points="1038.87,-37.3587 1032.32,-29.0326 1032.25,-39.6272 1038.87,-37.3587"/>
</g>
<!-- &#45;8&#45;&gt;2 -->
<g id="edge29" class="edge"><title>&#45;8&#45;&gt;2</title>
<path fill="none" stroke="green" stroke-width="0.200935" d="M1059.15,-77.8746C1068.81,-67.2982 1086.08,-48.3922 1099.02,-34.2241"/>
<polygon fill="green" stroke="green" stroke-width="0.200935" points="1101.89,-36.2722 1106.05,-26.5283 1096.72,-31.5511 1101.89,-36.2722"/>
</g>
<!-- &#45;8&#45;&gt;3 -->
<g id="edge30" class="edge"><title>&#45;8&#45;&gt;3</title>
<path fill="none" stroke="green" stroke-width="0.330658" d="M1044.52,-77.831C1040.69,-73.8697 1035.76,-69.2089 1030.81,-65.6985 1006.52,-48.4904 975.436,-33.8774 954.638,-25.0064"/>
<polygon fill="green" stroke="green" stroke-width="0.330658" points="955.906,-21.7432 945.329,-21.1266 953.213,-28.2044 955.906,-21.7432"/>
</g>
<!-- &#45;9 -->
<g id="node9" class="node"><title>&#45;9</title>
<polygon fill="lightgray" stroke="black" points="1105.81,-95.9117 1081.81,-95.9117 1081.81,-77.9117 1105.81,-77.9117 1105.81,-95.9117"/>
<text text-anchor="middle" x="1093.81" y="-84.7117" font-family="Times New Roman,serif" font-size="9.00">&#45;9</text>
</g>
<!-- &#45;9&#45;&gt;0 -->
<g id="edge31" class="edge"><title>&#45;9&#45;&gt;0</title>
<path fill="none" stroke="red" stroke-width="0.643688" stroke-dasharray="1,5" d="M1087.23,-77.6894C1083.44,-73.4895 1078.34,-68.6547 1072.81,-65.6985 1006.6,-30.3368 977.811,-56.7775 907.807,-29.6985 906.943,-29.3644 906.074,-29.0022 905.204,-28.6181"/>
<polygon fill="red" stroke="red" stroke-width="0.643688" points="906.639,-25.4199 896.148,-23.9409 903.427,-31.6394 906.639,-25.4199"/>
</g>
<!-- &#45;9&#45;&gt;1 -->
<g id="edge32" class="edge"><title>&#45;9&#45;&gt;1</title>
<path fill="none" stroke="red" stroke-width="0.150268" d="M1086.24,-77.8746C1076.18,-67.1994 1058.13,-48.0381 1044.74,-33.8281"/>
<polygon fill="red" stroke="red" stroke-width="0.150268" points="1047.27,-31.4074 1037.87,-26.5283 1042.18,-36.2072 1047.27,-31.4074"/>
</g>
<!-- &#45;9&#45;&gt;2 -->
<g id="edge33" class="edge"><title>&#45;9&#45;&gt;2</title>
<path fill="none" stroke="green" stroke-width="0.117583" d="M1096.33,-77.8746C1099.3,-68.4226 1104.36,-52.3178 1108.57,-38.8876"/>
<polygon fill="green" stroke="green" stroke-width="0.117583" points="1111.93,-39.8825 1111.59,-29.2932 1105.25,-37.7853 1111.93,-39.8825"/>
</g>
<!-- &#45;9&#45;&gt;3 -->
<g id="edge34" class="edge"><title>&#45;9&#45;&gt;3</title>
<path fill="none" stroke="green" stroke-width="0.310733" d="M1086.7,-77.5596C1082.91,-73.5291 1077.97,-68.8883 1072.81,-65.6985 1035.22,-42.4975 985.33,-28.1194 956.081,-21.083"/>
<polygon fill="green" stroke="green" stroke-width="0.310733" points="956.831,-17.6643 946.3,-18.8201 955.254,-24.4842 956.831,-17.6643"/>
</g>
<!-- &#45;10 -->
<g id="node10" class="node"><title>&#45;10</title>
<polygon fill="lightgray" stroke="black" points="1153.31,-95.9117 1124.31,-95.9117 1124.31,-77.9117 1153.31,-77.9117 1153.31,-95.9117"/>
<text text-anchor="middle" x="1138.81" y="-84.7117" font-family="Times New Roman,serif" font-size="9.00">&#45;10</text>
</g>
<!-- &#45;10&#45;&gt;0 -->
<g id="edge35" class="edge"><title>&#45;10&#45;&gt;0</title>
<path fill="none" stroke="red" stroke-width="0.113923" d="M1131.13,-77.6072C1126.75,-73.3832 1120.93,-68.5517 1114.81,-65.6985 1030.16,-26.2558 995.597,-61.524 907.807,-29.6985 906.936,-29.3829 906.061,-29.0364 905.187,-28.6655"/>
<polygon fill="red" stroke="red" stroke-width="0.113923" points="906.607,-25.4616 896.107,-24.05 903.435,-31.7016 906.607,-25.4616"/>
</g>
<!-- &#45;10&#45;&gt;1 -->
<g id="edge36" class="edge"><title>&#45;10&#45;&gt;1</title>
<path fill="none" stroke="green" stroke-width="0.628983" d="M1129.77,-77.6366C1125.4,-73.8089 1119.99,-69.3192 1114.81,-65.6985 1093.74,-50.9707 1068.03,-36.6487 1050.05,-27.1639"/>
<polygon fill="green" stroke="green" stroke-width="0.628983" points="1051.41,-23.9298 1040.93,-22.4204 1048.18,-30.1399 1051.41,-23.9298"/>
</g>
<!-- &#45;10&#45;&gt;2 -->
<g id="edge37" class="edge"><title>&#45;10&#45;&gt;2</title>
<path fill="none" stroke="red" stroke-width="0.54089" d="M1136.17,-77.8746C1133.07,-68.4226 1127.78,-52.3178 1123.37,-38.8876"/>
<polygon fill="red" stroke="red" stroke-width="0.54089" points="1126.66,-37.7027 1120.22,-29.2932 1120.01,-39.886 1126.66,-37.7027"/>
</g>
<!-- &#45;10&#45;&gt;3 -->
<g id="edge38" class="edge"><title>&#45;10&#45;&gt;3</title>
<path fill="none" stroke="red" stroke-width="0.171953" d="M1131.02,-77.8336C1126.61,-73.6759 1120.79,-68.8355 1114.81,-65.6985 1087.05,-51.1431 999.38,-30.6698 956.251,-21.1287"/>
<polygon fill="red" stroke="red" stroke-width="0.171953" points="956.827,-17.6719 946.31,-18.9488 955.328,-24.5095 956.827,-17.6719"/>
</g>
<!-- &#45;11 -->
<g id="node11" class="node"><title>&#45;11</title>
<polygon fill="lightgray" stroke="black" points="81.307,-95.9117 52.307,-95.9117 52.307,-77.9117 81.307,-77.9117 81.307,-95.9117"/>
<text text-anchor="middle" x="66.807" y="-84.7117" font-family="Times New Roman,serif" font-size="9.00">&#45;11</text>
</g>
<!-- &#45;11&#45;&gt;0 -->
<g id="edge39" class="edge"><title>&#45;11&#45;&gt;0</title>
<path fill="none" stroke="green" stroke-width="0.166673" d="M75.7448,-77.7473C81.1407,-73.3414 88.3907,-68.2881 95.807,-65.6985 241.552,-14.8071 740.818,-14.8788 858.715,-15.631"/>
<polygon fill="green" stroke="green" stroke-width="0.166673" points="858.884,-19.1322 868.909,-15.7043 858.934,-12.1324 858.884,-19.1322"/>
</g>
<!-- &#45;11&#45;&gt;1 -->
<g id="edge40" class="edge"><title>&#45;11&#45;&gt;1</title>
<path fill="none" stroke="green" stroke-width="0.285093" d="M81.5992,-82.178C101.014,-77.4494 136.219,-69.465 166.807,-65.6985 515.207,-22.7975 607.209,-70.9589 955.807,-29.6985 971.924,-27.7908 989.847,-24.3481 1003.78,-21.3725"/>
<polygon fill="green" stroke="green" stroke-width="0.285093" points="1004.54,-24.7879 1013.56,-19.2213 1003.04,-17.9514 1004.54,-24.7879"/>
</g>
<!-- &#45;11&#45;&gt;3 -->
<g id="edge41" class="edge"><title>&#45;11&#45;&gt;3</title>
<path fill="none" stroke="red" stroke-width="0.20638" d="M75.7267,-77.6947C81.1166,-73.2713 88.3666,-68.218 95.807,-65.6985 266.886,-7.76596 734.413,-80.2806 907.807,-29.6985 908.869,-29.3886 909.934,-29.0227 910.993,-28.6132"/>
<polygon fill="red" stroke="red" stroke-width="0.20638" points="912.705,-31.6708 920.109,-24.0922 909.595,-25.3997 912.705,-31.6708"/>
</g>
<!-- &#45;12 -->
<g id="node12" class="node"><title>&#45;12</title>
<polygon fill="lightgray" stroke="black" points="1200.31,-95.9117 1171.31,-95.9117 1171.31,-77.9117 1200.31,-77.9117 1200.31,-95.9117"/>
<text text-anchor="middle" x="1185.81" y="-84.7117" font-family="Times New Roman,serif" font-size="9.00">&#45;12</text>
</g>
<!-- &#45;12&#45;&gt;0 -->
<g id="edge42" class="edge"><title>&#45;12&#45;&gt;0</title>
<path fill="none" stroke="green" stroke-width="0.180688" d="M1178.55,-77.5262C1174.38,-73.2785 1168.8,-68.4501 1162.81,-65.6985 1058.8,-17.9197 1016.02,-66.9837 907.807,-29.6985 906.931,-29.3968 906.052,-29.0622 905.174,-28.7013"/>
<polygon fill="green" stroke="green" stroke-width="0.180688" points="906.585,-25.4934 896.078,-24.1324 903.443,-31.7486 906.585,-25.4934"/>
</g>
<!-- &#45;12&#45;&gt;1 -->
<g id="edge43" class="edge"><title>&#45;12&#45;&gt;1</title>
<path fill="none" stroke="green" stroke-width="0.189229" d="M1177.87,-77.6235C1173.68,-73.6092 1168.29,-68.9638 1162.81,-65.6985 1126.84,-44.2659 1080.11,-29.5313 1052.12,-21.9103"/>
<polygon fill="green" stroke="green" stroke-width="0.189229" points="1052.93,-18.5056 1042.37,-19.3387 1051.15,-25.274 1052.93,-18.5056"/>
</g>
<!-- &#45;12&#45;&gt;2 -->
<g id="edge44" class="edge"><title>&#45;12&#45;&gt;2</title>
<path fill="none" stroke="red" stroke-width="0.446936" d="M1177.78,-77.8746C1166.99,-67.0781 1147.53,-47.6015 1133.29,-33.3456"/>
<polygon fill="red" stroke="red" stroke-width="0.446936" points="1135.54,-30.6514 1126,-26.051 1130.59,-35.599 1135.54,-30.6514"/>
</g>
<!-- &#45;12&#45;&gt;3 -->
<g id="edge45" class="edge"><title>&#45;12&#45;&gt;3</title>
<path fill="none" stroke="green" stroke-width="0.178552" d="M1178.46,-77.6974C1174.27,-73.4999 1168.69,-68.6648 1162.81,-65.6985 1153.51,-61.0155 1013.81,-32.4355 956.282,-20.7855"/>
<polygon fill="green" stroke="green" stroke-width="0.178552" points="956.734,-17.3063 946.239,-18.7549 955.347,-24.1674 956.734,-17.3063"/>
</g>
<!-- &#45;13 -->
<g id="node13" class="node"><title>&#45;13</title>
<polygon fill="lightgray" stroke="black" points="1247.31,-95.9117 1218.31,-95.9117 1218.31,-77.9117 1247.31,-77.9117 1247.31,-95.9117"/>
<text text-anchor="middle" x="1232.81" y="-84.7117" font-family="Times New Roman,serif" font-size="9.00">&#45;13</text>
</g>
<!-- &#45;13&#45;&gt;0 -->
<g id="edge46" class="edge"><title>&#45;13&#45;&gt;0</title>
<path fill="none" stroke="green" stroke-width="0.113075" d="M1225.97,-77.8852C1221.77,-73.5252 1216.02,-68.4719 1209.81,-65.6985 1086.37,-10.6025 1036.07,-72.3488 907.807,-29.6985 906.928,-29.4063 906.046,-29.0797 905.166,-28.7256"/>
<polygon fill="green" stroke="green" stroke-width="0.113075" points="906.57,-25.5152 896.059,-24.1884 903.449,-31.7806 906.57,-25.5152"/>
</g>
<!-- &#45;13&#45;&gt;1 -->
<g id="edge47" class="edge"><title>&#45;13&#45;&gt;1</title>
<path fill="none" stroke="green" stroke-width="0.292105" d="M1225.4,-77.8252C1221.19,-73.6651 1215.61,-68.825 1209.81,-65.6985 1182.35,-50.9083 1095.09,-30.5494 1052.15,-21.0824"/>
<polygon fill="green" stroke="green" stroke-width="0.292105" points="1052.77,-17.6349 1042.25,-18.9203 1051.27,-24.4737 1052.77,-17.6349"/>
</g>
<!-- &#45;13&#45;&gt;2 -->
<g id="edge48" class="edge"><title>&#45;13&#45;&gt;2</title>
<path fill="none" stroke="red" stroke-width="0.100961" d="M1224.25,-77.5316C1220.08,-73.6809 1214.88,-69.2022 1209.81,-65.6985 1186.77,-49.7894 1158.06,-35.2435 1138.47,-26.024"/>
<polygon fill="red" stroke="red" stroke-width="0.100961" points="1139.68,-22.7285 1129.13,-21.7093 1136.74,-29.0824 1139.68,-22.7285"/>
</g>
<!-- &#45;13&#45;&gt;3 -->
<g id="edge49" class="edge"><title>&#45;13&#45;&gt;3</title>
<path fill="none" stroke="green" stroke-width="0.116287" d="M1225.51,-77.6042C1221.33,-73.3793 1215.75,-68.5479 1209.81,-65.6985 1126,-25.5224 1095.22,-46.477 1003.81,-29.6985 988.099,-26.8155 970.495,-23.432 956.625,-20.731"/>
<polygon fill="green" stroke="green" stroke-width="0.116287" points="956.896,-17.2178 946.411,-18.7338 955.553,-24.0877 956.896,-17.2178"/>
</g>
<!-- &#45;14 -->
<g id="node14" class="node"><title>&#45;14</title>
<polygon fill="lightgray" stroke="black" points="1294.31,-95.9117 1265.31,-95.9117 1265.31,-77.9117 1294.31,-77.9117 1294.31,-95.9117"/>
<text text-anchor="middle" x="1279.81" y="-84.7117" font-family="Times New Roman,serif" font-size="9.00">&#45;14</text>
</g>
<!-- &#45;14&#45;&gt;0 -->
<g id="edge50" class="edge"><title>&#45;14&#45;&gt;0</title>
<path fill="none" stroke="green" stroke-width="0.382466" d="M1272.98,-77.8482C1268.79,-73.4759 1263.04,-68.4226 1256.81,-65.6985 1113.91,-3.27106 1056.16,-77.7249 907.807,-29.6985 906.754,-29.3577 905.697,-28.9664 904.645,-28.5363"/>
<polygon fill="green" stroke="green" stroke-width="0.382466" points="906.055,-25.3278 895.552,-23.9399 902.897,-31.5749 906.055,-25.3278"/>
</g>
<!-- &#45;14&#45;&gt;1 -->
<g id="edge51" class="edge"><title>&#45;14&#45;&gt;1</title>
<path fill="none" stroke="green" stroke-width="0.451296" d="M1272.46,-77.7017C1268.27,-73.5054 1262.69,-68.6701 1256.81,-65.6985 1256.23,-65.4057 1110.75,-33.8369 1052,-21.0943"/>
<polygon fill="green" stroke="green" stroke-width="0.451296" points="1052.6,-17.6449 1042.09,-18.9459 1051.12,-24.4859 1052.6,-17.6449"/>
</g>
<!-- &#45;14&#45;&gt;2 -->
<g id="edge52" class="edge"><title>&#45;14&#45;&gt;2</title>
<path fill="none" stroke="green" stroke-width="0.355816" d="M1271.89,-77.5912C1267.71,-73.5687 1262.31,-68.9256 1256.81,-65.6985 1218.71,-43.3548 1168.98,-28.6947 1139.91,-21.3726"/>
<polygon fill="green" stroke="green" stroke-width="0.355816" points="1140.73,-17.9713 1130.19,-19.0063 1139.08,-24.7727 1140.73,-17.9713"/>
</g>
<!-- &#45;14&#45;&gt;3 -->
<g id="edge53" class="edge"><title>&#45;14&#45;&gt;3</title>
<path fill="none" stroke="red" stroke-width="0.195918" d="M1272.54,-77.5288C1268.38,-73.2819 1262.8,-68.4534 1256.81,-65.6985 1153.62,-18.2307 1115.83,-48.4307 1003.81,-29.6985 988.056,-27.0645 970.45,-23.686 956.591,-20.9253"/>
<polygon fill="red" stroke="red" stroke-width="0.195918" points="956.881,-17.4134 946.387,-18.8697 955.499,-24.2756 956.881,-17.4134"/>
</g>
<!-- &#45;15 -->
<g id="node15" class="node"><title>&#45;15</title>
<polygon fill="lightgray" stroke="black" points="1341.31,-95.9117 1312.31,-95.9117 1312.31,-77.9117 1341.31,-77.9117 1341.31,-95.9117"/>
<text text-anchor="middle" x="1326.81" y="-84.7117" font-family="Times New Roman,serif" font-size="9.00">&#45;15</text>
</g>
<!-- &#45;15&#45;&gt;0 -->
<g id="edge54" class="edge"><title>&#45;15&#45;&gt;0</title>
<path fill="none" stroke="red" stroke-width="0.195083" d="M1320,-77.8198C1315.81,-73.438 1310.06,-68.3847 1303.81,-65.6985 1141.44,4.0694 1076.27,-83.108 907.807,-29.6985 906.752,-29.3641 905.693,-28.978 904.64,-28.5522"/>
<polygon fill="red" stroke="red" stroke-width="0.195083" points="906.048,-25.3426 895.542,-23.9714 902.899,-31.5947 906.048,-25.3426"/>
</g>
<!-- &#45;15&#45;&gt;1 -->
<g id="edge55" class="edge"><title>&#45;15&#45;&gt;1</title>
<path fill="none" stroke="green" stroke-width="0.365855" d="M1319.51,-77.5928C1315.34,-73.3646 1309.76,-68.5336 1303.81,-65.6985 1217.53,-24.5935 1185.65,-47.8096 1091.81,-29.6985 1078.73,-27.1749 1064.22,-24.061 1052.33,-21.4255"/>
<polygon fill="green" stroke="green" stroke-width="0.365855" points="1052.78,-17.9401 1042.26,-19.1702 1051.25,-24.771 1052.78,-17.9401"/>
</g>
<!-- &#45;15&#45;&gt;2 -->
<g id="edge56" class="edge"><title>&#45;15&#45;&gt;2</title>
<path fill="none" stroke="green" stroke-width="0.230839" d="M1319.41,-77.8063C1315.2,-73.6407 1309.62,-68.8013 1303.81,-65.6985 1249.71,-36.8382 1177.77,-23.8398 1140.52,-18.7213"/>
<polygon fill="green" stroke="green" stroke-width="0.230839" points="1140.92,-15.2439 1130.55,-17.4282 1140.02,-22.1857 1140.92,-15.2439"/>
</g>
<!-- &#45;15&#45;&gt;3 -->
<g id="edge57" class="edge"><title>&#45;15&#45;&gt;3</title>
<path fill="none" stroke="green" stroke-width="0.109771" d="M1319.97,-77.887C1315.77,-73.5277 1310.02,-68.4744 1303.81,-65.6985 1181.2,-10.9142 1136.49,-50.3943 1003.81,-29.6985 987.771,-27.1973 969.849,-23.7522 955.897,-20.9239"/>
<polygon fill="green" stroke="green" stroke-width="0.109771" points="956.599,-17.4951 946.099,-18.9071 955.188,-24.3513 956.599,-17.4951"/>
</g>
<!-- &#45;16 -->
<g id="node16" class="node"><title>&#45;16</title>
<polygon fill="lightgray" stroke="black" points="1388.31,-95.9117 1359.31,-95.9117 1359.31,-77.9117 1388.31,-77.9117 1388.31,-95.9117"/>
<text text-anchor="middle" x="1373.81" y="-84.7117" font-family="Times New Roman,serif" font-size="9.00">&#45;16</text>
</g>
<!-- &#45;16&#45;&gt;0 -->
<g id="edge58" class="edge"><title>&#45;16&#45;&gt;0</title>
<path fill="none" stroke="green" stroke-width="0.632461" d="M1367.01,-77.7973C1362.82,-73.4081 1357.07,-68.3548 1350.81,-65.6985 1168.94,11.4159 1096.39,-88.4957 907.807,-29.6985 906.751,-29.3692 905.691,-28.9872 904.636,-28.5648"/>
<polygon fill="green" stroke="green" stroke-width="0.632461" points="906.041,-25.3543 895.534,-23.9963 902.901,-31.6104 906.041,-25.3543"/>
</g>
<!-- &#45;16&#45;&gt;1 -->
<g id="edge59" class="edge"><title>&#45;16&#45;&gt;1</title>
<path fill="none" stroke="green" stroke-width="0.224343" d="M1366.55,-77.5211C1362.38,-73.2719 1356.8,-68.4437 1350.81,-65.6985 1245.15,-17.2978 1206.24,-50.0027 1091.81,-29.6985 1078.69,-27.3719 1064.18,-24.2748 1052.3,-21.5994"/>
<polygon fill="green" stroke="green" stroke-width="0.224343" points="1052.76,-18.1158 1042.23,-19.2952 1051.2,-24.9392 1052.76,-18.1158"/>
</g>
<!-- &#45;16&#45;&gt;2 -->
<g id="edge60" class="edge"><title>&#45;16&#45;&gt;2</title>
<path fill="none" stroke="green" stroke-width="0.139902" d="M1366.47,-77.6892C1362.28,-73.4892 1356.7,-68.6545 1350.81,-65.6985 1280.19,-30.2674 1185.39,-19.9768 1140.88,-17.0209"/>
<polygon fill="green" stroke="green" stroke-width="0.139902" points="1140.88,-13.5149 1130.69,-16.4166 1140.47,-20.5026 1140.88,-13.5149"/>
</g>
<!-- &#45;16&#45;&gt;3 -->
<g id="edge61" class="edge"><title>&#45;16&#45;&gt;3</title>
<path fill="none" stroke="red" stroke-width="0.284379" d="M1366.98,-77.8495C1362.79,-73.4777 1357.04,-68.4244 1350.81,-65.6985 1208.74,-3.58325 1157.19,-52.3633 1003.81,-29.6985 987.752,-27.3261 969.829,-23.8815 955.882,-21.0212"/>
<polygon fill="red" stroke="red" stroke-width="0.284379" points="956.593,-17.5942 946.088,-18.9752 955.161,-24.4463 956.593,-17.5942"/>
</g>
<!-- &#45;17 -->
<g id="node17" class="node"><title>&#45;17</title>
<polygon fill="lightgray" stroke="black" points="1435.31,-95.9117 1406.31,-95.9117 1406.31,-77.9117 1435.31,-77.9117 1435.31,-95.9117"/>
<text text-anchor="middle" x="1420.81" y="-84.7117" font-family="Times New Roman,serif" font-size="9.00">&#45;17</text>
</g>
<!-- &#45;17&#45;&gt;0 -->
<g id="edge62" class="edge"><title>&#45;17&#45;&gt;0</title>
<path fill="none" stroke="green" stroke-width="0.224178" d="M1414.01,-77.7791C1409.83,-73.3838 1404.08,-68.3305 1397.81,-65.6985 1196.44,18.7668 1116.52,-93.8867 907.807,-29.6985 906.749,-29.3732 905.688,-28.9947 904.632,-28.5749"/>
<polygon fill="green" stroke="green" stroke-width="0.224178" points="906.037,-25.3638 895.528,-24.0164 902.903,-31.6231 906.037,-25.3638"/>
</g>
<!-- &#45;17&#45;&gt;1 -->
<g id="edge63" class="edge"><title>&#45;17&#45;&gt;1</title>
<path fill="none" stroke="green" stroke-width="0.479168" d="M1413.97,-77.8816C1409.77,-73.5205 1404.02,-68.4672 1397.81,-65.6985 1272.72,-9.979 1226.88,-52.2055 1091.81,-29.6985 1078.59,-27.4954 1063.97,-24.3839 1052.04,-21.6681"/>
<polygon fill="green" stroke="green" stroke-width="0.479168" points="1052.5,-18.181 1041.97,-19.3226 1050.91,-24.9987 1052.5,-18.181"/>
</g>
<!-- &#45;17&#45;&gt;2 -->
<g id="edge64" class="edge"><title>&#45;17&#45;&gt;2</title>
<path fill="none" stroke="red" stroke-width="0.310188" d="M1413.51,-77.6088C1409.33,-73.3853 1403.75,-68.5537 1397.81,-65.6985 1310.14,-23.5667 1191.76,-16.7174 1140.82,-15.8296"/>
<polygon fill="red" stroke="red" stroke-width="0.310188" points="1140.77,-12.329 1130.74,-15.7189 1140.7,-19.3286 1140.77,-12.329"/>
</g>
<!-- &#45;17&#45;&gt;3 -->
<g id="edge65" class="edge"><title>&#45;17&#45;&gt;3</title>
<path fill="none" stroke="red" stroke-width="0.211424" d="M1414,-77.8208C1409.81,-73.4395 1404.06,-68.3862 1397.81,-65.6985 1236.26,3.7569 1177.91,-54.3357 1003.81,-29.6985 987.737,-27.4245 969.815,-23.9803 955.871,-21.0956"/>
<polygon fill="red" stroke="red" stroke-width="0.211424" points="956.588,-17.6699 946.081,-19.0274 955.141,-24.5187 956.588,-17.6699"/>
</g>
<!-- &#45;18 -->
<g id="node18" class="node"><title>&#45;18</title>
<polygon fill="lightgray" stroke="black" points="1802.31,-162.125 1773.31,-162.125 1773.31,-144.125 1802.31,-144.125 1802.31,-162.125"/>
<text text-anchor="middle" x="1787.81" y="-150.925" font-family="Times New Roman,serif" font-size="9.00">&#45;18</text>
</g>
<!-- &#45;18&#45;&gt;0 -->
<g id="edge66" class="edge"><title>&#45;18&#45;&gt;0</title>
<path fill="none" stroke="red" stroke-width="0.161728" d="M1773.25,-152.047C1605.45,-151.12 42.4531,-141.589 9.80702,-108.125 -3.36035,-94.6276 -3.14113,-79.4062 9.80702,-65.6985 39.7507,-33.9983 718.626,-19.0691 858.675,-16.321"/>
<polygon fill="red" stroke="red" stroke-width="0.161728" points="858.913,-19.8172 868.843,-16.1245 858.778,-12.8185 858.913,-19.8172"/>
</g>
<!-- &#45;18&#45;&gt;1 -->
<g id="edge67" class="edge"><title>&#45;18&#45;&gt;1</title>
<path fill="none" stroke="green" stroke-width="0.384645" d="M1788.87,-144.121C1790.67,-126.732 1792.12,-85.4814 1768.81,-65.6985 1711.38,-16.9541 1166.47,-39.6964 1091.81,-29.6985 1078.52,-27.9195 1063.9,-24.8414 1051.99,-22.0383"/>
<polygon fill="green" stroke="green" stroke-width="0.384645" points="1052.47,-18.5539 1041.93,-19.5864 1050.81,-25.3549 1052.47,-18.5539"/>
</g>
<!-- &#45;18&#45;&gt;2 -->
<g id="edge68" class="edge"><title>&#45;18&#45;&gt;2</title>
<path fill="none" stroke="green" stroke-width="0.145669" d="M1802.34,-150.167C1837.19,-145.143 1923.89,-130.591 1940.81,-108.125 1952.15,-93.0613 1953.73,-79.428 1940.81,-65.6985 1912.68,-35.8155 1275.73,-19.5273 1140.78,-16.4052"/>
<polygon fill="green" stroke="green" stroke-width="0.145669" points="1140.7,-12.9024 1130.62,-16.1731 1140.54,-19.9006 1140.7,-12.9024"/>
</g>
<!-- &#45;18&#45;&gt;3 -->
<g id="edge69" class="edge"><title>&#45;18&#45;&gt;3</title>
<path fill="none" stroke="red" stroke-width="0.188002" d="M1773.28,-152.02C1612.17,-150.825 164.086,-139.22 133.807,-108.125 120.652,-94.6154 120.787,-79.338 133.807,-65.6985 193.253,-3.4234 825.185,-53.8981 907.807,-29.6985 908.869,-29.3875 909.934,-29.0206 910.992,-28.6103"/>
<polygon fill="red" stroke="red" stroke-width="0.188002" points="912.706,-31.6673 920.107,-24.0865 909.594,-25.397 912.706,-31.6673"/>
</g>
<!-- 181 -->
<g id="node46" class="node"><title>181</title>
<ellipse fill="white" stroke="black" cx="2008.81" cy="-86.9117" rx="21.4286" ry="21.4286"/>
<text text-anchor="middle" x="2008.81" y="-84.7117" font-family="Times New Roman,serif" font-size="9.00">181</text>
</g>
<!-- &#45;18&#45;&gt;181 -->
<g id="edge156" class="edge"><title>&#45;18&#45;&gt;181</title>
<path fill="none" stroke="red" stroke-width="0.201449" d="M1802.72,-150.107C1834.87,-145.434 1912.74,-132.374 1973.81,-108.125 1976.71,-106.971 1979.67,-105.606 1982.57,-104.139"/>
<polygon fill="red" stroke="red" stroke-width="0.201449" points="1984.42,-107.114 1991.51,-99.2362 1981.05,-100.976 1984.42,-107.114"/>
</g>
<!-- &#45;19 -->
<g id="node19" class="node"><title>&#45;19</title>
<polygon fill="lightgray" stroke="black" points="1482.31,-95.9117 1453.31,-95.9117 1453.31,-77.9117 1482.31,-77.9117 1482.31,-95.9117"/>
<text text-anchor="middle" x="1467.81" y="-84.7117" font-family="Times New Roman,serif" font-size="9.00">&#45;19</text>
</g>
<!-- &#45;19&#45;&gt;0 -->
<g id="edge70" class="edge"><title>&#45;19&#45;&gt;0</title>
<path fill="none" stroke="green" stroke-width="0.471258" d="M1461.02,-77.764C1456.84,-73.3637 1451.09,-68.3104 1444.81,-65.6985 1223.93,26.1207 1136.67,-99.2801 907.807,-29.6985 906.748,-29.3766 905.686,-29.0008 904.63,-28.5833"/>
<polygon fill="green" stroke="green" stroke-width="0.471258" points="906.033,-25.3717 895.523,-24.0331 902.904,-31.6336 906.033,-25.3717"/>
</g>
<!-- &#45;19&#45;&gt;1 -->
<g id="edge71" class="edge"><title>&#45;19&#45;&gt;1</title>
<path fill="none" stroke="green" stroke-width="0.321346" stroke-dasharray="1,5" d="M1460.98,-77.8455C1456.79,-73.4723 1451.04,-68.419 1444.81,-65.6985 1300.26,-2.64664 1247.56,-54.4139 1091.81,-29.6985 1078.57,-27.5978 1063.95,-24.4944 1052.03,-21.7575"/>
<polygon fill="green" stroke="green" stroke-width="0.321346" points="1052.49,-18.2711 1041.96,-19.3863 1050.89,-25.0849 1052.49,-18.2711"/>
</g>
<!-- &#45;19&#45;&gt;2 -->
<g id="edge72" class="edge"><title>&#45;19&#45;&gt;2</title>
<path fill="none" stroke="red" stroke-width="0.27579" d="M1460.53,-77.5504C1456.37,-73.3098 1450.78,-68.4804 1444.81,-65.6985 1390.48,-40.4094 1208.16,-23.3718 1140.96,-17.8191"/>
<polygon fill="red" stroke="red" stroke-width="0.27579" points="1141.09,-14.319 1130.84,-16.9991 1140.53,-21.2961 1141.09,-14.319"/>
</g>
<!-- &#45;19&#45;&gt;3 -->
<g id="edge73" class="edge"><title>&#45;19&#45;&gt;3</title>
<path fill="none" stroke="green" stroke-width="0.254129" d="M1461.01,-77.7982C1456.82,-73.4092 1451.07,-68.3559 1444.81,-65.6985 1354.29,-27.2976 1101.23,-43.0044 1003.81,-29.6985 987.727,-27.5022 969.804,-24.0583 955.863,-21.1543"/>
<polygon fill="green" stroke="green" stroke-width="0.254129" points="956.585,-17.7296 946.075,-19.0685 955.126,-24.5759 956.585,-17.7296"/>
</g>
<!-- &#45;20 -->
<g id="node20" class="node"><title>&#45;20</title>
<polygon fill="lightgray" stroke="black" points="1931.31,-95.9117 1902.31,-95.9117 1902.31,-77.9117 1931.31,-77.9117 1931.31,-95.9117"/>
<text text-anchor="middle" x="1916.81" y="-84.7117" font-family="Times New Roman,serif" font-size="9.00">&#45;20</text>
</g>
<!-- &#45;20&#45;&gt;1 -->
<g id="edge74" class="edge"><title>&#45;20&#45;&gt;1</title>
<path fill="none" stroke="red" stroke-width="0.38919" d="M1907.89,-77.6972C1902.5,-73.2746 1895.25,-68.2213 1887.81,-65.6985 1720.12,-8.83065 1267.4,-52.5039 1091.81,-29.6985 1078.51,-27.9722 1063.89,-24.8982 1051.98,-22.0842"/>
<polygon fill="red" stroke="red" stroke-width="0.38919" points="1052.47,-18.6002 1041.92,-19.6192 1050.8,-25.399 1052.47,-18.6002"/>
</g>
<!-- &#45;20&#45;&gt;2 -->
<g id="edge75" class="edge"><title>&#45;20&#45;&gt;2</title>
<path fill="none" stroke="red" stroke-width="0.187418" d="M1907.87,-77.7509C1902.47,-73.3463 1895.22,-68.293 1887.81,-65.6985 1745.2,-15.7968 1256.95,-15.1052 1140.76,-15.6698"/>
<polygon fill="red" stroke="red" stroke-width="0.187418" points="1140.69,-12.1701 1130.71,-15.7267 1140.73,-19.1699 1140.69,-12.1701"/>
</g>
<!-- &#45;20&#45;&gt;3 -->
<g id="edge76" class="edge"><title>&#45;20&#45;&gt;3</title>
<path fill="none" stroke="red" stroke-width="0.113568" d="M1901.82,-79.7449C1889.44,-74.9675 1871.3,-68.6771 1854.81,-65.6985 1482.28,1.59669 1379.82,-73.5709 1003.81,-29.6985 987.687,-27.8176 969.764,-24.3749 955.833,-21.3927"/>
<polygon fill="red" stroke="red" stroke-width="0.113568" points="956.573,-17.9719 946.054,-19.2355 955.065,-24.8076 956.573,-17.9719"/>
</g>
<!-- &#45;21 -->
<g id="node21" class="node"><title>&#45;21</title>
<polygon fill="lightgray" stroke="black" points="1529.31,-95.9117 1500.31,-95.9117 1500.31,-77.9117 1529.31,-77.9117 1529.31,-95.9117"/>
<text text-anchor="middle" x="1514.81" y="-84.7117" font-family="Times New Roman,serif" font-size="9.00">&#45;21</text>
</g>
<!-- &#45;21&#45;&gt;0 -->
<g id="edge77" class="edge"><title>&#45;21&#45;&gt;0</title>
<path fill="none" stroke="green" stroke-width="0.576184" d="M1508.02,-77.7514C1503.85,-73.3468 1498.1,-68.2935 1491.81,-65.6985 1371.61,-16.1107 1032.31,-67.1869 907.807,-29.6985 906.748,-29.3795 905.685,-29.006 904.628,-28.5904"/>
<polygon fill="green" stroke="green" stroke-width="0.576184" points="906.029,-25.3783 895.518,-24.0471 902.905,-31.6424 906.029,-25.3783"/>
</g>
<!-- &#45;21&#45;&gt;1 -->
<g id="edge78" class="edge"><title>&#45;21&#45;&gt;1</title>
<path fill="none" stroke="red" stroke-width="0.276001" d="M1508,-77.8177C1503.81,-73.4352 1498.06,-68.3819 1491.81,-65.6985 1327.78,4.69443 1268.26,-56.6256 1091.81,-29.6985 1078.56,-27.6764 1063.94,-24.5792 1052.02,-21.8261"/>
<polygon fill="red" stroke="red" stroke-width="0.276001" points="1052.49,-18.3403 1041.95,-19.4352 1050.87,-25.1509 1052.49,-18.3403"/>
</g>
<!-- &#45;21&#45;&gt;2 -->
<g id="edge79" class="edge"><title>&#45;21&#45;&gt;2</title>
<path fill="none" stroke="green" stroke-width="0.482724" d="M1507.56,-77.506C1503.39,-73.2524 1497.81,-68.4248 1491.81,-65.6985 1428.65,-37.0084 1214.78,-21.7782 1141.04,-17.2853"/>
<polygon fill="green" stroke="green" stroke-width="0.482724" points="1141.03,-13.7781 1130.84,-16.6778 1140.61,-20.7657 1141.03,-13.7781"/>
</g>
<!-- &#45;21&#45;&gt;3 -->
<g id="edge80" class="edge"><title>&#45;21&#45;&gt;3</title>
<path fill="none" stroke="red" stroke-width="0.133809" d="M1508.01,-77.7798C1503.83,-73.3847 1498.08,-68.3314 1491.81,-65.6985 1391.54,-23.6223 1111.6,-43.9924 1003.81,-29.6985 987.718,-27.5651 969.796,-24.1214 955.857,-21.2018"/>
<polygon fill="red" stroke="red" stroke-width="0.133809" points="956.582,-17.7779 946.071,-19.1018 955.114,-24.6221 956.582,-17.7779"/>
</g>
<!-- &#45;22 -->
<g id="node22" class="node"><title>&#45;22</title>
<polygon fill="lightgray" stroke="black" points="1576.31,-95.9117 1547.31,-95.9117 1547.31,-77.9117 1576.31,-77.9117 1576.31,-95.9117"/>
<text text-anchor="middle" x="1561.81" y="-84.7117" font-family="Times New Roman,serif" font-size="9.00">&#45;22</text>
</g>
<!-- &#45;22&#45;&gt;0 -->
<g id="edge81" class="edge"><title>&#45;22&#45;&gt;0</title>
<path fill="none" stroke="green" stroke-width="0.507269" d="M1555.03,-77.7406C1550.85,-73.3324 1545.1,-68.2791 1538.81,-65.6985 1408.85,-12.4316 1042.39,-69.8851 907.807,-29.6985 906.747,-29.3819 905.683,-29.0104 904.626,-28.5964"/>
<polygon fill="green" stroke="green" stroke-width="0.507269" points="906.027,-25.384 895.515,-24.059 902.906,-31.65 906.027,-25.384"/>
</g>
<!-- &#45;22&#45;&gt;1 -->
<g id="edge82" class="edge"><title>&#45;22&#45;&gt;1</title>
<path fill="none" stroke="green" stroke-width="0.231665" d="M1555.01,-77.7956C1550.82,-73.4058 1545.07,-68.3525 1538.81,-65.6985 1447.05,-26.8285 1190.39,-44.269 1091.81,-29.6985 1078.55,-27.7387 1063.93,-24.6464 1052.01,-21.8805"/>
<polygon fill="green" stroke="green" stroke-width="0.231665" points="1052.48,-18.3951 1041.94,-19.4739 1050.85,-25.2032 1052.48,-18.3951"/>
</g>
<!-- &#45;22&#45;&gt;2 -->
<g id="edge83" class="edge"><title>&#45;22&#45;&gt;2</title>
<path fill="none" stroke="green" stroke-width="0.488125" d="M1554.97,-77.8821C1550.77,-73.5211 1545.02,-68.4678 1538.81,-65.6985 1466.72,-33.5783 1220.75,-20.3649 1140.99,-16.8604"/>
<polygon fill="green" stroke="green" stroke-width="0.488125" points="1141.02,-13.3584 1130.88,-16.4294 1140.72,-20.3521 1141.02,-13.3584"/>
</g>
<!-- &#45;22&#45;&gt;3 -->
<g id="edge84" class="edge"><title>&#45;22&#45;&gt;3</title>
<path fill="none" stroke="green" stroke-width="0.805228" d="M1555.02,-77.7646C1550.84,-73.3645 1545.09,-68.3112 1538.81,-65.6985 1428.78,-19.9454 1121.98,-44.981 1003.81,-29.6985 987.711,-27.617 969.789,-24.1735 955.852,-21.2411"/>
<polygon fill="green" stroke="green" stroke-width="0.805228" points="956.58,-17.8178 946.067,-19.1292 955.104,-24.6603 956.58,-17.8178"/>
</g>
<!-- &#45;23 -->
<g id="node23" class="node"><title>&#45;23</title>
<polygon fill="lightgray" stroke="black" points="1623.31,-95.9117 1594.31,-95.9117 1594.31,-77.9117 1623.31,-77.9117 1623.31,-95.9117"/>
<text text-anchor="middle" x="1608.81" y="-84.7117" font-family="Times New Roman,serif" font-size="9.00">&#45;23</text>
</g>
<!-- &#45;23&#45;&gt;0 -->
<g id="edge85" class="edge"><title>&#45;23&#45;&gt;0</title>
<path fill="none" stroke="red" stroke-width="0.17398" d="M1602.03,-77.7312C1597.86,-73.32 1592.11,-68.2667 1585.81,-65.6985 1446.09,-8.75181 1052.46,-72.584 907.807,-29.6985 906.746,-29.384 905.682,-29.0142 904.624,-28.6016"/>
<polygon fill="red" stroke="red" stroke-width="0.17398" points="906.024,-25.3889 895.512,-24.0693 902.907,-31.6564 906.024,-25.3889"/>
</g>
<!-- &#45;23&#45;&gt;1 -->
<g id="edge86" class="edge"><title>&#45;23&#45;&gt;1</title>
<path fill="none" stroke="red" stroke-width="0.196088" d="M1602.01,-77.7777C1597.83,-73.3819 1592.08,-68.3286 1585.81,-65.6985 1484.29,-23.153 1200.75,-45.3768 1091.81,-29.6985 1078.54,-27.7892 1063.92,-24.7009 1052,-21.9246"/>
<polygon fill="red" stroke="red" stroke-width="0.196088" points="1052.48,-18.4395 1041.94,-19.5054 1050.84,-25.2456 1052.48,-18.4395"/>
</g>
<!-- &#45;23&#45;&gt;2 -->
<g id="edge87" class="edge"><title>&#45;23&#45;&gt;2</title>
<path fill="none" stroke="green" stroke-width="0.301004" d="M1601.98,-77.8549C1597.79,-73.4849 1592.04,-68.4316 1585.81,-65.6985 1504.64,-30.0983 1225.77,-19.0835 1140.66,-16.5118"/>
<polygon fill="green" stroke="green" stroke-width="0.301004" points="1140.72,-13.0121 1130.62,-16.221 1140.52,-20.0091 1140.72,-13.0121"/>
</g>
<!-- &#45;23&#45;&gt;3 -->
<g id="edge88" class="edge"><title>&#45;23&#45;&gt;3</title>
<path fill="none" stroke="green" stroke-width="0.194912" d="M1602.02,-77.7519C1597.85,-73.3475 1592.1,-68.2942 1585.81,-65.6985 1466.03,-16.2672 1132.36,-45.97 1003.81,-29.6985 987.706,-27.6605 969.783,-24.2172 955.848,-21.274"/>
<polygon fill="green" stroke="green" stroke-width="0.194912" points="956.579,-17.8513 946.064,-19.1523 955.095,-24.6923 956.579,-17.8513"/>
</g>
<!-- &#45;24 -->
<g id="node24" class="node"><title>&#45;24</title>
<polygon fill="lightgray" stroke="black" points="1888.31,-162.125 1859.31,-162.125 1859.31,-144.125 1888.31,-144.125 1888.31,-162.125"/>
<text text-anchor="middle" x="1873.81" y="-150.925" font-family="Times New Roman,serif" font-size="9.00">&#45;24</text>
</g>
<!-- &#45;24&#45;&gt;0 -->
<g id="edge89" class="edge"><title>&#45;24&#45;&gt;0</title>
<path fill="none" stroke="green" stroke-width="0.45118" d="M1859.07,-149.768C1846.54,-147.873 1828.04,-145.334 1811.81,-144.125 1762.79,-140.475 77.2053,-143.23 42.807,-108.125 29.61,-94.6566 29.8742,-79.4206 42.807,-65.6985 71.4999,-35.2545 720.784,-19.4082 858.345,-16.3862"/>
<polygon fill="green" stroke="green" stroke-width="0.45118" points="858.787,-19.8776 868.708,-16.1618 858.635,-12.8792 858.787,-19.8776"/>
</g>
<!-- &#45;24&#45;&gt;1 -->
<g id="edge90" class="edge"><title>&#45;24&#45;&gt;1</title>
<path fill="none" stroke="red" stroke-width="0.147165" d="M1874.88,-144.111C1876.69,-126.701 1878.17,-85.4117 1854.81,-65.6985 1789.94,-10.9722 1175.96,-40.7116 1091.81,-29.6985 1078.52,-27.9592 1063.89,-24.8842 1051.98,-22.0729"/>
<polygon fill="red" stroke="red" stroke-width="0.147165" points="1052.47,-18.5888 1041.92,-19.6111 1050.8,-25.3881 1052.47,-18.5888"/>
</g>
<!-- &#45;24&#45;&gt;2 -->
<g id="edge91" class="edge"><title>&#45;24&#45;&gt;2</title>
<path fill="none" stroke="green" stroke-width="0.243809" stroke-dasharray="1,5" d="M1888.37,-150.484C1925.16,-146.008 2020.25,-132.281 2038.81,-108.125 2050.29,-93.1722 2051.78,-79.3866 2038.81,-65.6985 2007.04,-32.1699 1285.75,-18.628 1140.98,-16.2431"/>
<polygon fill="green" stroke="green" stroke-width="0.243809" points="1140.91,-12.7417 1130.86,-16.0793 1140.8,-19.7408 1140.91,-12.7417"/>
</g>
<!-- &#45;24&#45;&gt;3 -->
<g id="edge92" class="edge"><title>&#45;24&#45;&gt;3</title>
<path fill="none" stroke="red" stroke-width="0.323037" d="M1859.07,-149.774C1846.54,-147.883 1828.04,-145.346 1811.81,-144.125 1766.23,-140.696 198.77,-140.795 166.807,-108.125 153.62,-94.6465 153.801,-79.3515 166.807,-65.6985 223.662,-6.0139 828.724,-52.9503 907.807,-29.6985 908.869,-29.3864 909.933,-29.0186 910.991,-28.6076"/>
<polygon fill="red" stroke="red" stroke-width="0.323037" points="912.706,-31.6639 920.106,-24.0811 909.593,-25.3944 912.706,-31.6639"/>
</g>
<!-- 401 -->
<g id="node45" class="node"><title>401</title>
<ellipse fill="white" stroke="black" cx="2106.81" cy="-86.9117" rx="21.4286" ry="21.4286"/>
<text text-anchor="middle" x="2106.81" y="-84.7117" font-family="Times New Roman,serif" font-size="9.00">401</text>
</g>
<!-- &#45;24&#45;&gt;401 -->
<g id="edge158" class="edge"><title>&#45;24&#45;&gt;401</title>
<path fill="none" stroke="red" stroke-width="0.684094" d="M1888.66,-150.397C1922.24,-146.157 2006.18,-133.671 2071.81,-108.125 2074.72,-106.991 2077.68,-105.639 2080.58,-104.18"/>
<polygon fill="red" stroke="red" stroke-width="0.684094" points="2082.43,-107.157 2089.53,-99.2866 2079.07,-101.016 2082.43,-107.157"/>
</g>
<!-- &#45;25 -->
<g id="node25" class="node"><title>&#45;25</title>
<polygon fill="lightgray" stroke="black" points="1670.31,-95.9117 1641.31,-95.9117 1641.31,-77.9117 1670.31,-77.9117 1670.31,-95.9117"/>
<text text-anchor="middle" x="1655.81" y="-84.7117" font-family="Times New Roman,serif" font-size="9.00">&#45;25</text>
</g>
<!-- &#45;25&#45;&gt;0 -->
<g id="edge93" class="edge"><title>&#45;25&#45;&gt;0</title>
<path fill="none" stroke="red" stroke-width="0.412547" d="M1649.04,-77.7231C1644.86,-73.3092 1639.11,-68.2559 1632.81,-65.6985 1483.32,-5.07142 1062.54,-75.2832 907.807,-29.6985 906.746,-29.3858 905.681,-29.0175 904.623,-28.6062"/>
<polygon fill="red" stroke="red" stroke-width="0.412547" points="906.022,-25.3931 895.509,-24.0783 902.908,-31.6621 906.022,-25.3931"/>
</g>
<!-- &#45;25&#45;&gt;1 -->
<g id="edge94" class="edge"><title>&#45;25&#45;&gt;1</title>
<path fill="none" stroke="green" stroke-width="0.202356" d="M1649.02,-77.7629C1644.84,-73.3621 1639.09,-68.3088 1632.81,-65.6985 1521.54,-19.4759 1211.12,-46.4852 1091.81,-29.6985 1078.53,-27.831 1063.91,-24.746 1052,-21.961"/>
<polygon fill="green" stroke="green" stroke-width="0.202356" points="1052.48,-18.4762 1041.93,-19.5314 1050.83,-25.2807 1052.48,-18.4762"/>
</g>
<!-- &#45;25&#45;&gt;2 -->
<g id="edge95" class="edge"><title>&#45;25&#45;&gt;2</title>
<path fill="none" stroke="red" stroke-width="0.313066" d="M1648.99,-77.8326C1644.8,-73.4551 1639.05,-68.4018 1632.81,-65.6985 1542.84,-26.7514 1232.75,-18.0028 1141.35,-16.2507"/>
<polygon fill="red" stroke="red" stroke-width="0.313066" points="1141.15,-12.7466 1131.09,-16.0663 1141.02,-19.7455 1141.15,-12.7466"/>
</g>
<!-- &#45;25&#45;&gt;3 -->
<g id="edge96" class="edge"><title>&#45;25&#45;&gt;3</title>
<path fill="none" stroke="green" stroke-width="0.129656" d="M1649.03,-77.741C1644.85,-73.333 1639.1,-68.2797 1632.81,-65.6985 1503.27,-12.5882 1142.75,-46.9593 1003.81,-29.6985 987.701,-27.6976 969.779,-24.2545 955.844,-21.302"/>
<polygon fill="green" stroke="green" stroke-width="0.129656" points="956.577,-17.8798 946.062,-19.1719 955.088,-24.7195 956.577,-17.8798"/>
</g>
<!-- &#45;26 -->
<g id="node26" class="node"><title>&#45;26</title>
<polygon fill="lightgray" stroke="black" points="1717.31,-95.9117 1688.31,-95.9117 1688.31,-77.9117 1717.31,-77.9117 1717.31,-95.9117"/>
<text text-anchor="middle" x="1702.81" y="-84.7117" font-family="Times New Roman,serif" font-size="9.00">&#45;26</text>
</g>
<!-- &#45;26&#45;&gt;0 -->
<g id="edge97" class="edge"><title>&#45;26&#45;&gt;0</title>
<path fill="none" stroke="green" stroke-width="0.556464" d="M1696.04,-77.716C1691.87,-73.2997 1686.12,-68.2464 1679.81,-65.6985 1520.56,-1.39056 1072.62,-77.9828 907.807,-29.6985 906.745,-29.3874 905.68,-29.0204 904.622,-28.6101"/>
<polygon fill="green" stroke="green" stroke-width="0.556464" points="906.02,-25.3969 895.507,-24.0862 902.908,-31.6671 906.02,-25.3969"/>
</g>
<!-- &#45;26&#45;&gt;1 -->
<g id="edge98" class="edge"><title>&#45;26&#45;&gt;1</title>
<path fill="none" stroke="red" stroke-width="0.194468" d="M1696.03,-77.7504C1691.85,-73.3455 1686.1,-68.2922 1679.81,-65.6985 1558.78,-15.7976 1221.49,-47.5939 1091.81,-29.6985 1078.53,-27.8662 1063.91,-24.7839 1051.99,-21.9917"/>
<polygon fill="red" stroke="red" stroke-width="0.194468" points="1052.47,-18.5071 1041.93,-19.5533 1050.83,-25.3102 1052.47,-18.5071"/>
</g>
<!-- &#45;26&#45;&gt;2 -->
<g id="edge99" class="edge"><title>&#45;26&#45;&gt;2</title>
<path fill="none" stroke="red" stroke-width="0.292182" d="M1696,-77.8139C1691.81,-73.4302 1686.06,-68.3769 1679.81,-65.6985 1580.72,-23.2682 1237.46,-16.9519 1141.13,-16.0129"/>
<polygon fill="red" stroke="red" stroke-width="0.292182" points="1140.91,-12.511 1130.88,-15.9248 1140.84,-19.5107 1140.91,-12.511"/>
</g>
<!-- &#45;26&#45;&gt;3 -->
<g id="edge100" class="edge"><title>&#45;26&#45;&gt;3</title>
<path fill="none" stroke="red" stroke-width="0.27087" d="M1696.03,-77.7316C1691.86,-73.3205 1686.11,-68.2672 1679.81,-65.6985 1540.5,-8.90841 1153.13,-47.9489 1003.81,-29.6985 987.697,-27.7295 969.775,-24.2865 955.841,-21.3262"/>
<polygon fill="red" stroke="red" stroke-width="0.27087" points="956.576,-17.9043 946.06,-19.1888 955.082,-24.743 956.576,-17.9043"/>
</g>
<!-- &#45;27 -->
<g id="node27" class="node"><title>&#45;27</title>
<polygon fill="lightgray" stroke="black" points="247.307,-95.9117 218.307,-95.9117 218.307,-77.9117 247.307,-77.9117 247.307,-95.9117"/>
<text text-anchor="middle" x="232.807" y="-84.7117" font-family="Times New Roman,serif" font-size="9.00">&#45;27</text>
</g>
<!-- &#45;27&#45;&gt;0 -->
<g id="edge101" class="edge"><title>&#45;27&#45;&gt;0</title>
<path fill="none" stroke="green" stroke-width="0.191673" d="M239.607,-77.7929C243.79,-73.4022 249.54,-68.3489 255.807,-65.6985 367.334,-18.5319 755.776,-15.6648 858.648,-15.7505"/>
<polygon fill="green" stroke="green" stroke-width="0.191673" points="858.721,-19.2506 868.728,-15.7696 858.735,-12.2506 858.721,-19.2506"/>
</g>
<!-- &#45;27&#45;&gt;1 -->
<g id="edge102" class="edge"><title>&#45;27&#45;&gt;1</title>
<path fill="none" stroke="red" stroke-width="0.82773" d="M239.58,-77.7273C243.754,-73.3147 249.504,-68.2614 255.807,-65.6985 400.096,-7.02914 801.179,-48.4542 955.807,-29.6985 971.919,-27.7442 989.841,-24.3013 1003.77,-21.3373"/>
<polygon fill="red" stroke="red" stroke-width="0.82773" points="1004.53,-24.7537 1013.56,-19.1966 1003.04,-17.9156 1004.53,-24.7537"/>
</g>
<!-- &#45;27&#45;&gt;2 -->
<g id="edge103" class="edge"><title>&#45;27&#45;&gt;2</title>
<path fill="none" stroke="green" stroke-width="0.277531" d="M239.574,-77.7127C243.746,-73.2952 249.496,-68.2419 255.807,-65.6985 420.041,0.489176 876.212,-52.5039 1051.81,-29.6985 1065.1,-27.9722 1079.72,-24.8982 1091.63,-22.0842"/>
<polygon fill="green" stroke="green" stroke-width="0.277531" points="1092.81,-25.399 1101.69,-19.6192 1091.15,-18.6002 1092.81,-25.399"/>
</g>
<!-- &#45;27&#45;&gt;3 -->
<g id="edge104" class="edge"><title>&#45;27&#45;&gt;3</title>
<path fill="none" stroke="red" stroke-width="0.136917" d="M239.583,-77.7362C243.759,-73.3266 249.509,-68.2733 255.807,-65.6985 390.126,-10.7875 768.726,-71.0909 907.807,-29.6985 908.867,-29.3829 909.931,-29.0122 910.989,-28.5989"/>
<polygon fill="red" stroke="red" stroke-width="0.136917" points="912.708,-31.653 920.101,-24.0638 909.589,-25.3862 912.708,-31.653"/>
</g>
<!-- &#45;28 -->
<g id="node28" class="node"><title>&#45;28</title>
<polygon fill="lightgray" stroke="black" points="294.307,-95.9117 265.307,-95.9117 265.307,-77.9117 294.307,-77.9117 294.307,-95.9117"/>
<text text-anchor="middle" x="279.807" y="-84.7117" font-family="Times New Roman,serif" font-size="9.00">&#45;28</text>
</g>
<!-- &#45;28&#45;&gt;0 -->
<g id="edge105" class="edge"><title>&#45;28&#45;&gt;0</title>
<path fill="none" stroke="red" stroke-width="0.293073" d="M286.613,-77.8079C290.799,-73.4222 296.549,-68.3689 302.807,-65.6985 405.245,-21.9902 760.764,-16.5907 858.674,-15.9364"/>
<polygon fill="red" stroke="red" stroke-width="0.293073" points="858.837,-19.4356 868.817,-15.8799 858.798,-12.4357 858.837,-19.4356"/>
</g>
<!-- &#45;28&#45;&gt;1 -->
<g id="edge106" class="edge"><title>&#45;28&#45;&gt;1</title>
<path fill="none" stroke="red" stroke-width="0.703943" d="M286.583,-77.736C290.758,-73.3264 296.508,-68.2731 302.807,-65.6985 437.334,-10.7092 811.566,-47.4646 955.807,-29.6985 971.915,-27.7145 989.838,-24.2714 1003.77,-21.3148"/>
<polygon fill="red" stroke="red" stroke-width="0.703943" points="1004.53,-24.7319 1013.55,-19.1809 1003.04,-17.8927 1004.53,-24.7319"/>
</g>
<!-- &#45;28&#45;&gt;2 -->
<g id="edge107" class="edge"><title>&#45;28&#45;&gt;2</title>
<path fill="none" stroke="green" stroke-width="0.157303" d="M286.576,-77.7194C290.749,-73.3042 296.499,-68.2509 302.807,-65.6985 457.276,-3.19189 886.589,-51.3941 1051.81,-29.6985 1065.1,-27.9533 1079.72,-24.8779 1091.63,-22.0678"/>
<polygon fill="green" stroke="green" stroke-width="0.157303" points="1092.81,-25.3832 1101.69,-19.6075 1091.14,-18.5837 1092.81,-25.3832"/>
</g>
<!-- &#45;28&#45;&gt;3 -->
<g id="edge108" class="edge"><title>&#45;28&#45;&gt;3</title>
<path fill="none" stroke="green" stroke-width="0.263186" d="M286.587,-77.7463C290.764,-73.3401 296.514,-68.2868 302.807,-65.6985 427.365,-14.467 778.803,-68.3924 907.807,-29.6985 908.867,-29.3806 909.93,-29.0081 910.987,-28.5932"/>
<polygon fill="green" stroke="green" stroke-width="0.263186" points="912.709,-31.6459 920.097,-24.0527 909.586,-25.3809 912.709,-31.6459"/>
</g>
<!-- &#45;29 -->
<g id="node29" class="node"><title>&#45;29</title>
<polygon fill="lightgray" stroke="black" points="341.307,-95.9117 312.307,-95.9117 312.307,-77.9117 341.307,-77.9117 341.307,-95.9117"/>
<text text-anchor="middle" x="326.807" y="-84.7117" font-family="Times New Roman,serif" font-size="9.00">&#45;29</text>
</g>
<!-- &#45;29&#45;&gt;0 -->
<g id="edge109" class="edge"><title>&#45;29&#45;&gt;0</title>
<path fill="none" stroke="red" stroke-width="0.392606" d="M333.621,-77.8254C337.809,-73.4456 343.559,-68.3923 349.807,-65.6985 443.166,-25.45 765.812,-17.5946 858.64,-16.1549"/>
<polygon fill="red" stroke="red" stroke-width="0.392606" points="858.842,-19.6525 868.791,-16.0094 858.742,-12.6532 858.842,-19.6525"/>
</g>
<!-- &#45;29&#45;&gt;1 -->
<g id="edge110" class="edge"><title>&#45;29&#45;&gt;1</title>
<path fill="none" stroke="red" stroke-width="0.268853" d="M333.587,-77.7461C337.764,-73.3398 343.514,-68.2865 349.807,-65.6985 474.572,-14.3887 821.95,-46.4752 955.807,-29.6985 971.911,-27.6802 989.833,-24.237 1003.77,-21.2888"/>
<polygon fill="red" stroke="red" stroke-width="0.268853" points="1004.52,-24.7067 1013.55,-19.1627 1003.04,-17.8664 1004.52,-24.7067"/>
</g>
<!-- &#45;29&#45;&gt;2 -->
<g id="edge111" class="edge"><title>&#45;29&#45;&gt;2</title>
<path fill="none" stroke="red" stroke-width="0.102263" stroke-dasharray="1,5" d="M333.579,-77.727C337.754,-73.3143 343.504,-68.261 349.807,-65.6985 494.512,-6.87252 896.964,-50.2845 1051.81,-29.6985 1065.09,-27.932 1079.72,-24.8549 1091.63,-22.0492"/>
<polygon fill="red" stroke="red" stroke-width="0.102263" points="1092.8,-25.3654 1101.69,-19.5942 1091.14,-18.565 1092.8,-25.3654"/>
</g>
<!-- &#45;29&#45;&gt;3 -->
<g id="edge112" class="edge"><title>&#45;29&#45;&gt;3</title>
<path fill="none" stroke="green" stroke-width="0.228467" d="M333.592,-77.7581C337.771,-73.3558 343.521,-68.3025 349.807,-65.6985 464.606,-18.1456 788.877,-65.6945 907.807,-29.6985 908.866,-29.378 909.928,-29.0032 910.985,-28.5867"/>
<polygon fill="green" stroke="green" stroke-width="0.228467" points="912.71,-31.6377 920.093,-24.0396 909.583,-25.3748 912.71,-31.6377"/>
</g>
<!-- &#45;30 -->
<g id="node30" class="node"><title>&#45;30</title>
<polygon fill="lightgray" stroke="black" points="388.307,-95.9117 359.307,-95.9117 359.307,-77.9117 388.307,-77.9117 388.307,-95.9117"/>
<text text-anchor="middle" x="373.807" y="-84.7117" font-family="Times New Roman,serif" font-size="9.00">&#45;30</text>
</g>
<!-- &#45;30&#45;&gt;0 -->
<g id="edge113" class="edge"><title>&#45;30&#45;&gt;0</title>
<path fill="none" stroke="red" stroke-width="0.398798" stroke-dasharray="1,5" d="M380.63,-77.8463C384.821,-73.4735 390.571,-68.4201 396.807,-65.6985 481.219,-28.8598 771.755,-18.6678 858.903,-16.4078"/>
<polygon fill="red" stroke="red" stroke-width="0.398798" points="859.027,-19.9059 868.937,-16.1599 858.854,-12.9081 859.027,-19.9059"/>
</g>
<!-- &#45;30&#45;&gt;1 -->
<g id="edge114" class="edge"><title>&#45;30&#45;&gt;1</title>
<path fill="none" stroke="green" stroke-width="0.343917" d="M380.592,-77.7578C384.77,-73.3554 390.52,-68.3021 396.807,-65.6985 511.813,-18.0673 832.333,-45.486 955.807,-29.6985 971.906,-27.6401 989.828,-24.1968 1003.76,-21.2586"/>
<polygon fill="green" stroke="green" stroke-width="0.343917" points="1004.51,-24.6773 1013.55,-19.1415 1003.03,-17.8356 1004.51,-24.6773"/>
</g>
<!-- &#45;30&#45;&gt;2 -->
<g id="edge115" class="edge"><title>&#45;30&#45;&gt;2</title>
<path fill="none" stroke="red" stroke-width="0.175129" d="M380.583,-77.7356C384.758,-73.3258 390.508,-68.2725 396.807,-65.6985 531.749,-10.5526 907.339,-49.1751 1051.81,-29.6985 1065.09,-27.9076 1079.71,-24.8286 1091.63,-22.0279"/>
<polygon fill="red" stroke="red" stroke-width="0.175129" points="1092.8,-25.3449 1101.69,-19.579 1091.14,-18.5436 1092.8,-25.3449"/>
</g>
<!-- &#45;30&#45;&gt;3 -->
<g id="edge116" class="edge"><title>&#45;30&#45;&gt;3</title>
<path fill="none" stroke="green" stroke-width="0.218869" d="M380.598,-77.772C384.778,-73.3744 390.528,-68.3211 396.807,-65.6985 606.891,22.0523 690.091,-96.2962 907.807,-29.6985 908.865,-29.3748 909.927,-28.9976 910.983,-28.5789"/>
<polygon fill="green" stroke="green" stroke-width="0.218869" points="912.711,-31.628 920.089,-24.0242 909.579,-25.3675 912.711,-31.628"/>
</g>
<!-- &#45;31 -->
<g id="node31" class="node"><title>&#45;31</title>
<polygon fill="lightgray" stroke="black" points="435.307,-95.9117 406.307,-95.9117 406.307,-77.9117 435.307,-77.9117 435.307,-95.9117"/>
<text text-anchor="middle" x="420.807" y="-84.7117" font-family="Times New Roman,serif" font-size="9.00">&#45;31</text>
</g>
<!-- &#45;31&#45;&gt;0 -->
<g id="edge117" class="edge"><title>&#45;31&#45;&gt;0</title>
<path fill="none" stroke="red" stroke-width="0.236039" d="M427.641,-77.8716C431.835,-73.5071 437.585,-68.4538 443.807,-65.6985 519.075,-32.3648 776.33,-19.9164 858.417,-16.7376"/>
<polygon fill="red" stroke="red" stroke-width="0.236039" points="858.729,-20.2284 868.591,-16.3569 858.467,-13.2333 858.729,-20.2284"/>
</g>
<!-- &#45;31&#45;&gt;1 -->
<g id="edge118" class="edge"><title>&#45;31&#45;&gt;1</title>
<path fill="none" stroke="red" stroke-width="0.161793" d="M427.598,-77.7717C431.778,-73.3739 437.528,-68.3206 443.807,-65.6985 549.057,-21.7449 842.712,-44.4972 955.807,-29.6985 971.899,-27.5927 989.822,-24.1492 1003.76,-21.2228"/>
<polygon fill="red" stroke="red" stroke-width="0.161793" points="1004.51,-24.6425 1013.55,-19.1164 1003.03,-17.7992 1004.51,-24.6425"/>
</g>
<!-- &#45;31&#45;&gt;2 -->
<g id="edge119" class="edge"><title>&#45;31&#45;&gt;2</title>
<path fill="none" stroke="green" stroke-width="0.305958" d="M427.587,-77.7456C431.764,-73.3392 437.514,-68.2859 443.807,-65.6985 568.988,-14.2321 917.711,-48.0659 1051.81,-29.6985 1065.09,-27.8795 1079.71,-24.7983 1091.62,-22.0034"/>
<polygon fill="green" stroke="green" stroke-width="0.305958" points="1092.79,-25.3214 1101.68,-19.5615 1091.14,-18.5188 1092.79,-25.3214"/>
</g>
<!-- &#45;31&#45;&gt;3 -->
<g id="edge120" class="edge"><title>&#45;31&#45;&gt;3</title>
<path fill="none" stroke="red" stroke-width="0.55657" d="M427.605,-77.7887C431.788,-73.3966 437.538,-68.3433 443.807,-65.6985 634.384,14.6999 710.228,-90.9041 907.807,-29.6985 908.864,-29.3711 909.925,-28.9907 910.98,-28.5696"/>
<polygon fill="red" stroke="red" stroke-width="0.55657" points="912.712,-31.6164 920.083,-24.0058 909.575,-25.3588 912.712,-31.6164"/>
</g>
<!-- &#45;32 -->
<g id="node32" class="node"><title>&#45;32</title>
<polygon fill="lightgray" stroke="black" points="482.307,-95.9117 453.307,-95.9117 453.307,-77.9117 482.307,-77.9117 482.307,-95.9117"/>
<text text-anchor="middle" x="467.807" y="-84.7117" font-family="Times New Roman,serif" font-size="9.00">&#45;32</text>
</g>
<!-- &#45;32&#45;&gt;0 -->
<g id="edge121" class="edge"><title>&#45;32&#45;&gt;0</title>
<path fill="none" stroke="red" stroke-width="0.204903" d="M474.655,-77.9027C478.854,-73.5486 484.604,-68.4953 490.807,-65.6985 557.288,-35.7235 783.318,-21.2022 858.934,-17.1012"/>
<polygon fill="red" stroke="red" stroke-width="0.204903" points="859.161,-20.5941 868.962,-16.5711 858.791,-13.6039 859.161,-20.5941"/>
</g>
<!-- &#45;32&#45;&gt;1 -->
<g id="edge122" class="edge"><title>&#45;32&#45;&gt;1</title>
<path fill="none" stroke="green" stroke-width="0.291234" stroke-dasharray="1,5" d="M474.605,-77.7883C478.787,-73.3961 484.537,-68.3428 490.807,-65.6985 586.303,-25.4211 853.089,-43.5088 955.807,-29.6985 971.892,-27.5359 989.814,-24.0921 1003.75,-21.1798"/>
<polygon fill="green" stroke="green" stroke-width="0.291234" points="1004.49,-24.6007 1013.54,-19.0863 1003.03,-17.7555 1004.49,-24.6007"/>
</g>
<!-- &#45;32&#45;&gt;2 -->
<g id="edge123" class="edge"><title>&#45;32&#45;&gt;2</title>
<path fill="none" stroke="red" stroke-width="0.298012" d="M474.592,-77.7573C478.77,-73.3547 484.52,-68.3014 490.807,-65.6985 606.228,-17.9108 928.082,-46.9569 1051.81,-29.6985 1065.08,-27.8467 1079.71,-24.7629 1091.62,-21.9747"/>
<polygon fill="red" stroke="red" stroke-width="0.298012" points="1092.78,-25.2939 1101.68,-19.5411 1091.14,-18.49 1092.78,-25.2939"/>
</g>
<!-- &#45;32&#45;&gt;3 -->
<g id="edge124" class="edge"><title>&#45;32&#45;&gt;3</title>
<path fill="none" stroke="red" stroke-width="0.514686" d="M474.614,-77.8091C478.799,-73.4238 484.549,-68.3705 490.807,-65.6985 661.886,7.35127 730.356,-85.5148 907.807,-29.6985 908.862,-29.3665 909.922,-28.9824 910.976,-28.5582"/>
<polygon fill="red" stroke="red" stroke-width="0.514686" points="912.714,-31.6022 920.076,-23.9832 909.569,-25.3481 912.714,-31.6022"/>
</g>
<!-- &#45;33 -->
<g id="node33" class="node"><title>&#45;33</title>
<polygon fill="lightgray" stroke="black" points="529.307,-95.9117 500.307,-95.9117 500.307,-77.9117 529.307,-77.9117 529.307,-95.9117"/>
<text text-anchor="middle" x="514.807" y="-84.7117" font-family="Times New Roman,serif" font-size="9.00">&#45;33</text>
</g>
<!-- &#45;33&#45;&gt;0 -->
<g id="edge125" class="edge"><title>&#45;33&#45;&gt;0</title>
<path fill="none" stroke="red" stroke-width="0.436341" d="M522.071,-77.533C526.238,-73.2873 531.821,-68.4586 537.807,-65.6985 595.353,-39.1644 789.251,-22.749 858.754,-17.6004"/>
<polygon fill="red" stroke="red" stroke-width="0.436341" points="859.081,-21.086 868.801,-16.871 858.574,-14.1044 859.081,-21.086"/>
</g>
<!-- &#45;33&#45;&gt;1 -->
<g id="edge126" class="edge"><title>&#45;33&#45;&gt;1</title>
<path fill="none" stroke="green" stroke-width="0.448842" d="M521.613,-77.8086C525.799,-73.4232 531.549,-68.3699 537.807,-65.6985 623.554,-29.0955 863.46,-42.5211 955.807,-29.6985 971.882,-27.4664 989.805,-24.0223 1003.75,-21.1272"/>
<polygon fill="green" stroke="green" stroke-width="0.448842" points="1004.48,-24.5495 1013.54,-19.0495 1003.03,-17.7021 1004.48,-24.5495"/>
</g>
<!-- &#45;33&#45;&gt;2 -->
<g id="edge127" class="edge"><title>&#45;33&#45;&gt;2</title>
<path fill="none" stroke="green" stroke-width="0.505658" d="M521.598,-77.7711C525.778,-73.3731 531.528,-68.3198 537.807,-65.6985 643.472,-21.5884 938.45,-45.8484 1051.81,-29.6985 1065.08,-27.8079 1079.7,-24.7211 1091.61,-21.9409"/>
<polygon fill="green" stroke="green" stroke-width="0.505658" points="1092.78,-25.2613 1101.68,-19.517 1091.14,-18.4559 1092.78,-25.2613"/>
</g>
<!-- &#45;33&#45;&gt;3 -->
<g id="edge128" class="edge"><title>&#45;33&#45;&gt;3</title>
<path fill="none" stroke="red" stroke-width="0.456552" d="M521.625,-77.8346C525.814,-73.4578 531.564,-68.4045 537.807,-65.6985 689.401,0.00781456 750.471,-80.1294 907.807,-29.6985 908.861,-29.3608 909.919,-28.9719 910.972,-28.5439"/>
<polygon fill="red" stroke="red" stroke-width="0.456552" points="912.716,-31.5844 920.067,-23.9549 909.562,-25.3348 912.716,-31.5844"/>
</g>
<!-- &#45;34 -->
<g id="node34" class="node"><title>&#45;34</title>
<polygon fill="lightgray" stroke="black" points="576.307,-95.9117 547.307,-95.9117 547.307,-77.9117 576.307,-77.9117 576.307,-95.9117"/>
<text text-anchor="middle" x="561.807" y="-84.7117" font-family="Times New Roman,serif" font-size="9.00">&#45;34</text>
</g>
<!-- &#45;34&#45;&gt;0 -->
<g id="edge129" class="edge"><title>&#45;34&#45;&gt;0</title>
<path fill="none" stroke="red" stroke-width="0.256487" d="M569.096,-77.5857C573.269,-73.3554 578.852,-68.5246 584.807,-65.6985 678.685,-21.1466 805.625,-15.6651 858.776,-15.488"/>
<polygon fill="red" stroke="red" stroke-width="0.256487" points="858.949,-18.9884 868.959,-15.5185 858.97,-11.9884 858.949,-18.9884"/>
</g>
<!-- &#45;34&#45;&gt;1 -->
<g id="edge130" class="edge"><title>&#45;34&#45;&gt;1</title>
<path fill="none" stroke="red" stroke-width="0.266966" d="M568.624,-77.834C572.813,-73.457 578.563,-68.4037 584.807,-65.6985 736.815,0.16399 791.844,-53.3701 955.807,-29.6985 971.87,-27.3794 989.793,-23.9351 1003.74,-21.0615"/>
<polygon fill="red" stroke="red" stroke-width="0.266966" points="1004.46,-24.4855 1013.53,-19.0035 1003.02,-17.6352 1004.46,-24.4855"/>
</g>
<!-- &#45;34&#45;&gt;2 -->
<g id="edge131" class="edge"><title>&#45;34&#45;&gt;2</title>
<path fill="none" stroke="red" stroke-width="0.3227" d="M568.605,-77.7875C572.787,-73.3951 578.537,-68.3418 584.807,-65.6985 680.718,-25.2647 948.814,-44.7404 1051.81,-29.6985 1065.07,-27.7614 1079.69,-24.6709 1091.61,-21.9003"/>
<polygon fill="red" stroke="red" stroke-width="0.3227" points="1092.76,-25.2223 1101.67,-19.4881 1091.13,-18.4151 1092.76,-25.2223"/>
</g>
<!-- &#45;34&#45;&gt;3 -->
<g id="edge132" class="edge"><title>&#45;34&#45;&gt;3</title>
<path fill="none" stroke="green" stroke-width="0.324714" stroke-dasharray="1,5" d="M568.639,-77.8673C572.833,-73.5015 578.583,-68.4482 584.807,-65.6985 716.932,-7.32812 770.568,-74.7499 907.807,-29.6985 908.687,-29.4097 909.57,-29.086 910.451,-28.7343"/>
<polygon fill="green" stroke="green" stroke-width="0.324714" points="912.163,-31.7919 919.562,-24.2082 909.049,-25.5229 912.163,-31.7919"/>
</g>
<!-- &#45;35 -->
<g id="node35" class="node"><title>&#45;35</title>
<polygon fill="lightgray" stroke="black" points="623.307,-95.9117 594.307,-95.9117 594.307,-77.9117 623.307,-77.9117 623.307,-95.9117"/>
<text text-anchor="middle" x="608.807" y="-84.7117" font-family="Times New Roman,serif" font-size="9.00">&#45;35</text>
</g>
<!-- &#45;35&#45;&gt;0 -->
<g id="edge133" class="edge"><title>&#45;35&#45;&gt;0</title>
<path fill="none" stroke="red" stroke-width="0.175175" d="M616.13,-77.6569C620.314,-73.4474 625.895,-68.6139 631.807,-65.6985 708.459,-27.8982 811.565,-18.7569 858.565,-16.5497"/>
<polygon fill="red" stroke="red" stroke-width="0.175175" points="858.893,-20.0394 868.744,-16.1413 858.612,-13.0451 858.893,-20.0394"/>
</g>
<!-- &#45;35&#45;&gt;1 -->
<g id="edge134" class="edge"><title>&#45;35&#45;&gt;1</title>
<path fill="none" stroke="red" stroke-width="0.127919" d="M615.639,-77.8666C619.832,-73.5004 625.582,-68.4471 631.807,-65.6985 764.346,-7.17214 812.555,-51.3992 955.807,-29.6985 971.854,-27.2676 989.776,-23.8228 1003.73,-20.977"/>
<polygon fill="red" stroke="red" stroke-width="0.127919" points="1004.44,-24.4032 1013.52,-18.9443 1003.02,-17.5492 1004.44,-24.4032"/>
</g>
<!-- &#45;35&#45;&gt;2 -->
<g id="edge135" class="edge"><title>&#45;35&#45;&gt;2</title>
<path fill="none" stroke="red" stroke-width="0.300056" stroke-dasharray="1,5" d="M615.613,-77.8077C619.798,-73.4219 625.548,-68.3686 631.807,-65.6985 717.969,-28.9391 959.174,-43.633 1051.81,-29.6985 1065.06,-27.7046 1079.68,-24.6096 1091.6,-21.8507"/>
<polygon fill="red" stroke="red" stroke-width="0.300056" points="1092.75,-25.1746 1101.67,-19.4527 1091.13,-18.3651 1092.75,-25.1746"/>
</g>
<!-- &#45;35&#45;&gt;3 -->
<g id="edge136" class="edge"><title>&#45;35&#45;&gt;3</title>
<path fill="none" stroke="green" stroke-width="0.195948" d="M615.658,-77.9109C619.859,-73.5596 625.609,-68.5063 631.807,-65.6985 744.49,-14.6526 790.638,-69.3792 907.807,-29.6985 908.684,-29.4014 909.565,-29.0708 910.444,-28.7132"/>
<polygon fill="green" stroke="green" stroke-width="0.195948" points="912.168,-31.7642 919.546,-24.1597 909.036,-25.504 912.168,-31.7642"/>
</g>
<!-- &#45;36 -->
<g id="node36" class="node"><title>&#45;36</title>
<polygon fill="lightgray" stroke="black" points="670.307,-95.9117 641.307,-95.9117 641.307,-77.9117 670.307,-77.9117 670.307,-95.9117"/>
<text text-anchor="middle" x="655.807" y="-84.7117" font-family="Times New Roman,serif" font-size="9.00">&#45;36</text>
</g>
<!-- &#45;36&#45;&gt;0 -->
<g id="edge137" class="edge"><title>&#45;36&#45;&gt;0</title>
<path fill="none" stroke="green" stroke-width="0.29836" d="M663.182,-77.7583C667.38,-73.5786 672.959,-68.7411 678.807,-65.6985 738.801,-34.4827 818.895,-22.364 858.886,-18.0334"/>
<polygon fill="green" stroke="green" stroke-width="0.29836" points="859.453,-21.494 869.052,-17.009 858.752,-14.5293 859.453,-21.494"/>
</g>
<!-- &#45;36&#45;&gt;1 -->
<g id="edge138" class="edge"><title>&#45;36&#45;&gt;1</title>
<path fill="none" stroke="green" stroke-width="0.475823" d="M662.658,-77.9098C666.858,-73.5581 672.608,-68.5048 678.807,-65.6985 791.903,-14.4969 833.239,-49.4325 955.807,-29.6985 971.83,-27.1187 989.753,-23.6733 1003.71,-20.8644"/>
<polygon fill="green" stroke="green" stroke-width="0.475823" points="1004.41,-24.2933 1013.51,-18.8654 1003.01,-17.4345 1004.41,-24.2933"/>
</g>
<!-- &#45;36&#45;&gt;2 -->
<g id="edge139" class="edge"><title>&#45;36&#45;&gt;2</title>
<path fill="none" stroke="green" stroke-width="0.642878" d="M662.624,-77.8328C666.813,-73.4554 672.563,-68.4021 678.807,-65.6985 831.644,0.476352 887.247,-55.3547 1051.81,-29.6985 1065.05,-27.6337 1079.67,-24.533 1091.59,-21.7888"/>
<polygon fill="green" stroke="green" stroke-width="0.642878" points="1092.73,-25.115 1101.66,-19.4086 1091.12,-18.3027 1092.73,-25.115"/>
</g>
<!-- &#45;36&#45;&gt;3 -->
<g id="edge140" class="edge"><title>&#45;36&#45;&gt;3</title>
<path fill="none" stroke="red" stroke-width="0.436829" d="M663.086,-77.5636C667.256,-73.3269 672.839,-68.497 678.807,-65.6985 772.089,-21.9582 810.665,-64.0231 907.807,-29.6985 908.68,-29.39 909.558,-29.0495 910.434,-28.6837"/>
<polygon fill="red" stroke="red" stroke-width="0.436829" points="912.175,-31.7255 919.522,-24.0919 909.018,-25.4777 912.175,-31.7255"/>
</g>
<!-- &#45;37 -->
<g id="node37" class="node"><title>&#45;37</title>
<polygon fill="lightgray" stroke="black" points="717.307,-95.9117 688.307,-95.9117 688.307,-77.9117 717.307,-77.9117 717.307,-95.9117"/>
<text text-anchor="middle" x="702.807" y="-84.7117" font-family="Times New Roman,serif" font-size="9.00">&#45;37</text>
</g>
<!-- &#45;37&#45;&gt;0 -->
<g id="edge141" class="edge"><title>&#45;37&#45;&gt;0</title>
<path fill="none" stroke="red" stroke-width="0.569646" d="M710.679,-77.5111C714.849,-73.4682 720.25,-68.831 725.807,-65.6985 769.48,-41.0798 826.925,-26.8765 859.144,-20.318"/>
<polygon fill="red" stroke="red" stroke-width="0.569646" points="859.904,-23.7358 869.047,-18.3829 858.562,-16.8657 859.904,-23.7358"/>
</g>
<!-- &#45;37&#45;&gt;1 -->
<g id="edge142" class="edge"><title>&#45;37&#45;&gt;1</title>
<path fill="none" stroke="green" stroke-width="0.127984" d="M710.085,-77.562C714.255,-73.3248 719.838,-68.495 725.807,-65.6985 819.501,-21.803 853.878,-47.473 955.807,-29.6985 971.54,-26.955 989.145,-23.5743 1003.01,-20.8398"/>
<polygon fill="green" stroke="green" stroke-width="0.127984" points="1004.09,-24.193 1013.22,-18.8099 1002.73,-17.3274 1004.09,-24.193"/>
</g>
<!-- &#45;37&#45;&gt;2 -->
<g id="edge143" class="edge"><title>&#45;37&#45;&gt;2</title>
<path fill="none" stroke="red" stroke-width="0.141907" d="M709.638,-77.865C713.832,-73.4983 719.582,-68.445 725.807,-65.6985 859.174,-6.86016 907.935,-53.1447 1051.81,-29.6985 1065.04,-27.5425 1079.66,-24.4347 1091.58,-21.7092"/>
<polygon fill="red" stroke="red" stroke-width="0.141907" points="1092.71,-25.0384 1101.65,-19.3519 1091.12,-18.2225 1092.71,-25.0384"/>
</g>
<!-- &#45;37&#45;&gt;3 -->
<g id="edge144" class="edge"><title>&#45;37&#45;&gt;3</title>
<path fill="none" stroke="red" stroke-width="0.249157" d="M710.13,-77.6568C714.314,-73.4474 719.895,-68.6139 725.807,-65.6985 799.76,-29.2298 830.617,-58.6938 907.807,-29.6985 908.674,-29.3728 909.546,-29.0179 910.418,-28.6398"/>
<polygon fill="red" stroke="red" stroke-width="0.249157" points="912.184,-31.6678 919.485,-23.9908 908.99,-25.4389 912.184,-31.6678"/>
</g>
<!-- &#45;38 -->
<g id="node38" class="node"><title>&#45;38</title>
<polygon fill="lightgray" stroke="black" points="764.307,-95.9117 735.307,-95.9117 735.307,-77.9117 764.307,-77.9117 764.307,-95.9117"/>
<text text-anchor="middle" x="749.807" y="-84.7117" font-family="Times New Roman,serif" font-size="9.00">&#45;38</text>
</g>
<!-- &#45;38&#45;&gt;0 -->
<g id="edge145" class="edge"><title>&#45;38&#45;&gt;0</title>
<path fill="none" stroke="green" stroke-width="0.270169" d="M757.841,-77.7805C762.053,-73.8062 767.442,-69.1492 772.807,-65.6985 801.003,-47.564 836.897,-32.7567 860.109,-24.1202"/>
<polygon fill="green" stroke="green" stroke-width="0.270169" points="861.605,-27.3008 869.809,-20.5966 859.215,-20.7214 861.605,-27.3008"/>
</g>
<!-- &#45;38&#45;&gt;1 -->
<g id="edge146" class="edge"><title>&#45;38&#45;&gt;1</title>
<path fill="none" stroke="green" stroke-width="0.197729" d="M757.128,-77.6516C761.311,-73.4406 766.892,-68.6073 772.807,-65.6985 775.42,-64.4136 939.819,-32.7508 1003.23,-20.5667"/>
<polygon fill="green" stroke="green" stroke-width="0.197729" points="1004.01,-23.9808 1013.17,-18.6573 1002.69,-17.1065 1004.01,-23.9808"/>
</g>
<!-- &#45;38&#45;&gt;2 -->
<g id="edge147" class="edge"><title>&#45;38&#45;&gt;2</title>
<path fill="none" stroke="green" stroke-width="0.358725" d="M756.657,-77.9077C760.857,-73.5553 766.607,-68.502 772.807,-65.6985 886.73,-14.1855 928.597,-50.9392 1051.81,-29.6985 1064.93,-27.4361 1079.44,-24.3444 1091.33,-21.6561"/>
<polygon fill="green" stroke="green" stroke-width="0.358725" points="1092.43,-24.994 1101.39,-19.3359 1090.86,-18.173 1092.43,-24.994"/>
</g>
<!-- &#45;38&#45;&gt;3 -->
<g id="edge148" class="edge"><title>&#45;38&#45;&gt;3</title>
<path fill="none" stroke="green" stroke-width="0.100935" d="M757.209,-77.8096C761.415,-73.6449 766.993,-68.8054 772.807,-65.6985 827.574,-36.4303 850.42,-53.4211 907.807,-29.6985 908.663,-29.3447 909.526,-28.9658 910.39,-28.5676"/>
<polygon fill="green" stroke="green" stroke-width="0.100935" points="912.194,-31.5733 919.42,-23.8246 908.939,-25.3761 912.194,-31.5733"/>
</g>
<!-- &#45;39 -->
<g id="node39" class="node"><title>&#45;39</title>
<polygon fill="lightgray" stroke="black" points="1845.31,-95.9117 1816.31,-95.9117 1816.31,-77.9117 1845.31,-77.9117 1845.31,-95.9117"/>
<text text-anchor="middle" x="1830.81" y="-84.7117" font-family="Times New Roman,serif" font-size="9.00">&#45;39</text>
</g>
<!-- &#45;39&#45;&gt;1 -->
<g id="edge149" class="edge"><title>&#45;39&#45;&gt;1</title>
<path fill="none" stroke="green" stroke-width="0.207338" d="M1821.88,-77.7125C1816.49,-73.295 1809.24,-68.2417 1801.81,-65.6985 1652.33,-14.5527 1248.42,-50.4733 1091.81,-29.6985 1078.52,-27.9358 1063.9,-24.8591 1051.98,-22.0525"/>
<polygon fill="green" stroke="green" stroke-width="0.207338" points="1052.47,-18.5683 1041.93,-19.5966 1050.81,-25.3686 1052.47,-18.5683"/>
</g>
<!-- &#45;39&#45;&gt;2 -->
<g id="edge150" class="edge"><title>&#45;39&#45;&gt;2</title>
<path fill="none" stroke="red" stroke-width="0.126339" d="M1821.86,-77.7733C1816.46,-73.3761 1809.21,-68.3228 1801.81,-65.6985 1676.39,-21.2455 1249.44,-16.411 1141.01,-15.9043"/>
<polygon fill="red" stroke="red" stroke-width="0.126339" points="1140.74,-12.4033 1130.72,-15.8652 1140.71,-19.4032 1140.74,-12.4033"/>
</g>
<!-- &#45;39&#45;&gt;3 -->
<g id="edge151" class="edge"><title>&#45;39&#45;&gt;3</title>
<path fill="none" stroke="red" stroke-width="0.477457" d="M1815.81,-79.7658C1803.44,-75.0005 1785.29,-68.7162 1768.81,-65.6985 1434,-4.39646 1341.8,-69.9478 1003.81,-29.6985 987.691,-27.7793 969.769,-24.3365 955.837,-21.3638"/>
<polygon fill="red" stroke="red" stroke-width="0.477457" points="956.574,-17.9425 946.056,-19.2152 955.072,-24.7795 956.574,-17.9425"/>
</g>
<!-- &#45;40 -->
<g id="node40" class="node"><title>&#45;40</title>
<polygon fill="lightgray" stroke="black" points="811.307,-95.9117 782.307,-95.9117 782.307,-77.9117 811.307,-77.9117 811.307,-95.9117"/>
<text text-anchor="middle" x="796.807" y="-84.7117" font-family="Times New Roman,serif" font-size="9.00">&#45;40</text>
</g>
<!-- &#45;40&#45;&gt;0 -->
<g id="edge152" class="edge"><title>&#45;40&#45;&gt;0</title>
<path fill="none" stroke="green" stroke-width="0.221341" d="M806.559,-77.5826C810.896,-73.9083 816.081,-69.557 820.807,-65.6985 835.379,-53.8018 852.084,-40.6038 864.629,-30.7779"/>
<polygon fill="green" stroke="green" stroke-width="0.221341" points="866.847,-33.4864 872.572,-24.5716 862.537,-27.9704 866.847,-33.4864"/>
</g>
<!-- &#45;40&#45;&gt;1 -->
<g id="edge153" class="edge"><title>&#45;40&#45;&gt;1</title>
<path fill="none" stroke="red" stroke-width="0.379578" d="M804.561,-77.7626C808.96,-73.5842 814.779,-68.7465 820.807,-65.6985 837.168,-57.4259 952.486,-32.0378 1003.56,-21.0299"/>
<polygon fill="red" stroke="red" stroke-width="0.379578" points="1004.38,-24.433 1013.43,-18.9105 1002.91,-17.5891 1004.38,-24.433"/>
</g>
<!-- &#45;40&#45;&gt;2 -->
<g id="edge154" class="edge"><title>&#45;40&#45;&gt;2</title>
<path fill="none" stroke="red" stroke-width="0.275647" d="M804.466,-77.5642C808.836,-73.3276 814.659,-68.4977 820.807,-65.6985 915.371,-22.6403 949.652,-48.6946 1051.81,-29.6985 1064.9,-27.2639 1079.41,-24.1576 1091.3,-21.5041"/>
<polygon fill="red" stroke="red" stroke-width="0.275647" points="1092.39,-24.847 1101.37,-19.2267 1090.84,-18.0195 1092.39,-24.847"/>
</g>
<!-- &#45;40&#45;&gt;3 -->
<g id="edge155" class="edge"><title>&#45;40&#45;&gt;3</title>
<path fill="none" stroke="green" stroke-width="0.329043" d="M805.201,-77.7336C809.598,-73.7474 815.221,-69.0938 820.807,-65.6985 856.566,-43.9635 870.271,-48.1957 907.807,-29.6985 908.638,-29.2891 909.479,-28.8631 910.325,-28.4251"/>
<polygon fill="green" stroke="green" stroke-width="0.329043" points="912.201,-31.3874 919.271,-23.4965 908.824,-25.2563 912.201,-31.3874"/>
</g>
<!-- 401&#45;&gt;2 -->
<g id="edge159" class="edge"><title>401&#45;&gt;2</title>
<path fill="none" stroke="green" stroke-width="0.175949" d="M2089.74,-73.9107C2084.26,-70.6576 2078,-67.5315 2071.81,-65.6985 1890.25,-11.9331 1274.52,-14.3859 1141.34,-15.5748"/>
<polygon fill="green" stroke="green" stroke-width="0.175949" points="1140.92,-12.0787 1130.95,-15.6742 1140.98,-19.0783 1140.92,-12.0787"/>
</g>
<!-- 181&#45;&gt;2 -->
<g id="edge157" class="edge"><title>181&#45;&gt;2</title>
<path fill="none" stroke="green" stroke-width="0.137208" d="M1991.73,-73.9333C1986.25,-70.6812 1979.99,-67.5499 1973.81,-65.6985 1811.97,-17.2506 1265.18,-15.5079 1141.03,-15.7517"/>
<polygon fill="green" stroke="green" stroke-width="0.137208" points="1140.65,-12.2526 1130.66,-15.779 1140.67,-19.2526 1140.65,-12.2526"/>
</g>
</g>
</svg>
