<?xml version="1.0" encoding="UTF-8" standalone="no"?>
<!DOCTYPE svg PUBLIC "-//W3C//DTD SVG 1.1//EN"
 "http://www.w3.org/Graphics/SVG/1.1/DTD/svg11.dtd">
<!-- Generated by graphviz version 2.38.0 (20140413.2041)
 -->
<!-- Title: %3 Pages: 1 -->
<svg width="2102pt" height="170pt"
 viewBox="0.00 0.00 2102.48 170.12" xmlns="http://www.w3.org/2000/svg" xmlns:xlink="http://www.w3.org/1999/xlink">
<g id="graph0" class="graph" transform="scale(1 1) rotate(0) translate(4 166.125)">
<title>%3</title>
<polygon fill="white" stroke="none" points="-4,4 -4,-166.125 2098.48,-166.125 2098.48,4 -4,4"/>
<!-- &#45;1 -->
<g id="node1" class="node"><title>&#45;1</title>
<polygon fill="lightgray" stroke="black" points="1073.26,-95.9117 1049.26,-95.9117 1049.26,-77.9117 1073.26,-77.9117 1073.26,-95.9117"/>
<text text-anchor="middle" x="1061.26" y="-84.7117" font-family="Times New Roman,serif" font-size="9.00">&#45;1</text>
</g>
<!-- 0 -->
<g id="node41" class="node"><title>0</title>
<ellipse fill="lightblue" stroke="black" cx="1004.26" cy="-14.8492" rx="14.7" ry="14.7"/>
<text text-anchor="middle" x="1004.26" y="-12.6492" font-family="Times New Roman,serif" font-size="9.00">0</text>
</g>
<!-- &#45;1&#45;&gt;0 -->
<g id="edge1" class="edge"><title>&#45;1&#45;&gt;0</title>
<path fill="none" stroke="red" stroke-width="0.23325" d="M1054.73,-77.8746C1046.3,-67.5161 1031.37,-49.1677 1019.93,-35.1057"/>
<polygon fill="red" stroke="red" stroke-width="0.23325" points="1022.37,-32.5621 1013.35,-27.0138 1016.94,-36.9797 1022.37,-32.5621"/>
</g>
<!-- 1 -->
<g id="node42" class="node"><title>1</title>
<ellipse fill="lightblue" stroke="black" cx="1145.26" cy="-14.8492" rx="14.7" ry="14.7"/>
<text text-anchor="middle" x="1145.26" y="-12.6492" font-family="Times New Roman,serif" font-size="9.00">1</text>
</g>
<!-- &#45;1&#45;&gt;1 -->
<g id="edge2" class="edge"><title>&#45;1&#45;&gt;1</title>
<path fill="none" stroke="red" stroke-width="0.318265" d="M1069.27,-77.8522C1073.12,-74.0717 1077.84,-69.5596 1082.26,-65.6985 1096.43,-53.325 1113.16,-40.1526 1125.82,-30.4577"/>
<polygon fill="red" stroke="red" stroke-width="0.318265" points="1128,-33.1918 1133.85,-24.354 1123.77,-27.619 1128,-33.1918"/>
</g>
<!-- 2 -->
<g id="node43" class="node"><title>2</title>
<ellipse fill="lightblue" stroke="black" cx="1097.26" cy="-14.8492" rx="14.7" ry="14.7"/>
<text text-anchor="middle" x="1097.26" y="-12.6492" font-family="Times New Roman,serif" font-size="9.00">2</text>
</g>
<!-- &#45;1&#45;&gt;2 -->
<g id="edge3" class="edge"><title>&#45;1&#45;&gt;2</title>
<path fill="none" stroke="green" stroke-width="0.264394" d="M1065.39,-77.8746C1070.42,-68.0985 1079.1,-51.2057 1086.13,-37.5161"/>
<polygon fill="green" stroke="green" stroke-width="0.264394" points="1089.43,-38.7557 1090.89,-28.2615 1083.2,-35.5565 1089.43,-38.7557"/>
</g>
<!-- 3 -->
<g id="node44" class="node"><title>3</title>
<ellipse fill="lightblue" stroke="black" cx="933.264" cy="-14.8492" rx="14.7" ry="14.7"/>
<text text-anchor="middle" x="933.264" y="-12.6492" font-family="Times New Roman,serif" font-size="9.00">3</text>
</g>
<!-- &#45;1&#45;&gt;3 -->
<g id="edge4" class="edge"><title>&#45;1&#45;&gt;3</title>
<path fill="none" stroke="red" stroke-width="0.117031" d="M1053.61,-77.7966C1049.59,-73.8265 1044.43,-69.1683 1039.26,-65.6985 1012.74,-47.8862 978.844,-33.1611 956.619,-24.4432"/>
<polygon fill="red" stroke="red" stroke-width="0.117031" points="957.603,-21.0723 947.012,-20.7648 955.099,-27.6094 957.603,-21.0723"/>
</g>
<!-- &#45;2 -->
<g id="node2" class="node"><title>&#45;2</title>
<polygon fill="lightgray" stroke="black" points="1115.26,-95.9117 1091.26,-95.9117 1091.26,-77.9117 1115.26,-77.9117 1115.26,-95.9117"/>
<text text-anchor="middle" x="1103.26" y="-84.7117" font-family="Times New Roman,serif" font-size="9.00">&#45;2</text>
</g>
<!-- &#45;2&#45;&gt;0 -->
<g id="edge5" class="edge"><title>&#45;2&#45;&gt;0</title>
<path fill="none" stroke="green" stroke-width="0.102679" d="M1095.43,-77.6481C1091.62,-73.823 1086.87,-69.3321 1082.26,-65.6985 1064.12,-51.3949 1041.75,-37.4337 1025.63,-27.9422"/>
<polygon fill="green" stroke="green" stroke-width="0.102679" points="1027.34,-24.8906 1016.93,-22.9015 1023.83,-30.946 1027.34,-24.8906"/>
</g>
<!-- &#45;2&#45;&gt;1 -->
<g id="edge6" class="edge"><title>&#45;2&#45;&gt;1</title>
<path fill="none" stroke="green" stroke-width="0.16745" d="M1108.08,-77.8746C1114.03,-67.9452 1124.39,-50.6741 1132.66,-36.8744"/>
<polygon fill="green" stroke="green" stroke-width="0.16745" points="1135.84,-38.3847 1137.98,-28.0082 1129.83,-34.7856 1135.84,-38.3847"/>
</g>
<!-- &#45;2&#45;&gt;2 -->
<g id="edge7" class="edge"><title>&#45;2&#45;&gt;2</title>
<path fill="none" stroke="green" stroke-width="0.298573" d="M1102.58,-77.8746C1101.79,-68.7202 1100.47,-53.3256 1099.35,-40.1641"/>
<polygon fill="green" stroke="green" stroke-width="0.298573" points="1102.8,-39.4845 1098.46,-29.8197 1095.83,-40.0819 1102.8,-39.4845"/>
</g>
<!-- &#45;2&#45;&gt;3 -->
<g id="edge8" class="edge"><title>&#45;2&#45;&gt;3</title>
<path fill="none" stroke="green" stroke-width="0.447097" stroke-dasharray="1,5" d="M1096.18,-77.5224C1092.4,-73.4823 1087.46,-68.8443 1082.26,-65.6985 1071.29,-59.0503 995.935,-35.2396 956.782,-23.0909"/>
<polygon fill="green" stroke="green" stroke-width="0.447097" points="957.812,-19.7461 947.225,-20.1339 955.743,-26.4333 957.812,-19.7461"/>
</g>
<!-- &#45;3 -->
<g id="node3" class="node"><title>&#45;3</title>
<polygon fill="lightgray" stroke="black" points="1157.26,-95.9117 1133.26,-95.9117 1133.26,-77.9117 1157.26,-77.9117 1157.26,-95.9117"/>
<text text-anchor="middle" x="1145.26" y="-84.7117" font-family="Times New Roman,serif" font-size="9.00">&#45;3</text>
</g>
<!-- &#45;3&#45;&gt;0 -->
<g id="edge9" class="edge"><title>&#45;3&#45;&gt;0</title>
<path fill="none" stroke="red" stroke-width="0.390215" d="M1138.08,-77.6765C1134.27,-73.6757 1129.34,-69.0264 1124.26,-65.6985 1093.55,-45.5771 1053.39,-30.8923 1028.21,-22.8639"/>
<polygon fill="red" stroke="red" stroke-width="0.390215" points="1028.99,-19.4425 1018.4,-19.8343 1026.92,-26.1305 1028.99,-19.4425"/>
</g>
<!-- &#45;3&#45;&gt;1 -->
<g id="edge10" class="edge"><title>&#45;3&#45;&gt;1</title>
<path fill="none" stroke="green" stroke-width="0.156378" d="M1145.26,-77.8746C1145.26,-68.7202 1145.26,-53.3256 1145.26,-40.1641"/>
<polygon fill="green" stroke="green" stroke-width="0.156378" points="1148.76,-39.8196 1145.26,-29.8197 1141.76,-39.8197 1148.76,-39.8196"/>
</g>
<!-- &#45;3&#45;&gt;2 -->
<g id="edge11" class="edge"><title>&#45;3&#45;&gt;2</title>
<path fill="none" stroke="green" stroke-width="0.26191" stroke-dasharray="1,5" d="M1139.76,-77.8746C1132.81,-67.7318 1120.61,-49.9283 1111.06,-35.9895"/>
<polygon fill="green" stroke="green" stroke-width="0.26191" points="1113.79,-33.7786 1105.25,-27.5071 1108.02,-37.7349 1113.79,-33.7786"/>
</g>
<!-- &#45;3&#45;&gt;3 -->
<g id="edge12" class="edge"><title>&#45;3&#45;&gt;3</title>
<path fill="none" stroke="green" stroke-width="0.526129" d="M1138.65,-77.7557C1134.85,-73.5752 1129.75,-68.7378 1124.26,-65.6985 1066.55,-33.7447 1043.92,-47.0254 980.264,-29.6985 972.677,-27.6332 964.441,-25.2537 957.014,-23.0562"/>
<polygon fill="green" stroke="green" stroke-width="0.526129" points="957.789,-19.6349 947.205,-20.1226 955.783,-26.3413 957.789,-19.6349"/>
</g>
<!-- &#45;4 -->
<g id="node4" class="node"><title>&#45;4</title>
<polygon fill="lightgray" stroke="black" points="1199.26,-95.9117 1175.26,-95.9117 1175.26,-77.9117 1199.26,-77.9117 1199.26,-95.9117"/>
<text text-anchor="middle" x="1187.26" y="-84.7117" font-family="Times New Roman,serif" font-size="9.00">&#45;4</text>
</g>
<!-- &#45;4&#45;&gt;0 -->
<g id="edge13" class="edge"><title>&#45;4&#45;&gt;0</title>
<path fill="none" stroke="green" stroke-width="0.452542" stroke-dasharray="1,5" d="M1180.58,-77.872C1176.77,-73.7256 1171.67,-68.8837 1166.26,-65.6985 1142.63,-51.7763 1067.52,-31.6983 1028.43,-21.8112"/>
<polygon fill="green" stroke="green" stroke-width="0.452542" points="1029.21,-18.3971 1018.65,-19.3612 1027.5,-25.1872 1029.21,-18.3971"/>
</g>
<!-- &#45;4&#45;&gt;1 -->
<g id="edge14" class="edge"><title>&#45;4&#45;&gt;1</title>
<path fill="none" stroke="red" stroke-width="0.465729" stroke-dasharray="1,5" d="M1182.45,-77.8746C1176.49,-67.9452 1166.14,-50.6741 1157.87,-36.8744"/>
<polygon fill="red" stroke="red" stroke-width="0.465729" points="1160.7,-34.7856 1152.55,-28.0082 1154.69,-38.3847 1160.7,-34.7856"/>
</g>
<!-- &#45;4&#45;&gt;2 -->
<g id="edge15" class="edge"><title>&#45;4&#45;&gt;2</title>
<path fill="none" stroke="green" stroke-width="0.223068" d="M1179.33,-77.7646C1175.5,-73.965 1170.77,-69.4619 1166.26,-65.6985 1150.63,-52.6409 1131.84,-39.1957 1117.81,-29.5642"/>
<polygon fill="green" stroke="green" stroke-width="0.223068" points="1119.6,-26.5508 1109.36,-23.828 1115.67,-32.3416 1119.6,-26.5508"/>
</g>
<!-- &#45;4&#45;&gt;3 -->
<g id="edge16" class="edge"><title>&#45;4&#45;&gt;3</title>
<path fill="none" stroke="green" stroke-width="0.560473" d="M1180.71,-77.6371C1176.93,-73.4218 1171.83,-68.5891 1166.26,-65.6985 1091.53,-26.9099 1062.07,-49.6208 980.264,-29.6985 972.624,-27.838 964.373,-25.5154 956.949,-23.307"/>
<polygon fill="green" stroke="green" stroke-width="0.560473" points="957.74,-19.8892 947.154,-20.3212 955.699,-26.585 957.74,-19.8892"/>
</g>
<!-- &#45;5 -->
<g id="node5" class="node"><title>&#45;5</title>
<polygon fill="lightgray" stroke="black" points="1241.26,-95.9117 1217.26,-95.9117 1217.26,-77.9117 1241.26,-77.9117 1241.26,-95.9117"/>
<text text-anchor="middle" x="1229.26" y="-84.7117" font-family="Times New Roman,serif" font-size="9.00">&#45;5</text>
</g>
<!-- &#45;5&#45;&gt;0 -->
<g id="edge17" class="edge"><title>&#45;5&#45;&gt;0</title>
<path fill="none" stroke="red" stroke-width="0.222222" d="M1222.66,-77.744C1218.86,-73.5601 1213.76,-68.7232 1208.26,-65.6985 1192.46,-57.0024 1079.15,-31.9562 1028.56,-21.0394"/>
<polygon fill="red" stroke="red" stroke-width="0.222222" points="1029.28,-17.6154 1018.77,-18.9353 1027.81,-24.459 1029.28,-17.6154"/>
</g>
<!-- &#45;5&#45;&gt;1 -->
<g id="edge18" class="edge"><title>&#45;5&#45;&gt;1</title>
<path fill="none" stroke="green" stroke-width="0.104222" d="M1221.26,-77.8522C1217.41,-74.0717 1212.69,-69.5596 1208.26,-65.6985 1194.09,-53.325 1177.37,-40.1526 1164.71,-30.4577"/>
<polygon fill="green" stroke="green" stroke-width="0.104222" points="1166.76,-27.619 1156.68,-24.354 1162.53,-33.1918 1166.76,-27.619"/>
</g>
<!-- &#45;5&#45;&gt;2 -->
<g id="edge19" class="edge"><title>&#45;5&#45;&gt;2</title>
<path fill="none" stroke="green" stroke-width="0.285675" d="M1222.08,-77.6735C1218.28,-73.672 1213.35,-69.0229 1208.26,-65.6985 1173.25,-42.7894 1158.8,-48.1957 1121.26,-29.6985 1120.43,-29.2891 1119.59,-28.8631 1118.75,-28.4251"/>
<polygon fill="green" stroke="green" stroke-width="0.285675" points="1120.25,-25.2563 1109.8,-23.4965 1116.87,-31.3874 1120.25,-25.2563"/>
</g>
<!-- &#45;5&#45;&gt;3 -->
<g id="edge20" class="edge"><title>&#45;5&#45;&gt;3</title>
<path fill="none" stroke="green" stroke-width="0.207255" d="M1222.75,-77.5599C1218.99,-73.3221 1213.88,-68.4924 1208.26,-65.6985 1116.41,-20.0206 1080.34,-52.2444 980.264,-29.6985 972.593,-27.9704 964.334,-25.6846 956.911,-23.4691"/>
<polygon fill="green" stroke="green" stroke-width="0.207255" points="957.712,-20.0533 947.124,-20.4496 955.648,-26.7422 957.712,-20.0533"/>
</g>
<!-- &#45;6 -->
<g id="node6" class="node"><title>&#45;6</title>
<polygon fill="lightgray" stroke="black" points="1283.26,-95.9117 1259.26,-95.9117 1259.26,-77.9117 1283.26,-77.9117 1283.26,-95.9117"/>
<text text-anchor="middle" x="1271.26" y="-84.7117" font-family="Times New Roman,serif" font-size="9.00">&#45;6</text>
</g>
<!-- &#45;6&#45;&gt;0 -->
<g id="edge21" class="edge"><title>&#45;6&#45;&gt;0</title>
<path fill="none" stroke="red" stroke-width="0.420907" d="M1264.7,-77.6565C1260.92,-73.4469 1255.82,-68.6134 1250.26,-65.6985 1249.02,-65.048 1091.02,-33.273 1028.92,-20.7997"/>
<polygon fill="red" stroke="red" stroke-width="0.420907" points="1029.32,-17.3102 1018.83,-18.7727 1027.94,-24.1731 1029.32,-17.3102"/>
</g>
<!-- &#45;6&#45;&gt;1 -->
<g id="edge22" class="edge"><title>&#45;6&#45;&gt;1</title>
<path fill="none" stroke="red" stroke-width="0.202758" d="M1264.01,-77.7821C1260.19,-73.8083 1255.26,-69.1511 1250.26,-65.6985 1224.18,-47.6716 1190.56,-32.9954 1168.49,-24.3472"/>
<polygon fill="red" stroke="red" stroke-width="0.202758" points="1169.53,-20.9996 1158.94,-20.7025 1167.03,-27.5392 1169.53,-20.9996"/>
</g>
<!-- &#45;6&#45;&gt;2 -->
<g id="edge23" class="edge"><title>&#45;6&#45;&gt;2</title>
<path fill="none" stroke="green" stroke-width="0.126378" d="M1264.62,-77.8149C1260.81,-73.6518 1255.71,-68.8121 1250.26,-65.6985 1198.59,-36.1621 1176.14,-52.7554 1121.26,-29.6985 1120.41,-29.3398 1119.55,-28.9567 1118.69,-28.555"/>
<polygon fill="green" stroke="green" stroke-width="0.126378" points="1120.14,-25.3652 1109.66,-23.7955 1116.88,-31.5567 1120.14,-25.3652"/>
</g>
<!-- &#45;6&#45;&gt;3 -->
<g id="edge24" class="edge"><title>&#45;6&#45;&gt;3</title>
<path fill="none" stroke="red" stroke-width="0.117302" d="M1264.78,-77.5059C1261.02,-73.2522 1255.92,-68.4246 1250.26,-65.6985 1141.22,-13.1028 1098.68,-54.8821 980.264,-29.6985 972.573,-28.0627 964.308,-25.8026 956.887,-23.5822"/>
<polygon fill="red" stroke="red" stroke-width="0.117302" points="957.693,-20.1677 947.105,-20.5391 955.613,-26.8517 957.693,-20.1677"/>
</g>
<!-- &#45;7 -->
<g id="node7" class="node"><title>&#45;7</title>
<polygon fill="lightgray" stroke="black" points="1325.26,-95.9117 1301.26,-95.9117 1301.26,-77.9117 1325.26,-77.9117 1325.26,-95.9117"/>
<text text-anchor="middle" x="1313.26" y="-84.7117" font-family="Times New Roman,serif" font-size="9.00">&#45;7</text>
</g>
<!-- &#45;7&#45;&gt;0 -->
<g id="edge25" class="edge"><title>&#45;7&#45;&gt;0</title>
<path fill="none" stroke="red" stroke-width="0.394235" d="M1306.75,-77.5741C1302.98,-73.3404 1297.87,-68.5101 1292.26,-65.6985 1204.08,-21.4999 1170.3,-47.4068 1073.26,-29.6985 1058.52,-27.0081 1042.07,-23.7165 1028.92,-21.0174"/>
<polygon fill="red" stroke="red" stroke-width="0.394235" points="1029.28,-17.5161 1018.77,-18.9158 1027.86,-24.3707 1029.28,-17.5161"/>
</g>
<!-- &#45;7&#45;&gt;1 -->
<g id="edge26" class="edge"><title>&#45;7&#45;&gt;1</title>
<path fill="none" stroke="red" stroke-width="0.102758" d="M1306.17,-77.5313C1302.39,-73.4936 1297.45,-68.855 1292.26,-65.6985 1252.9,-41.7449 1200.53,-27.55 1170.1,-20.7644"/>
<polygon fill="red" stroke="red" stroke-width="0.102758" points="1170.46,-17.2614 1159.95,-18.5953 1168.99,-24.107 1170.46,-17.2614"/>
</g>
<!-- &#45;7&#45;&gt;2 -->
<g id="edge27" class="edge"><title>&#45;7&#45;&gt;2</title>
<path fill="none" stroke="green" stroke-width="0.169285" d="M1306.7,-77.6732C1302.91,-73.4686 1297.81,-68.6344 1292.26,-65.6985 1223.62,-29.3593 1193.8,-57.4529 1121.26,-29.6985 1120.4,-29.3676 1119.53,-29.0081 1118.66,-28.6262"/>
<polygon fill="green" stroke="green" stroke-width="0.169285" points="1120.09,-25.427 1109.6,-23.9596 1116.89,-31.65 1120.09,-25.427"/>
</g>
<!-- &#45;7&#45;&gt;3 -->
<g id="edge28" class="edge"><title>&#45;7&#45;&gt;3</title>
<path fill="none" stroke="green" stroke-width="0.490932" d="M1307.16,-77.8769C1303.37,-73.5142 1298.12,-68.4609 1292.26,-65.6985 1166.01,-6.16811 1117.05,-57.528 980.264,-29.6985 972.559,-28.1308 964.29,-25.8895 956.869,-23.6656"/>
<polygon fill="green" stroke="green" stroke-width="0.490932" points="957.68,-20.2519 947.091,-20.6051 955.589,-26.9323 957.68,-20.2519"/>
</g>
<!-- &#45;8 -->
<g id="node8" class="node"><title>&#45;8</title>
<polygon fill="lightgray" stroke="black" points="1367.26,-95.9117 1343.26,-95.9117 1343.26,-77.9117 1367.26,-77.9117 1367.26,-95.9117"/>
<text text-anchor="middle" x="1355.26" y="-84.7117" font-family="Times New Roman,serif" font-size="9.00">&#45;8</text>
</g>
<!-- &#45;8&#45;&gt;0 -->
<g id="edge29" class="edge"><title>&#45;8&#45;&gt;0</title>
<path fill="none" stroke="red" stroke-width="0.475197" d="M1348.77,-77.516C1345.01,-73.2653 1339.91,-68.4373 1334.26,-65.6985 1228.91,-14.5869 1188.72,-49.2294 1073.26,-29.6985 1058.49,-27.1989 1042.03,-23.9153 1028.9,-21.1728"/>
<polygon fill="red" stroke="red" stroke-width="0.475197" points="1029.26,-17.6728 1018.75,-19.0254 1027.81,-24.5209 1029.26,-17.6728"/>
</g>
<!-- &#45;8&#45;&gt;1 -->
<g id="edge30" class="edge"><title>&#45;8&#45;&gt;1</title>
<path fill="none" stroke="red" stroke-width="0.394332" d="M1348.63,-77.7839C1344.83,-73.6117 1339.73,-68.7732 1334.26,-65.6985 1280.42,-35.4301 1207.59,-23.0029 1170,-18.3485"/>
<polygon fill="red" stroke="red" stroke-width="0.394332" points="1170.28,-14.8583 1159.95,-17.1877 1169.48,-21.8121 1170.28,-14.8583"/>
</g>
<!-- &#45;8&#45;&gt;2 -->
<g id="edge31" class="edge"><title>&#45;8&#45;&gt;2</title>
<path fill="none" stroke="red" stroke-width="0.487718" d="M1348.74,-77.5841C1344.97,-73.3534 1339.87,-68.5227 1334.26,-65.6985 1248.53,-22.4853 1211.6,-62.2049 1121.26,-29.6985 1120.39,-29.3849 1119.52,-29.0403 1118.64,-28.6709"/>
<polygon fill="red" stroke="red" stroke-width="0.487718" points="1120.06,-25.4663 1109.56,-24.0623 1116.89,-31.7086 1120.06,-25.4663"/>
</g>
<!-- &#45;8&#45;&gt;3 -->
<g id="edge32" class="edge"><title>&#45;8&#45;&gt;3</title>
<path fill="none" stroke="green" stroke-width="0.330369" d="M1349.17,-77.8471C1345.39,-73.4745 1340.14,-68.4212 1334.26,-65.6985 1190.77,0.777256 1135.44,-60.1788 980.264,-29.6985 972.548,-28.1829 964.276,-25.9562 956.856,-23.7294"/>
<polygon fill="green" stroke="green" stroke-width="0.330369" points="957.67,-20.3164 947.081,-20.6557 955.57,-26.9941 957.67,-20.3164"/>
</g>
<!-- &#45;9 -->
<g id="node9" class="node"><title>&#45;9</title>
<polygon fill="lightgray" stroke="black" points="1409.26,-95.9117 1385.26,-95.9117 1385.26,-77.9117 1409.26,-77.9117 1409.26,-95.9117"/>
<text text-anchor="middle" x="1397.26" y="-84.7117" font-family="Times New Roman,serif" font-size="9.00">&#45;9</text>
</g>
<!-- &#45;9&#45;&gt;0 -->
<g id="edge33" class="edge"><title>&#45;9&#45;&gt;0</title>
<path fill="none" stroke="red" stroke-width="0.315095" d="M1391.15,-77.8843C1387.37,-73.5241 1382.12,-68.4708 1376.26,-65.6985 1253.7,-7.65517 1207.18,-51.0591 1073.26,-29.6985 1058.46,-27.338 1042.01,-24.0602 1028.88,-21.286"/>
<polygon fill="red" stroke="red" stroke-width="0.315095" points="1029.25,-17.7868 1018.74,-19.1053 1027.78,-24.6303 1029.25,-17.7868"/>
</g>
<!-- &#45;9&#45;&gt;1 -->
<g id="edge34" class="edge"><title>&#45;9&#45;&gt;1</title>
<path fill="none" stroke="green" stroke-width="0.46602" d="M1390.69,-77.6843C1386.9,-73.483 1381.8,-68.6484 1376.26,-65.6985 1307.83,-29.2478 1214.55,-19.4481 1170.4,-16.8153"/>
<polygon fill="green" stroke="green" stroke-width="0.46602" points="1170.45,-13.3131 1160.28,-16.2885 1170.08,-20.3036 1170.45,-13.3131"/>
</g>
<!-- &#45;9&#45;&gt;2 -->
<g id="edge35" class="edge"><title>&#45;9&#45;&gt;2</title>
<path fill="none" stroke="red" stroke-width="0.258796" d="M1390.77,-77.5232C1387.01,-73.2746 1381.91,-68.4463 1376.26,-65.6985 1273.37,-15.5758 1229.48,-66.9837 1121.26,-29.6985 1120.39,-29.3968 1119.51,-29.0622 1118.63,-28.7013"/>
<polygon fill="red" stroke="red" stroke-width="0.258796" points="1120.04,-25.4934 1109.53,-24.1324 1116.9,-31.7486 1120.04,-25.4934"/>
</g>
<!-- &#45;9&#45;&gt;3 -->
<g id="edge36" class="edge"><title>&#45;9&#45;&gt;3</title>
<path fill="none" stroke="red" stroke-width="0.447025" d="M1391.18,-77.8235C1387.41,-73.443 1382.16,-68.3897 1376.26,-65.6985 1215.51,7.72984 1153.86,-62.833 980.264,-29.6985 972.54,-28.2242 964.266,-26.0089 956.847,-23.7799"/>
<polygon fill="red" stroke="red" stroke-width="0.447025" points="957.663,-20.3674 947.073,-20.6957 955.556,-27.0429 957.663,-20.3674"/>
</g>
<!-- &#45;10 -->
<g id="node10" class="node"><title>&#45;10</title>
<polygon fill="lightgray" stroke="black" points="1456.76,-95.9117 1427.76,-95.9117 1427.76,-77.9117 1456.76,-77.9117 1456.76,-95.9117"/>
<text text-anchor="middle" x="1442.26" y="-84.7117" font-family="Times New Roman,serif" font-size="9.00">&#45;10</text>
</g>
<!-- &#45;10&#45;&gt;0 -->
<g id="edge37" class="edge"><title>&#45;10&#45;&gt;0</title>
<path fill="none" stroke="red" stroke-width="0.350669" d="M1435.08,-77.8511C1430.68,-73.4798 1424.68,-68.4265 1418.26,-65.6985 1276.39,-5.38459 1225.68,-52.8932 1073.26,-29.6985 1058.45,-27.4438 1041.99,-24.1704 1028.86,-21.3721"/>
<polygon fill="red" stroke="red" stroke-width="0.350669" points="1029.25,-17.8735 1018.73,-19.166 1027.76,-24.7133 1029.25,-17.8735"/>
</g>
<!-- &#45;10&#45;&gt;1 -->
<g id="edge38" class="edge"><title>&#45;10&#45;&gt;1</title>
<path fill="none" stroke="red" stroke-width="0.325823" d="M1434.58,-77.6278C1430.2,-73.4098 1424.37,-68.5774 1418.26,-65.6985 1333.58,-25.8002 1220.17,-17.7503 1170.43,-16.1876"/>
<polygon fill="red" stroke="red" stroke-width="0.325823" points="1170.36,-12.6849 1160.28,-15.9334 1170.19,-19.6827 1170.36,-12.6849"/>
</g>
<!-- &#45;10&#45;&gt;2 -->
<g id="edge39" class="edge"><title>&#45;10&#45;&gt;2</title>
<path fill="none" stroke="green" stroke-width="0.361576" d="M1435.06,-77.8911C1430.66,-73.5331 1424.66,-68.4798 1418.26,-65.6985 1296.33,-12.6615 1247.4,-71.7774 1121.26,-29.6985 1120.39,-29.4054 1119.5,-29.0781 1118.62,-28.7234"/>
<polygon fill="green" stroke="green" stroke-width="0.361576" points="1120.03,-25.5132 1109.52,-24.1832 1116.91,-31.7777 1120.03,-25.5132"/>
</g>
<!-- &#45;10&#45;&gt;3 -->
<g id="edge40" class="edge"><title>&#45;10&#45;&gt;3</title>
<path fill="none" stroke="green" stroke-width="0.18045" d="M1435.1,-77.7981C1430.71,-73.4091 1424.71,-68.3558 1418.26,-65.6985 1237.68,8.7386 1172.28,-65.4895 980.264,-29.6985 972.534,-28.2576 964.258,-26.0516 956.839,-23.8209"/>
<polygon fill="green" stroke="green" stroke-width="0.18045" points="957.657,-20.4087 947.067,-20.7281 955.545,-27.0824 957.657,-20.4087"/>
</g>
<!-- &#45;11 -->
<g id="node11" class="node"><title>&#45;11</title>
<polygon fill="lightgray" stroke="black" points="231.764,-95.9117 202.764,-95.9117 202.764,-77.9117 231.764,-77.9117 231.764,-95.9117"/>
<text text-anchor="middle" x="217.264" y="-84.7117" font-family="Times New Roman,serif" font-size="9.00">&#45;11</text>
</g>
<!-- &#45;11&#45;&gt;0 -->
<g id="edge41" class="edge"><title>&#45;11&#45;&gt;0</title>
<path fill="none" stroke="green" stroke-width="0.203867" d="M224.035,-77.7244C228.209,-73.3109 233.959,-68.2576 240.264,-65.6985 388.085,-5.6979 799.986,-56.4311 957.264,-29.6985 965.016,-28.3809 973.298,-26.2091 980.716,-23.9718"/>
<polygon fill="green" stroke="green" stroke-width="0.203867" points="982.024,-27.2281 990.482,-20.8477 979.891,-20.5609 982.024,-27.2281"/>
</g>
<!-- &#45;11&#45;&gt;1 -->
<g id="edge42" class="edge"><title>&#45;11&#45;&gt;1</title>
<path fill="none" stroke="red" stroke-width="0.141646" d="M224.026,-77.7024C228.197,-73.2815 233.947,-68.2282 240.264,-65.6985 422.161,7.14728 933.068,-84.2447 1121.26,-29.6985 1122.33,-29.3905 1123.39,-29.026 1124.45,-28.6177"/>
<polygon fill="red" stroke="red" stroke-width="0.141646" points="1126.16,-31.6766 1133.57,-24.1013 1123.05,-25.404 1126.16,-31.6766"/>
</g>
<!-- &#45;11&#45;&gt;3 -->
<g id="edge43" class="edge"><title>&#45;11&#45;&gt;3</title>
<path fill="none" stroke="green" stroke-width="0.145847" d="M224.056,-77.7755C228.237,-73.379 233.987,-68.3257 240.264,-65.6985 364.513,-13.6927 799.386,-14.487 908.356,-15.5367"/>
<polygon fill="green" stroke="green" stroke-width="0.145847" points="908.368,-19.0369 918.405,-15.6436 908.443,-12.0373 908.368,-19.0369"/>
</g>
<!-- &#45;12 -->
<g id="node12" class="node"><title>&#45;12</title>
<polygon fill="lightgray" stroke="black" points="1503.76,-95.9117 1474.76,-95.9117 1474.76,-77.9117 1503.76,-77.9117 1503.76,-95.9117"/>
<text text-anchor="middle" x="1489.26" y="-84.7117" font-family="Times New Roman,serif" font-size="9.00">&#45;12</text>
</g>
<!-- &#45;12&#45;&gt;0 -->
<g id="edge44" class="edge"><title>&#45;12&#45;&gt;0</title>
<path fill="none" stroke="green" stroke-width="0.231224" d="M1482.45,-77.8214C1478.26,-73.4402 1472.51,-68.3869 1466.26,-65.6985 1305.14,3.60065 1246.83,-54.9927 1073.26,-29.6985 1058.43,-27.5373 1041.98,-24.2678 1028.85,-21.4482"/>
<polygon fill="green" stroke="green" stroke-width="0.231224" points="1029.24,-17.9502 1018.72,-19.2197 1027.74,-24.7867 1029.24,-17.9502"/>
</g>
<!-- &#45;12&#45;&gt;1 -->
<g id="edge45" class="edge"><title>&#45;12&#45;&gt;1</title>
<path fill="none" stroke="green" stroke-width="0.633266" d="M1481.99,-77.5592C1477.82,-73.3211 1472.23,-68.4914 1466.26,-65.6985 1364.25,-17.9818 1226.07,-14.3754 1170.22,-15.0976"/>
<polygon fill="green" stroke="green" stroke-width="0.633266" points="1170.11,-11.5989 1160.18,-15.288 1170.25,-18.5977 1170.11,-11.5989"/>
</g>
<!-- &#45;12&#45;&gt;2 -->
<g id="edge46" class="edge"><title>&#45;12&#45;&gt;2</title>
<path fill="none" stroke="green" stroke-width="0.179851" d="M1482.44,-77.8509C1478.25,-73.4796 1472.5,-68.4263 1466.26,-65.6985 1325.03,-3.89542 1267.91,-77.2671 1121.26,-29.6985 1120.21,-29.3571 1119.15,-28.9652 1118.1,-28.5348"/>
<polygon fill="green" stroke="green" stroke-width="0.179851" points="1119.51,-25.3263 1109.01,-23.9368 1116.35,-31.573 1119.51,-25.3263"/>
</g>
<!-- &#45;12&#45;&gt;3 -->
<g id="edge47" class="edge"><title>&#45;12&#45;&gt;3</title>
<path fill="none" stroke="red" stroke-width="0.42935" d="M1482.47,-77.7805C1478.29,-73.3857 1472.54,-68.3324 1466.26,-65.6985 1366.41,-23.7787 1086.81,-49.113 980.264,-29.6985 972.528,-28.2888 964.251,-26.0915 956.832,-23.8591"/>
<polygon fill="red" stroke="red" stroke-width="0.42935" points="957.652,-20.4472 947.061,-20.7584 955.534,-27.1193 957.652,-20.4472"/>
</g>
<!-- &#45;13 -->
<g id="node13" class="node"><title>&#45;13</title>
<polygon fill="lightgray" stroke="black" points="1957.76,-95.9117 1928.76,-95.9117 1928.76,-77.9117 1957.76,-77.9117 1957.76,-95.9117"/>
<text text-anchor="middle" x="1943.26" y="-84.7117" font-family="Times New Roman,serif" font-size="9.00">&#45;13</text>
</g>
<!-- &#45;13&#45;&gt;0 -->
<g id="edge48" class="edge"><title>&#45;13&#45;&gt;0</title>
<path fill="none" stroke="red" stroke-width="0.233857" d="M1928.27,-79.7548C1915.9,-74.9831 1897.75,-68.6956 1881.26,-65.6985 1527.59,-1.40002 1430.09,-73.1962 1073.26,-29.6985 1058.29,-27.8735 1041.72,-24.5886 1028.56,-21.6759"/>
<polygon fill="red" stroke="red" stroke-width="0.233857" points="1028.96,-18.1762 1018.43,-19.357 1027.4,-24.9998 1028.96,-18.1762"/>
</g>
<!-- &#45;13&#45;&gt;1 -->
<g id="edge49" class="edge"><title>&#45;13&#45;&gt;1</title>
<path fill="none" stroke="red" stroke-width="0.104745" d="M1934.32,-77.7516C1928.93,-73.3472 1921.68,-68.2939 1914.26,-65.6985 1772.21,-15.972 1285.86,-15.1476 1170.12,-15.6775"/>
<polygon fill="red" stroke="red" stroke-width="0.104745" points="1170.09,-12.1775 1160.11,-15.7314 1170.12,-19.1774 1170.09,-12.1775"/>
</g>
<!-- &#45;13&#45;&gt;2 -->
<g id="edge50" class="edge"><title>&#45;13&#45;&gt;2</title>
<path fill="none" stroke="green" stroke-width="0.186682" d="M1934.34,-77.6977C1928.95,-73.2753 1921.7,-68.222 1914.26,-65.6985 1747.21,-9.03028 1290.58,-79.1891 1121.26,-29.6985 1120.2,-29.3881 1119.14,-29.0216 1118.08,-28.6118"/>
<polygon fill="green" stroke="green" stroke-width="0.186682" points="1119.48,-25.3984 1108.96,-24.0894 1116.37,-31.6691 1119.48,-25.3984"/>
</g>
<!-- &#45;14 -->
<g id="node14" class="node"><title>&#45;14</title>
<polygon fill="lightgray" stroke="black" points="1550.76,-95.9117 1521.76,-95.9117 1521.76,-77.9117 1550.76,-77.9117 1550.76,-95.9117"/>
<text text-anchor="middle" x="1536.26" y="-84.7117" font-family="Times New Roman,serif" font-size="9.00">&#45;14</text>
</g>
<!-- &#45;14&#45;&gt;0 -->
<g id="edge51" class="edge"><title>&#45;14&#45;&gt;0</title>
<path fill="none" stroke="green" stroke-width="0.414043" d="M1529.46,-77.7986C1525.28,-73.4098 1519.53,-68.3565 1513.26,-65.6985 1422.95,-27.3758 1170.41,-43.3746 1073.26,-29.6985 1058.42,-27.6094 1041.96,-24.3429 1028.84,-21.5068"/>
<polygon fill="green" stroke="green" stroke-width="0.414043" points="1029.24,-18.0092 1018.72,-19.2611 1027.72,-24.8432 1029.24,-18.0092"/>
</g>
<!-- &#45;14&#45;&gt;1 -->
<g id="edge52" class="edge"><title>&#45;14&#45;&gt;1</title>
<path fill="none" stroke="green" stroke-width="0.423448" d="M1529.01,-77.5128C1524.85,-73.2612 1519.26,-68.4333 1513.26,-65.6985 1451.61,-37.5843 1243.08,-22.0299 1170.46,-17.3649"/>
<polygon fill="green" stroke="green" stroke-width="0.423448" points="1170.58,-13.8661 1160.38,-16.7323 1170.15,-20.8524 1170.58,-13.8661"/>
</g>
<!-- &#45;14&#45;&gt;2 -->
<g id="edge53" class="edge"><title>&#45;14&#45;&gt;2</title>
<path fill="none" stroke="green" stroke-width="0.117633" d="M1529.45,-77.8219C1525.26,-73.4409 1519.51,-68.3876 1513.26,-65.6985 1352.55,3.44441 1288.01,-82.6497 1121.26,-29.6985 1120.21,-29.3636 1119.15,-28.9771 1118.1,-28.551"/>
<polygon fill="green" stroke="green" stroke-width="0.117633" points="1119.51,-25.3414 1109,-23.969 1116.36,-31.5932 1119.51,-25.3414"/>
</g>
<!-- &#45;14&#45;&gt;3 -->
<g id="edge54" class="edge"><title>&#45;14&#45;&gt;3</title>
<path fill="none" stroke="red" stroke-width="0.141723" d="M1529.48,-77.7652C1525.3,-73.3653 1519.55,-68.312 1513.26,-65.6985 1403.66,-20.1019 1097.12,-50.6011 980.264,-29.6985 972.524,-28.314 964.245,-26.1236 956.826,-23.8899"/>
<polygon fill="red" stroke="red" stroke-width="0.141723" points="957.647,-20.4783 947.057,-20.7828 955.526,-27.1491 957.647,-20.4783"/>
</g>
<!-- &#45;15 -->
<g id="node15" class="node"><title>&#45;15</title>
<polygon fill="lightgray" stroke="black" points="1597.76,-95.9117 1568.76,-95.9117 1568.76,-77.9117 1597.76,-77.9117 1597.76,-95.9117"/>
<text text-anchor="middle" x="1583.26" y="-84.7117" font-family="Times New Roman,serif" font-size="9.00">&#45;15</text>
</g>
<!-- &#45;15&#45;&gt;0 -->
<g id="edge55" class="edge"><title>&#45;15&#45;&gt;0</title>
<path fill="none" stroke="green" stroke-width="0.687033" d="M1576.47,-77.7801C1572.29,-73.3852 1566.54,-68.3319 1560.26,-65.6985 1460.2,-23.7005 1180.78,-44.4044 1073.26,-29.6985 1058.42,-27.6676 1041.96,-24.4036 1028.84,-21.5543"/>
<polygon fill="green" stroke="green" stroke-width="0.687033" points="1029.24,-18.0569 1018.71,-19.2945 1027.71,-24.8888 1029.24,-18.0569"/>
</g>
<!-- &#45;15&#45;&gt;1 -->
<g id="edge56" class="edge"><title>&#45;15&#45;&gt;1</title>
<path fill="none" stroke="red" stroke-width="0.305241" d="M1576.42,-77.8873C1572.23,-73.528 1566.48,-68.4747 1560.26,-65.6985 1489.7,-34.1627 1249.21,-20.5932 1170.46,-16.9259"/>
<polygon fill="red" stroke="red" stroke-width="0.305241" points="1170.2,-13.4107 1160.05,-16.4557 1169.88,-20.4036 1170.2,-13.4107"/>
</g>
<!-- &#45;15&#45;&gt;2 -->
<g id="edge57" class="edge"><title>&#45;15&#45;&gt;2</title>
<path fill="none" stroke="green" stroke-width="0.525702" d="M1576.46,-77.799C1572.28,-73.4104 1566.53,-68.3571 1560.26,-65.6985 1380.06,10.7905 1308.14,-88.037 1121.26,-29.6985 1120.21,-29.3688 1119.15,-28.9865 1118.09,-28.5638"/>
<polygon fill="green" stroke="green" stroke-width="0.525702" points="1119.5,-25.3534 1108.99,-23.9943 1116.36,-31.6092 1119.5,-25.3534"/>
</g>
<!-- &#45;15&#45;&gt;3 -->
<g id="edge58" class="edge"><title>&#45;15&#45;&gt;3</title>
<path fill="none" stroke="green" stroke-width="0.307475" d="M1576.48,-77.7524C1572.3,-73.3481 1566.55,-68.2948 1560.26,-65.6985 1440.9,-16.4238 1107.44,-52.0897 980.264,-29.6985 972.52,-28.3351 964.24,-26.1506 956.822,-23.9157"/>
<polygon fill="green" stroke="green" stroke-width="0.307475" points="957.644,-20.5044 947.053,-20.8032 955.519,-27.174 957.644,-20.5044"/>
</g>
<!-- &#45;16 -->
<g id="node16" class="node"><title>&#45;16</title>
<polygon fill="lightgray" stroke="black" points="1644.76,-95.9117 1615.76,-95.9117 1615.76,-77.9117 1644.76,-77.9117 1644.76,-95.9117"/>
<text text-anchor="middle" x="1630.26" y="-84.7117" font-family="Times New Roman,serif" font-size="9.00">&#45;16</text>
</g>
<!-- &#45;16&#45;&gt;0 -->
<g id="edge59" class="edge"><title>&#45;16&#45;&gt;0</title>
<path fill="none" stroke="red" stroke-width="0.257027" d="M1623.48,-77.7649C1619.3,-73.3649 1613.55,-68.3116 1607.26,-65.6985 1497.45,-20.0236 1191.15,-45.4348 1073.26,-29.6985 1058.31,-27.703 1041.74,-24.412 1028.58,-21.5388"/>
<polygon fill="red" stroke="red" stroke-width="0.257027" points="1028.97,-18.0384 1018.44,-19.2611 1027.43,-24.8681 1028.97,-18.0384"/>
</g>
<!-- &#45;16&#45;&gt;1 -->
<g id="edge60" class="edge"><title>&#45;16&#45;&gt;1</title>
<path fill="none" stroke="green" stroke-width="0.452271" d="M1623.44,-77.8591C1619.24,-73.4905 1613.49,-68.4372 1607.26,-65.6985 1527.75,-30.7385 1255.13,-19.3218 1170.52,-16.5768"/>
<polygon fill="green" stroke="green" stroke-width="0.452271" points="1170.4,-13.0714 1160.29,-16.2582 1170.18,-20.068 1170.4,-13.0714"/>
</g>
<!-- &#45;16&#45;&gt;2 -->
<g id="edge61" class="edge"><title>&#45;16&#45;&gt;2</title>
<path fill="none" stroke="green" stroke-width="0.411643" d="M1623.47,-77.7805C1619.29,-73.3857 1613.54,-68.3324 1607.26,-65.6985 1407.56,18.141 1328.27,-93.4278 1121.26,-29.6985 1120.21,-29.3729 1119.15,-28.9941 1118.09,-28.5741"/>
<polygon fill="green" stroke="green" stroke-width="0.411643" points="1119.49,-25.3631 1108.99,-24.0149 1116.36,-31.6221 1119.49,-25.3631"/>
</g>
<!-- &#45;16&#45;&gt;3 -->
<g id="edge62" class="edge"><title>&#45;16&#45;&gt;3</title>
<path fill="none" stroke="red" stroke-width="0.101031" d="M1623.49,-77.7414C1619.31,-73.3336 1613.56,-68.2803 1607.26,-65.6985 1478.14,-12.7448 1117.77,-53.5788 980.264,-29.6985 972.517,-28.353 964.236,-26.1735 956.818,-23.9377"/>
<polygon fill="red" stroke="red" stroke-width="0.101031" points="957.641,-20.5265 947.05,-20.8207 955.513,-27.1952 957.641,-20.5265"/>
</g>
<!-- &#45;17 -->
<g id="node17" class="node"><title>&#45;17</title>
<polygon fill="lightgray" stroke="black" points="1691.76,-95.9117 1662.76,-95.9117 1662.76,-77.9117 1691.76,-77.9117 1691.76,-95.9117"/>
<text text-anchor="middle" x="1677.26" y="-84.7117" font-family="Times New Roman,serif" font-size="9.00">&#45;17</text>
</g>
<!-- &#45;17&#45;&gt;0 -->
<g id="edge63" class="edge"><title>&#45;17&#45;&gt;0</title>
<path fill="none" stroke="green" stroke-width="0.119663" d="M1670.48,-77.7521C1666.3,-73.3478 1660.55,-68.2945 1654.26,-65.6985 1534.69,-16.3455 1201.53,-46.4655 1073.26,-29.6985 1058.31,-27.7436 1041.73,-24.4541 1028.58,-21.5714"/>
<polygon fill="green" stroke="green" stroke-width="0.119663" points="1028.97,-18.0712 1018.44,-19.2839 1027.43,-24.8995 1028.97,-18.0712"/>
</g>
<!-- &#45;17&#45;&gt;1 -->
<g id="edge64" class="edge"><title>&#45;17&#45;&gt;1</title>
<path fill="none" stroke="green" stroke-width="0.293607" d="M1670.45,-77.8361C1666.26,-73.4598 1660.51,-68.4065 1654.26,-65.6985 1565.71,-27.2819 1260.4,-18.1626 1170.41,-16.2868"/>
<polygon fill="green" stroke="green" stroke-width="0.293607" points="1170.38,-12.7855 1160.31,-16.0883 1170.24,-19.7841 1170.38,-12.7855"/>
</g>
<!-- &#45;17&#45;&gt;2 -->
<g id="edge65" class="edge"><title>&#45;17&#45;&gt;2</title>
<path fill="none" stroke="green" stroke-width="0.246412" d="M1670.48,-77.7652C1666.3,-73.3653 1660.55,-68.312 1654.26,-65.6985 1435.05,25.4948 1348.41,-98.821 1121.26,-29.6985 1120.21,-29.3764 1119.14,-29.0003 1118.09,-28.5827"/>
<polygon fill="green" stroke="green" stroke-width="0.246412" points="1119.49,-25.3711 1108.98,-24.0318 1116.36,-31.6328 1119.49,-25.3711"/>
</g>
<!-- &#45;17&#45;&gt;3 -->
<g id="edge66" class="edge"><title>&#45;17&#45;&gt;3</title>
<path fill="none" stroke="green" stroke-width="0.309296" d="M1670.49,-77.732C1666.31,-73.321 1660.56,-68.2677 1654.26,-65.6985 1515.38,-9.06501 1128.09,-55.0682 980.264,-29.6985 972.514,-28.3685 964.233,-26.1933 956.815,-23.9567"/>
<polygon fill="green" stroke="green" stroke-width="0.309296" points="957.638,-20.5456 947.048,-20.8356 955.508,-27.2135 957.638,-20.5456"/>
</g>
<!-- &#45;18 -->
<g id="node18" class="node"><title>&#45;18</title>
<polygon fill="lightgray" stroke="black" points="1738.76,-95.9117 1709.76,-95.9117 1709.76,-77.9117 1738.76,-77.9117 1738.76,-95.9117"/>
<text text-anchor="middle" x="1724.26" y="-84.7117" font-family="Times New Roman,serif" font-size="9.00">&#45;18</text>
</g>
<!-- &#45;18&#45;&gt;0 -->
<g id="edge67" class="edge"><title>&#45;18&#45;&gt;0</title>
<path fill="none" stroke="red" stroke-width="0.48116" d="M1717.49,-77.7412C1713.31,-73.3333 1707.56,-68.28 1701.26,-65.6985 1571.93,-12.6665 1211.91,-47.4966 1073.26,-29.6985 1058.31,-27.7782 1041.73,-24.4899 1028.57,-21.5992"/>
<polygon fill="red" stroke="red" stroke-width="0.48116" points="1028.97,-18.0992 1018.44,-19.3034 1027.42,-24.9262 1028.97,-18.0992"/>
</g>
<!-- &#45;18&#45;&gt;1 -->
<g id="edge68" class="edge"><title>&#45;18&#45;&gt;1</title>
<path fill="none" stroke="green" stroke-width="0.119425" d="M1717.45,-77.8169C1713.27,-73.4341 1707.52,-68.3808 1701.26,-65.6985 1603.59,-23.8038 1265.2,-17.1054 1170.23,-16.0459"/>
<polygon fill="green" stroke="green" stroke-width="0.119425" points="1170.15,-12.5451 1160.12,-15.9447 1170.08,-19.5447 1170.15,-12.5451"/>
</g>
<!-- &#45;18&#45;&gt;2 -->
<g id="edge69" class="edge"><title>&#45;18&#45;&gt;2</title>
<path fill="none" stroke="red" stroke-width="0.441858" d="M1717.48,-77.7524C1713.3,-73.3481 1707.55,-68.2948 1701.26,-65.6985 1581.9,-16.4238 1244.91,-66.9572 1121.26,-29.6985 1120.2,-29.3793 1119.14,-29.0056 1118.08,-28.5899"/>
<polygon fill="red" stroke="red" stroke-width="0.441858" points="1119.49,-25.3778 1108.98,-24.046 1116.36,-31.6417 1119.49,-25.3778"/>
</g>
<!-- &#45;18&#45;&gt;3 -->
<g id="edge70" class="edge"><title>&#45;18&#45;&gt;3</title>
<path fill="none" stroke="red" stroke-width="0.188002" d="M1717.49,-77.7238C1713.32,-73.31 1707.57,-68.2567 1701.26,-65.6985 1552.61,-5.38466 1138.42,-56.5579 980.264,-29.6985 972.512,-28.3819 964.23,-26.2105 956.812,-23.9731"/>
<polygon fill="red" stroke="red" stroke-width="0.188002" points="957.636,-20.5622 947.045,-20.8487 955.503,-27.2294 957.636,-20.5622"/>
</g>
<!-- &#45;19 -->
<g id="node19" class="node"><title>&#45;19</title>
<polygon fill="lightgray" stroke="black" points="1785.76,-95.9117 1756.76,-95.9117 1756.76,-77.9117 1785.76,-77.9117 1785.76,-95.9117"/>
<text text-anchor="middle" x="1771.26" y="-84.7117" font-family="Times New Roman,serif" font-size="9.00">&#45;19</text>
</g>
<!-- &#45;19&#45;&gt;0 -->
<g id="edge71" class="edge"><title>&#45;19&#45;&gt;0</title>
<path fill="none" stroke="green" stroke-width="0.629291" d="M1764.49,-77.7318C1760.31,-73.3207 1754.56,-68.2674 1748.26,-65.6985 1609.17,-8.98671 1222.29,-48.528 1073.26,-29.6985 1058.3,-27.808 1041.73,-24.5207 1028.57,-21.6232"/>
<polygon fill="green" stroke="green" stroke-width="0.629291" points="1028.96,-18.1232 1018.44,-19.3201 1027.41,-24.9492 1028.96,-18.1232"/>
</g>
<!-- &#45;19&#45;&gt;1 -->
<g id="edge72" class="edge"><title>&#45;19&#45;&gt;1</title>
<path fill="none" stroke="green" stroke-width="0.226252" stroke-dasharray="1,5" d="M1764.46,-77.8006C1760.28,-73.4124 1754.53,-68.3591 1748.26,-65.6985 1641.56,-20.3675 1270.59,-16.1479 1170.38,-15.8458"/>
<polygon fill="green" stroke="green" stroke-width="0.226252" points="1170.28,-12.3457 1160.28,-15.8263 1170.27,-19.3457 1170.28,-12.3457"/>
</g>
<!-- &#45;19&#45;&gt;2 -->
<g id="edge73" class="edge"><title>&#45;19&#45;&gt;2</title>
<path fill="none" stroke="red" stroke-width="0.223941" d="M1764.49,-77.7414C1760.31,-73.3336 1754.56,-68.2803 1748.26,-65.6985 1619.14,-12.7448 1254.98,-69.6555 1121.26,-29.6985 1120.2,-29.3817 1119.14,-29.0101 1118.08,-28.596"/>
<polygon fill="red" stroke="red" stroke-width="0.223941" points="1119.48,-25.3835 1108.97,-24.0581 1116.36,-31.6494 1119.48,-25.3835"/>
</g>
<!-- &#45;19&#45;&gt;3 -->
<g id="edge74" class="edge"><title>&#45;19&#45;&gt;3</title>
<path fill="none" stroke="green" stroke-width="0.201593" d="M1764.5,-77.7166C1760.32,-73.3004 1754.57,-68.2471 1748.26,-65.6985 1589.85,-1.70384 1148.75,-58.0478 980.264,-29.6985 972.51,-28.3938 964.227,-26.2256 956.809,-23.9876"/>
<polygon fill="green" stroke="green" stroke-width="0.201593" points="957.634,-20.5768 947.043,-20.8602 955.5,-27.2433 957.634,-20.5768"/>
</g>
<!-- &#45;20 -->
<g id="node20" class="node"><title>&#45;20</title>
<polygon fill="lightgray" stroke="black" points="278.764,-95.9117 249.764,-95.9117 249.764,-77.9117 278.764,-77.9117 278.764,-95.9117"/>
<text text-anchor="middle" x="264.264" y="-84.7117" font-family="Times New Roman,serif" font-size="9.00">&#45;20</text>
</g>
<!-- &#45;20&#45;&gt;0 -->
<g id="edge75" class="edge"><title>&#45;20&#45;&gt;0</title>
<path fill="none" stroke="green" stroke-width="0.274646" d="M271.039,-77.7327C275.214,-73.322 280.964,-68.2687 287.264,-65.6985 425.322,-9.3782 810.313,-54.9414 957.264,-29.6985 965.014,-28.3672 973.295,-26.1917 980.713,-23.9551"/>
<polygon fill="green" stroke="green" stroke-width="0.274646" points="982.02,-27.212 990.48,-20.8345 979.889,-20.5441 982.02,-27.212"/>
</g>
<!-- &#45;20&#45;&gt;1 -->
<g id="edge76" class="edge"><title>&#45;20&#45;&gt;1</title>
<path fill="none" stroke="red" stroke-width="0.711259" d="M271.029,-77.7078C275.2,-73.2887 280.95,-68.2354 287.264,-65.6985 459.394,3.46562 943.15,-81.5444 1121.26,-29.6985 1122.33,-29.3893 1123.39,-29.0238 1124.45,-28.6147"/>
<polygon fill="red" stroke="red" stroke-width="0.711259" points="1126.16,-31.6728 1133.57,-24.0952 1123.05,-25.4011 1126.16,-31.6728"/>
</g>
<!-- &#45;20&#45;&gt;2 -->
<g id="edge77" class="edge"><title>&#45;20&#45;&gt;2</title>
<path fill="none" stroke="green" stroke-width="0.138354" d="M271.034,-77.7206C275.207,-73.3058 280.957,-68.2525 287.264,-65.6985 440.071,-3.81841 864.655,-49.9765 1028.26,-29.6985 1043.23,-27.8434 1059.81,-24.5574 1072.96,-21.6517"/>
<polygon fill="green" stroke="green" stroke-width="0.138354" points="1074.12,-24.9766 1083.09,-19.3401 1072.57,-18.1519 1074.12,-24.9766"/>
</g>
<!-- &#45;20&#45;&gt;3 -->
<g id="edge78" class="edge"><title>&#45;20&#45;&gt;3</title>
<path fill="none" stroke="green" stroke-width="0.262522" d="M271.062,-77.7877C275.244,-73.3953 280.994,-68.342 287.264,-65.6985 402.271,-17.209 803.315,-15.3276 908.073,-15.6862"/>
<polygon fill="green" stroke="green" stroke-width="0.262522" points="908.3,-19.1872 918.316,-15.7322 908.332,-12.1873 908.3,-19.1872"/>
</g>
<!-- &#45;21 -->
<g id="node21" class="node"><title>&#45;21</title>
<polygon fill="lightgray" stroke="black" points="325.764,-95.9117 296.764,-95.9117 296.764,-77.9117 325.764,-77.9117 325.764,-95.9117"/>
<text text-anchor="middle" x="311.264" y="-84.7117" font-family="Times New Roman,serif" font-size="9.00">&#45;21</text>
</g>
<!-- &#45;21&#45;&gt;0 -->
<g id="edge79" class="edge"><title>&#45;21&#45;&gt;0</title>
<path fill="none" stroke="green" stroke-width="0.41399" d="M318.043,-77.7423C322.219,-73.3347 327.969,-68.2814 334.264,-65.6985 462.56,-13.0579 820.638,-53.452 957.264,-29.6985 965.011,-28.3516 973.291,-26.1717 980.71,-23.936"/>
<polygon fill="green" stroke="green" stroke-width="0.41399" points="982.015,-27.1935 990.478,-20.8193 979.887,-20.5248 982.015,-27.1935"/>
</g>
<!-- &#45;21&#45;&gt;1 -->
<g id="edge80" class="edge"><title>&#45;21&#45;&gt;1</title>
<path fill="none" stroke="red" stroke-width="0.244973" d="M318.031,-77.7139C322.203,-73.2969 327.953,-68.2436 334.264,-65.6985 496.628,-0.215737 953.232,-78.8445 1121.26,-29.6985 1122.33,-29.3879 1123.39,-29.0213 1124.45,-28.6113"/>
<polygon fill="red" stroke="red" stroke-width="0.244973" points="1126.16,-31.6685 1133.56,-24.0885 1123.05,-25.398 1126.16,-31.6685"/>
</g>
<!-- &#45;21&#45;&gt;2 -->
<g id="edge81" class="edge"><title>&#45;21&#45;&gt;2</title>
<path fill="none" stroke="red" stroke-width="0.197655" d="M318.037,-77.7284C322.211,-73.3161 327.961,-68.2628 334.264,-65.6985 477.307,-7.49897 875.038,-48.9449 1028.26,-29.6985 1043.23,-27.8189 1059.8,-24.532 1072.96,-21.6319"/>
<polygon fill="red" stroke="red" stroke-width="0.197655" points="1074.12,-24.9576 1083.09,-19.3263 1072.56,-18.132 1074.12,-24.9576"/>
</g>
<!-- &#45;21&#45;&gt;3 -->
<g id="edge82" class="edge"><title>&#45;21&#45;&gt;3</title>
<path fill="none" stroke="green" stroke-width="0.405543" d="M318.068,-77.8019C322.252,-73.4142 328.002,-68.3609 334.264,-65.6985 440.249,-20.6371 808.771,-16.2222 908.317,-15.8611"/>
<polygon fill="green" stroke="green" stroke-width="0.405543" points="908.359,-19.3611 918.35,-15.8357 908.341,-12.3612 908.359,-19.3611"/>
</g>
<!-- &#45;22 -->
<g id="node22" class="node"><title>&#45;22</title>
<polygon fill="lightgray" stroke="black" points="372.764,-95.9117 343.764,-95.9117 343.764,-77.9117 372.764,-77.9117 372.764,-95.9117"/>
<text text-anchor="middle" x="358.264" y="-84.7117" font-family="Times New Roman,serif" font-size="9.00">&#45;22</text>
</g>
<!-- &#45;22&#45;&gt;0 -->
<g id="edge83" class="edge"><title>&#45;22&#45;&gt;0</title>
<path fill="none" stroke="green" stroke-width="0.414287" d="M365.047,-77.7534C369.225,-73.3495 374.975,-68.2962 381.264,-65.6985 499.8,-16.7368 830.962,-51.963 957.264,-29.6985 965.008,-28.3334 973.287,-26.1484 980.706,-23.9137"/>
<polygon fill="green" stroke="green" stroke-width="0.414287" points="982.009,-27.172 990.474,-20.8016 979.884,-20.5023 982.009,-27.172"/>
</g>
<!-- &#45;22&#45;&gt;1 -->
<g id="edge84" class="edge"><title>&#45;22&#45;&gt;1</title>
<path fill="none" stroke="green" stroke-width="0.282565" d="M365.034,-77.7208C369.207,-73.306 374.957,-68.2527 381.264,-65.6985 533.863,-3.89673 963.312,-76.1448 1121.26,-29.6985 1122.33,-29.3863 1123.39,-29.0185 1124.45,-28.6075"/>
<polygon fill="green" stroke="green" stroke-width="0.282565" points="1126.16,-31.6637 1133.56,-24.0809 1123.05,-25.3944 1126.16,-31.6637"/>
</g>
<!-- &#45;22&#45;&gt;2 -->
<g id="edge85" class="edge"><title>&#45;22&#45;&gt;2</title>
<path fill="none" stroke="red" stroke-width="0.191824" d="M365.041,-77.7372C369.216,-73.328 374.966,-68.2747 381.264,-65.6985 514.544,-11.179 885.421,-47.9135 1028.26,-29.6985 1043.22,-27.7908 1059.8,-24.5029 1072.95,-21.6093"/>
<polygon fill="red" stroke="red" stroke-width="0.191824" points="1074.11,-24.9359 1083.09,-19.3105 1072.56,-18.1093 1074.11,-24.9359"/>
</g>
<!-- &#45;22&#45;&gt;3 -->
<g id="edge86" class="edge"><title>&#45;22&#45;&gt;3</title>
<path fill="none" stroke="green" stroke-width="0.340031" d="M365.075,-77.8184C369.261,-73.4362 375.011,-68.3829 381.264,-65.6985 478.116,-24.1171 813.451,-17.1972 908.17,-16.0661"/>
<polygon fill="green" stroke="green" stroke-width="0.340031" points="908.298,-19.565 918.26,-15.9572 908.223,-12.5654 908.298,-19.565"/>
</g>
<!-- &#45;23 -->
<g id="node23" class="node"><title>&#45;23</title>
<polygon fill="lightgray" stroke="black" points="419.764,-95.9117 390.764,-95.9117 390.764,-77.9117 419.764,-77.9117 419.764,-95.9117"/>
<text text-anchor="middle" x="405.264" y="-84.7117" font-family="Times New Roman,serif" font-size="9.00">&#45;23</text>
</g>
<!-- &#45;23&#45;&gt;0 -->
<g id="edge87" class="edge"><title>&#45;23&#45;&gt;0</title>
<path fill="none" stroke="green" stroke-width="0.197676" d="M412.053,-77.7664C416.232,-73.3669 421.982,-68.3136 428.264,-65.6985 537.042,-20.4148 841.283,-50.4744 957.264,-29.6985 965.004,-28.312 973.282,-26.1211 980.701,-23.8875"/>
<polygon fill="green" stroke="green" stroke-width="0.197676" points="982.002,-27.1467 990.471,-20.7809 979.88,-20.4759 982.002,-27.1467"/>
</g>
<!-- &#45;23&#45;&gt;1 -->
<g id="edge88" class="edge"><title>&#45;23&#45;&gt;1</title>
<path fill="none" stroke="red" stroke-width="0.134528" d="M412.037,-77.7285C416.211,-73.3164 421.961,-68.2631 428.264,-65.6985 571.099,-7.57727 973.392,-73.4454 1121.26,-29.6985 1122.32,-29.3846 1123.39,-29.0153 1124.45,-28.6031"/>
<polygon fill="red" stroke="red" stroke-width="0.134528" points="1126.16,-31.6583 1133.56,-24.0723 1123.05,-25.3903 1126.16,-31.6583"/>
</g>
<!-- &#45;23&#45;&gt;2 -->
<g id="edge89" class="edge"><title>&#45;23&#45;&gt;2</title>
<path fill="none" stroke="red" stroke-width="0.702731" d="M412.045,-77.7475C416.222,-73.3417 421.972,-68.2884 428.264,-65.6985 551.783,-14.8583 895.801,-46.8823 1028.26,-29.6985 1043.22,-27.7583 1059.8,-24.4692 1072.95,-21.5832"/>
<polygon fill="red" stroke="red" stroke-width="0.702731" points="1074.1,-24.9108 1083.09,-19.2922 1072.56,-18.0831 1074.1,-24.9108"/>
</g>
<!-- &#45;23&#45;&gt;3 -->
<g id="edge90" class="edge"><title>&#45;23&#45;&gt;3</title>
<path fill="none" stroke="green" stroke-width="0.159629" d="M412.083,-77.8379C416.273,-73.4622 422.023,-68.4089 428.264,-65.6985 516.116,-27.5472 819.032,-18.2426 908.312,-16.3049"/>
<polygon fill="green" stroke="green" stroke-width="0.159629" points="908.411,-19.8037 918.338,-16.0993 908.268,-12.8051 908.411,-19.8037"/>
</g>
<!-- &#45;24 -->
<g id="node24" class="node"><title>&#45;24</title>
<polygon fill="lightgray" stroke="black" points="466.764,-95.9117 437.764,-95.9117 437.764,-77.9117 466.764,-77.9117 466.764,-95.9117"/>
<text text-anchor="middle" x="452.264" y="-84.7117" font-family="Times New Roman,serif" font-size="9.00">&#45;24</text>
</g>
<!-- &#45;24&#45;&gt;0 -->
<g id="edge91" class="edge"><title>&#45;24&#45;&gt;0</title>
<path fill="none" stroke="green" stroke-width="0.121762" d="M459.059,-77.7819C463.241,-73.3876 468.991,-68.3343 475.264,-65.6985 574.288,-24.0916 851.601,-48.9863 957.264,-29.6985 964.999,-28.2864 973.277,-26.0885 980.696,-23.8562"/>
<polygon fill="green" stroke="green" stroke-width="0.121762" points="981.993,-27.1165 990.466,-20.7561 979.876,-20.4443 981.993,-27.1165"/>
</g>
<!-- &#45;24&#45;&gt;1 -->
<g id="edge92" class="edge"><title>&#45;24&#45;&gt;1</title>
<path fill="none" stroke="green" stroke-width="0.289741" d="M459.041,-77.7374C463.216,-73.3283 468.966,-68.275 475.264,-65.6985 608.337,-11.2573 983.47,-70.7464 1121.26,-29.6985 1122.32,-29.3826 1123.39,-29.0117 1124.45,-28.5982"/>
<polygon fill="green" stroke="green" stroke-width="0.289741" points="1126.16,-31.6521 1133.56,-24.0625 1123.05,-25.3856 1126.16,-31.6521"/>
</g>
<!-- &#45;24&#45;&gt;2 -->
<g id="edge93" class="edge"><title>&#45;24&#45;&gt;2</title>
<path fill="none" stroke="green" stroke-width="0.317268" d="M459.05,-77.7595C463.228,-73.3576 468.978,-68.3043 475.264,-65.6985 589.025,-18.5368 906.179,-45.8514 1028.26,-29.6985 1043.22,-27.7203 1059.79,-24.4299 1072.95,-21.5526"/>
<polygon fill="green" stroke="green" stroke-width="0.317268" points="1074.1,-24.8815 1083.08,-19.2708 1072.56,-18.0523 1074.1,-24.8815"/>
</g>
<!-- &#45;24&#45;&gt;3 -->
<g id="edge94" class="edge"><title>&#45;24&#45;&gt;3</title>
<path fill="none" stroke="red" stroke-width="0.223543" d="M459.093,-77.8613C463.286,-73.4934 469.036,-68.4401 475.264,-65.6985 554.079,-31.0009 824.348,-19.4052 908.229,-16.5967"/>
<polygon fill="red" stroke="red" stroke-width="0.223543" points="908.483,-20.0904 918.365,-16.2702 908.258,-13.094 908.483,-20.0904"/>
</g>
<!-- &#45;25 -->
<g id="node25" class="node"><title>&#45;25</title>
<polygon fill="lightgray" stroke="black" points="513.764,-95.9117 484.764,-95.9117 484.764,-77.9117 513.764,-77.9117 513.764,-95.9117"/>
<text text-anchor="middle" x="499.264" y="-84.7117" font-family="Times New Roman,serif" font-size="9.00">&#45;25</text>
</g>
<!-- &#45;25&#45;&gt;0 -->
<g id="edge95" class="edge"><title>&#45;25&#45;&gt;0</title>
<path fill="none" stroke="red" stroke-width="0.224315" d="M506.067,-77.8008C510.251,-73.4127 516.001,-68.3594 522.264,-65.6985 700.809,10.1651 766.564,-65.2997 957.264,-29.6985 964.994,-28.2554 973.269,-26.0488 980.689,-23.8182"/>
<polygon fill="red" stroke="red" stroke-width="0.224315" points="981.983,-27.0799 990.461,-20.726 979.871,-20.406 981.983,-27.0799"/>
</g>
<!-- &#45;25&#45;&gt;1 -->
<g id="edge96" class="edge"><title>&#45;25&#45;&gt;1</title>
<path fill="none" stroke="green" stroke-width="0.131489" d="M506.045,-77.7477C510.222,-73.342 515.972,-68.2887 522.264,-65.6985 645.576,-14.9366 993.546,-68.0479 1121.26,-29.6985 1122.32,-29.3803 1123.39,-29.0075 1124.44,-28.5924"/>
<polygon fill="green" stroke="green" stroke-width="0.131489" points="1126.17,-31.645 1133.55,-24.0511 1123.04,-25.3802 1126.17,-31.645"/>
</g>
<!-- &#45;25&#45;&gt;2 -->
<g id="edge97" class="edge"><title>&#45;25&#45;&gt;2</title>
<path fill="none" stroke="green" stroke-width="0.193871" d="M506.056,-77.7736C510.236,-73.3765 515.986,-68.3232 522.264,-65.6985 626.268,-22.2143 916.554,-44.8209 1028.26,-29.6985 1043.11,-27.6881 1059.57,-24.4249 1072.69,-21.5709"/>
<polygon fill="green" stroke="green" stroke-width="0.193871" points="1073.82,-24.9049 1082.82,-19.3063 1072.29,-18.0737 1073.82,-24.9049"/>
</g>
<!-- &#45;25&#45;&gt;3 -->
<g id="edge98" class="edge"><title>&#45;25&#45;&gt;3</title>
<path fill="none" stroke="red" stroke-width="0.20803" d="M506.106,-77.89C510.303,-73.5316 516.053,-68.4783 522.264,-65.6985 591.985,-34.4921 829.249,-20.7418 907.786,-16.973"/>
<polygon fill="red" stroke="red" stroke-width="0.20803" points="908.357,-20.4503 918.183,-16.4885 908.031,-13.4579 908.357,-20.4503"/>
</g>
<!-- &#45;26 -->
<g id="node26" class="node"><title>&#45;26</title>
<polygon fill="lightgray" stroke="black" points="145.764,-95.9117 116.764,-95.9117 116.764,-77.9117 145.764,-77.9117 145.764,-95.9117"/>
<text text-anchor="middle" x="131.264" y="-84.7117" font-family="Times New Roman,serif" font-size="9.00">&#45;26</text>
</g>
<!-- &#45;26&#45;&gt;0 -->
<g id="edge99" class="edge"><title>&#45;26&#45;&gt;0</title>
<path fill="none" stroke="red" stroke-width="0.386539" d="M140.184,-77.6971C145.575,-73.2744 152.825,-68.2211 160.264,-65.6985 328.165,-8.76411 782.405,-58.9671 957.264,-29.6985 965.019,-28.4004 973.302,-26.234 980.72,-23.9957"/>
<polygon fill="red" stroke="red" stroke-width="0.386539" points="982.031,-27.2511 990.486,-20.8666 979.895,-20.5849 982.031,-27.2511"/>
</g>
<!-- &#45;26&#45;&gt;2 -->
<g id="edge100" class="edge"><title>&#45;26&#45;&gt;2</title>
<path fill="none" stroke="green" stroke-width="0.164713" d="M146.254,-79.7485C158.63,-74.9731 176.776,-68.6838 193.264,-65.6985 558.777,0.481608 659.505,-74.3818 1028.26,-29.6985 1043.24,-27.8843 1059.81,-24.5997 1072.96,-21.6846"/>
<polygon fill="green" stroke="green" stroke-width="0.164713" points="1074.13,-25.0081 1083.1,-19.3631 1072.57,-18.1849 1074.13,-25.0081"/>
</g>
<!-- &#45;26&#45;&gt;3 -->
<g id="edge101" class="edge"><title>&#45;26&#45;&gt;3</title>
<path fill="none" stroke="red" stroke-width="0.275435" stroke-dasharray="1,5" d="M140.203,-77.7507C145.599,-73.3459 152.849,-68.2926 160.264,-65.6985 303.061,-15.7383 791.939,-15.091 908.274,-15.6672"/>
<polygon fill="red" stroke="red" stroke-width="0.275435" points="908.325,-19.1674 918.345,-15.7252 908.365,-12.1676 908.325,-19.1674"/>
</g>
<!-- &#45;27 -->
<g id="node27" class="node"><title>&#45;27</title>
<polygon fill="lightgray" stroke="black" points="560.764,-95.9117 531.764,-95.9117 531.764,-77.9117 560.764,-77.9117 560.764,-95.9117"/>
<text text-anchor="middle" x="546.264" y="-84.7117" font-family="Times New Roman,serif" font-size="9.00">&#45;27</text>
</g>
<!-- &#45;27&#45;&gt;0 -->
<g id="edge102" class="edge"><title>&#45;27&#45;&gt;0</title>
<path fill="none" stroke="green" stroke-width="0.241895" d="M553.077,-77.8241C557.265,-73.4438 563.015,-68.3905 569.264,-65.6985 728.319,2.81947 787.18,-62.3272 957.264,-29.6985 964.986,-28.217 973.26,-25.9997 980.68,-23.7712"/>
<polygon fill="green" stroke="green" stroke-width="0.241895" points="981.969,-27.0344 990.454,-20.6888 979.864,-20.3585 981.969,-27.0344"/>
</g>
<!-- &#45;27&#45;&gt;1 -->
<g id="edge103" class="edge"><title>&#45;27&#45;&gt;1</title>
<path fill="none" stroke="red" stroke-width="0.77704" d="M553.05,-77.7597C557.228,-73.358 562.978,-68.3047 569.264,-65.6985 796.37,28.4683 885.976,-101.002 1121.26,-29.6985 1122.32,-29.3776 1123.39,-29.0026 1124.44,-28.5857"/>
<polygon fill="red" stroke="red" stroke-width="0.77704" points="1126.17,-31.6366 1133.55,-24.0378 1123.04,-25.3739 1126.17,-31.6366"/>
</g>
<!-- &#45;27&#45;&gt;2 -->
<g id="edge104" class="edge"><title>&#45;27&#45;&gt;2</title>
<path fill="none" stroke="red" stroke-width="0.65508" d="M553.063,-77.7907C557.246,-73.3993 562.996,-68.346 569.264,-65.6985 663.515,-25.8903 926.926,-43.7908 1028.26,-29.6985 1043.11,-27.6343 1059.57,-24.3689 1072.69,-21.5272"/>
<polygon fill="red" stroke="red" stroke-width="0.65508" points="1073.81,-24.8628 1082.81,-19.2754 1072.29,-18.0297 1073.81,-24.8628"/>
</g>
<!-- &#45;27&#45;&gt;3 -->
<g id="edge105" class="edge"><title>&#45;27&#45;&gt;3</title>
<path fill="none" stroke="green" stroke-width="0.163358" d="M553.521,-77.5163C557.685,-73.2657 563.268,-68.4377 569.264,-65.6985 630.116,-37.897 835.66,-22.1859 907.901,-17.4187"/>
<polygon fill="green" stroke="green" stroke-width="0.163358" points="908.554,-20.8839 918.308,-16.7474 908.103,-13.8985 908.554,-20.8839"/>
</g>
<!-- &#45;28 -->
<g id="node28" class="node"><title>&#45;28</title>
<polygon fill="lightgray" stroke="black" points="188.764,-162.125 159.764,-162.125 159.764,-144.125 188.764,-144.125 188.764,-162.125"/>
<text text-anchor="middle" x="174.264" y="-150.925" font-family="Times New Roman,serif" font-size="9.00">&#45;28</text>
</g>
<!-- &#45;28&#45;&gt;0 -->
<g id="edge106" class="edge"><title>&#45;28&#45;&gt;0</title>
<path fill="none" stroke="green" stroke-width="0.100099" d="M173.195,-144.111C171.377,-126.701 169.896,-85.411 193.264,-65.6985 258.222,-10.9027 873.461,-43.8097 957.264,-29.6985 965.018,-28.3928 973.3,-26.2244 980.718,-23.9864"/>
<polygon fill="green" stroke="green" stroke-width="0.100099" points="982.028,-27.2422 990.484,-20.8592 979.893,-20.5756 982.028,-27.2422"/>
</g>
<!-- &#45;28&#45;&gt;1 -->
<g id="edge107" class="edge"><title>&#45;28&#45;&gt;1</title>
<path fill="none" stroke="red" stroke-width="0.134158" d="M188.941,-152.05C358.162,-151.15 1934.34,-141.868 1967.26,-108.125 1980.43,-94.629 1980.19,-79.4294 1967.26,-65.6985 1939.27,-35.9523 1305.96,-19.5845 1170.58,-16.4188"/>
<polygon fill="red" stroke="red" stroke-width="0.134158" points="1170.45,-12.9149 1160.37,-16.1832 1170.29,-19.913 1170.45,-12.9149"/>
</g>
<!-- &#45;28&#45;&gt;2 -->
<g id="edge108" class="edge"><title>&#45;28&#45;&gt;2</title>
<path fill="none" stroke="red" stroke-width="0.309597" d="M188.991,-152.01C349.335,-150.731 1765.63,-138.577 1795.26,-108.125 1808.42,-94.6119 1808.24,-79.3828 1795.26,-65.6985 1743.67,-11.2727 1193.16,-51.0264 1121.26,-29.6985 1120.2,-29.3838 1119.14,-29.0139 1118.08,-28.6012"/>
<polygon fill="red" stroke="red" stroke-width="0.309597" points="1119.48,-25.3885 1108.97,-24.0685 1116.36,-31.6559 1119.48,-25.3885"/>
</g>
<!-- &#45;28&#45;&gt;3 -->
<g id="edge109" class="edge"><title>&#45;28&#45;&gt;3</title>
<path fill="none" stroke="red" stroke-width="0.102362" stroke-dasharray="1,5" d="M159.701,-150.484C122.909,-146.008 27.8226,-132.281 9.26399,-108.125 -2.22387,-93.1722 -3.70523,-79.3862 9.26399,-65.6985 41.0659,-32.1346 763.137,-18.6209 908.067,-16.242"/>
<polygon fill="red" stroke="red" stroke-width="0.102362" points="908.254,-19.7396 918.197,-16.0786 908.141,-12.7405 908.254,-19.7396"/>
</g>
<!-- 345 -->
<g id="node45" class="node"><title>345</title>
<ellipse fill="white" stroke="black" cx="39.264" cy="-86.9117" rx="21.4286" ry="21.4286"/>
<text text-anchor="middle" x="39.264" y="-84.7117" font-family="Times New Roman,serif" font-size="9.00">345</text>
</g>
<!-- &#45;28&#45;&gt;345 -->
<g id="edge158" class="edge"><title>&#45;28&#45;&gt;345</title>
<path fill="none" stroke="green" stroke-width="0.339101" d="M159.458,-146.205C139.73,-138.182 103.871,-123.131 74.264,-108.125 71.5355,-106.742 68.7214,-105.244 65.9298,-103.71"/>
<polygon fill="green" stroke="green" stroke-width="0.339101" points="67.6498,-100.662 57.2225,-98.7852 64.2037,-106.755 67.6498,-100.662"/>
</g>
<!-- &#45;29 -->
<g id="node29" class="node"><title>&#45;29</title>
<polygon fill="lightgray" stroke="black" points="607.764,-95.9117 578.764,-95.9117 578.764,-77.9117 607.764,-77.9117 607.764,-95.9117"/>
<text text-anchor="middle" x="593.264" y="-84.7117" font-family="Times New Roman,serif" font-size="9.00">&#45;29</text>
</g>
<!-- &#45;29&#45;&gt;0 -->
<g id="edge110" class="edge"><title>&#45;29&#45;&gt;0</title>
<path fill="none" stroke="green" stroke-width="0.285671" d="M600.09,-77.8538C604.282,-73.4834 610.032,-68.4301 616.264,-65.6985 755.843,-4.51971 807.78,-59.3579 957.264,-29.6985 964.977,-28.1681 973.248,-25.9373 980.668,-23.7113"/>
<polygon fill="green" stroke="green" stroke-width="0.285671" points="981.952,-26.9766 990.444,-20.6414 979.855,-20.2981 981.952,-26.9766"/>
</g>
<!-- &#45;29&#45;&gt;1 -->
<g id="edge111" class="edge"><title>&#45;29&#45;&gt;1</title>
<path fill="none" stroke="red" stroke-width="0.15108" d="M600.056,-77.774C604.236,-73.377 609.986,-68.3237 616.264,-65.6985 823.857,21.1135 906.119,-95.6077 1121.26,-29.6985 1122.32,-29.3744 1123.38,-28.9967 1124.44,-28.5778"/>
<polygon fill="red" stroke="red" stroke-width="0.15108" points="1126.17,-31.6267 1133.55,-24.0221 1123.04,-25.3665 1126.17,-31.6267"/>
</g>
<!-- &#45;29&#45;&gt;2 -->
<g id="edge112" class="edge"><title>&#45;29&#45;&gt;2</title>
<path fill="none" stroke="red" stroke-width="0.116838" stroke-dasharray="1,5" d="M600.072,-77.8116C604.258,-73.4271 610.008,-68.3738 616.264,-65.6985 700.767,-29.5644 937.293,-42.7615 1028.26,-29.6985 1043.1,-27.5684 1059.56,-24.3002 1072.68,-21.4735"/>
<polygon fill="red" stroke="red" stroke-width="0.116838" points="1073.8,-24.8111 1082.81,-19.2376 1072.29,-17.9757 1073.8,-24.8111"/>
</g>
<!-- &#45;29&#45;&gt;3 -->
<g id="edge113" class="edge"><title>&#45;29&#45;&gt;3</title>
<path fill="none" stroke="green" stroke-width="0.19302" d="M600.543,-77.5637C604.713,-73.327 610.296,-68.4972 616.264,-65.6985 716.542,-18.675 852.246,-14.6235 907.88,-15.1605"/>
<polygon fill="green" stroke="green" stroke-width="0.19302" points="908.146,-18.6651 918.2,-15.3242 908.257,-11.6659 908.146,-18.6651"/>
</g>
<!-- &#45;30 -->
<g id="node30" class="node"><title>&#45;30</title>
<polygon fill="lightgray" stroke="black" points="654.764,-95.9117 625.764,-95.9117 625.764,-77.9117 654.764,-77.9117 654.764,-95.9117"/>
<text text-anchor="middle" x="640.264" y="-84.7117" font-family="Times New Roman,serif" font-size="9.00">&#45;30</text>
</g>
<!-- &#45;30&#45;&gt;0 -->
<g id="edge114" class="edge"><title>&#45;30&#45;&gt;0</title>
<path fill="none" stroke="red" stroke-width="0.145075" d="M647.107,-77.8926C651.305,-73.5352 657.055,-68.4819 663.264,-65.6985 783.389,-11.8492 828.356,-56.3933 957.264,-29.6985 964.964,-28.1039 973.231,-25.8552 980.652,-23.6327"/>
<polygon fill="red" stroke="red" stroke-width="0.145075" points="981.929,-26.9005 990.432,-20.5791 979.843,-20.2187 981.929,-26.9005"/>
</g>
<!-- &#45;30&#45;&gt;1 -->
<g id="edge115" class="edge"><title>&#45;30&#45;&gt;1</title>
<path fill="none" stroke="green" stroke-width="0.581631" d="M647.063,-77.7911C651.246,-73.3998 656.996,-68.3465 663.264,-65.6985 851.352,13.7615 926.255,-90.2159 1121.26,-29.6985 1122.32,-29.3705 1123.38,-28.9897 1124.44,-28.5682"/>
<polygon fill="green" stroke="green" stroke-width="0.581631" points="1126.17,-31.6147 1133.54,-24.0031 1123.03,-25.3575 1126.17,-31.6147"/>
</g>
<!-- &#45;30&#45;&gt;2 -->
<g id="edge116" class="edge"><title>&#45;30&#45;&gt;2</title>
<path fill="none" stroke="green" stroke-width="0.144965" d="M647.083,-77.8377C651.273,-73.4619 657.023,-68.4086 663.264,-65.6985 812.786,-0.773014 867.041,-53.7676 1028.26,-29.6985 1043.09,-27.4857 1059.54,-24.2141 1072.67,-21.4062"/>
<polygon fill="green" stroke="green" stroke-width="0.144965" points="1073.78,-24.7462 1082.8,-19.1901 1072.28,-17.9079 1073.78,-24.7462"/>
</g>
<!-- &#45;30&#45;&gt;3 -->
<g id="edge117" class="edge"><title>&#45;30&#45;&gt;3</title>
<path fill="none" stroke="green" stroke-width="0.104791" d="M647.573,-77.6268C651.752,-73.4086 657.334,-68.5763 663.264,-65.6985 746.591,-25.2634 858.97,-17.4916 908.297,-16.0941"/>
<polygon fill="green" stroke="green" stroke-width="0.104791" points="908.445,-19.5918 918.367,-15.875 908.293,-12.5934 908.445,-19.5918"/>
</g>
<!-- &#45;31 -->
<g id="node31" class="node"><title>&#45;31</title>
<polygon fill="lightgray" stroke="black" points="701.764,-95.9117 672.764,-95.9117 672.764,-77.9117 701.764,-77.9117 701.764,-95.9117"/>
<text text-anchor="middle" x="687.264" y="-84.7117" font-family="Times New Roman,serif" font-size="9.00">&#45;31</text>
</g>
<!-- &#45;31&#45;&gt;0 -->
<g id="edge118" class="edge"><title>&#45;31&#45;&gt;0</title>
<path fill="none" stroke="red" stroke-width="0.236039" d="M694.53,-77.5369C698.697,-73.2924 704.28,-68.4635 710.264,-65.6985 810.97,-19.1632 848.896,-53.4364 957.264,-29.6985 964.945,-28.0159 973.207,-25.7428 980.629,-23.5249"/>
<polygon fill="red" stroke="red" stroke-width="0.236039" points="981.897,-26.7962 990.414,-20.4937 979.826,-20.1097 981.897,-26.7962"/>
</g>
<!-- &#45;31&#45;&gt;1 -->
<g id="edge119" class="edge"><title>&#45;31&#45;&gt;1</title>
<path fill="none" stroke="green" stroke-width="0.162323" d="M694.072,-77.8121C698.258,-73.4277 704.008,-68.3744 710.264,-65.6985 878.855,6.41348 946.381,-84.827 1121.26,-29.6985 1122.32,-29.3658 1123.38,-28.9812 1124.43,-28.5565"/>
<polygon fill="green" stroke="green" stroke-width="0.162323" points="1126.17,-31.6001 1133.53,-23.9799 1123.03,-25.3466 1126.17,-31.6001"/>
</g>
<!-- &#45;31&#45;&gt;2 -->
<g id="edge120" class="edge"><title>&#45;31&#45;&gt;2</title>
<path fill="none" stroke="green" stroke-width="0.328847" d="M694.098,-77.8714C698.292,-73.5068 704.042,-68.4535 710.264,-65.6985 840.32,-8.10796 887.742,-51.7138 1028.26,-29.6985 1043.07,-27.3789 1059.53,-24.1028 1072.66,-21.3193"/>
<polygon fill="green" stroke="green" stroke-width="0.328847" points="1073.76,-24.6624 1082.79,-19.1288 1072.28,-17.8204 1073.76,-24.6624"/>
</g>
<!-- &#45;31&#45;&gt;3 -->
<g id="edge121" class="edge"><title>&#45;31&#45;&gt;3</title>
<path fill="none" stroke="red" stroke-width="0.491436" d="M694.616,-77.7148C698.809,-73.5223 704.388,-68.6865 710.264,-65.6985 776.624,-31.9515 865.528,-20.8938 908.263,-17.395"/>
<polygon fill="red" stroke="red" stroke-width="0.491436" points="908.617,-20.8784 918.328,-16.6432 908.095,-13.8979 908.617,-20.8784"/>
</g>
<!-- &#45;32 -->
<g id="node32" class="node"><title>&#45;32</title>
<polygon fill="lightgray" stroke="black" points="1976.76,-162.125 1947.76,-162.125 1947.76,-144.125 1976.76,-144.125 1976.76,-162.125"/>
<text text-anchor="middle" x="1962.26" y="-150.925" font-family="Times New Roman,serif" font-size="9.00">&#45;32</text>
</g>
<!-- &#45;32&#45;&gt;1 -->
<g id="edge122" class="edge"><title>&#45;32&#45;&gt;1</title>
<path fill="none" stroke="red" stroke-width="0.237984" d="M1972.62,-143.984C1981.86,-135.993 1994.77,-122.882 2000.26,-108.125 2006.84,-90.4522 2013.2,-79.4144 2000.26,-65.6985 1971.02,-34.6996 1308.27,-19.2401 1170.29,-16.3516"/>
<polygon fill="red" stroke="red" stroke-width="0.237984" points="1170.33,-12.8517 1160.26,-16.1445 1170.18,-19.8502 1170.33,-12.8517"/>
</g>
<!-- &#45;32&#45;&gt;2 -->
<g id="edge123" class="edge"><title>&#45;32&#45;&gt;2</title>
<path fill="none" stroke="red" stroke-width="0.298012" d="M1954.48,-144.059C1946.01,-135.267 1932.1,-120.765 1920.26,-108.125 1902.75,-89.4325 1904.47,-76.5474 1881.26,-65.6985 1728.1,5.91958 1283.51,-77.2935 1121.26,-29.6985 1120.2,-29.387 1119.14,-29.0197 1118.08,-28.6092"/>
<polygon fill="red" stroke="red" stroke-width="0.298012" points="1119.48,-25.3959 1108.96,-24.0843 1116.37,-31.6659 1119.48,-25.3959"/>
</g>
<!-- &#45;32&#45;&gt;3 -->
<g id="edge124" class="edge"><title>&#45;32&#45;&gt;3</title>
<path fill="none" stroke="red" stroke-width="0.100985" d="M1947.62,-152.062C1775.38,-151.291 141.376,-143.056 107.264,-108.125 94.0897,-94.6344 94.3385,-79.4275 107.264,-65.6985 135.431,-35.7804 773.146,-19.5199 908.256,-16.404"/>
<polygon fill="red" stroke="red" stroke-width="0.100985" points="908.517,-19.8991 918.434,-16.1724 908.357,-12.9009 908.517,-19.8991"/>
</g>
<!-- 252 -->
<g id="node46" class="node"><title>252</title>
<ellipse fill="white" stroke="black" cx="2073.26" cy="-86.9117" rx="21.4286" ry="21.4286"/>
<text text-anchor="middle" x="2073.26" y="-84.7117" font-family="Times New Roman,serif" font-size="9.00">252</text>
</g>
<!-- &#45;32&#45;&gt;252 -->
<g id="edge156" class="edge"><title>&#45;32&#45;&gt;252</title>
<path fill="none" stroke="green" stroke-width="0.315057" d="M1976.32,-143.992C1993.88,-133.834 2024.3,-116.237 2046.39,-103.459"/>
<polygon fill="green" stroke="green" stroke-width="0.315057" points="2048.38,-106.35 2055.28,-98.3134 2044.87,-100.291 2048.38,-106.35"/>
</g>
<!-- &#45;33 -->
<g id="node33" class="node"><title>&#45;33</title>
<polygon fill="lightgray" stroke="black" points="748.764,-95.9117 719.764,-95.9117 719.764,-77.9117 748.764,-77.9117 748.764,-95.9117"/>
<text text-anchor="middle" x="734.264" y="-84.7117" font-family="Times New Roman,serif" font-size="9.00">&#45;33</text>
</g>
<!-- &#45;33&#45;&gt;0 -->
<g id="edge125" class="edge"><title>&#45;33&#45;&gt;0</title>
<path fill="none" stroke="red" stroke-width="0.49063" d="M741.568,-77.6162C745.745,-73.3949 751.327,-68.563 757.264,-65.6985 838.608,-26.4505 869.373,-50.4931 957.264,-29.6985 964.916,-27.888 973.17,-25.5794 980.593,-23.3683"/>
<polygon fill="red" stroke="red" stroke-width="0.49063" points="981.849,-26.6444 990.385,-20.3697 979.799,-19.9512 981.849,-26.6444"/>
</g>
<!-- &#45;33&#45;&gt;1 -->
<g id="edge126" class="edge"><title>&#45;33&#45;&gt;1</title>
<path fill="none" stroke="green" stroke-width="0.454052" d="M741.083,-77.8383C745.273,-73.4628 751.023,-68.4095 757.264,-65.6985 906.371,-0.929169 966.494,-79.4423 1121.26,-29.6985 1122.32,-29.3599 1123.38,-28.9704 1124.43,-28.5418"/>
<polygon fill="green" stroke="green" stroke-width="0.454052" points="1126.17,-31.5818 1133.52,-23.9508 1123.02,-25.3329 1126.17,-31.5818"/>
</g>
<!-- &#45;33&#45;&gt;2 -->
<g id="edge127" class="edge"><title>&#45;33&#45;&gt;2</title>
<path fill="none" stroke="red" stroke-width="0.28909" d="M741.516,-77.5067C745.679,-73.2532 751.263,-68.4256 757.264,-65.6985 867.881,-15.4308 908.413,-49.6645 1028.26,-29.6985 1043.05,-27.2359 1059.5,-23.9538 1072.64,-21.2028"/>
<polygon fill="red" stroke="red" stroke-width="0.28909" points="1073.72,-24.55 1082.78,-19.0466 1072.27,-17.7031 1073.72,-24.55"/>
</g>
<!-- &#45;33&#45;&gt;3 -->
<g id="edge128" class="edge"><title>&#45;33&#45;&gt;3</title>
<path fill="none" stroke="red" stroke-width="0.228749" d="M741.685,-77.8452C745.897,-73.691 751.474,-68.8501 757.264,-65.6985 807.061,-38.591 873,-25.0482 908.348,-19.3341"/>
<polygon fill="red" stroke="red" stroke-width="0.228749" points="908.932,-22.7855 918.284,-17.8058 907.868,-15.8668 908.932,-22.7855"/>
</g>
<!-- &#45;34 -->
<g id="node34" class="node"><title>&#45;34</title>
<polygon fill="lightgray" stroke="black" points="795.764,-95.9117 766.764,-95.9117 766.764,-77.9117 795.764,-77.9117 795.764,-95.9117"/>
<text text-anchor="middle" x="781.264" y="-84.7117" font-family="Times New Roman,serif" font-size="9.00">&#45;34</text>
</g>
<!-- &#45;34&#45;&gt;0 -->
<g id="edge129" class="edge"><title>&#45;34&#45;&gt;0</title>
<path fill="none" stroke="green" stroke-width="0.265127" d="M788.63,-77.7409C792.826,-73.5561 798.405,-68.7193 804.264,-65.6985 866.354,-33.6853 889.734,-47.5779 957.264,-29.6985 964.865,-27.6859 973.105,-25.3211 980.531,-23.1208"/>
<polygon fill="green" stroke="green" stroke-width="0.265127" points="981.767,-26.4041 990.336,-20.1737 979.752,-19.7004 981.767,-26.4041"/>
</g>
<!-- &#45;34&#45;&gt;1 -->
<g id="edge130" class="edge"><title>&#45;34&#45;&gt;1</title>
<path fill="none" stroke="green" stroke-width="0.184622" stroke-dasharray="1,5" d="M788.098,-77.8722C792.293,-73.5079 798.043,-68.4546 804.264,-65.6985 933.906,-8.26391 986.589,-74.0637 1121.26,-29.6985 1122.14,-29.4087 1123.03,-29.0843 1123.91,-28.7319"/>
<polygon fill="green" stroke="green" stroke-width="0.184622" points="1125.62,-31.7888 1133.02,-24.2028 1122.5,-25.5208 1125.62,-31.7888"/>
</g>
<!-- &#45;34&#45;&gt;2 -->
<g id="edge131" class="edge"><title>&#45;34&#45;&gt;2</title>
<path fill="none" stroke="green" stroke-width="0.12942" d="M788.546,-77.5718C792.718,-73.3374 798.301,-68.5072 804.264,-65.6985 895.485,-22.7338 929.037,-47.6233 1028.26,-29.6985 1043.01,-27.0344 1059.47,-23.744 1072.61,-21.0389"/>
<polygon fill="green" stroke="green" stroke-width="0.12942" points="1073.68,-24.3915 1082.76,-18.9309 1072.25,-17.5378 1073.68,-24.3915"/>
</g>
<!-- &#45;34&#45;&gt;3 -->
<g id="edge132" class="edge"><title>&#45;34&#45;&gt;3</title>
<path fill="none" stroke="green" stroke-width="0.374522" d="M789.222,-77.6583C793.414,-73.6529 798.809,-69.0049 804.264,-65.6985 838.342,-45.0444 882.454,-30.2188 909.266,-22.3454"/>
<polygon fill="green" stroke="green" stroke-width="0.374522" points="910.308,-25.6879 918.965,-19.5801 908.388,-18.9562 910.308,-25.6879"/>
</g>
<!-- &#45;35 -->
<g id="node35" class="node"><title>&#45;35</title>
<polygon fill="lightgray" stroke="black" points="842.764,-95.9117 813.764,-95.9117 813.764,-77.9117 842.764,-77.9117 842.764,-95.9117"/>
<text text-anchor="middle" x="828.264" y="-84.7117" font-family="Times New Roman,serif" font-size="9.00">&#45;35</text>
</g>
<!-- &#45;35&#45;&gt;0 -->
<g id="edge133" class="edge"><title>&#45;35&#45;&gt;0</title>
<path fill="none" stroke="red" stroke-width="0.162404" d="M836.148,-77.5331C840.322,-73.4958 845.722,-68.857 851.264,-65.6985 862.711,-59.1751 940.367,-35.1976 980.439,-23.0315"/>
<polygon fill="red" stroke="red" stroke-width="0.162404" points="981.651,-26.3216 990.207,-20.0738 979.622,-19.6219 981.651,-26.3216"/>
</g>
<!-- &#45;35&#45;&gt;1 -->
<g id="edge134" class="edge"><title>&#45;35&#45;&gt;1</title>
<path fill="none" stroke="red" stroke-width="0.378393" d="M835.517,-77.5078C839.68,-73.2547 845.263,-68.4271 851.264,-65.6985 961.467,-15.5865 1006.65,-68.6944 1121.26,-29.6985 1122.14,-29.4002 1123.02,-29.0684 1123.9,-28.71"/>
<polygon fill="red" stroke="red" stroke-width="0.378393" points="1125.63,-31.76 1133,-24.1523 1122.49,-25.5011 1125.63,-31.76"/>
</g>
<!-- &#45;35&#45;&gt;2 -->
<g id="edge135" class="edge"><title>&#45;35&#45;&gt;2</title>
<path fill="none" stroke="green" stroke-width="0.456383" d="M835.593,-77.6678C839.778,-73.4616 845.359,-68.6276 851.264,-65.6985 852.518,-65.0763 1010.51,-33.2841 1072.61,-20.803"/>
<polygon fill="green" stroke="green" stroke-width="0.456383" points="1073.59,-24.1764 1082.7,-18.7747 1072.21,-17.3136 1073.59,-24.1764"/>
</g>
<!-- &#45;35&#45;&gt;3 -->
<g id="edge136" class="edge"><title>&#45;35&#45;&gt;3</title>
<path fill="none" stroke="red" stroke-width="0.20999" d="M836.918,-77.6637C841.106,-73.8419 846.294,-69.3494 851.264,-65.6985 870.793,-51.3512 894.602,-37.215 911.523,-27.6816"/>
<polygon fill="red" stroke="red" stroke-width="0.20999" points="913.565,-30.5509 920.605,-22.6335 910.164,-24.4325 913.565,-30.5509"/>
</g>
<!-- &#45;36 -->
<g id="node36" class="node"><title>&#45;36</title>
<polygon fill="lightgray" stroke="black" points="889.764,-95.9117 860.764,-95.9117 860.764,-77.9117 889.764,-77.9117 889.764,-95.9117"/>
<text text-anchor="middle" x="875.264" y="-84.7117" font-family="Times New Roman,serif" font-size="9.00">&#45;36</text>
</g>
<!-- &#45;36&#45;&gt;0 -->
<g id="edge137" class="edge"><title>&#45;36&#45;&gt;0</title>
<path fill="none" stroke="red" stroke-width="0.146316" stroke-dasharray="1,5" d="M883.324,-77.8201C887.542,-73.8559 892.929,-69.196 898.264,-65.6985 924.985,-48.1804 958.834,-33.3884 980.997,-24.5749"/>
<polygon fill="red" stroke="red" stroke-width="0.146316" points="982.521,-27.7374 990.572,-20.8502 979.984,-21.2135 982.521,-27.7374"/>
</g>
<!-- &#45;36&#45;&gt;1 -->
<g id="edge138" class="edge"><title>&#45;36&#45;&gt;1</title>
<path fill="none" stroke="green" stroke-width="0.122059" d="M882.547,-77.5734C886.719,-73.3396 892.302,-68.5093 898.264,-65.6985 989.073,-22.8888 1026.67,-63.3409 1121.26,-29.6985 1122.14,-29.3882 1123.01,-29.0462 1123.89,-28.6791"/>
<polygon fill="green" stroke="green" stroke-width="0.122059" points="1125.63,-31.7194 1132.98,-24.0813 1122.47,-25.4736 1125.63,-31.7194"/>
</g>
<!-- &#45;36&#45;&gt;2 -->
<g id="edge139" class="edge"><title>&#45;36&#45;&gt;2</title>
<path fill="none" stroke="green" stroke-width="0.429578" d="M882.647,-77.7744C886.848,-73.5994 892.427,-68.7613 898.264,-65.6985 913.8,-57.5466 1023.31,-32.4114 1072.93,-21.2663"/>
<polygon fill="green" stroke="green" stroke-width="0.429578" points="1073.83,-24.6514 1082.83,-19.0512 1072.3,-17.8205 1073.83,-24.6514"/>
</g>
<!-- &#45;36&#45;&gt;3 -->
<g id="edge140" class="edge"><title>&#45;36&#45;&gt;3</title>
<path fill="none" stroke="red" stroke-width="0.119101" d="M881.917,-77.8746C890.492,-67.5161 905.682,-49.1677 917.323,-35.1057"/>
<polygon fill="red" stroke="red" stroke-width="0.119101" points="920.341,-36.9487 924.022,-27.0138 914.949,-32.4849 920.341,-36.9487"/>
</g>
<!-- &#45;37 -->
<g id="node37" class="node"><title>&#45;37</title>
<polygon fill="lightgray" stroke="black" points="936.764,-95.9117 907.764,-95.9117 907.764,-77.9117 936.764,-77.9117 936.764,-95.9117"/>
<text text-anchor="middle" x="922.264" y="-84.7117" font-family="Times New Roman,serif" font-size="9.00">&#45;37</text>
</g>
<!-- &#45;37&#45;&gt;0 -->
<g id="edge141" class="edge"><title>&#45;37&#45;&gt;0</title>
<path fill="none" stroke="red" stroke-width="0.135898" d="M931.628,-77.6092C935.788,-73.9399 940.754,-69.5851 945.264,-65.6985 958.67,-54.1463 973.933,-41.2574 985.576,-31.4799"/>
<polygon fill="red" stroke="red" stroke-width="0.135898" points="987.922,-34.0807 993.336,-24.9738 983.424,-28.7166 987.922,-34.0807"/>
</g>
<!-- &#45;37&#45;&gt;1 -->
<g id="edge142" class="edge"><title>&#45;37&#45;&gt;1</title>
<path fill="none" stroke="red" stroke-width="0.449265" d="M929.595,-77.6721C933.781,-73.4671 939.361,-68.633 945.264,-65.6985 1016.76,-30.1542 1046.61,-58.0165 1121.26,-29.6985 1122.13,-29.37 1123,-29.0127 1123.87,-28.6326"/>
<polygon fill="red" stroke="red" stroke-width="0.449265" points="1125.64,-31.6584 1132.94,-23.9742 1122.44,-25.4325 1125.64,-31.6584"/>
</g>
<!-- &#45;37&#45;&gt;2 -->
<g id="edge143" class="edge"><title>&#45;37&#45;&gt;2</title>
<path fill="none" stroke="green" stroke-width="0.197858" d="M930.151,-77.5376C934.325,-73.5015 939.725,-68.8623 945.264,-65.6985 986.898,-41.9185 1041.51,-27.5409 1072.66,-20.6992"/>
<polygon fill="green" stroke="green" stroke-width="0.197858" points="1073.57,-24.0823 1082.63,-18.5904 1072.13,-17.2336 1073.57,-24.0823"/>
</g>
<!-- &#45;37&#45;&gt;3 -->
<g id="edge144" class="edge"><title>&#45;37&#45;&gt;3</title>
<path fill="none" stroke="red" stroke-width="0.608356" d="M923.526,-77.8746C924.986,-68.572 927.459,-52.8252 929.547,-39.5264"/>
<polygon fill="red" stroke="red" stroke-width="0.608356" points="933.019,-39.9774 931.112,-29.5556 926.103,-38.8917 933.019,-39.9774"/>
</g>
<!-- &#45;38 -->
<g id="node38" class="node"><title>&#45;38</title>
<polygon fill="lightgray" stroke="black" points="983.764,-95.9117 954.764,-95.9117 954.764,-77.9117 983.764,-77.9117 983.764,-95.9117"/>
<text text-anchor="middle" x="969.264" y="-84.7117" font-family="Times New Roman,serif" font-size="9.00">&#45;38</text>
</g>
<!-- &#45;38&#45;&gt;0 -->
<g id="edge145" class="edge"><title>&#45;38&#45;&gt;0</title>
<path fill="none" stroke="green" stroke-width="0.287161" d="M973.279,-77.8746C978.134,-68.1564 986.502,-51.4054 993.319,-37.7594"/>
<polygon fill="green" stroke="green" stroke-width="0.287161" points="996.598,-39.0268 997.936,-28.5167 990.336,-35.8985 996.598,-39.0268"/>
</g>
<!-- &#45;38&#45;&gt;1 -->
<g id="edge146" class="edge"><title>&#45;38&#45;&gt;1</title>
<path fill="none" stroke="red" stroke-width="0.136218" d="M976.68,-77.8363C980.891,-73.6794 986.468,-68.8389 992.264,-65.6985 1044.6,-37.3404 1066.39,-52.7554 1121.26,-29.6985 1122.12,-29.3398 1122.98,-28.9567 1123.84,-28.555"/>
<polygon fill="red" stroke="red" stroke-width="0.136218" points="1125.65,-31.5567 1132.86,-23.7955 1122.39,-25.3652 1125.65,-31.5567"/>
</g>
<!-- &#45;38&#45;&gt;2 -->
<g id="edge147" class="edge"><title>&#45;38&#45;&gt;2</title>
<path fill="none" stroke="red" stroke-width="0.240281" d="M977.329,-77.8283C981.549,-73.8663 986.936,-69.2057 992.264,-65.6985 1018.6,-48.3629 1051.91,-33.6182 1073.86,-24.76"/>
<polygon fill="red" stroke="red" stroke-width="0.240281" points="1075.35,-27.9354 1083.36,-21.0073 1072.78,-21.4246 1075.35,-27.9354"/>
</g>
<!-- &#45;38&#45;&gt;3 -->
<g id="edge148" class="edge"><title>&#45;38&#45;&gt;3</title>
<path fill="none" stroke="red" stroke-width="0.132702" stroke-dasharray="1,5" d="M965.134,-77.8746C960.111,-68.0985 951.431,-51.2057 944.397,-37.5161"/>
<polygon fill="red" stroke="red" stroke-width="0.132702" points="947.325,-35.5565 939.642,-28.2615 941.099,-38.7557 947.325,-35.5565"/>
</g>
<!-- &#45;39 -->
<g id="node39" class="node"><title>&#45;39</title>
<polygon fill="lightgray" stroke="black" points="1871.76,-95.9117 1842.76,-95.9117 1842.76,-77.9117 1871.76,-77.9117 1871.76,-95.9117"/>
<text text-anchor="middle" x="1857.26" y="-84.7117" font-family="Times New Roman,serif" font-size="9.00">&#45;39</text>
</g>
<!-- &#45;39&#45;&gt;1 -->
<g id="edge149" class="edge"><title>&#45;39&#45;&gt;1</title>
<path fill="none" stroke="red" stroke-width="0.318955" d="M1848.32,-77.7742C1842.92,-73.3773 1835.67,-68.324 1828.26,-65.6985 1703.4,-21.419 1278.31,-16.4559 1170.36,-15.913"/>
<polygon fill="red" stroke="red" stroke-width="0.318955" points="1170.13,-12.4121 1160.11,-15.8704 1170.1,-19.412 1170.13,-12.4121"/>
</g>
<!-- &#45;39&#45;&gt;2 -->
<g id="edge150" class="edge"><title>&#45;39&#45;&gt;2</title>
<path fill="none" stroke="red" stroke-width="0.126339" d="M1848.34,-77.7131C1842.95,-73.2957 1835.7,-68.2424 1828.26,-65.6985 1679.43,-14.7523 1272.14,-74.2494 1121.26,-29.6985 1120.2,-29.3851 1119.14,-29.0163 1118.08,-28.6045"/>
<polygon fill="red" stroke="red" stroke-width="0.126339" points="1119.48,-25.3915 1108.97,-24.075 1116.36,-31.66 1119.48,-25.3915"/>
</g>
<!-- &#45;39&#45;&gt;3 -->
<g id="edge151" class="edge"><title>&#45;39&#45;&gt;3</title>
<path fill="none" stroke="red" stroke-width="0.441013" d="M1842.27,-79.7531C1829.9,-74.9805 1811.75,-68.6925 1795.26,-65.6985 1438.52,-0.9122 1337.89,-89.3772 980.264,-29.6985 972.508,-28.4042 964.225,-26.2389 956.807,-24.0004"/>
<polygon fill="red" stroke="red" stroke-width="0.441013" points="957.633,-20.5897 947.042,-20.8703 955.496,-27.2557 957.633,-20.5897"/>
</g>
<!-- &#45;40 -->
<g id="node40" class="node"><title>&#45;40</title>
<polygon fill="lightgray" stroke="black" points="1030.76,-95.9117 1001.76,-95.9117 1001.76,-77.9117 1030.76,-77.9117 1030.76,-95.9117"/>
<text text-anchor="middle" x="1016.26" y="-84.7117" font-family="Times New Roman,serif" font-size="9.00">&#45;40</text>
</g>
<!-- &#45;40&#45;&gt;0 -->
<g id="edge152" class="edge"><title>&#45;40&#45;&gt;0</title>
<path fill="none" stroke="green" stroke-width="0.221341" d="M1014.89,-77.8746C1013.29,-68.572 1010.6,-52.8252 1008.32,-39.5264"/>
<polygon fill="green" stroke="green" stroke-width="0.221341" points="1011.75,-38.8212 1006.61,-29.5556 1004.85,-40.0029 1011.75,-38.8212"/>
</g>
<!-- &#45;40&#45;&gt;1 -->
<g id="edge153" class="edge"><title>&#45;40&#45;&gt;1</title>
<path fill="none" stroke="red" stroke-width="0.182908" d="M1024.7,-77.7946C1029.1,-73.8239 1034.72,-69.1658 1040.26,-65.6985 1073.66,-44.8025 1086.15,-47.5682 1121.26,-29.6985 1122.09,-29.2784 1122.93,-28.8432 1123.77,-28.3976"/>
<polygon fill="red" stroke="red" stroke-width="0.182908" points="1125.66,-31.3518 1132.7,-23.4332 1122.26,-25.2339 1125.66,-31.3518"/>
</g>
<!-- &#45;40&#45;&gt;2 -->
<g id="edge154" class="edge"><title>&#45;40&#45;&gt;2</title>
<path fill="none" stroke="red" stroke-width="0.127883" d="M1025.56,-77.8746C1038.37,-66.7944 1061.74,-46.5723 1078.32,-32.2332"/>
<polygon fill="red" stroke="red" stroke-width="0.127883" points="1081.01,-34.5397 1086.28,-25.3506 1076.43,-29.2454 1081.01,-34.5397"/>
</g>
<!-- &#45;40&#45;&gt;3 -->
<g id="edge155" class="edge"><title>&#45;40&#45;&gt;3</title>
<path fill="none" stroke="red" stroke-width="0.244759" d="M1006.74,-77.8746C993.423,-66.631 968.951,-45.9737 951.926,-31.6025"/>
<polygon fill="red" stroke="red" stroke-width="0.244759" points="954.147,-28.8972 944.248,-25.1214 949.632,-34.2463 954.147,-28.8972"/>
</g>
<!-- 345&#45;&gt;3 -->
<g id="edge159" class="edge"><title>345&#45;&gt;3</title>
<path fill="none" stroke="red" stroke-width="0.176913" d="M56.3378,-73.933C61.8199,-70.6809 68.0795,-67.5497 74.264,-65.6985 236.449,-17.1509 784.82,-15.4928 908.39,-15.7504"/>
<polygon fill="red" stroke="red" stroke-width="0.176913" points="908.386,-19.2503 918.396,-15.7778 908.405,-12.2504 908.386,-19.2503"/>
</g>
<!-- 252&#45;&gt;1 -->
<g id="edge157" class="edge"><title>252&#45;&gt;1</title>
<path fill="none" stroke="red" stroke-width="0.215184" d="M2056.19,-73.9246C2050.71,-70.6722 2044.45,-67.5429 2038.26,-65.6985 1869.44,-15.3675 1298.35,-15.0957 1170.71,-15.6842"/>
<polygon fill="red" stroke="red" stroke-width="0.215184" points="1170.37,-12.1858 1160.39,-15.7384 1170.41,-19.1857 1170.37,-12.1858"/>
</g>
</g>
</svg>
