<?xml version="1.0" encoding="UTF-8" standalone="no"?>
<!DOCTYPE svg PUBLIC "-//W3C//DTD SVG 1.1//EN"
 "http://www.w3.org/Graphics/SVG/1.1/DTD/svg11.dtd">
<!-- Generated by graphviz version 2.38.0 (20140413.2041)
 -->
<!-- Title: %3 Pages: 1 -->
<svg width="2077pt" height="170pt"
 viewBox="0.00 0.00 2077.01 170.12" xmlns="http://www.w3.org/2000/svg" xmlns:xlink="http://www.w3.org/1999/xlink">
<g id="graph0" class="graph" transform="scale(1 1) rotate(0) translate(4 166.125)">
<title>%3</title>
<polygon fill="white" stroke="none" points="-4,4 -4,-166.125 2073.01,-166.125 2073.01,4 -4,4"/>
<!-- &#45;1 -->
<g id="node1" class="node"><title>&#45;1</title>
<polygon fill="lightgray" stroke="black" points="1175.8,-95.9117 1151.8,-95.9117 1151.8,-77.9117 1175.8,-77.9117 1175.8,-95.9117"/>
<text text-anchor="middle" x="1163.8" y="-84.7117" font-family="Times New Roman,serif" font-size="9.00">&#45;1</text>
</g>
<!-- 0 -->
<g id="node41" class="node"><title>0</title>
<ellipse fill="lightblue" stroke="black" cx="847.799" cy="-14.8492" rx="14.7" ry="14.7"/>
<text text-anchor="middle" x="847.799" y="-12.6492" font-family="Times New Roman,serif" font-size="9.00">0</text>
</g>
<!-- &#45;1&#45;&gt;0 -->
<g id="edge1" class="edge"><title>&#45;1&#45;&gt;0</title>
<path fill="none" stroke="red" stroke-width="0.15482" d="M1157.3,-77.532C1153.54,-73.2859 1148.44,-68.4573 1142.8,-65.6985 1042.76,-16.7291 1003.6,-53.4992 894.799,-29.6985 887.118,-28.0181 878.855,-25.7456 871.434,-23.5276"/>
<polygon fill="red" stroke="red" stroke-width="0.15482" points="872.237,-20.1125 861.649,-20.4959 870.165,-26.7989 872.237,-20.1125"/>
</g>
<!-- 1 -->
<g id="node42" class="node"><title>1</title>
<ellipse fill="lightblue" stroke="black" cx="1000.8" cy="-14.8492" rx="14.7" ry="14.7"/>
<text text-anchor="middle" x="1000.8" y="-12.6492" font-family="Times New Roman,serif" font-size="9.00">1</text>
</g>
<!-- &#45;1&#45;&gt;1 -->
<g id="edge2" class="edge"><title>&#45;1&#45;&gt;1</title>
<path fill="none" stroke="red" stroke-width="0.103765" d="M1156.69,-77.5547C1152.91,-73.523 1147.97,-68.8826 1142.8,-65.6985 1122.64,-53.2826 1059.84,-33.4596 1024.89,-22.9419"/>
<polygon fill="red" stroke="red" stroke-width="0.103765" points="1025.6,-19.5008 1015.02,-19.995 1023.6,-26.2085 1025.6,-19.5008"/>
</g>
<!-- 2 -->
<g id="node43" class="node"><title>2</title>
<ellipse fill="lightblue" stroke="black" cx="1071.8" cy="-14.8492" rx="14.7" ry="14.7"/>
<text text-anchor="middle" x="1071.8" y="-12.6492" font-family="Times New Roman,serif" font-size="9.00">2</text>
</g>
<!-- &#45;1&#45;&gt;2 -->
<g id="edge3" class="edge"><title>&#45;1&#45;&gt;2</title>
<path fill="none" stroke="green" stroke-width="0.233274" d="M1155.89,-77.7373C1152.07,-73.9316 1147.33,-69.4314 1142.8,-65.6985 1126.69,-52.4203 1107.2,-38.9045 1092.73,-29.3025"/>
<polygon fill="green" stroke="green" stroke-width="0.233274" points="1094.3,-26.1518 1084.02,-23.5995 1090.47,-32.0072 1094.3,-26.1518"/>
</g>
<!-- 3 -->
<g id="node44" class="node"><title>3</title>
<ellipse fill="lightblue" stroke="black" cx="918.799" cy="-14.8492" rx="14.7" ry="14.7"/>
<text text-anchor="middle" x="918.799" y="-12.6492" font-family="Times New Roman,serif" font-size="9.00">3</text>
</g>
<!-- &#45;1&#45;&gt;3 -->
<g id="edge4" class="edge"><title>&#45;1&#45;&gt;3</title>
<path fill="none" stroke="red" stroke-width="0.237969" d="M1157.22,-77.6866C1153.44,-73.4859 1148.34,-68.6512 1142.8,-65.6985 1076.19,-30.174 1050.41,-46.466 976.799,-29.6985 965.712,-27.1728 953.461,-24.2648 943.086,-21.7675"/>
<polygon fill="red" stroke="red" stroke-width="0.237969" points="943.624,-18.2967 933.081,-19.3471 941.978,-25.1004 943.624,-18.2967"/>
</g>
<!-- &#45;2 -->
<g id="node2" class="node"><title>&#45;2</title>
<polygon fill="lightgray" stroke="black" points="1217.8,-95.9117 1193.8,-95.9117 1193.8,-77.9117 1217.8,-77.9117 1217.8,-95.9117"/>
<text text-anchor="middle" x="1205.8" y="-84.7117" font-family="Times New Roman,serif" font-size="9.00">&#45;2</text>
</g>
<!-- &#45;2&#45;&gt;0 -->
<g id="edge5" class="edge"><title>&#45;2&#45;&gt;0</title>
<path fill="none" stroke="green" stroke-width="0.266575" d="M1199.68,-77.8958C1195.9,-73.5394 1190.65,-68.4861 1184.8,-65.6985 1067.56,-9.8022 1021.96,-56.1413 894.799,-29.6985 887.101,-28.0975 878.834,-25.8471 871.413,-23.6249"/>
<polygon fill="green" stroke="green" stroke-width="0.266575" points="872.221,-20.2108 861.633,-20.5729 870.136,-26.893 872.221,-20.2108"/>
</g>
<!-- &#45;2&#45;&gt;1 -->
<g id="edge6" class="edge"><title>&#45;2&#45;&gt;1</title>
<path fill="none" stroke="green" stroke-width="0.147376" d="M1199.17,-77.7819C1195.37,-73.6091 1190.27,-68.7707 1184.8,-65.6985 1129.91,-34.8749 1108.44,-46.5976 1047.8,-29.6985 1040.22,-27.5878 1031.99,-25.1957 1024.56,-23.0006"/>
<polygon fill="green" stroke="green" stroke-width="0.147376" points="1025.34,-19.5784 1014.75,-20.0785 1023.34,-26.2872 1025.34,-19.5784"/>
</g>
<!-- &#45;2&#45;&gt;2 -->
<g id="edge7" class="edge"><title>&#45;2&#45;&gt;2</title>
<path fill="none" stroke="red" stroke-width="0.281301" d="M1198.59,-77.7231C1194.77,-73.7342 1189.84,-69.0814 1184.8,-65.6985 1156.26,-46.5523 1119.16,-31.84 1095.41,-23.5148"/>
<polygon fill="red" stroke="red" stroke-width="0.281301" points="1096.41,-20.1572 1085.81,-20.2448 1094.15,-26.7831 1096.41,-20.1572"/>
</g>
<!-- &#45;2&#45;&gt;3 -->
<g id="edge8" class="edge"><title>&#45;2&#45;&gt;3</title>
<path fill="none" stroke="green" stroke-width="0.209563" stroke-dasharray="1,5" d="M1199.27,-77.593C1195.5,-73.3648 1190.4,-68.5338 1184.8,-65.6985 1101.1,-23.3059 1068.69,-48.6026 976.799,-29.6985 965.661,-27.4072 953.403,-24.5324 943.036,-21.9967"/>
<polygon fill="green" stroke="green" stroke-width="0.209563" points="943.593,-18.5288 933.045,-19.5157 941.906,-25.3225 943.593,-18.5288"/>
</g>
<!-- &#45;3 -->
<g id="node3" class="node"><title>&#45;3</title>
<polygon fill="lightgray" stroke="black" points="1259.8,-95.9117 1235.8,-95.9117 1235.8,-77.9117 1259.8,-77.9117 1259.8,-95.9117"/>
<text text-anchor="middle" x="1247.8" y="-84.7117" font-family="Times New Roman,serif" font-size="9.00">&#45;3</text>
</g>
<!-- &#45;3&#45;&gt;0 -->
<g id="edge9" class="edge"><title>&#45;3&#45;&gt;0</title>
<path fill="none" stroke="red" stroke-width="0.812703" d="M1241.7,-77.8618C1237.92,-73.494 1232.67,-68.4407 1226.8,-65.6985 1092.34,-2.86187 1040.34,-58.7898 894.799,-29.6985 887.089,-28.1572 878.818,-25.9233 871.398,-23.698"/>
<polygon fill="red" stroke="red" stroke-width="0.812703" points="872.21,-20.2846 861.621,-20.6308 870.115,-26.9637 872.21,-20.2846"/>
</g>
<!-- &#45;3&#45;&gt;1 -->
<g id="edge10" class="edge"><title>&#45;3&#45;&gt;1</title>
<path fill="none" stroke="red" stroke-width="0.607274" d="M1241.24,-77.6532C1237.46,-73.4427 1232.36,-68.6093 1226.8,-65.6985 1154.91,-28.0539 1126.57,-49.1857 1047.8,-29.6985 1040.17,-27.8102 1031.92,-25.4799 1024.49,-23.2729"/>
<polygon fill="red" stroke="red" stroke-width="0.607274" points="1025.28,-19.8547 1014.7,-20.2942 1023.25,-26.5519 1025.28,-19.8547"/>
</g>
<!-- &#45;3&#45;&gt;2 -->
<g id="edge11" class="edge"><title>&#45;3&#45;&gt;2</title>
<path fill="none" stroke="green" stroke-width="0.304284" d="M1241.1,-77.8992C1237.28,-73.7608 1232.19,-68.9178 1226.8,-65.6985 1184.69,-40.531 1128.45,-26.5777 1096.58,-20.1999"/>
<polygon fill="green" stroke="green" stroke-width="0.304284" points="1096.87,-16.6916 1086.39,-18.2539 1095.55,-23.5674 1096.87,-16.6916"/>
</g>
<!-- &#45;3&#45;&gt;3 -->
<g id="edge12" class="edge"><title>&#45;3&#45;&gt;3</title>
<path fill="none" stroke="green" stroke-width="0.387299" d="M1241.3,-77.5294C1237.54,-73.2826 1232.44,-68.4541 1226.8,-65.6985 1125.95,-16.3996 1087.06,-50.7564 976.799,-29.6985 965.63,-27.5653 953.367,-24.713 943.006,-22.1514"/>
<polygon fill="green" stroke="green" stroke-width="0.387299" points="943.575,-18.6853 933.022,-19.6295 941.86,-25.4721 943.575,-18.6853"/>
</g>
<!-- &#45;4 -->
<g id="node4" class="node"><title>&#45;4</title>
<polygon fill="lightgray" stroke="black" points="1301.8,-95.9117 1277.8,-95.9117 1277.8,-77.9117 1301.8,-77.9117 1301.8,-95.9117"/>
<text text-anchor="middle" x="1289.8" y="-84.7117" font-family="Times New Roman,serif" font-size="9.00">&#45;4</text>
</g>
<!-- &#45;4&#45;&gt;0 -->
<g id="edge13" class="edge"><title>&#45;4&#45;&gt;0</title>
<path fill="none" stroke="red" stroke-width="0.820089" d="M1283.71,-77.8352C1279.93,-73.4586 1274.68,-68.4053 1268.8,-65.6985 1117.09,4.08726 1058.74,-61.4424 894.799,-29.6985 887.079,-28.2037 878.807,-25.9827 871.387,-23.7549"/>
<polygon fill="red" stroke="red" stroke-width="0.820089" points="872.202,-20.3421 861.612,-20.6759 870.098,-27.0187 872.202,-20.3421"/>
</g>
<!-- &#45;4&#45;&gt;1 -->
<g id="edge14" class="edge"><title>&#45;4&#45;&gt;1</title>
<path fill="none" stroke="green" stroke-width="0.159593" d="M1283.28,-77.5708C1279.51,-73.3362 1274.41,-68.506 1268.8,-65.6985 1179.8,-21.1713 1144.83,-51.8059 1047.8,-29.6985 1040.13,-27.9517 1031.87,-25.6607 1024.45,-23.4462"/>
<polygon fill="green" stroke="green" stroke-width="0.159593" points="1025.25,-20.0301 1014.66,-20.4314 1023.19,-26.72 1025.25,-20.0301"/>
</g>
<!-- &#45;4&#45;&gt;2 -->
<g id="edge15" class="edge"><title>&#45;4&#45;&gt;2</title>
<path fill="none" stroke="green" stroke-width="0.335007" d="M1283.18,-77.7619C1279.38,-73.5833 1274.28,-68.7457 1268.8,-65.6985 1212.26,-34.2889 1135.67,-22.3011 1096.74,-18.0262"/>
<polygon fill="green" stroke="green" stroke-width="0.335007" points="1096.89,-14.5236 1086.59,-16.9949 1096.18,-21.4878 1096.89,-14.5236"/>
</g>
<!-- &#45;4&#45;&gt;3 -->
<g id="edge16" class="edge"><title>&#45;4&#45;&gt;3</title>
<path fill="none" stroke="green" stroke-width="0.459211" d="M1283.69,-77.894C1279.9,-73.537 1274.65,-68.4837 1268.8,-65.6985 1150.74,-9.47196 1105.48,-52.9193 976.799,-29.6985 965.608,-27.6791 953.343,-24.8429 942.985,-22.2626"/>
<polygon fill="green" stroke="green" stroke-width="0.459211" points="943.562,-18.7977 933.007,-19.7113 941.828,-25.5795 943.562,-18.7977"/>
</g>
<!-- &#45;5 -->
<g id="node5" class="node"><title>&#45;5</title>
<polygon fill="lightgray" stroke="black" points="1343.8,-95.9117 1319.8,-95.9117 1319.8,-77.9117 1343.8,-77.9117 1343.8,-95.9117"/>
<text text-anchor="middle" x="1331.8" y="-84.7117" font-family="Times New Roman,serif" font-size="9.00">&#45;5</text>
</g>
<!-- &#45;5&#45;&gt;0 -->
<g id="edge17" class="edge"><title>&#45;5&#45;&gt;0</title>
<path fill="none" stroke="red" stroke-width="0.342663" d="M1325.72,-77.8139C1321.95,-73.4302 1316.7,-68.3769 1310.8,-65.6985 1226.31,-27.328 985.981,-46.8981 894.799,-29.6985 887.072,-28.2409 878.798,-26.0303 871.378,-23.8005"/>
<polygon fill="red" stroke="red" stroke-width="0.342663" points="872.195,-20.3881 861.605,-20.712 870.086,-27.0627 872.195,-20.3881"/>
</g>
<!-- &#45;5&#45;&gt;1 -->
<g id="edge18" class="edge"><title>&#45;5&#45;&gt;1</title>
<path fill="none" stroke="green" stroke-width="0.146908" d="M1325.31,-77.5137C1321.55,-73.2623 1316.45,-68.4344 1310.8,-65.6985 1204.63,-14.2572 1163.15,-54.4418 1047.8,-29.6985 1040.11,-28.0493 1031.85,-25.7855 1024.43,-23.5658"/>
<polygon fill="green" stroke="green" stroke-width="0.146908" points="1025.23,-20.1511 1014.64,-20.5261 1023.15,-26.8358 1025.23,-20.1511"/>
</g>
<!-- &#45;5&#45;&gt;2 -->
<g id="edge19" class="edge"><title>&#45;5&#45;&gt;2</title>
<path fill="none" stroke="red" stroke-width="0.242917" d="M1325.23,-77.6691C1321.45,-73.4632 1316.35,-68.6292 1310.8,-65.6985 1239.47,-28.0231 1142.11,-18.8146 1096.85,-16.5695"/>
<polygon fill="red" stroke="red" stroke-width="0.242917" points="1096.89,-13.0685 1086.75,-16.1441 1096.6,-20.0623 1096.89,-13.0685"/>
</g>
<!-- &#45;5&#45;&gt;3 -->
<g id="edge20" class="edge"><title>&#45;5&#45;&gt;3</title>
<path fill="none" stroke="red" stroke-width="0.298057" d="M1325.7,-77.8604C1321.92,-73.4922 1316.67,-68.4389 1310.8,-65.6985 1175.52,-2.53113 1123.93,-55.0877 976.799,-29.6985 965.593,-27.7647 953.326,-24.9407 942.97,-22.3464"/>
<polygon fill="red" stroke="red" stroke-width="0.298057" points="943.553,-18.8823 932.996,-19.773 941.805,-25.6603 943.553,-18.8823"/>
</g>
<!-- &#45;6 -->
<g id="node6" class="node"><title>&#45;6</title>
<polygon fill="lightgray" stroke="black" points="1385.8,-95.9117 1361.8,-95.9117 1361.8,-77.9117 1385.8,-77.9117 1385.8,-95.9117"/>
<text text-anchor="middle" x="1373.8" y="-84.7117" font-family="Times New Roman,serif" font-size="9.00">&#45;6</text>
</g>
<!-- &#45;6&#45;&gt;0 -->
<g id="edge21" class="edge"><title>&#45;6&#45;&gt;0</title>
<path fill="none" stroke="red" stroke-width="0.289728" d="M1367.73,-77.7965C1363.96,-73.407 1358.71,-68.3537 1352.8,-65.6985 1259.68,-23.8482 995.196,-48.2268 894.799,-29.6985 887.067,-28.2714 878.79,-26.0692 871.371,-23.8378"/>
<polygon fill="red" stroke="red" stroke-width="0.289728" points="872.19,-20.4257 861.6,-20.7415 870.075,-27.0987 872.19,-20.4257"/>
</g>
<!-- &#45;6&#45;&gt;1 -->
<g id="edge22" class="edge"><title>&#45;6&#45;&gt;1</title>
<path fill="none" stroke="green" stroke-width="0.236177" d="M1367.69,-77.8826C1363.9,-73.5218 1358.65,-68.4685 1352.8,-65.6985 1229.41,-7.32476 1181.52,-57.0866 1047.8,-29.6985 1040.1,-28.1207 1031.83,-25.8767 1024.41,-23.6532"/>
<polygon fill="green" stroke="green" stroke-width="0.236177" points="1025.22,-20.2394 1014.63,-20.5954 1023.13,-26.9204 1025.22,-20.2394"/>
</g>
<!-- &#45;6&#45;&gt;2 -->
<g id="edge23" class="edge"><title>&#45;6&#45;&gt;2</title>
<path fill="none" stroke="green" stroke-width="0.155746" d="M1367.27,-77.6023C1363.49,-73.3769 1358.39,-68.5455 1352.8,-65.6985 1266.42,-21.7167 1147.95,-15.8451 1096.89,-15.5211"/>
<polygon fill="green" stroke="green" stroke-width="0.155746" points="1096.77,-12.0211 1086.78,-15.5266 1096.78,-19.0211 1096.77,-12.0211"/>
</g>
<!-- &#45;6&#45;&gt;3 -->
<g id="edge24" class="edge"><title>&#45;6&#45;&gt;3</title>
<path fill="none" stroke="green" stroke-width="0.354527" d="M1367.71,-77.8341C1363.93,-73.4571 1358.68,-68.4038 1352.8,-65.6985 1200.27,4.41834 1142.4,-57.2596 976.799,-29.6985 965.582,-27.8315 953.313,-25.017 942.959,-22.4117"/>
<polygon fill="green" stroke="green" stroke-width="0.354527" points="943.547,-18.9482 932.988,-19.821 941.786,-25.7233 943.547,-18.9482"/>
</g>
<!-- &#45;7 -->
<g id="node7" class="node"><title>&#45;7</title>
<polygon fill="lightgray" stroke="black" points="1427.8,-95.9117 1403.8,-95.9117 1403.8,-77.9117 1427.8,-77.9117 1427.8,-95.9117"/>
<text text-anchor="middle" x="1415.8" y="-84.7117" font-family="Times New Roman,serif" font-size="9.00">&#45;7</text>
</g>
<!-- &#45;7&#45;&gt;0 -->
<g id="edge25" class="edge"><title>&#45;7&#45;&gt;0</title>
<path fill="none" stroke="green" stroke-width="0.124883" d="M1409.74,-77.7819C1405.97,-73.3876 1400.72,-68.3343 1394.8,-65.6985 1293.04,-20.3668 1004.41,-49.5562 894.799,-29.6985 887.062,-28.2968 878.784,-26.1017 871.365,-23.8689"/>
<polygon fill="green" stroke="green" stroke-width="0.124883" points="872.185,-20.4571 861.595,-20.7661 870.067,-27.1288 872.185,-20.4571"/>
</g>
<!-- &#45;7&#45;&gt;1 -->
<g id="edge26" class="edge"><title>&#45;7&#45;&gt;1</title>
<path fill="none" stroke="red" stroke-width="0.397707" d="M1409.71,-77.8516C1405.92,-73.4804 1400.67,-68.4271 1394.8,-65.6985 1254.18,-0.380879 1199.91,-59.7368 1047.8,-29.6985 1040.08,-28.1751 1031.81,-25.9462 1024.39,-23.7198"/>
<polygon fill="red" stroke="red" stroke-width="0.397707" points="1025.21,-20.3067 1014.62,-20.6481 1023.11,-26.9848 1025.21,-20.3067"/>
</g>
<!-- &#45;7&#45;&gt;2 -->
<g id="edge27" class="edge"><title>&#45;7&#45;&gt;2</title>
<path fill="none" stroke="green" stroke-width="0.373595" d="M1409.29,-77.5521C1405.53,-73.312 1400.42,-68.4826 1394.8,-65.6985 1342.16,-39.6391 1163.43,-23.1274 1096.96,-17.7633"/>
<polygon fill="green" stroke="green" stroke-width="0.373595" points="1096.85,-14.2433 1086.6,-16.9446 1096.29,-21.2215 1096.85,-14.2433"/>
</g>
<!-- &#45;7&#45;&gt;3 -->
<g id="edge28" class="edge"><title>&#45;7&#45;&gt;3</title>
<path fill="none" stroke="green" stroke-width="0.520314" d="M1409.72,-77.813C1405.95,-73.429 1400.7,-68.3757 1394.8,-65.6985 1309.9,-27.1623 1068.84,-44.5661 976.799,-29.6985 965.573,-27.8851 953.303,-25.0781 942.951,-22.4641"/>
<polygon fill="green" stroke="green" stroke-width="0.520314" points="943.542,-19.001 932.982,-19.8595 941.772,-25.7737 943.542,-19.001"/>
</g>
<!-- &#45;8 -->
<g id="node8" class="node"><title>&#45;8</title>
<polygon fill="lightgray" stroke="black" points="1469.8,-95.9117 1445.8,-95.9117 1445.8,-77.9117 1469.8,-77.9117 1469.8,-95.9117"/>
<text text-anchor="middle" x="1457.8" y="-84.7117" font-family="Times New Roman,serif" font-size="9.00">&#45;8</text>
</g>
<!-- &#45;8&#45;&gt;0 -->
<g id="edge29" class="edge"><title>&#45;8&#45;&gt;0</title>
<path fill="none" stroke="green" stroke-width="0.105293" d="M1451.74,-77.7696C1447.97,-73.3711 1442.72,-68.3178 1436.8,-65.6985 1326.4,-16.8841 1013.64,-50.8861 894.799,-29.6985 887.058,-28.3183 878.779,-26.1291 871.361,-23.8952"/>
<polygon fill="green" stroke="green" stroke-width="0.105293" points="872.182,-20.4836 861.591,-20.787 870.06,-27.1542 872.182,-20.4836"/>
</g>
<!-- &#45;8&#45;&gt;1 -->
<g id="edge30" class="edge"><title>&#45;8&#45;&gt;1</title>
<path fill="none" stroke="green" stroke-width="0.314189" d="M1451.72,-77.8271C1447.94,-73.4478 1442.69,-68.3945 1436.8,-65.6985 1278.93,6.57068 1218.32,-62.3905 1047.8,-29.6985 1040.08,-28.2179 1031.8,-26.0009 1024.38,-23.7723"/>
<polygon fill="green" stroke="green" stroke-width="0.314189" points="1025.2,-20.3596 1014.61,-20.6896 1023.09,-27.0355 1025.2,-20.3596"/>
</g>
<!-- &#45;8&#45;&gt;2 -->
<g id="edge31" class="edge"><title>&#45;8&#45;&gt;2</title>
<path fill="none" stroke="red" stroke-width="0.334461" d="M1451.31,-77.513C1447.55,-73.2615 1442.45,-68.4336 1436.8,-65.6985 1376.3,-36.3979 1169.05,-21.6054 1096.85,-17.251"/>
<polygon fill="red" stroke="red" stroke-width="0.334461" points="1097.02,-13.7553 1086.83,-16.6624 1096.61,-20.7432 1097.02,-13.7553"/>
</g>
<!-- &#45;8&#45;&gt;3 -->
<g id="edge32" class="edge"><title>&#45;8&#45;&gt;3</title>
<path fill="none" stroke="green" stroke-width="0.231241" d="M1451.73,-77.7957C1447.96,-73.406 1442.71,-68.3527 1436.8,-65.6985 1343.27,-23.6825 1078.09,-45.6541 976.799,-29.6985 965.566,-27.9289 953.295,-25.1282 942.944,-22.507"/>
<polygon fill="green" stroke="green" stroke-width="0.231241" points="943.537,-19.0443 932.977,-19.8911 941.76,-25.815 943.537,-19.0443"/>
</g>
<!-- &#45;9 -->
<g id="node9" class="node"><title>&#45;9</title>
<polygon fill="lightgray" stroke="black" points="1511.8,-95.9117 1487.8,-95.9117 1487.8,-77.9117 1511.8,-77.9117 1511.8,-95.9117"/>
<text text-anchor="middle" x="1499.8" y="-84.7117" font-family="Times New Roman,serif" font-size="9.00">&#45;9</text>
</g>
<!-- &#45;9&#45;&gt;0 -->
<g id="edge33" class="edge"><title>&#45;9&#45;&gt;0</title>
<path fill="none" stroke="red" stroke-width="0.290436" stroke-dasharray="1,5" d="M1493.75,-77.759C1489.98,-73.357 1484.73,-68.3037 1478.8,-65.6985 1359.76,-13.4005 1022.86,-52.2164 894.799,-29.6985 887.055,-28.3367 878.775,-26.1527 871.357,-23.9177"/>
<polygon fill="red" stroke="red" stroke-width="0.290436" points="872.179,-20.5064 861.588,-20.8048 870.053,-27.1759 872.179,-20.5064"/>
</g>
<!-- &#45;9&#45;&gt;1 -->
<g id="edge34" class="edge"><title>&#45;9&#45;&gt;1</title>
<path fill="none" stroke="red" stroke-width="0.331782" d="M1493.73,-77.8073C1489.95,-73.4214 1484.7,-68.3681 1478.8,-65.6985 1391.23,-26.0854 1142.27,-47.3725 1047.8,-29.6985 1040.07,-28.2525 1031.79,-26.0451 1024.38,-23.8146"/>
<polygon fill="red" stroke="red" stroke-width="0.331782" points="1025.19,-20.4024 1014.6,-20.7232 1023.08,-27.0764 1025.19,-20.4024"/>
</g>
<!-- &#45;9&#45;&gt;2 -->
<g id="edge35" class="edge"><title>&#45;9&#45;&gt;2</title>
<path fill="none" stroke="red" stroke-width="0.385431" d="M1493.69,-77.8922C1489.9,-73.5346 1484.65,-68.4813 1478.8,-65.6985 1410.48,-33.1948 1175.05,-20.3015 1097.09,-16.8609"/>
<polygon fill="red" stroke="red" stroke-width="0.385431" points="1096.91,-13.3501 1086.77,-16.4207 1096.61,-20.3438 1096.91,-13.3501"/>
</g>
<!-- &#45;9&#45;&gt;3 -->
<g id="edge36" class="edge"><title>&#45;9&#45;&gt;3</title>
<path fill="none" stroke="green" stroke-width="0.164978" d="M1493.74,-77.7813C1489.97,-73.3867 1484.72,-68.3334 1478.8,-65.6985 1376.63,-20.201 1087.33,-46.7426 976.799,-29.6985 965.561,-27.9655 953.288,-25.17 942.938,-22.5427"/>
<polygon fill="green" stroke="green" stroke-width="0.164978" points="943.534,-19.0804 932.972,-19.9174 941.751,-25.8494 943.534,-19.0804"/>
</g>
<!-- &#45;10 -->
<g id="node10" class="node"><title>&#45;10</title>
<polygon fill="lightgray" stroke="black" points="1559.3,-95.9117 1530.3,-95.9117 1530.3,-77.9117 1559.3,-77.9117 1559.3,-95.9117"/>
<text text-anchor="middle" x="1544.8" y="-84.7117" font-family="Times New Roman,serif" font-size="9.00">&#45;10</text>
</g>
<!-- &#45;10&#45;&gt;0 -->
<g id="edge37" class="edge"><title>&#45;10&#45;&gt;0</title>
<path fill="none" stroke="red" stroke-width="0.286035" d="M1537.66,-77.7386C1533.28,-73.3298 1527.28,-68.2765 1520.8,-65.6985 1391.33,-14.1822 1032.08,-53.5471 894.799,-29.6985 887.052,-28.3527 878.772,-26.1731 871.353,-23.9373"/>
<polygon fill="red" stroke="red" stroke-width="0.286035" points="872.176,-20.5261 861.586,-20.8203 870.048,-27.1948 872.176,-20.5261"/>
</g>
<!-- &#45;10&#45;&gt;1 -->
<g id="edge38" class="edge"><title>&#45;10&#45;&gt;1</title>
<path fill="none" stroke="green" stroke-width="0.115449" d="M1537.64,-77.7835C1533.25,-73.3896 1527.25,-68.3363 1520.8,-65.6985 1423.22,-25.8198 1151.49,-48.7015 1047.8,-29.6985 1040.06,-28.281 1031.79,-26.0815 1024.37,-23.8495"/>
<polygon fill="green" stroke="green" stroke-width="0.115449" points="1025.19,-20.4376 1014.6,-20.7508 1023.07,-27.1101 1025.19,-20.4376"/>
</g>
<!-- &#45;10&#45;&gt;2 -->
<g id="edge39" class="edge"><title>&#45;10&#45;&gt;2</title>
<path fill="none" stroke="green" stroke-width="0.16544" d="M1537.61,-77.8669C1533.21,-73.5009 1527.21,-68.4476 1520.8,-65.6985 1443.37,-32.4799 1179.64,-19.9075 1096.87,-16.7242"/>
<polygon fill="green" stroke="green" stroke-width="0.16544" points="1096.97,-13.2256 1086.85,-16.3512 1096.71,-20.2208 1096.97,-13.2256"/>
</g>
<!-- &#45;10&#45;&gt;3 -->
<g id="edge40" class="edge"><title>&#45;10&#45;&gt;3</title>
<path fill="none" stroke="green" stroke-width="0.292577" d="M1537.65,-77.7595C1533.27,-73.3577 1527.27,-68.3044 1520.8,-65.6985 1408.42,-20.4208 1096.59,-47.8316 976.799,-29.6985 965.556,-27.9965 953.283,-25.2053 942.934,-22.573"/>
<polygon fill="green" stroke="green" stroke-width="0.292577" points="943.531,-19.1109 932.969,-19.9397 941.743,-25.8786 943.531,-19.1109"/>
</g>
<!-- &#45;11 -->
<g id="node11" class="node"><title>&#45;11</title>
<polygon fill="lightgray" stroke="black" points="99.2993,-95.9117 70.2993,-95.9117 70.2993,-77.9117 99.2993,-77.9117 99.2993,-95.9117"/>
<text text-anchor="middle" x="84.7993" y="-84.7117" font-family="Times New Roman,serif" font-size="9.00">&#45;11</text>
</g>
<!-- &#45;11&#45;&gt;0 -->
<g id="edge41" class="edge"><title>&#45;11&#45;&gt;0</title>
<path fill="none" stroke="green" stroke-width="0.145653" d="M91.5872,-77.7648C95.7666,-73.3647 101.517,-68.3114 107.799,-65.6985 175.029,-37.7383 701.146,-20.2712 822.767,-16.5823"/>
<polygon fill="green" stroke="green" stroke-width="0.145653" points="823.058,-20.0752 832.948,-16.2772 822.848,-13.0784 823.058,-20.0752"/>
</g>
<!-- &#45;11&#45;&gt;1 -->
<g id="edge42" class="edge"><title>&#45;11&#45;&gt;1</title>
<path fill="none" stroke="green" stroke-width="0.250541" d="M91.5639,-77.7077C95.7354,-73.2886 101.485,-68.2353 107.799,-65.6985 280.137,3.54395 758.856,-55.3836 942.799,-29.6985 954.062,-28.1259 966.337,-25.353 976.683,-22.6995"/>
<polygon fill="green" stroke="green" stroke-width="0.250541" points="977.889,-26.0002 986.643,-20.0328 976.078,-19.2384 977.889,-26.0002"/>
</g>
<!-- &#45;11&#45;&gt;3 -->
<g id="edge43" class="edge"><title>&#45;11&#45;&gt;3</title>
<path fill="none" stroke="red" stroke-width="0.298691" d="M91.5677,-77.7171C95.7405,-73.3012 101.491,-68.2479 107.799,-65.6985 265.385,-2.01712 704.193,-57.921 871.799,-29.6985 879.553,-28.3928 887.836,-26.2244 895.254,-23.9864"/>
<polygon fill="red" stroke="red" stroke-width="0.298691" points="896.563,-27.2422 905.02,-20.8592 894.429,-20.5756 896.563,-27.2422"/>
</g>
<!-- &#45;12 -->
<g id="node12" class="node"><title>&#45;12</title>
<polygon fill="lightgray" stroke="black" points="1606.3,-95.9117 1577.3,-95.9117 1577.3,-77.9117 1606.3,-77.9117 1606.3,-95.9117"/>
<text text-anchor="middle" x="1591.8" y="-84.7117" font-family="Times New Roman,serif" font-size="9.00">&#45;12</text>
</g>
<!-- &#45;12&#45;&gt;0 -->
<g id="edge44" class="edge"><title>&#45;12&#45;&gt;0</title>
<path fill="none" stroke="red" stroke-width="0.337406" d="M1585.02,-77.732C1580.85,-73.321 1575.1,-68.2677 1568.8,-65.6985 1429.91,-9.06501 1042.63,-55.0682 894.799,-29.6985 887.049,-28.3685 878.768,-26.1933 871.35,-23.9567"/>
<polygon fill="red" stroke="red" stroke-width="0.337406" points="872.174,-20.5456 861.583,-20.8356 870.043,-27.2135 872.174,-20.5456"/>
</g>
<!-- &#45;12&#45;&gt;1 -->
<g id="edge45" class="edge"><title>&#45;12&#45;&gt;1</title>
<path fill="none" stroke="red" stroke-width="0.397007" d="M1585.01,-77.7688C1580.83,-73.3701 1575.08,-68.3168 1568.8,-65.6985 1461.68,-21.0408 1162.02,-50.2211 1047.8,-29.6985 1040.06,-28.308 1031.78,-26.116 1024.36,-23.8825"/>
<polygon fill="red" stroke="red" stroke-width="0.397007" points="1025.18,-20.4709 1014.59,-20.777 1023.06,-27.142 1025.18,-20.4709"/>
</g>
<!-- &#45;12&#45;&gt;2 -->
<g id="edge46" class="edge"><title>&#45;12&#45;&gt;2</title>
<path fill="none" stroke="green" stroke-width="0.207079" d="M1584.98,-77.8416C1580.79,-73.4671 1575.04,-68.4138 1568.8,-65.6985 1482.63,-28.1989 1186.15,-18.4651 1097.21,-16.3612"/>
<polygon fill="green" stroke="green" stroke-width="0.207079" points="1097.05,-12.8567 1086.97,-16.1315 1096.89,-19.855 1097.05,-12.8567"/>
</g>
<!-- &#45;12&#45;&gt;3 -->
<g id="edge47" class="edge"><title>&#45;12&#45;&gt;3</title>
<path fill="none" stroke="green" stroke-width="0.249724" d="M1585.02,-77.7494C1580.84,-73.3442 1575.09,-68.2909 1568.8,-65.6985 1446.94,-15.4845 1107.17,-49.0766 976.799,-29.6985 965.551,-28.0265 953.278,-25.2396 942.929,-22.6024"/>
<polygon fill="green" stroke="green" stroke-width="0.249724" points="943.529,-19.1405 932.966,-19.9613 941.735,-25.9068 943.529,-19.1405"/>
</g>
<!-- &#45;13 -->
<g id="node13" class="node"><title>&#45;13</title>
<polygon fill="lightgray" stroke="black" points="1653.3,-95.9117 1624.3,-95.9117 1624.3,-77.9117 1653.3,-77.9117 1653.3,-95.9117"/>
<text text-anchor="middle" x="1638.8" y="-84.7117" font-family="Times New Roman,serif" font-size="9.00">&#45;13</text>
</g>
<!-- &#45;13&#45;&gt;0 -->
<g id="edge48" class="edge"><title>&#45;13&#45;&gt;0</title>
<path fill="none" stroke="green" stroke-width="0.300687" d="M1632.03,-77.7238C1627.85,-73.31 1622.1,-68.2567 1615.8,-65.6985 1467.15,-5.38466 1052.96,-56.5579 894.799,-29.6985 887.047,-28.3819 878.765,-26.2105 871.347,-23.9731"/>
<polygon fill="green" stroke="green" stroke-width="0.300687" points="872.172,-20.5622 861.581,-20.8487 870.039,-27.2294 872.172,-20.5622"/>
</g>
<!-- &#45;13&#45;&gt;1 -->
<g id="edge49" class="edge"><title>&#45;13&#45;&gt;1</title>
<path fill="none" stroke="green" stroke-width="0.277417" d="M1632.02,-77.7554C1627.84,-73.3522 1622.09,-68.2989 1615.8,-65.6985 1498.92,-17.363 1172.34,-51.7096 1047.8,-29.6985 1040.06,-28.33 1031.78,-26.1441 1024.36,-23.9095"/>
<polygon fill="green" stroke="green" stroke-width="0.277417" points="1025.18,-20.4981 1014.59,-20.7983 1023.06,-27.168 1025.18,-20.4981"/>
</g>
<!-- &#45;13&#45;&gt;2 -->
<g id="edge50" class="edge"><title>&#45;13&#45;&gt;2</title>
<path fill="none" stroke="green" stroke-width="0.185857" d="M1631.99,-77.8215C1627.8,-73.4403 1622.05,-68.387 1615.8,-65.6985 1520.57,-24.7387 1191.27,-17.3825 1097.12,-16.1075"/>
<polygon fill="green" stroke="green" stroke-width="0.185857" points="1096.88,-12.6043 1086.84,-15.9803 1096.8,-19.6038 1096.88,-12.6043"/>
</g>
<!-- &#45;13&#45;&gt;3 -->
<g id="edge51" class="edge"><title>&#45;13&#45;&gt;3</title>
<path fill="none" stroke="green" stroke-width="0.252372" d="M1632.02,-77.7389C1627.85,-73.3302 1622.1,-68.2769 1615.8,-65.6985 1484.18,-11.8053 1117.53,-50.2961 976.799,-29.6985 965.548,-28.0516 953.273,-25.2683 942.926,-22.6269"/>
<polygon fill="green" stroke="green" stroke-width="0.252372" points="943.527,-19.1652 932.963,-19.9793 941.729,-25.9304 943.527,-19.1652"/>
</g>
<!-- &#45;14 -->
<g id="node14" class="node"><title>&#45;14</title>
<polygon fill="lightgray" stroke="black" points="1700.3,-95.9117 1671.3,-95.9117 1671.3,-77.9117 1700.3,-77.9117 1700.3,-95.9117"/>
<text text-anchor="middle" x="1685.8" y="-84.7117" font-family="Times New Roman,serif" font-size="9.00">&#45;14</text>
</g>
<!-- &#45;14&#45;&gt;0 -->
<g id="edge52" class="edge"><title>&#45;14&#45;&gt;0</title>
<path fill="none" stroke="red" stroke-width="0.237422" d="M1679.03,-77.7166C1674.86,-73.3004 1669.11,-68.2471 1662.8,-65.6985 1504.38,-1.70384 1063.28,-58.0478 894.799,-29.6985 887.045,-28.3938 878.763,-26.2256 871.345,-23.9876"/>
<polygon fill="red" stroke="red" stroke-width="0.237422" points="872.17,-20.5768 861.579,-20.8602 870.035,-27.2433 872.17,-20.5768"/>
</g>
<!-- &#45;14&#45;&gt;1 -->
<g id="edge53" class="edge"><title>&#45;14&#45;&gt;1</title>
<path fill="none" stroke="red" stroke-width="0.512624" d="M1679.02,-77.744C1674.84,-73.3371 1669.09,-68.2838 1662.8,-65.6985 1536.16,-13.6842 1182.67,-53.1986 1047.8,-29.6985 1040.05,-28.3487 1031.77,-26.168 1024.35,-23.9324"/>
<polygon fill="red" stroke="red" stroke-width="0.512624" points="1025.18,-20.5212 1014.59,-20.8165 1023.05,-27.1901 1025.18,-20.5212"/>
</g>
<!-- &#45;14&#45;&gt;2 -->
<g id="edge54" class="edge"><title>&#45;14&#45;&gt;2</title>
<path fill="none" stroke="green" stroke-width="0.369837" d="M1678.99,-77.8045C1674.81,-73.4177 1669.06,-68.3644 1662.8,-65.6985 1558.47,-21.2699 1196.16,-16.3912 1097.04,-15.8949"/>
<polygon fill="green" stroke="green" stroke-width="0.369837" points="1096.79,-12.394 1086.78,-15.8551 1096.77,-19.394 1096.79,-12.394"/>
</g>
<!-- &#45;14&#45;&gt;3 -->
<g id="edge55" class="edge"><title>&#45;14&#45;&gt;3</title>
<path fill="none" stroke="red" stroke-width="0.121581" d="M1679.03,-77.7298C1674.85,-73.318 1669.1,-68.2647 1662.8,-65.6985 1521.42,-8.12539 1127.89,-51.5158 976.799,-29.6985 965.544,-28.0733 953.27,-25.293 942.923,-22.6481"/>
<polygon fill="red" stroke="red" stroke-width="0.121581" points="943.525,-19.1866 932.961,-19.9949 941.723,-25.9508 943.525,-19.1866"/>
</g>
<!-- &#45;15 -->
<g id="node15" class="node"><title>&#45;15</title>
<polygon fill="lightgray" stroke="black" points="146.299,-95.9117 117.299,-95.9117 117.299,-77.9117 146.299,-77.9117 146.299,-95.9117"/>
<text text-anchor="middle" x="131.799" y="-84.7117" font-family="Times New Roman,serif" font-size="9.00">&#45;15</text>
</g>
<!-- &#45;15&#45;&gt;0 -->
<g id="edge56" class="edge"><title>&#45;15&#45;&gt;0</title>
<path fill="none" stroke="red" stroke-width="0.195083" d="M138.592,-77.7755C142.773,-73.379 148.523,-68.3257 154.799,-65.6985 279.049,-13.6927 713.921,-14.487 822.892,-15.5367"/>
<polygon fill="red" stroke="red" stroke-width="0.195083" points="822.903,-19.0369 832.94,-15.6436 822.978,-12.0373 822.903,-19.0369"/>
</g>
<!-- &#45;15&#45;&gt;1 -->
<g id="edge57" class="edge"><title>&#45;15&#45;&gt;1</title>
<path fill="none" stroke="green" stroke-width="0.305585" d="M138.566,-77.7138C142.739,-73.2967 148.489,-68.2434 154.799,-65.6985 317.371,-0.137414 769.221,-54.1634 942.799,-29.6985 954.06,-28.1114 966.335,-25.3365 976.681,-22.6854"/>
<polygon fill="green" stroke="green" stroke-width="0.305585" points="977.885,-25.9866 986.642,-20.0224 976.077,-19.2241 977.885,-25.9866"/>
</g>
<!-- &#45;15&#45;&gt;2 -->
<g id="edge58" class="edge"><title>&#45;15&#45;&gt;2</title>
<path fill="none" stroke="red" stroke-width="0.198753" d="M138.562,-77.7036C142.733,-73.2831 148.483,-68.2298 154.799,-65.6985 334.41,6.28559 833.895,-61.2817 1024.8,-29.6985 1032.56,-28.415 1040.84,-26.2528 1048.26,-24.0137"/>
<polygon fill="red" stroke="red" stroke-width="0.198753" points="1049.57,-27.2684 1058.02,-20.8808 1047.43,-20.603 1049.57,-27.2684"/>
</g>
<!-- &#45;15&#45;&gt;3 -->
<g id="edge59" class="edge"><title>&#45;15&#45;&gt;3</title>
<path fill="none" stroke="red" stroke-width="0.362816" d="M138.571,-77.7244C142.744,-73.3109 148.494,-68.2576 154.799,-65.6985 302.62,-5.6979 714.521,-56.4311 871.799,-29.6985 879.551,-28.3809 887.833,-26.2091 895.251,-23.9718"/>
<polygon fill="red" stroke="red" stroke-width="0.362816" points="896.56,-27.2281 905.018,-20.8477 894.427,-20.5609 896.56,-27.2281"/>
</g>
<!-- &#45;16 -->
<g id="node16" class="node"><title>&#45;16</title>
<polygon fill="lightgray" stroke="black" points="193.299,-95.9117 164.299,-95.9117 164.299,-77.9117 193.299,-77.9117 193.299,-95.9117"/>
<text text-anchor="middle" x="178.799" y="-84.7117" font-family="Times New Roman,serif" font-size="9.00">&#45;16</text>
</g>
<!-- &#45;16&#45;&gt;0 -->
<g id="edge60" class="edge"><title>&#45;16&#45;&gt;0</title>
<path fill="none" stroke="green" stroke-width="0.154511" d="M185.597,-77.7877C189.779,-73.3953 195.529,-68.342 201.799,-65.6985 316.806,-17.209 717.85,-15.3276 822.608,-15.6862"/>
<polygon fill="green" stroke="green" stroke-width="0.154511" points="822.835,-19.1872 832.851,-15.7322 822.867,-12.1873 822.835,-19.1872"/>
</g>
<!-- &#45;16&#45;&gt;1 -->
<g id="edge61" class="edge"><title>&#45;16&#45;&gt;1</title>
<path fill="none" stroke="green" stroke-width="0.314389" d="M185.569,-77.7206C189.742,-73.3058 195.492,-68.2525 201.799,-65.6985 354.606,-3.81841 779.585,-52.9433 942.799,-29.6985 954.057,-28.0951 966.332,-25.318 976.679,-22.6695"/>
<polygon fill="green" stroke="green" stroke-width="0.314389" points="977.881,-25.9713 986.64,-20.0106 976.076,-19.2081 977.881,-25.9713"/>
</g>
<!-- &#45;16&#45;&gt;2 -->
<g id="edge62" class="edge"><title>&#45;16&#45;&gt;2</title>
<path fill="none" stroke="red" stroke-width="0.371412" d="M185.564,-77.7092C189.736,-73.2906 195.486,-68.2373 201.799,-65.6985 371.644,2.60399 844.226,-59.7915 1024.8,-29.6985 1032.56,-28.4059 1040.84,-26.2411 1048.26,-24.0025"/>
<polygon fill="red" stroke="red" stroke-width="0.371412" points="1049.57,-27.2576 1058.02,-20.8719 1047.43,-20.5918 1049.57,-27.2576"/>
</g>
<!-- &#45;16&#45;&gt;3 -->
<g id="edge63" class="edge"><title>&#45;16&#45;&gt;3</title>
<path fill="none" stroke="red" stroke-width="0.642474" d="M185.574,-77.7327C189.749,-73.322 195.499,-68.2687 201.799,-65.6985 339.857,-9.3782 724.848,-54.9414 871.799,-29.6985 879.549,-28.3672 887.83,-26.1917 895.248,-23.9551"/>
<polygon fill="red" stroke="red" stroke-width="0.642474" points="896.555,-27.212 905.015,-20.8345 894.425,-20.5441 896.555,-27.212"/>
</g>
<!-- &#45;17 -->
<g id="node17" class="node"><title>&#45;17</title>
<polygon fill="lightgray" stroke="black" points="240.299,-95.9117 211.299,-95.9117 211.299,-77.9117 240.299,-77.9117 240.299,-95.9117"/>
<text text-anchor="middle" x="225.799" y="-84.7117" font-family="Times New Roman,serif" font-size="9.00">&#45;17</text>
</g>
<!-- &#45;17&#45;&gt;0 -->
<g id="edge64" class="edge"><title>&#45;17&#45;&gt;0</title>
<path fill="none" stroke="red" stroke-width="0.213984" d="M232.603,-77.8019C236.787,-73.4142 242.537,-68.3609 248.799,-65.6985 354.784,-20.6371 723.306,-16.2222 822.852,-15.8611"/>
<polygon fill="red" stroke="red" stroke-width="0.213984" points="822.894,-19.3611 832.885,-15.8357 822.876,-12.3612 822.894,-19.3611"/>
</g>
<!-- &#45;17&#45;&gt;1 -->
<g id="edge65" class="edge"><title>&#45;17&#45;&gt;1</title>
<path fill="none" stroke="green" stroke-width="0.528306" d="M232.572,-77.7284C236.747,-73.3161 242.497,-68.2628 248.799,-65.6985 391.842,-7.49897 789.948,-51.7234 942.799,-29.6985 954.055,-28.0767 966.329,-25.2969 976.677,-22.6514"/>
<polygon fill="green" stroke="green" stroke-width="0.528306" points="977.876,-25.9539 986.638,-19.9974 976.074,-19.1899 977.876,-25.9539"/>
</g>
<!-- &#45;17&#45;&gt;2 -->
<g id="edge66" class="edge"><title>&#45;17&#45;&gt;2</title>
<path fill="none" stroke="red" stroke-width="0.351434" d="M232.567,-77.7154C236.74,-73.2989 242.49,-68.2456 248.799,-65.6985 408.878,-1.07728 854.555,-58.3014 1024.8,-29.6985 1032.55,-28.3956 1040.84,-26.228 1048.25,-23.9899"/>
<polygon fill="red" stroke="red" stroke-width="0.351434" points="1049.56,-27.2455 1058.02,-20.862 1047.43,-20.5791 1049.56,-27.2455"/>
</g>
<!-- &#45;17&#45;&gt;3 -->
<g id="edge67" class="edge"><title>&#45;17&#45;&gt;3</title>
<path fill="none" stroke="green" stroke-width="0.207374" d="M232.578,-77.7423C236.754,-73.3347 242.504,-68.2814 248.799,-65.6985 377.095,-13.0579 735.173,-53.452 871.799,-29.6985 879.546,-28.3516 887.827,-26.1717 895.245,-23.936"/>
<polygon fill="green" stroke="green" stroke-width="0.207374" points="896.55,-27.1935 905.013,-20.8193 894.422,-20.5248 896.55,-27.1935"/>
</g>
<!-- &#45;18 -->
<g id="node18" class="node"><title>&#45;18</title>
<polygon fill="lightgray" stroke="black" points="1743.3,-162.125 1714.3,-162.125 1714.3,-144.125 1743.3,-144.125 1743.3,-162.125"/>
<text text-anchor="middle" x="1728.8" y="-150.925" font-family="Times New Roman,serif" font-size="9.00">&#45;18</text>
</g>
<!-- &#45;18&#45;&gt;0 -->
<g id="edge68" class="edge"><title>&#45;18&#45;&gt;0</title>
<path fill="none" stroke="red" stroke-width="0.503019" d="M1714.22,-152.035C1549.37,-150.981 41.3165,-140.459 9.79928,-108.125 -3.36236,-94.622 -3.13212,-79.422 9.79928,-65.6985 38.387,-35.3597 685.357,-19.4305 822.428,-16.3898"/>
<polygon fill="red" stroke="red" stroke-width="0.503019" points="822.833,-19.8819 832.754,-16.1639 822.68,-12.8835 822.833,-19.8819"/>
</g>
<!-- &#45;18&#45;&gt;1 -->
<g id="edge69" class="edge"><title>&#45;18&#45;&gt;1</title>
<path fill="none" stroke="red" stroke-width="0.142112" d="M1729.86,-144.123C1731.65,-126.739 1733.1,-85.4954 1709.8,-65.6985 1653.67,-17.9973 1120.4,-42.1932 1047.8,-29.6985 1040.05,-28.3647 1031.77,-26.1885 1024.35,-23.9521"/>
<polygon fill="red" stroke="red" stroke-width="0.142112" points="1025.17,-20.541 1014.58,-20.832 1023.04,-27.209 1025.17,-20.541"/>
</g>
<!-- &#45;18&#45;&gt;2 -->
<g id="edge70" class="edge"><title>&#45;18&#45;&gt;2</title>
<path fill="none" stroke="red" stroke-width="0.3341" d="M1743.33,-150.167C1778.18,-145.143 1864.88,-130.591 1881.8,-108.125 1893.14,-93.0613 1894.72,-79.4352 1881.8,-65.6985 1854.22,-36.3726 1230.15,-19.6745 1096.75,-16.4333"/>
<polygon fill="red" stroke="red" stroke-width="0.3341" points="1096.77,-12.9328 1086.68,-16.1919 1096.6,-19.9308 1096.77,-12.9328"/>
</g>
<!-- &#45;18&#45;&gt;3 -->
<g id="edge71" class="edge"><title>&#45;18&#45;&gt;3</title>
<path fill="none" stroke="red" stroke-width="0.189253" d="M1714.12,-152.03C1549.71,-150.933 58.9662,-140.108 27.7993,-108.125 -103.66,26.7793 685.981,-60.5617 871.799,-29.6985 879.556,-28.4101 887.839,-26.2464 895.257,-24.0076"/>
<polygon fill="red" stroke="red" stroke-width="0.189253" points="896.569,-27.2626 905.023,-20.876 894.431,-20.597 896.569,-27.2626"/>
</g>
<!-- 181 -->
<g id="node46" class="node"><title>181</title>
<ellipse fill="white" stroke="black" cx="1949.8" cy="-86.9117" rx="21.4286" ry="21.4286"/>
<text text-anchor="middle" x="1949.8" y="-84.7117" font-family="Times New Roman,serif" font-size="9.00">181</text>
</g>
<!-- &#45;18&#45;&gt;181 -->
<g id="edge158" class="edge"><title>&#45;18&#45;&gt;181</title>
<path fill="none" stroke="green" stroke-width="0.408896" d="M1743.71,-150.107C1775.86,-145.434 1853.74,-132.374 1914.8,-108.125 1917.71,-106.971 1920.66,-105.606 1923.56,-104.139"/>
<polygon fill="green" stroke="green" stroke-width="0.408896" points="1925.41,-107.114 1932.5,-99.2362 1922.05,-100.976 1925.41,-107.114"/>
</g>
<!-- &#45;19 -->
<g id="node19" class="node"><title>&#45;19</title>
<polygon fill="lightgray" stroke="black" points="287.299,-95.9117 258.299,-95.9117 258.299,-77.9117 287.299,-77.9117 287.299,-95.9117"/>
<text text-anchor="middle" x="272.799" y="-84.7117" font-family="Times New Roman,serif" font-size="9.00">&#45;19</text>
</g>
<!-- &#45;19&#45;&gt;0 -->
<g id="edge72" class="edge"><title>&#45;19&#45;&gt;0</title>
<path fill="none" stroke="green" stroke-width="0.300017" d="M279.61,-77.8184C283.797,-73.4362 289.547,-68.3829 295.799,-65.6985 392.652,-24.1171 727.987,-17.1972 822.706,-16.0661"/>
<polygon fill="green" stroke="green" stroke-width="0.300017" points="822.834,-19.565 832.795,-15.9572 822.758,-12.5654 822.834,-19.565"/>
</g>
<!-- &#45;19&#45;&gt;1 -->
<g id="edge73" class="edge"><title>&#45;19&#45;&gt;1</title>
<path fill="none" stroke="red" stroke-width="0.6825" d="M279.576,-77.7372C283.751,-73.328 289.501,-68.2747 295.799,-65.6985 429.08,-11.179 800.31,-50.5037 942.799,-29.6985 954.052,-28.0555 966.326,-25.2727 976.674,-22.6307"/>
<polygon fill="red" stroke="red" stroke-width="0.6825" points="977.871,-25.9341 986.636,-19.9821 976.072,-19.1691 977.871,-25.9341"/>
</g>
<!-- &#45;19&#45;&gt;2 -->
<g id="edge74" class="edge"><title>&#45;19&#45;&gt;2</title>
<path fill="none" stroke="green" stroke-width="0.114437" d="M279.57,-77.7225C283.743,-73.3083 289.493,-68.255 295.799,-65.6985 446.113,-4.75817 864.884,-56.8115 1024.8,-29.6985 1032.55,-28.3841 1040.83,-26.2132 1048.25,-23.9757"/>
<polygon fill="green" stroke="green" stroke-width="0.114437" points="1049.56,-27.2319 1058.02,-20.8508 1047.43,-20.5648 1049.56,-27.2319"/>
</g>
<!-- &#45;19&#45;&gt;3 -->
<g id="edge75" class="edge"><title>&#45;19&#45;&gt;3</title>
<path fill="none" stroke="red" stroke-width="0.268785" d="M279.583,-77.7534C283.76,-73.3495 289.51,-68.2962 295.799,-65.6985 414.335,-16.7368 745.497,-51.963 871.799,-29.6985 879.543,-28.3334 887.823,-26.1484 895.241,-23.9137"/>
<polygon fill="red" stroke="red" stroke-width="0.268785" points="896.544,-27.172 905.01,-20.8016 894.419,-20.5023 896.544,-27.172"/>
</g>
<!-- &#45;20 -->
<g id="node20" class="node"><title>&#45;20</title>
<polygon fill="lightgray" stroke="black" points="1872.3,-95.9117 1843.3,-95.9117 1843.3,-77.9117 1872.3,-77.9117 1872.3,-95.9117"/>
<text text-anchor="middle" x="1857.8" y="-84.7117" font-family="Times New Roman,serif" font-size="9.00">&#45;20</text>
</g>
<!-- &#45;20&#45;&gt;1 -->
<g id="edge76" class="edge"><title>&#45;20&#45;&gt;1</title>
<path fill="none" stroke="red" stroke-width="0.170669" d="M1848.88,-77.6996C1843.49,-73.2779 1836.24,-68.2246 1828.8,-65.6985 1664.29,-9.82877 1219.14,-58.4599 1047.8,-29.6985 1040.04,-28.3968 1031.76,-26.2294 1024.34,-23.9913"/>
<polygon fill="red" stroke="red" stroke-width="0.170669" points="1025.17,-20.5805 1014.58,-20.8631 1023.03,-27.2469 1025.17,-20.5805"/>
</g>
<!-- &#45;20&#45;&gt;2 -->
<g id="edge77" class="edge"><title>&#45;20&#45;&gt;2</title>
<path fill="none" stroke="green" stroke-width="0.134369" d="M1848.86,-77.7545C1843.46,-73.351 1836.21,-68.2977 1828.8,-65.6985 1689.27,-16.7753 1212.2,-15.3234 1096.99,-15.7059"/>
<polygon fill="green" stroke="green" stroke-width="0.134369" points="1096.7,-12.207 1086.71,-15.7486 1096.72,-19.207 1096.7,-12.207"/>
</g>
<!-- &#45;20&#45;&gt;3 -->
<g id="edge78" class="edge"><title>&#45;20&#45;&gt;3</title>
<path fill="none" stroke="green" stroke-width="0.448639" d="M1842.81,-79.7522C1830.43,-74.979 1812.29,-68.6907 1795.8,-65.6985 1437.3,-0.633443 1337.63,-80.238 976.799,-29.6985 965.538,-28.1211 953.262,-25.3476 942.916,-22.6949"/>
<polygon fill="green" stroke="green" stroke-width="0.448639" points="943.521,-19.2337 932.956,-20.0293 941.711,-25.9957 943.521,-19.2337"/>
</g>
<!-- &#45;21 -->
<g id="node21" class="node"><title>&#45;21</title>
<polygon fill="lightgray" stroke="black" points="334.299,-95.9117 305.299,-95.9117 305.299,-77.9117 334.299,-77.9117 334.299,-95.9117"/>
<text text-anchor="middle" x="319.799" y="-84.7117" font-family="Times New Roman,serif" font-size="9.00">&#45;21</text>
</g>
<!-- &#45;21&#45;&gt;0 -->
<g id="edge79" class="edge"><title>&#45;21&#45;&gt;0</title>
<path fill="none" stroke="red" stroke-width="0.257509" d="M326.618,-77.8379C330.808,-73.4622 336.558,-68.4089 342.799,-65.6985 430.651,-27.5472 733.567,-18.2426 822.848,-16.3049"/>
<polygon fill="red" stroke="red" stroke-width="0.257509" points="822.947,-19.8037 832.873,-16.0993 822.803,-12.8051 822.947,-19.8037"/>
</g>
<!-- &#45;21&#45;&gt;1 -->
<g id="edge80" class="edge"><title>&#45;21&#45;&gt;1</title>
<path fill="none" stroke="green" stroke-width="0.205932" d="M326.58,-77.7475C330.757,-73.3417 336.507,-68.2884 342.799,-65.6985 466.319,-14.8583 810.67,-49.2842 942.799,-29.6985 954.048,-28.0311 966.322,-25.2448 976.67,-22.6068"/>
<polygon fill="green" stroke="green" stroke-width="0.205932" points="977.865,-25.9111 986.633,-19.9646 976.07,-19.145 977.865,-25.9111"/>
</g>
<!-- &#45;21&#45;&gt;2 -->
<g id="edge81" class="edge"><title>&#45;21&#45;&gt;2</title>
<path fill="none" stroke="red" stroke-width="0.280205" d="M326.573,-77.7305C330.748,-73.319 336.498,-68.2657 342.799,-65.6985 483.35,-8.4386 875.211,-55.3217 1024.8,-29.6985 1032.55,-28.3709 1040.83,-26.1964 1048.25,-23.9596"/>
<polygon fill="red" stroke="red" stroke-width="0.280205" points="1049.56,-27.2163 1058.02,-20.838 1047.43,-20.5486 1049.56,-27.2163"/>
</g>
<!-- &#45;21&#45;&gt;3 -->
<g id="edge82" class="edge"><title>&#45;21&#45;&gt;3</title>
<path fill="none" stroke="red" stroke-width="0.513388" d="M326.588,-77.7664C330.767,-73.3669 336.517,-68.3136 342.799,-65.6985 451.577,-20.4148 755.818,-50.4744 871.799,-29.6985 879.539,-28.312 887.818,-26.1211 895.237,-23.8875"/>
<polygon fill="red" stroke="red" stroke-width="0.513388" points="896.537,-27.1467 905.006,-20.7809 894.416,-20.4759 896.537,-27.1467"/>
</g>
<!-- &#45;22 -->
<g id="node22" class="node"><title>&#45;22</title>
<polygon fill="lightgray" stroke="black" points="381.299,-95.9117 352.299,-95.9117 352.299,-77.9117 381.299,-77.9117 381.299,-95.9117"/>
<text text-anchor="middle" x="366.799" y="-84.7117" font-family="Times New Roman,serif" font-size="9.00">&#45;22</text>
</g>
<!-- &#45;22&#45;&gt;0 -->
<g id="edge83" class="edge"><title>&#45;22&#45;&gt;0</title>
<path fill="none" stroke="green" stroke-width="0.268169" d="M373.629,-77.8613C377.822,-73.4934 383.572,-68.4401 389.799,-65.6985 468.615,-31.0009 738.884,-19.4052 822.764,-16.5967"/>
<polygon fill="green" stroke="green" stroke-width="0.268169" points="823.019,-20.0904 832.901,-16.2702 822.793,-13.094 823.019,-20.0904"/>
</g>
<!-- &#45;22&#45;&gt;1 -->
<g id="edge84" class="edge"><title>&#45;22&#45;&gt;1</title>
<path fill="none" stroke="red" stroke-width="0.448593" d="M373.585,-77.7595C377.764,-73.3576 383.514,-68.3043 389.799,-65.6985 503.56,-18.5368 821.028,-48.065 942.799,-29.6985 954.044,-28.0025 966.317,-25.2122 976.666,-22.5789"/>
<polygon fill="red" stroke="red" stroke-width="0.448593" points="977.857,-25.8842 986.63,-19.944 976.068,-19.1168 977.857,-25.8842"/>
</g>
<!-- &#45;22&#45;&gt;2 -->
<g id="edge85" class="edge"><title>&#45;22&#45;&gt;2</title>
<path fill="none" stroke="green" stroke-width="0.203226" d="M373.577,-77.7397C377.753,-73.3313 383.503,-68.278 389.799,-65.6985 520.587,-12.1185 885.537,-53.8323 1024.8,-29.6985 1032.55,-28.3558 1040.83,-26.1771 1048.25,-23.9411"/>
<polygon fill="green" stroke="green" stroke-width="0.203226" points="1049.55,-27.1985 1058.01,-20.8234 1047.42,-20.53 1049.55,-27.1985"/>
</g>
<!-- &#45;22&#45;&gt;3 -->
<g id="edge86" class="edge"><title>&#45;22&#45;&gt;3</title>
<path fill="none" stroke="green" stroke-width="0.80668" d="M373.594,-77.7819C377.776,-73.3876 383.526,-68.3343 389.799,-65.6985 488.823,-24.0916 766.136,-48.9863 871.799,-29.6985 879.535,-28.2864 887.812,-26.0885 895.231,-23.8562"/>
<polygon fill="green" stroke="green" stroke-width="0.80668" points="896.528,-27.1165 905.002,-20.7561 894.411,-20.4443 896.528,-27.1165"/>
</g>
<!-- &#45;23 -->
<g id="node23" class="node"><title>&#45;23</title>
<polygon fill="lightgray" stroke="black" points="428.299,-95.9117 399.299,-95.9117 399.299,-77.9117 428.299,-77.9117 428.299,-95.9117"/>
<text text-anchor="middle" x="413.799" y="-84.7117" font-family="Times New Roman,serif" font-size="9.00">&#45;23</text>
</g>
<!-- &#45;23&#45;&gt;0 -->
<g id="edge87" class="edge"><title>&#45;23&#45;&gt;0</title>
<path fill="none" stroke="red" stroke-width="0.395406" d="M420.641,-77.89C424.839,-73.5316 430.589,-68.4783 436.799,-65.6985 506.52,-34.4921 743.784,-20.7418 822.321,-16.973"/>
<polygon fill="red" stroke="red" stroke-width="0.395406" points="822.892,-20.4503 832.718,-16.4885 822.566,-13.4579 822.892,-20.4503"/>
</g>
<!-- &#45;23&#45;&gt;1 -->
<g id="edge88" class="edge"><title>&#45;23&#45;&gt;1</title>
<path fill="none" stroke="green" stroke-width="0.110206" d="M420.591,-77.7736C424.771,-73.3765 430.521,-68.3232 436.799,-65.6985 540.803,-22.2143 831.382,-46.8463 942.799,-29.6985 954.039,-27.9687 966.311,-25.1736 976.661,-22.5458"/>
<polygon fill="green" stroke="green" stroke-width="0.110206" points="977.848,-25.8524 986.626,-19.9197 976.065,-19.0835 977.848,-25.8524"/>
</g>
<!-- &#45;23&#45;&gt;2 -->
<g id="edge89" class="edge"><title>&#45;23&#45;&gt;2</title>
<path fill="none" stroke="red" stroke-width="0.346964" d="M420.581,-77.7504C424.759,-73.3455 430.509,-68.2922 436.799,-65.6985 557.827,-15.7976 895.861,-52.3431 1024.8,-29.6985 1032.54,-28.3383 1040.82,-26.1547 1048.24,-23.9197"/>
<polygon fill="red" stroke="red" stroke-width="0.346964" points="1049.55,-27.1778 1058.01,-20.8064 1047.42,-20.5084 1049.55,-27.1778"/>
</g>
<!-- &#45;23&#45;&gt;3 -->
<g id="edge90" class="edge"><title>&#45;23&#45;&gt;3</title>
<path fill="none" stroke="green" stroke-width="0.296487" d="M420.602,-77.8008C424.787,-73.4127 430.537,-68.3594 436.799,-65.6985 615.345,10.1651 681.1,-65.2997 871.799,-29.6985 879.529,-28.2554 887.805,-26.0488 895.224,-23.8182"/>
<polygon fill="green" stroke="green" stroke-width="0.296487" points="896.518,-27.0799 904.996,-20.726 894.406,-20.406 896.518,-27.0799"/>
</g>
<!-- &#45;24 -->
<g id="node24" class="node"><title>&#45;24</title>
<polygon fill="lightgray" stroke="black" points="1829.3,-162.125 1800.3,-162.125 1800.3,-144.125 1829.3,-144.125 1829.3,-162.125"/>
<text text-anchor="middle" x="1814.8" y="-150.925" font-family="Times New Roman,serif" font-size="9.00">&#45;24</text>
</g>
<!-- &#45;24&#45;&gt;0 -->
<g id="edge91" class="edge"><title>&#45;24&#45;&gt;0</title>
<path fill="none" stroke="green" stroke-width="0.458519" d="M1800.06,-149.771C1787.53,-147.877 1769.03,-145.34 1752.8,-144.125 1705.42,-140.58 76.0389,-142.072 42.7993,-108.125 29.607,-94.652 29.8846,-79.4377 42.7993,-65.6985 70.2007,-36.5478 690.427,-19.7121 823.005,-16.4393"/>
<polygon fill="green" stroke="green" stroke-width="0.458519" points="823.094,-19.9383 833.006,-16.1955 822.924,-12.9404 823.094,-19.9383"/>
</g>
<!-- &#45;24&#45;&gt;1 -->
<g id="edge92" class="edge"><title>&#45;24&#45;&gt;1</title>
<path fill="none" stroke="green" stroke-width="0.245623" d="M1815.87,-144.112C1817.68,-126.706 1819.16,-85.4227 1795.8,-65.6985 1732.23,-12.0157 1129.84,-43.5561 1047.8,-29.6985 1040.05,-28.3889 1031.76,-26.2194 1024.35,-23.9817"/>
<polygon fill="green" stroke="green" stroke-width="0.245623" points="1025.17,-20.5708 1014.58,-20.8555 1023.04,-27.2376 1025.17,-20.5708"/>
</g>
<!-- &#45;24&#45;&gt;2 -->
<g id="edge93" class="edge"><title>&#45;24&#45;&gt;2</title>
<path fill="none" stroke="red" stroke-width="0.299531" stroke-dasharray="1,5" d="M1829.36,-150.484C1866.15,-146.008 1961.24,-132.281 1979.8,-108.125 1991.29,-93.1722 1992.76,-79.3924 1979.8,-65.6985 1948.59,-32.7324 1240.4,-18.7625 1096.99,-16.2667"/>
<polygon fill="red" stroke="red" stroke-width="0.299531" points="1096.66,-12.7607 1086.61,-16.089 1096.54,-19.7596 1096.66,-12.7607"/>
</g>
<!-- &#45;24&#45;&gt;3 -->
<g id="edge94" class="edge"><title>&#45;24&#45;&gt;3</title>
<path fill="none" stroke="green" stroke-width="0.187826" d="M1800.06,-149.772C1787.53,-147.879 1769.03,-145.341 1752.8,-144.125 1705.92,-140.612 93.6854,-141.718 60.7993,-108.125 -65.8625,21.2605 693.209,-59.5202 871.799,-29.6985 879.555,-28.4034 887.838,-26.2379 895.256,-23.9994"/>
<polygon fill="green" stroke="green" stroke-width="0.187826" points="896.567,-27.2547 905.021,-20.8695 894.43,-20.5887 896.567,-27.2547"/>
</g>
<!-- 401 -->
<g id="node45" class="node"><title>401</title>
<ellipse fill="white" stroke="black" cx="2047.8" cy="-86.9117" rx="21.4286" ry="21.4286"/>
<text text-anchor="middle" x="2047.8" y="-84.7117" font-family="Times New Roman,serif" font-size="9.00">401</text>
</g>
<!-- &#45;24&#45;&gt;401 -->
<g id="edge160" class="edge"><title>&#45;24&#45;&gt;401</title>
<path fill="none" stroke="green" stroke-width="0.3" d="M1829.66,-150.397C1863.24,-146.157 1947.17,-133.671 2012.8,-108.125 2015.71,-106.991 2018.67,-105.639 2021.58,-104.18"/>
<polygon fill="green" stroke="green" stroke-width="0.3" points="2023.43,-107.157 2030.52,-99.2866 2020.07,-101.016 2023.43,-107.157"/>
</g>
<!-- &#45;25 -->
<g id="node25" class="node"><title>&#45;25</title>
<polygon fill="lightgray" stroke="black" points="475.299,-95.9117 446.299,-95.9117 446.299,-77.9117 475.299,-77.9117 475.299,-95.9117"/>
<text text-anchor="middle" x="460.799" y="-84.7117" font-family="Times New Roman,serif" font-size="9.00">&#45;25</text>
</g>
<!-- &#45;25&#45;&gt;0 -->
<g id="edge95" class="edge"><title>&#45;25&#45;&gt;0</title>
<path fill="none" stroke="green" stroke-width="0.482197" d="M468.056,-77.5163C472.22,-73.2657 477.804,-68.4377 483.799,-65.6985 544.652,-37.897 750.195,-22.1859 822.436,-17.4187"/>
<polygon fill="green" stroke="green" stroke-width="0.482197" points="823.089,-20.8839 832.843,-16.7474 822.638,-13.8985 823.089,-20.8839"/>
</g>
<!-- &#45;25&#45;&gt;1 -->
<g id="edge96" class="edge"><title>&#45;25&#45;&gt;1</title>
<path fill="none" stroke="red" stroke-width="0.410402" d="M467.598,-77.7907C471.781,-73.3993 477.531,-68.346 483.799,-65.6985 578.051,-25.8903 841.734,-45.6282 942.799,-29.6985 954.032,-27.928 966.304,-25.1271 976.655,-22.506"/>
<polygon fill="red" stroke="red" stroke-width="0.410402" points="977.838,-25.8141 986.622,-19.8904 976.061,-19.0434 977.838,-25.8141"/>
</g>
<!-- &#45;25&#45;&gt;2 -->
<g id="edge97" class="edge"><title>&#45;25&#45;&gt;2</title>
<path fill="none" stroke="red" stroke-width="0.110176" d="M467.586,-77.7629C471.765,-73.3621 477.515,-68.3088 483.799,-65.6985 595.069,-19.4759 906.183,-50.8544 1024.8,-29.6985 1032.54,-28.3178 1040.82,-26.1285 1048.24,-23.8946"/>
<polygon fill="red" stroke="red" stroke-width="0.110176" points="1049.54,-27.1536 1058.01,-20.7865 1047.42,-20.4831 1049.54,-27.1536"/>
</g>
<!-- &#45;25&#45;&gt;3 -->
<g id="edge98" class="edge"><title>&#45;25&#45;&gt;3</title>
<path fill="none" stroke="green" stroke-width="0.124971" d="M467.612,-77.8241C471.8,-73.4438 477.55,-68.3905 483.799,-65.6985 642.854,2.81947 701.716,-62.3272 871.799,-29.6985 879.522,-28.217 887.795,-25.9997 895.215,-23.7712"/>
<polygon fill="green" stroke="green" stroke-width="0.124971" points="896.505,-27.0344 904.989,-20.6888 894.399,-20.3585 896.505,-27.0344"/>
</g>
<!-- &#45;26 -->
<g id="node26" class="node"><title>&#45;26</title>
<polygon fill="lightgray" stroke="black" points="522.299,-95.9117 493.299,-95.9117 493.299,-77.9117 522.299,-77.9117 522.299,-95.9117"/>
<text text-anchor="middle" x="507.799" y="-84.7117" font-family="Times New Roman,serif" font-size="9.00">&#45;26</text>
</g>
<!-- &#45;26&#45;&gt;0 -->
<g id="edge99" class="edge"><title>&#45;26&#45;&gt;0</title>
<path fill="none" stroke="red" stroke-width="0.321578" d="M515.078,-77.5637C519.248,-73.327 524.831,-68.4972 530.799,-65.6985 631.077,-18.675 766.782,-14.6235 822.415,-15.1605"/>
<polygon fill="red" stroke="red" stroke-width="0.321578" points="822.681,-18.6651 832.736,-15.3242 822.792,-11.6659 822.681,-18.6651"/>
</g>
<!-- &#45;26&#45;&gt;1 -->
<g id="edge100" class="edge"><title>&#45;26&#45;&gt;1</title>
<path fill="none" stroke="red" stroke-width="0.194468" d="M514.607,-77.8116C518.793,-73.4271 524.543,-68.3738 530.799,-65.6985 699.805,6.56977 761.361,-59.1231 942.799,-29.6985 954.024,-27.8781 966.295,-25.0701 976.647,-22.4572"/>
<polygon fill="red" stroke="red" stroke-width="0.194468" points="977.825,-25.7671 986.616,-19.8545 976.056,-18.9941 977.825,-25.7671"/>
</g>
<!-- &#45;26&#45;&gt;2 -->
<g id="edge101" class="edge"><title>&#45;26&#45;&gt;2</title>
<path fill="none" stroke="red" stroke-width="0.216671" d="M514.593,-77.7777C518.774,-73.3819 524.524,-68.3286 530.799,-65.6985 632.313,-23.153 916.502,-49.3662 1024.8,-29.6985 1032.54,-28.2934 1040.81,-26.0974 1048.23,-23.8647"/>
<polygon fill="red" stroke="red" stroke-width="0.216671" points="1049.53,-27.1248 1058,-20.7629 1047.41,-20.4529 1049.53,-27.1248"/>
</g>
<!-- &#45;26&#45;&gt;3 -->
<g id="edge102" class="edge"><title>&#45;26&#45;&gt;3</title>
<path fill="none" stroke="red" stroke-width="0.397405" d="M514.625,-77.8538C518.817,-73.4834 524.567,-68.4301 530.799,-65.6985 670.378,-4.51971 722.315,-59.3579 871.799,-29.6985 879.512,-28.1681 887.783,-25.9373 895.203,-23.7113"/>
<polygon fill="red" stroke="red" stroke-width="0.397405" points="896.488,-26.9766 904.98,-20.6414 894.39,-20.2981 896.488,-26.9766"/>
</g>
<!-- &#45;27 -->
<g id="node27" class="node"><title>&#45;27</title>
<polygon fill="lightgray" stroke="black" points="569.299,-95.9117 540.299,-95.9117 540.299,-77.9117 569.299,-77.9117 569.299,-95.9117"/>
<text text-anchor="middle" x="554.799" y="-84.7117" font-family="Times New Roman,serif" font-size="9.00">&#45;27</text>
</g>
<!-- &#45;27&#45;&gt;0 -->
<g id="edge103" class="edge"><title>&#45;27&#45;&gt;0</title>
<path fill="none" stroke="green" stroke-width="0.194829" d="M562.108,-77.6268C566.287,-73.4086 571.869,-68.5763 577.799,-65.6985 661.126,-25.2634 773.505,-17.4916 822.832,-16.0941"/>
<polygon fill="green" stroke="green" stroke-width="0.194829" points="822.98,-19.5918 832.902,-15.875 822.828,-12.5934 822.98,-19.5918"/>
</g>
<!-- &#45;27&#45;&gt;1 -->
<g id="edge104" class="edge"><title>&#45;27&#45;&gt;1</title>
<path fill="none" stroke="red" stroke-width="0.693785" d="M561.618,-77.8377C565.808,-73.4619 571.558,-68.4086 577.799,-65.6985 727.321,-0.773014 782.04,-56.6905 942.799,-29.6985 954.014,-27.8155 966.283,-24.9987 976.637,-22.396"/>
<polygon fill="red" stroke="red" stroke-width="0.693785" points="977.808,-25.7082 986.609,-19.8095 976.05,-18.9324 977.808,-25.7082"/>
</g>
<!-- &#45;27&#45;&gt;2 -->
<g id="edge105" class="edge"><title>&#45;27&#45;&gt;2</title>
<path fill="none" stroke="green" stroke-width="0.277531" d="M561.6,-77.7956C565.784,-73.4058 571.534,-68.3525 577.799,-65.6985 761.323,12.0414 828.834,-66.0589 1024.8,-29.6985 1032.53,-28.264 1040.81,-26.0597 1048.23,-23.8287"/>
<polygon fill="green" stroke="green" stroke-width="0.277531" points="1049.52,-27.09 1058,-20.7343 1047.41,-20.4166 1049.52,-27.09"/>
</g>
<!-- &#45;27&#45;&gt;3 -->
<g id="edge106" class="edge"><title>&#45;27&#45;&gt;3</title>
<path fill="none" stroke="green" stroke-width="0.200702" d="M561.642,-77.8926C565.84,-73.5352 571.59,-68.4819 577.799,-65.6985 697.924,-11.8492 742.892,-56.3933 871.799,-29.6985 879.499,-28.1039 887.766,-25.8552 895.187,-23.6327"/>
<polygon fill="green" stroke="green" stroke-width="0.200702" points="896.465,-26.9005 904.967,-20.5791 894.378,-20.2187 896.465,-26.9005"/>
</g>
<!-- &#45;28 -->
<g id="node28" class="node"><title>&#45;28</title>
<polygon fill="lightgray" stroke="black" points="616.299,-95.9117 587.299,-95.9117 587.299,-77.9117 616.299,-77.9117 616.299,-95.9117"/>
<text text-anchor="middle" x="601.799" y="-84.7117" font-family="Times New Roman,serif" font-size="9.00">&#45;28</text>
</g>
<!-- &#45;28&#45;&gt;0 -->
<g id="edge107" class="edge"><title>&#45;28&#45;&gt;0</title>
<path fill="none" stroke="green" stroke-width="0.497439" d="M609.152,-77.7148C613.344,-73.5223 618.924,-68.6865 624.799,-65.6985 691.159,-31.9515 780.063,-20.8938 822.798,-17.395"/>
<polygon fill="green" stroke="green" stroke-width="0.497439" points="823.152,-20.8784 832.863,-16.6432 822.63,-13.8979 823.152,-20.8784"/>
</g>
<!-- &#45;28&#45;&gt;1 -->
<g id="edge108" class="edge"><title>&#45;28&#45;&gt;1</title>
<path fill="none" stroke="red" stroke-width="0.162372" d="M608.633,-77.8714C612.828,-73.5068 618.578,-68.4535 624.799,-65.6985 754.855,-8.10796 802.7,-54.2611 942.799,-29.6985 954,-27.7347 966.267,-24.9064 976.623,-22.317"/>
<polygon fill="red" stroke="red" stroke-width="0.162372" points="977.786,-25.632 986.599,-19.7514 976.042,-18.8526 977.786,-25.632"/>
</g>
<!-- &#45;28&#45;&gt;2 -->
<g id="edge109" class="edge"><title>&#45;28&#45;&gt;2</title>
<path fill="none" stroke="red" stroke-width="0.52478" d="M608.61,-77.8177C612.796,-73.4352 618.546,-68.3819 624.799,-65.6985 788.829,4.69443 849.453,-63.0859 1024.8,-29.6985 1032.52,-28.2277 1040.8,-26.0133 1048.22,-23.7842"/>
<polygon fill="red" stroke="red" stroke-width="0.52478" points="1049.51,-27.047 1057.99,-20.6991 1047.4,-20.3717 1049.51,-27.047"/>
</g>
<!-- &#45;28&#45;&gt;3 -->
<g id="edge110" class="edge"><title>&#45;28&#45;&gt;3</title>
<path fill="none" stroke="red" stroke-width="0.389206" d="M609.065,-77.5369C613.232,-73.2924 618.815,-68.4635 624.799,-65.6985 725.505,-19.1632 763.431,-53.4364 871.799,-29.6985 879.48,-28.0159 887.742,-25.7428 895.164,-23.5249"/>
<polygon fill="red" stroke="red" stroke-width="0.389206" points="896.433,-26.7962 904.949,-20.4937 894.361,-20.1097 896.433,-26.7962"/>
</g>
<!-- &#45;29 -->
<g id="node29" class="node"><title>&#45;29</title>
<polygon fill="lightgray" stroke="black" points="663.299,-95.9117 634.299,-95.9117 634.299,-77.9117 663.299,-77.9117 663.299,-95.9117"/>
<text text-anchor="middle" x="648.799" y="-84.7117" font-family="Times New Roman,serif" font-size="9.00">&#45;29</text>
</g>
<!-- &#45;29&#45;&gt;0 -->
<g id="edge111" class="edge"><title>&#45;29&#45;&gt;0</title>
<path fill="none" stroke="red" stroke-width="0.330923" d="M656.22,-77.8452C660.433,-73.691 666.01,-68.8501 671.799,-65.6985 721.596,-38.591 787.535,-25.0482 822.883,-19.3341"/>
<polygon fill="red" stroke="red" stroke-width="0.330923" points="823.467,-22.7855 832.819,-17.8058 822.403,-15.8668 823.467,-22.7855"/>
</g>
<!-- &#45;29&#45;&gt;1 -->
<g id="edge112" class="edge"><title>&#45;29&#45;&gt;1</title>
<path fill="none" stroke="green" stroke-width="0.176058" d="M656.052,-77.5067C660.214,-73.2532 665.798,-68.4256 671.799,-65.6985 782.416,-15.4308 823.331,-51.837 942.799,-29.6985 953.981,-27.6265 966.245,-24.7829 976.604,-22.2112"/>
<polygon fill="green" stroke="green" stroke-width="0.176058" points="977.756,-25.5299 986.585,-19.6735 976.031,-18.7457 977.756,-25.5299"/>
</g>
<!-- &#45;29&#45;&gt;2 -->
<g id="edge113" class="edge"><title>&#45;29&#45;&gt;2</title>
<path fill="none" stroke="red" stroke-width="0.23212" d="M655.622,-77.8455C659.812,-73.4723 665.562,-68.419 671.799,-65.6985 816.349,-2.64664 870.058,-60.1157 1024.8,-29.6985 1032.51,-28.1818 1040.79,-25.9548 1048.21,-23.7281"/>
<polygon fill="red" stroke="red" stroke-width="0.23212" points="1049.49,-26.9928 1057.98,-20.6546 1047.39,-20.315 1049.49,-26.9928"/>
</g>
<!-- &#45;29&#45;&gt;3 -->
<g id="edge114" class="edge"><title>&#45;29&#45;&gt;3</title>
<path fill="none" stroke="red" stroke-width="0.22607" d="M656.103,-77.6162C660.281,-73.3949 665.862,-68.563 671.799,-65.6985 753.143,-26.4505 783.908,-50.4931 871.799,-29.6985 879.451,-27.888 887.705,-25.5794 895.129,-23.3683"/>
<polygon fill="red" stroke="red" stroke-width="0.22607" points="896.384,-26.6444 904.921,-20.3697 894.334,-19.9512 896.384,-26.6444"/>
</g>
<!-- &#45;30 -->
<g id="node30" class="node"><title>&#45;30</title>
<polygon fill="lightgray" stroke="black" points="710.299,-95.9117 681.299,-95.9117 681.299,-77.9117 710.299,-77.9117 710.299,-95.9117"/>
<text text-anchor="middle" x="695.799" y="-84.7117" font-family="Times New Roman,serif" font-size="9.00">&#45;30</text>
</g>
<!-- &#45;30&#45;&gt;0 -->
<g id="edge115" class="edge"><title>&#45;30&#45;&gt;0</title>
<path fill="none" stroke="red" stroke-width="0.166237" d="M703.757,-77.6583C707.949,-73.6529 713.344,-69.0049 718.799,-65.6985 752.878,-45.0444 796.989,-30.2188 823.801,-22.3454"/>
<polygon fill="red" stroke="red" stroke-width="0.166237" points="824.843,-25.6879 833.5,-19.5801 822.924,-18.9562 824.843,-25.6879"/>
</g>
<!-- &#45;30&#45;&gt;1 -->
<g id="edge116" class="edge"><title>&#45;30&#45;&gt;1</title>
<path fill="none" stroke="red" stroke-width="0.26329" d="M703.082,-77.5718C707.253,-73.3374 712.836,-68.5072 718.799,-65.6985 810.021,-22.7338 843.914,-49.4216 942.799,-29.6985 953.951,-27.4742 966.211,-24.6089 976.575,-22.0623"/>
<polygon fill="red" stroke="red" stroke-width="0.26329" points="977.712,-25.3859 986.564,-19.5639 976.013,-18.5951 977.712,-25.3859"/>
</g>
<!-- &#45;30&#45;&gt;2 -->
<g id="edge117" class="edge"><title>&#45;30&#45;&gt;2</title>
<path fill="none" stroke="green" stroke-width="0.420465" d="M702.638,-77.8816C706.834,-73.5205 712.584,-68.4672 718.799,-65.6985 843.889,-9.979 890.641,-57.1497 1024.8,-29.6985 1032.5,-28.1222 1040.77,-25.8785 1048.19,-23.655"/>
<polygon fill="green" stroke="green" stroke-width="0.420465" points="1049.47,-26.9221 1057.97,-20.5968 1047.38,-20.2412 1049.47,-26.9221"/>
</g>
<!-- &#45;30&#45;&gt;3 -->
<g id="edge118" class="edge"><title>&#45;30&#45;&gt;3</title>
<path fill="none" stroke="red" stroke-width="0.12349" d="M703.165,-77.7409C707.361,-73.5561 712.94,-68.7193 718.799,-65.6985 780.889,-33.6853 804.269,-47.5779 871.799,-29.6985 879.401,-27.6859 887.64,-25.3211 895.067,-23.1208"/>
<polygon fill="red" stroke="red" stroke-width="0.12349" points="896.302,-26.4041 904.872,-20.1737 894.287,-19.7004 896.302,-26.4041"/>
</g>
<!-- &#45;31 -->
<g id="node31" class="node"><title>&#45;31</title>
<polygon fill="lightgray" stroke="black" points="757.299,-95.9117 728.299,-95.9117 728.299,-77.9117 757.299,-77.9117 757.299,-95.9117"/>
<text text-anchor="middle" x="742.799" y="-84.7117" font-family="Times New Roman,serif" font-size="9.00">&#45;31</text>
</g>
<!-- &#45;31&#45;&gt;0 -->
<g id="edge119" class="edge"><title>&#45;31&#45;&gt;0</title>
<path fill="none" stroke="green" stroke-width="0.194844" d="M751.453,-77.6637C755.641,-73.8419 760.83,-69.3494 765.799,-65.6985 785.328,-51.3512 809.137,-37.215 826.058,-27.6816"/>
<polygon fill="green" stroke="green" stroke-width="0.194844" points="828.1,-30.5509 835.14,-22.6335 824.699,-24.4325 828.1,-30.5509"/>
</g>
<!-- &#45;31&#45;&gt;1 -->
<g id="edge120" class="edge"><title>&#45;31&#45;&gt;1</title>
<path fill="none" stroke="red" stroke-width="0.279219" d="M750.129,-77.6695C754.314,-73.4638 759.895,-68.6298 765.799,-65.6985 837.703,-30.0002 864.414,-47.0232 942.799,-29.6985 953.903,-27.2444 966.156,-24.3465 976.528,-21.8375"/>
<polygon fill="red" stroke="red" stroke-width="0.279219" points="977.643,-25.1683 986.529,-19.3986 975.984,-18.3677 977.643,-25.1683"/>
</g>
<!-- &#45;31&#45;&gt;2 -->
<g id="edge121" class="edge"><title>&#45;31&#45;&gt;2</title>
<path fill="none" stroke="green" stroke-width="0.213628" d="M750.058,-77.5211C754.223,-73.2719 759.806,-68.4437 765.799,-65.6985 871.459,-17.2978 911.192,-54.1903 1024.8,-29.6985 1032.49,-28.0414 1040.75,-25.7753 1048.17,-23.5561"/>
<polygon fill="green" stroke="green" stroke-width="0.213628" points="1049.44,-26.8264 1057.95,-20.5184 1047.37,-20.1412 1049.44,-26.8264"/>
</g>
<!-- &#45;31&#45;&gt;3 -->
<g id="edge122" class="edge"><title>&#45;31&#45;&gt;3</title>
<path fill="none" stroke="red" stroke-width="0.317468" d="M750.683,-77.5331C754.857,-73.4958 760.257,-68.857 765.799,-65.6985 777.246,-59.1751 854.902,-35.1976 894.974,-23.0315"/>
<polygon fill="red" stroke="red" stroke-width="0.317468" points="896.186,-26.3216 904.743,-20.0738 894.157,-19.6219 896.186,-26.3216"/>
</g>
<!-- &#45;32 -->
<g id="node32" class="node"><title>&#45;32</title>
<polygon fill="lightgray" stroke="black" points="804.299,-95.9117 775.299,-95.9117 775.299,-77.9117 804.299,-77.9117 804.299,-95.9117"/>
<text text-anchor="middle" x="789.799" y="-84.7117" font-family="Times New Roman,serif" font-size="9.00">&#45;32</text>
</g>
<!-- &#45;32&#45;&gt;0 -->
<g id="edge123" class="edge"><title>&#45;32&#45;&gt;0</title>
<path fill="none" stroke="green" stroke-width="0.179363" d="M796.453,-77.8746C805.028,-67.5161 820.217,-49.1677 831.858,-35.1057"/>
<polygon fill="green" stroke="green" stroke-width="0.179363" points="834.876,-36.9487 838.557,-27.0138 829.484,-32.4849 834.876,-36.9487"/>
</g>
<!-- &#45;32&#45;&gt;1 -->
<g id="edge124" class="edge"><title>&#45;32&#45;&gt;1</title>
<path fill="none" stroke="red" stroke-width="0.156959" stroke-dasharray="1,5" d="M797.199,-77.8063C801.405,-73.6407 806.983,-68.8013 812.799,-65.6985 827.375,-57.9222 929.53,-32.904 976.847,-21.5494"/>
<polygon fill="red" stroke="red" stroke-width="0.156959" points="977.668,-24.9516 986.58,-19.2209 976.04,-18.1437 977.668,-24.9516"/>
</g>
<!-- &#45;32&#45;&gt;2 -->
<g id="edge125" class="edge"><title>&#45;32&#45;&gt;2</title>
<path fill="none" stroke="red" stroke-width="0.291751" d="M797.092,-77.5928C801.266,-73.3646 806.848,-68.5336 812.799,-65.6985 899.079,-24.5935 931.688,-51.2427 1024.8,-29.6985 1032.46,-27.9259 1040.72,-25.6277 1048.14,-23.4146"/>
<polygon fill="red" stroke="red" stroke-width="0.291751" points="1049.4,-26.6894 1057.93,-20.4064 1047.34,-19.9982 1049.4,-26.6894"/>
</g>
<!-- &#45;32&#45;&gt;3 -->
<g id="edge126" class="edge"><title>&#45;32&#45;&gt;3</title>
<path fill="none" stroke="green" stroke-width="0.215601" d="M797.859,-77.8201C802.077,-73.8559 807.464,-69.196 812.799,-65.6985 839.521,-48.1804 873.37,-33.3884 895.532,-24.5749"/>
<polygon fill="green" stroke="green" stroke-width="0.215601" points="897.057,-27.7374 905.108,-20.8502 894.519,-21.2135 897.057,-27.7374"/>
</g>
<!-- &#45;33 -->
<g id="node33" class="node"><title>&#45;33</title>
<polygon fill="lightgray" stroke="black" points="851.299,-95.9117 822.299,-95.9117 822.299,-77.9117 851.299,-77.9117 851.299,-95.9117"/>
<text text-anchor="middle" x="836.799" y="-84.7117" font-family="Times New Roman,serif" font-size="9.00">&#45;33</text>
</g>
<!-- &#45;33&#45;&gt;0 -->
<g id="edge127" class="edge"><title>&#45;33&#45;&gt;0</title>
<path fill="none" stroke="red" stroke-width="0.4526" d="M838.061,-77.8746C839.522,-68.572 841.994,-52.8252 844.082,-39.5264"/>
<polygon fill="red" stroke="red" stroke-width="0.4526" points="847.554,-39.9774 845.647,-29.5556 840.639,-38.8917 847.554,-39.9774"/>
</g>
<!-- &#45;33&#45;&gt;1 -->
<g id="edge128" class="edge"><title>&#45;33&#45;&gt;1</title>
<path fill="none" stroke="red" stroke-width="0.312959" d="M844.717,-77.5912C848.899,-73.5687 854.297,-68.9256 859.799,-65.6985 897.898,-43.3548 947.622,-28.6947 976.7,-21.3726"/>
<polygon fill="red" stroke="red" stroke-width="0.312959" points="977.53,-24.7727 986.419,-19.0063 975.874,-17.9713 977.53,-24.7727"/>
</g>
<!-- &#45;33&#45;&gt;2 -->
<g id="edge129" class="edge"><title>&#45;33&#45;&gt;2</title>
<path fill="none" stroke="green" stroke-width="0.505658" d="M844.146,-77.7028C848.336,-73.5068 853.916,-68.6715 859.799,-65.6985 926.79,-31.8457 952.087,-48.3181 1024.8,-29.6985 1032.42,-27.7479 1040.66,-25.4002 1048.09,-23.1966"/>
<polygon fill="green" stroke="green" stroke-width="0.505658" points="1049.33,-26.4778 1057.89,-20.2338 1047.3,-19.7773 1049.33,-26.4778"/>
</g>
<!-- &#45;33&#45;&gt;3 -->
<g id="edge130" class="edge"><title>&#45;33&#45;&gt;3</title>
<path fill="none" stroke="red" stroke-width="0.457345" d="M846.163,-77.6092C850.323,-73.9399 855.289,-69.5851 859.799,-65.6985 873.205,-54.1463 888.468,-41.2574 900.111,-31.4799"/>
<polygon fill="red" stroke="red" stroke-width="0.457345" points="902.457,-34.0807 907.871,-24.9738 897.96,-28.7166 902.457,-34.0807"/>
</g>
<!-- &#45;34 -->
<g id="node34" class="node"><title>&#45;34</title>
<polygon fill="lightgray" stroke="black" points="898.299,-95.9117 869.299,-95.9117 869.299,-77.9117 898.299,-77.9117 898.299,-95.9117"/>
<text text-anchor="middle" x="883.799" y="-84.7117" font-family="Times New Roman,serif" font-size="9.00">&#45;34</text>
</g>
<!-- &#45;34&#45;&gt;0 -->
<g id="edge131" class="edge"><title>&#45;34&#45;&gt;0</title>
<path fill="none" stroke="red" stroke-width="0.281024" d="M879.67,-77.8746C874.646,-68.0985 865.966,-51.2057 858.932,-37.5161"/>
<polygon fill="red" stroke="red" stroke-width="0.281024" points="861.86,-35.5565 854.177,-28.2615 855.634,-38.7557 861.86,-35.5565"/>
</g>
<!-- &#45;34&#45;&gt;1 -->
<g id="edge132" class="edge"><title>&#45;34&#45;&gt;1</title>
<path fill="none" stroke="red" stroke-width="0.467054" d="M892.359,-77.5316C896.527,-73.6809 901.725,-69.2022 906.799,-65.6985 929.84,-49.7894 958.551,-35.2435 978.14,-26.024"/>
<polygon fill="red" stroke="red" stroke-width="0.467054" points="979.865,-29.0824 987.473,-21.7093 976.928,-22.7285 979.865,-29.0824"/>
</g>
<!-- &#45;34&#45;&gt;2 -->
<g id="edge133" class="edge"><title>&#45;34&#45;&gt;2</title>
<path fill="none" stroke="green" stroke-width="0.319401" d="M891.242,-77.8853C895.461,-73.7428 901.037,-68.9003 906.799,-65.6985 909.97,-63.9365 1003.04,-36.2314 1047.98,-22.9046"/>
<polygon fill="green" stroke="green" stroke-width="0.319401" points="1049.19,-26.1953 1057.78,-19.9975 1047.2,-19.4839 1049.19,-26.1953"/>
</g>
<!-- &#45;34&#45;&gt;3 -->
<g id="edge134" class="edge"><title>&#45;34&#45;&gt;3</title>
<path fill="none" stroke="red" stroke-width="0.363514" d="M887.814,-77.8746C892.669,-68.1564 901.037,-51.4054 907.854,-37.7594"/>
<polygon fill="red" stroke="red" stroke-width="0.363514" points="911.133,-39.0268 912.471,-28.5167 904.871,-35.8985 911.133,-39.0268"/>
</g>
<!-- &#45;35 -->
<g id="node35" class="node"><title>&#45;35</title>
<polygon fill="lightgray" stroke="black" points="945.299,-95.9117 916.299,-95.9117 916.299,-77.9117 945.299,-77.9117 945.299,-95.9117"/>
<text text-anchor="middle" x="930.799" y="-84.7117" font-family="Times New Roman,serif" font-size="9.00">&#45;35</text>
</g>
<!-- &#45;35&#45;&gt;0 -->
<g id="edge135" class="edge"><title>&#45;35&#45;&gt;0</title>
<path fill="none" stroke="red" stroke-width="0.532541" d="M921.278,-77.8746C907.958,-66.631 883.487,-45.9737 866.462,-31.6025"/>
<polygon fill="red" stroke="red" stroke-width="0.532541" points="868.683,-28.8972 858.784,-25.1214 864.167,-34.2463 868.683,-28.8972"/>
</g>
<!-- &#45;35&#45;&gt;1 -->
<g id="edge136" class="edge"><title>&#45;35&#45;&gt;1</title>
<path fill="none" stroke="green" stroke-width="0.201432" d="M938.829,-77.8746C949.616,-67.0781 969.075,-47.6015 983.319,-33.3456"/>
<polygon fill="green" stroke="green" stroke-width="0.201432" points="986.015,-35.599 990.607,-26.051 981.063,-30.6514 986.015,-35.599"/>
</g>
<!-- &#45;35&#45;&gt;2 -->
<g id="edge137" class="edge"><title>&#45;35&#45;&gt;2</title>
<path fill="none" stroke="green" stroke-width="0.23873" d="M938.801,-77.7294C943.004,-73.7422 948.396,-69.0889 953.799,-65.6985 984.293,-46.5652 1023.4,-31.6974 1048.04,-23.3508"/>
<polygon fill="green" stroke="green" stroke-width="0.23873" points="1049.25,-26.6383 1057.65,-20.1796 1047.05,-19.9912 1049.25,-26.6383"/>
</g>
<!-- &#45;35&#45;&gt;3 -->
<g id="edge138" class="edge"><title>&#45;35&#45;&gt;3</title>
<path fill="none" stroke="green" stroke-width="0.266473" stroke-dasharray="1,5" d="M929.423,-77.8746C927.829,-68.572 925.132,-52.8252 922.855,-39.5264"/>
<polygon fill="green" stroke="green" stroke-width="0.266473" points="926.285,-38.8212 921.147,-29.5556 919.385,-40.0029 926.285,-38.8212"/>
</g>
<!-- &#45;36 -->
<g id="node36" class="node"><title>&#45;36</title>
<polygon fill="lightgray" stroke="black" points="992.299,-95.9117 963.299,-95.9117 963.299,-77.9117 992.299,-77.9117 992.299,-95.9117"/>
<text text-anchor="middle" x="977.799" y="-84.7117" font-family="Times New Roman,serif" font-size="9.00">&#45;36</text>
</g>
<!-- &#45;36&#45;&gt;0 -->
<g id="edge139" class="edge"><title>&#45;36&#45;&gt;0</title>
<path fill="none" stroke="green" stroke-width="0.227268" d="M969.336,-77.8445C964.921,-73.8866 959.304,-69.2248 953.799,-65.6985 926.895,-48.4625 893.088,-33.6063 870.985,-24.7011"/>
<polygon fill="green" stroke="green" stroke-width="0.227268" points="872.024,-21.3488 861.438,-20.9322 869.454,-27.8598 872.024,-21.3488"/>
</g>
<!-- &#45;36&#45;&gt;1 -->
<g id="edge140" class="edge"><title>&#45;36&#45;&gt;1</title>
<path fill="none" stroke="green" stroke-width="0.300961" d="M980.438,-77.8746C983.541,-68.4226 988.827,-52.3178 993.236,-38.8876"/>
<polygon fill="green" stroke="green" stroke-width="0.300961" points="996.592,-39.886 996.386,-29.2932 989.941,-37.7027 996.592,-39.886"/>
</g>
<!-- &#45;36&#45;&gt;2 -->
<g id="edge141" class="edge"><title>&#45;36&#45;&gt;2</title>
<path fill="none" stroke="green" stroke-width="0.596568" d="M986.563,-77.8088C990.776,-74.0188 995.953,-69.5112 1000.8,-65.6985 1017.21,-52.7888 1036.67,-39.2424 1051.06,-29.5348"/>
<polygon fill="green" stroke="green" stroke-width="0.596568" points="1053.34,-32.2232 1059.7,-23.7551 1049.45,-26.4042 1053.34,-32.2232"/>
</g>
<!-- &#45;36&#45;&gt;3 -->
<g id="edge142" class="edge"><title>&#45;36&#45;&gt;3</title>
<path fill="none" stroke="red" stroke-width="0.169413" d="M971.031,-77.8746C962.226,-67.4184 946.565,-48.8208 934.681,-34.7089"/>
<polygon fill="red" stroke="red" stroke-width="0.169413" points="937.32,-32.4084 928.201,-27.0138 931.965,-36.9174 937.32,-32.4084"/>
</g>
<!-- &#45;37 -->
<g id="node37" class="node"><title>&#45;37</title>
<polygon fill="lightgray" stroke="black" points="1039.3,-95.9117 1010.3,-95.9117 1010.3,-77.9117 1039.3,-77.9117 1039.3,-95.9117"/>
<text text-anchor="middle" x="1024.8" y="-84.7117" font-family="Times New Roman,serif" font-size="9.00">&#45;37</text>
</g>
<!-- &#45;37&#45;&gt;0 -->
<g id="edge143" class="edge"><title>&#45;37&#45;&gt;0</title>
<path fill="none" stroke="red" stroke-width="0.569646" d="M1016.51,-77.5485C1012.14,-73.5152 1006.51,-68.8752 1000.8,-65.6985 989.284,-59.2959 911.661,-35.2611 871.61,-23.0566"/>
<polygon fill="red" stroke="red" stroke-width="0.569646" points="872.433,-19.6486 861.847,-20.0891 870.397,-26.3461 872.433,-19.6486"/>
</g>
<!-- &#45;37&#45;&gt;1 -->
<g id="edge144" class="edge"><title>&#45;37&#45;&gt;1</title>
<path fill="none" stroke="green" stroke-width="0.154028" d="M1022.05,-77.8746C1018.79,-68.3653 1013.22,-52.1224 1008.61,-38.6437"/>
<polygon fill="green" stroke="green" stroke-width="0.154028" points="1011.87,-37.3587 1005.32,-29.0326 1005.24,-39.6272 1011.87,-37.3587"/>
</g>
<!-- &#45;37&#45;&gt;2 -->
<g id="edge145" class="edge"><title>&#45;37&#45;&gt;2</title>
<path fill="none" stroke="red" stroke-width="0.133386" d="M1030.19,-77.8746C1036.99,-67.7318 1048.94,-49.9283 1058.29,-35.9895"/>
<polygon fill="red" stroke="red" stroke-width="0.133386" points="1061.31,-37.7615 1063.98,-27.5071 1055.5,-33.8618 1061.31,-37.7615"/>
</g>
<!-- &#45;37&#45;&gt;3 -->
<g id="edge146" class="edge"><title>&#45;37&#45;&gt;3</title>
<path fill="none" stroke="red" stroke-width="0.447866" d="M1015.72,-77.6965C1011.34,-73.8819 1005.93,-69.386 1000.8,-65.6985 981.12,-51.5574 957.332,-37.3931 940.457,-27.7969"/>
<polygon fill="red" stroke="red" stroke-width="0.447866" points="941.836,-24.5571 931.403,-22.7095 938.406,-30.6596 941.836,-24.5571"/>
</g>
<!-- &#45;38 -->
<g id="node38" class="node"><title>&#45;38</title>
<polygon fill="lightgray" stroke="black" points="1086.3,-95.9117 1057.3,-95.9117 1057.3,-77.9117 1086.3,-77.9117 1086.3,-95.9117"/>
<text text-anchor="middle" x="1071.8" y="-84.7117" font-family="Times New Roman,serif" font-size="9.00">&#45;38</text>
</g>
<!-- &#45;38&#45;&gt;0 -->
<g id="edge147" class="edge"><title>&#45;38&#45;&gt;0</title>
<path fill="none" stroke="red" stroke-width="0.202661" d="M1064.44,-77.7375C1060.24,-73.5517 1054.66,-68.715 1048.8,-65.6985 986.301,-33.5323 962.761,-47.6394 894.799,-29.6985 887.196,-27.6914 878.956,-25.3281 871.53,-23.1275"/>
<polygon fill="red" stroke="red" stroke-width="0.202661" points="872.31,-19.7072 861.726,-20.179 870.294,-26.4107 872.31,-19.7072"/>
</g>
<!-- &#45;38&#45;&gt;1 -->
<g id="edge148" class="edge"><title>&#45;38&#45;&gt;1</title>
<path fill="none" stroke="green" stroke-width="0.192542" d="M1063.65,-77.8746C1052.71,-67.0781 1032.98,-47.6015 1018.53,-33.3456"/>
<polygon fill="green" stroke="green" stroke-width="0.192542" points="1020.71,-30.5836 1011.14,-26.051 1015.8,-35.5662 1020.71,-30.5836"/>
</g>
<!-- &#45;38&#45;&gt;2 -->
<g id="edge149" class="edge"><title>&#45;38&#45;&gt;2</title>
<path fill="none" stroke="green" stroke-width="0.177048" d="M1071.8,-77.8746C1071.8,-68.7202 1071.8,-53.3256 1071.8,-40.1641"/>
<polygon fill="green" stroke="green" stroke-width="0.177048" points="1075.3,-39.8196 1071.8,-29.8197 1068.3,-39.8197 1075.3,-39.8196"/>
</g>
<!-- &#45;38&#45;&gt;3 -->
<g id="edge150" class="edge"><title>&#45;38&#45;&gt;3</title>
<path fill="none" stroke="red" stroke-width="0.481214" stroke-dasharray="1,5" d="M1063.85,-77.6523C1059.65,-73.6454 1054.26,-68.9978 1048.8,-65.6985 1014.46,-44.9495 970.008,-30.152 942.986,-22.3102"/>
<polygon fill="red" stroke="red" stroke-width="0.481214" points="943.785,-18.8992 933.211,-19.5574 941.888,-25.6371 943.785,-18.8992"/>
</g>
<!-- &#45;39 -->
<g id="node39" class="node"><title>&#45;39</title>
<polygon fill="lightgray" stroke="black" points="1786.3,-95.9117 1757.3,-95.9117 1757.3,-77.9117 1786.3,-77.9117 1786.3,-95.9117"/>
<text text-anchor="middle" x="1771.8" y="-84.7117" font-family="Times New Roman,serif" font-size="9.00">&#45;39</text>
</g>
<!-- &#45;39&#45;&gt;1 -->
<g id="edge151" class="edge"><title>&#45;39&#45;&gt;1</title>
<path fill="none" stroke="green" stroke-width="0.441908" d="M1762.87,-77.7155C1757.48,-73.299 1750.23,-68.2457 1742.8,-65.6985 1596.5,-15.5506 1200.24,-55.7338 1047.8,-29.6985 1040.05,-28.3747 1031.77,-26.2012 1024.35,-23.9643"/>
<polygon fill="green" stroke="green" stroke-width="0.441908" points="1025.17,-20.5533 1014.58,-20.8417 1023.04,-27.2208 1025.17,-20.5533"/>
</g>
<!-- &#45;39&#45;&gt;2 -->
<g id="edge152" class="edge"><title>&#45;39&#45;&gt;2</title>
<path fill="none" stroke="red" stroke-width="0.319901" d="M1762.85,-77.7778C1757.45,-73.3821 1750.2,-68.3288 1742.8,-65.6985 1620.28,-22.1605 1203.42,-16.6476 1096.8,-15.9501"/>
<polygon fill="red" stroke="red" stroke-width="0.319901" points="1096.69,-12.4496 1086.67,-15.8927 1096.65,-19.4494 1096.69,-12.4496"/>
</g>
<!-- &#45;39&#45;&gt;3 -->
<g id="edge153" class="edge"><title>&#45;39&#45;&gt;3</title>
<path fill="none" stroke="red" stroke-width="0.353904" d="M1756.8,-79.7748C1744.43,-75.0148 1726.28,-68.7331 1709.8,-65.6985 1389.02,-6.62616 1299.7,-75.7728 976.799,-29.6985 965.542,-28.0922 953.267,-25.3146 942.92,-22.6666"/>
<polygon fill="red" stroke="red" stroke-width="0.353904" points="943.523,-19.2052 932.959,-20.0085 941.718,-25.9685 943.523,-19.2052"/>
</g>
<!-- &#45;40 -->
<g id="node40" class="node"><title>&#45;40</title>
<polygon fill="lightgray" stroke="black" points="1133.3,-95.9117 1104.3,-95.9117 1104.3,-77.9117 1133.3,-77.9117 1133.3,-95.9117"/>
<text text-anchor="middle" x="1118.8" y="-84.7117" font-family="Times New Roman,serif" font-size="9.00">&#45;40</text>
</g>
<!-- &#45;40&#45;&gt;0 -->
<g id="edge154" class="edge"><title>&#45;40&#45;&gt;0</title>
<path fill="none" stroke="red" stroke-width="0.241435" d="M1111.5,-77.6142C1107.32,-73.3922 1101.74,-68.5604 1095.8,-65.6985 1014.04,-26.2959 983.125,-50.5555 894.799,-29.6985 887.146,-27.8914 878.892,-25.5836 871.469,-23.3724"/>
<polygon fill="red" stroke="red" stroke-width="0.241435" points="872.264,-19.9554 861.677,-20.3729 870.213,-26.6484 872.264,-19.9554"/>
</g>
<!-- &#45;40&#45;&gt;1 -->
<g id="edge155" class="edge"><title>&#45;40&#45;&gt;1</title>
<path fill="none" stroke="green" stroke-width="0.17991" d="M1110.25,-77.5217C1106.08,-73.6688 1100.88,-69.1911 1095.8,-65.6985 1072.42,-49.6345 1043.25,-35.0438 1023.44,-25.8572"/>
<polygon fill="green" stroke="green" stroke-width="0.17991" points="1024.82,-22.643 1014.27,-21.6827 1021.92,-29.0132 1024.82,-22.643"/>
</g>
<!-- &#45;40&#45;&gt;2 -->
<g id="edge156" class="edge"><title>&#45;40&#45;&gt;2</title>
<path fill="none" stroke="red" stroke-width="0.349696" d="M1113.41,-77.8746C1106.6,-67.7318 1094.66,-49.9283 1085.31,-35.9895"/>
<polygon fill="red" stroke="red" stroke-width="0.349696" points="1088.1,-33.8618 1079.62,-27.5071 1082.28,-37.7615 1088.1,-33.8618"/>
</g>
<!-- &#45;40&#45;&gt;3 -->
<g id="edge157" class="edge"><title>&#45;40&#45;&gt;3</title>
<path fill="none" stroke="green" stroke-width="0.318985" d="M1111.38,-77.8418C1107.17,-73.6865 1101.59,-68.8458 1095.8,-65.6985 1082.23,-58.3253 988.061,-33.621 942.88,-21.9958"/>
<polygon fill="green" stroke="green" stroke-width="0.318985" points="943.581,-18.5624 933.025,-19.4677 941.841,-25.3428 943.581,-18.5624"/>
</g>
<!-- 401&#45;&gt;2 -->
<g id="edge161" class="edge"><title>401&#45;&gt;2</title>
<path fill="none" stroke="red" stroke-width="0.299531" d="M2030.73,-73.9138C2025.25,-70.6609 2018.99,-67.5341 2012.8,-65.6985 1834.11,-12.7003 1228.02,-14.5546 1096.93,-15.6027"/>
<polygon fill="red" stroke="red" stroke-width="0.299531" points="1096.67,-12.1047 1086.7,-15.6909 1096.73,-19.1044 1096.67,-12.1047"/>
</g>
<!-- 181&#45;&gt;2 -->
<g id="edge159" class="edge"><title>181&#45;&gt;2</title>
<path fill="none" stroke="green" stroke-width="0.1049" d="M1932.72,-73.9372C1927.24,-70.6853 1920.98,-67.5531 1914.8,-65.6985 1755.98,-18.0638 1219.71,-15.689 1096.97,-15.7819"/>
<polygon fill="green" stroke="green" stroke-width="0.1049" points="1096.7,-12.2822 1086.71,-15.7965 1096.71,-19.2822 1096.7,-12.2822"/>
</g>
</g>
</svg>
