<?xml version="1.0" encoding="UTF-8" standalone="no"?>
<!DOCTYPE svg PUBLIC "-//W3C//DTD SVG 1.1//EN"
 "http://www.w3.org/Graphics/SVG/1.1/DTD/svg11.dtd">
<!-- Generated by graphviz version 2.38.0 (20140413.2041)
 -->
<!-- Title: %3 Pages: 1 -->
<svg width="2133pt" height="170pt"
 viewBox="0.00 0.00 2133.12 170.12" xmlns="http://www.w3.org/2000/svg" xmlns:xlink="http://www.w3.org/1999/xlink">
<g id="graph0" class="graph" transform="scale(1 1) rotate(0) translate(4 166.125)">
<title>%3</title>
<polygon fill="white" stroke="none" points="-4,4 -4,-166.125 2129.12,-166.125 2129.12,4 -4,4"/>
<!-- &#45;1 -->
<g id="node1" class="node"><title>&#45;1</title>
<polygon fill="lightgray" stroke="black" points="1855.9,-95.9117 1831.9,-95.9117 1831.9,-77.9117 1855.9,-77.9117 1855.9,-95.9117"/>
<text text-anchor="middle" x="1843.9" y="-84.7117" font-family="Times New Roman,serif" font-size="9.00">&#45;1</text>
</g>
<!-- 0 -->
<g id="node41" class="node"><title>0</title>
<ellipse fill="lightblue" stroke="black" cx="928.902" cy="-14.8492" rx="14.7" ry="14.7"/>
<text text-anchor="middle" x="928.902" y="-12.6492" font-family="Times New Roman,serif" font-size="9.00">0</text>
</g>
<!-- &#45;1&#45;&gt;0 -->
<g id="edge1" class="edge"><title>&#45;1&#45;&gt;0</title>
<path fill="none" stroke="red" stroke-width="0.15482" d="M1831.53,-80.5033C1819.78,-75.6532 1801.5,-68.833 1784.9,-65.6985 1603.05,-31.3563 1130.59,-81.4295 952.902,-29.6985 951.84,-29.3892 950.775,-29.0237 949.716,-28.6146"/>
<polygon fill="red" stroke="red" stroke-width="0.15482" points="951.114,-25.401 940.6,-24.095 948.004,-31.6726 951.114,-25.401"/>
</g>
<!-- 2 -->
<g id="node43" class="node"><title>2</title>
<ellipse fill="lightblue" stroke="black" cx="1138.9" cy="-14.8492" rx="14.7" ry="14.7"/>
<text text-anchor="middle" x="1138.9" y="-12.6492" font-family="Times New Roman,serif" font-size="9.00">2</text>
</g>
<!-- &#45;1&#45;&gt;2 -->
<g id="edge2" class="edge"><title>&#45;1&#45;&gt;2</title>
<path fill="none" stroke="green" stroke-width="0.233274" d="M1836.03,-77.7748C1831.23,-73.3781 1824.73,-68.3248 1817.9,-65.6985 1695.1,-18.4827 1272.4,-15.6885 1164.26,-15.7626"/>
<polygon fill="green" stroke="green" stroke-width="0.233274" points="1163.98,-12.2629 1153.99,-15.7794 1163.99,-19.2629 1163.98,-12.2629"/>
</g>
<!-- 3 -->
<g id="node44" class="node"><title>3</title>
<ellipse fill="lightblue" stroke="black" cx="1068.9" cy="-14.8492" rx="14.7" ry="14.7"/>
<text text-anchor="middle" x="1068.9" y="-12.6492" font-family="Times New Roman,serif" font-size="9.00">3</text>
</g>
<!-- &#45;1&#45;&gt;3 -->
<g id="edge3" class="edge"><title>&#45;1&#45;&gt;3</title>
<path fill="none" stroke="red" stroke-width="0.254898" d="M1836.05,-77.7181C1831.26,-73.3024 1824.76,-68.2491 1817.9,-65.6985 1671.28,-11.18 1269.03,-56.4409 1114.9,-29.6985 1107.5,-28.4148 1099.62,-26.3211 1092.51,-24.1459"/>
<polygon fill="red" stroke="red" stroke-width="0.254898" points="1093.38,-20.7482 1082.78,-20.9856 1091.21,-27.4053 1093.38,-20.7482"/>
</g>
<!-- &#45;2 -->
<g id="node2" class="node"><title>&#45;2</title>
<polygon fill="lightgray" stroke="black" points="775.902,-95.9117 751.902,-95.9117 751.902,-77.9117 775.902,-77.9117 775.902,-95.9117"/>
<text text-anchor="middle" x="763.902" y="-84.7117" font-family="Times New Roman,serif" font-size="9.00">&#45;2</text>
</g>
<!-- &#45;2&#45;&gt;0 -->
<g id="edge4" class="edge"><title>&#45;2&#45;&gt;0</title>
<path fill="none" stroke="red" stroke-width="0.139231" d="M771.002,-77.5452C774.787,-73.511 779.725,-68.8713 784.902,-65.6985 823.475,-42.0608 874.767,-27.7598 904.576,-20.8689"/>
<polygon fill="red" stroke="red" stroke-width="0.139231" points="905.519,-24.245 914.523,-18.6618 904.002,-17.4112 905.519,-24.245"/>
</g>
<!-- 1 -->
<g id="node42" class="node"><title>1</title>
<ellipse fill="lightblue" stroke="black" cx="976.902" cy="-14.8492" rx="14.7" ry="14.7"/>
<text text-anchor="middle" x="976.902" y="-12.6492" font-family="Times New Roman,serif" font-size="9.00">1</text>
</g>
<!-- &#45;2&#45;&gt;1 -->
<g id="edge5" class="edge"><title>&#45;2&#45;&gt;1</title>
<path fill="none" stroke="green" stroke-width="0.147376" d="M770.476,-77.6812C774.262,-73.4788 779.362,-68.6444 784.902,-65.6985 852.326,-29.8482 881.632,-57.115 952.902,-29.6985 953.767,-29.366 954.637,-29.0052 955.507,-28.6223"/>
<polygon fill="green" stroke="green" stroke-width="0.147376" points="957.282,-31.6448 964.565,-23.9504 954.073,-25.4235 957.282,-31.6448"/>
</g>
<!-- &#45;2&#45;&gt;2 -->
<g id="edge6" class="edge"><title>&#45;2&#45;&gt;2</title>
<path fill="none" stroke="green" stroke-width="0.15209" d="M770.01,-77.8801C773.796,-73.5185 779.046,-68.4652 784.902,-65.6985 909.518,-6.82909 957.951,-57.6729 1092.9,-29.6985 1100.25,-28.1744 1108.13,-26.0094 1115.24,-23.8428"/>
<polygon fill="green" stroke="green" stroke-width="0.15209" points="1116.51,-27.112 1124.97,-20.7418 1114.38,-20.4422 1116.51,-27.112"/>
</g>
<!-- &#45;2&#45;&gt;3 -->
<g id="edge7" class="edge"><title>&#45;2&#45;&gt;3</title>
<path fill="none" stroke="red" stroke-width="0.217625" stroke-dasharray="1,5" d="M770.423,-77.579C774.194,-73.3468 779.296,-68.5163 784.902,-65.6985 871.861,-21.9927 905.204,-47.4127 1000.9,-29.6985 1015.43,-27.0088 1031.65,-23.7172 1044.6,-21.018"/>
<polygon fill="red" stroke="red" stroke-width="0.217625" points="1045.54,-24.3978 1054.6,-18.9162 1044.1,-17.5474 1045.54,-24.3978"/>
</g>
<!-- &#45;3 -->
<g id="node3" class="node"><title>&#45;3</title>
<polygon fill="lightgray" stroke="black" points="817.902,-95.9117 793.902,-95.9117 793.902,-77.9117 817.902,-77.9117 817.902,-95.9117"/>
<text text-anchor="middle" x="805.902" y="-84.7117" font-family="Times New Roman,serif" font-size="9.00">&#45;3</text>
</g>
<!-- &#45;3&#45;&gt;0 -->
<g id="edge8" class="edge"><title>&#45;3&#45;&gt;0</title>
<path fill="none" stroke="red" stroke-width="0.150853" d="M813.173,-77.806C817.002,-73.8383 821.927,-69.1794 826.902,-65.6985 852.024,-48.1242 884.274,-33.5028 905.716,-24.7341"/>
<polygon fill="red" stroke="red" stroke-width="0.150853" points="907.304,-27.8688 915.295,-20.9123 904.71,-21.3672 907.304,-27.8688"/>
</g>
<!-- &#45;3&#45;&gt;1 -->
<g id="edge9" class="edge"><title>&#45;3&#45;&gt;1</title>
<path fill="none" stroke="green" stroke-width="0.262099" d="M812.557,-77.8283C816.367,-73.6691 821.464,-68.8288 826.902,-65.6985 877.378,-36.6433 899.278,-52.4235 952.902,-29.6985 953.755,-29.3372 954.615,-28.9519 955.477,-28.5482"/>
<polygon fill="green" stroke="green" stroke-width="0.262099" points="957.292,-31.5479 964.496,-23.78 954.02,-25.3594 957.292,-31.5479"/>
</g>
<!-- &#45;3&#45;&gt;2 -->
<g id="edge10" class="edge"><title>&#45;3&#45;&gt;2</title>
<path fill="none" stroke="green" stroke-width="0.29567" d="M812.389,-77.5103C816.15,-73.2579 821.253,-68.4302 826.902,-65.6985 934.304,-13.7625 976.311,-54.9736 1092.9,-29.6985 1100.24,-28.1077 1108.11,-25.9229 1115.22,-23.7586"/>
<polygon fill="green" stroke="green" stroke-width="0.29567" points="1116.48,-27.0304 1124.96,-20.6741 1114.37,-20.3572 1116.48,-27.0304"/>
</g>
<!-- &#45;3&#45;&gt;3 -->
<g id="edge11" class="edge"><title>&#45;3&#45;&gt;3</title>
<path fill="none" stroke="green" stroke-width="0.484193" d="M812.466,-77.6636C816.25,-73.4561 821.351,-68.6223 826.902,-65.6985 828.122,-65.0562 983.554,-33.2762 1044.64,-20.8007"/>
<polygon fill="green" stroke="green" stroke-width="0.484193" points="1045.48,-24.2031 1054.57,-18.7732 1044.08,-17.3446 1045.48,-24.2031"/>
</g>
<!-- &#45;4 -->
<g id="node4" class="node"><title>&#45;4</title>
<polygon fill="lightgray" stroke="black" points="859.902,-95.9117 835.902,-95.9117 835.902,-77.9117 859.902,-77.9117 859.902,-95.9117"/>
<text text-anchor="middle" x="847.902" y="-84.7117" font-family="Times New Roman,serif" font-size="9.00">&#45;4</text>
</g>
<!-- &#45;4&#45;&gt;0 -->
<g id="edge12" class="edge"><title>&#45;4&#45;&gt;0</title>
<path fill="none" stroke="green" stroke-width="0.272701" d="M855.949,-77.8993C859.806,-74.1292 864.527,-69.612 868.902,-65.6985 882.223,-53.783 897.755,-40.9053 909.678,-31.224"/>
<polygon fill="green" stroke="green" stroke-width="0.272701" points="912.055,-33.803 917.639,-24.7988 907.659,-28.3557 912.055,-33.803"/>
</g>
<!-- &#45;4&#45;&gt;1 -->
<g id="edge13" class="edge"><title>&#45;4&#45;&gt;1</title>
<path fill="none" stroke="red" stroke-width="0.327326" d="M855.101,-77.7005C858.911,-73.7058 863.842,-69.0547 868.902,-65.6985 902.752,-43.2492 916.582,-47.8808 952.902,-29.6985 953.731,-29.2839 954.57,-28.8534 955.414,-28.4117"/>
<polygon fill="red" stroke="red" stroke-width="0.327326" points="957.297,-31.3701 964.351,-23.4657 953.907,-25.2454 957.297,-31.3701"/>
</g>
<!-- &#45;4&#45;&gt;2 -->
<g id="edge14" class="edge"><title>&#45;4&#45;&gt;2</title>
<path fill="none" stroke="red" stroke-width="0.356167" d="M854.416,-77.5661C858.185,-73.33 863.288,-68.5001 868.902,-65.6985 959.127,-20.6783 994.631,-52.283 1092.9,-29.6985 1100.22,-28.0167 1108.08,-25.8049 1115.2,-23.6439"/>
<polygon fill="red" stroke="red" stroke-width="0.356167" points="1116.45,-26.9191 1124.94,-20.5818 1114.35,-20.2412 1116.45,-26.9191"/>
</g>
<!-- &#45;4&#45;&gt;3 -->
<g id="edge15" class="edge"><title>&#45;4&#45;&gt;3</title>
<path fill="none" stroke="green" stroke-width="0.191019" d="M854.515,-77.7541C858.313,-73.5732 863.412,-68.7359 868.902,-65.6985 884.327,-57.1656 994.493,-32.236 1044.42,-21.2057"/>
<polygon fill="green" stroke="green" stroke-width="0.191019" points="1045.36,-24.5822 1054.37,-19.0141 1043.86,-17.7459 1045.36,-24.5822"/>
</g>
<!-- &#45;5 -->
<g id="node5" class="node"><title>&#45;5</title>
<polygon fill="lightgray" stroke="black" points="901.902,-95.9117 877.902,-95.9117 877.902,-77.9117 901.902,-77.9117 901.902,-95.9117"/>
<text text-anchor="middle" x="889.902" y="-84.7117" font-family="Times New Roman,serif" font-size="9.00">&#45;5</text>
</g>
<!-- &#45;5&#45;&gt;0 -->
<g id="edge16" class="edge"><title>&#45;5&#45;&gt;0</title>
<path fill="none" stroke="red" stroke-width="0.257771" stroke-dasharray="1,5" d="M894.376,-77.8746C899.871,-68.0036 909.404,-50.8771 917.063,-37.1182"/>
<polygon fill="red" stroke="red" stroke-width="0.257771" points="920.188,-38.7014 921.993,-28.2615 914.071,-35.2967 920.188,-38.7014"/>
</g>
<!-- &#45;5&#45;&gt;1 -->
<g id="edge17" class="edge"><title>&#45;5&#45;&gt;1</title>
<path fill="none" stroke="red" stroke-width="0.183911" d="M897.869,-77.8074C901.708,-74.0171 906.438,-69.5095 910.902,-65.6985 925.633,-53.1244 943.162,-39.9628 956.451,-30.323"/>
<polygon fill="red" stroke="red" stroke-width="0.183911" points="958.808,-32.9392 964.888,-24.2624 954.725,-27.254 958.808,-32.9392"/>
</g>
<!-- &#45;5&#45;&gt;2 -->
<g id="edge18" class="edge"><title>&#45;5&#45;&gt;2</title>
<path fill="none" stroke="red" stroke-width="0.407631" d="M896.457,-77.6461C900.238,-73.4336 905.339,-68.6005 910.902,-65.6985 984.01,-27.5638 1012.89,-49.6075 1092.9,-29.6985 1100.19,-27.8855 1108.04,-25.6348 1115.16,-23.4785"/>
<polygon fill="red" stroke="red" stroke-width="0.407631" points="1116.4,-26.7584 1124.91,-20.4488 1114.32,-20.0737 1116.4,-26.7584"/>
</g>
<!-- &#45;5&#45;&gt;3 -->
<g id="edge19" class="edge"><title>&#45;5&#45;&gt;3</title>
<path fill="none" stroke="red" stroke-width="0.150754" d="M896.591,-77.8873C900.412,-73.7454 905.508,-68.9028 910.902,-65.6985 954.006,-40.0967 1011.66,-26.249 1044.07,-20.0176"/>
<polygon fill="red" stroke="red" stroke-width="0.150754" points="1044.83,-23.4366 1054.03,-18.1904 1043.56,-16.5514 1044.83,-23.4366"/>
</g>
<!-- &#45;6 -->
<g id="node6" class="node"><title>&#45;6</title>
<polygon fill="lightgray" stroke="black" points="943.902,-95.9117 919.902,-95.9117 919.902,-77.9117 943.902,-77.9117 943.902,-95.9117"/>
<text text-anchor="middle" x="931.902" y="-84.7117" font-family="Times New Roman,serif" font-size="9.00">&#45;6</text>
</g>
<!-- &#45;6&#45;&gt;0 -->
<g id="edge20" class="edge"><title>&#45;6&#45;&gt;0</title>
<path fill="none" stroke="green" stroke-width="0.316962" d="M931.558,-77.8746C931.166,-68.7202 930.507,-53.3256 929.944,-40.1641"/>
<polygon fill="green" stroke="green" stroke-width="0.316962" points="933.425,-39.6608 929.501,-29.8197 926.432,-39.9603 933.425,-39.6608"/>
</g>
<!-- &#45;6&#45;&gt;1 -->
<g id="edge21" class="edge"><title>&#45;6&#45;&gt;1</title>
<path fill="none" stroke="red" stroke-width="0.294852" stroke-dasharray="1,5" d="M937.065,-77.8746C943.541,-67.7908 954.881,-50.1351 963.81,-36.233"/>
<polygon fill="red" stroke="red" stroke-width="0.294852" points="966.795,-38.0622 969.254,-27.7567 960.905,-34.2792 966.795,-38.0622"/>
</g>
<!-- &#45;6&#45;&gt;2 -->
<g id="edge22" class="edge"><title>&#45;6&#45;&gt;2</title>
<path fill="none" stroke="red" stroke-width="0.235966" d="M938.524,-77.7704C942.325,-73.5942 947.423,-68.7562 952.902,-65.6985 1009,-34.3909 1031.02,-46.9628 1092.9,-29.6985 1100.14,-27.6807 1107.97,-25.3693 1115.09,-23.2203"/>
<polygon fill="red" stroke="red" stroke-width="0.235966" points="1116.31,-26.5072 1124.85,-20.2412 1114.27,-19.8119 1116.31,-26.5072"/>
</g>
<!-- &#45;6&#45;&gt;3 -->
<g id="edge23" class="edge"><title>&#45;6&#45;&gt;3</title>
<path fill="none" stroke="green" stroke-width="0.460859" d="M939.102,-77.7026C942.913,-73.7085 947.844,-69.0572 952.902,-65.6985 982.331,-46.1604 1020.68,-31.467 1045.05,-23.2611"/>
<polygon fill="green" stroke="green" stroke-width="0.460859" points="1046.46,-26.4825 1054.88,-20.0497 1044.29,-19.8286 1046.46,-26.4825"/>
</g>
<!-- &#45;7 -->
<g id="node7" class="node"><title>&#45;7</title>
<polygon fill="lightgray" stroke="black" points="985.902,-95.9117 961.902,-95.9117 961.902,-77.9117 985.902,-77.9117 985.902,-95.9117"/>
<text text-anchor="middle" x="973.902" y="-84.7117" font-family="Times New Roman,serif" font-size="9.00">&#45;7</text>
</g>
<!-- &#45;7&#45;&gt;0 -->
<g id="edge24" class="edge"><title>&#45;7&#45;&gt;0</title>
<path fill="none" stroke="red" stroke-width="0.110679" d="M968.74,-77.8746C962.264,-67.7908 950.924,-50.1351 941.995,-36.233"/>
<polygon fill="red" stroke="red" stroke-width="0.110679" points="944.9,-34.2792 936.55,-27.7567 939.01,-38.0622 944.9,-34.2792"/>
</g>
<!-- &#45;7&#45;&gt;1 -->
<g id="edge25" class="edge"><title>&#45;7&#45;&gt;1</title>
<path fill="none" stroke="green" stroke-width="0.188664" d="M974.247,-77.8746C974.639,-68.7202 975.298,-53.3256 975.861,-40.1641"/>
<polygon fill="green" stroke="green" stroke-width="0.188664" points="979.373,-39.9603 976.304,-29.8197 972.38,-39.6608 979.373,-39.9603"/>
</g>
<!-- &#45;7&#45;&gt;2 -->
<g id="edge26" class="edge"><title>&#45;7&#45;&gt;2</title>
<path fill="none" stroke="green" stroke-width="0.373595" d="M981.002,-77.5452C984.787,-73.511 989.725,-68.8713 994.902,-65.6985 1005.42,-59.2545 1077.01,-35.7502 1115.13,-23.4577"/>
<polygon fill="green" stroke="green" stroke-width="0.373595" points="1116.47,-26.7046 1124.92,-20.3114 1114.32,-20.0407 1116.47,-26.7046"/>
</g>
<!-- &#45;7&#45;&gt;3 -->
<g id="edge27" class="edge"><title>&#45;7&#45;&gt;3</title>
<path fill="none" stroke="green" stroke-width="0.410012" d="M981.778,-77.6978C985.597,-73.8835 990.337,-69.3875 994.902,-65.6985 1011.87,-51.9936 1032.55,-38.2867 1047.73,-28.7246"/>
<polygon fill="green" stroke="green" stroke-width="0.410012" points="1049.75,-31.594 1056.39,-23.3436 1046.05,-25.6483 1049.75,-31.594"/>
</g>
<!-- &#45;8 -->
<g id="node8" class="node"><title>&#45;8</title>
<polygon fill="lightgray" stroke="black" points="1027.9,-95.9117 1003.9,-95.9117 1003.9,-77.9117 1027.9,-77.9117 1027.9,-95.9117"/>
<text text-anchor="middle" x="1015.9" y="-84.7117" font-family="Times New Roman,serif" font-size="9.00">&#45;8</text>
</g>
<!-- &#45;8&#45;&gt;0 -->
<g id="edge28" class="edge"><title>&#45;8&#45;&gt;0</title>
<path fill="none" stroke="red" stroke-width="0.740347" d="M1007.94,-77.8074C1004.1,-74.0171 999.367,-69.5095 994.902,-65.6985 980.172,-53.1244 962.643,-39.9628 949.354,-30.323"/>
<polygon fill="red" stroke="red" stroke-width="0.740347" points="951.08,-27.254 940.917,-24.2624 946.996,-32.9392 951.08,-27.254"/>
</g>
<!-- &#45;8&#45;&gt;1 -->
<g id="edge29" class="edge"><title>&#45;8&#45;&gt;1</title>
<path fill="none" stroke="green" stroke-width="0.255121" d="M1011.43,-77.8746C1005.93,-68.0036 996.401,-50.8771 988.742,-37.1182"/>
<polygon fill="green" stroke="green" stroke-width="0.255121" points="991.734,-35.2967 983.812,-28.2615 985.617,-38.7014 991.734,-35.2967"/>
</g>
<!-- &#45;8&#45;&gt;2 -->
<g id="edge30" class="edge"><title>&#45;8&#45;&gt;2</title>
<path fill="none" stroke="red" stroke-width="0.347542" d="M1023.17,-77.806C1027,-73.8383 1031.93,-69.1794 1036.9,-65.6985 1062.02,-48.1242 1094.27,-33.5028 1115.72,-24.7341"/>
<polygon fill="red" stroke="red" stroke-width="0.347542" points="1117.3,-27.8688 1125.29,-20.9123 1114.71,-21.3672 1117.3,-27.8688"/>
</g>
<!-- &#45;8&#45;&gt;3 -->
<g id="edge31" class="edge"><title>&#45;8&#45;&gt;3</title>
<path fill="none" stroke="green" stroke-width="0.254319" d="M1021.98,-77.8746C1029.73,-67.6352 1043.38,-49.5885 1053.97,-35.5923"/>
<polygon fill="green" stroke="green" stroke-width="0.254319" points="1056.84,-37.5939 1060.08,-27.5071 1051.26,-33.3708 1056.84,-37.5939"/>
</g>
<!-- &#45;9 -->
<g id="node9" class="node"><title>&#45;9</title>
<polygon fill="lightgray" stroke="black" points="1069.9,-95.9117 1045.9,-95.9117 1045.9,-77.9117 1069.9,-77.9117 1069.9,-95.9117"/>
<text text-anchor="middle" x="1057.9" y="-84.7117" font-family="Times New Roman,serif" font-size="9.00">&#45;9</text>
</g>
<!-- &#45;9&#45;&gt;0 -->
<g id="edge32" class="edge"><title>&#45;9&#45;&gt;0</title>
<path fill="none" stroke="red" stroke-width="0.508881" d="M1050.7,-77.7005C1046.89,-73.7058 1041.96,-69.0547 1036.9,-65.6985 1003.05,-43.2492 989.223,-47.8808 952.902,-29.6985 952.074,-29.2839 951.235,-28.8534 950.391,-28.4117"/>
<polygon fill="red" stroke="red" stroke-width="0.508881" points="951.898,-25.2454 941.454,-23.4657 948.508,-31.3701 951.898,-25.2454"/>
</g>
<!-- &#45;9&#45;&gt;1 -->
<g id="edge33" class="edge"><title>&#45;9&#45;&gt;1</title>
<path fill="none" stroke="green" stroke-width="0.335429" d="M1049.86,-77.8993C1046,-74.1292 1041.28,-69.612 1036.9,-65.6985 1023.58,-53.783 1008.05,-40.9053 996.127,-31.224"/>
<polygon fill="green" stroke="green" stroke-width="0.335429" points="998.146,-28.3557 988.166,-24.7988 993.75,-33.803 998.146,-28.3557"/>
</g>
<!-- &#45;9&#45;&gt;2 -->
<g id="edge34" class="edge"><title>&#45;9&#45;&gt;2</title>
<path fill="none" stroke="green" stroke-width="0.191894" d="M1066.82,-77.5655C1070.79,-73.8881 1075.54,-69.5391 1079.9,-65.6985 1093.18,-53.9989 1108.45,-41.1146 1120.12,-31.3761"/>
<polygon fill="green" stroke="green" stroke-width="0.191894" points="1122.46,-33.9864 1127.91,-24.9028 1117.98,-28.603 1122.46,-33.9864"/>
</g>
<!-- &#45;9&#45;&gt;3 -->
<g id="edge35" class="edge"><title>&#45;9&#45;&gt;3</title>
<path fill="none" stroke="green" stroke-width="0.164978" d="M1059.16,-77.8746C1060.62,-68.572 1063.1,-52.8252 1065.19,-39.5264"/>
<polygon fill="green" stroke="green" stroke-width="0.164978" points="1068.66,-39.9774 1066.75,-29.5556 1061.74,-38.8917 1068.66,-39.9774"/>
</g>
<!-- &#45;10 -->
<g id="node10" class="node"><title>&#45;10</title>
<polygon fill="lightgray" stroke="black" points="1117.4,-95.9117 1088.4,-95.9117 1088.4,-77.9117 1117.4,-77.9117 1117.4,-95.9117"/>
<text text-anchor="middle" x="1102.9" y="-84.7117" font-family="Times New Roman,serif" font-size="9.00">&#45;10</text>
</g>
<!-- &#45;10&#45;&gt;0 -->
<g id="edge36" class="edge"><title>&#45;10&#45;&gt;0</title>
<path fill="none" stroke="red" stroke-width="0.196649" d="M1095.1,-77.863C1090.68,-73.7139 1084.87,-68.8724 1078.9,-65.6985 1027.49,-38.3336 1006.53,-52.4235 952.902,-29.6985 952.05,-29.3372 951.19,-28.9519 950.328,-28.5482"/>
<polygon fill="red" stroke="red" stroke-width="0.196649" points="951.785,-25.3594 941.308,-23.78 948.513,-31.5479 951.785,-25.3594"/>
</g>
<!-- &#45;10&#45;&gt;1 -->
<g id="edge37" class="edge"><title>&#45;10&#45;&gt;1</title>
<path fill="none" stroke="red" stroke-width="0.23626" d="M1094.42,-77.8794C1090,-73.9304 1084.38,-69.266 1078.9,-65.6985 1053.35,-49.0595 1021.44,-34.328 1000.18,-25.2738"/>
<polygon fill="red" stroke="red" stroke-width="0.23626" points="1001.25,-21.9279 990.674,-21.3017 998.551,-28.3867 1001.25,-21.9279"/>
</g>
<!-- &#45;10&#45;&gt;2 -->
<g id="edge38" class="edge"><title>&#45;10&#45;&gt;2</title>
<path fill="none" stroke="red" stroke-width="0.222342" d="M1107.03,-77.8746C1112.06,-68.0985 1120.74,-51.2057 1127.77,-37.5161"/>
<polygon fill="red" stroke="red" stroke-width="0.222342" points="1131.07,-38.7557 1132.52,-28.2615 1124.84,-35.5565 1131.07,-38.7557"/>
</g>
<!-- &#45;10&#45;&gt;3 -->
<g id="edge39" class="edge"><title>&#45;10&#45;&gt;3</title>
<path fill="none" stroke="green" stroke-width="0.10208" stroke-dasharray="1,5" d="M1099,-77.8746C1094.29,-68.1564 1086.16,-51.4054 1079.54,-37.7594"/>
<polygon fill="green" stroke="green" stroke-width="0.10208" points="1082.56,-35.9853 1075.05,-28.5167 1076.27,-39.0414 1082.56,-35.9853"/>
</g>
<!-- &#45;11 -->
<g id="node11" class="node"><title>&#45;11</title>
<polygon fill="lightgray" stroke="black" points="216.402,-95.9117 187.402,-95.9117 187.402,-77.9117 216.402,-77.9117 216.402,-95.9117"/>
<text text-anchor="middle" x="201.902" y="-84.7117" font-family="Times New Roman,serif" font-size="9.00">&#45;11</text>
</g>
<!-- &#45;11&#45;&gt;0 -->
<g id="edge40" class="edge"><title>&#45;11&#45;&gt;0</title>
<path fill="none" stroke="green" stroke-width="0.36165" d="M208.694,-77.7729C212.874,-73.3755 218.624,-68.3222 224.902,-65.6985 351.143,-12.942 792.904,-14.2954 903.601,-15.5"/>
<polygon fill="green" stroke="green" stroke-width="0.36165" points="903.767,-19.0021 913.808,-15.6214 903.85,-12.0026 903.767,-19.0021"/>
</g>
<!-- &#45;11&#45;&gt;1 -->
<g id="edge41" class="edge"><title>&#45;11&#45;&gt;1</title>
<path fill="none" stroke="red" stroke-width="0.450685" d="M208.673,-77.7226C212.847,-73.3085 218.597,-68.2552 224.902,-65.6985 375.009,-4.83649 797.524,-75.4555 952.902,-29.6985 953.964,-29.3859 955.028,-29.0177 956.087,-28.6064"/>
<polygon fill="red" stroke="red" stroke-width="0.450685" points="957.802,-31.6624 965.201,-24.0788 954.688,-25.3934 957.802,-31.6624"/>
</g>
<!-- &#45;11&#45;&gt;3 -->
<g id="edge42" class="edge"><title>&#45;11&#45;&gt;3</title>
<path fill="none" stroke="red" stroke-width="0.400852" d="M208.67,-77.7154C212.843,-73.2989 218.593,-68.2456 224.902,-65.6985 384.981,-1.07728 829.59,-50.9878 1000.9,-29.6985 1015.57,-27.8761 1031.79,-24.6207 1044.71,-21.7239"/>
<polygon fill="red" stroke="red" stroke-width="0.400852" points="1045.73,-25.0808 1054.68,-19.4143 1044.15,-18.2614 1045.73,-25.0808"/>
</g>
<!-- &#45;12 -->
<g id="node12" class="node"><title>&#45;12</title>
<polygon fill="lightgray" stroke="black" points="1164.4,-95.9117 1135.4,-95.9117 1135.4,-77.9117 1164.4,-77.9117 1164.4,-95.9117"/>
<text text-anchor="middle" x="1149.9" y="-84.7117" font-family="Times New Roman,serif" font-size="9.00">&#45;12</text>
</g>
<!-- &#45;12&#45;&gt;0 -->
<g id="edge43" class="edge"><title>&#45;12&#45;&gt;0</title>
<path fill="none" stroke="red" stroke-width="0.138704" d="M1142.57,-77.6774C1138.38,-73.474 1132.8,-68.6397 1126.9,-65.6985 1056.23,-30.462 1026.71,-57.791 952.902,-29.6985 952.037,-29.3691 951.166,-29.0109 950.295,-28.6301"/>
<polygon fill="red" stroke="red" stroke-width="0.138704" points="951.726,-25.4303 941.233,-23.9685 948.524,-31.6551 951.726,-25.4303"/>
</g>
<!-- &#45;12&#45;&gt;1 -->
<g id="edge44" class="edge"><title>&#45;12&#45;&gt;1</title>
<path fill="none" stroke="red" stroke-width="0.108514" d="M1142.01,-77.5468C1137.83,-73.513 1132.44,-68.8732 1126.9,-65.6985 1085.81,-42.1198 1031.92,-27.672 1001.19,-20.7632"/>
<polygon fill="red" stroke="red" stroke-width="0.108514" points="1001.85,-17.3266 991.338,-18.6313 1000.37,-24.1681 1001.85,-17.3266"/>
</g>
<!-- &#45;12&#45;&gt;2 -->
<g id="edge45" class="edge"><title>&#45;12&#45;&gt;2</title>
<path fill="none" stroke="green" stroke-width="0.221767" d="M1148.64,-77.8746C1147.18,-68.572 1144.71,-52.8252 1142.62,-39.5264"/>
<polygon fill="green" stroke="green" stroke-width="0.221767" points="1146.06,-38.8917 1141.05,-29.5556 1139.15,-39.9774 1146.06,-38.8917"/>
</g>
<!-- &#45;12&#45;&gt;3 -->
<g id="edge46" class="edge"><title>&#45;12&#45;&gt;3</title>
<path fill="none" stroke="green" stroke-width="0.118708" d="M1140.52,-77.6273C1136.36,-73.9612 1131.4,-69.6041 1126.9,-65.6985 1113.84,-54.3445 1099.04,-41.6278 1087.66,-31.8803"/>
<polygon fill="green" stroke="green" stroke-width="0.118708" points="1089.93,-29.2124 1080.05,-25.3694 1085.37,-34.5307 1089.93,-29.2124"/>
</g>
<!-- &#45;13 -->
<g id="node13" class="node"><title>&#45;13</title>
<polygon fill="lightgray" stroke="black" points="1211.4,-95.9117 1182.4,-95.9117 1182.4,-77.9117 1211.4,-77.9117 1211.4,-95.9117"/>
<text text-anchor="middle" x="1196.9" y="-84.7117" font-family="Times New Roman,serif" font-size="9.00">&#45;13</text>
</g>
<!-- &#45;13&#45;&gt;0 -->
<g id="edge47" class="edge"><title>&#45;13&#45;&gt;0</title>
<path fill="none" stroke="red" stroke-width="0.311238" d="M1189.62,-77.5768C1185.45,-73.3439 1179.86,-68.5136 1173.9,-65.6985 1083.92,-23.1989 1046.64,-63.1136 952.902,-29.6985 952.03,-29.3875 951.153,-29.0451 950.278,-28.6775"/>
<polygon fill="red" stroke="red" stroke-width="0.311238" points="951.695,-25.4722 941.192,-24.0776 948.533,-31.7173 951.695,-25.4722"/>
</g>
<!-- &#45;13&#45;&gt;1 -->
<g id="edge48" class="edge"><title>&#45;13&#45;&gt;1</title>
<path fill="none" stroke="green" stroke-width="0.201538" d="M1189.52,-77.7799C1185.31,-73.6066 1179.74,-68.7682 1173.9,-65.6985 1158.52,-57.6053 1050.11,-32.4385 1000.99,-21.2756"/>
<polygon fill="green" stroke="green" stroke-width="0.201538" points="1001.72,-17.8527 991.194,-19.0569 1000.17,-24.6797 1001.72,-17.8527"/>
</g>
<!-- &#45;13&#45;&gt;2 -->
<g id="edge49" class="edge"><title>&#45;13&#45;&gt;2</title>
<path fill="none" stroke="green" stroke-width="0.183129" d="M1190.25,-77.8746C1181.67,-67.5161 1166.48,-49.1677 1154.84,-35.1057"/>
<polygon fill="green" stroke="green" stroke-width="0.183129" points="1157.22,-32.4849 1148.14,-27.0138 1151.83,-36.9487 1157.22,-32.4849"/>
</g>
<!-- &#45;13&#45;&gt;3 -->
<g id="edge50" class="edge"><title>&#45;13&#45;&gt;3</title>
<path fill="none" stroke="red" stroke-width="0.248692" d="M1188.84,-77.8283C1184.62,-73.8663 1179.23,-69.2057 1173.9,-65.6985 1147.56,-48.3629 1114.26,-33.6182 1092.31,-24.76"/>
<polygon fill="red" stroke="red" stroke-width="0.248692" points="1093.39,-21.4246 1082.8,-21.0073 1090.82,-27.9354 1093.39,-21.4246"/>
</g>
<!-- &#45;14 -->
<g id="node14" class="node"><title>&#45;14</title>
<polygon fill="lightgray" stroke="black" points="1258.4,-95.9117 1229.4,-95.9117 1229.4,-77.9117 1258.4,-77.9117 1258.4,-95.9117"/>
<text text-anchor="middle" x="1243.9" y="-84.7117" font-family="Times New Roman,serif" font-size="9.00">&#45;14</text>
</g>
<!-- &#45;14&#45;&gt;0 -->
<g id="edge51" class="edge"><title>&#45;14&#45;&gt;0</title>
<path fill="none" stroke="green" stroke-width="0.248188" d="M1236.65,-77.5102C1232.49,-73.2578 1226.9,-68.43 1220.9,-65.6985 1111.53,-15.8977 1066.66,-68.4662 952.902,-29.6985 952.026,-29.3998 951.145,-29.0677 950.267,-28.7089"/>
<polygon fill="green" stroke="green" stroke-width="0.248188" points="951.676,-25.5001 941.167,-24.1498 948.54,-31.7585 951.676,-25.5001"/>
</g>
<!-- &#45;14&#45;&gt;1 -->
<g id="edge52" class="edge"><title>&#45;14&#45;&gt;1</title>
<path fill="none" stroke="red" stroke-width="0.101111" d="M1236.57,-77.6716C1232.39,-73.4664 1226.81,-68.6323 1220.9,-65.6985 1220.59,-65.5439 1063.32,-33.4681 1001.47,-20.8573"/>
<polygon fill="red" stroke="red" stroke-width="0.101111" points="1001.91,-17.3758 991.413,-18.8074 1000.51,-24.2347 1001.91,-17.3758"/>
</g>
<!-- &#45;14&#45;&gt;2 -->
<g id="edge53" class="edge"><title>&#45;14&#45;&gt;2</title>
<path fill="none" stroke="red" stroke-width="0.215402" d="M1235.25,-77.6637C1231.06,-73.8419 1225.87,-69.3494 1220.9,-65.6985 1201.37,-51.3512 1177.56,-37.215 1160.64,-27.6816"/>
<polygon fill="red" stroke="red" stroke-width="0.215402" points="1162,-24.4325 1151.56,-22.6335 1158.6,-30.5509 1162,-24.4325"/>
</g>
<!-- &#45;14&#45;&gt;3 -->
<g id="edge54" class="edge"><title>&#45;14&#45;&gt;3</title>
<path fill="none" stroke="red" stroke-width="0.121581" d="M1236.02,-77.5376C1231.84,-73.5015 1226.44,-68.8623 1220.9,-65.6985 1209.53,-59.2026 1132.38,-35.212 1092.57,-23.0372"/>
<polygon fill="red" stroke="red" stroke-width="0.121581" points="1093.45,-19.647 1082.87,-20.0773 1091.41,-26.3425 1093.45,-19.647"/>
</g>
<!-- &#45;15 -->
<g id="node15" class="node"><title>&#45;15</title>
<polygon fill="lightgray" stroke="black" points="124.402,-162.125 95.4025,-162.125 95.4025,-144.125 124.402,-144.125 124.402,-162.125"/>
<text text-anchor="middle" x="109.902" y="-150.925" font-family="Times New Roman,serif" font-size="9.00">&#45;15</text>
</g>
<!-- &#45;15&#45;&gt;0 -->
<g id="edge55" class="edge"><title>&#45;15&#45;&gt;0</title>
<path fill="none" stroke="green" stroke-width="0.121841" d="M95.3796,-150.679C72.4035,-147.521 28.2928,-137.723 8.90246,-108.125 -1.43074,-92.3521 -4.06516,-79.3878 8.90246,-65.6985 40.5632,-32.2758 759.511,-18.6493 903.814,-16.2463"/>
<polygon fill="green" stroke="green" stroke-width="0.121841" points="903.959,-19.7445 913.9,-16.0812 903.844,-12.7455 903.959,-19.7445"/>
</g>
<!-- &#45;15&#45;&gt;1 -->
<g id="edge56" class="edge"><title>&#45;15&#45;&gt;1</title>
<path fill="none" stroke="red" stroke-width="0.179624" stroke-dasharray="1,5" d="M102.404,-144.066C87.682,-127.284 58.2383,-88.2745 79.9025,-65.6985 147.121,4.34911 859.663,-56.7418 952.902,-29.6985 953.965,-29.3903 955.031,-29.0257 956.09,-28.6173"/>
<polygon fill="red" stroke="red" stroke-width="0.179624" points="957.8,-31.6759 965.207,-24.1003 954.692,-25.4035 957.8,-31.6759"/>
</g>
<!-- &#45;15&#45;&gt;2 -->
<g id="edge57" class="edge"><title>&#45;15&#45;&gt;2</title>
<path fill="none" stroke="green" stroke-width="0.410699" d="M124.54,-152.068C298.4,-151.363 1963.16,-143.688 1997.9,-108.125 2011.08,-94.6371 2010.84,-79.4126 1997.9,-65.6985 1968.52,-34.559 1302.67,-19.2107 1164.04,-16.347"/>
<polygon fill="green" stroke="green" stroke-width="0.410699" points="1164.03,-12.8462 1153.96,-16.1418 1163.89,-19.8447 1164.03,-12.8462"/>
</g>
<!-- &#45;15&#45;&gt;3 -->
<g id="edge58" class="edge"><title>&#45;15&#45;&gt;3</title>
<path fill="none" stroke="red" stroke-width="0.362816" d="M124.609,-152.024C287.773,-150.868 1754.23,-139.61 1784.9,-108.125 1798.06,-94.6176 1797.87,-79.3848 1784.9,-65.6985 1733.62,-11.5866 1188.34,-42.5361 1114.9,-29.6985 1107.51,-28.4055 1099.62,-26.3091 1092.51,-24.1342"/>
<polygon fill="red" stroke="red" stroke-width="0.362816" points="1093.38,-20.7363 1082.79,-20.9761 1091.22,-27.394 1093.38,-20.7363"/>
</g>
<!-- 580 -->
<g id="node45" class="node"><title>580</title>
<ellipse fill="white" stroke="black" cx="109.902" cy="-86.9117" rx="21.4286" ry="21.4286"/>
<text text-anchor="middle" x="109.902" y="-84.7117" font-family="Times New Roman,serif" font-size="9.00">580</text>
</g>
<!-- &#45;15&#45;&gt;580 -->
<g id="edge159" class="edge"><title>&#45;15&#45;&gt;580</title>
<path fill="none" stroke="green" stroke-width="0.3" d="M109.902,-143.992C109.902,-137.449 109.902,-127.82 109.902,-118.381"/>
<polygon fill="green" stroke="green" stroke-width="0.3" points="113.403,-118.367 109.902,-108.367 106.403,-118.367 113.403,-118.367"/>
</g>
<!-- &#45;16 -->
<g id="node16" class="node"><title>&#45;16</title>
<polygon fill="lightgray" stroke="black" points="1305.4,-95.9117 1276.4,-95.9117 1276.4,-77.9117 1305.4,-77.9117 1305.4,-95.9117"/>
<text text-anchor="middle" x="1290.9" y="-84.7117" font-family="Times New Roman,serif" font-size="9.00">&#45;16</text>
</g>
<!-- &#45;16&#45;&gt;0 -->
<g id="edge59" class="edge"><title>&#45;16&#45;&gt;0</title>
<path fill="none" stroke="red" stroke-width="0.283425" d="M1284.07,-77.8739C1279.87,-73.5102 1274.12,-68.4569 1267.9,-65.6985 1139.09,-8.57579 1086.72,-73.835 952.902,-29.6985 952.023,-29.4084 951.14,-29.0837 950.259,-28.7311"/>
<polygon fill="red" stroke="red" stroke-width="0.283425" points="951.663,-25.5201 941.15,-24.201 948.545,-31.7878 951.663,-25.5201"/>
</g>
<!-- &#45;16&#45;&gt;1 -->
<g id="edge60" class="edge"><title>&#45;16&#45;&gt;1</title>
<path fill="none" stroke="green" stroke-width="0.76179" d="M1283.62,-77.5734C1279.45,-73.3396 1273.86,-68.5093 1267.9,-65.6985 1177.09,-22.8888 1143.67,-47.72 1044.9,-29.6985 1030.36,-27.0458 1014.15,-23.7558 1001.2,-21.0482"/>
<polygon fill="green" stroke="green" stroke-width="0.76179" points="1001.7,-17.578 991.197,-18.9375 1000.26,-24.4271 1001.7,-17.578"/>
</g>
<!-- &#45;16&#45;&gt;2 -->
<g id="edge61" class="edge"><title>&#45;16&#45;&gt;2</title>
<path fill="none" stroke="green" stroke-width="0.575728" d="M1282.94,-77.6583C1278.75,-73.6529 1273.36,-69.0049 1267.9,-65.6985 1233.82,-45.0444 1189.71,-30.2188 1162.9,-22.3454"/>
<polygon fill="green" stroke="green" stroke-width="0.575728" points="1163.78,-18.9562 1153.2,-19.5801 1161.86,-25.6879 1163.78,-18.9562"/>
</g>
<!-- &#45;16&#45;&gt;3 -->
<g id="edge62" class="edge"><title>&#45;16&#45;&gt;3</title>
<path fill="none" stroke="red" stroke-width="0.381274" stroke-dasharray="1,5" d="M1283.54,-77.7409C1279.34,-73.5561 1273.76,-68.7193 1267.9,-65.6985 1205.81,-33.6853 1182.38,-47.7765 1114.9,-29.6985 1107.65,-27.7553 1099.81,-25.466 1092.69,-23.3144"/>
<polygon fill="red" stroke="red" stroke-width="0.381274" points="1093.52,-19.9073 1082.93,-20.3168 1091.46,-26.5988 1093.52,-19.9073"/>
</g>
<!-- &#45;17 -->
<g id="node17" class="node"><title>&#45;17</title>
<polygon fill="lightgray" stroke="black" points="1352.4,-95.9117 1323.4,-95.9117 1323.4,-77.9117 1352.4,-77.9117 1352.4,-95.9117"/>
<text text-anchor="middle" x="1337.9" y="-84.7117" font-family="Times New Roman,serif" font-size="9.00">&#45;17</text>
</g>
<!-- &#45;17&#45;&gt;0 -->
<g id="edge63" class="edge"><title>&#45;17&#45;&gt;0</title>
<path fill="none" stroke="red" stroke-width="0.30256" d="M1331.08,-77.8396C1326.89,-73.4645 1321.14,-68.4112 1314.9,-65.6985 1166.62,-1.24147 1106.82,-79.2133 952.902,-29.6985 951.849,-29.3596 950.791,-28.9699 949.739,-28.5411"/>
<polygon fill="red" stroke="red" stroke-width="0.30256" points="951.148,-25.3322 940.644,-23.9494 947.993,-31.5809 951.148,-25.3322"/>
</g>
<!-- &#45;17&#45;&gt;1 -->
<g id="edge64" class="edge"><title>&#45;17&#45;&gt;1</title>
<path fill="none" stroke="green" stroke-width="0.528306" d="M1330.65,-77.5078C1326.49,-73.2547 1320.9,-68.4271 1314.9,-65.6985 1204.7,-15.5865 1164.29,-49.7903 1044.9,-29.6985 1030.33,-27.246 1014.11,-23.9643 1001.17,-21.2111"/>
<polygon fill="green" stroke="green" stroke-width="0.528306" points="1001.69,-17.743 991.177,-19.0524 1000.21,-24.5851 1001.69,-17.743"/>
</g>
<!-- &#45;17&#45;&gt;2 -->
<g id="edge65" class="edge"><title>&#45;17&#45;&gt;2</title>
<path fill="none" stroke="red" stroke-width="0.317561" d="M1330.48,-77.8452C1326.27,-73.691 1320.69,-68.8501 1314.9,-65.6985 1265.11,-38.591 1199.17,-25.0482 1163.82,-19.3341"/>
<polygon fill="red" stroke="red" stroke-width="0.317561" points="1164.3,-15.8668 1153.88,-17.8058 1163.23,-22.7855 1164.3,-15.8668"/>
</g>
<!-- &#45;17&#45;&gt;3 -->
<g id="edge66" class="edge"><title>&#45;17&#45;&gt;3</title>
<path fill="none" stroke="red" stroke-width="0.106605" d="M1330.6,-77.6162C1326.42,-73.3949 1320.84,-68.563 1314.9,-65.6985 1233.56,-26.4505 1202.73,-50.7516 1114.9,-29.6985 1107.6,-27.9482 1099.75,-25.7161 1092.63,-23.5575"/>
<polygon fill="red" stroke="red" stroke-width="0.106605" points="1093.47,-20.1537 1082.88,-20.5124 1091.38,-26.8352 1093.47,-20.1537"/>
</g>
<!-- &#45;18 -->
<g id="node18" class="node"><title>&#45;18</title>
<polygon fill="lightgray" stroke="black" points="1898.4,-162.125 1869.4,-162.125 1869.4,-144.125 1898.4,-144.125 1898.4,-162.125"/>
<text text-anchor="middle" x="1883.9" y="-150.925" font-family="Times New Roman,serif" font-size="9.00">&#45;18</text>
</g>
<!-- &#45;18&#45;&gt;0 -->
<g id="edge67" class="edge"><title>&#45;18&#45;&gt;0</title>
<path fill="none" stroke="red" stroke-width="0.33274" d="M1869.4,-152.053C1700.51,-151.181 113.049,-142.09 79.9025,-108.125 66.7327,-94.63 66.9658,-79.417 79.9025,-65.6985 108.907,-34.9413 765.724,-19.3154 903.64,-16.3673"/>
<polygon fill="red" stroke="red" stroke-width="0.33274" points="904.091,-19.8587 914.015,-16.1487 903.944,-12.8602 904.091,-19.8587"/>
</g>
<!-- &#45;18&#45;&gt;1 -->
<g id="edge68" class="edge"><title>&#45;18&#45;&gt;1</title>
<path fill="none" stroke="green" stroke-width="0.31902" d="M1869.18,-152.031C1704.29,-150.943 209.162,-140.201 177.902,-108.125 164.742,-94.6208 164.882,-79.3377 177.902,-65.6985 237.427,-3.3449 870.173,-53.9268 952.902,-29.6985 953.964,-29.3875 955.029,-29.0206 956.088,-28.6104"/>
<polygon fill="green" stroke="green" stroke-width="0.31902" points="957.801,-31.6674 965.203,-24.0867 954.689,-25.3971 957.801,-31.6674"/>
</g>
<!-- &#45;18&#45;&gt;2 -->
<g id="edge69" class="edge"><title>&#45;18&#45;&gt;2</title>
<path fill="none" stroke="red" stroke-width="0.502961" d="M1898.73,-152.899C1929.41,-153.584 1999.56,-150.219 2030.9,-108.125 2042.16,-93.0002 2043.86,-79.3988 2030.9,-65.6985 2000.29,-33.3308 1306.01,-18.9075 1164.1,-16.2924"/>
<polygon fill="red" stroke="red" stroke-width="0.502961" points="1163.87,-12.7877 1153.81,-16.1057 1163.74,-19.7866 1163.87,-12.7877"/>
</g>
<!-- &#45;18&#45;&gt;3 -->
<g id="edge70" class="edge"><title>&#45;18&#45;&gt;3</title>
<path fill="none" stroke="red" stroke-width="0.484397" d="M1884.97,-144.112C1886.79,-126.706 1888.26,-85.4212 1864.9,-65.6985 1801.16,-11.8766 1197.13,-43.8298 1114.9,-29.6985 1107.5,-28.4266 1099.62,-26.3365 1092.5,-24.1609"/>
<polygon fill="red" stroke="red" stroke-width="0.484397" points="1093.37,-20.7632 1082.78,-20.9976 1091.21,-27.4198 1093.37,-20.7632"/>
</g>
<!-- 181 -->
<g id="node46" class="node"><title>181</title>
<ellipse fill="white" stroke="black" cx="2103.9" cy="-86.9117" rx="21.4286" ry="21.4286"/>
<text text-anchor="middle" x="2103.9" y="-84.7117" font-family="Times New Roman,serif" font-size="9.00">181</text>
</g>
<!-- &#45;18&#45;&gt;181 -->
<g id="edge157" class="edge"><title>&#45;18&#45;&gt;181</title>
<path fill="none" stroke="green" stroke-width="0.192493" d="M1898.73,-150.093C1930.71,-145.394 2008.16,-132.287 2068.9,-108.125 2071.81,-106.969 2074.76,-105.603 2077.66,-104.135"/>
<polygon fill="green" stroke="green" stroke-width="0.192493" points="2079.52,-107.11 2086.6,-99.2317 2076.15,-100.973 2079.52,-107.11"/>
</g>
<!-- &#45;19 -->
<g id="node19" class="node"><title>&#45;19</title>
<polygon fill="lightgray" stroke="black" points="1399.4,-95.9117 1370.4,-95.9117 1370.4,-77.9117 1399.4,-77.9117 1399.4,-95.9117"/>
<text text-anchor="middle" x="1384.9" y="-84.7117" font-family="Times New Roman,serif" font-size="9.00">&#45;19</text>
</g>
<!-- &#45;19&#45;&gt;0 -->
<g id="edge71" class="edge"><title>&#45;19&#45;&gt;0</title>
<path fill="none" stroke="green" stroke-width="0.537069" d="M1378.09,-77.813C1373.91,-73.4291 1368.16,-68.3758 1361.9,-65.6985 1194.14,6.1009 1126.93,-84.5978 952.902,-29.6985 951.847,-29.3656 950.788,-28.9808 949.734,-28.556"/>
<polygon fill="green" stroke="green" stroke-width="0.537069" points="951.141,-25.3461 940.635,-23.9788 947.995,-31.5994 951.141,-25.3461"/>
</g>
<!-- &#45;19&#45;&gt;1 -->
<g id="edge72" class="edge"><title>&#45;19&#45;&gt;1</title>
<path fill="none" stroke="green" stroke-width="0.164498" d="M1378.07,-77.8722C1373.87,-73.5079 1368.12,-68.4546 1361.9,-65.6985 1232.26,-8.26391 1184.95,-51.8687 1044.9,-29.6985 1030.31,-27.388 1014.09,-24.1122 1001.15,-21.3266"/>
<polygon fill="green" stroke="green" stroke-width="0.164498" points="1001.68,-17.8599 991.163,-19.134 1000.18,-24.6971 1001.68,-17.8599"/>
</g>
<!-- &#45;19&#45;&gt;2 -->
<g id="edge73" class="edge"><title>&#45;19&#45;&gt;2</title>
<path fill="none" stroke="red" stroke-width="0.408952" d="M1377.55,-77.7148C1373.36,-73.5223 1367.78,-68.6865 1361.9,-65.6985 1295.54,-31.9515 1206.64,-20.8938 1163.9,-17.395"/>
<polygon fill="red" stroke="red" stroke-width="0.408952" points="1164.07,-13.8979 1153.84,-16.6432 1163.55,-20.8784 1164.07,-13.8979"/>
</g>
<!-- &#45;19&#45;&gt;3 -->
<g id="edge74" class="edge"><title>&#45;19&#45;&gt;3</title>
<path fill="none" stroke="green" stroke-width="0.134432" d="M1377.64,-77.5369C1373.47,-73.2924 1367.89,-68.4635 1361.9,-65.6985 1261.2,-19.1632 1223.2,-53.7551 1114.9,-29.6985 1107.57,-28.0702 1099.71,-25.8743 1092.59,-23.7114"/>
<polygon fill="green" stroke="green" stroke-width="0.134432" points="1093.44,-20.3095 1082.85,-20.6361 1091.34,-26.9846 1093.44,-20.3095"/>
</g>
<!-- &#45;20 -->
<g id="node20" class="node"><title>&#45;20</title>
<polygon fill="lightgray" stroke="black" points="1988.4,-95.9117 1959.4,-95.9117 1959.4,-77.9117 1988.4,-77.9117 1988.4,-95.9117"/>
<text text-anchor="middle" x="1973.9" y="-84.7117" font-family="Times New Roman,serif" font-size="9.00">&#45;20</text>
</g>
<!-- &#45;20&#45;&gt;1 -->
<g id="edge75" class="edge"><title>&#45;20&#45;&gt;1</title>
<path fill="none" stroke="red" stroke-width="0.202066" d="M1967.14,-77.6997C1962.97,-73.2779 1957.22,-68.2246 1950.9,-65.6985 1857.36,-28.2964 1144.92,-41.7906 1044.9,-29.6985 1030.23,-27.9248 1014.01,-24.6715 1001.09,-21.7636"/>
<polygon fill="red" stroke="red" stroke-width="0.202066" points="1001.65,-18.3014 991.12,-19.4423 1000.07,-25.119 1001.65,-18.3014"/>
</g>
<!-- &#45;20&#45;&gt;2 -->
<g id="edge76" class="edge"><title>&#45;20&#45;&gt;2</title>
<path fill="none" stroke="red" stroke-width="0.198457" d="M1967.12,-77.7508C1962.94,-73.346 1957.19,-68.2927 1950.9,-65.6985 1876.6,-35.0569 1292.51,-19.4957 1163.9,-16.4217"/>
<polygon fill="red" stroke="red" stroke-width="0.198457" points="1163.91,-12.9213 1153.83,-16.1847 1163.75,-19.9194 1163.91,-12.9213"/>
</g>
<!-- &#45;20&#45;&gt;3 -->
<g id="edge77" class="edge"><title>&#45;20&#45;&gt;3</title>
<path fill="none" stroke="green" stroke-width="0.522291" d="M1967.14,-77.7076C1962.97,-73.2884 1957.22,-68.2351 1950.9,-65.6985 1778.36,3.62228 1298.24,-60.7431 1114.9,-29.6985 1107.5,-28.4449 1099.61,-26.3601 1092.5,-24.1839"/>
<polygon fill="green" stroke="green" stroke-width="0.522291" points="1093.37,-20.7864 1082.78,-21.0161 1091.2,-27.442 1093.37,-20.7864"/>
</g>
<!-- &#45;21 -->
<g id="node21" class="node"><title>&#45;21</title>
<polygon fill="lightgray" stroke="black" points="1446.4,-95.9117 1417.4,-95.9117 1417.4,-77.9117 1446.4,-77.9117 1446.4,-95.9117"/>
<text text-anchor="middle" x="1431.9" y="-84.7117" font-family="Times New Roman,serif" font-size="9.00">&#45;21</text>
</g>
<!-- &#45;21&#45;&gt;0 -->
<g id="edge78" class="edge"><title>&#45;21&#45;&gt;0</title>
<path fill="none" stroke="red" stroke-width="0.106223" d="M1425.1,-77.7919C1420.92,-73.4009 1415.17,-68.3476 1408.9,-65.6985 1221.64,13.4488 1147.05,-89.9865 952.902,-29.6985 951.846,-29.3704 950.785,-28.9894 949.73,-28.5678"/>
<polygon fill="red" stroke="red" stroke-width="0.106223" points="951.135,-25.3571 940.628,-24.0022 947.997,-31.6142 951.135,-25.3571"/>
</g>
<!-- &#45;21&#45;&gt;1 -->
<g id="edge79" class="edge"><title>&#45;21&#45;&gt;1</title>
<path fill="none" stroke="red" stroke-width="0.491758" d="M1425.08,-77.8383C1420.89,-73.4628 1415.14,-68.4095 1408.9,-65.6985 1259.8,-0.929169 1205.65,-53.9519 1044.9,-29.6985 1030.29,-27.4938 1014.07,-24.2225 1001.14,-21.4128"/>
<polygon fill="red" stroke="red" stroke-width="0.491758" points="1001.68,-17.9471 991.154,-19.1948 1000.16,-24.7804 1001.68,-17.9471"/>
</g>
<!-- &#45;21&#45;&gt;2 -->
<g id="edge80" class="edge"><title>&#45;21&#45;&gt;2</title>
<path fill="none" stroke="green" stroke-width="0.232942" d="M1424.59,-77.6268C1420.41,-73.4086 1414.83,-68.5763 1408.9,-65.6985 1325.58,-25.2634 1213.2,-17.4916 1163.87,-16.0941"/>
<polygon fill="green" stroke="green" stroke-width="0.232942" points="1163.87,-12.5934 1153.8,-15.875 1163.72,-19.5918 1163.87,-12.5934"/>
</g>
<!-- &#45;21&#45;&gt;3 -->
<g id="edge81" class="edge"><title>&#45;21&#45;&gt;3</title>
<path fill="none" stroke="red" stroke-width="0.342947" d="M1425.06,-77.8926C1420.86,-73.5352 1415.11,-68.4819 1408.9,-65.6985 1288.78,-11.8492 1243.73,-56.7724 1114.9,-29.6985 1107.55,-28.1542 1099.69,-25.9832 1092.57,-23.8173"/>
<polygon fill="red" stroke="red" stroke-width="0.342947" points="1093.43,-20.4165 1082.83,-20.7213 1091.3,-27.0873 1093.43,-20.4165"/>
</g>
<!-- &#45;22 -->
<g id="node22" class="node"><title>&#45;22</title>
<polygon fill="lightgray" stroke="black" points="1493.4,-95.9117 1464.4,-95.9117 1464.4,-77.9117 1493.4,-77.9117 1493.4,-95.9117"/>
<text text-anchor="middle" x="1478.9" y="-84.7117" font-family="Times New Roman,serif" font-size="9.00">&#45;22</text>
</g>
<!-- &#45;22&#45;&gt;0 -->
<g id="edge82" class="edge"><title>&#45;22&#45;&gt;0</title>
<path fill="none" stroke="green" stroke-width="0.141448" d="M1472.11,-77.7746C1467.93,-73.3779 1462.18,-68.3246 1455.9,-65.6985 1249.14,20.8006 1167.19,-95.3783 952.902,-29.6985 951.845,-29.3742 950.783,-28.9965 949.727,-28.5774"/>
<polygon fill="green" stroke="green" stroke-width="0.141448" points="951.131,-25.3661 940.622,-24.0213 947.998,-31.6262 951.131,-25.3661"/>
</g>
<!-- &#45;22&#45;&gt;1 -->
<g id="edge83" class="edge"><title>&#45;22&#45;&gt;1</title>
<path fill="none" stroke="green" stroke-width="0.117621" d="M1472.09,-77.8121C1467.91,-73.4277 1462.16,-68.3744 1455.9,-65.6985 1371.61,-29.6425 1135.63,-42.8682 1044.9,-29.6985 1030.28,-27.5758 1014.06,-24.3079 1001.13,-21.4795"/>
<polygon fill="green" stroke="green" stroke-width="0.117621" points="1001.67,-18.0145 991.147,-19.2418 1000.14,-24.8449 1001.67,-18.0145"/>
</g>
<!-- &#45;22&#45;&gt;2 -->
<g id="edge84" class="edge"><title>&#45;22&#45;&gt;2</title>
<path fill="none" stroke="red" stroke-width="0.49345" d="M1471.62,-77.5637C1467.45,-73.327 1461.87,-68.4972 1455.9,-65.6985 1355.62,-18.675 1219.92,-14.6235 1164.29,-15.1605"/>
<polygon fill="red" stroke="red" stroke-width="0.49345" points="1163.91,-11.6659 1153.97,-15.3242 1164.02,-18.6651 1163.91,-11.6659"/>
</g>
<!-- &#45;22&#45;&gt;3 -->
<g id="edge85" class="edge"><title>&#45;22&#45;&gt;3</title>
<path fill="none" stroke="green" stroke-width="0.276212" d="M1472.08,-77.8538C1467.88,-73.4834 1462.13,-68.4301 1455.9,-65.6985 1316.32,-4.51971 1264.3,-59.7976 1114.9,-29.6985 1107.54,-28.2155 1099.67,-26.0627 1092.55,-23.8946"/>
<polygon fill="green" stroke="green" stroke-width="0.276212" points="1093.41,-20.4946 1082.82,-20.7834 1091.28,-27.1622 1093.41,-20.4946"/>
</g>
<!-- &#45;23 -->
<g id="node23" class="node"><title>&#45;23</title>
<polygon fill="lightgray" stroke="black" points="1540.4,-95.9117 1511.4,-95.9117 1511.4,-77.9117 1540.4,-77.9117 1540.4,-95.9117"/>
<text text-anchor="middle" x="1525.9" y="-84.7117" font-family="Times New Roman,serif" font-size="9.00">&#45;23</text>
</g>
<!-- &#45;23&#45;&gt;0 -->
<g id="edge86" class="edge"><title>&#45;23&#45;&gt;0</title>
<path fill="none" stroke="red" stroke-width="0.141485" d="M1519.12,-77.7603C1514.94,-73.3587 1509.19,-68.3054 1502.9,-65.6985 1276.63,28.1553 1187.33,-100.772 952.902,-29.6985 951.844,-29.3775 950.781,-29.0023 949.725,-28.5854"/>
<polygon fill="red" stroke="red" stroke-width="0.141485" points="951.127,-25.3736 940.617,-24.0372 948,-31.6362 951.127,-25.3736"/>
</g>
<!-- &#45;23&#45;&gt;1 -->
<g id="edge87" class="edge"><title>&#45;23&#45;&gt;1</title>
<path fill="none" stroke="green" stroke-width="0.431362" stroke-dasharray="1,5" d="M1519.1,-77.7911C1514.92,-73.3998 1509.17,-68.3465 1502.9,-65.6985 1408.86,-25.9685 1146,-43.9123 1044.9,-29.6985 1030.27,-27.6411 1014.05,-24.3759 1001.12,-21.5327"/>
<polygon fill="green" stroke="green" stroke-width="0.431362" points="1001.67,-18.0682 991.142,-19.2793 1000.13,-24.8963 1001.67,-18.0682"/>
</g>
<!-- &#45;23&#45;&gt;2 -->
<g id="edge88" class="edge"><title>&#45;23&#45;&gt;2</title>
<path fill="none" stroke="green" stroke-width="0.107176" d="M1518.65,-77.5163C1514.48,-73.2657 1508.9,-68.4377 1502.9,-65.6985 1442.05,-37.897 1236.51,-22.1859 1164.27,-17.4187"/>
<polygon fill="green" stroke="green" stroke-width="0.107176" points="1164.06,-13.8985 1153.86,-16.7474 1163.61,-20.8839 1164.06,-13.8985"/>
</g>
<!-- &#45;23&#45;&gt;3 -->
<g id="edge89" class="edge"><title>&#45;23&#45;&gt;3</title>
<path fill="none" stroke="green" stroke-width="0.419581" d="M1519.09,-77.8241C1514.9,-73.4438 1509.15,-68.3905 1502.9,-65.6985 1343.85,2.81947 1284.89,-62.8275 1114.9,-29.6985 1107.53,-28.2621 1099.66,-26.1231 1092.54,-23.9534"/>
<polygon fill="green" stroke="green" stroke-width="0.419581" points="1093.4,-20.5539 1082.81,-20.8307 1091.26,-27.2191 1093.4,-20.5539"/>
</g>
<!-- &#45;24 -->
<g id="node24" class="node"><title>&#45;24</title>
<polygon fill="lightgray" stroke="black" points="1587.4,-95.9117 1558.4,-95.9117 1558.4,-77.9117 1587.4,-77.9117 1587.4,-95.9117"/>
<text text-anchor="middle" x="1572.9" y="-84.7117" font-family="Times New Roman,serif" font-size="9.00">&#45;24</text>
</g>
<!-- &#45;24&#45;&gt;0 -->
<g id="edge90" class="edge"><title>&#45;24&#45;&gt;0</title>
<path fill="none" stroke="red" stroke-width="0.573595" d="M1566.12,-77.7482C1561.94,-73.3426 1556.19,-68.2893 1549.9,-65.6985 1427.01,-15.0932 1080.19,-67.9331 952.902,-29.6985 951.843,-29.3802 950.78,-29.0073 949.723,-28.5922"/>
<polygon fill="red" stroke="red" stroke-width="0.573595" points="951.124,-25.38 940.613,-24.0506 948.001,-31.6446 951.124,-25.38"/>
</g>
<!-- &#45;24&#45;&gt;1 -->
<g id="edge91" class="edge"><title>&#45;24&#45;&gt;1</title>
<path fill="none" stroke="green" stroke-width="0.162456" d="M1566.11,-77.774C1561.93,-73.377 1556.18,-68.3237 1549.9,-65.6985 1446.11,-22.2925 1156.37,-44.957 1044.9,-29.6985 1030.26,-27.6943 1014.04,-24.4314 1001.11,-21.576"/>
<polygon fill="green" stroke="green" stroke-width="0.162456" points="1001.66,-18.112 991.137,-19.3099 1000.11,-24.9381 1001.66,-18.112"/>
</g>
<!-- &#45;24&#45;&gt;2 -->
<g id="edge92" class="edge"><title>&#45;24&#45;&gt;2</title>
<path fill="none" stroke="red" stroke-width="0.156319" d="M1566.06,-77.89C1561.86,-73.5316 1556.11,-68.4783 1549.9,-65.6985 1480.18,-34.4921 1242.92,-20.7418 1164.38,-16.973"/>
<polygon fill="red" stroke="red" stroke-width="0.156319" points="1164.14,-13.4579 1153.98,-16.4885 1163.81,-20.4503 1164.14,-13.4579"/>
</g>
<!-- &#45;24&#45;&gt;3 -->
<g id="edge93" class="edge"><title>&#45;24&#45;&gt;3</title>
<path fill="none" stroke="green" stroke-width="0.337785" d="M1566.1,-77.8008C1561.91,-73.4127 1556.16,-68.3594 1549.9,-65.6985 1371.36,10.1651 1305.5,-65.8605 1114.9,-29.6985 1107.53,-28.2988 1099.65,-26.1707 1092.53,-23.9996"/>
<polygon fill="green" stroke="green" stroke-width="0.337785" points="1093.4,-20.6006 1082.81,-20.8679 1091.25,-27.2639 1093.4,-20.6006"/>
</g>
<!-- &#45;25 -->
<g id="node25" class="node"><title>&#45;25</title>
<polygon fill="lightgray" stroke="black" points="1634.4,-95.9117 1605.4,-95.9117 1605.4,-77.9117 1634.4,-77.9117 1634.4,-95.9117"/>
<text text-anchor="middle" x="1619.9" y="-84.7117" font-family="Times New Roman,serif" font-size="9.00">&#45;25</text>
</g>
<!-- &#45;25&#45;&gt;0 -->
<g id="edge94" class="edge"><title>&#45;25&#45;&gt;0</title>
<path fill="none" stroke="green" stroke-width="0.426583" d="M1613.13,-77.7378C1608.95,-73.3288 1603.2,-68.2755 1596.9,-65.6985 1464.25,-11.4139 1090.27,-70.6316 952.902,-29.6985 951.842,-29.3825 950.779,-29.0115 949.721,-28.598"/>
<polygon fill="green" stroke="green" stroke-width="0.426583" points="951.121,-25.3854 940.609,-24.062 948.002,-31.6518 951.121,-25.3854"/>
</g>
<!-- &#45;25&#45;&gt;1 -->
<g id="edge95" class="edge"><title>&#45;25&#45;&gt;1</title>
<path fill="none" stroke="red" stroke-width="0.390254" d="M1613.12,-77.7597C1608.94,-73.358 1603.19,-68.3047 1596.9,-65.6985 1483.35,-18.6151 1166.74,-46.0022 1044.9,-29.6985 1030.26,-27.7386 1014.03,-24.4775 1001.11,-21.612"/>
<polygon fill="red" stroke="red" stroke-width="0.390254" points="1001.66,-18.1484 991.134,-19.3353 1000.1,-24.9729 1001.66,-18.1484"/>
</g>
<!-- &#45;25&#45;&gt;2 -->
<g id="edge96" class="edge"><title>&#45;25&#45;&gt;2</title>
<path fill="none" stroke="red" stroke-width="0.259788" d="M1613.07,-77.8613C1608.88,-73.4934 1603.13,-68.4401 1596.9,-65.6985 1518.09,-31.0009 1247.82,-19.4052 1163.94,-16.5967"/>
<polygon fill="red" stroke="red" stroke-width="0.259788" points="1163.91,-13.094 1153.8,-16.2702 1163.68,-20.0904 1163.91,-13.094"/>
</g>
<!-- &#45;25&#45;&gt;3 -->
<g id="edge97" class="edge"><title>&#45;25&#45;&gt;3</title>
<path fill="none" stroke="red" stroke-width="0.29248" d="M1613.11,-77.7819C1608.93,-73.3876 1603.18,-68.3343 1596.9,-65.6985 1497.88,-24.0916 1220.51,-49.2971 1114.9,-29.6985 1107.52,-28.3284 1099.64,-26.2091 1092.53,-24.037"/>
<polygon fill="red" stroke="red" stroke-width="0.29248" points="1093.39,-20.6383 1082.8,-20.8979 1091.24,-27.3 1093.39,-20.6383"/>
</g>
<!-- &#45;26 -->
<g id="node26" class="node"><title>&#45;26</title>
<polygon fill="lightgray" stroke="black" points="1681.4,-95.9117 1652.4,-95.9117 1652.4,-77.9117 1681.4,-77.9117 1681.4,-95.9117"/>
<text text-anchor="middle" x="1666.9" y="-84.7117" font-family="Times New Roman,serif" font-size="9.00">&#45;26</text>
</g>
<!-- &#45;26&#45;&gt;0 -->
<g id="edge98" class="edge"><title>&#45;26&#45;&gt;0</title>
<path fill="none" stroke="red" stroke-width="0.321578" d="M1660.13,-77.7289C1655.95,-73.3169 1650.2,-68.2636 1643.9,-65.6985 1501.48,-7.73388 1100.35,-73.3305 952.902,-29.6985 951.841,-29.3845 950.777,-29.0152 949.719,-28.603"/>
<polygon fill="red" stroke="red" stroke-width="0.321578" points="951.119,-25.3901 940.606,-24.0719 948.002,-31.6581 951.119,-25.3901"/>
</g>
<!-- &#45;26&#45;&gt;1 -->
<g id="edge99" class="edge"><title>&#45;26&#45;&gt;1</title>
<path fill="none" stroke="red" stroke-width="0.194468" d="M1660.12,-77.7477C1655.94,-73.342 1650.19,-68.2887 1643.9,-65.6985 1520.59,-14.9366 1177.12,-47.0479 1044.9,-29.6985 1030.25,-27.7759 1014.03,-24.5164 1001.1,-21.6424"/>
<polygon fill="red" stroke="red" stroke-width="0.194468" points="1001.66,-18.1791 991.131,-19.3567 1000.1,-25.0022 1001.66,-18.1791"/>
</g>
<!-- &#45;26&#45;&gt;2 -->
<g id="edge100" class="edge"><title>&#45;26&#45;&gt;2</title>
<path fill="none" stroke="red" stroke-width="0.216671" d="M1660.08,-77.8379C1655.89,-73.4622 1650.14,-68.4089 1643.9,-65.6985 1556.05,-27.5472 1253.13,-18.2426 1163.85,-16.3049"/>
<polygon fill="red" stroke="red" stroke-width="0.216671" points="1163.9,-12.8051 1153.83,-16.0993 1163.75,-19.8037 1163.9,-12.8051"/>
</g>
<!-- &#45;26&#45;&gt;3 -->
<g id="edge101" class="edge"><title>&#45;26&#45;&gt;3</title>
<path fill="none" stroke="red" stroke-width="0.270025" d="M1660.11,-77.7664C1655.93,-73.3669 1650.18,-68.3136 1643.9,-65.6985 1535.12,-20.4148 1230.82,-50.8155 1114.9,-29.6985 1107.52,-28.3528 1099.63,-26.2407 1092.52,-24.0677"/>
<polygon fill="red" stroke="red" stroke-width="0.270025" points="1093.39,-20.6693 1082.8,-20.9227 1091.23,-27.3297 1093.39,-20.6693"/>
</g>
<!-- &#45;27 -->
<g id="node27" class="node"><title>&#45;27</title>
<polygon fill="lightgray" stroke="black" points="1728.4,-95.9117 1699.4,-95.9117 1699.4,-77.9117 1728.4,-77.9117 1728.4,-95.9117"/>
<text text-anchor="middle" x="1713.9" y="-84.7117" font-family="Times New Roman,serif" font-size="9.00">&#45;27</text>
</g>
<!-- &#45;27&#45;&gt;0 -->
<g id="edge102" class="edge"><title>&#45;27&#45;&gt;0</title>
<path fill="none" stroke="red" stroke-width="0.25134" d="M1707.13,-77.7211C1702.96,-73.3064 1697.21,-68.2531 1690.9,-65.6985 1538.72,-4.05335 1110.43,-76.0299 952.902,-29.6985 951.841,-29.3863 950.777,-29.0184 949.718,-28.6073"/>
<polygon fill="red" stroke="red" stroke-width="0.25134" points="951.117,-25.3942 940.604,-24.0806 948.003,-31.6635 951.117,-25.3942"/>
</g>
<!-- &#45;27&#45;&gt;1 -->
<g id="edge103" class="edge"><title>&#45;27&#45;&gt;1</title>
<path fill="none" stroke="green" stroke-width="0.273993" d="M1707.13,-77.7374C1702.95,-73.3283 1697.2,-68.275 1690.9,-65.6985 1557.83,-11.2573 1187.5,-48.0938 1044.9,-29.6985 1030.25,-27.8078 1014.02,-24.5496 1001.1,-21.6684"/>
<polygon fill="green" stroke="green" stroke-width="0.273993" points="1001.66,-18.2053 991.129,-19.3751 1000.09,-25.0272 1001.66,-18.2053"/>
</g>
<!-- &#45;27&#45;&gt;2 -->
<g id="edge104" class="edge"><title>&#45;27&#45;&gt;2</title>
<path fill="none" stroke="red" stroke-width="0.65508" d="M1707.09,-77.8184C1702.9,-73.4362 1697.15,-68.3829 1690.9,-65.6985 1594.05,-24.1171 1258.71,-17.1972 1164,-16.0661"/>
<polygon fill="red" stroke="red" stroke-width="0.65508" points="1163.94,-12.5654 1153.91,-15.9572 1163.87,-19.565 1163.94,-12.5654"/>
</g>
<!-- &#45;27&#45;&gt;3 -->
<g id="edge105" class="edge"><title>&#45;27&#45;&gt;3</title>
<path fill="none" stroke="red" stroke-width="0.229401" d="M1707.12,-77.7534C1702.94,-73.3495 1697.19,-68.2962 1690.9,-65.6985 1572.37,-16.7368 1241.14,-52.3345 1114.9,-29.6985 1107.51,-28.3732 1099.63,-26.2672 1092.52,-24.0935"/>
<polygon fill="red" stroke="red" stroke-width="0.229401" points="1093.38,-20.6953 1082.79,-20.9434 1091.23,-27.3546 1093.38,-20.6953"/>
</g>
<!-- &#45;28 -->
<g id="node28" class="node"><title>&#45;28</title>
<polygon fill="lightgray" stroke="black" points="1775.4,-95.9117 1746.4,-95.9117 1746.4,-77.9117 1775.4,-77.9117 1775.4,-95.9117"/>
<text text-anchor="middle" x="1760.9" y="-84.7117" font-family="Times New Roman,serif" font-size="9.00">&#45;28</text>
</g>
<!-- &#45;28&#45;&gt;0 -->
<g id="edge106" class="edge"><title>&#45;28&#45;&gt;0</title>
<path fill="none" stroke="red" stroke-width="0.217314" d="M1754.14,-77.7142C1749.96,-73.2972 1744.21,-68.2439 1737.9,-65.6985 1575.95,-0.372383 1120.51,-78.7296 952.902,-29.6985 951.841,-29.3878 950.776,-29.0212 949.717,-28.6112"/>
<polygon fill="red" stroke="red" stroke-width="0.217314" points="951.115,-25.3978 940.602,-24.0882 948.004,-31.6683 951.115,-25.3978"/>
</g>
<!-- &#45;28&#45;&gt;1 -->
<g id="edge107" class="edge"><title>&#45;28&#45;&gt;1</title>
<path fill="none" stroke="green" stroke-width="0.204258" d="M1754.13,-77.7285C1749.96,-73.3164 1744.21,-68.2631 1737.9,-65.6985 1595.07,-7.57727 1197.88,-49.1399 1044.9,-29.6985 1030.24,-27.8354 1014.02,-24.5784 1001.1,-21.6909"/>
<polygon fill="green" stroke="green" stroke-width="0.204258" points="1001.66,-18.228 991.127,-19.3909 1000.08,-25.0489 1001.66,-18.228"/>
</g>
<!-- &#45;28&#45;&gt;2 -->
<g id="edge108" class="edge"><title>&#45;28&#45;&gt;2</title>
<path fill="none" stroke="red" stroke-width="0.488464" d="M1754.1,-77.8019C1749.91,-73.4142 1744.16,-68.3609 1737.9,-65.6985 1631.92,-20.6371 1263.4,-16.2222 1163.85,-15.8611"/>
<polygon fill="red" stroke="red" stroke-width="0.488464" points="1163.83,-12.3612 1153.82,-15.8357 1163.81,-19.3611 1163.83,-12.3612"/>
</g>
<!-- &#45;28&#45;&gt;3 -->
<g id="edge109" class="edge"><title>&#45;28&#45;&gt;3</title>
<path fill="none" stroke="red" stroke-width="0.682662" d="M1754.12,-77.7423C1749.95,-73.3347 1744.2,-68.2814 1737.9,-65.6985 1609.61,-13.0579 1251.46,-53.8539 1114.9,-29.6985 1107.51,-28.3906 1099.63,-26.2897 1092.51,-24.1154"/>
<polygon fill="red" stroke="red" stroke-width="0.682662" points="1093.38,-20.7173 1082.79,-20.961 1091.22,-27.3758 1093.38,-20.7173"/>
</g>
<!-- &#45;29 -->
<g id="node29" class="node"><title>&#45;29</title>
<polygon fill="lightgray" stroke="black" points="263.402,-95.9117 234.402,-95.9117 234.402,-77.9117 263.402,-77.9117 263.402,-95.9117"/>
<text text-anchor="middle" x="248.902" y="-84.7117" font-family="Times New Roman,serif" font-size="9.00">&#45;29</text>
</g>
<!-- &#45;29&#45;&gt;0 -->
<g id="edge110" class="edge"><title>&#45;29&#45;&gt;0</title>
<path fill="none" stroke="green" stroke-width="0.628441" d="M255.699,-77.7847C259.881,-73.3913 265.631,-68.338 271.902,-65.6985 389.134,-16.3599 798.461,-15.1236 903.951,-15.6498"/>
<polygon fill="green" stroke="green" stroke-width="0.628441" points="903.961,-19.1499 913.982,-15.7103 904.004,-12.15 903.961,-19.1499"/>
</g>
<!-- &#45;29&#45;&gt;1 -->
<g id="edge111" class="edge"><title>&#45;29&#45;&gt;1</title>
<path fill="none" stroke="green" stroke-width="0.197193" stroke-dasharray="1,5" d="M255.676,-77.7307C259.851,-73.3193 265.601,-68.266 271.902,-65.6985 412.245,-8.5169 807.603,-72.7562 952.902,-29.6985 953.963,-29.3841 955.027,-29.0144 956.085,-28.6019"/>
<polygon fill="green" stroke="green" stroke-width="0.197193" points="957.803,-31.6568 965.198,-24.07 954.686,-25.3891 957.803,-31.6568"/>
</g>
<!-- &#45;29&#45;&gt;2 -->
<g id="edge112" class="edge"><title>&#45;29&#45;&gt;2</title>
<path fill="none" stroke="red" stroke-width="0.236825" d="M255.668,-77.7094C259.84,-73.2909 265.59,-68.2376 271.902,-65.6985 441.331,2.44734 912.858,-60.2578 1092.9,-29.6985 1100.31,-28.442 1108.19,-26.3564 1115.3,-24.1802"/>
<polygon fill="red" stroke="red" stroke-width="0.236825" points="1116.6,-27.4385 1125.03,-21.0131 1114.43,-20.7827 1116.6,-27.4385"/>
</g>
<!-- &#45;29&#45;&gt;3 -->
<g id="edge113" class="edge"><title>&#45;29&#45;&gt;3</title>
<path fill="none" stroke="red" stroke-width="0.234444" d="M255.673,-77.7225C259.847,-73.3083 265.597,-68.255 271.902,-65.6985 422.216,-4.75817 839.973,-49.9413 1000.9,-29.6985 1015.56,-27.8542 1031.79,-24.5979 1044.71,-21.7061"/>
<polygon fill="red" stroke="red" stroke-width="0.234444" points="1045.72,-25.0636 1054.68,-19.4017 1044.15,-18.2434 1045.72,-25.0636"/>
</g>
<!-- &#45;30 -->
<g id="node30" class="node"><title>&#45;30</title>
<polygon fill="lightgray" stroke="black" points="310.402,-95.9117 281.402,-95.9117 281.402,-77.9117 310.402,-77.9117 310.402,-95.9117"/>
<text text-anchor="middle" x="295.902" y="-84.7117" font-family="Times New Roman,serif" font-size="9.00">&#45;30</text>
</g>
<!-- &#45;30&#45;&gt;0 -->
<g id="edge114" class="edge"><title>&#45;30&#45;&gt;0</title>
<path fill="none" stroke="green" stroke-width="0.135129" d="M302.705,-77.7984C306.889,-73.4095 312.639,-68.3562 318.902,-65.6985 426.972,-19.8456 802.949,-16.0095 903.829,-15.8183"/>
<polygon fill="green" stroke="green" stroke-width="0.135129" points="903.989,-19.3182 913.986,-15.8101 903.983,-12.3182 903.989,-19.3182"/>
</g>
<!-- &#45;30&#45;&gt;1 -->
<g id="edge115" class="edge"><title>&#45;30&#45;&gt;1</title>
<path fill="none" stroke="green" stroke-width="0.277523" d="M302.68,-77.7399C306.856,-73.3316 312.606,-68.2783 318.902,-65.6985 449.483,-12.1968 817.681,-70.0574 952.902,-29.6985 953.963,-29.382 955.026,-29.0107 956.084,-28.5968"/>
<polygon fill="green" stroke="green" stroke-width="0.277523" points="957.803,-31.6504 965.195,-24.0597 954.683,-25.3843 957.803,-31.6504"/>
</g>
<!-- &#45;30&#45;&gt;2 -->
<g id="edge116" class="edge"><title>&#45;30&#45;&gt;2</title>
<path fill="none" stroke="red" stroke-width="0.402162" stroke-dasharray="1,5" d="M302.67,-77.7157C306.843,-73.2993 312.593,-68.246 318.902,-65.6985 478.566,-1.23392 923.183,-58.7374 1092.9,-29.6985 1100.3,-28.4321 1108.19,-26.3436 1115.3,-24.1678"/>
<polygon fill="red" stroke="red" stroke-width="0.402162" points="1116.6,-27.4265 1125.02,-21.0032 1114.43,-20.7702 1116.6,-27.4265"/>
</g>
<!-- &#45;30&#45;&gt;3 -->
<g id="edge117" class="edge"><title>&#45;30&#45;&gt;3</title>
<path fill="none" stroke="red" stroke-width="0.380639" d="M302.676,-77.7305C306.851,-73.319 312.601,-68.2657 318.902,-65.6985 459.453,-8.4386 850.355,-48.8951 1000.9,-29.6985 1015.56,-27.8293 1031.78,-24.572 1044.71,-21.6859"/>
<polygon fill="red" stroke="red" stroke-width="0.380639" points="1045.72,-25.0441 1054.68,-19.3874 1044.15,-18.223 1045.72,-25.0441"/>
</g>
<!-- &#45;31 -->
<g id="node31" class="node"><title>&#45;31</title>
<polygon fill="lightgray" stroke="black" points="357.402,-95.9117 328.402,-95.9117 328.402,-77.9117 357.402,-77.9117 357.402,-95.9117"/>
<text text-anchor="middle" x="342.902" y="-84.7117" font-family="Times New Roman,serif" font-size="9.00">&#45;31</text>
</g>
<!-- &#45;31&#45;&gt;0 -->
<g id="edge118" class="edge"><title>&#45;31&#45;&gt;0</title>
<path fill="none" stroke="red" stroke-width="0.112956" d="M349.711,-77.8143C353.898,-73.4307 359.648,-68.3774 365.902,-65.6985 464.815,-23.3352 807.46,-16.9711 903.627,-16.017"/>
<polygon fill="red" stroke="red" stroke-width="0.112956" points="903.892,-19.5149 913.861,-15.9273 903.83,-12.5152 903.892,-19.5149"/>
</g>
<!-- &#45;31&#45;&gt;1 -->
<g id="edge119" class="edge"><title>&#45;31&#45;&gt;1</title>
<path fill="none" stroke="green" stroke-width="0.860359" d="M349.685,-77.7506C353.862,-73.3458 359.612,-68.2925 365.902,-65.6985 486.722,-15.8759 827.757,-67.3591 952.902,-29.6985 953.962,-29.3796 955.025,-29.0063 956.082,-28.5908"/>
<polygon fill="green" stroke="green" stroke-width="0.860359" points="957.804,-31.6429 965.191,-24.0479 954.68,-25.3787 957.804,-31.6429"/>
</g>
<!-- &#45;31&#45;&gt;2 -->
<g id="edge120" class="edge"><title>&#45;31&#45;&gt;2</title>
<path fill="none" stroke="red" stroke-width="0.364906" d="M349.673,-77.7228C353.847,-73.3087 359.597,-68.2554 365.902,-65.6985 515.801,-4.9148 933.507,-57.2171 1092.9,-29.6985 1100.3,-28.421 1108.19,-26.3292 1115.3,-24.1538"/>
<polygon fill="red" stroke="red" stroke-width="0.364906" points="1116.59,-27.4129 1125.02,-20.9919 1114.43,-20.7561 1116.59,-27.4129"/>
</g>
<!-- &#45;31&#45;&gt;3 -->
<g id="edge121" class="edge"><title>&#45;31&#45;&gt;3</title>
<path fill="none" stroke="green" stroke-width="0.273247" d="M349.68,-77.7397C353.856,-73.3313 359.606,-68.278 365.902,-65.6985 496.691,-12.1185 860.735,-47.849 1000.9,-29.6985 1015.56,-27.8008 1031.78,-24.5423 1044.7,-21.6626"/>
<polygon fill="green" stroke="green" stroke-width="0.273247" points="1045.71,-25.0217 1054.68,-19.371 1044.15,-18.1995 1045.71,-25.0217"/>
</g>
<!-- &#45;32 -->
<g id="node32" class="node"><title>&#45;32</title>
<polygon fill="lightgray" stroke="black" points="404.402,-95.9117 375.402,-95.9117 375.402,-77.9117 404.402,-77.9117 404.402,-95.9117"/>
<text text-anchor="middle" x="389.902" y="-84.7117" font-family="Times New Roman,serif" font-size="9.00">&#45;32</text>
</g>
<!-- &#45;32&#45;&gt;0 -->
<g id="edge122" class="edge"><title>&#45;32&#45;&gt;0</title>
<path fill="none" stroke="red" stroke-width="0.155638" d="M396.719,-77.833C400.908,-73.4557 406.658,-68.4024 412.902,-65.6985 502.69,-26.8177 812.189,-18.0227 903.409,-16.2552"/>
<polygon fill="red" stroke="red" stroke-width="0.155638" points="903.717,-19.7503 913.652,-16.069 903.59,-12.7514 903.717,-19.7503"/>
</g>
<!-- &#45;32&#45;&gt;1 -->
<g id="edge123" class="edge"><title>&#45;32&#45;&gt;1</title>
<path fill="none" stroke="red" stroke-width="0.327956" d="M396.69,-77.7631C400.869,-73.3625 406.619,-68.3092 412.902,-65.6985 635.026,26.5902 722.758,-99.6244 952.902,-29.6985 953.961,-29.3768 955.023,-29.0012 956.08,-28.5838"/>
<polygon fill="red" stroke="red" stroke-width="0.327956" points="957.806,-31.6342 965.187,-24.0341 954.677,-25.3721 957.806,-31.6342"/>
</g>
<!-- &#45;32&#45;&gt;2 -->
<g id="edge124" class="edge"><title>&#45;32&#45;&gt;2</title>
<path fill="none" stroke="red" stroke-width="0.215577" d="M396.676,-77.7309C400.851,-73.3195 406.601,-68.2662 412.902,-65.6985 553.037,-8.5952 943.83,-55.697 1092.9,-29.6985 1100.3,-28.4084 1108.18,-26.3128 1115.3,-24.1379"/>
<polygon fill="red" stroke="red" stroke-width="0.215577" points="1116.59,-27.3976 1125.02,-20.9791 1114.43,-20.74 1116.59,-27.3976"/>
</g>
<!-- &#45;32&#45;&gt;3 -->
<g id="edge125" class="edge"><title>&#45;32&#45;&gt;3</title>
<path fill="none" stroke="red" stroke-width="0.258803" d="M396.684,-77.7504C400.862,-73.3455 406.612,-68.2922 412.902,-65.6985 533.93,-15.7976 871.113,-46.8031 1000.9,-29.6985 1015.55,-27.7677 1031.78,-24.5078 1044.7,-21.6357"/>
<polygon fill="red" stroke="red" stroke-width="0.258803" points="1045.71,-24.9957 1054.67,-19.352 1044.14,-18.1723 1045.71,-24.9957"/>
</g>
<!-- &#45;33 -->
<g id="node33" class="node"><title>&#45;33</title>
<polygon fill="lightgray" stroke="black" points="451.402,-95.9117 422.402,-95.9117 422.402,-77.9117 451.402,-77.9117 451.402,-95.9117"/>
<text text-anchor="middle" x="436.902" y="-84.7117" font-family="Times New Roman,serif" font-size="9.00">&#45;33</text>
</g>
<!-- &#45;33&#45;&gt;0 -->
<g id="edge126" class="edge"><title>&#45;33&#45;&gt;0</title>
<path fill="none" stroke="red" stroke-width="0.49063" d="M443.729,-77.8554C447.921,-73.4856 453.671,-68.4323 459.902,-65.6985 540.716,-30.2429 817.943,-19.1532 903.53,-16.534"/>
<polygon fill="red" stroke="red" stroke-width="0.49063" points="903.754,-20.029 913.647,-16.237 903.549,-13.032 903.754,-20.029"/>
</g>
<!-- &#45;33&#45;&gt;1 -->
<g id="edge127" class="edge"><title>&#45;33&#45;&gt;1</title>
<path fill="none" stroke="red" stroke-width="0.367242" d="M443.696,-77.778C447.877,-73.3824 453.627,-68.3291 459.902,-65.6985 662.515,19.2361 742.899,-94.2309 952.902,-29.6985 953.96,-29.3735 955.021,-28.9951 956.077,-28.5755"/>
<polygon fill="red" stroke="red" stroke-width="0.367242" points="957.807,-31.6238 965.182,-24.0176 954.673,-25.3643 957.807,-31.6238"/>
</g>
<!-- &#45;33&#45;&gt;2 -->
<g id="edge128" class="edge"><title>&#45;33&#45;&gt;2</title>
<path fill="none" stroke="green" stroke-width="0.294192" d="M443.68,-77.7401C447.856,-73.3318 453.606,-68.2785 459.902,-65.6985 590.275,-12.275 954.151,-54.1772 1092.9,-29.6985 1100.3,-28.3939 1108.18,-26.294 1115.29,-24.1196"/>
<polygon fill="green" stroke="green" stroke-width="0.294192" points="1116.59,-27.3799 1125.02,-20.9644 1114.43,-20.7216 1116.59,-27.3799"/>
</g>
<!-- &#45;33&#45;&gt;3 -->
<g id="edge129" class="edge"><title>&#45;33&#45;&gt;3</title>
<path fill="none" stroke="green" stroke-width="0.152392" d="M443.69,-77.7629C447.869,-73.3621 453.619,-68.3088 459.902,-65.6985 571.172,-19.4759 881.489,-45.7576 1000.9,-29.6985 1015.55,-27.7289 1031.77,-24.4674 1044.7,-21.6041"/>
<polygon fill="green" stroke="green" stroke-width="0.152392" points="1045.7,-24.9653 1054.67,-19.3297 1044.14,-18.1404 1045.7,-24.9653"/>
</g>
<!-- &#45;34 -->
<g id="node34" class="node"><title>&#45;34</title>
<polygon fill="lightgray" stroke="black" points="498.402,-95.9117 469.402,-95.9117 469.402,-77.9117 498.402,-77.9117 498.402,-95.9117"/>
<text text-anchor="middle" x="483.902" y="-84.7117" font-family="Times New Roman,serif" font-size="9.00">&#45;34</text>
</g>
<!-- &#45;34&#45;&gt;0 -->
<g id="edge130" class="edge"><title>&#45;34&#45;&gt;0</title>
<path fill="none" stroke="green" stroke-width="0.462884" d="M490.741,-77.8827C494.937,-73.5219 500.687,-68.4686 506.902,-65.6985 578.82,-33.6432 824.207,-20.3865 903.775,-16.8658"/>
<polygon fill="green" stroke="green" stroke-width="0.462884" points="904.025,-20.3584 913.866,-16.4327 903.725,-13.3648 904.025,-20.3584"/>
</g>
<!-- &#45;34&#45;&gt;1 -->
<g id="edge131" class="edge"><title>&#45;34&#45;&gt;1</title>
<path fill="none" stroke="green" stroke-width="0.326247" d="M490.704,-77.796C494.887,-73.4064 500.637,-68.3531 506.902,-65.6985 690.011,11.885 763.033,-88.8397 952.902,-29.6985 953.959,-29.3694 955.019,-28.9877 956.074,-28.5655"/>
<polygon fill="green" stroke="green" stroke-width="0.326247" points="957.808,-31.6113 965.176,-23.9977 954.668,-25.3549 957.808,-31.6113"/>
</g>
<!-- &#45;34&#45;&gt;2 -->
<g id="edge132" class="edge"><title>&#45;34&#45;&gt;2</title>
<path fill="none" stroke="red" stroke-width="0.165884" d="M490.685,-77.7509C494.862,-73.3461 500.612,-68.2928 506.902,-65.6985 627.515,-15.9542 964.471,-52.6577 1092.9,-29.6985 1100.29,-28.3771 1108.18,-26.2723 1115.29,-24.0984"/>
<polygon fill="red" stroke="red" stroke-width="0.165884" points="1116.58,-27.3594 1125.01,-20.9474 1114.42,-20.7003 1116.58,-27.3594"/>
</g>
<!-- &#45;34&#45;&gt;3 -->
<g id="edge133" class="edge"><title>&#45;34&#45;&gt;3</title>
<path fill="none" stroke="green" stroke-width="0.221028" d="M490.696,-77.7777C494.877,-73.3819 500.627,-68.3286 506.902,-65.6985 608.416,-23.153 891.862,-44.7124 1000.9,-29.6985 1015.54,-27.6828 1031.76,-24.4193 1044.69,-21.5666"/>
<polygon fill="green" stroke="green" stroke-width="0.221028" points="1045.69,-24.929 1054.67,-19.3033 1044.14,-18.1025 1045.69,-24.929"/>
</g>
<!-- &#45;35 -->
<g id="node35" class="node"><title>&#45;35</title>
<polygon fill="lightgray" stroke="black" points="545.402,-95.9117 516.402,-95.9117 516.402,-77.9117 545.402,-77.9117 545.402,-95.9117"/>
<text text-anchor="middle" x="530.902" y="-84.7117" font-family="Times New Roman,serif" font-size="9.00">&#45;35</text>
</g>
<!-- &#45;35&#45;&gt;0 -->
<g id="edge134" class="edge"><title>&#45;35&#45;&gt;0</title>
<path fill="none" stroke="red" stroke-width="0.130524" d="M538.155,-77.5069C542.318,-73.2535 547.901,-68.4259 553.902,-65.6985 616.888,-37.0725 830.191,-21.8009 903.733,-17.2913"/>
<polygon fill="red" stroke="red" stroke-width="0.130524" points="904.141,-20.7732 913.914,-16.6815 903.723,-13.7857 904.141,-20.7732"/>
</g>
<!-- &#45;35&#45;&gt;1 -->
<g id="edge135" class="edge"><title>&#45;35&#45;&gt;1</title>
<path fill="none" stroke="red" stroke-width="0.279364" d="M537.713,-77.8182C541.9,-73.4359 547.65,-68.3826 553.902,-65.6985 717.518,4.53817 783.156,-83.4518 952.902,-29.6985 953.957,-29.3645 955.016,-28.9787 956.07,-28.5531"/>
<polygon fill="red" stroke="red" stroke-width="0.279364" points="957.81,-31.5959 965.168,-23.9731 954.662,-25.3434 957.81,-31.5959"/>
</g>
<!-- &#45;35&#45;&gt;2 -->
<g id="edge136" class="edge"><title>&#45;35&#45;&gt;2</title>
<path fill="none" stroke="green" stroke-width="0.159646" d="M537.69,-77.7634C541.869,-73.3629 547.619,-68.3096 553.902,-65.6985 664.757,-19.6324 974.788,-51.1386 1092.9,-29.6985 1100.29,-28.3574 1108.17,-26.2467 1115.28,-24.0736"/>
<polygon fill="green" stroke="green" stroke-width="0.159646" points="1116.57,-27.3354 1125.01,-20.9274 1114.42,-20.6752 1116.57,-27.3354"/>
</g>
<!-- &#45;35&#45;&gt;3 -->
<g id="edge137" class="edge"><title>&#45;35&#45;&gt;3</title>
<path fill="none" stroke="red" stroke-width="0.26967" d="M537.703,-77.7956C541.887,-73.4058 547.637,-68.3525 553.902,-65.6985 645.664,-26.8285 902.231,-43.6678 1000.9,-29.6985 1015.53,-27.627 1031.76,-24.3613 1044.68,-21.5212"/>
<polygon fill="red" stroke="red" stroke-width="0.26967" points="1045.68,-24.8852 1054.66,-19.2712 1044.14,-18.0567 1045.68,-24.8852"/>
</g>
<!-- &#45;36 -->
<g id="node36" class="node"><title>&#45;36</title>
<polygon fill="lightgray" stroke="black" points="592.402,-95.9117 563.402,-95.9117 563.402,-77.9117 592.402,-77.9117 592.402,-95.9117"/>
<text text-anchor="middle" x="577.902" y="-84.7117" font-family="Times New Roman,serif" font-size="9.00">&#45;36</text>
</g>
<!-- &#45;36&#45;&gt;0 -->
<g id="edge138" class="edge"><title>&#45;36&#45;&gt;0</title>
<path fill="none" stroke="green" stroke-width="0.333879" d="M585.175,-77.5515C589.344,-73.3112 594.927,-68.4818 600.902,-65.6985 655.06,-40.4723 836.834,-23.3956 903.831,-17.8259"/>
<polygon fill="green" stroke="green" stroke-width="0.333879" points="904.229,-21.3052 913.911,-17.0033 903.659,-14.3284 904.229,-21.3052"/>
</g>
<!-- &#45;36&#45;&gt;1 -->
<g id="edge139" class="edge"><title>&#45;36&#45;&gt;1</title>
<path fill="none" stroke="red" stroke-width="0.618083" d="M584.725,-77.8461C588.916,-73.4732 594.666,-68.4199 600.902,-65.6985 745.038,-2.80275 803.266,-78.0684 952.902,-29.6985 953.955,-29.3582 955.013,-28.9672 956.065,-28.5375"/>
<polygon fill="red" stroke="red" stroke-width="0.618083" points="957.812,-31.5764 965.158,-23.9422 954.655,-25.3288 957.812,-31.5764"/>
</g>
<!-- &#45;36&#45;&gt;2 -->
<g id="edge140" class="edge"><title>&#45;36&#45;&gt;2</title>
<path fill="none" stroke="green" stroke-width="0.596568" d="M584.696,-77.7784C588.877,-73.3829 594.627,-68.3296 600.902,-65.6985 702.001,-23.3094 985.102,-49.6201 1092.9,-29.6985 1100.29,-28.334 1108.17,-26.2163 1115.28,-24.044"/>
<polygon fill="green" stroke="green" stroke-width="0.596568" points="1116.57,-27.3068 1125.01,-20.9036 1114.41,-20.6454 1116.57,-27.3068"/>
</g>
<!-- &#45;36&#45;&gt;3 -->
<g id="edge141" class="edge"><title>&#45;36&#45;&gt;3</title>
<path fill="none" stroke="red" stroke-width="0.436829" d="M584.713,-77.8177C588.9,-73.4352 594.65,-68.3819 600.902,-65.6985 764.932,4.69443 824.288,-55.5495 1000.9,-29.6985 1015.52,-27.5583 1031.74,-24.2897 1044.68,-21.4653"/>
<polygon fill="red" stroke="red" stroke-width="0.436829" points="1045.66,-24.8312 1054.66,-19.2318 1044.13,-18.0001 1045.66,-24.8312"/>
</g>
<!-- &#45;37 -->
<g id="node37" class="node"><title>&#45;37</title>
<polygon fill="lightgray" stroke="black" points="639.402,-95.9117 610.402,-95.9117 610.402,-77.9117 639.402,-77.9117 639.402,-95.9117"/>
<text text-anchor="middle" x="624.902" y="-84.7117" font-family="Times New Roman,serif" font-size="9.00">&#45;37</text>
</g>
<!-- &#45;37&#45;&gt;0 -->
<g id="edge142" class="edge"><title>&#45;37&#45;&gt;0</title>
<path fill="none" stroke="red" stroke-width="0.446483" d="M632.203,-77.6103C636.38,-73.3872 641.962,-68.5555 647.902,-65.6985 735.259,-23.6849 853.214,-16.7731 903.977,-15.8493"/>
<polygon fill="red" stroke="red" stroke-width="0.446483" points="904.069,-19.3486 914.027,-15.7312 903.987,-12.3491 904.069,-19.3486"/>
</g>
<!-- &#45;37&#45;&gt;1 -->
<g id="edge143" class="edge"><title>&#45;37&#45;&gt;1</title>
<path fill="none" stroke="red" stroke-width="0.109247" d="M631.741,-77.8825C635.937,-73.5217 641.687,-68.4684 647.902,-65.6985 772.578,-10.1349 823.354,-72.6917 952.902,-29.6985 953.781,-29.4068 954.664,-29.0807 955.544,-28.7269"/>
<polygon fill="red" stroke="red" stroke-width="0.109247" points="957.261,-31.7823 964.652,-24.1914 954.14,-25.5163 957.261,-31.7823"/>
</g>
<!-- &#45;37&#45;&gt;2 -->
<g id="edge144" class="edge"><title>&#45;37&#45;&gt;2</title>
<path fill="none" stroke="green" stroke-width="0.497767" d="M631.704,-77.7965C635.887,-73.4069 641.637,-68.3536 647.902,-65.6985 830.596,11.7287 897.922,-66.5062 1092.9,-29.6985 1100.28,-28.3056 1108.16,-26.1795 1115.27,-24.0082"/>
<polygon fill="green" stroke="green" stroke-width="0.497767" points="1116.56,-27.2722 1125,-20.8748 1114.41,-20.6093 1116.56,-27.2722"/>
</g>
<!-- &#45;37&#45;&gt;3 -->
<g id="edge145" class="edge"><title>&#45;37&#45;&gt;3</title>
<path fill="none" stroke="red" stroke-width="0.457838" d="M631.725,-77.8455C635.916,-73.4723 641.666,-68.419 647.902,-65.6985 792.452,-2.64664 845.001,-53.464 1000.9,-29.6985 1015.51,-27.4715 1031.73,-24.1993 1044.67,-21.3947"/>
<polygon fill="red" stroke="red" stroke-width="0.457838" points="1045.64,-24.7629 1054.65,-19.182 1044.13,-17.9287 1045.64,-24.7629"/>
</g>
<!-- &#45;38 -->
<g id="node38" class="node"><title>&#45;38</title>
<polygon fill="lightgray" stroke="black" points="686.402,-95.9117 657.402,-95.9117 657.402,-77.9117 686.402,-77.9117 686.402,-95.9117"/>
<text text-anchor="middle" x="671.902" y="-84.7117" font-family="Times New Roman,serif" font-size="9.00">&#45;38</text>
</g>
<!-- &#45;38&#45;&gt;0 -->
<g id="edge146" class="edge"><title>&#45;38&#45;&gt;0</title>
<path fill="none" stroke="red" stroke-width="0.255616" d="M679.243,-77.6912C683.432,-73.4919 689.012,-68.657 694.902,-65.6985 765.221,-30.3811 859.611,-20.036 903.937,-17.044"/>
<polygon fill="red" stroke="red" stroke-width="0.255616" points="904.312,-20.5278 914.082,-16.431 903.889,-13.5405 904.312,-20.5278"/>
</g>
<!-- &#45;38&#45;&gt;1 -->
<g id="edge147" class="edge"><title>&#45;38&#45;&gt;1</title>
<path fill="none" stroke="green" stroke-width="0.375261" stroke-dasharray="1,5" d="M679.162,-77.5224C683.327,-73.2736 688.91,-68.4453 694.902,-65.6985 800.149,-17.4533 843.41,-67.3257 952.902,-29.6985 953.778,-29.3975 954.658,-29.0635 955.536,-28.7031"/>
<polygon fill="green" stroke="green" stroke-width="0.375261" points="957.266,-31.751 964.633,-24.1366 954.126,-25.495 957.266,-31.751"/>
</g>
<!-- &#45;38&#45;&gt;2 -->
<g id="edge148" class="edge"><title>&#45;38&#45;&gt;2</title>
<path fill="none" stroke="green" stroke-width="0.297004" d="M678.713,-77.8187C682.9,-73.4366 688.65,-68.3833 694.902,-65.6985 858.103,4.38191 918.532,-63.4726 1092.9,-29.6985 1100.27,-28.2706 1108.15,-26.1342 1115.26,-23.9641"/>
<polygon fill="green" stroke="green" stroke-width="0.297004" points="1116.54,-27.2295 1124.99,-20.8394 1114.4,-20.5648 1116.54,-27.2295"/>
</g>
<!-- &#45;38&#45;&gt;3 -->
<g id="edge149" class="edge"><title>&#45;38&#45;&gt;3</title>
<path fill="none" stroke="red" stroke-width="0.563258" stroke-dasharray="1,5" d="M678.741,-77.8816C682.937,-73.5205 688.687,-68.4672 694.902,-65.6985 819.992,-9.979 865.692,-51.3818 1000.9,-29.6985 1015.49,-27.3586 1031.71,-24.0816 1044.65,-21.3027"/>
<polygon fill="red" stroke="red" stroke-width="0.563258" points="1045.62,-24.6739 1054.64,-19.1171 1044.12,-17.8357 1045.62,-24.6739"/>
</g>
<!-- &#45;39 -->
<g id="node39" class="node"><title>&#45;39</title>
<polygon fill="lightgray" stroke="black" points="1941.4,-95.9117 1912.4,-95.9117 1912.4,-77.9117 1941.4,-77.9117 1941.4,-95.9117"/>
<text text-anchor="middle" x="1926.9" y="-84.7117" font-family="Times New Roman,serif" font-size="9.00">&#45;39</text>
</g>
<!-- &#45;39&#45;&gt;1 -->
<g id="edge150" class="edge"><title>&#45;39&#45;&gt;1</title>
<path fill="none" stroke="green" stroke-width="0.461514" stroke-dasharray="1,5" d="M1911.91,-79.752C1899.54,-74.9786 1881.39,-68.6903 1864.9,-65.6985 1505.97,-0.563753 1406.97,-74.2365 1044.9,-29.6985 1030.24,-27.8943 1014.01,-24.6397 1001.09,-21.7388"/>
<polygon fill="green" stroke="green" stroke-width="0.461514" points="1001.65,-18.2763 991.123,-19.4247 1000.07,-25.0951 1001.65,-18.2763"/>
</g>
<!-- &#45;39&#45;&gt;2 -->
<g id="edge151" class="edge"><title>&#45;39&#45;&gt;2</title>
<path fill="none" stroke="green" stroke-width="0.131637" d="M1917.96,-77.754C1912.57,-73.3503 1905.32,-68.297 1897.9,-65.6985 1758,-16.6587 1279.67,-15.2947 1164.16,-15.7006"/>
<polygon fill="green" stroke="green" stroke-width="0.131637" points="1163.84,-12.2019 1153.85,-15.7454 1163.87,-19.2018 1163.84,-12.2019"/>
</g>
<!-- &#45;39&#45;&gt;3 -->
<g id="edge152" class="edge"><title>&#45;39&#45;&gt;3</title>
<path fill="none" stroke="green" stroke-width="0.331138" d="M1917.98,-77.6993C1912.59,-73.2774 1905.34,-68.2241 1897.9,-65.6985 1732.97,-9.69569 1286.6,-59.0285 1114.9,-29.6985 1107.5,-28.4341 1099.62,-26.3462 1092.5,-24.1703"/>
<polygon fill="green" stroke="green" stroke-width="0.331138" points="1093.37,-20.7727 1082.78,-21.0052 1091.21,-27.4289 1093.37,-20.7727"/>
</g>
<!-- &#45;40 -->
<g id="node40" class="node"><title>&#45;40</title>
<polygon fill="lightgray" stroke="black" points="733.402,-95.9117 704.402,-95.9117 704.402,-77.9117 733.402,-77.9117 733.402,-95.9117"/>
<text text-anchor="middle" x="718.902" y="-84.7117" font-family="Times New Roman,serif" font-size="9.00">&#45;40</text>
</g>
<!-- &#45;40&#45;&gt;0 -->
<g id="edge153" class="edge"><title>&#45;40&#45;&gt;0</title>
<path fill="none" stroke="red" stroke-width="0.188646" d="M726.688,-77.8238C731.096,-73.6633 736.914,-68.8232 742.902,-65.6985 796.355,-37.8088 866.804,-24.475 903.775,-19.0297"/>
<polygon fill="red" stroke="red" stroke-width="0.188646" points="904.698,-22.4348 914.118,-17.5856 903.73,-15.5021 904.698,-22.4348"/>
</g>
<!-- &#45;40&#45;&gt;1 -->
<g id="edge154" class="edge"><title>&#45;40&#45;&gt;1</title>
<path fill="none" stroke="red" stroke-width="0.338896" d="M726.578,-77.6013C730.954,-73.3756 736.776,-68.5443 742.902,-65.6985 828.784,-25.8044 863.838,-61.8644 952.902,-29.6985 953.773,-29.3839 954.649,-29.0384 955.524,-28.6682"/>
<polygon fill="red" stroke="red" stroke-width="0.338896" points="957.274,-31.7052 964.605,-24.0563 954.104,-25.4639 957.274,-31.7052"/>
</g>
<!-- &#45;40&#45;&gt;2 -->
<g id="edge155" class="edge"><title>&#45;40&#45;&gt;2</title>
<path fill="none" stroke="green" stroke-width="0.19299" d="M726.088,-77.8475C730.483,-73.475 736.483,-68.4217 742.902,-65.6985 886.86,-4.62596 939.565,-60.3774 1092.9,-29.6985 1100.27,-28.2254 1108.14,-26.0755 1115.25,-23.9071"/>
<polygon fill="green" stroke="green" stroke-width="0.19299" points="1116.53,-27.1743 1124.99,-20.7935 1114.39,-20.5072 1116.53,-27.1743"/>
</g>
<!-- &#45;40&#45;&gt;3 -->
<g id="edge156" class="edge"><title>&#45;40&#45;&gt;3</title>
<path fill="none" stroke="green" stroke-width="0.318985" d="M726.544,-77.525C730.909,-73.2769 736.733,-68.4486 742.902,-65.6985 848.651,-18.5631 886.79,-49.2607 1000.9,-29.6985 1015.47,-27.2016 1031.69,-23.9181 1044.63,-21.175"/>
<polygon fill="green" stroke="green" stroke-width="0.318985" points="1045.58,-24.5501 1054.62,-19.0269 1044.11,-17.7064 1045.58,-24.5501"/>
</g>
<!-- 580&#45;&gt;1 -->
<g id="edge160" class="edge"><title>580&#45;&gt;1</title>
<path fill="none" stroke="green" stroke-width="0.117331" d="M126.961,-73.8818C132.443,-70.6276 138.706,-67.5081 144.902,-65.6985 489.958,35.0668 607.829,-130.403 952.902,-29.6985 953.965,-29.3885 955.03,-29.0225 956.088,-28.6129"/>
<polygon fill="green" stroke="green" stroke-width="0.117331" points="957.801,-31.6705 965.204,-24.0916 954.69,-25.3994 957.801,-31.6705"/>
</g>
<!-- 181&#45;&gt;2 -->
<g id="edge158" class="edge"><title>181&#45;&gt;2</title>
<path fill="none" stroke="green" stroke-width="0.184424" d="M2086.83,-73.9162C2081.35,-70.6634 2075.09,-67.536 2068.9,-65.6985 1892.5,-13.3188 1294.58,-14.6753 1164.16,-15.62"/>
<polygon fill="green" stroke="green" stroke-width="0.184424" points="1163.94,-12.1215 1153.97,-15.7002 1164,-19.1213 1163.94,-12.1215"/>
</g>
</g>
</svg>
