<?xml version="1.0" encoding="UTF-8" standalone="no"?>
<!DOCTYPE svg PUBLIC "-//W3C//DTD SVG 1.1//EN"
 "http://www.w3.org/Graphics/SVG/1.1/DTD/svg11.dtd">
<!-- Generated by graphviz version 2.38.0 (20140413.2041)
 -->
<!-- Title: %3 Pages: 1 -->
<svg width="1933pt" height="170pt"
 viewBox="0.00 0.00 1932.85 170.12" xmlns="http://www.w3.org/2000/svg" xmlns:xlink="http://www.w3.org/1999/xlink">
<g id="graph0" class="graph" transform="scale(1 1) rotate(0) translate(4 166.125)">
<title>%3</title>
<polygon fill="white" stroke="none" points="-4,4 -4,-166.125 1928.85,-166.125 1928.85,4 -4,4"/>
<!-- &#45;1 -->
<g id="node1" class="node"><title>&#45;1</title>
<polygon fill="lightgray" stroke="black" points="371.048,-95.9117 347.048,-95.9117 347.048,-77.9117 371.048,-77.9117 371.048,-95.9117"/>
<text text-anchor="middle" x="359.048" y="-84.7117" font-family="Times New Roman,serif" font-size="9.00">&#45;1</text>
</g>
<!-- 0 -->
<g id="node41" class="node"><title>0</title>
<ellipse fill="lightblue" stroke="black" cx="897.048" cy="-14.8492" rx="14.7" ry="14.7"/>
<text text-anchor="middle" x="897.048" y="-12.6492" font-family="Times New Roman,serif" font-size="9.00">0</text>
</g>
<!-- &#45;1&#45;&gt;0 -->
<g id="edge1" class="edge"><title>&#45;1&#45;&gt;0</title>
<path fill="none" stroke="green" stroke-width="0.4385" d="M365.135,-77.8356C368.914,-73.4591 374.164,-68.4058 380.048,-65.6985 469.303,-24.6329 781.209,-17.3595 872.047,-16.1042"/>
<polygon fill="green" stroke="green" stroke-width="0.4385" points="872.272,-19.6017 882.227,-15.9765 872.184,-12.6023 872.272,-19.6017"/>
</g>
<!-- 1 -->
<g id="node42" class="node"><title>1</title>
<ellipse fill="lightblue" stroke="black" cx="967.048" cy="-14.8492" rx="14.7" ry="14.7"/>
<text text-anchor="middle" x="967.048" y="-12.6492" font-family="Times New Roman,serif" font-size="9.00">1</text>
</g>
<!-- &#45;1&#45;&gt;1 -->
<g id="edge2" class="edge"><title>&#45;1&#45;&gt;1</title>
<path fill="none" stroke="red" stroke-width="0.191108" stroke-dasharray="1,5" d="M365.105,-77.7699C368.874,-73.3715 374.124,-68.3182 380.048,-65.6985 490.242,-16.9671 802.495,-51.2033 921.048,-29.6985 928.436,-28.3583 936.317,-26.2479 943.431,-24.0747"/>
<polygon fill="red" stroke="red" stroke-width="0.191108" points="944.719,-27.3365 953.156,-20.9283 942.564,-20.6763 944.719,-27.3365"/>
</g>
<!-- 2 -->
<g id="node43" class="node"><title>2</title>
<ellipse fill="lightblue" stroke="black" cx="1026.05" cy="-14.8492" rx="14.7" ry="14.7"/>
<text text-anchor="middle" x="1026.05" y="-12.6492" font-family="Times New Roman,serif" font-size="9.00">2</text>
</g>
<!-- &#45;1&#45;&gt;2 -->
<g id="edge3" class="edge"><title>&#45;1&#45;&gt;2</title>
<path fill="none" stroke="green" stroke-width="0.413196" d="M365.098,-77.753C368.864,-73.349 374.114,-68.2957 380.048,-65.6985 504.648,-11.1606 858.249,-59.0911 991.048,-29.6985 995.165,-28.7872 999.431,-27.4553 1003.51,-25.9728"/>
<polygon fill="green" stroke="green" stroke-width="0.413196" points="1005.09,-29.1085 1013.06,-22.131 1002.48,-22.6136 1005.09,-29.1085"/>
</g>
<!-- 3 -->
<g id="node44" class="node"><title>3</title>
<ellipse fill="lightblue" stroke="black" cx="1074.05" cy="-14.8492" rx="14.7" ry="14.7"/>
<text text-anchor="middle" x="1074.05" y="-12.6492" font-family="Times New Roman,serif" font-size="9.00">3</text>
</g>
<!-- &#45;1&#45;&gt;3 -->
<g id="edge4" class="edge"><title>&#45;1&#45;&gt;3</title>
<path fill="none" stroke="red" stroke-width="0.317167" d="M365.093,-77.7415C368.858,-73.3336 374.108,-68.2803 380.048,-65.6985 516.794,-6.26511 907.108,-72.1245 1050.05,-29.6985 1051.11,-29.3837 1052.17,-29.0136 1053.23,-28.6008"/>
<polygon fill="red" stroke="red" stroke-width="0.317167" points="1054.95,-31.6554 1062.34,-24.0677 1051.83,-25.3881 1054.95,-31.6554"/>
</g>
<!-- &#45;2 -->
<g id="node2" class="node"><title>&#45;2</title>
<polygon fill="lightgray" stroke="black" points="413.048,-95.9117 389.048,-95.9117 389.048,-77.9117 413.048,-77.9117 413.048,-95.9117"/>
<text text-anchor="middle" x="401.048" y="-84.7117" font-family="Times New Roman,serif" font-size="9.00">&#45;2</text>
</g>
<!-- &#45;2&#45;&gt;0 -->
<g id="edge5" class="edge"><title>&#45;2&#45;&gt;0</title>
<path fill="none" stroke="red" stroke-width="0.403192" d="M407.143,-77.8542C410.925,-73.4839 416.175,-68.4306 422.048,-65.6985 503.255,-27.9197 785.661,-18.4032 871.866,-16.3525"/>
<polygon fill="red" stroke="red" stroke-width="0.403192" points="872.118,-19.8478 882.037,-16.1241 871.961,-12.8496 872.118,-19.8478"/>
</g>
<!-- &#45;2&#45;&gt;1 -->
<g id="edge6" class="edge"><title>&#45;2&#45;&gt;1</title>
<path fill="none" stroke="green" stroke-width="0.307297" d="M407.111,-77.7822C410.882,-73.388 416.132,-68.3347 422.048,-65.6985 523.6,-20.4497 811.712,-49.8462 921.048,-29.6985 928.433,-28.3377 936.312,-26.2212 943.426,-24.0487"/>
<polygon fill="green" stroke="green" stroke-width="0.307297" points="944.712,-27.3114 953.152,-20.9074 942.561,-20.6502 944.712,-27.3114"/>
</g>
<!-- &#45;2&#45;&gt;2 -->
<g id="edge7" class="edge"><title>&#45;2&#45;&gt;2</title>
<path fill="none" stroke="green" stroke-width="0.4068" stroke-dasharray="1,5" d="M407.102,-77.7626C410.87,-73.3618 416.12,-68.3085 422.048,-65.6985 538.004,-14.6447 867.404,-57.3459 991.048,-29.6985 995.163,-28.7783 999.428,-27.442 1003.51,-25.9578"/>
<polygon fill="green" stroke="green" stroke-width="0.4068" points="1005.09,-29.0937 1013.06,-22.1168 1002.48,-22.5986 1005.09,-29.0937"/>
</g>
<!-- &#45;2&#45;&gt;3 -->
<g id="edge8" class="edge"><title>&#45;2&#45;&gt;3</title>
<path fill="none" stroke="red" stroke-width="0.121846" stroke-dasharray="1,5" d="M407.096,-77.7494C410.862,-73.3443 416.112,-68.291 422.048,-65.6985 550.148,-9.75015 916.113,-69.7129 1050.05,-29.6985 1051.11,-29.3818 1052.17,-29.0102 1053.23,-28.5961"/>
<polygon fill="red" stroke="red" stroke-width="0.121846" points="1054.95,-31.6495 1062.34,-24.0583 1051.83,-25.3836 1054.95,-31.6495"/>
</g>
<!-- &#45;3 -->
<g id="node3" class="node"><title>&#45;3</title>
<polygon fill="lightgray" stroke="black" points="455.048,-95.9117 431.048,-95.9117 431.048,-77.9117 455.048,-77.9117 455.048,-95.9117"/>
<text text-anchor="middle" x="443.048" y="-84.7117" font-family="Times New Roman,serif" font-size="9.00">&#45;3</text>
</g>
<!-- &#45;3&#45;&gt;0 -->
<g id="edge9" class="edge"><title>&#45;3&#45;&gt;0</title>
<path fill="none" stroke="green" stroke-width="0.548156" d="M449.154,-77.8763C452.939,-73.5134 458.189,-68.4601 464.048,-65.6985 537.266,-31.1874 790.508,-19.5438 871.751,-16.6492"/>
<polygon fill="green" stroke="green" stroke-width="0.548156" points="872.162,-20.1373 882.036,-16.2974 871.922,-13.1414 872.162,-20.1373"/>
</g>
<!-- &#45;3&#45;&gt;1 -->
<g id="edge10" class="edge"><title>&#45;3&#45;&gt;1</title>
<path fill="none" stroke="green" stroke-width="0.439324" d="M449.117,-77.7969C452.89,-73.4075 458.14,-68.3542 464.048,-65.6985 556.962,-23.9311 820.926,-48.4898 921.048,-29.6985 928.428,-28.3134 936.306,-26.1896 943.42,-24.0181"/>
<polygon fill="green" stroke="green" stroke-width="0.439324" points="944.704,-27.2817 953.148,-20.8827 942.556,-20.6192 944.704,-27.2817"/>
</g>
<!-- &#45;3&#45;&gt;2 -->
<g id="edge11" class="edge"><title>&#45;3&#45;&gt;2</title>
<path fill="none" stroke="green" stroke-width="0.26191" d="M449.107,-77.7738C452.877,-73.3767 458.127,-68.3234 464.048,-65.6985 571.361,-18.1281 876.558,-55.6011 991.048,-29.6985 995.161,-28.7679 999.424,-27.4265 1003.5,-25.9405"/>
<polygon fill="green" stroke="green" stroke-width="0.26191" points="1005.08,-29.0765 1013.06,-22.1003 1002.47,-22.5813 1005.08,-29.0765"/>
</g>
<!-- &#45;3&#45;&gt;3 -->
<g id="edge12" class="edge"><title>&#45;3&#45;&gt;3</title>
<path fill="none" stroke="red" stroke-width="0.360258" d="M449.1,-77.7586C452.868,-73.3564 458.118,-68.3031 464.048,-65.6985 583.502,-13.2346 925.117,-67.3017 1050.05,-29.6985 1051.11,-29.3796 1052.17,-29.0062 1053.23,-28.5907"/>
<polygon fill="red" stroke="red" stroke-width="0.360258" points="1054.95,-31.6428 1062.34,-24.0477 1051.83,-25.3786 1054.95,-31.6428"/>
</g>
<!-- &#45;4 -->
<g id="node4" class="node"><title>&#45;4</title>
<polygon fill="lightgray" stroke="black" points="497.048,-95.9117 473.048,-95.9117 473.048,-77.9117 497.048,-77.9117 497.048,-95.9117"/>
<text text-anchor="middle" x="485.048" y="-84.7117" font-family="Times New Roman,serif" font-size="9.00">&#45;4</text>
</g>
<!-- &#45;4&#45;&gt;0 -->
<g id="edge13" class="edge"><title>&#45;4&#45;&gt;0</title>
<path fill="none" stroke="red" stroke-width="0.328401" d="M491.167,-77.903C494.956,-73.5491 500.206,-68.4958 506.048,-65.6985 571.494,-34.3618 796.831,-20.7349 872.24,-16.9809"/>
<polygon fill="red" stroke="red" stroke-width="0.328401" points="872.422,-20.4763 882.241,-16.4977 872.084,-13.4844 872.422,-20.4763"/>
</g>
<!-- &#45;4&#45;&gt;1 -->
<g id="edge14" class="edge"><title>&#45;4&#45;&gt;1</title>
<path fill="none" stroke="red" stroke-width="0.232959" d="M491.125,-77.8144C494.901,-73.4309 500.151,-68.3775 506.048,-65.6985 674.607,10.8768 739.225,-64.5695 921.048,-29.6985 928.422,-28.2842 936.299,-26.1518 943.413,-23.9812"/>
<polygon fill="red" stroke="red" stroke-width="0.232959" points="944.694,-27.2461 953.142,-20.8531 942.551,-20.582 944.694,-27.2461"/>
</g>
<!-- &#45;4&#45;&gt;2 -->
<g id="edge15" class="edge"><title>&#45;4&#45;&gt;2</title>
<path fill="none" stroke="green" stroke-width="0.144694" d="M491.113,-77.7868C494.884,-73.3941 500.134,-68.3408 506.048,-65.6985 604.721,-21.6103 885.708,-53.8568 991.048,-29.6985 995.158,-28.7558 999.42,-27.4084 1003.5,-25.9202"/>
<polygon fill="green" stroke="green" stroke-width="0.144694" points="1005.08,-29.0564 1013.05,-22.081 1002.47,-22.5609 1005.08,-29.0564"/>
</g>
<!-- &#45;4&#45;&gt;3 -->
<g id="edge16" class="edge"><title>&#45;4&#45;&gt;3</title>
<path fill="none" stroke="green" stroke-width="0.459211" d="M491.105,-77.7691C494.874,-73.3704 500.124,-68.3171 506.048,-65.6985 616.859,-16.7183 934.119,-64.891 1050.05,-29.6985 1051.11,-29.3771 1052.17,-29.0016 1053.23,-28.5845"/>
<polygon fill="green" stroke="green" stroke-width="0.459211" points="1054.95,-31.635 1062.33,-24.0353 1051.82,-25.3727 1054.95,-31.635"/>
</g>
<!-- &#45;5 -->
<g id="node5" class="node"><title>&#45;5</title>
<polygon fill="lightgray" stroke="black" points="539.048,-95.9117 515.048,-95.9117 515.048,-77.9117 539.048,-77.9117 539.048,-95.9117"/>
<text text-anchor="middle" x="527.048" y="-84.7117" font-family="Times New Roman,serif" font-size="9.00">&#45;5</text>
</g>
<!-- &#45;5&#45;&gt;0 -->
<g id="edge17" class="edge"><title>&#45;5&#45;&gt;0</title>
<path fill="none" stroke="red" stroke-width="0.125613" d="M533.542,-77.5268C537.306,-73.2793 542.409,-68.4509 548.048,-65.6985 605.609,-37.6022 802.337,-22.1265 872.193,-17.4155"/>
<polygon fill="red" stroke="red" stroke-width="0.125613" points="872.526,-20.9013 882.274,-16.7516 872.066,-13.9164 872.526,-20.9013"/>
</g>
<!-- &#45;5&#45;&gt;1 -->
<g id="edge18" class="edge"><title>&#45;5&#45;&gt;1</title>
<path fill="none" stroke="red" stroke-width="0.219083" d="M533.135,-77.8358C536.914,-73.4594 542.164,-68.4061 548.048,-65.6985 699.347,3.92173 757.635,-61.8601 921.048,-29.6985 928.416,-28.2485 936.29,-26.1055 943.404,-23.9362"/>
<polygon fill="red" stroke="red" stroke-width="0.219083" points="944.681,-27.2025 953.135,-20.8169 942.544,-20.5366 944.681,-27.2025"/>
</g>
<!-- &#45;5&#45;&gt;2 -->
<g id="edge19" class="edge"><title>&#45;5&#45;&gt;2</title>
<path fill="none" stroke="red" stroke-width="0.333473" d="M533.12,-77.8023C536.894,-73.4148 542.144,-68.3615 548.048,-65.6985 728.119,15.5161 798.664,-74.5282 991.048,-29.6985 995.155,-28.7415 999.415,-27.3869 1003.49,-25.8961"/>
<polygon fill="red" stroke="red" stroke-width="0.333473" points="1005.07,-29.0326 1013.05,-22.0581 1002.46,-22.5368 1005.07,-29.0326"/>
</g>
<!-- &#45;5&#45;&gt;3 -->
<g id="edge20" class="edge"><title>&#45;5&#45;&gt;3</title>
<path fill="none" stroke="green" stroke-width="0.253713" d="M533.11,-77.7813C536.881,-73.3867 542.131,-68.3334 548.048,-65.6985 752.387,25.2966 836.189,-95.2635 1050.05,-29.6985 1051.11,-29.3742 1052.17,-28.9963 1053.22,-28.5772"/>
<polygon fill="green" stroke="green" stroke-width="0.253713" points="1054.95,-31.626 1062.33,-24.021 1051.82,-25.366 1054.95,-31.626"/>
</g>
<!-- &#45;6 -->
<g id="node6" class="node"><title>&#45;6</title>
<polygon fill="lightgray" stroke="black" points="102.048,-95.9117 78.048,-95.9117 78.048,-77.9117 102.048,-77.9117 102.048,-95.9117"/>
<text text-anchor="middle" x="90.048" y="-84.7117" font-family="Times New Roman,serif" font-size="9.00">&#45;6</text>
</g>
<!-- &#45;6&#45;&gt;0 -->
<g id="edge21" class="edge"><title>&#45;6&#45;&gt;0</title>
<path fill="none" stroke="red" stroke-width="0.423153" d="M97.9155,-77.7504C102.705,-73.3455 109.205,-68.2922 116.048,-65.6985 258.971,-11.5288 753.933,-14.0713 871.74,-15.4819"/>
<polygon fill="red" stroke="red" stroke-width="0.423153" points="871.895,-18.9841 881.939,-15.613 871.985,-11.9847 871.895,-18.9841"/>
</g>
<!-- &#45;6&#45;&gt;1 -->
<g id="edge22" class="edge"><title>&#45;6&#45;&gt;1</title>
<path fill="none" stroke="red" stroke-width="0.403241" d="M97.8972,-77.7014C102.68,-73.2802 109.18,-68.2269 116.048,-65.6985 284.089,-3.83273 744.518,-59.7402 921.048,-29.6985 928.45,-28.4388 936.336,-26.3522 943.448,-24.1761"/>
<polygon fill="red" stroke="red" stroke-width="0.403241" points="944.746,-27.4345 953.171,-21.0099 942.578,-20.7786 944.746,-27.4345"/>
</g>
<!-- &#45;6&#45;&gt;2 -->
<g id="edge23" class="edge"><title>&#45;6&#45;&gt;2</title>
<path fill="none" stroke="red" stroke-width="0.327643" d="M102.425,-80.5013C114.172,-75.6499 132.45,-68.8287 149.048,-65.6985 517.124,3.71548 624.694,-107.692 991.048,-29.6985 995.173,-28.8204 999.442,-27.505 1003.52,-26.0286"/>
<polygon fill="red" stroke="red" stroke-width="0.327643" points="1005.11,-29.1636 1013.08,-22.184 1002.49,-22.6695 1005.11,-29.1636"/>
</g>
<!-- &#45;7 -->
<g id="node7" class="node"><title>&#45;7</title>
<polygon fill="lightgray" stroke="black" points="581.048,-95.9117 557.048,-95.9117 557.048,-77.9117 581.048,-77.9117 581.048,-95.9117"/>
<text text-anchor="middle" x="569.048" y="-84.7117" font-family="Times New Roman,serif" font-size="9.00">&#45;7</text>
</g>
<!-- &#45;7&#45;&gt;0 -->
<g id="edge24" class="edge"><title>&#45;7&#45;&gt;0</title>
<path fill="none" stroke="red" stroke-width="0.187809" d="M575.564,-77.5697C579.333,-73.3347 584.436,-68.5046 590.048,-65.6985 685.837,-17.805 817.474,-14.2011 871.916,-15.0075"/>
<polygon fill="red" stroke="red" stroke-width="0.187809" points="871.96,-18.5091 882.032,-15.2239 872.109,-11.5107 871.96,-18.5091"/>
</g>
<!-- &#45;7&#45;&gt;1 -->
<g id="edge25" class="edge"><title>&#45;7&#45;&gt;1</title>
<path fill="none" stroke="red" stroke-width="0.282975" d="M575.147,-77.8625C578.93,-73.495 584.18,-68.4417 590.048,-65.6985 724.1,-3.02723 776.031,-59.1534 921.048,-29.6985 928.407,-28.2039 936.279,-26.0476 943.393,-23.88"/>
<polygon fill="red" stroke="red" stroke-width="0.282975" points="944.665,-27.148 953.126,-20.7717 942.535,-20.4798 944.665,-27.148"/>
</g>
<!-- &#45;7&#45;&gt;2 -->
<g id="edge26" class="edge"><title>&#45;7&#45;&gt;2</title>
<path fill="none" stroke="green" stroke-width="0.2198" d="M575.128,-77.821C578.905,-73.4397 584.155,-68.3864 590.048,-65.6985 752.852,8.5579 816.951,-71.0432 991.048,-29.6985 995.151,-28.7241 999.409,-27.361 1003.48,-25.867"/>
<polygon fill="green" stroke="green" stroke-width="0.2198" points="1005.07,-29.0038 1013.04,-22.0305 1002.46,-22.5076 1005.07,-29.0038"/>
</g>
<!-- &#45;7&#45;&gt;3 -->
<g id="edge27" class="edge"><title>&#45;7&#45;&gt;3</title>
<path fill="none" stroke="green" stroke-width="0.427643" d="M575.117,-77.7957C578.89,-73.406 584.14,-68.3527 590.048,-65.6985 777.11,18.3336 854.182,-90.4453 1050.05,-29.6985 1051.1,-29.3707 1052.17,-28.9901 1053.22,-28.5687"/>
<polygon fill="green" stroke="green" stroke-width="0.427643" points="1054.95,-31.6153 1062.32,-24.004 1051.82,-25.3579 1054.95,-31.6153"/>
</g>
<!-- &#45;8 -->
<g id="node8" class="node"><title>&#45;8</title>
<polygon fill="lightgray" stroke="black" points="623.048,-95.9117 599.048,-95.9117 599.048,-77.9117 623.048,-77.9117 623.048,-95.9117"/>
<text text-anchor="middle" x="611.048" y="-84.7117" font-family="Times New Roman,serif" font-size="9.00">&#45;8</text>
</g>
<!-- &#45;8&#45;&gt;0 -->
<g id="edge28" class="edge"><title>&#45;8&#45;&gt;0</title>
<path fill="none" stroke="green" stroke-width="0.43125" d="M617.592,-77.6254C621.37,-73.4067 626.471,-68.5745 632.048,-65.6985 712.53,-24.1945 822.683,-16.9508 871.72,-15.8892"/>
<polygon fill="green" stroke="green" stroke-width="0.43125" points="872.075,-19.3845 882.024,-15.7404 871.974,-12.3853 872.075,-19.3845"/>
</g>
<!-- &#45;8&#45;&gt;1 -->
<g id="edge29" class="edge"><title>&#45;8&#45;&gt;1</title>
<path fill="none" stroke="green" stroke-width="0.22442" d="M617.163,-77.8967C620.952,-73.5406 626.202,-68.4873 632.048,-65.6985 748.873,-9.9673 794.406,-56.451 921.048,-29.6985 928.395,-28.1465 936.263,-25.9733 943.378,-23.8077"/>
<polygon fill="green" stroke="green" stroke-width="0.22442" points="944.644,-27.078 953.114,-20.7135 942.524,-20.4068 944.644,-27.078"/>
</g>
<!-- &#45;8&#45;&gt;2 -->
<g id="edge30" class="edge"><title>&#45;8&#45;&gt;2</title>
<path fill="none" stroke="green" stroke-width="0.238035" d="M617.139,-77.844C620.919,-73.4703 626.169,-68.417 632.048,-65.6985 777.596,1.60462 835.226,-67.5609 991.048,-29.6985 995.076,-28.7197 999.257,-27.3755 1003.27,-25.9072"/>
<polygon fill="green" stroke="green" stroke-width="0.238035" points="1004.71,-29.0984 1012.7,-22.1389 1002.12,-22.5977 1004.71,-29.0984"/>
</g>
<!-- &#45;8&#45;&gt;3 -->
<g id="edge31" class="edge"><title>&#45;8&#45;&gt;3</title>
<path fill="none" stroke="green" stroke-width="0.380134" d="M617.125,-77.813C620.9,-73.429 626.15,-68.3757 632.048,-65.6985 801.84,11.3738 872.169,-85.6294 1050.05,-29.6985 1051.1,-29.3666 1052.16,-28.9826 1053.22,-28.5584"/>
<polygon fill="green" stroke="green" stroke-width="0.380134" points="1054.95,-31.6025 1062.32,-23.9837 1051.81,-25.3484 1054.95,-31.6025"/>
</g>
<!-- &#45;9 -->
<g id="node9" class="node"><title>&#45;9</title>
<polygon fill="lightgray" stroke="black" points="665.048,-95.9117 641.048,-95.9117 641.048,-77.9117 665.048,-77.9117 665.048,-95.9117"/>
<text text-anchor="middle" x="653.048" y="-84.7117" font-family="Times New Roman,serif" font-size="9.00">&#45;9</text>
</g>
<!-- &#45;9&#45;&gt;0 -->
<g id="edge32" class="edge"><title>&#45;9&#45;&gt;0</title>
<path fill="none" stroke="green" stroke-width="0.433082" stroke-dasharray="1,5" d="M660.018,-77.7094C664.009,-73.5154 669.349,-68.6798 675.048,-65.6985 740.733,-31.3361 829.414,-20.5653 872.078,-17.2635"/>
<polygon fill="green" stroke="green" stroke-width="0.433082" points="872.397,-20.7498 882.128,-16.5604 871.908,-13.7669 872.397,-20.7498"/>
</g>
<!-- &#45;9&#45;&gt;1 -->
<g id="edge33" class="edge"><title>&#45;9&#45;&gt;1</title>
<path fill="none" stroke="green" stroke-width="0.246186" d="M659.931,-77.536C663.897,-73.2912 669.241,-68.4624 675.048,-65.6985 774.822,-18.2133 813.186,-53.691 921.048,-29.6985 928.378,-28.0681 936.241,-25.8716 943.357,-23.7088"/>
<polygon fill="green" stroke="green" stroke-width="0.246186" points="944.614,-26.982 953.097,-20.634 942.507,-20.3067 944.614,-26.982"/>
</g>
<!-- &#45;9&#45;&gt;2 -->
<g id="edge34" class="edge"><title>&#45;9&#45;&gt;2</title>
<path fill="none" stroke="green" stroke-width="0.185543" d="M659.518,-77.873C663.509,-73.509 669.009,-68.4557 675.048,-65.6985 803.635,-6.99557 853.92,-63.9998 991.048,-29.6985 995.07,-28.6925 999.247,-27.3347 1003.26,-25.8611"/>
<polygon fill="green" stroke="green" stroke-width="0.185543" points="1004.7,-29.0526 1012.69,-22.0944 1002.11,-22.5515 1004.7,-29.0526"/>
</g>
<!-- &#45;9&#45;&gt;3 -->
<g id="edge35" class="edge"><title>&#45;9&#45;&gt;3</title>
<path fill="none" stroke="red" stroke-width="0.100647" d="M659.5,-77.8327C663.484,-73.4553 668.984,-68.402 675.048,-65.6985 827.97,2.48246 890.573,-80.7021 1050.05,-29.6985 1051.1,-29.3614 1052.16,-28.9732 1053.21,-28.5456"/>
<polygon fill="red" stroke="red" stroke-width="0.100647" points="1054.96,-31.5865 1062.31,-23.9583 1051.8,-25.3364 1054.96,-31.5865"/>
</g>
<!-- &#45;10 -->
<g id="node10" class="node"><title>&#45;10</title>
<polygon fill="lightgray" stroke="black" points="712.548,-95.9117 683.548,-95.9117 683.548,-77.9117 712.548,-77.9117 712.548,-95.9117"/>
<text text-anchor="middle" x="698.048" y="-84.7117" font-family="Times New Roman,serif" font-size="9.00">&#45;10</text>
</g>
<!-- &#45;10&#45;&gt;0 -->
<g id="edge36" class="edge"><title>&#45;10&#45;&gt;0</title>
<path fill="none" stroke="green" stroke-width="0.277121" d="M705.853,-77.8611C710.267,-73.7115 716.084,-68.87 722.048,-65.6985 771.63,-39.333 836.733,-25.5473 871.896,-19.5836"/>
<polygon fill="green" stroke="green" stroke-width="0.277121" points="872.89,-22.9684 882.203,-17.9162 871.772,-16.0582 872.89,-22.9684"/>
</g>
<!-- &#45;10&#45;&gt;1 -->
<g id="edge37" class="edge"><title>&#45;10&#45;&gt;1</title>
<path fill="none" stroke="green" stroke-width="0.144644" d="M705.734,-77.6238C710.113,-73.4046 715.935,-68.5724 722.048,-65.6985 803.388,-27.4587 833.653,-50.6879 921.048,-29.6985 928.349,-27.945 936.204,-25.7119 943.321,-23.5535"/>
<polygon fill="green" stroke="green" stroke-width="0.144644" points="944.566,-26.8313 953.068,-20.5091 942.479,-20.1496 944.566,-26.8313"/>
</g>
<!-- &#45;10&#45;&gt;2 -->
<g id="edge38" class="edge"><title>&#45;10&#45;&gt;2</title>
<path fill="none" stroke="red" stroke-width="0.487456" d="M705.683,-77.5112C710.047,-73.2591 715.871,-68.4313 722.048,-65.6985 832.358,-16.8998 874.324,-60.1145 991.048,-29.6985 995.06,-28.6531 999.232,-27.2755 1003.24,-25.7943"/>
<polygon fill="red" stroke="red" stroke-width="0.487456" points="1004.68,-28.9862 1012.68,-22.0298 1002.09,-22.4845 1004.68,-28.9862"/>
</g>
<!-- &#45;10&#45;&gt;3 -->
<g id="edge39" class="edge"><title>&#45;10&#45;&gt;3</title>
<path fill="none" stroke="red" stroke-width="0.296261" d="M705.241,-77.8639C709.638,-73.4969 715.638,-68.4436 722.048,-65.6985 856.858,-7.96313 910.672,-75.3218 1050.05,-29.6985 1050.93,-29.4104 1051.81,-29.0873 1052.69,-28.7362"/>
<polygon fill="red" stroke="red" stroke-width="0.296261" points="1054.4,-31.7944 1061.8,-24.2126 1051.29,-25.5246 1054.4,-31.7944"/>
</g>
<!-- &#45;11 -->
<g id="node11" class="node"><title>&#45;11</title>
<polygon fill="lightgray" stroke="black" points="759.548,-95.9117 730.548,-95.9117 730.548,-77.9117 759.548,-77.9117 759.548,-95.9117"/>
<text text-anchor="middle" x="745.048" y="-84.7117" font-family="Times New Roman,serif" font-size="9.00">&#45;11</text>
</g>
<!-- &#45;11&#45;&gt;0 -->
<g id="edge40" class="edge"><title>&#45;11&#45;&gt;0</title>
<path fill="none" stroke="green" stroke-width="0.218232" d="M753.412,-77.6839C757.802,-73.685 763.427,-69.0351 769.048,-65.6985 803.084,-45.4962 846.788,-30.5365 873.318,-22.513"/>
<polygon fill="green" stroke="green" stroke-width="0.218232" points="874.308,-25.8702 882.913,-19.6885 872.332,-19.1551 874.308,-25.8702"/>
</g>
<!-- &#45;11&#45;&gt;1 -->
<g id="edge41" class="edge"><title>&#45;11&#45;&gt;1</title>
<path fill="none" stroke="green" stroke-width="0.21165" d="M752.798,-77.7536C757.195,-73.5725 763.014,-68.7352 769.048,-65.6985 831.062,-34.489 854.002,-47.7137 921.048,-29.6985 928.3,-27.75 936.14,-25.4591 943.258,-23.3077"/>
<polygon fill="green" stroke="green" stroke-width="0.21165" points="944.485,-26.5922 953.018,-20.3114 942.431,-19.9005 944.485,-26.5922"/>
</g>
<!-- &#45;11&#45;&gt;2 -->
<g id="edge42" class="edge"><title>&#45;11&#45;&gt;2</title>
<path fill="none" stroke="green" stroke-width="0.150809" stroke-dasharray="1,5" d="M752.714,-77.5793C757.086,-73.3471 762.909,-68.5166 769.048,-65.6985 859.889,-23.9972 894.681,-56.2418 991.048,-29.6985 995.045,-28.5976 999.21,-27.192 1003.21,-25.7001"/>
<polygon fill="green" stroke="green" stroke-width="0.150809" points="1004.66,-28.8926 1012.65,-21.9387 1002.07,-22.3901 1004.66,-28.8926"/>
</g>
<!-- &#45;11&#45;&gt;3 -->
<g id="edge43" class="edge"><title>&#45;11&#45;&gt;3</title>
<path fill="none" stroke="green" stroke-width="0.104187" d="M752.26,-77.9074C756.663,-73.5548 762.663,-68.5015 769.048,-65.6985 884.336,-15.0841 930.746,-69.9499 1050.05,-29.6985 1050.93,-29.4024 1051.81,-29.0726 1052.69,-28.7158"/>
<polygon fill="green" stroke="green" stroke-width="0.104187" points="1054.41,-31.7676 1061.79,-24.1656 1051.28,-25.5063 1054.41,-31.7676"/>
</g>
<!-- &#45;12 -->
<g id="node12" class="node"><title>&#45;12</title>
<polygon fill="lightgray" stroke="black" points="806.548,-95.9117 777.548,-95.9117 777.548,-77.9117 806.548,-77.9117 806.548,-95.9117"/>
<text text-anchor="middle" x="792.048" y="-84.7117" font-family="Times New Roman,serif" font-size="9.00">&#45;12</text>
</g>
<!-- &#45;12&#45;&gt;0 -->
<g id="edge44" class="edge"><title>&#45;12&#45;&gt;0</title>
<path fill="none" stroke="green" stroke-width="0.182833" d="M801.135,-77.7091C805.519,-73.8973 810.926,-69.4 816.048,-65.6985 835.402,-51.7108 858.738,-37.6186 875.382,-28.0038"/>
<polygon fill="green" stroke="green" stroke-width="0.182833" points="877.379,-30.8936 884.327,-22.8947 873.907,-24.8152 877.379,-30.8936"/>
</g>
<!-- &#45;12&#45;&gt;1 -->
<g id="edge45" class="edge"><title>&#45;12&#45;&gt;1</title>
<path fill="none" stroke="red" stroke-width="0.151882" d="M800.34,-77.5579C804.711,-73.527 810.341,-68.8864 816.048,-65.6985 827.387,-59.3648 903.65,-35.4062 943.26,-23.1571"/>
<polygon fill="red" stroke="red" stroke-width="0.151882" points="944.404,-26.4669 952.928,-20.1747 942.34,-19.778 944.404,-26.4669"/>
</g>
<!-- &#45;12&#45;&gt;2 -->
<g id="edge46" class="edge"><title>&#45;12&#45;&gt;2</title>
<path fill="none" stroke="green" stroke-width="0.160438" stroke-dasharray="1,5" d="M799.762,-77.6819C804.149,-73.4798 809.97,-68.6453 816.048,-65.6985 887.5,-31.0578 914.954,-52.3924 991.048,-29.6985 995.021,-28.5137 999.174,-27.0657 1003.17,-25.5577"/>
<polygon fill="green" stroke="green" stroke-width="0.160438" points="1004.62,-28.751 1012.61,-21.801 1002.03,-22.2473 1004.62,-28.751"/>
</g>
<!-- &#45;12&#45;&gt;3 -->
<g id="edge47" class="edge"><title>&#45;12&#45;&gt;3</title>
<path fill="none" stroke="red" stroke-width="0.262636" d="M799.705,-77.5594C804.075,-73.3214 809.898,-68.4917 816.048,-65.6985 911.854,-22.1877 950.778,-64.5919 1050.05,-29.6985 1050.92,-29.3914 1051.8,-29.0522 1052.68,-28.6874"/>
<polygon fill="red" stroke="red" stroke-width="0.262636" points="1054.42,-31.7303 1061.77,-24.1004 1051.26,-25.481 1054.42,-31.7303"/>
</g>
<!-- &#45;13 -->
<g id="node13" class="node"><title>&#45;13</title>
<polygon fill="lightgray" stroke="black" points="853.548,-95.9117 824.548,-95.9117 824.548,-77.9117 853.548,-77.9117 853.548,-95.9117"/>
<text text-anchor="middle" x="839.048" y="-84.7117" font-family="Times New Roman,serif" font-size="9.00">&#45;13</text>
</g>
<!-- &#45;13&#45;&gt;0 -->
<g id="edge48" class="edge"><title>&#45;13&#45;&gt;0</title>
<path fill="none" stroke="red" stroke-width="0.172249" d="M845.701,-77.8746C854.276,-67.5161 869.466,-49.1677 881.107,-35.1057"/>
<polygon fill="red" stroke="red" stroke-width="0.172249" points="884.125,-36.9487 887.806,-27.0138 878.733,-32.4849 884.125,-36.9487"/>
</g>
<!-- &#45;13&#45;&gt;1 -->
<g id="edge49" class="edge"><title>&#45;13&#45;&gt;1</title>
<path fill="none" stroke="green" stroke-width="0.204149" d="M847.522,-77.8617C851.94,-73.9082 857.557,-69.2451 863.048,-65.6985 889.329,-48.7245 922.273,-33.9 943.955,-24.9247"/>
<polygon fill="green" stroke="green" stroke-width="0.204149" points="945.389,-28.12 953.338,-21.1152 942.756,-21.6341 945.389,-28.12"/>
</g>
<!-- &#45;13&#45;&gt;2 -->
<g id="edge50" class="edge"><title>&#45;13&#45;&gt;2</title>
<path fill="none" stroke="green" stroke-width="0.306807" stroke-dasharray="1,5" d="M846.849,-77.8532C851.261,-73.7012 857.079,-68.86 863.048,-65.6985 915.272,-38.0396 935.055,-48.5951 991.048,-29.6985 994.976,-28.3729 999.106,-26.8539 1003.1,-25.3186"/>
<polygon fill="green" stroke="green" stroke-width="0.306807" points="1004.54,-28.5134 1012.54,-21.57 1001.95,-22.0075 1004.54,-28.5134"/>
</g>
<!-- &#45;13&#45;&gt;3 -->
<g id="edge51" class="edge"><title>&#45;13&#45;&gt;3</title>
<path fill="none" stroke="red" stroke-width="0.435244" d="M846.747,-77.6511C851.13,-73.4399 856.951,-68.6067 863.048,-65.6985 939.44,-29.2602 970.741,-59.2588 1050.05,-29.6985 1050.92,-29.3751 1051.79,-29.022 1052.66,-28.6455"/>
<polygon fill="red" stroke="red" stroke-width="0.435244" points="1054.42,-31.6753 1061.73,-24.0039 1051.23,-25.4439 1054.42,-31.6753"/>
</g>
<!-- &#45;14 -->
<g id="node14" class="node"><title>&#45;14</title>
<polygon fill="lightgray" stroke="black" points="900.548,-95.9117 871.548,-95.9117 871.548,-77.9117 900.548,-77.9117 900.548,-95.9117"/>
<text text-anchor="middle" x="886.048" y="-84.7117" font-family="Times New Roman,serif" font-size="9.00">&#45;14</text>
</g>
<!-- &#45;14&#45;&gt;0 -->
<g id="edge52" class="edge"><title>&#45;14&#45;&gt;0</title>
<path fill="none" stroke="green" stroke-width="0.34719" d="M887.31,-77.8746C888.77,-68.572 891.243,-52.8252 893.331,-39.5264"/>
<polygon fill="green" stroke="green" stroke-width="0.34719" points="896.803,-39.9774 894.896,-29.5556 889.887,-38.8917 896.803,-39.9774"/>
</g>
<!-- &#45;14&#45;&gt;1 -->
<g id="edge53" class="edge"><title>&#45;14&#45;&gt;1</title>
<path fill="none" stroke="green" stroke-width="0.410624" d="M895.34,-77.8746C908.15,-66.7944 931.529,-46.5723 948.106,-32.2332"/>
<polygon fill="green" stroke="green" stroke-width="0.410624" points="950.79,-34.5397 956.063,-25.3506 946.21,-29.2454 950.79,-34.5397"/>
</g>
<!-- &#45;14&#45;&gt;2 -->
<g id="edge54" class="edge"><title>&#45;14&#45;&gt;2</title>
<path fill="none" stroke="green" stroke-width="0.225353" d="M894.461,-77.7655C898.864,-73.7875 904.485,-69.1316 910.048,-65.6985 918.38,-60.5567 971.583,-38.3117 1002.97,-25.3407"/>
<polygon fill="green" stroke="green" stroke-width="0.225353" points="1004.4,-28.5375 1012.3,-21.4887 1001.73,-22.0665 1004.4,-28.5375"/>
</g>
<!-- &#45;14&#45;&gt;3 -->
<g id="edge55" class="edge"><title>&#45;14&#45;&gt;3</title>
<path fill="none" stroke="green" stroke-width="0.112006" d="M893.821,-77.7995C898.225,-73.6318 904.043,-68.7927 910.048,-65.6985 967.158,-36.269 990.566,-53.9775 1050.05,-29.6985 1050.91,-29.3485 1051.77,-28.9729 1052.63,-28.5774"/>
<polygon fill="green" stroke="green" stroke-width="0.112006" points="1054.43,-31.5861 1061.67,-23.8472 1051.19,-25.3845 1054.43,-31.5861"/>
</g>
<!-- &#45;15 -->
<g id="node15" class="node"><title>&#45;15</title>
<polygon fill="lightgray" stroke="black" points="947.548,-95.9117 918.548,-95.9117 918.548,-77.9117 947.548,-77.9117 947.548,-95.9117"/>
<text text-anchor="middle" x="933.048" y="-84.7117" font-family="Times New Roman,serif" font-size="9.00">&#45;15</text>
</g>
<!-- &#45;15&#45;&gt;0 -->
<g id="edge56" class="edge"><title>&#45;15&#45;&gt;0</title>
<path fill="none" stroke="red" stroke-width="0.132243" d="M928.918,-77.8746C923.895,-68.0985 915.215,-51.2057 908.181,-37.5161"/>
<polygon fill="red" stroke="red" stroke-width="0.132243" points="911.109,-35.5565 903.426,-28.2615 904.883,-38.7557 911.109,-35.5565"/>
</g>
<!-- &#45;15&#45;&gt;1 -->
<g id="edge57" class="edge"><title>&#45;15&#45;&gt;1</title>
<path fill="none" stroke="green" stroke-width="0.110896" d="M936.948,-77.8746C941.664,-68.1564 949.793,-51.4054 956.415,-37.7594"/>
<polygon fill="green" stroke="green" stroke-width="0.110896" points="959.684,-39.0414 960.901,-28.5167 953.386,-35.9853 959.684,-39.0414"/>
</g>
<!-- &#45;15&#45;&gt;2 -->
<g id="edge58" class="edge"><title>&#45;15&#45;&gt;2</title>
<path fill="none" stroke="red" stroke-width="0.38879" d="M942.261,-77.8767C946.672,-74.1016 952.067,-69.5868 957.048,-65.6985 973.102,-53.1666 991.868,-39.681 1005.77,-29.9003"/>
<polygon fill="red" stroke="red" stroke-width="0.38879" points="1007.94,-32.6543 1014.13,-24.0552 1003.93,-26.9178 1007.94,-32.6543"/>
</g>
<!-- &#45;15&#45;&gt;3 -->
<g id="edge59" class="edge"><title>&#45;15&#45;&gt;3</title>
<path fill="none" stroke="red" stroke-width="0.119851" d="M941.409,-77.679C945.798,-73.6789 951.423,-69.0294 957.048,-65.6985 995.185,-43.1148 1010.07,-48.8314 1050.05,-29.6985 1050.88,-29.2987 1051.73,-28.8808 1052.58,-28.4496"/>
<polygon fill="red" stroke="red" stroke-width="0.119851" points="1054.44,-31.4194 1061.54,-23.5531 1051.09,-25.2765 1054.44,-31.4194"/>
</g>
<!-- &#45;16 -->
<g id="node16" class="node"><title>&#45;16</title>
<polygon fill="lightgray" stroke="black" points="994.548,-95.9117 965.548,-95.9117 965.548,-77.9117 994.548,-77.9117 994.548,-95.9117"/>
<text text-anchor="middle" x="980.048" y="-84.7117" font-family="Times New Roman,serif" font-size="9.00">&#45;16</text>
</g>
<!-- &#45;16&#45;&gt;0 -->
<g id="edge60" class="edge"><title>&#45;16&#45;&gt;0</title>
<path fill="none" stroke="green" stroke-width="0.791466" stroke-dasharray="1,5" d="M970.699,-77.5915C966.542,-73.9188 961.574,-69.5664 957.048,-65.6985 943.461,-54.0878 927.938,-41.2007 916.085,-31.4386"/>
<polygon fill="green" stroke="green" stroke-width="0.791466" points="918.132,-28.5903 908.183,-24.9456 913.687,-33.9986 918.132,-28.5903"/>
</g>
<!-- &#45;16&#45;&gt;1 -->
<g id="edge61" class="edge"><title>&#45;16&#45;&gt;1</title>
<path fill="none" stroke="green" stroke-width="0.330209" d="M978.557,-77.8746C976.831,-68.572 973.909,-52.8252 971.441,-39.5264"/>
<polygon fill="green" stroke="green" stroke-width="0.330209" points="974.857,-38.7492 969.591,-29.5556 967.974,-40.0263 974.857,-38.7492"/>
</g>
<!-- &#45;16&#45;&gt;2 -->
<g id="edge62" class="edge"><title>&#45;16&#45;&gt;2</title>
<path fill="none" stroke="red" stroke-width="0.28868" d="M985.325,-77.8746C991.945,-67.7908 1003.54,-50.1351 1012.66,-36.233"/>
<polygon fill="red" stroke="red" stroke-width="0.28868" points="1015.67,-38.037 1018.23,-27.7567 1009.82,-34.1951 1015.67,-38.037"/>
</g>
<!-- &#45;16&#45;&gt;3 -->
<g id="edge63" class="edge"><title>&#45;16&#45;&gt;3</title>
<path fill="none" stroke="red" stroke-width="0.189018" d="M989.249,-77.8614C993.658,-74.083 999.054,-69.5698 1004.05,-65.6985 1020.3,-53.1022 1039.34,-39.6216 1053.46,-29.8591"/>
<polygon fill="red" stroke="red" stroke-width="0.189018" points="1055.68,-32.5753 1061.94,-24.0274 1051.72,-26.806 1055.68,-32.5753"/>
</g>
<!-- &#45;17 -->
<g id="node17" class="node"><title>&#45;17</title>
<polygon fill="lightgray" stroke="black" points="1041.55,-95.9117 1012.55,-95.9117 1012.55,-77.9117 1041.55,-77.9117 1041.55,-95.9117"/>
<text text-anchor="middle" x="1027.05" y="-84.7117" font-family="Times New Roman,serif" font-size="9.00">&#45;17</text>
</g>
<!-- &#45;17&#45;&gt;0 -->
<g id="edge64" class="edge"><title>&#45;17&#45;&gt;0</title>
<path fill="none" stroke="red" stroke-width="0.219249" d="M1018.99,-77.8119C1014.78,-73.8457 1009.39,-69.1863 1004.05,-65.6985 976.966,-48.0139 942.607,-33.1876 920.238,-24.4171"/>
<polygon fill="red" stroke="red" stroke-width="0.219249" points="921.463,-21.1385 910.873,-20.825 918.956,-27.6742 921.463,-21.1385"/>
</g>
<!-- &#45;17&#45;&gt;1 -->
<g id="edge65" class="edge"><title>&#45;17&#45;&gt;1</title>
<path fill="none" stroke="green" stroke-width="0.47509" d="M1020.17,-77.8746C1011.21,-67.4184 995.284,-48.8208 983.199,-34.7089"/>
<polygon fill="green" stroke="green" stroke-width="0.47509" points="985.772,-32.3326 976.609,-27.0138 980.455,-36.8858 985.772,-32.3326"/>
</g>
<!-- &#45;17&#45;&gt;2 -->
<g id="edge66" class="edge"><title>&#45;17&#45;&gt;2</title>
<path fill="none" stroke="red" stroke-width="0.351434" d="M1026.93,-77.8746C1026.8,-68.7202 1026.58,-53.3256 1026.4,-40.1641"/>
<polygon fill="red" stroke="red" stroke-width="0.351434" points="1029.89,-39.7687 1026.25,-29.8197 1022.89,-39.8686 1029.89,-39.7687"/>
</g>
<!-- &#45;17&#45;&gt;3 -->
<g id="edge67" class="edge"><title>&#45;17&#45;&gt;3</title>
<path fill="none" stroke="green" stroke-width="0.221868" d="M1032.44,-77.8746C1039.24,-67.7318 1051.19,-49.9283 1060.54,-35.9895"/>
<polygon fill="green" stroke="green" stroke-width="0.221868" points="1063.56,-37.7615 1066.23,-27.5071 1057.75,-33.8618 1063.56,-37.7615"/>
</g>
<!-- &#45;18 -->
<g id="node18" class="node"><title>&#45;18</title>
<polygon fill="lightgray" stroke="black" points="1088.55,-95.9117 1059.55,-95.9117 1059.55,-77.9117 1088.55,-77.9117 1088.55,-95.9117"/>
<text text-anchor="middle" x="1074.05" y="-84.7117" font-family="Times New Roman,serif" font-size="9.00">&#45;18</text>
</g>
<!-- &#45;18&#45;&gt;0 -->
<g id="edge68" class="edge"><title>&#45;18&#45;&gt;0</title>
<path fill="none" stroke="green" stroke-width="0.300068" d="M1066.17,-77.5286C1061.99,-73.4901 1056.59,-68.8517 1051.05,-65.6985 1039.53,-59.1476 961.364,-35.1831 921.029,-23.0258"/>
<polygon fill="green" stroke="green" stroke-width="0.300068" points="921.781,-19.5972 911.197,-20.0703 919.766,-26.3009 921.781,-19.5972"/>
</g>
<!-- &#45;18&#45;&gt;1 -->
<g id="edge69" class="edge"><title>&#45;18&#45;&gt;1</title>
<path fill="none" stroke="green" stroke-width="0.187788" d="M1065.41,-77.6399C1061.23,-73.8129 1056.04,-69.3229 1051.05,-65.6985 1030.91,-51.0653 1006.24,-36.8212 988.863,-27.3326"/>
<polygon fill="green" stroke="green" stroke-width="0.187788" points="990.498,-24.238 980.034,-22.5782 987.179,-30.4012 990.498,-24.238"/>
</g>
<!-- &#45;18&#45;&gt;2 -->
<g id="edge70" class="edge"><title>&#45;18&#45;&gt;2</title>
<path fill="none" stroke="red" stroke-width="0.210712" d="M1068.54,-77.8746C1061.59,-67.7318 1049.4,-49.9283 1039.85,-35.9895"/>
<polygon fill="red" stroke="red" stroke-width="0.210712" points="1042.57,-33.7786 1034.03,-27.5071 1036.8,-37.7349 1042.57,-33.7786"/>
</g>
<!-- &#45;18&#45;&gt;3 -->
<g id="edge71" class="edge"><title>&#45;18&#45;&gt;3</title>
<path fill="none" stroke="red" stroke-width="0.189253" d="M1074.05,-77.8746C1074.05,-68.7202 1074.05,-53.3256 1074.05,-40.1641"/>
<polygon fill="red" stroke="red" stroke-width="0.189253" points="1077.55,-39.8196 1074.05,-29.8197 1070.55,-39.8197 1077.55,-39.8196"/>
</g>
<!-- &#45;19 -->
<g id="node19" class="node"><title>&#45;19</title>
<polygon fill="lightgray" stroke="black" points="1135.55,-95.9117 1106.55,-95.9117 1106.55,-77.9117 1135.55,-77.9117 1135.55,-95.9117"/>
<text text-anchor="middle" x="1121.05" y="-84.7117" font-family="Times New Roman,serif" font-size="9.00">&#45;19</text>
</g>
<!-- &#45;19&#45;&gt;0 -->
<g id="edge72" class="edge"><title>&#45;19&#45;&gt;0</title>
<path fill="none" stroke="green" stroke-width="0.114342" d="M1113.69,-77.7342C1109.49,-73.5474 1103.91,-68.7108 1098.05,-65.6985 1035.14,-33.3792 1011.39,-47.9021 943.048,-29.6985 935.792,-27.7658 927.951,-25.4796 920.833,-23.3275"/>
<polygon fill="green" stroke="green" stroke-width="0.114342" points="921.661,-19.9207 911.074,-20.3274 919.604,-26.6116 921.661,-19.9207"/>
</g>
<!-- &#45;19&#45;&gt;1 -->
<g id="edge73" class="edge"><title>&#45;19&#45;&gt;1</title>
<path fill="none" stroke="green" stroke-width="0.320111" d="M1113.1,-77.6352C1108.92,-73.6239 1103.52,-68.9776 1098.05,-65.6985 1058.96,-42.2748 1044.57,-46.0822 1002.05,-29.6985 998.18,-28.208 994.079,-26.6058 990.1,-25.0387"/>
<polygon fill="green" stroke="green" stroke-width="0.320111" points="991.242,-21.7266 980.655,-21.2994 988.665,-28.235 991.242,-21.7266"/>
</g>
<!-- &#45;19&#45;&gt;2 -->
<g id="edge74" class="edge"><title>&#45;19&#45;&gt;2</title>
<path fill="none" stroke="red" stroke-width="0.233283" d="M1112.3,-77.7945C1108.09,-74.0014 1102.91,-69.4953 1098.05,-65.6985 1081.44,-52.7211 1061.7,-39.1804 1047.1,-29.4921"/>
<polygon fill="red" stroke="red" stroke-width="0.233283" points="1048.61,-26.2942 1038.33,-23.7266 1044.76,-32.1439 1048.61,-26.2942"/>
</g>
<!-- &#45;19&#45;&gt;3 -->
<g id="edge75" class="edge"><title>&#45;19&#45;&gt;3</title>
<path fill="none" stroke="green" stroke-width="0.103089" d="M1115.66,-77.8746C1108.85,-67.7318 1096.91,-49.9283 1087.56,-35.9895"/>
<polygon fill="green" stroke="green" stroke-width="0.103089" points="1090.35,-33.8618 1081.87,-27.5071 1084.53,-37.7615 1090.35,-33.8618"/>
</g>
<!-- &#45;20 -->
<g id="node20" class="node"><title>&#45;20</title>
<polygon fill="lightgray" stroke="black" points="1182.55,-95.9117 1153.55,-95.9117 1153.55,-77.9117 1182.55,-77.9117 1182.55,-95.9117"/>
<text text-anchor="middle" x="1168.05" y="-84.7117" font-family="Times New Roman,serif" font-size="9.00">&#45;20</text>
</g>
<!-- &#45;20&#45;&gt;0 -->
<g id="edge76" class="edge"><title>&#45;20&#45;&gt;0</title>
<path fill="none" stroke="red" stroke-width="0.372178" d="M1160.75,-77.6121C1156.57,-73.3896 1150.99,-68.5579 1145.05,-65.6985 1062.88,-26.1412 1031.75,-50.879 943.048,-29.6985 935.745,-27.9545 927.889,-25.7243 920.772,-23.5655"/>
<polygon fill="red" stroke="red" stroke-width="0.372178" points="921.615,-20.1618 911.026,-20.5188 919.526,-26.843 921.615,-20.1618"/>
</g>
<!-- &#45;20&#45;&gt;1 -->
<g id="edge77" class="edge"><title>&#45;20&#45;&gt;1</title>
<path fill="none" stroke="red" stroke-width="0.439681" d="M1160.66,-77.7771C1156.46,-73.6029 1150.88,-68.7647 1145.05,-65.6985 1087.03,-35.2128 1064.43,-49.798 1002.05,-29.6985 998.102,-28.4271 993.963,-26.9354 989.968,-25.4107"/>
<polygon fill="red" stroke="red" stroke-width="0.439681" points="991.114,-22.0999 980.528,-21.659 988.529,-28.6049 991.114,-22.0999"/>
</g>
<!-- &#45;20&#45;&gt;2 -->
<g id="edge78" class="edge"><title>&#45;20&#45;&gt;2</title>
<path fill="none" stroke="red" stroke-width="0.164223" d="M1160.1,-77.6432C1155.91,-73.634 1150.51,-68.987 1145.05,-65.6985 1106.36,-42.4217 1090.85,-49.0449 1050.05,-29.6985 1049.21,-29.3017 1048.36,-28.8863 1047.51,-28.4573"/>
<polygon fill="red" stroke="red" stroke-width="0.164223" points="1049,-25.2828 1038.55,-23.5706 1045.65,-31.4293 1049,-25.2828"/>
</g>
<!-- &#45;20&#45;&gt;3 -->
<g id="edge79" class="edge"><title>&#45;20&#45;&gt;3</title>
<path fill="none" stroke="green" stroke-width="0.481141" d="M1159.28,-77.8088C1155.07,-74.0188 1149.89,-69.5112 1145.05,-65.6985 1128.64,-52.7888 1109.18,-39.2424 1094.79,-29.5348"/>
<polygon fill="green" stroke="green" stroke-width="0.481141" points="1096.4,-26.4042 1086.14,-23.7551 1092.51,-32.2232 1096.4,-26.4042"/>
</g>
<!-- &#45;21 -->
<g id="node21" class="node"><title>&#45;21</title>
<polygon fill="lightgray" stroke="black" points="1229.55,-95.9117 1200.55,-95.9117 1200.55,-77.9117 1229.55,-77.9117 1229.55,-95.9117"/>
<text text-anchor="middle" x="1215.05" y="-84.7117" font-family="Times New Roman,serif" font-size="9.00">&#45;21</text>
</g>
<!-- &#45;21&#45;&gt;0 -->
<g id="edge80" class="edge"><title>&#45;21&#45;&gt;0</title>
<path fill="none" stroke="red" stroke-width="0.153071" d="M1207.78,-77.5342C1203.62,-73.2888 1198.03,-68.4601 1192.05,-65.6985 1090.52,-18.8524 1052.22,-53.8832 943.048,-29.6985 935.717,-28.0744 927.853,-25.8798 920.738,-23.7167"/>
<polygon fill="red" stroke="red" stroke-width="0.153071" points="921.588,-20.3148 910.998,-20.6404 919.479,-26.9898 921.588,-20.3148"/>
</g>
<!-- &#45;21&#45;&gt;1 -->
<g id="edge81" class="edge"><title>&#45;21&#45;&gt;1</title>
<path fill="none" stroke="green" stroke-width="0.262241" d="M1207.73,-77.6379C1203.55,-73.4229 1197.97,-68.5901 1192.05,-65.6985 1114.81,-27.9956 1084.6,-53.6173 1002.05,-29.6985 998.066,-28.5448 993.909,-27.1125 989.907,-25.6104"/>
<polygon fill="green" stroke="green" stroke-width="0.262241" points="991.055,-22.3002 980.469,-21.852 988.465,-28.8035 991.055,-22.3002"/>
</g>
<!-- &#45;21&#45;&gt;2 -->
<g id="edge82" class="edge"><title>&#45;21&#45;&gt;2</title>
<path fill="none" stroke="green" stroke-width="0.43461" d="M1207.66,-77.781C1203.46,-73.6079 1197.88,-68.7695 1192.05,-65.6985 1134.44,-35.3652 1110.37,-54.2005 1050.05,-29.6985 1049.19,-29.35 1048.33,-28.9756 1047.46,-28.5812"/>
<polygon fill="green" stroke="green" stroke-width="0.43461" points="1048.91,-25.3877 1038.42,-23.8558 1045.66,-31.591 1048.91,-25.3877"/>
</g>
<!-- &#45;21&#45;&gt;3 -->
<g id="edge83" class="edge"><title>&#45;21&#45;&gt;3</title>
<path fill="none" stroke="green" stroke-width="0.278738" d="M1207.05,-77.7294C1202.84,-73.7422 1197.45,-69.0889 1192.05,-65.6985 1161.55,-46.5652 1122.44,-31.6974 1097.81,-23.3508"/>
<polygon fill="green" stroke="green" stroke-width="0.278738" points="1098.79,-19.9912 1088.2,-20.1796 1096.6,-26.6383 1098.79,-19.9912"/>
</g>
<!-- &#45;22 -->
<g id="node22" class="node"><title>&#45;22</title>
<polygon fill="lightgray" stroke="black" points="234.548,-95.9117 205.548,-95.9117 205.548,-77.9117 234.548,-77.9117 234.548,-95.9117"/>
<text text-anchor="middle" x="220.048" y="-84.7117" font-family="Times New Roman,serif" font-size="9.00">&#45;22</text>
</g>
<!-- &#45;22&#45;&gt;0 -->
<g id="edge84" class="edge"><title>&#45;22&#45;&gt;0</title>
<path fill="none" stroke="green" stroke-width="0.293681" d="M227.207,-77.784C231.594,-73.3904 237.594,-68.3371 244.048,-65.6985 360.941,-17.9119 766.65,-15.5228 871.932,-15.7268"/>
<polygon fill="green" stroke="green" stroke-width="0.293681" points="871.944,-19.2267 881.954,-15.7563 871.965,-12.2268 871.944,-19.2267"/>
</g>
<!-- &#45;22&#45;&gt;1 -->
<g id="edge85" class="edge"><title>&#45;22&#45;&gt;1</title>
<path fill="none" stroke="green" stroke-width="0.157247" d="M227.185,-77.7281C231.564,-73.3158 237.564,-68.2625 244.048,-65.6985 384.15,-10.3009 772.634,-55.6 921.048,-29.6985 928.445,-28.4075 936.329,-26.3117 943.442,-24.1368"/>
<polygon fill="green" stroke="green" stroke-width="0.157247" points="944.736,-27.3965 953.165,-20.9782 942.573,-20.7389 944.736,-27.3965"/>
</g>
<!-- &#45;22&#45;&gt;3 -->
<g id="edge86" class="edge"><title>&#45;22&#45;&gt;3</title>
<path fill="none" stroke="green" stroke-width="0.210826" d="M227.177,-77.7074C231.553,-73.2882 237.553,-68.2349 244.048,-65.6985 411.055,-0.480825 877.941,-79.9359 1050.05,-29.6985 1051.11,-29.3885 1052.18,-29.0223 1053.23,-28.6127"/>
<polygon fill="green" stroke="green" stroke-width="0.210826" points="1054.95,-31.6703 1062.35,-24.0913 1051.84,-25.3993 1054.95,-31.6703"/>
</g>
<!-- &#45;23 -->
<g id="node23" class="node"><title>&#45;23</title>
<polygon fill="lightgray" stroke="black" points="1276.55,-95.9117 1247.55,-95.9117 1247.55,-77.9117 1276.55,-77.9117 1276.55,-95.9117"/>
<text text-anchor="middle" x="1262.05" y="-84.7117" font-family="Times New Roman,serif" font-size="9.00">&#45;23</text>
</g>
<!-- &#45;23&#45;&gt;0 -->
<g id="edge87" class="edge"><title>&#45;23&#45;&gt;0</title>
<path fill="none" stroke="red" stroke-width="0.284283" d="M1255.21,-77.8907C1251.01,-73.5326 1245.26,-68.4793 1239.05,-65.6985 1118.1,-11.5376 1072.75,-56.901 943.048,-29.6985 935.699,-28.1572 927.83,-25.9871 920.715,-23.8211"/>
<polygon fill="red" stroke="red" stroke-width="0.284283" points="921.57,-20.4203 910.98,-20.7243 919.448,-27.091 921.57,-20.4203"/>
</g>
<!-- &#45;23&#45;&gt;1 -->
<g id="edge88" class="edge"><title>&#45;23&#45;&gt;1</title>
<path fill="none" stroke="green" stroke-width="0.146481" d="M1254.78,-77.5513C1250.61,-73.3109 1245.02,-68.4815 1239.05,-65.6985 1142.47,-20.7165 1104.9,-57.4759 1002.05,-29.6985 998.046,-28.6177 993.878,-27.2221 989.872,-25.7341"/>
<polygon fill="green" stroke="green" stroke-width="0.146481" points="991.021,-22.4242 980.436,-21.9716 988.428,-28.9264 991.021,-22.4242"/>
</g>
<!-- &#45;23&#45;&gt;2 -->
<g id="edge89" class="edge"><title>&#45;23&#45;&gt;2</title>
<path fill="none" stroke="red" stroke-width="0.346964" d="M1254.73,-77.6402C1250.55,-73.4259 1244.97,-68.593 1239.05,-65.6985 1162.22,-28.1499 1130.2,-59.485 1050.05,-29.6985 1049.18,-29.3759 1048.31,-29.0235 1047.43,-28.6477"/>
<polygon fill="red" stroke="red" stroke-width="0.346964" points="1048.86,-25.4458 1038.36,-24.0089 1045.67,-31.6781 1048.86,-25.4458"/>
</g>
<!-- &#45;23&#45;&gt;3 -->
<g id="edge90" class="edge"><title>&#45;23&#45;&gt;3</title>
<path fill="none" stroke="green" stroke-width="0.366575" d="M1254.6,-77.8853C1250.39,-73.7428 1244.81,-68.9003 1239.05,-65.6985 1192.99,-40.1028 1132.22,-26.1333 1098.78,-19.9063"/>
<polygon fill="green" stroke="green" stroke-width="0.366575" points="1099,-16.3912 1088.54,-18.0857 1097.77,-23.283 1099,-16.3912"/>
</g>
<!-- &#45;24 -->
<g id="node24" class="node"><title>&#45;24</title>
<polygon fill="lightgray" stroke="black" points="1323.55,-95.9117 1294.55,-95.9117 1294.55,-77.9117 1323.55,-77.9117 1323.55,-95.9117"/>
<text text-anchor="middle" x="1309.05" y="-84.7117" font-family="Times New Roman,serif" font-size="9.00">&#45;24</text>
</g>
<!-- &#45;24&#45;&gt;0 -->
<g id="edge91" class="edge"><title>&#45;24&#45;&gt;0</title>
<path fill="none" stroke="green" stroke-width="0.459299" d="M1302.22,-77.8523C1298.03,-73.4815 1292.28,-68.4282 1286.05,-65.6985 1145.64,-4.20757 1093.32,-59.9264 943.048,-29.6985 935.687,-28.2177 927.814,-26.0656 920.699,-23.8974"/>
<polygon fill="green" stroke="green" stroke-width="0.459299" points="921.558,-20.4974 910.967,-20.7857 919.426,-27.1649 921.558,-20.4974"/>
</g>
<!-- &#45;24&#45;&gt;1 -->
<g id="edge92" class="edge"><title>&#45;24&#45;&gt;1</title>
<path fill="none" stroke="red" stroke-width="0.26567" d="M1302.2,-77.9025C1298,-73.5483 1292.25,-68.495 1286.05,-65.6985 1170.06,-13.4069 1125.28,-61.3535 1002.05,-29.6985 998.033,-28.6671 993.858,-27.2964 989.85,-25.818"/>
<polygon fill="red" stroke="red" stroke-width="0.26567" points="990.999,-22.5083 980.414,-22.0527 988.405,-29.0097 990.999,-22.5083"/>
</g>
<!-- &#45;24&#45;&gt;2 -->
<g id="edge93" class="edge"><title>&#45;24&#45;&gt;2</title>
<path fill="none" stroke="red" stroke-width="0.199524" d="M1301.77,-77.5528C1297.61,-73.3128 1292.02,-68.4834 1286.05,-65.6985 1189.88,-20.8718 1150.17,-64.8195 1050.05,-29.6985 1049.17,-29.392 1048.3,-29.0532 1047.42,-28.6888"/>
<polygon fill="red" stroke="red" stroke-width="0.199524" points="1048.83,-25.4822 1038.33,-24.1037 1045.68,-31.7322 1048.83,-25.4822"/>
</g>
<!-- &#45;24&#45;&gt;3 -->
<g id="edge94" class="edge"><title>&#45;24&#45;&gt;3</title>
<path fill="none" stroke="green" stroke-width="0.187826" d="M1301.68,-77.7406C1297.49,-73.5556 1291.91,-68.7188 1286.05,-65.6985 1223.56,-33.4838 1139.99,-21.7675 1098.94,-17.7677"/>
<polygon fill="green" stroke="green" stroke-width="0.187826" points="1099.05,-14.263 1088.77,-16.8523 1098.42,-21.2348 1099.05,-14.263"/>
</g>
<!-- &#45;25 -->
<g id="node25" class="node"><title>&#45;25</title>
<polygon fill="lightgray" stroke="black" points="144.548,-162.125 115.548,-162.125 115.548,-144.125 144.548,-144.125 144.548,-162.125"/>
<text text-anchor="middle" x="130.048" y="-150.925" font-family="Times New Roman,serif" font-size="9.00">&#45;25</text>
</g>
<!-- &#45;25&#45;&gt;0 -->
<g id="edge95" class="edge"><title>&#45;25&#45;&gt;0</title>
<path fill="none" stroke="green" stroke-width="0.329803" stroke-dasharray="1,5" d="M115.344,-151.819C88.8414,-150.375 33.5413,-143.094 9.04805,-108.125 -1.76969,-92.6804 -3.90625,-79.4004 9.04805,-65.6985 39.5165,-33.4716 730.687,-18.9364 871.964,-16.2968"/>
<polygon fill="green" stroke="green" stroke-width="0.329803" points="872.274,-19.7918 882.208,-16.1084 872.145,-12.793 872.274,-19.7918"/>
</g>
<!-- &#45;25&#45;&gt;1 -->
<g id="edge96" class="edge"><title>&#45;25&#45;&gt;1</title>
<path fill="none" stroke="red" stroke-width="0.383652" d="M128.978,-144.11C127.159,-126.698 125.675,-85.4053 149.048,-65.6985 214.698,-10.3461 836.408,-44.1856 921.048,-29.6985 928.449,-28.4317 936.334,-26.343 943.447,-24.1672"/>
<polygon fill="red" stroke="red" stroke-width="0.383652" points="944.744,-27.4259 953.169,-21.0027 942.577,-20.7696 944.744,-27.4259"/>
</g>
<!-- &#45;25&#45;&gt;2 -->
<g id="edge97" class="edge"><title>&#45;25&#45;&gt;2</title>
<path fill="none" stroke="red" stroke-width="0.401069" d="M144.772,-152.044C312.883,-151.088 1864.62,-141.367 1897.05,-108.125 1910.21,-94.6266 1910.1,-79.312 1897.05,-65.6985 1831.87,2.30771 1140.5,-55.9949 1050.05,-29.6985 1048.99,-29.3896 1047.92,-29.0244 1046.86,-28.6156"/>
<polygon fill="red" stroke="red" stroke-width="0.401069" points="1048.26,-25.402 1037.74,-24.097 1045.15,-31.6739 1048.26,-25.402"/>
</g>
<!-- &#45;25&#45;&gt;3 -->
<g id="edge98" class="edge"><title>&#45;25&#45;&gt;3</title>
<path fill="none" stroke="green" stroke-width="0.34241" d="M144.66,-152.048C313.126,-151.134 1882.27,-141.719 1915.05,-108.125 1928.22,-94.6283 1927.98,-79.4206 1915.05,-65.6985 1886.36,-35.2545 1237.07,-19.4082 1099.51,-16.3862"/>
<polygon fill="green" stroke="green" stroke-width="0.34241" points="1099.22,-12.8792 1089.15,-16.1618 1099.07,-19.8776 1099.22,-12.8792"/>
</g>
<!-- 353 -->
<g id="node45" class="node"><title>353</title>
<ellipse fill="white" stroke="black" cx="39.048" cy="-86.9117" rx="21.4286" ry="21.4286"/>
<text text-anchor="middle" x="39.048" y="-84.7117" font-family="Times New Roman,serif" font-size="9.00">353</text>
</g>
<!-- &#45;25&#45;&gt;353 -->
<g id="edge157" class="edge"><title>&#45;25&#45;&gt;353</title>
<path fill="none" stroke="green" stroke-width="0.3" d="M118.523,-143.992C104.96,-134.422 82.0389,-118.248 64.2879,-105.722"/>
<polygon fill="green" stroke="green" stroke-width="0.3" points="66.2413,-102.817 56.0527,-99.9108 62.2054,-108.536 66.2413,-102.817"/>
</g>
<!-- &#45;26 -->
<g id="node26" class="node"><title>&#45;26</title>
<polygon fill="lightgray" stroke="black" points="1370.55,-95.9117 1341.55,-95.9117 1341.55,-77.9117 1370.55,-77.9117 1370.55,-95.9117"/>
<text text-anchor="middle" x="1356.05" y="-84.7117" font-family="Times New Roman,serif" font-size="9.00">&#45;26</text>
</g>
<!-- &#45;26&#45;&gt;0 -->
<g id="edge99" class="edge"><title>&#45;26&#45;&gt;0</title>
<path fill="none" stroke="red" stroke-width="0.321578" d="M1349.24,-77.823C1345.05,-73.4424 1339.3,-68.3891 1333.05,-65.6985 1173.16,3.13193 1113.91,-62.9565 943.048,-29.6985 935.678,-28.2638 927.802,-26.1254 920.688,-23.9556"/>
<polygon fill="red" stroke="red" stroke-width="0.321578" points="921.549,-20.5562 910.958,-20.8325 919.41,-27.2213 921.549,-20.5562"/>
</g>
<!-- &#45;26&#45;&gt;1 -->
<g id="edge100" class="edge"><title>&#45;26&#45;&gt;1</title>
<path fill="none" stroke="red" stroke-width="0.23625" d="M1349.22,-77.8611C1345.03,-73.4932 1339.28,-68.4399 1333.05,-65.6985 1197.61,-6.08013 1145.69,-65.2415 1002.05,-29.6985 998.024,-28.7028 993.845,-27.3501 989.835,-25.8786"/>
<polygon fill="red" stroke="red" stroke-width="0.23625" points="990.985,-22.569 980.4,-22.1112 988.389,-29.0699 990.985,-22.569"/>
</g>
<!-- &#45;26&#45;&gt;2 -->
<g id="edge101" class="edge"><title>&#45;26&#45;&gt;2</title>
<path fill="none" stroke="red" stroke-width="0.189019" d="M1349.2,-77.9035C1345,-73.5497 1339.25,-68.4964 1333.05,-65.6985 1217.47,-13.5627 1170.2,-70.1783 1050.05,-29.6985 1049.17,-29.4028 1048.29,-29.0733 1047.41,-28.7168"/>
<polygon fill="red" stroke="red" stroke-width="0.189019" points="1048.82,-25.5072 1038.31,-24.1679 1045.69,-31.7689 1048.82,-25.5072"/>
</g>
<!-- &#45;26&#45;&gt;3 -->
<g id="edge102" class="edge"><title>&#45;26&#45;&gt;3</title>
<path fill="none" stroke="red" stroke-width="0.235213" d="M1348.73,-77.6447C1344.55,-73.4317 1338.97,-68.5987 1333.05,-65.6985 1253.7,-26.8217 1146.81,-18.2304 1098.99,-16.3566"/>
<polygon fill="red" stroke="red" stroke-width="0.235213" points="1099.04,-12.8565 1088.93,-16.0299 1098.81,-19.8528 1099.04,-12.8565"/>
</g>
<!-- &#45;27 -->
<g id="node27" class="node"><title>&#45;27</title>
<polygon fill="lightgray" stroke="black" points="1417.55,-95.9117 1388.55,-95.9117 1388.55,-77.9117 1417.55,-77.9117 1417.55,-95.9117"/>
<text text-anchor="middle" x="1403.05" y="-84.7117" font-family="Times New Roman,serif" font-size="9.00">&#45;27</text>
</g>
<!-- &#45;27&#45;&gt;0 -->
<g id="edge103" class="edge"><title>&#45;27&#45;&gt;0</title>
<path fill="none" stroke="green" stroke-width="0.264751" d="M1396.25,-77.7999C1392.06,-73.4115 1386.31,-68.3582 1380.05,-65.6985 1200.67,10.4778 1134.52,-65.9896 943.048,-29.6985 935.671,-28.3002 927.793,-26.1725 920.679,-24.0014"/>
<polygon fill="green" stroke="green" stroke-width="0.264751" points="921.542,-20.6024 910.951,-20.8693 919.397,-27.2656 921.542,-20.6024"/>
</g>
<!-- &#45;27&#45;&gt;1 -->
<g id="edge104" class="edge"><title>&#45;27&#45;&gt;1</title>
<path fill="none" stroke="green" stroke-width="0.120935" d="M1396.23,-77.8298C1392.04,-73.4514 1386.29,-68.3981 1380.05,-65.6985 1225.14,1.25731 1166.14,-69.1358 1002.05,-29.6985 997.948,-28.713 993.691,-27.3444 989.616,-25.8483"/>
<polygon fill="green" stroke="green" stroke-width="0.120935" points="990.643,-22.4889 980.059,-22.0128 988.036,-28.9853 990.643,-22.4889"/>
</g>
<!-- &#45;27&#45;&gt;2 -->
<g id="edge105" class="edge"><title>&#45;27&#45;&gt;2</title>
<path fill="none" stroke="red" stroke-width="0.239602" d="M1396.22,-77.8619C1392.03,-73.4942 1386.28,-68.4409 1380.05,-65.6985 1245.02,-6.23614 1190.28,-75.5506 1050.05,-29.6985 1049.17,-29.4107 1048.28,-29.0879 1047.4,-28.7369"/>
<polygon fill="red" stroke="red" stroke-width="0.239602" points="1048.8,-25.5253 1038.29,-24.2143 1045.69,-31.7954 1048.8,-25.5253"/>
</g>
<!-- &#45;27&#45;&gt;3 -->
<g id="edge106" class="edge"><title>&#45;27&#45;&gt;3</title>
<path fill="none" stroke="red" stroke-width="0.162841" d="M1395.76,-77.5768C1391.59,-73.344 1386.01,-68.5136 1380.05,-65.6985 1283.52,-20.1074 1152.89,-15.2383 1098.94,-15.358"/>
<polygon fill="red" stroke="red" stroke-width="0.162841" points="1098.89,-11.8582 1088.92,-15.442 1098.94,-18.8579 1098.89,-11.8582"/>
</g>
<!-- &#45;28 -->
<g id="node28" class="node"><title>&#45;28</title>
<polygon fill="lightgray" stroke="black" points="1464.55,-95.9117 1435.55,-95.9117 1435.55,-77.9117 1464.55,-77.9117 1464.55,-95.9117"/>
<text text-anchor="middle" x="1450.05" y="-84.7117" font-family="Times New Roman,serif" font-size="9.00">&#45;28</text>
</g>
<!-- &#45;28&#45;&gt;0 -->
<g id="edge107" class="edge"><title>&#45;28&#45;&gt;0</title>
<path fill="none" stroke="green" stroke-width="0.552512" d="M1443.25,-77.7812C1439.07,-73.3866 1433.32,-68.3333 1427.05,-65.6985 1327.61,-23.9352 1049.09,-49.3617 943.048,-29.6985 935.665,-28.3295 927.786,-26.2105 920.672,-24.0384"/>
<polygon fill="green" stroke="green" stroke-width="0.552512" points="921.537,-20.6397 910.945,-20.8991 919.387,-27.3014 921.537,-20.6397"/>
</g>
<!-- &#45;28&#45;&gt;1 -->
<g id="edge108" class="edge"><title>&#45;28&#45;&gt;1</title>
<path fill="none" stroke="red" stroke-width="0.16956" d="M1443.24,-77.8053C1439.06,-73.4188 1433.31,-68.3655 1427.05,-65.6985 1252.65,8.60178 1186.59,-73.0343 1002.05,-29.6985 997.943,-28.7345 993.683,-27.3764 989.608,-25.8843"/>
<polygon fill="red" stroke="red" stroke-width="0.16956" points="990.634,-22.525 980.05,-22.0469 988.026,-29.0209 990.634,-22.525"/>
</g>
<!-- &#45;28&#45;&gt;2 -->
<g id="edge109" class="edge"><title>&#45;28&#45;&gt;2</title>
<path fill="none" stroke="red" stroke-width="0.316726" d="M1443.23,-77.8304C1439.04,-73.4522 1433.29,-68.3989 1427.05,-65.6985 1272.55,1.10111 1210.38,-80.9312 1050.05,-29.6985 1048.99,-29.3617 1047.94,-28.9736 1046.88,-28.5463"/>
<polygon fill="red" stroke="red" stroke-width="0.316726" points="1048.29,-25.337 1037.79,-23.9596 1045.14,-31.5873 1048.29,-25.337"/>
</g>
<!-- &#45;28&#45;&gt;3 -->
<g id="edge110" class="edge"><title>&#45;28&#45;&gt;3</title>
<path fill="none" stroke="green" stroke-width="0.269272" d="M1442.79,-77.5263C1438.62,-73.2787 1433.04,-68.4503 1427.05,-65.6985 1368.19,-38.6592 1169.61,-22.5122 1099.12,-17.521"/>
<polygon fill="green" stroke="green" stroke-width="0.269272" points="1099.17,-14.0159 1088.95,-16.8158 1098.69,-20.9992 1099.17,-14.0159"/>
</g>
<!-- &#45;29 -->
<g id="node29" class="node"><title>&#45;29</title>
<polygon fill="lightgray" stroke="black" points="1511.55,-95.9117 1482.55,-95.9117 1482.55,-77.9117 1511.55,-77.9117 1511.55,-95.9117"/>
<text text-anchor="middle" x="1497.05" y="-84.7117" font-family="Times New Roman,serif" font-size="9.00">&#45;29</text>
</g>
<!-- &#45;29&#45;&gt;0 -->
<g id="edge111" class="edge"><title>&#45;29&#45;&gt;0</title>
<path fill="none" stroke="red" stroke-width="0.243041" d="M1490.26,-77.7658C1486.08,-73.3661 1480.33,-68.3128 1474.05,-65.6985 1364.85,-20.2583 1059.41,-50.8801 943.048,-29.6985 935.661,-28.3537 927.78,-26.2419 920.667,-24.0689"/>
<polygon fill="red" stroke="red" stroke-width="0.243041" points="921.532,-20.6705 910.941,-20.9236 919.379,-27.3309 921.532,-20.6705"/>
</g>
<!-- &#45;29&#45;&gt;1 -->
<g id="edge112" class="edge"><title>&#45;29&#45;&gt;1</title>
<path fill="none" stroke="red" stroke-width="0.298764" d="M1490.25,-77.7856C1486.07,-73.3925 1480.32,-68.3392 1474.05,-65.6985 1280.15,15.9511 1207.06,-76.9357 1002.05,-29.6985 997.939,-28.7517 993.677,-27.4022 989.601,-25.9132"/>
<polygon fill="red" stroke="red" stroke-width="0.298764" points="990.628,-22.5539 980.044,-22.0744 988.019,-29.0495 990.628,-22.5539"/>
</g>
<!-- &#45;29&#45;&gt;2 -->
<g id="edge113" class="edge"><title>&#45;29&#45;&gt;2</title>
<path fill="none" stroke="green" stroke-width="0.591721" d="M1490.24,-77.8058C1486.06,-73.4194 1480.31,-68.3661 1474.05,-65.6985 1300.07,8.44546 1230.5,-86.3172 1050.05,-29.6985 1048.99,-29.3672 1047.93,-28.9837 1046.88,-28.56"/>
<polygon fill="green" stroke="green" stroke-width="0.591721" points="1048.28,-25.3498 1037.78,-23.9869 1045.14,-31.6045 1048.28,-25.3498"/>
</g>
<!-- &#45;29&#45;&gt;3 -->
<g id="edge114" class="edge"><title>&#45;29&#45;&gt;3</title>
<path fill="none" stroke="red" stroke-width="0.235128" d="M1490.2,-77.8976C1486,-73.5418 1480.25,-68.4885 1474.05,-65.6985 1406.37,-35.2719 1176.32,-21.0472 1099.36,-17.0613"/>
<polygon fill="red" stroke="red" stroke-width="0.235128" points="1099.32,-13.5548 1089.16,-16.5467 1098.97,-20.5459 1099.32,-13.5548"/>
</g>
<!-- &#45;30 -->
<g id="node30" class="node"><title>&#45;30</title>
<polygon fill="lightgray" stroke="black" points="1558.55,-95.9117 1529.55,-95.9117 1529.55,-77.9117 1558.55,-77.9117 1558.55,-95.9117"/>
<text text-anchor="middle" x="1544.05" y="-84.7117" font-family="Times New Roman,serif" font-size="9.00">&#45;30</text>
</g>
<!-- &#45;30&#45;&gt;0 -->
<g id="edge115" class="edge"><title>&#45;30&#45;&gt;0</title>
<path fill="none" stroke="green" stroke-width="0.240305" d="M1537.27,-77.7529C1533.09,-73.3488 1527.34,-68.2955 1521.05,-65.6985 1402.1,-16.5803 1069.72,-52.3991 943.048,-29.6985 935.657,-28.374 927.775,-26.2682 920.662,-24.0945"/>
<polygon fill="green" stroke="green" stroke-width="0.240305" points="921.529,-20.6963 910.937,-20.9442 919.372,-27.3556 921.529,-20.6963"/>
</g>
<!-- &#45;30&#45;&gt;1 -->
<g id="edge116" class="edge"><title>&#45;30&#45;&gt;1</title>
<path fill="none" stroke="red" stroke-width="0.184855" d="M1537.26,-77.7695C1533.08,-73.371 1527.33,-68.3177 1521.05,-65.6985 1414.35,-21.1972 1114.8,-55.2688 1002.05,-29.6985 997.935,-28.7658 993.672,-27.4233 989.596,-25.9369"/>
<polygon fill="red" stroke="red" stroke-width="0.184855" points="990.623,-22.5776 980.039,-22.0969 988.013,-29.0729 990.623,-22.5776"/>
</g>
<!-- &#45;30&#45;&gt;2 -->
<g id="edge117" class="edge"><title>&#45;30&#45;&gt;2</title>
<path fill="none" stroke="green" stroke-width="0.478567" d="M1537.25,-77.786C1533.07,-73.393 1527.32,-68.3397 1521.05,-65.6985 1327.57,15.7947 1250.63,-91.707 1050.05,-29.6985 1048.99,-29.3717 1047.93,-28.9918 1046.87,-28.5711"/>
<polygon fill="green" stroke="green" stroke-width="0.478567" points="1048.28,-25.3602 1037.77,-24.0087 1045.14,-31.6183 1048.28,-25.3602"/>
</g>
<!-- &#45;30&#45;&gt;3 -->
<g id="edge118" class="edge"><title>&#45;30&#45;&gt;3</title>
<path fill="none" stroke="green" stroke-width="0.331841" d="M1537.22,-77.8675C1533.02,-73.5017 1527.27,-68.4484 1521.05,-65.6985 1444.4,-31.8327 1182.06,-19.7131 1099.29,-16.6806"/>
<polygon fill="green" stroke="green" stroke-width="0.331841" points="1099.16,-13.1741 1089.04,-16.3188 1098.91,-20.1698 1099.16,-13.1741"/>
</g>
<!-- &#45;31 -->
<g id="node31" class="node"><title>&#45;31</title>
<polygon fill="lightgray" stroke="black" points="1605.55,-95.9117 1576.55,-95.9117 1576.55,-77.9117 1605.55,-77.9117 1605.55,-95.9117"/>
<text text-anchor="middle" x="1591.05" y="-84.7117" font-family="Times New Roman,serif" font-size="9.00">&#45;31</text>
</g>
<!-- &#45;31&#45;&gt;0 -->
<g id="edge119" class="edge"><title>&#45;31&#45;&gt;0</title>
<path fill="none" stroke="red" stroke-width="0.592642" d="M1584.27,-77.7418C1580.09,-73.3341 1574.34,-68.2808 1568.05,-65.6985 1439.34,-12.9013 1080.04,-53.9185 943.048,-29.6985 935.654,-28.3912 927.771,-26.2906 920.658,-24.1162"/>
<polygon fill="red" stroke="red" stroke-width="0.592642" points="921.526,-20.7182 910.934,-20.9617 919.366,-27.3766 921.526,-20.7182"/>
</g>
<!-- &#45;31&#45;&gt;1 -->
<g id="edge120" class="edge"><title>&#45;31&#45;&gt;1</title>
<path fill="none" stroke="green" stroke-width="0.296023" d="M1584.26,-77.756C1580.09,-73.3529 1574.34,-68.2996 1568.05,-65.6985 1451.59,-17.5195 1125.04,-57.2212 1002.05,-29.6985 997.933,-28.7776 993.668,-27.4409 989.591,-25.9567"/>
<polygon fill="green" stroke="green" stroke-width="0.296023" points="990.619,-22.5975 980.035,-22.1157 988.008,-29.0925 990.619,-22.5975"/>
</g>
<!-- &#45;31&#45;&gt;2 -->
<g id="edge121" class="edge"><title>&#45;31&#45;&gt;2</title>
<path fill="none" stroke="green" stroke-width="0.110859" d="M1584.26,-77.7698C1580.08,-73.3714 1574.33,-68.3181 1568.05,-65.6985 1355.06,23.1475 1270.76,-97.0995 1050.05,-29.6985 1048.99,-29.3753 1047.93,-28.9985 1046.87,-28.5801"/>
<polygon fill="green" stroke="green" stroke-width="0.110859" points="1048.28,-25.3687 1037.77,-24.0267 1045.14,-31.6296 1048.28,-25.3687"/>
</g>
<!-- &#45;31&#45;&gt;3 -->
<g id="edge122" class="edge"><title>&#45;31&#45;&gt;3</title>
<path fill="none" stroke="green" stroke-width="0.28319" d="M1584.23,-77.843C1580.04,-73.469 1574.29,-68.4157 1568.05,-65.6985 1482.41,-28.3972 1187.71,-18.5259 1099.31,-16.3752"/>
<polygon fill="green" stroke="green" stroke-width="0.28319" points="1099.21,-12.872 1089.13,-16.14 1099.05,-19.8702 1099.21,-12.872"/>
</g>
<!-- &#45;32 -->
<g id="node32" class="node"><title>&#45;32</title>
<polygon fill="lightgray" stroke="black" points="1652.55,-95.9117 1623.55,-95.9117 1623.55,-77.9117 1652.55,-77.9117 1652.55,-95.9117"/>
<text text-anchor="middle" x="1638.05" y="-84.7117" font-family="Times New Roman,serif" font-size="9.00">&#45;32</text>
</g>
<!-- &#45;32&#45;&gt;0 -->
<g id="edge123" class="edge"><title>&#45;32&#45;&gt;0</title>
<path fill="none" stroke="green" stroke-width="0.289079" d="M1631.27,-77.7324C1627.1,-73.3215 1621.35,-68.2682 1615.05,-65.6985 1476.57,-9.2216 1090.36,-55.4383 943.048,-29.6985 935.651,-28.4061 927.768,-26.3098 920.655,-24.1349"/>
<polygon fill="green" stroke="green" stroke-width="0.289079" points="921.523,-20.7371 910.931,-20.9767 919.361,-27.3947 921.523,-20.7371"/>
</g>
<!-- &#45;32&#45;&gt;1 -->
<g id="edge124" class="edge"><title>&#45;32&#45;&gt;1</title>
<path fill="none" stroke="red" stroke-width="0.203759" stroke-dasharray="1,5" d="M1631.27,-77.7445C1627.09,-73.3377 1621.34,-68.2844 1615.05,-65.6985 1488.83,-13.8407 1135.28,-59.1743 1002.05,-29.6985 997.931,-28.7876 993.665,-27.4559 989.588,-25.9735"/>
<polygon fill="red" stroke="red" stroke-width="0.203759" points="990.615,-22.6143 980.031,-22.1316 988.004,-29.1091 990.615,-22.6143"/>
</g>
<!-- &#45;32&#45;&gt;2 -->
<g id="edge125" class="edge"><title>&#45;32&#45;&gt;2</title>
<path fill="none" stroke="red" stroke-width="0.226703" d="M1631.26,-77.7562C1627.09,-73.3533 1621.34,-68.3 1615.05,-65.6985 1498.8,-17.5977 1170.48,-66.0963 1050.05,-29.6985 1048.99,-29.3784 1047.93,-29.004 1046.87,-28.5877"/>
<polygon fill="red" stroke="red" stroke-width="0.226703" points="1048.27,-25.3758 1037.76,-24.0417 1045.15,-31.639 1048.27,-25.3758"/>
</g>
<!-- &#45;32&#45;&gt;3 -->
<g id="edge126" class="edge"><title>&#45;32&#45;&gt;3</title>
<path fill="none" stroke="red" stroke-width="0.207999" stroke-dasharray="1,5" d="M1631.24,-77.8226C1627.05,-73.4419 1621.3,-68.3886 1615.05,-65.6985 1520.35,-24.9388 1192.87,-17.441 1099.23,-16.1203"/>
<polygon fill="red" stroke="red" stroke-width="0.207999" points="1099.05,-12.6177 1089.01,-15.988 1098.96,-19.6171 1099.05,-12.6177"/>
</g>
<!-- &#45;33 -->
<g id="node33" class="node"><title>&#45;33</title>
<polygon fill="lightgray" stroke="black" points="1887.55,-95.9117 1858.55,-95.9117 1858.55,-77.9117 1887.55,-77.9117 1887.55,-95.9117"/>
<text text-anchor="middle" x="1873.05" y="-84.7117" font-family="Times New Roman,serif" font-size="9.00">&#45;33</text>
</g>
<!-- &#45;33&#45;&gt;1 -->
<g id="edge127" class="edge"><title>&#45;33&#45;&gt;1</title>
<path fill="none" stroke="green" stroke-width="0.403505" d="M1866.28,-77.7061C1862.11,-73.2865 1856.36,-68.2332 1850.05,-65.6985 1675.01,4.56225 1186.53,-68.9446 1002.05,-29.6985 997.923,-28.821 993.654,-27.5059 989.575,-26.0296"/>
<polygon fill="green" stroke="green" stroke-width="0.403505" points="990.603,-22.6705 980.02,-22.185 987.99,-29.1646 990.603,-22.6705"/>
</g>
<!-- &#45;33&#45;&gt;2 -->
<g id="edge128" class="edge"><title>&#45;33&#45;&gt;2</title>
<path fill="none" stroke="green" stroke-width="0.103252" d="M1866.28,-77.7121C1862.11,-73.2945 1856.36,-68.2412 1850.05,-65.6985 1684.98,0.802476 1220.87,-79.5912 1050.05,-29.6985 1048.99,-29.3883 1047.92,-29.022 1046.86,-28.6123"/>
<polygon fill="green" stroke="green" stroke-width="0.103252" points="1048.26,-25.3989 1037.75,-24.0905 1045.15,-31.6697 1048.26,-25.3989"/>
</g>
<!-- &#45;33&#45;&gt;3 -->
<g id="edge129" class="edge"><title>&#45;33&#45;&gt;3</title>
<path fill="none" stroke="green" stroke-width="0.157227" d="M1866.26,-77.7574C1862.08,-73.3549 1856.33,-68.3016 1850.05,-65.6985 1779.29,-36.4017 1224.35,-19.8774 1099.1,-16.4994"/>
<polygon fill="green" stroke="green" stroke-width="0.157227" points="1099.05,-12.9969 1088.96,-16.2295 1098.87,-19.9944 1099.05,-12.9969"/>
</g>
<!-- &#45;34 -->
<g id="node34" class="node"><title>&#45;34</title>
<polygon fill="lightgray" stroke="black" points="1699.55,-95.9117 1670.55,-95.9117 1670.55,-77.9117 1699.55,-77.9117 1699.55,-95.9117"/>
<text text-anchor="middle" x="1685.05" y="-84.7117" font-family="Times New Roman,serif" font-size="9.00">&#45;34</text>
</g>
<!-- &#45;34&#45;&gt;0 -->
<g id="edge130" class="edge"><title>&#45;34&#45;&gt;0</title>
<path fill="none" stroke="green" stroke-width="0.33381" d="M1678.28,-77.7241C1674.1,-73.3105 1668.35,-68.2572 1662.05,-65.6985 1513.81,-5.54129 1100.69,-56.9583 943.048,-29.6985 935.649,-28.419 927.765,-26.3266 920.652,-24.1512"/>
<polygon fill="green" stroke="green" stroke-width="0.33381" points="921.521,-20.7535 910.929,-20.9898 919.357,-27.4105 921.521,-20.7535"/>
</g>
<!-- &#45;34&#45;&gt;1 -->
<g id="edge131" class="edge"><title>&#45;34&#45;&gt;1</title>
<path fill="none" stroke="red" stroke-width="0.230674" d="M1678.27,-77.7347C1674.1,-73.3245 1668.35,-68.2712 1662.05,-65.6985 1526.07,-10.1612 1145.53,-61.1277 1002.05,-29.6985 997.929,-28.7962 993.662,-27.4687 989.584,-25.9879"/>
<polygon fill="red" stroke="red" stroke-width="0.230674" points="990.612,-22.6287 980.028,-22.1453 988,-29.1234 990.612,-22.6287"/>
</g>
<!-- &#45;34&#45;&gt;2 -->
<g id="edge132" class="edge"><title>&#45;34&#45;&gt;2</title>
<path fill="none" stroke="green" stroke-width="0.4181" d="M1678.27,-77.7447C1674.09,-73.338 1668.34,-68.2847 1662.05,-65.6985 1536.04,-13.919 1180.55,-68.7943 1050.05,-29.6985 1048.99,-29.381 1047.92,-29.0087 1046.87,-28.5941"/>
<polygon fill="green" stroke="green" stroke-width="0.4181" points="1048.27,-25.3818 1037.76,-24.0544 1045.15,-31.6471 1048.27,-25.3818"/>
</g>
<!-- &#45;34&#45;&gt;3 -->
<g id="edge133" class="edge"><title>&#45;34&#45;&gt;3</title>
<path fill="none" stroke="red" stroke-width="0.215867" d="M1678.24,-77.8055C1674.06,-73.419 1668.31,-68.3657 1662.05,-65.6985 1558.25,-21.4717 1197.78,-16.4475 1099.16,-15.9067"/>
<polygon fill="red" stroke="red" stroke-width="0.215867" points="1098.97,-12.4059 1088.95,-15.8622 1098.94,-19.4059 1098.97,-12.4059"/>
</g>
<!-- &#45;35 -->
<g id="node35" class="node"><title>&#45;35</title>
<polygon fill="lightgray" stroke="black" points="1746.55,-95.9117 1717.55,-95.9117 1717.55,-77.9117 1746.55,-77.9117 1746.55,-95.9117"/>
<text text-anchor="middle" x="1732.05" y="-84.7117" font-family="Times New Roman,serif" font-size="9.00">&#45;35</text>
</g>
<!-- &#45;35&#45;&gt;0 -->
<g id="edge134" class="edge"><title>&#45;35&#45;&gt;0</title>
<path fill="none" stroke="green" stroke-width="0.462701" d="M1725.28,-77.7169C1721.11,-73.3008 1715.36,-68.2475 1709.05,-65.6985 1551.05,-1.86048 1111.01,-58.4786 943.048,-29.6985 935.647,-28.4303 927.762,-26.3413 920.65,-24.1655"/>
<polygon fill="green" stroke="green" stroke-width="0.462701" points="921.519,-20.7679 910.927,-21.0013 919.353,-27.4243 921.519,-20.7679"/>
</g>
<!-- &#45;35&#45;&gt;1 -->
<g id="edge135" class="edge"><title>&#45;35&#45;&gt;1</title>
<path fill="none" stroke="red" stroke-width="0.197872" d="M1725.28,-77.7261C1721.1,-73.3131 1715.35,-68.2598 1709.05,-65.6985 1563.3,-6.48099 1155.78,-63.0816 1002.05,-29.6985 997.927,-28.8036 993.66,-27.4799 989.582,-26.0004"/>
<polygon fill="red" stroke="red" stroke-width="0.197872" points="990.609,-22.6412 980.026,-22.1572 987.997,-29.1357 990.609,-22.6412"/>
</g>
<!-- &#45;35&#45;&gt;2 -->
<g id="edge136" class="edge"><title>&#45;35&#45;&gt;2</title>
<path fill="none" stroke="green" stroke-width="0.172037" d="M1725.27,-77.7348C1721.1,-73.3248 1715.35,-68.2715 1709.05,-65.6985 1573.28,-10.2395 1190.63,-71.4929 1050.05,-29.6985 1048.99,-29.3832 1047.92,-29.0127 1046.87,-28.5996"/>
<polygon fill="green" stroke="green" stroke-width="0.172037" points="1048.27,-25.387 1037.75,-24.0654 1045.15,-31.6539 1048.27,-25.387"/>
</g>
<!-- &#45;35&#45;&gt;3 -->
<g id="edge137" class="edge"><title>&#45;35&#45;&gt;3</title>
<path fill="none" stroke="green" stroke-width="0.382604" d="M1725.25,-77.7909C1721.07,-73.3995 1715.32,-68.3462 1709.05,-65.6985 1596.14,-18.0065 1202.65,-15.5315 1099.15,-15.7252"/>
<polygon fill="green" stroke="green" stroke-width="0.382604" points="1099.01,-12.2255 1089.02,-15.755 1099.03,-19.2255 1099.01,-12.2255"/>
</g>
<!-- &#45;36 -->
<g id="node36" class="node"><title>&#45;36</title>
<polygon fill="lightgray" stroke="black" points="1793.55,-95.9117 1764.55,-95.9117 1764.55,-77.9117 1793.55,-77.9117 1793.55,-95.9117"/>
<text text-anchor="middle" x="1779.05" y="-84.7117" font-family="Times New Roman,serif" font-size="9.00">&#45;36</text>
</g>
<!-- &#45;36&#45;&gt;0 -->
<g id="edge138" class="edge"><title>&#45;36&#45;&gt;0</title>
<path fill="none" stroke="red" stroke-width="0.10769" d="M1772.28,-77.7104C1768.11,-73.2923 1762.36,-68.239 1756.05,-65.6985 1588.28,1.82072 1121.34,-59.999 943.048,-29.6985 935.645,-28.4404 927.76,-26.3543 920.647,-24.1782"/>
<polygon fill="red" stroke="red" stroke-width="0.10769" points="921.517,-20.7807 910.925,-21.0115 919.35,-27.4365 921.517,-20.7807"/>
</g>
<!-- &#45;36&#45;&gt;1 -->
<g id="edge139" class="edge"><title>&#45;36&#45;&gt;1</title>
<path fill="none" stroke="red" stroke-width="0.576904" d="M1772.28,-77.7186C1768.11,-73.3032 1762.36,-68.2499 1756.05,-65.6985 1600.54,-2.8003 1166.03,-65.0357 1002.05,-29.6985 997.926,-28.8101 993.658,-27.4896 989.579,-26.0113"/>
<polygon fill="red" stroke="red" stroke-width="0.576904" points="990.607,-22.6522 980.023,-22.1676 987.995,-29.1466 990.607,-22.6522"/>
</g>
<!-- &#45;36&#45;&gt;2 -->
<g id="edge140" class="edge"><title>&#45;36&#45;&gt;2</title>
<path fill="none" stroke="green" stroke-width="0.356452" d="M1772.28,-77.7263C1768.1,-73.3134 1762.35,-68.2601 1756.05,-65.6985 1610.51,-6.5593 1200.71,-74.192 1050.05,-29.6985 1048.99,-29.3851 1047.92,-29.0162 1046.86,-28.6044"/>
<polygon fill="green" stroke="green" stroke-width="0.356452" points="1048.26,-25.3915 1037.75,-24.0748 1045.15,-31.6599 1048.26,-25.3915"/>
</g>
<!-- &#45;36&#45;&gt;3 -->
<g id="edge141" class="edge"><title>&#45;36&#45;&gt;3</title>
<path fill="none" stroke="green" stroke-width="0.171819" d="M1772.25,-77.7782C1768.07,-73.3826 1762.32,-68.3293 1756.05,-65.6985 1634.05,-14.5505 1207.59,-14.6778 1099.24,-15.5677"/>
<polygon fill="green" stroke="green" stroke-width="0.171819" points="1098.92,-12.0704 1088.96,-15.6628 1098.99,-19.0701 1098.92,-12.0704"/>
</g>
<!-- &#45;37 -->
<g id="node37" class="node"><title>&#45;37</title>
<polygon fill="lightgray" stroke="black" points="1840.55,-95.9117 1811.55,-95.9117 1811.55,-77.9117 1840.55,-77.9117 1840.55,-95.9117"/>
<text text-anchor="middle" x="1826.05" y="-84.7117" font-family="Times New Roman,serif" font-size="9.00">&#45;37</text>
</g>
<!-- &#45;37&#45;&gt;0 -->
<g id="edge142" class="edge"><title>&#45;37&#45;&gt;0</title>
<path fill="none" stroke="green" stroke-width="0.207971" d="M1819.28,-77.7047C1815.11,-73.2846 1809.36,-68.2313 1803.05,-65.6985 1625.52,5.50225 1131.66,-61.5196 943.048,-29.6985 935.644,-28.4493 927.758,-26.3659 920.645,-24.1895"/>
<polygon fill="green" stroke="green" stroke-width="0.207971" points="921.516,-20.792 910.924,-21.0206 919.347,-27.4474 921.516,-20.792"/>
</g>
<!-- &#45;37&#45;&gt;1 -->
<g id="edge143" class="edge"><title>&#45;37&#45;&gt;1</title>
<path fill="none" stroke="green" stroke-width="0.281471" d="M1819.28,-77.712C1815.11,-73.2943 1809.36,-68.241 1803.05,-65.6985 1637.77,0.880801 1176.28,-66.99 1002.05,-29.6985 997.924,-28.8159 993.656,-27.4983 989.577,-26.021"/>
<polygon fill="green" stroke="green" stroke-width="0.281471" points="990.605,-22.6619 980.021,-22.1768 987.992,-29.1561 990.605,-22.6619"/>
</g>
<!-- &#45;37&#45;&gt;2 -->
<g id="edge144" class="edge"><title>&#45;37&#45;&gt;2</title>
<path fill="none" stroke="green" stroke-width="0.537231" d="M1819.28,-77.7188C1815.11,-73.3034 1809.36,-68.2501 1803.05,-65.6985 1647.75,-2.87862 1210.79,-76.8914 1050.05,-29.6985 1048.99,-29.3868 1047.92,-29.0193 1046.86,-28.6086"/>
<polygon fill="green" stroke="green" stroke-width="0.537231" points="1048.26,-25.3954 1037.75,-24.0831 1045.15,-31.6651 1048.26,-25.3954"/>
</g>
<!-- &#45;37&#45;&gt;3 -->
<g id="edge145" class="edge"><title>&#45;37&#45;&gt;3</title>
<path fill="none" stroke="red" stroke-width="0.485298" d="M1819.26,-77.7672C1815.08,-73.3679 1809.33,-68.3146 1803.05,-65.6985 1736.9,-38.1481 1219.63,-20.3979 1099.1,-16.6099"/>
<polygon fill="red" stroke="red" stroke-width="0.485298" points="1099.1,-13.1083 1088.99,-16.2961 1098.88,-20.105 1099.1,-13.1083"/>
</g>
<!-- &#45;38 -->
<g id="node38" class="node"><title>&#45;38</title>
<polygon fill="lightgray" stroke="black" points="281.548,-95.9117 252.548,-95.9117 252.548,-77.9117 281.548,-77.9117 281.548,-95.9117"/>
<text text-anchor="middle" x="267.048" y="-84.7117" font-family="Times New Roman,serif" font-size="9.00">&#45;38</text>
</g>
<!-- &#45;38&#45;&gt;0 -->
<g id="edge146" class="edge"><title>&#45;38&#45;&gt;0</title>
<path fill="none" stroke="red" stroke-width="0.298227" d="M274.213,-77.7983C278.601,-73.4093 284.601,-68.356 291.048,-65.6985 398.758,-21.2959 771.234,-16.4038 871.837,-15.8987"/>
<polygon fill="red" stroke="red" stroke-width="0.298227" points="871.99,-19.3982 881.976,-15.8585 871.962,-12.3982 871.99,-19.3982"/>
</g>
<!-- &#45;38&#45;&gt;1 -->
<g id="edge147" class="edge"><title>&#45;38&#45;&gt;1</title>
<path fill="none" stroke="green" stroke-width="0.26633" d="M274.189,-77.7377C278.569,-73.3286 284.569,-68.2753 291.048,-65.6985 421.35,-13.8778 782.956,-54.0802 921.048,-29.6985 928.442,-28.3929 936.325,-26.2927 943.438,-24.1183"/>
<polygon fill="green" stroke="green" stroke-width="0.26633" points="944.731,-27.3787 953.163,-20.9634 942.571,-20.7204 944.731,-27.3787"/>
</g>
<!-- &#45;38&#45;&gt;2 -->
<g id="edge148" class="edge"><title>&#45;38&#45;&gt;2</title>
<path fill="none" stroke="green" stroke-width="0.3387" d="M274.183,-77.7238C278.561,-73.3101 284.561,-68.2568 291.048,-65.6985 435.947,-8.55026 838.843,-62.7905 991.048,-29.6985 995.169,-28.8026 999.436,-27.4783 1003.51,-25.9986"/>
<polygon fill="green" stroke="green" stroke-width="0.3387" points="1005.1,-29.134 1013.07,-22.1555 1002.49,-22.6395 1005.1,-29.134"/>
</g>
<!-- &#45;38&#45;&gt;3 -->
<g id="edge149" class="edge"><title>&#45;38&#45;&gt;3</title>
<path fill="none" stroke="red" stroke-width="0.384913" stroke-dasharray="1,5" d="M274.179,-77.7141C278.556,-73.2972 284.556,-68.2439 291.048,-65.6985 448.252,-4.05904 888.021,-77.2361 1050.05,-29.6985 1051.11,-29.387 1052.17,-29.0197 1053.23,-28.6091"/>
<polygon fill="red" stroke="red" stroke-width="0.384913" points="1054.95,-31.6658 1062.35,-24.0841 1051.83,-25.3959 1054.95,-31.6658"/>
</g>
<!-- &#45;39 -->
<g id="node39" class="node"><title>&#45;39</title>
<polygon fill="lightgray" stroke="black" points="328.548,-95.9117 299.548,-95.9117 299.548,-77.9117 328.548,-77.9117 328.548,-95.9117"/>
<text text-anchor="middle" x="314.048" y="-84.7117" font-family="Times New Roman,serif" font-size="9.00">&#45;39</text>
</g>
<!-- &#45;39&#45;&gt;0 -->
<g id="edge150" class="edge"><title>&#45;39&#45;&gt;0</title>
<path fill="none" stroke="green" stroke-width="0.534864" d="M321.22,-77.8148C325.611,-73.4315 331.611,-68.3782 338.048,-65.6985 436.687,-24.6383 776.591,-17.3445 871.979,-16.0973"/>
<polygon fill="green" stroke="green" stroke-width="0.534864" points="872.172,-19.5953 882.129,-15.9759 872.088,-12.5958 872.172,-19.5953"/>
</g>
<!-- &#45;39&#45;&gt;1 -->
<g id="edge151" class="edge"><title>&#45;39&#45;&gt;1</title>
<path fill="none" stroke="red" stroke-width="0.127266" d="M321.193,-77.7488C325.575,-73.3434 331.575,-68.2901 338.048,-65.6985 458.552,-17.454 793.275,-52.5607 921.048,-29.6985 928.439,-28.376 936.321,-26.2707 943.435,-24.0969"/>
<polygon fill="red" stroke="red" stroke-width="0.127266" points="944.725,-27.358 953.16,-20.9462 942.568,-20.6988 944.725,-27.358"/>
</g>
<!-- &#45;39&#45;&gt;2 -->
<g id="edge152" class="edge"><title>&#45;39&#45;&gt;2</title>
<path fill="none" stroke="green" stroke-width="0.231961" d="M321.187,-77.7328C325.566,-73.3221 331.566,-68.2688 338.048,-65.6985 473.146,-12.1274 849.092,-60.8368 991.048,-29.6985 995.167,-28.795 999.433,-27.467 1003.51,-25.9859"/>
<polygon fill="green" stroke="green" stroke-width="0.231961" points="1005.1,-29.1214 1013.07,-22.1434 1002.48,-22.6267 1005.1,-29.1214"/>
</g>
<!-- &#45;39&#45;&gt;3 -->
<g id="edge153" class="edge"><title>&#45;39&#45;&gt;3</title>
<path fill="none" stroke="red" stroke-width="0.304642" d="M321.182,-77.7217C325.56,-73.3073 331.56,-68.254 338.048,-65.6985 485.449,-7.63685 898.101,-74.5366 1050.05,-29.6985 1051.11,-29.3853 1052.17,-29.0167 1053.23,-28.605"/>
<polygon fill="red" stroke="red" stroke-width="0.304642" points="1054.95,-31.6606 1062.35,-24.0759 1051.83,-25.392 1054.95,-31.6606"/>
</g>
<!-- &#45;40 -->
<g id="node40" class="node"><title>&#45;40</title>
<polygon fill="lightgray" stroke="black" points="187.548,-95.9117 158.548,-95.9117 158.548,-77.9117 187.548,-77.9117 187.548,-95.9117"/>
<text text-anchor="middle" x="173.048" y="-84.7117" font-family="Times New Roman,serif" font-size="9.00">&#45;40</text>
</g>
<!-- &#45;40&#45;&gt;0 -->
<g id="edge154" class="edge"><title>&#45;40&#45;&gt;0</title>
<path fill="none" stroke="red" stroke-width="0.245114" d="M179.84,-77.7736C184.02,-73.3764 189.77,-68.3231 196.048,-65.6985 321.746,-13.1467 761.628,-14.3476 871.854,-15.51"/>
<polygon fill="red" stroke="red" stroke-width="0.245114" points="871.978,-19.0116 882.018,-15.6274 872.059,-12.012 871.978,-19.0116"/>
</g>
<!-- &#45;40&#45;&gt;1 -->
<g id="edge155" class="edge"><title>&#45;40&#45;&gt;1</title>
<path fill="none" stroke="red" stroke-width="0.238663" d="M179.819,-77.7231C183.993,-73.3092 189.743,-68.2559 196.048,-65.6985 345.531,-5.07142 762.092,-57.1524 921.048,-29.6985 928.447,-28.4205 936.332,-26.3286 943.444,-24.1532"/>
<polygon fill="red" stroke="red" stroke-width="0.238663" points="944.74,-27.4123 953.167,-20.9914 942.575,-20.7555 944.74,-27.4123"/>
</g>
<!-- &#45;40&#45;&gt;2 -->
<g id="edge156" class="edge"><title>&#45;40&#45;&gt;2</title>
<path fill="none" stroke="red" stroke-width="0.171641" d="M179.815,-77.7128C183.987,-73.2954 189.737,-68.2421 196.048,-65.6985 360.074,0.410852 818.123,-66.7405 991.048,-29.6985 995.171,-28.8152 999.44,-27.4972 1003.52,-26.0198"/>
<polygon fill="red" stroke="red" stroke-width="0.171641" points="1005.1,-29.155 1013.07,-22.1757 1002.49,-22.6607 1005.1,-29.155"/>
</g>
<!-- 353&#45;&gt;0 -->
<g id="edge158" class="edge"><title>353&#45;&gt;0</title>
<path fill="none" stroke="green" stroke-width="0.482197" d="M55.0257,-72.8808C59.3394,-70.0178 64.1703,-67.3503 69.048,-65.6985 223.145,-13.515 750.231,-14.6142 871.864,-15.5914"/>
<polygon fill="green" stroke="green" stroke-width="0.482197" points="872.016,-19.0928 882.046,-15.681 872.078,-12.0931 872.016,-19.0928"/>
</g>
</g>
</svg>
