<?xml version="1.0" encoding="UTF-8" standalone="no"?>
<!DOCTYPE svg PUBLIC "-//W3C//DTD SVG 1.1//EN"
 "http://www.w3.org/Graphics/SVG/1.1/DTD/svg11.dtd">
<!-- Generated by graphviz version 2.38.0 (20140413.2041)
 -->
<!-- Title: %3 Pages: 1 -->
<svg width="1949pt" height="170pt"
 viewBox="0.00 0.00 1948.74 170.12" xmlns="http://www.w3.org/2000/svg" xmlns:xlink="http://www.w3.org/1999/xlink">
<g id="graph0" class="graph" transform="scale(1 1) rotate(0) translate(4 166.125)">
<title>%3</title>
<polygon fill="white" stroke="none" points="-4,4 -4,-166.125 1944.74,-166.125 1944.74,4 -4,4"/>
<!-- &#45;1 -->
<g id="node1" class="node"><title>&#45;1</title>
<polygon fill="lightgray" stroke="black" points="1697.81,-95.9117 1673.81,-95.9117 1673.81,-77.9117 1697.81,-77.9117 1697.81,-95.9117"/>
<text text-anchor="middle" x="1685.81" y="-84.7117" font-family="Times New Roman,serif" font-size="9.00">&#45;1</text>
</g>
<!-- 0 -->
<g id="node41" class="node"><title>0</title>
<ellipse fill="lightblue" stroke="black" cx="911.806" cy="-14.8492" rx="14.7" ry="14.7"/>
<text text-anchor="middle" x="911.806" y="-12.6492" font-family="Times New Roman,serif" font-size="9.00">0</text>
</g>
<!-- &#45;1&#45;&gt;0 -->
<g id="edge1" class="edge"><title>&#45;1&#45;&gt;0</title>
<path fill="none" stroke="green" stroke-width="0.163707" d="M1679.76,-77.7352C1676,-73.3253 1670.75,-68.272 1664.81,-65.6985 1520.44,-3.19452 1112.81,-56.5702 957.806,-29.6985 950.407,-28.4159 942.523,-26.3225 935.41,-24.1473"/>
<polygon fill="green" stroke="green" stroke-width="0.163707" points="936.279,-20.7495 925.687,-20.9867 934.115,-27.4067 936.279,-20.7495"/>
</g>
<!-- 1 -->
<g id="node42" class="node"><title>1</title>
<ellipse fill="lightblue" stroke="black" cx="981.806" cy="-14.8492" rx="14.7" ry="14.7"/>
<text text-anchor="middle" x="981.806" y="-12.6492" font-family="Times New Roman,serif" font-size="9.00">1</text>
</g>
<!-- &#45;1&#45;&gt;1 -->
<g id="edge2" class="edge"><title>&#45;1&#45;&gt;1</title>
<path fill="none" stroke="red" stroke-width="0.282896" d="M1679.76,-77.7435C1675.99,-73.3363 1670.74,-68.283 1664.81,-65.6985 1530.32,-7.17791 1146.39,-71.4929 1005.81,-29.6985 1004.75,-29.3832 1003.68,-29.0127 1002.62,-28.5996"/>
<polygon fill="red" stroke="red" stroke-width="0.282896" points="1004.02,-25.387 993.512,-24.0654 1000.91,-31.6539 1004.02,-25.387"/>
</g>
<!-- 2 -->
<g id="node43" class="node"><title>2</title>
<ellipse fill="lightblue" stroke="black" cx="1029.81" cy="-14.8492" rx="14.7" ry="14.7"/>
<text text-anchor="middle" x="1029.81" y="-12.6492" font-family="Times New Roman,serif" font-size="9.00">2</text>
</g>
<!-- &#45;1&#45;&gt;2 -->
<g id="edge3" class="edge"><title>&#45;1&#45;&gt;2</title>
<path fill="none" stroke="red" stroke-width="0.179928" d="M1679.74,-77.7963C1675.96,-73.4067 1670.71,-68.3534 1664.81,-65.6985 1553.01,-15.461 1158.7,-14.8488 1054.97,-15.5879"/>
<polygon fill="red" stroke="red" stroke-width="0.179928" points="1054.78,-12.0892 1044.81,-15.6718 1054.84,-19.089 1054.78,-12.0892"/>
</g>
<!-- 3 -->
<g id="node44" class="node"><title>3</title>
<ellipse fill="lightblue" stroke="black" cx="863.806" cy="-14.8492" rx="14.7" ry="14.7"/>
<text text-anchor="middle" x="863.806" y="-12.6492" font-family="Times New Roman,serif" font-size="9.00">3</text>
</g>
<!-- &#45;1&#45;&gt;3 -->
<g id="edge4" class="edge"><title>&#45;1&#45;&gt;3</title>
<path fill="none" stroke="red" stroke-width="0.237969" d="M1679.77,-77.725C1676.01,-73.3117 1670.76,-68.2584 1664.81,-65.6985 1506.03,2.61555 1053.69,-78.27 887.806,-29.6985 886.744,-29.3876 885.679,-29.0207 884.62,-28.6105"/>
<polygon fill="red" stroke="red" stroke-width="0.237969" points="886.019,-25.3972 875.505,-24.087 882.907,-31.6676 886.019,-25.3972"/>
</g>
<!-- &#45;2 -->
<g id="node2" class="node"><title>&#45;2</title>
<polygon fill="lightgray" stroke="black" points="1739.81,-95.9117 1715.81,-95.9117 1715.81,-77.9117 1739.81,-77.9117 1739.81,-95.9117"/>
<text text-anchor="middle" x="1727.81" y="-84.7117" font-family="Times New Roman,serif" font-size="9.00">&#45;2</text>
</g>
<!-- &#45;2&#45;&gt;0 -->
<g id="edge5" class="edge"><title>&#45;2&#45;&gt;0</title>
<path fill="none" stroke="red" stroke-width="0.186254" d="M1721.77,-77.7289C1718,-73.3168 1712.75,-68.2635 1706.81,-65.6985 1553.79,0.291401 1122.03,-57.9287 957.806,-29.6985 950.405,-28.4264 942.521,-26.3362 935.408,-24.1606"/>
<polygon fill="red" stroke="red" stroke-width="0.186254" points="936.278,-20.7629 925.685,-20.9973 934.112,-27.4195 936.278,-20.7629"/>
</g>
<!-- &#45;2&#45;&gt;1 -->
<g id="edge6" class="edge"><title>&#45;2&#45;&gt;1</title>
<path fill="none" stroke="green" stroke-width="0.147376" d="M1721.76,-77.7362C1718,-73.3266 1712.75,-68.2733 1706.81,-65.6985 1563.68,-3.69248 1155.39,-73.9048 1005.81,-29.6985 1004.74,-29.3849 1003.68,-29.0159 1002.62,-28.6039"/>
<polygon fill="green" stroke="green" stroke-width="0.147376" points="1004.02,-25.391 993.509,-24.0739 1000.91,-31.6593 1004.02,-25.391"/>
</g>
<!-- &#45;2&#45;&gt;2 -->
<g id="edge7" class="edge"><title>&#45;2&#45;&gt;2</title>
<path fill="none" stroke="green" stroke-width="0.4068" d="M1721.74,-77.7855C1717.97,-73.3924 1712.72,-68.3391 1706.81,-65.6985 1586.89,-12.1606 1162.68,-14.0591 1054.87,-15.4476"/>
<polygon fill="green" stroke="green" stroke-width="0.4068" points="1054.59,-11.9511 1044.64,-15.5906 1054.69,-18.9504 1054.59,-11.9511"/>
</g>
<!-- &#45;2&#45;&gt;3 -->
<g id="edge8" class="edge"><title>&#45;2&#45;&gt;3</title>
<path fill="none" stroke="red" stroke-width="0.121846" stroke-dasharray="1,5" d="M1721.77,-77.7197C1718.01,-73.3046 1712.76,-68.2513 1706.81,-65.6985 1539.38,6.10205 1062.7,-80.6827 887.806,-29.6985 886.744,-29.3888 885.678,-29.023 884.62,-28.6137"/>
<polygon fill="red" stroke="red" stroke-width="0.121846" points="886.017,-25.4002 875.503,-24.0932 882.908,-31.6715 886.017,-25.4002"/>
</g>
<!-- &#45;3 -->
<g id="node3" class="node"><title>&#45;3</title>
<polygon fill="lightgray" stroke="black" points="175.806,-95.9117 151.806,-95.9117 151.806,-77.9117 175.806,-77.9117 175.806,-95.9117"/>
<text text-anchor="middle" x="163.806" y="-84.7117" font-family="Times New Roman,serif" font-size="9.00">&#45;3</text>
</g>
<!-- &#45;3&#45;&gt;0 -->
<g id="edge9" class="edge"><title>&#45;3&#45;&gt;0</title>
<path fill="none" stroke="green" stroke-width="0.289222" d="M169.848,-77.7359C173.612,-73.3262 178.862,-68.2729 184.806,-65.6985 328.347,-3.5265 737.789,-74.0197 887.806,-29.6985 888.867,-29.385 889.931,-29.016 890.989,-28.6041"/>
<polygon fill="green" stroke="green" stroke-width="0.289222" points="892.706,-31.6595 900.102,-24.0743 889.59,-25.3912 892.706,-31.6595"/>
</g>
<!-- &#45;3&#45;&gt;1 -->
<g id="edge10" class="edge"><title>&#45;3&#45;&gt;1</title>
<path fill="none" stroke="green" stroke-width="0.342055" d="M169.845,-77.7286C173.608,-73.3165 178.858,-68.2632 184.806,-65.6985 338.231,0.457407 771.138,-57.9934 935.806,-29.6985 943.206,-28.4269 951.091,-26.3368 958.203,-24.1612"/>
<polygon fill="green" stroke="green" stroke-width="0.342055" points="959.5,-27.4201 967.926,-20.9978 957.334,-20.7635 959.5,-27.4201"/>
</g>
<!-- &#45;3&#45;&gt;2 -->
<g id="edge11" class="edge"><title>&#45;3&#45;&gt;2</title>
<path fill="none" stroke="red" stroke-width="0.400879" d="M169.841,-77.7195C173.603,-73.3043 178.853,-68.251 184.806,-65.6985 352.647,6.26808 830.481,-80.7976 1005.81,-29.6985 1006.87,-29.3889 1007.93,-29.0231 1008.99,-28.6138"/>
<polygon fill="red" stroke="red" stroke-width="0.400879" points="1010.7,-31.6716 1018.11,-24.0935 1007.59,-25.4003 1010.7,-31.6716"/>
</g>
<!-- &#45;3&#45;&gt;3 -->
<g id="edge12" class="edge"><title>&#45;3&#45;&gt;3</title>
<path fill="none" stroke="green" stroke-width="0.220447" d="M169.87,-77.785C173.641,-73.3917 178.891,-68.3384 184.806,-65.6985 305.081,-12.0163 730.538,-14.0217 838.667,-15.4404"/>
<polygon fill="green" stroke="green" stroke-width="0.220447" points="838.878,-18.9436 848.926,-15.5863 838.977,-11.9443 838.878,-18.9436"/>
</g>
<!-- &#45;4 -->
<g id="node4" class="node"><title>&#45;4</title>
<polygon fill="lightgray" stroke="black" points="217.806,-95.9117 193.806,-95.9117 193.806,-77.9117 217.806,-77.9117 217.806,-95.9117"/>
<text text-anchor="middle" x="205.806" y="-84.7117" font-family="Times New Roman,serif" font-size="9.00">&#45;4</text>
</g>
<!-- &#45;4&#45;&gt;0 -->
<g id="edge13" class="edge"><title>&#45;4&#45;&gt;0</title>
<path fill="none" stroke="green" stroke-width="0.183618" d="M211.851,-77.7431C215.616,-73.3358 220.866,-68.2825 226.806,-65.6985 361.699,-7.01195 746.795,-71.6077 887.806,-29.6985 888.866,-29.3833 889.93,-29.0129 890.988,-28.5998"/>
<polygon fill="green" stroke="green" stroke-width="0.183618" points="892.706,-31.6542 900.1,-24.0658 889.588,-25.3872 892.706,-31.6542"/>
</g>
<!-- &#45;4&#45;&gt;1 -->
<g id="edge14" class="edge"><title>&#45;4&#45;&gt;1</title>
<path fill="none" stroke="red" stroke-width="0.232959" d="M211.848,-77.7349C215.612,-73.3249 220.862,-68.2716 226.806,-65.6985 371.582,-3.02854 780.364,-56.6349 935.806,-29.6985 943.204,-28.4164 951.088,-26.3232 958.201,-24.1479"/>
<polygon fill="red" stroke="red" stroke-width="0.232959" points="959.496,-27.4073 967.924,-20.9872 957.332,-20.7502 959.496,-27.4073"/>
</g>
<!-- &#45;4&#45;&gt;2 -->
<g id="edge15" class="edge"><title>&#45;4&#45;&gt;2</title>
<path fill="none" stroke="red" stroke-width="0.383854" d="M211.843,-77.7248C215.606,-73.3113 220.856,-68.258 226.806,-65.6985 385.997,2.78157 839.49,-78.3849 1005.81,-29.6985 1006.87,-29.3876 1007.93,-29.0209 1008.99,-28.6107"/>
<polygon fill="red" stroke="red" stroke-width="0.383854" points="1010.7,-31.6678 1018.11,-24.0873 1007.59,-25.3974 1010.7,-31.6678"/>
</g>
<!-- &#45;4&#45;&gt;3 -->
<g id="edge16" class="edge"><title>&#45;4&#45;&gt;3</title>
<path fill="none" stroke="green" stroke-width="0.459211" d="M211.874,-77.7957C215.647,-73.406 220.897,-68.3527 226.806,-65.6985 338.958,-15.3175 734.505,-14.8103 838.567,-15.5802"/>
<polygon fill="green" stroke="green" stroke-width="0.459211" points="838.723,-19.0816 848.753,-15.6671 838.783,-12.0818 838.723,-19.0816"/>
</g>
<!-- &#45;5 -->
<g id="node5" class="node"><title>&#45;5</title>
<polygon fill="lightgray" stroke="black" points="259.806,-95.9117 235.806,-95.9117 235.806,-77.9117 259.806,-77.9117 259.806,-95.9117"/>
<text text-anchor="middle" x="247.806" y="-84.7117" font-family="Times New Roman,serif" font-size="9.00">&#45;5</text>
</g>
<!-- &#45;5&#45;&gt;0 -->
<g id="edge17" class="edge"><title>&#45;5&#45;&gt;0</title>
<path fill="none" stroke="red" stroke-width="0.188821" stroke-dasharray="1,5" d="M253.855,-77.7513C257.621,-73.3467 262.871,-68.2934 268.806,-65.6985 395.053,-10.4969 755.8,-69.1962 887.806,-29.6985 888.866,-29.3813 889.929,-29.0093 890.986,-28.595"/>
<polygon fill="red" stroke="red" stroke-width="0.188821" points="892.707,-31.6481 900.097,-24.0562 889.586,-25.3826 892.707,-31.6481"/>
</g>
<!-- &#45;5&#45;&gt;1 -->
<g id="edge18" class="edge"><title>&#45;5&#45;&gt;1</title>
<path fill="none" stroke="red" stroke-width="0.196004" d="M253.851,-77.742C257.616,-73.3343 262.866,-68.281 268.806,-65.6985 404.934,-6.51406 789.588,-55.2766 935.806,-29.6985 943.202,-28.4046 951.086,-26.3079 958.199,-24.1331"/>
<polygon fill="red" stroke="red" stroke-width="0.196004" points="959.492,-27.3929 967.922,-20.9752 957.33,-20.7352 959.492,-27.3929"/>
</g>
<!-- &#45;5&#45;&gt;2 -->
<g id="edge19" class="edge"><title>&#45;5&#45;&gt;2</title>
<path fill="none" stroke="red" stroke-width="0.407631" d="M253.846,-77.7306C257.609,-73.3192 262.859,-68.2659 268.806,-65.6985 419.348,-0.704617 848.497,-75.9724 1005.81,-29.6985 1006.87,-29.3862 1007.93,-29.0183 1008.99,-28.6072"/>
<polygon fill="red" stroke="red" stroke-width="0.407631" points="1010.71,-31.6634 1018.1,-24.0804 1007.59,-25.3941 1010.71,-31.6634"/>
</g>
<!-- &#45;5&#45;&gt;3 -->
<g id="edge20" class="edge"><title>&#45;5&#45;&gt;3</title>
<path fill="none" stroke="green" stroke-width="0.477505" d="M253.88,-77.8079C257.655,-73.4222 262.905,-68.3689 268.806,-65.6985 372.928,-18.5812 739.112,-15.6484 838.663,-15.741"/>
<polygon fill="green" stroke="green" stroke-width="0.477505" points="838.947,-19.2415 848.955,-15.7628 838.962,-12.2415 838.947,-19.2415"/>
</g>
<!-- &#45;6 -->
<g id="node6" class="node"><title>&#45;6</title>
<polygon fill="lightgray" stroke="black" points="1889.81,-95.9117 1865.81,-95.9117 1865.81,-77.9117 1889.81,-77.9117 1889.81,-95.9117"/>
<text text-anchor="middle" x="1877.81" y="-84.7117" font-family="Times New Roman,serif" font-size="9.00">&#45;6</text>
</g>
<!-- &#45;6&#45;&gt;0 -->
<g id="edge21" class="edge"><title>&#45;6&#45;&gt;0</title>
<path fill="none" stroke="red" stroke-width="0.180377" d="M1871.77,-77.711C1868.01,-73.293 1862.76,-68.2397 1856.81,-65.6985 1764.85,-26.4774 1056.4,-46.24 957.806,-29.6985 950.4,-28.456 942.514,-26.3746 935.402,-24.1979"/>
<polygon fill="red" stroke="red" stroke-width="0.180377" points="936.273,-20.8006 925.68,-21.0274 934.102,-27.4556 936.273,-20.8006"/>
</g>
<!-- &#45;6&#45;&gt;1 -->
<g id="edge22" class="edge"><title>&#45;6&#45;&gt;1</title>
<path fill="none" stroke="green" stroke-width="0.312544" d="M1871.77,-77.716C1868.01,-73.2997 1862.76,-68.2464 1856.81,-65.6985 1682.79,8.75861 1187.57,-82.5211 1005.81,-29.6985 1004.74,-29.3897 1003.68,-29.0246 1002.62,-28.6158"/>
<polygon fill="green" stroke="green" stroke-width="0.312544" points="1004.02,-25.4022 993.502,-24.0975 1000.91,-31.6742 1004.02,-25.4022"/>
</g>
<!-- &#45;6&#45;&gt;2 -->
<g id="edge23" class="edge"><title>&#45;6&#45;&gt;2</title>
<path fill="none" stroke="green" stroke-width="0.327567" d="M1871.75,-77.756C1867.99,-73.353 1862.74,-68.2997 1856.81,-65.6985 1781.77,-32.7933 1185.13,-18.9721 1054.87,-16.3311"/>
<polygon fill="green" stroke="green" stroke-width="0.327567" points="1054.76,-12.8283 1044.69,-16.1284 1054.62,-19.8269 1054.76,-12.8283"/>
</g>
<!-- &#45;7 -->
<g id="node7" class="node"><title>&#45;7</title>
<polygon fill="lightgray" stroke="black" points="301.806,-95.9117 277.806,-95.9117 277.806,-77.9117 301.806,-77.9117 301.806,-95.9117"/>
<text text-anchor="middle" x="289.806" y="-84.7117" font-family="Times New Roman,serif" font-size="9.00">&#45;7</text>
</g>
<!-- &#45;7&#45;&gt;0 -->
<g id="edge24" class="edge"><title>&#45;7&#45;&gt;0</title>
<path fill="none" stroke="red" stroke-width="0.169" d="M295.859,-77.7607C299.627,-73.3592 304.877,-68.3059 310.806,-65.6985 428.408,-13.9812 764.804,-66.785 887.806,-29.6985 888.865,-29.3791 889.928,-29.0053 890.985,-28.5894"/>
<polygon fill="red" stroke="red" stroke-width="0.169" points="892.708,-31.6412 900.094,-24.0452 889.583,-25.3774 892.708,-31.6412"/>
</g>
<!-- &#45;7&#45;&gt;1 -->
<g id="edge25" class="edge"><title>&#45;7&#45;&gt;1</title>
<path fill="none" stroke="red" stroke-width="0.485972" d="M295.854,-77.7501C299.62,-73.3451 304.87,-68.2918 310.806,-65.6985 438.288,-9.99906 798.811,-53.9185 935.806,-29.6985 943.2,-28.3912 951.083,-26.2906 958.196,-24.1162"/>
<polygon fill="red" stroke="red" stroke-width="0.485972" points="959.488,-27.3766 967.92,-20.9617 957.328,-20.7182 959.488,-27.3766"/>
</g>
<!-- &#45;7&#45;&gt;2 -->
<g id="edge26" class="edge"><title>&#45;7&#45;&gt;2</title>
<path fill="none" stroke="green" stroke-width="0.264467" d="M295.849,-77.7372C299.613,-73.3279 304.863,-68.2746 310.806,-65.6985 452.7,-4.19043 857.505,-73.5602 1005.81,-29.6985 1006.87,-29.3847 1007.93,-29.0155 1008.99,-28.6033"/>
<polygon fill="green" stroke="green" stroke-width="0.264467" points="1010.71,-31.6586 1018.1,-24.0727 1007.59,-25.3905 1010.71,-31.6586"/>
</g>
<!-- &#45;7&#45;&gt;3 -->
<g id="edge27" class="edge"><title>&#45;7&#45;&gt;3</title>
<path fill="none" stroke="green" stroke-width="0.352552" d="M295.886,-77.8218C299.663,-73.4408 304.913,-68.3875 310.806,-65.6985 406.867,-21.8629 743.497,-16.5469 838.606,-15.9254"/>
<polygon fill="green" stroke="green" stroke-width="0.352552" points="838.757,-19.4248 848.738,-15.8716 838.719,-12.4249 838.757,-19.4248"/>
</g>
<!-- &#45;8 -->
<g id="node8" class="node"><title>&#45;8</title>
<polygon fill="lightgray" stroke="black" points="343.806,-95.9117 319.806,-95.9117 319.806,-77.9117 343.806,-77.9117 343.806,-95.9117"/>
<text text-anchor="middle" x="331.806" y="-84.7117" font-family="Times New Roman,serif" font-size="9.00">&#45;8</text>
</g>
<!-- &#45;8&#45;&gt;0 -->
<g id="edge28" class="edge"><title>&#45;8&#45;&gt;0</title>
<path fill="none" stroke="red" stroke-width="0.206505" d="M337.864,-77.7715C341.633,-73.3737 346.883,-68.3204 352.806,-65.6985 461.765,-17.4646 773.805,-64.3745 887.806,-29.6985 888.864,-29.3765 889.926,-29.0006 890.983,-28.583"/>
<polygon fill="red" stroke="red" stroke-width="0.206505" points="892.709,-31.6332 900.09,-24.0324 889.58,-25.3714 892.709,-31.6332"/>
</g>
<!-- &#45;8&#45;&gt;1 -->
<g id="edge29" class="edge"><title>&#45;8&#45;&gt;1</title>
<path fill="none" stroke="green" stroke-width="0.177037" d="M337.858,-77.7593C341.626,-73.3573 346.876,-68.304 352.806,-65.6985 471.643,-13.4834 808.033,-52.5607 935.806,-29.6985 943.197,-28.376 951.079,-26.2707 958.192,-24.0969"/>
<polygon fill="green" stroke="green" stroke-width="0.177037" points="959.483,-27.358 967.917,-20.9462 957.325,-20.6988 959.483,-27.358"/>
</g>
<!-- &#45;8&#45;&gt;2 -->
<g id="edge30" class="edge"><title>&#45;8&#45;&gt;2</title>
<path fill="none" stroke="red" stroke-width="0.575737" d="M337.852,-77.7446C341.617,-73.3378 346.867,-68.2845 352.806,-65.6985 486.052,-7.67579 866.511,-71.1483 1005.81,-29.6985 1006.87,-29.3829 1007.93,-29.0123 1008.99,-28.599"/>
<polygon fill="red" stroke="red" stroke-width="0.575737" points="1010.71,-31.6531 1018.1,-24.064 1007.59,-25.3863 1010.71,-31.6531"/>
</g>
<!-- &#45;8&#45;&gt;3 -->
<g id="edge31" class="edge"><title>&#45;8&#45;&gt;3</title>
<path fill="none" stroke="green" stroke-width="0.440262" d="M337.894,-77.8381C341.673,-73.4624 346.923,-68.4091 352.806,-65.6985 440.817,-25.1451 747.95,-17.5188 838.497,-16.1413"/>
<polygon fill="green" stroke="green" stroke-width="0.440262" points="838.715,-19.6387 848.665,-15.9996 838.617,-12.6394 838.715,-19.6387"/>
</g>
<!-- &#45;9 -->
<g id="node9" class="node"><title>&#45;9</title>
<polygon fill="lightgray" stroke="black" points="385.806,-95.9117 361.806,-95.9117 361.806,-77.9117 385.806,-77.9117 385.806,-95.9117"/>
<text text-anchor="middle" x="373.806" y="-84.7117" font-family="Times New Roman,serif" font-size="9.00">&#45;9</text>
</g>
<!-- &#45;9&#45;&gt;0 -->
<g id="edge32" class="edge"><title>&#45;9&#45;&gt;0</title>
<path fill="none" stroke="red" stroke-width="0.290436" stroke-dasharray="1,5" d="M379.869,-77.7842C383.64,-73.3906 388.89,-68.3373 394.806,-65.6985 595.442,23.8043 677.803,-94.2309 887.806,-29.6985 888.863,-29.3735 889.925,-28.9951 890.98,-28.5755"/>
<polygon fill="red" stroke="red" stroke-width="0.290436" points="892.71,-31.6238 900.085,-24.0176 889.576,-25.3643 892.71,-31.6238"/>
</g>
<!-- &#45;9&#45;&gt;1 -->
<g id="edge33" class="edge"><title>&#45;9&#45;&gt;1</title>
<path fill="none" stroke="red" stroke-width="0.387852" d="M379.863,-77.7699C383.632,-73.3715 388.882,-68.3182 394.806,-65.6985 504.999,-16.9671 817.252,-51.2033 935.806,-29.6985 943.194,-28.3583 951.075,-26.2479 958.188,-24.0747"/>
<polygon fill="red" stroke="red" stroke-width="0.387852" points="959.477,-27.3365 967.914,-20.9283 957.322,-20.6763 959.477,-27.3365"/>
</g>
<!-- &#45;9&#45;&gt;2 -->
<g id="edge34" class="edge"><title>&#45;9&#45;&gt;2</title>
<path fill="none" stroke="red" stroke-width="0.242206" d="M379.855,-77.753C383.622,-73.349 388.872,-68.2957 394.806,-65.6985 519.406,-11.1606 875.515,-68.7369 1005.81,-29.6985 1006.87,-29.3809 1007.93,-29.0086 1008.99,-28.594"/>
<polygon fill="red" stroke="red" stroke-width="0.242206" points="1010.71,-31.6469 1018.1,-24.0542 1007.59,-25.3817 1010.71,-31.6469"/>
</g>
<!-- &#45;9&#45;&gt;3 -->
<g id="edge35" class="edge"><title>&#45;9&#45;&gt;3</title>
<path fill="none" stroke="green" stroke-width="0.62181" d="M379.903,-77.8571C383.685,-73.4878 388.935,-68.4345 394.806,-65.6985 474.973,-28.3384 753.822,-18.534 838.941,-16.3831"/>
<polygon fill="green" stroke="green" stroke-width="0.62181" points="839.07,-19.8811 848.984,-16.1427 838.903,-12.8831 839.07,-19.8811"/>
</g>
<!-- &#45;10 -->
<g id="node10" class="node"><title>&#45;10</title>
<polygon fill="lightgray" stroke="black" points="433.306,-95.9117 404.306,-95.9117 404.306,-77.9117 433.306,-77.9117 433.306,-95.9117"/>
<text text-anchor="middle" x="418.806" y="-84.7117" font-family="Times New Roman,serif" font-size="9.00">&#45;10</text>
</g>
<!-- &#45;10&#45;&gt;0 -->
<g id="edge36" class="edge"><title>&#45;10&#45;&gt;0</title>
<path fill="none" stroke="green" stroke-width="0.144208" d="M425.607,-77.796C429.791,-73.4064 435.541,-68.3531 441.806,-65.6985 624.915,11.885 697.936,-88.8397 887.806,-29.6985 888.862,-29.3694 889.922,-28.9877 890.977,-28.5655"/>
<polygon fill="green" stroke="green" stroke-width="0.144208" points="892.711,-31.6113 900.079,-23.9977 889.572,-25.3549 892.711,-31.6113"/>
</g>
<!-- &#45;10&#45;&gt;1 -->
<g id="edge37" class="edge"><title>&#45;10&#45;&gt;1</title>
<path fill="none" stroke="green" stroke-width="0.308169" d="M425.599,-77.7777C429.78,-73.3819 435.53,-68.3286 441.806,-65.6985 543.319,-23.153 827.567,-49.6847 935.806,-29.6985 943.19,-28.335 951.069,-26.2177 958.183,-24.0454"/>
<polygon fill="green" stroke="green" stroke-width="0.308169" points="959.469,-27.3081 967.91,-20.9047 957.318,-20.6468 959.469,-27.3081"/>
</g>
<!-- &#45;10&#45;&gt;2 -->
<g id="edge38" class="edge"><title>&#45;10&#45;&gt;2</title>
<path fill="none" stroke="green" stroke-width="0.373713" d="M425.59,-77.7565C429.768,-73.3537 435.518,-68.3004 441.806,-65.6985 557.85,-17.676 885.59,-66.0389 1005.81,-29.6985 1006.86,-29.3783 1007.93,-29.0039 1008.98,-28.5876"/>
<polygon fill="green" stroke="green" stroke-width="0.373713" points="1010.71,-31.6389 1018.09,-24.0414 1007.58,-25.3756 1010.71,-31.6389"/>
</g>
<!-- &#45;10&#45;&gt;3 -->
<g id="edge39" class="edge"><title>&#45;10&#45;&gt;3</title>
<path fill="none" stroke="red" stroke-width="0.304904" d="M425.644,-77.8827C429.841,-73.5219 435.591,-68.4686 441.806,-65.6985 513.724,-33.6432 759.111,-20.3865 838.678,-16.8658"/>
<polygon fill="red" stroke="red" stroke-width="0.304904" points="838.929,-20.3584 848.769,-16.4327 838.628,-13.3648 838.929,-20.3584"/>
</g>
<!-- &#45;11 -->
<g id="node11" class="node"><title>&#45;11</title>
<polygon fill="lightgray" stroke="black" points="480.306,-95.9117 451.306,-95.9117 451.306,-77.9117 480.306,-77.9117 480.306,-95.9117"/>
<text text-anchor="middle" x="465.806" y="-84.7117" font-family="Times New Roman,serif" font-size="9.00">&#45;11</text>
</g>
<!-- &#45;11&#45;&gt;0 -->
<g id="edge40" class="edge"><title>&#45;11&#45;&gt;0</title>
<path fill="none" stroke="green" stroke-width="0.218232" d="M472.616,-77.8182C476.803,-73.4359 482.553,-68.3826 488.806,-65.6985 652.421,4.53817 718.06,-83.4518 887.806,-29.6985 888.861,-29.3645 889.92,-28.9787 890.973,-28.5531"/>
<polygon fill="green" stroke="green" stroke-width="0.218232" points="892.713,-31.5959 900.072,-23.9731 889.566,-25.3434 892.713,-31.5959"/>
</g>
<!-- &#45;11&#45;&gt;1 -->
<g id="edge41" class="edge"><title>&#45;11&#45;&gt;1</title>
<path fill="none" stroke="green" stroke-width="0.141485" d="M472.607,-77.7956C476.79,-73.4058 482.54,-68.3525 488.806,-65.6985 672.329,12.0414 739.948,-66.6353 935.806,-29.6985 943.184,-28.3069 951.063,-26.1812 958.176,-24.0099"/>
<polygon fill="green" stroke="green" stroke-width="0.141485" points="959.459,-27.2738 967.904,-20.8762 957.313,-20.611 959.459,-27.2738"/>
</g>
<!-- &#45;11&#45;&gt;2 -->
<g id="edge42" class="edge"><title>&#45;11&#45;&gt;2</title>
<path fill="none" stroke="green" stroke-width="0.150809" d="M472.596,-77.7701C476.776,-73.3718 482.526,-68.3185 488.806,-65.6985 701.38,22.9911 785.519,-96.9848 1005.81,-29.6985 1006.86,-29.3753 1007.93,-28.9983 1008.98,-28.58"/>
<polygon fill="green" stroke="green" stroke-width="0.150809" points="1010.71,-31.6294 1018.09,-24.0264 1007.58,-25.3685 1010.71,-31.6294"/>
</g>
<!-- &#45;11&#45;&gt;3 -->
<g id="edge43" class="edge"><title>&#45;11&#45;&gt;3</title>
<path fill="none" stroke="green" stroke-width="0.104187" d="M473.058,-77.5069C477.221,-73.2535 482.805,-68.4259 488.806,-65.6985 551.791,-37.0725 765.094,-21.8009 838.636,-17.2913"/>
<polygon fill="green" stroke="green" stroke-width="0.104187" points="839.045,-20.7732 848.817,-16.6815 838.626,-13.7857 839.045,-20.7732"/>
</g>
<!-- &#45;12 -->
<g id="node12" class="node"><title>&#45;12</title>
<polygon fill="lightgray" stroke="black" points="527.306,-95.9117 498.306,-95.9117 498.306,-77.9117 527.306,-77.9117 527.306,-95.9117"/>
<text text-anchor="middle" x="512.806" y="-84.7117" font-family="Times New Roman,serif" font-size="9.00">&#45;12</text>
</g>
<!-- &#45;12&#45;&gt;0 -->
<g id="edge44" class="edge"><title>&#45;12&#45;&gt;0</title>
<path fill="none" stroke="red" stroke-width="0.368308" d="M519.628,-77.8461C523.819,-73.4732 529.569,-68.4199 535.806,-65.6985 679.941,-2.80275 738.169,-78.0684 887.806,-29.6985 888.859,-29.3582 889.916,-28.9672 890.968,-28.5375"/>
<polygon fill="red" stroke="red" stroke-width="0.368308" points="892.715,-31.5764 900.062,-23.9422 889.558,-25.3288 892.715,-31.5764"/>
</g>
<!-- &#45;12&#45;&gt;1 -->
<g id="edge45" class="edge"><title>&#45;12&#45;&gt;1</title>
<path fill="none" stroke="red" stroke-width="0.200079" d="M519.616,-77.8177C523.803,-73.4352 529.553,-68.3819 535.806,-65.6985 699.836,4.69443 760.559,-63.6016 935.806,-29.6985 943.178,-28.2723 951.054,-26.1363 958.168,-23.9662"/>
<polygon fill="red" stroke="red" stroke-width="0.200079" points="959.447,-27.2315 967.898,-20.8411 957.306,-20.5669 959.447,-27.2315"/>
</g>
<!-- &#45;12&#45;&gt;2 -->
<g id="edge46" class="edge"><title>&#45;12&#45;&gt;2</title>
<path fill="none" stroke="red" stroke-width="0.536991" d="M519.603,-77.7864C523.785,-73.3935 529.535,-68.3402 535.806,-65.6985 728.873,15.6383 805.656,-91.5923 1005.81,-29.6985 1006.86,-29.3716 1007.92,-28.9917 1008.98,-28.5709"/>
<polygon fill="red" stroke="red" stroke-width="0.536991" points="1010.71,-31.618 1018.08,-24.0083 1007.57,-25.36 1010.71,-31.618"/>
</g>
<!-- &#45;12&#45;&gt;3 -->
<g id="edge47" class="edge"><title>&#45;12&#45;&gt;3</title>
<path fill="none" stroke="green" stroke-width="0.184642" d="M520.079,-77.5515C524.247,-73.3112 529.83,-68.4818 535.806,-65.6985 589.963,-40.4723 771.737,-23.3956 838.734,-17.8259"/>
<polygon fill="green" stroke="green" stroke-width="0.184642" points="839.132,-21.3052 848.814,-17.0033 838.563,-14.3284 839.132,-21.3052"/>
</g>
<!-- &#45;13 -->
<g id="node13" class="node"><title>&#45;13</title>
<polygon fill="lightgray" stroke="black" points="574.306,-95.9117 545.306,-95.9117 545.306,-77.9117 574.306,-77.9117 574.306,-95.9117"/>
<text text-anchor="middle" x="559.806" y="-84.7117" font-family="Times New Roman,serif" font-size="9.00">&#45;13</text>
</g>
<!-- &#45;13&#45;&gt;0 -->
<g id="edge48" class="edge"><title>&#45;13&#45;&gt;0</title>
<path fill="none" stroke="red" stroke-width="0.545326" stroke-dasharray="1,5" d="M566.644,-77.8825C570.841,-73.5217 576.591,-68.4684 582.806,-65.6985 707.481,-10.1349 758.257,-72.6917 887.806,-29.6985 888.685,-29.4068 889.567,-29.0807 890.448,-28.7269"/>
<polygon fill="red" stroke="red" stroke-width="0.545326" points="892.164,-31.7823 899.555,-24.1914 889.043,-25.5163 892.164,-31.7823"/>
</g>
<!-- &#45;13&#45;&gt;1 -->
<g id="edge49" class="edge"><title>&#45;13&#45;&gt;1</title>
<path fill="none" stroke="green" stroke-width="0.202505" d="M566.628,-77.8455C570.819,-73.4723 576.569,-68.419 582.806,-65.6985 727.355,-2.64664 781.154,-60.5708 935.806,-29.6985 943.169,-28.2285 951.043,-26.0796 958.157,-23.9111"/>
<polygon fill="green" stroke="green" stroke-width="0.202505" points="959.432,-27.1781 967.889,-20.7967 957.298,-20.5112 959.432,-27.1781"/>
</g>
<!-- &#45;13&#45;&gt;2 -->
<g id="edge50" class="edge"><title>&#45;13&#45;&gt;2</title>
<path fill="none" stroke="green" stroke-width="0.187311" d="M566.611,-77.8063C570.796,-73.42 576.546,-68.3667 582.806,-65.6985 756.374,8.28914 825.785,-86.2026 1005.81,-29.6985 1006.86,-29.3671 1007.92,-28.9835 1008.98,-28.5598"/>
<polygon fill="green" stroke="green" stroke-width="0.187311" points="1010.71,-31.6042 1018.08,-23.9863 1007.57,-25.3496 1010.71,-31.6042"/>
</g>
<!-- &#45;13&#45;&gt;3 -->
<g id="edge51" class="edge"><title>&#45;13&#45;&gt;3</title>
<path fill="none" stroke="red" stroke-width="0.435244" d="M567.106,-77.6103C571.283,-73.3872 576.865,-68.5555 582.806,-65.6985 670.163,-23.6849 788.117,-16.7731 838.88,-15.8493"/>
<polygon fill="red" stroke="red" stroke-width="0.435244" points="838.972,-19.3486 848.93,-15.7312 838.89,-12.3491 838.972,-19.3486"/>
</g>
<!-- &#45;14 -->
<g id="node14" class="node"><title>&#45;14</title>
<polygon fill="lightgray" stroke="black" points="621.306,-95.9117 592.306,-95.9117 592.306,-77.9117 621.306,-77.9117 621.306,-95.9117"/>
<text text-anchor="middle" x="606.806" y="-84.7117" font-family="Times New Roman,serif" font-size="9.00">&#45;14</text>
</g>
<!-- &#45;14&#45;&gt;0 -->
<g id="edge52" class="edge"><title>&#45;14&#45;&gt;0</title>
<path fill="none" stroke="red" stroke-width="0.358429" d="M614.065,-77.5224C618.23,-73.2736 623.814,-68.4453 629.806,-65.6985 735.052,-17.4533 778.313,-67.3257 887.806,-29.6985 888.682,-29.3975 889.561,-29.0635 890.439,-28.7031"/>
<polygon fill="red" stroke="red" stroke-width="0.358429" points="892.169,-31.751 899.536,-24.1366 889.029,-25.495 892.169,-31.751"/>
</g>
<!-- &#45;14&#45;&gt;1 -->
<g id="edge53" class="edge"><title>&#45;14&#45;&gt;1</title>
<path fill="none" stroke="red" stroke-width="0.136898" d="M613.644,-77.8816C617.84,-73.5205 623.59,-68.4672 629.806,-65.6985 754.895,-9.979 801.729,-57.5442 935.806,-29.6985 943.158,-28.1716 951.028,-26.0058 958.142,-23.8393"/>
<polygon fill="red" stroke="red" stroke-width="0.136898" points="959.411,-27.1086 967.877,-20.739 957.287,-20.4387 959.411,-27.1086"/>
</g>
<!-- &#45;14&#45;&gt;2 -->
<g id="edge54" class="edge"><title>&#45;14&#45;&gt;2</title>
<path fill="none" stroke="green" stroke-width="0.225353" d="M613.622,-77.831C617.81,-73.453 623.56,-68.3997 629.806,-65.6985 783.886,0.944919 845.902,-80.8167 1005.81,-29.6985 1006.86,-29.3616 1007.92,-28.9734 1008.97,-28.5459"/>
<polygon fill="green" stroke="green" stroke-width="0.225353" points="1010.71,-31.5869 1018.07,-23.9589 1007.56,-25.3367 1010.71,-31.5869"/>
</g>
<!-- &#45;14&#45;&gt;3 -->
<g id="edge55" class="edge"><title>&#45;14&#45;&gt;3</title>
<path fill="none" stroke="red" stroke-width="0.302915" d="M614.146,-77.6912C618.335,-73.4919 623.915,-68.657 629.806,-65.6985 700.124,-30.3811 794.514,-20.036 838.84,-17.044"/>
<polygon fill="red" stroke="red" stroke-width="0.302915" points="839.215,-20.5278 848.986,-16.431 838.793,-13.5405 839.215,-20.5278"/>
</g>
<!-- &#45;15 -->
<g id="node15" class="node"><title>&#45;15</title>
<polygon fill="lightgray" stroke="black" points="668.306,-95.9117 639.306,-95.9117 639.306,-77.9117 668.306,-77.9117 668.306,-95.9117"/>
<text text-anchor="middle" x="653.806" y="-84.7117" font-family="Times New Roman,serif" font-size="9.00">&#45;15</text>
</g>
<!-- &#45;15&#45;&gt;0 -->
<g id="edge56" class="edge"><title>&#45;15&#45;&gt;0</title>
<path fill="none" stroke="green" stroke-width="0.170769" d="M661.099,-77.5947C665.274,-73.367 670.856,-68.5359 676.806,-65.6985 762.674,-24.7483 798.317,-61.9779 887.806,-29.6985 888.677,-29.3843 889.553,-29.039 890.428,-28.6691"/>
<polygon fill="green" stroke="green" stroke-width="0.170769" points="892.177,-31.7063 899.509,-24.0583 889.008,-25.4647 892.177,-31.7063"/>
</g>
<!-- &#45;15&#45;&gt;1 -->
<g id="edge57" class="edge"><title>&#45;15&#45;&gt;1</title>
<path fill="none" stroke="green" stroke-width="0.296426" d="M661.065,-77.5211C665.229,-73.2719 670.813,-68.4437 676.806,-65.6985 782.465,-17.2978 822.271,-54.5245 935.806,-29.6985 943.141,-28.0945 951.007,-25.9058 958.122,-23.742"/>
<polygon fill="green" stroke="green" stroke-width="0.296426" points="959.382,-27.0143 967.86,-20.6607 957.271,-20.3404 959.382,-27.0143"/>
</g>
<!-- &#45;15&#45;&gt;2 -->
<g id="edge58" class="edge"><title>&#45;15&#45;&gt;2</title>
<path fill="none" stroke="green" stroke-width="0.236908" stroke-dasharray="1,5" d="M660.636,-77.8627C664.829,-73.4952 670.579,-68.4419 676.806,-65.6985 811.415,-6.39215 866.002,-75.4362 1005.81,-29.6985 1006.69,-29.4105 1007.57,-29.0876 1008.45,-28.7365"/>
<polygon fill="green" stroke="green" stroke-width="0.236908" points="1010.16,-31.7949 1017.56,-24.2134 1007.05,-25.525 1010.16,-31.7949"/>
</g>
<!-- &#45;15&#45;&gt;3 -->
<g id="edge59" class="edge"><title>&#45;15&#45;&gt;3</title>
<path fill="none" stroke="red" stroke-width="0.119851" d="M661.208,-77.8094C665.414,-73.6446 670.992,-68.8051 676.806,-65.6985 730.478,-37.018 801.809,-23.968 838.945,-18.7876"/>
<polygon fill="red" stroke="red" stroke-width="0.119851" points="839.436,-22.2532 848.893,-17.476 838.521,-15.3133 839.436,-22.2532"/>
</g>
<!-- &#45;16 -->
<g id="node16" class="node"><title>&#45;16</title>
<polygon fill="lightgray" stroke="black" points="715.306,-95.9117 686.306,-95.9117 686.306,-77.9117 715.306,-77.9117 715.306,-95.9117"/>
<text text-anchor="middle" x="700.806" y="-84.7117" font-family="Times New Roman,serif" font-size="9.00">&#45;16</text>
</g>
<!-- &#45;16&#45;&gt;0 -->
<g id="edge60" class="edge"><title>&#45;16&#45;&gt;0</title>
<path fill="none" stroke="green" stroke-width="0.791466" d="M708.154,-77.7058C712.344,-73.5107 717.924,-68.6752 723.806,-65.6985 790.388,-31.9992 818.224,-56.665 887.806,-29.6985 888.669,-29.3638 889.539,-29.0012 890.408,-28.6167"/>
<polygon fill="green" stroke="green" stroke-width="0.791466" points="892.186,-31.6376 899.464,-23.9377 888.973,-25.4186 892.186,-31.6376"/>
</g>
<!-- &#45;16&#45;&gt;1 -->
<g id="edge61" class="edge"><title>&#45;16&#45;&gt;1</title>
<path fill="none" stroke="green" stroke-width="0.409358" d="M708.098,-77.5928C712.273,-73.3646 717.855,-68.5336 723.806,-65.6985 810.086,-24.5935 842.758,-51.5166 935.806,-29.6985 943.116,-27.9843 950.974,-25.7629 958.09,-23.6031"/>
<polygon fill="green" stroke="green" stroke-width="0.409358" points="959.34,-26.8795 967.835,-20.549 957.246,-20.1998 959.34,-26.8795"/>
</g>
<!-- &#45;16&#45;&gt;2 -->
<g id="edge62" class="edge"><title>&#45;16&#45;&gt;2</title>
<path fill="none" stroke="red" stroke-width="0.371412" d="M707.654,-77.9046C711.854,-73.5511 717.604,-68.4978 723.806,-65.6985 838.969,-13.7184 886.077,-70.0641 1005.81,-29.6985 1006.68,-29.4026 1007.56,-29.073 1008.44,-28.7163"/>
<polygon fill="red" stroke="red" stroke-width="0.371412" points="1010.17,-31.7682 1017.55,-24.1668 1007.04,-25.5067 1010.17,-31.7682"/>
</g>
<!-- &#45;16&#45;&gt;3 -->
<g id="edge63" class="edge"><title>&#45;16&#45;&gt;3</title>
<path fill="none" stroke="red" stroke-width="0.189018" d="M708.727,-77.5964C712.909,-73.5752 718.307,-68.9318 723.806,-65.6985 761.473,-43.5508 810.576,-28.8897 839.498,-21.503"/>
<polygon fill="red" stroke="red" stroke-width="0.189018" points="840.658,-24.8217 849.528,-19.0277 838.981,-18.0256 840.658,-24.8217"/>
</g>
<!-- &#45;17 -->
<g id="node17" class="node"><title>&#45;17</title>
<polygon fill="lightgray" stroke="black" points="762.306,-95.9117 733.306,-95.9117 733.306,-77.9117 762.306,-77.9117 762.306,-95.9117"/>
<text text-anchor="middle" x="747.806" y="-84.7117" font-family="Times New Roman,serif" font-size="9.00">&#45;17</text>
</g>
<!-- &#45;17&#45;&gt;0 -->
<g id="edge64" class="edge"><title>&#45;17&#45;&gt;0</title>
<path fill="none" stroke="red" stroke-width="0.190349" d="M755.255,-77.897C759.476,-73.7579 765.052,-68.915 770.806,-65.6985 818.295,-39.1507 837.929,-51.4319 887.806,-29.6985 888.655,-29.3286 889.512,-28.936 890.371,-28.5262"/>
<polygon fill="red" stroke="red" stroke-width="0.190349" points="892.197,-31.5191 899.378,-23.7292 888.906,-25.3407 892.197,-31.5191"/>
</g>
<!-- &#45;17&#45;&gt;1 -->
<g id="edge65" class="edge"><title>&#45;17&#45;&gt;1</title>
<path fill="none" stroke="green" stroke-width="0.5634" d="M755.152,-77.7028C759.342,-73.5068 764.922,-68.6715 770.806,-65.6985 837.797,-31.8457 863.148,-48.5319 935.806,-29.6985 943.074,-27.8144 950.92,-25.5426 958.037,-23.3889"/>
<polygon fill="green" stroke="green" stroke-width="0.5634" points="959.27,-26.6713 967.793,-20.3767 957.205,-19.9828 959.27,-26.6713"/>
</g>
<!-- &#45;17&#45;&gt;2 -->
<g id="edge66" class="edge"><title>&#45;17&#45;&gt;2</title>
<path fill="none" stroke="red" stroke-width="0.10731" d="M755.08,-77.5543C759.249,-73.3148 764.832,-68.4853 770.806,-65.6985 866.561,-21.027 906.111,-64.7057 1005.81,-29.6985 1006.68,-29.3917 1007.56,-29.0527 1008.43,-28.6881"/>
<polygon fill="red" stroke="red" stroke-width="0.10731" points="1010.17,-31.7313 1017.52,-24.102 1007.02,-25.4816 1010.17,-31.7313"/>
</g>
<!-- &#45;17&#45;&gt;3 -->
<g id="edge67" class="edge"><title>&#45;17&#45;&gt;3</title>
<path fill="none" stroke="green" stroke-width="0.192748" d="M756.372,-77.5417C760.542,-73.6932 765.739,-69.2135 770.806,-65.6985 793.621,-49.8706 822.022,-35.3098 841.397,-26.0646"/>
<polygon fill="green" stroke="green" stroke-width="0.192748" points="843.06,-29.1505 850.628,-21.7359 840.088,-22.8127 843.06,-29.1505"/>
</g>
<!-- &#45;18 -->
<g id="node18" class="node"><title>&#45;18</title>
<polygon fill="lightgray" stroke="black" points="809.306,-95.9117 780.306,-95.9117 780.306,-77.9117 809.306,-77.9117 809.306,-95.9117"/>
<text text-anchor="middle" x="794.806" y="-84.7117" font-family="Times New Roman,serif" font-size="9.00">&#45;18</text>
</g>
<!-- &#45;18&#45;&gt;0 -->
<g id="edge68" class="edge"><title>&#45;18&#45;&gt;0</title>
<path fill="none" stroke="green" stroke-width="0.115375" d="M802.919,-77.8996C807.15,-73.9557 812.534,-69.2899 817.806,-65.6985 846.719,-46.0025 857.091,-46.4461 887.806,-29.6985 888.619,-29.2552 889.445,-28.8002 890.279,-28.3379"/>
<polygon fill="green" stroke="green" stroke-width="0.115375" points="892.195,-31.2746 899.166,-23.2958 888.741,-25.1862 892.195,-31.2746"/>
</g>
<!-- &#45;18&#45;&gt;1 -->
<g id="edge69" class="edge"><title>&#45;18&#45;&gt;1</title>
<path fill="none" stroke="green" stroke-width="0.463933" d="M802.251,-77.8892C806.47,-73.7478 812.047,-68.9052 817.806,-65.6985 819.382,-64.8211 912.704,-36.6601 957.85,-23.0605"/>
<polygon fill="green" stroke="green" stroke-width="0.463933" points="959.141,-26.3271 967.707,-20.092 957.123,-19.6244 959.141,-26.3271"/>
</g>
<!-- &#45;18&#45;&gt;2 -->
<g id="edge70" class="edge"><title>&#45;18&#45;&gt;2</title>
<path fill="none" stroke="red" stroke-width="0.440288" d="M802.122,-77.6425C806.304,-73.4288 811.885,-68.5959 817.806,-65.6985 894.22,-28.3043 926.075,-59.3719 1005.81,-29.6985 1006.67,-29.3755 1007.55,-29.0227 1008.42,-28.6466"/>
<polygon fill="red" stroke="red" stroke-width="0.440288" points="1010.18,-31.6767 1017.49,-24.0064 1006.99,-25.4448 1010.18,-31.6767"/>
</g>
<!-- &#45;18&#45;&gt;3 -->
<g id="edge71" class="edge"><title>&#45;18&#45;&gt;3</title>
<path fill="none" stroke="green" stroke-width="0.150252" d="M802.721,-77.8746C813.354,-67.0781 832.535,-47.6015 846.575,-33.3456"/>
<polygon fill="green" stroke="green" stroke-width="0.150252" points="849.236,-35.6318 853.759,-26.051 844.248,-30.72 849.236,-35.6318"/>
</g>
<!-- &#45;19 -->
<g id="node19" class="node"><title>&#45;19</title>
<polygon fill="lightgray" stroke="black" points="1841.31,-162.125 1812.31,-162.125 1812.31,-144.125 1841.31,-144.125 1841.31,-162.125"/>
<text text-anchor="middle" x="1826.81" y="-150.925" font-family="Times New Roman,serif" font-size="9.00">&#45;19</text>
</g>
<!-- &#45;19&#45;&gt;0 -->
<g id="edge72" class="edge"><title>&#45;19&#45;&gt;0</title>
<path fill="none" stroke="green" stroke-width="0.114342" d="M1812.27,-152.027C1649.5,-150.898 173.657,-139.793 142.806,-108.125 129.648,-94.6186 129.798,-79.3498 142.806,-65.6985 199.975,-5.69991 808.294,-53.0652 887.806,-29.6985 888.867,-29.3865 889.932,-29.0188 890.99,-28.6079"/>
<polygon fill="green" stroke="green" stroke-width="0.114342" points="892.705,-31.6643 900.105,-24.0818 889.591,-25.3948 892.705,-31.6643"/>
</g>
<!-- &#45;19&#45;&gt;1 -->
<g id="edge73" class="edge"><title>&#45;19&#45;&gt;1</title>
<path fill="none" stroke="red" stroke-width="0.327146" stroke-dasharray="1,5" d="M1841.6,-147.918C1858.87,-142.122 1886.62,-129.846 1898.81,-108.125 1908.03,-91.6786 1911.87,-79.2977 1898.81,-65.6985 1830.02,5.91946 1101.19,-57.3163 1005.81,-29.6985 1004.74,-29.3908 1003.68,-29.0265 1002.62,-28.6185"/>
<polygon fill="red" stroke="red" stroke-width="0.327146" points="1004.02,-25.4047 993.501,-24.1027 1000.91,-31.6775 1004.02,-25.4047"/>
</g>
<!-- &#45;19&#45;&gt;2 -->
<g id="edge74" class="edge"><title>&#45;19&#45;&gt;2</title>
<path fill="none" stroke="green" stroke-width="0.215364" d="M1841.5,-150.92C1865.24,-148.092 1911.44,-138.734 1931.81,-108.125 1942.25,-92.425 1944.77,-79.3948 1931.81,-65.6985 1900.84,-32.9786 1198.79,-18.8354 1055.28,-16.2813"/>
<polygon fill="green" stroke="green" stroke-width="0.215364" points="1054.94,-12.7748 1044.88,-16.0991 1054.82,-19.7737 1054.94,-12.7748"/>
</g>
<!-- &#45;19&#45;&gt;3 -->
<g id="edge75" class="edge"><title>&#45;19&#45;&gt;3</title>
<path fill="none" stroke="green" stroke-width="0.103089" d="M1812.2,-152.055C1642.1,-151.207 43.1938,-142.331 9.80574,-108.125 -3.36522,-94.6311 -3.13328,-79.4148 9.80574,-65.6985 39.0148,-34.7347 700.995,-19.2474 838.811,-16.3527"/>
<polygon fill="green" stroke="green" stroke-width="0.103089" points="838.906,-19.8516 848.831,-16.1452 838.761,-12.8531 838.906,-19.8516"/>
</g>
<!-- 352 -->
<g id="node45" class="node"><title>352</title>
<ellipse fill="white" stroke="black" cx="1826.81" cy="-86.9117" rx="21.4286" ry="21.4286"/>
<text text-anchor="middle" x="1826.81" y="-84.7117" font-family="Times New Roman,serif" font-size="9.00">352</text>
</g>
<!-- &#45;19&#45;&gt;352 -->
<g id="edge156" class="edge"><title>&#45;19&#45;&gt;352</title>
<path fill="none" stroke="green" stroke-width="0.3" d="M1826.81,-143.992C1826.81,-137.449 1826.81,-127.82 1826.81,-118.381"/>
<polygon fill="green" stroke="green" stroke-width="0.3" points="1830.31,-118.367 1826.81,-108.367 1823.31,-118.367 1830.31,-118.367"/>
</g>
<!-- &#45;20 -->
<g id="node20" class="node"><title>&#45;20</title>
<polygon fill="lightgray" stroke="black" points="856.306,-95.9117 827.306,-95.9117 827.306,-77.9117 856.306,-77.9117 856.306,-95.9117"/>
<text text-anchor="middle" x="841.806" y="-84.7117" font-family="Times New Roman,serif" font-size="9.00">&#45;20</text>
</g>
<!-- &#45;20&#45;&gt;0 -->
<g id="edge76" class="edge"><title>&#45;20&#45;&gt;0</title>
<path fill="none" stroke="red" stroke-width="0.296884" d="M849.836,-77.8746C860.623,-67.0781 880.082,-47.6015 894.325,-33.3456"/>
<polygon fill="red" stroke="red" stroke-width="0.296884" points="897.021,-35.599 901.613,-26.051 892.069,-30.6514 897.021,-35.599"/>
</g>
<!-- &#45;20&#45;&gt;1 -->
<g id="edge77" class="edge"><title>&#45;20&#45;&gt;1</title>
<path fill="none" stroke="green" stroke-width="0.34361" d="M849.812,-77.7364C854.016,-73.751 859.407,-69.0972 864.806,-65.6985 895.052,-46.6564 933.828,-31.7644 958.253,-23.3878"/>
<polygon fill="green" stroke="green" stroke-width="0.34361" points="959.402,-26.6943 967.775,-20.2036 957.182,-20.0556 959.402,-26.6943"/>
</g>
<!-- &#45;20&#45;&gt;2 -->
<g id="edge78" class="edge"><title>&#45;20&#45;&gt;2</title>
<path fill="none" stroke="red" stroke-width="0.116115" d="M849.195,-77.7849C853.397,-73.613 858.976,-68.7745 864.806,-65.6985 922.009,-35.5176 945.904,-54.089 1005.81,-29.6985 1006.66,-29.3493 1007.53,-28.9742 1008.39,-28.5793"/>
<polygon fill="red" stroke="red" stroke-width="0.116115" points="1010.19,-31.5885 1017.43,-23.8515 1006.95,-25.3861 1010.19,-31.5885"/>
</g>
<!-- &#45;20&#45;&gt;3 -->
<g id="edge79" class="edge"><title>&#45;20&#45;&gt;3</title>
<path fill="none" stroke="green" stroke-width="0.481141" d="M844.329,-77.8746C847.297,-68.4226 852.354,-52.3178 856.572,-38.8876"/>
<polygon fill="green" stroke="green" stroke-width="0.481141" points="859.928,-39.8825 859.584,-29.2932 853.249,-37.7853 859.928,-39.8825"/>
</g>
<!-- &#45;21 -->
<g id="node21" class="node"><title>&#45;21</title>
<polygon fill="lightgray" stroke="black" points="903.306,-95.9117 874.306,-95.9117 874.306,-77.9117 903.306,-77.9117 903.306,-95.9117"/>
<text text-anchor="middle" x="888.806" y="-84.7117" font-family="Times New Roman,serif" font-size="9.00">&#45;21</text>
</g>
<!-- &#45;21&#45;&gt;0 -->
<g id="edge80" class="edge"><title>&#45;21&#45;&gt;0</title>
<path fill="none" stroke="red" stroke-width="0.464323" d="M891.444,-77.8746C894.547,-68.4226 899.834,-52.3178 904.243,-38.8876"/>
<polygon fill="red" stroke="red" stroke-width="0.464323" points="907.599,-39.886 907.392,-29.2932 900.948,-37.7027 907.599,-39.886"/>
</g>
<!-- &#45;21&#45;&gt;1 -->
<g id="edge81" class="edge"><title>&#45;21&#45;&gt;1</title>
<path fill="none" stroke="red" stroke-width="0.122567" d="M897.581,-77.8233C901.796,-74.0365 906.972,-69.5274 911.806,-65.6985 927.923,-52.932 946.973,-39.4644 961.128,-29.7503"/>
<polygon fill="red" stroke="red" stroke-width="0.122567" points="963.346,-32.4745 969.643,-23.9538 959.407,-26.688 963.346,-32.4745"/>
</g>
<!-- &#45;21&#45;&gt;2 -->
<g id="edge82" class="edge"><title>&#45;21&#45;&gt;2</title>
<path fill="none" stroke="green" stroke-width="0.34075" d="M896.759,-77.6513C900.95,-73.6442 906.345,-68.9967 911.806,-65.6985 950.099,-42.5684 965.417,-48.9381 1005.81,-29.6985 1006.64,-29.3002 1007.49,-28.8836 1008.34,-28.4535"/>
<polygon fill="green" stroke="green" stroke-width="0.34075" points="1010.2,-31.4244 1017.3,-23.5619 1006.85,-25.2797 1010.2,-31.4244"/>
</g>
<!-- &#45;21&#45;&gt;3 -->
<g id="edge83" class="edge"><title>&#45;21&#45;&gt;3</title>
<path fill="none" stroke="green" stroke-width="0.308432" d="M885.938,-77.8746C882.545,-68.3653 876.749,-52.1224 871.939,-38.6437"/>
<polygon fill="green" stroke="green" stroke-width="0.308432" points="875.167,-37.2747 868.51,-29.0326 868.574,-39.6272 875.167,-37.2747"/>
</g>
<!-- &#45;22 -->
<g id="node22" class="node"><title>&#45;22</title>
<polygon fill="lightgray" stroke="black" points="48.3057,-95.9117 19.3057,-95.9117 19.3057,-77.9117 48.3057,-77.9117 48.3057,-95.9117"/>
<text text-anchor="middle" x="33.8057" y="-84.7117" font-family="Times New Roman,serif" font-size="9.00">&#45;22</text>
</g>
<!-- &#45;22&#45;&gt;0 -->
<g id="edge84" class="edge"><title>&#45;22&#45;&gt;0</title>
<path fill="none" stroke="red" stroke-width="0.163267" d="M40.5706,-77.7082C44.7422,-73.2892 50.4922,-68.2359 56.8057,-65.6985 228.312,3.23063 710.336,-81.3721 887.806,-29.6985 888.868,-29.3892 889.933,-29.0236 890.992,-28.6145"/>
<polygon fill="red" stroke="red" stroke-width="0.163267" points="892.704,-31.6725 900.108,-24.0948 889.594,-25.401 892.704,-31.6725"/>
</g>
<!-- &#45;22&#45;&gt;3 -->
<g id="edge85" class="edge"><title>&#45;22&#45;&gt;3</title>
<path fill="none" stroke="green" stroke-width="0.301428" d="M40.5883,-77.7517C44.7658,-73.3472 50.5158,-68.2939 56.8057,-65.6985 130.644,-35.2309 711.148,-19.5343 838.967,-16.4281"/>
<polygon fill="green" stroke="green" stroke-width="0.301428" points="839.052,-19.9272 848.965,-16.1886 838.884,-12.9292 839.052,-19.9272"/>
</g>
<!-- &#45;23 -->
<g id="node23" class="node"><title>&#45;23</title>
<polygon fill="lightgray" stroke="black" points="950.306,-95.9117 921.306,-95.9117 921.306,-77.9117 950.306,-77.9117 950.306,-95.9117"/>
<text text-anchor="middle" x="935.806" y="-84.7117" font-family="Times New Roman,serif" font-size="9.00">&#45;23</text>
</g>
<!-- &#45;23&#45;&gt;0 -->
<g id="edge86" class="edge"><title>&#45;23&#45;&gt;0</title>
<path fill="none" stroke="green" stroke-width="0.143951" d="M933.053,-77.8746C929.795,-68.3653 924.231,-52.1224 919.614,-38.6437"/>
<polygon fill="green" stroke="green" stroke-width="0.143951" points="922.874,-37.3587 916.322,-29.0326 916.251,-39.6272 922.874,-37.3587"/>
</g>
<!-- &#45;23&#45;&gt;1 -->
<g id="edge87" class="edge"><title>&#45;23&#45;&gt;1</title>
<path fill="none" stroke="green" stroke-width="0.382768" d="M941.083,-77.8746C947.703,-67.7908 959.295,-50.1351 968.423,-36.233"/>
<polygon fill="green" stroke="green" stroke-width="0.382768" points="971.425,-38.037 973.988,-27.7567 965.574,-34.1951 971.425,-38.037"/>
</g>
<!-- &#45;23&#45;&gt;2 -->
<g id="edge88" class="edge"><title>&#45;23&#45;&gt;2</title>
<path fill="none" stroke="green" stroke-width="0.683454" d="M944.57,-77.8088C948.782,-74.0188 953.959,-69.5112 958.806,-65.6985 975.216,-52.7888 994.674,-39.2424 1009.07,-29.5348"/>
<polygon fill="green" stroke="green" stroke-width="0.683454" points="1011.34,-32.2232 1017.71,-23.7551 1007.45,-26.4042 1011.34,-32.2232"/>
</g>
<!-- &#45;23&#45;&gt;3 -->
<g id="edge89" class="edge"><title>&#45;23&#45;&gt;3</title>
<path fill="none" stroke="green" stroke-width="0.117765" d="M927.546,-77.8746C916.451,-67.0781 896.436,-47.6015 881.786,-33.3456"/>
<polygon fill="green" stroke="green" stroke-width="0.117765" points="883.897,-30.5166 874.29,-26.051 879.016,-35.5334 883.897,-30.5166"/>
</g>
<!-- &#45;24 -->
<g id="node24" class="node"><title>&#45;24</title>
<polygon fill="lightgray" stroke="black" points="997.306,-95.9117 968.306,-95.9117 968.306,-77.9117 997.306,-77.9117 997.306,-95.9117"/>
<text text-anchor="middle" x="982.806" y="-84.7117" font-family="Times New Roman,serif" font-size="9.00">&#45;24</text>
</g>
<!-- &#45;24&#45;&gt;0 -->
<g id="edge90" class="edge"><title>&#45;24&#45;&gt;0</title>
<path fill="none" stroke="red" stroke-width="0.387889" d="M974.661,-77.8746C963.72,-67.0781 943.983,-47.6015 929.536,-33.3456"/>
<polygon fill="red" stroke="red" stroke-width="0.387889" points="931.72,-30.5836 922.144,-26.051 926.804,-35.5662 931.72,-30.5836"/>
</g>
<!-- &#45;24&#45;&gt;1 -->
<g id="edge91" class="edge"><title>&#45;24&#45;&gt;1</title>
<path fill="none" stroke="red" stroke-width="0.214157" d="M982.691,-77.8746C982.56,-68.7202 982.341,-53.3256 982.153,-40.1641"/>
<polygon fill="red" stroke="red" stroke-width="0.214157" points="985.648,-39.7687 982.005,-29.8197 978.648,-39.8686 985.648,-39.7687"/>
</g>
<!-- &#45;24&#45;&gt;2 -->
<g id="edge92" class="edge"><title>&#45;24&#45;&gt;2</title>
<path fill="none" stroke="red" stroke-width="0.171917" stroke-dasharray="1,5" d="M988.197,-77.8746C995.001,-67.7318 1006.94,-49.9283 1016.3,-35.9895"/>
<polygon fill="red" stroke="red" stroke-width="0.171917" points="1019.32,-37.7615 1021.99,-27.5071 1013.51,-33.8618 1019.32,-37.7615"/>
</g>
<!-- &#45;24&#45;&gt;3 -->
<g id="edge93" class="edge"><title>&#45;24&#45;&gt;3</title>
<path fill="none" stroke="green" stroke-width="0.187826" d="M973.851,-77.517C969.497,-73.663 964.075,-69.1859 958.806,-65.6985 929.301,-46.1731 918.917,-46.5463 887.806,-29.6985 886.991,-29.2575 886.164,-28.8045 885.33,-28.3439"/>
<polygon fill="green" stroke="green" stroke-width="0.187826" points="886.865,-25.1909 876.438,-23.3096 883.416,-31.2823 886.865,-25.1909"/>
</g>
<!-- &#45;25 -->
<g id="node25" class="node"><title>&#45;25</title>
<polygon fill="lightgray" stroke="black" points="1044.31,-95.9117 1015.31,-95.9117 1015.31,-77.9117 1044.31,-77.9117 1044.31,-95.9117"/>
<text text-anchor="middle" x="1029.81" y="-84.7117" font-family="Times New Roman,serif" font-size="9.00">&#45;25</text>
</g>
<!-- &#45;25&#45;&gt;0 -->
<g id="edge94" class="edge"><title>&#45;25&#45;&gt;0</title>
<path fill="none" stroke="red" stroke-width="0.294295" d="M1020.82,-77.5602C1016.46,-73.7157 1011.04,-69.234 1005.81,-65.6985 982.599,-50.0326 953.918,-35.442 934.383,-26.1454"/>
<polygon fill="red" stroke="red" stroke-width="0.294295" points="935.618,-22.8593 925.077,-21.7889 932.65,-29.1989 935.618,-22.8593"/>
</g>
<!-- &#45;25&#45;&gt;1 -->
<g id="edge95" class="edge"><title>&#45;25&#45;&gt;1</title>
<path fill="none" stroke="red" stroke-width="0.168032" d="M1024.3,-77.8746C1017.35,-67.7318 1005.15,-49.9283 995.604,-35.9895"/>
<polygon fill="red" stroke="red" stroke-width="0.168032" points="998.332,-33.7786 989.793,-27.5071 992.557,-37.7349 998.332,-33.7786"/>
</g>
<!-- &#45;25&#45;&gt;2 -->
<g id="edge96" class="edge"><title>&#45;25&#45;&gt;2</title>
<path fill="none" stroke="red" stroke-width="0.28058" d="M1029.81,-77.8746C1029.81,-68.7202 1029.81,-53.3256 1029.81,-40.1641"/>
<polygon fill="red" stroke="red" stroke-width="0.28058" points="1033.31,-39.8196 1029.81,-29.8197 1026.31,-39.8197 1033.31,-39.8196"/>
</g>
<!-- &#45;25&#45;&gt;3 -->
<g id="edge97" class="edge"><title>&#45;25&#45;&gt;3</title>
<path fill="none" stroke="red" stroke-width="0.123718" d="M1021.98,-77.9053C1017.56,-73.7686 1011.74,-68.9253 1005.81,-65.6985 957.636,-39.5057 938.098,-51.5417 887.806,-29.6985 886.956,-29.3296 886.099,-28.9378 885.24,-28.5288"/>
<polygon fill="red" stroke="red" stroke-width="0.123718" points="886.703,-25.3429 876.231,-23.7352 883.415,-31.5225 886.703,-25.3429"/>
</g>
<!-- &#45;26 -->
<g id="node26" class="node"><title>&#45;26</title>
<polygon fill="lightgray" stroke="black" points="1091.31,-95.9117 1062.31,-95.9117 1062.31,-77.9117 1091.31,-77.9117 1091.31,-95.9117"/>
<text text-anchor="middle" x="1076.81" y="-84.7117" font-family="Times New Roman,serif" font-size="9.00">&#45;26</text>
</g>
<!-- &#45;26&#45;&gt;0 -->
<g id="edge98" class="edge"><title>&#45;26&#45;&gt;0</title>
<path fill="none" stroke="red" stroke-width="0.361471" d="M1068.89,-77.586C1064.71,-73.5622 1059.31,-68.9195 1053.81,-65.6985 1033.37,-53.7426 970.689,-33.7282 935.828,-23.0595"/>
<polygon fill="red" stroke="red" stroke-width="0.361471" points="936.566,-19.6257 925.98,-20.0679 934.531,-26.3234 936.566,-19.6257"/>
</g>
<!-- &#45;26&#45;&gt;1 -->
<g id="edge99" class="edge"><title>&#45;26&#45;&gt;1</title>
<path fill="none" stroke="red" stroke-width="0.416847" d="M1068.05,-77.7945C1063.84,-74.0014 1058.66,-69.4953 1053.81,-65.6985 1037.2,-52.7211 1017.46,-39.1804 1002.86,-29.4921"/>
<polygon fill="red" stroke="red" stroke-width="0.416847" points="1004.36,-26.2942 994.085,-23.7266 1000.52,-32.1439 1004.36,-26.2942"/>
</g>
<!-- &#45;26&#45;&gt;2 -->
<g id="edge100" class="edge"><title>&#45;26&#45;&gt;2</title>
<path fill="none" stroke="red" stroke-width="0.419163" d="M1071.41,-77.8746C1064.61,-67.7318 1052.67,-49.9283 1043.32,-35.9895"/>
<polygon fill="red" stroke="red" stroke-width="0.419163" points="1046.1,-33.8618 1037.63,-27.5071 1040.29,-37.7615 1046.1,-33.8618"/>
</g>
<!-- &#45;26&#45;&gt;3 -->
<g id="edge101" class="edge"><title>&#45;26&#45;&gt;3</title>
<path fill="none" stroke="green" stroke-width="0.137325" d="M1069.46,-77.6998C1065.27,-73.503 1059.69,-68.6678 1053.81,-65.6985 986.406,-31.6921 958.231,-56.89 887.806,-29.6985 886.942,-29.3649 886.072,-29.0032 885.202,-28.6195"/>
<polygon fill="green" stroke="green" stroke-width="0.137325" points="886.637,-25.4211 876.145,-23.9441 883.426,-31.6412 886.637,-25.4211"/>
</g>
<!-- &#45;27 -->
<g id="node27" class="node"><title>&#45;27</title>
<polygon fill="lightgray" stroke="black" points="1138.31,-95.9117 1109.31,-95.9117 1109.31,-77.9117 1138.31,-77.9117 1138.31,-95.9117"/>
<text text-anchor="middle" x="1123.81" y="-84.7117" font-family="Times New Roman,serif" font-size="9.00">&#45;27</text>
</g>
<!-- &#45;27&#45;&gt;0 -->
<g id="edge102" class="edge"><title>&#45;27&#45;&gt;0</title>
<path fill="none" stroke="green" stroke-width="0.396182" d="M1116.42,-77.7771C1112.22,-73.6029 1106.64,-68.7647 1100.81,-65.6985 1042.79,-35.2128 1020.98,-47.1501 957.806,-29.6985 950.568,-27.699 942.732,-25.3931 935.613,-23.2434"/>
<polygon fill="green" stroke="green" stroke-width="0.396182" points="936.436,-19.8353 925.85,-20.2597 934.391,-26.5297 936.436,-19.8353"/>
</g>
<!-- &#45;27&#45;&gt;1 -->
<g id="edge103" class="edge"><title>&#45;27&#45;&gt;1</title>
<path fill="none" stroke="red" stroke-width="0.337551" d="M1115.86,-77.6432C1111.67,-73.634 1106.27,-68.987 1100.81,-65.6985 1062.12,-42.4217 1046.6,-49.0449 1005.81,-29.6985 1004.97,-29.3017 1004.12,-28.8863 1003.27,-28.4573"/>
<polygon fill="red" stroke="red" stroke-width="0.337551" points="1004.76,-25.2828 994.306,-23.5706 1001.41,-31.4293 1004.76,-25.2828"/>
</g>
<!-- &#45;27&#45;&gt;2 -->
<g id="edge104" class="edge"><title>&#45;27&#45;&gt;2</title>
<path fill="none" stroke="green" stroke-width="0.177147" d="M1115.04,-77.8088C1110.83,-74.0188 1105.65,-69.5112 1100.81,-65.6985 1084.4,-52.7888 1064.94,-39.2424 1050.54,-29.5348"/>
<polygon fill="green" stroke="green" stroke-width="0.177147" points="1052.16,-26.4042 1041.9,-23.7551 1048.27,-32.2232 1052.16,-26.4042"/>
</g>
<!-- &#45;27&#45;&gt;3 -->
<g id="edge105" class="edge"><title>&#45;27&#45;&gt;3</title>
<path fill="none" stroke="red" stroke-width="0.503781" d="M1116.51,-77.591C1112.34,-73.3622 1106.76,-68.5313 1100.81,-65.6985 1014.11,-24.4386 978.145,-62.2049 887.806,-29.6985 886.934,-29.3849 886.058,-29.0403 885.183,-28.6709"/>
<polygon fill="red" stroke="red" stroke-width="0.503781" points="886.603,-25.4663 876.101,-24.0623 883.435,-31.7086 886.603,-25.4663"/>
</g>
<!-- &#45;28 -->
<g id="node28" class="node"><title>&#45;28</title>
<polygon fill="lightgray" stroke="black" points="1185.31,-95.9117 1156.31,-95.9117 1156.31,-77.9117 1185.31,-77.9117 1185.31,-95.9117"/>
<text text-anchor="middle" x="1170.81" y="-84.7117" font-family="Times New Roman,serif" font-size="9.00">&#45;28</text>
</g>
<!-- &#45;28&#45;&gt;0 -->
<g id="edge106" class="edge"><title>&#45;28&#45;&gt;0</title>
<path fill="none" stroke="green" stroke-width="0.552512" d="M1163.49,-77.6379C1159.31,-73.4229 1153.73,-68.5901 1147.81,-65.6985 1070.57,-27.9956 1041.29,-50.1154 957.806,-29.6985 950.512,-27.9147 942.659,-25.6727 935.542,-23.5154"/>
<polygon fill="green" stroke="green" stroke-width="0.552512" points="936.382,-20.111 925.793,-20.4785 934.3,-26.7943 936.382,-20.111"/>
</g>
<!-- &#45;28&#45;&gt;1 -->
<g id="edge107" class="edge"><title>&#45;28&#45;&gt;1</title>
<path fill="none" stroke="green" stroke-width="0.307782" d="M1163.42,-77.781C1159.22,-73.6079 1153.64,-68.7695 1147.81,-65.6985 1090.2,-35.3652 1066.13,-54.2005 1005.81,-29.6985 1004.95,-29.35 1004.08,-28.9756 1003.22,-28.5812"/>
<polygon fill="green" stroke="green" stroke-width="0.307782" points="1004.66,-25.3877 994.18,-23.8558 1001.42,-31.591 1004.66,-25.3877"/>
</g>
<!-- &#45;28&#45;&gt;2 -->
<g id="edge108" class="edge"><title>&#45;28&#45;&gt;2</title>
<path fill="none" stroke="green" stroke-width="0.124519" d="M1162.8,-77.7294C1158.6,-73.7422 1153.21,-69.0889 1147.81,-65.6985 1117.31,-46.5652 1078.2,-31.6974 1053.56,-23.3508"/>
<polygon fill="green" stroke="green" stroke-width="0.124519" points="1054.55,-19.9912 1043.96,-20.1796 1052.36,-26.6383 1054.55,-19.9912"/>
</g>
<!-- &#45;28&#45;&gt;3 -->
<g id="edge109" class="edge"><title>&#45;28&#45;&gt;3</title>
<path fill="none" stroke="red" stroke-width="0.301179" d="M1163.55,-77.5199C1159.38,-73.2703 1153.8,-68.4422 1147.81,-65.6985 1041.73,-17.1422 998.151,-67.5538 887.806,-29.6985 886.93,-29.398 886.05,-29.0644 885.172,-28.7043"/>
<polygon fill="red" stroke="red" stroke-width="0.301179" points="886.582,-25.496 876.074,-24.1393 883.442,-31.7525 886.582,-25.496"/>
</g>
<!-- &#45;29 -->
<g id="node29" class="node"><title>&#45;29</title>
<polygon fill="lightgray" stroke="black" points="1787.31,-95.9117 1758.31,-95.9117 1758.31,-77.9117 1787.31,-77.9117 1787.31,-95.9117"/>
<text text-anchor="middle" x="1772.81" y="-84.7117" font-family="Times New Roman,serif" font-size="9.00">&#45;29</text>
</g>
<!-- &#45;29&#45;&gt;1 -->
<g id="edge110" class="edge"><title>&#45;29&#45;&gt;1</title>
<path fill="none" stroke="green" stroke-width="0.309458" stroke-dasharray="1,5" d="M1765.67,-77.7166C1761.3,-73.3005 1755.3,-68.2472 1748.81,-65.6985 1594.94,-5.27707 1164.4,-76.3171 1005.81,-29.6985 1004.74,-29.3864 1003.68,-29.0187 1002.62,-28.6077"/>
<polygon fill="green" stroke="green" stroke-width="0.309458" points="1004.02,-25.3946 993.507,-24.0814 1000.91,-31.6641 1004.02,-25.3946"/>
</g>
<!-- &#45;29&#45;&gt;2 -->
<g id="edge111" class="edge"><title>&#45;29&#45;&gt;2</title>
<path fill="none" stroke="green" stroke-width="0.222252" d="M1765.65,-77.7671C1761.27,-73.3679 1755.27,-68.3146 1748.81,-65.6985 1619.02,-13.168 1166.66,-14.3859 1054.91,-15.5235"/>
<polygon fill="green" stroke="green" stroke-width="0.222252" points="1054.87,-12.0237 1044.91,-15.6349 1054.95,-19.0233 1054.87,-12.0237"/>
</g>
<!-- &#45;29&#45;&gt;3 -->
<g id="edge112" class="edge"><title>&#45;29&#45;&gt;3</title>
<path fill="none" stroke="red" stroke-width="0.676151" d="M1765.68,-77.7005C1761.3,-73.279 1755.3,-68.2257 1748.81,-65.6985 1570.33,3.70686 1071.71,-83.0956 887.806,-29.6985 886.743,-29.39 885.678,-29.0251 884.619,-28.6165"/>
<polygon fill="red" stroke="red" stroke-width="0.676151" points="886.016,-25.4028 875.502,-24.0988 882.908,-31.675 886.016,-25.4028"/>
</g>
<!-- &#45;30 -->
<g id="node30" class="node"><title>&#45;30</title>
<polygon fill="lightgray" stroke="black" points="1232.31,-95.9117 1203.31,-95.9117 1203.31,-77.9117 1232.31,-77.9117 1232.31,-95.9117"/>
<text text-anchor="middle" x="1217.81" y="-84.7117" font-family="Times New Roman,serif" font-size="9.00">&#45;30</text>
</g>
<!-- &#45;30&#45;&gt;0 -->
<g id="edge113" class="edge"><title>&#45;30&#45;&gt;0</title>
<path fill="none" stroke="green" stroke-width="0.240305" d="M1210.53,-77.5513C1206.36,-73.3109 1200.78,-68.4815 1194.81,-65.6985 1098.23,-20.7165 1061.74,-53.1146 957.806,-29.6985 950.481,-28.0482 942.618,-25.8457 935.503,-23.6836"/>
<polygon fill="green" stroke="green" stroke-width="0.240305" points="936.351,-20.2813 925.761,-20.6138 934.247,-26.9577 936.351,-20.2813"/>
</g>
<!-- &#45;30&#45;&gt;1 -->
<g id="edge114" class="edge"><title>&#45;30&#45;&gt;1</title>
<path fill="none" stroke="red" stroke-width="0.184855" d="M1210.49,-77.6402C1206.31,-73.4259 1200.73,-68.593 1194.81,-65.6985 1117.98,-28.1499 1085.96,-59.485 1005.81,-29.6985 1004.94,-29.3759 1004.06,-29.0235 1003.19,-28.6477"/>
<polygon fill="red" stroke="red" stroke-width="0.184855" points="1004.62,-25.4458 994.121,-24.0089 1001.43,-31.6781 1004.62,-25.4458"/>
</g>
<!-- &#45;30&#45;&gt;2 -->
<g id="edge115" class="edge"><title>&#45;30&#45;&gt;2</title>
<path fill="none" stroke="red" stroke-width="0.218784" d="M1210.36,-77.8853C1206.14,-73.7428 1200.57,-68.9003 1194.81,-65.6985 1148.74,-40.1028 1087.98,-26.1333 1054.53,-19.9063"/>
<polygon fill="red" stroke="red" stroke-width="0.218784" points="1054.76,-16.3912 1044.3,-18.0857 1053.53,-23.283 1054.76,-16.3912"/>
</g>
<!-- &#45;30&#45;&gt;3 -->
<g id="edge116" class="edge"><title>&#45;30&#45;&gt;3</title>
<path fill="none" stroke="green" stroke-width="0.136983" d="M1210.97,-77.8807C1206.77,-73.5193 1201.02,-68.466 1194.81,-65.6985 1069.3,-9.82311 1018.21,-72.9203 887.806,-29.6985 886.927,-29.4071 886.044,-29.0813 885.164,-28.7278"/>
<polygon fill="green" stroke="green" stroke-width="0.136983" points="886.568,-25.5171 876.056,-24.1933 883.448,-31.7834 886.568,-25.5171"/>
</g>
<!-- &#45;31 -->
<g id="node31" class="node"><title>&#45;31</title>
<polygon fill="lightgray" stroke="black" points="1279.31,-95.9117 1250.31,-95.9117 1250.31,-77.9117 1279.31,-77.9117 1279.31,-95.9117"/>
<text text-anchor="middle" x="1264.81" y="-84.7117" font-family="Times New Roman,serif" font-size="9.00">&#45;31</text>
</g>
<!-- &#45;31&#45;&gt;0 -->
<g id="edge117" class="edge"><title>&#45;31&#45;&gt;0</title>
<path fill="none" stroke="green" stroke-width="0.180081" d="M1257.96,-77.9025C1253.76,-73.5483 1248.01,-68.495 1241.81,-65.6985 1125.82,-13.4069 1082.26,-56.1296 957.806,-29.6985 950.461,-28.1386 942.593,-25.963 935.478,-23.7977"/>
<polygon fill="green" stroke="green" stroke-width="0.180081" points="936.332,-20.3967 925.741,-20.7055 934.213,-27.0683 936.332,-20.3967"/>
</g>
<!-- &#45;31&#45;&gt;1 -->
<g id="edge118" class="edge"><title>&#45;31&#45;&gt;1</title>
<path fill="none" stroke="green" stroke-width="0.278172" d="M1257.53,-77.5528C1253.36,-73.3128 1247.78,-68.4834 1241.81,-65.6985 1145.64,-20.8718 1105.93,-64.8195 1005.81,-29.6985 1004.93,-29.392 1004.05,-29.0532 1003.18,-28.6888"/>
<polygon fill="green" stroke="green" stroke-width="0.278172" points="1004.59,-25.4822 994.087,-24.1037 1001.44,-31.7322 1004.59,-25.4822"/>
</g>
<!-- &#45;31&#45;&gt;2 -->
<g id="edge119" class="edge"><title>&#45;31&#45;&gt;2</title>
<path fill="none" stroke="green" stroke-width="0.407959" d="M1257.44,-77.7406C1253.24,-73.5556 1247.66,-68.7188 1241.81,-65.6985 1179.31,-33.4838 1095.75,-21.7675 1054.7,-17.7677"/>
<polygon fill="green" stroke="green" stroke-width="0.407959" points="1054.8,-14.263 1044.53,-16.8523 1054.18,-21.2348 1054.8,-14.263"/>
</g>
<!-- &#45;31&#45;&gt;3 -->
<g id="edge120" class="edge"><title>&#45;31&#45;&gt;3</title>
<path fill="none" stroke="green" stroke-width="0.116646" d="M1257.98,-77.8448C1253.79,-73.4714 1248.04,-68.4181 1241.81,-65.6985 1096.84,-2.49052 1038.3,-78.2973 887.806,-29.6985 886.753,-29.3585 885.695,-28.9678 884.643,-28.5382"/>
<polygon fill="green" stroke="green" stroke-width="0.116646" points="886.053,-25.3295 875.549,-23.9436 882.896,-31.5773 886.053,-25.3295"/>
</g>
<!-- &#45;32 -->
<g id="node32" class="node"><title>&#45;32</title>
<polygon fill="lightgray" stroke="black" points="1326.31,-95.9117 1297.31,-95.9117 1297.31,-77.9117 1326.31,-77.9117 1326.31,-95.9117"/>
<text text-anchor="middle" x="1311.81" y="-84.7117" font-family="Times New Roman,serif" font-size="9.00">&#45;32</text>
</g>
<!-- &#45;32&#45;&gt;0 -->
<g id="edge121" class="edge"><title>&#45;32&#45;&gt;0</title>
<path fill="none" stroke="green" stroke-width="0.284169" d="M1304.98,-77.8611C1300.78,-73.4932 1295.03,-68.4399 1288.81,-65.6985 1153.37,-6.08013 1102.82,-59.1534 957.806,-29.6985 950.447,-28.2039 942.575,-26.0476 935.461,-23.88"/>
<polygon fill="green" stroke="green" stroke-width="0.284169" points="936.318,-20.4798 925.728,-20.7717 934.189,-27.148 936.318,-20.4798"/>
</g>
<!-- &#45;32&#45;&gt;1 -->
<g id="edge122" class="edge"><title>&#45;32&#45;&gt;1</title>
<path fill="none" stroke="red" stroke-width="0.323591" d="M1304.96,-77.9035C1300.76,-73.5497 1295.01,-68.4964 1288.81,-65.6985 1173.23,-13.5627 1125.96,-70.1783 1005.81,-29.6985 1004.93,-29.4028 1004.05,-29.0733 1003.17,-28.7168"/>
<polygon fill="red" stroke="red" stroke-width="0.323591" points="1004.57,-25.5072 994.064,-24.1679 1001.45,-31.7689 1004.57,-25.5072"/>
</g>
<!-- &#45;32&#45;&gt;2 -->
<g id="edge123" class="edge"><title>&#45;32&#45;&gt;2</title>
<path fill="none" stroke="green" stroke-width="0.22366" d="M1304.49,-77.6447C1300.31,-73.4317 1294.73,-68.5987 1288.81,-65.6985 1209.46,-26.8217 1102.57,-18.2304 1054.75,-16.3566"/>
<polygon fill="green" stroke="green" stroke-width="0.22366" points="1054.8,-12.8565 1044.69,-16.0299 1054.57,-19.8528 1054.8,-12.8565"/>
</g>
<!-- &#45;32&#45;&gt;3 -->
<g id="edge124" class="edge"><title>&#45;32&#45;&gt;3</title>
<path fill="none" stroke="red" stroke-width="0.258803" d="M1305,-77.8171C1300.81,-73.4345 1295.06,-68.3812 1288.81,-65.6985 1124.36,4.85069 1058.41,-83.681 887.806,-29.6985 886.751,-29.3647 885.692,-28.9791 884.638,-28.5537"/>
<polygon fill="red" stroke="red" stroke-width="0.258803" points="886.046,-25.3439 875.54,-23.9743 882.898,-31.5966 886.046,-25.3439"/>
</g>
<!-- &#45;33 -->
<g id="node33" class="node"><title>&#45;33</title>
<polygon fill="lightgray" stroke="black" points="1373.31,-95.9117 1344.31,-95.9117 1344.31,-77.9117 1373.31,-77.9117 1373.31,-95.9117"/>
<text text-anchor="middle" x="1358.81" y="-84.7117" font-family="Times New Roman,serif" font-size="9.00">&#45;33</text>
</g>
<!-- &#45;33&#45;&gt;0 -->
<g id="edge125" class="edge"><title>&#45;33&#45;&gt;0</title>
<path fill="none" stroke="red" stroke-width="0.436341" stroke-dasharray="1,5" d="M1351.99,-77.8298C1347.8,-73.4514 1342.05,-68.3981 1335.81,-65.6985 1180.9,1.25731 1123.41,-62.1825 957.806,-29.6985 950.437,-28.2531 942.562,-26.1115 935.448,-23.9421"/>
<polygon fill="red" stroke="red" stroke-width="0.436341" points="936.309,-20.5425 925.718,-20.8216 934.171,-27.2082 936.309,-20.5425"/>
</g>
<!-- &#45;33&#45;&gt;1 -->
<g id="edge126" class="edge"><title>&#45;33&#45;&gt;1</title>
<path fill="none" stroke="red" stroke-width="0.294226" d="M1351.98,-77.8619C1347.78,-73.4942 1342.03,-68.4409 1335.81,-65.6985 1200.78,-6.23614 1146.04,-75.5506 1005.81,-29.6985 1004.93,-29.4107 1004.04,-29.0879 1003.16,-28.7369"/>
<polygon fill="red" stroke="red" stroke-width="0.294226" points="1004.56,-25.5253 994.049,-24.2143 1001.45,-31.7954 1004.56,-25.5253"/>
</g>
<!-- &#45;33&#45;&gt;2 -->
<g id="edge127" class="edge"><title>&#45;33&#45;&gt;2</title>
<path fill="none" stroke="red" stroke-width="0.367421" stroke-dasharray="1,5" d="M1351.52,-77.5768C1347.35,-73.344 1341.77,-68.5136 1335.81,-65.6985 1239.28,-20.1074 1108.65,-15.2383 1054.7,-15.358"/>
<polygon fill="red" stroke="red" stroke-width="0.367421" points="1054.64,-11.8582 1044.67,-15.442 1054.7,-18.8579 1054.64,-11.8582"/>
</g>
<!-- &#45;33&#45;&gt;3 -->
<g id="edge128" class="edge"><title>&#45;33&#45;&gt;3</title>
<path fill="none" stroke="green" stroke-width="0.144325" d="M1352.01,-77.7952C1347.82,-73.4053 1342.07,-68.352 1335.81,-65.6985 1151.87,12.1978 1078.53,-89.0691 887.806,-29.6985 886.749,-29.3696 885.689,-28.9881 884.634,-28.5659"/>
<polygon fill="green" stroke="green" stroke-width="0.144325" points="886.04,-25.3554 875.532,-23.9986 882.9,-31.6119 886.04,-25.3554"/>
</g>
<!-- &#45;34 -->
<g id="node34" class="node"><title>&#45;34</title>
<polygon fill="lightgray" stroke="black" points="1420.31,-95.9117 1391.31,-95.9117 1391.31,-77.9117 1420.31,-77.9117 1420.31,-95.9117"/>
<text text-anchor="middle" x="1405.81" y="-84.7117" font-family="Times New Roman,serif" font-size="9.00">&#45;34</text>
</g>
<!-- &#45;34&#45;&gt;0 -->
<g id="edge129" class="edge"><title>&#45;34&#45;&gt;0</title>
<path fill="none" stroke="green" stroke-width="0.205479" d="M1399,-77.8053C1394.82,-73.4188 1389.07,-68.3655 1382.81,-65.6985 1208.41,8.60178 1144.01,-65.215 957.806,-29.6985 950.43,-28.2917 942.553,-26.1614 935.439,-23.9907"/>
<polygon fill="green" stroke="green" stroke-width="0.205479" points="936.301,-20.5916 925.71,-20.8607 934.158,-27.2552 936.301,-20.5916"/>
</g>
<!-- &#45;34&#45;&gt;1 -->
<g id="edge130" class="edge"><title>&#45;34&#45;&gt;1</title>
<path fill="none" stroke="green" stroke-width="0.167617" d="M1398.99,-77.8304C1394.8,-73.4522 1389.05,-68.3989 1382.81,-65.6985 1228.31,1.10111 1166.14,-80.9312 1005.81,-29.6985 1004.75,-29.3617 1003.69,-28.9736 1002.64,-28.5463"/>
<polygon fill="green" stroke="green" stroke-width="0.167617" points="1004.05,-25.337 993.544,-23.9596 1000.9,-31.5873 1004.05,-25.337"/>
</g>
<!-- &#45;34&#45;&gt;2 -->
<g id="edge131" class="edge"><title>&#45;34&#45;&gt;2</title>
<path fill="none" stroke="green" stroke-width="0.161456" d="M1398.54,-77.5263C1394.38,-73.2787 1388.8,-68.4503 1382.81,-65.6985 1323.95,-38.6592 1125.37,-22.5122 1054.88,-17.521"/>
<polygon fill="green" stroke="green" stroke-width="0.161456" points="1054.93,-14.0159 1044.71,-16.8158 1054.44,-20.9992 1054.93,-14.0159"/>
</g>
<!-- &#45;34&#45;&gt;3 -->
<g id="edge132" class="edge"><title>&#45;34&#45;&gt;3</title>
<path fill="none" stroke="green" stroke-width="0.203631" d="M1399.01,-77.7773C1394.83,-73.3815 1389.08,-68.3282 1382.81,-65.6985 1179.36,19.549 1098.67,-94.4603 887.806,-29.6985 886.748,-29.3736 885.687,-28.9954 884.631,-28.5759"/>
<polygon fill="green" stroke="green" stroke-width="0.203631" points="886.035,-25.3647 875.526,-24.0183 882.902,-31.6243 886.035,-25.3647"/>
</g>
<!-- &#45;35 -->
<g id="node35" class="node"><title>&#45;35</title>
<polygon fill="lightgray" stroke="black" points="95.3057,-95.9117 66.3057,-95.9117 66.3057,-77.9117 95.3057,-77.9117 95.3057,-95.9117"/>
<text text-anchor="middle" x="80.8057" y="-84.7117" font-family="Times New Roman,serif" font-size="9.00">&#45;35</text>
</g>
<!-- &#45;35&#45;&gt;0 -->
<g id="edge133" class="edge"><title>&#45;35&#45;&gt;0</title>
<path fill="none" stroke="green" stroke-width="0.124388" d="M89.7273,-77.7001C95.1178,-73.2785 102.368,-68.2252 109.806,-65.6985 273.682,-10.0284 721.704,-78.3275 887.806,-29.6985 888.868,-29.3876 889.932,-29.0208 890.991,-28.6106"/>
<polygon fill="green" stroke="green" stroke-width="0.124388" points="892.704,-31.6677 900.106,-24.0871 889.593,-25.3973 892.704,-31.6677"/>
</g>
<!-- &#45;35&#45;&gt;1 -->
<g id="edge134" class="edge"><title>&#45;35&#45;&gt;1</title>
<path fill="none" stroke="green" stroke-width="0.103845" d="M95.7977,-79.7585C108.175,-74.989 126.321,-68.7026 142.806,-65.6985 489.897,-2.44532 588.019,-89.0056 935.806,-29.6985 943.208,-28.4363 951.093,-26.3489 958.206,-24.173"/>
<polygon fill="green" stroke="green" stroke-width="0.103845" points="959.503,-27.4315 967.928,-21.0073 957.336,-20.7754 959.503,-27.4315"/>
</g>
<!-- &#45;35&#45;&gt;3 -->
<g id="edge135" class="edge"><title>&#45;35&#45;&gt;3</title>
<path fill="none" stroke="red" stroke-width="0.129396" d="M89.7463,-77.7552C95.1431,-73.3519 102.393,-68.2986 109.806,-65.6985 248.778,-16.9503 723.963,-15.3664 838.715,-15.7139"/>
<polygon fill="red" stroke="red" stroke-width="0.129396" points="838.94,-19.2147 848.954,-15.7533 838.967,-12.2147 838.94,-19.2147"/>
</g>
<!-- &#45;36 -->
<g id="node36" class="node"><title>&#45;36</title>
<polygon fill="lightgray" stroke="black" points="1467.31,-95.9117 1438.31,-95.9117 1438.31,-77.9117 1467.31,-77.9117 1467.31,-95.9117"/>
<text text-anchor="middle" x="1452.81" y="-84.7117" font-family="Times New Roman,serif" font-size="9.00">&#45;36</text>
</g>
<!-- &#45;36&#45;&gt;0 -->
<g id="edge136" class="edge"><title>&#45;36&#45;&gt;0</title>
<path fill="none" stroke="green" stroke-width="0.233686" d="M1446.01,-77.7856C1441.83,-73.3925 1436.08,-68.3392 1429.81,-65.6985 1332.86,-24.8737 1061.22,-48.9741 957.806,-29.6985 950.424,-28.3226 942.545,-26.2015 935.432,-24.0296"/>
<polygon fill="green" stroke="green" stroke-width="0.233686" points="936.296,-20.6309 925.704,-20.892 934.147,-27.2929 936.296,-20.6309"/>
</g>
<!-- &#45;36&#45;&gt;1 -->
<g id="edge137" class="edge"><title>&#45;36&#45;&gt;1</title>
<path fill="none" stroke="green" stroke-width="0.230571" d="M1446,-77.8058C1441.82,-73.4194 1436.07,-68.3661 1429.81,-65.6985 1255.82,8.44546 1186.25,-86.3172 1005.81,-29.6985 1004.75,-29.3672 1003.69,-28.9837 1002.64,-28.56"/>
<polygon fill="green" stroke="green" stroke-width="0.230571" points="1004.04,-25.3498 993.536,-23.9869 1000.9,-31.6045 1004.04,-25.3498"/>
</g>
<!-- &#45;36&#45;&gt;2 -->
<g id="edge138" class="edge"><title>&#45;36&#45;&gt;2</title>
<path fill="none" stroke="red" stroke-width="0.122185" d="M1445.96,-77.8976C1441.76,-73.5418 1436.01,-68.4885 1429.81,-65.6985 1362.13,-35.2719 1132.08,-21.0472 1055.12,-17.0613"/>
<polygon fill="red" stroke="red" stroke-width="0.122185" points="1055.08,-13.5548 1044.91,-16.5467 1054.73,-20.5459 1055.08,-13.5548"/>
</g>
<!-- &#45;36&#45;&gt;3 -->
<g id="edge139" class="edge"><title>&#45;36&#45;&gt;3</title>
<path fill="none" stroke="green" stroke-width="0.171819" d="M1446.02,-77.7626C1441.84,-73.3618 1436.09,-68.3085 1429.81,-65.6985 1206.85,26.9032 1118.81,-99.8539 887.806,-29.6985 886.747,-29.377 885.685,-29.0014 884.628,-28.5842"/>
<polygon fill="green" stroke="green" stroke-width="0.171819" points="886.031,-25.3724 875.521,-24.0347 882.903,-31.6346 886.031,-25.3724"/>
</g>
<!-- &#45;37 -->
<g id="node37" class="node"><title>&#45;37</title>
<polygon fill="lightgray" stroke="black" points="1514.31,-95.9117 1485.31,-95.9117 1485.31,-77.9117 1514.31,-77.9117 1514.31,-95.9117"/>
<text text-anchor="middle" x="1499.81" y="-84.7117" font-family="Times New Roman,serif" font-size="9.00">&#45;37</text>
</g>
<!-- &#45;37&#45;&gt;0 -->
<g id="edge140" class="edge"><title>&#45;37&#45;&gt;0</title>
<path fill="none" stroke="red" stroke-width="0.533724" d="M1493.02,-77.7695C1488.84,-73.371 1483.09,-68.3177 1476.81,-65.6985 1370.1,-21.1972 1071.53,-50.4924 957.806,-29.6985 950.419,-28.3479 942.539,-26.2344 935.426,-24.0616"/>
<polygon fill="red" stroke="red" stroke-width="0.533724" points="936.291,-20.6632 925.699,-20.9178 934.138,-27.3238 936.291,-20.6632"/>
</g>
<!-- &#45;37&#45;&gt;1 -->
<g id="edge141" class="edge"><title>&#45;37&#45;&gt;1</title>
<path fill="none" stroke="red" stroke-width="0.382786" d="M1493.01,-77.786C1488.83,-73.393 1483.08,-68.3397 1476.81,-65.6985 1283.32,15.7947 1206.38,-91.707 1005.81,-29.6985 1004.75,-29.3717 1003.69,-28.9918 1002.63,-28.5711"/>
<polygon fill="red" stroke="red" stroke-width="0.382786" points="1004.04,-25.3602 993.529,-24.0087 1000.9,-31.6183 1004.04,-25.3602"/>
</g>
<!-- &#45;37&#45;&gt;2 -->
<g id="edge142" class="edge"><title>&#45;37&#45;&gt;2</title>
<path fill="none" stroke="green" stroke-width="0.425844" d="M1492.97,-77.8675C1488.78,-73.5017 1483.03,-68.4484 1476.81,-65.6985 1400.15,-31.8327 1137.82,-19.7131 1055.04,-16.6806"/>
<polygon fill="green" stroke="green" stroke-width="0.425844" points="1054.92,-13.1741 1044.8,-16.3188 1054.67,-20.1698 1054.92,-13.1741"/>
</g>
<!-- &#45;37&#45;&gt;3 -->
<g id="edge143" class="edge"><title>&#45;37&#45;&gt;3</title>
<path fill="none" stroke="red" stroke-width="0.385176" d="M1493.02,-77.7501C1488.85,-73.3452 1483.1,-68.2919 1476.81,-65.6985 1355.57,-15.7193 1013.38,-67.4739 887.806,-29.6985 886.746,-29.3798 885.683,-29.0065 884.626,-28.5911"/>
<polygon fill="red" stroke="red" stroke-width="0.385176" points="886.028,-25.379 875.517,-24.0485 882.904,-31.6433 886.028,-25.379"/>
</g>
<!-- &#45;38 -->
<g id="node38" class="node"><title>&#45;38</title>
<polygon fill="lightgray" stroke="black" points="1561.31,-95.9117 1532.31,-95.9117 1532.31,-77.9117 1561.31,-77.9117 1561.31,-95.9117"/>
<text text-anchor="middle" x="1546.81" y="-84.7117" font-family="Times New Roman,serif" font-size="9.00">&#45;38</text>
</g>
<!-- &#45;38&#45;&gt;0 -->
<g id="edge144" class="edge"><title>&#45;38&#45;&gt;0</title>
<path fill="none" stroke="red" stroke-width="0.38165" d="M1540.02,-77.756C1535.84,-73.3529 1530.09,-68.2996 1523.81,-65.6985 1407.35,-17.5195 1081.85,-52.0112 957.806,-29.6985 950.416,-28.3691 942.534,-26.2619 935.421,-24.0883"/>
<polygon fill="red" stroke="red" stroke-width="0.38165" points="936.287,-20.6901 925.695,-20.9393 934.131,-27.3497 936.287,-20.6901"/>
</g>
<!-- &#45;38&#45;&gt;1 -->
<g id="edge145" class="edge"><title>&#45;38&#45;&gt;1</title>
<path fill="none" stroke="red" stroke-width="0.106426" d="M1540.02,-77.7698C1535.84,-73.3714 1530.09,-68.3181 1523.81,-65.6985 1310.82,23.1475 1226.52,-97.0995 1005.81,-29.6985 1004.75,-29.3753 1003.69,-28.9985 1002.63,-28.5801"/>
<polygon fill="red" stroke="red" stroke-width="0.106426" points="1004.03,-25.3687 993.523,-24.0267 1000.9,-31.6296 1004.03,-25.3687"/>
</g>
<!-- &#45;38&#45;&gt;2 -->
<g id="edge146" class="edge"><title>&#45;38&#45;&gt;2</title>
<path fill="none" stroke="green" stroke-width="0.414476" d="M1539.98,-77.843C1535.79,-73.469 1530.04,-68.4157 1523.81,-65.6985 1438.17,-28.3972 1143.46,-18.5259 1055.07,-16.3752"/>
<polygon fill="green" stroke="green" stroke-width="0.414476" points="1054.97,-12.872 1044.89,-16.14 1054.81,-19.8702 1054.97,-12.872"/>
</g>
<!-- &#45;38&#45;&gt;3 -->
<g id="edge147" class="edge"><title>&#45;38&#45;&gt;3</title>
<path fill="none" stroke="red" stroke-width="0.49194" d="M1540.03,-77.7395C1535.85,-73.331 1530.1,-68.2777 1523.81,-65.6985 1392.81,-12.0402 1023.46,-70.1722 887.806,-29.6985 886.745,-29.3821 885.682,-29.0108 884.624,-28.597"/>
<polygon fill="red" stroke="red" stroke-width="0.49194" points="886.025,-25.3845 875.513,-24.0602 882.905,-31.6507 886.025,-25.3845"/>
</g>
<!-- &#45;39 -->
<g id="node39" class="node"><title>&#45;39</title>
<polygon fill="lightgray" stroke="black" points="1608.31,-95.9117 1579.31,-95.9117 1579.31,-77.9117 1608.31,-77.9117 1608.31,-95.9117"/>
<text text-anchor="middle" x="1593.81" y="-84.7117" font-family="Times New Roman,serif" font-size="9.00">&#45;39</text>
</g>
<!-- &#45;39&#45;&gt;0 -->
<g id="edge148" class="edge"><title>&#45;39&#45;&gt;0</title>
<path fill="none" stroke="green" stroke-width="0.33742" d="M1587.03,-77.7445C1582.85,-73.3377 1577.1,-68.2844 1570.81,-65.6985 1444.59,-13.8407 1092.17,-53.5306 957.806,-29.6985 950.412,-28.3871 942.53,-26.2852 935.417,-24.111"/>
<polygon fill="green" stroke="green" stroke-width="0.33742" points="936.284,-20.7129 925.692,-20.9575 934.125,-27.3716 936.284,-20.7129"/>
</g>
<!-- &#45;39&#45;&gt;1 -->
<g id="edge149" class="edge"><title>&#45;39&#45;&gt;1</title>
<path fill="none" stroke="red" stroke-width="0.248442" d="M1587.02,-77.7562C1582.84,-73.3533 1577.09,-68.3 1570.81,-65.6985 1454.55,-17.5977 1126.24,-66.0963 1005.81,-29.6985 1004.75,-29.3784 1003.68,-29.004 1002.63,-28.5877"/>
<polygon fill="red" stroke="red" stroke-width="0.248442" points="1004.03,-25.3758 993.519,-24.0417 1000.9,-31.639 1004.03,-25.3758"/>
</g>
<!-- &#45;39&#45;&gt;2 -->
<g id="edge150" class="edge"><title>&#45;39&#45;&gt;2</title>
<path fill="none" stroke="green" stroke-width="0.317651" d="M1586.99,-77.8226C1582.81,-73.4419 1577.06,-68.3886 1570.81,-65.6985 1476.11,-24.9388 1148.62,-17.441 1054.99,-16.1203"/>
<polygon fill="green" stroke="green" stroke-width="0.317651" points="1054.81,-12.6177 1044.76,-15.988 1054.72,-19.6171 1054.81,-12.6177"/>
</g>
<!-- &#45;39&#45;&gt;3 -->
<g id="edge151" class="edge"><title>&#45;39&#45;&gt;3</title>
<path fill="none" stroke="red" stroke-width="0.563625" d="M1587.03,-77.7303C1582.86,-73.3188 1577.11,-68.2655 1570.81,-65.6985 1430.05,-8.3603 1033.53,-72.8711 887.806,-29.6985 886.745,-29.3842 885.681,-29.0146 884.623,-28.6021"/>
<polygon fill="red" stroke="red" stroke-width="0.563625" points="886.023,-25.3893 875.51,-24.0704 882.906,-31.6571 886.023,-25.3893"/>
</g>
<!-- &#45;40 -->
<g id="node40" class="node"><title>&#45;40</title>
<polygon fill="lightgray" stroke="black" points="1655.31,-95.9117 1626.31,-95.9117 1626.31,-77.9117 1655.31,-77.9117 1655.31,-95.9117"/>
<text text-anchor="middle" x="1640.81" y="-84.7117" font-family="Times New Roman,serif" font-size="9.00">&#45;40</text>
</g>
<!-- &#45;40&#45;&gt;0 -->
<g id="edge152" class="edge"><title>&#45;40&#45;&gt;0</title>
<path fill="none" stroke="red" stroke-width="0.245114" d="M1634.03,-77.7347C1629.86,-73.3245 1624.11,-68.2712 1617.81,-65.6985 1481.83,-10.1612 1102.49,-55.0503 957.806,-29.6985 950.41,-28.4025 942.526,-26.3052 935.413,-24.1304"/>
<polygon fill="red" stroke="red" stroke-width="0.245114" points="936.282,-20.7325 925.689,-20.9731 934.12,-27.3904 936.282,-20.7325"/>
</g>
<!-- &#45;40&#45;&gt;1 -->
<g id="edge153" class="edge"><title>&#45;40&#45;&gt;1</title>
<path fill="none" stroke="red" stroke-width="0.238663" d="M1634.03,-77.7447C1629.85,-73.338 1624.1,-68.2847 1617.81,-65.6985 1491.79,-13.919 1136.31,-68.7943 1005.81,-29.6985 1004.75,-29.381 1003.68,-29.0087 1002.63,-28.5941"/>
<polygon fill="red" stroke="red" stroke-width="0.238663" points="1004.03,-25.3818 993.515,-24.0544 1000.9,-31.6471 1004.03,-25.3818"/>
</g>
<!-- &#45;40&#45;&gt;2 -->
<g id="edge154" class="edge"><title>&#45;40&#45;&gt;2</title>
<path fill="none" stroke="green" stroke-width="0.111985" d="M1634,-77.8055C1629.82,-73.419 1624.07,-68.3657 1617.81,-65.6985 1514.01,-21.4717 1153.54,-16.4475 1054.92,-15.9067"/>
<polygon fill="green" stroke="green" stroke-width="0.111985" points="1054.73,-12.4059 1044.71,-15.8622 1054.69,-19.4059 1054.73,-12.4059"/>
</g>
<!-- &#45;40&#45;&gt;3 -->
<g id="edge155" class="edge"><title>&#45;40&#45;&gt;3</title>
<path fill="none" stroke="red" stroke-width="0.284869" stroke-dasharray="1,5" d="M1634.04,-77.7223C1629.86,-73.3081 1624.11,-68.2548 1617.81,-65.6985 1467.28,-4.67986 1043.61,-75.5704 887.806,-29.6985 886.744,-29.386 885.68,-29.0179 884.622,-28.6066"/>
<polygon fill="red" stroke="red" stroke-width="0.284869" points="886.021,-25.3935 875.508,-24.0792 882.906,-31.6627 886.021,-25.3935"/>
</g>
<!-- 352&#45;&gt;1 -->
<g id="edge157" class="edge"><title>352&#45;&gt;1</title>
<path fill="none" stroke="red" stroke-width="0.327146" d="M1810.84,-72.8312C1806.53,-69.9691 1801.7,-67.3145 1796.81,-65.6985 1629.73,-10.4821 1174.7,-79.0742 1005.81,-29.6985 1004.74,-29.388 1003.68,-29.0215 1002.62,-28.6116"/>
<polygon fill="red" stroke="red" stroke-width="0.327146" points="1004.02,-25.3982 993.505,-24.0891 1000.91,-31.6689 1004.02,-25.3982"/>
</g>
</g>
</svg>
