<?xml version="1.0" encoding="UTF-8" standalone="no"?>
<!DOCTYPE svg PUBLIC "-//W3C//DTD SVG 1.1//EN"
 "http://www.w3.org/Graphics/SVG/1.1/DTD/svg11.dtd">
<!-- Generated by graphviz version 2.38.0 (20140413.2041)
 -->
<!-- Title: %3 Pages: 1 -->
<svg width="1955pt" height="170pt"
 viewBox="0.00 0.00 1955.09 170.12" xmlns="http://www.w3.org/2000/svg" xmlns:xlink="http://www.w3.org/1999/xlink">
<g id="graph0" class="graph" transform="scale(1 1) rotate(0) translate(4 166.125)">
<title>%3</title>
<polygon fill="white" stroke="none" points="-4,4 -4,-166.125 1951.09,-166.125 1951.09,4 -4,4"/>
<!-- &#45;1 -->
<g id="node1" class="node"><title>&#45;1</title>
<polygon fill="lightgray" stroke="black" points="1477.8,-95.9117 1453.8,-95.9117 1453.8,-77.9117 1477.8,-77.9117 1477.8,-95.9117"/>
<text text-anchor="middle" x="1465.8" y="-84.7117" font-family="Times New Roman,serif" font-size="9.00">&#45;1</text>
</g>
<!-- 0 -->
<g id="node41" class="node"><title>0</title>
<ellipse fill="lightblue" stroke="black" cx="903.802" cy="-14.8492" rx="14.7" ry="14.7"/>
<text text-anchor="middle" x="903.802" y="-12.6492" font-family="Times New Roman,serif" font-size="9.00">0</text>
</g>
<!-- &#45;1&#45;&gt;0 -->
<g id="edge1" class="edge"><title>&#45;1&#45;&gt;0</title>
<path fill="none" stroke="green" stroke-width="0.604645" d="M1459.74,-77.7913C1455.96,-73.4001 1450.71,-68.3468 1444.8,-65.6985 1348.8,-22.6879 1077.01,-44.0757 972.802,-29.6985 957.956,-27.6503 941.497,-24.3855 928.378,-21.5401"/>
<polygon fill="green" stroke="green" stroke-width="0.604645" points="928.774,-18.0427 918.252,-19.2846 927.252,-24.8752 928.774,-18.0427"/>
</g>
<!-- 1 -->
<g id="node42" class="node"><title>1</title>
<ellipse fill="lightblue" stroke="black" cx="855.802" cy="-14.8492" rx="14.7" ry="14.7"/>
<text text-anchor="middle" x="855.802" y="-12.6492" font-family="Times New Roman,serif" font-size="9.00">1</text>
</g>
<!-- &#45;1&#45;&gt;1 -->
<g id="edge2" class="edge"><title>&#45;1&#45;&gt;1</title>
<path fill="none" stroke="green" stroke-width="0.195649" d="M1459.75,-77.7636C1455.98,-73.3632 1450.73,-68.3099 1444.8,-65.6985 1329.67,-14.9765 1000.23,-66.0963 879.802,-29.6985 878.743,-29.3784 877.68,-29.004 876.624,-28.5877"/>
<polygon fill="green" stroke="green" stroke-width="0.195649" points="878.026,-25.3758 867.515,-24.0417 874.9,-31.639 878.026,-25.3758"/>
</g>
<!-- 2 -->
<g id="node43" class="node"><title>2</title>
<ellipse fill="lightblue" stroke="black" cx="1044.8" cy="-14.8492" rx="14.7" ry="14.7"/>
<text text-anchor="middle" x="1044.8" y="-12.6492" font-family="Times New Roman,serif" font-size="9.00">2</text>
</g>
<!-- &#45;1&#45;&gt;2 -->
<g id="edge3" class="edge"><title>&#45;1&#45;&gt;2</title>
<path fill="none" stroke="green" stroke-width="0.426287" d="M1459.69,-77.8969C1455.9,-73.5408 1450.65,-68.4875 1444.8,-65.6985 1377.83,-33.7465 1147.32,-20.5237 1070.18,-16.9265"/>
<polygon fill="green" stroke="green" stroke-width="0.426287" points="1070.1,-13.4193 1059.95,-16.4645 1069.78,-20.4122 1070.1,-13.4193"/>
</g>
<!-- 3 -->
<g id="node44" class="node"><title>3</title>
<ellipse fill="lightblue" stroke="black" cx="996.802" cy="-14.8492" rx="14.7" ry="14.7"/>
<text text-anchor="middle" x="996.802" y="-12.6492" font-family="Times New Roman,serif" font-size="9.00">3</text>
</g>
<!-- &#45;1&#45;&gt;3 -->
<g id="edge4" class="edge"><title>&#45;1&#45;&gt;3</title>
<path fill="none" stroke="red" stroke-width="0.108297" d="M1459.73,-77.8103C1455.95,-73.4255 1450.7,-68.3722 1444.8,-65.6985 1272.54,12.3678 1201.25,-86.3172 1020.8,-29.6985 1019.75,-29.3672 1018.69,-28.9837 1017.63,-28.56"/>
<polygon fill="red" stroke="red" stroke-width="0.108297" points="1019.04,-25.3498 1008.53,-23.9869 1015.9,-31.6045 1019.04,-25.3498"/>
</g>
<!-- &#45;2 -->
<g id="node2" class="node"><title>&#45;2</title>
<polygon fill="lightgray" stroke="black" points="1519.8,-95.9117 1495.8,-95.9117 1495.8,-77.9117 1519.8,-77.9117 1519.8,-95.9117"/>
<text text-anchor="middle" x="1507.8" y="-84.7117" font-family="Times New Roman,serif" font-size="9.00">&#45;2</text>
</g>
<!-- &#45;2&#45;&gt;0 -->
<g id="edge5" class="edge"><title>&#45;2&#45;&gt;0</title>
<path fill="none" stroke="green" stroke-width="0.174488" d="M1501.74,-77.7776C1497.97,-73.3818 1492.72,-68.3285 1486.8,-65.6985 1382.16,-19.206 1086.28,-44.9962 972.802,-29.6985 957.856,-27.6835 941.281,-24.3918 928.123,-21.5231"/>
<polygon fill="green" stroke="green" stroke-width="0.174488" points="928.508,-18.0226 917.984,-19.2501 926.976,-24.8531 928.508,-18.0226"/>
</g>
<!-- &#45;2&#45;&gt;1 -->
<g id="edge6" class="edge"><title>&#45;2&#45;&gt;1</title>
<path fill="none" stroke="red" stroke-width="0.183838" d="M1501.75,-77.7538C1497.99,-73.3501 1492.74,-68.2968 1486.8,-65.6985 1363.03,-11.4925 1009.23,-68.5072 879.802,-29.6985 878.742,-29.3807 877.679,-29.0082 876.622,-28.5935"/>
<polygon fill="red" stroke="red" stroke-width="0.183838" points="878.023,-25.3812 867.512,-24.0532 874.9,-31.6463 878.023,-25.3812"/>
</g>
<!-- &#45;2&#45;&gt;2 -->
<g id="edge7" class="edge"><title>&#45;2&#45;&gt;2</title>
<path fill="none" stroke="red" stroke-width="0.420229" d="M1501.7,-77.8712C1497.91,-73.5066 1492.66,-68.4533 1486.8,-65.6985 1411.8,-30.4515 1151.86,-19.2667 1069.82,-16.5724"/>
<polygon fill="red" stroke="red" stroke-width="0.420229" points="1069.77,-13.0693 1059.67,-16.2532 1069.55,-20.0659 1069.77,-13.0693"/>
</g>
<!-- &#45;2&#45;&gt;3 -->
<g id="edge8" class="edge"><title>&#45;2&#45;&gt;3</title>
<path fill="none" stroke="green" stroke-width="0.118238" stroke-dasharray="1,5" d="M1501.73,-77.7935C1497.96,-73.403 1492.71,-68.3497 1486.8,-65.6985 1297.27,19.3281 1219.24,-91.1335 1020.8,-29.6985 1019.75,-29.3713 1018.68,-28.991 1017.63,-28.57"/>
<polygon fill="green" stroke="green" stroke-width="0.118238" points="1019.03,-25.3592 1008.53,-24.0066 1015.9,-31.6169 1019.03,-25.3592"/>
</g>
<!-- &#45;3 -->
<g id="node3" class="node"><title>&#45;3</title>
<polygon fill="lightgray" stroke="black" points="1561.8,-95.9117 1537.8,-95.9117 1537.8,-77.9117 1561.8,-77.9117 1561.8,-95.9117"/>
<text text-anchor="middle" x="1549.8" y="-84.7117" font-family="Times New Roman,serif" font-size="9.00">&#45;3</text>
</g>
<!-- &#45;3&#45;&gt;0 -->
<g id="edge9" class="edge"><title>&#45;3&#45;&gt;0</title>
<path fill="none" stroke="red" stroke-width="0.277923" d="M1543.75,-77.7659C1539.98,-73.3662 1534.73,-68.3129 1528.8,-65.6985 1415.52,-15.723 1095.55,-45.9172 972.802,-29.6985 957.85,-27.7229 941.275,-24.4326 928.118,-21.5547"/>
<polygon fill="red" stroke="red" stroke-width="0.277923" points="928.506,-18.0545 917.981,-19.2723 926.968,-24.8835 928.506,-18.0545"/>
</g>
<!-- &#45;3&#45;&gt;1 -->
<g id="edge10" class="edge"><title>&#45;3&#45;&gt;1</title>
<path fill="none" stroke="red" stroke-width="0.316658" d="M1543.76,-77.7453C1539.99,-73.3388 1534.74,-68.2855 1528.8,-65.6985 1396.38,-8.0077 1018.24,-70.9187 879.802,-29.6985 878.742,-29.3827 877.678,-29.0119 876.62,-28.5985"/>
<polygon fill="red" stroke="red" stroke-width="0.316658" points="878.021,-25.3859 867.509,-24.0632 874.901,-31.6525 878.021,-25.3859"/>
</g>
<!-- &#45;3&#45;&gt;2 -->
<g id="edge11" class="edge"><title>&#45;3&#45;&gt;2</title>
<path fill="none" stroke="green" stroke-width="0.29567" d="M1543.71,-77.8499C1539.93,-73.4782 1534.68,-68.4249 1528.8,-65.6985 1445.85,-27.2063 1157.02,-18.1669 1069.88,-16.294"/>
<polygon fill="green" stroke="green" stroke-width="0.29567" points="1069.69,-12.7895 1059.62,-16.0872 1069.54,-19.7881 1069.69,-12.7895"/>
</g>
<!-- &#45;3&#45;&gt;3 -->
<g id="edge12" class="edge"><title>&#45;3&#45;&gt;3</title>
<path fill="none" stroke="green" stroke-width="0.233864" d="M1543.74,-77.7794C1539.97,-73.3842 1534.72,-68.3309 1528.8,-65.6985 1321.99,26.2915 1237.23,-95.952 1020.8,-29.6985 1019.74,-29.3746 1018.68,-28.9972 1017.63,-28.5783"/>
<polygon fill="green" stroke="green" stroke-width="0.233864" points="1019.03,-25.367 1008.52,-24.0232 1015.9,-31.6274 1019.03,-25.367"/>
</g>
<!-- &#45;4 -->
<g id="node4" class="node"><title>&#45;4</title>
<polygon fill="lightgray" stroke="black" points="1603.8,-95.9117 1579.8,-95.9117 1579.8,-77.9117 1603.8,-77.9117 1603.8,-95.9117"/>
<text text-anchor="middle" x="1591.8" y="-84.7117" font-family="Times New Roman,serif" font-size="9.00">&#45;4</text>
</g>
<!-- &#45;4&#45;&gt;0 -->
<g id="edge13" class="edge"><title>&#45;4&#45;&gt;0</title>
<path fill="none" stroke="green" stroke-width="0.357955" d="M1585.75,-77.7558C1581.98,-73.3528 1576.73,-68.2995 1570.8,-65.6985 1448.88,-12.2391 1104.82,-46.8384 972.802,-29.6985 957.846,-27.7568 941.271,-24.4677 928.115,-21.582"/>
<polygon fill="green" stroke="green" stroke-width="0.357955" points="928.504,-18.0818 917.979,-19.2913 926.961,-24.9097 928.504,-18.0818"/>
</g>
<!-- &#45;4&#45;&gt;1 -->
<g id="edge14" class="edge"><title>&#45;4&#45;&gt;1</title>
<path fill="none" stroke="green" stroke-width="0.2291" stroke-dasharray="1,5" d="M1585.76,-77.7378C1581.99,-73.3288 1576.74,-68.2755 1570.8,-65.6985 1429.73,-4.52239 1027.25,-73.3305 879.802,-29.6985 878.741,-29.3845 877.677,-29.0152 876.619,-28.603"/>
<polygon fill="green" stroke="green" stroke-width="0.2291" points="878.018,-25.3901 867.506,-24.0719 874.902,-31.6581 878.018,-25.3901"/>
</g>
<!-- &#45;4&#45;&gt;2 -->
<g id="edge15" class="edge"><title>&#45;4&#45;&gt;2</title>
<path fill="none" stroke="red" stroke-width="0.243969" d="M1585.72,-77.832C1581.94,-73.4543 1576.69,-68.401 1570.8,-65.6985 1479.88,-23.9563 1162.01,-17.1569 1069.96,-16.0587"/>
<polygon fill="red" stroke="red" stroke-width="0.243969" points="1069.92,-12.5582 1059.88,-15.9511 1069.84,-19.5578 1069.92,-12.5582"/>
</g>
<!-- &#45;4&#45;&gt;3 -->
<g id="edge16" class="edge"><title>&#45;4&#45;&gt;3</title>
<path fill="none" stroke="red" stroke-width="0.205346" d="M1585.75,-77.7675C1581.98,-73.3683 1576.73,-68.315 1570.8,-65.6985 1458.76,-16.2206 1138.02,-65.2353 1020.8,-29.6985 1019.74,-29.3775 1018.68,-29.0023 1017.62,-28.5854"/>
<polygon fill="red" stroke="red" stroke-width="0.205346" points="1019.03,-25.3736 1008.52,-24.0372 1015.9,-31.6362 1019.03,-25.3736"/>
</g>
<!-- &#45;5 -->
<g id="node5" class="node"><title>&#45;5</title>
<polygon fill="lightgray" stroke="black" points="1645.8,-95.9117 1621.8,-95.9117 1621.8,-77.9117 1645.8,-77.9117 1645.8,-95.9117"/>
<text text-anchor="middle" x="1633.8" y="-84.7117" font-family="Times New Roman,serif" font-size="9.00">&#45;5</text>
</g>
<!-- &#45;5&#45;&gt;0 -->
<g id="edge17" class="edge"><title>&#45;5&#45;&gt;0</title>
<path fill="none" stroke="red" stroke-width="0.381046" d="M1627.75,-77.7471C1623.99,-73.3411 1618.74,-68.2878 1612.8,-65.6985 1482.23,-8.75448 1114.1,-47.7599 972.802,-29.6985 957.842,-27.7862 941.267,-24.4982 928.112,-21.6057"/>
<polygon fill="red" stroke="red" stroke-width="0.381046" points="928.503,-18.1056 917.977,-19.3079 926.955,-24.9324 928.503,-18.1056"/>
</g>
<!-- &#45;5&#45;&gt;1 -->
<g id="edge18" class="edge"><title>&#45;5&#45;&gt;1</title>
<path fill="none" stroke="green" stroke-width="0.584108" d="M1627.76,-77.7312C1624,-73.3199 1618.75,-68.2666 1612.8,-65.6985 1463.08,-1.03662 1036.25,-75.7427 879.802,-29.6985 878.741,-29.3861 877.676,-29.0181 876.618,-28.6069"/>
<polygon fill="green" stroke="green" stroke-width="0.584108" points="878.017,-25.3938 867.504,-24.0797 874.903,-31.663 878.017,-25.3938"/>
</g>
<!-- &#45;5&#45;&gt;2 -->
<g id="edge19" class="edge"><title>&#45;5&#45;&gt;2</title>
<path fill="none" stroke="green" stroke-width="0.137116" d="M1627.72,-77.8166C1623.95,-73.4338 1618.7,-68.3805 1612.8,-65.6985 1513.89,-20.7012 1166.85,-16.2205 1070.04,-15.8566"/>
<polygon fill="green" stroke="green" stroke-width="0.137116" points="1069.76,-12.356 1059.75,-15.8305 1069.74,-19.356 1069.76,-12.356"/>
</g>
<!-- &#45;5&#45;&gt;3 -->
<g id="edge20" class="edge"><title>&#45;5&#45;&gt;3</title>
<path fill="none" stroke="green" stroke-width="0.329333" d="M1627.75,-77.7572C1623.98,-73.3546 1618.73,-68.3013 1612.8,-65.6985 1492.11,-12.7369 1147.02,-67.6461 1020.8,-29.6985 1019.74,-29.3799 1018.68,-29.0068 1017.62,-28.5915"/>
<polygon fill="green" stroke="green" stroke-width="0.329333" points="1019.02,-25.3793 1008.51,-24.0493 1015.9,-31.6438 1019.02,-25.3793"/>
</g>
<!-- &#45;6 -->
<g id="node6" class="node"><title>&#45;6</title>
<polygon fill="lightgray" stroke="black" points="170.802,-95.9117 146.802,-95.9117 146.802,-77.9117 170.802,-77.9117 170.802,-95.9117"/>
<text text-anchor="middle" x="158.802" y="-84.7117" font-family="Times New Roman,serif" font-size="9.00">&#45;6</text>
</g>
<!-- &#45;6&#45;&gt;0 -->
<g id="edge21" class="edge"><title>&#45;6&#45;&gt;0</title>
<path fill="none" stroke="red" stroke-width="0.325595" d="M164.844,-77.7364C168.609,-73.3268 173.859,-68.2735 179.802,-65.6985 322.725,-3.77547 730.429,-73.8474 879.802,-29.6985 880.863,-29.3849 881.927,-29.0158 882.985,-28.6038"/>
<polygon fill="red" stroke="red" stroke-width="0.325595" points="884.702,-31.6592 892.099,-24.0737 881.586,-25.3909 884.702,-31.6592"/>
</g>
<!-- &#45;6&#45;&gt;1 -->
<g id="edge22" class="edge"><title>&#45;6&#45;&gt;1</title>
<path fill="none" stroke="red" stroke-width="0.115377" d="M164.866,-77.7858C168.638,-73.3927 173.888,-68.3394 179.802,-65.6985 299.41,-12.2907 722.204,-14.0739 830.423,-15.4468"/>
<polygon fill="red" stroke="red" stroke-width="0.115377" points="830.655,-18.9502 840.703,-15.5885 830.752,-11.9509 830.655,-18.9502"/>
</g>
<!-- &#45;6&#45;&gt;2 -->
<g id="edge23" class="edge"><title>&#45;6&#45;&gt;2</title>
<path fill="none" stroke="green" stroke-width="0.25573" d="M164.836,-77.7172C168.598,-73.3012 173.848,-68.2479 179.802,-65.6985 351.763,7.92841 841.187,-81.9466 1020.8,-29.6985 1021.86,-29.3894 1022.93,-29.0241 1023.99,-28.6152"/>
<polygon fill="green" stroke="green" stroke-width="0.25573" points="1025.7,-31.6734 1033.11,-24.0962 1022.59,-25.4016 1025.7,-31.6734"/>
</g>
<!-- &#45;7 -->
<g id="node7" class="node"><title>&#45;7</title>
<polygon fill="lightgray" stroke="black" points="1687.8,-95.9117 1663.8,-95.9117 1663.8,-77.9117 1687.8,-77.9117 1687.8,-95.9117"/>
<text text-anchor="middle" x="1675.8" y="-84.7117" font-family="Times New Roman,serif" font-size="9.00">&#45;7</text>
</g>
<!-- &#45;7&#45;&gt;0 -->
<g id="edge24" class="edge"><title>&#45;7&#45;&gt;0</title>
<path fill="none" stroke="red" stroke-width="0.178008" stroke-dasharray="1,5" d="M1669.76,-77.7394C1665.99,-73.3308 1660.74,-68.2775 1654.8,-65.6985 1515.58,-5.26928 1123.38,-48.6816 972.802,-29.6985 957.839,-27.8121 941.263,-24.5249 928.109,-21.6265"/>
<polygon fill="red" stroke="red" stroke-width="0.178008" points="928.502,-18.1265 917.975,-19.3224 926.95,-24.9524 928.502,-18.1265"/>
</g>
<!-- &#45;7&#45;&gt;1 -->
<g id="edge25" class="edge"><title>&#45;7&#45;&gt;1</title>
<path fill="none" stroke="green" stroke-width="0.146982" d="M1669.76,-77.7253C1666,-73.312 1660.75,-68.2587 1654.8,-65.6985 1496.43,2.44954 1045.26,-78.1551 879.802,-29.6985 878.74,-29.3875 877.675,-29.0206 876.617,-28.6104"/>
<polygon fill="green" stroke="green" stroke-width="0.146982" points="878.015,-25.3971 867.502,-24.0867 874.903,-31.6674 878.015,-25.3971"/>
</g>
<!-- &#45;7&#45;&gt;2 -->
<g id="edge26" class="edge"><title>&#45;7&#45;&gt;2</title>
<path fill="none" stroke="green" stroke-width="0.394839" d="M1669.73,-77.8033C1665.96,-73.4161 1660.71,-68.3628 1654.8,-65.6985 1547.8,-17.4092 1171.05,-15.3426 1069.94,-15.6814"/>
<polygon fill="green" stroke="green" stroke-width="0.394839" points="1069.74,-12.1821 1059.75,-15.7273 1069.77,-19.1821 1069.74,-12.1821"/>
</g>
<!-- &#45;7&#45;&gt;3 -->
<g id="edge27" class="edge"><title>&#45;7&#45;&gt;3</title>
<path fill="none" stroke="green" stroke-width="0.443535" d="M1669.75,-77.7482C1665.99,-73.3427 1660.74,-68.2894 1654.8,-65.6985 1525.47,-9.25232 1156.02,-70.0574 1020.8,-29.6985 1019.74,-29.382 1018.68,-29.0107 1017.62,-28.5968"/>
<polygon fill="green" stroke="green" stroke-width="0.443535" points="1019.02,-25.3843 1008.51,-24.0597 1015.9,-31.6504 1019.02,-25.3843"/>
</g>
<!-- &#45;8 -->
<g id="node8" class="node"><title>&#45;8</title>
<polygon fill="lightgray" stroke="black" points="212.802,-95.9117 188.802,-95.9117 188.802,-77.9117 212.802,-77.9117 212.802,-95.9117"/>
<text text-anchor="middle" x="200.802" y="-84.7117" font-family="Times New Roman,serif" font-size="9.00">&#45;8</text>
</g>
<!-- &#45;8&#45;&gt;0 -->
<g id="edge28" class="edge"><title>&#45;8&#45;&gt;0</title>
<path fill="none" stroke="red" stroke-width="0.157086" stroke-dasharray="1,5" d="M207.214,-77.7392C211.184,-73.3306 216.684,-68.2773 222.802,-65.6985 357.54,-8.90392 739.649,-71.378 879.802,-29.6985 880.863,-29.3831 881.926,-29.0126 882.984,-28.5994"/>
<polygon fill="red" stroke="red" stroke-width="0.157086" points="884.703,-31.6537 892.096,-24.0649 881.584,-25.3868 884.703,-31.6537"/>
</g>
<!-- &#45;8&#45;&gt;1 -->
<g id="edge29" class="edge"><title>&#45;8&#45;&gt;1</title>
<path fill="none" stroke="green" stroke-width="0.327698" d="M207.237,-77.7937C211.215,-73.4033 216.715,-68.35 222.802,-65.6985 334.816,-16.9014 727.465,-15.2351 830.752,-15.6656"/>
<polygon fill="green" stroke="green" stroke-width="0.327698" points="830.844,-19.1661 840.862,-15.7189 830.881,-12.1662 830.844,-19.1661"/>
</g>
<!-- &#45;8&#45;&gt;2 -->
<g id="edge30" class="edge"><title>&#45;8&#45;&gt;2</title>
<path fill="none" stroke="green" stroke-width="0.268366" d="M207.204,-77.717C211.172,-73.301 216.672,-68.2477 222.802,-65.6985 386.709,2.46092 850.41,-79.4763 1020.8,-29.6985 1021.86,-29.3882 1022.93,-29.0219 1023.99,-28.6121"/>
<polygon fill="green" stroke="green" stroke-width="0.268366" points="1025.7,-31.6696 1033.1,-24.0902 1022.59,-25.3987 1025.7,-31.6696"/>
</g>
<!-- &#45;8&#45;&gt;3 -->
<g id="edge31" class="edge"><title>&#45;8&#45;&gt;3</title>
<path fill="none" stroke="green" stroke-width="0.362004" d="M207.21,-77.7306C211.179,-73.3192 216.679,-68.2659 222.802,-65.6985 367.469,-5.03554 772.146,-49.1864 927.802,-29.6985 942.767,-27.8249 959.342,-24.5382 972.496,-21.6368"/>
<polygon fill="green" stroke="green" stroke-width="0.362004" points="973.657,-24.9623 982.63,-19.3297 972.103,-18.1369 973.657,-24.9623"/>
</g>
<!-- &#45;9 -->
<g id="node9" class="node"><title>&#45;9</title>
<polygon fill="lightgray" stroke="black" points="42.802,-95.9117 18.802,-95.9117 18.802,-77.9117 42.802,-77.9117 42.802,-95.9117"/>
<text text-anchor="middle" x="30.802" y="-84.7117" font-family="Times New Roman,serif" font-size="9.00">&#45;9</text>
</g>
<!-- &#45;9&#45;&gt;0 -->
<g id="edge32" class="edge"><title>&#45;9&#45;&gt;0</title>
<path fill="none" stroke="red" stroke-width="0.311153" stroke-dasharray="1,5" d="M38.6502,-77.6989C43.433,-73.2769 49.933,-68.2236 56.802,-65.6985 228.624,-2.53599 704.048,-80.9125 879.802,-29.6985 880.864,-29.3889 881.929,-29.0232 882.988,-28.6139"/>
<polygon fill="red" stroke="red" stroke-width="0.311153" points="884.7,-31.6718 892.104,-24.0937 881.59,-25.4004 884.7,-31.6718"/>
</g>
<!-- &#45;9&#45;&gt;1 -->
<g id="edge33" class="edge"><title>&#45;9&#45;&gt;1</title>
<path fill="none" stroke="green" stroke-width="0.39569" d="M38.6681,-77.7467C43.4568,-73.3406 49.9568,-68.2873 56.802,-65.6985 130.623,-37.7797 702.474,-20.1598 830.45,-16.5424"/>
<polygon fill="green" stroke="green" stroke-width="0.39569" points="830.9,-20.0312 840.799,-16.2532 830.705,-13.034 830.9,-20.0312"/>
</g>
<!-- &#45;9&#45;&gt;3 -->
<g id="edge34" class="edge"><title>&#45;9&#45;&gt;3</title>
<path fill="none" stroke="green" stroke-width="0.70947" d="M43.1787,-80.5021C54.9259,-75.6512 73.204,-68.8304 89.802,-65.6985 456.126,3.42363 557.718,-74.5135 927.802,-29.6985 942.774,-27.8854 959.35,-24.6009 972.502,-21.6855"/>
<polygon fill="green" stroke="green" stroke-width="0.70947" points="973.669,-25.009 982.634,-19.3637 972.105,-18.1858 973.669,-25.009"/>
</g>
<!-- &#45;10 -->
<g id="node10" class="node"><title>&#45;10</title>
<polygon fill="lightgray" stroke="black" points="1821.3,-95.9117 1792.3,-95.9117 1792.3,-77.9117 1821.3,-77.9117 1821.3,-95.9117"/>
<text text-anchor="middle" x="1806.8" y="-84.7117" font-family="Times New Roman,serif" font-size="9.00">&#45;10</text>
</g>
<!-- &#45;10&#45;&gt;0 -->
<g id="edge35" class="edge"><title>&#45;10&#45;&gt;0</title>
<path fill="none" stroke="green" stroke-width="0.425034" d="M1791.81,-79.7639C1779.43,-74.9976 1761.28,-68.7127 1744.8,-65.6985 1406.92,-3.90869 1313.72,-71.6156 972.802,-29.6985 957.833,-27.858 941.257,-24.5725 928.104,-21.6634"/>
<polygon fill="green" stroke="green" stroke-width="0.425034" points="928.5,-18.1637 917.972,-19.3483 926.941,-24.9878 928.5,-18.1637"/>
</g>
<!-- &#45;10&#45;&gt;2 -->
<g id="edge36" class="edge"><title>&#45;10&#45;&gt;2</title>
<path fill="none" stroke="green" stroke-width="0.351397" d="M1797.86,-77.7604C1792.46,-73.3589 1785.21,-68.3056 1777.8,-65.6985 1643.02,-18.277 1182.75,-15.6785 1069.92,-15.7688"/>
<polygon fill="green" stroke="green" stroke-width="0.351397" points="1069.83,-12.2688 1059.83,-15.7852 1069.84,-19.2688 1069.83,-12.2688"/>
</g>
<!-- &#45;10&#45;&gt;3 -->
<g id="edge37" class="edge"><title>&#45;10&#45;&gt;3</title>
<path fill="none" stroke="red" stroke-width="0.136355" d="M1797.88,-77.7037C1792.49,-73.2833 1785.24,-68.23 1777.8,-65.6985 1618.37,-11.4257 1182.4,-77.1212 1020.8,-29.6985 1019.74,-29.3869 1018.68,-29.0196 1017.62,-28.6089"/>
<polygon fill="red" stroke="red" stroke-width="0.136355" points="1019.02,-25.3957 1008.5,-24.0838 1015.9,-31.6655 1019.02,-25.3957"/>
</g>
<!-- &#45;11 -->
<g id="node11" class="node"><title>&#45;11</title>
<polygon fill="lightgray" stroke="black" points="260.302,-95.9117 231.302,-95.9117 231.302,-77.9117 260.302,-77.9117 260.302,-95.9117"/>
<text text-anchor="middle" x="245.802" y="-84.7117" font-family="Times New Roman,serif" font-size="9.00">&#45;11</text>
</g>
<!-- &#45;11&#45;&gt;0 -->
<g id="edge38" class="edge"><title>&#45;11&#45;&gt;0</title>
<path fill="none" stroke="red" stroke-width="0.164684" d="M252.944,-77.7422C257.325,-73.3346 263.325,-68.2813 269.802,-65.6985 395.934,-15.3996 749.726,-68.6794 879.802,-29.6985 880.862,-29.3809 881.925,-29.0085 882.982,-28.5939"/>
<polygon fill="red" stroke="red" stroke-width="0.164684" points="884.703,-31.6467 892.093,-24.0539 881.581,-25.3815 884.703,-31.6467"/>
</g>
<!-- &#45;11&#45;&gt;1 -->
<g id="edge39" class="edge"><title>&#45;11&#45;&gt;1</title>
<path fill="none" stroke="red" stroke-width="0.183703" d="M252.97,-77.805C257.359,-73.4183 263.359,-68.365 269.802,-65.6985 373.702,-22.6968 732.616,-16.7896 830.803,-15.9783"/>
<polygon fill="red" stroke="red" stroke-width="0.183703" points="830.99,-19.4772 840.964,-15.9054 830.939,-12.4774 830.99,-19.4772"/>
</g>
<!-- &#45;11&#45;&gt;2 -->
<g id="edge40" class="edge"><title>&#45;11&#45;&gt;2</title>
<path fill="none" stroke="red" stroke-width="0.246442" d="M252.934,-77.7154C257.311,-73.2988 263.311,-68.2455 269.802,-65.6985 425.337,-4.66806 860.491,-76.7766 1020.8,-29.6985 1021.86,-29.3867 1022.93,-29.0192 1023.99,-28.6084"/>
<polygon fill="red" stroke="red" stroke-width="0.246442" points="1025.7,-31.6649 1033.1,-24.0828 1022.59,-25.3952 1025.7,-31.6649"/>
</g>
<!-- &#45;11&#45;&gt;3 -->
<g id="edge41" class="edge"><title>&#45;11&#45;&gt;3</title>
<path fill="none" stroke="green" stroke-width="0.209607" d="M252.94,-77.7318C257.32,-73.3207 263.32,-68.2674 269.802,-65.6985 405.942,-11.7469 782.529,-48.1549 927.802,-29.6985 942.763,-27.7977 959.339,-24.5101 972.493,-21.6149"/>
<polygon fill="green" stroke="green" stroke-width="0.209607" points="973.651,-24.9413 982.628,-19.3144 972.101,-18.1149 973.651,-24.9413"/>
</g>
<!-- &#45;12 -->
<g id="node12" class="node"><title>&#45;12</title>
<polygon fill="lightgray" stroke="black" points="307.302,-95.9117 278.302,-95.9117 278.302,-77.9117 307.302,-77.9117 307.302,-95.9117"/>
<text text-anchor="middle" x="292.802" y="-84.7117" font-family="Times New Roman,serif" font-size="9.00">&#45;12</text>
</g>
<!-- &#45;12&#45;&gt;0 -->
<g id="edge42" class="edge"><title>&#45;12&#45;&gt;0</title>
<path fill="none" stroke="green" stroke-width="0.621912" d="M299.949,-77.7541C304.331,-73.3505 310.331,-68.2972 316.802,-65.6985 549.471,27.7475 639.799,-102.264 879.802,-29.6985 880.861,-29.3783 881.924,-29.0038 882.98,-28.5874"/>
<polygon fill="green" stroke="green" stroke-width="0.621912" points="884.704,-31.6387 892.089,-24.0411 881.578,-25.3755 884.704,-31.6387"/>
</g>
<!-- &#45;12&#45;&gt;1 -->
<g id="edge43" class="edge"><title>&#45;12&#45;&gt;1</title>
<path fill="none" stroke="red" stroke-width="0.120473" d="M299.977,-77.8228C304.369,-73.442 310.369,-68.3887 316.802,-65.6985 411.571,-26.067 737.545,-17.7705 830.736,-16.1925"/>
<polygon fill="red" stroke="red" stroke-width="0.120473" points="830.972,-19.6893 840.915,-16.0317 830.861,-12.6902 830.972,-19.6893"/>
</g>
<!-- &#45;12&#45;&gt;2 -->
<g id="edge44" class="edge"><title>&#45;12&#45;&gt;2</title>
<path fill="none" stroke="red" stroke-width="0.261518" d="M299.937,-77.7231C304.315,-73.3092 310.315,-68.2559 316.802,-65.6985 462.535,-8.24579 870.571,-74.0771 1020.8,-29.6985 1021.86,-29.385 1022.93,-29.0161 1023.99,-28.6042"/>
<polygon fill="red" stroke="red" stroke-width="0.261518" points="1025.7,-31.6597 1033.1,-24.0745 1022.59,-25.3913 1025.7,-31.6597"/>
</g>
<!-- &#45;12&#45;&gt;3 -->
<g id="edge45" class="edge"><title>&#45;12&#45;&gt;3</title>
<path fill="none" stroke="red" stroke-width="0.373899" d="M299.944,-77.742C304.325,-73.3343 310.325,-68.281 316.802,-65.6985 443.143,-15.3236 792.91,-47.1236 927.802,-29.6985 942.759,-27.7663 959.335,-24.4776 972.49,-21.5897"/>
<polygon fill="red" stroke="red" stroke-width="0.373899" points="973.645,-24.917 982.626,-19.2967 972.1,-18.0896 973.645,-24.917"/>
</g>
<!-- &#45;13 -->
<g id="node13" class="node"><title>&#45;13</title>
<polygon fill="lightgray" stroke="black" points="354.302,-95.9117 325.302,-95.9117 325.302,-77.9117 354.302,-77.9117 354.302,-95.9117"/>
<text text-anchor="middle" x="339.802" y="-84.7117" font-family="Times New Roman,serif" font-size="9.00">&#45;13</text>
</g>
<!-- &#45;13&#45;&gt;0 -->
<g id="edge46" class="edge"><title>&#45;13&#45;&gt;0</title>
<path fill="none" stroke="green" stroke-width="0.21176" d="M346.955,-77.7682C351.339,-73.3693 357.339,-68.316 363.802,-65.6985 576.881,20.5978 659.943,-96.87 879.802,-29.6985 880.86,-29.3752 881.922,-28.9982 882.978,-28.5798"/>
<polygon fill="green" stroke="green" stroke-width="0.21176" points="884.706,-31.6291 892.084,-24.026 881.575,-25.3683 884.706,-31.6291"/>
</g>
<!-- &#45;13&#45;&gt;1 -->
<g id="edge47" class="edge"><title>&#45;13&#45;&gt;1</title>
<path fill="none" stroke="green" stroke-width="0.403796" d="M346.986,-77.8439C351.381,-73.4701 357.381,-68.4168 363.802,-65.6985 449.477,-29.4286 742.721,-18.8423 830.671,-16.448"/>
<polygon fill="green" stroke="green" stroke-width="0.403796" points="830.891,-19.9435 840.796,-16.1843 830.709,-12.9459 830.891,-19.9435"/>
</g>
<!-- &#45;13&#45;&gt;2 -->
<g id="edge48" class="edge"><title>&#45;13&#45;&gt;2</title>
<path fill="none" stroke="green" stroke-width="0.397363" d="M346.94,-77.732C351.32,-73.321 357.32,-68.2677 363.802,-65.6985 499.734,-11.823 880.649,-71.378 1020.8,-29.6985 1021.86,-29.3831 1022.93,-29.0126 1023.98,-28.5994"/>
<polygon fill="green" stroke="green" stroke-width="0.397363" points="1025.7,-31.6537 1033.1,-24.0649 1022.58,-25.3868 1025.7,-31.6537"/>
</g>
<!-- &#45;13&#45;&gt;3 -->
<g id="edge49" class="edge"><title>&#45;13&#45;&gt;3</title>
<path fill="none" stroke="green" stroke-width="0.329752" d="M346.949,-77.7539C351.331,-73.3501 357.331,-68.2968 363.802,-65.6985 480.345,-18.8994 803.288,-46.0927 927.802,-29.6985 942.755,-27.7297 959.33,-24.4397 972.486,-21.5602"/>
<polygon fill="green" stroke="green" stroke-width="0.329752" points="973.637,-24.8888 982.623,-19.2761 972.098,-18.06 973.637,-24.8888"/>
</g>
<!-- &#45;14 -->
<g id="node14" class="node"><title>&#45;14</title>
<polygon fill="lightgray" stroke="black" points="401.302,-95.9117 372.302,-95.9117 372.302,-77.9117 401.302,-77.9117 401.302,-95.9117"/>
<text text-anchor="middle" x="386.802" y="-84.7117" font-family="Times New Roman,serif" font-size="9.00">&#45;14</text>
</g>
<!-- &#45;14&#45;&gt;0 -->
<g id="edge50" class="edge"><title>&#45;14&#45;&gt;0</title>
<path fill="none" stroke="green" stroke-width="0.161912" d="M393.962,-77.785C398.348,-73.3917 404.348,-68.3384 410.802,-65.6985 604.297,13.4508 680.081,-91.4776 879.802,-29.6985 880.859,-29.3715 881.92,-28.9915 882.975,-28.5706"/>
<polygon fill="green" stroke="green" stroke-width="0.161912" points="884.707,-31.6177 892.079,-24.0079 881.57,-25.3598 884.707,-31.6177"/>
</g>
<!-- &#45;14&#45;&gt;1 -->
<g id="edge51" class="edge"><title>&#45;14&#45;&gt;1</title>
<path fill="none" stroke="red" stroke-width="0.404124" d="M393.997,-77.8693C398.395,-73.5041 404.395,-68.4508 410.802,-65.6985 487.456,-32.7681 748.383,-20.0153 830.705,-16.7539"/>
<polygon fill="red" stroke="red" stroke-width="0.404124" points="831.031,-20.244 840.889,-16.3632 830.762,-13.2492 831.031,-20.244"/>
</g>
<!-- &#45;14&#45;&gt;2 -->
<g id="edge52" class="edge"><title>&#45;14&#45;&gt;2</title>
<path fill="none" stroke="red" stroke-width="0.364557" d="M393.944,-77.7422C398.325,-73.3346 404.325,-68.2813 410.802,-65.6985 536.934,-15.3996 890.726,-68.6794 1020.8,-29.6985 1021.86,-29.3809 1022.93,-29.0085 1023.98,-28.5939"/>
<polygon fill="red" stroke="red" stroke-width="0.364557" points="1025.7,-31.6467 1033.09,-24.0539 1022.58,-25.3815 1025.7,-31.6467"/>
</g>
<!-- &#45;14&#45;&gt;3 -->
<g id="edge53" class="edge"><title>&#45;14&#45;&gt;3</title>
<path fill="none" stroke="red" stroke-width="0.209634" d="M393.955,-77.7679C398.339,-73.3688 404.339,-68.3155 410.802,-65.6985 517.55,-22.4743 813.664,-45.062 927.802,-29.6985 942.749,-27.6866 959.324,-24.395 972.482,-21.5255"/>
<polygon fill="red" stroke="red" stroke-width="0.209634" points="973.628,-24.8554 982.62,-19.2518 972.096,-18.0251 973.628,-24.8554"/>
</g>
<!-- &#45;15 -->
<g id="node15" class="node"><title>&#45;15</title>
<polygon fill="lightgray" stroke="black" points="1868.3,-95.9117 1839.3,-95.9117 1839.3,-77.9117 1868.3,-77.9117 1868.3,-95.9117"/>
<text text-anchor="middle" x="1853.8" y="-84.7117" font-family="Times New Roman,serif" font-size="9.00">&#45;15</text>
</g>
<!-- &#45;15&#45;&gt;0 -->
<g id="edge54" class="edge"><title>&#45;15&#45;&gt;0</title>
<path fill="none" stroke="green" stroke-width="0.361887" d="M1847.04,-77.705C1842.87,-73.2849 1837.12,-68.2316 1830.8,-65.6985 1742.24,-30.1765 1067.53,-41.1218 972.802,-29.6985 957.829,-27.8929 941.253,-24.6087 928.101,-21.6915"/>
<polygon fill="green" stroke="green" stroke-width="0.361887" points="928.499,-18.1919 917.969,-19.3679 926.934,-25.0148 928.499,-18.1919"/>
</g>
<!-- &#45;15&#45;&gt;2 -->
<g id="edge55" class="edge"><title>&#45;15&#45;&gt;2</title>
<path fill="none" stroke="red" stroke-width="0.132493" d="M1847.02,-77.7555C1842.84,-73.3524 1837.09,-68.2991 1830.8,-65.6985 1759.13,-36.0549 1197.03,-19.7985 1070.18,-16.486"/>
<polygon fill="red" stroke="red" stroke-width="0.132493" points="1070,-12.9802 1059.91,-16.2214 1069.82,-19.9779 1070,-12.9802"/>
</g>
<!-- &#45;15&#45;&gt;3 -->
<g id="edge56" class="edge"><title>&#45;15&#45;&gt;3</title>
<path fill="none" stroke="red" stroke-width="0.430427" d="M1847.04,-77.7108C1842.86,-73.2928 1837.11,-68.2395 1830.8,-65.6985 1663.66,1.58573 1193.77,-80.1657 1020.8,-29.6985 1019.74,-29.3886 1018.67,-29.0226 1017.62,-28.613"/>
<polygon fill="red" stroke="red" stroke-width="0.430427" points="1019.01,-25.3996 1008.5,-24.0919 1015.9,-31.6707 1019.01,-25.3996"/>
</g>
<!-- &#45;16 -->
<g id="node16" class="node"><title>&#45;16</title>
<polygon fill="lightgray" stroke="black" points="448.302,-95.9117 419.302,-95.9117 419.302,-77.9117 448.302,-77.9117 448.302,-95.9117"/>
<text text-anchor="middle" x="433.802" y="-84.7117" font-family="Times New Roman,serif" font-size="9.00">&#45;16</text>
</g>
<!-- &#45;16&#45;&gt;0 -->
<g id="edge57" class="edge"><title>&#45;16&#45;&gt;0</title>
<path fill="none" stroke="red" stroke-width="0.155331" d="M440.97,-77.8056C445.359,-73.4191 451.359,-68.3658 457.802,-65.6985 631.722,6.30722 700.21,-86.088 879.802,-29.6985 880.858,-29.367 881.917,-28.9833 882.972,-28.5595"/>
<polygon fill="red" stroke="red" stroke-width="0.155331" points="884.709,-31.6038 892.072,-23.9858 881.565,-25.3494 884.709,-31.6038"/>
</g>
<!-- &#45;16&#45;&gt;1 -->
<g id="edge58" class="edge"><title>&#45;16&#45;&gt;1</title>
<path fill="none" stroke="green" stroke-width="0.123563" d="M441.011,-77.9006C445.413,-73.5458 451.413,-68.4925 457.802,-65.6985 525.455,-36.111 754.146,-21.3352 830.641,-17.1354"/>
<polygon fill="green" stroke="green" stroke-width="0.123563" points="830.987,-20.622 840.786,-16.592 830.613,-13.632 830.987,-20.622"/>
</g>
<!-- &#45;16&#45;&gt;2 -->
<g id="edge59" class="edge"><title>&#45;16&#45;&gt;2</title>
<path fill="none" stroke="red" stroke-width="0.199825" d="M440.949,-77.7541C445.331,-73.3505 451.331,-68.2972 457.802,-65.6985 690.471,27.7475 780.799,-102.264 1020.8,-29.6985 1021.86,-29.3783 1022.92,-29.0038 1023.98,-28.5874"/>
<polygon fill="red" stroke="red" stroke-width="0.199825" points="1025.7,-31.6387 1033.09,-24.0411 1022.58,-25.3755 1025.7,-31.6387"/>
</g>
<!-- &#45;16&#45;&gt;3 -->
<g id="edge60" class="edge"><title>&#45;16&#45;&gt;3</title>
<path fill="none" stroke="red" stroke-width="0.142396" d="M440.961,-77.7846C445.348,-73.3912 451.348,-68.3379 457.802,-65.6985 554.758,-26.0478 824.037,-44.0318 927.802,-29.6985 942.647,-27.6479 959.107,-24.383 972.226,-21.5382"/>
<polygon fill="red" stroke="red" stroke-width="0.142396" points="973.351,-24.8734 982.351,-19.2832 971.83,-18.0408 973.351,-24.8734"/>
</g>
<!-- &#45;17 -->
<g id="node17" class="node"><title>&#45;17</title>
<polygon fill="lightgray" stroke="black" points="495.302,-95.9117 466.302,-95.9117 466.302,-77.9117 495.302,-77.9117 495.302,-95.9117"/>
<text text-anchor="middle" x="480.802" y="-84.7117" font-family="Times New Roman,serif" font-size="9.00">&#45;17</text>
</g>
<!-- &#45;17&#45;&gt;0 -->
<g id="edge61" class="edge"><title>&#45;17&#45;&gt;0</title>
<path fill="none" stroke="red" stroke-width="0.425863" d="M487.981,-77.8312C492.374,-73.4532 498.374,-68.3999 504.802,-65.6985 659.159,-0.831469 720.327,-80.7021 879.802,-29.6985 880.856,-29.3614 881.914,-28.9732 882.967,-28.5456"/>
<polygon fill="red" stroke="red" stroke-width="0.425863" points="884.71,-31.5865 892.063,-23.9583 881.558,-25.3364 884.71,-31.5865"/>
</g>
<!-- &#45;17&#45;&gt;1 -->
<g id="edge62" class="edge"><title>&#45;17&#45;&gt;1</title>
<path fill="none" stroke="green" stroke-width="0.293607" d="M488.446,-77.531C492.812,-73.2847 498.636,-68.4561 504.802,-65.6985 563.602,-39.4034 760.88,-22.7837 830.895,-17.5953"/>
<polygon fill="green" stroke="green" stroke-width="0.293607" points="831.279,-21.0768 840.999,-16.8611 830.771,-14.0952 831.279,-21.0768"/>
</g>
<!-- &#45;17&#45;&gt;2 -->
<g id="edge63" class="edge"><title>&#45;17&#45;&gt;2</title>
<path fill="none" stroke="red" stroke-width="0.412235" d="M487.955,-77.7682C492.339,-73.3693 498.339,-68.316 504.802,-65.6985 717.881,20.5978 800.943,-96.87 1020.8,-29.6985 1021.86,-29.3752 1022.92,-28.9982 1023.98,-28.5798"/>
<polygon fill="red" stroke="red" stroke-width="0.412235" points="1025.71,-31.6291 1033.08,-24.026 1022.57,-25.3683 1025.71,-31.6291"/>
</g>
<!-- &#45;17&#45;&gt;3 -->
<g id="edge64" class="edge"><title>&#45;17&#45;&gt;3</title>
<path fill="none" stroke="red" stroke-width="0.30162" d="M487.97,-77.8051C492.359,-73.4185 498.359,-68.3652 504.802,-65.6985 591.97,-29.6197 834.405,-43.0023 927.802,-29.6985 942.638,-27.5851 959.098,-24.3176 972.219,-21.4871"/>
<polygon fill="red" stroke="red" stroke-width="0.30162" points="973.338,-24.8242 982.346,-19.2472 971.826,-17.9894 973.338,-24.8242"/>
</g>
<!-- &#45;18 -->
<g id="node18" class="node"><title>&#45;18</title>
<polygon fill="lightgray" stroke="black" points="542.302,-95.9117 513.302,-95.9117 513.302,-77.9117 542.302,-77.9117 542.302,-95.9117"/>
<text text-anchor="middle" x="527.802" y="-84.7117" font-family="Times New Roman,serif" font-size="9.00">&#45;18</text>
</g>
<!-- &#45;18&#45;&gt;0 -->
<g id="edge65" class="edge"><title>&#45;18&#45;&gt;0</title>
<path fill="none" stroke="green" stroke-width="0.136914" d="M534.995,-77.8639C539.392,-73.4969 545.392,-68.4436 551.802,-65.6985 686.612,-7.96313 740.426,-75.3218 879.802,-29.6985 880.682,-29.4104 881.566,-29.0873 882.447,-28.7362"/>
<polygon fill="green" stroke="green" stroke-width="0.136914" points="884.158,-31.7944 891.558,-24.2126 881.045,-25.5246 884.158,-31.7944"/>
</g>
<!-- &#45;18&#45;&gt;1 -->
<g id="edge66" class="edge"><title>&#45;18&#45;&gt;1</title>
<path fill="none" stroke="green" stroke-width="0.120375" d="M535.47,-77.5836C539.843,-73.3527 545.665,-68.5221 551.802,-65.6985 647.738,-21.5557 776.536,-15.8522 830.429,-15.5521"/>
<polygon fill="green" stroke="green" stroke-width="0.120375" points="830.751,-19.0522 840.753,-15.5582 830.755,-12.0522 830.751,-19.0522"/>
</g>
<!-- &#45;18&#45;&gt;2 -->
<g id="edge67" class="edge"><title>&#45;18&#45;&gt;2</title>
<path fill="none" stroke="red" stroke-width="0.428732" d="M534.962,-77.785C539.348,-73.3917 545.348,-68.3384 551.802,-65.6985 745.297,13.4508 821.081,-91.4776 1020.8,-29.6985 1021.86,-29.3715 1022.92,-28.9915 1023.98,-28.5706"/>
<polygon fill="red" stroke="red" stroke-width="0.428732" points="1025.71,-31.6177 1033.08,-24.0079 1022.57,-25.3598 1025.71,-31.6177"/>
</g>
<!-- &#45;18&#45;&gt;3 -->
<g id="edge68" class="edge"><title>&#45;18&#45;&gt;3</title>
<path fill="none" stroke="red" stroke-width="0.136207" d="M534.981,-77.8306C539.373,-73.4524 545.373,-68.3991 551.802,-65.6985 706.575,-0.679645 761.732,-54.2488 927.802,-29.6985 942.627,-27.5069 959.086,-24.2361 972.209,-21.4234"/>
<polygon fill="red" stroke="red" stroke-width="0.136207" points="973.321,-24.7628 982.34,-19.2022 971.822,-17.9253 973.321,-24.7628"/>
</g>
<!-- &#45;19 -->
<g id="node19" class="node"><title>&#45;19</title>
<polygon fill="lightgray" stroke="black" points="589.302,-95.9117 560.302,-95.9117 560.302,-77.9117 589.302,-77.9117 589.302,-95.9117"/>
<text text-anchor="middle" x="574.802" y="-84.7117" font-family="Times New Roman,serif" font-size="9.00">&#45;19</text>
</g>
<!-- &#45;19&#45;&gt;0 -->
<g id="edge69" class="edge"><title>&#45;19&#45;&gt;0</title>
<path fill="none" stroke="green" stroke-width="0.380208" d="M582.013,-77.9074C586.417,-73.5548 592.417,-68.5015 598.802,-65.6985 714.09,-15.0841 760.5,-69.9499 879.802,-29.6985 880.679,-29.4024 881.561,-29.0726 882.44,-28.7158"/>
<polygon fill="green" stroke="green" stroke-width="0.380208" points="884.163,-31.7676 891.543,-24.1656 881.033,-25.5063 884.163,-31.7676"/>
</g>
<!-- &#45;19&#45;&gt;1 -->
<g id="edge70" class="edge"><title>&#45;19&#45;&gt;1</title>
<path fill="none" stroke="green" stroke-width="0.310501" d="M582.503,-77.6545C586.886,-73.4443 592.707,-68.6109 598.802,-65.6985 677.745,-27.9755 783.286,-18.7979 830.784,-16.566"/>
<polygon fill="green" stroke="green" stroke-width="0.310501" points="830.936,-20.0628 840.787,-16.1606 830.653,-13.0685 830.936,-20.0628"/>
</g>
<!-- &#45;19&#45;&gt;2 -->
<g id="edge71" class="edge"><title>&#45;19&#45;&gt;2</title>
<path fill="none" stroke="green" stroke-width="0.474482" d="M581.97,-77.8056C586.359,-73.4191 592.359,-68.3658 598.802,-65.6985 772.722,6.30722 841.21,-86.088 1020.8,-29.6985 1021.86,-29.367 1022.92,-28.9833 1023.97,-28.5595"/>
<polygon fill="green" stroke="green" stroke-width="0.474482" points="1025.71,-31.6038 1033.07,-23.9858 1022.57,-25.3494 1025.71,-31.6038"/>
</g>
<!-- &#45;19&#45;&gt;3 -->
<g id="edge72" class="edge"><title>&#45;19&#45;&gt;3</title>
<path fill="none" stroke="red" stroke-width="0.209346" d="M581.994,-77.8631C586.392,-73.4959 592.392,-68.4426 598.802,-65.6985 734.028,-7.81148 782.437,-52.1941 927.802,-29.6985 942.612,-27.4066 959.07,-24.1317 972.197,-21.3418"/>
<polygon fill="red" stroke="red" stroke-width="0.209346" points="973.3,-24.6841 982.331,-19.1447 971.816,-17.8431 973.3,-24.6841"/>
</g>
<!-- &#45;20 -->
<g id="node20" class="node"><title>&#45;20</title>
<polygon fill="lightgray" stroke="black" points="636.302,-95.9117 607.302,-95.9117 607.302,-77.9117 636.302,-77.9117 636.302,-95.9117"/>
<text text-anchor="middle" x="621.802" y="-84.7117" font-family="Times New Roman,serif" font-size="9.00">&#45;20</text>
</g>
<!-- &#45;20&#45;&gt;0 -->
<g id="edge73" class="edge"><title>&#45;20&#45;&gt;0</title>
<path fill="none" stroke="red" stroke-width="0.348787" d="M629.459,-77.5594C633.829,-73.3214 639.652,-68.4917 645.802,-65.6985 741.608,-22.1877 780.532,-64.5919 879.802,-29.6985 880.676,-29.3914 881.554,-29.0522 882.43,-28.6874"/>
<polygon fill="red" stroke="red" stroke-width="0.348787" points="884.169,-31.7303 891.52,-24.1004 881.016,-25.481 884.169,-31.7303"/>
</g>
<!-- &#45;20&#45;&gt;1 -->
<g id="edge74" class="edge"><title>&#45;20&#45;&gt;1</title>
<path fill="none" stroke="green" stroke-width="0.512137" d="M629.552,-77.7548C633.949,-73.574 639.769,-68.7367 645.802,-65.6985 707.882,-34.4362 790.252,-22.3063 830.915,-17.9961"/>
<polygon fill="green" stroke="green" stroke-width="0.512137" points="831.393,-21.466 841,-16.999 830.704,-14.5 831.393,-21.466"/>
</g>
<!-- &#45;20&#45;&gt;2 -->
<g id="edge75" class="edge"><title>&#45;20&#45;&gt;2</title>
<path fill="none" stroke="green" stroke-width="0.138354" d="M628.981,-77.8312C633.374,-73.4532 639.374,-68.3999 645.802,-65.6985 800.159,-0.831469 861.327,-80.7021 1020.8,-29.6985 1021.86,-29.3614 1022.91,-28.9732 1023.97,-28.5456"/>
<polygon fill="green" stroke="green" stroke-width="0.138354" points="1025.71,-31.5865 1033.06,-23.9583 1022.56,-25.3364 1025.71,-31.5865"/>
</g>
<!-- &#45;20&#45;&gt;3 -->
<g id="edge76" class="edge"><title>&#45;20&#45;&gt;3</title>
<path fill="none" stroke="green" stroke-width="0.11875" d="M629.013,-77.9063C633.417,-73.5534 639.417,-68.5001 645.802,-65.6985 761.505,-14.9327 803.117,-50.1436 927.802,-29.6985 942.591,-27.2735 959.048,-23.993 972.18,-21.2335"/>
<polygon fill="green" stroke="green" stroke-width="0.11875" points="973.27,-24.5796 982.319,-19.0682 971.808,-17.734 973.27,-24.5796"/>
</g>
<!-- &#45;21 -->
<g id="node21" class="node"><title>&#45;21</title>
<polygon fill="lightgray" stroke="black" points="683.302,-95.9117 654.302,-95.9117 654.302,-77.9117 683.302,-77.9117 683.302,-95.9117"/>
<text text-anchor="middle" x="668.802" y="-84.7117" font-family="Times New Roman,serif" font-size="9.00">&#45;21</text>
</g>
<!-- &#45;21&#45;&gt;0 -->
<g id="edge77" class="edge"><title>&#45;21&#45;&gt;0</title>
<path fill="none" stroke="green" stroke-width="0.486234" d="M676.501,-77.6511C680.884,-73.4399 686.705,-68.6067 692.802,-65.6985 769.194,-29.2602 800.495,-59.2588 879.802,-29.6985 880.67,-29.3751 881.543,-29.022 882.415,-28.6455"/>
<polygon fill="green" stroke="green" stroke-width="0.486234" points="884.178,-31.6753 891.485,-24.0039 880.989,-25.4439 884.178,-31.6753"/>
</g>
<!-- &#45;21&#45;&gt;1 -->
<g id="edge78" class="edge"><title>&#45;21&#45;&gt;1</title>
<path fill="none" stroke="green" stroke-width="0.460397" d="M676.632,-77.9069C681.052,-73.7707 686.869,-68.9273 692.802,-65.6985 738.34,-40.9169 797.89,-26.7076 830.946,-20.2065"/>
<polygon fill="green" stroke="green" stroke-width="0.460397" points="831.904,-23.5874 841.082,-18.2931 830.606,-16.7089 831.904,-23.5874"/>
</g>
<!-- &#45;21&#45;&gt;2 -->
<g id="edge79" class="edge"><title>&#45;21&#45;&gt;2</title>
<path fill="none" stroke="green" stroke-width="0.105532" d="M675.995,-77.8639C680.392,-73.4969 686.392,-68.4436 692.802,-65.6985 827.612,-7.96313 881.426,-75.3218 1020.8,-29.6985 1021.68,-29.4104 1022.57,-29.0873 1023.45,-28.7362"/>
<polygon fill="green" stroke="green" stroke-width="0.105532" points="1025.16,-31.7944 1032.56,-24.2126 1022.04,-25.5246 1025.16,-31.7944"/>
</g>
<!-- &#45;21&#45;&gt;3 -->
<g id="edge80" class="edge"><title>&#45;21&#45;&gt;3</title>
<path fill="none" stroke="green" stroke-width="0.351371" d="M676.458,-77.5578C680.828,-73.3194 686.651,-68.4898 692.802,-65.6985 789.022,-22.0368 823.754,-48.1 927.802,-29.6985 942.559,-27.0886 959.015,-23.8004 972.154,-21.083"/>
<polygon fill="green" stroke="green" stroke-width="0.351371" points="973.228,-24.4341 982.301,-18.962 971.796,-17.5822 973.228,-24.4341"/>
</g>
<!-- &#45;22 -->
<g id="node22" class="node"><title>&#45;22</title>
<polygon fill="lightgray" stroke="black" points="1106.3,-95.9117 1077.3,-95.9117 1077.3,-77.9117 1106.3,-77.9117 1106.3,-95.9117"/>
<text text-anchor="middle" x="1091.8" y="-84.7117" font-family="Times New Roman,serif" font-size="9.00">&#45;22</text>
</g>
<!-- &#45;22&#45;&gt;0 -->
<g id="edge81" class="edge"><title>&#45;22&#45;&gt;0</title>
<path fill="none" stroke="green" stroke-width="0.225881" d="M1084.36,-77.8853C1080.14,-73.7428 1074.56,-68.9003 1068.8,-65.6985 1022.74,-40.1028 961.976,-26.1333 928.53,-19.9063"/>
<polygon fill="green" stroke="green" stroke-width="0.225881" points="928.754,-16.3912 918.296,-18.0857 927.528,-23.283 928.754,-16.3912"/>
</g>
<!-- &#45;22&#45;&gt;3 -->
<g id="edge82" class="edge"><title>&#45;22&#45;&gt;3</title>
<path fill="none" stroke="green" stroke-width="0.113177" d="M1083.05,-77.7945C1078.84,-74.0014 1073.66,-69.4953 1068.8,-65.6985 1052.19,-52.7211 1032.46,-39.1804 1017.85,-29.4921"/>
<polygon fill="green" stroke="green" stroke-width="0.113177" points="1019.36,-26.2942 1009.08,-23.7266 1015.52,-32.1439 1019.36,-26.2942"/>
</g>
<!-- &#45;23 -->
<g id="node23" class="node"><title>&#45;23</title>
<polygon fill="lightgray" stroke="black" points="730.302,-95.9117 701.302,-95.9117 701.302,-77.9117 730.302,-77.9117 730.302,-95.9117"/>
<text text-anchor="middle" x="715.802" y="-84.7117" font-family="Times New Roman,serif" font-size="9.00">&#45;23</text>
</g>
<!-- &#45;23&#45;&gt;0 -->
<g id="edge83" class="edge"><title>&#45;23&#45;&gt;0</title>
<path fill="none" stroke="green" stroke-width="0.405271" d="M723.575,-77.7995C727.979,-73.6318 733.797,-68.7927 739.802,-65.6985 796.912,-36.269 820.32,-53.9775 879.802,-29.6985 880.659,-29.3485 881.524,-28.9729 882.389,-28.5774"/>
<polygon fill="green" stroke="green" stroke-width="0.405271" points="884.188,-31.5861 891.424,-23.8472 880.941,-25.3845 884.188,-31.5861"/>
</g>
<!-- &#45;23&#45;&gt;1 -->
<g id="edge84" class="edge"><title>&#45;23&#45;&gt;1</title>
<path fill="none" stroke="green" stroke-width="0.392464" stroke-dasharray="1,5" d="M724.215,-77.7655C728.618,-73.7875 734.239,-69.1316 739.802,-65.6985 769.863,-47.1473 808.044,-32.1982 832.211,-23.6675"/>
<polygon fill="green" stroke="green" stroke-width="0.392464" points="833.633,-26.8793 841.947,-20.3112 831.352,-20.2615 833.633,-26.8793"/>
</g>
<!-- &#45;23&#45;&gt;2 -->
<g id="edge85" class="edge"><title>&#45;23&#45;&gt;2</title>
<path fill="none" stroke="green" stroke-width="0.783443" d="M723.013,-77.9074C727.417,-73.5548 733.417,-68.5015 739.802,-65.6985 855.09,-15.0841 901.5,-69.9499 1020.8,-29.6985 1021.68,-29.4024 1022.56,-29.0726 1023.44,-28.7158"/>
<polygon fill="green" stroke="green" stroke-width="0.783443" points="1025.16,-31.7676 1032.54,-24.1656 1022.03,-25.5063 1025.16,-31.7676"/>
</g>
<!-- &#45;23&#45;&gt;3 -->
<g id="edge86" class="edge"><title>&#45;23&#45;&gt;3</title>
<path fill="none" stroke="green" stroke-width="0.347869" d="M723.5,-77.6487C727.882,-73.4368 733.704,-68.6036 739.802,-65.6985 816.606,-29.1102 844.318,-46.0694 927.802,-29.6985 942.508,-26.8146 958.962,-23.515 972.113,-20.86"/>
<polygon fill="green" stroke="green" stroke-width="0.347869" points="973.164,-24.2183 982.271,-18.8047 971.776,-17.3573 973.164,-24.2183"/>
</g>
<!-- &#45;24 -->
<g id="node24" class="node"><title>&#45;24</title>
<polygon fill="lightgray" stroke="black" points="777.302,-95.9117 748.302,-95.9117 748.302,-77.9117 777.302,-77.9117 777.302,-95.9117"/>
<text text-anchor="middle" x="762.802" y="-84.7117" font-family="Times New Roman,serif" font-size="9.00">&#45;24</text>
</g>
<!-- &#45;24&#45;&gt;0 -->
<g id="edge87" class="edge"><title>&#45;24&#45;&gt;0</title>
<path fill="none" stroke="red" stroke-width="0.464352" stroke-dasharray="1,5" d="M771.163,-77.679C775.552,-73.6789 781.177,-69.0294 786.802,-65.6985 824.939,-43.1148 839.822,-48.8314 879.802,-29.6985 880.637,-29.2987 881.483,-28.8808 882.332,-28.4496"/>
<polygon fill="red" stroke="red" stroke-width="0.464352" points="884.196,-31.4194 891.294,-23.5531 880.84,-25.2765 884.196,-31.4194"/>
</g>
<!-- &#45;24&#45;&gt;1 -->
<g id="edge88" class="edge"><title>&#45;24&#45;&gt;1</title>
<path fill="none" stroke="red" stroke-width="0.326544" d="M772.015,-77.8767C776.426,-74.1016 781.821,-69.5868 786.802,-65.6985 802.856,-53.1666 821.622,-39.681 835.527,-29.9003"/>
<polygon fill="red" stroke="red" stroke-width="0.326544" points="837.696,-32.6543 843.885,-24.0552 833.684,-26.9178 837.696,-32.6543"/>
</g>
<!-- &#45;24&#45;&gt;2 -->
<g id="edge89" class="edge"><title>&#45;24&#45;&gt;2</title>
<path fill="none" stroke="red" stroke-width="0.119049" d="M770.459,-77.5594C774.829,-73.3214 780.652,-68.4917 786.802,-65.6985 882.608,-22.1877 921.532,-64.5919 1020.8,-29.6985 1021.68,-29.3914 1022.55,-29.0522 1023.43,-28.6874"/>
<polygon fill="red" stroke="red" stroke-width="0.119049" points="1025.17,-31.7303 1032.52,-24.1004 1022.02,-25.481 1025.17,-31.7303"/>
</g>
<!-- &#45;24&#45;&gt;3 -->
<g id="edge90" class="edge"><title>&#45;24&#45;&gt;3</title>
<path fill="none" stroke="green" stroke-width="0.40224" d="M770.552,-77.7548C774.949,-73.574 780.769,-68.7367 786.802,-65.6985 803.401,-57.3396 920.39,-31.9989 972.205,-21.0168"/>
<polygon fill="green" stroke="green" stroke-width="0.40224" points="973.152,-24.394 982.212,-18.9025 971.705,-17.5451 973.152,-24.394"/>
</g>
<!-- &#45;25 -->
<g id="node25" class="node"><title>&#45;25</title>
<polygon fill="lightgray" stroke="black" points="824.302,-95.9117 795.302,-95.9117 795.302,-77.9117 824.302,-77.9117 824.302,-95.9117"/>
<text text-anchor="middle" x="809.802" y="-84.7117" font-family="Times New Roman,serif" font-size="9.00">&#45;25</text>
</g>
<!-- &#45;25&#45;&gt;0 -->
<g id="edge91" class="edge"><title>&#45;25&#45;&gt;0</title>
<path fill="none" stroke="green" stroke-width="0.343332" d="M819.003,-77.8614C823.412,-74.083 828.808,-69.5698 833.802,-65.6985 850.053,-53.1022 869.093,-39.6216 883.21,-29.8591"/>
<polygon fill="green" stroke="green" stroke-width="0.343332" points="885.437,-32.5753 891.697,-24.0274 881.473,-26.806 885.437,-32.5753"/>
</g>
<!-- &#45;25&#45;&gt;1 -->
<g id="edge92" class="edge"><title>&#45;25&#45;&gt;1</title>
<path fill="none" stroke="green" stroke-width="0.124159" d="M815.079,-77.8746C821.699,-67.7908 833.291,-50.1351 842.419,-36.233"/>
<polygon fill="green" stroke="green" stroke-width="0.124159" points="845.421,-38.037 847.984,-27.7567 839.57,-34.1951 845.421,-38.037"/>
</g>
<!-- &#45;25&#45;&gt;2 -->
<g id="edge93" class="edge"><title>&#45;25&#45;&gt;2</title>
<path fill="none" stroke="red" stroke-width="0.188987" d="M817.501,-77.6511C821.884,-73.4399 827.705,-68.6067 833.802,-65.6985 910.194,-29.2602 941.495,-59.2588 1020.8,-29.6985 1021.67,-29.3751 1022.54,-29.022 1023.42,-28.6455"/>
<polygon fill="red" stroke="red" stroke-width="0.188987" points="1025.18,-31.6753 1032.49,-24.0039 1021.99,-25.4439 1025.18,-31.6753"/>
</g>
<!-- &#45;25&#45;&gt;3 -->
<g id="edge94" class="edge"><title>&#45;25&#45;&gt;3</title>
<path fill="none" stroke="green" stroke-width="0.12054" d="M817.632,-77.9069C822.052,-73.7707 827.869,-68.9273 833.802,-65.6985 879.34,-40.9169 938.89,-26.7076 971.946,-20.2065"/>
<polygon fill="green" stroke="green" stroke-width="0.12054" points="972.904,-23.5874 982.082,-18.2931 971.606,-16.7089 972.904,-23.5874"/>
</g>
<!-- &#45;26 -->
<g id="node26" class="node"><title>&#45;26</title>
<polygon fill="lightgray" stroke="black" points="871.302,-95.9117 842.302,-95.9117 842.302,-77.9117 871.302,-77.9117 871.302,-95.9117"/>
<text text-anchor="middle" x="856.802" y="-84.7117" font-family="Times New Roman,serif" font-size="9.00">&#45;26</text>
</g>
<!-- &#45;26&#45;&gt;0 -->
<g id="edge95" class="edge"><title>&#45;26&#45;&gt;0</title>
<path fill="none" stroke="green" stroke-width="0.39262" d="M862.193,-77.8746C868.998,-67.7318 880.941,-49.9283 890.291,-35.9895"/>
<polygon fill="green" stroke="green" stroke-width="0.39262" points="893.317,-37.7615 895.982,-27.5071 887.504,-33.8618 893.317,-37.7615"/>
</g>
<!-- &#45;26&#45;&gt;1 -->
<g id="edge96" class="edge"><title>&#45;26&#45;&gt;1</title>
<path fill="none" stroke="green" stroke-width="0.115555" d="M856.687,-77.8746C856.557,-68.7202 856.337,-53.3256 856.149,-40.1641"/>
<polygon fill="green" stroke="green" stroke-width="0.115555" points="859.644,-39.7687 856.001,-29.8197 852.645,-39.8686 859.644,-39.7687"/>
</g>
<!-- &#45;26&#45;&gt;2 -->
<g id="edge97" class="edge"><title>&#45;26&#45;&gt;2</title>
<path fill="none" stroke="green" stroke-width="0.387465" d="M864.575,-77.7995C868.979,-73.6318 874.797,-68.7927 880.802,-65.6985 937.912,-36.269 961.32,-53.9775 1020.8,-29.6985 1021.66,-29.3485 1022.52,-28.9729 1023.39,-28.5774"/>
<polygon fill="green" stroke="green" stroke-width="0.387465" points="1025.19,-31.5861 1032.42,-23.8472 1021.94,-25.3845 1025.19,-31.5861"/>
</g>
<!-- &#45;26&#45;&gt;3 -->
<g id="edge98" class="edge"><title>&#45;26&#45;&gt;3</title>
<path fill="none" stroke="green" stroke-width="0.148763" stroke-dasharray="1,5" d="M865.215,-77.7655C869.618,-73.7875 875.239,-69.1316 880.802,-65.6985 910.863,-47.1473 949.044,-32.1982 973.211,-23.6675"/>
<polygon fill="green" stroke="green" stroke-width="0.148763" points="974.633,-26.8793 982.947,-20.3112 972.352,-20.2615 974.633,-26.8793"/>
</g>
<!-- &#45;27 -->
<g id="node27" class="node"><title>&#45;27</title>
<polygon fill="lightgray" stroke="black" points="918.302,-95.9117 889.302,-95.9117 889.302,-77.9117 918.302,-77.9117 918.302,-95.9117"/>
<text text-anchor="middle" x="903.802" y="-84.7117" font-family="Times New Roman,serif" font-size="9.00">&#45;27</text>
</g>
<!-- &#45;27&#45;&gt;0 -->
<g id="edge99" class="edge"><title>&#45;27&#45;&gt;0</title>
<path fill="none" stroke="green" stroke-width="0.162378" d="M903.802,-77.8746C903.802,-68.7202 903.802,-53.3256 903.802,-40.1641"/>
<polygon fill="green" stroke="green" stroke-width="0.162378" points="907.302,-39.8196 903.802,-29.8197 900.302,-39.8197 907.302,-39.8196"/>
</g>
<!-- &#45;27&#45;&gt;1 -->
<g id="edge100" class="edge"><title>&#45;27&#45;&gt;1</title>
<path fill="none" stroke="red" stroke-width="0.334536" d="M898.296,-77.8746C891.347,-67.7318 879.15,-49.9283 869.6,-35.9895"/>
<polygon fill="red" stroke="red" stroke-width="0.334536" points="872.328,-33.7786 863.789,-27.5071 866.553,-37.7349 872.328,-33.7786"/>
</g>
<!-- &#45;27&#45;&gt;2 -->
<g id="edge101" class="edge"><title>&#45;27&#45;&gt;2</title>
<path fill="none" stroke="red" stroke-width="0.614392" d="M912.163,-77.679C916.552,-73.6789 922.177,-69.0294 927.802,-65.6985 965.939,-43.1148 980.822,-48.8314 1020.8,-29.6985 1021.64,-29.2987 1022.48,-28.8808 1023.33,-28.4496"/>
<polygon fill="red" stroke="red" stroke-width="0.614392" points="1025.2,-31.4194 1032.29,-23.5531 1021.84,-25.2765 1025.2,-31.4194"/>
</g>
<!-- &#45;27&#45;&gt;3 -->
<g id="edge102" class="edge"><title>&#45;27&#45;&gt;3</title>
<path fill="none" stroke="green" stroke-width="0.444599" d="M913.015,-77.8767C917.426,-74.1016 922.821,-69.5868 927.802,-65.6985 943.856,-53.1666 962.622,-39.681 976.527,-29.9003"/>
<polygon fill="green" stroke="green" stroke-width="0.444599" points="978.696,-32.6543 984.885,-24.0552 974.684,-26.9178 978.696,-32.6543"/>
</g>
<!-- &#45;28 -->
<g id="node28" class="node"><title>&#45;28</title>
<polygon fill="lightgray" stroke="black" points="965.302,-95.9117 936.302,-95.9117 936.302,-77.9117 965.302,-77.9117 965.302,-95.9117"/>
<text text-anchor="middle" x="950.802" y="-84.7117" font-family="Times New Roman,serif" font-size="9.00">&#45;28</text>
</g>
<!-- &#45;28&#45;&gt;0 -->
<g id="edge103" class="edge"><title>&#45;28&#45;&gt;0</title>
<path fill="none" stroke="green" stroke-width="0.367857" d="M945.41,-77.8746C938.606,-67.7318 926.663,-49.9283 917.313,-35.9895"/>
<polygon fill="green" stroke="green" stroke-width="0.367857" points="920.1,-33.8618 911.622,-27.5071 914.287,-37.7615 920.1,-33.8618"/>
</g>
<!-- &#45;28&#45;&gt;1 -->
<g id="edge104" class="edge"><title>&#45;28&#45;&gt;1</title>
<path fill="none" stroke="red" stroke-width="0.145624" d="M942.049,-77.7945C937.839,-74.0014 932.661,-69.4953 927.802,-65.6985 911.194,-52.7211 891.459,-39.1804 876.854,-29.4921"/>
<polygon fill="red" stroke="red" stroke-width="0.145624" points="878.361,-26.2942 868.082,-23.7266 874.516,-32.1439 878.361,-26.2942"/>
</g>
<!-- &#45;28&#45;&gt;2 -->
<g id="edge105" class="edge"><title>&#45;28&#45;&gt;2</title>
<path fill="none" stroke="red" stroke-width="0.397238" d="M960.003,-77.8614C964.412,-74.083 969.808,-69.5698 974.802,-65.6985 991.053,-53.1022 1010.09,-39.6216 1024.21,-29.8591"/>
<polygon fill="red" stroke="red" stroke-width="0.397238" points="1026.44,-32.5753 1032.7,-24.0274 1022.47,-26.806 1026.44,-32.5753"/>
</g>
<!-- &#45;28&#45;&gt;3 -->
<g id="edge106" class="edge"><title>&#45;28&#45;&gt;3</title>
<path fill="none" stroke="red" stroke-width="0.389206" d="M956.079,-77.8746C962.699,-67.7908 974.291,-50.1351 983.419,-36.233"/>
<polygon fill="red" stroke="red" stroke-width="0.389206" points="986.421,-38.037 988.984,-27.7567 980.57,-34.1951 986.421,-38.037"/>
</g>
<!-- &#45;29 -->
<g id="node29" class="node"><title>&#45;29</title>
<polygon fill="lightgray" stroke="black" points="1735.3,-95.9117 1706.3,-95.9117 1706.3,-77.9117 1735.3,-77.9117 1735.3,-95.9117"/>
<text text-anchor="middle" x="1720.8" y="-84.7117" font-family="Times New Roman,serif" font-size="9.00">&#45;29</text>
</g>
<!-- &#45;29&#45;&gt;1 -->
<g id="edge107" class="edge"><title>&#45;29&#45;&gt;1</title>
<path fill="none" stroke="red" stroke-width="0.102989" d="M1713.67,-77.7059C1709.3,-73.2863 1703.3,-68.233 1696.8,-65.6985 1527.5,0.356679 1054.27,-80.5678 879.802,-29.6985 878.74,-29.3888 877.675,-29.0229 876.616,-28.6135"/>
<polygon fill="red" stroke="red" stroke-width="0.102989" points="878.014,-25.4 867.5,-24.0929 874.904,-31.6713 878.014,-25.4"/>
</g>
<!-- &#45;29&#45;&gt;2 -->
<g id="edge108" class="edge"><title>&#45;29&#45;&gt;2</title>
<path fill="none" stroke="green" stroke-width="0.143213" d="M1713.64,-77.7843C1709.26,-73.3907 1703.26,-68.3374 1696.8,-65.6985 1580.09,-17.9779 1175,-15.5402 1069.88,-15.7303"/>
<polygon fill="green" stroke="green" stroke-width="0.143213" points="1069.86,-12.2302 1059.87,-15.7584 1069.88,-19.2302 1069.86,-12.2302"/>
</g>
<!-- &#45;29&#45;&gt;3 -->
<g id="edge109" class="edge"><title>&#45;29&#45;&gt;3</title>
<path fill="none" stroke="red" stroke-width="0.107776" d="M1713.67,-77.7283C1709.29,-73.316 1703.29,-68.2627 1696.8,-65.6985 1556.91,-10.377 1165.03,-72.4691 1020.8,-29.6985 1019.74,-29.3839 1018.68,-29.0141 1017.62,-28.6014"/>
<polygon fill="red" stroke="red" stroke-width="0.107776" points="1019.02,-25.3887 1008.51,-24.0689 1015.9,-31.6562 1019.02,-25.3887"/>
</g>
<!-- &#45;30 -->
<g id="node30" class="node"><title>&#45;30</title>
<polygon fill="lightgray" stroke="black" points="1012.3,-95.9117 983.302,-95.9117 983.302,-77.9117 1012.3,-77.9117 1012.3,-95.9117"/>
<text text-anchor="middle" x="997.802" y="-84.7117" font-family="Times New Roman,serif" font-size="9.00">&#45;30</text>
</g>
<!-- &#45;30&#45;&gt;0 -->
<g id="edge110" class="edge"><title>&#45;30&#45;&gt;0</title>
<path fill="none" stroke="green" stroke-width="0.138989" d="M989.038,-77.8088C984.825,-74.0188 979.649,-69.5112 974.802,-65.6985 958.392,-52.7888 938.933,-39.2424 924.541,-29.5348"/>
<polygon fill="green" stroke="green" stroke-width="0.138989" points="926.156,-26.4042 915.897,-23.7551 922.265,-32.2232 926.156,-26.4042"/>
</g>
<!-- &#45;30&#45;&gt;1 -->
<g id="edge111" class="edge"><title>&#45;30&#45;&gt;1</title>
<path fill="none" stroke="green" stroke-width="0.148264" d="M989.853,-77.6432C985.663,-73.634 980.268,-68.987 974.802,-65.6985 936.112,-42.4217 920.599,-49.0449 879.802,-29.6985 878.965,-29.3017 878.119,-28.8863 877.268,-28.4573"/>
<polygon fill="green" stroke="green" stroke-width="0.148264" points="878.758,-25.2828 868.302,-23.5706 875.408,-31.4293 878.758,-25.2828"/>
</g>
<!-- &#45;30&#45;&gt;2 -->
<g id="edge112" class="edge"><title>&#45;30&#45;&gt;2</title>
<path fill="none" stroke="red" stroke-width="0.278778" d="M1003.19,-77.8746C1010,-67.7318 1021.94,-49.9283 1031.29,-35.9895"/>
<polygon fill="red" stroke="red" stroke-width="0.278778" points="1034.32,-37.7615 1036.98,-27.5071 1028.5,-33.8618 1034.32,-37.7615"/>
</g>
<!-- &#45;30&#45;&gt;3 -->
<g id="edge113" class="edge"><title>&#45;30&#45;&gt;3</title>
<path fill="none" stroke="green" stroke-width="0.310805" d="M997.687,-77.8746C997.557,-68.7202 997.337,-53.3256 997.149,-40.1641"/>
<polygon fill="green" stroke="green" stroke-width="0.310805" points="1000.64,-39.7687 997.001,-29.8197 993.645,-39.8686 1000.64,-39.7687"/>
</g>
<!-- &#45;31 -->
<g id="node31" class="node"><title>&#45;31</title>
<polygon fill="lightgray" stroke="black" points="1059.3,-95.9117 1030.3,-95.9117 1030.3,-77.9117 1059.3,-77.9117 1059.3,-95.9117"/>
<text text-anchor="middle" x="1044.8" y="-84.7117" font-family="Times New Roman,serif" font-size="9.00">&#45;31</text>
</g>
<!-- &#45;31&#45;&gt;0 -->
<g id="edge114" class="edge"><title>&#45;31&#45;&gt;0</title>
<path fill="none" stroke="red" stroke-width="0.474709" d="M1036.8,-77.7294C1032.6,-73.7422 1027.21,-69.0889 1021.8,-65.6985 991.308,-46.5652 952.198,-31.6974 927.56,-23.3508"/>
<polygon fill="red" stroke="red" stroke-width="0.474709" points="928.548,-19.9912 917.955,-20.1796 926.353,-26.6383 928.548,-19.9912"/>
</g>
<!-- &#45;31&#45;&gt;1 -->
<g id="edge115" class="edge"><title>&#45;31&#45;&gt;1</title>
<path fill="none" stroke="green" stroke-width="0.572001" d="M1037.42,-77.781C1033.21,-73.6079 1027.63,-68.7695 1021.8,-65.6985 964.192,-35.3652 940.123,-54.2005 879.802,-29.6985 878.944,-29.35 878.079,-28.9756 877.214,-28.5812"/>
<polygon fill="green" stroke="green" stroke-width="0.572001" points="878.66,-25.3877 868.177,-23.8558 875.417,-31.591 878.66,-25.3877"/>
</g>
<!-- &#45;31&#45;&gt;2 -->
<g id="edge116" class="edge"><title>&#45;31&#45;&gt;2</title>
<path fill="none" stroke="red" stroke-width="0.149864" d="M1044.8,-77.8746C1044.8,-68.7202 1044.8,-53.3256 1044.8,-40.1641"/>
<polygon fill="red" stroke="red" stroke-width="0.149864" points="1048.3,-39.8196 1044.8,-29.8197 1041.3,-39.8197 1048.3,-39.8196"/>
</g>
<!-- &#45;31&#45;&gt;3 -->
<g id="edge117" class="edge"><title>&#45;31&#45;&gt;3</title>
<path fill="none" stroke="green" stroke-width="0.257712" d="M1039.3,-77.8746C1032.35,-67.7318 1020.15,-49.9283 1010.6,-35.9895"/>
<polygon fill="green" stroke="green" stroke-width="0.257712" points="1013.33,-33.7786 1004.79,-27.5071 1007.55,-37.7349 1013.33,-33.7786"/>
</g>
<!-- &#45;32 -->
<g id="node32" class="node"><title>&#45;32</title>
<polygon fill="lightgray" stroke="black" points="1153.3,-95.9117 1124.3,-95.9117 1124.3,-77.9117 1153.3,-77.9117 1153.3,-95.9117"/>
<text text-anchor="middle" x="1138.8" y="-84.7117" font-family="Times New Roman,serif" font-size="9.00">&#45;32</text>
</g>
<!-- &#45;32&#45;&gt;0 -->
<g id="edge118" class="edge"><title>&#45;32&#45;&gt;0</title>
<path fill="none" stroke="green" stroke-width="0.179363" d="M1131.44,-77.7406C1127.24,-73.5556 1121.66,-68.7188 1115.8,-65.6985 1099.09,-57.0859 980.425,-31.7751 928.279,-20.9045"/>
<polygon fill="green" stroke="green" stroke-width="0.179363" points="928.725,-17.4224 918.222,-18.8152 927.301,-24.2761 928.725,-17.4224"/>
</g>
<!-- &#45;32&#45;&gt;1 -->
<g id="edge119" class="edge"><title>&#45;32&#45;&gt;1</title>
<path fill="none" stroke="red" stroke-width="0.218977" d="M1131.53,-77.5528C1127.36,-73.3128 1121.78,-68.4834 1115.8,-65.6985 1019.63,-20.8718 979.923,-64.8195 879.802,-29.6985 878.928,-29.392 878.05,-29.0532 877.173,-28.6888"/>
<polygon fill="red" stroke="red" stroke-width="0.218977" points="878.588,-25.4822 868.083,-24.1037 875.435,-31.7322 878.588,-25.4822"/>
</g>
<!-- &#45;32&#45;&gt;2 -->
<g id="edge120" class="edge"><title>&#45;32&#45;&gt;2</title>
<path fill="none" stroke="red" stroke-width="0.130085" d="M1130.04,-77.8088C1125.83,-74.0188 1120.65,-69.5112 1115.8,-65.6985 1099.39,-52.7888 1079.93,-39.2424 1065.54,-29.5348"/>
<polygon fill="red" stroke="red" stroke-width="0.130085" points="1067.16,-26.4042 1056.9,-23.7551 1063.26,-32.2232 1067.16,-26.4042"/>
</g>
<!-- &#45;32&#45;&gt;3 -->
<g id="edge121" class="edge"><title>&#45;32&#45;&gt;3</title>
<path fill="none" stroke="red" stroke-width="0.342017" d="M1130.85,-77.6432C1126.66,-73.634 1121.27,-68.987 1115.8,-65.6985 1077.11,-42.4217 1061.6,-49.0449 1020.8,-29.6985 1019.97,-29.3017 1019.12,-28.8863 1018.27,-28.4573"/>
<polygon fill="red" stroke="red" stroke-width="0.342017" points="1019.76,-25.2828 1009.3,-23.5706 1016.41,-31.4293 1019.76,-25.2828"/>
</g>
<!-- &#45;33 -->
<g id="node33" class="node"><title>&#45;33</title>
<polygon fill="lightgray" stroke="black" points="1200.3,-95.9117 1171.3,-95.9117 1171.3,-77.9117 1200.3,-77.9117 1200.3,-95.9117"/>
<text text-anchor="middle" x="1185.8" y="-84.7117" font-family="Times New Roman,serif" font-size="9.00">&#45;33</text>
</g>
<!-- &#45;33&#45;&gt;0 -->
<g id="edge122" class="edge"><title>&#45;33&#45;&gt;0</title>
<path fill="none" stroke="red" stroke-width="0.277301" d="M1178.49,-77.6379C1174.31,-73.4229 1168.73,-68.5901 1162.8,-65.6985 1085.57,-27.9956 1057.16,-46.1554 972.802,-29.6985 958.093,-26.8289 941.639,-23.5299 928.489,-20.8716"/>
<polygon fill="red" stroke="red" stroke-width="0.277301" points="928.827,-17.369 918.331,-18.8129 927.437,-24.2295 928.827,-17.369"/>
</g>
<!-- &#45;33&#45;&gt;1 -->
<g id="edge123" class="edge"><title>&#45;33&#45;&gt;1</title>
<path fill="none" stroke="red" stroke-width="0.485941" d="M1178.95,-77.9035C1174.75,-73.5497 1169,-68.4964 1162.8,-65.6985 1047.23,-13.5627 999.958,-70.1783 879.802,-29.6985 878.924,-29.4028 878.043,-29.0733 877.164,-28.7168"/>
<polygon fill="red" stroke="red" stroke-width="0.485941" points="878.571,-25.5072 868.061,-24.1679 875.441,-31.7689 878.571,-25.5072"/>
</g>
<!-- &#45;33&#45;&gt;2 -->
<g id="edge124" class="edge"><title>&#45;33&#45;&gt;2</title>
<path fill="none" stroke="green" stroke-width="0.429864" d="M1177.8,-77.7294C1173.6,-73.7422 1168.21,-69.0889 1162.8,-65.6985 1132.31,-46.5652 1093.2,-31.6974 1068.56,-23.3508"/>
<polygon fill="green" stroke="green" stroke-width="0.429864" points="1069.55,-19.9912 1058.95,-20.1796 1067.35,-26.6383 1069.55,-19.9912"/>
</g>
<!-- &#45;33&#45;&gt;3 -->
<g id="edge125" class="edge"><title>&#45;33&#45;&gt;3</title>
<path fill="none" stroke="red" stroke-width="0.211179" d="M1178.42,-77.781C1174.21,-73.6079 1168.63,-68.7695 1162.8,-65.6985 1105.19,-35.3652 1081.12,-54.2005 1020.8,-29.6985 1019.94,-29.35 1019.08,-28.9756 1018.21,-28.5812"/>
<polygon fill="red" stroke="red" stroke-width="0.211179" points="1019.66,-25.3877 1009.18,-23.8558 1016.42,-31.591 1019.66,-25.3877"/>
</g>
<!-- &#45;34 -->
<g id="node34" class="node"><title>&#45;34</title>
<polygon fill="lightgray" stroke="black" points="1247.3,-95.9117 1218.3,-95.9117 1218.3,-77.9117 1247.3,-77.9117 1247.3,-95.9117"/>
<text text-anchor="middle" x="1232.8" y="-84.7117" font-family="Times New Roman,serif" font-size="9.00">&#45;34</text>
</g>
<!-- &#45;34&#45;&gt;0 -->
<g id="edge126" class="edge"><title>&#45;34&#45;&gt;0</title>
<path fill="none" stroke="green" stroke-width="0.479679" d="M1225.53,-77.5513C1221.36,-73.3109 1215.78,-68.4815 1209.8,-65.6985 1113.22,-20.7165 1077.73,-48.1868 972.802,-29.6985 958.043,-27.0979 941.587,-23.8101 928.449,-21.0906"/>
<polygon fill="green" stroke="green" stroke-width="0.479679" points="928.807,-17.5899 918.302,-18.9674 927.373,-24.4415 928.807,-17.5899"/>
</g>
<!-- &#45;34&#45;&gt;1 -->
<g id="edge127" class="edge"><title>&#45;34&#45;&gt;1</title>
<path fill="none" stroke="green" stroke-width="0.279274" d="M1225.97,-77.8619C1221.78,-73.4942 1216.03,-68.4409 1209.8,-65.6985 1074.78,-6.23614 1020.03,-75.5506 879.802,-29.6985 878.922,-29.4107 878.038,-29.0879 877.157,-28.7369"/>
<polygon fill="green" stroke="green" stroke-width="0.279274" points="878.559,-25.5253 868.045,-24.2143 875.446,-31.7954 878.559,-25.5253"/>
</g>
<!-- &#45;34&#45;&gt;2 -->
<g id="edge128" class="edge"><title>&#45;34&#45;&gt;2</title>
<path fill="none" stroke="red" stroke-width="0.148402" d="M1225.36,-77.8853C1221.14,-73.7428 1215.56,-68.9003 1209.8,-65.6985 1163.74,-40.1028 1102.98,-26.1333 1069.53,-19.9063"/>
<polygon fill="red" stroke="red" stroke-width="0.148402" points="1069.75,-16.3912 1059.3,-18.0857 1068.53,-23.283 1069.75,-16.3912"/>
</g>
<!-- &#45;34&#45;&gt;3 -->
<g id="edge129" class="edge"><title>&#45;34&#45;&gt;3</title>
<path fill="none" stroke="red" stroke-width="0.215612" d="M1225.49,-77.6402C1221.31,-73.4259 1215.72,-68.593 1209.8,-65.6985 1132.98,-28.1499 1100.96,-59.485 1020.8,-29.6985 1019.93,-29.3759 1019.06,-29.0235 1018.19,-28.6477"/>
<polygon fill="red" stroke="red" stroke-width="0.215612" points="1019.61,-25.4458 1009.12,-24.0089 1016.43,-31.6781 1019.61,-25.4458"/>
</g>
<!-- &#45;35 -->
<g id="node35" class="node"><title>&#45;35</title>
<polygon fill="lightgray" stroke="black" points="128.302,-95.9117 99.302,-95.9117 99.302,-77.9117 128.302,-77.9117 128.302,-95.9117"/>
<text text-anchor="middle" x="113.802" y="-84.7117" font-family="Times New Roman,serif" font-size="9.00">&#45;35</text>
</g>
<!-- &#45;35&#45;&gt;0 -->
<g id="edge130" class="edge"><title>&#45;35&#45;&gt;0</title>
<path fill="none" stroke="red" stroke-width="0.268957" d="M120.934,-77.7168C125.312,-73.3007 131.312,-68.2474 137.802,-65.6985 291.46,-5.35319 721.421,-76.2596 879.802,-29.6985 880.864,-29.3864 881.928,-29.0186 882.986,-28.6077"/>
<polygon fill="red" stroke="red" stroke-width="0.268957" points="884.701,-31.664 892.101,-24.0813 881.588,-25.3945 884.701,-31.664"/>
</g>
<!-- &#45;35&#45;&gt;1 -->
<g id="edge131" class="edge"><title>&#45;35&#45;&gt;1</title>
<path fill="none" stroke="green" stroke-width="0.300367" d="M120.954,-77.7674C125.339,-73.3682 131.339,-68.3149 137.802,-65.6985 267.276,-13.2875 718.223,-14.4003 830.39,-15.5233"/>
<polygon fill="green" stroke="green" stroke-width="0.300367" points="830.684,-19.0266 840.722,-15.6368 830.761,-12.027 830.684,-19.0266"/>
</g>
<!-- &#45;35&#45;&gt;3 -->
<g id="edge132" class="edge"><title>&#45;35&#45;&gt;3</title>
<path fill="none" stroke="green" stroke-width="0.370798" d="M120.931,-77.7096C125.308,-73.2911 131.308,-68.2378 137.802,-65.6985 301.472,-1.69898 753.366,-51.0522 927.802,-29.6985 942.772,-27.8659 959.348,-24.5807 972.5,-21.6698"/>
<polygon fill="green" stroke="green" stroke-width="0.370798" points="973.665,-24.9939 982.633,-19.3528 972.104,-18.1701 973.665,-24.9939"/>
</g>
<!-- &#45;36 -->
<g id="node36" class="node"><title>&#45;36</title>
<polygon fill="lightgray" stroke="black" points="1294.3,-95.9117 1265.3,-95.9117 1265.3,-77.9117 1294.3,-77.9117 1294.3,-95.9117"/>
<text text-anchor="middle" x="1279.8" y="-84.7117" font-family="Times New Roman,serif" font-size="9.00">&#45;36</text>
</g>
<!-- &#45;36&#45;&gt;0 -->
<g id="edge133" class="edge"><title>&#45;36&#45;&gt;0</title>
<path fill="none" stroke="red" stroke-width="0.385341" d="M1272.95,-77.9025C1268.76,-73.5483 1263.01,-68.495 1256.8,-65.6985 1140.81,-13.4069 1098.37,-50.2307 972.802,-29.6985 958.012,-27.2801 941.555,-23.9998 928.423,-21.2388"/>
<polygon fill="red" stroke="red" stroke-width="0.385341" points="928.795,-17.7393 918.285,-19.072 927.332,-24.5847 928.795,-17.7393"/>
</g>
<!-- &#45;36&#45;&gt;1 -->
<g id="edge134" class="edge"><title>&#45;36&#45;&gt;1</title>
<path fill="none" stroke="green" stroke-width="0.193927" d="M1272.99,-77.8304C1268.8,-73.4522 1263.05,-68.3989 1256.8,-65.6985 1102.31,1.10111 1040.13,-80.9312 879.802,-29.6985 878.748,-29.3617 877.69,-28.9736 876.636,-28.5463"/>
<polygon fill="green" stroke="green" stroke-width="0.193927" points="878.045,-25.337 867.541,-23.9596 874.894,-31.5873 878.045,-25.337"/>
</g>
<!-- &#45;36&#45;&gt;2 -->
<g id="edge135" class="edge"><title>&#45;36&#45;&gt;2</title>
<path fill="none" stroke="green" stroke-width="0.596568" d="M1272.44,-77.7406C1268.24,-73.5556 1262.66,-68.7188 1256.8,-65.6985 1194.31,-33.4838 1110.75,-21.7675 1069.7,-17.7677"/>
<polygon fill="green" stroke="green" stroke-width="0.596568" points="1069.8,-14.263 1059.53,-16.8523 1069.17,-21.2348 1069.8,-14.263"/>
</g>
<!-- &#45;36&#45;&gt;3 -->
<g id="edge136" class="edge"><title>&#45;36&#45;&gt;3</title>
<path fill="none" stroke="red" stroke-width="0.181117" d="M1272.53,-77.5528C1268.36,-73.3128 1262.78,-68.4834 1256.8,-65.6985 1160.63,-20.8718 1120.92,-64.8195 1020.8,-29.6985 1019.93,-29.392 1019.05,-29.0532 1018.17,-28.6888"/>
<polygon fill="red" stroke="red" stroke-width="0.181117" points="1019.59,-25.4822 1009.08,-24.1037 1016.44,-31.7322 1019.59,-25.4822"/>
</g>
<!-- &#45;37 -->
<g id="node37" class="node"><title>&#45;37</title>
<polygon fill="lightgray" stroke="black" points="1341.3,-95.9117 1312.3,-95.9117 1312.3,-77.9117 1341.3,-77.9117 1341.3,-95.9117"/>
<text text-anchor="middle" x="1326.8" y="-84.7117" font-family="Times New Roman,serif" font-size="9.00">&#45;37</text>
</g>
<!-- &#45;37&#45;&gt;0 -->
<g id="edge137" class="edge"><title>&#45;37&#45;&gt;0</title>
<path fill="none" stroke="red" stroke-width="0.590113" d="M1319.97,-77.8611C1315.78,-73.4932 1310.03,-68.4399 1303.8,-65.6985 1168.36,-6.08013 1119.05,-52.2815 972.802,-29.6985 957.991,-27.4114 941.533,-24.1367 928.406,-21.3457"/>
<polygon fill="red" stroke="red" stroke-width="0.590113" points="928.787,-17.847 918.273,-19.1474 927.303,-24.6879 928.787,-17.847"/>
</g>
<!-- &#45;37&#45;&gt;1 -->
<g id="edge138" class="edge"><title>&#45;37&#45;&gt;1</title>
<path fill="none" stroke="green" stroke-width="0.179566" d="M1320,-77.8058C1315.81,-73.4194 1310.06,-68.3661 1303.8,-65.6985 1129.82,8.44546 1060.25,-86.3172 879.802,-29.6985 878.746,-29.3672 877.687,-28.9837 876.632,-28.56"/>
<polygon fill="green" stroke="green" stroke-width="0.179566" points="878.039,-25.3498 867.532,-23.9869 874.895,-31.6045 878.039,-25.3498"/>
</g>
<!-- &#45;37&#45;&gt;2 -->
<g id="edge139" class="edge"><title>&#45;37&#45;&gt;2</title>
<path fill="none" stroke="green" stroke-width="0.496357" d="M1319.48,-77.6447C1315.3,-73.4317 1309.72,-68.5987 1303.8,-65.6985 1224.45,-26.8217 1117.57,-18.2304 1069.74,-16.3566"/>
<polygon fill="green" stroke="green" stroke-width="0.496357" points="1069.79,-12.8565 1059.68,-16.0299 1069.56,-19.8528 1069.79,-12.8565"/>
</g>
<!-- &#45;37&#45;&gt;3 -->
<g id="edge140" class="edge"><title>&#45;37&#45;&gt;3</title>
<path fill="none" stroke="red" stroke-width="0.608356" d="M1319.95,-77.9035C1315.75,-73.5497 1310,-68.4964 1303.8,-65.6985 1188.23,-13.5627 1140.96,-70.1783 1020.8,-29.6985 1019.92,-29.4028 1019.04,-29.0733 1018.16,-28.7168"/>
<polygon fill="red" stroke="red" stroke-width="0.608356" points="1019.57,-25.5072 1009.06,-24.1679 1016.44,-31.7689 1019.57,-25.5072"/>
</g>
<!-- &#45;38 -->
<g id="node38" class="node"><title>&#45;38</title>
<polygon fill="lightgray" stroke="black" points="1778.3,-162.125 1749.3,-162.125 1749.3,-144.125 1778.3,-144.125 1778.3,-162.125"/>
<text text-anchor="middle" x="1763.8" y="-150.925" font-family="Times New Roman,serif" font-size="9.00">&#45;38</text>
</g>
<!-- &#45;38&#45;&gt;0 -->
<g id="edge141" class="edge"><title>&#45;38&#45;&gt;0</title>
<path fill="none" stroke="red" stroke-width="0.499333" d="M1749.1,-152.024C1586.04,-150.866 120.452,-139.591 89.802,-108.125 76.645,-94.6175 76.7757,-79.3319 89.802,-65.6985 150.504,-2.16734 795.464,-54.3576 879.802,-29.6985 880.864,-29.388 881.929,-29.0215 882.988,-28.6115"/>
<polygon fill="red" stroke="red" stroke-width="0.499333" points="884.701,-31.6688 892.103,-24.089 881.589,-25.3982 884.701,-31.6688"/>
</g>
<!-- &#45;38&#45;&gt;1 -->
<g id="edge142" class="edge"><title>&#45;38&#45;&gt;1</title>
<path fill="none" stroke="red" stroke-width="0.182615" stroke-dasharray="1,5" d="M1749.19,-152.042C1582.31,-151.062 41.9855,-141.126 9.80199,-108.125 -3.3631,-94.6254 -3.13326,-79.4184 9.80199,-65.6985 38.7009,-35.0466 693.2,-19.3376 830.628,-16.3708"/>
<polygon fill="red" stroke="red" stroke-width="0.182615" points="831.044,-19.8629 840.967,-16.1508 830.895,-12.8644 831.044,-19.8629"/>
</g>
<!-- &#45;38&#45;&gt;2 -->
<g id="edge143" class="edge"><title>&#45;38&#45;&gt;2</title>
<path fill="none" stroke="green" stroke-width="0.202658" stroke-dasharray="1,5" d="M1778.31,-150.703C1816.45,-146.634 1917.99,-133.571 1937.8,-108.125 1949.39,-93.2467 1950.76,-79.3983 1937.8,-65.6985 1907.16,-33.2955 1212.1,-18.9003 1070.03,-16.2912"/>
<polygon fill="green" stroke="green" stroke-width="0.202658" points="1069.79,-12.7864 1059.73,-16.1051 1069.66,-19.7853 1069.79,-12.7864"/>
</g>
<!-- &#45;38&#45;&gt;3 -->
<g id="edge144" class="edge"><title>&#45;38&#45;&gt;3</title>
<path fill="none" stroke="green" stroke-width="0.331807" d="M1764.87,-144.115C1766.68,-126.715 1768.14,-85.4413 1744.8,-65.6985 1683.3,-13.6851 1098.06,-52.4621 1020.8,-29.6985 1019.74,-29.3858 1018.68,-29.0175 1017.62,-28.6061"/>
<polygon fill="green" stroke="green" stroke-width="0.331807" points="1019.02,-25.393 1008.5,-24.0781 1015.9,-31.662 1019.02,-25.393"/>
</g>
<!-- 648 -->
<g id="node45" class="node"><title>648</title>
<ellipse fill="white" stroke="black" cx="1907.8" cy="-86.9117" rx="21.4286" ry="21.4286"/>
<text text-anchor="middle" x="1907.8" y="-84.7117" font-family="Times New Roman,serif" font-size="9.00">648</text>
</g>
<!-- &#45;38&#45;&gt;648 -->
<g id="edge153" class="edge"><title>&#45;38&#45;&gt;648</title>
<path fill="none" stroke="green" stroke-width="0.183703" d="M1778.66,-147.579C1800.86,-140.522 1843.75,-125.878 1877.8,-108.125 1879.33,-107.326 1880.88,-106.466 1882.43,-105.567"/>
<polygon fill="green" stroke="green" stroke-width="0.183703" points="1884.46,-108.42 1891.08,-100.143 1880.75,-102.49 1884.46,-108.42"/>
</g>
<!-- &#45;39 -->
<g id="node39" class="node"><title>&#45;39</title>
<polygon fill="lightgray" stroke="black" points="1388.3,-95.9117 1359.3,-95.9117 1359.3,-77.9117 1388.3,-77.9117 1388.3,-95.9117"/>
<text text-anchor="middle" x="1373.8" y="-84.7117" font-family="Times New Roman,serif" font-size="9.00">&#45;39</text>
</g>
<!-- &#45;39&#45;&gt;0 -->
<g id="edge145" class="edge"><title>&#45;39&#45;&gt;0</title>
<path fill="none" stroke="red" stroke-width="0.201919" d="M1366.99,-77.8298C1362.8,-73.4514 1357.05,-68.3981 1350.8,-65.6985 1195.89,1.25731 1139.75,-54.3363 972.802,-29.6985 957.976,-27.5106 941.518,-24.24 928.394,-21.4265"/>
<polygon fill="red" stroke="red" stroke-width="0.201919" points="928.782,-17.9283 918.264,-19.2044 927.282,-24.7658 928.782,-17.9283"/>
</g>
<!-- &#45;39&#45;&gt;1 -->
<g id="edge146" class="edge"><title>&#45;39&#45;&gt;1</title>
<path fill="none" stroke="green" stroke-width="0.296446" stroke-dasharray="1,5" d="M1367.01,-77.786C1362.82,-73.393 1357.07,-68.3397 1350.8,-65.6985 1157.32,15.7947 1080.38,-91.707 879.802,-29.6985 878.745,-29.3717 877.684,-28.9918 876.629,-28.5711"/>
<polygon fill="green" stroke="green" stroke-width="0.296446" points="878.033,-25.3602 867.525,-24.0087 874.897,-31.6183 878.033,-25.3602"/>
</g>
<!-- &#45;39&#45;&gt;2 -->
<g id="edge147" class="edge"><title>&#45;39&#45;&gt;2</title>
<path fill="none" stroke="red" stroke-width="0.507603" stroke-dasharray="1,5" d="M1366.52,-77.5768C1362.34,-73.344 1356.76,-68.5136 1350.8,-65.6985 1254.27,-20.1074 1123.64,-15.2383 1069.69,-15.358"/>
<polygon fill="red" stroke="red" stroke-width="0.507603" points="1069.64,-11.8582 1059.67,-15.442 1069.7,-18.8579 1069.64,-11.8582"/>
</g>
<!-- &#45;39&#45;&gt;3 -->
<g id="edge148" class="edge"><title>&#45;39&#45;&gt;3</title>
<path fill="none" stroke="red" stroke-width="0.172957" d="M1366.97,-77.8619C1362.78,-73.4942 1357.03,-68.4409 1350.8,-65.6985 1215.78,-6.23614 1161.03,-75.5506 1020.8,-29.6985 1019.92,-29.4107 1019.04,-29.0879 1018.16,-28.7369"/>
<polygon fill="red" stroke="red" stroke-width="0.172957" points="1019.56,-25.5253 1009.05,-24.2143 1016.45,-31.7954 1019.56,-25.5253"/>
</g>
<!-- &#45;40 -->
<g id="node40" class="node"><title>&#45;40</title>
<polygon fill="lightgray" stroke="black" points="1435.3,-95.9117 1406.3,-95.9117 1406.3,-77.9117 1435.3,-77.9117 1435.3,-95.9117"/>
<text text-anchor="middle" x="1420.8" y="-84.7117" font-family="Times New Roman,serif" font-size="9.00">&#45;40</text>
</g>
<!-- &#45;40&#45;&gt;0 -->
<g id="edge149" class="edge"><title>&#45;40&#45;&gt;0</title>
<path fill="none" stroke="red" stroke-width="0.158156" d="M1414,-77.8053C1409.81,-73.4188 1404.06,-68.3655 1397.8,-65.6985 1310.6,-28.5484 1066.64,-43.0461 972.802,-29.6985 957.965,-27.5881 941.506,-24.3207 928.385,-21.4895"/>
<polygon fill="red" stroke="red" stroke-width="0.158156" points="928.777,-17.9918 918.257,-19.2489 927.265,-24.8265 928.777,-17.9918"/>
</g>
<!-- &#45;40&#45;&gt;1 -->
<g id="edge150" class="edge"><title>&#45;40&#45;&gt;1</title>
<path fill="none" stroke="red" stroke-width="0.501476" d="M1414.01,-77.7698C1409.83,-73.3714 1404.08,-68.3181 1397.8,-65.6985 1184.81,23.1475 1100.52,-97.0995 879.802,-29.6985 878.744,-29.3753 877.682,-28.9985 876.626,-28.5801"/>
<polygon fill="red" stroke="red" stroke-width="0.501476" points="878.029,-25.3687 867.52,-24.0267 874.898,-31.6296 878.029,-25.3687"/>
</g>
<!-- &#45;40&#45;&gt;2 -->
<g id="edge151" class="edge"><title>&#45;40&#45;&gt;2</title>
<path fill="none" stroke="red" stroke-width="0.362468" d="M1413.54,-77.5263C1409.38,-73.2787 1403.79,-68.4503 1397.8,-65.6985 1338.94,-38.6592 1140.37,-22.5122 1069.88,-17.521"/>
<polygon fill="red" stroke="red" stroke-width="0.362468" points="1069.92,-14.0159 1059.71,-16.8158 1069.44,-20.9992 1069.92,-14.0159"/>
</g>
<!-- &#45;40&#45;&gt;3 -->
<g id="edge152" class="edge"><title>&#45;40&#45;&gt;3</title>
<path fill="none" stroke="red" stroke-width="0.435047" stroke-dasharray="1,5" d="M1413.99,-77.8304C1409.8,-73.4522 1404.05,-68.3989 1397.8,-65.6985 1243.31,1.10111 1181.13,-80.9312 1020.8,-29.6985 1019.75,-29.3617 1018.69,-28.9736 1017.64,-28.5463"/>
<polygon fill="red" stroke="red" stroke-width="0.435047" points="1019.05,-25.337 1008.54,-23.9596 1015.89,-31.5873 1019.05,-25.337"/>
</g>
<!-- 648&#45;&gt;2 -->
<g id="edge154" class="edge"><title>648&#45;&gt;2</title>
<path fill="none" stroke="green" stroke-width="0.290253" d="M1891.82,-72.8796C1887.51,-70.0166 1882.68,-67.3494 1877.8,-65.6985 1722.77,-13.229 1192.5,-14.547 1070.14,-15.5796"/>
<polygon fill="green" stroke="green" stroke-width="0.290253" points="1069.86,-12.0819 1059.89,-15.6738 1069.93,-19.0816 1069.86,-12.0819"/>
</g>
</g>
</svg>
