<?xml version="1.0" encoding="UTF-8" standalone="no"?>
<!DOCTYPE svg PUBLIC "-//W3C//DTD SVG 1.1//EN"
 "http://www.w3.org/Graphics/SVG/1.1/DTD/svg11.dtd">
<!-- Generated by graphviz version 2.38.0 (20140413.2041)
 -->
<!-- Title: %3 Pages: 1 -->
<svg width="1955pt" height="170pt"
 viewBox="0.00 0.00 1954.90 170.12" xmlns="http://www.w3.org/2000/svg" xmlns:xlink="http://www.w3.org/1999/xlink">
<g id="graph0" class="graph" transform="scale(1 1) rotate(0) translate(4 166.125)">
<title>%3</title>
<polygon fill="white" stroke="none" points="-4,4 -4,-166.125 1950.9,-166.125 1950.9,4 -4,4"/>
<!-- &#45;1 -->
<g id="node1" class="node"><title>&#45;1</title>
<polygon fill="lightgray" stroke="black" points="983.091,-95.9117 959.091,-95.9117 959.091,-77.9117 983.091,-77.9117 983.091,-95.9117"/>
<text text-anchor="middle" x="971.091" y="-84.7117" font-family="Times New Roman,serif" font-size="9.00">&#45;1</text>
</g>
<!-- 0 -->
<g id="node41" class="node"><title>0</title>
<ellipse fill="lightblue" stroke="black" cx="933.091" cy="-14.8492" rx="14.7" ry="14.7"/>
<text text-anchor="middle" x="933.091" y="-12.6492" font-family="Times New Roman,serif" font-size="9.00">0</text>
</g>
<!-- &#45;1&#45;&gt;0 -->
<g id="edge1" class="edge"><title>&#45;1&#45;&gt;0</title>
<path fill="none" stroke="green" stroke-width="0.200212" d="M966.732,-77.8746C961.378,-68.0036 952.089,-50.8771 944.627,-37.1182"/>
<polygon fill="green" stroke="green" stroke-width="0.200212" points="947.668,-35.3832 939.823,-28.2615 941.514,-38.7205 947.668,-35.3832"/>
</g>
<!-- 1 -->
<g id="node42" class="node"><title>1</title>
<ellipse fill="lightblue" stroke="black" cx="981.091" cy="-14.8492" rx="14.7" ry="14.7"/>
<text text-anchor="middle" x="981.091" y="-12.6492" font-family="Times New Roman,serif" font-size="9.00">1</text>
</g>
<!-- &#45;1&#45;&gt;1 -->
<g id="edge2" class="edge"><title>&#45;1&#45;&gt;1</title>
<path fill="none" stroke="red" stroke-width="0.20073" d="M972.238,-77.8746C973.558,-68.6287 975.786,-53.017 977.677,-39.7699"/>
<polygon fill="red" stroke="red" stroke-width="0.20073" points="981.149,-40.2139 979.097,-29.8197 974.219,-39.2248 981.149,-40.2139"/>
</g>
<!-- 2 -->
<g id="node43" class="node"><title>2</title>
<ellipse fill="lightblue" stroke="black" cx="1090.09" cy="-14.8492" rx="14.7" ry="14.7"/>
<text text-anchor="middle" x="1090.09" y="-12.6492" font-family="Times New Roman,serif" font-size="9.00">2</text>
</g>
<!-- &#45;1&#45;&gt;2 -->
<g id="edge3" class="edge"><title>&#45;1&#45;&gt;2</title>
<path fill="none" stroke="green" stroke-width="0.413196" d="M978.359,-77.8022C982.187,-73.8335 987.112,-69.1749 992.091,-65.6985 1022.08,-44.7599 1033.79,-46.8492 1066.09,-29.6985 1066.91,-29.2642 1067.74,-28.817 1068.58,-28.3611"/>
<polygon fill="green" stroke="green" stroke-width="0.413196" points="1070.48,-31.3046 1077.48,-23.3493 1067.05,-25.2046 1070.48,-31.3046"/>
</g>
<!-- 3 -->
<g id="node44" class="node"><title>3</title>
<ellipse fill="lightblue" stroke="black" cx="1042.09" cy="-14.8492" rx="14.7" ry="14.7"/>
<text text-anchor="middle" x="1042.09" y="-12.6492" font-family="Times New Roman,serif" font-size="9.00">3</text>
</g>
<!-- &#45;1&#45;&gt;3 -->
<g id="edge4" class="edge"><title>&#45;1&#45;&gt;3</title>
<path fill="none" stroke="red" stroke-width="0.155957" d="M979.236,-77.8746C990.177,-67.0781 1009.91,-47.6015 1024.36,-33.3456"/>
<polygon fill="red" stroke="red" stroke-width="0.155957" points="1027.09,-35.5662 1031.75,-26.051 1022.18,-30.5836 1027.09,-35.5662"/>
</g>
<!-- &#45;2 -->
<g id="node2" class="node"><title>&#45;2</title>
<polygon fill="lightgray" stroke="black" points="1025.09,-95.9117 1001.09,-95.9117 1001.09,-77.9117 1025.09,-77.9117 1025.09,-95.9117"/>
<text text-anchor="middle" x="1013.09" y="-84.7117" font-family="Times New Roman,serif" font-size="9.00">&#45;2</text>
</g>
<!-- &#45;2&#45;&gt;0 -->
<g id="edge5" class="edge"><title>&#45;2&#45;&gt;0</title>
<path fill="none" stroke="red" stroke-width="0.292178" d="M1004.63,-77.5232C1000.85,-73.838 996.3,-69.4945 992.091,-65.6985 978.951,-53.8456 963.679,-40.966 951.966,-31.2681"/>
<polygon fill="red" stroke="red" stroke-width="0.292178" points="954.091,-28.4843 944.147,-24.829 949.641,-33.8879 954.091,-28.4843"/>
</g>
<!-- &#45;2&#45;&gt;1 -->
<g id="edge6" class="edge"><title>&#45;2&#45;&gt;1</title>
<path fill="none" stroke="green" stroke-width="0.307297" d="M1009.42,-77.8746C1005.01,-68.2142 997.422,-51.6046 991.21,-38.0034"/>
<polygon fill="green" stroke="green" stroke-width="0.307297" points="994.333,-36.4158 986.994,-28.7738 987.965,-39.324 994.333,-36.4158"/>
</g>
<!-- &#45;2&#45;&gt;2 -->
<g id="edge7" class="edge"><title>&#45;2&#45;&gt;2</title>
<path fill="none" stroke="green" stroke-width="0.172592" stroke-dasharray="1,5" d="M1021.6,-77.5745C1025.39,-73.8987 1029.93,-69.5486 1034.09,-65.6985 1046.42,-54.2839 1060.56,-41.7052 1071.54,-32.0391"/>
<polygon fill="green" stroke="green" stroke-width="0.172592" points="1074.03,-34.508 1079.24,-25.2827 1069.42,-29.2454 1074.03,-34.508"/>
</g>
<!-- &#45;2&#45;&gt;3 -->
<g id="edge8" class="edge"><title>&#45;2&#45;&gt;3</title>
<path fill="none" stroke="green" stroke-width="0.253963" stroke-dasharray="1,5" d="M1016.42,-77.8746C1020.38,-68.308 1027.16,-51.9264 1032.76,-38.4004"/>
<polygon fill="green" stroke="green" stroke-width="0.253963" points="1036.15,-39.3521 1036.74,-28.7738 1029.68,-36.6749 1036.15,-39.3521"/>
</g>
<!-- &#45;3 -->
<g id="node3" class="node"><title>&#45;3</title>
<polygon fill="lightgray" stroke="black" points="1067.09,-95.9117 1043.09,-95.9117 1043.09,-77.9117 1067.09,-77.9117 1067.09,-95.9117"/>
<text text-anchor="middle" x="1055.09" y="-84.7117" font-family="Times New Roman,serif" font-size="9.00">&#45;3</text>
</g>
<!-- &#45;3&#45;&gt;0 -->
<g id="edge9" class="edge"><title>&#45;3&#45;&gt;0</title>
<path fill="none" stroke="red" stroke-width="0.889061" d="M1047.85,-77.7696C1044.02,-73.7926 1039.1,-69.1363 1034.09,-65.6985 1002.95,-44.3107 990.594,-47.1554 957.091,-29.6985 956.27,-29.2706 955.437,-28.8287 954.597,-28.3774"/>
<polygon fill="red" stroke="red" stroke-width="0.889061" points="956.118,-25.2176 945.683,-23.3867 952.699,-31.3256 956.118,-25.2176"/>
</g>
<!-- &#45;3&#45;&gt;1 -->
<g id="edge10" class="edge"><title>&#45;3&#45;&gt;1</title>
<path fill="none" stroke="red" stroke-width="0.285543" d="M1046.53,-77.6283C1042.73,-73.9625 1038.2,-69.6052 1034.09,-65.6985 1022.54,-54.7055 1009.49,-42.4313 999.231,-32.8133"/>
<polygon fill="red" stroke="red" stroke-width="0.285543" points="1001.37,-30.0258 991.684,-25.7444 996.59,-35.1349 1001.37,-30.0258"/>
</g>
<!-- &#45;3&#45;&gt;2 -->
<g id="edge11" class="edge"><title>&#45;3&#45;&gt;2</title>
<path fill="none" stroke="red" stroke-width="0.307646" d="M1059.11,-77.8746C1063.96,-68.1564 1072.33,-51.4054 1079.15,-37.7594"/>
<polygon fill="red" stroke="red" stroke-width="0.307646" points="1082.43,-39.0268 1083.76,-28.5167 1076.16,-35.8985 1082.43,-39.0268"/>
</g>
<!-- &#45;3&#45;&gt;3 -->
<g id="edge12" class="edge"><title>&#45;3&#45;&gt;3</title>
<path fill="none" stroke="red" stroke-width="0.116729" d="M1053.6,-77.8746C1051.87,-68.572 1048.95,-52.8252 1046.48,-39.5264"/>
<polygon fill="red" stroke="red" stroke-width="0.116729" points="1049.9,-38.7492 1044.63,-29.5556 1043.02,-40.0263 1049.9,-38.7492"/>
</g>
<!-- &#45;4 -->
<g id="node4" class="node"><title>&#45;4</title>
<polygon fill="lightgray" stroke="black" points="1109.09,-95.9117 1085.09,-95.9117 1085.09,-77.9117 1109.09,-77.9117 1109.09,-95.9117"/>
<text text-anchor="middle" x="1097.09" y="-84.7117" font-family="Times New Roman,serif" font-size="9.00">&#45;4</text>
</g>
<!-- &#45;4&#45;&gt;0 -->
<g id="edge13" class="edge"><title>&#45;4&#45;&gt;0</title>
<path fill="none" stroke="red" stroke-width="0.316274" d="M1090.42,-77.8618C1086.6,-73.7124 1081.51,-68.8708 1076.09,-65.6985 1028.42,-37.7628 1007.8,-51.6517 957.091,-29.6985 956.241,-29.3306 955.384,-28.9397 954.524,-28.5313"/>
<polygon fill="red" stroke="red" stroke-width="0.316274" points="955.987,-25.345 945.514,-23.7411 952.701,-31.5258 955.987,-25.345"/>
</g>
<!-- &#45;4&#45;&gt;1 -->
<g id="edge14" class="edge"><title>&#45;4&#45;&gt;1</title>
<path fill="none" stroke="green" stroke-width="0.350612" d="M1089.78,-77.8661C1085.94,-73.9137 1081.02,-69.2503 1076.09,-65.6985 1053.09,-49.1091 1023.84,-34.618 1003.91,-25.5984"/>
<polygon fill="green" stroke="green" stroke-width="0.350612" points="1005.25,-22.3617 994.686,-21.5116 1002.41,-28.7619 1005.25,-22.3617"/>
</g>
<!-- &#45;4&#45;&gt;2 -->
<g id="edge15" class="edge"><title>&#45;4&#45;&gt;2</title>
<path fill="none" stroke="green" stroke-width="0.144694" d="M1096.29,-77.8746C1095.37,-68.7202 1093.84,-53.3256 1092.52,-40.1641"/>
<polygon fill="green" stroke="green" stroke-width="0.144694" points="1095.96,-39.4221 1091.49,-29.8197 1089,-40.1181 1095.96,-39.4221"/>
</g>
<!-- &#45;4&#45;&gt;3 -->
<g id="edge16" class="edge"><title>&#45;4&#45;&gt;3</title>
<path fill="none" stroke="green" stroke-width="0.459211" d="M1090.78,-77.8746C1082.65,-67.5161 1068.25,-49.1677 1057.21,-35.1057"/>
<polygon fill="green" stroke="green" stroke-width="0.459211" points="1059.78,-32.7185 1050.86,-27.0138 1054.28,-37.0409 1059.78,-32.7185"/>
</g>
<!-- &#45;5 -->
<g id="node5" class="node"><title>&#45;5</title>
<polygon fill="lightgray" stroke="black" points="1151.09,-95.9117 1127.09,-95.9117 1127.09,-77.9117 1151.09,-77.9117 1151.09,-95.9117"/>
<text text-anchor="middle" x="1139.09" y="-84.7117" font-family="Times New Roman,serif" font-size="9.00">&#45;5</text>
</g>
<!-- &#45;5&#45;&gt;0 -->
<g id="edge17" class="edge"><title>&#45;5&#45;&gt;0</title>
<path fill="none" stroke="red" stroke-width="0.342663" d="M1132.51,-77.7008C1128.72,-73.5042 1123.62,-68.669 1118.09,-65.6985 1053.51,-30.9876 1025.41,-56.3278 957.091,-29.6985 956.228,-29.3622 955.36,-28.9981 954.491,-28.6124"/>
<polygon fill="red" stroke="red" stroke-width="0.342663" points="955.927,-25.4149 945.437,-23.9277 952.71,-31.6319 955.927,-25.4149"/>
</g>
<!-- &#45;5&#45;&gt;1 -->
<g id="edge18" class="edge"><title>&#45;5&#45;&gt;1</title>
<path fill="none" stroke="red" stroke-width="0.16837" d="M1131.98,-77.5721C1128.19,-73.5448 1123.25,-68.9031 1118.09,-65.6985 1077.97,-40.77 1062.43,-45.9783 1018.09,-29.6985 1013.62,-28.0586 1008.86,-26.2904 1004.29,-24.5839"/>
<polygon fill="red" stroke="red" stroke-width="0.16837" points="1005.37,-21.2522 994.782,-21.0205 1002.92,-27.8071 1005.37,-21.2522"/>
</g>
<!-- &#45;5&#45;&gt;2 -->
<g id="edge19" class="edge"><title>&#45;5&#45;&gt;2</title>
<path fill="none" stroke="red" stroke-width="0.217875" d="M1133.47,-77.8746C1126.38,-67.7318 1113.93,-49.9283 1104.18,-35.9895"/>
<polygon fill="red" stroke="red" stroke-width="0.217875" points="1106.84,-33.6959 1098.24,-27.5071 1101.11,-37.7078 1106.84,-33.6959"/>
</g>
<!-- &#45;5&#45;&gt;3 -->
<g id="edge20" class="edge"><title>&#45;5&#45;&gt;3</title>
<path fill="none" stroke="green" stroke-width="0.319266" d="M1131.24,-77.6726C1127.42,-73.8528 1122.68,-69.3593 1118.09,-65.6985 1100.62,-51.7627 1079.23,-37.9911 1063.59,-28.4663"/>
<polygon fill="green" stroke="green" stroke-width="0.319266" points="1065.06,-25.2674 1054.69,-23.121 1061.46,-31.2689 1065.06,-25.2674"/>
</g>
<!-- &#45;6 -->
<g id="node6" class="node"><title>&#45;6</title>
<polygon fill="lightgray" stroke="black" points="188.091,-95.9117 164.091,-95.9117 164.091,-77.9117 188.091,-77.9117 188.091,-95.9117"/>
<text text-anchor="middle" x="176.091" y="-84.7117" font-family="Times New Roman,serif" font-size="9.00">&#45;6</text>
</g>
<!-- &#45;6&#45;&gt;0 -->
<g id="edge21" class="edge"><title>&#45;6&#45;&gt;0</title>
<path fill="none" stroke="red" stroke-width="0.423153" d="M182.516,-77.7689C186.49,-73.3702 191.99,-68.3169 198.091,-65.6985 264.48,-37.2057 786.235,-20.1766 907.825,-16.5709"/>
<polygon fill="red" stroke="red" stroke-width="0.423153" points="908.123,-20.0638 918.017,-16.2726 907.918,-13.0668 908.123,-20.0638"/>
</g>
<!-- &#45;6&#45;&gt;1 -->
<g id="edge22" class="edge"><title>&#45;6&#45;&gt;1</title>
<path fill="none" stroke="red" stroke-width="0.403241" stroke-dasharray="1,5" d="M182.496,-77.7223C186.464,-73.3081 191.964,-68.2548 198.091,-65.6985 353.929,-0.682958 795.065,-77.2361 957.091,-29.6985 958.153,-29.387 959.218,-29.0197 960.276,-28.6091"/>
<polygon fill="red" stroke="red" stroke-width="0.403241" points="961.99,-31.6658 969.391,-24.0841 958.878,-25.3959 961.99,-31.6658"/>
</g>
<!-- &#45;6&#45;&gt;2 -->
<g id="edge23" class="edge"><title>&#45;6&#45;&gt;2</title>
<path fill="none" stroke="green" stroke-width="0.171182" d="M182.49,-77.7086C186.456,-73.2898 191.956,-68.2365 198.091,-65.6985 376.482,8.10439 880.684,-83.4978 1066.09,-29.6985 1067.15,-29.3901 1068.22,-29.0254 1069.28,-28.6169"/>
<polygon fill="green" stroke="green" stroke-width="0.171182" points="1070.99,-31.6756 1078.4,-24.0997 1067.88,-25.4032 1070.99,-31.6756"/>
</g>
<!-- &#45;7 -->
<g id="node7" class="node"><title>&#45;7</title>
<polygon fill="lightgray" stroke="black" points="1193.09,-95.9117 1169.09,-95.9117 1169.09,-77.9117 1193.09,-77.9117 1193.09,-95.9117"/>
<text text-anchor="middle" x="1181.09" y="-84.7117" font-family="Times New Roman,serif" font-size="9.00">&#45;7</text>
</g>
<!-- &#45;7&#45;&gt;0 -->
<g id="edge24" class="edge"><title>&#45;7&#45;&gt;0</title>
<path fill="none" stroke="red" stroke-width="0.232077" d="M1174.56,-77.6022C1170.78,-73.3767 1165.68,-68.5454 1160.09,-65.6985 1078.43,-24.126 1043.18,-61.0704 957.091,-29.6985 956.221,-29.3814 955.346,-29.0337 954.472,-28.6618"/>
<polygon fill="red" stroke="red" stroke-width="0.232077" points="955.894,-25.4583 945.394,-24.0415 952.719,-31.6967 955.894,-25.4583"/>
</g>
<!-- &#45;7&#45;&gt;1 -->
<g id="edge25" class="edge"><title>&#45;7&#45;&gt;1</title>
<path fill="none" stroke="red" stroke-width="0.449417" d="M1174.47,-77.7629C1170.67,-73.5846 1165.58,-68.7469 1160.09,-65.6985 1103.18,-34.0679 1080.23,-49.1396 1018.09,-29.6985 1013.55,-28.2776 1008.75,-26.6098 1004.17,-24.9332"/>
<polygon fill="red" stroke="red" stroke-width="0.449417" points="1005.26,-21.6044 994.673,-21.3414 1002.79,-28.152 1005.26,-21.6044"/>
</g>
<!-- &#45;7&#45;&gt;2 -->
<g id="edge26" class="edge"><title>&#45;7&#45;&gt;2</title>
<path fill="none" stroke="green" stroke-width="0.2198" d="M1173.17,-77.7508C1169.34,-73.9481 1164.61,-69.4465 1160.09,-65.6985 1144.27,-52.5701 1125.19,-39.1303 1110.96,-29.5189"/>
<polygon fill="green" stroke="green" stroke-width="0.2198" points="1112.64,-26.436 1102.38,-23.7974 1108.76,-32.2589 1112.64,-26.436"/>
</g>
<!-- &#45;7&#45;&gt;3 -->
<g id="edge27" class="edge"><title>&#45;7&#45;&gt;3</title>
<path fill="none" stroke="green" stroke-width="0.427643" d="M1173.95,-77.6161C1170.15,-73.5999 1165.22,-68.955 1160.09,-65.6985 1122.33,-41.7068 1106.48,-48.9381 1066.09,-29.6985 1065.26,-29.3002 1064.41,-28.8836 1063.56,-28.4535"/>
<polygon fill="green" stroke="green" stroke-width="0.427643" points="1065.05,-25.2797 1054.6,-23.5619 1061.7,-31.4244 1065.05,-25.2797"/>
</g>
<!-- &#45;8 -->
<g id="node8" class="node"><title>&#45;8</title>
<polygon fill="lightgray" stroke="black" points="1235.09,-95.9117 1211.09,-95.9117 1211.09,-77.9117 1235.09,-77.9117 1235.09,-95.9117"/>
<text text-anchor="middle" x="1223.09" y="-84.7117" font-family="Times New Roman,serif" font-size="9.00">&#45;8</text>
</g>
<!-- &#45;8&#45;&gt;0 -->
<g id="edge28" class="edge"><title>&#45;8&#45;&gt;0</title>
<path fill="none" stroke="green" stroke-width="0.105293" d="M1216.59,-77.5359C1212.83,-73.291 1207.72,-68.4622 1202.09,-65.6985 1103.28,-17.2232 1061.04,-65.8442 957.091,-29.6985 956.217,-29.3943 955.338,-29.0576 954.46,-28.695"/>
<polygon fill="green" stroke="green" stroke-width="0.105293" points="955.873,-25.4877 945.367,-24.1178 952.726,-31.7403 955.873,-25.4877"/>
</g>
<!-- &#45;8&#45;&gt;1 -->
<g id="edge29" class="edge"><title>&#45;8&#45;&gt;1</title>
<path fill="none" stroke="green" stroke-width="0.382042" d="M1216.54,-77.6416C1212.76,-73.4276 1207.66,-68.5947 1202.09,-65.6985 1128.17,-27.2369 1098.27,-52.381 1018.09,-29.6985 1013.51,-28.4032 1008.7,-26.7929 1004.11,-25.1334"/>
<polygon fill="green" stroke="green" stroke-width="0.382042" points="1005.21,-21.806 994.618,-21.5253 1002.72,-28.3494 1005.21,-21.806"/>
</g>
<!-- &#45;8&#45;&gt;2 -->
<g id="edge30" class="edge"><title>&#45;8&#45;&gt;2</title>
<path fill="none" stroke="red" stroke-width="0.31573" d="M1215.87,-77.7301C1212.06,-73.743 1207.13,-69.0897 1202.09,-65.6985 1173.79,-46.6474 1137.03,-31.9111 1113.49,-23.5547"/>
<polygon fill="red" stroke="red" stroke-width="0.31573" points="1114.57,-20.2264 1103.98,-20.2707 1112.29,-26.8431 1114.57,-20.2264"/>
</g>
<!-- &#45;8&#45;&gt;3 -->
<g id="edge31" class="edge"><title>&#45;8&#45;&gt;3</title>
<path fill="none" stroke="green" stroke-width="0.380134" d="M1216.46,-77.7858C1212.66,-73.6142 1207.56,-68.7756 1202.09,-65.6985 1147.6,-35.0361 1123.9,-53.5323 1066.09,-29.6985 1065.24,-29.3455 1064.37,-28.9673 1063.51,-28.5696"/>
<polygon fill="green" stroke="green" stroke-width="0.380134" points="1064.96,-25.3778 1054.48,-23.8293 1061.7,-31.5759 1064.96,-25.3778"/>
</g>
<!-- &#45;9 -->
<g id="node9" class="node"><title>&#45;9</title>
<polygon fill="lightgray" stroke="black" points="1277.09,-95.9117 1253.09,-95.9117 1253.09,-77.9117 1277.09,-77.9117 1277.09,-95.9117"/>
<text text-anchor="middle" x="1265.09" y="-84.7117" font-family="Times New Roman,serif" font-size="9.00">&#45;9</text>
</g>
<!-- &#45;9&#45;&gt;0 -->
<g id="edge32" class="edge"><title>&#45;9&#45;&gt;0</title>
<path fill="none" stroke="green" stroke-width="0.546636" stroke-dasharray="1,5" d="M1258.97,-77.8986C1255.19,-73.5431 1249.94,-68.4898 1244.09,-65.6985 1128.09,-10.2975 1078.95,-70.6351 957.091,-29.6985 956.213,-29.4036 955.332,-29.0748 954.452,-28.7187"/>
<polygon fill="green" stroke="green" stroke-width="0.546636" points="955.859,-25.5089 945.348,-24.1724 952.731,-31.7715 955.859,-25.5089"/>
</g>
<!-- &#45;9&#45;&gt;1 -->
<g id="edge33" class="edge"><title>&#45;9&#45;&gt;1</title>
<path fill="none" stroke="red" stroke-width="0.143405" d="M1258.58,-77.563C1254.81,-73.326 1249.71,-68.4962 1244.09,-65.6985 1153.05,-20.3495 1116.43,-55.6559 1018.09,-29.6985 1013.49,-28.4841 1008.67,-26.9109 1004.08,-25.2624"/>
<polygon fill="red" stroke="red" stroke-width="0.143405" points="1005.18,-21.9358 994.585,-21.6437 1002.68,-28.4765 1005.18,-21.9358"/>
</g>
<!-- &#45;9&#45;&gt;2 -->
<g id="edge34" class="edge"><title>&#45;9&#45;&gt;2</title>
<path fill="none" stroke="red" stroke-width="0.358456" d="M1258.39,-77.9033C1254.57,-73.766 1249.47,-68.9229 1244.09,-65.6985 1202.25,-40.6385 1146.37,-26.647 1114.71,-20.2334"/>
<polygon fill="red" stroke="red" stroke-width="0.358456" points="1115.07,-16.7376 1104.58,-18.2751 1113.74,-23.6102 1115.07,-16.7376"/>
</g>
<!-- &#45;9&#45;&gt;3 -->
<g id="edge35" class="edge"><title>&#45;9&#45;&gt;3</title>
<path fill="none" stroke="red" stroke-width="0.100647" d="M1258.53,-77.6556C1254.75,-73.4458 1249.65,-68.6124 1244.09,-65.6985 1172.61,-28.2172 1141.59,-58.2422 1066.09,-29.6985 1065.23,-29.371 1064.35,-29.0144 1063.48,-28.6351"/>
<polygon fill="red" stroke="red" stroke-width="0.100647" points="1064.91,-25.4347 1054.42,-23.9799 1061.71,-31.6616 1064.91,-25.4347"/>
</g>
<!-- &#45;10 -->
<g id="node10" class="node"><title>&#45;10</title>
<polygon fill="lightgray" stroke="black" points="1324.59,-95.9117 1295.59,-95.9117 1295.59,-77.9117 1324.59,-77.9117 1324.59,-95.9117"/>
<text text-anchor="middle" x="1310.09" y="-84.7117" font-family="Times New Roman,serif" font-size="9.00">&#45;10</text>
</g>
<!-- &#45;10&#45;&gt;0 -->
<g id="edge36" class="edge"><title>&#45;10&#45;&gt;0</title>
<path fill="none" stroke="green" stroke-width="0.277121" d="M1302.9,-77.8631C1298.5,-73.4959 1292.5,-68.4426 1286.09,-65.6985 1150.87,-7.81148 1096.89,-75.4362 957.091,-29.6985 956.211,-29.4105 955.328,-29.0876 954.446,-28.7365"/>
<polygon fill="green" stroke="green" stroke-width="0.277121" points="955.848,-25.525 945.335,-24.2134 952.736,-31.7949 955.848,-25.525"/>
</g>
<!-- &#45;10&#45;&gt;1 -->
<g id="edge37" class="edge"><title>&#45;10&#45;&gt;1</title>
<path fill="none" stroke="red" stroke-width="0.126577" d="M1302.46,-77.5124C1298.09,-73.2606 1292.27,-68.4328 1286.09,-65.6985 1176.2,-17.0511 1134.66,-58.9476 1018.09,-29.6985 1013.48,-28.5404 1008.64,-26.9929 1004.05,-25.3522"/>
<polygon fill="red" stroke="red" stroke-width="0.126577" points="1005.15,-22.026 994.564,-21.7262 1002.66,-28.565 1005.15,-22.026"/>
</g>
<!-- &#45;10&#45;&gt;2 -->
<g id="edge38" class="edge"><title>&#45;10&#45;&gt;2</title>
<path fill="none" stroke="green" stroke-width="0.262082" d="M1302.32,-77.7932C1297.92,-73.6237 1292.1,-68.7848 1286.09,-65.6985 1229.24,-36.4967 1154.14,-23.6193 1115.49,-18.6156"/>
<polygon fill="green" stroke="green" stroke-width="0.262082" points="1115.51,-15.0924 1105.16,-17.3559 1114.66,-22.0409 1115.51,-15.0924"/>
</g>
<!-- &#45;10&#45;&gt;3 -->
<g id="edge39" class="edge"><title>&#45;10&#45;&gt;3</title>
<path fill="none" stroke="red" stroke-width="0.195131" d="M1302.42,-77.5828C1298.05,-73.3517 1292.23,-68.5211 1286.09,-65.6985 1196.08,-24.2986 1159.41,-63 1066.09,-29.6985 1065.22,-29.3872 1064.34,-29.0445 1063.47,-28.6767"/>
<polygon fill="red" stroke="red" stroke-width="0.195131" points="1064.88,-25.4715 1054.38,-24.0758 1061.72,-31.7163 1064.88,-25.4715"/>
</g>
<!-- &#45;11 -->
<g id="node11" class="node"><title>&#45;11</title>
<polygon fill="lightgray" stroke="black" points="1371.59,-95.9117 1342.59,-95.9117 1342.59,-77.9117 1371.59,-77.9117 1371.59,-95.9117"/>
<text text-anchor="middle" x="1357.09" y="-84.7117" font-family="Times New Roman,serif" font-size="9.00">&#45;11</text>
</g>
<!-- &#45;11&#45;&gt;0 -->
<g id="edge40" class="edge"><title>&#45;11&#45;&gt;0</title>
<path fill="none" stroke="green" stroke-width="0.260928" d="M1350.28,-77.8304C1346.09,-73.4522 1340.34,-68.3989 1334.09,-65.6985 1179.6,1.10111 1117.42,-80.9312 957.091,-29.6985 956.037,-29.3617 954.979,-28.9736 953.926,-28.5463"/>
<polygon fill="green" stroke="green" stroke-width="0.260928" points="955.335,-25.337 944.83,-23.9596 952.183,-31.5873 955.335,-25.337"/>
</g>
<!-- &#45;11&#45;&gt;1 -->
<g id="edge41" class="edge"><title>&#45;11&#45;&gt;1</title>
<path fill="none" stroke="green" stroke-width="0.21165" d="M1350.26,-77.873C1346.06,-73.509 1340.31,-68.4557 1334.09,-65.6985 1204.86,-8.41985 1155.53,-62.7211 1018.09,-29.6985 1013.46,-28.5869 1008.63,-27.0606 1004.04,-25.4262"/>
<polygon fill="green" stroke="green" stroke-width="0.21165" points="1005.14,-22.1005 994.548,-21.7942 1002.64,-28.6379 1005.14,-22.1005"/>
</g>
<!-- &#45;11&#45;&gt;2 -->
<g id="edge42" class="edge"><title>&#45;11&#45;&gt;2</title>
<path fill="none" stroke="red" stroke-width="0.112501" stroke-dasharray="1,5" d="M1349.76,-77.6716C1345.57,-73.4664 1339.99,-68.6323 1334.09,-65.6985 1260.23,-28.9876 1160.95,-19.3082 1115.16,-16.7589"/>
<polygon fill="red" stroke="red" stroke-width="0.112501" points="1115.12,-13.2532 1104.96,-16.2626 1114.78,-20.2449 1115.12,-13.2532"/>
</g>
<!-- &#45;11&#45;&gt;3 -->
<g id="edge43" class="edge"><title>&#45;11&#45;&gt;3</title>
<path fill="none" stroke="green" stroke-width="0.383479" d="M1349.84,-77.5102C1345.67,-73.2578 1340.09,-68.43 1334.09,-65.6985 1224.71,-15.8977 1179.85,-68.4662 1066.09,-29.6985 1065.21,-29.3998 1064.33,-29.0677 1063.46,-28.7089"/>
<polygon fill="green" stroke="green" stroke-width="0.383479" points="1064.86,-25.5001 1054.36,-24.1498 1061.73,-31.7585 1064.86,-25.5001"/>
</g>
<!-- &#45;12 -->
<g id="node12" class="node"><title>&#45;12</title>
<polygon fill="lightgray" stroke="black" points="1418.59,-95.9117 1389.59,-95.9117 1389.59,-77.9117 1418.59,-77.9117 1418.59,-95.9117"/>
<text text-anchor="middle" x="1404.09" y="-84.7117" font-family="Times New Roman,serif" font-size="9.00">&#45;12</text>
</g>
<!-- &#45;12&#45;&gt;0 -->
<g id="edge44" class="edge"><title>&#45;12&#45;&gt;0</title>
<path fill="none" stroke="red" stroke-width="0.113877" d="M1397.29,-77.8058C1393.1,-73.4194 1387.35,-68.3661 1381.09,-65.6985 1207.11,8.44546 1137.54,-86.3172 957.091,-29.6985 956.036,-29.3672 954.976,-28.9837 953.921,-28.56"/>
<polygon fill="red" stroke="red" stroke-width="0.113877" points="955.328,-25.3498 944.821,-23.9869 952.185,-31.6045 955.328,-25.3498"/>
</g>
<!-- &#45;12&#45;&gt;1 -->
<g id="edge45" class="edge"><title>&#45;12&#45;&gt;1</title>
<path fill="none" stroke="green" stroke-width="0.119832" d="M1397.27,-77.839C1393.08,-73.4636 1387.33,-68.4103 1381.09,-65.6985 1232.4,-1.08532 1176,-66.4233 1018.09,-29.6985 1013.46,-28.6206 1008.62,-27.1099 1004.02,-25.48"/>
<polygon fill="green" stroke="green" stroke-width="0.119832" points="1005.13,-22.1546 994.536,-21.8436 1002.62,-28.6909 1005.13,-22.1546"/>
</g>
<!-- &#45;12&#45;&gt;2 -->
<g id="edge46" class="edge"><title>&#45;12&#45;&gt;2</title>
<path fill="none" stroke="red" stroke-width="0.436213" d="M1396.8,-77.5962C1392.62,-73.369 1387.04,-68.5379 1381.09,-65.6985 1290.19,-22.3085 1167.36,-16.1598 1115.2,-15.6449"/>
<polygon fill="red" stroke="red" stroke-width="0.436213" points="1115.19,-12.1449 1105.17,-15.6091 1115.16,-19.1449 1115.19,-12.1449"/>
</g>
<!-- &#45;12&#45;&gt;3 -->
<g id="edge47" class="edge"><title>&#45;12&#45;&gt;3</title>
<path fill="none" stroke="red" stroke-width="0.262636" d="M1397.26,-77.8739C1393.06,-73.5102 1387.31,-68.4569 1381.09,-65.6985 1252.28,-8.57579 1199.91,-73.835 1066.09,-29.6985 1065.21,-29.4084 1064.33,-29.0837 1063.45,-28.7311"/>
<polygon fill="red" stroke="red" stroke-width="0.262636" points="1064.85,-25.5201 1054.34,-24.201 1061.73,-31.7878 1064.85,-25.5201"/>
</g>
<!-- &#45;13 -->
<g id="node13" class="node"><title>&#45;13</title>
<polygon fill="lightgray" stroke="black" points="1465.59,-95.9117 1436.59,-95.9117 1436.59,-77.9117 1465.59,-77.9117 1465.59,-95.9117"/>
<text text-anchor="middle" x="1451.09" y="-84.7117" font-family="Times New Roman,serif" font-size="9.00">&#45;13</text>
</g>
<!-- &#45;13&#45;&gt;0 -->
<g id="edge48" class="edge"><title>&#45;13&#45;&gt;0</title>
<path fill="none" stroke="red" stroke-width="0.38048" d="M1444.29,-77.786C1440.11,-73.393 1434.36,-68.3397 1428.09,-65.6985 1234.61,15.7947 1157.67,-91.707 957.091,-29.6985 956.034,-29.3717 954.973,-28.9918 953.918,-28.5711"/>
<polygon fill="red" stroke="red" stroke-width="0.38048" points="955.323,-25.3602 944.814,-24.0087 952.186,-31.6183 955.323,-25.3602"/>
</g>
<!-- &#45;13&#45;&gt;1 -->
<g id="edge49" class="edge"><title>&#45;13&#45;&gt;1</title>
<path fill="none" stroke="red" stroke-width="0.142321" d="M1444.28,-77.8125C1440.1,-73.4284 1434.35,-68.3751 1428.09,-65.6985 1259.91,6.25719 1196.49,-70.13 1018.09,-29.6985 1013.45,-28.6468 1008.61,-27.148 1004.01,-25.5217"/>
<polygon fill="red" stroke="red" stroke-width="0.142321" points="1005.12,-22.1964 994.527,-21.8819 1002.61,-28.7319 1005.12,-22.1964"/>
</g>
<!-- &#45;13&#45;&gt;2 -->
<g id="edge50" class="edge"><title>&#45;13&#45;&gt;2</title>
<path fill="none" stroke="green" stroke-width="0.351957" d="M1443.82,-77.541C1439.66,-73.2976 1434.07,-68.4686 1428.09,-65.6985 1372.14,-39.784 1184.1,-23.0808 1115.45,-17.7212"/>
<polygon fill="green" stroke="green" stroke-width="0.351957" points="1115.38,-14.2054 1105.14,-16.932 1114.85,-21.185 1115.38,-14.2054"/>
</g>
<!-- &#45;13&#45;&gt;3 -->
<g id="edge51" class="edge"><title>&#45;13&#45;&gt;3</title>
<path fill="none" stroke="red" stroke-width="0.31987" d="M1444.27,-77.8396C1440.08,-73.4645 1434.33,-68.4112 1428.09,-65.6985 1279.81,-1.24147 1220.01,-79.2133 1066.09,-29.6985 1065.04,-29.3596 1063.98,-28.9699 1062.93,-28.5411"/>
<polygon fill="red" stroke="red" stroke-width="0.31987" points="1064.34,-25.3322 1053.83,-23.9494 1061.18,-31.5809 1064.34,-25.3322"/>
</g>
<!-- &#45;14 -->
<g id="node14" class="node"><title>&#45;14</title>
<polygon fill="lightgray" stroke="black" points="1512.59,-95.9117 1483.59,-95.9117 1483.59,-77.9117 1512.59,-77.9117 1512.59,-95.9117"/>
<text text-anchor="middle" x="1498.09" y="-84.7117" font-family="Times New Roman,serif" font-size="9.00">&#45;14</text>
</g>
<!-- &#45;14&#45;&gt;0 -->
<g id="edge52" class="edge"><title>&#45;14&#45;&gt;0</title>
<path fill="none" stroke="green" stroke-width="0.238006" d="M1491.3,-77.7698C1487.12,-73.3714 1481.37,-68.3181 1475.09,-65.6985 1262.1,23.1475 1177.81,-97.0995 957.091,-29.6985 956.033,-29.3753 954.971,-28.9985 953.915,-28.5801"/>
<polygon fill="green" stroke="green" stroke-width="0.238006" points="955.318,-25.3687 944.809,-24.0267 952.188,-31.6296 955.318,-25.3687"/>
</g>
<!-- &#45;14&#45;&gt;1 -->
<g id="edge53" class="edge"><title>&#45;14&#45;&gt;1</title>
<path fill="none" stroke="green" stroke-width="0.451296" d="M1491.29,-77.7915C1487.11,-73.4003 1481.36,-68.347 1475.09,-65.6985 1287.42,13.6052 1216.99,-73.8397 1018.09,-29.6985 1013.45,-28.6676 1008.6,-27.1783 1004.01,-25.5549"/>
<polygon fill="green" stroke="green" stroke-width="0.451296" points="1005.11,-22.2298 994.52,-21.9124 1002.6,-28.7646 1005.11,-22.2298"/>
</g>
<!-- &#45;14&#45;&gt;2 -->
<g id="edge54" class="edge"><title>&#45;14&#45;&gt;2</title>
<path fill="none" stroke="red" stroke-width="0.262484" d="M1491.24,-77.9087C1487.04,-73.5566 1481.29,-68.5033 1475.09,-65.6985 1410.26,-36.3659 1190.44,-21.5071 1115.42,-17.2018"/>
<polygon fill="red" stroke="red" stroke-width="0.262484" points="1115.23,-13.6859 1105.05,-16.6217 1114.84,-20.675 1115.23,-13.6859"/>
</g>
<!-- &#45;14&#45;&gt;3 -->
<g id="edge55" class="edge"><title>&#45;14&#45;&gt;3</title>
<path fill="none" stroke="green" stroke-width="0.222841" d="M1491.28,-77.813C1487.1,-73.4291 1481.35,-68.3758 1475.09,-65.6985 1307.33,6.1009 1240.12,-84.5978 1066.09,-29.6985 1065.04,-29.3656 1063.98,-28.9808 1062.92,-28.556"/>
<polygon fill="green" stroke="green" stroke-width="0.222841" points="1064.33,-25.3461 1053.82,-23.9788 1061.18,-31.5994 1064.33,-25.3461"/>
</g>
<!-- &#45;15 -->
<g id="node15" class="node"><title>&#45;15</title>
<polygon fill="lightgray" stroke="black" points="1559.59,-95.9117 1530.59,-95.9117 1530.59,-77.9117 1559.59,-77.9117 1559.59,-95.9117"/>
<text text-anchor="middle" x="1545.09" y="-84.7117" font-family="Times New Roman,serif" font-size="9.00">&#45;15</text>
</g>
<!-- &#45;15&#45;&gt;0 -->
<g id="edge56" class="edge"><title>&#45;15&#45;&gt;0</title>
<path fill="none" stroke="green" stroke-width="0.256148" d="M1538.31,-77.7562C1534.13,-73.3533 1528.38,-68.3 1522.09,-65.6985 1405.84,-17.5977 1077.52,-66.0963 957.091,-29.6985 956.032,-29.3784 954.97,-29.004 953.913,-28.5877"/>
<polygon fill="green" stroke="green" stroke-width="0.256148" points="955.315,-25.3758 944.804,-24.0417 952.189,-31.639 955.315,-25.3758"/>
</g>
<!-- &#45;15&#45;&gt;1 -->
<g id="edge57" class="edge"><title>&#45;15&#45;&gt;1</title>
<path fill="none" stroke="green" stroke-width="0.163981" d="M1538.3,-77.7743C1534.12,-73.3774 1528.37,-68.3241 1522.09,-65.6985 1418.5,-22.3707 1127.8,-53.6251 1018.09,-29.6985 1013.44,-28.6845 1008.6,-27.2031 1004,-25.5819"/>
<polygon fill="green" stroke="green" stroke-width="0.163981" points="1005.1,-22.257 994.515,-21.9373 1002.59,-28.7912 1005.1,-22.257"/>
</g>
<!-- &#45;15&#45;&gt;2 -->
<g id="edge58" class="edge"><title>&#45;15&#45;&gt;2</title>
<path fill="none" stroke="green" stroke-width="0.271317" d="M1538.26,-77.8764C1534.06,-73.5136 1528.31,-68.4603 1522.09,-65.6985 1448.28,-32.9201 1196.14,-20.1132 1115.27,-16.7896"/>
<polygon fill="green" stroke="green" stroke-width="0.271317" points="1115.16,-13.2827 1105.03,-16.3824 1114.88,-20.2771 1115.16,-13.2827"/>
</g>
<!-- &#45;15&#45;&gt;3 -->
<g id="edge59" class="edge"><title>&#45;15&#45;&gt;3</title>
<path fill="none" stroke="red" stroke-width="0.253769" d="M1538.29,-77.7919C1534.11,-73.4009 1528.36,-68.3476 1522.09,-65.6985 1334.83,13.4488 1260.24,-89.9865 1066.09,-29.6985 1065.03,-29.3704 1063.97,-28.9894 1062.92,-28.5678"/>
<polygon fill="red" stroke="red" stroke-width="0.253769" points="1064.32,-25.3571 1053.82,-24.0022 1061.19,-31.6142 1064.32,-25.3571"/>
</g>
<!-- &#45;16 -->
<g id="node16" class="node"><title>&#45;16</title>
<polygon fill="lightgray" stroke="black" points="1606.59,-95.9117 1577.59,-95.9117 1577.59,-77.9117 1606.59,-77.9117 1606.59,-95.9117"/>
<text text-anchor="middle" x="1592.09" y="-84.7117" font-family="Times New Roman,serif" font-size="9.00">&#45;16</text>
</g>
<!-- &#45;16&#45;&gt;0 -->
<g id="edge60" class="edge"><title>&#45;16&#45;&gt;0</title>
<path fill="none" stroke="green" stroke-width="0.138287" d="M1585.31,-77.7447C1581.14,-73.338 1575.39,-68.2847 1569.09,-65.6985 1443.08,-13.919 1087.6,-68.7943 957.091,-29.6985 956.031,-29.381 954.968,-29.0087 953.911,-28.5941"/>
<polygon fill="green" stroke="green" stroke-width="0.138287" points="955.312,-25.3818 944.8,-24.0544 952.19,-31.6471 955.312,-25.3818"/>
</g>
<!-- &#45;16&#45;&gt;1 -->
<g id="edge61" class="edge"><title>&#45;16&#45;&gt;1</title>
<path fill="none" stroke="green" stroke-width="0.625461" d="M1585.31,-77.76C1581.13,-73.3584 1575.38,-68.3051 1569.09,-65.6985 1455.75,-18.6934 1138.06,-55.4818 1018.09,-29.6985 1013.44,-28.6986 1008.59,-27.2236 1004,-25.6044"/>
<polygon fill="green" stroke="green" stroke-width="0.625461" points="1005.1,-22.2795 994.51,-21.9579 1002.59,-28.8133 1005.1,-22.2795"/>
</g>
<!-- &#45;16&#45;&gt;2 -->
<g id="edge62" class="edge"><title>&#45;16&#45;&gt;2</title>
<path fill="none" stroke="red" stroke-width="0.28868" d="M1585.27,-77.8503C1581.08,-73.4787 1575.33,-68.4254 1569.09,-65.6985 1486.35,-29.5056 1202.15,-18.8984 1115.42,-16.4685"/>
<polygon fill="red" stroke="red" stroke-width="0.28868" points="1115.28,-12.9635 1105.19,-16.1946 1115.09,-19.961 1115.28,-12.9635"/>
</g>
<!-- &#45;16&#45;&gt;3 -->
<g id="edge63" class="edge"><title>&#45;16&#45;&gt;3</title>
<path fill="none" stroke="red" stroke-width="0.38233" d="M1585.3,-77.7746C1581.12,-73.3779 1575.37,-68.3246 1569.09,-65.6985 1362.33,20.8006 1280.38,-95.3783 1066.09,-29.6985 1065.03,-29.3742 1063.97,-28.9965 1062.92,-28.5774"/>
<polygon fill="red" stroke="red" stroke-width="0.38233" points="1064.32,-25.3661 1053.81,-24.0213 1061.19,-31.6262 1064.32,-25.3661"/>
</g>
<!-- &#45;17 -->
<g id="node17" class="node"><title>&#45;17</title>
<polygon fill="lightgray" stroke="black" points="1653.59,-95.9117 1624.59,-95.9117 1624.59,-77.9117 1653.59,-77.9117 1653.59,-95.9117"/>
<text text-anchor="middle" x="1639.09" y="-84.7117" font-family="Times New Roman,serif" font-size="9.00">&#45;17</text>
</g>
<!-- &#45;17&#45;&gt;0 -->
<g id="edge64" class="edge"><title>&#45;17&#45;&gt;0</title>
<path fill="none" stroke="red" stroke-width="0.110856" d="M1632.32,-77.7348C1628.14,-73.3248 1622.39,-68.2715 1616.09,-65.6985 1480.32,-10.2395 1097.67,-71.4929 957.091,-29.6985 956.031,-29.3832 954.967,-29.0127 953.909,-28.5996"/>
<polygon fill="red" stroke="red" stroke-width="0.110856" points="955.309,-25.387 944.797,-24.0654 952.191,-31.6539 955.309,-25.387"/>
</g>
<!-- &#45;17&#45;&gt;1 -->
<g id="edge65" class="edge"><title>&#45;17&#45;&gt;1</title>
<path fill="none" stroke="green" stroke-width="0.47509" d="M1632.31,-77.748C1628.13,-73.3423 1622.38,-68.289 1616.09,-65.6985 1492.99,-15.0149 1148.32,-57.3392 1018.09,-29.6985 1013.44,-28.7105 1008.59,-27.241 1003.99,-25.6234"/>
<polygon fill="green" stroke="green" stroke-width="0.47509" points="1005.1,-22.2986 994.507,-21.9753 1002.58,-28.832 1005.1,-22.2986"/>
</g>
<!-- &#45;17&#45;&gt;2 -->
<g id="edge66" class="edge"><title>&#45;17&#45;&gt;2</title>
<path fill="none" stroke="red" stroke-width="0.351434" d="M1632.28,-77.8287C1628.09,-73.45 1622.34,-68.3967 1616.09,-65.6985 1524.25,-26.0268 1207.02,-17.7694 1115.18,-16.1946"/>
<polygon fill="red" stroke="red" stroke-width="0.351434" points="1115.19,-12.6943 1105.13,-16.034 1115.08,-19.6934 1115.19,-12.6943"/>
</g>
<!-- &#45;17&#45;&gt;3 -->
<g id="edge67" class="edge"><title>&#45;17&#45;&gt;3</title>
<path fill="none" stroke="green" stroke-width="0.207374" d="M1632.31,-77.7603C1628.13,-73.3587 1622.38,-68.3054 1616.09,-65.6985 1389.82,28.1553 1300.52,-100.772 1066.09,-29.6985 1065.03,-29.3775 1063.97,-29.0023 1062.91,-28.5854"/>
<polygon fill="green" stroke="green" stroke-width="0.207374" points="1064.32,-25.3736 1053.81,-24.0372 1061.19,-31.6362 1064.32,-25.3736"/>
</g>
<!-- &#45;18 -->
<g id="node18" class="node"><title>&#45;18</title>
<polygon fill="lightgray" stroke="black" points="1700.59,-95.9117 1671.59,-95.9117 1671.59,-77.9117 1700.59,-77.9117 1700.59,-95.9117"/>
<text text-anchor="middle" x="1686.09" y="-84.7117" font-family="Times New Roman,serif" font-size="9.00">&#45;18</text>
</g>
<!-- &#45;18&#45;&gt;0 -->
<g id="edge68" class="edge"><title>&#45;18&#45;&gt;0</title>
<path fill="none" stroke="green" stroke-width="0.300068" d="M1679.32,-77.7263C1675.15,-73.3134 1669.4,-68.2601 1663.09,-65.6985 1517.56,-6.5593 1107.75,-74.192 957.091,-29.6985 956.03,-29.3851 954.966,-29.0162 953.908,-28.6044"/>
<polygon fill="green" stroke="green" stroke-width="0.300068" points="955.307,-25.3915 944.794,-24.0748 952.192,-31.6599 955.307,-25.3915"/>
</g>
<!-- &#45;18&#45;&gt;1 -->
<g id="edge69" class="edge"><title>&#45;18&#45;&gt;1</title>
<path fill="none" stroke="green" stroke-width="0.224395" d="M1679.31,-77.7376C1675.14,-73.3285 1669.39,-68.2752 1663.09,-65.6985 1530.23,-11.3356 1158.58,-59.197 1018.09,-29.6985 1013.43,-28.7207 1008.58,-27.2558 1003.99,-25.6396"/>
<polygon fill="green" stroke="green" stroke-width="0.224395" points="1005.09,-22.3149 994.503,-21.9902 1002.58,-28.848 1005.09,-22.3149"/>
</g>
<!-- &#45;18&#45;&gt;2 -->
<g id="edge70" class="edge"><title>&#45;18&#45;&gt;2</title>
<path fill="none" stroke="red" stroke-width="0.210712" d="M1679.28,-77.8107C1675.1,-73.4259 1669.35,-68.3726 1663.09,-65.6985 1562.19,-22.5748 1212.21,-16.7545 1115.2,-15.9708"/>
<polygon fill="red" stroke="red" stroke-width="0.210712" points="1115.16,-12.4705 1105.14,-15.9008 1115.11,-19.4704 1115.16,-12.4705"/>
</g>
<!-- &#45;18&#45;&gt;3 -->
<g id="edge71" class="edge"><title>&#45;18&#45;&gt;3</title>
<path fill="none" stroke="red" stroke-width="0.189253" d="M1679.31,-77.7482C1675.13,-73.3426 1669.38,-68.2893 1663.09,-65.6985 1540.19,-15.0932 1193.38,-67.9331 1066.09,-29.6985 1065.03,-29.3802 1063.97,-29.0073 1062.91,-28.5922"/>
<polygon fill="red" stroke="red" stroke-width="0.189253" points="1064.31,-25.38 1053.8,-24.0506 1061.19,-31.6446 1064.31,-25.38"/>
</g>
<!-- &#45;19 -->
<g id="node19" class="node"><title>&#45;19</title>
<polygon fill="lightgray" stroke="black" points="1747.59,-95.9117 1718.59,-95.9117 1718.59,-77.9117 1747.59,-77.9117 1747.59,-95.9117"/>
<text text-anchor="middle" x="1733.09" y="-84.7117" font-family="Times New Roman,serif" font-size="9.00">&#45;19</text>
</g>
<!-- &#45;19&#45;&gt;0 -->
<g id="edge72" class="edge"><title>&#45;19&#45;&gt;0</title>
<path fill="none" stroke="green" stroke-width="0.217052" d="M1726.32,-77.7188C1722.15,-73.3034 1716.4,-68.2501 1710.09,-65.6985 1554.79,-2.87862 1117.83,-76.8914 957.091,-29.6985 956.03,-29.3868 954.965,-29.0193 953.907,-28.6086"/>
<polygon fill="green" stroke="green" stroke-width="0.217052" points="955.305,-25.3954 944.792,-24.0831 952.192,-31.6651 955.305,-25.3954"/>
</g>
<!-- &#45;19&#45;&gt;1 -->
<g id="edge73" class="edge"><title>&#45;19&#45;&gt;1</title>
<path fill="none" stroke="green" stroke-width="0.12859" d="M1726.32,-77.7287C1722.14,-73.3166 1716.39,-68.2633 1710.09,-65.6985 1567.46,-7.65558 1168.85,-61.0552 1018.09,-29.6985 1013.43,-28.7295 1008.58,-27.2687 1003.98,-25.6537"/>
<polygon fill="green" stroke="green" stroke-width="0.12859" points="1005.09,-22.329 994.501,-22.0031 1002.58,-28.8618 1005.09,-22.329"/>
</g>
<!-- &#45;19&#45;&gt;2 -->
<g id="edge74" class="edge"><title>&#45;19&#45;&gt;2</title>
<path fill="none" stroke="red" stroke-width="0.223941" d="M1726.29,-77.7953C1722.11,-73.4054 1716.36,-68.3521 1710.09,-65.6985 1600.11,-19.1201 1217.27,-15.8175 1115.24,-15.7802"/>
<polygon fill="red" stroke="red" stroke-width="0.223941" points="1114.98,-12.2803 1104.98,-15.7877 1114.98,-19.2803 1114.98,-12.2803"/>
</g>
<!-- &#45;19&#45;&gt;3 -->
<g id="edge75" class="edge"><title>&#45;19&#45;&gt;3</title>
<path fill="none" stroke="green" stroke-width="0.254129" d="M1726.31,-77.7378C1722.14,-73.3288 1716.39,-68.2755 1710.09,-65.6985 1577.43,-11.4139 1203.46,-70.6316 1066.09,-29.6985 1065.03,-29.3825 1063.97,-29.0115 1062.91,-28.598"/>
<polygon fill="green" stroke="green" stroke-width="0.254129" points="1064.31,-25.3854 1053.8,-24.062 1061.19,-31.6518 1064.31,-25.3854"/>
</g>
<!-- &#45;20 -->
<g id="node20" class="node"><title>&#45;20</title>
<polygon fill="lightgray" stroke="black" points="1794.59,-95.9117 1765.59,-95.9117 1765.59,-77.9117 1794.59,-77.9117 1794.59,-95.9117"/>
<text text-anchor="middle" x="1780.09" y="-84.7117" font-family="Times New Roman,serif" font-size="9.00">&#45;20</text>
</g>
<!-- &#45;20&#45;&gt;0 -->
<g id="edge76" class="edge"><title>&#45;20&#45;&gt;0</title>
<path fill="none" stroke="red" stroke-width="0.478764" d="M1773.32,-77.7121C1769.15,-73.2945 1763.4,-68.2412 1757.09,-65.6985 1592.03,0.802476 1127.91,-79.5912 957.091,-29.6985 956.029,-29.3883 954.964,-29.022 953.906,-28.6123"/>
<polygon fill="red" stroke="red" stroke-width="0.478764" points="955.304,-25.3989 944.79,-24.0905 952.193,-31.6697 955.304,-25.3989"/>
</g>
<!-- &#45;20&#45;&gt;1 -->
<g id="edge77" class="edge"><title>&#45;20&#45;&gt;1</title>
<path fill="none" stroke="red" stroke-width="0.439681" d="M1773.32,-77.7209C1769.15,-73.3062 1763.4,-68.2529 1757.09,-65.6985 1604.7,-3.97504 1179.12,-62.9137 1018.09,-29.6985 1013.43,-28.7372 1008.58,-27.2799 1003.98,-25.6659"/>
<polygon fill="red" stroke="red" stroke-width="0.439681" points="1005.09,-22.3413 994.498,-22.0144 1002.57,-28.8738 1005.09,-22.3413"/>
</g>
<!-- &#45;20&#45;&gt;2 -->
<g id="edge78" class="edge"><title>&#45;20&#45;&gt;2</title>
<path fill="none" stroke="green" stroke-width="0.134369" d="M1773.3,-77.7821C1769.11,-73.3877 1763.36,-68.3344 1757.09,-65.6985 1637.93,-15.6262 1221.61,-14.9436 1115.07,-15.6169"/>
<polygon fill="green" stroke="green" stroke-width="0.134369" points="1114.93,-12.1178 1104.95,-15.6913 1114.98,-19.1176 1114.93,-12.1178"/>
</g>
<!-- &#45;20&#45;&gt;3 -->
<g id="edge79" class="edge"><title>&#45;20&#45;&gt;3</title>
<path fill="none" stroke="red" stroke-width="0.293819" d="M1773.32,-77.7289C1769.14,-73.3169 1763.39,-68.2636 1757.09,-65.6985 1614.67,-7.73388 1213.53,-73.3305 1066.09,-29.6985 1065.03,-29.3845 1063.97,-29.0152 1062.91,-28.603"/>
<polygon fill="red" stroke="red" stroke-width="0.293819" points="1064.31,-25.3901 1053.8,-24.0719 1061.19,-31.6581 1064.31,-25.3901"/>
</g>
<!-- &#45;21 -->
<g id="node21" class="node"><title>&#45;21</title>
<polygon fill="lightgray" stroke="black" points="1841.59,-95.9117 1812.59,-95.9117 1812.59,-77.9117 1841.59,-77.9117 1841.59,-95.9117"/>
<text text-anchor="middle" x="1827.09" y="-84.7117" font-family="Times New Roman,serif" font-size="9.00">&#45;21</text>
</g>
<!-- &#45;21&#45;&gt;0 -->
<g id="edge80" class="edge"><title>&#45;21&#45;&gt;0</title>
<path fill="none" stroke="red" stroke-width="0.153071" d="M1820.33,-77.7062C1816.16,-73.2867 1810.41,-68.2334 1804.09,-65.6985 1629.26,4.48392 1137.99,-82.2913 957.091,-29.6985 956.029,-29.3896 954.964,-29.0244 953.905,-28.6156"/>
<polygon fill="red" stroke="red" stroke-width="0.153071" points="955.302,-25.402 944.788,-24.097 952.193,-31.6739 955.302,-25.402"/>
</g>
<!-- &#45;21&#45;&gt;1 -->
<g id="edge81" class="edge"><title>&#45;21&#45;&gt;1</title>
<path fill="none" stroke="red" stroke-width="0.337242" d="M1820.32,-77.714C1816.15,-73.297 1810.4,-68.2437 1804.09,-65.6985 1641.93,-0.29406 1189.39,-64.7724 1018.09,-29.6985 1013.43,-28.744 1008.58,-27.2898 1003.98,-25.6767"/>
<polygon fill="red" stroke="red" stroke-width="0.337242" points="1005.09,-22.3521 994.496,-22.0243 1002.57,-28.8844 1005.09,-22.3521"/>
</g>
<!-- &#45;21&#45;&gt;2 -->
<g id="edge82" class="edge"><title>&#45;21&#45;&gt;2</title>
<path fill="none" stroke="green" stroke-width="0.409443" d="M1820.3,-77.7705C1816.12,-73.3724 1810.37,-68.3191 1804.09,-65.6985 1675.9,-12.2016 1227.05,-14.1253 1115.39,-15.471"/>
<polygon fill="green" stroke="green" stroke-width="0.409443" points="1115.06,-11.9749 1105.1,-15.6053 1115.15,-18.9743 1115.06,-11.9749"/>
</g>
<!-- &#45;21&#45;&gt;3 -->
<g id="edge83" class="edge"><title>&#45;21&#45;&gt;3</title>
<path fill="none" stroke="green" stroke-width="0.278738" d="M1820.32,-77.7211C1816.15,-73.3064 1810.4,-68.2531 1804.09,-65.6985 1651.91,-4.05335 1223.61,-76.0299 1066.09,-29.6985 1065.03,-29.3863 1063.97,-29.0184 1062.91,-28.6073"/>
<polygon fill="green" stroke="green" stroke-width="0.278738" points="1064.31,-25.3942 1053.79,-24.0806 1061.19,-31.6635 1064.31,-25.3942"/>
</g>
<!-- &#45;22 -->
<g id="node22" class="node"><title>&#45;22</title>
<polygon fill="lightgray" stroke="black" points="47.5913,-95.9117 18.5913,-95.9117 18.5913,-77.9117 47.5913,-77.9117 47.5913,-95.9117"/>
<text text-anchor="middle" x="33.0913" y="-84.7117" font-family="Times New Roman,serif" font-size="9.00">&#45;22</text>
</g>
<!-- &#45;22&#45;&gt;0 -->
<g id="edge84" class="edge"><title>&#45;22&#45;&gt;0</title>
<path fill="none" stroke="green" stroke-width="0.333214" d="M40.2316,-77.7371C44.6117,-73.3278 50.6117,-68.2745 57.0913,-65.6985 137.98,-33.5405 772.782,-19.0677 907.868,-16.3358"/>
<polygon fill="green" stroke="green" stroke-width="0.333214" points="908.125,-19.8315 918.053,-16.1331 907.985,-12.8329 908.125,-19.8315"/>
</g>
<!-- &#45;22&#45;&gt;1 -->
<g id="edge85" class="edge"><title>&#45;22&#45;&gt;1</title>
<path fill="none" stroke="green" stroke-width="0.157247" d="M40.2155,-77.6961C44.5902,-73.2731 50.5902,-68.2198 57.0913,-65.6985 243.708,6.67654 764.82,-85.3363 957.091,-29.6985 958.154,-29.3909 959.22,-29.0268 960.279,-28.6189"/>
<polygon fill="green" stroke="green" stroke-width="0.157247" points="961.989,-31.678 969.397,-24.1035 958.882,-25.4051 961.989,-31.678"/>
</g>
<!-- &#45;22&#45;&gt;3 -->
<g id="edge86" class="edge"><title>&#45;22&#45;&gt;3</title>
<path fill="none" stroke="green" stroke-width="0.320064" d="M40.2136,-77.6911C44.5877,-73.2665 50.5877,-68.2132 57.0913,-65.6985 253.723,10.3318 798.394,-71.1804 1005.09,-29.6985 1009.76,-28.7622 1014.61,-27.3163 1019.21,-25.7058"/>
<polygon fill="green" stroke="green" stroke-width="0.320064" points="1020.62,-28.913 1028.69,-22.051 1018.1,-22.3813 1020.62,-28.913"/>
</g>
<!-- &#45;23 -->
<g id="node23" class="node"><title>&#45;23</title>
<polygon fill="lightgray" stroke="black" points="235.591,-95.9117 206.591,-95.9117 206.591,-77.9117 235.591,-77.9117 235.591,-95.9117"/>
<text text-anchor="middle" x="221.091" y="-84.7117" font-family="Times New Roman,serif" font-size="9.00">&#45;23</text>
</g>
<!-- &#45;23&#45;&gt;0 -->
<g id="edge87" class="edge"><title>&#45;23&#45;&gt;0</title>
<path fill="none" stroke="green" stroke-width="0.424824" d="M228.247,-77.7747C232.632,-73.3779 238.632,-68.3246 245.091,-65.6985 368.838,-15.3888 799.381,-14.9069 908.037,-15.6146"/>
<polygon fill="green" stroke="green" stroke-width="0.424824" points="908.042,-19.1146 918.068,-15.6897 908.094,-12.1148 908.042,-19.1146"/>
</g>
<!-- &#45;23&#45;&gt;1 -->
<g id="edge88" class="edge"><title>&#45;23&#45;&gt;1</title>
<path fill="none" stroke="red" stroke-width="0.223757" d="M228.226,-77.7217C232.604,-73.3073 238.604,-68.254 245.091,-65.6985 392.493,-7.63685 805.145,-74.5366 957.091,-29.6985 958.153,-29.3853 959.217,-29.0167 960.275,-28.605"/>
<polygon fill="red" stroke="red" stroke-width="0.223757" points="961.991,-31.6606 969.389,-24.0759 958.876,-25.392 961.991,-31.6606"/>
</g>
<!-- &#45;23&#45;&gt;2 -->
<g id="edge89" class="edge"><title>&#45;23&#45;&gt;2</title>
<path fill="none" stroke="red" stroke-width="0.346964" d="M228.219,-77.7054C232.595,-73.2856 238.595,-68.2323 245.091,-65.6985 415.228,0.66123 890.766,-80.7976 1066.09,-29.6985 1067.15,-29.3889 1068.22,-29.0231 1069.28,-28.6138"/>
<polygon fill="red" stroke="red" stroke-width="0.346964" points="1070.99,-31.6716 1078.39,-24.0935 1067.88,-25.4003 1070.99,-31.6716"/>
</g>
<!-- &#45;23&#45;&gt;3 -->
<g id="edge90" class="edge"><title>&#45;23&#45;&gt;3</title>
<path fill="none" stroke="green" stroke-width="0.366575" d="M228.222,-77.714C232.6,-73.297 238.6,-68.2437 245.091,-65.6985 402.504,-3.98291 839.476,-63.7442 1005.09,-29.6985 1009.75,-28.7403 1014.6,-27.2844 1019.2,-25.6709"/>
<polygon fill="green" stroke="green" stroke-width="0.366575" points="1020.61,-28.8787 1028.69,-22.019 1018.1,-22.3463 1020.61,-28.8787"/>
</g>
<!-- &#45;24 -->
<g id="node24" class="node"><title>&#45;24</title>
<polygon fill="lightgray" stroke="black" points="282.591,-95.9117 253.591,-95.9117 253.591,-77.9117 282.591,-77.9117 282.591,-95.9117"/>
<text text-anchor="middle" x="268.091" y="-84.7117" font-family="Times New Roman,serif" font-size="9.00">&#45;24</text>
</g>
<!-- &#45;24&#45;&gt;0 -->
<g id="edge91" class="edge"><title>&#45;24&#45;&gt;0</title>
<path fill="none" stroke="red" stroke-width="0.426119" d="M275.252,-77.7875C279.639,-73.395 285.639,-68.3417 292.091,-65.6985 406.575,-18.802 803.415,-15.7448 907.781,-15.7681"/>
<polygon fill="red" stroke="red" stroke-width="0.426119" points="907.993,-19.2683 917.997,-15.781 908.002,-12.2683 907.993,-19.2683"/>
</g>
<!-- &#45;24&#45;&gt;1 -->
<g id="edge92" class="edge"><title>&#45;24&#45;&gt;1</title>
<path fill="none" stroke="red" stroke-width="0.26567" d="M275.229,-77.7304C279.608,-73.3189 285.608,-68.2656 292.091,-65.6985 429.691,-11.2142 815.223,-71.8374 957.091,-29.6985 958.152,-29.3834 959.216,-29.0132 960.274,-28.6003"/>
<polygon fill="red" stroke="red" stroke-width="0.26567" points="961.992,-31.6547 969.386,-24.0666 958.874,-25.3876 961.992,-31.6547"/>
</g>
<!-- &#45;24&#45;&gt;2 -->
<g id="edge93" class="edge"><title>&#45;24&#45;&gt;2</title>
<path fill="none" stroke="red" stroke-width="0.188031" d="M275.222,-77.7119C279.598,-73.2942 285.598,-68.2409 292.091,-65.6985 452.424,-2.91709 900.847,-78.0977 1066.09,-29.6985 1067.15,-29.3875 1068.22,-29.0206 1069.28,-28.6103"/>
<polygon fill="red" stroke="red" stroke-width="0.188031" points="1070.99,-31.6673 1078.39,-24.0865 1067.88,-25.397 1070.99,-31.6673"/>
</g>
<!-- &#45;24&#45;&gt;3 -->
<g id="edge94" class="edge"><title>&#45;24&#45;&gt;3</title>
<path fill="none" stroke="green" stroke-width="0.107709" d="M275.225,-77.7216C279.604,-73.3071 285.604,-68.2538 292.091,-65.6985 439.701,-7.56073 849.744,-61.8856 1005.09,-29.6985 1009.75,-28.7331 1014.6,-27.2739 1019.2,-25.6593"/>
<polygon fill="green" stroke="green" stroke-width="0.107709" points="1020.61,-28.8674 1028.68,-22.0084 1018.09,-22.3347 1020.61,-28.8674"/>
</g>
<!-- &#45;25 -->
<g id="node25" class="node"><title>&#45;25</title>
<polygon fill="lightgray" stroke="black" points="329.591,-95.9117 300.591,-95.9117 300.591,-77.9117 329.591,-77.9117 329.591,-95.9117"/>
<text text-anchor="middle" x="315.091" y="-84.7117" font-family="Times New Roman,serif" font-size="9.00">&#45;25</text>
</g>
<!-- &#45;25&#45;&gt;0 -->
<g id="edge95" class="edge"><title>&#45;25&#45;&gt;0</title>
<path fill="none" stroke="green" stroke-width="0.482197" d="M322.258,-77.8022C326.647,-73.4147 332.647,-68.3614 339.091,-65.6985 444.425,-22.1738 808.228,-16.6436 907.752,-15.9478"/>
<polygon fill="green" stroke="green" stroke-width="0.482197" points="908.072,-19.446 918.051,-15.887 908.031,-12.4462 908.072,-19.446"/>
</g>
<!-- &#45;25&#45;&gt;1 -->
<g id="edge96" class="edge"><title>&#45;25&#45;&gt;1</title>
<path fill="none" stroke="red" stroke-width="0.383652" d="M322.233,-77.7404C326.613,-73.3322 332.613,-68.2789 339.091,-65.6985 466.891,-14.7909 825.3,-69.1387 957.091,-29.6985 958.151,-29.3813 959.215,-29.0093 960.272,-28.5949"/>
<polygon fill="red" stroke="red" stroke-width="0.383652" points="961.993,-31.648 969.383,-24.0559 958.871,-25.3825 961.993,-31.648"/>
</g>
<!-- &#45;25&#45;&gt;2 -->
<g id="edge97" class="edge"><title>&#45;25&#45;&gt;2</title>
<path fill="none" stroke="green" stroke-width="0.343203" d="M322.225,-77.7192C326.602,-73.3039 332.602,-68.2506 339.091,-65.6985 489.621,-6.49504 910.928,-75.3981 1066.09,-29.6985 1067.15,-29.3859 1068.22,-29.0177 1069.28,-28.6063"/>
<polygon fill="green" stroke="green" stroke-width="0.343203" points="1070.99,-31.6623 1078.39,-24.0787 1067.88,-25.3933 1070.99,-31.6623"/>
</g>
<!-- &#45;25&#45;&gt;3 -->
<g id="edge98" class="edge"><title>&#45;25&#45;&gt;3</title>
<path fill="none" stroke="red" stroke-width="0.259967" d="M322.229,-77.7302C326.608,-73.3186 332.608,-68.2653 339.091,-65.6985 476.9,-11.1381 860.011,-60.0272 1005.09,-29.6985 1009.75,-28.7248 1014.6,-27.2618 1019.2,-25.6461"/>
<polygon fill="red" stroke="red" stroke-width="0.259967" points="1020.6,-28.8544 1028.68,-21.9962 1018.09,-22.3214 1020.6,-28.8544"/>
</g>
<!-- &#45;26 -->
<g id="node26" class="node"><title>&#45;26</title>
<polygon fill="lightgray" stroke="black" points="150.591,-162.125 121.591,-162.125 121.591,-144.125 150.591,-144.125 150.591,-162.125"/>
<text text-anchor="middle" x="136.091" y="-150.925" font-family="Times New Roman,serif" font-size="9.00">&#45;26</text>
</g>
<!-- &#45;26&#45;&gt;0 -->
<g id="edge99" class="edge"><title>&#45;26&#45;&gt;0</title>
<path fill="none" stroke="green" stroke-width="0.303832" d="M121.548,-152.108C94.1295,-151.191 35.2086,-144.814 9.0913,-108.125 -1.84394,-92.7634 -3.87793,-79.3862 9.0913,-65.6985 40.8932,-32.1346 762.964,-18.6209 907.894,-16.242"/>
<polygon fill="green" stroke="green" stroke-width="0.303832" points="908.082,-19.7396 918.024,-16.0786 907.969,-12.7405 908.082,-19.7396"/>
</g>
<!-- &#45;26&#45;&gt;1 -->
<g id="edge100" class="edge"><title>&#45;26&#45;&gt;1</title>
<path fill="none" stroke="green" stroke-width="0.152796" stroke-dasharray="1,5" d="M135.019,-144.107C133.194,-126.689 131.701,-85.3849 155.091,-65.6985 223.337,-8.25911 871.467,-54.7023 957.091,-29.6985 958.153,-29.3883 959.218,-29.0221 960.277,-28.6124"/>
<polygon fill="green" stroke="green" stroke-width="0.152796" points="961.99,-31.6699 969.393,-24.0907 958.879,-25.399 961.99,-31.6699"/>
</g>
<!-- &#45;26&#45;&gt;2 -->
<g id="edge101" class="edge"><title>&#45;26&#45;&gt;2</title>
<path fill="none" stroke="red" stroke-width="0.189019" d="M150.834,-152.051C320.81,-151.166 1904.02,-142.016 1937.09,-108.125 1950.26,-94.6297 1950.03,-79.4179 1937.09,-65.6985 1908.16,-35.0115 1252.89,-19.3302 1115.29,-16.3697"/>
<polygon fill="red" stroke="red" stroke-width="0.189019" points="1115.02,-12.863 1104.94,-16.1501 1114.87,-19.8615 1115.02,-12.863"/>
</g>
<!-- &#45;26&#45;&gt;3 -->
<g id="edge102" class="edge"><title>&#45;26&#45;&gt;3</title>
<path fill="none" stroke="red" stroke-width="0.278112" d="M150.635,-152.034C315.101,-150.972 1819.65,-140.385 1851.09,-108.125 1864.25,-94.6217 1864.12,-79.3338 1851.09,-65.6985 1790.78,-2.55986 1149.89,-54.214 1066.09,-29.6985 1065.03,-29.3878 1063.96,-29.0212 1062.91,-28.6112"/>
<polygon fill="red" stroke="red" stroke-width="0.278112" points="1064.3,-25.3978 1053.79,-24.0882 1061.19,-31.6683 1064.3,-25.3978"/>
</g>
<!-- 205 -->
<g id="node45" class="node"><title>205</title>
<ellipse fill="white" stroke="black" cx="87.0913" cy="-86.9117" rx="21.4286" ry="21.4286"/>
<text text-anchor="middle" x="87.0913" y="-84.7117" font-family="Times New Roman,serif" font-size="9.00">205</text>
</g>
<!-- &#45;26&#45;&gt;205 -->
<g id="edge158" class="edge"><title>&#45;26&#45;&gt;205</title>
<path fill="none" stroke="green" stroke-width="0.196264" d="M129.885,-143.992C123.852,-136.086 114.38,-123.673 105.879,-112.533"/>
<polygon fill="green" stroke="green" stroke-width="0.196264" points="108.49,-110.185 99.6414,-104.358 102.925,-114.431 108.49,-110.185"/>
</g>
<!-- &#45;27 -->
<g id="node27" class="node"><title>&#45;27</title>
<polygon fill="lightgray" stroke="black" points="376.591,-95.9117 347.591,-95.9117 347.591,-77.9117 376.591,-77.9117 376.591,-95.9117"/>
<text text-anchor="middle" x="362.091" y="-84.7117" font-family="Times New Roman,serif" font-size="9.00">&#45;27</text>
</g>
<!-- &#45;27&#45;&gt;0 -->
<g id="edge103" class="edge"><title>&#45;27&#45;&gt;0</title>
<path fill="none" stroke="green" stroke-width="0.264751" d="M369.265,-77.8195C373.656,-73.4377 379.656,-68.3844 386.091,-65.6985 482.387,-25.5041 813.811,-17.6016 907.965,-16.1545"/>
<polygon fill="green" stroke="green" stroke-width="0.264751" points="908.29,-19.6503 918.239,-16.0083 908.19,-12.651 908.29,-19.6503"/>
</g>
<!-- &#45;27&#45;&gt;1 -->
<g id="edge104" class="edge"><title>&#45;27&#45;&gt;1</title>
<path fill="none" stroke="red" stroke-width="0.196921" d="M369.238,-77.752C373.62,-73.3476 379.62,-68.2943 386.091,-65.6985 622.096,28.9647 713.659,-103.183 957.091,-29.6985 958.151,-29.3787 959.213,-29.0047 960.27,-28.5886"/>
<polygon fill="red" stroke="red" stroke-width="0.196921" points="961.994,-31.6401 969.379,-24.0435 958.868,-25.3766 961.994,-31.6401"/>
</g>
<!-- &#45;27&#45;&gt;2 -->
<g id="edge105" class="edge"><title>&#45;27&#45;&gt;2</title>
<path fill="none" stroke="red" stroke-width="0.239602" d="M369.228,-77.7275C373.607,-73.315 379.607,-68.2617 386.091,-65.6985 526.819,-10.0725 921.007,-72.6988 1066.09,-29.6985 1067.15,-29.3841 1068.22,-29.0144 1069.27,-28.6018"/>
<polygon fill="red" stroke="red" stroke-width="0.239602" points="1070.99,-31.6567 1078.39,-24.0697 1067.87,-25.389 1070.99,-31.6567"/>
</g>
<!-- &#45;27&#45;&gt;3 -->
<g id="edge106" class="edge"><title>&#45;27&#45;&gt;3</title>
<path fill="none" stroke="red" stroke-width="0.340813" d="M369.233,-77.7401C373.613,-73.3319 379.613,-68.2786 386.091,-65.6985 514.1,-14.7148 870.277,-58.1692 1005.09,-29.6985 1009.75,-28.7153 1014.6,-27.2479 1019.19,-25.631"/>
<polygon fill="red" stroke="red" stroke-width="0.340813" points="1020.6,-28.8394 1028.68,-21.9823 1018.09,-22.3062 1020.6,-28.8394"/>
</g>
<!-- &#45;28 -->
<g id="node28" class="node"><title>&#45;28</title>
<polygon fill="lightgray" stroke="black" points="423.591,-95.9117 394.591,-95.9117 394.591,-77.9117 423.591,-77.9117 423.591,-95.9117"/>
<text text-anchor="middle" x="409.091" y="-84.7117" font-family="Times New Roman,serif" font-size="9.00">&#45;28</text>
</g>
<!-- &#45;28&#45;&gt;0 -->
<g id="edge107" class="edge"><title>&#45;28&#45;&gt;0</title>
<path fill="none" stroke="green" stroke-width="0.106975" d="M416.274,-77.84C420.668,-73.465 426.668,-68.4117 433.091,-65.6985 520.263,-28.8772 818.784,-18.6638 907.825,-16.4048"/>
<polygon fill="green" stroke="green" stroke-width="0.106975" points="907.93,-19.9033 917.842,-16.1623 907.761,-12.9054 907.93,-19.9033"/>
</g>
<!-- &#45;28&#45;&gt;1 -->
<g id="edge108" class="edge"><title>&#45;28&#45;&gt;1</title>
<path fill="none" stroke="red" stroke-width="0.200972" d="M416.243,-77.7656C420.627,-73.3658 426.627,-68.3125 433.091,-65.6985 649.505,21.8146 733.804,-97.7881 957.091,-29.6985 958.15,-29.3758 959.212,-28.9992 960.268,-28.5812"/>
<polygon fill="red" stroke="red" stroke-width="0.200972" points="961.995,-31.6309 969.374,-24.0288 958.865,-25.3696 961.995,-31.6309"/>
</g>
<!-- &#45;28&#45;&gt;2 -->
<g id="edge109" class="edge"><title>&#45;28&#45;&gt;2</title>
<path fill="none" stroke="red" stroke-width="0.309597" d="M416.232,-77.737C420.612,-73.3277 426.612,-68.2744 433.091,-65.6985 564.019,-13.6495 931.084,-70 1066.09,-29.6985 1067.15,-29.382 1068.21,-29.0106 1069.27,-28.5967"/>
<polygon fill="red" stroke="red" stroke-width="0.309597" points="1070.99,-31.6502 1078.38,-24.0595 1067.87,-25.3842 1070.99,-31.6502"/>
</g>
<!-- &#45;28&#45;&gt;3 -->
<g id="edge110" class="edge"><title>&#45;28&#45;&gt;3</title>
<path fill="none" stroke="red" stroke-width="0.342654" stroke-dasharray="1,5" d="M416.237,-77.7517C420.619,-73.3473 426.619,-68.294 433.091,-65.6985 551.302,-18.2908 880.54,-56.3117 1005.09,-29.6985 1009.74,-28.7042 1014.59,-27.2317 1019.19,-25.6133"/>
<polygon fill="red" stroke="red" stroke-width="0.342654" points="1020.6,-28.822 1028.67,-21.9661 1018.08,-22.2884 1020.6,-28.822"/>
</g>
<!-- &#45;29 -->
<g id="node29" class="node"><title>&#45;29</title>
<polygon fill="lightgray" stroke="black" points="470.591,-95.9117 441.591,-95.9117 441.591,-77.9117 470.591,-77.9117 470.591,-95.9117"/>
<text text-anchor="middle" x="456.091" y="-84.7117" font-family="Times New Roman,serif" font-size="9.00">&#45;29</text>
</g>
<!-- &#45;29&#45;&gt;0 -->
<g id="edge111" class="edge"><title>&#45;29&#45;&gt;0</title>
<path fill="none" stroke="green" stroke-width="0.156321" d="M463.284,-77.8646C467.682,-73.4978 473.682,-68.4445 480.091,-65.6985 558.219,-32.2254 824.289,-19.8257 907.8,-16.7044"/>
<polygon fill="green" stroke="green" stroke-width="0.156321" points="908.044,-20.198 917.911,-16.3391 907.791,-13.2026 908.044,-20.198"/>
</g>
<!-- &#45;29&#45;&gt;1 -->
<g id="edge112" class="edge"><title>&#45;29&#45;&gt;1</title>
<path fill="none" stroke="red" stroke-width="0.298764" d="M463.25,-77.7819C467.636,-73.3876 473.636,-68.3343 480.091,-65.6985 676.92,14.6671 753.943,-92.3953 957.091,-29.6985 958.149,-29.3722 959.21,-28.9927 960.265,-28.5723"/>
<polygon fill="red" stroke="red" stroke-width="0.298764" points="961.996,-31.6198 969.369,-24.0112 958.861,-25.3614 961.996,-31.6198"/>
</g>
<!-- &#45;29&#45;&gt;2 -->
<g id="edge113" class="edge"><title>&#45;29&#45;&gt;2</title>
<path fill="none" stroke="green" stroke-width="0.385521" stroke-dasharray="1,5" d="M463.236,-77.7481C467.618,-73.3424 473.618,-68.2891 480.091,-65.6985 601.22,-17.2257 941.16,-67.3017 1066.09,-29.6985 1067.15,-29.3796 1068.21,-29.0062 1069.27,-28.5907"/>
<polygon fill="green" stroke="green" stroke-width="0.385521" points="1070.99,-31.6428 1078.38,-24.0477 1067.87,-25.3786 1070.99,-31.6428"/>
</g>
<!-- &#45;29&#45;&gt;3 -->
<g id="edge114" class="edge"><title>&#45;29&#45;&gt;3</title>
<path fill="none" stroke="red" stroke-width="0.20725" d="M463.243,-77.7653C467.627,-73.3654 473.627,-68.3121 480.091,-65.6985 588.506,-21.8659 890.801,-54.4546 1005.09,-29.6985 1009.74,-28.6912 1014.59,-27.2127 1019.18,-25.5925"/>
<polygon fill="red" stroke="red" stroke-width="0.20725" points="1020.59,-28.8016 1028.67,-21.9469 1018.08,-22.2675 1020.59,-28.8016"/>
</g>
<!-- &#45;30 -->
<g id="node30" class="node"><title>&#45;30</title>
<polygon fill="lightgray" stroke="black" points="517.591,-95.9117 488.591,-95.9117 488.591,-77.9117 517.591,-77.9117 517.591,-95.9117"/>
<text text-anchor="middle" x="503.091" y="-84.7117" font-family="Times New Roman,serif" font-size="9.00">&#45;30</text>
</g>
<!-- &#45;30&#45;&gt;0 -->
<g id="edge115" class="edge"><title>&#45;30&#45;&gt;0</title>
<path fill="none" stroke="green" stroke-width="0.152109" d="M510.297,-77.8948C514.699,-73.538 520.699,-68.4847 527.091,-65.6985 596.275,-35.5416 830.447,-21.0981 907.95,-17.0638"/>
<polygon fill="green" stroke="green" stroke-width="0.152109" points="908.4,-20.5455 918.21,-16.5434 908.045,-13.5545 908.4,-20.5455"/>
</g>
<!-- &#45;30&#45;&gt;1 -->
<g id="edge116" class="edge"><title>&#45;30&#45;&gt;1</title>
<path fill="none" stroke="green" stroke-width="0.197683" d="M510.258,-77.8018C514.647,-73.414 520.647,-68.3607 527.091,-65.6985 704.343,7.52285 774.074,-87.0051 957.091,-29.6985 958.147,-29.3679 959.207,-28.9849 960.262,-28.5616"/>
<polygon fill="green" stroke="green" stroke-width="0.197683" points="961.998,-31.6064 969.362,-23.9899 958.855,-25.3513 961.998,-31.6064"/>
</g>
<!-- &#45;30&#45;&gt;2 -->
<g id="edge117" class="edge"><title>&#45;30&#45;&gt;2</title>
<path fill="none" stroke="green" stroke-width="0.120402" d="M510.241,-77.761C514.624,-73.3597 520.624,-68.3064 527.091,-65.6985 749.756,24.0963 836.376,-99.5096 1066.09,-29.6985 1067.15,-29.3768 1068.21,-29.0011 1069.27,-28.5837"/>
<polygon fill="green" stroke="green" stroke-width="0.120402" points="1070.99,-31.634 1078.38,-24.0337 1067.87,-25.372 1070.99,-31.634"/>
</g>
<!-- &#45;30&#45;&gt;3 -->
<g id="edge118" class="edge"><title>&#45;30&#45;&gt;3</title>
<path fill="none" stroke="green" stroke-width="0.331841" d="M510.25,-77.7816C514.636,-73.3871 520.636,-68.3338 527.091,-65.6985 724.336,14.8191 797.026,-75.498 1005.09,-29.6985 1009.74,-28.6756 1014.58,-27.19 1019.18,-25.5676"/>
<polygon fill="green" stroke="green" stroke-width="0.331841" points="1020.58,-28.7771 1028.66,-21.9241 1018.07,-22.2426 1020.58,-28.7771"/>
</g>
<!-- &#45;31 -->
<g id="node31" class="node"><title>&#45;31</title>
<polygon fill="lightgray" stroke="black" points="564.591,-95.9117 535.591,-95.9117 535.591,-77.9117 564.591,-77.9117 564.591,-95.9117"/>
<text text-anchor="middle" x="550.091" y="-84.7117" font-family="Times New Roman,serif" font-size="9.00">&#45;31</text>
</g>
<!-- &#45;31&#45;&gt;0 -->
<g id="edge119" class="edge"><title>&#45;31&#45;&gt;0</title>
<path fill="none" stroke="red" stroke-width="0.592642" d="M557.732,-77.5233C562.097,-73.2748 567.921,-68.4465 574.091,-65.6985 634.383,-38.8484 836.927,-22.5294 908.103,-17.5118"/>
<polygon fill="red" stroke="red" stroke-width="0.592642" points="908.622,-20.9844 918.357,-16.8036 908.139,-14.001 908.622,-20.9844"/>
</g>
<!-- &#45;31&#45;&gt;1 -->
<g id="edge120" class="edge"><title>&#45;31&#45;&gt;1</title>
<path fill="none" stroke="green" stroke-width="0.518298" d="M557.268,-77.8264C561.66,-73.4468 567.66,-68.3935 574.091,-65.6985 731.777,0.383204 794.193,-81.6185 957.091,-29.6985 958.145,-29.3625 959.204,-28.9751 960.257,-28.5482"/>
<polygon fill="green" stroke="green" stroke-width="0.518298" points="961.999,-31.5897 969.354,-23.9634 958.849,-25.3388 961.999,-31.5897"/>
</g>
<!-- &#45;31&#45;&gt;2 -->
<g id="edge121" class="edge"><title>&#45;31&#45;&gt;2</title>
<path fill="none" stroke="green" stroke-width="0.110859" d="M557.247,-77.7764C561.633,-73.3802 567.633,-68.3269 574.091,-65.6985 777.169,16.9479 856.517,-94.1161 1066.09,-29.6985 1067.15,-29.3734 1068.21,-28.9949 1069.27,-28.5753"/>
<polygon fill="green" stroke="green" stroke-width="0.110859" points="1071,-31.6236 1078.37,-24.0172 1067.86,-25.3642 1071,-31.6236"/>
</g>
<!-- &#45;31&#45;&gt;3 -->
<g id="edge122" class="edge"><title>&#45;31&#45;&gt;3</title>
<path fill="none" stroke="red" stroke-width="0.317468" d="M557.258,-77.8013C561.646,-73.4134 567.646,-68.3601 574.091,-65.6985 751.759,7.67481 817.533,-71.7872 1005.09,-29.6985 1009.73,-28.6566 1014.58,-27.1623 1019.17,-25.5374"/>
<polygon fill="red" stroke="red" stroke-width="0.317468" points="1020.58,-28.7474 1028.66,-21.8963 1018.07,-22.2122 1020.58,-28.7474"/>
</g>
<!-- &#45;32 -->
<g id="node32" class="node"><title>&#45;32</title>
<polygon fill="lightgray" stroke="black" points="611.591,-95.9117 582.591,-95.9117 582.591,-77.9117 611.591,-77.9117 611.591,-95.9117"/>
<text text-anchor="middle" x="597.091" y="-84.7117" font-family="Times New Roman,serif" font-size="9.00">&#45;32</text>
</g>
<!-- &#45;32&#45;&gt;0 -->
<g id="edge123" class="edge"><title>&#45;32&#45;&gt;0</title>
<path fill="none" stroke="green" stroke-width="0.213163" d="M604.754,-77.5736C609.126,-73.3397 614.949,-68.5095 621.091,-65.6985 720.018,-20.4247 852.932,-15.3813 907.79,-15.4063"/>
<polygon fill="green" stroke="green" stroke-width="0.213163" points="907.958,-18.9073 917.98,-15.4721 908.003,-11.9075 907.958,-18.9073"/>
</g>
<!-- &#45;32&#45;&gt;1 -->
<g id="edge124" class="edge"><title>&#45;32&#45;&gt;1</title>
<path fill="none" stroke="green" stroke-width="0.339737" stroke-dasharray="1,5" d="M604.281,-77.8577C608.678,-73.4886 614.678,-68.4353 621.091,-65.6985 759.227,-6.74985 814.296,-76.2371 957.091,-29.6985 957.972,-29.4115 958.856,-29.0894 959.737,-28.7391"/>
<polygon fill="green" stroke="green" stroke-width="0.339737" points="961.446,-31.7983 968.85,-24.2193 958.336,-25.5272 961.446,-31.7983"/>
</g>
<!-- &#45;32&#45;&gt;2 -->
<g id="edge125" class="edge"><title>&#45;32&#45;&gt;2</title>
<path fill="none" stroke="red" stroke-width="0.226703" d="M604.255,-77.795C608.643,-73.405 614.643,-68.3517 621.091,-65.6985 804.59,9.80249 876.65,-88.725 1066.09,-29.6985 1067.15,-29.3693 1068.21,-28.9876 1069.26,-28.5652"/>
<polygon fill="red" stroke="red" stroke-width="0.226703" points="1071,-31.611 1078.36,-23.9972 1067.86,-25.3547 1071,-31.611"/>
</g>
<!-- &#45;32&#45;&gt;3 -->
<g id="edge126" class="edge"><title>&#45;32&#45;&gt;3</title>
<path fill="none" stroke="green" stroke-width="0.362808" d="M604.268,-77.8258C608.66,-73.4461 614.66,-68.3928 621.091,-65.6985 779.193,0.535052 838.028,-68.079 1005.09,-29.6985 1009.73,-28.6331 1014.57,-27.128 1019.16,-25.4999"/>
<polygon fill="green" stroke="green" stroke-width="0.362808" points="1020.57,-28.7104 1028.65,-21.8619 1018.06,-22.1745 1020.57,-28.7104"/>
</g>
<!-- &#45;33 -->
<g id="node33" class="node"><title>&#45;33</title>
<polygon fill="lightgray" stroke="black" points="1927.59,-95.9117 1898.59,-95.9117 1898.59,-77.9117 1927.59,-77.9117 1927.59,-95.9117"/>
<text text-anchor="middle" x="1913.09" y="-84.7117" font-family="Times New Roman,serif" font-size="9.00">&#45;33</text>
</g>
<!-- &#45;33&#45;&gt;1 -->
<g id="edge127" class="edge"><title>&#45;33&#45;&gt;1</title>
<path fill="none" stroke="green" stroke-width="0.276498" d="M1898.1,-79.7489C1885.72,-74.9739 1867.58,-68.6846 1851.09,-65.6985 1486.46,0.342225 1381.22,-103.564 1018.09,-29.6985 1013.43,-28.75 1008.58,-27.2985 1003.98,-25.6863"/>
<polygon fill="green" stroke="green" stroke-width="0.276498" points="1005.08,-22.3618 994.495,-22.0331 1002.57,-28.8939 1005.08,-22.3618"/>
</g>
<!-- &#45;33&#45;&gt;2 -->
<g id="edge128" class="edge"><title>&#45;33&#45;&gt;2</title>
<path fill="none" stroke="red" stroke-width="0.123532" d="M1904.15,-77.746C1898.76,-73.3396 1891.51,-68.2863 1884.09,-65.6985 1737.23,-14.4561 1234.17,-14.7944 1115.37,-15.6158"/>
<polygon fill="red" stroke="red" stroke-width="0.123532" points="1115.08,-12.1179 1105.1,-15.6951 1115.13,-19.1177 1115.08,-12.1179"/>
</g>
<!-- &#45;33&#45;&gt;3 -->
<g id="edge129" class="edge"><title>&#45;33&#45;&gt;3</title>
<path fill="none" stroke="green" stroke-width="0.116155" d="M1904.17,-77.6938C1898.78,-73.2701 1891.53,-68.2168 1884.09,-65.6985 1711.74,-7.36669 1240.77,-80.6253 1066.09,-29.6985 1065.03,-29.3888 1063.96,-29.023 1062.91,-28.6136"/>
<polygon fill="green" stroke="green" stroke-width="0.116155" points="1064.3,-25.4001 1053.79,-24.093 1061.19,-31.6714 1064.3,-25.4001"/>
</g>
<!-- &#45;34 -->
<g id="node34" class="node"><title>&#45;34</title>
<polygon fill="lightgray" stroke="black" points="658.591,-95.9117 629.591,-95.9117 629.591,-77.9117 658.591,-77.9117 658.591,-95.9117"/>
<text text-anchor="middle" x="644.091" y="-84.7117" font-family="Times New Roman,serif" font-size="9.00">&#45;34</text>
</g>
<!-- &#45;34&#45;&gt;0 -->
<g id="edge130" class="edge"><title>&#45;34&#45;&gt;0</title>
<path fill="none" stroke="green" stroke-width="0.281403" d="M651.786,-77.6407C656.167,-73.4266 661.988,-68.5937 668.091,-65.6985 749.905,-26.8869 859.378,-18.2669 908.002,-16.3717"/>
<polygon fill="green" stroke="green" stroke-width="0.281403" points="908.334,-19.8629 918.215,-16.0401 908.107,-12.8665 908.334,-19.8629"/>
</g>
<!-- &#45;34&#45;&gt;1 -->
<g id="edge131" class="edge"><title>&#45;34&#45;&gt;1</title>
<path fill="none" stroke="red" stroke-width="0.195142" d="M651.299,-77.899C655.702,-73.5437 661.702,-68.4904 668.091,-65.6985 786.7,-13.873 834.374,-70.8635 957.091,-29.6985 957.969,-29.404 958.851,-29.0754 959.731,-28.7197"/>
<polygon fill="red" stroke="red" stroke-width="0.195142" points="961.451,-31.7728 968.835,-24.1747 958.325,-25.5098 961.451,-31.7728"/>
</g>
<!-- &#45;34&#45;&gt;2 -->
<g id="edge132" class="edge"><title>&#45;34&#45;&gt;2</title>
<path fill="none" stroke="green" stroke-width="0.4181" d="M651.265,-77.8179C655.656,-73.4355 661.656,-68.3822 668.091,-65.6985 832.02,2.66121 896.773,-83.3372 1066.09,-29.6985 1067.15,-29.3643 1068.21,-28.9784 1069.26,-28.5528"/>
<polygon fill="green" stroke="green" stroke-width="0.4181" points="1071,-31.5955 1078.36,-23.9726 1067.85,-25.3431 1071,-31.5955"/>
</g>
<!-- &#45;34&#45;&gt;3 -->
<g id="edge133" class="edge"><title>&#45;34&#45;&gt;3</title>
<path fill="none" stroke="green" stroke-width="0.239573" d="M651.281,-77.857C655.678,-73.4876 661.678,-68.4343 668.091,-65.6985 806.643,-6.59818 858.507,-64.3746 1005.09,-29.6985 1009.72,-28.6031 1014.56,-27.0843 1019.15,-25.4521"/>
<polygon fill="green" stroke="green" stroke-width="0.239573" points="1020.55,-28.6634 1028.64,-21.818 1018.05,-22.1265 1020.55,-28.6634"/>
</g>
<!-- &#45;35 -->
<g id="node35" class="node"><title>&#45;35</title>
<polygon fill="lightgray" stroke="black" points="705.591,-95.9117 676.591,-95.9117 676.591,-77.9117 705.591,-77.9117 705.591,-95.9117"/>
<text text-anchor="middle" x="691.091" y="-84.7117" font-family="Times New Roman,serif" font-size="9.00">&#45;35</text>
</g>
<!-- &#45;35&#45;&gt;0 -->
<g id="edge134" class="edge"><title>&#45;35&#45;&gt;0</title>
<path fill="none" stroke="green" stroke-width="0.171525" d="M698.832,-77.7349C703.226,-73.5483 709.046,-68.7117 715.091,-65.6985 780.002,-33.3461 866.261,-21.6659 908.149,-17.7153"/>
<polygon fill="green" stroke="green" stroke-width="0.171525" points="908.61,-21.1884 918.268,-16.8322 908.002,-14.2149 908.61,-21.1884"/>
</g>
<!-- &#45;35&#45;&gt;1 -->
<g id="edge135" class="edge"><title>&#45;35&#45;&gt;1</title>
<path fill="none" stroke="red" stroke-width="0.197872" d="M698.742,-77.5472C703.111,-73.3056 708.934,-68.4764 715.091,-65.6985 814.21,-20.9802 854.416,-65.5026 957.091,-29.6985 957.966,-29.3936 958.844,-29.0562 959.722,-28.693"/>
<polygon fill="red" stroke="red" stroke-width="0.197872" points="961.457,-31.7377 968.814,-24.1132 958.308,-25.4859 961.457,-31.7377"/>
</g>
<!-- &#45;35&#45;&gt;2 -->
<g id="edge136" class="edge"><title>&#45;35&#45;&gt;2</title>
<path fill="none" stroke="red" stroke-width="0.161465" d="M698.277,-77.8468C702.672,-73.4741 708.672,-68.4208 715.091,-65.6985 859.464,-4.47423 916.882,-77.9539 1066.09,-29.6985 1067.14,-29.358 1068.2,-28.9669 1069.25,-28.5371"/>
<polygon fill="red" stroke="red" stroke-width="0.161465" points="1071,-31.5759 1078.35,-23.9414 1067.84,-25.3285 1071,-31.5759"/>
</g>
<!-- &#45;35&#45;&gt;3 -->
<g id="edge137" class="edge"><title>&#45;35&#45;&gt;3</title>
<path fill="none" stroke="green" stroke-width="0.195948" d="M698.299,-77.898C702.701,-73.5423 708.701,-68.489 715.091,-65.6985 834.115,-13.7216 878.961,-60.676 1005.09,-29.6985 1009.71,-28.5636 1014.55,-27.0267 1019.14,-25.3891"/>
<polygon fill="green" stroke="green" stroke-width="0.195948" points="1020.54,-28.6013 1028.63,-21.7601 1018.04,-22.0631 1020.54,-28.6013"/>
</g>
<!-- &#45;36 -->
<g id="node36" class="node"><title>&#45;36</title>
<polygon fill="lightgray" stroke="black" points="752.591,-95.9117 723.591,-95.9117 723.591,-77.9117 752.591,-77.9117 752.591,-95.9117"/>
<text text-anchor="middle" x="738.091" y="-84.7117" font-family="Times New Roman,serif" font-size="9.00">&#45;36</text>
</g>
<!-- &#45;36&#45;&gt;0 -->
<g id="edge138" class="edge"><title>&#45;36&#45;&gt;0</title>
<path fill="none" stroke="green" stroke-width="0.173194" d="M745.904,-77.8757C750.32,-73.7304 756.137,-68.8883 762.091,-65.6985 810.3,-39.8725 873.514,-25.9384 907.99,-19.7914"/>
<polygon fill="green" stroke="green" stroke-width="0.173194" points="908.85,-23.1954 918.119,-18.064 907.673,-16.2951 908.85,-23.1954"/>
</g>
<!-- &#45;36&#45;&gt;1 -->
<g id="edge139" class="edge"><title>&#45;36&#45;&gt;1</title>
<path fill="none" stroke="red" stroke-width="0.548426" d="M745.782,-77.6325C750.162,-73.4159 755.983,-68.5834 762.091,-65.6985 841.781,-28.0596 874.393,-60.164 957.091,-29.6985 957.96,-29.3784 958.834,-29.0281 959.708,-28.654"/>
<polygon fill="red" stroke="red" stroke-width="0.548426" points="961.465,-31.6864 968.782,-24.0234 958.283,-25.4513 961.465,-31.6864"/>
</g>
<!-- &#45;36&#45;&gt;2 -->
<g id="edge140" class="edge"><title>&#45;36&#45;&gt;2</title>
<path fill="none" stroke="green" stroke-width="0.356452" d="M745.293,-77.8845C749.693,-73.5243 755.693,-68.471 762.091,-65.6985 886.929,-11.601 936.97,-72.5774 1066.09,-29.6985 1066.97,-29.4066 1067.85,-29.0804 1068.73,-28.7265"/>
<polygon fill="green" stroke="green" stroke-width="0.356452" points="1070.45,-31.7817 1077.84,-24.1904 1067.33,-25.5159 1070.45,-31.7817"/>
</g>
<!-- &#45;36&#45;&gt;3 -->
<g id="edge141" class="edge"><title>&#45;36&#45;&gt;3</title>
<path fill="none" stroke="red" stroke-width="0.277832" d="M745.742,-77.5457C750.11,-73.3037 755.933,-68.4746 762.091,-65.6985 861.624,-20.8293 899.378,-56.9867 1005.09,-29.6985 1009.7,-28.5092 1014.53,-26.9474 1019.12,-25.3024"/>
<polygon fill="red" stroke="red" stroke-width="0.277832" points="1020.51,-28.5159 1028.61,-21.6804 1018.02,-21.976 1020.51,-28.5159"/>
</g>
<!-- &#45;37 -->
<g id="node37" class="node"><title>&#45;37</title>
<polygon fill="lightgray" stroke="black" points="799.591,-95.9117 770.591,-95.9117 770.591,-77.9117 799.591,-77.9117 799.591,-95.9117"/>
<text text-anchor="middle" x="785.091" y="-84.7117" font-family="Times New Roman,serif" font-size="9.00">&#45;37</text>
</g>
<!-- &#45;37&#45;&gt;0 -->
<g id="edge142" class="edge"><title>&#45;37&#45;&gt;0</title>
<path fill="none" stroke="red" stroke-width="0.569646" d="M793.471,-77.7097C797.864,-73.7174 803.488,-69.0656 809.091,-65.6985 841.778,-46.0564 883.604,-31.0884 909.362,-22.8889"/>
<polygon fill="red" stroke="red" stroke-width="0.569646" points="910.514,-26.1963 919.028,-19.8907 908.44,-19.5106 910.514,-26.1963"/>
</g>
<!-- &#45;37&#45;&gt;1 -->
<g id="edge143" class="edge"><title>&#45;37&#45;&gt;1</title>
<path fill="none" stroke="green" stroke-width="0.22596" d="M792.848,-77.7681C797.247,-73.5913 803.067,-68.7534 809.091,-65.6985 869.469,-35.0832 894.25,-54.8706 957.091,-29.6985 957.951,-29.3541 958.817,-28.9833 959.684,-28.5918"/>
<polygon fill="green" stroke="green" stroke-width="0.22596" points="961.475,-31.6049 968.727,-23.8803 958.241,-25.397 961.475,-31.6049"/>
</g>
<!-- &#45;37&#45;&gt;2 -->
<g id="edge144" class="edge"><title>&#45;37&#45;&gt;2</title>
<path fill="none" stroke="green" stroke-width="0.29845" d="M792.733,-77.5263C797.099,-73.2786 802.922,-68.4502 809.091,-65.6985 914.425,-18.7142 957.025,-67.2117 1066.09,-29.6985 1066.97,-29.3973 1067.85,-29.0631 1068.72,-28.7025"/>
<polygon fill="green" stroke="green" stroke-width="0.29845" points="1070.46,-31.7502 1077.82,-24.1352 1067.31,-25.4945 1070.46,-31.7502"/>
</g>
<!-- &#45;37&#45;&gt;3 -->
<g id="edge145" class="edge"><title>&#45;37&#45;&gt;3</title>
<path fill="none" stroke="green" stroke-width="0.206856" d="M792.781,-77.6303C797.16,-73.4131 802.982,-68.5806 809.091,-65.6985 889.193,-27.9094 919.729,-53.3143 1005.09,-29.6985 1009.68,-28.4297 1014.5,-26.8316 1019.08,-25.1757"/>
<polygon fill="green" stroke="green" stroke-width="0.206856" points="1020.47,-28.3911 1028.58,-21.5641 1017.98,-21.8485 1020.47,-28.3911"/>
</g>
<!-- &#45;38 -->
<g id="node38" class="node"><title>&#45;38</title>
<polygon fill="lightgray" stroke="black" points="846.591,-95.9117 817.591,-95.9117 817.591,-77.9117 846.591,-77.9117 846.591,-95.9117"/>
<text text-anchor="middle" x="832.091" y="-84.7117" font-family="Times New Roman,serif" font-size="9.00">&#45;38</text>
</g>
<!-- &#45;38&#45;&gt;0 -->
<g id="edge146" class="edge"><title>&#45;38&#45;&gt;0</title>
<path fill="none" stroke="green" stroke-width="0.291016" d="M841.217,-77.7614C845.608,-73.961 851.012,-69.4583 856.091,-65.6985 874.322,-52.2024 896.104,-38.2924 911.84,-28.6073"/>
<polygon fill="green" stroke="green" stroke-width="0.291016" points="914.054,-31.3571 920.772,-23.1643 910.411,-25.3796 914.054,-31.3571"/>
</g>
<!-- &#45;38&#45;&gt;1 -->
<g id="edge147" class="edge"><title>&#45;38&#45;&gt;1</title>
<path fill="none" stroke="green" stroke-width="0.209078" d="M840.415,-77.6146C844.794,-73.5981 850.422,-68.9533 856.091,-65.6985 897.419,-41.9709 913.832,-49.6894 957.091,-29.6985 957.932,-29.31 958.782,-28.9017 959.635,-28.4786"/>
<polygon fill="green" stroke="green" stroke-width="0.209078" points="961.485,-31.4571 968.614,-23.6197 958.154,-25.3006 961.485,-31.4571"/>
</g>
<!-- &#45;38&#45;&gt;2 -->
<g id="edge148" class="edge"><title>&#45;38&#45;&gt;2</title>
<path fill="none" stroke="green" stroke-width="0.3387" d="M839.767,-77.6013C844.143,-73.3756 849.965,-68.5443 856.091,-65.6985 941.972,-25.8044 977.027,-61.8644 1066.09,-29.6985 1066.96,-29.3839 1067.84,-29.0384 1068.71,-28.6682"/>
<polygon fill="green" stroke="green" stroke-width="0.3387" points="1070.46,-31.7052 1077.79,-24.0563 1067.29,-25.4639 1070.46,-31.7052"/>
</g>
<!-- &#45;38&#45;&gt;3 -->
<g id="edge149" class="edge"><title>&#45;38&#45;&gt;3</title>
<path fill="none" stroke="red" stroke-width="0.243424" stroke-dasharray="1,5" d="M839.846,-77.7644C844.245,-73.5865 850.064,-68.7488 856.091,-65.6985 916.878,-34.9348 939.959,-49.6762 1005.09,-29.6985 1009.64,-28.3032 1014.44,-26.647 1019.02,-24.9739"/>
<polygon fill="red" stroke="red" stroke-width="0.243424" points="1020.41,-28.1921 1028.52,-21.3787 1017.93,-21.6454 1020.41,-28.1921"/>
</g>
<!-- &#45;39 -->
<g id="node39" class="node"><title>&#45;39</title>
<polygon fill="lightgray" stroke="black" points="893.591,-95.9117 864.591,-95.9117 864.591,-77.9117 893.591,-77.9117 893.591,-95.9117"/>
<text text-anchor="middle" x="879.091" y="-84.7117" font-family="Times New Roman,serif" font-size="9.00">&#45;39</text>
</g>
<!-- &#45;39&#45;&gt;0 -->
<g id="edge150" class="edge"><title>&#45;39&#45;&gt;0</title>
<path fill="none" stroke="green" stroke-width="0.411675" d="M885.286,-77.8746C893.27,-67.5161 907.411,-49.1677 918.25,-35.1057"/>
<polygon fill="green" stroke="green" stroke-width="0.411675" points="921.154,-37.0709 924.486,-27.0138 915.61,-32.7976 921.154,-37.0709"/>
</g>
<!-- &#45;39&#45;&gt;1 -->
<g id="edge151" class="edge"><title>&#45;39&#45;&gt;1</title>
<path fill="none" stroke="red" stroke-width="0.655925" d="M888.207,-77.748C892.596,-73.9447 898.001,-69.4434 903.091,-65.6985 921.703,-52.0047 944.014,-37.9683 959.997,-28.2938"/>
<polygon fill="red" stroke="red" stroke-width="0.655925" points="961.822,-31.2802 968.6,-23.1372 958.223,-25.276 961.822,-31.2802"/>
</g>
<!-- &#45;39&#45;&gt;2 -->
<g id="edge152" class="edge"><title>&#45;39&#45;&gt;2</title>
<path fill="none" stroke="red" stroke-width="0.358742" d="M886.823,-77.7169C891.214,-73.5251 897.034,-68.6892 903.091,-65.6985 969.614,-32.8507 996.932,-56.5526 1066.09,-29.6985 1066.95,-29.3633 1067.82,-29.0002 1068.69,-28.6153"/>
<polygon fill="red" stroke="red" stroke-width="0.358742" points="1070.47,-31.6357 1077.75,-23.9344 1067.26,-25.4174 1070.47,-31.6357"/>
</g>
<!-- &#45;39&#45;&gt;3 -->
<g id="edge153" class="edge"><title>&#45;39&#45;&gt;3</title>
<path fill="none" stroke="red" stroke-width="0.304642" d="M887.411,-77.6072C891.789,-73.5888 897.417,-68.9445 903.091,-65.6985 944.82,-41.8271 959.911,-46.1254 1005.09,-29.6985 1009.56,-28.0726 1014.33,-26.3108 1018.9,-24.6062"/>
<polygon fill="red" stroke="red" stroke-width="0.304642" points="1020.27,-27.8291 1028.41,-21.041 1017.82,-21.2747 1020.27,-27.8291"/>
</g>
<!-- &#45;40 -->
<g id="node40" class="node"><title>&#45;40</title>
<polygon fill="lightgray" stroke="black" points="940.591,-95.9117 911.591,-95.9117 911.591,-77.9117 940.591,-77.9117 940.591,-95.9117"/>
<text text-anchor="middle" x="926.091" y="-84.7117" font-family="Times New Roman,serif" font-size="9.00">&#45;40</text>
</g>
<!-- &#45;40&#45;&gt;0 -->
<g id="edge154" class="edge"><title>&#45;40&#45;&gt;0</title>
<path fill="none" stroke="red" stroke-width="0.623437" d="M926.894,-77.8746C927.809,-68.7202 929.347,-53.3256 930.662,-40.1641"/>
<polygon fill="red" stroke="red" stroke-width="0.623437" points="934.184,-40.1181 931.695,-29.8197 927.219,-39.4221 934.184,-40.1181"/>
</g>
<!-- &#45;40&#45;&gt;1 -->
<g id="edge155" class="edge"><title>&#45;40&#45;&gt;1</title>
<path fill="none" stroke="green" stroke-width="0.17991" d="M932.4,-77.8746C940.532,-67.5161 954.936,-49.1677 965.975,-35.1057"/>
<polygon fill="green" stroke="green" stroke-width="0.17991" points="968.905,-37.0409 972.327,-27.0138 963.399,-32.7185 968.905,-37.0409"/>
</g>
<!-- &#45;40&#45;&gt;2 -->
<g id="edge156" class="edge"><title>&#45;40&#45;&gt;2</title>
<path fill="none" stroke="green" stroke-width="0.217318" d="M934.359,-77.5145C938.724,-73.4725 944.356,-68.835 950.091,-65.6985 997.453,-39.7977 1016.63,-51.3222 1066.09,-29.6985 1066.94,-29.3275 1067.8,-28.9341 1068.66,-28.5235"/>
<polygon fill="green" stroke="green" stroke-width="0.217318" points="1070.48,-31.5157 1077.66,-23.7232 1067.19,-25.3384 1070.48,-31.5157"/>
</g>
<!-- &#45;40&#45;&gt;3 -->
<g id="edge157" class="edge"><title>&#45;40&#45;&gt;3</title>
<path fill="none" stroke="red" stroke-width="0.222004" d="M935.089,-77.5812C939.452,-73.7413 944.87,-69.2575 950.091,-65.6985 972.717,-50.2773 1000.59,-35.7347 1019.69,-26.3821"/>
<polygon fill="red" stroke="red" stroke-width="0.222004" points="1021.32,-29.4834 1028.81,-21.9871 1018.28,-23.1782 1021.32,-29.4834"/>
</g>
<!-- 205&#45;&gt;1 -->
<g id="edge159" class="edge"><title>205&#45;&gt;1</title>
<path fill="none" stroke="red" stroke-width="0.292156" d="M104.148,-73.8763C109.63,-70.6219 115.893,-67.5036 122.091,-65.6985 478.729,38.171 600.435,-133.505 957.091,-29.6985 958.154,-29.3893 959.219,-29.0238 960.278,-28.6148"/>
<polygon fill="red" stroke="red" stroke-width="0.292156" points="961.989,-31.6729 969.394,-24.0954 958.88,-25.4012 961.989,-31.6729"/>
</g>
</g>
</svg>
