<?xml version="1.0" encoding="UTF-8" standalone="no"?>
<!DOCTYPE svg PUBLIC "-//W3C//DTD SVG 1.1//EN"
 "http://www.w3.org/Graphics/SVG/1.1/DTD/svg11.dtd">
<!-- Generated by graphviz version 2.38.0 (20140413.2041)
 -->
<!-- Title: %3 Pages: 1 -->
<svg width="1932pt" height="170pt"
 viewBox="0.00 0.00 1932.37 170.12" xmlns="http://www.w3.org/2000/svg" xmlns:xlink="http://www.w3.org/1999/xlink">
<g id="graph0" class="graph" transform="scale(1 1) rotate(0) translate(4 166.125)">
<title>%3</title>
<polygon fill="white" stroke="none" points="-4,4 -4,-166.125 1928.37,-166.125 1928.37,4 -4,4"/>
<!-- &#45;1 -->
<g id="node1" class="node"><title>&#45;1</title>
<polygon fill="lightgray" stroke="black" points="867.787,-95.9117 843.787,-95.9117 843.787,-77.9117 867.787,-77.9117 867.787,-95.9117"/>
<text text-anchor="middle" x="855.787" y="-84.7117" font-family="Times New Roman,serif" font-size="9.00">&#45;1</text>
</g>
<!-- 0 -->
<g id="node41" class="node"><title>0</title>
<ellipse fill="lightblue" stroke="black" cx="785.787" cy="-14.8492" rx="14.7" ry="14.7"/>
<text text-anchor="middle" x="785.787" y="-12.6492" font-family="Times New Roman,serif" font-size="9.00">0</text>
</g>
<!-- &#45;1&#45;&gt;0 -->
<g id="edge1" class="edge"><title>&#45;1&#45;&gt;0</title>
<path fill="none" stroke="red" stroke-width="0.161063" d="M847.758,-77.8746C836.971,-67.0781 817.511,-47.6015 803.268,-33.3456"/>
<polygon fill="red" stroke="red" stroke-width="0.161063" points="805.524,-30.6514 795.98,-26.051 800.572,-35.599 805.524,-30.6514"/>
</g>
<!-- 1 -->
<g id="node42" class="node"><title>1</title>
<ellipse fill="lightblue" stroke="black" cx="946.787" cy="-14.8492" rx="14.7" ry="14.7"/>
<text text-anchor="middle" x="946.787" y="-12.6492" font-family="Times New Roman,serif" font-size="9.00">1</text>
</g>
<!-- &#45;1&#45;&gt;1 -->
<g id="edge2" class="edge"><title>&#45;1&#45;&gt;1</title>
<path fill="none" stroke="green" stroke-width="0.12421" stroke-dasharray="1,5" d="M864.147,-77.8007C868.171,-74.0089 873.126,-69.5021 877.787,-65.6985 893.568,-52.8232 912.354,-39.364 926.337,-29.6807"/>
<polygon fill="green" stroke="green" stroke-width="0.12421" points="928.487,-32.4505 934.752,-23.9068 924.526,-26.6785 928.487,-32.4505"/>
</g>
<!-- 2 -->
<g id="node43" class="node"><title>2</title>
<ellipse fill="lightblue" stroke="black" cx="833.787" cy="-14.8492" rx="14.7" ry="14.7"/>
<text text-anchor="middle" x="833.787" y="-12.6492" font-family="Times New Roman,serif" font-size="9.00">2</text>
</g>
<!-- &#45;1&#45;&gt;2 -->
<g id="edge3" class="edge"><title>&#45;1&#45;&gt;2</title>
<path fill="none" stroke="green" stroke-width="0.226146" d="M853.264,-77.8746C850.296,-68.4226 845.239,-52.3178 841.022,-38.8876"/>
<polygon fill="green" stroke="green" stroke-width="0.226146" points="844.344,-37.7853 838.009,-29.2932 837.666,-39.8825 844.344,-37.7853"/>
</g>
<!-- 3 -->
<g id="node44" class="node"><title>3</title>
<ellipse fill="lightblue" stroke="black" cx="994.787" cy="-14.8492" rx="14.7" ry="14.7"/>
<text text-anchor="middle" x="994.787" y="-12.6492" font-family="Times New Roman,serif" font-size="9.00">3</text>
</g>
<!-- &#45;1&#45;&gt;3 -->
<g id="edge4" class="edge"><title>&#45;1&#45;&gt;3</title>
<path fill="none" stroke="red" stroke-width="0.254898" d="M863.342,-77.6412C867.337,-73.6315 872.502,-68.9847 877.787,-65.6985 915.428,-42.2975 930.808,-48.8314 970.787,-29.6985 971.623,-29.2987 972.468,-28.8808 973.317,-28.4496"/>
<polygon fill="red" stroke="red" stroke-width="0.254898" points="975.182,-31.4194 982.279,-23.5531 971.825,-25.2765 975.182,-31.4194"/>
</g>
<!-- &#45;2 -->
<g id="node2" class="node"><title>&#45;2</title>
<polygon fill="lightgray" stroke="black" points="1615.79,-95.9117 1591.79,-95.9117 1591.79,-77.9117 1615.79,-77.9117 1615.79,-95.9117"/>
<text text-anchor="middle" x="1603.79" y="-84.7117" font-family="Times New Roman,serif" font-size="9.00">&#45;2</text>
</g>
<!-- &#45;2&#45;&gt;0 -->
<g id="edge5" class="edge"><title>&#45;2&#45;&gt;0</title>
<path fill="none" stroke="red" stroke-width="0.406344" d="M1597.75,-77.7255C1593.99,-73.3124 1588.74,-68.2591 1582.79,-65.6985 1424.83,2.28352 974.817,-78.0403 809.787,-29.6985 808.726,-29.3874 807.661,-29.0205 806.602,-28.6102"/>
<polygon fill="red" stroke="red" stroke-width="0.406344" points="808.001,-25.3969 797.487,-24.0864 804.889,-31.6672 808.001,-25.3969"/>
</g>
<!-- &#45;2&#45;&gt;1 -->
<g id="edge6" class="edge"><title>&#45;2&#45;&gt;1</title>
<path fill="none" stroke="green" stroke-width="0.147376" d="M1597.74,-77.7528C1593.97,-73.3487 1588.72,-68.2954 1582.79,-65.6985 1457.98,-11.0776 1101.29,-68.7943 970.787,-29.6985 969.728,-29.381 968.664,-29.0087 967.607,-28.5941"/>
<polygon fill="green" stroke="green" stroke-width="0.147376" points="969.008,-25.3818 958.497,-24.0544 965.886,-31.6471 969.008,-25.3818"/>
</g>
<!-- &#45;2&#45;&gt;2 -->
<g id="edge7" class="edge"><title>&#45;2&#45;&gt;2</title>
<path fill="none" stroke="green" stroke-width="0.217782" d="M1597.74,-77.7433C1593.98,-73.336 1588.73,-68.2827 1582.79,-65.6985 1448.1,-7.09493 1068.87,-45.01 922.787,-29.6985 900.79,-27.3928 875.931,-23.4071 858.087,-20.3018"/>
<polygon fill="green" stroke="green" stroke-width="0.217782" points="858.678,-16.852 848.22,-18.5498 857.454,-23.7442 858.678,-16.852"/>
</g>
<!-- &#45;2&#45;&gt;3 -->
<g id="edge8" class="edge"><title>&#45;2&#45;&gt;3</title>
<path fill="none" stroke="red" stroke-width="0.104475" stroke-dasharray="1,5" d="M1597.71,-77.8101C1593.94,-73.4251 1588.69,-68.3718 1582.79,-65.6985 1480.02,-19.1316 1118.81,-15.7942 1019.96,-15.7699"/>
<polygon fill="red" stroke="red" stroke-width="0.104475" points="1019.72,-12.27 1009.73,-15.7796 1019.73,-19.27 1019.72,-12.27"/>
</g>
<!-- &#45;3 -->
<g id="node3" class="node"><title>&#45;3</title>
<polygon fill="lightgray" stroke="black" points="97.7875,-95.9117 73.7875,-95.9117 73.7875,-77.9117 97.7875,-77.9117 97.7875,-95.9117"/>
<text text-anchor="middle" x="85.7875" y="-84.7117" font-family="Times New Roman,serif" font-size="9.00">&#45;3</text>
</g>
<!-- &#45;3&#45;&gt;0 -->
<g id="edge9" class="edge"><title>&#45;3&#45;&gt;0</title>
<path fill="none" stroke="red" stroke-width="0.251918" d="M91.8514,-77.785C95.6227,-73.3917 100.873,-68.3384 106.787,-65.6985 227.062,-12.0163 652.52,-14.0217 760.648,-15.4404"/>
<polygon fill="red" stroke="red" stroke-width="0.251918" points="760.859,-18.9436 770.908,-15.5863 760.959,-11.9443 760.859,-18.9436"/>
</g>
<!-- &#45;3&#45;&gt;1 -->
<g id="edge10" class="edge"><title>&#45;3&#45;&gt;1</title>
<path fill="none" stroke="green" stroke-width="0.459449" d="M91.8266,-77.7286C95.5896,-73.3165 100.84,-68.2632 106.787,-65.6985 183.5,-32.6205 774.674,-38.133 857.787,-29.6985 879.793,-27.4654 904.651,-23.472 922.492,-20.3453"/>
<polygon fill="green" stroke="green" stroke-width="0.459449" points="923.131,-23.7867 932.358,-18.5793 921.898,-16.8962 923.131,-23.7867"/>
</g>
<!-- &#45;3&#45;&gt;2 -->
<g id="edge11" class="edge"><title>&#45;3&#45;&gt;2</title>
<path fill="none" stroke="green" stroke-width="0.29567" d="M91.8297,-77.7359C95.5938,-73.3262 100.844,-68.2729 106.787,-65.6985 250.328,-3.5265 659.771,-74.0197 809.787,-29.6985 810.849,-29.385 811.913,-29.016 812.971,-28.6041"/>
<polygon fill="green" stroke="green" stroke-width="0.29567" points="814.687,-31.6595 822.084,-24.0743 811.571,-25.3912 814.687,-31.6595"/>
</g>
<!-- &#45;3&#45;&gt;3 -->
<g id="edge12" class="edge"><title>&#45;3&#45;&gt;3</title>
<path fill="none" stroke="green" stroke-width="0.35523" d="M91.8206,-77.7146C95.5816,-73.2978 100.832,-68.2445 106.787,-65.6985 283.486,9.83787 786.239,-83.268 970.787,-29.6985 971.85,-29.39 972.915,-29.0252 973.975,-28.6167"/>
<polygon fill="green" stroke="green" stroke-width="0.35523" points="975.685,-31.6752 983.091,-24.0992 972.577,-25.403 975.685,-31.6752"/>
</g>
<!-- &#45;4 -->
<g id="node4" class="node"><title>&#45;4</title>
<polygon fill="lightgray" stroke="black" points="139.787,-95.9117 115.787,-95.9117 115.787,-77.9117 139.787,-77.9117 139.787,-95.9117"/>
<text text-anchor="middle" x="127.787" y="-84.7117" font-family="Times New Roman,serif" font-size="9.00">&#45;4</text>
</g>
<!-- &#45;4&#45;&gt;0 -->
<g id="edge13" class="edge"><title>&#45;4&#45;&gt;0</title>
<path fill="none" stroke="red" stroke-width="0.770362" d="M133.856,-77.7957C137.629,-73.406 142.879,-68.3527 148.787,-65.6985 260.94,-15.3175 656.487,-14.8103 760.548,-15.5802"/>
<polygon fill="red" stroke="red" stroke-width="0.770362" points="760.705,-19.0816 770.735,-15.6671 760.765,-12.0818 760.705,-19.0816"/>
</g>
<!-- &#45;4&#45;&gt;1 -->
<g id="edge14" class="edge"><title>&#45;4&#45;&gt;1</title>
<path fill="none" stroke="red" stroke-width="0.419592" stroke-dasharray="1,5" d="M133.829,-77.7349C137.593,-73.3249 142.843,-68.2716 148.787,-65.6985 293.564,-3.02854 700.858,-45.8486 857.787,-29.6985 879.79,-27.4342 904.648,-23.4441 922.49,-20.3266"/>
<polygon fill="red" stroke="red" stroke-width="0.419592" points="923.127,-23.7684 932.357,-18.5666 921.897,-16.8772 923.127,-23.7684"/>
</g>
<!-- &#45;4&#45;&gt;2 -->
<g id="edge15" class="edge"><title>&#45;4&#45;&gt;2</title>
<path fill="none" stroke="green" stroke-width="0.233177" d="M133.833,-77.7431C137.598,-73.3358 142.848,-68.2825 148.787,-65.6985 283.681,-7.01195 668.777,-71.6077 809.787,-29.6985 810.848,-29.3833 811.912,-29.0129 812.97,-28.5998"/>
<polygon fill="green" stroke="green" stroke-width="0.233177" points="814.688,-31.6542 822.082,-24.0658 811.57,-25.3872 814.688,-31.6542"/>
</g>
<!-- &#45;4&#45;&gt;3 -->
<g id="edge16" class="edge"><title>&#45;4&#45;&gt;3</title>
<path fill="none" stroke="green" stroke-width="0.191019" d="M133.823,-77.7194C137.584,-73.3042 142.834,-68.2509 148.787,-65.6985 316.835,6.35109 795.248,-80.8551 970.787,-29.6985 971.85,-29.3889 972.915,-29.0232 973.974,-28.6139"/>
<polygon fill="green" stroke="green" stroke-width="0.191019" points="975.686,-31.6717 983.09,-24.0936 972.576,-25.4004 975.686,-31.6717"/>
</g>
<!-- &#45;5 -->
<g id="node5" class="node"><title>&#45;5</title>
<polygon fill="lightgray" stroke="black" points="181.787,-95.9117 157.787,-95.9117 157.787,-77.9117 181.787,-77.9117 181.787,-95.9117"/>
<text text-anchor="middle" x="169.787" y="-84.7117" font-family="Times New Roman,serif" font-size="9.00">&#45;5</text>
</g>
<!-- &#45;5&#45;&gt;0 -->
<g id="edge17" class="edge"><title>&#45;5&#45;&gt;0</title>
<path fill="none" stroke="green" stroke-width="0.202846" stroke-dasharray="1,5" d="M175.862,-77.8079C179.636,-73.4222 184.886,-68.3689 190.787,-65.6985 294.91,-18.5812 661.094,-15.6484 760.645,-15.741"/>
<polygon fill="green" stroke="green" stroke-width="0.202846" points="760.929,-19.2415 770.936,-15.7628 760.944,-12.2415 760.929,-19.2415"/>
</g>
<!-- &#45;5&#45;&gt;1 -->
<g id="edge18" class="edge"><title>&#45;5&#45;&gt;1</title>
<path fill="none" stroke="green" stroke-width="0.115485" d="M175.832,-77.742C179.597,-73.3343 184.847,-68.281 190.787,-65.6985 326.916,-6.51406 710.154,-45.1298 857.787,-29.6985 879.786,-27.3991 904.645,-23.4128 922.488,-20.3056"/>
<polygon fill="green" stroke="green" stroke-width="0.115485" points="923.122,-23.7479 932.355,-18.5523 921.897,-16.8558 923.122,-23.7479"/>
</g>
<!-- &#45;5&#45;&gt;2 -->
<g id="edge19" class="edge"><title>&#45;5&#45;&gt;2</title>
<path fill="none" stroke="red" stroke-width="0.407631" d="M175.836,-77.7513C179.603,-73.3467 184.853,-68.2934 190.787,-65.6985 317.034,-10.4969 677.782,-69.1962 809.787,-29.6985 810.847,-29.3813 811.911,-29.0093 812.968,-28.595"/>
<polygon fill="red" stroke="red" stroke-width="0.407631" points="814.689,-31.6481 822.079,-24.0562 811.567,-25.3826 814.689,-31.6481"/>
</g>
<!-- &#45;5&#45;&gt;3 -->
<g id="edge20" class="edge"><title>&#45;5&#45;&gt;3</title>
<path fill="none" stroke="green" stroke-width="0.555691" d="M175.825,-77.7246C179.587,-73.3112 184.837,-68.2579 190.787,-65.6985 350.185,2.86458 804.257,-78.4424 970.787,-29.6985 971.849,-29.3877 972.914,-29.0209 973.973,-28.6108"/>
<polygon fill="green" stroke="green" stroke-width="0.555691" points="975.686,-31.6679 983.088,-24.0874 972.574,-25.3974 975.686,-31.6679"/>
</g>
<!-- &#45;6 -->
<g id="node6" class="node"><title>&#45;6</title>
<polygon fill="lightgray" stroke="black" points="55.7875,-95.9117 31.7875,-95.9117 31.7875,-77.9117 55.7875,-77.9117 55.7875,-95.9117"/>
<text text-anchor="middle" x="43.7875" y="-84.7117" font-family="Times New Roman,serif" font-size="9.00">&#45;6</text>
</g>
<!-- &#45;6&#45;&gt;0 -->
<g id="edge21" class="edge"><title>&#45;6&#45;&gt;0</title>
<path fill="none" stroke="red" stroke-width="0.249081" d="M49.8471,-77.7756C53.617,-73.3791 58.867,-68.3258 64.7875,-65.6985 129.57,-36.9493 641.648,-20.1164 760.988,-16.5603"/>
<polygon fill="red" stroke="red" stroke-width="0.249081" points="761.099,-20.0587 770.991,-16.2662 760.893,-13.0617 761.099,-20.0587"/>
</g>
<!-- &#45;6&#45;&gt;1 -->
<g id="edge22" class="edge"><title>&#45;6&#45;&gt;1</title>
<path fill="none" stroke="red" stroke-width="0.222776" d="M49.8241,-77.7229C53.5864,-73.3089 58.8364,-68.2556 64.7875,-65.6985 145.825,-30.8774 770.025,-38.4925 857.787,-29.6985 879.796,-27.4932 904.654,-23.497 922.494,-20.3621"/>
<polygon fill="red" stroke="red" stroke-width="0.222776" points="923.135,-23.803 932.359,-18.5906 921.898,-16.9132 923.135,-23.803"/>
</g>
<!-- &#45;6&#45;&gt;2 -->
<g id="edge23" class="edge"><title>&#45;6&#45;&gt;2</title>
<path fill="none" stroke="red" stroke-width="0.255056" d="M49.8269,-77.7294C53.5901,-73.3176 58.8401,-68.2643 64.7875,-65.6985 216.977,-0.0406085 650.763,-76.4319 809.787,-29.6985 810.849,-29.3865 811.914,-29.0188 812.972,-28.6079"/>
<polygon fill="red" stroke="red" stroke-width="0.255056" points="814.687,-31.6643 822.086,-24.0818 811.573,-25.3948 814.687,-31.6643"/>
</g>
<!-- &#45;7 -->
<g id="node7" class="node"><title>&#45;7</title>
<polygon fill="lightgray" stroke="black" points="223.787,-95.9117 199.787,-95.9117 199.787,-77.9117 223.787,-77.9117 223.787,-95.9117"/>
<text text-anchor="middle" x="211.787" y="-84.7117" font-family="Times New Roman,serif" font-size="9.00">&#45;7</text>
</g>
<!-- &#45;7&#45;&gt;0 -->
<g id="edge24" class="edge"><title>&#45;7&#45;&gt;0</title>
<path fill="none" stroke="green" stroke-width="0.254153" d="M217.868,-77.8218C221.645,-73.4408 226.895,-68.3875 232.787,-65.6985 328.849,-21.8629 665.479,-16.5469 760.588,-15.9254"/>
<polygon fill="green" stroke="green" stroke-width="0.254153" points="760.738,-19.4248 770.72,-15.8716 760.701,-12.4249 760.738,-19.4248"/>
</g>
<!-- &#45;7&#45;&gt;1 -->
<g id="edge25" class="edge"><title>&#45;7&#45;&gt;1</title>
<path fill="none" stroke="red" stroke-width="0.153154" d="M217.836,-77.7501C221.602,-73.3451 226.852,-68.2918 232.787,-65.6985 360.27,-9.99906 719.449,-44.4111 857.787,-29.6985 879.782,-27.3593 904.641,-23.3772 922.485,-20.2817"/>
<polygon fill="red" stroke="red" stroke-width="0.153154" points="923.116,-23.7246 932.353,-18.5361 921.897,-16.8316 923.116,-23.7246"/>
</g>
<!-- &#45;7&#45;&gt;2 -->
<g id="edge26" class="edge"><title>&#45;7&#45;&gt;2</title>
<path fill="none" stroke="green" stroke-width="0.258702" d="M217.841,-77.7607C221.608,-73.3592 226.858,-68.3059 232.787,-65.6985 350.39,-13.9812 686.785,-66.785 809.787,-29.6985 810.847,-29.3791 811.91,-29.0053 812.966,-28.5894"/>
<polygon fill="green" stroke="green" stroke-width="0.258702" points="814.69,-31.6412 822.075,-24.0452 811.565,-25.3774 814.69,-31.6412"/>
</g>
<!-- &#45;7&#45;&gt;3 -->
<g id="edge27" class="edge"><title>&#45;7&#45;&gt;3</title>
<path fill="none" stroke="green" stroke-width="0.458039" d="M217.827,-77.7305C221.591,-73.319 226.841,-68.2657 232.787,-65.6985 383.536,-0.621617 813.265,-76.0299 970.787,-29.6985 971.849,-29.3863 972.913,-29.0184 973.972,-28.6073"/>
<polygon fill="green" stroke="green" stroke-width="0.458039" points="975.687,-31.6635 983.086,-24.0806 972.573,-25.3942 975.687,-31.6635"/>
</g>
<!-- &#45;8 -->
<g id="node8" class="node"><title>&#45;8</title>
<polygon fill="lightgray" stroke="black" points="265.787,-95.9117 241.787,-95.9117 241.787,-77.9117 265.787,-77.9117 265.787,-95.9117"/>
<text text-anchor="middle" x="253.787" y="-84.7117" font-family="Times New Roman,serif" font-size="9.00">&#45;8</text>
</g>
<!-- &#45;8&#45;&gt;0 -->
<g id="edge28" class="edge"><title>&#45;8&#45;&gt;0</title>
<path fill="none" stroke="red" stroke-width="0.206505" d="M259.875,-77.8381C263.655,-73.4624 268.905,-68.4091 274.787,-65.6985 362.799,-25.1451 669.932,-17.5188 760.479,-16.1413"/>
<polygon fill="red" stroke="red" stroke-width="0.206505" points="760.697,-19.6387 770.647,-15.9996 760.599,-12.6394 760.697,-19.6387"/>
</g>
<!-- &#45;8&#45;&gt;1 -->
<g id="edge29" class="edge"><title>&#45;8&#45;&gt;1</title>
<path fill="none" stroke="green" stroke-width="0.237066" d="M259.84,-77.7593C263.607,-73.3573 268.857,-68.304 274.787,-65.6985 393.624,-13.4834 728.742,-43.6927 857.787,-29.6985 879.777,-27.3139 904.637,-23.3365 922.482,-20.2544"/>
<polygon fill="green" stroke="green" stroke-width="0.237066" points="923.109,-23.6979 932.351,-18.5176 921.896,-16.8038 923.109,-23.6979"/>
</g>
<!-- &#45;8&#45;&gt;2 -->
<g id="edge30" class="edge"><title>&#45;8&#45;&gt;2</title>
<path fill="none" stroke="red" stroke-width="0.286278" d="M259.845,-77.7715C263.615,-73.3737 268.865,-68.3204 274.787,-65.6985 383.746,-17.4646 695.787,-64.3745 809.787,-29.6985 810.846,-29.3765 811.908,-29.0006 812.965,-28.583"/>
<polygon fill="red" stroke="red" stroke-width="0.286278" points="814.691,-31.6332 822.072,-24.0324 811.562,-25.3714 814.691,-31.6332"/>
</g>
<!-- &#45;8&#45;&gt;3 -->
<g id="edge31" class="edge"><title>&#45;8&#45;&gt;3</title>
<path fill="none" stroke="red" stroke-width="0.465459" d="M259.83,-77.737C263.594,-73.3277 268.844,-68.2744 274.787,-65.6985 416.887,-4.10744 822.272,-73.6177 970.787,-29.6985 971.848,-29.3847 972.913,-29.0155 973.971,-28.6034"/>
<polygon fill="red" stroke="red" stroke-width="0.465459" points="975.687,-31.6587 983.084,-24.0729 972.571,-25.3905 975.687,-31.6587"/>
</g>
<!-- &#45;9 -->
<g id="node9" class="node"><title>&#45;9</title>
<polygon fill="lightgray" stroke="black" points="307.787,-95.9117 283.787,-95.9117 283.787,-77.9117 307.787,-77.9117 307.787,-95.9117"/>
<text text-anchor="middle" x="295.787" y="-84.7117" font-family="Times New Roman,serif" font-size="9.00">&#45;9</text>
</g>
<!-- &#45;9&#45;&gt;0 -->
<g id="edge32" class="edge"><title>&#45;9&#45;&gt;0</title>
<path fill="none" stroke="red" stroke-width="0.310375" stroke-dasharray="1,5" d="M302.25,-77.8564C306.238,-73.4868 311.738,-68.4335 317.787,-65.6985 398.031,-29.4198 674.939,-18.8931 760.439,-16.4723"/>
<polygon fill="red" stroke="red" stroke-width="0.310375" points="760.645,-19.9682 770.546,-16.1992 760.455,-12.9707 760.645,-19.9682"/>
</g>
<!-- &#45;9&#45;&gt;1 -->
<g id="edge33" class="edge"><title>&#45;9&#45;&gt;1</title>
<path fill="none" stroke="green" stroke-width="0.353894" d="M302.211,-77.7663C306.185,-73.3667 311.685,-68.3134 317.787,-65.6985 428.333,-18.3299 738.254,-42.9573 857.787,-29.6985 879.771,-27.26 904.632,-23.2883 922.479,-20.222"/>
<polygon fill="green" stroke="green" stroke-width="0.353894" points="923.102,-23.6663 932.349,-18.4957 921.896,-16.771 923.102,-23.6663"/>
</g>
<!-- &#45;9&#45;&gt;2 -->
<g id="edge34" class="edge"><title>&#45;9&#45;&gt;2</title>
<path fill="none" stroke="green" stroke-width="0.191894" d="M302.217,-77.7811C306.193,-73.3864 311.693,-68.3331 317.787,-65.6985 519.036,21.3085 600.213,-94.1161 809.787,-29.6985 810.845,-29.3734 811.906,-28.9949 812.962,-28.5753"/>
<polygon fill="green" stroke="green" stroke-width="0.191894" points="814.692,-31.6236 822.067,-24.0172 811.558,-25.3642 814.692,-31.6236"/>
</g>
<!-- &#45;9&#45;&gt;3 -->
<g id="edge35" class="edge"><title>&#45;9&#45;&gt;3</title>
<path fill="none" stroke="green" stroke-width="0.101647" d="M302.199,-77.7399C306.17,-73.3316 311.67,-68.2783 317.787,-65.6985 451.698,-9.22626 831.492,-71.1483 970.787,-29.6985 971.848,-29.3829 972.912,-29.0123 973.969,-28.599"/>
<polygon fill="green" stroke="green" stroke-width="0.101647" points="975.688,-31.6531 983.081,-24.064 972.569,-25.3863 975.688,-31.6531"/>
</g>
<!-- &#45;10 -->
<g id="node10" class="node"><title>&#45;10</title>
<polygon fill="lightgray" stroke="black" points="355.287,-95.9117 326.287,-95.9117 326.287,-77.9117 355.287,-77.9117 355.287,-95.9117"/>
<text text-anchor="middle" x="340.787" y="-84.7117" font-family="Times New Roman,serif" font-size="9.00">&#45;10</text>
</g>
<!-- &#45;10&#45;&gt;0 -->
<g id="edge36" class="edge"><title>&#45;10&#45;&gt;0</title>
<path fill="none" stroke="green" stroke-width="0.416112" d="M347.989,-77.8844C352.389,-73.5243 358.389,-68.471 364.787,-65.6985 436.865,-34.4647 681.45,-20.6595 760.746,-16.9339"/>
<polygon fill="green" stroke="green" stroke-width="0.416112" points="760.974,-20.4272 770.803,-16.4743 760.654,-13.4345 760.974,-20.4272"/>
</g>
<!-- &#45;10&#45;&gt;1 -->
<g id="edge37" class="edge"><title>&#45;10&#45;&gt;1</title>
<path fill="none" stroke="green" stroke-width="0.287836" d="M347.943,-77.776C352.329,-73.3797 358.329,-68.3264 364.787,-65.6985 466.535,-24.2993 748.649,-42.1538 857.787,-29.6985 879.763,-27.1905 904.625,-23.2261 922.474,-20.1803"/>
<polygon fill="green" stroke="green" stroke-width="0.287836" points="923.091,-23.6256 932.346,-18.4675 921.895,-16.7286 923.091,-23.6256"/>
</g>
<!-- &#45;10&#45;&gt;2 -->
<g id="edge38" class="edge"><title>&#45;10&#45;&gt;2</title>
<path fill="none" stroke="green" stroke-width="0.301499" d="M347.951,-77.795C352.339,-73.405 358.339,-68.3517 364.787,-65.6985 548.286,9.80249 620.346,-88.725 809.787,-29.6985 810.844,-29.3693 811.904,-28.9876 812.959,-28.5652"/>
<polygon fill="green" stroke="green" stroke-width="0.301499" points="814.693,-31.611 822.061,-23.9972 811.553,-25.3547 814.693,-31.611"/>
</g>
<!-- &#45;10&#45;&gt;3 -->
<g id="edge39" class="edge"><title>&#45;10&#45;&gt;3</title>
<path fill="none" stroke="red" stroke-width="0.134434" d="M347.93,-77.7432C352.311,-73.3359 358.311,-68.2826 364.787,-65.6985 490.086,-15.704 841.569,-68.4498 970.787,-29.6985 971.847,-29.3807 972.91,-29.0082 973.968,-28.5934"/>
<polygon fill="red" stroke="red" stroke-width="0.134434" points="975.689,-31.6461 983.078,-24.0529 972.567,-25.3811 975.689,-31.6461"/>
</g>
<!-- &#45;11 -->
<g id="node11" class="node"><title>&#45;11</title>
<polygon fill="lightgray" stroke="black" points="1663.29,-95.9117 1634.29,-95.9117 1634.29,-77.9117 1663.29,-77.9117 1663.29,-95.9117"/>
<text text-anchor="middle" x="1648.79" y="-84.7117" font-family="Times New Roman,serif" font-size="9.00">&#45;11</text>
</g>
<!-- &#45;11&#45;&gt;0 -->
<g id="edge40" class="edge"><title>&#45;11&#45;&gt;0</title>
<path fill="none" stroke="green" stroke-width="0.420438" d="M1641.66,-77.7062C1637.28,-73.2866 1631.28,-68.2333 1624.79,-65.6985 1455.9,0.204404 983.825,-80.4529 809.787,-29.6985 808.725,-29.3887 807.66,-29.0228 806.601,-28.6134"/>
<polygon fill="green" stroke="green" stroke-width="0.420438" points="807.999,-25.3999 797.485,-24.0926 804.889,-31.6711 807.999,-25.3999"/>
</g>
<!-- &#45;11&#45;&gt;1 -->
<g id="edge41" class="edge"><title>&#45;11&#45;&gt;1</title>
<path fill="none" stroke="red" stroke-width="0.221602" d="M1641.65,-77.7326C1637.27,-73.3218 1631.27,-68.2685 1624.79,-65.6985 1489.48,-12.0513 1110.3,-71.2058 970.787,-29.6985 969.727,-29.383 968.663,-29.0123 967.606,-28.5991"/>
<polygon fill="red" stroke="red" stroke-width="0.221602" points="969.006,-25.3864 958.494,-24.0643 965.887,-31.6532 969.006,-25.3864"/>
</g>
<!-- &#45;11&#45;&gt;3 -->
<g id="edge42" class="edge"><title>&#45;11&#45;&gt;3</title>
<path fill="none" stroke="red" stroke-width="0.400852" d="M1641.63,-77.7907C1637.24,-73.3993 1631.24,-68.346 1624.79,-65.6985 1512.29,-19.526 1122.24,-15.939 1019.66,-15.8072"/>
<polygon fill="red" stroke="red" stroke-width="0.400852" points="1019.62,-12.3073 1009.62,-15.8047 1019.62,-19.3073 1019.62,-12.3073"/>
</g>
<!-- &#45;12 -->
<g id="node12" class="node"><title>&#45;12</title>
<polygon fill="lightgray" stroke="black" points="402.287,-95.9117 373.287,-95.9117 373.287,-77.9117 402.287,-77.9117 402.287,-95.9117"/>
<text text-anchor="middle" x="387.787" y="-84.7117" font-family="Times New Roman,serif" font-size="9.00">&#45;12</text>
</g>
<!-- &#45;12&#45;&gt;0 -->
<g id="edge43" class="edge"><title>&#45;12&#45;&gt;0</title>
<path fill="none" stroke="red" stroke-width="0.17791" d="M395.422,-77.5099C399.785,-73.2574 405.609,-68.4296 411.787,-65.6985 474.9,-37.7989 687.444,-22.058 760.712,-17.3596"/>
<polygon fill="red" stroke="red" stroke-width="0.17791" points="761.095,-20.8425 770.856,-16.7231 760.656,-13.8563 761.095,-20.8425"/>
</g>
<!-- &#45;12&#45;&gt;1 -->
<g id="edge44" class="edge"><title>&#45;12&#45;&gt;1</title>
<path fill="none" stroke="green" stroke-width="0.687538" d="M394.951,-77.7946C399.339,-73.4044 405.339,-68.3511 411.787,-65.6985 503.745,-27.872 759.039,-41.3508 857.787,-29.6985 879.753,-27.1065 904.616,-23.1509 922.468,-20.1298"/>
<polygon fill="green" stroke="green" stroke-width="0.687538" points="923.079,-23.5762 932.342,-18.4333 921.894,-16.6773 923.079,-23.5762"/>
</g>
<!-- &#45;12&#45;&gt;2 -->
<g id="edge45" class="edge"><title>&#45;12&#45;&gt;2</title>
<path fill="none" stroke="green" stroke-width="0.253825" d="M394.961,-77.8179C399.352,-73.4355 405.352,-68.3822 411.787,-65.6985 575.716,2.66121 640.469,-83.3372 809.787,-29.6985 810.842,-29.3643 811.901,-28.9784 812.955,-28.5528"/>
<polygon fill="green" stroke="green" stroke-width="0.253825" points="814.695,-31.5955 822.053,-23.9726 811.547,-25.3431 814.695,-31.5955"/>
</g>
<!-- &#45;12&#45;&gt;3 -->
<g id="edge46" class="edge"><title>&#45;12&#45;&gt;3</title>
<path fill="none" stroke="red" stroke-width="0.316342" d="M394.935,-77.7552C399.318,-73.352 405.318,-68.2987 411.787,-65.6985 642.789,27.139 732.499,-101.805 970.787,-29.6985 971.846,-29.378 972.909,-29.0034 973.966,-28.5868"/>
<polygon fill="red" stroke="red" stroke-width="0.316342" points="975.69,-31.6379 983.074,-24.0399 972.564,-25.3749 975.69,-31.6379"/>
</g>
<!-- &#45;13 -->
<g id="node13" class="node"><title>&#45;13</title>
<polygon fill="lightgray" stroke="black" points="449.287,-95.9117 420.287,-95.9117 420.287,-77.9117 449.287,-77.9117 449.287,-95.9117"/>
<text text-anchor="middle" x="434.787" y="-84.7117" font-family="Times New Roman,serif" font-size="9.00">&#45;13</text>
</g>
<!-- &#45;13&#45;&gt;0 -->
<g id="edge47" class="edge"><title>&#45;13&#45;&gt;0</title>
<path fill="none" stroke="red" stroke-width="0.265387" d="M442.443,-77.556C446.812,-73.3171 452.635,-68.4875 458.787,-65.6985 563.231,-18.3514 703.698,-14.538 760.442,-15.1513"/>
<polygon fill="red" stroke="red" stroke-width="0.265387" points="760.582,-18.654 770.639,-15.3214 760.699,-11.655 760.582,-18.654"/>
</g>
<!-- &#45;13&#45;&gt;1 -->
<g id="edge48" class="edge"><title>&#45;13&#45;&gt;1</title>
<path fill="none" stroke="red" stroke-width="0.253653" d="M441.96,-77.8174C446.351,-73.4348 452.351,-68.3815 458.787,-65.6985 540.96,-31.4427 769.424,-40.5484 857.787,-29.6985 879.741,-27.0029 904.605,-23.0581 922.461,-20.0675"/>
<polygon fill="red" stroke="red" stroke-width="0.253653" points="923.064,-23.5154 932.337,-18.3911 921.892,-16.6141 923.064,-23.5154"/>
</g>
<!-- &#45;13&#45;&gt;2 -->
<g id="edge49" class="edge"><title>&#45;13&#45;&gt;2</title>
<path fill="none" stroke="red" stroke-width="0.57394" d="M441.973,-77.8468C446.368,-73.4741 452.368,-68.4208 458.787,-65.6985 603.161,-4.47423 660.578,-77.9539 809.787,-29.6985 810.84,-29.358 811.898,-28.9669 812.95,-28.5371"/>
<polygon fill="red" stroke="red" stroke-width="0.57394" points="814.697,-31.5759 822.043,-23.9414 811.539,-25.3285 814.697,-31.5759"/>
</g>
<!-- &#45;13&#45;&gt;3 -->
<g id="edge50" class="edge"><title>&#45;13&#45;&gt;3</title>
<path fill="none" stroke="red" stroke-width="0.248692" d="M441.941,-77.7695C446.325,-73.371 452.325,-68.3177 458.787,-65.6985 670.2,19.9895 752.643,-96.411 970.787,-29.6985 971.846,-29.3749 972.907,-28.9977 973.963,-28.5791"/>
<polygon fill="red" stroke="red" stroke-width="0.248692" points="975.691,-31.6283 983.069,-24.0246 972.56,-25.3677 975.691,-31.6283"/>
</g>
<!-- &#45;14 -->
<g id="node14" class="node"><title>&#45;14</title>
<polygon fill="lightgray" stroke="black" points="496.287,-95.9117 467.287,-95.9117 467.287,-77.9117 496.287,-77.9117 496.287,-95.9117"/>
<text text-anchor="middle" x="481.787" y="-84.7117" font-family="Times New Roman,serif" font-size="9.00">&#45;14</text>
</g>
<!-- &#45;14&#45;&gt;0 -->
<g id="edge51" class="edge"><title>&#45;14&#45;&gt;0</title>
<path fill="none" stroke="green" stroke-width="0.275773" d="M489.471,-77.617C493.848,-73.3959 499.67,-68.5639 505.787,-65.6985 593.058,-24.8186 710.014,-17.2974 760.661,-16.0311"/>
<polygon fill="green" stroke="green" stroke-width="0.275773" points="760.768,-19.5298 770.701,-15.8427 760.637,-12.531 760.768,-19.5298"/>
</g>
<!-- &#45;14&#45;&gt;1 -->
<g id="edge52" class="edge"><title>&#45;14&#45;&gt;1</title>
<path fill="none" stroke="green" stroke-width="0.451296" d="M488.973,-77.8461C493.368,-73.4732 499.368,-68.4199 505.787,-65.6985 650.576,-4.32249 701.816,-49.7955 857.787,-29.6985 879.724,-26.8719 904.59,-22.9409 922.451,-19.9888"/>
<polygon fill="green" stroke="green" stroke-width="0.451296" points="923.044,-23.4384 932.33,-18.3378 921.89,-16.5341 923.044,-23.4384"/>
</g>
<!-- &#45;14&#45;&gt;2 -->
<g id="edge53" class="edge"><title>&#45;14&#45;&gt;2</title>
<path fill="none" stroke="red" stroke-width="0.454408" d="M488.989,-77.8845C493.389,-73.5243 499.389,-68.471 505.787,-65.6985 630.625,-11.601 680.666,-72.5774 809.787,-29.6985 810.666,-29.4066 811.549,-29.0804 812.429,-28.7265"/>
<polygon fill="red" stroke="red" stroke-width="0.454408" points="814.146,-31.7817 821.536,-24.1904 811.025,-25.5159 814.146,-31.7817"/>
</g>
<!-- &#45;14&#45;&gt;3 -->
<g id="edge54" class="edge"><title>&#45;14&#45;&gt;3</title>
<path fill="none" stroke="red" stroke-width="0.488636" d="M488.948,-77.7866C493.335,-73.3938 499.335,-68.3405 505.787,-65.6985 697.617,12.8427 772.78,-91.0188 970.787,-29.6985 971.844,-29.3712 972.905,-28.9909 973.96,-28.5698"/>
<polygon fill="red" stroke="red" stroke-width="0.488636" points="975.693,-31.6167 983.064,-24.0062 972.555,-25.359 975.693,-31.6167"/>
</g>
<!-- &#45;15 -->
<g id="node15" class="node"><title>&#45;15</title>
<polygon fill="lightgray" stroke="black" points="543.287,-95.9117 514.287,-95.9117 514.287,-77.9117 543.287,-77.9117 543.287,-95.9117"/>
<text text-anchor="middle" x="528.787" y="-84.7117" font-family="Times New Roman,serif" font-size="9.00">&#45;15</text>
</g>
<!-- &#45;15&#45;&gt;0 -->
<g id="edge55" class="edge"><title>&#45;15&#45;&gt;0</title>
<path fill="none" stroke="red" stroke-width="0.2613" d="M536.511,-77.701C540.9,-73.5045 546.721,-68.6692 552.787,-65.6985 622.998,-31.3172 716.525,-20.5316 760.68,-17.2407"/>
<polygon fill="red" stroke="red" stroke-width="0.2613" points="761.057,-20.7233 770.798,-16.5557 760.584,-13.7393 761.057,-20.7233"/>
</g>
<!-- &#45;15&#45;&gt;1 -->
<g id="edge56" class="edge"><title>&#45;15&#45;&gt;1</title>
<path fill="none" stroke="green" stroke-width="0.235535" d="M535.989,-77.8836C540.389,-73.5231 546.389,-68.4698 552.787,-65.6985 678.041,-11.4495 722.55,-48.1954 857.787,-29.6985 879.702,-26.7012 904.57,-22.7881 922.437,-19.8863"/>
<polygon fill="green" stroke="green" stroke-width="0.235535" points="923.018,-23.338 932.321,-18.2683 921.887,-16.4299 923.018,-23.338"/>
</g>
<!-- &#45;15&#45;&gt;2 -->
<g id="edge57" class="edge"><title>&#45;15&#45;&gt;2</title>
<path fill="none" stroke="red" stroke-width="0.322247" d="M536.429,-77.5263C540.795,-73.2786 546.618,-68.4502 552.787,-65.6985 658.121,-18.7142 700.721,-67.2117 809.787,-29.6985 810.663,-29.3973 811.543,-29.0631 812.421,-28.7025"/>
<polygon fill="red" stroke="red" stroke-width="0.322247" points="814.151,-31.7502 821.518,-24.1352 811.01,-25.4945 814.151,-31.7502"/>
</g>
<!-- &#45;15&#45;&gt;3 -->
<g id="edge58" class="edge"><title>&#45;15&#45;&gt;3</title>
<path fill="none" stroke="green" stroke-width="0.300061" d="M535.956,-77.8075C540.346,-73.4217 546.346,-68.3684 552.787,-65.6985 725.042,5.69946 792.908,-85.6294 970.787,-29.6985 971.843,-29.3666 972.903,-28.9826 973.957,-28.5584"/>
<polygon fill="green" stroke="green" stroke-width="0.300061" points="975.694,-31.6025 983.057,-23.9837 972.55,-25.3484 975.694,-31.6025"/>
</g>
<!-- &#45;16 -->
<g id="node16" class="node"><title>&#45;16</title>
<polygon fill="lightgray" stroke="black" points="590.287,-95.9117 561.287,-95.9117 561.287,-77.9117 590.287,-77.9117 590.287,-95.9117"/>
<text text-anchor="middle" x="575.787" y="-84.7117" font-family="Times New Roman,serif" font-size="9.00">&#45;16</text>
</g>
<!-- &#45;16&#45;&gt;0 -->
<g id="edge59" class="edge"><title>&#45;16&#45;&gt;0</title>
<path fill="none" stroke="red" stroke-width="0.1519" d="M583.573,-77.8238C587.981,-73.6633 593.799,-68.8232 599.787,-65.6985 653.24,-37.8088 723.689,-24.475 760.66,-19.0297"/>
<polygon fill="red" stroke="red" stroke-width="0.1519" points="761.583,-22.4348 771.003,-17.5856 760.615,-15.5021 761.583,-22.4348"/>
</g>
<!-- &#45;16&#45;&gt;1 -->
<g id="edge60" class="edge"><title>&#45;16&#45;&gt;1</title>
<path fill="none" stroke="green" stroke-width="0.518266" d="M583.429,-77.525C587.794,-73.2769 593.618,-68.4486 599.787,-65.6985 705.536,-18.5631 743.25,-46.5999 857.787,-29.6985 879.669,-26.4696 904.54,-22.5809 922.418,-19.7472"/>
<polygon fill="green" stroke="green" stroke-width="0.518266" points="922.981,-23.2016 932.307,-18.1741 921.882,-16.2885 922.981,-23.2016"/>
</g>
<!-- &#45;16&#45;&gt;2 -->
<g id="edge61" class="edge"><title>&#45;16&#45;&gt;2</title>
<path fill="none" stroke="red" stroke-width="0.225019" d="M583.463,-77.6013C587.839,-73.3756 593.661,-68.5443 599.787,-65.6985 685.669,-25.8044 720.723,-61.8644 809.787,-29.6985 810.658,-29.3839 811.534,-29.0384 812.409,-28.6682"/>
<polygon fill="red" stroke="red" stroke-width="0.225019" points="814.159,-31.7052 821.49,-24.0563 810.989,-25.4639 814.159,-31.7052"/>
</g>
<!-- &#45;16&#45;&gt;3 -->
<g id="edge62" class="edge"><title>&#45;16&#45;&gt;3</title>
<path fill="none" stroke="red" stroke-width="0.136848" d="M582.967,-77.8336C587.361,-73.4565 593.361,-68.4032 599.787,-65.6985 752.48,-1.43873 813.023,-80.244 970.787,-29.6985 971.841,-29.3609 972.899,-28.9722 973.952,-28.5442"/>
<polygon fill="red" stroke="red" stroke-width="0.136848" points="975.696,-31.5848 983.048,-23.9556 972.543,-25.3351 975.696,-31.5848"/>
</g>
<!-- &#45;17 -->
<g id="node17" class="node"><title>&#45;17</title>
<polygon fill="lightgray" stroke="black" points="637.287,-95.9117 608.287,-95.9117 608.287,-77.9117 637.287,-77.9117 637.287,-95.9117"/>
<text text-anchor="middle" x="622.787" y="-84.7117" font-family="Times New Roman,serif" font-size="9.00">&#45;17</text>
</g>
<!-- &#45;17&#45;&gt;0 -->
<g id="edge63" class="edge"><title>&#45;17&#45;&gt;0</title>
<path fill="none" stroke="red" stroke-width="0.485067" d="M631.114,-77.6193C635.494,-73.604 641.121,-68.9588 646.787,-65.6985 684.224,-44.1567 732.588,-29.3784 761.283,-21.7914"/>
<polygon fill="red" stroke="red" stroke-width="0.485067" points="762.435,-25.1093 771.253,-19.2366 760.697,-18.3284 762.435,-25.1093"/>
</g>
<!-- &#45;17&#45;&gt;1 -->
<g id="edge64" class="edge"><title>&#45;17&#45;&gt;1</title>
<path fill="none" stroke="green" stroke-width="0.363764" d="M630.458,-77.5888C634.831,-73.3594 640.654,-68.5286 646.787,-65.6985 653.087,-62.7917 851.397,-31.0349 922.074,-19.7776"/>
<polygon fill="green" stroke="green" stroke-width="0.363764" points="922.946,-23.1828 932.272,-18.1544 921.846,-16.2698 922.946,-23.1828"/>
</g>
<!-- &#45;17&#45;&gt;2 -->
<g id="edge65" class="edge"><title>&#45;17&#45;&gt;2</title>
<path fill="none" stroke="red" stroke-width="0.351434" d="M630.519,-77.7169C634.911,-73.5251 640.731,-68.6892 646.787,-65.6985 713.31,-32.8507 740.628,-56.5526 809.787,-29.6985 810.651,-29.3633 811.52,-29.0002 812.389,-28.6153"/>
<polygon fill="red" stroke="red" stroke-width="0.351434" points="814.168,-31.6357 821.444,-23.9344 810.954,-25.4174 814.168,-31.6357"/>
</g>
<!-- &#45;17&#45;&gt;3 -->
<g id="edge66" class="edge"><title>&#45;17&#45;&gt;3</title>
<path fill="none" stroke="green" stroke-width="0.284995" d="M629.982,-77.8671C634.38,-73.5012 640.38,-68.4479 646.787,-65.6985 779.935,-8.56965 833.121,-74.8642 970.787,-29.6985 971.667,-29.4098 972.551,-29.0862 973.432,-28.7346"/>
<polygon fill="green" stroke="green" stroke-width="0.284995" points="975.144,-31.7924 982.542,-24.2091 972.029,-25.5233 975.144,-31.7924"/>
</g>
<!-- &#45;18 -->
<g id="node18" class="node"><title>&#45;18</title>
<polygon fill="lightgray" stroke="black" points="684.287,-95.9117 655.287,-95.9117 655.287,-77.9117 684.287,-77.9117 684.287,-95.9117"/>
<text text-anchor="middle" x="669.787" y="-84.7117" font-family="Times New Roman,serif" font-size="9.00">&#45;18</text>
</g>
<!-- &#45;18&#45;&gt;0 -->
<g id="edge67" class="edge"><title>&#45;18&#45;&gt;0</title>
<path fill="none" stroke="red" stroke-width="0.33274" stroke-dasharray="1,5" d="M678.785,-77.5812C683.149,-73.7413 688.566,-69.2575 693.787,-65.6985 716.413,-50.2773 744.288,-35.7347 763.388,-26.3821"/>
<polygon fill="red" stroke="red" stroke-width="0.33274" points="765.015,-29.4834 772.502,-21.9871 761.974,-23.1782 765.015,-29.4834"/>
</g>
<!-- &#45;18&#45;&gt;1 -->
<g id="edge68" class="edge"><title>&#45;18&#45;&gt;1</title>
<path fill="none" stroke="green" stroke-width="0.429304" d="M677.492,-77.6617C681.876,-73.4536 687.697,-68.6199 693.787,-65.6985 714.355,-55.833 862.538,-30.0791 922.098,-19.9893"/>
<polygon fill="green" stroke="green" stroke-width="0.429304" points="922.859,-23.4104 932.137,-18.2949 921.694,-16.508 922.859,-23.4104"/>
</g>
<!-- &#45;18&#45;&gt;2 -->
<g id="edge69" class="edge"><title>&#45;18&#45;&gt;2</title>
<path fill="none" stroke="red" stroke-width="0.440288" d="M678.055,-77.5145C682.42,-73.4725 688.052,-68.835 693.787,-65.6985 741.149,-39.7977 760.326,-51.3222 809.787,-29.6985 810.636,-29.3275 811.493,-28.9341 812.351,-28.5235"/>
<polygon fill="red" stroke="red" stroke-width="0.440288" points="814.179,-31.5157 821.357,-23.7232 810.886,-25.3384 814.179,-31.5157"/>
</g>
<!-- &#45;18&#45;&gt;3 -->
<g id="edge70" class="edge"><title>&#45;18&#45;&gt;3</title>
<path fill="none" stroke="red" stroke-width="0.270842" d="M677.418,-77.5018C681.781,-73.247 687.605,-68.4195 693.787,-65.6985 807.416,-15.6895 853.192,-69.4933 970.787,-29.6985 971.665,-29.4016 972.546,-29.0711 973.425,-28.7137"/>
<polygon fill="red" stroke="red" stroke-width="0.270842" points="975.149,-31.7649 982.526,-24.1609 972.017,-25.5044 975.149,-31.7649"/>
</g>
<!-- &#45;19 -->
<g id="node19" class="node"><title>&#45;19</title>
<polygon fill="lightgray" stroke="black" points="731.287,-95.9117 702.287,-95.9117 702.287,-77.9117 731.287,-77.9117 731.287,-95.9117"/>
<text text-anchor="middle" x="716.787" y="-84.7117" font-family="Times New Roman,serif" font-size="9.00">&#45;19</text>
</g>
<!-- &#45;19&#45;&gt;0 -->
<g id="edge71" class="edge"><title>&#45;19&#45;&gt;0</title>
<path fill="none" stroke="green" stroke-width="0.615518" d="M724.703,-77.8746C735.335,-67.0781 754.517,-47.6015 768.556,-33.3456"/>
<polygon fill="green" stroke="green" stroke-width="0.615518" points="771.217,-35.6318 775.74,-26.051 766.23,-30.72 771.217,-35.6318"/>
</g>
<!-- &#45;19&#45;&gt;1 -->
<g id="edge72" class="edge"><title>&#45;19&#45;&gt;1</title>
<path fill="none" stroke="green" stroke-width="0.149456" d="M724.543,-77.7653C728.942,-73.5876 734.761,-68.7498 740.787,-65.6985 772.69,-49.5457 874.892,-29.1861 922.259,-20.3182"/>
<polygon fill="green" stroke="green" stroke-width="0.149456" points="923.076,-23.7265 932.27,-18.4625 921.8,-16.8437 923.076,-23.7265"/>
</g>
<!-- &#45;19&#45;&gt;2 -->
<g id="edge73" class="edge"><title>&#45;19&#45;&gt;2</title>
<path fill="none" stroke="green" stroke-width="0.303858" d="M725.76,-77.5444C730.118,-73.6965 735.538,-69.2164 740.787,-65.6985 769.521,-46.442 779.468,-46.3463 809.787,-29.6985 810.599,-29.2528 811.425,-28.7958 812.257,-28.3318"/>
<polygon fill="green" stroke="green" stroke-width="0.303858" points="814.176,-31.2667 821.14,-23.2817 810.717,-25.1813 814.176,-31.2667"/>
</g>
<!-- &#45;19&#45;&gt;3 -->
<g id="edge74" class="edge"><title>&#45;19&#45;&gt;3</title>
<path fill="none" stroke="green" stroke-width="0.292561" d="M724.447,-77.5658C728.818,-73.3297 734.641,-68.4998 740.787,-65.6985 834.938,-22.7911 873.22,-64.1368 970.787,-29.6985 971.661,-29.3903 972.538,-29.0501 973.415,-28.6845"/>
<polygon fill="green" stroke="green" stroke-width="0.292561" points="975.155,-31.7265 982.503,-24.0936 971.999,-25.4784 975.155,-31.7265"/>
</g>
<!-- &#45;20 -->
<g id="node20" class="node"><title>&#45;20</title>
<polygon fill="lightgray" stroke="black" points="778.287,-95.9117 749.287,-95.9117 749.287,-77.9117 778.287,-77.9117 778.287,-95.9117"/>
<text text-anchor="middle" x="763.787" y="-84.7117" font-family="Times New Roman,serif" font-size="9.00">&#45;20</text>
</g>
<!-- &#45;20&#45;&gt;0 -->
<g id="edge75" class="edge"><title>&#45;20&#45;&gt;0</title>
<path fill="none" stroke="green" stroke-width="0.143261" d="M766.311,-77.8746C769.279,-68.4226 774.336,-52.3178 778.553,-38.8876"/>
<polygon fill="green" stroke="green" stroke-width="0.143261" points="781.909,-39.8825 781.566,-29.2932 775.231,-37.7853 781.909,-39.8825"/>
</g>
<!-- &#45;20&#45;&gt;1 -->
<g id="edge76" class="edge"><title>&#45;20&#45;&gt;1</title>
<path fill="none" stroke="red" stroke-width="0.950594" d="M772.059,-77.5215C776.425,-73.4813 782.057,-68.8433 787.787,-65.6985 831.992,-41.4414 889.708,-27.1073 922.046,-20.4285"/>
<polygon fill="red" stroke="red" stroke-width="0.950594" points="922.858,-23.8357 931.984,-18.4538 921.494,-16.97 922.858,-23.8357"/>
</g>
<!-- &#45;20&#45;&gt;2 -->
<g id="edge77" class="edge"><title>&#45;20&#45;&gt;2</title>
<path fill="none" stroke="green" stroke-width="0.100326" d="M771.817,-77.8746C782.604,-67.0781 802.063,-47.6015 816.307,-33.3456"/>
<polygon fill="green" stroke="green" stroke-width="0.100326" points="819.003,-35.599 823.595,-26.051 814.051,-30.6514 819.003,-35.599"/>
</g>
<!-- &#45;20&#45;&gt;3 -->
<g id="edge78" class="edge"><title>&#45;20&#45;&gt;3</title>
<path fill="none" stroke="green" stroke-width="0.420525" d="M771.492,-77.6609C775.875,-73.4527 781.696,-68.619 787.787,-65.6985 862.532,-29.8599 893.174,-58.8068 970.787,-29.6985 971.655,-29.3733 972.527,-29.0187 973.399,-28.641"/>
<polygon fill="green" stroke="green" stroke-width="0.420525" points="975.164,-31.6694 982.467,-23.9935 971.971,-25.4399 975.164,-31.6694"/>
</g>
<!-- &#45;21 -->
<g id="node21" class="node"><title>&#45;21</title>
<polygon fill="lightgray" stroke="black" points="825.287,-95.9117 796.287,-95.9117 796.287,-77.9117 825.287,-77.9117 825.287,-95.9117"/>
<text text-anchor="middle" x="810.787" y="-84.7117" font-family="Times New Roman,serif" font-size="9.00">&#45;21</text>
</g>
<!-- &#45;21&#45;&gt;0 -->
<g id="edge79" class="edge"><title>&#45;21&#45;&gt;0</title>
<path fill="none" stroke="red" stroke-width="0.287067" d="M807.92,-77.8746C804.526,-68.3653 798.731,-52.1224 793.921,-38.6437"/>
<polygon fill="red" stroke="red" stroke-width="0.287067" points="797.149,-37.2747 790.492,-29.0326 790.556,-39.6272 797.149,-37.2747"/>
</g>
<!-- &#45;21&#45;&gt;1 -->
<g id="edge80" class="edge"><title>&#45;21&#45;&gt;1</title>
<path fill="none" stroke="red" stroke-width="0.491758" d="M819.22,-77.7958C823.627,-73.8255 829.247,-69.1673 834.787,-65.6985 863.545,-47.6949 899.916,-32.7838 923.268,-24.0947"/>
<polygon fill="red" stroke="red" stroke-width="0.491758" points="924.514,-27.366 932.713,-20.6561 922.119,-20.7883 924.514,-27.366"/>
</g>
<!-- &#45;21&#45;&gt;2 -->
<g id="edge81" class="edge"><title>&#45;21&#45;&gt;2</title>
<path fill="none" stroke="green" stroke-width="0.258676" d="M813.426,-77.8746C816.529,-68.4226 821.816,-52.3178 826.224,-38.8876"/>
<polygon fill="green" stroke="green" stroke-width="0.258676" points="829.58,-39.886 829.374,-29.2932 822.93,-37.7027 829.58,-39.886"/>
</g>
<!-- &#45;21&#45;&gt;3 -->
<g id="edge82" class="edge"><title>&#45;21&#45;&gt;3</title>
<path fill="none" stroke="red" stroke-width="0.342947" d="M818.569,-77.8164C822.976,-73.6537 828.794,-68.814 834.787,-65.6985 890.266,-36.8604 912.982,-53.5323 970.787,-29.6985 971.644,-29.3455 972.507,-28.9673 973.371,-28.5696"/>
<polygon fill="red" stroke="red" stroke-width="0.342947" points="975.174,-31.5759 982.402,-23.8293 971.921,-25.3778 975.174,-31.5759"/>
</g>
<!-- &#45;22 -->
<g id="node22" class="node"><title>&#45;22</title>
<polygon fill="lightgray" stroke="black" points="915.287,-95.9117 886.287,-95.9117 886.287,-77.9117 915.287,-77.9117 915.287,-95.9117"/>
<text text-anchor="middle" x="900.787" y="-84.7117" font-family="Times New Roman,serif" font-size="9.00">&#45;22</text>
</g>
<!-- &#45;22&#45;&gt;0 -->
<g id="edge83" class="edge"><title>&#45;22&#45;&gt;0</title>
<path fill="none" stroke="red" stroke-width="0.233716" d="M891.795,-77.573C887.433,-73.7313 882.015,-69.2483 876.787,-65.6985 848.821,-46.7089 839.319,-46.1481 809.787,-29.6985 808.978,-29.2479 808.155,-28.7867 807.325,-28.3191"/>
<polygon fill="red" stroke="red" stroke-width="0.233716" points="808.871,-25.1714 798.451,-23.2526 805.4,-31.2504 808.871,-25.1714"/>
</g>
<!-- &#45;22&#45;&gt;3 -->
<g id="edge84" class="edge"><title>&#45;22&#45;&gt;3</title>
<path fill="none" stroke="green" stroke-width="0.276212" d="M909.989,-77.8614C914.397,-74.083 919.793,-69.5698 924.787,-65.6985 941.038,-53.1022 960.078,-39.6216 974.195,-29.8591"/>
<polygon fill="green" stroke="green" stroke-width="0.276212" points="976.422,-32.5753 982.682,-24.0274 972.458,-26.806 976.422,-32.5753"/>
</g>
<!-- &#45;23 -->
<g id="node23" class="node"><title>&#45;23</title>
<polygon fill="lightgray" stroke="black" points="962.287,-95.9117 933.287,-95.9117 933.287,-77.9117 962.287,-77.9117 962.287,-95.9117"/>
<text text-anchor="middle" x="947.787" y="-84.7117" font-family="Times New Roman,serif" font-size="9.00">&#45;23</text>
</g>
<!-- &#45;23&#45;&gt;0 -->
<g id="edge85" class="edge"><title>&#45;23&#45;&gt;0</title>
<path fill="none" stroke="red" stroke-width="0.319203" d="M940.332,-77.9082C936.109,-73.7724 930.533,-68.929 924.787,-65.6985 878.103,-39.451 858.833,-51.2125 809.787,-29.6985 808.939,-29.3265 808.083,-28.9321 807.225,-28.5209"/>
<polygon fill="red" stroke="red" stroke-width="0.319203" points="808.691,-25.3361 798.221,-23.717 805.396,-31.5122 808.691,-25.3361"/>
</g>
<!-- &#45;23&#45;&gt;1 -->
<g id="edge86" class="edge"><title>&#45;23&#45;&gt;1</title>
<path fill="none" stroke="red" stroke-width="0.157012" d="M947.673,-77.8746C947.542,-68.7202 947.322,-53.3256 947.135,-40.1641"/>
<polygon fill="red" stroke="red" stroke-width="0.157012" points="950.629,-39.7687 946.987,-29.8197 943.63,-39.8686 950.629,-39.7687"/>
</g>
<!-- &#45;23&#45;&gt;2 -->
<g id="edge87" class="edge"><title>&#45;23&#45;&gt;2</title>
<path fill="none" stroke="green" stroke-width="0.735118" d="M939.206,-77.5624C935.034,-73.7184 929.838,-69.2365 924.787,-65.6985 902.55,-50.1204 874.952,-35.6057 856.015,-26.3025"/>
<polygon fill="green" stroke="green" stroke-width="0.735118" points="857.503,-23.1342 846.976,-21.9345 854.457,-29.4369 857.503,-23.1342"/>
</g>
<!-- &#45;23&#45;&gt;3 -->
<g id="edge88" class="edge"><title>&#45;23&#45;&gt;3</title>
<path fill="none" stroke="green" stroke-width="0.391055" d="M953.179,-77.8746C959.983,-67.7318 971.926,-49.9283 981.277,-35.9895"/>
<polygon fill="green" stroke="green" stroke-width="0.391055" points="984.303,-37.7615 986.967,-27.5071 978.489,-33.8618 984.303,-37.7615"/>
</g>
<!-- &#45;24 -->
<g id="node24" class="node"><title>&#45;24</title>
<polygon fill="lightgray" stroke="black" points="1009.29,-95.9117 980.287,-95.9117 980.287,-77.9117 1009.29,-77.9117 1009.29,-95.9117"/>
<text text-anchor="middle" x="994.787" y="-84.7117" font-family="Times New Roman,serif" font-size="9.00">&#45;24</text>
</g>
<!-- &#45;24&#45;&gt;0 -->
<g id="edge89" class="edge"><title>&#45;24&#45;&gt;0</title>
<path fill="none" stroke="red" stroke-width="0.348729" d="M987.437,-77.7118C983.245,-73.5185 977.665,-68.6828 971.787,-65.6985 906.023,-32.3062 878.525,-56.4402 809.787,-29.6985 808.924,-29.3627 808.055,-28.9992 807.186,-28.6139"/>
<polygon fill="red" stroke="red" stroke-width="0.348729" points="808.622,-25.4161 798.132,-23.9311 805.407,-31.6338 808.622,-25.4161"/>
</g>
<!-- &#45;24&#45;&gt;1 -->
<g id="edge90" class="edge"><title>&#45;24&#45;&gt;1</title>
<path fill="none" stroke="green" stroke-width="0.331277" d="M989.281,-77.8746C982.332,-67.7318 970.135,-49.9283 960.586,-35.9895"/>
<polygon fill="green" stroke="green" stroke-width="0.331277" points="963.314,-33.7786 954.774,-27.5071 957.539,-37.7349 963.314,-33.7786"/>
</g>
<!-- &#45;24&#45;&gt;2 -->
<g id="edge91" class="edge"><title>&#45;24&#45;&gt;2</title>
<path fill="none" stroke="red" stroke-width="0.119049" d="M986.86,-77.607C982.676,-73.5886 977.279,-68.9443 971.787,-65.6985 934.842,-43.8613 886.755,-29.1765 858.194,-21.6878"/>
<polygon fill="red" stroke="red" stroke-width="0.119049" points="858.821,-18.2361 848.267,-19.1702 857.1,-25.0213 858.821,-18.2361"/>
</g>
<!-- &#45;24&#45;&gt;3 -->
<g id="edge92" class="edge"><title>&#45;24&#45;&gt;3</title>
<path fill="none" stroke="green" stroke-width="0.337785" d="M994.787,-77.8746C994.787,-68.7202 994.787,-53.3256 994.787,-40.1641"/>
<polygon fill="green" stroke="green" stroke-width="0.337785" points="998.288,-39.8196 994.787,-29.8197 991.288,-39.8197 998.288,-39.8196"/>
</g>
<!-- &#45;25 -->
<g id="node25" class="node"><title>&#45;25</title>
<polygon fill="lightgray" stroke="black" points="1056.29,-95.9117 1027.29,-95.9117 1027.29,-77.9117 1056.29,-77.9117 1056.29,-95.9117"/>
<text text-anchor="middle" x="1041.79" y="-84.7117" font-family="Times New Roman,serif" font-size="9.00">&#45;25</text>
</g>
<!-- &#45;25&#45;&gt;0 -->
<g id="edge93" class="edge"><title>&#45;25&#45;&gt;0</title>
<path fill="none" stroke="green" stroke-width="0.573661" d="M1034.49,-77.5984C1030.32,-73.3719 1024.74,-68.5406 1018.79,-65.6985 933.742,-25.058 898.427,-61.7509 809.787,-29.6985 808.917,-29.3836 808.041,-29.0377 807.166,-28.6674"/>
<polygon fill="green" stroke="green" stroke-width="0.573661" points="808.587,-25.4632 798.086,-24.0542 805.416,-31.704 808.587,-25.4632"/>
</g>
<!-- &#45;25&#45;&gt;1 -->
<g id="edge94" class="edge"><title>&#45;25&#45;&gt;1</title>
<path fill="none" stroke="green" stroke-width="0.129635" d="M1033.03,-77.7945C1028.82,-74.0014 1023.65,-69.4953 1018.79,-65.6985 1002.18,-52.7211 982.444,-39.1804 967.839,-29.4921"/>
<polygon fill="green" stroke="green" stroke-width="0.129635" points="969.346,-26.2942 959.067,-23.7266 965.501,-32.1439 969.346,-26.2942"/>
</g>
<!-- &#45;25&#45;&gt;2 -->
<g id="edge95" class="edge"><title>&#45;25&#45;&gt;2</title>
<path fill="none" stroke="red" stroke-width="0.207861" stroke-dasharray="1,5" d="M1034.38,-77.8156C1030.17,-73.6527 1024.6,-68.813 1018.79,-65.6985 965.917,-37.355 895.727,-24.2068 858.857,-18.9108"/>
<polygon fill="red" stroke="red" stroke-width="0.207861" points="858.921,-15.3874 848.541,-17.5112 857.98,-22.3238 858.921,-15.3874"/>
</g>
<!-- &#45;25&#45;&gt;3 -->
<g id="edge96" class="edge"><title>&#45;25&#45;&gt;3</title>
<path fill="none" stroke="green" stroke-width="0.12087" d="M1036.4,-77.8746C1029.59,-67.7318 1017.65,-49.9283 1008.3,-35.9895"/>
<polygon fill="green" stroke="green" stroke-width="0.12087" points="1011.09,-33.8618 1002.61,-27.5071 1005.27,-37.7615 1011.09,-33.8618"/>
</g>
<!-- &#45;26 -->
<g id="node26" class="node"><title>&#45;26</title>
<polygon fill="lightgray" stroke="black" points="1103.29,-95.9117 1074.29,-95.9117 1074.29,-77.9117 1103.29,-77.9117 1103.29,-95.9117"/>
<text text-anchor="middle" x="1088.79" y="-84.7117" font-family="Times New Roman,serif" font-size="9.00">&#45;26</text>
</g>
<!-- &#45;26&#45;&gt;0 -->
<g id="edge97" class="edge"><title>&#45;26&#45;&gt;0</title>
<path fill="none" stroke="green" stroke-width="0.45233" d="M1081.53,-77.5249C1077.36,-73.2769 1071.78,-68.4485 1065.79,-65.6985 961.367,-17.7643 918.428,-67.0977 809.787,-29.6985 808.912,-29.3971 808.032,-29.0627 807.154,-28.7019"/>
<polygon fill="green" stroke="green" stroke-width="0.45233" points="808.565,-25.4939 798.058,-24.1338 805.423,-31.7494 808.565,-25.4939"/>
</g>
<!-- &#45;26&#45;&gt;1 -->
<g id="edge98" class="edge"><title>&#45;26&#45;&gt;1</title>
<path fill="none" stroke="green" stroke-width="0.152796" d="M1080.84,-77.6432C1076.65,-73.634 1071.25,-68.987 1065.79,-65.6985 1027.1,-42.4217 1011.58,-49.0449 970.787,-29.6985 969.951,-29.3017 969.104,-28.8863 968.254,-28.4573"/>
<polygon fill="green" stroke="green" stroke-width="0.152796" points="969.743,-25.2828 959.287,-23.5706 966.393,-31.4293 969.743,-25.2828"/>
</g>
<!-- &#45;26&#45;&gt;2 -->
<g id="edge99" class="edge"><title>&#45;26&#45;&gt;2</title>
<path fill="none" stroke="green" stroke-width="0.387465" d="M1081.44,-77.6954C1077.26,-73.4972 1071.68,-68.6622 1065.79,-65.6985 1029.37,-47.3685 910.59,-27.585 858.569,-19.5519"/>
<polygon fill="green" stroke="green" stroke-width="0.387465" points="858.949,-16.0694 848.535,-18.0208 857.893,-22.9893 858.949,-16.0694"/>
</g>
<!-- &#45;26&#45;&gt;3 -->
<g id="edge100" class="edge"><title>&#45;26&#45;&gt;3</title>
<path fill="none" stroke="red" stroke-width="0.235213" d="M1080.02,-77.8088C1075.81,-74.0188 1070.63,-69.5112 1065.79,-65.6985 1049.38,-52.7888 1029.92,-39.2424 1015.53,-29.5348"/>
<polygon fill="red" stroke="red" stroke-width="0.235213" points="1017.14,-26.4042 1006.88,-23.7551 1013.25,-32.2232 1017.14,-26.4042"/>
</g>
<!-- &#45;27 -->
<g id="node27" class="node"><title>&#45;27</title>
<polygon fill="lightgray" stroke="black" points="1150.29,-95.9117 1121.29,-95.9117 1121.29,-77.9117 1150.29,-77.9117 1150.29,-95.9117"/>
<text text-anchor="middle" x="1135.79" y="-84.7117" font-family="Times New Roman,serif" font-size="9.00">&#45;27</text>
</g>
<!-- &#45;27&#45;&gt;0 -->
<g id="edge101" class="edge"><title>&#45;27&#45;&gt;0</title>
<path fill="none" stroke="green" stroke-width="0.330821" d="M1128.95,-77.8843C1124.75,-73.524 1119,-68.4707 1112.79,-65.6985 988.939,-10.4466 938.482,-72.4631 809.787,-29.6985 808.909,-29.4065 808.026,-29.0801 807.146,-28.7261"/>
<polygon fill="green" stroke="green" stroke-width="0.330821" points="808.55,-25.5155 798.039,-24.1894 805.429,-31.7812 808.55,-25.5155"/>
</g>
<!-- &#45;27&#45;&gt;1 -->
<g id="edge102" class="edge"><title>&#45;27&#45;&gt;1</title>
<path fill="none" stroke="red" stroke-width="0.738431" d="M1128.4,-77.781C1124.2,-73.6079 1118.62,-68.7695 1112.79,-65.6985 1055.18,-35.3652 1031.11,-54.2005 970.787,-29.6985 969.929,-29.35 969.065,-28.9756 968.199,-28.5812"/>
<polygon fill="red" stroke="red" stroke-width="0.738431" points="969.645,-25.3877 959.162,-23.8558 966.402,-31.591 969.645,-25.3877"/>
</g>
<!-- &#45;27&#45;&gt;2 -->
<g id="edge103" class="edge"><title>&#45;27&#45;&gt;2</title>
<path fill="none" stroke="green" stroke-width="0.290483" d="M1128.49,-77.6132C1124.31,-73.391 1118.73,-68.5592 1112.79,-65.6985 1101.27,-60.1486 924.41,-30.7295 858.391,-19.8758"/>
<polygon fill="green" stroke="green" stroke-width="0.290483" points="858.878,-16.409 848.443,-18.2431 857.744,-23.3166 858.878,-16.409"/>
</g>
<!-- &#45;27&#45;&gt;3 -->
<g id="edge104" class="edge"><title>&#45;27&#45;&gt;3</title>
<path fill="none" stroke="red" stroke-width="0.229401" d="M1127.79,-77.7294C1123.58,-73.7422 1118.19,-69.0889 1112.79,-65.6985 1082.29,-46.5652 1043.18,-31.6974 1018.55,-23.3508"/>
<polygon fill="red" stroke="red" stroke-width="0.229401" points="1019.53,-19.9912 1008.94,-20.1796 1017.34,-26.6383 1019.53,-19.9912"/>
</g>
<!-- &#45;28 -->
<g id="node28" class="node"><title>&#45;28</title>
<polygon fill="lightgray" stroke="black" points="1197.29,-95.9117 1168.29,-95.9117 1168.29,-77.9117 1197.29,-77.9117 1197.29,-95.9117"/>
<text text-anchor="middle" x="1182.79" y="-84.7117" font-family="Times New Roman,serif" font-size="9.00">&#45;28</text>
</g>
<!-- &#45;28&#45;&gt;0 -->
<g id="edge105" class="edge"><title>&#45;28&#45;&gt;0</title>
<path fill="none" stroke="green" stroke-width="0.585298" d="M1175.96,-77.8475C1171.77,-73.475 1166.02,-68.4217 1159.79,-65.6985 1016.48,-3.11496 958.569,-77.8394 809.787,-29.6985 808.735,-29.3579 807.677,-28.9667 806.625,-28.5367"/>
<polygon fill="green" stroke="green" stroke-width="0.585298" points="808.036,-25.3281 797.532,-23.9407 804.878,-31.5754 808.036,-25.3281"/>
</g>
<!-- &#45;28&#45;&gt;1 -->
<g id="edge106" class="edge"><title>&#45;28&#45;&gt;1</title>
<path fill="none" stroke="red" stroke-width="0.583027" d="M1175.47,-77.6402C1171.29,-73.4259 1165.71,-68.593 1159.79,-65.6985 1082.96,-28.1499 1050.94,-59.485 970.787,-29.6985 969.919,-29.3759 969.046,-29.0235 968.174,-28.6477"/>
<polygon fill="red" stroke="red" stroke-width="0.583027" points="969.599,-25.4458 959.102,-24.0089 966.412,-31.6781 969.599,-25.4458"/>
</g>
<!-- &#45;28&#45;&gt;2 -->
<g id="edge107" class="edge"><title>&#45;28&#45;&gt;2</title>
<path fill="none" stroke="red" stroke-width="0.506217" d="M1175.51,-77.5513C1171.35,-73.3109 1165.76,-68.4815 1159.79,-65.6985 1063.21,-20.7165 1028.09,-45.8894 922.787,-29.6985 900.926,-26.3372 876.053,-22.4624 858.169,-19.6677"/>
<polygon fill="red" stroke="red" stroke-width="0.506217" points="858.696,-16.2076 848.276,-18.1202 857.615,-23.1235 858.696,-16.2076"/>
</g>
<!-- &#45;28&#45;&gt;3 -->
<g id="edge108" class="edge"><title>&#45;28&#45;&gt;3</title>
<path fill="none" stroke="red" stroke-width="0.102362" d="M1175.34,-77.8853C1171.13,-73.7428 1165.55,-68.9003 1159.79,-65.6985 1113.73,-40.1028 1052.96,-26.1333 1019.52,-19.9063"/>
<polygon fill="red" stroke="red" stroke-width="0.102362" points="1019.74,-16.3912 1009.28,-18.0857 1018.51,-23.283 1019.74,-16.3912"/>
</g>
<!-- &#45;29 -->
<g id="node29" class="node"><title>&#45;29</title>
<polygon fill="lightgray" stroke="black" points="1749.29,-95.9117 1720.29,-95.9117 1720.29,-77.9117 1749.29,-77.9117 1749.29,-95.9117"/>
<text text-anchor="middle" x="1734.79" y="-84.7117" font-family="Times New Roman,serif" font-size="9.00">&#45;29</text>
</g>
<!-- &#45;29&#45;&gt;1 -->
<g id="edge109" class="edge"><title>&#45;29&#45;&gt;1</title>
<path fill="none" stroke="red" stroke-width="0.260993" d="M1725.86,-77.7077C1720.47,-73.2886 1713.22,-68.2353 1705.79,-65.6985 1551.02,-12.8894 1127.67,-75.8576 970.787,-29.6985 969.726,-29.3862 968.662,-29.0182 967.603,-28.6071"/>
<polygon fill="red" stroke="red" stroke-width="0.260993" points="969.002,-25.3939 958.489,-24.0801 965.888,-31.6632 969.002,-25.3939"/>
</g>
<!-- &#45;29&#45;&gt;2 -->
<g id="edge110" class="edge"><title>&#45;29&#45;&gt;2</title>
<path fill="none" stroke="red" stroke-width="0.23212" stroke-dasharray="1,5" d="M1719.79,-79.77C1707.41,-75.0071 1689.27,-68.724 1672.79,-65.6985 1344.56,-5.44166 1254.8,-63.4022 922.787,-29.6985 900.782,-27.4647 875.924,-23.4714 858.083,-20.3449"/>
<polygon fill="red" stroke="red" stroke-width="0.23212" points="858.677,-16.8958 848.217,-18.579 857.444,-23.7863 858.677,-16.8958"/>
</g>
<!-- &#45;29&#45;&gt;3 -->
<g id="edge111" class="edge"><title>&#45;29&#45;&gt;3</title>
<path fill="none" stroke="green" stroke-width="0.175673" d="M1725.84,-77.7663C1720.44,-73.3667 1713.19,-68.3134 1705.79,-65.6985 1575.35,-19.6531 1130.46,-16.0131 1019.84,-15.8297"/>
<polygon fill="green" stroke="green" stroke-width="0.175673" points="1019.66,-12.3297 1009.66,-15.8215 1019.65,-19.3297 1019.66,-12.3297"/>
</g>
<!-- &#45;30 -->
<g id="node30" class="node"><title>&#45;30</title>
<polygon fill="lightgray" stroke="black" points="1244.29,-95.9117 1215.29,-95.9117 1215.29,-77.9117 1244.29,-77.9117 1244.29,-95.9117"/>
<text text-anchor="middle" x="1229.79" y="-84.7117" font-family="Times New Roman,serif" font-size="9.00">&#45;30</text>
</g>
<!-- &#45;30&#45;&gt;0 -->
<g id="edge112" class="edge"><title>&#45;30&#45;&gt;0</title>
<path fill="none" stroke="red" stroke-width="0.25898" d="M1222.98,-77.8192C1218.79,-73.4373 1213.04,-68.384 1206.79,-65.6985 1044,4.22565 978.677,-83.2226 809.787,-29.6985 808.733,-29.3642 807.674,-28.9782 806.62,-28.5525"/>
<polygon fill="red" stroke="red" stroke-width="0.25898" points="808.028,-25.3428 797.522,-23.972 804.88,-31.5951 808.028,-25.3428"/>
</g>
<!-- &#45;30&#45;&gt;1 -->
<g id="edge113" class="edge"><title>&#45;30&#45;&gt;1</title>
<path fill="none" stroke="green" stroke-width="0.13442" d="M1222.51,-77.5528C1218.34,-73.3128 1212.76,-68.4834 1206.79,-65.6985 1110.62,-20.8718 1070.91,-64.8195 970.787,-29.6985 969.914,-29.392 969.035,-29.0532 968.159,-28.6888"/>
<polygon fill="green" stroke="green" stroke-width="0.13442" points="969.573,-25.4822 959.068,-24.1037 966.421,-31.7322 969.573,-25.4822"/>
</g>
<!-- &#45;30&#45;&gt;2 -->
<g id="edge114" class="edge"><title>&#45;30&#45;&gt;2</title>
<path fill="none" stroke="green" stroke-width="0.176116" stroke-dasharray="1,5" d="M1222.94,-77.9025C1218.74,-73.5483 1212.99,-68.495 1206.79,-65.6985 1090.8,-13.4069 1048.77,-47.4818 922.787,-29.6985 900.886,-26.607 876.017,-22.7038 858.145,-19.8297"/>
<polygon fill="green" stroke="green" stroke-width="0.176116" points="858.69,-16.3724 848.259,-18.23 857.572,-23.2825 858.69,-16.3724"/>
</g>
<!-- &#45;30&#45;&gt;3 -->
<g id="edge115" class="edge"><title>&#45;30&#45;&gt;3</title>
<path fill="none" stroke="red" stroke-width="0.12349" d="M1222.42,-77.7406C1218.23,-73.5556 1212.65,-68.7188 1206.79,-65.6985 1144.3,-33.4838 1060.73,-21.7675 1019.68,-17.7677"/>
<polygon fill="red" stroke="red" stroke-width="0.12349" points="1019.79,-14.263 1009.51,-16.8523 1019.16,-21.2348 1019.79,-14.263"/>
</g>
<!-- &#45;31 -->
<g id="node31" class="node"><title>&#45;31</title>
<polygon fill="lightgray" stroke="black" points="1291.29,-95.9117 1262.29,-95.9117 1262.29,-77.9117 1291.29,-77.9117 1291.29,-95.9117"/>
<text text-anchor="middle" x="1276.79" y="-84.7117" font-family="Times New Roman,serif" font-size="9.00">&#45;31</text>
</g>
<!-- &#45;31&#45;&gt;0 -->
<g id="edge116" class="edge"><title>&#45;31&#45;&gt;0</title>
<path fill="none" stroke="red" stroke-width="0.349689" d="M1269.99,-77.7969C1265.8,-73.4075 1260.05,-68.3542 1253.79,-65.6985 1071.51,11.5723 998.8,-88.6104 809.787,-29.6985 808.731,-29.3692 807.671,-28.9874 806.616,-28.565"/>
<polygon fill="red" stroke="red" stroke-width="0.349689" points="808.022,-25.3545 797.514,-23.9967 804.882,-31.6107 808.022,-25.3545"/>
</g>
<!-- &#45;31&#45;&gt;1 -->
<g id="edge117" class="edge"><title>&#45;31&#45;&gt;1</title>
<path fill="none" stroke="green" stroke-width="0.860359" d="M1269.94,-77.9035C1265.74,-73.5497 1259.99,-68.4964 1253.79,-65.6985 1138.21,-13.5627 1090.94,-70.1783 970.787,-29.6985 969.91,-29.4028 969.029,-29.0733 968.149,-28.7168"/>
<polygon fill="green" stroke="green" stroke-width="0.860359" points="969.556,-25.5072 959.046,-24.1679 966.427,-31.7689 969.556,-25.5072"/>
</g>
<!-- &#45;31&#45;&gt;2 -->
<g id="edge118" class="edge"><title>&#45;31&#45;&gt;2</title>
<path fill="none" stroke="green" stroke-width="0.167763" d="M1269.96,-77.8611C1265.77,-73.4932 1260.02,-68.4399 1253.79,-65.6985 1118.35,-6.08013 1069.49,-49.0801 922.787,-29.6985 900.86,-26.8015 875.993,-22.8779 858.129,-19.9466"/>
<polygon fill="green" stroke="green" stroke-width="0.167763" points="858.686,-16.4912 848.249,-18.3092 857.542,-23.397 858.686,-16.4912"/>
</g>
<!-- &#45;31&#45;&gt;3 -->
<g id="edge119" class="edge"><title>&#45;31&#45;&gt;3</title>
<path fill="none" stroke="red" stroke-width="0.491436" d="M1269.47,-77.6447C1265.29,-73.4317 1259.71,-68.5987 1253.79,-65.6985 1174.44,-26.8217 1067.55,-18.2304 1019.73,-16.3566"/>
<polygon fill="red" stroke="red" stroke-width="0.491436" points="1019.78,-12.8565 1009.67,-16.0299 1019.55,-19.8528 1019.78,-12.8565"/>
</g>
<!-- &#45;32 -->
<g id="node32" class="node"><title>&#45;32</title>
<polygon fill="lightgray" stroke="black" points="1338.29,-95.9117 1309.29,-95.9117 1309.29,-77.9117 1338.29,-77.9117 1338.29,-95.9117"/>
<text text-anchor="middle" x="1323.79" y="-84.7117" font-family="Times New Roman,serif" font-size="9.00">&#45;32</text>
</g>
<!-- &#45;32&#45;&gt;0 -->
<g id="edge120" class="edge"><title>&#45;32&#45;&gt;0</title>
<path fill="none" stroke="red" stroke-width="0.174532" d="M1316.99,-77.7787C1312.81,-73.3833 1307.06,-68.33 1300.79,-65.6985 1099.01,18.9232 1018.93,-94.0014 809.787,-29.6985 808.73,-29.3733 807.669,-28.9948 806.613,-28.5751"/>
<polygon fill="red" stroke="red" stroke-width="0.174532" points="808.017,-25.364 797.508,-24.0168 804.883,-31.6233 808.017,-25.364"/>
</g>
<!-- &#45;32&#45;&gt;1 -->
<g id="edge121" class="edge"><title>&#45;32&#45;&gt;1</title>
<path fill="none" stroke="green" stroke-width="0.29522" d="M1316.96,-77.8619C1312.76,-73.4942 1307.01,-68.4409 1300.79,-65.6985 1165.76,-6.23614 1111.02,-75.5506 970.787,-29.6985 969.907,-29.4107 969.024,-29.0879 968.142,-28.7369"/>
<polygon fill="green" stroke="green" stroke-width="0.29522" points="969.544,-25.5253 959.031,-24.2143 966.432,-31.7954 969.544,-25.5253"/>
</g>
<!-- &#45;32&#45;&gt;2 -->
<g id="edge122" class="edge"><title>&#45;32&#45;&gt;2</title>
<path fill="none" stroke="green" stroke-width="0.157315" d="M1316.97,-77.8298C1312.78,-73.4514 1307.03,-68.3981 1300.79,-65.6985 1145.88,1.25731 1090.24,-50.6819 922.787,-29.6985 900.841,-26.9483 875.976,-23.0093 858.118,-20.0348"/>
<polygon fill="green" stroke="green" stroke-width="0.157315" points="858.684,-16.5808 848.241,-18.3689 857.519,-23.4833 858.684,-16.5808"/>
</g>
<!-- &#45;32&#45;&gt;3 -->
<g id="edge123" class="edge"><title>&#45;32&#45;&gt;3</title>
<path fill="none" stroke="red" stroke-width="0.202329" d="M1316.5,-77.5768C1312.33,-73.344 1306.75,-68.5136 1300.79,-65.6985 1204.26,-20.1074 1073.63,-15.2383 1019.68,-15.358"/>
<polygon fill="red" stroke="red" stroke-width="0.202329" points="1019.62,-11.8582 1009.65,-15.442 1019.68,-18.8579 1019.62,-11.8582"/>
</g>
<!-- &#45;33 -->
<g id="node33" class="node"><title>&#45;33</title>
<polygon fill="lightgray" stroke="black" points="1385.29,-95.9117 1356.29,-95.9117 1356.29,-77.9117 1385.29,-77.9117 1385.29,-95.9117"/>
<text text-anchor="middle" x="1370.79" y="-84.7117" font-family="Times New Roman,serif" font-size="9.00">&#45;33</text>
</g>
<!-- &#45;33&#45;&gt;0 -->
<g id="edge124" class="edge"><title>&#45;33&#45;&gt;0</title>
<path fill="none" stroke="red" stroke-width="0.49063" d="M1364,-77.7637C1359.82,-73.3633 1354.07,-68.31 1347.79,-65.6985 1126.49,26.2772 1039.07,-99.3948 809.787,-29.6985 808.729,-29.3767 807.667,-29.0009 806.61,-28.5835"/>
<polygon fill="red" stroke="red" stroke-width="0.49063" points="808.013,-25.3718 797.503,-24.0334 804.884,-31.6338 808.013,-25.3718"/>
</g>
<!-- &#45;33&#45;&gt;1 -->
<g id="edge125" class="edge"><title>&#45;33&#45;&gt;1</title>
<path fill="none" stroke="green" stroke-width="0.650231" d="M1363.97,-77.8304C1359.78,-73.4522 1354.03,-68.3989 1347.79,-65.6985 1193.29,1.10111 1131.12,-80.9312 970.787,-29.6985 969.734,-29.3617 968.675,-28.9736 967.622,-28.5463"/>
<polygon fill="green" stroke="green" stroke-width="0.650231" points="969.031,-25.337 958.526,-23.9596 965.879,-31.5873 969.031,-25.337"/>
</g>
<!-- &#45;33&#45;&gt;2 -->
<g id="edge126" class="edge"><title>&#45;33&#45;&gt;2</title>
<path fill="none" stroke="green" stroke-width="0.395222" d="M1363.98,-77.8053C1359.8,-73.4188 1354.05,-68.3655 1347.79,-65.6985 1260.59,-28.5484 1016.89,-40.9922 922.787,-29.6985 900.827,-27.063 875.964,-23.112 858.11,-20.1036"/>
<polygon fill="green" stroke="green" stroke-width="0.395222" points="858.682,-16.6508 848.235,-18.4156 857.502,-23.5507 858.682,-16.6508"/>
</g>
<!-- &#45;33&#45;&gt;3 -->
<g id="edge127" class="edge"><title>&#45;33&#45;&gt;3</title>
<path fill="none" stroke="red" stroke-width="0.10692" d="M1363.53,-77.5263C1359.36,-73.2787 1353.78,-68.4503 1347.79,-65.6985 1288.93,-38.6592 1090.35,-22.5122 1019.86,-17.521"/>
<polygon fill="red" stroke="red" stroke-width="0.10692" points="1019.91,-14.0159 1009.69,-16.8158 1019.43,-20.9992 1019.91,-14.0159"/>
</g>
<!-- &#45;34 -->
<g id="node34" class="node"><title>&#45;34</title>
<polygon fill="lightgray" stroke="black" points="1796.29,-95.9117 1767.29,-95.9117 1767.29,-77.9117 1796.29,-77.9117 1796.29,-95.9117"/>
<text text-anchor="middle" x="1781.79" y="-84.7117" font-family="Times New Roman,serif" font-size="9.00">&#45;34</text>
</g>
<!-- &#45;34&#45;&gt;1 -->
<g id="edge128" class="edge"><title>&#45;34&#45;&gt;1</title>
<path fill="none" stroke="red" stroke-width="0.195142" d="M1775.02,-77.7138C1770.85,-73.2967 1765.1,-68.2434 1758.79,-65.6985 1596.22,-0.137414 1139.03,-78.9019 970.787,-29.6985 969.725,-29.3879 968.661,-29.0214 967.602,-28.6114"/>
<polygon fill="red" stroke="red" stroke-width="0.195142" points="969,-25.398 958.487,-24.0887 965.889,-31.6686 969,-25.398"/>
</g>
<!-- &#45;34&#45;&gt;2 -->
<g id="edge129" class="edge"><title>&#45;34&#45;&gt;2</title>
<path fill="none" stroke="red" stroke-width="0.165884" d="M1775.02,-77.7076C1770.85,-73.2884 1765.1,-68.2351 1758.79,-65.6985 1672.51,-31.0381 1015.31,-38.8605 922.787,-29.6985 900.777,-27.5189 875.919,-23.5199 858.08,-20.3775"/>
<polygon fill="red" stroke="red" stroke-width="0.165884" points="858.677,-16.9288 848.215,-18.6011 857.436,-23.818 858.677,-16.9288"/>
</g>
<!-- &#45;34&#45;&gt;3 -->
<g id="edge130" class="edge"><title>&#45;34&#45;&gt;3</title>
<path fill="none" stroke="red" stroke-width="0.22543" d="M1775,-77.7598C1770.82,-73.3581 1765.07,-68.3048 1758.79,-65.6985 1689.21,-36.8487 1143.93,-20.008 1019.85,-16.5267"/>
<polygon fill="red" stroke="red" stroke-width="0.22543" points="1019.89,-13.0264 1009.79,-16.248 1019.69,-20.0237 1019.89,-13.0264"/>
</g>
<!-- &#45;35 -->
<g id="node35" class="node"><title>&#45;35</title>
<polygon fill="lightgray" stroke="black" points="1843.29,-95.9117 1814.29,-95.9117 1814.29,-77.9117 1843.29,-77.9117 1843.29,-95.9117"/>
<text text-anchor="middle" x="1828.79" y="-84.7117" font-family="Times New Roman,serif" font-size="9.00">&#45;35</text>
</g>
<!-- &#45;35&#45;&gt;1 -->
<g id="edge131" class="edge"><title>&#45;35&#45;&gt;1</title>
<path fill="none" stroke="red" stroke-width="0.494341" d="M1822.02,-77.7077C1817.85,-73.2886 1812.1,-68.2353 1805.79,-65.6985 1633.45,3.54395 1149.12,-81.6019 970.787,-29.6985 969.725,-29.3893 968.66,-29.0238 967.601,-28.6148"/>
<polygon fill="red" stroke="red" stroke-width="0.494341" points="968.999,-25.4012 958.485,-24.0954 965.889,-31.6729 968.999,-25.4012"/>
</g>
<!-- &#45;35&#45;&gt;3 -->
<g id="edge132" class="edge"><title>&#45;35&#45;&gt;3</title>
<path fill="none" stroke="green" stroke-width="0.165879" d="M1822.01,-77.7509C1817.83,-73.3463 1812.08,-68.293 1805.79,-65.6985 1731.58,-35.0917 1148.2,-19.5035 1019.75,-16.423"/>
<polygon fill="green" stroke="green" stroke-width="0.165879" points="1019.78,-12.9229 1009.7,-16.1855 1019.62,-19.9209 1019.78,-12.9229"/>
</g>
<!-- &#45;36 -->
<g id="node36" class="node"><title>&#45;36</title>
<polygon fill="lightgray" stroke="black" points="1432.29,-95.9117 1403.29,-95.9117 1403.29,-77.9117 1432.29,-77.9117 1432.29,-95.9117"/>
<text text-anchor="middle" x="1417.79" y="-84.7117" font-family="Times New Roman,serif" font-size="9.00">&#45;36</text>
</g>
<!-- &#45;36&#45;&gt;0 -->
<g id="edge133" class="edge"><title>&#45;36&#45;&gt;0</title>
<path fill="none" stroke="red" stroke-width="0.466229" stroke-dasharray="1,5" d="M1411.01,-77.7511C1406.83,-73.3465 1401.08,-68.2932 1394.79,-65.6985 1274.38,-16.0324 934.504,-67.2443 809.787,-29.6985 808.728,-29.3795 807.665,-29.0061 806.608,-28.5906"/>
<polygon fill="red" stroke="red" stroke-width="0.466229" points="808.01,-25.3784 797.499,-24.0474 804.885,-31.6426 808.01,-25.3784"/>
</g>
<!-- &#45;36&#45;&gt;1 -->
<g id="edge134" class="edge"><title>&#45;36&#45;&gt;1</title>
<path fill="none" stroke="green" stroke-width="0.214595" d="M1410.98,-77.8058C1406.8,-73.4194 1401.05,-68.3661 1394.79,-65.6985 1220.8,8.44546 1151.24,-86.3172 970.787,-29.6985 969.732,-29.3672 968.672,-28.9837 967.618,-28.56"/>
<polygon fill="green" stroke="green" stroke-width="0.214595" points="969.024,-25.3498 958.517,-23.9869 965.881,-31.6045 969.024,-25.3498"/>
</g>
<!-- &#45;36&#45;&gt;2 -->
<g id="edge135" class="edge"><title>&#45;36&#45;&gt;2</title>
<path fill="none" stroke="green" stroke-width="0.596568" d="M1410.99,-77.7856C1406.81,-73.3925 1401.06,-68.3392 1394.79,-65.6985 1297.84,-24.8737 1027.28,-41.795 922.787,-29.6985 900.816,-27.155 875.954,-23.1943 858.103,-20.1589"/>
<polygon fill="green" stroke="green" stroke-width="0.596568" points="858.681,-16.7069 848.231,-18.453 857.489,-23.6047 858.681,-16.7069"/>
</g>
<!-- &#45;36&#45;&gt;3 -->
<g id="edge136" class="edge"><title>&#45;36&#45;&gt;3</title>
<path fill="none" stroke="red" stroke-width="0.378277" d="M1410.94,-77.8976C1406.74,-73.5418 1400.99,-68.4885 1394.79,-65.6985 1327.11,-35.2719 1097.06,-21.0472 1020.1,-17.0613"/>
<polygon fill="red" stroke="red" stroke-width="0.378277" points="1020.06,-13.5548 1009.9,-16.5467 1019.71,-20.5459 1020.06,-13.5548"/>
</g>
<!-- &#45;37 -->
<g id="node37" class="node"><title>&#45;37</title>
<polygon fill="lightgray" stroke="black" points="1479.29,-95.9117 1450.29,-95.9117 1450.29,-77.9117 1479.29,-77.9117 1479.29,-95.9117"/>
<text text-anchor="middle" x="1464.79" y="-84.7117" font-family="Times New Roman,serif" font-size="9.00">&#45;37</text>
</g>
<!-- &#45;37&#45;&gt;0 -->
<g id="edge137" class="edge"><title>&#45;37&#45;&gt;0</title>
<path fill="none" stroke="red" stroke-width="0.569646" d="M1458.01,-77.7403C1453.83,-73.3321 1448.08,-68.2788 1441.79,-65.6985 1311.62,-12.3533 944.58,-69.9425 809.787,-29.6985 808.727,-29.3819 807.664,-29.0105 806.606,-28.5966"/>
<polygon fill="red" stroke="red" stroke-width="0.569646" points="808.007,-25.3841 797.495,-24.0593 804.886,-31.6501 808.007,-25.3841"/>
</g>
<!-- &#45;37&#45;&gt;1 -->
<g id="edge138" class="edge"><title>&#45;37&#45;&gt;1</title>
<path fill="none" stroke="red" stroke-width="0.109247" d="M1457.99,-77.786C1453.81,-73.393 1448.06,-68.3397 1441.79,-65.6985 1248.31,15.7947 1171.37,-91.707 970.787,-29.6985 969.73,-29.3717 968.67,-28.9918 967.614,-28.5711"/>
<polygon fill="red" stroke="red" stroke-width="0.109247" points="969.019,-25.3602 958.511,-24.0087 965.883,-31.6183 969.019,-25.3602"/>
</g>
<!-- &#45;37&#45;&gt;2 -->
<g id="edge139" class="edge"><title>&#45;37&#45;&gt;2</title>
<path fill="none" stroke="green" stroke-width="0.325356" d="M1458,-77.7695C1453.82,-73.371 1448.07,-68.3177 1441.79,-65.6985 1335.08,-21.1972 1037.68,-42.5982 922.787,-29.6985 900.807,-27.2305 875.946,-23.2619 858.098,-20.2043"/>
<polygon fill="green" stroke="green" stroke-width="0.325356" points="858.68,-16.753 848.227,-18.4837 857.478,-23.649 858.68,-16.753"/>
</g>
<!-- &#45;37&#45;&gt;3 -->
<g id="edge140" class="edge"><title>&#45;37&#45;&gt;3</title>
<path fill="none" stroke="red" stroke-width="0.536528" d="M1457.96,-77.8675C1453.76,-73.5017 1448.01,-68.4484 1441.79,-65.6985 1365.14,-31.8327 1102.8,-19.7131 1020.02,-16.6806"/>
<polygon fill="red" stroke="red" stroke-width="0.536528" points="1019.9,-13.1741 1009.78,-16.3188 1019.65,-20.1698 1019.9,-13.1741"/>
</g>
<!-- &#45;38 -->
<g id="node38" class="node"><title>&#45;38</title>
<polygon fill="lightgray" stroke="black" points="1526.29,-95.9117 1497.29,-95.9117 1497.29,-77.9117 1526.29,-77.9117 1526.29,-95.9117"/>
<text text-anchor="middle" x="1511.79" y="-84.7117" font-family="Times New Roman,serif" font-size="9.00">&#45;38</text>
</g>
<!-- &#45;38&#45;&gt;0 -->
<g id="edge141" class="edge"><title>&#45;38&#45;&gt;0</title>
<path fill="none" stroke="green" stroke-width="0.283532" d="M1505.01,-77.7311C1500.84,-73.3197 1495.09,-68.2664 1488.79,-65.6985 1348.86,-8.67351 954.658,-72.6414 809.787,-29.6985 808.727,-29.384 807.663,-29.0143 806.605,-28.6017"/>
<polygon fill="green" stroke="green" stroke-width="0.283532" points="808.005,-25.3889 797.492,-24.0695 804.887,-31.6566 808.005,-25.3889"/>
</g>
<!-- &#45;38&#45;&gt;1 -->
<g id="edge142" class="edge"><title>&#45;38&#45;&gt;1</title>
<path fill="none" stroke="red" stroke-width="0.505353" d="M1505,-77.7698C1500.82,-73.3714 1495.07,-68.3181 1488.79,-65.6985 1275.8,23.1475 1191.5,-97.0995 970.787,-29.6985 969.729,-29.3753 968.667,-28.9985 967.611,-28.5801"/>
<polygon fill="red" stroke="red" stroke-width="0.505353" points="969.015,-25.3687 958.505,-24.0267 965.884,-31.6296 969.015,-25.3687"/>
</g>
<!-- &#45;38&#45;&gt;2 -->
<g id="edge143" class="edge"><title>&#45;38&#45;&gt;2</title>
<path fill="none" stroke="green" stroke-width="0.292277" d="M1505,-77.756C1500.83,-73.3529 1495.08,-68.2996 1488.79,-65.6985 1372.33,-17.5195 1048.07,-43.4019 922.787,-29.6985 900.8,-27.2936 875.94,-23.3183 858.094,-20.2422"/>
<polygon fill="green" stroke="green" stroke-width="0.292277" points="858.679,-16.7914 848.224,-18.5094 857.468,-23.686 858.679,-16.7914"/>
</g>
<!-- &#45;38&#45;&gt;3 -->
<g id="edge144" class="edge"><title>&#45;38&#45;&gt;3</title>
<path fill="none" stroke="green" stroke-width="0.250178" stroke-dasharray="1,5" d="M1504.97,-77.843C1500.78,-73.469 1495.03,-68.4157 1488.79,-65.6985 1403.15,-28.3972 1108.45,-18.5259 1020.05,-16.3752"/>
<polygon fill="green" stroke="green" stroke-width="0.250178" points="1019.95,-12.872 1009.87,-16.14 1019.79,-19.8702 1019.95,-12.872"/>
</g>
<!-- &#45;39 -->
<g id="node39" class="node"><title>&#45;39</title>
<polygon fill="lightgray" stroke="black" points="1706.29,-162.125 1677.29,-162.125 1677.29,-144.125 1706.29,-144.125 1706.29,-162.125"/>
<text text-anchor="middle" x="1691.79" y="-150.925" font-family="Times New Roman,serif" font-size="9.00">&#45;39</text>
</g>
<!-- &#45;39&#45;&gt;0 -->
<g id="edge145" class="edge"><title>&#45;39&#45;&gt;0</title>
<path fill="none" stroke="green" stroke-width="0.31418" d="M1677.27,-152.027C1514.7,-150.894 40.6019,-139.756 9.78746,-108.125 -3.37039,-94.6183 -3.11142,-79.4526 9.78746,-65.6985 36.0906,-37.6514 630.342,-20.0401 760.672,-16.5072"/>
<polygon fill="green" stroke="green" stroke-width="0.31418" points="760.957,-20.0009 770.859,-16.2342 760.769,-13.0034 760.957,-20.0009"/>
</g>
<!-- &#45;39&#45;&gt;1 -->
<g id="edge146" class="edge"><title>&#45;39&#45;&gt;1</title>
<path fill="none" stroke="red" stroke-width="0.194633" d="M1692.85,-144.118C1694.66,-126.723 1696.11,-85.4594 1672.79,-65.6985 1613.19,-15.2154 1045.69,-51.8304 970.787,-29.6985 969.726,-29.385 968.662,-29.016 967.604,-28.604"/>
<polygon fill="red" stroke="red" stroke-width="0.194633" points="969.003,-25.3911 958.491,-24.0741 965.888,-31.6594 969.003,-25.3911"/>
</g>
<!-- &#45;39&#45;&gt;2 -->
<g id="edge147" class="edge"><title>&#45;39&#45;&gt;2</title>
<path fill="none" stroke="green" stroke-width="0.369239" stroke-dasharray="1,5" d="M1677.13,-152.023C1514.55,-150.856 53.3449,-139.499 22.7875,-108.125 9.63099,-94.617 9.76232,-79.3331 22.7875,-65.6985 83.2539,-2.40285 725.771,-54.2715 809.787,-29.6985 810.849,-29.3879 811.914,-29.0213 812.973,-28.6113"/>
<polygon fill="green" stroke="green" stroke-width="0.369239" points="814.686,-31.6685 822.088,-24.0885 811.575,-25.398 814.686,-31.6685"/>
</g>
<!-- &#45;39&#45;&gt;3 -->
<g id="edge148" class="edge"><title>&#45;39&#45;&gt;3</title>
<path fill="none" stroke="red" stroke-width="0.504861" d="M1706.56,-151.427C1765.21,-148.183 1975.4,-131.801 1912.79,-65.6985 1881.2,-32.3464 1163.81,-18.6635 1019.82,-16.2485"/>
<polygon fill="red" stroke="red" stroke-width="0.504861" points="1019.81,-12.748 1009.76,-16.0825 1019.7,-19.747 1019.81,-12.748"/>
</g>
<!-- 437 -->
<g id="node45" class="node"><title>437</title>
<ellipse fill="white" stroke="black" cx="1882.79" cy="-86.9117" rx="21.4286" ry="21.4286"/>
<text text-anchor="middle" x="1882.79" y="-84.7117" font-family="Times New Roman,serif" font-size="9.00">437</text>
</g>
<!-- &#45;39&#45;&gt;437 -->
<g id="edge153" class="edge"><title>&#45;39&#45;&gt;437</title>
<path fill="none" stroke="green" stroke-width="0.322445" d="M1706.55,-149.755C1735.58,-144.74 1801.69,-131.551 1852.79,-108.125 1854.36,-107.405 1855.94,-106.607 1857.5,-105.755"/>
<polygon fill="green" stroke="green" stroke-width="0.322445" points="1859.49,-108.646 1866.22,-100.468 1855.86,-102.661 1859.49,-108.646"/>
</g>
<!-- &#45;40 -->
<g id="node40" class="node"><title>&#45;40</title>
<polygon fill="lightgray" stroke="black" points="1573.29,-95.9117 1544.29,-95.9117 1544.29,-77.9117 1573.29,-77.9117 1573.29,-95.9117"/>
<text text-anchor="middle" x="1558.79" y="-84.7117" font-family="Times New Roman,serif" font-size="9.00">&#45;40</text>
</g>
<!-- &#45;40&#45;&gt;0 -->
<g id="edge149" class="edge"><title>&#45;40&#45;&gt;0</title>
<path fill="none" stroke="red" stroke-width="0.245114" d="M1552.02,-77.723C1547.84,-73.309 1542.09,-68.2557 1535.79,-65.6985 1386.1,-4.99311 964.737,-75.3406 809.787,-29.6985 808.726,-29.3858 807.662,-29.0176 806.603,-28.6063"/>
<polygon fill="red" stroke="red" stroke-width="0.245114" points="808.002,-25.3932 797.489,-24.0785 804.888,-31.6622 808.002,-25.3932"/>
</g>
<!-- &#45;40&#45;&gt;1 -->
<g id="edge150" class="edge"><title>&#45;40&#45;&gt;1</title>
<path fill="none" stroke="red" stroke-width="0.182908" d="M1552,-77.7562C1547.82,-73.3533 1542.07,-68.3 1535.79,-65.6985 1419.54,-17.5977 1091.22,-66.0963 970.787,-29.6985 969.728,-29.3784 968.666,-29.004 967.609,-28.5877"/>
<polygon fill="red" stroke="red" stroke-width="0.182908" points="969.011,-25.3758 958.5,-24.0417 965.885,-31.639 969.011,-25.3758"/>
</g>
<!-- &#45;40&#45;&gt;2 -->
<g id="edge151" class="edge"><title>&#45;40&#45;&gt;2</title>
<path fill="none" stroke="green" stroke-width="0.271706" d="M1552.01,-77.7445C1547.83,-73.3377 1542.08,-68.2844 1535.79,-65.6985 1409.57,-13.8407 1058.47,-44.2058 922.787,-29.6985 900.795,-27.347 875.935,-23.3661 858.09,-20.2742"/>
<polygon fill="green" stroke="green" stroke-width="0.271706" points="858.678,-16.824 848.222,-18.5311 857.461,-23.7173 858.678,-16.824"/>
</g>
<!-- &#45;40&#45;&gt;3 -->
<g id="edge152" class="edge"><title>&#45;40&#45;&gt;3</title>
<path fill="none" stroke="red" stroke-width="0.244759" d="M1551.98,-77.8226C1547.79,-73.4419 1542.04,-68.3886 1535.79,-65.6985 1441.09,-24.9388 1113.61,-17.441 1019.97,-16.1203"/>
<polygon fill="red" stroke="red" stroke-width="0.244759" points="1019.79,-12.6177 1009.75,-15.988 1019.7,-19.6171 1019.79,-12.6177"/>
</g>
<!-- 437&#45;&gt;3 -->
<g id="edge154" class="edge"><title>437&#45;&gt;3</title>
<path fill="none" stroke="red" stroke-width="0.217831" d="M1866.81,-72.8737C1862.5,-70.0108 1857.67,-67.3452 1852.79,-65.6985 1692.57,-11.6285 1143.47,-14.2269 1019.7,-15.5328"/>
<polygon fill="red" stroke="red" stroke-width="0.217831" points="1019.64,-12.0332 1009.68,-15.6459 1019.72,-19.0327 1019.64,-12.0332"/>
</g>
</g>
</svg>
